<svg width="106" height="106" viewBox="0 0 106 106" fill="none" xmlns="http://www.w3.org/2000/svg">
<g filter="url(#filter0_d)">
<circle cx="53" cy="53" r="49" fill="#5197D5"/>
<circle cx="53" cy="53" r="50.75" stroke="#F2F1F0" stroke-width="3.5"/>
</g>
<circle cx="53" cy="53" r="48" stroke="#0078D4" stroke-width="4"/>
<g filter="url(#filter1_d)">
<path fill-rule="evenodd" clip-rule="evenodd" d="M47.9688 23H32.875C31.2937 23 30 24.2937 30 25.875V33.0625H76V30.1875C76 28.6062 74.707 27.3125 73.125 27.3125H51.5625L47.9688 23Z" fill="url(#paint0_linear)"/>
<path fill-rule="evenodd" clip-rule="evenodd" d="M76 56.0625C76 57.6437 74.707 58.9375 73.125 58.9375H32.875C31.2937 58.9375 30 57.6437 30 56.0625V33.0625C30 31.4812 31.2937 30.1875 32.875 30.1875H73.125C74.707 30.1875 76 31.4812 76 33.0625V56.0625Z" fill="url(#paint1_linear)"/>
</g>
<path fill-rule="evenodd" clip-rule="evenodd" d="M68.5217 73.4886H55.2174V59H51.7826V73.4886H37.4783C36.6615 73.4886 36 74.1211 36 74.9004C36 75.6796 36.6615 76.3121 37.4783 76.3121H68.5217C69.3377 76.3121 70 75.6796 70 74.9004C70 74.1211 69.3377 73.4886 68.5217 73.4886Z" fill="#182A37"/>
<path fill-rule="evenodd" clip-rule="evenodd" d="M36 74.3135C36 75.4169 36.6623 76.3125 37.4783 76.3125H68.5217C69.3377 76.3125 70 75.4169 70 74.3135V74.3125H36V74.3135Z" fill="#12202B"/>
<circle cx="30.5" cy="74.5" r="6.5" fill="white"/>
<circle cx="75.5" cy="74.5" r="6.5" fill="white"/>
<path d="M60 74.5C60 78.0899 57.0899 81 53.5 81C49.9101 81 47 78.0899 47 74.5C47 70.9101 49.9101 68 53.5 68C57.0899 68 60 70.9101 60 74.5Z" fill="white"/>
<g filter="url(#filter2_d)">
<path fill-rule="evenodd" clip-rule="evenodd" d="M53.0004 53.9993C58.2469 53.9993 62.5 49.7462 62.5 44.4997C62.5 39.2531 58.2469 35 53.0004 35C47.7539 35 43.5007 39.2531 43.5007 44.4997C43.5007 46.3308 44.0188 48.041 44.9165 49.4915V52.5829H48.0075C49.4582 53.4809 51.1688 53.9993 53.0004 53.9993Z" fill="#FCA11F"/>
<path fill-rule="evenodd" clip-rule="evenodd" d="M62.5003 44.5005C62.5003 49.747 58.2472 54.0002 53.0007 54.0002C51.1691 54.0002 49.4585 53.4818 48.0078 52.5838H44.9165V52.5261L59.7567 37.8223C61.453 39.5382 62.5003 41.8971 62.5003 44.5005Z" fill="#E89619"/>
<circle cx="53.0004" cy="39.4662" r="1.25823" fill="white"/>
<circle cx="53.0004" cy="49.5326" r="1.25823" fill="white"/>
<circle cx="56.3974" cy="46.1371" r="1.25823" fill="white"/>
<circle cx="56.3974" cy="42.8022" r="1.25823" fill="white"/>
<path d="M55.8941 44.4369C55.8941 44.9177 55.3803 45.7895 55.1392 46.167H57.6242C57.3935 45.8314 56.9573 45.0157 56.9321 44.4369C56.9212 44.1844 57.0036 43.8908 57.1209 43.613C57.2725 43.2541 57.4823 42.9215 57.6242 42.7383H55.1392C55.4223 43.1053 55.8941 43.8078 55.8941 44.4369Z" fill="white"/>
<circle cx="49.6032" cy="46.1371" r="1.25823" fill="white"/>
<circle cx="49.6034" cy="42.8022" r="1.25823" fill="white"/>
<path d="M49.0996 44.4392C49.0996 44.9199 48.9003 44.9739 48.6592 45.3514L50.5151 45.3199C50.2844 44.9844 50.1628 45.0179 50.1376 44.4392C50.1266 44.1867 50.1376 44.0931 50.2634 43.9044C50.4041 43.6934 50.3732 43.7731 50.5151 43.5898L48.7535 43.6842C49.0366 44.0512 49.0996 43.81 49.0996 44.4392Z" fill="white"/>
<circle cx="56.3974" cy="46.1371" r="1.25823" fill="white"/>
<circle cx="56.3974" cy="42.8022" r="1.25823" fill="white"/>
<path d="M55.8938 44.4392C55.8938 44.9199 55.6945 44.9739 55.4534 45.3514L57.3093 45.3199C57.0786 44.9844 56.957 45.0179 56.9318 44.4392C56.9208 44.1867 56.9318 44.0931 57.0576 43.9044C57.1983 43.6934 57.1674 43.7731 57.3093 43.5898L55.5477 43.6842C55.8308 44.0512 55.8938 43.81 55.8938 44.4392Z" fill="white"/>
<circle cx="53.0004" cy="46.1371" r="1.25823" fill="white"/>
<circle cx="53.0004" cy="42.8022" r="1.25823" fill="white"/>
<path d="M52.4973 44.4392C52.4973 44.9199 52.298 44.9739 52.0569 45.3514L53.9128 45.3199C53.6821 44.9844 53.5605 45.0179 53.5353 44.4392C53.5243 44.1867 53.5353 44.0931 53.6611 43.9044C53.8018 43.6934 53.7709 43.7731 53.9128 43.5898L52.1513 43.6842C52.4344 44.0512 52.4973 43.81 52.4973 44.4392Z" fill="white"/>
<circle cx="53.0004" cy="46.1371" r="1.25823" fill="white"/>
<circle cx="53.0004" cy="42.8022" r="1.25823" fill="white"/>
<path d="M52.4973 44.4392C52.4973 44.9199 52.298 44.9739 52.0569 45.3514L53.9128 45.3199C53.6821 44.9844 53.5605 45.0179 53.5353 44.4392C53.5243 44.1867 53.5353 44.0931 53.6611 43.9044C53.8018 43.6934 53.7709 43.7731 53.9128 43.5898L52.1513 43.6842C52.4344 44.0512 52.4973 43.81 52.4973 44.4392Z" fill="white"/>
</g>
<path d="M56.6506 76.8589C56.4667 75.2093 55.0517 73.9121 53.3395 73.9121C51.6414 73.9121 50.2406 75.1811 50.0283 76.8166C50 76.9294 50 77.0563 50 77.1691C50.0425 77.6343 50.3679 78.0855 50.9764 78.438C52.2782 79.1853 54.4007 79.1853 55.6884 78.438C56.2969 78.0855 56.6082 77.6343 56.6506 77.1691C56.6789 77.0704 56.6648 76.9576 56.6506 76.8589Z" fill="#0483DA"/>
<path d="M56.6506 76.8589C56.4667 75.2093 55.0517 73.9121 53.3395 73.9121C51.6414 73.9121 50.2406 75.1811 50.0283 76.8166C50 76.9294 50 77.0563 50 77.1691C50.0425 77.6343 50.3679 78.0855 50.9764 78.438C52.2782 79.1853 54.4007 79.1853 55.6884 78.438C56.2969 78.0855 56.6082 77.6343 56.6506 77.1691C56.6789 77.0704 56.6648 76.9576 56.6506 76.8589Z" fill="#0483DA"/>
<path d="M56.6506 76.8589C56.4667 75.2093 55.0517 73.9121 53.3395 73.9121C51.6414 73.9121 50.2406 75.1811 50.0283 76.8166C50 76.9294 50 77.0563 50 77.1691C50.0425 77.6343 50.3679 78.0855 50.9764 78.438C52.2782 79.1853 54.4007 79.1853 55.6884 78.438C56.2969 78.0855 56.6082 77.6343 56.6506 77.1691C56.6789 77.0704 56.6648 76.9576 56.6506 76.8589Z" fill="#0483DA"/>
<path d="M56.6506 76.8589C56.4667 75.2093 55.0517 73.9121 53.3395 73.9121C51.6414 73.9121 50.2406 75.1811 50.0283 76.8166C50 76.9294 50 77.0563 50 77.1691C50.0425 77.6343 50.3679 78.0855 50.9764 78.438C52.2782 79.1853 54.4007 79.1853 55.6884 78.438C56.2969 78.0855 56.6082 77.6343 56.6506 77.1691C56.6789 77.0704 56.6648 76.9576 56.6506 76.8589Z" fill="#0483DA"/>
<path d="M53.3418 73.5758C54.4493 73.5758 55.347 72.6831 55.347 71.5819C55.347 70.4806 54.4493 69.5879 53.3418 69.5879C52.2344 69.5879 51.3367 70.4806 51.3367 71.5819C51.3367 72.6831 52.2344 73.5758 53.3418 73.5758Z" fill="#0483DA"/>
<path d="M53.3418 73.5758C54.4493 73.5758 55.347 72.6831 55.347 71.5819C55.347 70.4806 54.4493 69.5879 53.3418 69.5879C52.2344 69.5879 51.3367 70.4806 51.3367 71.5819C51.3367 72.6831 52.2344 73.5758 53.3418 73.5758Z" fill="#0483DA"/>
<path d="M53.3418 73.5758C54.4493 73.5758 55.347 72.6831 55.347 71.5819C55.347 70.4806 54.4493 69.5879 53.3418 69.5879C52.2344 69.5879 51.3367 70.4806 51.3367 71.5819C51.3367 72.6831 52.2344 73.5758 53.3418 73.5758Z" fill="#0483DA"/>
<path d="M53.3418 73.5758C54.4493 73.5758 55.347 72.6831 55.347 71.5819C55.347 70.4806 54.4493 69.5879 53.3418 69.5879C52.2344 69.5879 51.3367 70.4806 51.3367 71.5819C51.3367 72.6831 52.2344 73.5758 53.3418 73.5758Z" fill="#0483DA"/>
<path d="M78.6506 77.271C78.4667 75.6214 77.0517 74.3242 75.3395 74.3242C73.6414 74.3242 72.2406 75.5932 72.0283 77.2287C72 77.3415 72 77.4684 72 77.5812C72.0425 78.0464 72.3679 78.4976 72.9764 78.8501C74.2782 79.5974 76.4007 79.5974 77.6884 78.8501C78.2969 78.4976 78.6082 78.0464 78.6506 77.5812C78.6789 77.4825 78.6648 77.3697 78.6506 77.271Z" fill="#0483DA"/>
<path d="M78.6506 77.271C78.4667 75.6214 77.0517 74.3242 75.3395 74.3242C73.6414 74.3242 72.2406 75.5932 72.0283 77.2287C72 77.3415 72 77.4684 72 77.5812C72.0425 78.0464 72.3679 78.4976 72.9764 78.8501C74.2782 79.5974 76.4007 79.5974 77.6884 78.8501C78.2969 78.4976 78.6082 78.0464 78.6506 77.5812C78.6789 77.4825 78.6648 77.3697 78.6506 77.271Z" fill="#0483DA"/>
<path d="M78.6506 77.271C78.4667 75.6214 77.0517 74.3242 75.3395 74.3242C73.6414 74.3242 72.2406 75.5932 72.0283 77.2287C72 77.3415 72 77.4684 72 77.5812C72.0425 78.0464 72.3679 78.4976 72.9764 78.8501C74.2782 79.5974 76.4007 79.5974 77.6884 78.8501C78.2969 78.4976 78.6082 78.0464 78.6506 77.5812C78.6789 77.4825 78.6648 77.3697 78.6506 77.271Z" fill="#0483DA"/>
<path d="M78.6506 77.271C78.4667 75.6214 77.0517 74.3242 75.3395 74.3242C73.6414 74.3242 72.2406 75.5932 72.0283 77.2287C72 77.3415 72 77.4684 72 77.5812C72.0425 78.0464 72.3679 78.4976 72.9764 78.8501C74.2782 79.5974 76.4007 79.5974 77.6884 78.8501C78.2969 78.4976 78.6082 78.0464 78.6506 77.5812C78.6789 77.4825 78.6648 77.3697 78.6506 77.271Z" fill="#0483DA"/>
<path d="M75.3418 73.988C76.4493 73.988 77.347 73.0952 77.347 71.994C77.347 70.8927 76.4493 70 75.3418 70C74.2344 70 73.3367 70.8927 73.3367 71.994C73.3367 73.0952 74.2344 73.988 75.3418 73.988Z" fill="#0483DA"/>
<path d="M75.3418 73.988C76.4493 73.988 77.347 73.0952 77.347 71.994C77.347 70.8927 76.4493 70 75.3418 70C74.2344 70 73.3367 70.8927 73.3367 71.994C73.3367 73.0952 74.2344 73.988 75.3418 73.988Z" fill="#0483DA"/>
<path d="M75.3418 73.988C76.4493 73.988 77.347 73.0952 77.347 71.994C77.347 70.8927 76.4493 70 75.3418 70C74.2344 70 73.3367 70.8927 73.3367 71.994C73.3367 73.0952 74.2344 73.988 75.3418 73.988Z" fill="#0483DA"/>
<path d="M75.3418 73.988C76.4493 73.988 77.347 73.0952 77.347 71.994C77.347 70.8927 76.4493 70 75.3418 70C74.2344 70 73.3367 70.8927 73.3367 71.994C73.3367 73.0952 74.2344 73.988 75.3418 73.988Z" fill="#0483DA"/>
<path d="M33.6506 77.271C33.4667 75.6214 32.0517 74.3242 30.3395 74.3242C28.6414 74.3242 27.2406 75.5932 27.0283 77.2287C27 77.3415 27 77.4684 27 77.5812C27.0425 78.0464 27.3679 78.4976 27.9764 78.8501C29.2782 79.5974 31.4007 79.5974 32.6884 78.8501C33.2969 78.4976 33.6082 78.0464 33.6506 77.5812C33.6789 77.4825 33.6648 77.3697 33.6506 77.271Z" fill="#0483DA"/>
<path d="M33.6506 77.271C33.4667 75.6214 32.0517 74.3242 30.3395 74.3242C28.6414 74.3242 27.2406 75.5932 27.0283 77.2287C27 77.3415 27 77.4684 27 77.5812C27.0425 78.0464 27.3679 78.4976 27.9764 78.8501C29.2782 79.5974 31.4007 79.5974 32.6884 78.8501C33.2969 78.4976 33.6082 78.0464 33.6506 77.5812C33.6789 77.4825 33.6648 77.3697 33.6506 77.271Z" fill="#0483DA"/>
<path d="M33.6506 77.271C33.4667 75.6214 32.0517 74.3242 30.3395 74.3242C28.6414 74.3242 27.2406 75.5932 27.0283 77.2287C27 77.3415 27 77.4684 27 77.5812C27.0425 78.0464 27.3679 78.4976 27.9764 78.8501C29.2782 79.5974 31.4007 79.5974 32.6884 78.8501C33.2969 78.4976 33.6082 78.0464 33.6506 77.5812C33.6789 77.4825 33.6648 77.3697 33.6506 77.271Z" fill="#0483DA"/>
<path d="M33.6506 77.271C33.4667 75.6214 32.0517 74.3242 30.3395 74.3242C28.6414 74.3242 27.2406 75.5932 27.0283 77.2287C27 77.3415 27 77.4684 27 77.5812C27.0425 78.0464 27.3679 78.4976 27.9764 78.8501C29.2782 79.5974 31.4007 79.5974 32.6884 78.8501C33.2969 78.4976 33.6082 78.0464 33.6506 77.5812C33.6789 77.4825 33.6648 77.3697 33.6506 77.271Z" fill="#0483DA"/>
<path d="M30.3418 73.988C31.4493 73.988 32.347 73.0952 32.347 71.994C32.347 70.8927 31.4493 70 30.3418 70C29.2344 70 28.3367 70.8927 28.3367 71.994C28.3367 73.0952 29.2344 73.988 30.3418 73.988Z" fill="#0483DA"/>
<path d="M30.3418 73.988C31.4493 73.988 32.347 73.0952 32.347 71.994C32.347 70.8927 31.4493 70 30.3418 70C29.2344 70 28.3367 70.8927 28.3367 71.994C28.3367 73.0952 29.2344 73.988 30.3418 73.988Z" fill="#0483DA"/>
<path d="M30.3418 73.988C31.4493 73.988 32.347 73.0952 32.347 71.994C32.347 70.8927 31.4493 70 30.3418 70C29.2344 70 28.3367 70.8927 28.3367 71.994C28.3367 73.0952 29.2344 73.988 30.3418 73.988Z" fill="#0483DA"/>
<path d="M30.3418 73.988C31.4493 73.988 32.347 73.0952 32.347 71.994C32.347 70.8927 31.4493 70 30.3418 70C29.2344 70 28.3367 70.8927 28.3367 71.994C28.3367 73.0952 29.2344 73.988 30.3418 73.988Z" fill="#0483DA"/>
<defs>
<filter id="filter0_d" x="0.5" y="0.5" width="105.5" height="105.5" filterUnits="userSpaceOnUse" color-interpolation-filters="sRGB">
<feFlood flood-opacity="0" result="BackgroundImageFix"/>
<feColorMatrix in="SourceAlpha" type="matrix" values="0 0 0 0 0 0 0 0 0 0 0 0 0 0 0 0 0 0 127 0"/>
<feOffset dx="0.5" dy="0.5"/>
<feColorMatrix type="matrix" values="0 0 0 0 0.823529 0 0 0 0 0.831373 0 0 0 0 0.835294 0 0 0 1 0"/>
<feBlend mode="normal" in2="BackgroundImageFix" result="effect1_dropShadow"/>
<feBlend mode="normal" in="SourceGraphic" in2="effect1_dropShadow" result="shape"/>
</filter>
<filter id="filter1_d" x="30" y="23" width="46" height="37.9375" filterUnits="userSpaceOnUse" color-interpolation-filters="sRGB">
<feFlood flood-opacity="0" result="BackgroundImageFix"/>
<feColorMatrix in="SourceAlpha" type="matrix" values="0 0 0 0 0 0 0 0 0 0 0 0 0 0 0 0 0 0 127 0"/>
<feOffset dy="2"/>
<feColorMatrix type="matrix" values="0 0 0 0 0 0 0 0 0 0 0 0 0 0 0 0 0 0 0.0964957 0"/>
<feBlend mode="normal" in2="BackgroundImageFix" result="effect1_dropShadow"/>
<feBlend mode="normal" in="SourceGraphic" in2="effect1_dropShadow" result="shape"/>
</filter>
<filter id="filter2_d" x="39.5007" y="33" width="26.9996" height="27.0002" filterUnits="userSpaceOnUse" color-interpolation-filters="sRGB">
<feFlood flood-opacity="0" result="BackgroundImageFix"/>
<feColorMatrix in="SourceAlpha" type="matrix" values="0 0 0 0 0 0 0 0 0 0 0 0 0 0 0 0 0 0 127 0"/>
<feOffset dy="2"/>
<feGaussianBlur stdDeviation="2"/>
<feColorMatrix type="matrix" values="0 0 0 0 0 0 0 0 0 0 0 0 0 0 0 0 0 0 0.1 0"/>
<feBlend mode="normal" in2="BackgroundImageFix" result="effect1_dropShadow"/>
<feBlend mode="normal" in="SourceGraphic" in2="effect1_dropShadow" result="shape"/>
</filter>
<linearGradient id="paint0_linear" x1="53" y1="23" x2="53" y2="33.0625" gradientUnits="userSpaceOnUse">
<stop stop-color="#0266AB"/>
<stop offset="1" stop-color="#2C4A74"/>
</linearGradient>
<linearGradient id="paint1_linear" x1="53" y1="30.1875" x2="53" y2="58.9375" gradientUnits="userSpaceOnUse">
<stop stop-color="#1683D9"/>
<stop offset="1" stop-color="#015CA1"/>
</linearGradient>
</defs>
</svg>
