<svg width="100" height="100" viewBox="0 0 100 100" fill="none" xmlns="http://www.w3.org/2000/svg">
<g clip-path="url(#clip0_529_516)">
<path d="M49.6401 96.4499C40.382 96.4499 31.3317 93.7045 23.6339 88.561C15.936 83.4174 9.93624 76.1067 6.3933 67.5533C2.85036 58.9999 1.92337 49.588 3.72954 40.5077C5.53571 31.4275 9.99394 23.0867 16.5404 16.5402C23.0869 9.99372 31.4277 5.5355 40.5079 3.72933C49.5882 1.92315 59.0001 2.85015 67.5535 6.39308C76.1069 9.93602 83.4176 15.9358 88.5612 23.6336C93.7047 31.3315 96.4501 40.3817 96.4501 49.6399C96.4505 55.7872 95.24 61.8744 92.8878 67.5538C90.5355 73.2332 87.0875 78.3937 82.7407 82.7405C78.3939 87.0873 73.2335 90.5353 67.554 92.8876C61.8746 95.2398 55.7874 96.4503 49.6401 96.4499V96.4499Z" fill="url(#paint0_linear_529_516)"/>
<path fill-rule="evenodd" clip-rule="evenodd" d="M95.54 49.6399C95.54 58.718 92.848 67.5923 87.8045 75.1406C82.7609 82.6888 75.5923 88.5719 67.2052 92.046C58.818 95.52 49.5891 96.429 40.6854 94.6579C31.7816 92.8869 23.603 88.5153 17.1838 82.0961C10.7646 75.6769 6.39302 67.4983 4.62196 58.5945C2.85089 49.6908 3.75987 40.4618 7.23393 32.0747C10.708 23.6876 16.5911 16.519 24.1393 11.4754C31.6875 6.43187 40.5618 3.73988 49.64 3.73988C55.6677 3.73986 61.6363 4.92708 67.2052 7.23377C72.774 9.54045 77.834 12.9214 82.0963 17.1836C86.3585 21.4458 89.7394 26.5058 92.0461 32.0747C94.3528 37.6435 95.54 43.6122 95.54 49.6399V49.6399ZM49.64 -0.000106449C59.4579 -0.000106449 69.0552 2.91123 77.2185 8.36574C85.3818 13.8203 91.7442 21.573 95.5014 30.6435C99.2585 39.714 100.242 49.695 98.3262 59.3242C96.4108 68.9534 91.6831 77.7984 84.7408 84.7407C77.7985 91.683 68.9535 96.4107 59.3243 98.3261C49.6951 100.241 39.7141 99.2584 30.6436 95.5013C21.5731 91.7441 13.8204 85.3816 8.36584 77.2184C2.91133 69.0551 -1.61629e-06 59.4577 3.61524e-07 49.6399C-0.000786426 43.1208 1.28265 36.6655 3.77702 30.6425C6.27138 24.6196 9.92781 19.147 14.5375 14.5374C19.1471 9.9277 24.6197 6.27127 30.6427 3.77691C36.6656 1.28254 43.121 -0.000894549 49.64 -0.000106449V-0.000106449Z" fill="#F2F1F0"/>
<path fill-rule="evenodd" clip-rule="evenodd" d="M92.7296 49.64C92.7296 58.1624 90.2024 66.4934 85.4676 73.5795C80.7328 80.6656 74.0031 86.1886 66.1294 89.45C58.2557 92.7113 49.5918 93.5647 41.2331 91.902C32.8745 90.2394 25.1966 86.1355 19.1703 80.1092C13.1441 74.083 9.04017 66.4051 7.37753 58.0464C5.7149 49.6878 6.56822 41.0238 9.8296 33.1502C13.091 25.2765 18.6139 18.5468 25.7 13.812C32.7862 9.07718 41.1172 6.55 49.6396 6.55C55.2983 6.54965 60.9017 7.66397 66.1298 9.82933C71.3579 11.9947 76.1082 15.1687 80.1096 19.17C84.1109 23.1713 87.2849 27.9217 89.4502 33.1498C91.6156 38.3778 92.7299 43.9812 92.7296 49.64ZM49.6396 2.81C58.9017 2.81 67.9558 5.55653 75.6569 10.7023C83.3581 15.848 89.3604 23.1619 92.9049 31.7189C96.4493 40.276 97.3767 49.6919 95.5697 58.7761C93.7628 67.8602 89.3027 76.2045 82.7534 82.7538C76.2041 89.3031 67.8598 93.7632 58.7757 95.5702C49.6915 97.3771 40.2756 96.4497 31.7185 92.9053C23.1614 89.3608 15.8476 83.3585 10.7018 75.6574C5.5561 67.9562 2.80957 58.9021 2.80957 49.64C2.81076 37.2203 7.74501 25.3096 16.5271 16.5275C25.3091 7.74544 37.2198 2.81119 49.6396 2.81V2.81Z" fill="#0078D4"/>
<path fill-rule="evenodd" clip-rule="evenodd" d="M92.7296 49.6399C92.7296 58.1623 90.2024 66.4933 85.4676 73.5794C80.7328 80.6655 74.0031 86.1885 66.1294 89.4499C58.2557 92.7112 49.5918 93.5646 41.2331 91.9019C32.8745 90.2393 25.1966 86.1354 19.1703 80.1091C13.1441 74.0829 9.04017 66.405 7.37753 58.0463C5.7149 49.6877 6.56822 41.0237 9.8296 33.1501C13.091 25.2764 18.6139 18.5467 25.7001 13.8119C32.7862 9.07708 41.1172 6.5499 49.6396 6.5499C55.2983 6.54956 60.9017 7.66388 66.1298 9.82923C71.3579 11.9946 76.1082 15.1686 80.1096 19.1699C84.1109 23.1712 87.2849 27.9216 89.4502 33.1497C91.6156 38.3777 92.7299 43.9811 92.7296 49.6399V49.6399ZM49.6396 2.8099C58.9017 2.8099 67.9558 5.55643 75.6569 10.7022C83.3581 15.8479 89.3604 23.1618 92.9048 31.7188C96.4493 40.2759 97.3767 49.6918 95.5697 58.776C93.7628 67.8601 89.3027 76.2044 82.7534 82.7537C76.2041 89.303 67.8598 93.7631 58.7757 95.5701C49.6915 97.377 40.2756 96.4496 31.7185 92.9052C23.1614 89.3607 15.8476 83.3584 10.7018 75.6573C5.5561 67.9561 2.80957 58.902 2.80957 49.6399C2.81075 37.2202 7.74499 25.3095 16.5271 16.5274C25.3091 7.7453 37.2198 2.81105 49.6396 2.80986V2.8099Z" fill="#0078D4"/>
<path d="M41.3435 72.9154H25.2781V37.1607C25.2781 36.6272 25.5351 36.1943 25.8518 36.1943H40.7697C41.0864 36.1943 41.3435 36.6272 41.3435 37.1607V72.9154Z" fill="url(#paint1_linear_529_516)"/>
<path d="M25.2779 35.4293H41.3434C41.5462 35.4293 41.7408 35.5099 41.8843 35.6534C42.0278 35.7968 42.1084 35.9914 42.1084 36.1943C42.1084 36.3972 42.0278 36.5918 41.8843 36.7352C41.7408 36.8787 41.5462 36.9593 41.3434 36.9593H25.2779C25.075 36.9593 24.8805 36.8787 24.737 36.7352C24.5935 36.5918 24.5129 36.3972 24.5129 36.1943C24.5129 35.9914 24.5935 35.7968 24.737 35.6534C24.8805 35.5099 25.075 35.4293 25.2779 35.4293Z" fill="url(#paint2_linear_529_516)"/>
<path opacity="0.2" d="M44.4066 35.4293H34.2041V72.9154H44.4066V35.4293Z" fill="#003067"/>
<path d="M59.6203 72.9155H36.3301V21.0817C36.3301 20.3084 36.7027 19.6807 37.1619 19.6807H58.7885C59.2476 19.6807 59.6203 20.3084 59.6203 21.0817V72.9155Z" fill="white"/>
<path d="M48.1858 72.9155H36.3301V21.4142C36.3301 20.6458 36.7095 20.0222 37.1768 20.0222H47.7693C48.2368 20.0222 48.1858 19.2539 48.1858 20.0222V72.9155Z" fill="#F2F2F2"/>
<path d="M45.3873 49.6252H41.6905C41.4504 49.6299 41.2182 49.5391 41.0449 49.3728C40.8716 49.2064 40.7714 48.9781 40.7664 48.738V46.0762C40.7714 45.8361 40.8716 45.6078 41.0449 45.4414C41.2182 45.2751 41.4504 45.1843 41.6905 45.189H45.3873C45.6275 45.1843 45.8597 45.2751 46.033 45.4414C46.2063 45.6078 46.3065 45.8361 46.3116 46.0762V48.738C46.3065 48.9781 46.2063 49.2065 46.033 49.3728C45.8597 49.5392 45.6275 49.6299 45.3873 49.6252V49.6252Z" fill="#0078D4"/>
<path d="M54.2609 49.6252H50.5641C50.3239 49.6299 50.0917 49.5391 49.9184 49.3728C49.7451 49.2064 49.645 48.9781 49.6399 48.738V46.0762C49.645 45.8361 49.7451 45.6078 49.9184 45.4414C50.0917 45.2751 50.3239 45.1843 50.5641 45.189H54.2609C54.5011 45.1843 54.7333 45.2751 54.9066 45.4414C55.0799 45.6078 55.1801 45.8361 55.1852 46.0762V48.738C55.1801 48.9781 55.0799 49.2064 54.9066 49.3728C54.7333 49.5391 54.5011 49.6299 54.2609 49.6252V49.6252Z" fill="#0078D4"/>
<path d="M45.3873 56.2796H41.6905C41.4504 56.2843 41.2182 56.1935 41.0449 56.0271C40.8716 55.8608 40.7714 55.6325 40.7664 55.3923V52.7306C40.7714 52.4904 40.8716 52.2621 41.0449 52.0958C41.2182 51.9294 41.4504 51.8386 41.6905 51.8433H45.3873C45.6275 51.8386 45.8597 51.9294 46.033 52.0957C46.2063 52.2621 46.3065 52.4904 46.3116 52.7306V55.3923C46.3065 55.6325 46.2063 55.8608 46.033 56.0271C45.8597 56.1935 45.6275 56.2843 45.3873 56.2796V56.2796Z" fill="#0078D4"/>
<path d="M54.2609 56.2796H50.5641C50.3239 56.2843 50.0917 56.1935 49.9184 56.0271C49.7451 55.8608 49.645 55.6325 49.6399 55.3923V52.7306C49.645 52.4904 49.7451 52.2621 49.9184 52.0958C50.0917 51.9294 50.3239 51.8386 50.5641 51.8433H54.2609C54.5011 51.8386 54.7333 51.9294 54.9066 52.0957C55.0799 52.2621 55.1801 52.4904 55.1852 52.7306V55.3923C55.1801 55.6325 55.0799 55.8608 54.9066 56.0271C54.7333 56.1935 54.5011 56.2843 54.2609 56.2796V56.2796Z" fill="#0078D4"/>
<path d="M45.3873 62.9339H41.6905C41.4504 62.9386 41.2182 62.8478 41.0449 62.6815C40.8716 62.5151 40.7714 62.2868 40.7664 62.0467V59.3849C40.7714 59.1447 40.8716 58.9164 41.0449 58.7501C41.2182 58.5837 41.4504 58.4929 41.6905 58.4976H45.3873C45.6275 58.4929 45.8597 58.5837 46.033 58.7501C46.2063 58.9164 46.3065 59.1447 46.3116 59.3849V62.0466C46.3065 62.2868 46.2063 62.5151 46.033 62.6815C45.8597 62.8478 45.6275 62.9386 45.3873 62.9339V62.9339Z" fill="#0078D4"/>
<path d="M54.2609 62.9339H50.5641C50.3239 62.9386 50.0917 62.8478 49.9184 62.6815C49.7451 62.5151 49.645 62.2868 49.6399 62.0467V59.3849C49.645 59.1447 49.7451 58.9164 49.9184 58.7501C50.0917 58.5837 50.3239 58.4929 50.5641 58.4976H54.2609C54.5011 58.4929 54.7333 58.5837 54.9066 58.7501C55.0799 58.9164 55.1801 59.1447 55.1852 59.3849V62.0466C55.1801 62.2868 55.0799 62.5151 54.9066 62.6815C54.7333 62.8478 54.5011 62.9386 54.2609 62.9339V62.9339Z" fill="#0078D4"/>
<path d="M45.3873 29.6623H41.6905C41.4504 29.667 41.2182 29.5762 41.0449 29.4099C40.8716 29.2435 40.7714 29.0152 40.7664 28.7751V26.1133C40.7714 25.8731 40.8716 25.6448 41.0449 25.4784C41.2182 25.3121 41.4504 25.2213 41.6905 25.226H45.3873C45.6275 25.2213 45.8597 25.3121 46.033 25.4784C46.2063 25.6448 46.3065 25.8731 46.3116 26.1133V28.7751C46.3065 29.0152 46.2063 29.2435 46.033 29.4099C45.8597 29.5762 45.6275 29.667 45.3873 29.6623V29.6623Z" fill="#0078D4"/>
<path d="M54.2609 29.6623H50.5641C50.3239 29.667 50.0917 29.5762 49.9184 29.4099C49.7451 29.2435 49.645 29.0152 49.6399 28.7751V26.1133C49.645 25.8731 49.7451 25.6448 49.9184 25.4784C50.0917 25.3121 50.3239 25.2213 50.5641 25.226H54.2609C54.5011 25.2213 54.7333 25.3121 54.9066 25.4784C55.0799 25.6448 55.1801 25.8731 55.1852 26.1133V28.7751C55.1801 29.0152 55.0799 29.2435 54.9066 29.4099C54.7333 29.5762 54.5011 29.667 54.2609 29.6623V29.6623Z" fill="#0078D4"/>
<path d="M45.3873 36.3166H41.6905C41.4504 36.3214 41.2182 36.2306 41.0449 36.0642C40.8716 35.8979 40.7714 35.6695 40.7664 35.4294V32.7677C40.7714 32.5275 40.8716 32.2992 41.0449 32.1328C41.2182 31.9665 41.4504 31.8757 41.6905 31.8804H45.3873C45.6275 31.8757 45.8597 31.9665 46.033 32.1328C46.2063 32.2992 46.3065 32.5275 46.3116 32.7677V35.4294C46.3065 35.6696 46.2063 35.8979 46.033 36.0642C45.8597 36.2306 45.6275 36.3214 45.3873 36.3166V36.3166Z" fill="#0078D4"/>
<path d="M54.2609 36.3166H50.564C50.3239 36.3213 50.0917 36.2305 49.9184 36.0642C49.7451 35.8978 49.645 35.6695 49.6399 35.4294V32.7677C49.645 32.5275 49.7451 32.2992 49.9184 32.1328C50.0917 31.9665 50.3239 31.8757 50.5641 31.8804H54.2609C54.5011 31.8757 54.7333 31.9665 54.9066 32.1328C55.0799 32.2992 55.1801 32.5275 55.1852 32.7677V35.4294C55.1801 35.6696 55.0799 35.8979 54.9066 36.0642C54.7333 36.2306 54.5011 36.3214 54.2609 36.3166V36.3166Z" fill="#0078D4"/>
<path d="M45.3873 42.9709H41.6905C41.4504 42.9756 41.2182 42.8848 41.0449 42.7185C40.8716 42.5521 40.7714 42.3238 40.7664 42.0836V39.4219C40.7714 39.1817 40.8716 38.9534 41.0449 38.7871C41.2182 38.6207 41.4504 38.5299 41.6905 38.5346H45.3873C45.6275 38.5299 45.8597 38.6207 46.033 38.7871C46.2063 38.9534 46.3065 39.1817 46.3116 39.4219V42.0836C46.3065 42.3238 46.2063 42.5521 46.033 42.7185C45.8597 42.8848 45.6275 42.9756 45.3873 42.9709Z" fill="#0078D4"/>
<path d="M54.2609 42.9709H50.5641C50.3239 42.9756 50.0917 42.8848 49.9184 42.7185C49.7451 42.5521 49.645 42.3238 49.6399 42.0836V39.4219C49.645 39.1817 49.7451 38.9534 49.9184 38.7871C50.0917 38.6207 50.3239 38.5299 50.5641 38.5346H54.2609C54.5011 38.5299 54.7333 38.6207 54.9066 38.7871C55.0799 38.9534 55.1801 39.1817 55.1852 39.4219V42.0836C55.1801 42.3238 55.0799 42.5521 54.9066 42.7185C54.7333 42.8848 54.5011 42.9756 54.2609 42.9709Z" fill="#0078D4"/>
<path d="M49.8236 66.2611H46.1268C45.8941 66.2496 45.6664 66.3306 45.4932 66.4864C45.3201 66.6423 45.2156 66.8603 45.2026 67.0929V72.9154H50.7479V67.0929C50.7349 66.8603 50.6305 66.6422 50.4573 66.4864C50.2841 66.3306 50.0563 66.2495 49.8236 66.2611Z" fill="#1F56A3"/>
<path d="M47.4206 66.2611H45.9453C45.7367 66.2736 45.5416 66.3681 45.4025 66.5239C45.2633 66.6797 45.1915 66.8843 45.2025 67.0929V72.9154H47.4152L47.4206 66.2611Z" fill="#003067"/>
<path d="M36.3302 18.5717H59.6204C59.9146 18.5717 60.1967 18.6885 60.4047 18.8965C60.6127 19.1045 60.7295 19.3866 60.7295 19.6807V19.6807C60.7295 19.9749 60.6126 20.257 60.4046 20.4649C60.1967 20.6729 59.9146 20.7897 59.6204 20.7897H36.3302C36.0361 20.7897 35.754 20.6729 35.546 20.4649C35.3381 20.257 35.2212 19.9749 35.2212 19.6807V19.6807C35.2212 19.3866 35.338 19.1045 35.546 18.8965C35.754 18.6885 36.0361 18.5717 36.3302 18.5717V18.5717Z" fill="#003067"/>
<path opacity="0.2" d="M59.6203 72.9154V48.8277H50.8649C49.5873 48.8292 48.3624 49.3374 47.4589 50.2408C46.5555 51.1442 46.0473 52.3691 46.0459 53.6467V72.9154H59.6203Z" fill="#767676"/>
<path d="M72.6315 51.0023H50.865C49.4045 51.0023 48.2205 52.1864 48.2205 53.6469V75.4134C48.2205 76.8739 49.4045 78.0579 50.865 78.0579H72.6315C74.092 78.0579 75.276 76.8739 75.276 75.4134V53.6469C75.276 52.1864 74.092 51.0023 72.6315 51.0023Z" fill="white"/>
<path d="M70.4751 59.7949V69.5559L62.0381 74.4619V64.6859L70.4751 59.7949Z" fill="#37C2B1"/>
<path d="M70.4751 59.7949L62.0391 64.6989L53.6011 59.7939L62.0391 54.8879L70.4751 59.7949Z" fill="#42E8CA"/>
<path d="M62.0381 64.6989V74.4619L53.6011 69.5559V59.7939L62.0381 64.6989Z" fill="#3CD4C2"/>
<path d="M66.0693 47.4072C67.3256 46.4197 68.3629 45.1819 69.1156 43.7724C69.8683 42.3628 70.3199 40.8123 70.4418 39.219C70.5636 37.6257 70.3531 36.0245 69.8235 34.5169C69.2939 33.0093 68.4569 31.6281 67.3654 30.4611" stroke="white" stroke-width="0.70079" stroke-miterlimit="10" stroke-linecap="round"/>
<path d="M68.7427 29.487L65.7718 28.7618C65.7427 28.7547 65.7121 28.7553 65.6833 28.7638C65.6544 28.7722 65.6283 28.7881 65.6075 28.8098C65.5868 28.8315 65.5721 28.8583 65.5649 28.8875C65.5578 28.9167 65.5585 28.9472 65.5669 28.9761L66.4239 31.9116C66.4323 31.9404 66.4482 31.9666 66.4699 31.9873C66.4916 32.0081 66.5184 32.0228 66.5476 32.0299C66.5768 32.037 66.6074 32.0363 66.6362 32.0279C66.665 32.0195 66.6911 32.0036 66.7119 31.9819L68.8258 29.7716C68.8465 29.7499 68.8612 29.7231 68.8683 29.6939C68.8755 29.6647 68.8748 29.6342 68.8664 29.6053C68.858 29.5765 68.8421 29.5503 68.8204 29.5296C68.7987 29.5088 68.7719 29.4941 68.7427 29.487V29.487Z" fill="white"/>
</g>
<defs>
<linearGradient id="paint0_linear_529_516" x1="47.8698" y1="-15.1532" x2="51.8525" y2="130.615" gradientUnits="userSpaceOnUse">
<stop stop-color="#00ABDE"/>
<stop offset="1" stop-color="#007ED8"/>
</linearGradient>
<linearGradient id="paint1_linear_529_516" x1="33.3108" y1="72.9154" x2="33.3108" y2="36.1943" gradientUnits="userSpaceOnUse">
<stop stop-color="#008BF1"/>
<stop offset="0.22" stop-color="#0086EC"/>
<stop offset="0.49" stop-color="#0078DD"/>
<stop offset="0.79" stop-color="#0061C4"/>
<stop offset="1" stop-color="#004DAE"/>
</linearGradient>
<linearGradient id="paint2_linear_529_516" x1="33.3106" y1="36.9044" x2="33.3106" y2="35.4626" gradientUnits="userSpaceOnUse">
<stop stop-color="white"/>
<stop offset="0.56" stop-color="#FBFBFB"/>
<stop offset="1" stop-color="#F2F2F2"/>
</linearGradient>
<clipPath id="clip0_529_516">
<rect width="99.2799" height="99.28" fill="white"/>
</clipPath>
</defs>
</svg>
