<?xml version="1.0" encoding="UTF-8"?>
<svg width="102px" height="102px" viewBox="0 0 102 102" version="1.1" xmlns="http://www.w3.org/2000/svg" xmlns:xlink="http://www.w3.org/1999/xlink">
    <title>Use DAX in Power BI Desktop/m3-add-calculated-tables-and-columns-to-power-bi-desktop-models</title>
    <defs>
        <rect id="path-1" x="0" y="0" width="94.3396226" height="94.3396226" rx="47.1698113"></rect>
        <filter x="-2.9%" y="-2.9%" width="106.4%" height="106.4%" filterUnits="objectBoundingBox" id="filter-3">
            <feMorphology radius="2.5" operator="dilate" in="SourceAlpha" result="shadowSpreadOuter1"></feMorphology>
            <feOffset dx="0.5" dy="0.5" in="shadowSpreadOuter1" result="shadowOffsetOuter1"></feOffset>
            <feMorphology radius="1" operator="erode" in="SourceAlpha" result="shadowInner"></feMorphology>
            <feOffset dx="0.5" dy="0.5" in="shadowInner" result="shadowInner"></feOffset>
            <feComposite in="shadowOffsetOuter1" in2="shadowInner" operator="out" result="shadowOffsetOuter1"></feComposite>
            <feColorMatrix values="0 0 0 0 0.821822822   0 0 0 0 0.831640661   0 0 0 0 0.835737288  0 0 0 1 0" type="matrix" in="shadowOffsetOuter1"></feColorMatrix>
        </filter>
        <linearGradient x1="50%" y1="0%" x2="50%" y2="100%" id="linearGradient-4">
            <stop stop-color="#4E4E57" offset="0%"></stop>
            <stop stop-color="#2E2E34" offset="100%"></stop>
        </linearGradient>
        <rect id="path-5" x="0" y="0" width="94.3396226" height="94.3396226"></rect>
        <path d="M48.1132075,0.739331515 C74.2770768,0.739331515 95.4870836,21.9493383 95.4870836,48.1132075 C95.4870836,74.2770768 74.2770768,95.4870836 48.1132075,95.4870836 C21.9493383,95.4870836 0.739331515,74.2770768 0.739331515,48.1132075 C0.739331515,21.9493383 21.9493383,0.739331515 48.1132075,0.739331515 Z M48.1132075,4.71698113 C24.1461335,4.71698113 4.71698113,24.1461335 4.71698113,48.1132075 C4.71698113,72.0802816 24.1461335,91.509434 48.1132075,91.509434 C72.0802816,91.509434 91.509434,72.0802816 91.509434,48.1132075 C91.509434,24.1461335 72.0802816,4.71698113 48.1132075,4.71698113 Z" id="path-6"></path>
        <linearGradient x1="50%" y1="0.670396959%" x2="50%" y2="100%" id="linearGradient-8">
            <stop stop-color="#6A6A6A" offset="0%"></stop>
            <stop stop-color="#343333" offset="100%"></stop>
        </linearGradient>
        <linearGradient x1="50%" y1="100%" x2="50%" y2="0%" id="linearGradient-9">
            <stop stop-color="#CCCCCC" offset="15%"></stop>
            <stop stop-color="#707070" offset="100%"></stop>
        </linearGradient>
        <linearGradient x1="-78.2380608%" y1="50%" x2="100%" y2="50%" id="linearGradient-10">
            <stop stop-color="#C28626" offset="0%"></stop>
            <stop stop-color="#EFB252" offset="100%"></stop>
        </linearGradient>
        <linearGradient x1="50%" y1="-9.93901477%" x2="50%" y2="100%" id="linearGradient-11">
            <stop stop-color="#FFFFFF" offset="0%"></stop>
            <stop stop-color="#CBCBCB" offset="100%"></stop>
        </linearGradient>
    </defs>
    <g id="Badges" stroke="none" stroke-width="1" fill="none" fill-rule="evenodd">
        <g id="Use-DAX-in-Power-BI-Desktop" transform="translate(-159.000000, -699.000000)">
            <g id="Use-DAX-in-Power-BI-Desktop/m3-add-calculated-tables-and-columns-to-power-bi-desktop-models" transform="translate(160.000000, 700.000000)">
                <g id="Badge-Plates/Circle">
                    <g id="BG" transform="translate(2.830189, 2.830189)">
                        <mask id="mask-2" fill="white">
                            <use xlink:href="#path-1"></use>
                        </mask>
                        <g>
                            <use fill="black" fill-opacity="1" filter="url(#filter-3)" xlink:href="#path-1"></use>
                            <rect stroke="#F2F1F0" stroke-width="2.5" x="-1.25" y="-1.25" width="96.8396226" height="96.8396226" rx="48.4198113"></rect>
                        </g>
                        <g id="Colors/Power-BI/BG-Solid-1" mask="url(#mask-2)">
                            <rect id="Rectangle" fill="url(#linearGradient-4)" x="0" y="0" width="94.3396226" height="94.3396226"></rect>
                            <g id="Rectangle">
                                <use fill="#F2C811" xlink:href="#path-5"></use>
                                <use fill-opacity="0.501092657" fill="#FFFFFF" xlink:href="#path-5"></use>
                            </g>
                        </g>
                    </g>
                    <g id="Border" transform="translate(1.886792, 1.886792)">
                        <mask id="mask-7" fill="white">
                            <use xlink:href="#path-6"></use>
                        </mask>
                        <use id="Boarder" fill="#0078D4" fill-rule="nonzero" xlink:href="#path-6"></use>
                        <g id="Colors/Power-BI/Border" mask="url(#mask-7)" fill="#F3C900">
                            <g transform="translate(-1.886792, -1.886792)" id="Rectangle">
                                <rect x="0" y="0" width="100" height="100"></rect>
                            </g>
                        </g>
                    </g>
                </g>
                <g id="Group" transform="translate(17.000000, 23.063929)" fill-rule="nonzero">
                    <g id="Computer">
                        <rect id="Rectangle" fill="url(#linearGradient-8)" x="0" y="0" width="66" height="45.8644068" rx="0.6"></rect>
                        <path d="M47.020283,59.8969872 C40.3830225,58.8145843 40.1220066,53.8664568 40.1220066,45.8644068 L26.9593495,45.8644068 C26.9593495,53.8664568 26.7356216,58.8145843 20.098361,59.8969872 C18.2006454,60.1146859 16.7681482,61.7833381 16.779661,63.7627119 L50.3389831,63.7627119 C50.3504958,61.7833381 48.9179986,60.1146859 47.020283,59.8969872 Z" id="Path" fill="url(#linearGradient-9)"></path>
                    </g>
                </g>
                <g id="Group-8" transform="translate(21.765796, 27.012363)">
                    <path d="M3.50573706,37 L52.4121818,37 C55.7157902,37 56.091793,35.888412 56.091793,32.5536481 L56.091793,2 C56.091793,0.8954305 55.1963625,-2.02906125e-16 54.091793,0 L2,0 C0.8954305,2.02906125e-16 3.02677678e-12,0.8954305 3.02691205e-12,2 L3.02691205e-12,34.0380668 L3.02691205e-12,34.0380668 C3.02691205e-12,35.6651739 1.57790769,37 3.50573706,37 Z" id="Fill-1315" fill="url(#linearGradient-10)" fill-rule="nonzero"></path>
                    <path d="M13.2921549,9.38509959 C13.2921549,9.88982586 12.5812451,10.3035714 11.7131868,10.3035714 L5.37860623,10.3035714 C4.5053533,10.3023805 3.79795364,9.89283328 3.7958965,9.3872658 L3.7958965,5.71987706 C3.7958965,5.217317 4.50680631,4.80357143 5.37860623,4.80357143 L11.7131868,4.80357143 C12.5812451,4.80357143 13.2958965,5.21515079 13.2958965,5.71987706 L13.2958965,9.3872658" id="Fill-1327" fill="#FFFFFF" fill-rule="nonzero"></path>
                    <path d="M13.2921549,17.3850996 C13.2921549,17.8898259 12.5812451,18.3035714 11.7131868,18.3035714 L5.37860623,18.3035714 C4.5053533,18.3023805 3.79795364,17.8928333 3.7958965,17.3872658 L3.7958965,13.7198771 C3.7958965,13.217317 4.50680631,12.8035714 5.37860623,12.8035714 L11.7131868,12.8035714 C12.5812451,12.8035714 13.2958965,13.2151508 13.2958965,13.7198771 L13.2958965,17.3872658" id="Fill-1327" fill="#FFFFFF" fill-rule="nonzero"></path>
                    <path d="M13.2921549,25.3850996 C13.2921549,25.8898259 12.5812451,26.3035714 11.7131868,26.3035714 L5.37860623,26.3035714 C4.5053533,26.3023805 3.79795364,25.8928333 3.7958965,25.3872658 L3.7958965,21.7198771 C3.7958965,21.217317 4.50680631,20.8035714 5.37860623,20.8035714 L11.7131868,20.8035714 C12.5812451,20.8035714 13.2958965,21.2151508 13.2958965,21.7198771 L13.2958965,25.3872658" id="Fill-1327" fill="#FFFFFF" fill-rule="nonzero"></path>
                    <path d="M13.2921549,33.3850996 C13.2921549,33.8898259 12.5812451,34.3035714 11.7131868,34.3035714 L5.37860623,34.3035714 C4.5053533,34.3023805 3.79795364,33.8928333 3.7958965,33.3872658 L3.7958965,29.7198771 C3.7958965,29.217317 4.50680631,28.8035714 5.37860623,28.8035714 L11.7131868,28.8035714 C12.5812451,28.8035714 13.2958965,29.2151508 13.2958965,29.7198771 L13.2958965,33.3872658" id="Fill-1327" fill="#FFFFFF" fill-rule="nonzero"></path>
                    <path d="M26.2921549,9.38509959 C26.2921549,9.88982586 25.5812451,10.3035714 24.7131868,10.3035714 L18.3786062,10.3035714 C17.5053533,10.3023805 16.7979536,9.89283328 16.7958965,9.3872658 L16.7958965,5.71987706 C16.7958965,5.217317 17.5068063,4.80357143 18.3786062,4.80357143 L24.7131868,4.80357143 C25.5812451,4.80357143 26.2958965,5.21515079 26.2958965,5.71987706 L26.2958965,9.3872658" id="Fill-1327" fill="#FFFFFF" fill-rule="nonzero"></path>
                    <path d="M26.2921549,17.3850996 C26.2921549,17.8898259 25.5812451,18.3035714 24.7131868,18.3035714 L18.3786062,18.3035714 C17.5053533,18.3023805 16.7979536,17.8928333 16.7958965,17.3872658 L16.7958965,13.7198771 C16.7958965,13.217317 17.5068063,12.8035714 18.3786062,12.8035714 L24.7131868,12.8035714 C25.5812451,12.8035714 26.2958965,13.2151508 26.2958965,13.7198771 L26.2958965,17.3872658" id="Fill-1327" fill="#FFFFFF" fill-rule="nonzero"></path>
                    <path d="M26.2921549,25.3850996 C26.2921549,25.8898259 25.5812451,26.3035714 24.7131868,26.3035714 L18.3786062,26.3035714 C17.5053533,26.3023805 16.7979536,25.8928333 16.7958965,25.3872658 L16.7958965,21.7198771 C16.7958965,21.217317 17.5068063,20.8035714 18.3786062,20.8035714 L24.7131868,20.8035714 C25.5812451,20.8035714 26.2958965,21.2151508 26.2958965,21.7198771 L26.2958965,25.3872658" id="Fill-1327" fill="#FFFFFF" fill-rule="nonzero"></path>
                    <path d="M26.2921549,33.3850996 C26.2921549,33.8898259 25.5812451,34.3035714 24.7131868,34.3035714 L18.3786062,34.3035714 C17.5053533,34.3023805 16.7979536,33.8928333 16.7958965,33.3872658 L16.7958965,29.7198771 C16.7958965,29.217317 17.5068063,28.8035714 18.3786062,28.8035714 L24.7131868,28.8035714 C25.5812451,28.8035714 26.2958965,29.2151508 26.2958965,29.7198771 L26.2958965,33.3872658" id="Fill-1327" fill="#FFFFFF" fill-rule="nonzero"></path>
                    <path d="M39.2921549,9.38509959 C39.2921549,9.88982586 38.5812451,10.3035714 37.7131868,10.3035714 L31.3786062,10.3035714 C30.5053533,10.3023805 29.7979536,9.89283328 29.7958965,9.3872658 L29.7958965,5.71987706 C29.7958965,5.217317 30.5068063,4.80357143 31.3786062,4.80357143 L37.7131868,4.80357143 C38.5812451,4.80357143 39.2958965,5.21515079 39.2958965,5.71987706 L39.2958965,9.3872658" id="Fill-1327" fill="#FFFFFF" fill-rule="nonzero"></path>
                    <path d="M39.2921549,17.3850996 C39.2921549,17.8898259 38.5812451,18.3035714 37.7131868,18.3035714 L31.3786062,18.3035714 C30.5053533,18.3023805 29.7979536,17.8928333 29.7958965,17.3872658 L29.7958965,13.7198771 C29.7958965,13.217317 30.5068063,12.8035714 31.3786062,12.8035714 L37.7131868,12.8035714 C38.5812451,12.8035714 39.2958965,13.2151508 39.2958965,13.7198771 L39.2958965,17.3872658" id="Fill-1327" fill="#FFFFFF" fill-rule="nonzero"></path>
                    <path d="M39.2921549,25.3850996 C39.2921549,25.8898259 38.5812451,26.3035714 37.7131868,26.3035714 L31.3786062,26.3035714 C30.5053533,26.3023805 29.7979536,25.8928333 29.7958965,25.3872658 L29.7958965,21.7198771 C29.7958965,21.217317 30.5068063,20.8035714 31.3786062,20.8035714 L37.7131868,20.8035714 C38.5812451,20.8035714 39.2958965,21.2151508 39.2958965,21.7198771 L39.2958965,25.3872658" id="Fill-1327" fill="#FFFFFF" fill-rule="nonzero"></path>
                    <path d="M39.2921549,33.3850996 C39.2921549,33.8898259 38.5812451,34.3035714 37.7131868,34.3035714 L31.3786062,34.3035714 C30.5053533,34.3023805 29.7979536,33.8928333 29.7958965,33.3872658 L29.7958965,29.7198771 C29.7958965,29.217317 30.5068063,28.8035714 31.3786062,28.8035714 L37.7131868,28.8035714 C38.5812451,28.8035714 39.2958965,29.2151508 39.2958965,29.7198771 L39.2958965,33.3872658" id="Fill-1327" fill="#FFFFFF" fill-rule="nonzero"></path>
                    <path d="M52.2921549,9.38509959 C52.2921549,9.88982586 51.5812451,10.3035714 50.7131868,10.3035714 L44.3786062,10.3035714 C43.5053533,10.3023805 42.7979536,9.89283328 42.7958965,9.3872658 L42.7958965,5.71987706 C42.7958965,5.217317 43.5068063,4.80357143 44.3786062,4.80357143 L50.7131868,4.80357143 C51.5812451,4.80357143 52.2958965,5.21515079 52.2958965,5.71987706 L52.2958965,9.3872658" id="Fill-1327" fill="#FFFFFF" fill-rule="nonzero"></path>
                    <path d="M52.2921549,17.3850996 C52.2921549,17.8898259 51.5812451,18.3035714 50.7131868,18.3035714 L44.3786062,18.3035714 C43.5053533,18.3023805 42.7979536,17.8928333 42.7958965,17.3872658 L42.7958965,13.7198771 C42.7958965,13.217317 43.5068063,12.8035714 44.3786062,12.8035714 L50.7131868,12.8035714 C51.5812451,12.8035714 52.2958965,13.2151508 52.2958965,13.7198771 L52.2958965,17.3872658" id="Fill-1327" fill="#FFFFFF" fill-rule="nonzero"></path>
                    <path d="M52.2921549,25.3850996 C52.2921549,25.8898259 51.5812451,26.3035714 50.7131868,26.3035714 L44.3786062,26.3035714 C43.5053533,26.3023805 42.7979536,25.8928333 42.7958965,25.3872658 L42.7958965,21.7198771 C42.7958965,21.217317 43.5068063,20.8035714 44.3786062,20.8035714 L50.7131868,20.8035714 C51.5812451,20.8035714 52.2958965,21.2151508 52.2958965,21.7198771 L52.2958965,25.3872658" id="Fill-1327" fill="#FFFFFF" fill-rule="nonzero"></path>
                    <path d="M52.2921549,33.3850996 C52.2921549,33.8898259 51.5812451,34.3035714 50.7131868,34.3035714 L44.3786062,34.3035714 C43.5053533,34.3023805 42.7979536,33.8928333 42.7958965,33.3872658 L42.7958965,29.7198771 C42.7958965,29.217317 43.5068063,28.8035714 44.3786062,28.8035714 L50.7131868,28.8035714 C51.5812451,28.8035714 52.2958965,29.2151508 52.2958965,29.7198771 L52.2958965,33.3872658" id="Fill-1327" fill="#FFFFFF" fill-rule="nonzero"></path>
                    <rect id="Rectangle" fill="#CCCCCC" opacity="0.641159784" x="42.7958965" y="4.80357143" width="9.5" height="29.5" rx="1"></rect>
                    <g id="Group-6" transform="translate(37.076743, 31.553571)">
                        <circle id="Oval" fill="url(#linearGradient-11)" cx="10.4691538" cy="10.4691538" r="10.4691538"></circle>
                        <path d="M4.82344581,17.25 C5.41393241,17.25 5.9377159,17.0958174 6.39479627,16.7874522 C6.85187665,16.4790869 7.25100185,16.0034172 7.59217189,15.3604429 C7.93334193,14.7174686 8.28325992,13.6808365 8.64192585,12.2505467 L8.64192585,12.2505467 L9.40955844,9.21938218 L10.3346541,9.21938218 L10.5642878,8.45174959 L9.61294827,8.45174959 C9.88413471,7.34513395 10.2428006,6.53594861 10.6889461,6.02419355 C10.9601325,5.70489338 11.224758,5.5452433 11.4828225,5.5452433 C11.5353102,5.5452433 11.5779565,5.56055221 11.6107613,5.59117004 C11.6435661,5.62178786 11.6599685,5.66115364 11.6599685,5.70926736 C11.6599685,5.75300711 11.6238832,5.83611263 11.5517126,5.95858393 C11.479542,6.08105522 11.4434567,6.19696555 11.4434567,6.30631493 C11.4434567,6.45940405 11.5003184,6.59062329 11.6140418,6.69997266 C11.7277651,6.80932203 11.8721063,6.86399672 12.0470653,6.86399672 C12.2351462,6.86399672 12.3926093,6.7972936 12.5194546,6.66388737 C12.6462998,6.53048114 12.7097225,6.35005467 12.7097225,6.12260798 C12.7097225,5.86454347 12.6145885,5.65459267 12.4243206,5.4927556 C12.2340527,5.33091853 11.928968,5.25 11.5090664,5.25 C10.8529701,5.25 10.2581096,5.44245489 9.72448463,5.82736468 C9.1908597,6.21227447 8.68347861,6.84868781 8.20234138,7.7366047 C8.03613034,8.04278294 7.87866724,8.23961181 7.7299521,8.32709131 C7.58123695,8.4145708 7.34285532,8.45612356 7.01480721,8.45174959 L7.01480721,8.45174959 L6.79829545,9.21938218 L7.71026921,9.21938218 L6.37183291,14.461591 C6.14876019,15.3232641 5.99785806,15.854702 5.91912651,16.0559049 C5.80540316,16.3489612 5.63263116,16.5982777 5.40081049,16.8038546 C5.30895702,16.8869601 5.19742066,16.9285128 5.06620141,16.9285128 C5.03120961,16.9285128 5.00059179,16.9175779 4.97434794,16.895708 L4.97434794,16.895708 L4.94154313,16.8497813 C4.94154313,16.8279114 4.97434794,16.7830782 5.03995756,16.7152816 C5.10556719,16.647485 5.138372,16.5436031 5.138372,16.4036359 C5.138372,16.2505467 5.0858843,16.1237015 4.9809089,16.0231001 C4.87593351,15.9224986 4.72503137,15.8721979 4.52820251,15.8721979 C4.29200786,15.8721979 4.10173996,15.9378075 3.95739879,16.0690268 C3.81305762,16.200246 3.74088703,16.3555221 3.74088703,16.5348551 C3.74088703,16.72731 3.82836653,16.8946145 4.00332552,17.0367687 C4.17828452,17.1789229 4.45165795,17.25 4.82344581,17.25 Z M14.7501817,14.5337616 C15.0213682,14.5337616 15.2969286,14.4353472 15.576863,14.2385183 C15.9442769,13.9848278 16.3204387,13.5474303 16.7053485,12.9263259 L16.7053485,12.9263259 L16.4691538,12.7885457 C16.2067154,13.1559595 16.0120735,13.3855932 15.8852282,13.4774467 C15.8021227,13.5343084 15.7037082,13.5627392 15.5899849,13.5627392 C15.4543917,13.5627392 15.3209854,13.4774467 15.1897662,13.3068617 C14.9666935,13.0181793 14.6692632,12.2177419 14.2974753,10.9055495 C14.6298974,10.3194369 14.9098318,9.93671405 15.1372785,9.75738108 C15.3034895,9.62616184 15.4784485,9.56055221 15.6621555,9.56055221 C15.7321391,9.56055221 15.8578909,9.58570257 16.0394108,9.63600328 C16.2209308,9.68630399 16.3816743,9.71145435 16.5216415,9.71145435 C16.7140964,9.71145435 16.87484,9.64475123 17.0038723,9.511345 C17.1329045,9.37793876 17.1974207,9.20626025 17.1974207,8.99630946 C17.1974207,8.77323674 17.1329045,8.59609076 17.0038723,8.46487151 C16.87484,8.33365227 16.6900396,8.26804265 16.449471,8.26804265 C16.2351462,8.26804265 16.0328499,8.31943685 15.8425819,8.42222526 C15.652314,8.52501367 15.4106519,8.74699289 15.1175956,9.08816293 C14.8988969,9.34185347 14.5752227,9.78581192 14.1465732,10.4200383 C13.9759882,9.63709677 13.6829319,8.9197649 13.2674043,8.26804265 L13.2674043,8.26804265 L10.9776284,8.66170038 L10.9317017,8.91101695 C11.1022867,8.87602515 11.2466279,8.85852925 11.3647252,8.85852925 C11.5921719,8.85852925 11.7802528,8.95694369 11.928968,9.15377255 C12.1651626,9.45995079 12.4932107,10.3916074 12.9131123,11.9487425 C12.5850642,12.3905139 12.3598045,12.6791963 12.2373332,12.8147895 C12.0361303,13.0334882 11.8699193,13.1756424 11.7387,13.2412521 C11.6380986,13.2937397 11.5243753,13.3199836 11.39753,13.3199836 C11.3013026,13.3199836 11.1438395,13.2674959 10.9251407,13.1625205 C10.7764256,13.0925369 10.6430193,13.0575451 10.524922,13.0575451 C10.3018493,13.0575451 10.1181424,13.1297157 9.97380119,13.2740569 C9.82946002,13.418398 9.75728944,13.602105 9.75728944,13.8251777 C9.75728944,14.0351285 9.82399256,14.2057135 9.95739879,14.3369328 C10.090805,14.468152 10.2712315,14.5337616 10.4986782,14.5337616 C10.7173769,14.5337616 10.9229537,14.4878349 11.1154086,14.3959814 C11.3078635,14.3041279 11.5495256,14.1083926 11.840395,13.8087753 C12.1312643,13.509158 12.5325765,13.0334882 13.0443315,12.381766 C13.2411604,13.0028704 13.4117454,13.4544833 13.5560866,13.7366047 C13.7004278,14.0187261 13.8655453,14.2221159 14.0514392,14.3467742 C14.2373332,14.4714325 14.4702473,14.5337616 14.7501817,14.5337616 Z" id="fx" fill="#363535" fill-rule="nonzero"></path>
                    </g>
                </g>
            </g>
        </g>
    </g>
</svg>