<?xml version="1.0" encoding="UTF-8"?>
<svg width="102px" height="102px" viewBox="0 0 102 102" version="1.1" xmlns="http://www.w3.org/2000/svg" xmlns:xlink="http://www.w3.org/1999/xlink">
    <title>Use DAX in Power BI Desktop/m4-add-measures-to-power-bi-desktop-models</title>
    <defs>
        <rect id="path-1" x="0" y="0" width="94.3396226" height="94.3396226" rx="47.1698113"></rect>
        <filter x="-2.9%" y="-2.9%" width="106.4%" height="106.4%" filterUnits="objectBoundingBox" id="filter-3">
            <feMorphology radius="2.5" operator="dilate" in="SourceAlpha" result="shadowSpreadOuter1"></feMorphology>
            <feOffset dx="0.5" dy="0.5" in="shadowSpreadOuter1" result="shadowOffsetOuter1"></feOffset>
            <feMorphology radius="1" operator="erode" in="SourceAlpha" result="shadowInner"></feMorphology>
            <feOffset dx="0.5" dy="0.5" in="shadowInner" result="shadowInner"></feOffset>
            <feComposite in="shadowOffsetOuter1" in2="shadowInner" operator="out" result="shadowOffsetOuter1"></feComposite>
            <feColorMatrix values="0 0 0 0 0.821822822   0 0 0 0 0.831640661   0 0 0 0 0.835737288  0 0 0 1 0" type="matrix" in="shadowOffsetOuter1"></feColorMatrix>
        </filter>
        <linearGradient x1="50%" y1="0%" x2="50%" y2="100%" id="linearGradient-4">
            <stop stop-color="#4E4E57" offset="0%"></stop>
            <stop stop-color="#2E2E34" offset="100%"></stop>
        </linearGradient>
        <rect id="path-5" x="0" y="0" width="94.3396226" height="94.3396226"></rect>
        <path d="M48.1132075,0.739331515 C74.2770768,0.739331515 95.4870836,21.9493383 95.4870836,48.1132075 C95.4870836,74.2770768 74.2770768,95.4870836 48.1132075,95.4870836 C21.9493383,95.4870836 0.739331515,74.2770768 0.739331515,48.1132075 C0.739331515,21.9493383 21.9493383,0.739331515 48.1132075,0.739331515 Z M48.1132075,4.71698113 C24.1461335,4.71698113 4.71698113,24.1461335 4.71698113,48.1132075 C4.71698113,72.0802816 24.1461335,91.509434 48.1132075,91.509434 C72.0802816,91.509434 91.509434,72.0802816 91.509434,48.1132075 C91.509434,24.1461335 72.0802816,4.71698113 48.1132075,4.71698113 Z" id="path-6"></path>
        <linearGradient x1="50%" y1="0.670396959%" x2="50%" y2="100%" id="linearGradient-8">
            <stop stop-color="#6A6A6A" offset="0%"></stop>
            <stop stop-color="#343333" offset="100%"></stop>
        </linearGradient>
        <linearGradient x1="50%" y1="100%" x2="50%" y2="0%" id="linearGradient-9">
            <stop stop-color="#CCCCCC" offset="15%"></stop>
            <stop stop-color="#707070" offset="100%"></stop>
        </linearGradient>
        <circle id="path-10" cx="76.5" cy="63" r="11.5"></circle>
        <filter x="-30.4%" y="-21.7%" width="160.9%" height="160.9%" filterUnits="objectBoundingBox" id="filter-11">
            <feOffset dx="0" dy="2" in="SourceAlpha" result="shadowOffsetOuter1"></feOffset>
            <feGaussianBlur stdDeviation="2" in="shadowOffsetOuter1" result="shadowBlurOuter1"></feGaussianBlur>
            <feColorMatrix values="0 0 0 0 0   0 0 0 0 0   0 0 0 0 0  0 0 0 0.1 0" type="matrix" in="shadowBlurOuter1"></feColorMatrix>
        </filter>
        <linearGradient x1="50%" y1="100%" x2="50%" y2="0%" id="linearGradient-12">
            <stop stop-color="#D2EBFF" offset="0%"></stop>
            <stop stop-color="#F0FFFD" offset="100%"></stop>
        </linearGradient>
    </defs>
    <g id="Badges" stroke="none" stroke-width="1" fill="none" fill-rule="evenodd">
        <g id="Use-DAX-in-Power-BI-Desktop" transform="translate(-159.000000, -889.000000)">
            <g id="Use-DAX-in-Power-BI-Desktop/m4-add-measures-to-power-bi-desktop-models" transform="translate(160.000000, 890.000000)">
                <g id="Badge-Plates/Circle">
                    <g id="BG" transform="translate(2.830189, 2.830189)">
                        <mask id="mask-2" fill="white">
                            <use xlink:href="#path-1"></use>
                        </mask>
                        <g>
                            <use fill="black" fill-opacity="1" filter="url(#filter-3)" xlink:href="#path-1"></use>
                            <rect stroke="#F2F1F0" stroke-width="2.5" x="-1.25" y="-1.25" width="96.8396226" height="96.8396226" rx="48.4198113"></rect>
                        </g>
                        <g id="Colors/Power-BI/BG-Solid-1" mask="url(#mask-2)">
                            <rect id="Rectangle" fill="url(#linearGradient-4)" x="0" y="0" width="94.3396226" height="94.3396226"></rect>
                            <g id="Rectangle">
                                <use fill="#F2C811" xlink:href="#path-5"></use>
                                <use fill-opacity="0.501092657" fill="#FFFFFF" xlink:href="#path-5"></use>
                            </g>
                        </g>
                    </g>
                    <g id="Border" transform="translate(1.886792, 1.886792)">
                        <mask id="mask-7" fill="white">
                            <use xlink:href="#path-6"></use>
                        </mask>
                        <use id="Boarder" fill="#0078D4" fill-rule="nonzero" xlink:href="#path-6"></use>
                        <g id="Colors/Power-BI/Border" mask="url(#mask-7)" fill="#F3C900">
                            <g transform="translate(-1.886792, -1.886792)" id="Rectangle">
                                <rect x="0" y="0" width="100" height="100"></rect>
                            </g>
                        </g>
                    </g>
                </g>
                <g id="Group" transform="translate(17.000000, 22.000000)" fill-rule="nonzero">
                    <g id="Computer">
                        <rect id="Rectangle" fill="url(#linearGradient-8)" x="0" y="0" width="66" height="45.8644068" rx="0.6"></rect>
                        <path d="M47.020283,59.8969872 C40.3830225,58.8145843 40.1220066,53.8664568 40.1220066,45.8644068 L26.9593495,45.8644068 C26.9593495,53.8664568 26.7356216,58.8145843 20.098361,59.8969872 C18.2006454,60.1146859 16.7681482,61.7833381 16.779661,63.7627119 L50.3389831,63.7627119 C50.3504958,61.7833381 48.9179986,60.1146859 47.020283,59.8969872 Z" id="Path" fill="url(#linearGradient-9)"></path>
                    </g>
                </g>
                <g id="Oval">
                    <use fill="black" fill-opacity="1" filter="url(#filter-11)" xlink:href="#path-10"></use>
                    <use fill="#FFFFFF" fill-rule="evenodd" xlink:href="#path-10"></use>
                </g>
                <polygon id="Fill-1" fill="#383737" points="81.7133907 70 71.5114507 70 77.7807893 63.05628 71.2866093 56 81.4885507 56 81.4885507 58.80868 79.8030907 57.438206 75.0393107 57.438206 80.4101307 63.213206 75.1744107 68.584026 80.0279307 68.584026 81.7133907 67.191138"></polygon>
                <polyline id="Path-138" stroke="#FFFFFF" stroke-width="2" opacity="0.287109375" stroke-linecap="round" stroke-linejoin="round" points="18 47.0542586 30.3702179 65 61.1211154 35 72.5 52.7023471 82 24"></polyline>
                <path d="M23.8503169,45.0104827 C24.8595807,45.0104827 25.754835,44.7469527 26.53608,44.2198927 C27.3173249,43.6928328 27.9995124,42.8798147 28.5826426,41.7808386 C29.1657728,40.6818625 29.763855,38.9100439 30.3768893,36.4653827 L30.3768893,36.4653827 L31.6889322,31.2844954 L33.2701121,31.2844954 L33.6626036,29.9724525 L32.0365675,29.9724525 C32.5000813,28.0810174 33.1131156,26.6979522 33.8756704,25.8232569 C34.3391841,25.2775069 34.7914838,25.0046319 35.2325695,25.0046319 C35.3222818,25.0046319 35.3951731,25.030798 35.4512433,25.0831302 C35.5073135,25.1354624 35.5353486,25.2027466 35.5353486,25.2849829 C35.5353486,25.3597432 35.4736714,25.5017877 35.3503169,25.7111165 C35.2269625,25.9204453 35.1652852,26.1185601 35.1652852,26.3054608 C35.1652852,26.5671217 35.2624736,26.7914026 35.4568503,26.9783033 C35.651227,27.165204 35.897936,27.2586543 36.1969771,27.2586543 C36.5184463,27.2586543 36.7875833,27.1446449 37.0043881,26.916626 C37.2211929,26.6886072 37.3295953,26.380221 37.3295953,25.9914676 C37.3295953,25.5503819 37.1669917,25.1915326 36.8417845,24.9149196 C36.5165773,24.6383065 35.9951243,24.5 35.2774256,24.5 C34.1560215,24.5 33.1392817,24.8289452 32.2272062,25.4868357 C31.3151308,26.1447261 30.4479116,27.2324882 29.6255485,28.7501219 C29.3414595,29.2734438 29.0723224,29.6098651 28.8181375,29.7593857 C28.5639525,29.9089062 28.156509,29.9799285 27.5958069,29.9724525 L27.5958069,29.9724525 L27.2257435,31.2844954 L28.7844954,31.2844954 L26.4968308,40.2445149 C26.1155534,41.7172924 25.8576304,42.6256298 25.7230619,42.9695271 C25.5286852,43.4704209 25.2333821,43.8965545 24.8371526,44.2479278 C24.680156,44.3899724 24.4895173,44.4609946 24.2652365,44.4609946 C24.2054282,44.4609946 24.1530961,44.4423046 24.1082399,44.4049244 L24.1082399,44.4049244 L24.0521697,44.3264261 C24.0521697,44.289046 24.1082399,44.2124167 24.2203803,44.0965383 C24.3325207,43.9806598 24.3885909,43.8031042 24.3885909,43.5638713 C24.3885909,43.3022103 24.2988786,43.0854055 24.1194539,42.9134569 C23.9400293,42.7415082 23.6821063,42.6555339 23.345685,42.6555339 C22.9419795,42.6555339 22.6167723,42.7676743 22.3700634,42.9919551 C22.1233545,43.216236 22,43.481635 22,43.7881521 C22,44.1170974 22.1495206,44.4030554 22.4485617,44.6460263 C22.7476028,44.8889972 23.2148545,45.0104827 23.8503169,45.0104827 Z M40.8171624,40.3678693 C41.2806761,40.3678693 41.7516659,40.1996587 42.2301316,39.8632374 C42.858118,39.4296278 43.5010564,38.682025 44.1589469,37.6204291 L44.1589469,37.6204291 L43.7552413,37.3849342 C43.3066797,38.0129205 42.9739964,38.405412 42.7571916,38.5624086 C42.6151471,38.6595969 42.4469365,38.7081911 42.2525597,38.7081911 C42.0208029,38.7081911 41.792784,38.5624086 41.5685032,38.2708435 C41.1872257,37.7774256 40.6788558,36.4093125 40.0433935,34.1665041 C40.6115716,33.1647164 41.0900374,32.510564 41.4787908,32.2040468 C41.7628799,31.979766 42.061921,31.8676255 42.3759142,31.8676255 C42.4955306,31.8676255 42.7104664,31.9106127 43.0207216,31.996587 C43.3309768,32.0825614 43.6057208,32.1255485 43.8449537,32.1255485 C44.1738989,32.1255485 44.4486429,32.0115391 44.6691858,31.7835202 C44.8897286,31.5555014 45,31.2620673 45,30.9032179 C45,30.5219405 44.8897286,30.2191614 44.6691858,29.9948805 C44.4486429,29.7705997 44.1327808,29.6584593 43.7215992,29.6584593 C43.3552739,29.6584593 43.0095076,29.7463026 42.6843003,29.9219893 C42.3590931,30.0976759 41.9460426,30.4770843 41.4451487,31.0602145 C41.0713473,31.4938242 40.5181212,32.252641 39.7854705,33.336665 C39.4939054,31.998456 38.9930115,30.7723875 38.2827889,29.6584593 L38.2827889,29.6584593 L34.3690882,30.3313018 L34.29059,30.7574354 C34.582155,30.6976272 34.828864,30.6677231 35.0307167,30.6677231 C35.4194702,30.6677231 35.7409394,30.8359337 35.9951243,31.1723549 C36.3988298,31.6956769 36.9595319,33.2880709 37.6772306,35.9495368 C37.1165285,36.7046156 36.7315131,37.1980335 36.5221843,37.4297903 C36.178287,37.8035917 35.894198,38.0465627 35.6699171,38.1587031 C35.4979685,38.2484154 35.3035917,38.2932716 35.0867869,38.2932716 C34.9223143,38.2932716 34.6531773,38.2035592 34.2793759,38.0241346 C34.025191,37.9045181 33.7971721,37.8447099 33.5953194,37.8447099 C33.2140419,37.8447099 32.9000488,37.9680644 32.6533398,38.2147733 C32.4066309,38.4614822 32.2832765,38.7754754 32.2832765,39.1567528 C32.2832765,39.5156021 32.3972859,39.8071672 32.6253047,40.0314481 C32.8533236,40.2557289 33.1617097,40.3678693 33.5504632,40.3678693 C33.9242646,40.3678693 34.2756379,40.289371 34.6045831,40.1323745 C34.9335284,39.9753779 35.3465789,39.6408256 35.8437348,39.1287177 C36.3408906,38.6166098 37.0268162,37.8035917 37.9015115,36.6896636 C38.2379327,37.7512595 38.5294978,38.5231594 38.7762067,39.0053632 C39.0229157,39.487567 39.3051357,39.8352023 39.6228669,40.0482691 C39.9405981,40.2613359 40.3386966,40.3678693 40.8171624,40.3678693 Z" id="fx" fill="url(#linearGradient-12)" fill-rule="nonzero"></path>
            </g>
        </g>
    </g>
</svg>