<svg width="181" height="191" viewBox="0 0 181 191" fill="none" xmlns="http://www.w3.org/2000/svg">
<path d="M90.3472 189.648C93.4072 189.648 96.4172 188.798 99.0772 187.178L161.047 149.518C166.587 146.148 170.017 139.818 170.017 132.978V58.2676C170.017 51.4476 166.587 45.1076 161.047 41.7276L99.0772 4.06765C93.7472 0.827647 86.9272 0.847647 81.6272 4.06765L19.6572 41.7476C14.1172 45.1176 10.6672 51.4476 10.6672 58.2876V132.988C10.6672 138.748 13.1172 144.168 17.2172 147.738V147.768L81.6272 187.198C84.2672 188.798 87.2872 189.648 90.3472 189.648ZM90.9972 8.59765C92.9472 8.59765 95.4272 9.80765 97.1372 10.8576L157.897 48.0476C161.647 50.3276 163.767 56.9276 163.767 61.6776L163.137 132.978C163.137 137.728 159.937 141.998 156.187 144.278L95.7872 180.658C92.3572 182.748 89.5672 182.748 86.1272 180.658L24.9172 144.188C21.1672 141.908 18.1472 137.708 18.1472 132.978V59.3376C18.1472 54.5976 20.8772 49.7076 24.6472 47.4176L85.2272 10.8576C86.9272 9.81765 89.0472 8.59765 90.9972 8.59765Z" fill="#F2F1F0"/>
<path fill-rule="evenodd" clip-rule="evenodd" d="M98.2473 12.1777C95.7973 10.6777 93.0773 9.92773 90.3473 9.92773C87.6173 9.92773 84.8973 10.6877 82.4473 12.1777L26.3173 46.5077C21.2973 49.5777 18.1873 55.3277 18.1873 61.5777V129.678C18.1873 135.908 21.2873 141.678 26.3173 144.748L82.4473 179.078C84.8973 180.578 87.6173 181.328 90.3473 181.328C93.0773 181.328 95.7973 180.588 98.2473 179.078L154.377 144.748C159.397 141.678 162.507 135.908 162.507 129.678V61.5777C162.507 55.3477 159.407 49.5977 154.377 46.5077L98.2473 12.1777Z" fill="url(#paint0_linear)"/>
<path fill-rule="evenodd" clip-rule="evenodd" d="M90.3473 11.3977C92.0273 11.3977 93.9172 12.2677 95.9772 13.5177L154.447 49.0577C158.097 51.2777 160.507 55.5477 160.507 60.3777V130.858C160.507 135.678 158.097 139.958 154.447 142.178L95.9873 177.718C94.0273 178.908 92.1073 179.658 90.3573 179.658C88.6073 179.658 86.6872 178.908 84.7272 177.718L26.2473 142.188C24.2373 140.958 22.7873 139.758 21.8073 138.148C20.8273 136.548 20.1873 134.328 20.1873 130.868V60.3877C20.1873 55.5577 22.5973 51.2877 26.2473 49.0677L84.7073 13.5277C86.7973 12.2777 88.6573 11.3977 90.3473 11.3977ZM98.0573 181.148L156.517 145.608C161.437 142.618 164.497 136.998 164.497 130.868V60.3877C164.497 54.2577 161.437 48.6377 156.517 45.6477L98.0573 10.1077C95.9473 8.82771 93.2373 7.39771 90.3473 7.39771C87.4473 7.39771 84.7373 8.8377 82.6473 10.0977H82.6373L24.1673 45.6477C19.2473 48.6377 16.1873 54.2577 16.1873 60.3877V130.868C16.1873 134.828 16.9273 137.818 18.3873 140.228C19.8473 142.628 21.9073 144.228 24.1673 145.598L82.6273 181.138C84.8473 182.488 87.5172 183.668 90.3372 183.668C93.1572 183.668 95.8373 182.498 98.0573 181.148Z" fill="url(#paint1_linear)"/>
<path opacity="0.2" d="M71.2172 75.3276H61.2872C59.9572 75.3276 58.8772 76.4076 58.8772 77.7376V85.3676H52.6772C51.5172 85.3676 50.5772 86.3076 50.5772 87.4676V95.0076H45.3872C43.8772 95.0076 42.6572 96.2276 42.6572 97.7376V111.918C42.6572 113.428 43.8772 114.648 45.3872 114.648H50.5772H58.8772H63.2272H71.2172C72.5472 114.648 73.6272 113.568 73.6272 112.238V77.7376C73.6172 76.4076 72.5472 75.3276 71.2172 75.3276Z" fill="#1F1D21"/>
<path d="M125.857 67.2778V66.0178H102.437C102.197 66.0178 101.987 66.2278 101.987 66.4678V92.0378H89.5171V93.2978H101.977V118.818C101.977 119.058 102.167 119.268 102.427 119.268L125.847 119.328V118.068H103.227V67.2678H125.857V67.2778Z" fill="white"/>
<path opacity="0.2" d="M152.967 60.3778H135.717C134.667 60.3778 133.797 61.2278 133.797 62.2978V72.8578C133.797 73.9078 134.647 74.7778 135.717 74.7778H152.987C154.037 74.7978 154.907 73.9278 154.907 72.8778V62.2978C154.867 61.2278 154.037 60.3778 152.967 60.3778Z" fill="#1F1D21"/>
<path opacity="0.2" d="M152.967 95.5378H135.717C134.667 95.5378 133.797 96.3878 133.797 97.4578V108.018C133.797 109.068 134.647 109.938 135.717 109.938H152.987C154.037 109.938 154.907 109.088 154.907 108.018V97.4678C154.867 96.3878 154.037 95.5378 152.967 95.5378Z" fill="#1F1D21"/>
<path opacity="0.2" d="M152.967 77.9178H135.717C134.667 77.9178 133.797 78.7679 133.797 79.8379V90.3979C133.797 91.4478 134.647 92.3178 135.717 92.3178H152.987C154.037 92.3378 154.907 91.4679 154.907 90.3979V79.8379C154.867 78.7879 154.037 77.9178 152.967 77.9178Z" fill="#1F1D21"/>
<path opacity="0.2" d="M152.967 113.078H135.717C134.667 113.078 133.797 113.928 133.797 114.998V125.558C133.797 126.608 134.647 127.478 135.717 127.478H152.987C154.037 127.478 154.907 126.628 154.907 125.558V114.998C154.867 113.948 154.037 113.078 152.967 113.078Z" fill="#1F1D21"/>
<path d="M143.457 118.078H124.537V119.338H143.457V118.078Z" fill="white"/>
<path d="M143.457 100.728H124.537V101.988H143.457V100.728Z" fill="white"/>
<path d="M143.457 83.3778H124.537V84.6378H143.457V83.3778Z" fill="white"/>
<path d="M143.457 66.0178H124.537V67.2778H143.457V66.0178Z" fill="white"/>
<path d="M152.907 59.0078H135.657C134.607 59.0078 133.737 59.8578 133.737 60.9278V71.4878C133.737 72.5378 134.587 73.4078 135.657 73.4078H152.927C153.977 73.4278 154.847 72.5578 154.847 71.5078V60.9278C154.787 59.8578 153.957 59.0078 152.907 59.0078Z" fill="url(#paint2_linear)"/>
<path d="M152.907 94.1678H135.657C134.607 94.1678 133.737 95.0179 133.737 96.0879V106.648C133.737 107.698 134.587 108.568 135.657 108.568H152.927C153.977 108.568 154.847 107.718 154.847 106.648V96.0879C154.787 95.0079 153.957 94.1678 152.907 94.1678Z" fill="url(#paint3_linear)"/>
<path d="M152.907 76.5579H135.657C134.607 76.5579 133.737 77.4079 133.737 78.4779V89.0379C133.737 90.0879 134.587 90.9579 135.657 90.9579H152.927C153.977 90.9779 154.847 90.1079 154.847 89.0379V78.4779C154.787 77.3979 153.957 76.5579 152.907 76.5579Z" fill="url(#paint4_linear)"/>
<path d="M152.907 111.708H135.657C134.607 111.708 133.737 112.558 133.737 113.628V124.188C133.737 125.238 134.587 126.108 135.657 126.108H152.927C153.977 126.108 154.847 125.258 154.847 124.188V113.628C154.787 112.578 153.957 111.708 152.907 111.708Z" fill="url(#paint5_linear)"/>
<path d="M148.307 120.238H146.387C146.117 120.238 145.917 120.468 145.917 120.708C145.917 120.978 146.147 121.178 146.387 121.178H148.307C148.577 121.178 148.777 120.968 148.777 120.708C148.797 120.458 148.587 120.238 148.307 120.238Z" fill="white"/>
<path d="M148.307 116.408H142.067C141.797 116.408 141.597 116.638 141.597 116.878C141.597 117.148 141.827 117.348 142.067 117.348H148.307C148.577 117.348 148.777 117.118 148.777 116.878C148.797 116.638 148.587 116.408 148.307 116.408Z" fill="white"/>
<path d="M148.307 118.348H143.837C143.567 118.348 143.987 118.578 143.987 118.818C143.987 119.088 143.587 119.258 143.837 119.258H148.307C148.577 119.258 148.777 119.078 148.777 118.818C148.797 118.578 148.587 118.348 148.307 118.348Z" fill="white"/>
<path d="M148.307 114.508H140.187C139.917 114.508 139.717 114.738 139.717 114.978V114.998C139.717 115.268 139.947 115.468 140.187 115.468H148.307C148.577 115.468 148.777 115.238 148.777 114.988C148.777 114.738 148.587 114.508 148.307 114.508Z" fill="white"/>
<path d="M140.187 115.448H141.157C141.427 115.448 141.627 115.218 141.627 114.978C141.627 114.738 141.397 114.508 141.157 114.508H140.187C139.917 114.508 139.717 114.738 139.717 114.978C139.717 115.218 139.927 115.448 140.187 115.448Z" fill="#50E6FF"/>
<path d="M140.187 117.378H142.107C142.377 117.378 142.577 117.148 142.577 116.908C142.577 116.638 142.347 116.438 142.107 116.438H140.187C139.917 116.438 139.717 116.668 139.717 116.908C139.717 117.148 139.927 117.378 140.187 117.378Z" fill="#45CAF2"/>
<path d="M140.187 121.188H146.427C146.697 121.188 146.897 120.958 146.897 120.718C146.897 120.448 146.667 120.248 146.427 120.248H140.187C139.917 120.248 139.717 120.478 139.717 120.718C139.717 120.978 139.927 121.188 140.187 121.188Z" fill="#0078D1"/>
<path d="M140.187 119.268H144.037C144.307 119.268 144.507 119.038 144.507 118.798C144.507 118.528 144.277 118.328 144.037 118.328H140.187C139.917 118.328 139.717 118.558 139.717 118.798C139.717 119.038 139.927 119.268 140.187 119.268Z" fill="#32B0E7"/>
<path d="M140.187 123.118H148.307C148.577 123.118 148.777 122.888 148.777 122.638V122.618C148.777 122.348 148.547 122.148 148.307 122.148H140.187C139.917 122.148 139.717 122.378 139.717 122.618C139.717 122.908 139.927 123.118 140.187 123.118Z" fill="#185A97"/>
<path opacity="0.15" d="M144.247 102.048L148.957 104.788L144.237 107.528L139.527 104.788L144.247 102.048Z" fill="#1F1D20"/>
<path d="M144.227 101.418V106.898L139.517 104.138V98.6578L144.227 101.418Z" fill="#ACF3FD"/>
<path d="M144.247 95.9178L148.957 98.6579L144.237 101.398L139.527 98.6579L144.247 95.9178Z" fill="white"/>
<path d="M148.957 98.6678V104.128L144.237 106.888V101.408L148.957 98.6678Z" fill="#45CAF2"/>
<path d="M144.227 106.888V101.408L148.947 104.118L144.227 106.888Z" fill="#50E6FF"/>
<path d="M144.227 106.888V101.408L139.517 104.118L144.227 106.888Z" fill="#84ECFD"/>
<g opacity="0.4">
<path opacity="0.4" d="M149.297 86.6078C149.067 86.4778 148.777 86.4778 148.507 86.5478L144.927 84.5678C144.987 84.4378 144.927 84.2778 144.747 84.1978C144.477 84.0378 144.037 84.0378 143.807 84.1978C143.577 84.3278 143.537 84.5178 143.707 84.6778L140.067 86.5978C139.797 86.4678 139.407 86.4678 139.177 86.6178C138.907 86.7778 138.907 87.0078 139.177 87.1678C139.357 87.2778 139.577 87.2978 139.807 87.2778L143.677 89.3878C143.547 89.5478 143.567 89.7078 143.787 89.8378C144.057 89.9978 144.497 89.9978 144.727 89.8378C144.957 89.7078 144.997 89.5178 144.827 89.3578L148.467 87.2178C148.737 87.3278 149.077 87.3178 149.317 87.1678C149.567 86.9878 149.567 86.7378 149.297 86.6078Z" fill="#1F1D21"/>
</g>
<g opacity="0.25">
<path opacity="0.25" d="M139.897 81.2178L144.267 78.6578L148.637 81.1678L144.267 83.7278L139.897 81.2178Z" fill="#1E9FE0"/>
</g>
<g opacity="0.25">
<path opacity="0.25" d="M139.847 86.2678L144.267 83.7078L148.587 86.2178L144.217 88.7778L139.847 86.2678Z" fill="#1E9FE0"/>
</g>
<g opacity="0.05">
<path opacity="0.05" d="M144.247 83.7178L144.197 88.7678L148.567 86.2078L148.617 81.1578L144.247 83.7178Z" fill="#1E9FE0"/>
</g>
<g opacity="0.05">
<path opacity="0.05" d="M139.897 81.2178L139.847 86.2678L144.267 83.7078V78.6578L139.897 81.2178Z" fill="#1E9FE0"/>
</g>
<path d="M144.277 83.7378C144.277 83.7378 144.267 83.7378 144.277 83.7378L139.897 81.2278C139.877 81.2278 139.877 81.2078 139.877 81.2078C139.877 81.1878 139.877 81.1878 139.897 81.1878L144.267 78.6278C144.287 78.6278 144.287 78.6278 144.297 78.6278L148.667 81.1378C148.687 81.1378 148.687 81.1578 148.687 81.1578C148.687 81.1778 148.687 81.1778 148.667 81.1778L144.277 83.7378C144.277 83.7378 144.297 83.7378 144.277 83.7378ZM139.977 81.2178L144.277 83.6978L148.577 81.1678L144.277 78.6878L139.977 81.2178Z" fill="#50E6FF"/>
<path d="M144.227 88.7979L139.847 86.2879C139.827 86.2879 139.827 86.2679 139.827 86.2679C139.827 86.2479 139.827 86.2479 139.847 86.2479L144.267 83.6879C144.287 83.6879 144.287 83.6879 144.297 83.6879L148.617 86.1979C148.637 86.1979 148.637 86.2179 148.637 86.2179C148.637 86.2179 148.637 86.2379 148.617 86.2379L144.227 88.7979C144.247 88.7979 144.247 88.7979 144.227 88.7979ZM139.927 86.2679L144.227 88.7479L148.527 86.2179L144.257 83.7379L139.927 86.2679Z" fill="#50E6FF"/>
<path d="M144.227 88.7978C144.227 88.7978 144.217 88.7978 144.227 88.7978C144.207 88.7778 144.197 88.7778 144.197 88.7678L144.247 83.7178C144.247 83.6978 144.247 83.6978 144.267 83.6978L148.637 81.1378C148.657 81.1378 148.657 81.1378 148.667 81.1378C148.687 81.1378 148.687 81.1578 148.687 81.1678L148.637 86.2178C148.637 86.2378 148.637 86.2378 148.617 86.2378L144.227 88.7978C144.227 88.7978 144.247 88.7978 144.227 88.7978ZM144.307 83.7378L144.257 88.7378L148.557 86.2278L148.607 81.2278L144.307 83.7378Z" fill="white"/>
<path d="M139.877 86.2978C139.857 86.2778 139.847 86.2778 139.847 86.2678L139.897 81.2178C139.897 81.1978 139.897 81.1978 139.917 81.1978L144.287 78.6378C144.307 78.6378 144.307 78.6378 144.317 78.6378C144.337 78.6378 144.337 78.6578 144.337 78.6578V83.7078C144.337 83.7278 144.337 83.7278 144.317 83.7278L139.877 86.2978C139.897 86.2978 139.897 86.2978 139.877 86.2978ZM139.947 81.2378L139.897 86.2378L144.247 83.7078V78.7078L139.947 81.2378Z" fill="white"/>
<path d="M144.277 83.7378C144.277 83.7378 144.267 83.7378 144.277 83.7378L139.897 81.2278C139.877 81.2278 139.877 81.2078 139.877 81.2078C139.877 81.1878 139.877 81.1878 139.897 81.1878L144.267 78.6278C144.287 78.6278 144.287 78.6278 144.297 78.6278L148.667 81.1378C148.687 81.1378 148.687 81.1578 148.687 81.1578C148.687 81.1778 148.687 81.1778 148.667 81.1778L144.277 83.7378C144.277 83.7378 144.297 83.7378 144.277 83.7378ZM139.977 81.2178L144.277 83.6978L148.577 81.1678L144.277 78.6878L139.977 81.2178Z" fill="white"/>
<path d="M144.227 88.7979L139.847 86.2879C139.827 86.2879 139.827 86.2679 139.827 86.2679C139.827 86.2479 139.827 86.2479 139.847 86.2479L144.267 83.6879C144.287 83.6879 144.287 83.6879 144.297 83.6879L148.617 86.1979C148.637 86.1979 148.637 86.2179 148.637 86.2179C148.637 86.2179 148.637 86.2379 148.617 86.2379L144.227 88.7979C144.247 88.7979 144.247 88.7979 144.227 88.7979ZM139.927 86.2679L144.227 88.7479L148.527 86.2179L144.257 83.7379L139.927 86.2679Z" fill="white"/>
<path d="M148.567 81.6578C148.337 81.6578 148.167 81.4678 148.167 81.2578C148.167 81.0478 148.357 80.8578 148.567 80.8578C148.797 80.8578 148.957 81.0478 148.957 81.2578C148.957 81.4478 148.797 81.6578 148.567 81.6578Z" fill="#50E6FF"/>
<path d="M148.547 81.0579C148.647 81.0579 148.727 81.1378 148.727 81.2378C148.727 81.3378 148.647 81.4278 148.547 81.4278C148.447 81.4278 148.367 81.3478 148.367 81.2478C148.377 81.1378 148.457 81.0579 148.547 81.0579ZM148.547 80.7979C148.317 80.7979 148.127 80.9878 148.127 81.2178C148.127 81.4478 148.317 81.6378 148.547 81.6378C148.787 81.6378 148.967 81.4478 148.967 81.2178C148.967 81.0078 148.797 80.7979 148.547 80.7979Z" fill="white"/>
<path d="M144.277 84.1578C144.047 84.1578 143.877 83.9678 143.877 83.7578C143.877 83.5278 144.067 83.3578 144.277 83.3578C144.507 83.3578 144.667 83.5478 144.667 83.7578C144.667 83.9478 144.507 84.1578 144.277 84.1578Z" fill="#50E6FF"/>
<path d="M144.277 83.5579C144.377 83.5579 144.457 83.6379 144.457 83.7379C144.457 83.8379 144.377 83.9179 144.277 83.9179C144.177 83.9179 144.097 83.8379 144.097 83.7379C144.087 83.6379 144.167 83.5579 144.277 83.5579ZM144.277 83.3179C144.047 83.3179 143.857 83.5079 143.857 83.7379C143.857 83.9679 144.047 84.1579 144.277 84.1579C144.507 84.1579 144.697 83.9679 144.697 83.7379C144.677 83.5079 144.507 83.3179 144.277 83.3179Z" fill="white"/>
<path d="M144.277 79.0878C144.047 79.0878 143.877 78.8978 143.877 78.6878C143.877 78.4778 144.067 78.2878 144.277 78.2878C144.507 78.2878 144.667 78.4778 144.667 78.6878C144.667 78.8978 144.507 79.0878 144.277 79.0878Z" fill="#50E6FF"/>
<path d="M144.277 78.5078C144.377 78.5078 144.457 78.5878 144.457 78.6878C144.457 78.7878 144.377 78.8678 144.277 78.8678C144.177 78.8678 144.097 78.7878 144.097 78.6878C144.087 78.5878 144.167 78.5078 144.277 78.5078ZM144.277 78.2878C144.047 78.2878 143.857 78.4778 143.857 78.7078C143.857 78.9378 144.047 79.1278 144.277 79.1278C144.507 79.1278 144.697 78.9378 144.697 78.7078C144.697 78.4778 144.507 78.2878 144.277 78.2878Z" fill="white"/>
<path d="M139.897 81.6578C139.667 81.6578 139.497 81.4678 139.497 81.2578C139.497 81.0478 139.687 80.8578 139.897 80.8578C140.107 80.8578 140.287 81.0478 140.287 81.2578C140.277 81.4478 140.107 81.6578 139.897 81.6578Z" fill="#50E6FF"/>
<path d="M139.877 81.0579C139.977 81.0579 140.057 81.1378 140.057 81.2378C140.057 81.3378 139.977 81.4278 139.877 81.4278C139.777 81.4278 139.697 81.3478 139.697 81.2478C139.697 81.1378 139.777 81.0579 139.877 81.0579ZM139.877 80.7979C139.647 80.7979 139.457 80.9878 139.457 81.2178C139.457 81.4478 139.647 81.6378 139.877 81.6378C140.107 81.6378 140.297 81.4478 140.297 81.2178C140.297 81.0078 140.107 80.7979 139.877 80.7979Z" fill="white"/>
<path d="M139.897 86.6678C139.667 86.6678 139.497 86.4778 139.497 86.2678C139.497 86.0378 139.687 85.8678 139.897 85.8678C140.107 85.8678 140.287 86.0578 140.287 86.2678C140.277 86.4878 140.107 86.6678 139.897 86.6678Z" fill="#50E6FF"/>
<path d="M139.877 86.0878C139.977 86.0878 140.057 86.1678 140.057 86.2678C140.057 86.3678 139.977 86.4478 139.877 86.4478C139.777 86.4478 139.697 86.3678 139.697 86.2678C139.697 86.1678 139.777 86.0878 139.877 86.0878ZM139.877 85.8478C139.647 85.8478 139.457 86.0378 139.457 86.2678C139.457 86.4978 139.647 86.6878 139.877 86.6878C140.107 86.6878 140.297 86.4978 140.297 86.2678C140.297 86.0378 140.107 85.8478 139.877 85.8478Z" fill="white"/>
<path d="M144.277 89.1878C144.047 89.1878 143.877 88.9978 143.877 88.7878C143.877 88.5778 144.067 88.3878 144.277 88.3878C144.507 88.3878 144.667 88.5778 144.667 88.7878C144.667 88.9978 144.507 89.1878 144.277 89.1878Z" fill="#50E6FF"/>
<path d="M144.277 88.5878C144.377 88.5878 144.457 88.6678 144.457 88.7678C144.457 88.8678 144.377 88.9478 144.277 88.9478C144.177 88.9478 144.097 88.8678 144.097 88.7678C144.087 88.6678 144.167 88.5878 144.277 88.5878ZM144.277 88.3478C144.047 88.3478 143.857 88.5378 143.857 88.7678C143.857 88.9978 144.047 89.1878 144.277 89.1878C144.507 89.1878 144.697 88.9978 144.697 88.7678C144.677 88.5378 144.507 88.3478 144.277 88.3478Z" fill="white"/>
<path d="M148.567 86.6678C148.337 86.6678 148.167 86.4778 148.167 86.2678C148.167 86.0378 148.357 85.8678 148.567 85.8678C148.797 85.8678 148.957 86.0578 148.957 86.2678C148.957 86.4878 148.797 86.6678 148.567 86.6678Z" fill="#50E6FF"/>
<path d="M148.547 86.0878C148.647 86.0878 148.727 86.1678 148.727 86.2678C148.727 86.3678 148.647 86.4478 148.547 86.4478C148.447 86.4478 148.367 86.3678 148.367 86.2678C148.367 86.1678 148.457 86.0878 148.547 86.0878ZM148.547 85.8478C148.317 85.8478 148.127 86.0378 148.127 86.2678C148.127 86.4978 148.317 86.6878 148.547 86.6878C148.787 86.6878 148.967 86.4978 148.967 86.2678C148.967 86.0378 148.797 85.8478 148.547 85.8478Z" fill="white"/>
<path opacity="0.2" d="M144.247 61.7979C141.357 61.7979 139.037 64.1379 139.037 67.0079C139.037 69.8979 141.377 72.2178 144.247 72.2178C147.137 72.2178 149.457 69.8779 149.457 67.0079C149.457 64.1379 147.117 61.7979 144.247 61.7979ZM144.247 69.4479C142.907 69.4479 141.817 68.3479 141.817 67.0179C141.817 65.6879 142.917 64.5878 144.247 64.5878C145.587 64.5878 146.677 65.6879 146.677 67.0179C146.677 68.3479 145.587 69.4479 144.247 69.4479Z" fill="#1F1D21"/>
<path d="M144.247 61.1178C141.357 61.1178 139.037 63.4578 139.037 66.3278C139.037 69.2178 141.377 71.5378 144.247 71.5378C147.137 71.5378 149.457 69.1978 149.457 66.3278C149.457 63.4578 147.117 61.1178 144.247 61.1178ZM144.247 68.7778C142.907 68.7778 141.817 67.6778 141.817 66.3478C141.817 65.0178 142.917 63.9178 144.247 63.9178C145.587 63.9178 146.677 65.0178 146.677 66.3478C146.677 67.6778 145.587 68.7778 144.247 68.7778Z" fill="white"/>
<path d="M144.247 63.9078L144.227 61.1378C142.387 61.1378 140.797 62.0878 139.847 63.5378L142.137 65.1378C142.557 64.3878 143.347 63.9078 144.247 63.9078Z" fill="#3BCAF4"/>
<path d="M141.817 66.3378C141.817 65.8978 141.947 65.4678 142.137 65.1278L139.877 63.5178L139.857 63.5378C139.337 64.3478 139.037 65.2978 139.037 66.3278C139.037 67.0978 139.217 67.8078 139.507 68.4678L142.057 67.3378C141.897 67.0478 141.817 66.6978 141.817 66.3378Z" fill="#50E6FF"/>
<path opacity="0.2" d="M127.127 127.588C127.887 127.588 128.517 126.978 128.517 126.198V62.0878H109.157V126.198C109.157 126.958 109.767 127.588 110.547 127.588H127.127Z" fill="#1F1D21"/>
<path d="M128.517 63.0078V61.2378C128.517 60.3478 127.787 59.6278 126.907 59.6278H110.767C109.877 59.6278 109.157 60.3578 109.157 61.2378V63.1078V64.1678V124.668C109.157 125.558 109.887 126.278 110.767 126.278H126.907C127.797 126.278 128.517 125.548 128.517 124.668V63.0978C128.537 63.0678 128.517 63.0378 128.517 63.0078Z" fill="white"/>
<path d="M125.017 63.9379H112.657V73.4479H125.017V63.9379Z" fill="#50E6FF"/>
<path d="M125.017 75.6779H112.657V85.1879H125.017V75.6779Z" fill="#45CAF2"/>
<path d="M125.017 87.4279H112.657V96.9379H125.017V87.4279Z" fill="#2195DC"/>
<path d="M125.017 99.1678H112.657V108.678H125.017V99.1678Z" fill="#0078D4"/>
<path d="M125.017 110.918H112.657V120.428H125.017V110.918Z" fill="#185A97"/>
<path d="M71.2172 113.148H58.8772V76.2276C58.8772 74.8976 59.9572 73.8176 61.2872 73.8176H71.2172C72.5472 73.8176 73.6272 74.8976 73.6272 76.2276V110.738C73.6172 112.068 72.5472 113.148 71.2172 113.148Z" fill="url(#paint6_linear)"/>
<path d="M63.2171 113.148H50.5671V85.9577C50.5671 84.7977 51.5071 83.8577 52.6671 83.8577H63.2171C64.3771 83.8577 65.3171 84.7977 65.3171 85.9577V111.048C65.3171 112.208 64.3771 113.148 63.2171 113.148Z" fill="url(#paint7_linear)"/>
<path d="M54.6672 113.148H45.3872C43.8772 113.148 42.6572 111.928 42.6572 110.418V96.2277C42.6572 94.7177 43.8772 93.4977 45.3872 93.4977H54.6772C56.1872 93.4977 57.4072 94.7177 57.4072 96.2277V110.408C57.3972 111.928 56.1772 113.148 54.6672 113.148Z" fill="url(#paint8_linear)"/>
<path opacity="0.15" d="M63.1071 123.818C74.9571 121.828 84.4671 112.588 86.7671 100.798C88.9771 89.4678 84.2571 77.9178 74.7471 71.3778C74.5471 71.2378 74.5072 71.0278 74.5072 70.9278C74.5072 70.8378 74.5171 70.5978 74.7371 70.4278L75.9671 69.4678C76.9471 68.7078 78.3671 68.7278 79.3471 69.5378C88.8271 77.2978 93.2671 89.5978 90.9271 101.628C88.2871 115.178 77.3171 125.778 63.6371 127.998L62.3171 128.208L63.0171 133.178C63.0671 133.518 62.7171 133.798 62.4071 133.658L49.9171 128.738C49.3971 128.528 49.3071 127.848 49.7471 127.518L60.3771 119.298C60.6471 119.088 61.0571 119.248 61.1071 119.598L61.7271 124.068L63.1071 123.818Z" fill="#1F1D20"/>
<path opacity="0.15" d="M58.2072 71.6478C57.9372 71.8578 57.5372 71.6978 57.4872 71.3478L56.7472 66.2978L55.4572 66.4278C42.8172 67.6778 32.2972 77.2478 29.8672 89.7078C27.4372 102.188 33.6072 115.018 44.8772 120.908C45.1372 121.048 45.1972 121.268 45.1972 121.388C45.1972 121.438 45.2072 121.498 45.1872 121.568C45.1672 121.678 45.1072 121.818 44.9572 121.918L43.4772 123.068C42.5772 123.768 41.3172 123.808 40.3372 123.168C28.7072 115.668 22.9672 102.008 25.7972 88.4478C28.7772 74.1778 41.0172 63.6978 55.5072 62.1278L56.1172 62.0578L55.4672 57.6978C55.4172 57.3578 55.7672 57.0778 56.0872 57.2178L68.7472 62.2778C69.2672 62.4878 69.3572 63.1678 68.9172 63.5178L58.2072 71.6478Z" fill="#1F1D20"/>
<path d="M63.3472 122.578C75.1972 120.588 84.7072 111.348 87.0072 99.5578C89.2172 88.2278 84.4972 76.6778 74.9872 70.1378C74.7872 69.9978 74.7472 69.7878 74.7472 69.6878C74.7472 69.5978 74.7572 69.3578 74.9772 69.1878L76.2072 68.2278C77.1872 67.4678 78.6072 67.4878 79.5872 68.2978C89.0672 76.0478 93.5072 88.3478 91.1672 100.378C88.5272 113.928 77.5572 124.528 63.8872 126.738L62.5672 126.958L63.2672 131.928C63.3172 132.268 62.9672 132.548 62.6572 132.408L50.1772 127.488C49.6572 127.278 49.5672 126.598 50.0072 126.268L60.6372 118.048C60.9072 117.838 61.3172 117.998 61.3672 118.348L61.9872 122.818L63.3472 122.578Z" fill="#F2F1F0"/>
<path d="M58.4472 70.4078C58.1772 70.6178 57.7772 70.4578 57.7272 70.1078L56.9872 65.0578L55.6972 65.1878C43.0672 66.4278 32.5372 76.0078 30.1072 88.4578C27.6772 100.938 33.8572 113.768 45.1172 119.658C45.3772 119.798 45.4372 120.018 45.4372 120.138C45.4372 120.188 45.4472 120.248 45.4272 120.318C45.4072 120.428 45.3472 120.568 45.1972 120.668L43.7172 121.818C42.8172 122.518 41.5572 122.558 40.5772 121.918C28.9572 114.428 23.2172 100.758 26.0472 87.2078C29.0172 72.9578 41.2572 62.4678 55.7472 60.8978L56.3572 60.8278L55.7072 56.4678C55.6572 56.1278 56.0072 55.8478 56.3272 55.9878L68.9872 61.0378C69.5072 61.2478 69.5972 61.9278 69.1572 62.2778L58.4472 70.4078Z" fill="#F2F1F0"/>
<defs>
<linearGradient id="paint0_linear" x1="90.3469" y1="9.92803" x2="90.3469" y2="181.327" gradientUnits="userSpaceOnUse">
<stop stop-color="#00ABDE"/>
<stop offset="1" stop-color="#007ED8"/>
</linearGradient>
<linearGradient id="paint1_linear" x1="36.4668" y1="4.71901" x2="203.144" y2="287.05" gradientUnits="userSpaceOnUse">
<stop stop-color="#007ED8"/>
<stop offset="0.7065" stop-color="#002D4C"/>
</linearGradient>
<linearGradient id="paint2_linear" x1="123.138" y1="33.8016" x2="181.15" y2="122.731" gradientUnits="userSpaceOnUse">
<stop stop-color="#007ED8"/>
<stop offset="0.7065" stop-color="#002D4C"/>
</linearGradient>
<linearGradient id="paint3_linear" x1="107.051" y1="44.2962" x2="165.062" y2="133.226" gradientUnits="userSpaceOnUse">
<stop stop-color="#007ED8"/>
<stop offset="0.7065" stop-color="#002D4C"/>
</linearGradient>
<linearGradient id="paint4_linear" x1="115.107" y1="39.0419" x2="173.118" y2="127.971" gradientUnits="userSpaceOnUse">
<stop stop-color="#007ED8"/>
<stop offset="0.7065" stop-color="#002D4C"/>
</linearGradient>
<linearGradient id="paint5_linear" x1="99.0217" y1="49.534" x2="157.033" y2="138.464" gradientUnits="userSpaceOnUse">
<stop stop-color="#007ED8"/>
<stop offset="0.7065" stop-color="#002D4C"/>
</linearGradient>
<linearGradient id="paint6_linear" x1="66.0809" y1="77.4176" x2="66.3947" y2="110.049" gradientUnits="userSpaceOnUse">
<stop offset="0.00753769" stop-color="#E0A310"/>
<stop offset="1" stop-color="#CA810E"/>
</linearGradient>
<linearGradient id="paint7_linear" x1="57.5451" y1="85.0012" x2="58.4864" y2="119.515" gradientUnits="userSpaceOnUse">
<stop offset="0.00753769" stop-color="#F2CC40"/>
<stop offset="1" stop-color="#E7B116"/>
</linearGradient>
<linearGradient id="paint8_linear" x1="49.6767" y1="95.008" x2="50.618" y2="117.285" gradientUnits="userSpaceOnUse">
<stop stop-color="#F8E17B"/>
<stop offset="0.5302" stop-color="#F6D856"/>
<stop offset="1" stop-color="#F6D856"/>
</linearGradient>
</defs>
</svg>
