<svg width="180" height="190" viewBox="0 0 180 190" fill="none" xmlns="http://www.w3.org/2000/svg">
<path d="M90.0001 189C93.0601 189 96.0701 188.15 98.7301 186.53L160.7 148.87C166.24 145.5 169.67 139.17 169.67 132.33V57.6201C169.67 50.8001 166.24 44.4601 160.7 41.0801L98.7301 3.42006C93.4001 0.180064 86.5801 0.200064 81.2801 3.42006L19.3101 41.1001C13.7701 44.4701 10.3201 50.8001 10.3201 57.6401V132.34C10.3201 138.1 12.7701 143.52 16.8701 147.09V147.12L81.2801 186.55C83.9201 188.15 86.9401 189 90.0001 189ZM90.6501 7.95006C92.6001 7.95006 95.0801 9.16006 96.7901 10.2101L157.55 47.4001C161.3 49.6801 163.42 56.2801 163.42 61.0301L162.79 132.33C162.79 137.08 159.59 141.35 155.84 143.63L95.4401 180.01C92.0101 182.1 89.2201 182.1 85.7801 180.01L24.5701 143.54C20.8201 141.26 17.8001 137.06 17.8001 132.33V58.6901C17.8001 53.9501 20.5301 49.0601 24.3001 46.7701L84.8801 10.2101C86.5801 9.17006 88.7001 7.95006 90.6501 7.95006Z" fill="#F2F1F0"/>
<path fill-rule="evenodd" clip-rule="evenodd" d="M97.9001 11.53C95.4501 10.03 92.7301 9.28003 90.0001 9.28003C87.2701 9.28003 84.5501 10.04 82.1001 11.53L25.9701 45.86C20.9501 48.93 17.8401 54.68 17.8401 60.93V129.03C17.8401 135.26 20.9401 141.03 25.9701 144.1L82.1001 178.43C84.5501 179.93 87.2701 180.68 90.0001 180.68C92.7301 180.68 95.4501 179.94 97.9001 178.43L154.03 144.1C159.05 141.03 162.16 135.26 162.16 129.03V60.93C162.16 54.7 159.06 48.95 154.03 45.86L97.9001 11.53Z" fill="url(#paint0_linear)"/>
<path fill-rule="evenodd" clip-rule="evenodd" d="M90.0001 10.75C91.6801 10.75 93.5701 11.62 95.6301 12.87L154.1 48.41C157.75 50.63 160.16 54.9 160.16 59.73V130.21C160.16 135.03 157.75 139.31 154.1 141.53L95.6401 177.07C93.6801 178.26 91.7601 179.01 90.0101 179.01C88.2601 179.01 86.3401 178.26 84.3801 177.07L25.9001 141.54C23.8901 140.31 22.4401 139.11 21.4601 137.5C20.4801 135.9 19.8401 133.68 19.8401 130.22V59.74C19.8401 54.91 22.2501 50.64 25.9001 48.42L84.3601 12.88C86.4501 11.63 88.3101 10.75 90.0001 10.75ZM97.7101 180.5L156.17 144.96C161.09 141.97 164.15 136.35 164.15 130.22V59.74C164.15 53.61 161.09 47.99 156.17 45L97.7101 9.46C95.6001 8.18 92.8901 6.75 90.0001 6.75C87.1001 6.75 84.3901 8.19 82.3001 9.45H82.2901L23.8201 45C18.9001 47.99 15.8401 53.61 15.8401 59.74V130.22C15.8401 134.18 16.5801 137.17 18.0401 139.58C19.5001 141.98 21.5601 143.58 23.8201 144.95L82.2801 180.49C84.5001 181.84 87.1701 183.02 89.9901 183.02C92.8101 183.02 95.4901 181.85 97.7101 180.5Z" fill="url(#paint1_linear)"/>
<path d="M98.2101 65.65V64.23H71.7401C71.4701 64.23 71.2301 64.47 71.2301 64.74V93.63H46.5601V95.05H71.2301V123.89C71.2301 124.16 71.4501 124.4 71.7401 124.4L98.2101 124.47V123.05H72.6501V65.65H98.2101Z" fill="white"/>
<path d="M78.6699 123.06V124.48H105.14C105.41 124.48 105.65 124.24 105.65 123.97V95.0802H130.32V93.6602H105.65V64.8202C105.65 64.5502 105.43 64.3102 105.14 64.3102L78.6699 64.2402V65.6602H104.23V123.07H78.6699V123.06Z" fill="white"/>
<path opacity="0.2" d="M97.9099 132.76C98.7699 132.76 99.4799 132.07 99.4799 131.19V58.74H77.5898V131.2C77.5898 132.06 78.2799 132.77 79.1599 132.77H97.9099V132.76Z" fill="#1F1D21"/>
<path d="M99.4698 59.78V57.78C99.4698 56.78 98.6498 55.96 97.6498 55.96H79.4099C78.4099 55.96 77.5898 56.78 77.5898 57.78V59.89V61.09V129.46C77.5898 130.46 78.4099 131.28 79.4099 131.28H97.6498C98.6498 131.28 99.4698 130.46 99.4698 129.46V59.89C99.4898 59.85 99.4698 59.81 99.4698 59.78Z" fill="white"/>
<path d="M95.5198 60.8398H81.5498V71.5898H95.5198V60.8398Z" fill="#50E6FF"/>
<path d="M95.5198 74.0999H81.5498V84.8499H95.5198V74.0999Z" fill="#45CAF2"/>
<path d="M95.5198 87.3799H81.5498V98.1299H95.5198V87.3799Z" fill="#2195DC"/>
<path d="M95.5198 100.64H81.5498V111.39H95.5198V100.64Z" fill="#0078D4"/>
<path d="M95.5198 113.92H81.5498V124.67H95.5198V113.92Z" fill="#185A97"/>
<path d="M60.6099 118.58H45.3999V73.0999C45.3999 71.4599 46.7299 70.1299 48.3699 70.1299H60.6099C62.2499 70.1299 63.5799 71.4599 63.5799 73.0999V115.61C63.5699 117.25 62.2399 118.58 60.6099 118.58Z" fill="url(#paint2_linear)"/>
<path d="M50.7599 118.58H35.1799V85.0898C35.1799 83.6698 36.3399 82.5098 37.7599 82.5098H50.7499C52.1699 82.5098 53.3299 83.6698 53.3299 85.0898V115.99C53.3399 117.42 52.1899 118.58 50.7599 118.58Z" fill="url(#paint3_linear)"/>
<path d="M40.2199 118.58H28.7899C26.9299 118.58 25.4199 117.07 25.4199 115.21V97.7399C25.4199 95.8799 26.9299 94.3699 28.7899 94.3699H40.2299C42.0899 94.3699 43.5999 95.8799 43.5999 97.7399V115.21C43.5899 117.07 42.0799 118.58 40.2199 118.58Z" fill="url(#paint4_linear)"/>
<path opacity="0.2" d="M151.85 115.9C152.77 115.9 153.51 115.16 153.51 114.24V74.9497H111.53V114.24C111.53 115.16 112.27 115.9 113.19 115.9H151.85Z" fill="#1F1D21"/>
<path d="M153.52 74.9298V74.2798C153.52 73.4698 152.87 72.8198 152.06 72.8198H113C112.19 72.8198 111.54 73.4698 111.54 74.2798V74.9998V75.6598V113.04C111.54 113.85 112.19 114.5 113 114.5H152.08C152.89 114.5 153.54 113.85 153.54 113.04V74.9998C153.52 74.9698 153.52 74.9598 153.52 74.9298Z" fill="white"/>
<path d="M123.66 104.47H119.38V110.06H123.66V104.47Z" fill="#45CAF2"/>
<path d="M130.04 100.75H125.7V110.06H130.06V100.75H130.04Z" fill="#50E6FF"/>
<path d="M137.78 94.7097H132.19V110.03H137.78V94.7097Z" fill="#32B0E7"/>
<path d="M146.55 88.4497H140.12V110.03H146.55V88.4497Z" fill="#185A97"/>
<path d="M121.89 97.4297L121.11 97.0597L127 86.3897L134.85 87.1697L142.99 80.7397L143.62 81.3197L135.14 88.1297L127.47 87.3997L121.89 97.4297Z" fill="#16B2E6"/>
<path d="M120.63 99.2697C121.66 99.5497 122.72 98.9397 122.99 97.9097C123.27 96.8797 122.66 95.8197 121.63 95.5497C120.6 95.2697 119.54 95.8797 119.27 96.9097C119 97.9497 119.61 98.9997 120.63 99.2697Z" fill="#005599"/>
<path d="M126.86 88.9999C127.89 89.2799 128.95 88.6699 129.22 87.6399C129.49 86.6099 128.89 85.5499 127.86 85.2799C126.83 85.0099 125.77 85.6099 125.5 86.6399C125.23 87.6599 125.83 88.7199 126.86 88.9999Z" fill="#005599"/>
<path d="M134.32 89.4499C135.35 89.7299 136.41 89.1199 136.68 88.0899C136.96 87.0599 136.35 85.9999 135.32 85.7299C134.29 85.4499 133.23 86.0599 132.96 87.0899C132.68 88.1099 133.29 89.1599 134.32 89.4499Z" fill="#005599"/>
<path d="M142.18 82.8099C143.47 83.5199 145.02 82.6299 145.06 81.1499C145.08 80.4599 144.68 79.7799 144.08 79.4499C142.79 78.7399 141.24 79.6299 141.2 81.1099C141.19 81.7999 141.57 82.4699 142.18 82.8099Z" fill="#005599"/>
<defs>
<linearGradient id="paint0_linear" x1="89.9997" y1="9.28013" x2="89.9997" y2="180.68" gradientUnits="userSpaceOnUse">
<stop stop-color="#00ABDE"/>
<stop offset="1" stop-color="#007ED8"/>
</linearGradient>
<linearGradient id="paint1_linear" x1="36.1196" y1="4.0711" x2="202.796" y2="286.402" gradientUnits="userSpaceOnUse">
<stop stop-color="#007ED8"/>
<stop offset="0.7065" stop-color="#002D4C"/>
</linearGradient>
<linearGradient id="paint2_linear" x1="54.2824" y1="74.5676" x2="54.6689" y2="114.76" gradientUnits="userSpaceOnUse">
<stop offset="0.00753769" stop-color="#E0A310"/>
<stop offset="1" stop-color="#CA810E"/>
</linearGradient>
<linearGradient id="paint3_linear" x1="43.7689" y1="83.9083" x2="44.9283" y2="126.419" gradientUnits="userSpaceOnUse">
<stop offset="0.00753769" stop-color="#F2CC40"/>
<stop offset="1" stop-color="#E7B116"/>
</linearGradient>
<linearGradient id="paint4_linear" x1="34.0773" y1="96.2338" x2="35.2367" y2="123.673" gradientUnits="userSpaceOnUse">
<stop stop-color="#F8E17B"/>
<stop offset="0.5302" stop-color="#F6D856"/>
<stop offset="1" stop-color="#F6D856"/>
</linearGradient>
</defs>
</svg>
