<svg width="103" height="103" viewBox="0 0 103 103" fill="none" xmlns="http://www.w3.org/2000/svg">
<path d="M51.9262 98.6527C26.0762 98.6527 5.11621 77.7027 5.11621 51.8427C5.11621 25.9827 26.0762 5.03271 51.9262 5.03271C77.7762 5.03271 98.7362 25.9927 98.7362 51.8427C98.7362 77.6927 77.7762 98.6527 51.9262 98.6527Z" fill="#B7D2F7"/>
<path fill-rule="evenodd" clip-rule="evenodd" d="M97.8261 51.8426C97.8261 77.1926 77.2761 97.7426 51.9261 97.7426C26.5761 97.7426 6.02613 77.1926 6.02613 51.8426C6.02613 26.4926 26.5761 5.94264 51.9261 5.94264C77.2761 5.94264 97.8261 26.4926 97.8261 51.8426ZM51.9261 2.20264C79.3461 2.20264 101.566 24.4226 101.566 51.8426C101.566 79.2626 79.3361 101.483 51.9261 101.483C24.5061 101.483 2.28613 79.2526 2.28613 51.8426C2.28613 24.4226 24.5061 2.20264 51.9261 2.20264Z" fill="#F2F1F0"/>
<path fill-rule="evenodd" clip-rule="evenodd" d="M85.2563 55.9128C82.2363 55.0528 78.9763 55.7828 76.6163 57.8628L65.8463 67.4929C64.4363 68.7329 62.6263 69.4229 60.7463 69.4229H50.3663C49.4063 69.4229 48.6363 68.6428 48.6363 67.6928C48.6363 66.7428 49.4163 65.9629 50.3663 65.9629C50.3663 65.9629 57.6063 65.9629 57.8763 65.9629C60.4263 65.9629 62.4963 63.8928 62.4963 61.3428C62.4963 58.7928 60.4263 56.7228 57.8763 56.7228C57.6063 56.7228 48.1663 56.7228 45.1663 56.7228C43.4763 56.7228 39.6763 56.7228 37.8663 56.7228C34.1963 56.7228 31.4763 58.0928 28.8063 60.2228C26.4363 62.1128 21.1863 67.0329 18.7363 69.3529L33.0763 83.6928C34.0363 83.4628 35.1363 83.3028 36.3963 83.3028H59.0263C63.4363 83.3028 67.6363 81.4028 70.5463 78.0828L86.2163 59.3128C87.2663 58.1829 86.7463 56.3428 85.2563 55.9128Z" fill="#EAC5A7"/>
<path fill-rule="evenodd" clip-rule="evenodd" d="M34.4265 86.7525L31.2865 89.8925C30.8165 90.3625 30.0165 90.3425 29.5165 89.8325L13.2165 73.5225C12.7065 73.0125 12.6865 72.2225 13.1565 71.7525L16.2965 68.6125C16.7665 68.1425 17.5665 68.1625 18.0665 68.6725L34.3765 84.9825C34.8765 85.4825 34.9065 86.2725 34.4265 86.7525Z" fill="#E1E4E1"/>
<path fill-rule="evenodd" clip-rule="evenodd" d="M49.1267 68.8927C48.8267 68.5827 48.6367 68.1527 48.6367 67.6827C48.6367 66.7227 49.4167 65.9527 50.3667 65.9527C50.3667 65.9527 52.4467 65.9627 54.4067 65.9727C54.4067 65.9627 57.8767 65.9527 57.8767 65.9527C58.0367 65.9427 58.4567 65.8827 58.6367 65.7827C60.1767 64.9027 59.4167 62.4927 57.6367 62.4927H51.1367C49.2867 62.4927 47.6267 63.8627 47.4867 65.7027C47.3867 67.0527 48.0767 68.2427 49.1267 68.8927Z" fill="#D9B090"/>
<path fill-rule="evenodd" clip-rule="evenodd" d="M31.2964 89.8826L34.4364 86.7426C34.9064 86.2726 34.8864 85.4726 34.3764 84.9726L26.7064 77.3026C25.8064 76.4026 24.3364 76.4026 23.4364 77.3026C22.6764 78.0626 21.4564 78.0626 20.6964 77.3026L16.3364 72.9426C15.3264 71.9326 13.4964 73.0026 14.0564 74.3126C14.0864 74.3726 14.1164 74.4226 14.1464 74.4626L29.5164 89.8226C30.0264 90.3326 30.8164 90.3626 31.2964 89.8826Z" fill="#CDD3D1"/>
<path fill-rule="evenodd" clip-rule="evenodd" d="M31.3063 85.6029C31.3063 86.2429 30.7863 86.7629 30.1463 86.7629C29.5063 86.7629 28.9863 86.2429 28.9863 85.6029C28.9863 84.9629 29.5063 84.4429 30.1463 84.4429C30.7863 84.4429 31.3063 84.9629 31.3063 85.6029Z" fill="#8BA6B1"/>
<path fill-rule="evenodd" clip-rule="evenodd" d="M54.4165 62.493V60.1829C54.4165 59.5429 54.9365 59.0229 55.5765 59.0229H57.8865C59.1665 59.0229 60.1965 60.053 60.1965 61.333C60.1965 62.613 59.1665 63.6429 57.8865 63.6429H55.5765C54.9265 63.6529 54.4165 63.133 54.4165 62.493Z" fill="#F9D8BE"/>
<path fill-rule="evenodd" clip-rule="evenodd" d="M55.5665 63.6527H57.8765C58.3365 63.6527 58.7565 63.5127 59.1165 63.2827C58.7965 62.8227 58.2865 62.4927 57.6365 62.4927H54.4165C54.4165 63.1327 54.9265 63.6527 55.5665 63.6527Z" fill="#EAC5A7"/>
<path fill-rule="evenodd" clip-rule="evenodd" d="M55.5667 61.3329C55.5667 60.4129 55.2967 59.6229 54.9067 59.2529C54.6167 59.4629 54.4067 59.7829 54.4067 60.1729V62.4829C54.4067 62.8729 54.6067 63.1929 54.9067 63.4029C55.2967 63.0429 55.5667 62.2529 55.5667 61.3329Z" fill="#FFFFFE"/>
<path fill-rule="evenodd" clip-rule="evenodd" d="M54.9065 63.4127C55.1165 63.2127 55.2865 62.8827 55.4065 62.4927H54.4165C54.4165 62.8827 54.6165 63.2027 54.9065 63.4127Z" fill="#F9D8BE"/>
<path fill-rule="evenodd" clip-rule="evenodd" d="M83.8365 57.673L69.3965 74.603C69.1565 74.883 68.9065 75.143 68.6465 75.403C65.0965 78.913 59.9165 80.213 55.0065 79.263L34.4465 75.273C31.3965 74.683 28.2665 74.943 25.3765 75.973L33.0865 83.683C34.0465 83.453 35.1465 83.293 36.4065 83.293H59.0365C63.4465 83.293 67.6465 81.393 70.5565 78.073L86.2165 59.313C86.4165 59.103 86.4965 58.843 86.5165 58.573C86.5965 57.183 84.7165 56.593 83.8365 57.673Z" fill="#D9B090"/>
<path d="M67.8266 29.5529L55.4666 36.7629L42.4766 22.2929C41.5166 21.2229 42.2766 19.5229 43.7066 19.5229H67.8266V29.5529Z" fill="url(#paint0_linear)"/>
<path d="M74.6767 27.423L67.7167 19.583L42.3767 47.883C41.5267 48.843 42.1967 50.363 43.4867 50.363H54.0767L74.6767 27.423Z" fill="url(#paint1_linear)"/>
<path d="M80.5463 33.993L74.6163 27.313L53.7163 50.353H67.1863C67.4663 50.353 67.7363 50.243 67.9263 50.023L80.5263 36.303C81.1263 35.653 81.1263 34.653 80.5463 33.993Z" fill="url(#paint2_linear)"/>
<path fill-rule="evenodd" clip-rule="evenodd" d="M95.0162 51.8427C95.0162 75.6427 75.7262 94.9327 51.9262 94.9327C28.1262 94.9327 8.83619 75.6427 8.83619 51.8427C8.83619 28.0427 28.1262 8.7527 51.9262 8.7527C75.7262 8.7527 95.0162 28.0427 95.0162 51.8427ZM51.9262 5.0127C77.7862 5.0127 98.7562 25.9827 98.7562 51.8427C98.7562 77.7027 77.7862 98.6727 51.9262 98.6727C26.0662 98.6727 5.09619 77.7027 5.09619 51.8427C5.09619 25.9827 26.0562 5.0127 51.9262 5.0127Z" fill="#0066FF"/>
<defs>
<linearGradient id="paint0_linear" x1="43.6674" y1="11.2292" x2="71.7737" y2="37.6741" gradientUnits="userSpaceOnUse">
<stop offset="0.4598" stop-color="#1152D4"/>
<stop offset="0.6156" stop-color="#0D3FB3"/>
</linearGradient>
<linearGradient id="paint1_linear" x1="42.0019" y1="34.9705" x2="74.6758" y2="34.9705" gradientUnits="userSpaceOnUse">
<stop stop-color="#388CF4"/>
<stop offset="1" stop-color="#2C7CEF"/>
</linearGradient>
<linearGradient id="paint2_linear" x1="53.7158" y1="38.8323" x2="80.9788" y2="38.8323" gradientUnits="userSpaceOnUse">
<stop stop-color="#76C0FD"/>
<stop offset="1" stop-color="#63B2FB"/>
</linearGradient>
</defs>
</svg>
