<svg width="181" height="191" viewBox="0 0 181 191" fill="none" xmlns="http://www.w3.org/2000/svg">
<path d="M90.6414 189.711C93.7014 189.711 96.7114 188.861 99.3714 187.241L161.341 149.581C166.881 146.211 170.311 139.881 170.311 133.041V58.3305C170.311 51.5105 166.881 45.1705 161.341 41.7905L99.3714 4.13051C94.0414 0.890514 87.2214 0.910514 81.9214 4.13051L19.9514 41.8105C14.4114 45.1805 10.9614 51.5105 10.9614 58.3505V133.051C10.9614 138.811 13.4114 144.231 17.5114 147.801V147.831L81.9214 187.261C84.5614 188.861 87.5814 189.711 90.6414 189.711ZM91.2914 8.66051C93.2414 8.66051 95.7214 9.87051 97.4314 10.9205L158.191 48.1105C161.941 50.3905 164.061 56.9905 164.061 61.7405L163.431 133.041C163.431 137.791 160.231 142.061 156.481 144.341L96.0814 180.721C92.6514 182.811 89.8614 182.811 86.4214 180.721L25.2114 144.251C21.4614 141.971 18.4414 137.771 18.4414 133.041V59.4005C18.4414 54.6605 21.1714 49.7705 24.9414 47.4805L85.5214 10.9205C87.2214 9.88051 89.3414 8.66051 91.2914 8.66051Z" fill="#F2F1F0"/>
<path fill-rule="evenodd" clip-rule="evenodd" d="M98.5414 12.2405C96.0914 10.7405 93.3714 9.99048 90.6414 9.99048C87.9114 9.99048 85.1914 10.7505 82.7414 12.2405L26.6114 46.5705C21.5914 49.6405 18.4814 55.3905 18.4814 61.6405V129.74C18.4814 135.97 21.5814 141.74 26.6114 144.81L82.7414 179.14C85.1914 180.64 87.9114 181.39 90.6414 181.39C93.3714 181.39 96.0914 180.65 98.5414 179.14L154.671 144.81C159.691 141.74 162.801 135.97 162.801 129.74V61.6405C162.801 55.4105 159.701 49.6605 154.671 46.5705L98.5414 12.2405Z" fill="url(#paint0_linear)"/>
<path fill-rule="evenodd" clip-rule="evenodd" d="M90.6414 11.4604C92.3214 11.4604 94.2114 12.3304 96.2714 13.5804L154.741 49.1204C158.391 51.3404 160.801 55.6104 160.801 60.4404V130.92C160.801 135.74 158.391 140.02 154.741 142.24L96.2814 177.78C94.3214 178.97 92.4014 179.72 90.6514 179.72C88.9014 179.72 86.9814 178.97 85.0214 177.78L26.5414 142.25C24.5314 141.02 23.0814 139.82 22.1014 138.21C21.1214 136.61 20.4814 134.39 20.4814 130.93V60.4505C20.4814 55.6205 22.8914 51.3504 26.5414 49.1304L85.0014 13.5904C87.0914 12.3404 88.9514 11.4604 90.6414 11.4604ZM98.3514 181.21L156.811 145.67C161.731 142.68 164.791 137.06 164.791 130.93V60.4505C164.791 54.3205 161.731 48.7004 156.811 45.7104L98.3514 10.1704C96.2414 8.89045 93.5314 7.46045 90.6414 7.46045C87.7414 7.46045 85.0315 8.90045 82.9415 10.1604H82.9314L24.4614 45.7104C19.5414 48.7004 16.4814 54.3205 16.4814 60.4505V130.93C16.4814 134.89 17.2214 137.88 18.6814 140.29C20.1414 142.69 22.2014 144.29 24.4614 145.66L82.9214 181.2C85.1414 182.55 87.8114 183.73 90.6314 183.73C93.4514 183.73 96.1314 182.56 98.3514 181.21Z" fill="#0078D4"/>
<path d="M84.8914 93.5905C86.5014 92.6705 88.3114 92.2205 90.1314 92.2205C91.9814 92.2205 93.8214 92.7005 95.4614 93.6505L120.571 108.24L120.601 111.96L123.341 113.6L123.611 113.42L120.901 111.78L120.871 108.06L95.5814 93.3805C92.2414 91.4405 88.0814 91.4105 84.7114 93.3505L58.8914 108.09V111.9L55.9714 113.72L56.3314 113.93L59.2214 112.11V108.24L84.8914 93.5905Z" fill="#50E6FF"/>
<path d="M85.2514 96.3604L61.7814 109.7V113.57L58.7114 115.3L59.1014 115.51L62.1714 113.81V109.94L85.4314 96.6904C86.8914 95.8604 88.5014 95.4404 90.1414 95.4404C91.7814 95.4404 93.4514 95.8604 94.9114 96.7204L117.691 109.91L117.751 113.6L120.431 115.27L120.881 115L118.111 113.39L118.051 109.7L95.1014 96.3904C92.0714 94.6304 88.2814 94.6304 85.2514 96.3604Z" fill="#45D6F9"/>
<path d="M85.9914 99.7805C87.2714 99.0405 88.7314 98.6805 90.1614 98.6805C91.6214 98.6805 93.0814 99.0705 94.3914 99.8105L114.821 111.6L114.851 115.32L117.561 116.99L118.041 116.66L115.301 115.05L115.241 111.33L94.5714 99.4205C91.8314 97.8405 88.4314 97.8405 85.7014 99.3905L64.5914 111.36V115.23L61.4614 116.9L61.9414 117.17L65.0714 115.5L65.1014 111.66L85.9914 99.7805Z" fill="#39C7F3"/>
<path d="M86.2614 102.4L67.4714 113V116.87L64.4314 118.6L65.0014 118.93L68.0714 117.23L68.0414 113.33L86.5014 102.91C87.6314 102.28 88.8814 101.96 90.1314 101.96C91.4114 101.96 92.6914 102.29 93.8214 102.94L111.931 113.33L111.961 117.05L114.731 118.69L115.271 118.39L112.501 116.72L112.471 113L94.1214 102.46C91.7114 101.03 88.7014 101.03 86.2614 102.4Z" fill="#2EB7ED"/>
<path d="M87.0614 105.971C88.0114 105.431 89.0814 105.171 90.1614 105.171C91.2314 105.171 92.3314 105.441 93.2914 106.001L108.751 115.2L108.721 118.95L111.431 120.621L112.031 120.261L109.411 118.531L109.381 114.811L93.6014 105.431C91.4914 104.211 88.8714 104.211 86.7514 105.401L70.3114 114.66L70.2814 118.501L67.4214 120.321L68.1114 120.711L70.9114 118.891L70.9414 115.05L87.0614 105.971Z" fill="#22A7E6"/>
<path d="M87.2413 108.451L73.1513 116.34V120.181L70.3213 122.001L71.0613 122.421L73.9213 120.631L73.8913 116.761L87.5913 109.111C88.3913 108.661 89.2613 108.451 90.1513 108.451C91.0413 108.451 91.9413 108.691 92.7413 109.141L106.141 116.701L106.111 120.48L108.911 122.121L109.651 121.701L106.821 120.061L106.851 116.281L93.0913 108.48C91.3213 107.43 89.0613 107.431 87.2413 108.451Z" fill="#1797E0"/>
<path d="M88.1612 112.17C88.7912 111.81 89.5012 111.63 90.1812 111.63C90.8912 111.63 91.6112 111.81 92.2412 112.17L103.321 118.36L103.261 122.14L106.001 123.87L106.771 123.39L104.061 121.69L104.091 117.88L92.6212 111.48C91.1312 110.65 89.2512 110.65 87.7712 111.48L76.0412 118.01V121.85L73.2712 123.67L74.0112 124.09L76.8412 122.3V118.46L88.1612 112.17Z" fill="#0B88DA"/>
<path d="M150.381 125.18L126.851 111.51L126.551 111.69L150.231 125.45C151.901 126.43 152.881 128.16 152.881 130.07C152.881 132.01 151.871 133.73 150.201 134.69L126.341 148.41L126.311 152.281L123.331 154.13L123.601 154.311L126.611 152.46L126.641 148.59L150.321 134.951C152.081 133.941 153.151 132.12 153.151 130.07C153.181 128.01 152.131 126.2 150.381 125.18Z" fill="#50E6FF"/>
<path d="M147.761 130.071C147.761 131.801 146.871 133.351 145.351 134.211L123.581 146.781V150.681L120.571 152.471L120.901 152.651L123.971 150.891V146.991L145.531 134.541C147.141 133.621 148.121 131.921 148.121 130.071C148.121 128.191 147.171 126.531 145.531 125.571L124.031 113.121L123.641 113.361L145.321 125.901C146.861 126.791 147.761 128.341 147.761 130.071Z" fill="#45D6F9"/>
<path d="M142.661 130.101C142.661 131.651 141.861 133.021 140.551 133.791L120.861 145.201V149.101L117.881 150.891L118.301 151.161L121.341 149.401V145.501L140.791 134.211C142.281 133.351 143.141 131.831 143.141 130.131C143.141 128.431 142.251 126.881 140.791 126.051L121.311 114.821L120.831 115.091L140.521 126.441C141.861 127.211 142.661 128.581 142.661 130.101Z" fill="#39C7F3"/>
<path d="M137.541 130.13C137.541 131.47 136.851 132.66 135.691 133.35L118.091 143.59V147.49L114.991 149.16L115.501 149.46L118.661 147.79V143.89L135.991 133.79C137.331 133.02 138.101 131.65 138.101 130.1C138.101 128.55 137.301 127.18 135.961 126.41L118.541 116.4L118.001 116.73L135.721 126.89C136.861 127.6 137.541 128.79 137.541 130.13Z" fill="#2EB7ED"/>
<path d="M132.421 130.161C132.421 131.291 131.821 132.331 130.841 132.901L115.291 142.011V145.881L112.221 147.581L112.851 147.941L115.951 146.241L115.981 142.341L131.201 133.441C132.391 132.751 133.111 131.501 133.081 130.131C133.051 128.761 132.371 127.511 131.171 126.851L115.771 118.061L115.141 118.451L130.861 127.411C131.821 127.981 132.421 129.031 132.421 130.161Z" fill="#22A7E6"/>
<path d="M115.951 146.27L115.741 146.15L115.501 146L115.291 145.91" fill="#22A7E6"/>
<path d="M127.331 130.19C127.331 131.14 126.851 132.01 126.021 132.48L112.561 140.43V144.33L109.431 145.97L110.141 146.39L113.271 144.75V140.85L126.371 133.11C127.411 132.48 128.041 131.41 128.011 130.19C128.011 128.97 127.351 127.9 126.311 127.3L112.941 119.74L112.231 120.16L125.961 127.93C126.821 128.4 127.331 129.23 127.331 130.19Z" fill="#1797E0"/>
<path d="M122.201 130.22C122.201 130.96 121.811 131.65 121.191 132.04L109.781 138.83V142.7L106.711 144.34L107.451 144.79L110.581 143.18V139.31L121.601 132.76C122.491 132.22 123.031 131.27 123.031 130.23C123.031 129.19 122.461 128.26 121.541 127.73L110.221 121.39L109.421 121.87L121.151 128.45C121.821 128.79 122.201 129.47 122.201 130.22Z" fill="#0B88DA"/>
<path d="M28.9013 134.83C27.2013 133.88 26.1913 132.15 26.1613 130.18C26.1613 128.24 27.1713 126.49 28.8413 125.53L52.8113 111.86L52.5113 111.68L28.7113 125.26C26.9213 126.27 25.8513 128.12 25.8513 130.17C25.8513 132.22 26.9213 134.07 28.7413 135.05L53.1913 148.78V152.53L56.1713 154.44L56.5313 154.23L53.5813 152.29L53.5213 148.6L28.9013 134.83Z" fill="#50E6FF"/>
<path d="M119.941 152.111L95.4014 166.231C92.1814 168.081 88.1614 168.111 84.9514 166.291L59.9914 152.261L59.6914 152.441L84.8314 166.531C86.4714 167.451 88.3114 167.931 90.1614 167.931C92.0414 167.931 93.9114 167.451 95.5814 166.471L120.271 152.261L119.941 152.111Z" fill="#50E6FF"/>
<path d="M85.4513 163.421L62.7613 150.61L62.3713 150.85L85.2713 163.75C86.7613 164.58 88.4613 165.031 90.1213 165.031C91.8513 165.031 93.5413 164.58 95.0613 163.72L117.591 150.71L117.201 150.5L94.8613 163.4C91.9813 165.06 88.3713 165.091 85.4513 163.421Z" fill="#45D6F9"/>
<path d="M31.0413 130.191C31.0413 132.071 32.0213 133.761 33.6913 134.691L55.8813 147.201L55.9113 150.921L58.9213 152.861L59.3413 152.621L56.3013 150.681L56.2713 146.961L33.8713 134.361C32.3513 133.501 31.4313 131.951 31.4313 130.191C31.4313 128.431 32.3213 126.881 33.8413 126.021L55.7313 113.571L55.3413 113.361L33.6413 125.691C32.0313 126.611 31.0413 128.311 31.0413 130.191Z" fill="#45D6F9"/>
<path d="M36.2612 130.191C36.2612 131.921 37.1512 133.441 38.6412 134.301L58.5912 145.621V149.341L61.7512 151.221L62.2012 150.951L59.0412 149.071V145.351L38.8812 133.911C37.5412 133.141 36.7412 131.771 36.7412 130.221C36.7412 128.671 37.5412 127.271 38.8812 126.531L58.7112 115.301L58.2312 115.031L38.6412 126.081C37.1512 126.941 36.2312 128.491 36.2612 130.191Z" fill="#39C7F3"/>
<path d="M85.9913 160.59L65.5613 149.01L65.0813 149.28L85.7513 160.98C87.1213 161.75 88.6113 162.14 90.1313 162.14C91.6813 162.14 93.2313 161.75 94.6013 160.95L114.941 149.16L114.461 148.89L94.3613 160.56C91.8013 162.05 88.5813 162.05 85.9913 160.59Z" fill="#39C7F3"/>
<path d="M86.5012 157.761L68.3012 147.401L67.7312 147.731L86.1912 158.241C87.4112 158.931 88.7512 159.281 90.1212 159.281C91.4912 159.281 92.8912 158.921 94.1112 158.211L112.281 147.641L111.741 147.311L93.8412 157.731C91.5912 159.041 88.7912 159.041 86.5012 157.761Z" fill="#2EB7ED"/>
<path d="M41.4414 130.22C41.4414 131.77 42.2414 133.17 43.5814 133.94L61.3014 144.04L61.3314 147.76L64.6414 149.58L65.1514 149.28L61.8414 147.46V143.74L43.8514 133.5C42.6614 132.84 41.9714 131.62 41.9714 130.25C41.9714 128.91 42.6814 127.69 43.8514 127.03L61.6014 117.02L61.0614 116.69L43.5814 126.55C42.2414 127.27 41.4414 128.67 41.4414 130.22Z" fill="#2EB7ED"/>
<path d="M46.6213 130.221C46.6213 131.621 47.3313 132.841 48.5313 133.531L63.9913 142.431L63.9613 146.151L67.3313 148.001L67.9313 147.641L64.6213 145.791L64.6513 142.071L48.8713 133.021C47.8613 132.451 47.2613 131.411 47.2613 130.251C47.2613 129.091 47.8613 128.081 48.8713 127.511L64.5313 118.691L63.9013 118.331L48.5313 126.971C47.3313 127.601 46.6213 128.821 46.6213 130.221Z" fill="#22A7E6"/>
<path d="M87.0314 154.93L71.1014 145.76L70.4714 146.12L86.7014 155.44C87.7714 156.04 88.9614 156.36 90.1514 156.36C91.3714 156.36 92.5614 156.03 93.6614 155.41L109.681 146.03L109.051 145.67L93.3614 154.87C91.3814 156.04 88.9714 156.04 87.0314 154.93Z" fill="#22A7E6"/>
<path d="M51.8013 130.22C51.8013 131.44 52.4313 132.54 53.4713 133.14L66.6913 140.82V144.54L70.2013 146.3L70.8313 145.94L67.4413 144.12V140.4L53.8313 132.51C53.0013 132.03 52.5213 131.17 52.5213 130.22C52.5213 129.27 53.0313 128.4 53.8613 127.96L67.4713 120.34L66.7613 119.92L53.5413 127.34C52.4613 127.92 51.8013 129 51.8013 130.22Z" fill="#1797E0"/>
<path d="M87.5414 152.081L73.8714 144.161L73.1614 144.581L87.1914 152.711C88.1114 153.251 89.1614 153.511 90.1714 153.511C91.2114 153.511 92.2514 153.241 93.1814 152.681L107.031 144.521L106.321 144.101L92.8314 152.081C91.2014 153.031 89.1814 153.031 87.5414 152.081Z" fill="#1797E0"/>
<path d="M88.0713 149.251L76.6613 142.551L75.8613 143.031L87.6513 149.971C88.4213 150.421 89.2913 150.661 90.1513 150.661C91.0413 150.661 91.9113 150.421 92.6813 149.971L104.351 143.031L103.551 142.551L92.2613 149.281C90.9913 150.021 89.3913 150.021 88.0713 149.251Z" fill="#0B88DA"/>
<path d="M56.9812 130.221C56.9812 131.261 57.5212 132.221 58.4112 132.751L69.4012 139.211V142.931L72.7412 144.811L73.4512 144.391L70.1712 142.451V138.731L58.7912 132.031C58.1312 131.641 57.7512 130.961 57.7512 130.211C57.7512 129.471 58.1712 128.781 58.8212 128.421L70.3812 122.021L69.5812 121.541L58.4412 127.711C57.5512 128.251 57.0112 129.171 56.9812 130.221Z" fill="#0B88DA"/>
<path d="M62.1713 130.25C62.1413 131.14 62.5913 131.95 63.3613 132.39L72.1513 137.63L72.1813 141.32L75.6013 143.17L76.3713 142.72L73.0913 140.78L73.0013 137.09L63.8313 131.61C63.3513 131.31 63.0613 130.81 63.0913 130.24C63.1213 129.67 63.3913 129.17 63.8913 128.9L73.3613 123.69L72.4713 123.15L63.4813 128.09C62.6713 128.58 62.2013 129.35 62.1713 130.25Z" fill="#0078D4"/>
<path d="M88.5813 146.42L79.4413 140.94L78.5513 141.45L88.1413 147.17C88.7713 147.56 89.4813 147.74 90.1913 147.74C90.9013 147.74 91.6213 147.56 92.2513 147.17L101.781 141.42L100.921 140.91L91.7813 146.42C90.7913 146.98 89.5613 146.98 88.5813 146.42Z" fill="#0078D4"/>
<path d="M117.111 130.25C117.111 130.82 116.841 131.32 116.371 131.59L107.021 137.22V141.09L104.041 142.73L104.811 143.21L107.911 141.6L107.941 137.73L116.841 132.37C117.581 131.92 118.031 131.12 118.031 130.23C118.001 129.34 117.551 128.56 116.781 128.15L107.491 123L106.601 123.54L116.341 128.93C116.781 129.2 117.081 129.68 117.111 130.25Z" fill="#0078D4"/>
<path d="M88.2514 114.49L78.8714 119.64L78.8413 123.48L76.1313 125.33L76.9314 125.78L79.7313 123.99V120.18L88.6613 115.27C89.1413 115 89.6414 114.88 90.1514 114.88C90.6614 114.88 91.1913 115 91.6413 115.27L100.311 120.09L100.281 123.87L103.171 125.51L103.911 125.06L101.171 123.36L101.201 119.55L92.0913 114.49C90.9013 113.84 89.4714 113.84 88.2514 114.49Z" fill="#0078D4"/>
<path d="M117.811 105.84C117.811 105.51 117.361 105.24 116.801 105.24C116.241 105.24 115.791 105.5 115.791 105.83C115.791 106.16 116.241 106.43 116.801 106.43C117.361 106.43 117.811 106.17 117.811 105.84Z" fill="#50E6FF"/>
<path d="M117.341 105.84C117.341 105.66 117.101 105.51 116.811 105.51C116.511 105.51 116.271 105.66 116.271 105.84C116.271 106.02 116.511 106.17 116.811 106.17C117.101 106.16 117.341 106.02 117.341 105.84Z" fill="white"/>
<path d="M115.081 107.52C115.081 107.19 114.631 106.92 114.071 106.92C113.511 106.92 113.061 107.18 113.061 107.51C113.061 107.84 113.511 108.11 114.071 108.11C114.621 108.11 115.081 107.85 115.081 107.52Z" fill="#4ED6F7"/>
<path d="M114.601 107.52C114.601 107.34 114.361 107.19 114.061 107.19C113.761 107.19 113.521 107.34 113.521 107.52C113.521 107.7 113.761 107.85 114.061 107.85C114.361 107.84 114.601 107.7 114.601 107.52Z" fill="white"/>
<path d="M112.431 109.29C112.431 108.96 111.981 108.69 111.421 108.69C110.861 108.69 110.411 108.95 110.411 109.28C110.411 109.61 110.861 109.88 111.421 109.88C111.981 109.88 112.431 109.61 112.431 109.29Z" fill="#43C8F1"/>
<path d="M111.961 109.28C111.961 109.1 111.721 108.95 111.421 108.95C111.121 108.95 110.881 109.1 110.881 109.28C110.881 109.46 111.121 109.61 111.421 109.61C111.721 109.61 111.961 109.47 111.961 109.28Z" fill="white"/>
<path d="M109.631 111.03C109.631 110.7 109.181 110.43 108.621 110.43C108.061 110.43 107.611 110.69 107.611 111.02C107.611 111.35 108.061 111.62 108.621 111.62C109.181 111.63 109.631 111.36 109.631 111.03Z" fill="#37B8EB"/>
<path d="M109.151 111.03C109.151 110.85 108.911 110.7 108.611 110.7C108.311 110.7 108.071 110.85 108.071 111.03C108.071 111.21 108.311 111.36 108.611 111.36C108.911 111.36 109.151 111.21 109.151 111.03Z" fill="white"/>
<path d="M106.481 112.83C106.481 112.5 106.031 112.23 105.471 112.23C104.911 112.23 104.461 112.49 104.461 112.82C104.461 113.15 104.911 113.42 105.471 113.42C106.021 113.43 106.481 113.16 106.481 112.83Z" fill="#2EA8E3"/>
<path d="M106.001 112.83C106.001 112.65 105.761 112.5 105.461 112.5C105.161 112.5 104.921 112.65 104.921 112.83C104.921 113.01 105.161 113.16 105.461 113.16C105.761 113.16 106.001 113.01 106.001 112.83Z" fill="white"/>
<path d="M104.081 114.411C104.081 114.081 103.631 113.811 103.071 113.811C102.511 113.811 102.061 114.071 102.061 114.401C102.061 114.731 102.511 115.001 103.071 115.001C103.621 115.001 104.071 114.731 104.081 114.411Z" fill="#2398DD"/>
<path d="M103.601 114.401C103.601 114.221 103.361 114.071 103.061 114.071C102.761 114.071 102.521 114.221 102.521 114.401C102.521 114.581 102.761 114.731 103.061 114.731C103.361 114.731 103.601 114.591 103.601 114.401Z" fill="white"/>
<path d="M101.191 116.141C101.191 115.811 100.741 115.541 100.181 115.541C99.6214 115.541 99.1714 115.801 99.1714 116.131C99.1714 116.461 99.6214 116.731 100.181 116.731C100.741 116.741 101.191 116.471 101.191 116.141Z" fill="#1B8AD7"/>
<path d="M100.711 116.141C100.711 115.961 100.471 115.811 100.171 115.811C99.8713 115.811 99.6313 115.961 99.6313 116.141C99.6313 116.321 99.8713 116.471 100.171 116.471C100.471 116.471 100.711 116.321 100.711 116.141Z" fill="white"/>
<path d="M98.2512 117.8C98.2512 117.47 97.8012 117.2 97.2412 117.2C96.6812 117.2 96.2312 117.46 96.2312 117.79C96.2312 118.12 96.6812 118.39 97.2412 118.39C97.7912 118.39 98.2412 118.13 98.2512 117.8Z" fill="#137AD1"/>
<path d="M97.7714 117.8C97.7714 117.62 97.5314 117.47 97.2314 117.47C96.9314 117.47 96.6914 117.62 96.6914 117.8C96.6914 117.98 96.9314 118.13 97.2214 118.13C97.5314 118.12 97.7714 117.98 97.7714 117.8Z" fill="white"/>
<path d="M131.901 113.76C131.901 113.43 131.451 113.16 130.891 113.16C130.331 113.16 129.881 113.42 129.881 113.75C129.881 114.08 130.331 114.35 130.891 114.35C131.441 114.35 131.901 114.09 131.901 113.76Z" fill="#50E6FF"/>
<path d="M131.421 113.76C131.421 113.58 131.181 113.43 130.881 113.43C130.581 113.43 130.341 113.58 130.341 113.76C130.341 113.94 130.581 114.09 130.881 114.09C131.181 114.08 131.421 113.94 131.421 113.76Z" fill="white"/>
<path d="M129.161 115.441C129.161 115.111 128.711 114.841 128.151 114.841C127.591 114.841 127.141 115.101 127.141 115.431C127.141 115.761 127.591 116.031 128.151 116.031C128.711 116.031 129.161 115.771 129.161 115.441Z" fill="#4ED6F7"/>
<path d="M128.691 115.441C128.691 115.261 128.451 115.111 128.151 115.111C127.851 115.111 127.611 115.261 127.611 115.441C127.611 115.621 127.851 115.771 128.151 115.771C128.441 115.761 128.691 115.621 128.691 115.441Z" fill="white"/>
<path d="M126.521 117.211C126.521 116.881 126.071 116.611 125.511 116.611C124.951 116.611 124.501 116.871 124.501 117.201C124.501 117.531 124.951 117.801 125.511 117.801C126.061 117.801 126.521 117.531 126.521 117.211Z" fill="#43C8F1"/>
<path d="M126.041 117.201C126.041 117.021 125.801 116.871 125.501 116.871C125.201 116.871 124.961 117.021 124.961 117.201C124.961 117.381 125.201 117.531 125.501 117.531C125.801 117.531 126.041 117.381 126.041 117.201Z" fill="white"/>
<path d="M123.721 118.951C123.721 118.621 123.271 118.351 122.711 118.351C122.151 118.351 121.701 118.611 121.701 118.941C121.701 119.271 122.151 119.541 122.711 119.541C123.261 119.551 123.711 119.281 123.721 118.951Z" fill="#37B8EB"/>
<path d="M123.241 118.951C123.241 118.771 123.001 118.621 122.701 118.621C122.401 118.621 122.161 118.771 122.161 118.951C122.161 119.131 122.401 119.281 122.691 119.281C123.001 119.281 123.241 119.131 123.241 118.951Z" fill="white"/>
<path d="M120.561 120.75C120.561 120.42 120.111 120.15 119.551 120.15C118.991 120.15 118.541 120.41 118.541 120.74C118.541 121.07 118.991 121.34 119.551 121.34C120.111 121.35 120.561 121.08 120.561 120.75Z" fill="#2EA8E3"/>
<path d="M120.081 120.75C120.081 120.57 119.841 120.42 119.541 120.42C119.241 120.42 119.001 120.57 119.001 120.75C119.001 120.93 119.241 121.08 119.541 121.08C119.841 121.08 120.081 120.93 120.081 120.75Z" fill="white"/>
<path d="M118.161 122.33C118.161 122 117.711 121.73 117.151 121.73C116.591 121.73 116.141 121.99 116.141 122.32C116.141 122.65 116.591 122.92 117.151 122.92C117.701 122.92 118.161 122.65 118.161 122.33Z" fill="#2398DD"/>
<path d="M117.681 122.32C117.681 122.14 117.441 121.99 117.151 121.99C116.851 121.99 116.611 122.14 116.611 122.32C116.611 122.5 116.851 122.65 117.151 122.65C117.441 122.65 117.681 122.5 117.681 122.32Z" fill="white"/>
<path d="M115.281 124.06C115.281 123.73 114.831 123.46 114.271 123.46C113.711 123.46 113.261 123.72 113.261 124.05C113.261 124.38 113.711 124.65 114.271 124.65C114.821 124.66 115.271 124.39 115.281 124.06Z" fill="#1B8AD7"/>
<path d="M114.801 124.06C114.801 123.88 114.561 123.73 114.261 123.73C113.961 123.73 113.721 123.88 113.721 124.06C113.721 124.24 113.961 124.39 114.261 124.39C114.561 124.39 114.801 124.24 114.801 124.06Z" fill="white"/>
<path d="M112.331 125.721C112.331 125.391 111.881 125.121 111.321 125.121C110.761 125.121 110.311 125.381 110.311 125.711C110.311 126.041 110.761 126.311 111.321 126.311C111.871 126.311 112.331 126.051 112.331 125.721Z" fill="#137AD1"/>
<path d="M111.851 125.72C111.851 125.54 111.611 125.39 111.321 125.39C111.021 125.39 110.781 125.54 110.781 125.72C110.781 125.9 111.021 126.05 111.321 126.05C111.611 126.04 111.851 125.9 111.851 125.72Z" fill="white"/>
<path d="M64.7314 105.401C64.7314 105.071 64.2814 104.801 63.7214 104.801C63.1614 104.801 62.7114 105.061 62.7114 105.391C62.7114 105.721 63.1614 105.991 63.7214 105.991C64.2814 106.001 64.7314 105.731 64.7314 105.401Z" fill="#50E6FF"/>
<path d="M64.2514 105.401C64.2514 105.221 64.0114 105.071 63.7214 105.071C63.4214 105.071 63.1814 105.221 63.1814 105.401C63.1814 105.581 63.4214 105.731 63.7214 105.731C64.0114 105.731 64.2514 105.581 64.2514 105.401Z" fill="white"/>
<path d="M67.5613 107.161C67.5613 106.831 67.1113 106.561 66.5513 106.561C65.9913 106.561 65.5413 106.821 65.5413 107.151C65.5413 107.481 65.9913 107.751 66.5513 107.751C67.1013 107.761 67.5613 107.491 67.5613 107.161Z" fill="#4ED6F7"/>
<path d="M67.0812 107.161C67.0812 106.981 66.8412 106.831 66.5412 106.831C66.2412 106.831 66.0012 106.981 66.0012 107.161C66.0012 107.341 66.2412 107.491 66.5312 107.491C66.8412 107.491 67.0812 107.341 67.0812 107.161Z" fill="white"/>
<path d="M70.4214 108.891C70.4214 108.561 69.9714 108.291 69.4114 108.291C68.8514 108.291 68.4014 108.551 68.4014 108.881C68.4014 109.211 68.8514 109.481 69.4114 109.481C69.9614 109.491 70.4214 109.221 70.4214 108.891Z" fill="#43C8F1"/>
<path d="M69.9413 108.891C69.9413 108.711 69.7013 108.561 69.4013 108.561C69.1013 108.561 68.8613 108.711 68.8613 108.891C68.8613 109.071 69.1013 109.221 69.4013 109.221C69.7013 109.221 69.9413 109.071 69.9413 108.891Z" fill="white"/>
<path d="M73.2512 110.621C73.2512 110.291 72.8012 110.021 72.2412 110.021C71.6812 110.021 71.2312 110.281 71.2312 110.611C71.2312 110.941 71.6812 111.211 72.2412 111.211C72.7912 111.221 73.2412 110.951 73.2512 110.621Z" fill="#37B8EB"/>
<path d="M72.7714 110.621C72.7714 110.441 72.5314 110.291 72.2414 110.291C71.9414 110.291 71.7014 110.441 71.7014 110.621C71.7014 110.801 71.9414 110.951 72.2314 110.951C72.5314 110.951 72.7714 110.801 72.7714 110.621Z" fill="white"/>
<path d="M76.1013 112.381C76.1013 112.051 75.6513 111.781 75.0913 111.781C74.5313 111.781 74.0813 112.041 74.0813 112.371C74.0813 112.701 74.5313 112.971 75.0913 112.971C75.6513 112.981 76.1013 112.711 76.1013 112.381Z" fill="#2EA8E3"/>
<path d="M75.6313 112.381C75.6313 112.201 75.3913 112.051 75.0913 112.051C74.7913 112.051 74.5513 112.201 74.5513 112.381C74.5513 112.561 74.7913 112.711 75.0813 112.711C75.3913 112.711 75.6313 112.561 75.6313 112.381Z" fill="white"/>
<path d="M78.9614 114.11C78.9614 113.78 78.5114 113.51 77.9514 113.51C77.3914 113.51 76.9414 113.77 76.9414 114.1C76.9414 114.43 77.3914 114.7 77.9514 114.7C78.5114 114.71 78.9614 114.44 78.9614 114.11Z" fill="#2398DD"/>
<path d="M78.4914 114.111C78.4914 113.931 78.2514 113.781 77.9514 113.781C77.6514 113.781 77.4114 113.931 77.4114 114.111C77.4114 114.291 77.6514 114.441 77.9514 114.441C78.2514 114.441 78.4914 114.291 78.4914 114.111Z" fill="white"/>
<path d="M81.7912 115.871C81.7912 115.541 81.3412 115.271 80.7812 115.271C80.2212 115.271 79.7712 115.531 79.7712 115.861C79.7712 116.191 80.2212 116.461 80.7812 116.461C81.3412 116.471 81.7912 116.201 81.7912 115.871Z" fill="#1B8AD7"/>
<path d="M81.3112 115.871C81.3112 115.691 81.0712 115.541 80.7712 115.541C80.4712 115.541 80.2312 115.691 80.2312 115.871C80.2312 116.051 80.4712 116.201 80.7712 116.201C81.0712 116.201 81.3112 116.051 81.3112 115.871Z" fill="white"/>
<path d="M84.6514 117.6C84.6514 117.27 84.2013 117 83.6413 117C83.0813 117 82.6313 117.26 82.6313 117.59C82.6313 117.92 83.0813 118.19 83.6413 118.19C84.1913 118.2 84.6514 117.93 84.6514 117.6Z" fill="#137AD1"/>
<path d="M84.1713 117.601C84.1713 117.421 83.9313 117.271 83.6313 117.271C83.3313 117.271 83.0913 117.421 83.0913 117.601C83.0913 117.781 83.3313 117.931 83.6313 117.931C83.9313 117.931 84.1713 117.781 84.1713 117.601Z" fill="white"/>
<path d="M49.0713 114.221C49.0713 113.891 48.6213 113.621 48.0613 113.621C47.5013 113.621 47.0513 113.881 47.0513 114.211C47.0513 114.541 47.5013 114.811 48.0613 114.811C48.6213 114.811 49.0713 114.551 49.0713 114.221Z" fill="#50E6FF"/>
<path d="M48.5912 114.22C48.5912 114.04 48.3512 113.89 48.0512 113.89C47.7512 113.89 47.5112 114.04 47.5112 114.22C47.5112 114.4 47.7512 114.55 48.0512 114.55C48.3512 114.54 48.5912 114.4 48.5912 114.22Z" fill="white"/>
<path d="M51.9013 115.951C51.9013 115.621 51.4513 115.351 50.8913 115.351C50.3313 115.351 49.8813 115.611 49.8813 115.941C49.8813 116.271 50.3313 116.541 50.8913 116.541C51.4413 116.541 51.9013 116.281 51.9013 115.951Z" fill="#4ED6F7"/>
<path d="M51.4213 115.951C51.4213 115.771 51.1813 115.621 50.8813 115.621C50.5813 115.621 50.3413 115.771 50.3413 115.951C50.3413 116.131 50.5813 116.281 50.8813 116.281C51.1813 116.271 51.4213 116.131 51.4213 115.951Z" fill="white"/>
<path d="M54.7612 117.711C54.7612 117.381 54.3112 117.111 53.7512 117.111C53.1912 117.111 52.7412 117.371 52.7412 117.701C52.7412 118.031 53.1912 118.301 53.7512 118.301C54.3012 118.301 54.7612 118.041 54.7612 117.711Z" fill="#43C8F1"/>
<path d="M54.2814 117.71C54.2814 117.53 54.0414 117.38 53.7414 117.38C53.4414 117.38 53.2014 117.53 53.2014 117.71C53.2014 117.89 53.4414 118.04 53.7414 118.04C54.0414 118.03 54.2814 117.89 54.2814 117.71Z" fill="white"/>
<path d="M57.5913 119.441C57.5913 119.111 57.1413 118.841 56.5813 118.841C56.0213 118.841 55.5713 119.101 55.5713 119.431C55.5713 119.761 56.0213 120.031 56.5813 120.031C57.1313 120.031 57.5813 119.771 57.5913 119.441Z" fill="#37B8EB"/>
<path d="M57.1113 119.441C57.1113 119.261 56.8713 119.111 56.5713 119.111C56.2713 119.111 56.0312 119.261 56.0312 119.441C56.0312 119.621 56.2713 119.771 56.5713 119.771C56.8713 119.761 57.1113 119.621 57.1113 119.441Z" fill="white"/>
<path d="M60.4414 121.201C60.4414 120.871 59.9914 120.601 59.4314 120.601C58.8714 120.601 58.4214 120.861 58.4214 121.191C58.4214 121.521 58.8714 121.791 59.4314 121.791C59.9914 121.791 60.4414 121.531 60.4414 121.201Z" fill="#2EA8E3"/>
<path d="M59.9714 121.201C59.9714 121.021 59.7314 120.871 59.4314 120.871C59.1314 120.871 58.8914 121.021 58.8914 121.201C58.8914 121.381 59.1314 121.531 59.4314 121.531C59.7314 121.521 59.9714 121.381 59.9714 121.201Z" fill="white"/>
<path d="M63.3013 122.931C63.3013 122.601 62.8513 122.331 62.2913 122.331C61.7313 122.331 61.2812 122.591 61.2812 122.921C61.2812 123.251 61.7313 123.521 62.2913 123.521C62.8513 123.521 63.3013 123.261 63.3013 122.931Z" fill="#2398DD"/>
<path d="M62.8312 122.931C62.8312 122.751 62.5912 122.601 62.2912 122.601C61.9912 122.601 61.7512 122.751 61.7512 122.931C61.7512 123.111 61.9912 123.261 62.2912 123.261C62.5812 123.251 62.8212 123.111 62.8312 122.931Z" fill="white"/>
<path d="M66.1313 124.691C66.1313 124.361 65.6813 124.091 65.1213 124.091C64.5613 124.091 64.1113 124.351 64.1113 124.681C64.1113 125.011 64.5613 125.281 65.1213 125.281C65.6813 125.281 66.1313 125.021 66.1313 124.691Z" fill="#1B8AD7"/>
<path d="M65.6513 124.691C65.6513 124.511 65.4113 124.361 65.1213 124.361C64.8213 124.361 64.5813 124.511 64.5813 124.691C64.5813 124.871 64.8213 125.021 65.1113 125.021C65.4113 125.011 65.6513 124.871 65.6513 124.691Z" fill="white"/>
<path d="M68.9914 126.421C68.9914 126.091 68.5414 125.821 67.9814 125.821C67.4214 125.821 66.9714 126.081 66.9714 126.411C66.9714 126.741 67.4214 127.011 67.9814 127.011C68.5314 127.011 68.9914 126.751 68.9914 126.421Z" fill="#137AD1"/>
<path d="M68.5114 126.421C68.5114 126.241 68.2714 126.091 67.9714 126.091C67.6714 126.091 67.4314 126.241 67.4314 126.421C67.4314 126.601 67.6714 126.751 67.9714 126.751C68.2714 126.741 68.5114 126.601 68.5114 126.421Z" fill="white"/>
<path d="M48.5014 146.63C49.0614 146.63 49.5114 146.36 49.5114 146.03C49.5114 145.7 49.0614 145.43 48.5014 145.44C47.9414 145.44 47.4914 145.71 47.4914 146.04C47.4814 146.36 47.9414 146.63 48.5014 146.63Z" fill="#50E6FF"/>
<path d="M48.5014 146.36C48.8014 146.36 49.0414 146.21 49.0414 146.03C49.0414 145.85 48.8014 145.7 48.5014 145.7C48.2014 145.7 47.9614 145.85 47.9614 146.03C47.9614 146.21 48.2014 146.36 48.5014 146.36Z" fill="white"/>
<path d="M52.4114 144.441C52.4114 144.111 51.9614 143.841 51.4014 143.841C50.8414 143.841 50.3914 144.101 50.3914 144.431C50.3914 144.761 50.8414 145.031 51.4014 145.031C51.9514 145.031 52.4114 144.771 52.4114 144.441Z" fill="#4ED6F7"/>
<path d="M51.9313 144.441C51.9313 144.261 51.6913 144.111 51.3913 144.111C51.0913 144.111 50.8513 144.251 50.8513 144.441C50.8513 144.621 51.0913 144.771 51.3913 144.771C51.6913 144.761 51.9313 144.621 51.9313 144.441Z" fill="white"/>
<path d="M55.3113 142.81C55.3113 142.48 54.8613 142.21 54.3013 142.21C53.7413 142.21 53.2913 142.47 53.2913 142.8C53.2913 143.13 53.7413 143.4 54.3013 143.4C54.8613 143.4 55.3113 143.13 55.3113 142.81Z" fill="#43C8F1"/>
<path d="M54.8412 142.8C54.8412 142.62 54.6012 142.47 54.3012 142.47C54.0012 142.47 53.7612 142.62 53.7612 142.8C53.7612 142.98 54.0012 143.13 54.3012 143.13C54.6012 143.13 54.8412 142.98 54.8412 142.8Z" fill="white"/>
<path d="M58.0813 141.28C58.0813 140.95 57.6313 140.68 57.0713 140.68C56.5113 140.68 56.0613 140.94 56.0613 141.27C56.0613 141.6 56.5113 141.87 57.0713 141.87C57.6313 141.87 58.0813 141.6 58.0813 141.28Z" fill="#37B8EB"/>
<path d="M57.6012 141.27C57.6012 141.09 57.3612 140.94 57.0612 140.94C56.7612 140.94 56.5212 141.08 56.5212 141.27C56.5212 141.45 56.7612 141.6 57.0612 141.6C57.3612 141.6 57.6012 141.46 57.6012 141.27Z" fill="white"/>
<path d="M60.9914 139.671C60.9914 139.341 60.5414 139.071 59.9814 139.071C59.4214 139.071 58.9714 139.331 58.9714 139.661C58.9714 139.991 59.4214 140.261 59.9814 140.261C60.5314 140.271 60.9814 140.001 60.9914 139.671Z" fill="#2EA8E3"/>
<path d="M60.5114 139.671C60.5114 139.491 60.2714 139.341 59.9714 139.341C59.6714 139.341 59.4314 139.491 59.4314 139.671C59.4314 139.851 59.6714 140.001 59.9714 140.001C60.2714 140.001 60.5114 139.851 60.5114 139.671Z" fill="white"/>
<path d="M63.8613 138.1C63.8613 137.77 63.4113 137.5 62.8513 137.5C62.2913 137.5 61.8413 137.76 61.8413 138.09C61.8413 138.42 62.2913 138.69 62.8513 138.69C63.4013 138.7 63.8613 138.43 63.8613 138.1Z" fill="#2398DD"/>
<path d="M63.3813 138.101C63.3813 137.921 63.1413 137.771 62.8513 137.771C62.5513 137.771 62.3113 137.921 62.3113 138.101C62.3113 138.281 62.5513 138.431 62.8413 138.431C63.1413 138.431 63.3813 138.281 63.3813 138.101Z" fill="white"/>
<path d="M66.7314 136.53C66.7314 136.2 66.2814 135.93 65.7214 135.93C65.1614 135.93 64.7114 136.19 64.7114 136.52C64.7114 136.85 65.1614 137.12 65.7214 137.12C66.2814 137.12 66.7314 136.86 66.7314 136.53Z" fill="#1B8AD7"/>
<path d="M66.2614 136.53C66.2614 136.35 66.0214 136.2 65.7214 136.2C65.4214 136.2 65.1814 136.35 65.1814 136.53C65.1814 136.71 65.4214 136.86 65.7214 136.86C66.0114 136.85 66.2614 136.71 66.2614 136.53Z" fill="white"/>
<path d="M69.6413 134.84C69.6413 134.51 69.1913 134.24 68.6313 134.24C68.0713 134.24 67.6213 134.5 67.6213 134.83C67.6213 135.16 68.0713 135.43 68.6313 135.43C69.1813 135.43 69.6413 135.16 69.6413 134.84Z" fill="#137AD1"/>
<path d="M69.1613 134.83C69.1613 134.65 68.9213 134.5 68.6313 134.5C68.3313 134.5 68.0913 134.65 68.0913 134.83C68.0913 135.01 68.3313 135.16 68.6313 135.16C68.9213 135.16 69.1613 135.01 69.1613 134.83Z" fill="white"/>
<path d="M64.4614 155.65C65.0214 155.65 65.4714 155.38 65.4714 155.05C65.4714 154.72 65.0214 154.45 64.4614 154.46C63.9014 154.46 63.4514 154.73 63.4514 155.06C63.4514 155.38 63.9014 155.65 64.4614 155.65Z" fill="#50E6FF"/>
<path d="M64.4614 155.38C64.7614 155.38 65.0014 155.23 65.0014 155.05C65.0014 154.87 64.7614 154.72 64.4614 154.72C64.1614 154.72 63.9214 154.87 63.9214 155.05C63.9214 155.24 64.1614 155.38 64.4614 155.38Z" fill="white"/>
<path d="M68.1814 153.421C68.1814 153.091 67.7314 152.821 67.1714 152.821C66.6114 152.821 66.1614 153.081 66.1614 153.411C66.1614 153.741 66.6114 154.011 67.1714 154.011C67.7214 154.021 68.1814 153.751 68.1814 153.421Z" fill="#4ED6F7"/>
<path d="M67.7013 153.421C67.7013 153.241 67.4613 153.091 67.1713 153.091C66.8713 153.091 66.6313 153.231 66.6313 153.421C66.6313 153.601 66.8713 153.751 67.1713 153.751C67.4613 153.751 67.7013 153.601 67.7013 153.421Z" fill="white"/>
<path d="M70.9014 151.8C70.9014 151.47 70.4513 151.2 69.8913 151.2C69.3313 151.2 68.8813 151.46 68.8813 151.79C68.8813 152.12 69.3313 152.39 69.8913 152.39C70.4513 152.39 70.9014 152.13 70.9014 151.8Z" fill="#43C8F1"/>
<path d="M70.4213 151.8C70.4213 151.62 70.1813 151.47 69.8913 151.47C69.5913 151.47 69.3513 151.62 69.3513 151.8C69.3513 151.98 69.5913 152.13 69.8813 152.13C70.1813 152.12 70.4213 151.98 70.4213 151.8Z" fill="white"/>
<path d="M73.5913 150.171C73.5913 149.841 73.1413 149.571 72.5813 149.571C72.0213 149.571 71.5713 149.831 71.5713 150.161C71.5713 150.491 72.0213 150.761 72.5813 150.761C73.1413 150.771 73.5913 150.501 73.5913 150.171Z" fill="#37B8EB"/>
<path d="M73.1213 150.171C73.1213 149.991 72.8813 149.841 72.5813 149.841C72.2813 149.841 72.0413 149.981 72.0413 150.171C72.0413 150.351 72.2813 150.501 72.5813 150.501C72.8813 150.501 73.1213 150.351 73.1213 150.171Z" fill="white"/>
<path d="M76.3213 148.55C76.3213 148.22 75.8713 147.95 75.3113 147.95C74.7513 147.95 74.3013 148.21 74.3013 148.54C74.3013 148.87 74.7513 149.14 75.3113 149.14C75.8613 149.14 76.3113 148.88 76.3213 148.55Z" fill="#2EA8E3"/>
<path d="M75.8412 148.55C75.8412 148.37 75.6012 148.22 75.3112 148.22C75.0112 148.22 74.7712 148.36 74.7712 148.55C74.7712 148.73 75.0112 148.88 75.3112 148.88C75.6012 148.87 75.8412 148.73 75.8412 148.55Z" fill="white"/>
<path d="M79.0112 146.921C79.0112 146.591 78.5612 146.321 78.0012 146.321C77.4412 146.321 76.9912 146.581 76.9912 146.911C76.9912 147.241 77.4412 147.511 78.0012 147.511C78.5512 147.521 79.0112 147.251 79.0112 146.921Z" fill="#2398DD"/>
<path d="M78.5314 146.921C78.5314 146.741 78.2914 146.591 77.9914 146.591C77.6914 146.591 77.4514 146.741 77.4514 146.921C77.4514 147.101 77.6914 147.251 77.9914 147.251C78.2914 147.251 78.5314 147.101 78.5314 146.921Z" fill="white"/>
<path d="M81.7314 145.3C81.7314 144.97 81.2814 144.7 80.7214 144.7C80.1614 144.7 79.7114 144.96 79.7114 145.29C79.7114 145.62 80.1614 145.89 80.7214 145.89C81.2814 145.89 81.7314 145.62 81.7314 145.3Z" fill="#1B8AD7"/>
<path d="M81.2514 145.3C81.2514 145.12 81.0114 144.97 80.7114 144.97C80.4114 144.97 80.1714 145.11 80.1714 145.3C80.1714 145.48 80.4114 145.63 80.7114 145.63C81.0114 145.62 81.2514 145.48 81.2514 145.3Z" fill="white"/>
<path d="M84.4214 143.671C84.4214 143.341 83.9714 143.071 83.4114 143.071C82.8514 143.071 82.4014 143.331 82.4014 143.661C82.4014 143.991 82.8514 144.261 83.4114 144.261C83.9714 144.271 84.4214 144.001 84.4214 143.671Z" fill="#137AD1"/>
<path d="M83.9513 143.671C83.9513 143.491 83.7113 143.341 83.4113 143.341C83.1113 143.341 82.8713 143.491 82.8713 143.671C82.8713 143.851 83.1113 144.001 83.4013 144.001C83.7113 144.001 83.9513 143.851 83.9513 143.671Z" fill="white"/>
<path d="M116.831 154.391C116.831 154.061 116.381 153.791 115.821 153.791C115.261 153.791 114.811 154.051 114.811 154.381C114.811 154.711 115.261 154.981 115.821 154.981C116.381 154.991 116.831 154.721 116.831 154.391Z" fill="#50E6FF"/>
<path d="M116.351 154.391C116.351 154.211 116.111 154.061 115.811 154.061C115.511 154.061 115.271 154.211 115.271 154.391C115.271 154.571 115.511 154.721 115.811 154.721C116.111 154.721 116.351 154.571 116.351 154.391Z" fill="white"/>
<path d="M114.221 152.82C114.221 152.49 113.771 152.22 113.211 152.22C112.651 152.22 112.201 152.48 112.201 152.81C112.201 153.14 112.651 153.41 113.211 153.41C113.771 153.41 114.221 153.15 114.221 152.82Z" fill="#4ED6F7"/>
<path d="M113.751 152.82C113.751 152.64 113.511 152.49 113.211 152.49C112.911 152.49 112.671 152.63 112.671 152.82C112.671 153 112.911 153.15 113.211 153.15C113.511 153.14 113.751 153 113.751 152.82Z" fill="white"/>
<path d="M111.621 151.24C111.621 150.91 111.171 150.64 110.611 150.64C110.051 150.64 109.601 150.9 109.601 151.23C109.601 151.56 110.051 151.83 110.611 151.83C111.161 151.84 111.621 151.57 111.621 151.24Z" fill="#43C8F1"/>
<path d="M111.141 151.24C111.141 151.06 110.901 150.91 110.601 150.91C110.301 150.91 110.061 151.06 110.061 151.24C110.061 151.42 110.301 151.57 110.601 151.57C110.901 151.57 111.141 151.42 111.141 151.24Z" fill="white"/>
<path d="M109.041 149.701C109.041 149.371 108.591 149.101 108.031 149.101C107.471 149.101 107.021 149.361 107.021 149.691C107.021 150.021 107.471 150.291 108.031 150.291C108.581 150.291 109.041 150.031 109.041 149.701Z" fill="#37B8EB"/>
<path d="M108.561 149.701C108.561 149.521 108.321 149.371 108.021 149.371C107.721 149.371 107.481 149.511 107.481 149.701C107.481 149.881 107.721 150.031 108.021 150.031C108.321 150.021 108.561 149.881 108.561 149.701Z" fill="white"/>
<path d="M106.431 148.121C106.431 147.791 105.981 147.521 105.421 147.521C104.861 147.521 104.411 147.781 104.411 148.111C104.411 148.441 104.861 148.711 105.421 148.711C105.981 148.721 106.431 148.451 106.431 148.121Z" fill="#2EA8E3"/>
<path d="M105.951 148.121C105.951 147.941 105.711 147.791 105.411 147.791C105.111 147.791 104.871 147.931 104.871 148.121C104.871 148.301 105.111 148.451 105.411 148.451C105.711 148.451 105.951 148.301 105.951 148.121Z" fill="white"/>
<path d="M103.821 146.55C103.821 146.22 103.371 145.95 102.811 145.95C102.251 145.95 101.801 146.21 101.801 146.54C101.801 146.87 102.251 147.14 102.811 147.14C103.371 147.14 103.821 146.88 103.821 146.55Z" fill="#2398DD"/>
<path d="M103.351 146.55C103.351 146.37 103.111 146.22 102.811 146.22C102.511 146.22 102.271 146.36 102.271 146.55C102.271 146.73 102.511 146.88 102.811 146.88C103.111 146.87 103.351 146.73 103.351 146.55Z" fill="white"/>
<path d="M101.251 144.971C101.251 144.641 100.801 144.371 100.241 144.371C99.6812 144.371 99.2312 144.631 99.2312 144.961C99.2312 145.291 99.6812 145.561 100.241 145.561C100.791 145.571 101.251 145.301 101.251 144.971Z" fill="#1B8AD7"/>
<path d="M100.771 144.97C100.771 144.79 100.531 144.64 100.231 144.64C99.9314 144.64 99.6914 144.79 99.6914 144.97C99.6914 145.15 99.9314 145.3 100.231 145.3C100.531 145.3 100.771 145.15 100.771 144.97Z" fill="white"/>
<path d="M98.6413 143.401C98.6413 143.071 98.1913 142.801 97.6313 142.801C97.0713 142.801 96.6213 143.061 96.6213 143.391C96.6213 143.721 97.0713 143.991 97.6313 143.991C98.1813 143.991 98.6413 143.731 98.6413 143.401Z" fill="#137AD1"/>
<path d="M98.1613 143.401C98.1613 143.221 97.9213 143.071 97.6213 143.071C97.3213 143.071 97.0813 143.221 97.0813 143.401C97.0813 143.581 97.3213 143.731 97.6213 143.731C97.9213 143.721 98.1613 143.581 98.1613 143.401Z" fill="white"/>
<path d="M131.851 145.99C131.851 145.66 131.401 145.39 130.841 145.39C130.281 145.39 129.831 145.65 129.831 145.98C129.831 146.31 130.281 146.58 130.841 146.58C131.401 146.58 131.851 146.32 131.851 145.99Z" fill="#50E6FF"/>
<path d="M131.381 145.99C131.381 145.81 131.141 145.66 130.841 145.66C130.541 145.66 130.301 145.81 130.301 145.99C130.301 146.17 130.541 146.32 130.831 146.32C131.141 146.32 131.381 146.17 131.381 145.99Z" fill="white"/>
<path d="M129.161 144.391C129.161 144.061 128.711 143.791 128.151 143.791C127.591 143.791 127.141 144.051 127.141 144.381C127.141 144.711 127.591 144.981 128.151 144.981C128.701 144.991 129.161 144.721 129.161 144.391Z" fill="#4ED6F7"/>
<path d="M128.681 144.391C128.681 144.211 128.441 144.061 128.141 144.061C127.841 144.061 127.601 144.201 127.601 144.391C127.601 144.571 127.841 144.721 128.131 144.721C128.441 144.721 128.681 144.571 128.681 144.391Z" fill="white"/>
<path d="M126.431 142.8C126.431 142.47 125.981 142.2 125.421 142.2C124.861 142.2 124.411 142.46 124.411 142.79C124.411 143.12 124.861 143.39 125.421 143.39C125.971 143.39 126.431 143.13 126.431 142.8Z" fill="#43C8F1"/>
<path d="M125.951 142.8C125.951 142.62 125.711 142.47 125.411 142.47C125.111 142.47 124.871 142.62 124.871 142.8C124.871 142.98 125.111 143.13 125.411 143.13C125.711 143.12 125.951 142.98 125.951 142.8Z" fill="white"/>
<path d="M123.731 141.201C123.731 140.871 123.281 140.601 122.721 140.601C122.161 140.601 121.711 140.861 121.711 141.191C121.711 141.521 122.161 141.791 122.721 141.791C123.281 141.801 123.731 141.531 123.731 141.201Z" fill="#37B8EB"/>
<path d="M123.261 141.201C123.261 141.021 123.021 140.871 122.721 140.871C122.421 140.871 122.181 141.011 122.181 141.201C122.181 141.381 122.421 141.531 122.721 141.531C123.011 141.531 123.261 141.381 123.261 141.201Z" fill="white"/>
<path d="M121.011 139.61C121.011 139.28 120.561 139.01 120.001 139.01C119.441 139.01 118.991 139.27 118.991 139.6C118.991 139.93 119.441 140.201 120.001 140.201C120.551 140.201 121.001 139.94 121.011 139.61Z" fill="#2EA8E3"/>
<path d="M120.531 139.611C120.531 139.431 120.291 139.281 119.991 139.281C119.691 139.281 119.451 139.431 119.451 139.611C119.451 139.791 119.691 139.941 119.981 139.941C120.291 139.931 120.531 139.791 120.531 139.611Z" fill="white"/>
<path d="M118.311 138.01C118.311 137.68 117.861 137.41 117.301 137.41C116.741 137.41 116.291 137.67 116.291 138C116.291 138.33 116.741 138.6 117.301 138.6C117.851 138.61 118.311 138.34 118.311 138.01Z" fill="#2398DD"/>
<path d="M117.831 138.01C117.831 137.83 117.591 137.68 117.291 137.68C116.991 137.68 116.751 137.82 116.751 138.01C116.751 138.19 116.991 138.34 117.291 138.34C117.591 138.34 117.831 138.19 117.831 138.01Z" fill="white"/>
<path d="M115.581 136.421C115.581 136.091 115.131 135.821 114.571 135.821C114.011 135.821 113.561 136.081 113.561 136.411C113.561 136.741 114.011 137.011 114.571 137.011C115.131 137.011 115.581 136.751 115.581 136.421Z" fill="#1B8AD7"/>
<path d="M115.101 136.421C115.101 136.241 114.861 136.091 114.561 136.091C114.261 136.091 114.021 136.241 114.021 136.421C114.021 136.601 114.261 136.751 114.561 136.751C114.861 136.741 115.101 136.601 115.101 136.421Z" fill="white"/>
<path d="M112.881 134.82C112.881 134.49 112.431 134.22 111.871 134.22C111.311 134.22 110.861 134.48 110.861 134.81C110.861 135.14 111.311 135.41 111.871 135.41C112.431 135.42 112.881 135.15 112.881 134.82Z" fill="#137AD1"/>
<path d="M112.411 134.82C112.411 134.64 112.171 134.49 111.871 134.49C111.571 134.49 111.331 134.64 111.331 134.82C111.331 135 111.571 135.15 111.871 135.15C112.171 135.15 112.411 135 112.411 134.82Z" fill="white"/>
<path opacity="0.5" d="M33.8113 73.5305L94.0713 58.8105L109.261 49.7905L26.1113 61.3105L33.8113 73.5305Z" stroke="#50E6FF" stroke-width="0.4336" stroke-miterlimit="10" stroke-linejoin="round"/>
<path opacity="0.5" d="M78.8914 32.5805V50.1705L33.8914 73.5305L94.0014 23.5405L78.8914 32.5805Z" stroke="#50E6FF" stroke-width="0.4336" stroke-miterlimit="10" stroke-linejoin="round"/>
<path d="M28.1214 61.3106C28.1214 60.2106 27.2714 59.3606 26.1714 59.3606C25.0714 59.3606 24.2214 60.2106 24.2214 61.3106C24.2214 62.4106 25.0714 63.2606 26.1714 63.2606C27.1914 63.2606 28.1214 62.3906 28.1214 61.3106Z" fill="#50E6FF"/>
<path d="M95.8513 23.7105C95.8513 22.6105 95.0014 21.7605 93.9014 21.7605C92.7314 21.7605 91.8813 22.6105 91.8813 23.7105C91.8813 24.8105 92.7314 25.6605 93.8314 25.6605C94.9214 25.7305 95.8513 24.7905 95.8513 23.7105Z" fill="#50E6FF"/>
<path d="M80.8314 32.6604C80.8314 31.5604 79.9814 30.7104 78.8814 30.7104C77.7814 30.7104 76.9314 31.5604 76.9314 32.6604C76.9314 33.7605 77.7814 34.6105 78.8814 34.6105C79.9814 34.6805 80.8314 33.7505 80.8314 32.6604Z" fill="#50E6FF"/>
<path d="M35.7613 73.6104C35.7613 72.5104 34.9113 71.6604 33.8113 71.6604C32.7113 71.6604 31.8613 72.5104 31.8613 73.6104C31.8613 74.7104 32.7113 75.5604 33.8113 75.5604C34.8913 75.6304 35.7613 74.7004 35.7613 73.6104Z" fill="#50E6FF"/>
<path d="M111.192 49.9405C111.192 48.8405 110.342 47.9905 109.242 47.9905C108.142 47.9905 107.292 48.8405 107.292 49.9405C107.292 51.0405 108.142 51.8905 109.242 51.8905C110.342 51.8905 111.192 51.0205 111.192 49.9405Z" fill="#50E6FF"/>
<path d="M95.9315 58.7405C95.9315 57.6405 95.0815 56.7905 93.9815 56.7905C92.8815 56.7905 92.0315 57.6405 92.0315 58.7405C92.0315 59.8405 92.8815 60.6905 93.9815 60.6905C95.0015 60.7605 95.9315 59.8305 95.9315 58.7405Z" fill="#50E6FF"/>
<path d="M80.8314 50.0904C80.8314 48.9904 79.9814 48.1404 78.8814 48.1404C77.7814 48.1404 76.9314 48.9904 76.9314 50.0904C76.9314 51.1904 77.7814 52.0404 78.8814 52.0404C79.9014 52.1204 80.8314 51.1904 80.8314 50.0904Z" fill="#50E6FF"/>
<path d="M138.452 49.9405C138.452 48.8405 137.602 47.9905 136.502 47.9905C135.402 47.9905 134.552 48.8405 134.552 49.9405C134.552 51.0405 135.402 51.8905 136.502 51.8905C137.592 51.8905 138.452 51.0205 138.452 49.9405Z" fill="#50E6FF"/>
<path d="M115.411 46.4405C115.411 45.3405 114.561 44.4905 113.461 44.4905C112.361 44.4905 111.511 45.3405 111.511 46.4405C111.511 47.5405 112.361 48.3905 113.461 48.3905C114.561 48.3905 115.411 47.5205 115.411 46.4405Z" fill="#50E6FF"/>
<path opacity="0.2" d="M139.181 128.99L91.5813 102.72L43.7812 131.75L89.9212 158.02L139.181 128.99Z" fill="#1F1D21"/>
<path d="M90.1113 93.5306L89.9313 150.671L40.1113 122.021L40.2913 64.8806L90.1113 93.5306Z" fill="#243A5E"/>
<path d="M90.1114 93.5304L138.461 64.6904V121.83L89.9314 150.69L90.1114 93.5304Z" fill="#1D4A79"/>
<path d="M40.2913 64.8705L88.8213 36.0305L138.461 64.6905L90.1113 93.5305L40.2913 64.8705Z" fill="#156AB3"/>
<path d="M88.8013 93.1506V45.1106L130.681 69.3306L130.491 117.391L88.8013 93.1506Z" fill="#84ECFD"/>
<path d="M88.8014 93.1506L47.8914 117.381L48.0814 69.3206L88.8014 45.1106V93.1506Z" fill="#ACF3FD"/>
<path d="M130.471 117.38L89.7714 141.6L47.8914 117.38L88.8014 93.1604L130.471 117.38Z" fill="#D5F9FD"/>
<path d="M91.3513 70.1005L85.6613 64.2305C84.8913 63.4305 83.5913 63.4605 82.8613 64.3005L58.8213 91.7505C57.7513 92.9705 57.7513 94.8005 58.8113 96.0305L82.6413 123.42C83.5413 124.45 85.1313 124.45 86.0313 123.42L93.1413 115.21L93.9213 72.9605L91.3513 70.1005Z" fill="url(#paint1_linear)"/>
<path d="M119.331 90.5505L95.6413 64.6505C94.6213 63.5505 92.8813 63.5405 91.8513 64.6105L80.9013 75.9205C79.7113 77.1505 79.6913 79.0905 80.8613 80.3405L92.0813 92.3805C92.9113 93.2605 92.9113 94.6305 92.0913 95.5205L80.8213 107.691C79.6613 108.941 79.6913 110.871 80.8713 112.101L91.8413 123.481C92.8913 124.561 94.6213 124.541 95.6513 123.441L119.351 97.3405C121.091 95.4205 121.081 92.4805 119.331 90.5505Z" fill="url(#paint2_linear)"/>
<path d="M120.461 96.1206L109.881 107.851C109.081 108.731 107.691 108.761 106.861 107.911L96.2313 97.0506C94.5113 95.2906 94.5013 92.4806 96.2113 90.7106L106.641 79.9406C107.471 79.0806 108.861 79.1006 109.661 79.9906L120.451 91.8806C121.541 93.0806 121.541 94.9206 120.461 96.1206Z" fill="url(#paint3_linear)"/>
<path d="M153.071 73.2204L134.221 83.8504V78.3104L153.071 67.6804V73.2204Z" fill="#0062AD"/>
<path d="M153.071 74.5903L134.221 85.2203V79.6803L153.071 69.0503V74.5903Z" fill="#EBEBEB"/>
<path d="M138.141 81.9005V81.2505L135.211 82.9505V83.6005L138.141 81.9005Z" fill="#0062AD"/>
<path d="M138.141 79.2205V78.5105L135.211 80.2705V80.9205L138.141 79.2205Z" fill="#0062AD"/>
<path d="M138.141 80.5904V79.8704L135.211 81.5704V82.2904L138.141 80.5904Z" fill="#0062AD"/>
<path d="M153.071 86.0105L134.221 96.6405V91.1005L153.071 80.4705V86.0105Z" fill="#45C9F1"/>
<path d="M153.071 87.3803L134.231 98.0103V92.4703L153.081 81.8403V87.3803H153.071Z" fill="#EBEBEB"/>
<path d="M137.752 94.8806C138.012 94.7506 138.212 94.4206 138.212 94.1006C138.212 93.8406 138.012 93.7106 137.752 93.8406C137.492 93.9706 137.292 94.3006 137.292 94.6206C137.292 94.9506 137.492 95.0106 137.752 94.8806Z" fill="#45C9F1"/>
<path d="M135.661 96.1205C135.921 95.9905 136.121 95.6605 136.121 95.3405C136.121 95.0805 135.921 94.9505 135.661 95.0805C135.401 95.2105 135.201 95.5405 135.201 95.8605C135.271 96.1205 135.471 96.2505 135.661 96.1205Z" fill="#45C9F1"/>
<path d="M137.752 92.5305C138.012 92.4005 138.212 92.0705 138.212 91.7505C138.212 91.4905 138.012 91.3605 137.752 91.4905C137.492 91.6205 137.292 91.9505 137.292 92.2705C137.292 92.5305 137.492 92.6605 137.752 92.5305Z" fill="#45C9F1"/>
<path d="M135.661 93.7104C135.921 93.5804 136.121 93.2504 136.121 92.9304C136.121 92.6704 135.921 92.5404 135.661 92.6704C135.401 92.8704 135.201 93.1904 135.201 93.5204C135.201 93.7704 135.401 93.9004 135.661 93.7104Z" fill="#45C9F1"/>
<path d="M153.071 98.8005L134.221 109.43V103.89L153.071 93.2605V98.8005Z" fill="#1E9FE0"/>
<path d="M153.071 100.17L134.221 110.8V105.26L153.071 94.6304V100.17Z" fill="#EBEBEB"/>
<path d="M135.271 105.91L138.201 104.21V107.6L135.271 109.3V105.91ZM137.291 105.72L136.121 106.37V107.74L137.291 107.09V105.72Z" fill="#1E9FE0"/>
<defs>
<linearGradient id="paint0_linear" x1="90.6411" y1="9.99028" x2="90.6411" y2="181.39" gradientUnits="userSpaceOnUse">
<stop stop-color="#00ABDE"/>
<stop offset="1" stop-color="#007ED8"/>
</linearGradient>
<linearGradient id="paint1_linear" x1="74.4743" y1="65.9029" x2="78.8832" y2="117.707" gradientUnits="userSpaceOnUse">
<stop stop-color="#A23093"/>
<stop offset="1" stop-color="#692266"/>
</linearGradient>
<linearGradient id="paint2_linear" x1="79.9603" y1="94.0498" x2="120.65" y2="94.0498" gradientUnits="userSpaceOnUse">
<stop stop-color="#E184C4"/>
<stop offset="1" stop-color="#D76EBC"/>
</linearGradient>
<linearGradient id="paint3_linear" x1="94.939" y1="93.9205" x2="121.271" y2="93.9205" gradientUnits="userSpaceOnUse">
<stop stop-color="#E89BCA"/>
<stop offset="1" stop-color="#E591C8"/>
</linearGradient>
</defs>
</svg>
