<?xml version="1.0" encoding="UTF-8"?>
<svg width="166px" height="190px" viewBox="0 0 166 190" version="1.1" xmlns="http://www.w3.org/2000/svg" xmlns:xlink="http://www.w3.org/1999/xlink">
    <!-- Generator: Sketch 64 (93537) - https://sketch.com -->
    <title>Administer AI Builder/Administer-AI-Builder</title>
    <desc>Created with Sketch.</desc>
    <defs>
        <path d="M100.206168,6.55621559 L158.148455,40.9384601 C164.220022,44.5412538 167.942286,51.0782575 167.942286,58.1382893 L167.942286,127.861711 C167.942286,134.921743 164.220022,141.458746 158.148455,145.06154 L100.206168,179.443784 C93.9142272,183.177345 86.0857728,183.177345 79.7938316,179.443784 L21.8515452,145.06154 C15.7799781,141.458746 12.0577137,134.921743 12.0577137,127.861711 L12.0577137,58.1382893 C12.0577137,51.0782575 15.7799781,44.5412538 21.8515452,40.9384601 L79.7938316,6.55621559 C86.0857728,2.82265458 93.9142272,2.82265458 100.206168,6.55621559 Z" id="path-1"></path>
        <linearGradient x1="50%" y1="0%" x2="50%" y2="100%" id="linearGradient-3">
            <stop stop-color="#4E4E57" offset="0%"></stop>
            <stop stop-color="#2E2E34" offset="100%"></stop>
        </linearGradient>
        <rect id="path-4" x="0" y="0" width="180" height="185"></rect>
        <path d="M88.2061684,3.05621559 L146.148455,37.4384601 C152.220022,41.0412538 155.942286,47.5782575 155.942286,54.6382893 L155.942286,124.361711 C155.942286,131.421743 152.220022,137.958746 146.148455,141.56154 L88.2061684,175.943784 C81.9142272,179.677345 74.0857728,179.677345 67.7938316,175.943784 L9.85154523,141.56154 C3.77997814,137.958746 0.0577136594,131.421743 0.0577136594,124.361711 L0.0577136594,54.6382893 C0.0577136594,47.5782575 3.77997814,41.0412538 9.85154523,37.4384601 L67.7938316,3.05621559 C74.0857728,-0.677345417 81.9142272,-0.677345417 88.2061684,3.05621559 Z M85.6546263,7.3561729 C81.0429194,4.61964239 75.3306135,4.55744852 70.6688793,7.16959128 L70.3453737,7.3561729 L12.4030873,41.7384174 C7.95060481,44.3804661 5.18265925,49.1264521 5.06183821,54.2858887 L5.05771366,54.6382893 L5.05771366,124.361711 C5.05771366,129.539067 7.72671515,134.341394 12.1021306,137.078203 L12.4030873,137.261583 L70.3453737,171.643827 C74.9570806,174.380358 80.6693865,174.442551 85.3311207,171.830409 L85.6546263,171.643827 L143.596913,137.261583 C148.049395,134.619534 150.817341,129.873548 150.938162,124.714111 L150.942286,124.361711 L150.942286,54.6382893 C150.942286,49.4609326 148.273285,44.6586065 143.897869,41.9217974 L143.596913,41.7384174 L85.6546263,7.3561729 Z" id="path-5"></path>
        <filter x="-11.0%" y="-15.6%" width="122.0%" height="131.2%" filterUnits="objectBoundingBox" id="filter-7">
            <feOffset dx="0" dy="2" in="SourceAlpha" result="shadowOffsetOuter1"></feOffset>
            <feGaussianBlur stdDeviation="2" in="shadowOffsetOuter1" result="shadowBlurOuter1"></feGaussianBlur>
            <feColorMatrix values="0 0 0 0 0   0 0 0 0 0   0 0 0 0 0  0 0 0 0.1 0" type="matrix" in="shadowBlurOuter1" result="shadowMatrixOuter1"></feColorMatrix>
            <feMerge>
                <feMergeNode in="shadowMatrixOuter1"></feMergeNode>
                <feMergeNode in="SourceGraphic"></feMergeNode>
            </feMerge>
        </filter>
        <linearGradient x1="50%" y1="129.304231%" x2="50%" y2="-22.7687391%" id="linearGradient-8">
            <stop stop-color="#0078D4" offset="0%"></stop>
            <stop stop-color="#1380DA" offset="16%"></stop>
            <stop stop-color="#3C91E5" offset="53%"></stop>
            <stop stop-color="#559CEC" offset="82%"></stop>
            <stop stop-color="#5EA0EF" offset="100%"></stop>
        </linearGradient>
        <filter x="-38.2%" y="-36.2%" width="176.4%" height="172.4%" filterUnits="objectBoundingBox" id="filter-9">
            <feOffset dx="0" dy="2" in="SourceAlpha" result="shadowOffsetOuter1"></feOffset>
            <feGaussianBlur stdDeviation="2" in="shadowOffsetOuter1" result="shadowBlurOuter1"></feGaussianBlur>
            <feColorMatrix values="0 0 0 0 0   0 0 0 0 0   0 0 0 0 0  0 0 0 0.1 0" type="matrix" in="shadowBlurOuter1" result="shadowMatrixOuter1"></feColorMatrix>
            <feMerge>
                <feMergeNode in="shadowMatrixOuter1"></feMergeNode>
                <feMergeNode in="SourceGraphic"></feMergeNode>
            </feMerge>
        </filter>
        <filter x="-21.8%" y="-20.7%" width="143.6%" height="141.4%" filterUnits="objectBoundingBox" id="filter-10">
            <feOffset dx="0" dy="2" in="SourceAlpha" result="shadowOffsetOuter1"></feOffset>
            <feGaussianBlur stdDeviation="2" in="shadowOffsetOuter1" result="shadowBlurOuter1"></feGaussianBlur>
            <feColorMatrix values="0 0 0 0 0   0 0 0 0 0   0 0 0 0 0  0 0 0 0.06 0" type="matrix" in="shadowBlurOuter1" result="shadowMatrixOuter1"></feColorMatrix>
            <feMerge>
                <feMergeNode in="shadowMatrixOuter1"></feMergeNode>
                <feMergeNode in="SourceGraphic"></feMergeNode>
            </feMerge>
        </filter>
        <linearGradient x1="50%" y1="2.04550253%" x2="50%" y2="100%" id="linearGradient-11">
            <stop stop-color="#FFE02A" offset="0%"></stop>
            <stop stop-color="#FFB518" offset="100%"></stop>
        </linearGradient>
        <linearGradient x1="50%" y1="2.04550253%" x2="50%" y2="100%" id="linearGradient-12">
            <stop stop-color="#FFE02A" offset="0%"></stop>
            <stop stop-color="#FFB518" offset="100%"></stop>
        </linearGradient>
    </defs>
    <g id="Badges" stroke="none" stroke-width="1" fill="none" fill-rule="evenodd">
        <g id="Administer-AI-Builder" transform="translate(-127.000000, -35.000000)">
            <g id="Administer-AI-Builder/Administer-AI-Builder" transform="translate(155.000000, 80.000000)">
                <g id="Trophy-Plates/Hex" transform="translate(5.000000, 0.000000)">
                    <g id="BG" transform="translate(-40.000000, -43.000000)">
                        <mask id="mask-2" fill="white">
                            <use xlink:href="#path-1"></use>
                        </mask>
                        <path stroke="#FFFFFF" stroke-width="5" d="M101.481939,4.40623694 C97.9427226,2.30610887 93.9713613,1.25604484 90,1.25604484 C86.0286387,1.25604484 82.0572774,2.30610887 78.5180605,4.40623694 L20.5757742,38.7884814 C13.7452612,42.8416243 9.55771366,50.1957535 9.55771366,58.1382893 L9.55771366,127.861711 C9.55771366,135.804246 13.7452612,143.158376 20.5757742,147.211519 L78.5180605,181.593763 C82.0572774,183.693891 86.0286387,184.743955 90,184.743955 C93.9713613,184.743955 97.9427226,183.693891 101.481939,181.593763 L159.424226,147.211519 C166.254739,143.158376 170.442286,135.804246 170.442286,127.861711 L170.442286,58.1382893 C170.442286,50.1957535 166.254739,42.8416243 159.424226,38.7884814 L101.481939,4.40623694 Z"></path>
                        <g id="Colors/PowerApps/BG-Solid-1" mask="url(#mask-2)">
                            <g transform="translate(0.000000, 0.500000)" id="Rectangle">
                                <rect fill="url(#linearGradient-3)" x="0" y="0" width="180" height="185"></rect>
                                <g fill="none">
                                    <use fill="#742774" xlink:href="#path-4"></use>
                                    <use fill-opacity="0.501092657" fill="#FFFFFF" xlink:href="#path-4"></use>
                                </g>
                            </g>
                        </g>
                    </g>
                    <g id="Border" transform="translate(-28.000000, -39.500000)">
                        <mask id="mask-6" fill="white">
                            <use xlink:href="#path-5"></use>
                        </mask>
                        <use fill="#000000" fill-rule="nonzero" xlink:href="#path-5"></use>
                        <g id="Colors/PowerApps/Border" mask="url(#mask-6)" fill="#752375">
                            <g transform="translate(-12.000000, -3.000000)" id="Rectangle">
                                <rect x="0" y="0" width="180" height="185"></rect>
                            </g>
                        </g>
                    </g>
                </g>
                <g id="Machine-Learning" filter="url(#filter-7)" transform="translate(0.000000, 2.000000)" fill-rule="nonzero">
                    <g id="Icon-machinelearning-162-Cognitive-Services">
                        <path d="M108,52.8343174 C107.731919,40.8635957 98.7654699,30.9029521 86.94,29.4391986 C86.2250524,12.6193322 72.1846615,-0.496081583 55.44,0.0144099837 C42.1218249,-0.275924307 30.06179,7.88433254 25.32,20.3946939 C11.0794917,22.1338327 0.28374869,34.1398578 0,48.5532518 C0.618220489,64.8273935 14.2243111,77.5298754 30.42,76.9529965 L33.06,76.9529965 L82.32,76.9529965 C82.7577903,77.0156678 83.2022097,77.0156678 83.64,76.9529965 C96.9019493,76.8269164 107.677117,66.1584924 108,52.8343174 Z" id="Path" fill="url(#linearGradient-8)"></path>
                        <path d="M32.7454262,44.3118326 L27.1598828,44.3118326 C26.3691016,41.1441732 23.1314928,39.0292959 19.635902,39.3970028 C16.1403111,39.7647096 13.5,42.4978948 13.5,45.7487377 C13.5,48.9995806 16.1403111,51.7327658 19.635902,52.1004727 C23.1314928,52.4681795 26.3691016,50.3533022 27.1598828,47.1856428 L32.7454262,47.1856428 C33.4465195,47.1856428 34.0148679,47.7108056 34.0148679,48.3586266 L34.0148679,73.5777778 L37.125,73.5777778 L37.125,48.3586266 C37.125,46.123644 35.164198,44.3118326 32.7454262,44.3118326 L32.7454262,44.3118326 Z M20.3683698,49.4729612 C18.1248713,49.4729612 16.3061564,47.7924405 16.3061564,45.7194131 C16.3061564,43.6463857 18.1248713,41.965865 20.3683698,41.965865 C22.6118683,41.965865 24.4305832,43.6463857 24.4305832,45.7194131 C24.4305832,47.7924405 22.6118683,49.4729612 20.3683698,49.4729612 L20.3683698,49.4729612 Z" id="Shape" fill="#9CEBFF"></path>
                        <path d="M55.5313029,45.9604125 L55.5313029,40.0713123 C55.5313029,37.7945902 53.5309383,35.9489422 51.0633635,35.9489422 L41.1700691,35.9489422 C40.4650478,35.9489422 39.893515,35.4216142 39.893515,34.7711221 L39.893515,3.73591001 L38.4254778,4.65723956 L36.7659574,5.68449976 L36.7659574,34.4766671 C36.7659574,36.7208647 38.7377454,38.5401463 41.1700691,38.5401463 L51.0633635,38.5401463 C51.4188549,38.5401463 51.7597862,38.6704422 52.0111566,38.9023706 C52.2625269,39.1342989 52.4037453,39.4488612 52.4037453,39.7768573 L52.4037453,45.6659575 C49.2254953,46.3050882 46.9640157,48.9071603 46.9783904,51.9084038 C46.9752458,55.2624299 49.771248,58.0533008 53.3954638,58.3137004 C57.0196797,58.5741 60.2502393,56.2162371 60.8098854,52.9021955 C61.3695315,49.5881539 59.0695846,46.4352311 55.5313029,45.6659575 L55.5313029,45.9604125 Z M53.4255319,56 L53.4255319,56 C51.2046422,56 49.4042553,54.4329966 49.4042553,52.5 C49.4042553,50.5670034 51.2046422,49 53.4255319,49 C55.6464217,49 57.4468085,50.5670034 57.4468085,52.5 C57.4468085,53.4282577 57.0231395,54.3184964 56.2690039,54.9748737 C55.5148682,55.6312511 54.4920408,56 53.4255319,56 L53.4255319,56 Z" id="Shape" fill="#F2F2F2"></path>
                        <path d="M90.9743467,35.5831784 C87.6047626,35.5951815 84.7757673,38.0874953 84.3865749,41.386933 C83.9973825,44.6863706 86.1707688,47.7520815 89.4476555,48.5259352 L89.4476555,49.7299125 C89.4476555,50.0651929 89.3125437,50.3867411 89.0720432,50.6238201 C88.8315426,50.8608992 88.5053539,50.9940888 88.1652348,50.9940888 L75.9517051,50.9940888 L75.9517051,29.804087 C75.9517051,28.7024515 75.5077664,27.645936 74.7175504,26.8669621 C73.9273344,26.0879881 72.8555715,25.6503651 71.7380374,25.6503651 L65.4480696,25.6503651 C64.7853163,22.6528101 62.08707,20.5199038 58.9748988,20.533397 C55.4969058,20.5304955 52.6028827,23.1675348 52.3328586,26.5857008 C52.0628345,30.0038668 54.5078454,33.0507574 57.9443759,33.5785856 C61.3809065,34.1064137 64.6503631,31.9372272 65.4480696,28.6001096 L71.982308,28.6001096 C72.6568426,28.6001096 73.2036609,29.1391487 73.2036609,29.804087 L73.2036609,77 L76.1959757,77 L76.1959757,53.9438333 L88.4095054,53.9438333 C90.7703766,53.9438333 92.6842408,52.0571967 92.6842408,49.7299125 L92.6842408,48.5259352 C95.7121722,47.8521989 97.8657333,45.2047886 97.8749925,42.1448551 L97.8749925,42.1448551 C97.8762092,40.3620549 97.1414833,38.655511 95.8398291,37.4177956 C94.5381749,36.1800802 92.7816582,35.5177541 90.9743467,35.5831784 Z M58.9748988,30.9478655 L58.9748988,30.9478655 C56.816388,30.9478655 55.0665693,29.2229406 55.0665693,27.0951379 C55.0665693,24.9673352 56.816388,23.2424103 58.9748988,23.2424103 C61.1334096,23.2424103 62.8832283,24.9673352 62.8832283,27.0951379 C62.8832283,29.2229406 61.1334096,30.9478655 58.9748988,30.9478655 Z M90.9743467,45.9975827 L90.9743467,45.9975827 C89.3882529,46.0220158 87.9444991,45.0989786 87.3202758,43.6614204 C86.6960525,42.2238621 87.0151904,40.5569594 88.1279984,39.4425705 C89.2408064,38.3281815 90.9265304,37.987374 92.3944841,38.5800032 C93.8624378,39.1726324 94.8214149,40.581135 94.8216085,42.1448551 C94.8218692,44.2493686 93.1089716,45.9646997 90.9743467,45.9975827 L90.9743467,45.9975827 Z" id="Shape" fill="#9CEBFF"></path>
                    </g>
                </g>
                <g id="Group" filter="url(#filter-9)" transform="translate(27.000000, 34.000000)" fill-rule="nonzero">
                    <g id="Groups" filter="url(#filter-10)" transform="translate(27.500000, 29.000000) scale(-1, 1) translate(-27.500000, -29.000000) ">
                        <path d="M50.0965396,58 C52.7962008,58 54.9847086,55.8662476 54.9847086,53.2341307 C55.0050971,53.0477624 55.0050971,52.8598085 54.9847086,52.6734402 C53.0540872,37.6949938 44.3046756,25.52 27.6273933,25.52 C10.950111,25.52 1.83100595,35.852725 0.0236157492,52.5532922 C-0.239353616,55.1826837 1.72378792,57.5260223 4.41886009,57.7997534 L50.0143855,57.7997534 L50.0965396,58 Z" id="Path" fill="url(#linearGradient-11)"></path>
                        <path d="M19.893617,26.68 L28.1462369,46.4 L36.2765957,26.8480682 C33.8449929,28.203727 31.0535754,28.9207924 28.2073674,28.9209091 C25.2551955,28.9444208 22.361808,28.1645298 19.893617,26.68 Z" id="Path" fill="#FFFFFF" opacity="0.8"></path>
                        <ellipse id="Oval" fill="url(#linearGradient-12)" cx="28.6702128" cy="15.08" rx="15.7978723" ry="15.08"></ellipse>
                    </g>
                </g>
            </g>
        </g>
    </g>
</svg>