<svg width="154" height="172" viewBox="0 0 154 172" fill="none" xmlns="http://www.w3.org/2000/svg">
<g filter="url(#filter0_d)">
<path d="M70 6.04145C74.3316 3.54059 79.6684 3.54059 84 6.04145L142.746 39.9585C147.078 42.4594 149.746 47.0812 149.746 52.0829V119.917C149.746 124.919 147.078 129.541 142.746 132.041L84 165.959C79.6684 168.459 74.3316 168.459 70 165.959L11.2539 132.041C6.92225 129.541 4.25387 124.919 4.25387 119.917V52.0829C4.25387 47.0812 6.92225 42.4594 11.2539 39.9585L70 6.04145Z" fill="url(#paint0_linear)"/>
<path d="M84.875 4.52591C80.0019 1.71244 73.9981 1.71244 69.125 4.52591L10.3789 38.443C5.5058 41.2565 2.50387 46.456 2.50387 52.0829V119.917C2.50387 125.544 5.5058 130.744 10.3789 133.557L69.125 167.474C73.9981 170.288 80.0019 170.288 84.875 167.474L143.621 133.557C148.494 130.744 151.496 125.544 151.496 119.917V52.0829C151.496 46.456 148.494 41.2565 143.621 38.443L84.875 4.52591Z" stroke="#F2F1F0" stroke-width="3.5"/>
</g>
<path d="M70.5 7.06218C74.5222 4.73995 79.4778 4.73995 83.5 7.06218L142.112 40.9019C146.134 43.2242 148.612 47.5158 148.612 52.1603V119.84C148.612 124.484 146.134 128.776 142.112 131.098L83.5 164.938C79.4778 167.26 74.5222 167.26 70.5 164.938L11.8878 131.098C7.86563 128.776 5.38784 124.484 5.38784 119.84V52.1603C5.38784 47.5158 7.86563 43.2242 11.8878 40.9019L70.5 7.06218Z" stroke="#0078D4" stroke-width="4"/>
<g filter="url(#filter1_d)">
<path d="M123.509 120.786L78.605 95.8154L33.5247 123.206L77.0366 148.001L123.509 120.786Z" fill="#223A7C"/>
</g>
<path d="M76.8704 94.0789L76.6938 141.933L35.0828 117.834L35.2593 70.1572L76.8704 94.0789Z" fill="#2E76BC"/>
<path d="M76.8707 94.0797L117.266 69.9814V117.835L76.6941 141.933L76.8707 94.0797Z" fill="#166BB3"/>
<path d="M35.259 70.1578L75.8314 46.0596L117.266 69.9813L76.8701 94.0795L35.259 70.1578Z" fill="#2886BF"/>
<path d="M35.259 60.6051L75.8314 36.5068L117.266 60.4285L76.8701 84.5268L35.259 60.6051Z" fill="url(#paint1_linear)" fill-opacity="0.83"/>
<path d="M35.259 50.0983L75.8314 26L117.266 49.9217L76.8701 74.0199L35.259 50.0983Z" fill="url(#paint2_linear)" fill-opacity="0.83"/>
<g filter="url(#filter2_d)">
<path fill-rule="evenodd" clip-rule="evenodd" d="M97.454 117.51C103.219 114.38 107.935 106.525 107.989 99.966C108.043 93.4067 103.413 90.6267 97.6489 93.7566C91.8843 96.8865 87.1676 104.741 87.1138 111.3C87.095 113.591 87.6472 115.42 88.6194 116.698L88.5877 120.561L91.983 118.718C93.5678 118.975 95.4417 118.602 97.454 117.51Z" fill="#FCA11F"/>
<path fill-rule="evenodd" clip-rule="evenodd" d="M107.99 99.9634C107.937 106.523 103.22 114.377 97.4552 117.507C95.4428 118.6 93.5686 118.972 91.9838 118.715L88.5871 120.559L88.5877 120.484L105.043 93.25C106.89 94.383 108.017 96.7077 107.99 99.9634Z" fill="#E89619"/>
<circle r="1.57311" transform="matrix(0.878817 -0.477159 -0.00820296 0.999966 97.602 99.3429)" fill="white"/>
<circle r="1.57311" transform="matrix(0.878817 -0.477159 -0.00820296 0.999966 97.4987 111.926)" fill="white"/>
<circle r="1.57311" transform="matrix(0.878817 -0.477159 -0.00820296 0.999966 101.266 105.658)" fill="white"/>
<circle r="1.57311" transform="matrix(0.878817 -0.477159 -0.00820296 0.999966 101.304 101.486)" fill="white"/>
<path d="M100.731 103.83C100.726 104.432 100.152 105.828 99.8833 106.444L102.614 104.961C102.364 104.679 101.893 103.92 101.871 103.211C101.862 102.902 101.955 102.486 102.087 102.069C102.257 101.529 102.491 100.988 102.649 100.675L99.9185 102.157C100.226 102.447 100.737 103.044 100.731 103.83Z" fill="white"/>
<circle r="1.57311" transform="matrix(0.878817 -0.477159 -0.00820296 0.999966 93.8017 109.708)" fill="white"/>
<circle r="1.57311" transform="matrix(0.878817 -0.477159 -0.00820296 0.999966 93.8386 105.54)" fill="white"/>
<path d="M93.2659 107.879C93.261 108.48 93.0416 108.667 92.7727 109.282L94.8122 108.136C94.5622 107.854 94.4282 107.969 94.4065 107.26C94.397 106.951 94.41 106.827 94.5502 106.516C94.7069 106.169 94.6722 106.287 94.8299 105.973L92.8935 107.142C93.2008 107.432 93.2724 107.093 93.2659 107.879Z" fill="white"/>
<circle r="1.57311" transform="matrix(0.878817 -0.477159 -0.00820296 0.999966 101.267 105.657)" fill="white"/>
<circle r="1.57311" transform="matrix(0.878817 -0.477159 -0.00820296 0.999966 101.302 101.486)" fill="white"/>
<path d="M100.73 103.824C100.725 104.426 100.506 104.612 100.237 105.228L102.276 104.081C102.026 103.799 101.892 103.914 101.871 103.205C101.861 102.896 101.874 102.773 102.014 102.462C102.171 102.114 102.136 102.232 102.294 101.918L100.358 103.087C100.665 103.377 100.736 103.038 100.73 103.824Z" fill="white"/>
<circle r="1.57311" transform="matrix(0.878817 -0.477159 -0.00820296 0.999966 97.5334 107.68)" fill="white"/>
<circle r="1.57311" transform="matrix(0.878817 -0.477159 -0.00820296 0.999966 97.5673 103.513)" fill="white"/>
<path d="M96.9974 105.851C96.9924 106.452 96.773 106.638 96.5042 107.254L98.5436 106.108C98.2936 105.826 98.1596 105.94 98.1379 105.232C98.1284 104.922 98.1415 104.799 98.2816 104.488C98.4384 104.14 98.4036 104.258 98.5614 103.945L96.6249 105.113C96.9322 105.403 97.0038 105.064 96.9974 105.851Z" fill="white"/>
<circle r="1.57311" transform="matrix(0.878817 -0.477159 -0.00820296 0.999966 97.5334 107.68)" fill="white"/>
<circle r="1.57311" transform="matrix(0.878817 -0.477159 -0.00820296 0.999966 97.5673 103.513)" fill="white"/>
<path d="M96.9974 105.851C96.9924 106.452 96.773 106.638 96.5042 107.254L98.5436 106.108C98.2936 105.826 98.1596 105.94 98.1379 105.232C98.1284 104.922 98.1415 104.799 98.2816 104.488C98.4384 104.14 98.4036 104.258 98.5614 103.945L96.6249 105.113C96.9322 105.403 97.0038 105.064 96.9974 105.851Z" fill="white"/>
</g>
<g filter="url(#filter3_d)">
<path fill-rule="evenodd" clip-rule="evenodd" d="M49.1492 105.149V115.536C49.1492 117.712 51.4562 120.096 52.744 119.251L52.8171 119.203C54.4357 118.141 57.1851 119.75 58.7793 122.693C60.0269 124.996 62.308 125.294 62.308 123.154V112.747" fill="url(#paint3_linear)"/>
<path fill-rule="evenodd" clip-rule="evenodd" d="M57.2457 91.6372C56.2919 90.1414 54.8791 89.3437 53.9435 89.7727L53.8506 89.8153C53.2974 90.0689 52.536 89.8526 51.8131 89.2364L51.6347 89.0843C50.5251 88.1384 49.4096 88.2781 49.1344 89.3974C48.9535 90.1326 48.3956 90.4729 47.6737 90.2882L47.6058 90.2708C46.4193 89.9671 45.7348 91.0031 46.0871 92.5692L46.1218 92.7233C46.3438 93.7105 46.1254 94.5144 45.5579 94.7985C44.7204 95.2178 44.689 96.7209 45.4882 98.1303L45.7072 98.5164C46.1921 99.3715 46.393 100.306 46.2416 101.002C46.0106 102.064 46.6032 103.608 47.611 104.571L48.224 105.157C48.8519 105.757 49.3216 106.635 49.4549 107.46C49.6517 108.676 50.5587 109.934 51.5236 110.33L51.9843 110.518C52.6124 110.776 53.2506 111.339 53.7521 112.077L53.9049 112.303C54.8943 113.761 56.2742 114.574 57.2798 114.293L57.4793 114.237C58.0099 114.088 58.6762 114.283 59.3291 114.777L59.417 114.843C60.5017 115.664 61.5588 115.578 61.9665 114.636C62.2218 114.047 62.7433 113.776 63.3941 113.895L63.6082 113.935C64.7602 114.146 65.4266 113.143 65.1492 111.614L65.1403 111.565C64.9687 110.619 65.168 109.844 65.6735 109.492C66.4615 108.942 66.4653 107.415 65.6823 105.953L65.6335 105.862C65.1522 104.963 64.9609 104.001 65.1202 103.281L65.193 102.952C65.435 101.857 64.7267 100.23 63.6465 99.3902C62.8774 98.7923 62.2643 97.7569 62.1052 96.7825C61.8873 95.4482 60.8502 94.0853 59.8093 93.7653L59.4341 93.65C58.7266 93.4325 57.9827 92.793 57.4314 91.9284L57.2457 91.6372Z" fill="url(#paint4_linear)"/>
<circle r="8.0193" transform="matrix(0.866025 0.5 0 1 55.7286 102.195)" fill="url(#paint5_linear)"/>
</g>
<defs>
<filter id="filter0_d" x="0.753906" y="0.666016" width="152.992" height="171.168" filterUnits="userSpaceOnUse" color-interpolation-filters="sRGB">
<feFlood flood-opacity="0" result="BackgroundImageFix"/>
<feColorMatrix in="SourceAlpha" type="matrix" values="0 0 0 0 0 0 0 0 0 0 0 0 0 0 0 0 0 0 127 0"/>
<feOffset dx="0.5" dy="0.5"/>
<feColorMatrix type="matrix" values="0 0 0 0 0.823529 0 0 0 0 0.831373 0 0 0 0 0.835294 0 0 0 1 0"/>
<feBlend mode="normal" in2="BackgroundImageFix" result="effect1_dropShadow"/>
<feBlend mode="normal" in="SourceGraphic" in2="effect1_dropShadow" result="shape"/>
</filter>
<filter id="filter1_d" x="29.5247" y="93.8154" width="97.9841" height="60.1852" filterUnits="userSpaceOnUse" color-interpolation-filters="sRGB">
<feFlood flood-opacity="0" result="BackgroundImageFix"/>
<feColorMatrix in="SourceAlpha" type="matrix" values="0 0 0 0 0 0 0 0 0 0 0 0 0 0 0 0 0 0 127 0"/>
<feOffset dy="2"/>
<feGaussianBlur stdDeviation="2"/>
<feColorMatrix type="matrix" values="0 0 0 0 0 0 0 0 0 0 0 0 0 0 0 0 0 0 0.15 0"/>
<feBlend mode="normal" in2="BackgroundImageFix" result="effect1_dropShadow"/>
<feBlend mode="normal" in="SourceGraphic" in2="effect1_dropShadow" result="shape"/>
</filter>
<filter id="filter2_d" x="83.1133" y="90.4707" width="28.8776" height="36.0905" filterUnits="userSpaceOnUse" color-interpolation-filters="sRGB">
<feFlood flood-opacity="0" result="BackgroundImageFix"/>
<feColorMatrix in="SourceAlpha" type="matrix" values="0 0 0 0 0 0 0 0 0 0 0 0 0 0 0 0 0 0 127 0"/>
<feOffset dy="2"/>
<feGaussianBlur stdDeviation="2"/>
<feColorMatrix type="matrix" values="0 0 0 0 0 0 0 0 0 0 0 0 0 0 0 0 0 0 0.1 0"/>
<feBlend mode="normal" in2="BackgroundImageFix" result="effect1_dropShadow"/>
<feBlend mode="normal" in="SourceGraphic" in2="effect1_dropShadow" result="shape"/>
</filter>
<filter id="filter3_d" x="40.9087" y="86.457" width="29.3583" height="44.1449" filterUnits="userSpaceOnUse" color-interpolation-filters="sRGB">
<feFlood flood-opacity="0" result="BackgroundImageFix"/>
<feColorMatrix in="SourceAlpha" type="matrix" values="0 0 0 0 0 0 0 0 0 0 0 0 0 0 0 0 0 0 127 0"/>
<feOffset dy="2"/>
<feGaussianBlur stdDeviation="2"/>
<feColorMatrix type="matrix" values="0 0 0 0 0 0 0 0 0 0 0 0 0 0 0 0 0 0 0.1 0"/>
<feBlend mode="normal" in2="BackgroundImageFix" result="effect1_dropShadow"/>
<feBlend mode="normal" in="SourceGraphic" in2="effect1_dropShadow" result="shape"/>
</filter>
<linearGradient id="paint0_linear" x1="77" y1="2.00252" x2="77" y2="170.003" gradientUnits="userSpaceOnUse">
<stop stop-color="#00ABDE"/>
<stop offset="1" stop-color="#007ED8"/>
</linearGradient>
<linearGradient id="paint1_linear" x1="76.2624" y1="36.5068" x2="76.2624" y2="84.5268" gradientUnits="userSpaceOnUse">
<stop stop-color="#2F94D1" stop-opacity="0"/>
<stop offset="1" stop-color="#166EA4"/>
</linearGradient>
<linearGradient id="paint2_linear" x1="76.2624" y1="26" x2="76.2624" y2="74.0199" gradientUnits="userSpaceOnUse">
<stop stop-color="#2F94D1" stop-opacity="0"/>
<stop offset="1" stop-color="#166EA4"/>
</linearGradient>
<linearGradient id="paint3_linear" x1="48.188" y1="106.958" x2="40.103" y2="120.962" gradientUnits="userSpaceOnUse">
<stop stop-color="#1E4A93"/>
<stop offset="1" stop-color="#252862"/>
</linearGradient>
<linearGradient id="paint4_linear" x1="67.3913" y1="120.963" x2="78.8607" y2="101.098" gradientUnits="userSpaceOnUse">
<stop stop-color="#0078D4"/>
<stop offset="0.16" stop-color="#1380DA"/>
<stop offset="0.53" stop-color="#3C91E5"/>
<stop offset="0.82" stop-color="#559CEC"/>
<stop offset="1" stop-color="#5EA0EF"/>
</linearGradient>
<linearGradient id="paint5_linear" x1="0" y1="0" x2="0" y2="16.0386" gradientUnits="userSpaceOnUse">
<stop stop-color="#1E5CA5"/>
<stop offset="1" stop-color="#225496"/>
</linearGradient>
</defs>
</svg>
