<svg width="103" height="103" viewBox="0 0 103 103" fill="none" xmlns="http://www.w3.org/2000/svg">
<path d="M51.4514 98.3851C77.3038 98.3851 98.2573 77.4315 98.2573 51.5791C98.2573 25.7268 77.3038 4.77322 51.4514 4.77322C25.599 4.77322 4.64551 25.7268 4.64551 51.5791C4.64551 77.4315 25.599 98.3851 51.4514 98.3851Z" fill="#B891B8"/>
<path fill-rule="evenodd" clip-rule="evenodd" d="M51.4512 1.57916C23.8378 1.57916 1.45117 23.9658 1.45117 51.5792C1.45117 79.1925 23.8378 101.579 51.4512 101.579C79.0645 101.579 101.451 79.1925 101.451 51.5792C101.451 23.9658 79.0645 1.57916 51.4512 1.57916ZM51.4512 97.336C26.1795 97.336 5.69433 76.8508 5.69433 51.5792C5.69433 26.3075 26.1795 5.82232 51.4512 5.82232C76.7228 5.82232 97.208 26.3075 97.208 51.5792C97.208 76.8508 76.7228 97.336 51.4512 97.336Z" fill="#D9D9D9"/>
<path fill-rule="evenodd" clip-rule="evenodd" d="M5.55385 51.5792C5.55385 76.9257 26.1046 97.4765 51.4512 97.4765C76.7978 97.4765 97.3485 76.9257 97.3485 51.5792C97.3485 26.2326 76.7978 5.68183 51.4512 5.68183C26.1046 5.68183 5.55385 26.2326 5.55385 51.5792ZM51.4512 1.93511C24.0346 1.93511 1.80713 24.1625 1.80713 51.5792C1.80713 78.9958 24.0346 101.223 51.4512 101.223C78.8678 101.223 101.095 78.9958 101.095 51.5792C101.095 24.1625 78.8678 1.93511 51.4512 1.93511Z" fill="#F2F1F0"/>
<path fill-rule="evenodd" clip-rule="evenodd" d="M8.36391 51.5792C8.36391 75.3802 27.6502 94.6665 51.4512 94.6665C75.2523 94.6665 94.5385 75.3802 94.5385 51.5792C94.5385 27.7781 75.2523 8.49187 51.4512 8.49187C27.6502 8.49187 8.36391 27.7781 8.36391 51.5792ZM51.4512 4.74515C25.5895 4.74515 4.61719 25.7174 4.61719 51.5792C4.61719 77.4409 25.5895 98.4132 51.4512 98.4132C77.313 98.4132 98.2852 77.4409 98.2852 51.5792C98.2852 25.7174 77.3223 4.74515 51.4512 4.74515Z" fill="#752375"/>
<path fill-rule="evenodd" clip-rule="evenodd" d="M49.8307 69.3293V23.3289C49.8307 22.1861 49.5029 21.1277 48.9783 20.2004C48.9128 20.0692 48.8378 19.9381 48.7629 19.807C48.7629 19.7976 48.7535 19.7976 48.7535 19.7882C47.386 17.4372 44.8476 15.8542 41.9345 15.8542C37.9442 15.8542 34.6471 18.8234 34.1226 22.6732C33.7666 22.6357 33.4013 22.617 33.0267 22.617C26.8352 22.617 21.824 27.6376 21.824 33.8384C21.824 34.7938 21.9551 35.7118 22.1799 36.5923C18.0491 41.1539 15.5107 47.1955 15.5107 53.8366C15.5107 64.8426 22.4328 74.1906 32.1462 77.8437C32.1649 77.9748 32.1743 78.1059 32.2024 78.2464C33.0548 82.6676 36.6141 86.2176 41.0353 87.07C43.48 87.5383 45.8217 87.2198 47.8449 86.3206C49.0533 85.7867 49.8494 84.6065 49.8494 83.2858L49.8307 69.3293Z" fill="url(#paint0_linear)"/>
<path fill-rule="evenodd" clip-rule="evenodd" d="M53.072 69.3292V23.3288C53.072 22.1861 53.3998 21.1276 53.9243 20.2003C53.9899 20.0692 54.0648 19.9381 54.1398 19.8069C54.1398 19.7976 54.1491 19.7976 54.1491 19.7882C55.5167 17.4371 58.0551 15.8541 60.9682 15.8541C64.9584 15.8541 68.2555 18.8234 68.7801 22.6732C69.136 22.6357 69.5013 22.617 69.876 22.617C76.0675 22.617 81.0787 27.6376 81.0787 33.8384C81.0787 34.7938 80.9476 35.7118 80.7228 36.5922C84.8535 41.1539 87.3919 47.1955 87.3919 53.8365C87.3919 64.8425 80.4699 74.1906 70.7565 77.8436C70.7377 77.9748 70.7284 78.1059 70.7003 78.2464C69.8479 82.6676 66.2885 86.2176 61.8674 87.07C59.4226 87.5383 57.0809 87.2198 55.0577 86.3206C53.8494 85.7867 53.0532 84.6065 53.0532 83.2858L53.072 69.3292Z" fill="url(#paint1_linear)"/>
<path opacity="0.2" d="M62.0635 49.4154L51.7038 55.5694L41.0537 49.4154L51.4134 43.2614L62.0635 49.4154Z" fill="#1F1D21"/>
<path d="M51.6665 41.5004L51.6291 53.7335L40.979 47.5795L41.0165 35.3465L51.6665 41.5004Z" fill="#50E6FF"/>
<path d="M51.6664 41.5004L62.0635 35.3465L62.0261 47.5795L51.6289 53.7335L51.6664 41.5004Z" fill="#32BEDD"/>
<path d="M41.0161 35.3464L51.3758 29.1925L62.054 35.3464L51.6568 41.5004L41.0161 35.3464Z" fill="#9CEBFF"/>
<path opacity="0.2" d="M72.6762 67.8118L62.3165 73.9658L51.6758 67.8118L62.0355 61.6578L72.6762 67.8118Z" fill="#1F1D21"/>
<path d="M62.2787 59.8875L62.2413 72.1205L51.6006 65.9665L51.6381 53.7335L62.2787 59.8875Z" fill="#1F56A3"/>
<path d="M62.2787 59.8875L72.6758 53.7335L72.6384 65.9759L62.2412 72.1299L62.2787 59.8875Z" fill="#003067"/>
<path d="M51.6382 53.7429L61.9979 47.5889L72.676 53.7429L62.2789 59.8969L51.6382 53.7429Z" fill="#0078D4"/>
<path opacity="0.2" d="M51.638 67.2592L41.0067 61.2738L30.3379 67.8399L40.632 73.7784L51.638 67.2592Z" fill="#1F1D21"/>
<path d="M41.1099 60.0092L41.0631 72.4765L30.2163 66.1913L30.2631 53.7709L41.1099 60.0092Z" fill="#55A2FF"/>
<path d="M41.1097 60.0092L51.638 53.7241V66.1913L41.0723 72.4765L41.1097 60.0092Z" fill="#1B93EB"/>
<path d="M30.2725 53.771L40.9787 47.4859L51.6381 53.7241L41.1099 60.0093L30.2725 53.771Z" fill="#83B9F9"/>
<defs>
<linearGradient id="paint0_linear" x1="32.6741" y1="87.319" x2="32.6741" y2="15.8871" gradientUnits="userSpaceOnUse">
<stop stop-color="#D2EBFF"/>
<stop offset="1" stop-color="#F0FFFD"/>
</linearGradient>
<linearGradient id="paint1_linear" x1="70.2166" y1="87.319" x2="70.2166" y2="15.8871" gradientUnits="userSpaceOnUse">
<stop stop-color="#D2EBFF"/>
<stop offset="1" stop-color="#F0FFFD"/>
</linearGradient>
</defs>
</svg>
