<svg width="103" height="103" viewBox="0 0 103 103" fill="none" xmlns="http://www.w3.org/2000/svg">
<path d="M51.5894 98.1439C77.4417 98.1439 98.3953 77.1904 98.3953 51.338C98.3953 25.4856 77.4417 4.5321 51.5894 4.5321C25.737 4.5321 4.78345 25.4856 4.78345 51.338C4.78345 77.1904 25.737 98.1439 51.5894 98.1439Z" fill="url(#paint0_linear)"/>
<path fill-rule="evenodd" clip-rule="evenodd" d="M51.5894 1.33801C23.976 1.33801 1.58936 23.7247 1.58936 51.338C1.58936 78.9513 23.976 101.338 51.5894 101.338C79.2027 101.338 101.589 78.9513 101.589 51.338C101.589 23.7247 79.2027 1.33801 51.5894 1.33801ZM51.5894 97.0949C26.3177 97.0949 5.83252 76.6096 5.83252 51.338C5.83252 26.0664 26.3177 5.58117 51.5894 5.58117C76.861 5.58117 97.3462 26.0664 97.3462 51.338C97.3462 76.6096 76.861 97.0949 51.5894 97.0949Z" fill="#D9D9D9"/>
<path fill-rule="evenodd" clip-rule="evenodd" d="M5.69179 51.338C5.69179 76.6846 26.2426 97.2354 51.5891 97.2354C76.9357 97.2354 97.4865 76.6846 97.4865 51.338C97.4865 25.9915 76.9357 5.44069 51.5891 5.44069C26.2426 5.44069 5.69179 25.9915 5.69179 51.338ZM51.5891 1.69397C24.1725 1.69397 1.94507 23.9214 1.94507 51.338C1.94507 78.7547 24.1725 100.982 51.5891 100.982C79.0058 100.982 101.233 78.7547 101.233 51.338C101.233 23.9214 79.0058 1.69397 51.5891 1.69397Z" fill="#F2F1F0"/>
<path fill-rule="evenodd" clip-rule="evenodd" d="M8.50185 51.338C8.50185 75.1391 27.7881 94.4253 51.5891 94.4253C75.3902 94.4253 94.6764 75.1391 94.6764 51.338C94.6764 27.537 75.3902 8.25075 51.5891 8.25075C27.7881 8.25075 8.50185 27.537 8.50185 51.338ZM51.5891 4.50403C25.7274 4.50403 4.75513 25.4763 4.75513 51.338C4.75513 77.1998 25.7274 98.1721 51.5891 98.1721C77.4509 98.1721 98.4232 77.1998 98.4232 51.338C98.4232 25.4763 77.4603 4.50403 51.5891 4.50403Z" fill="#0078D4"/>
<path opacity="0.15" d="M75.5215 50.954H55.9075C55.13 50.954 54.5024 50.3264 54.5024 49.549V22.8817C54.5024 21.9544 55.2518 21.1957 56.1885 21.1957H76.0461C76.9078 21.1957 77.601 21.8982 77.601 22.7506V48.8746C77.5916 50.0267 76.6643 50.954 75.5215 50.954Z" fill="#1F1D20"/>
<path d="M73.8729 49.3055H54.2588C53.4813 49.3055 52.8538 48.6779 52.8538 47.9004V21.2331C52.8538 20.3058 53.6031 19.5471 54.5398 19.5471H74.3974C75.2592 19.5471 75.9523 20.2496 75.9523 21.102V47.2354C75.9429 48.3781 75.0156 49.3055 73.8729 49.3055Z" fill="white"/>
<path d="M71.9901 30.6655C71.9901 30.244 71.6435 29.8975 71.222 29.8975H57.3311C56.9096 29.8975 56.563 30.244 56.563 30.6655C56.563 31.087 56.9096 31.4336 57.3311 31.4336H71.2127C71.6435 31.4336 71.9901 31.087 71.9901 30.6655Z" fill="#9D9E9D"/>
<path d="M71.9901 34.8432C71.9901 34.4216 71.6435 34.0751 71.222 34.0751H57.3311C56.9096 34.0751 56.563 34.4216 56.563 34.8432C56.563 35.2647 56.9096 35.6112 57.3311 35.6112H71.2127C71.6435 35.6206 71.9901 35.274 71.9901 34.8432Z" fill="#9D9E9D"/>
<path d="M71.222 25.4108H57.3311C56.9096 25.4108 56.563 25.7573 56.563 26.1788C56.563 26.6004 56.9096 26.9469 57.3311 26.9469H71.2127C71.6342 26.9469 71.9807 26.6004 71.9807 26.1788C71.9901 25.7667 71.6435 25.4108 71.222 25.4108Z" fill="#9D9E9D"/>
<path opacity="0.15" d="M62.8764 56.6303H43.2717C42.4943 56.6303 41.8667 56.0027 41.8667 55.2253V28.558C41.8667 27.6307 42.616 26.8719 43.5527 26.8719H63.4103C64.2721 26.8719 64.9652 27.5745 64.9652 28.4268V54.5509C64.9559 55.703 64.0286 56.6303 62.8764 56.6303Z" fill="#1F1D20"/>
<path d="M61.2278 54.9817H41.623C40.8456 54.9817 40.218 54.3542 40.218 53.5767V26.9094C40.218 25.9821 40.9674 25.2234 41.904 25.2234H61.7617C62.6234 25.2234 63.3166 25.9259 63.3166 26.7783V52.9023C63.3072 54.0544 62.3799 54.9817 61.2278 54.9817Z" fill="white"/>
<path d="M59.345 36.3418C59.345 35.9203 58.9984 35.5737 58.5769 35.5737H44.6953C44.2738 35.5737 43.9272 35.9203 43.9272 36.3418C43.9272 36.7633 44.2738 37.1099 44.6953 37.1099H58.5769C59.0078 37.1193 59.345 36.7633 59.345 36.3418Z" fill="#9D9E9D"/>
<path d="M59.345 40.5194C59.345 40.0979 58.9984 39.7513 58.5769 39.7513H44.6953C44.2738 39.7513 43.9272 40.0979 43.9272 40.5194C43.9272 40.9409 44.2738 41.2875 44.6953 41.2875H58.5769C59.0078 41.2969 59.345 40.9503 59.345 40.5194Z" fill="#9D9E9D"/>
<path d="M58.5769 31.0963H44.6953C44.2738 31.0963 43.9272 31.4429 43.9272 31.8644C43.9272 32.2859 44.2738 32.6325 44.6953 32.6325H58.5769C58.9984 32.6325 59.345 32.2859 59.345 31.8644C59.345 31.4429 59.0078 31.0963 58.5769 31.0963Z" fill="#9D9E9D"/>
<path d="M50.379 87.3623L35.1139 72.1034C34.2288 71.2183 34.8521 69.6974 36.1112 69.6974H64.6406C65.8934 69.6974 66.523 71.2183 65.6379 72.1034L50.379 87.3623Z" fill="white"/>
<path opacity="0.15" d="M45.3043 63.5899H30.0739C28.0881 63.5899 26.4771 61.9788 26.4771 59.993V35.5176C26.4771 34.5903 27.2264 33.8315 28.1631 33.8315H48.0207C48.8824 33.8315 49.5756 34.5247 49.5756 35.3864V59.3186C49.5662 61.6884 47.6554 63.5899 45.3043 63.5899Z" fill="#1F1D20"/>
<path d="M45.8475 61.9413H26.2334C25.4559 61.9413 24.8284 61.3137 24.8284 60.5363V33.869C24.8284 32.9417 25.5777 32.183 26.5144 32.183H46.372C47.2338 32.183 47.9269 32.8855 47.9269 33.7379V59.8619C47.9175 61.014 46.9902 61.9413 45.8475 61.9413Z" fill="white"/>
<path d="M43.9647 43.3014C43.9647 42.8799 43.6181 42.5333 43.1966 42.5333H29.3057C28.8842 42.5333 28.5376 42.8799 28.5376 43.3014C28.5376 43.7229 28.8842 44.0695 29.3057 44.0695H43.1873C43.6182 44.0788 43.9647 43.7323 43.9647 43.3014Z" fill="#9D9E9D"/>
<path d="M43.9647 47.4883C43.9647 47.0668 43.6181 46.7202 43.1966 46.7202H29.3057C28.8842 46.7202 28.5376 47.0668 28.5376 47.4883C28.5376 47.9098 28.8842 48.2564 29.3057 48.2564H43.1873C43.6182 48.2564 43.9647 47.9192 43.9647 47.4883Z" fill="#9D9E9D"/>
<path d="M43.1873 38.0559H29.3057C28.8842 38.0559 28.5376 38.4025 28.5376 38.824C28.5376 39.2455 28.8842 39.5921 29.3057 39.5921H43.1873C43.6088 39.5921 43.9554 39.2455 43.9554 38.824C43.9647 38.4025 43.6182 38.0559 43.1873 38.0559Z" fill="#9D9E9D"/>
<defs>
<linearGradient id="paint0_linear" x1="53.3597" y1="-13.4548" x2="49.3769" y2="132.313" gradientUnits="userSpaceOnUse">
<stop stop-color="#00ABDE"/>
<stop offset="1" stop-color="#007ED8"/>
</linearGradient>
</defs>
</svg>
