<svg width="103" height="103" viewBox="0 0 103 103" fill="none" xmlns="http://www.w3.org/2000/svg">
<path d="M51.7094 98.4008C25.8594 98.4008 4.89941 77.4508 4.89941 51.5908C4.89941 25.7308 25.8594 4.78076 51.7094 4.78076C77.5594 4.78076 98.5194 25.7408 98.5194 51.5908C98.5194 77.4408 77.5594 98.4008 51.7094 98.4008Z" fill="url(#paint0_linear)"/>
<path fill-rule="evenodd" clip-rule="evenodd" d="M97.6093 51.5909C97.6093 76.9409 77.0593 97.4909 51.7093 97.4909C26.3593 97.4909 5.80934 76.9409 5.80934 51.5909C5.80934 26.2409 26.3593 5.69093 51.7093 5.69093C77.0593 5.69093 97.6093 26.2409 97.6093 51.5909ZM51.7093 1.95093C79.1293 1.95093 101.349 24.1709 101.349 51.5909C101.349 79.0109 79.1193 101.231 51.7093 101.231C24.2893 101.231 2.06934 79.0009 2.06934 51.5909C2.06934 24.1709 24.2893 1.95093 51.7093 1.95093Z" fill="#F2F1F0"/>
<path fill-rule="evenodd" clip-rule="evenodd" d="M94.7994 51.5907C94.7994 75.3907 75.5094 94.6807 51.7094 94.6807C27.9094 94.6807 8.61939 75.3907 8.61939 51.5907C8.61939 27.7907 27.9094 8.50074 51.7094 8.50074C75.5094 8.50074 94.7994 27.7907 94.7994 51.5907ZM51.7094 4.76074C77.5694 4.76074 98.5394 25.7307 98.5394 51.5907C98.5394 77.4507 77.5694 98.4207 51.7094 98.4207C25.8494 98.4207 4.87939 77.4507 4.87939 51.5907C4.87939 25.7307 25.8394 4.76074 51.7094 4.76074Z" fill="url(#paint1_linear)"/>
<path opacity="0.15" fill-rule="evenodd" clip-rule="evenodd" d="M50.1694 71.3409V24.3409C50.1694 23.1709 49.8394 22.0909 49.2994 21.1509C49.2394 21.0209 49.1694 20.8809 49.0894 20.7509C49.0894 20.7509 49.0894 20.7509 49.0894 20.7309C47.6894 18.3209 45.1094 16.7109 42.1294 16.7109C38.0494 16.7109 34.6794 19.7509 34.1494 23.6709C33.7494 23.6309 33.3794 23.6109 32.9994 23.6109C26.6694 23.6109 21.5494 28.7509 21.5494 35.0809C21.5494 36.0609 21.6794 36.9809 21.9194 37.8909C17.7094 42.5509 15.1094 48.7209 15.1094 55.5109C15.1094 66.7509 22.1894 76.3109 32.0994 80.0409C32.1194 80.1709 32.1194 80.3109 32.1594 80.4409C33.0294 84.9609 36.6594 88.5809 41.1794 89.4609C43.6794 89.9409 46.0694 89.6109 48.1394 88.6909C49.3694 88.1509 50.1794 86.9409 50.1794 85.5909V71.3409H50.1694Z" fill="#1F1D20"/>
<path opacity="0.15" fill-rule="evenodd" clip-rule="evenodd" d="M53.3994 71.3409V24.3409C53.3994 23.1709 53.7294 22.0909 54.2694 21.1509C54.3294 21.0209 54.3994 20.8809 54.4794 20.7509C54.4794 20.7509 54.4794 20.7509 54.4794 20.7309C55.8794 18.3209 58.4594 16.7109 61.4394 16.7109C65.5194 16.7109 68.8894 19.7509 69.4194 23.6709C69.7894 23.6309 70.1494 23.6109 70.5394 23.6109C76.8694 23.6109 81.9894 28.7509 81.9894 35.0809C81.9894 36.0609 81.8594 36.9809 81.6194 37.8909C85.8294 42.5509 88.4294 48.7209 88.4294 55.5109C88.4294 66.7509 81.3494 76.3109 71.4394 80.0409C71.4194 80.1709 71.4194 80.3109 71.3794 80.4409C70.5094 84.9609 66.8794 88.5809 62.3594 89.4609C59.8594 89.9409 57.4694 89.6109 55.3994 88.6909C54.1694 88.1509 53.3594 86.9409 53.3594 85.5909L53.3994 71.3409Z" fill="#1F1D20"/>
<path fill-rule="evenodd" clip-rule="evenodd" d="M50.1696 69.0909V22.0909C50.1696 20.9209 49.8396 19.8409 49.2996 18.9009C49.2396 18.7709 49.1696 18.6309 49.0896 18.5009C49.0896 18.5009 49.0896 18.5009 49.0896 18.4809C47.6696 16.0709 45.0696 14.4609 42.0896 14.4609C38.0096 14.4609 34.6396 17.5009 34.1096 21.4209C33.7396 21.3809 33.3796 21.3609 32.9896 21.3609C26.6596 21.3609 21.5396 26.5009 21.5396 32.8309C21.5396 33.8109 21.6696 34.7309 21.9096 35.6409C17.6996 40.3209 15.0996 46.4709 15.0996 53.2609C15.0996 64.5009 22.1796 74.0609 32.0896 77.7909C32.1096 77.9209 32.1096 78.0609 32.1496 78.1909C33.0196 82.7109 36.6496 86.3309 41.1696 87.2109C43.6696 87.6909 46.0596 87.3609 48.1296 86.4409C49.3596 85.9009 50.1696 84.6909 50.1696 83.3409V69.0909V69.0909Z" fill="#002D4C"/>
<path fill-rule="evenodd" clip-rule="evenodd" d="M53.3994 69.0909V22.0909C53.3994 20.9209 53.7294 19.8409 54.2694 18.9009C54.3294 18.7709 54.3994 18.6309 54.4794 18.5009C54.4794 18.5009 54.4794 18.5009 54.4794 18.4809C55.8994 16.0709 58.4794 14.4609 61.4594 14.4609C65.5394 14.4609 68.9094 17.5009 69.4394 21.4209C69.8094 21.3809 70.1694 21.3609 70.5594 21.3609C76.8894 21.3609 82.0094 26.5009 82.0094 32.8309C82.0094 33.8109 81.8794 34.7309 81.6394 35.6409C85.8494 40.3009 88.4494 46.4709 88.4494 53.2609C88.4494 64.5009 81.3694 74.0609 71.4594 77.7909C71.4394 77.9209 71.4394 78.0609 71.3994 78.1909C70.5294 82.7109 66.8994 86.3309 62.3794 87.2109C59.8794 87.6909 57.4894 87.3609 55.4194 86.4409C54.1894 85.9009 53.3794 84.6909 53.3794 83.3409L53.3994 69.0909Z" fill="#002D4C"/>
<path opacity="0.5" fill-rule="evenodd" clip-rule="evenodd" d="M56.3303 28.1964C56.3992 28.1534 56.4827 28.1401 56.5616 28.1597L86.9616 35.7197C87.1031 35.7549 87.1988 35.8868 87.1884 36.0322C87.178 36.1777 87.0646 36.2946 86.9195 36.3093L56.5195 39.3993C56.4704 39.4043 56.4207 39.3971 56.375 39.3783L46.095 35.1483C45.991 35.1055 45.9197 35.0081 45.9102 34.896C45.9008 34.7839 45.9549 34.676 46.0503 34.6164L56.3303 28.1964ZM56.5402 28.7727L46.8637 34.8158L56.5337 38.7948L85.146 35.8865L56.5402 28.7727Z" fill="#50E6FF"/>
<path opacity="0.5" d="M47.2095 44.6209L56.4895 39.1509L65.7695 44.4809L56.5395 49.9009L47.2095 44.6209Z" stroke="#50E6FF" stroke-width="0.8474" stroke-miterlimit="10"/>
<path opacity="0.7" fill-rule="evenodd" clip-rule="evenodd" d="M87.1804 35.9388C87.2163 36.084 87.1397 36.2335 87.0008 36.2892L65.9014 44.7509L56.6405 50.1598C56.5479 50.2138 56.4335 50.2144 56.3404 50.1612C56.2473 50.1081 56.1897 50.0093 56.1892 49.9021L56.1392 39.1521C56.1384 38.9978 56.2549 38.8681 56.4084 38.8523L86.8584 35.7123C87.0072 35.6969 87.1446 35.7936 87.1804 35.9388ZM56.7404 39.4212L56.7867 49.3795L65.6179 44.2217C65.6306 44.2142 65.6438 44.2077 65.6575 44.2023L84.7919 36.5286L56.7404 39.4212Z" fill="#50E6FF"/>
<path opacity="0.7" fill-rule="evenodd" clip-rule="evenodd" d="M56.913 27.7292V39.393L46.8552 45.3214L45.7607 34.6506L56.913 27.7292ZM46.6578 35.0912L47.5633 43.9203L56.0656 38.9088V29.2525L46.6578 35.0912Z" fill="#50E6FF"/>
<path d="M87.9791 36.0108C87.9791 35.3408 87.4591 34.8208 86.7891 34.8208C86.1191 34.8208 85.5991 35.3408 85.5991 36.0108C85.5991 36.6808 86.1191 37.2008 86.7891 37.2008C87.4591 37.2008 87.9791 36.6708 87.9791 36.0108Z" fill="#50E6FF"/>
<path d="M57.5792 28.5408C57.5792 27.8708 57.0592 27.3508 56.3892 27.3508C55.7192 27.3508 55.1992 27.8708 55.1992 28.5408C55.1992 29.2108 55.7192 29.7308 56.3892 29.7308C57.0592 29.7808 57.5792 29.2108 57.5792 28.5408Z" fill="#50E6FF"/>
<path d="M66.9591 44.4708C66.9591 43.8008 66.4391 43.2808 65.7691 43.2808C65.0991 43.2808 64.5791 43.8008 64.5791 44.4708C64.5791 45.1408 65.0991 45.6608 65.7691 45.6608C66.4391 45.6608 66.9991 45.1408 66.9591 44.4708Z" fill="#50E6FF"/>
<path opacity="0.15" d="M62.9096 70.8907H37.7596C37.2596 70.8907 36.8496 70.4807 36.8496 69.9807V35.4107C36.8496 34.6307 37.4796 34.0007 38.2596 34.0007H65.5096C66.1596 34.0007 66.6896 34.5307 66.6896 35.1807V67.0807C66.7096 69.1907 65.0096 70.8907 62.9096 70.8907Z" fill="#1F1D20"/>
<path opacity="0.5" fill-rule="evenodd" clip-rule="evenodd" d="M47.3486 55.7691C47.4365 55.7605 47.5248 55.7797 47.6012 55.8238L55.6112 60.4438C55.7424 60.5194 55.8232 60.6594 55.8232 60.8108C55.8232 60.9622 55.7424 61.1022 55.6112 61.1778L47.6012 65.7978C47.5038 65.854 47.3881 65.8692 47.2795 65.84L22.0295 59.05C21.8317 58.9968 21.7003 58.8098 21.7173 58.6057C21.7343 58.4016 21.8948 58.2388 22.0986 58.2191L47.3486 55.7691ZM24.5018 58.8373L47.33 64.976L54.5515 60.8108L47.2954 56.6256L24.5018 58.8373Z" fill="#50E6FF"/>
<path opacity="0.5" fill-rule="evenodd" clip-rule="evenodd" d="M47.1229 65.2242C47.2163 65.1164 47.3728 65.0892 47.4971 65.1593L55.5471 69.6993C55.6405 69.752 55.6986 69.8505 55.6997 69.9577C55.7007 70.0649 55.6444 70.1646 55.5521 70.219L47.5821 74.919C47.5598 74.9321 47.536 74.9423 47.5112 74.9493L36.8112 77.9693C36.6836 78.0053 36.5476 77.9534 36.4765 77.8415C36.4054 77.7296 36.4162 77.5844 36.5029 77.4842L47.1229 65.2242ZM47.4159 65.8024L37.6124 77.1197L47.3108 74.3825L54.7993 69.9664L47.4159 65.8024Z" fill="#50E6FF"/>
<path opacity="0.5" d="M47.3896 65.4208L47.4296 74.6508L55.3996 69.9508V60.8008L47.3896 65.4208Z" stroke="#50E6FF" stroke-width="0.6" stroke-miterlimit="10" stroke-linejoin="round"/>
<path opacity="0.7" fill-rule="evenodd" clip-rule="evenodd" d="M47.5515 55.9685C47.6141 56.0253 47.6498 56.106 47.6498 56.1906V65.4206C47.6498 65.4928 47.6238 65.5625 47.5766 65.6171L36.9566 77.877C36.8976 77.9452 36.811 77.9832 36.7208 77.9805C36.6307 77.9778 36.5466 77.9347 36.4917 77.8631L21.9017 58.8231C21.8354 58.7366 21.8213 58.621 21.8647 58.521C21.9082 58.4211 22.0024 58.3526 22.1108 58.342L47.3208 55.892C47.405 55.8838 47.4888 55.9116 47.5515 55.9685ZM22.7066 58.887L36.7441 77.206L47.0498 65.3088V56.5212L22.7066 58.887Z" fill="#50E6FF"/>
<path d="M48.3696 56.2707C48.3696 55.7007 47.9196 55.2507 47.3496 55.2507C46.7796 55.2507 46.3296 55.7007 46.3296 56.2707C46.3296 56.8407 46.7796 57.2907 47.3496 57.2907C47.8796 57.3307 48.3696 56.8407 48.3696 56.2707Z" fill="#50E6FF"/>
<path d="M23.1996 58.7207C23.1996 58.1507 22.7096 57.7007 22.1396 57.7007C21.5696 57.7007 21.1196 58.1507 21.1196 58.7207C21.1196 59.2907 21.5696 59.7407 22.1396 59.7407C22.7096 59.7407 23.1996 59.2907 23.1996 58.7207Z" fill="#50E6FF"/>
<path d="M48.4096 65.5007C48.4096 64.9307 47.9596 64.4807 47.3896 64.4807C46.8196 64.4807 46.3696 64.9307 46.3696 65.5007C46.3696 66.0707 46.8196 66.5207 47.3896 66.5207C47.9596 66.5207 48.4096 66.0707 48.4096 65.5007Z" fill="#50E6FF"/>
<path d="M48.4096 74.6506C48.4096 74.0806 47.9596 73.6306 47.3896 73.6306C46.8196 73.6306 46.3696 74.0806 46.3696 74.6506C46.3696 75.2206 46.8196 75.6706 47.3896 75.6706C47.9196 75.7206 48.4096 75.2206 48.4096 74.6506Z" fill="#50E6FF"/>
<path d="M37.7895 77.6806C37.7895 77.1106 37.3395 76.6606 36.7695 76.6606C36.1995 76.6606 35.7495 77.1106 35.7495 77.6806C35.7495 78.2506 36.1995 78.7006 36.7695 78.7006C37.3395 78.7406 37.7895 78.2506 37.7895 77.6806Z" fill="#50E6FF"/>
<path d="M56.2998 60.9607C56.2998 60.3907 55.8498 59.9407 55.2798 59.9407C54.7098 59.9407 54.2598 60.3907 54.2598 60.9607C54.2598 61.5307 54.7098 61.9807 55.2798 61.9807C55.8498 61.9907 56.2998 61.5407 56.2998 60.9607Z" fill="#50E6FF"/>
<path d="M63.5195 71.4408H38.3695C37.8695 71.4408 37.4595 71.0308 37.4595 70.5308V35.9608C37.4595 35.1808 38.0895 34.5508 38.8695 34.5508H66.1195C66.7695 34.5508 67.2995 35.0808 67.2995 35.7308V67.6308C67.3195 69.7408 65.6195 71.4408 63.5195 71.4408Z" fill="white"/>
<path d="M62.4093 48.3309C62.4093 47.8009 61.9793 47.3708 61.4493 47.3708H43.0293C42.4993 47.3708 42.0693 47.8009 42.0693 48.3309C42.0693 48.8609 42.4993 49.2909 43.0293 49.2909H61.4493C61.9793 49.2909 62.4093 48.8609 62.4093 48.3309Z" fill="#9D9E9D"/>
<path d="M62.4093 53.5208C62.4093 52.9908 61.9793 52.5608 61.4493 52.5608H43.0293C42.4993 52.5608 42.0693 52.9908 42.0693 53.5208C42.0693 54.0508 42.4993 54.4808 43.0293 54.4808H61.4493C61.9793 54.4808 62.4093 54.0508 62.4093 53.5208Z" fill="#9D9E9D"/>
<path d="M61.4493 41.8308H43.0293C42.4993 41.8308 42.0693 42.2608 42.0693 42.7908C42.0693 43.3208 42.4993 43.7508 43.0293 43.7508H61.4493C61.9793 43.7508 62.4093 43.3208 62.4093 42.7908C62.4093 42.2608 61.9793 41.8308 61.4493 41.8308Z" fill="#9D9E9D"/>
<path d="M65.8293 74.4208C70.8393 74.4208 74.8993 70.3608 74.8993 65.3508C74.8993 60.3408 70.8393 56.2808 65.8293 56.2808C60.8193 56.2808 56.7593 60.3408 56.7593 65.3508C56.7693 70.3708 60.8293 74.4208 65.8293 74.4208Z" fill="#0078D4"/>
<path d="M70.7693 60.7507L63.2993 68.2507L61.0593 66.0007L59.5693 67.5107L63.2993 71.2607L72.2693 62.2607L70.7693 60.7507Z" fill="#FAF9F8"/>
<defs>
<linearGradient id="paint0_linear" x1="49.9395" y1="-13.1983" x2="53.9215" y2="132.572" gradientUnits="userSpaceOnUse">
<stop stop-color="#00ABDE"/>
<stop offset="1" stop-color="#007ED8"/>
</linearGradient>
<linearGradient id="paint1_linear" x1="3.14259" y1="-20.0343" x2="98.6706" y2="120.848" gradientUnits="userSpaceOnUse">
<stop stop-color="#007ED8"/>
<stop offset="0.7065" stop-color="#002D4C"/>
</linearGradient>
</defs>
</svg>
