<svg width="103" height="103" viewBox="0 0 103 103" fill="none" xmlns="http://www.w3.org/2000/svg">
<path d="M51.1769 98.1957C25.3269 98.1957 4.36694 77.2457 4.36694 51.3857C4.36694 25.5257 25.3269 4.57568 51.1769 4.57568C77.0269 4.57568 97.9869 25.5357 97.9869 51.3857C97.9869 77.2357 77.0269 98.1957 51.1769 98.1957Z" fill="#F9E488"/>
<path fill-rule="evenodd" clip-rule="evenodd" d="M97.0769 51.3856C97.0769 76.7356 76.5269 97.2856 51.1769 97.2856C25.8269 97.2856 5.27687 76.7356 5.27687 51.3856C5.27687 26.0356 25.8269 5.48561 51.1769 5.48561C76.5269 5.48561 97.0769 26.0356 97.0769 51.3856ZM51.1769 1.74561C78.5969 1.74561 100.817 23.9656 100.817 51.3856C100.817 78.8056 78.5869 101.026 51.1769 101.026C23.7569 101.026 1.53687 78.7956 1.53687 51.3856C1.53687 23.9656 23.7569 1.74561 51.1769 1.74561Z" fill="#F2F1F0"/>
<path fill-rule="evenodd" clip-rule="evenodd" d="M94.2669 51.3857C94.2669 75.1857 74.9769 94.4757 51.1769 94.4757C27.3769 94.4757 8.08692 75.1857 8.08692 51.3857C8.08692 27.5857 27.3769 8.29566 51.1769 8.29566C74.9769 8.29566 94.2669 27.5857 94.2669 51.3857ZM51.1769 4.55566C77.0369 4.55566 98.0069 25.5257 98.0069 51.3857C98.0069 77.2457 77.0369 98.2157 51.1769 98.2157C25.3169 98.2157 4.34692 77.2457 4.34692 51.3857C4.34692 25.5257 25.3069 4.55566 51.1769 4.55566Z" fill="#F3C900"/>
<path d="M69.8578 25.3843L56.5921 48.6561L42.5684 34.5717L28.105 53.0527L31.501 55.6755L42.9777 41.106L57.5321 55.7513L73.6177 27.5523L69.8578 25.3843Z" fill="#9B844B"/>
<path d="M42.3863 43.2284C45.3426 43.2284 47.738 40.833 47.738 37.8767C47.738 34.9203 45.3426 32.5249 42.3863 32.5249C39.4299 32.5249 37.0345 34.9203 37.0345 37.8767C37.0193 40.833 39.4299 43.2284 42.3863 43.2284Z" fill="url(#paint0_linear)"/>
<path d="M57.562 56.6151C60.5183 56.6151 62.9137 54.2197 62.9137 51.2634C62.9137 48.307 60.5183 45.9116 57.562 45.9116C54.6056 45.9116 52.2102 48.307 52.2102 51.2634C52.2102 54.2197 54.5904 56.6151 57.562 56.6151Z" fill="url(#paint1_linear)"/>
<path d="M70.934 32.5248C73.8904 32.5248 76.2858 30.1294 76.2858 27.173C76.2858 24.2167 73.8904 21.8213 70.934 21.8213C67.9777 21.8213 65.5823 24.2167 65.5823 27.173C65.5823 30.1294 67.9777 32.5248 70.934 32.5248Z" fill="url(#paint2_linear)"/>
<path d="M29.8938 59.2982C32.8501 59.2982 35.2455 56.9028 35.2455 53.9465C35.2455 50.9901 32.8501 48.5947 29.8938 48.5947C26.9374 48.5947 24.542 50.9901 24.542 53.9465C24.542 56.8877 26.9374 59.2982 29.8938 59.2982Z" fill="url(#paint3_linear)"/>
<path opacity="0.6171" d="M39.081 53.0527H47.4649C47.6014 53.0527 47.7378 53.174 47.7378 53.3256V77.78C47.7378 77.9164 47.6165 78.0529 47.4649 78.0529H39.081C38.9446 78.0529 38.8081 77.9316 38.8081 77.78V53.3105C38.8233 53.1589 38.9294 53.0527 39.081 53.0527Z" fill="#6D572C"/>
<path opacity="0.8107" d="M53.3627 61.9668H61.7467C61.8831 61.9668 62.0195 62.0881 62.0195 62.2397V77.7643C62.0195 77.9008 61.8983 78.0372 61.7467 78.0372H53.3627C53.2263 78.0372 53.0898 77.9159 53.0898 77.7643V62.2397C53.0898 62.0881 53.2111 61.9668 53.3627 61.9668Z" fill="#6D572C"/>
<path d="M66.7495 44.123H75.1334C75.2698 44.123 75.4063 44.2443 75.4063 44.3959V77.7648C75.4063 77.9013 75.285 78.0377 75.1334 78.0377H66.7495C66.613 78.0377 66.4766 77.9164 66.4766 77.7648V44.3959C66.4766 44.2443 66.5978 44.123 66.7495 44.123Z" fill="#6D572C"/>
<path opacity="0.3942" d="M25.6945 61.9668H34.0784C34.2149 61.9668 34.3513 62.0881 34.3513 62.2397V77.7643C34.3513 77.9008 34.23 78.0372 34.0784 78.0372H25.6945C25.5581 78.0372 25.4216 77.9159 25.4216 77.7643V62.2397C25.4368 62.0881 25.5581 61.9668 25.6945 61.9668Z" fill="#6D572C"/>
<defs>
<linearGradient id="paint0_linear" x1="42.3838" y1="32.5951" x2="42.3838" y2="43.2315" gradientUnits="userSpaceOnUse">
<stop stop-color="#A78A04"/>
<stop offset="1" stop-color="#6D572C"/>
</linearGradient>
<linearGradient id="paint1_linear" x1="57.5548" y1="45.9798" x2="57.5548" y2="56.6153" gradientUnits="userSpaceOnUse">
<stop stop-color="#A78A04"/>
<stop offset="1" stop-color="#6D572C"/>
</linearGradient>
<linearGradient id="paint2_linear" x1="70.934" y1="21.8885" x2="70.934" y2="32.524" gradientUnits="userSpaceOnUse">
<stop stop-color="#A78A04"/>
<stop offset="1" stop-color="#6D572C"/>
</linearGradient>
<linearGradient id="paint3_linear" x1="29.8962" y1="48.6563" x2="29.8962" y2="59.2917" gradientUnits="userSpaceOnUse">
<stop stop-color="#A78A04"/>
<stop offset="1" stop-color="#6D572C"/>
</linearGradient>
</defs>
</svg>
