<svg width="103" height="103" viewBox="0 0 103 103" fill="none" xmlns="http://www.w3.org/2000/svg">
<path d="M52.2871 98.3011C26.4371 98.3011 5.47705 77.3512 5.47705 51.4912C5.47705 25.6312 26.4371 4.68115 52.2871 4.68115C78.1371 4.68115 99.0971 25.6412 99.0971 51.4912C99.0971 77.3412 78.1371 98.3011 52.2871 98.3011Z" fill="#7D7D7D"/>
<path fill-rule="evenodd" clip-rule="evenodd" d="M97.0568 51.4911C97.0568 76.8411 76.5068 97.3911 51.1568 97.3911C25.8068 97.3911 5.25685 76.8411 5.25685 51.4911C5.25685 26.1411 25.8068 5.59107 51.1568 5.59107C76.5068 5.59107 97.0568 26.1411 97.0568 51.4911ZM51.1568 1.85107C78.5768 1.85107 100.797 24.0711 100.797 51.4911C100.797 78.9111 78.5668 101.131 51.1568 101.131C23.7368 101.131 1.51685 78.9011 1.51685 51.4911C1.51685 24.0711 23.7368 1.85107 51.1568 1.85107Z" fill="#F2F1F0"/>
<path fill-rule="evenodd" clip-rule="evenodd" d="M94.2469 51.4911C94.2469 75.2911 74.9569 94.5811 51.1569 94.5811C27.3569 94.5811 8.0669 75.2911 8.0669 51.4911C8.0669 27.6911 27.3569 8.40113 51.1569 8.40113C74.9569 8.40113 94.2469 27.6911 94.2469 51.4911ZM51.1569 4.66113C77.0169 4.66113 97.9869 25.6311 97.9869 51.4911C97.9869 77.3511 77.0169 98.3211 51.1569 98.3211C25.2969 98.3211 4.3269 77.3511 4.3269 51.4911C4.3269 25.6311 25.2869 4.66113 51.1569 4.66113Z" fill="#F2C811"/>
<path fill-rule="evenodd" clip-rule="evenodd" d="M51.0669 45.751C48.8569 45.751 47.0669 43.691 47.0669 41.151V27.351C47.0669 24.811 48.8569 22.751 51.0669 22.751C53.2769 22.751 55.0669 24.811 55.0669 27.351V41.151C55.0669 43.691 53.2769 45.751 51.0669 45.751Z" fill="#182A37"/>
<path fill-rule="evenodd" clip-rule="evenodd" d="M62.0669 25.251C62.0669 31.601 56.9069 36.751 50.5669 36.751C44.2069 36.751 39.0669 31.601 39.0669 25.251C39.0669 18.901 44.2069 13.751 50.5669 13.751C56.9069 13.751 62.0669 18.901 62.0669 25.251Z" fill="#30404D"/>
<path fill-rule="evenodd" clip-rule="evenodd" d="M56.5969 15.751C57.6469 17.471 58.2869 19.471 58.2869 21.631C58.2869 27.891 53.2069 32.971 46.9469 32.971C44.7869 32.971 42.7869 32.331 41.0669 31.281C43.0569 34.551 46.6169 36.751 50.7269 36.751C56.9869 36.751 62.0669 31.671 62.0669 25.411C62.0669 21.301 59.8669 17.741 56.5969 15.751Z" fill="#182A37"/>
<path fill-rule="evenodd" clip-rule="evenodd" d="M72.0669 53.751C68.9169 45.021 60.4869 38.751 50.5669 38.751C40.6469 38.751 32.2169 45.021 29.0669 53.751H72.0669Z" fill="#30404D"/>
<path fill-rule="evenodd" clip-rule="evenodd" d="M52.0969 38.751L43.0669 53.751H72.0669C69.0869 45.401 61.3369 39.341 52.0969 38.751Z" fill="#182A37"/>
<path d="M23.0669 44.2809V42.0009C23.0669 41.4509 23.5169 41.0009 24.0669 41.0009C24.1369 41.0009 24.2169 41.0109 24.2869 41.0209L50.0969 46.7609L76.9269 41.0109C77.4669 40.8909 77.9969 41.2409 78.1169 41.7809C78.1269 41.8509 78.1369 41.9209 78.1369 41.9909V44.2809L50.0869 50.6409L23.0669 44.2809Z" fill="url(#paint0_linear)"/>
<path d="M23.2869 42.0209L50.1469 48.0109L77.8769 42.0109C78.4169 41.8909 78.9469 42.2409 79.0669 42.7809C79.0869 42.8509 79.0869 42.9209 79.0869 42.9909V75.9109C79.0869 76.3809 78.7569 76.7909 78.2869 76.8909L50.4769 82.6809L22.8569 76.8909C22.3969 76.7909 22.0669 76.3809 22.0669 75.9109V43.0009C22.0669 42.4509 22.5169 42.0009 23.0669 42.0009C23.1369 42.0009 23.2169 42.0109 23.2869 42.0209Z" fill="black"/>
<path d="M23.2869 42.0209L50.1469 48.0109L77.8769 42.0109C78.4169 41.8909 78.9469 42.2409 79.0669 42.7809C79.0869 42.8509 79.0869 42.9209 79.0869 42.9909V75.9109C79.0869 76.3809 78.7569 76.7909 78.2869 76.8909L50.4769 82.6809L22.8569 76.8909C22.3969 76.7909 22.0669 76.3809 22.0669 75.9109V43.0009C22.0669 42.4509 22.5169 42.0009 23.0669 42.0009C23.1369 42.0009 23.2169 42.0109 23.2869 42.0209Z" fill="#FFF880"/>
<path d="M51.647 49.671L78.997 43.751V76.021C78.997 76.491 78.667 76.901 78.197 77.001L50.387 82.791L50.067 51.641C50.057 50.691 50.717 49.871 51.647 49.671Z" fill="#FFFBBF"/>
<path d="M22.0669 75.941V74.341L47.6169 80.261C48.6969 80.511 49.7669 79.841 50.0169 78.761C50.0469 78.611 50.0669 78.461 50.0669 78.311V54.751L56.0969 66.651V81.571L50.0669 82.761L22.8569 76.921C22.3969 76.821 22.0669 76.411 22.0669 75.941Z" fill="#FFFBBF"/>
<path d="M57.0568 70.2611C56.8268 70.2611 56.6168 70.1011 56.5668 69.8611C56.5168 69.5911 56.6868 69.3311 56.9568 69.2711L71.9368 66.2611C72.2068 66.2011 72.4668 66.3811 72.5268 66.6511C72.5768 66.9211 72.4068 67.1811 72.1368 67.2411L57.1568 70.2511C57.1268 70.2611 57.0968 70.2611 57.0568 70.2611Z" fill="url(#paint1_linear)"/>
<path d="M57.0568 73.2611C56.8268 73.2611 56.6168 73.1012 56.5668 72.8612C56.5168 72.5912 56.6868 72.3312 56.9568 72.2712L71.9368 69.2611C72.2068 69.2111 72.4668 69.3812 72.5268 69.6512C72.5768 69.9212 72.4068 70.1812 72.1368 70.2412L57.1568 73.2512C57.1268 73.2612 57.0968 73.2611 57.0568 73.2611Z" fill="url(#paint2_linear)"/>
<path d="M57.0568 76.2611C56.8268 76.2611 56.6168 76.1011 56.5668 75.8611C56.5168 75.5911 56.6868 75.3311 56.9568 75.2711L71.9368 72.2611C72.2068 72.2011 72.4668 72.3811 72.5268 72.6511C72.5768 72.9211 72.4068 73.1811 72.1368 73.2411L57.1568 76.2511C57.1268 76.2611 57.0968 76.2611 57.0568 76.2611Z" fill="url(#paint3_linear)"/>
<path d="M69.757 64.4914L64.717 65.4614V50.4414C64.717 49.8814 65.117 49.4014 65.667 49.2914L69.807 48.4914C70.277 48.4014 70.707 48.7614 70.707 49.2314V63.3314C70.707 63.9014 70.307 64.3814 69.757 64.4914Z" fill="url(#paint4_linear)"/>
<path d="M61.3469 55.2314V66.1714L66.3969 65.1414C66.9469 65.0314 67.3369 64.5514 67.3369 63.9914V53.9814C67.3369 53.5014 66.8969 53.1414 66.4269 53.2414L62.2769 54.0814C61.7369 54.1914 61.3469 54.6714 61.3469 55.2314Z" fill="url(#paint5_linear)"/>
<path d="M58.127 59.8409V65.9409C58.127 66.4209 58.567 66.781 59.047 66.681L63.207 65.7809C63.747 65.6609 64.127 65.1909 64.127 64.6409V58.5409C64.127 58.0609 63.687 57.7009 63.207 57.8009L59.047 58.7009C58.507 58.8209 58.127 59.2909 58.127 59.8409Z" fill="url(#paint6_linear)"/>
<defs>
<linearGradient id="paint0_linear" x1="23.0622" y1="45.8121" x2="78.1322" y2="45.8121" gradientUnits="userSpaceOnUse">
<stop offset="0.00753769" stop-color="#F2CC40"/>
<stop offset="1" stop-color="#E7B116"/>
</linearGradient>
<linearGradient id="paint1_linear" x1="63.1898" y1="65.6519" x2="70.2764" y2="79.1874" gradientUnits="userSpaceOnUse">
<stop offset="0.00753769" stop-color="#E0A310"/>
<stop offset="1" stop-color="#CA810E"/>
</linearGradient>
<linearGradient id="paint2_linear" x1="61.9569" y1="66.2974" x2="69.0435" y2="79.8329" gradientUnits="userSpaceOnUse">
<stop offset="0.00753769" stop-color="#E0A310"/>
<stop offset="1" stop-color="#CA810E"/>
</linearGradient>
<linearGradient id="paint3_linear" x1="60.7242" y1="66.9428" x2="67.8108" y2="80.4782" gradientUnits="userSpaceOnUse">
<stop offset="0.00753769" stop-color="#E0A310"/>
<stop offset="1" stop-color="#CA810E"/>
</linearGradient>
<linearGradient id="paint4_linear" x1="67.6417" y1="50.071" x2="67.7763" y2="64.0764" gradientUnits="userSpaceOnUse">
<stop offset="0.00753769" stop-color="#E0A310"/>
<stop offset="1" stop-color="#CA810E"/>
</linearGradient>
<linearGradient id="paint5_linear" x1="64.1476" y1="53.1198" x2="64.6097" y2="70.0651" gradientUnits="userSpaceOnUse">
<stop offset="0.00753769" stop-color="#F2CC40"/>
<stop offset="1" stop-color="#E7B116"/>
</linearGradient>
<linearGradient id="paint6_linear" x1="60.9181" y1="57.4289" x2="61.437" y2="69.7082" gradientUnits="userSpaceOnUse">
<stop stop-color="#F8E17B"/>
<stop offset="0.5302" stop-color="#F6D856"/>
<stop offset="1" stop-color="#F6D856"/>
</linearGradient>
</defs>
</svg>
