<?xml version="1.0" encoding="UTF-8"?>
<svg width="100px" height="100px" viewBox="0 0 100 100" version="1.1" xmlns="http://www.w3.org/2000/svg" xmlns:xlink="http://www.w3.org/1999/xlink">
    <!-- Generator: Sketch 52.5 (67469) - http://www.bohemiancoding.com/sketch -->
    <title>Work with Dynamics for Marketing/analyzing-results-in-dynamics-365-for-marketing</title>
    <desc>Created with Sketch.</desc>
    <defs>
        <rect id="path-1" x="0" y="0" width="96" height="96" rx="48"></rect>
        <filter x="-3.9%" y="-4.0%" width="108.0%" height="109.0%" filterUnits="objectBoundingBox" id="filter-3">
            <feOffset dx="0" dy="1" in="SourceAlpha" result="shadowOffsetOuter1"></feOffset>
            <feColorMatrix values="0 0 0 0 0   0 0 0 0 0   0 0 0 0 0  0 0 0 0.102043705 0" type="matrix" in="shadowOffsetOuter1" result="shadowMatrixOuter1"></feColorMatrix>
            <feMerge>
                <feMergeNode in="shadowMatrixOuter1"></feMergeNode>
                <feMergeNode in="SourceGraphic"></feMergeNode>
            </feMerge>
        </filter>
        <filter x="-9.7%" y="-10.2%" width="120.2%" height="122.0%" filterUnits="objectBoundingBox" id="filter-4">
            <feOffset dx="0" dy="1" in="SourceAlpha" result="shadowOffsetOuter1"></feOffset>
            <feColorMatrix values="0 0 0 0 0   0 0 0 0 0   0 0 0 0 0  0 0 0 0.0972599638 0" type="matrix" in="shadowOffsetOuter1" result="shadowMatrixOuter1"></feColorMatrix>
            <feMerge>
                <feMergeNode in="shadowMatrixOuter1"></feMergeNode>
                <feMergeNode in="SourceGraphic"></feMergeNode>
            </feMerge>
        </filter>
        <filter x="-10.3%" y="-10.5%" width="120.5%" height="121.1%" filterUnits="objectBoundingBox" id="filter-5">
            <feOffset dx="0" dy="2" in="SourceAlpha" result="shadowOffsetOuter1"></feOffset>
            <feColorMatrix values="0 0 0 0 0   0 0 0 0 0   0 0 0 0 0  0 0 0 0.0951086957 0" type="matrix" in="shadowOffsetOuter1" result="shadowMatrixOuter1"></feColorMatrix>
            <feMerge>
                <feMergeNode in="shadowMatrixOuter1"></feMergeNode>
                <feMergeNode in="SourceGraphic"></feMergeNode>
            </feMerge>
        </filter>
        <path d="M22.1282638,11.4536805 C22.1282638,17.3490156 17.3484226,22.1282638 11.4536805,22.1282638 C5.55893839,22.1282638 0.779097212,17.3490156 0.779097212,11.4536805 C0.779097212,5.55893839 5.55893839,0.779097212 11.4536805,0.779097212 C17.3484226,0.779097212 22.1282638,5.55893839 22.1282638,11.4536805" id="path-6"></path>
    </defs>
    <g id="Badges" stroke="none" stroke-width="1" fill="none" fill-rule="evenodd">
        <g id="Work-with-Dynamics-for-Marketing" transform="translate(-50.000000, -1060.000000)">
            <g id="Work-with-Dynamics-for-Marketing/analyzing-results-in-dynamics-365-for-marketing" transform="translate(50.000000, 1060.000000)">
                <g id="Mask" transform="translate(2.000000, 2.000000)">
                    <mask id="mask-2" fill="white">
                        <use xlink:href="#path-1"></use>
                    </mask>
                    <use id="BG" fill="#01B6C3" xlink:href="#path-1"></use>
                    <g id="Group-4" mask="url(#mask-2)">
                        <g transform="translate(18.519949, 17.800000)">
                            <g id="Group-23" filter="url(#filter-3)" transform="translate(-0.000000, -0.000000)">
                                <path d="M42.0025201,58.943325 L34.440051,51.43665 L34.440051,48.225 C34.440051,47.1061875 33.5261082,46.2 32.4,46.2 C31.2738918,46.2 30.359949,47.1061875 30.359949,48.225 L30.359949,51.43665 L22.7974799,58.943325 C22.00084,59.7340875 22.00084,61.0159125 22.7974799,61.806675 C23.1963099,62.2025625 23.7175429,62.4 24.239796,62.4 C24.7620491,62.4 25.2832821,62.2025625 25.6821121,61.806675 L30.359949,57.16335 L30.359949,59.3625 C30.359949,60.4803 31.2738918,61.3875 32.4,61.3875 C33.5261082,61.3875 34.440051,60.4803 34.440051,59.3625 L34.440051,57.16335 L39.1178879,61.806675 C39.5167179,62.2025625 40.0379509,62.4 40.560204,62.4 C41.0824571,62.4 41.6036901,62.2025625 42.0025201,61.806675 C42.79916,61.0159125 42.79916,59.7340875 42.0025201,58.943325" id="Fill-1016" fill="#546670"></path>
                                <path d="M62.4,10.2 L62.4,46.5789474 C62.4,47.6905263 61.491,48.6 60.38,48.6 L3.82,48.6 C2.709,48.6 1.8,47.6905263 1.8,46.5789474 L1.8,10.2 L62.4,10.2" id="Fill-1017" fill="#E1E4E1"></path>
                                <path d="M32.7,6 C31.5408,6 30.6,5.104 30.6,4 L30.6,2 C30.6,0.895 31.5408,0 32.7,0 C33.8592,0 34.8,0.895 34.8,2 L34.8,4 C34.8,5.104 33.8592,6 32.7,6" id="Fill-1018" fill="#546670"></path>
                                <path d="M64.8,9.2 C64.8,9.75 64.344375,10.2 63.7875,10.2 L1.0125,10.2 C0.455625,10.2 0,9.75 0,9.2 L0,5.2 C0,4.65 0.455625,4.2 1.0125,4.2 L63.7875,4.2 C64.344375,4.2 64.8,4.65 64.8,5.2 L64.8,9.2" id="Fill-1019" fill="#30404D"></path>
                                <polygon id="Fill-1020" fill="#C5CCCD" points="1.8 12 62.4 12 62.4 10.2 1.8 10.2"></polygon>
                                <path d="M24.3550879,60.24066 C23.865229,60.72924 23.0263456,60.60378 22.7171221,59.98362 C22.6120066,59.7735 22.5293429,59.56134 22.4711721,59.35122 C22.0251964,60.1305 22.1272504,61.13724 22.7926421,61.80228 C23.191673,62.2011 23.7131686,62.4 24.2356848,62.4 C24.7582009,62.4 25.2796966,62.2011 25.6787275,61.80228 L32.4,55.26 L32.4,52.2 L24.3550879,60.24066" id="Fill-1022" fill="#30404D"></path>
                                <path d="M40.4449121,60.24066 C40.9337505,60.72924 41.7736544,60.60378 42.0828779,59.98362 C42.1879934,59.7735 42.2706571,59.56134 42.3288279,59.35122 C42.7748036,60.1305 42.6727496,61.13724 42.0073579,61.80228 C41.608327,62.2011 41.0868314,62.4 40.5643152,62.4 C40.0417991,62.4 39.5203034,62.2011 39.1212725,61.80228 L32.4,55.26 L32.4,52.2 L40.4449121,60.24066" id="Fill-1023" fill="#30404D"></path>
                                <path d="M32.6582356,54.6 L32.6582356,59.5761464 C32.6582356,60.2909917 31.9193269,60.7785265 31.2157573,60.5450447 C30.9951555,60.4720173 30.7884753,60.3835616 30.6,60.2817347 C30.8645079,61.211548 31.7801122,61.883194 32.8531362,61.7916527 C33.9797042,61.6959971 34.8,60.7075563 34.8,59.6214028 L34.8,54.6 L32.6582356,54.6" id="Fill-1024" fill="#30404D"></path>
                                <path d="M30.6,48.6 L30.6,49.5457755 L31.5597,49.5457755 C32.1897,49.5457755 32.7,50.0054224 32.7,50.5728878 C32.7,51.1403531 33.2103,51.6 33.8403,51.6 L34.8,51.6 L34.8,48.6 L30.6,48.6" id="Fill-1025" fill="#30404D"></path>
                                <path d="M1.0125,10.2 L63.7875,10.2 C64.344375,10.2 64.8,9.75 64.8,9.2 L64.8,5.2 C64.8,4.65 64.344375,4.2 63.7875,4.2 L32.4,4.2 L32.4,6.2 C32.4,6.752 31.9464,7.2 31.3875,7.2 L0,7.2 L0,9.2 C0,9.75 0.455625,10.2 1.0125,10.2" id="Fill-1026" fill="#182A37"></path>
                                <path d="M32.4,2.17373616 L32.4,4.2 L34.2,4.2 L34.2,2.26746414 C34.2,2.15634333 34.191,2.04812132 34.1748,1.94279812 C33.9975,0.817095985 32.4,1.03257373 32.4,2.17373616" id="Fill-1027" fill="#30404D"></path>
                            </g>
                            <g id="Group-18" filter="url(#filter-4)" transform="translate(19.200000, 17.400000)">
                                <path d="M24.9428571,0.6 L20.6571429,0.6 C20.1835714,0.6 19.8,0.935625 19.8,1.35 L19.8,23.85 C19.8,24.264 20.1835714,24.6 20.6571429,24.6 L24.9428571,24.6 C25.416,24.6 25.8,24.264 25.8,23.85 L25.8,1.35 C25.8,0.935625 25.416,0.6 24.9428571,0.6" id="Fill-49" fill="#30404D"></path>
                                <path d="M18.3428571,10.2 L14.0571429,10.2 C13.5835714,10.2 13.2,10.5391579 13.2,10.9578947 L13.2,23.8421053 C13.2,24.2604632 13.5835714,24.6 14.0571429,24.6 L18.3428571,24.6 C18.816,24.6 19.2,24.2604632 19.2,23.8421053 L19.2,10.9578947 C19.2,10.5391579 18.816,10.2 18.3428571,10.2" id="Fill-50" fill="#30404D"></path>
                                <path d="M11.7428571,13.8 L7.45714286,13.8 C6.98357143,13.8 6.6,14.1452143 6.6,14.5714286 L6.6,23.8285714 C6.6,24.2544 6.98357143,24.6 7.45714286,24.6 L11.7428571,24.6 C12.216,24.6 12.6,24.2544 12.6,23.8285714 L12.6,14.5714286 C12.6,14.1452143 12.216,13.8 11.7428571,13.8" id="Fill-51" fill="#30404D"></path>
                                <path d="M4.62857143,16.2 L0.771428571,16.2 C0.345214286,16.2 0,16.5417273 0,16.9636364 L0,23.8363636 C0,24.2578909 0.345214286,24.6 0.771428571,24.6 L4.62857143,24.6 C5.0544,24.6 5.4,24.2578909 5.4,23.8363636 L5.4,16.9636364 C5.4,16.5417273 5.0544,16.2 4.62857143,16.2" id="Fill-52" fill="#30404D"></path>
                                <path d="M17.187181,2.39303429 C17.1860356,2.39077144 17.1841265,2.39001716 17.1822173,2.38813146 L15.2471353,0.241823941 C15.2452262,0.239561097 15.2436989,0.236921112 15.2421716,0.23541255 C14.99895,-0.0342430246 14.6270538,-0.0715799503 14.3464134,0.120007507 C14.2990673,0.152441604 14.2536303,0.18977853 14.2123933,0.23541255 L12.2677657,2.39303429 C11.983689,2.70794674 11.983689,3.21897234 12.2681475,3.53463907 C12.5526061,3.85106009 13.0130854,3.84992867 13.2971622,3.53463907 L13.9584806,2.80260905 C13.8454609,7.88118522 8.47091179,11.6914373 1.36364721,11.6914373 C0.941732126,11.6914373 0.6,12.0289782 0.6,12.4457187 C0.6,12.862082 0.941732126,13.2 1.36364721,13.2 C9.34986973,13.2 15.3853555,8.73578597 15.4861569,2.79091769 L16.157021,3.53501622 L16.1577846,3.53463907 C16.4418614,3.84992867 16.9023406,3.85068295 17.1875629,3.53501622 C17.470876,3.21972662 17.470876,2.70794674 17.187181,2.39303429" id="Fill-53" fill="#7CB65A"></path>
                                <path d="M24.9428571,0.6 L22.8,0.6 L22.8,24.6 L24.9428571,24.6 C25.416,24.6 25.8,24.264 25.8,23.85 L25.8,1.35 C25.8,0.936 25.416,0.6 24.9428571,0.6" id="Fill-54" fill="#5B656E"></path>
                                <path d="M18.3428571,10.2 L16.2,10.2 L16.2,24.6 L18.3428571,24.6 C18.816,24.6 19.2,24.2604632 19.2,23.8421053 L19.2,10.9578947 C19.2,10.5395368 18.816,10.2 18.3428571,10.2" id="Fill-55" fill="#5B656E"></path>
                                <path d="M11.7428571,13.8 L9.6,13.8 L9.6,24.6 L11.7428571,24.6 C12.216,24.6 12.6,24.2544 12.6,23.8285714 L12.6,14.5714286 C12.6,14.1456 12.216,13.8 11.7428571,13.8" id="Fill-56" fill="#5B656E"></path>
                                <path d="M5.14285714,16.2 L3,16.2 L3,24.6 L5.14285714,24.6 C5.616,24.6 6,24.2578909 6,23.8363636 L6,16.9636364 C6,16.5421091 5.616,16.2 5.14285714,16.2" id="Fill-57" fill="#5B656E"></path>
                            </g>
                        </g>
                    </g>
                    <g id="Mag" filter="url(#filter-5)" mask="url(#mask-2)">
                        <g transform="translate(6.680051, 36.339316)">
                            <g id="Group" stroke-width="1" fill="none" transform="translate(2.186065, 1.593032)">
                                <mask id="mask-7" fill="white">
                                    <use xlink:href="#path-6"></use>
                                </mask>
                                <use id="Fill-1290" fill="#FFFFFF" xlink:href="#path-6"></use>
                            </g>
                            <path d="M24.3143286,13.0467129 C24.3143286,18.942048 19.5344874,23.7212962 13.6397453,23.7212962 C7.7450032,23.7212962 2.96516202,18.942048 2.96516202,13.0467129 C2.96516202,7.15197079 7.7450032,2.37212962 13.6397453,2.37212962 C19.5344874,2.37212962 24.3143286,7.15197079 24.3143286,13.0467129" id="Fill-1290" fill="#C7E7F1" opacity="0.652232143"></path>
                            <path d="M5.33729164,13.6397453 C5.01112381,13.6397453 4.74425923,13.3746598 4.74425923,13.0467129 C4.74425923,8.14114884 8.73536731,4.15122683 13.6397453,4.15122683 C13.9659131,4.15122683 14.2327777,4.41631231 14.2327777,4.74425923 C14.2327777,5.07220615 13.9659131,5.33729164 13.6397453,5.33729164 C9.38770295,5.33729164 5.93032404,8.79585662 5.93032404,13.0467129 C5.93032404,13.3746598 5.66345946,13.6397453 5.33729164,13.6397453" id="Fill-1291" fill="#FFFFFE" opacity="0.652232143"></path>
                            <path d="M2.96516202,13.0467129 C2.96516202,7.16086628 7.75093352,2.37212962 13.6397453,2.37212962 C19.5226267,2.37212962 24.3143286,7.16086628 24.3143286,13.0467129 C24.3143286,18.9325595 19.5226267,23.7212962 13.6397453,23.7212962 C7.75093352,23.7212962 2.96516202,18.9325595 2.96516202,13.0467129 Z M28.7086987,26.4409428 L23.6619929,21.3900858 C25.547836,19.1270741 26.6864582,16.2176572 26.6864582,13.0467129 C26.6864582,5.85263679 20.8332284,0 13.6397453,0 C6.44626223,0 0.593032404,5.85263679 0.593032404,13.0467129 C0.593032404,20.240789 6.44626223,26.0934258 13.6397453,26.0934258 C16.8124687,26.0934258 19.7183274,24.9553966 21.9837112,23.0671814 L27.0363473,28.1180384 L28.7086987,26.4409428 Z" id="Fill-1292" fill="#30404D"></path>
                            <path d="M19.9021675,4.41394018 C21.1771871,6.17406036 21.9421989,8.33269831 21.9421989,10.6745833 C21.9421989,16.5699184 17.1623578,21.3491665 11.2676157,21.3491665 C8.92513768,21.3491665 6.76649973,20.5859338 5.00519349,19.307356 C6.94440945,21.9777809 10.0874812,23.7212962 13.6397453,23.7212962 C19.5344874,23.7212962 24.3143286,18.942048 24.3143286,13.0467129 C24.3143286,9.49326272 22.5708133,6.35434221 19.9021675,4.41394018" id="Fill-1293" fill="#FFFFFF" opacity="0.256580171"></path>
                            <path d="M11.7894842,25.9647377 C15.3061663,26.4522104 18.6034265,25.5253007 21.2009084,23.6732605 C21.669404,23.3381972 22.309879,23.3933492 22.7190714,23.8007625 L26.1942413,27.2794906 L27.872523,27.2794906 L21.1831175,20.5912711 C19.0126189,22.7611767 15.9169897,24.0035796 12.5485657,23.6661441 C7.55523283,23.1668109 3.51668216,19.1300393 3.01853494,14.1390786 C2.68050647,10.7682824 3.92587451,7.67146718 6.09637311,5.50215464 L4.41809141,3.82565204 C1.61304814,6.63366047 0.0711638885,10.7125373 0.753151153,15.1146169 C1.61897846,20.7258895 6.167537,25.1860862 11.7894842,25.9647377" id="Fill-1294" fill="#182A37"></path>
                            <path d="M38.1912868,32.7199699 C38.6657127,33.1938027 38.6657127,33.9700822 38.1912868,34.4445081 L35.0363544,37.5982544 C34.5619285,38.0726803 33.7850561,38.0726803 33.3106301,37.5982544 L24.670148,28.9554002 C24.1957221,28.4815673 24.1957221,27.7052878 24.670148,27.2308619 L27.8250804,24.0771156 C28.2995063,23.6026897 29.0763788,23.6026897 29.5508047,24.0771156 L38.1912868,32.7199699" id="Fill-1296" fill="#DF5142"></path>
                            <path d="M38.303963,32.8587394 L36.7146361,34.4468802 C36.2520709,34.9100385 35.50485,34.9100385 35.0422848,34.4468802 L27.8191501,27.2284898 C27.3565848,26.7653315 26.609364,26.7653315 26.1467987,27.2284898 L24.5574718,28.8166306 C24.5574718,28.8267121 24.5574718,28.8320494 24.5574718,28.842131 L33.3106301,37.5982544 C33.7850561,38.0726803 34.5619285,38.0726803 35.0363544,37.5982544 L38.1912868,34.4445081 C38.6242005,34.0133735 38.6597824,33.3349445 38.303963,32.8587394" id="Fill-1297" fill="#C2423D"></path>
                        </g>
                    </g>
                </g>
                <g id="Dynamic-Border" stroke="#1D8E96" stroke-width="4">
                    <rect id="Azure-Border" x="2" y="2" width="96" height="96" rx="48"></rect>
                </g>
            </g>
        </g>
    </g>
</svg>