<svg width="102" height="102" viewBox="0 0 102 102" fill="none" xmlns="http://www.w3.org/2000/svg">
<path d="M50.9999 97.8099C25.1499 97.8099 4.18994 76.8599 4.18994 50.9999C4.18994 25.1399 25.1499 4.18994 50.9999 4.18994C76.8499 4.18994 97.8099 25.1499 97.8099 50.9999C97.8099 76.8499 76.8499 97.8099 50.9999 97.8099Z" fill="url(#paint0_linear)"/>
<path fill-rule="evenodd" clip-rule="evenodd" d="M96.9001 51.0001C96.9001 76.3501 76.3501 96.9001 51.0001 96.9001C25.6501 96.9001 5.10011 76.3501 5.10011 51.0001C5.10011 25.6501 25.6501 5.10011 51.0001 5.10011C76.3501 5.10011 96.9001 25.6501 96.9001 51.0001ZM51.0001 1.36011C78.4201 1.36011 100.64 23.5801 100.64 51.0001C100.64 78.4201 78.4101 100.64 51.0001 100.64C23.5801 100.64 1.36011 78.4101 1.36011 51.0001C1.36011 23.5801 23.5801 1.36011 51.0001 1.36011Z" fill="#F2F1F0"/>
<path fill-rule="evenodd" clip-rule="evenodd" d="M94.0899 50.9999C94.0899 74.7999 74.7999 94.0899 50.9999 94.0899C27.1999 94.0899 7.90992 74.7999 7.90992 50.9999C7.90992 27.1999 27.1999 7.90992 50.9999 7.90992C74.7999 7.90992 94.0899 27.1999 94.0899 50.9999ZM50.9999 4.16992C76.8599 4.16992 97.8299 25.1399 97.8299 50.9999C97.8299 76.8599 76.8599 97.8299 50.9999 97.8299C25.1399 97.8299 4.16992 76.8599 4.16992 50.9999C4.16992 25.1399 25.1299 4.16992 50.9999 4.16992Z" fill="url(#paint1_linear)"/>
<path opacity="0.2" d="M66.3899 66.3302C67.0399 66.3302 67.5799 65.8002 67.5799 65.1402V37.1802H34.4099V65.1502C34.4099 65.8002 34.9399 66.3402 35.5999 66.3402H66.3899V66.3302Z" fill="#1F1D21"/>
<path d="M67.5799 37.1702V36.7002C67.5799 36.1302 67.1199 35.6602 66.5399 35.6602H35.4499C34.8799 35.6602 34.4099 36.1202 34.4099 36.7002V37.2102V37.6802V64.3002C34.4099 64.8702 34.8699 65.3402 35.4499 65.3402H66.5499C67.1199 65.3402 67.5899 64.8802 67.5899 64.3002V37.2202C67.5899 37.2002 67.5799 37.1902 67.5799 37.1702Z" fill="#F2F1F0"/>
<path d="M47.3499 58.0798H46.6799V44.3298L54.4999 44.2998L54.5199 44.9698L47.3499 44.9998V58.0798Z" fill="#C7C7C7"/>
<path d="M50.3201 50.6299H47.8801V51.2999H50.3201V50.6299Z" fill="#C7C7C7"/>
<path d="M49.96 52.2097L52.12 50.9597L49.96 49.7097V52.2097V52.2097Z" fill="#C7C7C7"/>
<path d="M43.0501 50.6299H40.6101V51.2999H43.0501V50.6299Z" fill="#C7C7C7"/>
<path d="M42.6799 52.2097L44.8399 50.9597L42.6799 49.7097V52.2097V52.2097Z" fill="#C7C7C7"/>
<path d="M58.17 50.6299H55.73V51.2999H58.17V50.6299Z" fill="#C7C7C7"/>
<path d="M57.8201 52.2097L59.9801 50.9597L57.8201 49.7097V52.2097V52.2097Z" fill="#C7C7C7"/>
<path d="M56.7199 42.5098H52.4099V46.8398H56.7399V42.5098H56.7199Z" fill="#7F7F7F"/>
<path d="M65.05 50.9697L62.52 48.4397L59.99 50.9697L62.52 53.4997L65.05 50.9697Z" fill="#C9C9C9"/>
<path d="M49.1601 48.8098H44.8301V53.1198H49.1601V48.8098Z" fill="#7F7F7F"/>
<path d="M47.9801 55.1797H46.0301C45.3701 55.1797 44.8501 55.6997 44.8501 56.3597V58.3097C44.8501 58.9697 45.3701 59.4897 46.0301 59.4897H47.9801C48.6401 59.4897 49.1601 58.9697 49.1601 58.3097V56.3597C49.1601 55.6997 48.6201 55.1797 47.9801 55.1797Z" fill="#6A6A6A"/>
<path d="M48.25 42.5098H45.76L44.51 44.6698L45.76 46.8298H48.25L49.5 44.6698L48.25 42.5098Z" fill="#949494"/>
<path d="M39.42 53.4298C40.78 53.4298 41.88 52.3298 41.88 50.9698C41.88 49.6098 40.78 48.5098 39.42 48.5098C38.06 48.5098 36.96 49.6098 36.96 50.9698C36.95 52.3298 38.05 53.4298 39.42 53.4298Z" fill="#969696"/>
<path d="M54.5601 53.4298C55.9201 53.4298 57.0201 52.3298 57.0201 50.9698C57.0201 49.6098 55.9201 48.5098 54.5601 48.5098C53.2001 48.5098 52.1001 49.6098 52.1001 50.9698C52.1001 52.3298 53.2201 53.4298 54.5601 53.4298Z" fill="#464646"/>
<path opacity="0.15" d="M76.36 67.9703L75.4 66.7402C75.23 66.5202 74.99 66.5103 74.9 66.5103C74.8 66.5103 74.59 66.5503 74.45 66.7503C69.84 73.4603 62.73 77.7602 54.97 78.9502L54.53 75.7803C54.48 75.4303 54.07 75.2703 53.8 75.4803L43.17 83.7002C42.73 84.0302 42.82 84.7102 43.34 84.9202L55.83 89.8402C56.14 89.9802 56.49 89.7003 56.44 89.3603L55.74 84.3903L57.06 84.1803C64.29 83.0103 70.21 78.9802 75.1 73.9202C74.8 73.7902 74.52 73.6903 74.25 73.6003C74.96 72.8803 75.64 72.1403 76.29 71.3503C77.1 70.3703 77.12 68.9503 76.36 67.9703Z" fill="#1F1D20"/>
<path opacity="0.15" d="M88.1199 47.4702L84.7399 47.9702C83.8399 39.3902 79.6399 31.3502 72.7599 25.7102C71.7799 24.9002 70.3599 24.8802 69.3799 25.6402L68.1499 26.6002C67.9299 26.7702 67.9199 27.0102 67.9199 27.1002C67.9199 27.2002 67.9599 27.4102 68.1599 27.5502C69.7599 28.6502 71.2199 29.9002 72.5399 31.2602C76.3799 35.7002 78.7899 41.3702 79.3899 47.4502L79.5199 48.7402L74.4699 49.4802C74.1199 49.5302 73.9599 49.9302 74.1699 50.2002L82.2999 60.9102C82.6499 61.3502 83.3299 61.2602 83.5399 60.7402L88.5999 48.0802C88.7399 47.7702 88.4599 47.4202 88.1199 47.4702Z" fill="#1F1D20"/>
<path opacity="0.15" d="M38.2899 77.0901C29.3399 72.4101 23.6299 63.3601 22.8699 53.5801L26.2199 53.1101C26.5699 53.0601 26.7299 52.6501 26.5199 52.3801L18.2999 41.7501C17.9699 41.3101 17.2899 41.4001 17.0799 41.9201L12.1599 54.4101C12.0199 54.7201 12.2999 55.0701 12.6399 55.0201L17.6099 54.3201L17.8199 55.6401C18.9699 62.7501 22.4099 69.0901 27.3299 73.9501C29.2099 75.9701 31.3399 77.8001 33.7499 79.3501C34.7299 79.9901 35.9899 79.9501 36.8899 79.2501L38.3699 78.1001C38.5199 78.0001 38.5799 77.8601 38.5999 77.7501C38.6199 77.6801 38.6099 77.6201 38.6099 77.5701C38.6099 77.4501 38.5499 77.2301 38.2899 77.0901Z" fill="#1F1D20"/>
<path opacity="0.15" d="M62.1699 18.4602L49.5099 13.4002C49.1899 13.2602 48.8399 13.5402 48.8899 13.8802L49.3699 17.1202C38.6599 17.4902 28.6699 23.0102 22.6599 32.3402C22.0199 33.3202 22.0599 34.5802 22.7599 35.4802L23.9099 36.9602C24.0099 37.1102 24.1499 37.1702 24.2599 37.1902C24.3299 37.2102 24.3899 37.2002 24.4399 37.2002C24.5599 37.2002 24.7799 37.1402 24.9199 36.8802C26.6999 33.4802 29.1199 30.5502 31.9599 28.1702C36.7699 24.9002 42.9999 23.1902 48.8799 22.6002L50.1699 22.4702L50.9099 27.5202C50.9599 27.8702 51.3599 28.0302 51.6299 27.8202L62.3399 19.6902C62.7799 19.3502 62.6899 18.6702 62.1699 18.4602Z" fill="#1F1D20"/>
<path d="M89.36 47.7102L85 48.3602L84.93 47.7502C84.67 45.3102 84.14 42.9302 83.39 40.6502C81.52 34.4302 77.85 28.7902 72.63 24.5202C71.65 23.7102 70.23 23.6902 69.25 24.4502L68.02 25.4102C67.8 25.5802 67.79 25.8202 67.79 25.9102C67.79 26.0102 67.83 26.2202 68.03 26.3602C75.64 31.6002 80.16 40.0402 80.53 49.0202L75.72 49.7302C75.37 49.7802 75.21 50.1802 75.42 50.4502L83.55 61.1602C83.9 61.6002 84.58 61.5102 84.79 60.9902L89.84 48.3302C89.98 48.0102 89.7 47.6602 89.36 47.7102Z" fill="#F2F1F0"/>
<path d="M77.6 68.2102L76.64 66.9802C76.47 66.7602 76.23 66.7502 76.14 66.7502C76.04 66.7502 75.83 66.7902 75.69 66.9902C72.86 71.1002 69.09 74.3002 64.82 76.4502C62.28 77.5402 59.54 78.2902 56.77 78.7602L55.41 79.0002L54.79 74.5302C54.74 74.1802 54.33 74.0202 54.06 74.2302L43.43 82.4502C42.99 82.7802 43.08 83.4602 43.6 83.6702L56.08 88.5902C56.39 88.7302 56.74 88.4502 56.69 88.1102L56.04 83.4902C64.34 82.4302 72.07 78.2802 77.53 71.5902C78.34 70.6102 78.36 69.1902 77.6 68.2102Z" fill="#F2F1F0"/>
<path d="M38.5299 75.8401C30.0899 71.4201 24.5299 63.1001 23.2899 53.9501L27.4699 53.3701C27.8199 53.3201 27.9799 52.9101 27.7699 52.6401L19.5499 42.0101C19.2199 41.5701 18.5399 41.6601 18.3299 42.1801L13.4099 54.6601C13.2699 54.9701 13.5499 55.3201 13.8899 55.2701L18.8599 54.5701L19.0799 55.8901C19.6999 59.7601 21.1199 63.3301 23.0699 66.5701C25.6599 71.1301 29.3499 75.1101 33.9899 78.1001C34.9699 78.7401 36.2299 78.7001 37.1299 78.0001L38.6099 76.8501C38.7599 76.7501 38.8199 76.6101 38.8399 76.5001C38.8599 76.4301 38.8499 76.3701 38.8499 76.3201C38.8499 76.2001 38.7899 75.9801 38.5299 75.8401Z" fill="#F2F1F0"/>
<path d="M62.4099 17.2202L49.7499 12.1702C49.4299 12.0302 49.0799 12.3102 49.1299 12.6502L49.7799 17.0102L49.1699 17.0802C46.2999 17.3902 43.5899 18.1102 41.0499 19.1502C34.1499 21.5102 28.0799 26.1302 23.9099 32.5802C23.2699 33.5602 23.3099 34.8202 24.0099 35.7202L25.1599 37.2002C25.2599 37.3502 25.3999 37.4102 25.5099 37.4302C25.5799 37.4502 25.6399 37.4402 25.6899 37.4402C25.8099 37.4402 26.0299 37.3802 26.1699 37.1202C30.9699 27.9402 40.3899 22.1602 50.4699 21.6602L51.1499 26.2902C51.1999 26.6402 51.5999 26.8002 51.8699 26.5902L62.5799 18.4602C63.0199 18.1102 62.9299 17.4302 62.4099 17.2202Z" fill="#F2F1F0"/>
<defs>
<linearGradient id="paint0_linear" x1="49.23" y1="-13.7902" x2="53.212" y2="131.98" gradientUnits="userSpaceOnUse">
<stop stop-color="#00ABDE"/>
<stop offset="1" stop-color="#007ED8"/>
</linearGradient>
<linearGradient id="paint1_linear" x1="2.43262" y1="-20.6251" x2="97.9596" y2="120.257" gradientUnits="userSpaceOnUse">
<stop stop-color="#007ED8"/>
<stop offset="0.7065" stop-color="#002D4C"/>
</linearGradient>
</defs>
</svg>
