<svg width="100" height="100" viewBox="0 0 100 100" fill="none" xmlns="http://www.w3.org/2000/svg">
<g clip-path="url(#clip0)">
<path d="M49.6401 96.4501C40.382 96.4501 31.3317 93.7047 23.6339 88.5612C15.936 83.4176 9.93624 76.1069 6.3933 67.5535C2.85036 59.0001 1.92337 49.5882 3.72954 40.5079C5.53571 31.4277 9.99394 23.0869 16.5404 16.5404C23.0869 9.99393 31.4277 5.53571 40.5079 3.72954C49.5882 1.92337 59.0001 2.85036 67.5535 6.3933C76.1069 9.93624 83.4176 15.936 88.5612 23.6339C93.7047 31.3317 96.4501 40.382 96.4501 49.6401C96.4505 55.7874 95.24 61.8746 92.8878 67.554C90.5355 73.2335 87.0875 78.3939 82.7407 82.7407C78.3939 87.0875 73.2335 90.5355 67.554 92.8878C61.8746 95.24 55.7874 96.4505 49.6401 96.4501V96.4501Z" fill="url(#paint0_linear)"/>
<path fill-rule="evenodd" clip-rule="evenodd" d="M95.54 49.64C95.54 58.7182 92.848 67.5925 87.8045 75.1407C82.7609 82.6889 75.5923 88.572 67.2052 92.0461C58.818 95.5201 49.5891 96.4291 40.6854 94.658C31.7816 92.887 23.603 88.5154 17.1838 82.0962C10.7646 75.677 6.39302 67.4984 4.62196 58.5946C2.85089 49.6909 3.75987 40.462 7.23393 32.0748C10.708 23.6877 16.5911 16.5191 24.1393 11.4755C31.6875 6.43199 40.5618 3.74 49.64 3.74C55.6677 3.73998 61.6363 4.9272 67.2052 7.23388C72.774 9.54057 77.834 12.9215 82.0963 17.1837C86.3585 21.446 89.7394 26.5059 92.0461 32.0748C94.3528 37.6437 95.54 43.6123 95.54 49.64V49.64ZM49.64 3.62732e-07C59.4579 3.62732e-07 69.0553 2.91134 77.2185 8.36585C85.3818 13.8204 91.7442 21.5731 95.5014 30.6436C99.2585 39.7141 100.242 49.6951 98.3262 59.3243C96.4108 68.9535 91.6831 77.7985 84.7408 84.7408C77.7985 91.6831 68.9535 96.4108 59.3243 98.3262C49.6951 100.242 39.7141 99.2585 30.6436 95.5014C21.5731 91.7442 13.8204 85.3818 8.36585 77.2185C2.91134 69.0553 3.62732e-07 59.4579 3.62732e-07 49.64C-0.000787738 43.121 1.28265 36.6656 3.77702 30.6427C6.27138 24.6197 9.9278 19.1471 14.5375 14.5375C19.1471 9.9278 24.6197 6.27138 30.6427 3.77702C36.6656 1.28265 43.121 -0.000787738 49.64 3.62732e-07V3.62732e-07Z" fill="#F2F1F0"/>
<path fill-rule="evenodd" clip-rule="evenodd" d="M92.7296 49.6406C92.7296 58.163 90.2024 66.494 85.4676 73.5801C80.7328 80.6662 74.0031 86.1892 66.1294 89.4505C58.2557 92.7119 49.5918 93.5653 41.2331 91.9026C32.8745 90.24 25.1966 86.1361 19.1703 80.1098C13.1441 74.0836 9.04017 66.4057 7.37753 58.047C5.7149 49.6884 6.56822 41.0244 9.8296 33.1507C13.091 25.2771 18.6139 18.5473 25.7 13.8126C32.7862 9.07776 41.1172 6.55058 49.6396 6.55058C55.2983 6.55023 60.9017 7.66455 66.1298 9.82991C71.3579 11.9953 76.1082 15.1692 80.1096 19.1706C84.1109 23.1719 87.2849 27.9223 89.4502 33.1503C91.6156 38.3784 92.7299 43.9818 92.7296 49.6406V49.6406ZM49.6396 2.81058C58.9017 2.81058 67.9558 5.55711 75.6569 10.7029C83.3581 15.8486 89.3604 23.1624 92.9049 31.7195C96.4493 40.2766 97.3767 49.6925 95.5697 58.7767C93.7628 67.8608 89.3027 76.2051 82.7534 82.7544C76.2041 89.3037 67.8598 93.7638 58.7757 95.5708C49.6915 97.3777 40.2756 96.4503 31.7185 92.9059C23.1614 89.3614 15.8476 83.3591 10.7018 75.6579C5.5561 67.9568 2.80957 58.9027 2.80957 49.6406C2.81076 37.2209 7.745 25.3101 16.5271 16.5281C25.3091 7.74599 37.2198 2.81174 49.6396 2.81055V2.81058Z" fill="#0078D4"/>
<path fill-rule="evenodd" clip-rule="evenodd" d="M92.7296 49.6405C92.7296 58.1629 90.2024 66.494 85.4676 73.5801C80.7328 80.6662 74.0031 86.1891 66.1294 89.4505C58.2557 92.7119 49.5918 93.5652 41.2331 91.9026C32.8745 90.24 25.1966 86.136 19.1703 80.1098C13.1441 74.0835 9.04017 66.4056 7.37753 58.047C5.7149 49.6883 6.56822 41.0244 9.8296 33.1507C13.091 25.277 18.6139 18.5473 25.7001 13.8125C32.7862 9.07773 41.1172 6.55055 49.6396 6.55055C55.2983 6.5502 60.9017 7.66452 66.1298 9.82988C71.3579 11.9952 76.1082 15.1692 80.1096 19.1705C84.1109 23.1719 87.2849 27.9222 89.4502 33.1503C91.6156 38.3784 92.7299 43.9818 92.7296 49.6405V49.6405ZM49.6396 2.81055C58.9017 2.81055 67.9558 5.55708 75.6569 10.7028C83.3581 15.8486 89.3604 23.1624 92.9048 31.7195C96.4493 40.2765 97.3767 49.6925 95.5697 58.7766C93.7628 67.8608 89.3027 76.2051 82.7534 82.7544C76.2041 89.3036 67.8598 93.7638 58.7757 95.5707C49.6915 97.3777 40.2756 96.4503 31.7185 92.9058C23.1614 89.3614 15.8476 83.3591 10.7018 75.6579C5.5561 67.9568 2.80957 58.9026 2.80957 49.6405C2.81076 37.2208 7.74501 25.3101 16.5271 16.5281C25.3091 7.74599 37.2198 2.81174 49.6396 2.81055V2.81055Z" fill="#0078D4"/>
<path fill-rule="evenodd" clip-rule="evenodd" d="M34.8678 22.3027C33.5318 22.3027 32.2506 22.8334 31.306 23.7781C30.3613 24.7227 29.8306 26.0039 29.8306 27.3399V70.7892C29.8306 71.3379 29.7226 71.8813 29.5126 72.3882C29.3026 72.8951 28.9948 73.3557 28.6068 73.7437C28.2188 74.1317 27.7582 74.4395 27.2513 74.6494C26.7444 74.8594 26.201 74.9675 25.6523 74.9674H63.1561C64.492 74.9674 65.7732 74.4367 66.7179 73.4921C67.6625 72.5475 68.1932 71.2662 68.1932 69.9303V26.4809C68.1932 25.3728 68.6334 24.31 69.417 23.5265C70.2005 22.7429 71.2632 22.3027 72.3714 22.3027H34.8678Z" fill="white"/>
<path fill-rule="evenodd" clip-rule="evenodd" d="M59.9595 71.7983C59.8983 71.5163 59.7437 71.2633 59.5208 71.0801C59.2978 70.8969 59.0196 70.7944 58.7311 70.7891H23.0273C22.8122 70.79 22.6009 70.8455 22.4132 70.9505C22.2255 71.0556 22.0676 71.2066 21.9544 71.3894C21.8411 71.5722 21.7761 71.7809 21.7657 71.9957C21.7552 72.2105 21.7995 72.4245 21.8945 72.6175C22.2374 73.3221 22.7717 73.9161 23.4362 74.3316C24.1007 74.7472 24.8686 74.9674 25.6523 74.9673H64.0149C63.0823 74.9672 62.1765 74.6552 61.4416 74.081C60.7068 73.5067 60.185 72.7032 59.9595 71.7983Z" fill="#E8E8E8"/>
<path fill-rule="evenodd" clip-rule="evenodd" d="M39.6944 66.3985C38.842 66.3985 38.0088 66.1457 37.3001 65.6722C36.5914 65.1986 36.039 64.5256 35.7128 63.7381C35.3866 62.9506 35.3013 62.0841 35.4676 61.2481C35.6339 60.4122 36.0443 59.6443 36.647 59.0415C37.2497 58.4388 38.0176 58.0284 38.8536 57.8621C39.6896 57.6958 40.5561 57.7812 41.3436 58.1074C42.131 58.4335 42.8041 58.9859 43.2776 59.6946C43.7512 60.4033 44.0039 61.2366 44.0039 62.0889C44.0039 63.2319 43.5499 64.328 42.7417 65.1362C41.9335 65.9444 40.8374 66.3984 39.6944 66.3985Z" fill="#E8E8E8"/>
<path fill-rule="evenodd" clip-rule="evenodd" d="M39.6944 55.086C38.842 55.086 38.0088 54.8332 37.3001 54.3597C36.5914 53.8861 36.039 53.2131 35.7128 52.4256C35.3866 51.6381 35.3013 50.7716 35.4676 49.9356C35.6339 49.0997 36.0443 48.3318 36.647 47.729C37.2497 47.1263 38.0176 46.7159 38.8536 46.5496C39.6896 46.3833 40.5561 46.4687 41.3436 46.7949C42.1311 47.121 42.8041 47.6734 43.2777 48.3821C43.7512 49.0909 44.0039 49.9241 44.0039 50.7764C44.0039 51.9194 43.5499 53.0155 42.7417 53.8237C41.9335 54.6319 40.8374 55.0859 39.6944 55.086V55.086Z" fill="#72C472"/>
<path fill-rule="evenodd" clip-rule="evenodd" d="M41.6741 49.5797C41.573 49.4786 41.4359 49.4219 41.2929 49.4219C41.15 49.4219 41.0129 49.4786 40.9118 49.5797L39.1349 51.3553L38.493 50.7196C38.478 50.6973 38.4611 50.6764 38.4424 50.6571C38.3422 50.5555 38.2057 50.4978 38.063 50.4967C37.9203 50.4956 37.783 50.5512 37.6812 50.6512C37.5794 50.7513 37.5216 50.8877 37.5203 51.0304C37.519 51.1731 37.5744 51.3105 37.6744 51.4124L37.6679 51.4189L38.7553 52.4963C38.8565 52.5973 38.9936 52.6541 39.1366 52.6541C39.2795 52.6541 39.4167 52.5973 39.5178 52.4963L41.6724 50.3427L41.674 50.3414C41.7241 50.2914 41.7638 50.2321 41.7909 50.1667C41.818 50.1014 41.8319 50.0313 41.8319 49.9606C41.8319 49.8898 41.818 49.8198 41.7909 49.7544C41.7638 49.6891 41.7241 49.6297 41.6741 49.5797V49.5797Z" fill="white"/>
<path fill-rule="evenodd" clip-rule="evenodd" d="M41.6741 60.6305C41.573 60.5294 41.4359 60.4727 41.2929 60.4727C41.15 60.4727 41.0129 60.5294 40.9118 60.6305L39.1349 62.4061L38.493 61.7704C38.478 61.7481 38.4611 61.7272 38.4424 61.7079C38.3422 61.6063 38.2057 61.5486 38.063 61.5475C37.9203 61.5464 37.783 61.6019 37.6812 61.702C37.5794 61.8021 37.5216 61.9385 37.5203 62.0812C37.519 62.2239 37.5744 62.3613 37.6744 62.4632L37.6679 62.4697L38.7553 63.5471C38.8565 63.6481 38.9936 63.7048 39.1366 63.7048C39.2795 63.7048 39.4167 63.6481 39.5178 63.5471L41.6724 61.3935L41.6741 61.3922C41.7241 61.3422 41.7638 61.2828 41.7909 61.2175C41.818 61.1521 41.8319 61.0821 41.8319 61.0113C41.8319 60.9406 41.818 60.8705 41.7909 60.8052C41.7638 60.7398 41.7241 60.6805 41.6741 60.6305V60.6305Z" fill="white"/>
<path d="M49.1239 52.9297H59.4067C59.8353 52.9297 60.2464 53.1 60.5495 53.403C60.8525 53.7061 61.0228 54.1172 61.0228 54.5458V54.5458C61.0228 54.758 60.981 54.9682 60.8998 55.1642C60.8186 55.3603 60.6995 55.5385 60.5495 55.6885C60.3994 55.8386 60.2212 55.9576 60.0252 56.0388C59.8291 56.1201 59.619 56.1619 59.4067 56.1619H49.1239C48.6953 56.1619 48.2842 55.9916 47.9812 55.6885C47.6781 55.3854 47.5078 54.9744 47.5078 54.5458C47.5078 54.3335 47.5496 54.1234 47.6308 53.9273C47.712 53.7313 47.8311 53.5531 47.9811 53.403C48.1312 53.253 48.3094 53.1339 48.5054 53.0527C48.7015 52.9715 48.9117 52.9297 49.1239 52.9297Z" fill="#E8E8E8"/>
<path d="M49.1239 46.4668H61.0228C61.235 46.4668 61.4452 46.5086 61.6413 46.5898C61.8373 46.671 62.0155 46.7901 62.1656 46.9401C62.3156 47.0902 62.4347 47.2684 62.5159 47.4644C62.5971 47.6605 62.6389 47.8707 62.6389 48.0829V48.0829C62.6389 48.5115 62.4686 48.9226 62.1656 49.2256C61.8625 49.5287 61.4514 49.699 61.0228 49.699H49.1239C48.6953 49.699 48.2842 49.5287 47.9812 49.2256C47.6781 48.9226 47.5078 48.5115 47.5078 48.0829V48.0829C47.5078 47.8707 47.5496 47.6605 47.6308 47.4644C47.712 47.2684 47.8311 47.0902 47.9811 46.9401C48.1312 46.7901 48.3094 46.671 48.5054 46.5898C48.7015 46.5086 48.9117 46.4668 49.1239 46.4668Z" fill="#E8E8E8"/>
<path d="M49.1239 59.3945H61.0228C61.235 59.3945 61.4452 59.4363 61.6413 59.5175C61.8373 59.5988 62.0155 59.7178 62.1656 59.8679C62.3156 60.0179 62.4347 60.1961 62.5159 60.3922C62.5971 60.5882 62.6389 60.7984 62.6389 61.0106V61.0106C62.6389 61.4392 62.4686 61.8503 62.1656 62.1534C61.8625 62.4564 61.4514 62.6267 61.0228 62.6267H49.1239C48.6953 62.6267 48.2842 62.4564 47.9812 62.1534C47.6781 61.8503 47.5078 61.4392 47.5078 61.0106V61.0106C47.5078 60.7984 47.5496 60.5882 47.6308 60.3922C47.712 60.1961 47.8311 60.0179 47.9811 59.8679C48.1312 59.7178 48.3094 59.5988 48.5054 59.5175C48.7015 59.4363 48.9117 59.3945 49.1239 59.3945Z" fill="#E8E8E8"/>
<path d="M49.1239 65.8594H56.9826C57.1948 65.8594 57.405 65.9012 57.601 65.9824C57.7971 66.0636 57.9753 66.1826 58.1253 66.3327C58.2754 66.4828 58.3944 66.6609 58.4757 66.857C58.5569 67.0531 58.5987 67.2632 58.5987 67.4755C58.5987 67.9041 58.4284 68.3151 58.1253 68.6182C57.8223 68.9213 57.4112 69.0915 56.9826 69.0915H49.1239C48.9117 69.0915 48.7015 69.0497 48.5054 68.9685C48.3094 68.8873 48.1312 68.7683 47.9811 68.6182C47.8311 68.4681 47.712 68.29 47.6308 68.0939C47.5496 67.8978 47.5078 67.6877 47.5078 67.4755V67.4755C47.5078 67.0468 47.6781 66.6358 47.9812 66.3327C48.2842 66.0296 48.6953 65.8594 49.1239 65.8594V65.8594Z" fill="#E8E8E8"/>
<path fill-rule="evenodd" clip-rule="evenodd" d="M72.3714 22.3027C71.2633 22.3028 70.2006 22.743 69.417 23.5265C68.6335 24.3101 68.1933 25.3728 68.1934 26.4809V30.3606H76.5494V26.4809C76.5494 25.9322 76.4414 25.3889 76.2314 24.882C76.0215 24.375 75.7137 23.9144 75.3257 23.5265C74.9378 23.1385 74.4772 22.8307 73.9703 22.6208C73.4633 22.4108 72.92 22.3027 72.3714 22.3027V22.3027Z" fill="#E8E8E8"/>
<path d="M52.5136 32.3695L46.6926 35.7695L40.5673 28.9562C40.4668 28.8432 40.401 28.7037 40.3778 28.5543C40.3545 28.4049 40.3748 28.2519 40.4362 28.1138C40.4976 27.9756 40.5976 27.858 40.724 27.7752C40.8505 27.6923 40.9982 27.6476 41.1494 27.6465H52.5136V32.3695Z" fill="url(#paint1_linear)"/>
<path d="M58.5066 34.4596L55.7151 31.3242L45.8591 42.1725H52.2094C52.2751 42.1743 52.3403 42.1609 52.3999 42.1334C52.4596 42.1059 52.5121 42.0649 52.5534 42.0137L58.4934 35.5445C58.6323 35.3988 58.7109 35.2059 58.7133 35.0047C58.7158 34.8034 58.6419 34.6086 58.5066 34.4596Z" fill="url(#paint2_linear)"/>
<path d="M52.4611 27.6738L40.528 41.0094C40.4375 41.1104 40.3784 41.2355 40.3579 41.3696C40.3374 41.5037 40.3563 41.6408 40.4125 41.7642C40.4686 41.8877 40.5594 41.9921 40.6739 42.0648C40.7884 42.1375 40.9216 42.1752 41.0572 42.1735H46.0447L55.742 31.3649L52.4611 27.6738Z" fill="url(#paint3_linear)"/>
</g>
<defs>
<linearGradient id="paint0_linear" x1="47.8698" y1="-15.153" x2="51.8525" y2="130.615" gradientUnits="userSpaceOnUse">
<stop stop-color="#00ABDE"/>
<stop offset="1" stop-color="#007ED8"/>
</linearGradient>
<linearGradient id="paint1_linear" x1="41.1305" y1="23.7364" x2="54.3746" y2="36.1974" gradientUnits="userSpaceOnUse">
<stop offset="0.4598" stop-color="#1152D4"/>
<stop offset="0.6156" stop-color="#0D3FB3"/>
</linearGradient>
<linearGradient id="paint2_linear" x1="45.8591" y1="36.7484" x2="58.7133" y2="36.7484" gradientUnits="userSpaceOnUse">
<stop stop-color="#76C0FD"/>
<stop offset="1" stop-color="#63B2FB"/>
</linearGradient>
<linearGradient id="paint3_linear" x1="40.3463" y1="34.9236" x2="55.7421" y2="34.9236" gradientUnits="userSpaceOnUse">
<stop stop-color="#388CF4"/>
<stop offset="1" stop-color="#2C7CEF"/>
</linearGradient>
<clipPath id="clip0">
<rect width="99.2799" height="99.28" fill="white"/>
</clipPath>
</defs>
</svg>
