<svg width="100" height="100" viewBox="0 0 100 100" fill="none" xmlns="http://www.w3.org/2000/svg">
<g clip-path="url(#clip0)">
<path d="M49.6401 96.4501C40.382 96.4501 31.3317 93.7047 23.6339 88.5612C15.936 83.4176 9.93624 76.1069 6.3933 67.5535C2.85036 59.0001 1.92337 49.5882 3.72954 40.5079C5.53571 31.4277 9.99394 23.0869 16.5404 16.5404C23.0869 9.99393 31.4277 5.53571 40.5079 3.72954C49.5882 1.92337 59.0001 2.85036 67.5535 6.3933C76.1069 9.93624 83.4176 15.936 88.5612 23.6339C93.7047 31.3317 96.4501 40.382 96.4501 49.6401C96.4505 55.7874 95.24 61.8746 92.8878 67.554C90.5355 73.2335 87.0875 78.3939 82.7407 82.7407C78.3939 87.0875 73.2335 90.5355 67.554 92.8878C61.8746 95.24 55.7874 96.4505 49.6401 96.4501V96.4501Z" fill="url(#paint0_linear)"/>
<path fill-rule="evenodd" clip-rule="evenodd" d="M95.54 49.64C95.54 58.7182 92.848 67.5925 87.8045 75.1407C82.7609 82.6889 75.5923 88.572 67.2052 92.0461C58.818 95.5201 49.5891 96.4291 40.6854 94.658C31.7816 92.887 23.603 88.5154 17.1838 82.0962C10.7646 75.677 6.39302 67.4984 4.62196 58.5946C2.85089 49.6909 3.75987 40.462 7.23393 32.0748C10.708 23.6877 16.5911 16.5191 24.1393 11.4755C31.6875 6.43199 40.5618 3.74 49.64 3.74C55.6677 3.73998 61.6363 4.9272 67.2052 7.23388C72.774 9.54057 77.834 12.9215 82.0963 17.1837C86.3585 21.446 89.7394 26.5059 92.0461 32.0748C94.3528 37.6437 95.54 43.6123 95.54 49.64V49.64ZM49.64 3.62732e-07C59.4579 3.62732e-07 69.0553 2.91134 77.2185 8.36585C85.3818 13.8204 91.7442 21.5731 95.5014 30.6436C99.2585 39.7141 100.242 49.6951 98.3262 59.3243C96.4108 68.9535 91.6831 77.7985 84.7408 84.7408C77.7985 91.6831 68.9535 96.4108 59.3243 98.3262C49.6951 100.242 39.7141 99.2585 30.6436 95.5014C21.5731 91.7442 13.8204 85.3818 8.36585 77.2185C2.91134 69.0553 3.62732e-07 59.4579 3.62732e-07 49.64C-0.000787738 43.121 1.28265 36.6656 3.77702 30.6427C6.27138 24.6197 9.9278 19.1471 14.5375 14.5375C19.1471 9.9278 24.6197 6.27138 30.6427 3.77702C36.6656 1.28265 43.121 -0.000787738 49.64 3.62732e-07V3.62732e-07Z" fill="#F2F1F0"/>
<path fill-rule="evenodd" clip-rule="evenodd" d="M92.7296 49.6406C92.7296 58.163 90.2024 66.494 85.4676 73.5801C80.7328 80.6662 74.0031 86.1892 66.1294 89.4505C58.2557 92.7119 49.5918 93.5653 41.2331 91.9026C32.8745 90.24 25.1966 86.1361 19.1703 80.1098C13.1441 74.0836 9.04017 66.4057 7.37753 58.047C5.7149 49.6884 6.56822 41.0244 9.8296 33.1507C13.091 25.2771 18.6139 18.5473 25.7 13.8126C32.7862 9.07776 41.1172 6.55058 49.6396 6.55058C55.2983 6.55023 60.9017 7.66455 66.1298 9.82991C71.3579 11.9953 76.1082 15.1692 80.1096 19.1706C84.1109 23.1719 87.2849 27.9223 89.4502 33.1503C91.6156 38.3784 92.7299 43.9818 92.7296 49.6406V49.6406ZM49.6396 2.81058C58.9017 2.81058 67.9558 5.55711 75.6569 10.7029C83.3581 15.8486 89.3604 23.1624 92.9049 31.7195C96.4493 40.2766 97.3767 49.6925 95.5697 58.7767C93.7628 67.8608 89.3027 76.2051 82.7534 82.7544C76.2041 89.3037 67.8598 93.7638 58.7757 95.5708C49.6915 97.3777 40.2756 96.4503 31.7185 92.9059C23.1614 89.3614 15.8476 83.3591 10.7018 75.6579C5.5561 67.9568 2.80957 58.9027 2.80957 49.6406C2.81076 37.2209 7.745 25.3101 16.5271 16.5281C25.3091 7.74599 37.2198 2.81174 49.6396 2.81055V2.81058Z" fill="#0078D4"/>
<path fill-rule="evenodd" clip-rule="evenodd" d="M92.7296 49.6396C92.7296 58.162 90.2024 66.493 85.4676 73.5791C80.7328 80.6652 74.0031 86.1882 66.1294 89.4495C58.2557 92.7109 49.5918 93.5642 41.2331 91.9016C32.8745 90.239 25.1966 86.135 19.1703 80.1088C13.1441 74.0826 9.04017 66.4047 7.37753 58.046C5.7149 49.6874 6.56822 41.0234 9.8296 33.1497C13.091 25.2761 18.6139 18.5463 25.7001 13.8115C32.7862 9.07675 41.1172 6.54957 49.6396 6.54957C55.2983 6.54923 60.9017 7.66355 66.1298 9.8289C71.3579 11.9943 76.1082 15.1682 80.1096 19.1696C84.1109 23.1709 87.2849 27.9213 89.4502 33.1493C91.6156 38.3774 92.7299 43.9808 92.7296 49.6396V49.6396ZM49.6396 2.80957C58.9017 2.80957 67.9558 5.5561 75.6569 10.7018C83.3581 15.8476 89.3604 23.1614 92.9048 31.7185C96.4493 40.2756 97.3767 49.6915 95.5697 58.7757C93.7628 67.8598 89.3027 76.2041 82.7534 82.7534C76.2041 89.3027 67.8598 93.7628 58.7757 95.5697C49.6915 97.3767 40.2756 96.4493 31.7185 92.9049C23.1614 89.3604 15.8476 83.3581 10.7018 75.6569C5.5561 67.9558 2.80957 58.9017 2.80957 49.6396C2.81076 37.2198 7.74501 25.3091 16.5271 16.5271C25.3091 7.74501 37.2198 2.81076 49.6396 2.80957V2.80957Z" fill="#0078D4"/>
<path d="M49.0587 44.7416C49.0578 45.0174 48.9766 45.287 48.8249 45.5173C48.6732 45.7476 48.4578 45.9288 48.2048 46.0386C47.544 46.3329 46.8255 46.4748 46.1024 46.4539C45.3794 46.4331 44.6703 46.25 44.0275 45.9182C43.3848 45.5864 42.8248 45.1143 42.3891 44.537C41.9533 43.9596 41.6529 43.2917 41.51 42.5826C41.498 42.5268 41.49 42.4703 41.4859 42.4134C39.8093 41.7835 38.3124 40.7527 37.1258 39.4111C35.9393 38.0696 35.0992 36.4579 34.6788 34.7169C34.2585 32.9759 34.2707 31.1585 34.7143 29.4233C35.158 27.6881 36.0197 26.0879 37.2242 24.7624C37.1237 24.3784 37.0723 23.9832 37.0711 23.5862C37.0704 22.9562 37.1939 22.3321 37.4344 21.7498C37.675 21.1675 38.0279 20.6383 38.4731 20.1924C38.9182 19.7465 39.4468 19.3927 40.0287 19.1512C40.6107 18.9097 41.2345 18.7851 41.8645 18.7848C42.0206 18.7846 42.1766 18.7927 42.3318 18.8089C42.4288 18.1117 42.741 17.4622 43.2247 16.9508C43.7084 16.4394 44.3396 16.0917 45.0304 15.956C45.7211 15.8204 46.4369 15.9035 47.0781 16.194C47.7194 16.4844 48.254 16.9677 48.6075 17.5764V17.5844C48.6402 17.6391 48.6698 17.6956 48.6962 17.7536C48.9322 18.1598 49.0573 18.6211 49.0587 19.0909V44.7416H49.0587ZM50.2203 44.7416C50.2212 45.0174 50.3025 45.287 50.4541 45.5173C50.6058 45.7477 50.8213 45.9288 51.0743 46.0386C51.7351 46.3328 52.4536 46.4748 53.1766 46.4539C53.8997 46.4331 54.6088 46.25 55.2515 45.9181C55.8942 45.5863 56.4542 45.1143 56.8899 44.5369C57.3257 43.9596 57.6261 43.2916 57.7689 42.5825C57.7809 42.5268 57.789 42.4703 57.7931 42.4134C59.4697 41.7834 60.9666 40.7527 62.1532 39.4111C63.3397 38.0695 64.1798 36.4579 64.6002 34.7169C65.0205 32.9759 65.0083 31.1585 64.5646 29.4233C64.121 27.6881 63.2593 26.0879 62.0548 24.7624C62.1552 24.3783 62.2067 23.9831 62.2079 23.5862C62.2086 22.9561 62.0851 22.3321 61.8446 21.7498C61.604 21.1675 61.2511 20.6382 60.8059 20.1924C60.3608 19.7465 59.8322 19.3927 59.2502 19.1511C58.6683 18.9096 58.0445 18.7851 57.4145 18.7847C57.2584 18.7845 57.1024 18.7926 56.9472 18.8089C56.8512 18.112 56.54 17.4626 56.057 16.9511C55.574 16.4397 54.9434 16.0918 54.2532 15.9561C53.563 15.8203 52.8476 15.9035 52.2069 16.194C51.5663 16.4844 51.0323 16.9677 50.6795 17.5763V17.5844C50.6468 17.6391 50.6173 17.6955 50.5909 17.7535C50.3548 18.1598 50.2298 18.621 50.2284 19.0909V38.772L50.2203 44.7416Z" fill="url(#paint1_linear)"/>
<path d="M49.0587 27.1419H43.7266C43.5808 27.1419 43.4411 27.084 43.338 26.9809C43.235 26.8779 43.177 26.7381 43.177 26.5924V23.6328H44.2761V26.0428H49.0587V27.1419Z" fill="white"/>
<path d="M39.7236 34.3979H38.6245V31.9714C38.6245 31.8257 38.6825 31.6859 38.7855 31.5829C38.8886 31.4798 39.0283 31.4219 39.1741 31.4219H49.0587V32.521H39.7237L39.7236 34.3979Z" fill="white"/>
<path d="M49.0586 37.416H43.9468V38.5151H49.0586V37.416Z" fill="white"/>
<path d="M43.727 25.1288C44.749 25.1288 45.5775 24.3003 45.5775 23.2783C45.5775 22.2562 44.749 21.4277 43.727 21.4277C42.705 21.4277 41.8765 22.2562 41.8765 23.2783C41.8765 24.3003 42.705 25.1288 43.727 25.1288Z" fill="white"/>
<path d="M39.1738 37.0155C40.1958 37.0155 41.0243 36.187 41.0243 35.165C41.0243 34.143 40.1958 33.3145 39.1738 33.3145C38.1517 33.3145 37.3232 34.143 37.3232 35.165C37.3232 36.187 38.1517 37.0155 39.1738 37.0155Z" fill="white"/>
<path d="M44.3032 39.8163C45.3252 39.8163 46.1537 38.9878 46.1537 37.9658C46.1537 36.9437 45.3252 36.1152 44.3032 36.1152C43.2811 36.1152 42.4526 36.9437 42.4526 37.9658C42.4526 38.9878 43.2811 39.8163 44.3032 39.8163Z" fill="white"/>
<path d="M55.5519 27.1419H50.2202V26.0428H55.0023V23.6328H56.1014V26.5924C56.1014 26.7381 56.0435 26.8779 55.9404 26.9809C55.8373 27.084 55.6976 27.1419 55.5519 27.1419V27.1419Z" fill="white"/>
<path d="M60.6552 34.3979H59.5561V32.521H50.2202V31.4219H60.1057C60.2514 31.4219 60.3912 31.4798 60.4942 31.5829C60.5973 31.6859 60.6552 31.8257 60.6552 31.9714V34.3979Z" fill="white"/>
<path d="M55.3329 37.416H50.2202V38.5151H55.3329V37.416Z" fill="white"/>
<path d="M55.5524 25.1288C56.5744 25.1288 57.4029 24.3003 57.4029 23.2783C57.4029 22.2562 56.5744 21.4277 55.5524 21.4277C54.5304 21.4277 53.7019 22.2562 53.7019 23.2783C53.7019 24.3003 54.5304 25.1288 55.5524 25.1288Z" fill="white"/>
<path d="M60.1056 37.0155C61.1277 37.0155 61.9562 36.187 61.9562 35.165C61.9562 34.143 61.1277 33.3145 60.1056 33.3145C59.0836 33.3145 58.2551 34.143 58.2551 35.165C58.2551 36.187 59.0836 37.0155 60.1056 37.0155Z" fill="white"/>
<path d="M54.9765 39.8163C55.9985 39.8163 56.827 38.9878 56.827 37.9658C56.827 36.9437 55.9985 36.1152 54.9765 36.1152C53.9545 36.1152 53.126 36.9437 53.126 37.9658C53.126 38.9878 53.9545 39.8163 54.9765 39.8163Z" fill="white"/>
<path d="M49.64 49.6396V50.6823C49.64 51.4055 49.3527 52.099 48.8414 52.6103C48.33 53.1217 47.6365 53.4089 46.9134 53.4089H30.8118C30.0887 53.4089 29.3952 53.6962 28.8838 54.2076C28.3725 54.7189 28.0852 55.4124 28.0852 56.1356V59.8408" stroke="white" stroke-linecap="round" stroke-linejoin="round"/>
<path d="M49.6401 49.6396V50.6823C49.6401 51.0404 49.7107 51.3949 49.8477 51.7257C49.9847 52.0566 50.1856 52.3571 50.4388 52.6103C50.6919 52.8635 50.9925 53.0644 51.3233 53.2014C51.6541 53.3384 52.0087 53.4089 52.3668 53.4089H68.4683C69.1914 53.4089 69.885 53.6962 70.3963 54.2076C70.9077 54.7189 71.1949 55.4124 71.1949 56.1356V59.8408" stroke="white" stroke-linecap="round" stroke-linejoin="round"/>
<path d="M49.6771 67.4631L49.6531 75.9341L42.2781 71.6761L42.3021 63.2041L49.6771 67.4631Z" fill="url(#paint2_linear)"/>
<path d="M49.6771 67.4631L57.0021 63.2061L56.9781 71.6771L49.6531 75.9341L49.6771 67.4631Z" fill="url(#paint3_linear)"/>
<path d="M42.302 63.2043L49.627 58.9473L57.002 63.2063L49.677 67.4633L42.302 63.2043Z" fill="url(#paint4_linear)"/>
<path d="M70.6585 61.6064C69.6954 61.6065 68.7472 61.844 67.8979 62.298C67.0485 62.752 66.3242 63.4084 65.7892 64.2092C65.2541 65.01 64.9248 65.9304 64.8304 66.8888C64.7361 67.8473 64.8795 68.8142 65.2481 69.704C65.6166 70.5937 66.199 71.3789 66.9434 71.9898C67.6879 72.6008 68.5716 73.0187 69.5162 73.2066C70.4607 73.3945 71.4371 73.3465 72.3587 73.0669C73.2803 72.7873 74.1187 72.2847 74.7997 71.6037L71.7979 68.602C71.6105 68.7894 71.3798 68.9277 71.1262 69.0046C70.8725 69.0816 70.6038 69.0948 70.3439 69.0431C70.0839 68.9914 69.8407 68.8763 69.6359 68.7082C69.431 68.54 69.2708 68.3239 69.1694 68.0791C69.068 67.8342 69.0285 67.5681 69.0545 67.3043C69.0805 67.0405 69.1712 66.7873 69.3185 66.5669C69.4658 66.3466 69.6651 66.1659 69.8989 66.041C70.1327 65.9162 70.3936 65.8508 70.6587 65.8509V61.6064H70.6585Z" fill="white"/>
<path d="M72.2707 67.4628H76.5148C76.5148 65.9096 75.8978 64.4201 74.7996 63.3218C73.7014 62.2235 72.2119 61.6065 70.6587 61.6064V65.8509C71.086 65.8514 71.4957 66.0214 71.7979 66.3235C72.1001 66.6257 72.2701 67.0354 72.2707 67.4628V67.4628Z" fill="#50E6FF"/>
<path d="M72.2708 67.4629V67.463C72.271 67.6747 72.2293 67.8843 72.1481 68.0798C72.067 68.2752 71.948 68.4528 71.7981 68.6021L74.7999 71.6039C75.3444 71.0607 75.7763 70.4152 76.0707 69.7046C76.365 68.9939 76.516 68.2321 76.515 67.4629L72.2708 67.4629Z" fill="#C3F1FF"/>
<path d="M33.3515 62.1357H20.4256C19.9663 62.1357 19.594 62.5081 19.594 62.9674V71.9577C19.594 72.417 19.9663 72.7893 20.4256 72.7893H33.3515C33.8108 72.7893 34.1831 72.417 34.1831 71.9577V62.9674C34.1831 62.5081 33.8108 62.1357 33.3515 62.1357Z" fill="white"/>
<path d="M22.3933 70.4021V69.0986" stroke="#C3F1FF" stroke-width="1.66324" stroke-miterlimit="10" stroke-linecap="round"/>
<path d="M25.3901 70.4017V66.8711" stroke="#9CEBFF" stroke-width="1.66324" stroke-miterlimit="10" stroke-linecap="round"/>
<path d="M28.387 70.4018V64.5723" stroke="#50E6FF" stroke-width="1.66324" stroke-miterlimit="10" stroke-linecap="round"/>
<path d="M31.384 70.4018V67.7744" stroke="#0078D4" stroke-width="1.66324" stroke-miterlimit="10" stroke-linecap="round"/>
</g>
<defs>
<linearGradient id="paint0_linear" x1="47.8697" y1="-15.153" x2="51.8525" y2="130.615" gradientUnits="userSpaceOnUse">
<stop stop-color="#00ABDE"/>
<stop offset="1" stop-color="#007ED8"/>
</linearGradient>
<linearGradient id="paint1_linear" x1="34.2256" y1="31.1729" x2="64.7599" y2="31.1729" gradientUnits="userSpaceOnUse">
<stop stop-color="#32BEDD"/>
<stop offset="0.06" stop-color="#37C5E3"/>
<stop offset="0.3" stop-color="#49DDF7"/>
<stop offset="0.45" stop-color="#50E6FF"/>
<stop offset="0.55" stop-color="#50E6FF"/>
<stop offset="0.7" stop-color="#49DDF7"/>
<stop offset="0.94" stop-color="#37C5E3"/>
<stop offset="1" stop-color="#32BEDD"/>
</linearGradient>
<linearGradient id="paint2_linear" x1="47.5243" y1="72.5813" x2="41.9841" y2="65.0956" gradientUnits="userSpaceOnUse">
<stop offset="0.0024" stop-color="#50E6FF"/>
<stop offset="0.13844" stop-color="#61E8FF"/>
<stop offset="0.40787" stop-color="#8DEFFF"/>
<stop offset="0.7814" stop-color="#D4F9FF"/>
<stop offset="0.99436" stop-color="white"/>
</linearGradient>
<linearGradient id="paint3_linear" x1="54.8638" y1="72.5818" x2="49.3139" y2="65.1324" gradientUnits="userSpaceOnUse">
<stop offset="0.0024" stop-color="#50E6FF"/>
<stop offset="0.13844" stop-color="#61E8FF"/>
<stop offset="0.40787" stop-color="#8DEFFF"/>
<stop offset="0.7814" stop-color="#D4F9FF"/>
<stop offset="0.99436" stop-color="white"/>
</linearGradient>
<linearGradient id="paint4_linear" x1="52.7249" y1="65.2203" x2="50.9064" y2="57.9228" gradientUnits="userSpaceOnUse">
<stop offset="0.0024" stop-color="#50E6FF"/>
<stop offset="0.13844" stop-color="#61E8FF"/>
<stop offset="0.40787" stop-color="#8DEFFF"/>
<stop offset="0.7814" stop-color="#D4F9FF"/>
<stop offset="0.99436" stop-color="white"/>
</linearGradient>
<clipPath id="clip0">
<rect width="99.2799" height="99.28" fill="white"/>
</clipPath>
</defs>
</svg>
