<?xml version="1.0" encoding="UTF-8"?>
<svg width="100px" height="100px" viewBox="0 0 100 100" version="1.1" xmlns="http://www.w3.org/2000/svg" xmlns:xlink="http://www.w3.org/1999/xlink">
    <!-- Generator: Sketch 53.2 (72643) - https://sketchapp.com -->
    <title>Understand advanced topics in PowerApps/author-an-advanced-formula-that-uses-tables-records-and-collections-in-a-canvas-app-in-powerapps</title>
    <desc>Created with Sketch.</desc>
    <defs>
        <rect id="path-1" x="0" y="0" width="96" height="96" rx="48"></rect>
        <filter x="-6.9%" y="-8.5%" width="113.8%" height="117.0%" filterUnits="objectBoundingBox" id="filter-3">
            <feOffset dx="0" dy="2" in="SourceAlpha" result="shadowOffsetOuter1"></feOffset>
            <feColorMatrix values="0 0 0 0 0   0 0 0 0 0   0 0 0 0 0  0 0 0 0.0982223732 0" type="matrix" in="shadowOffsetOuter1" result="shadowMatrixOuter1"></feColorMatrix>
            <feMerge>
                <feMergeNode in="shadowMatrixOuter1"></feMergeNode>
                <feMergeNode in="SourceGraphic"></feMergeNode>
            </feMerge>
        </filter>
        <path d="M25.2721805,5.57020318 C23.784737,3.07902034 21.4214326,1.29994369 18.6213671,0.587837498 C17.7460908,0.410108157 16.8713992,0.231784403 15.9961229,0.231784403 C11.008159,0.231784403 6.72006534,3.70137024 5.49456161,8.59457404 C4.7946914,11.3526481 5.2320372,14.1992896 6.63236231,16.6904725 L1.63995533,22.4277425 C0.589857671,23.4953073 0.589857671,25.3635459 1.63995533,26.4311107 C2.25270719,26.9648932 2.95257741,27.2317844 3.65244762,27.2317844 C4.35231783,27.2317844 5.05277273,26.9648932 5.6649399,26.4311107 L10.6567622,20.6944351 C11.5320385,21.2282176 12.4944331,21.5842707 13.4574124,21.8511619 C14.3326887,22.0288912 15.2073803,22.207215 16.0826566,22.207215 C21.0706204,22.207215 25.3587141,18.7376292 26.5842179,13.8444254 C27.1969697,10.9971894 26.7596239,8.06138602 25.2721805,5.57020318 Z M23.3468065,13.0437517 C22.4715302,16.5133375 19.4960586,18.9153585 15.9961229,18.9153585 C15.383371,18.9153585 14.7712039,18.8261966 14.158452,18.6484673 C13.2831757,18.3815761 12.4084841,18.025523 11.7080292,17.4917405 C10.920456,16.9579581 10.3077041,16.2464463 9.78265529,15.5343401 C8.64485459,13.7552635 8.11980576,11.6195393 8.64485459,9.39584211 C9.52013087,5.92625627 12.4956025,3.52423531 15.9955382,3.52423531 C16.6082901,3.52423531 17.2204573,3.61339719 17.8332091,3.79112653 C19.7585831,4.32490896 21.4214326,5.48163571 22.4715302,7.26071236 C23.5216279,9.03978901 23.8718554,11.0863513 23.3468065,13.0437517 Z" id="path-4"></path>
        <filter x="-11.5%" y="-3.7%" width="115.4%" height="107.4%" filterUnits="objectBoundingBox" id="filter-5">
            <feOffset dx="-2" dy="0" in="SourceAlpha" result="shadowOffsetOuter1"></feOffset>
            <feColorMatrix values="0 0 0 0 0   0 0 0 0 0   0 0 0 0 0  0 0 0 0.2 0" type="matrix" in="shadowOffsetOuter1"></feColorMatrix>
        </filter>
    </defs>
    <g id="Badges" stroke="none" stroke-width="1" fill="none" fill-rule="evenodd">
        <g id="Understand-advanced-topics-in-PowerApps" transform="translate(-50.000000, -260.000000)">
            <g id="Understand-advanced-topics-in-PowerApps/author-an-advanced-formula-that-uses-tables-records-and-collections-in-a-canvas-app-in-powerapps" transform="translate(50.000000, 260.000000)">
                <g id="Mask" transform="translate(2.000000, 2.000000)">
                    <mask id="mask-2" fill="white">
                        <use xlink:href="#path-1"></use>
                    </mask>
                    <use id="BG" fill="#965596" xlink:href="#path-1"></use>
                    <g id="Group-10" mask="url(#mask-2)">
                        <g transform="translate(16.000000, 24.000000)">
                            <g id="Group-7">
                                <g id="Browser" filter="url(#filter-3)">
                                    <path d="M3.625,47 C1.63125,47 0,45.4333333 0,43.5185185 L0,3.48148148 C0,1.56666667 1.63125,0 3.625,0 L54.375,0 C56.36875,0 58,1.56666667 58,3.48148148 L58,43.5185185 C58,45.4333333 56.36875,47 54.375,47 L3.625,47" id="Fill-1485" fill="#30404D"></path>
                                    <path d="M5.11538462,43.7209302 C4.14230769,43.7209302 3.34615385,42.9245847 3.34615385,41.9512735 L3.34615385,8.32779623 C3.34615385,7.35448505 4.14230769,6.55813953 5.11538462,6.55813953 L52.8846154,6.55813953 C53.8576923,6.55813953 54.6538462,7.35448505 54.6538462,8.32779623 L54.6538462,41.9512735 C54.6538462,42.9245847 53.8576923,43.7209302 52.8846154,43.7209302 L5.11538462,43.7209302" id="Fill-1486" fill="#FFFFFF"></path>
                                    <path d="M4.46153846,3.27906977 C4.46153846,2.67499225 4.96123077,2.18604651 5.57692308,2.18604651 C6.19335897,2.18604651 6.69230769,2.67499225 6.69230769,3.27906977 C6.69230769,3.8824186 6.19335897,4.37209302 5.57692308,4.37209302 C4.96123077,4.37209302 4.46153846,3.8824186 4.46153846,3.27906977" id="Fill-1487" fill="#DF5142"></path>
                                    <path d="M8.92307692,3.27906977 C8.92307692,2.67499225 9.42276923,2.18604651 10.0384615,2.18604651 C10.6548974,2.18604651 11.1538462,2.67499225 11.1538462,3.27906977 C11.1538462,3.8824186 10.6548974,4.37209302 10.0384615,4.37209302 C9.42276923,4.37209302 8.92307692,3.8824186 8.92307692,3.27906977" id="Fill-1488" fill="#EFB252"></path>
                                    <path d="M13.3846154,3.27906977 C13.3846154,2.67499225 13.8843077,2.18604651 14.5,2.18604651 C15.1164359,2.18604651 15.6153846,2.67499225 15.6153846,3.27906977 C15.6153846,3.8824186 15.1164359,4.37209302 14.5,4.37209302 C13.8843077,4.37209302 13.3846154,3.8824186 13.3846154,3.27906977" id="Fill-1489" fill="#7CB65A"></path>
                                    <path d="M52.1819127,4.37209302 L21.4334719,4.37209302 C20.684657,4.37209302 20.0769231,3.8824186 20.0769231,3.27906977 C20.0769231,2.67572093 20.684657,2.18604651 21.4334719,2.18604651 L52.1819127,2.18604651 C52.9307277,2.18604651 53.5384615,2.67572093 53.5384615,3.27906977 C53.5384615,3.8824186 52.9307277,4.37209302 52.1819127,4.37209302" id="Fill-1490" fill="#697D85"></path>
                                </g>
                                <g id="Report-Sheer" transform="translate(6.000000, 34.000000)" fill="#D8D8D8" fill-rule="nonzero">
                                    <rect id="Rectangle" x="0" y="0" width="25" height="2" rx="1"></rect>
                                    <rect id="Rectangle" x="0" y="4" width="25" height="2" rx="1"></rect>
                                </g>
                                <g id="Report-Sheer" transform="translate(32.000000, 22.000000)" fill="#D8D8D8" fill-rule="nonzero">
                                    <rect id="Rectangle" x="0" y="0" width="20" height="1" rx="0.5"></rect>
                                    <rect id="Rectangle" x="0" y="3" width="20" height="1" rx="0.5"></rect>
                                </g>
                                <g id="Magnifying-Glass" transform="translate(34.000000, 26.000000)">
                                    <g transform="translate(15.334441, 14.889444) rotate(-84.000000) translate(-15.334441, -14.889444) translate(1.834441, 0.889444)" fill-rule="nonzero" id="Shape">
                                        <g>
                                            <use fill="black" fill-opacity="1" filter="url(#filter-5)" xlink:href="#path-4"></use>
                                            <use fill="#3E3E3E" xlink:href="#path-4"></use>
                                        </g>
                                    </g>
                                    <path d="M12.9808439,20 C12.3336045,20 11.6869827,19.9073109 11.0397433,19.7225505 C10.1152038,19.445101 9.19128187,19.0749623 8.45140324,18.5200633 C7.61950297,17.9651643 6.97226357,17.225505 6.41766339,16.4852277 C5.21582381,14.6357703 4.66122363,12.4155563 5.21582381,10.1038891 C6.1403633,6.49704553 9.28330351,4 12.9802263,4 C13.6274657,4 14.2740875,4.09268914 14.9213269,4.2774495 C16.9550668,4.83234851 18.7115065,6.03483567 19.8207069,7.88429305 C20.9299072,9.64167922 21.2998466,11.8612752 20.7452464,13.8961109 C19.8207069,17.5029545 16.6777667,20 12.9808439,20 Z" id="Path" fill="#FFFFFF"></path>
                                    <path d="M16,7 L16,7.42089276 L10.9146501,7.42049792 L9.26420117,16.085658 C9.24684439,16.1767781 9.17150277,16.2458052 9.07920224,16.2556711 C9.07170736,16.2560656 9.06460732,16.25646 9.05750728,16.25646 C8.97309243,16.25646 8.89616842,16.205969 8.86343007,16.1270819 L7.94828118,13.9303204 L7.32858516,14.7050438 L7,14.4419353 L7.84138169,13.3899054 C7.8879283,13.3319195 7.96051009,13.301941 8.03506506,13.3129854 C8.1084345,13.3232411 8.17115843,13.3717599 8.19994838,13.4403943 L8.98216465,15.3176487 L10.5339542,7.17082914 C10.5528883,7.07142453 10.6392784,7.00002827 10.7406542,7.00002827 L16,7 Z M12.3619234,11.1458138 L13.4754513,10.0322859 L14.5889792,11.1458138 L14.8864014,10.8483917 L13.7728734,9.73486379 L14.8864014,8.62133585 L14.5889792,8.32391372 L13.4754513,9.43744166 L12.3619234,8.32391372 L12.0645013,8.62133585 L13.1780292,9.73486379 L12.0645013,10.8483917 L12.3619234,11.1458138 Z M13.46606,14.6904822 L12.3911072,12.9887344 L12.0353074,13.2135808 L13.2147765,15.0813429 L12.6672625,15.9329845 L13.0210931,16.1605878 L14.9145047,13.215146 L14.560674,12.9875428 L13.46606,14.6904822 Z M11.3718964,12.2594428 L15.5796122,12.2594428 L15.5796122,11.83855 L11.3718964,11.83855 L11.3718964,12.2594428 Z" id="Fill-1" fill="#30404D"></path>
                                    <path d="M7.85617926,18.0682948 C7.29916897,17.5923269 6.83250063,17.0389502 6.41766339,16.4852277 C5.21582381,14.6357703 4.66122363,12.4155563 5.21582381,10.1038891 C6.1403633,6.49704553 9.28330351,4 12.9802263,4 C13.6274657,4 14.2740875,4.09268914 14.9213269,4.2774495 C16.9550668,4.83234851 18.7115065,6.03483567 19.8207069,7.88429305 C19.9739822,8.12713822 20.1131412,8.37880938 20.2376949,8.63759938 C19.3000894,7.84518441 18.1850551,7.28331889 16.9712424,6.9521342 C16.324003,6.76737384 15.6773812,6.67468469 15.0301417,6.67468469 C11.333219,6.67468469 8.19027875,9.17173023 7.26573926,12.7785738 C6.81643747,14.6513396 7.09512715,16.4640826 7.85617926,18.0682948 Z" id="Combined-Shape" fill-opacity="0.63" fill="#E6E6E6"></path>
                                </g>
                                <g id="table" transform="translate(5.000000, 10.000000)">
                                    <path d="M-1.42108547e-13,20.7138462 C-1.42108547e-13,21.4212308 0.725841346,22 1.61298077,22 C15.6019053,22 23.1027066,22 24.1153846,22 C25.6344016,22 25.8076923,21.5166307 25.8076923,20.0677638 C25.8076923,19.1018525 25.8076923,14.3869569 25.8076923,5.92307692 L-1.42108547e-13,5.92307692 L-1.42108547e-13,20.7138462 Z" id="Fill-1315" fill="#DCDEDE"></path>
                                    <path d="M25.8076923,0.846153846 C25.8076923,0.380769231 25.4447716,0 25.0012019,0 L0.806490385,0 C0.362920673,0 0,0.380769231 0,0.846153846 L0,5.07692308 L25.8076923,5.07692308 L25.8076923,0.846153846" id="Fill-1316" fill="#DCDEDE"></path>
                                    <polygon id="Fill-1317" fill="#FFFFFF" points="0 5.92307692 25.8076923 5.92307692 25.8076923 5.07692308 0 5.07692308"></polygon>
                                    <path d="M4.23076923,9.73076923 C4.23076923,9.96346154 4.04038462,10.1538462 3.80769231,10.1538462 L2.11538462,10.1538462 C1.88269231,10.1538462 1.69230769,9.96346154 1.69230769,9.73076923 L1.69230769,8.03846154 C1.69230769,7.80576923 1.88269231,7.61538462 2.11538462,7.61538462 L3.80769231,7.61538462 C4.04038462,7.61538462 4.23076923,7.80576923 4.23076923,8.03846154 L4.23076923,9.73076923" id="Fill-1327" fill="#FFFFFF"></path>
                                    <path d="M7.61538462,9.73076923 C7.61538462,9.96346154 7.425,10.1538462 7.19230769,10.1538462 L5.5,10.1538462 C5.26730769,10.1538462 5.07692308,9.96346154 5.07692308,9.73076923 L5.07692308,8.03846154 C5.07692308,7.80576923 5.26730769,7.61538462 5.5,7.61538462 L7.19230769,7.61538462 C7.425,7.61538462 7.61538462,7.80576923 7.61538462,8.03846154 L7.61538462,9.73076923" id="Fill-1328" fill="#FFFFFF"></path>
                                    <path d="M11,9.73076923 C11,9.96346154 10.8096154,10.1538462 10.5769231,10.1538462 L8.88461538,10.1538462 C8.65192308,10.1538462 8.46153846,9.96346154 8.46153846,9.73076923 L8.46153846,8.03846154 C8.46153846,7.80576923 8.65192308,7.61538462 8.88461538,7.61538462 L10.5769231,7.61538462 C10.8096154,7.61538462 11,7.80576923 11,8.03846154 L11,9.73076923" id="Fill-1329" fill="#FFFFFF"></path>
                                    <path d="M14.3846154,9.73076923 C14.3846154,9.96346154 14.1942308,10.1538462 13.9615385,10.1538462 L12.2692308,10.1538462 C12.0365385,10.1538462 11.8461538,9.96346154 11.8461538,9.73076923 L11.8461538,8.03846154 C11.8461538,7.80576923 12.0365385,7.61538462 12.2692308,7.61538462 L13.9615385,7.61538462 C14.1942308,7.61538462 14.3846154,7.80576923 14.3846154,8.03846154 L14.3846154,9.73076923" id="Fill-1330" fill="#FFFFFF"></path>
                                    <path d="M17.7692308,9.73076923 C17.7692308,9.96346154 17.5788462,10.1538462 17.3461538,10.1538462 L15.6538462,10.1538462 C15.4211538,10.1538462 15.2307692,9.96346154 15.2307692,9.73076923 L15.2307692,8.03846154 C15.2307692,7.80576923 15.4211538,7.61538462 15.6538462,7.61538462 L17.3461538,7.61538462 C17.5788462,7.61538462 17.7692308,7.80576923 17.7692308,8.03846154 L17.7692308,9.73076923" id="Fill-1331" fill="#FFFFFF"></path>
                                    <path d="M21.1538462,9.73076923 C21.1538462,9.96346154 20.9634615,10.1538462 20.7307692,10.1538462 L19.0384615,10.1538462 C18.8057692,10.1538462 18.6153846,9.96346154 18.6153846,9.73076923 L18.6153846,8.03846154 C18.6153846,7.80576923 18.8057692,7.61538462 19.0384615,7.61538462 L20.7307692,7.61538462 C20.9634615,7.61538462 21.1538462,7.80576923 21.1538462,8.03846154 L21.1538462,9.73076923" id="Fill-1332" fill="#FFFFFF"></path>
                                    <path d="M24.5384615,9.73076923 C24.5384615,9.96346154 24.3480769,10.1538462 24.1153846,10.1538462 L22.4230769,10.1538462 C22.1903846,10.1538462 22,9.96346154 22,9.73076923 L22,8.03846154 C22,7.80576923 22.1903846,7.61538462 22.4230769,7.61538462 L24.1153846,7.61538462 C24.3480769,7.61538462 24.5384615,7.80576923 24.5384615,8.03846154 L24.5384615,9.73076923" id="Fill-1333" fill="#FFFFFF"></path>
                                    <path d="M4.23076923,13.1153846 C4.23076923,13.3480769 4.04038462,13.5384615 3.80769231,13.5384615 L2.11538462,13.5384615 C1.88269231,13.5384615 1.69230769,13.3480769 1.69230769,13.1153846 L1.69230769,11.4230769 C1.69230769,11.1903846 1.88269231,11 2.11538462,11 L3.80769231,11 C4.04038462,11 4.23076923,11.1903846 4.23076923,11.4230769 L4.23076923,13.1153846" id="Fill-1334" fill="#FFFFFF"></path>
                                    <path d="M7.61538462,13.1153846 C7.61538462,13.3480769 7.425,13.5384615 7.19230769,13.5384615 L5.5,13.5384615 C5.26730769,13.5384615 5.07692308,13.3480769 5.07692308,13.1153846 L5.07692308,11.4230769 C5.07692308,11.1903846 5.26730769,11 5.5,11 L7.19230769,11 C7.425,11 7.61538462,11.1903846 7.61538462,11.4230769 L7.61538462,13.1153846" id="Fill-1335" fill="#FFFFFF"></path>
                                    <path d="M11,13.1153846 C11,13.3480769 10.8096154,13.5384615 10.5769231,13.5384615 L8.88461538,13.5384615 C8.65192308,13.5384615 8.46153846,13.3480769 8.46153846,13.1153846 L8.46153846,11.4230769 C8.46153846,11.1903846 8.65192308,11 8.88461538,11 L10.5769231,11 C10.8096154,11 11,11.1903846 11,11.4230769 L11,13.1153846" id="Fill-1336" fill="#FFFFFF"></path>
                                    <path d="M14.3846154,13.1153846 C14.3846154,13.3480769 14.1942308,13.5384615 13.9615385,13.5384615 L12.2692308,13.5384615 C12.0365385,13.5384615 11.8461538,13.3480769 11.8461538,13.1153846 L11.8461538,11.4230769 C11.8461538,11.1903846 12.0365385,11 12.2692308,11 L13.9615385,11 C14.1942308,11 14.3846154,11.1903846 14.3846154,11.4230769 L14.3846154,13.1153846" id="Fill-1337" fill="#FFFFFF"></path>
                                    <path d="M17.7692308,13.1153846 C17.7692308,13.3480769 17.5788462,13.5384615 17.3461538,13.5384615 L15.6538462,13.5384615 C15.4211538,13.5384615 15.2307692,13.3480769 15.2307692,13.1153846 L15.2307692,11.4230769 C15.2307692,11.1903846 15.4211538,11 15.6538462,11 L17.3461538,11 C17.5788462,11 17.7692308,11.1903846 17.7692308,11.4230769 L17.7692308,13.1153846" id="Fill-1338" fill="#FFFFFF"></path>
                                    <path d="M21.1538462,13.1153846 C21.1538462,13.3480769 20.9634615,13.5384615 20.7307692,13.5384615 L19.0384615,13.5384615 C18.8057692,13.5384615 18.6153846,13.3480769 18.6153846,13.1153846 L18.6153846,11.4230769 C18.6153846,11.1903846 18.8057692,11 19.0384615,11 L20.7307692,11 C20.9634615,11 21.1538462,11.1903846 21.1538462,11.4230769 L21.1538462,13.1153846" id="Fill-1339" fill="#FFFFFF"></path>
                                    <path d="M24.5384615,13.1153846 C24.5384615,13.3480769 24.3480769,13.5384615 24.1153846,13.5384615 L22.4230769,13.5384615 C22.1903846,13.5384615 22,13.3480769 22,13.1153846 L22,11.4230769 C22,11.1903846 22.1903846,11 22.4230769,11 L24.1153846,11 C24.3480769,11 24.5384615,11.1903846 24.5384615,11.4230769 L24.5384615,13.1153846" id="Fill-1340" fill="#FFFFFF"></path>
                                    <path d="M4.23076923,16.5 C4.23076923,16.7326923 4.04038462,16.9230769 3.80769231,16.9230769 L2.11538462,16.9230769 C1.88269231,16.9230769 1.69230769,16.7326923 1.69230769,16.5 L1.69230769,14.8076923 C1.69230769,14.575 1.88269231,14.3846154 2.11538462,14.3846154 L3.80769231,14.3846154 C4.04038462,14.3846154 4.23076923,14.575 4.23076923,14.8076923 L4.23076923,16.5" id="Fill-1341" fill="#FFFFFF"></path>
                                    <path d="M7.61538462,16.5 C7.61538462,16.7326923 7.425,16.9230769 7.19230769,16.9230769 L5.5,16.9230769 C5.26730769,16.9230769 5.07692308,16.7326923 5.07692308,16.5 L5.07692308,14.8076923 C5.07692308,14.575 5.26730769,14.3846154 5.5,14.3846154 L7.19230769,14.3846154 C7.425,14.3846154 7.61538462,14.575 7.61538462,14.8076923 L7.61538462,16.5" id="Fill-1342" fill="#FFFFFF"></path>
                                    <path d="M11,16.5 C11,16.7326923 10.8096154,16.9230769 10.5769231,16.9230769 L8.88461538,16.9230769 C8.65192308,16.9230769 8.46153846,16.7326923 8.46153846,16.5 L8.46153846,14.8076923 C8.46153846,14.575 8.65192308,14.3846154 8.88461538,14.3846154 L10.5769231,14.3846154 C10.8096154,14.3846154 11,14.575 11,14.8076923 L11,16.5" id="Fill-1343" fill="#FFFFFF"></path>
                                    <path d="M14.3846154,16.5 C14.3846154,16.7326923 14.1942308,16.9230769 13.9615385,16.9230769 L12.2692308,16.9230769 C12.0365385,16.9230769 11.8461538,16.7326923 11.8461538,16.5 L11.8461538,14.8076923 C11.8461538,14.575 12.0365385,14.3846154 12.2692308,14.3846154 L13.9615385,14.3846154 C14.1942308,14.3846154 14.3846154,14.575 14.3846154,14.8076923 L14.3846154,16.5" id="Fill-1344" fill="#FFFFFF"></path>
                                    <path d="M17.7692308,16.5 C17.7692308,16.7326923 17.5788462,16.9230769 17.3461538,16.9230769 L15.6538462,16.9230769 C15.4211538,16.9230769 15.2307692,16.7326923 15.2307692,16.5 L15.2307692,14.8076923 C15.2307692,14.575 15.4211538,14.3846154 15.6538462,14.3846154 L17.3461538,14.3846154 C17.5788462,14.3846154 17.7692308,14.575 17.7692308,14.8076923 L17.7692308,16.5" id="Fill-1345" fill="#FFFFFF"></path>
                                    <path d="M21.1538462,16.5 C21.1538462,16.7326923 20.9634615,16.9230769 20.7307692,16.9230769 L19.0384615,16.9230769 C18.8057692,16.9230769 18.6153846,16.7326923 18.6153846,16.5 L18.6153846,14.8076923 C18.6153846,14.575 18.8057692,14.3846154 19.0384615,14.3846154 L20.7307692,14.3846154 C20.9634615,14.3846154 21.1538462,14.575 21.1538462,14.8076923 L21.1538462,16.5" id="Fill-1346" fill="#FFFFFF"></path>
                                    <path d="M24.5384615,16.5 C24.5384615,16.7326923 24.3480769,16.9230769 24.1153846,16.9230769 L22.4230769,16.9230769 C22.1903846,16.9230769 22,16.7326923 22,16.5 L22,14.8076923 C22,14.575 22.1903846,14.3846154 22.4230769,14.3846154 L24.1153846,14.3846154 C24.3480769,14.3846154 24.5384615,14.575 24.5384615,14.8076923 L24.5384615,16.5" id="Fill-1347" fill="#FFFFFF"></path>
                                    <path d="M4.23076923,19.8846154 C4.23076923,20.1173077 4.04038462,20.3076923 3.80769231,20.3076923 L2.11538462,20.3076923 C1.88269231,20.3076923 1.69230769,20.1173077 1.69230769,19.8846154 L1.69230769,18.1923077 C1.69230769,17.9596154 1.88269231,17.7692308 2.11538462,17.7692308 L3.80769231,17.7692308 C4.04038462,17.7692308 4.23076923,17.9596154 4.23076923,18.1923077 L4.23076923,19.8846154" id="Fill-1348" fill="#FFFFFF"></path>
                                    <path d="M7.61538462,19.8846154 C7.61538462,20.1173077 7.425,20.3076923 7.19230769,20.3076923 L5.5,20.3076923 C5.26730769,20.3076923 5.07692308,20.1173077 5.07692308,19.8846154 L5.07692308,18.1923077 C5.07692308,17.9596154 5.26730769,17.7692308 5.5,17.7692308 L7.19230769,17.7692308 C7.425,17.7692308 7.61538462,17.9596154 7.61538462,18.1923077 L7.61538462,19.8846154" id="Fill-1349" fill="#FFFFFF"></path>
                                    <path d="M11,19.8846154 C11,20.1173077 10.8096154,20.3076923 10.5769231,20.3076923 L8.88461538,20.3076923 C8.65192308,20.3076923 8.46153846,20.1173077 8.46153846,19.8846154 L8.46153846,18.1923077 C8.46153846,17.9596154 8.65192308,17.7692308 8.88461538,17.7692308 L10.5769231,17.7692308 C10.8096154,17.7692308 11,17.9596154 11,18.1923077 L11,19.8846154" id="Fill-1350" fill="#FFFFFF"></path>
                                    <path d="M14.3846154,19.8846154 C14.3846154,20.1173077 14.1942308,20.3076923 13.9615385,20.3076923 L12.2692308,20.3076923 C12.0365385,20.3076923 11.8461538,20.1173077 11.8461538,19.8846154 L11.8461538,18.1923077 C11.8461538,17.9596154 12.0365385,17.7692308 12.2692308,17.7692308 L13.9615385,17.7692308 C14.1942308,17.7692308 14.3846154,17.9596154 14.3846154,18.1923077 L14.3846154,19.8846154" id="Fill-1351" fill="#FFFFFF"></path>
                                    <path d="M17.7692308,19.8846154 C17.7692308,20.1173077 17.5788462,20.3076923 17.3461538,20.3076923 L15.6538462,20.3076923 C15.4211538,20.3076923 15.2307692,20.1173077 15.2307692,19.8846154 L15.2307692,18.1923077 C15.2307692,17.9596154 15.4211538,17.7692308 15.6538462,17.7692308 L17.3461538,17.7692308 C17.5788462,17.7692308 17.7692308,17.9596154 17.7692308,18.1923077 L17.7692308,19.8846154" id="Fill-1352" fill="#FFFFFF"></path>
                                    <path d="M21.1538462,19.8846154 C21.1538462,20.1173077 20.9634615,20.3076923 20.7307692,20.3076923 L19.0384615,20.3076923 C18.8057692,20.3076923 18.6153846,20.1173077 18.6153846,19.8846154 L18.6153846,18.1923077 C18.6153846,17.9596154 18.8057692,17.7692308 19.0384615,17.7692308 L20.7307692,17.7692308 C20.9634615,17.7692308 21.1538462,17.9596154 21.1538462,18.1923077 L21.1538462,19.8846154" id="Fill-1353" fill="#FFFFFF"></path>
                                    <path d="M24.5384615,19.8846154 C24.5384615,20.1173077 24.3480769,20.3076923 24.1153846,20.3076923 L22.4230769,20.3076923 C22.1903846,20.3076923 22,20.1173077 22,19.8846154 L22,18.1923077 C22,17.9596154 22.1903846,17.7692308 22.4230769,17.7692308 L24.1153846,17.7692308 C24.3480769,17.7692308 24.5384615,17.9596154 24.5384615,18.1923077 L24.5384615,19.8846154" id="Fill-1354" fill="#FFFFFF"></path>
                                </g>
                            </g>
                            <g id="Report-Sheer" transform="translate(32.000000, 16.000000)">
                                <rect id="Rectangle" fill="#D8D8D8" fill-rule="nonzero" x="0" y="0" width="20" height="1" rx="0.5"></rect>
                                <rect id="Rectangle" fill="#D8D8D8" fill-rule="nonzero" x="0" y="3" width="20" height="1" rx="0.5"></rect>
                            </g>
                            <g id="Report-Sheer" transform="translate(32.000000, 10.000000)">
                                <rect id="Rectangle" fill="#D8D8D8" fill-rule="nonzero" x="0" y="0" width="20" height="1" rx="0.5"></rect>
                                <rect id="Rectangle" fill="#D8D8D8" fill-rule="nonzero" x="0" y="3" width="20" height="1" rx="0.5"></rect>
                            </g>
                        </g>
                    </g>
                </g>
                <g id="PowerApps-Border" stroke="#742774" stroke-width="4">
                    <rect id="Azure-Border" x="2" y="2" width="96" height="96" rx="48"></rect>
                </g>
            </g>
        </g>
    </g>
</svg>