<svg width="103" height="103" viewBox="0 0 103 103" fill="none" xmlns="http://www.w3.org/2000/svg">
<path d="M51.6413 98.5135C25.7913 98.5135 4.8313 77.5636 4.8313 51.7036C4.8313 25.8436 25.7913 4.89355 51.6413 4.89355C77.4913 4.89355 98.4513 25.8536 98.4513 51.7036C98.4513 77.5536 77.4913 98.5135 51.6413 98.5135Z" fill="url(#paint0_linear)"/>
<path fill-rule="evenodd" clip-rule="evenodd" d="M97.5415 51.7037C97.5415 77.0537 76.9915 97.6037 51.6415 97.6037C26.2915 97.6037 5.74146 77.0537 5.74146 51.7037C5.74146 26.3537 26.2915 5.80372 51.6415 5.80372C76.9915 5.80372 97.5415 26.3537 97.5415 51.7037ZM51.6415 2.06372C79.0615 2.06372 101.281 24.2837 101.281 51.7037C101.281 79.1237 79.0515 101.344 51.6415 101.344C24.2215 101.344 2.00146 79.1137 2.00146 51.7037C2.00146 24.2837 24.2215 2.06372 51.6415 2.06372Z" fill="#F2F1F0"/>
<path fill-rule="evenodd" clip-rule="evenodd" d="M94.7313 51.7035C94.7313 75.5035 75.4413 94.7935 51.6413 94.7935C27.8413 94.7935 8.55128 75.5035 8.55128 51.7035C8.55128 27.9035 27.8413 8.61353 51.6413 8.61353C75.4413 8.61353 94.7313 27.9035 94.7313 51.7035ZM51.6413 4.87354C77.5013 4.87354 98.4713 25.8435 98.4713 51.7035C98.4713 77.5635 77.5013 98.5335 51.6413 98.5335C25.7813 98.5335 4.81128 77.5635 4.81128 51.7035C4.81128 25.8435 25.7713 4.87354 51.6413 4.87354Z" fill="#0078D4"/>
<path d="M73.1015 57.0837H63.7715" stroke="white" stroke-width="1.2" stroke-miterlimit="10"/>
<path d="M73.1015 43.5938H63.7715" stroke="white" stroke-width="1.2" stroke-miterlimit="10"/>
<path d="M73.1015 29.5337H63.7715V71.7337H73.1015" stroke="white" stroke-width="1.2" stroke-miterlimit="10" stroke-linejoin="round"/>
<path d="M82.1014 24.5935H68.9814C68.4114 24.5935 67.9514 25.0535 67.9514 25.6235V34.1735C67.9514 34.7435 68.4114 35.2035 68.9814 35.2035H82.4814C83.0514 35.2035 83.5114 34.7435 83.5114 34.1735V26.0035C83.5014 25.2235 82.8714 24.5935 82.1014 24.5935Z" fill="#50E6FF"/>
<path d="M82.1014 38.3936H68.9814C68.4114 38.3936 67.9514 38.8536 67.9514 39.4236V47.9736C67.9514 48.5436 68.4114 49.0036 68.9814 49.0036H82.4814C83.0514 49.0036 83.5114 48.5436 83.5114 47.9736V39.8036C83.5014 39.0236 82.8714 38.3936 82.1014 38.3936Z" fill="#50E6FF"/>
<path d="M82.1014 52.1936H68.9814C68.4114 52.1936 67.9514 52.6536 67.9514 53.2236V61.7736C67.9514 62.3436 68.4114 62.8036 68.9814 62.8036H82.4814C83.0514 62.8036 83.5114 62.3436 83.5114 61.7736V53.6036C83.5014 52.8236 82.8714 52.1936 82.1014 52.1936Z" fill="#3BCAF4"/>
<path d="M82.1014 65.9937H68.9814C68.4114 65.9937 67.9514 66.4537 67.9514 67.0237V75.5737C67.9514 76.1437 68.4114 76.6037 68.9814 76.6037H82.4814C83.0514 76.6037 83.5114 76.1437 83.5114 75.5737V67.4036C83.5014 66.6236 82.8714 65.9937 82.1014 65.9937Z" fill="#32B0E7"/>
<path d="M63.1815 50.5237H53.2715" stroke="white" stroke-width="1.2" stroke-miterlimit="10"/>
<path d="M57.4213 64.3737H15.2713C14.4813 64.3737 13.8413 63.7337 13.8413 62.9437V38.4637C13.8413 37.6737 14.4813 37.0337 15.2713 37.0337H57.4213C58.2113 37.0337 58.8513 37.6737 58.8513 38.4637V62.9337C58.8513 63.7237 58.2113 64.3737 57.4213 64.3737Z" fill="#002D4C"/>
<path d="M27.7912 60.5536C33.2012 60.5536 37.5912 56.1636 37.5912 50.7536C37.5912 45.3436 33.2012 40.9536 27.7912 40.9536C22.3812 40.9536 17.9912 45.3436 17.9912 50.7536C17.9912 56.1636 22.3812 60.5536 27.7912 60.5536Z" fill="#F2F1F0"/>
<path d="M33.5312 55.5237C33.2113 52.6137 30.7113 50.3137 27.6813 50.3137C24.6813 50.3137 22.2013 52.5537 21.8313 55.4437C21.7813 55.6437 21.7812 55.8637 21.7812 56.0637C21.8612 56.8837 22.4313 57.6837 23.5013 58.3037C25.8013 59.6237 29.5513 59.6237 31.8313 58.3037C32.9113 57.6837 33.4513 56.8837 33.5312 56.0637C33.5813 55.8937 33.5513 55.6937 33.5312 55.5237Z" fill="#0078D4"/>
<path d="M27.6811 49.4736C29.6411 49.4736 31.2211 47.8936 31.2211 45.9536C31.2211 44.0036 29.6311 42.4336 27.6811 42.4336C25.7211 42.4336 24.1411 44.0136 24.1411 45.9536C24.1411 47.9036 25.7211 49.4736 27.6811 49.4736Z" fill="#0078D4"/>
<path d="M75.2313 31.6637C75.1213 30.6337 74.2313 29.8237 73.1613 29.8237C72.1013 29.8237 71.2313 30.6137 71.0913 31.6337C71.0713 31.7037 71.0713 31.7837 71.0713 31.8537C71.1013 32.1437 71.3013 32.4237 71.6813 32.6437C72.4913 33.1137 73.8213 33.1137 74.6213 32.6437C75.0013 32.4237 75.1913 32.1437 75.2213 31.8537C75.2413 31.7937 75.2413 31.7237 75.2313 31.6637Z" fill="#0078D4"/>
<path d="M73.1614 29.5237C73.8514 29.5237 74.4114 28.9637 74.4114 28.2837C74.4114 27.5937 73.8514 27.0437 73.1614 27.0437C72.4714 27.0437 71.9114 27.6037 71.9114 28.2837C71.9114 28.9737 72.4714 29.5237 73.1614 29.5237Z" fill="#0078D4"/>
<path d="M75.2313 45.5236C75.1213 44.4936 74.2313 43.6836 73.1613 43.6836C72.1013 43.6836 71.2313 44.4736 71.0913 45.4936C71.0713 45.5636 71.0713 45.6436 71.0713 45.7136C71.1013 46.0036 71.3013 46.2836 71.6813 46.5036C72.4913 46.9736 73.8213 46.9736 74.6213 46.5036C75.0013 46.2836 75.1913 46.0036 75.2213 45.7136C75.2413 45.6536 75.2413 45.5836 75.2313 45.5236Z" fill="#0078D4"/>
<path d="M73.1614 43.3936C73.8514 43.3936 74.4114 42.8336 74.4114 42.1536C74.4114 41.4636 73.8514 40.9136 73.1614 40.9136C72.4714 40.9136 71.9114 41.4736 71.9114 42.1536C71.9114 42.8336 72.4714 43.3936 73.1614 43.3936Z" fill="#0078D4"/>
<path d="M75.2313 58.7736C75.1213 57.7436 74.2313 56.9336 73.1613 56.9336C72.1013 56.9336 71.2313 57.7236 71.0913 58.7436C71.0713 58.8136 71.0713 58.8936 71.0713 58.9636C71.1013 59.2536 71.3013 59.5336 71.6813 59.7536C72.4913 60.2236 73.8213 60.2236 74.6213 59.7536C75.0013 59.5336 75.1913 59.2536 75.2213 58.9636C75.2413 58.9136 75.2413 58.8336 75.2313 58.7736Z" fill="#0078D4"/>
<path d="M73.1614 56.6436C73.8514 56.6436 74.4114 56.0836 74.4114 55.4036C74.4114 54.7136 73.8514 54.1636 73.1614 54.1636C72.4714 54.1636 71.9114 54.7236 71.9114 55.4036C71.9114 56.0836 72.4714 56.6436 73.1614 56.6436Z" fill="#0078D4"/>
<path d="M75.2313 72.6337C75.1213 71.6037 74.2313 70.7937 73.1613 70.7937C72.1013 70.7937 71.2313 71.5837 71.0913 72.6037C71.0713 72.6737 71.0713 72.7537 71.0713 72.8237C71.1013 73.1137 71.3013 73.3937 71.6813 73.6137C72.4913 74.0837 73.8213 74.0837 74.6213 73.6137C75.0013 73.3937 75.1913 73.1137 75.2213 72.8237C75.2413 72.7737 75.2413 72.7037 75.2313 72.6337Z" fill="#0078D4"/>
<path d="M73.1614 70.5037C73.8514 70.5037 74.4114 69.9437 74.4114 69.2637C74.4114 68.5737 73.8514 68.0237 73.1614 68.0237C72.4714 68.0237 71.9114 68.5837 71.9114 69.2637C71.9114 69.9437 72.4714 70.5037 73.1614 70.5037Z" fill="#0078D4"/>
<path d="M48.5315 44.0336L47.0015 42.4536C46.7915 42.2336 46.4515 42.2436 46.2515 42.4736L39.8015 49.8436C39.5115 50.1736 39.5115 50.6636 39.8015 50.9936L46.2015 58.3436C46.4415 58.6236 46.8715 58.6236 47.1115 58.3436L49.0215 56.1436L49.2315 44.8036L48.5315 44.0336Z" fill="url(#paint1_linear)"/>
<path d="M56.0414 49.5236L49.6814 42.5736C49.4114 42.2836 48.9414 42.2736 48.6614 42.5636L45.7214 45.6036C45.4014 45.9336 45.4014 46.4536 45.7114 46.7936L48.7214 50.0236C48.9414 50.2636 48.9414 50.6236 48.7214 50.8636L45.6914 54.1336C45.3814 54.4636 45.3914 54.9836 45.7014 55.3136L48.6514 58.3736C48.9314 58.6636 49.4014 58.6636 49.6714 58.3636L56.0314 51.3536C56.5114 50.8336 56.5114 50.0436 56.0414 49.5236Z" fill="url(#paint2_linear)"/>
<path d="M56.3416 51.0237L53.5016 54.1737C53.2816 54.4137 52.9116 54.4237 52.6916 54.1937L49.8416 51.2737C49.3816 50.8037 49.3816 50.0437 49.8416 49.5737L52.6416 46.6837C52.8616 46.4537 53.2416 46.4637 53.4516 46.6937L56.3516 49.8837C56.6316 50.2037 56.6316 50.6937 56.3416 51.0237Z" fill="url(#paint3_linear)"/>
<defs>
<linearGradient id="paint0_linear" x1="49.8713" y1="-13.0894" x2="53.8543" y2="132.678" gradientUnits="userSpaceOnUse">
<stop stop-color="#00ABDE"/>
<stop offset="1" stop-color="#007ED8"/>
</linearGradient>
<linearGradient id="paint1_linear" x1="43.9976" y1="42.9072" x2="45.1814" y2="56.8169" gradientUnits="userSpaceOnUse">
<stop stop-color="#A23093"/>
<stop offset="1" stop-color="#692266"/>
</linearGradient>
<linearGradient id="paint2_linear" x1="45.4705" y1="50.4648" x2="56.3959" y2="50.4648" gradientUnits="userSpaceOnUse">
<stop stop-color="#E184C4"/>
<stop offset="1" stop-color="#D76EBC"/>
</linearGradient>
<linearGradient id="paint3_linear" x1="49.4926" y1="50.4302" x2="56.5629" y2="50.4302" gradientUnits="userSpaceOnUse">
<stop stop-color="#E89BCA"/>
<stop offset="1" stop-color="#E591C8"/>
</linearGradient>
</defs>
</svg>
