<svg width="103" height="103" viewBox="0 0 103 103" fill="none" xmlns="http://www.w3.org/2000/svg">
<path d="M51.6838 98.5135C25.8338 98.5135 4.87378 77.5636 4.87378 51.7036C4.87378 25.8436 25.8338 4.89355 51.6838 4.89355C77.5338 4.89355 98.4938 25.8536 98.4938 51.7036C98.4938 77.5536 77.5338 98.5135 51.6838 98.5135Z" fill="url(#paint0_linear)"/>
<path fill-rule="evenodd" clip-rule="evenodd" d="M97.5839 51.7035C97.5839 77.0535 77.0339 97.6035 51.6839 97.6035C26.3339 97.6035 5.78395 77.0535 5.78395 51.7035C5.78395 26.3535 26.3339 5.80348 51.6839 5.80348C77.0339 5.80348 97.5839 26.3535 97.5839 51.7035ZM51.6839 2.06348C79.1039 2.06348 101.324 24.2835 101.324 51.7035C101.324 79.1235 79.0939 101.343 51.6839 101.343C24.2639 101.343 2.04395 79.1135 2.04395 51.7035C2.04395 24.2835 24.2639 2.06348 51.6839 2.06348Z" fill="#F2F1F0"/>
<path fill-rule="evenodd" clip-rule="evenodd" d="M94.7738 51.7035C94.7738 75.5035 75.4838 94.7935 51.6838 94.7935C27.8838 94.7935 8.59376 75.5035 8.59376 51.7035C8.59376 27.9035 27.8838 8.61353 51.6838 8.61353C75.4838 8.61353 94.7738 27.9035 94.7738 51.7035ZM51.6838 4.87354C77.5438 4.87354 98.5138 25.8435 98.5138 51.7035C98.5138 77.5635 77.5438 98.5335 51.6838 98.5335C25.8238 98.5335 4.85376 77.5635 4.85376 51.7035C4.85376 25.8435 25.8138 4.87354 51.6838 4.87354Z" fill="#0078D4"/>
<path d="M51.6838 51.7037C51.6738 51.7037 51.6738 51.6937 51.6838 51.7037V51.7037Z" fill="#F2F1F0"/>
<path d="M51.7538 51.7838C51.6938 51.7238 51.6038 51.6338 51.6038 51.6338C51.6438 51.7038 51.6938 51.7538 51.7538 51.7838Z" fill="#F2F1F0"/>
<path d="M51.6638 51.6836C51.7138 51.7336 51.7038 51.7236 51.6638 51.6836V51.6836Z" fill="#F2F1F0"/>
<path d="M51.6938 16.7434C51.6838 16.7434 51.6838 16.7334 51.6738 16.7334C51.6838 16.7334 51.6938 16.7434 51.6938 16.7434Z" fill="#9FC2F6"/>
<path d="M51.9438 16.9035C51.7438 16.7835 51.4138 16.5835 51.4138 16.5835C51.5738 16.7335 51.7538 16.8335 51.9438 16.9035Z" fill="#9FC2F6"/>
<path d="M51.6238 16.7036C51.8138 16.8036 51.7738 16.7936 51.6238 16.7036V16.7036Z" fill="#9FC2F6"/>
<path opacity="0.15" d="M87.2938 47.1038C87.2938 46.3338 86.6638 45.6938 85.8838 45.6938C85.3738 45.6938 82.2238 45.4138 80.5238 44.0938C80.5238 44.0938 80.5338 44.0738 80.5238 44.0938C79.8838 41.7638 78.9438 39.5838 77.7838 37.5138C77.4838 35.5538 79.5138 34.1238 80.4438 32.5938C80.6038 32.3238 80.7038 32.1738 80.7638 32.0638C80.9338 31.5638 80.8438 30.9938 80.4438 30.6038C80.4438 30.6038 78.8838 28.3738 77.2838 26.7838C75.6838 25.1938 73.2638 23.4238 73.2638 23.4238C72.7138 22.8738 71.8238 22.8738 71.2738 23.4238C70.9138 23.7738 68.5138 25.7538 66.3438 26.0738C66.3138 26.0738 66.3138 26.0738 66.3138 26.0738C64.3038 24.9338 62.0438 23.9938 59.7838 23.3538H59.7538C58.1538 22.1738 58.5738 19.7338 58.1538 17.9938C58.1538 17.2238 57.5238 16.5838 56.7438 16.5838C56.7438 16.5838 54.0638 16.1138 51.8038 16.1138C49.5438 16.1138 46.5938 16.5838 46.5938 16.5838C45.8238 16.5838 45.1838 17.2138 45.1838 17.9938C45.1838 18.5038 44.9038 21.6538 43.5838 23.3538C41.3438 23.9838 38.9938 24.9838 37.0038 26.0938C35.0438 26.3938 33.6138 24.3638 32.0838 23.4338C31.8138 23.2738 31.6638 23.1738 31.5538 23.1138C31.0538 22.9438 30.4838 23.0338 30.0938 23.4338C30.0938 23.4338 27.8638 24.9938 26.2738 26.5938C24.6838 28.1938 22.9138 30.6138 22.9138 30.6138C22.3638 31.1638 22.3638 32.0538 22.9138 32.6038C23.2638 32.9538 25.3038 35.3938 25.5738 37.5238V37.5438C24.4638 39.5338 23.4938 41.8738 22.8538 44.1138C22.8538 44.1138 22.8838 44.0738 22.8538 44.1138C21.4838 45.7738 19.2338 45.2938 17.4938 45.7138C16.7238 45.7138 16.0838 46.3438 16.0838 47.1238C16.0838 47.1238 15.6138 49.8038 15.6138 52.0638C15.6138 54.3238 16.0838 57.2738 16.0838 57.2738C16.0838 58.0438 16.7138 58.6838 17.4938 58.6838C18.0038 58.6838 21.1538 58.9638 22.8538 60.2838C22.8938 60.2638 22.8738 60.3138 22.8738 60.3138C23.5238 62.5638 24.4538 64.8138 25.5838 66.7938C25.5638 66.8238 25.5838 66.7938 25.5938 66.8638C25.7838 68.9138 23.8638 70.2538 22.9338 71.7838C22.7738 72.0538 22.6738 72.2038 22.6138 72.3138C22.4438 72.8138 22.5338 73.3838 22.9338 73.7738C22.9338 73.7738 24.4938 76.0038 26.0938 77.5938C27.6938 79.1938 30.1138 80.9538 30.1138 80.9538C30.6638 81.5038 31.5538 81.5038 32.1038 80.9538C32.4538 80.6038 34.8938 78.5638 37.0238 78.2938C37.0238 78.2938 37.0138 78.3038 37.0538 78.3138C39.1038 79.4538 41.2138 80.3538 43.5238 80.9838C43.5438 80.9938 43.6138 81.0138 43.6138 81.0138C45.2138 82.1938 44.7938 84.6338 45.2138 86.3738C45.3038 87.1538 45.7338 87.6538 46.6238 87.7838C46.6238 87.7838 49.3038 88.2538 51.5638 88.2538C53.8238 88.2538 56.7738 87.7938 56.7738 87.7938C57.5438 87.6638 58.1838 87.1638 58.1838 86.3838C58.1838 85.8738 58.4638 82.7238 59.7838 81.0238C59.7838 81.0238 59.8438 80.9738 59.8938 80.9238C62.2438 80.2638 64.0338 79.5338 66.1138 78.3438C66.2238 78.3038 66.1038 78.3138 66.3538 78.2738C68.3138 77.9738 69.7438 80.0038 71.2738 80.9338C71.5438 81.0938 71.6938 81.1938 71.8038 81.2538C72.3038 81.4238 72.8738 81.3338 73.2638 80.9338C73.2638 80.9338 75.4938 79.3738 77.0838 77.7738C78.6838 76.1738 80.4438 73.7538 80.4438 73.7538C80.9938 73.2038 80.9938 72.3138 80.4438 71.7638C80.0938 71.4138 78.0538 68.9738 77.7838 66.8438C77.7538 66.6238 77.7738 66.5938 77.8038 66.5338C78.9938 64.4438 79.7338 62.9138 80.3838 60.5338C80.3838 60.5338 80.3538 60.4538 80.5038 60.2538C81.6838 58.6538 84.1238 59.0738 85.8638 58.6538C86.6338 58.6538 87.2738 58.0238 87.2738 57.2438C87.2738 57.2438 87.7438 54.5638 87.7438 52.3038C87.7538 50.0638 87.2938 47.1038 87.2938 47.1038Z" fill="#1F1D20"/>
<path d="M87.2938 46.1536C87.2938 45.3836 86.6638 44.7436 85.8838 44.7436C85.3738 44.7436 82.2238 44.4636 80.5238 43.1436C80.5238 43.1436 80.5338 43.1236 80.5238 43.1436C79.8838 40.8136 78.9438 38.6336 77.7838 36.5636C77.4838 34.6036 79.5138 33.1736 80.4438 31.6436C80.6038 31.3736 80.7038 31.2236 80.7638 31.1136C80.9338 30.6136 80.8438 30.0436 80.4438 29.6536C80.4438 29.6536 78.8838 27.4236 77.2838 25.8336C75.6838 24.2436 73.2638 22.4736 73.2638 22.4736C72.7138 21.9236 71.8238 21.9236 71.2738 22.4736C70.9138 22.8236 68.5138 24.8036 66.3438 25.1236C66.3138 25.1236 66.3138 25.1236 66.3138 25.1236C64.3038 23.9836 62.0438 23.0436 59.7838 22.4036H59.7538C58.1538 21.2236 58.5738 18.7836 58.1538 17.0436C58.1538 16.2736 57.5238 15.6336 56.7438 15.6336C56.7438 15.6336 54.0638 15.1636 51.8038 15.1636C49.5438 15.1636 46.5938 15.6336 46.5938 15.6336C45.8238 15.6336 45.1838 16.2636 45.1838 17.0436C45.1838 17.5536 44.9038 20.7036 43.5838 22.4036C41.3438 23.0336 38.9938 24.0336 37.0038 25.1436C35.0438 25.4436 33.6138 23.4136 32.0838 22.4836C31.8138 22.3236 31.6638 22.2236 31.5538 22.1636C31.0538 21.9936 30.4838 22.0836 30.0938 22.4836C30.0938 22.4836 27.8638 24.0436 26.2738 25.6436C24.6838 27.2436 22.9138 29.6636 22.9138 29.6636C22.3638 30.2136 22.3638 31.1036 22.9138 31.6536C23.2638 32.0036 25.3038 34.4436 25.5738 36.5736V36.5936C24.4638 38.5836 23.4938 40.9236 22.8538 43.1636C22.8538 43.1636 22.8838 43.1236 22.8538 43.1636C21.4838 44.8236 19.2338 44.3436 17.4938 44.7636C16.7238 44.7636 16.0838 45.3936 16.0838 46.1736C16.0838 46.1736 15.6138 48.8536 15.6138 51.1136C15.6138 53.3736 16.0838 56.3236 16.0838 56.3236C16.0838 57.0936 16.7138 57.7336 17.4938 57.7336C18.0038 57.7336 21.1538 58.0136 22.8538 59.3336C22.8938 59.3136 22.8738 59.3636 22.8738 59.3636C23.5238 61.6136 24.4538 63.8636 25.5838 65.8436C25.5638 65.8736 25.5838 65.8436 25.5938 65.9136C25.7838 67.9636 23.8638 69.3036 22.9338 70.8336C22.7738 71.1036 22.6738 71.2536 22.6138 71.3636C22.4438 71.8636 22.5338 72.4336 22.9338 72.8236C22.9338 72.8236 24.4938 75.0536 26.0938 76.6436C27.6938 78.2436 30.1138 80.0036 30.1138 80.0036C30.6638 80.5536 31.5538 80.5536 32.1038 80.0036C32.4538 79.6536 34.8938 77.6136 37.0238 77.3436C37.0238 77.3436 37.0138 77.3536 37.0538 77.3636C39.1038 78.5036 41.2138 79.4036 43.5238 80.0336C43.5438 80.0436 43.6138 80.0636 43.6138 80.0636C45.2138 81.2436 44.7938 83.6836 45.2138 85.4236C45.3038 86.2036 45.7338 86.7036 46.6238 86.8336C46.6238 86.8336 49.3038 87.3036 51.5638 87.3036C53.8238 87.3036 56.7738 86.8436 56.7738 86.8436C57.5438 86.7136 58.1838 86.2136 58.1838 85.4336C58.1838 84.9236 58.4638 81.7736 59.7838 80.0736C59.7838 80.0736 59.8438 80.0236 59.8938 79.9736C62.2438 79.3136 64.0338 78.5836 66.1138 77.3936C66.2238 77.3536 66.1038 77.3636 66.3538 77.3236C68.3138 77.0236 69.7438 79.0536 71.2738 79.9836C71.5438 80.1436 71.6938 80.2436 71.8038 80.3036C72.3038 80.4736 72.8738 80.3836 73.2638 79.9836C73.2638 79.9836 75.4938 78.4236 77.0838 76.8236C78.6838 75.2236 80.4438 72.8036 80.4438 72.8036C80.9938 72.2536 80.9938 71.3636 80.4438 70.8136C80.0938 70.4636 78.0538 68.0236 77.7838 65.8936C77.7538 65.6736 77.7738 65.6436 77.8038 65.5836C78.9938 63.4936 79.7338 61.9636 80.3838 59.5836C80.3838 59.5836 80.3538 59.5036 80.5038 59.3036C81.6838 57.7036 84.1238 58.1236 85.8638 57.7036C86.6338 57.7036 87.2738 57.0736 87.2738 56.2936C87.2738 56.2936 87.7438 53.6136 87.7438 51.3536C87.7538 49.1036 87.2938 46.1536 87.2938 46.1536Z" fill="url(#paint1_linear)"/>
<path opacity="0.15" d="M53.9239 71.834C62.4939 70.864 69.6539 64.594 71.7539 56.234C73.7739 48.194 70.8239 39.744 64.2639 34.694C64.1239 34.584 64.1039 34.444 64.1039 34.354C64.1039 34.294 64.1239 34.124 64.2839 34.004L65.2039 33.364C65.9339 32.854 66.9539 32.934 67.6239 33.544C74.1239 39.474 76.8339 48.454 74.7039 56.974C72.2939 66.594 64.0339 73.784 54.1439 74.844L53.1939 74.954L53.5139 78.544C53.5339 78.784 53.2839 78.974 53.0639 78.874L44.2939 74.874C43.9339 74.704 43.8939 74.224 44.2239 73.994L52.1539 68.504C52.3539 68.364 52.6539 68.494 52.6639 68.744L52.9339 71.964L53.9239 71.834Z" fill="#1F1D20"/>
<path opacity="0.15" d="M52.3938 34.2538C52.1938 34.3938 51.9039 34.2638 51.8839 34.0138L51.5438 30.3738L50.6138 30.4138C41.5138 30.8238 33.6038 37.2938 31.3938 46.1238C29.1738 54.9738 33.1138 64.4038 40.9638 69.0438C41.1438 69.1538 41.1739 69.3138 41.1739 69.4038C41.1739 69.4438 41.1738 69.4738 41.1638 69.5338C41.1438 69.6038 41.0938 69.7138 40.9838 69.7738L39.8738 70.5438C39.2038 71.0038 38.3038 70.9838 37.6138 70.4938C29.5638 64.6838 25.9738 54.6638 28.5138 45.0638C31.1838 34.9538 40.3638 27.8938 50.8038 27.3238L51.2338 27.3038L50.9338 24.1538C50.9138 23.9138 51.1638 23.7238 51.3938 23.8338L60.2639 27.9438C60.6239 28.1138 60.6639 28.5938 60.3339 28.8338L52.3938 34.2538Z" fill="#1F1D20"/>
<path d="M54.1439 72.5439C62.7139 71.5739 69.8739 65.3039 71.9739 56.9439C73.9939 48.9039 71.0439 40.4539 64.4839 35.4039C64.3439 35.2939 64.3239 35.1539 64.3239 35.0639C64.3239 35.0039 64.3439 34.8339 64.5039 34.7139L65.4239 34.0739C66.1539 33.5639 67.1739 33.6439 67.8439 34.2539C74.3439 40.1739 77.0539 49.1539 74.9239 57.6839C72.5139 67.3039 64.2539 74.4939 54.3639 75.5539L53.4139 75.6639L53.7339 79.2539C53.7539 79.4939 53.5039 79.6839 53.2839 79.5839L44.5239 75.5839C44.1639 75.4139 44.1239 74.9339 44.4539 74.7039L52.3839 69.2139C52.5839 69.0739 52.8839 69.2039 52.8939 69.4539L53.1639 72.6739L54.1439 72.5439Z" fill="#32B0E7"/>
<path d="M52.6138 34.9637C52.4138 35.1037 52.1238 34.9737 52.1038 34.7237L51.7638 31.0837L50.8338 31.1237C41.7338 31.5337 33.8238 38.0037 31.6138 46.8337C29.3938 55.6837 33.3338 65.1137 41.1838 69.7537C41.3638 69.8637 41.3938 70.0237 41.3938 70.1137C41.3938 70.1537 41.3938 70.1837 41.3838 70.2437C41.3638 70.3137 41.3138 70.4237 41.2038 70.4837L40.0938 71.2537C39.4238 71.7137 38.5238 71.6937 37.8338 71.2037C29.7838 65.3937 26.1938 55.3737 28.7338 45.7737C31.4038 35.6737 40.5738 28.6237 51.0238 28.0537L51.4538 28.0337L51.1638 24.8837C51.1438 24.6437 51.3938 24.4537 51.6238 24.5637L60.5038 28.6637C60.8638 28.8337 60.9038 29.3137 60.5738 29.5537L52.6138 34.9637Z" fill="#50E6FF"/>
<path d="M56.5139 50.7334L65.5139 59.9934V43.2334L56.5139 50.7334Z" fill="#F2F1F0"/>
<path d="M37.5439 42.8433V60.4033L46.9639 50.6933L37.5439 42.8433Z" fill="#F2F1F0"/>
<path d="M55.5939 51.5034L52.1539 54.3734C52.0439 54.4634 51.9039 54.5134 51.7739 54.5134C51.6439 54.5134 51.5039 54.4634 51.3939 54.3734L47.9039 51.4634L38.9839 60.6434L38.5239 61.1134H64.9439L64.4839 60.6434L55.5939 51.5034Z" fill="#F2F1F0"/>
<path d="M47.8039 49.8335L48.2639 50.2135L48.7239 50.6035L51.7639 53.1335L54.7539 50.6335L55.2139 50.2535L55.6739 49.8635L64.2939 42.6835L64.7739 42.2935H38.7539L39.2239 42.6835L47.8039 49.8335Z" fill="#F2F1F0"/>
<defs>
<linearGradient id="paint0_linear" x1="49.9138" y1="-13.0894" x2="53.8968" y2="132.679" gradientUnits="userSpaceOnUse">
<stop stop-color="#00ABDE"/>
<stop offset="1" stop-color="#007ED8"/>
</linearGradient>
<linearGradient id="paint1_linear" x1="54.4414" y1="-71.957" x2="49.339" y2="155.948" gradientUnits="userSpaceOnUse">
<stop stop-color="#007ED8"/>
<stop offset="0.7065" stop-color="#002D4C"/>
</linearGradient>
</defs>
</svg>
