<svg width="103" height="103" fill="none" xmlns="http://www.w3.org/2000/svg"><path d="M51.377 98.38c-25.85 0-46.81-20.95-46.81-46.81 0-25.86 20.96-46.81 46.81-46.81s46.81 20.96 46.81 46.81-20.96 46.81-46.81 46.81Z" fill="url(#a)"/><path fill-rule="evenodd" clip-rule="evenodd" d="M97.277 51.57c0 25.35-20.55 45.9-45.9 45.9-25.35 0-45.9-20.55-45.9-45.9 0-25.35 20.55-45.9 45.9-45.9 25.35 0 45.9 20.55 45.9 45.9Zm-45.9-49.64c27.42 0 49.64 22.22 49.64 49.64s-22.23 49.64-49.64 49.64c-27.42 0-49.64-22.23-49.64-49.64 0-27.42 22.22-49.64 49.64-49.64Z" fill="#F2F1F0"/><path fill-rule="evenodd" clip-rule="evenodd" d="M94.467 51.57c0 23.8-19.29 43.09-43.09 43.09-23.8 0-43.09-19.29-43.09-43.09 0-23.8 19.29-43.09 43.09-43.09 23.8 0 43.09 19.29 43.09 43.09ZM51.377 4.74c25.86 0 46.83 20.97 46.83 46.83S77.237 98.4 51.377 98.4 4.547 77.43 4.547 51.57s20.96-46.83 46.83-46.83Z" fill="url(#b)"/><path opacity=".15" d="M91.19 48.017c0-.861-.702-1.563-1.564-1.563-.563 0-4.072-.308-5.954-1.776 0 0 .01-.021 0 0-.713-2.594-1.755-5.018-3.041-7.315-.33-2.18 1.924-3.764 2.956-5.466.18-.297.287-.468.35-.585.192-.553.086-1.19-.35-1.626 0 0-1.733-2.478-3.51-4.243-1.775-1.765-4.465-3.732-4.465-3.732a1.572 1.572 0 0 0-2.212 0c-.404.393-3.073 2.594-5.476 2.945h-.032a33.336 33.336 0 0 0-7.262-3.02h-.032c-1.776-1.308-1.308-4.019-1.776-5.954 0-.862-.702-1.563-1.563-1.563 0 0-2.977-.521-5.486-.521-2.51 0-5.796.52-5.796.52-.86 0-1.563.702-1.563 1.564 0 .563-.308 4.072-1.775 5.954-2.489.702-5.104 1.808-7.316 3.041-2.18.33-3.764-1.924-5.465-2.956-.298-.18-.468-.287-.585-.35-.553-.192-1.191-.086-1.627.35 0 0-2.478 1.734-4.243 3.51-1.765 1.775-3.732 4.465-3.732 4.465a1.573 1.573 0 0 0 0 2.212c.393.393 2.658 3.105 2.956 5.465v.022a34.998 34.998 0 0 0-3.02 7.305s.032-.043 0 0c-1.52 1.85-4.02 1.307-5.954 1.775-.862 0-1.563.702-1.563 1.563 0 0-.521 2.978-.521 5.487 0 2.51.52 5.795.52 5.795 0 .861.702 1.563 1.564 1.563.563 0 4.072.308 5.954 1.776.043-.021.021.032.021.032.724 2.499 1.755 4.997 3.01 7.21-.022.031 0 0 .01.074.213 2.275-1.924 3.764-2.956 5.465-.18.298-.287.468-.35.585-.192.553-.086 1.19.35 1.627 0 0 1.733 2.477 3.51 4.242 1.775 1.776 4.465 3.732 4.465 3.732a1.572 1.572 0 0 0 2.212 0c.393-.393 3.105-2.658 5.465-2.956 0 0-.01.011.032.022 2.276 1.265 4.626 2.265 7.199 2.966.021.011.095.032.095.032 1.776 1.308 1.308 4.02 1.776 5.955.096.872.574 1.425 1.563 1.563 0 0 2.978.52 5.487.52 2.51 0 5.795-.51 5.795-.51.861-.148 1.563-.701 1.563-1.563 0-.563.309-4.072 1.776-5.954l.127-.106c2.616-.734 4.605-1.542 6.912-2.871.117-.043-.01-.032.266-.075 2.18-.33 3.764 1.925 5.465 2.956.298.181.468.287.585.351.553.191 1.191.085 1.627-.35 0 0 2.478-1.734 4.243-3.51 1.775-1.776 3.732-4.466 3.732-4.466a1.572 1.572 0 0 0 0-2.211c-.394-.394-2.659-3.105-2.956-5.466-.032-.244-.01-.276.021-.34 1.319-2.329 2.148-4.03 2.871-6.667 0 0-.032-.085.138-.308 1.308-1.776 4.02-1.308 5.955-1.776.861 0 1.563-.702 1.563-1.563 0 0 .52-2.977.52-5.487 0-2.51-.51-5.795-.51-5.795Z" fill="#1F1D20"/><path d="M91.19 45.89c0-.861-.702-1.563-1.564-1.563-.563 0-4.072-.308-5.954-1.776 0 0 .01-.02 0 0-.713-2.594-1.755-5.019-3.041-7.315-.33-2.18 1.924-3.764 2.956-5.466.18-.297.287-.468.35-.584.192-.553.086-1.191-.35-1.627 0 0-1.733-2.478-3.51-4.243-1.775-1.765-4.465-3.732-4.465-3.732a1.572 1.572 0 0 0-2.212 0c-.404.393-3.073 2.594-5.476 2.945h-.032a33.336 33.336 0 0 0-7.262-3.02h-.032c-1.776-1.308-1.308-4.019-1.776-5.954 0-.861-.702-1.563-1.563-1.563 0 0-2.977-.521-5.486-.521-2.51 0-5.796.52-5.796.52-.86 0-1.563.703-1.563 1.564 0 .563-.308 4.072-1.775 5.954-2.489.702-5.104 1.808-7.316 3.041-2.18.33-3.764-1.924-5.465-2.956-.298-.18-.468-.287-.585-.35-.553-.192-1.191-.085-1.627.35 0 0-2.478 1.734-4.243 3.51-1.765 1.775-3.732 4.465-3.732 4.465a1.573 1.573 0 0 0 0 2.212c.393.393 2.658 3.105 2.956 5.465v.022a35 35 0 0 0-3.02 7.305s.032-.043 0 0c-1.52 1.85-4.02 1.307-5.954 1.775-.862 0-1.563.702-1.563 1.563 0 0-.521 2.978-.521 5.487 0 2.51.52 5.795.52 5.795 0 .861.702 1.563 1.564 1.563.563 0 4.072.309 5.954 1.776.043-.021.021.032.021.032.724 2.499 1.755 4.997 3.01 7.21-.022.031 0 0 .01.074.213 2.275-1.924 3.764-2.956 5.465-.18.298-.287.468-.35.585-.192.553-.086 1.19.35 1.627 0 0 1.733 2.477 3.51 4.242 1.775 1.776 4.465 3.733 4.465 3.733a1.572 1.572 0 0 0 2.212 0c.393-.394 3.105-2.659 5.465-2.957 0 0-.01.011.032.022 2.276 1.265 4.626 2.265 7.199 2.966.021.011.095.032.095.032 1.776 1.308 1.308 4.02 1.776 5.955.096.872.574 1.425 1.563 1.563 0 0 2.978.521 5.487.521 2.51 0 5.795-.51 5.795-.51.861-.15 1.563-.702 1.563-1.564 0-.563.309-4.072 1.776-5.954l.127-.106c2.616-.734 4.605-1.542 6.912-2.871.117-.043-.01-.032.266-.075 2.18-.33 3.764 1.925 5.465 2.956.298.181.468.287.585.351.553.192 1.191.085 1.627-.35 0 0 2.478-1.734 4.243-3.51 1.775-1.775 3.732-4.466 3.732-4.466a1.572 1.572 0 0 0 0-2.211c-.394-.394-2.659-3.105-2.956-5.466-.032-.244-.01-.276.021-.34 1.319-2.329 2.148-4.03 2.871-6.667 0 0-.032-.085.138-.308 1.308-1.776 4.02-1.308 5.955-1.776.861 0 1.563-.702 1.563-1.563 0 0 .52-2.977.52-5.487 0-2.51-.51-5.795-.51-5.795Z" fill="#F2F1F0"/><path opacity=".15" d="M53.994 51.625h-2.93v-13.35a.297.297 0 0 0-.302-.302h-5.87a.297.297 0 0 0-.301.302c0 .17.13.302.302.302h5.567v25.079h-5.577a.297.297 0 0 0-.302.302c0 .17.13.302.302.302h5.88c.17 0 .302-.131.302-.302v-11.73h2.93v-.603Z" fill="#1F1D20"/><path d="M53.994 51.232h-2.93v-13.35a.297.297 0 0 0-.302-.302h-5.87a.297.297 0 0 0-.301.302c0 .171.13.302.302.302h5.567v25.079h-5.577a.297.297 0 0 0-.302.302c0 .171.13.302.302.302h5.88c.17 0 .302-.13.302-.302V51.836h2.93v-.604Z" fill="#78787D"/><g opacity=".15"><path opacity=".15" d="M58.464 60.36a.825.825 0 0 0-.835-.825.825.825 0 1 0 0 1.651.838.838 0 0 0 .835-.825ZM58.464 56.716a.825.825 0 0 0-.835-.825.825.825 0 1 0 0 1.651.825.825 0 0 0 .835-.826ZM58.464 53.091a.825.825 0 0 0-.835-.825.825.825 0 1 0 0 1.651c.453-.01.835-.373.835-.826ZM58.464 49.447a.825.825 0 0 0-.835-.826.831.831 0 0 0-.836.826c0 .453.373.825.836.825a.838.838 0 0 0 .835-.825ZM58.464 45.814a.825.825 0 0 0-.835-.826.825.825 0 1 0 0 1.651.838.838 0 0 0 .835-.825ZM58.464 42.18a.825.825 0 0 0-.835-.827.831.831 0 0 0-.836.826c0 .453.373.826.836.826a.838.838 0 0 0 .835-.826Z" fill="#1F1D20"/><path opacity=".15" d="M58.293 64.348h-4.39a.297.297 0 0 1-.301-.302V38.413c0-.17.13-.302.302-.302h4.39c.17 0 .301.131.301.302 0 .172-.13.302-.302.302h-4.087v25.029h4.087c.171 0 .302.13.302.302a.303.303 0 0 1-.302.302Z" fill="#1F1D20"/></g><path d="M58.464 59.888a.825.825 0 0 0-.835-.825.831.831 0 0 0-.836.825c0 .453.373.826.836.826a.831.831 0 0 0 .835-.826ZM58.464 56.253a.825.825 0 0 0-.835-.825.825.825 0 1 0 0 1.651.838.838 0 0 0 .835-.826Z" fill="#3BCAF4"/><path d="M58.464 52.618a.825.825 0 0 0-.835-.825.825.825 0 1 0 0 1.651c.453-.01.835-.372.835-.826ZM58.464 48.974a.825.825 0 0 0-.835-.826.831.831 0 0 0-.836.826c0 .453.373.826.836.826a.838.838 0 0 0 .835-.826Z" fill="#50E6FF"/><path d="M58.464 45.341a.825.825 0 0 0-.835-.825.825.825 0 1 0 0 1.651.838.838 0 0 0 .835-.826ZM58.464 41.706a.825.825 0 0 0-.835-.825.831.831 0 0 0-.836.825c0 .453.373.826.836.826a.838.838 0 0 0 .835-.826Z" fill="#9CEBFF"/><path d="M58.293 63.875h-4.39a.297.297 0 0 1-.301-.302V37.941c0-.171.13-.302.302-.302h4.39c.17 0 .301.13.301.302 0 .17-.13.302-.302.302h-4.087V63.27h4.087c.171 0 .302.131.302.302a.303.303 0 0 1-.302.302Z" fill="#78787D"/><path opacity=".15" d="M47.55 55.147H25.552v12.876c0 .393.322.705.705.705h20.579a.707.707 0 0 0 .704-.705l.01-12.876Z" fill="#1F1D20"/><path d="M47.55 54.32H25.552v12.877c0 .393.322.705.705.705h20.579a.707.707 0 0 0 .704-.705l.01-12.877Z" fill="url(#c)"/><path d="M46.805 52.418H26.297a.75.75 0 0 0-.745.745v1.61H47.54v-1.61a.722.722 0 0 0-.735-.745Z" fill="url(#d)"/><path d="M35.097 58.82h-6.182a.5.5 0 0 0-.493.494.5.5 0 0 0 .493.493h6.172a.51.51 0 0 0 .493-.503.477.477 0 0 0-.483-.484ZM35.097 60.926h-6.182a.5.5 0 0 0-.493.493c0 .272.221.493.493.493h6.172a.507.507 0 0 0 .493-.493.486.486 0 0 0-.483-.493Z" fill="#fff"/><path fill-rule="evenodd" clip-rule="evenodd" d="M28.915 63.191h3.08a.5.5 0 0 1 .494.494.5.5 0 0 1-.493.493h-3.081a.5.5 0 0 1-.493-.493c.02-.262.231-.494.493-.494Z" fill="#fff"/><path opacity=".15" d="M47.55 36.24H25.552v12.877c0 .393.322.705.705.705h20.579a.707.707 0 0 0 .704-.705l.01-12.877Z" fill="#1F1D20"/><path d="M47.55 35.414H25.552v12.877c0 .392.322.705.705.705h20.579a.707.707 0 0 0 .704-.705l.01-12.877Z" fill="url(#e)"/><path d="M46.805 33.512H26.317a.737.737 0 0 0-.745.745v1.61H47.56v-1.61a.752.752 0 0 0-.755-.745Z" fill="url(#f)"/><path d="M35.097 39.703h-6.182a.5.5 0 0 0-.493.493.5.5 0 0 0 .493.494h6.172a.51.51 0 0 0 .493-.504.477.477 0 0 0-.483-.483ZM35.097 41.809h-6.182a.5.5 0 0 0-.493.493c0 .272.222.493.493.493h6.172a.507.507 0 0 0 .493-.493.486.486 0 0 0-.483-.493Z" fill="#fff"/><path fill-rule="evenodd" clip-rule="evenodd" d="M28.915 44.072h3.081a.5.5 0 0 1 .494.494.494.494 0 0 1-.494.493h-3.08a.5.5 0 0 1-.494-.493c.02-.262.232-.494.493-.494Z" fill="#fff"/><path fill-rule="evenodd" clip-rule="evenodd" d="M58.27 37.637h18.855c.783 0 1.424.64 1.424 1.424v24.28c0 .784-.64 1.424-1.424 1.424H58.27c-.783 0-1.424-.64-1.424-1.424v-24.28a1.42 1.42 0 0 1 1.424-1.424Z" fill="#195C37"/><path d="M78.55 51.193H67.697v6.779h10.851v-6.779Z" fill="#107B42"/><path d="M78.55 44.416H67.697v6.779h10.851v-6.779Z" fill="#22A366"/><path d="M67.698 44.416H56.163v6.779h11.535v-6.779Z" fill="#117740"/><path fill-rule="evenodd" clip-rule="evenodd" d="M67.698 37.637h9.427c.783 0 1.424.64 1.424 1.424v5.354H67.698v-6.778Z" fill="#34C481"/><path fill-rule="evenodd" clip-rule="evenodd" d="M67.698 37.637H57.587c-.784 0-1.424.64-1.424 1.424v5.354h11.535v-6.778Z" fill="#21A465"/><path fill-rule="evenodd" clip-rule="evenodd" d="M51.484 44.418H63.56c.783 0 1.424.64 1.424 1.424v11.393c0 .783-.64 1.424-1.424 1.424H51.484c-.784 0-1.424-.641-1.424-1.424V45.842c0-.783.64-1.424 1.424-1.424Z" fill="#137F47"/><path fill-rule="evenodd" clip-rule="evenodd" d="m56.183 51.908-2.463-4.101h1.937l1.68 3.104 1.68-3.104h1.795L58.32 51.85l2.591 4.101H58.89l-1.666-3.332-1.695 3.332h-2.065l2.72-4.044Z" fill="#fff"/><defs><linearGradient id="a" x1="49.603" y1="-13.22" x2="53.585" y2="132.55" gradientUnits="userSpaceOnUse"><stop stop-color="#00ABDE"/><stop offset="1" stop-color="#007ED8"/></linearGradient><linearGradient id="b" x1="2.807" y1="-20.052" x2="98.335" y2="120.829" gradientUnits="userSpaceOnUse"><stop stop-color="#007ED8"/><stop offset=".707" stop-color="#002D4C"/></linearGradient><linearGradient id="c" x1="34.111" y1="45.813" x2="37.706" y2="76.787" gradientUnits="userSpaceOnUse"><stop stop-color="#007ED8"/><stop offset=".707" stop-color="#002D4C"/></linearGradient><linearGradient id="d" x1="25.144" y1="51.794" x2="25.518" y2="56.94" gradientUnits="userSpaceOnUse"><stop stop-color="#007ED8"/><stop offset=".707" stop-color="#002D4C"/></linearGradient><linearGradient id="e" x1="34.111" y1="26.907" x2="37.706" y2="57.88" gradientUnits="userSpaceOnUse"><stop stop-color="#007ED8"/><stop offset=".707" stop-color="#002D4C"/></linearGradient><linearGradient id="f" x1="25.163" y1="32.888" x2="25.537" y2="38.034" gradientUnits="userSpaceOnUse"><stop stop-color="#007ED8"/><stop offset=".707" stop-color="#002D4C"/></linearGradient></defs></svg>