<svg width="103" height="103" viewBox="0 0 103 103" fill="none" xmlns="http://www.w3.org/2000/svg">
<path d="M51.3769 98.3798C25.5269 98.3798 4.56689 77.4298 4.56689 51.5698C4.56689 25.7098 25.5269 4.75977 51.3769 4.75977C77.2269 4.75977 98.1869 25.7198 98.1869 51.5698C98.1869 77.4198 77.2269 98.3798 51.3769 98.3798Z" fill="url(#paint0_linear_1284:2774)"/>
<path fill-rule="evenodd" clip-rule="evenodd" d="M97.2771 51.5697C97.2771 76.9197 76.7271 97.4697 51.3771 97.4697C26.0271 97.4697 5.47706 76.9197 5.47706 51.5697C5.47706 26.2197 26.0271 5.66969 51.3771 5.66969C76.7271 5.66969 97.2771 26.2197 97.2771 51.5697ZM51.3771 1.92969C78.7971 1.92969 101.017 24.1497 101.017 51.5697C101.017 78.9897 78.7871 101.21 51.3771 101.21C23.9571 101.21 1.73706 78.9797 1.73706 51.5697C1.73706 24.1497 23.9571 1.92969 51.3771 1.92969Z" fill="#F2F1F0"/>
<path fill-rule="evenodd" clip-rule="evenodd" d="M94.4669 51.5702C94.4669 75.3702 75.1769 94.6602 51.3769 94.6602C27.5769 94.6602 8.28687 75.3702 8.28687 51.5702C8.28687 27.7702 27.5769 8.48024 51.3769 8.48024C75.1769 8.48024 94.4669 27.7702 94.4669 51.5702ZM51.3769 4.74023C77.2369 4.74023 98.2069 25.7102 98.2069 51.5702C98.2069 77.4302 77.2369 98.4003 51.3769 98.4003C25.5169 98.4003 4.54688 77.4302 4.54688 51.5702C4.54687 25.7102 25.5069 4.74023 51.3769 4.74023Z" fill="url(#paint1_linear_1284:2774)"/>
<path opacity="0.15" d="M91.1895 48.0171C91.1895 47.1558 90.4877 46.454 89.6264 46.454C89.0629 46.454 85.5539 46.1457 83.6718 44.6783C83.6718 44.6783 83.6825 44.657 83.6718 44.6783C82.9594 42.0838 81.9174 39.6595 80.6308 37.3627C80.3011 35.1829 82.5554 33.5986 83.5868 31.8973C83.7676 31.5995 83.8739 31.4294 83.9377 31.3124C84.1291 30.7595 84.0228 30.1215 83.5868 29.6856C83.5868 29.6856 81.8536 27.2081 80.0779 25.443C78.3021 23.6779 75.6119 21.7107 75.6119 21.7107C75.0059 21.1046 74.0063 21.1046 73.4002 21.7107C72.9962 22.1042 70.3273 24.3052 67.9242 24.6561C67.8923 24.6561 67.8923 24.6561 67.8923 24.6561C65.6593 23.3908 63.1499 22.3487 60.6299 21.6363H60.598C58.8222 20.3284 59.2901 17.617 58.8222 15.6817C58.8222 14.8205 58.1204 14.1187 57.2592 14.1187C57.2592 14.1187 54.2819 13.5977 51.7725 13.5977C49.263 13.5977 45.9774 14.1187 45.9774 14.1187C45.1161 14.1187 44.4143 14.8205 44.4143 15.6817C44.4143 16.2453 44.106 19.7542 42.6386 21.6363C40.1505 22.3381 37.5347 23.4439 35.323 24.6774C33.1432 25.007 31.5589 22.7528 29.8576 21.7214C29.5599 21.5406 29.3897 21.4343 29.2728 21.3705C28.7198 21.1791 28.0819 21.2854 27.6459 21.7214C27.6459 21.7214 25.1684 23.4546 23.4033 25.2303C21.6382 27.006 19.671 29.6962 19.671 29.6962C19.065 30.3023 19.065 31.3018 19.671 31.9079C20.0645 32.3013 22.3293 35.0128 22.6271 37.3733V37.3946C21.3936 39.6063 20.309 42.2114 19.6072 44.6996C19.6072 44.6996 19.6391 44.657 19.6072 44.6996C18.0867 46.5497 15.5879 46.0074 13.6527 46.4753C12.7914 46.4753 12.0896 47.1771 12.0896 48.0384C12.0896 48.0384 11.5686 51.0156 11.5686 53.5251C11.5686 56.0345 12.0896 59.3201 12.0896 59.3201C12.0896 60.1814 12.7914 60.8832 13.6527 60.8832C14.2163 60.8832 17.7252 61.1915 19.6072 62.6589C19.6498 62.6376 19.6285 62.6908 19.6285 62.6908C20.3516 65.1896 21.383 67.6884 22.6377 69.9001C22.6164 69.932 22.6377 69.9001 22.6483 69.9745C22.861 72.25 20.7237 73.7386 19.6923 75.4399C19.5116 75.7377 19.4052 75.9078 19.3414 76.0248C19.15 76.5777 19.2564 77.2157 19.6923 77.6516C19.6923 77.6516 21.4255 80.1292 23.2012 81.8942C24.977 83.67 27.6672 85.6265 27.6672 85.6265C28.2732 86.2326 29.2728 86.2326 29.8789 85.6265C30.2723 85.233 32.9837 82.9682 35.3443 82.6705C35.3443 82.6705 35.3336 82.6811 35.3762 82.6917C37.6517 83.9571 40.0016 84.9566 42.5748 85.6584C42.5961 85.669 42.6705 85.6903 42.6705 85.6903C44.4462 86.9981 43.9784 89.7096 44.4462 91.6448C44.5419 92.5167 45.0204 93.0697 46.0093 93.2079C46.0093 93.2079 48.9866 93.7289 51.496 93.7289C54.0054 93.7289 57.2911 93.2185 57.2911 93.2185C58.1523 93.0697 58.8541 92.5167 58.8541 91.6555C58.8541 91.0919 59.1625 87.583 60.6299 85.7009C60.6299 85.7009 60.6937 85.6477 60.7575 85.5946C63.3732 84.8609 65.3616 84.0528 67.669 82.7236C67.786 82.6811 67.6584 82.6917 67.9348 82.6492C70.1146 82.3196 71.6989 84.5738 73.4002 85.6052C73.698 85.786 73.8681 85.8923 73.9851 85.9561C74.538 86.1475 75.176 86.0412 75.6119 85.6052C75.6119 85.6052 78.0895 83.872 79.8546 82.0963C81.6303 80.3205 83.5868 77.6304 83.5868 77.6304C84.1929 77.0243 84.1929 76.0248 83.5868 75.4187C83.1934 75.0252 80.9285 72.3138 80.6308 69.9532C80.5989 69.7087 80.6201 69.6768 80.652 69.613C81.9706 67.2843 82.7999 65.583 83.523 62.946C83.523 62.946 83.4911 62.8609 83.6612 62.6376C84.9691 60.8619 87.6805 61.3298 89.6158 60.8619C90.4771 60.8619 91.1788 60.1601 91.1788 59.2988C91.1788 59.2988 91.6999 56.3216 91.6999 53.8121C91.6999 51.3027 91.1895 48.0171 91.1895 48.0171Z" fill="#1F1D20"/>
<path d="M91.1895 45.8901C91.1895 45.0289 90.4877 44.3271 89.6264 44.3271C89.0629 44.3271 85.5539 44.0187 83.6718 42.5513C83.6718 42.5513 83.6825 42.5301 83.6718 42.5513C82.9594 39.9569 81.9174 37.5325 80.6308 35.2357C80.3011 33.056 82.5554 31.4716 83.5868 29.7703C83.7676 29.4726 83.8739 29.3025 83.9377 29.1855C84.1291 28.6326 84.0228 27.9946 83.5868 27.5586C83.5868 27.5586 81.8536 25.0811 80.0779 23.316C78.3021 21.5509 75.6119 19.5838 75.6119 19.5838C75.0059 18.9777 74.0063 18.9777 73.4002 19.5838C72.9962 19.9772 70.3273 22.1783 67.9242 22.5292C67.8923 22.5292 67.8923 22.5292 67.8923 22.5292C65.6593 21.2638 63.1499 20.2218 60.6299 19.5093H60.598C58.8222 18.2015 59.2901 15.49 58.8222 13.5548C58.8222 12.6935 58.1204 11.9917 57.2592 11.9917C57.2592 11.9917 54.2819 11.4707 51.7725 11.4707C49.263 11.4707 45.9774 11.9917 45.9774 11.9917C45.1161 11.9917 44.4143 12.6935 44.4143 13.5548C44.4143 14.1184 44.106 17.6273 42.6386 19.5093C40.1505 20.2111 37.5347 21.317 35.323 22.5504C33.1432 22.8801 31.5589 20.6258 29.8576 19.5944C29.5599 19.4137 29.3897 19.3073 29.2728 19.2435C28.7198 19.0521 28.0819 19.1585 27.6459 19.5944C27.6459 19.5944 25.1684 21.3276 23.4033 23.1033C21.6382 24.8791 19.671 27.5693 19.671 27.5693C19.065 28.1753 19.065 29.1749 19.671 29.781C20.0645 30.1744 22.3293 32.8858 22.6271 35.2464V35.2676C21.3936 37.4793 20.309 40.0845 19.6072 42.5726C19.6072 42.5726 19.6391 42.5301 19.6072 42.5726C18.0867 44.4228 15.5879 43.8805 13.6527 44.3483C12.7914 44.3483 12.0896 45.0501 12.0896 45.9114C12.0896 45.9114 11.5686 48.8887 11.5686 51.3981C11.5686 53.9075 12.0896 57.1932 12.0896 57.1932C12.0896 58.0544 12.7914 58.7562 13.6527 58.7562C14.2163 58.7562 17.7252 59.0646 19.6072 60.532C19.6498 60.5107 19.6285 60.5639 19.6285 60.5639C20.3516 63.0626 21.383 65.5614 22.6377 67.7731C22.6164 67.805 22.6377 67.7731 22.6483 67.8476C22.861 70.123 20.7237 71.6117 19.6923 73.313C19.5116 73.6107 19.4052 73.7808 19.3414 73.8978C19.15 74.4507 19.2564 75.0887 19.6923 75.5247C19.6923 75.5247 21.4255 78.0022 23.2012 79.7673C24.977 81.543 27.6672 83.4995 27.6672 83.4995C28.2732 84.1056 29.2728 84.1056 29.8789 83.4995C30.2723 83.1061 32.9837 80.8412 35.3443 80.5435C35.3443 80.5435 35.3336 80.5541 35.3762 80.5648C37.6517 81.8301 40.0016 82.8296 42.5748 83.5314C42.5961 83.542 42.6705 83.5633 42.6705 83.5633C44.4462 84.8712 43.9784 87.5826 44.4462 89.5179C44.5419 90.3898 45.0204 90.9427 46.0093 91.0809C46.0093 91.0809 48.9866 91.602 51.496 91.602C54.0054 91.602 57.2911 91.0916 57.2911 91.0916C58.1523 90.9427 58.8541 90.3898 58.8541 89.5285C58.8541 88.965 59.1625 85.456 60.6299 83.5739C60.6299 83.5739 60.6937 83.5208 60.7575 83.4676C63.3732 82.7339 65.3616 81.9258 67.669 80.5967C67.786 80.5541 67.6584 80.5648 67.9348 80.5222C70.1146 80.1926 71.6989 82.4468 73.4002 83.4783C73.698 83.659 73.8681 83.7654 73.9851 83.8291C74.538 84.0205 75.176 83.9142 75.6119 83.4783C75.6119 83.4783 78.0895 81.745 79.8546 79.9693C81.6303 78.1936 83.5868 75.5034 83.5868 75.5034C84.1929 74.8973 84.1929 73.8978 83.5868 73.2917C83.1934 72.8983 80.9285 70.1868 80.6308 67.8263C80.5989 67.5817 80.6201 67.5498 80.652 67.486C81.9706 65.1574 82.7999 63.4561 83.523 60.8191C83.523 60.8191 83.4911 60.734 83.6612 60.5107C84.9691 58.735 87.6805 59.2028 89.6158 58.735C90.4771 58.735 91.1788 58.0332 91.1788 57.1719C91.1788 57.1719 91.6999 54.1946 91.6999 51.6852C91.6999 49.1758 91.1895 45.8901 91.1895 45.8901Z" fill="#F2F1F0"/>
<path opacity="0.15" d="M53.9942 51.6246H51.0645V38.2747C51.0645 38.1035 50.9336 37.9727 50.7624 37.9727H44.8929C44.7218 37.9727 44.5909 38.1035 44.5909 38.2747C44.5909 38.4458 44.7218 38.5767 44.8929 38.5767H50.4604V63.6556H44.8828C44.7117 63.6556 44.5808 63.7865 44.5808 63.9576C44.5808 64.1288 44.7117 64.2597 44.8828 64.2597H50.7624C50.9336 64.2597 51.0645 64.1288 51.0645 63.9576V52.2286H53.9942V51.6246Z" fill="#1F1D20"/>
<path d="M53.9942 51.232H51.0645V37.8821C51.0645 37.711 50.9336 37.5801 50.7624 37.5801H44.8929C44.7218 37.5801 44.5909 37.711 44.5909 37.8821C44.5909 38.0533 44.7218 38.1841 44.8929 38.1841H50.4604V63.263H44.8828C44.7117 63.263 44.5808 63.3939 44.5808 63.565C44.5808 63.7362 44.7117 63.8671 44.8828 63.8671H50.7624C50.9336 63.8671 51.0645 63.7362 51.0645 63.565V51.8361H53.9942V51.232Z" fill="#78787D"/>
<path opacity="0.15" d="M58.4642 60.3607C58.4642 59.8976 58.0917 59.5352 57.6286 59.5352C57.1655 59.5352 56.793 59.9077 56.793 60.3607C56.793 60.8238 57.1655 61.1863 57.6286 61.1863C58.0816 61.1863 58.4642 60.8138 58.4642 60.3607Z" fill="#1F1D20"/>
<path opacity="0.15" d="M58.4642 56.7162C58.4642 56.2531 58.0917 55.8906 57.6286 55.8906C57.1655 55.8906 56.793 56.2631 56.793 56.7162C56.793 57.1793 57.1655 57.5417 57.6286 57.5417C58.0816 57.5518 58.4642 57.1793 58.4642 56.7162Z" fill="#1F1D20"/>
<path opacity="0.15" d="M58.4642 53.0912C58.4642 52.6281 58.0917 52.2656 57.6286 52.2656C57.1655 52.2656 56.793 52.6381 56.793 53.0912C56.793 53.5543 57.1655 53.9167 57.6286 53.9167C58.0816 53.9067 58.4642 53.5442 58.4642 53.0912Z" fill="#1F1D20"/>
<path opacity="0.15" d="M58.4642 49.4467C58.4642 48.9835 58.0917 48.6211 57.6286 48.6211C57.1655 48.6211 56.793 48.9936 56.793 49.4467C56.793 49.8997 57.1655 50.2722 57.6286 50.2722C58.0816 50.2722 58.4642 49.8997 58.4642 49.4467Z" fill="#1F1D20"/>
<path opacity="0.15" d="M58.4642 45.8138C58.4642 45.3507 58.0917 44.9883 57.6286 44.9883C57.1655 44.9883 56.793 45.3608 56.793 45.8138C56.793 46.277 57.1655 46.6394 57.6286 46.6394C58.0816 46.6394 58.4642 46.2669 58.4642 45.8138Z" fill="#1F1D20"/>
<path opacity="0.15" d="M58.4642 42.1791C58.4642 41.716 58.0917 41.3535 57.6286 41.3535C57.1655 41.3535 56.793 41.726 56.793 42.1791C56.793 42.6321 57.1655 43.0046 57.6286 43.0046C58.0816 43.0046 58.4642 42.6321 58.4642 42.1791Z" fill="#1F1D20"/>
<path opacity="0.15" d="M58.2932 64.348H53.9036C53.7324 64.348 53.6016 64.2171 53.6016 64.046V38.4134C53.6016 38.2422 53.7324 38.1113 53.9036 38.1113H58.2932C58.4643 38.1113 58.5952 38.2422 58.5952 38.4134C58.5952 38.5845 58.4643 38.7154 58.2932 38.7154H54.2056V63.7439H58.2932C58.4643 63.7439 58.5952 63.8748 58.5952 64.046C58.5952 64.2171 58.4542 64.348 58.2932 64.348Z" fill="#1F1D20"/>
<path d="M58.4642 59.8881C58.4642 59.4249 58.0917 59.0625 57.6286 59.0625C57.1655 59.0625 56.793 59.435 56.793 59.8881C56.793 60.3411 57.1655 60.7136 57.6286 60.7136C58.0816 60.7237 58.4642 60.3411 58.4642 59.8881Z" fill="#3BCAF4"/>
<path d="M58.4642 56.2533C58.4642 55.7902 58.0917 55.4277 57.6286 55.4277C57.1655 55.4277 56.793 55.8002 56.793 56.2533C56.793 56.7164 57.1655 57.0789 57.6286 57.0789C58.0816 57.0789 58.4642 56.7063 58.4642 56.2533Z" fill="#3BCAF4"/>
<path d="M58.4642 52.6185C58.4642 52.1554 58.0917 51.793 57.6286 51.793C57.1655 51.793 56.793 52.1655 56.793 52.6185C56.793 53.0816 57.1655 53.4441 57.6286 53.4441C58.0816 53.434 58.4642 53.0716 58.4642 52.6185Z" fill="#50E6FF"/>
<path d="M58.4642 48.974C58.4642 48.5109 58.0917 48.1484 57.6286 48.1484C57.1655 48.1484 56.793 48.5209 56.793 48.974C56.793 49.427 57.1655 49.7996 57.6286 49.7996C58.0816 49.7996 58.4642 49.427 58.4642 48.974Z" fill="#50E6FF"/>
<path d="M58.4642 45.3412C58.4642 44.8781 58.0917 44.5156 57.6286 44.5156C57.1655 44.5156 56.793 44.8881 56.793 45.3412C56.793 45.8043 57.1655 46.1667 57.6286 46.1667C58.0816 46.1667 58.4642 45.7942 58.4642 45.3412Z" fill="#9CEBFF"/>
<path d="M58.4642 41.7064C58.4642 41.2433 58.0917 40.8809 57.6286 40.8809C57.1655 40.8809 56.793 41.2534 56.793 41.7064C56.793 42.1595 57.1655 42.532 57.6286 42.532C58.0816 42.532 58.4642 42.1595 58.4642 41.7064Z" fill="#9CEBFF"/>
<path d="M58.2932 63.8753H53.9036C53.7324 63.8753 53.6016 63.7444 53.6016 63.5733V37.9407C53.6016 37.7696 53.7324 37.6387 53.9036 37.6387H58.2932C58.4643 37.6387 58.5952 37.7696 58.5952 37.9407C58.5952 38.1119 58.4643 38.2427 58.2932 38.2427H54.2056V63.2713H58.2932C58.4643 63.2713 58.5952 63.4021 58.5952 63.5733C58.5952 63.7444 58.4542 63.8753 58.2932 63.8753Z" fill="#78787D"/>
<path opacity="0.15" d="M47.5504 55.1465H25.5522V68.0232C25.5522 68.4158 25.8744 68.7279 26.257 68.7279H46.8356C47.2282 68.7279 47.5403 68.4058 47.5403 68.0232L47.5504 55.1465Z" fill="#1F1D20"/>
<path d="M47.5504 54.3203H25.5522V67.197C25.5522 67.5897 25.8744 67.9018 26.257 67.9018H46.8356C47.2282 67.9018 47.5403 67.5796 47.5403 67.197L47.5504 54.3203Z" fill="url(#paint2_linear_1284:2774)"/>
<path d="M46.8054 52.418H26.2973C25.8946 52.418 25.5522 52.7502 25.5522 53.163V54.7738H47.5403V53.163C47.5504 52.7502 47.2282 52.418 46.8054 52.418Z" fill="url(#paint3_linear_1284:2774)"/>
<path d="M35.0966 58.8203H28.915C28.6532 58.8203 28.4216 59.0418 28.4216 59.3136C28.4216 59.5754 28.6431 59.807 28.915 59.807H35.0865C35.3684 59.7969 35.5798 59.5653 35.5798 59.3036C35.5798 59.0317 35.3684 58.8203 35.0966 58.8203Z" fill="white"/>
<path d="M35.0966 60.9258H28.915C28.6532 60.9258 28.4216 61.1473 28.4216 61.4191C28.4216 61.6909 28.6431 61.9124 28.915 61.9124H35.0865C35.3684 61.9024 35.5798 61.6708 35.5798 61.4191C35.5798 61.1473 35.3684 60.9258 35.0966 60.9258Z" fill="white"/>
<path fill-rule="evenodd" clip-rule="evenodd" d="M28.915 63.1914H31.9957C32.2575 63.1914 32.489 63.4129 32.489 63.6847C32.489 63.9465 32.2675 64.178 31.9957 64.178H28.915C28.6532 64.178 28.4216 63.9566 28.4216 63.6847C28.4418 63.423 28.6532 63.1914 28.915 63.1914Z" fill="white"/>
<path opacity="0.15" d="M47.5504 36.2402H25.5522V49.1169C25.5522 49.5096 25.8744 49.8217 26.257 49.8217H46.8356C47.2282 49.8217 47.5403 49.4995 47.5403 49.1169L47.5504 36.2402Z" fill="#1F1D20"/>
<path d="M47.5504 35.4141H25.5522V48.2908C25.5522 48.6834 25.8744 48.9955 26.257 48.9955H46.8356C47.2282 48.9955 47.5403 48.6733 47.5403 48.2908L47.5504 35.4141Z" fill="url(#paint4_linear_1284:2774)"/>
<path d="M46.8047 33.5117H26.3168C25.8939 33.5117 25.5718 33.844 25.5718 34.2567V35.8676H47.5598V34.2567C47.5498 33.844 47.2276 33.5117 46.8047 33.5117Z" fill="url(#paint5_linear_1284:2774)"/>
<path d="M35.0971 39.7031H28.9154C28.6537 39.7031 28.4221 39.9246 28.4221 40.1964C28.4221 40.4582 28.6436 40.6898 28.9154 40.6898H35.087C35.3689 40.6797 35.5803 40.4481 35.5803 40.1864C35.5803 39.9145 35.3689 39.7031 35.0971 39.7031Z" fill="white"/>
<path d="M35.0971 41.8086H28.9154C28.6537 41.8086 28.4221 42.0301 28.4221 42.3019C28.4221 42.5737 28.6436 42.7952 28.9154 42.7952H35.087C35.3689 42.7852 35.5803 42.5536 35.5803 42.3019C35.5803 42.0301 35.3689 41.8086 35.0971 41.8086Z" fill="white"/>
<path fill-rule="evenodd" clip-rule="evenodd" d="M28.9154 44.0723H31.9962C32.2579 44.0723 32.4895 44.2938 32.4895 44.5656C32.4895 44.8374 32.268 45.0589 31.9962 45.0589H28.9154C28.6537 45.0589 28.4221 44.8374 28.4221 44.5656C28.4423 44.3038 28.6537 44.0723 28.9154 44.0723Z" fill="white"/>
<path fill-rule="evenodd" clip-rule="evenodd" d="M58.2703 37.6367H77.1251C77.9083 37.6367 78.5492 38.2776 78.5492 39.0608V63.3413C78.5492 64.1246 77.9083 64.7654 77.1251 64.7654H58.2703C57.487 64.7654 56.8462 64.1246 56.8462 63.3413V39.0608C56.8462 38.2776 57.4728 37.6367 58.2703 37.6367Z" fill="#195C37"/>
<path d="M78.5492 51.1934H67.6978V57.972H78.5492V51.1934Z" fill="#107B42"/>
<path d="M78.5492 44.416H67.6978V51.1946H78.5492V44.416Z" fill="#22A366"/>
<path d="M67.6976 44.416H56.1626V51.1946H67.6976V44.416Z" fill="#117740"/>
<path fill-rule="evenodd" clip-rule="evenodd" d="M67.6978 37.6367H77.1252C77.9084 37.6367 78.5492 38.2776 78.5492 39.0608V44.4153H67.6978V37.6367Z" fill="#34C481"/>
<path fill-rule="evenodd" clip-rule="evenodd" d="M67.6976 37.6367H57.5867C56.8034 37.6367 56.1626 38.2776 56.1626 39.0608V44.4153H67.6976V37.6367Z" fill="#21A465"/>
<path fill-rule="evenodd" clip-rule="evenodd" d="M51.4836 44.418H63.5598C64.3431 44.418 64.9839 45.0588 64.9839 45.842V57.2347C64.9839 58.0179 64.3431 58.6588 63.5598 58.6588H51.4836C50.7004 58.6588 50.0596 58.0179 50.0596 57.2347V45.842C50.0596 45.0588 50.7004 44.418 51.4836 44.418Z" fill="#137F47"/>
<path fill-rule="evenodd" clip-rule="evenodd" d="M56.1834 51.908L53.7197 47.8066H55.6565L57.3369 50.9111L59.0173 47.8066H60.8116L58.3195 51.851L60.9113 55.9524H58.8891L57.2229 52.62L55.5283 55.9524H53.4634L56.1834 51.908Z" fill="white"/>
<defs>
<linearGradient id="paint0_linear_1284:2774" x1="49.603" y1="-13.2197" x2="53.585" y2="132.55" gradientUnits="userSpaceOnUse">
<stop stop-color="#00ABDE"/>
<stop offset="1" stop-color="#007ED8"/>
</linearGradient>
<linearGradient id="paint1_linear_1284:2774" x1="2.80728" y1="-20.0524" x2="98.3348" y2="120.829" gradientUnits="userSpaceOnUse">
<stop stop-color="#007ED8"/>
<stop offset="0.7065" stop-color="#002D4C"/>
</linearGradient>
<linearGradient id="paint2_linear_1284:2774" x1="34.1106" y1="45.8129" x2="37.7063" y2="76.7865" gradientUnits="userSpaceOnUse">
<stop stop-color="#007ED8"/>
<stop offset="0.7065" stop-color="#002D4C"/>
</linearGradient>
<linearGradient id="paint3_linear_1284:2774" x1="25.1438" y1="51.7944" x2="25.5177" y2="56.9401" gradientUnits="userSpaceOnUse">
<stop stop-color="#007ED8"/>
<stop offset="0.7065" stop-color="#002D4C"/>
</linearGradient>
<linearGradient id="paint4_linear_1284:2774" x1="34.1106" y1="26.9067" x2="37.7063" y2="57.8802" gradientUnits="userSpaceOnUse">
<stop stop-color="#007ED8"/>
<stop offset="0.7065" stop-color="#002D4C"/>
</linearGradient>
<linearGradient id="paint5_linear_1284:2774" x1="25.1634" y1="32.8881" x2="25.5372" y2="38.0339" gradientUnits="userSpaceOnUse">
<stop stop-color="#007ED8"/>
<stop offset="0.7065" stop-color="#002D4C"/>
</linearGradient>
</defs>
</svg>
