<svg width="103" height="103" viewBox="0 0 103 103" fill="none" xmlns="http://www.w3.org/2000/svg">
<path d="M51.5027 5.33252C50.4651 5.33252 49.1391 5.97626 48.2264 6.54314L15.7797 26.4031C13.7812 27.6234 12.6475 31.1496 12.6475 33.6861L12.9837 71.7727C12.9837 74.3093 14.694 76.5864 16.6925 77.8066L48.9566 97.2439C50.7917 98.3584 52.281 98.3584 54.1161 97.2439L86.8126 77.7586C88.8111 76.5384 90.4253 74.2997 90.4253 71.7727V32.437C90.4253 29.9005 88.9648 27.2967 86.9567 26.0669L54.5965 6.54314C53.6838 5.98587 52.55 5.33252 51.5027 5.33252Z" fill="#B7D2F7"/>
<path d="M51.5458 101.916C49.9124 101.916 48.3078 101.465 46.8858 100.6L13.7666 80.4804C10.8073 78.6837 8.97217 75.3016 8.97217 71.6409V31.7384C8.97217 28.0969 10.8073 24.7052 13.7666 22.8989L46.8762 2.7891C49.7202 1.05964 53.3617 1.06925 56.1961 2.7891L89.2961 22.9181C92.2554 24.7148 94.1002 28.0969 94.1002 31.7576V71.6602C94.1002 74.7348 92.7935 77.6364 90.6028 79.5388V79.558L56.1961 100.619C54.7933 101.465 53.1792 101.916 51.5458 101.916ZM51.1903 5.21035C50.1526 5.21035 48.8267 5.85409 47.9139 6.42097L15.4673 26.281C13.4688 27.5012 12.335 31.0274 12.335 33.5639L12.6713 71.6505C12.6713 74.1871 14.3815 76.4642 16.38 77.6845L48.6441 97.1217C50.4793 98.2362 51.9685 98.2362 53.8037 97.1217L86.5001 77.6364C88.4986 76.4162 90.1128 74.1775 90.1128 71.6505V32.3149C90.1128 29.7783 88.6524 27.1745 86.6443 25.9447L54.2841 6.42097C53.3713 5.8637 52.2376 5.21035 51.1903 5.21035Z" fill="#F2F1F0"/>
<path d="M51.5311 99.6409C50.0995 99.6409 48.5622 99.1413 46.9673 98.1612L15.7408 79.1852C12.8584 77.4365 11.0713 74.1409 11.0713 70.5859V32.9317C11.0713 29.3863 12.8584 26.0907 15.7408 24.3324L46.9673 5.34673C48.1683 4.61651 49.7824 3.771 51.5311 3.771C53.251 3.771 54.7979 4.56847 56.0854 5.33712H56.095L87.331 24.3228C90.2134 26.0715 92.0006 29.367 92.0006 32.9221V70.5859C92.0006 75.6398 89.7522 77.7055 87.331 79.1852L56.095 98.1708C54.452 99.1605 52.9627 99.6409 51.5311 99.6409ZM51.5311 7.61425C50.724 7.61425 49.6864 8.19073 48.9657 8.6231L17.7393 27.6088C16.0003 28.6753 14.9145 30.7122 14.9145 32.9317V70.5859C14.9145 72.8054 16.0003 74.8423 17.7393 75.9088L48.9657 94.8945C49.965 95.4998 50.8201 95.8073 51.5311 95.8073C52.2325 95.8073 53.0972 95.4998 54.0965 94.8945L85.3325 75.9088C87.2445 74.7366 88.1573 73.6413 88.1573 70.5859V32.9317C88.1573 30.7122 87.0716 28.6753 85.3325 27.6088L54.0965 8.63271C53.3086 8.16191 52.3094 7.61425 51.5311 7.61425Z" fill="#0066FF"/>
<path opacity="0.15" d="M53.6308 49.7708L57.3897 47.6738L73.529 57.3925C73.7757 57.5353 73.7692 57.8989 73.5225 58.0352L70.4323 59.7621C70.0752 59.9568 69.6402 59.9504 69.2897 59.7426L53.6243 50.3096C53.4165 50.1863 53.423 49.8876 53.6308 49.7708Z" fill="#1F1D20"/>
<path d="M74.5095 27.804C74.516 26.0576 73.276 23.9087 71.7569 23.0323L59.0454 15.5404C58.2793 15.099 57.5847 15.06 57.0783 15.3521L54.1958 17.0726C54.7022 16.7804 55.3968 16.8194 56.1629 17.2608L68.8744 24.7527C70.3935 25.6291 71.6335 27.778 71.627 29.5244L71.5491 57.0378C71.5491 57.9077 71.2375 58.518 70.7376 58.8101L73.6201 57.0897C74.12 56.8041 74.4251 56.1873 74.4316 55.3174L74.5095 27.804Z" fill="#BCBCBC"/>
<path d="M68.874 24.7461C70.3932 25.6225 71.6332 27.7714 71.6267 29.5177L71.5488 57.0312C71.5423 58.7775 70.2958 59.4917 68.7767 58.6087L56.0652 51.1299C54.546 50.2534 53.306 48.1046 53.3125 46.3582L53.3904 18.8448C53.3969 17.0984 54.6434 16.3843 56.1626 17.2672L68.874 24.7461Z" fill="#E1E4E1"/>
<path d="M69.3869 42.5084V43.0408L55.5718 35.062V34.5361L69.3869 42.5084Z" fill="#323237"/>
<path d="M57.8963 46.3905C58.6688 46.8385 59.2856 47.9097 59.2856 48.7926C59.2856 49.6755 58.6624 50.0326 57.8898 49.5911C57.1172 49.1432 56.5005 48.072 56.5005 47.1891C56.5005 46.2997 57.1237 45.9426 57.8963 46.3905Z" fill="#323237"/>
<path d="M62.0183 45.0732C62.7908 45.5211 63.4076 46.5923 63.4076 47.4752C63.4076 48.3582 62.7843 48.7152 62.0118 48.2738C61.2457 47.8323 60.6225 46.7546 60.629 45.8717C60.629 44.9823 61.2522 44.6252 62.0183 45.0732Z" fill="#323237"/>
<path d="M66.4787 43.8265C67.2513 44.2744 67.868 45.3456 67.868 46.2285C67.868 47.1115 67.2448 47.4685 66.4722 47.0271C65.7062 46.5856 65.0829 45.5079 65.0894 44.625C65.0894 43.7421 65.7126 43.385 66.4787 43.8265Z" fill="#323237"/>
<path d="M66.1801 26.4986C66.9462 26.9401 67.5694 28.0178 67.5629 28.9007C67.5629 29.7836 66.9397 30.1342 66.1671 29.6927C65.3946 29.2448 64.7778 28.1736 64.7778 27.2907C64.7908 26.4077 65.4141 26.0507 66.1801 26.4986Z" fill="#323237"/>
<path d="M66.1801 34.5949C66.9462 35.0363 67.5694 36.114 67.5629 36.997C67.5629 37.8799 66.9397 38.2305 66.1671 37.789C65.3946 37.341 64.7778 36.2698 64.7778 35.3869C64.7908 34.504 65.4141 34.1534 66.1801 34.5949Z" fill="#323237"/>
<path d="M58.6357 22.7598C59.4018 23.2013 60.025 24.279 60.0185 25.1619C60.0185 26.0448 59.3953 26.3954 58.6227 25.954C57.8501 25.506 57.2334 24.4348 57.2334 23.5519C57.2399 22.669 57.8631 22.3119 58.6357 22.7598Z" fill="#323237"/>
<path opacity="0.15" d="M42.0227 63.2083L45.7816 61.1113L61.9144 70.8235C62.1611 70.9663 62.1546 71.3299 61.9079 71.4662L58.8177 73.1931C58.4606 73.3879 58.0257 73.3814 57.6751 73.1736L42.0097 63.7406C41.8085 63.6238 41.8085 63.3251 42.0227 63.2083Z" fill="#1F1D20"/>
<path d="M62.9011 40.9485C62.9076 39.2021 61.6676 37.0532 60.1485 36.1768L47.437 28.685C46.6709 28.2435 45.9763 28.2045 45.4699 28.4967L42.5874 30.2171C43.0938 29.9249 43.7884 29.9639 44.5545 30.4054L57.266 37.8972C58.7851 38.7736 60.0251 40.9225 60.0186 42.6689L59.9407 70.1823C59.9407 71.0523 59.6291 71.6625 59.1292 71.9547L62.0117 70.2343C62.5116 69.9486 62.8167 69.3319 62.8232 68.4619L62.9011 40.9485Z" fill="#BCBCBC"/>
<path d="M57.2661 37.8912C58.7853 38.7676 60.0253 40.9165 60.0188 42.6629L59.9409 70.1763C59.9344 71.9227 58.6879 72.6368 57.1688 71.7539L44.4573 64.2685C42.9381 63.3921 41.6981 61.2432 41.7046 59.4969L41.7825 31.9834C41.789 30.2371 43.0355 29.5229 44.5546 30.4058L57.2661 37.8912Z" fill="#E1E4E1"/>
<path d="M57.779 55.6531V56.1789L43.9639 48.2067V47.6743L57.779 55.6531Z" fill="#323237"/>
<path d="M54.7019 56.9253C55.4744 57.3732 56.0912 58.4444 56.0912 59.3274C56.0912 60.2103 55.4679 60.5673 54.6954 60.1259C53.9293 59.6844 53.3061 58.6067 53.3126 57.7238C53.3126 56.8344 53.9358 56.4838 54.7019 56.9253Z" fill="#323237"/>
<path d="M54.7019 63.3006C55.4744 63.7485 56.0912 64.8197 56.0912 65.7027C56.0912 66.5856 55.4679 66.9426 54.6954 66.5012C53.9293 66.0597 53.3061 64.982 53.3126 64.0991C53.3126 63.2162 53.9358 62.8591 54.7019 63.3006Z" fill="#323237"/>
<path d="M47.0278 43.9928C47.7938 44.4343 48.4171 45.512 48.4106 46.3949C48.4106 47.2778 47.7874 47.6284 47.0148 47.1869C46.2422 46.739 45.6255 45.6678 45.6255 44.7849C45.632 43.9019 46.2552 43.5514 47.0278 43.9928Z" fill="#323237"/>
<path d="M54.5332 40.9483C56.0199 40.5069 57.6949 43.3959 56.5652 44.4735C55.0656 44.902 53.3971 42.0066 54.5332 40.9483C54.5332 40.9483 54.5332 40.9548 54.5332 40.9483Z" fill="#323237"/>
<path opacity="0.15" d="M28.8749 78.1155L32.6338 76.0186L48.7731 85.7372C49.0198 85.88 49.0133 86.2436 48.7666 86.3799L45.6764 88.1068C45.3193 88.3016 44.8844 88.2951 44.5338 88.0873L28.8684 78.6543C28.6671 78.531 28.6671 78.2324 28.8749 78.1155Z" fill="#1F1D20"/>
<path d="M49.7602 56.2415C49.7666 54.4951 48.5267 52.3462 47.0075 51.4698L34.2895 43.9779C33.5235 43.5365 32.8288 43.4975 32.3224 43.7896L29.4399 45.5101C29.9463 45.2179 30.641 45.2569 31.407 45.6983L44.1185 53.1902C45.6377 54.0666 46.8777 56.2155 46.8712 57.9619L46.7933 85.4753C46.7933 86.3452 46.4817 86.9555 45.9818 87.2476L48.8642 85.5272C49.3641 85.2416 49.6693 84.6248 49.6758 83.7549L49.7602 56.2415Z" fill="#BCBCBC"/>
<path d="M44.125 53.1842C45.6442 54.0606 46.8842 56.2095 46.8777 57.9559L46.7998 85.4693C46.7933 87.2157 45.5468 87.9298 44.0276 87.0469L31.3161 79.5615C29.797 78.6851 28.557 76.5362 28.5635 74.7898L28.6414 47.2764C28.6479 45.53 29.8944 44.8159 31.4135 45.6988L44.125 53.1842Z" fill="#E1E4E1"/>
<path d="M44.3913 70.946V71.4784L30.5762 63.4996V62.9673L44.3913 70.946Z" fill="#1E1E1E"/>
<path d="M34.367 75.2895C35.1395 75.7375 35.7563 76.8087 35.7563 77.6916C35.7563 78.5745 35.1331 78.9316 34.3605 78.4901C33.5879 78.0422 32.9712 76.971 32.9712 76.0881C32.9712 75.1987 33.6009 74.8481 34.367 75.2895Z" fill="#1E1E1E"/>
<path d="M37.6198 73.9584C38.3924 74.4064 39.0091 75.4776 39.0091 76.3605C39.0091 77.2434 38.3859 77.6005 37.6133 77.159C36.8473 76.7176 36.224 75.6399 36.2305 74.7569C36.2305 73.8675 36.8538 73.5105 37.6198 73.9584Z" fill="#1E1E1E"/>
<path d="M40.8793 72.6338C41.6454 73.0752 42.2686 74.1529 42.2622 75.0358C42.2622 75.9187 41.6389 76.2693 40.8664 75.8279C40.0938 75.3799 39.4771 74.3087 39.4771 73.4258C39.4835 72.5494 40.1068 72.1923 40.8793 72.6338Z" fill="#1E1E1E"/>
<path d="M40.3983 55.313L40.4243 55.3649L42.4368 59.1498L36.1979 63.4346L36.3083 63.4995L33.1532 61.6752C32.7701 61.4545 32.5689 60.8183 32.8221 60.6365L36.2629 58.2149L40.3983 55.313Z" fill="url(#paint0_linear)"/>
<path d="M42.4371 59.1562L44.203 62.4542C44.3783 62.7853 44.3718 63.1229 44.1965 63.2398L40.4311 65.7717C40.3791 65.8106 40.2947 65.8041 40.2103 65.7587L36.3086 63.5059L36.1982 63.441L42.4371 59.1562Z" fill="url(#paint1_linear)"/>
<path d="M40.4313 55.3131V55.3651L40.4053 55.3131L36.2699 58.2216L32.881 51.9048C32.5953 51.3724 32.8226 50.9245 33.251 51.1712L40.4313 55.3131Z" fill="url(#paint2_linear)"/>
<defs>
<linearGradient id="paint0_linear" x1="24.9841" y1="57.6919" x2="44.0208" y2="60.138" gradientUnits="userSpaceOnUse">
<stop stop-color="#388CF4"/>
<stop offset="1" stop-color="#2C7CEF"/>
</linearGradient>
<linearGradient id="paint1_linear" x1="36.1984" y1="62.475" x2="44.3341" y2="62.475" gradientUnits="userSpaceOnUse">
<stop stop-color="#76C0FD"/>
<stop offset="1" stop-color="#63B2FB"/>
</linearGradient>
<linearGradient id="paint2_linear" x1="30.7648" y1="47.3277" x2="41.6126" y2="60.8342" gradientUnits="userSpaceOnUse">
<stop offset="0.4598" stop-color="#1152D4"/>
<stop offset="0.6156" stop-color="#0D3FB3"/>
</linearGradient>
</defs>
</svg>
