<?xml version="1.0" encoding="UTF-8"?>
<svg width="101px" height="101px" viewBox="0 0 101 101" version="1.1" xmlns="http://www.w3.org/2000/svg" xmlns:xlink="http://www.w3.org/1999/xlink">
    <!-- Generator: Sketch 63.1 (92452) - https://sketch.com -->
    <title>Bring AI to your business with AI Builder/Manage-models-in-AI-Builder</title>
    <desc>Created with Sketch.</desc>
    <defs>
        <rect id="path-1" x="0" y="0" width="94.3396226" height="94.3396226" rx="47.1698113"></rect>
        <linearGradient x1="50%" y1="0%" x2="50%" y2="100%" id="linearGradient-3">
            <stop stop-color="#4E4E57" offset="0%"></stop>
            <stop stop-color="#2E2E34" offset="100%"></stop>
        </linearGradient>
        <rect id="path-4" x="0" y="0" width="94.3396226" height="94.3396226"></rect>
        <rect id="path-5" x="0" y="0" width="100" height="100" rx="50"></rect>
        <filter x="-0.5%" y="-0.5%" width="102.0%" height="102.0%" filterUnits="objectBoundingBox" id="filter-6">
            <feOffset dx="1" dy="1" in="SourceAlpha" result="shadowOffsetOuter1"></feOffset>
            <feMorphology radius="4" operator="erode" in="SourceAlpha" result="shadowInner"></feMorphology>
            <feOffset dx="1" dy="1" in="shadowInner" result="shadowInner"></feOffset>
            <feComposite in="shadowOffsetOuter1" in2="shadowInner" operator="out" result="shadowOffsetOuter1"></feComposite>
            <feColorMatrix values="0 0 0 0 0   0 0 0 0 0   0 0 0 0 0  0 0 0 0.15 0" type="matrix" in="shadowOffsetOuter1"></feColorMatrix>
        </filter>
        <path d="M50,2.83018868 C76.0511674,2.83018868 97.1698113,23.9488326 97.1698113,50 C97.1698113,76.0511674 76.0511674,97.1698113 50,97.1698113 C23.9488326,97.1698113 2.83018868,76.0511674 2.83018868,50 C2.83018868,23.9488326 23.9488326,2.83018868 50,2.83018868 Z M50,6.60377358 C26.032926,6.60377358 6.60377358,26.032926 6.60377358,50 C6.60377358,73.967074 26.032926,93.3962264 50,93.3962264 C73.967074,93.3962264 93.3962264,73.967074 93.3962264,50 C93.3962264,26.032926 73.967074,6.60377358 50,6.60377358 Z" id="path-7"></path>
        <filter x="-17.6%" y="-17.6%" width="135.3%" height="135.3%" filterUnits="objectBoundingBox" id="filter-9">
            <feOffset dx="0" dy="2" in="SourceAlpha" result="shadowOffsetOuter1"></feOffset>
            <feGaussianBlur stdDeviation="2" in="shadowOffsetOuter1" result="shadowBlurOuter1"></feGaussianBlur>
            <feColorMatrix values="0 0 0 0 0   0 0 0 0 0   0 0 0 0 0  0 0 0 0.1 0" type="matrix" in="shadowBlurOuter1" result="shadowMatrixOuter1"></feColorMatrix>
            <feMerge>
                <feMergeNode in="shadowMatrixOuter1"></feMergeNode>
                <feMergeNode in="SourceGraphic"></feMergeNode>
            </feMerge>
        </filter>
        <linearGradient x1="50%" y1="-9.93901477%" x2="50%" y2="100%" id="linearGradient-10">
            <stop stop-color="#FFFFFF" offset="0%"></stop>
            <stop stop-color="#CBCBCB" offset="100%"></stop>
        </linearGradient>
        <path d="M68,37.0781893 L68,29.2427984 L59.9917355,26.4444444 L58.0247934,21.127572 L61.9586777,12.872428 L61.9586777,12.0329218 L59.4297521,9.51440329 L56.4793388,6.1563786 L55.3553719,6.1563786 L47.4876033,10.3539095 L42.1487603,8.81481481 L38.6363636,0 L30.9090909,0 L28.2396694,7.97530864 L22.338843,10.3539095 L13.2066116,6.01646091 L7.72727273,11.473251 L7.72727273,12.4526749 L11.8016529,20.2880658 L9.41322314,26.1646091 L0,29.6625514 L0,37.4979424 L1.12396694,37.4979424 L9.41322314,40.2962963 L11.661157,45.6131687 L7.44628099,54.7078189 L12.9256198,60.3045267 L14.0495868,60.3045267 L21.7768595,56.3868313 L27.2561983,58.6255144 L30.6280992,68 L38.4958678,68 L38.4958678,66.8806584 L41.1652893,58.4855967 L46.5041322,56.2469136 L55.7768595,60.5843621 L61.2561983,55.127572 L61.2561983,54.0082305 L57.322314,46.1728395 L58.8677686,40.7160494 L68,37.0781893 Z M34.5635047,43.7133804 C28.7094782,43.0848202 24.2857143,38.3813344 24.2857143,32.7857084 C24.2857143,27.1900824 28.7094782,22.4865966 34.5635047,21.8580365 C37.6207304,21.8208054 40.566257,22.9483201 42.7419461,24.9886523 C44.9176351,27.0289845 46.1421553,29.8120844 46.141904,32.7161054 L46.141904,32.7161054 C46.1816872,35.6441845 44.9746029,38.4633927 42.7945482,40.5340297 C40.6144935,42.6046666 37.646311,43.7511668 34.5635047,43.7133804 Z" id="path-11"></path>
        <filter x="0.0%" y="0.0%" width="100.0%" height="100.0%" filterUnits="objectBoundingBox" id="filter-12">
            <feOffset dx="0" dy="0" in="SourceAlpha" result="shadowOffsetOuter1"></feOffset>
            <feColorMatrix values="0 0 0 0 0   0 0 0 0 0   0 0 0 0 0  0 0 0 0.1 0" type="matrix" in="shadowOffsetOuter1"></feColorMatrix>
        </filter>
        <linearGradient x1="50%" y1="0%" x2="50%" y2="100%" id="linearGradient-13">
            <stop stop-color="#DA67CB" offset="0%"></stop>
            <stop stop-color="#752375" offset="100%"></stop>
        </linearGradient>
    </defs>
    <g id="Badges" stroke="none" stroke-width="1" fill="none" fill-rule="evenodd">
        <g id="Bring-AI-to-your-business-with-AI-Builder" transform="translate(-160.000000, -510.000000)">
            <g id="Bring-AI-to-your-business-with-AI-Builder/Manage-models-in-AI-Builder" transform="translate(160.000000, 510.000000)">
                <g id="Badge-Plates/Circle">
                    <g id="BG" transform="translate(2.830189, 2.830189)">
                        <mask id="mask-2" fill="white">
                            <use xlink:href="#path-1"></use>
                        </mask>
                        <g></g>
                        <g id="Colors/PowerApps/BG-Solid-1" mask="url(#mask-2)">
                            <rect id="Rectangle" fill="url(#linearGradient-3)" x="0" y="0" width="94.3396226" height="94.3396226"></rect>
                            <g id="Rectangle">
                                <use fill="#742774" xlink:href="#path-4"></use>
                                <use fill-opacity="0.501092657" fill="#FFFFFF" xlink:href="#path-4"></use>
                            </g>
                        </g>
                    </g>
                    <g id="Border">
                        <g id="White-Border">
                            <use fill="black" fill-opacity="1" filter="url(#filter-6)" xlink:href="#path-5"></use>
                            <rect stroke="#F2F1F0" stroke-width="4" stroke-linejoin="square" x="2" y="2" width="96" height="96" rx="48"></rect>
                        </g>
                        <mask id="mask-8" fill="white">
                            <use xlink:href="#path-7"></use>
                        </mask>
                        <use id="Boarder" fill="#0078D4" fill-rule="nonzero" xlink:href="#path-7"></use>
                        <g id="Colors/PowerApps/Border" mask="url(#mask-8)" fill="#752375">
                            <g transform="translate(2.830189, 2.830189)" id="Rectangle">
                                <rect x="0" y="0" width="94.3396226" height="94.3396226"></rect>
                            </g>
                        </g>
                    </g>
                </g>
                <g id="Gear" filter="url(#filter-9)" transform="translate(16.000000, 16.000000)">
                    <g id="a30ee4c9-49d5-4d00-a305-a6a3597e53b7" fill-rule="nonzero">
                        <g id="Shape">
                            <use fill="black" fill-opacity="1" filter="url(#filter-12)" xlink:href="#path-11"></use>
                            <use fill="url(#linearGradient-10)" xlink:href="#path-11"></use>
                        </g>
                    </g>
                    <circle id="Oval" fill="#FFFFFF" cx="35.030303" cy="32.969697" r="12.3636364"></circle>
                </g>
                <g id="AI-builder" transform="translate(40.000000, 42.000000)" stroke="url(#linearGradient-13)">
                    <circle id="Oval" cx="2.85714286" cy="7.14285714" r="2.85714286"></circle>
                    <circle id="Oval" cx="12.5" cy="6.78571429" r="5.35714286"></circle>
                    <circle id="Oval" fill="#FFFFFF" cx="16.4285714" cy="12.1428571" r="3.57142857"></circle>
                    <circle id="Oval" stroke-width="0.8" cx="17.5" cy="1.78571429" r="1.78571429"></circle>
                </g>
            </g>
        </g>
    </g>
</svg>