<svg width="100" height="100" viewBox="0 0 100 100" fill="none" xmlns="http://www.w3.org/2000/svg">
<g clip-path="url(#clip0)">
<path d="M49.6401 96.4501C40.382 96.4501 31.3317 93.7047 23.6339 88.5612C15.936 83.4176 9.93624 76.1069 6.3933 67.5535C2.85036 59.0001 1.92337 49.5882 3.72954 40.5079C5.53571 31.4277 9.99394 23.0869 16.5404 16.5404C23.0869 9.99393 31.4277 5.53571 40.5079 3.72954C49.5882 1.92337 59.0001 2.85036 67.5535 6.3933C76.1069 9.93624 83.4176 15.936 88.5612 23.6339C93.7047 31.3317 96.4501 40.382 96.4501 49.6401C96.4505 55.7874 95.24 61.8746 92.8878 67.554C90.5355 73.2335 87.0875 78.3939 82.7407 82.7407C78.3939 87.0875 73.2335 90.5355 67.554 92.8878C61.8746 95.24 55.7874 96.4505 49.6401 96.4501V96.4501Z" fill="url(#paint0_linear)"/>
<path fill-rule="evenodd" clip-rule="evenodd" d="M95.54 49.64C95.54 58.7182 92.848 67.5925 87.8045 75.1407C82.7609 82.6889 75.5923 88.572 67.2052 92.0461C58.818 95.5201 49.5891 96.4291 40.6854 94.658C31.7816 92.887 23.603 88.5154 17.1838 82.0962C10.7646 75.677 6.39302 67.4984 4.62196 58.5946C2.85089 49.6909 3.75987 40.462 7.23393 32.0748C10.708 23.6877 16.5911 16.5191 24.1393 11.4755C31.6875 6.43199 40.5618 3.74 49.64 3.74C55.6677 3.73998 61.6363 4.9272 67.2052 7.23388C72.774 9.54057 77.834 12.9215 82.0963 17.1837C86.3585 21.446 89.7394 26.5059 92.0461 32.0748C94.3528 37.6437 95.54 43.6123 95.54 49.64V49.64ZM49.64 3.62732e-07C59.4579 3.62732e-07 69.0553 2.91134 77.2185 8.36585C85.3818 13.8204 91.7442 21.5731 95.5014 30.6436C99.2585 39.7141 100.242 49.6951 98.3262 59.3243C96.4108 68.9535 91.6831 77.7985 84.7408 84.7408C77.7985 91.6831 68.9535 96.4108 59.3243 98.3262C49.6951 100.242 39.7141 99.2585 30.6436 95.5014C21.5731 91.7442 13.8204 85.3818 8.36585 77.2185C2.91134 69.0553 3.62732e-07 59.4579 3.62732e-07 49.64C-0.000787738 43.121 1.28265 36.6656 3.77702 30.6427C6.27138 24.6197 9.9278 19.1471 14.5375 14.5375C19.1471 9.9278 24.6197 6.27138 30.6427 3.77702C36.6656 1.28265 43.121 -0.000787738 49.64 3.62732e-07V3.62732e-07Z" fill="#F2F1F0"/>
<path fill-rule="evenodd" clip-rule="evenodd" d="M92.7296 49.6406C92.7296 58.163 90.2024 66.494 85.4676 73.5801C80.7328 80.6662 74.0031 86.1892 66.1294 89.4505C58.2557 92.7119 49.5918 93.5653 41.2331 91.9026C32.8745 90.24 25.1966 86.1361 19.1703 80.1098C13.1441 74.0836 9.04017 66.4057 7.37753 58.047C5.7149 49.6884 6.56822 41.0244 9.8296 33.1507C13.091 25.2771 18.6139 18.5473 25.7 13.8126C32.7862 9.07776 41.1172 6.55058 49.6396 6.55058C55.2983 6.55023 60.9017 7.66455 66.1298 9.82991C71.3579 11.9953 76.1082 15.1692 80.1096 19.1706C84.1109 23.1719 87.2849 27.9223 89.4502 33.1503C91.6156 38.3784 92.7299 43.9818 92.7296 49.6406V49.6406ZM49.6396 2.81058C58.9017 2.81058 67.9558 5.55711 75.6569 10.7029C83.3581 15.8486 89.3604 23.1624 92.9049 31.7195C96.4493 40.2766 97.3767 49.6925 95.5697 58.7767C93.7628 67.8608 89.3027 76.2051 82.7534 82.7544C76.2041 89.3037 67.8598 93.7638 58.7757 95.5708C49.6915 97.3777 40.2756 96.4503 31.7185 92.9059C23.1614 89.3614 15.8476 83.3591 10.7018 75.6579C5.5561 67.9568 2.80957 58.9027 2.80957 49.6406C2.81076 37.2209 7.745 25.3101 16.5271 16.5281C25.3091 7.74599 37.2198 2.81174 49.6396 2.81055V2.81058Z" fill="#0078D4"/>
<path fill-rule="evenodd" clip-rule="evenodd" d="M92.7296 49.6405C92.7296 58.1629 90.2024 66.494 85.4676 73.5801C80.7328 80.6662 74.0031 86.1891 66.1294 89.4505C58.2557 92.7119 49.5918 93.5652 41.2331 91.9026C32.8745 90.24 25.1966 86.136 19.1703 80.1098C13.1441 74.0835 9.04017 66.4056 7.37753 58.047C5.7149 49.6883 6.56822 41.0244 9.8296 33.1507C13.091 25.277 18.6139 18.5473 25.7001 13.8125C32.7862 9.07773 41.1172 6.55055 49.6396 6.55055C55.2983 6.5502 60.9017 7.66452 66.1298 9.82988C71.3579 11.9952 76.1082 15.1692 80.1096 19.1705C84.1109 23.1719 87.2849 27.9222 89.4502 33.1503C91.6156 38.3784 92.7299 43.9818 92.7296 49.6405V49.6405ZM49.6396 2.81055C58.9017 2.81055 67.9558 5.55708 75.6569 10.7028C83.3581 15.8486 89.3604 23.1624 92.9048 31.7195C96.4493 40.2765 97.3767 49.6925 95.5697 58.7766C93.7628 67.8608 89.3027 76.2051 82.7534 82.7544C76.2041 89.3036 67.8598 93.7638 58.7757 95.5707C49.6915 97.3777 40.2756 96.4503 31.7185 92.9058C23.1614 89.3614 15.8476 83.3591 10.7018 75.6579C5.5561 67.9568 2.80957 58.9026 2.80957 49.6405C2.81076 37.2208 7.74501 25.3101 16.5271 16.5281C25.3091 7.74599 37.2198 2.81174 49.6396 2.81055V2.81055Z" fill="#0078D4"/>
<path fill-rule="evenodd" clip-rule="evenodd" d="M27.5276 42.4052L48.7293 26.2333C49.1101 25.9428 49.5761 25.786 50.0551 25.7871C50.5341 25.7883 50.9994 25.9473 51.3789 26.2396L72.7797 42.7245L50.0298 60.2765L27.5276 42.4052Z" fill="#E8E8E8"/>
<path fill-rule="evenodd" clip-rule="evenodd" d="M35.0574 22.0234H64.2216C65.0909 22.026 65.9239 22.3724 66.5386 22.9872C67.1534 23.6019 67.4998 24.4349 67.5024 25.3042V53.8813C67.4998 54.7506 67.1534 55.5836 66.5386 56.1983C65.9239 56.813 65.0909 57.1595 64.2216 57.162H35.0574C34.188 57.1595 33.355 56.813 32.7403 56.1983C32.1256 55.5836 31.7792 54.7506 31.7766 53.8813V25.3042C31.7792 24.4349 32.1256 23.6019 32.7403 22.9872C33.355 22.3724 34.188 22.026 35.0574 22.0234Z" fill="white"/>
<path fill-rule="evenodd" clip-rule="evenodd" d="M61.1227 39.6644H38.1562C37.6834 39.6644 37.2301 39.4766 36.8958 39.1423C36.5616 38.8081 36.3738 38.3547 36.3738 37.882C36.3738 37.4093 36.5616 36.9559 36.8958 36.6217C37.2301 36.2874 37.6834 36.0996 38.1562 36.0996H61.1227C61.5954 36.0996 62.0488 36.2874 62.383 36.6217C62.7173 36.9559 62.9051 37.4093 62.9051 37.882C62.9051 38.3547 62.7173 38.8081 62.383 39.1423C62.0488 39.4766 61.5954 39.6644 61.1227 39.6644V39.6644Z" fill="#50E6FF"/>
<path fill-rule="evenodd" clip-rule="evenodd" d="M60.4983 47.6839H38.1562C37.6834 47.6839 37.2301 47.4961 36.8958 47.1619C36.5616 46.8276 36.3738 46.3742 36.3738 45.9015C36.3738 45.4288 36.5616 44.9754 36.8958 44.6412C37.2301 44.3069 37.6834 44.1191 38.1562 44.1191H60.4983C60.971 44.1191 61.4243 44.3069 61.7586 44.6412C62.0929 44.9754 62.2807 45.4288 62.2807 45.9015C62.2807 46.3742 62.0929 46.8276 61.7586 47.1619C61.4243 47.4961 60.971 47.6839 60.4983 47.6839V47.6839Z" fill="#9CEBFF"/>
<path fill-rule="evenodd" clip-rule="evenodd" d="M60.2315 55.7054H38.1562C37.6834 55.7054 37.2301 55.5176 36.8958 55.1833C36.5616 54.8491 36.3738 54.3957 36.3738 53.923C36.3738 53.4503 36.5616 52.9969 36.8958 52.6627C37.2301 52.3284 37.6834 52.1406 38.1562 52.1406H60.2315C60.7042 52.1406 61.1576 52.3284 61.4919 52.6627C61.8261 52.9969 62.0139 53.4503 62.0139 53.923C62.0139 54.3957 61.8261 54.8491 61.4919 55.1833C61.1576 55.5176 60.7042 55.7054 60.2315 55.7054V55.7054Z" fill="#C3F1FF"/>
<path opacity="0.2" fill-rule="evenodd" clip-rule="evenodd" d="M51.1471 59.4736L28.6451 41.6016L27.5281 42.4056L50.0301 60.2766L51.1471 59.4736Z" fill="#767676"/>
<path opacity="0.2" fill-rule="evenodd" clip-rule="evenodd" d="M72.7799 42.7246L50.2769 60.5966L49.1599 59.7926L71.6989 41.8926L72.7799 42.7246Z" fill="#767676"/>
<path fill-rule="evenodd" clip-rule="evenodd" d="M53.2894 26.8937C53.1035 26.7079 52.8514 26.6035 52.5885 26.6035C52.3256 26.6035 52.0735 26.7079 51.8876 26.8937L48.6201 30.1588L47.4399 28.9899C47.4123 28.9489 47.3811 28.9104 47.3467 28.875C47.162 28.69 46.9117 28.5856 46.6504 28.5844C46.389 28.5832 46.1378 28.6854 45.9515 28.8687C45.7651 29.0519 45.6588 29.3014 45.6556 29.5628C45.6524 29.8241 45.7527 30.0761 45.9345 30.2639L45.9227 30.2757L47.9222 32.257C48.1083 32.4428 48.3604 32.5471 48.6233 32.5471C48.8862 32.5471 49.1384 32.4428 49.3244 32.257L53.2864 28.2968L53.2894 28.2945C53.3815 28.2025 53.4545 28.0933 53.5043 27.9732C53.5541 27.853 53.5797 27.7242 53.5797 27.5941C53.5797 27.464 53.5541 27.3352 53.5043 27.215C53.4544 27.0948 53.3814 26.9856 53.2894 26.8937V26.8937Z" fill="#E8E8E8"/>
<path fill-rule="evenodd" clip-rule="evenodd" d="M44.369 55.7752L27.659 72.485C27.3872 72.218 27.1714 71.8994 27.0242 71.5479C26.877 71.1964 26.8014 70.8191 26.8018 70.438V44.3061C26.7999 43.6042 27.0586 42.9265 27.5277 42.4043L44.369 55.7752Z" fill="#E8E8E8"/>
<path fill-rule="evenodd" clip-rule="evenodd" d="M73.2588 44.307V70.439C73.2593 70.82 73.1838 71.1973 73.0367 71.5488C72.8896 71.9003 72.6739 72.2189 72.4022 72.486L55.7649 55.8487L72.7797 42.7246C73.0924 43.1931 73.2592 43.7438 73.2588 44.307Z" fill="#E8E8E8"/>
<path fill-rule="evenodd" clip-rule="evenodd" d="M72.4017 72.486C72.1345 72.7577 71.8159 72.9734 71.4644 73.1205C71.113 73.2676 70.7357 73.3431 70.3547 73.3426H29.705C29.3241 73.343 28.9469 73.2675 28.5956 73.1204C28.2442 72.9733 27.9257 72.7577 27.6587 72.486L44.3686 55.7761L48.5373 51.8551C48.9413 51.4751 49.4751 51.2636 50.0297 51.2637C50.5843 51.2638 51.118 51.4755 51.5218 51.8556L55.7643 55.8487L72.4017 72.486Z" fill="#F2F2F2"/>
<path opacity="0.2" fill-rule="evenodd" clip-rule="evenodd" d="M73.2588 73.3422V58.5425C71.1298 57.8497 68.8557 57.7309 66.6661 58.198C64.4765 58.6651 62.4488 59.7016 60.7878 61.2028C59.1268 62.704 57.8913 64.6169 57.2059 66.7483C56.5205 68.8797 56.4096 71.1542 56.8843 73.3422H73.2588Z" fill="#767676"/>
<path d="M69.3376 81.4041C75.2708 81.4041 80.0806 76.5943 80.0806 70.661C80.0806 64.7278 75.2708 59.918 69.3376 59.918C63.4043 59.918 58.5945 64.7278 58.5945 70.661C58.5945 76.5943 63.4043 81.4041 69.3376 81.4041Z" fill="white"/>
<path d="M66.0352 66.4316C66.0351 66.3169 66.0577 66.2034 66.1015 66.0975C66.1454 65.9915 66.2097 65.8953 66.2908 65.8142C66.3718 65.7331 66.4681 65.6688 66.574 65.625C66.68 65.5811 66.7935 65.5586 66.9082 65.5586H75.2739C75.5055 65.5586 75.7275 65.6506 75.8912 65.8143C76.055 65.978 76.1469 66.2001 76.1469 66.4316C76.1469 66.6632 76.055 66.8853 75.8912 67.049C75.7275 67.2127 75.5055 67.3047 75.2739 67.3047H66.9082C66.7935 67.3047 66.68 67.2822 66.574 67.2383C66.4681 67.1944 66.3718 67.1301 66.2908 67.0491C66.2097 66.968 66.1454 66.8717 66.1015 66.7658C66.0577 66.6598 66.0351 66.5463 66.0352 66.4316Z" fill="#0078D4"/>
<path d="M63.6863 67.5893C64.3258 67.5893 64.8442 67.0709 64.8442 66.4314C64.8442 65.7919 64.3258 65.2734 63.6863 65.2734C63.0468 65.2734 62.5283 65.7919 62.5283 66.4314C62.5283 67.0709 63.0468 67.5893 63.6863 67.5893Z" fill="#0078D4"/>
<path d="M66.0352 70.6621C66.0351 70.5475 66.0577 70.4339 66.1015 70.328C66.1454 70.222 66.2097 70.1258 66.2908 70.0447C66.3718 69.9636 66.4681 69.8993 66.574 69.8554C66.68 69.8116 66.7935 69.789 66.9082 69.7891H75.2739C75.5055 69.7891 75.7275 69.881 75.8912 70.0448C76.055 70.2085 76.1469 70.4306 76.1469 70.6621C76.1469 70.8936 76.055 71.1157 75.8912 71.2794C75.7275 71.4432 75.5055 71.5351 75.2739 71.5351H66.9082C66.7935 71.5352 66.68 71.5126 66.5741 71.4688C66.4681 71.4249 66.3718 71.3606 66.2908 71.2795C66.2097 71.1985 66.1454 71.1022 66.1015 70.9963C66.0577 70.8903 66.0351 70.7768 66.0352 70.6621Z" fill="#0078D4"/>
<path d="M63.6863 71.8198C64.3258 71.8198 64.8442 71.3014 64.8442 70.6618C64.8442 70.0223 64.3258 69.5039 63.6863 69.5039C63.0468 69.5039 62.5283 70.0223 62.5283 70.6618C62.5283 71.3014 63.0468 71.8198 63.6863 71.8198Z" fill="#0078D4"/>
<path d="M66.0352 74.8906C66.0351 74.7759 66.0577 74.6624 66.1015 74.5564C66.1454 74.4505 66.2097 74.3543 66.2908 74.2732C66.3718 74.1921 66.4681 74.1278 66.574 74.084C66.68 74.0401 66.7935 74.0175 66.9082 74.0176H75.2739C75.5055 74.0176 75.7275 74.1096 75.8912 74.2733C76.055 74.437 76.1469 74.6591 76.1469 74.8906C76.1469 75.1222 76.055 75.3442 75.8912 75.508C75.7275 75.6717 75.5055 75.7637 75.2739 75.7637H66.9082C66.7935 75.7637 66.68 75.7412 66.574 75.6973C66.4681 75.6534 66.3718 75.5891 66.2908 75.508C66.2097 75.427 66.1454 75.3307 66.1015 75.2247C66.0577 75.1188 66.0351 75.0052 66.0352 74.8906V74.8906Z" fill="#0078D4"/>
<path d="M63.6863 76.0483C64.3258 76.0483 64.8442 75.5299 64.8442 74.8904C64.8442 74.2509 64.3258 73.7324 63.6863 73.7324C63.0468 73.7324 62.5283 74.2509 62.5283 74.8904C62.5283 75.5299 63.0468 76.0483 63.6863 76.0483Z" fill="#0078D4"/>
</g>
<defs>
<linearGradient id="paint0_linear" x1="47.8698" y1="-15.153" x2="51.8525" y2="130.615" gradientUnits="userSpaceOnUse">
<stop stop-color="#00ABDE"/>
<stop offset="1" stop-color="#007ED8"/>
</linearGradient>
<clipPath id="clip0">
<rect width="99.2799" height="99.28" fill="white"/>
</clipPath>
</defs>
</svg>
