<?xml version="1.0" encoding="UTF-8"?>
<svg width="150px" height="150px" viewBox="0 0 150 150" version="1.1" xmlns="http://www.w3.org/2000/svg" xmlns:xlink="http://www.w3.org/1999/xlink">
    <!-- Generator: Sketch 63.1 (92452) - https://sketch.com -->
    <title>Use best practices to secure and govern Power Automate environments/Use-best-practices-to-secure-and-govern-Power-Automate-environments</title>
    <desc>Created with Sketch.</desc>
    <defs>
        <path d="M20,0 L120,0 C131.045695,-2.02906125e-15 140,8.954305 140,20 L140,120 C140,131.045695 131.045695,140 120,140 L20,140 C8.954305,140 1.3527075e-15,131.045695 0,120 L0,20 C-1.3527075e-15,8.954305 8.954305,2.02906125e-15 20,0 Z" id="path-1"></path>
        <linearGradient x1="50%" y1="0%" x2="50%" y2="100%" id="linearGradient-3">
            <stop stop-color="#0062B3" offset="0%"></stop>
            <stop stop-color="#00549B" offset="100%"></stop>
        </linearGradient>
        <path d="M120,0 C131.045695,0 140,8.954305 140,20 L140,120 C140,131.045695 131.045695,140 120,140 L20,140 C8.954305,140 0,131.045695 0,120 L0,20 C0,8.954305 8.954305,0 20,0 L120,0 Z M120,5 L20,5 C11.8205929,5 5.17026978,11.5467864 5.00321776,19.6861718 L5,20 L5,120 C5,128.179407 11.5467864,134.82973 19.6861718,134.996782 L20,135 L120,135 C128.179407,135 134.82973,128.453214 134.996782,120.313828 L135,120 L135,20 C135,11.8205929 128.453214,5.17026978 120.313828,5.00321776 L120,5 Z" id="path-4"></path>
        <filter x="-16.0%" y="-12.1%" width="132.0%" height="124.2%" filterUnits="objectBoundingBox" id="filter-6">
            <feOffset dx="0" dy="2" in="SourceAlpha" result="shadowOffsetOuter1"></feOffset>
            <feGaussianBlur stdDeviation="2" in="shadowOffsetOuter1" result="shadowBlurOuter1"></feGaussianBlur>
            <feColorMatrix values="0 0 0 0 0   0 0 0 0 0   0 0 0 0 0  0 0 0 0.1 0" type="matrix" in="shadowBlurOuter1" result="shadowMatrixOuter1"></feColorMatrix>
            <feMerge>
                <feMergeNode in="shadowMatrixOuter1"></feMergeNode>
                <feMergeNode in="SourceGraphic"></feMergeNode>
            </feMerge>
        </filter>
        <polygon id="path-7" points="0.10531972 0.047154098 65.5785404 0.047154098 65.5785404 83.5020486 0.10531972 83.5020486"></polygon>
        <linearGradient x1="50%" y1="2.04550253%" x2="50%" y2="100%" id="linearGradient-9">
            <stop stop-color="#FFE02A" offset="0%"></stop>
            <stop stop-color="#FFB518" offset="100%"></stop>
        </linearGradient>
        <linearGradient x1="50%" y1="0%" x2="50%" y2="100%" id="linearGradient-10">
            <stop stop-color="#DA3A00" offset="0%"></stop>
            <stop stop-color="#DA3A00" offset="100%"></stop>
        </linearGradient>
        <path d="M36.0249155,22.9937758 L33.6354894,22.9937758 L33.6354894,14.8123108 C33.6770145,10.9480514 32.1804155,7.21559191 29.4539936,4.38382369 C26.7743211,1.58903553 23.0067331,0 19.0599898,0 C15.1132465,0 11.3456586,1.58903553 8.66598607,4.38382369 C5.93427807,7.21240177 4.43682915,10.9469809 4.48449031,14.8123108 L4.48449031,22.9937758 L2.09506416,22.9937758 C1.53636477,22.9418011 0.982215497,23.1292922 0.579612261,23.5065144 C0.177009026,23.8837366 -0.0333571715,24.4125641 0.00431627664,24.9527181 L0.00431627664,46.155388 C0.00406353043,46.6545187 0.21363666,47.1324211 0.585145717,47.4798889 C0.956654774,47.8273567 1.45835172,48.0146963 1.97559285,47.9990984 L36.0249155,47.9990984 C36.5421566,48.0146963 37.0438536,47.8273567 37.4153626,47.4798889 C37.7868717,47.1324211 37.9964448,46.6545187 37.9961921,46.155388 L37.9961921,24.9527181 C38.0301748,24.4339194 37.8355105,23.9253906 37.4601396,23.5523685 C37.0847687,23.1793463 36.5635755,22.9764966 36.0249155,22.9937758 Z M26.3673469,22.4516129 L10.8571429,22.4516129 L10.8571429,14.600811 C10.8606534,12.5610567 11.7387162,10.6037942 13.3029827,9.1488653 C14.6502166,7.76163662 16.5827047,6.96774194 18.6122449,6.96774194 C20.6417851,6.96774194 22.5742732,7.76163662 23.9215071,9.1488653 C24.27183,9.48780385 24.5910637,9.85249573 24.8759812,10.2392545 L24.8759812,10.2392545 C25.8372478,11.5045127 26.3571429,13.005971 26.3673469,14.5462916 L26.3673469,22.4516129 Z" id="path-11"></path>
        <filter x="-1.3%" y="-1.0%" width="102.6%" height="104.2%" filterUnits="objectBoundingBox" id="filter-12">
            <feOffset dx="0" dy="1" in="SourceAlpha" result="shadowOffsetOuter1"></feOffset>
            <feColorMatrix values="0 0 0 0 0   0 0 0 0 0   0 0 0 0 0  0 0 0 0.1 0" type="matrix" in="shadowOffsetOuter1"></feColorMatrix>
        </filter>
        <polygon id="path-13" points="0 0.0142 14.9850878 0.0142 14.9850878 9.9132 0 9.9132"></polygon>
    </defs>
    <g id="Badges" stroke="none" stroke-width="1" fill="none" fill-rule="evenodd">
        <g id="Use-best-practices-to-secure-and-govern-Power-Automate-environments" transform="translate(-135.000000, -55.000000)">
            <g id="Use-best-practices-to-secure-and-govern-Power-Automate-environments/Use-best-practices-to-secure-and-govern-Power-Automate-environments" transform="translate(160.000000, 78.000000)">
                <g id="Trophy-Plates/Square" transform="translate(0.000000, 2.000000)">
                    <g id="BG" transform="translate(-20.000000, -20.000000)">
                        <mask id="mask-2" fill="white">
                            <use xlink:href="#path-1"></use>
                        </mask>
                        <path stroke="#FFFFFF" stroke-width="5" d="M120,-2.5 L20,-2.5 C13.7867966,-2.5 8.16179656,0.0183982822 4.09009742,4.09009742 C0.0183982822,8.16179656 -2.5,13.7867966 -2.5,20 L-2.5,120 C-2.5,126.213203 0.0183982822,131.838203 4.09009742,135.909903 C8.16179656,139.981602 13.7867966,142.5 20,142.5 L120,142.5 C126.213203,142.5 131.838203,139.981602 135.909903,135.909903 C139.981602,131.838203 142.5,126.213203 142.5,120 L142.5,20 C142.5,13.7867966 139.981602,8.16179656 135.909903,4.09009742 C131.838203,0.0183982822 126.213203,-2.5 120,-2.5 Z"></path>
                        <g id="Colors/Microsoft-365/BG-Gradient-3" mask="url(#mask-2)" fill="url(#linearGradient-3)">
                            <rect id="Rectangle" x="0" y="0" width="140" height="140"></rect>
                        </g>
                    </g>
                    <g id="Border" transform="translate(-20.000000, -20.000000)">
                        <mask id="mask-5" fill="white">
                            <use xlink:href="#path-4"></use>
                        </mask>
                        <use fill="#000000" fill-rule="nonzero" xlink:href="#path-4"></use>
                        <g id="Colors/Microsoft-365/Border" mask="url(#mask-5)" fill="#0076D7">
                            <rect id="Microsoft-365/Border" x="0" y="0" width="140" height="140"></rect>
                        </g>
                    </g>
                </g>
                <g id="Group" transform="translate(11.000000, 0.000000)">
                    <g id="Group-2">
                        <g id="Bookmark-Book" filter="url(#filter-6)">
                            <g id="Group-16">
                                <g id="Group-10" transform="translate(0.000000, 6.365689)">
                                    <path d="M8.76680409,0.0483303935 C7.87408513,0.03817544 7.02256244,0.430969041 6.44301506,1.12109968 L0,8.68410284 L70.6663844,81.4179417 L60.1033434,91.2337197 L65.3848639,91.2337197 C66.275983,91.2320949 67.1371048,90.9091674 67.8142433,90.3218049 L73.9936823,84.5822252 C74.6284247,83.9879573 74.9919917,83.1528139 74.9971912,82.2762384 L74.9971912,4.500262 C75.0819835,2.10247438 73.2365511,0.0885440093 70.8751654,0.00283620185 C70.6107894,-0.00691255349 70.3464134,0.00852297581 70.0852372,0.0483303935 L8.76680409,0.0483303935 Z" id="Fill-1" fill="#F5AE06"></path>
                                    <path d="M4.59183673,8.60404067 L8.49099048,4.0653117 C8.95070035,3.49612923 9.61712003,3.14463552 10.3358158,3.09266847 L67.6674624,3.09266847 C69.1810731,3.09266847 70.4081633,4.35051672 70.4081633,5.90216298 L70.4081633,80.3603146 C70.4013794,81.1426847 70.0765496,81.8870003 69.5122877,82.413627 L63.4522581,88.1410513" id="Fill-3" fill="#FFFFFF"></path>
                                    <g id="Group-7" transform="translate(0.000000, 7.731671)">
                                        <mask id="mask-8" fill="white">
                                            <use xlink:href="#path-7"></use>
                                        </mask>
                                        <g id="Clip-6"></g>
                                        <path d="M0.368611317,0.047154098 C0.215039889,0.0737601429 0.103351577,0.211292929 0.105294112,0.371338522 L0.105294112,81.4481438 C0.105294112,82.5823799 1.00164471,83.5021304 2.10656122,83.5021304 L63.576218,83.5021304 C64.6815334,83.5021304 65.5778321,82.5823799 65.5778321,81.4481438 L65.5778321,2.1551715 C65.6069508,1.02093534 64.7345853,0.0774440568 63.6296688,0.047154098 C63.6117189,0.047154098 63.5941679,0.047154098 63.576218,0.047154098 L0.368611317,0.047154098 Z" id="Fill-5" fill="url(#linearGradient-9)" mask="url(#mask-8)"></path>
                                    </g>
                                </g>
                                <polyline id="Path-40" fill="url(#linearGradient-10)" points="14.5833333 14.0973599 14.5833333 0.0636528093 23.4375 5.63067887 32.2916667 0.0636528093 32.2916667 14.0973599"></polyline>
                            </g>
                        </g>
                        <g id="Lock" transform="translate(15.000000, 32.000000)" fill-rule="nonzero">
                            <g id="Shape">
                                <use fill="black" fill-opacity="1" filter="url(#filter-12)" xlink:href="#path-11"></use>
                                <use fill="#494949" xlink:href="#path-11"></use>
                            </g>
                            <path d="M2.01329169,22.0010859 L36.7212845,22.0010859 C37.1923967,22.0035544 37.6466674,22.1778233 38,22.4916314 L0.734576166,48 C0.295019468,47.6358146 0.0294671209,47.1009857 0.00388158116,46.5283634 L0.00388158116,24.0859044 C-0.0307584901,23.5337692 0.167671529,22.9925637 0.550303787,22.5955722 C0.932936045,22.1985806 1.46421152,21.9826964 2.01329169,22.0010859 Z" id="Path" fill="#5F5F5F"></path>
                            <path d="M35.9867083,22.0010859 L1.27871552,22.0010859 C0.807603265,22.0035544 0.353332599,22.1778233 0,22.4916314 L37.2654238,48 C37.7254067,47.6525937 37.9961184,47.1073738 37.9961184,46.5283634 L37.9961184,24.0859044 C38.0307585,23.5337692 37.8323285,22.9925637 37.4496962,22.5955722 C37.067064,22.1985806 36.5357885,21.9826964 35.9867083,22.0010859 Z" id="Path" fill="#717171" opacity="0.571800595"></path>
                        </g>
                        <g id="Group-6" transform="translate(24.562337, 59.000000)">
                            <path d="M14.8930005,13.8312863 C16.2388253,12.5785394 17.0437585,10.9513653 17.1956326,9.2023917 L18.4142857,9.21261264 L16.462245,6 L14.4494547,9.17973528 L15.5993069,9.18944517 C15.4558498,10.5469567 14.8166974,11.8083914 13.7683996,12.7843211 C12.5673127,13.9024922 10.9691571,14.5184744 9.27036205,14.5184744 C7.57065208,14.5184744 5.97359441,13.9024922 4.7715926,12.7843211 C4.46217183,12.4955794 3.95805933,12.4955794 3.64772365,12.7843211 C3.33647307,13.0732331 3.33647307,13.5425447 3.64772365,13.8312863 C5.14981421,15.2296816 7.14577033,16 9.27036205,16 C11.3938559,16 13.3909099,15.2296816 14.8930005,13.8312863 Z" id="Fill-1" fill="#FFFFFF"></path>
                            <g id="Group-5" transform="translate(0.384070, -0.080279)">
                                <mask id="mask-14" fill="white">
                                    <use xlink:href="#path-13"></use>
                                </mask>
                                <g id="Clip-4"></g>
                                <path d="M2.80954754,6.77986667 C2.93048651,5.41203333 3.57135346,4.14236667 4.64774686,3.16003333 C5.84781954,2.06553333 7.44231404,1.46286667 9.1392961,1.46286667 C10.8353647,1.46286667 12.4309553,2.06553333 13.6299319,3.16003333 C13.9397695,3.4427 14.4421595,3.4427 14.7527279,3.16003333 C15.0625655,2.87703333 15.0625655,2.4187 14.7527279,2.1357 C13.2532307,0.767866667 11.2595646,0.0142 9.13947878,0.0142 C7.01829688,0.0142 5.02554413,0.767866667 3.52586433,2.1357 C2.14529662,3.3957 1.3376362,5.03286667 1.21687991,6.79303333 L-1.10844667e-12,6.8027 L2.00955998,9.9132 L3.95773704,6.77053333 L2.80954754,6.77986667 Z" id="Fill-3" fill="#FFFFFF" mask="url(#mask-14)"></path>
                            </g>
                        </g>
                        <g id="Gear" transform="translate(30.416617, 63.708792)" fill="#FFFFFF" fill-rule="nonzero">
                            <path d="M6.92857143,3.81687243 L6.92857143,3.01028807 L6.10419126,2.72222222 L5.90171192,2.17489712 L6.3066706,1.32510288 L6.3066706,1.23868313 L6.04634002,0.979423868 L5.74262102,0.633744856 L5.62691854,0.633744856 L4.81700118,1.06584362 L4.2674144,0.907407407 L3.90584416,0 L3.11038961,0 L2.83559622,0.820987654 L2.22815821,1.06584362 L1.28807556,0.619341564 L0.724025974,1.18106996 L0.724025974,1.281893 L1.14344746,2.08847737 L0.897579693,2.69341564 L-0.0714285714,3.05349794 L-0.0714285714,3.8600823 L0.0442739079,3.8600823 L0.897579693,4.14814815 L1.12898465,4.69547325 L0.695100354,5.63168724 L1.25914994,6.20781893 L1.37485242,6.20781893 L2.17030697,5.80452675 L2.73435655,6.03497942 L3.08146399,7 L3.89138135,7 L3.89138135,6.88477366 L4.16617473,6.02057613 L4.71576151,5.79012346 L5.67030697,6.23662551 L6.23435655,5.67489712 L6.23435655,5.55967078 L5.82939787,4.75308642 L5.98848878,4.19135802 L6.92857143,3.81687243 Z M3.48657927,4.49990681 C2.88395889,4.43520208 2.42857143,3.95101972 2.42857143,3.3749994 C2.42857143,2.79897908 2.88395889,2.31479671 3.48657927,2.25009199 C3.80129367,2.24625938 4.10450965,2.36232706 4.32847764,2.57236127 C4.55244563,2.78239547 4.67849918,3.06889104 4.67847331,3.36783438 L4.67847331,3.36783438 C4.68256864,3.66925428 4.55830996,3.9594669 4.33389257,4.1726207 C4.10947517,4.3857745 3.80392697,4.50379659 3.48657927,4.49990681 Z" id="Shape"></path>
                        </g>
                    </g>
                </g>
            </g>
        </g>
    </g>
</svg>