<svg width="106" height="106" viewBox="0 0 106 106" fill="none" xmlns="http://www.w3.org/2000/svg">
<g filter="url(#filter0_d)">
<circle cx="53" cy="53" r="49" fill="#5197D5"/>
<circle cx="53" cy="53" r="50.75" stroke="#F2F1F0" stroke-width="3.5"/>
</g>
<circle cx="53" cy="53" r="48" stroke="#0078D4" stroke-width="4"/>
<g filter="url(#filter1_d)">
<path d="M79.7636 70.6615L79.7636 68.7326C79.7636 68.4932 79.9577 68.299 80.1972 68.299L85.5951 68.299L85.5951 70.2279C85.5993 70.4618 85.5073 70.6872 85.3404 70.8512C85.1736 71.0152 84.9467 71.1034 84.7129 71.0952L80.2271 71.0952C80.107 71.1035 79.9889 71.0615 79.901 70.9792C79.813 70.897 79.7633 70.7819 79.7636 70.6615Z" fill="#F0FFFF"/>
<path opacity="0.5" d="M79.7636 70.6615L79.7636 68.7326C79.7636 68.4932 79.9577 68.299 80.1972 68.299L85.5951 68.299L85.5951 70.2279C85.5993 70.4618 85.5073 70.6872 85.3404 70.8512C85.1736 71.0152 84.9467 71.1034 84.7129 71.0952L80.2271 71.0952C80.107 71.1035 79.9889 71.0615 79.901 70.9792C79.813 70.897 79.7633 70.7819 79.7636 70.6615Z" fill="#F0FFFF"/>
<path d="M79.7636 47.9784L79.7636 46.0495C79.7636 45.8101 79.9577 45.6159 80.1972 45.6159L84.683 45.6159C85.1537 45.6159 85.5353 45.9975 85.5353 46.4682L85.5353 48.4121L80.2271 48.4121C80.107 48.4204 79.9889 48.3784 79.901 48.2961C79.813 48.2139 79.7633 48.0988 79.7636 47.9784Z" fill="#F0FFFF"/>
<path opacity="0.5" d="M79.7636 47.9784L79.7636 46.0495C79.7636 45.8101 79.9577 45.6159 80.1972 45.6159L84.683 45.6159C85.1537 45.6159 85.5353 45.9975 85.5353 46.4682L85.5353 48.4121L80.2271 48.4121C80.107 48.4204 79.9889 48.3784 79.901 48.2961C79.813 48.2139 79.7633 48.0988 79.7636 47.9784Z" fill="#F0FFFF"/>
<path d="M84.7434 71.0947L82.8743 71.0947L82.8743 45.6753L84.7434 45.6753C85.2141 45.6753 85.5957 46.0568 85.5957 46.5276L85.5957 70.2424C85.5957 70.7131 85.2141 71.0947 84.7434 71.0947Z" fill="#D7EFFF"/>
</g>
<g filter="url(#filter2_d)">
<path d="M27.9592 46.0504L27.9592 47.9793C27.9592 48.2188 27.765 48.4129 27.5255 48.4129L22.1276 48.4129L22.1276 46.484C22.1234 46.2501 22.2155 46.0247 22.3823 45.8607C22.5491 45.6967 22.776 45.6085 23.0098 45.6168L27.4956 45.6168C27.6157 45.6085 27.7339 45.6504 27.8218 45.7327C27.9097 45.8149 27.9595 45.93 27.9592 46.0504Z" fill="#F0FFFF"/>
<path opacity="0.5" d="M27.9592 46.0504L27.9592 47.9793C27.9592 48.2188 27.765 48.4129 27.5255 48.4129L22.1276 48.4129L22.1276 46.484C22.1234 46.2501 22.2155 46.0247 22.3823 45.8607C22.5491 45.6967 22.776 45.6085 23.0098 45.6168L27.4956 45.6168C27.6157 45.6085 27.7339 45.6504 27.8218 45.7327C27.9097 45.8149 27.9595 45.93 27.9592 46.0504Z" fill="#F0FFFF"/>
<path d="M27.9592 68.7335L27.9592 70.6624C27.9592 70.9019 27.765 71.096 27.5255 71.096L23.0398 71.096C22.569 71.096 22.1875 70.7144 22.1875 70.2437L22.1875 68.2999L27.4956 68.2999C27.6157 68.2916 27.7339 68.3336 27.8218 68.4158C27.9097 68.498 27.9595 68.6131 27.9592 68.7335Z" fill="#F0FFFF"/>
<path opacity="0.5" d="M27.9592 68.7335L27.9592 70.6624C27.9592 70.9019 27.765 71.096 27.5255 71.096L23.0398 71.096C22.569 71.096 22.1875 70.7144 22.1875 70.2437L22.1875 68.2999L27.4956 68.2999C27.6157 68.2916 27.7339 68.3336 27.8218 68.4158C27.9097 68.498 27.9595 68.6131 27.9592 68.7335Z" fill="#F0FFFF"/>
<path d="M22.9794 45.6172L24.8484 45.6172L24.8484 71.0367L22.9794 71.0367C22.5086 71.0367 22.1271 70.6551 22.1271 70.1844L22.1271 46.4695C22.1271 45.9988 22.5086 45.6172 22.9794 45.6172Z" fill="#D7EFFF"/>
</g>
<g filter="url(#filter3_d)">
<path opacity="0.15" d="M66.5918 82.9999H43.5947C40.5963 82.9999 38.1637 80.5672 38.1637 77.5688V40.6122C38.1637 39.212 39.2952 38.0664 40.7095 38.0664H70.6934C71.9946 38.0664 73.0412 39.113 73.0412 40.4142V76.5505C73.0271 80.1288 70.1418 82.9999 66.5918 82.9999Z" fill="#1F1D20"/>
<path d="M67.412 80.5111H37.7958C36.6219 80.5111 35.6743 79.5635 35.6743 78.3896V38.1234C35.6743 36.7232 36.8057 35.5776 38.2201 35.5776H68.204C69.5052 35.5776 70.5518 36.6384 70.5518 37.9254V77.3713C70.5377 79.1109 69.1375 80.5111 67.412 80.5111Z" fill="url(#paint0_linear)"/>
<path d="M41.8036 48.4684C41.8036 47.8292 42.3217 47.311 42.9609 47.311H63.1214C63.7605 47.311 64.2787 47.8292 64.2787 48.4684C64.2787 49.1075 63.7605 49.6257 63.1214 49.6257H42.9609C42.3217 49.6257 41.8036 49.1075 41.8036 48.4684Z" fill="#92C4FC"/>
<rect x="41.8036" y="53.8623" width="6.39925" height="2.31464" rx="1.15732" fill="#92C4FC"/>
<rect x="42.5146" y="67.7495" width="4.9772" height="6.94392" fill="url(#paint1_linear)"/>
<rect x="51.0469" y="61.5771" width="4.9772" height="13.1163" fill="url(#paint2_linear)"/>
<rect x="59.5793" y="53.8623" width="4.9772" height="20.8318" fill="url(#paint3_linear)"/>
</g>
<g filter="url(#filter4_d)">
<path d="M52.6463 16.8428L48.4553 20.9882C48.3808 21.0457 48.355 21.1465 48.3927 21.2327C48.4304 21.3189 48.522 21.3684 48.6147 21.3527L51.1886 21.3527C51.251 21.3452 51.3133 21.3668 51.3577 21.4113C51.4022 21.4557 51.4238 21.518 51.4163 21.5804L51.4163 33.5157C50.8291 33.9673 50.4842 34.6655 50.4825 35.4063C50.3918 36.3542 50.8463 37.2717 51.6555 37.7738C52.4647 38.2759 53.4885 38.2759 54.2977 37.7738C55.1069 37.2717 55.5614 36.3542 55.4707 35.4063C55.4603 34.656 55.1081 33.9515 54.5141 33.493L54.5141 21.5804C54.5076 21.5222 54.5262 21.464 54.5654 21.4205C54.6046 21.377 54.6605 21.3523 54.7191 21.3527L57.2473 21.3527C57.3357 21.3561 57.4163 21.3026 57.4473 21.2198C57.4783 21.137 57.4528 21.0437 57.384 20.9882L53.2613 16.8428C53.0872 16.6835 52.8204 16.6835 52.6463 16.8428Z" fill="url(#paint4_linear)"/>
<path d="M61.6923 25.398L57.5696 29.5434C57.4951 29.6009 57.4693 29.7017 57.507 29.7879C57.5447 29.8741 57.6363 29.9236 57.729 29.9079L60.2345 29.9079C60.3519 29.9073 60.4506 29.996 60.4623 30.1129L60.4623 37.5838C59.8742 38.0447 59.53 38.7499 59.5284 39.4971C59.53 40.6605 60.3321 41.6697 61.4651 41.9338C62.5981 42.198 63.7638 41.6475 64.2797 40.6047C64.7955 39.562 64.5258 38.3014 63.6284 37.561L63.6284 30.1129C63.6284 29.9996 63.7201 29.9079 63.8333 29.9079L66.3616 29.9079C66.45 29.9113 66.5305 29.8578 66.5616 29.775C66.5926 29.6922 66.5671 29.5989 66.4983 29.5434L62.3756 25.398C62.2891 25.2999 62.1647 25.2437 62.0339 25.2437C61.9032 25.2437 61.7788 25.2999 61.6923 25.398Z" fill="url(#paint5_linear)"/>
<path d="M43.3213 25.398L39.1986 29.5434C39.1241 29.6009 39.0983 29.7017 39.136 29.7879C39.1737 29.8741 39.2653 29.9236 39.3581 29.9079L41.8636 29.9079C41.981 29.9073 42.0796 29.996 42.0913 30.1129L42.0913 37.5838C41.5032 38.0447 41.159 38.7499 41.1575 39.4971C41.159 40.6605 41.9612 41.6697 43.0941 41.9338C44.2271 42.198 45.3929 41.6475 45.9087 40.6047C46.4246 39.562 46.1548 38.3014 45.2574 37.561L45.2574 30.1129C45.2574 29.9996 45.3492 29.9079 45.4624 29.9079L47.9907 29.9079C48.079 29.9113 48.1596 29.8578 48.1906 29.775C48.2217 29.6922 48.1962 29.5989 48.1273 29.5434L44.0046 25.398C43.9182 25.2999 43.7937 25.2437 43.663 25.2437C43.5322 25.2437 43.4078 25.2999 43.3213 25.398Z" fill="url(#paint6_linear)"/>
</g>
<defs>
<filter id="filter0_d" x="0.5" y="0.5" width="105.5" height="105.5" filterUnits="userSpaceOnUse" color-interpolation-filters="sRGB">
<feFlood flood-opacity="0" result="BackgroundImageFix"/>
<feColorMatrix in="SourceAlpha" type="matrix" values="0 0 0 0 0 0 0 0 0 0 0 0 0 0 0 0 0 0 127 0"/>
<feOffset dx="0.5" dy="0.5"/>
<feColorMatrix type="matrix" values="0 0 0 0 0.823529 0 0 0 0 0.831373 0 0 0 0 0.835294 0 0 0 1 0"/>
<feBlend mode="normal" in2="BackgroundImageFix" result="effect1_dropShadow"/>
<feBlend mode="normal" in="SourceGraphic" in2="effect1_dropShadow" result="shape"/>
</filter>
<filter id="filter1_d" x="75.7636" y="43.6157" width="13.8321" height="33.4803" filterUnits="userSpaceOnUse" color-interpolation-filters="sRGB">
<feFlood flood-opacity="0" result="BackgroundImageFix"/>
<feColorMatrix in="SourceAlpha" type="matrix" values="0 0 0 0 0 0 0 0 0 0 0 0 0 0 0 0 0 0 127 0"/>
<feOffset dy="2"/>
<feGaussianBlur stdDeviation="2"/>
<feColorMatrix type="matrix" values="0 0 0 0 0 0 0 0 0 0 0 0 0 0 0 0 0 0 0.15 0"/>
<feBlend mode="normal" in2="BackgroundImageFix" result="effect1_dropShadow"/>
<feBlend mode="normal" in="SourceGraphic" in2="effect1_dropShadow" result="shape"/>
</filter>
<filter id="filter2_d" x="18.1271" y="43.6157" width="13.8321" height="33.4803" filterUnits="userSpaceOnUse" color-interpolation-filters="sRGB">
<feFlood flood-opacity="0" result="BackgroundImageFix"/>
<feColorMatrix in="SourceAlpha" type="matrix" values="0 0 0 0 0 0 0 0 0 0 0 0 0 0 0 0 0 0 127 0"/>
<feOffset dy="2"/>
<feGaussianBlur stdDeviation="2"/>
<feColorMatrix type="matrix" values="0 0 0 0 0 0 0 0 0 0 0 0 0 0 0 0 0 0 0.15 0"/>
<feBlend mode="normal" in2="BackgroundImageFix" result="effect1_dropShadow"/>
<feBlend mode="normal" in="SourceGraphic" in2="effect1_dropShadow" result="shape"/>
</filter>
<filter id="filter3_d" x="31.6743" y="33.5776" width="45.367" height="55.4223" filterUnits="userSpaceOnUse" color-interpolation-filters="sRGB">
<feFlood flood-opacity="0" result="BackgroundImageFix"/>
<feColorMatrix in="SourceAlpha" type="matrix" values="0 0 0 0 0 0 0 0 0 0 0 0 0 0 0 0 0 0 127 0"/>
<feOffset dy="2"/>
<feGaussianBlur stdDeviation="2"/>
<feColorMatrix type="matrix" values="0 0 0 0 0 0 0 0 0 0 0 0 0 0 0 0 0 0 0.15 0"/>
<feBlend mode="normal" in2="BackgroundImageFix" result="effect1_dropShadow"/>
<feBlend mode="normal" in="SourceGraphic" in2="effect1_dropShadow" result="shape"/>
</filter>
<filter id="filter4_d" x="35.1188" y="14.7231" width="35.4558" height="33.2763" filterUnits="userSpaceOnUse" color-interpolation-filters="sRGB">
<feFlood flood-opacity="0" result="BackgroundImageFix"/>
<feColorMatrix in="SourceAlpha" type="matrix" values="0 0 0 0 0 0 0 0 0 0 0 0 0 0 0 0 0 0 127 0"/>
<feOffset dy="2"/>
<feGaussianBlur stdDeviation="2"/>
<feColorMatrix type="matrix" values="0 0 0 0 0 0 0 0 0 0 0 0 0 0 0 0 0 0 0.15 0"/>
<feBlend mode="normal" in2="BackgroundImageFix" result="effect1_dropShadow"/>
<feBlend mode="normal" in="SourceGraphic" in2="effect1_dropShadow" result="shape"/>
</filter>
<linearGradient id="paint0_linear" x1="53.113" y1="35.5776" x2="53.113" y2="80.5111" gradientUnits="userSpaceOnUse">
<stop stop-color="#F0FFFE"/>
<stop offset="1" stop-color="#D5EDFF"/>
</linearGradient>
<linearGradient id="paint1_linear" x1="47.5635" y1="74.5246" x2="47.5635" y2="67.3808" gradientUnits="userSpaceOnUse">
<stop stop-color="#0078D4"/>
<stop offset="0.16" stop-color="#1380DA"/>
<stop offset="0.53" stop-color="#3C91E5"/>
<stop offset="0.82" stop-color="#559CEC"/>
<stop offset="1" stop-color="#5EA0EF"/>
</linearGradient>
<linearGradient id="paint2_linear" x1="51.0469" y1="61.5771" x2="51.0469" y2="74.6934" gradientUnits="userSpaceOnUse">
<stop stop-color="#DA3A00"/>
<stop offset="1" stop-color="#DA3A00"/>
</linearGradient>
<linearGradient id="paint3_linear" x1="59.6302" y1="54.2884" x2="59.6302" y2="74.6941" gradientUnits="userSpaceOnUse">
<stop stop-color="#FFE02A"/>
<stop offset="1" stop-color="#FFB518"/>
</linearGradient>
<linearGradient id="paint4_linear" x1="52.897" y1="37.874" x2="52.897" y2="16.0585" gradientUnits="userSpaceOnUse">
<stop stop-color="#4CA4EA"/>
<stop offset="0.807292" stop-color="#89C1EF"/>
</linearGradient>
<linearGradient id="paint5_linear" x1="62.4414" y1="25.4052" x2="62.4414" y2="42.0539" gradientUnits="userSpaceOnUse">
<stop stop-color="#FFE02B"/>
<stop offset="1" stop-color="#FFB719"/>
</linearGradient>
<linearGradient id="paint6_linear" x1="44.0704" y1="25.4052" x2="44.0704" y2="42.0539" gradientUnits="userSpaceOnUse">
<stop stop-color="#FFE02B"/>
<stop offset="1" stop-color="#FFB719"/>
</linearGradient>
</defs>
</svg>
