<svg width="103" height="103" viewBox="0 0 103 103" fill="none" xmlns="http://www.w3.org/2000/svg">
<path d="M51.2121 98.1678C25.3621 98.1678 4.4021 77.2178 4.4021 51.3579C4.4021 25.4979 25.3621 4.54785 51.2121 4.54785C77.0621 4.54785 98.0221 25.5079 98.0221 51.3579C98.0221 77.2079 77.0621 98.1678 51.2121 98.1678Z" fill="url(#paint0_linear)"/>
<path fill-rule="evenodd" clip-rule="evenodd" d="M97.1123 51.358C97.1123 76.708 76.5623 97.258 51.2123 97.258C25.8623 97.258 5.31227 76.708 5.31227 51.358C5.31227 26.008 25.8623 5.45802 51.2123 5.45802C76.5623 5.45802 97.1123 26.008 97.1123 51.358ZM51.2123 1.71802C78.6323 1.71802 100.852 23.938 100.852 51.358C100.852 78.778 78.6223 100.998 51.2123 100.998C23.7923 100.998 1.57227 78.768 1.57227 51.358C1.57227 23.938 23.7923 1.71802 51.2123 1.71802Z" fill="#F2F1F0"/>
<path fill-rule="evenodd" clip-rule="evenodd" d="M94.3021 51.3578C94.3021 75.1578 75.0121 94.4478 51.2121 94.4478C27.4121 94.4478 8.12208 75.1578 8.12208 51.3578C8.12208 27.5578 27.4121 8.26783 51.2121 8.26783C75.0121 8.26783 94.3021 27.5578 94.3021 51.3578ZM51.2121 4.52783C77.0721 4.52783 98.0421 25.4978 98.0421 51.3578C98.0421 77.2178 77.0721 98.1878 51.2121 98.1878C25.3521 98.1878 4.38208 77.2178 4.38208 51.3578C4.38208 25.4978 25.3421 4.52783 51.2121 4.52783Z" fill="#0078D4"/>
<path d="M53.332 21.6979L46.262 14.4079C45.302 13.4079 43.692 13.4579 42.782 14.4979L12.912 48.6079C11.572 50.1279 11.572 52.3979 12.902 53.9279L42.502 87.9579C43.612 89.2379 45.602 89.2379 46.712 87.9579L55.552 77.7579L56.522 25.2579L53.332 21.6979Z" fill="url(#paint1_linear)"/>
<path d="M88.1019 47.1179L58.6519 14.9279C57.3819 13.5579 55.2319 13.5479 53.9319 14.8879L40.3519 28.9379C38.8719 30.4679 38.8519 32.8779 40.3019 34.4379L54.2419 49.3979C55.2719 50.4979 55.2719 52.1979 54.2519 53.2979L40.2419 68.4179C38.8019 69.9679 38.8319 72.3779 40.3019 73.8979L53.9419 88.0479C55.2419 89.3879 57.4019 89.3679 58.6719 87.9979L88.1119 55.5579C90.2919 53.1679 90.2819 49.5079 88.1019 47.1179Z" fill="url(#paint2_linear)"/>
<path d="M89.502 54.0379L76.362 68.6179C75.362 69.7179 73.642 69.7579 72.612 68.6879L59.402 55.1879C57.262 53.0079 57.252 49.5179 59.382 47.3179L72.342 33.9279C73.372 32.8579 75.102 32.8879 76.102 33.9879L89.512 48.7679C90.852 50.2579 90.852 52.5379 89.502 54.0379Z" fill="url(#paint3_linear)"/>
<path d="M40.622 45.328C40.622 44.728 40.132 44.238 39.532 44.238H22.672C22.072 44.238 21.582 44.728 21.582 45.328C21.582 45.928 22.072 46.418 22.672 46.418H39.542C40.142 46.408 40.622 45.928 40.622 45.328Z" fill="#84ECFD"/>
<path d="M25.6421 45.3179C25.6421 46.5179 26.6121 47.4879 27.8121 47.4879C29.0121 47.4879 29.9821 46.5179 29.9821 45.3179C29.9821 44.1179 29.0121 43.1479 27.8121 43.1479C26.6121 43.1579 25.6421 44.1179 25.6421 45.3179Z" fill="#32B0E7"/>
<path d="M40.622 50.828C40.622 50.228 40.132 49.738 39.532 49.738H22.672C22.072 49.738 21.582 50.228 21.582 50.828C21.582 51.428 22.072 51.918 22.672 51.918H39.542C40.142 51.908 40.622 51.428 40.622 50.828Z" fill="#50E6FF"/>
<path d="M32.1721 50.828C32.1721 52.028 33.1421 52.998 34.3421 52.998C35.5421 52.998 36.5121 52.028 36.5121 50.828C36.5121 49.628 35.5421 48.658 34.3421 48.658C33.1421 48.658 32.1721 49.628 32.1721 50.828Z" fill="#0078D4"/>
<path d="M40.622 56.6579C40.622 56.0579 40.132 55.5679 39.532 55.5679H22.672C22.072 55.5679 21.582 56.0579 21.582 56.6579C21.582 57.2579 22.072 57.7479 22.672 57.7479H39.542C40.142 57.7379 40.622 57.2579 40.622 56.6579Z" fill="#32B0E7"/>
<path d="M25.7219 56.6579C25.7219 57.8579 26.6919 58.8279 27.8919 58.8279C29.0919 58.8279 30.0619 57.8579 30.0619 56.6579C30.0619 55.4579 29.0919 54.4879 27.8919 54.4879C26.6919 54.4779 25.7219 55.4579 25.7219 56.6579Z" fill="#185A97"/>
<path d="M61.7921 69.498C71.8105 69.498 79.9321 61.3765 79.9321 51.358C79.9321 41.3396 71.8105 33.218 61.7921 33.218C51.7737 33.218 43.6521 41.3396 43.6521 51.358C43.6521 61.3765 51.7737 69.498 61.7921 69.498Z" fill="#F2F1F0"/>
<path d="M63.2319 65.3778C68.8929 65.3778 73.4819 62.499 73.4819 58.9478C73.4819 55.3966 68.8929 52.5178 63.2319 52.5178C57.571 52.5178 52.9819 55.3966 52.9819 58.9478C52.9819 62.499 57.571 65.3778 63.2319 65.3778Z" fill="url(#paint4_linear)"/>
<path d="M70.972 59.8078C70.452 55.1778 66.482 51.5278 61.672 51.5278C56.902 51.5278 52.972 55.0878 52.372 59.6878C52.292 60.0078 52.292 60.3578 52.292 60.6778C52.412 61.9878 53.322 63.2478 55.032 64.2378C58.692 66.3378 64.652 66.3378 68.262 64.2378C69.972 63.2478 70.842 61.9778 70.962 60.6778C71.052 60.3978 71.012 60.0878 70.972 59.8078Z" fill="url(#paint5_radial)"/>
<path d="M61.682 50.5779C64.792 50.5779 67.312 48.0679 67.312 44.9779C67.312 41.8879 64.792 39.3779 61.682 39.3779C58.572 39.3779 56.052 41.8879 56.052 44.9779C56.042 48.0779 58.572 50.5779 61.682 50.5779Z" fill="url(#paint6_radial)"/>
<defs>
<linearGradient id="paint0_linear" x1="49.4421" y1="-13.435" x2="53.4251" y2="132.333" gradientUnits="userSpaceOnUse">
<stop stop-color="#00ABDE"/>
<stop offset="1" stop-color="#007ED8"/>
</linearGradient>
<linearGradient id="paint1_linear" x1="32.3589" y1="16.4839" x2="37.8379" y2="80.8621" gradientUnits="userSpaceOnUse">
<stop stop-color="#A23093"/>
<stop offset="1" stop-color="#692266"/>
</linearGradient>
<linearGradient id="paint2_linear" x1="39.1764" y1="51.4624" x2="89.7431" y2="51.4624" gradientUnits="userSpaceOnUse">
<stop stop-color="#E184C4"/>
<stop offset="1" stop-color="#D76EBC"/>
</linearGradient>
<linearGradient id="paint3_linear" x1="57.791" y1="51.3015" x2="90.515" y2="51.3015" gradientUnits="userSpaceOnUse">
<stop stop-color="#E89BCA"/>
<stop offset="1" stop-color="#E591C8"/>
</linearGradient>
<linearGradient id="paint4_linear" x1="61.8035" y1="62.5241" x2="65.5876" y2="53.0409" gradientUnits="userSpaceOnUse">
<stop stop-color="#838383"/>
<stop offset="1" stop-color="#939393" stop-opacity="0"/>
</linearGradient>
<radialGradient id="paint5_radial" cx="0" cy="0" r="1" gradientUnits="userSpaceOnUse" gradientTransform="translate(58.2289 46.2579) scale(26.5992 26.5034)">
<stop stop-color="#4DC2EB"/>
<stop offset="0.585" stop-color="#0078D4"/>
</radialGradient>
<radialGradient id="paint6_radial" cx="0" cy="0" r="1" gradientUnits="userSpaceOnUse" gradientTransform="translate(58.8958 42.142) scale(12.4755 12.4059)">
<stop stop-color="#4DC2EB"/>
<stop offset="0.585" stop-color="#0078D4"/>
</radialGradient>
</defs>
</svg>
