<svg width="100" height="100" viewBox="0 0 100 100" fill="none" xmlns="http://www.w3.org/2000/svg">
<g clip-path="url(#clip0)">
<path d="M49.6401 96.4501C40.382 96.4501 31.3317 93.7047 23.6339 88.5612C15.936 83.4176 9.93624 76.1069 6.3933 67.5535C2.85036 59.0001 1.92337 49.5882 3.72954 40.5079C5.53571 31.4277 9.99394 23.0869 16.5404 16.5404C23.0869 9.99393 31.4277 5.53571 40.5079 3.72954C49.5882 1.92337 59.0001 2.85036 67.5535 6.3933C76.1069 9.93624 83.4176 15.936 88.5612 23.6339C93.7047 31.3317 96.4501 40.382 96.4501 49.6401C96.4505 55.7874 95.24 61.8746 92.8878 67.554C90.5355 73.2335 87.0875 78.3939 82.7407 82.7407C78.3939 87.0875 73.2335 90.5355 67.554 92.8878C61.8746 95.24 55.7874 96.4505 49.6401 96.4501V96.4501Z" fill="url(#paint0_linear)"/>
<path fill-rule="evenodd" clip-rule="evenodd" d="M95.54 49.64C95.54 58.7182 92.848 67.5925 87.8045 75.1407C82.7609 82.6889 75.5923 88.572 67.2052 92.0461C58.818 95.5201 49.5891 96.4291 40.6854 94.658C31.7816 92.887 23.603 88.5154 17.1838 82.0962C10.7646 75.677 6.39302 67.4984 4.62196 58.5946C2.85089 49.6909 3.75987 40.462 7.23393 32.0748C10.708 23.6877 16.5911 16.5191 24.1393 11.4755C31.6875 6.43199 40.5618 3.74 49.64 3.74C55.6677 3.73998 61.6363 4.9272 67.2052 7.23388C72.774 9.54057 77.834 12.9215 82.0963 17.1837C86.3585 21.446 89.7394 26.5059 92.0461 32.0748C94.3528 37.6437 95.54 43.6123 95.54 49.64V49.64ZM49.64 3.62732e-07C59.4579 3.62732e-07 69.0553 2.91134 77.2185 8.36585C85.3818 13.8204 91.7442 21.5731 95.5014 30.6436C99.2585 39.7141 100.242 49.6951 98.3262 59.3243C96.4108 68.9535 91.6831 77.7985 84.7408 84.7408C77.7985 91.6831 68.9535 96.4108 59.3243 98.3262C49.6951 100.242 39.7141 99.2585 30.6436 95.5014C21.5731 91.7442 13.8204 85.3818 8.36585 77.2185C2.91134 69.0553 3.62732e-07 59.4579 3.62732e-07 49.64C-0.000787738 43.121 1.28265 36.6656 3.77702 30.6427C6.27138 24.6197 9.9278 19.1471 14.5375 14.5375C19.1471 9.9278 24.6197 6.27138 30.6427 3.77702C36.6656 1.28265 43.121 -0.000787738 49.64 3.62732e-07V3.62732e-07Z" fill="#F2F1F0"/>
<path fill-rule="evenodd" clip-rule="evenodd" d="M92.7296 49.6406C92.7296 58.163 90.2024 66.494 85.4676 73.5801C80.7328 80.6662 74.0031 86.1892 66.1294 89.4505C58.2557 92.7119 49.5918 93.5653 41.2331 91.9026C32.8745 90.24 25.1966 86.1361 19.1703 80.1098C13.1441 74.0836 9.04017 66.4057 7.37753 58.047C5.7149 49.6884 6.56822 41.0244 9.8296 33.1507C13.091 25.2771 18.6139 18.5473 25.7 13.8126C32.7862 9.07776 41.1172 6.55058 49.6396 6.55058C55.2983 6.55023 60.9017 7.66455 66.1298 9.82991C71.3579 11.9953 76.1082 15.1692 80.1096 19.1706C84.1109 23.1719 87.2849 27.9223 89.4502 33.1503C91.6156 38.3784 92.7299 43.9818 92.7296 49.6406V49.6406ZM49.6396 2.81058C58.9017 2.81058 67.9558 5.55711 75.6569 10.7029C83.3581 15.8486 89.3604 23.1624 92.9049 31.7195C96.4493 40.2766 97.3767 49.6925 95.5697 58.7767C93.7628 67.8608 89.3027 76.2051 82.7534 82.7544C76.2041 89.3037 67.8598 93.7638 58.7757 95.5708C49.6915 97.3777 40.2756 96.4503 31.7185 92.9059C23.1614 89.3614 15.8476 83.3591 10.7018 75.6579C5.5561 67.9568 2.80957 58.9027 2.80957 49.6406C2.81076 37.2209 7.745 25.3101 16.5271 16.5281C25.3091 7.74599 37.2198 2.81174 49.6396 2.81055V2.81058Z" fill="#0078D4"/>
<path fill-rule="evenodd" clip-rule="evenodd" d="M92.7296 49.6405C92.7296 58.1629 90.2024 66.494 85.4676 73.5801C80.7328 80.6662 74.0031 86.1891 66.1294 89.4505C58.2557 92.7119 49.5918 93.5652 41.2331 91.9026C32.8745 90.24 25.1966 86.136 19.1703 80.1098C13.1441 74.0835 9.04017 66.4056 7.37753 58.047C5.7149 49.6883 6.56822 41.0244 9.8296 33.1507C13.091 25.277 18.6139 18.5473 25.7001 13.8125C32.7862 9.07773 41.1172 6.55055 49.6396 6.55055C55.2983 6.5502 60.9017 7.66452 66.1298 9.82988C71.3579 11.9952 76.1082 15.1692 80.1096 19.1705C84.1109 23.1719 87.2849 27.9222 89.4502 33.1503C91.6156 38.3784 92.7299 43.9818 92.7296 49.6405V49.6405ZM49.6396 2.81055C58.9017 2.81055 67.9558 5.55708 75.6569 10.7028C83.3581 15.8486 89.3604 23.1624 92.9048 31.7195C96.4493 40.2765 97.3767 49.6925 95.5697 58.7766C93.7628 67.8608 89.3027 76.2051 82.7534 82.7544C76.2041 89.3036 67.8598 93.7638 58.7757 95.5707C49.6915 97.3777 40.2756 96.4503 31.7185 92.9058C23.1614 89.3614 15.8476 83.3591 10.7018 75.6579C5.5561 67.9568 2.80957 58.9026 2.80957 49.6405C2.81076 37.2208 7.74501 25.3101 16.5271 16.5281C25.3091 7.74599 37.2198 2.81174 49.6396 2.81055V2.81055Z" fill="#0078D4"/>
<path fill-rule="evenodd" clip-rule="evenodd" d="M31.1255 41.3965C30.2335 41.3991 29.3788 41.7546 28.7481 42.3853C28.1174 43.016 27.7619 43.8707 27.7593 44.7627V68.3262H71.52V44.7627C71.5174 43.8707 71.1619 43.016 70.5312 42.3853C69.9005 41.7546 69.0458 41.3991 68.1538 41.3965H31.1255ZM68.1538 43.0796C68.6 43.0802 69.0278 43.2577 69.3433 43.5732C69.6588 43.8887 69.8363 44.3165 69.8369 44.7627V66.6431H29.4424V44.7627C29.4428 44.3164 29.6203 43.8886 29.9359 43.573C30.2514 43.2575 30.6793 43.08 31.1255 43.0796H68.1538Z" fill="#1F56A3"/>
<path fill-rule="evenodd" clip-rule="evenodd" d="M29.4424 44.7632C29.4428 44.3169 29.6203 43.8891 29.9359 43.5735C30.2514 43.258 30.6793 43.0805 31.1255 43.0801H68.1538C68.6 43.0807 69.0278 43.2582 69.3433 43.5737C69.6588 43.8892 69.8363 44.317 69.8369 44.7632V66.6436H29.4424V44.7632Z" fill="#0078D4"/>
<path d="M67.8364 45.0801H31.4419V64.6436H67.8364V45.0801Z" fill="#1B93EB"/>
<path fill-rule="evenodd" clip-rule="evenodd" d="M22.71 68.3262V69.1677C22.7126 70.0597 23.0681 70.9144 23.6988 71.5451C24.3295 72.1758 25.1842 72.5313 26.0762 72.5339H73.2032C74.0952 72.5313 74.9499 72.1758 75.5806 71.5451C76.2113 70.9144 76.5668 70.0597 76.5694 69.1677V68.3262H22.71Z" fill="#0078D4"/>
<path fill-rule="evenodd" clip-rule="evenodd" d="M47.9558 70.8508H23.1797C23.4731 71.3601 23.8949 71.7835 24.403 72.0788C24.9111 72.3741 25.4878 72.5311 26.0755 72.5339H73.2025C74.0944 72.5313 74.9491 72.1758 75.5799 71.5451C76.2106 70.9144 76.5661 70.0597 76.5687 69.1677V68.3262H49.639V69.1677C49.639 69.3888 49.5955 69.6077 49.511 69.8119C49.4264 70.0161 49.3024 70.2017 49.1461 70.358C48.9898 70.5143 48.8043 70.6383 48.6 70.7228C48.3958 70.8074 48.1769 70.8509 47.9558 70.8508Z" fill="#1F56A3"/>
<path fill-rule="evenodd" clip-rule="evenodd" d="M46.2734 70.0093H53.0059C53.4522 70.0091 53.8802 69.8317 54.1958 69.5161C54.5114 69.2005 54.6888 68.7725 54.689 68.3262H44.5903C44.5904 68.7726 44.7677 69.2006 45.0833 69.5163C45.399 69.8319 45.8271 70.0093 46.2734 70.0093V70.0093Z" fill="#003067"/>
<path d="M49.7856 62.6729C48.9577 62.6724 48.1478 62.4315 47.4542 61.9795C46.7606 61.5275 46.2132 60.8838 45.8784 60.1266L45.6157 59.5294H43.0552C42.5958 59.5287 42.1554 59.3458 41.8306 59.0209C41.5059 58.6959 41.3232 58.2554 41.3228 57.796V51.9278C41.3232 51.4684 41.5059 51.0279 41.8306 50.703C42.1554 50.378 42.5958 50.1952 43.0552 50.1944H46.9868L47.1704 49.4264C47.3003 48.8702 47.5826 48.3611 47.9856 47.9563C48.3886 47.5515 48.8964 47.267 49.452 47.1346C50.0076 47.0021 50.5892 47.0271 51.1314 47.2066C51.6737 47.3861 52.1552 47.7131 52.522 48.151L53.0347 48.7521L53.7378 48.3927C54.0952 48.2036 54.4927 48.1028 54.897 48.0987C55.2971 48.0906 55.6933 48.1778 56.053 48.3532C56.4126 48.5285 56.7254 48.7869 56.9655 49.107C57.2056 49.4271 57.366 49.7998 57.4336 50.1941C57.5011 50.5885 57.4739 50.9933 57.354 51.3751L57.2007 51.9073L57.5718 52.3194C57.8009 52.5714 57.9457 52.8885 57.9859 53.2267L57.9927 53.2848V57.1456C57.928 57.9744 57.5394 58.7444 56.9109 59.2887C56.2825 59.833 55.4649 60.1077 54.6353 60.0533H54.0581L53.7378 60.5533C53.5554 60.8708 53.3321 61.163 53.0737 61.4224C52.6778 61.82 52.207 62.1351 51.6886 62.3498C51.1701 62.5644 50.6143 62.6742 50.0532 62.6729L49.7856 62.6729Z" fill="white"/>
<path d="M56.2855 52.7665L52.729 52.7647L52.2773 53.3389V57.1441C52.3925 57.684 52.6895 58.168 53.1186 58.5152C53.5477 58.8625 54.083 59.0519 54.6351 59.0519C55.1871 59.0519 55.7224 58.8625 56.1515 58.5152C56.5807 58.168 56.8776 57.684 56.9928 57.1441V53.3389C56.9731 53.17 56.888 53.0155 56.7558 52.9085C56.6236 52.8016 56.4548 52.7506 56.2855 52.7665V52.7665Z" fill="#5059C9"/>
<path d="M54.897 52.2413C55.2079 52.2413 55.5118 52.1491 55.7702 51.9764C56.0287 51.8037 56.2302 51.5582 56.3492 51.271C56.4681 50.9838 56.4993 50.6677 56.4386 50.3628C56.378 50.0579 56.2283 49.7779 56.0084 49.558C55.7886 49.3382 55.5086 49.1885 55.2037 49.1279C54.8987 49.0672 54.5827 49.0983 54.2955 49.2173C54.0083 49.3363 53.7628 49.5377 53.5901 49.7962C53.4174 50.0547 53.3252 50.3586 53.3252 50.6695C53.3252 50.8759 53.3658 51.0803 53.4448 51.271C53.5238 51.4617 53.6396 51.6349 53.7856 51.7809C53.9315 51.9269 54.1048 52.0426 54.2955 52.1216C54.4862 52.2006 54.6906 52.2413 54.897 52.2413V52.2413Z" fill="#5059C9"/>
<path d="M46.5137 58.4006V53.3619C46.5137 53.2836 46.5291 53.206 46.5591 53.1337C46.589 53.0613 46.633 52.9956 46.6883 52.9403C46.7437 52.8849 46.8094 52.841 46.8818 52.811C46.9541 52.781 47.0316 52.7656 47.1099 52.7656H52.7286C52.8868 52.7656 53.0384 52.8284 53.1502 52.9402C53.262 53.052 53.3249 53.2037 53.3249 53.3618V58.4006C53.3249 58.8303 53.2402 59.2557 53.0758 59.6527C52.9114 60.0497 52.6704 60.4104 52.3665 60.7142C52.0627 61.0181 51.702 61.2591 51.305 61.4235C50.908 61.5879 50.4826 61.6726 50.0529 61.6726H49.7857C48.9179 61.6726 48.0856 61.3278 47.472 60.7142C46.8584 60.1006 46.5137 59.2684 46.5137 58.4006H46.5137Z" fill="#7B83EB"/>
<path d="M50.1812 52.2423C50.5957 52.2423 51.0009 52.1194 51.3455 51.8891C51.6902 51.6588 51.9588 51.3315 52.1174 50.9485C52.276 50.5656 52.3175 50.1442 52.2367 49.7377C52.1558 49.3311 51.9562 48.9577 51.6631 48.6646C51.37 48.3715 50.9966 48.1719 50.5901 48.0911C50.1835 48.0102 49.7621 48.0517 49.3792 48.2103C48.9962 48.3689 48.6689 48.6376 48.4386 48.9822C48.2084 49.3268 48.0854 49.732 48.0854 50.1465C48.0855 50.7024 48.3063 51.2354 48.6993 51.6285C49.0923 52.0215 49.6254 52.2423 50.1812 52.2423V52.2423Z" fill="#7B83EB"/>
<path opacity="0.5" d="M46.5795 59.0529H48.7265C49.5301 59.0529 50.1817 58.7351 50.1817 57.9244V52.7656H47.1187C46.7848 52.7656 46.5142 54.0842 46.5142 54.418V58.4005C46.5141 58.6196 46.536 58.8381 46.5795 59.0529V59.0529Z" fill="black"/>
<path opacity="0.5" d="M50.1461 52.2372C50.1006 52.0873 50.0082 51.9559 49.8826 51.8623C49.757 51.7686 49.6048 51.7176 49.4481 51.7168H48.8086C49.1785 52.0436 49.6526 52.2281 50.1461 52.2372V52.2372Z" fill="black"/>
<path d="M48.9239 51.1934H43.0558C42.9594 51.1934 42.8641 51.2123 42.7751 51.2492C42.6861 51.2861 42.6052 51.3401 42.5371 51.4082C42.469 51.4763 42.415 51.5572 42.3781 51.6462C42.3412 51.7352 42.3223 51.8305 42.3223 51.9269V57.795C42.3223 57.9895 42.3995 58.1761 42.5371 58.3136C42.6747 58.4512 42.8612 58.5285 43.0558 58.5285H48.9239C49.1184 58.5285 49.305 58.4512 49.4425 58.3136C49.5801 58.1761 49.6574 57.9895 49.6574 57.795V51.9269C49.6574 51.8305 49.6384 51.7352 49.6015 51.6462C49.5647 51.5572 49.5106 51.4763 49.4425 51.4082C49.3744 51.3401 49.2936 51.2861 49.2046 51.2492C49.1156 51.2123 49.0202 51.1934 48.9239 51.1934Z" fill="#4B53BC"/>
<path d="M48.0276 53.3697H46.3976V57.4448H45.5826V53.3697H43.9526V52.5547H48.0276V53.3697Z" fill="white"/>
<path d="M49.6392 41.3972V37.4434" stroke="white" stroke-miterlimit="10"/>
<path d="M49.6392 38.6398C50.5715 38.6398 51.3273 37.884 51.3273 36.9517C51.3273 36.0194 50.5715 35.2637 49.6392 35.2637C48.7069 35.2637 47.9512 36.0194 47.9512 36.9517C47.9512 37.884 48.7069 38.6398 49.6392 38.6398Z" fill="white"/>
<path d="M50.1912 15.6426L48.3512 13.7444C48.292 13.6831 48.2208 13.6348 48.142 13.6026C48.0632 13.5703 47.9786 13.5547 47.8935 13.5568C47.8083 13.559 47.7246 13.5787 47.6475 13.6149C47.5704 13.6511 47.5017 13.7029 47.4457 13.767L39.6715 22.6439C39.5045 22.8356 39.4122 23.0811 39.4116 23.3353C39.411 23.5896 39.5022 23.8355 39.6683 24.028L47.3745 32.8855C47.4427 32.9639 47.5269 33.0268 47.6215 33.0699C47.7161 33.113 47.8188 33.1353 47.9227 33.1353C48.0266 33.1353 48.1293 33.113 48.2239 33.0699C48.3184 33.0268 48.4026 32.9639 48.4708 32.8855L50.7701 30.2305L51.0223 16.5675L50.1912 15.6426Z" fill="url(#paint1_linear)"/>
<path d="M59.2395 22.2547L51.5785 13.879C51.5004 13.7951 51.4061 13.7279 51.3012 13.6815C51.1963 13.6352 51.0831 13.6106 50.9685 13.6094C50.8538 13.6082 50.7401 13.6303 50.6343 13.6745C50.5285 13.7186 50.4327 13.7838 50.3529 13.8661L46.8119 17.5236C46.6264 17.7145 46.5216 17.9696 46.5192 18.2357C46.5168 18.5019 46.617 18.7587 46.7989 18.953L50.4273 22.8465C50.5563 22.9839 50.6284 23.1651 50.629 23.3536C50.6296 23.5421 50.5587 23.7237 50.4305 23.8619L46.786 27.7975C46.606 27.9923 46.5073 28.2486 46.5103 28.5138C46.5133 28.779 46.6178 29.033 46.8022 29.2236L50.3497 32.9038C50.43 32.9865 50.5262 33.052 50.6326 33.0963C50.739 33.1406 50.8533 33.1629 50.9685 33.1617C51.0838 33.1604 51.1975 33.1358 51.303 33.0893C51.4084 33.0427 51.5033 32.9752 51.5818 32.8908L59.246 24.4505C59.5175 24.1489 59.6672 23.7571 59.666 23.3513C59.6648 22.9455 59.5128 22.5547 59.2395 22.2547V22.2547Z" fill="url(#paint2_linear)"/>
<path d="M59.6049 24.0557L56.1835 27.849C56.1219 27.9165 56.0472 27.9708 55.964 28.0085C55.8807 28.0463 55.7907 28.0667 55.6993 28.0685C55.608 28.0703 55.5172 28.0535 55.4325 28.0191C55.3479 27.9847 55.2711 27.9334 55.2069 27.8684L51.7693 24.3565C51.5017 24.0827 51.3513 23.7155 51.3501 23.3326C51.3489 22.9498 51.4969 22.5816 51.7628 22.3062L55.1357 18.8234C55.1993 18.7574 55.2758 18.7053 55.3604 18.6702C55.445 18.6351 55.5359 18.6177 55.6275 18.6192C55.7191 18.6207 55.8094 18.6411 55.8928 18.679C55.9762 18.7169 56.051 18.7715 56.1123 18.8395L59.6016 22.6845C59.7715 22.8723 59.8658 23.1163 59.8664 23.3695C59.867 23.6227 59.7739 23.8672 59.6049 24.0557V24.0557Z" fill="url(#paint3_linear)"/>
</g>
<defs>
<linearGradient id="paint0_linear" x1="47.8698" y1="-15.153" x2="51.8525" y2="130.615" gradientUnits="userSpaceOnUse">
<stop stop-color="#00ABDE"/>
<stop offset="1" stop-color="#007ED8"/>
</linearGradient>
<linearGradient id="paint1_linear" x1="44.7327" y1="14.2853" x2="46.1585" y2="31.0379" gradientUnits="userSpaceOnUse">
<stop stop-color="#A23093"/>
<stop offset="1" stop-color="#692266"/>
</linearGradient>
<linearGradient id="paint2_linear" x1="46.5102" y1="23.3855" x2="59.666" y2="23.3855" gradientUnits="userSpaceOnUse">
<stop stop-color="#E184C4"/>
<stop offset="1" stop-color="#D76EBC"/>
</linearGradient>
<linearGradient id="paint3_linear" x1="51.3501" y1="23.3439" x2="59.8664" y2="23.3439" gradientUnits="userSpaceOnUse">
<stop stop-color="#E89BCA"/>
<stop offset="1" stop-color="#E591C8"/>
</linearGradient>
<clipPath id="clip0">
<rect width="99.2799" height="99.28" fill="white"/>
</clipPath>
</defs>
</svg>
