<svg width="103" height="103" viewBox="0 0 103 103" fill="none" xmlns="http://www.w3.org/2000/svg">
<path d="M51.9262 98.7377C26.0762 98.7377 5.11621 77.7877 5.11621 51.9277C5.11621 26.0677 26.0762 5.11768 51.9262 5.11768C77.7762 5.11768 98.7362 26.0777 98.7362 51.9277C98.7362 77.7777 77.7762 98.7377 51.9262 98.7377Z" fill="#B7D2F7"/>
<path fill-rule="evenodd" clip-rule="evenodd" d="M97.8261 51.9276C97.8261 77.2776 77.2761 97.8276 51.9261 97.8276C26.5761 97.8276 6.02613 77.2776 6.02613 51.9276C6.02613 26.5776 26.5761 6.0276 51.9261 6.0276C77.2761 6.0276 97.8261 26.5776 97.8261 51.9276ZM51.9261 2.2876C79.3461 2.2876 101.566 24.5076 101.566 51.9276C101.566 79.3476 79.3361 101.568 51.9261 101.568C24.5061 101.568 2.28613 79.3376 2.28613 51.9276C2.28613 24.5076 24.5061 2.2876 51.9261 2.2876Z" fill="#F2F1F0"/>
<path fill-rule="evenodd" clip-rule="evenodd" d="M95.0162 51.9277C95.0162 75.7277 75.7262 95.0177 51.9262 95.0177C28.1262 95.0177 8.83619 75.7277 8.83619 51.9277C8.83619 28.1277 28.1262 8.83766 51.9262 8.83766C75.7262 8.83766 95.0162 28.1277 95.0162 51.9277ZM51.9262 5.09766C77.7862 5.09766 98.7562 26.0677 98.7562 51.9277C98.7562 77.7877 77.7862 98.7577 51.9262 98.7577C26.0662 98.7577 5.09619 77.7877 5.09619 51.9277C5.09619 26.0677 26.0562 5.09766 51.9262 5.09766Z" fill="#0066FF"/>
<path fill-rule="evenodd" clip-rule="evenodd" d="M48.6362 68.0376H68.3062L66.6662 70.3076H49.4562L48.6362 68.0376Z" fill="#854816"/>
<path fill-rule="evenodd" clip-rule="evenodd" d="M49.6763 69.7676H67.2663C68.2863 69.7676 69.1263 70.6076 69.1263 71.6276V75.2876H47.8263V71.6176C47.8163 70.5976 48.6563 69.7676 49.6763 69.7676Z" fill="#30404D"/>
<path d="M46.156 73.8877C45.476 73.8877 44.936 74.4377 44.936 75.1077C44.936 75.7877 45.486 76.3277 46.156 76.3277H52.256C52.936 76.3277 53.476 75.7777 53.476 75.1077C53.476 74.4277 52.926 73.8877 52.256 73.8877H46.156Z" fill="#546670"/>
<path d="M66.116 73.8877C65.436 73.8877 64.896 74.4377 64.896 75.1077C64.896 75.7877 65.446 76.3277 66.116 76.3277H70.566C71.246 76.3277 71.786 75.7777 71.786 75.1077C71.786 74.4277 71.236 73.8877 70.566 73.8877H66.116Z" fill="#546670"/>
<path d="M28.6562 26.9876C28.0462 26.7076 27.3262 26.8576 27.0262 27.4576C26.7462 28.0676 26.8862 29.7076 27.4862 29.9976L43.1962 37.4476C43.8062 37.7276 44.6462 36.5476 44.9462 35.9476C45.2262 35.3376 44.9762 34.7176 44.3562 34.4376L28.6562 26.9876Z" fill="#BDBDBD"/>
<path d="M33.4863 33.4578L48.7263 40.6878C49.3363 40.9678 50.4363 38.9578 50.7163 38.3578C50.9963 37.7578 50.7463 37.0278 50.1263 36.7278L35.4263 29.7578C34.9863 30.8778 34.1363 32.3978 33.4863 33.4578Z" fill="#B0B0B0"/>
<path fill-rule="evenodd" clip-rule="evenodd" d="M58.8064 51.2675L58.0964 51.8775L54.5264 47.8475L55.2364 47.2275L58.8064 51.2675Z" fill="#546670"/>
<path fill-rule="evenodd" clip-rule="evenodd" d="M65.0661 57.7577L63.6661 58.9777L55.7061 49.8377L57.1061 48.6177L65.0661 57.7577Z" fill="#F7CB64"/>
<path fill-rule="evenodd" clip-rule="evenodd" d="M53.166 44.7676H55.796V46.9376C55.796 47.6676 55.196 48.2476 54.486 48.2476C53.756 48.2476 53.176 47.6476 53.176 46.9376V44.7676H53.166ZM54.486 46.7176C54.756 46.7176 54.966 46.9276 54.966 47.1976C54.966 47.4676 54.756 47.6776 54.486 47.6776C54.216 47.6776 54.006 47.4676 54.006 47.1976C53.996 46.9376 54.216 46.7176 54.486 46.7176Z" fill="#CC9547"/>
<path fill-rule="evenodd" clip-rule="evenodd" d="M57.7862 49.1977L56.1862 50.5877C56.0062 50.7477 55.7262 50.7277 55.5562 50.5477C55.3862 50.3677 55.4262 50.0877 55.6062 49.9277L57.2062 48.5377C57.3862 48.3777 57.6662 48.3977 57.8362 48.5777C57.9862 48.7577 57.9662 49.0377 57.7862 49.1977Z" fill="#CC9547"/>
<path d="M70.2962 53.7576C70.9062 54.0576 71.6262 53.8076 71.9362 53.2076C70.6862 49.4776 74.4762 51.3076 75.3062 49.6576C75.6062 49.0476 75.3562 48.3276 74.7562 48.0176L45.0162 32.8576C44.9962 32.8376 44.9662 32.8276 44.9362 32.8176C43.9662 32.3776 43.2362 33.3776 43.3162 33.4276L41.4162 37.5776C41.4062 37.5976 41.3962 37.6176 41.3862 37.6376C41.0862 38.2476 41.3262 38.9676 41.9362 39.2776L70.2962 53.7576Z" fill="#EFB252"/>
<path d="M70.0162 57.2875C70.0162 57.2675 70.0162 57.2575 70.0162 57.2375L69.3862 50.4475C69.3862 48.8875 70.3162 47.8875 71.4962 47.4475C71.9262 47.2875 72.4062 47.2075 72.8662 47.2075C73.3262 47.2075 73.7962 47.2875 74.2362 47.4475C75.4262 47.8775 76.3462 48.8775 76.3462 50.4475L75.7162 57.2375C75.7162 57.2575 75.7162 57.2675 75.7162 57.2875H70.0162Z" fill="#CC9547"/>
<path d="M72.8662 49.5479C73.2162 49.5479 73.5362 49.6879 73.7662 49.9179C73.7762 49.9279 73.7862 49.9379 73.7962 49.9479C74.0062 50.1779 74.1362 50.4879 74.1362 50.8179C74.1362 51.1679 73.9962 51.4879 73.7662 51.7179C73.5362 51.9479 73.2162 52.0879 72.8662 52.0879C72.5162 52.0879 72.1962 51.9479 71.9662 51.7179C71.7362 51.4879 71.5962 51.1679 71.5962 50.8179C71.5962 50.4679 71.7362 50.1479 71.9662 49.9179C72.2062 49.6879 72.5162 49.5479 72.8662 49.5479Z" fill="#546E7A"/>
<path d="M72.8664 50.2178C73.0264 50.2178 73.1764 50.2878 73.2864 50.3878C73.2964 50.3978 73.2964 50.3978 73.2964 50.4078C73.3964 50.5178 73.4564 50.6578 73.4564 50.8078C73.4564 50.9678 73.3864 51.1178 73.2864 51.2278C73.1764 51.3378 73.0364 51.3978 72.8664 51.3978C72.7064 51.3978 72.5564 51.3278 72.4464 51.2278C72.3364 51.1178 72.2764 50.9778 72.2764 50.8078C72.2764 50.6478 72.3464 50.4978 72.4464 50.3878C72.5564 50.2978 72.7064 50.2178 72.8664 50.2178Z" fill="#37474F"/>
<path d="M56.8062 56.9775H76.3462C77.5462 56.9775 78.6462 57.3775 79.4462 58.0375C80.2462 58.6975 80.7262 59.5875 80.7262 60.5875V61.0175H80.5562C80.2562 61.0175 80.0062 61.2175 80.0062 61.4575V65.5575C80.0062 65.7975 80.2462 65.9975 80.5562 65.9975H80.7162C80.6462 66.6275 80.3062 67.1775 79.7962 67.6075C79.2162 68.0775 78.4262 68.3775 77.5562 68.3775H56.8062C56.1562 68.3775 55.6362 67.9475 55.6362 67.4175V57.9275C55.6462 57.3975 56.1562 56.9775 56.8062 56.9775Z" fill="#EFB252"/>
<path fill-rule="evenodd" clip-rule="evenodd" d="M55.786 49.9976C56.516 50.7276 56.956 51.7176 56.956 52.8176V67.1676C56.956 67.1976 56.956 67.2176 56.966 67.2476V68.3876H44.756C44.446 68.3876 44.146 68.2676 43.936 68.0776L37.896 63.2576C37.446 62.8976 37.316 62.2876 37.556 61.7876L40.576 54.0376C41.056 52.8076 41.606 51.5976 42.416 50.6376C43.336 49.5476 44.506 48.8376 46.146 48.8376H52.986C54.066 48.8276 55.066 49.2776 55.786 49.9976ZM40.276 61.4676L46.746 62.1276L54.506 56.3576V55.1276V52.8076C54.506 52.3876 54.336 51.9976 54.056 51.7176C53.776 51.4376 53.386 51.2676 52.966 51.2676H46.126C45.316 51.2676 44.736 51.6276 44.256 52.1976C43.676 52.8876 43.236 53.8876 42.836 54.9276L40.276 61.4676Z" fill="#CC9547"/>
<path d="M52.366 71.4575H64.576C65.256 71.4575 65.796 72.0075 65.796 72.6775V77.5675C65.796 78.2475 65.246 78.7875 64.576 78.7875H52.366C51.686 78.7875 51.146 78.2375 51.146 77.5675V72.6775C51.146 71.9975 51.696 71.4575 52.366 71.4575Z" fill="#ADBDC4"/>
<path d="M24.7962 29.3476C24.7962 29.1676 24.5262 29.0176 24.1862 29.0176C23.8562 29.0176 23.5762 29.1676 23.5762 29.3476V44.4676C23.5762 44.6476 23.8462 44.7976 24.1862 44.7976C24.5162 44.7976 24.7962 44.6476 24.7962 44.4676V29.3476Z" fill="#455A64"/>
<path d="M27.2361 29.3476C27.2361 29.1676 26.9661 29.0176 26.6261 29.0176C26.2861 29.0176 26.0161 29.1676 26.0161 29.3476V44.4676C26.0161 44.6476 26.2861 44.7976 26.6261 44.7976C26.9661 44.7976 27.2361 44.6476 27.2361 44.4676V29.3476Z" fill="#455A64"/>
<path d="M25.346 44.2778C25.806 44.2778 26.226 44.4578 26.526 44.7578C26.826 45.0578 27.006 45.4778 27.006 45.9378C27.006 46.3978 26.826 46.8178 26.526 47.1178C26.226 47.4178 25.806 47.5978 25.346 47.5978C24.886 47.5978 24.466 47.4178 24.166 47.1178C23.866 46.8178 23.686 46.3978 23.686 45.9378C23.686 45.4778 23.866 45.0578 24.166 44.7578C24.466 44.4578 24.886 44.2778 25.346 44.2778Z" fill="#757575"/>
<path d="M25.3161 46.3875C24.9861 46.3775 24.6961 46.6375 24.6861 46.9775C24.6761 47.3075 24.9361 47.5975 25.2761 47.6075C25.5961 47.6175 25.9061 47.7575 26.1161 47.9775C26.3261 48.1975 26.4561 48.4875 26.4561 48.8275C26.4561 49.1675 26.3161 49.4775 26.1061 49.6875C25.8961 49.8975 25.5861 50.0375 25.2461 50.0375C25.0561 50.0375 24.8661 49.9875 24.6861 49.9075C24.5161 49.8175 24.3661 49.6975 24.2561 49.5475C24.0561 49.2775 23.6761 49.2175 23.4061 49.4175C23.1361 49.6175 23.0761 49.9975 23.2761 50.2675C23.5061 50.5775 23.7961 50.8375 24.1461 51.0075C24.4861 51.1775 24.8661 51.2675 25.2561 51.2675C25.9361 51.2675 26.5361 50.9975 26.9861 50.5475C27.4361 50.0975 27.7061 49.4975 27.7061 48.8175C27.7061 48.1575 27.4461 47.5675 27.0161 47.1175C26.5561 46.6975 25.9761 46.4175 25.3161 46.3875Z" fill="#757575"/>
<path fill-rule="evenodd" clip-rule="evenodd" d="M46.7461 62.1176L54.5061 56.3476V55.1276V52.8076C54.5061 52.3876 54.3361 51.9976 54.0561 51.7176C53.7761 51.4376 53.3861 51.2676 52.9661 51.2676H46.1261C45.3161 51.2676 44.7361 51.6276 44.2561 52.1976C43.6761 52.8876 43.2361 53.8876 42.8361 54.9276L40.2861 61.4776L46.7461 62.1176Z" fill="#ABDCEC"/>
<path d="M25.8362 23.7677L28.8862 25.4077C29.4862 25.7177 29.7062 26.4677 29.3862 27.0677C29.3662 27.0877 29.3462 27.1177 29.3262 27.1477L27.5962 30.3677C27.2862 30.9777 26.5462 31.1977 25.9462 30.8677C25.9162 30.8577 25.8862 30.8377 25.8562 30.8177L21.3562 28.4077C20.7562 28.0977 20.5362 27.3477 20.8562 26.7477C20.8762 26.7177 20.8962 26.6877 20.9062 26.6577L21.7962 24.9877C21.9562 24.6877 22.2362 24.4777 22.5562 24.3777L24.7662 23.6177C25.1362 23.5177 25.5262 23.5777 25.8362 23.7677Z" fill="#EFB252"/>
<path d="M22.9661 42.6577C22.2861 42.6577 21.7461 43.2077 21.7461 43.8777C21.7461 44.5577 22.2961 45.0977 22.9661 45.0977H27.8561C28.5361 45.0977 29.0761 44.5477 29.0761 43.8777C29.0761 43.1977 28.5261 42.6577 27.8561 42.6577H22.9661Z" fill="#EFB252"/>
<path fill-rule="evenodd" clip-rule="evenodd" d="M53.4663 63.0078H51.9563C51.8263 63.0078 51.7163 62.8878 51.7163 62.7478V62.4878H53.7063V62.7478C53.7063 62.8778 53.6063 63.0078 53.4663 63.0078Z" fill="#212121"/>
<path fill-rule="evenodd" clip-rule="evenodd" d="M53.5862 62.0679H51.8462C51.6962 62.0679 51.5762 62.1879 51.5762 62.3379V62.6079H53.8562V62.3379C53.8562 62.1979 53.7362 62.0679 53.5862 62.0679Z" fill="#424242"/>
<path d="M63.8462 56.7374C63.8462 57.3574 64.3962 57.8474 65.0662 57.8474C65.7462 57.8474 66.2862 57.3574 66.2862 56.7374V53.4074C66.2862 52.9974 66.0462 52.6374 65.6762 52.4474V51.3774L66.6662 50.6374C66.9262 50.4474 66.9662 50.0874 66.7562 49.8574C66.5462 49.6274 66.1562 49.5874 65.8962 49.7774L64.7162 50.6574C64.5562 50.7574 64.4562 50.9274 64.4562 51.1074V52.4374C64.0962 52.6274 63.8462 52.9974 63.8462 53.3974V56.7374Z" fill="#37474F"/>
<path fill-rule="evenodd" clip-rule="evenodd" d="M47.0361 75.5176C47.0361 78.9676 44.2361 81.7676 40.7861 81.7676C37.3361 81.7676 34.5361 78.9676 34.5361 75.5176C34.5361 72.0676 37.3361 69.2676 40.7861 69.2676C44.2361 69.2676 47.0361 72.0676 47.0361 75.5176Z" fill="#30404D"/>
<path fill-rule="evenodd" clip-rule="evenodd" d="M40.7863 69.2676V77.6176C40.7863 79.0876 39.4363 80.2176 37.9763 79.9176C37.1863 79.7576 36.4463 79.5176 35.7563 79.2276C37.1163 81.0676 39.4663 82.1476 42.0163 81.6476C44.4563 81.1776 46.4263 79.2176 46.9063 76.7676C47.6763 72.7776 44.6363 69.2676 40.7863 69.2676Z" fill="#182A37"/>
<path fill-rule="evenodd" clip-rule="evenodd" d="M43.1263 75.5177C43.1263 76.8077 42.0763 77.8577 40.7863 77.8577C39.4963 77.8577 38.4463 76.8077 38.4463 75.5177C38.4463 74.2277 39.4963 73.1777 40.7863 73.1777C42.0763 73.1777 43.1263 74.2277 43.1263 75.5177Z" fill="#E1E4E1"/>
<path fill-rule="evenodd" clip-rule="evenodd" d="M82.2563 75.5176C82.2563 78.9676 79.4563 81.7676 76.0063 81.7676C72.5563 81.7676 69.7563 78.9676 69.7563 75.5176C69.7563 72.0676 72.5563 69.2676 76.0063 69.2676C79.4563 69.2676 82.2563 72.0676 82.2563 75.5176Z" fill="#30404D"/>
<path fill-rule="evenodd" clip-rule="evenodd" d="M76.0061 69.2676V77.6176C76.0061 79.0876 74.6561 80.2176 73.1961 79.9176C72.4061 79.7576 71.6661 79.5176 70.9761 79.2276C72.3361 81.0676 74.6861 82.1476 77.2361 81.6476C79.6761 81.1776 81.6461 79.2176 82.1261 76.7676C82.9161 72.7776 79.8761 69.2676 76.0061 69.2676Z" fill="#182A37"/>
<path fill-rule="evenodd" clip-rule="evenodd" d="M78.346 75.5177C78.346 76.8077 77.296 77.8577 76.006 77.8577C74.716 77.8577 73.666 76.8077 73.666 75.5177C73.666 74.2277 74.716 73.1777 76.006 73.1777C77.296 73.1777 78.346 74.2277 78.346 75.5177Z" fill="#E1E4E1"/>
<path d="M73.5161 61.1075L69.8861 63.2275L66.0661 58.9775C65.7861 58.6675 66.0061 58.1675 66.4261 58.1675H73.5161V61.1075V61.1075Z" fill="url(#paint0_linear)"/>
<path d="M75.5362 60.4777L73.4862 58.1777L66.0462 66.4877C65.7962 66.7677 65.9962 67.2177 66.3662 67.2177H69.4762L75.5362 60.4777Z" fill="url(#paint1_linear)"/>
<path d="M77.256 62.4175L75.516 60.4575L69.376 67.2175H73.336C73.416 67.2175 73.496 67.1875 73.556 67.1275L77.266 63.0975C77.426 62.8975 77.436 62.6075 77.256 62.4175Z" fill="url(#paint2_linear)"/>
<defs>
<linearGradient id="paint0_linear" x1="66.4178" y1="55.7288" x2="74.6753" y2="63.4983" gradientUnits="userSpaceOnUse">
<stop offset="0.4598" stop-color="#1152D4"/>
<stop offset="0.6156" stop-color="#0D3FB3"/>
</linearGradient>
<linearGradient id="paint1_linear" x1="65.9316" y1="62.6953" x2="75.5337" y2="62.6953" gradientUnits="userSpaceOnUse">
<stop stop-color="#388CF4"/>
<stop offset="1" stop-color="#2C7CEF"/>
</linearGradient>
<linearGradient id="paint2_linear" x1="69.3743" y1="63.8411" x2="77.3837" y2="63.8411" gradientUnits="userSpaceOnUse">
<stop stop-color="#76C0FD"/>
<stop offset="1" stop-color="#63B2FB"/>
</linearGradient>
</defs>
</svg>
