<?xml version="1.0" encoding="UTF-8"?>
<svg width="100px" height="100px" viewBox="0 0 100 100" version="1.1" xmlns="http://www.w3.org/2000/svg" xmlns:xlink="http://www.w3.org/1999/xlink">
    <!-- Generator: Sketch 51.3 (57544) - http://www.bohemiancoding.com/sketch -->
    <title>Create a dashboard with Power BI/create-and-share-your-first-report</title>
    <desc>Created with Sketch.</desc>
    <defs>
        <filter x="-2.0%" y="-1.6%" width="105.9%" height="107.8%" filterUnits="objectBoundingBox" id="filter-1">
            <feOffset dx="0" dy="2" in="SourceAlpha" result="shadowOffsetOuter1"></feOffset>
            <feColorMatrix values="0 0 0 0 0   0 0 0 0 0   0 0 0 0 0  0 0 0 0.0974014946 0" type="matrix" in="shadowOffsetOuter1" result="shadowMatrixOuter1"></feColorMatrix>
            <feMerge>
                <feMergeNode in="shadowMatrixOuter1"></feMergeNode>
                <feMergeNode in="SourceGraphic"></feMergeNode>
            </feMerge>
        </filter>
    </defs>
    <g id="Badges-FINAL" stroke="none" stroke-width="1" fill="none" fill-rule="evenodd">
        <g id="Create-a-dashboard-with-Power-BI" transform="translate(-577.000000, -504.000000)">
            <g id="Create-a-dashboard-with-Power-BI/create-and-share-your-first-report" transform="translate(577.000000, 504.000000)">
                <rect id="BG" fill="#965596" x="2" y="2" width="96" height="96" rx="48"></rect>
                <g id="Group-31" filter="url(#filter-1)" transform="translate(25.000000, 18.000000)" fill-rule="nonzero">
                    <g id="Layer-106" transform="translate(0.146745, 0.279650)">
                        <polygon id="Shape" fill="#2C3E50" opacity="0.13" points="31.6848224 0.179007519 50.2164112 0.179007519 50.2164112 19.7471278"></polygon>
                        <path d="M50.2164112,60.4496842 C50.2164112,61.9775038 48.9895514,63.2166015 47.475757,63.2166015 L3.14865421,63.2166015 C1.63485981,63.2166015 0.408,61.9775038 0.408,60.4496842 L0.408,2.94592481 C0.408,1.41810526 1.63485981,0.179007519 3.14865421,0.179007519 L31.6843458,0.179007519 L50.2164112,18.8886617 L50.2164112,60.4496842 Z" id="Shape" fill="#F9C76E"></path>
                        <polygon id="Shape" fill="#2C3E50" opacity="0.07" points="32.5260841 18.1134436 50.2164112 34.7053233 50.2164112 18.8886617 35.9573832 14.013594"></polygon>
                        <path d="M31.6848224,0.179007519 L50.2168879,18.8886617 L34.4254766,18.8886617 C32.9116822,18.8886617 31.6848224,17.6495639 31.6848224,16.1217444 L31.6848224,0.179007519 Z" id="Shape" fill="#FBDDA8"></path>
                        <rect id="Rectangle-path" fill="#FBDDA8" x="3.98181308" y="11.6075789" width="23.5934579" height="2.40601504"></rect>
                        <g id="Group" transform="translate(3.336449, 21.172932)" fill="#BB9553">
                            <path d="M3.10814019,6.18538346 C1.47042056,6.18538346 0.138700935,4.83993985 0.138700935,3.18700752 C0.138700935,1.53407519 1.4708972,0.189112782 3.10814019,0.189112782 C4.74585981,0.189112782 6.07805607,1.53407519 6.07805607,3.18700752 C6.07805607,4.83993985 4.74538318,6.18538346 3.10814019,6.18538346 Z M3.10814019,1.15103759 C1.99614953,1.15103759 1.09197196,2.0643609 1.09197196,3.18652632 C1.09197196,4.30965414 1.99614953,5.22249624 3.10814019,5.22249624 C4.22013084,5.22249624 5.12478505,4.30965414 5.12478505,3.18652632 C5.12478505,2.0643609 4.22013084,1.15103759 3.10814019,1.15103759 Z" id="Shape"></path>
                            <path d="M12.4420935,16.0404211 C10.8043738,16.0404211 9.47265421,14.6949774 9.47265421,13.0420451 C9.47265421,11.3886316 10.8048505,10.0441504 12.4420935,10.0441504 C14.0798131,10.0441504 15.4120093,11.3891128 15.4120093,13.0420451 C15.412486,14.6949774 14.0798131,16.0404211 12.4420935,16.0404211 Z M12.4420935,11.0060752 C11.3301028,11.0060752 10.4259252,11.9189173 10.4259252,13.0415639 C10.4259252,14.1642105 11.3301028,15.0775338 12.4420935,15.0775338 C13.5540841,15.0775338 14.4587383,14.1642105 14.4587383,13.0415639 C14.4587383,11.9189173 13.5545607,11.0060752 12.4420935,11.0060752 Z" id="Shape"></path>
                            <path d="M26.7321028,10.0816842 C25.0943832,10.0816842 23.7626636,8.7362406 23.7626636,7.08330827 C23.7626636,5.42989474 25.0948598,4.08541353 26.7321028,4.08541353 C28.3693458,4.08541353 29.7020187,5.43037594 29.7020187,7.08330827 C29.7020187,8.7362406 28.3693458,10.0816842 26.7321028,10.0816842 Z M26.7321028,5.04733835 C25.6201121,5.04733835 24.7159346,5.96018045 24.7159346,7.08282707 C24.7159346,8.20547368 25.6201121,9.11879699 26.7321028,9.11879699 C27.8440935,9.11879699 28.7487477,8.20547368 28.7487477,7.08282707 C28.7487477,5.96066165 27.8440935,5.04733835 26.7321028,5.04733835 Z" id="Shape"></path>
                            <path d="M40.106972,16.0404211 C38.4692523,16.0404211 37.1375327,14.6949774 37.1375327,13.0420451 C37.1375327,11.3886316 38.469729,10.0441504 40.106972,10.0441504 C41.7446916,10.0441504 43.0768879,11.3891128 43.0768879,13.0420451 C43.0773645,14.6949774 41.7446916,16.0404211 40.106972,16.0404211 Z M40.106972,11.0060752 C38.9949813,11.0060752 38.0908037,11.9189173 38.0908037,13.0415639 C38.0908037,14.1642105 38.9949813,15.0775338 40.106972,15.0775338 C41.2189626,15.0775338 42.1236168,14.1642105 42.1236168,13.0415639 C42.1236168,11.9189173 41.2189626,11.0060752 40.106972,11.0060752 Z" id="Shape"></path>
                            <rect id="Rectangle-path" transform="translate(7.380932, 8.475189) rotate(45.000000) translate(-7.380932, -8.475189) " x="3.05216945" y="7.99399097" width="8.65752445" height="1"></rect>
                            <rect id="Rectangle-path" transform="translate(19.793645, 10.756675) rotate(65.039180) translate(-19.793645, -10.756675) " x="19.3172462" y="5.34576726" width="1" height="10.8218153"></rect>
                            <rect id="Rectangle-path" transform="translate(33.550011, 9.830565) rotate(20.488312) translate(-33.550011, -9.830565) " x="28.6952273" y="9.34962501" width="9.70956663" height="1"></rect>
                        </g>
                        <path d="M34.6838131,50.1846617 L34.6461589,50.3444211 L34.6838131,50.1846617 L34.5665607,50.1846617 L34.6838131,50.1846617 L36.7066542,41.5542857 C36.0069533,41.3829774 35.2800841,41.282406 34.5279533,41.282406 C29.4384393,41.282406 25.3126822,45.447218 25.3126822,50.585985 C25.3126822,55.7237895 29.4384393,59.8895639 34.5279533,59.8895639 C39.6179439,59.8895639 43.7432243,55.7237895 43.7432243,50.585985 C43.7432243,50.4502857 43.731785,50.3179549 43.7260654,50.1846617 L34.6838131,50.1846617 Z" id="Shape" fill="#BB9553"></path>
                        <g id="Group" transform="translate(3.813084, 44.270677)" fill="#FBDDA8">
                            <rect id="Rectangle-path" x="0.138224299" y="0.380150376" width="11.9864299" height="1.12312782"></rect>
                            <rect id="Rectangle-path" x="0.138224299" y="4.06905263" width="11.9864299" height="1.12312782"></rect>
                            <rect id="Rectangle-path" x="0.138224299" y="7.75747368" width="11.9864299" height="1.12360902"></rect>
                            <rect id="Rectangle-path" x="0.138224299" y="11.4463759" width="11.9864299" height="1.12312782"></rect>
                        </g>
                        <path d="M35.9607196,49.1240902 L38.3562897,40.6578045 C42.050215,42.0686917 44.6955421,46.4534135 44.9867664,49.1240902 L35.9607196,49.1240902 Z" id="Shape" fill="#FBDDA8"></path>
                    </g>
                </g>
                <g id="PowerApps-Border" stroke="#742774" stroke-width="4">
                    <rect id="Azure-Border" x="2" y="2" width="96" height="96" rx="48"></rect>
                </g>
            </g>
        </g>
    </g>
</svg>