<svg width="103" height="103" viewBox="0 0 103 103" fill="none" xmlns="http://www.w3.org/2000/svg">
<path d="M51.696 98.37C25.846 98.37 4.88605 77.42 4.88605 51.56C4.88605 25.7 25.846 4.75 51.696 4.75C77.546 4.75 98.506 25.71 98.506 51.56C98.506 77.41 77.546 98.37 51.696 98.37Z" fill="url(#paint0_linear_331_15018)"/>
<path fill-rule="evenodd" clip-rule="evenodd" d="M97.596 51.5599C97.596 76.9099 77.046 97.4599 51.696 97.4599C26.346 97.4599 5.79603 76.9099 5.79603 51.5599C5.79603 26.2099 26.346 5.65993 51.696 5.65993C77.046 5.65993 97.596 26.2099 97.596 51.5599ZM51.696 1.91992C79.116 1.91992 101.336 24.1399 101.336 51.5599C101.336 78.9799 79.106 101.2 51.696 101.2C24.276 101.2 2.05603 78.9699 2.05603 51.5599C2.05603 24.1399 24.276 1.91992 51.696 1.91992Z" fill="#F2F1F0"/>
<path fill-rule="evenodd" clip-rule="evenodd" d="M94.786 51.5595C94.786 75.3595 75.496 94.6495 51.696 94.6495C27.896 94.6495 8.60603 75.3595 8.60603 51.5595C8.60603 27.7595 27.896 8.4695 51.696 8.4695C75.496 8.4695 94.786 27.7595 94.786 51.5595ZM51.696 4.72949C77.556 4.72949 98.526 25.6995 98.526 51.5595C98.526 77.4195 77.556 98.3895 51.696 98.3895C25.836 98.3895 4.86603 77.4195 4.86603 51.5595C4.86603 25.6995 25.826 4.72949 51.696 4.72949Z" fill="url(#paint1_linear_331_15018)"/>
<path opacity="0.15" d="M74.7361 22.8866L29.9743 22.5187C29.0034 22.5084 28.2165 23.2851 28.2165 24.256L27.7362 82.6712C27.726 83.6421 28.5027 84.429 29.4735 84.429L74.2354 84.7969C75.2062 84.8071 75.9931 84.0304 75.9931 83.0596L76.4735 24.6443C76.4632 23.6837 75.6866 22.8968 74.7361 22.8866Z" fill="#1F1D20"/>
<path d="M74.7464 21.037L29.9845 20.669C29.0136 20.6588 28.2267 21.4355 28.2267 22.4064L27.7362 80.8114C27.726 81.7823 28.5027 82.5692 29.4735 82.5692L74.2354 82.9371C75.2062 82.9473 75.9931 82.1706 75.9931 81.1997L76.4735 22.7845C76.4735 21.8341 75.707 21.0472 74.7464 21.037Z" fill="#F2F2F2"/>
<path opacity="0.15" d="M71.6295 23.04H32.5804V77.4185H71.6295V23.04Z" fill="#1F1D20"/>
<path d="M71.6295 22.416H32.5804V76.7945H71.6295V22.416Z" fill="white"/>
<path fill-rule="evenodd" clip-rule="evenodd" d="M54.44 14.251C55.7072 14.9358 56.4431 16.295 56.4328 17.7257V18.0732C56.4328 18.206 56.4226 18.3184 56.4124 18.4513L59.1615 18.4717C59.979 18.482 60.7455 18.8907 61.1543 19.6061C62.2989 21.6398 60.8477 23.7042 58.9366 23.6837L45.0584 23.5815C44.2408 23.5713 43.4744 23.1625 43.0656 22.4472C41.921 20.4135 43.3722 18.3491 45.2832 18.3695L47.8381 18.39C47.8279 18.2673 47.8279 18.1447 47.8279 18.0119V17.8994C47.8688 14.7927 51.1697 12.4933 54.44 14.251Z" fill="#243A5E"/>
<path d="M52.0897 19.9428C53.0708 19.953 53.868 19.1661 53.8782 18.185C53.8884 17.2039 53.1015 16.4068 52.1204 16.3966C51.1393 16.3864 50.3422 17.1733 50.332 18.1544C50.332 19.1354 51.1087 19.9326 52.0897 19.9428Z" fill="#01A0DD"/>
<path d="M37.7652 70.2511L37.3386 69.4444L48.9961 64.1552L55.1101 69.7441L66.0059 69.4395L66.1771 70.3127L54.7665 70.7217L48.7641 65.2933L37.7652 70.2511Z" fill="#16B2E6"/>
<path d="M37.8593 71.4971C38.9308 71.7855 40.0436 71.1468 40.332 70.0752C40.6205 69.0037 39.9817 67.891 38.9102 67.6025C37.8387 67.314 36.726 67.9528 36.4375 69.0243C36.1284 70.0958 36.7672 71.2086 37.8593 71.4971Z" fill="#005599"/>
<path d="M47.2421 66.2651C47.9285 67.137 49.2024 67.2903 50.0743 66.6039C50.9462 65.9175 51.0994 64.6436 50.413 63.7717C49.7266 62.8998 48.4528 62.7466 47.5809 63.433C46.709 64.1194 46.5557 65.3932 47.2421 66.2651Z" fill="#005599"/>
<path d="M53.2348 71.3276C53.9212 72.1995 55.195 72.3528 56.0669 71.6664C56.9388 70.98 57.0921 69.7061 56.4057 68.8342C55.7193 67.9623 54.4454 67.8091 53.5735 68.4955C52.7016 69.1819 52.5484 70.4557 53.2348 71.3276Z" fill="#005599"/>
<path d="M64.0223 70.6853C64.6689 72.0931 66.5282 72.3231 67.4976 71.0924C67.9453 70.5267 68.0462 69.7022 67.7436 69.0394C67.097 67.6317 65.2377 67.4016 64.2683 68.6323C63.8206 69.1981 63.7197 70.0226 64.0223 70.6853Z" fill="#005599"/>
<path d="M52.1831 44.8357L54.9582 40.8959L57.8573 36.0393C57.8573 36.0393 54.6981 32.9916 50.0893 32.88C45.4805 32.7685 41.4664 34.9614 39.0133 37.8045C36.5602 40.6476 35.3337 44.5324 35.2965 47.8775C35.2593 51.2226 36.1702 55.5707 38.1678 57.0951C40.3117 58.7305 42.3024 58.4331 43.3991 58.117C44.4958 57.8008 45.3967 57.0574 45.7312 56.6674C46.0657 56.2774 46.4562 55.6084 46.4562 55.6084L49.8043 49.7914L52.1831 44.8357Z" fill="url(#paint2_linear_331_15018)"/>
<path d="M52.7478 45.2734L49.2352 50.6627L46.4848 55.4202C46.4848 55.4202 48.1014 56.9441 50.4989 57.7434C52.8965 58.5428 56.6628 59.3045 61.513 56.6839C66.3631 54.0633 68.1719 48.7949 68.5436 47.4014C68.9153 46.0078 69.27 42.1794 68.73 39.8003C68.3284 37.5458 67.7076 34.9968 65.366 33.7142C63.0245 32.4317 60.9807 33.1607 60.4505 33.3891C59.8464 33.6493 58.7873 34.4948 58.49 34.9036C58.1926 35.3124 57.7838 35.8511 57.7838 35.8511L54.7732 41.185L52.7478 45.2734Z" fill="url(#paint3_linear_331_15018)"/>
<path d="M54.382 44.2405L55.1996 40.5362C55.1996 40.5362 53.4528 39.4335 51.6811 39.1421C50.6979 38.9811 48.0882 38.8141 46.0812 40.6229C44.0741 42.4317 43.2316 44.3149 42.9838 47.0157C42.7361 49.7166 43.5003 51.2972 44.0989 52.4175C44.7393 53.6016 45.6351 54.4741 45.982 54.9201C46.3289 55.3661 46.6015 55.5395 46.6015 55.5395L49.9218 49.6175L54.382 44.2405Z" fill="url(#paint4_linear_331_15018)"/>
<path d="M51.5349 49.5036L49.2493 50.9715C49.2493 50.9715 50.7172 51.8824 52.2971 52.1797C53.877 52.4771 56.3667 52.7556 58.8574 50.2098C61.3482 47.6641 61.5147 44.1326 61.366 42.8689C61.2173 41.6052 60.7461 39.701 59.4333 37.7958C58.4417 36.4798 57.7607 35.8447 57.7607 35.8447L54.6387 41.3639L54.211 48.7791L51.5349 49.5036Z" fill="url(#paint5_linear_331_15018)"/>
<path d="M52.2891 51.8572C55.5666 51.8572 58.2236 49.2002 58.2236 45.9227C58.2236 42.6452 55.5666 39.9883 52.2891 39.9883C49.0116 39.9883 46.3547 42.6452 46.3547 45.9227C46.3547 49.2002 49.0116 51.8572 52.2891 51.8572Z" fill="url(#paint6_linear_331_15018)"/>
<defs>
<linearGradient id="paint0_linear_331_15018" x1="49.9221" y1="-13.2295" x2="53.9041" y2="132.541" gradientUnits="userSpaceOnUse">
<stop stop-color="#00ABDE"/>
<stop offset="1" stop-color="#007ED8"/>
</linearGradient>
<linearGradient id="paint1_linear_331_15018" x1="3.12643" y1="-20.0631" x2="98.654" y2="120.818" gradientUnits="userSpaceOnUse">
<stop stop-color="#007ED8"/>
<stop offset="0.7065" stop-color="#002D4C"/>
</linearGradient>
<linearGradient id="paint2_linear_331_15018" x1="40.6031" y1="36.135" x2="49.6903" y2="49.1253" gradientUnits="userSpaceOnUse">
<stop offset="0.21" stop-color="#098C4B"/>
<stop offset="0.48" stop-color="#0C7544"/>
<stop offset="0.78" stop-color="#0A5431"/>
<stop offset="1" stop-color="#04391C"/>
</linearGradient>
<linearGradient id="paint3_linear_331_15018" x1="57.37" y1="33.0061" x2="58.039" y2="61.1049" gradientUnits="userSpaceOnUse">
<stop stop-color="#57D66F"/>
<stop offset="0.26" stop-color="#39BB57"/>
<stop offset="0.52" stop-color="#179E3D"/>
<stop offset="0.79" stop-color="#109439"/>
<stop offset="0.89" stop-color="#1C9E43"/>
</linearGradient>
<linearGradient id="paint4_linear_331_15018" x1="44.2867" y1="45.5261" x2="51.0884" y2="47.9791" gradientUnits="userSpaceOnUse">
<stop offset="0.08" stop-color="#098C4B"/>
<stop offset="0.76" stop-color="#04632D"/>
<stop offset="0.94" stop-color="#045327"/>
</linearGradient>
<linearGradient id="paint5_linear_331_15018" x1="56.8821" y1="38.0614" x2="54.819" y2="50.8288" gradientUnits="userSpaceOnUse">
<stop offset="0.03" stop-color="#0A8F4D"/>
<stop offset="0.26" stop-color="#078041"/>
<stop offset="0.69" stop-color="#03662D"/>
<stop offset="1" stop-color="#034D22"/>
</linearGradient>
<linearGradient id="paint6_linear_331_15018" x1="48" y1="41.6628" x2="56.1952" y2="49.8026" gradientUnits="userSpaceOnUse">
<stop offset="0.14" stop-color="#ABE8AF"/>
<stop offset="0.43" stop-color="#8FE794"/>
<stop offset="0.63" stop-color="#78E67F"/>
<stop offset="0.84" stop-color="#63E76B"/>
</linearGradient>
</defs>
</svg>
