<svg width="103" height="103" viewBox="0 0 103 103" fill="none" xmlns="http://www.w3.org/2000/svg">
<path d="M51.6113 97.9007C25.7613 97.9007 4.80127 76.9507 4.80127 51.0907C4.80127 25.2307 25.7613 4.28067 51.6113 4.28067C77.4613 4.28067 98.4213 25.2407 98.4213 51.0907C98.4213 76.9407 77.4613 97.9007 51.6113 97.9007Z" fill="url(#paint0_linear)"/>
<path fill-rule="evenodd" clip-rule="evenodd" d="M97.5112 51.0907C97.5112 76.4407 76.9612 96.9907 51.6112 96.9907C26.2612 96.9907 5.71119 76.4407 5.71119 51.0907C5.71119 25.7407 26.2612 5.19065 51.6112 5.19065C76.9612 5.19065 97.5112 25.7407 97.5112 51.0907ZM51.6112 1.45065C79.0312 1.45065 101.251 23.6707 101.251 51.0907C101.251 78.5107 79.0212 100.731 51.6112 100.731C24.1912 100.731 1.97119 78.5007 1.97119 51.0907C1.97119 23.6707 24.1912 1.45065 51.6112 1.45065Z" fill="#F2F1F0"/>
<path fill-rule="evenodd" clip-rule="evenodd" d="M94.7012 51.0907C94.7012 74.8907 75.4113 94.1807 51.6113 94.1807C27.8113 94.1807 8.52125 74.8907 8.52125 51.0907C8.52125 27.2907 27.8113 8.00068 51.6113 8.00068C75.4113 8.00068 94.7012 27.2907 94.7012 51.0907ZM51.6113 4.26068C77.4713 4.26068 98.4413 25.2307 98.4413 51.0907C98.4413 76.9507 77.4713 97.9207 51.6113 97.9207C25.7513 97.9207 4.78125 76.9507 4.78125 51.0907C4.78125 25.2307 25.7413 4.26068 51.6113 4.26068Z" fill="url(#paint1_linear)"/>
<path opacity="0.15" d="M21.1612 76.5207H83.3812C83.7512 76.5207 84.0512 76.2207 84.0512 75.8507V27.5707H20.4912V75.8507C20.4912 76.2207 20.7912 76.5207 21.1612 76.5207Z" fill="#1F1D20"/>
<path d="M21.1612 75.0107H83.3812C83.7512 75.0107 84.0512 74.7107 84.0512 74.3407V26.0607H20.4912V74.3407C20.4912 74.7107 20.7912 75.0107 21.1612 75.0107Z" fill="url(#paint2_linear)"/>
<path d="M20.4912 31.3507H84.0512V25.3707C84.0512 25.0107 83.7612 24.7207 83.4012 24.7207H21.1412C20.7812 24.7207 20.4912 25.0107 20.4912 25.3707V31.3507V31.3507Z" fill="url(#paint3_linear)"/>
<path d="M25.371 29.7807C26.261 29.7807 26.991 29.0607 26.991 28.1607C26.991 27.2607 26.261 26.5507 25.371 26.5507C24.491 26.5507 23.751 27.2707 23.751 28.1707C23.751 29.0707 24.481 29.7807 25.371 29.7807Z" fill="url(#paint4_linear)"/>
<path d="M56.7813 50.0207L50.7513 53.5407L44.4113 46.4807C43.9413 45.9607 44.3113 45.1307 45.0113 45.1307H56.7713L56.7813 50.0207Z" fill="url(#paint5_linear)"/>
<path d="M60.1211 48.9907L56.7211 45.1707L44.3611 58.9707C43.9411 59.4407 44.2711 60.1807 44.9011 60.1807H50.0611L60.1211 48.9907Z" fill="url(#paint6_linear)"/>
<path d="M62.9811 52.1907L60.0911 48.9307L49.8911 60.1707H56.4611C56.6011 60.1707 56.7311 60.1107 56.8211 60.0107L62.9611 53.3207C63.2711 53.0007 63.2711 52.5207 62.9811 52.1907Z" fill="url(#paint7_linear)"/>
<path opacity="0.15" d="M51.5109 67.3906C57.3609 67.6606 62.8309 64.2306 65.1309 58.8606C67.3409 53.6906 66.2809 47.7106 62.4309 43.6206C62.3509 43.5306 62.3509 43.4306 62.3609 43.3806C62.3709 43.3406 62.4009 43.2206 62.5209 43.1706L63.2009 42.8406C63.7409 42.5806 64.4209 42.7306 64.8009 43.2206C68.5209 47.8906 69.3709 54.2006 67.0209 59.6806C64.3709 65.8606 58.0609 69.7806 51.3209 69.4306L50.6709 69.3906L50.4909 71.8306C50.4809 72.0006 50.2809 72.0906 50.1509 72.0006L44.7109 68.3806C44.4809 68.2306 44.5109 67.8906 44.7509 67.7806L50.6509 64.9606C50.8009 64.8906 50.9809 65.0106 50.9709 65.1806L50.8109 67.3706L51.5109 67.3906Z" fill="#1F1D20"/>
<path opacity="0.15" d="M54.5311 42.0506C54.3811 42.1206 54.2111 42.0106 54.2211 41.8306L54.3911 39.3506L53.7611 39.2806C47.6111 38.5806 41.6211 42.0606 39.1911 47.7406C36.7511 53.4306 38.3711 60.1706 43.1411 64.1306C43.2511 64.2206 43.2611 64.3306 43.2411 64.3906C43.2311 64.4106 43.2311 64.4406 43.2211 64.4706C43.2011 64.5206 43.1611 64.5806 43.0711 64.6106L42.2511 65.0106C41.7511 65.2506 41.1511 65.1406 40.7411 64.7406C35.9711 59.9806 34.6411 52.8806 37.3811 46.7206C40.2611 40.2306 47.1611 36.5006 54.2211 37.2406L54.5211 37.2706L54.6611 35.1306C54.6711 34.9606 54.8711 34.8706 55.0011 34.9706L60.5111 38.6806C60.7411 38.8306 60.7111 39.1706 60.4611 39.2906L54.5311 42.0506Z" fill="#1F1D20"/>
<path d="M51.7509 66.8306C57.6009 67.1006 63.0709 63.6706 65.3709 58.3006C67.5809 53.1306 66.5209 47.1506 62.6709 43.0606C62.5909 42.9706 62.5909 42.8706 62.6009 42.8206C62.6109 42.7806 62.6409 42.6606 62.7609 42.6106L63.4409 42.2806C63.9809 42.0206 64.6609 42.1706 65.0409 42.6606C68.7609 47.3206 69.6109 53.6306 67.2609 59.1206C64.6109 65.3006 58.3009 69.2206 51.5709 68.8706L50.9209 68.8406L50.7409 71.2806C50.7309 71.4506 50.5309 71.5406 50.4009 71.4506L44.9609 67.8306C44.7309 67.6806 44.7609 67.3406 45.0009 67.2306L50.9009 64.4106C51.0509 64.3406 51.2309 64.4606 51.2209 64.6306L51.0609 66.8206L51.7509 66.8306Z" fill="url(#paint8_linear)"/>
<path d="M54.7709 41.4906C54.6209 41.5606 54.4509 41.4506 54.4609 41.2706L54.6309 38.7906L54.0009 38.7206C47.8609 38.0106 41.8609 41.5006 39.4309 47.1706C36.9909 52.8606 38.6209 59.6006 43.3809 63.5606C43.4909 63.6506 43.5009 63.7606 43.4809 63.8206C43.4709 63.8406 43.4709 63.8706 43.4609 63.9006C43.4409 63.9506 43.4009 64.0106 43.3109 64.0406L42.4909 64.4406C41.9909 64.6806 41.3909 64.5706 40.9809 64.1706C36.2209 59.4106 34.8909 52.3206 37.6209 46.1606C40.5009 39.6806 47.4009 35.9406 54.4609 36.6806L54.7609 36.7106L54.9009 34.5706C54.9109 34.4006 55.1109 34.3106 55.2409 34.4106L60.7509 38.1106C60.9809 38.2606 60.9509 38.6006 60.7009 38.7206L54.7709 41.4906Z" fill="url(#paint9_linear)"/>
<defs>
<linearGradient id="paint0_linear" x1="6.83477" y1="-12.3821" x2="84.2206" y2="97.3186" gradientUnits="userSpaceOnUse">
<stop stop-color="#97C3F9"/>
<stop offset="0.4975" stop-color="#388CF4"/>
<stop offset="1" stop-color="#2C7CEF"/>
</linearGradient>
<linearGradient id="paint1_linear" x1="44.1108" y1="4.62988" x2="57.7171" y2="88.9133" gradientUnits="userSpaceOnUse">
<stop offset="0.0829" stop-color="#1152D4"/>
<stop offset="0.4296" stop-color="#0D40B5"/>
<stop offset="0.706" stop-color="#0D3FB1"/>
<stop offset="1" stop-color="#092D7F"/>
</linearGradient>
<linearGradient id="paint2_linear" x1="52.4506" y1="73.6415" x2="52.1671" y2="35.9407" gradientUnits="userSpaceOnUse">
<stop stop-color="#D2EBFF"/>
<stop offset="1" stop-color="#F0FFFD"/>
</linearGradient>
<linearGradient id="paint3_linear" x1="32.4619" y1="10.1066" x2="84.9117" y2="58.0446" gradientUnits="userSpaceOnUse">
<stop offset="0.4598" stop-color="#1152D4"/>
<stop offset="0.6156" stop-color="#0D3FB3"/>
</linearGradient>
<linearGradient id="paint4_linear" x1="23.7539" y1="28.1635" x2="26.9939" y2="28.1635" gradientUnits="userSpaceOnUse">
<stop stop-color="#76C0FD"/>
<stop offset="1" stop-color="#63B2FB"/>
</linearGradient>
<linearGradient id="paint5_linear" x1="44.9961" y1="41.0907" x2="58.7062" y2="53.9905" gradientUnits="userSpaceOnUse">
<stop offset="0.4598" stop-color="#1152D4"/>
<stop offset="0.6156" stop-color="#0D3FB3"/>
</linearGradient>
<linearGradient id="paint6_linear" x1="44.1847" y1="52.6685" x2="60.1229" y2="52.6685" gradientUnits="userSpaceOnUse">
<stop stop-color="#388CF4"/>
<stop offset="1" stop-color="#2C7CEF"/>
</linearGradient>
<linearGradient id="paint7_linear" x1="49.9" y1="54.5553" x2="63.1984" y2="54.5553" gradientUnits="userSpaceOnUse">
<stop stop-color="#76C0FD"/>
<stop offset="1" stop-color="#63B2FB"/>
</linearGradient>
<linearGradient id="paint8_linear" x1="43.2373" y1="30.2433" x2="69.6068" y2="85.2495" gradientUnits="userSpaceOnUse">
<stop offset="0.4598" stop-color="#1152D4"/>
<stop offset="0.6156" stop-color="#0D3FB3"/>
</linearGradient>
<linearGradient id="paint9_linear" x1="40.8933" y1="31.367" x2="67.2628" y2="86.3732" gradientUnits="userSpaceOnUse">
<stop offset="0.4598" stop-color="#1152D4"/>
<stop offset="0.6156" stop-color="#0D3FB3"/>
</linearGradient>
</defs>
</svg>
