<svg width="103" height="103" viewBox="0 0 103 103" fill="none" xmlns="http://www.w3.org/2000/svg">
<path d="M51.696 98.37C25.846 98.37 4.88605 77.42 4.88605 51.56C4.88605 25.7 25.846 4.75 51.696 4.75C77.546 4.75 98.506 25.71 98.506 51.56C98.506 77.41 77.546 98.37 51.696 98.37Z" fill="url(#paint0_linear_332_15040)"/>
<path fill-rule="evenodd" clip-rule="evenodd" d="M97.596 51.5599C97.596 76.9099 77.046 97.4599 51.696 97.4599C26.346 97.4599 5.79603 76.9099 5.79603 51.5599C5.79603 26.2099 26.346 5.65993 51.696 5.65993C77.046 5.65993 97.596 26.2099 97.596 51.5599ZM51.696 1.91992C79.116 1.91992 101.336 24.1399 101.336 51.5599C101.336 78.9799 79.106 101.2 51.696 101.2C24.276 101.2 2.05603 78.9699 2.05603 51.5599C2.05603 24.1399 24.276 1.91992 51.696 1.91992Z" fill="#F2F1F0"/>
<path fill-rule="evenodd" clip-rule="evenodd" d="M94.786 51.5595C94.786 75.3595 75.496 94.6495 51.696 94.6495C27.896 94.6495 8.60603 75.3595 8.60603 51.5595C8.60603 27.7595 27.896 8.4695 51.696 8.4695C75.496 8.4695 94.786 27.7595 94.786 51.5595ZM51.696 4.72949C77.556 4.72949 98.526 25.6995 98.526 51.5595C98.526 77.4195 77.556 98.3895 51.696 98.3895C25.836 98.3895 4.86603 77.4195 4.86603 51.5595C4.86603 25.6995 25.826 4.72949 51.696 4.72949Z" fill="url(#paint1_linear_332_15040)"/>
<path opacity="0.15" d="M50.8094 70.5061C51.3894 70.5061 51.8494 70.0461 51.8494 69.4661V34.2461H15.6194V69.4761C15.6194 70.0561 16.0794 70.5161 16.6594 70.5161L50.8094 70.5061Z" fill="#1F1D20"/>
<path d="M51.8394 34.5466V33.9866C51.8394 33.2866 51.2794 32.7266 50.5794 32.7266H16.8794C16.1794 32.7266 15.6194 33.2866 15.6194 33.9866V34.6066V35.1766V68.3666C15.6194 69.0666 16.1794 69.6266 16.8794 69.6266H50.5894C51.2894 69.6266 51.8494 69.0666 51.8494 68.3666V34.6166C51.8494 34.5866 51.8394 34.5766 51.8394 34.5466Z" fill="white"/>
<path d="M66.9994 56.4971H56.5694V57.3071H66.9994V56.4971Z" fill="white"/>
<path d="M66.9994 44.667H56.5694V45.477H66.9994V44.667Z" fill="white"/>
<path d="M67.0094 69.1366H56.5694C56.3494 69.1366 56.1594 68.9566 56.1594 68.7266V33.2166C56.1594 32.9966 56.3394 32.8066 56.5694 32.8066H66.9994V33.6166H56.9794V68.3166H67.0094V69.1366Z" fill="white"/>
<path d="M56.5994 50.8164H48.7494V51.8264H56.5994V50.8164Z" fill="white"/>
<path d="M80.7894 44.6367H70.3494V45.4467H80.7894V44.6367Z" fill="white"/>
<path d="M80.7894 56.4766H70.3494V57.2866H80.7894V56.4766Z" fill="white"/>
<path d="M80.7794 69.1364H70.3494V68.3264H80.3794V33.6264H70.3494V32.8164H80.7894C81.0094 32.8164 81.1994 32.9964 81.1994 33.2264V68.7364C81.1894 68.9564 81.0094 69.1364 80.7794 69.1364Z" fill="white"/>
<path d="M90.9694 50.1162H80.7494V51.1262H90.9694V50.1162Z" fill="white"/>
<path opacity="0.15" d="M74.3594 28.5264H62.5894C61.8694 28.5264 61.2894 29.1064 61.2894 29.8264V37.0364C61.2894 37.7564 61.8694 38.3364 62.5894 38.3364H74.3694C75.0894 38.3464 75.6694 37.7664 75.6694 37.0364V29.8364C75.6694 29.0964 75.0794 28.5264 74.3594 28.5264Z" fill="#1F1D20"/>
<path opacity="0.15" d="M74.3594 52.5059H62.5894C61.8694 52.5059 61.2894 53.0859 61.2894 53.8059V61.0159C61.2894 61.7359 61.8694 62.3159 62.5894 62.3159H74.3694C75.0894 62.3159 75.6694 61.7359 75.6694 61.0159V53.8159C75.6694 53.0859 75.0794 52.5059 74.3594 52.5059Z" fill="#1F1D20"/>
<path opacity="0.15" d="M74.3594 40.4863H62.5894C61.8694 40.4863 61.2894 41.0663 61.2894 41.7863V48.9963C61.2894 49.7163 61.8694 50.2963 62.5894 50.2963H74.3694C75.0894 50.3063 75.6694 49.7263 75.6694 48.9963V41.7863C75.6694 41.0763 75.0794 40.4863 74.3594 40.4863Z" fill="#1F1D20"/>
<path opacity="0.15" d="M74.3594 64.4756H62.5894C61.8694 64.4756 61.2894 65.0556 61.2894 65.7756V72.9856C61.2894 73.7056 61.8694 74.2856 62.5894 74.2856H74.3694C75.0894 74.2856 75.6694 73.7056 75.6694 72.9856V65.7756C75.6694 65.0656 75.0794 64.4756 74.3594 64.4756Z" fill="#1F1D20"/>
<path d="M74.3594 27.666H62.5894C61.8694 27.666 61.2894 28.246 61.2894 28.966V36.176C61.2894 36.896 61.8694 37.476 62.5894 37.476H74.3694C75.0894 37.486 75.6694 36.906 75.6694 36.176V28.976C75.6694 28.246 75.0794 27.666 74.3594 27.666Z" fill="#69B7FC"/>
<path d="M74.3594 51.6465H62.5894C61.8694 51.6465 61.2894 52.2265 61.2894 52.9465V60.1565C61.2894 60.8765 61.8694 61.4565 62.5894 61.4565H74.3694C75.0894 61.4565 75.6694 60.8765 75.6694 60.1565V52.9565C75.6694 52.2265 75.0794 51.6465 74.3594 51.6465Z" fill="url(#paint2_linear_332_15040)"/>
<path d="M74.3594 39.6465H62.5894C61.8694 39.6465 61.2894 40.2265 61.2894 40.9465V48.1565C61.2894 48.8765 61.8694 49.4565 62.5894 49.4565H74.3694C75.0894 49.4665 75.6694 48.8865 75.6694 48.1565V40.9465C75.6694 40.2265 75.0794 39.6465 74.3594 39.6465Z" fill="#2675E2"/>
<path d="M74.3594 63.626H62.5894C61.8694 63.626 61.2894 64.206 61.2894 64.926V72.136C61.2894 72.856 61.8694 73.436 62.5894 73.436H74.3694C75.0894 73.436 75.6694 72.856 75.6694 72.136V64.926C75.6694 64.216 75.0794 63.626 74.3594 63.626Z" fill="#002D4C"/>
<path d="M86.2294 47.0664L92.3494 50.5964L86.2294 54.1264V47.0664Z" fill="white"/>
<path d="M38.8411 47.9157L30.7397 52.6473L22.2228 43.1601C21.5935 42.4611 22.0907 41.3467 23.0298 41.3467H38.8387V47.9157H38.8411Z" fill="url(#paint3_linear_332_15040)"/>
<path d="M43.3345 46.5208L38.771 41.3809L22.1623 59.9302C21.6003 60.5595 22.0446 61.5563 22.8901 61.5563H29.8314L43.3345 46.5208Z" fill="url(#paint4_linear_332_15040)"/>
<path d="M47.1822 50.8293L43.2984 46.4531L29.5936 61.5559H38.4275C38.6125 61.5559 38.7878 61.479 38.9127 61.3421L47.1702 52.3448C47.5617 51.9173 47.5689 51.264 47.1822 50.8293Z" fill="url(#paint5_linear_332_15040)"/>
<path opacity="0.15" d="M53.9668 74.1374C54.1806 74.1374 54.3502 73.9678 54.3502 73.754V60.7705H40.9944V73.7577C40.9944 73.9715 41.164 74.1411 41.3778 74.1411L53.9668 74.1374Z" fill="#1F1D20"/>
<path d="M54.3465 60.8809V60.6744C54.3465 60.4164 54.1401 60.21 53.882 60.21H41.4589C41.2008 60.21 40.9944 60.4164 40.9944 60.6744V60.903V61.1131V73.3483C40.9944 73.6063 41.2008 73.8128 41.4589 73.8128H53.8857C54.1438 73.8128 54.3502 73.6063 54.3502 73.3483V60.9067C54.3502 60.8956 54.3465 60.8919 54.3465 60.8809Z" fill="url(#paint6_linear_332_15040)"/>
<path opacity="0.15" d="M47.6723 71.8208C50.1189 71.8208 52.0978 69.8419 52.0978 67.3953C52.0978 64.9486 50.1189 62.9697 47.6723 62.9697C45.2257 62.9697 43.2468 64.9486 43.2468 67.3953C43.2468 69.8419 45.2317 71.8208 47.6723 71.8208Z" fill="#1F1D20"/>
<path d="M47.6723 71.4253C50.1189 71.4253 52.0978 69.4464 52.0978 66.9997C52.0978 64.5531 50.1189 62.5742 47.6723 62.5742C45.2257 62.5742 43.2468 64.5531 43.2468 66.9997C43.2468 69.4464 45.2317 71.4253 47.6723 71.4253Z" fill="white"/>
<path d="M49.8313 68.7988C49.7113 67.7014 48.7699 66.8379 47.6305 66.8379C46.4971 66.8379 45.5677 67.6834 45.4297 68.7688C45.4117 68.8468 45.4117 68.9307 45.4117 69.0027C45.4417 69.3145 45.6516 69.6143 46.0594 69.8482C46.9229 70.3459 48.3381 70.3459 49.1956 69.8482C49.6034 69.6143 49.8073 69.3145 49.8373 69.0027C49.8493 68.9367 49.8373 68.8648 49.8313 68.7988Z" fill="url(#paint7_linear_332_15040)"/>
<path d="M47.6303 66.5206C48.3679 66.5206 48.9676 65.927 48.9676 65.1954C48.9676 64.4638 48.3739 63.8701 47.6303 63.8701C46.8868 63.8701 46.2931 64.4578 46.2931 65.1954C46.2931 65.933 46.8928 66.5206 47.6303 66.5206Z" fill="url(#paint8_linear_332_15040)"/>
<defs>
<linearGradient id="paint0_linear_332_15040" x1="49.9221" y1="-13.2295" x2="53.9041" y2="132.541" gradientUnits="userSpaceOnUse">
<stop stop-color="#00ABDE"/>
<stop offset="1" stop-color="#007ED8"/>
</linearGradient>
<linearGradient id="paint1_linear_332_15040" x1="3.12643" y1="-20.0631" x2="98.654" y2="120.818" gradientUnits="userSpaceOnUse">
<stop stop-color="#007ED8"/>
<stop offset="0.7065" stop-color="#002D4C"/>
</linearGradient>
<linearGradient id="paint2_linear_332_15040" x1="67.7252" y1="40.3433" x2="70.5522" y2="69.2869" gradientUnits="userSpaceOnUse">
<stop offset="0.0340756" stop-color="#1152D4"/>
<stop offset="0.4598" stop-color="#1152D4"/>
<stop offset="0.6156" stop-color="#0D3FB3"/>
</linearGradient>
<linearGradient id="paint3_linear_332_15040" x1="23.0018" y1="35.9067" x2="41.4297" y2="53.2452" gradientUnits="userSpaceOnUse">
<stop offset="0.4598" stop-color="#1152D4"/>
<stop offset="0.6156" stop-color="#0D3FB3"/>
</linearGradient>
<linearGradient id="paint4_linear_332_15040" x1="21.9125" y1="51.469" x2="43.3336" y2="51.469" gradientUnits="userSpaceOnUse">
<stop stop-color="#388CF4"/>
<stop offset="1" stop-color="#2C7CEF"/>
</linearGradient>
<linearGradient id="paint5_linear_332_15040" x1="29.5939" y1="54.0047" x2="47.4683" y2="54.0047" gradientUnits="userSpaceOnUse">
<stop stop-color="#76C0FD"/>
<stop offset="1" stop-color="#63B2FB"/>
</linearGradient>
<linearGradient id="paint6_linear_332_15040" x1="46.9718" y1="44.5366" x2="52.7569" y2="84.21" gradientUnits="userSpaceOnUse">
<stop offset="0.0340756" stop-color="#1152D4"/>
<stop offset="0.4598" stop-color="#1152D4"/>
<stop offset="0.6156" stop-color="#0D3FB3"/>
</linearGradient>
<linearGradient id="paint7_linear_332_15040" x1="47.6271" y1="66.8379" x2="47.6271" y2="70.2215" gradientUnits="userSpaceOnUse">
<stop stop-color="#008BF1"/>
<stop offset="0.22" stop-color="#0086EC"/>
<stop offset="0.49" stop-color="#0078DD"/>
<stop offset="0.79" stop-color="#0061C4"/>
<stop offset="1" stop-color="#004DAE"/>
</linearGradient>
<linearGradient id="paint8_linear_332_15040" x1="47.6303" y1="63.8701" x2="47.6303" y2="66.5206" gradientUnits="userSpaceOnUse">
<stop stop-color="#008BF1"/>
<stop offset="0.22" stop-color="#0086EC"/>
<stop offset="0.49" stop-color="#0078DD"/>
<stop offset="0.79" stop-color="#0061C4"/>
<stop offset="1" stop-color="#004DAE"/>
</linearGradient>
</defs>
</svg>
