<svg width="160" height="188" viewBox="0 0 160 188" fill="none" xmlns="http://www.w3.org/2000/svg">
<g clip-path="url(#clip0)">
<path d="M79.6779 188C82.7592 187.994 85.7796 187.141 88.4083 185.534L150.384 147.874C153.165 146.11 155.449 143.665 157.019 140.771C158.589 137.876 159.394 134.628 159.356 131.336V56.6207C159.392 53.3283 158.587 50.0812 157.017 47.1871C155.447 44.2929 153.163 41.8476 150.384 40.0829L88.4083 2.4228C85.7749 0.837605 82.7592 0 79.6855 0C76.6118 0 73.5961 0.837605 70.9627 2.4228L8.9876 40.098C6.2045 41.8604 3.91796 44.3048 2.34499 47.1991C0.772021 50.0935 -0.0351786 53.3418 4.1431e-06 56.6358V131.336C-0.0185283 134.119 0.556189 136.874 1.68588 139.418C2.81557 141.962 4.4743 144.236 6.5516 146.089V146.115L70.9627 185.549C73.5884 187.149 76.6032 187.996 79.6779 188V188ZM80.3257 6.95218C82.2776 6.95218 84.7548 8.1651 86.4646 9.20912L147.222 46.4034C150.974 48.6881 153.09 55.2842 153.09 60.0352L152.458 131.336C152.458 136.087 149.259 140.355 145.506 142.64L85.1104 179.021C81.6758 181.109 78.8854 181.109 75.4507 179.021L14.2427 142.549C10.4903 140.265 7.47191 136.072 7.47191 131.336V57.688C7.50442 55.3228 8.11341 53.0013 9.24608 50.9247C10.3787 48.8482 12.0009 47.0792 13.9718 45.7714L74.548 9.20912C76.2577 8.1651 78.3739 6.95218 80.3257 6.95218Z" fill="#F2F1F0"/>
<path fill-rule="evenodd" clip-rule="evenodd" d="M87.5765 10.5328C85.2056 9.05922 82.4697 8.27832 79.6783 8.27832C76.8868 8.27832 74.1509 9.05922 71.7801 10.5328L15.6454 44.8642C13.1193 46.4758 11.047 48.7062 9.625 51.3436C8.203 53.9811 7.47851 56.9382 7.52026 59.9343V128.037C7.48034 131.033 8.20562 133.99 9.62745 136.627C11.0493 139.264 13.1206 141.494 15.6454 143.107L71.7801 177.438C74.1508 178.912 76.8867 179.693 79.6783 179.693C82.4698 179.693 85.2057 178.912 87.5765 177.438L143.711 143.107C146.236 141.495 148.307 139.264 149.729 136.627C151.151 133.99 151.877 131.033 151.837 128.037V59.9343C151.875 56.9387 151.149 53.9829 149.727 51.346C148.305 48.7092 146.234 46.4783 143.711 44.8642L87.5765 10.5328Z" fill="url(#paint0_linear)"/>
<path fill-rule="evenodd" clip-rule="evenodd" d="M79.6783 9.7539C81.3615 9.7539 83.2442 10.6196 85.311 11.8777L143.777 47.4201C145.668 48.6335 147.218 50.3104 148.278 52.2914C149.339 54.2725 149.875 56.4918 149.837 58.7386V129.217C149.875 131.464 149.339 133.683 148.278 135.664C147.218 137.645 145.668 139.322 143.777 140.535L85.312 176.077L85.311 176.078C83.6408 177.217 81.6958 177.888 79.6783 178.021C77.6609 177.888 75.7158 177.217 74.0456 176.078L74.0446 176.077L15.5823 140.537L15.5801 140.536C13.7918 139.572 12.2668 138.185 11.1383 136.496C10.1614 134.893 9.52031 132.678 9.52031 129.217V58.7386C9.48157 56.4919 10.018 54.2726 11.0785 52.2916C12.139 50.3106 13.6885 48.6336 15.5797 47.4202L74.0365 11.8831L74.0406 11.8807C76.1244 10.6277 77.9846 9.7539 79.6783 9.7539ZM87.3908 8.4609L145.855 44.0021C148.333 45.5722 150.368 47.751 151.765 50.3307C153.162 52.9104 153.876 55.8051 153.837 58.7386V129.217C153.876 132.151 153.162 135.045 151.765 137.625C150.368 140.205 148.333 142.384 145.855 143.954L87.3898 179.495C85.0956 181.02 82.4302 181.893 79.6783 182.021C76.9264 181.893 74.261 181.02 71.9667 179.495H71.9658L13.502 143.953L13.4995 143.952C11.1642 142.659 9.18097 140.814 7.72281 138.578C6.12823 135.725 5.36521 132.482 5.52031 129.217V58.7386C5.48125 55.805 6.19436 52.9103 7.59165 50.3305C8.98894 47.7508 11.0238 45.572 13.5022 44.002L71.9667 8.46025L71.9749 8.45537C74.0655 7.19796 76.7734 5.75391 79.6783 5.75391C82.5645 5.75391 85.2816 7.17699 87.3908 8.46085V8.4609Z" fill="#0078D4"/>
<path opacity="0.2" d="M139.959 132.026L80.409 166.633L20.47 132.027L80.02 97.4199L139.959 132.026Z" fill="#003067"/>
<path d="M140.601 120.649L79.878 155.937L18.767 120.654L79.489 85.3662L140.601 120.649Z" fill="#1B93EB"/>
<path d="M140.601 120.649L140.589 124.755L79.8669 160.043L79.8779 155.937L140.601 120.649Z" fill="#1F56A3"/>
<path d="M79.878 155.937L79.867 160.043L18.755 124.76L18.767 120.654L79.878 155.937Z" fill="#0078D4"/>
<path d="M85.4199 67.2934L84.2035 66.5912L78.3219 63.1953L78.2246 97.4847C78.2415 97.7919 78.3304 98.0907 78.4842 98.3571C78.638 98.6235 78.8523 98.85 79.1099 99.0182L84.1035 101.901V101.901L85.3198 102.603V102.604L122.067 123.819C122.555 124.101 122.956 123.872 122.958 123.312L123.055 89.0222L85.4199 67.2934Z" fill="white"/>
<path d="M122.182 83.1484C122.439 83.3166 122.654 83.5431 122.808 83.8095C122.961 84.0759 123.05 84.3748 123.067 84.682L123.055 89.0222L78.3218 63.1954L78.3341 58.8552C78.3357 58.2943 78.7291 58.0609 79.2252 58.3473L122.182 83.1484ZM81.7664 63.9131C82.3905 64.2735 82.9044 63.9899 82.9064 63.2635C82.8846 62.8718 82.7707 62.4908 82.5739 62.1515C82.3771 61.8122 82.1029 61.5242 81.7738 61.3109C81.1495 60.9505 80.6358 61.2341 80.6337 61.9605C80.6521 62.353 80.7646 62.7352 80.9617 63.0751C81.1589 63.4149 81.4348 63.7023 81.7664 63.9131" fill="#0078D4"/>
<path d="M81.7738 61.3112C82.103 61.5246 82.3772 61.8126 82.574 62.1519C82.7708 62.4912 82.8847 62.8722 82.9065 63.2639C82.9044 63.9903 82.3906 64.2739 81.7665 63.9135C81.4349 63.7027 81.159 63.4153 80.9618 63.0755C80.7647 62.7356 80.6522 62.3534 80.6338 61.9609C80.6358 61.2345 81.1496 60.9509 81.7738 61.3112Z" fill="#50E6FF"/>
<path d="M123.055 89.0228L122.958 123.312C122.969 123.421 122.95 123.532 122.905 123.631C122.859 123.731 122.788 123.817 122.698 123.88L124.465 122.854C124.554 122.79 124.626 122.704 124.671 122.605C124.717 122.505 124.735 122.395 124.725 122.285L124.822 87.9961L123.055 89.0228Z" fill="#E8E8E8"/>
<path d="M123.949 82.1219L80.992 57.3209C80.9019 57.255 80.7958 57.2144 80.6846 57.2033C80.5735 57.1922 80.4614 57.211 80.36 57.2578L78.5933 58.2845C78.6947 58.2377 78.8067 58.2189 78.9179 58.23C79.029 58.2411 79.1351 58.2817 79.2253 58.3476L122.182 83.1487C122.44 83.3169 122.654 83.5434 122.808 83.8098C122.962 84.0762 123.051 84.3751 123.067 84.6822L123.055 89.0225L124.822 87.9958L124.834 83.6555C124.817 83.3484 124.728 83.0495 124.575 82.783C124.421 82.5166 124.206 82.2901 123.949 82.1219Z" fill="#1F56A3"/>
<path d="M113.18 102.802L115.465 101.474L115.747 101.636L113.462 102.964L113.18 102.802Z" fill="white"/>
<path d="M104.612 88.2654C104.995 88.5143 105.315 88.8505 105.543 89.2465C105.772 89.6425 105.903 90.087 105.927 90.5436L105.926 90.8826L108.105 92.1404C109.487 93.0445 110.674 94.2175 111.593 95.5896C112.513 96.9617 113.147 98.5048 113.458 100.127L113.462 102.964C112.903 105.477 110.698 106.324 108.069 104.806L105.89 103.549L105.89 103.828C105.887 104.666 105.295 105.004 104.566 104.582C104.182 104.334 103.863 103.997 103.634 103.601C103.406 103.205 103.274 102.761 103.25 102.304L103.288 89.0198C103.29 88.1814 103.882 87.8441 104.612 88.2654Z" fill="#E8E8E8"/>
<path d="M116.361 101.803L116.353 104.633L113.462 102.964L113.458 100.127L116.361 101.803Z" fill="#E8E8E8"/>
<path d="M86.4697 84.1066C86.4037 84.4001 86.3617 84.6986 86.3442 84.999C86.3095 85.6497 86.3524 86.3023 86.4719 86.943L83.3374 85.1332L83.3454 82.3027L86.4697 84.1066Z" fill="#E8E8E8"/>
<path d="M95.3653 82.486C95.4097 82.5116 95.4545 82.5401 95.4999 82.5713C95.8512 82.8429 96.1389 83.1881 96.3428 83.5826C96.5467 83.9771 96.662 84.4114 96.6804 84.8551L96.6741 87.0731L99.3393 88.6118C99.4872 88.7084 99.6101 88.8386 99.6979 88.9918C99.7858 89.145 99.8361 89.3169 99.8447 89.4933L99.84 91.1465C99.8391 91.4735 99.6106 91.6037 99.3312 91.4424L96.6661 89.9036L96.6577 92.8531L99.3228 94.3918C99.4707 94.4884 99.5937 94.6186 99.6815 94.7718C99.7694 94.925 99.8197 95.0969 99.8283 95.2733L99.8236 96.9264C99.8227 97.2535 99.5943 97.3837 99.3148 97.2223L96.6497 95.6836L96.643 98.0503C96.6406 98.8913 96.0454 99.2258 95.3139 98.8035C95.2696 98.7778 95.2247 98.7494 95.1793 98.7181C94.8275 98.4469 94.5395 98.1019 94.3355 97.7073C94.1316 97.3127 94.0166 96.8782 93.9988 96.4344L94.0047 96.1876L91.826 94.9297C90.4434 94.0256 89.2569 92.8526 88.3371 91.4804C87.4172 90.1082 86.7829 88.5649 86.4719 86.9425C86.3524 86.3019 86.3095 85.6493 86.3442 84.9985C86.3616 84.6981 86.4036 84.3997 86.4697 84.1061C87.052 81.5612 89.4013 80.8431 92.0482 82.3713L94.0406 83.5216L94.0414 83.2421C94.0438 82.4011 94.6344 82.064 95.3653 82.486Z" fill="#E8E8E8"/>
<path d="M67.5324 49.3205C65.6717 48.2392 63.0972 48.3892 60.2556 50.0299C59.4416 50.5013 58.6748 51.0498 57.9656 51.6678L59.7465 52.7028C60.4557 52.0848 61.2227 51.5363 62.0367 51.0649C64.8783 49.4242 67.4528 49.2742 69.3133 50.3555L67.5324 49.3205Z" fill="#E8E8E8"/>
<path d="M46.8132 51.0594C39.5369 55.2604 33.6592 65.441 33.6829 73.8114C33.6836 74.0247 33.6842 74.2286 33.7008 74.4232C32.9483 74.5813 32.2279 74.8654 31.5699 75.2635C29.6889 76.4872 28.1236 78.138 27.0016 80.0814C25.8795 82.0248 25.2326 84.2058 25.1134 86.4467C25.1193 88.4923 25.8417 89.9247 27.0032 90.5997L28.7842 91.6347C27.6226 90.9597 26.9002 89.5272 26.8945 87.4817C27.0137 85.2408 27.6606 83.0598 28.7826 81.1163C29.9046 79.1729 31.47 77.5221 33.351 76.2984C34.0089 75.9004 34.7293 75.6163 35.4818 75.4582C35.4651 75.2635 35.4645 75.0596 35.4639 74.8464C35.4403 66.476 41.3178 56.2955 48.5943 52.0944C52.2564 49.9801 55.5638 49.7711 57.9606 51.1639L56.1796 50.1289C53.7829 48.7361 50.4753 48.9451 46.8132 51.0594Z" fill="#E8E8E8"/>
<path d="M48.5942 52.0946C41.3178 56.2956 35.4402 66.4762 35.4639 74.8466C35.4645 75.0598 35.4651 75.2637 35.4817 75.4584C34.7292 75.6165 34.0089 75.9005 33.351 76.2986C31.4699 77.5223 29.9046 79.1731 28.7826 81.1165C27.6606 83.06 27.0136 85.241 26.8944 87.4819C26.9054 91.3565 29.4877 93.0317 32.7559 91.5255L62.0873 74.6559C65.9352 72.4343 69.2842 68.0589 71.0406 63.4424C71.0807 63.3172 71.1449 63.1779 71.1849 63.0527C71.5705 61.9395 71.8698 60.7982 72.0803 59.639C72.088 59.5138 72.12 59.3747 72.1357 59.2634C72.2518 58.4932 72.309 57.7152 72.3069 56.9363C72.2885 50.4384 67.6916 47.8001 62.0366 51.065C61.2226 51.5365 60.4557 52.085 59.7464 52.7029C57.387 49.8035 53.2811 49.3886 48.5942 52.0946Z" fill="white"/>
<path d="M44.918 113.819C44.7782 113.771 44.6569 113.681 44.5709 113.561C44.4849 113.441 44.4385 113.297 44.4382 113.149C44.4379 113.002 44.4837 112.858 44.5693 112.737C44.6548 112.617 44.7757 112.526 44.9153 112.478L52.7777 107.909C53.1368 107.726 53.5338 107.63 53.9367 107.63C54.3395 107.629 54.7368 107.724 55.0964 107.905L103.051 135.592C103.191 135.64 103.312 135.731 103.398 135.851C103.484 135.971 103.53 136.115 103.53 136.263C103.53 136.411 103.484 136.555 103.399 136.675C103.313 136.796 103.192 136.887 103.053 136.935L95.2597 141.464C94.9006 141.647 94.5035 141.743 94.1006 141.743C93.6976 141.744 93.3001 141.65 92.9403 141.469L44.918 113.819Z" fill="#0078D4"/>
<path d="M59.6347 112.824C59.7262 112.855 59.8057 112.914 59.8622 112.992C59.9186 113.07 59.9493 113.164 59.9498 113.261C59.9504 113.357 59.9208 113.452 59.8652 113.531C59.8096 113.61 59.7308 113.669 59.6397 113.701L55.2883 116.23C55.0539 116.35 54.7943 116.413 54.531 116.413C54.2677 116.413 54.0081 116.35 53.7737 116.23L49.3938 113.701C49.3019 113.671 49.2218 113.612 49.1648 113.534C49.1079 113.456 49.077 113.361 49.0764 113.265C49.0759 113.168 49.1057 113.073 49.1618 112.994C49.2178 112.915 49.2972 112.856 49.3888 112.824L53.7402 110.295C53.9749 110.176 54.2344 110.114 54.4976 110.114C54.7607 110.114 55.0202 110.176 55.2549 110.295L59.6347 112.824Z" fill="#1B93EB"/>
<path d="M60.9645 116.919L91.7627 134.701" stroke="#1B93EB" stroke-width="1.33979" stroke-miterlimit="10" stroke-linecap="round"/>
<path d="M31.2448 121.162C31.105 121.114 30.9837 121.024 30.8977 120.904C30.8117 120.784 30.7653 120.64 30.765 120.492C30.7647 120.345 30.8105 120.2 30.896 120.08C30.9816 119.96 31.1025 119.869 31.2421 119.82L39.1045 115.251C39.4636 115.069 39.8606 114.973 40.2635 114.973C40.6663 114.972 41.0636 115.066 41.4232 115.248L89.3776 142.935C89.5173 142.983 89.6385 143.074 89.7244 143.194C89.8103 143.314 89.8566 143.458 89.8568 143.606C89.857 143.754 89.8111 143.898 89.7256 144.018C89.6401 144.139 89.5191 144.229 89.3795 144.278L81.5865 148.807C81.2274 148.99 80.8303 149.085 80.4273 149.086C80.0244 149.087 79.6269 148.993 79.267 148.812L31.2448 121.162Z" fill="#0078D4"/>
<path d="M45.9614 120.168C46.0529 120.199 46.1324 120.258 46.1889 120.336C46.2454 120.414 46.276 120.508 46.2766 120.605C46.2771 120.701 46.2475 120.796 46.192 120.875C46.1364 120.953 46.0575 121.013 45.9664 121.045L41.615 123.574C41.3805 123.694 41.121 123.756 40.8576 123.756C40.5943 123.756 40.3348 123.694 40.1003 123.574L35.7205 121.045C35.6285 121.015 35.5484 120.956 35.4915 120.878C35.4346 120.799 35.4036 120.705 35.4031 120.608C35.4025 120.511 35.4324 120.417 35.4884 120.338C35.5445 120.259 35.6239 120.199 35.7155 120.168L40.0669 117.639C40.3016 117.52 40.5611 117.458 40.8242 117.458C41.0874 117.458 41.3468 117.52 41.5815 117.639L45.9614 120.168Z" fill="#1B93EB"/>
<path d="M47.2913 124.263L78.0895 142.044" stroke="#1B93EB" stroke-width="1.33979" stroke-miterlimit="10" stroke-linecap="round"/>
<path opacity="0.2" d="M58.9699 106.053C58.8301 106.005 58.7088 105.915 58.6228 105.795C58.5368 105.674 58.4904 105.531 58.4901 105.383C58.4898 105.235 58.5356 105.091 58.6211 104.971C58.7067 104.85 58.8276 104.759 58.9672 104.711L66.8296 100.142C67.1887 99.9593 67.5857 99.8639 67.9886 99.8633C68.3914 99.8627 68.7887 99.9571 69.1483 100.139L117.103 127.826C117.242 127.874 117.364 127.964 117.45 128.084C117.535 128.205 117.582 128.349 117.582 128.496C117.582 128.644 117.536 128.788 117.451 128.909C117.365 129.029 117.244 129.12 117.105 129.169L109.312 133.698C108.952 133.88 108.555 133.976 108.152 133.977C107.749 133.978 107.352 133.884 106.992 133.702L58.9699 106.053Z" fill="#1F56A3"/>
<path d="M58.9699 103.406C58.8301 103.358 58.7088 103.268 58.6228 103.148C58.5368 103.028 58.4904 102.884 58.4901 102.736C58.4898 102.589 58.5356 102.445 58.6211 102.324C58.7067 102.204 58.8276 102.113 58.9672 102.065L66.8296 97.4954C67.1887 97.3128 67.5857 97.2174 67.9886 97.2168C68.3914 97.2162 68.7887 97.3106 69.1483 97.4922L117.103 125.179C117.242 125.227 117.364 125.318 117.45 125.438C117.535 125.558 117.582 125.702 117.582 125.85C117.582 125.998 117.536 126.142 117.451 126.262C117.365 126.383 117.244 126.474 117.105 126.522L109.312 131.051C108.952 131.234 108.555 131.329 108.152 131.33C107.749 131.331 107.352 131.237 106.992 131.056L58.9699 103.406Z" fill="white"/>
<path d="M73.4759 102.274C73.5676 102.305 73.6472 102.363 73.7038 102.442C73.7605 102.52 73.7912 102.615 73.7917 102.711C73.7923 102.808 73.7626 102.903 73.7069 102.982C73.6512 103.061 73.5722 103.121 73.4809 103.153L69.1297 105.681C68.8956 105.8 68.6368 105.861 68.3745 105.86C68.1121 105.86 67.8537 105.796 67.6205 105.676L63.2407 103.148C62.8216 102.906 62.8109 102.516 63.2274 102.274L67.5786 99.745C67.8138 99.6257 68.0737 99.5635 68.3374 99.5635C68.6011 99.5635 68.8611 99.6256 69.0962 99.7449L73.4759 102.274Z" fill="#1B93EB"/>
<path d="M105.937 124.837C105.819 124.837 105.704 124.807 105.602 124.748L74.8038 106.966C74.7276 106.922 74.6608 106.864 74.6072 106.794C74.5537 106.724 74.5144 106.644 74.4916 106.559C74.4688 106.474 74.463 106.386 74.4745 106.298C74.486 106.211 74.5145 106.127 74.5585 106.051C74.6025 105.975 74.661 105.908 74.7308 105.854C74.8006 105.801 74.8803 105.761 74.9653 105.739C75.0503 105.716 75.1389 105.71 75.2261 105.722C75.3134 105.733 75.3975 105.762 75.4737 105.806L106.272 123.587C106.4 123.661 106.499 123.775 106.556 123.911C106.612 124.047 106.622 124.198 106.584 124.341C106.546 124.483 106.462 124.609 106.345 124.699C106.228 124.788 106.084 124.837 105.937 124.837H105.937Z" fill="#1B93EB"/>
</g>
<defs>
<linearGradient id="paint0_linear" x1="79.6785" y1="8.27832" x2="79.6785" y2="179.693" gradientUnits="userSpaceOnUse">
<stop stop-color="#00ABDE"/>
<stop offset="1" stop-color="#007ED8"/>
</linearGradient>
<clipPath id="clip0">
<rect width="159.356" height="188" fill="white"/>
</clipPath>
</defs>
</svg>
