<?xml version="1.0" encoding="UTF-8"?>
<svg width="107px" height="107px" viewBox="0 0 107 107" version="1.1" xmlns="http://www.w3.org/2000/svg" xmlns:xlink="http://www.w3.org/1999/xlink">
    <!-- Generator: Sketch 61 (89581) - https://sketch.com -->
    <title>NA/how-to-build-an-app-solution </title>
    <desc>Created with Sketch.</desc>
    <defs>
        <rect id="path-1" x="0" y="0" width="96" height="96" rx="48"></rect>
        <rect id="path-3" x="0" y="0" width="100" height="100" rx="50"></rect>
        <filter x="-5.9%" y="-9.8%" width="111.8%" height="119.5%" filterUnits="objectBoundingBox" id="filter-5">
            <feOffset dx="0" dy="2" in="SourceAlpha" result="shadowOffsetOuter1"></feOffset>
            <feColorMatrix values="0 0 0 0 0   0 0 0 0 0   0 0 0 0 0  0 0 0 0.0964956975 0" type="matrix" in="shadowOffsetOuter1" result="shadowMatrixOuter1"></feColorMatrix>
            <feMerge>
                <feMergeNode in="shadowMatrixOuter1"></feMergeNode>
                <feMergeNode in="SourceGraphic"></feMergeNode>
            </feMerge>
        </filter>
        <filter x="-7.8%" y="-8.0%" width="115.6%" height="116.0%" filterUnits="objectBoundingBox" id="filter-6">
            <feOffset dx="0" dy="2" in="SourceAlpha" result="shadowOffsetOuter1"></feOffset>
            <feColorMatrix values="0 0 0 0 0   0 0 0 0 0   0 0 0 0 0  0 0 0 0.099923514 0" type="matrix" in="shadowOffsetOuter1" result="shadowMatrixOuter1"></feColorMatrix>
            <feMerge>
                <feMergeNode in="shadowMatrixOuter1"></feMergeNode>
                <feMergeNode in="SourceGraphic"></feMergeNode>
            </feMerge>
        </filter>
        <linearGradient x1="78.4210223%" y1="-7.24023438%" x2="15.5786468%" y2="110.793945%" id="linearGradient-7">
            <stop stop-color="#FFFFFF" offset="0%"></stop>
            <stop stop-color="#000000" stop-opacity="0.5" offset="100%"></stop>
        </linearGradient>
        <rect id="path-8" x="-3" y="-3" width="106" height="106" rx="53"></rect>
        <filter x="-0.5%" y="-0.5%" width="101.9%" height="101.9%" filterUnits="objectBoundingBox" id="filter-9">
            <feOffset dx="1" dy="1" in="SourceAlpha" result="shadowOffsetOuter1"></feOffset>
            <feMorphology radius="4" operator="erode" in="SourceAlpha" result="shadowInner"></feMorphology>
            <feOffset dx="1" dy="1" in="shadowInner" result="shadowInner"></feOffset>
            <feComposite in="shadowOffsetOuter1" in2="shadowInner" operator="out" result="shadowOffsetOuter1"></feComposite>
            <feColorMatrix values="0 0 0 0 0   0 0 0 0 0   0 0 0 0 0  0 0 0 0.15 0" type="matrix" in="shadowOffsetOuter1"></feColorMatrix>
        </filter>
    </defs>
    <g id="Badges" stroke="none" stroke-width="1" fill="none" fill-rule="evenodd">
        <g id="N/A-73" transform="translate(-47.000000, -457.000000)">
            <g id="NA/how-to-build-an-app-solution-" transform="translate(50.000000, 460.000000)">
                <g id="Mask" transform="translate(2.000000, 2.000000)">
                    <mask id="mask-2" fill="white">
                        <use xlink:href="#path-1"></use>
                    </mask>
                    <use id="BG" fill="#55A2FF" xlink:href="#path-1"></use>
                    <g id="Circle-" mask="url(#mask-2)">
                        <g transform="translate(-2.000000, -2.000000)">
                            <mask id="mask-4" fill="white">
                                <use xlink:href="#path-3"></use>
                            </mask>
                            <g id="BG" stroke="none" fill="none"></g>
                            <g id="Color/Blue" stroke="none" fill="none" mask="url(#mask-4)" fill-rule="evenodd">
                                <rect id="Rectangle" fill="#55A2FF" x="0" y="0" width="100" height="100"></rect>
                            </g>
                        </g>
                    </g>
                    <g id="Laptop" filter="url(#filter-5)" mask="url(#mask-2)">
                        <g transform="translate(14.284538, 28.972983)">
                            <path d="M0,33.7911445 L0,35.9030911 C0,38.2262322 1.90075188,40.1269841 4.22389307,40.1269841 L63.358396,40.1269841 C65.6815372,40.1269841 67.5822891,38.2262322 67.5822891,35.9030911 L67.5822891,33.7911445 L0,33.7911445" id="Fill-1415" fill="#E1E4E1"></path>
                            <path d="M10.5597327,0 C8.23659148,0 6.3358396,1.90075188 6.3358396,4.22389307 L6.3358396,33.7911445 L61.2464495,33.7911445 L61.2464495,4.22389307 C61.2464495,1.90075188 59.3456976,0 57.0225564,0 L10.5597327,0 Z M57.0225564,2.11194653 C58.1862389,2.11194653 59.1345029,3.05915455 59.1345029,4.22389307 L59.1345029,31.679198 L8.44778613,31.679198 L8.44778613,4.22389307 C8.44778613,3.05915455 9.39499415,2.11194653 10.5597327,2.11194653 L57.0225564,2.11194653 L57.0225564,2.11194653 Z" id="Fill-1416" fill="#182A37"></path>
                            <path d="M8.44778613,4.22389307 C8.44778613,3.05915455 9.39499415,2.11194653 10.5597327,2.11194653 L57.0225564,2.11194653 C58.1862389,2.11194653 59.1345029,3.05915455 59.1345029,4.22389307 L59.1345029,31.679198 L8.44778613,31.679198 L8.44778613,4.22389307" id="Fill-1417" fill="#30404D"></path>
                            <path d="M10.5597327,2.11194653 L33.1459449,2.11194653 L22.8206383,31.679198 L8.44778613,31.679198 L8.44778613,4.22389307 C8.44778613,3.05915455 9.39499415,2.11194653 10.5597327,2.11194653" id="Fill-1418" fill="#384B58"></path>
                            <path d="M10.5597327,0 L33.7911445,0 L33.1459449,2.11194653 L10.5597327,2.11194653 C9.39499415,2.11194653 8.44778613,3.05915455 8.44778613,4.22389307 L8.44778613,31.679198 L22.8206383,31.679198 L22.1754386,33.7911445 L6.3358396,33.7911445 L6.3358396,4.22389307 C6.3358396,1.90075188 8.23659148,0 10.5597327,0" id="Fill-1419" fill="#30404D"></path>
                            <path d="M31.679198,38.0150376 L0.590289056,38.0150376 C1.32419048,39.2695338 2.67266834,40.1269841 4.22389307,40.1269841 L63.358396,40.1269841 C65.6815372,40.1269841 67.5822891,38.2262322 67.5822891,35.9030911 L67.5822891,33.7911445 L33.7911445,33.7911445 L33.7911445,35.9030911 C33.7911445,37.0699415 32.8460485,38.0150376 31.679198,38.0150376" id="Fill-1420" fill="#CDD6D8"></path>
                            <path d="M29.5672515,35.9030911 L38.0150376,35.9030911 C39.1808321,35.9030911 40.1269841,34.956939 40.1269841,33.7911445 L27.4553049,33.7911445 C27.4553049,34.956939 28.400401,35.9030911 29.5672515,35.9030911" id="Fill-1421" fill="#AAB0B1"></path>
                        </g>
                    </g>
                    <g id="Group-2" filter="url(#filter-6)" mask="url(#mask-2)">
                        <g transform="translate(27.989243, 22.732152)">
                            <g id="Group-11" transform="translate(0.000000, -0.000000)">
                                <path d="M9.22692308,0.692307692 C9.18769231,0.3 8.85692308,0 8.46153846,0 L3.84615385,0 C3.45076923,0 3.12,0.3 3.08076923,0.692307692 L1.54230769,8.38461538 C1.51076923,8.7 1.67846154,9.00769231 1.96384615,9.14615385 L3.84615385,10.0923077 L3.84615385,26.1538462 L8.46153846,26.1538462 L8.46153846,10.0923077 L10.3438462,9.14615385 C10.6292308,9.00769231 10.7969231,8.7 10.7653846,8.38461538 L9.22692308,0.692307692" id="Fill-446" fill="#ADBDC4"></path>
                                <path d="M10.7692308,29.2307692 L10.7692308,27.6923077 C10.7692308,26.8461538 10.0807692,26.1538462 9.23076923,26.1538462 L3.07692308,26.1538462 C2.22692308,26.1538462 1.53846154,26.8461538 1.53846154,27.6923077 L1.53846154,29.2307692 C0.688461538,29.2307692 0,29.9230769 0,30.7692308 L0,47.6923077 C0,48.5384615 0.688461538,49.2307692 1.53846154,49.2307692 L10.7692308,49.2307692 C11.6192308,49.2307692 12.3076923,48.5384615 12.3076923,47.6923077 L12.3076923,30.7692308 C12.3076923,29.9230769 11.6192308,29.2307692 10.7692308,29.2307692" id="Fill-447" fill="#DF5142"></path>
                                <path d="M10.7692308,29.2307692 L10.7692308,27.6923077 L6.15384615,27.6923077 L6.15384615,46.1538462 C6.15384615,47 5.46538462,47.6923077 4.61538462,47.6923077 L0,47.6923077 C0,48.5384615 0.688461538,49.2307692 1.53846154,49.2307692 L10.7692308,49.2307692 C11.6192308,49.2307692 12.3076923,48.5384615 12.3076923,47.6923077 L12.3076923,30.7692308 C12.3076923,29.9230769 11.6192308,29.2307692 10.7692308,29.2307692" id="Fill-448" fill="#C2423D"></path>
                                <path d="M3.46153846,44.6153846 L3.46153846,44.6153846 C2.82461538,44.6153846 2.30769231,44.1 2.30769231,43.4615385 L2.30769231,33.4615385 C2.30769231,32.8230769 2.82461538,32.3076923 3.46153846,32.3076923 C4.09846154,32.3076923 4.61538462,32.8230769 4.61538462,33.4615385 L4.61538462,43.4615385 C4.61538462,44.1 4.09846154,44.6153846 3.46153846,44.6153846" id="Fill-449" fill="#C2423D"></path>
                                <path d="M8.84615385,44.6153846 L8.84615385,44.6153846 C8.20923077,44.6153846 7.69230769,44.1 7.69230769,43.4615385 L7.69230769,33.4615385 C7.69230769,32.8230769 8.20923077,32.3076923 8.84615385,32.3076923 C9.48307692,32.3076923 10,32.8230769 10,33.4615385 L10,43.4615385 C10,44.1 9.48307692,44.6153846 8.84615385,44.6153846" id="Fill-450" fill="#AB3B37"></path>
                                <path d="M6.15384615,26.1538462 L8.46153846,26.1538462 L8.46153846,10.0923077 L10.3438462,9.14615385 C10.6292308,9.00769231 10.7969231,8.7 10.7653846,8.38461538 L9.39615385,1.53846154 L6.15384615,1.53846154 L6.15384615,26.1538462" id="Fill-451" fill="#8BA6B1"></path>
                            </g>
                            <g id="Group-3" transform="translate(16.923077, -0.000000)">
                                <path d="M17.6923077,0 L13.0769231,0 C12.6523077,0 12.3076923,0.346153846 12.3076923,0.769230769 L12.3076923,46.1538462 C12.3076923,48.0769231 13.4576923,49.2307692 15.3846154,49.2307692 C17.3115385,49.2307692 18.4615385,48.0769231 18.4615385,46.1538462 L18.4615385,0.769230769 C18.4615385,0.346153846 18.1169231,0 17.6923077,0" id="Fill-470" fill="#84522D"></path>
                                <path d="M22.3069231,4.75384615 L22.3069231,3.84615385 C22.3069231,3.42307692 21.9630769,3.07692308 21.5376923,3.07692308 L9.23076923,3.07692308 C8.80615385,3.07692308 8.46153846,3.42307692 8.46153846,3.84615385 L8.46153846,4.61538462 L6.15384615,3.07692308 L0.769230769,3.07692308 C0.344615385,3.07692308 0,3.42307692 0,3.84615385 L0,13.0769231 C0,13.5 0.344615385,13.8461538 0.769230769,13.8461538 L6.15384615,13.8461538 L8.46153846,12.3076923 L8.46153846,13.0769231 C8.46153846,13.5 8.80615385,13.8461538 9.23076923,13.8461538 L21.5376923,13.8461538 C21.9630769,13.8461538 22.3069231,13.5 22.3069231,13.0769231 L22.3069231,12.4461538 C25.76,13.0461538 28.9292308,15.6615385 30.8192308,19.5692308 C30.9492308,19.8384615 31.2207692,20 31.5107692,20 C31.5630769,20 31.6169231,19.9923077 31.6692308,19.9846154 C32.0153846,19.9076923 32.2661538,19.6153846 32.28,19.2615385 L32.2915385,19.0384615 C32.2992308,18.8846154 32.3076923,18.7307692 32.3076923,18.5692308 C32.3076923,11.5076923 27.9430769,5.66923077 22.3069231,4.75384615" id="Fill-471" fill="#ADBDC4"></path>
                                <path d="M12.3076923,13.8461538 L12.3076923,16.1538462 L14.6153846,16.1538462 C15.04,16.1538462 15.3846154,16.5 15.3846154,16.9230769 L15.3846154,49.2307692 C17.3115385,49.2307692 18.4615385,48.0769231 18.4615385,46.1538462 L18.4615385,13.8461538 L12.3076923,13.8461538" id="Fill-472" fill="#6D4526"></path>
                                <path d="M23.8461538,7.64615385 L23.8461538,5.14615385 C23.3446154,4.98461538 22.8338462,4.83846154 22.3076923,4.75384615 L22.3076923,8.46153846 C21.0253846,8.46153846 20.7907692,8.46153846 20,8.46153846 L8.46153846,8.46153846 L8.46153846,4.61538462 L6.15384615,3.07692308 L6.15384615,6.92307692 C6.15384615,7.76923077 5.46538462,8.46153846 4.61538462,8.46153846 L0,8.46153846 L0,13.0769231 C0,13.5 0.344615385,13.8461538 0.769230769,13.8461538 L6.15384615,13.8461538 L8.46153846,12.3076923 L8.46153846,13.0769231 C8.46153846,13.5 8.80615385,13.8461538 9.23076923,13.8461538 L21.5376923,13.8461538 C21.9623077,13.8461538 22.3069231,13.5 22.3069231,13.0769231 L22.3069231,12.4461538 C25.76,13.0461538 28.9292308,15.6615385 30.8192308,19.5692308 C30.9492308,19.8384615 31.2207692,20 31.5107692,20 C31.52,20 31.5292308,20 31.5384615,20 C31.5369231,15.4769231 28.9346154,11.5769231 25.1492308,9.68461538 C24.3669231,9.29230769 23.8461538,8.52307692 23.8461538,7.64615385" id="Fill-473" fill="#8BA6B1"></path>
                            </g>
                        </g>
                    </g>
                </g>
                <g id="Azure-Border">
                    <path d="M50,0 C74.5263677,-4.50542066e-15 94.9281966,17.6592499 99.1842495,40.9565123 L94.2027317,73.3905473 C85.8096395,89.2186645 69.1638777,100 50,100 C30.9551233,100 14.3971863,89.3521454 5.95457608,73.6848234 L0.0261464987,48.3675131 C0.887696267,21.508872 22.932015,4.97230817e-15 50,0 Z" id="Combined-Shape" fill="url(#linearGradient-7)" fill-rule="evenodd" opacity="0.400000006" style="mix-blend-mode: overlay;"></path>
                    <g>
                        <use fill="black" fill-opacity="1" filter="url(#filter-9)" xlink:href="#path-8"></use>
                        <rect stroke="#F2F1F0" stroke-width="4" stroke-linejoin="square" x="-1" y="-1" width="102" height="102" rx="51"></rect>
                    </g>
                    <rect stroke="#0078D4" stroke-width="4" x="2" y="2" width="96" height="96" rx="48"></rect>
                </g>
            </g>
        </g>
    </g>
</svg>