<svg width="103" height="103" viewBox="0 0 103 103" fill="none" xmlns="http://www.w3.org/2000/svg">
<path d="M51.1354 98.7308C25.2854 98.7308 4.32544 77.7808 4.32544 51.9208C4.32544 26.0608 25.2854 5.11084 51.1354 5.11084C76.9854 5.11084 97.9454 26.0708 97.9454 51.9208C97.9454 77.7708 76.9854 98.7308 51.1354 98.7308Z" fill="url(#paint0_linear)"/>
<path fill-rule="evenodd" clip-rule="evenodd" d="M97.0356 51.921C97.0356 77.271 76.4856 97.821 51.1356 97.821C25.7856 97.821 5.23561 77.271 5.23561 51.921C5.23561 26.571 25.7856 6.02101 51.1356 6.02101C76.4856 6.02101 97.0356 26.571 97.0356 51.921ZM51.1356 2.28101C78.5556 2.28101 100.776 24.501 100.776 51.921C100.776 79.341 78.5456 101.561 51.1356 101.561C23.7156 101.561 1.49561 79.331 1.49561 51.921C1.49561 24.501 23.7156 2.28101 51.1356 2.28101Z" fill="#F2F1F0"/>
<path fill-rule="evenodd" clip-rule="evenodd" d="M94.2254 51.9208C94.2254 75.7208 74.9354 95.0108 51.1354 95.0108C27.3354 95.0108 8.04542 75.7208 8.04542 51.9208C8.04542 28.1208 27.3354 8.83082 51.1354 8.83082C74.9354 8.83082 94.2254 28.1208 94.2254 51.9208ZM51.1354 5.09082C76.9954 5.09082 97.9654 26.0608 97.9654 51.9208C97.9654 77.7808 76.9954 98.7508 51.1354 98.7508C25.2754 98.7508 4.30542 77.7808 4.30542 51.9208C4.30542 26.0608 25.2654 5.09082 51.1354 5.09082Z" fill="url(#paint1_linear)"/>
<path opacity="0.15" d="M85.2354 32.1309H66.7354V42.9609C66.7354 43.2909 67.0054 43.5509 67.3254 43.5509H84.6354C84.9654 43.5509 85.2253 43.2809 85.2253 42.9609V32.1309H85.2354Z" fill="#1F1D20"/>
<path opacity="0.15" d="M85.6555 49.3208H67.1555V60.1508C67.1555 60.4808 67.4255 60.7408 67.7455 60.7408H85.0555C85.3855 60.7408 85.6455 60.4708 85.6455 60.1508V49.3208H85.6555Z" fill="#1F1D20"/>
<path d="M70.7755 34.6709H62.3855V36.1709H70.7755V34.6709Z" fill="#78787D"/>
<path d="M85.2354 31.1909H66.7354V42.0209C66.7354 42.3509 67.0054 42.6109 67.3254 42.6109H84.6354C84.9654 42.6109 85.2253 42.3409 85.2253 42.0209V31.1909H85.2354Z" fill="#45CAF2"/>
<path d="M84.6054 29.5908H67.3654C67.0154 29.5908 66.7354 29.8708 66.7354 30.2208V31.5708H85.2354V30.2208C85.2354 29.8708 84.9554 29.5908 84.6054 29.5908Z" fill="white"/>
<path d="M85.6555 48.3809H67.1555V59.2109C67.1555 59.5409 67.4255 59.8009 67.7455 59.8009H85.0555C85.3855 59.8009 85.6455 59.5309 85.6455 59.2109V48.3809H85.6555Z" fill="#45CAF2"/>
<path d="M85.0255 46.7808H67.7955C67.4455 46.7808 67.1655 47.0608 67.1655 47.4108V48.7608H85.6655V47.4108C85.6555 47.0608 85.3755 46.7808 85.0255 46.7808Z" fill="white"/>
<path opacity="0.15" d="M71.0756 53.481L65.2156 50.101V52.681H63.1856V35.981C63.1856 35.571 62.8456 35.231 62.4356 35.231H55.2856V36.731H61.6856V53.421C61.6856 53.831 62.0256 54.171 62.4356 54.171H65.2156V56.851L71.0756 53.481Z" fill="#1F1D20"/>
<path d="M71.0756 52.9109L65.2156 49.5309V52.1109H63.1856V35.4209C63.1856 35.0109 62.8456 34.6709 62.4356 34.6709H55.2856V36.1709H61.6856V52.8609C61.6856 53.2709 62.0256 53.6109 62.4356 53.6109H65.2156V56.2909L71.0756 52.9109Z" fill="white"/>
<path opacity="0.15" d="M58.6055 32.1309H40.1055V42.9609C40.1055 43.2909 40.3755 43.5509 40.6955 43.5509H58.0055C58.3355 43.5509 58.5955 43.2809 58.5955 42.9609V32.1309H58.6055Z" fill="#1F1D20"/>
<path opacity="0.15" d="M58.6055 48.7808H40.1055V64.1208C40.1055 64.6608 40.5355 65.0908 41.0755 65.0908H57.6355C58.1755 65.0908 58.6055 64.6608 58.6055 64.1208V48.7808Z" fill="#1F1D20"/>
<path d="M43.7555 50.061H35.9055V51.561H43.7555V50.061Z" fill="#78787D"/>
<path d="M58.6055 31.1909H40.1055V42.0209C40.1055 42.3509 40.3755 42.6109 40.6955 42.6109H58.0055C58.3355 42.6109 58.5955 42.3409 58.5955 42.0209V31.1909H58.6055Z" fill="#50E6FF"/>
<path d="M57.9755 29.5908H40.7355C40.3855 29.5908 40.1055 29.8708 40.1055 30.2208V31.5708H58.6055V30.2208C58.6055 29.8708 58.3255 29.5908 57.9755 29.5908Z" fill="white"/>
<path d="M58.6055 47.8408H40.1055V63.1808C40.1055 63.7208 40.5355 64.1508 41.0755 64.1508H57.6355C58.1755 64.1508 58.6055 63.7208 58.6055 63.1808V47.8408Z" fill="#50E6FF"/>
<path d="M57.7155 46.2407H40.9955C40.5055 46.2407 40.1055 46.6407 40.1055 47.1307V48.2307H58.6055V47.1307C58.6055 46.6307 58.2055 46.2407 57.7155 46.2407Z" fill="white"/>
<path opacity="0.15" d="M81.7656 68.6408C86.1956 68.6408 89.7856 65.0508 89.7856 60.6208C89.7856 56.1908 86.1956 52.6008 81.7656 52.6008C77.3356 52.6008 73.7456 56.1908 73.7456 60.6208C73.7456 65.0508 77.3456 68.6408 81.7656 68.6408Z" fill="#1F1D20"/>
<path d="M81.7656 67.9809C86.1956 67.9809 89.7856 64.3909 89.7856 59.9609C89.7856 55.5309 86.1956 51.9409 81.7656 51.9409C77.3356 51.9409 73.7456 55.5309 73.7456 59.9609C73.7456 64.3909 77.3456 67.9809 81.7656 67.9809Z" fill="#002D4C"/>
<path d="M86.1256 55.8809L79.5156 62.5109L77.5356 60.5209L76.2156 61.8509L79.5156 65.1609L87.4556 57.2009L86.1256 55.8809Z" fill="#FAF9F8"/>
<path opacity="0.15" d="M44.1955 36.1407L38.3355 32.7607V35.5207H35.4755C35.0655 35.5207 34.7255 35.8607 34.7255 36.2707V50.8907L25.8955 50.9107V52.4107H33.7655L35.4955 52.3707C35.9055 52.3607 36.2255 52.0307 36.2255 51.6207V37.0207H38.3355V39.5207L44.1955 36.1407Z" fill="#1F1D20"/>
<path d="M43.3454 73.5009H34.7354V35.4209H36.2354V72.0009H43.3454V73.5009Z" fill="#78787D"/>
<path d="M44.1955 35.2911L38.3355 31.9111V34.6711H35.4755C35.0655 34.6711 34.7255 35.0111 34.7255 35.4211V50.0411L25.8955 50.0611V51.5611H33.7655L35.4955 51.5211C35.9055 51.5111 36.2255 51.1811 36.2255 50.7711V36.1711H38.3355V38.6711L44.1955 35.2911Z" fill="white"/>
<path opacity="0.15" d="M30.7754 47.0107H12.2754V57.8407C12.2754 58.1707 12.5454 58.4307 12.8654 58.4307H30.1754C30.5054 58.4307 30.7654 58.1607 30.7654 57.8407V47.0107H30.7754Z" fill="#1F1D20"/>
<path d="M30.7754 46.0708H12.2754V56.9008C12.2754 57.2308 12.5454 57.4908 12.8654 57.4908H30.1754C30.5054 57.4908 30.7654 57.2208 30.7654 56.9008V46.0708H30.7754Z" fill="#9CEBFF"/>
<path d="M30.1354 44.4707H12.9054C12.5554 44.4707 12.2754 44.7507 12.2754 45.1007V46.4507H30.7754V45.1007C30.7654 44.7507 30.4854 44.4707 30.1354 44.4707Z" fill="white"/>
<path d="M24.0255 49.2209C24.0255 48.9409 23.7955 48.7109 23.5155 48.7109H17.4055C17.1255 48.7109 16.8955 48.9409 16.8955 49.2209C16.8955 49.5009 17.1255 49.7309 17.4055 49.7309H23.5155C23.8055 49.7309 24.0255 49.5009 24.0255 49.2209Z" fill="url(#paint2_linear)"/>
<path d="M25.7554 49.2209C25.7554 48.9409 25.5254 48.7109 25.2454 48.7109H23.5854C23.3054 48.7109 23.4854 48.9409 23.4854 49.2209C23.4854 49.5009 23.3054 49.7309 23.5854 49.7309H25.2554C25.5254 49.7309 25.7554 49.5009 25.7554 49.2209Z" fill="white"/>
<path d="M22.7656 49.2209C22.7656 49.7809 23.2156 50.2309 23.7756 50.2309C24.3356 50.2309 24.7856 49.7809 24.7856 49.2209C24.7856 48.6609 24.3256 48.2109 23.7656 48.2109C23.2156 48.2209 22.7656 48.6609 22.7656 49.2209Z" fill="#50E6FF"/>
<path d="M22.1455 51.781C22.1455 51.501 21.9155 51.271 21.6355 51.271H17.4055C17.1255 51.271 16.8955 51.501 16.8955 51.781C16.8955 52.061 17.1255 52.291 17.4055 52.291H21.6455C21.9255 52.281 22.1455 52.061 22.1455 51.781Z" fill="url(#paint3_linear)"/>
<path d="M25.7556 51.781C25.7556 51.501 25.5256 51.271 25.2456 51.271H21.9556C21.6756 51.271 21.4456 51.501 21.4456 51.781C21.4456 52.061 21.6756 52.291 21.9556 52.291H25.2556C25.5256 52.281 25.7556 52.061 25.7556 51.781Z" fill="white"/>
<path d="M20.5554 51.781C20.5554 52.341 21.0054 52.791 21.5654 52.791C22.1254 52.791 22.5754 52.341 22.5754 51.781C22.5754 51.221 22.1254 50.771 21.5654 50.771C21.0054 50.771 20.5554 51.221 20.5554 51.781Z" fill="#35AFE4"/>
<path d="M19.7955 54.491C19.7955 54.211 19.5655 53.981 19.2855 53.981H17.4055C17.1255 53.991 16.8955 54.211 16.8955 54.491C16.8955 54.771 17.1255 55.001 17.4055 55.001H19.2855C19.5655 54.991 19.7955 54.771 19.7955 54.491Z" fill="url(#paint4_linear)"/>
<path d="M25.7554 54.491C25.7554 54.211 25.5254 53.981 25.2454 53.981H19.7854C19.5054 53.981 19.2754 54.211 19.2754 54.491C19.2754 54.771 19.5054 55.001 19.7854 55.001H25.2454C25.5254 54.991 25.7554 54.771 25.7554 54.491Z" fill="white"/>
<path d="M18.4656 54.491C18.4656 55.051 18.9156 55.501 19.4756 55.501C20.0356 55.501 20.4856 55.051 20.4856 54.491C20.4856 53.931 20.0356 53.481 19.4756 53.481C18.9156 53.481 18.4656 53.931 18.4656 54.491Z" fill="#2E76BC"/>
<path opacity="0.15" d="M58.6055 69.6011H40.1055V80.4311C40.1055 80.7611 40.3755 81.0211 40.6955 81.0211H58.0055C58.3355 81.0211 58.5955 80.7511 58.5955 80.4311V69.6011H58.6055Z" fill="#1F1D20"/>
<path d="M58.6055 68.6611H40.1055V79.4911C40.1055 79.8211 40.3755 80.0811 40.6955 80.0811H58.0055C58.3355 80.0811 58.5955 79.8111 58.5955 79.4911V68.6611H58.6055Z" fill="#50E6FF"/>
<path d="M57.9755 67.061H40.7355C40.3855 67.061 40.1055 67.341 40.1055 67.691V69.041H58.6055V67.691C58.6055 67.341 58.3255 67.061 57.9755 67.061Z" fill="white"/>
<defs>
<linearGradient id="paint0_linear" x1="49.3655" y1="-12.8687" x2="53.3475" y2="132.901" gradientUnits="userSpaceOnUse">
<stop stop-color="#00ABDE"/>
<stop offset="1" stop-color="#007ED8"/>
</linearGradient>
<linearGradient id="paint1_linear" x1="2.56812" y1="-19.7037" x2="98.0951" y2="121.178" gradientUnits="userSpaceOnUse">
<stop stop-color="#007ED8"/>
<stop offset="0.7065" stop-color="#002D4C"/>
</linearGradient>
<linearGradient id="paint2_linear" x1="20.26" y1="48.6494" x2="24.4379" y2="60.4292" gradientUnits="userSpaceOnUse">
<stop stop-color="#15548F"/>
<stop offset="0.4179" stop-color="#243A5E"/>
<stop offset="0.9677" stop-color="#1A2C45"/>
</linearGradient>
<linearGradient id="paint3_linear" x1="18.8251" y1="49.8058" x2="22.1452" y2="59.1671" gradientUnits="userSpaceOnUse">
<stop stop-color="#15548F"/>
<stop offset="0.4179" stop-color="#243A5E"/>
<stop offset="0.9677" stop-color="#1A2C45"/>
</linearGradient>
<linearGradient id="paint4_linear" x1="17.4899" y1="52.0685" x2="19.7326" y2="58.3917" gradientUnits="userSpaceOnUse">
<stop stop-color="#15548F"/>
<stop offset="0.4179" stop-color="#243A5E"/>
<stop offset="0.9677" stop-color="#1A2C45"/>
</linearGradient>
</defs>
</svg>
