<svg width="103" height="103" viewBox="0 0 103 103" fill="none" xmlns="http://www.w3.org/2000/svg">
<path d="M51.4765 97.8376C25.6265 97.8376 4.6665 76.8876 4.6665 51.0276C4.6665 25.1676 25.6265 4.21759 51.4765 4.21759C77.3265 4.21759 98.2865 25.1776 98.2865 51.0276C98.2865 76.8776 77.3265 97.8376 51.4765 97.8376Z" fill="url(#paint0_linear_45_5490)"/>
<path fill-rule="evenodd" clip-rule="evenodd" d="M97.3764 51.0276C97.3764 76.3776 76.8264 96.9276 51.4764 96.9276C26.1264 96.9276 5.57643 76.3776 5.57643 51.0276C5.57643 25.6776 26.1264 5.12759 51.4764 5.12759C76.8264 5.12759 97.3764 25.6776 97.3764 51.0276ZM51.4764 1.38759C78.8964 1.38759 101.116 23.6076 101.116 51.0276C101.116 78.4476 78.8864 100.668 51.4764 100.668C24.0564 100.668 1.83643 78.4376 1.83643 51.0276C1.83643 23.6076 24.0564 1.38759 51.4764 1.38759Z" fill="#F2F1F0"/>
<path fill-rule="evenodd" clip-rule="evenodd" d="M94.5665 51.0276C94.5665 74.8276 75.2765 94.1176 51.4765 94.1176C27.6765 94.1176 8.38648 74.8276 8.38648 51.0276C8.38648 27.2276 27.6765 7.93759 51.4765 7.93759C75.2765 7.93759 94.5665 27.2276 94.5665 51.0276ZM51.4765 4.19759C77.3365 4.19759 98.3065 25.1676 98.3065 51.0276C98.3065 76.8876 77.3365 97.8576 51.4765 97.8576C25.6165 97.8576 4.64648 76.8876 4.64648 51.0276C4.64648 25.1676 25.6065 4.19759 51.4765 4.19759Z" fill="url(#paint1_linear_45_5490)"/>
<path opacity="0.15" d="M21.9122 74.8275H73.2043C74.641 74.8275 75.8084 73.6601 75.8084 72.2233V31.3208H19.3081V72.2233C19.3081 73.6601 20.4755 74.8275 21.9122 74.8275Z" fill="#1F1D20"/>
<path d="M20.3857 72.448H74.7308C75.3235 72.448 75.8084 71.9631 75.8084 71.3704V28.9413H19.3081V71.3704C19.3081 71.9631 19.793 72.448 20.3857 72.448Z" fill="white"/>
<path d="M19.3081 33.6375H75.8084V28.5729C75.8084 28.1149 75.4402 27.7468 74.9823 27.7468H20.1342C19.6763 27.7468 19.3081 28.1149 19.3081 28.5729V33.6375Z" fill="#092E4C"/>
<path d="M23.6545 32.2456C24.4447 32.2456 25.0913 31.608 25.0913 30.8088C25.0913 30.0096 24.4358 29.381 23.6545 29.381C22.8643 29.381 22.2178 30.0186 22.2178 30.8178C22.2178 31.617 22.8464 32.2456 23.6545 32.2456Z" fill="#32B0E7"/>
<path d="M53.5545 47.4324C54.3685 47.4324 55.0284 46.7725 55.0284 45.9584C55.0284 45.1444 54.3685 44.4845 53.5545 44.4845C52.7405 44.4845 52.0806 45.1444 52.0806 45.9584C52.0806 46.7725 52.7405 47.4324 53.5545 47.4324Z" fill="white"/>
<path d="M41.3118 47.4324C42.1258 47.4324 42.7857 46.7725 42.7857 45.9584C42.7857 45.1444 42.1258 44.4845 41.3118 44.4845C40.4978 44.4845 39.8379 45.1444 39.8379 45.9584C39.8379 46.7725 40.4978 47.4324 41.3118 47.4324Z" fill="white"/>
<path d="M53.5545 59.7274C54.3685 59.7274 55.0284 59.0675 55.0284 58.2535C55.0284 57.4394 54.3685 56.7796 53.5545 56.7796C52.7405 56.7796 52.0806 57.4394 52.0806 58.2535C52.0806 59.0675 52.7405 59.7274 53.5545 59.7274Z" fill="white"/>
<path d="M41.3118 59.7274C42.1258 59.7274 42.7857 59.0675 42.7857 58.2535C42.7857 57.4394 42.1258 56.7796 41.3118 56.7796C40.4978 56.7796 39.8379 57.4394 39.8379 58.2535C39.8379 59.0675 40.4978 59.7274 41.3118 59.7274Z" fill="white"/>
<path d="M38.7723 53.5668C39.5863 53.5668 40.2462 52.9069 40.2462 52.0929C40.2462 51.2789 39.5863 50.619 38.7723 50.619C37.9582 50.619 37.2983 51.2789 37.2983 52.0929C37.2983 52.9069 37.9582 53.5668 38.7723 53.5668Z" fill="white"/>
<path d="M56.1199 53.5668C56.9339 53.5668 57.5938 52.9069 57.5938 52.0929C57.5938 51.2789 56.9339 50.619 56.1199 50.619C55.3059 50.619 54.646 51.2789 54.646 52.0929C54.646 52.9069 55.3059 53.5668 56.1199 53.5668Z" fill="white"/>
<path d="M47.4798 44.8932C48.2938 44.8932 48.9537 44.2333 48.9537 43.4193C48.9537 42.6052 48.2938 41.9453 47.4798 41.9453C46.6658 41.9453 46.0059 42.6052 46.0059 43.4193C46.0059 44.2333 46.6658 44.8932 47.4798 44.8932Z" fill="white"/>
<path d="M47.4798 62.3189C48.2938 62.3189 48.9537 61.659 48.9537 60.8449C48.9537 60.0309 48.2938 59.371 47.4798 59.371C46.6658 59.371 46.0059 60.0309 46.0059 60.8449C46.0059 61.659 46.6658 62.3189 47.4798 62.3189Z" fill="white"/>
<path d="M58.7188 52.0817C58.7167 53.2526 59.1542 54.3816 59.9447 55.2453C60.7352 56.1091 61.8211 56.6446 62.9875 56.746C63.9004 53.7092 63.9004 50.4711 62.9875 47.4343C61.8231 47.5334 60.7384 48.0659 59.9479 48.9265C59.1574 49.7872 58.7188 50.9132 58.7188 52.0817Z" fill="white"/>
<path d="M36.1809 52.106C36.1856 50.9707 35.776 49.8727 35.0289 49.0178C34.2819 48.1629 33.2487 47.6098 32.123 47.4622C31.2175 50.4836 31.2175 53.7041 32.123 56.7255C33.2445 56.5784 34.2744 56.0288 35.0209 55.179C35.7674 54.3292 36.1797 53.2371 36.1809 52.106Z" fill="white"/>
<path d="M58.7375 45.5032C59.8333 45.5051 60.8945 45.1198 61.7339 44.4155C60.2221 41.6304 57.9255 39.3506 55.1292 37.8594C54.5606 38.5421 54.1988 39.373 54.0863 40.2544C53.9739 41.1358 54.1155 42.0309 54.4946 42.8345C54.8737 43.6381 55.4744 44.3167 56.226 44.7905C56.9777 45.2642 57.849 45.5135 58.7375 45.5088V45.5032Z" fill="white"/>
<path d="M47.42 40.8482C48.5837 40.8505 49.7061 40.4177 50.5671 39.6348C51.428 38.8519 51.9651 37.7754 52.0731 36.6168C49.0333 35.7289 45.7995 35.7549 42.7744 36.6914C42.902 37.8344 43.4463 38.8902 44.3034 39.6571C45.1604 40.4239 46.27 40.848 47.42 40.8482Z" fill="white"/>
<path d="M47.4203 63.5241C46.3028 63.5223 45.2218 63.9217 44.374 64.6496C43.5262 65.3776 42.968 66.3857 42.8008 67.4906C45.8109 68.4173 49.0263 68.4432 52.051 67.5652C51.8977 66.4458 51.3442 65.4198 50.4929 64.6769C49.6416 63.934 48.5501 63.5245 47.4203 63.5241Z" fill="white"/>
<path d="M40.9085 40.824C40.9099 39.763 40.5485 38.7334 39.8843 37.906C37.1062 39.4142 34.8309 41.7032 33.3394 44.4902C34.0271 45.0376 34.8556 45.3796 35.7293 45.4767C36.603 45.5737 37.4863 45.4219 38.2775 45.0387C39.0687 44.6555 39.7354 44.0566 40.2009 43.3109C40.6664 42.5652 40.9117 41.7031 40.9085 40.824Z" fill="white"/>
<path d="M54.064 63.3861C54.0629 64.457 54.4312 65.4955 55.1069 66.3264C57.9026 64.8439 60.2016 62.5734 61.719 59.7964C61.0369 59.2283 60.2068 58.8666 59.3263 58.7539C58.4458 58.6411 57.5514 58.7819 56.7481 59.1599C55.9449 59.5378 55.2662 60.1371 54.7917 60.8873C54.3172 61.6376 54.0667 62.5077 54.0696 63.3954L54.064 63.3861Z" fill="white"/>
<path d="M36.2351 58.7106C35.1897 58.7103 34.1746 59.0611 33.3525 59.7069C34.8514 62.4897 37.1317 64.7733 39.9124 66.2761C40.4553 65.5868 40.7932 64.7587 40.8874 63.8864C40.9817 63.0141 40.8286 62.1329 40.4455 61.3436C40.0624 60.5543 39.4649 59.8887 38.7213 59.4231C37.9777 58.9575 37.118 58.7105 36.2407 58.7106H36.2351Z" fill="white"/>
<path opacity="0.15" d="M89.5541 64.2715C89.9078 64.2715 90.1929 63.9864 90.1929 63.6328V42.5605H67.9336V63.6355C67.9336 63.9891 68.2187 64.2742 68.5723 64.2742H89.5541V64.2715Z" fill="#1F1D20"/>
<path d="M90.1901 42.7495V42.4041C90.1901 41.9765 89.8447 41.6311 89.4171 41.6311H68.7066C68.279 41.6311 67.9336 41.9765 67.9336 42.4041V42.7879V43.1388V62.9583C67.9336 63.3859 68.279 63.7313 68.7066 63.7313H89.4226C89.8502 63.7313 90.1956 63.3859 90.1956 62.9583V42.7879C90.1956 42.7742 90.1901 42.7632 90.1901 42.7495Z" fill="#092E4C"/>
<path opacity="0.15" d="M80.6857 52.1836H77.5894V55.2851H80.6908V52.1836H80.6857Z" fill="#1F1D20"/>
<path opacity="0.15" d="M83.7871 49.1179L82.6937 50.2113L86.2295 53.7471L82.6528 57.3237L83.7463 58.4171L88.4163 53.7471L83.7871 49.1179Z" fill="#1F1D20"/>
<path opacity="0.15" d="M74.3857 58.424L75.4792 57.3306L71.9434 53.7948L75.52 50.2182L74.4266 49.1248L69.7515 53.7948L74.3857 58.424Z" fill="#1F1D20"/>
<path d="M80.6666 51.4628H77.5703V54.5642H80.6718V51.4628H80.6666Z" fill="white"/>
<path d="M83.7681 48.3968L82.6747 49.4902L86.2104 53.0259L82.6338 56.6025L83.7272 57.696L88.3973 53.0259L83.7681 48.3968Z" fill="white"/>
<path d="M74.3667 57.7028L75.4601 56.6094L71.9244 53.0737L75.501 49.497L74.4076 48.4036L69.7324 53.0737L74.3667 57.7028Z" fill="white"/>
<defs>
<linearGradient id="paint0_linear_45_5490" x1="49.7026" y1="-13.7619" x2="53.6846" y2="132.008" gradientUnits="userSpaceOnUse">
<stop stop-color="#00ABDE"/>
<stop offset="1" stop-color="#007ED8"/>
</linearGradient>
<linearGradient id="paint1_linear_45_5490" x1="2.90688" y1="-20.595" x2="98.4344" y2="120.286" gradientUnits="userSpaceOnUse">
<stop stop-color="#007ED8"/>
<stop offset="0.7065" stop-color="#002D4C"/>
</linearGradient>
</defs>
</svg>
