<?xml version="1.0" encoding="UTF-8"?>
<svg width="100px" height="100px" viewBox="0 0 100 100" version="1.1" xmlns="http://www.w3.org/2000/svg" xmlns:xlink="http://www.w3.org/1999/xlink">
    <!-- Generator: Sketch 53.2 (72643) - https://sketchapp.com -->
    <title>Use basic formulas to make a better canvas app in PowerApps/author-a-basic-formula-to-change-properties-in-a-canvas-app-in-powerapps</title>
    <desc>Created with Sketch.</desc>
    <defs>
        <rect id="path-1" x="0" y="0" width="96" height="96" rx="48"></rect>
        <filter x="-5.3%" y="-3.1%" width="110.7%" height="106.9%" filterUnits="objectBoundingBox" id="filter-3">
            <feOffset dx="0" dy="2" in="SourceAlpha" result="shadowOffsetOuter1"></feOffset>
            <feColorMatrix values="0 0 0 0 0   0 0 0 0 0   0 0 0 0 0  0 0 0 0.1 0" type="matrix" in="shadowOffsetOuter1" result="shadowMatrixOuter1"></feColorMatrix>
            <feMerge>
                <feMergeNode in="shadowMatrixOuter1"></feMergeNode>
                <feMergeNode in="SourceGraphic"></feMergeNode>
            </feMerge>
        </filter>
        <path d="M66,14 L66,80.3157895 C66,82.3421053 65.115,84 64.0333333,84 L8.96666667,84 C7.885,84 7,82.3421053 7,80.3157895 L7,14 L66,14" id="path-4"></path>
        <filter x="-1.7%" y="-1.4%" width="103.4%" height="105.7%" filterUnits="objectBoundingBox" id="filter-5">
            <feOffset dx="0" dy="2" in="SourceAlpha" result="shadowOffsetOuter1"></feOffset>
            <feColorMatrix values="0 0 0 0 0   0 0 0 0 0   0 0 0 0 0  0 0 0 0.1 0" type="matrix" in="shadowOffsetOuter1"></feColorMatrix>
        </filter>
        <rect id="path-6" x="0" y="0" width="5.25" height="17" rx="2"></rect>
        <filter x="-19.0%" y="-5.9%" width="138.1%" height="123.5%" filterUnits="objectBoundingBox" id="filter-7">
            <feOffset dx="0" dy="2" in="SourceAlpha" result="shadowOffsetOuter1"></feOffset>
            <feColorMatrix values="0 0 0 0 0   0 0 0 0 0   0 0 0 0 0  0 0 0 0.1 0" type="matrix" in="shadowOffsetOuter1"></feColorMatrix>
        </filter>
        <rect id="path-8" x="39.75" y="0" width="5.25" height="17" rx="2"></rect>
        <filter x="-19.0%" y="-5.9%" width="138.1%" height="123.5%" filterUnits="objectBoundingBox" id="filter-9">
            <feOffset dx="0" dy="2" in="SourceAlpha" result="shadowOffsetOuter1"></feOffset>
            <feColorMatrix values="0 0 0 0 0   0 0 0 0 0   0 0 0 0 0  0 0 0 0.1 0" type="matrix" in="shadowOffsetOuter1"></feColorMatrix>
        </filter>
        <filter x="-33.3%" y="-6.7%" width="166.7%" height="115.0%" filterUnits="objectBoundingBox" id="filter-10">
            <feOffset dx="0" dy="2" in="SourceAlpha" result="shadowOffsetOuter1"></feOffset>
            <feColorMatrix values="0 0 0 0 0   0 0 0 0 0   0 0 0 0 0  0 0 0 0.1 0" type="matrix" in="shadowOffsetOuter1" result="shadowMatrixOuter1"></feColorMatrix>
            <feMerge>
                <feMergeNode in="shadowMatrixOuter1"></feMergeNode>
                <feMergeNode in="SourceGraphic"></feMergeNode>
            </feMerge>
        </filter>
    </defs>
    <g id="Badges" stroke="none" stroke-width="1" fill="none" fill-rule="evenodd">
        <g id="Use-basic-formulas-to-make-a-better-canvas-app-in-PowerApps" transform="translate(-50.000000, -660.000000)">
            <g id="Use-basic-formulas-to-make-a-better-canvas-app-in-PowerApps/author-a-basic-formula-to-change-properties-in-a-canvas-app-in-powerapps" transform="translate(50.000000, 660.000000)">
                <g id="Mask" transform="translate(2.000000, 2.000000)">
                    <mask id="mask-2" fill="white">
                        <use xlink:href="#path-1"></use>
                    </mask>
                    <use id="BG" fill="#965596" xlink:href="#path-1"></use>
                    <g id="canvas" filter="url(#filter-3)" mask="url(#mask-2)">
                        <g transform="translate(11.000000, 22.000000)">
                            <g id="Group-6" stroke-width="1" fill="none" fill-rule="evenodd" transform="translate(33.728650, 0.000000)">
                                <path d="M3,8 C1.344,8 0,6.80533333 0,5.33333333 L0,2.66666667 C0,1.19333333 1.344,0 3,0 C4.656,0 6,1.19333333 6,2.66666667 L6,5.33333333 C6,6.80533333 4.656,8 3,8" id="Fill-1018" fill="#EFB252"></path>
                                <path d="M3,2.87088895 L3,5.81818182 L6,5.81818182 L6,3.00722057 C6,2.8455903 5.985,2.68817647 5.958,2.53497908 C5.6625,0.897594159 3,1.21101634 3,2.87088895" id="Fill-1027" fill="#DD9D3F"></path>
                            </g>
                            <rect id="Rectangle" fill="#CB8E35" fill-rule="evenodd" x="33.72865" y="5" width="6" height="2"></rect>
                            <path d="M48.6,52.6666667 C48.6,53.4 47.9882813,54 47.240625,54 L-37.040625,54 C-37.7882813,54 -38.4,53.4 -38.4,52.6666667 L-38.4,47.3333333 C-38.4,46.6 -37.7882813,46 -37.040625,46 L47.240625,46 C47.9882813,46 48.6,46.6 48.6,47.3333333 L48.6,52.6666667" id="Fill-1019" fill="#EFB252" fill-rule="evenodd" transform="translate(5.100000, 50.000000) rotate(90.000000) translate(-5.100000, -50.000000) "></path>
                            <path d="M112.72865,52.6666667 C112.72865,53.4 112.116931,54 111.369275,54 L27.088025,54 C26.3403687,54 25.72865,53.4 25.72865,52.6666667 L25.72865,47.3333333 C25.72865,46.6 26.3403687,46 27.088025,46 L111.369275,46 C112.116931,46 112.72865,46.6 112.72865,47.3333333 L112.72865,52.6666667" id="Fill-1019" fill="#DD9D3F" fill-rule="evenodd" transform="translate(69.228650, 50.000000) rotate(90.000000) translate(-69.228650, -50.000000) "></path>
                            <g id="Group-5" stroke-width="1" fill="none" fill-rule="evenodd" transform="translate(0.728650, 6.000000)">
                                <path d="M72.27135,6.66666667 C72.27135,7.4 71.7651,8 71.14635,8 L1.39635003,8 C0.777600034,8 0.271350034,7.4 0.271350034,6.66666667 L0.271350034,1.33333333 C0.271350034,0.6 0.777600034,0 1.39635003,0 L71.14635,0 C71.7651,0 72.27135,0.6 72.27135,1.33333333 L72.27135,6.66666667" id="Fill-1019" fill="#EFB252"></path>
                                <path d="M1.39635003,8 L71.14635,8 C71.7651,8 72.27135,7.4 72.27135,6.66666667 L72.27135,1.33333333 C72.27135,0.6 71.7651,0 71.14635,0 L36.27135,0 L36.27135,2.66666667 C36.27135,3.40266667 35.76735,4 35.14635,4 L0.271350034,4 L0.271350034,6.66666667 C0.271350034,7.4 0.777600034,8 1.39635003,8" id="Fill-1026" fill="#DD9D3F"></path>
                            </g>
                            <g id="Fill-1017" fill="none">
                                <use fill="black" fill-opacity="1" filter="url(#filter-5)" xlink:href="#path-4"></use>
                                <use fill="#E1E4E1" fill-rule="evenodd" xlink:href="#path-4"></use>
                            </g>
                            <g id="Group-7" stroke-width="1" fill="none" fill-rule="evenodd" transform="translate(13.728650, 3.000000)">
                                <g id="Rectangle">
                                    <use fill="black" fill-opacity="1" filter="url(#filter-7)" xlink:href="#path-6"></use>
                                    <use fill="#742774" fill-rule="evenodd" xlink:href="#path-6"></use>
                                </g>
                                <g id="Rectangle">
                                    <use fill="black" fill-opacity="1" filter="url(#filter-9)" xlink:href="#path-8"></use>
                                    <use fill="#742774" fill-rule="evenodd" xlink:href="#path-8"></use>
                                </g>
                            </g>
                        </g>
                    </g>
                    <g id="Sliders" mask="url(#mask-2)">
                        <g transform="translate(31.000000, 50.000000)">
                            <path d="M33.6896672,31.6029629 C33.6896672,32.7503386 32.7509053,33.6891005 31.6035296,33.6891005 L2.39760373,33.6891005 C1.25022807,33.6891005 0.311466172,32.7503386 0.311466172,31.6029629 L0.311466172,2.39703707 C0.311466172,1.24966141 1.25022807,0.310899505 2.39760373,0.310899505 L31.6035296,0.310899505 C32.7509053,0.310899505 33.6896672,1.24966141 33.6896672,2.39703707 L33.6896672,31.6029629" id="Fill-81" fill="#30404D"></path>
                            <path d="M31.9637395,3.07668393 C31.9637395,3.64599285 31.5016917,4.10804068 30.9323827,4.10804068 C30.3625581,4.10804068 29.901026,3.64599285 29.901026,3.07668393 C29.901026,2.50685933 30.3625581,2.04532718 30.9323827,2.04532718 C31.5016917,2.04532718 31.9637395,2.50685933 31.9637395,3.07668393" id="Fill-242" fill="#445B67"></path>
                            <path d="M4.11710734,3.07668393 C4.11710734,3.64599285 3.65505952,4.10804068 3.0857506,4.10804068 C2.51592599,4.10804068 2.05439385,3.64599285 2.05439385,3.07668393 C2.05439385,2.50685933 2.51592599,2.04532718 3.0857506,2.04532718 C3.65505952,2.04532718 4.11710734,2.50685933 4.11710734,3.07668393" id="Fill-243" fill="#445B67"></path>
                            <path d="M31.9637395,30.9233161 C31.9637395,31.492625 31.5016917,31.9546728 30.9323827,31.9546728 C30.3625581,31.9546728 29.901026,31.492625 29.901026,30.9233161 C29.901026,30.3534915 30.3625581,29.8919593 30.9323827,29.8919593 C31.5016917,29.8919593 31.9637395,30.3534915 31.9637395,30.9233161" id="Fill-244" fill="#445B67"></path>
                            <path d="M4.11710734,30.9233161 C4.11710734,31.492625 3.65505952,31.9546728 3.0857506,31.9546728 C2.51592599,31.9546728 2.05439385,31.492625 2.05439385,30.9233161 C2.05439385,30.3534915 2.51592599,29.8919593 3.0857506,29.8919593 C3.65505952,29.8919593 4.11710734,30.3534915 4.11710734,30.9233161" id="Fill-245" fill="#445B67"></path>
                            <path d="M18.7119,13.6 L18.1395667,13.6 L18.1395667,11.3367333 C18.1395667,11.3356 18.1395667,11.3344667 18.1395667,11.3333333 C18.1395667,10.7077333 17.6324,10.2 17.0062333,10.2 C16.3806333,10.2 15.8740333,10.7071667 15.8729,11.3333333 L15.8729,13.6 L15.3062333,13.6 C14.6795,13.6 14.1729,14.1077333 14.1729,14.7333333 C14.1729,15.3595 14.6795,15.8666667 15.3062333,15.8666667 C15.3073667,15.8666667 15.3073667,15.8666667 15.3085,15.8666667 L15.8729,15.8666667 L15.8729,26.0666667 C15.8729,26.6928333 16.3806333,27.2 17.0062333,27.2 C17.6324,27.2 18.1395667,26.6928333 18.1395667,26.0666667 C18.1395667,26.0655333 18.1395667,26.0655333 18.1395667,26.0644 L18.1395667,15.8666667 L18.7085,15.8666667 C18.7096333,15.8666667 18.7107667,15.8666667 18.7119,15.8666667 C19.3369333,15.8666667 19.8452333,15.3595 19.8452333,14.7333333 C19.8452333,14.1077333 19.3380667,13.6011333 18.7119,13.6" id="Fill-82" fill="#C5CCCD"></path>
                            <path d="M9.6339,22.6666667 L9.06723333,22.6666667 L9.06723333,11.3367333 C9.06723333,11.3356 9.06723333,11.3344667 9.06723333,11.3333333 C9.06723333,10.7077333 8.56006667,10.2 7.9339,10.2 C7.3083,10.2 6.8017,10.7071667 6.80056667,11.3333333 L6.80056667,22.6666667 L6.22823333,22.6666667 C5.60206667,22.6666667 5.0949,23.1744 5.0949,23.8 C5.0949,24.4261667 5.60206667,24.9333333 6.22823333,24.9333333 C6.22936667,24.9333333 6.22936667,24.9333333 6.2305,24.9333333 L6.80056667,24.9333333 L6.80056667,26.0666667 C6.80056667,26.6928333 7.3083,27.2 7.9339,27.2 C8.56006667,27.2 9.06723333,26.6928333 9.06723333,26.0666667 C9.06723333,26.0655333 9.06723333,26.0655333 9.06723333,26.0644 L9.06723333,24.9333333 L9.6305,24.9333333 C9.63163333,24.9333333 9.63276667,24.9333333 9.6339,24.9333333 C10.2589333,24.9333333 10.7672333,24.4261667 10.7672333,23.8 C10.7672333,23.1744 10.2600667,22.6678 9.6339,22.6666667" id="Fill-83" fill="#C5CCCD"></path>
                            <path d="M27.7672333,18.7 L27.2062333,18.7 L27.2062333,11.3367333 C27.2062333,11.3356 27.2062333,11.3344667 27.2062333,11.3333333 C27.2062333,10.7077333 26.6990667,10.2 26.0729,10.2 C25.4473,10.2 24.9407,10.7071667 24.9395667,11.3333333 L24.9395667,18.7 L24.3615667,18.7 C23.7354,18.7 23.2282333,19.2077333 23.2282333,19.8333333 C23.2282333,20.4595 23.7354,20.9666667 24.3615667,20.9666667 C24.3627,20.9666667 24.3627,20.9666667 24.3638333,20.9666667 L24.9395667,20.9666667 L24.9395667,26.0666667 C24.9395667,26.6928333 25.4473,27.2 26.0729,27.2 C26.6990667,27.2 27.2062333,26.6928333 27.2062333,26.0666667 C27.2062333,26.0655333 27.2062333,26.0655333 27.2062333,26.0644 L27.2062333,20.9666667 L27.7638333,20.9666667 C27.7649667,20.9666667 27.7661,20.9666667 27.7672333,20.9666667 C28.3922667,20.9666667 28.9005667,20.4595 28.9005667,19.8333333 C28.9005667,19.2077333 28.3934,18.7011333 27.7672333,18.7" id="Fill-84" fill="#C5CCCD"></path>
                            <path d="M18.7062333,7.36666667 C18.7062333,8.30506667 17.9446333,9.06666667 17.0062333,9.06666667 C16.0672667,9.06666667 15.3062333,8.30506667 15.3062333,7.36666667 C15.3062333,6.42826667 16.0672667,5.66666667 17.0062333,5.66666667 C17.9446333,5.66666667 18.7062333,6.42826667 18.7062333,7.36666667" id="Fill-85" fill="#7CB65A"></path>
                            <path d="M27.7729,7.36666667 C27.7729,8.30506667 27.0113,9.06666667 26.0729,9.06666667 C25.1339333,9.06666667 24.3729,8.30506667 24.3729,7.36666667 C24.3729,6.42826667 25.1339333,5.66666667 26.0729,5.66666667 C27.0113,5.66666667 27.7729,6.42826667 27.7729,7.36666667" id="Fill-86" fill="#58B7DA"></path>
                            <path d="M9.6339,7.36666667 C9.6339,8.30506667 8.8723,9.06666667 7.9339,9.06666667 C6.9955,9.06666667 6.2339,8.30506667 6.2339,7.36666667 C6.2339,6.42826667 6.9955,5.66666667 7.9339,5.66666667 C8.8723,5.66666667 9.6339,6.42826667 9.6339,7.36666667" id="Fill-87" fill="#EFB152"></path>
                            <path d="M7.9339,6.23333333 C8.7754,6.23333333 9.47013333,6.84703333 9.605,7.65 C9.62086667,7.55763333 9.6339,7.46356667 9.6339,7.36666667 C9.6339,6.42826667 8.8723,5.66666667 7.9339,5.66666667 C6.9955,5.66666667 6.2339,6.42826667 6.2339,7.36666667 C6.2339,7.46356667 6.24693333,7.55763333 6.2628,7.65 C6.39766667,6.84703333 7.0924,6.23333333 7.9339,6.23333333" id="Fill-88" fill="#CC9547"></path>
                            <path d="M17.0005667,6.23333333 C17.8420667,6.23333333 18.5368,6.84703333 18.6716667,7.65 C18.6875333,7.55763333 18.7005667,7.46356667 18.7005667,7.36666667 C18.7005667,6.42826667 17.9389667,5.66666667 17.0005667,5.66666667 C16.0621667,5.66666667 15.3005667,6.42826667 15.3005667,7.36666667 C15.3005667,7.46356667 15.3136,7.55763333 15.3294667,7.65 C15.4643333,6.84703333 16.1590667,6.23333333 17.0005667,6.23333333" id="Fill-89" fill="#598844"></path>
                            <path d="M26.0672333,6.23333333 C26.9087333,6.23333333 27.6034667,6.84703333 27.7383333,7.65 C27.7542,7.55763333 27.7672333,7.46356667 27.7672333,7.36666667 C27.7672333,6.42826667 27.0056333,5.66666667 26.0672333,5.66666667 C25.1288333,5.66666667 24.3672333,6.42826667 24.3672333,7.36666667 C24.3672333,7.46356667 24.3802667,7.55763333 24.3961333,7.65 C24.531,6.84703333 25.2257333,6.23333333 26.0672333,6.23333333" id="Fill-90" fill="#0093BF"></path>
                            <polygon id="Fill-91" fill="#AAB0B1" points="6.80056667 25.5 9.06723333 25.5 9.06723333 24.9333333 6.80056667 24.9333333"></polygon>
                            <polygon id="Fill-92" fill="#AAB0B1" points="15.8672333 16.4333333 18.1339 16.4333333 18.1339 15.8666667 15.8672333 15.8666667"></polygon>
                            <polygon id="Fill-93" fill="#AAB0B1" points="15.8672333 13.6 18.1339 13.6 18.1339 13.0333333 15.8672333 13.0333333"></polygon>
                            <polygon id="Fill-94" fill="#AAB0B1" points="6.80056667 22.6666667 9.06723333 22.6666667 9.06723333 22.1 6.80056667 22.1"></polygon>
                            <polygon id="Fill-95" fill="#AAB0B1" points="24.9339 21.5333333 27.2005667 21.5333333 27.2005667 20.9666667 24.9339 20.9666667"></polygon>
                            <polygon id="Fill-96" fill="#AAB0B1" points="24.9339 18.7 27.2005667 18.7 27.2005667 18.1333333 24.9339 18.1333333"></polygon>
                        </g>
                    </g>
                    <g id="paint-brush" filter="url(#filter-10)" mask="url(#mask-2)">
                        <g transform="translate(80.879895, 85.838059) rotate(-40.000000) translate(-80.879895, -85.838059) translate(74.879895, 55.838059)">
                            <path d="M3.86599191,22.6578644 C3.86599191,22.6578644 8.29464228,22.6578644 8.29464228,22.6578644 C9.57377246,25.7218251 9.57377246,26.7236355 9.57377246,36.3562378 C9.57377246,42.2659647 9.26015847,49.3151682 8.6329305,57.5038482 L8.63294751,57.5038496 C8.53985527,58.7192012 7.52654377,59.6578644 6.30763202,59.6578644 L6.30763202,59.6578644 C5.09014718,59.6578644 4.07659884,58.723209 3.97815566,57.5097106 C1.86438079,30.0669877 2.39095949,25.4016608 3.86599191,22.6578644 Z" id="Rectangle" fill="#0078D7" fill-rule="evenodd"></path>
                            <path d="M5.55213017,23.6220458 C8.0720361,23.6220458 7.83550436,23.6220458 7.83550436,23.6220458 C9.22283912,26.6860065 9.22283912,27.6878169 9.22283912,37.3204192 C9.22283912,43.1552645 8.89126104,50.1008929 8.22810489,58.1573044 L8.22809164,58.1573033 C8.11344643,59.5500809 6.94961827,60.6220458 5.55213017,60.6220458 L5.55213017,60.6220458 C5.07005556,31.7634394 5.16406152,27.1973149 5.55213017,23.6220458 Z" id="Rectangle" fill="#005A9E" fill-rule="evenodd"></path>
                            <path d="M7.51812582,28.4143883 C8.65786199,25.526086 9.21231343,23.6221423 9.21231343,23.6221423 L7.24115008,22.6879582 L4.50138215,28.4284926 L7.51812411,28.4147661 L7.51812582,28.4143883 Z" id="Shape" fill="#005A9E" fill-rule="nonzero" transform="translate(6.856848, 25.558225) rotate(-25.000000) translate(-6.856848, -25.558225) "></path>
                            <polygon id="Shape" fill="#A9C5D3" fill-rule="nonzero" transform="translate(5.775393, 17.787868) rotate(-25.000000) translate(-5.775393, -17.787868) " points="5.68406792 23.2841758 2.09123877 21.5789669 7.37164451 12.2915595 9.45954647 13.2826481"></polygon>
                            <polygon id="Shape" fill="#92B3C5" fill-rule="nonzero" transform="translate(6.030854, 22.388659) rotate(-25.000000) translate(-6.030854, -22.388659) " points="8.25638706 23.8920789 3.45818251 21.616487 3.80758078 20.8852382 8.60352642 23.1612183"></polygon>
                            <path d="M8.43025406,1.17725374 C8.04371386,7.30119477 1.7395911,2.44823054 2.62013869,11.4714387 L4.68251712,12.4497959 C6.46684311,12.3555236 8.10444543,10.7636809 9.06607677,8.74528051 C10.2878378,6.18685979 10.4289017,2.93959469 8.43025406,1.17725374 Z" id="Shape" fill="#645252" fill-rule="nonzero" transform="translate(6.249452, 6.813525) rotate(-25.000000) translate(-6.249452, -6.813525) "></path>
                            <path d="M4.58366683,11.9965415 C4.58366683,11.9965415 5.53296247,9.29426007 4.59982505,8.33494808 C4.59982505,8.33494808 7.65100883,9.10815937 6.82148065,6.61461853 C6.82148065,6.61461853 10.1695747,6.86691333 8.33140206,0.72437719 C11.9444208,3.45691148 8.51745364,12.2571295 4.58366683,11.9965415 Z" id="Shape" fill="#000000" fill-rule="nonzero" opacity="0.55" transform="translate(7.221232, 6.363293) rotate(-25.000000) translate(-7.221232, -6.363293) "></path>
                        </g>
                    </g>
                </g>
                <g id="PowerApps-Border" stroke="#742774" stroke-width="4">
                    <rect id="Azure-Border" x="2" y="2" width="96" height="96" rx="48"></rect>
                </g>
            </g>
        </g>
    </g>
</svg>