<svg width="103" height="103" viewBox="0 0 103 103" fill="none" xmlns="http://www.w3.org/2000/svg">
<path d="M51.6166 98.6678C25.7666 98.6678 4.80664 77.7178 4.80664 51.8578C4.80664 25.9978 25.7666 5.04785 51.6166 5.04785C77.4666 5.04785 98.4266 26.0078 98.4266 51.8578C98.4266 77.7078 77.4666 98.6678 51.6166 98.6678Z" fill="url(#paint0_linear_59_147)"/>
<path fill-rule="evenodd" clip-rule="evenodd" d="M97.5166 51.8578C97.5166 77.2078 76.9666 97.7578 51.6166 97.7578C26.2666 97.7578 5.71656 77.2078 5.71656 51.8578C5.71656 26.5078 26.2666 5.95778 51.6166 5.95778C76.9666 5.95778 97.5166 26.5078 97.5166 51.8578ZM51.6166 2.21777C79.0366 2.21777 101.257 24.4378 101.257 51.8578C101.257 79.2778 79.0266 101.498 51.6166 101.498C24.1966 101.498 1.97656 79.2678 1.97656 51.8578C1.97656 24.4378 24.1966 2.21777 51.6166 2.21777Z" fill="#F2F1F0"/>
<path fill-rule="evenodd" clip-rule="evenodd" d="M94.7066 51.8573C94.7066 75.6573 75.4166 94.9473 51.6166 94.9473C27.8166 94.9473 8.52662 75.6573 8.52662 51.8573C8.52662 28.0573 27.8166 8.76735 51.6166 8.76735C75.4166 8.76735 94.7066 28.0573 94.7066 51.8573ZM51.6166 5.02734C77.4766 5.02734 98.4466 25.9973 98.4466 51.8573C98.4466 77.7173 77.4766 98.6874 51.6166 98.6874C25.7566 98.6874 4.78662 77.7173 4.78662 51.8573C4.78662 25.9973 25.7466 5.02734 51.6166 5.02734Z" fill="url(#paint1_linear_59_147)"/>
<path opacity="0.15" d="M86.8445 35.7656H44.2656V72.5291C44.2656 73.2742 44.8812 73.8898 45.6263 73.8898H85.4757C86.2208 73.8898 86.8364 73.2742 86.8364 72.5291L86.8445 35.7656Z" fill="#1F1D20"/>
<path d="M85.4028 30.4766H45.7154C44.9136 30.4766 44.2656 31.1164 44.2656 31.9264V34.1537V35.0285V70.9091C44.2656 71.6542 44.8812 72.2698 45.6263 72.2698H85.4757C86.2208 72.2698 86.8364 71.6542 86.8364 70.9091V35.0366H86.8445V31.9264C86.8445 31.1164 86.2046 30.4766 85.4028 30.4766Z" fill="url(#paint2_linear_59_147)"/>
<path d="M82.9424 39.2314H48.1602V42.6397H82.9424V39.2314Z" fill="#243A5E"/>
<path d="M82.9424 43.4199H48.1602V46.8282H82.9424V43.4199Z" fill="#0078D4"/>
<path d="M56.265 51.6719H48.1602V54.9182H56.265V51.6719Z" fill="#0078D4"/>
<path d="M65.2386 51.6719H57.1411V54.9182H65.2386V51.6719Z" fill="#0078D4"/>
<path d="M74.1675 51.6719H66.0186V54.9182H74.1675V51.6719Z" fill="#0078D4"/>
<path d="M82.95 51.6719H74.8525V54.9182H82.95V51.6719Z" fill="#0078D4"/>
<path d="M56.265 47.6377H48.1602V50.884H56.265V47.6377Z" fill="#0078D4"/>
<path d="M65.2386 47.6377H57.1411V50.884H65.2386V47.6377Z" fill="#0078D4"/>
<path d="M74.1675 47.6377H66.0186V50.884H74.1675V47.6377Z" fill="#0078D4"/>
<path d="M82.95 47.6377H74.8525V50.884H82.95V47.6377Z" fill="#0078D4"/>
<path d="M51.8997 59.792H48.1602V63.134H51.8997V59.792Z" fill="#50E6FF"/>
<path d="M56.2576 59.792H52.5181V63.134H56.2576V59.792Z" fill="#50E6FF"/>
<path d="M60.8436 59.792H57.104V63.134H60.8436V59.792Z" fill="#50E6FF"/>
<path d="M65.2093 59.792H61.4697V63.134H65.2093V59.792Z" fill="#50E6FF"/>
<path d="M69.7361 59.792H65.9966V63.134H69.7361V59.792Z" fill="#50E6FF"/>
<path d="M74.1236 59.792H70.3325V63.134H74.1236V59.792Z" fill="#50E6FF"/>
<path d="M78.533 59.792H74.7935V63.134H78.533V59.792Z" fill="#50E6FF"/>
<path d="M82.95 59.792H79.2104V63.134H82.95V59.792Z" fill="#50E6FF"/>
<path d="M56.265 55.7285H48.1602V58.9749H56.265V55.7285Z" fill="#50E6FF"/>
<path d="M65.2093 55.7285H57.1118V58.9749H65.2093V55.7285Z" fill="#50E6FF"/>
<path d="M74.1383 55.7285H65.9893V58.9749H74.1383V55.7285Z" fill="#50E6FF"/>
<path d="M82.9428 55.7285H74.8159V58.9749H82.9428V55.7285Z" fill="#50E6FF"/>
<path d="M30.468 50.7366L33.6864 46.1677L37.0484 40.5356C37.0484 40.5356 33.3846 37.0012 28.0399 36.8719C22.6952 36.7426 18.0401 39.2857 15.1953 42.5827C12.3505 45.8798 10.9282 50.3849 10.8851 54.2641C10.842 58.1433 11.8983 63.1858 14.2149 64.9536C16.701 66.8501 19.0096 66.5053 20.2814 66.1386C21.5532 65.7719 22.5981 64.9099 22.986 64.4576C23.3739 64.0053 23.8268 63.2295 23.8268 63.2295L27.7095 56.4836L30.468 50.7366Z" fill="url(#paint3_linear_59_147)"/>
<path d="M31.1229 51.2439L27.0495 57.4938L23.8599 63.011C23.8599 63.011 25.7345 64.7782 28.5149 65.7052C31.2954 66.6321 35.6631 67.5155 41.2877 64.4764C46.9123 61.4374 49.01 55.3278 49.441 53.7117C49.872 52.0956 50.2834 47.6559 49.6571 44.8969C49.1914 42.2824 48.4715 39.3263 45.756 37.839C43.0405 36.3517 40.6705 37.1971 40.0555 37.462C39.355 37.7637 38.1268 38.7442 37.782 39.2183C37.4372 39.6924 36.9631 40.3171 36.9631 40.3171L33.4718 46.5026L31.1229 51.2439Z" fill="url(#paint4_linear_59_147)"/>
<path d="M33.0179 50.0471L33.9661 45.7512C33.9661 45.7512 31.9403 44.4725 29.8857 44.1346C28.7455 43.9478 25.7192 43.7541 23.3916 45.8518C21.0641 47.9494 20.0871 50.1333 19.7997 53.2654C19.5124 56.3975 20.3987 58.2305 21.0928 59.5297C21.8355 60.9029 22.8744 61.9147 23.2767 62.4319C23.679 62.9491 23.995 63.1503 23.995 63.1503L27.8456 56.2826L33.0179 50.0471Z" fill="url(#paint5_linear_59_147)"/>
<path d="M29.7164 56.1505L27.0659 57.8528C27.0659 57.8528 28.7682 58.9091 30.6003 59.2539C32.4325 59.5987 35.3198 59.9217 38.2082 56.9694C41.0967 54.0172 41.2898 49.9219 41.1174 48.4564C40.945 46.9909 40.3984 44.7826 38.876 42.5731C37.7261 41.047 36.9364 40.3105 36.9364 40.3105L33.3158 46.711L32.8198 55.3103L29.7164 56.1505Z" fill="url(#paint6_linear_59_147)"/>
<path d="M30.591 58.8793C34.3919 58.8793 37.4731 55.7981 37.4731 51.9973C37.4731 48.1964 34.3919 45.1152 30.591 45.1152C26.7902 45.1152 23.709 48.1964 23.709 51.9973C23.709 55.7981 26.7902 58.8793 30.591 58.8793Z" fill="url(#paint7_linear_59_147)"/>
<defs>
<linearGradient id="paint0_linear_59_147" x1="49.8427" y1="-12.9316" x2="53.8247" y2="132.839" gradientUnits="userSpaceOnUse">
<stop stop-color="#00ABDE"/>
<stop offset="1" stop-color="#007ED8"/>
</linearGradient>
<linearGradient id="paint1_linear_59_147" x1="3.04702" y1="-19.7653" x2="98.5746" y2="121.116" gradientUnits="userSpaceOnUse">
<stop stop-color="#007ED8"/>
<stop offset="0.7065" stop-color="#002D4C"/>
</linearGradient>
<linearGradient id="paint2_linear_59_147" x1="65.861" y1="68.9641" x2="65.0791" y2="24.3933" gradientUnits="userSpaceOnUse">
<stop offset="0.3831" stop-color="#D2EBFF"/>
<stop offset="1" stop-color="#F0FFFD"/>
</linearGradient>
<linearGradient id="paint3_linear_59_147" x1="17.039" y1="40.6465" x2="27.5773" y2="55.7112" gradientUnits="userSpaceOnUse">
<stop offset="0.21" stop-color="#098C4B"/>
<stop offset="0.48" stop-color="#0C7544"/>
<stop offset="0.78" stop-color="#0A5431"/>
<stop offset="1" stop-color="#04391C"/>
</linearGradient>
<linearGradient id="paint4_linear_59_147" x1="36.4832" y1="37.0178" x2="37.259" y2="69.6034" gradientUnits="userSpaceOnUse">
<stop stop-color="#57D66F"/>
<stop offset="0.26" stop-color="#39BB57"/>
<stop offset="0.52" stop-color="#179E3D"/>
<stop offset="0.79" stop-color="#109439"/>
<stop offset="0.89" stop-color="#1C9E43"/>
</linearGradient>
<linearGradient id="paint5_linear_59_147" x1="21.3106" y1="51.5379" x2="29.1984" y2="54.3826" gradientUnits="userSpaceOnUse">
<stop offset="0.08" stop-color="#098C4B"/>
<stop offset="0.76" stop-color="#04632D"/>
<stop offset="0.94" stop-color="#045327"/>
</linearGradient>
<linearGradient id="paint6_linear_59_147" x1="35.9175" y1="42.8812" x2="33.525" y2="57.6872" gradientUnits="userSpaceOnUse">
<stop offset="0.03" stop-color="#0A8F4D"/>
<stop offset="0.26" stop-color="#078041"/>
<stop offset="0.69" stop-color="#03662D"/>
<stop offset="1" stop-color="#034D22"/>
</linearGradient>
<linearGradient id="paint7_linear_59_147" x1="25.617" y1="47.0572" x2="35.1208" y2="56.4966" gradientUnits="userSpaceOnUse">
<stop offset="0.14" stop-color="#ABE8AF"/>
<stop offset="0.43" stop-color="#8FE794"/>
<stop offset="0.63" stop-color="#78E67F"/>
<stop offset="0.84" stop-color="#63E76B"/>
</linearGradient>
</defs>
</svg>
