<svg width="103" height="103" viewBox="0 0 103 103" fill="none" xmlns="http://www.w3.org/2000/svg">
<path d="M51.1769 97.8173C25.3269 97.8173 4.36694 76.8673 4.36694 51.0073C4.36694 25.1473 25.3269 4.19727 51.1769 4.19727C77.0269 4.19727 97.9869 25.1573 97.9869 51.0073C97.9869 76.8573 77.0269 97.8173 51.1769 97.8173Z" fill="#F9E488"/>
<path fill-rule="evenodd" clip-rule="evenodd" d="M51.177 1.00732C78.787 1.00732 101.177 23.3973 101.177 51.0073C101.177 78.6173 78.787 101.007 51.177 101.007C23.567 101.007 1.177 78.6173 1.177 51.0073C1.177 23.3973 23.567 1.00732 51.177 1.00732ZM51.177 96.7673C76.447 96.7673 96.937 76.2773 96.937 51.0073C96.937 25.7373 76.447 5.24732 51.177 5.24732C25.907 5.24732 5.417 25.7373 5.417 51.0073C5.417 76.2773 25.907 96.7673 51.177 96.7673Z" fill="#D9D9D9"/>
<path fill-rule="evenodd" clip-rule="evenodd" d="M97.0771 51.0072C97.0771 76.3572 76.5271 96.9072 51.1771 96.9072C25.8271 96.9072 5.27711 76.3572 5.27711 51.0072C5.27711 25.6572 25.8271 5.10719 51.1771 5.10719C76.5271 5.10719 97.0771 25.6572 97.0771 51.0072ZM51.1771 1.36719C78.5971 1.36719 100.817 23.5872 100.817 51.0072C100.817 78.4272 78.5871 100.647 51.1771 100.647C23.7571 100.647 1.53711 78.4172 1.53711 51.0072C1.53711 23.5872 23.7571 1.36719 51.1771 1.36719Z" fill="#F2F1F0"/>
<path fill-rule="evenodd" clip-rule="evenodd" d="M94.2669 51.0072C94.2669 74.8072 74.9769 94.0972 51.1769 94.0972C27.3769 94.0972 8.08692 74.8072 8.08692 51.0072C8.08692 27.2072 27.3769 7.91725 51.1769 7.91725C74.9769 7.91725 94.2669 27.2072 94.2669 51.0072ZM51.1769 4.17725C77.0369 4.17725 98.0069 25.1472 98.0069 51.0072C98.0069 76.8672 77.0369 97.8372 51.1769 97.8372C25.3169 97.8372 4.34692 76.8672 4.34692 51.0072C4.34692 25.1472 25.3069 4.17725 51.1769 4.17725Z" fill="#F3C900"/>
<path opacity="0.8676" d="M34.717 23.2376C34.287 23.2376 33.967 23.0576 33.727 22.7176C33.487 22.3776 33.377 21.8776 33.377 21.2176C33.377 20.4976 33.497 19.9576 33.747 19.5976C33.997 19.2376 34.347 19.0476 34.817 19.0476C35.707 19.0476 36.147 19.7476 36.147 21.1276C36.147 21.8176 36.027 22.3376 35.777 22.6976C35.517 23.0476 35.167 23.2376 34.717 23.2376ZM34.787 19.5676C34.297 19.5676 34.047 20.1076 34.047 21.1876C34.047 22.1976 34.287 22.7076 34.777 22.7076C35.257 22.7076 35.487 22.1876 35.487 21.1576C35.477 20.1076 35.247 19.5676 34.787 19.5676ZM39.687 19.0276V23.1676H39.037V19.8276C38.927 19.9076 38.787 19.9876 38.657 20.0476C38.517 20.1076 38.367 20.1576 38.187 20.2076V19.6476C38.297 19.6176 38.407 19.5776 38.497 19.5376C38.587 19.4976 38.697 19.4576 38.797 19.3976C38.897 19.3476 38.997 19.2976 39.097 19.2276C39.197 19.1676 39.307 19.1076 39.407 19.0176H39.687V19.0276ZM43.427 23.2376C42.997 23.2376 42.677 23.0576 42.437 22.7176C42.197 22.3776 42.087 21.8776 42.087 21.2176C42.087 20.4976 42.207 19.9576 42.457 19.5976C42.707 19.2376 43.057 19.0476 43.527 19.0476C44.417 19.0476 44.857 19.7476 44.857 21.1276C44.857 21.8176 44.737 22.3376 44.487 22.6976C44.237 23.0476 43.887 23.2376 43.427 23.2376ZM43.487 19.5676C42.997 19.5676 42.747 20.1076 42.747 21.1876C42.747 22.1976 42.987 22.7076 43.477 22.7076C43.957 22.7076 44.187 22.1876 44.187 21.1576C44.197 20.1076 43.957 19.5676 43.487 19.5676ZM48.407 19.0276V23.1676H47.757V19.8276C47.647 19.9076 47.507 19.9876 47.377 20.0476C47.247 20.1076 47.087 20.1576 46.907 20.2076V19.6476C47.017 19.6176 47.127 19.5776 47.217 19.5376C47.317 19.4976 47.417 19.4576 47.517 19.3976C47.617 19.3476 47.717 19.2976 47.817 19.2276C47.917 19.1576 48.027 19.1076 48.127 19.0176H48.407V19.0276ZM52.147 23.2376C51.717 23.2376 51.397 23.0576 51.157 22.7176C50.917 22.3776 50.807 21.8776 50.807 21.2176C50.807 20.4976 50.927 19.9576 51.177 19.5976C51.427 19.2376 51.777 19.0476 52.247 19.0476C53.137 19.0476 53.577 19.7476 53.577 21.1276C53.577 21.8176 53.457 22.3376 53.207 22.6976C52.947 23.0476 52.597 23.2376 52.147 23.2376ZM52.207 19.5676C51.717 19.5676 51.467 20.1076 51.467 21.1876C51.467 22.1976 51.707 22.7076 52.197 22.7076C52.677 22.7076 52.907 22.1876 52.907 21.1576C52.907 20.1076 52.677 19.5676 52.207 19.5676ZM57.117 19.0276V23.1676H56.467V19.8276C56.357 19.9076 56.217 19.9876 56.087 20.0476C55.957 20.1076 55.797 20.1576 55.617 20.2076V19.6476C55.727 19.6176 55.837 19.5776 55.927 19.5376C56.017 19.4976 56.127 19.4576 56.227 19.3976C56.327 19.3476 56.427 19.2976 56.527 19.2276C56.627 19.1576 56.737 19.1076 56.837 19.0176H57.117V19.0276ZM60.857 23.2376C60.427 23.2376 60.107 23.0576 59.867 22.7176C59.627 22.3776 59.517 21.8776 59.517 21.2176C59.517 20.4976 59.637 19.9576 59.887 19.5976C60.137 19.2376 60.487 19.0476 60.957 19.0476C61.847 19.0476 62.287 19.7476 62.287 21.1276C62.287 21.8176 62.167 22.3376 61.917 22.6976C61.657 23.0476 61.307 23.2376 60.857 23.2376ZM60.917 19.5676C60.427 19.5676 60.177 20.1076 60.177 21.1876C60.177 22.1976 60.417 22.7076 60.907 22.7076C61.387 22.7076 61.617 22.1876 61.617 21.1576C61.627 20.1076 61.387 19.5676 60.917 19.5676ZM65.827 19.0276V23.1676H65.177V19.8276C65.067 19.9076 64.927 19.9876 64.797 20.0476C64.657 20.1076 64.507 20.1576 64.327 20.2076V19.6476C64.437 19.6176 64.547 19.5776 64.637 19.5376C64.727 19.4976 64.837 19.4576 64.937 19.3976C65.037 19.3476 65.137 19.2976 65.237 19.2276C65.337 19.1676 65.447 19.1076 65.547 19.0176H65.827V19.0276ZM69.567 23.2376C69.137 23.2376 68.817 23.0576 68.577 22.7176C68.337 22.3776 68.227 21.8776 68.227 21.2176C68.227 20.4976 68.347 19.9576 68.597 19.5976C68.847 19.2376 69.197 19.0476 69.667 19.0476C70.557 19.0476 70.997 19.7476 70.997 21.1276C70.997 21.8176 70.877 22.3376 70.627 22.6976C70.377 23.0576 70.017 23.2376 69.567 23.2376ZM69.637 19.5676C69.147 19.5676 68.897 20.1076 68.897 21.1876C68.897 22.1976 69.137 22.7076 69.627 22.7076C70.107 22.7076 70.337 22.1876 70.337 21.1576C70.327 20.1076 70.097 19.5676 69.637 19.5676ZM74.537 19.0276V23.1676H73.887V19.8276C73.777 19.9076 73.637 19.9876 73.507 20.0476C73.367 20.1076 73.217 20.1576 73.037 20.2076V19.6476C73.147 19.6176 73.257 19.5776 73.347 19.5376C73.447 19.4976 73.547 19.4576 73.647 19.3976C73.747 19.3476 73.847 19.2976 73.947 19.2276C74.047 19.1676 74.157 19.1076 74.257 19.0176H74.537V19.0276ZM30.977 26.9776V31.1176H30.327V27.7776C30.217 27.8576 30.077 27.9376 29.947 27.9976C29.807 28.0576 29.657 28.1076 29.477 28.1576V27.5976C29.587 27.5676 29.697 27.5276 29.787 27.4876C29.877 27.4476 29.987 27.4076 30.087 27.3476C30.187 27.2976 30.287 27.2476 30.387 27.1776C30.487 27.1176 30.597 27.0576 30.697 26.9676H30.977V26.9776V26.9776ZM34.897 31.1176H34.247V27.7776C34.137 27.8576 33.997 27.9376 33.867 27.9976C33.737 28.0576 33.577 28.1076 33.397 28.1576V27.5976C33.507 27.5676 33.617 27.5276 33.707 27.4876C33.797 27.4476 33.907 27.4076 34.007 27.3476C34.107 27.2976 34.207 27.2476 34.307 27.1776C34.407 27.1176 34.517 27.0576 34.617 26.9676L34.897 31.1176ZM38.627 31.1876C38.197 31.1876 37.877 31.0076 37.637 30.6676C37.397 30.3276 37.287 29.8276 37.287 29.1676C37.287 28.4476 37.407 27.9076 37.657 27.5476C37.907 27.1876 38.257 26.9976 38.727 26.9976C39.617 26.9976 40.057 27.6976 40.057 29.0776C40.057 29.7676 39.937 30.2876 39.687 30.6476C39.437 30.9976 39.087 31.1876 38.627 31.1876ZM38.697 27.5176C38.207 27.5176 37.957 28.0576 37.957 29.1376C37.957 30.1476 38.197 30.6576 38.687 30.6576C39.167 30.6576 39.397 30.1376 39.397 29.1076C39.397 28.0576 39.157 27.5176 38.697 27.5176ZM43.607 26.9776V31.1176H42.957V27.7776C42.847 27.8576 42.707 27.9376 42.577 27.9976C42.447 28.0576 42.287 28.1076 42.107 28.1576V27.5976C42.217 27.5676 42.327 27.5276 42.417 27.4876C42.507 27.4476 42.617 27.4076 42.717 27.3476C42.817 27.2976 42.917 27.2476 43.017 27.1776C43.117 27.1176 43.227 27.0576 43.327 26.9676H43.607V26.9776ZM47.347 31.1876C46.917 31.1876 46.597 31.0076 46.357 30.6676C46.117 30.3276 46.007 29.8276 46.007 29.1676C46.007 28.4476 46.127 27.9076 46.377 27.5476C46.627 27.1876 46.977 26.9976 47.447 26.9976C48.337 26.9976 48.777 27.6976 48.777 29.0776C48.777 29.7676 48.657 30.2876 48.407 30.6476C48.147 30.9976 47.797 31.1876 47.347 31.1876ZM47.407 27.5176C46.917 27.5176 46.667 28.0576 46.667 29.1376C46.667 30.1476 46.907 30.6576 47.397 30.6576C47.877 30.6576 48.107 30.1376 48.107 29.1076C48.107 28.0576 47.877 27.5176 47.407 27.5176ZM52.327 26.9776V31.1176H51.677V27.7776C51.567 27.8576 51.427 27.9376 51.297 27.9976C51.167 28.0576 51.007 28.1076 50.827 28.1576V27.5976C50.937 27.5676 51.047 27.5276 51.137 27.4876C51.227 27.4476 51.337 27.4076 51.437 27.3476C51.537 27.2976 51.637 27.2476 51.737 27.1776C51.837 27.1176 51.947 27.0576 52.047 26.9676H52.327V26.9776ZM56.057 31.1876C55.627 31.1876 55.307 31.0076 55.067 30.6676C54.827 30.3276 54.717 29.8276 54.717 29.1676C54.717 28.4476 54.837 27.9076 55.087 27.5476C55.337 27.1876 55.687 26.9976 56.157 26.9976C57.047 26.9976 57.487 27.6976 57.487 29.0776C57.487 29.7676 57.367 30.2876 57.117 30.6476C56.867 30.9976 56.507 31.1876 56.057 31.1876ZM56.127 27.5176C55.637 27.5176 55.387 28.0576 55.387 29.1376C55.387 30.1476 55.627 30.6576 56.117 30.6576C56.597 30.6576 56.827 30.1376 56.827 29.1076C56.817 28.0576 56.587 27.5176 56.127 27.5176ZM61.027 26.9776V31.1176H60.377V27.7776C60.267 27.8576 60.127 27.9376 59.997 27.9976C59.867 28.0576 59.707 28.1076 59.527 28.1576V27.5976C59.637 27.5676 59.747 27.5276 59.837 27.4876C59.927 27.4476 60.037 27.4076 60.137 27.3476C60.237 27.2976 60.337 27.2476 60.437 27.1776C60.537 27.1176 60.647 27.0576 60.747 26.9676H61.027V26.9776ZM64.767 31.1876C64.337 31.1876 64.017 31.0076 63.777 30.6676C63.537 30.3276 63.427 29.8276 63.427 29.1676C63.427 28.4476 63.547 27.9076 63.797 27.5476C64.047 27.1876 64.397 26.9976 64.867 26.9976C65.757 26.9976 66.197 27.6976 66.197 29.0776C66.197 29.7676 66.077 30.2876 65.827 30.6476C65.567 30.9976 65.217 31.1876 64.767 31.1876ZM64.837 27.5176C64.347 27.5176 64.097 28.0576 64.097 29.1376C64.097 30.1476 64.337 30.6576 64.827 30.6576C65.307 30.6576 65.537 30.1376 65.537 29.1076C65.527 28.0576 65.297 27.5176 64.837 27.5176ZM69.747 26.9776V31.1176H69.097V27.7776C68.987 27.8576 68.847 27.9376 68.717 27.9976C68.577 28.0576 68.427 28.1076 68.247 28.1576V27.5976C68.357 27.5676 68.467 27.5276 68.557 27.4876C68.657 27.4476 68.757 27.4076 68.857 27.3476C68.957 27.2976 69.057 27.2476 69.157 27.1776C69.257 27.1076 69.367 27.0576 69.467 26.9676H69.747V26.9776ZM73.477 31.1876C73.047 31.1876 72.727 31.0076 72.487 30.6676C72.247 30.3276 72.137 29.8276 72.137 29.1676C72.137 28.4476 72.257 27.9076 72.507 27.5476C72.757 27.1876 73.107 26.9976 73.577 26.9976C74.467 26.9976 74.907 27.6976 74.907 29.0776C74.907 29.7676 74.787 30.2876 74.537 30.6476C74.287 30.9976 73.937 31.1876 73.477 31.1876ZM73.547 27.5176C73.057 27.5176 72.807 28.0576 72.807 29.1376C72.807 30.1476 73.047 30.6576 73.537 30.6576C74.017 30.6576 74.247 30.1376 74.247 29.1076C74.247 28.0576 74.007 27.5176 73.547 27.5176ZM78.457 26.9776V31.1176H77.807V27.7776C77.697 27.8576 77.557 27.9376 77.427 27.9976C77.297 28.0576 77.137 28.1076 76.957 28.1576V27.5976C77.067 27.5676 77.177 27.5276 77.267 27.4876C77.367 27.4476 77.467 27.4076 77.567 27.3476C77.667 27.2976 77.767 27.2476 77.867 27.1776C77.967 27.1176 78.077 27.0576 78.177 26.9676H78.457V26.9776ZM30.807 39.1276C30.377 39.1276 30.057 38.9476 29.817 38.6076C29.577 38.2776 29.467 37.7776 29.467 37.1176C29.467 36.3976 29.587 35.8576 29.837 35.4976C30.087 35.1376 30.437 34.9476 30.907 34.9476C31.797 34.9476 32.237 35.6476 32.237 37.0276C32.237 37.7176 32.117 38.2376 31.867 38.5976C31.607 38.9476 31.247 39.1276 30.807 39.1276ZM30.867 35.4676C30.377 35.4676 30.127 36.0076 30.127 37.0876C30.127 38.0976 30.367 38.6076 30.857 38.6076C31.337 38.6076 31.567 38.0876 31.567 37.0576C31.567 35.9976 31.337 35.4676 30.867 35.4676ZM35.777 34.9276V39.0676H35.127V35.7276C35.017 35.8076 34.877 35.8876 34.747 35.9476C34.607 36.0076 34.457 36.0576 34.277 36.1076V35.5476C34.387 35.5176 34.497 35.4776 34.587 35.4376C34.687 35.3976 34.787 35.3576 34.887 35.2976C34.987 35.2476 35.087 35.1976 35.187 35.1276C35.287 35.0676 35.397 35.0076 35.497 34.9176H35.777V34.9276ZM39.507 39.1276C39.077 39.1276 38.757 38.9476 38.517 38.6076C38.277 38.2676 38.167 37.7676 38.167 37.1076C38.167 36.3876 38.287 35.8476 38.537 35.4876C38.787 35.1276 39.137 34.9376 39.607 34.9376C40.497 34.9376 40.937 35.6376 40.937 37.0176C40.937 37.7076 40.817 38.2276 40.567 38.5876C40.317 38.9476 39.967 39.1276 39.507 39.1276ZM39.587 35.4676C39.097 35.4676 38.847 36.0076 38.847 37.0876C38.847 38.0976 39.087 38.6076 39.577 38.6076C40.057 38.6076 40.287 38.0876 40.287 37.0576C40.277 35.9976 40.037 35.4676 39.587 35.4676ZM44.487 34.9276V39.0676H43.837V35.7276C43.727 35.8076 43.587 35.8876 43.457 35.9476C43.317 36.0076 43.167 36.0576 42.987 36.1076V35.5476C43.097 35.5176 43.207 35.4776 43.297 35.4376C43.397 35.3976 43.497 35.3576 43.597 35.2976C43.697 35.2476 43.797 35.1976 43.897 35.1276C43.997 35.0576 44.107 35.0076 44.207 34.9176H44.487V34.9276ZM48.227 39.1276C47.797 39.1276 47.477 38.9476 47.237 38.6076C46.997 38.2676 46.887 37.7676 46.887 37.1076C46.887 36.3876 47.007 35.8476 47.257 35.4876C47.507 35.1276 47.857 34.9376 48.327 34.9376C49.217 34.9376 49.657 35.6376 49.657 37.0176C49.657 37.7076 49.537 38.2276 49.287 38.5876C49.027 38.9476 48.677 39.1276 48.227 39.1276ZM48.287 35.4676C47.797 35.4676 47.547 36.0076 47.547 37.0876C47.547 38.0976 47.787 38.6076 48.277 38.6076C48.757 38.6076 48.987 38.0876 48.987 37.0576C48.987 35.9976 48.757 35.4676 48.287 35.4676ZM53.207 34.9276V39.0676H52.557V35.7276C52.447 35.8076 52.307 35.8876 52.177 35.9476C52.037 36.0076 51.887 36.0576 51.707 36.1076V35.5476C51.817 35.5176 51.927 35.4776 52.017 35.4376C52.117 35.3976 52.217 35.3576 52.317 35.2976C52.417 35.2476 52.517 35.1976 52.617 35.1276C52.717 35.0576 52.827 35.0076 52.927 34.9176H53.207V34.9276ZM56.937 39.1276C56.507 39.1276 56.187 38.9476 55.947 38.6076C55.707 38.2676 55.597 37.7676 55.597 37.1076C55.597 36.3876 55.717 35.8476 55.967 35.4876C56.217 35.1276 56.567 34.9376 57.037 34.9376C57.927 34.9376 58.367 35.6376 58.367 37.0176C58.367 37.7076 58.247 38.2276 57.997 38.5876C57.747 38.9476 57.397 39.1276 56.937 39.1276ZM57.007 35.4676C56.517 35.4676 56.267 36.0076 56.267 37.0876C56.267 38.0976 56.507 38.6076 56.997 38.6076C57.477 38.6076 57.707 38.0876 57.707 37.0576C57.707 35.9976 57.467 35.4676 57.007 35.4676ZM61.917 34.9276V39.0676H61.267V35.7276C61.157 35.8076 61.017 35.8876 60.887 35.9476C60.747 36.0076 60.597 36.0576 60.417 36.1076V35.5476C60.527 35.5176 60.637 35.4776 60.727 35.4376C60.827 35.3976 60.927 35.3576 61.027 35.2976C61.127 35.2476 61.227 35.1976 61.327 35.1276C61.427 35.0576 61.537 35.0076 61.637 34.9176H61.917V34.9276ZM65.657 39.1276C65.227 39.1276 64.907 38.9476 64.667 38.6076C64.427 38.2676 64.317 37.7676 64.317 37.1076C64.317 36.3876 64.437 35.8476 64.687 35.4876C64.937 35.1276 65.287 34.9376 65.757 34.9376C66.647 34.9376 67.087 35.6376 67.087 37.0176C67.087 37.7076 66.967 38.2276 66.717 38.5876C66.457 38.9476 66.097 39.1276 65.657 39.1276ZM65.717 35.4676C65.227 35.4676 64.977 36.0076 64.977 37.0876C64.977 38.0976 65.217 38.6076 65.707 38.6076C66.187 38.6076 66.417 38.0876 66.417 37.0576C66.417 35.9976 66.187 35.4676 65.717 35.4676ZM70.627 34.9276V39.0676H69.977V35.7276C69.867 35.8076 69.727 35.8876 69.597 35.9476C69.467 36.0076 69.307 36.0576 69.127 36.1076V35.5476C69.237 35.5176 69.347 35.4776 69.437 35.4376C69.537 35.3976 69.637 35.3576 69.737 35.2976C69.837 35.2476 69.937 35.1976 70.037 35.1276C70.137 35.0676 70.247 35.0076 70.347 34.9176H70.627V34.9276ZM74.357 39.1276C73.927 39.1276 73.607 38.9476 73.367 38.6076C73.127 38.2676 73.017 37.7676 73.017 37.1076C73.017 36.3876 73.137 35.8476 73.387 35.4876C73.637 35.1276 73.987 34.9376 74.457 34.9376C75.347 34.9376 75.787 35.6376 75.787 37.0176C75.787 37.7076 75.667 38.2276 75.417 38.5876C75.167 38.9476 74.817 39.1276 74.357 39.1276ZM74.437 35.4676C73.947 35.4676 73.697 36.0076 73.697 37.0876C73.697 38.0976 73.937 38.6076 74.427 38.6076C74.907 38.6076 75.137 38.0876 75.137 37.0576C75.127 35.9976 74.887 35.4676 74.437 35.4676ZM79.337 34.9276V39.0676H78.687V35.7276C78.577 35.8076 78.437 35.8876 78.307 35.9476C78.167 36.0076 78.017 36.0576 77.837 36.1076V35.5476C77.947 35.5176 78.057 35.4776 78.147 35.4376C78.247 35.3976 78.347 35.3576 78.447 35.2976C78.547 35.2476 78.647 35.1976 78.747 35.1276C78.847 35.0676 78.957 35.0076 79.057 34.9176H79.337V34.9276ZM30.807 47.0776C30.377 47.0776 30.057 46.8976 29.817 46.5576C29.577 46.2176 29.467 45.7276 29.467 45.0676C29.467 44.3476 29.587 43.8076 29.837 43.4476C30.087 43.0876 30.437 42.8976 30.907 42.8976C31.797 42.8976 32.237 43.5976 32.237 44.9776C32.237 45.6676 32.117 46.1876 31.867 46.5476C31.617 46.9076 31.247 47.0776 30.807 47.0776ZM30.867 43.4176C30.377 43.4176 30.127 43.9576 30.127 45.0376C30.127 46.0476 30.367 46.5576 30.857 46.5576C31.337 46.5576 31.567 46.0376 31.567 45.0076C31.567 43.9476 31.337 43.4176 30.867 43.4176ZM35.777 42.8776V47.0076H35.127V43.6676C35.017 43.7476 34.877 43.8276 34.747 43.8876C34.607 43.9476 34.457 43.9976 34.277 44.0476V43.4876C34.387 43.4576 34.497 43.4176 34.587 43.3776C34.687 43.3376 34.787 43.2976 34.887 43.2376C34.987 43.1876 35.087 43.1376 35.187 43.0676C35.287 43.0076 35.397 42.9476 35.497 42.8576H35.777V42.8776ZM39.507 47.0776C39.077 47.0776 38.757 46.8976 38.517 46.5576C38.277 46.2176 38.167 45.7176 38.167 45.0576C38.167 44.3376 38.287 43.7976 38.537 43.4376C38.787 43.0776 39.137 42.8876 39.607 42.8876C40.497 42.8876 40.937 43.5876 40.937 44.9676C40.937 45.6576 40.817 46.1776 40.567 46.5376C40.317 46.8976 39.967 47.0776 39.507 47.0776ZM39.587 43.4176C39.097 43.4176 38.847 43.9576 38.847 45.0376C38.847 46.0476 39.087 46.5576 39.577 46.5576C40.057 46.5576 40.287 46.0376 40.287 45.0076C40.277 43.9476 40.037 43.4176 39.587 43.4176ZM44.487 42.8776V47.0076H43.837V43.6676C43.727 43.7476 43.587 43.8276 43.457 43.8876C43.317 43.9476 43.167 43.9976 42.987 44.0476V43.4876C43.097 43.4576 43.207 43.4176 43.297 43.3776C43.397 43.3376 43.497 43.2976 43.597 43.2376C43.697 43.1876 43.797 43.1376 43.897 43.0676C43.997 43.0076 44.107 42.9476 44.207 42.8576H44.487V42.8776ZM48.227 47.0776C47.797 47.0776 47.477 46.8976 47.237 46.5576C46.997 46.2176 46.887 45.7176 46.887 45.0576C46.887 44.3376 47.007 43.7976 47.257 43.4376C47.507 43.0776 47.857 42.8876 48.327 42.8876C49.217 42.8876 49.657 43.5876 49.657 44.9676C49.657 45.6576 49.537 46.1776 49.287 46.5376C49.037 46.8976 48.677 47.0776 48.227 47.0776ZM48.287 43.4176C47.797 43.4176 47.547 43.9576 47.547 45.0376C47.547 46.0476 47.787 46.5576 48.277 46.5576C48.757 46.5576 48.987 46.0376 48.987 45.0076C48.987 43.9476 48.757 43.4176 48.287 43.4176ZM53.207 42.8776V47.0076H52.557V43.6676C52.447 43.7476 52.307 43.8276 52.177 43.8876C52.037 43.9476 51.887 43.9976 51.707 44.0476V43.4876C51.817 43.4576 51.927 43.4176 52.017 43.3776C52.117 43.3376 52.217 43.2976 52.317 43.2376C52.417 43.1876 52.517 43.1376 52.617 43.0676C52.717 43.0076 52.827 42.9476 52.927 42.8576H53.207V42.8776ZM56.937 47.0776C56.507 47.0776 56.187 46.8976 55.947 46.5576C55.707 46.2176 55.597 45.7176 55.597 45.0576C55.597 44.3376 55.717 43.7976 55.967 43.4376C56.217 43.0776 56.567 42.8876 57.037 42.8876C57.927 42.8876 58.367 43.5876 58.367 44.9676C58.367 45.6576 58.247 46.1776 57.997 46.5376C57.747 46.8976 57.397 47.0776 56.937 47.0776ZM57.007 43.4176C56.517 43.4176 56.267 43.9576 56.267 45.0376C56.267 46.0476 56.507 46.5576 56.997 46.5576C57.477 46.5576 57.707 46.0376 57.707 45.0076C57.707 43.9476 57.467 43.4176 57.007 43.4176ZM61.917 42.8776V47.0076H61.267V43.6676C61.157 43.7476 61.017 43.8276 60.887 43.8876C60.747 43.9476 60.597 43.9976 60.417 44.0476V43.4876C60.527 43.4576 60.637 43.4176 60.727 43.3776C60.827 43.3376 60.927 43.2976 61.027 43.2376C61.127 43.1876 61.227 43.1376 61.327 43.0676C61.427 43.0076 61.537 42.9476 61.637 42.8576H61.917V42.8776ZM65.657 47.0776C65.227 47.0776 64.907 46.8976 64.667 46.5576C64.427 46.2176 64.317 45.7176 64.317 45.0576C64.317 44.3376 64.437 43.7976 64.687 43.4376C64.937 43.0776 65.287 42.8876 65.757 42.8876C66.647 42.8876 67.087 43.5876 67.087 44.9676C67.087 45.6576 66.967 46.1776 66.717 46.5376C66.457 46.8976 66.097 47.0776 65.657 47.0776ZM65.717 43.4176C65.227 43.4176 64.977 43.9576 64.977 45.0376C64.977 46.0476 65.217 46.5576 65.707 46.5576C66.187 46.5576 66.417 46.0376 66.417 45.0076C66.417 43.9476 66.187 43.4176 65.717 43.4176ZM70.627 42.8776V47.0076H69.977V43.6676C69.867 43.7476 69.727 43.8276 69.597 43.8876C69.467 43.9476 69.307 43.9976 69.127 44.0476V43.4876C69.237 43.4576 69.347 43.4176 69.437 43.3776C69.537 43.3376 69.637 43.2976 69.737 43.2376C69.837 43.1876 69.937 43.1376 70.037 43.0676C70.137 43.0076 70.247 42.9476 70.347 42.8576H70.627V42.8776ZM74.357 47.0776C73.927 47.0776 73.607 46.8976 73.367 46.5576C73.127 46.2176 73.017 45.7176 73.017 45.0576C73.017 44.3376 73.137 43.7976 73.387 43.4376C73.637 43.0776 73.987 42.8876 74.457 42.8876C75.347 42.8876 75.787 43.5876 75.787 44.9676C75.787 45.6576 75.667 46.1776 75.417 46.5376C75.167 46.8976 74.817 47.0776 74.357 47.0776ZM74.437 43.4176C73.947 43.4176 73.697 43.9576 73.697 45.0376C73.697 46.0476 73.937 46.5576 74.427 46.5576C74.907 46.5576 75.137 46.0376 75.137 45.0076C75.127 43.9476 74.887 43.4176 74.437 43.4176ZM79.337 42.8776V47.0076H78.687V43.6676C78.577 43.7476 78.437 43.8276 78.307 43.8876C78.167 43.9476 78.017 43.9976 77.837 44.0476V43.4876C77.947 43.4576 78.057 43.4176 78.147 43.3776C78.247 43.3376 78.347 43.2976 78.447 43.2376C78.547 43.1876 78.647 43.1376 78.747 43.0676C78.847 43.0076 78.957 42.9476 79.057 42.8576H79.337V42.8776ZM30.807 55.0176C30.377 55.0176 30.057 54.8376 29.817 54.4976C29.577 54.1576 29.467 53.6576 29.467 53.0076C29.467 52.2876 29.587 51.7476 29.837 51.3876C30.087 51.0276 30.437 50.8376 30.907 50.8376C31.797 50.8376 32.237 51.5376 32.237 52.9176C32.237 53.6076 32.117 54.1276 31.867 54.4876C31.607 54.8476 31.247 55.0176 30.807 55.0176ZM30.867 51.3676C30.377 51.3676 30.127 51.9076 30.127 52.9876C30.127 53.9976 30.367 54.5076 30.857 54.5076C31.337 54.5076 31.567 53.9876 31.567 52.9576C31.567 51.8976 31.337 51.3676 30.867 51.3676ZM35.777 50.8176V54.9576H35.127V51.6176C35.017 51.6976 34.877 51.7776 34.747 51.8376C34.607 51.8976 34.457 51.9476 34.277 51.9976V51.4376C34.387 51.4076 34.497 51.3676 34.587 51.3276C34.677 51.2876 34.787 51.2476 34.887 51.1876C34.987 51.1376 35.087 51.0876 35.187 51.0176C35.287 50.9576 35.397 50.8976 35.497 50.8076H35.777V50.8176ZM39.507 55.0176C39.077 55.0176 38.757 54.8376 38.517 54.4976C38.277 54.1576 38.167 53.6576 38.167 52.9976C38.167 52.2776 38.287 51.7376 38.537 51.3776C38.787 51.0176 39.137 50.8276 39.607 50.8276C40.497 50.8276 40.937 51.5276 40.937 52.9076C40.937 53.5976 40.817 54.1176 40.567 54.4776C40.327 54.8476 39.967 55.0176 39.507 55.0176ZM39.587 51.3676C39.097 51.3676 38.847 51.9076 38.847 52.9876C38.847 53.9976 39.087 54.5076 39.577 54.5076C40.057 54.5076 40.287 53.9876 40.287 52.9576C40.277 51.8976 40.037 51.3676 39.587 51.3676ZM44.487 50.8176V54.9576H43.837V51.6176C43.727 51.6976 43.587 51.7776 43.457 51.8376C43.317 51.8976 43.167 51.9476 42.987 51.9976V51.4376C43.097 51.4076 43.207 51.3676 43.297 51.3276C43.387 51.2876 43.497 51.2476 43.597 51.1876C43.697 51.1376 43.797 51.0876 43.897 51.0176C43.997 50.9476 44.107 50.8976 44.207 50.8076H44.487V50.8176ZM48.227 55.0176C47.797 55.0176 47.477 54.8376 47.237 54.4976C46.997 54.1576 46.887 53.6576 46.887 52.9976C46.887 52.2776 47.007 51.7376 47.257 51.3776C47.507 51.0176 47.857 50.8276 48.327 50.8276C49.217 50.8276 49.657 51.5276 49.657 52.9076C49.657 53.5976 49.537 54.1176 49.287 54.4776C49.027 54.8476 48.677 55.0176 48.227 55.0176ZM48.287 51.3676C47.797 51.3676 47.547 51.9076 47.547 52.9876C47.547 53.9976 47.787 54.5076 48.277 54.5076C48.757 54.5076 48.987 53.9876 48.987 52.9576C48.987 51.8976 48.757 51.3676 48.287 51.3676ZM53.207 50.8176V54.9576H52.557V51.6176C52.447 51.6976 52.307 51.7776 52.177 51.8376C52.037 51.8976 51.887 51.9476 51.707 51.9976V51.4376C51.817 51.4076 51.927 51.3676 52.017 51.3276C52.107 51.2876 52.217 51.2476 52.317 51.1876C52.417 51.1376 52.517 51.0876 52.617 51.0176C52.717 50.9476 52.827 50.8976 52.927 50.8076H53.207V50.8176ZM56.937 55.0176C56.507 55.0176 56.187 54.8376 55.947 54.4976C55.707 54.1576 55.597 53.6576 55.597 52.9976C55.597 52.2776 55.717 51.7376 55.967 51.3776C56.217 51.0176 56.567 50.8276 57.037 50.8276C57.927 50.8276 58.367 51.5276 58.367 52.9076C58.367 53.5976 58.247 54.1176 57.997 54.4776C57.747 54.8476 57.397 55.0176 56.937 55.0176ZM57.007 51.3676C56.517 51.3676 56.267 51.9076 56.267 52.9876C56.267 53.9976 56.507 54.5076 56.997 54.5076C57.477 54.5076 57.707 53.9876 57.707 52.9576C57.707 51.8976 57.467 51.3676 57.007 51.3676ZM61.917 50.8176V54.9576H61.267V51.6176C61.157 51.6976 61.017 51.7776 60.887 51.8376C60.747 51.8976 60.597 51.9476 60.417 51.9976V51.4376C60.527 51.4076 60.637 51.3676 60.727 51.3276C60.817 51.2876 60.927 51.2476 61.027 51.1876C61.127 51.1376 61.227 51.0876 61.327 51.0176C61.427 50.9476 61.537 50.8976 61.637 50.8076H61.917V50.8176ZM65.657 55.0176C65.227 55.0176 64.907 54.8376 64.667 54.4976C64.427 54.1576 64.317 53.6576 64.317 52.9976C64.317 52.2776 64.437 51.7376 64.687 51.3776C64.937 51.0176 65.287 50.8276 65.757 50.8276C66.647 50.8276 67.087 51.5276 67.087 52.9076C67.087 53.5976 66.967 54.1176 66.717 54.4776C66.457 54.8476 66.097 55.0176 65.657 55.0176ZM65.717 51.3676C65.227 51.3676 64.977 51.9076 64.977 52.9876C64.977 53.9976 65.217 54.5076 65.707 54.5076C66.187 54.5076 66.417 53.9876 66.417 52.9576C66.417 51.8976 66.187 51.3676 65.717 51.3676ZM70.627 50.8176V54.9576H69.977V51.6176C69.867 51.6976 69.727 51.7776 69.597 51.8376C69.457 51.8976 69.307 51.9476 69.127 51.9976V51.4376C69.237 51.4076 69.347 51.3676 69.437 51.3276C69.537 51.2876 69.637 51.2476 69.737 51.1876C69.837 51.1376 69.937 51.0876 70.037 51.0176C70.137 50.9576 70.247 50.8976 70.347 50.8076H70.627V50.8176ZM74.357 55.0176C73.927 55.0176 73.607 54.8376 73.367 54.4976C73.127 54.1576 73.017 53.6576 73.017 52.9976C73.017 52.2776 73.137 51.7376 73.387 51.3776C73.637 51.0176 73.987 50.8276 74.457 50.8276C75.347 50.8276 75.787 51.5276 75.787 52.9076C75.787 53.5976 75.667 54.1176 75.417 54.4776C75.167 54.8476 74.817 55.0176 74.357 55.0176ZM74.437 51.3676C73.947 51.3676 73.697 51.9076 73.697 52.9876C73.697 53.9976 73.937 54.5076 74.427 54.5076C74.907 54.5076 75.137 53.9876 75.137 52.9576C75.127 51.8976 74.887 51.3676 74.437 51.3676ZM79.337 50.8176V54.9576H78.687V51.6176C78.577 51.6976 78.437 51.7776 78.307 51.8376C78.167 51.8976 78.017 51.9476 77.837 51.9976V51.4376C77.947 51.4076 78.057 51.3676 78.147 51.3276C78.247 51.2876 78.347 51.2476 78.447 51.1876C78.547 51.1376 78.647 51.0876 78.747 51.0176C78.847 50.9576 78.957 50.8976 79.057 50.8076H79.337V50.8176ZM35.777 58.7576V62.8976H35.127V59.5576C35.017 59.6376 34.877 59.7176 34.747 59.7776C34.607 59.8376 34.457 59.8876 34.277 59.9376V59.3776C34.387 59.3476 34.497 59.3076 34.587 59.2676C34.687 59.2276 34.787 59.1876 34.887 59.1276C34.987 59.0776 35.087 59.0276 35.187 58.9576C35.287 58.8976 35.397 58.8376 35.497 58.7476H35.777V58.7576ZM39.507 62.9676C39.077 62.9676 38.757 62.7876 38.517 62.4476C38.277 62.1076 38.167 61.6076 38.167 60.9476C38.167 60.2276 38.287 59.6876 38.537 59.3276C38.787 58.9676 39.137 58.7776 39.607 58.7776C40.497 58.7776 40.937 59.4776 40.937 60.8576C40.937 61.5476 40.817 62.0676 40.567 62.4276C40.327 62.7976 39.967 62.9676 39.507 62.9676ZM39.587 59.3076C39.097 59.3076 38.847 59.8476 38.847 60.9276C38.847 61.9376 39.087 62.4476 39.577 62.4476C40.057 62.4476 40.287 61.9276 40.287 60.8976C40.277 59.8376 40.037 59.3076 39.587 59.3076ZM44.487 58.7576V62.8976H43.837V59.5576C43.727 59.6376 43.587 59.7176 43.457 59.7776C43.317 59.8376 43.167 59.8876 42.987 59.9376V59.3776C43.097 59.3476 43.207 59.3076 43.297 59.2676C43.397 59.2276 43.497 59.1876 43.597 59.1276C43.697 59.0776 43.797 59.0276 43.897 58.9576C43.997 58.8876 44.107 58.8376 44.207 58.7476H44.487V58.7576ZM48.227 62.9676C47.797 62.9676 47.477 62.7876 47.237 62.4476C46.997 62.1076 46.887 61.6076 46.887 60.9476C46.887 60.2276 47.007 59.6876 47.257 59.3276C47.507 58.9676 47.857 58.7776 48.327 58.7776C49.217 58.7776 49.657 59.4776 49.657 60.8576C49.657 61.5476 49.537 62.0676 49.287 62.4276C49.027 62.7976 48.677 62.9676 48.227 62.9676ZM48.287 59.3076C47.797 59.3076 47.547 59.8476 47.547 60.9276C47.547 61.9376 47.787 62.4476 48.277 62.4476C48.757 62.4476 48.987 61.9276 48.987 60.8976C48.987 59.8376 48.757 59.3076 48.287 59.3076ZM53.207 58.7576V62.8976H52.557V59.5576C52.447 59.6376 52.307 59.7176 52.177 59.7776C52.037 59.8376 51.887 59.8876 51.707 59.9376V59.3776C51.817 59.3476 51.927 59.3076 52.017 59.2676C52.117 59.2276 52.217 59.1876 52.317 59.1276C52.417 59.0776 52.517 59.0276 52.617 58.9576C52.717 58.8876 52.827 58.8376 52.927 58.7476H53.207V58.7576ZM56.937 62.9676C56.507 62.9676 56.187 62.7876 55.947 62.4476C55.707 62.1076 55.597 61.6076 55.597 60.9476C55.597 60.2276 55.717 59.6876 55.967 59.3276C56.217 58.9676 56.567 58.7776 57.037 58.7776C57.927 58.7776 58.367 59.4776 58.367 60.8576C58.367 61.5476 58.247 62.0676 57.997 62.4276C57.747 62.7976 57.397 62.9676 56.937 62.9676ZM57.007 59.3076C56.517 59.3076 56.267 59.8476 56.267 60.9276C56.267 61.9376 56.507 62.4476 56.997 62.4476C57.477 62.4476 57.707 61.9276 57.707 60.8976C57.707 59.8376 57.467 59.3076 57.007 59.3076ZM61.917 58.7576V62.8976H61.267V59.5576C61.157 59.6376 61.017 59.7176 60.887 59.7776C60.747 59.8376 60.597 59.8876 60.417 59.9376V59.3776C60.527 59.3476 60.637 59.3076 60.727 59.2676C60.827 59.2276 60.927 59.1876 61.027 59.1276C61.127 59.0776 61.227 59.0276 61.327 58.9576C61.427 58.8876 61.537 58.8376 61.637 58.7476H61.917V58.7576ZM65.657 62.9676C65.227 62.9676 64.907 62.7876 64.667 62.4476C64.427 62.1076 64.317 61.6076 64.317 60.9476C64.317 60.2276 64.437 59.6876 64.687 59.3276C64.937 58.9676 65.287 58.7776 65.757 58.7776C66.647 58.7776 67.087 59.4776 67.087 60.8576C67.087 61.5476 66.967 62.0676 66.717 62.4276C66.457 62.7976 66.097 62.9676 65.657 62.9676ZM65.717 59.3076C65.227 59.3076 64.977 59.8476 64.977 60.9276C64.977 61.9376 65.217 62.4476 65.707 62.4476C66.187 62.4476 66.417 61.9276 66.417 60.8976C66.417 59.8376 66.187 59.3076 65.717 59.3076ZM70.627 58.7576V62.8976H69.977V59.5576C69.867 59.6376 69.727 59.7176 69.597 59.7776C69.467 59.8376 69.307 59.8876 69.127 59.9376V59.3776C69.237 59.3476 69.347 59.3076 69.437 59.2676C69.537 59.2276 69.637 59.1876 69.737 59.1276C69.837 59.0776 69.937 59.0276 70.037 58.9576C70.137 58.8976 70.247 58.8376 70.347 58.7476H70.627V58.7576ZM74.357 62.9676C73.927 62.9676 73.607 62.7876 73.367 62.4476C73.127 62.1076 73.017 61.6076 73.017 60.9476C73.017 60.2276 73.137 59.6876 73.387 59.3276C73.637 58.9676 73.987 58.7776 74.457 58.7776C75.347 58.7776 75.787 59.4776 75.787 60.8576C75.787 61.5476 75.667 62.0676 75.417 62.4276C75.167 62.7976 74.817 62.9676 74.357 62.9676ZM74.437 59.3076C73.947 59.3076 73.697 59.8476 73.697 60.9276C73.697 61.9376 73.937 62.4476 74.427 62.4476C74.907 62.4476 75.137 61.9276 75.137 60.8976C75.127 59.8376 74.887 59.3076 74.437 59.3076Z" fill="#DCB024"/>
<path d="M24.787 45.0076C24.587 45.0076 24.407 44.9376 24.267 44.7876C24.127 44.6476 24.047 44.4676 24.047 44.2676C24.037 39.6376 20.287 35.8676 15.647 35.8676C15.237 35.8676 14.907 35.5476 14.907 35.1376C14.907 34.7276 15.237 34.3976 15.647 34.3976C20.277 34.3876 24.047 30.6376 24.047 25.9876C24.047 25.7876 24.117 25.6076 24.267 25.4676C24.407 25.3276 24.587 25.2476 24.787 25.2476C24.987 25.2476 25.167 25.3176 25.307 25.4676C25.447 25.6076 25.527 25.7876 25.527 25.9876C25.537 30.6176 29.287 34.3876 33.927 34.3876C34.127 34.3876 34.307 34.4576 34.447 34.6076C34.587 34.7476 34.667 34.9276 34.667 35.1276C34.667 35.3276 34.597 35.5076 34.447 35.6476C34.307 35.7876 34.127 35.8676 33.927 35.8676C29.297 35.8676 25.527 39.6276 25.527 44.2676C25.527 44.6676 25.197 45.0076 24.787 45.0076Z" fill="white"/>
<path d="M81.937 73.0578C81.617 73.0578 81.357 72.7978 81.357 72.4778C81.357 68.8178 78.387 65.8478 74.727 65.8478C74.407 65.8478 74.147 65.5878 74.147 65.2678C74.147 65.1078 74.207 64.9678 74.317 64.8478C74.417 64.7378 74.577 64.6778 74.737 64.6778C78.397 64.6778 81.367 61.7078 81.367 58.0478C81.367 57.7278 81.627 57.4678 81.947 57.4678C82.267 57.4678 82.527 57.7278 82.527 58.0478C82.527 61.7078 85.497 64.6778 89.157 64.6778C89.477 64.6778 89.737 64.9378 89.737 65.2578C89.737 65.5778 89.477 65.8378 89.157 65.8378C85.497 65.8378 82.527 68.8078 82.527 72.4678C82.517 72.7978 82.257 73.0578 81.937 73.0578Z" fill="white"/>
<path opacity="0.15" d="M67.0469 61.6176C67.0469 61.1276 66.6469 60.7276 66.1569 60.7276C65.8369 60.7276 63.8469 60.5576 62.7769 59.7176C62.7769 59.7176 62.7869 59.7076 62.7769 59.7176C62.3769 58.2476 61.7769 56.8676 61.0469 55.5676C60.8569 54.3276 62.1369 53.4276 62.7269 52.4676C62.8269 52.2976 62.8869 52.1976 62.9269 52.1376C63.0369 51.8276 62.9769 51.4576 62.7269 51.2176C62.7269 51.2176 61.7469 49.8076 60.7369 48.8076C59.7269 47.8076 58.2069 46.6876 58.2069 46.6876C57.8669 46.3476 57.2969 46.3476 56.9569 46.6876C56.7269 46.9076 55.2169 48.1576 53.8469 48.3576C53.8269 48.3576 53.8269 48.3576 53.8269 48.3576C52.5569 47.6376 51.1369 47.0476 49.7069 46.6476H49.6869C48.6769 45.9076 48.9469 44.3676 48.6769 43.2676C48.6769 42.7776 48.2769 42.3776 47.7869 42.3776C47.7869 42.3776 46.0969 42.0776 44.6769 42.0776C43.2569 42.0776 41.3869 42.3776 41.3869 42.3776C40.8969 42.3776 40.4969 42.7776 40.4969 43.2676C40.4969 43.5876 40.3269 45.5776 39.4869 46.6476C38.0769 47.0476 36.5869 47.6776 35.3369 48.3776C34.0969 48.5676 33.1969 47.2876 32.2369 46.6976C32.0669 46.5976 31.9669 46.5376 31.9069 46.4976C31.5969 46.3876 31.2269 46.4476 30.9869 46.6976C30.9869 46.6976 29.5769 47.6776 28.5769 48.6876C27.5769 49.6976 26.4569 51.2176 26.4569 51.2176C26.1169 51.5576 26.1169 52.1276 26.4569 52.4676C26.6769 52.6876 27.9669 54.2276 28.1369 55.5676V55.5776C27.4369 56.8276 26.8269 58.3076 26.4269 59.7176C26.4269 59.7176 26.4469 59.6976 26.4269 59.7176C25.5669 60.7676 24.1469 60.4576 23.0469 60.7276C22.5569 60.7276 22.1569 61.1276 22.1569 61.6176C22.1569 61.6176 21.8569 63.3076 21.8569 64.7276C21.8569 66.1476 22.1569 68.0176 22.1569 68.0176C22.1569 68.5076 22.5569 68.9076 23.0469 68.9076C23.3669 68.9076 25.3569 69.0776 26.4269 69.9176C26.4469 69.9076 26.4369 69.9376 26.4369 69.9376C26.8469 71.3576 27.4369 72.7676 28.1469 74.0276C28.1369 74.0476 28.1469 74.0276 28.1569 74.0676C28.2769 75.3576 27.0669 76.2076 26.4769 77.1676C26.3769 77.3376 26.3169 77.4376 26.2769 77.4976C26.1669 77.8076 26.2269 78.1776 26.4769 78.4176C26.4769 78.4176 27.4569 79.8276 28.4669 80.8276C29.4769 81.8376 30.9969 82.9476 30.9969 82.9476C31.3369 83.2876 31.9069 83.2876 32.2469 82.9476C32.4669 82.7276 34.0069 81.4376 35.3469 81.2676C35.3469 81.2676 35.3369 81.2776 35.3669 81.2776C36.6569 81.9976 37.9869 82.5576 39.4469 82.9576C39.4569 82.9676 39.4969 82.9776 39.4969 82.9776C40.5069 83.7176 40.2369 85.2576 40.5069 86.3576C40.5569 86.8476 40.8369 87.1676 41.3969 87.2476C41.3969 87.2476 43.0869 87.5476 44.5069 87.5476C45.9269 87.5476 47.7969 87.2576 47.7969 87.2576C48.2869 87.1776 48.6869 86.8576 48.6869 86.3676C48.6869 86.0476 48.8569 84.0576 49.6969 82.9876C49.6969 82.9876 49.7369 82.9576 49.7669 82.9276C51.2469 82.5076 52.3769 82.0576 53.6869 81.2976C53.7569 81.2776 53.6769 81.2776 53.8369 81.2576C55.0769 81.0676 55.9769 82.3476 56.9369 82.9376C57.1069 83.0376 57.2069 83.0976 57.2669 83.1376C57.5769 83.2476 57.9469 83.1876 58.1869 82.9376C58.1869 82.9376 59.5969 81.9576 60.5969 80.9476C61.6069 79.9376 62.7169 78.4176 62.7169 78.4176C63.0569 78.0776 63.0569 77.5076 62.7169 77.1676C62.4969 76.9476 61.2069 75.4076 61.0369 74.0676C61.0169 73.9276 61.0269 73.9076 61.0469 73.8776C61.7969 72.5576 62.2669 71.5876 62.6769 70.0976C62.6769 70.0976 62.6569 70.0476 62.7569 69.9276C63.4969 68.9176 65.0369 69.1876 66.1369 68.9176C66.6269 68.9176 67.0269 68.5176 67.0269 68.0276C67.0269 68.0276 67.3269 66.3376 67.3269 64.9176C67.3269 63.4976 67.0469 61.6176 67.0469 61.6176Z" fill="#1F1D20"/>
<path d="M67.0469 61.0175C67.0469 60.5275 66.6469 60.1275 66.1569 60.1275C65.8369 60.1275 63.8469 59.9575 62.7769 59.1175C62.7769 59.1175 62.7869 59.1075 62.7769 59.1175C62.3769 57.6475 61.7769 56.2675 61.0469 54.9675C60.8569 53.7275 62.1369 52.8275 62.7269 51.8675C62.8269 51.6975 62.8869 51.5975 62.9269 51.5375C63.0369 51.2275 62.9769 50.8575 62.7269 50.6175C62.7269 50.6175 61.7469 49.2075 60.7369 48.2075C59.7269 47.2075 58.2069 46.0875 58.2069 46.0875C57.8669 45.7475 57.2969 45.7475 56.9569 46.0875C56.7269 46.3075 55.2169 47.5575 53.8469 47.7575C53.8269 47.7575 53.8269 47.7575 53.8269 47.7575C52.5569 47.0375 51.1369 46.4475 49.7069 46.0475H49.6869C48.6769 45.3075 48.9469 43.7675 48.6769 42.6675C48.6769 42.1775 48.2769 41.7775 47.7869 41.7775C47.7869 41.7775 46.0969 41.4775 44.6769 41.4775C43.2569 41.4775 41.3869 41.7775 41.3869 41.7775C40.8969 41.7775 40.4969 42.1775 40.4969 42.6675C40.4969 42.9875 40.3269 44.9775 39.4869 46.0475C38.0769 46.4475 36.5869 47.0775 35.3369 47.7775C34.0969 47.9675 33.1969 46.6875 32.2369 46.0975C32.0669 45.9975 31.9669 45.9375 31.9069 45.8975C31.5969 45.7875 31.2269 45.8475 30.9869 46.0975C30.9869 46.0975 29.5769 47.0775 28.5769 48.0875C27.5769 49.0975 26.4569 50.6175 26.4569 50.6175C26.1169 50.9575 26.1169 51.5275 26.4569 51.8675C26.6769 52.0875 27.9669 53.6275 28.1369 54.9675V54.9775C27.4369 56.2275 26.8269 57.7075 26.4269 59.1175C26.4269 59.1175 26.4469 59.0975 26.4269 59.1175C25.5669 60.1675 24.1469 59.8575 23.0469 60.1275C22.5569 60.1275 22.1569 60.5275 22.1569 61.0175C22.1569 61.0175 21.8569 62.7075 21.8569 64.1275C21.8569 65.5475 22.1569 67.4175 22.1569 67.4175C22.1569 67.9075 22.5569 68.3075 23.0469 68.3075C23.3669 68.3075 25.3569 68.4775 26.4269 69.3175C26.4469 69.3075 26.4369 69.3375 26.4369 69.3375C26.8469 70.7575 27.4369 72.1675 28.1469 73.4275C28.1369 73.4475 28.1469 73.4275 28.1569 73.4675C28.2769 74.7575 27.0669 75.6075 26.4769 76.5675C26.3769 76.7375 26.3169 76.8375 26.2769 76.8975C26.1669 77.2075 26.2269 77.5775 26.4769 77.8175C26.4769 77.8175 27.4569 79.2275 28.4669 80.2275C29.4769 81.2375 30.9969 82.3475 30.9969 82.3475C31.3369 82.6875 31.9069 82.6875 32.2469 82.3475C32.4669 82.1275 34.0069 80.8375 35.3469 80.6675C35.3469 80.6675 35.3369 80.6775 35.3669 80.6775C36.6569 81.3975 37.9869 81.9575 39.4469 82.3575C39.4569 82.3675 39.4969 82.3775 39.4969 82.3775C40.5069 83.1175 40.2369 84.6575 40.5069 85.7575C40.5569 86.2475 40.8369 86.5675 41.3969 86.6475C41.3969 86.6475 43.0869 86.9475 44.5069 86.9475C45.9269 86.9475 47.7969 86.6575 47.7969 86.6575C48.2869 86.5775 48.6869 86.2575 48.6869 85.7675C48.6869 85.4475 48.8569 83.4575 49.6969 82.3875C49.6969 82.3875 49.7369 82.3575 49.7669 82.3275C51.2469 81.9075 52.3769 81.4575 53.6869 80.6975C53.7569 80.6775 53.6769 80.6775 53.8369 80.6575C55.0769 80.4675 55.9769 81.7475 56.9369 82.3375C57.1069 82.4375 57.2069 82.4975 57.2669 82.5375C57.5769 82.6475 57.9469 82.5875 58.1869 82.3375C58.1869 82.3375 59.5969 81.3575 60.5969 80.3475C61.6069 79.3375 62.7169 77.8175 62.7169 77.8175C63.0569 77.4775 63.0569 76.9075 62.7169 76.5675C62.4969 76.3475 61.2069 74.8075 61.0369 73.4675C61.0169 73.3275 61.0269 73.3075 61.0469 73.2775C61.7969 71.9575 62.2669 70.9875 62.6769 69.4975C62.6769 69.4975 62.6569 69.4475 62.7569 69.3275C63.4969 68.3175 65.0369 68.5875 66.1369 68.3175C66.6269 68.3175 67.0269 67.9175 67.0269 67.4275C67.0269 67.4275 67.3269 65.7375 67.3269 64.3175C67.3369 62.8775 67.0469 61.0175 67.0469 61.0175Z" fill="url(#paint0_linear)"/>
<path d="M57.3069 82.5476C57.2969 82.5476 57.2969 82.5376 57.2969 82.5376C57.2969 82.5376 57.3069 82.5476 57.3069 82.5476Z" fill="#9FC2F6"/>
<path d="M57.287 82.5374C57.157 82.4574 56.957 82.3374 56.957 82.3374C57.057 82.4274 57.167 82.4974 57.287 82.5374Z" fill="#9FC2F6"/>
<path d="M57.3069 82.5474C57.4169 82.6074 57.3969 82.5974 57.3069 82.5474V82.5474Z" fill="#9FC2F6"/>
<path d="M31.927 45.8975C32.057 45.9775 32.257 46.0975 32.257 46.0975C32.167 46.0075 32.047 45.9375 31.927 45.8975Z" fill="#9FC2F6"/>
<path d="M31.917 45.8877C31.927 45.8877 31.927 45.8977 31.927 45.8977L31.917 45.8877Z" fill="#9FC2F6"/>
<path d="M31.917 45.8875C31.797 45.8275 31.827 45.8375 31.917 45.8875V45.8875Z" fill="#9FC2F6"/>
<path d="M26.2869 76.9077C26.2169 77.0277 26.2269 77.0077 26.2869 76.9077V76.9077Z" fill="#9FC2F6"/>
<path d="M26.2869 76.9075C26.2869 76.8975 26.2969 76.8975 26.2969 76.8975C26.2869 76.9075 26.2869 76.9075 26.2869 76.9075Z" fill="#9FC2F6"/>
<path d="M26.2869 76.8974C26.3669 76.7674 26.4869 76.5674 26.4869 76.5674C26.3969 76.6674 26.3269 76.7774 26.2869 76.8974Z" fill="#9FC2F6"/>
<path d="M62.9271 51.5376C62.8471 51.6676 62.7271 51.8676 62.7271 51.8676C62.8271 51.7676 62.8871 51.6576 62.9271 51.5376Z" fill="#9FC2F6"/>
<path d="M62.937 51.5273C62.937 51.5373 62.927 51.5373 62.927 51.5373C62.927 51.5273 62.937 51.5273 62.937 51.5273Z" fill="#9FC2F6"/>
<path d="M62.937 51.5274C63.007 51.4074 62.997 51.4374 62.937 51.5274V51.5274Z" fill="#9FC2F6"/>
<path d="M51.5568 75.4774H44.7668V55.1774C44.7668 54.4474 45.3568 53.8574 46.0868 53.8574H51.5468C52.2768 53.8574 52.8668 54.4474 52.8668 55.1774V74.1574C52.8768 74.8874 52.2868 75.4774 51.5568 75.4774Z" fill="url(#paint1_linear)"/>
<path d="M47.157 75.4774H40.197V60.5274C40.197 59.8874 40.717 59.3774 41.347 59.3774H47.147C47.787 59.3774 48.297 59.8974 48.297 60.5274V74.3274C48.317 74.9674 47.797 75.4774 47.157 75.4774Z" fill="url(#paint2_linear)"/>
<path d="M42.4569 75.4772H37.3569C36.5269 75.4772 35.8569 74.8072 35.8569 73.9772V66.1772C35.8569 65.3472 36.5269 64.6772 37.3569 64.6772H42.4669C43.2969 64.6772 43.9669 65.3472 43.9669 66.1772V73.9772C43.9569 74.8072 43.2869 75.4772 42.4569 75.4772Z" fill="url(#paint3_linear)"/>
<defs>
<linearGradient id="paint0_linear" x1="46.3464" y1="-13.4676" x2="43.1286" y2="130.262" gradientUnits="userSpaceOnUse">
<stop stop-color="#007ED8"/>
<stop offset="0.7065" stop-color="#002D4C"/>
</linearGradient>
<linearGradient id="paint1_linear" x1="48.7304" y1="55.8281" x2="48.903" y2="73.7756" gradientUnits="userSpaceOnUse">
<stop offset="0.00753769" stop-color="#E0A310"/>
<stop offset="1" stop-color="#CA810E"/>
</linearGradient>
<linearGradient id="paint2_linear" x1="44.0364" y1="59.9994" x2="44.5541" y2="78.9822" gradientUnits="userSpaceOnUse">
<stop offset="0.00753769" stop-color="#F2CC40"/>
<stop offset="1" stop-color="#E7B116"/>
</linearGradient>
<linearGradient id="paint3_linear" x1="39.7084" y1="65.5028" x2="40.2261" y2="77.7554" gradientUnits="userSpaceOnUse">
<stop stop-color="#F8E17B"/>
<stop offset="0.5302" stop-color="#F6D856"/>
<stop offset="1" stop-color="#F6D856"/>
</linearGradient>
</defs>
</svg>
