<?xml version="1.0" encoding="UTF-8"?>
<svg width="101px" height="101px" viewBox="0 0 101 101" version="1.1" xmlns="http://www.w3.org/2000/svg" xmlns:xlink="http://www.w3.org/1999/xlink">
    <!-- Generator: Sketch 63.1 (92452) - https://sketch.com -->
    <title>Data preparation in Power BI/Clean-transform-and-load-data-in-Power-BI</title>
    <desc>Created with Sketch.</desc>
    <defs>
        <rect id="path-1" x="0" y="0" width="94.3396226" height="94.3396226" rx="47.1698113"></rect>
        <linearGradient x1="50%" y1="0%" x2="50%" y2="100%" id="linearGradient-3">
            <stop stop-color="#4E4E57" offset="0%"></stop>
            <stop stop-color="#2E2E34" offset="100%"></stop>
        </linearGradient>
        <rect id="path-4" x="0" y="0" width="94.3396226" height="94.3396226"></rect>
        <rect id="path-5" x="0" y="0" width="100" height="100" rx="50"></rect>
        <filter x="-0.5%" y="-0.5%" width="102.0%" height="102.0%" filterUnits="objectBoundingBox" id="filter-6">
            <feOffset dx="1" dy="1" in="SourceAlpha" result="shadowOffsetOuter1"></feOffset>
            <feMorphology radius="4" operator="erode" in="SourceAlpha" result="shadowInner"></feMorphology>
            <feOffset dx="1" dy="1" in="shadowInner" result="shadowInner"></feOffset>
            <feComposite in="shadowOffsetOuter1" in2="shadowInner" operator="out" result="shadowOffsetOuter1"></feComposite>
            <feColorMatrix values="0 0 0 0 0   0 0 0 0 0   0 0 0 0 0  0 0 0 0.15 0" type="matrix" in="shadowOffsetOuter1"></feColorMatrix>
        </filter>
        <path d="M50,2.83018868 C76.0511674,2.83018868 97.1698113,23.9488326 97.1698113,50 C97.1698113,76.0511674 76.0511674,97.1698113 50,97.1698113 C23.9488326,97.1698113 2.83018868,76.0511674 2.83018868,50 C2.83018868,23.9488326 23.9488326,2.83018868 50,2.83018868 Z M50,6.60377358 C26.032926,6.60377358 6.60377358,26.032926 6.60377358,50 C6.60377358,73.967074 26.032926,93.3962264 50,93.3962264 C73.967074,93.3962264 93.3962264,73.967074 93.3962264,50 C93.3962264,26.032926 73.967074,6.60377358 50,6.60377358 Z" id="path-7"></path>
        <filter x="-24.5%" y="-24.5%" width="149.0%" height="149.0%" filterUnits="objectBoundingBox" id="filter-9">
            <feOffset dx="0" dy="2" in="SourceAlpha" result="shadowOffsetOuter1"></feOffset>
            <feGaussianBlur stdDeviation="2" in="shadowOffsetOuter1" result="shadowBlurOuter1"></feGaussianBlur>
            <feColorMatrix values="0 0 0 0 0   0 0 0 0 0   0 0 0 0 0  0 0 0 0.1 0" type="matrix" in="shadowBlurOuter1" result="shadowMatrixOuter1"></feColorMatrix>
            <feMerge>
                <feMergeNode in="shadowMatrixOuter1"></feMergeNode>
                <feMergeNode in="SourceGraphic"></feMergeNode>
            </feMerge>
        </filter>
        <linearGradient x1="50%" y1="0%" x2="50%" y2="100%" id="linearGradient-10">
            <stop stop-color="#1E5CA5" offset="0%"></stop>
            <stop stop-color="#225496" offset="100%"></stop>
        </linearGradient>
        <path d="M49,26.718107 L49,21.0720165 L43.2293388,19.0555556 L41.8119835,15.2242798 L44.6466942,9.27572016 L44.6466942,8.67078189 L42.8243802,6.85596708 L40.6983471,4.43621399 L39.8884298,4.43621399 L34.2190083,7.46090535 L30.3719008,6.35185185 L27.8409091,0 L22.2727273,0 L20.3491736,5.74691358 L16.0971074,7.46090535 L9.51652893,4.33539095 L5.56818182,8.26748971 L5.56818182,8.97325103 L8.50413223,14.6193416 L6.78305785,18.8539095 L0,21.3744856 L0,27.0205761 L0.809917355,27.0205761 L6.78305785,29.037037 L8.40289256,32.8683128 L5.36570248,39.4218107 L9.31404959,43.4547325 L10.1239669,43.4547325 L15.6921488,40.6316872 L19.6404959,42.244856 L22.0702479,49 L27.7396694,49 L27.7396694,48.1934156 L29.6632231,42.1440329 L33.5103306,40.5308642 L40.1921488,43.6563786 L44.1404959,39.7242798 L44.1404959,38.9176955 L41.3057851,33.2716049 L42.4194215,29.3395062 L49,26.718107 Z M24.9060549,31.4993477 C20.6877123,31.0464146 17.5,27.6571381 17.5,23.6249958 C17.5,19.5928535 20.6877123,16.203577 24.9060549,15.7506439 C27.1090557,15.7238157 29.2315676,16.5362895 30.7993435,18.0065289 C32.3671194,19.4767683 33.2494943,21.4822373 33.2493132,23.5748407 L33.2493132,23.5748407 C33.2779805,25.68478 32.4081697,27.7162683 30.837248,29.2083449 C29.2663262,30.7004215 27.1274888,31.5265761 24.9060549,31.4993477 Z" id="path-11"></path>
        <filter x="0.0%" y="0.0%" width="100.0%" height="100.0%" filterUnits="objectBoundingBox" id="filter-12">
            <feOffset dx="0" dy="0" in="SourceAlpha" result="shadowOffsetOuter1"></feOffset>
            <feColorMatrix values="0 0 0 0 0   0 0 0 0 0   0 0 0 0 0  0 0 0 0.1 0" type="matrix" in="shadowOffsetOuter1"></feColorMatrix>
        </filter>
    </defs>
    <g id="Badges" stroke="none" stroke-width="1" fill="none" fill-rule="evenodd">
        <g id="Data-preparation-in-Power-BI" transform="translate(-160.000000, -320.000000)">
            <g id="Data-preparation-in-Power-BI/Clean-transform-and-load-data-in-Power-BI" transform="translate(160.000000, 320.000000)">
                <g id="Badge-Plates/Circle">
                    <g id="BG" transform="translate(2.830189, 2.830189)">
                        <mask id="mask-2" fill="white">
                            <use xlink:href="#path-1"></use>
                        </mask>
                        <g></g>
                        <g id="Colors/Power-BI/BG-Solid-1" mask="url(#mask-2)">
                            <rect id="Rectangle" fill="url(#linearGradient-3)" x="0" y="0" width="94.3396226" height="94.3396226"></rect>
                            <g id="Rectangle">
                                <use fill="#F2C811" xlink:href="#path-4"></use>
                                <use fill-opacity="0.501092657" fill="#FFFFFF" xlink:href="#path-4"></use>
                            </g>
                        </g>
                    </g>
                    <g id="Border">
                        <g id="White-Border">
                            <use fill="black" fill-opacity="1" filter="url(#filter-6)" xlink:href="#path-5"></use>
                            <rect stroke="#F2F1F0" stroke-width="4" stroke-linejoin="square" x="2" y="2" width="96" height="96" rx="48"></rect>
                        </g>
                        <mask id="mask-8" fill="white">
                            <use xlink:href="#path-7"></use>
                        </mask>
                        <use id="Boarder" fill="#0078D4" fill-rule="nonzero" xlink:href="#path-7"></use>
                        <g id="Colors/Power-BI/Border" mask="url(#mask-8)" fill="#F3C900">
                            <g transform="translate(2.830189, 2.830189)" id="Rectangle">
                                <rect x="0" y="0" width="94.3396226" height="94.3396226"></rect>
                            </g>
                        </g>
                    </g>
                </g>
                <path d="M32.0574921,23.0470801 C31.6518767,23.0470801 31.335447,22.881396 31.1081938,22.5500226 C30.8809405,22.2186493 30.7673155,21.7397044 30.7673155,21.1131734 C30.7673155,20.4250758 30.88592,19.9044834 31.1231326,19.5513807 C31.3603452,19.198278 31.7025781,19.0217293 32.1498416,19.0217293 C33.006342,19.0217293 33.4345858,19.6871821 33.4345858,21.0181077 C33.4345858,21.6772328 33.3137178,22.1801703 33.0719783,22.5269353 C32.8302387,22.8737002 32.49208,23.0470801 32.0574921,23.0470801 Z M32.1199638,19.5242191 C31.6473494,19.5242191 31.4110457,20.0448115 31.4110457,21.0860118 C31.4110457,22.0602131 31.6428225,22.5473065 32.106383,22.5473065 C32.5627003,22.5473065 32.7908556,22.0520647 32.7908556,21.0615663 C32.7908556,20.0366631 32.5672272,19.5242191 32.1199638,19.5242191 Z M36.843368,19 L36.843368,22.9818923 L36.2132187,22.9818923 L36.2132187,19.7713898 C36.0991393,19.852875 35.9764606,19.9221364 35.8451788,19.9791761 C35.713897,20.0362158 35.564057,20.0864642 35.3956541,20.129923 L35.3956541,19.5921231 C35.5006796,19.5577183 35.6020819,19.5215031 35.6998642,19.4834767 C35.7976465,19.4454502 35.8940692,19.4028975 35.9891354,19.3558171 C36.0842015,19.3087367 36.1801715,19.2562248 36.2770484,19.1982798 C36.3739253,19.1403347 36.4739696,19.0742421 36.5771842,19 L36.843368,19 Z M40.4422816,23.0470801 C40.0366661,23.0470801 39.7202365,22.881396 39.4929833,22.5500226 C39.26573,22.2186493 39.152105,21.7397044 39.152105,21.1131734 C39.152105,20.4250758 39.2707095,19.9044834 39.5079221,19.5513807 C39.7451347,19.198278 40.0873676,19.0217293 40.5346311,19.0217293 C41.3911315,19.0217293 41.8193753,19.6871821 41.8193753,21.0181077 C41.8193753,21.6772328 41.6985073,22.1801703 41.4567678,22.5269353 C41.2150282,22.8737002 40.8768695,23.0470801 40.4422816,23.0470801 Z M40.5047533,19.5242191 C40.0321389,19.5242191 39.7958352,20.0448115 39.7958352,21.0860118 C39.7958352,22.0602131 40.027612,22.5473065 40.4911725,22.5473065 C40.9474898,22.5473065 41.1756451,22.0520647 41.1756451,21.0615663 C41.1756451,20.0366631 40.9520167,19.5242191 40.5047533,19.5242191 Z M45.2281575,19 L45.2281575,22.9818923 L44.5980081,22.9818923 L44.5980081,19.7713898 C44.4839288,19.852875 44.3612501,19.9221364 44.2299683,19.9791761 C44.0986865,20.0362158 43.9488465,20.0864642 43.7804436,20.129923 L43.7804436,19.5921231 C43.8854691,19.5577183 43.9868714,19.5215031 44.0846537,19.4834767 C44.182436,19.4454502 44.2788587,19.4028975 44.3739249,19.3558171 C44.468991,19.3087367 44.564961,19.2562248 44.6618379,19.1982798 C44.7587148,19.1403347 44.8587591,19.0742421 44.9619737,19 L45.2281575,19 Z M48.8270711,23.0470801 C48.4214556,23.0470801 48.105026,22.881396 47.8777727,22.5500226 C47.6505195,22.2186493 47.5368945,21.7397044 47.5368945,21.1131734 C47.5368945,20.4250758 47.655499,19.9044834 47.8927116,19.5513807 C48.1299242,19.198278 48.4721571,19.0217293 48.9194206,19.0217293 C49.775921,19.0217293 50.2041648,19.6871821 50.2041648,21.0181077 C50.2041648,21.6772328 50.0832968,22.1801703 49.8415573,22.5269353 C49.5998177,22.8737002 49.261659,23.0470801 48.8270711,23.0470801 Z M48.8895428,19.5242191 C48.4169284,19.5242191 48.1806247,20.0448115 48.1806247,21.0860118 C48.1806247,22.0602131 48.4124015,22.5473065 48.875962,22.5473065 C49.3322793,22.5473065 49.5604346,22.0520647 49.5604346,21.0615663 C49.5604346,20.0366631 49.3368062,19.5242191 48.8895428,19.5242191 Z M53.612947,19 L53.612947,22.9818923 L52.9827976,22.9818923 L52.9827976,19.7713898 C52.8687183,19.852875 52.7460396,19.9221364 52.6147578,19.9791761 C52.483476,20.0362158 52.333636,20.0864642 52.1652331,20.129923 L52.1652331,19.5921231 C52.2702586,19.5577183 52.3716609,19.5215031 52.4694432,19.4834767 C52.5672255,19.4454502 52.6636482,19.4028975 52.7587144,19.3558171 C52.8537805,19.3087367 52.9497505,19.2562248 53.0466274,19.1982798 C53.1435043,19.1403347 53.2435486,19.0742421 53.3467632,19 L53.612947,19 Z M57.2118606,23.0470801 C56.8062451,23.0470801 56.4898155,22.881396 56.2625622,22.5500226 C56.035309,22.2186493 55.921684,21.7397044 55.921684,21.1131734 C55.921684,20.4250758 56.0402885,19.9044834 56.2775011,19.5513807 C56.5147137,19.198278 56.8569466,19.0217293 57.30421,19.0217293 C58.1607105,19.0217293 58.5889543,19.6871821 58.5889543,21.0181077 C58.5889543,21.6772328 58.4680863,22.1801703 58.2263468,22.5269353 C57.9846072,22.8737002 57.6464485,23.0470801 57.2118606,23.0470801 Z M57.2743323,19.5242191 C56.8017179,19.5242191 56.5654142,20.0448115 56.5654142,21.0860118 C56.5654142,22.0602131 56.797191,22.5473065 57.2607515,22.5473065 C57.7170688,22.5473065 57.9452241,22.0520647 57.9452241,21.0615663 C57.9452241,20.0366631 57.7215957,19.5242191 57.2743323,19.5242191 Z M61.9977365,19 L61.9977365,22.9818923 L61.3675871,22.9818923 L61.3675871,19.7713898 C61.2535078,19.852875 61.1308291,19.9221364 60.9995473,19.9791761 C60.8682655,20.0362158 60.7184255,20.0864642 60.5500226,20.129923 L60.5500226,19.5921231 C60.6550481,19.5577183 60.7564504,19.5215031 60.8542327,19.4834767 C60.952015,19.4454502 61.0484377,19.4028975 61.1435038,19.3558171 C61.23857,19.3087367 61.33454,19.2562248 61.4314169,19.1982798 C61.5282938,19.1403347 61.6283381,19.0742421 61.7315527,19 L61.9977365,19 Z M65.5966501,23.0470801 C65.1910346,23.0470801 64.874605,22.881396 64.6473517,22.5500226 C64.4200985,22.2186493 64.3064735,21.7397044 64.3064735,21.1131734 C64.3064735,20.4250758 64.425078,19.9044834 64.6622906,19.5513807 C64.8995032,19.198278 65.2417361,19.0217293 65.6889995,19.0217293 C66.5455,19.0217293 66.9737438,19.6871821 66.9737438,21.0181077 C66.9737438,21.6772328 66.8528758,22.1801703 66.6111363,22.5269353 C66.3693967,22.8737002 66.031238,23.0470801 65.5966501,23.0470801 Z M65.6591218,19.5242191 C65.1865074,19.5242191 64.9502037,20.0448115 64.9502037,21.0860118 C64.9502037,22.0602131 65.1819805,22.5473065 65.645541,22.5473065 C66.1018583,22.5473065 66.3300136,22.0520647 66.3300136,21.0615663 C66.3300136,20.0366631 66.1063852,19.5242191 65.6591218,19.5242191 Z M70.382526,19 L70.382526,22.9818923 L69.7523766,22.9818923 L69.7523766,19.7713898 C69.6382973,19.852875 69.5156186,19.9221364 69.3843368,19.9791761 C69.253055,20.0362158 69.103215,20.0864642 68.9348121,20.129923 L68.9348121,19.5921231 C69.0398376,19.5577183 69.1412399,19.5215031 69.2390222,19.4834767 C69.3368045,19.4454502 69.4332272,19.4028975 69.5282933,19.3558171 C69.6233595,19.3087367 69.7193295,19.2562248 69.8162064,19.1982798 C69.9130833,19.1403347 70.0131276,19.0742421 70.1163422,19 L70.382526,19 Z M28.4585785,26.6487098 L28.4585785,30.6306021 L27.8284292,30.6306021 L27.8284292,27.4200996 C27.7143498,27.5015848 27.5916711,27.5708463 27.4603893,27.6278859 C27.3291075,27.6849256 27.1792675,27.7351741 27.0108646,27.7786329 L27.0108646,27.240833 C27.1158901,27.2064281 27.2172924,27.170213 27.3150747,27.1321865 C27.412857,27.0941601 27.5092797,27.0516073 27.6043459,27.0045269 C27.699412,26.9574466 27.795382,26.9049346 27.8922589,26.8469896 C27.9891358,26.7890445 28.0891801,26.7229519 28.1923947,26.6487098 L28.4585785,26.6487098 Z M32.2258941,30.6306021 L31.5957447,30.6306021 L31.5957447,27.4200996 C31.4816653,27.5015848 31.3589866,27.5708463 31.2277048,27.6278859 C31.0964231,27.6849256 30.946583,27.7351741 30.7781802,27.7786329 L30.7781802,27.240833 C30.8832056,27.2064281 30.9846079,27.170213 31.0823902,27.1321865 C31.1801725,27.0941601 31.2765953,27.0516073 31.3716614,27.0045269 C31.4667275,26.9574466 31.5626976,26.9049346 31.6595745,26.8469896 C31.7564514,26.7890445 31.8564956,26.7229519 31.9597103,26.6487098 L32.2258941,30.6306021 Z M35.8248076,30.69579 C35.4191922,30.69579 35.1027626,30.5301058 34.8755093,30.1987325 C34.648256,29.8673591 34.5346311,29.3884142 34.5346311,28.7618832 C34.5346311,28.0737856 34.6532356,27.5531933 34.8904482,27.2000905 C35.1276608,26.8469878 35.4698936,26.6704391 35.9171571,26.6704391 C36.7736575,26.6704391 37.2019013,27.3358919 37.2019013,28.6668176 C37.2019013,29.3259426 37.0810333,29.8288801 36.8392938,30.1756451 C36.5975542,30.5224101 36.2593956,30.69579 35.8248076,30.69579 Z M35.8872793,27.1729289 C35.4146649,27.1729289 35.1783612,27.6935213 35.1783612,28.7347216 C35.1783612,29.7089229 35.410138,30.1960163 35.8736985,30.1960163 C36.3300159,30.1960163 36.5581711,29.7007745 36.5581711,28.7102761 C36.5581711,27.6853729 36.3345428,27.1729289 35.8872793,27.1729289 Z M40.6106836,26.6487098 L40.6106836,30.6306021 L39.9805342,30.6306021 L39.9805342,27.4200996 C39.8664548,27.5015848 39.7437761,27.5708463 39.6124943,27.6278859 C39.4812126,27.6849256 39.3313725,27.7351741 39.1629697,27.7786329 L39.1629697,27.240833 C39.2679951,27.2064281 39.3693974,27.170213 39.4671797,27.1321865 C39.564962,27.0941601 39.6613848,27.0516073 39.7564509,27.0045269 C39.851517,26.9574466 39.9474871,26.9049346 40.044364,26.8469896 C40.1412409,26.7890445 40.2412851,26.7229519 40.3444998,26.6487098 L40.6106836,26.6487098 Z M44.2095971,30.69579 C43.8039817,30.69579 43.4875521,30.5301058 43.2602988,30.1987325 C43.0330455,29.8673591 42.9194206,29.3884142 42.9194206,28.7618832 C42.9194206,28.0737856 43.0380251,27.5531933 43.2752377,27.2000905 C43.5124503,26.8469878 43.8546831,26.6704391 44.3019466,26.6704391 C45.158447,26.6704391 45.5866908,27.3358919 45.5866908,28.6668176 C45.5866908,29.3259426 45.4658228,29.8288801 45.2240833,30.1756451 C44.9823437,30.5224101 44.6441851,30.69579 44.2095971,30.69579 Z M44.2720688,27.1729289 C43.7994544,27.1729289 43.5631507,27.6935213 43.5631507,28.7347216 C43.5631507,29.7089229 43.7949275,30.1960163 44.258488,30.1960163 C44.7148054,30.1960163 44.9429606,29.7007745 44.9429606,28.7102761 C44.9429606,27.6853729 44.7193322,27.1729289 44.2720688,27.1729289 Z M48.9954731,26.6487098 L48.9954731,30.6306021 L48.3653237,30.6306021 L48.3653237,27.4200996 C48.2512443,27.5015848 48.1285656,27.5708463 47.9972838,27.6278859 C47.8660021,27.6849256 47.716162,27.7351741 47.5477592,27.7786329 L47.5477592,27.240833 C47.6527846,27.2064281 47.7541869,27.170213 47.8519692,27.1321865 C47.9497515,27.0941601 48.0461743,27.0516073 48.1412404,27.0045269 C48.2363065,26.9574466 48.3322766,26.9049346 48.4291535,26.8469896 C48.5260304,26.7890445 48.6260746,26.7229519 48.7292893,26.6487098 L48.9954731,26.6487098 Z M52.5943866,30.69579 C52.1887712,30.69579 51.8723416,30.5301058 51.6450883,30.1987325 C51.417835,29.8673591 51.30421,29.3884142 51.30421,28.7618832 C51.30421,28.0737856 51.4228146,27.5531933 51.6600272,27.2000905 C51.8972398,26.8469878 52.2394726,26.6704391 52.6867361,26.6704391 C53.5432365,26.6704391 53.9714803,27.3358919 53.9714803,28.6668176 C53.9714803,29.3259426 53.8506123,29.8288801 53.6088728,30.1756451 C53.3671332,30.5224101 53.0289746,30.69579 52.5943866,30.69579 Z M52.6568583,27.1729289 C52.1842439,27.1729289 51.9479402,27.6935213 51.9479402,28.7347216 C51.9479402,29.7089229 52.179717,30.1960163 52.6432775,30.1960163 C53.0995949,30.1960163 53.3277501,29.7007745 53.3277501,28.7102761 C53.3277501,27.6853729 53.1041217,27.1729289 52.6568583,27.1729289 Z M57.3802626,26.6487098 L57.3802626,30.6306021 L56.7501132,30.6306021 L56.7501132,27.4200996 C56.6360338,27.5015848 56.5133551,27.5708463 56.3820733,27.6278859 C56.2507916,27.6849256 56.1009515,27.7351741 55.9325487,27.7786329 L55.9325487,27.240833 C56.0375741,27.2064281 56.1389764,27.170213 56.2367587,27.1321865 C56.334541,27.0941601 56.4309638,27.0516073 56.5260299,27.0045269 C56.621096,26.9574466 56.7170661,26.9049346 56.813943,26.8469896 C56.9108199,26.7890445 57.0108641,26.7229519 57.1140788,26.6487098 L57.3802626,26.6487098 Z M60.9791761,30.69579 C60.5735607,30.69579 60.2571311,30.5301058 60.0298778,30.1987325 C59.8026245,29.8673591 59.6889995,29.3884142 59.6889995,28.7618832 C59.6889995,28.0737856 59.8076041,27.5531933 60.0448167,27.2000905 C60.2820293,26.8469878 60.6242621,26.6704391 61.0715256,26.6704391 C61.928026,26.6704391 62.3562698,27.3358919 62.3562698,28.6668176 C62.3562698,29.3259426 62.2354018,29.8288801 61.9936623,30.1756451 C61.7519227,30.5224101 61.4137641,30.69579 60.9791761,30.69579 Z M61.0416478,27.1729289 C60.5690334,27.1729289 60.3327297,27.6935213 60.3327297,28.7347216 C60.3327297,29.7089229 60.5645065,30.1960163 61.028067,30.1960163 C61.4843844,30.1960163 61.7125396,29.7007745 61.7125396,28.7102761 C61.7125396,27.6853729 61.4889112,27.1729289 61.0416478,27.1729289 Z M65.7650521,26.6487098 L65.7650521,30.6306021 L65.1349027,30.6306021 L65.1349027,27.4200996 C65.0208233,27.5015848 64.8981446,27.5708463 64.7668628,27.6278859 C64.6355811,27.6849256 64.485741,27.7351741 64.3173382,27.7786329 L64.3173382,27.240833 C64.4223636,27.2064281 64.5237659,27.170213 64.6215482,27.1321865 C64.7193305,27.0941601 64.8157533,27.0516073 64.9108194,27.0045269 C65.0058855,26.9574466 65.1018556,26.9049346 65.1987325,26.8469896 C65.2956094,26.7890445 65.3956536,26.7229519 65.4988683,26.6487098 L65.7650521,26.6487098 Z M69.3639656,30.69579 C68.9583502,30.69579 68.6419206,30.5301058 68.4146673,30.1987325 C68.187414,29.8673591 68.073789,29.3884142 68.073789,28.7618832 C68.073789,28.0737856 68.1923936,27.5531933 68.4296062,27.2000905 C68.6668188,26.8469878 69.0090516,26.6704391 69.4563151,26.6704391 C70.3128155,26.6704391 70.7410593,27.3358919 70.7410593,28.6668176 C70.7410593,29.3259426 70.6201913,29.8288801 70.3784518,30.1756451 C70.1367122,30.5224101 69.7985536,30.69579 69.3639656,30.69579 Z M69.4264373,27.1729289 C68.9538229,27.1729289 68.7175192,27.6935213 68.7175192,28.7347216 C68.7175192,29.7089229 68.949296,30.1960163 69.4128565,30.1960163 C69.8691739,30.1960163 70.0973291,29.7007745 70.0973291,28.7102761 C70.0973291,27.6853729 69.8737007,27.1729289 69.4264373,27.1729289 Z M74.1498416,26.6487098 L74.1498416,30.6306021 L73.5196922,30.6306021 L73.5196922,27.4200996 C73.4056128,27.5015848 73.2829341,27.5708463 73.1516523,27.6278859 C73.0203706,27.6849256 72.8705305,27.7351741 72.7021277,27.7786329 L72.7021277,27.240833 C72.8071531,27.2064281 72.9085554,27.170213 73.0063377,27.1321865 C73.10412,27.0941601 73.2005428,27.0516073 73.2956089,27.0045269 C73.390675,26.9574466 73.4866451,26.9049346 73.583522,26.8469896 C73.6803989,26.7890445 73.7804431,26.7229519 73.8836578,26.6487098 L74.1498416,26.6487098 Z M28.2901766,38.3444998 C27.8845611,38.3444998 27.5681315,38.1788156 27.3408782,37.8474423 C27.1136249,37.516069 27,37.037124 27,36.410593 C27,35.7224954 27.1186045,35.2019031 27.3558171,34.8488004 C27.5930297,34.4956976 27.9352626,34.3191489 28.382526,34.3191489 C29.2390265,34.3191489 29.6672703,34.9846018 29.6672703,36.3155274 C29.6672703,36.9746525 29.5464023,37.4775899 29.3046627,37.8243549 C29.0629232,38.1711199 28.7247645,38.3444998 28.2901766,38.3444998 Z M28.3526483,34.8216388 C27.8800339,34.8216388 27.6437302,35.3422311 27.6437302,36.3834314 C27.6437302,37.3576328 27.875507,37.8447261 28.3390675,37.8447261 C28.7953848,37.8447261 29.0235401,37.3494844 29.0235401,36.358986 C29.0235401,35.3340827 28.7999117,34.8216388 28.3526483,34.8216388 Z M33.0760525,34.2974196 L33.0760525,38.2793119 L32.4459031,38.2793119 L32.4459031,35.0688094 C32.3318238,35.1502947 32.2091451,35.2195561 32.0778633,35.2765957 C31.9465815,35.3336354 31.7967414,35.3838839 31.6283386,35.4273427 L31.6283386,34.8895428 C31.733364,34.8551379 31.8347664,34.8189228 31.9325487,34.7808963 C32.030331,34.7428699 32.1267537,34.7003171 32.2218198,34.6532368 C32.3168859,34.6061564 32.412856,34.5536445 32.5097329,34.4956994 C32.6066098,34.4377544 32.7066541,34.3716618 32.8098687,34.2974196 L33.0760525,34.2974196 Z M36.674966,38.3444998 C36.2693506,38.3444998 35.952921,38.1788156 35.7256677,37.8474423 C35.4984144,37.516069 35.3847895,37.037124 35.3847895,36.410593 C35.3847895,35.7224954 35.503394,35.2019031 35.7406066,34.8488004 C35.9778192,34.4956976 36.3200521,34.3191489 36.7673155,34.3191489 C37.623816,34.3191489 38.0520598,34.9846018 38.0520598,36.3155274 C38.0520598,36.9746525 37.9311918,37.4775899 37.6894522,37.8243549 C37.4477127,38.1711199 37.109554,38.3444998 36.674966,38.3444998 Z M36.7374378,34.8216388 C36.2648233,34.8216388 36.0285197,35.3422311 36.0285197,36.3834314 C36.0285197,37.3576328 36.2602965,37.8447261 36.7238569,37.8447261 C37.1801743,37.8447261 37.4083296,37.3494844 37.4083296,36.358986 C37.4083296,35.3340827 37.1847012,34.8216388 36.7374378,34.8216388 Z M41.460842,34.2974196 L41.460842,38.2793119 L40.8306926,38.2793119 L40.8306926,35.0688094 C40.7166133,35.1502947 40.5939346,35.2195561 40.4626528,35.2765957 C40.331371,35.3336354 40.1815309,35.3838839 40.0131281,35.4273427 L40.0131281,34.8895428 C40.1181535,34.8551379 40.2195559,34.8189228 40.3173382,34.7808963 C40.4151205,34.7428699 40.5115432,34.7003171 40.6066093,34.6532368 C40.7016754,34.6061564 40.7976455,34.5536445 40.8945224,34.4956994 C40.9913993,34.4377544 41.0914436,34.3716618 41.1946582,34.2974196 L41.460842,34.2974196 Z M45.0597555,38.3444998 C44.6541401,38.3444998 44.3377105,38.1788156 44.1104572,37.8474423 C43.8832039,37.516069 43.769579,37.037124 43.769579,36.410593 C43.769579,35.7224954 43.8881835,35.2019031 44.1253961,34.8488004 C44.3626087,34.4956976 44.7048416,34.3191489 45.152105,34.3191489 C46.0086055,34.3191489 46.4368493,34.9846018 46.4368493,36.3155274 C46.4368493,36.9746525 46.3159813,37.4775899 46.0742417,37.8243549 C45.8325022,38.1711199 45.4943435,38.3444998 45.0597555,38.3444998 Z M45.1222273,34.8216388 C44.6496128,34.8216388 44.4133092,35.3422311 44.4133092,36.3834314 C44.4133092,37.3576328 44.645086,37.8447261 45.1086464,37.8447261 C45.5649638,37.8447261 45.7931191,37.3494844 45.7931191,36.358986 C45.7931191,35.3340827 45.5694907,34.8216388 45.1222273,34.8216388 Z M49.8456315,34.2974196 L49.8456315,38.2793119 L49.2154821,38.2793119 L49.2154821,35.0688094 C49.1014028,35.1502947 48.9787241,35.2195561 48.8474423,35.2765957 C48.7161605,35.3336354 48.5663204,35.3838839 48.3979176,35.4273427 L48.3979176,34.8895428 C48.502943,34.8551379 48.6043454,34.8189228 48.7021277,34.7808963 C48.79991,34.7428699 48.8963327,34.7003171 48.9913988,34.6532368 C49.0864649,34.6061564 49.182435,34.5536445 49.2793119,34.4956994 C49.3761888,34.4377544 49.4762331,34.3716618 49.5794477,34.2974196 L49.8456315,34.2974196 Z M53.444545,38.3444998 C53.0389296,38.3444998 52.7225,38.1788156 52.4952467,37.8474423 C52.2679934,37.516069 52.1543685,37.037124 52.1543685,36.410593 C52.1543685,35.7224954 52.272973,35.2019031 52.5101856,34.8488004 C52.7473982,34.4956976 53.0896311,34.3191489 53.5368945,34.3191489 C54.393395,34.3191489 54.8216388,34.9846018 54.8216388,36.3155274 C54.8216388,36.9746525 54.7007708,37.4775899 54.4590312,37.8243549 C54.2172917,38.1711199 53.879133,38.3444998 53.444545,38.3444998 Z M53.5070167,34.8216388 C53.0344023,34.8216388 52.7980987,35.3422311 52.7980987,36.3834314 C52.7980987,37.3576328 53.0298755,37.8447261 53.4934359,37.8447261 C53.9497533,37.8447261 54.1779086,37.3494844 54.1779086,36.358986 C54.1779086,35.3340827 53.9542802,34.8216388 53.5070167,34.8216388 Z M58.230421,34.2974196 L58.230421,38.2793119 L57.6002716,38.2793119 L57.6002716,35.0688094 C57.4861923,35.1502947 57.3635136,35.2195561 57.2322318,35.2765957 C57.10095,35.3336354 56.9511099,35.3838839 56.7827071,35.4273427 L56.7827071,34.8895428 C56.8877325,34.8551379 56.9891349,34.8189228 57.0869172,34.7808963 C57.1846994,34.7428699 57.2811222,34.7003171 57.3761883,34.6532368 C57.4712544,34.6061564 57.5672245,34.5536445 57.6641014,34.4956994 C57.7609783,34.4377544 57.8610226,34.3716618 57.9642372,34.2974196 L58.230421,34.2974196 Z M61.8293345,38.3444998 C61.4237191,38.3444998 61.1072895,38.1788156 60.8800362,37.8474423 C60.6527829,37.516069 60.539158,37.037124 60.539158,36.410593 C60.539158,35.7224954 60.6577625,35.2019031 60.8949751,34.8488004 C61.1321877,34.4956976 61.4744206,34.3191489 61.921684,34.3191489 C62.7781845,34.3191489 63.2064282,34.9846018 63.2064282,36.3155274 C63.2064282,36.9746525 63.0855603,37.4775899 62.8438207,37.8243549 C62.6020812,38.1711199 62.2639225,38.3444998 61.8293345,38.3444998 Z M61.8918062,34.8216388 C61.4191918,34.8216388 61.1828882,35.3422311 61.1828882,36.3834314 C61.1828882,37.3576328 61.414665,37.8447261 61.8782254,37.8447261 C62.3345428,37.8447261 62.5626981,37.3494844 62.5626981,36.358986 C62.5626981,35.3340827 62.3390697,34.8216388 61.8918062,34.8216388 Z M66.6152105,34.2974196 L66.6152105,38.2793119 L65.9850611,38.2793119 L65.9850611,35.0688094 C65.8709818,35.1502947 65.7483031,35.2195561 65.6170213,35.2765957 C65.4857395,35.3336354 65.3358994,35.3838839 65.1674966,35.4273427 L65.1674966,34.8895428 C65.272522,34.8551379 65.3739244,34.8189228 65.4717067,34.7808963 C65.5694889,34.7428699 65.6659117,34.7003171 65.7609778,34.6532368 C65.8560439,34.6061564 65.952014,34.5536445 66.0488909,34.4956994 C66.1457678,34.4377544 66.2458121,34.3716618 66.3490267,34.2974196 L66.6152105,34.2974196 Z M70.214124,38.3444998 C69.8085086,38.3444998 69.492079,38.1788156 69.2648257,37.8474423 C69.0375724,37.516069 68.9239475,37.037124 68.9239475,36.410593 C68.9239475,35.7224954 69.042552,35.2019031 69.2797646,34.8488004 C69.5169772,34.4956976 69.8592101,34.3191489 70.3064735,34.3191489 C71.162974,34.3191489 71.5912177,34.9846018 71.5912177,36.3155274 C71.5912177,36.9746525 71.4703498,37.4775899 71.2286102,37.8243549 C70.9868707,38.1711199 70.648712,38.3444998 70.214124,38.3444998 Z M70.2765957,34.8216388 C69.8039813,34.8216388 69.5676777,35.3422311 69.5676777,36.3834314 C69.5676777,37.3576328 69.7994544,37.8447261 70.2630149,37.8447261 C70.7193323,37.8447261 70.9474876,37.3494844 70.9474876,36.358986 C70.9474876,35.3340827 70.7238592,34.8216388 70.2765957,34.8216388 Z M75,34.2974196 L75,38.2793119 L74.3698506,38.2793119 L74.3698506,35.0688094 C74.2557713,35.1502947 74.1330926,35.2195561 74.0018108,35.2765957 C73.870529,35.3336354 73.7206889,35.3838839 73.5522861,35.4273427 L73.5522861,34.8895428 C73.6573115,34.8551379 73.7587139,34.8189228 73.8564962,34.7808963 C73.9542784,34.7428699 74.0507012,34.7003171 74.1457673,34.6532368 C74.2408334,34.6061564 74.3368035,34.5536445 74.4336804,34.4956994 C74.5305573,34.4377544 74.6306016,34.3716618 74.7338162,34.2974196 L75,34.2974196 Z M28.2901766,45.9932096 C27.8845611,45.9932096 27.5681315,45.8275254 27.3408782,45.4961521 C27.1136249,45.1647788 27,44.6858338 27,44.0593029 C27,43.3712053 27.1186045,42.8506129 27.3558171,42.4975102 C27.5930297,42.1444075 27.9352626,41.9678588 28.382526,41.9678588 C29.2390265,41.9678588 29.6672703,42.6333116 29.6672703,43.9642372 C29.6672703,44.6233623 29.5464023,45.1262998 29.3046627,45.4730647 C29.0629232,45.8198297 28.7247645,45.9932096 28.2901766,45.9932096 Z M28.3526483,42.4703486 C27.8800339,42.4703486 27.6437302,42.9909409 27.6437302,44.0321412 C27.6437302,45.0063426 27.875507,45.4934359 28.3390675,45.4934359 C28.7953848,45.4934359 29.0235401,44.9981942 29.0235401,44.0076958 C29.0235401,42.9827925 28.7999117,42.4703486 28.3526483,42.4703486 Z M33.0760525,41.9461295 L33.0760525,45.9280217 L32.4459031,45.9280217 L32.4459031,42.7175192 C32.3318238,42.7990045 32.2091451,42.8682659 32.0778633,42.9253056 C31.9465815,42.9823452 31.7967414,43.0325937 31.6283386,43.0760525 L31.6283386,42.5382526 C31.733364,42.5038477 31.8347664,42.4676326 31.9325487,42.4296062 C32.030331,42.3915797 32.1267537,42.3490269 32.2218198,42.3019466 C32.3168859,42.2548662 32.412856,42.2023543 32.5097329,42.1444092 C32.6066098,42.0864642 32.7066541,42.0203716 32.8098687,41.9461295 L33.0760525,41.9461295 Z M36.674966,45.9932096 C36.2693506,45.9932096 35.952921,45.8275254 35.7256677,45.4961521 C35.4984144,45.1647788 35.3847895,44.6858338 35.3847895,44.0593029 C35.3847895,43.3712053 35.503394,42.8506129 35.7406066,42.4975102 C35.9778192,42.1444075 36.3200521,41.9678588 36.7673155,41.9678588 C37.623816,41.9678588 38.0520598,42.6333116 38.0520598,43.9642372 C38.0520598,44.6233623 37.9311918,45.1262998 37.6894522,45.4730647 C37.4477127,45.8198297 37.109554,45.9932096 36.674966,45.9932096 Z M36.7374378,42.4703486 C36.2648233,42.4703486 36.0285197,42.9909409 36.0285197,44.0321412 C36.0285197,45.0063426 36.2602965,45.4934359 36.7238569,45.4934359 C37.1801743,45.4934359 37.4083296,44.9981942 37.4083296,44.0076958 C37.4083296,42.9827925 37.1847012,42.4703486 36.7374378,42.4703486 Z M41.460842,41.9461295 L41.460842,45.9280217 L40.8306926,45.9280217 L40.8306926,42.7175192 C40.7166133,42.7990045 40.5939346,42.8682659 40.4626528,42.9253056 C40.331371,42.9823452 40.1815309,43.0325937 40.0131281,43.0760525 L40.0131281,42.5382526 C40.1181535,42.5038477 40.2195559,42.4676326 40.3173382,42.4296062 C40.4151205,42.3915797 40.5115432,42.3490269 40.6066093,42.3019466 C40.7016754,42.2548662 40.7976455,42.2023543 40.8945224,42.1444092 C40.9913993,42.0864642 41.0914436,42.0203716 41.1946582,41.9461295 L41.460842,41.9461295 Z M45.0597555,45.9932096 C44.6541401,45.9932096 44.3377105,45.8275254 44.1104572,45.4961521 C43.8832039,45.1647788 43.769579,44.6858338 43.769579,44.0593029 C43.769579,43.3712053 43.8881835,42.8506129 44.1253961,42.4975102 C44.3626087,42.1444075 44.7048416,41.9678588 45.152105,41.9678588 C46.0086055,41.9678588 46.4368493,42.6333116 46.4368493,43.9642372 C46.4368493,44.6233623 46.3159813,45.1262998 46.0742417,45.4730647 C45.8325022,45.8198297 45.4943435,45.9932096 45.0597555,45.9932096 Z M45.1222273,42.4703486 C44.6496128,42.4703486 44.4133092,42.9909409 44.4133092,44.0321412 C44.4133092,45.0063426 44.645086,45.4934359 45.1086464,45.4934359 C45.5649638,45.4934359 45.7931191,44.9981942 45.7931191,44.0076958 C45.7931191,42.9827925 45.5694907,42.4703486 45.1222273,42.4703486 Z M49.8456315,41.9461295 L49.8456315,45.9280217 L49.2154821,45.9280217 L49.2154821,42.7175192 C49.1014028,42.7990045 48.9787241,42.8682659 48.8474423,42.9253056 C48.7161605,42.9823452 48.5663204,43.0325937 48.3979176,43.0760525 L48.3979176,42.5382526 C48.502943,42.5038477 48.6043454,42.4676326 48.7021277,42.4296062 C48.79991,42.3915797 48.8963327,42.3490269 48.9913988,42.3019466 C49.0864649,42.2548662 49.182435,42.2023543 49.2793119,42.1444092 C49.3761888,42.0864642 49.4762331,42.0203716 49.5794477,41.9461295 L49.8456315,41.9461295 Z M53.444545,45.9932096 C53.0389296,45.9932096 52.7225,45.8275254 52.4952467,45.4961521 C52.2679934,45.1647788 52.1543685,44.6858338 52.1543685,44.0593029 C52.1543685,43.3712053 52.272973,42.8506129 52.5101856,42.4975102 C52.7473982,42.1444075 53.0896311,41.9678588 53.5368945,41.9678588 C54.393395,41.9678588 54.8216388,42.6333116 54.8216388,43.9642372 C54.8216388,44.6233623 54.7007708,45.1262998 54.4590312,45.4730647 C54.2172917,45.8198297 53.879133,45.9932096 53.444545,45.9932096 Z M53.5070167,42.4703486 C53.0344023,42.4703486 52.7980987,42.9909409 52.7980987,44.0321412 C52.7980987,45.0063426 53.0298755,45.4934359 53.4934359,45.4934359 C53.9497533,45.4934359 54.1779086,44.9981942 54.1779086,44.0076958 C54.1779086,42.9827925 53.9542802,42.4703486 53.5070167,42.4703486 Z M58.230421,41.9461295 L58.230421,45.9280217 L57.6002716,45.9280217 L57.6002716,42.7175192 C57.4861923,42.7990045 57.3635136,42.8682659 57.2322318,42.9253056 C57.10095,42.9823452 56.9511099,43.0325937 56.7827071,43.0760525 L56.7827071,42.5382526 C56.8877325,42.5038477 56.9891349,42.4676326 57.0869172,42.4296062 C57.1846994,42.3915797 57.2811222,42.3490269 57.3761883,42.3019466 C57.4712544,42.2548662 57.5672245,42.2023543 57.6641014,42.1444092 C57.7609783,42.0864642 57.8610226,42.0203716 57.9642372,41.9461295 L58.230421,41.9461295 Z M61.8293345,45.9932096 C61.4237191,45.9932096 61.1072895,45.8275254 60.8800362,45.4961521 C60.6527829,45.1647788 60.539158,44.6858338 60.539158,44.0593029 C60.539158,43.3712053 60.6577625,42.8506129 60.8949751,42.4975102 C61.1321877,42.1444075 61.4744206,41.9678588 61.921684,41.9678588 C62.7781845,41.9678588 63.2064282,42.6333116 63.2064282,43.9642372 C63.2064282,44.6233623 63.0855603,45.1262998 62.8438207,45.4730647 C62.6020812,45.8198297 62.2639225,45.9932096 61.8293345,45.9932096 Z M61.8918062,42.4703486 C61.4191918,42.4703486 61.1828882,42.9909409 61.1828882,44.0321412 C61.1828882,45.0063426 61.414665,45.4934359 61.8782254,45.4934359 C62.3345428,45.4934359 62.5626981,44.9981942 62.5626981,44.0076958 C62.5626981,42.9827925 62.3390697,42.4703486 61.8918062,42.4703486 Z M66.6152105,41.9461295 L66.6152105,45.9280217 L65.9850611,45.9280217 L65.9850611,42.7175192 C65.8709818,42.7990045 65.7483031,42.8682659 65.6170213,42.9253056 C65.4857395,42.9823452 65.3358994,43.0325937 65.1674966,43.0760525 L65.1674966,42.5382526 C65.272522,42.5038477 65.3739244,42.4676326 65.4717067,42.4296062 C65.5694889,42.3915797 65.6659117,42.3490269 65.7609778,42.3019466 C65.8560439,42.2548662 65.952014,42.2023543 66.0488909,42.1444092 C66.1457678,42.0864642 66.2458121,42.0203716 66.3490267,41.9461295 L66.6152105,41.9461295 Z M70.214124,45.9932096 C69.8085086,45.9932096 69.492079,45.8275254 69.2648257,45.4961521 C69.0375724,45.1647788 68.9239475,44.6858338 68.9239475,44.0593029 C68.9239475,43.3712053 69.042552,42.8506129 69.2797646,42.4975102 C69.5169772,42.1444075 69.8592101,41.9678588 70.3064735,41.9678588 C71.162974,41.9678588 71.5912177,42.6333116 71.5912177,43.9642372 C71.5912177,44.6233623 71.4703498,45.1262998 71.2286102,45.4730647 C70.9868707,45.8198297 70.648712,45.9932096 70.214124,45.9932096 Z M70.2765957,42.4703486 C69.8039813,42.4703486 69.5676777,42.9909409 69.5676777,44.0321412 C69.5676777,45.0063426 69.7994544,45.4934359 70.2630149,45.4934359 C70.7193323,45.4934359 70.9474876,44.9981942 70.9474876,44.0076958 C70.9474876,42.9827925 70.7238592,42.4703486 70.2765957,42.4703486 Z M75,41.9461295 L75,45.9280217 L74.3698506,45.9280217 L74.3698506,42.7175192 C74.2557713,42.7990045 74.1330926,42.8682659 74.0018108,42.9253056 C73.870529,42.9823452 73.7206889,43.0325937 73.5522861,43.0760525 L73.5522861,42.5382526 C73.6573115,42.5038477 73.7587139,42.4676326 73.8564962,42.4296062 C73.9542784,42.3915797 74.0507012,42.3490269 74.1457673,42.3019466 C74.2408334,42.2548662 74.3368035,42.2023543 74.4336804,42.1444092 C74.5305573,42.0864642 74.6306016,42.0203716 74.7338162,41.9461295 L75,41.9461295 Z M28.2901766,53.6419194 C27.8845611,53.6419194 27.5681315,53.4762352 27.3408782,53.1448619 C27.1136249,52.8134886 27,52.3345436 27,51.7080127 C27,51.0199151 27.1186045,50.4993227 27.3558171,50.14622 C27.5930297,49.7931173 27.9352626,49.6165686 28.382526,49.6165686 C29.2390265,49.6165686 29.6672703,50.2820214 29.6672703,51.612947 C29.6672703,52.2720721 29.5464023,52.7750096 29.3046627,53.1217746 C29.0629232,53.4685395 28.7247645,53.6419194 28.2901766,53.6419194 Z M28.3526483,50.1190584 C27.8800339,50.1190584 27.6437302,50.6396507 27.6437302,51.6808511 C27.6437302,52.6550524 27.875507,53.1421458 28.3390675,53.1421458 C28.7953848,53.1421458 29.0235401,52.646904 29.0235401,51.6564056 C29.0235401,50.6315023 28.7999117,50.1190584 28.3526483,50.1190584 Z M33.0760525,49.5948393 L33.0760525,53.5767316 L32.4459031,53.5767316 L32.4459031,50.3662291 C32.3318238,50.4477143 32.2091451,50.5169757 32.0778633,50.5740154 C31.9465815,50.6310551 31.7967414,50.6813035 31.6283386,50.7247623 L31.6283386,50.1869624 C31.733364,50.1525575 31.8347664,50.1163424 31.9325487,50.078316 C32.030331,50.0402895 32.1267537,49.9977368 32.2218198,49.9506564 C32.3168859,49.903576 32.412856,49.8510641 32.5097329,49.7931191 C32.6066098,49.735174 32.7066541,49.6690814 32.8098687,49.5948393 L33.0760525,49.5948393 Z M36.674966,53.6419194 C36.2693506,53.6419194 35.952921,53.4762352 35.7256677,53.1448619 C35.4984144,52.8134886 35.3847895,52.3345436 35.3847895,51.7080127 C35.3847895,51.0199151 35.503394,50.4993227 35.7406066,50.14622 C35.9778192,49.7931173 36.3200521,49.6165686 36.7673155,49.6165686 C37.623816,49.6165686 38.0520598,50.2820214 38.0520598,51.612947 C38.0520598,52.2720721 37.9311918,52.7750096 37.6894522,53.1217746 C37.4477127,53.4685395 37.109554,53.6419194 36.674966,53.6419194 Z M36.7374378,50.1190584 C36.2648233,50.1190584 36.0285197,50.6396507 36.0285197,51.6808511 C36.0285197,52.6550524 36.2602965,53.1421458 36.7238569,53.1421458 C37.1801743,53.1421458 37.4083296,52.646904 37.4083296,51.6564056 C37.4083296,50.6315023 37.1847012,50.1190584 36.7374378,50.1190584 Z M41.460842,49.5948393 L41.460842,53.5767316 L40.8306926,53.5767316 L40.8306926,50.3662291 C40.7166133,50.4477143 40.5939346,50.5169757 40.4626528,50.5740154 C40.331371,50.6310551 40.1815309,50.6813035 40.0131281,50.7247623 L40.0131281,50.1869624 C40.1181535,50.1525575 40.2195559,50.1163424 40.3173382,50.078316 C40.4151205,50.0402895 40.5115432,49.9977368 40.6066093,49.9506564 C40.7016754,49.903576 40.7976455,49.8510641 40.8945224,49.7931191 C40.9913993,49.735174 41.0914436,49.6690814 41.1946582,49.5948393 L41.460842,49.5948393 Z M45.0597555,53.6419194 C44.6541401,53.6419194 44.3377105,53.4762352 44.1104572,53.1448619 C43.8832039,52.8134886 43.769579,52.3345436 43.769579,51.7080127 C43.769579,51.0199151 43.8881835,50.4993227 44.1253961,50.14622 C44.3626087,49.7931173 44.7048416,49.6165686 45.152105,49.6165686 C46.0086055,49.6165686 46.4368493,50.2820214 46.4368493,51.612947 C46.4368493,52.2720721 46.3159813,52.7750096 46.0742417,53.1217746 C45.8325022,53.4685395 45.4943435,53.6419194 45.0597555,53.6419194 Z M45.1222273,50.1190584 C44.6496128,50.1190584 44.4133092,50.6396507 44.4133092,51.6808511 C44.4133092,52.6550524 44.645086,53.1421458 45.1086464,53.1421458 C45.5649638,53.1421458 45.7931191,52.646904 45.7931191,51.6564056 C45.7931191,50.6315023 45.5694907,50.1190584 45.1222273,50.1190584 Z M49.8456315,49.5948393 L49.8456315,53.5767316 L49.2154821,53.5767316 L49.2154821,50.3662291 C49.1014028,50.4477143 48.9787241,50.5169757 48.8474423,50.5740154 C48.7161605,50.6310551 48.5663204,50.6813035 48.3979176,50.7247623 L48.3979176,50.1869624 C48.502943,50.1525575 48.6043454,50.1163424 48.7021277,50.078316 C48.79991,50.0402895 48.8963327,49.9977368 48.9913988,49.9506564 C49.0864649,49.903576 49.182435,49.8510641 49.2793119,49.7931191 C49.3761888,49.735174 49.4762331,49.6690814 49.5794477,49.5948393 L49.8456315,49.5948393 Z M53.444545,53.6419194 C53.0389296,53.6419194 52.7225,53.4762352 52.4952467,53.1448619 C52.2679934,52.8134886 52.1543685,52.3345436 52.1543685,51.7080127 C52.1543685,51.0199151 52.272973,50.4993227 52.5101856,50.14622 C52.7473982,49.7931173 53.0896311,49.6165686 53.5368945,49.6165686 C54.393395,49.6165686 54.8216388,50.2820214 54.8216388,51.612947 C54.8216388,52.2720721 54.7007708,52.7750096 54.4590312,53.1217746 C54.2172917,53.4685395 53.879133,53.6419194 53.444545,53.6419194 Z M53.5070167,50.1190584 C53.0344023,50.1190584 52.7980987,50.6396507 52.7980987,51.6808511 C52.7980987,52.6550524 53.0298755,53.1421458 53.4934359,53.1421458 C53.9497533,53.1421458 54.1779086,52.646904 54.1779086,51.6564056 C54.1779086,50.6315023 53.9542802,50.1190584 53.5070167,50.1190584 Z M58.230421,49.5948393 L58.230421,53.5767316 L57.6002716,53.5767316 L57.6002716,50.3662291 C57.4861923,50.4477143 57.3635136,50.5169757 57.2322318,50.5740154 C57.10095,50.6310551 56.9511099,50.6813035 56.7827071,50.7247623 L56.7827071,50.1869624 C56.8877325,50.1525575 56.9891349,50.1163424 57.0869172,50.078316 C57.1846994,50.0402895 57.2811222,49.9977368 57.3761883,49.9506564 C57.4712544,49.903576 57.5672245,49.8510641 57.6641014,49.7931191 C57.7609783,49.735174 57.8610226,49.6690814 57.9642372,49.5948393 L58.230421,49.5948393 Z M61.8293345,53.6419194 C61.4237191,53.6419194 61.1072895,53.4762352 60.8800362,53.1448619 C60.6527829,52.8134886 60.539158,52.3345436 60.539158,51.7080127 C60.539158,51.0199151 60.6577625,50.4993227 60.8949751,50.14622 C61.1321877,49.7931173 61.4744206,49.6165686 61.921684,49.6165686 C62.7781845,49.6165686 63.2064282,50.2820214 63.2064282,51.612947 C63.2064282,52.2720721 63.0855603,52.7750096 62.8438207,53.1217746 C62.6020812,53.4685395 62.2639225,53.6419194 61.8293345,53.6419194 Z M61.8918062,50.1190584 C61.4191918,50.1190584 61.1828882,50.6396507 61.1828882,51.6808511 C61.1828882,52.6550524 61.414665,53.1421458 61.8782254,53.1421458 C62.3345428,53.1421458 62.5626981,52.646904 62.5626981,51.6564056 C62.5626981,50.6315023 62.3390697,50.1190584 61.8918062,50.1190584 Z M66.6152105,49.5948393 L66.6152105,53.5767316 L65.9850611,53.5767316 L65.9850611,50.3662291 C65.8709818,50.4477143 65.7483031,50.5169757 65.6170213,50.5740154 C65.4857395,50.6310551 65.3358994,50.6813035 65.1674966,50.7247623 L65.1674966,50.1869624 C65.272522,50.1525575 65.3739244,50.1163424 65.4717067,50.078316 C65.5694889,50.0402895 65.6659117,49.9977368 65.7609778,49.9506564 C65.8560439,49.903576 65.952014,49.8510641 66.0488909,49.7931191 C66.1457678,49.735174 66.2458121,49.6690814 66.3490267,49.5948393 L66.6152105,49.5948393 Z M70.214124,53.6419194 C69.8085086,53.6419194 69.492079,53.4762352 69.2648257,53.1448619 C69.0375724,52.8134886 68.9239475,52.3345436 68.9239475,51.7080127 C68.9239475,51.0199151 69.042552,50.4993227 69.2797646,50.14622 C69.5169772,49.7931173 69.8592101,49.6165686 70.3064735,49.6165686 C71.162974,49.6165686 71.5912177,50.2820214 71.5912177,51.612947 C71.5912177,52.2720721 71.4703498,52.7750096 71.2286102,53.1217746 C70.9868707,53.4685395 70.648712,53.6419194 70.214124,53.6419194 Z M70.2765957,50.1190584 C69.8039813,50.1190584 69.5676777,50.6396507 69.5676777,51.6808511 C69.5676777,52.6550524 69.7994544,53.1421458 70.2630149,53.1421458 C70.7193323,53.1421458 70.9474876,52.646904 70.9474876,51.6564056 C70.9474876,50.6315023 70.7238592,50.1190584 70.2765957,50.1190584 Z M75,49.5948393 L75,53.5767316 L74.3698506,53.5767316 L74.3698506,50.3662291 C74.2557713,50.4477143 74.1330926,50.5169757 74.0018108,50.5740154 C73.870529,50.6310551 73.7206889,50.6813035 73.5522861,50.7247623 L73.5522861,50.1869624 C73.6573115,50.1525575 73.7587139,50.1163424 73.8564962,50.078316 C73.9542784,50.0402895 74.0507012,49.9977368 74.1457673,49.9506564 C74.2408334,49.903576 74.3368035,49.8510641 74.4336804,49.7931191 C74.5305573,49.735174 74.6306016,49.6690814 74.7338162,49.5948393 L75,49.5948393 Z M33.0760525,57.2435491 L33.0760525,61.2254414 L32.4459031,61.2254414 L32.4459031,58.0149389 C32.3318238,58.0964241 32.2091451,58.1656855 32.0778633,58.2227252 C31.9465815,58.2797649 31.7967414,58.3300134 31.6283386,58.3734722 L31.6283386,57.8356722 C31.733364,57.8012674 31.8347664,57.7650522 31.9325487,57.7270258 C32.030331,57.6889994 32.1267537,57.6464466 32.2218198,57.5993662 C32.3168859,57.5522859 32.412856,57.4997739 32.5097329,57.4418289 C32.6066098,57.3838838 32.7066541,57.3177912 32.8098687,57.2435491 L33.0760525,57.2435491 Z M36.674966,61.2906292 C36.2693506,61.2906292 35.952921,61.1249451 35.7256677,60.7935718 C35.4984144,60.4621984 35.3847895,59.9832535 35.3847895,59.3567225 C35.3847895,58.6686249 35.503394,58.1480325 35.7406066,57.7949298 C35.9778192,57.4418271 36.3200521,57.2652784 36.7673155,57.2652784 C37.623816,57.2652784 38.0520598,57.9307312 38.0520598,59.2616569 C38.0520598,59.9207819 37.9311918,60.4237194 37.6894522,60.7704844 C37.4477127,61.1172494 37.109554,61.2906292 36.674966,61.2906292 Z M36.7374378,57.7677682 C36.2648233,57.7677682 36.0285197,58.2883606 36.0285197,59.3295609 C36.0285197,60.3037622 36.2602965,60.7908556 36.7238569,60.7908556 C37.1801743,60.7908556 37.4083296,60.2956138 37.4083296,59.3051154 C37.4083296,58.2802122 37.1847012,57.7677682 36.7374378,57.7677682 Z M41.460842,57.2435491 L41.460842,61.2254414 L40.8306926,61.2254414 L40.8306926,58.0149389 C40.7166133,58.0964241 40.5939346,58.1656855 40.4626528,58.2227252 C40.331371,58.2797649 40.1815309,58.3300134 40.0131281,58.3734722 L40.0131281,57.8356722 C40.1181535,57.8012674 40.2195559,57.7650522 40.3173382,57.7270258 C40.4151205,57.6889994 40.5115432,57.6464466 40.6066093,57.5993662 C40.7016754,57.5522859 40.7976455,57.4997739 40.8945224,57.4418289 C40.9913993,57.3838838 41.0914436,57.3177912 41.1946582,57.2435491 L41.460842,57.2435491 Z M45.0597555,61.2906292 C44.6541401,61.2906292 44.3377105,61.1249451 44.1104572,60.7935718 C43.8832039,60.4621984 43.769579,59.9832535 43.769579,59.3567225 C43.769579,58.6686249 43.8881835,58.1480325 44.1253961,57.7949298 C44.3626087,57.4418271 44.7048416,57.2652784 45.152105,57.2652784 C46.0086055,57.2652784 46.4368493,57.9307312 46.4368493,59.2616569 C46.4368493,59.9207819 46.3159813,60.4237194 46.0742417,60.7704844 C45.8325022,61.1172494 45.4943435,61.2906292 45.0597555,61.2906292 Z M45.1222273,57.7677682 C44.6496128,57.7677682 44.4133092,58.2883606 44.4133092,59.3295609 C44.4133092,60.3037622 44.645086,60.7908556 45.1086464,60.7908556 C45.5649638,60.7908556 45.7931191,60.2956138 45.7931191,59.3051154 C45.7931191,58.2802122 45.5694907,57.7677682 45.1222273,57.7677682 Z M49.8456315,57.2435491 L49.8456315,61.2254414 L49.2154821,61.2254414 L49.2154821,58.0149389 C49.1014028,58.0964241 48.9787241,58.1656855 48.8474423,58.2227252 C48.7161605,58.2797649 48.5663204,58.3300134 48.3979176,58.3734722 L48.3979176,57.8356722 C48.502943,57.8012674 48.6043454,57.7650522 48.7021277,57.7270258 C48.79991,57.6889994 48.8963327,57.6464466 48.9913988,57.5993662 C49.0864649,57.5522859 49.182435,57.4997739 49.2793119,57.4418289 C49.3761888,57.3838838 49.4762331,57.3177912 49.5794477,57.2435491 L49.8456315,57.2435491 Z M53.444545,61.2906292 C53.0389296,61.2906292 52.7225,61.1249451 52.4952467,60.7935718 C52.2679934,60.4621984 52.1543685,59.9832535 52.1543685,59.3567225 C52.1543685,58.6686249 52.272973,58.1480325 52.5101856,57.7949298 C52.7473982,57.4418271 53.0896311,57.2652784 53.5368945,57.2652784 C54.393395,57.2652784 54.8216388,57.9307312 54.8216388,59.2616569 C54.8216388,59.9207819 54.7007708,60.4237194 54.4590312,60.7704844 C54.2172917,61.1172494 53.879133,61.2906292 53.444545,61.2906292 Z M53.5070167,57.7677682 C53.0344023,57.7677682 52.7980987,58.2883606 52.7980987,59.3295609 C52.7980987,60.3037622 53.0298755,60.7908556 53.4934359,60.7908556 C53.9497533,60.7908556 54.1779086,60.2956138 54.1779086,59.3051154 C54.1779086,58.2802122 53.9542802,57.7677682 53.5070167,57.7677682 Z M58.230421,57.2435491 L58.230421,61.2254414 L57.6002716,61.2254414 L57.6002716,58.0149389 C57.4861923,58.0964241 57.3635136,58.1656855 57.2322318,58.2227252 C57.10095,58.2797649 56.9511099,58.3300134 56.7827071,58.3734722 L56.7827071,57.8356722 C56.8877325,57.8012674 56.9891349,57.7650522 57.0869172,57.7270258 C57.1846994,57.6889994 57.2811222,57.6464466 57.3761883,57.5993662 C57.4712544,57.5522859 57.5672245,57.4997739 57.6641014,57.4418289 C57.7609783,57.3838838 57.8610226,57.3177912 57.9642372,57.2435491 L58.230421,57.2435491 Z M61.8293345,61.2906292 C61.4237191,61.2906292 61.1072895,61.1249451 60.8800362,60.7935718 C60.6527829,60.4621984 60.539158,59.9832535 60.539158,59.3567225 C60.539158,58.6686249 60.6577625,58.1480325 60.8949751,57.7949298 C61.1321877,57.4418271 61.4744206,57.2652784 61.921684,57.2652784 C62.7781845,57.2652784 63.2064282,57.9307312 63.2064282,59.2616569 C63.2064282,59.9207819 63.0855603,60.4237194 62.8438207,60.7704844 C62.6020812,61.1172494 62.2639225,61.2906292 61.8293345,61.2906292 Z M61.8918062,57.7677682 C61.4191918,57.7677682 61.1828882,58.2883606 61.1828882,59.3295609 C61.1828882,60.3037622 61.414665,60.7908556 61.8782254,60.7908556 C62.3345428,60.7908556 62.5626981,60.2956138 62.5626981,59.3051154 C62.5626981,58.2802122 62.3390697,57.7677682 61.8918062,57.7677682 Z M66.6152105,57.2435491 L66.6152105,61.2254414 L65.9850611,61.2254414 L65.9850611,58.0149389 C65.8709818,58.0964241 65.7483031,58.1656855 65.6170213,58.2227252 C65.4857395,58.2797649 65.3358994,58.3300134 65.1674966,58.3734722 L65.1674966,57.8356722 C65.272522,57.8012674 65.3739244,57.7650522 65.4717067,57.7270258 C65.5694889,57.6889994 65.6659117,57.6464466 65.7609778,57.5993662 C65.8560439,57.5522859 65.952014,57.4997739 66.0488909,57.4418289 C66.1457678,57.3838838 66.2458121,57.3177912 66.3490267,57.2435491 L66.6152105,57.2435491 Z M70.214124,61.2906292 C69.8085086,61.2906292 69.492079,61.1249451 69.2648257,60.7935718 C69.0375724,60.4621984 68.9239475,59.9832535 68.9239475,59.3567225 C68.9239475,58.6686249 69.042552,58.1480325 69.2797646,57.7949298 C69.5169772,57.4418271 69.8592101,57.2652784 70.3064735,57.2652784 C71.162974,57.2652784 71.5912177,57.9307312 71.5912177,59.2616569 C71.5912177,59.9207819 71.4703498,60.4237194 71.2286102,60.7704844 C70.9868707,61.1172494 70.648712,61.2906292 70.214124,61.2906292 Z M70.2765957,57.7677682 C69.8039813,57.7677682 69.5676777,58.2883606 69.5676777,59.3295609 C69.5676777,60.3037622 69.7994544,60.7908556 70.2630149,60.7908556 C70.7193323,60.7908556 70.9474876,60.2956138 70.9474876,59.3051154 C70.9474876,58.2802122 70.7238592,57.7677682 70.2765957,57.7677682 Z" id="101010101010110101010101010101010101010101010101010101010101010101010101" fill="#DCB024" fill-rule="nonzero" opacity="0.867601376"></path>
                <path d="M22.5,44 C22.3118463,44.0010667 22.1310923,43.926802 21.9980494,43.7937592 C21.8650066,43.6607165 21.7907419,43.4799626 21.7918201,43.2918148 C21.7851724,38.8300995 18.169892,35.2148214 13.7081741,35.2081736 C13.3186263,35.2081799 13.0022133,34.8935649 13,34.5040237 C13,34.1129102 13.3170603,33.7958501 13.7081741,33.7958501 C18.1714606,33.7891973 21.7873884,30.1714717 21.7918201,25.7081852 C21.7907419,25.5200374 21.8650066,25.3392835 21.9980494,25.2062408 C22.1310923,25.073198 22.3118463,24.9989333 22.5,25 C22.6881421,24.9989333 22.8688961,25.073198 23.001939,25.2062408 C23.1349818,25.3392835 23.2092465,25.5200374 23.2081683,25.7081852 C23.214816,30.1699005 26.8300964,33.7851786 31.2918144,33.7918264 C31.4799623,33.7907481 31.6607163,33.8650128 31.7937591,33.9980555 C31.926802,34.1310983 32.0010667,34.3118522 32,34.5 C32.0010667,34.6881478 31.926802,34.8689017 31.7937591,35.0019445 C31.6607163,35.1349872 31.4799623,35.2092519 31.2918144,35.2081736 C26.8291787,35.2126097 23.2126043,38.8291818 23.2081683,43.2918148 C23.2059699,43.6820141 22.8901937,43.9977901 22.5,44 L22.5,44 Z" id="Path" fill="#FFFFFF" fill-rule="nonzero"></path>
                <path d="M77.5,71 C77.1908199,71 76.94018,70.7492937 76.94018,70.4400318 C76.9358049,66.9171376 74.0817817,64.0623588 70.55982,64.0579825 C70.2521839,64.0579903 70.0021818,63.8096956 70,63.5019857 C70,63.3534729 70.0589809,63.2110428 70.1639675,63.1060284 C70.2689541,63.001014 70.4113465,62.9420175 70.55982,62.9420175 C74.0826879,62.9398267 76.9379898,60.0837689 76.94018,56.5599682 C76.94018,56.2507063 77.1908199,56 77.5,56 C77.8091801,56 78.05982,56.2507063 78.05982,56.5599682 C78.0620102,60.0837689 80.9173121,62.9398267 84.44018,62.9420175 C84.74936,62.9420175 85,63.1927238 85,63.5019857 C85,63.8112476 84.74936,64.0619539 84.44018,64.0619539 C80.9182183,64.0663302 78.0641951,66.921109 78.05982,70.4440032 C78.0576382,70.751713 77.8076361,71 77.5,71 Z" id="Path" fill="#FFFFFF" fill-rule="nonzero"></path>
                <g id="Gear" filter="url(#filter-9)" transform="translate(26.000000, 41.000000)">
                    <g fill-rule="nonzero" id="Shape">
                        <g>
                            <use fill="black" fill-opacity="1" filter="url(#filter-12)" xlink:href="#path-11"></use>
                            <use fill="url(#linearGradient-10)" xlink:href="#path-11"></use>
                        </g>
                    </g>
                    <circle id="Oval" fill="#FFFFFF" cx="25.2903226" cy="24.1048387" r="8.2983871"></circle>
                </g>
                <g id="powerbi_icon" transform="translate(45.000000, 61.000000)" fill="#B37A1B" fill-rule="nonzero">
                    <path d="M10.2497143,7.38085714 L10.0152857,7.38085714 L10.0152857,6.92142857 L10.2497143,6.92142857 C10.7472857,6.92057143 11.151,6.525 11.1514286,6.03728571 L11.1514286,1.34357143 C11.151,0.855428571 10.7472857,0.459857143 10.2497143,0.459428571 L1.37057143,0.459428571 C0.872571429,0.459857143 0.469285714,0.855428571 0.468428571,1.34357143 L0.468428571,6.03771429 C0.469285714,6.52542857 0.872571429,6.921 1.37057143,6.92185714 L1.605,6.92185714 L1.605,7.38128571 L1.37057143,7.38128571 C0.613714286,7.38 0.000857142857,6.77914286 0,6.03771429 L0,1.34357143 C0.000857142857,0.602142857 0.614142857,0.000857142857 1.37057143,0 L10.2497143,0 C11.0061429,0.000857142857 11.6194286,0.602142857 11.6202857,1.34357143 L11.6202857,6.03771429 C11.6194286,6.77914286 11.0061429,7.38042857 10.2497143,7.38128571" id="Shape"></path>
                    <path d="M2.80971429,5.84271429 C2.97857143,5.84271429 3.14014286,5.90828571 3.25971429,6.02528571 C3.37885714,6.14185714 3.44571429,6.30042857 3.44571429,6.46585714 L3.44571429,7.90371429 C3.44571429,8.24828571 3.16114286,8.52728571 2.80971429,8.52728571 C2.64085714,8.52728571 2.47928571,8.46171429 2.35971429,8.34471429 C2.24091547,8.22872003 2.17386682,8.06974984 2.17371429,7.90371429 L2.17371429,6.46628571 C2.17371429,6.12171429 2.45828571,5.84271429 2.80971429,5.84271429 L2.80971429,5.84271429 Z" id="Shape"></path>
                    <path d="M4.81028571,8.52728571 C4.45885714,8.52728571 4.17385714,8.24828571 4.17385714,7.90371429 L4.17385714,4.21371429 C4.17385714,3.86871429 4.45885714,3.58971429 4.81028571,3.58971429 C5.16171429,3.58971429 5.44628571,3.86871429 5.44628571,4.21328571 L5.44628571,7.90371429 C5.44628571,8.24828571 5.16128571,8.52728571 4.81028571,8.52771429" id="Shape"></path>
                    <path d="M8.81057143,8.50928571 C8.45914286,8.50928571 8.17457143,8.22985714 8.17414286,7.88571429 L8.17414286,2.65928571 C8.17414286,2.31514286 8.45914286,2.03571429 8.81057143,2.03571429 C9.162,2.03571429 9.44657143,2.31514286 9.44657143,2.65928571 L9.44657143,7.88571429 C9.44657143,8.22985714 9.162,8.50928571 8.81057143,8.50928571" id="Shape"></path>
                    <path d="M6.81,8.52728571 C6.459,8.52728571 6.17442857,8.24828571 6.174,7.90371429 L6.174,5.16214286 C6.174,4.818 6.459,4.53857143 6.81042857,4.53857143 C7.16185714,4.53857143 7.44642857,4.818 7.44642857,5.16214286 L7.44642857,7.90371429 C7.44642857,8.24828571 7.16142857,8.52728571 6.81042857,8.52771429" id="Shape"></path>
                </g>
            </g>
        </g>
    </g>
</svg>