<svg width="102" height="102" viewBox="0 0 102 102" fill="none" xmlns="http://www.w3.org/2000/svg">
<path d="M50.9995 97.8093C44.8523 97.8093 38.7652 96.5985 33.0859 94.2461C27.4067 91.8937 22.2461 88.4458 17.8994 84.0991C13.5527 79.7524 10.1049 74.5921 7.75244 68.9128C5.40002 63.2336 4.18945 57.1467 4.18945 50.9995C4.18945 44.8523 5.40002 38.7652 7.75244 33.0859C10.1049 27.4067 13.5527 22.2464 17.8994 17.8997C22.2461 13.5529 27.4067 10.1051 33.0859 7.75269C38.7652 5.40026 44.8523 4.18945 50.9995 4.18945C63.4143 4.18945 75.3205 9.12108 84.0991 17.8997C92.8777 26.6782 97.8091 38.5847 97.8091 50.9995C97.8091 63.4143 92.8777 75.3205 84.0991 84.0991C75.3205 92.8777 63.4143 97.8093 50.9995 97.8093V97.8093Z" fill="url(#paint0_linear)"/>
<path fill-rule="evenodd" clip-rule="evenodd" d="M96.8994 50.9998C96.8994 63.1732 92.0635 74.8479 83.4556 83.4558C74.8476 92.0637 63.1729 96.8997 50.9995 96.8997C38.8261 96.8997 27.1509 92.0637 18.543 83.4558C9.93505 74.8479 5.09912 63.1732 5.09912 50.9998C5.09912 38.8263 9.93505 27.1514 18.543 18.5435C27.1509 9.93554 38.8261 5.09961 50.9995 5.09961C63.1729 5.09961 74.8476 9.93554 83.4556 18.5435C92.0635 27.1514 96.8994 38.8263 96.8994 50.9998V50.9998ZM50.9995 1.38965C57.5187 1.38834 63.9739 2.67135 69.9971 5.16553C76.0203 7.65971 81.4933 11.3163 86.103 15.926C90.7128 20.5358 94.3691 26.0085 96.8633 32.0317C99.3575 38.0549 100.64 44.5104 100.639 51.0295C100.639 57.5484 99.3555 64.0035 96.8608 70.0261C94.3662 76.0487 90.7096 81.5209 86.1001 86.1304C81.4906 90.7399 76.0182 94.3965 69.9956 96.8911C63.973 99.3858 57.5183 100.67 50.9995 100.67C37.8342 100.67 25.2077 95.4397 15.8984 86.1304C6.58913 76.8211 1.35938 64.1949 1.35938 51.0295C1.35806 44.5104 2.64108 38.0549 5.13525 32.0317C7.62943 26.0085 11.2857 20.5358 15.8955 15.926C20.5053 11.3163 25.9783 7.65971 32.0015 5.16553C38.0247 2.67135 44.4803 1.38834 50.9995 1.38965Z" fill="#F2F1F0"/>
<path fill-rule="evenodd" clip-rule="evenodd" d="M94.0898 51C94.0898 62.4282 89.5502 73.3883 81.4692 81.4692C73.3883 89.5502 62.4282 94.0898 51 94.0898C39.5718 94.0898 28.6117 89.5502 20.5308 81.4692C12.4498 73.3883 7.90967 62.4282 7.90967 51C7.90967 39.5718 12.4498 28.6117 20.5308 20.5308C28.6117 12.4498 39.5718 7.90991 51 7.90991C62.4282 7.90991 73.3883 12.4498 81.4692 20.5308C89.5502 28.6117 94.0898 39.5718 94.0898 51ZM51 4.16992C63.4201 4.16992 75.3314 9.10366 84.1138 17.886C92.8961 26.6683 97.8296 38.5799 97.8296 51C97.8296 63.4201 92.8961 75.3314 84.1138 84.1138C75.3314 92.8961 63.4201 97.8298 51 97.8298C38.5799 97.8298 26.6686 92.8961 17.8862 84.1138C9.1039 75.3314 4.16992 63.4201 4.16992 51C4.16992 38.5799 9.1039 26.6683 17.8862 17.886C26.6686 9.10366 38.5799 4.16992 51 4.16992Z" fill="url(#paint1_linear)"/>
<path opacity="0.25" d="M22.4297 67.3899C19.6908 67.3872 17.0651 66.298 15.1284 64.3613C13.1918 62.4247 12.1023 59.7987 12.0996 57.0598C12.0961 54.577 12.993 52.1771 14.624 50.3052C16.2551 48.4332 18.5098 47.2163 20.9697 46.8799C20.5559 45.2213 20.3409 43.5192 20.3296 41.8098C20.3455 36.3391 22.5308 31.0982 26.4058 27.2363C30.2807 23.3745 35.5293 21.2073 41 21.21C44.7326 21.2195 48.3932 22.2385 51.5938 24.1592C54.7943 26.0799 57.4153 28.8306 59.1797 32.1199C60.9588 31.254 62.911 30.8026 64.8897 30.7998C68.3112 30.8077 71.5904 32.1705 74.0098 34.5898C76.4292 37.0092 77.7919 40.2885 77.7998 43.71C77.7965 44.7784 77.6654 45.8425 77.4097 46.8799C77.7982 46.8383 78.1889 46.8215 78.5796 46.8298C79.9288 46.8193 81.2668 47.0763 82.5161 47.5859C83.7654 48.0956 84.9016 48.8476 85.8584 49.7988C86.8152 50.7501 87.5739 51.8816 88.0908 53.1279C88.6077 54.3742 88.8723 55.7106 88.8696 57.0598C88.867 59.8004 87.7767 62.428 85.8379 64.365C83.8991 66.302 81.2704 67.3899 78.5298 67.3899H22.4297Z" fill="url(#paint2_linear)"/>
<path d="M78.5298 68.3896H22.4297C19.4256 68.387 16.5456 67.1926 14.4214 65.0684C12.2972 62.9441 11.1023 60.0637 11.0996 57.0596C11.0991 54.5187 11.9545 52.0517 13.5273 50.0562C15.1002 48.0606 17.2993 46.6527 19.77 46.0596C19.4839 44.6507 19.3361 43.2172 19.3296 41.7795C19.3612 36.0485 21.6568 30.5623 25.7158 26.5164C29.7749 22.4704 35.2689 20.1928 41 20.1797C44.7557 20.1878 48.4443 21.1719 51.7051 23.0354C54.9658 24.8989 57.6863 27.5778 59.5996 30.8096C61.2828 30.141 63.0786 29.8015 64.8896 29.8096C68.5772 29.8149 72.1122 31.2822 74.7197 33.8896C77.3272 36.4971 78.7945 40.0322 78.7998 43.7197C78.8003 44.4294 78.7466 45.138 78.6396 45.8396C80.0994 45.8364 81.5456 46.1219 82.8945 46.6797C84.2435 47.2375 85.4688 48.0564 86.5 49.0896C87.5618 50.1327 88.4031 51.3781 88.9751 52.7522C89.5471 54.1263 89.8376 55.6012 89.8296 57.0896C89.8164 60.0825 88.6217 62.9491 86.5054 65.0654C84.3891 67.1817 81.5227 68.3765 78.5298 68.3896ZM41 22.2097C35.7984 22.2175 30.8099 24.2789 27.1206 27.9458C23.4313 31.6127 21.3393 36.5881 21.2998 41.7896C21.3123 43.4147 21.5169 45.0326 21.9097 46.6096C21.9422 46.746 21.9458 46.8878 21.9199 47.0256C21.8941 47.1635 21.8395 47.2943 21.7598 47.4097C21.6813 47.5257 21.5793 47.6239 21.4604 47.698C21.3416 47.7721 21.2085 47.8202 21.0698 47.8396C18.8537 48.1524 16.825 49.2541 15.3555 50.9421C13.886 52.6302 13.0743 54.7915 13.0698 57.0295C13.0725 59.5032 14.0565 61.8749 15.8057 63.624C17.5548 65.3732 19.9262 66.357 22.3999 66.3596H78.5C80.9746 66.357 83.3469 65.3736 85.0977 63.6248C86.8484 61.8759 87.8346 59.5041 87.8398 57.0295C87.8446 55.8094 87.6055 54.6006 87.1367 53.4741C86.6679 52.3476 85.9789 51.3262 85.1099 50.4697C84.2502 49.6118 83.2281 48.9338 82.1035 48.4753C80.9789 48.0169 79.774 47.7871 78.5596 47.7996C78.2099 47.7784 77.8594 47.7784 77.5098 47.7996C77.3497 47.8204 77.1871 47.8023 77.0356 47.7466C76.8841 47.6909 76.7481 47.5993 76.6396 47.4797C76.5314 47.3595 76.4541 47.2146 76.4141 47.0579C76.374 46.9011 76.3723 46.737 76.4097 46.5796C76.6428 45.6168 76.7639 44.6303 76.77 43.6396C76.7647 40.4825 75.5078 37.4563 73.2754 35.2239C71.043 32.9915 68.017 31.735 64.8599 31.7297C63.0336 31.7328 61.2317 32.1499 59.5898 32.9497C59.3582 33.0636 59.0912 33.0834 58.8452 33.0051C58.5992 32.9268 58.3933 32.7564 58.27 32.5295C56.5883 29.4107 54.0965 26.8032 51.0571 24.9817C48.0178 23.1602 44.5434 22.1922 41 22.1797V22.2097Z" fill="white"/>
<path opacity="0.15" d="M51.1197 41.9297H29.0401C28.9263 41.9297 28.8136 41.9523 28.7086 41.9961C28.6036 42.0399 28.5083 42.1041 28.4283 42.1851C28.3483 42.266 28.2849 42.362 28.2422 42.4675C28.1996 42.573 28.1784 42.6858 28.1797 42.7996V76.0896C28.1784 76.2029 28.2 76.3155 28.2427 76.4204C28.2855 76.5254 28.3486 76.6206 28.4288 76.7007C28.5089 76.7808 28.6041 76.8442 28.709 76.887C28.814 76.9297 28.9268 76.951 29.0401 76.9497H51.1197C51.2335 76.951 51.3467 76.9296 51.4522 76.887C51.5577 76.8443 51.6535 76.7814 51.7344 76.7014C51.8154 76.6214 51.8796 76.5261 51.9234 76.4211C51.9672 76.3161 51.9898 76.2034 51.9898 76.0896V42.7996C51.9872 42.5696 51.8946 42.3499 51.732 42.1873C51.5694 42.0247 51.3496 41.9323 51.1197 41.9297V41.9297Z" fill="#1F1D20"/>
<path d="M51.1197 40.8692H29.0401C28.9268 40.8679 28.814 40.8892 28.709 40.9319C28.6041 40.9747 28.5089 41.0381 28.4288 41.1182C28.3486 41.1984 28.2855 41.2936 28.2427 41.3985C28.2 41.5034 28.1784 41.616 28.1797 41.7293V75.0191C28.1784 75.1329 28.1996 75.2459 28.2422 75.3514C28.2849 75.4569 28.3483 75.5529 28.4283 75.6339C28.5083 75.7148 28.6036 75.779 28.7086 75.8228C28.8136 75.8667 28.9263 75.8892 29.0401 75.8892H51.1197C51.3504 75.8892 51.5718 75.7975 51.7349 75.6343C51.8981 75.4712 51.9898 75.2498 51.9898 75.0191V41.7293C51.9872 41.5003 51.8944 41.2814 51.7315 41.1204C51.5686 40.9594 51.3487 40.8692 51.1197 40.8692Z" fill="#F2F2F3"/>
<path opacity="0.15" d="M44.8004 66.7795C47.2204 68.2295 47.2204 70.4997 44.8004 71.9497C43.4293 72.6639 41.9063 73.0369 40.3604 73.0369C38.8145 73.0369 37.2915 72.6639 35.9205 71.9497C33.5005 70.5097 33.5005 68.2395 35.9205 66.7795C37.2915 66.0653 38.8145 65.6924 40.3604 65.6924C41.9063 65.6924 43.4293 66.0653 44.8004 66.7795V66.7795Z" fill="#1F1D20"/>
<path d="M45.4898 53.2695V50.0596H35.0596V53.3296C35.0535 53.4527 35.0042 53.5697 34.9199 53.6597C34.0072 54.5836 33.4968 55.8309 33.5 57.1296V59.4497L40.7998 64.8896L47.0498 59.4497V56.9998C47.0492 56.362 46.9227 55.7305 46.6773 55.1418C46.4319 54.5532 46.0722 54.0189 45.6196 53.5696C45.5764 53.5329 45.5426 53.4868 45.52 53.4348C45.4975 53.3828 45.487 53.3262 45.4898 53.2695V53.2695Z" fill="url(#paint3_linear)"/>
<path d="M47.0502 60.7896H33.4902V67.7896C33.4798 67.9427 33.4798 68.0966 33.4902 68.2498C33.5436 68.8536 33.7573 69.4324 34.1088 69.9263C34.4604 70.4202 34.9371 70.8113 35.4902 71.0596C36.9683 71.8332 38.6119 72.2373 40.2802 72.2373C41.9485 72.2373 43.5921 71.8332 45.0702 71.0596C45.6557 70.8033 46.1552 70.3845 46.5097 69.8528C46.8642 69.321 47.0588 68.6986 47.0702 68.0596C47.0752 67.963 47.0752 67.8661 47.0702 67.7695V60.7695L47.0502 60.7896Z" fill="url(#paint4_linear)"/>
<path d="M47.04 56.5294C47.0512 56.5166 47.066 56.5078 47.0825 56.504C47.099 56.5002 47.1163 56.5017 47.1318 56.5084C47.1474 56.5151 47.1603 56.5265 47.1689 56.5411C47.1776 56.5557 47.1813 56.5726 47.1797 56.5894V66.8194C47.1139 67.4234 46.8962 68.0007 46.5464 68.4974C46.1966 68.9941 45.7261 69.394 45.1797 69.6595C43.7432 70.3216 42.1703 70.6334 40.5898 70.5694C38.817 70.715 37.0366 70.4017 35.4199 69.6595C34.845 69.3591 34.3376 68.9439 33.9297 68.4395C33.6154 68.1067 33.4247 67.676 33.3896 67.2196V56.7096C33.39 56.6899 33.396 56.6706 33.4062 56.6539C33.4165 56.6372 33.4309 56.6235 33.4482 56.6143C33.4656 56.6052 33.4853 56.601 33.5049 56.6019C33.5245 56.6028 33.5431 56.6088 33.5596 56.6195C34.1322 57.0554 34.7574 57.4183 35.4199 57.6995C37.001 58.3632 38.706 58.6803 40.4199 58.6295C42.0737 58.6858 43.7168 58.3427 45.21 57.6295C45.8599 57.3337 46.4739 56.9646 47.04 56.5294V56.5294Z" fill="#B4E2EF"/>
<path d="M45.1704 59.7095C44.5886 60.0171 43.9654 60.2393 43.3203 60.3694V68.6294C43.9556 68.5136 44.5692 68.3013 45.1401 67.9995C45.4739 67.8009 45.7664 67.5394 46.0005 67.2295V59.2295C45.7705 59.3895 45.4904 59.5495 45.1704 59.7095Z" fill="#F4F4F5"/>
<path d="M46.1602 48.0196V50.0196C46.1 50.5402 45.9088 51.0372 45.6045 51.4639C45.3002 51.8907 44.893 52.2333 44.4204 52.4598C43.1178 53.0865 41.6906 53.4117 40.2451 53.4117C38.7996 53.4117 37.3729 53.0865 36.0703 52.4598C35.5812 52.2152 35.1462 51.8752 34.7905 51.4598C34.5312 51.1863 34.369 50.8347 34.3301 50.4598V48.0496C34.3301 48.0496 34.8703 48.3196 36.0303 49.0496C35.7803 48.9096 44.1001 46.7998 43.8501 46.9298C45.0801 46.1398 46.1602 48.8396 46.1602 48.0196Z" fill="#E6E6E6"/>
<path d="M44.4607 45.71C46.7407 47.08 46.7407 49.2098 44.4607 50.5798C43.1699 51.2578 41.7336 51.6121 40.2756 51.6121C38.8176 51.6121 37.3813 51.2578 36.0905 50.5798C33.8005 49.1998 33.8005 47.08 36.0905 45.71C37.3813 45.032 38.8176 44.6777 40.2756 44.6777C41.7336 44.6777 43.1699 45.032 44.4607 45.71V45.71Z" fill="#96D8EC"/>
<path d="M42.0996 47.2097C42.3163 47.2897 42.5032 47.4343 42.6353 47.6238C42.7673 47.8133 42.8384 48.0386 42.8384 48.2695C42.8384 48.5005 42.7673 48.726 42.6353 48.9155C42.5032 49.1051 42.3163 49.2496 42.0996 49.3296C41.5336 49.6208 40.9066 49.7727 40.27 49.7727C39.6334 49.7727 39.006 49.6208 38.4399 49.3296C38.2187 49.2541 38.0266 49.1115 37.8906 48.9214C37.7546 48.7313 37.6816 48.5033 37.6816 48.2695C37.6816 48.0358 37.7546 47.808 37.8906 47.6179C38.0266 47.4278 38.2187 47.2852 38.4399 47.2097C39.006 46.9185 39.6334 46.7666 40.27 46.7666C40.9066 46.7666 41.5336 46.9185 42.0996 47.2097Z" fill="url(#paint5_linear)"/>
<path d="M80.71 55.0498H56.0098V48.8398H62.5L64.73 50.7698H80.73L80.71 55.0498Z" fill="#4BC8EF"/>
<path opacity="0.15" d="M81.8691 54.7295H54.8691V73.1794H81.8691V54.7295Z" fill="#1F1D20"/>
<path d="M81.8691 53.5801H54.8691V72.03H81.8691V53.5801Z" fill="#74CFEB"/>
<path d="M77.98 52.6992H58.75V53.6992H77.9697V52.6992H77.98Z" fill="#2F94D1"/>
<path d="M72.2402 61.8499H69.4404V59.0498H68.0405V61.8499H65.2402V63.25H68.0503V66.0498H69.4404V63.25H72.3003L72.2402 61.8499Z" fill="#1865B1"/>
<defs>
<linearGradient id="paint0_linear" x1="49.2393" y1="-13.7905" x2="53.2193" y2="131.979" gradientUnits="userSpaceOnUse">
<stop stop-color="#00ABDE"/>
<stop offset="1" stop-color="#2E7BBF"/>
</linearGradient>
<linearGradient id="paint1_linear" x1="2.43993" y1="-20.6301" x2="97.9599" y2="120.26" gradientUnits="userSpaceOnUse">
<stop stop-color="#2E7BBF"/>
<stop offset="0.71" stop-color="#092D4C"/>
</linearGradient>
<linearGradient id="paint2_linear" x1="48.7996" y1="-11.2" x2="50.8296" y2="70.9999" gradientUnits="userSpaceOnUse">
<stop offset="0.57" stop-color="white" stop-opacity="0"/>
<stop offset="0.78" stop-color="white" stop-opacity="0.43"/>
<stop offset="0.9" stop-color="white" stop-opacity="0.5"/>
<stop offset="1" stop-color="white"/>
</linearGradient>
<linearGradient id="paint3_linear" x1="40.1499" y1="42.6995" x2="40.4299" y2="78.0497" gradientUnits="userSpaceOnUse">
<stop stop-color="#4FC2EB"/>
<stop offset="0.58" stop-color="#2E76BC"/>
</linearGradient>
<linearGradient id="paint4_linear" x1="72652" y1="92011.6" x2="72658.3" y2="91829" gradientUnits="userSpaceOnUse">
<stop stop-color="#4FC2EB"/>
<stop offset="0.58" stop-color="#2E76BC"/>
</linearGradient>
<linearGradient id="paint5_linear" x1="27582.1" y1="24206.5" x2="27590.3" y2="24167.6" gradientUnits="userSpaceOnUse">
<stop stop-color="#4FC2EB"/>
<stop offset="0.58" stop-color="#2E76BC"/>
</linearGradient>
</defs>
</svg>
