<svg width="103" height="103" viewBox="0 0 103 103" fill="none" xmlns="http://www.w3.org/2000/svg">
<path d="M51.6777 98.3934C25.8277 98.3934 4.86768 77.4434 4.86768 51.5834C4.86768 25.7234 25.8277 4.77341 51.6777 4.77341C77.5277 4.77341 98.4877 25.7334 98.4877 51.5834C98.4877 77.4334 77.5277 98.3934 51.6777 98.3934Z" fill="url(#paint0_linear)"/>
<path fill-rule="evenodd" clip-rule="evenodd" d="M97.5776 51.5834C97.5776 76.9334 77.0276 97.4834 51.6776 97.4834C26.3276 97.4834 5.7776 76.9334 5.7776 51.5834C5.7776 26.2334 26.3276 5.68339 51.6776 5.68339C77.0276 5.68339 97.5776 26.2334 97.5776 51.5834ZM51.6776 1.94339C79.0976 1.94339 101.318 24.1634 101.318 51.5834C101.318 79.0034 79.0876 101.223 51.6776 101.223C24.2576 101.223 2.0376 78.9934 2.0376 51.5834C2.0376 24.1634 24.2576 1.94339 51.6776 1.94339Z" fill="#F2F1F0"/>
<path fill-rule="evenodd" clip-rule="evenodd" d="M94.7677 51.5834C94.7677 75.3834 75.4777 94.6734 51.6777 94.6734C27.8777 94.6734 8.58766 75.3834 8.58766 51.5834C8.58766 27.7834 27.8777 8.49342 51.6777 8.49342C75.4777 8.49342 94.7677 27.7834 94.7677 51.5834ZM51.6777 4.75342C77.5377 4.75342 98.5077 25.7234 98.5077 51.5834C98.5077 77.4434 77.5377 98.4134 51.6777 98.4134C25.8177 98.4134 4.84766 77.4434 4.84766 51.5834C4.84766 25.7234 25.8077 4.75342 51.6777 4.75342Z" fill="url(#paint1_linear)"/>
<path d="M92.1079 45.8934C92.1079 45.0134 91.3979 44.3034 90.5179 44.3034C89.9479 44.3034 86.3779 43.9934 84.4579 42.4934C84.4579 42.4934 84.4679 42.4734 84.4579 42.4934C83.7379 39.8534 82.6779 37.3834 81.3679 35.0534C81.0279 32.8334 83.3279 31.2234 84.3779 29.4934C84.5579 29.1934 84.6679 29.0134 84.7379 28.9034C84.9279 28.3434 84.8279 27.6934 84.3779 27.2434C84.3779 27.2434 82.6179 24.7234 80.8079 22.9234C78.9979 21.1234 76.2679 19.1234 76.2679 19.1234C75.6479 18.5034 74.6379 18.5034 74.0179 19.1234C73.6079 19.5234 70.8879 21.7634 68.4479 22.1234C68.4179 22.1234 68.4179 22.1234 68.4179 22.1234C66.1479 20.8334 63.5979 19.7734 61.0279 19.0534H60.9979C59.1879 17.7234 59.6679 14.9634 59.1879 12.9934C59.1879 12.1134 58.4779 11.4034 57.5979 11.4034C57.5979 11.4034 54.5679 10.8734 52.0179 10.8734C49.4679 10.8734 46.1179 11.4034 46.1179 11.4034C45.2379 11.4034 44.5279 12.1134 44.5279 12.9934C44.5279 13.5634 44.2179 17.1334 42.7179 19.0534C40.1879 19.7634 37.5279 20.8934 35.2779 22.1434C33.0579 22.4834 31.4479 20.1834 29.7179 19.1334C29.4179 18.9534 29.2379 18.8434 29.1279 18.7734C28.5679 18.5834 27.9179 18.6834 27.4679 19.1334C27.4679 19.1334 24.9479 20.8934 23.1479 22.7034C21.3479 24.5134 19.3479 27.2434 19.3479 27.2434C18.7279 27.8634 18.7279 28.8734 19.3479 29.4934C19.7479 29.8934 22.0479 32.6534 22.3579 35.0534V35.0734C21.1079 37.3234 19.9979 39.9734 19.2879 42.5034C19.2879 42.5034 19.3179 42.4634 19.2879 42.5034C17.7379 44.3834 15.1979 43.8334 13.2279 44.3134C12.3479 44.3134 11.6379 45.0234 11.6379 45.9034C11.6379 45.9034 11.1079 48.9334 11.1079 51.4834C11.1079 54.0334 11.6379 57.3834 11.6379 57.3834C11.6379 58.2634 12.3479 58.9734 13.2279 58.9734C13.7979 58.9734 17.3679 59.2834 19.2879 60.7834C19.3279 60.7634 19.3079 60.8134 19.3079 60.8134C20.0479 63.3534 21.0879 65.8934 22.3679 68.1434C22.3479 68.1734 22.3679 68.1434 22.3779 68.2234C22.5979 70.5434 20.4179 72.0534 19.3679 73.7834C19.1879 74.0834 19.0779 74.2634 19.0079 74.3734C18.8179 74.9334 18.9179 75.5834 19.3679 76.0334C19.3679 76.0334 21.1279 78.5534 22.9379 80.3534C24.7479 82.1634 27.4779 84.1534 27.4779 84.1534C28.0979 84.7734 29.1079 84.7734 29.7279 84.1534C30.1279 83.7534 32.8879 81.4534 35.2879 81.1434C35.2879 81.1434 35.2779 81.1534 35.3179 81.1634C37.6279 82.4534 40.0279 83.4634 42.6379 84.1834C42.6579 84.1934 42.7379 84.2134 42.7379 84.2134C44.5479 85.5434 44.0679 88.3034 44.5479 90.2734C44.6479 91.1634 45.1279 91.7234 46.1379 91.8634C46.1379 91.8634 49.1679 92.3934 51.7179 92.3934C54.2679 92.3934 57.6179 91.8734 57.6179 91.8734C58.4979 91.7234 59.2079 91.1634 59.2079 90.2834C59.2079 89.7134 59.5179 86.1434 61.0179 84.2234C61.0179 84.2234 61.0779 84.1734 61.1479 84.1134C63.8079 83.3634 65.8279 82.5434 68.1779 81.1934C68.2979 81.1534 68.1679 81.1634 68.4479 81.1134C70.6679 80.7734 72.2779 83.0734 74.0079 84.1234C74.3079 84.3034 74.4879 84.4134 74.5979 84.4834C75.1579 84.6734 75.8079 84.5734 76.2579 84.1234C76.2579 84.1234 78.7779 82.3634 80.5779 80.5534C82.3879 78.7434 84.3779 76.0134 84.3779 76.0134C84.9979 75.3934 84.9979 74.3834 84.3779 73.7634C83.9779 73.3634 81.6779 70.6034 81.3679 68.2034C81.3379 67.9534 81.3579 67.9234 81.3879 67.8534C82.7279 65.4834 83.5779 63.7534 84.3079 61.0734C84.3079 61.0734 84.2779 60.9834 84.4479 60.7634C85.7779 58.9534 88.5379 59.4334 90.5079 58.9534C91.3879 58.9534 92.0979 58.2434 92.0979 57.3634C92.0979 57.3634 92.6279 54.3334 92.6279 51.7834C92.6279 49.2434 92.1079 45.8934 92.1079 45.8934Z" fill="url(#paint2_linear)"/>
<path d="M74.6377 84.5135C74.6277 84.5135 74.6277 84.5034 74.6177 84.5034C74.6277 84.5034 74.6377 84.5135 74.6377 84.5135Z" fill="#185A97"/>
<path d="M74.6178 84.5034C74.3878 84.3634 74.0278 84.1434 74.0278 84.1434C74.1978 84.3134 74.4078 84.4334 74.6178 84.5034Z" fill="#185A97"/>
<path d="M74.6377 84.5134C74.8477 84.6334 74.8077 84.6134 74.6377 84.5134V84.5134Z" fill="#185A97"/>
<path d="M29.1279 18.7834C29.3579 18.9234 29.7179 19.1434 29.7179 19.1434C29.5479 18.9834 29.3479 18.8634 29.1279 18.7834Z" fill="#185A97"/>
<path d="M29.1079 18.7734C29.1179 18.7734 29.1179 18.7834 29.1279 18.7834C29.1179 18.7834 29.1079 18.7734 29.1079 18.7734Z" fill="#185A97"/>
<path d="M29.1081 18.7735C28.9081 18.6535 28.9481 18.6835 29.1081 18.7735V18.7735Z" fill="#185A97"/>
<path d="M19.008 74.4135C18.888 74.6135 18.908 74.5735 19.008 74.4135V74.4135Z" fill="#185A97"/>
<path d="M19.0078 74.4134C19.0078 74.4034 19.0178 74.4034 19.0178 74.3934C19.0178 74.4034 19.0078 74.4134 19.0078 74.4134Z" fill="#185A97"/>
<path d="M19.0181 74.3934C19.1581 74.1634 19.3781 73.8034 19.3781 73.8034C19.2081 73.9734 19.0881 74.1734 19.0181 74.3934Z" fill="#185A97"/>
<path d="M84.7379 28.9034C84.5979 29.1334 84.3779 29.4934 84.3779 29.4934C84.5379 29.3234 84.6579 29.1234 84.7379 28.9034Z" fill="#185A97"/>
<path d="M84.7483 28.8835C84.7483 28.8935 84.7383 28.8935 84.7383 28.9035C84.7383 28.8935 84.7483 28.8835 84.7483 28.8835Z" fill="#185A97"/>
<path d="M84.748 28.8835C84.868 28.6735 84.838 28.7235 84.748 28.8835V28.8835Z" fill="#185A97"/>
<path opacity="0.15" d="M27.8576 72.8633H73.7776C75.0576 72.8633 76.1076 71.8233 76.1076 70.5333V33.9133H25.5176V70.5433C25.5176 71.8233 26.5576 72.8633 27.8576 72.8633Z" fill="#1F1D20"/>
<path d="M26.4776 70.7333H75.1376C75.6676 70.7333 76.0976 70.3033 76.0976 69.7733V31.7833H25.5176V69.7733C25.5176 70.3033 25.9476 70.7333 26.4776 70.7333Z" fill="#EBEBEB"/>
<path d="M25.5176 35.9933H76.1076V31.4533C76.1076 31.0533 75.7776 30.7133 75.3676 30.7133H26.2576C25.8576 30.7133 25.5176 31.0433 25.5176 31.4533V35.9933Z" fill="#092E4C"/>
<path d="M29.4173 34.7433C30.1173 34.7433 30.6973 34.1733 30.6973 33.4633C30.6973 32.7433 30.1073 32.1833 29.4173 32.1833C28.7173 32.1833 28.1373 32.7533 28.1373 33.4633C28.1273 34.1733 28.6873 34.7433 29.4173 34.7433Z" fill="url(#paint3_linear)"/>
<path d="M63.0676 49.1335H44.5776C43.9076 44.6535 40.0476 41.2035 35.3976 41.2035C34.4976 41.2035 33.6676 41.3735 32.8476 41.6135C32.8276 41.6135 32.8276 41.6135 32.8076 41.6135L32.7676 41.5435V44.4935C33.2676 44.2635 33.8076 44.0835 34.3376 43.9835C34.6876 43.9235 35.0376 43.8935 35.3976 43.8935C39.0276 43.8935 41.9976 46.8535 41.9976 50.4935C41.9976 54.1235 39.0376 57.0935 35.3976 57.0935C34.4576 57.0935 33.5776 56.8935 32.7676 56.5335V59.4035C33.5976 59.6535 34.4776 59.7935 35.3976 59.7935C40.0576 59.7935 43.9276 56.3235 44.5876 51.8335H63.0676V49.1335Z" fill="#185A97"/>
<path d="M31.9678 51.8335C32.5178 53.2935 33.8978 54.3135 35.5278 54.3135C37.6378 54.3135 39.3478 52.6035 39.3478 50.4935C39.3478 48.3835 37.6378 46.6735 35.5278 46.6735C33.9078 46.6735 32.5178 47.7035 31.9678 49.1335H25.5078V51.8335H31.9678Z" fill="#185A97"/>
<path d="M49.9778 52.5634L59.5478 58.7134L69.2878 52.5334L70.5078 53.9434L59.5478 60.9334L48.7578 53.9434L49.9778 52.5634Z" fill="#9CEBFF"/>
<path d="M50.708 51.7734L59.558 41.3334L68.578 51.7834L59.548 57.4334L50.708 51.7734Z" fill="white"/>
<path d="M59.558 41.3334V57.4334L50.708 51.7734L59.558 41.3334Z" fill="#9CEBFF"/>
<path d="M59.5576 41.3334V57.4334L68.5876 51.7834L59.5576 41.3334Z" fill="url(#paint4_linear)"/>
<path d="M59.5576 49.6534L68.5876 51.7834L59.5576 57.4334V49.6534V49.6534Z" fill="#53B1E0"/>
<path d="M59.558 57.4334L50.708 51.7734L59.558 49.6534V57.4334Z" fill="#C3F1FF"/>
<path d="M59.5576 60.9434L70.5176 53.9534L69.2976 52.5434L59.5576 58.7234V60.9434Z" fill="url(#paint5_linear)"/>
<path opacity="0.15" d="M77.5576 73.7733H64.4276C64.0576 73.7733 63.7676 73.4733 63.7676 73.1133V61.4433C63.7676 61.0733 64.0676 60.7833 64.4276 60.7833H77.5576C77.9276 60.7833 78.2176 61.0833 78.2176 61.4433V73.1033C78.2176 73.4733 77.9176 73.7733 77.5576 73.7733Z" fill="#1F1D20"/>
<path d="M77.5576 72.9433H64.4276C64.0576 72.9433 63.7676 72.6433 63.7676 72.2833V60.6233C63.7676 60.2533 64.0676 59.9633 64.4276 59.9633H77.5576C77.9276 59.9633 78.2176 60.2633 78.2176 60.6233V72.2833C78.2176 72.6533 77.9176 72.9433 77.5576 72.9433Z" fill="white"/>
<path d="M75.3577 63.7933C75.3577 63.5133 75.1377 63.2933 74.8577 63.2933H67.0977C66.8177 63.2933 66.5977 63.5133 66.5977 63.7933C66.5977 64.0733 66.8177 64.2933 67.0977 64.2933H74.8677C75.1277 64.2933 75.3577 64.0733 75.3577 63.7933Z" fill="#50E6FF"/>
<path d="M68.4575 63.7933C68.4575 64.3433 68.9075 64.7933 69.4575 64.7933C70.0075 64.7933 70.4575 64.3433 70.4575 63.7933C70.4575 63.2433 70.0075 62.7933 69.4575 62.7933C68.9075 62.7933 68.4575 63.2433 68.4575 63.7933Z" fill="#0D3868"/>
<path d="M75.3577 66.3233C75.3577 66.0433 75.1377 65.8233 74.8577 65.8233H67.0977C66.8177 65.8233 66.5977 66.0433 66.5977 66.3233C66.5977 66.6033 66.8177 66.8233 67.0977 66.8233H74.8677C75.1277 66.8233 75.3577 66.6033 75.3577 66.3233Z" fill="#32B0E7"/>
<path d="M71.4575 66.3233C71.4575 66.8733 71.9075 67.3233 72.4575 67.3233C73.0075 67.3233 73.4575 66.8733 73.4575 66.3233C73.4575 65.7733 73.0075 65.3233 72.4575 65.3233C71.9075 65.3233 71.4575 65.7733 71.4575 66.3233Z" fill="#0D3868"/>
<path d="M75.3577 69.0033C75.3577 68.7233 75.1377 68.5033 74.8577 68.5033H67.0977C66.8177 68.5033 66.5977 68.7233 66.5977 69.0033C66.5977 69.2833 66.8177 69.5033 67.0977 69.5033H74.8677C75.1277 69.5033 75.3577 69.2833 75.3577 69.0033Z" fill="#185A97"/>
<path d="M68.4976 69.0033C68.4976 69.5533 68.9476 70.0033 69.4976 70.0033C70.0476 70.0033 70.4976 69.5533 70.4976 69.0033C70.4976 68.4533 70.0476 68.0033 69.4976 68.0033C68.9376 68.0033 68.4976 68.4533 68.4976 69.0033Z" fill="#0D3868"/>
<defs>
<linearGradient id="paint0_linear" x1="49.9082" y1="-13.2063" x2="53.8902" y2="132.564" gradientUnits="userSpaceOnUse">
<stop stop-color="#00ABDE"/>
<stop offset="1" stop-color="#007ED8"/>
</linearGradient>
<linearGradient id="paint1_linear" x1="3.11085" y1="-20.0412" x2="98.6385" y2="120.84" gradientUnits="userSpaceOnUse">
<stop stop-color="#007ED8"/>
<stop offset="0.7065" stop-color="#002D4C"/>
</linearGradient>
<linearGradient id="paint2_linear" x1="0.825613" y1="-6.55926" x2="97.1492" y2="103.268" gradientUnits="userSpaceOnUse">
<stop stop-color="#007ED8"/>
<stop offset="0.7065" stop-color="#002D4C"/>
</linearGradient>
<linearGradient id="paint3_linear" x1="28.1265" y1="33.4614" x2="30.6993" y2="33.4614" gradientUnits="userSpaceOnUse">
<stop stop-color="#76C0FD"/>
<stop offset="1" stop-color="#63B2FB"/>
</linearGradient>
<linearGradient id="paint4_linear" x1="64.7688" y1="55.9528" x2="59.2575" y2="45.412" gradientUnits="userSpaceOnUse">
<stop stop-color="#1988D9"/>
<stop offset="0.9" stop-color="#54AEF0"/>
</linearGradient>
<linearGradient id="paint5_linear" x1="62.4089" y1="52.8787" x2="66.2204" y2="59.5175" gradientUnits="userSpaceOnUse">
<stop offset="0.1" stop-color="#54AEF0"/>
<stop offset="0.29" stop-color="#4FABEE"/>
<stop offset="0.51" stop-color="#41A2E9"/>
<stop offset="0.74" stop-color="#2A93E0"/>
<stop offset="0.88" stop-color="#1988D9"/>
</linearGradient>
</defs>
</svg>
