<svg width="103" height="103" viewBox="0 0 103 103" fill="none" xmlns="http://www.w3.org/2000/svg">
<path d="M51.8484 98.7157C25.9984 98.7157 5.03845 77.7657 5.03845 51.9057C5.03845 26.0457 25.9984 5.0957 51.8484 5.0957C77.6985 5.0957 98.6584 26.0557 98.6584 51.9057C98.6584 77.7557 77.6985 98.7157 51.8484 98.7157Z" fill="url(#paint0_linear_170_46717)"/>
<path fill-rule="evenodd" clip-rule="evenodd" d="M97.7484 51.9056C97.7484 77.2556 77.1984 97.8056 51.8484 97.8056C26.4984 97.8056 5.94843 77.2556 5.94843 51.9056C5.94843 26.5556 26.4984 6.00563 51.8484 6.00563C77.1984 6.00563 97.7484 26.5556 97.7484 51.9056ZM51.8484 2.26562C79.2684 2.26562 101.488 24.4856 101.488 51.9056C101.488 79.3256 79.2584 101.546 51.8484 101.546C24.4284 101.546 2.20844 79.3156 2.20844 51.9056C2.20844 24.4856 24.4284 2.26562 51.8484 2.26562Z" fill="#F2F1F0"/>
<path fill-rule="evenodd" clip-rule="evenodd" d="M94.9385 51.9062C94.9385 75.7062 75.6485 94.9962 51.8485 94.9962C28.0485 94.9962 8.75846 75.7062 8.75846 51.9062C8.75846 28.1062 28.0485 8.81618 51.8485 8.81618C75.6485 8.81618 94.9385 28.1062 94.9385 51.9062ZM51.8485 5.07617C77.7085 5.07617 98.6785 26.0462 98.6785 51.9062C98.6785 77.7662 77.7085 98.7362 51.8485 98.7362C25.9885 98.7362 5.01846 77.7662 5.01846 51.9062C5.01846 26.0462 25.9785 5.07617 51.8485 5.07617Z" fill="url(#paint1_linear_170_46717)"/>
<path opacity="0.2" d="M81.5489 77.6781C82.9365 77.6781 84.0672 76.5475 84.0672 75.1599V29.3516H34.5414V75.1427C34.5414 76.5303 35.6721 77.661 37.0597 77.661L81.5489 77.6781Z" fill="#1F1D21"/>
<path d="M84.0672 28.5621V27.7912C84.0672 26.8319 83.2963 26.0781 82.3541 26.0781H36.2545C35.3123 26.0781 34.5414 26.849 34.5414 27.7912V28.6478V29.4187V73.531C34.5414 74.4903 35.3123 75.2441 36.2545 75.2441H82.3369C83.2963 75.2441 84.05 74.4732 84.05 73.531V28.6478C84.0843 28.6135 84.0672 28.5964 84.0672 28.5621Z" fill="#F2F1F0"/>
<path fill-rule="evenodd" clip-rule="evenodd" d="M71.3722 51.9154L58.6628 64.6248L45.6343 51.5963C42.2121 48.1741 42.2121 42.6172 45.6343 39.184L45.9314 38.8869C49.3536 35.4648 54.9105 35.4648 58.3437 38.8869L71.3722 51.9154Z" fill="url(#paint2_linear_170_46717)"/>
<path fill-rule="evenodd" clip-rule="evenodd" d="M58.6088 64.5584L46.3506 52.3002L59.379 39.2717C62.8012 35.8495 68.3581 35.8495 71.7913 39.2717L72.0884 39.5688C75.5106 42.991 75.5106 48.5479 72.0884 51.9811L59.5001 64.5584C59.258 64.8115 58.8619 64.8115 58.6088 64.5584Z" fill="url(#paint3_linear_170_46717)"/>
<path d="M68.9406 65.0956C73.3421 65.0956 76.9184 61.5304 76.9184 57.1178C76.9074 52.7163 73.3311 49.1621 68.9406 49.1621C64.5501 49.1621 60.9629 52.7273 60.9629 57.1399C60.9629 61.5414 64.5281 65.0956 68.9406 65.0956Z" fill="#002D4C"/>
<path d="M69.5678 52.4531H68.2584V61.7843H69.5678V52.4531Z" fill="#F2F2F2"/>
<path d="M73.5732 56.5352H64.253V57.8446H73.5842L73.5732 56.5352Z" fill="#F2F2F2"/>
<path opacity="0.2" d="M38.9973 66.0875H34.0504C34.0504 66.0875 34.0468 65.32 34.0468 64.6272L13.0236 41.9736C13.0236 41.2807 13.5797 40.7246 14.2726 40.7246H38.9973C39.6902 40.7246 40.2463 41.2807 40.2463 41.9736V64.8476C40.2463 65.5314 39.6811 66.0875 38.9973 66.0875Z" fill="#1F1D21"/>
<path opacity="0.15" d="M38.9973 65.0159H14.2726C13.5797 65.0159 13.0236 64.4506 13.0236 63.7669V40.8838C13.0236 40.1909 13.5797 39.6348 14.2726 39.6348H38.9973C39.6902 39.6348 40.2463 40.1909 40.2463 40.8838V63.7578C40.2463 64.4506 39.6811 65.0159 38.9973 65.0159Z" fill="#1F1D20"/>
<path d="M38.9973 65.0074H14.2726C13.5797 65.0074 13.0236 64.4513 13.0236 63.7584V40.8935C13.0236 40.2007 13.5797 39.6445 14.2726 39.6445H38.9973C39.6902 39.6445 40.2463 40.2007 40.2463 40.8935V63.7675C40.2463 64.4513 39.6811 65.0074 38.9973 65.0074Z" fill="white"/>
<path d="M32.0504 47.0367C32.0504 46.4715 31.5945 46.0156 31.0293 46.0156H18.7672C18.202 46.0156 17.7461 46.4715 17.7461 47.0367C17.7461 47.6019 18.202 48.0578 18.7672 48.0578H31.0384C31.6036 48.0487 32.0504 47.6019 32.0504 47.0367Z" fill="url(#paint4_linear_170_46717)"/>
<path d="M35.5238 47.0367C35.5238 46.4715 35.068 46.0156 34.5028 46.0156H31.166C30.6008 46.0156 30.9654 46.4715 30.9654 47.0367C30.9654 47.6019 30.6099 48.0578 31.166 48.0578H34.5119C35.0589 48.0487 35.5238 47.6019 35.5238 47.0367Z" fill="#9B9BA0"/>
<path d="M29.5159 47.0369C29.5159 48.1583 30.4184 49.07 31.5489 49.07C32.6794 49.07 33.582 48.1674 33.582 47.0369C33.582 45.9156 32.6612 45.0039 31.5398 45.0039C30.4275 45.0221 29.5159 45.9156 29.5159 47.0369Z" fill="#50E6FF"/>
<path d="M28.2851 52.1695C28.2851 51.6043 27.8293 51.1484 27.264 51.1484H18.7672C18.202 51.1484 17.7461 51.6043 17.7461 52.1695C17.7461 52.7348 18.202 53.1906 18.7672 53.1906H27.2823C27.8384 53.1815 28.2851 52.7348 28.2851 52.1695Z" fill="url(#paint5_linear_170_46717)"/>
<path d="M35.5239 52.1695C35.5239 51.6043 35.068 51.1484 34.5028 51.1484H27.884C27.3188 51.1484 26.8629 51.6043 26.8629 52.1695C26.8629 52.7348 27.3188 53.1906 27.884 53.1906H34.5119C35.0589 53.1815 35.5239 52.7348 35.5239 52.1695Z" fill="#9B9BA0"/>
<path d="M25.076 52.1698C25.076 53.2911 25.9786 54.2028 27.1091 54.2028C28.2395 54.2028 29.1421 53.3002 29.1421 52.1698C29.1421 51.0484 28.2395 50.1367 27.1091 50.1367C25.9786 50.1367 25.076 51.0484 25.076 52.1698Z" fill="#35AFE4"/>
<path d="M23.5535 57.6129C23.5535 57.0476 23.0977 56.5918 22.5324 56.5918H18.7672C18.202 56.6009 17.7461 57.0476 17.7461 57.6129C17.7461 58.1781 18.202 58.634 18.7672 58.634H22.5324C23.0977 58.6157 23.5535 58.169 23.5535 57.6129Z" fill="url(#paint6_linear_170_46717)"/>
<path d="M35.5238 57.6129C35.5238 57.0476 35.068 56.5918 34.5028 56.5918H23.5353C22.97 56.5918 22.5142 57.0476 22.5142 57.6129C22.5142 58.1781 22.97 58.634 23.5353 58.634H34.5028C35.0589 58.6157 35.5238 58.169 35.5238 57.6129Z" fill="#9B9BA0"/>
<path d="M20.8914 57.6131C20.8914 58.7345 21.794 59.6462 22.9245 59.6462C24.0458 59.6462 24.9575 58.7436 24.9575 57.6131C24.9575 56.4918 24.0549 55.5801 22.9245 55.5801C21.794 55.5801 20.8914 56.4918 20.8914 57.6131Z" fill="#2E76BC"/>
<path opacity="0.2" d="M81.5489 77.6781C82.9365 77.6781 84.0672 76.5475 84.0672 75.1599V29.3516H34.5414V75.1427C34.5414 76.5303 35.6721 77.661 37.0597 77.661L81.5489 77.6781Z" fill="#1F1D21"/>
<path d="M84.0672 28.5621V27.7912C84.0672 26.8319 83.2963 26.0781 82.3541 26.0781H36.2545C35.3123 26.0781 34.5414 26.849 34.5414 27.7912V28.6478V29.4187V73.531C34.5414 74.4903 35.3123 75.2441 36.2545 75.2441H82.3369C83.2963 75.2441 84.05 74.4732 84.05 73.531V28.6478C84.0843 28.6135 84.0672 28.5964 84.0672 28.5621Z" fill="#F2F1F0"/>
<path fill-rule="evenodd" clip-rule="evenodd" d="M71.3722 51.9154L58.6628 64.6248L45.6343 51.5963C42.2121 48.1741 42.2121 42.6172 45.6343 39.184L45.9314 38.8869C49.3536 35.4648 54.9105 35.4648 58.3437 38.8869L71.3722 51.9154Z" fill="url(#paint7_linear_170_46717)"/>
<path fill-rule="evenodd" clip-rule="evenodd" d="M58.6088 64.5584L46.3506 52.3002L59.379 39.2717C62.8012 35.8495 68.3581 35.8495 71.7913 39.2717L72.0884 39.5688C75.5106 42.991 75.5106 48.5479 72.0884 51.9811L59.5001 64.5584C59.258 64.8115 58.8619 64.8115 58.6088 64.5584Z" fill="url(#paint8_linear_170_46717)"/>
<path d="M68.9406 65.0956C73.3421 65.0956 76.9184 61.5304 76.9184 57.1178C76.9074 52.7163 73.3311 49.1621 68.9406 49.1621C64.5501 49.1621 60.9629 52.7273 60.9629 57.1399C60.9629 61.5414 64.5281 65.0956 68.9406 65.0956Z" fill="#002D4C"/>
<path d="M69.5678 52.4531H68.2584V61.7843H69.5678V52.4531Z" fill="#F2F2F2"/>
<path d="M73.5732 56.5352H64.253V57.8446H73.5842L73.5732 56.5352Z" fill="#F2F2F2"/>
<path opacity="0.2" d="M38.9973 66.0875H34.0504C34.0504 66.0875 34.0468 65.32 34.0468 64.6272L13.0236 41.9736C13.0236 41.2807 13.5797 40.7246 14.2726 40.7246H38.9973C39.6902 40.7246 40.2463 41.2807 40.2463 41.9736V64.8476C40.2463 65.5314 39.6811 66.0875 38.9973 66.0875Z" fill="#1F1D21"/>
<path opacity="0.15" d="M38.9973 65.0159H14.2726C13.5797 65.0159 13.0236 64.4506 13.0236 63.7669V40.8838C13.0236 40.1909 13.5797 39.6348 14.2726 39.6348H38.9973C39.6902 39.6348 40.2463 40.1909 40.2463 40.8838V63.7578C40.2463 64.4506 39.6811 65.0159 38.9973 65.0159Z" fill="#1F1D20"/>
<path d="M38.9973 65.0074H14.2726C13.5797 65.0074 13.0236 64.4513 13.0236 63.7584V40.8935C13.0236 40.2007 13.5797 39.6445 14.2726 39.6445H38.9973C39.6902 39.6445 40.2463 40.2007 40.2463 40.8935V63.7675C40.2463 64.4513 39.6811 65.0074 38.9973 65.0074Z" fill="white"/>
<path d="M32.0504 47.0367C32.0504 46.4715 31.5945 46.0156 31.0293 46.0156H18.7672C18.202 46.0156 17.7461 46.4715 17.7461 47.0367C17.7461 47.6019 18.202 48.0578 18.7672 48.0578H31.0384C31.6036 48.0487 32.0504 47.6019 32.0504 47.0367Z" fill="url(#paint9_linear_170_46717)"/>
<path d="M35.5238 47.0367C35.5238 46.4715 35.068 46.0156 34.5028 46.0156H31.166C30.6008 46.0156 30.9654 46.4715 30.9654 47.0367C30.9654 47.6019 30.6099 48.0578 31.166 48.0578H34.5119C35.0589 48.0487 35.5238 47.6019 35.5238 47.0367Z" fill="#9B9BA0"/>
<path d="M29.5159 47.0369C29.5159 48.1583 30.4184 49.07 31.5489 49.07C32.6794 49.07 33.582 48.1674 33.582 47.0369C33.582 45.9156 32.6612 45.0039 31.5398 45.0039C30.4275 45.0221 29.5159 45.9156 29.5159 47.0369Z" fill="#50E6FF"/>
<path d="M28.2851 52.1695C28.2851 51.6043 27.8293 51.1484 27.264 51.1484H18.7672C18.202 51.1484 17.7461 51.6043 17.7461 52.1695C17.7461 52.7348 18.202 53.1906 18.7672 53.1906H27.2823C27.8384 53.1815 28.2851 52.7348 28.2851 52.1695Z" fill="url(#paint10_linear_170_46717)"/>
<path d="M35.5239 52.1695C35.5239 51.6043 35.068 51.1484 34.5028 51.1484H27.884C27.3188 51.1484 26.8629 51.6043 26.8629 52.1695C26.8629 52.7348 27.3188 53.1906 27.884 53.1906H34.5119C35.0589 53.1815 35.5239 52.7348 35.5239 52.1695Z" fill="#9B9BA0"/>
<path d="M25.076 52.1698C25.076 53.2911 25.9786 54.2028 27.1091 54.2028C28.2395 54.2028 29.1421 53.3002 29.1421 52.1698C29.1421 51.0484 28.2395 50.1367 27.1091 50.1367C25.9786 50.1367 25.076 51.0484 25.076 52.1698Z" fill="#35AFE4"/>
<path d="M23.5535 57.6129C23.5535 57.0476 23.0977 56.5918 22.5324 56.5918H18.7672C18.202 56.6009 17.7461 57.0476 17.7461 57.6129C17.7461 58.1781 18.202 58.634 18.7672 58.634H22.5324C23.0977 58.6157 23.5535 58.169 23.5535 57.6129Z" fill="url(#paint11_linear_170_46717)"/>
<path d="M35.5238 57.6129C35.5238 57.0476 35.068 56.5918 34.5028 56.5918H23.5353C22.97 56.5918 22.5142 57.0476 22.5142 57.6129C22.5142 58.1781 22.97 58.634 23.5353 58.634H34.5028C35.0589 58.6157 35.5238 58.169 35.5238 57.6129Z" fill="#9B9BA0"/>
<path d="M20.8914 57.6131C20.8914 58.7345 21.794 59.6462 22.9245 59.6462C24.0458 59.6462 24.9575 58.7436 24.9575 57.6131C24.9575 56.4918 24.0549 55.5801 22.9245 55.5801C21.794 55.5801 20.8914 56.4918 20.8914 57.6131Z" fill="#2E76BC"/>
<defs>
<linearGradient id="paint0_linear_170_46717" x1="50.0745" y1="-12.8838" x2="54.0565" y2="132.886" gradientUnits="userSpaceOnUse">
<stop stop-color="#00ABDE"/>
<stop offset="1" stop-color="#007ED8"/>
</linearGradient>
<linearGradient id="paint1_linear_170_46717" x1="3.27886" y1="-19.7164" x2="98.8064" y2="121.165" gradientUnits="userSpaceOnUse">
<stop stop-color="#007ED8"/>
<stop offset="0.7065" stop-color="#002D4C"/>
</linearGradient>
<linearGradient id="paint2_linear_170_46717" x1="36.5376" y1="34.9794" x2="109.355" y2="90.4328" gradientUnits="userSpaceOnUse">
<stop stop-color="#FFB900"/>
<stop offset="0.17" stop-color="#EF8400"/>
<stop offset="0.31" stop-color="#E25C01"/>
<stop offset="0.43" stop-color="#DB4401"/>
<stop offset="0.5" stop-color="#D83B01"/>
</linearGradient>
<linearGradient id="paint3_linear_170_46717" x1="42.8407" y1="42.5342" x2="97.3607" y2="64.5662" gradientUnits="userSpaceOnUse">
<stop stop-color="#FFB900"/>
<stop offset="0.17" stop-color="#EF8400"/>
<stop offset="0.31" stop-color="#E25C01"/>
<stop offset="0.43" stop-color="#DB4401"/>
<stop offset="0.5" stop-color="#D83B01"/>
</linearGradient>
<linearGradient id="paint4_linear_170_46717" x1="24.4886" y1="45.8841" x2="32.8759" y2="69.5327" gradientUnits="userSpaceOnUse">
<stop stop-color="#15548F"/>
<stop offset="0.4179" stop-color="#243A5E"/>
<stop offset="0.9677" stop-color="#1A2C45"/>
</linearGradient>
<linearGradient id="paint5_linear_170_46717" x1="21.608" y1="48.2056" x2="28.2732" y2="66.9985" gradientUnits="userSpaceOnUse">
<stop stop-color="#15548F"/>
<stop offset="0.4179" stop-color="#243A5E"/>
<stop offset="0.9677" stop-color="#1A2C45"/>
</linearGradient>
<linearGradient id="paint6_linear_170_46717" x1="18.9276" y1="52.7484" x2="23.4298" y2="65.4425" gradientUnits="userSpaceOnUse">
<stop stop-color="#15548F"/>
<stop offset="0.4179" stop-color="#243A5E"/>
<stop offset="0.9677" stop-color="#1A2C45"/>
</linearGradient>
<linearGradient id="paint7_linear_170_46717" x1="36.5376" y1="34.9794" x2="109.355" y2="90.4328" gradientUnits="userSpaceOnUse">
<stop stop-color="#FFB900"/>
<stop offset="0.17" stop-color="#EF8400"/>
<stop offset="0.31" stop-color="#E25C01"/>
<stop offset="0.43" stop-color="#DB4401"/>
<stop offset="0.5" stop-color="#D83B01"/>
</linearGradient>
<linearGradient id="paint8_linear_170_46717" x1="42.8407" y1="42.5342" x2="97.3607" y2="64.5662" gradientUnits="userSpaceOnUse">
<stop stop-color="#FFB900"/>
<stop offset="0.17" stop-color="#EF8400"/>
<stop offset="0.31" stop-color="#E25C01"/>
<stop offset="0.43" stop-color="#DB4401"/>
<stop offset="0.5" stop-color="#D83B01"/>
</linearGradient>
<linearGradient id="paint9_linear_170_46717" x1="24.4886" y1="45.8841" x2="32.8759" y2="69.5327" gradientUnits="userSpaceOnUse">
<stop stop-color="#15548F"/>
<stop offset="0.4179" stop-color="#243A5E"/>
<stop offset="0.9677" stop-color="#1A2C45"/>
</linearGradient>
<linearGradient id="paint10_linear_170_46717" x1="21.608" y1="48.2056" x2="28.2732" y2="66.9985" gradientUnits="userSpaceOnUse">
<stop stop-color="#15548F"/>
<stop offset="0.4179" stop-color="#243A5E"/>
<stop offset="0.9677" stop-color="#1A2C45"/>
</linearGradient>
<linearGradient id="paint11_linear_170_46717" x1="18.9276" y1="52.7484" x2="23.4298" y2="65.4425" gradientUnits="userSpaceOnUse">
<stop stop-color="#15548F"/>
<stop offset="0.4179" stop-color="#243A5E"/>
<stop offset="0.9677" stop-color="#1A2C45"/>
</linearGradient>
</defs>
</svg>
