<svg width="103" height="103" viewBox="0 0 103 103" fill="none" xmlns="http://www.w3.org/2000/svg">
<path d="M51.2121 98.1874C25.3621 98.1874 4.4021 77.2374 4.4021 51.3774C4.4021 25.5174 25.3621 4.56738 51.2121 4.56738C77.0621 4.56738 98.0221 25.5274 98.0221 51.3774C98.0221 77.2274 77.0621 98.1874 51.2121 98.1874Z" fill="url(#paint0_linear)"/>
<path fill-rule="evenodd" clip-rule="evenodd" d="M97.1123 51.3774C97.1123 76.7274 76.5623 97.2774 51.2123 97.2774C25.8623 97.2774 5.31227 76.7274 5.31227 51.3774C5.31227 26.0274 25.8623 5.47743 51.2123 5.47743C76.5623 5.47743 97.1123 26.0274 97.1123 51.3774ZM51.2123 1.73743C78.6323 1.73743 100.852 23.9574 100.852 51.3774C100.852 78.7974 78.6223 101.017 51.2123 101.017C23.7923 101.017 1.57227 78.7874 1.57227 51.3774C1.57227 23.9574 23.7923 1.73743 51.2123 1.73743Z" fill="#F2F1F0"/>
<path fill-rule="evenodd" clip-rule="evenodd" d="M94.3021 51.3775C94.3021 75.1775 75.0121 94.4675 51.2121 94.4675C27.4121 94.4675 8.12208 75.1775 8.12208 51.3775C8.12208 27.5775 27.4121 8.28749 51.2121 8.28749C75.0121 8.28749 94.3021 27.5775 94.3021 51.3775ZM51.2121 4.54749C77.0721 4.54749 98.0421 25.5175 98.0421 51.3775C98.0421 77.2375 77.0721 98.2075 51.2121 98.2075C25.3521 98.2075 4.38208 77.2375 4.38208 51.3775C4.38208 25.5175 25.3421 4.54749 51.2121 4.54749Z" fill="#0078D4"/>
<path opacity="0.15" d="M26.9221 73.4975H83.1821V30.1775H26.9221V73.4975Z" fill="#1F1D20"/>
<path d="M26.9221 71.5274H83.1821V28.2074H26.9221V71.5274Z" fill="#EBEBEB"/>
<path d="M26.9221 32.8873H83.1621V27.0273H26.9221V32.8873Z" fill="#185A97"/>
<path d="M31.2521 31.5073C32.0421 31.5073 32.6821 30.8673 32.6821 30.0773C32.6821 29.2873 32.0421 28.6473 31.2521 28.6473C30.4621 28.6473 29.8221 29.2873 29.8221 30.0773C29.8121 30.8673 30.4621 31.5073 31.2521 31.5073Z" fill="#32B0E7"/>
<path d="M43.732 42.9576L41.712 40.8776C41.442 40.5976 40.982 40.6076 40.722 40.9076L32.222 50.6176C31.842 51.0476 31.842 51.6976 32.222 52.1276L40.652 61.8176C40.972 62.1776 41.532 62.1776 41.852 61.8176L44.372 58.9176L44.652 43.9676L43.732 42.9576Z" fill="url(#paint1_linear)"/>
<path d="M53.632 50.1875L45.252 41.0275C44.892 40.6375 44.282 40.6375 43.912 41.0175L40.042 45.0175C39.622 45.4475 39.612 46.1375 40.032 46.5875L44.002 50.8475C44.292 51.1575 44.292 51.6475 44.002 51.9575L40.012 56.2675C39.602 56.7075 39.612 57.3975 40.032 57.8275L43.912 61.8575C44.282 62.2375 44.902 62.2375 45.262 61.8475L53.642 52.6175C54.252 51.9075 54.252 50.8675 53.632 50.1875Z" fill="url(#paint2_linear)"/>
<path d="M54.0219 52.1575L50.2819 56.3075C50.0019 56.6175 49.5119 56.6275 49.2119 56.3275L45.4519 52.4875C44.8419 51.8675 44.8419 50.8675 45.4419 50.2475L49.1319 46.4375C49.4219 46.1375 49.9219 46.1375 50.2019 46.4575L54.0219 50.6675C54.4119 51.0875 54.4119 51.7375 54.0219 52.1575Z" fill="url(#paint3_linear)"/>
<path d="M78.4322 44.2075C78.4322 43.5275 77.8722 42.9675 77.1922 42.9675H57.9522C57.2722 42.9675 56.7122 43.5275 56.7122 44.2075C56.7122 44.8875 57.2722 45.4475 57.9522 45.4475H77.2022C77.8822 45.4475 78.4322 44.8975 78.4322 44.2075Z" fill="#84ECFD"/>
<path d="M61.342 44.1975C61.342 45.5675 62.452 46.6675 63.812 46.6675C65.182 46.6675 66.282 45.5575 66.282 44.1975C66.282 42.8275 65.172 41.7275 63.812 41.7275C62.452 41.7275 61.342 42.8375 61.342 44.1975Z" fill="#32B0E7"/>
<path d="M78.4322 50.4876C78.4322 49.8076 77.8722 49.2476 77.1922 49.2476H57.9522C57.2722 49.2476 56.7122 49.8076 56.7122 50.4876C56.7122 51.1676 57.2722 51.7276 57.9522 51.7276H77.2022C77.8822 51.7176 78.4322 51.1676 78.4322 50.4876Z" fill="#50E6FF"/>
<path d="M68.7822 50.4876C68.7822 51.8576 69.8922 52.9576 71.2522 52.9576C72.6122 52.9576 73.7222 51.8476 73.7222 50.4876C73.7222 49.1176 72.6122 48.0176 71.2522 48.0176C69.8922 48.0176 68.7822 49.1176 68.7822 50.4876Z" fill="#0078D4"/>
<path d="M78.4322 57.1276C78.4322 56.4476 77.8722 55.8876 77.1922 55.8876H57.9522C57.2722 55.8876 56.7122 56.4476 56.7122 57.1276C56.7122 57.8176 57.2722 58.3676 57.9522 58.3676H77.2022C77.8822 58.3776 78.4322 57.8276 78.4322 57.1276Z" fill="#32B0E7"/>
<path d="M61.4221 57.1276C61.4221 58.4976 62.5321 59.5976 63.8921 59.5976C65.2621 59.5976 66.3621 58.4876 66.3621 57.1276C66.3621 55.7576 65.2521 54.6576 63.8921 54.6576C62.5421 54.6576 61.4221 55.7676 61.4221 57.1276Z" fill="#185A97"/>
<path fill-rule="evenodd" clip-rule="evenodd" d="M32.822 74.8574C32.822 75.6474 32.172 76.2874 31.392 76.2874H18.482C17.692 76.2874 17.052 75.6474 17.052 74.8574V64.0974H32.822V74.8574Z" fill="#30404D"/>
<path fill-rule="evenodd" clip-rule="evenodd" d="M32.822 64.0974C32.822 64.8874 32.172 65.5274 31.392 65.5274H18.482C17.692 65.5274 17.052 64.8874 17.052 64.0974V62.6674C17.052 61.8774 17.702 61.2374 18.482 61.2374H31.392C32.182 61.2374 32.822 61.8874 32.822 62.6674V64.0974Z" fill="#546670"/>
<path fill-rule="evenodd" clip-rule="evenodd" d="M31.382 65.8874H25.642C25.252 65.8874 24.922 66.2074 24.922 66.6074V74.8474C24.922 75.2374 24.602 75.5674 24.202 75.5674H18.472C17.682 75.5674 17.042 74.9174 17.042 74.1274V74.8474C17.042 75.6374 17.692 76.2774 18.472 76.2774H31.382C32.172 76.2774 32.812 75.6274 32.812 74.8474V64.4474C32.822 65.2474 32.172 65.8874 31.382 65.8874Z" fill="#182A37"/>
<path fill-rule="evenodd" clip-rule="evenodd" d="M24.932 67.6974C23.212 67.6974 21.812 69.0874 21.812 70.8174C21.812 72.5374 23.202 73.9374 24.932 73.9374C26.652 73.9374 28.052 72.5374 28.052 70.8174C28.042 69.0874 26.652 67.6974 24.932 67.6974Z" fill="#ADBDC4"/>
<path fill-rule="evenodd" clip-rule="evenodd" d="M21.7121 63.3874C21.7121 63.9774 21.0721 64.4674 20.2821 64.4674C19.4921 64.4674 18.8521 63.9874 18.8521 63.3874C18.8521 62.7874 19.4921 62.3074 20.2821 62.3074C21.0621 62.3074 21.7121 62.7874 21.7121 63.3874Z" fill="#182A37"/>
<path fill-rule="evenodd" clip-rule="evenodd" d="M31.0319 63.3874C31.0319 63.9774 30.3919 64.4674 29.6019 64.4674C28.8119 64.4674 28.1719 63.9874 28.1719 63.3874C28.1719 62.7874 28.8119 62.3074 29.6019 62.3074C30.3819 62.3074 31.0319 62.7874 31.0319 63.3874Z" fill="#182A37"/>
<path fill-rule="evenodd" clip-rule="evenodd" d="M24.9319 53.3474C21.7719 53.3474 19.1919 55.9174 19.1919 59.0874V64.0974C19.4519 64.3174 19.8319 64.4674 20.2719 64.4674C20.7019 64.4674 21.0819 64.3174 21.3519 64.0974V59.0874C21.3519 57.1174 22.9619 55.5074 24.9319 55.5074C26.9019 55.5074 28.5119 57.1174 28.5119 59.0874V63.3874C28.5119 63.7774 28.9919 64.1074 29.5919 64.1074C30.1819 64.1074 30.6719 63.7874 30.6719 63.3874V59.0874C30.6719 55.9174 28.0919 53.3474 24.9319 53.3474Z" fill="#F5F8F5"/>
<path fill-rule="evenodd" clip-rule="evenodd" d="M22.8719 55.7674C21.4919 56.3474 20.6219 57.7474 20.6219 59.2474V62.9174C20.6219 63.3874 20.1719 63.7374 19.7219 63.6074C19.5019 63.5474 19.3019 63.4674 19.1819 63.3674V64.0874C19.4419 64.3074 19.8219 64.4574 20.2619 64.4574C20.3819 64.4574 20.5019 64.4474 20.6219 64.4174C20.6919 64.4074 20.7619 64.3874 20.8319 64.3674C20.8619 64.3574 20.9019 64.3474 20.9319 64.3274C20.9819 64.3074 21.0319 64.2874 21.0719 64.2574C21.0919 64.2474 21.1219 64.2374 21.1419 64.2174C21.2119 64.1774 21.2719 64.1274 21.3319 64.0874V59.0774C21.3319 57.2174 22.7519 55.6874 24.5619 55.5074C24.0319 55.4574 23.4619 55.5274 22.8719 55.7674Z" fill="#C5CCCD"/>
<path fill-rule="evenodd" clip-rule="evenodd" d="M24.932 53.3474C24.812 53.3474 24.692 53.3574 24.572 53.3674C27.572 53.5574 29.952 56.0374 29.952 59.0874V62.9174C29.952 63.3874 29.502 63.7374 29.052 63.6074C28.832 63.5474 28.632 63.4674 28.512 63.3674V64.0874C28.772 64.3074 29.162 64.4574 29.592 64.4574C30.022 64.4574 30.402 64.3074 30.672 64.0874V59.0774C30.672 55.9174 28.092 53.3474 24.932 53.3474Z" fill="#C5CCCD"/>
<defs>
<linearGradient id="paint0_linear" x1="49.4421" y1="-13.4155" x2="53.4251" y2="132.352" gradientUnits="userSpaceOnUse">
<stop stop-color="#00ABDE"/>
<stop offset="1" stop-color="#007ED8"/>
</linearGradient>
<linearGradient id="paint1_linear" x1="37.7595" y1="41.4694" x2="39.3192" y2="59.7958" gradientUnits="userSpaceOnUse">
<stop stop-color="#A23093"/>
<stop offset="1" stop-color="#692266"/>
</linearGradient>
<linearGradient id="paint2_linear" x1="39.7003" y1="51.4266" x2="54.0949" y2="51.4266" gradientUnits="userSpaceOnUse">
<stop stop-color="#E184C4"/>
<stop offset="1" stop-color="#D76EBC"/>
</linearGradient>
<linearGradient id="paint3_linear" x1="44.9991" y1="51.3807" x2="54.3145" y2="51.3807" gradientUnits="userSpaceOnUse">
<stop stop-color="#E89BCA"/>
<stop offset="1" stop-color="#E591C8"/>
</linearGradient>
</defs>
</svg>
