<svg width="103" height="103" viewBox="0 0 103 103" fill="none" xmlns="http://www.w3.org/2000/svg">
<path d="M51.9228 97.9198C26.0728 97.9198 5.11279 76.9698 5.11279 51.1098C5.11279 25.2498 26.0728 4.2998 51.9228 4.2998C77.7728 4.2998 98.7328 25.2598 98.7328 51.1098C98.7328 76.9598 77.7728 97.9198 51.9228 97.9198Z" fill="url(#paint0_linear_166_42570)"/>
<path fill-rule="evenodd" clip-rule="evenodd" d="M97.8228 51.1097C97.8228 76.4597 77.2728 97.0097 51.9228 97.0097C26.5728 97.0097 6.02278 76.4597 6.02278 51.1097C6.02278 25.7597 26.5728 5.20973 51.9228 5.20973C77.2728 5.20973 97.8228 25.7597 97.8228 51.1097ZM51.9228 1.46973C79.3428 1.46973 101.563 23.6897 101.563 51.1097C101.563 78.5297 79.3328 100.75 51.9228 100.75C24.5028 100.75 2.28278 78.5197 2.28278 51.1097C2.28278 23.6897 24.5028 1.46973 51.9228 1.46973Z" fill="#F2F1F0"/>
<path fill-rule="evenodd" clip-rule="evenodd" d="M95.0128 51.1093C95.0128 74.9093 75.7228 94.1993 51.9228 94.1993C28.1228 94.1993 8.8328 74.9093 8.8328 51.1093C8.8328 27.3093 28.1228 8.0193 51.9228 8.0193C75.7228 8.0193 95.0128 27.3093 95.0128 51.1093ZM51.9228 4.2793C77.7828 4.2793 98.7528 25.2493 98.7528 51.1093C98.7528 76.9693 77.7828 97.9393 51.9228 97.9393C26.0628 97.9393 5.0928 76.9693 5.0928 51.1093C5.0928 25.2493 26.0528 4.2793 51.9228 4.2793Z" fill="url(#paint1_linear_166_42570)"/>
<path opacity="0.15" d="M89.3496 46.2756C89.3496 45.4664 88.6875 44.7938 87.8678 44.7938C87.3319 44.7938 84.0216 44.4996 82.2351 43.1124C82.2351 43.1124 82.2457 43.0914 82.2351 43.1124C81.5626 40.6639 80.5748 38.373 79.3557 36.1977C79.0405 34.138 81.1738 32.6352 82.1511 31.0274C82.3192 30.7437 82.4243 30.586 82.4874 30.4704C82.666 29.945 82.5714 29.346 82.1511 28.9362C82.1511 28.9362 80.5117 26.5927 78.8303 24.9218C77.1489 23.2509 74.6058 21.3909 74.6058 21.3909C74.0278 20.8129 73.0925 20.8129 72.5146 21.3909C72.1362 21.7587 69.6141 23.8394 67.3337 24.1757C67.3022 24.1757 67.3022 24.1757 67.3022 24.1757C65.19 22.9777 62.815 21.9899 60.44 21.3173H60.4085C58.7271 20.0773 59.1685 17.5132 58.7271 15.6846C58.7271 14.8755 58.065 14.2029 57.2454 14.2029C57.2454 14.2029 54.429 13.709 52.054 13.709C49.6791 13.709 46.579 14.2029 46.579 14.2029C45.7698 14.2029 45.0972 14.8649 45.0972 15.6846C45.0972 16.2206 44.803 19.5308 43.4158 21.3173C41.0619 21.9794 38.5923 23.0302 36.5011 24.1967C34.4414 24.512 32.9386 22.3787 31.3308 21.4014C31.0471 21.2332 30.8894 21.1282 30.7738 21.0651C30.2484 20.8865 29.6494 20.981 29.2395 21.4014C29.2395 21.4014 26.8961 23.0407 25.2252 24.7221C23.5543 26.4035 21.6943 28.9467 21.6943 28.9467C21.1163 29.5246 21.1163 30.4599 21.6943 31.0379C22.0621 31.4057 24.2059 33.9698 24.4896 36.2082V36.2292C23.3231 38.3205 22.3038 40.7795 21.6312 43.1335C21.6312 43.1335 21.6627 43.0914 21.6312 43.1335C20.1915 44.8779 17.8271 44.3735 15.9985 44.8149C15.1894 44.8149 14.5168 45.4769 14.5168 46.2966C14.5168 46.2966 14.0229 49.1129 14.0229 51.4879C14.0229 53.8629 14.5168 56.963 14.5168 56.963C14.5168 57.7721 15.1789 58.4447 15.9985 58.4447C16.5345 58.4447 19.8447 58.7389 21.6312 60.1261C21.6733 60.1051 21.6522 60.1576 21.6522 60.1576C22.3353 62.5221 23.3126 64.8866 24.5001 66.9673C24.4791 66.9988 24.5001 66.9673 24.5106 67.0409C24.7103 69.1951 22.6926 70.6033 21.7153 72.2112C21.5471 72.4949 21.4421 72.6525 21.379 72.7681C21.2004 73.2936 21.2949 73.8926 21.7153 74.3024C21.7153 74.3024 23.3547 76.6458 25.0361 78.3167C26.7175 79.9981 29.2606 81.8477 29.2606 81.8477C29.8385 82.4256 30.7738 82.4256 31.3518 81.8477C31.7196 81.4799 34.2837 79.3361 36.5221 79.0523C36.5221 79.0523 36.5116 79.0629 36.5536 79.0734C38.7079 80.2714 40.9253 81.2171 43.3528 81.8792C43.3738 81.8897 43.4474 81.9107 43.4474 81.9107C45.1288 83.1507 44.6874 85.7149 45.1288 87.5434C45.2234 88.3631 45.6752 88.8885 46.6105 89.0251C46.6105 89.0251 49.4268 89.5191 51.8018 89.5191C54.1768 89.5191 57.2769 89.0357 57.2769 89.0357C58.086 88.899 58.7586 88.3736 58.7586 87.5539C58.7586 87.018 59.0529 83.7077 60.44 81.9212C60.44 81.9212 60.5031 81.8687 60.5556 81.8161C63.0252 81.1226 64.9062 80.3554 67.092 79.1049C67.2076 79.0629 67.0815 79.0734 67.3443 79.0313C69.404 78.7161 70.9067 80.8493 72.5146 81.8267C72.7983 81.9948 72.9559 82.0999 73.0715 82.1629C73.597 82.3416 74.196 82.247 74.6058 81.8267C74.6058 81.8267 76.9492 80.1873 78.6201 78.5059C80.3015 76.8245 82.1511 74.2814 82.1511 74.2814C82.7291 73.7034 82.7291 72.7681 82.1511 72.1901C81.7833 71.8223 79.6395 69.2582 79.3557 67.0198C79.3242 66.7886 79.3452 66.7571 79.3768 66.6941C80.6273 64.4977 81.405 62.8899 82.088 60.3888C82.088 60.3888 82.0565 60.3047 82.2141 60.0946C83.4542 58.4132 86.0183 58.8545 87.8468 58.4132C88.656 58.4132 89.3285 57.7511 89.3285 56.9314C89.3285 56.9314 89.8225 54.1151 89.8225 51.7401C89.833 49.3862 89.3496 46.2756 89.3496 46.2756Z" fill="#1F1D20"/>
<path d="M89.3496 45.2668C89.3496 44.4576 88.6875 43.7851 87.8678 43.7851C87.3319 43.7851 84.0216 43.4908 82.2351 42.1037C82.2351 42.1037 82.2457 42.0826 82.2351 42.1037C81.5626 39.6551 80.5748 37.3642 79.3557 35.1889C79.0405 33.1292 81.1738 31.6264 82.1511 30.0186C82.3192 29.7349 82.4243 29.5772 82.4874 29.4616C82.666 28.9362 82.5714 28.3372 82.1511 27.9274C82.1511 27.9274 80.5117 25.5839 78.8303 23.913C77.1489 22.2421 74.6058 20.3821 74.6058 20.3821C74.0278 19.8041 73.0925 19.8041 72.5146 20.3821C72.1362 20.7499 69.6141 22.8306 67.3337 23.1669C67.3022 23.1669 67.3022 23.1669 67.3022 23.1669C65.19 21.9689 62.815 20.9811 60.44 20.3085H60.4085C58.7271 19.0685 59.1685 16.5044 58.7271 14.6758C58.7271 13.8667 58.065 13.1941 57.2454 13.1941C57.2454 13.1941 54.429 12.7002 52.054 12.7002C49.6791 12.7002 46.579 13.1941 46.579 13.1941C45.7698 13.1941 45.0972 13.8562 45.0972 14.6758C45.0972 15.2118 44.803 18.522 43.4158 20.3085C41.0619 20.9706 38.5923 22.0214 36.5011 23.1879C34.4414 23.5032 32.9386 21.3699 31.3308 20.3926C31.0471 20.2245 30.8894 20.1194 30.7738 20.0563C30.2484 19.8777 29.6494 19.9722 29.2395 20.3926C29.2395 20.3926 26.8961 22.032 25.2252 23.7134C23.5543 25.3948 21.6943 27.9379 21.6943 27.9379C21.1163 28.5159 21.1163 29.4511 21.6943 30.0291C22.0621 30.3969 24.2059 32.9611 24.4896 35.1994V35.2204C23.3231 37.3117 22.3038 39.7707 21.6312 42.1247C21.6312 42.1247 21.6627 42.0826 21.6312 42.1247C20.1915 43.8691 17.8271 43.3647 15.9985 43.8061C15.1894 43.8061 14.5168 44.4681 14.5168 45.2878C14.5168 45.2878 14.0229 48.1041 14.0229 50.4791C14.0229 52.8541 14.5168 55.9542 14.5168 55.9542C14.5168 56.7634 15.1789 57.4359 15.9985 57.4359C16.5345 57.4359 19.8447 57.7302 21.6312 59.1173C21.6733 59.0963 21.6522 59.1488 21.6522 59.1488C22.3353 61.5133 23.3126 63.8778 24.5001 65.9585C24.4791 65.99 24.5001 65.9585 24.5106 66.0321C24.7103 68.1864 22.6926 69.5945 21.7153 71.2024C21.5471 71.4861 21.4421 71.6437 21.379 71.7593C21.2004 72.2848 21.2949 72.8838 21.7153 73.2936C21.7153 73.2936 23.3547 75.6371 25.0361 77.3079C26.7175 78.9893 29.2606 80.8389 29.2606 80.8389C29.8385 81.4169 30.7738 81.4169 31.3518 80.8389C31.7196 80.4711 34.2837 78.3273 36.5221 78.0436C36.5221 78.0436 36.5116 78.0541 36.5536 78.0646C38.7079 79.2626 40.9253 80.2084 43.3528 80.8704C43.3738 80.8809 43.4474 80.9019 43.4474 80.9019C45.1288 82.142 44.6874 84.7061 45.1288 86.5346C45.2234 87.3543 45.6752 87.8797 46.6105 88.0163C46.6105 88.0163 49.4268 88.5103 51.8018 88.5103C54.1768 88.5103 57.2769 88.0269 57.2769 88.0269C58.086 87.8902 58.7586 87.3648 58.7586 86.5451C58.7586 86.0092 59.0529 82.6989 60.44 80.9124C60.44 80.9124 60.5031 80.8599 60.5556 80.8074C63.0252 80.1138 64.9062 79.3466 67.092 78.0961C67.2076 78.0541 67.0815 78.0646 67.3443 78.0225C69.404 77.7073 70.9067 79.8405 72.5146 80.8179C72.7983 80.986 72.9559 81.0911 73.0715 81.1541C73.597 81.3328 74.196 81.2382 74.6058 80.8179C74.6058 80.8179 76.9492 79.1785 78.6201 77.4971C80.3015 75.8157 82.1511 73.2726 82.1511 73.2726C82.7291 72.6946 82.7291 71.7593 82.1511 71.1813C81.7833 70.8135 79.6395 68.2494 79.3557 66.011C79.3242 65.7799 79.3452 65.7483 79.3768 65.6853C80.6273 63.4889 81.405 61.8811 82.088 59.38C82.088 59.38 82.0565 59.296 82.2141 59.0858C83.4542 57.4044 86.0183 57.8458 87.8468 57.4044C88.656 57.4044 89.3285 56.7423 89.3285 55.9227C89.3285 55.9227 89.8225 53.1063 89.8225 50.7313C89.833 48.3774 89.3496 45.2668 89.3496 45.2668Z" fill="url(#paint2_linear_166_42570)"/>
<path d="M73.124 81.1541C73.1135 81.1541 73.1135 81.1436 73.103 81.1436C73.1135 81.1436 73.124 81.1541 73.124 81.1541Z" fill="#9FC2F6"/>
<path d="M73.103 81.1439C72.8928 81.0178 72.546 80.8076 72.546 80.8076C72.7142 80.9652 72.9033 81.0703 73.103 81.1439Z" fill="#9FC2F6"/>
<path d="M73.1241 81.1543C73.3132 81.2594 73.2712 81.2384 73.1241 81.1543V81.1543Z" fill="#9FC2F6"/>
<path d="M30.8369 20.0879C31.0471 20.214 31.3938 20.4242 31.3938 20.4242C31.2362 20.2665 31.0365 20.1509 30.8369 20.0879Z" fill="#9FC2F6"/>
<path d="M30.8158 20.0771C30.8263 20.0771 30.8263 20.0877 30.8368 20.0877C30.8263 20.0877 30.8158 20.0771 30.8158 20.0771Z" fill="#9FC2F6"/>
<path d="M30.8157 20.0771C30.6265 19.9615 30.6686 19.9825 30.8157 20.0771V20.0771Z" fill="#9FC2F6"/>
<path d="M21.4313 71.7695C21.3157 71.9587 21.3368 71.9167 21.4313 71.7695V71.7695Z" fill="#9FC2F6"/>
<path d="M21.4313 71.77C21.4313 71.7595 21.4418 71.7595 21.4418 71.749C21.4418 71.7595 21.4313 71.77 21.4313 71.77Z" fill="#9FC2F6"/>
<path d="M21.4421 71.7484C21.5682 71.5382 21.7784 71.1914 21.7784 71.1914C21.6208 71.349 21.5157 71.5382 21.4421 71.7484Z" fill="#9FC2F6"/>
<path d="M82.498 29.4824C82.3719 29.6926 82.1617 30.0394 82.1617 30.0394C82.3193 29.8712 82.4349 29.6821 82.498 29.4824Z" fill="#9FC2F6"/>
<path d="M82.5083 29.4619C82.5083 29.4724 82.4978 29.4724 82.4978 29.4829C82.4978 29.4724 82.5083 29.4619 82.5083 29.4619Z" fill="#9FC2F6"/>
<path d="M82.5083 29.4616C82.6239 29.2724 82.6029 29.3144 82.5083 29.4616V29.4616Z" fill="#9FC2F6"/>
<path opacity="0.15" d="M72.1585 35.6289H31.6865V70.5697C31.6865 71.2822 32.2771 71.8634 32.9802 71.8634H70.8554C71.5679 71.8634 72.1491 71.2728 72.1491 70.5697L72.1585 35.6289Z" fill="#1F1D20"/>
<path d="M70.7807 30.6035H33.0649C32.2962 30.6035 31.6868 31.2129 31.6868 31.9816V34.1004V34.9348V69.0412C31.6868 69.7537 32.2774 70.3349 32.9806 70.3349H70.8557C71.5682 70.3349 72.1495 69.7443 72.1495 69.0412V34.9348H72.1588V31.9816C72.1588 31.2129 71.5495 30.6035 70.7807 30.6035Z" fill="url(#paint3_linear_166_42570)"/>
<path d="M63.3948 58.9862C62.7586 53.2811 57.8648 48.7949 51.9432 48.7949C46.0706 48.7949 41.2257 53.1835 40.4916 58.8399C40.3937 59.23 40.3937 59.6689 40.3937 60.059C40.5406 61.6681 41.6661 63.2286 43.7705 64.4476C48.2728 67.0321 55.6136 67.0321 60.067 64.4476C62.1713 63.2286 63.248 61.6681 63.3948 60.059C63.4927 59.7177 63.4438 59.3276 63.3948 58.9862Z" fill="url(#paint4_radial_166_42570)"/>
<path d="M51.9518 47.6262C55.7818 47.6262 58.8867 44.5387 58.8867 40.7301C58.8867 36.9215 55.7818 33.834 51.9518 33.834C48.1218 33.834 45.017 36.9215 45.017 40.7301C45.017 44.5387 48.1218 47.6262 51.9518 47.6262Z" fill="url(#paint5_radial_166_42570)"/>
<path opacity="0.15" fill-rule="evenodd" clip-rule="evenodd" d="M56.6635 55.2878L56.5523 55.1766C55.9634 54.5887 55.1653 54.2585 54.3333 54.2585C53.5012 54.2585 52.7031 54.5887 52.1142 55.1766L52.003 55.2878L51.8918 55.1766C51.6001 54.8841 51.2535 54.6521 50.8719 54.4937C50.4903 54.3354 50.0813 54.2539 49.6682 54.2539C49.2551 54.2539 48.846 54.3354 48.4644 54.4937C48.0829 54.6521 47.7363 54.8841 47.4445 55.1766L47.3426 55.2785C46.7547 55.8674 46.4246 56.6654 46.4246 57.4975C46.4246 58.3296 46.7547 59.1277 47.3426 59.7166L47.4538 59.8277L51.8548 64.2287C51.8738 64.2489 51.8968 64.265 51.9223 64.276C51.9478 64.287 51.9753 64.2928 52.003 64.2928C52.0308 64.2928 52.0583 64.287 52.0838 64.276C52.1092 64.265 52.1322 64.2489 52.1513 64.2287L56.6635 59.7166C57.2508 59.1293 57.5807 58.3327 57.5807 57.5021C57.5807 56.6716 57.2508 55.8751 56.6635 55.2878V55.2878Z" fill="#1F1D20"/>
<path d="M50.0773 53.8833C50.909 53.8868 51.1183 53.8847 51.7047 54.4746L51.8825 54.5871L52.1039 54.5145C52.6931 53.9233 52.8639 54.1511 53.6986 54.1491C54.1106 54.1493 54.149 53.4418 54.5292 53.6009C54.9093 53.7599 54.2563 54.0717 54.5458 54.365L55.26 54.6142C55.8479 55.2031 55.26 54.5462 55.26 55.3783C55.26 56.2104 56.1635 55.6034 55.5757 56.1923L52.486 60.2786L52.3377 60.4268L52.1895 60.2786L48.7983 57.4381L48.6778 57.3176C48.3845 57.0273 48.193 57.5532 48.0341 57.1723C47.8752 56.7914 47.7684 56.4721 47.7684 56.0594C47.7684 55.6467 47.8744 55.5003 48.0333 55.1194C48.1922 54.7385 48.4053 55.1039 48.6986 54.8135L48.8647 54.4481C49.1562 54.1549 48.4167 53.7433 48.7983 53.5843C49.1799 53.4253 49.3555 53.8656 49.7689 53.8651L50.0773 53.8833ZM49.7037 51.96C49.2217 51.9585 48.7441 52.0527 48.2988 52.2372C47.8535 52.4217 47.3686 52.6917 47.0289 53.0337L46.927 53.1449C46.5852 53.4809 46.3682 53.8651 46.1837 54.3074C45.9991 54.7498 45.9048 55.2246 45.9065 55.7039C45.905 56.1859 45.9992 56.6635 46.1837 57.1088C46.3682 57.5542 46.6469 57.9156 46.9888 58.2553L47.0629 58.3294L47.1017 58.3723L51.5397 62.764L51.6417 62.8752C51.7416 62.9704 51.8743 63.0235 52.0123 63.0235C52.0793 63.0238 52.1457 63.0108 52.2077 62.9854C52.2697 62.9599 52.3261 62.9225 52.3736 62.8752L52.4941 62.764L52.5497 62.6992L57.0341 58.2147C57.3759 57.8787 57.647 57.4778 57.8316 57.0354C58.0162 56.5931 58.1104 56.1183 58.1088 55.639C58.1103 55.157 58.0161 54.6795 57.8316 54.2341C57.6471 53.7888 57.4234 53.4575 57.0814 53.1178L56.9795 53.0159C56.3364 52.3701 55.4276 52.0387 54.5172 51.9959C53.6068 51.953 52.7132 52.2562 52.0123 52.8388C51.3581 52.2896 50.5579 51.9615 49.7037 51.96Z" fill="white"/>
<path fill-rule="evenodd" clip-rule="evenodd" d="M56.1654 58.0156L52.0033 62.1775L47.7564 57.9306C47.4875 57.6644 47.2741 57.3476 47.1284 56.9984C46.9827 56.6493 46.9077 56.2747 46.9077 55.8963C46.9077 55.518 46.9827 55.1434 47.1284 54.7942C47.2741 54.445 47.4875 54.1282 47.7564 53.862L47.8498 53.7686C48.116 53.4997 48.4328 53.2863 48.782 53.1406C49.1312 52.9949 49.5058 52.9199 49.8841 52.9199C50.2625 52.9199 50.6371 52.9949 50.9862 53.1406C51.3354 53.2863 51.6522 53.4997 51.9184 53.7686L56.1654 58.0156Z" fill="url(#paint6_linear_166_42570)"/>
<path fill-rule="evenodd" clip-rule="evenodd" d="M51.8594 62.0414L47.8333 58.0153L52.0803 53.7683C52.6201 53.2294 53.3518 52.9268 54.1146 52.9268C54.8774 52.9268 55.609 53.2294 56.1489 53.7683L56.2508 53.8702C56.7897 54.4101 57.0924 55.1417 57.0924 55.9046C57.0924 56.6674 56.7897 57.399 56.2508 57.9388L52.1228 62.0584C52.084 62.0873 52.0362 62.1014 51.988 62.0983C51.9397 62.0951 51.8942 62.075 51.8594 62.0414V62.0414Z" fill="url(#paint7_linear_166_42570)"/>
<path opacity="0.15" d="M37.125 43.2842H12.9535V62.8804C12.9535 63.4697 13.4421 63.9505 14.0237 63.9505H36.0471C36.6364 63.9505 37.1172 63.462 37.1172 62.8804V43.2842H37.125Z" fill="#1F1D20"/>
<path d="M35.9851 39.127H14.0935C13.4576 39.127 12.9536 39.631 12.9536 40.2669V42.0195V42.7096V61.6156C12.9536 62.205 13.4421 62.6858 14.0237 62.6858H36.0471C36.6365 62.6858 37.1173 62.1972 37.1173 61.6156V42.7096H37.125V40.2669C37.125 39.631 36.621 39.127 35.9851 39.127Z" fill="white"/>
<path d="M32.868 46.2775C32.868 45.7812 32.4648 45.3779 31.9684 45.3779H18.103C17.6067 45.3779 17.2035 45.7812 17.2035 46.2775C17.2035 46.7738 17.6067 47.177 18.103 47.177H31.984C32.4725 47.1693 32.868 46.7738 32.868 46.2775Z" fill="#50E6FF"/>
<path d="M20.5535 46.2699C20.5535 47.2548 21.3522 48.0535 22.3371 48.0535C23.3219 48.0535 24.1207 47.2548 24.1207 46.2699C24.1207 45.2851 23.3219 44.4863 22.3371 44.4863C21.3522 44.4863 20.5535 45.2851 20.5535 46.2699Z" fill="#0D3868"/>
<path d="M32.868 50.8068C32.868 50.3105 32.4648 49.9072 31.9684 49.9072H18.103C17.6067 49.9072 17.2035 50.3105 17.2035 50.8068C17.2035 51.3031 17.6067 51.7063 18.103 51.7063H31.984C32.4725 51.6908 32.868 51.2953 32.868 50.8068Z" fill="#32B0E7"/>
<path d="M25.9198 50.807C25.9198 51.7919 26.7185 52.5906 27.7034 52.5906C28.6882 52.5906 29.4869 51.7919 29.4869 50.807C29.4869 49.8222 28.6882 49.0234 27.7034 49.0234C26.7185 49.0234 25.9198 49.8144 25.9198 50.807Z" fill="#0D3868"/>
<path d="M32.868 55.591C32.868 55.0947 32.4648 54.6914 31.9684 54.6914H18.103C17.6067 54.6914 17.2035 55.0947 17.2035 55.591C17.2035 56.0873 17.6067 56.4905 18.103 56.4905H31.984C32.4725 56.4905 32.868 56.095 32.868 55.591Z" fill="#185A97"/>
<path d="M20.6078 55.5912C20.6078 56.5761 21.4065 57.3748 22.3914 57.3748C23.3762 57.3748 24.175 56.5761 24.175 55.5912C24.175 54.6064 23.3762 53.8076 22.3914 53.8076C21.4143 53.8154 20.6078 54.6141 20.6078 55.5912Z" fill="#0D3868"/>
<path opacity="0.15" d="M89.3496 46.2756C89.3496 45.4664 88.6875 44.7938 87.8678 44.7938C87.3319 44.7938 84.0216 44.4996 82.2351 43.1124C82.2351 43.1124 82.2457 43.0914 82.2351 43.1124C81.5626 40.6639 80.5748 38.373 79.3557 36.1977C79.0405 34.138 81.1738 32.6352 82.1511 31.0274C82.3192 30.7437 82.4243 30.586 82.4874 30.4704C82.666 29.945 82.5714 29.346 82.1511 28.9362C82.1511 28.9362 80.5117 26.5927 78.8303 24.9218C77.1489 23.2509 74.6058 21.3909 74.6058 21.3909C74.0278 20.8129 73.0925 20.8129 72.5146 21.3909C72.1362 21.7587 69.6141 23.8394 67.3337 24.1757C67.3022 24.1757 67.3022 24.1757 67.3022 24.1757C65.19 22.9777 62.815 21.9899 60.44 21.3173H60.4085C58.7271 20.0773 59.1685 17.5132 58.7271 15.6846C58.7271 14.8755 58.065 14.2029 57.2454 14.2029C57.2454 14.2029 54.429 13.709 52.054 13.709C49.6791 13.709 46.579 14.2029 46.579 14.2029C45.7698 14.2029 45.0972 14.8649 45.0972 15.6846C45.0972 16.2206 44.803 19.5308 43.4158 21.3173C41.0619 21.9794 38.5923 23.0302 36.5011 24.1967C34.4414 24.512 32.9386 22.3787 31.3308 21.4014C31.0471 21.2332 30.8894 21.1282 30.7738 21.0651C30.2484 20.8865 29.6494 20.981 29.2395 21.4014C29.2395 21.4014 26.8961 23.0407 25.2252 24.7221C23.5543 26.4035 21.6943 28.9467 21.6943 28.9467C21.1163 29.5246 21.1163 30.4599 21.6943 31.0379C22.0621 31.4057 24.2059 33.9698 24.4896 36.2082V36.2292C23.3231 38.3205 22.3038 40.7795 21.6312 43.1335C21.6312 43.1335 21.6627 43.0914 21.6312 43.1335C20.1915 44.8779 17.8271 44.3735 15.9985 44.8149C15.1894 44.8149 14.5168 45.4769 14.5168 46.2966C14.5168 46.2966 14.0229 49.1129 14.0229 51.4879C14.0229 53.8629 14.5168 56.963 14.5168 56.963C14.5168 57.7721 15.1789 58.4447 15.9985 58.4447C16.5345 58.4447 19.8447 58.7389 21.6312 60.1261C21.6733 60.1051 21.6522 60.1576 21.6522 60.1576C22.3353 62.5221 23.3126 64.8866 24.5001 66.9673C24.4791 66.9988 24.5001 66.9673 24.5106 67.0409C24.7103 69.1951 22.6926 70.6033 21.7153 72.2112C21.5471 72.4949 21.4421 72.6525 21.379 72.7681C21.2004 73.2936 21.2949 73.8926 21.7153 74.3024C21.7153 74.3024 23.3547 76.6458 25.0361 78.3167C26.7175 79.9981 29.2606 81.8477 29.2606 81.8477C29.8385 82.4256 30.7738 82.4256 31.3518 81.8477C31.7196 81.4799 34.2837 79.3361 36.5221 79.0523C36.5221 79.0523 36.5116 79.0629 36.5536 79.0734C38.7079 80.2714 40.9253 81.2171 43.3528 81.8792C43.3738 81.8897 43.4474 81.9107 43.4474 81.9107C45.1288 83.1507 44.6874 85.7149 45.1288 87.5434C45.2234 88.3631 45.6752 88.8885 46.6105 89.0251C46.6105 89.0251 49.4268 89.5191 51.8018 89.5191C54.1768 89.5191 57.2769 89.0357 57.2769 89.0357C58.086 88.899 58.7586 88.3736 58.7586 87.5539C58.7586 87.018 59.0529 83.7077 60.44 81.9212C60.44 81.9212 60.5031 81.8687 60.5556 81.8161C63.0252 81.1226 64.9062 80.3554 67.092 79.1049C67.2076 79.0629 67.0815 79.0734 67.3443 79.0313C69.404 78.7161 70.9067 80.8493 72.5146 81.8267C72.7983 81.9948 72.9559 82.0999 73.0715 82.1629C73.597 82.3416 74.196 82.247 74.6058 81.8267C74.6058 81.8267 76.9492 80.1873 78.6201 78.5059C80.3015 76.8245 82.1511 74.2814 82.1511 74.2814C82.7291 73.7034 82.7291 72.7681 82.1511 72.1901C81.7833 71.8223 79.6395 69.2582 79.3557 67.0198C79.3242 66.7886 79.3452 66.7571 79.3768 66.6941C80.6273 64.4977 81.405 62.8899 82.088 60.3888C82.088 60.3888 82.0565 60.3047 82.2141 60.0946C83.4542 58.4132 86.0183 58.8545 87.8468 58.4132C88.656 58.4132 89.3285 57.7511 89.3285 56.9314C89.3285 56.9314 89.8225 54.1151 89.8225 51.7401C89.833 49.3862 89.3496 46.2756 89.3496 46.2756Z" fill="#1F1D20"/>
<path d="M89.3496 45.2668C89.3496 44.4576 88.6875 43.7851 87.8678 43.7851C87.3319 43.7851 84.0216 43.4908 82.2351 42.1037C82.2351 42.1037 82.2457 42.0826 82.2351 42.1037C81.5626 39.6551 80.5748 37.3642 79.3557 35.1889C79.0405 33.1292 81.1738 31.6264 82.1511 30.0186C82.3192 29.7349 82.4243 29.5772 82.4874 29.4616C82.666 28.9362 82.5714 28.3372 82.1511 27.9274C82.1511 27.9274 80.5117 25.5839 78.8303 23.913C77.1489 22.2421 74.6058 20.3821 74.6058 20.3821C74.0278 19.8041 73.0925 19.8041 72.5146 20.3821C72.1362 20.7499 69.6141 22.8306 67.3337 23.1669C67.3022 23.1669 67.3022 23.1669 67.3022 23.1669C65.19 21.9689 62.815 20.9811 60.44 20.3085H60.4085C58.7271 19.0685 59.1685 16.5044 58.7271 14.6758C58.7271 13.8667 58.065 13.1941 57.2454 13.1941C57.2454 13.1941 54.429 12.7002 52.054 12.7002C49.6791 12.7002 46.579 13.1941 46.579 13.1941C45.7698 13.1941 45.0972 13.8562 45.0972 14.6758C45.0972 15.2118 44.803 18.522 43.4158 20.3085C41.0619 20.9706 38.5923 22.0214 36.5011 23.1879C34.4414 23.5032 32.9386 21.3699 31.3308 20.3926C31.0471 20.2245 30.8894 20.1194 30.7738 20.0563C30.2484 19.8777 29.6494 19.9722 29.2395 20.3926C29.2395 20.3926 26.8961 22.032 25.2252 23.7134C23.5543 25.3948 21.6943 27.9379 21.6943 27.9379C21.1163 28.5159 21.1163 29.4511 21.6943 30.0291C22.0621 30.3969 24.2059 32.9611 24.4896 35.1994V35.2204C23.3231 37.3117 22.3038 39.7707 21.6312 42.1247C21.6312 42.1247 21.6627 42.0826 21.6312 42.1247C20.1915 43.8691 17.8271 43.3647 15.9985 43.8061C15.1894 43.8061 14.5168 44.4681 14.5168 45.2878C14.5168 45.2878 14.0229 48.1041 14.0229 50.4791C14.0229 52.8541 14.5168 55.9542 14.5168 55.9542C14.5168 56.7634 15.1789 57.4359 15.9985 57.4359C16.5345 57.4359 19.8447 57.7302 21.6312 59.1173C21.6733 59.0963 21.6522 59.1488 21.6522 59.1488C22.3353 61.5133 23.3126 63.8778 24.5001 65.9585C24.4791 65.99 24.5001 65.9585 24.5106 66.0321C24.7103 68.1864 22.6926 69.5945 21.7153 71.2024C21.5471 71.4861 21.4421 71.6437 21.379 71.7593C21.2004 72.2848 21.2949 72.8838 21.7153 73.2936C21.7153 73.2936 23.3547 75.6371 25.0361 77.3079C26.7175 78.9893 29.2606 80.8389 29.2606 80.8389C29.8385 81.4169 30.7738 81.4169 31.3518 80.8389C31.7196 80.4711 34.2837 78.3273 36.5221 78.0436C36.5221 78.0436 36.5116 78.0541 36.5536 78.0646C38.7079 79.2626 40.9253 80.2084 43.3528 80.8704C43.3738 80.8809 43.4474 80.9019 43.4474 80.9019C45.1288 82.142 44.6874 84.7061 45.1288 86.5346C45.2234 87.3543 45.6752 87.8797 46.6105 88.0163C46.6105 88.0163 49.4268 88.5103 51.8018 88.5103C54.1768 88.5103 57.2769 88.0269 57.2769 88.0269C58.086 87.8902 58.7586 87.3648 58.7586 86.5451C58.7586 86.0092 59.0529 82.6989 60.44 80.9124C60.44 80.9124 60.5031 80.8599 60.5556 80.8074C63.0252 80.1138 64.9062 79.3466 67.092 78.0961C67.2076 78.0541 67.0815 78.0646 67.3443 78.0225C69.404 77.7073 70.9067 79.8405 72.5146 80.8179C72.7983 80.986 72.9559 81.0911 73.0715 81.1541C73.597 81.3328 74.196 81.2382 74.6058 80.8179C74.6058 80.8179 76.9492 79.1785 78.6201 77.4971C80.3015 75.8157 82.1511 73.2726 82.1511 73.2726C82.7291 72.6946 82.7291 71.7593 82.1511 71.1813C81.7833 70.8135 79.6395 68.2494 79.3557 66.011C79.3242 65.7799 79.3452 65.7483 79.3768 65.6853C80.6273 63.4889 81.405 61.8811 82.088 59.38C82.088 59.38 82.0565 59.296 82.2141 59.0858C83.4542 57.4044 86.0183 57.8458 87.8468 57.4044C88.656 57.4044 89.3285 56.7423 89.3285 55.9227C89.3285 55.9227 89.8225 53.1063 89.8225 50.7313C89.833 48.3774 89.3496 45.2668 89.3496 45.2668Z" fill="url(#paint8_linear_166_42570)"/>
<path d="M73.124 81.1541C73.1135 81.1541 73.1135 81.1436 73.103 81.1436C73.1135 81.1436 73.124 81.1541 73.124 81.1541Z" fill="#9FC2F6"/>
<path d="M73.103 81.1439C72.8928 81.0178 72.546 80.8076 72.546 80.8076C72.7142 80.9652 72.9033 81.0703 73.103 81.1439Z" fill="#9FC2F6"/>
<path d="M73.1241 81.1543C73.3132 81.2594 73.2712 81.2384 73.1241 81.1543V81.1543Z" fill="#9FC2F6"/>
<path d="M30.8369 20.0879C31.0471 20.214 31.3938 20.4242 31.3938 20.4242C31.2362 20.2665 31.0365 20.1509 30.8369 20.0879Z" fill="#9FC2F6"/>
<path d="M30.8158 20.0771C30.8263 20.0771 30.8263 20.0877 30.8368 20.0877C30.8263 20.0877 30.8158 20.0771 30.8158 20.0771Z" fill="#9FC2F6"/>
<path d="M30.8157 20.0771C30.6265 19.9615 30.6686 19.9825 30.8157 20.0771V20.0771Z" fill="#9FC2F6"/>
<path d="M21.4313 71.7695C21.3157 71.9587 21.3368 71.9167 21.4313 71.7695V71.7695Z" fill="#9FC2F6"/>
<path d="M21.4313 71.77C21.4313 71.7595 21.4418 71.7595 21.4418 71.749C21.4418 71.7595 21.4313 71.77 21.4313 71.77Z" fill="#9FC2F6"/>
<path d="M21.4421 71.7484C21.5682 71.5382 21.7784 71.1914 21.7784 71.1914C21.6208 71.349 21.5157 71.5382 21.4421 71.7484Z" fill="#9FC2F6"/>
<path d="M82.498 29.4824C82.3719 29.6926 82.1617 30.0394 82.1617 30.0394C82.3193 29.8712 82.4349 29.6821 82.498 29.4824Z" fill="#9FC2F6"/>
<path d="M82.5083 29.4619C82.5083 29.4724 82.4978 29.4724 82.4978 29.4829C82.4978 29.4724 82.5083 29.4619 82.5083 29.4619Z" fill="#9FC2F6"/>
<path d="M82.5083 29.4616C82.6239 29.2724 82.6029 29.3144 82.5083 29.4616V29.4616Z" fill="#9FC2F6"/>
<path opacity="0.15" d="M72.1585 35.6289H31.6865V70.5697C31.6865 71.2822 32.2771 71.8634 32.9802 71.8634H70.8554C71.5679 71.8634 72.1491 71.2728 72.1491 70.5697L72.1585 35.6289Z" fill="#1F1D20"/>
<path d="M70.7807 30.6035H33.0649C32.2962 30.6035 31.6868 31.2129 31.6868 31.9816V34.1004V34.9348V69.0412C31.6868 69.7537 32.2774 70.3349 32.9806 70.3349H70.8557C71.5682 70.3349 72.1495 69.7443 72.1495 69.0412V34.9348H72.1588V31.9816C72.1588 31.2129 71.5495 30.6035 70.7807 30.6035Z" fill="url(#paint9_linear_166_42570)"/>
<path d="M63.3948 58.9862C62.7586 53.2811 57.8648 48.7949 51.9432 48.7949C46.0706 48.7949 41.2257 53.1835 40.4916 58.8399C40.3937 59.23 40.3937 59.6689 40.3937 60.059C40.5406 61.6681 41.6661 63.2286 43.7705 64.4476C48.2728 67.0321 55.6136 67.0321 60.067 64.4476C62.1713 63.2286 63.248 61.6681 63.3948 60.059C63.4927 59.7177 63.4438 59.3276 63.3948 58.9862Z" fill="url(#paint10_radial_166_42570)"/>
<path d="M51.9518 47.6262C55.7818 47.6262 58.8867 44.5387 58.8867 40.7301C58.8867 36.9215 55.7818 33.834 51.9518 33.834C48.1218 33.834 45.017 36.9215 45.017 40.7301C45.017 44.5387 48.1218 47.6262 51.9518 47.6262Z" fill="url(#paint11_radial_166_42570)"/>
<path opacity="0.15" fill-rule="evenodd" clip-rule="evenodd" d="M56.6635 55.2878L56.5523 55.1766C55.9634 54.5887 55.1653 54.2585 54.3333 54.2585C53.5012 54.2585 52.7031 54.5887 52.1142 55.1766L52.003 55.2878L51.8918 55.1766C51.6001 54.8841 51.2535 54.6521 50.8719 54.4937C50.4903 54.3354 50.0813 54.2539 49.6682 54.2539C49.2551 54.2539 48.846 54.3354 48.4644 54.4937C48.0829 54.6521 47.7363 54.8841 47.4445 55.1766L47.3426 55.2785C46.7547 55.8674 46.4246 56.6654 46.4246 57.4975C46.4246 58.3296 46.7547 59.1277 47.3426 59.7166L47.4538 59.8277L51.8548 64.2287C51.8738 64.2489 51.8968 64.265 51.9223 64.276C51.9478 64.287 51.9753 64.2928 52.003 64.2928C52.0308 64.2928 52.0583 64.287 52.0838 64.276C52.1092 64.265 52.1322 64.2489 52.1513 64.2287L56.6635 59.7166C57.2508 59.1293 57.5807 58.3327 57.5807 57.5021C57.5807 56.6716 57.2508 55.8751 56.6635 55.2878V55.2878Z" fill="#1F1D20"/>
<path d="M50.0773 53.8833C50.909 53.8868 51.1183 53.8847 51.7047 54.4746L51.8825 54.5871L52.1039 54.5145C52.6931 53.9233 52.8639 54.1511 53.6986 54.1491C54.1106 54.1493 54.149 53.4418 54.5292 53.6009C54.9093 53.7599 54.2563 54.0717 54.5458 54.365L55.26 54.6142C55.8479 55.2031 55.26 54.5462 55.26 55.3783C55.26 56.2104 56.1635 55.6034 55.5757 56.1923L52.486 60.2786L52.3377 60.4268L52.1895 60.2786L48.7983 57.4381L48.6778 57.3176C48.3845 57.0273 48.193 57.5532 48.0341 57.1723C47.8752 56.7914 47.7684 56.4721 47.7684 56.0594C47.7684 55.6467 47.8744 55.5003 48.0333 55.1194C48.1922 54.7385 48.4053 55.1039 48.6986 54.8135L48.8647 54.4481C49.1562 54.1549 48.4167 53.7433 48.7983 53.5843C49.1799 53.4253 49.3555 53.8656 49.7689 53.8651L50.0773 53.8833ZM49.7037 51.96C49.2217 51.9585 48.7441 52.0527 48.2988 52.2372C47.8535 52.4217 47.3686 52.6917 47.0289 53.0337L46.927 53.1449C46.5852 53.4809 46.3682 53.8651 46.1837 54.3074C45.9991 54.7498 45.9048 55.2246 45.9065 55.7039C45.905 56.1859 45.9992 56.6635 46.1837 57.1088C46.3682 57.5542 46.6469 57.9156 46.9888 58.2553L47.0629 58.3294L47.1017 58.3723L51.5397 62.764L51.6417 62.8752C51.7416 62.9704 51.8743 63.0235 52.0123 63.0235C52.0793 63.0238 52.1457 63.0108 52.2077 62.9854C52.2697 62.9599 52.3261 62.9225 52.3736 62.8752L52.4941 62.764L52.5497 62.6992L57.0341 58.2147C57.3759 57.8787 57.647 57.4778 57.8316 57.0354C58.0162 56.5931 58.1104 56.1183 58.1088 55.639C58.1103 55.157 58.0161 54.6795 57.8316 54.2341C57.6471 53.7888 57.4234 53.4575 57.0814 53.1178L56.9795 53.0159C56.3364 52.3701 55.4276 52.0387 54.5172 51.9959C53.6068 51.953 52.7132 52.2562 52.0123 52.8388C51.3581 52.2896 50.5579 51.9615 49.7037 51.96Z" fill="white"/>
<path fill-rule="evenodd" clip-rule="evenodd" d="M56.1654 58.0156L52.0033 62.1775L47.7564 57.9306C47.4875 57.6644 47.2741 57.3476 47.1284 56.9984C46.9827 56.6493 46.9077 56.2747 46.9077 55.8963C46.9077 55.518 46.9827 55.1434 47.1284 54.7942C47.2741 54.445 47.4875 54.1282 47.7564 53.862L47.8498 53.7686C48.116 53.4997 48.4328 53.2863 48.782 53.1406C49.1312 52.9949 49.5058 52.9199 49.8841 52.9199C50.2625 52.9199 50.6371 52.9949 50.9862 53.1406C51.3354 53.2863 51.6522 53.4997 51.9184 53.7686L56.1654 58.0156Z" fill="url(#paint12_linear_166_42570)"/>
<path fill-rule="evenodd" clip-rule="evenodd" d="M51.8594 62.0414L47.8333 58.0153L52.0803 53.7683C52.6201 53.2294 53.3518 52.9268 54.1146 52.9268C54.8774 52.9268 55.609 53.2294 56.1489 53.7683L56.2508 53.8702C56.7897 54.4101 57.0924 55.1417 57.0924 55.9046C57.0924 56.6674 56.7897 57.399 56.2508 57.9388L52.1228 62.0584C52.084 62.0873 52.0362 62.1014 51.988 62.0983C51.9397 62.0951 51.8942 62.075 51.8594 62.0414V62.0414Z" fill="url(#paint13_linear_166_42570)"/>
<path opacity="0.15" d="M37.125 43.2842H12.9535V62.8804C12.9535 63.4697 13.4421 63.9505 14.0237 63.9505H36.0471C36.6364 63.9505 37.1172 63.462 37.1172 62.8804V43.2842H37.125Z" fill="#1F1D20"/>
<path d="M35.9851 39.127H14.0935C13.4576 39.127 12.9536 39.631 12.9536 40.2669V42.0195V42.7096V61.6156C12.9536 62.205 13.4421 62.6858 14.0237 62.6858H36.0471C36.6365 62.6858 37.1173 62.1972 37.1173 61.6156V42.7096H37.125V40.2669C37.125 39.631 36.621 39.127 35.9851 39.127Z" fill="white"/>
<path d="M32.868 46.2775C32.868 45.7812 32.4648 45.3779 31.9684 45.3779H18.103C17.6067 45.3779 17.2035 45.7812 17.2035 46.2775C17.2035 46.7738 17.6067 47.177 18.103 47.177H31.984C32.4725 47.1693 32.868 46.7738 32.868 46.2775Z" fill="#50E6FF"/>
<path d="M20.5535 46.2699C20.5535 47.2548 21.3522 48.0535 22.3371 48.0535C23.3219 48.0535 24.1207 47.2548 24.1207 46.2699C24.1207 45.2851 23.3219 44.4863 22.3371 44.4863C21.3522 44.4863 20.5535 45.2851 20.5535 46.2699Z" fill="#0D3868"/>
<path d="M32.868 50.8068C32.868 50.3105 32.4648 49.9072 31.9684 49.9072H18.103C17.6067 49.9072 17.2035 50.3105 17.2035 50.8068C17.2035 51.3031 17.6067 51.7063 18.103 51.7063H31.984C32.4725 51.6908 32.868 51.2953 32.868 50.8068Z" fill="#32B0E7"/>
<path d="M25.9198 50.807C25.9198 51.7919 26.7185 52.5906 27.7034 52.5906C28.6882 52.5906 29.4869 51.7919 29.4869 50.807C29.4869 49.8222 28.6882 49.0234 27.7034 49.0234C26.7185 49.0234 25.9198 49.8144 25.9198 50.807Z" fill="#0D3868"/>
<path d="M32.868 55.591C32.868 55.0947 32.4648 54.6914 31.9684 54.6914H18.103C17.6067 54.6914 17.2035 55.0947 17.2035 55.591C17.2035 56.0873 17.6067 56.4905 18.103 56.4905H31.984C32.4725 56.4905 32.868 56.095 32.868 55.591Z" fill="#185A97"/>
<path d="M20.6078 55.5912C20.6078 56.5761 21.4065 57.3748 22.3914 57.3748C23.3762 57.3748 24.175 56.5761 24.175 55.5912C24.175 54.6064 23.3762 53.8076 22.3914 53.8076C21.4143 53.8154 20.6078 54.6141 20.6078 55.5912Z" fill="#0D3868"/>
<defs>
<linearGradient id="paint0_linear_166_42570" x1="50.1489" y1="-13.6797" x2="54.1309" y2="132.09" gradientUnits="userSpaceOnUse">
<stop stop-color="#00ABDE"/>
<stop offset="1" stop-color="#007ED8"/>
</linearGradient>
<linearGradient id="paint1_linear_166_42570" x1="3.3532" y1="-20.5133" x2="98.8807" y2="120.368" gradientUnits="userSpaceOnUse">
<stop stop-color="#007ED8"/>
<stop offset="0.7065" stop-color="#002D4C"/>
</linearGradient>
<linearGradient id="paint2_linear_166_42570" x1="54.864" y1="-78.8374" x2="49.502" y2="160.663" gradientUnits="userSpaceOnUse">
<stop stop-color="#007ED8"/>
<stop offset="0.7065" stop-color="#002D4C"/>
</linearGradient>
<linearGradient id="paint3_linear_166_42570" x1="52.2152" y1="67.1809" x2="51.4721" y2="24.8207" gradientUnits="userSpaceOnUse">
<stop offset="0.3831" stop-color="#D2EBFF"/>
<stop offset="1" stop-color="#F0FFFD"/>
</linearGradient>
<radialGradient id="paint4_radial_166_42570" cx="0" cy="0" r="1" gradientUnits="userSpaceOnUse" gradientTransform="translate(47.7081 42.3019) scale(32.7578 32.6399)">
<stop stop-color="#4DC2EB"/>
<stop offset="0.585" stop-color="#0078D4"/>
</radialGradient>
<radialGradient id="paint5_radial_166_42570" cx="0" cy="0" r="1" gradientUnits="userSpaceOnUse" gradientTransform="translate(48.5235 37.2319) scale(15.364 15.2782)">
<stop stop-color="#4DC2EB"/>
<stop offset="0.585" stop-color="#0078D4"/>
</radialGradient>
<linearGradient id="paint6_linear_166_42570" x1="44.7754" y1="52.4841" x2="69.331" y2="74.3293" gradientUnits="userSpaceOnUse">
<stop stop-color="#FFB900"/>
<stop offset="0.17" stop-color="#EF8400"/>
<stop offset="0.31" stop-color="#E25C01"/>
<stop offset="0.43" stop-color="#DB4401"/>
<stop offset="0.5" stop-color="#D83B01"/>
</linearGradient>
<linearGradient id="paint7_linear_166_42570" x1="46.6855" y1="54.8369" x2="64.517" y2="62.046" gradientUnits="userSpaceOnUse">
<stop stop-color="#FFB900"/>
<stop offset="0.17" stop-color="#EF8400"/>
<stop offset="0.31" stop-color="#E25C01"/>
<stop offset="0.43" stop-color="#DB4401"/>
<stop offset="0.5" stop-color="#D83B01"/>
</linearGradient>
<linearGradient id="paint8_linear_166_42570" x1="54.864" y1="-78.8374" x2="49.502" y2="160.663" gradientUnits="userSpaceOnUse">
<stop stop-color="#007ED8"/>
<stop offset="0.7065" stop-color="#002D4C"/>
</linearGradient>
<linearGradient id="paint9_linear_166_42570" x1="52.2152" y1="67.1809" x2="51.4721" y2="24.8207" gradientUnits="userSpaceOnUse">
<stop offset="0.3831" stop-color="#D2EBFF"/>
<stop offset="1" stop-color="#F0FFFD"/>
</linearGradient>
<radialGradient id="paint10_radial_166_42570" cx="0" cy="0" r="1" gradientUnits="userSpaceOnUse" gradientTransform="translate(47.7081 42.3019) scale(32.7578 32.6399)">
<stop stop-color="#4DC2EB"/>
<stop offset="0.585" stop-color="#0078D4"/>
</radialGradient>
<radialGradient id="paint11_radial_166_42570" cx="0" cy="0" r="1" gradientUnits="userSpaceOnUse" gradientTransform="translate(48.5235 37.2319) scale(15.364 15.2782)">
<stop stop-color="#4DC2EB"/>
<stop offset="0.585" stop-color="#0078D4"/>
</radialGradient>
<linearGradient id="paint12_linear_166_42570" x1="44.7754" y1="52.4841" x2="69.331" y2="74.3293" gradientUnits="userSpaceOnUse">
<stop stop-color="#FFB900"/>
<stop offset="0.17" stop-color="#EF8400"/>
<stop offset="0.31" stop-color="#E25C01"/>
<stop offset="0.43" stop-color="#DB4401"/>
<stop offset="0.5" stop-color="#D83B01"/>
</linearGradient>
<linearGradient id="paint13_linear_166_42570" x1="46.6855" y1="54.8369" x2="64.517" y2="62.046" gradientUnits="userSpaceOnUse">
<stop stop-color="#FFB900"/>
<stop offset="0.17" stop-color="#EF8400"/>
<stop offset="0.31" stop-color="#E25C01"/>
<stop offset="0.43" stop-color="#DB4401"/>
<stop offset="0.5" stop-color="#D83B01"/>
</linearGradient>
</defs>
</svg>
