<svg width="103" height="103" viewBox="0 0 103 103" fill="none" xmlns="http://www.w3.org/2000/svg">
<path d="M51.6899 98.7587C25.8399 98.7587 4.87988 77.8087 4.87988 51.9487C4.87988 26.0887 25.8399 5.13867 51.6899 5.13867C77.5399 5.13867 98.4999 26.0987 98.4999 51.9487C98.4999 77.7987 77.5399 98.7587 51.6899 98.7587Z" fill="#01B6C3"/>
<path fill-rule="evenodd" clip-rule="evenodd" d="M97.5898 51.9486C97.5898 77.2986 77.0398 97.8486 51.6898 97.8486C26.3398 97.8486 5.7898 77.2986 5.7898 51.9486C5.7898 26.5986 26.3398 6.04859 51.6898 6.04859C77.0398 6.04859 97.5898 26.5986 97.5898 51.9486ZM51.6898 2.30859C79.1098 2.30859 101.33 24.5286 101.33 51.9486C101.33 79.3686 79.0998 101.589 51.6898 101.589C24.2698 101.589 2.0498 79.3586 2.0498 51.9486C2.0498 24.5286 24.2698 2.30859 51.6898 2.30859Z" fill="#F2F1F0"/>
<path fill-rule="evenodd" clip-rule="evenodd" d="M94.7799 51.9487C94.7799 75.7487 75.4899 95.0387 51.6899 95.0387C27.8899 95.0387 8.59986 75.7487 8.59986 51.9487C8.59986 28.1487 27.8899 8.85865 51.6899 8.85865C75.4899 8.85865 94.7799 28.1487 94.7799 51.9487ZM51.6899 5.11865C77.5499 5.11865 98.5199 26.0887 98.5199 51.9487C98.5199 77.8087 77.5499 98.7787 51.6899 98.7787C25.8299 98.7787 4.85986 77.8087 4.85986 51.9487C4.85986 26.0887 25.8199 5.11865 51.6899 5.11865Z" fill="#1D8E96"/>
<path d="M72.3598 61.3888H70.5198V53.1688C70.5198 51.8888 70.5198 50.6788 70.3598 50.4488C70.2098 50.3588 69.3998 50.3588 68.6898 50.3588H34.6898C33.9798 50.3588 33.1698 50.3588 33.0098 50.4688C32.8498 50.6888 32.8498 51.9288 32.8498 53.2388V61.3888H31.0198V53.2488C31.0198 51.0888 31.0198 50.0988 31.5398 49.3888C32.1598 48.5288 33.1698 48.5288 34.6898 48.5288H68.6898C70.2698 48.5288 71.2198 48.5288 71.8398 49.3688C72.3598 50.0788 72.3598 51.0488 72.3598 53.1788V61.3888Z" fill="white"/>
<path d="M52.1498 42.0986H50.3098V49.4486H52.1498V42.0986Z" fill="white"/>
<path d="M31.9299 81.6088C39.5404 81.6088 45.7099 75.4393 45.7099 67.8288C45.7099 60.2183 39.5404 54.0488 31.9299 54.0488C24.3194 54.0488 18.1499 60.2183 18.1499 67.8288C18.1499 75.4393 24.3194 81.6088 31.9299 81.6088Z" fill="black"/>
<path d="M31.9299 81.6088C39.5404 81.6088 45.7099 75.4393 45.7099 67.8288C45.7099 60.2183 39.5404 54.0488 31.9299 54.0488C24.3194 54.0488 18.1499 60.2183 18.1499 67.8288C18.1499 75.4393 24.3194 81.6088 31.9299 81.6088Z" fill="white"/>
<path fill-rule="evenodd" clip-rule="evenodd" d="M26.2056 59.5586H38.3656C38.8756 59.5586 39.2856 59.9686 39.2856 60.4786V76.1386C39.2856 76.6486 38.8756 77.0586 38.3656 77.0586H26.2056C25.6956 77.0586 25.2856 76.6486 25.2856 76.1386V60.4786C25.2856 59.9686 25.6956 59.5586 26.2056 59.5586Z" fill="#195C37"/>
<path d="M39.2856 68.3086H32.2856V72.6886H39.2856V68.3086Z" fill="#107B42"/>
<path d="M39.2856 63.9287H32.2856V68.3087H39.2856V63.9287Z" fill="#22A366"/>
<path d="M32.2857 63.9287H24.8457V68.3087H32.2857V63.9287Z" fill="#117740"/>
<path fill-rule="evenodd" clip-rule="evenodd" d="M32.2856 59.5586H38.3656C38.8756 59.5586 39.2856 59.9686 39.2856 60.4786V63.9386H32.2856V59.5586V59.5586Z" fill="#34C481"/>
<path fill-rule="evenodd" clip-rule="evenodd" d="M32.2857 59.5586H25.7657C25.2557 59.5586 24.8457 59.9686 24.8457 60.4786V63.9386H32.2857V59.5586Z" fill="#21A465"/>
<path fill-rule="evenodd" clip-rule="evenodd" d="M21.8299 63.9307H29.6199C30.1299 63.9307 30.5399 64.3407 30.5399 64.8507V72.2007C30.5399 72.7107 30.1299 73.1207 29.6199 73.1207H21.8299C21.3199 73.1207 20.9099 72.7107 20.9099 72.2007V64.8507C20.9099 64.3407 21.3199 63.9307 21.8299 63.9307Z" fill="#137F47"/>
<path fill-rule="evenodd" clip-rule="evenodd" d="M24.8599 68.7606L23.2699 66.1206H24.5199L25.5999 68.1306L26.6799 66.1206H27.8299L26.2299 68.7306L27.8999 71.3706H26.5999L25.5299 69.2206L24.4299 71.3706H23.0999L24.8599 68.7606Z" fill="white"/>
<path d="M71.4499 81.6088C79.0604 81.6088 85.2299 75.4393 85.2299 67.8288C85.2299 60.2183 79.0604 54.0488 71.4499 54.0488C63.8394 54.0488 57.6699 60.2183 57.6699 67.8288C57.6699 75.4393 63.8394 81.6088 71.4499 81.6088Z" fill="black"/>
<path d="M71.4499 81.6088C79.0604 81.6088 85.2299 75.4393 85.2299 67.8288C85.2299 60.2183 79.0604 54.0488 71.4499 54.0488C63.8394 54.0488 57.6699 60.2183 57.6699 67.8288C57.6699 75.4393 63.8394 81.6088 71.4499 81.6088Z" fill="white"/>
<path fill-rule="evenodd" clip-rule="evenodd" d="M55.7999 28.9886C55.7999 31.6386 53.6399 33.7986 50.9899 33.7986C48.3399 33.7986 46.1799 31.6386 46.1799 28.9886C46.1799 26.3386 48.3399 24.1786 50.9899 24.1786C53.6399 24.1886 55.7999 26.3386 55.7999 28.9886ZM64.6799 26.4086L62.4499 25.9086C62.2699 25.8686 61.9799 25.6086 61.9199 25.4286C61.9099 25.4086 61.8999 25.3786 61.8899 25.3586L61.2699 23.8586C61.2599 23.8286 61.2499 23.8086 61.2299 23.7786C61.1399 23.6086 61.1599 23.2286 61.2599 23.0686L62.4899 21.1386C63.0099 20.3186 62.8799 19.1386 62.1999 18.4486L61.5199 17.7686C60.8499 17.0986 59.6399 16.9586 58.8299 17.4786L56.8999 18.7086C56.8399 18.7486 56.6799 18.7986 56.4999 18.7986C56.3499 18.7986 56.2399 18.7686 56.1899 18.7386C56.1699 18.7286 56.1399 18.7186 56.1099 18.6986L54.6099 18.0786C54.5899 18.0686 54.5599 18.0586 54.5399 18.0486C54.3599 17.9886 54.0999 17.7086 54.0599 17.5186L53.5599 15.2886C53.3499 14.3386 52.4199 13.5986 51.4499 13.5986H50.4899C49.5199 13.5986 48.5899 14.3386 48.3799 15.2886L47.8799 17.5286C47.8399 17.7086 47.5799 17.9986 47.3999 18.0486C47.3799 18.0586 47.3499 18.0686 47.3299 18.0786L45.8299 18.6986C45.7999 18.7086 45.7799 18.7186 45.7499 18.7386C45.6999 18.7686 45.5899 18.7986 45.4399 18.7986C45.2599 18.7986 45.1099 18.7486 45.0399 18.7086L43.1399 17.4786C42.3399 16.9686 41.1199 17.0986 40.4499 17.7686L39.7799 18.4586C39.0899 19.1486 38.9599 20.3286 39.4799 21.1486L40.7099 23.0786C40.8099 23.2386 40.8299 23.6186 40.7399 23.7786C40.7299 23.8086 40.7099 23.8286 40.6999 23.8586L40.0799 25.3586C40.0699 25.3786 40.0599 25.4086 40.0499 25.4286C39.9899 25.6086 39.7099 25.8686 39.5199 25.9086L37.2899 26.4086C36.3399 26.6186 35.5999 27.5486 35.5999 28.5186V29.4786C35.5999 30.4486 36.3399 31.3786 37.2899 31.5886L39.5299 32.0886C39.7099 32.1286 39.9999 32.3886 40.0499 32.5686C40.0599 32.5886 40.0699 32.6186 40.0799 32.6386L40.6999 34.1386C40.7099 34.1686 40.7199 34.1886 40.7399 34.2186C40.8299 34.3886 40.8099 34.7686 40.7099 34.9286L39.4799 36.8586C38.9599 37.6786 39.0899 38.8586 39.7699 39.5486L40.4499 40.2286C41.1199 40.8986 42.3299 41.0386 43.1399 40.5186L45.0699 39.2886C45.1399 39.2486 45.2899 39.1986 45.4699 39.1986C45.6199 39.1986 45.7299 39.2286 45.7799 39.2586C45.8099 39.2686 45.8299 39.2786 45.8599 39.2986L47.3599 39.9186C47.3799 39.9286 47.4099 39.9386 47.4299 39.9486C47.6099 40.0086 47.8699 40.2886 47.9099 40.4786L48.4099 42.7086C48.6199 43.6586 49.5499 44.3986 50.5199 44.3986H51.4799C52.4499 44.3986 53.3799 43.6586 53.5899 42.7086L54.0899 40.4786C54.1299 40.2986 54.3899 40.0086 54.5699 39.9486C54.5899 39.9386 54.6199 39.9286 54.6399 39.9186L56.1399 39.2986C56.1699 39.2886 56.1899 39.2786 56.2199 39.2586C56.2699 39.2286 56.3799 39.1986 56.5299 39.1986C56.7099 39.1986 56.8599 39.2386 56.9299 39.2886L58.8599 40.5186C59.6599 41.0286 60.8799 40.8986 61.5499 40.2286L62.2299 39.5486C62.9199 38.8586 63.0499 37.6786 62.5299 36.8586L61.2999 34.9286C61.1999 34.7686 61.1799 34.3886 61.2699 34.2286C61.2799 34.1986 61.2899 34.1786 61.3099 34.1486L61.9299 32.6486C61.9399 32.6286 61.9499 32.5986 61.9599 32.5786C62.0199 32.3986 62.2999 32.1386 62.4899 32.0986L64.7199 31.5986C65.6699 31.3886 66.4099 30.4586 66.4099 29.4886V28.5286C66.3699 27.5386 65.6299 26.6186 64.6799 26.4086Z" fill="#ADBDC4"/>
<path fill-rule="evenodd" clip-rule="evenodd" d="M43.1399 40.4986L45.0699 39.2686C45.1399 39.2286 45.2899 39.1786 45.4699 39.1786C45.6199 39.1786 45.7299 39.2086 45.7799 39.2386C45.8099 39.2486 45.8299 39.2586 45.8599 39.2786L47.3599 39.8986C47.3799 39.9086 47.4099 39.9186 47.4299 39.9286C47.6099 39.9886 47.8699 40.2686 47.9099 40.4586L48.4099 42.6886C48.6199 43.6386 49.5499 44.3786 50.5199 44.3786H51.4799C52.4499 44.3786 53.3799 43.6386 53.5899 42.6886L54.0899 40.4586C54.1299 40.2786 54.3899 39.9886 54.5699 39.9286C54.5899 39.9186 54.6199 39.9086 54.6399 39.8986L56.1399 39.2786C56.1699 39.2686 56.1899 39.2586 56.2199 39.2386C56.2699 39.2086 56.3799 39.1786 56.5299 39.1786C56.7099 39.1786 56.8599 39.2186 56.9299 39.2686L58.8599 40.4986C59.6599 41.0086 60.8799 40.8786 61.5499 40.2086L62.2299 39.5286C62.9199 38.8386 63.0499 37.6586 62.5299 36.8386L61.2999 34.9086C61.1999 34.7486 61.1799 34.3686 61.2699 34.2086C61.2799 34.1786 61.2899 34.1586 61.3099 34.1286L61.9299 32.6286C61.9399 32.6086 61.9499 32.5786 61.9599 32.5586C62.0199 32.3786 62.2999 32.1186 62.4899 32.0786L64.7199 31.5786C65.6699 31.3686 66.4099 30.4386 66.4099 29.4686V28.5086C66.4099 27.5386 65.6699 26.6086 64.7199 26.3986L62.4899 25.8986C62.3099 25.8586 62.0199 25.5986 61.9599 25.4186C61.9499 25.3986 61.9399 25.3686 61.9299 25.3486L61.3099 23.8486C61.2999 23.8186 61.2899 23.7986 61.2699 23.7686C61.1799 23.5986 61.1999 23.2186 61.2999 23.0586L62.5299 21.1286C63.0499 20.3086 62.9199 19.1286 62.2399 18.4386L61.8999 18.0986L54.4199 25.5786C55.2899 26.4486 55.8299 27.6486 55.8299 28.9786C55.8299 31.6286 53.6699 33.7886 51.0199 33.7886C49.6899 33.7886 48.4899 33.2486 47.6199 32.3786L40.1399 39.8586L40.4799 40.1986C41.1299 40.8786 42.3399 41.0186 43.1399 40.4986Z" fill="#8BA6B1"/>
<path fill-rule="evenodd" clip-rule="evenodd" d="M50.9898 33.7986C48.3398 33.7986 46.1798 31.6486 46.1798 28.9886C46.1798 26.3286 48.3298 24.1786 50.9898 24.1786C53.6498 24.1786 55.7998 26.3286 55.7998 28.9886C55.7998 31.6486 53.6498 33.7986 50.9898 33.7986ZM50.9898 22.2686C47.2698 22.2686 44.2598 25.2786 44.2598 28.9986C44.2598 32.7186 47.2698 35.7286 50.9898 35.7286C54.7098 35.7286 57.7198 32.7186 57.7198 28.9986C57.7198 25.2786 54.7098 22.2686 50.9898 22.2686Z" fill="#8BA6B1"/>
<path fill-rule="evenodd" clip-rule="evenodd" d="M55.7997 28.9885C55.7997 31.6385 53.6497 33.7985 50.9897 33.7985C49.6597 33.7985 48.4597 33.2585 47.5897 32.3885L46.2297 33.7485C47.4497 34.9685 49.1297 35.7185 50.9897 35.7185C54.7097 35.7185 57.7197 32.7085 57.7197 28.9885C57.7197 27.1285 56.9697 25.4485 55.7497 24.2285L54.3897 25.5885C55.2597 26.4685 55.7997 27.6685 55.7997 28.9885Z" fill="#ADBDC4"/>
<path d="M77.3498 76.8085H71.5098V59.3485C71.5098 58.7185 72.0198 58.2085 72.6498 58.2085H77.3498C77.9798 58.2085 78.4898 58.7185 78.4898 59.3485V75.6685C78.4898 76.2985 77.9798 76.8085 77.3498 76.8085Z" fill="url(#paint0_linear)"/>
<path d="M73.5698 76.8085H67.5898V63.9485C67.5898 63.3985 68.0298 62.9585 68.5798 62.9585H73.5698C74.1198 62.9585 74.5598 63.3985 74.5598 63.9485V75.8085C74.5698 76.3685 74.1198 76.8085 73.5698 76.8085Z" fill="url(#paint1_linear)"/>
<path d="M69.5299 76.8086H65.1399C64.4299 76.8086 63.8499 76.2286 63.8499 75.5186V68.8086C63.8499 68.0986 64.4299 67.5186 65.1399 67.5186H69.5299C70.2398 67.5186 70.8199 68.0986 70.8199 68.8086V75.5186C70.8199 76.2286 70.2398 76.8086 69.5299 76.8086Z" fill="url(#paint2_linear)"/>
<path d="M50.8 36.7484C54.99 36.7484 58.39 33.3484 58.39 29.1584C58.39 24.9684 54.99 21.5684 50.8 21.5684C46.61 21.5684 43.21 24.9684 43.21 29.1584C43.2 33.3484 46.6 36.7484 50.8 36.7484Z" fill="url(#paint3_linear)"/>
<path d="M51.48 23.0186H50.04V35.4686H51.48V23.0186Z" fill="url(#paint4_linear)"/>
<path d="M50.13 29.8585V28.4185H44.46V29.8585H50.13Z" fill="#99EDF3"/>
<path d="M50.7998 33.8785C53.4098 33.8785 55.5298 31.7585 55.5298 29.1485C55.5298 26.5385 53.4098 24.4185 50.7998 24.4185C48.1898 24.4185 46.0698 26.5385 46.0698 29.1485C46.0698 31.7685 48.1898 33.8785 50.7998 33.8785Z" fill="url(#paint5_linear)"/>
<path d="M50.8 23.6985C51.7 23.6985 52.43 22.9685 52.43 22.0685C52.43 21.1685 51.7 20.4385 50.8 20.4385C49.9 20.4385 49.17 21.1685 49.17 22.0685C49.16 22.9685 49.89 23.6985 50.8 23.6985Z" fill="url(#paint6_linear)"/>
<path d="M50.8 37.8787C51.7 37.8787 52.43 37.1487 52.43 36.2487C52.43 35.3487 51.7 34.6187 50.8 34.6187C49.9 34.6187 49.17 35.3487 49.17 36.2487C49.16 37.1487 49.89 37.8787 50.8 37.8787Z" fill="url(#paint7_linear)"/>
<path d="M57.8899 30.7883C58.7899 30.7883 59.5199 30.0583 59.5199 29.1583C59.5199 28.2583 58.7899 27.5283 57.8899 27.5283C56.9899 27.5283 56.2599 28.2583 56.2599 29.1583C56.2499 30.0583 56.9899 30.7883 57.8899 30.7883Z" fill="url(#paint8_linear)"/>
<path d="M43.7099 30.7883C44.6099 30.7883 45.3399 30.0583 45.3399 29.1583C45.3399 28.2583 44.6099 27.5283 43.7099 27.5283C42.8099 27.5283 42.0799 28.2583 42.0799 29.1583C42.0699 30.0583 42.7999 30.7883 43.7099 30.7883Z" fill="#9DF3F9"/>
<path d="M50.7999 31.3385C51.9999 31.3385 52.9799 30.3585 52.9799 29.1585C52.9799 27.9585 51.9999 26.9785 50.7999 26.9785C49.5999 26.9785 48.6199 27.9585 48.6199 29.1585C48.6099 30.3585 49.5899 31.3385 50.7999 31.3385Z" fill="url(#paint9_linear)"/>
<path d="M51.01 29.8585V28.4185H56.92V29.8585H51.01Z" fill="url(#paint10_linear)"/>
<defs>
<linearGradient id="paint0_linear" x1="74.9259" y1="59.9139" x2="75.0743" y2="75.3448" gradientUnits="userSpaceOnUse">
<stop offset="0.00753769" stop-color="#E0A310"/>
<stop offset="1" stop-color="#CA810E"/>
</linearGradient>
<linearGradient id="paint1_linear" x1="70.8899" y1="63.5003" x2="71.335" y2="79.8213" gradientUnits="userSpaceOnUse">
<stop offset="0.00753769" stop-color="#F2CC40"/>
<stop offset="1" stop-color="#E7B116"/>
</linearGradient>
<linearGradient id="paint2_linear" x1="67.1689" y1="68.2321" x2="67.614" y2="78.7667" gradientUnits="userSpaceOnUse">
<stop stop-color="#F8E17B"/>
<stop offset="0.5302" stop-color="#F6D856"/>
<stop offset="1" stop-color="#F6D856"/>
</linearGradient>
<linearGradient id="paint3_linear" x1="44.4662" y1="24.6701" x2="64.6194" y2="38.9455" gradientUnits="userSpaceOnUse">
<stop offset="0.3392" stop-color="#019AA6"/>
<stop offset="0.6407" stop-color="#01727A"/>
</linearGradient>
<linearGradient id="paint4_linear" x1="49.9454" y1="20.3861" x2="51.6248" y2="38.641" gradientUnits="userSpaceOnUse">
<stop stop-color="#94EDF3"/>
<stop offset="1" stop-color="#82EBF1"/>
</linearGradient>
<linearGradient id="paint5_linear" x1="47.2646" y1="26.5481" x2="56.3189" y2="33.2293" gradientUnits="userSpaceOnUse">
<stop stop-color="#32DFEA"/>
<stop offset="1" stop-color="#0DBDCA"/>
</linearGradient>
<linearGradient id="paint6_linear" x1="50.6365" y1="20.3226" x2="52.316" y2="38.5784" gradientUnits="userSpaceOnUse">
<stop stop-color="#94EDF3"/>
<stop offset="1" stop-color="#82EBF1"/>
</linearGradient>
<linearGradient id="paint7_linear" x1="49.3425" y1="20.4408" x2="51.0221" y2="38.6968" gradientUnits="userSpaceOnUse">
<stop stop-color="#94EDF3"/>
<stop offset="1" stop-color="#82EBF1"/>
</linearGradient>
<linearGradient id="paint8_linear" x1="50.0571" y1="26.2596" x2="61.1202" y2="30.349" gradientUnits="userSpaceOnUse">
<stop stop-color="#94EDF3"/>
<stop offset="1" stop-color="#32DFEA"/>
</linearGradient>
<linearGradient id="paint9_linear" x1="49.2049" y1="28.566" x2="60.2672" y2="32.6551" gradientUnits="userSpaceOnUse">
<stop stop-color="#94EDF3"/>
<stop offset="1" stop-color="#32DFEA"/>
</linearGradient>
<linearGradient id="paint10_linear" x1="49.5912" y1="27.521" x2="60.6536" y2="31.6101" gradientUnits="userSpaceOnUse">
<stop stop-color="#94EDF3"/>
<stop offset="1" stop-color="#32DFEA"/>
</linearGradient>
</defs>
</svg>
