<svg width="103" height="103" viewBox="0 0 103 103" fill="none" xmlns="http://www.w3.org/2000/svg">
<path d="M51.696 98.368C25.846 98.368 4.88605 77.418 4.88605 51.558C4.88605 25.698 25.846 4.74805 51.696 4.74805C77.546 4.74805 98.506 25.708 98.506 51.558C98.506 77.408 77.546 98.368 51.696 98.368Z" fill="url(#paint0_linear_333_15103)"/>
<path fill-rule="evenodd" clip-rule="evenodd" d="M97.596 51.558C97.596 76.908 77.046 97.458 51.696 97.458C26.346 97.458 5.79603 76.908 5.79603 51.558C5.79603 26.208 26.346 5.65797 51.696 5.65797C77.046 5.65797 97.596 26.208 97.596 51.558ZM51.696 1.91797C79.116 1.91797 101.336 24.138 101.336 51.558C101.336 78.978 79.106 101.198 51.696 101.198C24.276 101.198 2.05603 78.968 2.05603 51.558C2.05603 24.138 24.276 1.91797 51.696 1.91797Z" fill="#F2F1F0"/>
<path fill-rule="evenodd" clip-rule="evenodd" d="M94.786 51.5585C94.786 75.3585 75.496 94.6485 51.696 94.6485C27.896 94.6485 8.60603 75.3585 8.60603 51.5585C8.60603 27.7585 27.896 8.46852 51.696 8.46852C75.496 8.46852 94.786 27.7585 94.786 51.5585ZM51.696 4.72852C77.556 4.72852 98.526 25.6985 98.526 51.5585C98.526 77.4185 77.556 98.3885 51.696 98.3885C25.836 98.3885 4.86603 77.4185 4.86603 51.5585C4.86603 25.6985 25.826 4.72852 51.696 4.72852Z" fill="url(#paint1_linear_333_15103)"/>
<path fill-rule="evenodd" clip-rule="evenodd" d="M32.358 53.2422H41.7002V54.2422H32.358V53.2422Z" fill="white"/>
<path fill-rule="evenodd" clip-rule="evenodd" d="M41.2746 42.2246C41.2746 41.9485 41.4985 41.7246 41.7746 41.7246H55.9825V42.7246H42.2746V64.6243H55.9825V65.6243H41.7746C41.4985 65.6243 41.2746 65.4004 41.2746 65.1243V42.2246Z" fill="white"/>
<path opacity="0.15" d="M36.5746 38.0976L14.2562 37.9141C13.7721 37.909 13.3797 38.2963 13.3797 38.7804L13.1402 67.9064C13.1352 68.3905 13.5224 68.7828 14.0065 68.7828L36.3249 68.9662C36.809 68.9713 37.2013 68.5841 37.2013 68.1L37.4408 38.974C37.4357 38.495 37.0485 38.1026 36.5746 38.0976Z" fill="#1F1D20"/>
<path d="M36.5797 37.1757L14.2613 36.9922C13.7772 36.9871 13.3848 37.3744 13.3848 37.8585L13.1402 66.9794C13.1352 67.4635 13.5224 67.8558 14.0065 67.8558L36.3249 68.0393C36.809 68.0444 37.2013 67.6571 37.2013 67.173L37.4408 38.047C37.4408 37.5731 37.0586 37.1808 36.5797 37.1757Z" fill="#F2F2F2"/>
<path opacity="0.15" d="M35.0256 38.1738H15.5556V65.2871H35.0256V38.1738Z" fill="#1F1D20"/>
<path d="M35.0256 37.8633H15.5556V64.9766H35.0256V37.8633Z" fill="white"/>
<path fill-rule="evenodd" clip-rule="evenodd" d="M26.4549 33.7922C27.0867 34.1336 27.4536 34.8113 27.4485 35.5246V35.6979C27.4485 35.7641 27.4434 35.8202 27.4383 35.8864L28.809 35.8966C29.2166 35.9017 29.5988 36.1055 29.8026 36.4622C30.3733 37.4762 29.6498 38.5055 28.6969 38.4953L21.7772 38.4444C21.3695 38.4393 20.9874 38.2354 20.7835 37.8788C20.2128 36.8648 20.9364 35.8355 21.8893 35.8456L23.1632 35.8558C23.1581 35.7947 23.1581 35.7335 23.1581 35.6673V35.6113C23.1784 34.0622 24.8243 32.9157 26.4549 33.7922Z" fill="#243A5E"/>
<path d="M25.283 36.6295C25.7722 36.6346 26.1696 36.2423 26.1747 35.7531C26.1798 35.2639 25.7874 34.8665 25.2983 34.8614C24.8091 34.8563 24.4117 35.2486 24.4066 35.7378C24.4066 36.227 24.7938 36.6244 25.283 36.6295Z" fill="#F2F2F2"/>
<path opacity="0.2" d="M30.8391 43.0117H19.7419C19.4446 43.0117 19.2043 43.252 19.2043 43.5493V60.1768C19.2043 60.4741 19.4446 60.7143 19.7419 60.7143H30.8391C31.1364 60.7143 31.3767 60.4741 31.3767 60.1768V43.5493C31.3767 43.252 31.1364 43.0117 30.8391 43.0117Z" fill="#1F1D21"/>
<path d="M30.8391 42.4941H19.7419C19.4446 42.4941 19.2043 42.7344 19.2043 43.0317V59.6592C19.2043 59.9565 19.4446 60.1968 19.7419 60.1968H30.8391C31.1364 60.1968 31.3767 59.9565 31.3767 59.6592V43.0276C31.3767 42.7344 31.1364 42.4941 30.8391 42.4941Z" fill="#185A97"/>
<path d="M29.1613 44.7051H21.4197V48.02H29.1654V44.7051H29.1613Z" fill="#D5F9FD"/>
<path d="M22.5233 50.2402H21.4156V51.3479H22.5233V50.2402Z" fill="#84ECFD"/>
<path d="M22.5233 53.5547H21.4156V54.6624H22.5233V53.5547Z" fill="#50E6FF"/>
<path d="M22.5233 56.877H21.4156V57.9846H22.5233V56.877Z" fill="#32B0E7"/>
<path d="M25.8424 50.2402H24.7347V51.3479H25.8424V50.2402Z" fill="#84ECFD"/>
<path d="M25.8424 53.5547H24.7347V54.6624H25.8424V53.5547Z" fill="#50E6FF"/>
<path d="M25.8424 56.877H24.7347V57.9846H25.8424V56.877Z" fill="#32B0E7"/>
<path d="M29.1613 50.2402H28.0536V51.3479H29.1613V50.2402Z" fill="#84ECFD"/>
<path d="M29.1613 53.5547H28.0536V54.6624H29.1613V53.5547Z" fill="#50E6FF"/>
<path d="M29.1613 56.877H28.0536V57.9846H29.1613V56.877Z" fill="#32B0E7"/>
<path opacity="0.15" d="M46.9417 69.9945H87.0263C88.1491 69.9945 89.0614 69.0822 89.0614 67.9594V35.9941H44.9066V67.9594C44.9066 69.0822 45.8189 69.9945 46.9417 69.9945Z" fill="#1F1D20"/>
<path d="M45.7487 69.0667H88.2193C88.6825 69.0667 89.0614 68.6878 89.0614 68.2246V35.0664H44.9066V68.2246C44.9066 68.6878 45.2856 69.0667 45.7487 69.0667Z" fill="#EBEBEB"/>
<path d="M44.9066 38.7364H89.0614V34.7784C89.0614 34.4205 88.7737 34.1328 88.4158 34.1328H45.5522C45.1943 34.1328 44.9066 34.4205 44.9066 34.7784V38.7364Z" fill="#092E4C"/>
<path d="M48.3031 37.6488C48.9207 37.6488 49.4259 37.1505 49.4259 36.526C49.4259 35.9014 48.9136 35.4102 48.3031 35.4102C47.6856 35.4102 47.1803 35.9084 47.1803 36.533C47.1803 37.1575 47.6715 37.6488 48.3031 37.6488Z" fill="white"/>
<path opacity="0.15" d="M85.7809 41.3574H47.9561V66.7072H85.7809V41.3574Z" fill="#1F1D20"/>
<path d="M85.7809 41.0664H47.9561V66.4162H85.7809V41.0664Z" fill="white"/>
<path d="M62.4663 62.4285H61.6458V45.6914L71.163 45.6504L71.1835 46.4708L62.4663 46.5119V62.4285Z" fill="#9B9BA0"/>
<path d="M66.0774 53.3633H63.1033V54.1837H66.0774V53.3633Z" fill="#C7C7C7"/>
<path d="M65.6452 55.2915L68.2706 53.7737L65.6452 52.2559V55.2915Z" fill="#C7C7C7"/>
<path d="M57.2352 53.3633H54.261V54.1837H57.2352V53.3633Z" fill="#C7C7C7"/>
<path d="M56.7858 55.2915L59.4112 53.7737L56.7858 52.2559V55.2915Z" fill="#C7C7C7"/>
<path d="M75.634 53.3633H72.6599V54.1837H75.634V53.3633Z" fill="#C7C7C7"/>
<path d="M75.2046 55.2915L77.83 53.7737L75.2046 52.2559V55.2915Z" fill="#C7C7C7"/>
<path d="M73.8712 43.4766H68.6203V48.7479H73.8917V43.4766H73.8712Z" fill="#FDC4C5"/>
<path d="M84.0032 53.7739L80.9265 50.6973L77.8499 53.7739L80.9265 56.8506L84.0032 53.7739Z" fill="#D166CB"/>
<path d="M64.6622 51.1484H59.3908V56.3993H64.6622V51.1484Z" fill="#FD7853"/>
<path d="M63.226 58.9023H60.8467C60.0467 58.9023 59.4109 59.5382 59.4109 60.3381V62.7174C59.4109 63.5174 60.0467 64.1532 60.8467 64.1532H63.226C64.0259 64.1532 64.6618 63.5174 64.6618 62.7174V60.3381C64.6618 59.5382 64.0054 58.9023 63.226 58.9023Z" fill="#83462B"/>
<path d="M63.5541 43.4766H60.5184L59.0006 46.102L60.5184 48.7274H63.5541L65.0719 46.102L63.5541 43.4766Z" fill="#FFB39D"/>
<path d="M52.8059 56.7686C54.4673 56.7686 55.8005 55.4353 55.8005 53.7739C55.8005 52.1125 54.4673 50.7793 52.8059 50.7793C51.1445 50.7793 49.8113 52.1125 49.8113 53.7739C49.8113 55.4353 51.1445 56.7686 52.8059 56.7686Z" fill="#FDBE52"/>
<path d="M71.2449 56.7686C72.9063 56.7686 74.2395 55.4353 74.2395 53.7739C74.2395 52.1125 72.9063 50.7793 71.2449 50.7793C69.5835 50.7793 68.2502 52.1125 68.2502 53.7739C68.2502 55.4353 69.604 56.7686 71.2449 56.7686Z" fill="#FD5A5F"/>
<defs>
<linearGradient id="paint0_linear_333_15103" x1="49.9221" y1="-13.2315" x2="53.9041" y2="132.539" gradientUnits="userSpaceOnUse">
<stop stop-color="#00ABDE"/>
<stop offset="1" stop-color="#007ED8"/>
</linearGradient>
<linearGradient id="paint1_linear_333_15103" x1="3.12643" y1="-20.0641" x2="98.654" y2="120.817" gradientUnits="userSpaceOnUse">
<stop stop-color="#007ED8"/>
<stop offset="0.7065" stop-color="#002D4C"/>
</linearGradient>
</defs>
</svg>
