<svg width="103" height="103" viewBox="0 0 103 103" fill="none" xmlns="http://www.w3.org/2000/svg">
<path d="M51.7277 98.0341C25.8777 98.0341 4.91769 77.0841 4.91769 51.2241C4.91769 25.3641 25.8777 4.41406 51.7277 4.41406C77.5777 4.41406 98.5377 25.3741 98.5377 51.2241C98.5377 77.0741 77.5777 98.0341 51.7277 98.0341Z" fill="url(#paint0_linear_164_99)"/>
<path fill-rule="evenodd" clip-rule="evenodd" d="M97.6277 51.224C97.6277 76.574 77.0777 97.124 51.7277 97.124C26.3777 97.124 5.82768 76.574 5.82768 51.224C5.82768 25.874 26.3777 5.32399 51.7277 5.32399C77.0777 5.32399 97.6277 25.874 97.6277 51.224ZM51.7277 1.58398C79.1477 1.58398 101.368 23.804 101.368 51.224C101.368 78.644 79.1377 100.864 51.7277 100.864C24.3077 100.864 2.08768 78.634 2.08768 51.224C2.08768 23.804 24.3077 1.58398 51.7277 1.58398Z" fill="#F2F1F0"/>
<path fill-rule="evenodd" clip-rule="evenodd" d="M94.8177 51.2236C94.8177 75.0236 75.5277 94.3136 51.7277 94.3136C27.9277 94.3136 8.6377 75.0236 8.6377 51.2236C8.6377 27.4236 27.9277 8.13356 51.7277 8.13356C75.5277 8.13356 94.8177 27.4236 94.8177 51.2236ZM51.7277 4.39355C77.5877 4.39355 98.5577 25.3636 98.5577 51.2236C98.5577 77.0836 77.5877 98.0536 51.7277 98.0536C25.8677 98.0536 4.89771 77.0836 4.89771 51.2236C4.89771 25.3636 25.8577 4.39355 51.7277 4.39355Z" fill="url(#paint1_linear_164_99)"/>
<path fill-rule="evenodd" clip-rule="evenodd" d="M52.3684 14.9209V87.2132H51.3684V14.9209H52.3684Z" fill="#F2F1F0"/>
<path fill-rule="evenodd" clip-rule="evenodd" d="M88.02 51.5615H15.7169V50.5615H88.02V51.5615Z" fill="#F2F1F0"/>
<path fill-rule="evenodd" clip-rule="evenodd" d="M77.7847 25.8634L26.6593 76.978L25.9522 76.2708L77.0776 25.1562L77.7847 25.8634Z" fill="#F2F1F0"/>
<path fill-rule="evenodd" clip-rule="evenodd" d="M77.0776 76.978L25.9522 25.8634L26.6593 25.1562L77.7847 76.2708L77.0776 76.978Z" fill="#F2F1F0"/>
<path d="M51.7277 17.6381C53.4977 17.6381 54.9325 16.2033 54.9325 14.4333C54.9325 12.6634 53.4977 11.2285 51.7277 11.2285C49.9577 11.2285 48.5229 12.6634 48.5229 14.4333C48.5229 16.2033 49.9577 17.6381 51.7277 17.6381Z" fill="#F2F1F0"/>
<path d="M51.7277 91.2192C53.4977 91.2192 54.9325 89.7844 54.9325 88.0144C54.9325 86.2444 53.4977 84.8096 51.7277 84.8096C49.9577 84.8096 48.5229 86.2444 48.5229 88.0144C48.5229 89.7844 49.9577 91.2192 51.7277 91.2192Z" fill="#F2F1F0"/>
<path d="M88.518 54.4282C90.288 54.4282 91.7229 52.9933 91.7229 51.2234C91.7229 49.4534 90.288 48.0186 88.518 48.0186C86.7481 48.0186 85.3132 49.4534 85.3132 51.2234C85.3132 52.9933 86.7481 54.4282 88.518 54.4282Z" fill="#F2F1F0"/>
<path d="M14.9373 54.4282C16.7073 54.4282 18.1421 52.9933 18.1421 51.2234C18.1421 49.4534 16.7073 48.0186 14.9373 48.0186C13.1674 48.0186 11.7325 49.4534 11.7325 51.2234C11.7325 52.9933 13.1674 54.4282 14.9373 54.4282Z" fill="#F2F1F0"/>
<path d="M77.7451 28.4106C79.5151 28.4106 80.9499 26.9758 80.9499 25.2058C80.9499 23.4358 79.5151 22.001 77.7451 22.001C75.9752 22.001 74.5403 23.4358 74.5403 25.2058C74.5403 26.9758 75.9752 28.4106 77.7451 28.4106Z" fill="#F2F1F0"/>
<path d="M25.7102 80.4458C27.4802 80.4458 28.9151 79.0109 28.9151 77.2409C28.9151 75.471 27.4802 74.0361 25.7102 74.0361C23.9403 74.0361 22.5054 75.471 22.5054 77.2409C22.5054 79.0109 23.9403 80.4458 25.7102 80.4458Z" fill="#F2F1F0"/>
<path d="M77.7451 80.4458C79.5151 80.4458 80.9499 79.0109 80.9499 77.2409C80.9499 75.471 79.5151 74.0361 77.7451 74.0361C75.9752 74.0361 74.5403 75.471 74.5403 77.2409C74.5403 79.0109 75.9752 80.4458 77.7451 80.4458Z" fill="#F2F1F0"/>
<path d="M25.7102 28.4106C27.4802 28.4106 28.9151 26.9758 28.9151 25.2058C28.9151 23.4358 27.4802 22.001 25.7102 22.001C23.9403 22.001 22.5054 23.4358 22.5054 25.2058C22.5054 26.9758 23.9403 28.4106 25.7102 28.4106Z" fill="#F2F1F0"/>
<path d="M30.7886 63.6533C30.6688 63.8713 30.6906 63.8277 30.7886 63.6533V63.6533Z" fill="#9FC2F6"/>
<path d="M30.7881 63.6534C30.7881 63.6426 30.7988 63.6426 30.7988 63.6318C30.7988 63.6426 30.7881 63.6534 30.7881 63.6534Z" fill="#9FC2F6"/>
<path d="M30.7989 63.6318C30.9397 63.4044 31.167 63.0146 31.167 63.0146C31.0046 63.1987 30.8747 63.4152 30.7989 63.6318Z" fill="#9FC2F6"/>
<path d="M51.8359 65.5369C60.0861 65.5369 66.7773 58.8566 66.7773 50.5956C66.7773 42.3345 60.0861 35.665 51.8359 35.665C43.5857 35.665 36.8946 42.3453 36.8946 50.5956C36.8946 58.8458 43.5749 65.5369 51.8359 65.5369Z" fill="#F2F1F0"/>
<path opacity="0.15" d="M71.1999 36.208H32.2553V69.8301C32.2553 70.5157 32.8237 71.075 33.5003 71.075H69.946C70.6316 71.075 71.1909 70.5067 71.1909 69.8301L71.1999 36.208Z" fill="#1F1D20"/>
<path d="M69.8738 31.373H33.5815C32.8417 31.373 32.2554 31.9594 32.2554 32.6992V34.738V35.5408V68.36C32.2554 69.0456 32.8237 69.6049 33.5003 69.6049H69.946C70.6316 69.6049 71.1909 69.0366 71.1909 68.36V35.5408H71.1999V32.6992C71.1999 31.9594 70.6136 31.373 69.8738 31.373Z" fill="url(#paint2_linear_164_99)"/>
<path d="M62.767 59.7657C62.1548 54.2758 57.4456 49.959 51.7476 49.959C46.0966 49.959 41.4345 54.182 40.7282 59.6249C40.634 60.0003 40.634 60.4226 40.634 60.798C40.7752 62.3464 41.8583 63.8479 43.8833 65.0209C48.2157 67.5078 55.2794 67.5078 59.5647 65.0209C61.5897 63.8479 62.6257 62.3464 62.767 60.798C62.8612 60.4695 62.8141 60.0941 62.767 59.7657Z" fill="url(#paint3_radial_164_99)"/>
<path d="M51.7558 48.8342C55.4413 48.8342 58.4289 45.8632 58.4289 42.1984C58.4289 38.5335 55.4413 35.5625 51.7558 35.5625C48.0704 35.5625 45.0827 38.5335 45.0827 42.1984C45.0827 45.8632 48.0704 48.8342 51.7558 48.8342Z" fill="url(#paint4_radial_164_99)"/>
<path opacity="0.15" fill-rule="evenodd" clip-rule="evenodd" d="M56.2896 56.2068L56.1827 56.0998C55.616 55.5341 54.8481 55.2164 54.0474 55.2164C53.2467 55.2164 52.4787 55.5341 51.9121 56.0998L51.8051 56.2068L51.6981 56.0998C51.4174 55.8183 51.0838 55.595 50.7167 55.4427C50.3495 55.2903 49.9559 55.2119 49.5584 55.2119C49.1608 55.2119 48.7672 55.2903 48.4001 55.4427C48.0329 55.595 47.6994 55.8183 47.4186 56.0998L47.3205 56.1978C46.7549 56.7645 46.4372 57.5324 46.4372 58.3331C46.4372 59.1338 46.7549 59.9017 47.3205 60.4684L47.4275 60.5754L51.6624 64.8103C51.6808 64.8297 51.7029 64.8452 51.7274 64.8558C51.7519 64.8664 51.7784 64.8719 51.8051 64.8719C51.8318 64.8719 51.8582 64.8664 51.8828 64.8558C51.9073 64.8452 51.9294 64.8297 51.9477 64.8103L56.2896 60.4684C56.8548 59.9033 57.1723 59.1368 57.1723 58.3375C57.1723 57.5383 56.8548 56.7719 56.2896 56.2068V56.2068Z" fill="#1F1D20"/>
<path d="M49.9521 54.8556C50.7524 54.859 50.9538 54.857 51.518 55.4246L51.6892 55.5329L51.9022 55.463C52.4691 54.8941 52.6335 55.1133 53.4367 55.1114C53.8332 55.1116 53.8701 54.4308 54.2359 54.5839C54.6017 54.7369 53.9734 55.0369 54.2519 55.3192L54.9392 55.5589C55.5049 56.1256 54.9392 55.4935 54.9392 56.2942C54.9392 57.0949 55.8086 56.5108 55.2429 57.0774L52.2698 61.0096L52.1272 61.1522L51.9845 61.0096L48.7213 58.2763L48.6054 58.1604C48.3231 57.881 48.1389 58.387 47.986 58.0205C47.8331 57.654 47.7303 57.3467 47.7303 56.9496C47.7303 56.5524 47.8323 56.4116 47.9852 56.0451C48.1381 55.6786 48.3432 56.0301 48.6254 55.7507L48.7852 55.3991C49.0657 55.117 48.3541 54.7209 48.7213 54.5679C49.0885 54.4149 49.2575 54.8386 49.6553 54.8382L49.9521 54.8556ZM49.5926 53.0049C49.1287 53.0035 48.6692 53.0941 48.2407 53.2716C47.8121 53.4492 47.3456 53.709 47.0187 54.0381L46.9206 54.1451C46.5917 54.4684 46.383 54.8381 46.2054 55.2637C46.0278 55.6894 45.9371 56.1463 45.9386 56.6075C45.9372 57.0713 46.0279 57.5309 46.2054 57.9594C46.3829 58.388 46.6511 58.7357 46.9801 59.0627L47.0514 59.134L47.0887 59.1752L51.3593 63.4012L51.4574 63.5082C51.5535 63.5998 51.6812 63.6509 51.814 63.6509C51.8785 63.6511 51.9424 63.6387 52.0021 63.6142C52.0617 63.5897 52.116 63.5537 52.1617 63.5082L52.2776 63.4012L52.3311 63.3388L56.6463 59.0236C56.9752 58.7003 57.2361 58.3144 57.4137 57.8888C57.5913 57.4631 57.682 57.0063 57.6805 56.5451C57.6819 56.0812 57.5912 55.6217 57.4137 55.1932C57.2362 54.7647 57.0209 54.4459 56.6919 54.119L56.5938 54.0209C55.9749 53.3995 55.1004 53.0807 54.2244 53.0394C53.3483 52.9982 52.4885 53.29 51.814 53.8505C51.1845 53.322 50.4145 53.0063 49.5926 53.0049Z" fill="white"/>
<path fill-rule="evenodd" clip-rule="evenodd" d="M55.8098 58.8321L51.8048 62.8369L47.7182 58.7503C47.4594 58.4941 47.254 58.1893 47.1139 57.8533C46.9737 57.5173 46.9015 57.1568 46.9015 56.7928C46.9015 56.4287 46.9737 56.0682 47.1139 55.7322C47.254 55.3962 47.4594 55.0914 47.7182 54.8352L47.8081 54.7453C48.0642 54.4866 48.3691 54.2813 48.7051 54.1411C49.0411 54.0009 49.4015 53.9287 49.7656 53.9287C50.1296 53.9287 50.4901 54.0009 50.8261 54.1411C51.1621 54.2813 51.467 54.4866 51.7231 54.7453L55.8098 58.8321Z" fill="url(#paint5_linear_164_99)"/>
<path fill-rule="evenodd" clip-rule="evenodd" d="M51.6659 62.7052L47.7917 58.8311L51.8784 54.7444C52.3978 54.2258 53.1019 53.9346 53.8359 53.9346C54.5699 53.9346 55.2739 54.2258 55.7934 54.7444L55.8915 54.8424C56.41 55.3619 56.7013 56.066 56.7013 56.8C56.7013 57.534 56.41 58.238 55.8915 58.7575L51.9192 62.7216C51.8819 62.7494 51.8359 62.7629 51.7895 62.7599C51.7431 62.7569 51.6993 62.7376 51.6659 62.7052V62.7052Z" fill="url(#paint6_linear_164_99)"/>
<defs>
<linearGradient id="paint0_linear_164_99" x1="49.9538" y1="-13.5654" x2="53.9358" y2="132.205" gradientUnits="userSpaceOnUse">
<stop stop-color="#00ABDE"/>
<stop offset="1" stop-color="#007ED8"/>
</linearGradient>
<linearGradient id="paint1_linear_164_99" x1="3.15811" y1="-20.3991" x2="98.6856" y2="120.482" gradientUnits="userSpaceOnUse">
<stop stop-color="#007ED8"/>
<stop offset="0.7065" stop-color="#002D4C"/>
</linearGradient>
<linearGradient id="paint2_linear_164_99" x1="52.009" y1="66.5699" x2="51.2939" y2="25.8085" gradientUnits="userSpaceOnUse">
<stop offset="0.3831" stop-color="#D2EBFF"/>
<stop offset="1" stop-color="#F0FFFD"/>
</linearGradient>
<radialGradient id="paint3_radial_164_99" cx="0" cy="0" r="1" gradientUnits="userSpaceOnUse" gradientTransform="translate(47.6723 43.711) scale(31.5215 31.408)">
<stop stop-color="#4DC2EB"/>
<stop offset="0.585" stop-color="#0078D4"/>
</radialGradient>
<radialGradient id="paint4_radial_164_99" cx="0" cy="0" r="1" gradientUnits="userSpaceOnUse" gradientTransform="translate(48.4569 38.8322) scale(14.7841 14.7016)">
<stop stop-color="#4DC2EB"/>
<stop offset="0.585" stop-color="#0078D4"/>
</radialGradient>
<linearGradient id="paint5_linear_164_99" x1="44.8496" y1="53.5093" x2="68.4785" y2="74.5301" gradientUnits="userSpaceOnUse">
<stop stop-color="#FFB900"/>
<stop offset="0.17" stop-color="#EF8400"/>
<stop offset="0.31" stop-color="#E25C01"/>
<stop offset="0.43" stop-color="#DB4401"/>
<stop offset="0.5" stop-color="#D83B01"/>
</linearGradient>
<linearGradient id="paint6_linear_164_99" x1="46.6872" y1="55.7726" x2="63.8457" y2="62.7097" gradientUnits="userSpaceOnUse">
<stop stop-color="#FFB900"/>
<stop offset="0.17" stop-color="#EF8400"/>
<stop offset="0.31" stop-color="#E25C01"/>
<stop offset="0.43" stop-color="#DB4401"/>
<stop offset="0.5" stop-color="#D83B01"/>
</linearGradient>
</defs>
</svg>
