<?xml version="1.0" encoding="UTF-8"?>
<svg width="100px" height="100px" viewBox="0 0 100 100" version="1.1" xmlns="http://www.w3.org/2000/svg" xmlns:xlink="http://www.w3.org/1999/xlink">
    <!-- Generator: Sketch 53.2 (72643) - https://sketchapp.com -->
    <title>Use the UI and controls in a canvas app in PowerApps/use-and-understand-controls-in-a-canvas-app-in-powerapps</title>
    <desc>Created with Sketch.</desc>
    <defs>
        <rect id="path-1" x="0" y="0" width="96" height="96" rx="48"></rect>
        <filter x="-8.8%" y="-8.9%" width="117.5%" height="117.8%" filterUnits="objectBoundingBox" id="filter-3">
            <feOffset dx="0" dy="2" in="SourceAlpha" result="shadowOffsetOuter1"></feOffset>
            <feColorMatrix values="0 0 0 0 0   0 0 0 0 0   0 0 0 0 0  0 0 0 0.0964956975 0" type="matrix" in="shadowOffsetOuter1" result="shadowMatrixOuter1"></feColorMatrix>
            <feMerge>
                <feMergeNode in="shadowMatrixOuter1"></feMergeNode>
                <feMergeNode in="SourceGraphic"></feMergeNode>
            </feMerge>
        </filter>
        <filter x="-8.2%" y="-8.3%" width="116.8%" height="118.6%" filterUnits="objectBoundingBox" id="filter-4">
            <feOffset dx="0" dy="2" in="SourceAlpha" result="shadowOffsetOuter1"></feOffset>
            <feColorMatrix values="0 0 0 0 0   0 0 0 0 0   0 0 0 0 0  0 0 0 0.0964956975 0" type="matrix" in="shadowOffsetOuter1" result="shadowMatrixOuter1"></feColorMatrix>
            <feMerge>
                <feMergeNode in="shadowMatrixOuter1"></feMergeNode>
                <feMergeNode in="SourceGraphic"></feMergeNode>
            </feMerge>
        </filter>
    </defs>
    <g id="Badges" stroke="none" stroke-width="1" fill="none" fill-rule="evenodd">
        <g id="Use-the-UI-and-controls-in-a-canvas-app-in-PowerApps" transform="translate(-50.000000, -660.000000)">
            <g id="Use-the-UI-and-controls-in-a-canvas-app-in-PowerApps/use-and-understand-controls-in-a-canvas-app-in-powerapps" transform="translate(50.000000, 660.000000)">
                <g id="Mask" transform="translate(2.000000, 2.000000)">
                    <mask id="mask-2" fill="white">
                        <use xlink:href="#path-1"></use>
                    </mask>
                    <use id="BG" fill="#965596" xlink:href="#path-1"></use>
                    <g id="Group-3" mask="url(#mask-2)">
                        <g transform="translate(15.000000, 16.000000)">
                            <g id="Gear" filter="url(#filter-3)" transform="translate(48.666971, 32.060262) rotate(-46.000000) translate(-48.666971, -32.060262) translate(25.820817, 9.565587)">
                                <path d="M29.5249633,22.4946746 C29.5249633,26.3707882 26.3707882,29.5242604 22.4953775,29.5242604 C18.6192639,29.5242604 15.4657917,26.3707882 15.4657917,22.4946746 C15.4657917,18.6185609 18.6192639,15.4650888 22.4953775,15.4650888 C26.3707882,15.4650888 29.5249633,18.6185609 29.5249633,22.4946746 Z M42.5163408,18.7085396 L39.2475834,17.9816805 C38.9797562,17.922632 38.5629018,17.5430343 38.4792497,17.2815337 C38.4687053,17.2456828 38.4553491,17.2105349 38.440587,17.1760899 L37.5386911,14.9842651 C37.523226,14.9463053 37.5056521,14.9083456 37.4866722,14.8717917 C37.3601396,14.629271 37.3847432,14.0704189 37.5316615,13.8405515 L39.3298296,11.014658 C40.0925396,9.81611361 39.9027408,8.0903503 38.898916,7.08582249 L37.9042296,6.09113609 C36.9236024,5.10980592 35.148632,4.91368047 33.9753941,5.66022249 L31.1487976,7.45768757 C31.0546012,7.51884497 30.8317633,7.58422012 30.5674509,7.58422012 C30.3509396,7.58422012 30.1899621,7.54063669 30.1182604,7.50337988 C30.0824095,7.48369704 30.0437467,7.46682604 30.005084,7.45136095 L27.8139621,6.54876213 C27.7795172,6.53470296 27.7443692,6.52134675 27.7085183,6.51080237 C27.4477207,6.4271503 27.0674201,6.01029586 27.0083716,5.74176568 L26.2822154,2.47371124 C25.9736166,1.08677396 24.6190154,0 23.1983361,0 L21.7924189,0 C20.3710367,0 19.0171385,1.08677396 18.7092426,2.47300828 L17.9823834,5.7431716 C17.922632,6.01029586 17.5430343,6.4271503 17.2822367,6.51080237 C17.2463858,6.52134675 17.2112379,6.53470296 17.1760899,6.54876213 L14.984968,7.45136095 C14.9463053,7.46682604 14.9083456,7.48369704 14.8717917,7.50337988 C14.8007929,7.54063669 14.6398154,7.58422012 14.4226012,7.58422012 C14.1582888,7.58422012 13.9354509,7.51814201 13.8405515,7.45768757 L11.0153609,5.66092544 C9.84212308,4.91438343 8.0664497,5.11121183 7.08652544,6.09183905 L6.09183905,7.08582249 C5.08731124,8.09105325 4.89821538,9.81681657 5.66092544,11.0153609 L7.45909349,13.8405515 C7.60530888,14.0711219 7.62991243,14.628568 7.50408284,14.8710888 C7.48510296,14.9083456 7.46682604,14.9463053 7.45136095,14.9842651 L6.54946509,17.1760899 C6.53540592,17.2105349 6.5220497,17.2456828 6.51080237,17.2815337 C6.4271503,17.5430343 6.01099882,17.922632 5.74246864,17.9823834 L2.4744142,18.7078367 C1.08747692,19.0164355 0.00070295858,20.3703337 0.00070295858,21.791716 L0.00070295858,23.1976331 C0.00070295858,24.6183124 1.08747692,25.9729136 2.47371124,26.2808095 L5.7431716,27.0069657 C6.01099882,27.0667172 6.4271503,27.4463148 6.51080237,27.7078154 C6.5220497,27.7436663 6.53540592,27.7788142 6.54946509,27.8132592 L7.45136095,30.005084 C7.46682604,30.0430438 7.4844,30.0803006 7.50408284,30.1175574 C7.62991243,30.3593751 7.60530888,30.9182272 7.45839053,31.1487976 L5.66092544,33.9739882 C4.89751243,35.1725325 5.08731124,36.8989988 6.09183905,37.9035266 L7.08652544,38.898213 C8.06574675,39.8767314 9.83931124,40.0763716 11.0160639,39.3291266 L13.8398485,37.5316615 C13.9354509,37.4705041 14.1582888,37.405129 14.4226012,37.405129 C14.6398154,37.405129 14.8007929,37.4480095 14.8717917,37.4859692 C14.9090485,37.5042462 14.9463053,37.5225231 14.984968,37.5379882 L17.1760899,38.440587 C17.2112379,38.4546462 17.2463858,38.4672994 17.2822367,38.4785467 C17.5430343,38.5621988 17.922632,38.9790533 17.9823834,39.2468805 L18.7092426,42.5156379 C19.0171385,43.9025751 20.3710367,44.9893491 21.7924189,44.9893491 L23.1983361,44.9893491 C24.6190154,44.9893491 25.9729136,43.9025751 26.2815124,42.5156379 L27.0083716,39.2468805 C27.0674201,38.9790533 27.4477207,38.5621988 27.7085183,38.4785467 C27.7443692,38.4672994 27.7795172,38.4546462 27.8139621,38.440587 L30.005084,37.5379882 C30.0437467,37.5225231 30.0817065,37.5042462 30.1182604,37.4859692 C30.1899621,37.4480095 30.3509396,37.405129 30.5667479,37.405129 C30.8310604,37.405129 31.0546012,37.4705041 31.1487976,37.5316615 L33.9746911,39.3284237 C35.147226,40.0763716 36.9236024,39.8781373 37.9042296,38.898213 L38.898213,37.9042296 C39.9027408,36.8997018 40.0925396,35.1732355 39.3298296,33.9739882 L37.5316615,31.1487976 C37.3847432,30.9182272 37.3601396,30.3600781 37.4866722,30.1182604 C37.5056521,30.0810036 37.523226,30.0437467 37.5386911,30.005787 L38.440587,27.8132592 C38.4553491,27.7788142 38.4687053,27.7436663 38.4792497,27.7078154 C38.5629018,27.4463148 38.9797562,27.0667172 39.2482864,27.0069657 L42.5156379,26.2808095 C43.9032781,25.9729136 44.9900521,24.6183124 44.9900521,23.1976331 L44.9900521,21.791716 C44.9900521,20.3703337 43.9032781,19.0164355 42.5163408,18.7085396 L42.5163408,18.7085396 Z" id="Fill-376" fill="#ADBDC4"></path>
                                <path d="M11.0160639,39.3291266 L13.8398485,37.5316615 C13.9354509,37.4705041 14.1582888,37.405129 14.4226012,37.405129 C14.6398154,37.405129 14.8007929,37.4480095 14.8717917,37.4859692 C14.9090485,37.5042462 14.9463053,37.5225231 14.984968,37.5379882 L17.1760899,38.440587 C17.2112379,38.4546462 17.2463858,38.4672994 17.2822367,38.4785467 C17.5430343,38.5621988 17.922632,38.9790533 17.9823834,39.2468805 L18.7092426,42.5156379 C19.0171385,43.9025751 20.3710367,44.9893491 21.7924189,44.9893491 L23.1983361,44.9893491 C24.6190154,44.9893491 25.9729136,43.9025751 26.2815124,42.5156379 L27.0083716,39.2468805 C27.0674201,38.9790533 27.4477207,38.5621988 27.7085183,38.4785467 C27.7443692,38.4672994 27.7795172,38.4546462 27.8139621,38.440587 L30.005084,37.5379882 C30.0437467,37.5225231 30.0817065,37.5042462 30.1182604,37.4859692 C30.1899621,37.4480095 30.3509396,37.405129 30.5667479,37.405129 C30.8310604,37.405129 31.0546012,37.4705041 31.1487976,37.5316615 L33.9746911,39.3284237 C35.147226,40.0763716 36.9236024,39.8781373 37.9042296,38.898213 L38.898213,37.9042296 C39.9027408,36.8997018 40.0925396,35.1732355 39.3298296,33.9739882 L37.5316615,31.1487976 C37.3847432,30.9182272 37.3601396,30.3600781 37.4866722,30.1182604 C37.5056521,30.0810036 37.523226,30.0437467 37.5386911,30.005787 L38.440587,27.8132592 C38.4553491,27.7788142 38.4687053,27.7436663 38.4792497,27.7078154 C38.5629018,27.4463148 38.9797562,27.0667172 39.2482864,27.0069657 L42.5156379,26.2808095 C43.9032781,25.9729136 44.9900521,24.6183124 44.9900521,23.1976331 L44.9900521,21.791716 C44.9900521,20.3703337 43.9032781,19.0164355 42.5163408,18.7085396 L39.2475834,17.9816805 C38.9797562,17.922632 38.5629018,17.5430343 38.4792497,17.2815337 C38.4687053,17.2456828 38.4553491,17.2105349 38.440587,17.1760899 L37.5386911,14.9842651 C37.523226,14.9463053 37.5056521,14.9083456 37.4866722,14.8717917 C37.3601396,14.629271 37.3847432,14.0704189 37.5316615,13.8405515 L39.3298296,11.014658 C40.0925396,9.81611361 39.9027408,8.0903503 38.898916,7.08582249 L38.4012213,6.58812781 L27.4631858,17.5261633 C28.7362438,18.7992213 29.5249633,20.5566178 29.5249633,22.4946746 C29.5249633,26.3707882 26.3707882,29.5242604 22.4953775,29.5242604 C20.5573207,29.5242604 18.7999243,28.7355408 17.5268663,27.4631858 L6.58953373,38.4005183 L7.08652544,38.898213 C8.06574675,39.8767314 9.83931124,40.0763716 11.0160639,39.3291266" id="Fill-377" fill="#DCDEDE"></path>
                                <path d="M22.4953775,29.5242604 C18.6129373,29.5242604 15.4657917,26.3771148 15.4657917,22.4946746 C15.4657917,18.6122343 18.6129373,15.4650888 22.4953775,15.4650888 C26.3778178,15.4650888 29.5249633,18.6122343 29.5249633,22.4946746 C29.5249633,26.3771148 26.3778178,29.5242604 22.4953775,29.5242604 Z M22.4953775,12.6532544 C17.0601018,12.6532544 12.6539574,17.0593988 12.6539574,22.4946746 C12.6539574,27.9299503 17.0601018,32.3360947 22.4953775,32.3360947 C27.9306533,32.3360947 32.3367976,27.9299503 32.3367976,22.4946746 C32.3367976,17.0593988 27.9306533,12.6532544 22.4953775,12.6532544 L22.4953775,12.6532544 Z" id="Fill-378" fill="#8BA6B1"></path>
                                <path d="M29.5249633,22.4946746 C29.5249633,26.3771148 26.3778178,29.5242604 22.4953775,29.5242604 C20.5538059,29.5242604 18.7964095,28.7376497 17.5247574,27.4652947 L15.5360876,29.4532615 C17.3173846,31.2345586 19.7777396,32.3360947 22.4953775,32.3360947 C27.9306533,32.3360947 32.3367976,27.9299503 32.3367976,22.4946746 C32.3367976,19.7770367 31.2352615,17.3166817 29.4546675,15.5353846 L27.4659976,17.5240544 C28.7383527,18.7957065 29.5249633,20.553103 29.5249633,22.4946746" id="Fill-379" fill="#F0F2F2"></path>
                            </g>
                            <g id="Sound-Board" filter="url(#filter-4)" transform="translate(0.000000, 8.307692)">
                                <path d="M48.0575556,45.0532544 C48.0575556,46.7052071 46.705958,48.0568047 45.0540053,48.0568047 L3.00430118,48.0568047 C1.35234852,48.0568047 0.000750887574,46.7052071 0.000750887574,45.0532544 L0.000750887574,3.0035503 C0.000750887574,1.35159763 1.35234852,0 3.00430118,0 L45.0540053,0 C46.705958,0 48.0575556,1.35159763 48.0575556,3.0035503 L48.0575556,45.0532544" id="Fill-81" fill="#30404D"></path>
                                <path d="M26.2968337,19.5230769 L25.5384373,19.5230769 L25.5384373,16.524032 C25.5384373,16.5225302 25.5384373,16.5210284 25.5384373,16.5195266 C25.5384373,15.6905467 24.8663929,15.0177515 24.0366621,15.0177515 C23.2076822,15.0177515 22.5363888,15.6897959 22.534887,16.5195266 L22.534887,19.5230769 L21.7839994,19.5230769 C20.9535178,19.5230769 20.2822243,20.1958722 20.2822243,21.0248521 C20.2822243,21.8545828 20.9535178,22.5266272 21.7839994,22.5266272 C21.7855012,22.5266272 21.7855012,22.5266272 21.787003,22.5266272 L22.534887,22.5266272 L22.534887,36.0426036 C22.534887,36.8723343 23.2076822,37.5443787 24.0366621,37.5443787 C24.8663929,37.5443787 25.5384373,36.8723343 25.5384373,36.0426036 C25.5384373,36.0411018 25.5384373,36.0411018 25.5384373,36.0396 L25.5384373,22.5266272 L26.2923284,22.5266272 C26.2938302,22.5266272 26.295332,22.5266272 26.2968337,22.5266272 C27.1250627,22.5266272 27.7986089,21.8545828 27.7986089,21.0248521 C27.7986089,20.1958722 27.1265645,19.5245787 26.2968337,19.5230769" id="Fill-82" fill="#C5CCCD"></path>
                                <path d="M14.2676148,31.5372781 L13.5167272,31.5372781 L13.5167272,16.524032 C13.5167272,16.5225302 13.5167272,16.5210284 13.5167272,16.5195266 C13.5167272,15.6905467 12.8446828,15.0177515 12.0149521,15.0177515 C11.1859722,15.0177515 10.5146787,15.6897959 10.5131769,16.5195266 L10.5131769,31.5372781 L9.75478047,31.5372781 C8.9250497,31.5372781 8.25300533,32.2100734 8.25300533,33.0390533 C8.25300533,33.868784 8.9250497,34.5408284 9.75478047,34.5408284 C9.75628225,34.5408284 9.75628225,34.5408284 9.75778402,34.5408284 L10.5131769,34.5408284 L10.5131769,36.0426036 C10.5131769,36.8723343 11.1859722,37.5443787 12.0149521,37.5443787 C12.8446828,37.5443787 13.5167272,36.8723343 13.5167272,36.0426036 C13.5167272,36.0411018 13.5167272,36.0411018 13.5167272,36.0396 L13.5167272,34.5408284 L14.2631095,34.5408284 C14.2646112,34.5408284 14.266113,34.5408284 14.2676148,34.5408284 C15.0958438,34.5408284 15.7693899,33.868784 15.7693899,33.0390533 C15.7693899,32.2100734 15.0973456,31.5387799 14.2676148,31.5372781" id="Fill-83" fill="#C5CCCD"></path>
                                <path d="M38.2960172,26.2810651 L37.5526385,26.2810651 L37.5526385,16.524032 C37.5526385,16.5225302 37.5526385,16.5210284 37.5526385,16.5195266 C37.5526385,15.6905467 36.8805941,15.0177515 36.0508633,15.0177515 C35.2218834,15.0177515 34.5505899,15.6897959 34.5490882,16.5195266 L34.5490882,26.2810651 L33.7831828,26.2810651 C32.9534521,26.2810651 32.2814077,26.9538604 32.2814077,27.7828402 C32.2814077,28.612571 32.9534521,29.2846154 33.7831828,29.2846154 C33.7846846,29.2846154 33.7846846,29.2846154 33.7861864,29.2846154 L34.5490882,29.2846154 L34.5490882,36.0426036 C34.5490882,36.8723343 35.2218834,37.5443787 36.0508633,37.5443787 C36.8805941,37.5443787 37.5526385,36.8723343 37.5526385,36.0426036 C37.5526385,36.0411018 37.5526385,36.0411018 37.5526385,36.0396 L37.5526385,29.2846154 L38.2915118,29.2846154 C38.2930136,29.2846154 38.2945154,29.2846154 38.2960172,29.2846154 C39.1242462,29.2846154 39.7977923,28.612571 39.7977923,27.7828402 C39.7977923,26.9538604 39.1257479,26.2825669 38.2960172,26.2810651" id="Fill-84" fill="#C5CCCD"></path>
                                <path d="M26.2893249,11.2633136 C26.2893249,12.5067834 25.280132,13.5159763 24.0366621,13.5159763 C22.7924414,13.5159763 21.7839994,12.5067834 21.7839994,11.2633136 C21.7839994,10.0198438 22.7924414,9.01065089 24.0366621,9.01065089 C25.280132,9.01065089 26.2893249,10.0198438 26.2893249,11.2633136" id="Fill-85" fill="#7CB65A"></path>
                                <path d="M38.303526,11.2633136 C38.303526,12.5067834 37.2943331,13.5159763 36.0508633,13.5159763 C34.8066426,13.5159763 33.7982006,12.5067834 33.7982006,11.2633136 C33.7982006,10.0198438 34.8066426,9.01065089 36.0508633,9.01065089 C37.2943331,9.01065089 38.303526,10.0198438 38.303526,11.2633136" id="Fill-86" fill="#58B7DA"></path>
                                <path d="M14.2676148,11.2633136 C14.2676148,12.5067834 13.2584219,13.5159763 12.0149521,13.5159763 C10.7714822,13.5159763 9.76228935,12.5067834 9.76228935,11.2633136 C9.76228935,10.0198438 10.7714822,9.01065089 12.0149521,9.01065089 C13.2584219,9.01065089 14.2676148,10.0198438 14.2676148,11.2633136" id="Fill-87" fill="#EFB152"></path>
                                <path d="M12.0149521,9.76153846 C13.1300201,9.76153846 14.0506083,10.5747497 14.2293195,11.6387574 C14.2503444,11.5163627 14.2676148,11.3917154 14.2676148,11.2633136 C14.2676148,10.0198438 13.2584219,9.01065089 12.0149521,9.01065089 C10.7714822,9.01065089 9.76228935,10.0198438 9.76228935,11.2633136 C9.76228935,11.3917154 9.77955976,11.5163627 9.80058462,11.6387574 C9.97929586,10.5747497 10.899884,9.76153846 12.0149521,9.76153846" id="Fill-88" fill="#CC9547"></path>
                                <path d="M24.0291533,9.76153846 C25.1442213,9.76153846 26.0648095,10.5747497 26.2435207,11.6387574 C26.2645456,11.5163627 26.281816,11.3917154 26.281816,11.2633136 C26.281816,10.0198438 25.2726231,9.01065089 24.0291533,9.01065089 C22.7856834,9.01065089 21.7764905,10.0198438 21.7764905,11.2633136 C21.7764905,11.3917154 21.7937609,11.5163627 21.8147858,11.6387574 C21.993497,10.5747497 22.9140852,9.76153846 24.0291533,9.76153846" id="Fill-89" fill="#598844"></path>
                                <path d="M36.0433544,9.76153846 C37.1584225,9.76153846 38.0790107,10.5747497 38.2577219,11.6387574 C38.2787467,11.5163627 38.2960172,11.3917154 38.2960172,11.2633136 C38.2960172,10.0198438 37.2868243,9.01065089 36.0433544,9.01065089 C34.7998846,9.01065089 33.7906917,10.0198438 33.7906917,11.2633136 C33.7906917,11.3917154 33.8079621,11.5163627 33.828987,11.6387574 C34.0076982,10.5747497 34.9282864,9.76153846 36.0433544,9.76153846" id="Fill-90" fill="#0093BF"></path>
                                <polygon id="Fill-91" fill="#AAB0B1" points="10.5131769 35.291716 13.5167272 35.291716 13.5167272 34.5408284 10.5131769 34.5408284"></polygon>
                                <polygon id="Fill-92" fill="#AAB0B1" points="22.5273781 23.2775148 25.5309284 23.2775148 25.5309284 22.5266272 22.5273781 22.5266272"></polygon>
                                <polygon id="Fill-93" fill="#AAB0B1" points="22.5273781 19.5230769 25.5309284 19.5230769 25.5309284 18.7721893 22.5273781 18.7721893"></polygon>
                                <polygon id="Fill-94" fill="#AAB0B1" points="10.5131769 31.5372781 13.5167272 31.5372781 13.5167272 30.7863905 10.5131769 30.7863905"></polygon>
                                <polygon id="Fill-95" fill="#AAB0B1" points="34.5415793 30.035503 37.5451296 30.035503 37.5451296 29.2846154 34.5415793 29.2846154"></polygon>
                                <polygon id="Fill-96" fill="#AAB0B1" points="34.5415793 26.2810651 37.5451296 26.2810651 37.5451296 25.5301775 34.5415793 25.5301775"></polygon>
                            </g>
                        </g>
                    </g>
                </g>
                <g id="PowerApps-Border" stroke="#742774" stroke-width="4">
                    <rect id="Azure-Border" x="2" y="2" width="96" height="96" rx="48"></rect>
                </g>
            </g>
        </g>
    </g>
</svg>