<svg width="181" height="191" viewBox="0 0 181 191" fill="none" xmlns="http://www.w3.org/2000/svg">
<path d="M90.1756 189.938C93.2356 189.938 96.2456 189.088 98.9056 187.468L160.876 149.808C166.416 146.438 169.846 140.108 169.846 133.268V58.5581C169.846 51.7381 166.416 45.3981 160.876 42.0181L98.9056 4.35805C93.5756 1.11805 86.7556 1.13805 81.4556 4.35805L19.4856 42.0381C13.9456 45.4081 10.4956 51.7381 10.4956 58.5781V133.278C10.4956 139.038 12.9456 144.458 17.0456 148.028V148.058L81.4556 187.488C84.0956 189.088 87.1156 189.938 90.1756 189.938ZM90.8256 8.88805C92.7756 8.88805 95.2556 10.0981 96.9656 11.1481L157.726 48.3381C161.476 50.6181 163.596 57.2181 163.596 61.9681L162.966 133.268C162.966 138.018 159.766 142.288 156.016 144.568L95.6156 180.948C92.1856 183.038 89.3956 183.038 85.9556 180.948L24.7456 144.478C20.9956 142.198 17.9756 137.998 17.9756 133.268V59.6281C17.9756 54.8881 20.7056 49.9981 24.4756 47.7081L85.0556 11.1481C86.7556 10.1081 88.8756 8.88805 90.8256 8.88805Z" fill="#F2F1F0"/>
<path fill-rule="evenodd" clip-rule="evenodd" d="M98.0756 12.4668C95.6256 10.9668 92.9056 10.2168 90.1756 10.2168C87.4456 10.2168 84.7256 10.9768 82.2756 12.4668L26.1456 46.7968C21.1256 49.8668 18.0156 55.6168 18.0156 61.8668V129.967C18.0156 136.197 21.1156 141.967 26.1456 145.037L82.2756 179.367C84.7256 180.867 87.4456 181.617 90.1756 181.617C92.9056 181.617 95.6256 180.877 98.0756 179.367L154.206 145.037C159.226 141.967 162.336 136.197 162.336 129.967V61.8668C162.336 55.6368 159.236 49.8868 154.206 46.7968L98.0756 12.4668Z" fill="url(#paint0_linear_63_6692)"/>
<path fill-rule="evenodd" clip-rule="evenodd" d="M90.1756 11.6875C91.8556 11.6875 93.7456 12.5575 95.8056 13.8075L154.276 49.3475C157.926 51.5675 160.336 55.8375 160.336 60.6675V131.148C160.336 135.968 157.926 140.247 154.276 142.467L95.8156 178.008C93.8556 179.198 91.9356 179.947 90.1856 179.947C88.4356 179.947 86.5156 179.198 84.5556 178.008L26.0756 142.477C24.0656 141.247 22.6156 140.048 21.6356 138.438C20.6556 136.837 20.0156 134.618 20.0156 131.158V60.6775C20.0156 55.8475 22.4256 51.5775 26.0756 49.3575L84.5356 13.8175C86.6256 12.5675 88.4856 11.6875 90.1756 11.6875ZM97.8856 181.438L156.346 145.898C161.266 142.908 164.326 137.288 164.326 131.158V60.6775C164.326 54.5475 161.266 48.9275 156.346 45.9375L97.8856 10.3975C95.7756 9.1175 93.0656 7.6875 90.1756 7.6875C87.2756 7.6875 84.5656 9.1275 82.4756 10.3875H82.4656L23.9956 45.9375C19.0756 48.9275 16.0156 54.5475 16.0156 60.6775V131.158C16.0156 135.118 16.7556 138.108 18.2156 140.518C19.6756 142.918 21.7356 144.517 23.9956 145.887L82.4556 181.428C84.6756 182.778 87.3456 183.958 90.1656 183.958C92.9856 183.958 95.6656 182.788 97.8856 181.438Z" fill="url(#paint1_linear_63_6692)"/>
<path opacity="0.15" d="M130.781 43.1661L50.4694 42.506C48.7274 42.4877 47.3156 43.8812 47.3156 45.6231L46.4538 150.431C46.4355 152.173 47.829 153.585 49.5709 153.585L129.882 154.245C131.624 154.263 133.036 152.87 133.036 151.128L133.898 46.3199C133.879 44.5963 132.486 43.1845 130.781 43.1661Z" fill="#1F1D20"/>
<path d="M130.799 39.8478L50.4877 39.1877C48.7458 39.1693 47.3339 40.5629 47.3339 42.3048L46.4538 147.095C46.4355 148.837 47.829 150.248 49.5709 150.248L129.882 150.908C131.624 150.927 133.036 149.533 133.036 147.791L133.898 42.9832C133.898 41.278 132.523 39.8661 130.799 39.8478Z" fill="#F2F2F2"/>
<path opacity="0.15" d="M125.207 43.4414H55.1455V141.007H125.207V43.4414Z" fill="#1F1D20"/>
<path d="M125.207 42.3223H55.1455V139.888H125.207V42.3223Z" fill="white"/>
<path fill-rule="evenodd" clip-rule="evenodd" d="M94.3655 27.6716C96.6391 28.9001 97.9593 31.3388 97.941 33.9058V34.5292C97.941 34.7676 97.9226 34.9693 97.9043 35.2076L102.837 35.2443C104.304 35.2627 105.679 35.9961 106.412 37.2796C108.466 40.9285 105.862 44.6323 102.433 44.5956L77.5331 44.4123C76.0662 44.3939 74.691 43.6605 73.9576 42.377C71.9039 38.7281 74.5076 35.0243 77.9365 35.061L82.5204 35.0976C82.5021 34.8776 82.5021 34.6576 82.5021 34.4192V34.2175C82.5755 28.6434 88.498 24.5178 94.3655 27.6716Z" fill="#243A5E"/>
<path d="M90.1489 37.8842C91.9091 37.9026 93.3393 36.4907 93.3577 34.7304C93.376 32.9702 91.9642 31.54 90.2039 31.5217C88.4437 31.5033 87.0135 32.9152 86.9951 34.6754C86.9951 36.4357 88.3886 37.8659 90.1489 37.8842Z" fill="#F2F2F2"/>
<path d="M140.273 89.8524L147.652 92.1175L150.301 89.0973L147.214 86.5673L151.029 81.9179C150.247 81.3694 149.285 81.1382 148.339 81.271C147.392 81.4037 146.531 81.8905 145.93 82.6332L140.273 89.8524Z" fill="#243A5E"/>
<path d="M127.399 106.37C124.021 110.662 114.894 122.107 114.894 122.107L117.146 123.961L147.506 86.1169L144.857 83.918L127.399 106.37Z" fill="#243A5E"/>
<path d="M147.175 86.5281L117.159 123.949L119.464 125.843L151.719 87.4289C152.048 87.0266 152.291 86.5612 152.433 86.0613C152.575 85.5614 152.613 85.0377 152.545 84.5225C152.476 84.0073 152.303 83.5116 152.036 83.066C151.768 82.6204 151.413 82.2343 150.99 81.9316L147.175 86.5811V86.5281Z" fill="#005A9E"/>
<path d="M115.013 122.252L119.106 125.603L109.437 135.829L107.052 133.869L115.013 122.252Z" fill="#AAC5D3"/>
<path d="M114.364 121.645L119.835 126.135L119.159 126.956L113.688 122.453L114.364 121.645Z" fill="#93B3C5"/>
<path d="M107.608 142.096C109.476 139.844 110.668 137.486 109.754 135.287L107.41 133.354C98.5347 136.175 101.82 141.765 97.0776 145.421C100.349 146.812 105.264 144.944 107.608 142.096Z" fill="#655252"/>
<path opacity="0.55" d="M97.0908 145.407C105.502 144.215 104.588 140.957 104.588 140.957C108.032 140.559 105.37 137.327 105.37 137.327C107.065 137.91 109.767 135.287 109.767 135.287C112.284 139.897 102.403 148.255 97.0908 145.407Z" fill="black"/>
<path d="M92.1827 69.1359L87.4437 64.2485C86.8006 63.5807 85.7222 63.6103 85.1138 64.3078L65.0891 87.1769C64.1938 88.1959 64.1938 89.7195 65.0842 90.7435L84.9258 113.553C85.6728 114.409 87.0035 114.409 87.7504 113.553L93.6767 106.717L94.3297 71.5203L92.1827 69.1359Z" fill="url(#paint2_linear_63_6692)"/>
<path d="M115.492 86.178L95.7543 64.6001C94.9034 63.685 93.459 63.6751 92.5933 64.5704L83.4813 73.9891C82.4919 75.0131 82.4771 76.6307 83.4466 77.6745L92.7911 87.7017C93.4788 88.4387 93.4788 89.5765 92.7961 90.3136L83.4071 100.455C82.4424 101.493 82.4622 103.106 83.4466 104.125L92.5883 113.608C93.459 114.508 94.9084 114.494 95.7592 113.573L115.502 91.8322C116.961 90.2344 116.956 87.7808 115.492 86.178Z" fill="url(#paint3_linear_63_6692)"/>
<path d="M116.432 90.8174L107.622 100.587C106.954 101.324 105.801 101.349 105.109 100.637L96.254 91.5891C94.8194 90.1249 94.8145 87.785 96.2391 86.3109L104.926 77.3325C105.618 76.6152 106.776 76.635 107.444 77.372L116.432 87.2805C117.337 88.2847 117.337 89.8132 116.432 90.8174Z" fill="url(#paint4_linear_63_6692)"/>
<defs>
<linearGradient id="paint0_linear_63_6692" x1="90.1755" y1="10.2168" x2="90.1755" y2="181.616" gradientUnits="userSpaceOnUse">
<stop stop-color="#00ABDE"/>
<stop offset="1" stop-color="#007ED8"/>
</linearGradient>
<linearGradient id="paint1_linear_63_6692" x1="36.2953" y1="5.0086" x2="202.973" y2="287.339" gradientUnits="userSpaceOnUse">
<stop stop-color="#007ED8"/>
<stop offset="0.7065" stop-color="#002D4C"/>
</linearGradient>
<linearGradient id="paint2_linear_63_6692" x1="78.1262" y1="65.6414" x2="81.7991" y2="108.797" gradientUnits="userSpaceOnUse">
<stop stop-color="#A23093"/>
<stop offset="1" stop-color="#692266"/>
</linearGradient>
<linearGradient id="paint3_linear_63_6692" x1="82.6957" y1="89.0927" x2="116.592" y2="89.0927" gradientUnits="userSpaceOnUse">
<stop stop-color="#E184C4"/>
<stop offset="1" stop-color="#D76EBC"/>
</linearGradient>
<linearGradient id="paint4_linear_63_6692" x1="95.1735" y1="88.9818" x2="117.111" y2="88.9818" gradientUnits="userSpaceOnUse">
<stop stop-color="#E89BCA"/>
<stop offset="1" stop-color="#E591C8"/>
</linearGradient>
</defs>
</svg>
