<?xml version="1.0" encoding="UTF-8"?>
<svg width="106px" height="106px" viewBox="0 0 106 106" version="1.1" xmlns="http://www.w3.org/2000/svg" xmlns:xlink="http://www.w3.org/1999/xlink">
    <title>NA/Create-dashboards-in-Power-BI</title>
    <defs>
        <rect id="path-1" x="0" y="0" width="100" height="100" rx="50"></rect>
        <filter x="-2.8%" y="-2.8%" width="106.0%" height="106.0%" filterUnits="objectBoundingBox" id="filter-3">
            <feMorphology radius="2.5" operator="dilate" in="SourceAlpha" result="shadowSpreadOuter1"></feMorphology>
            <feOffset dx="0.5" dy="0.5" in="shadowSpreadOuter1" result="shadowOffsetOuter1"></feOffset>
            <feMorphology radius="1" operator="erode" in="SourceAlpha" result="shadowInner"></feMorphology>
            <feOffset dx="0.5" dy="0.5" in="shadowInner" result="shadowInner"></feOffset>
            <feComposite in="shadowOffsetOuter1" in2="shadowInner" operator="out" result="shadowOffsetOuter1"></feComposite>
            <feColorMatrix values="0 0 0 0 0.821822822   0 0 0 0 0.831640661   0 0 0 0 0.835737288  0 0 0 1 0" type="matrix" in="shadowOffsetOuter1"></feColorMatrix>
        </filter>
        <linearGradient x1="50%" y1="0%" x2="50%" y2="100%" id="linearGradient-4">
            <stop stop-color="#4E4E57" offset="0%"></stop>
            <stop stop-color="#2E2E34" offset="100%"></stop>
        </linearGradient>
        <rect id="path-5" x="0" y="0" width="100" height="100"></rect>
        <path d="M50,0 C77.6142375,0 100,22.3857625 100,50 C100,77.6142375 77.6142375,100 50,100 C22.3857625,100 0,77.6142375 0,50 C0,22.3857625 22.3857625,0 50,0 Z M50,4 C24.5949015,4 4,24.5949015 4,50 C4,75.4050985 24.5949015,96 50,96 C75.4050985,96 96,75.4050985 96,50 C96,24.5949015 75.4050985,4 50,4 Z" id="path-6"></path>
        <filter x="-20.7%" y="-22.5%" width="141.4%" height="146.5%" filterUnits="objectBoundingBox" id="filter-8">
            <feOffset dx="0" dy="2" in="SourceAlpha" result="shadowOffsetOuter1"></feOffset>
            <feGaussianBlur stdDeviation="2" in="shadowOffsetOuter1" result="shadowBlurOuter1"></feGaussianBlur>
            <feColorMatrix values="0 0 0 0 0   0 0 0 0 0   0 0 0 0 0  0 0 0 0.1 0" type="matrix" in="shadowBlurOuter1" result="shadowMatrixOuter1"></feColorMatrix>
            <feMerge>
                <feMergeNode in="shadowMatrixOuter1"></feMergeNode>
                <feMergeNode in="SourceGraphic"></feMergeNode>
            </feMerge>
        </filter>
        <linearGradient x1="50%" y1="100%" x2="50%" y2="0%" id="linearGradient-9">
            <stop stop-color="#CCCCCC" offset="15%"></stop>
            <stop stop-color="#707070" offset="100%"></stop>
        </linearGradient>
        <polygon id="path-10" points="0 0.0421059137 57.9079271 0.0421059137 57.9079271 38.2531807 0 38.2531807"></polygon>
        <linearGradient x1="50%" y1="0.670396959%" x2="50%" y2="100%" id="linearGradient-12">
            <stop stop-color="#6A6A6A" offset="0%"></stop>
            <stop stop-color="#343333" offset="100%"></stop>
        </linearGradient>
        <path d="M0,7.86435036 C0,12.2077961 3.52101747,15.7288136 7.86435036,15.7288136 L7.86435036,15.7288136 C12.2076833,15.7288136 15.7288136,12.2077961 15.7288136,7.86435036 L15.7288136,7.86435036 L7.86435036,7.86435036 L7.86435036,0 C3.52101747,0 0,3.52090464 0,7.86435036 L0,7.86435036 Z" id="path-13"></path>
        <path d="M4.36562274e-15,7.86440678 L7.86440678,7.86440678 C7.86440678,3.52098178 4.343425,6.98499639e-15 4.36562274e-15,6.98499639e-15 L4.36562274e-15,6.98499639e-15 L4.36562274e-15,7.86440678 Z" id="path-15"></path>
    </defs>
    <g id="Badges" stroke="none" stroke-width="1" fill="none" fill-rule="evenodd">
        <g id="N/A-6" transform="translate(-160.000000, -320.000000)">
            <g id="NA/Create-dashboards-in-Power-BI" transform="translate(160.000000, 320.000000)">
                <g id="Badge-Plates/Circle">
                    <g id="BG" transform="translate(3.000000, 3.000000)">
                        <mask id="mask-2" fill="white">
                            <use xlink:href="#path-1"></use>
                        </mask>
                        <g>
                            <use fill="black" fill-opacity="1" filter="url(#filter-3)" xlink:href="#path-1"></use>
                            <rect stroke="#F2F1F0" stroke-width="2.5" x="-1.25" y="-1.25" width="102.5" height="102.5" rx="50"></rect>
                        </g>
                        <g id="Colors/Power-BI/BG-Solid-1" mask="url(#mask-2)">
                            <rect id="Rectangle" fill="url(#linearGradient-4)" x="0" y="0" width="100" height="100"></rect>
                            <g id="Rectangle">
                                <use fill="#F2C811" xlink:href="#path-5"></use>
                                <use fill-opacity="0.501092657" fill="#FFFFFF" xlink:href="#path-5"></use>
                            </g>
                        </g>
                    </g>
                    <g id="Border" transform="translate(3.000000, 3.000000)">
                        <mask id="mask-7" fill="white">
                            <use xlink:href="#path-6"></use>
                        </mask>
                        <use id="Boarder" fill="#0078D4" fill-rule="nonzero" xlink:href="#path-6"></use>
                        <g id="Colors/Power-BI/Border" mask="url(#mask-7)" fill="#F3C900">
                            <rect id="Rectangle" x="0" y="0" width="100" height="100"></rect>
                        </g>
                    </g>
                </g>
                <path d="M83.5,75 C83.1908199,75 82.94018,74.7492937 82.94018,74.4400318 C82.9358049,70.9171376 80.0817817,68.0623588 76.55982,68.0579825 C76.2521839,68.0579903 76.0021818,67.8096956 76,67.5019857 C76,67.3534729 76.0589809,67.2110428 76.1639675,67.1060284 C76.2689541,67.001014 76.4113465,66.9420175 76.55982,66.9420175 C80.0826879,66.9398267 82.9379898,64.0837689 82.94018,60.5599682 C82.94018,60.2507063 83.1908199,60 83.5,60 C83.8091801,60 84.05982,60.2507063 84.05982,60.5599682 C84.0620102,64.0837689 86.9173121,66.9398267 90.44018,66.9420175 C90.74936,66.9420175 91,67.1927238 91,67.5019857 C91,67.8112476 90.74936,68.0619539 90.44018,68.0619539 C86.9182183,68.0663302 84.0641951,70.921109 84.05982,74.4440032 C84.0576382,74.751713 83.8076361,75 83.5,75 Z" id="Path" fill="#FFFFFF" fill-rule="nonzero"></path>
                <g id="Group" transform="translate(27.000000, 26.000000)">
                    <g id="Computer-w/-data" filter="url(#filter-8)">
                        <g id="Group-17">
                            <path d="M41.0332833,49.6875938 C35.0999746,48.7363913 34.8666423,44.3880368 34.8666423,37.3559322 L23.1000245,37.3559322 C23.1000245,44.3880368 22.9000254,48.7363913 16.9667167,49.6875938 C15.2702739,49.8789048 13.9897083,51.3452961 14,53.0847458 L44,53.0847458 C44.0102917,51.3452961 42.7297261,49.8789048 41.0332833,49.6875938 Z" id="Path" fill="url(#linearGradient-9)" fill-rule="nonzero"></path>
                            <g id="Group-7">
                                <g id="Group-3">
                                    <mask id="mask-11" fill="white">
                                        <use xlink:href="#path-10"></use>
                                    </mask>
                                    <g id="Clip-2"></g>
                                    <path d="M55.990207,0.0421059137 C57.0494257,0.0421059137 57.9079271,0.892092887 57.9079271,1.94080638 L57.9079271,36.3544803 C57.9079271,37.4031938 57.0494257,38.2531807 55.990207,38.2531807 L1.91763557,38.2531807 C0.858586006,38.2531807 -8.4548105e-05,37.4031938 -8.4548105e-05,36.3544803 L-8.4548105e-05,1.94080638 C-8.4548105e-05,0.892092887 0.858586006,0.0421059137 1.91763557,0.0421059137 L55.990207,0.0421059137 Z" id="Fill-1" fill="url(#linearGradient-12)" mask="url(#mask-11)"></path>
                                </g>
                            </g>
                        </g>
                        <g id="Group-11" transform="translate(34.406780, 12.779661)">
                            <mask id="mask-14" fill="white">
                                <use xlink:href="#path-13"></use>
                            </mask>
                            <g id="Clip-10"></g>
                            <polygon id="Fill-9" fill="#FFFFFF" mask="url(#mask-14)" points="-0.983050847 16.7118644 16.7118644 16.7118644 16.7118644 -0.983050847 -0.983050847 -0.983050847"></polygon>
                        </g>
                        <g id="Group-14" transform="translate(45.220339, 9.830508)">
                            <mask id="mask-16" fill="white">
                                <use xlink:href="#path-15"></use>
                            </mask>
                            <g id="Clip-13"></g>
                            <polygon id="Fill-12" fill="#F7CF00" mask="url(#mask-16)" points="0.655367232 8.13251156 8.51977401 8.13251156 8.51977401 -0.714946071 0.655367232 -0.714946071"></polygon>
                        </g>
                        <g id="Computer" transform="translate(5.898305, 12.681356)" fill-rule="nonzero">
                            <rect id="Rectangle" fill="#FFFFFF" x="0" y="0" width="20.6440678" height="2.94915254" rx="1.47457627"></rect>
                            <rect id="Rectangle" fill="#FFFFFF" x="0" y="4.77226502" width="12.779661" height="2.94915254" rx="1.47457627"></rect>
                            <rect id="Rectangle" fill="#F7CF00" x="0" y="15.9701079" width="4.91525424" height="4.91525424"></rect>
                            <rect id="Rectangle" fill="#F7CF00" x="8.84745763" y="11.0548536" width="4.91525424" height="9.83050847"></rect>
                            <rect id="Rectangle" fill="#F7CF00" x="17.6949153" y="6.13959938" width="4.91525424" height="14.7457627"></rect>
                        </g>
                    </g>
                    <g id="powerbi_icon" transform="translate(5.800000, 3.163636)" fill="#FFFFFF" fill-rule="nonzero">
                        <path d="M8.10659221,5.83758701 L7.92118052,5.83758701 L7.92118052,5.47422078 L8.10659221,5.47422078 C8.50012597,5.47354286 8.81942727,5.16068182 8.81976623,4.77494416 L8.81976623,1.06264286 C8.81942727,0.676566234 8.50012597,0.363705195 8.10659221,0.363366234 L1.0839974,0.363366234 C0.690124675,0.363705195 0.371162338,0.676566234 0.370484416,1.06264286 L0.370484416,4.77528312 C0.371162338,5.16102078 0.690124675,5.47388182 1.0839974,5.47455974 L1.26940909,5.47455974 L1.26940909,5.83792597 L1.0839974,5.83792597 C0.485392208,5.83690909 0.000677922078,5.36168571 0,4.77528312 L0,1.06264286 C0.000677922078,0.47624026 0.485731169,0.000677922078 1.0839974,0 L8.10659221,0 C8.70485844,0.000677922078 9.18991169,0.47624026 9.19058961,1.06264286 L9.19058961,4.77528312 C9.18991169,5.36168571 8.70485844,5.83724805 8.10659221,5.83792597" id="Shape"></path>
                        <path d="M2.22222857,4.62105584 C2.35577922,4.62105584 2.48356753,4.67291688 2.57813766,4.76545325 C2.67236883,4.85765065 2.72524675,4.98306623 2.72524675,5.11390519 L2.72524675,6.25111948 C2.72524675,6.52364416 2.50017662,6.74430779 2.22222857,6.74430779 C2.08867792,6.74430779 1.96088961,6.69244675 1.86631948,6.59991039 C1.77236041,6.50816947 1.71933103,6.38243851 1.71921039,6.25111948 L1.71921039,5.11424416 C1.71921039,4.84171948 1.94428052,4.62105584 2.22222857,4.62105584 L2.22222857,4.62105584 Z" id="Shape"></path>
                        <path d="M3.8044987,6.74430779 C3.52655065,6.74430779 3.30114156,6.52364416 3.30114156,6.25111948 L3.30114156,3.33266494 C3.30114156,3.0598013 3.52655065,2.83913766 3.8044987,2.83913766 C4.08244675,2.83913766 4.30751688,3.0598013 4.30751688,3.33232597 L4.30751688,6.25111948 C4.30751688,6.52364416 4.08210779,6.74430779 3.8044987,6.74464675" id="Shape"></path>
                        <path d="M6.96836104,6.73007143 C6.69041299,6.73007143 6.46534286,6.50906883 6.4650039,6.23688312 L6.4650039,2.10325325 C6.4650039,1.83106753 6.69041299,1.61006494 6.96836104,1.61006494 C7.24630909,1.61006494 7.47137922,1.83106753 7.47137922,2.10325325 L7.47137922,6.23688312 C7.47137922,6.50906883 7.24630909,6.73007143 6.96836104,6.73007143" id="Shape"></path>
                        <path d="M5.38609091,6.74430779 C5.10848182,6.74430779 4.88341169,6.52364416 4.88307273,6.25111948 L4.88307273,4.08278571 C4.88307273,3.8106 5.10848182,3.5895974 5.38642987,3.5895974 C5.66437792,3.5895974 5.88944805,3.8106 5.88944805,4.08278571 L5.88944805,6.25111948 C5.88944805,6.52364416 5.66403896,6.74430779 5.38642987,6.74464675" id="Shape"></path>
                    </g>
                </g>
                <path d="M24.5,51 C24.3118463,51.0010667 24.1310923,50.926802 23.9980494,50.7937592 C23.8650066,50.6607165 23.7907419,50.4799626 23.7918201,50.2918148 C23.7851724,45.8300995 20.169892,42.2148214 15.7081741,42.2081736 C15.3186263,42.2081799 15.0022133,41.8935649 15,41.5040237 C15,41.1129102 15.3170603,40.7958501 15.7081741,40.7958501 C20.1714606,40.7891973 23.7873884,37.1714717 23.7918201,32.7081852 C23.7907419,32.5200374 23.8650066,32.3392835 23.9980494,32.2062408 C24.1310923,32.073198 24.3118463,31.9989333 24.5,32 C24.6881421,31.9989333 24.8688961,32.073198 25.001939,32.2062408 C25.1349818,32.3392835 25.2092465,32.5200374 25.2081683,32.7081852 C25.214816,37.1699005 28.8300964,40.7851786 33.2918144,40.7918264 C33.4799623,40.7907481 33.6607163,40.8650128 33.7937591,40.9980555 C33.926802,41.1310983 34.0010667,41.3118522 34,41.5 C34.0010667,41.6881478 33.926802,41.8689017 33.7937591,42.0019445 C33.6607163,42.1349872 33.4799623,42.2092519 33.2918144,42.2081736 C28.8291787,42.2126097 25.2126043,45.8291818 25.2081683,50.2918148 C25.2059699,50.6820141 24.8901937,50.9977901 24.5,51 L24.5,51 Z" id="Path" fill="#FFFFFF" fill-rule="nonzero"></path>
            </g>
        </g>
    </g>
</svg>