<svg width="100" height="100" viewBox="0 0 100 100" fill="none" xmlns="http://www.w3.org/2000/svg">
<g clip-path="url(#clip0)">
<path d="M49.6401 96.4501C40.382 96.4501 31.3317 93.7047 23.6339 88.5612C15.936 83.4176 9.93624 76.1069 6.3933 67.5535C2.85036 59.0001 1.92337 49.5882 3.72954 40.5079C5.53571 31.4277 9.99394 23.0869 16.5404 16.5404C23.0869 9.99393 31.4277 5.53571 40.5079 3.72954C49.5882 1.92337 59.0001 2.85036 67.5535 6.3933C76.1069 9.93624 83.4176 15.936 88.5612 23.6339C93.7047 31.3317 96.4501 40.382 96.4501 49.6401C96.4505 55.7874 95.24 61.8746 92.8878 67.554C90.5355 73.2335 87.0875 78.3939 82.7407 82.7407C78.3939 87.0875 73.2335 90.5355 67.554 92.8878C61.8746 95.24 55.7874 96.4505 49.6401 96.4501V96.4501Z" fill="url(#paint0_linear)"/>
<path fill-rule="evenodd" clip-rule="evenodd" d="M95.54 49.64C95.54 58.7182 92.848 67.5925 87.8045 75.1407C82.7609 82.6889 75.5923 88.572 67.2052 92.0461C58.818 95.5201 49.5891 96.4291 40.6854 94.658C31.7816 92.887 23.603 88.5154 17.1838 82.0962C10.7646 75.677 6.39302 67.4984 4.62196 58.5946C2.85089 49.6909 3.75987 40.462 7.23393 32.0748C10.708 23.6877 16.5911 16.5191 24.1393 11.4755C31.6875 6.43199 40.5618 3.74 49.64 3.74C55.6677 3.73998 61.6363 4.9272 67.2052 7.23388C72.774 9.54057 77.834 12.9215 82.0963 17.1837C86.3585 21.446 89.7394 26.5059 92.0461 32.0748C94.3528 37.6437 95.54 43.6123 95.54 49.64V49.64ZM49.64 3.62732e-07C59.4579 3.62732e-07 69.0553 2.91134 77.2185 8.36585C85.3818 13.8204 91.7442 21.5731 95.5014 30.6436C99.2585 39.7141 100.242 49.6951 98.3262 59.3243C96.4108 68.9535 91.6831 77.7985 84.7408 84.7408C77.7985 91.6831 68.9535 96.4108 59.3243 98.3262C49.6951 100.242 39.7141 99.2585 30.6436 95.5014C21.5731 91.7442 13.8204 85.3818 8.36585 77.2185C2.91134 69.0553 3.62732e-07 59.4579 3.62732e-07 49.64C-0.000787738 43.121 1.28265 36.6656 3.77702 30.6427C6.27138 24.6197 9.9278 19.1471 14.5375 14.5375C19.1471 9.9278 24.6197 6.27138 30.6427 3.77702C36.6656 1.28265 43.121 -0.000787738 49.64 3.62732e-07V3.62732e-07Z" fill="#F2F1F0"/>
<path fill-rule="evenodd" clip-rule="evenodd" d="M92.7296 49.6406C92.7296 58.163 90.2024 66.494 85.4676 73.5801C80.7328 80.6662 74.0031 86.1892 66.1294 89.4505C58.2557 92.7119 49.5918 93.5653 41.2331 91.9026C32.8745 90.24 25.1966 86.1361 19.1703 80.1098C13.1441 74.0836 9.04017 66.4057 7.37753 58.047C5.7149 49.6884 6.56822 41.0244 9.8296 33.1507C13.091 25.2771 18.6139 18.5473 25.7 13.8126C32.7862 9.07776 41.1172 6.55058 49.6396 6.55058C55.2983 6.55023 60.9017 7.66455 66.1298 9.82991C71.3579 11.9953 76.1082 15.1692 80.1096 19.1706C84.1109 23.1719 87.2849 27.9223 89.4502 33.1503C91.6156 38.3784 92.7299 43.9818 92.7296 49.6406V49.6406ZM49.6396 2.81058C58.9017 2.81058 67.9558 5.55711 75.6569 10.7029C83.3581 15.8486 89.3604 23.1624 92.9049 31.7195C96.4493 40.2766 97.3767 49.6925 95.5697 58.7767C93.7628 67.8608 89.3027 76.2051 82.7534 82.7544C76.2041 89.3037 67.8598 93.7638 58.7757 95.5708C49.6915 97.3777 40.2756 96.4503 31.7185 92.9059C23.1614 89.3614 15.8476 83.3591 10.7018 75.6579C5.5561 67.9568 2.80957 58.9027 2.80957 49.6406C2.81076 37.2209 7.745 25.3101 16.5271 16.5281C25.3091 7.74599 37.2198 2.81174 49.6396 2.81055V2.81058Z" fill="#0078D4"/>
<path opacity="0.2" d="M26.4692 71.5463H72.8105C73.054 71.5456 73.2873 71.4486 73.4594 71.2764C73.6316 71.1043 73.7286 70.871 73.7293 70.6275V34.4473H25.5503V70.6275C25.551 70.871 25.648 71.1043 25.8202 71.2764C25.9924 71.4486 26.2257 71.5456 26.4692 71.5463Z" fill="#003067"/>
<path d="M26.4692 69.6558H72.8105C73.054 69.655 73.2873 69.558 73.4594 69.3858C73.6316 69.2137 73.7286 68.9804 73.7293 68.7369V32.5566H25.5503V68.7369C25.551 68.9803 25.648 69.2137 25.8202 69.3858C25.9924 69.558 26.2257 69.655 26.4692 69.6558Z" fill="#F2F2F2"/>
<path d="M25.5503 36.5602H73.7293V32.2416C73.7296 32.149 73.7115 32.0573 73.6762 31.9717C73.6409 31.8861 73.589 31.8084 73.5236 31.7429C73.4581 31.6774 73.3803 31.6256 73.2948 31.5902C73.2092 31.5549 73.1175 31.5369 73.0249 31.5371H26.2548C26.1622 31.5369 26.0705 31.5549 25.9849 31.5902C25.8993 31.6256 25.8215 31.6774 25.7561 31.7429C25.6906 31.8084 25.6387 31.8861 25.6034 31.9717C25.5681 32.0573 25.5501 32.149 25.5503 32.2416V36.5602Z" fill="#092E4C"/>
<path d="M29.2564 35.3743C29.498 35.3735 29.7339 35.3012 29.9343 35.1663C30.1348 35.0315 30.2907 34.8403 30.3824 34.6168C30.4742 34.3934 30.4976 34.1477 30.4497 33.9109C30.4019 33.6742 30.2849 33.4569 30.1135 33.2867C29.9422 33.1164 29.7242 33.0008 29.4871 32.9544C29.2501 32.908 29.0046 32.9329 28.7817 33.0261C28.5588 33.1192 28.3686 33.2764 28.235 33.4776C28.1014 33.6789 28.0305 33.9152 28.0313 34.1568C28.03 34.3177 28.0608 34.4772 28.122 34.626C28.1832 34.7748 28.2735 34.9099 28.3877 35.0233C28.5018 35.1368 28.6375 35.2262 28.7866 35.2865C28.9358 35.3468 29.0956 35.3766 29.2564 35.3743V35.3743Z" fill="#50E6FF"/>
<path d="M69.4585 39.6699H29.8116C29.2892 39.6699 28.8657 40.0934 28.8657 40.6158V65.2621C28.8657 65.7844 29.2892 66.2079 29.8116 66.2079H69.4585C69.9809 66.2079 70.4044 65.7844 70.4044 65.2621V40.6158C70.4044 40.0934 69.9809 39.6699 69.4585 39.6699Z" fill="#E8E8E8"/>
<path d="M46.9278 48.207V56.9068H43.6219C43.0506 56.9068 42.485 56.7943 41.9572 56.5757C41.4295 56.3571 40.95 56.0367 40.546 55.6328C40.1421 55.2288 39.8217 54.7493 39.6031 54.2215C39.3845 53.6938 39.272 53.1282 39.272 52.5569V52.5569C39.272 51.4033 39.7303 50.2969 40.546 49.4811C41.3618 48.6653 42.4682 48.207 43.6219 48.207L46.9278 48.207Z" fill="white"/>
<path d="M47.4244 48.0147C47.4244 47.4392 46.9579 46.9727 46.3824 46.9727C45.8069 46.9727 45.3403 47.4392 45.3403 48.0147V57.141C45.3403 57.7165 45.8069 58.183 46.3824 58.183C46.9579 58.183 47.4244 57.7165 47.4244 57.141V48.0147Z" fill="white"/>
<path d="M52.5342 56.9478V48.248H55.8401C56.9938 48.248 58.1002 48.7063 58.9159 49.5221C59.7317 50.3379 60.19 51.4443 60.19 52.5979V52.5979C60.19 53.7516 59.7317 54.858 58.9159 55.6738C58.1002 56.4895 56.9938 56.9478 55.8401 56.9478H52.5342Z" fill="white"/>
<path d="M54.1222 48.0147C54.1222 47.4392 53.6556 46.9727 53.0801 46.9727C52.5046 46.9727 52.0381 47.4392 52.0381 48.0147V57.141C52.0381 57.7165 52.5046 58.183 53.0801 58.183C53.6556 58.183 54.1222 57.7165 54.1222 57.141V48.0147Z" fill="white"/>
<path d="M49.9319 49.5977H47.4243V51.5419H49.9319V49.5977Z" fill="white"/>
<path d="M39.4168 51.6055H36.9092V53.5497H39.4168V51.6055Z" fill="white"/>
<path d="M62.3709 51.6055H59.8633V53.5497H62.3709V51.6055Z" fill="white"/>
<path d="M49.9319 53.5703H47.4243V55.5146H49.9319V53.5703Z" fill="white"/>
<path opacity="0.2" d="M73.7294 38.1907H70.273C69.6353 38.19 69.0141 38.3937 68.5005 38.7717V33.9744C69.0141 34.3525 69.6353 34.5561 70.273 34.5554H73.7294V31.5371H63.5005V33.8734H63.4683V31.5371H25.5503V46.1214H59.4683C60.5288 46.1203 61.5456 45.6985 62.2955 44.9486C63.0454 44.1987 63.4672 43.1819 63.4683 42.1214V38.8734H63.5005V44.6478C63.5012 45.3106 63.7648 45.9461 64.2335 46.4148C64.7022 46.8835 65.3377 47.1471 66.0005 47.1478H67.273V48.1044C67.2738 48.8997 67.5902 49.6623 68.1526 50.2247C68.715 50.7871 69.4776 51.1035 70.273 51.1044H73.7294V38.1907Z" fill="#767676"/>
<path d="M59.4679 28.625H22.9404C21.8359 28.625 20.9404 29.5204 20.9404 30.625V42.1212C20.9404 43.2258 21.8359 44.1212 22.9404 44.1212H59.4679C60.5725 44.1212 61.4679 43.2258 61.4679 42.1212V30.625C61.4679 29.5204 60.5725 28.625 59.4679 28.625Z" fill="white"/>
<path d="M31.9951 31.7324H24.7129C24.1606 31.7324 23.7129 32.1801 23.7129 32.7324V40.0146C23.7129 40.5669 24.1606 41.0146 24.7129 41.0146H31.9951C32.5474 41.0146 32.9951 40.5669 32.9951 40.0146V32.7324C32.9951 32.1801 32.5474 31.7324 31.9951 31.7324Z" fill="#0078D4"/>
<path d="M28.3539 38.863C29.7286 38.863 30.843 37.7486 30.843 36.3739C30.843 34.9992 29.7286 33.8848 28.3539 33.8848C26.9792 33.8848 25.8647 34.9992 25.8647 36.3739C25.8647 37.7486 26.9792 38.863 28.3539 38.863Z" fill="white"/>
<path d="M36.3726 33.8848H53.6896" stroke="#E8E8E8" stroke-miterlimit="10" stroke-linecap="round"/>
<path d="M36.3726 36.373H55.5377" stroke="#E8E8E8" stroke-miterlimit="10" stroke-linecap="round"/>
<path d="M36.3726 38.8633H51.294" stroke="#E8E8E8" stroke-miterlimit="10" stroke-linecap="round"/>
<path d="M61.4678 36.3746H65.9998V28.0996H69.8138" stroke="white" stroke-linecap="round" stroke-linejoin="round"/>
<path d="M61.4678 36.373H65.9998V44.647H69.8138" stroke="white" stroke-linecap="round" stroke-linejoin="round"/>
<path d="M77.186 23.6426H70.2725C69.7202 23.6426 69.2725 24.0903 69.2725 24.6426V31.5562C69.2725 32.1084 69.7202 32.5562 70.2725 32.5562H77.186C77.7383 32.5562 78.186 32.1084 78.186 31.5562V24.6426C78.186 24.0903 77.7383 23.6426 77.186 23.6426Z" fill="white"/>
<path d="M77.186 40.1914H70.2725C69.7202 40.1914 69.2725 40.6391 69.2725 41.1914V48.105C69.2725 48.6573 69.7202 49.105 70.2725 49.105H77.186C77.7383 49.105 78.186 48.6573 78.186 48.105V41.1914C78.186 40.6391 77.7383 40.1914 77.186 40.1914Z" fill="white"/>
<path d="M73.7292 30.3197C74.9555 30.3197 75.9496 29.3256 75.9496 28.0993C75.9496 26.873 74.9555 25.8789 73.7292 25.8789C72.5029 25.8789 71.5088 26.873 71.5088 28.0993C71.5088 29.3256 72.5029 30.3197 73.7292 30.3197Z" fill="#0078D4"/>
<path d="M73.7292 46.8686C74.9555 46.8686 75.9496 45.8745 75.9496 44.6482C75.9496 43.4218 74.9555 42.4277 73.7292 42.4277C72.5029 42.4277 71.5088 43.4218 71.5088 44.6482C71.5088 45.8745 72.5029 46.8686 73.7292 46.8686Z" fill="#E8E8E8"/>
</g>
<defs>
<linearGradient id="paint0_linear" x1="47.8697" y1="-15.153" x2="51.8525" y2="130.615" gradientUnits="userSpaceOnUse">
<stop stop-color="#00ABDE"/>
<stop offset="1" stop-color="#007ED8"/>
</linearGradient>
<clipPath id="clip0">
<rect width="99.2799" height="99.28" fill="white"/>
</clipPath>
</defs>
</svg>
