<svg width="180" height="190" viewBox="0 0 180 190" fill="none" xmlns="http://www.w3.org/2000/svg">
<path d="M90 189C93.06 189 96.07 188.15 98.73 186.53L160.7 148.87C166.24 145.5 169.67 139.17 169.67 132.33V57.6201C169.67 50.8001 166.24 44.4601 160.7 41.0801L98.73 3.42006C93.4 0.180064 86.58 0.200064 81.28 3.42006L19.31 41.1001C13.77 44.4701 10.32 50.8001 10.32 57.6401V132.34C10.32 138.1 12.77 143.52 16.87 147.09V147.12L81.28 186.55C83.92 188.15 86.94 189 90 189ZM90.65 7.95006C92.6 7.95006 95.08 9.16006 96.79 10.2101L157.55 47.4001C161.3 49.6801 163.42 56.2801 163.42 61.0301L162.79 132.33C162.79 137.08 159.59 141.35 155.84 143.63L95.44 180.01C92.01 182.1 89.22 182.1 85.78 180.01L24.57 143.54C20.82 141.26 17.8 137.06 17.8 132.33V58.6901C17.8 53.9501 20.53 49.0601 24.3 46.7701L84.88 10.2101C86.58 9.17006 88.7 7.95006 90.65 7.95006Z" fill="#F2F1F0"/>
<path fill-rule="evenodd" clip-rule="evenodd" d="M97.9 11.55C95.45 10.05 92.73 9.30005 90 9.30005C87.27 9.30005 84.55 10.06 82.1 11.55L25.97 45.8801C20.95 48.9501 17.84 54.7001 17.84 60.9501V129.05C17.84 135.28 20.94 141.05 25.97 144.12L82.1 178.45C84.55 179.95 87.27 180.7 90 180.7C92.73 180.7 95.45 179.96 97.9 178.45L154.03 144.12C159.05 141.05 162.16 135.28 162.16 129.05V60.9501C162.16 54.7201 159.06 48.9701 154.03 45.8801L97.9 11.55Z" fill="url(#paint0_linear)"/>
<path d="M75.25 35.4L81.5 31.78L115.72 51.52L109.47 55.14L75.25 35.4Z" fill="#EBEBEB"/>
<path d="M50.79 52.2899L57.04 48.6699L91.26 68.4099L85.01 72.0299L50.79 52.2899Z" fill="#EBEBEB"/>
<path fill-rule="evenodd" clip-rule="evenodd" d="M90.01 10.8601C91.69 10.8601 93.58 11.7301 95.64 12.9801L154.11 48.5201C157.76 50.7401 160.17 55.0101 160.17 59.8401V130.32C160.17 135.14 157.76 139.42 154.11 141.64L95.65 177.18C93.69 178.37 91.77 179.12 90.02 179.12C88.27 179.12 86.35 178.37 84.39 177.18L25.9 141.66C23.89 140.43 22.44 139.23 21.46 137.62C20.48 136.02 19.84 133.8 19.84 130.34V59.8501C19.84 55.0201 22.25 50.7501 25.9 48.5301L84.36 12.9901C86.46 11.7401 88.32 10.8601 90.01 10.8601ZM97.72 180.62L156.18 145.08C161.1 142.09 164.16 136.47 164.16 130.34V59.8501C164.16 53.7201 161.1 48.1001 156.18 45.1101L97.72 9.58012C95.61 8.30012 92.9 6.87012 90.01 6.87012C87.11 6.87012 84.4 8.31012 82.31 9.57012H82.3L23.82 45.1101C18.9 48.1001 15.84 53.7201 15.84 59.8501V130.33C15.84 134.29 16.58 137.28 18.04 139.69C19.5 142.09 21.56 143.69 23.82 145.06L82.28 180.6C84.5 181.95 87.17 183.13 89.99 183.13C92.81 183.13 95.5 181.97 97.72 180.62Z" fill="url(#paint1_linear)"/>
<path opacity="0.15" d="M89 125.11L95.25 121.49L129.47 141.23L123.22 144.85L89 125.11Z" fill="#1F1D20"/>
<path opacity="0.15" d="M50.65 134.72L56.9 131.1L105.29 158.26L99.04 161.88L50.65 134.72Z" fill="#1F1D20"/>
<path d="M109.36 69.8299L123.07 77.7299L122.96 141.34L75.03 113.7L75.25 35.3999L109.47 55.1399L109.36 69.8299Z" fill="#DBDBDB"/>
<path d="M111.77 77.62V81.57L84.02 65.55V61.5L111.77 77.62Z" fill="#7F7F7D"/>
<path d="M111.77 85.2899V89.2399L84.02 73.2299V69.1699L111.77 85.2899Z" fill="#7F7F7D"/>
<path d="M111.77 92.6399V96.6999L84.02 80.5799V76.6299L111.77 92.6399Z" fill="#7F7F7D"/>
<path d="M111.77 100.76V104.82L84.02 88.6899V84.6299L111.77 100.76Z" fill="#7F7F7D"/>
<path d="M111.77 108.22V112.17L84.02 96.0398V92.0898L111.77 108.22Z" fill="#7F7F7D"/>
<path d="M109.47 55.14L115.72 51.52V66.22L109.36 69.84L109.47 55.14Z" fill="#0078D4"/>
<path d="M109.47 55.14L115.72 51.52L129.43 74.11L123.07 77.73L109.47 55.14Z" fill="#B7B7B7"/>
<path d="M123.06 77.7299L129.42 74.1099L129.2 137.72L122.95 141.34L123.06 77.7299Z" fill="#9B9BA0"/>
<path d="M109.47 55.1399L123.07 77.7299L109.36 69.8299L109.47 55.1399Z" fill="#7F7F7D"/>
<path d="M84.9 86.7198L98.61 94.6198L98.5 158.23L50.58 130.59L50.8 52.2898L85.02 72.0298L84.9 86.7198Z" fill="white"/>
<path d="M85.01 72.0199L91.26 68.3999L91.15 83.0999L84.9 86.7199L85.01 72.0199Z" fill="#0078D4"/>
<path d="M50.79 52.2899L57.04 48.6699L91.26 68.4099L85.01 72.0299L50.79 52.2899Z" fill="#EBEBEB"/>
<path d="M85.01 72.0199L91.26 68.3999L104.86 90.9999L98.61 94.6199L85.01 72.0199Z" fill="#E2E2E2"/>
<path d="M98.61 94.62L104.86 91L104.75 154.61L98.5 158.23L98.61 94.62Z" fill="#CDCDD0"/>
<path d="M85.01 72.02L98.61 94.61L84.9 86.71L85.01 72.02Z" fill="#CDCDD0"/>
<g opacity="0.3">
<path opacity="0.4" d="M86.14 130.96L65.55 118.96L62.38 120.39C62.06 120.53 62.04 120.99 62.34 121.17L82.2 132.7C82.76 133.02 83.44 133.02 84 132.7L86.14 131.43C86.29 131.32 86.34 131.06 86.14 130.96Z" fill="#1F1D20"/>
</g>
<path d="M73.58 101.33L73.6 94.7099C73.6 93.5599 74.42 93.0899 75.42 93.6699L82.93 97.9999C83.94 98.5799 84.74 99.9899 84.74 101.14L84.66 131.1C84.66 132.25 83.83 132.72 82.84 132.14L75 127.62C74.09 127.09 73.52 126.12 73.52 125.05L73.58 101.33Z" fill="url(#paint2_linear)"/>
<path d="M84.61 97.0199L77.1 92.6999C76.59 92.3999 76.14 92.3799 75.81 92.5699L74.12 93.5499C74.45 93.3599 74.91 93.3799 75.41 93.6799L82.92 98.0099C83.93 98.5899 84.73 99.9999 84.73 101.15L84.65 131.11C84.65 131.68 84.45 132.09 84.12 132.28L85.81 131.3C86.14 131.11 86.34 130.71 86.34 130.13L86.42 100.17C86.44 99.0099 85.62 97.5999 84.61 97.0199Z" fill="url(#paint3_linear)"/>
<path d="M76.24 102.78C77.12 103.29 77.82 104.51 77.82 105.52L77.76 127.3C77.76 128.32 77.05 128.72 76.17 128.21L72.89 126.32L66.61 122.7L69.7 124.49C70.84 125.15 71.77 124.62 71.77 123.32L66.65 114.77L66.67 99.1098C66.67 98.0998 67.38 97.6998 68.26 98.2098L72.95 100.92L76.24 102.78Z" fill="url(#paint4_linear)"/>
<path d="M77.93 101.79L74.65 99.8998L69.96 97.1898C69.52 96.9298 69.12 96.9198 68.83 97.0698L67.14 98.0498C67.42 97.8798 67.83 97.9098 68.27 98.1698L72.96 100.88L76.24 102.77C77.12 103.28 77.82 104.5 77.82 105.51L77.76 127.29C77.76 127.8 77.58 128.15 77.3 128.31L78.99 127.33C79.27 127.16 79.45 126.81 79.45 126.31L79.51 104.53C79.51 103.52 78.8 102.29 77.93 101.79Z" fill="url(#paint5_linear)"/>
<path d="M66.61 122.68L68.3 121.7L71.39 123.49L69.7 124.47L66.61 122.68Z" fill="#4CC8EF"/>
<path d="M72.86 123.63L71.17 124.61C70.79 124.84 70.27 124.8 69.7 124.47L71.39 123.49C71.96 123.82 72.49 123.86 72.86 123.63Z" fill="#4CC8EF"/>
<path d="M71.44 106.43L68.35 104.64L64.43 102.38C63.86 102.05 63.34 102.01 62.96 102.24L61.27 103.22C61.65 102.99 62.17 103.03 62.74 103.36L66.66 105.62L69.75 107.41C70.89 108.07 71.81 109.67 71.81 110.97L71.77 123.29C71.77 123.94 71.53 124.4 71.17 124.62L72.86 123.64C73.23 123.43 73.46 122.96 73.46 122.31L73.5 110C73.52 108.69 72.59 107.09 71.44 106.43Z" fill="url(#paint6_linear)"/>
<path d="M69.76 107.41C70.9 108.07 71.82 109.67 71.82 110.97L71.78 123.29C71.77 124.6 70.84 125.13 69.71 124.46L66.62 122.67L62.7 120.41C61.56 119.75 60.64 118.16 60.64 116.85L60.68 104.53C60.68 103.22 61.62 102.69 62.75 103.35L66.67 105.61L69.76 107.41Z" fill="url(#paint7_linear)"/>
<defs>
<linearGradient id="paint0_linear" x1="89.9998" y1="9.29985" x2="89.9998" y2="180.7" gradientUnits="userSpaceOnUse">
<stop stop-color="#00ABDE"/>
<stop offset="1" stop-color="#007ED8"/>
</linearGradient>
<linearGradient id="paint1_linear" x1="36.1246" y1="4.18662" x2="202.802" y2="286.518" gradientUnits="userSpaceOnUse">
<stop stop-color="#007ED8"/>
<stop offset="0.7065" stop-color="#002D4C"/>
</linearGradient>
<linearGradient id="paint2_linear" x1="76.1854" y1="94.7635" x2="82.0759" y2="131.466" gradientUnits="userSpaceOnUse">
<stop offset="0.00753769" stop-color="#E0A310"/>
<stop offset="1" stop-color="#CA810E"/>
</linearGradient>
<linearGradient id="paint3_linear" x1="66.5866" y1="81.0223" x2="94.5665" y2="133.132" gradientUnits="userSpaceOnUse">
<stop offset="0.2739" stop-color="#EFC433"/>
<stop offset="0.691" stop-color="#E0A310"/>
<stop offset="1" stop-color="#CA810E"/>
</linearGradient>
<linearGradient id="paint4_linear" x1="73.7653" y1="94.6414" x2="71.2731" y2="124.547" gradientUnits="userSpaceOnUse">
<stop offset="0.00753769" stop-color="#F2CC40"/>
<stop offset="1" stop-color="#E7B116"/>
</linearGradient>
<linearGradient id="paint5_linear" x1="67.4682" y1="98.6863" x2="92.7861" y2="138.787" gradientUnits="userSpaceOnUse">
<stop offset="0.0528" stop-color="#F6D856"/>
<stop offset="0.4447" stop-color="#EFC433"/>
<stop offset="0.8216" stop-color="#E0A310"/>
<stop offset="1" stop-color="#CA810E"/>
</linearGradient>
<linearGradient id="paint6_linear" x1="53.4673" y1="99.9725" x2="75.2169" y2="118.89" gradientUnits="userSpaceOnUse">
<stop offset="0.1181" stop-color="#F6EECF"/>
<stop offset="0.6156" stop-color="#F6D856"/>
<stop offset="1" stop-color="#EFC433"/>
</linearGradient>
<linearGradient id="paint7_linear" x1="67.2594" y1="104.512" x2="65.6734" y2="119.012" gradientUnits="userSpaceOnUse">
<stop stop-color="#F8E17B"/>
<stop offset="0.5302" stop-color="#F6D856"/>
<stop offset="1" stop-color="#F6D856"/>
</linearGradient>
</defs>
</svg>
