<svg width="103" height="103" viewBox="0 0 103 103" fill="none" xmlns="http://www.w3.org/2000/svg">
<path d="M51.9767 98.3363C26.1267 98.3363 5.16675 77.3863 5.16675 51.5263C5.16675 25.6663 26.1267 4.71631 51.9767 4.71631C77.8267 4.71631 98.7867 25.6763 98.7867 51.5263C98.7867 77.3763 77.8267 98.3363 51.9767 98.3363Z" fill="#F9E488"/>
<path fill-rule="evenodd" clip-rule="evenodd" d="M51.9768 1.52637C79.5868 1.52637 101.977 23.9164 101.977 51.5264C101.977 79.1364 79.5868 101.526 51.9768 101.526C24.3668 101.526 1.97681 79.1364 1.97681 51.5264C1.97681 23.9164 24.3668 1.52637 51.9768 1.52637ZM51.9768 97.2864C77.2468 97.2864 97.7368 76.7964 97.7368 51.5264C97.7368 26.2564 77.2468 5.76637 51.9768 5.76637C26.7068 5.76637 6.21681 26.2564 6.21681 51.5264C6.21681 76.7964 26.7068 97.2864 51.9768 97.2864Z" fill="#D9D9D9"/>
<path fill-rule="evenodd" clip-rule="evenodd" d="M97.8767 51.5262C97.8767 76.8762 77.3267 97.4262 51.9767 97.4262C26.6267 97.4262 6.07667 76.8762 6.07667 51.5262C6.07667 26.1762 26.6267 5.62623 51.9767 5.62623C77.3267 5.62623 97.8767 26.1762 97.8767 51.5262ZM51.9767 1.88623C79.3967 1.88623 101.617 24.1062 101.617 51.5262C101.617 78.9462 79.3867 101.166 51.9767 101.166C24.5567 101.166 2.33667 78.9362 2.33667 51.5262C2.33667 24.1062 24.5567 1.88623 51.9767 1.88623Z" fill="#F2F1F0"/>
<path fill-rule="evenodd" clip-rule="evenodd" d="M95.0667 51.5263C95.0667 75.3263 75.7767 94.6163 51.9767 94.6163C28.1767 94.6163 8.88673 75.3263 8.88673 51.5263C8.88673 27.7263 28.1767 8.43629 51.9767 8.43629C75.7767 8.43629 95.0667 27.7263 95.0667 51.5263ZM51.9767 4.69629C77.8367 4.69629 98.8067 25.6663 98.8067 51.5263C98.8067 77.3863 77.8367 98.3563 51.9767 98.3563C26.1167 98.3563 5.14673 77.3863 5.14673 51.5263C5.14673 25.6663 26.1067 4.69629 51.9767 4.69629Z" fill="#F3C900"/>
<path d="M78.9668 76.5166C78.6568 76.5166 78.4068 76.2666 78.4068 75.9566C78.4068 72.4366 75.5468 69.5766 72.0268 69.5766C71.7168 69.5766 71.4668 69.3266 71.4668 69.0166C71.4668 68.8666 71.5268 68.7266 71.6268 68.6166C71.7268 68.5066 71.8768 68.4566 72.0268 68.4566C75.5468 68.4566 78.4068 65.5966 78.4068 62.0766C78.4068 61.7666 78.6568 61.5166 78.9668 61.5166C79.2768 61.5166 79.5268 61.7666 79.5268 62.0766C79.5268 65.5966 82.3868 68.4566 85.9068 68.4566C86.2168 68.4566 86.4668 68.7066 86.4668 69.0166C86.4668 69.3266 86.2168 69.5766 85.9068 69.5766C82.3868 69.5766 79.5268 72.4366 79.5268 75.9566C79.5268 76.2666 79.2768 76.5166 78.9668 76.5166Z" fill="white"/>
<path d="M63.4969 77.2065C57.5669 76.2565 57.3269 71.9065 57.3269 64.8765H45.5669C45.5669 71.9065 45.3669 76.2565 39.4369 77.2065C37.7369 77.3965 36.4569 78.8665 36.4669 80.6065H66.4669C66.4769 78.8665 65.1969 77.3965 63.4969 77.2065Z" fill="url(#paint0_linear)"/>
<mask id="mask0" mask-type="alpha" maskUnits="userSpaceOnUse" x="22" y="27" width="59" height="39">
<path fill-rule="evenodd" clip-rule="evenodd" d="M22.4668 27.5566H80.3768V65.7666H22.4668V27.5566Z" fill="white"/>
</mask>
<g mask="url(#mask0)">
<path fill-rule="evenodd" clip-rule="evenodd" d="M78.4568 27.5566C79.5168 27.5566 80.3768 28.4066 80.3768 29.4566V63.8666C80.3768 64.9166 79.5168 65.7666 78.4568 65.7666H24.3868C23.3268 65.7666 22.4668 64.9166 22.4668 63.8666V29.4566C22.4668 28.4066 23.3268 27.5566 24.3868 27.5566H78.4568Z" fill="url(#paint1_linear)"/>
<path d="M26.4167 30.5767H39.0867C39.6667 30.5767 40.1367 31.0467 40.1367 31.6267C40.1367 32.2067 39.6667 32.6767 39.0867 32.6767H26.4167C25.8367 32.6767 25.3667 32.2067 25.3667 31.6267C25.3667 31.0467 25.8367 30.5767 26.4167 30.5767Z" fill="white"/>
<path d="M26.4167 34.9868H33.4567C34.0367 34.9868 34.5067 35.4568 34.5067 36.0368C34.5067 36.6168 34.0367 37.0868 33.4567 37.0868H26.4167C25.8367 37.0868 25.3667 36.6168 25.3667 36.0368C25.3667 35.4568 25.8367 34.9868 26.4167 34.9868Z" fill="white"/>
<path fill-rule="evenodd" clip-rule="evenodd" d="M64.7869 35.2368C64.7669 35.2368 64.7569 35.2368 64.7369 35.2368C60.3569 35.2368 56.7969 38.7868 56.7969 43.1768C56.7969 47.5668 60.3469 51.1168 64.7369 51.1168C69.1269 51.1168 72.6769 47.5668 72.6769 43.1768C72.6769 43.1468 72.6769 43.1168 72.6769 43.0868H64.7869V35.2368Z" fill="white"/>
<path fill-rule="evenodd" clip-rule="evenodd" d="M67.3867 32.3965V40.2365H75.2767C75.2267 35.9165 71.7167 32.4265 67.3867 32.3965Z" fill="#F7CF00"/>
<path d="M46.5167 60.7563H38.5867V37.0163C38.5867 36.1663 39.2767 35.4663 40.1367 35.4663H46.5267C47.3767 35.4663 48.0767 36.1563 48.0767 37.0163V59.2063C48.0667 60.0563 47.3767 60.7563 46.5167 60.7563Z" fill="url(#paint2_linear)"/>
<path d="M41.3868 60.7563H33.2568V43.2763C33.2568 42.5363 33.8568 41.9263 34.6068 41.9263H41.3868C42.1268 41.9263 42.7368 42.5263 42.7368 43.2763V59.4063C42.7368 60.1463 42.1268 60.7563 41.3868 60.7563Z" fill="url(#paint3_linear)"/>
<path d="M35.8867 60.7562H29.9167C28.9467 60.7562 28.1567 59.9662 28.1567 58.9962V49.8762C28.1567 48.9062 28.9467 48.1162 29.9167 48.1162H35.8867C36.8567 48.1162 37.6467 48.9062 37.6467 49.8762V58.9962C37.6367 59.9662 36.8567 60.7562 35.8867 60.7562Z" fill="url(#paint4_linear)"/>
<path d="M19.9668 52.5166C19.7768 52.5166 19.5968 52.4466 19.4668 52.3066C19.3368 52.1766 19.2568 51.9966 19.2568 51.8066C19.2468 47.3466 15.6368 43.7266 11.1768 43.7266C10.7868 43.7266 10.4668 43.4166 10.4668 43.0266C10.4668 42.6366 10.7868 42.3166 11.1768 42.3166C15.6368 42.3066 19.2568 38.6966 19.2568 34.2266C19.2568 34.0366 19.3268 33.8566 19.4668 33.7266C19.5968 33.5966 19.7768 33.5166 19.9668 33.5166C20.1568 33.5166 20.3368 33.5866 20.4668 33.7266C20.5968 33.8566 20.6768 34.0366 20.6768 34.2266C20.6868 38.6866 24.2968 42.3066 28.7568 42.3066C28.9468 42.3066 29.1268 42.3766 29.2568 42.5166C29.3868 42.6466 29.4668 42.8266 29.4668 43.0166C29.4668 43.2066 29.3968 43.3866 29.2568 43.5166C29.1268 43.6466 28.9468 43.7266 28.7568 43.7266C24.2968 43.7266 20.6768 47.3466 20.6768 51.8066C20.6768 52.1966 20.3568 52.5166 19.9668 52.5166Z" fill="white"/>
</g>
<defs>
<linearGradient id="paint0_linear" x1="51.467" y1="80.6061" x2="51.467" y2="64.8761" gradientUnits="userSpaceOnUse">
<stop offset="0.15" stop-color="#CCCCCC"/>
<stop offset="1" stop-color="#707070"/>
</linearGradient>
<linearGradient id="paint1_linear" x1="51.4218" y1="27.802" x2="51.4218" y2="65.7571" gradientUnits="userSpaceOnUse">
<stop stop-color="#6A6A6A"/>
<stop offset="1" stop-color="#343333"/>
</linearGradient>
<linearGradient id="paint2_linear" x1="43.2214" y1="37.7817" x2="43.4231" y2="58.7597" gradientUnits="userSpaceOnUse">
<stop offset="0.00753769" stop-color="#E0A310"/>
<stop offset="1" stop-color="#CA810E"/>
</linearGradient>
<linearGradient id="paint3_linear" x1="37.7347" y1="42.6571" x2="38.3398" y2="64.8456" gradientUnits="userSpaceOnUse">
<stop offset="0.00753769" stop-color="#F2CC40"/>
<stop offset="1" stop-color="#E7B116"/>
</linearGradient>
<linearGradient id="paint4_linear" x1="32.6758" y1="49.0901" x2="33.2809" y2="63.4119" gradientUnits="userSpaceOnUse">
<stop stop-color="#F8E17B"/>
<stop offset="0.5302" stop-color="#F6D856"/>
<stop offset="1" stop-color="#F6D856"/>
</linearGradient>
</defs>
</svg>
