<?xml version="1.0" encoding="UTF-8"?>
<svg width="100px" height="118px" viewBox="0 0 100 118" version="1.1" xmlns="http://www.w3.org/2000/svg" xmlns:xlink="http://www.w3.org/1999/xlink">
    <!-- Generator: Sketch 55.2 (78181) - https://sketchapp.com -->
    <title>Create Reports with Power BI Desktop/create-reports-with-power-bi-desktop</title>
    <desc>Created with Sketch.</desc>
    <defs>
        <path d="M42.7425,1.49663266 C44.3745,0.498877554 46.1865,0 48,0 C49.8135,0 51.627,0.498877554 53.256,1.49663266 L90.591,24.3316189 C93.933,26.3773408 96,30.2031485 96,34.3529027 L96,79.6470973 C96,83.7952317 93.933,87.6242789 90.591,89.6683811 L53.256,112.504987 C51.627,113.501122 49.8135,114 48,114 C46.1865,114 44.3745,113.501122 42.7425,112.504987 L5.409,89.6683811 C2.0655,87.6242789 0,83.7952317 0,79.6470973 L0,34.3529027 C0,30.2031485 2.0655,26.3773408 5.409,24.3316189 L42.7425,1.49663266 Z" id="path-1"></path>
        <filter x="-6.2%" y="-7.1%" width="112.5%" height="114.3%" filterUnits="objectBoundingBox" id="filter-3">
            <feOffset dx="0" dy="2" in="SourceAlpha" result="shadowOffsetOuter1"></feOffset>
            <feColorMatrix values="0 0 0 0 0   0 0 0 0 0   0 0 0 0 0  0 0 0 0.0964956975 0" type="matrix" in="shadowOffsetOuter1" result="shadowMatrixOuter1"></feColorMatrix>
            <feMerge>
                <feMergeNode in="shadowMatrixOuter1"></feMergeNode>
                <feMergeNode in="SourceGraphic"></feMergeNode>
            </feMerge>
        </filter>
        <path d="M0.396098791,1.05707078 L3.90220683,10.4138385 C3.99910195,10.672423 4.28727513,10.8034981 4.54585964,10.706603 C4.66085282,10.6635135 4.75596737,10.5796126 4.81307022,10.4708955 L5.67815553,8.82387535 C5.80656237,8.57940389 6.10883996,8.48531494 6.35331142,8.61372179 C6.40056798,8.63854295 6.44354508,8.67077114 6.48061054,8.70918239 L9.05492162,11.3769633 C9.24667164,11.5756755 9.56320381,11.5813195 9.76191602,11.3895695 C9.76987019,11.381894 9.77756765,11.3739568 9.78499571,11.3657711 L11.3533152,9.6374846 C11.5370627,9.43499502 11.5240734,9.12245891 11.3241573,8.93591473 L8.70900413,6.49568293 C8.50710654,6.30728979 8.49615902,5.99089664 8.68455216,5.78899905 C8.72249177,5.74833984 8.76694857,5.71429475 8.81609196,5.68826566 L10.2148713,4.9473939 C10.4588979,4.81814373 10.5519427,4.51554309 10.4226925,4.27151644 C10.3670913,4.16654025 10.2759308,4.08478957 10.1655409,4.0409084 L1.04900516,0.416990481 C0.792393702,0.314984751 0.501677028,0.440317461 0.399671298,0.696928923 C0.353784482,0.812364428 0.352510956,0.940747715 0.396098791,1.05707078 Z" id="path-4"></path>
        <filter x="-5.4%" y="-5.3%" width="112.3%" height="128.8%" filterUnits="objectBoundingBox" id="filter-5">
            <feOffset dx="0" dy="2" in="SourceAlpha" result="shadowOffsetOuter1"></feOffset>
            <feColorMatrix values="0 0 0 0 0   0 0 0 0 0   0 0 0 0 0  0 0 0 0.1 0" type="matrix" in="shadowOffsetOuter1"></feColorMatrix>
        </filter>
    </defs>
    <g id="Badges" stroke="none" stroke-width="1" fill="none" fill-rule="evenodd">
        <g id="Create-Reports-with-Power-BI-Desktop" transform="translate(-50.000000, -50.000000)">
            <g id="Create-Reports-with-Power-BI-Desktop/create-reports-with-power-bi-desktop" transform="translate(50.000000, 50.000000)">
                <g id="Mask" transform="translate(2.000000, 2.000000)">
                    <mask id="mask-2" fill="white">
                        <use xlink:href="#path-1"></use>
                    </mask>
                    <use fill="#7D7D7D" xlink:href="#path-1"></use>
                    <g id="Monitor" filter="url(#filter-3)" mask="url(#mask-2)">
                        <g transform="translate(16.000000, 29.000000)">
                            <path d="M0,36 L0,42 C0,44.2 1.8,46 4,46 L60,46 C62.2,46 64,44.2 64,42 L64,36 L0,36" id="Fill-1285" fill="#E1E4E1"></path>
                            <path d="M4,0 C1.8,0 0,1.8 0,4 L0,36 L64,36 L64,4 C64,1.8 62.2,0 60,0 L4,0 Z M60,2 C61.103,2 62,2.897 62,4 L62,34 L2,34 L2,4 C2,2.897 2.897,2 4,2 L60,2 L60,2 Z" id="Fill-1287" fill="#182A37"></path>
                            <path d="M2,4 C2,2.897 2.897,2 4,2 L60,2 C61.103,2 62,2.897 62,4 L62,34 L2,34 L2,4" id="Fill-1288" fill="#30404D"></path>
                            <path d="M4,2 L31.389,2 L21.611,34 L2,34 L2,4 C2,2.897 2.897,2 4,2" id="Fill-1289" fill="#384B58"></path>
                            <path d="M4,0 L32,0 L31.389,2 L4,2 C2.897,2 2,2.897 2,4 L2,34 L21.611,34 L21,36 L0,36 L0,4 C0,1.8 1.8,0 4,0" id="Fill-1290" fill="#30404D"></path>
                            <polyline id="Fill-1291" fill="#E1E4E1" points="40 55 24 55 26 46 38 46 40 55"></polyline>
                            <path d="M40,55 L38,46 L26,46 L25.555,48 L30,48 C31.105,48 32,48.895 32,50 L32,55 L40,55" id="Fill-1292" fill="#CDD6D8"></path>
                            <path d="M44,55 C44,55.55 43.55,56 43,56 L21,56 C20.45,56 20,55.55 20,55 C20,54.45 20.45,54 21,54 L43,54 C43.55,54 44,54.45 44,55" id="Fill-1293" fill="#E1E4E1"></path>
                            <path d="M21,56 L43,56 C43.55,56 44,55.55 44,55 L20,55 C20,55.55 20.45,56 21,56" id="Fill-1294" fill="#CDD6D8"></path>
                            <path d="M3.37069097,4.7988788 C3.37069097,3.47558797 4.44683954,2.3994394 5.77013037,2.3994394 L58.5577972,2.3994394 C59.8798883,2.3994394 60.9572366,3.47558797 60.9572366,4.7988788 L60.9572366,35.991591 L3.37069097,35.991591 L3.37069097,4.7988788" id="Fill-1417" fill="#F7CB64"></path>
                        </g>
                    </g>
                    <g id="Computer" mask="url(#mask-2)" fill-rule="nonzero">
                        <g transform="translate(23.000000, 38.000000)" id="Rectangle">
                            <rect stroke="#FFFFFF" stroke-width="1" fill="#FFFFFF" x="0.5" y="0.5" width="27" height="1" rx="0.5"></rect>
                            <rect stroke="#FFFFFF" stroke-width="1" fill="#FFFFFF" x="0.5" y="5.5" width="20" height="1" rx="0.5"></rect>
                            <rect stroke="#FFFFFF" stroke-width="1" fill="#FFFFFF" x="0.5" y="10.5" width="14" height="1" rx="0.5"></rect>
                            <rect stroke="none" fill="#978760" x="3" y="21" width="5" height="6"></rect>
                            <rect stroke="none" fill="#978760" x="13" y="16" width="5" height="11"></rect>
                            <rect stroke="none" fill="#978760" x="23" y="10" width="5" height="17"></rect>
                        </g>
                    </g>
                    <g id="Mouse-Clicker" mask="url(#mask-2)">
                        <g transform="translate(56.000000, 44.000000)">
                            <g id="Group-43" stroke="none" fill-rule="evenodd" transform="translate(11.368172, 10.623914) rotate(-2.000000) translate(-11.368172, -10.623914) translate(5.368172, 4.623914)">
                                <g id="Path-10" fill-rule="nonzero">
                                    <use fill="black" fill-opacity="1" filter="url(#filter-5)" xlink:href="#path-4"></use>
                                    <use fill="#FFFFFE" xlink:href="#path-4"></use>
                                </g>
                                <path d="M1.01994324,0.413452148 C0.802017212,0.363006592 0.645477295,0.391560872 0.550323486,0.49911499 C0.455169678,0.606669108 3.77728863,3.96011591 10.5166803,10.5594554 L11.3533152,9.6374846 C11.5370627,9.43499502 11.5240734,9.12245891 11.3241573,8.93591473 L8.70900413,6.49568293 C8.50710654,6.30728979 8.49615902,5.99089664 8.68455216,5.78899905 C8.72249177,5.74833984 8.76694857,5.71429475 8.81609196,5.68826566 L10.214014,4.94784799 C10.4580406,4.81859783 10.5510853,4.51599718 10.4218352,4.27197053 C10.366179,4.16689071 10.2748955,4.08508577 10.1643667,4.04123666 L1.01994324,0.413452148 Z" id="Path-10" fill="#E1E4E1" fill-rule="nonzero"></path>
                            </g>
                            <path d="M8,3.24000022 L9.90374754,1" id="Path-12" stroke="#FFFFFF" stroke-linecap="round" fill-rule="nonzero"></path>
                            <path d="M4.5131623,2.58503618 L6.41690984,0.345035961" id="Path-12" stroke="#FFFFFF" stroke-linecap="round" fill-rule="nonzero" transform="translate(5.465036, 1.465036) rotate(-45.000000) translate(-5.465036, -1.465036) "></path>
                            <path d="M1.18456824,4.0912756 L3.08831579,1.85127538" id="Path-12" stroke="#FFFFFF" stroke-linecap="round" fill-rule="nonzero" transform="translate(2.136442, 2.971275) rotate(-91.000000) translate(-2.136442, -2.971275) "></path>
                            <path d="M0.515013967,7.58273825 L2.41876151,5.34273803" id="Path-12" stroke="#FFFFFF" stroke-linecap="round" fill-rule="nonzero" transform="translate(1.466888, 6.462738) rotate(-134.000000) translate(-1.466888, -6.462738) "></path>
                            <path d="M2.01940172,10.2564421 L3.92314926,8.01644191" id="Path-12" stroke="#FFFFFF" stroke-linecap="round" fill-rule="nonzero" transform="translate(2.971275, 9.136442) rotate(-179.000000) translate(-2.971275, -9.136442) "></path>
                        </g>
                    </g>
                </g>
                <g id="Power-BI-Hex-Border" stroke="#F2C811" stroke-width="4">
                    <path d="M45.5618501,3.25844398 L45.5621963,3.25823359 L6.67338401,26.8942953 C3.79673288,28.6432593 2,31.9508238 2,35.5582677 L2,82.4417323 C2,86.0486597 3.79764663,89.3586805 6.67318764,91.1055853 L45.560618,114.742485 C46.9289662,115.572418 48.4546283,116 50,116 C51.5458817,116 53.0723633,115.572188 54.4362178,114.743457 L93.3268764,91.1055464 C96.2016145,89.3583456 98,86.0476286 98,82.4417323 L98,35.5582677 C98,31.9518547 96.202529,28.6435953 93.3268966,26.8944659 L54.4351916,3.25759524 C53.0721095,2.42798656 51.5462432,2 50,2 C48.4542664,2 46.9292165,2.42775755 45.5618501,3.25844398 Z" id="Azure-Hex-Border"></path>
                </g>
            </g>
        </g>
    </g>
</svg>