<svg width="103" height="103" viewBox="0 0 103 103" fill="none" xmlns="http://www.w3.org/2000/svg">
<path d="M51.696 98.37C25.846 98.37 4.88605 77.42 4.88605 51.56C4.88605 25.7 25.846 4.75 51.696 4.75C77.546 4.75 98.506 25.71 98.506 51.56C98.506 77.41 77.546 98.37 51.696 98.37Z" fill="url(#paint0_linear_333_15042)"/>
<path fill-rule="evenodd" clip-rule="evenodd" d="M97.596 51.5599C97.596 76.9099 77.046 97.4599 51.696 97.4599C26.346 97.4599 5.79603 76.9099 5.79603 51.5599C5.79603 26.2099 26.346 5.65993 51.696 5.65993C77.046 5.65993 97.596 26.2099 97.596 51.5599ZM51.696 1.91992C79.116 1.91992 101.336 24.1399 101.336 51.5599C101.336 78.9799 79.106 101.2 51.696 101.2C24.276 101.2 2.05603 78.9699 2.05603 51.5599C2.05603 24.1399 24.276 1.91992 51.696 1.91992Z" fill="#F2F1F0"/>
<path fill-rule="evenodd" clip-rule="evenodd" d="M94.786 51.5595C94.786 75.3595 75.496 94.6495 51.696 94.6495C27.896 94.6495 8.60603 75.3595 8.60603 51.5595C8.60603 27.7595 27.896 8.4695 51.696 8.4695C75.496 8.4695 94.786 27.7595 94.786 51.5595ZM51.696 4.72949C77.556 4.72949 98.526 25.6995 98.526 51.5595C98.526 77.4195 77.556 98.3895 51.696 98.3895C25.836 98.3895 4.86603 77.4195 4.86603 51.5595C4.86603 25.6995 25.826 4.72949 51.696 4.72949Z" fill="url(#paint1_linear_333_15042)"/>
<path opacity="0.15" d="M23.1358 78.533H80.2558C81.8558 78.533 83.1558 77.233 83.1558 75.633V30.083H20.2358V75.633C20.2358 77.233 21.5358 78.533 23.1358 78.533Z" fill="#1F1D20"/>
<path d="M21.4358 77.2117H81.9558C82.6158 77.2117 83.1558 76.6717 83.1558 76.0117V28.7617H20.2358V76.0117C20.2358 76.6717 20.7758 77.2117 21.4358 77.2117Z" fill="#EBEBEB"/>
<path d="M20.2358 33.9916H83.1558V28.3516C83.1558 27.8416 82.7458 27.4316 82.2358 27.4316H21.1558C20.6458 27.4316 20.2358 27.8416 20.2358 28.3516V33.9916Z" fill="#092E4C"/>
<path d="M25.0758 32.442C25.9558 32.442 26.6758 31.732 26.6758 30.842C26.6758 29.952 25.9458 29.252 25.0758 29.252C24.1958 29.252 23.4758 29.962 23.4758 30.852C23.4758 31.742 24.1758 32.442 25.0758 32.442Z" fill="#32B0E7"/>
<g opacity="0.2">
<path d="M74.2072 71.7397H65.5408C65.0116 71.7397 64.582 71.3101 64.582 70.7809V65.4764C64.582 64.9472 65.0116 64.5176 65.5408 64.5176H74.2135C74.7427 64.5114 75.1722 64.941 75.1722 65.4702V70.7747C75.166 71.3101 74.7364 71.7397 74.2072 71.7397Z" fill="#1F1D21"/>
<path d="M74.2072 54.0789H65.5408C65.0116 54.0789 64.582 53.6493 64.582 53.1201V47.8094C64.582 47.2802 65.0116 46.8506 65.5408 46.8506H74.2135C74.7427 46.8506 75.1722 47.2802 75.1722 47.8094V53.1138C75.166 53.6493 74.7364 54.0789 74.2072 54.0789Z" fill="#1F1D21"/>
<path d="M74.2072 62.9252H65.5408C65.0116 62.9252 64.582 62.4957 64.582 61.9664V56.662C64.582 56.1328 65.0116 55.7032 65.5408 55.7032H74.2135C74.7427 55.697 75.1722 56.1266 75.1722 56.662V61.9664C75.166 62.4957 74.7364 62.9252 74.2072 62.9252Z" fill="#1F1D21"/>
<path d="M74.2072 45.2625H65.5408C65.0116 45.2625 64.582 44.8329 64.582 44.3037V38.993C64.582 38.4638 65.0116 38.0342 65.5408 38.0342H74.2135C74.7427 38.0342 75.1722 38.4638 75.1722 38.993V44.2974C75.166 44.8329 74.7364 45.2625 74.2072 45.2625Z" fill="#1F1D21"/>
</g>
<path fill-rule="evenodd" clip-rule="evenodd" d="M57.4658 41.792H69.4631V40.792H57.4658V41.792Z" fill="#78787D"/>
<path fill-rule="evenodd" clip-rule="evenodd" d="M57.4658 50.5068H69.4631V49.5068H57.4658V50.5068Z" fill="#78787D"/>
<path fill-rule="evenodd" clip-rule="evenodd" d="M57.4658 59.2236H69.4631V58.2236H57.4658V59.2236Z" fill="#78787D"/>
<path fill-rule="evenodd" clip-rule="evenodd" d="M57.4658 67.9404H69.4631V66.9404H57.4658V67.9404Z" fill="#78787D"/>
<path d="M74.2072 71.2797H65.5408C65.0116 71.2797 64.582 70.8501 64.582 70.3209V65.0165C64.582 64.4873 65.0116 64.0577 65.5408 64.0577H74.2135C74.7427 64.0515 75.1722 64.481 75.1722 65.0102V70.3147C75.166 70.8501 74.7364 71.2797 74.2072 71.2797Z" fill="#01416E"/>
<path d="M74.2072 53.6189H65.5408C65.0116 53.6189 64.582 53.1893 64.582 52.6601V47.3494C64.582 46.8202 65.0116 46.3906 65.5408 46.3906H74.2135C74.7427 46.3906 75.1722 46.8202 75.1722 47.3494V52.6539C75.166 53.1893 74.7364 53.6189 74.2072 53.6189Z" fill="#016ED2"/>
<path d="M74.2072 62.4653H65.5408C65.0116 62.4653 64.582 62.0357 64.582 61.5065V56.202C64.582 55.6728 65.0116 55.2432 65.5408 55.2432H74.2135C74.7427 55.237 75.1722 55.6666 75.1722 56.202V61.5065C75.166 62.0357 74.7364 62.4653 74.2072 62.4653Z" fill="#0153B4"/>
<path d="M74.2072 44.8025H65.5408C65.0116 44.8025 64.582 44.3729 64.582 43.8437V38.533C64.582 38.0038 65.0116 37.5742 65.5408 37.5742H74.2135C74.7427 37.5742 75.1722 38.0038 75.1722 38.533V43.8375C75.166 44.3729 74.7364 44.8025 74.2072 44.8025Z" fill="#018AF0"/>
<path opacity="0.2" d="M37.3988 72.9037H59.2488C60.2288 72.9037 61.0188 72.1037 61.0188 71.1337V39.0537H26.3188V71.1337C26.3188 72.1137 27.1188 72.9037 28.0888 72.9037H31.8688H37.3988V72.9037Z" fill="#1F1D21"/>
<path d="M37.3988 71.8434H59.8188C60.4788 71.8434 61.0288 71.3034 61.0288 70.6334V39.1934C61.0188 38.5334 60.4788 37.9834 59.8188 37.9834H27.5288C26.8688 37.9834 26.3188 38.5234 26.3188 39.1934V70.6434C26.3188 71.3034 26.8588 71.8534 27.5288 71.8534H31.8688H37.3988V71.8434Z" fill="url(#paint2_linear_333_15042)"/>
<path d="M61.0188 38.5938C61.0188 37.9338 60.4788 37.3838 59.8088 37.3838H27.5288C26.8688 37.3838 26.3188 37.9238 26.3188 38.5938V39.7338H61.0188V38.5938Z" fill="#1A2C45"/>
<path fill-rule="evenodd" clip-rule="evenodd" d="M55.3042 45.162L50.7954 49.3954L46.2959 49.3154L41.2604 54.0735L37.1463 49.4555L32.3838 49.5333L32.374 48.9334L37.4114 48.8511L41.2974 53.2131L46.0618 48.7112L50.5624 48.7912L54.8935 44.7246L55.3042 45.162Z" fill="white"/>
<path fill-rule="evenodd" clip-rule="evenodd" d="M55.3158 48.4316L55.3388 53.7323L54.7388 53.7349L54.7218 49.8155L50.303 53.9781L46.1054 53.8182L41.5886 58.188L37.0534 62.6723L32.162 62.7236L32.1557 62.1236L36.8043 62.0749L41.1702 57.758L45.8723 53.2089L50.0746 53.369L55.3158 48.4316Z" fill="white"/>
<path d="M42.2789 66.8135C42.2789 66.2635 41.8389 65.8135 41.2789 65.8135C40.7289 65.8135 40.2789 66.2535 40.2789 66.8135C40.2789 67.3635 40.7189 67.8135 41.2789 67.8135C41.8289 67.8135 42.2789 67.3635 42.2789 66.8135Z" fill="#0153B4"/>
<path d="M71.0541 67.5957C71.0541 67.0457 70.6141 66.5957 70.0541 66.5957C69.5041 66.5957 69.0541 67.0357 69.0541 67.5957C69.0541 68.1457 69.4941 68.5957 70.0541 68.5957C70.6041 68.5957 71.0541 68.1457 71.0541 67.5957Z" fill="#0153B4"/>
<path d="M46.8188 66.8135C46.8188 66.2635 46.3788 65.8135 45.8188 65.8135C45.2688 65.8135 44.8188 66.2535 44.8188 66.8135C44.8188 67.3635 45.2588 67.8135 45.8188 67.8135C46.3688 67.8135 46.8188 67.3635 46.8188 66.8135Z" fill="#012E4D"/>
<path d="M33.2089 66.8135C33.2089 66.2635 32.7689 65.8135 32.2089 65.8135C31.6589 65.8135 31.2089 66.2535 31.2089 66.8135C31.2089 67.3635 31.6489 67.8135 32.2089 67.8135C32.7589 67.8135 33.2089 67.3635 33.2089 66.8135Z" fill="#3BCAF4"/>
<path d="M37.7388 66.8135C37.7388 66.2635 37.2988 65.8135 36.7388 65.8135C36.1888 65.8135 35.7388 66.2535 35.7388 66.8135C35.7388 67.3635 36.1788 67.8135 36.7388 67.8135C37.2988 67.8135 37.7388 67.3635 37.7388 66.8135Z" fill="#3BCAF4"/>
<path d="M51.3588 66.8135C51.3588 66.2635 50.9188 65.8135 50.3588 65.8135C49.7988 65.8135 49.3588 66.2535 49.3588 66.8135C49.3588 67.3635 49.7988 67.8135 50.3588 67.8135C50.9188 67.8135 51.3588 67.3635 51.3588 66.8135Z" fill="#012E4D"/>
<path d="M53.8889 66.8136C53.8889 67.3636 54.3289 67.8136 54.8889 67.8136C55.4389 67.8136 55.8889 67.3736 55.8889 66.8136C55.8889 66.2636 55.4489 65.8136 54.8889 65.8136C54.3389 65.8036 53.8889 66.2536 53.8889 66.8136Z" fill="url(#paint3_linear_333_15042)"/>
<path d="M42.2789 62.4033C42.2789 61.8533 41.8389 61.4033 41.2789 61.4033C40.7189 61.4033 40.2789 61.8433 40.2789 62.4033C40.2789 62.9633 40.7189 63.4033 41.2789 63.4033C41.8289 63.4033 42.2789 62.9533 42.2789 62.4033Z" fill="#3BCAF4"/>
<path d="M46.8188 62.4033C46.8188 61.8533 46.3788 61.4033 45.8188 61.4033C45.2588 61.4033 44.8188 61.8433 44.8188 62.4033C44.8188 62.9633 45.2588 63.4033 45.8188 63.4033C46.3688 63.4033 46.8188 62.9533 46.8188 62.4033Z" fill="#0153B4"/>
<path d="M33.2089 62.4033C33.2089 61.8533 32.7689 61.4033 32.2089 61.4033C31.6589 61.4033 31.2089 61.8433 31.2089 62.4033C31.2089 62.9633 31.6489 63.4033 32.2089 63.4033C32.7589 63.4033 33.2089 62.9533 33.2089 62.4033Z" fill="#3BCAF4"/>
<path d="M37.7388 62.4033C37.7388 61.8533 37.2988 61.4033 36.7388 61.4033C36.1888 61.4033 35.7388 61.8433 35.7388 62.4033C35.7388 62.9633 36.1788 63.4033 36.7388 63.4033C37.2988 63.4033 37.7388 62.9533 37.7388 62.4033Z" fill="#3BCAF4"/>
<path d="M71.0541 58.6123C71.0541 58.0623 70.6141 57.6123 70.0541 57.6123C69.5041 57.6123 69.0541 58.0523 69.0541 58.6123C69.0541 59.1723 69.4941 59.6123 70.0541 59.6123C70.6141 59.6123 71.0541 59.1623 71.0541 58.6123Z" fill="#3BCAF4"/>
<path d="M51.3489 62.4033C51.3489 61.8533 50.9089 61.4033 50.3489 61.4033C49.7889 61.4033 49.3489 61.8433 49.3489 62.4033C49.3489 62.9633 49.7889 63.4033 50.3489 63.4033C50.9089 63.4033 51.3489 62.9533 51.3489 62.4033Z" fill="#0153B4"/>
<path d="M55.8889 62.4033C55.8889 61.8533 55.4489 61.4033 54.8889 61.4033C54.3289 61.4033 53.8889 61.8433 53.8889 62.4033C53.8889 62.9633 54.3289 63.4033 54.8889 63.4033C55.4489 63.4033 55.8889 62.9533 55.8889 62.4033Z" fill="url(#paint4_linear_333_15042)"/>
<path d="M42.2789 58.0039C42.2789 57.4539 41.8389 57.0039 41.2789 57.0039C40.7289 57.0039 40.2789 57.4439 40.2789 58.0039C40.2789 58.5639 40.7189 59.0039 41.2789 59.0039C41.8289 59.0039 42.2789 58.5539 42.2789 58.0039Z" fill="#3BCAF4"/>
<path d="M45.8188 59.0039C46.3688 59.0039 46.8188 58.5539 46.8188 58.0039C46.8188 57.4539 46.3688 57.0039 45.8188 57.0039C45.2688 57.0039 44.8188 57.4539 44.8188 58.0039C44.8088 58.5539 45.2688 59.0039 45.8188 59.0039Z" fill="#3BCAF4"/>
<path d="M33.2089 58.0039C33.2089 57.4539 32.7689 57.0039 32.2089 57.0039C31.6589 57.0039 31.2089 57.4439 31.2089 58.0039C31.2089 58.5639 31.6489 59.0039 32.2089 59.0039C32.7589 59.0039 33.2089 58.5539 33.2089 58.0039Z" fill="#50E6FF"/>
<path d="M36.7488 59.0039C37.2988 59.0039 37.7488 58.5539 37.7488 58.0039C37.7488 57.4539 37.2988 57.0039 36.7488 57.0039C36.1988 57.0039 35.7488 57.4539 35.7488 58.0039C35.7388 58.5539 36.1888 59.0039 36.7488 59.0039Z" fill="#3BCAF4"/>
<path d="M51.3588 58.0039C51.3588 57.4539 50.9188 57.0039 50.3588 57.0039C49.7988 57.0039 49.3588 57.4439 49.3588 58.0039C49.3588 58.5639 49.7988 59.0039 50.3588 59.0039C50.9188 59.0039 51.3588 58.5539 51.3588 58.0039Z" fill="#3BCAF4"/>
<path d="M54.8889 59.0039C55.4389 59.0039 55.8889 58.5539 55.8889 58.0039C55.8889 57.4539 55.4389 57.0039 54.8889 57.0039C54.3389 57.0039 53.8889 57.4539 53.8889 58.0039C53.8889 58.5539 54.3389 59.0039 54.8889 59.0039Z" fill="#0153B4"/>
<path d="M42.2789 53.5938C42.2789 53.0437 41.8389 52.5938 41.2789 52.5938C40.7189 52.5938 40.2789 53.0337 40.2789 53.5938C40.2789 54.1438 40.7189 54.5938 41.2789 54.5938C41.8289 54.6037 42.2789 54.1438 42.2789 53.5938Z" fill="#50E6FF"/>
<path d="M46.8188 53.5938C46.8188 53.0437 46.3788 52.5938 45.8188 52.5938C45.2588 52.5938 44.8188 53.0437 44.8188 53.5938C44.8188 54.1438 45.2588 54.5938 45.8188 54.5938C46.3788 54.5938 46.8188 54.1438 46.8188 53.5938Z" fill="#50E6FF"/>
<path d="M33.2089 53.5938C33.2089 53.0437 32.7689 52.5938 32.2089 52.5938C31.6589 52.5938 31.2089 53.0337 31.2089 53.5938C31.2089 54.1438 31.6489 54.5938 32.2089 54.5938C32.7589 54.6037 33.2089 54.1438 33.2089 53.5938Z" fill="#50E6FF"/>
<path d="M37.7388 53.5938C37.7388 53.0437 37.2988 52.5938 36.7388 52.5938C36.1888 52.5938 35.7388 53.0337 35.7388 53.5938C35.7388 54.1438 36.1788 54.5938 36.7388 54.5938C37.2988 54.5938 37.7388 54.1438 37.7388 53.5938Z" fill="#50E6FF"/>
<path d="M51.3489 53.5938C51.3489 53.0437 50.9089 52.5938 50.3489 52.5938C49.7889 52.5938 49.3489 53.0337 49.3489 53.5938C49.3489 54.1438 49.7889 54.5938 50.3489 54.5938C50.9089 54.6037 51.3489 54.1438 51.3489 53.5938Z" fill="#50E6FF"/>
<path d="M55.8889 53.5938C55.8889 53.0437 55.4489 52.5938 54.8889 52.5938C54.3289 52.5938 53.8889 53.0337 53.8889 53.5938C53.8889 54.1438 54.3289 54.5938 54.8889 54.5938C55.4489 54.6037 55.8889 54.1438 55.8889 53.5938Z" fill="#50E6FF"/>
<path d="M42.2789 49.1934C42.2789 48.6434 41.8389 48.1934 41.2789 48.1934C40.7189 48.1934 40.2789 48.6334 40.2789 49.1934C40.2789 49.7534 40.7189 50.1934 41.2789 50.1934C41.8289 50.1934 42.2789 49.7534 42.2789 49.1934Z" fill="#50E6FF"/>
<path d="M46.8188 49.1934C46.8188 48.6434 46.3788 48.1934 45.8188 48.1934C45.2588 48.1934 44.8188 48.6334 44.8188 49.1934C44.8188 49.7534 45.2588 50.1934 45.8188 50.1934C46.3688 50.2034 46.8188 49.7534 46.8188 49.1934Z" fill="#50E6FF"/>
<path d="M33.2089 49.1934C33.2089 48.6434 32.7689 48.1934 32.2089 48.1934C31.6589 48.1934 31.2089 48.6334 31.2089 49.1934C31.2089 49.7534 31.6489 50.1934 32.2089 50.1934C32.7589 50.1934 33.2089 49.7534 33.2089 49.1934Z" fill="#9CEBFF"/>
<path d="M37.7388 49.1934C37.7388 48.6434 37.2988 48.1934 36.7388 48.1934C36.1888 48.1934 35.7388 48.6334 35.7388 49.1934C35.7388 49.7534 36.1788 50.1934 36.7388 50.1934C37.2988 50.1934 37.7388 49.7534 37.7388 49.1934Z" fill="#9CEBFF"/>
<path d="M51.3489 49.1934C51.3489 48.6434 50.9089 48.1934 50.3489 48.1934C49.7889 48.1934 49.3489 48.6334 49.3489 49.1934C49.3489 49.7534 49.7889 50.1934 50.3489 50.1934C50.9089 50.2034 51.3489 49.7534 51.3489 49.1934Z" fill="#50E6FF"/>
<path d="M71.0541 49.9404C71.0541 49.3904 70.6141 48.9404 70.0541 48.9404C69.4941 48.9404 69.0541 49.3804 69.0541 49.9404C69.0541 50.5004 69.4941 50.9404 70.0541 50.9404C70.6141 50.9504 71.0541 50.5004 71.0541 49.9404Z" fill="#50E6FF"/>
<path d="M55.8889 49.1934C55.8889 48.6434 55.4489 48.1934 54.8889 48.1934C54.3289 48.1934 53.8889 48.6334 53.8889 49.1934C53.8889 49.7534 54.3289 50.1934 54.8889 50.1934C55.4489 50.2034 55.8889 49.7534 55.8889 49.1934Z" fill="#50E6FF"/>
<path d="M42.2789 44.8037C42.2789 44.2537 41.8389 43.8037 41.2789 43.8037C40.7189 43.8037 40.2789 44.2437 40.2789 44.8037C40.2789 45.3537 40.7189 45.8037 41.2789 45.8037C41.8289 45.8037 42.2789 45.3537 42.2789 44.8037Z" fill="#9CEBFF"/>
<path d="M46.8188 44.8037C46.8188 44.2537 46.3788 43.8037 45.8188 43.8037C45.2588 43.8037 44.8188 44.2537 44.8188 44.8037C44.8188 45.3537 45.2588 45.8037 45.8188 45.8037C46.3788 45.8037 46.8188 45.3537 46.8188 44.8037Z" fill="#9CEBFF"/>
<path d="M33.2089 44.8037C33.2089 44.2537 32.7689 43.8037 32.2089 43.8037C31.6589 43.8037 31.2089 44.2437 31.2089 44.8037C31.2089 45.3637 31.6489 45.8037 32.2089 45.8037C32.7589 45.8037 33.2089 45.3537 33.2089 44.8037Z" fill="#9CEBFF"/>
<path d="M71.0541 40.9365C71.0541 40.3865 70.6141 39.9365 70.0541 39.9365C69.5041 39.9365 69.0541 40.3765 69.0541 40.9365C69.0541 41.4965 69.4941 41.9365 70.0541 41.9365C70.6041 41.9365 71.0541 41.4865 71.0541 40.9365Z" fill="#9CEBFF"/>
<path d="M37.7388 44.8037C37.7388 44.2537 37.2988 43.8037 36.7388 43.8037C36.1888 43.8037 35.7388 44.2437 35.7388 44.8037C35.7388 45.3537 36.1788 45.8037 36.7388 45.8037C37.2988 45.8037 37.7388 45.3537 37.7388 44.8037Z" fill="#9CEBFF"/>
<path d="M51.3489 44.8037C51.3489 44.2537 50.9089 43.8037 50.3489 43.8037C49.7889 43.8037 49.3489 44.2437 49.3489 44.8037C49.3489 45.3537 49.7889 45.8037 50.3489 45.8037C50.9089 45.8037 51.3489 45.3537 51.3489 44.8037Z" fill="#9CEBFF"/>
<path d="M55.8889 44.8037C55.8889 44.2537 55.4489 43.8037 54.8889 43.8037C54.3289 43.8037 53.8889 44.2437 53.8889 44.8037C53.8889 45.3537 54.3289 45.8037 54.8889 45.8037C55.4489 45.8037 55.8889 45.3537 55.8889 44.8037Z" fill="#50E6FF"/>
<path d="M54.8322 58.0361L63.4881 72.7653C63.4881 72.7653 46.9017 72.7043 47.0508 72.4941C47.1931 72.284 54.8322 58.0361 54.8322 58.0361Z" fill="white"/>
<path d="M65.1623 72.4334L56.0117 57.4128C55.6185 56.7688 54.6764 56.7688 54.29 57.4195L45.3291 72.4401C44.9292 73.1112 45.4105 73.9585 46.19 73.9585H64.3015C65.0877 73.9585 65.569 73.1044 65.1623 72.4334ZM48.2641 71.7284L55.2051 59.7513L62.2477 71.7284H48.2641V71.7284Z" fill="#E81E25"/>
<path d="M55.2525 70.9221C55.0289 70.9221 54.8391 70.8475 54.6832 70.7052C54.5273 70.5629 54.4459 70.3866 54.4459 70.1833C54.4459 69.9731 54.5273 69.7901 54.6832 69.641C54.8391 69.4919 55.0289 69.4173 55.2525 69.4173C55.4694 69.4173 55.6525 69.4919 55.8151 69.641C55.971 69.7901 56.0524 69.9731 56.0524 70.1833C56.0524 70.3866 55.971 70.5629 55.8151 70.7052C55.6525 70.8543 55.4694 70.9221 55.2525 70.9221ZM55.8694 62.8018L55.7677 68.4548H54.7035L54.5612 62.8018H55.8694Z" fill="black"/>
<path opacity="0.15" d="M77.7426 82.1801C80.052 82.175 82.2657 81.2551 83.8987 79.6221C85.5317 77.9891 86.4511 75.7759 86.4562 73.4665C86.4562 71.1555 85.5385 68.9389 83.9044 67.3048C82.2702 65.6707 80.0536 64.7529 77.7426 64.7529C75.4332 64.758 73.2196 65.6774 71.5866 67.3104C69.9536 68.9434 69.0341 71.1571 69.0291 73.4665C69.0291 74.6108 69.2548 75.7439 69.6927 76.801C70.1306 77.8582 70.7718 78.8186 71.5809 79.6278C72.39 80.4369 73.3514 81.0786 74.4086 81.5165C75.4657 81.9544 76.5984 82.1801 77.7426 82.1801V82.1801Z" fill="#1F1D20"/>
<path d="M77.7426 80.1752C80.0536 80.1752 82.2702 79.257 83.9044 77.6229C85.5385 75.9888 86.4562 73.7726 86.4562 71.4616C86.4562 69.1506 85.5385 66.9345 83.9044 65.3004C82.2702 63.6663 80.0536 62.748 77.7426 62.748C75.4332 62.7531 73.2196 63.673 71.5866 65.306C69.9536 66.939 69.0341 69.1522 69.0291 71.4616C69.0291 72.6059 69.2548 73.739 69.6927 74.7962C70.1306 75.8533 70.7718 76.8137 71.5809 77.6229C72.39 78.432 73.3514 79.0742 74.4086 79.5121C75.4657 79.95 76.5984 80.1752 77.7426 80.1752V80.1752Z" fill="#092D4C"/>
<path d="M78.5523 65.9287H76.9907V76.9941H78.5523V65.9287Z" fill="white"/>
<path d="M83.3139 70.7666H72.248V72.3089H83.3139V70.7666Z" fill="white"/>
<defs>
<linearGradient id="paint0_linear_333_15042" x1="49.9221" y1="-13.2295" x2="53.9041" y2="132.541" gradientUnits="userSpaceOnUse">
<stop stop-color="#00ABDE"/>
<stop offset="1" stop-color="#007ED8"/>
</linearGradient>
<linearGradient id="paint1_linear_333_15042" x1="3.12643" y1="-20.0631" x2="98.654" y2="120.818" gradientUnits="userSpaceOnUse">
<stop stop-color="#007ED8"/>
<stop offset="0.7065" stop-color="#002D4C"/>
</linearGradient>
<linearGradient id="paint2_linear_333_15042" x1="43.6738" y1="37.9834" x2="43.6738" y2="71.8534" gradientUnits="userSpaceOnUse">
<stop stop-color="#008BF1"/>
<stop offset="0.22" stop-color="#0086EC"/>
<stop offset="0.49" stop-color="#0078DD"/>
<stop offset="0.79" stop-color="#0061C4"/>
<stop offset="1" stop-color="#004DAE"/>
</linearGradient>
<linearGradient id="paint3_linear_333_15042" x1="39.4349" y1="56.1182" x2="84.2661" y2="87.1208" gradientUnits="userSpaceOnUse">
<stop stop-color="#007ED8"/>
<stop offset="0.7065" stop-color="#002D4C"/>
</linearGradient>
<linearGradient id="paint4_linear_333_15042" x1="42.5296" y1="53.8566" x2="84.1885" y2="82.6655" gradientUnits="userSpaceOnUse">
<stop stop-color="#007ED8"/>
<stop offset="0.7065" stop-color="#002D4C"/>
</linearGradient>
</defs>
</svg>
