<svg width="103" height="103" viewBox="0 0 103 103" fill="none" xmlns="http://www.w3.org/2000/svg">
<path d="M51.696 98.368C25.846 98.368 4.88605 77.418 4.88605 51.558C4.88605 25.698 25.846 4.74805 51.696 4.74805C77.546 4.74805 98.506 25.708 98.506 51.558C98.506 77.408 77.546 98.368 51.696 98.368Z" fill="url(#paint0_linear_331_15038)"/>
<path fill-rule="evenodd" clip-rule="evenodd" d="M97.596 51.558C97.596 76.908 77.046 97.458 51.696 97.458C26.346 97.458 5.79603 76.908 5.79603 51.558C5.79603 26.208 26.346 5.65797 51.696 5.65797C77.046 5.65797 97.596 26.208 97.596 51.558ZM51.696 1.91797C79.116 1.91797 101.336 24.138 101.336 51.558C101.336 78.978 79.106 101.198 51.696 101.198C24.276 101.198 2.05603 78.968 2.05603 51.558C2.05603 24.138 24.276 1.91797 51.696 1.91797Z" fill="#F2F1F0"/>
<path fill-rule="evenodd" clip-rule="evenodd" d="M94.786 51.5585C94.786 75.3585 75.496 94.6485 51.696 94.6485C27.896 94.6485 8.60603 75.3585 8.60603 51.5585C8.60603 27.7585 27.896 8.46852 51.696 8.46852C75.496 8.46852 94.786 27.7585 94.786 51.5585ZM51.696 4.72852C77.556 4.72852 98.526 25.6985 98.526 51.5585C98.526 77.4185 77.556 98.3885 51.696 98.3885C25.836 98.3885 4.86603 77.4185 4.86603 51.5585C4.86603 25.6985 25.826 4.72852 51.696 4.72852Z" fill="url(#paint1_linear_331_15038)"/>
<path d="M22.9948 76.3106H80.7274C82.0677 76.3106 83.1444 75.2339 83.1444 73.8936V30.542C83.1444 29.2016 82.0677 28.125 80.7274 28.125H22.9948C21.6545 28.125 20.5779 29.2016 20.5779 30.542V73.8936C20.5779 75.2229 21.6545 76.3106 22.9948 76.3106Z" fill="url(#paint2_linear_331_15038)"/>
<path d="M20.5779 33.7055H83.1224V29.6955C83.1224 28.3113 81.9908 27.1797 80.6066 27.1797H23.0937C21.7095 27.1797 20.5779 28.3113 20.5779 29.6955V33.7055Z" fill="#092E4C"/>
<path d="M24.4783 32.1567C25.3462 32.1567 26.0713 31.4536 26.0713 30.5637C26.0713 29.6738 25.3572 28.9707 24.4783 28.9707C23.5994 28.9707 22.8853 29.6848 22.8853 30.5637C22.8853 31.4426 23.5994 32.1567 24.4783 32.1567Z" fill="#50E6FF"/>
<path opacity="0.15" d="M22.9948 78.1856H80.7274C82.0677 78.1856 83.1444 77.1089 83.1444 75.7686V32.417C83.1444 31.0766 82.0677 30 80.7274 30H22.9948C21.6545 30 20.5779 31.0766 20.5779 32.417V75.7686C20.5779 77.0979 21.6545 78.1856 22.9948 78.1856Z" fill="#1F1D20"/>
<path d="M44.5779 64.9808C44.5779 64.415 44.1238 63.9609 43.5581 63.9609C42.9923 63.9609 42.5383 64.415 42.5383 64.9808C42.5383 65.5465 42.9923 66.0006 43.5581 66.0006C44.1238 66.0006 44.5779 65.539 44.5779 64.9808Z" fill="white"/>
<path d="M49.3941 64.9808C49.3941 64.415 48.94 63.9609 48.3742 63.9609C47.8085 63.9609 47.3544 64.415 47.3544 64.9808C47.3544 65.5465 47.8085 66.0006 48.3742 66.0006C48.94 66.0006 49.3941 65.539 49.3941 64.9808Z" fill="white"/>
<path d="M35.2656 64.9808C35.2656 64.415 34.8115 63.9609 34.2458 63.9609C33.68 63.9609 33.226 64.415 33.226 64.9808C33.226 65.5465 33.68 66.0006 34.2458 66.0006C34.8041 66.0006 35.2656 65.539 35.2656 64.9808Z" fill="white"/>
<path d="M40.0892 64.9808C40.0892 64.415 39.6351 63.9609 39.0694 63.9609C38.5036 63.9609 38.0496 64.415 38.0496 64.9808C38.0496 65.5465 38.5036 66.0006 39.0694 66.0006C39.6351 66.0006 40.0892 65.539 40.0892 64.9808Z" fill="white"/>
<path d="M53.5328 64.9808C53.5328 64.415 53.0788 63.9609 52.513 63.9609C51.9473 63.9609 51.4932 64.415 51.4932 64.9808C51.4932 65.5465 51.9473 66.0006 52.513 66.0006C53.0788 66.0006 53.5328 65.539 53.5328 64.9808Z" fill="white"/>
<path d="M56.3243 64.9808C56.3243 65.5465 56.7784 66.0006 57.3442 66.0006C57.9099 66.0006 58.364 65.5465 58.364 64.9808C58.364 64.415 57.9099 63.9609 57.3442 63.9609C56.7784 63.9609 56.3243 64.415 56.3243 64.9808Z" fill="white"/>
<path d="M44.5779 60.4925C44.5779 59.9267 44.1238 59.4727 43.5581 59.4727C42.9923 59.4727 42.5383 59.9267 42.5383 60.4925C42.5383 61.0582 42.9923 61.5123 43.5581 61.5123C44.1238 61.5123 44.5779 61.0582 44.5779 60.4925Z" fill="white"/>
<path d="M49.3941 60.4925C49.3941 59.9267 48.94 59.4727 48.3742 59.4727C47.8085 59.4727 47.3544 59.9267 47.3544 60.4925C47.3544 61.0582 47.8085 61.5123 48.3742 61.5123C48.94 61.5123 49.3941 61.0582 49.3941 60.4925Z" fill="white"/>
<path d="M35.2656 60.4925C35.2656 59.9267 34.8115 59.4727 34.2458 59.4727C33.68 59.4727 33.226 59.9267 33.226 60.4925C33.226 61.0582 33.68 61.5123 34.2458 61.5123C34.8041 61.5123 35.2656 61.0582 35.2656 60.4925Z" fill="white"/>
<path d="M40.0892 60.4925C40.0892 59.9267 39.6351 59.4727 39.0694 59.4727C38.5036 59.4727 38.0496 59.9267 38.0496 60.4925C38.0496 61.0582 38.5036 61.5123 39.0694 61.5123C39.6351 61.5123 40.0892 61.0582 40.0892 60.4925Z" fill="white"/>
<path d="M53.5328 60.4925C53.5328 59.9267 53.0788 59.4727 52.513 59.4727C51.9473 59.4727 51.4932 59.9267 51.4932 60.4925C51.4932 61.0582 51.9473 61.5123 52.513 61.5123C53.0788 61.5123 53.5328 61.0582 53.5328 60.4925Z" fill="white"/>
<path d="M58.3565 60.4925C58.3565 59.9267 57.9024 59.4727 57.3366 59.4727C56.7709 59.4727 56.3168 59.9267 56.3168 60.4925C56.3168 61.0582 56.7709 61.5123 57.3366 61.5123C57.9024 61.5123 58.3565 61.0582 58.3565 60.4925Z" fill="white"/>
<path d="M44.5779 56.01C44.5779 55.4443 44.1238 54.9902 43.5581 54.9902C42.9923 54.9902 42.5383 55.4443 42.5383 56.01C42.5383 56.5758 42.9923 57.0299 43.5581 57.0299C44.1238 57.0299 44.5779 56.5758 44.5779 56.01Z" fill="white"/>
<path d="M48.3742 57.0299C48.9375 57.0299 49.3941 56.5733 49.3941 56.01C49.3941 55.4468 48.9375 54.9902 48.3742 54.9902C47.811 54.9902 47.3544 55.4468 47.3544 56.01C47.3544 56.5733 47.811 57.0299 48.3742 57.0299Z" fill="white"/>
<path d="M35.2656 56.01C35.2656 55.4443 34.8115 54.9902 34.2458 54.9902C33.68 54.9902 33.226 55.4443 33.226 56.01C33.226 56.5758 33.68 57.0299 34.2458 57.0299C34.8041 57.0299 35.2656 56.5758 35.2656 56.01Z" fill="white"/>
<path d="M39.0694 57.0299C39.6326 57.0299 40.0892 56.5733 40.0892 56.01C40.0892 55.4468 39.6326 54.9902 39.0694 54.9902C38.5061 54.9902 38.0496 55.4468 38.0496 56.01C38.0496 56.5733 38.5061 57.0299 39.0694 57.0299Z" fill="white"/>
<path d="M53.5328 56.01C53.5328 55.4443 53.0788 54.9902 52.513 54.9902C51.9473 54.9902 51.4932 55.4443 51.4932 56.01C51.4932 56.5758 51.9473 57.0299 52.513 57.0299C53.0788 57.0299 53.5328 56.5758 53.5328 56.01Z" fill="white"/>
<path d="M57.3366 57.0299C57.8999 57.0299 58.3565 56.5733 58.3565 56.01C58.3565 55.4468 57.8999 54.9902 57.3366 54.9902C56.7734 54.9902 56.3168 55.4468 56.3168 56.01C56.3168 56.5733 56.7734 57.0299 57.3366 57.0299Z" fill="white"/>
<path d="M44.5779 51.5296C44.5779 50.9638 44.1238 50.5098 43.5581 50.5098C42.9923 50.5098 42.5383 50.9638 42.5383 51.5296C42.5383 52.0953 42.9923 52.5494 43.5581 52.5494C44.1238 52.5494 44.5779 52.0879 44.5779 51.5296Z" fill="white"/>
<path d="M49.3941 51.5296C49.3941 50.9638 48.94 50.5098 48.3742 50.5098C47.8085 50.5098 47.3544 50.9638 47.3544 51.5296C47.3544 52.0953 47.8085 52.5494 48.3742 52.5494C48.94 52.5494 49.3941 52.0879 49.3941 51.5296Z" fill="white"/>
<path d="M35.2656 51.5296C35.2656 50.9638 34.8115 50.5098 34.2458 50.5098C33.68 50.5098 33.226 50.9638 33.226 51.5296C33.226 52.0953 33.68 52.5494 34.2458 52.5494C34.8041 52.5494 35.2656 52.0879 35.2656 51.5296Z" fill="white"/>
<path d="M40.0892 51.5296C40.0892 50.9638 39.6351 50.5098 39.0694 50.5098C38.5036 50.5098 38.0496 50.9638 38.0496 51.5296C38.0496 52.0953 38.5036 52.5494 39.0694 52.5494C39.6351 52.5494 40.0892 52.0879 40.0892 51.5296Z" fill="white"/>
<path d="M53.5328 51.5296C53.5328 50.9638 53.0788 50.5098 52.513 50.5098C51.9473 50.5098 51.4932 50.9638 51.4932 51.5296C51.4932 52.0953 51.9473 52.5494 52.513 52.5494C53.0788 52.5494 53.5328 52.0879 53.5328 51.5296Z" fill="white"/>
<path d="M58.3565 51.5296C58.3565 50.9638 57.9024 50.5098 57.3366 50.5098C56.7709 50.5098 56.3168 50.9638 56.3168 51.5296C56.3168 52.0953 56.7709 52.5494 57.3366 52.5494C57.9024 52.5494 58.3565 52.0879 58.3565 51.5296Z" fill="white"/>
<path d="M44.5779 47.0472C44.5779 46.4814 44.1238 46.0273 43.5581 46.0273C42.9923 46.0273 42.5383 46.4814 42.5383 47.0472C42.5383 47.6129 42.9923 48.067 43.5581 48.067C44.1238 48.067 44.5779 47.6129 44.5779 47.0472Z" fill="white"/>
<path d="M49.3941 47.0472C49.3941 46.4814 48.94 46.0273 48.3742 46.0273C47.8085 46.0273 47.3544 46.4814 47.3544 47.0472C47.3544 47.6129 47.8085 48.067 48.3742 48.067C48.94 48.067 49.3941 47.6129 49.3941 47.0472Z" fill="white"/>
<path d="M35.2656 47.0472C35.2656 46.4814 34.8115 46.0273 34.2458 46.0273C33.68 46.0273 33.226 46.4814 33.226 47.0472C33.226 47.6129 33.68 48.067 34.2458 48.067C34.8041 48.067 35.2656 47.6129 35.2656 47.0472Z" fill="white"/>
<path d="M40.0892 47.0472C40.0892 46.4814 39.6351 46.0273 39.0694 46.0273C38.5036 46.0273 38.0496 46.4814 38.0496 47.0472C38.0496 47.6129 38.5036 48.067 39.0694 48.067C39.6351 48.067 40.0892 47.6129 40.0892 47.0472Z" fill="white"/>
<path d="M53.5328 47.0472C53.5328 46.4814 53.0788 46.0273 52.513 46.0273C51.9473 46.0273 51.4932 46.4814 51.4932 47.0472C51.4932 47.6129 51.9473 48.067 52.513 48.067C53.0788 48.067 53.5328 47.6129 53.5328 47.0472Z" fill="white"/>
<path d="M58.3565 47.0472C58.3565 46.4814 57.9024 46.0273 57.3366 46.0273C56.7709 46.0273 56.3168 46.4814 56.3168 47.0472C56.3168 47.6129 56.7709 48.067 57.3366 48.067C57.9024 48.067 58.3565 47.6129 58.3565 47.0472Z" fill="white"/>
<path d="M44.5779 42.5667C44.5779 42.001 44.1238 41.5469 43.5581 41.5469C42.9923 41.5469 42.5383 42.001 42.5383 42.5667C42.5383 43.1324 42.9923 43.5865 43.5581 43.5865C44.1238 43.5865 44.5779 43.1324 44.5779 42.5667Z" fill="white"/>
<path d="M49.3941 42.5667C49.3941 42.001 48.94 41.5469 48.3742 41.5469C47.8085 41.5469 47.3544 42.001 47.3544 42.5667C47.3544 43.1324 47.8085 43.5865 48.3742 43.5865C48.94 43.5865 49.3941 43.1324 49.3941 42.5667Z" fill="white"/>
<path d="M35.2656 42.5667C35.2656 42.001 34.8115 41.5469 34.2458 41.5469C33.68 41.5469 33.226 42.001 33.226 42.5667C33.226 43.1324 33.68 43.5865 34.2458 43.5865C34.8041 43.5939 35.2656 43.1324 35.2656 42.5667Z" fill="white"/>
<path d="M40.0892 42.5667C40.0892 42.001 39.6351 41.5469 39.0694 41.5469C38.5036 41.5469 38.0496 42.001 38.0496 42.5667C38.0496 43.1324 38.5036 43.5865 39.0694 43.5865C39.6351 43.5939 40.0892 43.1324 40.0892 42.5667Z" fill="white"/>
<path d="M53.5328 42.5667C53.5328 42.001 53.0788 41.5469 52.513 41.5469C51.9473 41.5469 51.4932 42.001 51.4932 42.5667C51.4932 43.1324 51.9473 43.5865 52.513 43.5865C53.0788 43.5939 53.5328 43.1324 53.5328 42.5667Z" fill="white"/>
<path d="M58.3565 42.5667C58.3565 42.001 57.9024 41.5469 57.3366 41.5469C56.7709 41.5469 56.3168 42.001 56.3168 42.5667C56.3168 43.1324 56.7709 43.5865 57.3366 43.5865C57.9024 43.5865 58.3565 43.1324 58.3565 42.5667Z" fill="white"/>
<path fill-rule="evenodd" clip-rule="evenodd" d="M57.0536 37.9359C57.0536 37.7426 57.2104 37.5859 57.4036 37.5859H62.7856C62.9789 37.5859 63.1356 37.7426 63.1356 37.9359V69.5129C63.1356 69.7062 62.9789 69.8629 62.7856 69.8629H57.4036C57.2104 69.8629 57.0536 69.7062 57.0536 69.5129C57.0536 69.3196 57.2104 69.1629 57.4036 69.1629H62.4356V38.2859H57.4036C57.2104 38.2859 57.0536 38.1292 57.0536 37.9359Z" fill="white"/>
<path fill-rule="evenodd" clip-rule="evenodd" d="M29.3177 37.9359C29.3177 37.7426 29.4744 37.5859 29.6677 37.5859H35.0497C35.243 37.5859 35.3997 37.7426 35.3997 37.9359C35.3997 38.1292 35.243 38.2859 35.0497 38.2859H30.0177V69.1629H35.0497C35.243 69.1629 35.3997 69.3196 35.3997 69.5129C35.3997 69.7062 35.243 69.8629 35.0497 69.8629H29.6677C29.4744 69.8629 29.3177 69.7062 29.3177 69.5129V37.9359Z" fill="white"/>
<path fill-rule="evenodd" clip-rule="evenodd" d="M62.525 65.4633C62.525 65.27 62.6817 65.1133 62.875 65.1133H70.6613C70.8546 65.1133 71.0113 65.27 71.0113 65.4633C71.0113 65.6566 70.8546 65.8133 70.6613 65.8133H62.875C62.6817 65.8133 62.525 65.6566 62.525 65.4633Z" fill="white"/>
<path fill-rule="evenodd" clip-rule="evenodd" d="M62.525 57.475C62.525 57.2817 62.6817 57.125 62.875 57.125H70.6613C70.8546 57.125 71.0113 57.2817 71.0113 57.475C71.0113 57.6683 70.8546 57.825 70.6613 57.825H62.875C62.6817 57.825 62.525 57.6683 62.525 57.475Z" fill="white"/>
<path fill-rule="evenodd" clip-rule="evenodd" d="M62.525 49.4887C62.525 49.2954 62.6817 49.1387 62.875 49.1387H70.6613C70.8546 49.1387 71.0113 49.2954 71.0113 49.4887C71.0113 49.682 70.8546 49.8387 70.6613 49.8387H62.875C62.6817 49.8387 62.525 49.682 62.525 49.4887Z" fill="white"/>
<path fill-rule="evenodd" clip-rule="evenodd" d="M62.525 41.5023C62.525 41.309 62.6817 41.1523 62.875 41.1523H70.6613C70.8546 41.1523 71.0113 41.309 71.0113 41.5023C71.0113 41.6956 70.8546 41.8523 70.6613 41.8523H62.875C62.6817 41.8523 62.525 41.6956 62.525 41.5023Z" fill="white"/>
<path d="M67.0733 68.8658H75.0159C75.4998 68.8658 75.8943 68.4712 75.8943 67.9874V63.1265C75.8943 62.6427 75.4998 62.2482 75.0159 62.2482H67.0659C66.582 62.2407 66.1875 62.6352 66.1875 63.1191V67.9799C66.1949 68.4712 66.582 68.8658 67.0733 68.8658Z" fill="#0078D4"/>
<path d="M67.0733 52.6817H75.0159C75.4998 52.6817 75.8943 52.2872 75.8943 51.8033V46.935C75.8943 46.4512 75.4998 46.0566 75.0159 46.0566H67.0659C66.582 46.0566 66.1875 46.4512 66.1875 46.935V51.7959C66.1949 52.2872 66.582 52.6817 67.0733 52.6817Z" fill="#50E6FF"/>
<path d="M67.0733 60.7876H75.0159C75.4998 60.7876 75.8943 60.3931 75.8943 59.9093V55.0484C75.8943 54.5646 75.4998 54.17 75.0159 54.17H67.0659C66.582 54.1626 66.1875 54.5571 66.1875 55.0484V59.9093C66.1949 60.3931 66.582 60.7876 67.0733 60.7876Z" fill="#3BCAF4"/>
<path d="M67.0733 44.6055H75.0159C75.4998 44.6055 75.8943 44.211 75.8943 43.7271V38.8588C75.8943 38.375 75.4998 37.9805 75.0159 37.9805H67.0659C66.582 37.9805 66.1875 38.375 66.1875 38.8588V43.7197C66.1949 44.211 66.582 44.6055 67.0733 44.6055Z" fill="#50E6FF"/>
<path d="M62.4251 62.666H51.1126V73.9704H62.4251V62.666Z" fill="#002D4C"/>
<path d="M60.1173 64.8203L55.1696 69.7923L53.6877 68.3023L52.6998 69.2983L55.1777 71.7843L61.1214 65.8244L60.1173 64.8203Z" fill="#FAF9F8"/>
<defs>
<linearGradient id="paint0_linear_331_15038" x1="49.9221" y1="-13.2315" x2="53.9041" y2="132.539" gradientUnits="userSpaceOnUse">
<stop stop-color="#00ABDE"/>
<stop offset="1" stop-color="#007ED8"/>
</linearGradient>
<linearGradient id="paint1_linear_331_15038" x1="3.12643" y1="-20.0641" x2="98.654" y2="120.817" gradientUnits="userSpaceOnUse">
<stop stop-color="#007ED8"/>
<stop offset="0.7065" stop-color="#002D4C"/>
</linearGradient>
<linearGradient id="paint2_linear_331_15038" x1="51.8611" y1="28.125" x2="51.8611" y2="76.3106" gradientUnits="userSpaceOnUse">
<stop stop-color="#008BF1"/>
<stop offset="0.22" stop-color="#0086EC"/>
<stop offset="0.49" stop-color="#0078DD"/>
<stop offset="0.79" stop-color="#0061C4"/>
<stop offset="1" stop-color="#004DAE"/>
</linearGradient>
</defs>
</svg>
