<svg width="103" height="103" viewBox="0 0 103 103" fill="none" xmlns="http://www.w3.org/2000/svg">
<path d="M51.0016 101.742C49.3716 101.742 47.7616 101.282 46.3316 100.422L13.1916 80.2816C10.2316 78.4816 8.3916 75.0916 8.3916 71.4416V31.4816C8.3916 27.8316 10.2316 24.4416 13.1916 22.6416L46.3316 2.5016C49.1716 0.771602 52.8316 0.771602 55.6616 2.5016L88.8016 22.6416C91.7616 24.4416 93.6016 27.8316 93.6016 31.4816V71.4316C93.6016 75.0816 91.7616 78.4716 88.8016 80.2716L55.6716 100.422C54.2516 101.282 52.6316 101.742 51.0016 101.742ZM48.1016 5.4116L14.9616 25.5516C13.0116 26.7416 11.8016 29.0116 11.8016 31.4816V71.4316C11.8016 73.9016 13.0116 76.1716 14.9616 77.3616L48.1016 97.5116C49.8816 98.5916 52.1216 98.5916 53.8916 97.5116L87.0316 77.3716C88.9816 76.1816 90.1916 73.9116 90.1916 71.4416V31.4816C90.1916 29.0116 88.9816 26.7416 87.0316 25.5516L53.8916 5.4116C52.1316 4.3316 49.8816 4.3316 48.1016 5.4116Z" fill="#F2F1F0"/>
<path fill-rule="evenodd" clip-rule="evenodd" d="M46.7813 7.00176C48.0913 6.20176 49.5413 5.80176 50.9913 5.80176C52.4413 5.80176 53.9013 6.20176 55.2013 7.00176L85.1113 25.2918C87.7913 26.9318 89.4413 29.9918 89.4413 33.3218V69.6018C89.4413 72.9218 87.7813 75.9918 85.1113 77.6318L55.2013 95.9218C53.9013 96.7218 52.4413 97.1218 50.9913 97.1218C49.5413 97.1218 48.0913 96.7218 46.7813 95.9218L16.8813 77.6318C14.2013 75.9918 12.5513 72.9318 12.5513 69.6018V33.3218C12.5513 30.0018 14.2013 26.9318 16.8813 25.2918L46.7813 7.00176Z" fill="#965596"/>
<path d="M51.0017 98.7216C49.4717 98.7216 47.9517 98.2916 46.6117 97.4816L15.4617 78.5416C12.6817 76.8516 10.9517 73.6616 10.9517 70.2316V32.6816C10.9517 29.2516 12.6817 26.0616 15.4617 24.3716L46.6117 5.44156C49.2817 3.82156 52.7217 3.82156 55.3817 5.44156L86.5417 24.3716C89.3217 26.0616 91.0517 29.2516 91.0517 32.6816V70.2316C91.0517 73.6616 89.3217 76.8516 86.5417 78.5416L55.3917 97.4816C54.0517 98.2916 52.5317 98.7216 51.0017 98.7216ZM48.2817 8.18156L17.1317 27.1116C15.3017 28.2316 14.1617 30.3616 14.1617 32.6816V70.2316C14.1617 72.5516 15.3017 74.6916 17.1317 75.8016L48.2817 94.7316C49.9517 95.7416 52.0617 95.7416 53.7217 94.7316L84.8717 75.8016C86.7017 74.6916 87.8417 72.5516 87.8417 70.2316V32.6816C87.8417 30.3616 86.7017 28.2316 84.8717 27.1116L53.7217 8.18156C52.0617 7.17156 49.9517 7.17156 48.2817 8.18156Z" fill="#742774"/>
<path fill-rule="evenodd" clip-rule="evenodd" d="M51.0013 79.8617C47.8413 79.8617 44.7113 79.4617 41.7013 78.6517C41.1013 78.4917 40.6113 78.0717 40.3713 77.5117C40.1313 76.9517 40.1613 76.2917 40.4713 75.7617C41.4813 73.9717 42.0113 71.9317 42.0113 69.8917C42.0113 63.2817 36.6413 57.9217 30.0413 57.9217C27.5713 57.9217 25.1913 58.6717 23.1613 60.0917C22.6413 60.4617 21.9613 60.5617 21.3613 60.3517C20.7513 60.1417 20.2813 59.6417 20.1013 59.0317C19.4213 56.7117 19.0713 54.3217 19.0713 51.9217C19.0713 36.5217 33.4013 23.9817 51.0013 23.9817C68.6013 23.9817 82.9313 36.5117 82.9313 51.9217C82.9313 67.3317 68.6013 79.8617 51.0013 79.8617Z" fill="#EFB252"/>
<path fill-rule="evenodd" clip-rule="evenodd" d="M51.0015 77.8617C47.8415 77.8617 44.7115 77.4617 41.7015 76.6517C41.1015 76.4917 40.6115 76.0717 40.3715 75.5117C40.1315 74.9417 40.1615 74.2917 40.4715 73.7617C41.4815 71.9717 42.0015 69.9317 42.0015 67.8917C42.0015 61.2817 36.6315 55.9217 30.0315 55.9217C27.5615 55.9217 25.1815 56.6717 23.1515 58.0917C22.6315 58.4617 21.9515 58.5517 21.3515 58.3417C20.7415 58.1317 20.2715 57.6317 20.0915 57.0317C19.4115 54.7117 19.0615 52.3217 19.0615 49.9217C19.0615 34.5217 33.3915 21.9817 50.9915 21.9817C68.5915 21.9817 82.9215 34.5117 82.9215 49.9217C82.9215 65.3317 68.6015 77.8617 51.0015 77.8617Z" fill="#F7CB64"/>
<path d="M52.8417 32.4617L49.7017 29.2217C49.2817 28.7717 48.5617 28.8017 48.1617 29.2617L34.9017 44.4117C34.3017 45.0817 34.3017 46.1017 34.9017 46.7717L48.0417 61.8717C48.5317 62.4417 49.4217 62.4417 49.9117 61.8717L53.8317 57.3517L54.2617 34.0517L52.8417 32.4617Z" fill="url(#paint0_linear)"/>
<path d="M68.2816 43.7616L55.2016 29.4716C54.6516 28.8616 53.6816 28.8516 53.1116 29.4516L47.0816 35.6816C46.4316 36.3516 46.4216 37.4316 47.0616 38.1216L53.2516 44.7616C53.7116 45.2516 53.7116 46.0016 53.2516 46.4916L47.0416 53.2116C46.4116 53.8916 46.4116 54.9616 47.0716 55.6316L53.1116 61.9116C53.6916 62.5116 54.6416 62.5016 55.2116 61.8916L68.2816 47.5016C69.2516 46.4316 69.2416 44.8116 68.2816 43.7616Z" fill="url(#paint1_linear)"/>
<path d="M68.8915 46.8218L63.0515 53.2918C62.6015 53.7818 61.8415 53.7918 61.3915 53.3218L55.5215 47.3318C54.5615 46.3618 54.5615 44.8218 55.5115 43.8318L61.2615 37.8818C61.7215 37.4118 62.4915 37.4218 62.9215 37.9118L68.8815 44.4718C69.5015 45.1418 69.5015 46.1518 68.8915 46.8218Z" fill="url(#paint2_linear)"/>
<defs>
<linearGradient id="paint0_linear" x1="43.5355" y1="30.1592" x2="45.9669" y2="58.7295" gradientUnits="userSpaceOnUse">
<stop stop-color="#A23093"/>
<stop offset="1" stop-color="#692266"/>
</linearGradient>
<linearGradient id="paint1_linear" x1="46.5705" y1="45.681" x2="69.0064" y2="45.681" gradientUnits="userSpaceOnUse">
<stop stop-color="#E184C4"/>
<stop offset="1" stop-color="#D76EBC"/>
</linearGradient>
<linearGradient id="paint2_linear" x1="54.8232" y1="45.5919" x2="69.3454" y2="45.5919" gradientUnits="userSpaceOnUse">
<stop stop-color="#E89BCA"/>
<stop offset="1" stop-color="#E591C8"/>
</linearGradient>
</defs>
</svg>
