<svg width="103" height="103" viewBox="0 0 103 103" fill="none" xmlns="http://www.w3.org/2000/svg">
<path d="M51.2473 98.3461C25.3973 98.3461 4.43726 77.3961 4.43726 51.5361C4.43726 25.6761 25.3973 4.72607 51.2473 4.72607C77.0973 4.72607 98.0573 25.6861 98.0573 51.5361C98.0573 77.3861 77.0973 98.3461 51.2473 98.3461Z" fill="#F9E488"/>
<path fill-rule="evenodd" clip-rule="evenodd" d="M51.2473 1.53613C78.8573 1.53613 101.247 23.9261 101.247 51.5361C101.247 79.1461 78.8573 101.536 51.2473 101.536C23.6373 101.536 1.24731 79.1461 1.24731 51.5361C1.24731 23.9261 23.6373 1.53613 51.2473 1.53613ZM51.2473 97.2961C76.5173 97.2961 97.0073 76.8061 97.0073 51.5361C97.0073 26.2661 76.5173 5.77613 51.2473 5.77613C25.9773 5.77613 5.48731 26.2661 5.48731 51.5361C5.48731 76.8061 25.9773 97.2961 51.2473 97.2961Z" fill="#D9D9D9"/>
<path fill-rule="evenodd" clip-rule="evenodd" d="M97.1472 51.536C97.1472 76.886 76.5972 97.436 51.2472 97.436C25.8972 97.436 5.34718 76.886 5.34718 51.536C5.34718 26.186 25.8972 5.636 51.2472 5.636C76.5972 5.636 97.1472 26.186 97.1472 51.536ZM51.2472 1.896C78.6672 1.896 100.887 24.116 100.887 51.536C100.887 78.956 78.6572 101.176 51.2472 101.176C23.8272 101.176 1.60718 78.946 1.60718 51.536C1.60718 24.116 23.8272 1.896 51.2472 1.896Z" fill="#F2F1F0"/>
<path fill-rule="evenodd" clip-rule="evenodd" d="M94.3372 51.5361C94.3372 75.3361 75.0472 94.6261 51.2472 94.6261C27.4472 94.6261 8.15724 75.3361 8.15724 51.5361C8.15724 27.7361 27.4472 8.44605 51.2472 8.44605C75.0472 8.44605 94.3372 27.7361 94.3372 51.5361ZM51.2472 4.70605C77.1072 4.70605 98.0772 25.6761 98.0772 51.5361C98.0772 77.3961 77.1072 98.3661 51.2472 98.3661C25.3872 98.3661 4.41724 77.3961 4.41724 51.5361C4.41724 25.6761 25.3772 4.70605 51.2472 4.70605Z" fill="#F3C900"/>
<path d="M64.0672 75.8362C57.9272 74.8562 57.6872 70.3562 57.6872 63.0762H45.5172C45.5172 70.3462 45.3072 74.8462 39.1772 75.8362C37.4272 76.0362 36.0972 77.5462 36.1072 79.3462H67.1372C67.1472 77.5562 65.8172 76.0362 64.0672 75.8362Z" fill="url(#paint0_linear)"/>
<path fill-rule="evenodd" clip-rule="evenodd" d="M21.6174 25.4761H81.5174V65.0061H21.6174V25.4761V25.4761Z" fill="white"/>
<path fill-rule="evenodd" clip-rule="evenodd" d="M79.5374 25.4761C80.6374 25.4761 81.5174 26.3561 81.5174 27.4361V63.0361C81.5174 64.1161 80.6274 64.9961 79.5374 64.9961H23.5974C22.4974 64.9961 21.6174 64.1161 21.6174 63.0361V27.4461C21.6174 26.3661 22.5074 25.4861 23.5974 25.4861L79.5374 25.4761Z" fill="url(#paint1_linear)"/>
<path d="M74.6174 32.436H29.6174V54.436H74.6174V32.436Z" fill="#D8D8D8" stroke="white"/>
<path d="M74.6174 32.436H29.6174V39.436H74.6174V32.436Z" fill="url(#paint2_linear)" stroke="#FFFDFD"/>
<path d="M44.6174 39.436H29.6174V44.436H44.6174V39.436Z" fill="url(#paint3_linear)" stroke="#FFFDFD"/>
<path d="M44.6174 44.436H29.6174V49.436H44.6174V44.436Z" fill="url(#paint4_linear)" stroke="#FFFDFD"/>
<path d="M44.6174 49.436H29.6174V54.436H44.6174V49.436Z" fill="url(#paint5_linear)" stroke="#FFFDFD"/>
<path d="M59.6174 39.436H44.6174V44.436H59.6174V39.436Z" fill="url(#paint6_linear)" stroke="#FFFDFD"/>
<path d="M59.6174 44.436H44.6174V49.436H59.6174V44.436Z" fill="url(#paint7_linear)" stroke="#FFFDFD"/>
<path d="M59.6174 49.436H44.6174V54.436H59.6174V49.436Z" fill="url(#paint8_linear)" stroke="#FFFDFD"/>
<path d="M74.6174 39.436H59.6174V44.436H74.6174V39.436Z" fill="url(#paint9_linear)" stroke="#FFFDFD"/>
<path d="M74.6174 44.436H59.6174V49.436H74.6174V44.436Z" fill="url(#paint10_linear)" stroke="#FFFDFD"/>
<path d="M74.6174 49.436H59.6174V54.436H74.6174V49.436Z" fill="url(#paint11_linear)" stroke="#FFFDFD"/>
<path d="M21.2774 69.4562L37.3074 51.5862C37.5174 51.3462 37.8774 51.3362 38.1074 51.5462L41.9674 55.0362C42.2074 55.2462 42.2274 55.5962 42.0074 55.8462L25.9874 73.7062C25.7774 73.9462 25.4174 73.9562 25.1874 73.7562L21.3274 70.2562C21.0774 70.0462 21.0674 69.6962 21.2774 69.4562Z" fill="#BDA105"/>
<path d="M50.7974 18.2559C62.4674 17.6459 72.4374 26.6159 73.0474 38.2959C73.6574 49.9659 64.6974 59.9359 53.0174 60.5559C41.3374 61.1659 31.3774 52.1959 30.7674 40.5159C30.1474 28.8359 39.1174 18.8759 50.7974 18.2559ZM50.8774 23.0559C41.7174 23.5359 34.6874 31.3559 35.1674 40.5059C35.6474 49.6559 43.4574 56.6859 52.6074 56.2059C61.7574 55.7259 68.7974 47.9159 68.3174 38.7659C67.8374 29.6159 60.0274 22.5759 50.8774 23.0559Z" fill="#F7CF00"/>
<path opacity="0.5602" d="M52.6074 56.2064C61.7574 55.7264 68.7974 47.9164 68.3174 38.7664C67.8374 29.6164 60.0274 22.5764 50.8774 23.0564C41.7274 23.5364 34.6874 31.3464 35.1674 40.5064C35.6474 49.6664 43.4574 56.6864 52.6074 56.2064Z" fill="white"/>
<defs>
<linearGradient id="paint0_linear" x1="51.6216" y1="79.3443" x2="51.6216" y2="63.0743" gradientUnits="userSpaceOnUse">
<stop offset="0.15" stop-color="#CCCCCC"/>
<stop offset="1" stop-color="#707070"/>
</linearGradient>
<linearGradient id="paint1_linear" x1="51.5668" y1="25.7441" x2="51.5668" y2="65.0042" gradientUnits="userSpaceOnUse">
<stop stop-color="#6A6A6A"/>
<stop offset="1" stop-color="#343333"/>
</linearGradient>
<linearGradient id="paint2_linear" x1="52.1168" y1="32.4342" x2="52.1168" y2="39.4342" gradientUnits="userSpaceOnUse">
<stop stop-color="#E5E3E3"/>
<stop offset="1" stop-color="#C6C3C3"/>
</linearGradient>
<linearGradient id="paint3_linear" x1="37.1168" y1="39.4342" x2="37.1168" y2="44.4342" gradientUnits="userSpaceOnUse">
<stop stop-color="#7D8E9D"/>
<stop offset="1" stop-color="#A7AAB4"/>
</linearGradient>
<linearGradient id="paint4_linear" x1="37.1168" y1="44.4342" x2="37.1168" y2="49.4342" gradientUnits="userSpaceOnUse">
<stop stop-color="#7D8E9D"/>
<stop offset="1" stop-color="#A7AAB4"/>
</linearGradient>
<linearGradient id="paint5_linear" x1="37.1168" y1="49.4342" x2="37.1168" y2="54.4342" gradientUnits="userSpaceOnUse">
<stop stop-color="#7D8E9D"/>
<stop offset="1" stop-color="#A7AAB4"/>
</linearGradient>
<linearGradient id="paint6_linear" x1="52.1168" y1="39.4342" x2="52.1168" y2="44.4342" gradientUnits="userSpaceOnUse">
<stop stop-color="#7D8E9D"/>
<stop offset="1" stop-color="#A7AAB4"/>
</linearGradient>
<linearGradient id="paint7_linear" x1="52.1168" y1="44.4342" x2="52.1168" y2="49.4342" gradientUnits="userSpaceOnUse">
<stop stop-color="#7D8E9D"/>
<stop offset="1" stop-color="#A7AAB4"/>
</linearGradient>
<linearGradient id="paint8_linear" x1="52.1168" y1="49.4342" x2="52.1168" y2="54.4342" gradientUnits="userSpaceOnUse">
<stop stop-color="#7D8E9D"/>
<stop offset="1" stop-color="#A7AAB4"/>
</linearGradient>
<linearGradient id="paint9_linear" x1="67.1168" y1="39.4342" x2="67.1168" y2="44.4342" gradientUnits="userSpaceOnUse">
<stop stop-color="#7D8E9D"/>
<stop offset="1" stop-color="#A7AAB4"/>
</linearGradient>
<linearGradient id="paint10_linear" x1="67.1168" y1="44.4342" x2="67.1168" y2="49.4342" gradientUnits="userSpaceOnUse">
<stop stop-color="#7D8E9D"/>
<stop offset="1" stop-color="#A7AAB4"/>
</linearGradient>
<linearGradient id="paint11_linear" x1="67.1168" y1="49.4342" x2="67.1168" y2="54.4342" gradientUnits="userSpaceOnUse">
<stop stop-color="#7D8E9D"/>
<stop offset="1" stop-color="#A7AAB4"/>
</linearGradient>
</defs>
</svg>
