<svg width="103" height="103" viewBox="0 0 103 103" fill="none" xmlns="http://www.w3.org/2000/svg">
<path d="M51.9767 98.1722C26.1267 98.1722 5.16675 77.2222 5.16675 51.3622C5.16675 25.5022 26.1267 4.55225 51.9767 4.55225C77.8267 4.55225 98.7867 25.5122 98.7867 51.3622C98.7867 77.2122 77.8267 98.1722 51.9767 98.1722Z" fill="#F9E488"/>
<path fill-rule="evenodd" clip-rule="evenodd" d="M51.9768 1.3623C79.5868 1.3623 101.977 23.7523 101.977 51.3623C101.977 78.9723 79.5868 101.362 51.9768 101.362C24.3668 101.362 1.97681 78.9723 1.97681 51.3623C1.97681 23.7523 24.3668 1.3623 51.9768 1.3623ZM51.9768 97.1223C77.2468 97.1223 97.7368 76.6323 97.7368 51.3623C97.7368 26.0923 77.2468 5.6023 51.9768 5.6023C26.7068 5.6023 6.21681 26.0923 6.21681 51.3623C6.21681 76.6323 26.7068 97.1223 51.9768 97.1223Z" fill="#D9D9D9"/>
<path fill-rule="evenodd" clip-rule="evenodd" d="M97.8767 51.3622C97.8767 76.7122 77.3267 97.2622 51.9767 97.2622C26.6267 97.2622 6.07667 76.7122 6.07667 51.3622C6.07667 26.0122 26.6267 5.46217 51.9767 5.46217C77.3267 5.46217 97.8767 26.0122 97.8767 51.3622ZM51.9767 1.72217C79.3967 1.72217 101.617 23.9422 101.617 51.3622C101.617 78.7822 79.3867 101.002 51.9767 101.002C24.5567 101.002 2.33667 78.7722 2.33667 51.3622C2.33667 23.9422 24.5567 1.72217 51.9767 1.72217Z" fill="#F2F1F0"/>
<path fill-rule="evenodd" clip-rule="evenodd" d="M95.0667 51.3622C95.0667 75.1622 75.7767 94.4522 51.9767 94.4522C28.1767 94.4522 8.88673 75.1622 8.88673 51.3622C8.88673 27.5622 28.1767 8.27223 51.9767 8.27223C75.7767 8.27223 95.0667 27.5622 95.0667 51.3622ZM51.9767 4.53223C77.8367 4.53223 98.8067 25.5022 98.8067 51.3622C98.8067 77.2222 77.8367 98.1922 51.9767 98.1922C26.1167 98.1922 5.14673 77.2222 5.14673 51.3622C5.14673 25.5022 26.1067 4.53223 51.9767 4.53223Z" fill="#F3C900"/>
<path d="M78.9668 76.3525C78.6568 76.3525 78.4068 76.1025 78.4068 75.7925C78.4068 72.2725 75.5468 69.4125 72.0268 69.4125C71.7168 69.4125 71.4668 69.1625 71.4668 68.8525C71.4668 68.7025 71.5268 68.5625 71.6268 68.4525C71.7268 68.3425 71.8768 68.2925 72.0268 68.2925C75.5468 68.2925 78.4068 65.4325 78.4068 61.9125C78.4068 61.6025 78.6568 61.3525 78.9668 61.3525C79.2768 61.3525 79.5268 61.6025 79.5268 61.9125C79.5268 65.4325 82.3868 68.2925 85.9068 68.2925C86.2168 68.2925 86.4668 68.5425 86.4668 68.8525C86.4668 69.1625 86.2168 69.4125 85.9068 69.4125C82.3868 69.4125 79.5268 72.2725 79.5268 75.7925C79.5268 76.1025 79.2768 76.3525 78.9668 76.3525Z" fill="white"/>
<path d="M63.4969 77.0424C57.5669 76.0924 57.3269 71.7424 57.3269 64.7124H45.5669C45.5669 71.7424 45.3669 76.0924 39.4369 77.0424C37.7369 77.2324 36.4569 78.7024 36.4669 80.4424H66.4669C66.4769 78.7024 65.1969 77.2324 63.4969 77.0424Z" fill="url(#paint0_linear)"/>
<mask id="mask0" mask-type="alpha" maskUnits="userSpaceOnUse" x="22" y="27" width="59" height="39">
<path fill-rule="evenodd" clip-rule="evenodd" d="M22.4668 27.3926H80.3768V65.6026H22.4668V27.3926Z" fill="white"/>
</mask>
<g mask="url(#mask0)">
<path fill-rule="evenodd" clip-rule="evenodd" d="M78.4568 27.3926C79.5168 27.3926 80.3768 28.2426 80.3768 29.2926V63.7026C80.3768 64.7526 79.5168 65.6026 78.4568 65.6026H24.3868C23.3268 65.6026 22.4668 64.7526 22.4668 63.7026V29.2926C22.4668 28.2426 23.3268 27.3926 24.3868 27.3926H78.4568Z" fill="url(#paint1_linear)"/>
<path d="M26.4167 30.4126H39.0867C39.6667 30.4126 40.1367 30.8826 40.1367 31.4626C40.1367 32.0426 39.6667 32.5126 39.0867 32.5126H26.4167C25.8367 32.5126 25.3667 32.0426 25.3667 31.4626C25.3667 30.8826 25.8367 30.4126 26.4167 30.4126Z" fill="white"/>
<path d="M26.4167 34.8228H33.4567C34.0367 34.8228 34.5067 35.2928 34.5067 35.8728C34.5067 36.4528 34.0367 36.9228 33.4567 36.9228H26.4167C25.8367 36.9228 25.3667 36.4528 25.3667 35.8728C25.3667 35.2928 25.8367 34.8228 26.4167 34.8228Z" fill="white"/>
<path fill-rule="evenodd" clip-rule="evenodd" d="M64.7869 35.0728C64.7669 35.0728 64.7569 35.0728 64.7369 35.0728C60.3569 35.0728 56.7969 38.6228 56.7969 43.0128C56.7969 47.4028 60.3469 50.9528 64.7369 50.9528C69.1269 50.9528 72.6769 47.4028 72.6769 43.0128C72.6769 42.9828 72.6769 42.9528 72.6769 42.9228H64.7869V35.0728Z" fill="white"/>
<path fill-rule="evenodd" clip-rule="evenodd" d="M67.3867 32.2324V40.0724H75.2767C75.2267 35.7524 71.7167 32.2624 67.3867 32.2324Z" fill="#F7CF00"/>
<path d="M46.5167 60.5922H38.5867V36.8522C38.5867 36.0022 39.2767 35.3022 40.1367 35.3022H46.5267C47.3767 35.3022 48.0767 35.9922 48.0767 36.8522V59.0422C48.0667 59.8922 47.3767 60.5922 46.5167 60.5922Z" fill="url(#paint2_linear)"/>
<path d="M41.3868 60.5922H33.2568V43.1122C33.2568 42.3722 33.8568 41.7622 34.6068 41.7622H41.3868C42.1268 41.7622 42.7368 42.3622 42.7368 43.1122V59.2422C42.7368 59.9822 42.1268 60.5922 41.3868 60.5922Z" fill="url(#paint3_linear)"/>
<path d="M35.8867 60.5921H29.9167C28.9467 60.5921 28.1567 59.8021 28.1567 58.8321V49.7121C28.1567 48.7421 28.9467 47.9521 29.9167 47.9521H35.8867C36.8567 47.9521 37.6467 48.7421 37.6467 49.7121V58.8321C37.6367 59.8021 36.8567 60.5921 35.8867 60.5921Z" fill="url(#paint4_linear)"/>
<path d="M19.9668 52.3525C19.7768 52.3525 19.5968 52.2825 19.4668 52.1425C19.3368 52.0125 19.2568 51.8325 19.2568 51.6425C19.2468 47.1825 15.6368 43.5625 11.1768 43.5625C10.7868 43.5625 10.4668 43.2525 10.4668 42.8625C10.4668 42.4725 10.7868 42.1525 11.1768 42.1525C15.6368 42.1425 19.2568 38.5325 19.2568 34.0625C19.2568 33.8725 19.3268 33.6925 19.4668 33.5625C19.5968 33.4325 19.7768 33.3525 19.9668 33.3525C20.1568 33.3525 20.3368 33.4225 20.4668 33.5625C20.5968 33.6925 20.6768 33.8725 20.6768 34.0625C20.6868 38.5225 24.2968 42.1425 28.7568 42.1425C28.9468 42.1425 29.1268 42.2125 29.2568 42.3525C29.3868 42.4825 29.4668 42.6625 29.4668 42.8525C29.4668 43.0425 29.3968 43.2225 29.2568 43.3525C29.1268 43.4825 28.9468 43.5625 28.7568 43.5625C24.2968 43.5625 20.6768 47.1825 20.6768 51.6425C20.6768 52.0325 20.3568 52.3525 19.9668 52.3525Z" fill="white"/>
</g>
<defs>
<linearGradient id="paint0_linear" x1="51.467" y1="80.442" x2="51.467" y2="64.712" gradientUnits="userSpaceOnUse">
<stop offset="0.15" stop-color="#CCCCCC"/>
<stop offset="1" stop-color="#707070"/>
</linearGradient>
<linearGradient id="paint1_linear" x1="51.4218" y1="27.638" x2="51.4218" y2="65.5931" gradientUnits="userSpaceOnUse">
<stop stop-color="#6A6A6A"/>
<stop offset="1" stop-color="#343333"/>
</linearGradient>
<linearGradient id="paint2_linear" x1="43.2214" y1="37.6176" x2="43.4231" y2="58.5956" gradientUnits="userSpaceOnUse">
<stop offset="0.00753769" stop-color="#E0A310"/>
<stop offset="1" stop-color="#CA810E"/>
</linearGradient>
<linearGradient id="paint3_linear" x1="37.7347" y1="42.493" x2="38.3398" y2="64.6815" gradientUnits="userSpaceOnUse">
<stop offset="0.00753769" stop-color="#F2CC40"/>
<stop offset="1" stop-color="#E7B116"/>
</linearGradient>
<linearGradient id="paint4_linear" x1="32.6758" y1="48.926" x2="33.2809" y2="63.2478" gradientUnits="userSpaceOnUse">
<stop stop-color="#F8E17B"/>
<stop offset="0.5302" stop-color="#F6D856"/>
<stop offset="1" stop-color="#F6D856"/>
</linearGradient>
</defs>
</svg>
