<?xml version="1.0" encoding="UTF-8"?>
<svg width="106px" height="107px" viewBox="0 0 106 107" version="1.1" xmlns="http://www.w3.org/2000/svg" xmlns:xlink="http://www.w3.org/1999/xlink">
    <!-- Generator: Sketch 64 (93537) - https://sketch.com -->
    <title>NA/Create-reports-in-Power-BI</title>
    <desc>Created with Sketch.</desc>
    <defs>
        <rect id="path-1" x="0" y="0" width="100" height="100" rx="50"></rect>
        <filter x="-2.8%" y="-2.8%" width="106.0%" height="106.0%" filterUnits="objectBoundingBox" id="filter-3">
            <feMorphology radius="2.5" operator="dilate" in="SourceAlpha" result="shadowSpreadOuter1"></feMorphology>
            <feOffset dx="0.5" dy="0.5" in="shadowSpreadOuter1" result="shadowOffsetOuter1"></feOffset>
            <feMorphology radius="1" operator="erode" in="SourceAlpha" result="shadowInner"></feMorphology>
            <feOffset dx="0.5" dy="0.5" in="shadowInner" result="shadowInner"></feOffset>
            <feComposite in="shadowOffsetOuter1" in2="shadowInner" operator="out" result="shadowOffsetOuter1"></feComposite>
            <feColorMatrix values="0 0 0 0 0.821822822   0 0 0 0 0.831640661   0 0 0 0 0.835737288  0 0 0 1 0" type="matrix" in="shadowOffsetOuter1"></feColorMatrix>
        </filter>
        <linearGradient x1="50%" y1="0%" x2="50%" y2="100%" id="linearGradient-4">
            <stop stop-color="#4E4E57" offset="0%"></stop>
            <stop stop-color="#2E2E34" offset="100%"></stop>
        </linearGradient>
        <rect id="path-5" x="0" y="0" width="100" height="100"></rect>
        <path d="M50,0 C77.6142375,0 100,22.3857625 100,50 C100,77.6142375 77.6142375,100 50,100 C22.3857625,100 0,77.6142375 0,50 C0,22.3857625 22.3857625,0 50,0 Z M50,4 C24.5949015,4 4,24.5949015 4,50 C4,75.4050985 24.5949015,96 50,96 C75.4050985,96 96,75.4050985 96,50 C96,24.5949015 75.4050985,4 50,4 Z" id="path-6"></path>
        <filter x="-24.0%" y="-20.3%" width="148.0%" height="141.9%" filterUnits="objectBoundingBox" id="filter-8">
            <feOffset dx="0" dy="2" in="SourceAlpha" result="shadowOffsetOuter1"></feOffset>
            <feGaussianBlur stdDeviation="2" in="shadowOffsetOuter1" result="shadowBlurOuter1"></feGaussianBlur>
            <feColorMatrix values="0 0 0 0 0   0 0 0 0 0   0 0 0 0 0  0 0 0 0.1 0" type="matrix" in="shadowBlurOuter1" result="shadowMatrixOuter1"></feColorMatrix>
            <feMerge>
                <feMergeNode in="shadowMatrixOuter1"></feMergeNode>
                <feMergeNode in="SourceGraphic"></feMergeNode>
            </feMerge>
        </filter>
        <linearGradient x1="50%" y1="0.670396959%" x2="50%" y2="100%" id="linearGradient-9">
            <stop stop-color="#6A6A6A" offset="0%"></stop>
            <stop stop-color="#343333" offset="100%"></stop>
        </linearGradient>
        <linearGradient x1="50%" y1="97.5691716%" x2="50%" y2="-5.30956676%" id="linearGradient-10">
            <stop stop-color="#0078D4" offset="0%"></stop>
            <stop stop-color="#1380DA" offset="16%"></stop>
            <stop stop-color="#3C91E5" offset="53%"></stop>
            <stop stop-color="#559CEC" offset="82%"></stop>
            <stop stop-color="#5EA0EF" offset="100%"></stop>
        </linearGradient>
        <linearGradient x1="50%" y1="0%" x2="50%" y2="100%" id="linearGradient-11">
            <stop stop-color="#DA3A00" offset="0%"></stop>
            <stop stop-color="#DA3A00" offset="100%"></stop>
        </linearGradient>
        <linearGradient x1="50%" y1="2.04550253%" x2="50%" y2="100%" id="linearGradient-12">
            <stop stop-color="#FFE02A" offset="0%"></stop>
            <stop stop-color="#FFB518" offset="100%"></stop>
        </linearGradient>
        <filter x="-24.0%" y="-20.3%" width="148.0%" height="141.9%" filterUnits="objectBoundingBox" id="filter-13">
            <feOffset dx="0" dy="2" in="SourceAlpha" result="shadowOffsetOuter1"></feOffset>
            <feGaussianBlur stdDeviation="2" in="shadowOffsetOuter1" result="shadowBlurOuter1"></feGaussianBlur>
            <feColorMatrix values="0 0 0 0 0   0 0 0 0 0   0 0 0 0 0  0 0 0 0.1 0" type="matrix" in="shadowBlurOuter1" result="shadowMatrixOuter1"></feColorMatrix>
            <feMerge>
                <feMergeNode in="shadowMatrixOuter1"></feMergeNode>
                <feMergeNode in="SourceGraphic"></feMergeNode>
            </feMerge>
        </filter>
        <linearGradient x1="50%" y1="0.670396959%" x2="50%" y2="100%" id="linearGradient-14">
            <stop stop-color="#343333" offset="0%"></stop>
            <stop stop-color="#6A6A6A" offset="100%"></stop>
        </linearGradient>
        <filter x="-24.0%" y="-20.3%" width="148.0%" height="141.9%" filterUnits="objectBoundingBox" id="filter-15">
            <feOffset dx="0" dy="2" in="SourceAlpha" result="shadowOffsetOuter1"></feOffset>
            <feGaussianBlur stdDeviation="2" in="shadowOffsetOuter1" result="shadowBlurOuter1"></feGaussianBlur>
            <feColorMatrix values="0 0 0 0 0   0 0 0 0 0   0 0 0 0 0  0 0 0 0.1 0" type="matrix" in="shadowBlurOuter1" result="shadowMatrixOuter1"></feColorMatrix>
            <feMerge>
                <feMergeNode in="shadowMatrixOuter1"></feMergeNode>
                <feMergeNode in="SourceGraphic"></feMergeNode>
            </feMerge>
        </filter>
    </defs>
    <g id="Badges" stroke="none" stroke-width="1" fill="none" fill-rule="evenodd">
        <g id="N/A-5" transform="translate(-160.000000, -1270.000000)">
            <g id="NA/Create-reports-in-Power-BI" transform="translate(160.000000, 1270.000000)">
                <g id="Badge-Plates/Circle">
                    <g id="BG" transform="translate(3.000000, 3.000000)">
                        <mask id="mask-2" fill="white">
                            <use xlink:href="#path-1"></use>
                        </mask>
                        <g>
                            <use fill="black" fill-opacity="1" filter="url(#filter-3)" xlink:href="#path-1"></use>
                            <rect stroke="#F2F1F0" stroke-width="2.5" x="-1.25" y="-1.25" width="102.5" height="102.5" rx="50"></rect>
                        </g>
                        <g id="Colors/Power-BI/BG-Solid-1" mask="url(#mask-2)">
                            <rect id="Rectangle" fill="url(#linearGradient-4)" x="0" y="0" width="100" height="100"></rect>
                            <g id="Rectangle">
                                <use fill="#F2C811" xlink:href="#path-5"></use>
                                <use fill-opacity="0.501092657" fill="#FFFFFF" xlink:href="#path-5"></use>
                            </g>
                        </g>
                    </g>
                    <g id="Border" transform="translate(3.000000, 3.000000)">
                        <mask id="mask-7" fill="white">
                            <use xlink:href="#path-6"></use>
                        </mask>
                        <use id="Boarder" fill="#0078D4" fill-rule="nonzero" xlink:href="#path-6"></use>
                        <g id="Colors/Power-BI/Border" mask="url(#mask-7)" fill="#F3C900">
                            <rect id="Rectangle" x="0" y="0" width="100" height="100"></rect>
                        </g>
                    </g>
                </g>
                <g id="Group-5" transform="translate(55.440718, 51.586798) rotate(7.000000) translate(-55.440718, -51.586798) translate(30.440718, 21.824893)" fill-rule="nonzero">
                    <g id="Document-w/-Data" filter="url(#filter-8)" transform="translate(0.000000, 0.000000)">
                        <g id="Icon-azurestack-6">
                            <g id="Group">
                                <path d="M28.3292786,0.0551965355 L2.38758427,0.0551965355 C1.25176992,0.0551965355 0.331010453,0.966645438 0.331010453,2.09097464 L0.331010453,57.0926988 C0.331010453,58.217028 1.25176992,59.1284769 2.38758427,59.1284769 L47.0549244,59.1284769 C48.1907388,59.1284769 49.1114983,58.217028 49.1114983,57.0926988 L49.1114983,20.6987008 C49.1114983,19.5743716 48.1907388,18.6629227 47.0549244,18.6629227 L32.2259448,18.6629227 C31.110057,18.6629227 30.2054512,17.7674641 30.2054512,16.66286 L30.2054512,2.09097464 C30.2273968,1.02612917 29.4024932,0.131051185 28.3292786,0.0551965355 Z" id="Path" fill="url(#linearGradient-9)"></path>
                                <path d="M49.3902439,19.9291962 L29.2682927,0 L29.2682927,16.147565 C29.2682927,18.2361022 30.968086,19.9291962 33.0648873,19.9291962 L49.3902439,19.9291962 Z" id="Path" fill="#4A4C4A"></path>
                            </g>
                        </g>
                        <g id="Computer" transform="translate(8.163265, 13.265306)">
                            <rect id="Rectangle" fill="#FFFFFF" x="0" y="6.62020906" width="14.3494898" height="2.83723245" rx="1.41861623"></rect>
                            <rect id="Rectangle" fill="#FFFFFF" x="0" y="0" width="14.3494898" height="2.83723245" rx="1.41861623"></rect>
                            <rect id="Rectangle" fill="#FFFFFF" x="0" y="13.2404181" width="8.60969388" height="2.83723245" rx="1.41861623"></rect>
                            <rect id="Rectangle" fill="url(#linearGradient-10)" x="0.956632653" y="30.2638128" width="6.69642857" height="8.51169736"></rect>
                            <rect id="Rectangle" fill="url(#linearGradient-11)" x="12.4362245" y="22.6978596" width="6.69642857" height="16.0776506"></rect>
                            <rect id="Rectangle" fill="url(#linearGradient-12)" x="23.9158163" y="13.2404181" width="6.69642857" height="25.5350921"></rect>
                        </g>
                    </g>
                    <g id="powerbi_icon" transform="translate(7.738095, 2.380952)" fill="#FFFFFF">
                        <path d="M9.15153061,6.59005102 L8.94221939,6.59005102 L8.94221939,6.17984694 L9.15153061,6.17984694 C9.59579082,6.17908163 9.95625,5.82589286 9.95663265,5.39043367 L9.95663265,1.19961735 C9.95625,0.76377551 9.59579082,0.410586735 9.15153061,0.410204082 L1.22372449,0.410204082 C0.779081633,0.410586735 0.419005102,0.76377551 0.418239796,1.19961735 L0.418239796,5.39081633 C0.419005102,5.82627551 0.779081633,6.17946429 1.22372449,6.18022959 L1.43303571,6.18022959 L1.43303571,6.59043367 L1.22372449,6.59043367 C0.547959184,6.58928571 0.000765306122,6.05280612 0,5.39081633 L0,1.19961735 C0.000765306122,0.537627551 0.548341837,0.000765306122 1.22372449,0 L9.15153061,0 C9.82691327,0.000765306122 10.3744898,0.537627551 10.3752551,1.19961735 L10.3752551,5.39081633 C10.3744898,6.05280612 9.82691327,6.58966837 9.15153061,6.59043367" id="Shape"></path>
                        <path d="M2.50867347,5.21670918 C2.65943878,5.21670918 2.80369898,5.2752551 2.91045918,5.37971939 C3.01683673,5.48380102 3.07653061,5.62538265 3.07653061,5.77308673 L3.07653061,7.05688776 C3.07653061,7.36454082 2.82244898,7.61364796 2.50867347,7.61364796 C2.35790816,7.61364796 2.21364796,7.55510204 2.10688776,7.45063776 C2.00081738,7.34707145 1.94095251,7.20513378 1.94081633,7.05688776 L1.94081633,5.77346939 C1.94081633,5.46581633 2.19489796,5.21670918 2.50867347,5.21670918 L2.50867347,5.21670918 Z" id="Shape"></path>
                        <path d="M4.29489796,7.61364796 C3.98112245,7.61364796 3.72665816,7.36454082 3.72665816,7.05688776 L3.72665816,3.7622449 C3.72665816,3.45420918 3.98112245,3.20510204 4.29489796,3.20510204 C4.60867347,3.20510204 4.8627551,3.45420918 4.8627551,3.76186224 L4.8627551,7.05688776 C4.8627551,7.36454082 4.60829082,7.61364796 4.29489796,7.61403061" id="Shape"></path>
                        <path d="M7.86658163,7.59757653 C7.55280612,7.59757653 7.29872449,7.34808673 7.29834184,7.04081633 L7.29834184,2.37436224 C7.29834184,2.06709184 7.55280612,1.81760204 7.86658163,1.81760204 C8.18035714,1.81760204 8.43443878,2.06709184 8.43443878,2.37436224 L8.43443878,7.04081633 C8.43443878,7.34808673 8.18035714,7.59757653 7.86658163,7.59757653" id="Shape"></path>
                        <path d="M6.08035714,7.61364796 C5.76696429,7.61364796 5.51288265,7.36454082 5.5125,7.05688776 L5.5125,4.60905612 C5.5125,4.30178571 5.76696429,4.05229592 6.0807398,4.05229592 C6.39451531,4.05229592 6.64859694,4.30178571 6.64859694,4.60905612 L6.64859694,7.05688776 C6.64859694,7.36454082 6.39413265,7.61364796 6.0807398,7.61403061" id="Shape"></path>
                    </g>
                </g>
                <g id="Group-5" transform="translate(50.440718, 54.586798) rotate(-7.000000) translate(-50.440718, -54.586798) translate(25.440718, 24.824893)" fill-rule="nonzero">
                    <g id="Document-w/-Data" filter="url(#filter-13)" transform="translate(0.000000, 0.000000)">
                        <g id="Icon-azurestack-6">
                            <g id="Group">
                                <path d="M28.3292786,0.0551965355 L2.38758427,0.0551965355 C1.25176992,0.0551965355 0.331010453,0.966645438 0.331010453,2.09097464 L0.331010453,57.0926988 C0.331010453,58.217028 1.25176992,59.1284769 2.38758427,59.1284769 L47.0549244,59.1284769 C48.1907388,59.1284769 49.1114983,58.217028 49.1114983,57.0926988 L49.1114983,20.6987008 C49.1114983,19.5743716 48.1907388,18.6629227 47.0549244,18.6629227 L32.2259448,18.6629227 C31.110057,18.6629227 30.2054512,17.7674641 30.2054512,16.66286 L30.2054512,2.09097464 C30.2273968,1.02612917 29.4024932,0.131051185 28.3292786,0.0551965355 Z" id="Path" fill="url(#linearGradient-14)"></path>
                                <path d="M49.3902439,19.9291962 L29.2682927,0 L29.2682927,16.147565 C29.2682927,18.2361022 30.968086,19.9291962 33.0648873,19.9291962 L49.3902439,19.9291962 Z" id="Path" fill="#4A4C4A"></path>
                            </g>
                        </g>
                        <g id="Computer" transform="translate(8.163265, 13.265306)">
                            <rect id="Rectangle" fill="#FFFFFF" x="0" y="6.62020906" width="14.3494898" height="2.83723245" rx="1.41861623"></rect>
                            <rect id="Rectangle" fill="#FFFFFF" x="0" y="0" width="14.3494898" height="2.83723245" rx="1.41861623"></rect>
                            <rect id="Rectangle" fill="#FFFFFF" x="0" y="13.2404181" width="8.60969388" height="2.83723245" rx="1.41861623"></rect>
                            <rect id="Rectangle" fill="url(#linearGradient-10)" x="0.956632653" y="30.2638128" width="6.69642857" height="8.51169736"></rect>
                            <rect id="Rectangle" fill="url(#linearGradient-11)" x="12.4362245" y="22.6978596" width="6.69642857" height="16.0776506"></rect>
                            <rect id="Rectangle" fill="url(#linearGradient-12)" x="23.9158163" y="13.2404181" width="6.69642857" height="25.5350921"></rect>
                        </g>
                    </g>
                    <g id="powerbi_icon" transform="translate(7.738095, 2.380952)" fill="#FFFFFF">
                        <path d="M9.15153061,6.59005102 L8.94221939,6.59005102 L8.94221939,6.17984694 L9.15153061,6.17984694 C9.59579082,6.17908163 9.95625,5.82589286 9.95663265,5.39043367 L9.95663265,1.19961735 C9.95625,0.76377551 9.59579082,0.410586735 9.15153061,0.410204082 L1.22372449,0.410204082 C0.779081633,0.410586735 0.419005102,0.76377551 0.418239796,1.19961735 L0.418239796,5.39081633 C0.419005102,5.82627551 0.779081633,6.17946429 1.22372449,6.18022959 L1.43303571,6.18022959 L1.43303571,6.59043367 L1.22372449,6.59043367 C0.547959184,6.58928571 0.000765306122,6.05280612 0,5.39081633 L0,1.19961735 C0.000765306122,0.537627551 0.548341837,0.000765306122 1.22372449,0 L9.15153061,0 C9.82691327,0.000765306122 10.3744898,0.537627551 10.3752551,1.19961735 L10.3752551,5.39081633 C10.3744898,6.05280612 9.82691327,6.58966837 9.15153061,6.59043367" id="Shape"></path>
                        <path d="M2.50867347,5.21670918 C2.65943878,5.21670918 2.80369898,5.2752551 2.91045918,5.37971939 C3.01683673,5.48380102 3.07653061,5.62538265 3.07653061,5.77308673 L3.07653061,7.05688776 C3.07653061,7.36454082 2.82244898,7.61364796 2.50867347,7.61364796 C2.35790816,7.61364796 2.21364796,7.55510204 2.10688776,7.45063776 C2.00081738,7.34707145 1.94095251,7.20513378 1.94081633,7.05688776 L1.94081633,5.77346939 C1.94081633,5.46581633 2.19489796,5.21670918 2.50867347,5.21670918 L2.50867347,5.21670918 Z" id="Shape"></path>
                        <path d="M4.29489796,7.61364796 C3.98112245,7.61364796 3.72665816,7.36454082 3.72665816,7.05688776 L3.72665816,3.7622449 C3.72665816,3.45420918 3.98112245,3.20510204 4.29489796,3.20510204 C4.60867347,3.20510204 4.8627551,3.45420918 4.8627551,3.76186224 L4.8627551,7.05688776 C4.8627551,7.36454082 4.60829082,7.61364796 4.29489796,7.61403061" id="Shape"></path>
                        <path d="M7.86658163,7.59757653 C7.55280612,7.59757653 7.29872449,7.34808673 7.29834184,7.04081633 L7.29834184,2.37436224 C7.29834184,2.06709184 7.55280612,1.81760204 7.86658163,1.81760204 C8.18035714,1.81760204 8.43443878,2.06709184 8.43443878,2.37436224 L8.43443878,7.04081633 C8.43443878,7.34808673 8.18035714,7.59757653 7.86658163,7.59757653" id="Shape"></path>
                        <path d="M6.08035714,7.61364796 C5.76696429,7.61364796 5.51288265,7.36454082 5.5125,7.05688776 L5.5125,4.60905612 C5.5125,4.30178571 5.76696429,4.05229592 6.0807398,4.05229592 C6.39451531,4.05229592 6.64859694,4.30178571 6.64859694,4.60905612 L6.64859694,7.05688776 C6.64859694,7.36454082 6.39413265,7.61364796 6.0807398,7.61403061" id="Shape"></path>
                    </g>
                </g>
                <g id="Group-5" transform="translate(26.440718, 21.824893)" fill-rule="nonzero">
                    <g id="Document-w/-Data" filter="url(#filter-15)" transform="translate(0.000000, 0.000000)">
                        <g id="Icon-azurestack-6">
                            <g id="Group">
                                <path d="M28.3292786,0.0551965355 L2.38758427,0.0551965355 C1.25176992,0.0551965355 0.331010453,0.966645438 0.331010453,2.09097464 L0.331010453,57.0926988 C0.331010453,58.217028 1.25176992,59.1284769 2.38758427,59.1284769 L47.0549244,59.1284769 C48.1907388,59.1284769 49.1114983,58.217028 49.1114983,57.0926988 L49.1114983,20.6987008 C49.1114983,19.5743716 48.1907388,18.6629227 47.0549244,18.6629227 L32.2259448,18.6629227 C31.110057,18.6629227 30.2054512,17.7674641 30.2054512,16.66286 L30.2054512,2.09097464 C30.2273968,1.02612917 29.4024932,0.131051185 28.3292786,0.0551965355 Z" id="Path" fill="url(#linearGradient-9)"></path>
                                <path d="M49.3902439,19.9291962 L29.2682927,0 L29.2682927,16.147565 C29.2682927,18.2361022 30.968086,19.9291962 33.0648873,19.9291962 L49.3902439,19.9291962 Z" id="Path" fill="#4A4C4A"></path>
                            </g>
                        </g>
                        <g id="Computer" transform="translate(8.163265, 13.265306)">
                            <rect id="Rectangle" fill="#FFFFFF" x="0" y="6.62020906" width="14.3494898" height="2.83723245" rx="1.41861623"></rect>
                            <rect id="Rectangle" fill="#FFFFFF" x="0" y="0" width="14.3494898" height="2.83723245" rx="1.41861623"></rect>
                            <rect id="Rectangle" fill="#FFFFFF" x="0" y="13.2404181" width="8.60969388" height="2.83723245" rx="1.41861623"></rect>
                            <rect id="Rectangle" fill="url(#linearGradient-10)" x="0.956632653" y="30.2638128" width="6.69642857" height="8.51169736"></rect>
                            <rect id="Rectangle" fill="url(#linearGradient-11)" x="12.4362245" y="22.6978596" width="6.69642857" height="16.0776506"></rect>
                            <rect id="Rectangle" fill="url(#linearGradient-12)" x="23.9158163" y="13.2404181" width="6.69642857" height="25.5350921"></rect>
                        </g>
                    </g>
                    <g id="powerbi_icon" transform="translate(7.738095, 2.380952)" fill="#FFFFFF">
                        <path d="M9.15153061,6.59005102 L8.94221939,6.59005102 L8.94221939,6.17984694 L9.15153061,6.17984694 C9.59579082,6.17908163 9.95625,5.82589286 9.95663265,5.39043367 L9.95663265,1.19961735 C9.95625,0.76377551 9.59579082,0.410586735 9.15153061,0.410204082 L1.22372449,0.410204082 C0.779081633,0.410586735 0.419005102,0.76377551 0.418239796,1.19961735 L0.418239796,5.39081633 C0.419005102,5.82627551 0.779081633,6.17946429 1.22372449,6.18022959 L1.43303571,6.18022959 L1.43303571,6.59043367 L1.22372449,6.59043367 C0.547959184,6.58928571 0.000765306122,6.05280612 0,5.39081633 L0,1.19961735 C0.000765306122,0.537627551 0.548341837,0.000765306122 1.22372449,0 L9.15153061,0 C9.82691327,0.000765306122 10.3744898,0.537627551 10.3752551,1.19961735 L10.3752551,5.39081633 C10.3744898,6.05280612 9.82691327,6.58966837 9.15153061,6.59043367" id="Shape"></path>
                        <path d="M2.50867347,5.21670918 C2.65943878,5.21670918 2.80369898,5.2752551 2.91045918,5.37971939 C3.01683673,5.48380102 3.07653061,5.62538265 3.07653061,5.77308673 L3.07653061,7.05688776 C3.07653061,7.36454082 2.82244898,7.61364796 2.50867347,7.61364796 C2.35790816,7.61364796 2.21364796,7.55510204 2.10688776,7.45063776 C2.00081738,7.34707145 1.94095251,7.20513378 1.94081633,7.05688776 L1.94081633,5.77346939 C1.94081633,5.46581633 2.19489796,5.21670918 2.50867347,5.21670918 L2.50867347,5.21670918 Z" id="Shape"></path>
                        <path d="M4.29489796,7.61364796 C3.98112245,7.61364796 3.72665816,7.36454082 3.72665816,7.05688776 L3.72665816,3.7622449 C3.72665816,3.45420918 3.98112245,3.20510204 4.29489796,3.20510204 C4.60867347,3.20510204 4.8627551,3.45420918 4.8627551,3.76186224 L4.8627551,7.05688776 C4.8627551,7.36454082 4.60829082,7.61364796 4.29489796,7.61403061" id="Shape"></path>
                        <path d="M7.86658163,7.59757653 C7.55280612,7.59757653 7.29872449,7.34808673 7.29834184,7.04081633 L7.29834184,2.37436224 C7.29834184,2.06709184 7.55280612,1.81760204 7.86658163,1.81760204 C8.18035714,1.81760204 8.43443878,2.06709184 8.43443878,2.37436224 L8.43443878,7.04081633 C8.43443878,7.34808673 8.18035714,7.59757653 7.86658163,7.59757653" id="Shape"></path>
                        <path d="M6.08035714,7.61364796 C5.76696429,7.61364796 5.51288265,7.36454082 5.5125,7.05688776 L5.5125,4.60905612 C5.5125,4.30178571 5.76696429,4.05229592 6.0807398,4.05229592 C6.39451531,4.05229592 6.64859694,4.30178571 6.64859694,4.60905612 L6.64859694,7.05688776 C6.64859694,7.36454082 6.39413265,7.61364796 6.0807398,7.61403061" id="Shape"></path>
                    </g>
                </g>
            </g>
        </g>
    </g>
</svg>