<svg width="103" height="103" viewBox="0 0 103 103" fill="none" xmlns="http://www.w3.org/2000/svg">
<path d="M51.8166 97.9452C25.9666 97.9452 5.00659 76.9952 5.00659 51.1352C5.00659 25.2752 25.9666 4.3252 51.8166 4.3252C77.6666 4.3252 98.6266 25.2852 98.6266 51.1352C98.6266 76.9852 77.6666 97.9452 51.8166 97.9452Z" fill="#F9E488"/>
<path fill-rule="evenodd" clip-rule="evenodd" d="M51.8167 1.13525C79.4267 1.13525 101.817 23.5253 101.817 51.1353C101.817 78.7453 79.4267 101.135 51.8167 101.135C24.2066 101.135 1.81665 78.7453 1.81665 51.1353C1.81665 23.5253 24.2066 1.13525 51.8167 1.13525ZM51.8167 96.8953C77.0867 96.8953 97.5767 76.4053 97.5767 51.1353C97.5767 25.8653 77.0867 5.37525 51.8167 5.37525C26.5466 5.37525 6.05665 25.8653 6.05665 51.1353C6.05665 76.4053 26.5466 96.8953 51.8167 96.8953Z" fill="#D9D9D9"/>
<path fill-rule="evenodd" clip-rule="evenodd" d="M97.7165 51.1351C97.7165 76.4851 77.1665 97.0351 51.8165 97.0351C26.4665 97.0351 5.91651 76.4851 5.91651 51.1351C5.91651 25.7851 26.4665 5.23512 51.8165 5.23512C77.1665 5.23512 97.7165 25.7851 97.7165 51.1351ZM51.8165 1.49512C79.2365 1.49512 101.457 23.7151 101.457 51.1351C101.457 78.5551 79.2265 100.775 51.8165 100.775C24.3965 100.775 2.17651 78.5451 2.17651 51.1351C2.17651 23.7151 24.3965 1.49512 51.8165 1.49512Z" fill="#F2F1F0"/>
<path fill-rule="evenodd" clip-rule="evenodd" d="M94.9066 51.1352C94.9066 74.9352 75.6166 94.2252 51.8166 94.2252C28.0166 94.2252 8.72657 74.9352 8.72657 51.1352C8.72657 27.3352 28.0166 8.04518 51.8166 8.04518C75.6166 8.04518 94.9066 27.3352 94.9066 51.1352ZM51.8166 4.30518C77.6766 4.30518 98.6466 25.2752 98.6466 51.1352C98.6466 76.9952 77.6766 97.9652 51.8166 97.9652C25.9566 97.9652 4.98657 76.9952 4.98657 51.1352C4.98657 25.2752 25.9466 4.30518 51.8166 4.30518Z" fill="#F3C900"/>
<path d="M53.3867 60.7151C49.6767 60.1251 49.5367 57.4051 49.5367 53.0151H42.1867C42.1867 57.4151 42.0667 60.1251 38.3567 60.7151C37.2967 60.8351 36.4967 61.7551 36.5067 62.8451H55.2567C55.2467 61.7551 54.4567 60.8351 53.3867 60.7151Z" fill="url(#paint0_linear)"/>
<path fill-rule="evenodd" clip-rule="evenodd" d="M27.7566 29.7051H63.9366V53.5751H27.7566V29.7051Z" fill="white"/>
<path fill-rule="evenodd" clip-rule="evenodd" d="M62.7366 29.7051C63.3966 29.7051 63.9366 30.2351 63.9366 30.8851V52.3851C63.9366 53.0451 63.4066 53.5651 62.7366 53.5651H28.9566C28.2966 53.5651 27.7566 53.0351 27.7566 52.3851V30.8851C27.7566 30.2251 28.2866 29.7051 28.9566 29.7051H62.7366Z" fill="url(#paint1_linear)"/>
<path fill-rule="evenodd" clip-rule="evenodd" d="M9.56665 62.0952H93.7967C93.3767 63.3152 92.8967 64.5852 92.3867 65.9052C91.8767 67.2352 91.2567 68.4952 90.5667 69.7152H12.4667C11.9867 68.6552 11.4567 67.3352 10.8667 65.7452C10.2667 64.1852 9.83665 62.9552 9.56665 62.0952Z" fill="url(#paint2_linear)"/>
<path fill-rule="evenodd" clip-rule="evenodd" d="M71.6167 69.7251H90.6867C89.6767 71.7551 88.5767 73.6351 87.4167 75.3651C86.2567 77.0951 84.9767 78.7051 83.5867 80.2151H71.6167V69.7251Z" fill="url(#paint3_linear)"/>
<path fill-rule="evenodd" clip-rule="evenodd" d="M71.6167 80.2153H83.5867C81.7367 82.0153 79.8667 83.6053 77.9767 84.9653C76.0867 86.3253 73.9667 87.6153 71.6167 88.8353V80.2153Z" fill="url(#paint4_linear)"/>
<path fill-rule="evenodd" clip-rule="evenodd" d="M30.6168 64.0054H77.3368C78.3868 64.0054 79.2468 64.8654 79.2468 65.9154C79.2468 66.9654 78.3868 67.8254 77.3368 67.8254H30.6168C29.5668 67.8254 28.7068 66.9654 28.7068 65.9154C28.7168 64.8654 29.5668 64.0054 30.6168 64.0054Z" fill="#685329"/>
<path d="M86.8767 62.0951V53.9451V43.5451C86.8767 41.9651 85.5967 40.6851 84.0167 40.6851H77.5967" stroke="#F3C900" stroke-width="2"/>
<path fill-rule="evenodd" clip-rule="evenodd" d="M78.2766 38.9552C82.0366 41.3952 83.0966 46.4152 80.6566 50.1652C80.5566 50.3252 80.4366 50.4852 80.3266 50.6452L66.7666 41.8352C66.8666 41.6652 66.9566 41.5052 67.0666 41.3352C69.5066 37.5952 74.5166 36.5252 78.2766 38.9552Z" fill="url(#paint5_linear)"/>
<path fill-rule="evenodd" clip-rule="evenodd" d="M76.8668 73.5449H85.4468C86.2368 73.5449 86.8768 74.1849 86.8768 74.9749C86.8768 75.7649 86.2368 76.4049 85.4468 76.4049H76.8668C76.0768 76.4049 75.4368 75.7649 75.4368 74.9749C75.4368 74.1749 76.0768 73.5449 76.8668 73.5449Z" fill="#685329"/>
<path d="M51.8266 50.4453H46.5566V34.6853C46.5566 34.1153 47.0166 33.6553 47.5866 33.6553H51.8266C52.3966 33.6553 52.8566 34.1153 52.8566 34.6853V49.4253C52.8566 49.9853 52.3966 50.4453 51.8266 50.4453Z" fill="url(#paint6_linear)"/>
<path d="M48.4166 50.4455H43.0166V38.8355C43.0166 38.3455 43.4166 37.9355 43.9166 37.9355H48.4266C48.9166 37.9355 49.3266 38.3355 49.3266 38.8355V49.5555C49.3066 50.0455 48.9066 50.4455 48.4166 50.4455Z" fill="url(#paint7_linear)"/>
<path d="M44.7567 50.4454H40.7967C40.1467 50.4454 39.6267 49.9254 39.6267 49.2754V43.2154C39.6267 42.5654 40.1467 42.0454 40.7967 42.0454H44.7667C45.4167 42.0454 45.9367 42.5654 45.9367 43.2154V49.2754C45.9267 49.9254 45.4067 50.4454 44.7567 50.4454Z" fill="url(#paint8_linear)"/>
<defs>
<linearGradient id="paint0_linear" x1="45.8754" y1="62.8421" x2="45.8754" y2="53.0111" gradientUnits="userSpaceOnUse">
<stop offset="0.15" stop-color="#CCCCCC"/>
<stop offset="1" stop-color="#707070"/>
</linearGradient>
<linearGradient id="paint1_linear" x1="45.8467" y1="29.8753" x2="45.8467" y2="53.587" gradientUnits="userSpaceOnUse">
<stop stop-color="#6A6A6A"/>
<stop offset="1" stop-color="#343333"/>
</linearGradient>
<linearGradient id="paint2_linear" x1="51.6779" y1="62.0986" x2="51.6779" y2="69.7267" gradientUnits="userSpaceOnUse">
<stop stop-color="#967F43"/>
<stop offset="1" stop-color="#6D572C"/>
</linearGradient>
<linearGradient id="paint3_linear" x1="81.1564" y1="69.7266" x2="81.1564" y2="80.2157" gradientUnits="userSpaceOnUse">
<stop stop-color="#967F43"/>
<stop offset="1" stop-color="#6D572C"/>
</linearGradient>
<linearGradient id="paint4_linear" x1="77.6045" y1="80.2254" x2="77.6045" y2="88.8455" gradientUnits="userSpaceOnUse">
<stop stop-color="#967F43"/>
<stop offset="1" stop-color="#6D572C"/>
</linearGradient>
<linearGradient id="paint5_linear" x1="78.2898" y1="38.936" x2="73.5582" y2="46.2226" gradientUnits="userSpaceOnUse">
<stop stop-color="#F3C900"/>
<stop offset="1" stop-color="#C0A213"/>
</linearGradient>
<linearGradient id="paint6_linear" x1="49.6353" y1="35.1885" x2="49.7693" y2="49.1263" gradientUnits="userSpaceOnUse">
<stop offset="0.00753769" stop-color="#E0A310"/>
<stop offset="1" stop-color="#CA810E"/>
</linearGradient>
<linearGradient id="paint7_linear" x1="45.9899" y1="38.428" x2="46.3919" y2="53.1699" gradientUnits="userSpaceOnUse">
<stop offset="0.00753769" stop-color="#F2CC40"/>
<stop offset="1" stop-color="#E7B116"/>
</linearGradient>
<linearGradient id="paint8_linear" x1="42.6289" y1="42.702" x2="43.031" y2="52.2172" gradientUnits="userSpaceOnUse">
<stop stop-color="#F8E17B"/>
<stop offset="0.5302" stop-color="#F6D856"/>
<stop offset="1" stop-color="#F6D856"/>
</linearGradient>
</defs>
</svg>
