<?xml version="1.0" encoding="UTF-8"?>
<svg width="100px" height="100px" viewBox="0 0 100 100" version="1.1" xmlns="http://www.w3.org/2000/svg" xmlns:xlink="http://www.w3.org/1999/xlink">
    <!-- Generator: Sketch 55.2 (78181) - https://sketchapp.com -->
    <title>Create Reports with Power BI Desktop/create-visuals-with-power-bi-desktop</title>
    <desc>Created with Sketch.</desc>
    <defs>
        <rect id="path-1" x="0" y="0" width="96" height="96" rx="48"></rect>
        <filter x="-6.2%" y="-7.1%" width="112.5%" height="114.3%" filterUnits="objectBoundingBox" id="filter-3">
            <feOffset dx="0" dy="2" in="SourceAlpha" result="shadowOffsetOuter1"></feOffset>
            <feColorMatrix values="0 0 0 0 0   0 0 0 0 0   0 0 0 0 0  0 0 0 0.0964956975 0" type="matrix" in="shadowOffsetOuter1" result="shadowMatrixOuter1"></feColorMatrix>
            <feMerge>
                <feMergeNode in="shadowMatrixOuter1"></feMergeNode>
                <feMergeNode in="SourceGraphic"></feMergeNode>
            </feMerge>
        </filter>
        <path d="M0.396098791,1.05707078 L3.90220683,10.4138385 C3.99910195,10.672423 4.28727513,10.8034981 4.54585964,10.706603 C4.66085282,10.6635135 4.75596737,10.5796126 4.81307022,10.4708955 L5.67815553,8.82387535 C5.80656237,8.57940389 6.10883996,8.48531494 6.35331142,8.61372179 C6.40056798,8.63854295 6.44354508,8.67077114 6.48061054,8.70918239 L9.05492162,11.3769633 C9.24667164,11.5756755 9.56320381,11.5813195 9.76191602,11.3895695 C9.76987019,11.381894 9.77756765,11.3739568 9.78499571,11.3657711 L11.3533152,9.6374846 C11.5370627,9.43499502 11.5240734,9.12245891 11.3241573,8.93591473 L8.70900413,6.49568293 C8.50710654,6.30728979 8.49615902,5.99089664 8.68455216,5.78899905 C8.72249177,5.74833984 8.76694857,5.71429475 8.81609196,5.68826566 L10.2148713,4.9473939 C10.4588979,4.81814373 10.5519427,4.51554309 10.4226925,4.27151644 C10.3670913,4.16654025 10.2759308,4.08478957 10.1655409,4.0409084 L1.04900516,0.416990481 C0.792393702,0.314984751 0.501677028,0.440317461 0.399671298,0.696928923 C0.353784482,0.812364428 0.352510956,0.940747715 0.396098791,1.05707078 Z" id="path-4"></path>
        <filter x="-5.4%" y="-5.3%" width="112.3%" height="128.8%" filterUnits="objectBoundingBox" id="filter-5">
            <feOffset dx="0" dy="2" in="SourceAlpha" result="shadowOffsetOuter1"></feOffset>
            <feColorMatrix values="0 0 0 0 0   0 0 0 0 0   0 0 0 0 0  0 0 0 0.1 0" type="matrix" in="shadowOffsetOuter1"></feColorMatrix>
        </filter>
    </defs>
    <g id="Badges" stroke="none" stroke-width="1" fill="none" fill-rule="evenodd">
        <g id="Create-Reports-with-Power-BI-Desktop" transform="translate(-50.000000, -660.000000)">
            <g id="Create-Reports-with-Power-BI-Desktop/create-visuals-with-power-bi-desktop" transform="translate(50.000000, 660.000000)">
                <g id="Mask" transform="translate(2.000000, 2.000000)">
                    <mask id="mask-2" fill="white">
                        <use xlink:href="#path-1"></use>
                    </mask>
                    <use id="BG" fill="#7D7D7D" xlink:href="#path-1"></use>
                    <g id="Monitor" filter="url(#filter-3)" mask="url(#mask-2)">
                        <g transform="translate(16.000000, 20.000000)">
                            <path d="M0,36 L0,42 C0,44.2 1.8,46 4,46 L60,46 C62.2,46 64,44.2 64,42 L64,36 L0,36" id="Fill-1285" fill="#E1E4E1"></path>
                            <path d="M4,0 C1.8,0 0,1.8 0,4 L0,36 L64,36 L64,4 C64,1.8 62.2,0 60,0 L4,0 Z M60,2 C61.103,2 62,2.897 62,4 L62,34 L2,34 L2,4 C2,2.897 2.897,2 4,2 L60,2 L60,2 Z" id="Fill-1287" fill="#182A37"></path>
                            <path d="M2,4 C2,2.897 2.897,2 4,2 L60,2 C61.103,2 62,2.897 62,4 L62,34 L2,34 L2,4" id="Fill-1288" fill="#30404D"></path>
                            <path d="M4,2 L31.389,2 L21.611,34 L2,34 L2,4 C2,2.897 2.897,2 4,2" id="Fill-1289" fill="#384B58"></path>
                            <path d="M4,0 L32,0 L31.389,2 L4,2 C2.897,2 2,2.897 2,4 L2,34 L21.611,34 L21,36 L0,36 L0,4 C0,1.8 1.8,0 4,0" id="Fill-1290" fill="#30404D"></path>
                            <polyline id="Fill-1291" fill="#E1E4E1" points="40 55 24 55 26 46 38 46 40 55"></polyline>
                            <path d="M40,55 L38,46 L26,46 L25.555,48 L30,48 C31.105,48 32,48.895 32,50 L32,55 L40,55" id="Fill-1292" fill="#CDD6D8"></path>
                            <path d="M44,55 C44,55.55 43.55,56 43,56 L21,56 C20.45,56 20,55.55 20,55 C20,54.45 20.45,54 21,54 L43,54 C43.55,54 44,54.45 44,55" id="Fill-1293" fill="#E1E4E1"></path>
                            <path d="M21,56 L43,56 C43.55,56 44,55.55 44,55 L20,55 C20,55.55 20.45,56 21,56" id="Fill-1294" fill="#CDD6D8"></path>
                            <path d="M3.37069097,4.7988788 C3.37069097,3.47558797 4.44683954,2.3994394 5.77013037,2.3994394 L58.5577972,2.3994394 C59.8798883,2.3994394 60.9572366,3.47558797 60.9572366,4.7988788 L60.9572366,35.991591 L3.37069097,35.991591 L3.37069097,4.7988788" id="Fill-1417" fill="#F7CB64"></path>
                        </g>
                    </g>
                    <g id="Group" mask="url(#mask-2)">
                        <g transform="translate(23.000000, 23.000000)">
                            <path d="M9.28607167,25.4444723 L9.11463278,25.537789 L0.867966111,21.0043446 L0.867966111,11.9676779 L9.11463278,7.39734457 L9.35117722,7.52755568 C9.41844944,7.56444457 9.49006611,7.58180568 9.56168278,7.58180568 C9.71359389,7.58180568 9.86333278,7.50151124 9.941455,7.35828346 C10.0586439,7.1477779 9.98268833,6.88519457 9.77218278,6.76800568 L9.39241056,6.55750012 C9.30343278,6.50976124 9.20794944,6.5010779 9.11463278,6.51627235 C9.02131611,6.5010779 8.92583278,6.50976124 8.836855,6.55750012 L0.223522222,11.3318335 C0.0846333333,11.4099557 -2.11386464e-13,11.5553557 -2.11386464e-13,11.7116057 L-2.11386464e-13,21.2604946 C-2.11386464e-13,21.4189168 0.0868055556,21.5643168 0.225694444,21.6402668 L8.89736056,26.4102112 L8.90604389,26.4145557 C8.923405,26.4254057 8.94293278,26.4297446 8.96246611,26.4362557 C8.977655,26.4427668 8.99067722,26.4492779 9.00586611,26.4536168 C9.04058833,26.4644668 9.07748278,26.4688057 9.11437167,26.4688057 C9.15126056,26.4688057 9.188155,26.4644668 9.22504944,26.4536168 C9.23589944,26.4492779 9.24892167,26.4449335 9.25977167,26.4405946 C9.28147167,26.4319168 9.30317722,26.4275723 9.32487722,26.4145557 L9.70464944,26.2062223 C9.915155,26.0912057 9.991105,25.8264501 9.87608833,25.6159446 C9.75889944,25.405439 9.49414389,25.329489 9.28581056,25.4445057 L9.28607167,25.4444723 Z" id="Fill-2" fill="#FCD880"></path>
                            <path d="M11.4455161,24.2578057 L10.7250161,24.6527723 C10.5145106,24.767789 10.438555,25.0325446 10.5535772,25.2408835 C10.6316994,25.3841112 10.7814439,25.4665779 10.9333494,25.4665779 C11.0049661,25.4665779 11.0765772,25.4492168 11.1416828,25.4123223 L11.8621828,25.0173557 C12.0726883,24.902339 12.1486439,24.6375835 12.0336217,24.4292446 C11.9207772,24.218739 11.6560161,24.142789 11.4455106,24.2578057 L11.4455161,24.2578057 Z" id="Fill-3" fill="#FCDA86"></path>
                            <path d="M15.7660717,21.881139 L15.0455717,22.2761057 C14.8350661,22.3911223 14.7591161,22.6558779 14.8741328,22.8642168 C14.952255,23.0074446 15.1019994,23.0899112 15.253905,23.0899112 C15.3255217,23.0899112 15.3971328,23.0725501 15.4622383,23.0356557 L16.1827383,22.640689 C16.3932439,22.5256723 16.4691939,22.2609168 16.3541772,22.0525779 C16.2391606,21.8420723 15.9765717,21.7661223 15.7660661,21.881139 L15.7660717,21.881139 Z" id="Fill-4" fill="#FCDA86"></path>
                            <path d="M13.6066272,23.0705835 L12.8861272,23.4655501 C12.6756217,23.5805668 12.5996717,23.8453223 12.7146883,24.0536612 C12.7928106,24.196889 12.942555,24.2793557 13.0944606,24.2793557 C13.1660772,24.2793557 13.2376883,24.2619946 13.3027939,24.2251001 L14.0232939,23.8301335 C14.2337994,23.7151168 14.3097494,23.4503612 14.1947328,23.2420223 C14.0797161,23.0315168 13.8171272,22.9533946 13.6066217,23.0705835 L13.6066272,23.0705835 Z" id="Fill-5" fill="#FCDA86"></path>
                            <path d="M18.229405,21.2605835 L18.229405,20.8265557 C18.229405,20.5856723 18.0340939,20.3925279 17.7953772,20.3925279 C17.5566606,20.3925279 17.3613494,20.5856723 17.3613494,20.8265557 L17.3613494,21.0045057 L17.2050994,21.089139 C16.9945939,21.2041557 16.9186439,21.4689112 17.0336606,21.6794168 C17.1117828,21.8226446 17.2615272,21.9051112 17.4134328,21.9051112 C17.4850494,21.9051112 17.5566606,21.8877501 17.6217661,21.8508557 L18.0015383,21.6425223 C18.1425994,21.5644001 18.229405,21.4190001 18.229405,21.2605779 L18.229405,21.2605835 Z" id="Fill-6" fill="#FCDA86"></path>
                            <path d="M18.229405,13.7255835 C18.229405,13.4847001 18.0340939,13.2915557 17.7953772,13.2915557 C17.5566606,13.2915557 17.3613494,13.4847001 17.3613494,13.7255835 L17.3613494,14.5155279 C17.3613494,14.7564112 17.5566606,14.9495557 17.7953772,14.9495557 C18.0340939,14.9495557 18.229405,14.7564112 18.229405,14.5155279 L18.229405,13.7255835 Z" id="Fill-7" fill="#FCDA86"></path>
                            <path d="M18.229405,16.091139 C18.229405,15.8502557 18.0340939,15.6571112 17.7953772,15.6571112 C17.5566606,15.6571112 17.3613494,15.8502557 17.3613494,16.091139 L17.3613494,16.8810835 C17.3613494,17.1219668 17.5566606,17.3151112 17.7953772,17.3151112 C18.0340939,17.3151112 18.229405,17.1219668 18.229405,16.8810835 L18.229405,16.091139 Z" id="Fill-8" fill="#FCDA86"></path>
                            <path d="M17.7949606,18.0250279 C17.5562439,18.0250279 17.3609328,18.2181723 17.3609328,18.4590557 L17.3609328,19.2490001 C17.3609328,19.4898835 17.5562439,19.6830279 17.7949606,19.6830279 C18.0336772,19.6830279 18.2289883,19.4898835 18.2289883,19.2490001 L18.2289883,18.4590557 C18.2289883,18.220339 18.0336772,18.0250279 17.7949606,18.0250279 Z" id="Fill-9" fill="#FCDA86"></path>
                            <path d="M17.2049606,11.881139 L17.3612106,11.9679446 L17.3612106,12.1458946 C17.3612106,12.3867779 17.5565217,12.5799223 17.7952383,12.5799223 C18.033955,12.5799223 18.2292661,12.3867779 18.2292661,12.1458946 L18.2292661,11.7118668 C18.2292661,11.5534446 18.1446328,11.4080446 18.0057439,11.3320946 L17.6259717,11.121589 C17.4176383,11.0044001 17.1528828,11.0803557 17.0356939,11.2908612 C16.9206772,11.5013668 16.9966328,11.7661223 17.2049661,11.881139 L17.2049606,11.881139 Z" id="Fill-10" fill="#FCDA86"></path>
                            <path d="M10.779405,8.3200279 L11.493405,8.71499457 C11.5606772,8.75188901 11.6322939,8.76925012 11.7039106,8.76925012 C11.8558217,8.76925012 12.0055606,8.68895568 12.0836828,8.5457279 C12.2008717,8.33522235 12.1249161,8.07263901 11.9144106,7.95545012 L11.2004106,7.56048346 C10.989905,7.44329457 10.7273217,7.51925012 10.6101328,7.72975568 C10.4929439,7.93808901 10.5688994,8.20284457 10.779405,8.32003346 L10.779405,8.3200279 Z" id="Fill-11" fill="#FCDA86"></path>
                            <path d="M16.1982939,10.3294723 L15.4842939,9.93450568 C15.2737883,9.81948901 15.011205,9.89327235 14.8940161,10.1037779 C14.7768272,10.3142835 14.8527828,10.5768668 15.0632883,10.6940557 L15.7772883,11.0890223 C15.8445606,11.1259168 15.9161772,11.1432779 15.9877939,11.1432779 C16.139705,11.1432779 16.2894439,11.0629835 16.3675661,10.9197557 C16.484755,10.7114223 16.4087994,10.4466668 16.1982939,10.3294779 L16.1982939,10.3294723 Z" id="Fill-12" fill="#FCDA86"></path>
                            <path d="M12.9210717,9.50725012 L13.6350717,9.90221679 C13.7023439,9.93911124 13.7739606,9.95647235 13.8455772,9.95647235 C13.9974883,9.95647235 14.1472272,9.8761779 14.2253494,9.73295012 C14.3425383,9.52244457 14.2665828,9.25986124 14.0560772,9.14267235 L13.3420772,8.74770568 C13.1337439,8.63051679 12.8689883,8.70647235 12.7517994,8.9169779 C12.6346106,9.1274779 12.7105661,9.39006679 12.9210717,9.50725568 L12.9210717,9.50725012 Z" id="Fill-13" fill="#FCDA86"></path>
                            <path d="M8.90829389,10.0278057 L3.26607167,13.0660279 C3.12501056,13.1419835 3.038205,13.2873835 3.038205,13.4479723 L3.038205,19.524639 C3.038205,19.6852279 3.12501056,19.8306279 3.26607167,19.9065835 L8.90829389,22.9448057 C8.97339944,22.9795279 9.04284389,22.996889 9.114455,22.996889 C9.18606611,22.996889 9.25551611,22.9795279 9.32061611,22.9448057 L14.9628383,19.9065835 C15.1038994,19.8306279 15.190705,19.6852279 15.190705,19.524639 L15.190705,13.4479723 C15.190705,13.2873835 15.1038994,13.1419835 14.9628383,13.0660279 L9.32061611,10.0278057 C9.19257722,9.95836124 9.03632722,9.95836124 8.90828833,10.0278057 L8.90829389,10.0278057 Z M14.3227939,19.2639168 L9.11446056,22.0677501 L3.90612722,19.2639168 L3.90612722,13.7083612 L9.11446056,10.9045279 L14.3227939,13.7083612 L14.3227939,19.2639168 Z" id="Fill-14" fill="#C9A757"></path>
                            <path d="M27.504405,13.7239168 L27.3438161,13.8172335 L21.7015939,10.5924001 L21.7015939,4.15128901 L27.3438161,0.902566791 L27.5499772,1.01975568 C27.6172494,1.05881679 27.693205,1.07835012 27.7669883,1.07835012 C27.9167272,1.07835012 28.0642994,1.0002279 28.1445939,0.861339013 C28.2639494,0.65300568 28.1923383,0.388250125 27.984005,0.268894569 L27.6085717,0.0518834579 C27.5239383,0.00196679126 27.4327883,-0.00671098652 27.3438161,0.00413901348 C27.2548383,-0.00671098652 27.1636939,0.00196679126 27.0812272,0.0518834579 L21.0523383,3.52410568 C20.9156217,3.60006124 20.833155,3.74546124 20.833155,3.89953901 L20.833155,10.8439835 C20.833155,11.0002335 20.9156217,11.1434612 21.0523383,11.221589 L27.129005,14.6938112 C27.1572161,14.7111723 27.1897717,14.7220223 27.2223217,14.7307001 C27.2613828,14.7437223 27.3026161,14.7502335 27.3438494,14.7502335 C27.3850828,14.7502335 27.4263161,14.7437223 27.4653772,14.7307001 C27.4979272,14.7220223 27.5283106,14.7090001 27.5586939,14.6938112 L27.9362994,14.4789668 C28.1446328,14.3596112 28.2162494,14.0948501 28.0968883,13.8865223 C27.9775328,13.678189 27.7127717,13.6044057 27.5044439,13.7237612 L27.504405,13.7239168 Z" id="Fill-15" fill="#C9A757"></path>
                            <path d="M29.5010717,12.5844723 L28.8348494,12.9642446 C28.6265161,13.0836001 28.5548994,13.3483612 28.6742606,13.556689 C28.754555,13.6977501 28.899955,13.7758723 29.0518661,13.7758723 C29.1256494,13.7758723 29.1994328,13.7585112 29.2667106,13.7194501 L29.9329328,13.3396779 C30.1412661,13.2203223 30.2128828,12.9555612 30.0935217,12.7472335 C29.9741661,12.5367279 29.709405,12.4651168 29.5010772,12.5844723 L29.5010717,12.5844723 Z" id="Fill-16" fill="#C99D34"></path>
                            <path d="M31.4977383,11.4428057 L30.8315161,11.8225779 C30.6231828,11.9419335 30.5515661,12.2066946 30.6709272,12.4150223 C30.7512217,12.5560835 30.8966217,12.6342057 31.0485328,12.6342057 C31.1223161,12.6342057 31.1960994,12.6168446 31.2633772,12.5777835 L31.9295994,12.1980112 C32.1379328,12.0786557 32.2095494,11.8138946 32.0901883,11.6055668 C31.9708328,11.3950612 31.7060717,11.3234501 31.4977439,11.4428057 L31.4977383,11.4428057 Z" id="Fill-17" fill="#C99D34"></path>
                            <path d="M33.4205161,9.9755779 C33.1817994,9.9755779 32.9864883,10.1687279 32.9864883,10.4096112 L32.9864883,10.5919001 L32.8280661,10.6830446 C32.6197328,10.8024001 32.5481161,11.0671612 32.6674772,11.275489 C32.7477717,11.4165501 32.8931717,11.4946723 33.0450828,11.4946723 C33.1188661,11.4946723 33.1926494,11.4773112 33.2599272,11.4382501 L33.6375328,11.2234057 C33.7720828,11.1431112 33.8545439,10.9998835 33.8545439,10.8436335 L33.8545439,10.4096057 C33.8545439,10.1687223 33.6592328,9.9755779 33.4205161,9.9755779 L33.4205161,9.9755779 Z" id="Fill-18" fill="#C99D34"></path>
                            <path d="M33.4205161,7.69725012 C33.1817994,7.69725012 32.9864883,7.89039457 32.9864883,8.1312779 L32.9864883,8.89083346 C32.9864883,9.13171679 33.1817994,9.32486124 33.4205161,9.32486124 C33.6592328,9.32486124 33.8545439,9.13171679 33.8545439,8.89083346 L33.8545439,8.1312779 C33.8545439,7.89039457 33.6592328,7.69725012 33.4205161,7.69725012 Z" id="Fill-19" fill="#C99D34"></path>
                            <path d="M33.4205161,5.41836124 C33.1817994,5.41836124 32.9864883,5.61150568 32.9864883,5.85238901 L32.9864883,6.61194457 C32.9864883,6.8528279 33.1817994,7.04597235 33.4205161,7.04597235 C33.6592328,7.04597235 33.8545439,6.8528279 33.8545439,6.61194457 L33.8545439,5.85238901 C33.8545439,5.61150568 33.6592328,5.41836124 33.4205161,5.41836124 Z" id="Fill-20" fill="#C99D34"></path>
                            <path d="M33.6371828,3.52391679 L33.2595772,3.30690568 C33.0512439,3.18755012 32.7864883,3.25916124 32.6671328,3.4653279 C32.5477772,3.67366124 32.6193939,3.93841679 32.8277217,4.05777235 L32.9861439,4.15108901 L32.9861439,4.3333779 C32.9861439,4.57426124 33.181455,4.76740568 33.4201717,4.76740568 C33.6588883,4.76740568 33.8541994,4.57426124 33.8541994,4.3333779 L33.8541994,3.89935012 C33.8541994,3.74527235 33.7717328,3.59987235 33.6371883,3.52391679 L33.6371828,3.52391679 Z" id="Fill-21" fill="#C99D34"></path>
                            <path d="M28.869405,1.77947235 L29.5291272,2.15924457 C29.5963994,2.19830568 29.672355,2.21783901 29.7461383,2.21783901 C29.8958772,2.21783901 30.0434494,2.13971679 30.1237439,2.0008279 C30.2430994,1.79249457 30.1714883,1.52773901 29.963155,1.40838346 L29.3034328,1.02861124 C29.0950994,0.90925568 28.8303439,0.980866791 28.7109883,1.18703346 C28.5894606,1.39536679 28.6610717,1.66012235 28.8694106,1.7794779 L28.869405,1.77947235 Z" id="Fill-22" fill="#C99D34"></path>
                            <path d="M31.9421828,2.54725012 L31.2824606,2.1674779 C31.0741272,2.04812235 30.8093717,2.11973346 30.6900161,2.32590012 C30.5706606,2.53423346 30.6422717,2.79898901 30.850605,2.91834457 L31.5103272,3.29811679 C31.5754328,3.3371779 31.6513883,3.35671124 31.7251717,3.35671124 C31.8749106,3.35671124 32.0224828,3.27858346 32.1027772,3.13969457 C32.2199661,2.93136124 32.1483494,2.66660568 31.9421883,2.54725012 L31.9421828,2.54725012 Z" id="Fill-23" fill="#C99D34"></path>
                            <path d="M27.1138494,2.66225012 L23.6416272,4.83236124 C23.5157606,4.91265568 23.4376328,5.05154457 23.4376328,5.20128346 L23.4376328,9.54156124 C23.4376328,9.69130012 23.515755,9.83018901 23.6416272,9.91048346 L27.1138494,12.0805946 C27.1832939,12.1240001 27.2635883,12.1457001 27.3438828,12.1457001 C27.4241772,12.1457001 27.5044717,12.1240001 27.5739161,12.0805946 L31.0461383,9.91048346 C31.172005,9.83018901 31.2501328,9.69130012 31.2501328,9.54156124 L31.2501328,5.20128346 C31.2501328,5.05154457 31.1720106,4.91265568 31.0461383,4.83236124 L27.5739161,2.66225012 C27.432855,2.57544457 27.254905,2.57544457 27.1138494,2.66225012 Z M30.3820717,9.30058346 L27.3438494,11.1994723 L24.3056272,9.30058346 L24.3056272,5.44208346 L27.3438494,3.54319457 L30.3820717,5.44208346 L30.3820717,9.30058346 Z" id="Fill-24" fill="#978760"></path>
                            <path d="M33.854405,20.3922501 C33.854405,20.9716946 32.9863494,20.9716946 32.9863494,20.3922501 C32.9863494,19.8128057 33.854405,19.8128057 33.854405,20.3922501" id="Fill-25" fill="#FCD880"></path>
                            <path d="M49.8460717,21.8966946 C50.1563994,22.3849779 49.4228939,22.8493612 49.1125717,22.3611057 C48.8022439,21.8728223 49.5357494,21.408439 49.8460717,21.8966946" id="Fill-26" fill="#C9A757"></path>
                            <path d="M49.9132939,20.3922501 C49.9132939,20.1513668 49.7179828,19.9582223 49.4792661,19.9582223 L44.7049328,19.9582223 C44.4662161,19.9582223 44.270905,20.1513668 44.270905,20.3922501 C44.270905,20.6331335 44.4662161,20.8262779 44.7049328,20.8262779 L49.4792661,20.8262779 C49.7179828,20.8262779 49.9132939,20.6331335 49.9132939,20.3922501 Z" id="Fill-27" fill="#FFEBBC"></path>
                            <path d="M49.9132939,18.6566946 C49.9132939,18.4158112 49.7179828,18.2226668 49.4792661,18.2226668 L42.1009328,18.2226668 C41.8622161,18.2226668 41.666905,18.4158112 41.666905,18.6566946 C41.666905,18.8975779 41.8622161,19.0907223 42.1009328,19.0907223 L49.4792661,19.0907223 C49.7179828,19.0907223 49.9132939,18.8975779 49.9132939,18.6566946 Z" id="Fill-28" fill="#FFEBBC"></path>
                            <path d="M44.7049606,17.3544723 L49.4792939,17.3544723 C49.7180106,17.3544723 49.9133217,17.1613279 49.9133217,16.9204446 C49.9133217,16.6795612 49.7180106,16.4864168 49.4792939,16.4864168 L44.7049606,16.4864168 C44.4662439,16.4864168 44.2709328,16.6795612 44.2709328,16.9204446 C44.2709328,17.1613279 44.4662439,17.3544723 44.7049606,17.3544723 Z" id="Fill-29" fill="#FFEBBC"></path>
                            <path d="M23.489405,19.7522501 L17.8471828,30.1689168 C17.7733994,30.3034668 17.7777383,30.4662279 17.8558661,30.5986057 C17.9339883,30.7288168 18.0750494,30.8091112 18.2291328,30.8091112 L29.5135772,30.8091112 L29.522255,30.8091112 C29.7609717,30.8091112 29.9562828,30.6159668 29.9562828,30.3750835 C29.9562828,30.2709168 29.9193883,30.1754279 29.8586272,30.1016446 L24.2530717,19.7522001 C24.1011606,19.4722501 23.6410717,19.4722501 23.4891828,19.7522001 L23.489405,19.7522501 Z M18.9581828,29.941139 L23.871405,20.8700279 L28.7846272,29.941139 L18.9581828,29.941139 Z" id="Fill-30" fill="#978760"></path>
                            <path d="M41.2327383,8.67391679 C40.514405,8.67391679 39.9306272,9.25769457 39.9306272,9.9760279 C39.9306272,10.6943612 40.514405,11.278139 41.2327383,11.278139 C41.9510717,11.278139 42.5348494,10.6943612 42.5348494,9.9760279 C42.5348494,9.25769457 41.9510717,8.67391679 41.2327383,8.67391679 Z M41.2327383,10.4100279 C40.9940217,10.4100279 40.7987106,10.2147168 40.7987106,9.97600012 C40.7987106,9.73728346 40.9940217,9.54197235 41.2327383,9.54197235 C41.471455,9.54197235 41.6667661,9.73728346 41.6667661,9.97600012 C41.6667661,10.2147168 41.471455,10.4100279 41.2327383,10.4100279 Z" id="Fill-31" fill="#DBB04A"></path>
                            <path d="M41.2327383,28.6389168 C41.9510717,28.6389168 42.5348494,28.055139 42.5348494,27.3368057 C42.5348494,26.6184723 41.9510717,26.0346946 41.2327383,26.0346946 C40.514405,26.0346946 39.9306272,26.6184723 39.9306272,27.3368057 C39.9306272,28.055139 40.514405,28.6389168 41.2327383,28.6389168 Z M41.2327383,26.9028057 C41.471455,26.9028057 41.6667661,27.0981168 41.6667661,27.3368335 C41.6667661,27.5755501 41.471455,27.7708612 41.2327383,27.7708612 C40.9940217,27.7708612 40.7987106,27.5755501 40.7987106,27.3368335 C40.7987106,27.0981168 40.9940217,26.9028057 41.2327383,26.9028057 Z" id="Fill-32" fill="#978760"></path>
                            <path d="M15.1910717,3.03113901 C14.4727383,3.03113901 13.8889606,3.61491679 13.8889606,4.33325012 C13.8889606,5.05158346 14.4727383,5.63536124 15.1910717,5.63536124 C15.909405,5.63536124 16.4931828,5.05158346 16.4931828,4.33325012 C16.4931828,3.61491679 15.909405,3.03113901 15.1910717,3.03113901 Z M15.1910717,4.76725012 C14.952355,4.76725012 14.7570439,4.57193901 14.7570439,4.33322235 C14.7570439,4.09450568 14.952355,3.89919457 15.1910717,3.89919457 C15.4297883,3.89919457 15.6250994,4.09450568 15.6250994,4.33322235 C15.6250994,4.57193901 15.4297883,4.76725012 15.1910717,4.76725012 Z" id="Fill-33" fill="#978760"></path>
                        </g>
                    </g>
                    <g id="Mouse-Clicker" mask="url(#mask-2)">
                        <g transform="translate(56.000000, 43.000000)">
                            <g id="Group-43" stroke="none" fill-rule="evenodd" transform="translate(11.368172, 10.623914) rotate(-2.000000) translate(-11.368172, -10.623914) translate(5.368172, 4.623914)">
                                <g id="Path-10" fill-rule="nonzero">
                                    <use fill="black" fill-opacity="1" filter="url(#filter-5)" xlink:href="#path-4"></use>
                                    <use fill="#FFFFFE" xlink:href="#path-4"></use>
                                </g>
                                <path d="M1.01994324,0.413452148 C0.802017212,0.363006592 0.645477295,0.391560872 0.550323486,0.49911499 C0.455169678,0.606669108 3.77728863,3.96011591 10.5166803,10.5594554 L11.3533152,9.6374846 C11.5370627,9.43499502 11.5240734,9.12245891 11.3241573,8.93591473 L8.70900413,6.49568293 C8.50710654,6.30728979 8.49615902,5.99089664 8.68455216,5.78899905 C8.72249177,5.74833984 8.76694857,5.71429475 8.81609196,5.68826566 L10.214014,4.94784799 C10.4580406,4.81859783 10.5510853,4.51599718 10.4218352,4.27197053 C10.366179,4.16689071 10.2748955,4.08508577 10.1643667,4.04123666 L1.01994324,0.413452148 Z" id="Path-10" fill="#E1E4E1" fill-rule="nonzero"></path>
                            </g>
                            <path d="M8,3.24000022 L9.90374754,1" id="Path-12" stroke="#FFFFFF" stroke-linecap="round" fill-rule="nonzero"></path>
                            <path d="M4.5131623,2.58503618 L6.41690984,0.345035961" id="Path-12" stroke="#FFFFFF" stroke-linecap="round" fill-rule="nonzero" transform="translate(5.465036, 1.465036) rotate(-45.000000) translate(-5.465036, -1.465036) "></path>
                            <path d="M1.18456824,4.0912756 L3.08831579,1.85127538" id="Path-12" stroke="#FFFFFF" stroke-linecap="round" fill-rule="nonzero" transform="translate(2.136442, 2.971275) rotate(-91.000000) translate(-2.136442, -2.971275) "></path>
                            <path d="M0.515013967,7.58273825 L2.41876151,5.34273803" id="Path-12" stroke="#FFFFFF" stroke-linecap="round" fill-rule="nonzero" transform="translate(1.466888, 6.462738) rotate(-134.000000) translate(-1.466888, -6.462738) "></path>
                            <path d="M2.01940172,10.2564421 L3.92314926,8.01644191" id="Path-12" stroke="#FFFFFF" stroke-linecap="round" fill-rule="nonzero" transform="translate(2.971275, 9.136442) rotate(-179.000000) translate(-2.971275, -9.136442) "></path>
                        </g>
                    </g>
                </g>
                <g id="Power-BI-Border" stroke="#F2C811" stroke-width="4">
                    <rect id="Azure-Border" x="2" y="2" width="96" height="96" rx="48"></rect>
                </g>
            </g>
        </g>
    </g>
</svg>