<svg width="103" height="103" viewBox="0 0 103 103" fill="none" xmlns="http://www.w3.org/2000/svg">
<path d="M51.7185 5.03467C50.6809 5.03467 49.355 5.67841 48.4422 6.24529L15.9955 26.1053C13.997 27.3255 12.8633 30.8517 12.8633 33.3883L13.1996 71.4749C13.1996 74.0114 14.9098 76.2885 16.9083 77.5088L49.1724 96.946C51.0076 98.0606 52.4968 98.0606 54.332 96.946L87.0284 77.4607C89.0269 76.2405 90.6411 74.0018 90.6411 71.4749V32.1392C90.6411 29.6027 89.1806 26.9988 87.1725 25.769L54.8124 6.24529C53.8996 5.68802 52.7658 5.03467 51.7185 5.03467Z" fill="#7D7D7D"/>
<path d="M51.7618 101.618C50.1285 101.618 48.5239 101.167 47.1019 100.302L13.9827 80.1826C11.0234 78.3858 9.18823 75.0038 9.18823 71.3431V31.4405C9.18823 27.7991 11.0234 24.4074 13.9827 22.6011L47.0923 2.49125C49.9363 0.761788 53.5778 0.771396 56.4122 2.49125L89.5122 22.6203C92.4715 24.417 94.3162 27.7991 94.3162 31.4598V71.3623C94.3162 74.4369 93.0095 77.3386 90.8189 79.241V79.2602L56.4122 100.321C55.0094 101.167 53.3952 101.618 51.7618 101.618ZM51.4063 4.9125C50.3687 4.9125 49.0427 5.55624 48.13 6.12312L15.6833 25.9831C13.6848 27.2034 12.5511 30.7295 12.5511 33.2661L12.8874 71.3527C12.8874 73.8892 14.5976 76.1664 16.5961 77.3866L48.8602 96.8238C50.6953 97.9384 52.1846 97.9384 54.0198 96.8238L86.7162 77.3386C88.7147 76.1183 90.3289 73.8796 90.3289 71.3527V32.017C90.3289 29.4805 88.8684 26.8767 86.8603 25.6468L54.5002 6.12312C53.5874 5.56585 52.4536 4.9125 51.4063 4.9125Z" fill="#F2F1F0"/>
<path d="M51.7472 99.343C50.3156 99.343 48.7783 98.8434 47.1833 97.8634L15.9569 78.8873C13.0745 77.1387 11.2874 73.8431 11.2874 70.2881V32.6338C11.2874 29.0884 13.0745 25.7928 15.9569 24.0345L47.1833 5.04888C48.3843 4.31866 49.9985 3.47314 51.7472 3.47314C53.467 3.47314 55.0139 4.27062 56.3014 5.03927H56.311L87.5471 24.0249C90.4295 25.7736 92.2166 29.0692 92.2166 32.6242V70.2881C92.2166 75.3419 89.9683 77.4077 87.5471 78.8873L56.311 97.873C54.668 98.8626 53.1788 99.343 51.7472 99.343ZM51.7472 7.3164C50.9401 7.3164 49.9024 7.89288 49.1818 8.32525L17.9554 27.3109C16.2163 28.3774 15.1306 30.4143 15.1306 32.6338V70.2881C15.1306 72.5075 16.2163 74.5445 17.9554 75.611L49.1818 94.5966C50.1811 95.2019 51.0362 95.5094 51.7472 95.5094C52.4486 95.5094 53.3133 95.2019 54.3125 94.5966L85.5486 75.611C87.4606 74.4388 88.3734 73.3434 88.3734 70.2881V32.6338C88.3734 30.4143 87.2876 28.3774 85.5486 27.3109L54.3125 8.33486C53.5247 7.86406 52.5254 7.3164 51.7472 7.3164Z" fill="#F2C811"/>
<path d="M78.7392 29.6128H24.7651V69.3439H78.7392V29.6128Z" fill="#30404D"/>
<path d="M41.4203 35.1914H30.2814C30.042 35.1914 29.8557 35.3865 29.8557 35.6171C29.8557 35.8565 30.042 36.0428 30.2814 36.0428H41.4203C41.6598 36.0428 41.846 35.8565 41.846 35.6171C41.846 35.3865 41.6509 35.1914 41.4203 35.1914Z" fill="white"/>
<path d="M38.4137 37.3369H30.2724C30.0329 37.3369 29.8467 37.532 29.8467 37.7626C29.8467 38.0021 30.0329 38.1883 30.2724 38.1883H38.4137C38.6532 38.1883 38.8394 38.0021 38.8394 37.7626C38.8483 37.532 38.6532 37.3369 38.4137 37.3369Z" fill="white"/>
<path d="M35.8509 39.4741H30.2814C30.042 39.4741 29.8557 39.6692 29.8557 39.8998C29.8557 40.1393 30.042 40.3255 30.2814 40.3255H35.8509C36.0903 40.3255 36.2766 40.1393 36.2766 39.8998C36.2766 39.6692 36.0814 39.4741 35.8509 39.4741Z" fill="white"/>
<path d="M49.8987 64.3776H42.2185V41.3992C42.2185 40.5744 42.8925 39.9004 43.7173 39.9004H49.8987C50.7235 39.9004 51.3975 40.5744 51.3975 41.3992V62.8788C51.3975 63.7125 50.7235 64.3776 49.8987 64.3776Z" fill="url(#paint0_linear)"/>
<path d="M44.9236 64.3777H37.0483V47.4565C37.0483 46.7382 37.6337 46.1528 38.352 46.1528H44.9148C45.6331 46.1528 46.2184 46.7382 46.2184 47.4565V63.074C46.2273 63.7924 45.642 64.3777 44.9236 64.3777Z" fill="url(#paint1_linear)"/>
<path d="M39.5936 64.3767H33.8202C32.8801 64.3767 32.1174 63.614 32.1174 62.674V53.8497C32.1174 52.9097 32.8801 52.147 33.8202 52.147H39.6025C40.5426 52.147 41.3053 52.9097 41.3053 53.8497V62.6828C41.2964 63.6229 40.5337 64.3767 39.5936 64.3767Z" fill="url(#paint2_linear)"/>
<path d="M64.5319 47.2522C64.4344 47.2522 64.3279 47.2167 64.2481 47.1458C64.0619 46.9861 64.0353 46.7112 64.1949 46.525L65.8799 44.5384C66.0396 44.3522 66.3234 44.3256 66.5007 44.4852C66.687 44.6448 66.7136 44.9197 66.5539 45.106L64.8689 47.0925C64.7802 47.199 64.6561 47.2522 64.5319 47.2522Z" fill="white"/>
<path d="M62.3857 46.9773C62.1551 46.9773 61.96 46.7999 61.9423 46.5693L61.7383 43.9708C61.7205 43.7225 61.8979 43.5097 62.1462 43.4919C62.3857 43.4742 62.6074 43.6516 62.6251 43.8999L62.8291 46.4984C62.8469 46.7467 62.6695 46.9596 62.4212 46.9773C62.4123 46.9773 62.4034 46.9773 62.3857 46.9773Z" fill="white"/>
<path d="M60.3372 47.8379C60.2396 47.8379 60.1421 47.8024 60.0534 47.7403L58.0402 46.0907C57.854 45.94 57.8274 45.6562 57.9781 45.4699C58.1289 45.2837 58.4127 45.2482 58.5989 45.4079L60.6121 47.0574C60.7983 47.2082 60.8249 47.492 60.6742 47.6782C60.5944 47.7846 60.4702 47.8379 60.3372 47.8379Z" fill="white"/>
<path d="M57.437 50.1965C57.2064 50.1965 57.0113 50.0191 56.9936 49.7796C56.9759 49.5313 57.1621 49.3273 57.4104 49.3096L60.0089 49.1411C60.2484 49.1145 60.4612 49.3096 60.4789 49.5579C60.4967 49.8062 60.3104 50.0102 60.0621 50.028L57.4636 50.1965C57.4548 50.1965 57.4459 50.1965 57.437 50.1965Z" fill="white"/>
<path d="M59.2107 53.4603C59.1043 53.4603 59.0067 53.4248 58.9181 53.3539C58.7318 53.1942 58.7141 52.9104 58.8737 52.7242L60.5942 50.7642C60.7538 50.578 61.0376 50.5603 61.2239 50.7199C61.4101 50.8795 61.4279 51.1633 61.2682 51.3496L59.5477 53.3095C59.459 53.4159 59.3349 53.4603 59.2107 53.4603Z" fill="white"/>
<path d="M62.4034 49.1589L65.8089 57.3446C65.9064 57.5752 66.1636 57.6816 66.3853 57.5841C66.4829 57.5486 66.5716 57.4599 66.6159 57.3623L67.3343 55.8724C67.4407 55.6596 67.7068 55.562 67.9285 55.6685C67.9728 55.6862 68.0083 55.7217 68.0438 55.7571L70.4028 58.0452C70.5802 58.2137 70.864 58.2049 71.0325 58.0364C71.0413 58.0275 71.0502 58.0186 71.0502 58.0186L72.3894 56.44C72.5401 56.2538 72.5224 55.97 72.345 55.8192L69.9416 53.7351C69.7554 53.5755 69.7377 53.3005 69.9062 53.1054C69.9416 53.07 69.9771 53.0434 70.0215 53.0168L71.2364 52.3161C71.4493 52.192 71.5202 51.9259 71.4049 51.7042C71.3517 51.6155 71.2631 51.5446 71.1655 51.5091L62.9709 48.5825C62.7404 48.4938 62.4832 48.6179 62.4034 48.8485C62.3501 48.9372 62.359 49.0525 62.4034 49.1589Z" fill="#FFFFFE"/>
<path fill-rule="evenodd" clip-rule="evenodd" d="M58.8469 77.3172H44.6572L46.4309 69.3354H57.0732L58.8469 77.3172Z" fill="#E1E4E1"/>
<path fill-rule="evenodd" clip-rule="evenodd" d="M58.8472 77.3172L57.0735 69.3354H46.4312L46.041 71.1092H49.9787C50.9542 71.1092 51.7524 71.9073 51.7524 72.8829V77.3172H58.8472Z" fill="#CDD6D8"/>
<path fill-rule="evenodd" clip-rule="evenodd" d="M62.3947 77.3165C62.3947 77.8043 61.9956 78.2034 61.5078 78.2034H41.997C41.5092 78.2034 41.1101 77.8043 41.1101 77.3165C41.1101 76.8288 41.5092 76.4297 41.997 76.4297H61.5078C61.9956 76.4297 62.3947 76.8288 62.3947 77.3165Z" fill="#E1E4E1"/>
<path fill-rule="evenodd" clip-rule="evenodd" d="M41.997 78.2038H61.5078C61.9956 78.2038 62.3947 77.8047 62.3947 77.3169H41.1101C41.1101 77.8047 41.5092 78.2038 41.997 78.2038Z" fill="#CDD6D8"/>
<defs>
<linearGradient id="paint0_linear" x1="46.6997" y1="42.1415" x2="46.895" y2="62.4526" gradientUnits="userSpaceOnUse">
<stop offset="0.00753769" stop-color="#E0A310"/>
<stop offset="1" stop-color="#CA810E"/>
</linearGradient>
<linearGradient id="paint1_linear" x1="41.3875" y1="46.8621" x2="41.9733" y2="68.345" gradientUnits="userSpaceOnUse">
<stop offset="0.00753769" stop-color="#F2CC40"/>
<stop offset="1" stop-color="#E7B116"/>
</linearGradient>
<linearGradient id="paint2_linear" x1="36.4895" y1="53.0894" x2="37.0755" y2="66.9557" gradientUnits="userSpaceOnUse">
<stop stop-color="#F8E17B"/>
<stop offset="0.5302" stop-color="#F6D856"/>
<stop offset="1" stop-color="#F6D856"/>
</linearGradient>
</defs>
</svg>
