<?xml version="1.0" encoding="UTF-8"?>
<svg width="100px" height="100px" viewBox="0 0 100 100" version="1.1" xmlns="http://www.w3.org/2000/svg" xmlns:xlink="http://www.w3.org/1999/xlink">
    <!-- Generator: Sketch 52.3 (67297) - http://www.bohemiancoding.com/sketch -->
    <title>Universal Resource Scheduling for Microsoft Dynamics 365/customizing-the-schedule-board-in-microsoft-dynamics-365-for-field-service</title>
    <desc>Created with Sketch.</desc>
    <defs>
        <rect id="path-1" x="0" y="0" width="96" height="96" rx="48"></rect>
        <filter x="-5.9%" y="-6.8%" width="111.8%" height="113.6%" filterUnits="objectBoundingBox" id="filter-3">
            <feOffset dx="0" dy="2" in="SourceAlpha" result="shadowOffsetOuter1"></feOffset>
            <feColorMatrix values="0 0 0 0 0   0 0 0 0 0   0 0 0 0 0  0 0 0 0.2 0" type="matrix" in="shadowOffsetOuter1" result="shadowMatrixOuter1"></feColorMatrix>
            <feMerge>
                <feMergeNode in="shadowMatrixOuter1"></feMergeNode>
                <feMergeNode in="SourceGraphic"></feMergeNode>
            </feMerge>
        </filter>
    </defs>
    <g id="Badges" stroke="none" stroke-width="1" fill="none" fill-rule="evenodd">
        <g id="Universal-Resource-Scheduling-for-Microsoft-Dynamics-365" transform="translate(-579.000000, -727.000000)">
            <g id="Universal-Resource-Scheduling-for-Microsoft-Dynamics-365/customizing-the-schedule-board-in-microsoft-dynamics-365-for-field-service" transform="translate(579.000000, 727.000000)">
                <g id="Mask" transform="translate(2.000000, 2.000000)">
                    <mask id="mask-2" fill="white">
                        <use xlink:href="#path-1"></use>
                    </mask>
                    <use id="BG" fill="#01B6C3" xlink:href="#path-1"></use>
                    <g id="Group-4" mask="url(#mask-2)">
                        <g transform="translate(14.000000, 17.500000)" id="Group-2">
                            <g filter="url(#filter-3)">
                                <path d="M2,6.89473684 L66,6.89473684 C67.1045695,6.89473684 68,7.79016734 68,8.89473684 L68,54.8947368 C68,56.5515911 66.6568542,57.8947368 65,57.8947368 L1,57.8947368 C0.44771525,57.8947368 3.99185455e-15,57.4470216 0,56.8947368 L0,8.89473684 C-1.3527075e-16,7.79016734 0.8954305,6.89473684 2,6.89473684 Z" id="Rectangle" fill="#E1E4E1" fill-rule="nonzero"></path>
                                <path d="M34,6.89473684 L66,6.89473684 C67.1045695,6.89473684 68,7.79016734 68,8.89473684 L68,57 L34,57 L34,6.89473684 Z" id="Rectangle" fill="#C5CCCD" fill-rule="nonzero"></path>
                                <path d="M30.6,56.8233995 L0,56.8233995 C0,57.6603011 0.765,58.3450388 1.7,58.3450388 L66.3,58.3450388 C67.235,58.3450388 68,57.6603011 68,56.8233995 L68,50.7368421 L37.4,50.7368421 C35.5215,50.7368421 34,52.0987093 34,53.7801208 C34,55.4615323 32.4785,56.8233995 30.6,56.8233995 Z" id="Fill-117" fill="#C5CCCD"></path>
                                <g id="Group" transform="translate(2.684211, 12.157895)">
                                    <rect id="Rectangle" fill="#FFFFFF" fill-rule="nonzero" x="0" y="1" width="62.6315789" height="14.3157895"></rect>
                                    <rect id="Rectangle" fill="#F2F2F2" fill-rule="nonzero" x="31.3157895" y="1" width="31.3157895" height="14.3157895"></rect>
                                    <rect id="Rectangle" fill="#A9B3B6" fill-rule="nonzero" x="0" y="0.591906706" width="62.6315789" height="39.3320795"></rect>
                                    <rect id="Rectangle" fill="#546670" fill-rule="nonzero" x="8.52651283e-13" y="0.591906706" width="62.6315789" height="39.3320795"></rect>
                                    <path d="M18.7157895,36.5900301 L7.91578947,36.5900301 C6.92128947,36.5900301 6.11578947,35.9248689 6.11578947,35.1052952 C6.11578947,34.2857216 6.92128947,33.6205604 7.91578947,33.6205604 L18.7157895,33.6205604 C19.7093895,33.6205604 20.5157895,34.2857216 20.5157895,35.1052952 C20.5157895,35.9248689 19.7093895,36.5900301 18.7157895,36.5900301" id="Fill-30" fill="#33A991"></path>
                                    <path d="M18.7157895,30.6510906 L7.91578947,30.6510906 C6.92128947,30.6510906 6.11578947,29.9859294 6.11578947,29.1663557 C6.11578947,28.3467821 6.92128947,27.6816208 7.91578947,27.6816208 L18.7157895,27.6816208 C19.7093895,27.6816208 20.5157895,28.3467821 20.5157895,29.1663557 C20.5157895,29.9859294 19.7093895,30.6510906 18.7157895,30.6510906" id="Fill-31" fill="#33A991"></path>
                                    <path d="M18.7157895,24.7121511 L7.91578947,24.7121511 C6.92128947,24.7121511 6.11578947,24.0469899 6.11578947,23.2274162 C6.11578947,22.4078426 6.92128947,21.7426813 7.91578947,21.7426813 L18.7157895,21.7426813 C19.7093895,21.7426813 20.5157895,22.4078426 20.5157895,23.2274162 C20.5157895,24.0469899 19.7093895,24.7121511 18.7157895,24.7121511" id="Fill-32" fill="#EFB252"></path>
                                    <path d="M18.7157895,18.7732116 L7.91578947,18.7732116 C6.92128947,18.7732116 6.11578947,18.1080503 6.11578947,17.2884767 C6.11578947,16.468903 6.92128947,15.8037418 7.91578947,15.8037418 L18.7157895,15.8037418 C19.7093895,15.8037418 20.5157895,16.468903 20.5157895,17.2884767 C20.5157895,18.1080503 19.7093895,18.7732116 18.7157895,18.7732116" id="Fill-33" fill="#EFB252"></path>
                                    <path d="M36.7157895,36.5900301 L25.9157895,36.5900301 C24.9212895,36.5900301 24.1157895,35.9248689 24.1157895,35.1052952 C24.1157895,34.2857216 24.9212895,33.6205604 25.9157895,33.6205604 L36.7157895,33.6205604 C37.7093895,33.6205604 38.5157895,34.2857216 38.5157895,35.1052952 C38.5157895,35.9248689 37.7093895,36.5900301 36.7157895,36.5900301" id="Fill-34" fill="#33A991"></path>
                                    <path d="M36.7157895,30.6510906 L25.9157895,30.6510906 C24.9212895,30.6510906 24.1157895,29.9859294 24.1157895,29.1663557 C24.1157895,28.3467821 24.9212895,27.6816208 25.9157895,27.6816208 L36.7157895,27.6816208 C37.7093895,27.6816208 38.5157895,28.3467821 38.5157895,29.1663557 C38.5157895,29.9859294 37.7093895,30.6510906 36.7157895,30.6510906" id="Fill-35" fill="#33A991"></path>
                                    <path d="M36.7157895,12.8342721 L25.9157895,12.8342721 C24.9212895,12.8342721 24.1157895,12.1691108 24.1157895,11.3495372 C24.1157895,10.5299635 24.9212895,9.86480229 25.9157895,9.86480229 L36.7157895,9.86480229 C37.7093895,9.86480229 38.5157895,10.5299635 38.5157895,11.3495372 C38.5157895,12.1691108 37.7093895,12.8342721 36.7157895,12.8342721" id="Fill-36" fill="#DF5142"></path>
                                    <path d="M36.7157895,6.89533253 L25.9157895,6.89533253 C24.9212895,6.89533253 24.1157895,6.23017131 24.1157895,5.41059765 C24.1157895,4.591024 24.9212895,3.92586278 25.9157895,3.92586278 L36.7157895,3.92586278 C37.7093895,3.92586278 38.5157895,4.591024 38.5157895,5.41059765 C38.5157895,6.23017131 37.7093895,6.89533253 36.7157895,6.89533253" id="Fill-37" fill="#DF5142"></path>
                                    <path d="M36.7157895,24.7121511 L25.9157895,24.7121511 C24.9212895,24.7121511 24.1157895,24.0469899 24.1157895,23.2274162 C24.1157895,22.4078426 24.9212895,21.7426813 25.9157895,21.7426813 L36.7157895,21.7426813 C37.7093895,21.7426813 38.5157895,22.4078426 38.5157895,23.2274162 C38.5157895,24.0469899 37.7093895,24.7121511 36.7157895,24.7121511" id="Fill-38" fill="#EFB252"></path>
                                    <path d="M36.7157895,18.7732116 L25.9157895,18.7732116 C24.9212895,18.7732116 24.1157895,18.1080503 24.1157895,17.2884767 C24.1157895,16.468903 24.9212895,15.8037418 25.9157895,15.8037418 L36.7157895,15.8037418 C37.7093895,15.8037418 38.5157895,16.468903 38.5157895,17.2884767 C38.5157895,18.1080503 37.7093895,18.7732116 36.7157895,18.7732116" id="Fill-39" fill="#EFB252"></path>
                                    <path d="M54.7157895,36.5900301 L43.9157895,36.5900301 C42.9212895,36.5900301 42.1157895,35.9248689 42.1157895,35.1052952 C42.1157895,34.2857216 42.9212895,33.6205604 43.9157895,33.6205604 L54.7157895,33.6205604 C55.7093895,33.6205604 56.5157895,34.2857216 56.5157895,35.1052952 C56.5157895,35.9248689 55.7093895,36.5900301 54.7157895,36.5900301" id="Fill-40" fill="#33A991"></path>
                                    <path d="M54.7157895,30.6510906 L43.9157895,30.6510906 C42.9212895,30.6510906 42.1157895,29.9859294 42.1157895,29.1663557 C42.1157895,28.3467821 42.9212895,27.6816208 43.9157895,27.6816208 L54.7157895,27.6816208 C55.7093895,27.6816208 56.5157895,28.3467821 56.5157895,29.1663557 C56.5157895,29.9859294 55.7093895,30.6510906 54.7157895,30.6510906" id="Fill-41" fill="#33A991"></path>
                                </g>
                                <path d="M32,8 C32,9.656 30.656,11 29,11 C27.343,11 26,9.656 26,8 C26,6.344 27.343,5 29,5 C30.656,5 32,6.344 32,8" id="Fill-214" fill="#A9B3B6"></path>
                                <path d="M22,8 C22,9.656 20.656,11 19,11 C17.343,11 16,9.656 16,8 C16,6.344 17.343,5 19,5 C20.656,5 22,6.344 22,8" id="Fill-215" fill="#A9B3B6"></path>
                                <path d="M12,8 C12,9.656 10.656,11 9,11 C7.343,11 6,9.656 6,8 C6,6.344 7.343,5 9,5 C10.656,5 12,6.344 12,8" id="Fill-216" fill="#A9B3B6"></path>
                                <path d="M42,8 C42,9.656 40.656,11 39,11 C37.343,11 36,9.656 36,8 C36,6.344 37.343,5 39,5 C40.656,5 42,6.344 42,8" id="Fill-217" fill="#A9B3B6"></path>
                                <path d="M9,10 C7.895,10 7,9.104 7,8 L7,2 C7,0.896 7.895,0 9,0 C10.104,0 11,0.896 11,2 L11,8 C11,9.104 10.104,10 9,10" id="Fill-218" fill="#546670"></path>
                                <path d="M19,10 C17.895,10 17,9.104 17,8 L17,2 C17,0.896 17.895,0 19,0 C20.104,0 21,0.896 21,2 L21,8 C21,9.104 20.104,10 19,10" id="Fill-219" fill="#546670"></path>
                                <path d="M29,10 C27.895,10 27,9.104 27,8 L27,2 C27,0.896 27.895,0 29,0 C30.104,0 31,0.896 31,2 L31,8 C31,9.104 30.104,10 29,10" id="Fill-220" fill="#546670"></path>
                                <path d="M39,10 C37.895,10 37,9.104 37,8 L37,2 C37,0.896 37.895,0 39,0 C40.104,0 41,0.896 41,2 L41,8 C41,9.104 40.104,10 39,10" id="Fill-221" fill="#546670"></path>
                                <path d="M52,8 C52,9.656 50.656,11 49,11 C47.343,11 46,9.656 46,8 C46,6.344 47.343,5 49,5 C50.656,5 52,6.344 52,8" id="Fill-217" fill="#A9B3B6"></path>
                                <path d="M49,10 C47.895,10 47,9.104 47,8 L47,2 C47,0.896 47.895,0 49,0 C50.104,0 51,0.896 51,2 L51,8 C51,9.104 50.104,10 49,10" id="Fill-221" fill="#546670"></path>
                                <path d="M62,8 C62,9.656 60.656,11 59,11 C57.343,11 56,9.656 56,8 C56,6.344 57.343,5 59,5 C60.656,5 62,6.344 62,8" id="Fill-217" fill="#A9B3B6"></path>
                                <path d="M59,10 C57.895,10 57,9.104 57,8 L57,2 C57,0.896 57.895,0 59,0 C60.104,0 61,0.896 61,2 L61,8 C61,9.104 60.104,10 59,10" id="Fill-221" fill="#546670"></path>
                            </g>
                        </g>
                    </g>
                </g>
                <g id="Dynamic-Border" stroke="#1D8E96" stroke-width="4">
                    <rect id="Azure-Border" x="2" y="2" width="96" height="96" rx="48"></rect>
                </g>
            </g>
        </g>
    </g>
</svg>