<svg width="103" height="103" viewBox="0 0 103 103" fill="none" xmlns="http://www.w3.org/2000/svg">
<path d="M51.7021 97.8258C25.8521 97.8258 4.89209 76.8758 4.89209 51.0158C4.89209 25.1558 25.8521 4.20581 51.7021 4.20581C77.5521 4.20581 98.5121 25.1658 98.5121 51.0158C98.5121 76.8658 77.5521 97.8258 51.7021 97.8258Z" fill="url(#paint0_linear)"/>
<path fill-rule="evenodd" clip-rule="evenodd" d="M97.602 51.0158C97.602 76.3658 77.052 96.9158 51.702 96.9158C26.352 96.9158 5.80201 76.3658 5.80201 51.0158C5.80201 25.6658 26.352 5.11581 51.702 5.11581C77.052 5.11581 97.602 25.6658 97.602 51.0158ZM51.702 1.37581C79.122 1.37581 101.342 23.5958 101.342 51.0158C101.342 78.4358 79.112 100.656 51.702 100.656C24.282 100.656 2.06201 78.4258 2.06201 51.0158C2.06201 23.5958 24.282 1.37581 51.702 1.37581Z" fill="#F2F1F0"/>
<path fill-rule="evenodd" clip-rule="evenodd" d="M94.7921 51.0158C94.7921 74.8158 75.5021 94.1058 51.7021 94.1058C27.9021 94.1058 8.61207 74.8158 8.61207 51.0158C8.61207 27.2158 27.9021 7.92581 51.7021 7.92581C75.5021 7.92581 94.7921 27.2158 94.7921 51.0158ZM51.7021 4.18581C77.5621 4.18581 98.5321 25.1558 98.5321 51.0158C98.5321 76.8758 77.5621 97.8458 51.7021 97.8458C25.8421 97.8458 4.87207 76.8758 4.87207 51.0158C4.87207 25.1558 25.8321 4.18581 51.7021 4.18581Z" fill="url(#paint1_linear)"/>
<path opacity="0.15" d="M89.3121 46.2657C89.3121 45.4557 88.6521 44.7957 87.8421 44.7957C87.3121 44.7957 84.0121 44.5057 82.2421 43.1257C82.2421 43.1257 82.2521 43.1057 82.2421 43.1257C81.5721 40.6857 80.5921 38.4057 79.3821 36.2457C79.0721 34.1957 81.1921 32.7057 82.1621 31.1057C82.3321 30.8257 82.4321 30.6657 82.4921 30.5557C82.6721 30.0357 82.5721 29.4357 82.1621 29.0257C82.1621 29.0257 80.5321 26.6957 78.8621 25.0357C77.1921 23.3757 74.6621 21.5257 74.6621 21.5257C74.0921 20.9557 73.1521 20.9557 72.5821 21.5257C72.2021 21.8957 69.6921 23.9657 67.4321 24.2957C67.4021 24.2957 67.4021 24.2957 67.4021 24.2957C65.3021 23.1057 62.9421 22.1257 60.5721 21.4557H60.5421C58.8721 20.2257 59.3121 17.6757 58.8721 15.8557C58.8721 15.0457 58.2121 14.3857 57.4021 14.3857C57.4021 14.3857 54.6021 13.8957 52.2421 13.8957C49.8821 13.8957 46.7921 14.3857 46.7921 14.3857C45.9821 14.3857 45.3221 15.0457 45.3221 15.8557C45.3221 16.3857 45.0321 19.6857 43.6521 21.4557C41.3121 22.1157 38.8521 23.1557 36.7721 24.3157C34.7221 24.6257 33.2321 22.5057 31.6321 21.5357C31.3521 21.3657 31.1921 21.2657 31.0821 21.2057C30.5621 21.0257 29.9621 21.1257 29.5521 21.5357C29.5521 21.5357 27.2221 23.1657 25.5621 24.8357C23.9021 26.5057 22.0521 29.0357 22.0521 29.0357C21.4821 29.6057 21.4821 30.5457 22.0521 31.1157C22.4221 31.4857 24.5521 34.0357 24.8321 36.2557V36.2757C23.6721 38.3557 22.6521 40.8057 21.9921 43.1457C21.9921 43.1457 22.0221 43.1057 21.9921 43.1457C20.5621 44.8857 18.2121 44.3757 16.3921 44.8157C15.5821 44.8157 14.9221 45.4757 14.9221 46.2857C14.9221 46.2857 14.4321 49.0857 14.4321 51.4457C14.4321 53.8057 14.9221 56.8957 14.9221 56.8957C14.9221 57.7057 15.5821 58.3657 16.3921 58.3657C16.9221 58.3657 20.2221 58.6557 21.9921 60.0357C22.0321 60.0157 22.0121 60.0657 22.0121 60.0657C22.6921 62.4157 23.6621 64.7657 24.8421 66.8457C24.8221 66.8757 24.8421 66.8457 24.8521 66.9157C25.0521 69.0557 23.0421 70.4557 22.0721 72.0557C21.9021 72.3357 21.8021 72.4957 21.7421 72.6057C21.5621 73.1257 21.6621 73.7257 22.0721 74.1357C22.0721 74.1357 23.7021 76.4657 25.3721 78.1257C27.0421 79.7957 29.5721 81.6357 29.5721 81.6357C30.1421 82.2057 31.0821 82.2057 31.6521 81.6357C32.0221 81.2657 34.5721 79.1357 36.7921 78.8557C36.7921 78.8557 36.7821 78.8657 36.8221 78.8757C38.9621 80.0657 41.1721 81.0057 43.5921 81.6657C43.6121 81.6757 43.6821 81.6957 43.6821 81.6957C45.3521 82.9257 44.9121 85.4757 45.3521 87.2957C45.4421 88.1157 45.8921 88.6357 46.8221 88.7657C46.8221 88.7657 49.6221 89.2557 51.9821 89.2557C54.3421 89.2557 57.4321 88.7757 57.4321 88.7757C58.2421 88.6357 58.9021 88.1157 58.9021 87.3057C58.9021 86.7757 59.1921 83.4757 60.5721 81.7057C60.5721 81.7057 60.6321 81.6557 60.6921 81.6057C63.1521 80.9157 65.0221 80.1557 67.1921 78.9057C67.3021 78.8657 67.1821 78.8757 67.4421 78.8357C69.4921 78.5257 70.9821 80.6457 72.5821 81.6157C72.8621 81.7857 73.0221 81.8857 73.1321 81.9457C73.6521 82.1257 74.2521 82.0257 74.6621 81.6157C74.6621 81.6157 76.9921 79.9857 78.6521 78.3157C80.3221 76.6457 82.1621 74.1157 82.1621 74.1157C82.7321 73.5457 82.7321 72.6057 82.1621 72.0357C81.7921 71.6657 79.6621 69.1157 79.3821 66.8957C79.3521 66.6657 79.3721 66.6357 79.4021 66.5757C80.6421 64.3857 81.4221 62.7857 82.1021 60.3057C82.1021 60.3057 82.0721 60.2257 82.2321 60.0157C83.4621 58.3457 86.0121 58.7857 87.8321 58.3457C88.6421 58.3457 89.3021 57.6857 89.3021 56.8757C89.3021 56.8757 89.7921 54.0757 89.7921 51.7157C89.7921 49.3557 89.3121 46.2657 89.3121 46.2657Z" fill="#1F1D20"/>
<path d="M89.3121 45.2657C89.3121 44.4557 88.6521 43.7957 87.8421 43.7957C87.3121 43.7957 84.0121 43.5057 82.2421 42.1257C82.2421 42.1257 82.2521 42.1057 82.2421 42.1257C81.5721 39.6857 80.5921 37.4057 79.3821 35.2457C79.0721 33.1957 81.1921 31.7057 82.1621 30.1057C82.3321 29.8257 82.4321 29.6657 82.4921 29.5557C82.6721 29.0357 82.5721 28.4357 82.1621 28.0257C82.1621 28.0257 80.5321 25.6957 78.8621 24.0357C77.1921 22.3757 74.6621 20.5257 74.6621 20.5257C74.0921 19.9557 73.1521 19.9557 72.5821 20.5257C72.2021 20.8957 69.6921 22.9657 67.4321 23.2957C67.4021 23.2957 67.4021 23.2957 67.4021 23.2957C65.3021 22.1057 62.9421 21.1257 60.5721 20.4557H60.5421C58.8721 19.2257 59.3121 16.6757 58.8721 14.8557C58.8721 14.0457 58.2121 13.3857 57.4021 13.3857C57.4021 13.3857 54.6021 12.8957 52.2421 12.8957C49.8821 12.8957 46.7921 13.3857 46.7921 13.3857C45.9821 13.3857 45.3221 14.0457 45.3221 14.8557C45.3221 15.3857 45.0321 18.6857 43.6521 20.4557C41.3121 21.1157 38.8521 22.1557 36.7721 23.3157C34.7221 23.6257 33.2321 21.5057 31.6321 20.5357C31.3521 20.3657 31.1921 20.2657 31.0821 20.2057C30.5621 20.0257 29.9621 20.1257 29.5521 20.5357C29.5521 20.5357 27.2221 22.1657 25.5621 23.8357C23.9021 25.5057 22.0521 28.0357 22.0521 28.0357C21.4821 28.6057 21.4821 29.5457 22.0521 30.1157C22.4221 30.4857 24.5521 33.0357 24.8321 35.2557V35.2757C23.6721 37.3557 22.6521 39.8057 21.9921 42.1457C21.9921 42.1457 22.0221 42.1057 21.9921 42.1457C20.5621 43.8857 18.2121 43.3757 16.3921 43.8157C15.5821 43.8157 14.9221 44.4757 14.9221 45.2857C14.9221 45.2857 14.4321 48.0857 14.4321 50.4457C14.4321 52.8057 14.9221 55.8957 14.9221 55.8957C14.9221 56.7057 15.5821 57.3657 16.3921 57.3657C16.9221 57.3657 20.2221 57.6557 21.9921 59.0357C22.0321 59.0157 22.0121 59.0657 22.0121 59.0657C22.6921 61.4157 23.6621 63.7657 24.8421 65.8457C24.8221 65.8757 24.8421 65.8457 24.8521 65.9157C25.0521 68.0557 23.0421 69.4557 22.0721 71.0557C21.9021 71.3357 21.8021 71.4957 21.7421 71.6057C21.5621 72.1257 21.6621 72.7257 22.0721 73.1357C22.0721 73.1357 23.7021 75.4657 25.3721 77.1257C27.0421 78.7957 29.5721 80.6357 29.5721 80.6357C30.1421 81.2057 31.0821 81.2057 31.6521 80.6357C32.0221 80.2657 34.5721 78.1357 36.7921 77.8557C36.7921 77.8557 36.7821 77.8657 36.8221 77.8757C38.9621 79.0657 41.1721 80.0057 43.5921 80.6657C43.6121 80.6757 43.6821 80.6957 43.6821 80.6957C45.3521 81.9257 44.9121 84.4757 45.3521 86.2957C45.4421 87.1157 45.8921 87.6357 46.8221 87.7657C46.8221 87.7657 49.6221 88.2557 51.9821 88.2557C54.3421 88.2557 57.4321 87.7757 57.4321 87.7757C58.2421 87.6357 58.9021 87.1157 58.9021 86.3057C58.9021 85.7757 59.1921 82.4757 60.5721 80.7057C60.5721 80.7057 60.6321 80.6557 60.6921 80.6057C63.1521 79.9157 65.0221 79.1557 67.1921 77.9057C67.3021 77.8657 67.1821 77.8757 67.4421 77.8357C69.4921 77.5257 70.9821 79.6457 72.5821 80.6157C72.8621 80.7857 73.0221 80.8857 73.1321 80.9457C73.6521 81.1257 74.2521 81.0257 74.6621 80.6157C74.6621 80.6157 76.9921 78.9857 78.6521 77.3157C80.3221 75.6457 82.1621 73.1157 82.1621 73.1157C82.7321 72.5457 82.7321 71.6057 82.1621 71.0357C81.7921 70.6657 79.6621 68.1157 79.3821 65.8957C79.3521 65.6657 79.3721 65.6357 79.4021 65.5757C80.6421 63.3857 81.4221 61.7857 82.1021 59.3057C82.1021 59.3057 82.0721 59.2257 82.2321 59.0157C83.4621 57.3457 86.0121 57.7857 87.8321 57.3457C88.6421 57.3457 89.3021 56.6857 89.3021 55.8757C89.3021 55.8757 89.7921 53.0757 89.7921 50.7157C89.7921 48.3557 89.3121 45.2657 89.3121 45.2657Z" fill="#F2F1F0"/>
<path d="M23.7222 71.3457C23.6122 71.5357 23.6322 71.4957 23.7222 71.3457V71.3457Z" fill="#F2F1F0"/>
<path d="M23.7222 71.3457C23.7222 71.3357 23.7322 71.3357 23.7322 71.3257C23.7322 71.3357 23.7222 71.3457 23.7222 71.3457Z" fill="#F2F1F0"/>
<path d="M23.7319 71.3257C23.8619 71.1157 24.0619 70.7757 24.0619 70.7757C23.9119 70.9357 23.8019 71.1257 23.7319 71.3257Z" fill="#F2F1F0"/>
<path d="M75.1518 80.6857C75.1418 80.6857 75.1418 80.6757 75.1318 80.6757C75.1418 80.6757 75.1518 80.6857 75.1518 80.6857Z" fill="#F2F1F0"/>
<path d="M75.132 80.6757C74.922 80.5457 74.582 80.3457 74.582 80.3457C74.742 80.4957 74.932 80.6057 75.132 80.6757Z" fill="#F2F1F0"/>
<path d="M75.1523 80.6857C75.3423 80.7957 75.3023 80.7757 75.1523 80.6857V80.6857Z" fill="#F2F1F0"/>
<path d="M51.0021 48.8358H44.4621C43.6821 43.5858 39.1521 39.5358 33.7021 39.5358C32.6421 39.5358 31.6721 39.7358 30.7121 40.0158C30.6821 40.0158 30.6821 40.0158 30.6721 40.0158L30.6221 39.9358V43.3958C31.2121 43.1258 31.8421 42.9058 32.4621 42.7958C32.8821 42.7258 33.2821 42.6958 33.7021 42.6958C37.9521 42.6958 41.4321 46.1558 41.4321 50.4258C41.4321 54.6758 37.9721 58.1558 33.7021 58.1558C32.6021 58.1558 31.5621 57.9158 30.6221 57.5058V60.8758C31.5921 61.1658 32.6321 61.3258 33.7021 61.3258C39.1621 61.3258 43.7021 57.2658 44.4621 52.0058H51.0021V48.8358Z" fill="#185A97"/>
<path d="M29.6821 51.9958C30.3221 53.7058 31.9421 54.9058 33.8521 54.9058C36.3221 54.9058 38.3221 52.8958 38.3221 50.4358C38.3221 47.9658 36.3121 45.9658 33.8521 45.9658C31.9521 45.9658 30.3221 47.1658 29.6821 48.8458H17.9321V52.0058H29.6821V51.9958Z" fill="#185A97"/>
<path d="M75.1226 56.8758C75.1226 56.2158 74.5826 55.6758 73.9226 55.6758H55.3426C54.6826 55.6758 54.1426 56.2158 54.1426 56.8758C54.1426 57.5358 54.6826 58.0758 55.3426 58.0758H73.9326C74.5826 58.0658 75.1226 57.5358 75.1226 56.8758Z" fill="#50E6FF"/>
<path d="M58.6221 56.8658C58.6221 58.1858 59.6921 59.2558 61.0121 59.2558C62.3321 59.2558 63.4021 58.1858 63.4021 56.8658C63.4021 55.5458 62.3321 54.4758 61.0121 54.4758C59.6921 54.4758 58.6221 55.5458 58.6221 56.8658Z" fill="#0078D4"/>
<path d="M75.1226 62.9358C75.1226 62.2758 74.5826 61.7358 73.9226 61.7358H55.3426C54.6826 61.7358 54.1426 62.2758 54.1426 62.9358C54.1426 63.5958 54.6826 64.1358 55.3426 64.1358H73.9326C74.5826 64.1258 75.1226 63.5958 75.1226 62.9358Z" fill="#32B0E7"/>
<path d="M65.8027 62.9358C65.8027 64.2558 66.8727 65.3258 68.1927 65.3258C69.5127 65.3258 70.5827 64.2558 70.5827 62.9358C70.5827 61.6158 69.5127 60.5458 68.1927 60.5458C66.8727 60.5458 65.8027 61.6158 65.8027 62.9358Z" fill="#0078D4"/>
<path d="M75.1226 69.3558C75.1226 68.6958 74.5826 68.1558 73.9226 68.1558H55.3426C54.6826 68.1558 54.1426 68.6958 54.1426 69.3558C54.1426 70.0158 54.6826 70.5558 55.3426 70.5558H73.9326C74.5826 70.5558 75.1226 70.0258 75.1226 69.3558Z" fill="#185A97"/>
<path d="M58.7021 69.3558C58.7021 70.6758 59.7721 71.7458 61.0921 71.7458C62.4121 71.7458 63.4821 70.6758 63.4821 69.3558C63.4821 68.0358 62.4121 66.9658 61.0921 66.9658C59.7721 66.9558 58.7021 68.0358 58.7021 69.3558Z" fill="#0078D4"/>
<path d="M55.3923 30.9958H54.1123V52.0158H55.3923V30.9958Z" fill="#84ECFD"/>
<path d="M75.6823 52.0158V50.7358H54.1123V52.0158H75.6823Z" fill="#84ECFD"/>
<path d="M59.1324 40.1558L57.1924 42.0958V44.0158L60.0824 41.1258L59.1324 40.1558Z" fill="#32B0E7"/>
<path d="M65.8922 44.9958V37.2658L62.0322 41.1258L65.8922 44.9958Z" fill="#32B0E7"/>
<path d="M68.8023 40.1558L66.8623 38.2358V44.0258L73.6223 37.2658L75.5623 39.2058V33.3758L68.8023 40.1558Z" fill="#32B0E7"/>
<path d="M66.8623 44.0258V48.8658H75.5623V39.1858L73.6223 37.2658L66.8623 44.0258Z" fill="#50E6FF"/>
<path d="M65.8924 44.9958L61.0524 40.1558L57.1924 44.0158V48.8558H65.8924V44.9958Z" fill="#50E6FF"/>
<path d="M66.3723 36.6158C66.9023 36.6158 67.3423 36.1858 67.3423 35.6458C67.3423 35.1158 66.9123 34.6758 66.3723 34.6758C65.8423 34.6758 65.4023 35.1058 65.4023 35.6458C65.4023 36.1758 65.8523 36.6158 66.3723 36.6158Z" fill="#32B0E7"/>
<defs>
<linearGradient id="paint0_linear" x1="49.9326" y1="-13.7738" x2="53.9146" y2="131.996" gradientUnits="userSpaceOnUse">
<stop stop-color="#00ABDE"/>
<stop offset="1" stop-color="#007ED8"/>
</linearGradient>
<linearGradient id="paint1_linear" x1="3.13527" y1="-20.6088" x2="98.6629" y2="120.272" gradientUnits="userSpaceOnUse">
<stop stop-color="#007ED8"/>
<stop offset="0.7065" stop-color="#002D4C"/>
</linearGradient>
</defs>
</svg>
