<svg width="103" height="103" viewBox="0 0 103 103" fill="none" xmlns="http://www.w3.org/2000/svg">
<path d="M51.6249 97.8558C25.7749 97.8558 4.81494 76.9058 4.81494 51.0458C4.81494 25.1858 25.7749 4.23584 51.6249 4.23584C77.4749 4.23584 98.4349 25.1958 98.4349 51.0458C98.4349 76.8958 77.4749 97.8558 51.6249 97.8558Z" fill="url(#paint0_linear)"/>
<path fill-rule="evenodd" clip-rule="evenodd" d="M97.5249 51.0459C97.5249 76.3959 76.9749 96.9459 51.6249 96.9459C26.2749 96.9459 5.72486 76.3959 5.72486 51.0459C5.72486 25.6959 26.2749 5.14588 51.6249 5.14588C76.9749 5.14588 97.5249 25.6959 97.5249 51.0459ZM51.6249 1.40588C79.0449 1.40588 101.265 23.6259 101.265 51.0459C101.265 78.4659 79.0349 100.686 51.6249 100.686C24.2049 100.686 1.98486 78.4559 1.98486 51.0459C1.98486 23.6259 24.2049 1.40588 51.6249 1.40588Z" fill="#F2F1F0"/>
<path fill-rule="evenodd" clip-rule="evenodd" d="M94.7149 51.0459C94.7149 74.8459 75.4249 94.1359 51.6249 94.1359C27.8249 94.1359 8.53492 74.8459 8.53492 51.0459C8.53492 27.2459 27.8249 7.95594 51.6249 7.95594C75.4249 7.95594 94.7149 27.2459 94.7149 51.0459ZM51.6249 4.21594C77.4849 4.21594 98.4549 25.1859 98.4549 51.0459C98.4549 76.9059 77.4849 97.8759 51.6249 97.8759C25.7649 97.8759 4.79492 76.9059 4.79492 51.0459C4.79492 25.1859 25.7549 4.21594 51.6249 4.21594Z" fill="url(#paint1_linear)"/>
<path opacity="0.15" d="M18.6048 72.6558H69.1048C69.7548 72.6558 70.2848 72.1258 70.2848 71.4758V31.9458H17.4248V71.4758C17.4248 72.1258 17.9548 72.6558 18.6048 72.6558Z" fill="#1F1D20"/>
<path d="M18.4348 71.3258H69.2848C69.8348 71.3258 70.2948 70.8758 70.2948 70.3158V30.6158H17.4248V70.3158C17.4248 70.8758 17.8748 71.3258 18.4348 71.3258Z" fill="#EBEBEB"/>
<path d="M17.4248 35.0159H70.2948V30.2759C70.2948 29.8459 69.9548 29.5059 69.5248 29.5059H18.1948C17.7648 29.5059 17.4248 29.8459 17.4248 30.2759V35.0159Z" fill="#092E4C"/>
<path d="M21.4948 33.7159C22.2348 33.7159 22.8348 33.1159 22.8348 32.3759C22.8348 31.6359 22.2248 31.0359 21.4948 31.0359C20.7548 31.0359 20.1548 31.6359 20.1548 32.3759C20.1548 33.1159 20.7348 33.7159 21.4948 33.7159Z" fill="#32B0E7"/>
<path d="M55.6452 51.536H36.6952C35.9652 46.646 31.7452 42.876 26.6752 42.876C25.6952 42.876 24.7852 43.066 23.8952 43.316C23.8752 43.316 23.8752 43.316 23.8552 43.316L23.8152 43.246V46.466C24.3652 46.216 24.9452 46.016 25.5252 45.906C25.9152 45.846 26.2952 45.806 26.6752 45.806C30.6352 45.806 33.8752 49.036 33.8752 53.006C33.8752 56.966 30.6452 60.206 26.6752 60.206C25.6452 60.206 24.6852 59.986 23.8052 59.596V62.736C24.7152 63.006 25.6752 63.156 26.6752 63.156C31.7652 63.156 35.9952 59.366 36.7052 54.466H55.6452V51.536V51.536Z" fill="url(#paint2_linear)"/>
<path d="M22.7752 54.4759C23.3752 56.0659 24.8852 57.1859 26.6652 57.1859C28.9652 57.1859 30.8352 55.3159 30.8352 53.0159C30.8352 50.7159 28.9652 48.8459 26.6652 48.8459C24.8952 48.8459 23.3752 49.9659 22.7752 51.5359H17.3252V54.4759H22.7752V54.4759Z" fill="url(#paint3_linear)"/>
<path opacity="0.15" d="M61.0149 63.366H42.2649C41.7349 63.366 41.3149 62.936 41.3149 62.416V45.746C41.3149 45.216 41.7349 44.796 42.2649 44.796H61.0249C61.5549 44.796 61.9749 45.216 61.9749 45.746V62.406C61.9649 62.936 61.5349 63.366 61.0149 63.366Z" fill="#1F1D20"/>
<path d="M61.0149 62.186H42.2649C41.7349 62.186 41.3149 61.766 41.3149 61.236V44.566C41.3149 44.036 41.7349 43.616 42.2649 43.616H61.0249C61.5549 43.616 61.9749 44.036 61.9749 44.566V61.226C61.9649 61.756 61.5349 62.186 61.0149 62.186Z" fill="white"/>
<path d="M57.8747 49.096C57.8747 48.706 57.5547 48.376 57.1547 48.376H46.0647C45.6747 48.376 45.3447 48.696 45.3447 49.096C45.3447 49.486 45.6647 49.816 46.0647 49.816H57.1547C57.5547 49.816 57.8747 49.506 57.8747 49.096Z" fill="#50E6FF"/>
<path d="M48.0249 49.096C48.0249 49.886 48.6649 50.516 49.4449 50.516C50.2349 50.516 50.8649 49.876 50.8649 49.096C50.8649 48.306 50.2249 47.676 49.4449 47.676C48.6549 47.676 48.0249 48.316 48.0249 49.096Z" fill="#0D3868"/>
<path d="M57.8747 52.726C57.8747 52.336 57.5547 52.006 57.1547 52.006H46.0647C45.6747 52.006 45.3447 52.326 45.3447 52.726C45.3447 53.116 45.6647 53.446 46.0647 53.446H57.1547C57.5547 53.436 57.8747 53.116 57.8747 52.726Z" fill="#32B0E7"/>
<path d="M52.3149 52.716C52.3149 53.506 52.9549 54.136 53.7349 54.136C54.5149 54.136 55.1549 53.496 55.1549 52.716C55.1549 51.926 54.5149 51.296 53.7349 51.296C52.9549 51.296 52.3149 51.936 52.3149 52.716Z" fill="#0D3868"/>
<path d="M57.8747 56.5459C57.8747 56.1559 57.5547 55.8259 57.1547 55.8259H46.0647C45.6747 55.8259 45.3447 56.1459 45.3447 56.5459C45.3447 56.9359 45.6647 57.2659 46.0647 57.2659H57.1547C57.5547 57.2659 57.8747 56.9559 57.8747 56.5459Z" fill="#185A97"/>
<path d="M48.0747 56.546C48.0747 57.336 48.7147 57.966 49.4947 57.966C50.2847 57.966 50.9147 57.326 50.9147 56.546C50.9147 55.756 50.2747 55.126 49.4947 55.126C48.7047 55.126 48.0747 55.766 48.0747 56.546Z" fill="#0D3868"/>
<path opacity="0.2" d="M88.805 66.3958C89.525 66.3958 90.105 65.8159 90.105 65.0959V41.4958H64.585V65.0959C64.585 65.8159 65.165 66.3958 65.885 66.3958H88.805Z" fill="#1F1D21"/>
<path d="M90.115 41.0859V40.6859C90.115 40.1959 89.715 39.7959 89.225 39.7959H65.475C64.985 39.7959 64.585 40.1959 64.585 40.6859V41.1259V41.5259V64.2559C64.585 64.7459 64.985 65.1459 65.475 65.1459H89.225C89.715 65.1459 90.115 64.7459 90.115 64.2559V41.1359C90.115 41.1159 90.115 41.1059 90.115 41.0859Z" fill="white"/>
<path d="M77.3452 42.9858C71.9252 42.9858 67.5352 47.2258 67.5352 52.6458C67.5352 56.9158 70.2651 60.5458 74.0751 61.8958L75.3152 58.3358C73.0752 57.4958 71.4752 55.3358 71.4752 52.8058C71.4752 49.5458 74.1251 46.8858 77.3951 46.8858C80.6651 46.8858 83.3152 49.5358 83.3152 52.8058C83.3152 55.3458 81.7052 57.5058 79.4552 58.3458L80.7151 61.8658C84.4751 60.4958 87.1652 56.8858 87.1652 52.6458C87.1652 47.2258 82.7652 42.9858 77.3452 42.9858Z" fill="#50E6FF"/>
<path d="M83.2354 58.7758C82.3754 59.6358 81.3754 60.2758 80.2654 60.6858L78.5254 55.7958C79.8554 55.3158 80.8054 54.0458 80.8054 52.5558C80.8054 50.6458 79.2654 49.1058 77.3554 49.1058C75.4454 49.1058 73.9054 50.6458 73.9054 52.5558C73.9054 54.0558 74.8654 55.3358 76.1954 55.8058L74.4854 60.7158C73.3654 60.3058 72.3354 59.6558 71.4654 58.7858C69.8954 57.2158 69.0254 55.1258 69.0254 52.9058C69.0254 50.6858 69.8854 48.5958 71.4654 47.0258C73.0354 45.4558 75.1254 44.5858 77.3454 44.5858C79.5654 44.5858 81.6554 45.4458 83.2254 47.0258C84.7954 48.5958 85.6654 50.6858 85.6654 52.9058C85.6654 55.1158 84.8054 57.2058 83.2354 58.7758Z" fill="#0078D4"/>
<defs>
<linearGradient id="paint0_linear" x1="49.8554" y1="-13.7437" x2="53.8374" y2="132.026" gradientUnits="userSpaceOnUse">
<stop stop-color="#00ABDE"/>
<stop offset="1" stop-color="#007ED8"/>
</linearGradient>
<linearGradient id="paint1_linear" x1="3.05812" y1="-20.5786" x2="98.5857" y2="120.303" gradientUnits="userSpaceOnUse">
<stop stop-color="#007ED8"/>
<stop offset="0.7065" stop-color="#002D4C"/>
</linearGradient>
<linearGradient id="paint2_linear" x1="11.7161" y1="30.1836" x2="62.2105" y2="78.7725" gradientUnits="userSpaceOnUse">
<stop stop-color="#007ED8"/>
<stop offset="0.7065" stop-color="#002D4C"/>
</linearGradient>
<linearGradient id="paint3_linear" x1="16.6313" y1="45.2111" x2="43.5542" y2="72.9969" gradientUnits="userSpaceOnUse">
<stop stop-color="#007ED8"/>
<stop offset="0.7065" stop-color="#002D4C"/>
</linearGradient>
</defs>
</svg>
