<svg width="103" height="103" viewBox="0 0 103 103" fill="none" xmlns="http://www.w3.org/2000/svg">
<path d="M51.2208 98.37C25.3708 98.37 4.41083 77.42 4.41083 51.56C4.41083 25.7 25.3708 4.75 51.2208 4.75C77.0708 4.75 98.0308 25.71 98.0308 51.56C98.0308 77.41 77.0708 98.37 51.2208 98.37Z" fill="url(#paint0_linear_333_27730)"/>
<path fill-rule="evenodd" clip-rule="evenodd" d="M97.1208 51.5599C97.1208 76.9099 76.5708 97.4599 51.2208 97.4599C25.8708 97.4599 5.32081 76.9099 5.32081 51.5599C5.32081 26.2099 25.8708 5.65993 51.2208 5.65993C76.5708 5.65993 97.1208 26.2099 97.1208 51.5599ZM51.2208 1.91992C78.6408 1.91992 100.861 24.1399 100.861 51.5599C100.861 78.9799 78.6308 101.2 51.2208 101.2C23.8008 101.2 1.58081 78.9699 1.58081 51.5599C1.58081 24.1399 23.8008 1.91992 51.2208 1.91992Z" fill="#F2F1F0"/>
<path fill-rule="evenodd" clip-rule="evenodd" d="M94.3108 51.5595C94.3108 75.3595 75.0208 94.6495 51.2208 94.6495C27.4208 94.6495 8.13081 75.3595 8.13081 51.5595C8.13081 27.7595 27.4208 8.4695 51.2208 8.4695C75.0208 8.4695 94.3108 27.7595 94.3108 51.5595ZM51.2208 4.72949C77.0808 4.72949 98.0508 25.6995 98.0508 51.5595C98.0508 77.4195 77.0808 98.3895 51.2208 98.3895C25.3608 98.3895 4.39081 77.4195 4.39081 51.5595C4.39081 25.6995 25.3508 4.72949 51.2208 4.72949Z" fill="url(#paint1_linear_333_27730)"/>
<path opacity="0.4" d="M89.8527 65.5536L69.3082 77.5556L48.7638 65.5536L69.3039 53.6123L89.8527 65.5536Z" fill="#1F1D20"/>
<path d="M89.8527 39.3721V63.1768L69.3558 75.1787V51.3177L89.8527 39.3721Z" fill="#32B0E7"/>
<path d="M89.8527 39.372L69.3559 51.322L48.7638 39.372L69.3039 27.4307L89.8527 39.372Z" fill="#45CAF2"/>
<path d="M69.3559 51.3177V75.1787L48.7638 63.1725V39.3721L69.3559 51.3177Z" fill="#0078D4"/>
<path d="M48.7638 63.1721L69.3559 51.3174V75.1784L48.7638 63.1721Z" fill="#185A97"/>
<path d="M89.8527 63.1764L69.3558 51.3174V75.1784L89.8527 63.1764Z" fill="#156AB3"/>
<path fill-rule="evenodd" clip-rule="evenodd" d="M46.6911 60.0967H57.9752V60.8967H46.6911V60.0967Z" fill="white"/>
<path fill-rule="evenodd" clip-rule="evenodd" d="M46.6911 45.4873H57.9752V46.2873H46.6911V45.4873Z" fill="white"/>
<path fill-rule="evenodd" clip-rule="evenodd" d="M46.2911 31.2652C46.2911 31.0443 46.4702 30.8652 46.6911 30.8652H57.9753V31.6652H47.0911V74.6811H57.9643V75.4811H46.6911C46.4702 75.4811 46.2911 75.302 46.2911 75.0811V31.2652Z" fill="white"/>
<path fill-rule="evenodd" clip-rule="evenodd" d="M38.2445 53.1045H46.724V54.1045H38.2445V53.1045Z" fill="white"/>
<path opacity="0.2" d="M66.6507 25.3252H52.0351C51.1441 25.3252 50.4127 26.0433 50.4127 26.9477V35.8979C50.4127 36.7889 51.1308 37.5204 52.0351 37.5204H66.664C67.5551 37.5337 68.2865 36.8022 68.2865 35.9112V26.961C68.2732 26.0566 67.5551 25.3252 66.6507 25.3252Z" fill="#1F1D21"/>
<path opacity="0.2" d="M66.6507 55.1152H52.0351C51.1441 55.1152 50.4127 55.8334 50.4127 56.7377V65.6879C50.4127 66.579 51.1308 67.3104 52.0351 67.3104H66.664C67.5551 67.3104 68.2865 66.5923 68.2865 65.6879V56.751C68.2732 55.8467 67.5551 55.1152 66.6507 55.1152Z" fill="#1F1D21"/>
<path opacity="0.2" d="M66.6507 40.1934H52.0351C51.1441 40.1934 50.4127 40.9115 50.4127 41.8158V50.7661C50.4127 51.6571 51.1308 52.3885 52.0351 52.3885H66.664C67.5551 52.4018 68.2865 51.6704 68.2865 50.7661V41.8158C68.2732 40.9248 67.5551 40.1934 66.6507 40.1934Z" fill="#1F1D21"/>
<path opacity="0.2" d="M66.6507 69.9834H52.0351C51.1441 69.9834 50.4127 70.7015 50.4127 71.6059V80.5561C50.4127 81.4471 51.1308 82.1786 52.0351 82.1786H66.664C67.5551 82.1786 68.2865 81.4604 68.2865 80.5561V71.6059C68.2732 70.7148 67.5551 69.9834 66.6507 69.9834Z" fill="#1F1D21"/>
<path d="M66.5975 24.168H51.9819C51.0908 24.168 50.3594 24.8861 50.3594 25.7904V34.7407C50.3594 35.6317 51.0775 36.3632 51.9819 36.3632H66.6108C67.5018 36.3764 68.2332 35.645 68.2332 34.754V25.7904C68.2066 24.8861 67.4885 24.168 66.5975 24.168Z" fill="url(#paint2_linear_333_27730)"/>
<path d="M66.5975 53.958H51.9819C51.0908 53.958 50.3594 54.6762 50.3594 55.5805V64.5307C50.3594 65.4217 51.0775 66.1532 51.9819 66.1532H66.6108C67.5018 66.1532 68.2332 65.435 68.2332 64.5307V55.5805C68.2066 54.6762 67.4885 53.958 66.5975 53.958Z" fill="url(#paint3_linear_333_27730)"/>
<path d="M66.5975 39.0361H51.9819C51.0908 39.0361 50.3594 39.7543 50.3594 40.6586V49.6088C50.3594 50.4999 51.0775 51.2313 51.9819 51.2313H66.6108C67.5018 51.2446 68.2332 50.5132 68.2332 49.6088V40.6586C68.2066 39.7543 67.4885 39.0361 66.5975 39.0361Z" fill="url(#paint4_linear_333_27730)"/>
<path d="M66.5975 68.8262H51.9819C51.0908 68.8262 50.3594 69.5443 50.3594 70.4486V79.3989C50.3594 80.2899 51.0775 81.0214 51.9819 81.0214H66.6108C67.5018 81.0214 68.2332 80.3032 68.2332 79.3989V70.4486C68.2066 69.5576 67.4885 68.8262 66.5975 68.8262Z" fill="url(#paint5_linear_333_27730)"/>
<path d="M62.7152 76.0469H61.0928C60.8667 76.0469 60.6938 76.2331 60.6938 76.4458C60.6938 76.6719 60.88 76.8448 61.0928 76.8448H62.7152C62.9413 76.8448 63.1142 76.6719 63.1142 76.4458C63.1142 76.2331 62.9413 76.0469 62.7152 76.0469Z" fill="white"/>
<path d="M62.7152 72.8164H57.4355C57.2094 72.8164 57.0366 73.0026 57.0366 73.2154C57.0366 73.4415 57.2227 73.6143 57.4355 73.6143H62.7152C62.9413 73.6143 63.1142 73.4282 63.1142 73.2154C63.1142 73.0026 62.9413 72.8164 62.7152 72.8164Z" fill="white"/>
<path d="M62.7149 74.4521H58.938C58.7119 74.4521 59.0576 74.6383 59.0576 74.8511C59.0576 75.0772 58.7119 75.2235 58.938 75.2235H62.7149C62.941 75.2235 63.1138 75.0772 63.1138 74.8511C63.1138 74.6383 62.941 74.4521 62.7149 74.4521Z" fill="white"/>
<path d="M62.7155 71.1934H55.8266C55.6006 71.1934 55.4277 71.3795 55.4277 71.5923V71.6056C55.4277 71.8317 55.6139 72.0046 55.8266 72.0046H62.7155C62.9416 72.0046 63.1145 71.8184 63.1145 71.5923C63.1145 71.3662 62.9416 71.1934 62.7155 71.1934Z" fill="white"/>
<path d="M55.8266 71.9913H56.6512C56.8773 71.9913 57.0502 71.8051 57.0502 71.5923C57.0502 71.3795 56.864 71.1934 56.6512 71.1934H55.8266C55.6006 71.1934 55.4277 71.3795 55.4277 71.5923C55.4277 71.8051 55.6006 71.9913 55.8266 71.9913Z" fill="#50E6FF"/>
<path d="M55.8264 73.627H57.4489C57.675 73.627 57.8478 73.4409 57.8478 73.2281C57.8478 73.002 57.6617 72.8291 57.4489 72.8291H55.8264C55.6003 72.8291 55.4274 73.0153 55.4274 73.2281C55.4274 73.4409 55.6003 73.627 55.8264 73.627Z" fill="#45CAF2"/>
<path d="M55.8268 76.8595H61.1198C61.3459 76.8595 61.5188 76.6733 61.5188 76.4605C61.5188 76.2344 61.3326 76.0615 61.1198 76.0615H55.8401C55.614 76.0615 55.4411 76.2477 55.4411 76.4605C55.4278 76.6733 55.6007 76.8595 55.8268 76.8595Z" fill="#0078D1"/>
<path d="M55.8264 75.2227H59.0847C59.3107 75.2227 59.4836 75.0366 59.4836 74.8238C59.4836 74.5977 59.2974 74.4248 59.0847 74.4248H55.8264C55.6003 74.4248 55.4274 74.611 55.4274 74.8238C55.4274 75.0366 55.6003 75.2227 55.8264 75.2227Z" fill="#32B0E7"/>
<path d="M55.8264 78.4945H62.7153C62.9414 78.4945 63.1143 78.3083 63.1143 78.0822V78.0689C63.1143 77.8428 62.9281 77.6699 62.7153 77.6699H55.8264C55.6003 77.6699 55.4274 77.8561 55.4274 78.0689C55.4274 78.3083 55.6003 78.4945 55.8264 78.4945Z" fill="#185A97"/>
<path opacity="0.15" d="M59.2699 60.6338L63.2596 62.9611L59.2566 65.2884L55.2669 62.9611L59.2699 60.6338Z" fill="#1F1D20"/>
<path d="M59.2566 60.1017V64.7431L55.2669 62.4025V57.7744L59.2566 60.1017Z" fill="#ACF3FD"/>
<path d="M59.2703 55.4473L63.26 57.7746L59.257 60.1019L55.2673 57.7746L59.2703 55.4473Z" fill="white"/>
<path d="M63.2596 57.7744V62.4025L59.2566 64.7431V60.1017L63.2596 57.7744Z" fill="#45CAF2"/>
<path d="M59.2566 64.7302V60.0889L63.2596 62.3896L59.2566 64.7302Z" fill="#50E6FF"/>
<path d="M59.2566 64.7302V60.0889L55.2669 62.3896L59.2566 64.7302Z" fill="#84ECFD"/>
<g opacity="0.4">
<path opacity="0.4" d="M63.5393 47.5472C63.3531 47.4408 63.1004 47.4408 62.8743 47.494L59.8422 45.8183C59.8954 45.7119 59.8422 45.579 59.6959 45.4992C59.4698 45.3662 59.0974 45.3662 58.8979 45.4992C58.7118 45.6055 58.6719 45.7784 58.8181 45.9114L55.7328 47.5339C55.5067 47.4275 55.1742 47.4275 54.9747 47.5472C54.7487 47.6802 54.7487 47.8797 54.9747 48.0127C55.121 48.1058 55.3205 48.1191 55.5067 48.1058L58.7783 49.9011C58.6719 50.0341 58.6852 50.1804 58.8713 50.2868C59.0974 50.4198 59.4698 50.4198 59.6693 50.2868C59.8555 50.1804 59.8954 50.0075 59.7491 49.8745L62.8344 48.0526C63.0605 48.1457 63.3531 48.1324 63.5526 48.0127C63.7787 47.8797 63.7787 47.6669 63.5393 47.5472Z" fill="#1F1D21"/>
</g>
<g opacity="0.25">
<path opacity="0.25" d="M55.5728 42.9861L59.2699 40.8184L62.967 42.9462L59.2699 45.1139L55.5728 42.9861Z" fill="#1E9FE0"/>
</g>
<g opacity="0.25">
<path opacity="0.25" d="M55.5338 47.2683L59.2708 45.1006L62.928 47.2284L59.2309 49.3962L55.5338 47.2683Z" fill="#1E9FE0"/>
</g>
<g opacity="0.05">
<path opacity="0.05" d="M59.2698 45.114L59.2299 49.3963L62.927 47.2286L62.9669 42.9463L59.2698 45.114Z" fill="#1E9FE0"/>
</g>
<g opacity="0.05">
<path opacity="0.05" d="M55.5736 42.9861L55.5338 47.2684L59.2708 45.1006V40.8184L55.5736 42.9861Z" fill="#1E9FE0"/>
</g>
<path d="M59.2965 45.1269C59.2965 45.1269 59.2832 45.1269 59.2965 45.1269L55.5861 42.999C55.5728 42.999 55.5728 42.9857 55.5728 42.9857C55.5728 42.9724 55.5728 42.9724 55.5861 42.9724L59.2832 40.8047C59.2965 40.8047 59.2965 40.8047 59.3098 40.8047L63.0069 42.9325C63.0202 42.9325 63.0202 42.9458 63.0202 42.9458C63.0202 42.9591 63.0202 42.9591 63.0069 42.9591L59.2965 45.1269C59.2965 45.1269 59.3098 45.1269 59.2965 45.1269ZM55.6525 42.9857L59.2965 45.087L62.9404 42.9458L59.2965 40.8446L55.6525 42.9857Z" fill="#50E6FF"/>
<path d="M59.2575 49.4091L55.5471 47.2812C55.5338 47.2812 55.5338 47.268 55.5338 47.268C55.5338 47.2547 55.5338 47.2547 55.5471 47.2547L59.2841 45.0869C59.2974 45.0869 59.2974 45.0869 59.3107 45.0869L62.9679 47.2148C62.9812 47.2148 62.9812 47.2281 62.9812 47.2281C62.9812 47.2281 62.9812 47.2414 62.9679 47.2414L59.2575 49.4091C59.2708 49.4091 59.2708 49.4091 59.2575 49.4091ZM55.6135 47.268L59.2575 49.3692L62.9014 47.2281L59.2841 45.1268L55.6135 47.268Z" fill="#50E6FF"/>
<path d="M59.2565 49.4089C59.2565 49.4089 59.2432 49.4089 59.2565 49.4089C59.2432 49.3956 59.2299 49.3956 59.2299 49.3823L59.2698 45.1C59.2698 45.0867 59.2698 45.0867 59.2831 45.0867L62.9802 42.9189C62.9935 42.9189 62.9935 42.9189 63.0068 42.9189C63.0201 42.9189 63.0201 42.9322 63.0201 42.9455L62.9802 47.2278C62.9802 47.2411 62.9802 47.2411 62.9669 47.2411L59.2565 49.4089C59.2565 49.4089 59.2698 49.4089 59.2565 49.4089ZM59.323 45.1266L59.2831 49.3557L62.927 47.2278L62.9669 42.9987L59.323 45.1266Z" fill="white"/>
<path d="M55.5604 47.2946C55.5471 47.2813 55.5338 47.2813 55.5338 47.268L55.5736 42.9857C55.5736 42.9724 55.5736 42.9724 55.5869 42.9724L59.2841 40.8047C59.2974 40.8047 59.2974 40.8047 59.3107 40.8047C59.324 40.8047 59.324 40.818 59.324 40.818V45.1003C59.324 45.1136 59.324 45.1136 59.3107 45.1136L55.5604 47.2946C55.5737 47.2946 55.5737 47.2946 55.5604 47.2946ZM55.6268 42.999L55.5869 47.2281L59.2708 45.087V40.8579L55.6268 42.999Z" fill="white"/>
<path d="M59.2965 45.1269C59.2965 45.1269 59.2832 45.1269 59.2965 45.1269L55.5861 42.999C55.5728 42.999 55.5728 42.9857 55.5728 42.9857C55.5728 42.9724 55.5728 42.9724 55.5861 42.9724L59.2832 40.8047C59.2965 40.8047 59.2965 40.8047 59.3098 40.8047L63.0069 42.9325C63.0202 42.9325 63.0202 42.9458 63.0202 42.9458C63.0202 42.9591 63.0202 42.9591 63.0069 42.9591L59.2965 45.1269C59.2965 45.1269 59.3098 45.1269 59.2965 45.1269ZM55.6525 42.9857L59.2965 45.087L62.9404 42.9458L59.2965 40.8446L55.6525 42.9857Z" fill="white"/>
<path d="M59.2575 49.4091L55.5471 47.2812C55.5338 47.2812 55.5338 47.268 55.5338 47.268C55.5338 47.2547 55.5338 47.2547 55.5471 47.2547L59.2841 45.0869C59.2974 45.0869 59.2974 45.0869 59.3107 45.0869L62.9679 47.2148C62.9812 47.2148 62.9812 47.2281 62.9812 47.2281C62.9812 47.2281 62.9812 47.2414 62.9679 47.2414L59.2575 49.4091C59.2708 49.4091 59.2708 49.4091 59.2575 49.4091ZM55.6135 47.268L59.2575 49.3692L62.9014 47.2281L59.2841 45.1268L55.6135 47.268Z" fill="white"/>
<path d="M62.9277 43.3585C62.7416 43.3585 62.582 43.199 62.582 43.0128C62.582 42.8266 62.7416 42.667 62.9277 42.667C63.1139 42.667 63.2602 42.8266 63.2602 43.0128C63.2602 43.1857 63.1139 43.3585 62.9277 43.3585Z" fill="#50E6FF"/>
<path d="M62.9138 42.8524C62.9936 42.8524 63.06 42.9189 63.06 42.9987C63.06 43.0785 62.9936 43.1583 62.9138 43.1583C62.834 43.1583 62.7675 43.0918 62.7675 43.012C62.7675 42.9189 62.834 42.8524 62.9138 42.8524ZM62.9138 42.6396C62.7276 42.6396 62.5547 42.7992 62.5547 42.9987C62.5547 43.1849 62.7143 43.3578 62.9138 43.3578C63.1132 43.3578 63.2728 43.1982 63.2728 42.9987C63.2728 42.8125 63.1132 42.6396 62.9138 42.6396Z" fill="white"/>
<path d="M59.2965 45.4728C59.1103 45.4728 58.9507 45.3132 58.9507 45.127C58.9507 44.9408 59.1103 44.7812 59.2965 44.7812C59.4827 44.7812 59.629 44.9408 59.629 45.127C59.629 45.2999 59.4827 45.4728 59.2965 45.4728Z" fill="#50E6FF"/>
<path d="M59.2959 44.9671C59.3757 44.9671 59.4422 45.0336 59.4422 45.1134C59.4422 45.1931 59.3757 45.2596 59.2959 45.2596C59.2161 45.2596 59.1496 45.1931 59.1496 45.1134C59.1363 45.0336 59.2028 44.9671 59.2959 44.9671ZM59.2959 44.7676C59.1097 44.7676 58.9368 44.9272 58.9368 45.1267C58.9368 45.3128 59.0964 45.4857 59.2959 45.4857C59.4821 45.4857 59.655 45.3261 59.655 45.1267C59.6417 44.9272 59.4821 44.7676 59.2959 44.7676Z" fill="white"/>
<path d="M59.2965 41.1906C59.1103 41.1906 58.9507 41.031 58.9507 40.8448C58.9507 40.6586 59.1103 40.499 59.2965 40.499C59.4827 40.499 59.629 40.6586 59.629 40.8448C59.629 41.031 59.4827 41.1906 59.2965 41.1906Z" fill="#50E6FF"/>
<path d="M59.2959 40.6985C59.3757 40.6985 59.4422 40.765 59.4422 40.8448C59.4422 40.9246 59.3757 40.9911 59.2959 40.9911C59.2161 40.9911 59.1496 40.9246 59.1496 40.8448C59.1363 40.765 59.2028 40.6985 59.2959 40.6985ZM59.2959 40.499C59.1097 40.499 58.9368 40.6586 58.9368 40.8581C58.9368 41.0576 59.0964 41.2172 59.2959 41.2172C59.4821 41.2172 59.655 41.0576 59.655 40.8581C59.655 40.6586 59.4821 40.499 59.2959 40.499Z" fill="white"/>
<path d="M55.573 43.3585C55.3868 43.3585 55.2272 43.199 55.2272 43.0128C55.2272 42.8266 55.3868 42.667 55.573 42.667C55.7592 42.667 55.9055 42.8266 55.9055 43.0128C55.9055 43.1857 55.7592 43.3585 55.573 43.3585Z" fill="#50E6FF"/>
<path d="M55.5604 42.8524C55.6402 42.8524 55.7067 42.9189 55.7067 42.9987C55.7067 43.0785 55.6402 43.1583 55.5604 43.1583C55.4806 43.1583 55.4141 43.0918 55.4141 43.012C55.4141 42.9189 55.4806 42.8524 55.5604 42.8524ZM55.5604 42.6396C55.3742 42.6396 55.2013 42.7992 55.2013 42.9987C55.2013 43.1849 55.3609 43.3578 55.5604 43.3578C55.7466 43.3578 55.9194 43.1982 55.9194 42.9987C55.9194 42.8125 55.7599 42.6396 55.5604 42.6396Z" fill="white"/>
<path d="M55.573 47.6144C55.3868 47.6144 55.2272 47.4548 55.2272 47.2686C55.2272 47.0824 55.3868 46.9229 55.573 46.9229C55.7592 46.9229 55.9055 47.0824 55.9055 47.2686C55.9055 47.4548 55.7592 47.6144 55.573 47.6144Z" fill="#50E6FF"/>
<path d="M55.5604 47.122C55.6402 47.122 55.7067 47.1885 55.7067 47.2683C55.7067 47.348 55.6402 47.4145 55.5604 47.4145C55.4806 47.4145 55.4141 47.348 55.4141 47.2683C55.4141 47.1885 55.4806 47.122 55.5604 47.122ZM55.5604 46.9092C55.3742 46.9092 55.2013 47.0688 55.2013 47.2683C55.2013 47.4544 55.3609 47.6273 55.5604 47.6273C55.7466 47.6273 55.9194 47.4677 55.9194 47.2683C55.9194 47.0821 55.7599 46.9092 55.5604 46.9092Z" fill="white"/>
<path d="M59.2965 49.7423C59.1103 49.7423 58.9507 49.5827 58.9507 49.3966C58.9507 49.2104 59.1103 49.0508 59.2965 49.0508C59.4827 49.0508 59.629 49.2104 59.629 49.3966C59.629 49.5694 59.4827 49.7423 59.2965 49.7423Z" fill="#50E6FF"/>
<path d="M59.2959 49.2372C59.3757 49.2372 59.4422 49.3037 59.4422 49.3835C59.4422 49.4633 59.3757 49.5298 59.2959 49.5298C59.2161 49.5298 59.1496 49.4633 59.1496 49.3835C59.1363 49.3037 59.2028 49.2372 59.2959 49.2372ZM59.2959 49.0244C59.1097 49.0244 58.9368 49.184 58.9368 49.3835C58.9368 49.5697 59.0964 49.7426 59.2959 49.7426C59.4821 49.7426 59.655 49.583 59.655 49.3835C59.6417 49.1973 59.4821 49.0244 59.2959 49.0244Z" fill="white"/>
<path d="M62.9277 47.6144C62.7416 47.6144 62.582 47.4548 62.582 47.2686C62.582 47.0824 62.7416 46.9229 62.9277 46.9229C63.1139 46.9229 63.2602 47.0824 63.2602 47.2686C63.2602 47.4548 63.1139 47.6144 62.9277 47.6144Z" fill="#50E6FF"/>
<path d="M62.9138 47.122C62.9936 47.122 63.06 47.1885 63.06 47.2683C63.06 47.348 62.9936 47.4145 62.9138 47.4145C62.834 47.4145 62.7675 47.348 62.7675 47.2683C62.7675 47.1885 62.834 47.122 62.9138 47.122ZM62.9138 46.9092C62.7276 46.9092 62.5547 47.0688 62.5547 47.2683C62.5547 47.4544 62.7143 47.6273 62.9138 47.6273C63.1132 47.6273 63.2728 47.4677 63.2728 47.2683C63.2728 47.0821 63.1132 46.9092 62.9138 46.9092Z" fill="white"/>
<path opacity="0.2" d="M59.2709 26.5352C56.8238 26.5352 54.8556 28.5167 54.8556 30.9504C54.8556 33.3974 56.8371 35.3657 59.2709 35.3657C61.7179 35.3657 63.6861 33.3841 63.6861 30.9504C63.6861 28.5167 61.7046 26.5352 59.2709 26.5352ZM59.2709 33.0251C58.1404 33.0251 57.2095 32.0941 57.2095 30.9637C57.2095 29.8333 58.1404 28.9024 59.2709 28.9024C60.4013 28.9024 61.3322 29.8333 61.3322 30.9637C61.3322 32.0941 60.4013 33.0251 59.2709 33.0251Z" fill="#1F1D21"/>
<path d="M59.2709 25.9629C56.8238 25.9629 54.8556 27.9444 54.8556 30.3782C54.8556 32.8252 56.8371 34.7934 59.2709 34.7934C61.7179 34.7934 63.6861 32.8119 63.6861 30.3782C63.6861 27.9311 61.7046 25.9629 59.2709 25.9629ZM59.2709 32.4395C58.1404 32.4395 57.2095 31.5086 57.2095 30.3782C57.2095 29.2477 58.1404 28.3168 59.2709 28.3168C60.4013 28.3168 61.3322 29.2477 61.3322 30.3782C61.3322 31.5086 60.4013 32.4395 59.2709 32.4395Z" fill="white"/>
<path d="M59.2705 28.3168L59.2572 25.9629C57.7012 25.9629 56.3447 26.7741 55.5468 27.9976L57.4884 29.3541C57.8342 28.7291 58.4991 28.3168 59.2705 28.3168Z" fill="#3BCAF4"/>
<path d="M57.2098 30.3776C57.2098 30.0052 57.3162 29.6461 57.489 29.3536L55.5607 27.9971L55.5474 28.0104C55.1085 28.6886 54.8558 29.4999 54.8558 30.3776C54.8558 31.0292 55.0021 31.641 55.2548 32.1996L57.4092 31.242C57.2763 30.9893 57.2098 30.6835 57.2098 30.3776Z" fill="#50E6FF"/>
<path opacity="0.15" d="M42.2109 64.7657H14.2167C13.4322 64.7657 12.8025 64.1257 12.8025 63.3516V37.4425C12.8025 36.658 13.4322 36.0283 14.2167 36.0283H42.2109C42.9954 36.0283 43.625 36.658 43.625 37.4425V63.3412C43.625 64.1257 42.985 64.7657 42.2109 64.7657Z" fill="#1F1D20"/>
<path d="M42.2109 64.7549H14.2167C13.4322 64.7549 12.8025 64.1252 12.8025 63.3407V37.4522C12.8025 36.6677 13.4322 36.0381 14.2167 36.0381H42.2109C42.9954 36.0381 43.625 36.6677 43.625 37.4522V63.351C43.625 64.1252 42.985 64.7549 42.2109 64.7549Z" fill="white"/>
<path d="M34.3441 44.41C34.3441 43.77 33.828 43.2539 33.188 43.2539H19.3045C18.6645 43.2539 18.1484 43.77 18.1484 44.41C18.1484 45.05 18.6645 45.5661 19.3045 45.5661H33.1984C33.8383 45.5558 34.3441 45.05 34.3441 44.41Z" fill="url(#paint6_linear_333_27730)"/>
<path d="M38.2767 44.41C38.2767 43.77 37.7606 43.2539 37.1206 43.2539H33.3426C32.7027 43.2539 33.1155 43.77 33.1155 44.41C33.1155 45.05 32.713 45.5661 33.3426 45.5661H37.1309C37.7503 45.5558 38.2767 45.05 38.2767 44.41Z" fill="#9B9BA0"/>
<path d="M31.4744 44.4103C31.4744 45.6799 32.4963 46.7122 33.7763 46.7122C35.0563 46.7122 36.0782 45.6903 36.0782 44.4103C36.0782 43.1406 35.0356 42.1084 33.766 42.1084C32.5067 42.129 31.4744 43.1406 31.4744 44.4103Z" fill="#50E6FF"/>
<path d="M30.081 50.2225C30.081 49.5825 29.5649 49.0664 28.9249 49.0664H19.3045C18.6645 49.0664 18.1484 49.5825 18.1484 50.2225C18.1484 50.8625 18.6645 51.3786 19.3045 51.3786H28.9456C29.5752 51.3683 30.081 50.8625 30.081 50.2225Z" fill="url(#paint7_linear_333_27730)"/>
<path d="M38.2766 50.2225C38.2766 49.5825 37.7605 49.0664 37.1205 49.0664H29.6265C28.9865 49.0664 28.4704 49.5825 28.4704 50.2225C28.4704 50.8625 28.9865 51.3786 29.6265 51.3786H37.1308C37.7502 51.3683 38.2766 50.8625 38.2766 50.2225Z" fill="#9B9BA0"/>
<path d="M26.4477 50.2218C26.4477 51.4915 27.4696 52.5237 28.7496 52.5237C30.0295 52.5237 31.0515 51.5018 31.0515 50.2218C31.0515 48.9522 30.0295 47.9199 28.7496 47.9199C27.4696 47.9199 26.4477 48.9522 26.4477 50.2218Z" fill="#35AFE4"/>
<path d="M24.7237 56.3846C24.7237 55.7446 24.2076 55.2285 23.5676 55.2285H19.3045C18.6645 55.2388 18.1484 55.7446 18.1484 56.3846C18.1484 57.0246 18.6645 57.5407 19.3045 57.5407H23.5676C24.2076 57.5201 24.7237 57.0143 24.7237 56.3846Z" fill="url(#paint8_linear_333_27730)"/>
<path d="M38.2771 56.3846C38.2771 55.7446 37.761 55.2285 37.121 55.2285H24.7032C24.0632 55.2285 23.5471 55.7446 23.5471 56.3846C23.5471 57.0246 24.0632 57.5407 24.7032 57.5407H37.121C37.7507 57.5201 38.2771 57.0143 38.2771 56.3846Z" fill="#9B9BA0"/>
<path d="M21.71 56.3839C21.71 57.6536 22.7319 58.6858 24.0118 58.6858C25.2815 58.6858 26.3137 57.6639 26.3137 56.3839C26.3137 55.1143 25.2918 54.082 24.0118 54.082C22.7319 54.082 21.71 55.1143 21.71 56.3839Z" fill="#2E76BC"/>
<defs>
<linearGradient id="paint0_linear_333_27730" x1="49.4469" y1="-13.2295" x2="53.4289" y2="132.541" gradientUnits="userSpaceOnUse">
<stop stop-color="#00ABDE"/>
<stop offset="1" stop-color="#007ED8"/>
</linearGradient>
<linearGradient id="paint1_linear_333_27730" x1="2.65121" y1="-20.0631" x2="98.1787" y2="120.818" gradientUnits="userSpaceOnUse">
<stop stop-color="#007ED8"/>
<stop offset="0.7065" stop-color="#002D4C"/>
</linearGradient>
<linearGradient id="paint2_linear_333_27730" x1="41.3832" y1="2.81084" x2="90.5374" y2="78.1627" gradientUnits="userSpaceOnUse">
<stop stop-color="#007ED8"/>
<stop offset="0.7065" stop-color="#002D4C"/>
</linearGradient>
<linearGradient id="paint3_linear_333_27730" x1="27.7499" y1="11.7046" x2="76.9041" y2="87.0564" gradientUnits="userSpaceOnUse">
<stop stop-color="#007ED8"/>
<stop offset="0.7065" stop-color="#002D4C"/>
</linearGradient>
<linearGradient id="paint4_linear_333_27730" x1="34.5798" y1="7.24873" x2="83.7342" y2="82.6006" gradientUnits="userSpaceOnUse">
<stop stop-color="#007ED8"/>
<stop offset="0.7065" stop-color="#002D4C"/>
</linearGradient>
<linearGradient id="paint5_linear_333_27730" x1="20.945" y1="16.1434" x2="70.0993" y2="91.4953" gradientUnits="userSpaceOnUse">
<stop stop-color="#007ED8"/>
<stop offset="0.7065" stop-color="#002D4C"/>
</linearGradient>
<linearGradient id="paint6_linear_333_27730" x1="25.7825" y1="43.105" x2="35.2788" y2="69.8808" gradientUnits="userSpaceOnUse">
<stop stop-color="#15548F"/>
<stop offset="0.4179" stop-color="#243A5E"/>
<stop offset="0.9677" stop-color="#1A2C45"/>
</linearGradient>
<linearGradient id="paint7_linear_333_27730" x1="22.5209" y1="45.7345" x2="30.0675" y2="67.0124" gradientUnits="userSpaceOnUse">
<stop stop-color="#15548F"/>
<stop offset="0.4179" stop-color="#243A5E"/>
<stop offset="0.9677" stop-color="#1A2C45"/>
</linearGradient>
<linearGradient id="paint8_linear_333_27730" x1="19.486" y1="50.8769" x2="24.5836" y2="65.2496" gradientUnits="userSpaceOnUse">
<stop stop-color="#15548F"/>
<stop offset="0.4179" stop-color="#243A5E"/>
<stop offset="0.9677" stop-color="#1A2C45"/>
</linearGradient>
</defs>
</svg>
