<?xml version="1.0" encoding="UTF-8"?>
<svg width="100px" height="100px" viewBox="0 0 100 100" version="1.1" xmlns="http://www.w3.org/2000/svg" xmlns:xlink="http://www.w3.org/1999/xlink">
    <!-- Generator: Sketch 53.2 (72643) - https://sketchapp.com -->
    <title>Use advanced data options and connectors in PowerApps/use-custom-connectors-in-a-canvas-app-in-powerapps</title>
    <desc>Created with Sketch.</desc>
    <defs>
        <rect id="path-1" x="0" y="0" width="96" height="96" rx="48"></rect>
        <filter x="-13.8%" y="-13.8%" width="127.6%" height="127.6%" filterUnits="objectBoundingBox" id="filter-3">
            <feOffset dx="0" dy="2" in="SourceAlpha" result="shadowOffsetOuter1"></feOffset>
            <feColorMatrix values="0 0 0 0 0   0 0 0 0 0   0 0 0 0 0  0 0 0 0.0964956975 0" type="matrix" in="shadowOffsetOuter1" result="shadowMatrixOuter1"></feColorMatrix>
            <feMerge>
                <feMergeNode in="shadowMatrixOuter1"></feMergeNode>
                <feMergeNode in="SourceGraphic"></feMergeNode>
            </feMerge>
        </filter>
        <filter x="-6.8%" y="-6.5%" width="113.7%" height="113.0%" filterUnits="objectBoundingBox" id="filter-4">
            <feOffset dx="0" dy="2" in="SourceAlpha" result="shadowOffsetOuter1"></feOffset>
            <feColorMatrix values="0 0 0 0 0   0 0 0 0 0   0 0 0 0 0  0 0 0 0.1 0" type="matrix" in="shadowOffsetOuter1" result="shadowMatrixOuter1"></feColorMatrix>
            <feMerge>
                <feMergeNode in="shadowMatrixOuter1"></feMergeNode>
                <feMergeNode in="SourceGraphic"></feMergeNode>
            </feMerge>
        </filter>
    </defs>
    <g id="Badges" stroke="none" stroke-width="1" fill="none" fill-rule="evenodd">
        <g id="Use-advanced-data-options-and-connectors-in-PowerApps" transform="translate(-50.000000, -860.000000)">
            <g id="Use-advanced-data-options-and-connectors-in-PowerApps/use-custom-connectors-in-a-canvas-app-in-powerapps" transform="translate(50.000000, 860.000000)">
                <g id="Mask" transform="translate(2.000000, 2.000000)">
                    <mask id="mask-2" fill="white">
                        <use xlink:href="#path-1"></use>
                    </mask>
                    <use id="BG" fill="#965596" xlink:href="#path-1"></use>
                    <g id="Gear" filter="url(#filter-3)" mask="url(#mask-2)">
                        <g transform="translate(47.500000, 47.500000) rotate(-45.000000) translate(-47.500000, -47.500000) translate(33.000000, 33.000000)">
                            <path d="M19.03125,14.5 C19.03125,16.9985312 16.9980781,19.03125 14.5,19.03125 C12.0014687,19.03125 9.96875,16.9985312 9.96875,14.5 C9.96875,12.0014687 12.0014687,9.96875 14.5,9.96875 C16.9980781,9.96875 19.03125,12.0014687 19.03125,14.5 Z M27.4054531,12.0594687 L25.2984219,11.5909375 C25.1257813,11.552875 24.8570781,11.3081875 24.8031563,11.139625 C24.7963594,11.1165156 24.78775,11.0938594 24.7782344,11.0716562 L24.196875,9.6588125 C24.1869063,9.63434375 24.1755781,9.609875 24.1633438,9.5863125 C24.0817813,9.42998437 24.0976406,9.06975 24.1923438,8.92157812 L25.3514375,7.10001562 C25.8430781,6.3274375 25.7207344,5.21501562 25.0736719,4.5675 L24.4325,3.92632812 C23.8003906,3.29376562 22.65625,3.16734375 21.8999844,3.6485625 L20.0779688,4.80720312 C20.01725,4.846625 19.8736094,4.88876562 19.7032344,4.88876562 C19.5636719,4.88876562 19.4599063,4.86067187 19.4136875,4.83665625 C19.3905781,4.82396875 19.3656563,4.81309375 19.3407344,4.803125 L17.9283438,4.2213125 C17.9061406,4.21225 17.8834844,4.20364062 17.860375,4.19684375 C17.6922656,4.14292187 17.447125,3.87421875 17.4090625,3.701125 L16.9409844,1.59454688 C16.7420625,0.70053125 15.8688906,0 14.953125,0 L14.046875,0 C13.1306563,0 12.2579375,0.70053125 12.0594688,1.59409375 L11.5909375,3.70203125 C11.5524219,3.87421875 11.3077344,4.14292187 11.139625,4.19684375 C11.1165156,4.20364062 11.0938594,4.21225 11.0712031,4.2213125 L9.6588125,4.803125 C9.63389063,4.81309375 9.60942188,4.82396875 9.58585938,4.83665625 C9.54009375,4.86067187 9.43632813,4.88876562 9.2963125,4.88876562 C9.1259375,4.88876562 8.98229688,4.84617187 8.921125,4.80720312 L7.10001563,3.64901562 C6.34375,3.16779687 5.19915625,3.29467188 4.5675,3.92678125 L3.92632813,4.5675 C3.2788125,5.21546875 3.15692188,6.32789062 3.6485625,7.10046875 L4.80765625,8.92157812 C4.90190625,9.07020312 4.91776563,9.42953125 4.83665625,9.58585937 C4.82442188,9.609875 4.81264063,9.63434375 4.80267188,9.6588125 L4.2213125,11.0716562 C4.21225,11.0938594 4.20364063,11.1165156 4.19639063,11.139625 C4.14246875,11.3081875 3.87421875,11.552875 3.701125,11.5913906 L1.59454688,12.0590156 C0.70053125,12.2579375 0,13.1306562 0,14.046875 L0,14.953125 C0,15.8688906 0.70053125,16.7420625 1.59409375,16.9405312 L3.70157813,17.4086094 C3.87421875,17.447125 4.14246875,17.6918125 4.19639063,17.860375 C4.20364063,17.8834844 4.21225,17.9061406 4.2213125,17.9283437 L4.80267188,19.3411875 C4.81264063,19.3656562 4.82396875,19.3896719 4.83665625,19.4136875 C4.91776563,19.5695625 4.90190625,19.9297969 4.80720313,20.0784219 L3.6485625,21.8995312 C3.15646875,22.6721094 3.2788125,23.7849844 3.92632813,24.4325 L4.5675,25.0736719 C5.19870313,25.7044219 6.3419375,25.8331094 7.10046875,25.3514375 L8.92067188,24.1927969 C8.98229688,24.153375 9.1259375,24.1112344 9.2963125,24.1112344 C9.43632813,24.1112344 9.54009375,24.138875 9.58585938,24.1633437 C9.609875,24.175125 9.63389063,24.1869062 9.6588125,24.196875 L11.0712031,24.7786875 C11.0938594,24.78775 11.1165156,24.7959062 11.139625,24.8031562 C11.3077344,24.8570781 11.5524219,25.1257812 11.5909375,25.2984219 L12.0594688,27.4054531 C12.2579375,28.2994687 13.1306563,29 14.046875,29 L14.953125,29 C15.8688906,29 16.7416094,28.2994687 16.9405313,27.4054531 L17.4090625,25.2984219 C17.447125,25.1257812 17.6922656,24.8570781 17.860375,24.8031562 C17.8834844,24.7959062 17.9061406,24.78775 17.9283438,24.7786875 L19.3407344,24.196875 C19.3656563,24.1869062 19.390125,24.175125 19.4136875,24.1633437 C19.4599063,24.138875 19.5636719,24.1112344 19.7027813,24.1112344 C19.8731563,24.1112344 20.01725,24.153375 20.0779688,24.1927969 L21.8995313,25.3509844 C22.6553438,25.8331094 23.8003906,25.7053281 24.4325,25.0736719 L25.0732188,24.4329531 C25.7207344,23.7854375 25.8430781,22.6725625 25.3514375,21.8995312 L24.1923438,20.0784219 C24.0976406,19.9297969 24.0817813,19.5700156 24.1633438,19.4141406 C24.1755781,19.390125 24.1869063,19.3661094 24.196875,19.3416406 L24.7782344,17.9283437 C24.78775,17.9061406 24.7963594,17.8834844 24.8031563,17.860375 C24.8570781,17.6918125 25.1257813,17.447125 25.298875,17.4086094 L27.405,16.9405312 C28.2994688,16.7420625 29,15.8688906 29,14.953125 L29,14.046875 C29,13.1306562 28.2994688,12.2579375 27.4054531,12.0594687 L27.4054531,12.0594687 Z" id="Fill-376" fill="#ADBDC4"></path>
                            <path d="M6.88181668,25.3150765 L8.72019331,24.1448891 C8.7824336,24.1050743 8.92750837,24.0625137 9.09958445,24.0625137 C9.24099804,24.0625137 9.3457997,24.0904298 9.39202226,24.1151424 C9.41627766,24.1270411 9.44053307,24.1389397 9.46570377,24.1490078 L10.8921962,24.7366186 C10.9150786,24.7457714 10.9379611,24.7540089 10.9613012,24.7613312 C11.131089,24.8157904 11.3782196,25.0871714 11.4171197,25.2615325 L11.890329,27.3895621 C12.0907793,28.2924874 12.9722115,29 13.8975781,29 L14.8128764,29 C15.7377853,29 16.6192176,28.2924874 16.8201256,27.3895621 L17.2933348,25.2615325 C17.3317773,25.0871714 17.5793655,24.8157904 17.7491533,24.7613312 C17.7724935,24.7540089 17.7953759,24.7457714 17.8178007,24.7366186 L19.2442931,24.1490078 C19.2694638,24.1389397 19.2941769,24.1270411 19.3179746,24.1151424 C19.3646548,24.0904298 19.4694565,24.0625137 19.6099548,24.0625137 C19.7820309,24.0625137 19.9275633,24.1050743 19.9888883,24.1448891 L21.8286379,25.3146189 C22.5919966,25.8015487 23.748476,25.672494 24.3868966,25.0345427 L25.0340125,24.3874387 C25.6879931,23.73347 25.8115584,22.6095043 25.3150091,21.8287691 L24.1443425,19.9895109 C24.0486939,19.8394047 24.0326761,19.4760379 24.115053,19.3186095 C24.1274095,19.2943545 24.1388508,19.2700996 24.148919,19.245387 L24.7360829,17.8180054 C24.7456935,17.795581 24.7543889,17.772699 24.7612536,17.7493593 C24.8157138,17.5791169 25.0870998,17.3319909 25.2619218,17.2930915 L27.389075,16.8203485 C28.2924744,16.6199019 29,15.7380281 29,14.8131361 L29,13.8978546 C29,12.9725049 28.2924744,12.0910888 27.3895326,11.8906422 L25.2614641,11.4174416 C25.0870998,11.3789998 24.8157138,11.1318738 24.7612536,10.9616314 C24.7543889,10.9382917 24.7456935,10.9154097 24.7360829,10.8929853 L24.148919,9.46606136 C24.1388508,9.44134876 24.1274095,9.41663616 24.115053,9.39283884 C24.0326761,9.23495277 24.0486939,8.87112836 24.1443425,8.72147983 L25.3150091,6.88176393 C25.8115584,6.10148642 25.6879931,4.97797833 25.0344701,4.32400967 L24.7104545,4 L17.5894338,11.1208904 C18.4182364,11.9496778 18.9317187,13.0937797 18.9317187,14.3554954 C18.9317187,16.8789266 16.878247,18.9319031 14.3552273,18.9319031 C13.0934886,18.9319031 11.9493657,18.4184301 11.1205631,17.5901003 L4,24.7105331 L4.32355795,25.0345427 C4.96106321,25.6715787 6.11571201,25.8015487 6.88181668,25.3150765" id="Fill-377" fill="#8BA6B1"></path>
                            <path d="M14.5,19.1428571 C11.93575,19.1428571 9.85714286,17.06425 9.85714286,14.5 C9.85714286,11.93575 11.93575,9.85714286 14.5,9.85714286 C17.06425,9.85714286 19.1428571,11.93575 19.1428571,14.5 C19.1428571,17.06425 17.06425,19.1428571 14.5,19.1428571 Z M14.5,8 C10.9101429,8 8,10.9101429 8,14.5 C8,18.0898571 10.9101429,21 14.5,21 C18.0898571,21 21,18.0898571 21,14.5 C21,10.9101429 18.0898571,8 14.5,8 L14.5,8 Z" id="Fill-378" fill="#8BA6B1"></path>
                            <path d="M19.1589958,14.5564854 C19.1589958,17.0984519 17.0984519,19.1589958 14.5564854,19.1589958 C13.285272,19.1589958 12.1346444,18.6439749 11.3020502,17.8109205 L10,19.1125105 C11.1662762,20.2787866 12.7771548,21 14.5564854,21 C18.1151464,21 21,18.1151464 21,14.5564854 C21,12.7771548 20.2787866,11.1662762 19.1129707,10 L17.8109205,11.3020502 C18.6439749,12.1346444 19.1589958,13.285272 19.1589958,14.5564854" id="Fill-379" fill="#ADBDC4"></path>
                        </g>
                    </g>
                    <g id="Connectors" filter="url(#filter-4)" mask="url(#mask-2)" fill-rule="nonzero" stroke="#FFFFFF" stroke-width="2">
                        <g transform="translate(11.000000, 10.000000)">
                            <path d="M36.5,20 L36.5,6" id="Path-120" fill="none"></path>
                            <path d="M36.5,70 L36.5456127,55" id="Path-120" fill="none"></path>
                            <path d="M11.4543873,45.4771936 L11.5,31" id="Path-120" fill="none" transform="translate(11.000000, 38.000000) rotate(-90.000000) translate(-11.000000, -38.000000) "></path>
                            <path d="M60.5228064,44.9771936 L60.5228064,29.3543033" id="Path-120" fill="none" transform="translate(60.500000, 37.000000) rotate(-90.000000) translate(-60.500000, -37.000000) "></path>
                            <path d="M49,60.9769968 L53.31968,60.9769968 C55.528819,60.9769968 57.31968,59.1861358 57.31968,56.9769968 L57.31968,51" id="Path-121" fill="none" transform="translate(53.159840, 55.988498) scale(-1, 1) rotate(-180.000000) translate(-53.159840, -55.988498) "></path>
                            <path d="M15,60.9769968 L19.31968,60.9769968 C21.528819,60.9769968 23.31968,59.1861358 23.31968,56.9769968 L23.31968,51" id="Path-121" fill="none" transform="translate(19.159840, 55.988498) rotate(-180.000000) translate(-19.159840, -55.988498) "></path>
                            <path d="M15,24.9769968 L19.31968,24.9769968 C21.528819,24.9769968 23.31968,23.1861358 23.31968,20.9769968 L23.31968,15" id="Path-121" fill="none" transform="translate(19.159840, 19.988498) scale(-1, 1) translate(-19.159840, -19.988498) "></path>
                            <path d="M50,24.9769968 L54.31968,24.9769968 C56.528819,24.9769968 58.31968,23.1861358 58.31968,20.9769968 L58.31968,15" id="Path-121" fill="none" transform="translate(54.159840, 19.988498) rotate(-360.000000) translate(-54.159840, -19.988498) "></path>
                            <circle id="Oval" fill="#965596" cx="36.5" cy="4.5" r="4.5"></circle>
                            <circle id="Oval" fill="#965596" cx="36.5" cy="72.5" r="4.5"></circle>
                            <circle id="Oval" fill="#965596" cx="57.5" cy="64.5" r="4.5"></circle>
                            <circle id="Oval" fill="#965596" cx="15.5" cy="64.5" r="4.5"></circle>
                            <circle id="Oval" fill="#965596" cx="57.5" cy="11.5" r="4.5"></circle>
                            <circle id="Oval" fill="#965596" cx="15.5" cy="11.5" r="4.5"></circle>
                            <circle id="Oval" fill="#965596" cx="68.5" cy="37.5" r="4.5"></circle>
                            <circle id="Oval" fill="#965596" cx="4.5" cy="37.5" r="4.5"></circle>
                        </g>
                    </g>
                </g>
                <g id="PowerApps-Border" stroke="#742774" stroke-width="4">
                    <rect id="Azure-Border" x="2" y="2" width="96" height="96" rx="48"></rect>
                </g>
            </g>
        </g>
    </g>
</svg>