<svg width="100" height="100" viewBox="0 0 100 100" fill="none" xmlns="http://www.w3.org/2000/svg">
<g clip-path="url(#clip0)">
<path d="M49.6401 96.4501C40.382 96.4501 31.3317 93.7047 23.6339 88.5612C15.936 83.4176 9.93624 76.1069 6.3933 67.5535C2.85036 59.0001 1.92337 49.5882 3.72954 40.5079C5.53571 31.4277 9.99394 23.0869 16.5404 16.5404C23.0869 9.99393 31.4277 5.53571 40.5079 3.72954C49.5882 1.92337 59.0001 2.85036 67.5535 6.3933C76.1069 9.93624 83.4176 15.936 88.5612 23.6339C93.7047 31.3317 96.4501 40.382 96.4501 49.6401C96.4505 55.7874 95.24 61.8746 92.8878 67.554C90.5355 73.2335 87.0875 78.3939 82.7407 82.7407C78.3939 87.0875 73.2335 90.5355 67.554 92.8878C61.8746 95.24 55.7874 96.4505 49.6401 96.4501V96.4501Z" fill="url(#paint0_linear)"/>
<path fill-rule="evenodd" clip-rule="evenodd" d="M95.54 49.64C95.54 58.7182 92.848 67.5925 87.8045 75.1407C82.7609 82.6889 75.5923 88.572 67.2052 92.0461C58.818 95.5201 49.5891 96.4291 40.6854 94.658C31.7816 92.887 23.603 88.5154 17.1838 82.0962C10.7646 75.677 6.39302 67.4984 4.62196 58.5946C2.85089 49.6909 3.75987 40.462 7.23393 32.0748C10.708 23.6877 16.5911 16.5191 24.1393 11.4755C31.6875 6.43199 40.5618 3.74 49.64 3.74C55.6677 3.73998 61.6363 4.9272 67.2052 7.23388C72.774 9.54057 77.834 12.9215 82.0963 17.1837C86.3585 21.446 89.7394 26.5059 92.0461 32.0748C94.3528 37.6437 95.54 43.6123 95.54 49.64V49.64ZM49.64 3.62732e-07C59.4579 3.62732e-07 69.0553 2.91134 77.2185 8.36585C85.3818 13.8204 91.7442 21.5731 95.5014 30.6436C99.2585 39.7141 100.242 49.6951 98.3262 59.3243C96.4108 68.9535 91.6831 77.7985 84.7408 84.7408C77.7985 91.6831 68.9535 96.4108 59.3243 98.3262C49.6951 100.242 39.7141 99.2585 30.6436 95.5014C21.5731 91.7442 13.8204 85.3818 8.36585 77.2185C2.91134 69.0553 3.62732e-07 59.4579 3.62732e-07 49.64C-0.000787738 43.121 1.28265 36.6656 3.77702 30.6427C6.27138 24.6197 9.9278 19.1471 14.5375 14.5375C19.1471 9.9278 24.6197 6.27138 30.6427 3.77702C36.6656 1.28265 43.121 -0.000787738 49.64 3.62732e-07V3.62732e-07Z" fill="#F2F1F0"/>
<path fill-rule="evenodd" clip-rule="evenodd" d="M92.7296 49.6406C92.7296 58.163 90.2024 66.494 85.4676 73.5801C80.7328 80.6662 74.0031 86.1892 66.1294 89.4505C58.2557 92.7119 49.5918 93.5653 41.2331 91.9026C32.8745 90.24 25.1966 86.1361 19.1703 80.1098C13.1441 74.0836 9.04017 66.4057 7.37753 58.047C5.7149 49.6884 6.56822 41.0244 9.8296 33.1507C13.091 25.2771 18.6139 18.5473 25.7 13.8126C32.7862 9.07776 41.1172 6.55058 49.6396 6.55058C55.2983 6.55023 60.9017 7.66455 66.1298 9.82991C71.3579 11.9953 76.1082 15.1692 80.1096 19.1706C84.1109 23.1719 87.2849 27.9223 89.4502 33.1503C91.6156 38.3784 92.7299 43.9818 92.7296 49.6406V49.6406ZM49.6396 2.81058C58.9017 2.81058 67.9558 5.55711 75.6569 10.7029C83.3581 15.8486 89.3604 23.1624 92.9049 31.7195C96.4493 40.2766 97.3767 49.6925 95.5697 58.7767C93.7628 67.8608 89.3027 76.2051 82.7534 82.7544C76.2041 89.3037 67.8598 93.7638 58.7757 95.5708C49.6915 97.3777 40.2756 96.4503 31.7185 92.9059C23.1614 89.3614 15.8476 83.3591 10.7018 75.6579C5.5561 67.9568 2.80957 58.9027 2.80957 49.6406C2.81076 37.2209 7.745 25.3101 16.5271 16.5281C25.3091 7.74599 37.2198 2.81174 49.6396 2.81055V2.81058Z" fill="#0078D4"/>
<path fill-rule="evenodd" clip-rule="evenodd" d="M92.7296 49.6405C92.7296 58.1629 90.2024 66.494 85.4676 73.5801C80.7328 80.6662 74.0031 86.1891 66.1294 89.4505C58.2557 92.7119 49.5918 93.5652 41.2331 91.9026C32.8745 90.24 25.1966 86.136 19.1703 80.1098C13.1441 74.0835 9.04017 66.4056 7.37753 58.047C5.7149 49.6883 6.56822 41.0244 9.8296 33.1507C13.091 25.277 18.6139 18.5473 25.7001 13.8125C32.7862 9.07773 41.1172 6.55055 49.6396 6.55055C55.2983 6.5502 60.9017 7.66452 66.1298 9.82988C71.3579 11.9952 76.1082 15.1692 80.1096 19.1705C84.1109 23.1719 87.2849 27.9222 89.4502 33.1503C91.6156 38.3784 92.7299 43.9818 92.7296 49.6405V49.6405ZM49.6396 2.81055C58.9017 2.81055 67.9558 5.55708 75.6569 10.7028C83.3581 15.8486 89.3604 23.1624 92.9048 31.7195C96.4493 40.2765 97.3767 49.6925 95.5697 58.7766C93.7628 67.8608 89.3027 76.2051 82.7534 82.7544C76.2041 89.3036 67.8598 93.7638 58.7757 95.5707C49.6915 97.3777 40.2756 96.4503 31.7185 92.9058C23.1614 89.3614 15.8476 83.3591 10.7018 75.6579C5.5561 67.9568 2.80957 58.9026 2.80957 49.6405C2.81076 37.2208 7.74501 25.3101 16.5271 16.5281C25.3091 7.74599 37.2198 2.81174 49.6396 2.81055V2.81055Z" fill="#0078D4"/>
<path d="M49.64 49.6406V50.6833C49.64 51.4064 49.3527 52.1 48.8414 52.6113C48.33 53.1226 47.6365 53.4099 46.9134 53.4099H30.8118C30.0887 53.4099 29.3952 53.6972 28.8838 54.2085C28.3725 54.7199 28.0852 55.4134 28.0852 56.1365V59.8418" stroke="white" stroke-linecap="round" stroke-linejoin="round"/>
<path d="M49.6401 49.6406V50.6833C49.6401 51.0414 49.7107 51.3959 49.8477 51.7267C49.9847 52.0575 50.1856 52.3581 50.4388 52.6113C50.6919 52.8645 50.9925 53.0653 51.3233 53.2024C51.6541 53.3394 52.0087 53.4099 52.3668 53.4099H68.4683C69.1914 53.4099 69.885 53.6972 70.3963 54.2085C70.9077 54.7199 71.1949 55.4134 71.1949 56.1365V59.8418" stroke="white" stroke-linecap="round" stroke-linejoin="round"/>
<path d="M49.6771 67.4621L49.6531 75.9331L42.2781 71.6751L42.3021 63.2031L49.6771 67.4621Z" fill="url(#paint1_linear)"/>
<path d="M49.6771 67.4621L57.0021 63.2051L56.9781 71.6761L49.6531 75.9331L49.6771 67.4621Z" fill="url(#paint2_linear)"/>
<path d="M42.302 63.2043L49.627 58.9473L57.002 63.2063L49.677 67.4633L42.302 63.2043Z" fill="url(#paint3_linear)"/>
<path d="M23.9739 62.9922H31.9973" stroke="#C3F1FF" stroke-width="1.66324" stroke-miterlimit="10" stroke-linecap="round"/>
<path d="M23.9739 65.9883H34.2244" stroke="#9CEBFF" stroke-width="1.66324" stroke-miterlimit="10" stroke-linecap="round"/>
<path d="M23.9739 68.9863H36.5233" stroke="#50E6FF" stroke-width="1.66324" stroke-miterlimit="10" stroke-linecap="round"/>
<path d="M23.9739 71.9824H33.3212" stroke="#0078D4" stroke-width="1.66324" stroke-miterlimit="10" stroke-linecap="round"/>
<path d="M67.0903 62.9922H72.8724" stroke="#C3F1FF" stroke-width="1.66324" stroke-miterlimit="10" stroke-linecap="round"/>
<path d="M67.0903 65.9883H78.5587" stroke="#9CEBFF" stroke-width="1.66324" stroke-miterlimit="10" stroke-linecap="round"/>
<path d="M67.0903 68.9863H74.7002" stroke="#50E6FF" stroke-width="1.66324" stroke-miterlimit="10" stroke-linecap="round"/>
<path d="M67.0903 71.9824H71.764" stroke="#0078D4" stroke-width="1.66324" stroke-miterlimit="10" stroke-linecap="round"/>
<path d="M66.1466 18.0625H33.1328C31.9597 18.0625 31.0088 19.0135 31.0088 20.1865V43.1485C31.0088 44.3216 31.9597 45.2726 33.1328 45.2726H66.1466C67.3197 45.2726 68.2706 44.3216 68.2706 43.1485V20.1865C68.2706 19.0135 67.3197 18.0625 66.1466 18.0625Z" fill="white"/>
<path d="M38.1582 39.175V35.8457" stroke="#C3F1FF" stroke-width="4.24806" stroke-miterlimit="10" stroke-linecap="round"/>
<path d="M45.8125 39.1756V30.1582" stroke="#9CEBFF" stroke-width="4.24806" stroke-miterlimit="10" stroke-linecap="round"/>
<path d="M53.4668 39.1743V24.2852" stroke="#50E6FF" stroke-width="4.24806" stroke-miterlimit="10" stroke-linecap="round"/>
<path d="M61.1211 39.1754V32.4648" stroke="#0078D4" stroke-width="4.24806" stroke-miterlimit="10" stroke-linecap="round"/>
</g>
<defs>
<linearGradient id="paint0_linear" x1="47.8697" y1="-15.153" x2="51.8525" y2="130.615" gradientUnits="userSpaceOnUse">
<stop stop-color="#00ABDE"/>
<stop offset="1" stop-color="#007ED8"/>
</linearGradient>
<linearGradient id="paint1_linear" x1="47.5243" y1="72.5803" x2="41.9841" y2="65.0946" gradientUnits="userSpaceOnUse">
<stop offset="0.0024" stop-color="#50E6FF"/>
<stop offset="0.13844" stop-color="#61E8FF"/>
<stop offset="0.40787" stop-color="#8DEFFF"/>
<stop offset="0.7814" stop-color="#D4F9FF"/>
<stop offset="0.99436" stop-color="white"/>
</linearGradient>
<linearGradient id="paint2_linear" x1="54.8638" y1="72.5808" x2="49.3139" y2="65.1314" gradientUnits="userSpaceOnUse">
<stop offset="0.0024" stop-color="#50E6FF"/>
<stop offset="0.13844" stop-color="#61E8FF"/>
<stop offset="0.40787" stop-color="#8DEFFF"/>
<stop offset="0.7814" stop-color="#D4F9FF"/>
<stop offset="0.99436" stop-color="white"/>
</linearGradient>
<linearGradient id="paint3_linear" x1="52.7249" y1="65.2203" x2="50.9064" y2="57.9228" gradientUnits="userSpaceOnUse">
<stop offset="0.0024" stop-color="#50E6FF"/>
<stop offset="0.13844" stop-color="#61E8FF"/>
<stop offset="0.40787" stop-color="#8DEFFF"/>
<stop offset="0.7814" stop-color="#D4F9FF"/>
<stop offset="0.99436" stop-color="white"/>
</linearGradient>
<clipPath id="clip0">
<rect width="99.2799" height="99.28" fill="white"/>
</clipPath>
</defs>
</svg>
