<svg width="106" height="106" viewBox="0 0 106 106" fill="none" xmlns="http://www.w3.org/2000/svg">
<g filter="url(#filter0_d)">
<circle cx="53" cy="53" r="49" fill="#5197D5"/>
<circle cx="53" cy="53" r="50.75" stroke="#F2F1F0" stroke-width="3.5"/>
</g>
<circle cx="53" cy="53" r="48" stroke="#0078D4" stroke-width="4"/>
<path opacity="0.15" d="M67.8083 70.9669C76.1022 74.8707 76.1022 81.2341 68.0228 85.3095C59.9435 89.2133 46.5447 89.2133 38.4654 85.3238C30.3861 81.42 30.1716 74.8707 38.2509 70.9669C46.3302 67.0774 59.729 67.0774 67.8083 70.9669Z" fill="#1F1D20"/>
<path d="M75.001 70.2529V74.3283C75.001 77.5029 72.7417 80.6488 68.6806 83.38C60.0865 88.3563 46.0585 88.3563 37.4644 83.3943C32.9457 80.6774 31.1296 77.5172 31.1296 74.3569V70.2815C31.1296 73.4561 33.4033 77.0596 37.4644 79.3332C46.0728 84.3095 60.0865 84.3095 68.6806 79.3189C72.7417 77.0453 75.001 73.8707 75.001 70.2529Z" fill="#E6E6E6"/>
<path d="M69.4528 38.7508C64.977 41.2533 59.2285 42.5117 53.4801 42.6976C47.3884 42.6976 41.454 41.4392 36.9925 38.7508C32.3309 36.0625 30.1716 32.6592 30.1716 32.8308L30 72.6554C30 74.2712 30.715 75.7155 31.6159 76.788C32.6883 77.8605 34.4901 79.4763 36.8066 80.7347C41.4683 83.423 47.3884 84.6814 53.4801 84.6814C59.2285 84.6814 65.1343 83.423 69.2669 80.7347C73.7427 78.2322 75.902 74.643 75.902 71.4113L76.0736 31.0576C76.288 34.4466 73.9572 36.2341 69.4528 38.7508Z" fill="url(#paint0_linear)"/>
<path d="M69.4527 21.8913C78.4186 27.0821 78.4186 35.5046 69.6386 40.724C60.687 45.9291 45.9727 45.9434 36.9925 40.7383C28.0266 35.5475 28.0266 27.125 36.8066 21.9056C45.7868 16.7005 60.5011 16.7005 69.4527 21.8913Z" fill="white"/>
<path d="M65.5202 24.0504C72.5128 27.9971 72.5128 34.4605 65.7061 38.5788C58.8852 42.5255 47.5884 42.5255 40.7675 38.5931C33.9466 34.6321 33.775 28.0114 40.5959 24.0504C47.4025 20.1037 58.6993 20.1037 65.5202 24.0504Z" fill="#9CEBFF"/>
<path d="M40.5961 26.5528C47.417 22.6061 58.7137 22.6061 65.5347 26.5385C68.4089 28.3402 70.2107 30.2993 70.5539 32.6301C71.2689 29.3984 69.6673 26.3526 65.5347 24.0217C58.7137 20.075 47.417 20.0893 40.5961 24.036C36.6494 26.1953 35.0335 29.4127 35.7485 32.4729C36.2919 30.3279 37.7218 28.1829 40.5961 26.5528Z" fill="#50E6FF"/>
<path fill-rule="evenodd" clip-rule="evenodd" d="M53.0004 76.0008C59.9042 76.0008 65.5008 70.4042 65.5008 63.5004C65.5008 56.5966 59.9042 51 53.0004 51C46.0966 51 40.5 56.5966 40.5 63.5004C40.5 65.9098 41.1816 68.1599 42.3626 70.0685V74.1384H46.4326C48.3411 75.3192 50.5912 76.0008 53.0004 76.0008Z" fill="#FCA11F"/>
<path fill-rule="evenodd" clip-rule="evenodd" d="M65.501 63.5003C65.501 70.4041 59.9044 76.0008 53.0006 76.0008C50.5914 76.0008 48.3413 75.3192 46.4328 74.1383H42.3628V74.0636L61.8921 54.7139C64.1234 56.9717 65.501 60.0752 65.501 63.5003Z" fill="#E89619"/>
<circle cx="53.0004" cy="56.8774" r="1.65568" fill="white"/>
<circle cx="53.0004" cy="70.1225" r="1.65568" fill="white"/>
<circle cx="57.4706" cy="65.6518" r="1.65568" fill="white"/>
<circle cx="57.4706" cy="61.266" r="1.65568" fill="white"/>
<path d="M56.8084 63.4178C56.8084 64.0504 56.1323 65.1976 55.8149 65.6944H59.0849C58.7814 65.2528 58.2074 64.1794 58.1743 63.4178C58.1598 63.0855 58.2683 62.6992 58.4226 62.3337C58.6221 61.8613 58.8982 61.4237 59.0849 61.1826H55.8149C56.1875 61.6655 56.8084 62.5899 56.8084 63.4178Z" fill="white"/>
<circle cx="48.5299" cy="65.6518" r="1.65568" fill="white"/>
<circle cx="48.5299" cy="61.266" r="1.65568" fill="white"/>
<path d="M47.8678 63.4174C47.8678 64.05 47.6057 64.1211 47.2883 64.6178L49.7305 64.5764C49.4269 64.1349 49.2669 64.179 49.2338 63.4174C49.2193 63.0851 49.2338 62.9621 49.3993 62.7137C49.5844 62.4361 49.5438 62.5409 49.7305 62.2998L47.4125 62.424C47.785 62.9069 47.8678 62.5895 47.8678 63.4174Z" fill="white"/>
<circle cx="57.4706" cy="65.6518" r="1.65568" fill="white"/>
<circle cx="57.4706" cy="61.266" r="1.65568" fill="white"/>
<path d="M56.8082 63.4174C56.8082 64.05 56.5461 64.1211 56.2288 64.6178L58.6709 64.5764C58.3674 64.1349 58.2073 64.179 58.1742 63.4174C58.1597 63.0851 58.1742 62.9621 58.3398 62.7137C58.5249 62.4361 58.4842 62.5409 58.6709 62.2998L56.3529 62.424C56.7255 62.9069 56.8082 62.5895 56.8082 63.4174Z" fill="white"/>
<circle cx="53.0004" cy="65.6518" r="1.65568" fill="white"/>
<circle cx="53.0004" cy="61.266" r="1.65568" fill="white"/>
<path d="M52.338 63.4174C52.338 64.05 52.0759 64.1211 51.7585 64.6178L54.2007 64.5764C53.8971 64.1349 53.7371 64.179 53.704 63.4174C53.6895 63.0851 53.704 62.9621 53.8695 62.7137C54.0547 62.4361 54.014 62.5409 54.2007 62.2998L51.8827 62.424C52.2552 62.9069 52.338 62.5895 52.338 63.4174Z" fill="white"/>
<circle cx="53.0004" cy="65.6518" r="1.65568" fill="white"/>
<circle cx="53.0004" cy="61.266" r="1.65568" fill="white"/>
<path d="M52.338 63.4174C52.338 64.05 52.0759 64.1211 51.7585 64.6178L54.2007 64.5764C53.8971 64.1349 53.7371 64.179 53.704 63.4174C53.6895 63.0851 53.704 62.9621 53.8695 62.7137C54.0547 62.4361 54.014 62.5409 54.2007 62.2998L51.8827 62.424C52.2552 62.9069 52.338 62.5895 52.338 63.4174Z" fill="white"/>
<defs>
<filter id="filter0_d" x="0.5" y="0.5" width="105.5" height="105.5" filterUnits="userSpaceOnUse" color-interpolation-filters="sRGB">
<feFlood flood-opacity="0" result="BackgroundImageFix"/>
<feColorMatrix in="SourceAlpha" type="matrix" values="0 0 0 0 0 0 0 0 0 0 0 0 0 0 0 0 0 0 127 0"/>
<feOffset dx="0.5" dy="0.5"/>
<feColorMatrix type="matrix" values="0 0 0 0 0.823529 0 0 0 0 0.831373 0 0 0 0 0.835294 0 0 0 1 0"/>
<feBlend mode="normal" in2="BackgroundImageFix" result="effect1_dropShadow"/>
<feBlend mode="normal" in="SourceGraphic" in2="effect1_dropShadow" result="shape"/>
</filter>
<linearGradient id="paint0_linear" x1="27.4263" y1="19.0658" x2="64.0095" y2="67.309" gradientUnits="userSpaceOnUse">
<stop stop-color="#005BA1"/>
<stop offset="0.07" stop-color="#0060A9"/>
<stop offset="0.36" stop-color="#0071C8"/>
<stop offset="0.52" stop-color="#0078D4"/>
<stop offset="0.64" stop-color="#0074CD"/>
<stop offset="0.82" stop-color="#006ABB"/>
<stop offset="1" stop-color="#005BA1"/>
</linearGradient>
</defs>
</svg>
