<svg width="181" height="191" viewBox="0 0 181 191" fill="none" xmlns="http://www.w3.org/2000/svg">
<path d="M90.4525 189.558C93.5125 189.558 96.5225 188.708 99.1825 187.088L161.152 149.428C166.692 146.058 170.122 139.728 170.122 132.888V58.1782C170.122 51.3582 166.692 45.0182 161.152 41.6382L99.1825 3.97817C93.8525 0.73817 87.0325 0.75817 81.7325 3.97817L19.7625 41.6582C14.2225 45.0282 10.7725 51.3582 10.7725 58.1982V132.898C10.7725 138.658 13.2225 144.078 17.3225 147.648V147.678L81.7325 187.108C84.3725 188.708 87.3925 189.558 90.4525 189.558ZM91.1025 8.50817C93.0525 8.50817 95.5325 9.71817 97.2425 10.7682L158.002 47.9582C161.752 50.2382 163.872 56.8382 163.872 61.5882L163.242 132.888C163.242 137.638 160.042 141.908 156.292 144.188L95.8925 180.568C92.4625 182.658 89.6725 182.658 86.2325 180.568L25.0225 144.098C21.2725 141.818 18.2525 137.618 18.2525 132.888V59.2482C18.2525 54.5082 20.9825 49.6182 24.7525 47.3282L85.3325 10.7682C87.0325 9.72817 89.1525 8.50817 91.1025 8.50817Z" fill="#F2F1F0"/>
<path fill-rule="evenodd" clip-rule="evenodd" d="M98.3525 12.0879C95.9025 10.5879 93.1825 9.83789 90.4525 9.83789C87.7225 9.83789 85.0025 10.5979 82.5525 12.0879L26.4225 46.4179C21.4025 49.4879 18.2925 55.2379 18.2925 61.4879V129.588C18.2925 135.818 21.3925 141.588 26.4225 144.658L82.5525 178.988C85.0025 180.488 87.7225 181.238 90.4525 181.238C93.1825 181.238 95.9025 180.498 98.3525 178.988L154.482 144.658C159.502 141.588 162.612 135.818 162.612 129.588V61.4879C162.612 55.2579 159.512 49.5079 154.482 46.4179L98.3525 12.0879Z" fill="url(#paint0_linear)"/>
<path fill-rule="evenodd" clip-rule="evenodd" d="M90.4525 11.3081C92.1325 11.3081 94.0225 12.1781 96.0825 13.4281L154.552 48.9681C158.202 51.1881 160.612 55.4581 160.612 60.2881V130.768C160.612 135.588 158.202 139.868 154.552 142.088L96.0925 177.628C94.1325 178.818 92.2125 179.568 90.4625 179.568C88.7125 179.568 86.7925 178.818 84.8325 177.628L26.3525 142.098C24.3425 140.868 22.8925 139.668 21.9125 138.058C20.9325 136.458 20.2925 134.238 20.2925 130.778V60.2981C20.2925 55.4681 22.7025 51.1981 26.3525 48.9781L84.8125 13.4381C86.9025 12.1881 88.7625 11.3081 90.4525 11.3081ZM98.1625 181.058L156.622 145.518C161.542 142.528 164.602 136.908 164.602 130.778V60.2981C164.602 54.1681 161.542 48.5481 156.622 45.5581L98.1625 10.0181C96.0525 8.73811 93.3425 7.30811 90.4525 7.30811C87.5525 7.30811 84.8425 8.74811 82.7525 10.0081H82.7425L24.2725 45.5581C19.3525 48.5481 16.2925 54.1681 16.2925 60.2981V130.778C16.2925 134.738 17.0325 137.728 18.4925 140.138C19.9525 142.538 22.0125 144.138 24.2725 145.508L82.7325 181.048C84.9525 182.398 87.6225 183.578 90.4425 183.578C93.2625 183.578 95.9425 182.408 98.1625 181.058Z" fill="#F3C900"/>
<path d="M90.4024 56.3883C94.3724 56.3883 97.5924 53.1683 97.5924 49.1883C97.5924 45.2083 94.3724 41.9883 90.4024 41.9883C86.4324 41.9883 83.2124 45.2083 83.2124 49.1883C83.2124 53.1583 86.4324 56.3883 90.4024 56.3883Z" stroke="url(#paint1_linear)" stroke-width="4"/>
<path d="M69.2225 141.308H113.553H69.2225ZM60.8425 153.308L76.4125 124.518L60.8425 153.308ZM120.743 153.308L105.163 124.518L120.743 153.308Z" stroke="url(#paint2_linear)" stroke-width="5" stroke-linecap="round"/>
<path d="M139.522 58.7881H42.4824V123.558H139.522V58.7881Z" fill="url(#paint3_linear)"/>
<path fill-rule="evenodd" clip-rule="evenodd" d="M39.5523 49.188H142.402C143.452 49.188 144.302 50.048 144.302 51.088V58.078C144.302 59.128 143.442 59.978 142.402 59.978H39.5523C38.5023 59.978 37.6523 59.118 37.6523 58.078V51.088C37.6523 50.038 38.5123 49.188 39.5523 49.188Z" fill="url(#paint4_linear)"/>
<path fill-rule="evenodd" clip-rule="evenodd" d="M39.5523 122.188H142.402C143.452 122.188 144.302 123.048 144.302 124.088V126.278C144.302 127.328 143.442 128.178 142.402 128.178H39.5523C38.5023 128.178 37.6523 127.318 37.6523 126.278V124.088C37.6523 123.038 38.5123 122.188 39.5523 122.188Z" fill="url(#paint5_linear)"/>
<path d="M115.362 67.9678H94.9323C94.0323 67.9678 93.3123 68.6878 93.3123 69.5678V112.878C93.3123 113.758 94.0423 114.478 94.9323 114.478H130.102C131.002 114.478 131.722 113.758 131.722 112.878V84.2178C131.722 83.3378 130.992 82.6178 130.102 82.6178H118.432C117.552 82.6178 116.842 81.9178 116.842 81.0478V69.5678C116.852 68.7278 116.202 68.0178 115.362 67.9678Z" fill="url(#paint6_linear)"/>
<path d="M131.942 83.608L116.102 67.918V80.628C116.102 82.278 117.442 83.608 119.092 83.608H131.942Z" fill="#4A4C4A"/>
<path d="M100.602 83.5781H109.662C110.272 83.5781 110.782 84.0781 110.782 84.6981C110.782 85.3181 110.282 85.8181 109.662 85.8181H100.602C99.9922 85.8181 99.4822 85.3281 99.4822 84.6981C99.4822 84.0781 99.9822 83.5781 100.602 83.5781Z" fill="white"/>
<path d="M100.602 78.3682H109.662C110.272 78.3682 110.782 78.8682 110.782 79.4882C110.782 80.1082 110.282 80.6082 109.662 80.6082H100.602C99.9922 80.6182 99.4822 80.1182 99.4822 79.4982C99.4822 78.8682 99.9822 78.3682 100.602 78.3682Z" fill="white"/>
<path d="M100.602 88.7881H105.142C105.752 88.7881 106.262 89.2881 106.262 89.9081C106.262 90.5181 105.762 91.0281 105.142 91.0281H100.602C99.9922 91.0381 99.4822 90.5381 99.4822 89.9181C99.4822 89.2881 99.9822 88.7881 100.602 88.7881Z" fill="white"/>
<path d="M105.512 102.198H100.232V108.908H105.512V102.198Z" fill="url(#paint7_linear)"/>
<path d="M114.552 96.2378H109.272V108.898H114.552V96.2378Z" fill="url(#paint8_linear)"/>
<path d="M123.592 88.7881H118.312V108.898H123.592V88.7881Z" fill="url(#paint9_linear)"/>
<path d="M86.7123 106.278L98.5323 94.4179C98.7223 94.2279 99.0123 94.2279 99.2023 94.4179L101.172 96.3879C101.362 96.5779 101.362 96.8679 101.172 97.0579L89.3523 108.918C89.1623 109.108 88.8723 109.108 88.6823 108.918L86.7123 106.948C86.5223 106.758 86.5323 106.468 86.7123 106.278Z" fill="#C7A701"/>
<path d="M105.472 102.138C112.332 102.138 117.892 96.5779 117.892 89.7179C117.892 82.8579 112.332 77.2979 105.472 77.2979C98.6122 77.2979 93.0522 82.8579 93.0522 89.7179C93.0522 96.5779 98.6122 102.138 105.472 102.138Z" fill="#F7CF00"/>
<path d="M105.472 99.7879C110.912 99.7879 115.312 95.3779 115.312 89.9479C115.312 84.5079 110.902 80.1079 105.472 80.1079C100.032 80.1079 95.6323 84.5179 95.6323 89.9479C95.6323 95.3779 100.042 99.7879 105.472 99.7879Z" fill="#5F5F5F"/>
<path d="M100.272 90.1779L103.052 96.0379L105.862 88.5079L108.192 92.7979L111.072 88.3879H115.172C115.072 87.8879 115.022 87.5479 114.902 86.9079H110.302L108.422 89.7779L105.542 84.7979L102.872 91.9479L100.452 86.8779L97.4623 91.8279H95.8723C95.8723 92.6379 96.0223 92.8279 96.2423 93.3079H98.4023L100.272 90.1779Z" fill="white"/>
<path d="M77.7124 112.508H65.9424V77.3183C65.9424 76.0483 66.9724 75.0283 68.2324 75.0283H77.7024C78.9724 75.0283 79.9924 76.0583 79.9924 77.3183V110.218C80.0024 111.478 78.9724 112.508 77.7124 112.508Z" fill="url(#paint10_linear)"/>
<path d="M70.0925 112.508H58.0325V86.5884C58.0325 85.4884 58.9325 84.5884 60.0325 84.5884H70.0825C71.1825 84.5884 72.0825 85.4884 72.0825 86.5884V110.498C72.0925 111.608 71.1925 112.508 70.0925 112.508Z" fill="url(#paint11_linear)"/>
<path d="M61.9424 112.509H53.0924C51.6524 112.509 50.4824 111.339 50.4824 109.899V96.3786C50.4824 94.9386 51.6524 93.7686 53.0924 93.7686H61.9424C63.3824 93.7686 64.5524 94.9386 64.5524 96.3786V109.899C64.5424 111.339 63.3824 112.509 61.9424 112.509Z" fill="url(#paint12_linear)"/>
<defs>
<linearGradient id="paint0_linear" x1="76.8607" y1="4.87339" x2="121.648" y2="303.645" gradientUnits="userSpaceOnUse">
<stop stop-color="#D48E15"/>
<stop offset="1" stop-color="#996A20"/>
</linearGradient>
<linearGradient id="paint1_linear" x1="90.3999" y1="42.007" x2="90.3999" y2="56.4533" gradientUnits="userSpaceOnUse">
<stop stop-color="#6A6A6A"/>
<stop offset="1" stop-color="#343333"/>
</linearGradient>
<linearGradient id="paint2_linear" x1="90.79" y1="153.343" x2="90.79" y2="124.452" gradientUnits="userSpaceOnUse">
<stop stop-color="#D2EBFF"/>
<stop offset="1" stop-color="#F0FFFD"/>
</linearGradient>
<linearGradient id="paint3_linear" x1="90.9996" y1="123.553" x2="90.9996" y2="58.7851" gradientUnits="userSpaceOnUse">
<stop stop-color="#D2EBFF"/>
<stop offset="1" stop-color="#F0FFFD"/>
</linearGradient>
<linearGradient id="paint4_linear" x1="90.9804" y1="49.2553" x2="90.9804" y2="59.9774" gradientUnits="userSpaceOnUse">
<stop stop-color="#6A6A6A"/>
<stop offset="1" stop-color="#343333"/>
</linearGradient>
<linearGradient id="paint5_linear" x1="90.9805" y1="122.239" x2="90.9805" y2="128.196" gradientUnits="userSpaceOnUse">
<stop stop-color="#6A6A6A"/>
<stop offset="1" stop-color="#343333"/>
</linearGradient>
<linearGradient id="paint6_linear" x1="112.522" y1="68.2863" x2="112.522" y2="114.488" gradientUnits="userSpaceOnUse">
<stop stop-color="#6A6A6A"/>
<stop offset="1" stop-color="#343333"/>
</linearGradient>
<linearGradient id="paint7_linear" x1="102.878" y1="108.742" x2="102.878" y2="101.847" gradientUnits="userSpaceOnUse">
<stop stop-color="#0078D4"/>
<stop offset="0.16" stop-color="#1380DA"/>
<stop offset="0.53" stop-color="#3C91E5"/>
<stop offset="0.82" stop-color="#559CEC"/>
<stop offset="1" stop-color="#5EA0EF"/>
</linearGradient>
<linearGradient id="paint8_linear" x1="111.911" y1="96.2341" x2="111.911" y2="108.896" gradientUnits="userSpaceOnUse">
<stop stop-color="#DA3A00"/>
<stop offset="1" stop-color="#DA3A00"/>
</linearGradient>
<linearGradient id="paint9_linear" x1="120.952" y1="89.2051" x2="120.952" y2="108.901" gradientUnits="userSpaceOnUse">
<stop stop-color="#FFE02A"/>
<stop offset="1" stop-color="#FFB518"/>
</linearGradient>
<linearGradient id="paint10_linear" x1="72.8176" y1="78.4504" x2="73.1167" y2="109.553" gradientUnits="userSpaceOnUse">
<stop offset="0.00753769" stop-color="#E0A310"/>
<stop offset="1" stop-color="#CA810E"/>
</linearGradient>
<linearGradient id="paint11_linear" x1="64.6827" y1="85.679" x2="65.5799" y2="118.576" gradientUnits="userSpaceOnUse">
<stop offset="0.00753769" stop-color="#F2CC40"/>
<stop offset="1" stop-color="#E7B116"/>
</linearGradient>
<linearGradient id="paint12_linear" x1="57.1824" y1="95.2168" x2="58.0795" y2="116.451" gradientUnits="userSpaceOnUse">
<stop stop-color="#F8E17B"/>
<stop offset="0.5302" stop-color="#F6D856"/>
<stop offset="1" stop-color="#F6D856"/>
</linearGradient>
</defs>
</svg>
