<svg width="100" height="100" viewBox="0 0 100 100" fill="none" xmlns="http://www.w3.org/2000/svg">
<g clip-path="url(#clip0)">
<path d="M49.6401 96.4501C40.382 96.4501 31.3317 93.7047 23.6339 88.5612C15.936 83.4176 9.93624 76.1069 6.3933 67.5535C2.85036 59.0001 1.92337 49.5882 3.72954 40.5079C5.53571 31.4277 9.99394 23.0869 16.5404 16.5404C23.0869 9.99393 31.4277 5.53571 40.5079 3.72954C49.5882 1.92337 59.0001 2.85036 67.5535 6.3933C76.1069 9.93624 83.4176 15.936 88.5612 23.6339C93.7047 31.3317 96.4501 40.382 96.4501 49.6401C96.4505 55.7874 95.24 61.8746 92.8878 67.554C90.5355 73.2335 87.0875 78.3939 82.7407 82.7407C78.3939 87.0875 73.2335 90.5355 67.554 92.8878C61.8746 95.24 55.7874 96.4505 49.6401 96.4501V96.4501Z" fill="url(#paint0_linear)"/>
<path fill-rule="evenodd" clip-rule="evenodd" d="M95.54 49.64C95.54 58.7182 92.848 67.5925 87.8045 75.1407C82.7609 82.6889 75.5923 88.572 67.2052 92.0461C58.818 95.5201 49.5891 96.4291 40.6854 94.658C31.7816 92.887 23.603 88.5154 17.1838 82.0962C10.7646 75.677 6.39302 67.4984 4.62196 58.5946C2.85089 49.6909 3.75987 40.462 7.23393 32.0748C10.708 23.6877 16.5911 16.5191 24.1393 11.4755C31.6875 6.43199 40.5618 3.74 49.64 3.74C55.6677 3.73998 61.6363 4.9272 67.2052 7.23388C72.774 9.54057 77.834 12.9215 82.0963 17.1837C86.3585 21.446 89.7394 26.5059 92.0461 32.0748C94.3528 37.6437 95.54 43.6123 95.54 49.64V49.64ZM49.64 3.62732e-07C59.4579 3.62732e-07 69.0553 2.91134 77.2185 8.36585C85.3818 13.8204 91.7442 21.5731 95.5014 30.6436C99.2585 39.7141 100.242 49.6951 98.3262 59.3243C96.4108 68.9535 91.6831 77.7985 84.7408 84.7408C77.7985 91.6831 68.9535 96.4108 59.3243 98.3262C49.6951 100.242 39.7141 99.2585 30.6436 95.5014C21.5731 91.7442 13.8204 85.3818 8.36585 77.2185C2.91134 69.0553 3.62732e-07 59.4579 3.62732e-07 49.64C-0.000787738 43.121 1.28265 36.6656 3.77702 30.6427C6.27138 24.6197 9.9278 19.1471 14.5375 14.5375C19.1471 9.9278 24.6197 6.27138 30.6427 3.77702C36.6656 1.28265 43.121 -0.000787738 49.64 3.62732e-07V3.62732e-07Z" fill="#F2F1F0"/>
<path fill-rule="evenodd" clip-rule="evenodd" d="M92.7296 49.6406C92.7296 58.163 90.2024 66.494 85.4676 73.5801C80.7328 80.6662 74.0031 86.1892 66.1294 89.4505C58.2557 92.7119 49.5918 93.5653 41.2331 91.9026C32.8745 90.24 25.1966 86.1361 19.1703 80.1098C13.1441 74.0836 9.04017 66.4057 7.37753 58.047C5.7149 49.6884 6.56822 41.0244 9.8296 33.1507C13.091 25.2771 18.6139 18.5473 25.7 13.8126C32.7862 9.07776 41.1172 6.55058 49.6396 6.55058C55.2983 6.55023 60.9017 7.66455 66.1298 9.82991C71.3579 11.9953 76.1082 15.1692 80.1096 19.1706C84.1109 23.1719 87.2849 27.9223 89.4502 33.1503C91.6156 38.3784 92.7299 43.9818 92.7296 49.6406V49.6406ZM49.6396 2.81058C58.9017 2.81058 67.9558 5.55711 75.6569 10.7029C83.3581 15.8486 89.3604 23.1624 92.9049 31.7195C96.4493 40.2766 97.3767 49.6925 95.5697 58.7767C93.7628 67.8608 89.3027 76.2051 82.7534 82.7544C76.2041 89.3037 67.8598 93.7638 58.7757 95.5708C49.6915 97.3777 40.2756 96.4503 31.7185 92.9059C23.1614 89.3614 15.8476 83.3591 10.7018 75.6579C5.5561 67.9568 2.80957 58.9027 2.80957 49.6406C2.81076 37.2209 7.745 25.3101 16.5271 16.5281C25.3091 7.74599 37.2198 2.81174 49.6396 2.81055V2.81058Z" fill="#0078D4"/>
<path opacity="0.15" fill-rule="evenodd" clip-rule="evenodd" d="M68.4336 72.7249C68.4336 76.7075 60.0193 79.9341 49.6394 79.9341C39.2603 79.9341 30.8452 76.7075 30.8452 72.7249C30.8452 68.7421 39.2603 65.5156 49.6394 65.5156C60.0193 65.5156 68.4336 68.7421 68.4336 72.7249Z" fill="#003067"/>
<path fill-rule="evenodd" clip-rule="evenodd" d="M49.6397 69.3371C42.3616 69.3371 36.4607 67.139 36.4607 64.4258V70.9742C36.4607 73.6873 42.3616 75.8854 49.6397 75.8854C56.9183 75.8854 62.8187 73.6873 62.8187 70.9742V64.4258C62.8186 67.139 56.9183 69.3371 49.6397 69.3371Z" fill="#1490DF"/>
<path fill-rule="evenodd" clip-rule="evenodd" d="M49.6397 71.5003V73.6814C49.6388 73.8288 49.6083 73.9746 49.55 74.11C49.4917 74.2454 49.4067 74.3677 49.3003 74.4696C49.1938 74.5716 49.0679 74.6511 48.9301 74.7034C48.7923 74.7558 48.6454 74.78 48.498 74.7745C41.7543 74.5589 36.4607 72.4509 36.4607 69.8812V70.9726C36.4607 73.6858 42.3616 75.8839 49.6397 75.8839C56.9183 75.8839 62.8187 73.6858 62.8187 70.9726V65.5156C62.8187 68.0962 57.4818 70.2108 50.6973 70.4111C50.4141 70.4197 50.1454 70.5382 49.948 70.7415C49.7506 70.9448 49.64 71.2169 49.6397 71.5003V71.5003Z" fill="#0078D4"/>
<path fill-rule="evenodd" clip-rule="evenodd" d="M62.7477 64.482C62.7477 67.1975 56.8791 69.3975 49.6396 69.3975C42.4006 69.3975 36.5315 67.1975 36.5315 64.482C36.5315 61.7664 42.4007 59.5664 49.6396 59.5664C56.8791 59.5664 62.7477 61.7664 62.7477 64.482Z" fill="#1F56A3"/>
<path d="M62.7477 64.482C62.7477 67.1975 56.8791 69.3975 49.6396 69.3975C42.4006 69.3975 36.5315 67.1975 36.5315 64.482C36.5315 61.7664 42.4007 59.5664 49.6396 59.5664C56.8791 59.5664 62.7477 61.7664 62.7477 64.482" stroke="#1F56A3" stroke-width="0.13654"/>
<path fill-rule="evenodd" clip-rule="evenodd" d="M49.6397 60.0597C42.3616 60.0597 36.4607 57.8617 36.4607 55.1484V61.6968C36.4607 64.41 42.3616 66.608 49.6397 66.608C56.9183 66.608 62.8187 64.41 62.8187 61.6968V55.1484C62.8186 57.8616 56.9183 60.0597 49.6397 60.0597Z" fill="#1490DF"/>
<path fill-rule="evenodd" clip-rule="evenodd" d="M49.6397 62.2249V64.4061C49.6388 64.5535 49.6083 64.6992 49.55 64.8346C49.4917 64.97 49.4067 65.0923 49.3003 65.1943C49.1938 65.2962 49.0679 65.3757 48.9301 65.4281C48.7923 65.4805 48.6454 65.5046 48.498 65.4991C41.7543 65.2835 36.4607 63.1755 36.4607 60.6058V61.6972C36.4607 64.4105 42.3616 66.6085 49.6397 66.6085C56.9183 66.6085 62.8187 64.4105 62.8187 61.6972V56.2402C62.8187 58.8208 57.4818 60.9354 50.6973 61.1357C50.4141 61.1444 50.1454 61.2629 49.948 61.4662C49.7506 61.6695 49.64 61.9416 49.6397 62.2249V62.2249Z" fill="#0078D4"/>
<path fill-rule="evenodd" clip-rule="evenodd" d="M62.7477 55.1968C62.7477 57.9124 56.8791 60.1123 49.6396 60.1123C42.4006 60.1123 36.5315 57.9123 36.5315 55.1968C36.5315 52.4812 42.4007 50.2813 49.6396 50.2813C56.8791 50.2812 62.7477 52.4812 62.7477 55.1968Z" fill="#1F56A3"/>
<path d="M62.7477 55.1968C62.7477 57.9124 56.8791 60.1123 49.6396 60.1123C42.4006 60.1123 36.5315 57.9123 36.5315 55.1968C36.5315 52.4812 42.4007 50.2812 49.6396 50.2812C56.8791 50.2812 62.7477 52.4813 62.7477 55.1968" stroke="#1F56A3" stroke-width="0.13654"/>
<path fill-rule="evenodd" clip-rule="evenodd" d="M49.6397 50.7824C42.3616 50.7824 36.4607 48.5843 36.4607 45.8711V52.4195C36.4607 55.1326 42.3616 57.3307 49.6397 57.3307C56.9183 57.3307 62.8187 55.1326 62.8187 52.4195V45.8711C62.8186 48.5843 56.9183 50.7824 49.6397 50.7824Z" fill="#1490DF"/>
<path fill-rule="evenodd" clip-rule="evenodd" d="M49.6397 52.9475V55.1286C49.6388 55.2761 49.6083 55.4218 49.55 55.5572C49.4917 55.6926 49.4067 55.8149 49.3003 55.9168C49.1938 56.0188 49.0679 56.0983 48.9301 56.1507C48.7923 56.203 48.6454 56.2272 48.498 56.2217C41.7543 56.0061 36.4607 53.8981 36.4607 51.3284V52.4198C36.4607 55.133 42.3616 57.3311 49.6397 57.3311C56.9183 57.3311 62.8187 55.133 62.8187 52.4198V46.9629C62.8187 49.5435 57.4818 51.6581 50.6973 51.8583C50.4141 51.867 50.1454 51.9855 49.948 52.1888C49.7506 52.3921 49.6401 52.6642 49.6397 52.9475V52.9475Z" fill="#0078D4"/>
<path fill-rule="evenodd" clip-rule="evenodd" d="M62.2289 45.9117C62.2289 48.6272 56.5926 50.8272 49.6397 50.8272C42.6874 50.8272 37.0505 48.6272 37.0505 45.9117C37.0505 43.1961 42.6874 40.9961 49.6397 40.9961C56.5926 40.9961 62.2289 43.1961 62.2289 45.9117Z" fill="#1F56A3"/>
<path d="M62.2289 45.9117C62.2289 48.6272 56.5926 50.8272 49.6397 50.8272C42.6874 50.8272 37.0505 48.6272 37.0505 45.9117C37.0505 43.1961 42.6874 40.9961 49.6397 40.9961C56.5926 40.9961 62.2289 43.1961 62.2289 45.9117Z" stroke="#0078D4" stroke-width="1.22889"/>
<path d="M41.2046 26.7517L34.0459 30.9331L26.5129 22.5541C26.3893 22.4151 26.3084 22.2435 26.2798 22.0598C26.2512 21.876 26.2762 21.6879 26.3517 21.518C26.4272 21.3481 26.5501 21.2035 26.7057 21.1016C26.8612 20.9997 27.0428 20.9448 27.2288 20.9434H41.2046V26.7517Z" fill="url(#paint1_linear)"/>
<path d="M48.6394 29.2896L45.2064 25.4336L33.0854 38.7749H40.895C40.9758 38.7772 41.056 38.7607 41.1294 38.7268C41.2028 38.693 41.2673 38.6426 41.318 38.5797L48.6231 30.6237C48.794 30.4446 48.8906 30.2074 48.8937 29.9598C48.8967 29.7123 48.8058 29.4728 48.6394 29.2896V29.2896Z" fill="url(#paint2_linear)"/>
<path d="M41.2047 20.9434L26.5292 37.3435C26.4179 37.4677 26.3452 37.6217 26.3199 37.7865C26.2947 37.9514 26.318 38.12 26.387 38.2719C26.4561 38.4237 26.5678 38.5521 26.7086 38.6415C26.8494 38.7309 27.0132 38.7773 27.18 38.7751H33.3136L45.2396 25.4826L41.2047 20.9434Z" fill="url(#paint3_linear)"/>
<path d="M55.46 29.8603H58.5972C59.0954 29.8603 59.5733 29.6624 59.9256 29.3101C60.2779 28.9577 60.4758 28.4799 60.4758 27.9817V24.1521C60.4758 23.6538 60.6738 23.176 61.0261 22.8237C61.3784 22.4714 61.8562 22.2734 62.3545 22.2734H65.4867" stroke="white" stroke-width="0.79935" stroke-miterlimit="10"/>
<path d="M55.46 29.8594H58.5972C59.0954 29.8594 59.5733 30.0573 59.9256 30.4096C60.2779 30.7619 60.4758 31.2398 60.4758 31.738V35.5677C60.4758 35.8144 60.5244 36.0587 60.6188 36.2866C60.7132 36.5146 60.8516 36.7217 61.0261 36.8961C61.2005 37.0706 61.4076 37.209 61.6355 37.3034C61.8635 37.3978 62.1078 37.4464 62.3545 37.4464H65.4867" stroke="white" stroke-width="0.79935" stroke-miterlimit="10"/>
<path d="M65.4867 39.3952C66.5623 39.3952 67.4343 38.5233 67.4343 37.4476C67.4343 36.372 66.5623 35.5 65.4867 35.5C64.411 35.5 63.5391 36.372 63.5391 37.4476C63.5391 38.5233 64.411 39.3952 65.4867 39.3952Z" fill="white"/>
<path d="M65.4867 24.2214C66.5623 24.2214 67.4343 23.3494 67.4343 22.2738C67.4343 21.1982 66.5623 20.3262 65.4867 20.3262C64.411 20.3262 63.5391 21.1982 63.5391 22.2738C63.5391 23.3494 64.411 24.2214 65.4867 24.2214Z" fill="white"/>
<path d="M52.1152 28.1486V31.5726C52.1152 32.0114 52.471 32.3672 52.9098 32.3672H56.3338C56.7726 32.3672 57.1284 32.0114 57.1284 31.5726V28.1486C57.1284 27.7098 56.7726 27.3541 56.3338 27.3541H52.9098C52.471 27.3541 52.1152 27.7098 52.1152 28.1486Z" fill="white"/>
</g>
<defs>
<linearGradient id="paint0_linear" x1="47.8697" y1="-15.153" x2="51.8525" y2="130.615" gradientUnits="userSpaceOnUse">
<stop stop-color="#00ABDE"/>
<stop offset="1" stop-color="#007ED8"/>
</linearGradient>
<linearGradient id="paint1_linear" x1="27.2056" y1="16.1346" x2="43.4933" y2="31.4593" gradientUnits="userSpaceOnUse">
<stop offset="0.4598" stop-color="#1152D4"/>
<stop offset="0.6156" stop-color="#0D3FB3"/>
</linearGradient>
<linearGradient id="paint2_linear" x1="33.0854" y1="32.1043" x2="48.8937" y2="32.1043" gradientUnits="userSpaceOnUse">
<stop stop-color="#76C0FD"/>
<stop offset="1" stop-color="#63B2FB"/>
</linearGradient>
<linearGradient id="paint3_linear" x1="26.3058" y1="29.8592" x2="45.2396" y2="29.8592" gradientUnits="userSpaceOnUse">
<stop stop-color="#388CF4"/>
<stop offset="1" stop-color="#2C7CEF"/>
</linearGradient>
<clipPath id="clip0">
<rect width="99.2799" height="99.28" fill="white"/>
</clipPath>
</defs>
</svg>
