<?xml version="1.0" encoding="UTF-8"?>
<svg width="182px" height="164px" viewBox="0 0 182 164" version="1.1" xmlns="http://www.w3.org/2000/svg" xmlns:xlink="http://www.w3.org/1999/xlink">
    <!-- Generator: Sketch 64 (93537) - https://sketch.com -->
    <title>Data visualization in Power BI/Data-visualization-in-Power-BI</title>
    <desc>Created with Sketch.</desc>
    <defs>
        <path d="M85,150 C74.895949,139.357925 60.0188259,138.084599 45.5965993,136.849808 C31.7979389,135.668722 18.7639922,134.552819 9.7006596,125.948231 C1.84081742,118.486603 3.73431949,100.819094 5.56570086,83.7333147 C7.48829744,65.7948247 9.31024275,48.788167 0,41.8385753 L7.13641115,7.1775278 C12.3808929,8.91656554 23.4890977,11.908022 37.8436991,11.908022 C54.5207501,11.9076121 70.3776504,7.90233184 85,0 C99.6239223,7.90315175 115.481216,11.908432 132.156301,11.908022 C146.50815,11.9072021 157.618321,8.91574563 162.863589,7.17711784 L170,41.8385753 C160.689364,48.788167 162.511703,65.7952347 164.434299,83.7333147 C166.265681,100.819094 168.159183,118.486603 160.29934,125.948231 C151.235615,134.552819 138.202061,135.668722 124.403008,136.849808 C109.980781,138.084599 95.1036579,139.357925 85,150 Z" id="path-1"></path>
        <linearGradient x1="50%" y1="0%" x2="50%" y2="100%" id="linearGradient-3">
            <stop stop-color="#FFBB00" offset="0%"></stop>
            <stop stop-color="#D48E15" offset="100%"></stop>
        </linearGradient>
        <path d="M85,0 C99.6239223,7.90315175 115.481216,11.908432 132.156301,11.908022 C146.50815,11.9072021 157.618321,8.91574563 162.863589,7.17711784 L170,41.8385753 C161.341109,48.3016956 162.311127,63.4635268 164.035812,79.9831342 L164.948124,88.5957639 C166.536912,104.075024 167.414566,119.193494 160.29934,125.948231 C151.784931,134.031329 139.767304,135.505954 126.902778,136.634102 L121.025765,137.143577 C107.691252,138.339925 94.3163598,140.187178 85,150 C75.2896133,139.772552 61.1708369,138.19804 47.2840765,136.994862 L42.4751006,136.579217 C29.8458867,135.456667 18.0773761,133.900956 9.7006596,125.948231 C2.41996369,119.036407 3.50823153,103.367316 5.16378412,87.5153308 L5.96418275,79.9830597 C7.68882206,63.4631722 8.65852575,48.3016956 0,41.8385753 L7.13641115,7.1775278 L7.92522949,7.43402336 C13.4461786,9.19468281 24.1726501,11.908022 37.8436991,11.908022 C54.5207501,11.9076121 70.3776504,7.90233184 85,0 Z M85.8749468,6.08541489 L84.999,5.646 L84.9419178,5.67496513 C70.2652627,13.1283156 54.4273273,16.9076144 37.8436991,16.908022 C27.9344415,16.908022 18.9297168,15.6111276 11.1565513,13.5777666 L10.936,13.519 L5.475,40.044 L5.65150813,40.2347127 C9.48132277,44.415344 11.4016938,50.2842935 11.9491241,57.819532 L11.9850961,58.3479496 L12.055276,59.6059966 C12.3096191,64.9300006 12.0004189,70.0913134 10.9922195,79.9355143 L10.0378286,89.028028 C9.08405777,98.3875424 8.8045726,103.162755 8.99547238,108.262806 C9.26028698,115.337553 10.6598925,119.964595 13.1432338,122.322119 L13.5694961,122.719317 C19.6999193,128.323795 26.7911451,130.142083 44.1668018,131.70523 L49.8200125,132.199609 L51.3022098,132.337774 C59.2974887,133.104183 64.7548714,133.990308 70.1197421,135.608235 C75.5766652,137.253924 80.3263211,139.573243 84.4254477,142.753755 L85,143.209 L85.0654048,143.155844 C89.1168391,139.897989 93.8185628,137.511948 99.2275795,135.809251 L99.8800602,135.608195 C105.24492,133.990272 110.70228,133.104161 118.697664,132.337748 L122.546004,131.99087 L125.832925,131.705224 C143.612613,130.105772 150.624035,128.239121 156.85686,122.322031 C159.280983,120.020724 160.672451,115.556602 160.983683,108.763984 L161.004528,108.262806 C161.214143,102.66275 160.85662,97.4543484 159.662012,86.138382 L159.067859,80.5198009 C157.930576,69.5063578 157.639371,64.254798 158.014754,58.3481387 C158.509822,50.5582421 160.429444,44.5125373 164.348469,40.2346581 L164.525,40.044 L159.064,13.519 L158.841943,13.5773148 C151.310793,15.5469208 142.625189,16.8256747 133.082569,16.9041879 L132.156424,16.908022 C115.881592,16.9084222 100.323122,13.267773 85.8749468,6.08541489 Z" id="path-4"></path>
        <filter x="-10.9%" y="-11.9%" width="121.8%" height="123.8%" filterUnits="objectBoundingBox" id="filter-6">
            <feOffset dx="0" dy="2" in="SourceAlpha" result="shadowOffsetOuter1"></feOffset>
            <feGaussianBlur stdDeviation="2" in="shadowOffsetOuter1" result="shadowBlurOuter1"></feGaussianBlur>
            <feColorMatrix values="0 0 0 0 0   0 0 0 0 0   0 0 0 0 0  0 0 0 0.1 0" type="matrix" in="shadowBlurOuter1" result="shadowMatrixOuter1"></feColorMatrix>
            <feMerge>
                <feMergeNode in="shadowMatrixOuter1"></feMergeNode>
                <feMergeNode in="SourceGraphic"></feMergeNode>
            </feMerge>
        </filter>
        <linearGradient x1="50%" y1="100%" x2="50%" y2="0%" id="linearGradient-7">
            <stop stop-color="#CCCCCC" offset="15%"></stop>
            <stop stop-color="#707070" offset="100%"></stop>
        </linearGradient>
        <polygon id="path-8" points="0 0.0798560432 109.825379 0.0798560432 109.825379 72.5491359 0 72.5491359"></polygon>
        <linearGradient x1="50%" y1="0.670396959%" x2="50%" y2="100%" id="linearGradient-10">
            <stop stop-color="#6A6A6A" offset="0%"></stop>
            <stop stop-color="#343333" offset="100%"></stop>
        </linearGradient>
        <path d="M0,14.9151472 C0,23.1527167 6.67779175,29.8305085 14.9151472,29.8305085 L14.9151472,29.8305085 C23.1525027,29.8305085 29.8305085,23.1527167 29.8305085,14.9151472 L29.8305085,14.9151472 L14.9151472,14.9151472 L14.9151472,0 C6.67779175,0 0,6.67757776 0,14.9151472 L0,14.9151472 Z" id="path-11"></path>
        <path d="M8.27962934e-15,14.9152542 L14.9152542,14.9152542 C14.9152542,6.67772407 8.23753016,1.32474069e-14 8.27962934e-15,1.32474069e-14 L8.27962934e-15,1.32474069e-14 L8.27962934e-15,14.9152542 Z" id="path-13"></path>
    </defs>
    <g id="Badges" stroke="none" stroke-width="1" fill="none" fill-rule="evenodd">
        <g id="Data-visualization-in-Power-BI" transform="translate(-119.000000, -49.000000)">
            <g id="Data-visualization-in-Power-BI/Data-visualization-in-Power-BI" transform="translate(155.000000, 79.000000)">
                <g id="Trophy-Plates/Route-66" transform="translate(5.000000, 1.000000)">
                    <g id="BG" transform="translate(-35.000000, -25.000000)">
                        <mask id="mask-2" fill="white">
                            <use xlink:href="#path-1"></use>
                        </mask>
                        <path stroke="#FFFFFF" stroke-width="5" d="M83.8113984,-2.19936952 C69.5575945,5.50378981 54.1002721,9.40762242 37.8436377,9.40802204 C20.5051874,9.40802204 8.02550015,4.93726842 5.26863281,3.85217858 L-2.79030525,42.9938744 C7.55597579,48.9133606 4.94468837,66.0681234 3.07993701,83.4668976 C1.13511141,101.611049 -0.256294281,119.942875 7.97941922,127.761331 C17.4280905,136.731753 30.9426851,138.104658 45.3852119,139.340856 C59.1540673,140.519707 73.4986175,141.517073 83.1869979,151.721343 C83.8315496,152.400216 84.4343379,153.097558 84.9982036,153.811972 C85.5635341,153.100083 86.167326,152.401427 86.8130356,151.721308 C96.5010446,141.517032 110.845623,140.519699 124.61627,139.340695 C139.057242,138.104666 152.571454,136.731796 162.020588,127.761324 C170.256294,119.942875 168.864889,101.611049 166.92006,83.4668723 C165.055317,66.0685688 162.443581,48.9133598 172.790309,42.9939144 L164.731466,3.85221453 C161.97371,4.93692298 149.490587,9.40703174 132.156158,9.40802204 C115.901558,9.40842166 100.443898,5.50456716 86.1885981,-2.19937141 C85.7909741,-2.41425788 85.3953107,-2.63154684 85.0016148,-2.85123216 C84.6063347,-2.63245276 84.2098507,-2.41470442 83.8113984,-2.19936952 Z"></path>
                        <g id="Colors/Power-BI/BG-Gradient-1" mask="url(#mask-2)" fill="url(#linearGradient-3)">
                            <rect id="Rectangle" x="0" y="0" width="170" height="150"></rect>
                        </g>
                    </g>
                    <g id="Border" transform="translate(-35.000000, -25.000000)">
                        <mask id="mask-5" fill="white">
                            <use xlink:href="#path-4"></use>
                        </mask>
                        <use fill="#000000" fill-rule="nonzero" xlink:href="#path-4"></use>
                        <g id="Colors/Power-BI/Border" mask="url(#mask-5)" fill="#F3C900">
                            <rect id="Rectangle" x="0" y="0" width="170" height="150"></rect>
                        </g>
                    </g>
                </g>
                <g id="Computer-w/-data" filter="url(#filter-6)">
                    <g id="Group-17">
                        <path d="M77.8217442,94.2350917 C66.5689174,92.4310869 66.1263905,84.1842076 66.1263905,70.8474576 L43.8103913,70.8474576 C43.8103913,84.1842076 43.4310826,92.4310869 32.1782558,94.2350917 C28.9608644,94.5979229 26.5322053,97.3790099 26.5517241,100.677966 L83.4482759,100.677966 C83.4677947,97.3790099 81.0391356,94.5979229 77.8217442,94.2350917 Z" id="Path" fill="url(#linearGradient-7)" fill-rule="nonzero"></path>
                        <g id="Group-7">
                            <g id="Group-3">
                                <mask id="mask-9" fill="white">
                                    <use xlink:href="#path-8"></use>
                                </mask>
                                <g id="Clip-2"></g>
                                <path d="M106.188324,0.0798560432 C108.197187,0.0798560432 109.825379,1.6919003 109.825379,3.68083969 L109.825379,68.9481522 C109.825379,70.9370916 108.197187,72.5491359 106.188324,72.5491359 L3.63689504,72.5491359 C1.62835277,72.5491359 -0.000160349854,70.9370916 -0.000160349854,68.9481522 L-0.000160349854,3.68083969 C-0.000160349854,1.6919003 1.62835277,0.0798560432 3.63689504,0.0798560432 L106.188324,0.0798560432 Z" id="Fill-1" fill="url(#linearGradient-10)" mask="url(#mask-9)"></path>
                            </g>
                        </g>
                    </g>
                    <g id="Group-11" transform="translate(65.254237, 24.237288)">
                        <mask id="mask-12" fill="white">
                            <use xlink:href="#path-11"></use>
                        </mask>
                        <g id="Clip-10"></g>
                        <polygon id="Fill-9" fill="#FFFFFF" mask="url(#mask-12)" points="-1.86440678 31.6949153 31.6949153 31.6949153 31.6949153 -1.86440678 -1.86440678 -1.86440678"></polygon>
                    </g>
                    <g id="Group-14" transform="translate(85.762712, 18.644068)">
                        <mask id="mask-14" fill="white">
                            <use xlink:href="#path-13"></use>
                        </mask>
                        <g id="Clip-13"></g>
                        <polygon id="Fill-12" fill="#F7CF00" mask="url(#mask-14)" points="1.24293785 15.4237288 16.1581921 15.4237288 16.1581921 -1.3559322 1.24293785 -1.3559322"></polygon>
                    </g>
                    <g id="Computer" transform="translate(8.186441, 20.050847)" fill-rule="nonzero">
                        <rect id="Rectangle" fill="#FFFFFF" transform="translate(13.313559, 10.745763) rotate(90.000000) translate(-13.313559, -10.745763) " x="2.81355932" y="7.94915254" width="21" height="5.59322034" rx="1.5"></rect>
                        <rect id="Rectangle-Copy-5" fill="#FFFFFF" transform="translate(24.313559, 12.245763) rotate(90.000000) translate(-24.313559, -12.245763) " x="15.3135593" y="9.44915254" width="18" height="5.59322034" rx="1.5"></rect>
                        <rect id="Rectangle" fill="#FFFFFF" transform="translate(2.813559, 15.745763) rotate(90.000000) translate(-2.813559, -15.745763) " x="-3.18644068" y="12.9491525" width="12" height="5.59322034" rx="1.5"></rect>
                        <rect id="Rectangle" fill="#F7CF00" x="3" y="34.2881356" width="9.3220339" height="9.3220339"></rect>
                        <rect id="Rectangle" fill="#F7CF00" x="19.779661" y="24.9661017" width="9.3220339" height="18.6440678"></rect>
                        <rect id="Rectangle" fill="#F7CF00" x="36.559322" y="15.6440678" width="9.3220339" height="27.9661017"></rect>
                    </g>
                </g>
            </g>
        </g>
    </g>
</svg>