<svg width="181" height="191" viewBox="0 0 181 191" fill="none" xmlns="http://www.w3.org/2000/svg">
<path d="M90.1927 189.909C93.2527 189.909 96.2627 189.059 98.9227 187.439L160.893 149.779C166.433 146.409 169.863 140.079 169.863 133.239V58.5292C169.863 51.7092 166.433 45.3692 160.893 41.9892L98.9227 4.32924C93.5927 1.08924 86.7727 1.10924 81.4727 4.32924L19.5027 42.0092C13.9627 45.3792 10.5127 51.7092 10.5127 58.5492V133.249C10.5127 139.009 12.9627 144.429 17.0627 147.999V148.029L81.4727 187.459C84.1127 189.059 87.1327 189.909 90.1927 189.909ZM90.8427 8.85924C92.7927 8.85924 95.2727 10.0692 96.9827 11.1192L157.743 48.3092C161.493 50.5892 163.613 57.1892 163.613 61.9392L162.983 133.239C162.983 137.989 159.783 142.259 156.033 144.539L95.6327 180.919C92.2027 183.009 89.4127 183.009 85.9727 180.919L24.7627 144.449C21.0127 142.169 17.9927 137.969 17.9927 133.239V59.5992C17.9927 54.8592 20.7227 49.9692 24.4927 47.6792L85.0727 11.1192C86.7727 10.0792 88.8927 8.85924 90.8427 8.85924Z" fill="#F2F1F0"/>
<path fill-rule="evenodd" clip-rule="evenodd" d="M98.0927 12.4395C95.6427 10.9395 92.9227 10.1895 90.1927 10.1895C87.4627 10.1895 84.7427 10.9495 82.2927 12.4395L26.1627 46.7695C21.1427 49.8395 18.0327 55.5895 18.0327 61.8395V129.939C18.0327 136.169 21.1327 141.939 26.1627 145.009L82.2927 179.339C84.7427 180.839 87.4627 181.589 90.1927 181.589C92.9227 181.589 95.6427 180.849 98.0927 179.339L154.223 145.009C159.243 141.939 162.353 136.169 162.353 129.939V61.8395C162.353 55.6095 159.253 49.8595 154.223 46.7695L98.0927 12.4395Z" fill="url(#paint0_linear)"/>
<path fill-rule="evenodd" clip-rule="evenodd" d="M90.1927 11.6592C91.8727 11.6592 93.7627 12.5292 95.8227 13.7792L154.293 49.3192C157.943 51.5392 160.353 55.8092 160.353 60.6392V131.119C160.353 135.939 157.943 140.219 154.293 142.439L95.8327 177.979C93.8727 179.169 91.9527 179.919 90.2027 179.919C88.4527 179.919 86.5327 179.169 84.5727 177.979L26.0927 142.449C24.0827 141.219 22.6327 140.019 21.6527 138.409C20.6727 136.809 20.0327 134.589 20.0327 131.129V60.6492C20.0327 55.8192 22.4427 51.5492 26.0927 49.3292L84.5527 13.7892C86.6427 12.5392 88.5027 11.6592 90.1927 11.6592ZM97.9027 181.409L156.363 145.869C161.283 142.879 164.343 137.259 164.343 131.129V60.6492C164.343 54.5192 161.283 48.8992 156.363 45.9092L97.9027 10.3692C95.7927 9.08918 93.0827 7.65918 90.1927 7.65918C87.2927 7.65918 84.5827 9.09918 82.4927 10.3592H82.4827L24.0127 45.9092C19.0927 48.8992 16.0327 54.5192 16.0327 60.6492V131.129C16.0327 135.089 16.7727 138.079 18.2327 140.489C19.6927 142.889 21.7527 144.489 24.0127 145.859L82.4727 181.399C84.6927 182.749 87.3627 183.929 90.1827 183.929C93.0027 183.929 95.6827 182.759 97.9027 181.409Z" fill="#F3C900"/>
<path d="M144.503 73.7693C148.173 72.5493 152.133 74.5293 153.353 78.1993C154.573 81.8693 152.593 85.8293 148.923 87.0493C145.573 88.1693 141.983 86.6093 140.453 83.5493L129.023 87.3593L128.073 87.6793L127.443 85.7793L139.823 81.6593C139.213 78.2793 141.153 74.8893 144.503 73.7693ZM145.133 75.6693C142.703 76.4793 141.313 78.9693 141.813 81.4193L142.193 82.5593C143.253 84.8193 145.863 85.9693 148.293 85.1693C150.913 84.2993 152.333 81.4693 151.453 78.8493C150.583 76.2093 147.753 74.7993 145.133 75.6693Z" fill="url(#paint1_linear)"/>
<path d="M144.653 118.339C148.323 117.119 152.283 119.099 153.503 122.769C154.723 126.439 152.743 130.399 149.073 131.619C145.723 132.739 142.133 131.179 140.603 128.119L129.173 131.929L128.223 132.249L127.593 130.349L139.973 126.229C139.363 122.849 141.303 119.459 144.653 118.339ZM145.283 120.239C142.853 121.049 141.463 123.539 141.963 125.989L142.343 127.129C143.403 129.389 146.013 130.539 148.443 129.739C151.063 128.869 152.483 126.039 151.603 123.419C150.733 120.779 147.903 119.369 145.283 120.239Z" fill="url(#paint2_linear)"/>
<path d="M149.863 98.979C153.733 98.979 156.863 102.109 156.863 105.979C156.863 109.849 153.733 112.979 149.863 112.979C146.333 112.979 143.423 110.369 142.933 106.979H130.863V104.979H142.933C143.423 101.589 146.333 98.979 149.863 98.979ZM149.863 100.979C147.103 100.979 144.863 103.219 144.863 105.979C144.863 108.739 147.103 110.979 149.863 110.979C152.623 110.979 154.863 108.739 154.863 105.979C154.863 103.219 152.623 100.979 149.863 100.979Z" fill="url(#paint3_linear)"/>
<path d="M44.4526 112.289C45.0026 114.699 45.7526 117.039 46.6726 119.279" stroke="url(#paint4_linear)" stroke-width="3"/>
<path d="M46.1726 86.9492C44.6326 91.0392 43.6826 95.4192 43.4226 99.9792" stroke="url(#paint5_linear)" stroke-width="3"/>
<path d="M51.9226 128.149L52.1826 128.919C60.2126 139.579 72.9826 146.479 87.3526 146.479C111.653 146.479 131.353 126.779 131.353 102.479C131.353 78.179 111.653 58.479 87.3526 58.479" stroke="url(#paint6_linear)" stroke-width="3"/>
<path d="M44.6525 74.3391C48.3225 73.1191 52.2825 75.0991 53.5025 78.7691C54.7225 82.4391 52.7425 86.3991 49.0725 87.6191C45.7225 88.7391 42.1325 87.1791 40.6025 84.1191L29.1725 87.9291L28.2225 88.2491L27.5925 86.3491L39.9725 82.2291C39.3625 78.8491 41.3025 75.4591 44.6525 74.3391ZM45.2825 76.2391C42.8525 77.0491 41.4625 79.5391 41.9625 81.9891L42.3425 83.1291C43.4025 85.3891 46.0125 86.5391 48.4425 85.7391C51.0625 84.8691 52.4825 82.0391 51.6025 79.4191C50.7225 76.7991 47.9025 75.3691 45.2825 76.2391Z" fill="url(#paint7_linear)"/>
<path d="M44.6525 118.339C48.3225 117.119 52.2825 119.099 53.5025 122.769C54.7225 126.439 52.7425 130.399 49.0725 131.619C45.7225 132.739 42.1325 131.179 40.6025 128.119L29.1725 131.929L28.2225 132.249L27.5925 130.349L39.9725 126.229C39.3625 122.849 41.3025 119.459 44.6525 118.339ZM45.2825 120.239C42.8525 121.049 41.4625 123.539 41.9625 125.989L42.3425 127.129C43.4025 129.389 46.0125 130.539 48.4425 129.739C51.0625 128.869 52.4825 126.039 51.6025 123.419C50.7325 120.779 47.9025 119.369 45.2825 120.239Z" fill="url(#paint8_linear)"/>
<path d="M43.8625 98.979C47.7325 98.979 50.8625 102.109 50.8625 105.979C50.8625 109.849 47.7325 112.979 43.8625 112.979C40.3325 112.979 37.4226 110.369 36.9326 106.979H24.8625V104.979H36.9326C37.4226 101.589 40.3325 98.979 43.8625 98.979ZM43.8625 100.979C41.1025 100.979 38.8625 103.219 38.8625 105.979C38.8625 108.739 41.1025 110.979 43.8625 110.979C46.6225 110.979 48.8625 108.739 48.8625 105.979C48.8625 103.219 46.6225 100.979 43.8625 100.979Z" fill="url(#paint9_linear)"/>
<path d="M87.8625 79.479C112.993 79.479 133.363 71.419 133.363 61.479C133.363 51.539 112.993 43.479 87.8625 43.479C62.7325 43.479 42.3625 51.539 42.3625 61.479C42.3625 71.419 62.7325 79.479 87.8625 79.479Z" fill="#C9E3F2"/>
<path fill-rule="evenodd" clip-rule="evenodd" d="M87.3625 41.479C82.2425 41.479 37.3625 41.999 37.3625 60.229C37.3625 62.569 38.1226 64.619 39.4326 66.409L39.4525 66.479L74.8625 110.229V135.229C74.8625 138.679 80.4625 141.479 87.3625 141.479C94.2625 141.479 99.8625 138.679 99.8625 135.229V110.229L135.273 66.479L135.293 66.409C136.603 64.619 137.363 62.569 137.363 60.229C137.363 42.009 92.4825 41.479 87.3625 41.479ZM87.3625 72.729C63.2025 72.729 43.6125 67.129 43.6125 60.229C43.6125 53.329 63.2025 47.729 87.3625 47.729C111.523 47.729 131.113 53.329 131.113 60.229C131.113 67.129 111.523 72.729 87.3625 72.729Z" fill="url(#paint10_linear)"/>
<path d="M95.3227 104.889H86.7327V79.179C86.7327 78.259 87.4827 77.499 88.4127 77.499H95.3327C96.2527 77.499 97.0127 78.249 97.0127 79.179V103.209C96.9927 104.139 96.2427 104.889 95.3227 104.889Z" fill="url(#paint11_linear)"/>
<path d="M89.7526 104.889H80.9426V85.959C80.9426 85.149 81.6026 84.499 82.4026 84.499H89.7426C90.5526 84.499 91.2026 85.159 91.2026 85.959V103.429C91.2126 104.229 90.5626 104.889 89.7526 104.889Z" fill="url(#paint12_linear)"/>
<path d="M83.8026 104.889H77.3426C76.2926 104.889 75.4426 104.039 75.4426 102.989V93.109C75.4426 92.059 76.2926 91.209 77.3426 91.209H83.8126C84.8626 91.209 85.7126 92.059 85.7126 93.109V102.989C85.7026 104.039 84.8526 104.889 83.8026 104.889Z" fill="url(#paint13_linear)"/>
<path d="M87.1026 154.59C92.7126 154.59 97.2626 150.04 97.2626 144.43C97.2626 138.82 92.7126 134.27 87.1026 134.27C81.4926 134.27 76.9426 138.82 76.9426 144.43C76.9526 150.04 81.4926 154.59 87.1026 154.59Z" fill="#DAF0FE"/>
<path d="M89.5727 161.329C89.9327 161.329 90.2227 161.039 90.2227 160.679C90.2227 160.439 90.3527 158.979 90.9627 158.189C90.9627 158.189 90.9727 158.189 90.9627 158.189C92.0427 157.889 93.0527 157.459 94.0127 156.919C94.9227 156.779 95.5827 157.719 96.2927 158.149C96.4127 158.229 96.4927 158.269 96.5327 158.299C96.7627 158.379 97.0327 158.339 97.2127 158.149C97.2127 158.149 98.2427 157.429 98.9827 156.689C99.7227 155.949 100.543 154.829 100.543 154.829C100.793 154.579 100.793 154.159 100.543 153.909C100.383 153.739 99.4627 152.629 99.3127 151.619C99.3127 151.609 99.3127 151.609 99.3127 151.609C99.8427 150.679 100.273 149.629 100.573 148.579V148.569C101.123 147.829 102.253 148.019 103.063 147.829C103.423 147.829 103.713 147.539 103.713 147.179C103.713 147.179 103.933 145.939 103.933 144.889C103.933 143.839 103.713 142.469 103.713 142.469C103.713 142.109 103.423 141.819 103.063 141.819C102.823 141.819 101.363 141.689 100.573 141.079C100.283 140.039 99.8227 138.949 99.3027 138.029C99.1627 137.119 100.103 136.459 100.533 135.749C100.613 135.629 100.653 135.549 100.683 135.509C100.763 135.279 100.723 135.009 100.533 134.829C100.533 134.829 99.8127 133.799 99.0727 133.059C98.3327 132.319 97.2127 131.499 97.2127 131.499C96.9627 131.249 96.5427 131.249 96.2927 131.499C96.1327 131.659 94.9927 132.609 94.0127 132.729H94.0027C93.0827 132.219 91.9927 131.759 90.9527 131.469C90.9527 131.469 90.9727 131.479 90.9527 131.469C90.1827 130.839 90.4027 129.789 90.2127 128.979C90.2127 128.619 89.9227 128.329 89.5627 128.329C89.5627 128.329 88.3227 128.109 87.2727 128.109C86.2227 128.109 84.8527 128.329 84.8527 128.329C84.4927 128.329 84.2027 128.619 84.2027 128.979C84.2027 129.219 84.0727 130.679 83.4627 131.469C83.4727 131.489 83.4527 131.479 83.4527 131.479C82.4127 131.779 81.3627 132.209 80.4427 132.739C80.4327 132.729 80.4427 132.739 80.4127 132.739C79.4627 132.829 78.8427 131.939 78.1327 131.509C78.0127 131.429 77.9327 131.389 77.8927 131.359C77.6627 131.279 77.3927 131.319 77.2127 131.509C77.2127 131.509 76.1827 132.229 75.4427 132.969C74.7027 133.709 73.8827 134.829 73.8827 134.829C73.6327 135.079 73.6327 135.499 73.8827 135.749C74.0427 135.909 74.9927 137.049 75.1127 138.029C75.1127 138.029 75.1127 138.029 75.1027 138.039C74.5727 138.989 74.1527 139.969 73.8627 141.039C73.8627 141.049 73.8527 141.079 73.8527 141.079C73.3027 141.819 72.1727 141.629 71.3627 141.819C71.0027 141.859 70.7727 142.059 70.7127 142.469C70.7127 142.469 70.4927 143.709 70.4927 144.759C70.4927 145.809 70.7027 147.179 70.7027 147.179C70.7627 147.539 70.9927 147.829 71.3527 147.829C71.5927 147.829 73.0527 147.959 73.8427 148.569C73.8427 148.569 73.8627 148.599 73.8827 148.619C74.1927 149.709 74.5227 150.539 75.0827 151.509C75.1027 151.559 75.0927 151.509 75.1127 151.619C75.2527 152.529 74.3127 153.189 73.8827 153.899C73.8027 154.019 73.7627 154.099 73.7327 154.139C73.6527 154.369 73.6927 154.639 73.8827 154.819C73.8827 154.819 74.6027 155.849 75.3427 156.589C76.0827 157.329 77.2027 158.149 77.2027 158.149C77.4527 158.399 77.8727 158.399 78.1227 158.149C78.2827 157.989 79.4227 157.039 80.4027 156.919C80.5027 156.909 80.5227 156.919 80.5427 156.929C81.5127 157.479 82.2227 157.829 83.3227 158.129C83.3227 158.129 83.3627 158.119 83.4527 158.189C84.1927 158.739 84.0027 159.869 84.1927 160.679C84.1927 161.039 84.4827 161.329 84.8427 161.329C84.8427 161.329 86.0827 161.549 87.1327 161.549C88.1827 161.549 89.5727 161.329 89.5727 161.329ZM87.2427 151.669C83.4327 151.669 80.3427 148.579 80.3427 144.769C80.3427 140.959 83.4327 137.869 87.2427 137.869C91.0527 137.869 94.1427 140.959 94.1427 144.769C94.1427 148.579 91.0527 151.669 87.2427 151.669Z" fill="url(#paint14_linear)"/>
<defs>
<linearGradient id="paint0_linear" x1="76.6009" y1="5.22495" x2="121.388" y2="303.997" gradientUnits="userSpaceOnUse">
<stop stop-color="#D48E15"/>
<stop offset="1" stop-color="#996A20"/>
</linearGradient>
<linearGradient id="paint1_linear" x1="112.498" y1="84.3824" x2="174.099" y2="77.2296" gradientUnits="userSpaceOnUse">
<stop stop-color="white"/>
<stop offset="1" stop-color="#E6E1E1"/>
</linearGradient>
<linearGradient id="paint2_linear" x1="112.647" y1="128.947" x2="174.249" y2="121.799" gradientUnits="userSpaceOnUse">
<stop stop-color="white"/>
<stop offset="1" stop-color="#E6E1E1"/>
</linearGradient>
<linearGradient id="paint3_linear" x1="115.74" y1="106.083" x2="177.292" y2="105.919" gradientUnits="userSpaceOnUse">
<stop stop-color="white"/>
<stop offset="1" stop-color="#E6E1E1"/>
</linearGradient>
<linearGradient id="paint4_linear" x1="45.5316" y1="111.332" x2="45.5316" y2="119.726" gradientUnits="userSpaceOnUse">
<stop stop-color="white"/>
<stop offset="1" stop-color="#CBCBCB"/>
</linearGradient>
<linearGradient id="paint5_linear" x1="44.754" y1="85.3389" x2="44.754" y2="99.8428" gradientUnits="userSpaceOnUse">
<stop stop-color="white"/>
<stop offset="1" stop-color="#CBCBCB"/>
</linearGradient>
<linearGradient id="paint6_linear" x1="91.6809" y1="49.7376" x2="91.6809" y2="146.485" gradientUnits="userSpaceOnUse">
<stop stop-color="white"/>
<stop offset="1" stop-color="#CBCBCB"/>
</linearGradient>
<linearGradient id="paint7_linear" x1="12.6521" y1="84.9486" x2="74.2529" y2="77.7963" gradientUnits="userSpaceOnUse">
<stop stop-color="white"/>
<stop offset="1" stop-color="#E6E1E1"/>
</linearGradient>
<linearGradient id="paint8_linear" x1="12.6517" y1="128.946" x2="74.2533" y2="121.798" gradientUnits="userSpaceOnUse">
<stop stop-color="white"/>
<stop offset="1" stop-color="#E6E1E1"/>
</linearGradient>
<linearGradient id="paint9_linear" x1="9.74005" y1="106.083" x2="71.2921" y2="105.919" gradientUnits="userSpaceOnUse">
<stop stop-color="white"/>
<stop offset="1" stop-color="#E6E1E1"/>
</linearGradient>
<linearGradient id="paint10_linear" x1="87.3578" y1="141.476" x2="87.3578" y2="41.4759" gradientUnits="userSpaceOnUse">
<stop stop-color="#D2EBFF"/>
<stop offset="1" stop-color="#F0FFFD"/>
</linearGradient>
<linearGradient id="paint11_linear" x1="91.7457" y1="80.0106" x2="91.9642" y2="102.73" gradientUnits="userSpaceOnUse">
<stop offset="0.00753769" stop-color="#E0A310"/>
<stop offset="1" stop-color="#CA810E"/>
</linearGradient>
<linearGradient id="paint12_linear" x1="85.8033" y1="85.2908" x2="86.4586" y2="109.321" gradientUnits="userSpaceOnUse">
<stop offset="0.00753769" stop-color="#F2CC40"/>
<stop offset="1" stop-color="#E7B116"/>
</linearGradient>
<linearGradient id="paint13_linear" x1="80.3247" y1="92.2576" x2="80.98" y2="107.768" gradientUnits="userSpaceOnUse">
<stop stop-color="#F8E17B"/>
<stop offset="0.5302" stop-color="#F6D856"/>
<stop offset="1" stop-color="#F6D856"/>
</linearGradient>
<linearGradient id="paint14_linear" x1="87.2163" y1="128.098" x2="87.2163" y2="161.547" gradientUnits="userSpaceOnUse">
<stop stop-color="#005BA1"/>
<stop offset="0.26" stop-color="#00589D"/>
<stop offset="0.53" stop-color="#004F90"/>
<stop offset="0.8" stop-color="#003F7C"/>
<stop offset="1" stop-color="#003067"/>
</linearGradient>
</defs>
</svg>
