<?xml version="1.0" encoding="UTF-8"?>
<svg width="166px" height="190px" viewBox="0 0 166 190" version="1.1" xmlns="http://www.w3.org/2000/svg" xmlns:xlink="http://www.w3.org/1999/xlink">
    <!-- Generator: Sketch 63.1 (92452) - https://sketch.com -->
    <title>Data preparation in Power BI/Data-preparation-in-Power-BI</title>
    <desc>Created with Sketch.</desc>
    <defs>
        <path d="M100.206168,6.55621559 L158.148455,40.9384601 C164.220022,44.5412538 167.942286,51.0782575 167.942286,58.1382893 L167.942286,127.861711 C167.942286,134.921743 164.220022,141.458746 158.148455,145.06154 L100.206168,179.443784 C93.9142272,183.177345 86.0857728,183.177345 79.7938316,179.443784 L21.8515452,145.06154 C15.7799781,141.458746 12.0577137,134.921743 12.0577137,127.861711 L12.0577137,58.1382893 C12.0577137,51.0782575 15.7799781,44.5412538 21.8515452,40.9384601 L79.7938316,6.55621559 C86.0857728,2.82265458 93.9142272,2.82265458 100.206168,6.55621559 Z" id="path-1"></path>
        <linearGradient x1="50%" y1="0%" x2="50%" y2="100%" id="linearGradient-3">
            <stop stop-color="#D48E15" offset="0%"></stop>
            <stop stop-color="#996A20" offset="100%"></stop>
        </linearGradient>
        <path d="M88.2061684,3.05621559 L146.148455,37.4384601 C152.220022,41.0412538 155.942286,47.5782575 155.942286,54.6382893 L155.942286,124.361711 C155.942286,131.421743 152.220022,137.958746 146.148455,141.56154 L88.2061684,175.943784 C81.9142272,179.677345 74.0857728,179.677345 67.7938316,175.943784 L9.85154523,141.56154 C3.77997814,137.958746 0.0577136594,131.421743 0.0577136594,124.361711 L0.0577136594,54.6382893 C0.0577136594,47.5782575 3.77997814,41.0412538 9.85154523,37.4384601 L67.7938316,3.05621559 C74.0857728,-0.677345417 81.9142272,-0.677345417 88.2061684,3.05621559 Z M85.6546263,7.3561729 C81.0429194,4.61964239 75.3306135,4.55744852 70.6688793,7.16959128 L70.3453737,7.3561729 L12.4030873,41.7384174 C7.95060481,44.3804661 5.18265925,49.1264521 5.06183821,54.2858887 L5.05771366,54.6382893 L5.05771366,124.361711 C5.05771366,129.539067 7.72671515,134.341394 12.1021306,137.078203 L12.4030873,137.261583 L70.3453737,171.643827 C74.9570806,174.380358 80.6693865,174.442551 85.3311207,171.830409 L85.6546263,171.643827 L143.596913,137.261583 C148.049395,134.619534 150.817341,129.873548 150.938162,124.714111 L150.942286,124.361711 L150.942286,54.6382893 C150.942286,49.4609326 148.273285,44.6586065 143.897869,41.9217974 L143.596913,41.7384174 L85.6546263,7.3561729 Z" id="path-4"></path>
        <linearGradient x1="-58.1620066%" y1="56.7867036%" x2="178.577303%" y2="41.8642335%" id="linearGradient-6">
            <stop stop-color="#FFFFFF" offset="0%"></stop>
            <stop stop-color="#E6E1E1" offset="100%"></stop>
        </linearGradient>
        <linearGradient x1="-58.1620066%" y1="50.154321%" x2="178.577303%" y2="49.815003%" id="linearGradient-7">
            <stop stop-color="#FFFFFF" offset="0%"></stop>
            <stop stop-color="#E6E1E1" offset="100%"></stop>
        </linearGradient>
        <linearGradient x1="50%" y1="-9.93901477%" x2="50%" y2="100%" id="linearGradient-8">
            <stop stop-color="#FFFFFF" offset="0%"></stop>
            <stop stop-color="#CBCBCB" offset="100%"></stop>
        </linearGradient>
        <filter x="-12.0%" y="-12.0%" width="124.0%" height="124.0%" filterUnits="objectBoundingBox" id="filter-9">
            <feOffset dx="0" dy="2" in="SourceAlpha" result="shadowOffsetOuter1"></feOffset>
            <feGaussianBlur stdDeviation="2" in="shadowOffsetOuter1" result="shadowBlurOuter1"></feGaussianBlur>
            <feColorMatrix values="0 0 0 0 0   0 0 0 0 0   0 0 0 0 0  0 0 0 0.1 0" type="matrix" in="shadowBlurOuter1" result="shadowMatrixOuter1"></feColorMatrix>
            <feMerge>
                <feMergeNode in="shadowMatrixOuter1"></feMergeNode>
                <feMergeNode in="SourceGraphic"></feMergeNode>
            </feMerge>
        </filter>
        <linearGradient x1="50%" y1="100%" x2="50%" y2="0%" id="linearGradient-10">
            <stop stop-color="#D2EBFF" offset="0%"></stop>
            <stop stop-color="#F0FFFD" offset="100%"></stop>
        </linearGradient>
        <filter x="-21.4%" y="-21.4%" width="142.9%" height="142.9%" filterUnits="objectBoundingBox" id="filter-11">
            <feOffset dx="0" dy="2" in="SourceAlpha" result="shadowOffsetOuter1"></feOffset>
            <feGaussianBlur stdDeviation="2" in="shadowOffsetOuter1" result="shadowBlurOuter1"></feGaussianBlur>
            <feColorMatrix values="0 0 0 0 0   0 0 0 0 0   0 0 0 0 0  0 0 0 0.1 0" type="matrix" in="shadowBlurOuter1" result="shadowMatrixOuter1"></feColorMatrix>
            <feMerge>
                <feMergeNode in="shadowMatrixOuter1"></feMergeNode>
                <feMergeNode in="SourceGraphic"></feMergeNode>
            </feMerge>
        </filter>
        <linearGradient x1="50%" y1="0%" x2="50%" y2="100%" id="linearGradient-12">
            <stop stop-color="#1E5CA5" offset="0%"></stop>
            <stop stop-color="#225496" offset="100%"></stop>
        </linearGradient>
        <path d="M56,30.5349794 L56,24.0823045 L49.4049587,21.7777778 L47.785124,17.399177 L51.0247934,10.600823 L51.0247934,9.90946502 L48.9421488,7.83539095 L46.5123967,5.06995885 L45.5867769,5.06995885 L39.107438,8.52674897 L34.7107438,7.25925926 L31.8181818,0 L25.4545455,0 L23.2561983,6.56790123 L18.3966942,8.52674897 L10.8760331,4.95473251 L6.36363636,9.44855967 L6.36363636,10.255144 L9.71900826,16.7078189 L7.75206612,21.5473251 L0,24.4279835 L0,30.8806584 L0.925619835,30.8806584 L7.75206612,33.1851852 L9.60330579,37.563786 L6.1322314,45.0534979 L10.6446281,49.6625514 L11.5702479,49.6625514 L17.9338843,46.436214 L22.446281,48.2798354 L25.2231405,56 L31.7024793,56 L31.7024793,55.0781893 L33.9008264,48.1646091 L38.2975207,46.3209877 L45.9338843,49.8930041 L50.446281,45.399177 L50.446281,44.4773663 L47.2066116,38.0246914 L48.4793388,33.5308642 L56,30.5349794 Z M28.4640627,35.9992545 C23.6430997,35.4816167 20,31.6081578 20,27 C20,22.3918326 23.6430997,18.5183737 28.4640627,18.0007359 C30.981778,17.970075 33.4075058,18.8986165 35.1992497,20.5788901 C36.9909936,22.2591637 37.999422,24.5511284 37.9992151,26.9426751 L37.9992151,26.9426751 C38.0319777,29.3540343 37.0379083,31.6757352 35.2425691,33.3809656 C33.4472299,35.086196 31.0028443,36.0303727 28.4640627,35.9992545 Z" id="path-13"></path>
        <filter x="0.0%" y="0.0%" width="100.0%" height="100.0%" filterUnits="objectBoundingBox" id="filter-14">
            <feOffset dx="0" dy="0" in="SourceAlpha" result="shadowOffsetOuter1"></feOffset>
            <feColorMatrix values="0 0 0 0 0   0 0 0 0 0   0 0 0 0 0  0 0 0 0.1 0" type="matrix" in="shadowOffsetOuter1"></feColorMatrix>
        </filter>
    </defs>
    <g id="Badges" stroke="none" stroke-width="1" fill="none" fill-rule="evenodd">
        <g id="Data-preparation-in-Power-BI" transform="translate(-127.000000, -35.000000)">
            <g id="Data-preparation-in-Power-BI/Data-preparation-in-Power-BI" transform="translate(148.000000, 73.000000)">
                <g id="Trophy-Plates/Hex" transform="translate(12.000000, 7.000000)">
                    <g id="BG" transform="translate(-40.000000, -43.000000)">
                        <mask id="mask-2" fill="white">
                            <use xlink:href="#path-1"></use>
                        </mask>
                        <path stroke="#FFFFFF" stroke-width="5" d="M101.481939,4.40623694 C97.9427226,2.30610887 93.9713613,1.25604484 90,1.25604484 C86.0286387,1.25604484 82.0572774,2.30610887 78.5180605,4.40623694 L20.5757742,38.7884814 C13.7452612,42.8416243 9.55771366,50.1957535 9.55771366,58.1382893 L9.55771366,127.861711 C9.55771366,135.804246 13.7452612,143.158376 20.5757742,147.211519 L78.5180605,181.593763 C82.0572774,183.693891 86.0286387,184.743955 90,184.743955 C93.9713613,184.743955 97.9427226,183.693891 101.481939,181.593763 L159.424226,147.211519 C166.254739,143.158376 170.442286,135.804246 170.442286,127.861711 L170.442286,58.1382893 C170.442286,50.1957535 166.254739,42.8416243 159.424226,38.7884814 L101.481939,4.40623694 Z"></path>
                        <g id="Colors/Power-BI/BG-Gradient-2" mask="url(#mask-2)" fill="url(#linearGradient-3)">
                            <g transform="translate(0.000000, 0.500000)" id="Rectangle">
                                <rect x="0" y="0" width="180" height="185"></rect>
                            </g>
                        </g>
                    </g>
                    <g id="Border" transform="translate(-28.000000, -39.500000)">
                        <mask id="mask-5" fill="white">
                            <use xlink:href="#path-4"></use>
                        </mask>
                        <use fill="#000000" fill-rule="nonzero" xlink:href="#path-4"></use>
                        <g id="Colors/Power-BI/Border" mask="url(#mask-5)" fill="#F3C900">
                            <g transform="translate(-12.000000, -3.000000)" id="Rectangle">
                                <rect x="0" y="0" width="180" height="185"></rect>
                            </g>
                        </g>
                    </g>
                </g>
                <path id="Line" d="M119.286406,32.8592169 C122.954009,31.6366825 126.918249,33.6188024 128.140783,37.2864056 C129.363317,40.9540089 127.381198,44.9182487 123.713594,46.1407831 C120.368019,47.2559748 116.775612,45.7045653 115.242599,42.6396679 L103.816228,46.4486833 L102.867544,46.7649111 L102.235089,44.8675445 L114.610263,40.7426216 C113.997783,37.3709238 115.940858,33.9743993 119.286406,32.8592169 Z M119.918861,34.7565835 C117.491372,35.5657466 116.097601,38.0564172 116.600901,40.501892 L116.979457,41.6376717 C118.04402,43.896212 120.653551,45.0526123 123.081139,44.2434165 C125.700855,43.3701776 127.116655,40.5385778 126.243416,37.9188612 C125.370178,35.2991446 122.538578,33.8833446 119.918861,34.7565835 Z" fill="url(#linearGradient-6)" fill-rule="nonzero"></path>
                <path id="Line" d="M119.286406,76.8592169 C122.954009,75.6366825 126.918249,77.6188024 128.140783,81.2864056 C129.363317,84.9540089 127.381198,88.9182487 123.713594,90.1407831 C120.368019,91.2559748 116.775612,89.7045653 115.242599,86.6396679 L103.816228,90.4486833 L102.867544,90.7649111 L102.235089,88.8675445 L114.610263,84.7426216 C113.997783,81.3709238 115.940858,77.9743993 119.286406,76.8592169 Z M119.918861,78.7565835 C117.491372,79.5657466 116.097601,82.0564172 116.600901,84.501892 L116.979457,85.6376717 C118.04402,87.896212 120.653551,89.0526123 123.081139,88.2434165 C125.700855,87.3701776 127.116655,84.5385778 126.243416,81.9188612 C125.370178,79.2991446 122.538578,77.8833446 119.918861,78.7565835 Z" fill="url(#linearGradient-6)" fill-rule="nonzero"></path>
                <path id="Line" d="M19.2864056,32.8592169 C22.9540089,31.6366825 26.9182487,33.6188024 28.1407831,37.2864056 C29.3633175,40.9540089 27.3811976,44.9182487 23.7135944,46.1407831 C20.3680192,47.2559748 16.775612,45.7045653 15.2425993,42.6396679 L3.81622777,46.4486833 L2.86754447,46.7649111 L2.23508894,44.8675445 L14.6102634,40.7426216 C13.9977829,37.3709238 15.9408584,33.9743993 19.2864056,32.8592169 Z M19.9188612,34.7565835 C17.4913718,35.5657466 16.0976014,38.0564172 16.6009015,40.501892 L16.9794569,41.6376717 C18.0440199,43.896212 20.6535514,45.0526123 23.0811388,44.2434165 C25.7008554,43.3701776 27.1166554,40.5385778 26.2434165,37.9188612 C25.3701776,35.2991446 22.5385778,33.8833446 19.9188612,34.7565835 Z" fill="url(#linearGradient-6)" fill-rule="nonzero"></path>
                <path id="Line" d="M19.2864056,76.8592169 C22.9540089,75.6366825 26.9182487,77.6188024 28.1407831,81.2864056 C29.3633175,84.9540089 27.3811976,88.9182487 23.7135944,90.1407831 C20.3680192,91.2559748 16.775612,89.7045653 15.2425993,86.6396679 L3.81622777,90.4486833 L2.86754447,90.7649111 L2.23508894,88.8675445 L14.6102634,84.7426216 C13.9977829,81.3709238 15.9408584,77.9743993 19.2864056,76.8592169 Z M19.9188612,78.7565835 C17.4913718,79.5657466 16.0976014,82.0564172 16.6009015,84.501892 L16.9794569,85.6376717 C18.0440199,87.896212 20.6535514,89.0526123 23.0811388,88.2434165 C25.7008554,87.3701776 27.1166554,84.5385778 26.2434165,81.9188612 C25.3701776,79.2991446 22.5385778,77.8833446 19.9188612,78.7565835 Z" fill="url(#linearGradient-6)" fill-rule="nonzero"></path>
                <path id="Line" d="M125.5,57.5 C129.365993,57.5 132.5,60.6340068 132.5,64.5 C132.5,68.3659932 129.365993,71.5 125.5,71.5 C121.973878,71.5 119.056698,68.8928118 118.571033,65.5010101 L106.5,65.5 L106.5,63.5 L118.57089,63.4999918 C119.056123,60.1077016 121.973531,57.5 125.5,57.5 Z M125.5,59.5 C122.738576,59.5 120.5,61.7385763 120.5,64.5 C120.5,67.2614237 122.738576,69.5 125.5,69.5 C128.261424,69.5 130.5,67.2614237 130.5,64.5 C130.5,61.7385763 128.261424,59.5 125.5,59.5 Z" fill="url(#linearGradient-7)" fill-rule="nonzero"></path>
                <path id="Line" d="M18.5,57.5 C22.3659932,57.5 25.5,60.6340068 25.5,64.5 C25.5,68.3659932 22.3659932,71.5 18.5,71.5 C14.9738781,71.5 12.0566976,68.8928118 11.5710334,65.5010101 L-0.5,65.5 L-0.5,63.5 L11.57089,63.4999918 C12.0561232,60.1077016 14.9735309,57.5 18.5,57.5 Z M18.5,59.5 C15.7385763,59.5 13.5,61.7385763 13.5,64.5 C13.5,67.2614237 15.7385763,69.5 18.5,69.5 C21.2614237,69.5 23.5,67.2614237 23.5,64.5 C23.5,61.7385763 21.2614237,59.5 18.5,59.5 Z" fill="url(#linearGradient-7)" fill-rule="nonzero"></path>
                <circle id="Oval" stroke="url(#linearGradient-8)" stroke-width="3" cx="62" cy="61" r="44"></circle>
                <g id="Group" filter="url(#filter-9)" transform="translate(12.000000, 0.000000)">
                    <ellipse id="Oval" fill="#C9E3F2" cx="50.5" cy="20" rx="45.5" ry="18"></ellipse>
                    <path d="M50,-2.84217094e-14 C44.8828,-2.84217094e-14 -2.40163445e-12,0.52344 -2.40163445e-12,18.75 C-2.40163445e-12,21.0938 0.76172,23.1367 2.0703,24.9297 L2.093738,25 L37.49974,68.75001 L37.49974,93.750012 C37.49974,97.199212 43.09744,100.000012 49.99974,100.000012 C56.90204,100.000012 62.49974,97.199212 62.49974,93.750012 L62.49974,68.75001 L97.90573,25 L97.92917,24.9297 C99.23777,23.1367 99.99947,21.0938 99.99947,18.75 C99.99947,0.523 55.11647,-2.84217094e-14 49.99947,-2.84217094e-14 L50,-2.84217094e-14 Z M50,31.25 C25.836,31.25 6.25,25.6523 6.25,18.75 C6.25,11.8477 25.836,6.25 50,6.25 C74.164,6.25 93.75,11.8477 93.75,18.75 C93.75,25.6523 74.164,31.25 50,31.25 Z" id="Fill-1" fill="url(#linearGradient-10)"></path>
                </g>
                <g id="Gear" filter="url(#filter-11)" transform="translate(34.000000, 72.000000)">
                    <g fill-rule="nonzero" id="Shape">
                        <g>
                            <use fill="black" fill-opacity="1" filter="url(#filter-14)" xlink:href="#path-13"></use>
                            <use fill="url(#linearGradient-12)" xlink:href="#path-13"></use>
                        </g>
                    </g>
                    <circle id="Oval" fill="#DAF0FE" cx="28.9032258" cy="27.5483871" r="9.48387097"></circle>
                </g>
                <g id="powerbi_icon" transform="translate(48.000000, 40.000000)" fill="#B37A1B" fill-rule="nonzero">
                    <path d="M23.916,17.222 L23.369,17.222 L23.369,16.15 L23.916,16.15 C25.077,16.148 26.019,15.225 26.02,14.087 L26.02,3.135 C26.019,1.996 25.077,1.073 23.916,1.072 L3.198,1.072 C2.036,1.073 1.095,1.996 1.093,3.135 L1.093,14.088 C1.095,15.226 2.036,16.149 3.198,16.151 L3.745,16.151 L3.745,17.223 L3.198,17.223 C1.432,17.22 0.002,15.818 0,14.088 L0,3.135 C0.002,1.405 1.433,0.002 3.198,0 L23.916,0 C25.681,0.002 27.112,1.405 27.114,3.135 L27.114,14.088 C27.112,15.818 25.681,17.221 23.916,17.223" id="Shape"></path>
                    <path d="M6.556,13.633 C6.95,13.633 7.327,13.786 7.606,14.059 C7.884,14.331 8.04,14.701 8.04,15.087 L8.04,18.442 C8.04,19.246 7.376,19.897 6.556,19.897 C6.162,19.897 5.785,19.744 5.506,19.471 C5.22880276,19.2003467 5.0723559,18.8294163 5.072,18.442 L5.072,15.088 C5.072,14.284 5.736,13.633 6.556,13.633 L6.556,13.633 Z" id="Shape"></path>
                    <path d="M11.224,19.897 C10.404,19.897 9.739,19.246 9.739,18.442 L9.739,9.832 C9.739,9.027 10.404,8.376 11.224,8.376 C12.044,8.376 12.708,9.027 12.708,9.831 L12.708,18.442 C12.708,19.246 12.043,19.897 11.224,19.898" id="Shape"></path>
                    <path d="M20.558,19.855 C19.738,19.855 19.074,19.203 19.073,18.4 L19.073,6.205 C19.073,5.402 19.738,4.75 20.558,4.75 C21.378,4.75 22.042,5.402 22.042,6.205 L22.042,18.4 C22.042,19.203 21.378,19.855 20.558,19.855" id="Shape"></path>
                    <path d="M15.89,19.897 C15.071,19.897 14.407,19.246 14.406,18.442 L14.406,12.045 C14.406,11.242 15.071,10.59 15.891,10.59 C16.711,10.59 17.375,11.242 17.375,12.045 L17.375,18.442 C17.375,19.246 16.71,19.897 15.891,19.898" id="Shape"></path>
                </g>
            </g>
        </g>
    </g>
</svg>