<svg width="102" height="102" viewBox="0 0 102 102" fill="none" xmlns="http://www.w3.org/2000/svg">
<path d="M50.9995 97.7705C44.8523 97.7705 38.7652 96.5597 33.0859 94.2073C27.4067 91.8549 22.2461 88.4068 17.8994 84.0601C13.5527 79.7133 10.1049 74.5533 7.75244 68.874C5.40002 63.1948 4.18945 57.1076 4.18945 50.9604C4.18945 44.8133 5.40002 38.7264 7.75244 33.0471C10.1049 27.3679 13.5527 22.2076 17.8994 17.8608C22.2461 13.5141 27.4067 10.066 33.0859 7.71362C38.7652 5.3612 44.8523 4.15039 50.9995 4.15039C63.4143 4.15039 75.3205 9.08226 84.0991 17.8608C92.8777 26.6394 97.8091 38.5457 97.8091 50.9604C97.8091 63.3752 92.8777 75.2815 84.0991 84.0601C75.3205 92.8386 63.4143 97.7705 50.9995 97.7705V97.7705Z" fill="url(#paint0_linear)"/>
<path fill-rule="evenodd" clip-rule="evenodd" d="M96.8994 51.0002C96.8994 63.1737 92.0635 74.8486 83.4556 83.4565C74.8476 92.0645 63.1729 96.9001 50.9995 96.9001C38.8261 96.9001 27.1509 92.0645 18.543 83.4565C9.93505 74.8486 5.09912 63.1737 5.09912 51.0002C5.09912 38.8268 9.93505 27.1519 18.543 18.5439C27.1509 9.93603 38.8261 5.10034 50.9995 5.10034C63.1729 5.10034 74.8476 9.93603 83.4556 18.5439C92.0635 27.1519 96.8994 38.8268 96.8994 51.0002V51.0002ZM50.9995 1.36035C57.5187 1.35904 63.9739 2.64205 69.9971 5.13623C76.0203 7.63041 81.4933 11.2867 86.103 15.8965C90.7128 20.5062 94.3691 25.979 96.8633 32.0022C99.3575 38.0254 100.64 44.4811 100.639 51.0002C100.639 64.1656 95.4094 76.7918 86.1001 86.1011C76.7908 95.4104 64.1649 100.64 50.9995 100.64C37.8342 100.64 25.2077 95.4104 15.8984 86.1011C6.58913 76.7918 1.35938 64.1656 1.35938 51.0002C1.35806 44.4811 2.64108 38.0254 5.13525 32.0022C7.62943 25.979 11.2857 20.5062 15.8955 15.8965C20.5053 11.2867 25.9783 7.63041 32.0015 5.13623C38.0247 2.64205 44.4803 1.35904 50.9995 1.36035V1.36035Z" fill="#F2F1F0"/>
<path fill-rule="evenodd" clip-rule="evenodd" d="M94.0898 51C94.0898 62.4282 89.5502 73.3883 81.4692 81.4692C73.3883 89.5502 62.4282 94.0901 51 94.0901C39.5718 94.0901 28.6117 89.5502 20.5308 81.4692C12.4498 73.3883 7.90967 62.4282 7.90967 51C7.90967 39.5718 12.4498 28.6117 20.5308 20.5308C28.6117 12.4498 39.5718 7.90991 51 7.90991C62.4282 7.90991 73.3883 12.4498 81.4692 20.5308C89.5502 28.6117 94.0898 39.5718 94.0898 51ZM51 4.16992C63.4201 4.16992 75.3314 9.1039 84.1138 17.8862C92.8961 26.6686 97.8296 38.5799 97.8296 51C97.8296 63.4201 92.8961 75.3314 84.1138 84.1138C75.3314 92.8961 63.4201 97.8301 51 97.8301C38.5799 97.8301 26.6686 92.8961 17.8862 84.1138C9.1039 75.3314 4.16992 63.4201 4.16992 51C4.16992 38.5799 9.1039 26.6686 17.8862 17.8862C26.6686 9.1039 38.5799 4.16992 51 4.16992Z" fill="url(#paint1_linear)"/>
<path opacity="0.15" d="M82.1401 29.7698V72.7698C82.1401 73.3718 81.9013 73.9493 81.4756 74.375C81.0499 74.8007 80.4722 75.0398 79.8701 75.0398H18.7603C18.1607 75.0372 17.5865 74.7985 17.1616 74.3755C16.7368 73.9525 16.4955 73.3793 16.4902 72.7798V29.7798C16.4902 29.1777 16.7296 28.6003 17.1553 28.1746C17.581 27.7489 18.1582 27.5098 18.7603 27.5098H79.8901C80.4862 27.5176 81.0555 27.7585 81.4761 28.1809C81.8966 28.6033 82.135 29.1737 82.1401 29.7698Z" fill="#1F1D20"/>
<path d="M82.1401 29.0903V72.0903C82.1401 72.6924 81.9013 73.2696 81.4756 73.6953C81.0499 74.121 80.4722 74.3604 79.8701 74.3604H18.7603C18.1582 74.3604 17.581 74.121 17.1553 73.6953C16.7296 73.2696 16.4902 72.6924 16.4902 72.0903V29.0903C16.4902 28.4883 16.7296 27.9108 17.1553 27.4851C17.581 27.0594 18.1582 26.8203 18.7603 26.8203H79.8901C80.1869 26.8216 80.4807 26.8813 80.7544 26.9961C81.0281 27.1109 81.2764 27.2785 81.4854 27.4893C81.6943 27.7 81.8598 27.9499 81.9722 28.2246C82.0845 28.4993 82.1415 28.7935 82.1401 29.0903V29.0903Z" fill="white"/>
<path opacity="0.15" d="M50.4206 51.3102H47.5104V38.0502C47.5118 38.0105 47.505 37.9708 47.4904 37.9338C47.4758 37.8967 47.4536 37.863 47.4255 37.8349C47.3973 37.8068 47.3639 37.7848 47.3268 37.7702C47.2898 37.7556 47.2504 37.7488 47.2106 37.7502H41.3805C41.3408 37.7488 41.3009 37.7556 41.2638 37.7702C41.2268 37.7848 41.1934 37.8068 41.1652 37.8349C41.1371 37.863 41.1149 37.8967 41.1003 37.9338C41.0857 37.9708 41.0789 38.0105 41.0803 38.0502C41.0789 38.09 41.0857 38.1297 41.1003 38.1667C41.1149 38.2037 41.1371 38.2374 41.1652 38.2656C41.1934 38.2937 41.2268 38.3157 41.2638 38.3303C41.3009 38.3448 41.3408 38.3517 41.3805 38.3503H46.9103V63.2602H41.3703C41.3305 63.2588 41.2911 63.2656 41.2541 63.2802C41.2171 63.2948 41.1836 63.3168 41.1555 63.3449C41.1273 63.373 41.1051 63.4068 41.0905 63.4438C41.0759 63.4808 41.0691 63.5205 41.0705 63.5602C41.0691 63.6 41.0759 63.6397 41.0905 63.6767C41.1051 63.7137 41.1273 63.7472 41.1555 63.7753C41.1836 63.8035 41.2171 63.8257 41.2541 63.8403C41.2911 63.8548 41.3305 63.8617 41.3703 63.8603H47.2106C47.2504 63.8617 47.2898 63.8548 47.3268 63.8403C47.3639 63.8257 47.3973 63.8035 47.4255 63.7753C47.4536 63.7472 47.4758 63.7137 47.4904 63.6767C47.505 63.6397 47.5118 63.6 47.5104 63.5602V51.9101H50.4206V51.3102Z" fill="#1F1D20"/>
<path d="M50.4206 50.9203H47.5104V37.6603C47.5118 37.6206 47.505 37.5812 47.4904 37.5441C47.4758 37.5071 47.4536 37.4734 47.4255 37.4452C47.3973 37.4171 47.3639 37.3951 47.3268 37.3805C47.2898 37.366 47.2504 37.3591 47.2106 37.3605H41.3805C41.3408 37.3591 41.3009 37.366 41.2638 37.3805C41.2268 37.3951 41.1934 37.4171 41.1652 37.4452C41.1371 37.4734 41.1149 37.5071 41.1003 37.5441C41.0857 37.5812 41.0789 37.6206 41.0803 37.6603C41.0789 37.7001 41.0857 37.7398 41.1003 37.7768C41.1149 37.8138 41.1371 37.8475 41.1652 37.8757C41.1934 37.9038 41.2268 37.9258 41.2638 37.9404C41.3009 37.9549 41.3408 37.9618 41.3805 37.9604H46.9103V62.8705H41.3703C41.3305 62.8691 41.2911 62.8757 41.2541 62.8903C41.2171 62.9049 41.1836 62.9271 41.1555 62.9553C41.1273 62.9834 41.1051 63.0169 41.0905 63.0539C41.0759 63.0909 41.0691 63.1306 41.0705 63.1703C41.0691 63.2101 41.0759 63.2498 41.0905 63.2868C41.1051 63.3238 41.1273 63.3575 41.1555 63.3857C41.1836 63.4138 41.2171 63.4358 41.2541 63.4504C41.2911 63.465 41.3305 63.4718 41.3703 63.4704H47.2106C47.2504 63.4718 47.2898 63.465 47.3268 63.4504C47.3639 63.4358 47.3973 63.4138 47.4255 63.3857C47.4536 63.3575 47.4758 63.3238 47.4904 63.2868C47.505 63.2498 47.5118 63.2101 47.5104 63.1703V51.5204H50.4206V50.9203Z" fill="#74CFEB"/>
<g opacity="0.15">
<path opacity="0.15" d="M62.4004 59.991C62.4004 59.8825 62.3787 59.775 62.3369 59.6749C62.2951 59.5747 62.2339 59.4841 62.1567 59.4078C62.0795 59.3315 61.9879 59.2711 61.8872 59.2305C61.7866 59.1899 61.6788 59.1696 61.5703 59.171C61.3519 59.1709 61.1422 59.2572 60.9868 59.4107C60.8314 59.5642 60.7429 59.7726 60.7402 59.991C60.7402 60.0996 60.7619 60.207 60.8037 60.3072C60.8455 60.4073 60.9067 60.4982 60.9839 60.5745C61.0611 60.6508 61.1528 60.7109 61.2534 60.7515C61.3541 60.7921 61.4618 60.8124 61.5703 60.8111C61.7887 60.8111 61.9984 60.7251 62.1538 60.5716C62.3092 60.4181 62.3978 60.2094 62.4004 59.991V59.991Z" fill="#1F1D20"/>
<path opacity="0.15" d="M66.04 59.991C66.04 59.8825 66.0184 59.775 65.9766 59.6749C65.9347 59.5747 65.8731 59.4841 65.7959 59.4078C65.7187 59.3315 65.6275 59.2711 65.5269 59.2305C65.4262 59.1899 65.3185 59.1696 65.21 59.171C64.9916 59.1709 64.7818 59.2572 64.6265 59.4107C64.4711 59.5642 64.3825 59.7726 64.3799 59.991C64.3799 60.0996 64.4015 60.207 64.4434 60.3072C64.4852 60.4073 64.5463 60.4982 64.6235 60.5745C64.7007 60.6508 64.7924 60.7109 64.8931 60.7515C64.9937 60.7921 65.1014 60.8124 65.21 60.8111C65.4284 60.8111 65.6376 60.7251 65.793 60.5716C65.9483 60.4181 66.0374 60.2094 66.04 59.991V59.991Z" fill="#1F1D20"/>
<path opacity="0.15" d="M54.8594 59.991C54.8594 59.8825 54.8377 59.775 54.7959 59.6749C54.7541 59.5747 54.6929 59.4841 54.6157 59.4078C54.5385 59.3315 54.4468 59.2711 54.3462 59.2305C54.2455 59.1899 54.1378 59.1696 54.0293 59.171C53.8109 59.1709 53.6012 59.2572 53.4458 59.4107C53.2904 59.5642 53.2019 59.7726 53.1992 59.991C53.1992 60.0996 53.2209 60.207 53.2627 60.3072C53.3045 60.4073 53.3657 60.4982 53.4429 60.5745C53.5201 60.6508 53.6118 60.7109 53.7124 60.7515C53.813 60.7921 53.9208 60.8124 54.0293 60.8111C54.2477 60.8111 54.4574 60.7251 54.6128 60.5716C54.7682 60.4181 54.8567 60.2094 54.8594 59.991V59.991Z" fill="#1F1D20"/>
<path opacity="0.15" d="M58.7598 59.991C58.7598 59.8825 58.7381 59.775 58.6963 59.6749C58.6545 59.5747 58.5933 59.4841 58.5161 59.4078C58.4389 59.3315 58.3472 59.2711 58.2466 59.2305C58.1459 59.1899 58.0382 59.1696 57.9297 59.171C57.7113 59.1709 57.5016 59.2572 57.3462 59.4107C57.1908 59.5642 57.1022 59.7726 57.0996 59.991C57.0996 60.0996 57.1213 60.207 57.1631 60.3072C57.2049 60.4073 57.2661 60.4982 57.3433 60.5745C57.4205 60.6508 57.5121 60.7109 57.6128 60.7515C57.7134 60.7921 57.8212 60.8124 57.9297 60.8111C58.1481 60.8111 58.3578 60.7251 58.5132 60.5716C58.6686 60.4181 58.7571 60.2094 58.7598 59.991V59.991Z" fill="#1F1D20"/>
<path opacity="0.15" d="M69.3901 59.991C69.3901 59.8825 69.369 59.775 69.3271 59.6749C69.2853 59.5747 69.2237 59.4841 69.1465 59.4078C69.0693 59.3315 68.9776 59.2711 68.877 59.2305C68.7763 59.1899 68.6686 59.1696 68.5601 59.171C68.3417 59.1709 68.1324 59.2572 67.9771 59.4107C67.8217 59.5642 67.7331 59.7726 67.7305 59.991C67.7305 60.0996 67.7516 60.207 67.7935 60.3072C67.8353 60.4073 67.8969 60.4982 67.9741 60.5745C68.0513 60.6508 68.143 60.7109 68.2437 60.7515C68.3443 60.7921 68.4515 60.8124 68.5601 60.8111C68.7785 60.8111 68.9882 60.7251 69.1436 60.5716C69.2989 60.4181 69.3875 60.2094 69.3901 59.991V59.991Z" fill="#1F1D20"/>
<path opacity="0.15" d="M71.9102 59.991C71.9101 60.0996 71.9318 60.207 71.9736 60.3072C72.0155 60.4073 72.0766 60.4982 72.1538 60.5745C72.231 60.6508 72.3227 60.7109 72.4233 60.7515C72.524 60.7921 72.6317 60.8124 72.7402 60.8111C72.9586 60.8111 73.1684 60.7251 73.3237 60.5716C73.4791 60.4181 73.5677 60.2094 73.5703 59.991C73.5703 59.8825 73.5487 59.775 73.5068 59.6749C73.465 59.5747 73.4039 59.4841 73.3267 59.4078C73.2495 59.3315 73.1578 59.2711 73.0571 59.2305C72.9565 59.1899 72.8488 59.1696 72.7402 59.171C72.5218 59.1709 72.3121 59.2572 72.1567 59.4107C72.0014 59.5642 71.9128 59.7726 71.9102 59.991V59.991Z" fill="#1F1D20"/>
<path opacity="0.15" d="M62.4004 56.3709C62.4004 56.2624 62.3787 56.1549 62.3369 56.0547C62.2951 55.9546 62.2339 55.8637 62.1567 55.7874C62.0795 55.7111 61.9879 55.651 61.8872 55.6104C61.7866 55.5698 61.6788 55.5495 61.5703 55.5508C61.3519 55.5508 61.1422 55.6368 60.9868 55.7903C60.8314 55.9438 60.7429 56.1525 60.7402 56.3709C60.7402 56.4794 60.7619 56.5867 60.8037 56.6868C60.8455 56.787 60.9067 56.8779 60.9839 56.9542C61.0611 57.0304 61.1528 57.0908 61.2534 57.1314C61.3541 57.172 61.4618 57.1921 61.5703 57.1907C61.6788 57.1921 61.7866 57.172 61.8872 57.1314C61.9879 57.0908 62.0795 57.0304 62.1567 56.9542C62.2339 56.8779 62.2951 56.787 62.3369 56.6868C62.3787 56.5867 62.4004 56.4794 62.4004 56.3709V56.3709Z" fill="#1F1D20"/>
<path opacity="0.15" d="M66.2998 56.3709C66.2998 56.2624 66.2782 56.1549 66.2363 56.0547C66.1945 55.9546 66.1334 55.8637 66.0562 55.7874C65.9789 55.7111 65.8873 55.651 65.7866 55.6104C65.686 55.5698 65.5782 55.5495 65.4697 55.5508C65.2513 55.5508 65.0416 55.6368 64.8862 55.7903C64.7309 55.9438 64.6423 56.1525 64.6396 56.3709C64.6396 56.4794 64.6613 56.5867 64.7031 56.6868C64.745 56.787 64.8061 56.8779 64.8833 56.9542C64.9605 57.0304 65.0522 57.0908 65.1528 57.1314C65.2535 57.172 65.3612 57.1921 65.4697 57.1907C65.5782 57.1921 65.686 57.172 65.7866 57.1314C65.8873 57.0908 65.9789 57.0304 66.0562 56.9542C66.1334 56.8779 66.1945 56.787 66.2363 56.6868C66.2782 56.5867 66.2998 56.4794 66.2998 56.3709V56.3709Z" fill="#1F1D20"/>
<path opacity="0.15" d="M54.8594 56.3709C54.8594 56.2624 54.8377 56.1549 54.7959 56.0547C54.7541 55.9546 54.6929 55.8637 54.6157 55.7874C54.5385 55.7111 54.4468 55.651 54.3462 55.6104C54.2455 55.5698 54.1378 55.5495 54.0293 55.5508C53.8109 55.5508 53.6012 55.6368 53.4458 55.7903C53.2904 55.9438 53.2019 56.1525 53.1992 56.3709C53.1992 56.4794 53.2209 56.5867 53.2627 56.6868C53.3045 56.787 53.3657 56.8779 53.4429 56.9542C53.5201 57.0304 53.6118 57.0908 53.7124 57.1314C53.813 57.172 53.9208 57.1921 54.0293 57.1907C54.1378 57.1921 54.2455 57.172 54.3462 57.1314C54.4468 57.0908 54.5385 57.0304 54.6157 56.9542C54.6929 56.8779 54.7541 56.787 54.7959 56.6868C54.8377 56.5867 54.8594 56.4794 54.8594 56.3709V56.3709Z" fill="#1F1D20"/>
<path opacity="0.15" d="M58.7598 56.3709C58.7598 56.2624 58.7381 56.1549 58.6963 56.0547C58.6545 55.9546 58.5933 55.8637 58.5161 55.7874C58.4389 55.7111 58.3472 55.651 58.2466 55.6104C58.1459 55.5698 58.0382 55.5495 57.9297 55.5508C57.7113 55.5508 57.5016 55.6368 57.3462 55.7903C57.1908 55.9438 57.1022 56.1525 57.0996 56.3709C57.0996 56.4794 57.1213 56.5867 57.1631 56.6868C57.2049 56.787 57.2661 56.8779 57.3433 56.9542C57.4205 57.0304 57.5121 57.0908 57.6128 57.1314C57.7134 57.172 57.8212 57.1921 57.9297 57.1907C58.0382 57.1921 58.1459 57.172 58.2466 57.1314C58.3472 57.0908 58.4389 57.0304 58.5161 56.9542C58.5933 56.8779 58.6545 56.787 58.6963 56.6868C58.7381 56.5867 58.7598 56.4794 58.7598 56.3709V56.3709Z" fill="#1F1D20"/>
<path opacity="0.15" d="M69.6504 56.3709C69.6504 56.2624 69.6287 56.1549 69.5869 56.0547C69.5451 55.9546 69.4839 55.8637 69.4067 55.7874C69.3295 55.7111 69.2379 55.651 69.1372 55.6104C69.0366 55.5698 68.9288 55.5495 68.8203 55.5508C68.6019 55.5508 68.3922 55.6368 68.2368 55.7903C68.0814 55.9438 67.9929 56.1525 67.9902 56.3709C67.9902 56.4794 68.0119 56.5867 68.0537 56.6868C68.0955 56.787 68.1567 56.8779 68.2339 56.9542C68.3111 57.0304 68.4028 57.0908 68.5034 57.1314C68.6041 57.172 68.7118 57.1921 68.8203 57.1907C68.9288 57.1921 69.0366 57.172 69.1372 57.1314C69.2379 57.0908 69.3295 57.0304 69.4067 56.9542C69.4839 56.8779 69.5451 56.787 69.5869 56.6868C69.6287 56.5867 69.6504 56.4794 69.6504 56.3709V56.3709Z" fill="#1F1D20"/>
<path opacity="0.15" d="M73.5498 56.3709C73.5498 56.2624 73.5282 56.1549 73.4863 56.0547C73.4445 55.9546 73.3834 55.8637 73.3062 55.7874C73.2289 55.7111 73.1373 55.651 73.0366 55.6104C72.936 55.5698 72.8282 55.5495 72.7197 55.5508C72.5013 55.5508 72.2916 55.6368 72.1362 55.7903C71.9809 55.9438 71.8923 56.1525 71.8896 56.3709C71.8896 56.4794 71.9113 56.5867 71.9531 56.6868C71.995 56.787 72.0561 56.8779 72.1333 56.9542C72.2105 57.0304 72.3022 57.0908 72.4028 57.1314C72.5035 57.172 72.6112 57.1921 72.7197 57.1907C72.8282 57.1921 72.936 57.172 73.0366 57.1314C73.1373 57.0908 73.2289 57.0304 73.3062 56.9542C73.3834 56.8779 73.4445 56.787 73.4863 56.6868C73.5282 56.5867 73.5498 56.4794 73.5498 56.3709V56.3709Z" fill="#1F1D20"/>
<path opacity="0.15" d="M62.4004 52.7713C62.4004 52.6628 62.3787 52.5553 62.3369 52.4551C62.2951 52.355 62.2339 52.2641 62.1567 52.1878C62.0795 52.1115 61.9879 52.0514 61.8872 52.0108C61.7866 51.9702 61.6788 51.9499 61.5703 51.9512C61.3519 51.9512 61.1422 52.0372 60.9868 52.1907C60.8314 52.3442 60.7429 52.5529 60.7402 52.7713C60.7402 52.8798 60.7619 52.9873 60.8037 53.0875C60.8455 53.1876 60.9067 53.2785 60.9839 53.3548C61.0611 53.4311 61.1528 53.4912 61.2534 53.5318C61.3541 53.5724 61.4618 53.5927 61.5703 53.5914C61.7879 53.5888 61.9961 53.5019 62.1509 53.3489C62.3057 53.196 62.3952 52.9889 62.4004 52.7713V52.7713Z" fill="#1F1D20"/>
<path opacity="0.15" d="M65.4697 53.5914C65.6881 53.5914 65.8979 53.5054 66.0532 53.3519C66.2086 53.1984 66.2972 52.9897 66.2998 52.7713C66.2998 52.6628 66.2782 52.5553 66.2363 52.4551C66.1945 52.355 66.1334 52.2641 66.0562 52.1878C65.9789 52.1115 65.8873 52.0514 65.7866 52.0108C65.686 51.9702 65.5782 51.9499 65.4697 51.9512C65.2513 51.9512 65.0416 52.0372 64.8862 52.1907C64.7309 52.3442 64.6423 52.5529 64.6396 52.7713C64.6423 52.9897 64.7309 53.1984 64.8862 53.3519C65.0416 53.5054 65.2513 53.5914 65.4697 53.5914V53.5914Z" fill="#1F1D20"/>
<path opacity="0.15" d="M54.8594 52.7713C54.8594 52.6628 54.8377 52.5553 54.7959 52.4551C54.7541 52.355 54.6929 52.2641 54.6157 52.1878C54.5385 52.1115 54.4468 52.0514 54.3462 52.0108C54.2455 51.9702 54.1378 51.9499 54.0293 51.9512C53.8109 51.9512 53.6012 52.0372 53.4458 52.1907C53.2904 52.3442 53.2019 52.5529 53.1992 52.7713C53.1992 52.8798 53.2209 52.9873 53.2627 53.0875C53.3045 53.1876 53.3657 53.2785 53.4429 53.3548C53.5201 53.4311 53.6118 53.4912 53.7124 53.5318C53.813 53.5724 53.9208 53.5927 54.0293 53.5914C54.2469 53.5888 54.455 53.5019 54.6099 53.3489C54.7647 53.196 54.8542 52.9889 54.8594 52.7713V52.7713Z" fill="#1F1D20"/>
<path opacity="0.15" d="M57.9395 53.5914C58.1579 53.5914 58.3676 53.5054 58.5229 53.3519C58.6783 53.1984 58.7669 52.9897 58.7695 52.7713C58.7695 52.6628 58.7479 52.5553 58.7061 52.4551C58.6642 52.355 58.6026 52.2641 58.5254 52.1878C58.4482 52.1115 58.357 52.0514 58.2563 52.0108C58.1557 51.9702 58.048 51.9499 57.9395 51.9512C57.721 51.9512 57.5113 52.0372 57.356 52.1907C57.2006 52.3442 57.112 52.5529 57.1094 52.7713C57.112 52.9897 57.2006 53.1984 57.356 53.3519C57.5113 53.5054 57.721 53.5914 57.9395 53.5914V53.5914Z" fill="#1F1D20"/>
<path opacity="0.15" d="M69.6504 52.7713C69.6504 52.6628 69.6287 52.5553 69.5869 52.4551C69.5451 52.355 69.4839 52.2641 69.4067 52.1878C69.3295 52.1115 69.2379 52.0514 69.1372 52.0108C69.0366 51.9702 68.9288 51.9499 68.8203 51.9512C68.6019 51.9512 68.3922 52.0372 68.2368 52.1907C68.0814 52.3442 67.9929 52.5529 67.9902 52.7713C67.9902 52.8798 68.0119 52.9873 68.0537 53.0875C68.0955 53.1876 68.1567 53.2785 68.2339 53.3548C68.3111 53.4311 68.4028 53.4912 68.5034 53.5318C68.6041 53.5724 68.7118 53.5927 68.8203 53.5914C69.0387 53.5914 69.2484 53.5054 69.4038 53.3519C69.5592 53.1984 69.6478 52.9897 69.6504 52.7713V52.7713Z" fill="#1F1D20"/>
<path opacity="0.15" d="M72.7305 53.5914C72.9489 53.5914 73.1581 53.5054 73.3135 53.3519C73.4688 53.1984 73.5574 52.9897 73.5601 52.7713C73.5601 52.6628 73.5389 52.5553 73.4971 52.4551C73.4552 52.355 73.3936 52.2641 73.3164 52.1878C73.2392 52.1115 73.148 52.0514 73.0474 52.0108C72.9467 51.9702 72.839 51.9499 72.7305 51.9512C72.5121 51.9512 72.3023 52.0372 72.147 52.1907C71.9916 52.3442 71.903 52.5529 71.9004 52.7713C71.9056 52.9889 71.9951 53.196 72.1499 53.3489C72.3047 53.5019 72.5128 53.5888 72.7305 53.5914V53.5914Z" fill="#1F1D20"/>
<path opacity="0.15" d="M62.4004 49.1509C62.4004 49.0424 62.3787 48.9352 62.3369 48.835C62.2951 48.7349 62.2339 48.644 62.1567 48.5677C62.0795 48.4914 61.9879 48.4313 61.8872 48.3907C61.7866 48.3501 61.6788 48.3298 61.5703 48.3311C61.3519 48.3311 61.1422 48.4171 60.9868 48.5706C60.8314 48.7241 60.7429 48.9325 60.7402 49.1509C60.7429 49.3693 60.8314 49.578 60.9868 49.7315C61.1422 49.885 61.3519 49.971 61.5703 49.971C61.7887 49.971 61.9984 49.885 62.1538 49.7315C62.3092 49.578 62.3978 49.3693 62.4004 49.1509V49.1509Z" fill="#1F1D20"/>
<path opacity="0.15" d="M66.2998 49.1509C66.2998 49.0424 66.2782 48.9352 66.2363 48.835C66.1945 48.7349 66.1334 48.644 66.0562 48.5677C65.9789 48.4914 65.8873 48.4313 65.7866 48.3907C65.686 48.3501 65.5782 48.3298 65.4697 48.3311C65.2513 48.3311 65.0416 48.4171 64.8862 48.5706C64.7309 48.7241 64.6423 48.9325 64.6396 49.1509C64.6423 49.3693 64.7309 49.578 64.8862 49.7315C65.0416 49.885 65.2513 49.971 65.4697 49.971C65.6881 49.971 65.8979 49.885 66.0532 49.7315C66.2086 49.578 66.2972 49.3693 66.2998 49.1509V49.1509Z" fill="#1F1D20"/>
<path opacity="0.15" d="M54.8594 49.1509C54.8594 49.0424 54.8377 48.9352 54.7959 48.835C54.7541 48.7349 54.6929 48.644 54.6157 48.5677C54.5385 48.4914 54.4468 48.4313 54.3462 48.3907C54.2455 48.3501 54.1378 48.3298 54.0293 48.3311C53.8109 48.3311 53.6012 48.4171 53.4458 48.5706C53.2904 48.7241 53.2019 48.9325 53.1992 49.1509C53.2019 49.3693 53.2904 49.578 53.4458 49.7315C53.6012 49.885 53.8109 49.971 54.0293 49.971C54.2477 49.971 54.4574 49.885 54.6128 49.7315C54.7682 49.578 54.8567 49.3693 54.8594 49.1509V49.1509Z" fill="#1F1D20"/>
<path opacity="0.15" d="M58.7598 49.1509C58.7598 49.0424 58.7381 48.9352 58.6963 48.835C58.6545 48.7349 58.5933 48.644 58.5161 48.5677C58.4389 48.4914 58.3472 48.4313 58.2466 48.3907C58.1459 48.3501 58.0382 48.3298 57.9297 48.3311C57.7113 48.3311 57.5016 48.4171 57.3462 48.5706C57.1908 48.7241 57.1022 48.9325 57.0996 49.1509C57.1022 49.3693 57.1908 49.578 57.3462 49.7315C57.5016 49.885 57.7113 49.971 57.9297 49.971C58.1481 49.971 58.3578 49.885 58.5132 49.7315C58.6686 49.578 58.7571 49.3693 58.7598 49.1509V49.1509Z" fill="#1F1D20"/>
<path opacity="0.15" d="M69.6504 49.1509C69.6504 49.0424 69.6287 48.9352 69.5869 48.835C69.5451 48.7349 69.4839 48.644 69.4067 48.5677C69.3295 48.4914 69.2379 48.4313 69.1372 48.3907C69.0366 48.3501 68.9288 48.3298 68.8203 48.3311C68.6019 48.3311 68.3922 48.4171 68.2368 48.5706C68.0814 48.7241 67.9929 48.9325 67.9902 49.1509C67.9929 49.3693 68.0814 49.578 68.2368 49.7315C68.3922 49.885 68.6019 49.971 68.8203 49.971C69.0387 49.971 69.2484 49.885 69.4038 49.7315C69.5592 49.578 69.6478 49.3693 69.6504 49.1509V49.1509Z" fill="#1F1D20"/>
<path opacity="0.15" d="M73.5498 49.1509C73.5498 49.0424 73.5282 48.9352 73.4863 48.835C73.4445 48.7349 73.3834 48.644 73.3062 48.5677C73.2289 48.4914 73.1373 48.4313 73.0366 48.3907C72.936 48.3501 72.8282 48.3298 72.7197 48.3311C72.5013 48.3311 72.2916 48.4171 72.1362 48.5706C71.9809 48.7241 71.8923 48.9325 71.8896 49.1509C71.8923 49.3693 71.9809 49.578 72.1362 49.7315C72.2916 49.885 72.5013 49.971 72.7197 49.971C72.9381 49.971 73.1479 49.885 73.3032 49.7315C73.4586 49.578 73.5472 49.3693 73.5498 49.1509V49.1509Z" fill="#1F1D20"/>
<path opacity="0.15" d="M62.4004 45.5408C62.4004 45.4323 62.3787 45.3248 62.3369 45.2247C62.2951 45.1245 62.2339 45.0336 62.1567 44.9573C62.0795 44.8811 61.9879 44.821 61.8872 44.7803C61.7866 44.7397 61.6788 44.7194 61.5703 44.7208C61.3519 44.7207 61.1422 44.8068 60.9868 44.9603C60.8314 45.1138 60.7429 45.3224 60.7402 45.5408C60.7402 45.6494 60.7619 45.7569 60.8037 45.857C60.8455 45.9571 60.9067 46.0478 60.9839 46.1241C61.0611 46.2004 61.1528 46.2607 61.2534 46.3013C61.3541 46.3419 61.4618 46.3622 61.5703 46.3609C61.7887 46.3609 61.9984 46.2747 62.1538 46.1212C62.3092 45.9677 62.3978 45.7592 62.4004 45.5408V45.5408Z" fill="#1F1D20"/>
<path opacity="0.15" d="M66.2998 45.5408C66.2998 45.4323 66.2782 45.3248 66.2363 45.2247C66.1945 45.1245 66.1334 45.0336 66.0562 44.9573C65.9789 44.8811 65.8873 44.821 65.7866 44.7803C65.686 44.7397 65.5782 44.7194 65.4697 44.7208C65.2513 44.7207 65.0416 44.8068 64.8862 44.9603C64.7309 45.1138 64.6423 45.3224 64.6396 45.5408C64.6396 45.6494 64.6613 45.7569 64.7031 45.857C64.745 45.9571 64.8061 46.0478 64.8833 46.1241C64.9605 46.2004 65.0522 46.2607 65.1528 46.3013C65.2535 46.3419 65.3612 46.3622 65.4697 46.3609C65.6881 46.3609 65.8979 46.2747 66.0532 46.1212C66.2086 45.9677 66.2972 45.7592 66.2998 45.5408V45.5408Z" fill="#1F1D20"/>
<path opacity="0.15" d="M54.8594 45.5408C54.8594 45.4323 54.8377 45.3248 54.7959 45.2247C54.7541 45.1245 54.6929 45.0336 54.6157 44.9573C54.5385 44.8811 54.4468 44.821 54.3462 44.7803C54.2455 44.7397 54.1378 44.7194 54.0293 44.7208C53.8109 44.7207 53.6012 44.8068 53.4458 44.9603C53.2904 45.1138 53.2019 45.3224 53.1992 45.5408C53.1992 45.6494 53.2209 45.7569 53.2627 45.857C53.3045 45.9571 53.3657 46.0478 53.4429 46.1241C53.5201 46.2004 53.6118 46.2607 53.7124 46.3013C53.813 46.3419 53.9208 46.3622 54.0293 46.3609C54.2477 46.3609 54.4574 46.2747 54.6128 46.1212C54.7682 45.9677 54.8567 45.7592 54.8594 45.5408V45.5408Z" fill="#1F1D20"/>
<path opacity="0.15" d="M58.7598 45.5408C58.7598 45.4323 58.7381 45.3248 58.6963 45.2247C58.6545 45.1245 58.5933 45.0336 58.5161 44.9573C58.4389 44.8811 58.3472 44.821 58.2466 44.7803C58.1459 44.7397 58.0382 44.7194 57.9297 44.7208C57.7113 44.7207 57.5016 44.8068 57.3462 44.9603C57.1908 45.1138 57.1022 45.3224 57.0996 45.5408C57.0996 45.6494 57.1213 45.7569 57.1631 45.857C57.2049 45.9571 57.2661 46.0478 57.3433 46.1241C57.4205 46.2004 57.5121 46.2607 57.6128 46.3013C57.7134 46.3419 57.8212 46.3622 57.9297 46.3609C58.1481 46.3609 58.3578 46.2747 58.5132 46.1212C58.6686 45.9677 58.7571 45.7592 58.7598 45.5408V45.5408Z" fill="#1F1D20"/>
<path opacity="0.15" d="M69.6504 45.5408C69.6504 45.4323 69.6287 45.3248 69.5869 45.2247C69.5451 45.1245 69.4839 45.0336 69.4067 44.9573C69.3295 44.8811 69.2379 44.821 69.1372 44.7803C69.0366 44.7397 68.9288 44.7194 68.8203 44.7208C68.6019 44.7207 68.3922 44.8068 68.2368 44.9603C68.0814 45.1138 67.9929 45.3224 67.9902 45.5408C67.9902 45.6494 68.0119 45.7569 68.0537 45.857C68.0955 45.9571 68.1567 46.0478 68.2339 46.1241C68.3111 46.2004 68.4028 46.2607 68.5034 46.3013C68.6041 46.3419 68.7118 46.3622 68.8203 46.3609C69.0387 46.3609 69.2484 46.2747 69.4038 46.1212C69.5592 45.9677 69.6478 45.7592 69.6504 45.5408V45.5408Z" fill="#1F1D20"/>
<path opacity="0.15" d="M73.5498 45.5408C73.5498 45.4323 73.5282 45.3248 73.4863 45.2247C73.4445 45.1245 73.3834 45.0336 73.3062 44.9573C73.2289 44.8811 73.1373 44.821 73.0366 44.7803C72.936 44.7397 72.8282 44.7194 72.7197 44.7208C72.5013 44.7207 72.2916 44.8068 72.1362 44.9603C71.9809 45.1138 71.8923 45.3224 71.8896 45.5408C71.8896 45.6494 71.9113 45.7569 71.9531 45.857C71.995 45.9571 72.0561 46.0478 72.1333 46.1241C72.2105 46.2004 72.3022 46.2607 72.4028 46.3013C72.5035 46.3419 72.6112 46.3622 72.7197 46.3609C72.9381 46.3609 73.1479 46.2747 73.3032 46.1212C73.4586 45.9677 73.5472 45.7592 73.5498 45.5408V45.5408Z" fill="#1F1D20"/>
<path opacity="0.15" d="M62.4004 41.9312C62.4004 41.8227 62.3787 41.7154 62.3369 41.6153C62.2951 41.5152 62.2339 41.4242 62.1567 41.348C62.0795 41.2717 61.9879 41.2113 61.8872 41.1707C61.7866 41.1301 61.6788 41.1101 61.5703 41.1114C61.3519 41.1114 61.1422 41.1974 60.9868 41.3509C60.8314 41.5044 60.7429 41.7128 60.7402 41.9312C60.7429 42.1496 60.8314 42.3583 60.9868 42.5118C61.1422 42.6653 61.3519 42.7513 61.5703 42.7513C61.7887 42.7513 61.9984 42.6653 62.1538 42.5118C62.3092 42.3583 62.3978 42.1496 62.4004 41.9312V41.9312Z" fill="#1F1D20"/>
<path opacity="0.15" d="M66.2998 41.9312C66.2998 41.8227 66.2782 41.7154 66.2363 41.6153C66.1945 41.5152 66.1334 41.4242 66.0562 41.348C65.9789 41.2717 65.8873 41.2113 65.7866 41.1707C65.686 41.1301 65.5782 41.1101 65.4697 41.1114C65.2513 41.1114 65.0416 41.1974 64.8862 41.3509C64.7309 41.5044 64.6423 41.7128 64.6396 41.9312C64.6423 42.1496 64.7309 42.3583 64.8862 42.5118C65.0416 42.6653 65.2513 42.7513 65.4697 42.7513C65.6881 42.7513 65.8979 42.6653 66.0532 42.5118C66.2086 42.3583 66.2972 42.1496 66.2998 41.9312V41.9312Z" fill="#1F1D20"/>
<path opacity="0.15" d="M54.8594 41.9312C54.8594 41.8227 54.8377 41.7154 54.7959 41.6153C54.7541 41.5152 54.6929 41.4242 54.6157 41.348C54.5385 41.2717 54.4468 41.2113 54.3462 41.1707C54.2455 41.1301 54.1378 41.1101 54.0293 41.1114C53.8109 41.1114 53.6012 41.1974 53.4458 41.3509C53.2904 41.5044 53.2019 41.7128 53.1992 41.9312C53.2019 42.1496 53.2904 42.3583 53.4458 42.5118C53.6012 42.6653 53.8109 42.7513 54.0293 42.7513C54.2477 42.7513 54.4574 42.6653 54.6128 42.5118C54.7682 42.3583 54.8567 42.1496 54.8594 41.9312V41.9312Z" fill="#1F1D20"/>
<path opacity="0.15" d="M58.7598 41.9312C58.7598 41.8227 58.7381 41.7154 58.6963 41.6153C58.6545 41.5152 58.5933 41.4242 58.5161 41.348C58.4389 41.2717 58.3472 41.2113 58.2466 41.1707C58.1459 41.1301 58.0382 41.1101 57.9297 41.1114C57.7113 41.1114 57.5016 41.1974 57.3462 41.3509C57.1908 41.5044 57.1022 41.7128 57.0996 41.9312C57.1022 42.1496 57.1908 42.3583 57.3462 42.5118C57.5016 42.6653 57.7113 42.7513 57.9297 42.7513C58.1481 42.7513 58.3578 42.6653 58.5132 42.5118C58.6686 42.3583 58.7571 42.1496 58.7598 41.9312V41.9312Z" fill="#1F1D20"/>
<path opacity="0.15" d="M69.6504 41.9312C69.6504 41.8227 69.6287 41.7154 69.5869 41.6153C69.5451 41.5152 69.4839 41.4242 69.4067 41.348C69.3295 41.2717 69.2379 41.2113 69.1372 41.1707C69.0366 41.1301 68.9288 41.1101 68.8203 41.1114C68.6019 41.1114 68.3922 41.1974 68.2368 41.3509C68.0814 41.5044 67.9929 41.7128 67.9902 41.9312C67.9929 42.1496 68.0814 42.3583 68.2368 42.5118C68.3922 42.6653 68.6019 42.7513 68.8203 42.7513C69.0387 42.7513 69.2484 42.6653 69.4038 42.5118C69.5592 42.3583 69.6478 42.1496 69.6504 41.9312V41.9312Z" fill="#1F1D20"/>
<path opacity="0.15" d="M73.5498 41.9312C73.5498 41.8227 73.5282 41.7154 73.4863 41.6153C73.4445 41.5152 73.3834 41.4242 73.3062 41.348C73.2289 41.2717 73.1373 41.2113 73.0366 41.1707C72.936 41.1301 72.8282 41.1101 72.7197 41.1114C72.5013 41.1114 72.2916 41.1974 72.1362 41.3509C71.9809 41.5044 71.8923 41.7128 71.8896 41.9312C71.8923 42.1496 71.9809 42.3583 72.1362 42.5118C72.2916 42.6653 72.5013 42.7513 72.7197 42.7513C72.9381 42.7513 73.1479 42.6653 73.3032 42.5118C73.4586 42.3583 73.5472 42.1496 73.5498 41.9312V41.9312Z" fill="#1F1D20"/>
<g opacity="0.15">
<path opacity="0.15" d="M77.1403 63.9506H72.7805C72.7407 63.952 72.7013 63.9452 72.6642 63.9306C72.6272 63.916 72.5933 63.894 72.5651 63.8659C72.537 63.8378 72.5152 63.8041 72.5007 63.767C72.4861 63.73 72.4792 63.6903 72.4806 63.6506C72.4792 63.6108 72.4861 63.5714 72.5007 63.5344C72.5152 63.4973 72.537 63.4636 72.5651 63.4355C72.5933 63.4073 72.6272 63.3854 72.6642 63.3708C72.7013 63.3562 72.7407 63.3494 72.7805 63.3508H76.8405V38.4907H72.7805C72.7407 38.4921 72.7013 38.4852 72.6642 38.4706C72.6272 38.4561 72.5933 38.4341 72.5651 38.4059C72.537 38.3778 72.5152 38.3441 72.5007 38.3071C72.4861 38.27 72.4792 38.2304 72.4806 38.1906C72.4792 38.1508 72.4861 38.1112 72.5007 38.0742C72.5152 38.0371 72.537 38.0037 72.5651 37.9755C72.5933 37.9474 72.6272 37.9252 72.6642 37.9106C72.7013 37.896 72.7407 37.8894 72.7805 37.8908H77.1403C77.1801 37.8894 77.22 37.896 77.257 37.9106C77.294 37.9252 77.3275 37.9474 77.3556 37.9755C77.3838 38.0037 77.406 38.0371 77.4206 38.0742C77.4352 38.1112 77.442 38.1508 77.4406 38.1906V63.6506C77.4406 63.69 77.4327 63.7292 77.4177 63.7656C77.4026 63.802 77.3806 63.8349 77.3527 63.8627C77.3249 63.8906 77.2915 63.9128 77.2551 63.9279C77.2187 63.943 77.1797 63.9506 77.1403 63.9506V63.9506Z" fill="#1F1D20"/>
</g>
<g opacity="0.15">
<path opacity="0.15" d="M54.6901 63.9506H50.3C50.2602 63.952 50.2208 63.9452 50.1838 63.9306C50.1467 63.916 50.1128 63.894 50.0847 63.8659C50.0565 63.8378 50.0348 63.8041 50.0202 63.767C50.0056 63.73 49.9988 63.6903 50.0002 63.6506V38.1906C49.9988 38.1508 50.0056 38.1112 50.0202 38.0742C50.0348 38.0371 50.0565 38.0037 50.0847 37.9755C50.1128 37.9474 50.1467 37.9252 50.1838 37.9106C50.2208 37.896 50.2602 37.8894 50.3 37.8908H54.6598C54.6996 37.8894 54.7395 37.896 54.7765 37.9106C54.8136 37.9252 54.847 37.9474 54.8752 37.9755C54.9033 38.0037 54.9255 38.0371 54.9401 38.0742C54.9547 38.1112 54.9615 38.1508 54.9601 38.1906C54.9615 38.2304 54.9547 38.27 54.9401 38.3071C54.9255 38.3441 54.9033 38.3778 54.8752 38.4059C54.847 38.4341 54.8136 38.4561 54.7765 38.4706C54.7395 38.4852 54.6996 38.4921 54.6598 38.4907H50.5998V63.3508H54.6598C54.6996 63.3494 54.7395 63.3562 54.7765 63.3708C54.8136 63.3854 54.847 63.4073 54.8752 63.4355C54.9033 63.4636 54.9255 63.4973 54.9401 63.5344C54.9547 63.5714 54.9615 63.6108 54.9601 63.6506C54.9605 63.7252 54.9329 63.7975 54.883 63.853C54.8331 63.9084 54.7644 63.9432 54.6901 63.9506V63.9506Z" fill="#1F1D20"/>
</g>
</g>
<path d="M62.4004 59.5203C62.4004 59.4118 62.3787 59.3043 62.3369 59.2042C62.2951 59.104 62.2339 59.0131 62.1567 58.9368C62.0795 58.8606 61.9879 58.8004 61.8872 58.7598C61.7866 58.7192 61.6788 58.6989 61.5703 58.7003C61.3519 58.7002 61.1422 58.7863 60.9868 58.9398C60.8314 59.0933 60.7429 59.3019 60.7402 59.5203C60.7429 59.7387 60.8314 59.9474 60.9868 60.1009C61.1422 60.2544 61.3519 60.3404 61.5703 60.3404C61.7887 60.3404 61.9984 60.2544 62.1538 60.1009C62.3092 59.9474 62.3978 59.7387 62.4004 59.5203V59.5203Z" fill="url(#paint2_linear)"/>
<path d="M66.041 59.5203C66.041 59.4118 66.0194 59.3043 65.9775 59.2042C65.9357 59.104 65.8741 59.0131 65.7969 58.9368C65.7197 58.8606 65.6285 58.8004 65.5278 58.7598C65.4272 58.7192 65.3195 58.6989 65.2109 58.7003C64.9925 58.7002 64.7828 58.7863 64.6274 58.9398C64.4721 59.0933 64.3835 59.3019 64.3809 59.5203C64.3835 59.7387 64.4721 59.9474 64.6274 60.1009C64.7828 60.2544 64.9925 60.3404 65.2109 60.3404C65.4293 60.3404 65.6386 60.2544 65.7939 60.1009C65.9493 59.9474 66.0384 59.7387 66.041 59.5203V59.5203Z" fill="url(#paint3_linear)"/>
<path d="M54.8604 59.5203C54.8604 59.4118 54.8387 59.3043 54.7969 59.2042C54.755 59.104 54.6939 59.0131 54.6167 58.9368C54.5395 58.8606 54.4478 58.8004 54.3472 58.7598C54.2465 58.7192 54.1388 58.6989 54.0303 58.7003C53.8119 58.7002 53.6021 58.7863 53.4468 58.9398C53.2914 59.0933 53.2028 59.3019 53.2002 59.5203C53.2028 59.7387 53.2914 59.9474 53.4468 60.1009C53.6021 60.2544 53.8119 60.3404 54.0303 60.3404C54.2487 60.3404 54.4584 60.2544 54.6138 60.1009C54.7691 59.9474 54.8577 59.7387 54.8604 59.5203V59.5203Z" fill="#44C7F0"/>
<path d="M58.7598 59.5203C58.7598 59.4118 58.7381 59.3043 58.6963 59.2042C58.6545 59.104 58.5933 59.0131 58.5161 58.9368C58.4389 58.8606 58.3472 58.8004 58.2466 58.7598C58.1459 58.7192 58.0382 58.6989 57.9297 58.7003C57.7113 58.7002 57.5016 58.7863 57.3462 58.9398C57.1908 59.0933 57.1022 59.3019 57.0996 59.5203C57.1022 59.7387 57.1908 59.9474 57.3462 60.1009C57.5016 60.2544 57.7113 60.3404 57.9297 60.3404C58.1481 60.3404 58.3578 60.2544 58.5132 60.1009C58.6686 59.9474 58.7571 59.7387 58.7598 59.5203V59.5203Z" fill="#44C7F0"/>
<path d="M69.3901 59.5203C69.3901 59.4118 69.369 59.3043 69.3271 59.2042C69.2853 59.104 69.2237 59.0131 69.1465 58.9368C69.0693 58.8606 68.9776 58.8004 68.877 58.7598C68.7763 58.7192 68.6686 58.6989 68.5601 58.7003C68.3417 58.7002 68.1324 58.7863 67.9771 58.9398C67.8217 59.0933 67.7331 59.3019 67.7305 59.5203C67.7331 59.7387 67.8217 59.9474 67.9771 60.1009C68.1324 60.2544 68.3417 60.3404 68.5601 60.3404C68.7785 60.3404 68.9882 60.2544 69.1436 60.1009C69.2989 59.9474 69.3875 59.7387 69.3901 59.5203V59.5203Z" fill="url(#paint4_linear)"/>
<path d="M71.9102 59.5203C71.9101 59.6288 71.9318 59.7363 71.9736 59.8364C72.0155 59.9366 72.0766 60.0275 72.1538 60.1038C72.231 60.18 72.3227 60.2401 72.4233 60.2808C72.524 60.3214 72.6317 60.3417 72.7402 60.3403C72.9586 60.3403 73.1684 60.2543 73.3237 60.1008C73.4791 59.9473 73.5677 59.7387 73.5703 59.5203C73.5677 59.3019 73.4791 59.0932 73.3237 58.9397C73.1684 58.7862 72.9586 58.7002 72.7402 58.7002C72.5218 58.7002 72.3121 58.7862 72.1567 58.9397C72.0014 59.0932 71.9128 59.3019 71.9102 59.5203V59.5203Z" fill="url(#paint5_linear)"/>
<path d="M62.4004 55.9097C62.4004 55.8012 62.3787 55.694 62.3369 55.5938C62.2951 55.4937 62.2339 55.4028 62.1567 55.3265C62.0795 55.2502 61.9879 55.1901 61.8872 55.1495C61.7866 55.1089 61.6788 55.0886 61.5703 55.0899C61.3519 55.0899 61.1422 55.1759 60.9868 55.3294C60.8314 55.4829 60.7429 55.6913 60.7402 55.9097C60.7402 56.0183 60.7619 56.1257 60.8037 56.2259C60.8455 56.326 60.9067 56.4169 60.9839 56.4932C61.0611 56.5695 61.1528 56.6296 61.2534 56.6702C61.3541 56.7108 61.4618 56.7311 61.5703 56.7298C61.7887 56.7298 61.9984 56.6438 62.1538 56.4903C62.3092 56.3368 62.3978 56.1281 62.4004 55.9097V55.9097Z" fill="#44C7F0"/>
<path d="M66.3008 55.9097C66.3008 55.8012 66.2791 55.694 66.2373 55.5938C66.1955 55.4937 66.1343 55.4028 66.0571 55.3265C65.9799 55.2502 65.8882 55.1901 65.7876 55.1495C65.687 55.1089 65.5792 55.0886 65.4707 55.0899C65.2523 55.0899 65.0426 55.1759 64.8872 55.3294C64.7318 55.4829 64.6433 55.6913 64.6406 55.9097C64.6406 56.0183 64.6623 56.1257 64.7041 56.2259C64.7459 56.326 64.8071 56.4169 64.8843 56.4932C64.9615 56.5695 65.0532 56.6296 65.1538 56.6702C65.2545 56.7108 65.3622 56.7311 65.4707 56.7298C65.6891 56.7298 65.8988 56.6438 66.0542 56.4903C66.2096 56.3368 66.2981 56.1281 66.3008 55.9097V55.9097Z" fill="url(#paint6_linear)"/>
<path d="M54.8604 55.9097C54.8604 55.8012 54.8387 55.694 54.7969 55.5938C54.755 55.4937 54.6939 55.4028 54.6167 55.3265C54.5395 55.2502 54.4478 55.1901 54.3472 55.1495C54.2465 55.1089 54.1388 55.0886 54.0303 55.0899C53.8119 55.0899 53.6021 55.1759 53.4468 55.3294C53.2914 55.4829 53.2028 55.6913 53.2002 55.9097C53.2002 56.0183 53.2218 56.1257 53.2637 56.2259C53.3055 56.326 53.3666 56.4169 53.4438 56.4932C53.5211 56.5695 53.6127 56.6296 53.7134 56.6702C53.814 56.7108 53.9218 56.7311 54.0303 56.7298C54.2487 56.7298 54.4584 56.6438 54.6138 56.4903C54.7691 56.3368 54.8577 56.1281 54.8604 55.9097V55.9097Z" fill="#44C7F0"/>
<path d="M58.7598 55.9097C58.7598 55.8012 58.7381 55.694 58.6963 55.5938C58.6545 55.4937 58.5933 55.4028 58.5161 55.3265C58.4389 55.2502 58.3472 55.1901 58.2466 55.1495C58.1459 55.1089 58.0382 55.0886 57.9297 55.0899C57.7113 55.0899 57.5016 55.1759 57.3462 55.3294C57.1908 55.4829 57.1022 55.6913 57.0996 55.9097C57.0996 56.0183 57.1213 56.1257 57.1631 56.2259C57.2049 56.326 57.2661 56.4169 57.3433 56.4932C57.4205 56.5695 57.5121 56.6296 57.6128 56.6702C57.7134 56.7108 57.8212 56.7311 57.9297 56.7298C58.1481 56.7298 58.3578 56.6438 58.5132 56.4903C58.6686 56.3368 58.7571 56.1281 58.7598 55.9097V55.9097Z" fill="#44C7F0"/>
<path d="M69.6504 55.9097C69.6504 55.8012 69.6287 55.694 69.5869 55.5938C69.5451 55.4937 69.4839 55.4028 69.4067 55.3265C69.3295 55.2502 69.2379 55.1901 69.1372 55.1495C69.0366 55.1089 68.9288 55.0886 68.8203 55.0899C68.6019 55.0899 68.3922 55.1759 68.2368 55.3294C68.0814 55.4829 67.9929 55.6913 67.9902 55.9097C67.9902 56.0183 68.0119 56.1257 68.0537 56.2259C68.0955 56.326 68.1567 56.4169 68.2339 56.4932C68.3111 56.5695 68.4028 56.6296 68.5034 56.6702C68.6041 56.7108 68.7118 56.7311 68.8203 56.7298C69.0387 56.7298 69.2484 56.6438 69.4038 56.4903C69.5592 56.3368 69.6478 56.1281 69.6504 55.9097V55.9097Z" fill="url(#paint7_linear)"/>
<path d="M73.5508 55.9097C73.5508 55.8012 73.5291 55.694 73.4873 55.5938C73.4455 55.4937 73.3843 55.4028 73.3071 55.3265C73.2299 55.2502 73.1382 55.1901 73.0376 55.1495C72.937 55.1089 72.8292 55.0886 72.7207 55.0899C72.5023 55.0899 72.2926 55.1759 72.1372 55.3294C71.9818 55.4829 71.8933 55.6913 71.8906 55.9097C71.8906 56.0183 71.9123 56.1257 71.9541 56.2259C71.9959 56.326 72.0571 56.4169 72.1343 56.4932C72.2115 56.5695 72.3032 56.6296 72.4038 56.6702C72.5045 56.7108 72.6122 56.7311 72.7207 56.7298C72.9391 56.7298 73.1488 56.6438 73.3042 56.4903C73.4596 56.3368 73.5481 56.1281 73.5508 55.9097V55.9097Z" fill="url(#paint8_linear)"/>
<path d="M62.4004 52.3006C62.4004 52.1921 62.3787 52.0846 62.3369 51.9844C62.2951 51.8843 62.2339 51.7934 62.1567 51.7171C62.0795 51.6408 61.9879 51.5807 61.8872 51.5401C61.7866 51.4995 61.6788 51.4792 61.5703 51.4805C61.3519 51.4805 61.1422 51.5665 60.9868 51.72C60.8314 51.8735 60.7429 52.0822 60.7402 52.3006C60.7402 52.4091 60.7619 52.5166 60.8037 52.6168C60.8455 52.7169 60.9067 52.8076 60.9839 52.8838C61.0611 52.9601 61.1528 53.0205 61.2534 53.0611C61.3541 53.1017 61.4618 53.122 61.5703 53.1207C61.7879 53.1181 61.9961 53.0312 62.1509 52.8782C62.3057 52.7253 62.3952 52.5182 62.4004 52.3006V52.3006Z" fill="#44C7F0"/>
<path d="M65.4707 53.1207C65.6891 53.1207 65.8988 53.0344 66.0542 52.8809C66.2096 52.7274 66.2981 52.519 66.3008 52.3006C66.3008 52.1921 66.2791 52.0846 66.2373 51.9844C66.1955 51.8843 66.1343 51.7934 66.0571 51.7171C65.9799 51.6408 65.8882 51.5807 65.7876 51.5401C65.687 51.4995 65.5792 51.4792 65.4707 51.4805C65.2523 51.4805 65.0426 51.5665 64.8872 51.72C64.7318 51.8735 64.6433 52.0822 64.6406 52.3006C64.6433 52.519 64.7318 52.7274 64.8872 52.8809C65.0426 53.0344 65.2523 53.1207 65.4707 53.1207V53.1207Z" fill="#44C7F0"/>
<path d="M54.8604 52.3006C54.8604 52.1921 54.8387 52.0846 54.7969 51.9844C54.755 51.8843 54.6939 51.7934 54.6167 51.7171C54.5395 51.6408 54.4478 51.5807 54.3472 51.5401C54.2465 51.4995 54.1388 51.4792 54.0303 51.4805C53.8119 51.4805 53.6021 51.5665 53.4468 51.72C53.2914 51.8735 53.2028 52.0822 53.2002 52.3006C53.2002 52.4091 53.2218 52.5166 53.2637 52.6168C53.3055 52.7169 53.3666 52.8076 53.4438 52.8838C53.5211 52.9601 53.6127 53.0205 53.7134 53.0611C53.814 53.1017 53.9218 53.122 54.0303 53.1207C54.2479 53.1181 54.456 53.0312 54.6108 52.8782C54.7657 52.7253 54.8552 52.5182 54.8604 52.3006Z" fill="#74CFEB"/>
<path d="M57.9404 53.1207C58.1588 53.1207 58.3686 53.0344 58.5239 52.8809C58.6793 52.7274 58.7679 52.519 58.7705 52.3006C58.7705 52.1921 58.7489 52.0846 58.707 51.9844C58.6652 51.8843 58.6036 51.7934 58.5264 51.7171C58.4492 51.6408 58.358 51.5807 58.2573 51.5401C58.1567 51.4995 58.049 51.4792 57.9404 51.4805C57.722 51.4805 57.5123 51.5665 57.3569 51.72C57.2016 51.8735 57.113 52.0822 57.1104 52.3006C57.113 52.519 57.2016 52.7274 57.3569 52.8809C57.5123 53.0344 57.722 53.1207 57.9404 53.1207V53.1207Z" fill="#44C7F0"/>
<path d="M69.6504 52.3006C69.6504 52.1921 69.6287 52.0846 69.5869 51.9844C69.5451 51.8843 69.4839 51.7934 69.4067 51.7171C69.3295 51.6408 69.2379 51.5807 69.1372 51.5401C69.0366 51.4995 68.9288 51.4792 68.8203 51.4805C68.6019 51.4805 68.3922 51.5665 68.2368 51.72C68.0814 51.8735 67.9929 52.0822 67.9902 52.3006C67.9902 52.4091 68.0119 52.5166 68.0537 52.6168C68.0955 52.7169 68.1567 52.8076 68.2339 52.8838C68.3111 52.9601 68.4028 53.0205 68.5034 53.0611C68.6041 53.1017 68.7118 53.122 68.8203 53.1207C69.0387 53.1207 69.2484 53.0344 69.4038 52.8809C69.5592 52.7274 69.6478 52.519 69.6504 52.3006V52.3006Z" fill="#44C7F0"/>
<path d="M72.7305 53.1207C72.9489 53.1207 73.1581 53.0344 73.3135 52.8809C73.4688 52.7274 73.5574 52.519 73.5601 52.3006C73.5601 52.1921 73.5389 52.0846 73.4971 51.9844C73.4552 51.8843 73.3936 51.7934 73.3164 51.7171C73.2392 51.6408 73.148 51.5807 73.0474 51.5401C72.9467 51.4995 72.839 51.4792 72.7305 51.4805C72.5121 51.4805 72.3023 51.5665 72.147 51.72C71.9916 51.8735 71.903 52.0822 71.9004 52.3006C71.9056 52.5182 71.9951 52.7253 72.1499 52.8782C72.3047 53.0312 72.5128 53.1181 72.7305 53.1207V53.1207Z" fill="url(#paint9_linear)"/>
<path d="M62.4004 48.6802C62.4004 48.5717 62.3787 48.4645 62.3369 48.3643C62.2951 48.2642 62.2339 48.1733 62.1567 48.097C62.0795 48.0207 61.9879 47.9604 61.8872 47.9197C61.7866 47.8791 61.6788 47.8591 61.5703 47.8604C61.3519 47.8604 61.1422 47.9464 60.9868 48.0999C60.8314 48.2534 60.7429 48.4618 60.7402 48.6802C60.7429 48.8986 60.8314 49.1073 60.9868 49.2608C61.1422 49.4143 61.3519 49.5003 61.5703 49.5003C61.7887 49.5003 61.9984 49.4143 62.1538 49.2608C62.3092 49.1073 62.3978 48.8986 62.4004 48.6802V48.6802Z" fill="#74CFEB"/>
<path d="M66.3008 48.6802C66.3008 48.5717 66.2791 48.4645 66.2373 48.3643C66.1955 48.2642 66.1343 48.1733 66.0571 48.097C65.9799 48.0207 65.8882 47.9604 65.7876 47.9197C65.687 47.8791 65.5792 47.8591 65.4707 47.8604C65.2523 47.8604 65.0426 47.9464 64.8872 48.0999C64.7318 48.2534 64.6433 48.4618 64.6406 48.6802C64.6433 48.8986 64.7318 49.1073 64.8872 49.2608C65.0426 49.4143 65.2523 49.5003 65.4707 49.5003C65.6891 49.5003 65.8988 49.4143 66.0542 49.2608C66.2096 49.1073 66.2981 48.8986 66.3008 48.6802V48.6802Z" fill="#74CFEB"/>
<path d="M54.8604 48.6802C54.8604 48.5717 54.8387 48.4645 54.7969 48.3643C54.755 48.2642 54.6939 48.1733 54.6167 48.097C54.5395 48.0207 54.4478 47.9604 54.3472 47.9197C54.2465 47.8791 54.1388 47.8591 54.0303 47.8604C53.8119 47.8604 53.6021 47.9464 53.4468 48.0999C53.2914 48.2534 53.2028 48.4618 53.2002 48.6802C53.2028 48.8986 53.2914 49.1073 53.4468 49.2608C53.6021 49.4143 53.8119 49.5003 54.0303 49.5003C54.2487 49.5003 54.4584 49.4143 54.6138 49.2608C54.7691 49.1073 54.8577 48.8986 54.8604 48.6802V48.6802Z" fill="#74CFEB"/>
<path d="M58.7598 48.6802C58.7598 48.5717 58.7381 48.4645 58.6963 48.3643C58.6545 48.2642 58.5933 48.1733 58.5161 48.097C58.4389 48.0207 58.3472 47.9604 58.2466 47.9197C58.1459 47.8791 58.0382 47.8591 57.9297 47.8604C57.7113 47.8604 57.5016 47.9464 57.3462 48.0999C57.1908 48.2534 57.1022 48.4618 57.0996 48.6802C57.1022 48.8986 57.1908 49.1073 57.3462 49.2608C57.5016 49.4143 57.7113 49.5003 57.9297 49.5003C58.1481 49.5003 58.3578 49.4143 58.5132 49.2608C58.6686 49.1073 58.7571 48.8986 58.7598 48.6802V48.6802Z" fill="#74CFEB"/>
<path d="M69.6504 48.6802C69.6504 48.5717 69.6287 48.4645 69.5869 48.3643C69.5451 48.2642 69.4839 48.1733 69.4067 48.097C69.3295 48.0207 69.2379 47.9604 69.1372 47.9197C69.0366 47.8791 68.9288 47.8591 68.8203 47.8604C68.6019 47.8604 68.3922 47.9464 68.2368 48.0999C68.0814 48.2534 67.9929 48.4618 67.9902 48.6802C67.9929 48.8986 68.0814 49.1073 68.2368 49.2608C68.3922 49.4143 68.6019 49.5003 68.8203 49.5003C69.0387 49.5003 69.2484 49.4143 69.4038 49.2608C69.5592 49.1073 69.6478 48.8986 69.6504 48.6802V48.6802Z" fill="#74CFEB"/>
<path d="M73.5508 48.6802C73.5508 48.5717 73.5291 48.4645 73.4873 48.3643C73.4455 48.2642 73.3843 48.1733 73.3071 48.097C73.2299 48.0207 73.1382 47.9604 73.0376 47.9197C72.937 47.8791 72.8292 47.8591 72.7207 47.8604C72.5023 47.8604 72.2926 47.9464 72.1372 48.0999C71.9818 48.2534 71.8933 48.4618 71.8906 48.6802C71.8933 48.8986 71.9818 49.1073 72.1372 49.2608C72.2926 49.4143 72.5023 49.5003 72.7207 49.5003C72.9391 49.5003 73.1488 49.4143 73.3042 49.2608C73.4596 49.1073 73.5481 48.8986 73.5508 48.6802V48.6802Z" fill="#74CFEB"/>
<path d="M62.4004 45.0701C62.4004 44.9616 62.3787 44.8541 62.3369 44.754C62.2951 44.6538 62.2339 44.5629 62.1567 44.4866C62.0795 44.4104 61.9879 44.3502 61.8872 44.3096C61.7866 44.269 61.6788 44.2487 61.5703 44.2501C61.3519 44.25 61.1422 44.3361 60.9868 44.4896C60.8314 44.6431 60.7429 44.8517 60.7402 45.0701C60.7402 45.1787 60.7619 45.2861 60.8037 45.3863C60.8455 45.4864 60.9067 45.5771 60.9839 45.6534C61.0611 45.7297 61.1528 45.79 61.2534 45.8306C61.3541 45.8712 61.4618 45.8915 61.5703 45.8902C61.7887 45.8902 61.9984 45.804 62.1538 45.6505C62.3092 45.497 62.3978 45.2885 62.4004 45.0701V45.0701Z" fill="#74CFEB"/>
<path d="M66.3008 45.0701C66.3008 44.9616 66.2791 44.8541 66.2373 44.754C66.1955 44.6538 66.1343 44.5629 66.0571 44.4866C65.9799 44.4104 65.8882 44.3502 65.7876 44.3096C65.687 44.269 65.5792 44.2487 65.4707 44.2501C65.2523 44.25 65.0426 44.3361 64.8872 44.4896C64.7318 44.6431 64.6433 44.8517 64.6406 45.0701C64.6406 45.1787 64.6623 45.2861 64.7041 45.3863C64.7459 45.4864 64.8071 45.5771 64.8843 45.6534C64.9615 45.7297 65.0532 45.79 65.1538 45.8306C65.2545 45.8712 65.3622 45.8915 65.4707 45.8902C65.6891 45.8902 65.8988 45.804 66.0542 45.6505C66.2096 45.497 66.2981 45.2885 66.3008 45.0701V45.0701Z" fill="#74CFEB"/>
<path d="M54.8604 45.0701C54.8604 44.9616 54.8387 44.8541 54.7969 44.754C54.755 44.6538 54.6939 44.5629 54.6167 44.4866C54.5395 44.4104 54.4478 44.3502 54.3472 44.3096C54.2465 44.269 54.1388 44.2487 54.0303 44.2501C53.8119 44.25 53.6021 44.3361 53.4468 44.4896C53.2914 44.6431 53.2028 44.8517 53.2002 45.0701C53.2002 45.1787 53.2218 45.2861 53.2637 45.3863C53.3055 45.4864 53.3666 45.5771 53.4438 45.6534C53.5211 45.7297 53.6127 45.79 53.7134 45.8306C53.814 45.8712 53.9218 45.8915 54.0303 45.8902C54.2487 45.8902 54.4584 45.804 54.6138 45.6505C54.7691 45.497 54.8577 45.2885 54.8604 45.0701V45.0701Z" fill="#A5DEF3"/>
<path d="M58.7598 45.0701C58.7598 44.9616 58.7381 44.8541 58.6963 44.754C58.6545 44.6538 58.5933 44.5629 58.5161 44.4866C58.4389 44.4104 58.3472 44.3502 58.2466 44.3096C58.1459 44.269 58.0382 44.2487 57.9297 44.2501C57.7113 44.25 57.5016 44.3361 57.3462 44.4896C57.1908 44.6431 57.1022 44.8517 57.0996 45.0701C57.0996 45.1787 57.1213 45.2861 57.1631 45.3863C57.2049 45.4864 57.2661 45.5771 57.3433 45.6534C57.4205 45.7297 57.5121 45.79 57.6128 45.8306C57.7134 45.8712 57.8212 45.8915 57.9297 45.8902C58.1481 45.8902 58.3578 45.804 58.5132 45.6505C58.6686 45.497 58.7571 45.2885 58.7598 45.0701V45.0701Z" fill="#A5DEF3"/>
<path d="M69.6504 45.0701C69.6504 44.9616 69.6287 44.8541 69.5869 44.754C69.5451 44.6538 69.4839 44.5629 69.4067 44.4866C69.3295 44.4104 69.2379 44.3502 69.1372 44.3096C69.0366 44.269 68.9288 44.2487 68.8203 44.2501C68.6019 44.25 68.3922 44.3361 68.2368 44.4896C68.0814 44.6431 67.9929 44.8517 67.9902 45.0701C67.9902 45.1787 68.0119 45.2861 68.0537 45.3863C68.0955 45.4864 68.1567 45.5771 68.2339 45.6534C68.3111 45.7297 68.4028 45.79 68.5034 45.8306C68.6041 45.8712 68.7118 45.8915 68.8203 45.8902C69.0387 45.8902 69.2484 45.804 69.4038 45.6505C69.5592 45.497 69.6478 45.2885 69.6504 45.0701V45.0701Z" fill="#74CFEB"/>
<path d="M73.5508 45.0701C73.5508 44.9616 73.5291 44.8541 73.4873 44.754C73.4455 44.6538 73.3843 44.5629 73.3071 44.4866C73.2299 44.4104 73.1382 44.3502 73.0376 44.3096C72.937 44.269 72.8292 44.2487 72.7207 44.2501C72.5023 44.25 72.2926 44.3361 72.1372 44.4896C71.9818 44.6431 71.8933 44.8517 71.8906 45.0701C71.8906 45.1787 71.9123 45.2861 71.9541 45.3863C71.9959 45.4864 72.0571 45.5771 72.1343 45.6534C72.2115 45.7297 72.3032 45.79 72.4038 45.8306C72.5045 45.8712 72.6122 45.8915 72.7207 45.8902C72.9391 45.8902 73.1488 45.804 73.3042 45.6505C73.4596 45.497 73.5481 45.2885 73.5508 45.0701V45.0701Z" fill="#74CFEB"/>
<path d="M62.4004 41.4605C62.4004 41.352 62.3787 41.2445 62.3369 41.1443C62.2951 41.0442 62.2339 40.9535 62.1567 40.8773C62.0795 40.801 61.9879 40.7406 61.8872 40.7C61.7866 40.6594 61.6788 40.6394 61.5703 40.6407C61.3519 40.6407 61.1422 40.7267 60.9868 40.8802C60.8314 41.0337 60.7429 41.2421 60.7402 41.4605C60.7429 41.6789 60.8314 41.8876 60.9868 42.0411C61.1422 42.1946 61.3519 42.2806 61.5703 42.2806C61.7887 42.2806 61.9984 42.1946 62.1538 42.0411C62.3092 41.8876 62.3978 41.6789 62.4004 41.4605V41.4605Z" fill="#A5DEF3"/>
<path d="M66.3008 41.4605C66.3008 41.352 66.2791 41.2445 66.2373 41.1443C66.1955 41.0442 66.1343 40.9535 66.0571 40.8773C65.9799 40.801 65.8882 40.7406 65.7876 40.7C65.687 40.6594 65.5792 40.6394 65.4707 40.6407C65.2523 40.6407 65.0426 40.7267 64.8872 40.8802C64.7318 41.0337 64.6433 41.2421 64.6406 41.4605C64.6433 41.6789 64.7318 41.8876 64.8872 42.0411C65.0426 42.1946 65.2523 42.2806 65.4707 42.2806C65.6891 42.2806 65.8988 42.1946 66.0542 42.0411C66.2096 41.8876 66.2981 41.6789 66.3008 41.4605V41.4605Z" fill="#A5DEF3"/>
<path d="M54.8604 41.4605C54.8604 41.352 54.8387 41.2445 54.7969 41.1443C54.755 41.0442 54.6939 40.9535 54.6167 40.8773C54.5395 40.801 54.4478 40.7406 54.3472 40.7C54.2465 40.6594 54.1388 40.6394 54.0303 40.6407C53.8119 40.6407 53.6021 40.7267 53.4468 40.8802C53.2914 41.0337 53.2028 41.2421 53.2002 41.4605C53.2028 41.6789 53.2914 41.8876 53.4468 42.0411C53.6021 42.1946 53.8119 42.2806 54.0303 42.2806C54.2487 42.2806 54.4584 42.1946 54.6138 42.0411C54.7691 41.8876 54.8577 41.6789 54.8604 41.4605V41.4605Z" fill="#A5DEF3"/>
<path d="M58.7598 41.4605C58.7598 41.352 58.7381 41.2445 58.6963 41.1443C58.6545 41.0442 58.5933 40.9535 58.5161 40.8773C58.4389 40.801 58.3472 40.7406 58.2466 40.7C58.1459 40.6594 58.0382 40.6394 57.9297 40.6407C57.7113 40.6407 57.5016 40.7267 57.3462 40.8802C57.1908 41.0337 57.1022 41.2421 57.0996 41.4605C57.1022 41.6789 57.1908 41.8876 57.3462 42.0411C57.5016 42.1946 57.7113 42.2806 57.9297 42.2806C58.1481 42.2806 58.3578 42.1946 58.5132 42.0411C58.6686 41.8876 58.7571 41.6789 58.7598 41.4605V41.4605Z" fill="#A5DEF3"/>
<path d="M69.6504 41.4605C69.6504 41.352 69.6287 41.2445 69.5869 41.1443C69.5451 41.0442 69.4839 40.9535 69.4067 40.8773C69.3295 40.801 69.2379 40.7406 69.1372 40.7C69.0366 40.6594 68.9288 40.6394 68.8203 40.6407C68.6019 40.6407 68.3922 40.7267 68.2368 40.8802C68.0814 41.0337 67.9929 41.2421 67.9902 41.4605C67.9929 41.6789 68.0814 41.8876 68.2368 42.0411C68.3922 42.1946 68.6019 42.2806 68.8203 42.2806C69.0387 42.2806 69.2484 42.1946 69.4038 42.0411C69.5592 41.8876 69.6478 41.6789 69.6504 41.4605V41.4605Z" fill="#A5DEF3"/>
<path d="M73.5508 41.4605C73.5508 41.352 73.5291 41.2445 73.4873 41.1443C73.4455 41.0442 73.3843 40.9535 73.3071 40.8773C73.2299 40.801 73.1382 40.7406 73.0376 40.7C72.937 40.6594 72.8292 40.6394 72.7207 40.6407C72.5023 40.6407 72.2926 40.7267 72.1372 40.8802C71.9818 41.0337 71.8933 41.2421 71.8906 41.4605C71.8933 41.6789 71.9818 41.8876 72.1372 42.0411C72.2926 42.1946 72.5023 42.2806 72.7207 42.2806C72.9391 42.2806 73.1488 42.1946 73.3042 42.0411C73.4596 41.8876 73.5481 41.6789 73.5508 41.4605V41.4605Z" fill="#74CFEB"/>
<path d="M77.1403 63.4802H72.7805C72.7407 63.4816 72.7013 63.4747 72.6642 63.4601C72.6272 63.4456 72.5933 63.4236 72.5651 63.3954C72.537 63.3673 72.5152 63.3336 72.5007 63.2966C72.4861 63.2595 72.4792 63.2199 72.4806 63.1801C72.4792 63.1403 72.4861 63.1007 72.5007 63.0637C72.5152 63.0266 72.537 62.9932 72.5651 62.965C72.5933 62.9369 72.6272 62.9147 72.6642 62.9001C72.7013 62.8855 72.7407 62.8789 72.7805 62.8803H76.8405V38.0202H72.7805C72.7407 38.0216 72.7013 38.0148 72.6642 38.0002C72.6272 37.9856 72.5933 37.9636 72.5651 37.9355C72.537 37.9073 72.5152 37.8736 72.5007 37.8366C72.4861 37.7996 72.4792 37.7599 72.4806 37.7201C72.4792 37.6804 72.4861 37.6407 72.5007 37.6037C72.5152 37.5667 72.537 37.5332 72.5651 37.5051C72.5933 37.4769 72.6272 37.4547 72.6642 37.4401C72.7013 37.4255 72.7407 37.4187 72.7805 37.4201H77.1403C77.1801 37.4187 77.22 37.4255 77.257 37.4401C77.294 37.4547 77.3275 37.4769 77.3556 37.5051C77.3838 37.5332 77.406 37.5667 77.4206 37.6037C77.4352 37.6407 77.442 37.6804 77.4406 37.7201V63.1801C77.4406 63.2195 77.4327 63.2587 77.4177 63.2951C77.4026 63.3315 77.3806 63.3644 77.3527 63.3923C77.3249 63.4201 77.2915 63.4424 77.2551 63.4575C77.2187 63.4725 77.1797 63.4802 77.1403 63.4802V63.4802Z" fill="white"/>
<path opacity="0.15" d="M74.1902 63.8601H50.3C50.2624 63.8589 50.2253 63.8499 50.1911 63.834C50.157 63.8181 50.1265 63.7956 50.1013 63.7676C50.0761 63.7396 50.0569 63.7065 50.0447 63.6709C50.0324 63.6352 50.0273 63.5976 50.03 63.5601V38.1301C50.0273 38.0925 50.0324 38.0547 50.0447 38.019C50.0569 37.9834 50.0761 37.9506 50.1013 37.9226C50.1265 37.8946 50.157 37.8719 50.1911 37.856C50.2253 37.8401 50.2624 37.8313 50.3 37.8301H74.1902C74.2278 37.8313 74.2649 37.8401 74.299 37.856C74.3332 37.8719 74.3637 37.8946 74.3889 37.9226C74.4141 37.9506 74.4333 37.9834 74.4455 38.019C74.4578 38.0547 74.4629 38.0925 74.4602 38.1301C74.4629 38.1677 74.4578 38.2053 74.4455 38.241C74.4333 38.2766 74.4141 38.3094 74.3889 38.3374C74.3637 38.3654 74.3332 38.3882 74.299 38.4041C74.2649 38.42 74.2278 38.4287 74.1902 38.4299H50.57V63.26H74.1902C74.2278 63.2613 74.2649 63.27 74.299 63.2859C74.3332 63.3018 74.3637 63.3245 74.3889 63.3525C74.4141 63.3806 74.4333 63.4133 74.4455 63.449C74.4578 63.4846 74.4629 63.5225 74.4602 63.5601C74.463 63.6353 74.4364 63.7087 74.386 63.7646C74.3356 63.8206 74.2653 63.855 74.1902 63.8601Z" fill="#1F1D20"/>
<path d="M74.1902 63.4805H50.3C50.2624 63.4792 50.2253 63.4705 50.1912 63.4546C50.157 63.4387 50.1265 63.416 50.1013 63.3879C50.0761 63.3599 50.0569 63.3272 50.0447 63.2915C50.0324 63.2559 50.0273 63.218 50.03 63.1804V37.7705C50.0273 37.7334 50.0323 37.6962 50.0447 37.6611C50.057 37.626 50.0765 37.5936 50.1018 37.5664C50.1272 37.5392 50.1575 37.5175 50.1916 37.5027C50.2258 37.4879 50.2628 37.4804 50.3 37.4805H74.1902C74.2274 37.4804 74.264 37.4879 74.2981 37.5027C74.3322 37.5175 74.3631 37.5392 74.3884 37.5664C74.4138 37.5936 74.4332 37.626 74.4456 37.6611C74.4579 37.6962 74.463 37.7334 74.4602 37.7705C74.4629 37.8081 74.4578 37.8459 74.4456 37.8816C74.4333 37.9172 74.4141 37.95 74.3889 37.978C74.3637 38.006 74.3332 38.0285 74.2991 38.0444C74.2649 38.0603 74.2279 38.0693 74.1902 38.0706H50.5701V62.9004H74.1902C74.2279 62.9016 74.2649 62.9106 74.2991 62.9265C74.3332 62.9424 74.3637 62.9652 74.3889 62.9932C74.4141 63.0212 74.4333 63.054 74.4456 63.0896C74.4578 63.1253 74.4629 63.1629 74.4602 63.2004C74.4579 63.2723 74.429 63.3408 74.3791 63.3926C74.3293 63.4443 74.2619 63.4756 74.1902 63.4805V63.4805Z" fill="#74CFEB"/>
<path opacity="0.15" d="M44.02 54.7705H22.1699V67.5605C22.1699 67.7462 22.2437 67.9241 22.375 68.0554C22.5063 68.1867 22.684 68.2605 22.8696 68.2605H43.2998C43.4855 68.2605 43.6636 68.1867 43.7949 68.0554C43.9262 67.9241 44 67.7462 44 67.5605L44.02 54.7705Z" fill="#1F1D20"/>
<path d="M44.02 53.9902H22.1699V66.7703C22.1699 66.9559 22.2437 67.1339 22.375 67.2651C22.5063 67.3964 22.684 67.4702 22.8696 67.4702H43.2998C43.4855 67.4702 43.6636 67.3964 43.7949 67.2651C43.9262 67.1339 44 66.9559 44 66.7703L44.02 53.9902Z" fill="url(#paint10_linear)"/>
<path d="M43.3003 52.1007H22.9302C22.7339 52.1007 22.546 52.1784 22.4072 52.3172C22.2684 52.456 22.1904 52.6444 22.1904 52.8406V54.4405H44.0303V52.8406C44.033 52.7436 44.0161 52.6468 43.9805 52.5565C43.9449 52.4661 43.8914 52.3839 43.8232 52.3148C43.755 52.2456 43.6733 52.1912 43.5835 52.1544C43.4936 52.1175 43.3974 52.0993 43.3003 52.1007V52.1007Z" fill="#96D8EC"/>
<path d="M31.6504 58.4601H25.5103C25.3811 58.4626 25.2578 58.5152 25.1665 58.6066C25.0752 58.6979 25.0231 58.8209 25.0205 58.9501C25.0231 59.0792 25.0752 59.2025 25.1665 59.2938C25.2578 59.3852 25.3811 59.4375 25.5103 59.44H31.6401C31.7702 59.435 31.8938 59.3804 31.9849 59.2875C32.076 59.1945 32.1279 59.0702 32.1304 58.94C32.1317 58.8766 32.1203 58.8136 32.0967 58.7547C32.073 58.6959 32.0375 58.6426 31.9927 58.5978C31.9478 58.5529 31.8943 58.5176 31.8354 58.494C31.7766 58.4704 31.7138 58.4587 31.6504 58.4601V58.4601Z" fill="white"/>
<path d="M31.6504 60.5508H25.5103C25.3811 60.5533 25.2578 60.6057 25.1665 60.697C25.0752 60.7884 25.0231 60.9116 25.0205 61.0408C25.0205 61.1707 25.0717 61.2953 25.1636 61.3872C25.2555 61.4791 25.3803 61.5308 25.5103 61.5308H31.6401C31.7693 61.5282 31.8925 61.4759 31.9839 61.3845C32.0752 61.2932 32.1278 61.1699 32.1304 61.0408C32.1317 60.9769 32.1202 60.9134 32.0967 60.854C32.0732 60.7946 32.0379 60.7405 31.9932 60.6948C31.9485 60.6492 31.8953 60.6129 31.8364 60.5881C31.7775 60.5634 31.7143 60.5508 31.6504 60.5508V60.5508Z" fill="white"/>
<path fill-rule="evenodd" clip-rule="evenodd" d="M25.5103 62.7705H28.5703C28.6995 62.7731 28.8227 62.8254 28.9141 62.9167C29.0054 63.0081 29.0575 63.1313 29.0601 63.2605C29.0575 63.3897 29.0054 63.5129 28.9141 63.6042C28.8227 63.6956 28.6995 63.7479 28.5703 63.7505H25.5103C25.3811 63.7479 25.2578 63.6956 25.1665 63.6042C25.0752 63.5129 25.0231 63.3897 25.0205 63.2605C25.0277 63.1329 25.0815 63.0123 25.1719 62.9219C25.2623 62.8315 25.3826 62.7777 25.5103 62.7705V62.7705Z" fill="white"/>
<path opacity="0.15" d="M44.02 36.0303H22.1699V48.8203C22.1699 49.006 22.2437 49.1839 22.375 49.3152C22.5063 49.4465 22.684 49.5203 22.8696 49.5203H43.2998C43.4855 49.5203 43.6636 49.4465 43.7949 49.3152C43.9262 49.1839 44 49.006 44 48.8203L44.02 36.0303Z" fill="#1F1D20"/>
<path d="M44.02 35.21H22.1699V48C22.1699 48.1857 22.2437 48.3636 22.375 48.4949C22.5063 48.6261 22.684 48.7 22.8696 48.7H43.2998C43.4855 48.7 43.6636 48.6261 43.7949 48.4949C43.9262 48.3636 44 48.1857 44 48L44.02 35.21Z" fill="url(#paint11_linear)"/>
<path d="M43.3009 33.3204H22.9508C22.8532 33.319 22.7565 33.3371 22.6661 33.3738C22.5757 33.4106 22.4934 33.465 22.4244 33.534C22.3554 33.603 22.3009 33.6851 22.2642 33.7755C22.2275 33.8658 22.2097 33.9628 22.211 34.0604V35.6602H44.0509V34.0604C44.0482 33.8632 43.9681 33.6749 43.8277 33.5364C43.6873 33.398 43.498 33.3204 43.3009 33.3204V33.3204Z" fill="#96D8EC"/>
<path d="M31.6504 39.4708H25.5103C25.3811 39.4734 25.2578 39.526 25.1665 39.6173C25.0752 39.7086 25.0231 39.8316 25.0205 39.9608C25.0231 40.09 25.0752 40.2132 25.1665 40.3046C25.2578 40.3959 25.3811 40.4482 25.5103 40.4508H31.6401C31.7702 40.4457 31.8938 40.3912 31.9849 40.2982C32.076 40.2052 32.1279 40.0809 32.1304 39.9508C32.1317 39.8874 32.1203 39.8243 32.0967 39.7655C32.073 39.7066 32.0375 39.6534 31.9927 39.6085C31.9478 39.5637 31.8943 39.5281 31.8354 39.5045C31.7766 39.4809 31.7138 39.4694 31.6504 39.4708V39.4708Z" fill="white"/>
<path d="M31.6504 41.5605H25.5103C25.3811 41.5631 25.2578 41.6154 25.1665 41.7068C25.0752 41.7981 25.0231 41.9214 25.0205 42.0505C25.0205 42.1805 25.0717 42.3051 25.1636 42.397C25.2555 42.4889 25.3803 42.5405 25.5103 42.5405H31.6401C31.7693 42.538 31.8925 42.4854 31.9839 42.394C32.0752 42.3027 32.1278 42.1797 32.1304 42.0505C32.1317 41.9867 32.1202 41.9232 32.0967 41.8638C32.0732 41.8044 32.0379 41.7502 31.9932 41.7046C31.9485 41.659 31.8953 41.6226 31.8364 41.5979C31.7775 41.5732 31.7143 41.5605 31.6504 41.5605V41.5605Z" fill="white"/>
<path fill-rule="evenodd" clip-rule="evenodd" d="M25.5103 43.7705H28.5703C28.6995 43.7731 28.8227 43.8254 28.9141 43.9167C29.0054 44.0081 29.0575 44.1313 29.0601 44.2605C29.0601 44.3905 29.0089 44.515 28.917 44.6069C28.8251 44.6988 28.7003 44.7505 28.5703 44.7505H25.5103C25.3811 44.7479 25.2578 44.6956 25.1665 44.6042C25.0752 44.5129 25.0231 44.3897 25.0205 44.2605C25.0277 44.1329 25.0815 44.0123 25.1719 43.9219C25.2623 43.8315 25.3826 43.7777 25.5103 43.7705V43.7705Z" fill="white"/>
<path opacity="0.15" d="M84.6801 62.4902C88.1401 64.5702 88.1401 67.8004 84.6801 69.8904C82.7207 70.9105 80.5445 71.4431 78.3354 71.4431C76.1263 71.4431 73.9496 70.9105 71.9902 69.8904C68.5202 67.8204 68.5202 64.5802 71.9902 62.4902C73.9496 61.4701 76.1263 60.9375 78.3354 60.9375C80.5445 60.9375 82.7207 61.4701 84.6801 62.4902V62.4902Z" fill="#1F1D20"/>
<path d="M85.6601 43.1904V38.6006H70.7504V43.2705C70.748 43.4454 70.6798 43.6131 70.56 43.7405C69.2589 45.0774 68.5399 46.875 68.56 48.7405V52.0505L79.0004 59.8206L87.9301 52.0505V48.5505C87.939 46.7167 87.2197 44.9542 85.9301 43.6504C85.851 43.6015 85.7853 43.5343 85.7382 43.4541C85.6911 43.3739 85.6642 43.2833 85.6601 43.1904V43.1904Z" fill="url(#paint12_linear)"/>
<path d="M87.8901 53.9299H68.5205V64C68.5219 64.2242 68.5384 64.448 68.5703 64.6699C68.5703 66.0999 69.4904 67.5499 71.3804 68.6699C75.3804 70.9099 81.3801 70.9099 85.0801 68.6699C87.0801 67.4799 87.9901 65.9299 87.8701 64.4099C87.8799 64.2701 87.8799 64.1298 87.8701 63.99V53.9199L87.8901 53.9299Z" fill="url(#paint13_linear)"/>
<path d="M87.8804 47.8403C87.8977 47.8248 87.919 47.8145 87.9419 47.811C87.9648 47.8074 87.9886 47.8107 88.0098 47.8202C88.0309 47.8298 88.0485 47.8451 88.061 47.8647C88.0736 47.8842 88.0802 47.9069 88.0801 47.9301V62.5502C88.0801 63.9002 87.0804 65.4603 85.1704 66.6103C83.1193 67.5516 80.8752 67.9967 78.6201 67.9101C76.0862 68.1138 73.5427 67.6665 71.2305 66.6103C70.4052 66.1834 69.679 65.587 69.1001 64.8603C68.6501 64.3857 68.3752 63.772 68.3203 63.1203V48.1203C68.3224 48.0922 68.3318 48.0651 68.3477 48.0419C68.3635 48.0187 68.3853 48.0001 68.4106 47.988C68.436 47.9758 68.4642 47.9704 68.4922 47.9726C68.5202 47.9747 68.5471 47.9843 68.5703 48.0002C69.3873 48.6281 70.2814 49.149 71.2305 49.5502C73.4855 50.4956 75.9161 50.9491 78.3604 50.8803C80.7199 50.9718 83.0676 50.5021 85.2104 49.5102C86.1614 49.0575 87.0572 48.4972 87.8804 47.8403Z" fill="#B4E2EF"/>
<path d="M85.2002 52.3906C84.3745 52.8316 83.4884 53.1482 82.5703 53.3306V65.1406C83.4773 64.9678 84.3536 64.6609 85.1704 64.2305C85.6477 63.9469 86.0654 63.5734 86.4004 63.1306V51.7705C86.0604 51.9405 85.6702 52.1606 85.2002 52.3906Z" fill="#F4F4F5"/>
<path d="M86.6206 35.6805L86.6709 38.5807C86.6709 39.7507 85.8407 41.0707 84.1807 42.0707C82.3187 42.9689 80.2783 43.4354 78.2109 43.4354C76.1436 43.4354 74.1027 42.9689 72.2407 42.0707C71.5377 41.7006 70.9184 41.19 70.4209 40.5707C70.035 40.1644 69.7988 39.6389 69.751 39.0807L69.8208 35.6407C69.8208 35.6407 70.5807 36.0306 72.2407 37.0306C71.8807 36.8306 83.7809 33.8106 83.4209 34.0306C85.0809 33.0006 86.6206 36.8505 86.6206 35.6805Z" fill="#E6E6E6"/>
<path d="M84.1804 32.3809C87.4504 34.3809 87.4504 37.3808 84.1804 39.3308C82.3306 40.3056 80.2712 40.8149 78.1804 40.8149C76.0895 40.8149 74.0301 40.3056 72.1804 39.3308C68.9204 37.3308 68.9204 34.3309 72.1804 32.3809C74.0309 31.4086 76.09 30.9004 78.1804 30.9004C80.2707 30.9004 82.3298 31.4086 84.1804 32.3809Z" fill="#96D8EC"/>
<path d="M80.8108 34.5205C82.2408 35.3805 82.2408 36.7105 80.8108 37.5205C80.0046 37.9395 79.1095 38.1582 78.2009 38.1582C77.2923 38.1582 76.3973 37.9395 75.5911 37.5205C74.1611 36.6705 74.1611 35.3405 75.5911 34.5205C76.3973 34.1015 77.2923 33.8828 78.2009 33.8828C79.1095 33.8828 80.0046 34.1015 80.8108 34.5205Z" fill="url(#paint14_linear)"/>
<path opacity="0.15" d="M41.5806 50.8506C42.7785 50.8479 43.9268 50.3708 44.7739 49.5237C45.621 48.6766 46.0979 47.5285 46.1006 46.3306C46.1006 45.1318 45.6245 43.9819 44.7769 43.1343C43.9292 42.2866 42.7793 41.8105 41.5806 41.8105C40.3818 41.8105 39.2324 42.2866 38.3848 43.1343C37.5371 43.9819 37.0605 45.1318 37.0605 46.3306C37.0605 47.5293 37.5371 48.6789 38.3848 49.5266C39.2324 50.3743 40.3818 50.8506 41.5806 50.8506V50.8506Z" fill="#1F1D20"/>
<path d="M41.5806 50.2705C42.7793 50.2705 43.9292 49.7942 44.7769 48.9465C45.6245 48.0989 46.1006 46.9493 46.1006 45.7505C46.1006 44.5517 45.6245 43.4021 44.7769 42.5544C43.9292 41.7068 42.7793 41.2305 41.5806 41.2305C40.3818 41.2305 39.2324 41.7068 38.3848 42.5544C37.5371 43.4021 37.0605 44.5517 37.0605 45.7505C37.0605 46.9493 37.5371 48.0989 38.3848 48.9465C39.2324 49.7942 40.3818 50.2705 41.5806 50.2705Z" fill="#092D4C"/>
<path d="M41.9702 42.8809H41.1602V48.6208H41.9702V42.8809Z" fill="#F2F2F3"/>
<path d="M44.4302 45.3906H38.6904V46.1904H44.4404L44.4302 45.3906Z" fill="#F2F2F3"/>
<path opacity="0.15" d="M41.5806 69.6607C42.7793 69.6607 43.9292 69.1846 44.7769 68.3369C45.6245 67.4893 46.1006 66.3397 46.1006 65.1409C46.1006 64.5478 45.9836 63.9604 45.7563 63.4126C45.5291 62.8648 45.1962 62.3672 44.7764 61.9483C44.3565 61.5293 43.8579 61.1973 43.3096 60.9712C42.7612 60.7451 42.1737 60.6296 41.5806 60.6309C40.3818 60.6309 39.2324 61.1069 38.3848 61.9546C37.5371 62.8023 37.0605 63.9519 37.0605 65.1506C37.0605 65.7437 37.178 66.3311 37.4053 66.8789C37.6325 67.4267 37.9654 67.9243 38.3853 68.3433C38.8051 68.7622 39.3037 69.0943 39.8521 69.3203C40.4004 69.5464 40.9875 69.662 41.5806 69.6607V69.6607Z" fill="#1F1D20"/>
<path d="M41.5806 68.9805C42.7793 68.9805 43.9292 68.5044 44.7769 67.6567C45.6245 66.8091 46.1006 65.6592 46.1006 64.4604C46.1006 63.2617 45.6245 62.1121 44.7769 61.2644C43.9292 60.4167 42.7793 59.9404 41.5806 59.9404C40.3818 59.9404 39.2324 60.4167 38.3848 61.2644C37.5371 62.1121 37.0605 63.2617 37.0605 64.4604C37.0605 65.6592 37.5371 66.8091 38.3848 67.6567C39.2324 68.5044 40.3818 68.9805 41.5806 68.9805Z" fill="#092D4C"/>
<path d="M41.9702 61.5898H41.1602V67.3298H41.9702V61.5898Z" fill="#F2F2F3"/>
<path d="M44.4302 64.0898H38.6904V64.8997H44.4404L44.4302 64.0898Z" fill="#F2F2F3"/>
<defs>
<linearGradient id="paint0_linear" x1="49.2393" y1="-13.7896" x2="53.2193" y2="131.981" gradientUnits="userSpaceOnUse">
<stop stop-color="#00ABDE"/>
<stop offset="1" stop-color="#2E7BBF"/>
</linearGradient>
<linearGradient id="paint1_linear" x1="2.43993" y1="-20.6201" x2="97.9603" y2="120.26" gradientUnits="userSpaceOnUse">
<stop stop-color="#2E7BBF"/>
<stop offset="0.71" stop-color="#092D4C"/>
</linearGradient>
<linearGradient id="paint2_linear" x1="8494.23" y1="13621.2" x2="8550.73" y2="13581.6" gradientUnits="userSpaceOnUse">
<stop stop-color="#2E7BBF"/>
<stop offset="0.71" stop-color="#092D4C"/>
</linearGradient>
<linearGradient id="paint3_linear" x1="8499.83" y1="13624" x2="8556.33" y2="13584.4" gradientUnits="userSpaceOnUse">
<stop stop-color="#2E7BBF"/>
<stop offset="0.71" stop-color="#092D4C"/>
</linearGradient>
<linearGradient id="paint4_linear" x1="8502.51" y1="13626.5" x2="8559" y2="13587" gradientUnits="userSpaceOnUse">
<stop stop-color="#2E7BBF"/>
<stop offset="0.71" stop-color="#092D4C"/>
</linearGradient>
<linearGradient id="paint5_linear" x1="8510" y1="13630.7" x2="8570.8" y2="13588.2" gradientUnits="userSpaceOnUse">
<stop stop-color="#2E7BBF"/>
<stop offset="0.71" stop-color="#092D4C"/>
</linearGradient>
<linearGradient id="paint6_linear" x1="8503.05" y1="13623" x2="8559.54" y2="13583.5" gradientUnits="userSpaceOnUse">
<stop stop-color="#2E7BBF"/>
<stop offset="0.71" stop-color="#092D4C"/>
</linearGradient>
<linearGradient id="paint7_linear" x1="8508.21" y1="13625.6" x2="8564.68" y2="13586.1" gradientUnits="userSpaceOnUse">
<stop stop-color="#2E7BBF"/>
<stop offset="0.71" stop-color="#092D4C"/>
</linearGradient>
<linearGradient id="paint8_linear" x1="8514.22" y1="13628.6" x2="8570.69" y2="13589" gradientUnits="userSpaceOnUse">
<stop stop-color="#2E7BBF"/>
<stop offset="0.71" stop-color="#092D4C"/>
</linearGradient>
<linearGradient id="paint9_linear" x1="8514.55" y1="13630.5" x2="8571.04" y2="13591" gradientUnits="userSpaceOnUse">
<stop stop-color="#2E7BBF"/>
<stop offset="0.71" stop-color="#092D4C"/>
</linearGradient>
<linearGradient id="paint10_linear" x1="36.44" y1="80.8302" x2="29.54" y2="38.7002" gradientUnits="userSpaceOnUse">
<stop stop-color="#3085C7"/>
<stop offset="0.9" stop-color="#5FABDF"/>
</linearGradient>
<linearGradient id="paint11_linear" x1="110494" y1="111775" x2="110435" y2="112352" gradientUnits="userSpaceOnUse">
<stop stop-color="#3085C7"/>
<stop offset="0.9" stop-color="#5FABDF"/>
</linearGradient>
<linearGradient id="paint12_linear" x1="78.03" y1="28.0806" x2="78.43" y2="78.6005" gradientUnits="userSpaceOnUse">
<stop stop-color="#4FC2EB"/>
<stop offset="0.58" stop-color="#2E76BC"/>
</linearGradient>
<linearGradient id="paint13_linear" x1="98869.3" y1="135907" x2="98882.3" y2="135533" gradientUnits="userSpaceOnUse">
<stop stop-color="#4FC2EB"/>
<stop offset="0.58" stop-color="#2E76BC"/>
</linearGradient>
<linearGradient id="paint14_linear" x1="37625.3" y1="35499.6" x2="37641.8" y2="35420.6" gradientUnits="userSpaceOnUse">
<stop stop-color="#4FC2EB"/>
<stop offset="0.58" stop-color="#2E76BC"/>
</linearGradient>
</defs>
</svg>
