<?xml version="1.0" encoding="UTF-8"?>
<svg width="202px" height="167px" viewBox="0 0 202 167" version="1.1" xmlns="http://www.w3.org/2000/svg" xmlns:xlink="http://www.w3.org/1999/xlink">
    <!-- Generator: Sketch 63.1 (92452) - https://sketch.com -->
    <title>Data analysis in Power BI/Data-analysis-in-Power-BI</title>
    <desc>Created with Sketch.</desc>
    <defs>
        <path d="M45.9102524,160 L153.401474,160 C163.025776,160 171.28527,153.145229 173.058918,143.685771 L194.818366,27.6353808 C196.853961,16.7788744 189.703199,6.32776127 178.846693,4.29216632 C176.651494,3.8805665 174.402856,3.83957154 172.194113,4.170883 L21.3829699,26.7925545 C10.4594805,28.4310779 2.93252847,38.6146013 4.57105187,49.5380906 C4.64810856,50.0518019 4.74514986,50.5623161 4.86195501,51.0684717 L26.4224285,144.49719 C28.516572,153.571812 36.5971328,160 45.9102524,160 Z" id="path-1"></path>
        <linearGradient x1="50%" y1="0%" x2="50%" y2="100%" id="linearGradient-3">
            <stop stop-color="#D48E15" offset="0%"></stop>
            <stop stop-color="#996A20" offset="100%"></stop>
        </linearGradient>
        <path d="M167.847056,0.221272982 C170.055799,-0.110038477 172.304437,-0.0690435174 174.499636,0.342556301 C185.241864,2.35672394 192.355951,12.6101734 190.532544,23.3430778 L190.471309,23.6857707 L168.711861,139.736161 C166.960383,149.077376 158.884193,155.878614 149.414679,156.047185 L149.054417,156.05039 L41.5631955,156.05039 C32.3726169,156.05039 24.3823748,149.790252 22.1611336,140.904406 L22.0753716,140.54758 L0.514898122,47.1188617 C0.398092972,46.612706 0.301051667,46.1021919 0.223994979,45.5884806 C-1.39728081,34.7799754 5.95497707,24.6959399 16.6920965,22.8975187 L17.035913,22.8429445 L167.847056,0.221272982 Z M173.578194,5.25691724 C172.096434,4.97908736 170.582211,4.92639993 169.086554,5.09978529 L168.588759,5.16595475 L17.7776152,27.7876263 C9.58499825,29.0165188 3.93978419,36.6541614 5.16867674,44.8467784 C5.20720509,45.103634 5.25239497,45.3594239 5.30419733,45.6138901 L5.3868541,45.9945642 L26.9473276,139.423283 C28.4926028,146.119475 34.3840263,150.894353 41.2259558,151.046639 L41.5631955,151.05039 L149.054417,151.05039 C156.161594,151.05039 162.276418,146.066282 163.732665,139.140762 L163.7975,138.814718 L185.556948,22.7643281 C187.083644,14.6219483 181.720573,6.78361345 173.578194,5.25691724 Z" id="path-4"></path>
        <filter x="-14.3%" y="-12.1%" width="128.6%" height="124.7%" filterUnits="objectBoundingBox" id="filter-6">
            <feOffset dx="0" dy="2" in="SourceAlpha" result="shadowOffsetOuter1"></feOffset>
            <feGaussianBlur stdDeviation="2" in="shadowOffsetOuter1" result="shadowBlurOuter1"></feGaussianBlur>
            <feColorMatrix values="0 0 0 0 0   0 0 0 0 0   0 0 0 0 0  0 0 0 0.1 0" type="matrix" in="shadowBlurOuter1" result="shadowMatrixOuter1"></feColorMatrix>
            <feMerge>
                <feMergeNode in="shadowMatrixOuter1"></feMergeNode>
                <feMergeNode in="SourceGraphic"></feMergeNode>
            </feMerge>
        </filter>
        <linearGradient x1="50%" y1="0.670396959%" x2="50%" y2="100%" id="linearGradient-7">
            <stop stop-color="#6A6A6A" offset="0%"></stop>
            <stop stop-color="#343333" offset="100%"></stop>
        </linearGradient>
        <linearGradient x1="50%" y1="97.5691716%" x2="50%" y2="-5.30956676%" id="linearGradient-8">
            <stop stop-color="#0078D4" offset="0%"></stop>
            <stop stop-color="#1380DA" offset="16%"></stop>
            <stop stop-color="#3C91E5" offset="53%"></stop>
            <stop stop-color="#559CEC" offset="82%"></stop>
            <stop stop-color="#5EA0EF" offset="100%"></stop>
        </linearGradient>
        <linearGradient x1="50%" y1="0%" x2="50%" y2="100%" id="linearGradient-9">
            <stop stop-color="#DA3A00" offset="0%"></stop>
            <stop stop-color="#DA3A00" offset="100%"></stop>
        </linearGradient>
        <linearGradient x1="50%" y1="2.04550253%" x2="50%" y2="100%" id="linearGradient-10">
            <stop stop-color="#FFE02A" offset="0%"></stop>
            <stop stop-color="#FFB518" offset="100%"></stop>
        </linearGradient>
        <filter x="-17.6%" y="-17.4%" width="135.3%" height="134.8%" filterUnits="objectBoundingBox" id="filter-11">
            <feOffset dx="0" dy="2" in="SourceAlpha" result="shadowOffsetOuter1"></feOffset>
            <feGaussianBlur stdDeviation="2" in="shadowOffsetOuter1" result="shadowBlurOuter1"></feGaussianBlur>
            <feColorMatrix values="0 0 0 0 0   0 0 0 0 0   0 0 0 0 0  0 0 0 0.1 0" type="matrix" in="shadowBlurOuter1" result="shadowMatrixOuter1"></feColorMatrix>
            <feMerge>
                <feMergeNode in="shadowMatrixOuter1"></feMergeNode>
                <feMergeNode in="SourceGraphic"></feMergeNode>
            </feMerge>
        </filter>
    </defs>
    <g id="Badges" stroke="none" stroke-width="1" fill="none" fill-rule="evenodd">
        <g id="Data-analysis-in-Power-BI" transform="translate(-109.000000, -48.000000)">
            <g id="Data-analysis-in-Power-BI/Data-analysis-in-Power-BI" transform="translate(153.000000, 80.000000)">
                <g id="Trophy-Plates/Trailhead" transform="translate(7.000000, 0.000000)">
                    <g id="BG" transform="translate(-50.000000, -30.474805)">
                        <mask id="mask-2" fill="white">
                            <use xlink:href="#path-1"></use>
                        </mask>
                        <path stroke="#FFFFFF" stroke-width="5" d="M21.0121187,24.3202136 C14.867656,25.241883 9.67846935,28.5668337 6.25581574,33.1974827 C2.83316214,37.8281317 1.17704157,43.764479 2.09871098,49.9089418 C2.18539976,50.4868669 2.29457123,51.0611954 2.42597702,51.6306205 L23.9864505,145.059339 C25.1644062,150.163814 28.0260418,154.523979 31.9028459,157.608026 C35.77965,160.692072 40.6716226,162.5 45.9102524,162.5 L153.401474,162.5 C158.815144,162.5 163.844961,160.572096 167.770781,157.313955 C171.6966,154.055814 174.518421,149.467437 175.516098,144.146492 L197.275547,28.0961021 C198.420569,21.9893173 196.981928,15.9965493 193.730336,11.244222 C190.478743,6.49189465 185.414199,2.98000801 179.307414,1.83498585 C177.100897,1.42126379 174.865195,1.24225218 21.0121187,24.3202136 Z"></path>
                        <g id="Colors/Power-BI/BG-Gradient-2" mask="url(#mask-2)" fill="url(#linearGradient-3)">
                            <g transform="translate(0.000000, -0.000000)" id="Rectangle">
                                <rect x="0" y="0" width="200" height="160"></rect>
                            </g>
                        </g>
                    </g>
                    <g id="Border" transform="translate(-45.652943, -26.525195)">
                        <mask id="mask-5" fill="white">
                            <use xlink:href="#path-4"></use>
                        </mask>
                        <use fill="#000000" fill-rule="nonzero" xlink:href="#path-4"></use>
                        <g id="Colors/Power-BI/Border" mask="url(#mask-5)" fill="#F3C900">
                            <g transform="translate(-4.347057, -3.949610)" id="Rectangle">
                                <rect x="0" y="0" width="200" height="160"></rect>
                            </g>
                        </g>
                    </g>
                </g>
                <g id="Document-w/-Data" filter="url(#filter-6)" transform="translate(15.000000, 10.000000)" fill-rule="nonzero">
                    <g id="Icon-azurestack-6">
                        <g id="Group">
                            <path d="M47.5931881,0.0927301796 L4.01114158,0.0927301796 C2.10297346,0.0927301796 0.556097561,1.62396434 0.556097561,3.51283739 L0.556097561,95.915734 C0.556097561,97.8046071 2.10297346,99.3358412 4.01114158,99.3358412 L79.0522731,99.3358412 C80.9604412,99.3358412 82.5073171,97.8046071 82.5073171,95.915734 L82.5073171,34.7738174 C82.5073171,32.8849443 80.9604412,31.3537101 79.0522731,31.3537101 L54.1395872,31.3537101 C52.2648958,31.3537101 50.745158,29.8493397 50.745158,27.9936048 L50.745158,3.51283739 C50.7820266,1.723897 49.3961885,0.220165991 47.5931881,0.0927301796 Z" id="Path" fill="url(#linearGradient-7)"></path>
                            <path d="M82.9756098,33.4810496 L49.1707317,0 L49.1707317,27.1279092 C49.1707317,30.6366517 52.0263844,33.4810496 55.5490106,33.4810496 L82.9756098,33.4810496 Z" id="Path" fill="#4A4C4A"></path>
                        </g>
                    </g>
                    <g id="Computer" transform="translate(13.714286, 22.285714)">
                        <rect id="Rectangle" fill="#FFFFFF" x="0" y="11.1219512" width="24.1071429" height="4.76655052" rx="1.5"></rect>
                        <rect id="Rectangle" fill="#FFFFFF" x="0" y="0" width="24.1071429" height="4.76655052" rx="1.5"></rect>
                        <rect id="Rectangle" fill="#FFFFFF" x="0" y="22.2439024" width="14.4642857" height="4.76655052" rx="1.5"></rect>
                        <rect id="Rectangle" fill="url(#linearGradient-8)" x="1.60714286" y="50.8432056" width="11.25" height="14.2996516"></rect>
                        <rect id="Rectangle" fill="url(#linearGradient-9)" x="20.8928571" y="38.1324042" width="11.25" height="27.010453"></rect>
                        <rect id="Rectangle" fill="url(#linearGradient-10)" x="40.1785714" y="22.2439024" width="11.25" height="42.8989547"></rect>
                    </g>
                </g>
                <g id="Magnifying-Glass" filter="url(#filter-11)" transform="translate(0.000000, 30.000000)" fill-rule="nonzero">
                    <path d="M-1.35954298,48.049056 L35.1264921,48.000835 C35.4744312,48.0003752 35.7568643,48.2820627 35.7573241,48.6300018 C35.7573249,48.6306032 35.7573249,48.6312046 35.7573239,48.6318059 L35.7470078,55.321916 C35.7464724,55.6691507 35.4650759,55.9504851 35.1178412,55.950944 L-1.36819388,55.999165 C-1.71613297,55.9996248 -1.99856611,55.7179373 -1.99902595,55.3699982 C-1.99902675,55.3693968 -1.99902668,55.3687954 -1.99902576,55.3681941 L-1.98870961,48.678084 C-1.98817417,48.3308493 -1.70677774,48.0495149 -1.35954298,48.049056 Z" id="Rectangle" fill="#C7A701" transform="translate(16.879149, 52.000000) rotate(-45.000000) translate(-16.879149, -52.000000) "></path>
                    <circle id="Oval" fill="#F7CF00" cx="41.5" cy="26.5" r="26.5"></circle>
                    <circle id="Oval" fill="#5F5F5F" cx="41.5" cy="27" r="21"></circle>
                    <path d="M30.4074074,27.4957983 L36.3333333,40 L42.3333333,23.9327731 L47.2962963,33.0756303 L53.4444444,23.6638655 L62.2,23.6638655 C61.9829792,22.5935722 61.8829792,21.8740234 61.6220703,20.5042017 L51.8148148,20.5042017 L47.8148148,26.6218487 L41.6666667,16 L35.962963,31.2605042 L30.7777778,20.4369748 L24.4074074,30.9915966 L21,30.9915966 C21,32.7142857 21.3188405,33.1328143 21.8,34.1512605 L26.4074074,34.1512605 L30.4074074,27.4957983 Z" id="Path" fill="#FFFFFF"></path>
                </g>
                <g id="powerbi_icon" transform="translate(28.000000, 14.000000)" fill="#FFFFFF" fill-rule="nonzero">
                    <path d="M15.3745714,11.0712857 L15.0229286,11.0712857 L15.0229286,10.3821429 L15.3745714,10.3821429 C16.1209286,10.3808571 16.7265,9.7875 16.7271429,9.05592857 L16.7271429,2.01535714 C16.7265,1.28314286 16.1209286,0.689785714 15.3745714,0.689142857 L2.05585714,0.689142857 C1.30885714,0.689785714 0.703928571,1.28314286 0.702642857,2.01535714 L0.702642857,9.05657143 C0.703928571,9.78814286 1.30885714,10.3815 2.05585714,10.3827857 L2.4075,10.3827857 L2.4075,11.0719286 L2.05585714,11.0719286 C0.920571429,11.07 0.00128571429,10.1687143 0,9.05657143 L0,2.01535714 C0.00128571429,0.903214286 0.921214286,0.00128571429 2.05585714,0 L15.3745714,0 C16.5092143,0.00128571429 17.4291429,0.903214286 17.4304286,2.01535714 L17.4304286,9.05657143 C17.4291429,10.1687143 16.5092143,11.0706429 15.3745714,11.0719286" id="Shape"></path>
                    <path d="M4.21457143,8.76407143 C4.46785714,8.76407143 4.71021429,8.86242857 4.88957143,9.03792857 C5.06828571,9.21278571 5.16857143,9.45064286 5.16857143,9.69878571 L5.16857143,11.8555714 C5.16857143,12.3724286 4.74171429,12.7909286 4.21457143,12.7909286 C3.96128571,12.7909286 3.71892857,12.6925714 3.53957143,12.5170714 C3.3613732,12.34308 3.26080022,12.1046248 3.26057143,11.8555714 L3.26057143,9.69942857 C3.26057143,9.18257143 3.68742857,8.76407143 4.21457143,8.76407143 L4.21457143,8.76407143 Z" id="Shape"></path>
                    <path d="M7.21542857,12.7909286 C6.68828571,12.7909286 6.26078571,12.3724286 6.26078571,11.8555714 L6.26078571,6.32057143 C6.26078571,5.80307143 6.68828571,5.38457143 7.21542857,5.38457143 C7.74257143,5.38457143 8.16942857,5.80307143 8.16942857,6.31992857 L8.16942857,11.8555714 C8.16942857,12.3724286 7.74192857,12.7909286 7.21542857,12.7915714" id="Shape"></path>
                    <path d="M13.2158571,12.7639286 C12.6887143,12.7639286 12.2618571,12.3447857 12.2612143,11.8285714 L12.2612143,3.98892857 C12.2612143,3.47271429 12.6887143,3.05357143 13.2158571,3.05357143 C13.743,3.05357143 14.1698571,3.47271429 14.1698571,3.98892857 L14.1698571,11.8285714 C14.1698571,12.3447857 13.743,12.7639286 13.2158571,12.7639286" id="Shape"></path>
                    <path d="M10.215,12.7909286 C9.6885,12.7909286 9.26164286,12.3724286 9.261,11.8555714 L9.261,7.74321429 C9.261,7.227 9.6885,6.80785714 10.2156429,6.80785714 C10.7427857,6.80785714 11.1696429,7.227 11.1696429,7.74321429 L11.1696429,11.8555714 C11.1696429,12.3724286 10.7421429,12.7909286 10.2156429,12.7915714" id="Shape"></path>
                </g>
            </g>
        </g>
    </g>
</svg>