<?xml version="1.0" encoding="UTF-8"?>
<svg width="102px" height="102px" viewBox="0 0 102 102" version="1.1" xmlns="http://www.w3.org/2000/svg" xmlns:xlink="http://www.w3.org/1999/xlink">
    <title>Use DAX in Power BI Desktop/m2-write-dax-formulas-for-power-bi-desktop-models</title>
    <defs>
        <rect id="path-1" x="0" y="0" width="94.3396226" height="94.3396226" rx="47.1698113"></rect>
        <filter x="-2.9%" y="-2.9%" width="106.4%" height="106.4%" filterUnits="objectBoundingBox" id="filter-3">
            <feMorphology radius="2.5" operator="dilate" in="SourceAlpha" result="shadowSpreadOuter1"></feMorphology>
            <feOffset dx="0.5" dy="0.5" in="shadowSpreadOuter1" result="shadowOffsetOuter1"></feOffset>
            <feMorphology radius="1" operator="erode" in="SourceAlpha" result="shadowInner"></feMorphology>
            <feOffset dx="0.5" dy="0.5" in="shadowInner" result="shadowInner"></feOffset>
            <feComposite in="shadowOffsetOuter1" in2="shadowInner" operator="out" result="shadowOffsetOuter1"></feComposite>
            <feColorMatrix values="0 0 0 0 0.821822822   0 0 0 0 0.831640661   0 0 0 0 0.835737288  0 0 0 1 0" type="matrix" in="shadowOffsetOuter1"></feColorMatrix>
        </filter>
        <linearGradient x1="50%" y1="0%" x2="50%" y2="100%" id="linearGradient-4">
            <stop stop-color="#4E4E57" offset="0%"></stop>
            <stop stop-color="#2E2E34" offset="100%"></stop>
        </linearGradient>
        <rect id="path-5" x="0" y="0" width="94.3396226" height="94.3396226"></rect>
        <path d="M48.1132075,0.739331515 C74.2770768,0.739331515 95.4870836,21.9493383 95.4870836,48.1132075 C95.4870836,74.2770768 74.2770768,95.4870836 48.1132075,95.4870836 C21.9493383,95.4870836 0.739331515,74.2770768 0.739331515,48.1132075 C0.739331515,21.9493383 21.9493383,0.739331515 48.1132075,0.739331515 Z M48.1132075,4.71698113 C24.1461335,4.71698113 4.71698113,24.1461335 4.71698113,48.1132075 C4.71698113,72.0802816 24.1461335,91.509434 48.1132075,91.509434 C72.0802816,91.509434 91.509434,72.0802816 91.509434,48.1132075 C91.509434,24.1461335 72.0802816,4.71698113 48.1132075,4.71698113 Z" id="path-6"></path>
        <linearGradient x1="50%" y1="0.670396959%" x2="50%" y2="100%" id="linearGradient-8">
            <stop stop-color="#6A6A6A" offset="0%"></stop>
            <stop stop-color="#343333" offset="100%"></stop>
        </linearGradient>
        <linearGradient x1="50%" y1="100%" x2="50%" y2="0%" id="linearGradient-9">
            <stop stop-color="#CCCCCC" offset="15%"></stop>
            <stop stop-color="#707070" offset="100%"></stop>
        </linearGradient>
        <linearGradient x1="50%" y1="100%" x2="50%" y2="0%" id="linearGradient-10">
            <stop stop-color="#D2EBFF" offset="0%"></stop>
            <stop stop-color="#F0FFFD" offset="100%"></stop>
        </linearGradient>
    </defs>
    <g id="Badges" stroke="none" stroke-width="1" fill="none" fill-rule="evenodd">
        <g id="Use-DAX-in-Power-BI-Desktop" transform="translate(-159.000000, -509.000000)">
            <g id="Use-DAX-in-Power-BI-Desktop/m2-write-dax-formulas-for-power-bi-desktop-models" transform="translate(160.000000, 510.000000)">
                <g id="Badge-Plates/Circle">
                    <g id="BG" transform="translate(2.830189, 2.830189)">
                        <mask id="mask-2" fill="white">
                            <use xlink:href="#path-1"></use>
                        </mask>
                        <g>
                            <use fill="black" fill-opacity="1" filter="url(#filter-3)" xlink:href="#path-1"></use>
                            <rect stroke="#F2F1F0" stroke-width="2.5" x="-1.25" y="-1.25" width="96.8396226" height="96.8396226" rx="48.4198113"></rect>
                        </g>
                        <g id="Colors/Power-BI/BG-Solid-1" mask="url(#mask-2)">
                            <rect id="Rectangle" fill="url(#linearGradient-4)" x="0" y="0" width="94.3396226" height="94.3396226"></rect>
                            <g id="Rectangle">
                                <use fill="#F2C811" xlink:href="#path-5"></use>
                                <use fill-opacity="0.501092657" fill="#FFFFFF" xlink:href="#path-5"></use>
                            </g>
                        </g>
                    </g>
                    <g id="Border" transform="translate(1.886792, 1.886792)">
                        <mask id="mask-7" fill="white">
                            <use xlink:href="#path-6"></use>
                        </mask>
                        <use id="Boarder" fill="#0078D4" fill-rule="nonzero" xlink:href="#path-6"></use>
                        <g id="Colors/Power-BI/Border" mask="url(#mask-7)" fill="#F3C900">
                            <g transform="translate(-1.886792, -1.886792)" id="Rectangle">
                                <rect x="0" y="0" width="100" height="100"></rect>
                            </g>
                        </g>
                    </g>
                </g>
                <g id="Group" transform="translate(17.000000, 24.063929)" fill-rule="nonzero">
                    <g id="Computer">
                        <rect id="Rectangle" fill="url(#linearGradient-8)" x="0" y="0" width="66" height="45.8644068" rx="0.6"></rect>
                        <path d="M47.020283,59.8969872 C40.3830225,58.8145843 40.1220066,53.8664568 40.1220066,45.8644068 L26.9593495,45.8644068 C26.9593495,53.8664568 26.7356216,58.8145843 20.098361,59.8969872 C18.2006454,60.1146859 16.7681482,61.7833381 16.779661,63.7627119 L50.3389831,63.7627119 C50.3504958,61.7833381 48.9179986,60.1146859 47.020283,59.8969872 Z" id="Path" fill="url(#linearGradient-9)"></path>
                    </g>
                </g>
                <polyline id="Path-138" stroke="#FFFFFF" stroke-width="2" opacity="0.287109375" stroke-linecap="round" stroke-linejoin="round" points="18 49.118188 33.779661 67.3300781 53.9958526 29.3476563 72.5 54.7662765 82 26.0639294"></polyline>
                <path d="M34.8961482,64.1033642 C36.4758654,64.1033642 37.8771331,63.6908825 39.0999512,62.8659191 C40.3227694,62.0409556 41.3905412,60.7684057 42.3032667,59.0482691 C43.2159922,57.3281326 44.1521209,54.5548513 45.1116529,50.7284252 L45.1116529,50.7284252 L47.1652852,42.6192101 L49.6401755,42.6192101 L50.25451,40.5655778 L47.70941,40.5655778 C48.4349098,37.6050707 49.3944417,35.440273 50.5880059,34.0711848 C51.3135056,33.2169673 52.0214529,32.7898586 52.7118479,32.7898586 C52.8522672,32.7898586 52.9663579,32.8308142 53.0541199,32.9127255 C53.141882,32.9946368 53.185763,33.0999512 53.185763,33.2286689 C53.185763,33.345685 53.0892248,33.5680156 52.8961482,33.8956607 C52.7030717,34.2233057 52.6065334,34.5333983 52.6065334,34.8259386 C52.6065334,35.2354949 52.7586543,35.5865431 53.0628961,35.8790834 C53.367138,36.1716236 53.7532911,36.3178937 54.2213554,36.3178937 C54.7245246,36.3178937 55.1457825,36.1394442 55.4851292,35.7825451 C55.8244759,35.425646 55.9941492,34.9429547 55.9941492,34.334471 C55.9941492,33.6440761 55.7396392,33.0823988 55.2306192,32.6494393 C54.7215992,32.2164798 53.905412,32 52.7820575,32 C51.0268162,32 49.4353974,32.5148708 48.0078011,33.5446124 C46.5802048,34.574354 45.2228181,36.2769381 43.9356412,38.6523647 C43.49098,39.4714773 43.0697221,39.9980497 42.6718674,40.2320819 C42.2740127,40.4661141 41.636275,40.5772794 40.7586543,40.5655778 L40.7586543,40.5655778 L40.1794247,42.6192101 L42.6192101,42.6192101 L39.0385178,56.6435885 C38.4417357,58.9488055 38.0380302,60.370551 37.8274013,60.908825 C37.5231594,61.6928328 37.0609459,62.3598245 36.4407606,62.9098001 C36.1950268,63.1321307 35.8966358,63.243296 35.5455875,63.243296 C35.4519746,63.243296 35.3700634,63.2140419 35.2998537,63.1555339 L35.2998537,63.1555339 L35.2120917,63.032667 C35.2120917,62.9741589 35.2998537,62.8542175 35.4753779,62.6728425 C35.650902,62.4914676 35.7386641,62.2135544 35.7386641,61.8391029 C35.7386641,61.4295466 35.5982448,61.0901999 35.3174061,60.8210629 C35.0365675,60.5519259 34.632862,60.4173574 34.1062896,60.4173574 C33.4744027,60.4173574 32.9653827,60.5928815 32.5792296,60.9439298 C32.1930765,61.2949781 32,61.7103852 32,62.1901511 C32,62.7050219 32.2340322,63.1526085 32.7020965,63.5329108 C33.1701609,63.9132131 33.9015115,64.1033642 34.8961482,64.1033642 Z M61.4529498,56.836665 C62.1784495,56.836665 62.9156509,56.5733788 63.6645539,56.0468064 C64.647489,55.3681131 65.6538274,54.1979522 66.683569,52.5363237 L66.683569,52.5363237 L66.0516821,52.1677231 C65.3495856,53.1506582 64.828864,53.7649927 64.4895173,54.0107265 C64.2671867,54.1628474 64.0039005,54.2389078 63.6996587,54.2389078 C63.3369088,54.2389078 62.9800098,54.0107265 62.6289615,53.5543637 C62.0321794,52.7820575 61.23647,50.6406631 60.2418333,47.1301804 C61.1311555,45.5621648 61.8800585,44.538274 62.4885422,44.058508 C62.9332033,43.7074598 63.4012677,43.5319356 63.8927353,43.5319356 C64.079961,43.5319356 64.4163823,43.5992199 64.901999,43.7337884 C65.3876158,43.8683569 65.8176499,43.9356412 66.1921014,43.9356412 C66.7069722,43.9356412 67.1370063,43.7571916 67.4822038,43.4002925 C67.8274013,43.0433935 68,42.5841053 68,42.0224281 C68,41.425646 67.8274013,40.9517309 67.4822038,40.6006826 C67.1370063,40.2496343 66.6426134,40.0741102 65.9990249,40.0741102 C65.425646,40.0741102 64.8844466,40.2116041 64.3754266,40.4865919 C63.8664066,40.7615797 63.2198927,41.3554364 62.4358849,42.2681619 C61.8508045,42.9468552 60.9848854,44.1345685 59.8381277,45.8313018 C59.381765,43.7367138 58.5977572,41.8176499 57.4861043,40.0741102 L57.4861043,40.0741102 L51.360312,41.127255 L51.2374451,41.7942467 C51.6938079,41.7006338 52.079961,41.6538274 52.3959044,41.6538274 C53.0043881,41.6538274 53.5075573,41.9171136 53.905412,42.443686 C54.5372989,43.2627986 55.4149196,45.7552413 56.538274,49.9210141 C55.6606533,51.1028766 55.0580205,51.8751828 54.7303754,52.2379327 C54.1921014,52.8230132 53.7474403,53.2033155 53.396392,53.3788396 C53.127255,53.5192589 52.8230132,53.5894686 52.4836665,53.5894686 C52.2262311,53.5894686 51.8049732,53.4490492 51.2198927,53.1682106 C50.822038,52.9809849 50.465139,52.887372 50.1491955,52.887372 C49.5524135,52.887372 49.0609459,53.0804486 48.6747928,53.4666017 C48.2886397,53.8527548 48.0955631,54.3442223 48.0955631,54.9410044 C48.0955631,55.5026816 48.2740127,55.9590444 48.6309118,56.3100926 C48.9878108,56.6611409 49.4705022,56.836665 50.0789859,56.836665 C50.6640663,56.836665 51.2140419,56.7137981 51.7289127,56.4680644 C52.2437835,56.2223306 52.8902974,55.6986836 53.6684544,54.8971234 C54.4466114,54.0955631 55.520234,52.8230132 56.8893223,51.0794734 C57.4158947,52.7411019 57.8722574,53.949293 58.2584105,54.7040468 C58.6445636,55.4588006 59.0862994,56.0029254 59.5836177,56.3364213 C60.0809361,56.6699171 60.7040468,56.836665 61.4529498,56.836665 Z" id="fx" fill="url(#linearGradient-10)" fill-rule="nonzero"></path>
            </g>
        </g>
    </g>
</svg>