<svg width="103" height="103" viewBox="0 0 103 103" fill="none" xmlns="http://www.w3.org/2000/svg">
<path d="M51.8727 98.4872C26.0227 98.4872 5.06274 77.5372 5.06274 51.6772C5.06274 25.8172 26.0227 4.86719 51.8727 4.86719C77.7227 4.86719 98.6827 25.8272 98.6827 51.6772C98.6827 77.5272 77.7227 98.4872 51.8727 98.4872Z" fill="#F9E488"/>
<path fill-rule="evenodd" clip-rule="evenodd" d="M51.8728 1.67676C79.4828 1.67676 101.873 24.0668 101.873 51.6768C101.873 79.2868 79.4828 101.677 51.8728 101.677C24.2628 101.677 1.8728 79.2868 1.8728 51.6768C1.8728 24.0668 24.2628 1.67676 51.8728 1.67676ZM51.8728 97.4368C77.1428 97.4368 97.6328 76.9468 97.6328 51.6768C97.6328 26.4068 77.1428 5.91676 51.8728 5.91676C26.6028 5.91676 6.1128 26.4068 6.1128 51.6768C6.1128 76.9468 26.6028 97.4368 51.8728 97.4368Z" fill="#D9D9D9"/>
<path fill-rule="evenodd" clip-rule="evenodd" d="M97.7729 51.6771C97.7729 77.0271 77.2229 97.5771 51.8729 97.5771C26.5229 97.5771 5.97291 77.0271 5.97291 51.6771C5.97291 26.3271 26.5229 5.77711 51.8729 5.77711C77.2229 5.77711 97.7729 26.3271 97.7729 51.6771ZM51.8729 2.03711C79.2929 2.03711 101.513 24.2571 101.513 51.6771C101.513 79.0971 79.2829 101.317 51.8729 101.317C24.4529 101.317 2.23291 79.0871 2.23291 51.6771C2.23291 24.2571 24.4529 2.03711 51.8729 2.03711Z" fill="#F2F1F0"/>
<path fill-rule="evenodd" clip-rule="evenodd" d="M94.9627 51.6767C94.9627 75.4767 75.6727 94.7667 51.8727 94.7667C28.0727 94.7667 8.78272 75.4767 8.78272 51.6767C8.78272 27.8767 28.0727 8.58668 51.8727 8.58668C75.6727 8.58668 94.9627 27.8767 94.9627 51.6767ZM51.8727 4.84668C77.7327 4.84668 98.7027 25.8167 98.7027 51.6767C98.7027 77.5367 77.7327 98.5067 51.8727 98.5067C26.0127 98.5067 5.04272 77.5367 5.04272 51.6767C5.04272 25.8167 26.0027 4.84668 51.8727 4.84668Z" fill="#F3C900"/>
<path d="M84.1929 30.0167V71.1767C84.1929 71.7667 83.9529 72.3367 83.5329 72.7467C83.1029 73.1667 82.5429 73.3867 81.9429 73.3767H64.7329C64.4329 73.3767 64.1929 73.6167 64.1929 73.9167V80.5667C64.1929 80.9767 63.9629 81.3367 63.5929 81.5067C63.2329 81.6867 62.7929 81.6467 62.4729 81.3967L52.1129 73.4867H51.7729H21.6929C21.1029 73.4967 20.5229 73.2667 20.1029 72.8567C19.6729 72.4367 19.4429 71.8767 19.4429 71.2867V30.0167C19.4429 29.4267 19.6829 28.8567 20.1029 28.4467C20.5329 28.0267 21.0929 27.8067 21.6929 27.8167H81.9429C82.5329 27.8067 83.1129 28.0367 83.5329 28.4467C83.9429 28.8667 84.1929 29.4267 84.1929 30.0167Z" fill="black"/>
<path d="M84.1929 30.0167V71.1767C84.1929 71.7667 83.9529 72.3367 83.5329 72.7467C83.1029 73.1667 82.5429 73.3867 81.9429 73.3767H64.7329C64.4329 73.3767 64.1929 73.6167 64.1929 73.9167V80.5667C64.1929 80.9767 63.9629 81.3367 63.5929 81.5067C63.2329 81.6867 62.7929 81.6467 62.4729 81.3967L52.1129 73.4867H51.7729H21.6929C21.1029 73.4967 20.5229 73.2667 20.1029 72.8567C19.6729 72.4367 19.4429 71.8767 19.4429 71.2867V30.0167C19.4429 29.4267 19.6829 28.8567 20.1029 28.4467C20.5329 28.0267 21.0929 27.8067 21.6929 27.8167H81.9429C82.5329 27.8067 83.1129 28.0367 83.5329 28.4467C83.9429 28.8667 84.1929 29.4267 84.1929 30.0167Z" fill="url(#paint0_linear)"/>
<path d="M33.8728 33.0762H69.7628C70.0728 33.0762 70.3128 33.3262 70.3128 33.6262V58.2262C70.3128 58.5362 70.0628 58.7762 69.7628 58.7762H33.8728C33.5628 58.7762 33.3228 58.5262 33.3228 58.2262V33.6262C33.3228 33.3262 33.5728 33.0762 33.8728 33.0762Z" fill="url(#paint1_linear)"/>
<path d="M59.6828 66.6471C55.9628 66.0371 55.8127 63.2671 55.8127 58.7871H48.4328C48.4328 63.2771 48.3027 66.0471 44.5827 66.6471C43.5227 66.7671 42.7127 67.6971 42.7227 68.8071H61.5327C61.5427 67.7071 60.7428 66.7671 59.6828 66.6471Z" fill="url(#paint2_linear)"/>
<path d="M57.833 55.8565H52.053V38.5665C52.053 37.9465 52.563 37.4365 53.183 37.4365H57.833C58.453 37.4365 58.963 37.9465 58.963 38.5665V54.7365C58.963 55.3565 58.453 55.8565 57.833 55.8565Z" fill="url(#paint3_linear)"/>
<path d="M54.0928 55.8567H48.1628V43.1167C48.1628 42.5767 48.6028 42.1367 49.1428 42.1367H54.0828C54.6228 42.1367 55.0628 42.5767 55.0628 43.1167V54.8767C55.0728 55.4167 54.6328 55.8567 54.0928 55.8567Z" fill="url(#paint4_linear)"/>
<path d="M50.0829 55.8563H45.7329C45.0229 55.8563 44.4529 55.2863 44.4529 54.5763V47.9362C44.4529 47.2262 45.0229 46.6562 45.7329 46.6562H50.0829C50.7929 46.6562 51.3629 47.2262 51.3629 47.9362V54.5763C51.3629 55.2863 50.7929 55.8563 50.0829 55.8563Z" fill="url(#paint5_linear)"/>
<defs>
<linearGradient id="paint0_linear" x1="51.817" y1="28.1793" x2="51.817" y2="81.6261" gradientUnits="userSpaceOnUse">
<stop stop-color="#6A6A6A"/>
<stop offset="1" stop-color="#343333"/>
</linearGradient>
<linearGradient id="paint1_linear" x1="51.8171" y1="58.786" x2="51.8171" y2="33.0741" gradientUnits="userSpaceOnUse">
<stop stop-color="#D2EBFF"/>
<stop offset="1" stop-color="#F0FFFD"/>
</linearGradient>
<linearGradient id="paint2_linear" x1="52.1315" y1="68.8128" x2="52.1315" y2="58.7869" gradientUnits="userSpaceOnUse">
<stop offset="0.15" stop-color="#CCCCCC"/>
<stop offset="1" stop-color="#707070"/>
</linearGradient>
<linearGradient id="paint3_linear" x1="55.4311" y1="39.1208" x2="55.5781" y2="54.4059" gradientUnits="userSpaceOnUse">
<stop offset="0.00753769" stop-color="#E0A310"/>
<stop offset="1" stop-color="#CA810E"/>
</linearGradient>
<linearGradient id="paint4_linear" x1="51.4331" y1="42.6735" x2="51.874" y2="58.8402" gradientUnits="userSpaceOnUse">
<stop offset="0.00753769" stop-color="#F2CC40"/>
<stop offset="1" stop-color="#E7B116"/>
</linearGradient>
<linearGradient id="paint5_linear" x1="47.7473" y1="47.3603" x2="48.1882" y2="57.7951" gradientUnits="userSpaceOnUse">
<stop stop-color="#F8E17B"/>
<stop offset="0.5302" stop-color="#F6D856"/>
<stop offset="1" stop-color="#F6D856"/>
</linearGradient>
</defs>
</svg>
