<?xml version="1.0" encoding="UTF-8"?>
<svg width="100px" height="100px" viewBox="0 0 100 100" version="1.1" xmlns="http://www.w3.org/2000/svg" xmlns:xlink="http://www.w3.org/1999/xlink">
    <!-- Generator: Sketch 52.3 (67297) - http://www.bohemiancoding.com/sketch -->
    <title>Implementing Microsoft Dynamics 365 for Field Service/advanced-microsoft-dynamics-for-field-service-mobile-asks-and-configuration</title>
    <desc>Created with Sketch.</desc>
    <defs>
        <rect id="path-1" x="0" y="0" width="96" height="96" rx="48"></rect>
        <filter x="-8.0%" y="-6.2%" width="116.0%" height="112.3%" filterUnits="objectBoundingBox" id="filter-3">
            <feOffset dx="0" dy="2" in="SourceAlpha" result="shadowOffsetOuter1"></feOffset>
            <feColorMatrix values="0 0 0 0 0   0 0 0 0 0   0 0 0 0 0  0 0 0 0.0954766757 0" type="matrix" in="shadowOffsetOuter1" result="shadowMatrixOuter1"></feColorMatrix>
            <feMerge>
                <feMergeNode in="shadowMatrixOuter1"></feMergeNode>
                <feMergeNode in="SourceGraphic"></feMergeNode>
            </feMerge>
        </filter>
    </defs>
    <g id="Badges" stroke="none" stroke-width="1" fill="none" fill-rule="evenodd">
        <g id="Implementing-Microsoft-Dynamics-365-for-Field-Service" transform="translate(-579.000000, -927.000000)">
            <g id="Implementing-Microsoft-Dynamics-365-for-Field-Service/advanced-microsoft-dynamics-for-field-service-mobile-asks-and-configuration" transform="translate(579.000000, 927.000000)">
                <g id="Mask" transform="translate(2.000000, 2.000000)">
                    <mask id="mask-2" fill="white">
                        <use xlink:href="#path-1"></use>
                    </mask>
                    <use id="BG" fill="#01B6C3" xlink:href="#path-1"></use>
                    <g id="Group-27" filter="url(#filter-3)" mask="url(#mask-2)">
                        <g transform="translate(27.000000, 15.500000)">
                            <g id="Group-10" stroke-width="1" fill="none" transform="translate(24.000000, 19.200000)">
                                <path d="M16.8004,12.8 C16.8004,15.0056 15.0056,16.8 12.8004,16.8 C10.5948,16.8 8.8004,15.0056 8.8004,12.8 C8.8004,10.5944 10.5948,8.8 12.8004,8.8 C15.0056,8.8 16.8004,10.5944 16.8004,12.8 Z M24.1928,10.6456 L22.3328,10.232 C22.1804,10.1984 21.9432,9.9824 21.8956,9.8336 C21.8896,9.8132 21.882,9.7932 21.8736,9.7736 L21.3604,8.5264 C21.3516,8.5048 21.3416,8.4832 21.3308,8.4624 C21.2588,8.3244 21.2728,8.0064 21.3564,7.8756 L22.3796,6.2676 C22.8136,5.5856 22.7056,4.6036 22.1344,4.032 L21.5684,3.466 C21.0104,2.9076 20.0004,2.796 19.3328,3.2208 L17.7244,4.2436 C17.6708,4.2784 17.544,4.3156 17.3936,4.3156 C17.2704,4.3156 17.1788,4.2908 17.138,4.2696 C17.1176,4.2584 17.0956,4.2488 17.0736,4.24 L15.8268,3.7264 C15.8072,3.7184 15.7872,3.7108 15.7668,3.7048 C15.6184,3.6572 15.402,3.42 15.3684,3.2672 L14.9552,1.4076 C14.7796,0.6184 14.0088,0 13.2004,0 L12.4004,0 C11.5916,0 10.8212,0.6184 10.646,1.4072 L10.2324,3.268 C10.1984,3.42 9.9824,3.6572 9.834,3.7048 C9.8136,3.7108 9.7936,3.7184 9.7736,3.7264 L8.5268,4.24 C8.5048,4.2488 8.4832,4.2584 8.4624,4.2696 C8.422,4.2908 8.3304,4.3156 8.2068,4.3156 C8.0564,4.3156 7.9296,4.278 7.8756,4.2436 L6.268,3.2212 C5.6004,2.7964 4.59,2.9084 4.0324,3.4664 L3.4664,4.032 C2.8948,4.604 2.7872,5.586 3.2212,6.268 L4.2444,7.8756 C4.3276,8.0068 4.3416,8.324 4.27,8.462 C4.2592,8.4832 4.2488,8.5048 4.24,8.5264 L3.7268,9.7736 C3.7188,9.7932 3.7112,9.8132 3.7048,9.8336 C3.6572,9.9824 3.4204,10.1984 3.2676,10.2324 L1.408,10.6452 C0.6188,10.8208 0.0004,11.5912 0.0004,12.4 L0.0004,13.2 C0.0004,14.0084 0.6188,14.7792 1.4076,14.9544 L3.268,15.3676 C3.4204,15.4016 3.6572,15.6176 3.7048,15.7664 C3.7112,15.7868 3.7188,15.8068 3.7268,15.8264 L4.24,17.0736 C4.2488,17.0952 4.2588,17.1164 4.27,17.1376 C4.3416,17.2752 4.3276,17.5932 4.244,17.7244 L3.2212,19.332 C2.7868,20.014 2.8948,20.9964 3.4664,21.568 L4.0324,22.134 C4.5896,22.6908 5.5988,22.8044 6.2684,22.3792 L7.8752,21.3564 C7.9296,21.3216 8.0564,21.2844 8.2068,21.2844 C8.3304,21.2844 8.422,21.3088 8.4624,21.3304 C8.4836,21.3408 8.5048,21.3512 8.5268,21.36 L9.7736,21.8736 C9.7936,21.8816 9.8136,21.8888 9.834,21.8952 C9.9824,21.9428 10.1984,22.18 10.2324,22.3324 L10.646,24.1924 C10.8212,24.9816 11.5916,25.6 12.4004,25.6 L13.2004,25.6 C14.0088,25.6 14.7792,24.9816 14.9548,24.1924 L15.3684,22.3324 C15.402,22.18 15.6184,21.9428 15.7668,21.8952 C15.7872,21.8888 15.8072,21.8816 15.8268,21.8736 L17.0736,21.36 C17.0956,21.3512 17.1172,21.3408 17.138,21.3304 C17.1788,21.3088 17.2704,21.2844 17.3932,21.2844 C17.5436,21.2844 17.6708,21.3216 17.7244,21.3564 L19.3324,22.3788 C19.9996,22.8044 21.0104,22.6916 21.5684,22.134 L22.134,21.5684 C22.7056,20.9968 22.8136,20.0144 22.3796,19.332 L21.3564,17.7244 C21.2728,17.5932 21.2588,17.2756 21.3308,17.138 C21.3416,17.1168 21.3516,17.0956 21.3604,17.074 L21.8736,15.8264 C21.882,15.8068 21.8896,15.7868 21.8956,15.7664 C21.9432,15.6176 22.1804,15.4016 22.3332,15.3676 L24.1924,14.9544 C24.982,14.7792 25.6004,14.0084 25.6004,13.2 L25.6004,12.4 C25.6004,11.5912 24.982,10.8208 24.1928,10.6456 Z" id="Fill-376" fill="#EDEDED"></path>
                                <path d="M6.2684,22.3792 L7.8752,21.3564 C7.9296,21.3216 8.0564,21.2844 8.2068,21.2844 C8.3304,21.2844 8.422,21.3088 8.4624,21.3304 C8.4836,21.3408 8.5048,21.3512 8.5268,21.36 L9.7736,21.8736 C9.7936,21.8816 9.8136,21.8888 9.834,21.8952 C9.9824,21.9428 10.1984,22.18 10.2324,22.3324 L10.646,24.1924 C10.8212,24.9816 11.5916,25.6 12.4004,25.6 L13.2004,25.6 C14.0088,25.6 14.7792,24.9816 14.9548,24.1924 L15.3684,22.3324 C15.402,22.18 15.6184,21.9428 15.7668,21.8952 C15.7872,21.8888 15.8072,21.8816 15.8268,21.8736 L17.0736,21.36 C17.0956,21.3512 17.1172,21.3408 17.138,21.3304 C17.1788,21.3088 17.2704,21.2844 17.3932,21.2844 C17.5436,21.2844 17.6708,21.3216 17.7244,21.3564 L19.3324,22.3788 C19.9996,22.8044 21.0104,22.6916 21.5684,22.134 L22.134,21.5684 C22.7056,20.9968 22.8136,20.0144 22.3796,19.332 L21.3564,17.7244 C21.2728,17.5932 21.2588,17.2756 21.3308,17.138 C21.3416,17.1168 21.3516,17.0956 21.3604,17.074 L21.8736,15.8264 C21.882,15.8068 21.8896,15.7868 21.8956,15.7664 C21.9432,15.6176 22.1804,15.4016 22.3332,15.3676 L24.1924,14.9544 C24.982,14.7792 25.6004,14.0084 25.6004,13.2 L25.6004,12.4 C25.6004,11.5912 24.982,10.8208 24.1928,10.6456 L22.3328,10.232 C22.1804,10.1984 21.9432,9.9824 21.8956,9.8336 C21.8896,9.8132 21.882,9.7932 21.8736,9.7736 L21.3604,8.5264 C21.3516,8.5048 21.3416,8.4832 21.3308,8.4624 C21.2588,8.3244 21.2728,8.0064 21.3564,7.8756 L22.3796,6.2676 C22.8136,5.5856 22.7056,4.6036 22.1344,4.032 L21.8512,3.7488 L15.6272,9.9728 C16.3516,10.6972 16.8004,11.6972 16.8004,12.8 C16.8004,15.0056 15.0056,16.8 12.8004,16.8 C11.6976,16.8 10.6976,16.3512 9.9732,15.6272 L3.7496,21.8508 L4.0324,22.134 C4.5896,22.6908 5.5988,22.8044 6.2684,22.3792" id="Fill-377" fill="#BAC4C8"></path>
                                <path d="M12.8004,16.8 C10.5912,16.8 8.8004,15.0092 8.8004,12.8 C8.8004,10.5908 10.5912,8.8 12.8004,8.8 C15.0096,8.8 16.8004,10.5908 16.8004,12.8 C16.8004,15.0092 15.0096,16.8 12.8004,16.8 Z M12.8004,7.2 C9.7076,7.2 7.2004,9.7072 7.2004,12.8 C7.2004,15.8928 9.7076,18.4 12.8004,18.4 C15.8932,18.4 18.4004,15.8928 18.4004,12.8 C18.4004,9.7072 15.8932,7.2 12.8004,7.2 Z" id="Fill-378" fill="#BAC4C8"></path>
                                <path d="M16.8004,12.8 C16.8004,15.0092 15.0096,16.8 12.8004,16.8 C11.6956,16.8 10.6956,16.3524 9.972,15.6284 L8.8404,16.7596 C9.854,17.7732 11.254,18.4 12.8004,18.4 C15.8932,18.4 18.4004,15.8928 18.4004,12.8 C18.4004,11.2536 17.7736,9.8536 16.7604,8.84 L15.6288,9.9716 C16.3528,10.6952 16.8004,11.6952 16.8004,12.8" id="Fill-379" fill="#EDEDED"></path>
                            </g>
                            <path d="M37,49 C27.625,49 20,41.374 20,32 C20,22.626 27.625,15 37,15 C37.337,15 37.666,15.031 38,15.051 L38,4 C38,1.8 36.199,0 34,0 L4,0 C1.799,0 0,1.8 0,4 L0,60 C0,62.2 1.799,64 4,64 L34,64 C36.199,64 38,62.2 38,60 L38,48.949 C37.666,48.969 37.337,49 37,49" id="Fill-1396" fill="#3F4A4D"></path>
                            <path d="M22,58 C22,59.657 20.656,61 19,61 C17.342,61 16,59.657 16,58 C16,56.343 17.342,55 19,55 C20.656,55 22,56.343 22,58" id="Fill-1397" fill="#252A2C"></path>
                            <path d="M23,6 L15,6 C14.447,6 14,5.553 14,5 C14,4.447 14.447,4 15,4 L23,4 C23.552,4 24,4.447 24,5 C24,5.553 23.552,6 23,6" id="Fill-1398" fill="#252A2C"></path>
                            <path d="M35,15.129 L35,8 L3,8 L3,53 L35,53 L35,48.871 C26.566,47.877 20,40.696 20,32 C20,23.304 26.566,16.123 35,15.129 Z" id="Fill-1400" fill="#252A2C"></path>
                            <path d="M20,32 C20,22.626 27.625,15 37,15 C37.337,15 37.666,15.031 38,15.051 L38,4 C38,1.8 36.199,0 34,0 L18.7010208,0 L18.7010208,64.2548927 L34,64 C36.199,64 38,62.2 38,60 L38,48.949 C37.666,48.969 37.337,49 37,49 C27.625,49 20,41.374 20,32 Z" id="Fill-1396" fill="#000000" opacity="0.195824033"></path>
                        </g>
                    </g>
                </g>
                <g id="Dynamic-Border" stroke="#1D8E96" stroke-width="4">
                    <rect id="Azure-Border" x="2" y="2" width="96" height="96" rx="48"></rect>
                </g>
            </g>
        </g>
    </g>
</svg>