<?xml version="1.0" encoding="UTF-8"?>
<svg width="150px" height="180px" viewBox="0 0 150 180" version="1.1" xmlns="http://www.w3.org/2000/svg" xmlns:xlink="http://www.w3.org/1999/xlink">
    <!-- Generator: Sketch 64 (93537) - https://sketch.com -->
    <title>Deploy and maintain data in Power BI/Deploy-and-maintain-data-in-Power-BI</title>
    <desc>Created with Sketch.</desc>
    <defs>
        <path d="M0,33.2969808 L0,100 L0,100 C0,138.66 31.33998,170 70.0002438,170 C108.66002,170 140,138.66 140,100 L140,33.2969808 C140,31.2968402 138.808016,29.4891496 136.969596,28.7012556 L71.9695965,0.844112783 C70.7118525,0.305079649 69.2881475,0.305079649 68.0304035,0.844112783 L3.03040351,28.7012556 C1.19198427,29.4891496 1.53141027e-15,31.2968402 0,33.2969808 Z" id="path-1"></path>
        <linearGradient x1="50%" y1="0%" x2="50%" y2="100%" id="linearGradient-3">
            <stop stop-color="#4E4E57" offset="0%"></stop>
            <stop stop-color="#2E2E34" offset="100%"></stop>
        </linearGradient>
        <path d="M68.0304035,0.844112783 C69.2042979,0.341015192 70.5227628,0.307475352 71.7159332,0.743493264 L71.9695965,0.844112783 L136.969596,28.7012556 C138.737307,29.458846 139.907353,31.1592957 139.994741,33.0670965 L140,33.2969808 L140,100 C140,138.66 108.66002,170 70.0002438,170 C31.7265826,170 0.627531629,139.283666 0.00937797431,101.15758 L0,100 L0,33.2969808 C0,31.3737687 1.10205646,29.6284874 2.82117804,28.7966451 L3.03040351,28.7012556 L68.0304035,0.844112783 Z M70,5.43983793 L5,33.2969808 L5,100 C5,135.898618 34.1014459,165 70.0002438,165 C105.53964,165 134.417293,136.477667 134.991292,101.074895 L135,100 L135,33.2969808 L70,5.43983793 Z" id="path-4"></path>
        <filter x="-11.5%" y="-11.5%" width="123.0%" height="123.0%" filterUnits="objectBoundingBox" id="filter-6">
            <feOffset dx="0" dy="2" in="SourceAlpha" result="shadowOffsetOuter1"></feOffset>
            <feGaussianBlur stdDeviation="2" in="shadowOffsetOuter1" result="shadowBlurOuter1"></feGaussianBlur>
            <feColorMatrix values="0 0 0 0 0   0 0 0 0 0   0 0 0 0 0  0 0 0 0.1 0" type="matrix" in="shadowBlurOuter1" result="shadowMatrixOuter1"></feColorMatrix>
            <feMerge>
                <feMergeNode in="shadowMatrixOuter1"></feMergeNode>
                <feMergeNode in="SourceGraphic"></feMergeNode>
            </feMerge>
        </filter>
    </defs>
    <g id="Badges" stroke="none" stroke-width="1" fill="none" fill-rule="evenodd">
        <g id="Deploy-and-maintain-data-in-Power-BI" transform="translate(-135.000000, -40.000000)">
            <g id="Deploy-and-maintain-data-in-Power-BI/Deploy-and-maintain-data-in-Power-BI" transform="translate(142.000000, 72.000000)">
                <g id="Trophy-Plates/Round-Shield" transform="translate(18.000000, 8.000000)">
                    <g id="BG" transform="translate(-20.000000, -35.000000)">
                        <mask id="mask-2" fill="white">
                            <use xlink:href="#path-1"></use>
                        </mask>
                        <path stroke="#FFFFFF" stroke-width="5" d="M2.04560526,26.4033931 C0.666790831,26.9943135 -0.469610484,27.9676578 -1.26130819,29.1682982 C-2.0530059,30.3689387 -2.5,31.7968754 -2.5,33.2969808 L-2.5,100 C-2.5,120.020375 5.61483157,138.145388 18.7347908,151.265302 C31.8547252,164.38519 49.97977,172.5 70.0002438,172.5 C90.0204999,172.5 108.145449,164.385168 121.26533,151.265242 C134.385192,138.145334 142.5,120.020345 142.5,100 L142.5,33.2969808 C142.5,31.7968754 142.053006,30.3689387 141.261308,29.1682982 C140.46961,27.9676578 139.333209,26.9943135 137.954395,26.4033931 L72.9543947,-1.45374979 C71.6660213,-2.00590984 70.5928241,-2.97398642 2.04560526,26.4033931 Z"></path>
                        <g id="Colors/Power-BI/BG-Gradient-3" mask="url(#mask-2)" fill="url(#linearGradient-3)">
                            <rect id="Rectangle" x="0" y="0" width="140" height="170"></rect>
                        </g>
                    </g>
                    <g id="Border" transform="translate(-20.000000, -35.000000)">
                        <mask id="mask-5" fill="white">
                            <use xlink:href="#path-4"></use>
                        </mask>
                        <use fill="#000000" fill-rule="nonzero" xlink:href="#path-4"></use>
                        <g id="Colors/Power-BI/Border" mask="url(#mask-5)" fill="#F3C900">
                            <rect id="Rectangle" x="0" y="0" width="140" height="170"></rect>
                        </g>
                    </g>
                </g>
                <path d="M26.5778791,29.8718446 C25.8175222,29.8718446 25.224351,29.5425631 24.7983475,28.8839903 C24.372344,28.2254175 24.1593455,27.2735602 24.1593455,26.0283898 C24.1593455,24.6608616 24.3816786,23.626234 24.8263516,22.9244761 C25.2710245,22.2227183 25.912566,21.8718446 26.7509952,21.8718446 C28.3565701,21.8718446 29.1593455,23.1943685 29.1593455,25.8394559 C29.1593455,27.149404 28.9327693,28.1489441 28.4796102,28.8381064 C28.0264511,29.5272686 27.3925471,29.8718446 26.5778791,29.8718446 Z M26.700684,22.8718446 C25.6731198,22.8718446 25.1593455,23.9050777 25.1593455,25.971575 C25.1593455,27.9050977 25.6632774,28.8718446 26.6711565,28.8718446 C27.6632874,28.8718446 28.1593455,27.8889254 28.1593455,25.9230575 C28.1593455,23.8889054 27.6731298,22.8718446 26.700684,22.8718446 Z M36.6394578,22.1679766 L36.6394578,30.1679766 L35.3336417,30.1679766 L35.3336417,23.717772 C35.0972428,23.8814836 34.8430239,24.0206363 34.5709775,24.1352345 C34.2989311,24.2498326 33.9884277,24.3507866 33.6394578,24.4380994 L33.6394578,23.3576083 C33.8570949,23.2884856 34.0672242,23.215726 34.2698518,23.1393272 C34.4724795,23.0629285 34.6722899,22.9774359 34.869289,22.882847 C35.0662881,22.7882581 35.2651604,22.6827566 35.4659119,22.5663395 C35.6666633,22.4499224 35.8739783,22.3171361 36.0878631,22.1679766 L36.6394578,22.1679766 Z M44.2694575,29.7821103 C43.5091007,29.7821103 42.9159294,29.4528289 42.4899259,28.7942561 C42.0639225,28.1356833 41.8509239,27.1838259 41.8509239,25.9386555 C41.8509239,24.5711273 42.073257,23.5364998 42.51793,22.8347419 C42.962603,22.132984 43.6041444,21.7821103 44.4425736,21.7821103 C46.0481485,21.7821103 46.8509239,23.1046342 46.8509239,25.7497216 C46.8509239,27.0596697 46.6243478,28.0592099 46.1711887,28.7483721 C45.7180296,29.4375344 45.0841255,29.7821103 44.2694575,29.7821103 Z M43.7102641,22.0507566 C42.6826999,22.0507566 42.1689255,23.0839898 42.1689255,25.1504871 C42.1689255,27.0840098 42.6728575,28.0507566 43.6807366,28.0507566 C44.6728675,28.0507566 45.1689255,27.0678374 45.1689255,25.1019695 C45.1689255,23.0678174 44.6827099,22.0507566 43.7102641,22.0507566 Z M52.9176842,22.028887 L52.9176842,30.028887 L51.6118681,30.028887 L51.6118681,23.5786824 C51.3754691,23.742394 51.1212503,23.8815467 50.8492039,23.9961449 C50.5771575,24.110743 50.2666541,24.2116969 49.9176842,24.2990098 L49.9176842,23.2185187 C50.1353213,23.149396 50.3454506,23.0766364 50.5480782,23.0002376 C50.7507059,22.9238389 50.9505162,22.8383463 51.1475154,22.7437574 C51.3445145,22.6491685 51.5433868,22.543667 51.7441382,22.4272499 C51.9448897,22.3108328 52.1522047,22.1780465 52.3660895,22.028887 L52.9176842,22.028887 Z M60.4983285,31.0563728 C59.7379717,31.0563728 59.1448005,30.7270913 58.718797,30.0685185 C58.2927935,29.4099457 58.0797949,28.4580884 58.0797949,27.212918 C58.0797949,25.8453898 58.3021281,24.8107622 58.7468011,24.1090043 C59.191474,23.4072465 59.8330155,23.0563728 60.6714446,23.0563728 C62.2770195,23.0563728 63.0797949,24.3788967 63.0797949,27.0239841 C63.0797949,28.3339322 62.8532188,29.3334723 62.4000597,30.0226346 C61.9469006,30.7117968 61.3129966,31.0563728 60.4983285,31.0563728 Z M59.9391352,23.3250191 C58.911571,23.3250191 58.3977966,24.3582522 58.3977966,26.4247495 C58.3977966,28.3582722 58.9017285,29.3250191 59.9096076,29.3250191 C60.9017385,29.3250191 61.3977966,28.3420999 61.3977966,26.376232 C61.3977966,24.3420799 60.911581,23.3250191 59.9391352,23.3250191 Z M70.6092627,21.9391528 L70.6092627,29.9391528 L69.3034465,29.9391528 L69.3034465,23.4889481 C69.0670476,23.6526597 68.8128287,23.7918125 68.5407824,23.9064106 C68.268736,24.0210087 67.9582325,24.1219627 67.6092627,24.2092755 L67.6092627,23.1287844 C67.8268998,23.0596617 68.037029,22.9869021 68.2396566,22.9105034 C68.4422843,22.8341046 68.6420947,22.7486121 68.8390938,22.6540232 C69.0360929,22.5594342 69.2349652,22.4539328 69.4357167,22.3375156 C69.6364682,22.2210985 69.8437832,22.0883122 70.0576679,21.9391528 L70.6092627,21.9391528 Z M77.5079086,30.2352848 C76.7475518,30.2352848 76.1543805,29.9060033 75.7283771,29.2474306 C75.3023736,28.5888578 75.089375,27.6370004 75.089375,26.39183 C75.089375,25.0243018 75.3117082,23.9896743 75.7563811,23.2879164 C76.2010541,22.5861585 76.8425955,22.2352848 77.6810247,22.2352848 C79.2865996,22.2352848 80.089375,23.5578087 80.089375,26.2028961 C80.089375,27.5128442 79.8627989,28.5123844 79.4096398,29.2015466 C78.9564807,29.8907089 78.3225767,30.2352848 77.5079086,30.2352848 Z M77.6307136,23.2352848 C76.6031494,23.2352848 76.089375,24.268518 76.089375,26.3350153 C76.089375,28.268538 76.593307,29.2352848 77.601186,29.2352848 C78.593317,29.2352848 79.089375,28.2523656 79.089375,26.2864977 C79.089375,24.2523456 78.6031594,23.2352848 77.6307136,23.2352848 Z M88.3008411,21.8494185 L88.3008411,29.8494185 L86.995025,29.8494185 L86.995025,23.3992139 C86.758626,23.5629255 86.5044072,23.7020782 86.2323608,23.8166763 C85.9603144,23.9312745 85.6498109,24.0322284 85.3008411,24.1195413 L85.3008411,23.0390501 C85.5184782,22.9699275 85.7286074,22.8971679 85.9312351,22.8207691 C86.1338627,22.7443704 86.3336731,22.6588778 86.5306722,22.5642889 C86.7276713,22.4697 86.9265437,22.3641985 87.1272951,22.2477814 C87.3280466,22.1313643 87.5353616,21.9985779 87.7492463,21.8494185 L88.3008411,21.8494185 Z M95.1994871,30.1455505 C94.4391302,30.1455505 93.845959,29.8162691 93.4199555,29.1576963 C92.993952,28.4991235 92.7809535,27.5472662 92.7809535,26.3020958 C92.7809535,24.9345675 93.0032866,23.89994 93.4479596,23.1981821 C93.8926325,22.4964242 94.534174,22.1455505 95.3726032,22.1455505 C96.9781781,22.1455505 97.7809535,23.4680744 97.7809535,26.1131619 C97.7809535,27.4231099 97.5543773,28.4226501 97.1012182,29.1118124 C96.6480591,29.8009746 96.0141551,30.1455505 95.1994871,30.1455505 Z M94.6402937,22.4141968 C93.6127295,22.4141968 93.0989551,23.44743 93.0989551,25.5139273 C93.0989551,27.44745 93.6028871,28.4141968 94.6107661,28.4141968 C95.6028971,28.4141968 96.0989551,27.4312776 96.0989551,25.4654098 C96.0989551,23.4312576 95.6127395,22.4141968 94.6402937,22.4141968 Z M103.847714,22.3923273 L103.847714,30.3923273 L102.541898,30.3923273 L102.541898,23.9421226 C102.305499,24.1058342 102.05128,24.244987 101.779233,24.3595851 C101.507187,24.4741832 101.196684,24.5751372 100.847714,24.66245 L100.847714,23.5819589 C101.065351,23.5128362 101.27548,23.4400766 101.478108,23.3636779 C101.680735,23.2872791 101.880546,23.2017866 102.077545,23.1071976 C102.274544,23.0126087 102.473416,22.9071073 102.674168,22.7906901 C102.874919,22.674273 103.082234,22.5414867 103.296119,22.3923273 L103.847714,22.3923273 Z M19.8183227,37.8539389 L19.8183227,45.8539389 L18.5125066,45.8539389 L18.5125066,39.4037343 C18.2761076,39.5674459 18.0218888,39.7065986 17.7498424,39.8211967 C17.477796,39.9357949 17.1672925,40.0367488 16.8183227,40.1240617 L16.8183227,39.0435706 C17.0359598,38.9744479 17.246089,38.9016883 17.4487167,38.8252895 C17.6513443,38.7488908 17.8511547,38.6633982 18.0481538,38.5688093 C18.2451529,38.4742204 18.4440253,38.3687189 18.6447767,38.2523018 C18.8455282,38.1358847 19.0528432,38.0030984 19.2667279,37.8539389 L19.8183227,37.8539389 Z M26.885083,46.1007156 L25.5792669,46.1007156 L25.5792669,39.650511 C25.3428679,39.8142226 25.0886491,39.9533753 24.8166027,40.0679735 C24.5445563,40.1825716 24.2340529,40.2835255 23.885083,40.3708384 L23.885083,39.2903473 C24.1027201,39.2212246 24.3128493,39.148465 24.515477,39.0720662 C24.7181047,38.9956675 24.917915,38.9101749 25.1149141,38.815586 C25.3119133,38.7209971 25.5107856,38.6154956 25.711537,38.4990785 C25.9122885,38.3826614 26.1196035,38.2498751 26.3334883,38.1007156 L26.885083,46.1007156 Z M34.5150827,45.7148493 C33.7547259,45.7148493 33.1615546,45.3855678 32.7355511,44.726995 C32.3095476,44.0684223 32.0965491,43.1165649 32.0965491,41.8713945 C32.0965491,40.5038663 32.3188822,39.4692388 32.7635552,38.7674809 C33.2082281,38.065723 33.8497696,37.7148493 34.6881988,37.7148493 C36.2937737,37.7148493 37.0965491,39.0373732 37.0965491,41.6824606 C37.0965491,42.9924087 36.8699729,43.9919489 36.4168138,44.6811111 C35.9636548,45.3702733 35.3297507,45.7148493 34.5150827,45.7148493 Z M34.6378877,38.7148493 C33.6103235,38.7148493 33.0965491,39.7480825 33.0965491,41.8145798 C33.0965491,43.7481025 33.600481,44.7148493 34.6083601,44.7148493 C35.600491,44.7148493 36.0965491,43.7319301 36.0965491,41.7660622 C36.0965491,39.7319101 35.6103335,38.7148493 34.6378877,38.7148493 Z M43.8946631,37.2796276 L43.8946631,45.2796276 L42.5888469,45.2796276 L42.5888469,38.829423 C42.352448,38.9931346 42.0982292,39.1322874 41.8261828,39.2468855 C41.5541364,39.3614836 41.2436329,39.4624376 40.8946631,39.5497504 L40.8946631,38.4692593 C41.1123002,38.4001366 41.3224294,38.327377 41.5250571,38.2509783 C41.7276847,38.1745795 41.9274951,38.089087 42.1244942,37.994498 C42.3214933,37.8999091 42.5203656,37.7944077 42.7211171,37.6779905 C42.9218686,37.5615734 43.1291836,37.4287871 43.3430683,37.2796276 L43.8946631,37.2796276 Z M52.2066611,45.625115 C51.4463043,45.625115 50.853133,45.2958336 50.4271296,44.6372608 C50.0011261,43.978688 49.7881275,43.0268307 49.7881275,41.7816602 C49.7881275,40.414132 50.0104607,39.3795045 50.4551336,38.6777466 C50.8998066,37.9759887 51.541348,37.625115 52.3797772,37.625115 C53.9853521,37.625115 54.7881275,38.9476389 54.7881275,41.5927264 C54.7881275,42.9026744 54.5615514,43.9022146 54.1083923,44.5913768 C53.6552332,45.2805391 53.0213291,45.625115 52.2066611,45.625115 Z M51.6474677,37.8937613 C50.6199035,37.8937613 50.1061292,38.9269945 50.1061292,40.9934918 C50.1061292,42.9270145 50.6100611,43.8937613 51.6179402,43.8937613 C52.6100711,43.8937613 53.1061292,42.9108421 53.1061292,40.9449743 C53.1061292,38.9108221 52.6199135,37.8937613 51.6474677,37.8937613 Z M61.5862415,37.1898934 L61.5862415,45.1898934 L60.2804254,45.1898934 L60.2804254,38.7396887 C60.0440265,38.9034003 59.7898076,39.0425531 59.5177612,39.1571512 C59.2457148,39.2717493 58.9352114,39.3727033 58.5862415,39.4600162 L58.5862415,38.379525 C58.8038786,38.3104024 59.0140079,38.2376427 59.2166355,38.161244 C59.4192632,38.0848453 59.6190736,37.9993527 59.8160727,37.9047638 C60.0130718,37.8101749 60.2119441,37.7046734 60.4126956,37.5882563 C60.613447,37.4718391 60.820762,37.3390528 61.0346468,37.1898934 L61.5862415,37.1898934 Z M67.8028891,44.7546717 C67.0425323,44.7546717 66.4493611,44.4253903 66.0233576,43.7668175 C65.5973541,43.1082447 65.3843555,42.1563874 65.3843555,40.9112169 C65.3843555,39.5436887 65.6066887,38.5090612 66.0513616,37.8073033 C66.4960346,37.1055454 67.1375761,36.7546717 67.9760052,36.7546717 C69.5815801,36.7546717 70.3843555,38.0771956 70.3843555,40.7222831 C70.3843555,42.0322311 70.1577794,43.0317713 69.7046203,43.7209335 C69.2514612,44.4100958 68.6175572,44.7546717 67.8028891,44.7546717 Z M68.6076925,38.4860254 C67.5801283,38.4860254 67.0663539,39.5192586 67.0663539,41.5857559 C67.0663539,43.5192786 67.5702859,44.4860254 68.5781649,44.4860254 C69.5702959,44.4860254 70.0663539,43.5031062 70.0663539,41.5372384 C70.0663539,39.5030862 69.5801383,38.4860254 68.6076925,38.4860254 Z M78.5464663,37.7821575 L78.5464663,45.7821575 L77.2406501,45.7821575 L77.2406501,39.3319528 C77.0042512,39.4956644 76.7500324,39.6348172 76.477986,39.7494153 C76.2059396,39.8640134 75.8954361,39.9649674 75.5464663,40.0522803 L75.5464663,38.9717891 C75.7641034,38.9026665 75.9742326,38.8299068 76.1768603,38.7535081 C76.3794879,38.6771094 76.5792983,38.5916168 76.7762974,38.4970279 C76.9732965,38.402439 77.1721688,38.2969375 77.3729203,38.1805204 C77.5736718,38.0641032 77.7809868,37.9313169 77.9948715,37.7821575 L78.5464663,37.7821575 Z M84.7631139,45.3469358 C84.0027571,45.3469358 83.4095858,45.0176544 82.9835823,44.3590816 C82.5575788,43.7005088 82.3445803,42.7486515 82.3445803,41.503481 C82.3445803,40.1359528 82.5669134,39.1013253 83.0115864,38.3995674 C83.4562593,37.6978095 84.0978008,37.3469358 84.93623,37.3469358 C86.5418049,37.3469358 87.3445803,38.6694597 87.3445803,41.3145472 C87.3445803,42.6244952 87.1180041,43.6240354 86.664845,44.3131976 C86.211686,45.0023599 85.5777819,45.3469358 84.7631139,45.3469358 Z M85.5679172,39.0782895 C84.540353,39.0782895 84.0265786,40.1115227 84.0265786,42.17802 C84.0265786,44.1115427 84.5305106,45.0782895 85.5383897,45.0782895 C86.5305206,45.0782895 87.0265786,44.0953703 87.0265786,42.1295025 C87.0265786,40.0953503 86.540363,39.0782895 85.5679172,39.0782895 Z M95.5560463,36.9610695 L95.5560463,44.9610695 L94.2502302,44.9610695 L94.2502302,38.5108649 C94.0138313,38.6745765 93.7596124,38.8137292 93.487566,38.9283274 C93.2155197,39.0429255 92.9050162,39.1438795 92.5560463,39.2311923 L92.5560463,38.1507012 C92.7736835,38.0815785 92.9838127,38.0088189 93.1864403,37.9324201 C93.389068,37.8560214 93.5888784,37.7705288 93.7858775,37.6759399 C93.9828766,37.581351 94.1817489,37.4758495 94.3825004,37.3594324 C94.5832519,37.2430153 94.7905669,37.110229 95.0044516,36.9610695 L95.5560463,36.9610695 Z M102.454692,45.2572016 C101.694335,45.2572016 101.101164,44.9279201 100.675161,44.2693473 C100.249157,43.6107745 100.036159,42.6589172 100.036159,41.4137468 C100.036159,40.0462186 100.258492,39.011591 100.703165,38.3098331 C101.147838,37.6080753 101.789379,37.2572016 102.627808,37.2572016 C104.233383,37.2572016 105.036159,38.5797255 105.036159,41.2248129 C105.036159,42.534761 104.809583,43.5343011 104.356423,44.2234634 C103.903264,44.9126256 103.26936,45.2572016 102.454692,45.2572016 Z M102.577497,38.2572016 C101.549933,38.2572016 101.036159,39.2904347 101.036159,41.356932 C101.036159,43.2904547 101.540091,44.2572016 102.54797,44.2572016 C103.540101,44.2572016 104.036159,43.2742824 104.036159,41.3084145 C104.036159,39.2742624 103.549943,38.2572016 102.577497,38.2572016 Z M111.784917,38.235332 L111.784917,46.235332 L110.479101,46.235332 L110.479101,39.7851273 C110.242702,39.9488389 109.988483,40.0879917 109.716437,40.2025898 C109.444391,40.3171879 109.133887,40.4181419 108.784917,40.5054548 L108.784917,39.4249636 C109.002554,39.355841 109.212684,39.2830813 109.415311,39.2066826 C109.617939,39.1302838 109.817749,39.0447913 110.014749,38.9502024 C110.211748,38.8556135 110.41062,38.750112 110.611371,38.6336949 C110.812123,38.5172777 111.019438,38.3844914 111.233323,38.235332 L111.784917,38.235332 Z M19.1566549,60.0368149 C18.3962981,60.0368149 17.8031269,59.7075334 17.3771234,59.0489606 C16.9511199,58.3903878 16.7381213,57.4385305 16.7381213,56.1933601 C16.7381213,54.8258319 16.9604545,53.7912043 17.4051274,53.0894464 C17.8498004,52.3876885 18.4913419,52.0368149 19.329771,52.0368149 C20.9353459,52.0368149 21.7381213,53.3593387 21.7381213,56.0044262 C21.7381213,57.3143743 21.5115452,58.3139144 21.0583861,59.0030767 C20.605227,59.6922389 19.971323,60.0368149 19.1566549,60.0368149 Z M19.9614583,53.7681686 C18.9338941,53.7681686 18.4201197,54.8014017 18.4201197,56.867899 C18.4201197,58.8014217 18.9240517,59.7681686 19.9319307,59.7681686 C20.9240617,59.7681686 21.4201197,58.7852494 21.4201197,56.8193815 C21.4201197,54.7852294 20.9339041,53.7681686 19.9614583,53.7681686 Z M29.1688784,53.746299 L29.1688784,61.746299 L27.8630622,61.746299 L27.8630622,55.2960943 C27.6266633,55.4598059 27.3724445,55.5989587 27.1003981,55.7135568 C26.8283517,55.8281549 26.5178482,55.9291089 26.1688784,56.0164218 L26.1688784,54.9359306 C26.3865155,54.8668079 26.5966447,54.7940483 26.7992724,54.7176496 C27.0019,54.6412508 27.2017104,54.5557583 27.3987095,54.4611694 C27.5957086,54.3665804 27.7945809,54.261079 27.9953324,54.1446619 C28.1960839,54.0282447 28.4033989,53.8954584 28.6172836,53.746299 L29.1688784,53.746299 Z M36.1168797,60.629079 C35.3565229,60.629079 34.7633516,60.2997975 34.3373481,59.6412247 C33.9113446,58.9826519 33.6983461,58.0307946 33.6983461,56.7856242 C33.6983461,55.418096 33.9206792,54.3834684 34.3653522,53.6817105 C34.8100252,52.9799526 35.4515666,52.629079 36.2899958,52.629079 C37.8955707,52.629079 38.6983461,53.9516028 38.6983461,56.5966903 C38.6983461,57.9066384 38.4717699,58.9061785 38.0186108,59.5953408 C37.5654518,60.284503 36.9315477,60.629079 36.1168797,60.629079 Z M36.921683,54.3604327 C35.8941188,54.3604327 35.3803444,55.3936658 35.3803444,57.4601631 C35.3803444,59.3936858 35.8842764,60.3604327 36.8921555,60.3604327 C37.8842864,60.3604327 38.3803444,59.3775135 38.3803444,57.4116456 C38.3803444,55.3774935 37.8941288,54.3604327 36.921683,54.3604327 Z M45.4964601,52.1938573 L45.4964601,60.1938573 L44.190644,60.1938573 L44.190644,53.7436527 C43.954245,53.9073643 43.7000262,54.046517 43.4279798,54.1611152 C43.1559334,54.2757133 42.8454299,54.3766672 42.4964601,54.4639801 L42.4964601,53.383489 C42.7140972,53.3143663 42.9242264,53.2416067 43.1268541,53.1652079 C43.3294817,53.0888092 43.5292921,53.0033166 43.7262912,52.9087277 C43.9232903,52.8141388 44.1221627,52.7086373 44.3229141,52.5922202 C44.5236656,52.4758031 44.7309806,52.3430168 44.9448653,52.1938573 L45.4964601,52.1938573 Z M53.0771044,61.2213431 C52.3167476,61.2213431 51.7235763,60.8920616 51.2975729,60.2334888 C50.8715694,59.574916 50.6585708,58.6230587 50.6585708,57.3778883 C50.6585708,56.0103601 50.880904,54.9757325 51.3255769,54.2739746 C51.7702499,53.5722167 52.4117913,53.2213431 53.2502205,53.2213431 C54.8557954,53.2213431 55.6585708,54.5438669 55.6585708,57.1889544 C55.6585708,58.4989025 55.4319947,59.4984426 54.9788356,60.1876049 C54.5256765,60.8767671 53.8917724,61.2213431 53.0771044,61.2213431 Z M53.1999094,54.2213431 C52.1723452,54.2213431 51.6585708,55.2545762 51.6585708,57.3210735 C51.6585708,59.2545962 52.1625028,60.2213431 53.1703818,60.2213431 C54.1625128,60.2213431 54.6585708,59.2384239 54.6585708,57.272556 C54.6585708,55.2384039 54.1723552,54.2213431 53.1999094,54.2213431 Z M62.4566848,52.7861214 L62.4566848,60.7861214 L61.1508687,60.7861214 L61.1508687,54.3359168 C60.9144698,54.4996284 60.6602509,54.6387811 60.3882045,54.7533792 C60.1161581,54.8679774 59.8056547,54.9689313 59.4566848,55.0562442 L59.4566848,53.9757531 C59.6743219,53.9066304 59.8844512,53.8338708 60.0870788,53.757472 C60.2897065,53.6810733 60.4895169,53.5955807 60.686516,53.5009918 C60.8835151,53.4064029 61.0823874,53.3009014 61.2831389,53.1844843 C61.4838903,53.0680672 61.6912053,52.9352809 61.9050901,52.7861214 L62.4566848,52.7861214 Z M69.3553308,61.0822535 C68.594974,61.0822535 68.0018027,60.752972 67.5757992,60.0943992 C67.1497957,59.4358264 66.9367972,58.4839691 66.9367972,57.2387987 C66.9367972,55.8712705 67.1591303,54.8366429 67.6038033,54.134885 C68.0484763,53.4331271 68.6900177,53.0822535 69.5284469,53.0822535 C71.1340218,53.0822535 71.9367972,54.4047773 71.9367972,57.0498648 C71.9367972,58.3598129 71.7102211,59.359353 71.257062,60.0485153 C70.8039029,60.7376775 70.1699988,61.0822535 69.3553308,61.0822535 Z M70.1601341,54.8136072 C69.1325699,54.8136072 68.6187956,55.8468403 68.6187956,57.9133376 C68.6187956,59.8468603 69.1227275,60.8136072 70.1306066,60.8136072 C71.1227375,60.8136072 71.6187956,59.830688 71.6187956,57.8648201 C71.6187956,55.830668 71.1325799,54.8136072 70.1601341,54.8136072 Z M79.4662649,51.9650334 L79.4662649,59.9650334 L78.1604488,59.9650334 L78.1604488,53.5148288 C77.9240498,53.6785404 77.669831,53.8176932 77.3977846,53.9322913 C77.1257382,54.0468894 76.8152348,54.1478434 76.4662649,54.2351562 L76.4662649,53.1546651 C76.683902,53.0855424 76.8940313,53.0127828 77.0966589,52.9363841 C77.2992866,52.8599853 77.4990969,52.7744928 77.6960961,52.6799038 C77.8930952,52.5853149 78.0919675,52.4798135 78.2927189,52.3633963 C78.4934704,52.2469792 78.7007854,52.1141929 78.9146702,51.9650334 L79.4662649,51.9650334 Z M87.0469092,60.9925192 C86.2865524,60.9925192 85.6933812,60.6632377 85.2673777,60.0046649 C84.8413742,59.3460921 84.6283756,58.3942348 84.6283756,57.1490644 C84.6283756,55.7815362 84.8507088,54.7469087 85.2953818,54.0451508 C85.7400547,53.3433929 86.3815962,52.9925192 87.2200253,52.9925192 C88.8256002,52.9925192 89.6283756,54.3150431 89.6283756,56.9601305 C89.6283756,58.2700786 89.4017995,59.2696188 88.9486404,59.958781 C88.4954813,60.6479432 87.8615773,60.9925192 87.0469092,60.9925192 Z M87.8517126,54.7238729 C86.8241484,54.7238729 86.310374,55.757106 86.310374,57.8236034 C86.310374,59.757126 86.814306,60.7238729 87.822185,60.7238729 C88.814316,60.7238729 89.310374,59.7409537 89.310374,57.7750858 C89.310374,55.7409337 88.8241584,54.7238729 87.8517126,54.7238729 Z M97.1578434,51.8752992 L97.1578434,59.8752992 L95.8520272,59.8752992 L95.8520272,53.4250945 C95.6156283,53.5888061 95.3614094,53.7279589 95.0893631,53.842557 C94.8173167,53.9571551 94.5068132,54.0581091 94.1578434,54.145422 L94.1578434,53.0649308 C94.3754805,52.9958082 94.5856097,52.9230485 94.7882373,52.8466498 C94.990865,52.770251 95.1906754,52.6847585 95.3876745,52.5901696 C95.5846736,52.4955807 95.7835459,52.3900792 95.9842974,52.2736621 C96.1850489,52.1572449 96.3923639,52.0244586 96.6062486,51.8752992 L97.1578434,51.8752992 Z M104.738488,60.9027849 C103.978131,60.9027849 103.38496,60.5735035 102.958956,59.9149307 C102.532953,59.2563579 102.319954,58.3045006 102.319954,57.0593301 C102.319954,55.6918019 102.542287,54.6571744 102.98696,53.9554165 C103.431633,53.2536586 104.073175,52.9027849 104.911604,52.9027849 C106.517179,52.9027849 107.319954,54.2253088 107.319954,56.8703963 C107.319954,58.1803443 107.093378,59.1798845 106.640219,59.8690467 C106.18706,60.558209 105.553156,60.9027849 104.738488,60.9027849 Z M104.179294,53.1714312 C103.15173,53.1714312 102.637956,54.2046644 102.637956,56.2711617 C102.637956,58.2046844 103.141888,59.1714312 104.149767,59.1714312 C105.141898,59.1714312 105.637956,58.188512 105.637956,56.2226442 C105.637956,54.188492 105.15174,53.1714312 104.179294,53.1714312 Z M113.386714,53.1495616 L113.386714,61.1495616 L112.080898,61.1495616 L112.080898,54.699357 C111.844499,54.8630686 111.59028,55.0022214 111.318234,55.1168195 C111.046188,55.2314176 110.735684,55.3323716 110.386714,55.4196844 L110.386714,54.3391933 C110.604352,54.2700706 110.814481,54.197311 111.017108,54.1209123 C111.219736,54.0445135 111.419546,53.959021 111.616546,53.864432 C111.813545,53.7698431 112.012417,53.6643417 112.213168,53.5479245 C112.41392,53.4315074 112.621235,53.2987211 112.83512,53.1495616 L113.386714,53.1495616 Z M19.2957445,76.3150412 C18.5353877,76.3150412 17.9422165,75.9857598 17.516213,75.327187 C17.0902095,74.6686142 16.8772109,73.7167569 16.8772109,72.4715864 C16.8772109,71.1040582 17.0995441,70.0694307 17.5442171,69.3676728 C17.98889,68.6659149 18.6304315,68.3150412 19.4688606,68.3150412 C21.0744355,68.3150412 21.8772109,69.6375651 21.8772109,72.2826526 C21.8772109,73.5926006 21.6506348,74.5921408 21.1974757,75.281303 C20.7443166,75.9704653 20.1104126,76.3150412 19.2957445,76.3150412 Z M20.1005479,70.0463949 C19.0729837,70.0463949 18.5592093,71.0796281 18.5592093,73.1461254 C18.5592093,75.0796481 19.0631413,76.0463949 20.0710203,76.0463949 C21.0631513,76.0463949 21.5592093,75.0634757 21.5592093,73.0976079 C21.5592093,71.0634557 21.0729937,70.0463949 20.1005479,70.0463949 Z M28.675325,67.8798196 L28.675325,75.8798196 L27.3695088,75.8798196 L27.3695088,69.4296149 C27.1331099,69.5933265 26.878891,69.7324793 26.6068447,69.8470774 C26.3347983,69.9616755 26.0242948,70.0626295 25.675325,70.1499424 L25.675325,69.0694512 C25.8929621,69.0003286 26.1030913,68.9275689 26.3057189,68.8511702 C26.5083466,68.7747715 26.708157,68.6892789 26.9051561,68.59469 C27.1021552,68.5001011 27.3010275,68.3945996 27.501779,68.2781825 C27.7025305,68.1617653 27.9098455,68.028979 28.1237302,67.8798196 L28.675325,67.8798196 Z M36.2559693,76.9073053 C35.4956125,76.9073053 34.9024412,76.5780239 34.4764377,75.9194511 C34.0504342,75.2608783 33.8374357,74.309021 33.8374357,73.0638505 C33.8374357,71.6963223 34.0597688,70.6616948 34.5044418,69.9599369 C34.9491148,69.258179 35.5906562,68.9073053 36.4290854,68.9073053 C38.0346603,68.9073053 38.8374357,70.2298292 38.8374357,72.8749167 C38.8374357,74.1848647 38.6108595,75.1844049 38.1577004,75.8735671 C37.7045414,76.5627294 37.0706373,76.9073053 36.2559693,76.9073053 Z M35.6967759,69.1759516 C34.6692117,69.1759516 34.1554373,70.2091848 34.1554373,72.2756821 C34.1554373,74.2092048 34.6593693,75.1759516 35.6672483,75.1759516 C36.6593793,75.1759516 37.1554373,74.1930324 37.1554373,72.2271646 C37.1554373,70.1930124 36.6692217,69.1759516 35.6967759,69.1759516 Z M46.3669034,67.7900853 L46.3669034,75.7900853 L45.0610873,75.7900853 L45.0610873,69.3398807 C44.8246883,69.5035923 44.5704695,69.6427451 44.2984231,69.7573432 C44.0263767,69.8719413 43.7158732,69.9728953 43.3669034,70.0602081 L43.3669034,68.979717 C43.5845405,68.9105943 43.7946697,68.8378347 43.9972974,68.7614359 C44.199925,68.6850372 44.3997354,68.5995446 44.5967345,68.5049557 C44.7937336,68.4103668 44.992606,68.3048654 45.1933574,68.1884482 C45.3941089,68.0720311 45.6014239,67.9392448 45.8153086,67.7900853 L46.3669034,67.7900853 Z M53.2655494,76.0862174 C52.5051925,76.0862174 51.9120213,75.7569359 51.4860178,75.0983631 C51.0600143,74.4397903 50.8470158,73.487933 50.8470158,72.2427626 C50.8470158,70.8752344 51.0693489,69.8406068 51.5140219,69.138849 C51.9586948,68.4370911 52.6002363,68.0862174 53.4386655,68.0862174 C55.0442404,68.0862174 55.8470158,69.4087413 55.8470158,72.0538287 C55.8470158,73.3637768 55.6204396,74.3633169 55.1672805,75.0524792 C54.7141214,75.7416414 54.0802174,76.0862174 53.2655494,76.0862174 Z M53.3883543,69.0862174 C52.3607902,69.0862174 51.8470158,70.1194505 51.8470158,72.1859478 C51.8470158,74.1194705 52.3509477,75.0862174 53.3588268,75.0862174 C54.3509577,75.0862174 54.8470158,74.1032982 54.8470158,72.1374303 C54.8470158,70.1032782 54.3608002,69.0862174 53.3883543,69.0862174 Z M61.9137761,68.3329941 L61.9137761,76.3329941 L60.6079599,76.3329941 L60.6079599,69.8827894 C60.371561,70.046501 60.1173422,70.1856538 59.8452958,70.3002519 C59.5732494,70.41485 59.2627459,70.515804 58.9137761,70.6031169 L58.9137761,69.5226257 C59.1314132,69.4535031 59.3415424,69.3807434 59.5441701,69.3043447 C59.7467977,69.227946 59.9466081,69.1424534 60.1436072,69.0478645 C60.3406063,68.9532756 60.5394786,68.8477741 60.7402301,68.731357 C60.9409816,68.6149398 61.1482966,68.4821535 61.3621813,68.3329941 L61.9137761,68.3329941 Z M70.2257741,76.6784815 C69.4654173,76.6784815 68.872246,76.3492 68.4462425,75.6906272 C68.0202391,75.0320544 67.8072405,74.0801971 67.8072405,72.8350267 C67.8072405,71.4674985 68.0295737,70.4328709 68.4742466,69.7311131 C68.9189196,69.0293552 69.560461,68.6784815 70.3988902,68.6784815 C72.0044651,68.6784815 72.8072405,70.0010054 72.8072405,72.6460928 C72.8072405,73.9560409 72.5806644,74.955581 72.1275053,75.6447433 C71.6743462,76.3339055 71.0404421,76.6784815 70.2257741,76.6784815 Z M69.6665807,68.9471278 C68.6390165,68.9471278 68.1252421,69.9803609 68.1252421,72.0468582 C68.1252421,73.9803809 68.6291741,74.9471278 69.6370532,74.9471278 C70.6291841,74.9471278 71.1252421,73.9642086 71.1252421,71.9983407 C71.1252421,69.9641886 70.6390265,68.9471278 69.6665807,68.9471278 Z M79.6053545,68.2432598 L79.6053545,76.2432598 L78.2995384,76.2432598 L78.2995384,69.7930552 C78.0631394,69.9567668 77.8089206,70.0959195 77.5368742,70.2105177 C77.2648278,70.3251158 76.9543244,70.4260698 76.6053545,70.5133826 L76.6053545,69.4328915 C76.8229916,69.3637688 77.0331209,69.2910092 77.2357485,69.2146104 C77.4383762,69.1382117 77.6381865,69.0527191 77.8351857,68.9581302 C78.0321848,68.8635413 78.2310571,68.7580398 78.4318085,68.6416227 C78.63256,68.5252056 78.839875,68.3924193 79.0537598,68.2432598 L79.6053545,68.2432598 Z M87.9173526,76.5887472 C87.1569957,76.5887472 86.5638245,76.2594658 86.137821,75.600893 C85.7118175,74.9423202 85.4988189,73.9904628 85.4988189,72.7452924 C85.4988189,71.3777642 85.7211521,70.3431367 86.1658251,69.6413788 C86.610498,68.9396209 87.2520395,68.5887472 88.0904686,68.5887472 C89.6960435,68.5887472 90.4988189,69.9112711 90.4988189,72.5563585 C90.4988189,73.8663066 90.2722428,74.8658468 89.8190837,75.555009 C89.3659246,76.2441713 88.7320206,76.5887472 87.9173526,76.5887472 Z M87.3581592,68.8573935 C86.330595,68.8573935 85.8168206,69.8906267 85.8168206,71.957124 C85.8168206,73.8906467 86.3207526,74.8573935 87.3286316,74.8573935 C88.3207626,74.8573935 88.8168206,73.8744743 88.8168206,71.9086064 C88.8168206,69.8744543 88.330605,68.8573935 87.3581592,68.8573935 Z M96.5655793,68.8355239 L96.5655793,76.8355239 L95.2597631,76.8355239 L95.2597631,70.3853193 C95.0233642,70.5490309 94.7691453,70.6881836 94.497099,70.8027818 C94.2250526,70.9173799 93.9145491,71.0183339 93.5655793,71.1056467 L93.5655793,70.0251556 C93.7832164,69.9560329 93.9933456,69.8832733 94.1959733,69.8068745 C94.3986009,69.7304758 94.5984113,69.6449832 94.7954104,69.5503943 C94.9924095,69.4558054 95.1912818,69.3503039 95.3920333,69.2338868 C95.5927848,69.1174697 95.8000998,68.9846834 96.0139845,68.8355239 L96.5655793,68.8355239 Z M103.464225,77.131656 C102.703868,77.131656 102.110697,76.8023745 101.684694,76.1438017 C101.25869,75.4852289 101.045692,74.5333716 101.045692,73.2882012 C101.045692,71.920673 101.268025,70.8860454 101.712698,70.1842875 C102.157371,69.4825297 102.798912,69.131656 103.637341,69.131656 C105.242916,69.131656 106.045692,70.4541799 106.045692,73.0992673 C106.045692,74.4092154 105.819115,75.4087555 105.365956,76.0979178 C104.912797,76.78708 104.278893,77.131656 103.464225,77.131656 Z M103.58703,70.131656 C102.559466,70.131656 102.045692,71.1648891 102.045692,73.2313864 C102.045692,75.1649091 102.549624,76.131656 103.557503,76.131656 C104.549634,76.131656 105.045692,75.1487368 105.045692,73.1828689 C105.045692,71.1487168 104.559476,70.131656 103.58703,70.131656 Z M113.575159,68.014436 L113.575159,76.014436 L112.269343,76.014436 L112.269343,69.5642313 C112.032944,69.7279429 111.778725,69.8670957 111.506679,69.9816938 C111.234633,70.0962919 110.924129,70.1972459 110.575159,70.2845587 L110.575159,69.2040676 C110.792796,69.1349449 111.002926,69.0621853 111.205553,68.9857866 C111.408181,68.9093878 111.607991,68.8238953 111.80499,68.7293064 C112.00199,68.6347174 112.200862,68.529216 112.401613,68.4127988 C112.602365,68.2963817 112.80968,68.1635954 113.023565,68.014436 L113.575159,68.014436 Z M19.4348341,92.5932676 C18.6744773,92.5932676 18.0813061,92.2639862 17.6553026,91.6054134 C17.2292991,90.9468406 17.0163005,89.9949832 17.0163005,88.7498128 C17.0163005,87.3822846 17.2386337,86.3476571 17.6833067,85.6458992 C18.1279796,84.9441413 18.7695211,84.5932676 19.6079502,84.5932676 C21.2135251,84.5932676 22.0163005,85.9157915 22.0163005,88.560879 C22.0163005,89.870827 21.7897244,90.8703672 21.3365653,91.5595294 C20.8834062,92.2486917 20.2495022,92.5932676 19.4348341,92.5932676 Z M18.8756408,84.8619139 C17.8480766,84.8619139 17.3343022,85.8951471 17.3343022,87.9616444 C17.3343022,89.8951671 17.8382342,90.8619139 18.8461132,90.8619139 C19.8382442,90.8619139 20.3343022,89.8789947 20.3343022,87.9131269 C20.3343022,85.8789747 19.8480866,84.8619139 18.8756408,84.8619139 Z M28.8144146,84.158046 L28.8144146,92.158046 L27.5085984,92.158046 L27.5085984,85.7078413 C27.2721995,85.8715529 27.0179806,86.0107057 26.7459343,86.1253038 C26.4738879,86.2399019 26.1633844,86.3408559 25.8144146,86.4281688 L25.8144146,85.3476776 C26.0320517,85.2785549 26.2421809,85.2057953 26.4448086,85.1293966 C26.6474362,85.0529978 26.8472466,84.9675053 27.0442457,84.8729164 C27.2412448,84.7783274 27.4401171,84.672826 27.6408686,84.5564089 C27.8416201,84.4399917 28.0489351,84.3072054 28.2628198,84.158046 L28.8144146,84.158046 Z M36.4444142,91.7721797 C35.6840574,91.7721797 35.0908862,91.4428982 34.6648827,90.7843254 C34.2388792,90.1257526 34.0258806,89.1738953 34.0258806,87.9287249 C34.0258806,86.5611967 34.2482138,85.5265691 34.6928867,84.8248112 C35.1375597,84.1230533 35.7791011,83.7721797 36.6175303,83.7721797 C38.2231052,83.7721797 39.0258806,85.0947035 39.0258806,87.739791 C39.0258806,89.0497391 38.7993045,90.0492792 38.3461454,90.7384415 C37.8929863,91.4276037 37.2590823,91.7721797 36.4444142,91.7721797 Z M36.5672192,84.7721797 C35.539655,84.7721797 35.0258806,85.8054128 35.0258806,87.8719101 C35.0258806,89.8054328 35.5298126,90.7721797 36.5376917,90.7721797 C37.5298226,90.7721797 38.0258806,89.7892605 38.0258806,87.8233926 C38.0258806,85.7892405 37.539665,84.7721797 36.5672192,84.7721797 Z M45.8239946,83.336958 L45.8239946,91.336958 L44.5181785,91.336958 L44.5181785,84.8867534 C44.2817796,85.050465 44.0275607,85.1896177 43.7555143,85.3042158 C43.4834679,85.418814 43.1729645,85.5197679 42.8239946,85.6070808 L42.8239946,84.5265897 C43.0416317,84.457467 43.251761,84.3847074 43.4543886,84.3083086 C43.6570163,84.2319099 43.8568267,84.1464173 44.0538258,84.0518284 C44.2508249,83.9572395 44.4496972,83.851738 44.6504487,83.7353209 C44.8512001,83.6189038 45.0585151,83.4861175 45.2723999,83.336958 L45.8239946,83.336958 Z M54.1359927,91.6824454 C53.3756359,91.6824454 52.7824646,91.3531639 52.3564611,90.6945911 C51.9304576,90.0360184 51.7174591,89.084161 51.7174591,87.8389906 C51.7174591,86.4714624 51.9397922,85.4368349 52.3844652,84.735077 C52.8291381,84.0333191 53.4706796,83.6824454 54.3091088,83.6824454 C55.9146837,83.6824454 56.7174591,85.0049693 56.7174591,87.6500567 C56.7174591,88.9600048 56.4908829,89.959545 56.0377238,90.6487072 C55.5845647,91.3378694 54.9506607,91.6824454 54.1359927,91.6824454 Z M53.5767993,83.9510917 C52.5492351,83.9510917 52.0354607,84.9843248 52.0354607,87.0508222 C52.0354607,88.9843448 52.5393927,89.9510917 53.5472717,89.9510917 C54.5394027,89.9510917 55.0354607,88.9681725 55.0354607,87.0023046 C55.0354607,84.9681525 54.5492451,83.9510917 53.5767993,83.9510917 Z M62.7842194,83.9292221 L62.7842194,91.9292221 L61.4784032,91.9292221 L61.4784032,85.4790175 C61.2420043,85.6427291 60.9877855,85.7818818 60.7157391,85.8964799 C60.4436927,86.0110781 60.1331892,86.112032 59.7842194,86.1993449 L59.7842194,85.1188538 C60.0018565,85.0497311 60.2119857,84.9769715 60.4146134,84.9005727 C60.617241,84.824174 60.8170514,84.7386814 61.0140505,84.6440925 C61.2110496,84.5495036 61.4099219,84.4440021 61.6106734,84.327585 C61.8114249,84.2111679 62.0187399,84.0783816 62.2326246,83.9292221 L62.7842194,83.9292221 Z M70.3648637,92.9567079 C69.6045069,92.9567079 69.0113356,92.6274264 68.5853321,91.9688536 C68.1593287,91.3102808 67.9463301,90.3584235 67.9463301,89.1132531 C67.9463301,87.7457249 68.1686633,86.7110973 68.6133362,86.0093394 C69.0580092,85.3075815 69.6995506,84.9567079 70.5379798,84.9567079 C72.1435547,84.9567079 72.9463301,86.2792317 72.9463301,88.9243192 C72.9463301,90.2342673 72.719754,91.2338074 72.2665949,91.9229697 C71.8134358,92.6121319 71.1795317,92.9567079 70.3648637,92.9567079 Z M69.8056703,85.2253542 C68.7781061,85.2253542 68.2643317,86.2585873 68.2643317,88.3250846 C68.2643317,90.2586073 68.7682637,91.2253542 69.7761428,91.2253542 C70.7682737,91.2253542 71.2643317,90.242435 71.2643317,88.2765671 C71.2643317,86.242415 70.7781161,85.2253542 69.8056703,85.2253542 Z M80.4757978,83.8394878 L80.4757978,91.8394878 L79.1699817,91.8394878 L79.1699817,85.3892832 C78.9335828,85.5529948 78.6793639,85.6921476 78.4073175,85.8067457 C78.1352711,85.9213438 77.8247677,86.0222978 77.4757978,86.1096106 L77.4757978,85.0291195 C77.6934349,84.9599968 77.9035642,84.8872372 78.1061918,84.8108385 C78.3088195,84.7344397 78.5086299,84.6489472 78.705629,84.5543582 C78.9026281,84.4597693 79.1015004,84.3542679 79.3022519,84.2378507 C79.5030033,84.1214336 79.7103183,83.9886473 79.9242031,83.8394878 L80.4757978,83.8394878 Z M86.6924454,91.4042662 C85.9320886,91.4042662 85.3389174,91.0749847 84.9129139,90.4164119 C84.4869104,89.7578391 84.2739118,88.8059818 84.2739118,87.5608114 C84.2739118,86.1932832 84.496245,85.1586557 84.9409179,84.4568978 C85.3855909,83.7551399 86.0271323,83.4042662 86.8655615,83.4042662 C88.4711364,83.4042662 89.2739118,84.7267901 89.2739118,87.3718775 C89.2739118,88.6818256 89.0473357,89.6813658 88.5941766,90.370528 C88.1410175,91.0596902 87.5071135,91.4042662 86.6924454,91.4042662 Z M87.4972488,85.1356199 C86.4696846,85.1356199 85.9559102,86.168853 85.9559102,88.2353503 C85.9559102,90.168873 86.4598422,91.1356199 87.4677212,91.1356199 C88.4598522,91.1356199 88.9559102,90.1527007 88.9559102,88.1868328 C88.9559102,86.1526807 88.4696946,85.1356199 87.4972488,85.1356199 Z M96.7540242,83.7003982 L96.7540242,91.7003982 L95.4482081,91.7003982 L95.4482081,85.2501936 C95.2118091,85.4139052 94.9575903,85.553058 94.6855439,85.6676561 C94.4134975,85.7822542 94.102994,85.8832082 93.7540242,85.970521 L93.7540242,84.8900299 C93.9716613,84.8209072 94.1817905,84.7481476 94.3844182,84.6717489 C94.5870458,84.5953501 94.7868562,84.5098576 94.9838553,84.4152686 C95.1808545,84.3206797 95.3797268,84.2151783 95.5804782,84.0987611 C95.7812297,83.982344 95.9885447,83.8495577 96.2024295,83.7003982 L96.7540242,83.7003982 Z M103.65267,91.9965303 C102.892313,91.9965303 102.299142,91.6672488 101.873139,91.008676 C101.447135,90.3501032 101.234137,89.3982459 101.234137,88.1530755 C101.234137,86.7855473 101.45647,85.7509198 101.901143,85.0491619 C102.345816,84.347404 102.987357,83.9965303 103.825786,83.9965303 C105.431361,83.9965303 106.234137,85.3190542 106.234137,87.9641416 C106.234137,89.2740897 106.00756,90.2736299 105.554401,90.9627921 C105.101242,91.6519543 104.467338,91.9965303 103.65267,91.9965303 Z M103.775475,84.9965303 C102.747911,84.9965303 102.234137,86.0297634 102.234137,88.0962607 C102.234137,90.0297834 102.738069,90.9965303 103.745948,90.9965303 C104.738079,90.9965303 105.234137,90.0136111 105.234137,88.0477432 C105.234137,86.0135911 104.747921,84.9965303 103.775475,84.9965303 Z M113.714249,84.2926623 L113.714249,92.2926623 L112.408433,92.2926623 L112.408433,85.8424577 C112.172034,86.0061693 111.917815,86.1453221 111.645769,86.2599202 C111.373722,86.3745183 111.063219,86.4754723 110.714249,86.5627851 L110.714249,85.482294 C110.931886,85.4131713 111.142015,85.3404117 111.344643,85.264013 C111.547271,85.1876142 111.747081,85.1021217 111.94408,85.0075327 C112.141079,84.9129438 112.339951,84.8074424 112.540703,84.6910252 C112.741454,84.5746081 112.948769,84.4418218 113.162654,84.2926623 L113.714249,84.2926623 Z M29.0028595,99.0229203 L29.0028595,107.02292 L27.6970434,107.02292 L27.6970434,100.572716 C27.4606444,100.736427 27.2064256,100.87558 26.9343792,100.990178 C26.6623328,101.104776 26.3518293,101.20573 26.0028595,101.293043 L26.0028595,100.212552 C26.2204966,100.143429 26.4306258,100.07067 26.6332535,99.9942709 C26.8358812,99.9178722 27.0356915,99.8323796 27.2326906,99.7377907 C27.4296898,99.6432018 27.6285621,99.5377003 27.8293135,99.4212832 C28.030065,99.304866 28.23738,99.1720797 28.4512648,99.0229203 L29.0028595,99.0229203 Z M35.9015055,107.319052 C35.1411487,107.319052 34.5479774,106.989771 34.1219739,106.331198 C33.6959704,105.672625 33.4829719,104.720768 33.4829719,103.475598 C33.4829719,102.108069 33.705305,101.073442 34.149978,100.371684 C34.5946509,99.669926 35.2361924,99.3190523 36.0746216,99.3190523 C37.6801965,99.3190523 38.4829719,100.641576 38.4829719,103.286664 C38.4829719,104.596612 38.2563957,105.596152 37.8032366,106.285314 C37.3500775,106.974476 36.7161735,107.319052 35.9015055,107.319052 Z M36.0243105,100.319052 C34.9967463,100.319052 34.4829719,101.352285 34.4829719,103.418783 C34.4829719,105.352305 34.9869038,106.319052 35.9947829,106.319052 C36.9869138,106.319052 37.4829719,105.336133 37.4829719,103.370265 C37.4829719,101.336113 36.9967563,100.319052 36.0243105,100.319052 Z M45.9630842,99.6151844 L45.9630842,107.615184 L44.6572681,107.615184 L44.6572681,101.16498 C44.4208692,101.328691 44.1666503,101.467844 43.8946039,101.582442 C43.6225576,101.69704 43.3120541,101.797994 42.9630842,101.885307 L42.9630842,100.804816 C43.1807214,100.735693 43.3908506,100.662934 43.5934782,100.586535 C43.7961059,100.510136 43.9959163,100.424644 44.1929154,100.330055 C44.3899145,100.235466 44.5887868,100.129964 44.7895383,100.013547 C44.9902897,99.8971301 45.1976047,99.7643438 45.4114895,99.6151844 L45.9630842,99.6151844 Z M52.1797319,107.179963 C51.419375,107.179963 50.8262038,106.850681 50.4002003,106.192108 C49.9741968,105.533536 49.7611982,104.581678 49.7611982,103.336508 C49.7611982,101.96898 49.9835314,100.934352 50.4282044,100.232594 C50.8728773,99.5308364 51.5144188,99.1799627 52.3528479,99.1799627 C53.9584228,99.1799627 54.7611982,100.502487 54.7611982,103.147574 C54.7611982,104.457522 54.5346221,105.457062 54.081463,106.146225 C53.6283039,106.835387 52.9943999,107.179963 52.1797319,107.179963 Z M52.9845352,100.911316 C51.956971,100.911316 51.4431966,101.94455 51.4431966,104.011047 C51.4431966,105.94457 51.9471286,106.911316 52.9550076,106.911316 C53.9471386,106.911316 54.4431966,105.928397 54.4431966,103.962529 C54.4431966,101.928377 53.956981,100.911316 52.9845352,100.911316 Z M63.6546627,99.5254501 L63.6546627,107.52545 L62.3488465,107.52545 L62.3488465,101.075245 C62.1124476,101.238957 61.8582288,101.37811 61.5861824,101.492708 C61.314136,101.607306 61.0036325,101.70826 60.6546627,101.795573 L60.6546627,100.715082 C60.8722998,100.645959 61.082429,100.573199 61.2850567,100.496801 C61.4876843,100.420402 61.6874947,100.334909 61.8844938,100.240321 C62.0814929,100.145732 62.2803652,100.04023 62.4811167,99.923813 C62.6818682,99.8073959 62.8891832,99.6746096 63.1030679,99.5254501 L63.6546627,99.5254501 Z M69.8713103,107.090228 C69.1109535,107.090228 68.5177822,106.760947 68.0917787,106.102374 C67.6657752,105.443801 67.4527767,104.491944 67.4527767,103.246774 C67.4527767,101.879245 67.6751098,100.844618 68.1197828,100.14286 C68.5644558,99.4411022 69.2059972,99.0902285 70.0444264,99.0902285 C71.6500013,99.0902285 72.4527767,100.412752 72.4527767,103.05784 C72.4527767,104.367788 72.2262005,105.367328 71.7730415,106.05649 C71.3198824,106.745653 70.6859783,107.090228 69.8713103,107.090228 Z M70.6761136,100.821582 C69.6485494,100.821582 69.1347751,101.854815 69.1347751,103.921313 C69.1347751,105.854835 69.638707,106.821582 70.6465861,106.821582 C71.638717,106.821582 72.1347751,105.838663 72.1347751,103.872795 C72.1347751,101.838643 71.6485594,100.821582 70.6761136,100.821582 Z M80.6642428,98.7043622 L80.6642428,106.704362 L79.3584266,106.704362 L79.3584266,100.254158 C79.1220277,100.417869 78.8678089,100.557022 78.5957625,100.67162 C78.3237161,100.786218 78.0132126,100.887172 77.6642428,100.974485 L77.6642428,99.8939938 C77.8818799,99.8248711 78.0920091,99.7521115 78.2946368,99.6757128 C78.4972644,99.599314 78.6970748,99.5138215 78.8940739,99.4192326 C79.091073,99.3246436 79.2899453,99.2191422 79.4906968,99.1027251 C79.6914483,98.9863079 79.8987633,98.8535216 80.112648,98.7043622 L80.6642428,98.7043622 Z M87.5628887,107.000494 C86.8025319,107.000494 86.2093607,106.671213 85.7833572,106.01264 C85.3573537,105.354067 85.1443551,104.40221 85.1443551,103.157039 C85.1443551,101.789511 85.3666883,100.754884 85.8113612,100.053126 C86.2560342,99.3513679 86.8975757,99.0004942 87.7360048,99.0004942 C89.3415797,99.0004942 90.1443551,100.323018 90.1443551,102.968106 C90.1443551,104.278054 89.917779,105.277594 89.4646199,105.966756 C89.0114608,106.655918 88.3775568,107.000494 87.5628887,107.000494 Z M87.6856937,100.000494 C86.6581295,100.000494 86.1443551,101.033727 86.1443551,103.100225 C86.1443551,105.033747 86.6482871,106.000494 87.6561662,106.000494 C88.6482971,106.000494 89.1443551,105.017575 89.1443551,103.051707 C89.1443551,101.017555 88.6581395,100.000494 87.6856937,100.000494 Z M96.2111154,99.2472709 L96.2111154,107.247271 L94.9052993,107.247271 L94.9052993,100.797066 C94.6689004,100.960778 94.4146815,101.099931 94.1426351,101.214529 C93.8705888,101.329127 93.5600853,101.430081 93.2111154,101.517394 L93.2111154,100.436903 C93.4287526,100.36778 93.6388818,100.29502 93.8415094,100.218622 C94.0441371,100.142223 94.2439475,100.05673 94.4409466,99.9621413 C94.6379457,99.8675524 94.836818,99.7620509 95.0375695,99.6456338 C95.2383209,99.5292167 95.4456359,99.3964304 95.6595207,99.2472709 L96.2111154,99.2472709 Z M103.841115,106.861405 C103.080758,106.861405 102.487587,106.532123 102.061584,105.87355 C101.63558,105.214978 101.422582,104.26312 101.422582,103.01795 C101.422582,101.650422 101.644915,100.615794 102.089588,99.9140362 C102.534261,99.2122783 103.175802,98.8614046 104.014231,98.8614046 C105.619806,98.8614046 106.422582,100.183928 106.422582,102.829016 C106.422582,104.138964 106.196005,105.138504 105.742846,105.827666 C105.289687,106.516829 104.655783,106.861405 103.841115,106.861405 Z M104.645918,100.592758 C103.618354,100.592758 103.10458,101.625991 103.10458,103.692489 C103.10458,105.626011 103.608512,106.592758 104.616391,106.592758 C105.608522,106.592758 106.10458,105.609839 106.10458,103.643971 C106.10458,101.609819 105.618364,100.592758 104.645918,100.592758 Z" id="101010101010110101010101010101010101010101010101010101010101010101010101" fill="#FFFFFF" fill-rule="nonzero" opacity="0.867601376" transform="translate(65.226185, 64.698647) rotate(43.000000) translate(-65.226185, -64.698647) "></path>
                <g id="animated-rocket-" transform="translate(7.000000, 5.000000)">
                    <g id="Group-18" transform="translate(0.000000, 41.000000)">
                        <path d="M34.7016227,15.049505 L65.1012031,35.6219533 C66.5284344,37.3713746 66.2672167,39.9465349 64.5177568,41.3737348 C63.6888192,42.0499776 62.6278228,42.3743496 61.5624439,42.2772447 L53.127,41.507505 L53.9674184,48.8266828 C54.278694,51.539684 52.3246126,53.990533 49.6028554,54.3008072 C48.4038589,54.4374901 47.1959967,54.1337822 46.2055023,53.4465682 L37.85,47.649505 L33.9069888,57.6678265 C32.9125366,60.1935786 30.0629226,61.4377948 27.5421977,60.4468611 C26.4317605,60.010332 25.5191175,59.1831447 24.9752073,58.1202318 L20.281,48.945505 L13.7940518,53.4465682 C11.5456005,55.0065642 8.45416245,54.4543246 6.8891317,52.2131066 C6.19969971,51.2257986 5.89501161,50.0218222 6.03213566,48.8266828 L19.9430977,21.3142568 L28.432,23.693505 L34.7016227,15.049505 Z" id="Combined-Shape-Copy" fill="#FF1F00" transform="translate(36.010868, 37.918530) rotate(56.000000) translate(-36.010868, -37.918530) "></path>
                        <path d="M38.4198905,18.8109345 L53.5778674,34.4931478 C54.3450043,35.4430418 54.2045997,36.8412924 53.2642651,37.6162279 C52.8187111,37.9834117 52.2484255,38.1595379 51.6757843,38.1068123 L47.3144171,37.7049345 L47.7671081,41.7622663 C47.9324733,43.2449101 46.8943675,44.5842888 45.448434,44.7538523 C44.8114671,44.828549 44.1697904,44.6625739 43.6435902,44.2870143 L38.9614171,40.9449345 L36.8109772,46.4635312 C36.2764592,47.8349543 34.7447917,48.5105341 33.389902,47.9724807 C32.793042,47.7354558 32.3024964,47.2863128 32.0101447,46.7091764 L29.6254171,42.0019345 L26.4250071,44.2870143 C25.2305174,45.1395455 23.5881909,44.8377489 22.7567683,43.6129327 C22.3905076,43.073373 22.228642,42.415405 22.3014892,41.7622663 L27.9922618,22.9498078 L34.1684171,25.8189345 L38.4198905,18.8109345 Z" id="Combined-Shape" fill="#FFC400" transform="translate(38.178536, 33.484202) rotate(56.000000) translate(-38.178536, -33.484202) "></path>
                    </g>
                    <g id="Rocket" filter="url(#filter-6)" transform="translate(58.500000, 58.500000) rotate(2.000000) translate(-58.500000, -58.500000) translate(2.000000, 2.000000)">
                        <path d="M51.3763484,65.3987265 L71.6406259,51.4245646 C72.288547,53.0747269 73.6840164,57.3652447 73.9314007,59.3108763 C76.1335634,72.439066 74.5267549,86.5893502 69.6148733,97.3241736 C67.3323262,102.616541 64.4023539,106.981457 61.0320106,110.110464 C60.5442538,110.585907 59.9389993,110.516986 59.4918809,109.935087 C59.0447624,109.353189 58.8412924,108.369603 58.9741313,107.432255 C58.4991186,98.2199439 56.9402292,89.2125683 53.7083339,81.8241371 C53.2911839,78.2215818 52.5138554,72.746445 51.3763484,65.3987265 Z" id="Path" stroke="#000000" stroke-width="2" fill="#656C91" fill-rule="nonzero" transform="translate(63.137586, 80.924565) rotate(14.000000) translate(-63.137586, -80.924565) "></path>
                        <path d="M20.7612325,32.4182067 L41.0255101,18.4440449 C41.6734312,20.0942072 43.0689005,24.384725 43.3162848,26.3303566 C45.5184476,39.4585463 43.9116391,53.6088304 38.9997574,64.3436539 C36.7172103,69.636021 33.787238,74.0009374 30.4168948,77.1299448 C29.9291379,77.6053875 29.3238835,77.5364662 28.876765,76.9545677 C28.4296466,76.3726692 28.2261766,75.389083 28.3590154,74.4517352 C27.8840028,65.2394242 26.3251133,56.2320486 23.093218,48.8436173 C22.6760681,45.2410621 21.8987396,39.7659253 20.7612325,32.4182067 Z" id="Path-Copy-3" stroke="#000000" stroke-width="2" fill="#656C91" fill-rule="nonzero" transform="translate(32.522470, 47.944045) scale(-1, 1) rotate(-71.000000) translate(-32.522470, -47.944045) "></path>
                        <path d="M110.977598,0.0458455648 C79.8674062,9.39403848 53.0887523,29.4880359 35.4166667,56.7447805 L56.2552195,77.5833333 C83.5119641,59.9112477 103.605962,33.1325938 112.954154,2.02240206 C113.088186,1.4677019 112.92381,0.883229984 112.52029,0.479710023 C112.11677,0.0761900622 111.532298,-0.088185968 110.977598,0.0458455648 Z" id="Path" fill="#FCD116" fill-rule="nonzero"></path>
                        <path d="M110.977598,0.0458455648 C79.8674062,9.39403848 53.0887523,29.4880359 35.4166667,56.7447805 L56.2552195,77.5833333 C83.5119641,59.9112477 103.605962,33.1325938 112.954154,2.02240206 C113.088186,1.4677019 112.92381,0.883229984 112.52029,0.479710023 C112.11677,0.0761900622 111.532298,-0.088185968 110.977598,0.0458455648 Z" id="Path" stroke="#000000" stroke-width="2" fill="#656C91" fill-rule="nonzero"></path>
                        <path d="M51.9339357,52.8115307 C55.5237866,52.8115307 58.4339357,55.7216798 58.4339357,59.3115307 C58.4339357,62.3180308 55.9993859,65.2248268 53.4288124,65.7743716 L20.9891715,80.8745162 L44.9165978,57.775202 C45.6583536,56.7496961 46.5043733,55.7008451 46.8187225,55.3005172 C48.0087175,53.7850429 49.8576386,52.8115307 51.9339357,52.8115307 Z" id="Combined-Shape" stroke="#000000" stroke-width="2" fill="#656C91" transform="translate(39.711554, 66.843023) rotate(-9.000000) translate(-39.711554, -66.843023) "></path>
                        <circle id="Oval" stroke="#000000" stroke-width="2" fill="#95FFFF" cx="89.3276047" cy="22.3335198" r="6.5"></circle>
                    </g>
                </g>
                <g id="powerbi_icon" transform="translate(82.000000, 48.428571) rotate(42.000000) translate(-82.000000, -48.428571) translate(73.000000, 42.000000)" fill="#FFFFFF" fill-rule="nonzero">
                    <path d="M15.3745714,11.0712857 L15.0229286,11.0712857 L15.0229286,10.3821429 L15.3745714,10.3821429 C16.1209286,10.3808571 16.7265,9.7875 16.7271429,9.05592857 L16.7271429,2.01535714 C16.7265,1.28314286 16.1209286,0.689785714 15.3745714,0.689142857 L2.05585714,0.689142857 C1.30885714,0.689785714 0.703928571,1.28314286 0.702642857,2.01535714 L0.702642857,9.05657143 C0.703928571,9.78814286 1.30885714,10.3815 2.05585714,10.3827857 L2.4075,10.3827857 L2.4075,11.0719286 L2.05585714,11.0719286 C0.920571429,11.07 0.00128571429,10.1687143 0,9.05657143 L0,2.01535714 C0.00128571429,0.903214286 0.921214286,0.00128571429 2.05585714,0 L15.3745714,0 C16.5092143,0.00128571429 17.4291429,0.903214286 17.4304286,2.01535714 L17.4304286,9.05657143 C17.4291429,10.1687143 16.5092143,11.0706429 15.3745714,11.0719286" id="Shape"></path>
                    <path d="M4.21457143,8.76407143 C4.46785714,8.76407143 4.71021429,8.86242857 4.88957143,9.03792857 C5.06828571,9.21278571 5.16857143,9.45064286 5.16857143,9.69878571 L5.16857143,11.8555714 C5.16857143,12.3724286 4.74171429,12.7909286 4.21457143,12.7909286 C3.96128571,12.7909286 3.71892857,12.6925714 3.53957143,12.5170714 C3.3613732,12.34308 3.26080022,12.1046248 3.26057143,11.8555714 L3.26057143,9.69942857 C3.26057143,9.18257143 3.68742857,8.76407143 4.21457143,8.76407143 L4.21457143,8.76407143 Z" id="Shape"></path>
                    <path d="M7.21542857,12.7909286 C6.68828571,12.7909286 6.26078571,12.3724286 6.26078571,11.8555714 L6.26078571,6.32057143 C6.26078571,5.80307143 6.68828571,5.38457143 7.21542857,5.38457143 C7.74257143,5.38457143 8.16942857,5.80307143 8.16942857,6.31992857 L8.16942857,11.8555714 C8.16942857,12.3724286 7.74192857,12.7909286 7.21542857,12.7915714" id="Shape"></path>
                    <path d="M13.2158571,12.7639286 C12.6887143,12.7639286 12.2618571,12.3447857 12.2612143,11.8285714 L12.2612143,3.98892857 C12.2612143,3.47271429 12.6887143,3.05357143 13.2158571,3.05357143 C13.743,3.05357143 14.1698571,3.47271429 14.1698571,3.98892857 L14.1698571,11.8285714 C14.1698571,12.3447857 13.743,12.7639286 13.2158571,12.7639286" id="Shape"></path>
                    <path d="M10.215,12.7909286 C9.6885,12.7909286 9.26164286,12.3724286 9.261,11.8555714 L9.261,7.74321429 C9.261,7.227 9.6885,6.80785714 10.2156429,6.80785714 C10.7427857,6.80785714 11.1696429,7.227 11.1696429,7.74321429 L11.1696429,11.8555714 C11.1696429,12.3724286 10.7421429,12.7909286 10.2156429,12.7915714" id="Shape"></path>
                </g>
            </g>
        </g>
    </g>
</svg>