<svg width="103" height="103" viewBox="0 0 103 103" fill="none" xmlns="http://www.w3.org/2000/svg">
<path d="M51.9299 98.6183C26.0799 98.6183 5.11987 77.6683 5.11987 51.8083C5.11987 25.9483 26.0799 4.99829 51.9299 4.99829C77.7799 4.99829 98.7399 25.9583 98.7399 51.8083C98.7399 77.6583 77.7799 98.6183 51.9299 98.6183Z" fill="url(#paint0_linear)"/>
<path fill-rule="evenodd" clip-rule="evenodd" d="M97.83 51.8085C97.83 77.1585 77.28 97.7085 51.93 97.7085C26.58 97.7085 6.03004 77.1585 6.03004 51.8085C6.03004 26.4585 26.58 5.90846 51.93 5.90846C77.28 5.90846 97.83 26.4585 97.83 51.8085ZM51.93 2.16846C79.35 2.16846 101.57 24.3885 101.57 51.8085C101.57 79.2285 79.34 101.448 51.93 101.448C24.51 101.448 2.29004 79.2185 2.29004 51.8085C2.29004 24.3885 24.51 2.16846 51.93 2.16846Z" fill="#F2F1F0"/>
<path fill-rule="evenodd" clip-rule="evenodd" d="M95.0199 51.8083C95.0199 75.6083 75.7299 94.8983 51.9299 94.8983C28.1299 94.8983 8.83985 75.6083 8.83985 51.8083C8.83985 28.0083 28.1299 8.71827 51.9299 8.71827C75.7299 8.71827 95.0199 28.0083 95.0199 51.8083ZM51.9299 4.97827C77.7899 4.97827 98.7599 25.9483 98.7599 51.8083C98.7599 77.6683 77.7899 98.6383 51.9299 98.6383C26.0699 98.6383 5.09985 77.6683 5.09985 51.8083C5.09985 25.9483 26.0599 4.97827 51.9299 4.97827Z" fill="url(#paint1_linear)"/>
<path opacity="0.2" d="M33.8799 77.6283H83.8599C85.1999 77.6283 86.2899 76.5383 86.2899 75.1983V31.2283H18.6899V75.2083C18.6899 76.5483 19.7799 77.6383 21.1199 77.6383H26.2999H33.8799V77.6283Z" fill="#1F1D21"/>
<path d="M33.88 74.4784H84.6499C85.5599 74.4784 86.3 73.7384 86.3 72.8284V29.7184C86.29 28.8084 85.5499 28.0684 84.6499 28.0684H20.35C19.44 28.0684 18.7 28.8084 18.7 29.7184V72.8284C18.7 73.7384 19.44 74.4784 20.35 74.4784H26.3099H33.88Z" fill="#F2F1F0"/>
<path d="M86.2899 28.8983C86.2899 27.9883 85.55 27.2483 84.64 27.2483H20.35C19.44 27.2483 18.7 27.9883 18.7 28.8983V30.4683H86.3V28.8983H86.2899Z" fill="#50E6FF"/>
<path d="M49.5499 45.1182V38.6882H34.95V45.1182H26.95V65.8082H57.5999V45.1182H49.5499ZM38.2299 41.8682H46.32V45.1182H38.2299V41.8682Z" fill="#0078D4"/>
<path d="M47.9399 54.0783H43.9099V50.0483H40.6299V54.0783H36.5999V57.3583H40.6299V61.3883H43.9099V57.3583H47.9399V54.0783V54.0783Z" fill="#50E6FF"/>
<path d="M79.2399 57.5983C79.2399 57.1383 78.8699 56.7583 78.3999 56.7583H65.4499C64.9899 56.7583 64.6099 57.1283 64.6099 57.5983C64.6099 58.0583 64.9799 58.4383 65.4499 58.4383H78.4199C78.8699 58.4383 79.2399 58.0683 79.2399 57.5983Z" fill="#50E6FF"/>
<path d="M67.73 57.5982C67.73 58.5182 68.48 59.2582 69.39 59.2582C70.31 59.2582 71.05 58.5082 71.05 57.5982C71.05 56.6782 70.3 55.9382 69.39 55.9382C68.48 55.9382 67.73 56.6782 67.73 57.5982Z" fill="#0078D4"/>
<path d="M79.2399 61.8383C79.2399 61.3783 78.8699 60.9983 78.3999 60.9983H65.4499C64.9899 60.9983 64.6099 61.3683 64.6099 61.8383C64.6099 62.2983 64.9799 62.6783 65.4499 62.6783H78.4199C78.8699 62.6683 79.2399 62.2983 79.2399 61.8383Z" fill="#32B0E7"/>
<path d="M72.7498 61.8282C72.7498 62.7482 73.4998 63.4882 74.4098 63.4882C75.3298 63.4882 76.0698 62.7382 76.0698 61.8282C76.0698 60.9082 75.3198 60.1682 74.4098 60.1682C73.4898 60.1682 72.7498 60.9082 72.7498 61.8282Z" fill="#0078D4"/>
<path d="M79.2399 66.3083C79.2399 65.8483 78.8699 65.4683 78.3999 65.4683H65.4499C64.9899 65.4683 64.6099 65.8383 64.6099 66.3083C64.6099 66.7783 64.9799 67.1483 65.4499 67.1483H78.4199C78.8699 67.1483 79.2399 66.7783 79.2399 66.3083Z" fill="#185A97"/>
<path d="M67.7898 66.3083C67.7898 67.2283 68.5398 67.9683 69.4498 67.9683C70.3698 67.9683 71.1098 67.2183 71.1098 66.3083C71.1098 65.3883 70.3598 64.6483 69.4498 64.6483C68.5398 64.6383 67.7898 65.3883 67.7898 66.3083Z" fill="#0078D4"/>
<path d="M77.7999 48.0683H65.0099V43.2683H63.4099V49.7983H79.3999V43.2683H77.7999V48.0683Z" fill="#0078D4"/>
<path d="M71.41 47.0283L67.26 42.4083H69.6V35.0083H73.23V42.4083H75.57L71.41 47.0283Z" fill="#0078D4"/>
<defs>
<linearGradient id="paint0_linear" x1="50.16" y1="-12.9807" x2="54.142" y2="132.79" gradientUnits="userSpaceOnUse">
<stop stop-color="#00ABDE"/>
<stop offset="1" stop-color="#007ED8"/>
</linearGradient>
<linearGradient id="paint1_linear" x1="3.36305" y1="-19.8167" x2="98.8911" y2="121.065" gradientUnits="userSpaceOnUse">
<stop stop-color="#007ED8"/>
<stop offset="0.7065" stop-color="#002D4C"/>
</linearGradient>
</defs>
</svg>
