<svg width="151" height="180" viewBox="0 0 151 180" fill="none" xmlns="http://www.w3.org/2000/svg">
<path d="M72.1418 7.19531L4.86182 35.1653C4.86182 35.1653 4.86182 94.5053 4.86182 113.405C4.86182 132.305 33.2118 176.145 72.8918 176.145C112.572 176.145 137.142 147.795 141.682 126.255C146.222 104.715 144.332 34.7953 144.332 34.7953L72.1418 7.19531Z" fill="url(#paint0_linear)"/>
<path d="M75.1619 179.716C55.1219 179.716 36.2819 171.916 22.1219 157.756C7.96186 143.596 0.161865 124.756 0.161865 104.716V38.0157C0.161865 36.0557 0.731865 34.1557 1.81187 32.5157C2.89187 30.8857 4.41187 29.6057 6.23187 28.8357C75.1719 -0.724337 76.6419 -0.0943369 79.0719 0.955663L144.092 28.8257C145.902 29.5957 147.432 30.8757 148.502 32.5057C149.582 34.1457 150.152 36.0557 150.152 38.0057V104.706C150.152 124.746 142.352 143.586 128.192 157.746C114.042 171.916 95.2019 179.716 75.1619 179.716ZM77.2119 5.59566C72.3119 5.93566 24.1319 26.5957 8.20187 33.4257C7.29187 33.8157 6.53187 34.4457 6.00187 35.2657C5.45187 36.0857 5.16187 37.0357 5.16187 38.0157V104.716C5.16187 123.416 12.4419 140.996 25.6619 154.216C38.8819 167.436 56.4619 174.716 75.1619 174.716C93.8619 174.716 111.442 167.436 124.662 154.216C137.882 140.996 145.162 123.416 145.162 104.716V38.0157C145.162 37.0357 144.872 36.0857 144.332 35.2657C143.792 34.4557 143.032 33.8157 142.132 33.4257L77.2119 5.59566Z" fill="white"/>
<path d="M73.1919 5.56559C74.3619 5.06559 75.6819 5.02559 76.8819 5.46559L77.1319 5.56559L142.132 33.4256C143.902 34.1856 145.072 35.8856 145.162 37.7956L145.172 38.0256V104.726C145.172 143.386 113.832 174.726 75.1719 174.726C36.9019 174.726 5.80187 144.006 5.18187 105.886L5.16187 104.726V38.0256C5.16187 36.1056 6.26187 34.3556 7.98187 33.5256L8.19186 33.4256L73.1919 5.56559ZM75.1619 10.1656L10.1619 38.0156V104.716C10.1619 140.616 39.2619 169.716 75.1619 169.716C110.702 169.716 139.582 141.196 140.152 105.786L140.162 104.716V38.0156L75.1619 10.1656Z" fill="#F3C900"/>
<path d="M46.3417 49.1763H45.1617V40.2762C45.0717 40.3662 44.9417 40.4763 44.7617 40.5863C44.5817 40.6963 44.3917 40.8163 44.1717 40.9363C43.9517 41.0563 43.7217 41.1563 43.4817 41.2563C43.2417 41.3563 43.0017 41.4363 42.7717 41.4963V40.3063C43.0317 40.2363 43.3017 40.1363 43.5917 40.0163C43.8817 39.8963 44.1617 39.7563 44.4417 39.6063C44.7217 39.4563 44.9817 39.2962 45.2317 39.1362C45.4817 38.9662 45.6917 38.8063 45.8817 38.6562H46.3317V49.1763H46.3417V49.1763Z" fill="white"/>
<path d="M54.2719 49.1763H53.0919V40.2762C53.0019 40.3662 52.8719 40.4763 52.6919 40.5863C52.5119 40.6963 52.3219 40.8163 52.1019 40.9363C51.8819 41.0563 51.6519 41.1563 51.4119 41.2563C51.1719 41.3563 50.9319 41.4363 50.7019 41.4963V40.3063C50.9619 40.2363 51.2319 40.1363 51.5219 40.0163C51.8119 39.8963 52.0919 39.7563 52.3719 39.6063C52.6519 39.4563 52.9119 39.2962 53.1619 39.1362C53.4119 38.9662 53.6219 38.8063 53.8119 38.6562H54.2619V49.1763H54.2719V49.1763Z" fill="white"/>
<path d="M62.2018 49.1763H61.0218V40.2762C60.9318 40.3662 60.8018 40.4763 60.6218 40.5863C60.4418 40.6963 60.2518 40.8163 60.0318 40.9363C59.8118 41.0563 59.5818 41.1563 59.3418 41.2563C59.1018 41.3563 58.8618 41.4363 58.6318 41.4963V40.3063C58.8918 40.2363 59.1618 40.1363 59.4518 40.0163C59.7418 39.8963 60.0218 39.7563 60.3018 39.6063C60.5818 39.4563 60.8418 39.2962 61.0918 39.1362C61.3418 38.9662 61.5518 38.8063 61.7418 38.6562H62.1918L62.2018 49.1763Z" fill="white"/>
<path d="M72.2518 43.9859C72.2518 44.8459 72.1718 45.6159 72.0218 46.2759C71.8618 46.9459 71.6418 47.5059 71.3518 47.9559C71.0618 48.4159 70.6918 48.7559 70.2718 48.9959C69.8418 49.2359 69.3518 49.3559 68.8118 49.3559C68.2918 49.3559 67.8318 49.2459 67.4318 49.0159C67.0318 48.7859 66.6818 48.4559 66.4118 48.0159C66.1318 47.5759 65.9218 47.0459 65.7818 46.4159C65.6418 45.7859 65.5618 45.0559 65.5618 44.2359C65.5618 43.3359 65.6418 42.5359 65.7918 41.8559C65.9418 41.1759 66.1618 40.5859 66.4518 40.1259C66.7418 39.6559 67.1018 39.3059 67.5418 39.0759C67.9718 38.8359 68.4718 38.7159 69.0318 38.7159C71.1718 38.7059 72.2518 40.4659 72.2518 43.9859ZM71.0518 44.1059C71.0518 41.1759 70.3518 39.7159 68.9618 39.7159C67.4918 39.7159 66.7618 41.2059 66.7618 44.1859C66.7618 46.9659 67.4818 48.3559 68.9218 48.3559C70.3318 48.3559 71.0518 46.9359 71.0518 44.1059Z" fill="white"/>
<path d="M80.1819 43.9859C80.1819 44.8459 80.1019 45.6159 79.9519 46.2759C79.7919 46.9459 79.5719 47.5059 79.2819 47.9559C78.9919 48.4159 78.6219 48.7559 78.2019 48.9959C77.7719 49.2359 77.2819 49.3559 76.7419 49.3559C76.2219 49.3559 75.7619 49.2459 75.3619 49.0159C74.9619 48.7859 74.6119 48.4559 74.3419 48.0159C74.0619 47.5759 73.8519 47.0459 73.7119 46.4159C73.5719 45.7859 73.4919 45.0559 73.4919 44.2359C73.4919 43.3359 73.5719 42.5359 73.7219 41.8559C73.8719 41.1759 74.0919 40.5859 74.3819 40.1259C74.6719 39.6559 75.0319 39.3059 75.4719 39.0759C75.9019 38.8359 76.4019 38.7159 76.9619 38.7159C79.1019 38.7059 80.1819 40.4659 80.1819 43.9859ZM78.9719 44.1059C78.9719 41.1759 78.2719 39.7159 76.8819 39.7159C75.4119 39.7159 74.6819 41.2059 74.6819 44.1859C74.6819 46.9659 75.4019 48.3559 76.8419 48.3559C78.2619 48.3559 78.9719 46.9359 78.9719 44.1059Z" fill="white"/>
<path d="M85.9819 49.1763H84.8019V40.2762C84.7119 40.3662 84.5819 40.4763 84.4019 40.5863C84.2219 40.6963 84.0319 40.8163 83.8119 40.9363C83.5919 41.0563 83.3619 41.1563 83.1219 41.2563C82.8819 41.3563 82.6419 41.4363 82.4119 41.4963V40.3063C82.6719 40.2363 82.9419 40.1363 83.2319 40.0163C83.5219 39.8963 83.8019 39.7563 84.0819 39.6063C84.3619 39.4563 84.6219 39.2962 84.8719 39.1362C85.1219 38.9662 85.3319 38.8063 85.5219 38.6562H85.9719V49.1763H85.9819V49.1763Z" fill="white"/>
<path d="M93.9118 49.1763H92.7318V40.2762C92.6418 40.3662 92.5118 40.4763 92.3318 40.5863C92.1518 40.6963 91.9618 40.8163 91.7418 40.9363C91.5218 41.0563 91.2918 41.1563 91.0518 41.2563C90.8118 41.3563 90.5718 41.4363 90.3418 41.4963V40.3063C90.6018 40.2363 90.8718 40.1363 91.1618 40.0163C91.4518 39.8963 91.7318 39.7563 92.0118 39.6063C92.2918 39.4563 92.5518 39.2962 92.8018 39.1362C93.0518 38.9662 93.2618 38.8063 93.4518 38.6562H93.9018V49.1763H93.9118V49.1763Z" fill="white"/>
<path d="M103.962 43.9859C103.962 44.8459 103.882 45.6159 103.732 46.2759C103.572 46.9459 103.352 47.5059 103.062 47.9559C102.772 48.4159 102.402 48.7559 101.982 48.9959C101.552 49.2359 101.062 49.3559 100.522 49.3559C100.002 49.3559 99.5417 49.2459 99.1417 49.0159C98.7417 48.7859 98.3917 48.4559 98.1217 48.0159C97.8417 47.5759 97.6317 47.0459 97.4917 46.4159C97.3517 45.7859 97.2717 45.0559 97.2717 44.2359C97.2717 43.3359 97.3517 42.5359 97.5017 41.8559C97.6517 41.1759 97.8717 40.5859 98.1617 40.1259C98.4517 39.6559 98.8117 39.3059 99.2517 39.0759C99.6817 38.8359 100.182 38.7159 100.742 38.7159C102.892 38.7059 103.962 40.4659 103.962 43.9859ZM102.762 44.1059C102.762 41.1759 102.062 39.7159 100.672 39.7159C99.2017 39.7159 98.4717 41.2059 98.4717 44.1859C98.4717 46.9659 99.1917 48.3559 100.632 48.3559C102.052 48.3559 102.762 46.9359 102.762 44.1059Z" fill="white"/>
<path d="M111.892 43.9859C111.892 44.8459 111.812 45.6159 111.662 46.2759C111.502 46.9459 111.282 47.5059 110.992 47.9559C110.702 48.4159 110.332 48.7559 109.912 48.9959C109.482 49.2359 108.992 49.3559 108.452 49.3559C107.932 49.3559 107.472 49.2459 107.072 49.0159C106.672 48.7859 106.322 48.4559 106.052 48.0159C105.772 47.5759 105.562 47.0459 105.422 46.4159C105.282 45.7859 105.202 45.0559 105.202 44.2359C105.202 43.3359 105.282 42.5359 105.432 41.8559C105.582 41.1759 105.802 40.5859 106.092 40.1259C106.382 39.6559 106.742 39.3059 107.182 39.0759C107.612 38.8359 108.112 38.7159 108.672 38.7159C110.812 38.7059 111.892 40.4659 111.892 43.9859ZM110.692 44.1059C110.692 41.1759 109.992 39.7159 108.602 39.7159C107.132 39.7159 106.402 41.2059 106.402 44.1859C106.402 46.9659 107.122 48.3559 108.562 48.3559C109.972 48.3559 110.692 46.9359 110.692 44.1059Z" fill="white"/>
<path d="M48.472 61.6353C48.472 62.4953 48.392 63.2653 48.242 63.9253C48.082 64.5953 47.862 65.1553 47.572 65.6053C47.282 66.0653 46.912 66.4053 46.492 66.6453C46.062 66.8853 45.572 67.0053 45.032 67.0053C44.512 67.0053 44.052 66.8953 43.652 66.6653C43.252 66.4353 42.902 66.1053 42.632 65.6653C42.352 65.2253 42.142 64.6953 42.002 64.0653C41.862 63.4353 41.782 62.7053 41.782 61.8853C41.782 60.9853 41.862 60.1853 42.012 59.5053C42.162 58.8253 42.382 58.2353 42.672 57.7753C42.962 57.3053 43.322 56.9553 43.762 56.7253C44.192 56.4853 44.692 56.3653 45.252 56.3653C47.392 56.3553 48.472 58.1153 48.472 61.6353ZM47.262 61.7453C47.262 58.8153 46.562 57.3553 45.172 57.3553C43.702 57.3553 42.972 58.8453 42.972 61.8253C42.972 64.6053 43.692 65.9953 45.132 65.9953C46.552 66.0053 47.262 64.5853 47.262 61.7453Z" fill="white"/>
<path d="M54.2719 66.8257H53.0919V57.9257C53.0019 58.0157 52.8719 58.1257 52.6919 58.2357C52.5119 58.3457 52.3219 58.4657 52.1019 58.5857C51.8819 58.7057 51.6519 58.8057 51.4119 58.9057C51.1719 59.0057 50.9319 59.0857 50.7019 59.1457V57.9557C50.9619 57.8857 51.2319 57.7857 51.5219 57.6657C51.8119 57.5457 52.0919 57.4057 52.3719 57.2557C52.6519 57.1057 52.9119 56.9457 53.1619 56.7857C53.4119 56.6157 53.6219 56.4557 53.8119 56.3057H54.2619V66.8257H54.2719V66.8257Z" fill="white"/>
<path d="M64.3218 61.6353C64.3218 62.4953 64.2418 63.2653 64.0918 63.9253C63.9318 64.5953 63.7118 65.1553 63.4218 65.6053C63.1318 66.0653 62.7618 66.4053 62.3418 66.6453C61.9118 66.8853 61.4218 67.0053 60.8818 67.0053C60.3618 67.0053 59.9018 66.8953 59.5018 66.6653C59.1018 66.4353 58.7518 66.1053 58.4818 65.6653C58.2018 65.2253 57.9918 64.6953 57.8518 64.0653C57.7118 63.4353 57.6318 62.7053 57.6318 61.8853C57.6318 60.9853 57.7118 60.1853 57.8618 59.5053C58.0118 58.8253 58.2318 58.2353 58.5218 57.7753C58.8118 57.3053 59.1718 56.9553 59.6118 56.7253C60.0418 56.4853 60.5418 56.3653 61.1018 56.3653C63.2418 56.3553 64.3218 58.1153 64.3218 61.6353ZM63.1218 61.7453C63.1218 58.8153 62.4218 57.3553 61.0318 57.3553C59.5618 57.3553 58.8318 58.8453 58.8318 61.8253C58.8318 64.6053 59.5518 65.9953 60.9918 65.9953C62.4118 66.0053 63.1218 64.5853 63.1218 61.7453Z" fill="white"/>
<path d="M72.2518 61.6353C72.2518 62.4953 72.1718 63.2653 72.0218 63.9253C71.8618 64.5953 71.6418 65.1553 71.3518 65.6053C71.0618 66.0653 70.6918 66.4053 70.2718 66.6453C69.8418 66.8853 69.3518 67.0053 68.8118 67.0053C68.2918 67.0053 67.8318 66.8953 67.4318 66.6653C67.0318 66.4353 66.6818 66.1053 66.4118 65.6653C66.1318 65.2253 65.9218 64.6953 65.7818 64.0653C65.6418 63.4353 65.5618 62.7053 65.5618 61.8853C65.5618 60.9853 65.6418 60.1853 65.7918 59.5053C65.9418 58.8253 66.1618 58.2353 66.4518 57.7753C66.7418 57.3053 67.1018 56.9553 67.5418 56.7253C67.9718 56.4853 68.4718 56.3653 69.0318 56.3653C71.1718 56.3553 72.2518 58.1153 72.2518 61.6353ZM71.0518 61.7453C71.0518 58.8153 70.3518 57.3553 68.9618 57.3553C67.4918 57.3553 66.7618 58.8453 66.7618 61.8253C66.7618 64.6053 67.4818 65.9953 68.9218 65.9953C70.3318 66.0053 71.0518 64.5853 71.0518 61.7453Z" fill="white"/>
<path d="M78.0619 66.8257H76.8819V57.9257C76.7919 58.0157 76.6619 58.1257 76.4819 58.2357C76.3019 58.3457 76.1119 58.4657 75.8919 58.5857C75.6719 58.7057 75.4419 58.8057 75.2019 58.9057C74.9619 59.0057 74.7219 59.0857 74.4919 59.1457V57.9557C74.7519 57.8857 75.0219 57.7857 75.3119 57.6657C75.6019 57.5457 75.8819 57.4057 76.1619 57.2557C76.4419 57.1057 76.7019 56.9457 76.9519 56.7857C77.2019 56.6157 77.4119 56.4557 77.6019 56.3057H78.0519V66.8257H78.0619V66.8257Z" fill="white"/>
<path d="M85.9819 66.8257H84.8019V57.9257C84.7119 58.0157 84.5819 58.1257 84.4019 58.2357C84.2219 58.3457 84.0319 58.4657 83.8119 58.5857C83.5919 58.7057 83.3619 58.8057 83.1219 58.9057C82.8819 59.0057 82.6419 59.0857 82.4119 59.1457V57.9557C82.6719 57.8857 82.9419 57.7857 83.2319 57.6657C83.5219 57.5457 83.8019 57.4057 84.0819 57.2557C84.3619 57.1057 84.6219 56.9457 84.8719 56.7857C85.1219 56.6157 85.3319 56.4557 85.5219 56.3057H85.9719V66.8257H85.9819V66.8257Z" fill="white"/>
<path d="M93.9118 66.8257H92.7318V57.9257C92.6418 58.0157 92.5118 58.1257 92.3318 58.2357C92.1518 58.3457 91.9618 58.4657 91.7418 58.5857C91.5218 58.7057 91.2918 58.8057 91.0518 58.9057C90.8118 59.0057 90.5718 59.0857 90.3418 59.1457V57.9557C90.6018 57.8857 90.8718 57.7857 91.1618 57.6657C91.4518 57.5457 91.7318 57.4057 92.0118 57.2557C92.2918 57.1057 92.5518 56.9457 92.8018 56.7857C93.0518 56.6157 93.2618 56.4557 93.4518 56.3057H93.9018V66.8257H93.9118V66.8257Z" fill="white"/>
<path d="M101.842 66.8257H100.662V57.9257C100.572 58.0157 100.442 58.1257 100.262 58.2357C100.082 58.3457 99.8917 58.4657 99.6717 58.5857C99.4517 58.7057 99.2217 58.8057 98.9817 58.9057C98.7417 59.0057 98.5017 59.0857 98.2717 59.1457V57.9557C98.5317 57.8857 98.8017 57.7857 99.0917 57.6657C99.3817 57.5457 99.6617 57.4057 99.9417 57.2557C100.222 57.1057 100.482 56.9457 100.732 56.7857C100.982 56.6157 101.192 56.4557 101.382 56.3057H101.832V66.8257H101.842V66.8257Z" fill="white"/>
<path d="M111.892 61.6353C111.892 62.4953 111.812 63.2653 111.662 63.9253C111.502 64.5953 111.282 65.1553 110.992 65.6053C110.702 66.0653 110.332 66.4053 109.912 66.6453C109.482 66.8853 108.992 67.0053 108.452 67.0053C107.932 67.0053 107.472 66.8953 107.072 66.6653C106.672 66.4353 106.322 66.1053 106.052 65.6653C105.772 65.2253 105.562 64.6953 105.422 64.0653C105.282 63.4353 105.202 62.7053 105.202 61.8853C105.202 60.9853 105.282 60.1853 105.432 59.5053C105.582 58.8253 105.802 58.2353 106.092 57.7753C106.382 57.3053 106.742 56.9553 107.182 56.7253C107.612 56.4853 108.112 56.3653 108.672 56.3653C110.812 56.3553 111.892 58.1153 111.892 61.6353ZM110.692 61.7453C110.692 58.8153 109.992 57.3553 108.602 57.3553C107.132 57.3553 106.402 58.8453 106.402 61.8253C106.402 64.6053 107.122 65.9953 108.562 65.9953C109.972 66.0053 110.692 64.5853 110.692 61.7453Z" fill="white"/>
<path d="M46.3417 84.4761H45.1617V75.5761C45.0717 75.6661 44.9417 75.7761 44.7617 75.8861C44.5817 75.9961 44.3917 76.1161 44.1717 76.2361C43.9517 76.3561 43.7217 76.4561 43.4817 76.5561C43.2417 76.6561 43.0017 76.7361 42.7717 76.7961V75.6061C43.0317 75.5361 43.3017 75.4361 43.5917 75.3161C43.8817 75.1961 44.1617 75.0561 44.4417 74.9061C44.7217 74.7561 44.9817 74.5961 45.2317 74.4361C45.4817 74.2661 45.6917 74.1061 45.8817 73.9561H46.3317V84.4761H46.3417V84.4761Z" fill="white"/>
<path d="M54.2719 84.4761H53.0919V75.5761C53.0019 75.6661 52.8719 75.7761 52.6919 75.8861C52.5119 75.9961 52.3219 76.1161 52.1019 76.2361C51.8819 76.3561 51.6519 76.4561 51.4119 76.5561C51.1719 76.6561 50.9319 76.7361 50.7019 76.7961V75.6061C50.9619 75.5361 51.2319 75.4361 51.5219 75.3161C51.8119 75.1961 52.0919 75.0561 52.3719 74.9061C52.6519 74.7561 52.9119 74.5961 53.1619 74.4361C53.4119 74.2661 53.6219 74.1061 53.8119 73.9561H54.2619V84.4761H54.2719V84.4761Z" fill="white"/>
<path d="M64.3218 79.2857C64.3218 80.1457 64.2418 80.9157 64.0918 81.5757C63.9318 82.2457 63.7118 82.8057 63.4218 83.2557C63.1318 83.7157 62.7618 84.0557 62.3418 84.2957C61.9118 84.5357 61.4218 84.6557 60.8818 84.6557C60.3618 84.6557 59.9018 84.5457 59.5018 84.3157C59.1018 84.0857 58.7518 83.7557 58.4818 83.3157C58.2018 82.8757 57.9918 82.3457 57.8518 81.7157C57.7118 81.0857 57.6318 80.3557 57.6318 79.5357C57.6318 78.6357 57.7118 77.8357 57.8618 77.1557C58.0118 76.4757 58.2318 75.8857 58.5218 75.4257C58.8118 74.9557 59.1718 74.6057 59.6118 74.3757C60.0418 74.1357 60.5418 74.0157 61.1018 74.0157C63.2418 74.0057 64.3218 75.7657 64.3218 79.2857ZM63.1218 79.3957C63.1218 76.4657 62.4218 75.0057 61.0318 75.0057C59.5618 75.0057 58.8318 76.4957 58.8318 79.4757C58.8318 82.2557 59.5518 83.6457 60.9918 83.6457C62.4118 83.6457 63.1218 82.2357 63.1218 79.3957Z" fill="white"/>
<path d="M70.1318 84.4761H68.9518V75.5761C68.8618 75.6661 68.7318 75.7761 68.5518 75.8861C68.3718 75.9961 68.1818 76.1161 67.9618 76.2361C67.7418 76.3561 67.5118 76.4561 67.2718 76.5561C67.0318 76.6561 66.7918 76.7361 66.5618 76.7961V75.6061C66.8218 75.5361 67.0918 75.4361 67.3818 75.3161C67.6718 75.1961 67.9518 75.0561 68.2318 74.9061C68.5118 74.7561 68.7718 74.5961 69.0218 74.4361C69.2718 74.2661 69.4818 74.1061 69.6718 73.9561H70.1218V84.4761H70.1318V84.4761Z" fill="white"/>
<path d="M78.0619 84.4761H76.8819V75.5761C76.7919 75.6661 76.6619 75.7761 76.4819 75.8861C76.3019 75.9961 76.1119 76.1161 75.8919 76.2361C75.6719 76.3561 75.4419 76.4561 75.2019 76.5561C74.9619 76.6561 74.7219 76.7361 74.4919 76.7961V75.6061C74.7519 75.5361 75.0219 75.4361 75.3119 75.3161C75.6019 75.1961 75.8819 75.0561 76.1619 74.9061C76.4419 74.7561 76.7019 74.5961 76.9519 74.4361C77.2019 74.2661 77.4119 74.1061 77.6019 73.9561H78.0519V84.4761H78.0619V84.4761Z" fill="white"/>
<path d="M85.9819 84.4761H84.8019V75.5761C84.7119 75.6661 84.5819 75.7761 84.4019 75.8861C84.2219 75.9961 84.0319 76.1161 83.8119 76.2361C83.5919 76.3561 83.3619 76.4561 83.1219 76.5561C82.8819 76.6561 82.6419 76.7361 82.4119 76.7961V75.6061C82.6719 75.5361 82.9419 75.4361 83.2319 75.3161C83.5219 75.1961 83.8019 75.0561 84.0819 74.9061C84.3619 74.7561 84.6219 74.5961 84.8719 74.4361C85.1219 74.2661 85.3319 74.1061 85.5219 73.9561H85.9719V84.4761H85.9819V84.4761Z" fill="white"/>
<path d="M96.0418 79.2857C96.0418 80.1457 95.9618 80.9157 95.8118 81.5757C95.6518 82.2457 95.4318 82.8057 95.1418 83.2557C94.8518 83.7157 94.4818 84.0557 94.0618 84.2957C93.6318 84.5357 93.1418 84.6557 92.6018 84.6557C92.0818 84.6557 91.6218 84.5457 91.2218 84.3157C90.8218 84.0857 90.4718 83.7557 90.2018 83.3157C89.9218 82.8757 89.7118 82.3457 89.5718 81.7157C89.4318 81.0857 89.3518 80.3557 89.3518 79.5357C89.3518 78.6357 89.4318 77.8357 89.5818 77.1557C89.7318 76.4757 89.9518 75.8857 90.2418 75.4257C90.5318 74.9557 90.8918 74.6057 91.3318 74.3757C91.7618 74.1357 92.2618 74.0157 92.8218 74.0157C94.9618 74.0057 96.0418 75.7657 96.0418 79.2857ZM94.8318 79.3957C94.8318 76.4657 94.1318 75.0057 92.7418 75.0057C91.2718 75.0057 90.5418 76.4957 90.5418 79.4757C90.5418 82.2557 91.2618 83.6457 92.7018 83.6457C94.1218 83.6457 94.8318 82.2357 94.8318 79.3957Z" fill="white"/>
<path d="M101.842 84.4761H100.662V75.5761C100.572 75.6661 100.442 75.7761 100.262 75.8861C100.082 75.9961 99.8917 76.1161 99.6717 76.2361C99.4517 76.3561 99.2217 76.4561 98.9817 76.5561C98.7417 76.6561 98.5017 76.7361 98.2717 76.7961V75.6061C98.5317 75.5361 98.8017 75.4361 99.0917 75.3161C99.3817 75.1961 99.6617 75.0561 99.9417 74.9061C100.222 74.7561 100.482 74.5961 100.732 74.4361C100.982 74.2661 101.192 74.1061 101.382 73.9561H101.832V84.4761H101.842V84.4761Z" fill="white"/>
<path d="M109.772 84.4761H108.592V75.5761C108.502 75.6661 108.372 75.7761 108.192 75.8861C108.012 75.9961 107.822 76.1161 107.602 76.2361C107.382 76.3561 107.152 76.4561 106.912 76.5561C106.672 76.6561 106.432 76.7361 106.202 76.7961V75.6061C106.462 75.5361 106.732 75.4361 107.022 75.3161C107.312 75.1961 107.592 75.0561 107.872 74.9061C108.152 74.7561 108.412 74.5961 108.662 74.4361C108.912 74.2661 109.122 74.1061 109.312 73.9561H109.762V84.4761H109.772V84.4761Z" fill="white"/>
<path d="M48.472 96.9361C48.472 97.7961 48.392 98.5661 48.242 99.2261C48.082 99.8961 47.862 100.456 47.572 100.906C47.282 101.366 46.912 101.706 46.492 101.946C46.062 102.186 45.572 102.306 45.032 102.306C44.512 102.306 44.052 102.196 43.652 101.966C43.252 101.736 42.902 101.406 42.632 100.966C42.352 100.526 42.142 99.9961 42.002 99.3661C41.862 98.7361 41.782 98.0061 41.782 97.1861C41.782 96.2861 41.862 95.4861 42.012 94.8061C42.162 94.1261 42.382 93.5361 42.672 93.0761C42.962 92.6061 43.322 92.2561 43.762 92.0261C44.192 91.7861 44.692 91.6661 45.252 91.6661C47.392 91.6561 48.472 93.4161 48.472 96.9361ZM47.262 97.0461C47.262 94.1161 46.562 92.6561 45.172 92.6561C43.702 92.6561 42.972 94.1461 42.972 97.1261C42.972 99.9061 43.692 101.296 45.132 101.296C46.552 101.296 47.262 99.8861 47.262 97.0461Z" fill="white"/>
<path d="M54.2719 102.125H53.0919V93.2255C53.0019 93.3155 52.8719 93.4255 52.6919 93.5355C52.5119 93.6455 52.3219 93.7655 52.1019 93.8855C51.8819 94.0055 51.6519 94.1055 51.4119 94.2055C51.1719 94.3055 50.9319 94.3855 50.7019 94.4455V93.2555C50.9619 93.1855 51.2319 93.0855 51.5219 92.9655C51.8119 92.8455 52.0919 92.7055 52.3719 92.5555C52.6519 92.4055 52.9119 92.2455 53.1619 92.0855C53.4119 91.9155 53.6219 91.7555 53.8119 91.6055H54.2619V102.125H54.2719V102.125Z" fill="white"/>
<path d="M62.2018 102.125H61.0218V93.2255C60.9318 93.3155 60.8018 93.4255 60.6218 93.5355C60.4418 93.6455 60.2518 93.7655 60.0318 93.8855C59.8118 94.0055 59.5818 94.1055 59.3418 94.2055C59.1018 94.3055 58.8618 94.3855 58.6318 94.4455V93.2555C58.8918 93.1855 59.1618 93.0855 59.4518 92.9655C59.7418 92.8455 60.0218 92.7055 60.3018 92.5555C60.5818 92.4055 60.8418 92.2455 61.0918 92.0855C61.3418 91.9155 61.5518 91.7555 61.7418 91.6055H62.1918L62.2018 102.125Z" fill="white"/>
<path d="M70.1318 102.125H68.9518V93.2255C68.8618 93.3155 68.7318 93.4255 68.5518 93.5355C68.3718 93.6455 68.1818 93.7655 67.9618 93.8855C67.7418 94.0055 67.5118 94.1055 67.2718 94.2055C67.0318 94.3055 66.7918 94.3855 66.5618 94.4455V93.2555C66.8218 93.1855 67.0918 93.0855 67.3818 92.9655C67.6718 92.8455 67.9518 92.7055 68.2318 92.5555C68.5118 92.4055 68.7718 92.2455 69.0218 92.0855C69.2718 91.9155 69.4818 91.7555 69.6718 91.6055H70.1218V102.125H70.1318V102.125Z" fill="white"/>
<path d="M80.1819 96.9361C80.1819 97.7961 80.1019 98.5661 79.9519 99.2261C79.7919 99.8961 79.5719 100.456 79.2819 100.906C78.9919 101.366 78.6219 101.706 78.2019 101.946C77.7719 102.186 77.2819 102.306 76.7419 102.306C76.2219 102.306 75.7619 102.196 75.3619 101.966C74.9619 101.736 74.6119 101.406 74.3419 100.966C74.0619 100.526 73.8519 99.9961 73.7119 99.3661C73.5719 98.7361 73.4919 98.0061 73.4919 97.1861C73.4919 96.2861 73.5719 95.4861 73.7219 94.8061C73.8719 94.1261 74.0919 93.5361 74.3819 93.0761C74.6719 92.6061 75.0319 92.2561 75.4719 92.0261C75.9019 91.7861 76.4019 91.6661 76.9619 91.6661C79.1019 91.6561 80.1819 93.4161 80.1819 96.9361ZM78.9719 97.0461C78.9719 94.1161 78.2719 92.6561 76.8819 92.6561C75.4119 92.6561 74.6819 94.1461 74.6819 97.1261C74.6819 99.9061 75.4019 101.296 76.8419 101.296C78.2619 101.296 78.9719 99.8861 78.9719 97.0461Z" fill="white"/>
<path d="M88.1119 96.9361C88.1119 97.7961 88.0319 98.5661 87.8819 99.2261C87.7219 99.8961 87.5019 100.456 87.2119 100.906C86.9219 101.366 86.5519 101.706 86.1319 101.946C85.7019 102.186 85.2119 102.306 84.6719 102.306C84.1519 102.306 83.6919 102.196 83.2919 101.966C82.8919 101.736 82.5419 101.406 82.2719 100.966C81.9919 100.526 81.7819 99.9961 81.6419 99.3661C81.5019 98.7361 81.4219 98.0061 81.4219 97.1861C81.4219 96.2861 81.5019 95.4861 81.6519 94.8061C81.8019 94.1261 82.0219 93.5361 82.3119 93.0761C82.6019 92.6061 82.9619 92.2561 83.4019 92.0261C83.8319 91.7861 84.3319 91.6661 84.8919 91.6661C87.0319 91.6561 88.1119 93.4161 88.1119 96.9361ZM86.9019 97.0461C86.9019 94.1161 86.2019 92.6561 84.8119 92.6561C83.3419 92.6561 82.6119 94.1461 82.6119 97.1261C82.6119 99.9061 83.3319 101.296 84.7719 101.296C86.1919 101.296 86.9019 99.8861 86.9019 97.0461Z" fill="white"/>
<path d="M96.0418 96.9361C96.0418 97.7961 95.9618 98.5661 95.8118 99.2261C95.6518 99.8961 95.4318 100.456 95.1418 100.906C94.8518 101.366 94.4818 101.706 94.0618 101.946C93.6318 102.186 93.1418 102.306 92.6018 102.306C92.0818 102.306 91.6218 102.196 91.2218 101.966C90.8218 101.736 90.4718 101.406 90.2018 100.966C89.9218 100.526 89.7118 99.9961 89.5718 99.3661C89.4318 98.7361 89.3518 98.0061 89.3518 97.1861C89.3518 96.2861 89.4318 95.4861 89.5818 94.8061C89.7318 94.1261 89.9518 93.5361 90.2418 93.0761C90.5318 92.6061 90.8918 92.2561 91.3318 92.0261C91.7618 91.7861 92.2618 91.6661 92.8218 91.6661C94.9618 91.6561 96.0418 93.4161 96.0418 96.9361ZM94.8318 97.0461C94.8318 94.1161 94.1318 92.6561 92.7418 92.6561C91.2718 92.6561 90.5418 94.1461 90.5418 97.1261C90.5418 99.9061 91.2618 101.296 92.7018 101.296C94.1218 101.296 94.8318 99.8861 94.8318 97.0461Z" fill="white"/>
<path d="M101.842 102.125H100.662V93.2255C100.572 93.3155 100.442 93.4255 100.262 93.5355C100.082 93.6455 99.8917 93.7655 99.6717 93.8855C99.4517 94.0055 99.2217 94.1055 98.9817 94.2055C98.7417 94.3055 98.5017 94.3855 98.2717 94.4455V93.2555C98.5317 93.1855 98.8017 93.0855 99.0917 92.9655C99.3817 92.8455 99.6617 92.7055 99.9417 92.5555C100.222 92.4055 100.482 92.2455 100.732 92.0855C100.982 91.9155 101.192 91.7555 101.382 91.6055H101.832V102.125H101.842V102.125Z" fill="white"/>
<path d="M109.772 102.125H108.592V93.2255C108.502 93.3155 108.372 93.4255 108.192 93.5355C108.012 93.6455 107.822 93.7655 107.602 93.8855C107.382 94.0055 107.152 94.1055 106.912 94.2055C106.672 94.3055 106.432 94.3855 106.202 94.4455V93.2555C106.462 93.1855 106.732 93.0855 107.022 92.9655C107.312 92.8455 107.592 92.7055 107.872 92.5555C108.152 92.4055 108.412 92.2455 108.662 92.0855C108.912 91.9155 109.122 91.7555 109.312 91.6055H109.762V102.125H109.772V102.125Z" fill="white"/>
<path d="M46.3417 119.776H45.1617V110.876C45.0717 110.966 44.9417 111.076 44.7617 111.186C44.5817 111.296 44.3917 111.416 44.1717 111.536C43.9517 111.656 43.7217 111.756 43.4817 111.856C43.2417 111.956 43.0017 112.036 42.7717 112.096V110.906C43.0317 110.836 43.3017 110.736 43.5917 110.616C43.8817 110.496 44.1617 110.356 44.4417 110.206C44.7217 110.056 44.9817 109.896 45.2317 109.736C45.4817 109.566 45.6917 109.406 45.8817 109.256H46.3317V119.776H46.3417V119.776Z" fill="white"/>
<path d="M56.4019 114.576C56.4019 115.436 56.3219 116.206 56.1719 116.866C56.0119 117.536 55.7919 118.096 55.5019 118.546C55.2119 119.006 54.8419 119.346 54.4219 119.586C53.9919 119.826 53.5019 119.946 52.9619 119.946C52.4419 119.946 51.9819 119.836 51.5819 119.606C51.1819 119.376 50.8319 119.046 50.5619 118.606C50.2819 118.166 50.0719 117.636 49.9319 117.006C49.7919 116.376 49.7119 115.646 49.7119 114.826C49.7119 113.926 49.7919 113.126 49.9419 112.446C50.0919 111.766 50.3119 111.176 50.6019 110.716C50.8919 110.246 51.2519 109.896 51.6919 109.666C52.1219 109.426 52.6219 109.306 53.1819 109.306C55.3219 109.306 56.4019 111.066 56.4019 114.576ZM55.1919 114.696C55.1919 111.766 54.4919 110.306 53.1019 110.306C51.6319 110.306 50.9019 111.796 50.9019 114.776C50.9019 117.556 51.6219 118.946 53.0619 118.946C54.4819 118.946 55.1919 117.526 55.1919 114.696Z" fill="white"/>
<path d="M64.3218 114.576C64.3218 115.436 64.2418 116.206 64.0918 116.866C63.9318 117.536 63.7118 118.096 63.4218 118.546C63.1318 119.006 62.7618 119.346 62.3418 119.586C61.9118 119.826 61.4218 119.946 60.8818 119.946C60.3618 119.946 59.9018 119.836 59.5018 119.606C59.1018 119.376 58.7518 119.046 58.4818 118.606C58.2018 118.166 57.9918 117.636 57.8518 117.006C57.7118 116.376 57.6318 115.646 57.6318 114.826C57.6318 113.926 57.7118 113.126 57.8618 112.446C58.0118 111.766 58.2318 111.176 58.5218 110.716C58.8118 110.246 59.1718 109.896 59.6118 109.666C60.0418 109.426 60.5418 109.306 61.1018 109.306C63.2418 109.306 64.3218 111.066 64.3218 114.576ZM63.1218 114.696C63.1218 111.766 62.4218 110.306 61.0318 110.306C59.5618 110.306 58.8318 111.796 58.8318 114.776C58.8318 117.556 59.5518 118.946 60.9918 118.946C62.4118 118.946 63.1218 117.526 63.1218 114.696Z" fill="white"/>
<path d="M72.2518 114.576C72.2518 115.436 72.1718 116.206 72.0218 116.866C71.8618 117.536 71.6418 118.096 71.3518 118.546C71.0618 119.006 70.6918 119.346 70.2718 119.586C69.8418 119.826 69.3518 119.946 68.8118 119.946C68.2918 119.946 67.8318 119.836 67.4318 119.606C67.0318 119.376 66.6818 119.046 66.4118 118.606C66.1318 118.166 65.9218 117.636 65.7818 117.006C65.6418 116.376 65.5618 115.646 65.5618 114.826C65.5618 113.926 65.6418 113.126 65.7918 112.446C65.9418 111.766 66.1618 111.176 66.4518 110.716C66.7418 110.246 67.1018 109.896 67.5418 109.666C67.9718 109.426 68.4718 109.306 69.0318 109.306C71.1718 109.306 72.2518 111.066 72.2518 114.576ZM71.0518 114.696C71.0518 111.766 70.3518 110.306 68.9618 110.306C67.4918 110.306 66.7618 111.796 66.7618 114.776C66.7618 117.556 67.4818 118.946 68.9218 118.946C70.3318 118.946 71.0518 117.526 71.0518 114.696Z" fill="white"/>
<path d="M78.0619 119.776H76.8819V110.876C76.7919 110.966 76.6619 111.076 76.4819 111.186C76.3019 111.296 76.1119 111.416 75.8919 111.536C75.6719 111.656 75.4419 111.756 75.2019 111.856C74.9619 111.956 74.7219 112.036 74.4919 112.096V110.906C74.7519 110.836 75.0219 110.736 75.3119 110.616C75.6019 110.496 75.8819 110.356 76.1619 110.206C76.4419 110.056 76.7019 109.896 76.9519 109.736C77.2019 109.566 77.4119 109.406 77.6019 109.256H78.0519V119.776H78.0619V119.776Z" fill="white"/>
<path d="M85.9819 119.776H84.8019V110.876C84.7119 110.966 84.5819 111.076 84.4019 111.186C84.2219 111.296 84.0319 111.416 83.8119 111.536C83.5919 111.656 83.3619 111.756 83.1219 111.856C82.8819 111.956 82.6419 112.036 82.4119 112.096V110.906C82.6719 110.836 82.9419 110.736 83.2319 110.616C83.5219 110.496 83.8019 110.356 84.0819 110.206C84.3619 110.056 84.6219 109.896 84.8719 109.736C85.1219 109.566 85.3319 109.406 85.5219 109.256H85.9719V119.776H85.9819V119.776Z" fill="white"/>
<path d="M96.0418 114.576C96.0418 115.436 95.9618 116.206 95.8118 116.866C95.6518 117.536 95.4318 118.096 95.1418 118.546C94.8518 119.006 94.4818 119.346 94.0618 119.586C93.6318 119.826 93.1418 119.946 92.6018 119.946C92.0818 119.946 91.6218 119.836 91.2218 119.606C90.8218 119.376 90.4718 119.046 90.2018 118.606C89.9218 118.166 89.7118 117.636 89.5718 117.006C89.4318 116.376 89.3518 115.646 89.3518 114.826C89.3518 113.926 89.4318 113.126 89.5818 112.446C89.7318 111.766 89.9518 111.176 90.2418 110.716C90.5318 110.246 90.8918 109.896 91.3318 109.666C91.7618 109.426 92.2618 109.306 92.8218 109.306C94.9618 109.306 96.0418 111.066 96.0418 114.576ZM94.8318 114.696C94.8318 111.766 94.1318 110.306 92.7418 110.306C91.2718 110.306 90.5418 111.796 90.5418 114.776C90.5418 117.556 91.2618 118.946 92.7018 118.946C94.1218 118.946 94.8318 117.526 94.8318 114.696Z" fill="white"/>
<path d="M103.962 114.576C103.962 115.436 103.882 116.206 103.732 116.866C103.572 117.536 103.352 118.096 103.062 118.546C102.772 119.006 102.402 119.346 101.982 119.586C101.552 119.826 101.062 119.946 100.522 119.946C100.002 119.946 99.5417 119.836 99.1417 119.606C98.7417 119.376 98.3917 119.046 98.1217 118.606C97.8417 118.166 97.6317 117.636 97.4917 117.006C97.3517 116.376 97.2717 115.646 97.2717 114.826C97.2717 113.926 97.3517 113.126 97.5017 112.446C97.6517 111.766 97.8717 111.176 98.1617 110.716C98.4517 110.246 98.8117 109.896 99.2517 109.666C99.6817 109.426 100.182 109.306 100.742 109.306C102.892 109.306 103.962 111.066 103.962 114.576ZM102.762 114.696C102.762 111.766 102.062 110.306 100.672 110.306C99.2017 110.306 98.4717 111.796 98.4717 114.776C98.4717 117.556 99.1917 118.946 100.632 118.946C102.052 118.946 102.762 117.526 102.762 114.696Z" fill="white"/>
<path d="M109.772 119.776H108.592V110.876C108.502 110.966 108.372 111.076 108.192 111.186C108.012 111.296 107.822 111.416 107.602 111.536C107.382 111.656 107.152 111.756 106.912 111.856C106.672 111.956 106.432 112.036 106.202 112.096V110.906C106.462 110.836 106.732 110.736 107.022 110.616C107.312 110.496 107.592 110.356 107.872 110.206C108.152 110.056 108.412 109.896 108.662 109.736C108.912 109.566 109.122 109.406 109.312 109.256H109.762V119.776H109.772V119.776Z" fill="white"/>
<path d="M48.472 132.226C48.472 133.086 48.392 133.856 48.242 134.516C48.082 135.186 47.862 135.746 47.572 136.196C47.282 136.656 46.912 136.996 46.492 137.236C46.062 137.476 45.572 137.596 45.032 137.596C44.512 137.596 44.052 137.486 43.652 137.256C43.252 137.026 42.902 136.696 42.632 136.256C42.352 135.816 42.142 135.286 42.002 134.656C41.862 134.026 41.782 133.296 41.782 132.476C41.782 131.576 41.862 130.776 42.012 130.096C42.162 129.416 42.382 128.826 42.672 128.366C42.962 127.896 43.322 127.546 43.762 127.316C44.192 127.076 44.692 126.956 45.252 126.956C47.392 126.956 48.472 128.716 48.472 132.226ZM47.262 132.346C47.262 129.416 46.562 127.956 45.172 127.956C43.702 127.956 42.972 129.446 42.972 132.426C42.972 135.206 43.692 136.596 45.132 136.596C46.552 136.596 47.262 135.176 47.262 132.346Z" fill="white"/>
<path d="M54.2719 137.426H53.0919V128.526C53.0019 128.616 52.8719 128.726 52.6919 128.836C52.5119 128.946 52.3219 129.066 52.1019 129.186C51.8819 129.306 51.6519 129.406 51.4119 129.506C51.1719 129.606 50.9319 129.686 50.7019 129.746V128.556C50.9619 128.486 51.2319 128.386 51.5219 128.266C51.8119 128.146 52.0919 128.006 52.3719 127.856C52.6519 127.706 52.9119 127.546 53.1619 127.386C53.4119 127.216 53.6219 127.056 53.8119 126.906H54.2619V137.426H54.2719Z" fill="white"/>
<path d="M62.2018 137.426H61.0218V128.526C60.9318 128.616 60.8018 128.726 60.6218 128.836C60.4418 128.946 60.2518 129.066 60.0318 129.186C59.8118 129.306 59.5818 129.406 59.3418 129.506C59.1018 129.606 58.8618 129.686 58.6318 129.746V128.556C58.8918 128.486 59.1618 128.386 59.4518 128.266C59.7418 128.146 60.0218 128.006 60.3018 127.856C60.5818 127.706 60.8418 127.546 61.0918 127.386C61.3418 127.216 61.5518 127.056 61.7418 126.906H62.1918L62.2018 137.426Z" fill="white"/>
<path d="M72.2518 132.226C72.2518 133.086 72.1718 133.856 72.0218 134.516C71.8618 135.186 71.6418 135.746 71.3518 136.196C71.0618 136.656 70.6918 136.996 70.2718 137.236C69.8418 137.476 69.3518 137.596 68.8118 137.596C68.2918 137.596 67.8318 137.486 67.4318 137.256C67.0318 137.026 66.6818 136.696 66.4118 136.256C66.1318 135.816 65.9218 135.286 65.7818 134.656C65.6418 134.026 65.5618 133.296 65.5618 132.476C65.5618 131.576 65.6418 130.776 65.7918 130.096C65.9418 129.416 66.1618 128.826 66.4518 128.366C66.7418 127.896 67.1018 127.546 67.5418 127.316C67.9718 127.076 68.4718 126.956 69.0318 126.956C71.1718 126.956 72.2518 128.716 72.2518 132.226ZM71.0518 132.346C71.0518 129.416 70.3518 127.956 68.9618 127.956C67.4918 127.956 66.7618 129.446 66.7618 132.426C66.7618 135.206 67.4818 136.596 68.9218 136.596C70.3318 136.596 71.0518 135.176 71.0518 132.346Z" fill="white"/>
<path d="M78.0619 137.426H76.8819V128.526C76.7919 128.616 76.6619 128.726 76.4819 128.836C76.3019 128.946 76.1119 129.066 75.8919 129.186C75.6719 129.306 75.4419 129.406 75.2019 129.506C74.9619 129.606 74.7219 129.686 74.4919 129.746V128.556C74.7519 128.486 75.0219 128.386 75.3119 128.266C75.6019 128.146 75.8819 128.006 76.1619 127.856C76.4419 127.706 76.7019 127.546 76.9519 127.386C77.2019 127.216 77.4119 127.056 77.6019 126.906H78.0519V137.426H78.0619Z" fill="white"/>
<path d="M88.1119 132.226C88.1119 133.086 88.0319 133.856 87.8819 134.516C87.7219 135.186 87.5019 135.746 87.2119 136.196C86.9219 136.656 86.5519 136.996 86.1319 137.236C85.7019 137.476 85.2119 137.596 84.6719 137.596C84.1519 137.596 83.6919 137.486 83.2919 137.256C82.8919 137.026 82.5419 136.696 82.2719 136.256C81.9919 135.816 81.7819 135.286 81.6419 134.656C81.5019 134.026 81.4219 133.296 81.4219 132.476C81.4219 131.576 81.5019 130.776 81.6519 130.096C81.8019 129.416 82.0219 128.826 82.3119 128.366C82.6019 127.896 82.9619 127.546 83.4019 127.316C83.8319 127.076 84.3319 126.956 84.8919 126.956C87.0319 126.956 88.1119 128.716 88.1119 132.226ZM86.9019 132.346C86.9019 129.416 86.2019 127.956 84.8119 127.956C83.3419 127.956 82.6119 129.446 82.6119 132.426C82.6119 135.206 83.3319 136.596 84.7719 136.596C86.1919 136.596 86.9019 135.176 86.9019 132.346Z" fill="white"/>
<path d="M93.9118 137.426H92.7318V128.526C92.6418 128.616 92.5118 128.726 92.3318 128.836C92.1518 128.946 91.9618 129.066 91.7418 129.186C91.5218 129.306 91.2918 129.406 91.0518 129.506C90.8118 129.606 90.5718 129.686 90.3418 129.746V128.556C90.6018 128.486 90.8718 128.386 91.1618 128.266C91.4518 128.146 91.7318 128.006 92.0118 127.856C92.2918 127.706 92.5518 127.546 92.8018 127.386C93.0518 127.216 93.2618 127.056 93.4518 126.906H93.9018V137.426H93.9118Z" fill="white"/>
<path d="M103.962 132.226C103.962 133.086 103.882 133.856 103.732 134.516C103.572 135.186 103.352 135.746 103.062 136.196C102.772 136.656 102.402 136.996 101.982 137.236C101.552 137.476 101.062 137.596 100.522 137.596C100.002 137.596 99.5417 137.486 99.1417 137.256C98.7417 137.026 98.3917 136.696 98.1217 136.256C97.8417 135.816 97.6317 135.286 97.4917 134.656C97.3517 134.026 97.2717 133.296 97.2717 132.476C97.2717 131.576 97.3517 130.776 97.5017 130.096C97.6517 129.416 97.8717 128.826 98.1617 128.366C98.4517 127.896 98.8117 127.546 99.2517 127.316C99.6817 127.076 100.182 126.956 100.742 126.956C102.892 126.956 103.962 128.716 103.962 132.226ZM102.762 132.346C102.762 129.416 102.062 127.956 100.672 127.956C99.2017 127.956 98.4717 129.446 98.4717 132.426C98.4717 135.206 99.1917 136.596 100.632 136.596C102.052 136.596 102.762 135.176 102.762 132.346Z" fill="white"/>
<path d="M109.772 137.426H108.592V128.526C108.502 128.616 108.372 128.726 108.192 128.836C108.012 128.946 107.822 129.066 107.602 129.186C107.382 129.306 107.152 129.406 106.912 129.506C106.672 129.606 106.432 129.686 106.202 129.746V128.556C106.462 128.486 106.732 128.386 107.022 128.266C107.312 128.146 107.592 128.006 107.872 127.856C108.152 127.706 108.412 127.546 108.662 127.386C108.912 127.216 109.122 127.056 109.312 126.906H109.762V137.426H109.772Z" fill="white"/>
<path fill-rule="evenodd" clip-rule="evenodd" d="M68.3918 101.835L68.3318 137.065C67.7118 139.135 65.5218 140.305 63.4518 139.685C62.4718 139.385 61.6418 138.715 61.1518 137.825L57.2318 130.705L51.8618 135.305C49.8618 137.015 46.8718 136.775 45.1618 134.765C44.4118 133.885 44.0018 132.755 44.0218 131.605L44.1418 121.845L34.0518 124.085C31.5118 124.655 28.9818 123.045 28.4318 120.515C28.1818 119.405 28.3518 118.235 28.9018 117.225L33.6818 108.565L26.6218 105.825C24.1718 104.875 22.9518 102.125 23.8918 99.6754C24.3018 98.6054 25.1018 97.7054 26.1318 97.1754L55.4918 93.4854L58.1518 101.515L68.3918 101.835Z" fill="#FF1F00"/>
<path fill-rule="evenodd" clip-rule="evenodd" d="M64.782 103.215L60.442 123.695C60.092 124.815 58.902 125.455 57.792 125.125C57.262 124.975 56.812 124.605 56.552 124.125L54.532 120.435L51.552 122.965C50.462 123.895 48.832 123.785 47.922 122.725C47.522 122.255 47.312 121.655 47.322 121.035L47.462 115.515L41.912 116.765C40.532 117.075 39.172 116.215 38.882 114.855C38.752 114.255 38.842 113.615 39.152 113.075L41.622 108.655L38.092 107.335C36.782 106.845 36.132 105.375 36.662 104.055C36.892 103.465 37.332 102.985 37.892 102.705L55.912 97.1348L56.922 103.585L64.782 103.215Z" fill="#FFC400"/>
<path d="M71.2918 101.765L93.6818 94.2354C93.8418 95.9354 94.0018 100.255 93.7018 102.125C92.2618 114.815 87.0318 127.445 79.6718 136.055C76.1618 140.335 72.3118 143.585 68.3718 145.585C67.7918 145.895 67.2518 145.675 67.0018 145.015C66.7418 144.365 66.8218 143.395 67.1818 142.575C69.1818 133.955 70.1218 125.225 69.1018 117.555C69.6618 114.105 70.3918 108.855 71.2918 101.765Z" fill="#656C91" stroke="black" stroke-width="2"/>
<path d="M67.3219 92.9855L74.4619 70.4655C72.7619 70.3255 68.4419 70.2555 66.5819 70.5755C53.9119 72.2355 41.3719 77.6855 32.9019 85.2055C28.6819 88.7855 25.5019 92.6955 23.5719 96.6755C23.2719 97.2555 23.5019 97.7955 24.1719 98.0455C24.8319 98.2855 25.7919 98.2055 26.6219 97.8155C35.2119 95.6655 43.9119 94.5655 51.6019 95.4655C55.0119 94.8255 60.2519 93.9955 67.3219 92.9855Z" fill="#656C91" stroke="black" stroke-width="2"/>
<path d="M126.632 43.2252C96.482 51.1552 70.122 69.5252 52.262 95.0752L71.552 115.765C98.292 99.7352 118.452 74.7152 128.462 45.1952C128.602 44.6752 128.472 44.1052 128.102 43.7052C127.722 43.2952 127.162 43.1252 126.632 43.2252Z" fill="#FCD116"/>
<path d="M126.632 43.2252C96.482 51.1552 70.122 69.5252 52.262 95.0752L71.552 115.765C98.292 99.7352 118.452 74.7152 128.462 45.1952C128.602 44.6752 128.472 44.1052 128.102 43.7052C127.722 43.2952 127.162 43.1252 126.632 43.2252Z" fill="#656C91" stroke="black" stroke-width="2"/>
<path fill-rule="evenodd" clip-rule="evenodd" d="M66.0418 90.1156C69.4618 89.6956 72.5818 92.1256 73.0018 95.5456C73.3518 98.4056 71.3718 101.466 68.9918 102.296L39.8418 120.476L59.9318 95.6756C60.5118 94.6156 61.2018 93.5155 61.4518 93.0955C62.4118 91.4955 64.0618 90.3556 66.0418 90.1156Z" fill="#656C91" stroke="black" stroke-width="2"/>
<path d="M104.902 70.1155C108.342 70.2355 111.232 67.5455 111.352 64.0955C111.472 60.6555 108.782 57.7655 105.332 57.6455C101.892 57.5255 99.0018 60.2155 98.8818 63.6655C98.7618 67.1055 101.452 69.9955 104.902 70.1155Z" fill="#95FFFF" stroke="black" stroke-width="2"/>
<path d="M83.342 92.0855L79.332 87.9255L91.772 75.9255C92.222 75.4955 92.942 75.5055 93.372 75.9555L96.602 79.3055C97.032 79.7555 97.022 80.4755 96.572 80.9055L84.932 92.1155C84.482 92.5455 83.772 92.5255 83.342 92.0855Z" fill="url(#paint1_linear)"/>
<path d="M80.7418 89.3851L76.6218 85.1151L85.7918 76.2751C86.1818 75.9051 86.8018 75.9151 87.1818 76.3051L90.6118 79.8651C90.9818 80.2551 90.9718 80.8751 90.5918 81.2551L82.1318 89.4151C81.7418 89.7851 81.1218 89.7751 80.7418 89.3851Z" fill="url(#paint2_linear)"/>
<path d="M77.9619 86.5059L74.9419 83.3759C74.4519 82.8659 74.4619 82.0559 74.9719 81.5659L79.7519 76.9559C80.2619 76.4659 81.0719 76.4759 81.5619 76.9859L84.5819 80.1159C85.0719 80.6259 85.0619 81.4359 84.5519 81.9259L79.7719 86.5359C79.2619 87.0259 78.4519 87.0159 77.9619 86.5059Z" fill="url(#paint3_linear)"/>
<defs>
<linearGradient id="paint0_linear" x1="74.7918" y1="7.19841" x2="74.7918" y2="176.148" gradientUnits="userSpaceOnUse">
<stop stop-color="#4E4E57"/>
<stop offset="1" stop-color="#2E2E34"/>
</linearGradient>
<linearGradient id="paint1_linear" x1="93.7196" y1="78.7342" x2="82.8199" y2="89.4512" gradientUnits="userSpaceOnUse">
<stop offset="0.00753769" stop-color="#E0A310"/>
<stop offset="1" stop-color="#CA810E"/>
</linearGradient>
<linearGradient id="paint2_linear" x1="88.3834" y1="78.3188" x2="77.0532" y2="89.8593" gradientUnits="userSpaceOnUse">
<stop offset="0.00753769" stop-color="#F2CC40"/>
<stop offset="1" stop-color="#E7B116"/>
</linearGradient>
<linearGradient id="paint3_linear" x1="82.4524" y1="78.9219" x2="75.2478" y2="86.4832" gradientUnits="userSpaceOnUse">
<stop stop-color="#F8E17B"/>
<stop offset="0.5302" stop-color="#F6D856"/>
<stop offset="1" stop-color="#F6D856"/>
</linearGradient>
</defs>
</svg>
