<svg width="103" height="103" viewBox="0 0 103 103" fill="none" xmlns="http://www.w3.org/2000/svg">
<path d="M51.3322 98.4979C25.4822 98.4979 4.52222 77.5479 4.52222 51.6879C4.52222 25.8279 25.4822 4.87793 51.3322 4.87793C77.1822 4.87793 98.1422 25.8379 98.1422 51.6879C98.1422 77.5379 77.1822 98.4979 51.3322 98.4979Z" fill="#F9E488"/>
<path fill-rule="evenodd" clip-rule="evenodd" d="M51.3323 1.6875C78.9423 1.6875 101.332 24.0775 101.332 51.6875C101.332 79.2975 78.9423 101.688 51.3323 101.688C23.7223 101.688 1.33228 79.2975 1.33228 51.6875C1.33228 24.0775 23.7223 1.6875 51.3323 1.6875ZM51.3323 97.4475C76.6023 97.4475 97.0923 76.9575 97.0923 51.6875C97.0923 26.4175 76.6023 5.9275 51.3323 5.9275C26.0623 5.9275 5.57228 26.4175 5.57228 51.6875C5.57228 76.9575 26.0623 97.4475 51.3323 97.4475Z" fill="#D9D9D9"/>
<path fill-rule="evenodd" clip-rule="evenodd" d="M97.2324 51.6879C97.2324 77.0379 76.6824 97.5879 51.3324 97.5879C25.9824 97.5879 5.43238 77.0379 5.43238 51.6879C5.43238 26.3379 25.9824 5.78785 51.3324 5.78785C76.6824 5.78785 97.2324 26.3379 97.2324 51.6879ZM51.3324 2.04785C78.7524 2.04785 100.972 24.2679 100.972 51.6879C100.972 79.1079 78.7424 101.328 51.3324 101.328C23.9124 101.328 1.69238 79.0979 1.69238 51.6879C1.69238 24.2679 23.9124 2.04785 51.3324 2.04785Z" fill="#F2F1F0"/>
<path fill-rule="evenodd" clip-rule="evenodd" d="M94.4222 51.6874C94.4222 75.4874 75.1322 94.7774 51.3322 94.7774C27.5322 94.7774 8.2422 75.4874 8.2422 51.6874C8.2422 27.8874 27.5322 8.59742 51.3322 8.59742C75.1322 8.59742 94.4222 27.8874 94.4222 51.6874ZM51.3322 4.85742C77.1922 4.85742 98.1622 25.8274 98.1622 51.6874C98.1622 77.5474 77.1922 98.5174 51.3322 98.5174C25.4722 98.5174 4.5022 77.5474 4.5022 51.6874C4.5022 25.8274 25.4622 4.85742 51.3322 4.85742Z" fill="#F3C900"/>
<path d="M83.6523 30.0275V71.1875C83.6523 71.7775 83.4123 72.3475 82.9923 72.7575C82.5623 73.1775 82.0023 73.3975 81.4023 73.3875H64.1923C63.8923 73.3875 63.6523 73.6275 63.6523 73.9275V80.5775C63.6523 80.9875 63.4223 81.3475 63.0523 81.5175C62.6923 81.6975 62.2523 81.6575 61.9323 81.4075L51.5723 73.4975H51.2323H21.1523C20.5623 73.5075 19.9823 73.2775 19.5623 72.8675C19.1323 72.4475 18.9023 71.8875 18.9023 71.2975V30.0275C18.9023 29.4375 19.1423 28.8675 19.5623 28.4575C19.9923 28.0375 20.5523 27.8175 21.1523 27.8275H81.4023C81.9923 27.8175 82.5723 28.0475 82.9923 28.4575C83.4023 28.8775 83.6523 29.4375 83.6523 30.0275Z" fill="black"/>
<path d="M83.6523 30.0275V71.1875C83.6523 71.7775 83.4123 72.3475 82.9923 72.7575C82.5623 73.1775 82.0023 73.3975 81.4023 73.3875H64.1923C63.8923 73.3875 63.6523 73.6275 63.6523 73.9275V80.5775C63.6523 80.9875 63.4223 81.3475 63.0523 81.5175C62.6923 81.6975 62.2523 81.6575 61.9323 81.4075L51.5723 73.4975H51.2323H21.1523C20.5623 73.5075 19.9823 73.2775 19.5623 72.8675C19.1323 72.4475 18.9023 71.8875 18.9023 71.2975V30.0275C18.9023 29.4375 19.1423 28.8675 19.5623 28.4575C19.9923 28.0375 20.5523 27.8175 21.1523 27.8275H81.4023C81.9923 27.8175 82.5723 28.0475 82.9923 28.4575C83.4023 28.8775 83.6523 29.4375 83.6523 30.0275Z" fill="url(#paint0_linear)"/>
<path d="M33.3322 33.0879H69.2222C69.5322 33.0879 69.7722 33.3379 69.7722 33.6379V58.2379C69.7722 58.5479 69.5222 58.7879 69.2222 58.7879H33.3322C33.0222 58.7879 32.7822 58.5379 32.7822 58.2379V33.6379C32.7822 33.3379 33.0322 33.0879 33.3322 33.0879Z" fill="url(#paint1_linear)"/>
<path d="M59.1422 66.6579C55.4222 66.0479 55.2722 63.2779 55.2722 58.7979H47.8922C47.8922 63.2879 47.7622 66.0579 44.0422 66.6579C42.9822 66.7779 42.1722 67.7078 42.1822 68.8178H60.9922C61.0022 67.7178 60.2022 66.7779 59.1422 66.6579Z" fill="url(#paint2_linear)"/>
<path d="M57.2924 55.8673H51.5125V38.5773C51.5125 37.9573 52.0225 37.4473 52.6425 37.4473H57.2924C57.9124 37.4473 58.4225 37.9573 58.4225 38.5773V54.7473C58.4225 55.3673 57.9124 55.8673 57.2924 55.8673Z" fill="url(#paint3_linear)"/>
<path d="M53.5523 55.8675H47.6223V43.1275C47.6223 42.5875 48.0623 42.1475 48.6023 42.1475H53.5423C54.0823 42.1475 54.5223 42.5875 54.5223 43.1275V54.8875C54.5323 55.4275 54.0923 55.8675 53.5523 55.8675Z" fill="url(#paint4_linear)"/>
<path d="M49.5424 55.867H45.1924C44.4824 55.867 43.9124 55.297 43.9124 54.587V47.947C43.9124 47.237 44.4824 46.667 45.1924 46.667H49.5424C50.2524 46.667 50.8224 47.237 50.8224 47.947V54.587C50.8224 55.297 50.2524 55.867 49.5424 55.867Z" fill="url(#paint5_linear)"/>
<defs>
<linearGradient id="paint0_linear" x1="51.2764" y1="28.1901" x2="51.2764" y2="81.6369" gradientUnits="userSpaceOnUse">
<stop stop-color="#6A6A6A"/>
<stop offset="1" stop-color="#343333"/>
</linearGradient>
<linearGradient id="paint1_linear" x1="51.2765" y1="58.7977" x2="51.2765" y2="33.0858" gradientUnits="userSpaceOnUse">
<stop stop-color="#D2EBFF"/>
<stop offset="1" stop-color="#F0FFFD"/>
</linearGradient>
<linearGradient id="paint2_linear" x1="51.591" y1="68.8235" x2="51.591" y2="58.7977" gradientUnits="userSpaceOnUse">
<stop offset="0.15" stop-color="#CCCCCC"/>
<stop offset="1" stop-color="#707070"/>
</linearGradient>
<linearGradient id="paint3_linear" x1="54.8906" y1="39.1316" x2="55.0376" y2="54.4167" gradientUnits="userSpaceOnUse">
<stop offset="0.00753769" stop-color="#E0A310"/>
<stop offset="1" stop-color="#CA810E"/>
</linearGradient>
<linearGradient id="paint4_linear" x1="50.8926" y1="42.6843" x2="51.3335" y2="58.851" gradientUnits="userSpaceOnUse">
<stop offset="0.00753769" stop-color="#F2CC40"/>
<stop offset="1" stop-color="#E7B116"/>
</linearGradient>
<linearGradient id="paint5_linear" x1="47.2068" y1="47.371" x2="47.6477" y2="57.8058" gradientUnits="userSpaceOnUse">
<stop stop-color="#F8E17B"/>
<stop offset="0.5302" stop-color="#F6D856"/>
<stop offset="1" stop-color="#F6D856"/>
</linearGradient>
</defs>
</svg>
