<svg width="181" height="191" viewBox="0 0 181 191" fill="none" xmlns="http://www.w3.org/2000/svg">
<path d="M90.8162 189.92C93.8762 189.92 96.8862 189.07 99.5462 187.45L161.516 149.79C167.056 146.42 170.486 140.09 170.486 133.25V58.5405C170.486 51.7205 167.056 45.3805 161.516 42.0005L99.5462 4.34047C94.2162 1.10047 87.3962 1.12047 82.0962 4.34047L20.1262 42.0205C14.5862 45.3905 11.1362 51.7205 11.1362 58.5605V133.26C11.1362 139.02 13.5862 144.44 17.6862 148.01V148.04L82.0962 187.47C84.7362 189.07 87.7562 189.92 90.8162 189.92ZM91.4662 8.87047C93.4162 8.87047 95.8962 10.0805 97.6062 11.1305L158.366 48.3205C162.116 50.6005 164.236 57.2005 164.236 61.9505L163.606 133.25C163.606 138 160.406 142.27 156.656 144.55L96.2562 180.93C92.8262 183.02 90.0362 183.02 86.5962 180.93L25.3862 144.46C21.6362 142.18 18.6162 137.98 18.6162 133.25V59.6105C18.6162 54.8705 21.3462 49.9805 25.1162 47.6905L85.6962 11.1305C87.3962 10.0905 89.5162 8.87047 91.4662 8.87047Z" fill="#F2F1F0"/>
<path fill-rule="evenodd" clip-rule="evenodd" d="M98.7162 12.4492C96.2662 10.9492 93.5463 10.1992 90.8163 10.1992C88.0863 10.1992 85.3662 10.9592 82.9162 12.4492L26.7862 46.7792C21.7662 49.8492 18.6562 55.5992 18.6562 61.8492V129.949C18.6562 136.179 21.7562 141.949 26.7862 145.019L82.9162 179.349C85.3662 180.849 88.0863 181.599 90.8163 181.599C93.5463 181.599 96.2662 180.859 98.7162 179.349L154.846 145.019C159.866 141.949 162.976 136.179 162.976 129.949V61.8492C162.976 55.6192 159.876 49.8692 154.846 46.7792L98.7162 12.4492Z" fill="url(#paint0_linear_63_6722)"/>
<path fill-rule="evenodd" clip-rule="evenodd" d="M90.8163 11.6699C92.4963 11.6699 94.3862 12.5399 96.4462 13.7899L154.916 49.3299C158.566 51.5499 160.976 55.8199 160.976 60.6499V131.13C160.976 135.95 158.566 140.23 154.916 142.45L96.4563 177.99C94.4963 179.18 92.5762 179.93 90.8262 179.93C89.0762 179.93 87.1562 179.18 85.1962 177.99L26.7162 142.46C24.7062 141.23 23.2562 140.03 22.2762 138.42C21.2962 136.82 20.6562 134.6 20.6562 131.14V60.6599C20.6562 55.8299 23.0662 51.5599 26.7162 49.3399L85.1763 13.7999C87.2663 12.5499 89.1263 11.6699 90.8163 11.6699ZM98.5262 181.42L156.986 145.88C161.906 142.89 164.966 137.27 164.966 131.14V60.6599C164.966 54.5299 161.906 48.9099 156.986 45.9199L98.5262 10.3799C96.4162 9.09992 93.7063 7.66992 90.8163 7.66992C87.9163 7.66992 85.2063 9.10992 83.1163 10.3699H83.1062L24.6362 45.9199C19.7162 48.9099 16.6562 54.5299 16.6562 60.6599V131.14C16.6562 135.1 17.3963 138.09 18.8563 140.5C20.3163 142.9 22.3762 144.5 24.6362 145.87L83.0963 181.41C85.3163 182.76 87.9862 183.94 90.8062 183.94C93.6262 183.94 96.3062 182.77 98.5262 181.42Z" fill="url(#paint1_linear_63_6722)"/>
<path opacity="0.15" d="M131.421 45.1915L51.11 44.5314C49.3681 44.5131 47.9562 45.9066 47.9562 47.6485L47.0944 152.457C47.0761 154.199 48.4696 155.61 50.2115 155.61L130.523 156.271C132.265 156.289 133.677 154.895 133.677 153.153L134.538 48.3453C134.52 46.6217 133.127 45.2099 131.421 45.1915Z" fill="#1F1D20"/>
<path d="M131.44 41.8732L51.1283 41.2131C49.3864 41.1947 47.9745 42.5883 47.9745 44.3302L47.0944 149.12C47.0761 150.862 48.4696 152.274 50.2115 152.274L130.523 152.934C132.265 152.952 133.677 151.559 133.677 149.817L134.538 45.0086C134.538 43.3034 133.163 41.8915 131.44 41.8732Z" fill="#F2F2F2"/>
<path opacity="0.15" d="M125.848 45.4668H55.7861V143.032H125.848V45.4668Z" fill="#1F1D20"/>
<path d="M125.848 44.3477H55.7861V141.913H125.848V44.3477Z" fill="white"/>
<path fill-rule="evenodd" clip-rule="evenodd" d="M95.0061 29.697C97.2797 30.9255 98.5999 33.3642 98.5816 35.9312V36.5546C98.5816 36.793 98.5632 36.9947 98.5449 37.233L103.477 37.2697C104.944 37.288 106.319 38.0215 107.053 39.305C109.106 42.9538 106.503 46.6577 103.074 46.621L78.1737 46.4377C76.7068 46.4193 75.3316 45.6859 74.5982 44.4024C72.5446 40.7535 75.1483 37.0497 78.5771 37.0863L83.1611 37.123C83.1427 36.903 83.1427 36.683 83.1427 36.4446V36.2429C83.2161 30.6688 89.1386 26.5432 95.0061 29.697Z" fill="#243A5E"/>
<path d="M90.7895 39.9096C92.5498 39.928 93.98 38.5161 93.9983 36.7558C94.0166 34.9956 92.6048 33.5654 90.8445 33.5471C89.0843 33.5287 87.6541 34.9406 87.6357 36.7008C87.6357 38.4611 89.0293 39.8913 90.7895 39.9096Z" fill="#F2F2F2"/>
<path d="M139.652 93.9247L136.406 97.055L144.429 105.379L149.275 100.533L147.698 93.2754L139.652 93.9247Z" fill="url(#paint2_linear_63_6722)"/>
<path d="M110.898 122.586L107.652 125.693L115.768 133.994L120.428 129.31L118.875 122.029L110.898 122.586Z" fill="url(#paint3_linear_63_6722)"/>
<path d="M148.835 92.7651C146.586 90.5159 143.803 89.6347 142.574 90.7709H142.551L139.003 94.3651C138.98 94.3882 139.003 94.4346 139.05 94.4114C140.395 93.6694 142.945 94.5969 145.055 96.6607C146.957 98.5621 147.884 100.834 147.49 102.249C147.49 102.295 147.513 102.319 147.536 102.272L150.783 99.049L150.806 99.0258C150.806 99.0258 150.806 99.0258 150.806 99.0026L150.829 98.9795C151.965 97.8201 151.084 95.0375 148.835 92.7651Z" fill="#092E4C"/>
<path d="M142.991 98.6085C140.765 96.3825 138.029 95.5013 136.753 96.5911L110.157 123.188C110.11 123.234 110.157 123.327 110.226 123.304C111.641 122.77 113.983 123.675 115.977 125.669C117.832 127.524 118.76 129.727 118.435 131.164C118.412 131.234 118.528 131.303 118.574 131.234L145.008 104.8C146.098 103.571 145.24 100.835 142.991 98.6085Z" fill="#092E4C"/>
<path d="M113.867 127.733C111.571 125.438 108.765 124.58 107.559 125.739V125.762L105.38 133.901C105.728 133.553 105.936 134.179 106.586 134.829C107.258 135.478 107.003 135.362 106.655 135.71L105.102 137.101L115.838 134.04C117.02 132.835 116.139 130.006 113.867 127.733Z" fill="#FFBB00"/>
<path d="M107.211 134.481C106.562 133.831 105.75 133.553 105.379 133.901L104.661 136.66C104.591 136.939 104.846 137.17 105.101 137.101L107.791 136.312C108.139 135.965 107.884 135.13 107.211 134.481Z" fill="#092E4C"/>
<g clip-path="url(#clip0_63_6722)">
<path d="M76.8772 102.641H66.7861V112.732H76.8772V102.641Z" fill="#0078D4"/>
<path d="M89.491 102.641H79.3999V112.732H89.491V102.641Z" fill="#0078D4"/>
<path d="M102.105 102.641H92.0137V112.732H102.105V102.641Z" fill="#0078D4"/>
<path d="M114.719 102.641H104.627V112.732H114.719V102.641Z" fill="#0078D4"/>
<path d="M76.8772 90.0273H66.7861V100.118H76.8772V90.0273Z" fill="#3BCAF4"/>
<path d="M89.491 90.0273H79.3999V100.118H89.491V90.0273Z" fill="#3BCAF4"/>
<path d="M102.105 90.0273H92.0137V100.118H102.105V90.0273Z" fill="#3BCAF4"/>
<path d="M114.719 90.0273H104.627V100.118H114.719V90.0273Z" fill="#3BCAF4"/>
<path d="M89.491 72.3672H79.3999V82.4583H89.491V72.3672Z" fill="#50E6FF"/>
<path d="M76.8772 69.8438H66.7861V79.9349H76.8772V69.8438Z" fill="#50E6FF"/>
<path d="M102.105 74.8906H92.0137V84.9817H102.105V74.8906Z" fill="#50E6FF"/>
<path d="M114.719 77.4141H104.627V87.5052H114.719V77.4141Z" fill="#50E6FF"/>
</g>
<defs>
<linearGradient id="paint0_linear_63_6722" x1="90.8162" y1="10.1992" x2="90.8162" y2="181.599" gradientUnits="userSpaceOnUse">
<stop stop-color="#00ABDE"/>
<stop offset="1" stop-color="#007ED8"/>
</linearGradient>
<linearGradient id="paint1_linear_63_6722" x1="36.9359" y1="4.99103" x2="203.613" y2="287.322" gradientUnits="userSpaceOnUse">
<stop stop-color="#007ED8"/>
<stop offset="0.7065" stop-color="#002D4C"/>
</linearGradient>
<linearGradient id="paint2_linear_63_6722" x1="136.41" y1="99.3305" x2="149.268" y2="99.3305" gradientUnits="userSpaceOnUse">
<stop stop-color="#388CF4"/>
<stop offset="1" stop-color="#2C7CEF"/>
</linearGradient>
<linearGradient id="paint3_linear_63_6722" x1="107.652" y1="128.006" x2="120.428" y2="128.006" gradientUnits="userSpaceOnUse">
<stop stop-color="#388CF4"/>
<stop offset="1" stop-color="#2C7CEF"/>
</linearGradient>
<clipPath id="clip0_63_6722">
<rect width="48" height="48" fill="white" transform="translate(66.7524 64.7656)"/>
</clipPath>
</defs>
</svg>
