<svg width="103" height="103" viewBox="0 0 103 103" fill="none" xmlns="http://www.w3.org/2000/svg">
<path d="M51.3874 98.6434C25.5374 98.6434 4.57739 77.6934 4.57739 51.8334C4.57739 25.9734 25.5374 5.02344 51.3874 5.02344C77.2374 5.02344 98.1974 25.9834 98.1974 51.8334C98.1974 77.6834 77.2374 98.6434 51.3874 98.6434Z" fill="#F9E488"/>
<path fill-rule="evenodd" clip-rule="evenodd" d="M51.3875 1.83398C78.9975 1.83398 101.387 24.224 101.387 51.834C101.387 79.444 78.9975 101.834 51.3875 101.834C23.7775 101.834 1.38745 79.444 1.38745 51.834C1.38745 24.224 23.7775 1.83398 51.3875 1.83398ZM51.3875 97.594C76.6575 97.594 97.1475 77.104 97.1475 51.834C97.1475 26.564 76.6575 6.07398 51.3875 6.07398C26.1175 6.07398 5.62745 26.564 5.62745 51.834C5.62745 77.104 26.1175 97.594 51.3875 97.594Z" fill="#D9D9D9"/>
<path fill-rule="evenodd" clip-rule="evenodd" d="M97.2873 51.8343C97.2873 77.1843 76.7373 97.7343 51.3873 97.7343C26.0373 97.7343 5.48731 77.1843 5.48731 51.8343C5.48731 26.4843 26.0373 5.93434 51.3873 5.93434C76.7373 5.93434 97.2873 26.4843 97.2873 51.8343ZM51.3873 2.19434C78.8073 2.19434 101.027 24.4143 101.027 51.8343C101.027 79.2543 78.7973 101.474 51.3873 101.474C23.9673 101.474 1.74731 79.2443 1.74731 51.8343C1.74731 24.4143 23.9673 2.19434 51.3873 2.19434Z" fill="#F2F1F0"/>
<path fill-rule="evenodd" clip-rule="evenodd" d="M94.4774 51.8339C94.4774 75.6339 75.1874 94.9239 51.3874 94.9239C27.5874 94.9239 8.29737 75.6339 8.29737 51.8339C8.29737 28.0339 27.5874 8.74391 51.3874 8.74391C75.1874 8.74391 94.4774 28.0339 94.4774 51.8339ZM51.3874 5.00391C77.2474 5.00391 98.2174 25.9739 98.2174 51.8339C98.2174 77.6939 77.2474 98.6639 51.3874 98.6639C25.5274 98.6639 4.55737 77.6939 4.55737 51.8339C4.55737 25.9739 25.5174 5.00391 51.3874 5.00391Z" fill="#F3C900"/>
<path d="M63.6175 78.2636C57.5775 77.2936 57.3475 72.8736 57.3475 65.7236H45.3775C45.3775 72.8736 45.1775 77.3036 39.1375 78.2636C37.4075 78.4536 36.1075 79.9536 36.1175 81.7236H66.6375C66.6475 79.9536 65.3475 78.4636 63.6175 78.2636Z" fill="url(#paint0_linear)"/>
<path fill-rule="evenodd" clip-rule="evenodd" d="M21.8774 27.7637H80.7874V66.6337H21.8774V27.7637Z" fill="white"/>
<path fill-rule="evenodd" clip-rule="evenodd" d="M78.8374 27.7637C79.9174 27.7637 80.7875 28.6237 80.7875 29.6937V64.7037C80.7875 65.7737 79.9174 66.6337 78.8374 66.6337H23.8375C22.7575 66.6337 21.8875 65.7737 21.8875 64.7037V29.6937C21.8875 28.6237 22.7575 27.7637 23.8375 27.7637H78.8374Z" fill="url(#paint1_linear)"/>
<path d="M34.8774 61.7236H47.8774C48.9774 61.7236 49.8774 60.8236 49.8774 59.7236V33.7236" stroke="#F3C900"/>
<path d="M41.8774 33.7236H66.8774C67.9774 33.7236 68.8774 34.6236 68.8774 35.7236V37.7236" stroke="#F3C900" stroke-linecap="round"/>
<path d="M49.8774 52.7236H57.8774" stroke="#F3C900"/>
<path fill-rule="evenodd" clip-rule="evenodd" d="M33.1274 54.9736H41.6274C42.1774 54.9736 42.6274 55.4236 42.6274 55.9736V62.4736C42.6274 63.0236 42.1774 63.4736 41.6274 63.4736H33.1274C32.5774 63.4736 32.1274 63.0236 32.1274 62.4736V55.9736C32.1274 55.4236 32.5774 54.9736 33.1274 54.9736Z" fill="url(#paint2_linear)" stroke="#DBDBDB" stroke-width="0.5"/>
<path fill-rule="evenodd" clip-rule="evenodd" d="M64.1274 30.9736H72.6274C73.1774 30.9736 73.6274 31.4236 73.6274 31.9736V38.4736C73.6274 39.0236 73.1774 39.4736 72.6274 39.4736H64.1274C63.5774 39.4736 63.1274 39.0236 63.1274 38.4736V31.9736C63.1274 31.4236 63.5774 30.9736 64.1274 30.9736Z" fill="url(#paint3_linear)" stroke="#DBDBDB" stroke-width="0.5"/>
<path fill-rule="evenodd" clip-rule="evenodd" d="M58.1274 47.9736H66.6274C67.1774 47.9736 67.6274 48.4236 67.6274 48.9736V55.4736C67.6274 56.0236 67.1774 56.4736 66.6274 56.4736H58.1274C57.5774 56.4736 57.1274 56.0236 57.1274 55.4736V48.9736C57.1274 48.4236 57.5774 47.9736 58.1274 47.9736Z" fill="url(#paint4_linear)" stroke="#DBDBDB" stroke-width="0.5"/>
<path fill-rule="evenodd" clip-rule="evenodd" d="M29.1274 31.9736H41.6274C42.1774 31.9736 42.6274 32.4236 42.6274 32.9736V42.4736C42.6274 43.0236 42.1774 43.4736 41.6274 43.4736H29.1274C28.5774 43.4736 28.1274 43.0236 28.1274 42.4736V32.9736C28.1274 32.4236 28.5774 31.9736 29.1274 31.9736Z" fill="url(#paint5_linear)" stroke="#DBDBDB" stroke-width="0.5"/>
<path fill-rule="evenodd" clip-rule="evenodd" d="M62.7173 73.7337L61.2673 80.3337L67.9673 78.4537L67.9473 73.2637L62.7173 73.7337Z" fill="url(#paint6_linear)"/>
<path fill-rule="evenodd" clip-rule="evenodd" d="M86.2375 60.3543L67.9075 78.4643L62.6775 73.7343L81.2775 55.3843C82.0575 54.6243 83.3075 54.6143 84.0875 55.3843L86.2375 57.5043C87.0175 58.2743 87.0375 59.5443 86.2475 60.3343C86.2475 60.3443 86.2375 60.3443 86.2375 60.3543Z" fill="url(#paint7_linear)"/>
<path fill-rule="evenodd" clip-rule="evenodd" d="M85.5976 56.8636L65.7076 76.4736L64.7576 75.6136L84.6876 55.9736L85.5976 56.8636Z" fill="#72B1F0"/>
<path d="M38.2974 42.2839H35.3174V33.3739C35.3174 33.0539 35.5774 32.7939 35.8974 32.7939H38.2974C38.6174 32.7939 38.8774 33.0539 38.8774 33.3739V41.7039C38.8774 42.0239 38.6174 42.2839 38.2974 42.2839Z" fill="url(#paint8_linear)"/>
<path d="M36.3674 42.2839H33.3174V35.7239C33.3174 35.4439 33.5474 35.2139 33.8274 35.2139H36.3774C36.6574 35.2139 36.8874 35.4439 36.8874 35.7239V41.7739C36.8674 42.0639 36.6474 42.2839 36.3674 42.2839Z" fill="url(#paint9_linear)"/>
<path d="M34.2975 42.2839H32.0575C31.6975 42.2839 31.3975 41.9839 31.3975 41.6239V38.2039C31.3975 37.8439 31.6975 37.5439 32.0575 37.5439H34.2975C34.6575 37.5439 34.9575 37.8439 34.9575 38.2039V41.6239C34.9575 41.9939 34.6675 42.2839 34.2975 42.2839Z" fill="url(#paint10_linear)"/>
<defs>
<linearGradient id="paint0_linear" x1="51.3755" y1="81.7238" x2="51.3755" y2="65.7238" gradientUnits="userSpaceOnUse">
<stop offset="0.15" stop-color="#CCCCCC"/>
<stop offset="1" stop-color="#707070"/>
</linearGradient>
<linearGradient id="paint1_linear" x1="51.3354" y1="28.0242" x2="51.3354" y2="66.634" gradientUnits="userSpaceOnUse">
<stop stop-color="#6A6A6A"/>
<stop offset="1" stop-color="#343333"/>
</linearGradient>
<linearGradient id="paint2_linear" x1="37.3754" y1="63.4738" x2="37.3754" y2="54.9738" gradientUnits="userSpaceOnUse">
<stop offset="0.000105574" stop-color="white"/>
<stop offset="1" stop-color="#DDD5D5"/>
</linearGradient>
<linearGradient id="paint3_linear" x1="68.3754" y1="39.4738" x2="68.3754" y2="30.9738" gradientUnits="userSpaceOnUse">
<stop offset="0.000105574" stop-color="white"/>
<stop offset="1" stop-color="#DDD5D5"/>
</linearGradient>
<linearGradient id="paint4_linear" x1="62.3754" y1="56.4738" x2="62.3754" y2="47.9738" gradientUnits="userSpaceOnUse">
<stop offset="0.000105574" stop-color="white"/>
<stop offset="1" stop-color="#DDD5D5"/>
</linearGradient>
<linearGradient id="paint5_linear" x1="35.3754" y1="43.4738" x2="35.3754" y2="31.9738" gradientUnits="userSpaceOnUse">
<stop offset="0.000105574" stop-color="white"/>
<stop offset="1" stop-color="#DDD5D5"/>
</linearGradient>
<linearGradient id="paint6_linear" x1="64.6169" y1="80.1585" x2="64.6169" y2="72.886" gradientUnits="userSpaceOnUse">
<stop stop-color="#075EA0"/>
<stop offset="0.16" stop-color="#1D75BE"/>
<stop offset="0.53" stop-color="#3B8DDF"/>
<stop offset="0.834" stop-color="#4D92DF"/>
<stop offset="1" stop-color="#5C99E2"/>
</linearGradient>
<linearGradient id="paint7_linear" x1="73.2788" y1="63.5643" x2="78.432" y2="72.2645" gradientUnits="userSpaceOnUse">
<stop stop-color="#0078D4"/>
<stop offset="0.16" stop-color="#1380DA"/>
<stop offset="0.53" stop-color="#3C91E5"/>
<stop offset="0.82" stop-color="#559CEC"/>
<stop offset="1" stop-color="#5EA0EF"/>
</linearGradient>
<linearGradient id="paint8_linear" x1="37.0557" y1="33.6655" x2="37.1314" y2="41.541" gradientUnits="userSpaceOnUse">
<stop offset="0.00753769" stop-color="#E0A310"/>
<stop offset="1" stop-color="#CA810E"/>
</linearGradient>
<linearGradient id="paint9_linear" x1="34.9959" y1="35.4961" x2="35.2231" y2="43.8252" gradientUnits="userSpaceOnUse">
<stop offset="0.00753769" stop-color="#F2CC40"/>
<stop offset="1" stop-color="#E7B116"/>
</linearGradient>
<linearGradient id="paint10_linear" x1="33.0969" y1="37.9106" x2="33.3241" y2="43.2871" gradientUnits="userSpaceOnUse">
<stop stop-color="#F8E17B"/>
<stop offset="0.5302" stop-color="#F6D856"/>
<stop offset="1" stop-color="#F6D856"/>
</linearGradient>
</defs>
</svg>
