<svg width="103" height="102" viewBox="0 0 103 102" fill="none" xmlns="http://www.w3.org/2000/svg">
<path d="M51.1816 97.8099C25.3316 97.8099 4.37158 76.8599 4.37158 50.9999C4.37158 25.1399 25.3316 4.18994 51.1816 4.18994C77.0316 4.18994 97.9916 25.1499 97.9916 50.9999C97.9916 76.8499 77.0316 97.8099 51.1816 97.8099Z" fill="url(#paint0_linear)"/>
<path fill-rule="evenodd" clip-rule="evenodd" d="M97.0815 50.9999C97.0815 76.3499 76.5315 96.8999 51.1815 96.8999C25.8315 96.8999 5.2815 76.3499 5.2815 50.9999C5.2815 25.6499 25.8315 5.09986 51.1815 5.09986C76.5315 5.09986 97.0815 25.6499 97.0815 50.9999ZM51.1815 1.35986C78.6015 1.35986 100.822 23.5799 100.822 50.9999C100.822 78.4199 78.5915 100.64 51.1815 100.64C23.7615 100.64 1.5415 78.4099 1.5415 50.9999C1.5415 23.5799 23.7615 1.35986 51.1815 1.35986Z" fill="#F2F1F0"/>
<path fill-rule="evenodd" clip-rule="evenodd" d="M94.2716 50.9999C94.2716 74.7999 74.9816 94.0899 51.1816 94.0899C27.3816 94.0899 8.09156 74.7999 8.09156 50.9999C8.09156 27.1999 27.3816 7.90992 51.1816 7.90992C74.9816 7.90992 94.2716 27.1999 94.2716 50.9999ZM51.1816 4.16992C77.0416 4.16992 98.0116 25.1399 98.0116 50.9999C98.0116 76.8599 77.0416 97.8299 51.1816 97.8299C25.3216 97.8299 4.35156 76.8599 4.35156 50.9999C4.35156 25.1399 25.3116 4.16992 51.1816 4.16992Z" fill="url(#paint1_linear)"/>
<path opacity="0.15" d="M21.7617 74.9097H80.7817C81.3217 74.9097 81.7617 74.4697 81.7617 73.9297V27.9497H20.7817V73.9297C20.7817 74.4697 21.2217 74.9097 21.7617 74.9097Z" fill="#1F1D20"/>
<path d="M21.9417 74.1099H80.6017C81.2417 74.1099 81.7617 73.5899 81.7617 72.9499V27.1499H20.7817V72.9499C20.7817 73.5899 21.3017 74.1099 21.9417 74.1099Z" fill="#EBEBEB"/>
<path d="M20.7817 32.2199H81.7717V26.7499C81.7717 26.2599 81.3717 25.8599 80.8817 25.8599H21.6817C21.1917 25.8599 20.7917 26.2599 20.7917 26.7499V32.2199H20.7817Z" fill="#092E4C"/>
<path d="M25.4719 30.7199C26.3219 30.7199 27.0219 30.0299 27.0219 29.1699C27.0219 28.3099 26.3119 27.6299 25.4719 27.6299C24.6219 27.6299 23.9219 28.3199 23.9219 29.1799C23.9219 30.0399 24.6019 30.7199 25.4719 30.7199Z" fill="#32B0E7"/>
<path opacity="0.2" d="M88.0514 69.4101C88.3014 69.4101 88.5014 69.2101 88.5014 68.9601V38.3901H56.6914V68.9701C56.6914 69.2201 56.8914 69.4201 57.1414 69.4201H88.0514V69.4101Z" fill="#1F1D21"/>
<path d="M88.5012 38.7401V37.5301C88.5012 37.3101 88.3212 37.1401 88.1112 37.1401H57.0912C56.8712 37.1401 56.7012 37.3201 56.7012 37.5301V38.7901V39.2901V68.3201C56.7012 68.5401 56.8812 68.7101 57.0912 68.7101H88.1112C88.3312 68.7101 88.5012 68.5301 88.5012 68.3201V38.7901C88.5012 38.7701 88.5012 38.7501 88.5012 38.7401Z" fill="white"/>
<path opacity="0.15" d="M72.5117 82.4899L55.7817 65.7599C58.2117 62.6099 59.6517 58.6599 59.6517 54.3799C59.6517 44.0299 51.2517 35.6699 40.9317 35.6699C30.6017 35.6699 22.2217 44.0499 22.2217 54.3799C22.2217 64.7199 30.6017 73.0899 40.9317 73.0899C45.0817 73.0899 48.9017 71.7399 52.0217 69.4599L68.7817 86.2199C68.7817 86.2199 70.2417 86.7899 71.7917 85.1699C73.3317 83.5599 72.5117 82.4899 72.5117 82.4899ZM24.9917 54.4399C24.9917 45.6699 32.1017 38.5599 40.8717 38.5599C49.6417 38.5599 56.7517 45.6699 56.7517 54.4399C56.7517 63.2099 49.6217 70.3199 40.8617 70.3199C32.1017 70.3199 24.9917 63.2099 24.9917 54.4399Z" fill="#1F1D20"/>
<path d="M41.4615 70.12C50.9515 70.12 58.6415 62.43 58.6415 52.94C58.6415 43.45 50.9615 35.75 41.4615 35.75C31.9715 35.75 24.2715 43.44 24.2715 52.94C24.2715 62.44 31.9815 70.12 41.4615 70.12Z" fill="white"/>
<path d="M47.3818 48.7002H39.0918V49.4002H47.3818V48.7002Z" fill="#78787D"/>
<path d="M47.3818 57.23H39.0918V57.93H47.3818V57.23Z" fill="#78787D"/>
<path d="M39.0918 40.1802H47.3818C47.5718 40.1802 47.7318 40.3402 47.7318 40.5302V66.1302C47.7318 66.3202 47.5718 66.4802 47.3818 66.4802H39.0918V65.7802H47.0218V40.8802H39.0918V40.1802Z" fill="#78787D"/>
<path d="M59.6416 52.7202H47.3516V53.4202H59.6416V52.7202Z" fill="#78787D"/>
<path opacity="0.2" d="M43.1817 36.7798H34.7217C34.2017 36.7798 33.7817 37.1998 33.7817 37.7198V42.8998C33.7817 43.4198 34.2017 43.8398 34.7217 43.8398H43.1817C43.7017 43.8498 44.1217 43.4198 44.1217 42.9098V37.7298C44.1117 37.2098 43.7017 36.7798 43.1817 36.7798Z" fill="#1F1D21"/>
<path opacity="0.2" d="M43.1817 54.0298H34.7217C34.2017 54.0298 33.7817 54.4498 33.7817 54.9698V60.1498C33.7817 60.6698 34.2017 61.0898 34.7217 61.0898H43.1817C43.7017 61.0898 44.1217 60.6698 44.1217 60.1498V54.9798C44.1117 54.4598 43.7017 54.0298 43.1817 54.0298Z" fill="#1F1D21"/>
<path opacity="0.2" d="M43.1817 45.3896H34.7217C34.2017 45.3896 33.7817 45.8097 33.7817 46.3297V51.5096C33.7817 52.0296 34.2017 52.4496 34.7217 52.4496H43.1817C43.7017 52.4596 44.1217 52.0296 44.1217 51.5096V46.3297C44.1117 45.8197 43.7017 45.3896 43.1817 45.3896Z" fill="#1F1D21"/>
<path opacity="0.2" d="M43.1817 62.6396H34.7217C34.2017 62.6396 33.7817 63.0597 33.7817 63.5797V68.7597C33.7817 69.2797 34.2017 69.6996 34.7217 69.6996H43.1817C43.7017 69.6996 44.1217 69.2797 44.1217 68.7597V63.5797C44.1117 63.0697 43.7017 62.6396 43.1817 62.6396Z" fill="#1F1D21"/>
<path d="M43.1417 36.1099H34.6817C34.1617 36.1099 33.7417 36.5299 33.7417 37.0499V42.2299C33.7417 42.7499 34.1617 43.1699 34.6817 43.1699H43.1517C43.6717 43.1799 44.0917 42.7499 44.0917 42.2399V37.0499C44.0817 36.5299 43.6617 36.1099 43.1417 36.1099Z" fill="url(#paint2_linear)"/>
<path d="M43.1417 53.3599H34.6817C34.1617 53.3599 33.7417 53.7799 33.7417 54.2999V59.4799C33.7417 59.9999 34.1617 60.4199 34.6817 60.4199H43.1517C43.6717 60.4199 44.0917 59.9999 44.0917 59.4799V54.2999C44.0817 53.7799 43.6617 53.3599 43.1417 53.3599Z" fill="url(#paint3_linear)"/>
<path d="M43.1417 44.7197H34.6817C34.1617 44.7197 33.7417 45.1397 33.7417 45.6597V50.8397C33.7417 51.3597 34.1617 51.7797 34.6817 51.7797H43.1517C43.6717 51.7897 44.0917 51.3597 44.0917 50.8397V45.6597C44.0817 45.1397 43.6617 44.7197 43.1417 44.7197Z" fill="url(#paint4_linear)"/>
<path d="M43.1417 61.9697H34.6817C34.1617 61.9697 33.7417 62.3897 33.7417 62.9097V68.0897C33.7417 68.6097 34.1617 69.0297 34.6817 69.0297H43.1517C43.6717 69.0297 44.0917 68.6097 44.0917 68.0897V62.9097C44.0817 62.3997 43.6617 61.9697 43.1417 61.9697Z" fill="url(#paint5_linear)"/>
<path d="M40.9019 66.1499H39.9619C39.8319 66.1499 39.7319 66.2599 39.7319 66.3799C39.7319 66.5099 39.8419 66.6099 39.9619 66.6099H40.9019C41.0319 66.6099 41.1319 66.5099 41.1319 66.3799C41.1319 66.2599 41.0319 66.1499 40.9019 66.1499Z" fill="white"/>
<path d="M40.9018 64.2798H37.8418C37.7118 64.2798 37.6118 64.3898 37.6118 64.5098C37.6118 64.6398 37.7218 64.7398 37.8418 64.7398H40.9018C41.0318 64.7398 41.1318 64.6298 41.1318 64.5098C41.1318 64.3898 41.0318 64.2798 40.9018 64.2798Z" fill="white"/>
<path d="M40.9019 65.23H38.7119C38.5819 65.23 38.7819 65.34 38.7819 65.46C38.7819 65.59 38.5819 65.68 38.7119 65.68H40.9019C41.0319 65.68 41.1319 65.6 41.1319 65.46C41.1319 65.34 41.0319 65.23 40.9019 65.23Z" fill="white"/>
<path d="M40.9016 63.3398H36.9116C36.7816 63.3398 36.6816 63.4498 36.6816 63.5698V63.5798C36.6816 63.7098 36.7916 63.8098 36.9116 63.8098H40.9016C41.0316 63.8098 41.1316 63.6998 41.1316 63.5698C41.1316 63.4398 41.0316 63.3398 40.9016 63.3398Z" fill="white"/>
<path d="M36.9116 63.7998H37.3916C37.5216 63.7998 37.6216 63.6898 37.6216 63.5698C37.6216 63.4498 37.5116 63.3398 37.3916 63.3398H36.9116C36.7816 63.3398 36.6816 63.4498 36.6816 63.5698C36.6816 63.6898 36.7816 63.7998 36.9116 63.7998Z" fill="#50E6FF"/>
<path d="M36.9116 64.75H37.8516C37.9816 64.75 38.0816 64.64 38.0816 64.52C38.0816 64.39 37.9716 64.29 37.8516 64.29H36.9116C36.7816 64.29 36.6816 64.4 36.6816 64.52C36.6816 64.64 36.7816 64.75 36.9116 64.75Z" fill="#45CAF2"/>
<path d="M36.9116 66.6197H39.9716C40.1016 66.6197 40.2016 66.5097 40.2016 66.3897C40.2016 66.2597 40.0916 66.1597 39.9716 66.1597H36.9116C36.7816 66.1597 36.6816 66.2697 36.6816 66.3897C36.6816 66.5197 36.7816 66.6197 36.9116 66.6197Z" fill="#0078D1"/>
<path d="M36.9116 65.6797H38.8016C38.9316 65.6797 39.0316 65.5697 39.0316 65.4497C39.0316 65.3197 38.9216 65.2197 38.8016 65.2197H36.9116C36.7816 65.2197 36.6816 65.3297 36.6816 65.4497C36.6816 65.5697 36.7816 65.6797 36.9116 65.6797Z" fill="#32B0E7"/>
<path d="M36.9116 67.5698H40.9016C41.0316 67.5698 41.1316 67.4598 41.1316 67.3298V67.3198C41.1316 67.1898 41.0216 67.0898 40.9016 67.0898H36.9116C36.7816 67.0898 36.6816 67.1998 36.6816 67.3198C36.6816 67.4598 36.7816 67.5698 36.9116 67.5698Z" fill="#185A97"/>
<path opacity="0.15" d="M38.9015 57.23L41.2115 58.58L38.8915 59.93L36.5815 58.58L38.9015 57.23Z" fill="#1F1D20"/>
<path d="M38.8915 56.9198V59.6098L36.5815 58.2498V55.5698L38.8915 56.9198Z" fill="#ACF3FD"/>
<path d="M38.9015 54.23L41.2115 55.58L38.8915 56.93L36.5815 55.58L38.9015 54.23Z" fill="white"/>
<path d="M41.2116 55.5698V58.2498L38.8916 59.6098V56.9198L41.2116 55.5698Z" fill="#45CAF2"/>
<path d="M38.8916 59.5997V56.9097L41.2116 58.2397L38.8916 59.5997Z" fill="#50E6FF"/>
<path d="M38.8915 59.5997V56.9097L36.5815 58.2397L38.8915 59.5997Z" fill="#84ECFD"/>
<g opacity="0.4">
<path opacity="0.4" d="M41.3717 49.6497C41.2617 49.5897 41.1217 49.5897 40.9817 49.6197L39.2217 48.6497C39.2517 48.5897 39.2217 48.5097 39.1417 48.4697C39.0117 48.3897 38.7917 48.3897 38.6817 48.4697C38.5717 48.5297 38.5517 48.6297 38.6317 48.7097L36.8417 49.6497C36.7117 49.5897 36.5217 49.5897 36.4017 49.6597C36.2717 49.7397 36.2717 49.8497 36.4017 49.9297C36.4817 49.9797 36.6017 49.9897 36.7117 49.9797L38.6017 51.0197C38.5417 51.0997 38.5517 51.1797 38.6517 51.2397C38.7817 51.3197 39.0017 51.3197 39.1117 51.2397C39.2217 51.1797 39.2417 51.0797 39.1617 50.9997L40.9517 49.9497C41.0817 49.9997 41.2517 49.9997 41.3717 49.9297C41.5117 49.8397 41.5117 49.7197 41.3717 49.6497Z" fill="#1F1D21"/>
</g>
<g opacity="0.25">
<path opacity="0.25" d="M36.7617 47.01L38.9017 45.75L41.0417 46.98L38.9017 48.24L36.7617 47.01Z" fill="#1E9FE0"/>
</g>
<g opacity="0.25">
<path opacity="0.25" d="M36.7417 49.49L38.9017 48.23L41.0217 49.46L38.8817 50.72L36.7417 49.49Z" fill="#1E9FE0"/>
</g>
<g opacity="0.05">
<path opacity="0.05" d="M38.9018 48.24L38.8818 50.72L41.0218 49.46L41.0418 46.98L38.9018 48.24Z" fill="#1E9FE0"/>
</g>
<g opacity="0.05">
<path opacity="0.05" d="M36.7617 47.01L36.7417 49.49L38.9017 48.23V45.75L36.7617 47.01Z" fill="#1E9FE0"/>
</g>
<path d="M38.9217 48.2497C38.9217 48.2497 38.9117 48.2497 38.9217 48.2497L36.7717 47.0197C36.7617 47.0197 36.7617 47.0097 36.7617 47.0097C36.7617 46.9997 36.7617 46.9997 36.7717 46.9997L38.9117 45.7397C38.9217 45.7397 38.9217 45.7397 38.9317 45.7397L41.0717 46.9697C41.0817 46.9697 41.0817 46.9797 41.0817 46.9797C41.0817 46.9897 41.0817 46.9897 41.0717 46.9897L38.9217 48.2497ZM36.8117 47.0097L38.9217 48.2297L41.0317 46.9897L38.9217 45.7697L36.8117 47.0097Z" fill="#50E6FF"/>
<path d="M38.8919 50.7297L36.7419 49.4997C36.7319 49.4997 36.7319 49.4897 36.7319 49.4897C36.7319 49.4797 36.7319 49.4797 36.7419 49.4797L38.9019 48.2197C38.9119 48.2197 38.9119 48.2197 38.9219 48.2197L41.0419 49.4497C41.0519 49.4497 41.0519 49.4597 41.0519 49.4597C41.0519 49.4597 41.0519 49.4697 41.0419 49.4697L38.8919 50.7297C38.9019 50.7297 38.9019 50.7297 38.8919 50.7297ZM36.7819 49.4897L38.8919 50.7097L41.0019 49.4697L38.9119 48.2497L36.7819 49.4897Z" fill="#50E6FF"/>
<path d="M38.8916 50.73C38.8816 50.72 38.8716 50.72 38.8716 50.71L38.8916 48.23C38.8916 48.22 38.8916 48.22 38.9016 48.22L41.0416 46.96C41.0516 46.96 41.0516 46.96 41.0616 46.96C41.0716 46.96 41.0716 46.97 41.0716 46.98L41.0516 49.46C41.0516 49.47 41.0516 49.47 41.0416 49.47L38.8916 50.73C38.8916 50.73 38.9016 50.73 38.8916 50.73ZM38.9316 48.25L38.9116 50.7L41.0216 49.47L41.0416 47.02L38.9316 48.25Z" fill="white"/>
<path d="M36.7519 49.5C36.7419 49.49 36.7319 49.49 36.7319 49.48L36.7519 47C36.7519 46.99 36.7519 46.99 36.7619 46.99L38.9019 45.73C38.9119 45.73 38.9119 45.73 38.9219 45.73C38.9319 45.73 38.9319 45.74 38.9319 45.74V48.22C38.9319 48.23 38.9319 48.23 38.9219 48.23L36.7519 49.5C36.7619 49.5 36.7619 49.5 36.7519 49.5ZM36.7919 47.02L36.7719 49.47L38.9019 48.23V45.78L36.7919 47.02Z" fill="white"/>
<path d="M38.9217 48.2497C38.9217 48.2497 38.9117 48.2497 38.9217 48.2497L36.7717 47.0197C36.7617 47.0197 36.7617 47.0097 36.7617 47.0097C36.7617 46.9997 36.7617 46.9997 36.7717 46.9997L38.9117 45.7397C38.9217 45.7397 38.9217 45.7397 38.9317 45.7397L41.0717 46.9697C41.0817 46.9697 41.0817 46.9797 41.0817 46.9797C41.0817 46.9897 41.0817 46.9897 41.0717 46.9897L38.9217 48.2497ZM36.8117 47.0097L38.9217 48.2297L41.0317 46.9897L38.9217 45.7697L36.8117 47.0097Z" fill="white"/>
<path d="M38.8919 50.7297L36.7419 49.4997C36.7319 49.4997 36.7319 49.4897 36.7319 49.4897C36.7319 49.4797 36.7319 49.4797 36.7419 49.4797L38.9019 48.2197C38.9119 48.2197 38.9119 48.2197 38.9219 48.2197L41.0419 49.4497C41.0519 49.4497 41.0519 49.4597 41.0519 49.4597C41.0519 49.4597 41.0519 49.4697 41.0419 49.4697L38.8919 50.7297C38.9019 50.7297 38.9019 50.7297 38.8919 50.7297ZM36.7819 49.4897L38.8919 50.7097L41.0019 49.4697L38.9119 48.2497L36.7819 49.4897Z" fill="white"/>
<path d="M41.0218 47.2301C40.9118 47.2301 40.8218 47.1401 40.8218 47.0301C40.8218 46.9201 40.9118 46.8301 41.0218 46.8301C41.1318 46.8301 41.2118 46.9201 41.2118 47.0301C41.2118 47.1301 41.1318 47.2301 41.0218 47.2301Z" fill="#50E6FF"/>
<path d="M41.0118 46.9301C41.0618 46.9301 41.0918 46.9701 41.0918 47.0101C41.0918 47.0601 41.0518 47.1001 41.0118 47.1001C40.9718 47.1001 40.9318 47.0601 40.9318 47.0201C40.9318 46.9701 40.9718 46.9301 41.0118 46.9301ZM41.0118 46.8101C40.9018 46.8101 40.8018 46.9001 40.8018 47.0201C40.8018 47.1301 40.8918 47.2301 41.0118 47.2301C41.1318 47.2301 41.2218 47.1401 41.2218 47.0201C41.2218 46.9101 41.1318 46.8101 41.0118 46.8101Z" fill="white"/>
<path d="M38.9217 48.4498C38.8117 48.4498 38.7217 48.3598 38.7217 48.2498C38.7217 48.1398 38.8117 48.0498 38.9217 48.0498C39.0317 48.0498 39.1117 48.1398 39.1117 48.2498C39.1117 48.3498 39.0217 48.4498 38.9217 48.4498Z" fill="#50E6FF"/>
<path d="M38.9219 48.16C38.9719 48.16 39.0019 48.2 39.0019 48.24C39.0019 48.28 38.9619 48.32 38.9219 48.32C38.8719 48.32 38.8419 48.28 38.8419 48.24C38.8219 48.2 38.8619 48.16 38.9219 48.16ZM38.9219 48.04C38.8119 48.04 38.7119 48.13 38.7119 48.25C38.7119 48.36 38.8019 48.46 38.9219 48.46C39.0319 48.46 39.1319 48.37 39.1319 48.25C39.1219 48.13 39.0219 48.04 38.9219 48.04Z" fill="white"/>
<path d="M38.9217 45.9698C38.8117 45.9698 38.7217 45.8798 38.7217 45.7698C38.7217 45.6598 38.8117 45.5698 38.9217 45.5698C39.0317 45.5698 39.1117 45.6598 39.1117 45.7698C39.1117 45.8798 39.0217 45.9698 38.9217 45.9698Z" fill="#50E6FF"/>
<path d="M38.9219 45.6898C38.9719 45.6898 39.0019 45.7298 39.0019 45.7698C39.0019 45.8198 38.9619 45.8498 38.9219 45.8498C38.8719 45.8498 38.8419 45.8098 38.8419 45.7698C38.8219 45.7198 38.8619 45.6898 38.9219 45.6898ZM38.9219 45.5698C38.8119 45.5698 38.7119 45.6598 38.7119 45.7798C38.7119 45.8998 38.8019 45.9898 38.9219 45.9898C39.0319 45.9898 39.1319 45.8998 39.1319 45.7798C39.1319 45.6598 39.0219 45.5698 38.9219 45.5698Z" fill="white"/>
<path d="M36.7615 47.2301C36.6515 47.2301 36.5615 47.1401 36.5615 47.0301C36.5615 46.9201 36.6515 46.8301 36.7615 46.8301C36.8715 46.8301 36.9515 46.9201 36.9515 47.0301C36.9515 47.1301 36.8715 47.2301 36.7615 47.2301Z" fill="#50E6FF"/>
<path d="M36.7515 46.9301C36.8015 46.9301 36.8315 46.9701 36.8315 47.0101C36.8315 47.0601 36.7915 47.1001 36.7515 47.1001C36.7115 47.1001 36.6715 47.0601 36.6715 47.0201C36.6715 46.9701 36.7115 46.9301 36.7515 46.9301ZM36.7515 46.8101C36.6415 46.8101 36.5415 46.9001 36.5415 47.0201C36.5415 47.1301 36.6315 47.2301 36.7515 47.2301C36.8615 47.2301 36.9615 47.1401 36.9615 47.0201C36.9615 46.9101 36.8715 46.8101 36.7515 46.8101Z" fill="white"/>
<path d="M36.7615 49.69C36.6515 49.69 36.5615 49.6 36.5615 49.49C36.5615 49.38 36.6515 49.29 36.7615 49.29C36.8715 49.29 36.9515 49.38 36.9515 49.49C36.9515 49.6 36.8715 49.69 36.7615 49.69Z" fill="#50E6FF"/>
<path d="M36.7515 49.3998C36.8015 49.3998 36.8315 49.4398 36.8315 49.4798C36.8315 49.5298 36.7915 49.5598 36.7515 49.5598C36.7115 49.5598 36.6715 49.5198 36.6715 49.4798C36.6715 49.4398 36.7115 49.3998 36.7515 49.3998ZM36.7515 49.2798C36.6415 49.2798 36.5415 49.3698 36.5415 49.4898C36.5415 49.5998 36.6315 49.6998 36.7515 49.6998C36.8615 49.6998 36.9615 49.6098 36.9615 49.4898C36.9615 49.3798 36.8715 49.2798 36.7515 49.2798Z" fill="white"/>
<path d="M38.9217 50.92C38.8117 50.92 38.7217 50.83 38.7217 50.72C38.7217 50.61 38.8117 50.52 38.9217 50.52C39.0317 50.52 39.1117 50.61 39.1117 50.72C39.1117 50.82 39.0217 50.92 38.9217 50.92Z" fill="#50E6FF"/>
<path d="M38.9219 50.6298C38.9719 50.6298 39.0019 50.6698 39.0019 50.7098C39.0019 50.7598 38.9619 50.7898 38.9219 50.7898C38.8719 50.7898 38.8419 50.7498 38.8419 50.7098C38.8219 50.6698 38.8619 50.6298 38.9219 50.6298ZM38.9219 50.5098C38.8119 50.5098 38.7119 50.5998 38.7119 50.7198C38.7119 50.8298 38.8019 50.9298 38.9219 50.9298C39.0319 50.9298 39.1319 50.8398 39.1319 50.7198C39.1219 50.6098 39.0219 50.5098 38.9219 50.5098Z" fill="white"/>
<path d="M41.0218 49.69C40.9118 49.69 40.8218 49.6 40.8218 49.49C40.8218 49.38 40.9118 49.29 41.0218 49.29C41.1318 49.29 41.2118 49.38 41.2118 49.49C41.2118 49.6 41.1318 49.69 41.0218 49.69Z" fill="#50E6FF"/>
<path d="M41.0118 49.3998C41.0618 49.3998 41.0918 49.4398 41.0918 49.4798C41.0918 49.5298 41.0518 49.5598 41.0118 49.5598C40.9718 49.5598 40.9318 49.5198 40.9318 49.4798C40.9318 49.4398 40.9718 49.3998 41.0118 49.3998ZM41.0118 49.2798C40.9018 49.2798 40.8018 49.3698 40.8018 49.4898C40.8018 49.5998 40.8918 49.6998 41.0118 49.6998C41.1318 49.6998 41.2218 49.6098 41.2218 49.4898C41.2218 49.3798 41.1318 49.2798 41.0118 49.2798Z" fill="white"/>
<path opacity="0.2" d="M38.9018 37.48C37.4818 37.48 36.3418 38.63 36.3418 40.04C36.3418 41.46 37.4918 42.6 38.9018 42.6C40.3218 42.6 41.4618 41.45 41.4618 40.04C41.4618 38.63 40.3118 37.48 38.9018 37.48ZM38.9018 41.24C38.2518 41.24 37.7118 40.7 37.7118 40.05C37.7118 39.4 38.2518 38.86 38.9018 38.86C39.5518 38.86 40.0918 39.4 40.0918 40.05C40.1018 40.7 39.5618 41.24 38.9018 41.24Z" fill="#1F1D21"/>
<path d="M38.9018 37.1499C37.4818 37.1499 36.3418 38.2999 36.3418 39.7099C36.3418 41.1299 37.4918 42.2699 38.9018 42.2699C40.3218 42.2699 41.4618 41.1199 41.4618 39.7099C41.4618 38.2899 40.3118 37.1499 38.9018 37.1499ZM38.9018 40.8999C38.2518 40.8999 37.7118 40.3599 37.7118 39.7099C37.7118 39.0599 38.2518 38.5199 38.9018 38.5199C39.5518 38.5199 40.0918 39.0599 40.0918 39.7099C40.1018 40.3599 39.5618 40.8999 38.9018 40.8999Z" fill="white"/>
<path d="M38.9017 38.5197L38.8917 37.1597C37.9917 37.1597 37.2017 37.6297 36.7417 38.3397L37.8617 39.1297C38.0717 38.7597 38.4617 38.5197 38.9017 38.5197Z" fill="#3BCAF4"/>
<path d="M37.7118 39.7101C37.7118 39.4901 37.7718 39.2901 37.8718 39.1201L36.7518 38.3301L36.7418 38.3401C36.4918 38.7301 36.3418 39.2001 36.3418 39.7101C36.3418 40.0901 36.4218 40.4401 36.5718 40.7601L37.8218 40.2101C37.7518 40.0601 37.7118 39.8901 37.7118 39.7101Z" fill="#50E6FF"/>
<path d="M73.9718 44.88L72.0718 42.92C71.8118 42.65 71.3818 42.66 71.1418 42.94L63.1118 52.11C62.7518 52.52 62.7518 53.13 63.1118 53.54L71.0718 62.69C71.3718 63.03 71.9018 63.03 72.2018 62.69L74.5818 59.95L74.8418 45.84L73.9718 44.88Z" fill="url(#paint6_linear)"/>
<path d="M83.3219 51.71L75.4119 43.06C75.0719 42.69 74.4919 42.69 74.1419 43.05L70.4919 46.83C70.0919 47.24 70.0919 47.89 70.4819 48.31L74.2319 52.33C74.5119 52.63 74.5119 53.08 74.2319 53.38L70.4719 57.45C70.0819 57.87 70.0919 58.51 70.4919 58.92L74.1619 62.72C74.5119 63.08 75.0919 63.08 75.4319 62.71L83.3519 53.99C83.9119 53.34 83.9119 52.35 83.3219 51.71Z" fill="url(#paint7_linear)"/>
<path d="M83.702 53.5701L80.172 57.4901C79.902 57.7901 79.442 57.8001 79.162 57.5101L75.612 53.8801C75.032 53.2901 75.032 52.3501 75.602 51.7601L79.082 48.1601C79.362 47.8701 79.822 47.8801 80.092 48.1801L83.692 52.1501C84.062 52.5601 84.062 53.1701 83.702 53.5701Z" fill="url(#paint8_linear)"/>
<path d="M72.5117 81.32L55.7817 64.59C58.2117 61.44 59.6517 57.49 59.6517 53.21C59.6517 42.86 51.2517 34.5 40.9317 34.5C30.6017 34.5 22.2217 42.88 22.2217 53.21C22.2217 63.55 30.6017 71.92 40.9317 71.92C45.0817 71.92 48.9017 70.57 52.0217 68.29L68.7817 85.05C68.7817 85.05 70.2417 85.62 71.7917 84C73.3417 82.38 72.5117 81.32 72.5117 81.32ZM24.9917 53.27C24.9917 44.5 32.1017 37.39 40.8717 37.39C49.6417 37.39 56.7517 44.5 56.7517 53.27C56.7517 62.04 49.6217 69.15 40.8617 69.15C32.1017 69.15 24.9917 62.04 24.9917 53.27Z" fill="url(#paint9_linear)"/>
<defs>
<linearGradient id="paint0_linear" x1="49.4121" y1="-13.7897" x2="53.3941" y2="131.98" gradientUnits="userSpaceOnUse">
<stop stop-color="#00ABDE"/>
<stop offset="1" stop-color="#007ED8"/>
</linearGradient>
<linearGradient id="paint1_linear" x1="2.61476" y1="-20.6246" x2="98.1424" y2="120.256" gradientUnits="userSpaceOnUse">
<stop stop-color="#007ED8"/>
<stop offset="0.7065" stop-color="#002D4C"/>
</linearGradient>
<linearGradient id="paint2_linear" x1="28.5448" y1="23.7489" x2="57.0062" y2="67.3793" gradientUnits="userSpaceOnUse">
<stop stop-color="#007ED8"/>
<stop offset="0.7065" stop-color="#002D4C"/>
</linearGradient>
<linearGradient id="paint3_linear" x1="20.6517" y1="28.8978" x2="49.113" y2="72.5282" gradientUnits="userSpaceOnUse">
<stop stop-color="#007ED8"/>
<stop offset="0.7065" stop-color="#002D4C"/>
</linearGradient>
<linearGradient id="paint4_linear" x1="24.6053" y1="26.3185" x2="53.0667" y2="69.9489" gradientUnits="userSpaceOnUse">
<stop stop-color="#007ED8"/>
<stop offset="0.7065" stop-color="#002D4C"/>
</linearGradient>
<linearGradient id="paint5_linear" x1="16.7113" y1="31.4679" x2="45.1727" y2="75.0983" gradientUnits="userSpaceOnUse">
<stop stop-color="#007ED8"/>
<stop offset="0.7065" stop-color="#002D4C"/>
</linearGradient>
<linearGradient id="paint6_linear" x1="68.3389" y1="43.4785" x2="69.8115" y2="60.7812" gradientUnits="userSpaceOnUse">
<stop stop-color="#A23093"/>
<stop offset="1" stop-color="#692266"/>
</linearGradient>
<linearGradient id="paint7_linear" x1="70.1714" y1="52.8794" x2="83.7619" y2="52.8794" gradientUnits="userSpaceOnUse">
<stop stop-color="#E184C4"/>
<stop offset="1" stop-color="#D76EBC"/>
</linearGradient>
<linearGradient id="paint8_linear" x1="75.1746" y1="52.8365" x2="83.9696" y2="52.8365" gradientUnits="userSpaceOnUse">
<stop stop-color="#E89BCA"/>
<stop offset="1" stop-color="#E591C8"/>
</linearGradient>
<linearGradient id="paint9_linear" x1="-22.5002" y1="12.539" x2="100.335" y2="91.2949" gradientUnits="userSpaceOnUse">
<stop stop-color="#007ED8"/>
<stop offset="0.7065" stop-color="#002D4C"/>
</linearGradient>
</defs>
</svg>
