<svg width="103" height="103" viewBox="0 0 103 103" fill="none" xmlns="http://www.w3.org/2000/svg">
<path d="M51.8127 97.8817C25.9627 97.8817 5.00269 76.9317 5.00269 51.0717C5.00269 25.2117 25.9627 4.26172 51.8127 4.26172C77.6627 4.26172 98.6227 25.2217 98.6227 51.0717C98.6227 76.9217 77.6627 97.8817 51.8127 97.8817Z" fill="url(#paint0_linear)"/>
<path fill-rule="evenodd" clip-rule="evenodd" d="M97.7129 51.0716C97.7129 76.4216 77.1629 96.9716 51.8129 96.9716C26.4629 96.9716 5.91285 76.4216 5.91285 51.0716C5.91285 25.7216 26.4629 5.17164 51.8129 5.17164C77.1629 5.17164 97.7129 25.7216 97.7129 51.0716ZM51.8129 1.43164C79.2329 1.43164 101.453 23.6516 101.453 51.0716C101.453 78.4916 79.2229 100.712 51.8129 100.712C24.3929 100.712 2.17285 78.4816 2.17285 51.0716C2.17285 23.6516 24.3929 1.43164 51.8129 1.43164Z" fill="#F2F1F0"/>
<path fill-rule="evenodd" clip-rule="evenodd" d="M94.9027 51.0717C94.9027 74.8717 75.6127 94.1617 51.8127 94.1617C28.0127 94.1617 8.72267 74.8717 8.72267 51.0717C8.72267 27.2717 28.0127 7.9817 51.8127 7.9817C75.6127 7.9817 94.9027 27.2717 94.9027 51.0717ZM51.8127 4.2417C77.6727 4.2417 98.6427 25.2117 98.6427 51.0717C98.6427 76.9317 77.6727 97.9017 51.8127 97.9017C25.9527 97.9017 4.98267 76.9317 4.98267 51.0717C4.98267 25.2117 25.9427 4.2417 51.8127 4.2417Z" fill="url(#paint1_linear)"/>
<path d="M77.0727 28.5015H24.2327C23.1427 28.5015 22.2727 29.3415 22.2727 30.3615V66.7615C22.2727 67.7815 23.1527 68.6215 24.2327 68.6215H77.0727C78.1627 68.6215 79.0327 67.7815 79.0327 66.7615V30.3715C79.0327 29.3415 78.1427 28.5015 77.0727 28.5015Z" fill="url(#paint2_linear)"/>
<path d="M80.7628 33.1715L79.3528 31.8115L56.7428 55.3615C55.3828 56.7915 53.5828 57.5815 51.6528 57.6115C49.7928 57.6415 47.9228 56.9015 46.5128 55.5315L23.3128 32.8815L21.9528 34.2815L38.9428 50.8715L20.6328 66.0515L21.8928 67.5515L40.3528 52.2415L45.1628 56.9315C46.9028 58.6315 49.1728 59.5615 51.5528 59.5615C51.6028 59.5615 51.6528 59.5615 51.6928 59.5615C54.1428 59.5215 56.4228 58.5015 58.1528 56.7115L62.4528 52.2215L77.7928 65.1015L79.0528 63.6015L63.8228 50.8015L80.7628 33.1715Z" fill="url(#paint3_linear)"/>
<path d="M79.1527 25.1816H22.1527C20.9927 25.1816 20.0327 26.1316 20.0327 27.3016V69.2516C20.0327 70.4116 20.9827 71.3716 22.1527 71.3716H79.1527C80.3127 71.3716 81.2727 70.4216 81.2727 69.2516V27.3016C81.2627 26.1316 80.3127 25.1816 79.1527 25.1816ZM77.5027 65.7816C77.5027 66.7516 76.6627 67.5516 75.6427 67.5516H25.6627C24.6427 67.5516 23.8027 66.7516 23.8027 65.7816V31.3516C23.8027 30.3816 24.6427 29.5816 25.6627 29.5816H75.6527C76.6727 29.5816 77.5127 30.3616 77.5127 31.3516V65.7816H77.5027Z" fill="url(#paint4_linear)"/>
<path opacity="0.15" d="M79.1527 71.3617H22.1527C20.9927 71.3617 20.0327 70.4117 20.0327 69.2417V70.8217C20.0327 71.9717 20.9827 72.9317 22.1527 72.9417H79.1527C80.3127 72.9417 81.2727 71.9917 81.2727 70.8217V69.2417C81.2627 70.4117 80.3127 71.3617 79.1527 71.3617Z" fill="#1F1D20"/>
<path opacity="0.15" d="M75.6527 67.5415H25.6627C24.6427 67.5415 23.8027 66.7415 23.8027 65.7715V66.3615C23.8027 67.3315 24.6427 68.1315 25.6627 68.1315H75.6527C76.6727 68.1315 77.5127 67.3315 77.5127 66.3615V65.7715C77.5027 66.7615 76.6727 67.5415 75.6527 67.5415Z" fill="#1F1D20"/>
<path opacity="0.2" d="M84.5128 76.3518C85.1828 76.3518 85.7328 75.8018 85.7328 75.1318V53.0918H61.8828V75.1418C61.8828 75.8118 62.4328 76.3618 63.1028 76.3618H84.5128V76.3518Z" fill="#1F1D21"/>
<path d="M85.7228 52.7117V52.3417C85.7228 51.8817 85.3528 51.5117 84.8928 51.5117H62.7028C62.2428 51.5117 61.8728 51.8817 61.8728 52.3417V52.7517V53.1317V74.3717C61.8728 74.8317 62.2428 75.2017 62.7028 75.2017H84.9028C85.3628 75.2017 85.7328 74.8317 85.7328 74.3717V52.7517C85.7328 52.7317 85.7228 52.7217 85.7228 52.7117Z" fill="#F2F1F0"/>
<path opacity="0.15" d="M83.2529 63.6019L80.5029 60.5119L80.4929 60.5219L77.3529 56.9819V56.9019H66.1829C65.5229 56.9019 65.1629 57.6919 65.6129 58.1819L70.9028 64.0819L65.5629 70.0419C65.1629 70.4819 65.4829 71.1919 66.0729 71.1919H70.9829H77.0629C77.1929 71.1919 77.3128 71.1419 77.4028 71.0419L83.2429 64.6819C83.5229 64.3719 83.5229 63.9119 83.2529 63.6019Z" fill="#1F1D20"/>
<path d="M77.3527 60.6617L71.6227 64.0017L65.6027 57.2917C65.1627 56.8017 65.5127 56.0117 66.1727 56.0117H77.3527V60.6617Z" fill="url(#paint5_linear)"/>
<path d="M80.5329 59.6715L77.3028 56.0415L65.5629 69.1515C65.1629 69.5915 65.4829 70.3015 66.0729 70.3015H70.9829L80.5329 59.6715Z" fill="url(#paint6_linear)"/>
<path d="M83.2527 62.7218L80.5027 59.6318L70.8127 70.3118H77.0527C77.1827 70.3118 77.3027 70.2618 77.3927 70.1618L83.2327 63.8018C83.5227 63.4918 83.5227 63.0218 83.2527 62.7218Z" fill="url(#paint7_linear)"/>
<defs>
<linearGradient id="paint0_linear" x1="7.03619" y1="-12.401" x2="84.422" y2="97.2996" gradientUnits="userSpaceOnUse">
<stop stop-color="#97C3F9"/>
<stop offset="0.4975" stop-color="#388CF4"/>
<stop offset="1" stop-color="#2C7CEF"/>
</linearGradient>
<linearGradient id="paint1_linear" x1="44.3122" y1="4.6109" x2="57.9185" y2="88.8943" gradientUnits="userSpaceOnUse">
<stop offset="0.0829" stop-color="#1152D4"/>
<stop offset="0.4296" stop-color="#0D40B5"/>
<stop offset="0.706" stop-color="#0D3FB1"/>
<stop offset="1" stop-color="#092D7F"/>
</linearGradient>
<linearGradient id="paint2_linear" x1="21.3232" y1="11.8074" x2="184.917" y2="216.822" gradientUnits="userSpaceOnUse">
<stop offset="0.0435" stop-color="white"/>
<stop offset="0.4857" stop-color="#4DC1EA"/>
<stop offset="0.8452" stop-color="#0078D4"/>
</linearGradient>
<linearGradient id="paint3_linear" x1="36.8592" y1="-13.1818" x2="66.7596" y2="122.482" gradientUnits="userSpaceOnUse">
<stop offset="0.0435" stop-color="white"/>
<stop offset="0.4857" stop-color="#4DC1EA"/>
<stop offset="0.8452" stop-color="#0078D4"/>
</linearGradient>
<linearGradient id="paint4_linear" x1="43.6141" y1="-3.43566" x2="57.7922" y2="100.733" gradientUnits="userSpaceOnUse">
<stop offset="0.0435" stop-color="white"/>
<stop offset="0.4857" stop-color="#4DC1EA"/>
<stop offset="0.8452" stop-color="#0078D4"/>
</linearGradient>
<linearGradient id="paint5_linear" x1="66.1594" y1="52.1689" x2="79.1865" y2="64.426" gradientUnits="userSpaceOnUse">
<stop offset="0.4598" stop-color="#1152D4"/>
<stop offset="0.6156" stop-color="#0D3FB3"/>
</linearGradient>
<linearGradient id="paint6_linear" x1="65.3888" y1="63.1697" x2="80.5331" y2="63.1697" gradientUnits="userSpaceOnUse">
<stop stop-color="#388CF4"/>
<stop offset="1" stop-color="#2C7CEF"/>
</linearGradient>
<linearGradient id="paint7_linear" x1="70.8191" y1="64.9628" x2="83.4551" y2="64.9628" gradientUnits="userSpaceOnUse">
<stop stop-color="#76C0FD"/>
<stop offset="1" stop-color="#63B2FB"/>
</linearGradient>
</defs>
</svg>
