<svg width="100" height="100" viewBox="0 0 100 100" fill="none" xmlns="http://www.w3.org/2000/svg">
<g clip-path="url(#clip0)">
<path d="M49.6401 96.4501C40.382 96.4501 31.3317 93.7047 23.6339 88.5612C15.936 83.4176 9.93624 76.1069 6.3933 67.5535C2.85036 59.0001 1.92337 49.5882 3.72954 40.5079C5.53571 31.4277 9.99394 23.0869 16.5404 16.5404C23.0869 9.99393 31.4277 5.53571 40.5079 3.72954C49.5882 1.92337 59.0001 2.85036 67.5535 6.3933C76.1069 9.93624 83.4176 15.936 88.5612 23.6339C93.7047 31.3317 96.4501 40.382 96.4501 49.6401C96.4505 55.7874 95.24 61.8746 92.8878 67.554C90.5355 73.2335 87.0875 78.3939 82.7407 82.7407C78.3939 87.0875 73.2335 90.5355 67.554 92.8878C61.8746 95.24 55.7874 96.4505 49.6401 96.4501V96.4501Z" fill="url(#paint0_linear)"/>
<path fill-rule="evenodd" clip-rule="evenodd" d="M95.54 49.64C95.54 58.7182 92.848 67.5925 87.8045 75.1407C82.7609 82.6889 75.5923 88.572 67.2052 92.0461C58.818 95.5201 49.5891 96.4291 40.6854 94.658C31.7816 92.887 23.603 88.5154 17.1838 82.0962C10.7646 75.677 6.39302 67.4984 4.62196 58.5946C2.85089 49.6909 3.75987 40.462 7.23393 32.0748C10.708 23.6877 16.5911 16.5191 24.1393 11.4755C31.6875 6.43199 40.5618 3.74 49.64 3.74C55.6677 3.73998 61.6363 4.9272 67.2052 7.23388C72.774 9.54057 77.834 12.9215 82.0963 17.1837C86.3585 21.446 89.7394 26.5059 92.0461 32.0748C94.3528 37.6437 95.54 43.6123 95.54 49.64V49.64ZM49.64 3.62732e-07C59.4579 3.62732e-07 69.0553 2.91134 77.2185 8.36585C85.3818 13.8204 91.7442 21.5731 95.5014 30.6436C99.2585 39.7141 100.242 49.6951 98.3262 59.3243C96.4108 68.9535 91.6831 77.7985 84.7408 84.7408C77.7985 91.6831 68.9535 96.4108 59.3243 98.3262C49.6951 100.242 39.7141 99.2585 30.6436 95.5014C21.5731 91.7442 13.8204 85.3818 8.36585 77.2185C2.91134 69.0553 3.62732e-07 59.4579 3.62732e-07 49.64C-0.000787738 43.121 1.28265 36.6656 3.77702 30.6427C6.27138 24.6197 9.9278 19.1471 14.5375 14.5375C19.1471 9.9278 24.6197 6.27138 30.6427 3.77702C36.6656 1.28265 43.121 -0.000787738 49.64 3.62732e-07V3.62732e-07Z" fill="#F2F1F0"/>
<path fill-rule="evenodd" clip-rule="evenodd" d="M92.7296 49.6406C92.7296 58.163 90.2024 66.494 85.4676 73.5801C80.7328 80.6662 74.0031 86.1892 66.1294 89.4505C58.2557 92.7119 49.5918 93.5653 41.2331 91.9026C32.8745 90.24 25.1966 86.1361 19.1703 80.1098C13.1441 74.0836 9.04017 66.4057 7.37753 58.047C5.7149 49.6884 6.56822 41.0244 9.8296 33.1507C13.091 25.2771 18.6139 18.5473 25.7 13.8126C32.7862 9.07776 41.1172 6.55058 49.6396 6.55058C55.2983 6.55023 60.9017 7.66455 66.1298 9.82991C71.3579 11.9953 76.1082 15.1692 80.1096 19.1706C84.1109 23.1719 87.2849 27.9223 89.4502 33.1503C91.6156 38.3784 92.7299 43.9818 92.7296 49.6406V49.6406ZM49.6396 2.81058C58.9017 2.81058 67.9558 5.55711 75.6569 10.7029C83.3581 15.8486 89.3604 23.1624 92.9049 31.7195C96.4493 40.2766 97.3767 49.6925 95.5697 58.7767C93.7628 67.8608 89.3027 76.2051 82.7534 82.7544C76.2041 89.3037 67.8598 93.7638 58.7757 95.5708C49.6915 97.3777 40.2756 96.4503 31.7185 92.9059C23.1614 89.3614 15.8476 83.3591 10.7018 75.6579C5.5561 67.9568 2.80957 58.9027 2.80957 49.6406C2.81076 37.2209 7.745 25.3101 16.5271 16.5281C25.3091 7.74599 37.2198 2.81174 49.6396 2.81055V2.81058Z" fill="#0078D4"/>
<path fill-rule="evenodd" clip-rule="evenodd" d="M92.7296 49.6405C92.7296 58.1629 90.2024 66.494 85.4676 73.5801C80.7328 80.6662 74.0031 86.1891 66.1294 89.4505C58.2557 92.7119 49.5918 93.5652 41.2331 91.9026C32.8745 90.24 25.1966 86.136 19.1703 80.1098C13.1441 74.0835 9.04017 66.4056 7.37753 58.047C5.7149 49.6883 6.56822 41.0244 9.8296 33.1507C13.091 25.277 18.6139 18.5473 25.7001 13.8125C32.7862 9.07773 41.1172 6.55055 49.6396 6.55055C55.2983 6.5502 60.9017 7.66452 66.1298 9.82988C71.3579 11.9952 76.1082 15.1692 80.1096 19.1705C84.1109 23.1719 87.2849 27.9222 89.4502 33.1503C91.6156 38.3784 92.7299 43.9818 92.7296 49.6405V49.6405ZM49.6396 2.81055C58.9017 2.81055 67.9558 5.55708 75.6569 10.7028C83.3581 15.8486 89.3604 23.1624 92.9048 31.7195C96.4493 40.2765 97.3767 49.6925 95.5697 58.7766C93.7628 67.8608 89.3027 76.2051 82.7534 82.7544C76.2041 89.3036 67.8598 93.7638 58.7757 95.5707C49.6915 97.3777 40.2756 96.4503 31.7185 92.9058C23.1614 89.3614 15.8476 83.3591 10.7018 75.6579C5.5561 67.9568 2.80957 58.9026 2.80957 49.6405C2.81076 37.2208 7.74501 25.3101 16.5271 16.5281C25.3091 7.74599 37.2198 2.81174 49.6396 2.81055V2.81055Z" fill="#0078D4"/>
<path opacity="0.2" d="M22.6112 73.9438H76.668C76.952 73.943 77.2241 73.8298 77.425 73.629C77.6258 73.4281 77.739 73.156 77.7398 72.872V30.668H21.5393V72.872C21.5401 73.156 21.6533 73.4281 21.8542 73.629C22.055 73.8298 22.3271 73.943 22.6112 73.9438V73.9438Z" fill="#003067"/>
<path d="M22.6112 71.7387H76.668C76.952 71.7378 77.2241 71.6246 77.425 71.4238C77.6258 71.223 77.739 70.9508 77.7398 70.6668V28.4629H21.5393V70.6669C21.5402 70.9509 21.6534 71.223 21.8542 71.4238C22.055 71.6247 22.3272 71.7378 22.6112 71.7387V71.7387Z" fill="#F2F2F2"/>
<path d="M21.5393 33.1329H77.7398V28.0952C77.7401 27.9872 77.719 27.8802 77.6778 27.7804C77.6366 27.6806 77.5761 27.5899 77.4998 27.5135C77.4234 27.4371 77.3327 27.3766 77.2329 27.3354C77.133 27.2942 77.0261 27.2732 76.9181 27.2734H22.3611C22.2531 27.2732 22.1461 27.2942 22.0463 27.3354C21.9465 27.3766 21.8558 27.4371 21.7794 27.5135C21.703 27.5899 21.6425 27.6806 21.6013 27.7804C21.5601 27.8802 21.5391 27.9872 21.5394 28.0952L21.5393 33.1329Z" fill="#092E4C"/>
<path d="M25.8625 31.7478C26.1443 31.7469 26.4195 31.6625 26.6533 31.5052C26.8871 31.3479 27.069 31.1248 27.176 30.8642C27.283 30.6035 27.3103 30.317 27.2545 30.0408C27.1986 29.7646 27.0622 29.5112 26.8623 29.3126C26.6624 29.1139 26.4081 28.9791 26.1316 28.9249C25.8551 28.8708 25.5687 28.9 25.3087 29.0086C25.0488 29.1172 24.8268 29.3005 24.671 29.5353C24.5152 29.7701 24.4325 30.0458 24.4334 30.3276C24.4319 30.5153 24.4679 30.7014 24.5392 30.8749C24.6106 31.0485 24.716 31.2061 24.8491 31.3384C24.9823 31.4707 25.1405 31.5751 25.3145 31.6454C25.4885 31.7157 25.6749 31.7505 25.8625 31.7478V31.7478Z" fill="#50E6FF"/>
<path d="M72.7579 36.7598H26.5101C25.9007 36.7598 25.4067 37.2537 25.4067 37.8631V66.6128C25.4067 67.2221 25.9007 67.7161 26.5101 67.7161H72.7579C73.3673 67.7161 73.8613 67.2221 73.8613 66.6128V37.8631C73.8613 37.2537 73.3673 36.7598 72.7579 36.7598Z" fill="#E8E8E8"/>
<path d="M52.3805 45.8635L55.2185 41.0188C55.2904 40.896 55.3933 40.7941 55.5168 40.7233C55.6404 40.6525 55.7803 40.6152 55.9226 40.6152C56.065 40.6152 56.2049 40.6525 56.3285 40.7233C56.452 40.7941 56.5548 40.896 56.6268 41.0188L59.4648 45.8635C59.5374 45.9875 59.576 46.1285 59.5767 46.2722C59.5774 46.4159 59.5401 46.5572 59.4687 46.6818C59.3972 46.8065 59.2941 46.9101 59.1698 46.9821C59.0455 47.0542 58.9043 47.0921 58.7606 47.0921H53.0846C52.941 47.0921 52.7998 47.0542 52.6755 46.9821C52.5512 46.9101 52.4481 46.8065 52.3766 46.6818C52.3052 46.5572 52.2679 46.4159 52.2686 46.2722C52.2692 46.1285 52.3078 45.9875 52.3805 45.8635V45.8635Z" fill="#FF9300"/>
<path d="M53.0847 46.6841C53.0129 46.6841 52.9423 46.6651 52.8802 46.6291C52.818 46.593 52.7665 46.5413 52.7308 46.4789C52.6951 46.4166 52.6764 46.346 52.6768 46.2742C52.6771 46.2023 52.6964 46.1319 52.7326 46.0699L55.5706 41.2252C55.6066 41.1637 55.6581 41.1128 55.7199 41.0774C55.7816 41.042 55.8516 41.0234 55.9228 41.0234C55.994 41.0234 56.064 41.0421 56.1257 41.0775C56.1875 41.1129 56.2389 41.1638 56.2749 41.2253L59.1127 46.0699C59.149 46.1319 59.1683 46.2023 59.1687 46.2742C59.169 46.346 59.1504 46.4167 59.1147 46.479C59.0789 46.5413 59.0274 46.5931 58.9652 46.6291C58.9031 46.6652 58.8325 46.6841 58.7606 46.6841H53.0847Z" fill="#FFCA00"/>
<path d="M55.9226 42.7266V44.681" stroke="#FF9300" stroke-width="0.40804" stroke-miterlimit="10" stroke-linecap="round"/>
<path d="M55.9226 45.918C56.072 45.918 56.1932 45.7969 56.1932 45.6475C56.1932 45.4981 56.072 45.377 55.9226 45.377C55.7732 45.377 55.6521 45.4981 55.6521 45.6475C55.6521 45.7969 55.7732 45.918 55.9226 45.918Z" fill="#FF9300"/>
<path opacity="0.2" fill-rule="evenodd" clip-rule="evenodd" d="M37.0882 27.2734C36.6387 29.1682 36.6239 31.1402 37.045 33.0414C37.4661 34.9427 38.3122 36.724 39.5199 38.2517C40.7275 39.7794 42.2653 41.0139 44.0181 41.8626C45.7708 42.7112 47.6929 43.1521 49.6402 43.1521C51.5876 43.1521 53.5097 42.7112 55.2624 41.8626C57.0151 41.0139 58.5529 39.7794 59.7606 38.2517C60.9682 36.724 61.8143 34.9427 62.2354 33.0414C62.6566 31.1402 62.6418 29.1682 62.1922 27.2734H37.0882Z" fill="#767676"/>
<path d="M43.8187 48.4861C43.8187 49.5878 43.492 50.6647 42.88 51.5807C42.2679 52.4967 41.398 53.2107 40.3802 53.6323C39.3624 54.0539 38.2424 54.1642 37.1619 53.9492C36.0814 53.7343 35.0889 53.2038 34.3099 52.4248C33.5309 51.6458 33.0004 50.6533 32.7855 49.5728C32.5706 48.4923 32.6809 47.3724 33.1025 46.3545C33.5241 45.3367 34.238 44.4668 35.154 43.8548C36.07 43.2427 37.1469 42.916 38.2486 42.916C38.9801 42.916 39.7044 43.0601 40.3802 43.34C41.056 43.6199 41.67 44.0302 42.1873 44.5475C42.7045 45.0647 43.1148 45.6787 43.3947 46.3545C43.6747 47.0303 43.8187 47.7547 43.8187 48.4861Z" fill="#036C70"/>
<path d="M48.593 53.2607C48.593 54.205 48.313 55.1281 47.7884 55.9132C47.2637 56.6984 46.5181 57.3103 45.6457 57.6717C44.7733 58.0331 43.8133 58.1276 42.8872 57.9434C41.961 57.7592 41.1103 57.3045 40.4426 56.6367C39.7749 55.969 39.3202 55.1183 39.1359 54.1922C38.9517 53.266 39.0463 52.306 39.4076 51.4336C39.769 50.5612 40.3809 49.8156 41.1661 49.291C41.9512 48.7663 42.8743 48.4863 43.8186 48.4863C44.4456 48.4863 45.0665 48.6098 45.6457 48.8497C46.225 49.0896 46.7513 49.4413 47.1947 49.8846C47.638 50.328 47.9897 50.8543 48.2296 51.4336C48.4696 52.0129 48.593 52.6337 48.593 53.2607V53.2607Z" fill="#1A9BA1"/>
<path d="M43.023 58.0353C43.023 58.8222 42.7897 59.5915 42.3525 60.2457C41.9153 60.9 41.2939 61.41 40.5669 61.7111C39.8399 62.0123 39.0399 62.0911 38.2681 61.9375C37.4964 61.784 36.7874 61.4051 36.231 60.8487C35.6746 60.2922 35.2956 59.5833 35.1421 58.8115C34.9886 58.0397 35.0674 57.2397 35.3685 56.5127C35.6697 55.7857 36.1796 55.1644 36.8339 54.7272C37.4882 54.29 38.2574 54.0566 39.0443 54.0566C40.0995 54.0568 41.1114 54.476 41.8576 55.2221C42.6037 55.9682 43.0229 56.9801 43.023 58.0353Z" fill="#37C6D0"/>
<path opacity="0.5" d="M32.7351 47.6914H40.5031C40.7491 47.6921 40.9849 47.7901 41.1589 47.9641C41.3329 48.1381 41.431 48.374 41.4317 48.62V57.7542C41.4047 58.0365 41.278 58.2999 41.0745 58.4974C40.871 58.6948 40.6038 58.8133 40.3208 58.8317H35.1454C35.0921 58.5698 35.0655 58.3032 35.0658 58.0359L32.7351 47.6914Z" fill="black"/>
<path d="M39.7072 58.0348H30.4234C30.1775 58.0339 29.9418 57.9358 29.768 57.7618C29.5942 57.5878 29.4962 57.3521 29.4956 57.1062V47.8232C29.4962 47.5772 29.5942 47.3415 29.768 47.1675C29.9418 46.9935 30.1775 46.8954 30.4234 46.8945H39.7072C39.9533 46.8952 40.1891 46.9933 40.3631 47.1673C40.5371 47.3413 40.6352 47.5771 40.6358 47.8232V57.1062C40.6352 57.3522 40.5371 57.588 40.3631 57.762C40.1891 57.936 39.9533 58.0341 39.7072 58.0348V58.0348Z" fill="#038387"/>
<path d="M33.4786 52.3463C33.2492 52.1943 33.0576 51.9918 32.9184 51.7543C32.783 51.506 32.7155 51.2263 32.7227 50.9435C32.7107 50.561 32.8399 50.1874 33.0855 49.8939C33.3436 49.5997 33.6775 49.382 34.0508 49.2645C34.4758 49.1245 34.921 49.0554 35.3685 49.06C35.9571 49.0384 36.5449 49.1208 37.1048 49.3035V50.5297C36.8614 50.3823 36.5964 50.2738 36.3194 50.2082C36.0189 50.1346 35.7105 50.0977 35.4011 50.0984C35.0746 50.0863 34.7502 50.1549 34.4566 50.2982C34.3458 50.3461 34.2514 50.4253 34.185 50.5261C34.1185 50.6268 34.0829 50.7448 34.0826 50.8655C34.0812 51.0149 34.138 51.1591 34.2409 51.2674C34.3636 51.3942 34.5084 51.4975 34.6682 51.5721C34.8473 51.6612 35.1144 51.7793 35.4695 51.9262C35.5089 51.9385 35.5473 51.9539 35.5841 51.9724C35.9347 52.109 36.2729 52.2757 36.5947 52.4705C36.8389 52.6208 37.0437 52.827 37.1923 53.0721C37.345 53.3494 37.4196 53.6629 37.408 53.9792C37.4255 54.3721 37.3053 54.7588 37.0682 55.0726C36.8317 55.361 36.5153 55.5733 36.1587 55.6829C35.7397 55.8145 35.3023 55.8782 34.8632 55.8715C34.4702 55.8733 34.0777 55.8411 33.6903 55.7752C33.3624 55.7229 33.0422 55.6305 32.737 55.4999V54.2044C33.0292 54.4126 33.3556 54.568 33.7014 54.6635C34.045 54.7707 34.4022 54.828 34.7621 54.8338C35.0955 54.8549 35.4282 54.7842 35.7241 54.6293C35.8252 54.5714 35.9087 54.4872 35.9658 54.3856C36.0228 54.284 36.0512 54.1689 36.048 54.0524C36.0486 53.9705 36.0328 53.8894 36.0017 53.8137C35.9705 53.738 35.9246 53.6693 35.8666 53.6116C35.7204 53.4682 35.5512 53.3504 35.3661 53.263C35.1536 53.1556 34.839 53.0148 34.4223 52.8405C34.0921 52.7076 33.776 52.542 33.4786 52.3463V52.3463Z" fill="white"/>
<path d="M56.1714 50.4687C56.1713 50.3302 56.1986 50.193 56.2516 50.065C56.3045 49.9371 56.3822 49.8208 56.4802 49.7228C56.5781 49.6249 56.6944 49.5472 56.8224 49.4942C56.9503 49.4413 57.0875 49.414 57.226 49.4141H67.3316C67.6113 49.4141 67.8795 49.5252 68.0773 49.723C68.2751 49.9207 68.3862 50.189 68.3862 50.4687C68.3862 50.7484 68.2751 51.0166 68.0773 51.2144C67.8795 51.4122 67.6113 51.5233 67.3316 51.5233H57.226C57.0875 51.5234 56.9503 51.4961 56.8224 51.4431C56.6944 51.3901 56.5781 51.3125 56.4802 51.2145C56.3822 51.1166 56.3045 51.0003 56.2516 50.8723C56.1986 50.7444 56.1713 50.6072 56.1714 50.4687Z" fill="#B3B3B3"/>
<path d="M53.3338 51.8679C54.1063 51.8679 54.7326 51.2416 54.7326 50.4691C54.7326 49.6966 54.1063 49.0703 53.3338 49.0703C52.5613 49.0703 51.9351 49.6966 51.9351 50.4691C51.9351 51.2416 52.5613 51.8679 53.3338 51.8679Z" fill="#B3B3B3"/>
<path d="M56.1714 55.543C56.1713 55.4044 56.1986 55.2673 56.2515 55.1393C56.3045 55.0113 56.3822 54.895 56.4801 54.7971C56.5781 54.6991 56.6944 54.6214 56.8223 54.5685C56.9503 54.5155 57.0875 54.4882 57.226 54.4883H67.3316C67.4703 54.4879 67.6078 54.5148 67.7362 54.5676C67.8645 54.6204 67.9811 54.6981 68.0794 54.796C68.1777 54.894 68.2556 55.0104 68.3088 55.1386C68.362 55.2667 68.3894 55.4041 68.3894 55.5429C68.3894 55.6817 68.362 55.8191 68.3088 55.9472C68.2556 56.0754 68.1777 56.1918 68.0794 56.2898C67.9811 56.3877 67.8645 56.4654 67.7362 56.5182C67.6078 56.571 67.4703 56.5979 67.3316 56.5975H57.226C57.0875 56.5976 56.9503 56.5703 56.8224 56.5174C56.6944 56.4644 56.5781 56.3867 56.4802 56.2888C56.3822 56.1908 56.3046 56.0746 56.2516 55.9466C56.1986 55.8186 56.1713 55.6815 56.1714 55.543V55.543Z" fill="#B3B3B3"/>
<path d="M53.3338 56.9401C54.1063 56.9401 54.7326 56.3139 54.7326 55.5413C54.7326 54.7688 54.1063 54.1426 53.3338 54.1426C52.5613 54.1426 51.9351 54.7688 51.9351 55.5413C51.9351 56.3139 52.5613 56.9401 53.3338 56.9401Z" fill="#B3B3B3"/>
<path d="M56.1714 60.6152C56.1713 60.4767 56.1986 60.3395 56.2516 60.2115C56.3045 60.0835 56.3822 59.9673 56.4802 59.8693C56.5781 59.7714 56.6944 59.6937 56.8224 59.6407C56.9503 59.5877 57.0875 59.5605 57.226 59.5605H67.3316C67.6113 59.5605 67.8795 59.6717 68.0773 59.8694C68.2751 60.0672 68.3862 60.3355 68.3862 60.6152C68.3862 60.8949 68.2751 61.1631 68.0773 61.3609C67.8795 61.5587 67.6113 61.6698 67.3316 61.6698H57.226C57.0875 61.6698 56.9503 61.6426 56.8224 61.5896C56.6944 61.5366 56.5781 61.4589 56.4802 61.361C56.3822 61.2631 56.3045 61.1468 56.2516 61.0188C56.1986 60.8908 56.1713 60.7537 56.1714 60.6152Z" fill="#B3B3B3"/>
<path d="M53.3338 62.0143C54.1063 62.0143 54.7326 61.3881 54.7326 60.6156C54.7326 59.843 54.1063 59.2168 53.3338 59.2168C52.5613 59.2168 51.9351 59.843 51.9351 60.6156C51.9351 61.3881 52.5613 62.0143 53.3338 62.0143Z" fill="#B3B3B3"/>
<path fill-rule="evenodd" clip-rule="evenodd" d="M49.64 41.103C47.4842 41.103 45.3767 40.4638 43.5842 39.2661C41.7916 38.0684 40.3945 36.366 39.5695 34.3742C38.7445 32.3825 38.5286 30.1908 38.9492 28.0764C39.3698 25.962 40.4079 24.0197 41.9323 22.4953C43.4568 20.9709 45.399 19.9328 47.5134 19.5122C49.6278 19.0916 51.8195 19.3075 53.8113 20.1325C55.803 20.9575 57.5054 22.3546 58.7031 24.1472C59.9008 25.9397 60.5401 28.0472 60.54 30.203C60.54 33.0939 59.3916 35.8663 57.3474 37.9104C55.3033 39.9545 52.5309 41.103 49.64 41.103V41.103Z" fill="white"/>
<path fill-rule="evenodd" clip-rule="evenodd" d="M54.6475 27.1804C54.3918 26.9248 54.045 26.7813 53.6834 26.7812C53.3219 26.7812 52.9751 26.9248 52.7194 27.1804L48.2251 31.6714L46.6018 30.0636C46.5638 30.0072 46.5209 29.9543 46.4736 29.9056C46.2197 29.651 45.8753 29.5071 45.5157 29.5054C45.1561 29.5037 44.8104 29.6442 44.554 29.8964C44.2976 30.1485 44.1513 30.4918 44.1471 30.8514C44.1428 31.211 44.2809 31.5577 44.5312 31.8159L44.5149 31.8322L47.2652 34.5574C47.5211 34.8129 47.8679 34.9564 48.2295 34.9564C48.5912 34.9564 48.938 34.8129 49.1939 34.5574L54.6434 29.1103L54.6475 29.107C54.7741 28.9806 54.8745 28.8304 54.943 28.6651C55.0115 28.4998 55.0468 28.3226 55.0468 28.1437C55.0468 27.9648 55.0115 27.7876 54.943 27.6223C54.8745 27.457 54.7741 27.3069 54.6475 27.1804V27.1804Z" fill="#E8E8E8"/>
</g>
<defs>
<linearGradient id="paint0_linear" x1="47.8698" y1="-15.153" x2="51.8525" y2="130.615" gradientUnits="userSpaceOnUse">
<stop stop-color="#00ABDE"/>
<stop offset="1" stop-color="#007ED8"/>
</linearGradient>
<clipPath id="clip0">
<rect width="99.2799" height="99.28" fill="white"/>
</clipPath>
</defs>
</svg>
