<svg width="103" height="103" viewBox="0 0 103 103" fill="none" xmlns="http://www.w3.org/2000/svg">
<path d="M48.9249 98.3604C25.1449 97.1304 5.82495 77.7904 4.64495 54.0004C3.26495 26.2404 26.0749 3.45044 53.8349 4.86044C77.6149 6.07044 96.935 25.3904 98.145 49.1604C99.555 76.9504 76.7149 99.7804 48.9249 98.3604Z" fill="url(#paint0_linear)"/>
<path fill-rule="evenodd" clip-rule="evenodd" d="M97.2352 49.2205C98.6152 76.4605 76.2452 98.8305 49.0052 97.4505C25.6852 96.2705 6.73523 77.3205 5.55523 54.0005C4.17523 26.7605 26.5452 4.39047 53.7852 5.77047C77.1052 6.95047 96.0552 25.9005 97.2352 49.2205ZM48.8452 2.03047C78.2852 0.560469 102.455 24.7405 100.965 54.1805C99.6952 79.4005 79.1952 99.9005 53.9752 101.18C24.5052 102.67 0.305233 78.4505 1.82523 48.9805C3.12523 23.7705 23.6252 3.29047 48.8452 2.03047Z" fill="#F2F1F0"/>
<path fill-rule="evenodd" clip-rule="evenodd" d="M94.425 49.3704C95.715 74.9404 74.725 95.9404 49.155 94.6404C27.265 93.5304 9.47498 75.7404 8.36498 53.8504C7.06498 28.2804 28.065 7.28044 53.635 8.58044C75.525 9.69044 93.315 27.4804 94.425 49.3704ZM48.955 4.84044C76.735 3.43044 99.575 26.2604 98.165 54.0504C96.955 77.8404 77.625 97.1704 53.835 98.3804C26.045 99.7904 3.21498 76.9604 4.62498 49.1704C5.83498 25.3804 25.165 6.05044 48.955 4.84044Z" fill="#0078D4"/>
<path opacity="0.15" d="M87.4451 47.3804C87.4451 46.6104 86.8151 45.9704 86.0351 45.9704C85.5251 45.9704 82.3751 45.6904 80.6751 44.3704C80.6751 44.3704 80.6851 44.3504 80.6751 44.3704C80.0351 42.0404 79.0951 39.8604 77.9351 37.7904C77.6351 35.8304 79.6651 34.4004 80.5951 32.8704C80.7551 32.6004 80.8551 32.4504 80.9151 32.3404C81.0851 31.8404 80.9951 31.2704 80.5951 30.8804C80.5951 30.8804 79.0351 28.6504 77.4351 27.0604C75.8351 25.4704 73.4151 23.7004 73.4151 23.7004C72.8651 23.1504 71.9751 23.1504 71.4251 23.7004C71.0651 24.0504 68.6651 26.0304 66.4951 26.3504C66.4651 26.3504 66.4651 26.3504 66.4651 26.3504C64.4551 25.2104 62.1951 24.2704 59.9351 23.6304H59.9051C58.3051 22.4504 58.7251 20.0104 58.3051 18.2704C58.3051 17.5004 57.6751 16.8604 56.8951 16.8604C56.8951 16.8604 54.2151 16.3904 51.9551 16.3904C49.6951 16.3904 46.7451 16.8604 46.7451 16.8604C45.9751 16.8604 45.3351 17.4904 45.3351 18.2704C45.3351 18.7804 45.0551 21.9304 43.7351 23.6304C41.4951 24.2604 39.1451 25.2604 37.1551 26.3704C35.1951 26.6704 33.7651 24.6404 32.2351 23.7104C31.9651 23.5504 31.8151 23.4504 31.7051 23.3904C31.2051 23.2204 30.6351 23.3104 30.2451 23.7104C30.2451 23.7104 28.0151 25.2704 26.4251 26.8704C24.8351 28.4704 23.0651 30.8904 23.0651 30.8904C22.5151 31.4404 22.5151 32.3304 23.0651 32.8804C23.4151 33.2304 25.4551 35.6704 25.7251 37.8004V37.8204C24.6151 39.8104 23.6451 42.1504 23.0051 44.3904C23.0051 44.3904 23.0351 44.3504 23.0051 44.3904C21.6351 46.0504 19.3851 45.5704 17.6451 45.9904C16.8751 45.9904 16.2351 46.6204 16.2351 47.4004C16.2351 47.4004 15.7651 50.0804 15.7651 52.3404C15.7651 54.6004 16.2351 57.5504 16.2351 57.5504C16.2351 58.3204 16.8651 58.9604 17.6451 58.9604C18.1551 58.9604 21.3051 59.2404 23.0051 60.5604C23.0451 60.5404 23.0251 60.5904 23.0251 60.5904C23.6751 62.8404 24.6051 65.0904 25.7351 67.0704C25.7151 67.1004 25.7351 67.0704 25.7451 67.1404C25.9351 69.1904 24.0151 70.5304 23.0851 72.0604C22.9251 72.3304 22.8251 72.4804 22.7651 72.5904C22.5951 73.0904 22.6851 73.6604 23.0851 74.0504C23.0851 74.0504 24.6451 76.2804 26.2451 77.8704C27.8451 79.4704 30.2651 81.2304 30.2651 81.2304C30.8151 81.7804 31.7051 81.7804 32.2551 81.2304C32.6051 80.8804 35.0451 78.8404 37.1751 78.5704C37.1751 78.5704 37.1651 78.5804 37.2051 78.5904C39.2551 79.7304 41.3651 80.6304 43.6751 81.2604C43.6951 81.2704 43.7651 81.2904 43.7651 81.2904C45.3651 82.4704 44.9451 84.9104 45.3651 86.6504C45.4551 87.4304 45.8851 87.9304 46.7751 88.0604C46.7751 88.0604 49.4551 88.5304 51.7151 88.5304C53.9751 88.5304 56.9251 88.0704 56.9251 88.0704C57.6951 87.9404 58.3351 87.4404 58.3351 86.6604C58.3351 86.1504 58.6151 83.0004 59.9351 81.3004C59.9351 81.3004 59.9951 81.2504 60.0451 81.2004C62.3951 80.5404 64.1851 79.8104 66.2651 78.6204C66.3751 78.5804 66.2551 78.5904 66.5051 78.5504C68.4651 78.2504 69.8951 80.2804 71.4251 81.2104C71.6951 81.3704 71.8451 81.4704 71.9551 81.5304C72.4551 81.7004 73.0251 81.6104 73.4151 81.2104C73.4151 81.2104 75.6451 79.6504 77.2351 78.0504C78.8351 76.4504 80.5951 74.0304 80.5951 74.0304C81.1451 73.4804 81.1451 72.5904 80.5951 72.0404C80.2451 71.6904 78.2051 69.2504 77.9351 67.1204C77.9051 66.9004 77.9251 66.8704 77.9551 66.8104C79.1451 64.7204 79.8851 63.1904 80.5351 60.8104C80.5351 60.8104 80.5051 60.7304 80.6551 60.5304C81.8351 58.9304 84.2751 59.3504 86.0151 58.9304C86.7851 58.9304 87.4251 58.3004 87.4251 57.5204C87.4251 57.5204 87.8951 54.8404 87.8951 52.5804C87.9051 50.3404 87.4451 47.3804 87.4451 47.3804Z" fill="#1F1D20"/>
<path d="M87.4451 46.4304C87.4451 45.6604 86.8151 45.0204 86.0351 45.0204C85.5251 45.0204 82.3751 44.7404 80.6751 43.4204C80.6751 43.4204 80.6851 43.4004 80.6751 43.4204C80.0351 41.0904 79.0951 38.9104 77.9351 36.8404C77.6351 34.8804 79.6651 33.4504 80.5951 31.9204C80.7551 31.6504 80.8551 31.5004 80.9151 31.3904C81.0851 30.8904 80.9951 30.3204 80.5951 29.9304C80.5951 29.9304 79.0351 27.7004 77.4351 26.1104C75.8351 24.5204 73.4151 22.7504 73.4151 22.7504C72.8651 22.2004 71.9751 22.2004 71.4251 22.7504C71.0651 23.1004 68.6651 25.0804 66.4951 25.4004C66.4651 25.4004 66.4651 25.4004 66.4651 25.4004C64.4551 24.2604 62.1951 23.3204 59.9351 22.6804H59.9051C58.3051 21.5004 58.7251 19.0604 58.3051 17.3204C58.3051 16.5504 57.6751 15.9104 56.8951 15.9104C56.8951 15.9104 54.2151 15.4404 51.9551 15.4404C49.6951 15.4404 46.7451 15.9104 46.7451 15.9104C45.9751 15.9104 45.3351 16.5404 45.3351 17.3204C45.3351 17.8304 45.0551 20.9804 43.7351 22.6804C41.4951 23.3104 39.1451 24.3104 37.1551 25.4204C35.1951 25.7204 33.7651 23.6904 32.2351 22.7604C31.9651 22.6004 31.8151 22.5004 31.7051 22.4404C31.2051 22.2704 30.6351 22.3604 30.2451 22.7604C30.2451 22.7604 28.0151 24.3204 26.4251 25.9204C24.8351 27.5204 23.0651 29.9404 23.0651 29.9404C22.5151 30.4904 22.5151 31.3804 23.0651 31.9304C23.4151 32.2804 25.4551 34.7204 25.7251 36.8504V36.8704C24.6151 38.8604 23.6451 41.2004 23.0051 43.4404C23.0051 43.4404 23.0351 43.4004 23.0051 43.4404C21.6351 45.1004 19.3851 44.6204 17.6451 45.0404C16.8751 45.0404 16.2351 45.6704 16.2351 46.4504C16.2351 46.4504 15.7651 49.1304 15.7651 51.3904C15.7651 53.6504 16.2351 56.6004 16.2351 56.6004C16.2351 57.3704 16.8651 58.0104 17.6451 58.0104C18.1551 58.0104 21.3051 58.2904 23.0051 59.6104C23.0451 59.5904 23.0251 59.6404 23.0251 59.6404C23.6751 61.8904 24.6051 64.1404 25.7351 66.1204C25.7151 66.1504 25.7351 66.1204 25.7451 66.1904C25.9351 68.2404 24.0151 69.5804 23.0851 71.1104C22.9251 71.3804 22.8251 71.5304 22.7651 71.6404C22.5951 72.1404 22.6851 72.7104 23.0851 73.1004C23.0851 73.1004 24.6451 75.3304 26.2451 76.9204C27.8451 78.5204 30.2651 80.2804 30.2651 80.2804C30.8151 80.8304 31.7051 80.8304 32.2551 80.2804C32.6051 79.9304 35.0451 77.8904 37.1751 77.6204C37.1751 77.6204 37.1651 77.6304 37.2051 77.6404C39.2551 78.7804 41.3651 79.6804 43.6751 80.3104C43.6951 80.3204 43.7651 80.3404 43.7651 80.3404C45.3651 81.5204 44.9451 83.9604 45.3651 85.7004C45.4551 86.4804 45.8851 86.9804 46.7751 87.1104C46.7751 87.1104 49.4551 87.5804 51.7151 87.5804C53.9751 87.5804 56.9251 87.1204 56.9251 87.1204C57.6951 86.9904 58.3351 86.4904 58.3351 85.7104C58.3351 85.2004 58.6151 82.0504 59.9351 80.3504C59.9351 80.3504 59.9951 80.3004 60.0451 80.2504C62.3951 79.5904 64.1851 78.8604 66.2651 77.6704C66.3751 77.6304 66.2551 77.6404 66.5051 77.6004C68.4651 77.3004 69.8951 79.3304 71.4251 80.2604C71.6951 80.4204 71.8451 80.5204 71.9551 80.5804C72.4551 80.7504 73.0251 80.6604 73.4151 80.2604C73.4151 80.2604 75.6451 78.7004 77.2351 77.1004C78.8351 75.5004 80.5951 73.0804 80.5951 73.0804C81.1451 72.5304 81.1451 71.6404 80.5951 71.0904C80.2451 70.7404 78.2051 68.3004 77.9351 66.1704C77.9051 65.9504 77.9251 65.9204 77.9551 65.8604C79.1451 63.7704 79.8851 62.2404 80.5351 59.8604C80.5351 59.8604 80.5051 59.7804 80.6551 59.5804C81.8351 57.9804 84.2751 58.4004 86.0151 57.9804C86.7851 57.9804 87.4251 57.3504 87.4251 56.5704C87.4251 56.5704 87.8951 53.8904 87.8951 51.6304C87.9051 49.3804 87.4451 46.4304 87.4451 46.4304Z" fill="url(#paint1_linear)"/>
<path d="M71.9951 80.5704C71.9851 80.5704 71.9851 80.5604 71.9751 80.5604C71.9851 80.5604 71.9951 80.5704 71.9951 80.5704Z" fill="#9FC2F6"/>
<path d="M71.9751 80.5605C71.7751 80.4405 71.4451 80.2405 71.4451 80.2405C71.6051 80.3905 71.7851 80.4905 71.9751 80.5605Z" fill="#9FC2F6"/>
<path d="M71.9951 80.5704C72.1851 80.6704 72.1451 80.6604 71.9951 80.5704V80.5704Z" fill="#9FC2F6"/>
<path d="M31.7651 22.4604C31.9651 22.5804 32.2951 22.7804 32.2951 22.7804C32.1351 22.6304 31.9551 22.5204 31.7651 22.4604Z" fill="#9FC2F6"/>
<path d="M31.7451 22.4504C31.7551 22.4504 31.7551 22.4604 31.7651 22.4604C31.7551 22.4604 31.7451 22.4504 31.7451 22.4504Z" fill="#9FC2F6"/>
<path d="M31.7451 22.4504C31.5651 22.3404 31.5951 22.3604 31.7451 22.4504V22.4504Z" fill="#9FC2F6"/>
<path d="M22.805 71.6404C22.705 71.8204 22.725 71.7804 22.805 71.6404V71.6404Z" fill="#9FC2F6"/>
<path d="M22.8052 71.6405C22.8052 71.6305 22.8152 71.6305 22.8152 71.6205C22.8152 71.6305 22.8052 71.6405 22.8052 71.6405Z" fill="#9FC2F6"/>
<path d="M22.8149 71.6205C22.9349 71.4205 23.1349 71.0905 23.1349 71.0905C22.9949 71.2405 22.8849 71.4305 22.8149 71.6205Z" fill="#9FC2F6"/>
<path d="M80.9252 31.4004C80.8052 31.6004 80.6052 31.9304 80.6052 31.9304C80.7452 31.7704 80.8552 31.5904 80.9252 31.4004Z" fill="#9FC2F6"/>
<path d="M80.9351 31.3804C80.9351 31.3904 80.925 31.3904 80.925 31.4004C80.925 31.3904 80.9351 31.3804 80.9351 31.3804Z" fill="#9FC2F6"/>
<path d="M80.9351 31.3805C81.0351 31.2005 81.0151 31.2405 80.9351 31.3805V31.3805Z" fill="#9FC2F6"/>
<path d="M56.4352 63.1905C56.4252 63.1905 56.4252 63.1805 56.4352 63.1905V63.1905Z" fill="#F2F1F0"/>
<path d="M56.4254 63.1805C56.3654 63.1205 56.2754 63.0305 56.2754 63.0305C56.3154 63.1005 56.3654 63.1505 56.4254 63.1805Z" fill="#F2F1F0"/>
<path d="M56.4351 63.1904C56.4851 63.2404 56.4751 63.2304 56.4351 63.1904V63.1904Z" fill="#F2F1F0"/>
<path d="M47.2251 39.6505C47.2851 39.7105 47.3751 39.8005 47.3751 39.8005C47.3451 39.7405 47.2851 39.6805 47.2251 39.6505Z" fill="#F2F1F0"/>
<path d="M47.2251 39.6405C47.2351 39.6405 47.2351 39.6505 47.2251 39.6405V39.6405Z" fill="#F2F1F0"/>
<path d="M47.2253 39.6405C47.1753 39.5905 47.1853 39.6005 47.2253 39.6405V39.6405Z" fill="#F2F1F0"/>
<path opacity="0.15" d="M53.9855 71.9204C62.0955 71.0004 68.8755 65.0704 70.8655 57.1504C72.7755 49.5404 69.9855 41.5404 63.7755 36.7604C63.6455 36.6604 63.6255 36.5205 63.6255 36.4405C63.6255 36.3805 63.6455 36.2204 63.7955 36.1104L64.6654 35.5004C65.3554 35.0204 66.3254 35.0904 66.9554 35.6704C73.1054 41.2804 75.6755 49.7805 73.6555 57.8505C71.3755 66.9605 63.5554 73.7605 54.1954 74.7705L53.2955 74.8704L53.5955 78.2705C53.6155 78.5005 53.3755 78.6804 53.1655 78.5804L44.8655 74.7904C44.5255 74.6304 44.4855 74.1704 44.7955 73.9604L52.3055 68.7604C52.4955 68.6304 52.7754 68.7504 52.7854 68.9904L53.0455 72.0404L53.9855 71.9204Z" fill="#1F1D20"/>
<path opacity="0.15" d="M52.5352 36.3504C52.3452 36.4804 52.0752 36.3604 52.0552 36.1204L51.7352 32.6704L50.8552 32.7104C42.2452 33.1004 34.7552 39.2204 32.6652 47.5804C30.5652 55.9604 34.2952 64.8804 41.7252 69.2804C41.8952 69.3804 41.9252 69.5404 41.9252 69.6204C41.9252 69.6604 41.9252 69.6904 41.9152 69.7404C41.8952 69.8104 41.8452 69.9104 41.7452 69.9704L40.6952 70.7004C40.0652 71.1404 39.2052 71.1204 38.5552 70.6504C30.9352 65.1504 27.5352 55.6704 29.9452 46.5804C32.4752 37.0104 41.1652 30.3304 51.0452 29.7904L51.4552 29.7704L51.1752 26.7904C51.1552 26.5604 51.3952 26.3804 51.6152 26.4904L60.0152 30.3804C60.3552 30.5404 60.3952 31.0004 60.0852 31.2204L52.5352 36.3504Z" fill="#1F1D20"/>
<path d="M54.1952 71.0805C62.3052 70.1605 69.0852 64.2305 71.0752 56.3105C72.9852 48.7005 70.1952 40.7005 63.9852 35.9205C63.8552 35.8205 63.8352 35.6805 63.8352 35.6005C63.8352 35.5405 63.8552 35.3805 64.0052 35.2705L64.8752 34.6605C65.5652 34.1805 66.5352 34.2505 67.1652 34.8305C73.3152 40.4305 75.8852 48.9305 73.8652 57.0105C71.5852 66.1205 63.7652 72.9205 54.4052 73.9305L53.5052 74.0305L53.8052 77.4305C53.8252 77.6605 53.5852 77.8405 53.3752 77.7405L45.0852 73.9505C44.7452 73.7905 44.7052 73.3305 45.0152 73.1205L52.5252 67.9205C52.7152 67.7905 52.9952 67.9105 53.0052 68.1505L53.2652 71.2005L54.1952 71.0805Z" fill="#32B0E7"/>
<path d="M52.7452 35.5105C52.5552 35.6405 52.2852 35.5205 52.2652 35.2805L51.9452 31.8305L51.0652 31.8705C42.4552 32.2605 34.9652 38.3805 32.8752 46.7405C30.7752 55.1205 34.5052 64.0405 41.9352 68.4405C42.1052 68.5405 42.1352 68.7005 42.1352 68.7805C42.1352 68.8205 42.1352 68.8505 42.1252 68.9005C42.1052 68.9705 42.0552 69.0705 41.9552 69.1305L40.9052 69.8605C40.2752 70.3005 39.4152 70.2805 38.7652 69.8105C31.1452 64.3105 27.7452 54.8305 30.1552 45.7405C32.6852 36.1805 41.3652 29.5105 51.2552 28.9705L51.6652 28.9505L51.3952 25.9705C51.3752 25.7405 51.6152 25.5605 51.8352 25.6705L60.2452 29.5505C60.5852 29.7105 60.6252 30.1705 60.3152 30.3905L52.7452 35.5105Z" fill="#50E6FF"/>
<path d="M52.7147 40.2104C46.1347 40.2104 40.8047 45.5404 40.8047 52.1204C40.8047 54.3804 41.4347 56.5004 42.5347 58.3004V62.1305H46.2747C48.1347 63.3305 50.3447 64.0304 52.7147 64.0304C59.2947 64.0304 64.6247 58.7004 64.6247 52.1204C64.6247 45.5404 59.2947 40.2104 52.7147 40.2104Z" fill="#ED722E"/>
<path d="M52.7147 40.2104C46.1347 40.2104 40.8047 45.5404 40.8047 52.1204C40.8047 54.3804 41.4347 56.5004 42.5347 58.3004L42.3747 62.1305L60.8947 43.6105C58.9047 41.5105 55.9647 40.2104 52.7147 40.2104Z" fill="#FF7736"/>
<path d="M53.6548 53.2004C53.5248 53.0704 53.4148 52.9104 53.3648 52.7304C53.3048 52.5304 53.2648 52.3204 53.2648 52.0904C53.2648 51.9104 53.2848 51.7304 53.3248 51.5704C53.3848 51.3204 53.5348 51.1104 53.7048 50.9204C53.9948 50.6004 54.1448 50.1604 54.0548 49.6804C53.9448 49.1104 53.4948 48.6404 52.9248 48.5204C51.9748 48.3204 51.1448 49.0404 51.1448 49.9504C51.1448 50.3304 51.2848 50.6704 51.5248 50.9204C51.6948 51.1104 51.8348 51.3204 51.8948 51.5604C51.9348 51.7304 51.9548 51.9004 51.9548 52.0904C51.9548 52.3104 51.9248 52.5304 51.8548 52.7304C51.7948 52.9104 51.6948 53.0704 51.5548 53.2004C51.2348 53.5204 51.0648 53.9904 51.1548 54.4904C51.2548 55.0604 51.7148 55.5304 52.2848 55.6504C53.2348 55.8504 54.0648 55.1304 54.0648 54.2204C54.0848 53.8204 53.9148 53.4604 53.6548 53.2004Z" fill="white"/>
<path d="M57.9649 53.2004C57.8349 53.0704 57.7249 52.9104 57.6749 52.7304C57.6149 52.5304 57.5749 52.3204 57.5749 52.0904C57.5749 51.9104 57.5949 51.7304 57.6349 51.5704C57.6949 51.3204 57.8449 51.1104 58.0149 50.9204C58.3049 50.6004 58.4549 50.1604 58.3649 49.6804C58.2549 49.1104 57.8049 48.6404 57.2349 48.5204C56.2849 48.3204 55.4549 49.0404 55.4549 49.9504C55.4549 50.3304 55.5949 50.6704 55.8349 50.9204C56.0049 51.1104 56.1449 51.3204 56.2049 51.5604C56.2449 51.7304 56.2649 51.9004 56.2649 52.0904C56.2649 52.3104 56.2349 52.5304 56.1649 52.7304C56.1049 52.9104 56.0049 53.0704 55.8649 53.2004C55.5449 53.5204 55.3749 53.9904 55.4649 54.4904C55.5649 55.0604 56.0249 55.5304 56.5949 55.6504C57.5449 55.8504 58.3749 55.1304 58.3749 54.2204C58.3949 53.8204 58.2249 53.4604 57.9649 53.2004Z" fill="white"/>
<path d="M49.4947 53.2004C49.3647 53.0704 49.2547 52.9104 49.2047 52.7304C49.1447 52.5304 49.1047 52.3204 49.1047 52.0904C49.1047 51.9104 49.1247 51.7304 49.1647 51.5704C49.2247 51.3204 49.3747 51.1104 49.5447 50.9204C49.8347 50.6004 49.9847 50.1604 49.8947 49.6804C49.7847 49.1104 49.3347 48.6404 48.7647 48.5204C47.8147 48.3204 46.9847 49.0404 46.9847 49.9504C46.9847 50.3304 47.1247 50.6704 47.3647 50.9204C47.5347 51.1104 47.6747 51.3204 47.7347 51.5604C47.7747 51.7304 47.7947 51.9004 47.7947 52.0904C47.7947 52.3104 47.7647 52.5304 47.6947 52.7304C47.6347 52.9104 47.5347 53.0704 47.3947 53.2004C47.0747 53.5204 46.9047 53.9904 46.9947 54.4904C47.0947 55.0604 47.5547 55.5304 48.1247 55.6504C49.0747 55.8504 49.9047 55.1304 49.9047 54.2204C49.9247 53.8204 49.7547 53.4604 49.4947 53.2004Z" fill="white"/>
<path d="M52.6245 59.8005C53.4309 59.8005 54.0845 59.1468 54.0845 58.3405C54.0845 57.5342 53.4309 56.8805 52.6245 56.8805C51.8182 56.8805 51.1646 57.5342 51.1646 58.3405C51.1646 59.1468 51.8182 59.8005 52.6245 59.8005Z" fill="white"/>
<path d="M52.6245 47.1805C53.4309 47.1805 54.0845 46.5268 54.0845 45.7205C54.0845 44.9142 53.4309 44.2605 52.6245 44.2605C51.8182 44.2605 51.1646 44.9142 51.1646 45.7205C51.1646 46.5268 51.8182 47.1805 52.6245 47.1805Z" fill="white"/>
<defs>
<linearGradient id="paint0_linear" x1="49.6241" y1="-13.1823" x2="53.6069" y2="132.585" gradientUnits="userSpaceOnUse">
<stop stop-color="#00ABDE"/>
<stop offset="1" stop-color="#007ED8"/>
</linearGradient>
<linearGradient id="paint1_linear" x1="54.6233" y1="-71.6745" x2="49.5209" y2="156.231" gradientUnits="userSpaceOnUse">
<stop stop-color="#007ED8"/>
<stop offset="0.7065" stop-color="#002D4C"/>
</linearGradient>
</defs>
</svg>
