<svg width="103" height="103" viewBox="0 0 103 103" fill="none" xmlns="http://www.w3.org/2000/svg">
<path d="M51.6838 98.66C25.8338 98.66 4.87378 77.71 4.87378 51.85C4.87378 25.99 25.8338 5.04004 51.6838 5.04004C77.5338 5.04004 98.4938 26 98.4938 51.85C98.4938 77.7 77.5338 98.66 51.6838 98.66Z" fill="url(#paint0_linear)"/>
<path fill-rule="evenodd" clip-rule="evenodd" d="M97.5839 51.85C97.5839 77.2 77.0339 97.75 51.6839 97.75C26.3339 97.75 5.78395 77.2 5.78395 51.85C5.78395 26.5 26.3339 5.94996 51.6839 5.94996C77.0339 5.94996 97.5839 26.5 97.5839 51.85ZM51.6839 2.20996C79.1039 2.20996 101.324 24.43 101.324 51.85C101.324 79.27 79.0939 101.49 51.6839 101.49C24.2639 101.49 2.04395 79.26 2.04395 51.85C2.04395 24.43 24.2639 2.20996 51.6839 2.20996Z" fill="#F2F1F0"/>
<path fill-rule="evenodd" clip-rule="evenodd" d="M94.7738 51.85C94.7738 75.65 75.4838 94.94 51.6838 94.94C27.8838 94.94 8.59376 75.65 8.59376 51.85C8.59376 28.05 27.8838 8.76002 51.6838 8.76002C75.4838 8.76002 94.7738 28.05 94.7738 51.85ZM51.6838 5.02002C77.5438 5.02002 98.5138 25.99 98.5138 51.85C98.5138 77.71 77.5438 98.68 51.6838 98.68C25.8238 98.68 4.85376 77.71 4.85376 51.85C4.85376 25.99 25.8138 5.02002 51.6838 5.02002Z" fill="#0078D4"/>
<path d="M51.6838 51.8501C51.6738 51.8501 51.6738 51.8401 51.6838 51.8501V51.8501Z" fill="#F2F1F0"/>
<path d="M51.7538 51.9303C51.6938 51.8703 51.6038 51.7803 51.6038 51.7803C51.6438 51.8503 51.6938 51.9003 51.7538 51.9303Z" fill="#F2F1F0"/>
<path d="M51.6638 51.8301C51.7138 51.8801 51.7038 51.8701 51.6638 51.8301V51.8301Z" fill="#F2F1F0"/>
<path d="M51.6938 16.8899C51.6838 16.8899 51.6838 16.8799 51.6738 16.8799C51.6838 16.8799 51.6938 16.8899 51.6938 16.8899Z" fill="#9FC2F6"/>
<path d="M51.9438 17.05C51.7438 16.93 51.4138 16.73 51.4138 16.73C51.5738 16.88 51.7538 16.98 51.9438 17.05Z" fill="#9FC2F6"/>
<path d="M51.6238 16.8501C51.8138 16.9501 51.7738 16.9401 51.6238 16.8501V16.8501Z" fill="#9FC2F6"/>
<path opacity="0.15" d="M87.2938 47.2503C87.2938 46.4803 86.6638 45.8403 85.8838 45.8403C85.3738 45.8403 82.2238 45.5603 80.5238 44.2403C80.5238 44.2403 80.5338 44.2203 80.5238 44.2403C79.8838 41.9103 78.9438 39.7303 77.7838 37.6603C77.4838 35.7003 79.5138 34.2703 80.4438 32.7403C80.6038 32.4703 80.7038 32.3203 80.7638 32.2103C80.9338 31.7103 80.8438 31.1403 80.4438 30.7503C80.4438 30.7503 78.8838 28.5203 77.2838 26.9303C75.6838 25.3403 73.2638 23.5703 73.2638 23.5703C72.7138 23.0203 71.8238 23.0203 71.2738 23.5703C70.9138 23.9203 68.5138 25.9003 66.3438 26.2203C66.3138 26.2203 66.3138 26.2203 66.3138 26.2203C64.3038 25.0803 62.0438 24.1403 59.7838 23.5003H59.7538C58.1538 22.3203 58.5738 19.8803 58.1538 18.1403C58.1538 17.3703 57.5238 16.7303 56.7438 16.7303C56.7438 16.7303 54.0638 16.2603 51.8038 16.2603C49.5438 16.2603 46.5938 16.7303 46.5938 16.7303C45.8238 16.7303 45.1838 17.3603 45.1838 18.1403C45.1838 18.6503 44.9038 21.8003 43.5838 23.5003C41.3438 24.1303 38.9938 25.1303 37.0038 26.2403C35.0438 26.5403 33.6138 24.5103 32.0838 23.5803C31.8138 23.4203 31.6638 23.3203 31.5538 23.2603C31.0538 23.0903 30.4838 23.1803 30.0938 23.5803C30.0938 23.5803 27.8638 25.1403 26.2738 26.7403C24.6838 28.3403 22.9138 30.7603 22.9138 30.7603C22.3638 31.3103 22.3638 32.2003 22.9138 32.7503C23.2638 33.1003 25.3038 35.5403 25.5738 37.6703V37.6903C24.4638 39.6803 23.4938 42.0203 22.8538 44.2603C22.8538 44.2603 22.8838 44.2203 22.8538 44.2603C21.4838 45.9203 19.2338 45.4403 17.4938 45.8603C16.7238 45.8603 16.0838 46.4903 16.0838 47.2703C16.0838 47.2703 15.6138 49.9503 15.6138 52.2103C15.6138 54.4703 16.0838 57.4203 16.0838 57.4203C16.0838 58.1903 16.7138 58.8303 17.4938 58.8303C18.0038 58.8303 21.1538 59.1103 22.8538 60.4303C22.8938 60.4103 22.8738 60.4603 22.8738 60.4603C23.5238 62.7103 24.4538 64.9603 25.5838 66.9403C25.5638 66.9702 25.5838 66.9403 25.5938 67.0103C25.7838 69.0603 23.8638 70.4003 22.9338 71.9303C22.7738 72.2003 22.6738 72.3503 22.6138 72.4603C22.4438 72.9603 22.5338 73.5303 22.9338 73.9203C22.9338 73.9203 24.4938 76.1503 26.0938 77.7403C27.6938 79.3403 30.1138 81.1003 30.1138 81.1003C30.6638 81.6503 31.5538 81.6503 32.1038 81.1003C32.4538 80.7503 34.8938 78.7103 37.0238 78.4403C37.0238 78.4403 37.0138 78.4503 37.0538 78.4603C39.1038 79.6003 41.2138 80.5003 43.5238 81.1302C43.5438 81.1403 43.6138 81.1602 43.6138 81.1602C45.2138 82.3402 44.7938 84.7803 45.2138 86.5202C45.3038 87.3002 45.7338 87.8003 46.6238 87.9303C46.6238 87.9303 49.3038 88.4003 51.5638 88.4003C53.8238 88.4003 56.7738 87.9402 56.7738 87.9402C57.5438 87.8102 58.1838 87.3103 58.1838 86.5303C58.1838 86.0203 58.4638 82.8703 59.7838 81.1703C59.7838 81.1703 59.8438 81.1203 59.8938 81.0703C62.2438 80.4102 64.0338 79.6803 66.1138 78.4903C66.2238 78.4503 66.1038 78.4603 66.3538 78.4203C68.3138 78.1203 69.7438 80.1503 71.2738 81.0803C71.5438 81.2403 71.6938 81.3403 71.8038 81.4003C72.3038 81.5703 72.8738 81.4803 73.2638 81.0803C73.2638 81.0803 75.4938 79.5203 77.0838 77.9203C78.6838 76.3203 80.4438 73.9003 80.4438 73.9003C80.9938 73.3503 80.9938 72.4603 80.4438 71.9103C80.0938 71.5603 78.0538 69.1203 77.7838 66.9903C77.7538 66.7703 77.7738 66.7403 77.8038 66.6803C78.9938 64.5903 79.7338 63.0603 80.3838 60.6803C80.3838 60.6803 80.3538 60.6003 80.5038 60.4003C81.6838 58.8003 84.1238 59.2203 85.8638 58.8003C86.6338 58.8003 87.2738 58.1703 87.2738 57.3903C87.2738 57.3903 87.7438 54.7103 87.7438 52.4503C87.7538 50.2103 87.2938 47.2503 87.2938 47.2503Z" fill="#1F1D20"/>
<path d="M87.2938 46.3001C87.2938 45.5301 86.6638 44.8901 85.8838 44.8901C85.3738 44.8901 82.2238 44.6101 80.5238 43.2901C80.5238 43.2901 80.5338 43.2701 80.5238 43.2901C79.8838 40.9601 78.9438 38.7801 77.7838 36.7101C77.4838 34.7501 79.5138 33.3201 80.4438 31.7901C80.6038 31.5201 80.7038 31.3701 80.7638 31.2601C80.9338 30.7601 80.8438 30.1901 80.4438 29.8001C80.4438 29.8001 78.8838 27.5701 77.2838 25.9801C75.6838 24.3901 73.2638 22.6201 73.2638 22.6201C72.7138 22.0701 71.8238 22.0701 71.2738 22.6201C70.9138 22.9701 68.5138 24.9501 66.3438 25.2701C66.3138 25.2701 66.3138 25.2701 66.3138 25.2701C64.3038 24.1301 62.0438 23.1901 59.7838 22.5501H59.7538C58.1538 21.3701 58.5738 18.9301 58.1538 17.1901C58.1538 16.4201 57.5238 15.7801 56.7438 15.7801C56.7438 15.7801 54.0638 15.3101 51.8038 15.3101C49.5438 15.3101 46.5938 15.7801 46.5938 15.7801C45.8238 15.7801 45.1838 16.4101 45.1838 17.1901C45.1838 17.7001 44.9038 20.8501 43.5838 22.5501C41.3438 23.1801 38.9938 24.1801 37.0038 25.2901C35.0438 25.5901 33.6138 23.5601 32.0838 22.6301C31.8138 22.4701 31.6638 22.3701 31.5538 22.3101C31.0538 22.1401 30.4838 22.2301 30.0938 22.6301C30.0938 22.6301 27.8638 24.1901 26.2738 25.7901C24.6838 27.3901 22.9138 29.8101 22.9138 29.8101C22.3638 30.3601 22.3638 31.2501 22.9138 31.8001C23.2638 32.1501 25.3038 34.5901 25.5738 36.7201V36.7401C24.4638 38.7301 23.4938 41.0701 22.8538 43.3101C22.8538 43.3101 22.8838 43.2701 22.8538 43.3101C21.4838 44.9701 19.2338 44.4901 17.4938 44.9101C16.7238 44.9101 16.0838 45.5401 16.0838 46.3201C16.0838 46.3201 15.6138 49.0001 15.6138 51.2601C15.6138 53.5201 16.0838 56.4701 16.0838 56.4701C16.0838 57.2401 16.7138 57.8801 17.4938 57.8801C18.0038 57.8801 21.1538 58.1601 22.8538 59.4801C22.8938 59.4601 22.8738 59.5101 22.8738 59.5101C23.5238 61.7601 24.4538 64.0101 25.5838 65.9901C25.5638 66.0201 25.5838 65.9901 25.5938 66.0601C25.7838 68.1101 23.8638 69.4501 22.9338 70.9801C22.7738 71.2501 22.6738 71.4001 22.6138 71.5101C22.4438 72.0101 22.5338 72.5801 22.9338 72.9701C22.9338 72.9701 24.4938 75.2001 26.0938 76.7901C27.6938 78.3901 30.1138 80.1501 30.1138 80.1501C30.6638 80.7001 31.5538 80.7001 32.1038 80.1501C32.4538 79.8001 34.8938 77.7601 37.0238 77.4901C37.0238 77.4901 37.0138 77.5001 37.0538 77.5101C39.1038 78.6501 41.2138 79.5501 43.5238 80.1801C43.5438 80.1901 43.6138 80.2101 43.6138 80.2101C45.2138 81.3901 44.7938 83.8301 45.2138 85.5701C45.3038 86.3501 45.7338 86.8501 46.6238 86.9801C46.6238 86.9801 49.3038 87.4501 51.5638 87.4501C53.8238 87.4501 56.7738 86.9901 56.7738 86.9901C57.5438 86.8601 58.1838 86.3601 58.1838 85.5801C58.1838 85.0701 58.4638 81.9201 59.7838 80.2201C59.7838 80.2201 59.8438 80.1701 59.8938 80.1201C62.2438 79.4601 64.0338 78.7301 66.1138 77.5401C66.2238 77.5001 66.1038 77.5101 66.3538 77.4701C68.3138 77.1701 69.7438 79.2001 71.2738 80.1301C71.5438 80.2901 71.6938 80.3901 71.8038 80.4501C72.3038 80.6201 72.8738 80.5301 73.2638 80.1301C73.2638 80.1301 75.4938 78.5701 77.0838 76.9701C78.6838 75.3701 80.4438 72.9501 80.4438 72.9501C80.9938 72.4001 80.9938 71.5101 80.4438 70.9601C80.0938 70.6101 78.0538 68.1701 77.7838 66.0401C77.7538 65.8201 77.7738 65.7901 77.8038 65.7301C78.9938 63.6401 79.7338 62.1101 80.3838 59.7301C80.3838 59.7301 80.3538 59.6501 80.5038 59.4501C81.6838 57.8501 84.1238 58.2701 85.8638 57.8501C86.6338 57.8501 87.2738 57.2201 87.2738 56.4401C87.2738 56.4401 87.7438 53.7601 87.7438 51.5001C87.7538 49.2501 87.2938 46.3001 87.2938 46.3001Z" fill="url(#paint1_linear)"/>
<path opacity="0.15" d="M53.9239 71.9804C62.4939 71.0104 69.6539 64.7405 71.7539 56.3805C73.7739 48.3405 70.8239 39.8905 64.2639 34.8405C64.1239 34.7305 64.1039 34.5905 64.1039 34.5005C64.1039 34.4405 64.1239 34.2705 64.2839 34.1505L65.2039 33.5105C65.9339 33.0005 66.9539 33.0805 67.6239 33.6905C74.1239 39.6205 76.8339 48.6005 74.7039 57.1205C72.2939 66.7405 64.0339 73.9305 54.1439 74.9905L53.1939 75.1005L53.5139 78.6904C53.5339 78.9305 53.2839 79.1204 53.0639 79.0205L44.2939 75.0205C43.9339 74.8505 43.8939 74.3705 44.2239 74.1405L52.1539 68.6505C52.3539 68.5105 52.6539 68.6405 52.6639 68.8905L52.9339 72.1105L53.9239 71.9804Z" fill="#1F1D20"/>
<path opacity="0.15" d="M52.3938 34.4002C52.1938 34.5402 51.9039 34.4102 51.8839 34.1602L51.5438 30.5202L50.6138 30.5602C41.5138 30.9702 33.6038 37.4402 31.3938 46.2702C29.1738 55.1202 33.1138 64.5502 40.9638 69.1902C41.1438 69.3002 41.1739 69.4602 41.1739 69.5502C41.1739 69.5902 41.1738 69.6202 41.1638 69.6802C41.1438 69.7502 41.0938 69.8602 40.9838 69.9202L39.8738 70.6902C39.2038 71.1502 38.3038 71.1302 37.6138 70.6402C29.5638 64.8302 25.9738 54.8102 28.5138 45.2102C31.1838 35.1002 40.3638 28.0402 50.8038 27.4702L51.2338 27.4502L50.9338 24.3002C50.9138 24.0602 51.1638 23.8702 51.3938 23.9802L60.2639 28.0902C60.6239 28.2602 60.6639 28.7402 60.3339 28.9802L52.3938 34.4002Z" fill="#1F1D20"/>
<path d="M54.1439 72.6904C62.7139 71.7204 69.8739 65.4504 71.9739 57.0904C73.9939 49.0504 71.0439 40.6004 64.4839 35.5504C64.3439 35.4404 64.3239 35.3004 64.3239 35.2104C64.3239 35.1504 64.3439 34.9804 64.5039 34.8604L65.4239 34.2204C66.1539 33.7104 67.1739 33.7904 67.8439 34.4004C74.3439 40.3204 77.0539 49.3004 74.9239 57.8304C72.5139 67.4504 64.2539 74.6404 54.3639 75.7004L53.4139 75.8104L53.7339 79.4004C53.7539 79.6404 53.5039 79.8304 53.2839 79.7304L44.5239 75.7304C44.1639 75.5604 44.1239 75.0804 44.4539 74.8504L52.3839 69.3604C52.5839 69.2204 52.8839 69.3504 52.8939 69.6004L53.1639 72.8204L54.1439 72.6904Z" fill="#32B0E7"/>
<path d="M52.6138 35.1102C52.4138 35.2502 52.1238 35.1202 52.1038 34.8702L51.7638 31.2302L50.8338 31.2702C41.7338 31.6802 33.8238 38.1502 31.6138 46.9802C29.3938 55.8302 33.3338 65.2602 41.1838 69.9002C41.3638 70.0102 41.3938 70.1702 41.3938 70.2602C41.3938 70.3002 41.3938 70.3302 41.3838 70.3902C41.3638 70.4602 41.3138 70.5702 41.2038 70.6302L40.0938 71.4002C39.4238 71.8602 38.5238 71.8402 37.8338 71.3502C29.7838 65.5402 26.1938 55.5202 28.7338 45.9202C31.4038 35.8202 40.5738 28.7702 51.0238 28.2002L51.4538 28.1802L51.1638 25.0302C51.1438 24.7902 51.3938 24.6002 51.6238 24.7102L60.5038 28.8102C60.8638 28.9802 60.9038 29.4602 60.5738 29.7002L52.6138 35.1102Z" fill="#50E6FF"/>
<path fill-rule="evenodd" clip-rule="evenodd" d="M45.4639 40.1099H61.7739C62.4539 40.1099 63.0039 40.6599 63.0039 41.3399V62.3499C63.0039 63.0299 62.4539 63.5799 61.7739 63.5799H45.4639C44.7839 63.5799 44.2339 63.0299 44.2339 62.3499V41.3499C44.2339 40.6699 44.7739 40.1099 45.4639 40.1099Z" fill="#195C37"/>
<path d="M63.0038 51.8398H53.6138V57.6998H63.0038V51.8398Z" fill="#107B42"/>
<path d="M63.0038 45.98H53.6138V51.84H63.0038V45.98Z" fill="#22A366"/>
<path d="M53.6138 45.98H43.6338V51.84H53.6138V45.98Z" fill="#117740"/>
<path fill-rule="evenodd" clip-rule="evenodd" d="M53.6138 40.1099H61.7738C62.4538 40.1099 63.0038 40.6599 63.0038 41.3399V45.9699H53.6138V40.1099Z" fill="#34C481"/>
<path fill-rule="evenodd" clip-rule="evenodd" d="M53.6138 40.1099H44.8638C44.1838 40.1099 43.6338 40.6599 43.6338 41.3399V45.9699H53.6138V40.1099Z" fill="#21A465"/>
<path fill-rule="evenodd" clip-rule="evenodd" d="M39.5938 45.98H50.0438C50.7238 45.98 51.2738 46.53 51.2738 47.21V57.07C51.2738 57.75 50.7238 58.3 50.0438 58.3H39.5938C38.9138 58.3 38.3638 57.75 38.3638 57.07V47.21C38.3638 46.54 38.9138 45.98 39.5938 45.98Z" fill="#137F47"/>
<path fill-rule="evenodd" clip-rule="evenodd" d="M43.6537 52.4597L41.5237 48.9097H43.2037L44.6537 51.5997L46.1037 48.9097H47.6537L45.4937 52.4097L47.7337 55.9597H45.9837L44.5437 53.0797L43.0737 55.9597H41.2837L43.6537 52.4597Z" fill="white"/>
<defs>
<linearGradient id="paint0_linear" x1="49.9138" y1="-12.943" x2="53.8968" y2="132.825" gradientUnits="userSpaceOnUse">
<stop stop-color="#00ABDE"/>
<stop offset="1" stop-color="#007ED8"/>
</linearGradient>
<linearGradient id="paint1_linear" x1="54.4414" y1="-71.8105" x2="49.339" y2="156.095" gradientUnits="userSpaceOnUse">
<stop stop-color="#007ED8"/>
<stop offset="0.7065" stop-color="#002D4C"/>
</linearGradient>
</defs>
</svg>
