<svg width="103" height="103" viewBox="0 0 103 103" fill="none" xmlns="http://www.w3.org/2000/svg">
<path d="M51.2028 101.448C49.5728 101.448 47.9628 100.988 46.5328 100.128L13.3928 79.9881C10.4328 78.1881 8.59277 74.7981 8.59277 71.1481V31.1881C8.59277 27.5381 10.4328 24.1481 13.3928 22.3481L46.5328 2.20814C49.3728 0.478145 53.0328 0.478145 55.8628 2.20814L89.0028 22.3481C91.9628 24.1481 93.8028 27.5381 93.8028 31.1881V71.1381C93.8028 74.7881 91.9628 78.1781 89.0028 79.9781L55.8728 100.128C54.4528 100.988 52.8328 101.448 51.2028 101.448ZM48.3028 5.11814L15.1628 25.2581C13.2128 26.4481 12.0028 28.7181 12.0028 31.1881V71.1381C12.0028 73.6081 13.2128 75.8781 15.1628 77.0681L48.3028 97.2181C50.0828 98.2981 52.3228 98.2981 54.0928 97.2181L87.2328 77.0781C89.1828 75.8881 90.3928 73.6181 90.3928 71.1481V31.1881C90.3928 28.7181 89.1828 26.4481 87.2328 25.2581L54.0928 5.11814C52.3328 4.03814 50.0828 4.03814 48.3028 5.11814Z" fill="#F2F1F0"/>
<path fill-rule="evenodd" clip-rule="evenodd" d="M46.9824 6.7083C48.2924 5.9083 49.7424 5.5083 51.1924 5.5083C52.6424 5.5083 54.1024 5.9083 55.4024 6.7083L85.3124 24.9983C87.9924 26.6383 89.6424 29.6983 89.6424 33.0283V69.3083C89.6424 72.6283 87.9824 75.6983 85.3124 77.3383L55.4024 95.6283C54.1024 96.4283 52.6424 96.8283 51.1924 96.8283C49.7424 96.8283 48.2924 96.4283 46.9824 95.6283L17.0824 77.3383C14.4024 75.6983 12.7524 72.6383 12.7524 69.3083V33.0283C12.7524 29.7083 14.4024 26.6383 17.0824 24.9983L46.9824 6.7083Z" fill="#965596"/>
<path d="M51.2028 98.4281C49.6728 98.4281 48.1528 97.9981 46.8128 97.1881L15.6628 78.2481C12.8828 76.5581 11.1528 73.3681 11.1528 69.9381V32.3881C11.1528 28.9581 12.8828 25.7681 15.6628 24.0781L46.8128 5.14811C49.4828 3.52811 52.9228 3.52811 55.5828 5.14811L86.7428 24.0781C89.5228 25.7681 91.2528 28.9581 91.2528 32.3881V69.9381C91.2528 73.3681 89.5228 76.5581 86.7428 78.2481L55.5928 97.1881C54.2528 97.9981 52.7328 98.4281 51.2028 98.4281ZM48.4828 7.88811L17.3328 26.8181C15.5028 27.9381 14.3628 30.0681 14.3628 32.3881V69.9381C14.3628 72.2581 15.5028 74.3981 17.3328 75.5081L48.4828 94.4381C50.1528 95.4481 52.2628 95.4481 53.9228 94.4381L85.0728 75.5081C86.9028 74.3981 88.0428 72.2581 88.0428 69.9381V32.3881C88.0428 30.0681 86.9028 27.9381 85.0728 26.8181L53.9228 7.88811C52.2628 6.87811 50.1528 6.87811 48.4828 7.88811Z" fill="#742774"/>
<path d="M30.7632 71.2192V76.5555C30.7714 77.613 31.5091 78.3343 32.542 78.3343H71.6421V71.2274H30.7632V71.2192Z" fill="#FFD400"/>
<path d="M32.542 72.1045V75.662C32.5748 76.6457 33.3617 77.4408 34.2798 77.4408H71.6421V72.1045H32.542Z" fill="white"/>
<path opacity="0.2" d="M32.542 72.1045V72.998H71.6421V72.1045H32.542Z" fill="#4F4D52"/>
<path opacity="0.2" d="M48.5347 72.1045L53.871 77.4408H48.5347V72.1045Z" fill="#4F4D52"/>
<path d="M49.4281 80.9983L45.8706 79.2196L43.2065 80.9983V72.1045H49.4281V80.9983Z" fill="#EF6F59"/>
<path d="M71.6421 71.2191H30.7632V22.3398H71.6421V71.2191Z" fill="#FFFBBF"/>
<path fill-rule="evenodd" clip-rule="evenodd" d="M51.2067 67.6616C51.2067 68.6452 50.4116 69.4404 49.428 69.4404H30.7632V71.2191H71.6421V25.0039H52.9855C52.0019 25.0039 51.2067 25.799 51.2067 26.7827V67.6616V67.6616Z" fill="#FFF880"/>
<path d="M52.1086 35.242L49.8216 32.8812C49.5101 32.5615 48.9937 32.5697 48.6986 32.9058L39.026 43.9473C38.5916 44.4391 38.5916 45.1769 39.026 45.6687L48.6084 56.6856C48.9691 57.0954 49.6085 57.0954 49.9692 56.6856L52.8299 53.3822L53.1414 36.3896L52.1086 35.242Z" fill="url(#paint0_linear)"/>
<path d="M63.3628 43.4718L53.8377 33.0533C53.4279 32.6107 52.7311 32.6107 52.3131 33.0369L47.9112 37.5863C47.4358 38.0781 47.4276 38.865 47.8949 39.3651L52.4033 44.2095C52.7393 44.562 52.7393 45.1112 52.4033 45.4719L47.8703 50.3656C47.403 50.8656 47.4112 51.6443 47.8867 52.1361L52.2967 56.7183C52.7147 57.1528 53.4197 57.1446 53.8296 56.7019L63.3628 46.2014C64.0759 45.4309 64.0759 44.2423 63.3628 43.4718Z" fill="url(#paint1_linear)"/>
<path d="M63.8222 45.7099L59.5679 50.4314C59.2482 50.7839 58.6908 50.8003 58.3547 50.456L54.0758 46.087C53.3791 45.382 53.3791 44.2508 54.0676 43.5377L58.2646 39.2014C58.6006 38.8571 59.158 38.8653 59.4777 39.2178L63.814 44.0049C64.2566 44.4885 64.2566 45.2263 63.8222 45.7099Z" fill="url(#paint2_linear)"/>
<defs>
<linearGradient id="paint0_linear" x1="45.3231" y1="33.5541" x2="47.0966" y2="54.3919" gradientUnits="userSpaceOnUse">
<stop stop-color="#A23093"/>
<stop offset="1" stop-color="#692266"/>
</linearGradient>
<linearGradient id="paint1_linear" x1="47.5293" y1="44.8755" x2="63.8969" y2="44.8755" gradientUnits="userSpaceOnUse">
<stop stop-color="#E184C4"/>
<stop offset="1" stop-color="#D76EBC"/>
</linearGradient>
<linearGradient id="paint2_linear" x1="53.555" y1="44.8237" x2="64.1471" y2="44.8237" gradientUnits="userSpaceOnUse">
<stop stop-color="#E89BCA"/>
<stop offset="1" stop-color="#E591C8"/>
</linearGradient>
</defs>
</svg>
