<?xml version="1.0" encoding="UTF-8"?>
<svg width="102px" height="102px" viewBox="0 0 102 102" version="1.1" xmlns="http://www.w3.org/2000/svg" xmlns:xlink="http://www.w3.org/1999/xlink">
    <title>Get started with Power Apps portals/explore-power-apps-portals-studio</title>
    <defs>
        <rect id="path-1" x="0" y="0" width="94.3396226" height="94.3396226" rx="47.1698113"></rect>
        <filter x="-2.9%" y="-2.9%" width="106.4%" height="106.4%" filterUnits="objectBoundingBox" id="filter-3">
            <feMorphology radius="2.5" operator="dilate" in="SourceAlpha" result="shadowSpreadOuter1"></feMorphology>
            <feOffset dx="0.5" dy="0.5" in="shadowSpreadOuter1" result="shadowOffsetOuter1"></feOffset>
            <feMorphology radius="1" operator="erode" in="SourceAlpha" result="shadowInner"></feMorphology>
            <feOffset dx="0.5" dy="0.5" in="shadowInner" result="shadowInner"></feOffset>
            <feComposite in="shadowOffsetOuter1" in2="shadowInner" operator="out" result="shadowOffsetOuter1"></feComposite>
            <feColorMatrix values="0 0 0 0 0.821822822   0 0 0 0 0.831640661   0 0 0 0 0.835737288  0 0 0 1 0" type="matrix" in="shadowOffsetOuter1"></feColorMatrix>
        </filter>
        <linearGradient x1="50%" y1="0%" x2="50%" y2="100%" id="linearGradient-4">
            <stop stop-color="#4E4E57" offset="0%"></stop>
            <stop stop-color="#2E2E34" offset="100%"></stop>
        </linearGradient>
        <rect id="path-5" x="0" y="0" width="94.3396226" height="94.3396226"></rect>
        <path d="M48.1132075,0.739331515 C74.2770768,0.739331515 95.4870836,21.9493383 95.4870836,48.1132075 C95.4870836,74.2770768 74.2770768,95.4870836 48.1132075,95.4870836 C21.9493383,95.4870836 0.739331515,74.2770768 0.739331515,48.1132075 C0.739331515,21.9493383 21.9493383,0.739331515 48.1132075,0.739331515 Z M48.1132075,4.71698113 C24.1461335,4.71698113 4.71698113,24.1461335 4.71698113,48.1132075 C4.71698113,72.0802816 24.1461335,91.509434 48.1132075,91.509434 C72.0802816,91.509434 91.509434,72.0802816 91.509434,48.1132075 C91.509434,24.1461335 72.0802816,4.71698113 48.1132075,4.71698113 Z" id="path-6"></path>
        <filter x="-20.3%" y="-22.2%" width="140.7%" height="144.4%" filterUnits="objectBoundingBox" id="filter-8">
            <feOffset dx="0" dy="2" in="SourceAlpha" result="shadowOffsetOuter1"></feOffset>
            <feGaussianBlur stdDeviation="2" in="shadowOffsetOuter1" result="shadowBlurOuter1"></feGaussianBlur>
            <feColorMatrix values="0 0 0 0 0   0 0 0 0 0   0 0 0 0 0  0 0 0 0.1 0" type="matrix" in="shadowBlurOuter1" result="shadowMatrixOuter1"></feColorMatrix>
            <feMerge>
                <feMergeNode in="shadowMatrixOuter1"></feMergeNode>
                <feMergeNode in="SourceGraphic"></feMergeNode>
            </feMerge>
        </filter>
        <linearGradient x1="50%" y1="100%" x2="50%" y2="0%" id="linearGradient-9">
            <stop stop-color="#CCCCCC" offset="15%"></stop>
            <stop stop-color="#707070" offset="100%"></stop>
        </linearGradient>
        <polygon id="path-10" points="0 0.0428318777 58.9063397 0.0428318777 58.9063397 38.9127183 0 38.9127183"></polygon>
        <linearGradient x1="50%" y1="0.670396959%" x2="50%" y2="100%" id="linearGradient-12">
            <stop stop-color="#6A6A6A" offset="0%"></stop>
            <stop stop-color="#343333" offset="100%"></stop>
        </linearGradient>
        <filter x="-10.5%" y="-10.5%" width="121.1%" height="121.1%" filterUnits="objectBoundingBox" id="filter-13">
            <feOffset dx="0" dy="2" in="SourceAlpha" result="shadowOffsetOuter1"></feOffset>
            <feColorMatrix values="0 0 0 0 0   0 0 0 0 0   0 0 0 0 0  0 0 0 0.0964956975 0" type="matrix" in="shadowOffsetOuter1" result="shadowMatrixOuter1"></feColorMatrix>
            <feMerge>
                <feMergeNode in="shadowMatrixOuter1"></feMergeNode>
                <feMergeNode in="SourceGraphic"></feMergeNode>
            </feMerge>
        </filter>
    </defs>
    <g id="Badges" stroke="none" stroke-width="1" fill="none" fill-rule="evenodd">
        <g id="Get-started-with-Power-Apps-portals" transform="translate(-159.000000, -319.000000)">
            <g id="Get-started-with-Power-Apps-portals/explore-power-apps-portals-studio" transform="translate(160.000000, 320.000000)">
                <g id="Badge-Plates/Circle">
                    <g id="BG" transform="translate(2.830189, 2.830189)">
                        <mask id="mask-2" fill="white">
                            <use xlink:href="#path-1"></use>
                        </mask>
                        <g>
                            <use fill="black" fill-opacity="1" filter="url(#filter-3)" xlink:href="#path-1"></use>
                            <rect stroke="#F2F1F0" stroke-width="2.5" x="-1.25" y="-1.25" width="96.8396226" height="96.8396226" rx="48.4198113"></rect>
                        </g>
                        <g id="Colors/PowerApps/BG-Solid-1" mask="url(#mask-2)">
                            <rect id="Rectangle" fill="url(#linearGradient-4)" x="0" y="0" width="94.3396226" height="94.3396226"></rect>
                            <g id="Rectangle">
                                <use fill="#742774" xlink:href="#path-5"></use>
                                <use fill-opacity="0.501092657" fill="#FFFFFF" xlink:href="#path-5"></use>
                            </g>
                        </g>
                    </g>
                    <g id="Border" transform="translate(1.886792, 1.886792)">
                        <mask id="mask-7" fill="white">
                            <use xlink:href="#path-6"></use>
                        </mask>
                        <use id="Boarder" fill="#0078D4" fill-rule="nonzero" xlink:href="#path-6"></use>
                        <g id="Colors/PowerApps/Border" mask="url(#mask-7)" fill="#752375">
                            <g transform="translate(-1.886792, -1.886792)" id="Rectangle">
                                <rect x="0" y="0" width="100" height="100"></rect>
                            </g>
                        </g>
                    </g>
                </g>
                <g id="Computer" filter="url(#filter-8)" transform="translate(20.500000, 23.000000)">
                    <g id="Group-17">
                        <path d="M41.7407537,50.5442765 C35.7051466,49.5766739 35.4677913,45.1533477 35.4677913,38 L23.4983008,38 C23.4983008,45.1533477 23.2948534,49.5766739 17.2592463,50.5442765 C15.5335545,50.7388859 14.2309101,52.2305598 14.2413793,54 L44.7586207,54 C44.7690899,52.2305598 43.4664455,50.7388859 41.7407537,50.5442765 Z" id="Path" fill="url(#linearGradient-9)" fill-rule="nonzero"></path>
                        <g id="Group-7">
                            <g id="Group-3">
                                <mask id="mask-11" fill="white">
                                    <use xlink:href="#path-10"></use>
                                </mask>
                                <g id="Clip-2"></g>
                                <path d="M56.9555554,0.0428318777 C58.0330364,0.0428318777 58.9063397,0.907473799 58.9063397,1.97426856 L58.9063397,36.9812817 C58.9063397,38.0480764 58.0330364,38.9127183 56.9555554,38.9127183 L1.95069825,38.9127183 C0.873389213,38.9127183 -8.60058309e-05,38.0480764 -8.60058309e-05,36.9812817 L-8.60058309e-05,1.97426856 C-8.60058309e-05,0.907473799 0.873389213,0.0428318777 1.95069825,0.0428318777 L56.9555554,0.0428318777 Z" id="Fill-1" fill="url(#linearGradient-12)" mask="url(#mask-11)"></path>
                            </g>
                        </g>
                    </g>
                </g>
                <g id="Compass-" filter="url(#filter-13)" transform="translate(49.000000, 43.500000)">
                    <path d="M36.8125,19 C36.8125,28.8366563 28.8366563,36.8125 19,36.8125 C9.16334375,36.8125 1.1875,28.8366563 1.1875,19 C1.1875,9.16334375 9.16334375,1.1875 19,1.1875 C28.8366563,1.1875 36.8125,9.16334375 36.8125,19" id="Fill-49" fill="#EBEBEB"></path>
                    <path d="M31.16,30.3204375 L29.9160937,29.0765313 C29.6839375,28.844375 29.3080937,28.844375 29.0765313,29.0765313 C28.844375,29.3080937 28.844375,29.6839375 29.0765313,29.9160937 L30.3204375,31.16 C27.4852813,33.801 23.7304062,35.4640937 19.59375,35.6101563 L19.59375,33.84375 C19.59375,33.5154062 19.3283437,33.25 19,33.25 C18.6716563,33.25 18.40625,33.5154062 18.40625,33.84375 L18.40625,35.6101563 C14.2695938,35.4640937 10.5147188,33.801 7.6795625,31.16 L8.92346875,29.9160937 C9.155625,29.6839375 9.155625,29.3080937 8.92346875,29.0765313 C8.69190625,28.844375 8.3160625,28.844375 8.08390625,29.0765313 L6.84,30.3204375 C4.199,27.4852812 2.53590625,23.7304062 2.38984375,19.59375 L4.15625,19.59375 C4.48459375,19.59375 4.75,19.3283438 4.75,19 C4.75,18.6716563 4.48459375,18.40625 4.15625,18.40625 L2.38984375,18.40625 C2.53590625,14.2695938 4.199,10.5147188 6.84,7.6795625 L8.08390625,8.92346875 C8.1996875,9.03984375 8.3516875,9.0974375 8.5036875,9.0974375 C8.6556875,9.0974375 8.8076875,9.03984375 8.92346875,8.92346875 C9.155625,8.69190625 9.155625,8.3160625 8.92346875,8.08390625 L7.6795625,6.84 C10.5147188,4.199 14.2695938,2.53590625 18.40625,2.38984375 L18.40625,4.15625 C18.40625,4.48459375 18.6716563,4.75 19,4.75 C19.3283437,4.75 19.59375,4.48459375 19.59375,4.15625 L19.59375,2.38984375 C23.7304062,2.53590625 27.4852813,4.199 30.3204375,6.84 L29.0765313,8.08390625 C28.844375,8.3160625 28.844375,8.69190625 29.0765313,8.92346875 C29.1923125,9.03984375 29.3443125,9.0974375 29.4963125,9.0974375 C29.6483125,9.0974375 29.8003125,9.03984375 29.9160937,8.92346875 L31.16,7.6795625 C33.801,10.5147188 35.4640938,14.2695938 35.6101563,18.40625 L33.84375,18.40625 C33.5154063,18.40625 33.25,18.6716563 33.25,19 C33.25,19.3283438 33.5154063,19.59375 33.84375,19.59375 L35.6101563,19.59375 C35.4640938,23.7304062 33.801,27.4852812 31.16,30.3204375 Z M19,0 C8.52328125,0 0,8.52328125 0,19 C0,29.4767187 8.52328125,38 19,38 C29.476125,38 38,29.4767187 38,19 C38,8.52328125 29.476125,0 19,0 L19,0 Z" id="Fill-55" fill="#000000"></path>
                    <polyline id="Fill-56" fill="#75757A" points="20.1875 17.8125 17.8125 17.8125 19 7.125 20.1875 17.8125"></polyline>
                    <polyline id="Fill-57" fill="#75757A" points="20.1875 20.1875 20.1875 17.8125 30.875 19 20.1875 20.1875"></polyline>
                    <polyline id="Fill-58" fill="#75757A" points="17.8125 17.8125 17.8125 20.1875 7.125 19 17.8125 17.8125"></polyline>
                    <polyline id="Fill-59" fill="#75757A" points="17.8125 20.1875 20.1875 20.1875 19 30.875 17.8125 20.1875"></polyline>
                    <polyline id="Fill-60" fill="#0078D4" points="21.6875 22.5625 15.4375 16.3125 27.3125 10.6875 21.6875 22.5625"></polyline>
                    <polyline id="Fill-61" fill="#A9B3B6" points="19 23.5417376 19.0890414 24.9375 20.0887527 24.1125309 20.1875 22.5625 19 23.5417376"></polyline>
                    <polyline id="Fill-62" fill="#50E6FF" points="16.3125 15.4375 22.5625 21.6875 10.6875 27.3125 16.3125 15.4375"></polyline>
                    <path d="M20.1875,19 C20.1875,19.6555 19.6555,20.1875 19,20.1875 C18.3439063,20.1875 17.8125,19.6555 17.8125,19 C17.8125,18.3445 18.3439063,17.8125 19,17.8125 C19.6555,17.8125 20.1875,18.3445 20.1875,19" id="Fill-65" fill="#30404D"></path>
                </g>
                <g id="PowerApp" transform="translate(25.000000, 31.750000)" fill="#FFFFFF" fill-rule="nonzero">
                    <path d="M18.3925833,15.23625 L20.7669167,12.8619167 C21.0784417,12.5502659 21.5010357,12.3751718 21.9416875,12.3751718 C22.3823393,12.3751718 22.8049333,12.5502659 23.1164583,12.8619167 L25.4907917,15.2369583 C26.139625,15.8857917 26.139625,16.9369583 25.4907917,17.5857917 L23.1164583,19.9608333 C22.467625,20.6096667 21.41575,20.6096667 20.7669167,19.9608333 L18.3925833,17.5857917 C18.0809326,17.2742667 17.9058384,16.8516726 17.9058384,16.4110208 C17.9058384,15.970369 18.0809326,15.547775 18.3925833,15.23625 L18.3925833,15.23625 Z" id="path-4"></path>
                    <path d="M18.3925833,15.23625 L20.7669167,12.8619167 C21.0784417,12.5502659 21.5010357,12.3751718 21.9416875,12.3751718 C22.3823393,12.3751718 22.8049333,12.5502659 23.1164583,12.8619167 L25.4907917,15.2369583 C26.139625,15.8857917 26.139625,16.9369583 25.4907917,17.5857917 L23.1164583,19.9608333 C22.467625,20.6096667 21.41575,20.6096667 20.7669167,19.9608333 L18.3925833,17.5857917 C18.0809326,17.2742667 17.9058384,16.8516726 17.9058384,16.4110208 C17.9058384,15.970369 18.0809326,15.547775 18.3925833,15.23625 L18.3925833,15.23625 Z" id="path-4"></path>
                    <path d="M24.2965417,9.32308333 L26.6715833,6.94804167 C26.9831083,6.63639092 27.4057024,6.46129677 27.8463542,6.46129677 C28.287006,6.46129677 28.7096,6.63639092 29.021125,6.94804167 L31.3954583,9.32308333 C32.0442917,9.97191667 32.0442917,11.0237917 31.3954583,11.672625 L29.0204167,14.04625 C28.3715833,14.6950833 27.3204167,14.6950833 26.6715833,14.04625 L24.2958333,11.6719167 C23.6473124,11.0232664 23.6473124,9.97173364 24.2958333,9.32308333 L24.2965417,9.32308333 Z" id="path-6"></path>
                    <path d="M24.2965417,9.32308333 L26.6715833,6.94804167 C26.9831083,6.63639092 27.4057024,6.46129677 27.8463542,6.46129677 C28.287006,6.46129677 28.7096,6.63639092 29.021125,6.94804167 L31.3954583,9.32308333 C32.0442917,9.97191667 32.0442917,11.0237917 31.3954583,11.672625 L29.0204167,14.04625 C28.3715833,14.6950833 27.3204167,14.6950833 26.6715833,14.04625 L24.2958333,11.6719167 C23.6473124,11.0232664 23.6473124,9.97173364 24.2958333,9.32308333 L24.2965417,9.32308333 Z" id="path-6"></path>
                    <path d="M19.8255417,9.55116667 L18.9032917,8.63033333 L11.0854167,0.812458333 C10.5630809,0.292406814 9.71862744,0.292406814 9.19629167,0.812458333 L1.37841667,8.629625 L0.457583333,9.55116667 C-0.0629385183,10.0735846 -0.0629385183,10.9185821 0.457583333,11.441 L1.37841667,12.3639583 L9.19983333,20.176875 C9.72225123,20.6973969 10.5672488,20.6973969 11.0896667,20.176875 L18.906125,12.36325 L19.8290833,11.4402917 C20.3496052,10.9178738 20.3496052,10.0728762 19.8290833,9.55045833 M9.19983333,14.2750417 L7.089,12.1642083 L6.36508333,11.4402917 C5.84456148,10.9178738 5.84456148,10.0728762 6.36508333,9.55045833 L9.199125,6.717125 C9.7215429,6.19660315 10.5665404,6.19660315 11.0889583,6.717125 L13.9237083,9.55045833 C14.4442302,10.0728762 14.4442302,10.9178738 13.9237083,11.4402917 L13.1990833,12.1649167 L11.0889583,14.2750417 C10.5665404,14.7955635 9.7215429,14.7955635 9.199125,14.2750417" id="Shape"></path>
                    <path d="M22.8855417,8.370375 L25.7195833,5.53633333 C26.2401052,5.01391543 26.2401052,4.1689179 25.7195833,3.6465 L22.88625,0.812458333 C22.3638321,0.291936482 21.5188346,0.291936482 20.9964167,0.812458333 L18.1616667,3.6465 C17.6411448,4.1689179 17.6411448,5.01391543 18.1616667,5.53633333 L20.995,8.370375 C21.5174998,8.89136754 22.3630418,8.89136754 22.8855417,8.370375" id="path-8"></path>
                    <path d="M22.8855417,8.370375 L25.7195833,5.53633333 C26.2401052,5.01391543 26.2401052,4.1689179 25.7195833,3.6465 L22.88625,0.812458333 C22.3638321,0.291936482 21.5188346,0.291936482 20.9964167,0.812458333 L18.1616667,3.6465 C17.6411448,4.1689179 17.6411448,5.01391543 18.1616667,5.53633333 L20.995,8.370375 C21.5174998,8.89136754 22.3630418,8.89136754 22.8855417,8.370375" id="path-8"></path>
                </g>
            </g>
        </g>
    </g>
</svg>