<?xml version="1.0" encoding="UTF-8"?>
<svg width="100px" height="100px" viewBox="0 0 100 100" version="1.1" xmlns="http://www.w3.org/2000/svg" xmlns:xlink="http://www.w3.org/1999/xlink">
    <!-- Generator: Sketch 55.2 (78181) - https://sketchapp.com -->
    <title>Create Reports with Power BI Desktop/explore-data-with-power-bi-desktop</title>
    <desc>Created with Sketch.</desc>
    <defs>
        <rect id="path-1" x="0" y="0" width="96" height="96" rx="48"></rect>
        <filter x="-4.9%" y="-8.2%" width="109.9%" height="116.3%" filterUnits="objectBoundingBox" id="filter-3">
            <feOffset dx="0" dy="2" in="SourceAlpha" result="shadowOffsetOuter1"></feOffset>
            <feColorMatrix values="0 0 0 0 0   0 0 0 0 0   0 0 0 0 0  0 0 0 0.0964956975 0" type="matrix" in="shadowOffsetOuter1" result="shadowMatrixOuter1"></feColorMatrix>
            <feMerge>
                <feMergeNode in="shadowMatrixOuter1"></feMergeNode>
                <feMergeNode in="SourceGraphic"></feMergeNode>
            </feMerge>
        </filter>
        <circle id="path-4" cx="17.71875" cy="30.88125" r="13.66875"></circle>
        <filter x="-7.0%" y="-7.0%" width="114.1%" height="114.1%" filterUnits="objectBoundingBox" id="filter-5">
            <feOffset dx="-3" dy="-3" in="SourceAlpha" result="shadowOffsetInner1"></feOffset>
            <feComposite in="shadowOffsetInner1" in2="SourceAlpha" operator="arithmetic" k2="-1" k3="1" result="shadowInnerInner1"></feComposite>
            <feColorMatrix values="0 0 0 0 0.858823529   0 0 0 0 0.694117647   0 0 0 0 0.309803922  0 0 0 1 0" type="matrix" in="shadowInnerInner1"></feColorMatrix>
        </filter>
        <path d="M20.75625,44.55 C13.2072078,44.55 7.0875,38.4302922 7.0875,30.88125 C7.0875,23.3322078 13.2072078,17.2125 20.75625,17.2125 C28.3052922,17.2125 34.425,23.3322078 34.425,30.88125 C34.425,38.4302922 28.3052922,44.55 20.75625,44.55 Z" id="path-6"></path>
        <filter x="-7.0%" y="-7.0%" width="114.1%" height="114.1%" filterUnits="objectBoundingBox" id="filter-7">
            <feOffset dx="-3" dy="-3" in="SourceAlpha" result="shadowOffsetInner1"></feOffset>
            <feComposite in="shadowOffsetInner1" in2="SourceAlpha" operator="arithmetic" k2="-1" k3="1" result="shadowInnerInner1"></feComposite>
            <feColorMatrix values="0 0 0 0 0.857987998   0 0 0 0 0.693521169   0 0 0 0 0.308519274  0 0 0 1 0" type="matrix" in="shadowInnerInner1"></feColorMatrix>
        </filter>
        <path d="M44.1200609,9.16117982 C43.5364725,9.12872661 43.0795138,9.1125 42.7491849,9.1125 C38.931958,9.1125 34.3296485,10.986187 28.9422562,14.7335611 C27.5021919,15.7352427 25.7874848,16.2668486 24.0333407,16.2554575 L19.8256618,16.2281334 C18.1149347,16.2170278 16.4473697,15.6899662 15.0410111,14.7158686 C9.64774836,10.9802895 5.04630632,9.1125 1.23668492,9.1125 C1.16553827,9.1125 1.08261566,9.1132581 0.987917076,9.1147743 L0.987917426,9.11479615 C0.572818884,9.12144222 0.230927324,8.79032607 0.224281253,8.37522753 C0.224217035,8.37121659 0.224184924,8.3672052 0.224184924,8.36319375 C0.224184924,8.36319375 0.224184924,8.36319375 0.224184924,8.36319375 C2.01900867,6.5747867 4.26866293,4.3502419 6.97314771,1.68955934 L6.97314298,1.68955454 C7.52963652,1.14207405 8.25757883,0.802769391 9.0347039,0.728630559 C14.1263862,0.242876853 18.3703906,0 21.766717,0 C25.2073789,0 29.9162734,0.347242307 35.8934007,1.04172692 L35.8934012,1.04172254 C36.6449497,1.12904524 37.3459009,1.46455267 37.8852871,1.99513066 C40.6420395,4.70686517 42.892392,6.93276293 44.6363448,8.67282395 C44.6363448,8.67282395 44.6363448,8.67282395 44.6363448,8.67282395 C44.6363448,8.94296109 44.4173554,9.1619505 44.1472183,9.1619505 C44.1381603,9.1619505 44.129104,9.16169889 44.12006,9.16119595 Z" id="path-8"></path>
    </defs>
    <g id="Badges" stroke="none" stroke-width="1" fill="none" fill-rule="evenodd">
        <g id="Create-Reports-with-Power-BI-Desktop" transform="translate(-50.000000, -860.000000)">
            <g id="Create-Reports-with-Power-BI-Desktop/explore-data-with-power-bi-desktop" transform="translate(50.000000, 860.000000)">
                <g id="Mask" transform="translate(2.000000, 2.000000)">
                    <mask id="mask-2" fill="white">
                        <use xlink:href="#path-1"></use>
                    </mask>
                    <use id="BG" fill="#7D7D7D" xlink:href="#path-1"></use>
                    <g id="Binoculars" filter="url(#filter-3)" mask="url(#mask-2)">
                        <g transform="translate(8.000000, 24.000000)">
                            <g id="Group">
                                <path d="M20.2085432,3.23346297 C22.1976501,1.18088489 24.9279789,0 27.84375,0 C33.7152272,0 38.475,4.75977275 38.475,10.63125 C38.475,11.7437101 38.160915,13.7455742 36.9361439,20.9469964 C36.9169311,21.0599715 36.9169311,21.0599715 36.8977235,21.1729522 C35.9250786,26.8946696 35.5139439,29.5544526 35.4358933,30.9382669 C34.8552038,41.2337256 27.4919652,48.6 17.71875,48.6 C7.93295459,48.6 0,40.6670454 0,30.88125 C0,26.5728695 1.54442538,22.500746 4.30304471,19.3061578 C5.53472727,17.8798217 8.04063231,15.3017586 11.670818,11.6847166 C11.8377486,11.518429 11.8377486,11.518429 12.0047452,11.3522246 C13.7140676,9.65137814 19.7379299,3.71909322 20.2085432,3.23346297 Z" id="Combined-Shape" fill="#182A37" fill-rule="nonzero"></path>
                                <circle id="Oval" fill="#30404D" fill-rule="nonzero" cx="17.71875" cy="30.88125" r="16.70625"></circle>
                                <g id="Oval" fill-rule="nonzero">
                                    <use fill="#F7CB64" xlink:href="#path-4"></use>
                                    <use fill="black" fill-opacity="1" filter="url(#filter-5)" xlink:href="#path-4"></use>
                                    <use stroke="#232323" stroke-width="0.85" xlink:href="#path-4"></use>
                                </g>
                            </g>
                            <g id="Group-4" transform="translate(41.512500, 0.000000)">
                                <path d="M18.2664568,3.23346297 C18.7370701,3.71909322 24.7609324,9.65137814 26.4702548,11.3522246 C26.6372514,11.518429 26.6372514,11.518429 26.804182,11.6847166 C30.4343677,15.3017586 32.9402727,17.8798217 34.1719553,19.3061578 C36.9305746,22.500746 38.475,26.5728695 38.475,30.88125 C38.475,40.6670454 30.5420454,48.6 20.75625,48.6 C10.9830348,48.6 3.61979622,41.2337256 3.03910667,30.9382669 C2.9610561,29.5544526 2.54992141,26.8946696 1.57727647,21.1729522 C1.55806887,21.0599715 1.55806887,21.0599715 1.53885607,20.9469964 C0.314085029,13.7455742 0,11.7437101 0,10.63125 C0,4.75977275 4.75977275,0 10.63125,0 C13.5470211,0 16.2773499,1.18088489 18.2664568,3.23346297 Z" id="Combined-Shape" fill="#182A37" fill-rule="nonzero"></path>
                                <path d="M20.75625,47.5875 C11.5296429,47.5875 4.05,40.1078571 4.05,30.88125 C4.05,21.6546429 11.5296429,14.175 20.75625,14.175 C29.9828571,14.175 37.4625,21.6546429 37.4625,30.88125 C37.4625,40.1078571 29.9828571,47.5875 20.75625,47.5875 Z" id="Oval" fill="#30404D" fill-rule="nonzero"></path>
                                <g id="Oval" fill-rule="nonzero">
                                    <use fill="#F7CB64" xlink:href="#path-6"></use>
                                    <use fill="black" fill-opacity="1" filter="url(#filter-7)" xlink:href="#path-6"></use>
                                    <use stroke="#232323" stroke-width="0.85" xlink:href="#path-6"></use>
                                </g>
                            </g>
                            <g id="Group-5" transform="translate(18.225000, 3.037500)">
                                <mask id="mask-9" fill="white">
                                    <use xlink:href="#path-8"></use>
                                </mask>
                                <use id="Combined-Shape" fill="#DF5142" fill-rule="nonzero" xlink:href="#path-8"></use>
                                <path d="M37.0554433,17.9313655 C38.7866666,19.7477875 44.6363448,12.7008124 44.6363448,8.76909724 C37.3257056,7.68008111 29.4583558,7.0875 21.2625,7.0875 C13.9325547,7.0875 6.86536756,7.56148069 0.224184924,8.44066386 C0.224184924,12.7008124 6.22509545,19.2676992 7.83050253,17.5784193 C12.1279261,16.9920603 16.6278704,16.680559 21.2625,16.680559 C26.7534742,16.680559 32.055393,17.1178078 37.0554433,17.9313655 Z" id="Oval-2" fill-opacity="0.200209466" fill="#000000" fill-rule="nonzero" mask="url(#mask-9)"></path>
                            </g>
                        </g>
                    </g>
                    <g id="Monitor" mask="url(#mask-2)">
                        <g transform="translate(15.500000, 47.000000)">
                            <path d="M0,11.25 L0,13.125 C0,13.8125 0.5625,14.375 1.25,14.375 L18.75,14.375 C19.4375,14.375 20,13.8125 20,13.125 L20,11.25 L0,11.25" id="Fill-1285" fill="#E1E4E1"></path>
                            <path d="M1.25,0 C0.5625,0 0,0.5625 0,1.25 L0,11.25 L20,11.25 L20,1.25 C20,0.5625 19.4375,0 18.75,0 L1.25,0 Z M18.75,0.625 C19.0946875,0.625 19.375,0.9053125 19.375,1.25 L19.375,10.625 L0.625,10.625 L0.625,1.25 C0.625,0.9053125 0.9053125,0.625 1.25,0.625 L18.75,0.625 L18.75,0.625 Z" id="Fill-1287" fill="#182A37"></path>
                            <path d="M0.625,1.25 C0.625,0.9053125 0.9053125,0.625 1.25,0.625 L18.75,0.625 C19.0946875,0.625 19.375,0.9053125 19.375,1.25 L19.375,10.625 L0.625,10.625 L0.625,1.25" id="Fill-1288" fill="#30404D"></path>
                            <path d="M1.25,0.625 L9.8090625,0.625 L6.7534375,10.625 L0.625,10.625 L0.625,1.25 C0.625,0.9053125 0.9053125,0.625 1.25,0.625" id="Fill-1289" fill="#384B58"></path>
                            <path d="M1.25,0 L10,0 L9.8090625,0.625 L1.25,0.625 C0.9053125,0.625 0.625,0.9053125 0.625,1.25 L0.625,10.625 L6.7534375,10.625 L6.5625,11.25 L0,11.25 L0,1.25 C0,0.5625 0.5625,0 1.25,0" id="Fill-1290" fill="#30404D"></path>
                            <polyline id="Fill-1291" fill="#E1E4E1" points="12.5 17.1875 7.5 17.1875 8.125 14.375 11.875 14.375 12.5 17.1875"></polyline>
                            <path d="M12.5,17.1875 L11.875,14.375 L8.125,14.375 L7.9859375,15 L9.375,15 C9.7203125,15 10,15.2796875 10,15.625 L10,17.1875 L12.5,17.1875" id="Fill-1292" fill="#CDD6D8"></path>
                            <path d="M13.75,17.1875 C13.75,17.359375 13.609375,17.5 13.4375,17.5 L6.5625,17.5 C6.390625,17.5 6.25,17.359375 6.25,17.1875 C6.25,17.015625 6.390625,16.875 6.5625,16.875 L13.4375,16.875 C13.609375,16.875 13.75,17.015625 13.75,17.1875" id="Fill-1293" fill="#E1E4E1"></path>
                            <path d="M6.5625,17.5 L13.4375,17.5 C13.609375,17.5 13.75,17.359375 13.75,17.1875 L6.25,17.1875 C6.25,17.359375 6.390625,17.5 6.5625,17.5" id="Fill-1294" fill="#CDD6D8"></path>
                            <path d="M1.05334093,1.49964963 C1.05334093,1.08612124 1.38963736,0.749824813 1.80316574,0.749824813 L18.2993116,0.749824813 C18.7124651,0.749824813 19.0491364,1.08612124 19.0491364,1.49964963 L19.0491364,11.2473722 L1.05334093,11.2473722 L1.05334093,1.49964963" id="Fill-1417" fill="#F0D9A3"></path>
                        </g>
                    </g>
                    <g id="Paper" mask="url(#mask-2)">
                        <g transform="translate(62.000000, 48.000000)">
                            <g id="Lines" transform="translate(0.339333, 8.325873)">
                                <polygon id="Rectangle-path" fill="#FFEBBC" fill-rule="nonzero" points="0.0488671764 0.134396598 9.59432172 0.134396598 9.59432172 0.531461988 0.0488671764 0.531461988"></polygon>
                                <polygon id="Rectangle-path" fill="#FFEBBC" fill-rule="nonzero" points="0.0488671764 1.43855396 9.59432172 1.43855396 9.59432172 1.83561935 0.0488671764 1.83561935"></polygon>
                                <polygon id="Rectangle-path" fill="#FFEBBC" fill-rule="nonzero" points="0.0488671764 2.7425412 9.59432172 2.7425412 9.59432172 3.13977671 0.0488671764 3.13977671"></polygon>
                                <polygon id="Rectangle-path" fill="#FFEBBC" fill-rule="nonzero" points="0.0488671764 4.04669856 9.59432172 4.04669856 9.59432172 4.44376396 0.0488671764 4.44376396"></polygon>
                            </g>
                            <g id="Pie" transform="translate(12.323232, 7.171717)">
                                <path d="M3.4754498,3.69950395 L3.46213771,3.75598454 L3.4754498,3.69950395 L3.43399695,3.69950395 L3.4754498,3.69950395 L4.19059565,0.64836094 C3.94322663,0.58779741 3.68625269,0.552241854 3.42034785,0.552241854 C1.62102471,0.552241854 0.162423745,2.02465015 0.162423745,3.84138593 C0.162423745,5.65778146 1.62102471,7.13053 3.42034785,7.13053 C5.21983949,7.13053 6.67827195,5.65778146 6.67827195,3.84138593 C6.67827195,3.79341144 6.67422777,3.74662782 6.67220568,3.69950395 L3.4754498,3.69950395 Z" id="Shape" fill="#876D31" fill-rule="nonzero"></path>
                                <path d="M3.92688141,3.32455445 L4.77380013,0.331423141 C6.07973329,0.830221652 7.01494994,2.38037583 7.11790803,3.32455445 L3.92688141,3.32455445 Z" id="Shape" fill="#FFDC8A" fill-rule="nonzero"></path>
                            </g>
                            <g id="Graph" transform="translate(1.704545, 0.000000)">
                                <path d="M1.20534544,2.56726904 C0.578662918,2.56726904 0.0690729979,2.05731435 0.0690729979,1.43081421 C0.0690729979,0.804314079 0.578845306,0.294541772 1.20534544,0.294541772 C1.83202796,0.294541772 2.34180027,0.804314079 2.34180027,1.43081421 C2.34180027,2.05731435 1.83184558,2.56726904 1.20534544,2.56726904 Z M1.20534544,0.659133844 C0.779836033,0.659133844 0.433847458,1.00530481 0.433847458,1.43063183 C0.433847458,1.85632362 0.779836033,2.2023122 1.20534544,2.2023122 C1.63085485,2.2023122 1.97702581,1.85632362 1.97702581,1.43063183 C1.97702581,1.00530481 1.63085485,0.659133844 1.20534544,0.659133844 Z" id="Shape" fill="#876D31" fill-rule="nonzero"></path>
                                <path d="M4.84170905,6.20363268 C4.21502654,6.20363268 3.70543663,5.69367799 3.70543663,5.06717785 C3.70543663,4.44049533 4.21520893,3.93090541 4.84170905,3.93090541 C5.46839156,3.93090541 5.97816391,4.44067772 5.97816391,5.06717785 C5.97834625,5.69367799 5.46839156,6.20363268 4.84170905,6.20363268 Z M4.84170905,4.29549748 C4.41619965,4.29549748 4.07021109,4.64148606 4.07021109,5.06699546 C4.07021109,5.49250487 4.41619965,5.83867583 4.84170905,5.83867583 C5.26721845,5.83867583 5.61338941,5.49250487 5.61338941,5.06699546 C5.61338941,4.64148606 5.26740084,4.29549748 4.84170905,4.29549748 Z" id="Shape" fill="#876D31" fill-rule="nonzero"></path>
                                <path d="M10.2962545,3.93090541 C9.66957201,3.93090541 9.15998209,3.42095071 9.15998209,2.79445058 C9.15998209,2.16776806 9.6697544,1.65817814 10.2962545,1.65817814 C10.9227547,1.65817814 11.4327094,2.16795044 11.4327094,2.79445058 C11.4327094,3.42095071 10.9227547,3.93090541 10.2962545,3.93090541 Z M10.2962545,2.02277021 C9.87074512,2.02277021 9.52475655,2.36875878 9.52475655,2.79426819 C9.52475655,3.2197776 9.87074512,3.56594856 10.2962545,3.56594856 C10.7217639,3.56594856 11.0679349,3.2197776 11.0679349,2.79426819 C11.0679349,2.36894117 10.7217639,2.02277021 10.2962545,2.02277021 Z" id="Shape" fill="#876D31" fill-rule="nonzero"></path>
                                <path d="M15.2962545,6.20363268 C14.669572,6.20363268 14.1599821,5.69367799 14.1599821,5.06717785 C14.1599821,4.44049533 14.6697544,3.93090541 15.2962545,3.93090541 C15.922937,3.93090541 16.4327094,4.44067772 16.4327094,5.06717785 C16.4328917,5.69367799 15.922937,6.20363268 15.2962545,6.20363268 Z M15.2962545,4.29549748 C14.8707451,4.29549748 14.5247565,4.64148606 14.5247565,5.06699546 C14.5247565,5.49250487 14.8707451,5.83867583 15.2962545,5.83867583 C15.7217639,5.83867583 16.0679349,5.49250487 16.0679349,5.06699546 C16.0679349,4.64148606 15.7217639,4.29549748 15.2962545,4.29549748 Z" id="Shape" fill="#876D31" fill-rule="nonzero"></path>
                                <polygon id="Rectangle-path" fill="#876D31" fill-rule="nonzero" transform="translate(2.821224, 3.450825) rotate(45.000000) translate(-2.821224, -3.450825) " points="1.23564846 3.33590882 4.42060781 3.21169044 4.40679931 3.56574022 1.22183996 3.68995861"></polygon>
                                <polygon id="Rectangle-path" fill="#876D31" fill-rule="nonzero" transform="translate(7.565753, 4.257410) rotate(65.039180) translate(-7.565753, -4.257410) " points="7.45429861 2.22207288 7.79601544 2.21161249 7.67720704 6.29274778 7.33549021 6.30320817"></polygon>
                                <polygon id="Rectangle-path" fill="#876D31" fill-rule="nonzero" transform="translate(12.823868, 3.929998) rotate(20.488312) translate(-12.823868, -3.929998) " points="10.9898095 3.80395501 14.6669759 3.71260029 14.6579259 4.05604046 10.9807595 4.14739519"></polygon>
                            </g>
                        </g>
                    </g>
                </g>
                <g id="Power-BI-Border" stroke="#F2C811" stroke-width="4">
                    <rect id="Azure-Border" x="2" y="2" width="96" height="96" rx="48"></rect>
                </g>
            </g>
        </g>
    </g>
</svg>