<svg width="105" height="106" viewBox="0 0 105 106" fill="none" xmlns="http://www.w3.org/2000/svg">
<path d="M54.0653 100.985C80.8241 100.985 102.516 79.2928 102.516 52.5341C102.516 25.7753 80.8241 4.08301 54.0653 4.08301C27.3065 4.08301 5.61426 25.7753 5.61426 52.5341C5.61426 79.2928 27.3065 100.985 54.0653 100.985Z" fill="#BA93BA"/>
<path d="M103.506 53.0713C103.506 24.9065 80.6712 2.07129 52.5063 2.07129C24.3415 2.07129 1.50635 24.9065 1.50635 53.0713C1.50635 81.2361 24.3415 104.071 52.5063 104.071C80.6712 104.071 103.506 81.2361 103.506 53.0713Z" stroke="#F2F1F0" stroke-width="2.5"/>
<path d="M102.19 53.0711C102.19 25.633 79.9442 3.3877 52.5061 3.3877C25.0681 3.3877 2.82275 25.633 2.82275 53.0711C2.82275 80.5091 25.0681 102.754 52.5061 102.754C79.9442 102.754 102.19 80.5091 102.19 53.0711Z" fill="#BA93BA"/>
<path d="M52.5064 3.17725C80.0603 3.17725 102.4 25.5174 102.4 53.0818C102.4 80.6463 80.0603 102.986 52.5064 102.986C24.9525 102.976 2.6123 80.6357 2.6123 53.0713C2.6123 25.5174 24.9525 3.17725 52.5064 3.17725ZM52.5064 7.35878C27.2591 7.35878 6.79384 27.8241 6.79384 53.0713C6.79384 78.3185 27.2591 98.7838 52.5064 98.7838C77.7536 98.7838 98.2189 78.3185 98.2189 53.0713C98.2189 27.8241 77.7536 7.35878 52.5064 7.35878Z" fill="#752375"/>
<path d="M52.5064 3.17725C80.0603 3.17725 102.4 25.5174 102.4 53.0818C102.4 80.6463 80.0603 102.986 52.5064 102.986C24.9525 102.976 2.6123 80.6357 2.6123 53.0713C2.6123 25.5174 24.9525 3.17725 52.5064 3.17725ZM52.5064 7.35878C27.2591 7.35878 6.79384 27.8241 6.79384 53.0713C6.79384 78.3185 27.2591 98.7838 52.5064 98.7838C77.7536 98.7838 98.2189 78.3185 98.2189 53.0713C98.2189 27.8241 77.7536 7.35878 52.5064 7.35878Z" fill="#752375"/>
<path d="M65.399 77.8757C59.0371 76.854 58.7949 72.1985 58.7949 64.6675H46.1871C46.1871 72.1985 45.9764 76.8645 39.6146 77.8757C37.7924 78.0863 36.4231 79.6557 36.4337 81.52H68.5799C68.5904 79.6452 67.2211 78.0758 65.399 77.8757Z" fill="url(#paint0_linear)"/>
<path fill-rule="evenodd" clip-rule="evenodd" d="M81.4298 24.6748C82.5674 24.6748 83.4837 25.5806 83.4837 26.7076V63.5831C83.4837 64.7101 82.5674 65.6159 81.4298 65.6159H23.4992C22.3617 65.6159 21.4453 64.7101 21.4453 63.5831V26.7076C21.4453 25.5806 22.3617 24.6748 23.4992 24.6748H81.4298Z" fill="url(#paint1_linear)"/>
<path d="M21.4346 24.6748H83.4835V65.6159H21.4346V24.6748Z" fill="url(#paint2_linear)"/>
<path fill-rule="evenodd" clip-rule="evenodd" d="M90.2245 66.237C90.2245 76.6013 81.8193 84.996 71.4655 84.996C61.1012 84.996 52.7065 76.5908 52.7065 66.237C52.7065 55.8832 61.1117 47.478 71.4655 47.478C81.8298 47.478 90.2245 55.8727 90.2245 66.237Z" fill="#EBEBEB"/>
<path fill-rule="evenodd" clip-rule="evenodd" d="M84.2735 78.1607L82.9674 76.8546C82.7251 76.6123 82.3249 76.6123 82.0826 76.8546C81.8404 77.0968 81.8404 77.4971 82.0826 77.7393L83.3887 79.0454C80.3974 81.8261 76.4476 83.5745 72.087 83.7325V81.8682C72.087 81.5206 71.8026 81.2468 71.4655 81.2468C71.1179 81.2468 70.8441 81.5312 70.8441 81.8682V83.7325C66.4835 83.5745 62.5337 81.8261 59.5423 79.0454L60.8484 77.7393C61.0907 77.4971 61.0907 77.0968 60.8484 76.8546C60.6062 76.6123 60.2059 76.6123 59.9637 76.8546L58.6576 78.1607C55.8769 75.1693 54.1285 71.2195 53.9705 66.8589H55.8348C56.1824 66.8589 56.4562 66.5745 56.4562 66.2375C56.4562 65.9004 56.1718 65.6161 55.8348 65.6161H53.9705C54.1285 61.2555 55.8769 57.3056 58.6576 54.3143L59.9637 55.6204C60.0901 55.7468 60.248 55.7994 60.406 55.7994C60.564 55.7994 60.722 55.7363 60.8484 55.6204C61.0907 55.3781 61.0907 54.9779 60.8484 54.7356L59.5423 53.4296C62.5337 50.6489 66.4835 48.9004 70.8441 48.7424V50.6068C70.8441 50.9543 71.1285 51.2282 71.4655 51.2282C71.8131 51.2282 72.087 50.9438 72.087 50.6068V48.7424C76.4476 48.9004 80.3974 50.6489 83.3887 53.4296L82.0826 54.7356C81.8404 54.9779 81.8404 55.3781 82.0826 55.6204C82.209 55.7468 82.367 55.7994 82.525 55.7994C82.683 55.7994 82.841 55.7363 82.9674 55.6204L84.2735 54.3143C87.0541 57.2951 88.8026 61.2555 88.9606 65.6161H87.0963C86.7487 65.6161 86.4748 65.9004 86.4748 66.2375C86.4748 66.5745 86.7592 66.8589 87.0963 66.8589H88.9606C88.8026 71.2195 87.0541 75.1799 84.2735 78.1607ZM71.4655 46.2251C60.4271 46.2251 51.4531 55.1991 51.4531 66.2375C51.4531 77.2759 60.4271 86.2499 71.4655 86.2499C82.5039 86.2499 91.4779 77.2759 91.4779 66.2375C91.4779 55.2096 82.5039 46.2251 71.4655 46.2251Z" fill="black"/>
<path fill-rule="evenodd" clip-rule="evenodd" d="M72.7187 64.9842H70.2119L71.4653 53.7246L72.7187 64.9842Z" fill="#75757A"/>
<path fill-rule="evenodd" clip-rule="evenodd" d="M72.7188 67.4907V64.9839L83.9784 66.2373L72.7188 67.4907Z" fill="#75757A"/>
<path fill-rule="evenodd" clip-rule="evenodd" d="M70.2122 64.9839V67.4907L58.9526 66.2373L70.2122 64.9839Z" fill="#75757A"/>
<path fill-rule="evenodd" clip-rule="evenodd" d="M70.2119 67.4907H72.7187L71.4653 78.7503L70.2119 67.4907Z" fill="#75757A"/>
<path fill-rule="evenodd" clip-rule="evenodd" d="M74.2988 69.9871L67.7158 63.4041L80.2288 57.4741L74.2988 69.9871Z" fill="#0078D4"/>
<path fill-rule="evenodd" clip-rule="evenodd" d="M71.4653 71.0197L71.5601 72.4943L72.6134 71.6306L72.7187 69.998L71.4653 71.0197Z" fill="#A9B3B6"/>
<path fill-rule="evenodd" clip-rule="evenodd" d="M68.6321 62.4873L75.2152 69.0703L62.7021 75.0003L68.6321 62.4873Z" fill="#50E6FF"/>
<path fill-rule="evenodd" clip-rule="evenodd" d="M72.7187 66.2373C72.7187 66.9219 72.1605 67.4907 71.4653 67.4907C70.7701 67.4907 70.2119 66.9325 70.2119 66.2373C70.2119 65.5421 70.7701 64.9839 71.4653 64.9839C72.1605 64.9839 72.7187 65.5527 72.7187 66.2373Z" fill="#30404D"/>
<path d="M42.3633 33.8493L39.9302 31.3425C39.6037 30.9949 39.0455 31.0159 38.7295 31.3741L28.4389 43.1287C27.9754 43.6554 27.9754 44.4348 28.4389 44.9614L38.6347 56.6845C39.0139 57.1269 39.6985 57.1269 40.0882 56.6845L43.1322 53.1665L43.4693 35.0816L42.3633 33.8493Z" fill="url(#paint3_linear)"/>
<path d="M54.3392 42.6017L44.1961 31.5106C43.7537 31.0366 43.0164 31.0366 42.574 31.5001L37.8869 36.3347C37.3813 36.8613 37.3708 37.6934 37.8658 38.2306L42.6688 43.3811C43.0269 43.7603 43.0269 44.3396 42.6688 44.7188L37.8448 49.9326C37.3497 50.4697 37.3603 51.2913 37.8658 51.8179L42.5635 56.6946C43.0059 57.1581 43.7537 57.1475 44.1961 56.6736L54.3392 45.4982C55.0976 44.6872 55.087 43.4338 54.3392 42.6017Z" fill="url(#paint4_linear)"/>
<path d="M54.8237 44.9926L50.2946 50.0168C49.947 50.396 49.3571 50.4065 48.999 50.0379L44.4488 45.3929C43.7115 44.645 43.7115 43.4338 44.4383 42.6754L48.9042 38.062C49.2623 37.6934 49.8522 37.7039 50.1998 38.0831L54.8131 43.1705C55.2871 43.6866 55.2871 44.4765 54.8237 44.9926Z" fill="url(#paint5_linear)"/>
<defs>
<linearGradient id="paint0_linear" x1="52.5066" y1="81.5115" x2="52.5066" y2="64.6589" gradientUnits="userSpaceOnUse">
<stop offset="0.15" stop-color="#CCCCCC"/>
<stop offset="1" stop-color="#707070"/>
</linearGradient>
<linearGradient id="paint1_linear" x1="52.4573" y1="24.9525" x2="52.4573" y2="65.6212" gradientUnits="userSpaceOnUse">
<stop stop-color="#6A6A6A"/>
<stop offset="1" stop-color="#343333"/>
</linearGradient>
<linearGradient id="paint2_linear" x1="21.4345" y1="45.1501" x2="83.4796" y2="45.1501" gradientUnits="userSpaceOnUse">
<stop stop-color="#6A6A6A"/>
<stop offset="1" stop-color="#343333"/>
</linearGradient>
<linearGradient id="paint3_linear" x1="35.1385" y1="32.0543" x2="37.0258" y2="54.2303" gradientUnits="userSpaceOnUse">
<stop stop-color="#A23093"/>
<stop offset="1" stop-color="#692266"/>
</linearGradient>
<linearGradient id="paint4_linear" x1="37.487" y1="44.1029" x2="54.905" y2="44.1029" gradientUnits="userSpaceOnUse">
<stop stop-color="#E184C4"/>
<stop offset="1" stop-color="#D76EBC"/>
</linearGradient>
<linearGradient id="paint5_linear" x1="43.8989" y1="44.0473" x2="55.1709" y2="44.0473" gradientUnits="userSpaceOnUse">
<stop stop-color="#E89BCA"/>
<stop offset="1" stop-color="#E591C8"/>
</linearGradient>
</defs>
</svg>
