<?xml version="1.0" encoding="UTF-8"?>
<svg width="100px" height="118px" viewBox="0 0 100 118" version="1.1" xmlns="http://www.w3.org/2000/svg" xmlns:xlink="http://www.w3.org/1999/xlink">
    <!-- Generator: Sketch 53.2 (72643) - https://sketchapp.com -->
    <title>Extend Dynamics 365 Portals/work-with-portals-in-dynamics-365</title>
    <desc>Created with Sketch.</desc>
    <defs>
        <path d="M42.7425,1.49663266 C44.3745,0.498877554 46.1865,0 48,0 C49.8135,0 51.627,0.498877554 53.256,1.49663266 L90.591,24.3316189 C93.933,26.3773408 96,30.2031485 96,34.3529027 L96,79.6470973 C96,83.7952317 93.933,87.6242789 90.591,89.6683811 L53.256,112.504987 C51.627,113.501122 49.8135,114 48,114 C46.1865,114 44.3745,113.501122 42.7425,112.504987 L5.409,89.6683811 C2.0655,87.6242789 0,83.7952317 0,79.6470973 L0,34.3529027 C0,30.2031485 2.0655,26.3773408 5.409,24.3316189 L42.7425,1.49663266 Z" id="path-1"></path>
        <filter x="-7.8%" y="-4.4%" width="115.7%" height="108.9%" filterUnits="objectBoundingBox" id="filter-3">
            <feOffset dx="0" dy="2" in="SourceAlpha" result="shadowOffsetOuter1"></feOffset>
            <feColorMatrix values="0 0 0 0 0   0 0 0 0 0   0 0 0 0 0  0 0 0 0.0966089221 0" type="matrix" in="shadowOffsetOuter1" result="shadowMatrixOuter1"></feColorMatrix>
            <feMerge>
                <feMergeNode in="shadowMatrixOuter1"></feMergeNode>
                <feMergeNode in="SourceGraphic"></feMergeNode>
            </feMerge>
        </filter>
        <path d="M4.40630096,50.0517324 L24.419786,50.0517324 C24.9720707,50.0517324 25.419786,49.6040171 25.419786,49.0517324 L25.419786,5.02987721 C25.419786,4.47759246 24.9720707,4.02987721 24.419786,4.02987721 L4.40630096,4.02987721 C3.85401621,4.02987721 3.40630096,4.47759246 3.40630096,5.02987721 L3.40630096,49.0517324 C3.40630096,49.6040171 3.85401621,50.0517324 4.40630096,50.0517324 Z" id="path-4"></path>
        <filter x="-4.5%" y="-2.2%" width="109.1%" height="104.3%" filterUnits="objectBoundingBox" id="filter-5">
            <feOffset dx="0" dy="2" in="SourceAlpha" result="shadowOffsetInner1"></feOffset>
            <feComposite in="shadowOffsetInner1" in2="SourceAlpha" operator="arithmetic" k2="-1" k3="1" result="shadowInnerInner1"></feComposite>
            <feColorMatrix values="0 0 0 0 0   0 0 0 0 0   0 0 0 0 0  0 0 0 0.102185236 0" type="matrix" in="shadowInnerInner1"></feColorMatrix>
        </filter>
    </defs>
    <g id="Badges" stroke="none" stroke-width="1" fill="none" fill-rule="evenodd">
        <g id="Extend-Dynamics-365-Portals" transform="translate(-50.000000, -50.000000)">
            <g id="Extend-Dynamics-365-Portals/work-with-portals-in-dynamics-365" transform="translate(50.000000, 50.000000)">
                <g id="Mask" transform="translate(2.000000, 2.000000)">
                    <mask id="mask-2" fill="white">
                        <use xlink:href="#path-1"></use>
                    </mask>
                    <use id="Trophy-1" fill="#01B6C3" xlink:href="#path-1"></use>
                    <g id="Portal" filter="url(#filter-3)" mask="url(#mask-2)">
                        <g transform="translate(23.000000, 4.000000)">
                            <path d="M4.43478261,84.2608696 L46.5652174,84.2608696 L46.5652174,6.21911234 C46.5652174,2.90540384 43.8789259,0.21911234 40.5652174,0.21911234 L10.4347826,0.21911234 C7.12107411,0.21911234 4.43478261,2.90540384 4.43478261,6.21911234 L4.43478261,84.2608696 Z" id="Fill-811" fill="#E1E4E1"></path>
                            <path d="M25.5755489,84.2608696 L46.5652174,84.2608696 L46.5652172,8.43650421 C46.5652172,5.12279577 43.8789258,2.4365043 40.5652174,2.43650421 L26.6531624,2.43745263 C26.1012481,2.43745262 25.6536864,2.88458997 25.6531629,3.43650409 L25.5755489,84.2608696 Z" id="Fill-811" fill="#000000" opacity="0.047781808"></path>
                            <path d="M22.1738437,8.8681954 C20.9498437,8.8681954 19.9564524,7.87591279 19.9564524,6.65080409 C19.9564524,5.4245867 20.9498437,4.43341279 22.1738437,4.43341279 C23.3989524,4.43341279 24.391235,5.4245867 24.391235,6.65080409 C24.391235,7.87591279 23.3989524,8.8681954 22.1738437,8.8681954 Z" id="Fill-177" fill="#87BF5F"></path>
                            <path d="M20.0351698,7.20515192 C19.9886046,7.38365192 19.9564524,7.5665867 19.9564524,7.75949975 C19.9564524,8.98460844 20.9498437,9.97689105 22.1738437,9.97689105 C23.3989524,9.97689105 24.391235,8.98460844 24.391235,7.75949975 C24.391235,7.5665867 24.3590828,7.38365192 24.3125176,7.20515192 C24.0652785,8.16084757 23.2060394,8.8681954 22.1738437,8.8681954 C21.1416481,8.8681954 20.2824089,8.16084757 20.0351698,7.20515192 Z" id="Fill-178" fill="#C5CCCD"></path>
                            <path d="M23.7415394,5.08310844 L20.6061481,8.21849975 C21.4720394,9.08439105 22.8756481,9.08549975 23.7415394,8.21849975 C24.6085394,7.35149975 24.6074307,5.94899975 23.7415394,5.08310844 Z" id="Fill-179" fill="#69994E"></path>
                            <path d="M28.8260176,8.8681954 C27.6020176,8.8681954 26.6086263,7.87591279 26.6086263,6.65080409 C26.6086263,5.4245867 27.6020176,4.43341279 28.8260176,4.43341279 C30.0511263,4.43341279 31.0434089,5.4245867 31.0434089,6.65080409 C31.0434089,7.87591279 30.0511263,8.8681954 28.8260176,8.8681954 Z" id="Fill-180" fill="#C0463C"></path>
                            <path d="M26.686235,7.20515192 C26.6407785,7.38365192 26.6086263,7.5665867 26.6086263,7.75949975 C26.6086263,8.98460844 27.6009089,9.97689105 28.8260176,9.97689105 C30.0500176,9.97689105 31.0434089,8.98460844 31.0434089,7.75949975 C31.0434089,7.5665867 31.0112568,7.38365192 30.9646915,7.20515192 C30.7174524,8.16084757 29.8582133,8.8681954 28.8260176,8.8681954 C27.793822,8.8681954 26.9334742,8.16084757 26.686235,7.20515192 Z" id="Fill-181" fill="#C5CCCD"></path>
                            <path d="M30.3937133,5.08310844 L27.258322,8.21849975 C28.1242133,9.08439105 29.5267133,9.08549975 30.3937133,8.21849975 C31.2607133,7.35149975 31.2596046,5.94899975 30.3937133,5.08310844 Z" id="Fill-182" fill="#AA3E35"></path>
                            <rect id="Rectangle" fill="#ADBDC4" x="0" y="84.2608696" width="51" height="6.65217391" rx="3.32608696"></rect>
                            <path d="M1.76941795e-16,87.5869565 L22.2068957,87.5869565 C24.0438428,87.5869565 25.5329827,86.0978167 25.5329827,84.2608696 L25.5329827,84.2608696 L48,84.2608696 C49.6568542,84.2608696 51,85.6040153 51,87.2608696 L51,87.9130435 C51,89.5698977 49.6568542,90.9130435 48,90.9130435 L3,90.9130435 C1.34314575,90.9130435 2.02906125e-16,89.5698977 0,87.9130435 L1.76941795e-16,87.5869565 Z" id="Rectangle" fill-opacity="0.0977977808" fill="#000000"></path>
                            <g id="Group-50" stroke-width="1" fill="none" transform="translate(11.086957, 12.195652)">
                                <path d="M3,0 L25.826087,0 C27.4829412,1.167223e-15 28.826087,1.34314575 28.826087,3 L28.826087,72.0652174 L0,72.0652174 L-4.4408921e-16,3 C-6.46995335e-16,1.34314575 1.34314575,3.04359188e-16 3,0 Z" id="Rectangle" fill="#30404D"></path>
                                <g id="Fill-822">
                                    <use fill="#55B7D9" fill-rule="evenodd" xlink:href="#path-4"></use>
                                    <use fill="black" fill-opacity="1" filter="url(#filter-5)" xlink:href="#path-4"></use>
                                </g>
                                <g id="Group" transform="translate(6.652174, 19.279935)" fill="#8BD0E9">
                                    <path d="M1.68779868,14.8973455 C1.46490964,14.8973455 1.24114652,14.8125603 1.06982788,14.6412416 C0.728938756,14.3003525 0.728938756,13.7470632 1.06982788,13.4053 L13.3068734,1.16825451 C13.6486366,0.827365384 14.2019259,0.827365384 14.542815,1.16825451 C14.8845782,1.51001771 14.8845782,2.06330698 14.542815,2.40419611 L2.30576948,14.6412416 C2.13532492,14.8125603 1.9115618,14.8973455 1.68779868,14.8973455" id="Fill-716"></path>
                                    <path d="M8.68039613,14.9130789 C8.45750709,14.9130789 8.23374397,14.8274196 8.06242533,14.656975 C7.7215362,14.3152118 7.7215362,13.7627966 8.06242533,13.4210334 L13.3068734,8.1765853 C13.6486366,7.8348221 14.2019259,7.8348221 14.542815,8.1765853 C14.8845782,8.5183485 14.8845782,9.0707637 14.542815,9.4125269 L9.29836693,14.656975 C9.12792237,14.8274196 8.90415925,14.9130789 8.68039613,14.9130789" id="Fill-717"></path>
                                    <path d="M1.59689491,7.92048142 C1.3731318,7.92048142 1.14936868,7.8348221 0.978924115,7.66437754 C0.637160915,7.32261434 0.637160915,6.77019914 0.978924115,6.42843594 L6.2233722,1.18398785 C6.5651354,0.842224654 7.1175506,0.842224654 7.4593138,1.18398785 C7.801077,1.52575105 7.801077,2.07816625 7.4593138,2.41992945 L2.21486571,7.66437754 C2.04442115,7.8348221 1.82065803,7.92048142 1.59689491,7.92048142" id="Fill-718"></path>
                                </g>
                                <path d="M23.5853289,57.1701601 C22.5727086,57.1701601 21.7508718,56.3483233 21.7508718,55.335703 C21.7508718,54.3230827 22.5727086,53.5012459 23.5853289,53.5012459 C24.5979492,53.5012459 25.419786,54.3230827 25.419786,55.335703 C25.419786,56.3483233 24.5979492,57.1701601 23.5853289,57.1701601 Z" id="Fill-833" fill="#E1E4E1"></path>
                            </g>
                        </g>
                    </g>
                </g>
                <g id="Dynamic-Hex" stroke="#1D8E96" stroke-width="4">
                    <path d="M45.5620146,3.25834407 L6.67338401,26.8942953 C3.79673288,28.6432593 2,31.9508238 2,35.5582677 L2,82.4417323 C2,86.0486597 3.79764663,89.3586805 6.67318764,91.1055853 L45.560618,114.742485 C46.9289662,115.572418 48.4546283,116 50,116 C51.5458817,116 53.0723633,115.572188 54.4362178,114.743457 L93.3268764,91.1055464 C96.2016145,89.3583456 98,86.0476286 98,82.4417323 L98,35.5582677 C98,31.9518547 96.202529,28.6435953 93.3268966,26.8944659 L54.4351916,3.25759524 C53.0721095,2.42798656 51.5462432,2 50,2 C48.4543284,2 46.9293388,2.42772325 45.5620146,3.25834407 Z M45.5620146,3.25834407 C45.5619597,3.25837737 45.5619049,3.25841067 45.5618501,3.25844398 L45.5621963,3.25823359 L45.5620146,3.25834407 Z" id="Azure-Hex-Border"></path>
                </g>
            </g>
        </g>
    </g>
</svg>