<svg width="103" height="103" viewBox="0 0 103 103" fill="none" xmlns="http://www.w3.org/2000/svg">
<path d="M51.5395 97.8563C25.6895 97.8563 4.72949 76.9063 4.72949 51.0463C4.72949 25.1863 25.6895 4.23633 51.5395 4.23633C77.3895 4.23633 98.3495 25.1963 98.3495 51.0463C98.3495 76.8963 77.3895 97.8563 51.5395 97.8563Z" fill="url(#paint0_linear)"/>
<path fill-rule="evenodd" clip-rule="evenodd" d="M97.4394 51.0462C97.4394 76.3962 76.8894 96.9463 51.5394 96.9463C26.1894 96.9463 5.63941 76.3962 5.63941 51.0462C5.63941 25.6962 26.1894 5.14625 51.5394 5.14625C76.8894 5.14625 97.4394 25.6962 97.4394 51.0462ZM51.5394 1.40625C78.9594 1.40625 101.179 23.6262 101.179 51.0462C101.179 78.4662 78.9494 100.686 51.5394 100.686C24.1194 100.686 1.89941 78.4562 1.89941 51.0462C1.89941 23.6262 24.1194 1.40625 51.5394 1.40625Z" fill="#F2F1F0"/>
<path fill-rule="evenodd" clip-rule="evenodd" d="M94.629 51.0458C94.629 74.8458 75.339 94.1358 51.539 94.1358C27.739 94.1358 8.44898 74.8458 8.44898 51.0458C8.44898 27.2458 27.739 7.95582 51.539 7.95582C75.339 7.95582 94.629 27.2458 94.629 51.0458ZM51.539 4.21582C77.399 4.21582 98.369 25.1858 98.369 51.0458C98.369 76.9058 77.399 97.8758 51.539 97.8758C25.679 97.8758 4.70898 76.9058 4.70898 51.0458C4.70898 25.1858 25.669 4.21582 51.539 4.21582Z" fill="url(#paint1_linear)"/>
<path opacity="0.2" d="M68.38 73.944C69.7701 73.944 70.8898 72.8146 70.8898 71.4342V25.9092H21.6387V71.4438C21.6387 72.8339 22.7681 73.9537 24.1485 73.9537H68.38V73.944Z" fill="#1F1D21"/>
<path d="M70.89 25.1177V24.3551C70.89 23.4091 70.1273 22.6465 69.1813 22.6465H23.3571C22.411 22.6465 21.6484 23.4091 21.6484 24.3551V25.2046V25.9769V69.8318C21.6484 70.7779 22.411 71.5405 23.3571 71.5405H69.191C70.137 71.5405 70.8996 70.7779 70.8996 69.8318V25.2046C70.8996 25.1756 70.89 25.1467 70.89 25.1177Z" fill="#F2F1F0"/>
<path d="M61.6157 40.2765C61.2585 38.423 60.6021 35.2085 57.3103 34.359C54.1054 33.5385 52.1361 35.2085 51.248 36.7337C51.5859 37.0329 51.8755 37.3515 52.1265 37.6894C53.9027 40.093 55.1576 42.4388 54.5494 45.9816C53.9509 49.5243 51.277 52.7485 47.6763 52.6616C44.8672 52.5941 43.1778 51.6287 42.9269 51.3295C42.8979 51.3005 42.8786 51.2233 42.8496 51.1268C42.3091 52.15 41.4113 53.8587 40.6873 55.0943C40.5328 55.3549 40.3591 55.6252 40.166 55.8955C41.1603 56.7353 42.3187 57.44 43.4964 57.9324C45.0506 58.5888 47.2902 59.1583 50.4468 58.666C53.6131 58.1737 57.5902 56.05 60.158 51.5515C62.7354 47.0434 61.886 41.6762 61.6157 40.2765Z" fill="url(#paint2_linear)"/>
<path d="M39.2775 55.0268C38.1287 53.8008 36.0629 50.4222 36.7676 46.5415C37.4723 42.6705 39.9822 40.4599 42.7623 40.0255C45.3494 39.6201 48.2937 41.2515 48.2937 41.2515L47.6372 42.7285C47.6372 42.7285 50.3112 38.4231 51.151 36.8689C51.18 36.8206 51.1993 36.782 51.2283 36.7338C49.1528 34.8707 45.5714 33.6737 42.7527 33.8185C39.4802 33.9826 37.0283 35.1024 35.0107 36.6565C32.9932 38.2107 30.4061 41.0778 29.5566 45.6824C28.7071 50.287 29.962 53.4533 30.4254 54.6503C30.8888 55.8473 31.5934 57.8166 34.4605 58.5213C36.9221 59.1294 38.9493 57.5366 40.1559 55.8859C39.8567 55.6156 39.5574 55.326 39.2775 55.0268Z" fill="url(#paint3_linear)"/>
<path d="M42.7717 40.0347C39.9915 40.4691 37.4817 42.6797 36.777 46.5506C36.0723 50.4216 38.1381 53.8003 39.2868 55.0359C39.5668 55.3352 39.866 55.6151 40.1846 55.8854C40.3777 55.6151 40.5514 55.3448 40.7059 55.0842C41.4202 53.8485 42.3276 52.1399 42.8682 51.1167C42.6655 50.2768 42.54 47.4194 42.54 47.4194L43.3316 50.2286C43.3316 50.2286 43.1482 50.5761 42.8682 51.1167C42.8972 51.2228 42.9165 51.2904 42.9454 51.3194C43.0034 51.3966 43.1675 51.5124 43.4088 51.6572L47.9265 41.0579C47.0191 40.6332 44.7892 39.7161 42.7717 40.0347Z" fill="url(#paint4_linear)"/>
<path d="M52.1254 37.6891C51.8745 37.3512 51.5849 37.0327 51.247 36.7334C51.218 36.7817 51.1987 36.8203 51.1698 36.8685C50.6388 37.8532 49.3743 39.9286 48.5151 41.3284L43.0996 51.5898L45.4647 52.3911C46.0921 52.5262 46.8354 52.6324 47.6753 52.6517C51.276 52.7289 53.9499 49.5144 54.5484 45.9716C55.1469 42.4288 53.9017 40.0831 52.1254 37.6891Z" fill="url(#paint5_linear)"/>
<path d="M42.5303 47.4199C42.5303 47.4199 42.6558 50.2773 42.8585 51.1171C43.1384 50.5862 43.3218 50.229 43.3218 50.229L42.5303 47.4199Z" stroke="black" stroke-miterlimit="10"/>
<path d="M45.6583 52.111C48.8518 52.111 51.4406 49.5308 51.4406 46.348C51.4406 43.1652 48.8518 40.585 45.6583 40.585C42.4648 40.585 39.876 43.1652 39.876 46.348C39.876 49.5308 42.4648 52.111 45.6583 52.111Z" fill="url(#paint6_linear)"/>
<path opacity="0.2" d="M82.4088 77.8165C83.0652 77.8165 83.6058 77.2856 83.6058 76.6195V54.9961H60.2158V76.6195C60.2158 77.2759 60.7468 77.8165 61.4128 77.8165H82.4088Z" fill="#1F1D21"/>
<path d="M83.6058 54.6289V54.262C83.6058 53.8083 83.239 53.4512 82.7949 53.4512H61.0267C60.573 53.4512 60.2158 53.818 60.2158 54.262V54.6675V55.0343V75.8565C60.2158 76.3102 60.5826 76.6674 61.0267 76.6674H82.7949C83.2486 76.6674 83.6058 76.3005 83.6058 75.8565V54.6675C83.6058 54.6578 83.6058 54.6385 83.6058 54.6289Z" fill="white"/>
<path d="M75.0725 62.9014L70.101 65.8071L64.8689 59.9861C64.4828 59.5614 64.7917 58.876 65.3613 58.876H75.0628L75.0725 62.9014Z" fill="url(#paint7_linear)"/>
<path d="M77.833 62.0521L75.0335 58.8955L64.8397 70.2864C64.4921 70.6725 64.7721 71.2807 65.2837 71.2807H69.5408L77.833 62.0521Z" fill="url(#paint8_linear)"/>
<path d="M80.1879 64.6973L77.8035 62.0137L69.3955 71.2808H74.8207C74.9365 71.2808 75.0427 71.2326 75.1199 71.1457L80.1879 65.624C80.4196 65.3634 80.4292 64.9579 80.1879 64.6973Z" fill="url(#paint9_linear)"/>
<defs>
<linearGradient id="paint0_linear" x1="49.769" y1="-13.7477" x2="53.752" y2="132.021" gradientUnits="userSpaceOnUse">
<stop stop-color="#00ABDE"/>
<stop offset="1" stop-color="#007ED8"/>
</linearGradient>
<linearGradient id="paint1_linear" x1="51.539" y1="-2.44638" x2="51.539" y2="99.3173" gradientUnits="userSpaceOnUse">
<stop stop-color="#007ED8"/>
<stop offset="0.7065" stop-color="#002D4C"/>
</linearGradient>
<linearGradient id="paint2_linear" x1="48.554" y1="36.8726" x2="52.2354" y2="54.4618" gradientUnits="userSpaceOnUse">
<stop offset="0.045" stop-color="#58D570"/>
<stop offset="0.9625" stop-color="#088D30"/>
</linearGradient>
<linearGradient id="paint3_linear" x1="31.5037" y1="36.0093" x2="43.9389" y2="49.508" gradientUnits="userSpaceOnUse">
<stop offset="0.0625" stop-color="#0D8851"/>
<stop offset="0.4775" stop-color="#0A6339"/>
<stop offset="0.8775" stop-color="#043D1F"/>
</linearGradient>
<linearGradient id="paint4_linear" x1="35.3544" y1="36.7723" x2="45.0081" y2="50.0256" gradientUnits="userSpaceOnUse">
<stop stop-color="#0A904E"/>
<stop offset="0.4325" stop-color="#088748"/>
<stop offset="0.8575" stop-color="#02632E"/>
<stop offset="0.9775" stop-color="#024D24"/>
</linearGradient>
<linearGradient id="paint5_linear" x1="48.5907" y1="37.8264" x2="49.0816" y2="53.6976" gradientUnits="userSpaceOnUse">
<stop stop-color="#0A904E"/>
<stop offset="0.4125" stop-color="#037737"/>
<stop offset="0.8425" stop-color="#01622B"/>
<stop offset="1" stop-color="#00210F"/>
</linearGradient>
<linearGradient id="paint6_linear" x1="41.9924" y1="40.8216" x2="49.928" y2="52.7659" gradientUnits="userSpaceOnUse">
<stop offset="0.0925" stop-color="#A3E6A4"/>
<stop offset="0.9075" stop-color="#6AE66F"/>
</linearGradient>
<linearGradient id="paint7_linear" x1="65.3493" y1="55.5326" x2="76.6612" y2="66.1757" gradientUnits="userSpaceOnUse">
<stop offset="0.4598" stop-color="#1152D4"/>
<stop offset="0.6156" stop-color="#0D3FB3"/>
</linearGradient>
<linearGradient id="paint8_linear" x1="64.6797" y1="65.0853" x2="77.8299" y2="65.0853" gradientUnits="userSpaceOnUse">
<stop stop-color="#388CF4"/>
<stop offset="1" stop-color="#2C7CEF"/>
</linearGradient>
<linearGradient id="paint9_linear" x1="69.3947" y1="66.6427" x2="80.3669" y2="66.6427" gradientUnits="userSpaceOnUse">
<stop stop-color="#76C0FD"/>
<stop offset="1" stop-color="#63B2FB"/>
</linearGradient>
</defs>
</svg>
