<svg width="100" height="100" viewBox="0 0 100 100" fill="none" xmlns="http://www.w3.org/2000/svg">
<g clip-path="url(#clip0)">
<path d="M49.6401 96.4501C40.382 96.4501 31.3317 93.7047 23.6339 88.5612C15.936 83.4176 9.93624 76.1069 6.3933 67.5535C2.85036 59.0001 1.92337 49.5882 3.72954 40.5079C5.53571 31.4277 9.99394 23.0869 16.5404 16.5404C23.0869 9.99393 31.4277 5.53571 40.5079 3.72954C49.5882 1.92337 59.0001 2.85036 67.5535 6.3933C76.1069 9.93624 83.4176 15.936 88.5612 23.6339C93.7047 31.3317 96.4501 40.382 96.4501 49.6401C96.4505 55.7874 95.24 61.8746 92.8878 67.554C90.5355 73.2335 87.0875 78.3939 82.7407 82.7407C78.3939 87.0875 73.2335 90.5355 67.554 92.8878C61.8746 95.24 55.7874 96.4505 49.6401 96.4501V96.4501Z" fill="url(#paint0_linear)"/>
<path fill-rule="evenodd" clip-rule="evenodd" d="M95.54 49.64C95.54 58.7182 92.848 67.5925 87.8045 75.1407C82.7609 82.6889 75.5923 88.572 67.2052 92.0461C58.818 95.5201 49.5891 96.4291 40.6854 94.658C31.7816 92.887 23.603 88.5154 17.1838 82.0962C10.7646 75.677 6.39302 67.4984 4.62196 58.5946C2.85089 49.6909 3.75987 40.462 7.23393 32.0748C10.708 23.6877 16.5911 16.5191 24.1393 11.4755C31.6875 6.43199 40.5618 3.74 49.64 3.74C55.6677 3.73998 61.6363 4.9272 67.2052 7.23388C72.774 9.54057 77.834 12.9215 82.0963 17.1837C86.3585 21.446 89.7394 26.5059 92.0461 32.0748C94.3528 37.6437 95.54 43.6123 95.54 49.64V49.64ZM49.64 3.62732e-07C59.4579 3.62732e-07 69.0553 2.91134 77.2185 8.36585C85.3818 13.8204 91.7442 21.5731 95.5014 30.6436C99.2585 39.7141 100.242 49.6951 98.3262 59.3243C96.4108 68.9535 91.6831 77.7985 84.7408 84.7408C77.7985 91.6831 68.9535 96.4108 59.3243 98.3262C49.6951 100.242 39.7141 99.2585 30.6436 95.5014C21.5731 91.7442 13.8204 85.3818 8.36585 77.2185C2.91134 69.0553 3.62732e-07 59.4579 3.62732e-07 49.64C-0.000787738 43.121 1.28265 36.6656 3.77702 30.6427C6.27138 24.6197 9.9278 19.1471 14.5375 14.5375C19.1471 9.9278 24.6197 6.27138 30.6427 3.77702C36.6656 1.28265 43.121 -0.000787738 49.64 3.62732e-07V3.62732e-07Z" fill="#F2F1F0"/>
<path fill-rule="evenodd" clip-rule="evenodd" d="M92.7296 49.6406C92.7296 58.163 90.2024 66.494 85.4676 73.5801C80.7328 80.6662 74.0031 86.1892 66.1294 89.4505C58.2557 92.7119 49.5918 93.5653 41.2331 91.9026C32.8745 90.24 25.1966 86.1361 19.1703 80.1098C13.1441 74.0836 9.04017 66.4057 7.37753 58.047C5.7149 49.6884 6.56822 41.0244 9.8296 33.1507C13.091 25.2771 18.6139 18.5473 25.7 13.8126C32.7862 9.07776 41.1172 6.55058 49.6396 6.55058C55.2983 6.55023 60.9017 7.66455 66.1298 9.82991C71.3579 11.9953 76.1082 15.1692 80.1096 19.1706C84.1109 23.1719 87.2849 27.9223 89.4502 33.1503C91.6156 38.3784 92.7299 43.9818 92.7296 49.6406V49.6406ZM49.6396 2.81058C58.9017 2.81058 67.9558 5.55711 75.6569 10.7029C83.3581 15.8486 89.3604 23.1624 92.9049 31.7195C96.4493 40.2766 97.3767 49.6925 95.5697 58.7767C93.7628 67.8608 89.3027 76.2051 82.7534 82.7544C76.2041 89.3037 67.8598 93.7638 58.7757 95.5708C49.6915 97.3777 40.2756 96.4503 31.7185 92.9059C23.1614 89.3614 15.8476 83.3591 10.7018 75.6579C5.5561 67.9568 2.80957 58.9027 2.80957 49.6406C2.81076 37.2209 7.745 25.3101 16.5271 16.5281C25.3091 7.74599 37.2198 2.81174 49.6396 2.81055V2.81058Z" fill="#0078D4"/>
<path fill-rule="evenodd" clip-rule="evenodd" d="M92.7296 49.6405C92.7296 58.1629 90.2024 66.494 85.4676 73.5801C80.7328 80.6662 74.0031 86.1891 66.1294 89.4505C58.2557 92.7119 49.5918 93.5652 41.2331 91.9026C32.8745 90.24 25.1966 86.136 19.1703 80.1098C13.1441 74.0835 9.04017 66.4056 7.37753 58.047C5.7149 49.6883 6.56822 41.0244 9.8296 33.1507C13.091 25.277 18.6139 18.5473 25.7001 13.8125C32.7862 9.07773 41.1172 6.55055 49.6396 6.55055C55.2983 6.5502 60.9017 7.66452 66.1298 9.82988C71.3579 11.9952 76.1082 15.1692 80.1096 19.1705C84.1109 23.1719 87.2849 27.9222 89.4502 33.1503C91.6156 38.3784 92.7299 43.9818 92.7296 49.6405V49.6405ZM49.6396 2.81055C58.9017 2.81055 67.9558 5.55708 75.6569 10.7028C83.3581 15.8486 89.3604 23.1624 92.9048 31.7195C96.4493 40.2765 97.3767 49.6925 95.5697 58.7766C93.7628 67.8608 89.3027 76.2051 82.7534 82.7544C76.2041 89.3036 67.8598 93.7638 58.7757 95.5707C49.6915 97.3777 40.2756 96.4503 31.7185 92.9058C23.1614 89.3614 15.8476 83.3591 10.7018 75.6579C5.5561 67.9568 2.80957 58.9026 2.80957 49.6405C2.81076 37.2208 7.74501 25.3101 16.5271 16.5281C25.3091 7.74599 37.2198 2.81174 49.6396 2.81055V2.81055Z" fill="#0078D4"/>
<path opacity="0.2" d="M25.6161 73.4205H73.6544C73.9067 73.4197 74.1486 73.3191 74.3271 73.1407C74.5055 72.9622 74.6061 72.7204 74.6069 72.468V34.9629H24.6636V72.468C24.6643 72.7204 24.7649 72.9622 24.9434 73.1407C25.1218 73.3191 25.3637 73.4197 25.6161 73.4205V73.4205Z" fill="#003067"/>
<path d="M25.6161 71.4595H73.6544C73.9067 71.4588 74.1486 71.3582 74.3271 71.1797C74.5055 71.0013 74.6061 70.7594 74.6069 70.507V33.002H24.6636V70.507C24.6643 70.7594 24.7649 71.0013 24.9434 71.1797C25.1218 71.3582 25.3637 71.4588 25.6161 71.4595V71.4595Z" fill="#F2F2F2"/>
<path d="M24.6636 37.1543H74.6068V32.6775C74.6071 32.5816 74.5884 32.4865 74.5518 32.3978C74.5152 32.3091 74.4614 32.2285 74.3935 32.1606C74.3257 32.0927 74.245 32.039 74.1563 32.0023C74.0676 31.9657 73.9725 31.947 73.8766 31.9473H25.3938C25.2979 31.947 25.2028 31.9657 25.1141 32.0023C25.0254 32.039 24.9448 32.0927 24.8769 32.1606C24.809 32.2285 24.7553 32.3091 24.7186 32.3978C24.682 32.4865 24.6633 32.5816 24.6636 32.6775L24.6636 37.1543Z" fill="#092E4C"/>
<path d="M28.5059 35.9227C28.7563 35.9219 29.0008 35.8469 29.2086 35.7072C29.4164 35.5674 29.578 35.3692 29.6731 35.1375C29.7682 34.9059 29.7925 34.6512 29.7429 34.4058C29.6933 34.1604 29.572 33.9352 29.3944 33.7586C29.2167 33.5821 28.9908 33.4623 28.745 33.4142C28.4993 33.3661 28.2448 33.392 28.0138 33.4885C27.7827 33.5851 27.5855 33.748 27.447 33.9566C27.3086 34.1652 27.2351 34.4102 27.2359 34.6606C27.2345 34.8274 27.2665 34.9928 27.3299 35.1471C27.3934 35.3013 27.487 35.4413 27.6053 35.5589C27.7236 35.6765 27.8642 35.7692 28.0189 35.8317C28.1735 35.8942 28.3391 35.9251 28.5059 35.9227Z" fill="#50E6FF"/>
<path d="M70.1798 40.377H29.0811C28.5396 40.377 28.1006 40.8159 28.1006 41.3574V66.9062C28.1006 67.4477 28.5396 67.8867 29.0811 67.8867H70.1798C70.7213 67.8867 71.1603 67.4477 71.1603 66.9062V41.3574C71.1603 40.8159 70.7213 40.377 70.1798 40.377Z" fill="#E8E8E8"/>
<path opacity="0.2" d="M38.4966 31.9473C39.1221 34.4287 40.5579 36.6303 42.5765 38.2032C44.595 39.7762 47.0809 40.6303 49.6399 40.6303C52.1989 40.6303 54.6848 39.7762 56.7033 38.2032C58.7219 36.6303 60.1577 34.4287 60.7832 31.9473H38.4966Z" fill="#767676"/>
<path d="M61.4706 56.4609H37.981C37.2706 56.4609 36.6948 57.0368 36.6948 57.7471V65.1399C36.6948 65.8502 37.2706 66.426 37.981 66.426H61.4706C62.181 66.426 62.7568 65.8502 62.7568 65.1399V57.7471C62.7568 57.0368 62.181 56.4609 61.4706 56.4609Z" fill="#F2F2F2"/>
<path d="M43.8035 58.459H39.1206C38.7654 58.459 38.4775 58.7469 38.4775 59.1021V63.785C38.4775 64.1401 38.7654 64.4281 39.1206 64.4281H43.8035C44.1587 64.4281 44.4466 64.1401 44.4466 63.785V59.1021C44.4466 58.7469 44.1587 58.459 43.8035 58.459Z" fill="white"/>
<path d="M41.4625 63.0451C42.3465 63.0451 43.0632 62.3285 43.0632 61.4444C43.0632 60.5604 42.3465 59.8438 41.4625 59.8438C40.5785 59.8438 39.8618 60.5604 39.8618 61.4444C39.8618 62.3285 40.5785 63.0451 41.4625 63.0451Z" fill="#F2F2F2"/>
<path d="M46.6191 59.8438H57.7552" stroke="#E8E8E8" stroke-width="0.64307" stroke-miterlimit="10" stroke-linecap="round"/>
<path d="M46.6191 61.4434H58.9436" stroke="#E8E8E8" stroke-width="0.64307" stroke-miterlimit="10" stroke-linecap="round"/>
<path d="M46.6191 63.0449H56.2146" stroke="#E8E8E8" stroke-width="0.64307" stroke-miterlimit="10" stroke-linecap="round"/>
<path opacity="0.2" d="M73.1064 46.4664H78.6672C78.8806 46.4664 79.0852 46.3817 79.236 46.2309C79.3869 46.08 79.4716 45.8754 79.4717 45.6621V40.1012C79.4716 39.8879 79.3869 39.6833 79.236 39.5324C79.0852 39.3816 78.8806 39.2969 78.6672 39.2969H73.1064C73.0008 39.2969 72.8962 39.3177 72.7986 39.3581C72.701 39.3985 72.6123 39.4577 72.5376 39.5324C72.4629 39.6071 72.4037 39.6958 72.3632 39.7934C72.3228 39.891 72.302 39.9956 72.302 40.1012V42.4793H69.6702C69.5635 42.4794 69.4612 42.5218 69.3858 42.5973C69.3103 42.6727 69.2679 42.775 69.2678 42.8817V49.1346H66.0245V44.9136C66.0245 44.4869 65.8551 44.0778 65.5534 43.7761C65.2517 43.4744 64.8425 43.3049 64.4159 43.3049H35.0354C34.6088 43.3049 34.1996 43.4744 33.8979 43.7761C33.5962 44.0778 33.4268 44.4869 33.4268 44.9136V54.1604C33.4268 54.3717 33.4684 54.5809 33.5492 54.776C33.63 54.9712 33.7485 55.1486 33.8979 55.2979C34.0473 55.4473 34.2246 55.5658 34.4198 55.6467C34.615 55.7275 34.8241 55.7691 35.0354 55.7691H64.4159C64.6271 55.7691 64.8363 55.7275 65.0315 55.6467C65.2267 55.5658 65.404 55.4473 65.5534 55.2979C65.7028 55.1486 65.8213 54.9712 65.9021 54.776C65.9829 54.5809 66.0245 54.3717 66.0245 54.1604V49.9393H69.2678V56.1927C69.2679 56.2994 69.3104 56.4017 69.3858 56.4771C69.4612 56.5525 69.5635 56.5949 69.6702 56.595H72.302V58.973C72.302 59.0786 72.3228 59.1832 72.3633 59.2808C72.4037 59.3784 72.4629 59.4671 72.5376 59.5417C72.6123 59.6164 72.701 59.6757 72.7986 59.7161C72.8962 59.7565 73.0008 59.7773 73.1065 59.7773H78.6672C78.8806 59.7773 79.0852 59.6926 79.236 59.5417C79.3869 59.3909 79.4716 59.1863 79.4717 58.973V53.4121C79.4717 53.1988 79.3869 52.9942 79.236 52.8433C79.0852 52.6925 78.8806 52.6077 78.6672 52.6077H73.1064C73.0008 52.6077 72.8962 52.6285 72.7986 52.6689C72.701 52.7094 72.6123 52.7686 72.5376 52.8433C72.4629 52.918 72.4037 53.0067 72.3632 53.1043C72.3228 53.2019 72.302 53.3065 72.302 53.4121V55.7903H70.0725V43.284H72.302V45.6621C72.302 45.7677 72.3228 45.8723 72.3632 45.9699C72.4037 46.0675 72.4629 46.1562 72.5376 46.2309C72.6123 46.3056 72.701 46.3648 72.7986 46.4052C72.8962 46.4456 73.0008 46.4664 73.1064 46.4664Z" fill="#767676"/>
<path d="M64.4159 42.5273H35.0354C34.147 42.5273 33.4268 43.2476 33.4268 44.136V53.3828C33.4268 54.2713 34.147 54.9915 35.0354 54.9915H64.4159C65.3044 54.9915 66.0246 54.2713 66.0246 53.3828V44.136C66.0246 43.2476 65.3044 42.5273 64.4159 42.5273Z" fill="white"/>
<path d="M42.3184 45.0273H36.4611C36.0169 45.0273 35.6567 45.3875 35.6567 45.8317V51.689C35.6567 52.1332 36.0169 52.4934 36.4611 52.4934H42.3184C42.7626 52.4934 43.1228 52.1332 43.1228 51.689V45.8317C43.1228 45.3875 42.7626 45.0273 42.3184 45.0273Z" fill="#0078D4"/>
<path d="M39.3898 50.762C40.4955 50.762 41.3919 49.8657 41.3919 48.7599C41.3919 47.6542 40.4955 46.7578 39.3898 46.7578C38.2841 46.7578 37.3877 47.6542 37.3877 48.7599C37.3877 49.8657 38.2841 50.762 39.3898 50.762Z" fill="white"/>
<path d="M45.8398 46.7578H59.7686" stroke="#E8E8E8" stroke-width="0.80434" stroke-miterlimit="10" stroke-linecap="round"/>
<path d="M45.8398 48.7598H61.2551" stroke="#E8E8E8" stroke-width="0.80434" stroke-miterlimit="10" stroke-linecap="round"/>
<path d="M45.8398 50.7617H57.8417" stroke="#E8E8E8" stroke-width="0.80434" stroke-miterlimit="10" stroke-linecap="round"/>
<path d="M66.0249 48.7595H69.6699V42.1035H72.7379" stroke="white" stroke-width="0.80434" stroke-linecap="round" stroke-linejoin="round"/>
<path d="M66.0249 48.7598H69.6699V55.4148H72.7379" stroke="white" stroke-width="0.80434" stroke-linecap="round" stroke-linejoin="round"/>
<path d="M78.6674 38.5195H73.1066C72.6624 38.5195 72.3022 38.8796 72.3022 39.3239V44.8847C72.3022 45.329 72.6624 45.6891 73.1066 45.6891H78.6674C79.1117 45.6891 79.4718 45.329 79.4718 44.8847V39.3239C79.4718 38.8796 79.1117 38.5195 78.6674 38.5195Z" fill="white"/>
<path d="M78.6674 51.8301H73.1066C72.6624 51.8301 72.3022 52.1902 72.3022 52.6344V58.1953C72.3022 58.6395 72.6624 58.9996 73.1066 58.9996H78.6674C79.1117 58.9996 79.4718 58.6395 79.4718 58.1953V52.6344C79.4718 52.1902 79.1117 51.8301 78.6674 51.8301Z" fill="white"/>
<path d="M75.887 43.8903C76.8734 43.8903 77.673 43.0907 77.673 42.1043C77.673 41.118 76.8734 40.3184 75.887 40.3184C74.9007 40.3184 74.1011 41.118 74.1011 42.1043C74.1011 43.0907 74.9007 43.8903 75.887 43.8903Z" fill="#0078D4"/>
<path d="M75.887 57.2008C76.8734 57.2008 77.673 56.4012 77.673 55.4149C77.673 54.4285 76.8734 53.6289 75.887 53.6289C74.9007 53.6289 74.1011 54.4285 74.1011 55.4149C74.1011 56.4012 74.9007 57.2008 75.887 57.2008Z" fill="#E8E8E8"/>
<path d="M49.6402 38.631C54.8918 38.631 59.149 34.3737 59.149 29.1221C59.149 23.8705 54.8918 19.6133 49.6402 19.6133C44.3886 19.6133 40.1313 23.8705 40.1313 29.1221C40.1313 34.3737 44.3886 38.631 49.6402 38.631Z" fill="white"/>
<path d="M54.8772 32.3585C54.7577 32.3582 54.6403 32.3274 54.5362 32.2689C54.4321 32.2104 54.3447 32.1262 54.2823 32.0243C54.2199 31.9224 54.1847 31.8063 54.18 31.687C54.1752 31.5676 54.2011 31.449 54.2552 31.3426C54.6566 30.5516 54.8392 29.6676 54.7839 28.7823C54.7287 27.897 54.4377 27.0426 53.9412 26.3076C53.4446 25.5726 52.7605 24.9838 51.9597 24.6022C51.159 24.2207 50.2708 24.0602 49.3871 24.1374C49.2027 24.1531 49.0196 24.095 48.878 23.9759C48.7364 23.8568 48.6478 23.6864 48.6316 23.5021C48.6154 23.3177 48.673 23.1345 48.7917 22.9926C48.9104 22.8506 49.0806 22.7615 49.2649 22.7449C50.3969 22.646 51.5348 22.8517 52.5607 23.3406C53.5865 23.8296 54.4628 24.584 55.0989 25.5256C55.7351 26.4673 56.1077 27.5619 56.1784 28.6961C56.2491 29.8303 56.0151 30.9627 55.5008 31.9761C55.4423 32.0912 55.3531 32.1879 55.243 32.2554C55.1329 32.3229 55.0063 32.3586 54.8772 32.3585Z" fill="#0078D4"/>
<path d="M49.8083 35.4624C48.7805 35.46 47.7685 35.209 46.8586 34.7309C45.9487 34.2528 45.168 33.5618 44.583 32.7167C43.9979 31.8717 43.6259 30.8976 43.4987 29.8777C43.3715 28.8578 43.4928 27.8223 43.8524 26.8594C43.8844 26.7733 43.9331 26.6943 43.9956 26.6271C44.0582 26.5598 44.1334 26.5055 44.217 26.4674C44.3005 26.4292 44.3908 26.4079 44.4826 26.4047C44.5744 26.4015 44.6659 26.4164 44.752 26.4486C44.838 26.4808 44.9168 26.5297 44.984 26.5924C45.0511 26.6551 45.1052 26.7305 45.1431 26.8141C45.1811 26.8978 45.2022 26.9881 45.2052 27.0799C45.2082 27.1717 45.1931 27.2632 45.1607 27.3492C44.8668 28.1359 44.7768 28.9842 44.8993 29.8151C45.0217 30.646 45.3525 31.4323 45.8609 32.1008C46.3692 32.7693 47.0386 33.2982 47.8066 33.6382C48.5745 33.9781 49.416 34.1181 50.2527 34.0451C50.4369 34.0313 50.6192 34.0901 50.7607 34.2088C50.9022 34.3275 50.9917 34.4969 51.0101 34.6807C51.0262 34.8653 50.9683 35.0487 50.8492 35.1907C50.7301 35.3326 50.5595 35.4215 50.3749 35.4377C50.1849 35.4541 49.9966 35.4624 49.8083 35.4624Z" fill="#0078D4"/>
<path d="M42.3541 26.321L45.5337 24.4792C45.5802 24.4522 45.6326 24.4368 45.6863 24.434C45.74 24.4313 45.7937 24.4414 45.8427 24.4635C45.8918 24.4856 45.9349 24.5191 45.9684 24.5612C46.002 24.6033 46.025 24.6527 46.0357 24.7055L46.757 28.2827C46.7693 28.3437 46.7645 28.4068 46.7433 28.4653C46.7221 28.5238 46.6852 28.5753 46.6367 28.6141C46.5882 28.653 46.5299 28.6778 46.4682 28.6858C46.4065 28.6937 46.3439 28.6846 46.287 28.6593L42.3862 26.9238C42.3291 26.8985 42.2802 26.8578 42.2448 26.8063C42.2093 26.7549 42.1889 26.6946 42.1855 26.6323C42.1822 26.5699 42.1962 26.5078 42.226 26.4529C42.2557 26.398 42.3 26.3523 42.3541 26.321V26.321Z" fill="#0078D4"/>
<path d="M56.798 32.7118L53.4177 34.1524C53.3682 34.1735 53.3144 34.1825 53.2607 34.1787C53.207 34.1748 53.155 34.1583 53.109 34.1303C53.063 34.1024 53.0243 34.0639 52.9962 34.0181C52.968 33.9722 52.9511 33.9203 52.947 33.8667L52.667 30.2281C52.6622 30.1661 52.6746 30.104 52.7028 30.0486C52.731 29.9932 52.7739 29.9465 52.8268 29.9139C52.8797 29.8812 52.9406 29.8637 53.0027 29.8633C53.0649 29.8629 53.126 29.8796 53.1793 29.9116L56.8396 32.1096C56.8932 32.1417 56.9368 32.1881 56.9657 32.2434C56.9945 32.2988 57.0075 32.3611 57.0032 32.4234C56.9989 32.4857 56.9775 32.5456 56.9413 32.5965C56.9051 32.6474 56.8555 32.6873 56.798 32.7118V32.7118Z" fill="#0078D4"/>
</g>
<defs>
<linearGradient id="paint0_linear" x1="47.8698" y1="-15.153" x2="51.8525" y2="130.615" gradientUnits="userSpaceOnUse">
<stop stop-color="#00ABDE"/>
<stop offset="1" stop-color="#007ED8"/>
</linearGradient>
<clipPath id="clip0">
<rect width="99.2799" height="99.28" fill="white"/>
</clipPath>
</defs>
</svg>
