<svg width="102" height="102" viewBox="0 0 102 102" fill="none" xmlns="http://www.w3.org/2000/svg">
<path d="M51.0004 97.8104C25.1504 97.8104 4.19043 76.8604 4.19043 51.0004C4.19043 25.1404 25.1504 4.19043 51.0004 4.19043C76.8504 4.19043 97.8104 25.1504 97.8104 51.0004C97.8104 76.8504 76.8504 97.8104 51.0004 97.8104Z" fill="url(#paint0_linear)"/>
<path fill-rule="evenodd" clip-rule="evenodd" d="M96.9004 51.0004C96.9004 76.3504 76.3504 96.9004 51.0004 96.9004C25.6504 96.9004 5.10035 76.3504 5.10035 51.0004C5.10035 25.6504 25.6504 5.10035 51.0004 5.10035C76.3504 5.10035 96.9004 25.6504 96.9004 51.0004ZM51.0004 1.36035C78.4204 1.36035 100.64 23.5804 100.64 51.0004C100.64 78.4204 78.4104 100.64 51.0004 100.64C23.5804 100.64 1.36035 78.4104 1.36035 51.0004C1.36035 23.5804 23.5804 1.36035 51.0004 1.36035Z" fill="#F2F1F0"/>
<path fill-rule="evenodd" clip-rule="evenodd" d="M94.0899 50.9999C94.0899 74.7999 74.7999 94.0899 50.9999 94.0899C27.1999 94.0899 7.90992 74.7999 7.90992 50.9999C7.90992 27.1999 27.1999 7.90992 50.9999 7.90992C74.7999 7.90992 94.0899 27.1999 94.0899 50.9999ZM50.9999 4.16992C76.8599 4.16992 97.8299 25.1399 97.8299 50.9999C97.8299 76.8599 76.8599 97.8299 50.9999 97.8299C25.1399 97.8299 4.16992 76.8599 4.16992 50.9999C4.16992 25.1399 25.1299 4.16992 50.9999 4.16992Z" fill="url(#paint1_linear)"/>
<path opacity="0.15" fill-rule="evenodd" clip-rule="evenodd" d="M36.3006 87.9306C33.6106 87.9306 31.3906 85.7206 31.3906 83.0106V22.3106C31.3906 19.6006 33.6006 17.3906 36.3006 17.3906H64.7906C67.4806 17.3906 69.7006 19.6006 69.7006 22.3106V83.0006C69.7006 85.7106 67.4906 87.9206 64.7906 87.9206H36.3006V87.9306Z" fill="#1F1D20"/>
<path fill-rule="evenodd" clip-rule="evenodd" d="M36.3006 85.3103C33.6106 85.3103 31.3906 83.1003 31.3906 80.3903V19.7003C31.3906 16.9903 33.6006 14.7803 36.3006 14.7803H64.7906C67.4806 14.7803 69.7006 16.9903 69.7006 19.7003V80.3903C69.7006 83.1003 67.4906 85.3103 64.7906 85.3103H36.3006Z" fill="#454C50"/>
<path fill-rule="evenodd" clip-rule="evenodd" d="M46.3105 81.4006H54.8105V78.5605H46.3105V81.4006Z" fill="#505659"/>
<path fill-rule="evenodd" clip-rule="evenodd" d="M51.9704 20.0999C51.9704 20.8799 51.3404 21.5099 50.5604 21.5099C49.7804 21.5099 49.1504 20.8799 49.1504 20.0999C49.1504 19.3199 49.7904 18.6699 50.5604 18.6699C51.3504 18.6899 51.9704 19.3199 51.9704 20.0999Z" fill="#505659"/>
<path fill-rule="evenodd" clip-rule="evenodd" d="M34.1709 74.6504H66.9109V25.4404H34.1709V74.6504Z" fill="#D3D2D3"/>
<path opacity="0.15" d="M56.7899 61.0296C60.0599 62.9896 60.0599 66.0396 56.7899 68.0096C53.5199 69.9696 48.2899 69.9696 44.8099 68.0096C41.5399 66.0496 41.5399 62.9996 44.8099 61.0296C48.2999 59.0696 53.5199 59.0696 56.7899 61.0296Z" fill="#1F1D20"/>
<path d="M57.72 42.8095V38.4795H43.65V42.8795C43.65 43.0495 43.58 43.2095 43.46 43.3295C42.27 44.5295 41.54 46.1895 41.54 48.0095V51.1395L51.38 58.4795L59.82 51.1395V47.8395C59.82 46.0295 59.08 44.3995 57.89 43.2195C57.78 43.1195 57.72 42.9695 57.72 42.8095Z" fill="url(#paint2_linear)"/>
<path d="M59.83 52.9502H41.54V62.4602C41.54 62.6702 41.56 62.8802 41.59 63.0902C41.58 64.4402 42.46 65.8102 44.24 66.8702C48 68.9902 53.64 68.9902 57.17 66.8702C59.04 65.7502 59.91 64.2902 59.81 62.8602C59.83 62.7302 59.83 62.5902 59.83 62.4602V52.9502Z" fill="url(#paint3_linear)"/>
<path d="M59.8201 47.1998C59.8901 47.1398 60.0101 47.1898 60.0101 47.2898V61.0798C60.0101 62.3498 59.1001 63.8198 57.2701 64.9098C55.5401 65.8598 53.3301 66.0897 51.0901 66.1397C48.5801 66.1997 46.0401 65.9698 44.1101 64.9098C43.2001 64.3598 42.4601 63.8097 42.1001 63.2597C41.7401 62.8997 41.3701 62.1598 41.3701 61.6098V47.4397C41.3701 47.3197 41.5101 47.2497 41.6001 47.3197C41.9301 47.5897 42.6501 48.0997 44.1101 48.7797C46.6601 49.8297 48.4401 50.0098 50.8401 50.0398C53.0401 50.0598 55.5601 49.7098 57.3001 48.7498C58.7301 48.0198 59.5001 47.4798 59.8201 47.1998Z" fill="white"/>
<path opacity="0.5" d="M57.28 51.4899C56.56 51.8899 55.7 52.1799 54.79 52.3799V63.5299C55.68 63.3499 56.5 63.0799 57.24 62.6699C57.68 62.3999 58.08 62.0499 58.4 61.6299V50.8799C58.09 51.0699 57.73 51.2699 57.28 51.4899Z" fill="black"/>
<path d="M58.6204 35.7299L58.6604 38.4699C58.6604 39.5699 57.8804 40.8199 56.3104 41.7499C53.1804 43.4699 48.1704 43.4699 45.0404 41.7499C44.2604 41.2799 43.6304 40.8099 43.3204 40.3399C43.0104 40.0299 42.6904 39.3999 42.6904 38.9299L42.7504 35.6799C42.7504 35.6799 43.4704 36.0499 45.0304 36.9899C44.6904 36.7999 55.9204 33.9499 55.5804 34.1399C57.1704 33.1999 58.6204 36.8199 58.6204 35.7299Z" fill="#E6E6E6"/>
<path d="M56.3305 32.5997C59.4105 34.4497 59.4105 37.3197 56.3305 39.1697C53.2505 41.0197 48.3305 41.0197 45.0405 39.1697C41.9605 37.3197 41.9605 34.4497 45.0405 32.5997C48.3205 30.7597 53.2505 30.7597 56.3305 32.5997Z" fill="white"/>
<path d="M53.1405 34.63C54.4905 35.44 54.4905 36.69 53.1405 37.49C51.7905 38.3 49.6505 38.3 48.2205 37.49C46.8705 36.68 46.8705 35.43 48.2205 34.63C49.6505 33.82 51.8005 33.82 53.1405 34.63Z" fill="url(#paint4_linear)"/>
<defs>
<linearGradient id="paint0_linear" x1="49.2305" y1="-13.7892" x2="53.2125" y2="131.981" gradientUnits="userSpaceOnUse">
<stop stop-color="#00ABDE"/>
<stop offset="1" stop-color="#007ED8"/>
</linearGradient>
<linearGradient id="paint1_linear" x1="2.43262" y1="-20.6246" x2="97.9596" y2="120.257" gradientUnits="userSpaceOnUse">
<stop stop-color="#007ED8"/>
<stop offset="0.7065" stop-color="#002D4C"/>
</linearGradient>
<linearGradient id="paint2_linear" x1="50.5194" y1="28.5503" x2="50.8949" y2="76.2302" gradientUnits="userSpaceOnUse">
<stop stop-color="#4DC2EB"/>
<stop offset="0.585" stop-color="#0078D4"/>
</linearGradient>
<linearGradient id="paint3_linear" x1="50.5969" y1="55.6083" x2="51.4753" y2="77.0654" gradientUnits="userSpaceOnUse">
<stop stop-color="#4DC2EB"/>
<stop offset="0.585" stop-color="#0078D4"/>
</linearGradient>
<linearGradient id="paint4_linear" x1="48.631" y1="30.3752" x2="54.4398" y2="46.4863" gradientUnits="userSpaceOnUse">
<stop stop-color="#4DC2EB"/>
<stop offset="0.585" stop-color="#0078D4"/>
</linearGradient>
</defs>
</svg>
