<svg width="103" height="103" viewBox="0 0 103 103" fill="none" xmlns="http://www.w3.org/2000/svg">
<path d="M51.8325 98.7172C25.9825 98.7172 5.02246 77.7672 5.02246 51.9072C5.02246 26.0472 25.9825 5.09723 51.8325 5.09723C77.6825 5.09723 98.6425 26.0572 98.6425 51.9072C98.6425 77.7572 77.6825 98.7172 51.8325 98.7172Z" fill="url(#paint0_linear_109_52)"/>
<path fill-rule="evenodd" clip-rule="evenodd" d="M97.7324 51.9072C97.7324 77.2572 77.1824 97.8072 51.8324 97.8072C26.4824 97.8072 5.93238 77.2572 5.93238 51.9072C5.93238 26.5572 26.4824 6.00723 51.8324 6.00723C77.1824 6.00723 97.7324 26.5572 97.7324 51.9072ZM51.8324 2.26723C79.2524 2.26723 101.472 24.4872 101.472 51.9072C101.472 79.3272 79.2424 101.547 51.8324 101.547C24.4124 101.547 2.19238 79.3172 2.19238 51.9072C2.19238 24.4872 24.4124 2.26723 51.8324 2.26723Z" fill="#F2F1F0"/>
<path fill-rule="evenodd" clip-rule="evenodd" d="M94.922 51.9072C94.922 75.7072 75.632 94.9972 51.832 94.9972C28.032 94.9972 8.74195 75.7072 8.74195 51.9072C8.74195 28.1072 28.032 8.81723 51.832 8.81723C75.632 8.81723 94.922 28.1072 94.922 51.9072ZM51.832 5.07722C77.692 5.07722 98.662 26.0472 98.662 51.9072C98.662 77.7672 77.692 98.7372 51.832 98.7372C25.972 98.7372 5.00195 77.7672 5.00195 51.9072C5.00195 26.0472 25.962 5.07722 51.832 5.07722Z" fill="url(#paint1_linear_109_52)"/>
<g opacity="0.2">
<path opacity="0.2" d="M20.2621 33.541H83.4021C85.4121 33.541 87.0421 35.171 87.0421 37.181V73.611C87.0421 75.621 85.4121 77.251 83.4021 77.251H20.2621C18.2521 77.251 16.6221 75.621 16.6221 73.611V37.181C16.6221 35.171 18.2521 33.541 20.2621 33.541Z" fill="#1F1D21"/>
</g>
<path d="M20.2621 30.1411H83.4021C85.4121 30.1411 87.0421 31.7711 87.0421 33.7811V70.2111C87.0421 72.2211 85.4121 73.8511 83.4021 73.8511H20.2621C18.2521 73.8511 16.6221 72.2211 16.6221 70.2111V33.7811C16.6221 31.7711 18.2521 30.1411 20.2621 30.1411Z" fill="url(#paint2_linear_109_52)" stroke="#A3A3A3" stroke-width="1.6164"/>
<path opacity="0.15" d="M70.1205 49.932C70.1205 49.5338 69.796 49.2093 69.3978 49.2093C69.1372 49.2093 67.5148 49.0667 66.6446 48.3883C66.6446 48.3883 66.6495 48.3784 66.6446 48.3883C66.3152 47.1887 65.8334 46.0677 65.2385 45.0058C65.0861 43.998 66.1284 43.2654 66.6053 42.4788C66.6888 42.3411 66.738 42.2625 66.7675 42.2084C66.856 41.9527 66.8068 41.6578 66.6053 41.4562C66.6053 41.4562 65.8039 40.3107 64.9829 39.4946C64.1618 38.6784 62.918 37.7689 62.918 37.7689C62.6377 37.4887 62.1756 37.4887 61.8954 37.7689C61.7085 37.9508 60.4745 38.9685 59.3634 39.1307C59.3487 39.1307 59.3487 39.1307 59.3487 39.1307C58.3162 38.5457 57.156 38.0639 55.9908 37.7345H55.9761C55.155 37.1298 55.3713 35.8761 55.155 34.9813C55.155 34.5831 54.8305 34.2586 54.4323 34.2586C54.4323 34.2586 53.0557 34.0177 51.8955 34.0177C50.7352 34.0177 49.216 34.2586 49.216 34.2586C48.8178 34.2586 48.4933 34.5831 48.4933 34.9813C48.4933 35.2419 48.3508 36.8643 47.6723 37.7345C46.5219 38.059 45.3124 38.5703 44.2898 39.1406C43.282 39.293 42.5494 38.2507 41.7628 37.7738C41.6251 37.6902 41.5465 37.6411 41.4924 37.6116C41.2368 37.5231 40.9418 37.5722 40.7402 37.7738C40.7402 37.7738 39.5947 38.5752 38.7786 39.3962C37.9624 40.2173 37.0529 41.4611 37.0529 41.4611C36.7727 41.7413 36.7727 42.2035 37.0529 42.4837C37.2348 42.6656 38.282 43.9193 38.4197 45.0107V45.0206C37.8494 46.0432 37.3479 47.2477 37.0234 48.3981C37.0234 48.3981 37.0382 48.3784 37.0234 48.3981C36.3204 49.2536 35.165 49.0028 34.2703 49.2191C33.872 49.2191 33.5475 49.5436 33.5475 49.9419C33.5475 49.9419 33.3066 51.3184 33.3066 52.4787C33.3066 53.639 33.5475 55.1581 33.5475 55.1581C33.5475 55.5564 33.872 55.8808 34.2703 55.8808C34.5308 55.8808 36.1532 56.0234 37.0234 56.7019C37.0431 56.692 37.0333 56.7166 37.0333 56.7166C37.3676 57.872 37.8445 59.0273 38.4246 60.0499C38.4148 60.0647 38.4246 60.0499 38.4295 60.0843C38.5278 61.1364 37.5396 61.8247 37.0628 62.6114C36.9792 62.749 36.93 62.8277 36.9005 62.8818C36.812 63.1374 36.8612 63.4324 37.0628 63.634C37.0628 63.634 37.8641 64.7795 38.6852 65.5956C39.5062 66.4166 40.75 67.3212 40.75 67.3212C41.0303 67.6015 41.4924 67.6015 41.7726 67.3212C41.9545 67.1393 43.2082 66.0921 44.2997 65.9545C44.2997 65.9545 44.2947 65.9594 44.3144 65.9643C45.3665 66.5494 46.453 67.0115 47.6428 67.336C47.6526 67.3409 47.687 67.3507 47.687 67.3507C48.5081 67.9555 48.2918 69.2091 48.5081 70.1039C48.5523 70.5071 48.7736 70.7627 49.2308 70.8266C49.2308 70.8266 50.6074 71.0675 51.7676 71.0675C52.9279 71.0675 54.4471 70.8315 54.4471 70.8315C54.8453 70.7627 55.1698 70.5071 55.1698 70.1088C55.1698 69.8483 55.3123 68.2259 55.9908 67.3557C55.9908 67.3557 56.0203 67.3311 56.0498 67.3065C57.2592 66.9673 58.1786 66.5936 59.2454 65.9791C59.2995 65.9594 59.2405 65.9643 59.3684 65.9447C60.3762 65.7923 61.1088 66.8345 61.8954 67.3114C62.033 67.395 62.1117 67.4442 62.1658 67.4737C62.4214 67.5621 62.7164 67.513 62.918 67.3114C62.918 67.3114 64.0635 66.51 64.8796 65.689C65.7006 64.868 66.6053 63.6241 66.6053 63.6241C66.8855 63.3439 66.8855 62.8818 66.6053 62.6015C66.4234 62.4196 65.3762 61.1659 65.2385 60.0745C65.2238 59.9614 65.2336 59.9467 65.2483 59.9172C65.858 58.8405 66.2414 58.0539 66.5758 56.8346C66.5758 56.8346 66.561 56.7953 66.6397 56.692C67.2444 55.871 68.4981 56.0873 69.3928 55.871C69.7911 55.871 70.1156 55.5465 70.1156 55.1483C70.1156 55.1483 70.3565 53.7717 70.3565 52.6114C70.3565 51.4512 70.1205 49.932 70.1205 49.932Z" fill="#1F1D20"/>
<path d="M70.1205 48.9485C70.1205 48.5503 69.796 48.2258 69.3978 48.2258C69.1372 48.2258 67.5148 48.0832 66.6446 47.4047C66.6446 47.4047 66.6495 47.3949 66.6446 47.4047C66.3152 46.2052 65.8334 45.0842 65.2385 44.0223C65.0861 43.0144 66.1284 42.2819 66.6053 41.4953C66.6888 41.3576 66.738 41.2789 66.7675 41.2249C66.856 40.9692 66.8068 40.6742 66.6053 40.4727C66.6053 40.4727 65.8039 39.3271 64.9829 38.511C64.1618 37.6949 62.918 36.7854 62.918 36.7854C62.6377 36.5051 62.1756 36.5051 61.8954 36.7854C61.7085 36.9673 60.4745 37.985 59.3634 38.1472C59.3487 38.1472 59.3487 38.1472 59.3487 38.1472C58.3162 37.5622 57.156 37.0804 55.9908 36.751H55.9761C55.155 36.1462 55.3713 34.8926 55.155 33.9978C55.155 33.5996 54.8305 33.2751 54.4323 33.2751C54.4323 33.2751 53.0557 33.0342 51.8955 33.0342C50.7352 33.0342 49.216 33.2751 49.216 33.2751C48.8178 33.2751 48.4933 33.5996 48.4933 33.9978C48.4933 34.2584 48.3508 35.8808 47.6723 36.751C46.5219 37.0754 45.3124 37.5867 44.2898 38.157C43.282 38.3095 42.5494 37.2672 41.7628 36.7903C41.6251 36.7067 41.5465 36.6575 41.4924 36.6281C41.2368 36.5396 40.9418 36.5887 40.7402 36.7903C40.7402 36.7903 39.5947 37.5917 38.7786 38.4127C37.9624 39.2337 37.0529 40.4776 37.0529 40.4776C36.7727 40.7578 36.7727 41.2199 37.0529 41.5002C37.2348 41.6821 38.282 42.9358 38.4197 44.0272V44.037C37.8494 45.0596 37.3479 46.2641 37.0234 47.4146C37.0234 47.4146 37.0382 47.3949 37.0234 47.4146C36.3204 48.27 35.165 48.0193 34.2703 48.2356C33.872 48.2356 33.5475 48.5601 33.5475 48.9583C33.5475 48.9583 33.3066 50.3349 33.3066 51.4952C33.3066 52.6554 33.5475 54.1746 33.5475 54.1746C33.5475 54.5728 33.872 54.8973 34.2703 54.8973C34.5308 54.8973 36.1532 55.0399 37.0234 55.7183C37.0431 55.7085 37.0333 55.7331 37.0333 55.7331C37.3676 56.8884 37.8445 58.0438 38.4246 59.0664C38.4148 59.0811 38.4246 59.0664 38.4295 59.1008C38.5278 60.1529 37.5396 60.8412 37.0628 61.6278C36.9792 61.7655 36.93 61.8441 36.9005 61.8982C36.812 62.1539 36.8612 62.4489 37.0628 62.6504C37.0628 62.6504 37.8641 63.7959 38.6852 64.6121C39.5062 65.4331 40.75 66.3377 40.75 66.3377C41.0303 66.6179 41.4924 66.6179 41.7726 66.3377C41.9545 66.1558 43.2082 65.1086 44.2997 64.971C44.2997 64.971 44.2947 64.9759 44.3144 64.9808C45.3665 65.5658 46.453 66.028 47.6428 66.3525C47.6526 66.3574 47.687 66.3672 47.687 66.3672C48.5081 66.9719 48.2918 68.2256 48.5081 69.1204C48.5523 69.5235 48.7736 69.7792 49.2308 69.8431C49.2308 69.8431 50.6074 70.084 51.7676 70.084C52.9279 70.084 54.4471 69.848 54.4471 69.848C54.8453 69.7792 55.1698 69.5235 55.1698 69.1253C55.1698 68.8647 55.3123 67.2423 55.9908 66.3721C55.9908 66.3721 56.0203 66.3475 56.0498 66.323C57.2592 65.9837 58.1786 65.6101 59.2454 64.9955C59.2995 64.9759 59.2405 64.9808 59.3684 64.9611C60.3762 64.8087 61.1088 65.851 61.8954 66.3279C62.033 66.4115 62.1117 66.4606 62.1658 66.4901C62.4214 66.5786 62.7164 66.5295 62.918 66.3279C62.918 66.3279 64.0635 65.5265 64.8796 64.7055C65.7006 63.8844 66.6053 62.6406 66.6053 62.6406C66.8855 62.3604 66.8855 61.8982 66.6053 61.618C66.4234 61.4361 65.3762 60.1824 65.2385 59.091C65.2238 58.9779 65.2336 58.9631 65.2483 58.9337C65.858 57.857 66.2414 57.0703 66.5758 55.8511C66.5758 55.8511 66.561 55.8118 66.6397 55.7085C67.2444 54.8875 68.4981 55.1038 69.3928 54.8875C69.7911 54.8875 70.1156 54.563 70.1156 54.1648C70.1156 54.1648 70.3565 52.7882 70.3565 51.6279C70.3565 50.4677 70.1205 48.9485 70.1205 48.9485Z" fill="#F2F1F0"/>
<path d="M60.7352 57.9773C60.2389 53.5475 56.4385 50.0738 51.8392 50.0738C47.2763 50.0738 43.5243 53.4748 42.9433 57.8683C42.8828 58.1709 42.8828 58.5098 42.8828 58.8124C42.9917 60.059 43.8753 61.2694 45.5092 62.2134C49.0071 64.2226 54.6956 64.2226 58.1572 62.2134C59.7911 61.2694 60.6262 60.059 60.7352 58.8124C60.8199 58.5461 60.7715 58.2435 60.7352 57.9773Z" fill="url(#paint3_radial_109_52)"/>
<path d="M51.8514 49.1539C54.8288 49.1539 57.2374 46.7574 57.2374 43.8042C57.2374 40.851 54.8288 38.4545 51.8514 38.4545C48.874 38.4545 46.4775 40.851 46.4775 43.8042C46.4775 46.7574 48.8861 49.1539 51.8514 49.1539Z" fill="url(#paint4_radial_109_52)"/>
<path d="M52.3237 60.5674L50.1935 59.4902C50.0846 59.4297 50.0362 59.2965 50.0967 59.1755L51.9364 55.5566C51.9969 55.4477 52.13 55.3993 52.239 55.4598L54.3691 56.5491C54.4781 56.6096 54.5265 56.7427 54.466 56.8517L52.6263 60.4705C52.5778 60.5795 52.4326 60.6279 52.3237 60.5674Z" fill="white"/>
<path d="M52.0697 57.0088L48.4629 50.7151L49.1528 50.4609L52.0334 55.4837L54.4782 50.4367L55.1681 50.6908L52.0697 57.0088Z" fill="white"/>
<defs>
<linearGradient id="paint0_linear_109_52" x1="50.0586" y1="-12.8823" x2="54.0406" y2="132.888" gradientUnits="userSpaceOnUse">
<stop stop-color="#00ABDE"/>
<stop offset="1" stop-color="#007ED8"/>
</linearGradient>
<linearGradient id="paint1_linear_109_52" x1="3.26235" y1="-19.7154" x2="98.7899" y2="121.166" gradientUnits="userSpaceOnUse">
<stop stop-color="#007ED8"/>
<stop offset="0.7065" stop-color="#002D4C"/>
</linearGradient>
<linearGradient id="paint2_linear_109_52" x1="51.8286" y1="30.1394" x2="51.8286" y2="73.8423" gradientUnits="userSpaceOnUse">
<stop stop-color="#555559"/>
<stop offset="1" stop-color="#2E2E33"/>
</linearGradient>
<radialGradient id="paint3_radial_109_52" cx="0" cy="0" r="1" gradientUnits="userSpaceOnUse" gradientTransform="translate(48.563 45.025) scale(25.4219 25.3304)">
<stop stop-color="#4FC2EB"/>
<stop offset="0.585" stop-color="#2E76BC"/>
</radialGradient>
<radialGradient id="paint4_radial_109_52" cx="0" cy="0" r="1" gradientUnits="userSpaceOnUse" gradientTransform="translate(49.1984 41.0966) scale(11.9233 11.8567)">
<stop stop-color="#4FC2EB"/>
<stop offset="0.585" stop-color="#2E76BC"/>
</radialGradient>
</defs>
</svg>
