<svg width="100" height="100" viewBox="0 0 100 100" fill="none" xmlns="http://www.w3.org/2000/svg">
<g clip-path="url(#clip0)">
<path d="M49.6401 96.4501C40.382 96.4501 31.3317 93.7047 23.6339 88.5612C15.936 83.4176 9.93624 76.1069 6.3933 67.5535C2.85036 59.0001 1.92337 49.5882 3.72954 40.5079C5.53571 31.4277 9.99394 23.0869 16.5404 16.5404C23.0869 9.99393 31.4277 5.53571 40.5079 3.72954C49.5882 1.92337 59.0001 2.85036 67.5535 6.3933C76.1069 9.93624 83.4176 15.936 88.5612 23.6339C93.7047 31.3317 96.4501 40.382 96.4501 49.6401C96.4505 55.7874 95.24 61.8746 92.8878 67.554C90.5355 73.2335 87.0875 78.3939 82.7407 82.7407C78.3939 87.0875 73.2335 90.5355 67.554 92.8878C61.8746 95.24 55.7874 96.4505 49.6401 96.4501V96.4501Z" fill="url(#paint0_linear)"/>
<path fill-rule="evenodd" clip-rule="evenodd" d="M95.54 49.64C95.54 58.7182 92.848 67.5925 87.8045 75.1407C82.7609 82.6889 75.5923 88.572 67.2052 92.0461C58.818 95.5201 49.5891 96.4291 40.6854 94.658C31.7816 92.887 23.603 88.5154 17.1838 82.0962C10.7646 75.677 6.39302 67.4984 4.62196 58.5946C2.85089 49.6909 3.75987 40.462 7.23393 32.0748C10.708 23.6877 16.5911 16.5191 24.1393 11.4755C31.6875 6.43199 40.5618 3.74 49.64 3.74C55.6677 3.73998 61.6363 4.9272 67.2052 7.23388C72.774 9.54057 77.834 12.9215 82.0963 17.1837C86.3585 21.446 89.7394 26.5059 92.0461 32.0748C94.3528 37.6437 95.54 43.6123 95.54 49.64V49.64ZM49.64 3.62732e-07C59.4579 3.62732e-07 69.0553 2.91134 77.2185 8.36585C85.3818 13.8204 91.7442 21.5731 95.5014 30.6436C99.2585 39.7141 100.242 49.6951 98.3262 59.3243C96.4108 68.9535 91.6831 77.7985 84.7408 84.7408C77.7985 91.6831 68.9535 96.4108 59.3243 98.3262C49.6951 100.242 39.7141 99.2585 30.6436 95.5014C21.5731 91.7442 13.8204 85.3818 8.36585 77.2185C2.91134 69.0553 3.62732e-07 59.4579 3.62732e-07 49.64C-0.000787738 43.121 1.28265 36.6656 3.77702 30.6427C6.27138 24.6197 9.9278 19.1471 14.5375 14.5375C19.1471 9.9278 24.6197 6.27138 30.6427 3.77702C36.6656 1.28265 43.121 -0.000787738 49.64 3.62732e-07V3.62732e-07Z" fill="#F2F1F0"/>
<path fill-rule="evenodd" clip-rule="evenodd" d="M92.7296 49.6406C92.7296 58.163 90.2024 66.494 85.4676 73.5801C80.7328 80.6662 74.0031 86.1892 66.1294 89.4505C58.2557 92.7119 49.5918 93.5653 41.2331 91.9026C32.8745 90.24 25.1966 86.1361 19.1703 80.1098C13.1441 74.0836 9.04017 66.4057 7.37753 58.047C5.7149 49.6884 6.56822 41.0244 9.8296 33.1507C13.091 25.2771 18.6139 18.5473 25.7 13.8126C32.7862 9.07776 41.1172 6.55058 49.6396 6.55058C55.2983 6.55023 60.9017 7.66455 66.1298 9.82991C71.3579 11.9953 76.1082 15.1692 80.1096 19.1706C84.1109 23.1719 87.2849 27.9223 89.4502 33.1503C91.6156 38.3784 92.7299 43.9818 92.7296 49.6406V49.6406ZM49.6396 2.81058C58.9017 2.81058 67.9558 5.55711 75.6569 10.7029C83.3581 15.8486 89.3604 23.1624 92.9049 31.7195C96.4493 40.2766 97.3767 49.6925 95.5697 58.7767C93.7628 67.8608 89.3027 76.2051 82.7534 82.7544C76.2041 89.3037 67.8598 93.7638 58.7757 95.5708C49.6915 97.3777 40.2756 96.4503 31.7185 92.9059C23.1614 89.3614 15.8476 83.3591 10.7018 75.6579C5.5561 67.9568 2.80957 58.9027 2.80957 49.6406C2.81076 37.2209 7.745 25.3101 16.5271 16.5281C25.3091 7.74599 37.2198 2.81174 49.6396 2.81055V2.81058Z" fill="#0078D4"/>
<path fill-rule="evenodd" clip-rule="evenodd" d="M92.7296 49.6405C92.7296 58.1629 90.2024 66.494 85.4676 73.5801C80.7328 80.6662 74.0031 86.1891 66.1294 89.4505C58.2557 92.7119 49.5918 93.5652 41.2331 91.9026C32.8745 90.24 25.1966 86.136 19.1703 80.1098C13.1441 74.0835 9.04017 66.4056 7.37753 58.047C5.7149 49.6883 6.56822 41.0244 9.8296 33.1507C13.091 25.277 18.6139 18.5473 25.7001 13.8125C32.7862 9.07773 41.1172 6.55055 49.6396 6.55055C55.2983 6.5502 60.9017 7.66452 66.1298 9.82988C71.3579 11.9952 76.1082 15.1692 80.1096 19.1705C84.1109 23.1719 87.2849 27.9222 89.4502 33.1503C91.6156 38.3784 92.7299 43.9818 92.7296 49.6405V49.6405ZM49.6396 2.81055C58.9017 2.81055 67.9558 5.55708 75.6569 10.7028C83.3581 15.8486 89.3604 23.1624 92.9048 31.7195C96.4493 40.2765 97.3767 49.6925 95.5697 58.7766C93.7628 67.8608 89.3027 76.2051 82.7534 82.7544C76.2041 89.3036 67.8598 93.7638 58.7757 95.5707C49.6915 97.3777 40.2756 96.4503 31.7185 92.9058C23.1614 89.3614 15.8476 83.3591 10.7018 75.6579C5.5561 67.9568 2.80957 58.9026 2.80957 49.6405C2.81076 37.2208 7.74501 25.3101 16.5271 16.5281C25.3091 7.74599 37.2198 2.81174 49.6396 2.81055V2.81055Z" fill="#0078D4"/>
<path fill-rule="evenodd" clip-rule="evenodd" d="M26.9094 31.8867C25.8142 31.8899 24.7648 32.3264 23.9904 33.1007C23.216 33.8751 22.7796 34.9245 22.7764 36.0196V64.9502H76.5045V36.0196C76.5013 34.9245 76.0649 33.8751 75.2905 33.1008C74.5161 32.3264 73.4667 31.8899 72.3716 31.8867H26.9094ZM72.3716 33.9532C72.9194 33.9539 73.4446 34.1718 73.832 34.5592C74.2194 34.9466 74.4374 35.4718 74.4381 36.0196V62.8837H24.8429V36.0196C24.8434 35.4718 25.0613 34.9465 25.4487 34.559C25.8362 34.1716 26.3615 33.9537 26.9094 33.9532H72.3716Z" fill="#1F56A3"/>
<path fill-rule="evenodd" clip-rule="evenodd" d="M24.8428 36.0196C24.8433 35.4717 25.0612 34.9464 25.4486 34.559C25.8361 34.1716 26.3614 33.9537 26.9093 33.9531H72.3715C72.9194 33.9538 73.4446 34.1718 73.8319 34.5592C74.2193 34.9465 74.4373 35.4717 74.438 36.0196V62.8837H24.8428V36.0196Z" fill="#0078D4"/>
<path d="M71.9819 36.4082H27.2979V60.4276H71.9819V36.4082Z" fill="#1B93EB"/>
<path fill-rule="evenodd" clip-rule="evenodd" d="M16.5769 64.9492V65.9824C16.5801 67.0776 17.0166 68.1269 17.791 68.9013C18.5653 69.6757 19.6147 70.1122 20.7098 70.1154H78.5709C79.666 70.1122 80.7154 69.6757 81.4898 68.9013C82.2642 68.1269 82.7006 67.0776 82.7038 65.9824V64.9492H16.5769Z" fill="#0078D4"/>
<path fill-rule="evenodd" clip-rule="evenodd" d="M47.5735 68.0489H17.1541C17.5143 68.6742 18.0321 69.194 18.656 69.5566C19.2798 69.9192 19.9878 70.1119 20.7094 70.1154H78.5705C79.6656 70.1122 80.715 69.6757 81.4893 68.9013C82.2637 68.127 82.7002 67.0776 82.7034 65.9825V64.9492H49.64V65.9824C49.6401 66.2538 49.5867 66.5226 49.4828 66.7733C49.379 67.0241 49.2268 67.2519 49.0349 67.4438C48.843 67.6357 48.6152 67.788 48.3644 67.8918C48.1136 67.9956 47.8449 68.049 47.5735 68.0489V68.0489Z" fill="#1F56A3"/>
<path fill-rule="evenodd" clip-rule="evenodd" d="M45.5074 67.0157H53.7732C54.3212 67.0155 54.8467 66.7977 55.2342 66.4102C55.6217 66.0227 55.8395 65.4972 55.8397 64.9492H43.4409C43.4409 65.4973 43.6587 66.0229 44.0462 66.4104C44.4337 66.7979 44.9593 67.0156 45.5074 67.0157Z" fill="#003067"/>
<path d="M65.8358 44.4668C65.2622 44.4669 64.7072 44.6702 64.2694 45.0408C63.8315 45.4113 63.5392 45.9251 63.4444 46.4908C62.9883 46.5189 62.5553 46.7007 62.2159 47.0066C61.8765 47.3125 61.6508 47.7244 61.5757 48.1751L61.2178 50.3227C61.1741 50.585 61.0453 50.8256 60.8514 51.0075C60.6575 51.1895 60.4091 51.3026 60.1446 51.3294C60.0418 50.7304 59.7177 50.1919 59.2366 49.8205C58.7555 49.4491 58.1524 49.272 57.5469 49.3242C56.9414 49.3764 56.3775 49.6541 55.9671 50.1024C55.5567 50.5507 55.3296 51.1368 55.3308 51.7445C55.3321 52.3523 55.5615 52.9374 55.9738 53.384C56.3861 53.8306 56.951 54.1061 57.5568 54.1558C58.1625 54.2055 58.7648 54.0259 59.2444 53.6526C59.724 53.2792 60.0459 52.7393 60.1462 52.1399C60.6023 52.1118 61.0353 51.93 61.3747 51.6241C61.7141 51.3182 61.9398 50.9063 62.0149 50.4556L62.3729 48.308C62.4166 48.0457 62.5453 47.8051 62.7393 47.6232C62.9332 47.4412 63.1816 47.3281 63.4461 47.3013C63.5243 47.7566 63.7308 48.1801 64.0416 48.522C64.3523 48.8638 64.7542 49.1098 65.2001 49.2309C65.6459 49.352 66.117 49.3432 66.558 49.2056C66.999 49.0679 67.3915 48.8072 67.6893 48.454C67.987 48.1008 68.1777 47.6699 68.2388 47.2119C68.2999 46.754 68.2289 46.2882 68.0342 45.8693C67.8394 45.4503 67.5291 45.0958 67.1396 44.8473C66.7501 44.5988 66.2978 44.4668 65.8358 44.4668H65.8358Z" fill="white"/>
<path d="M36.6375 43.1674C37.5398 43.1293 38.4204 43.4498 39.0871 44.0589C39.7537 44.668 40.1521 45.5163 40.1953 46.4183H40.2497C40.9257 46.428 41.5702 46.7059 42.0414 47.1907C42.5127 47.6756 42.772 48.3277 42.7625 49.0038C42.7625 49.0393 42.7618 49.0746 42.7605 49.1098C42.4791 48.8588 42.1403 48.6809 41.774 48.5918C41.4076 48.5027 41.025 48.5052 40.6598 48.5989C40.2946 48.6927 39.9581 48.8748 39.68 49.1294C39.4019 49.3839 39.1906 49.7029 39.065 50.0584C38.6699 50.0663 38.2869 50.1964 37.9687 50.4307C37.6505 50.6649 37.4126 50.992 37.2876 51.3669L37.2134 51.5893H33.0254C32.3525 51.57 31.7137 51.2891 31.2447 50.8063C30.7756 50.3236 30.5132 49.677 30.5132 49.0038C30.5132 48.3307 30.7756 47.6841 31.2447 47.2014C31.7137 46.7186 32.3525 46.4377 33.0254 46.4183H33.0798C33.1211 45.5157 33.519 44.6663 34.186 44.0568C34.8531 43.4472 35.7348 43.1274 36.6375 43.1674V43.1674ZM41.2313 52.3549C41.5341 52.3549 41.8302 52.2651 42.082 52.0969C42.3338 51.9286 42.5301 51.6894 42.646 51.4096C42.7619 51.1298 42.7922 50.822 42.7331 50.5249C42.674 50.2279 42.5282 49.9551 42.314 49.7409C42.0999 49.5268 41.8271 49.3809 41.53 49.3218C41.233 49.2628 40.9251 49.2931 40.6453 49.409C40.3655 49.5249 40.1264 49.7211 39.9581 49.9729C39.7898 50.2248 39.7 50.5208 39.7 50.8237H39.1035C38.8624 50.8237 38.6275 50.8995 38.4319 51.0405C38.2364 51.1814 38.0901 51.3803 38.0139 51.609L37.5973 52.8588C37.5719 52.935 37.5232 53.0013 37.458 53.0483C37.3928 53.0953 37.3145 53.1206 37.2341 53.1205H36.4327C36.247 52.7986 35.9507 52.5552 35.5989 52.4356C35.247 52.316 34.8637 52.3284 34.5203 52.4705C34.177 52.6125 33.8969 52.8746 33.7325 53.2078C33.568 53.541 33.5302 53.9227 33.6263 54.2816C33.7223 54.6406 33.9456 54.9524 34.2545 55.159C34.5634 55.3655 34.9369 55.4528 35.3053 55.4044C35.6738 55.356 36.0121 55.1753 36.2572 54.896C36.5023 54.6167 36.6374 54.2578 36.6375 53.8862H37.2341C37.4752 53.8862 37.7101 53.8103 37.9056 53.6694C38.1012 53.5285 38.2474 53.3296 38.3237 53.1009L38.7403 51.8511C38.7657 51.7748 38.8144 51.7085 38.8796 51.6615C38.9448 51.6146 39.0231 51.5893 39.1035 51.5893H39.9049C40.0393 51.8222 40.2326 52.0155 40.4654 52.1499C40.6983 52.2843 40.9624 52.355 41.2313 52.3549V52.3549ZM41.2313 51.5893C41.0799 51.5893 40.9318 51.5444 40.8059 51.4603C40.68 51.3761 40.5819 51.2566 40.5239 51.1167C40.466 50.9768 40.4508 50.8228 40.4804 50.6743C40.5099 50.5258 40.5828 50.3894 40.6899 50.2823C40.797 50.1752 40.9334 50.1023 41.0819 50.0727C41.2304 50.0432 41.3844 50.0584 41.5243 50.1163C41.6642 50.1743 41.7838 50.2724 41.8679 50.3983C41.952 50.5242 41.9969 50.6722 41.9969 50.8237C41.9969 50.9242 41.9771 51.0238 41.9386 51.1167C41.9002 51.2096 41.8438 51.294 41.7727 51.3651C41.7016 51.4361 41.6172 51.4925 41.5243 51.531C41.4314 51.5695 41.3318 51.5893 41.2313 51.5893V51.5893ZM35.8719 53.8862C35.8719 54.0376 35.827 54.1856 35.7429 54.3115C35.6587 54.4374 35.5392 54.5356 35.3993 54.5935C35.2594 54.6515 35.1054 54.6666 34.9569 54.6371C34.8084 54.6076 34.672 54.5346 34.5649 54.4276C34.4578 54.3205 34.3849 54.1841 34.3553 54.0355C34.3258 53.887 34.341 53.7331 34.3989 53.5932C34.4569 53.4533 34.555 53.3337 34.6809 53.2496C34.8068 53.1654 34.9548 53.1205 35.1063 53.1205C35.2068 53.1205 35.3064 53.1403 35.3993 53.1788C35.4921 53.2173 35.5765 53.2737 35.6476 53.3448C35.7187 53.4159 35.7751 53.5003 35.8136 53.5932C35.8521 53.6861 35.8719 53.7856 35.8719 53.8862V53.8862Z" fill="white"/>
<path d="M49.6394 47.5V51.7784" stroke="white" stroke-miterlimit="10" stroke-linecap="round"/>
<path d="M47.5002 49.6387H51.7786" stroke="white" stroke-miterlimit="10" stroke-linecap="round"/>
<path opacity="0.2" d="M39.1315 31.8574L34.5882 36.9342C34.1907 37.3731 33.9293 37.9181 33.836 38.5028C33.7427 39.0876 33.8215 39.6869 34.0627 40.2277C34.304 40.7685 34.6973 41.2274 35.1948 41.5486C35.6923 41.8698 36.2725 42.0394 36.8646 42.0367H44.3851L53.681 42.0362C54.067 42.0377 54.4486 41.9553 54.7995 41.7945C55.1505 41.6338 55.4622 41.3988 55.7132 41.1056L64.2045 31.8574H39.1315Z" fill="#003067"/>
<path d="M54.1395 25.2546L45.362 30.3815L36.1256 20.1078C35.9741 19.9374 35.8748 19.727 35.8398 19.5017C35.8047 19.2764 35.8353 19.0458 35.9279 18.8374C36.0205 18.6291 36.1712 18.4518 36.3619 18.3268C36.5527 18.2019 36.7754 18.1345 37.0034 18.1328H54.1395V25.2546Z" fill="url(#paint1_linear)"/>
<path d="M63.1763 28.4056L58.9671 23.6777L44.1052 40.0358H53.6807C53.7798 40.0386 53.8781 40.0184 53.9681 39.9769C54.0581 39.9353 54.1372 39.8736 54.1994 39.7964L63.1564 30.0414C63.3659 29.8218 63.4844 29.531 63.4881 29.2275C63.4918 28.924 63.3804 28.6303 63.1763 28.4056V28.4056Z" fill="url(#paint2_linear)"/>
<path d="M54.0605 18.1738L36.0665 38.2824C35.9301 38.4348 35.8409 38.6235 35.81 38.8256C35.779 39.0278 35.8076 39.2346 35.8923 39.4207C35.9769 39.6069 36.1139 39.7644 36.2866 39.8739C36.4592 39.9835 36.66 40.0405 36.8645 40.0378H44.3851L59.0078 23.7395L54.0605 18.1738Z" fill="url(#paint3_linear)"/>
</g>
<defs>
<linearGradient id="paint0_linear" x1="47.8697" y1="-15.153" x2="51.8525" y2="130.615" gradientUnits="userSpaceOnUse">
<stop stop-color="#00ABDE"/>
<stop offset="1" stop-color="#007ED8"/>
</linearGradient>
<linearGradient id="paint1_linear" x1="36.9749" y1="12.2368" x2="56.9457" y2="31.0267" gradientUnits="userSpaceOnUse">
<stop offset="0.4598" stop-color="#1152D4"/>
<stop offset="0.6156" stop-color="#0D3FB3"/>
</linearGradient>
<linearGradient id="paint2_linear" x1="44.1052" y1="31.8568" x2="63.4881" y2="31.8568" gradientUnits="userSpaceOnUse">
<stop stop-color="#76C0FD"/>
<stop offset="1" stop-color="#63B2FB"/>
</linearGradient>
<linearGradient id="paint3_linear" x1="35.7926" y1="29.1058" x2="59.0078" y2="29.1058" gradientUnits="userSpaceOnUse">
<stop stop-color="#388CF4"/>
<stop offset="1" stop-color="#2C7CEF"/>
</linearGradient>
<clipPath id="clip0">
<rect width="99.2799" height="99.28" fill="white"/>
</clipPath>
</defs>
</svg>
