<svg width="101" height="107" viewBox="0 0 101 107" fill="none" xmlns="http://www.w3.org/2000/svg">
<path d="M50.2169 4.94043C49.1369 4.94043 47.7569 5.61043 46.8069 6.20043L13.0369 26.8704C10.9569 28.1404 9.77686 31.8104 9.77686 34.4504L10.1269 74.0904C10.1269 76.7304 11.9069 79.1004 13.9869 80.3704L47.5669 100.6C49.4769 101.76 51.0269 101.76 52.9369 100.6L86.9669 80.3204C89.0469 79.0504 90.7269 76.7204 90.7269 74.0904V33.1504C90.7269 30.5104 89.2069 27.8004 87.1169 26.5204L53.4369 6.20043C52.4869 5.62043 51.3069 4.94043 50.2169 4.94043Z" fill="#7D7D7D"/>
<path d="M50.5869 105.59C48.8869 105.59 47.2169 105.12 45.7369 104.22L11.2669 83.2805C8.18686 81.4105 6.27686 77.8905 6.27686 74.0805V32.5505C6.27686 28.7605 8.18686 25.2305 11.2669 23.3505L45.7269 2.42047C48.6869 0.620471 52.4769 0.630471 55.4269 2.42047L89.8769 23.3705C92.9569 25.2405 94.8769 28.7605 94.8769 32.5705V74.1005C94.8769 77.3005 93.5169 80.3205 91.2369 82.3005V82.3205L55.4269 104.24C53.9669 105.12 52.2869 105.59 50.5869 105.59ZM50.2169 4.94047C49.1369 4.94047 47.7569 5.61047 46.8069 6.20047L13.0369 26.8705C10.9569 28.1405 9.77685 31.8105 9.77685 34.4505L10.1269 74.0905C10.1269 76.7305 11.9069 79.1005 13.9869 80.3705L47.5669 100.6C49.4769 101.76 51.0269 101.76 52.9369 100.6L86.9669 80.3205C89.0469 79.0505 90.7269 76.7205 90.7269 74.0905V33.1505C90.7269 30.5105 89.2069 27.8005 87.1169 26.5205L53.4369 6.20047C52.4869 5.62047 51.3069 4.94047 50.2169 4.94047Z" fill="#F2F1F0"/>
<path d="M50.5868 103.161C49.0968 103.161 47.4968 102.641 45.8368 101.621L13.3368 81.8709C10.3368 80.0509 8.47681 76.6209 8.47681 72.9209V33.7309C8.47681 30.0409 10.3368 26.6109 13.3368 24.7809L45.8368 5.02086C47.0868 4.26086 48.7668 3.38086 50.5868 3.38086C52.3768 3.38086 53.9868 4.21086 55.3268 5.01086H55.3368L87.8468 24.7709C90.8468 26.5909 92.7068 30.0209 92.7068 33.7209V72.9209C92.7068 78.1809 90.3668 80.3309 87.8468 81.8709L55.3368 101.631C53.6268 102.661 52.0768 103.161 50.5868 103.161ZM50.5868 7.38086C49.7468 7.38086 48.6668 7.98086 47.9168 8.43086L15.4168 28.1909C13.6068 29.3009 12.4768 31.4209 12.4768 33.7309V72.9209C12.4768 75.2309 13.6068 77.3509 15.4168 78.4609L47.9168 98.2209C48.9568 98.8509 49.8468 99.1709 50.5868 99.1709C51.3168 99.1709 52.2168 98.8509 53.2568 98.2209L85.7668 78.4609C87.7568 77.2409 88.7068 76.1009 88.7068 72.9209V33.7309C88.7068 31.4209 87.5768 29.3009 85.7668 28.1909L53.2568 8.44086C52.4368 7.95086 51.3968 7.38086 50.5868 7.38086Z" fill="#F2C811"/>
<path d="M54.8469 54.1104H61.7169" stroke="white" stroke-width="2"/>
<path d="M71.817 69.5499H63.667C62.697 69.5499 61.907 68.7599 61.907 67.7899V40.4299C61.907 39.4599 62.697 38.6699 63.667 38.6699H71.817" stroke="white" stroke-width="2"/>
<path fill-rule="evenodd" clip-rule="evenodd" d="M75.1369 45.7304C71.2369 45.7304 68.0769 42.5704 68.0769 38.6704C68.0769 34.7704 71.2369 31.6104 75.1369 31.6104C79.0369 31.6104 82.1969 34.7704 82.1969 38.6704C82.1969 42.5704 79.0369 45.7304 75.1369 45.7304Z" fill="black"/>
<path fill-rule="evenodd" clip-rule="evenodd" d="M75.1369 45.7304C71.2369 45.7304 68.0769 42.5704 68.0769 38.6704C68.0769 34.7704 71.2369 31.6104 75.1369 31.6104C79.0369 31.6104 82.1969 34.7704 82.1969 38.6704C82.1969 42.5704 79.0369 45.7304 75.1369 45.7304Z" fill="#7CB65A"/>
<path fill-rule="evenodd" clip-rule="evenodd" d="M76.597 36.3712L74.047 39.2812L73.127 38.2312C73.107 38.1912 73.087 38.1612 73.057 38.1312C72.757 37.7912 72.267 37.7912 71.967 38.1312C71.667 38.4712 71.667 39.0212 71.957 39.3712L71.947 39.3812L73.507 41.1412C73.807 41.4812 74.297 41.4812 74.597 41.1412L77.687 37.6112C77.987 37.2712 77.987 36.7012 77.687 36.3612C77.397 36.0212 76.897 36.0212 76.597 36.3712Z" fill="white"/>
<path fill-rule="evenodd" clip-rule="evenodd" d="M82.1969 69.5502C82.1969 73.4502 79.0369 76.6102 75.1369 76.6102C71.2369 76.6102 68.0769 73.4502 68.0769 69.5502C68.0769 65.6502 71.2369 62.4902 75.1369 62.4902C79.0369 62.4902 82.1969 65.6502 82.1969 69.5502Z" fill="black"/>
<path fill-rule="evenodd" clip-rule="evenodd" d="M82.1969 69.5502C82.1969 73.4502 79.0369 76.6102 75.1369 76.6102C71.2369 76.6102 68.0769 73.4502 68.0769 69.5502C68.0769 65.6502 71.2369 62.4902 75.1369 62.4902C79.0369 62.4902 82.1969 65.6502 82.1969 69.5502Z" fill="#DF5142"/>
<path d="M73.147 71.6407L77.107 67.5107" stroke="white" stroke-width="2" stroke-linecap="round"/>
<path d="M77.1369 71.6404L73.0769 67.6104" stroke="white" stroke-width="2" stroke-linecap="round"/>
<path fill-rule="evenodd" clip-rule="evenodd" d="M22.5969 69.1001C21.3169 69.1001 20.2769 68.0401 20.2769 66.7401V39.6901C20.2769 38.3901 21.3169 37.3301 22.5969 37.3301H55.0269C56.2969 37.3301 57.3369 38.3901 57.3369 39.6901V66.7501C57.3369 68.0401 56.2969 69.1001 55.0269 69.1001H22.5969Z" fill="#30404D"/>
<path fill-rule="evenodd" clip-rule="evenodd" d="M22.0369 66.1602V42.9302C22.0369 42.2802 22.5569 41.7402 23.1869 41.7402H54.4269C55.0569 41.7402 55.5769 42.2802 55.5769 42.9302V66.1302C55.5769 66.7802 55.0669 67.3202 54.4269 67.3202L23.1869 67.3502C22.5569 67.3502 22.0369 66.8202 22.0369 66.1602Z" fill="#F8F9FA"/>
<path d="M26.0067 40.4202C26.4967 40.4202 26.8867 40.0202 26.8867 39.5402C26.8867 39.0502 26.4867 38.6602 26.0067 38.6602C25.5267 38.6602 25.1267 39.0602 25.1267 39.5402C25.1267 40.0202 25.5167 40.4202 26.0067 40.4202Z" fill="#7CB65A"/>
<path d="M24.2469 40.4202C24.7369 40.4202 25.1269 40.0202 25.1269 39.5402C25.1269 39.0502 24.7269 38.6602 24.2469 38.6602C23.7569 38.6602 23.3669 39.0602 23.3669 39.5402C23.3569 40.0202 23.7569 40.4202 24.2469 40.4202Z" fill="#EFB252"/>
<path d="M22.4769 40.4202C22.9669 40.4202 23.3569 40.0202 23.3569 39.5402C23.3569 39.0502 22.9569 38.6602 22.4769 38.6602C21.9969 38.6602 21.5969 39.0602 21.5969 39.5402C21.5969 40.0202 21.9869 40.4202 22.4769 40.4202Z" fill="#DF5142"/>
<path d="M28.6568 39.1006H55.1268C55.3768 39.1006 55.5668 39.2906 55.5668 39.5406C55.5668 39.7906 55.3768 39.9806 55.1268 39.9806H28.6568C28.4068 39.9806 28.2168 39.7906 28.2168 39.5406C28.2168 39.2906 28.4068 39.1006 28.6568 39.1006Z" fill="#697D85"/>
<path d="M45.2767 64.7456H39.1667V46.4556C39.1667 45.7956 39.6968 45.2656 40.3568 45.2656H45.2767C45.9367 45.2656 46.4667 45.7956 46.4667 46.4556V63.5456C46.4667 64.2056 45.9367 64.7456 45.2767 64.7456Z" fill="url(#paint0_linear)"/>
<path d="M41.3169 64.7453H35.0469V51.2754C35.0469 50.7054 35.5169 50.2354 36.0869 50.2354H41.3069C41.8769 50.2354 42.3469 50.7054 42.3469 51.2754V63.6954C42.3569 64.2754 41.8969 64.7453 41.3169 64.7453Z" fill="url(#paint1_linear)"/>
<path d="M37.0867 64.7356H32.4867C31.7367 64.7356 31.1367 64.1256 31.1367 63.3856V56.3656C31.1367 55.6156 31.7467 55.0156 32.4867 55.0156H37.0867C37.8367 55.0156 38.4367 55.6256 38.4367 56.3656V63.3856C38.4367 64.1356 37.8367 64.7356 37.0867 64.7356Z" fill="url(#paint2_linear)"/>
<defs>
<linearGradient id="paint0_linear" x1="42.7365" y1="47.045" x2="42.8918" y2="63.2056" gradientUnits="userSpaceOnUse">
<stop offset="0.00753769" stop-color="#E0A310"/>
<stop offset="1" stop-color="#CA810E"/>
</linearGradient>
<linearGradient id="paint1_linear" x1="38.5099" y1="50.8011" x2="38.976" y2="67.8938" gradientUnits="userSpaceOnUse">
<stop offset="0.00753769" stop-color="#F2CC40"/>
<stop offset="1" stop-color="#E7B116"/>
</linearGradient>
<linearGradient id="paint2_linear" x1="34.6127" y1="55.7569" x2="35.0788" y2="66.7896" gradientUnits="userSpaceOnUse">
<stop stop-color="#F8E17B"/>
<stop offset="0.5302" stop-color="#F6D856"/>
<stop offset="1" stop-color="#F6D856"/>
</linearGradient>
</defs>
</svg>
