<svg width="103" height="103" viewBox="0 0 103 103" fill="none" xmlns="http://www.w3.org/2000/svg">
<path d="M51.5817 97.951C25.7317 97.951 4.77173 77.0011 4.77173 51.1411C4.77173 25.2811 25.7317 4.33105 51.5817 4.33105C77.4317 4.33105 98.3917 25.2911 98.3917 51.1411C98.3917 76.9911 77.4317 97.951 51.5817 97.951Z" fill="#7D7D7D"/>
<path fill-rule="evenodd" clip-rule="evenodd" d="M97.4819 51.141C97.4819 76.491 76.9319 97.041 51.5819 97.041C26.2319 97.041 5.68189 76.491 5.68189 51.141C5.68189 25.791 26.2319 5.24098 51.5819 5.24098C76.9319 5.24098 97.4819 25.791 97.4819 51.141ZM51.5819 1.50098C79.0019 1.50098 101.222 23.721 101.222 51.141C101.222 78.561 78.9919 100.781 51.5819 100.781C24.1619 100.781 1.94189 78.551 1.94189 51.141C1.94189 23.721 24.1619 1.50098 51.5819 1.50098Z" fill="#F2F1F0"/>
<path fill-rule="evenodd" clip-rule="evenodd" d="M94.6717 51.1405C94.6717 74.9405 75.3817 94.2305 51.5817 94.2305C27.7817 94.2305 8.49171 74.9405 8.49171 51.1405C8.49171 27.3405 27.7817 8.05055 51.5817 8.05055C75.3817 8.05055 94.6717 27.3405 94.6717 51.1405ZM51.5817 4.31055C77.4417 4.31055 98.4117 25.2805 98.4117 51.1405C98.4117 77.0005 77.4417 97.9706 51.5817 97.9706C25.7217 97.9706 4.75171 77.0005 4.75171 51.1405C4.75171 25.2805 25.7117 4.31055 51.5817 4.31055Z" fill="#F3C900"/>
<path d="M28.5217 74.8506V83.8306C28.5317 85.0306 29.3617 85.8406 30.5217 85.8306H74.5217V74.8506H28.5217Z" fill="#BE9556"/>
<path d="M30.5217 76.8506V81.8506C30.5517 82.9606 31.4417 83.8606 32.4817 83.8506H74.5217V76.8506H30.5217Z" fill="white"/>
<path opacity="0.2" d="M30.5217 76.8506V77.8506H74.5217V76.8506H30.5217Z" fill="#4F4D52"/>
<path opacity="0.2" d="M48.5217 76.8506L54.5217 83.8506H48.5217V76.8506Z" fill="#4F4D52"/>
<path d="M49.5217 87.8506L45.5217 85.8506L42.5217 87.8506V76.8506H49.5217V87.8506Z" fill="#EF6F59"/>
<path d="M74.5217 74.8506H28.5217V17.8506H74.5217V74.8506Z" fill="#FFFBBF"/>
<path fill-rule="evenodd" clip-rule="evenodd" d="M51.5217 68.8506C51.5217 69.9606 50.6317 70.8506 49.5217 70.8506H28.5217V74.8506H74.5217V20.8506L53.5217 22.8506C52.4117 22.8506 51.5217 23.7506 51.5217 24.8506V68.8506Z" fill="#FFF880"/>
<path d="M69.5419 70.8207H58.6619V38.3007C58.6619 37.1307 59.6119 36.1807 60.7819 36.1807H69.5319C70.7019 36.1807 71.6519 37.1307 71.6519 38.3007V68.7107C71.6619 69.8707 70.7119 70.8207 69.5419 70.8207Z" fill="url(#paint0_linear)"/>
<path d="M62.5018 70.8205H51.3518V46.8705C51.3518 45.8505 52.1818 45.0205 53.2018 45.0205H62.4918C63.5118 45.0205 64.3418 45.8505 64.3418 46.8705V68.9705C64.3518 69.9905 63.5218 70.8205 62.5018 70.8205Z" fill="url(#paint1_linear)"/>
<path d="M54.9618 70.821H46.7818C45.4518 70.821 44.3718 69.741 44.3718 68.411V55.911C44.3718 54.581 45.4518 53.501 46.7818 53.501H54.9618C56.2918 53.501 57.3718 54.581 57.3718 55.911V68.411C57.3718 69.751 56.2918 70.821 54.9618 70.821Z" fill="url(#paint2_linear)"/>
<path d="M30.8918 20.9605H34.4918V29.3105H32.5618V22.5105H30.8918V20.9605V20.9605ZM39.5318 29.4505C37.4818 29.4505 35.9518 27.8805 35.9518 25.1305C35.9518 22.3805 37.4818 20.8105 39.5318 20.8105C41.5918 20.8105 43.1118 22.3805 43.1118 25.1305C43.1018 27.8905 41.5918 29.4505 39.5318 29.4505ZM39.5318 27.8205C40.5018 27.8205 41.1618 27.0405 41.1618 25.1305C41.1618 23.2405 40.4918 22.4505 39.5318 22.4505C38.5818 22.4505 37.9118 23.2305 37.9118 25.1305C37.9018 27.0305 38.5718 27.8205 39.5318 27.8205ZM43.5918 20.9605H47.1918V29.3105H45.2618V22.5105H43.5918V20.9605Z" fill="black"/>
<path d="M30.8918 20.9605H34.4918V29.3105H32.5618V22.5105H30.8918V20.9605V20.9605ZM39.5318 29.4505C37.4818 29.4505 35.9518 27.8805 35.9518 25.1305C35.9518 22.3805 37.4818 20.8105 39.5318 20.8105C41.5918 20.8105 43.1118 22.3805 43.1118 25.1305C43.1018 27.8905 41.5918 29.4505 39.5318 29.4505ZM39.5318 27.8205C40.5018 27.8205 41.1618 27.0405 41.1618 25.1305C41.1618 23.2405 40.4918 22.4505 39.5318 22.4505C38.5818 22.4505 37.9118 23.2305 37.9118 25.1305C37.9018 27.0305 38.5718 27.8205 39.5318 27.8205ZM43.5918 20.9605H47.1918V29.3105H45.2618V22.5105H43.5918V20.9605Z" fill="#B9840C"/>
<defs>
<linearGradient id="paint0_linear" x1="65.0175" y1="39.3448" x2="65.2939" y2="68.0933" gradientUnits="userSpaceOnUse">
<stop offset="0.00753769" stop-color="#E0A310"/>
<stop offset="1" stop-color="#CA810E"/>
</linearGradient>
<linearGradient id="paint1_linear" x1="57.4982" y1="46.0262" x2="58.3275" y2="76.4329" gradientUnits="userSpaceOnUse">
<stop offset="0.00753769" stop-color="#F2CC40"/>
<stop offset="1" stop-color="#E7B116"/>
</linearGradient>
<linearGradient id="paint2_linear" x1="50.5658" y1="54.8426" x2="51.3951" y2="74.4686" gradientUnits="userSpaceOnUse">
<stop stop-color="#F8E17B"/>
<stop offset="0.5302" stop-color="#F6D856"/>
<stop offset="1" stop-color="#F6D856"/>
</linearGradient>
</defs>
</svg>
