<?xml version="1.0" encoding="UTF-8"?>
<svg width="100px" height="118px" viewBox="0 0 100 118" version="1.1" xmlns="http://www.w3.org/2000/svg" xmlns:xlink="http://www.w3.org/1999/xlink">
    <!-- Generator: Sketch 52.5 (67469) - http://www.bohemiancoding.com/sketch -->
    <title>Get Started with Marketing/get-started-with-marketing Copy</title>
    <desc>Created with Sketch.</desc>
    <defs>
        <path d="M42.7425,1.49663266 C44.3745,0.498877554 46.1865,0 48,0 C49.8135,0 51.627,0.498877554 53.256,1.49663266 L90.591,24.3316189 C93.933,26.3773408 96,30.2031485 96,34.3529027 L96,79.6470973 C96,83.7952317 93.933,87.6242789 90.591,89.6683811 L53.256,112.504987 C51.627,113.501122 49.8135,114 48,114 C46.1865,114 44.3745,113.501122 42.7425,112.504987 L5.409,89.6683811 C2.0655,87.6242789 0,83.7952317 0,79.6470973 L0,34.3529027 C0,30.2031485 2.0655,26.3773408 5.409,24.3316189 L42.7425,1.49663266 Z" id="path-1"></path>
        <filter x="-8.3%" y="-5.9%" width="116.7%" height="111.8%" filterUnits="objectBoundingBox" id="filter-3">
            <feOffset dx="0" dy="2" in="SourceAlpha" result="shadowOffsetOuter1"></feOffset>
            <feColorMatrix values="0 0 0 0 0   0 0 0 0 0   0 0 0 0 0  0 0 0 0.0963541667 0" type="matrix" in="shadowOffsetOuter1" result="shadowMatrixOuter1"></feColorMatrix>
            <feMerge>
                <feMergeNode in="shadowMatrixOuter1"></feMergeNode>
                <feMergeNode in="SourceGraphic"></feMergeNode>
            </feMerge>
        </filter>
        <path d="M14.2695809,39.0678267 L18.266682,39.0678267 L18.266682,48.3326304 L16.1225417,48.3326304 L16.1225417,40.7884331 L14.2695809,40.7884331 L14.2695809,39.0678267 Z M23.8520351,48.4914557 C21.5755404,48.4914557 19.8814049,46.7576138 19.8814049,43.7002286 C19.8814049,40.6428433 21.5755404,38.9090015 23.8520351,38.9090015 C26.1417651,38.9090015 27.8226653,40.6428433 27.8226653,43.7002286 C27.8226653,46.7576138 26.1417651,48.4914557 23.8520351,48.4914557 Z M23.8520351,46.6782012 C24.9241052,46.6782012 25.6652895,45.8046626 25.6652895,43.7002286 C25.6652895,41.5957946 24.9241052,40.7222559 23.8520351,40.7222559 C22.7932004,40.7222559 22.0520161,41.5957946 22.0520161,43.7002286 C22.0520161,45.8046626 22.7932004,46.6782012 23.8520351,46.6782012 Z M28.365318,39.0678267 L32.3624191,39.0678267 L32.3624191,48.3326304 L30.2182788,48.3326304 L30.2182788,40.7884331 L28.365318,40.7884331 L28.365318,39.0678267 Z" id="path-4"></path>
        <filter x="-0.7%" y="-1.3%" width="101.4%" height="105.2%" filterUnits="objectBoundingBox" id="filter-5">
            <feOffset dx="0" dy="0.25" in="SourceAlpha" result="shadowOffsetOuter1"></feOffset>
            <feColorMatrix values="0 0 0 0 1   0 0 0 0 1   0 0 0 0 1  0 0 0 0.249094203 0" type="matrix" in="shadowOffsetOuter1"></feColorMatrix>
        </filter>
        <filter x="-16.0%" y="-16.7%" width="132.0%" height="133.3%" filterUnits="objectBoundingBox" id="filter-6">
            <feOffset dx="0" dy="2" in="SourceAlpha" result="shadowOffsetOuter1"></feOffset>
            <feColorMatrix values="0 0 0 0 0   0 0 0 0 0   0 0 0 0 0  0 0 0 0.1 0" type="matrix" in="shadowOffsetOuter1" result="shadowMatrixOuter1"></feColorMatrix>
            <feMerge>
                <feMergeNode in="shadowMatrixOuter1"></feMergeNode>
                <feMergeNode in="SourceGraphic"></feMergeNode>
            </feMerge>
        </filter>
    </defs>
    <g id="Badges" stroke="none" stroke-width="1" fill="none" fill-rule="evenodd">
        <g id="Get-Started-with-Marketing" transform="translate(-50.000000, -50.000000)">
            <g id="Get-Started-with-Marketing/get-started-with-marketing-Copy" transform="translate(50.000000, 50.000000)">
                <g id="Mask" transform="translate(2.000000, 2.000000)">
                    <mask id="mask-2" fill="white">
                        <use xlink:href="#path-1"></use>
                    </mask>
                    <use id="Trophy-1" fill="#C0DDF4" xlink:href="#path-1"></use>
                    <g id="Book" filter="url(#filter-3)" mask="url(#mask-2)">
                        <g transform="translate(23.000000, 24.000000)">
                            <g id="Book" stroke-width="1" fill-rule="evenodd" transform="translate(0.167481, 0.387536)">
                                <path d="M0.832518557,55.6124645 L0.832518557,61.6124645 C0.839673316,62.8067453 1.6709668,63.6146507 2.83251856,63.6124645 L46.8325186,63.6124689 L46.8325186,55.6124645 L0.832518557,55.6124645 Z" id="Shape" fill="#FDBD0F" fill-rule="nonzero"></path>
                                <path d="M2.83251856,56.6124645 L2.83251856,60.6124645 C2.86672747,61.717521 3.75260508,62.6147293 4.78807411,62.6124645 L46.8325186,62.6124645 L46.8325186,56.6124645 L2.83251856,56.6124645 Z" id="Shape" fill="#FFFFFF" fill-rule="nonzero"></path>
                                <polygon id="Shape" fill="#4F4D52" fill-rule="nonzero" opacity="0.2" points="2.83251856 56.6124645 2.83251856 57.6124645 46.8325186 57.6124645 46.8325186 56.6124645"></polygon>
                                <polygon id="Shape" fill="#4F4D52" fill-rule="nonzero" opacity="0.2" points="20.8325186 56.6124645 26.8325186 62.6124645 20.8325186 62.6124645"></polygon>
                                <polygon id="Shape" fill="#DF5142" fill-rule="nonzero" points="21.8325186 66.6124645 17.8325186 64.6124645 14.8325186 66.6124645 14.8325186 56.6124645 21.8325186 56.6124645"></polygon>
                                <polygon id="Shape" fill="#FCD116" fill-rule="nonzero" points="46.8325186 55.6124645 0.832518557 55.6124645 0.832518557 0.612464493 46.8325186 0.612464493"></polygon>
                                <path d="M23.8325186,51.6124645 C23.8325186,52.7164645 22.9384486,53.6124645 21.8325186,53.6124645 L0.832518557,53.6124645 L0.832518557,55.6124645 L46.8325186,55.6124645 L46.8325186,3.61246449 L25.8325186,3.61246449 C24.7265885,3.61246449 23.8325186,4.50746449 23.8325186,5.61246449 L23.8325186,51.6124645 Z" id="Fill-361" fill="#FDBD0F"></path>
                            </g>
                            <g id="101">
                                <use fill="black" fill-opacity="1" filter="url(#filter-5)" xlink:href="#path-4"></use>
                                <use fill="#FFFFFF" fill-rule="evenodd" xlink:href="#path-4"></use>
                            </g>
                        </g>
                    </g>
                    <g id="Bullhorn" filter="url(#filter-6)" mask="url(#mask-2)">
                        <g transform="translate(34.000000, 33.000000)">
                            <path d="M20.8592158,6.30176295 L20.8592158,13.3707893 C22.6883908,13.1917366 24.1217158,11.6751182 24.1217158,9.83627611 C24.1217158,7.997434 22.6883908,6.48081558 20.8592158,6.30176295" id="Fill-476" fill="#C5CCCD" transform="translate(22.490466, 9.836276) rotate(-15.000000) translate(-22.490466, -9.836276) "></path>
                            <path d="M3.58618342,16.5416031 L3.58618342,12.2784452 L1.41118342,12.2784452 C1.01062092,12.2784452 0.686183418,12.596761 0.686183418,12.9889715 L0.686183418,17.2521294 C0.686183418,17.64434 1.01062092,17.9626558 1.41118342,17.9626558 L3.58618342,17.9626558 L3.58618342,16.5416031" id="Fill-477" fill="#30404D" transform="translate(2.136183, 15.120550) rotate(-15.000000) translate(-2.136183, -15.120550) "></path>
                            <path d="M19.7663698,0.833825439 L19.0326698,0.833825439 C18.0202073,0.834180702 17.5939073,1.10595702 17.4594198,1.22212807 L11.6851573,5.86754912 C11.5176823,6.00254912 11.4201698,6.20398333 11.4201698,6.41678596 L11.4201698,15.1456018 C11.4201698,15.3584044 11.5176823,15.5598386 11.6851573,15.6948386 L17.4412948,20.3253386 C17.5939073,20.4564307 18.0202073,20.728207 19.0326698,20.7285623 L19.7663698,20.7285623 C20.1633073,20.7232333 20.4826698,20.4070491 20.4826698,20.018036 L20.4826698,1.54435175 C20.4826698,1.1553386 20.1633073,0.839154386 19.7663698,0.833825439" id="Fill-478" fill="#E1E4E1" transform="translate(15.951420, 10.781194) rotate(-15.000000) translate(-15.951420, -10.781194) "></path>
                            <path d="M11.6236346,22.636599 C11.6236346,22.9723885 11.1848846,23.2471254 10.6486346,23.2471254 L8.69863455,23.2471254 C8.16238455,23.2471254 7.72363455,22.9723885 7.72363455,22.636599 L7.72363455,17.7523885 C7.72363455,17.416599 8.16238455,17.1418622 8.69863455,17.1418622 L10.6486346,17.1418622 C11.1848846,17.1418622 11.6236346,17.416599 11.6236346,17.7523885 L11.6236346,22.636599" id="Fill-480" fill="#E1E4E1" transform="translate(9.673635, 20.194494) rotate(-15.000000) translate(-9.673635, -20.194494) "></path>
                            <path d="M20.2748646,-0.151304552 C19.8743021,-0.151304552 19.5498646,-0.151304552 19.5498646,-0.151304552 L19.5498646,19.7434323 C19.5498646,19.7434323 19.8743021,19.7434323 20.2748646,19.7434323 C20.6750646,19.7434323 20.9998646,19.4251165 20.9998646,19.032906 L20.9998646,0.559221764 C20.9998646,0.167011238 20.6750646,-0.151304552 20.2748646,-0.151304552" id="Fill-481" fill="#546670" transform="translate(20.274865, 9.796064) rotate(-15.000000) translate(-20.274865, -9.796064) "></path>
                            <path d="M3.12670965,10.1817895 L3.12670965,15.866 C3.12670965,17.0415658 4.10219715,17.997579 5.30170965,17.997579 L12.5517097,17.997579 L12.5517097,8.05021057 L5.30170965,8.05021057 C4.10219715,8.05021057 3.12670965,9.00622373 3.12670965,10.1817895 Z" id="Fill-486" fill="#DF5142" transform="translate(7.839210, 13.023895) rotate(-15.000000) translate(-7.839210, -13.023895) "></path>
                            <path d="M4.13814724,15.7328418 C4.13814724,16.9084075 5.11363474,17.8644207 6.31314724,17.8644207 L13.5631472,17.8644207 L13.5163258,15.7410781 L4.13814724,15.7328418 Z" id="Fill-486" fill="#C2423D" transform="translate(8.850647, 16.798631) rotate(-15.000000) translate(-8.850647, -16.798631) "></path>
                        </g>
                    </g>
                </g>
                <g id="Azure-Hex-Border" stroke="#0078D4" stroke-width="4">
                    <path d="M45.5620146,3.25834407 L6.67338401,26.8942953 C3.79673288,28.6432593 2,31.9508238 2,35.5582677 L2,82.4417323 C2,86.0486597 3.79764663,89.3586805 6.67318764,91.1055853 L45.560618,114.742485 C46.9289662,115.572418 48.4546283,116 50,116 C51.5458817,116 53.0723633,115.572188 54.4362178,114.743457 L93.3268764,91.1055464 C96.2016145,89.3583456 98,86.0476286 98,82.4417323 L98,35.5582677 C98,31.9518547 96.202529,28.6435953 93.3268966,26.8944659 L54.4351916,3.25759524 C53.0721095,2.42798656 51.5462432,2 50,2 C48.4543284,2 46.9293388,2.42772325 45.5620146,3.25834407 Z M45.5620146,3.25834407 C45.5619597,3.25837737 45.5619049,3.25841067 45.5618501,3.25844398 L45.5621963,3.25823359 L45.5620146,3.25834407 Z"></path>
                </g>
            </g>
        </g>
    </g>
</svg>