<svg width="103" height="103" viewBox="0 0 103 103" fill="none" xmlns="http://www.w3.org/2000/svg">
<path d="M51.8535 98.0353C26.0035 98.0353 5.04346 77.0853 5.04346 51.2253C5.04346 25.3653 26.0035 4.41528 51.8535 4.41528C77.7035 4.41528 98.6635 25.3753 98.6635 51.2253C98.6635 77.0753 77.7035 98.0353 51.8535 98.0353Z" fill="url(#paint0_linear)"/>
<path fill-rule="evenodd" clip-rule="evenodd" d="M97.7535 51.2254C97.7535 76.5754 77.2035 97.1255 51.8535 97.1255C26.5035 97.1255 5.9535 76.5754 5.9535 51.2254C5.9535 25.8754 26.5035 5.32545 51.8535 5.32545C77.2035 5.32545 97.7535 25.8754 97.7535 51.2254ZM51.8535 1.58545C79.2735 1.58545 101.493 23.8054 101.493 51.2254C101.493 78.6454 79.2635 100.865 51.8535 100.865C24.4335 100.865 2.2135 78.6354 2.2135 51.2254C2.2135 23.8054 24.4335 1.58545 51.8535 1.58545Z" fill="#F2F1F0"/>
<path fill-rule="evenodd" clip-rule="evenodd" d="M94.9436 51.2253C94.9436 75.0253 75.6536 94.3153 51.8536 94.3153C28.0536 94.3153 8.76356 75.0253 8.76356 51.2253C8.76356 27.4253 28.0536 8.13526 51.8536 8.13526C75.6536 8.13526 94.9436 27.4253 94.9436 51.2253ZM51.8536 4.39526C77.7136 4.39526 98.6836 25.3653 98.6836 51.2253C98.6836 77.0853 77.7136 98.0553 51.8536 98.0553C25.9936 98.0553 5.02356 77.0853 5.02356 51.2253C5.02356 25.3653 25.9836 4.39526 51.8536 4.39526Z" fill="#0078D4"/>
<path d="M52.3937 89.8153C46.4837 89.8153 40.9337 85.8653 36.7537 78.6853C32.5537 71.4853 30.2337 61.8853 30.2237 51.6553C30.2137 41.4353 32.5037 31.8153 36.6837 24.5453C40.8637 17.2653 46.4437 13.2353 52.3837 13.2053C52.4137 13.2053 52.4337 13.2053 52.4637 13.2053C58.3737 13.2053 63.9237 17.1553 68.1037 24.3353C72.3037 31.5453 74.6237 41.1453 74.6337 51.3653C74.6437 61.5853 72.3537 71.2053 68.1737 78.4753C63.9937 85.7453 58.4237 89.7653 52.4737 89.8153C52.4437 89.8153 52.4237 89.8153 52.3937 89.8153ZM52.4537 13.3253C52.4237 13.3253 52.4037 13.3253 52.3737 13.3253C46.4737 13.3653 40.9437 17.3653 36.7737 24.6053C32.6037 31.8553 30.3237 41.4553 30.3337 51.6553C30.3537 61.8653 32.6637 71.4353 36.8537 78.6253C41.0137 85.7653 46.5237 89.6953 52.3937 89.6953C52.4237 89.6953 52.4437 89.6953 52.4737 89.6953C58.3737 89.6453 63.9137 85.6453 68.0737 78.4153C72.2437 71.1653 74.5237 61.5653 74.5137 51.3653C74.5037 41.1753 72.1837 31.5953 68.0037 24.3953C63.8437 17.2553 58.3237 13.3253 52.4537 13.3253Z" fill="#F4F4F4"/>
<path d="M52.3935 89.9854C46.4135 89.9854 40.8035 86.0054 36.5935 78.7654C32.3835 71.5354 30.0535 61.9054 30.0435 51.6454C30.0335 41.3954 32.3335 31.7354 36.5235 24.4454C40.7435 17.1054 46.3735 13.0454 52.3735 13.0154C52.4035 13.0154 52.4235 13.0154 52.4535 13.0154C58.4335 13.0154 64.0435 16.9954 68.2535 24.2354C72.4635 31.4754 74.7935 41.1054 74.8035 51.3554C74.8135 61.6054 72.5135 71.2654 68.3235 78.5554C64.1135 85.8754 58.4835 89.9354 52.4735 89.9854C52.4435 89.9854 52.4235 89.9854 52.3935 89.9854ZM52.4535 13.5054C52.4235 13.5054 52.4035 13.5054 52.3735 13.5054C46.5435 13.5454 41.0635 17.5154 36.9335 24.6954C32.7835 31.9154 30.5035 41.4854 30.5135 51.6554C30.5235 61.8254 32.8335 71.3754 37.0035 78.5354C41.1235 85.6154 46.5835 89.5154 52.3935 89.5154C52.4235 89.5154 52.4435 89.5154 52.4735 89.5154C58.3135 89.4654 63.7935 85.4954 67.9135 78.3254C72.0635 71.1054 74.3435 61.5354 74.3335 51.3654C74.3235 41.2054 72.0135 31.6554 67.8435 24.4854C63.7235 17.4054 58.2535 13.5054 52.4535 13.5054Z" fill="white"/>
<path d="M67.9735 78.8853C59.6235 78.8853 50.1635 76.0753 41.3335 70.9653C32.4535 65.8253 25.2435 58.9853 21.0535 51.7153C16.8235 44.3753 16.1335 37.4753 19.1035 32.2653C22.0835 27.0353 28.3535 24.1553 36.7635 24.1453C36.7835 24.1453 36.8035 24.1453 36.8135 24.1453C45.2035 24.1453 54.6735 26.9553 63.5035 32.0653C72.3935 37.2053 79.5935 44.0453 83.7935 51.3153C88.0235 58.6453 88.7135 65.5453 85.7435 70.7653C82.7735 75.9753 76.5035 78.8653 68.0835 78.8853C68.0535 78.8853 68.0135 78.8853 67.9735 78.8853ZM36.8135 24.6253C36.7935 24.6253 36.7835 24.6253 36.7635 24.6253C28.5335 24.6353 22.4035 27.4353 19.5235 32.5053C16.6335 37.5553 17.3235 44.2853 21.4735 51.4753C25.6235 58.6753 32.7635 65.4453 41.5835 70.5453C50.3735 75.6353 59.7935 78.4253 68.0935 78.3953C76.3335 78.3753 82.4535 75.5753 85.3335 70.5153C88.2135 65.4553 87.5235 58.7253 83.3835 51.5453C79.2335 44.3453 72.0935 37.5753 63.2735 32.4753C54.5135 27.4153 45.1235 24.6253 36.8135 24.6253Z" fill="white"/>
<path d="M52.3937 20.3054H52.2737V75.5854H52.3937V20.3054Z" fill="white"/>
<path d="M78.6735 67.0154L25.3635 35.9454L25.4235 35.8354L78.7535 66.8755L78.6735 67.0154Z" fill="white"/>
<path d="M79.5921 35.8847L25.1936 67.0654L25.298 67.2476L79.6966 36.0669L79.5921 35.8847Z" fill="white"/>
<path d="M79.3035 66.5153C79.6535 66.7153 79.6535 67.0453 79.3035 67.2353C78.9535 67.4253 78.4035 67.4353 78.0635 67.2353C77.7135 67.0353 77.7135 66.7053 78.0635 66.5153C78.4035 66.3253 78.9635 66.3253 79.3035 66.5153Z" fill="white"/>
<path d="M79.7935 35.7854C80.1435 35.9854 80.1435 36.3154 79.7935 36.5054C79.4435 36.6954 78.8935 36.7054 78.5535 36.5054C78.2035 36.3054 78.2035 35.9754 78.5535 35.7854C78.8935 35.5754 79.4435 35.5754 79.7935 35.7854Z" fill="white"/>
<path d="M26.0836 66.6154C26.4336 66.8154 26.4336 67.1454 26.0836 67.3354C25.7336 67.5354 25.1836 67.5354 24.8436 67.3354C24.4936 67.1354 24.4936 66.8054 24.8436 66.6154C25.1736 66.4254 25.7436 66.4254 26.0836 66.6154Z" fill="white"/>
<path d="M62.1336 56.5155C62.4836 56.7155 62.4836 57.0455 62.1336 57.2355C61.7836 57.4355 61.2336 57.4355 60.8936 57.2355C60.5436 57.0355 60.5436 56.7055 60.8936 56.5155C61.2436 56.3155 61.7936 56.3155 62.1336 56.5155Z" fill="white"/>
<path d="M69.5337 60.8155C69.8837 61.0155 69.8837 61.3455 69.5337 61.5355C69.1837 61.7255 68.6337 61.7355 68.2937 61.5355C67.9537 61.3355 67.9437 61.0055 68.2937 60.8155C68.6337 60.6255 69.1837 60.6155 69.5337 60.8155Z" fill="white"/>
<path d="M52.9637 28.8053C53.3137 29.0053 53.3137 29.3353 52.9637 29.5253C52.6137 29.7253 52.0637 29.7253 51.7237 29.5253C51.3737 29.3253 51.3737 28.9953 51.7237 28.8053C52.0637 28.6053 52.6137 28.6053 52.9637 28.8053Z" fill="white"/>
<path d="M52.9637 19.8954C53.3137 20.0954 53.3137 20.4254 52.9637 20.6154C52.6137 20.8154 52.0637 20.8154 51.7237 20.6154C51.3737 20.4154 51.3737 20.0854 51.7237 19.8954C52.0637 19.7054 52.6137 19.7054 52.9637 19.8954Z" fill="white"/>
<path d="M52.9737 35.6654C53.3237 35.8654 53.3237 36.1955 52.9737 36.3855C52.6237 36.5855 52.0737 36.5855 51.7337 36.3855C51.3837 36.1855 51.3837 35.8554 51.7337 35.6654C52.0837 35.4754 52.6237 35.4754 52.9737 35.6654Z" fill="white"/>
<path d="M85.7436 32.2653C82.7736 27.0553 76.5036 24.1653 68.0836 24.1453C68.0436 24.1453 68.0136 24.1453 67.9736 24.1453C59.6336 24.1453 50.1736 26.9553 41.3336 32.0653C32.4536 37.1953 25.2436 44.0353 21.0336 51.3153C16.8036 58.6353 16.1136 65.5453 19.0936 70.7653C22.0636 75.9753 28.3336 78.8653 36.7536 78.8853V78.7653C36.7936 78.7653 36.8236 78.7653 36.8636 78.7653C45.1636 78.7653 54.6936 76.0353 63.4736 70.9753C63.4836 70.9753 63.5736 70.9153 63.5736 70.9153C63.5836 70.9053 63.5936 70.9053 63.6036 70.8953C66.6536 69.1253 69.5236 67.1453 72.1436 65.0053C77.0436 61.0053 81.0736 56.4053 83.7836 51.7153C88.0236 44.3753 88.7136 37.4753 85.7436 32.2653ZM83.3836 51.4653C80.6936 56.1053 76.7136 60.6553 71.8536 64.6253C69.2336 66.7653 66.3636 68.7453 63.3136 70.5053C54.5436 75.5653 45.1536 78.5053 36.8736 78.5053C36.8336 78.5053 36.8036 78.5053 36.7636 78.5053V78.3853C28.5236 78.3653 22.4036 75.5653 19.5236 70.5053C16.6336 65.4353 17.3236 58.7053 21.4536 51.5353C25.6136 44.3253 32.7636 37.5553 41.5736 32.4653C50.3436 27.3953 59.7136 24.6153 67.9736 24.6153C68.0136 24.6153 68.0436 24.6153 68.0836 24.6153C76.3236 24.6353 82.4436 27.4353 85.3236 32.4953C88.2136 37.5553 87.5236 44.2953 83.3836 51.4653Z" fill="white"/>
<path d="M26.5437 35.7953C26.8937 35.9953 26.8937 36.3253 26.5437 36.5153C26.1937 36.7153 25.6437 36.7153 25.3037 36.5153C24.9637 36.3153 24.9537 35.9853 25.3037 35.7953C25.6337 35.5953 26.1937 35.5953 26.5437 35.7953Z" fill="white"/>
<path d="M35.4036 40.9453C35.7536 41.1453 35.7536 41.4753 35.4036 41.6653C35.0536 41.8653 34.5036 41.8653 34.1636 41.6653C33.8136 41.4653 33.8136 41.1353 34.1636 40.9453C34.5036 40.7353 35.0536 40.7353 35.4036 40.9453Z" fill="white"/>
<path d="M43.2237 45.7655C43.5737 45.9655 43.5737 46.2955 43.2237 46.4855C42.8737 46.6855 42.3237 46.6855 41.9837 46.4855C41.6337 46.2855 41.6337 45.9555 41.9837 45.7655C42.3337 45.5655 42.8937 45.5655 43.2237 45.7655Z" fill="white"/>
<path d="M31.6438 66.0755C27.0938 66.0755 23.3938 62.3755 23.3938 57.8255C23.3938 53.9555 26.1238 50.6155 29.8438 49.8055C29.6138 48.6855 29.4938 47.5855 29.4938 46.5355C29.5338 37.7855 36.6638 30.6755 45.4038 30.6755C51.0438 30.6755 56.2538 33.6955 59.1238 38.5855C60.3838 38.0555 61.7438 37.7855 63.0938 37.7855C68.7038 37.7855 73.2638 42.3455 73.2638 47.9455C73.2638 48.4955 73.2138 49.0755 73.1138 49.6555C73.1538 49.6555 73.1938 49.6555 73.2438 49.6555C77.8038 49.6555 81.4638 53.3255 81.4638 57.8355C81.4638 62.3855 77.7638 66.0855 73.2138 66.0855H31.6438V66.0755Z" fill="url(#paint1_linear)"/>
<path d="M45.3937 31.2754C51.2037 31.2754 56.2637 34.5554 58.8637 39.3554C60.1237 38.7454 61.5737 38.3854 63.0837 38.3854C68.3537 38.3854 72.6537 42.6754 72.6537 47.9454C72.6537 48.7354 72.5437 49.5354 72.3637 50.2954C72.6537 50.2554 72.9437 50.2554 73.2337 50.2554C73.2537 50.2554 73.2737 50.2554 73.3037 50.2554C77.4637 50.2554 80.8537 53.6354 80.8537 57.8354C80.8537 62.0554 77.4237 65.4854 73.2037 65.4854H31.6437C27.4237 65.4854 23.9937 62.0554 23.9937 57.8354C23.9937 53.9754 26.8437 50.7954 30.5637 50.2954C30.2737 49.1054 30.0937 47.8454 30.0937 46.5454C30.1237 38.0954 36.9537 31.2754 45.3937 31.2754ZM45.3937 30.0754C36.3337 30.0754 28.9237 37.4554 28.8837 46.5354C28.8837 47.4554 28.9637 48.4054 29.1337 49.3654C25.4337 50.4354 22.7837 53.8754 22.7837 57.8254C22.7837 62.7054 26.7537 66.6754 31.6337 66.6754H73.1937C78.0737 66.6754 82.0437 62.7054 82.0437 57.8254C82.0437 53.1554 78.3837 49.3154 73.7837 49.0654C73.8237 48.6854 73.8437 48.3154 73.8437 47.9454C73.8437 42.0154 69.0137 37.1854 63.0737 37.1854C61.8137 37.1854 60.5437 37.4154 59.3537 37.8454C56.3437 33.0254 51.0837 30.0754 45.3937 30.0754Z" fill="white"/>
<path d="M61.1436 57.0453H61.1336H58.2536V54.1553H56.5636V57.0453H53.6736V58.7353H56.5636V61.6153H58.2536V58.7353H61.1436V57.0453Z" fill="#F2F2F2"/>
<path d="M44.2436 45.1054C44.5474 45.1054 44.7936 44.8591 44.7936 44.5554C44.7936 44.2516 44.5474 44.0054 44.2436 44.0054C43.9398 44.0054 43.6936 44.2516 43.6936 44.5554C43.6936 44.8591 43.9398 45.1054 44.2436 45.1054Z" fill="#F2F2F2"/>
<path d="M46.7736 45.1054C47.0774 45.1054 47.3236 44.8591 47.3236 44.5554C47.3236 44.2516 47.0774 44.0054 46.7736 44.0054C46.4699 44.0054 46.2236 44.2516 46.2236 44.5554C46.2236 44.8591 46.4699 45.1054 46.7736 45.1054Z" fill="#F2F2F2"/>
<path d="M49.3037 45.1054C49.6074 45.1054 49.8537 44.8591 49.8537 44.5554C49.8537 44.2516 49.6074 44.0054 49.3037 44.0054C48.9999 44.0054 48.7537 44.2516 48.7537 44.5554C48.7537 44.8591 48.9999 45.1054 49.3037 45.1054Z" fill="#F2F2F2"/>
<path d="M51.8337 45.1054C52.1374 45.1054 52.3837 44.8591 52.3837 44.5554C52.3837 44.2516 52.1374 44.0054 51.8337 44.0054C51.5299 44.0054 51.2837 44.2516 51.2837 44.5554C51.2837 44.8591 51.5299 45.1054 51.8337 45.1054Z" fill="#F2F2F2"/>
<path d="M54.3537 45.1054C54.6575 45.1054 54.9037 44.8591 54.9037 44.5554C54.9037 44.2516 54.6575 44.0054 54.3537 44.0054C54.05 44.0054 53.8037 44.2516 53.8037 44.5554C53.8037 44.8591 54.05 45.1054 54.3537 45.1054Z" fill="#F2F2F2"/>
<path d="M56.8835 45.1054C57.1873 45.1054 57.4335 44.8591 57.4335 44.5554C57.4335 44.2516 57.1873 44.0054 56.8835 44.0054C56.5797 44.0054 56.3335 44.2516 56.3335 44.5554C56.3335 44.8591 56.5797 45.1054 56.8835 45.1054Z" fill="#F2F2F2"/>
<path d="M44.2436 50.1654C44.5474 50.1654 44.7936 49.9192 44.7936 49.6154C44.7936 49.3117 44.5474 49.0654 44.2436 49.0654C43.9398 49.0654 43.6936 49.3117 43.6936 49.6154C43.6936 49.9192 43.9398 50.1654 44.2436 50.1654Z" fill="#F2F2F2"/>
<path d="M46.7736 50.1654C47.0774 50.1654 47.3236 49.9192 47.3236 49.6154C47.3236 49.3117 47.0774 49.0654 46.7736 49.0654C46.4699 49.0654 46.2236 49.3117 46.2236 49.6154C46.2236 49.9192 46.4699 50.1654 46.7736 50.1654Z" fill="#F2F2F2"/>
<path d="M49.3037 50.1654C49.6074 50.1654 49.8537 49.9192 49.8537 49.6154C49.8537 49.3117 49.6074 49.0654 49.3037 49.0654C48.9999 49.0654 48.7537 49.3117 48.7537 49.6154C48.7537 49.9192 48.9999 50.1654 49.3037 50.1654Z" fill="#F2F2F2"/>
<path d="M51.8337 50.1654C52.1374 50.1654 52.3837 49.9192 52.3837 49.6154C52.3837 49.3117 52.1374 49.0654 51.8337 49.0654C51.5299 49.0654 51.2837 49.3117 51.2837 49.6154C51.2837 49.9192 51.5299 50.1654 51.8337 50.1654Z" fill="#F2F2F2"/>
<path d="M54.3537 50.1654C54.6575 50.1654 54.9037 49.9192 54.9037 49.6154C54.9037 49.3117 54.6575 49.0654 54.3537 49.0654C54.05 49.0654 53.8037 49.3117 53.8037 49.6154C53.8037 49.9192 54.05 50.1654 54.3537 50.1654Z" fill="#F2F2F2"/>
<path d="M56.8835 50.1654C57.1873 50.1654 57.4335 49.9192 57.4335 49.6154C57.4335 49.3117 57.1873 49.0654 56.8835 49.0654C56.5797 49.0654 56.3335 49.3117 56.3335 49.6154C56.3335 49.9192 56.5797 50.1654 56.8835 50.1654Z" fill="#F2F2F2"/>
<path d="M44.2436 47.6354C44.5474 47.6354 44.7936 47.3892 44.7936 47.0854C44.7936 46.7816 44.5474 46.5354 44.2436 46.5354C43.9398 46.5354 43.6936 46.7816 43.6936 47.0854C43.6936 47.3892 43.9398 47.6354 44.2436 47.6354Z" fill="#F2F2F2"/>
<path d="M46.7736 47.6354C47.0774 47.6354 47.3236 47.3892 47.3236 47.0854C47.3236 46.7816 47.0774 46.5354 46.7736 46.5354C46.4699 46.5354 46.2236 46.7816 46.2236 47.0854C46.2236 47.3892 46.4699 47.6354 46.7736 47.6354Z" fill="#F2F2F2"/>
<path d="M49.3037 47.6354C49.6074 47.6354 49.8537 47.3892 49.8537 47.0854C49.8537 46.7816 49.6074 46.5354 49.3037 46.5354C48.9999 46.5354 48.7537 46.7816 48.7537 47.0854C48.7537 47.3892 48.9999 47.6354 49.3037 47.6354Z" fill="#F2F2F2"/>
<path d="M51.8337 47.6354C52.1374 47.6354 52.3837 47.3892 52.3837 47.0854C52.3837 46.7816 52.1374 46.5354 51.8337 46.5354C51.5299 46.5354 51.2837 46.7816 51.2837 47.0854C51.2837 47.3892 51.5299 47.6354 51.8337 47.6354Z" fill="#F2F2F2"/>
<path d="M54.3537 47.6354C54.6575 47.6354 54.9037 47.3892 54.9037 47.0854C54.9037 46.7816 54.6575 46.5354 54.3537 46.5354C54.05 46.5354 53.8037 46.7816 53.8037 47.0854C53.8037 47.3892 54.05 47.6354 54.3537 47.6354Z" fill="#F2F2F2"/>
<path d="M56.8835 47.6354C57.1873 47.6354 57.4335 47.3892 57.4335 47.0854C57.4335 46.7816 57.1873 46.5354 56.8835 46.5354C56.5797 46.5354 56.3335 46.7816 56.3335 47.0854C56.3335 47.3892 56.5797 47.6354 56.8835 47.6354Z" fill="#F2F2F2"/>
<path d="M44.2436 52.6955C44.5474 52.6955 44.7936 52.4492 44.7936 52.1455C44.7936 51.8417 44.5474 51.5955 44.2436 51.5955C43.9398 51.5955 43.6936 51.8417 43.6936 52.1455C43.6936 52.4492 43.9398 52.6955 44.2436 52.6955Z" fill="#F2F2F2"/>
<path d="M46.7736 52.6955C47.0774 52.6955 47.3236 52.4492 47.3236 52.1455C47.3236 51.8417 47.0774 51.5955 46.7736 51.5955C46.4699 51.5955 46.2236 51.8417 46.2236 52.1455C46.2236 52.4492 46.4699 52.6955 46.7736 52.6955Z" fill="#F2F2F2"/>
<path d="M49.3037 52.6955C49.6074 52.6955 49.8537 52.4492 49.8537 52.1455C49.8537 51.8417 49.6074 51.5955 49.3037 51.5955C48.9999 51.5955 48.7537 51.8417 48.7537 52.1455C48.7537 52.4492 48.9999 52.6955 49.3037 52.6955Z" fill="#F2F2F2"/>
<path d="M51.8337 52.6955C52.1374 52.6955 52.3837 52.4492 52.3837 52.1455C52.3837 51.8417 52.1374 51.5955 51.8337 51.5955C51.5299 51.5955 51.2837 51.8417 51.2837 52.1455C51.2837 52.4492 51.5299 52.6955 51.8337 52.6955Z" fill="#F2F2F2"/>
<path d="M54.3537 52.6955C54.6575 52.6955 54.9037 52.4492 54.9037 52.1455C54.9037 51.8417 54.6575 51.5955 54.3537 51.5955C54.05 51.5955 53.8037 51.8417 53.8037 52.1455C53.8037 52.4492 54.05 52.6955 54.3537 52.6955Z" fill="#F2F2F2"/>
<path d="M56.8835 52.6955C57.1873 52.6955 57.4335 52.4492 57.4335 52.1455C57.4335 51.8417 57.1873 51.5955 56.8835 51.5955C56.5797 51.5955 56.3335 51.8417 56.3335 52.1455C56.3335 52.4492 56.5797 52.6955 56.8835 52.6955Z" fill="#F2F2F2"/>
<path d="M44.2436 55.2155C44.5474 55.2155 44.7936 54.9692 44.7936 54.6655C44.7936 54.3617 44.5474 54.1155 44.2436 54.1155C43.9398 54.1155 43.6936 54.3617 43.6936 54.6655C43.6936 54.9692 43.9398 55.2155 44.2436 55.2155Z" fill="#F2F2F2"/>
<path d="M46.7736 55.2155C47.0774 55.2155 47.3236 54.9692 47.3236 54.6655C47.3236 54.3617 47.0774 54.1155 46.7736 54.1155C46.4699 54.1155 46.2236 54.3617 46.2236 54.6655C46.2236 54.9692 46.4699 55.2155 46.7736 55.2155Z" fill="#F2F2F2"/>
<path d="M49.3037 55.2155C49.6074 55.2155 49.8537 54.9692 49.8537 54.6655C49.8537 54.3617 49.6074 54.1155 49.3037 54.1155C48.9999 54.1155 48.7537 54.3617 48.7537 54.6655C48.7537 54.9692 48.9999 55.2155 49.3037 55.2155Z" fill="#F2F2F2"/>
<path d="M51.8337 55.2155C52.1374 55.2155 52.3837 54.9692 52.3837 54.6655C52.3837 54.3617 52.1374 54.1155 51.8337 54.1155C51.5299 54.1155 51.2837 54.3617 51.2837 54.6655C51.2837 54.9692 51.5299 55.2155 51.8337 55.2155Z" fill="#F2F2F2"/>
<path d="M54.3537 55.2155C54.6575 55.2155 54.9037 54.9692 54.9037 54.6655C54.9037 54.3617 54.6575 54.1155 54.3537 54.1155C54.05 54.1155 53.8037 54.3617 53.8037 54.6655C53.8037 54.9692 54.05 55.2155 54.3537 55.2155Z" fill="#F2F2F2"/>
<path d="M44.2436 57.7453C44.5474 57.7453 44.7936 57.499 44.7936 57.1953C44.7936 56.8915 44.5474 56.6453 44.2436 56.6453C43.9398 56.6453 43.6936 56.8915 43.6936 57.1953C43.6936 57.499 43.9398 57.7453 44.2436 57.7453Z" fill="#F2F2F2"/>
<path d="M46.7736 57.7453C47.0774 57.7453 47.3236 57.499 47.3236 57.1953C47.3236 56.8915 47.0774 56.6453 46.7736 56.6453C46.4699 56.6453 46.2236 56.8915 46.2236 57.1953C46.2236 57.499 46.4699 57.7453 46.7736 57.7453Z" fill="#F2F2F2"/>
<path d="M49.3037 57.7453C49.6074 57.7453 49.8537 57.499 49.8537 57.1953C49.8537 56.8915 49.6074 56.6453 49.3037 56.6453C48.9999 56.6453 48.7537 56.8915 48.7537 57.1953C48.7537 57.499 48.9999 57.7453 49.3037 57.7453Z" fill="#F2F2F2"/>
<path d="M51.8337 57.7453C52.1374 57.7453 52.3837 57.499 52.3837 57.1953C52.3837 56.8915 52.1374 56.6453 51.8337 56.6453C51.5299 56.6453 51.2837 56.8915 51.2837 57.1953C51.2837 57.499 51.5299 57.7453 51.8337 57.7453Z" fill="#F2F2F2"/>
<defs>
<linearGradient id="paint0_linear" x1="50.0836" y1="-13.5648" x2="54.0656" y2="132.205" gradientUnits="userSpaceOnUse">
<stop stop-color="#00ABDE"/>
<stop offset="1" stop-color="#007ED8"/>
</linearGradient>
<linearGradient id="paint1_linear" x1="45.5279" y1="27.6003" x2="61.0023" y2="95.4708" gradientUnits="userSpaceOnUse">
<stop stop-color="#007ED8"/>
<stop offset="0.7065" stop-color="#002D4C"/>
</linearGradient>
</defs>
</svg>
