<?xml version="1.0" encoding="UTF-8"?>
<svg width="102px" height="102px" viewBox="0 0 102 102" version="1.1" xmlns="http://www.w3.org/2000/svg" xmlns:xlink="http://www.w3.org/1999/xlink">
    <title>NA/get-started-with-ai-builder-licensing</title>
    <defs>
        <rect id="path-1" x="0" y="0" width="94.3396226" height="94.3396226" rx="47.1698113"></rect>
        <filter x="-2.9%" y="-2.9%" width="106.4%" height="106.4%" filterUnits="objectBoundingBox" id="filter-3">
            <feMorphology radius="2.5" operator="dilate" in="SourceAlpha" result="shadowSpreadOuter1"></feMorphology>
            <feOffset dx="0.5" dy="0.5" in="shadowSpreadOuter1" result="shadowOffsetOuter1"></feOffset>
            <feMorphology radius="1" operator="erode" in="SourceAlpha" result="shadowInner"></feMorphology>
            <feOffset dx="0.5" dy="0.5" in="shadowInner" result="shadowInner"></feOffset>
            <feComposite in="shadowOffsetOuter1" in2="shadowInner" operator="out" result="shadowOffsetOuter1"></feComposite>
            <feColorMatrix values="0 0 0 0 0.821822822   0 0 0 0 0.831640661   0 0 0 0 0.835737288  0 0 0 1 0" type="matrix" in="shadowOffsetOuter1"></feColorMatrix>
        </filter>
        <linearGradient x1="77.8299825%" y1="11.1997378%" x2="-99.6885927%" y2="253.807911%" id="linearGradient-4">
            <stop stop-color="#FFFFFF" offset="0%"></stop>
            <stop stop-color="#000000" stop-opacity="0.5" offset="100%"></stop>
        </linearGradient>
        <rect id="path-5" x="0" y="0" width="94.3396226" height="94.3396226"></rect>
        <path d="M47.1698113,0 C73.2209788,0 94.3396226,21.1186439 94.3396226,47.1698113 C94.3396226,73.2209788 73.2209788,94.3396226 47.1698113,94.3396226 C21.1186439,94.3396226 0,73.2209788 0,47.1698113 C0,21.1186439 21.1186439,0 47.1698113,0 Z M47.1698113,3.77358491 C23.2027373,3.77358491 3.77358491,23.2027373 3.77358491,47.1698113 C3.77358491,71.1368854 23.2027373,90.5660377 47.1698113,90.5660377 C71.1368854,90.5660377 90.5660377,71.1368854 90.5660377,47.1698113 C90.5660377,23.2027373 71.1368854,3.77358491 47.1698113,3.77358491 Z" id="path-6"></path>
        <linearGradient x1="49.9774416%" y1="17.9912184%" x2="49.9774416%" y2="124.588364%" id="linearGradient-8">
            <stop stop-color="#198AB3" offset="0%"></stop>
            <stop stop-color="#198AB3" offset="0%"></stop>
            <stop stop-color="#22A5CB" offset="11%"></stop>
            <stop stop-color="#29BADE" offset="23%"></stop>
            <stop stop-color="#2EC9EB" offset="37%"></stop>
            <stop stop-color="#31D1F3" offset="53%"></stop>
            <stop stop-color="#32D4F5" offset="100%"></stop>
        </linearGradient>
        <linearGradient x1="50%" y1="100%" x2="50%" y2="0%" id="linearGradient-9">
            <stop stop-color="#D2EBFF" offset="0%"></stop>
            <stop stop-color="#F0FFFD" offset="100%"></stop>
        </linearGradient>
        <linearGradient x1="49.9774416%" y1="17.9912184%" x2="49.9774416%" y2="124.588364%" id="linearGradient-10">
            <stop stop-color="#32D4F5" offset="0%"></stop>
            <stop stop-color="#31D1F3" offset="47%"></stop>
            <stop stop-color="#2EC9EB" offset="63%"></stop>
            <stop stop-color="#29BADE" offset="77%"></stop>
            <stop stop-color="#22A5CB" offset="89%"></stop>
            <stop stop-color="#198AB3" offset="100%"></stop>
            <stop stop-color="#198AB3" offset="100%"></stop>
        </linearGradient>
        <linearGradient x1="50%" y1="97.5691716%" x2="50%" y2="-5.30956676%" id="linearGradient-11">
            <stop stop-color="#0B5088" offset="2.02438767%"></stop>
            <stop stop-color="#2997F1" offset="100%"></stop>
        </linearGradient>
        <linearGradient x1="51.7151029%" y1="24.4384801%" x2="42.8287959%" y2="71.2129009%" id="linearGradient-12">
            <stop stop-color="#40C4F5" offset="0%"></stop>
            <stop stop-color="#2BB5F0" offset="100%"></stop>
        </linearGradient>
        <path d="M2.34021477,4.06092049 C4.66668078,4.06092049 6.55260136,6.02583887 6.55260136,8.44975634 C6.55260136,10.8736738 4.66668078,12.8385922 2.34021477,12.8385922" id="path-13"></path>
        <filter x="-23.7%" y="-11.4%" width="147.5%" height="134.2%" filterUnits="objectBoundingBox" id="filter-14">
            <feMorphology radius="0.5" operator="dilate" in="SourceAlpha" result="shadowSpreadOuter1"></feMorphology>
            <feOffset dx="0" dy="1" in="shadowSpreadOuter1" result="shadowOffsetOuter1"></feOffset>
            <feMorphology radius="1" operator="erode" in="SourceAlpha" result="shadowInner"></feMorphology>
            <feOffset dx="0" dy="1" in="shadowInner" result="shadowInner"></feOffset>
            <feComposite in="shadowOffsetOuter1" in2="shadowInner" operator="out" result="shadowOffsetOuter1"></feComposite>
            <feColorMatrix values="0 0 0 0 0   0 0 0 0 0   0 0 0 0 0  0 0 0 0.1 0" type="matrix" in="shadowOffsetOuter1"></feColorMatrix>
        </filter>
        <linearGradient x1="57.4471893%" y1="48.9775392%" x2="18.8617425%" y2="50.848516%" id="linearGradient-15">
            <stop stop-color="#40C4F5" offset="0%"></stop>
            <stop stop-color="#2BB5F0" offset="100%"></stop>
        </linearGradient>
        <path d="M3.27630068,8.44975634 L12.8923321,8.37927928" id="path-16"></path>
        <filter x="-10.0%" y="8.5%" width="116.2%" height="153.7%" filterUnits="objectBoundingBox" id="filter-17">
            <feMorphology radius="0.5" operator="dilate" in="SourceAlpha" result="shadowSpreadOuter1"></feMorphology>
            <feOffset dx="0" dy="1" in="shadowSpreadOuter1" result="shadowOffsetOuter1"></feOffset>
            <feMorphology radius="1" operator="erode" in="SourceAlpha" result="shadowInner"></feMorphology>
            <feOffset dx="0" dy="1" in="shadowInner" result="shadowInner"></feOffset>
            <feComposite in="shadowOffsetOuter1" in2="shadowInner" operator="out" result="shadowOffsetOuter1"></feComposite>
            <feColorMatrix values="0 0 0 0 0   0 0 0 0 0   0 0 0 0 0  0 0 0 0.1 0" type="matrix" in="shadowOffsetOuter1"></feColorMatrix>
        </filter>
        <linearGradient x1="50%" y1="-9.93901477%" x2="50%" y2="100%" id="linearGradient-18">
            <stop stop-color="#EFEFEF" offset="0%"></stop>
            <stop stop-color="#FFFFFF" offset="100%"></stop>
        </linearGradient>
        <linearGradient x1="57.4471893%" y1="25.0961372%" x2="18.8617425%" y2="70.6671268%" id="linearGradient-19">
            <stop stop-color="#40C4F5" offset="0%"></stop>
            <stop stop-color="#2BB5F0" offset="100%"></stop>
        </linearGradient>
        <path d="M3.27630068,8.44975634 C3.27630068,9.34230696 2.54732378,10.0666959 1.63815034,10.0666959 C0.728976901,10.0666959 0,9.34230696 0,8.44975634 C0,7.55639725 0.728976901,6.83281682 1.63815034,6.83281682 C2.54732378,6.83281682 3.27630068,7.55639725 3.27630068,8.44975634" id="path-20"></path>
        <filter x="-30.5%" y="-30.9%" width="161.0%" height="192.8%" filterUnits="objectBoundingBox" id="filter-21">
            <feMorphology radius="0.5" operator="dilate" in="SourceAlpha" result="shadowSpreadOuter1"></feMorphology>
            <feOffset dx="0" dy="1" in="shadowSpreadOuter1" result="shadowOffsetOuter1"></feOffset>
            <feComposite in="shadowOffsetOuter1" in2="SourceAlpha" operator="out" result="shadowOffsetOuter1"></feComposite>
            <feColorMatrix values="0 0 0 0 0   0 0 0 0 0   0 0 0 0 0  0 0 0 0.1 0" type="matrix" in="shadowOffsetOuter1"></feColorMatrix>
        </filter>
        <linearGradient x1="57.4471893%" y1="48.1433807%" x2="18.8617425%" y2="51.5407645%" id="linearGradient-22">
            <stop stop-color="#40C4F5" offset="0%"></stop>
            <stop stop-color="#2BB5F0" offset="100%"></stop>
        </linearGradient>
        <path d="M10.7649879,4.42205931 L12.5511,4.42205931" id="path-23"></path>
        <filter x="-56.0%" y="-157.7%" width="212.0%" height="623.2%" filterUnits="objectBoundingBox" id="filter-24">
            <feMorphology radius="0.5" operator="dilate" in="SourceAlpha" result="shadowSpreadOuter1"></feMorphology>
            <feOffset dx="0" dy="1" in="shadowSpreadOuter1" result="shadowOffsetOuter1"></feOffset>
            <feMorphology radius="1" operator="erode" in="SourceAlpha" result="shadowInner"></feMorphology>
            <feOffset dx="0" dy="1" in="shadowInner" result="shadowInner"></feOffset>
            <feComposite in="shadowOffsetOuter1" in2="shadowInner" operator="out" result="shadowOffsetOuter1"></feComposite>
            <feColorMatrix values="0 0 0 0 0   0 0 0 0 0   0 0 0 0 0  0 0 0 0.1 0" type="matrix" in="shadowOffsetOuter1"></feColorMatrix>
        </filter>
        <linearGradient x1="57.4471893%" y1="48.2162439%" x2="18.8617425%" y2="51.480297%" id="linearGradient-25">
            <stop stop-color="#40C4F5" offset="0%"></stop>
            <stop stop-color="#2BB5F0" offset="100%"></stop>
        </linearGradient>
        <path d="M10.7649879,12.4114761 L12.5872146,12.4114761" id="path-26"></path>
        <filter x="-54.9%" y="-365.5%" width="209.8%" height="623.2%" filterUnits="objectBoundingBox" id="filter-27">
            <feMorphology radius="0.5" operator="dilate" in="SourceAlpha" result="shadowSpreadOuter1"></feMorphology>
            <feOffset dx="0" dy="-1" in="shadowSpreadOuter1" result="shadowOffsetOuter1"></feOffset>
            <feMorphology radius="1" operator="erode" in="SourceAlpha" result="shadowInner"></feMorphology>
            <feOffset dx="0" dy="-1" in="shadowInner" result="shadowInner"></feOffset>
            <feComposite in="shadowOffsetOuter1" in2="shadowInner" operator="out" result="shadowOffsetOuter1"></feComposite>
            <feColorMatrix values="0 0 0 0 0   0 0 0 0 0   0 0 0 0 0  0 0 0 0.1 0" type="matrix" in="shadowOffsetOuter1"></feColorMatrix>
        </filter>
        <path d="M10.7649879,4.29191185 C10.7649879,5.18446247 10.036011,5.90885137 9.12683761,5.90885137 C8.21766417,5.90885137 7.48868727,5.18446247 7.48868727,4.29191185 C7.48868727,3.39855276 8.21766417,2.67497233 9.12683761,2.67497233 C10.036011,2.67497233 10.7649879,3.39855276 10.7649879,4.29191185" id="path-28"></path>
        <filter x="-30.5%" y="-30.9%" width="161.0%" height="192.8%" filterUnits="objectBoundingBox" id="filter-29">
            <feMorphology radius="0.5" operator="dilate" in="SourceAlpha" result="shadowSpreadOuter1"></feMorphology>
            <feOffset dx="0" dy="1" in="shadowSpreadOuter1" result="shadowOffsetOuter1"></feOffset>
            <feComposite in="shadowOffsetOuter1" in2="SourceAlpha" operator="out" result="shadowOffsetOuter1"></feComposite>
            <feColorMatrix values="0 0 0 0 0   0 0 0 0 0   0 0 0 0 0  0 0 0 0.1 0" type="matrix" in="shadowOffsetOuter1"></feColorMatrix>
        </filter>
        <path d="M10.7649879,12.6076008 C10.7649879,13.5001514 10.036011,14.2245404 9.12683761,14.2245404 C8.21766417,14.2245404 7.48868727,13.5001514 7.48868727,12.6076008 C7.48868727,11.7142417 8.21766417,10.9906613 9.12683761,10.9906613 C10.036011,10.9906613 10.7649879,11.7142417 10.7649879,12.6076008" id="path-30"></path>
        <filter x="-30.5%" y="-30.9%" width="161.0%" height="192.8%" filterUnits="objectBoundingBox" id="filter-31">
            <feMorphology radius="0.5" operator="dilate" in="SourceAlpha" result="shadowSpreadOuter1"></feMorphology>
            <feOffset dx="0" dy="1" in="shadowSpreadOuter1" result="shadowOffsetOuter1"></feOffset>
            <feComposite in="shadowOffsetOuter1" in2="SourceAlpha" operator="out" result="shadowOffsetOuter1"></feComposite>
            <feColorMatrix values="0 0 0 0 0   0 0 0 0 0   0 0 0 0 0  0 0 0 0.1 0" type="matrix" in="shadowOffsetOuter1"></feColorMatrix>
        </filter>
        <linearGradient x1="49.9995849%" y1="50.0000104%" x2="73.502198%" y2="39.4704037%" id="linearGradient-32">
            <stop stop-color="#D9EAFF" offset="0%"></stop>
            <stop stop-color="#BFDDFF" offset="100%"></stop>
        </linearGradient>
        <linearGradient x1="50%" y1="0%" x2="50%" y2="100%" id="linearGradient-33">
            <stop stop-color="#1E5CA5" offset="0%"></stop>
            <stop stop-color="#225496" offset="100%"></stop>
        </linearGradient>
        <path d="M53.0455652,30 L54.595152,33.8888889 L56.9505239,34.5679012 L60.4215982,32.7160494 L60.917466,32.7160494 L62.2191189,34.1975309 L63.3348214,35.308642 L63.3348214,35.6790123 L61.5992842,39.3209877 L62.4670528,41.6666667 L66.0001106,42.9012346 L66.0001106,46.3580247 L61.971185,47.962963 L61.2893668,50.3703704 L63.024904,53.8271605 L63.024904,54.3209877 L60.6075487,56.7283951 L56.5166396,54.8148148 L54.1612677,55.8024691 L52.9835817,59.5061728 L52.9835817,60 L51.0001106,60 L51.0001941,49.8159757 C51.1594314,49.8310174 51.3208082,49.8387097 51.4839816,49.8387097 C54.2899444,49.8387097 56.5646268,47.5640274 56.5646268,44.7580645 C56.5646268,42.3308118 54.8625196,40.3011075 52.5867926,39.7974391 C52.1536137,39.6907062 51.7039718,39.6377072 51.2487157,39.6432514 C51.1651794,39.6522209 51.0823032,39.6630712 51.000132,39.6757548 L51.0001106,30 L53.0455652,30 Z" id="path-34"></path>
        <filter x="0.0%" y="0.0%" width="100.0%" height="100.0%" filterUnits="objectBoundingBox" id="filter-35">
            <feOffset dx="0" dy="0" in="SourceAlpha" result="shadowOffsetOuter1"></feOffset>
            <feColorMatrix values="0 0 0 0 0   0 0 0 0 0   0 0 0 0 0  0 0 0 0.1 0" type="matrix" in="shadowOffsetOuter1"></feColorMatrix>
        </filter>
        <linearGradient x1="50%" y1="0%" x2="50%" y2="99.5565878%" id="linearGradient-36">
            <stop stop-color="#430F44" offset="1.47540118%"></stop>
            <stop stop-color="#8D2E92" offset="100%"></stop>
        </linearGradient>
        <linearGradient x1="50%" y1="100%" x2="50%" y2="0%" id="linearGradient-37">
            <stop stop-color="#D2EBFF" offset="0%"></stop>
            <stop stop-color="#F0FFFD" offset="100%"></stop>
        </linearGradient>
    </defs>
    <g id="Badges" stroke="none" stroke-width="1" fill="none" fill-rule="evenodd">
        <g id="N/A-13" transform="translate(-159.000000, -319.000000)">
            <g id="NA/get-started-with-ai-builder-licensing" transform="translate(160.000000, 320.000000)">
                <g id="Badge-Plates/Circle">
                    <g id="BG" transform="translate(2.830189, 2.830189)">
                        <mask id="mask-2" fill="white">
                            <use xlink:href="#path-1"></use>
                        </mask>
                        <g>
                            <use fill="black" fill-opacity="1" filter="url(#filter-3)" xlink:href="#path-1"></use>
                            <rect stroke="#F2F1F0" stroke-width="2.5" x="-1.25" y="-1.25" width="96.8396226" height="96.8396226" rx="48.4198113"></rect>
                        </g>
                        <g id="Colors/Microsoft-365/BG-Solid-Badge" mask="url(#mask-2)">
                            <g id="Rectangle">
                                <use fill="#0078D4" xlink:href="#path-5"></use>
                                <use fill-opacity="0.4" fill="url(#linearGradient-4)" xlink:href="#path-5"></use>
                            </g>
                        </g>
                    </g>
                    <g id="Border" transform="translate(2.830189, 2.830189)">
                        <mask id="mask-7" fill="white">
                            <use xlink:href="#path-6"></use>
                        </mask>
                        <use id="Boarder" fill="#0078D4" fill-rule="nonzero" xlink:href="#path-6"></use>
                        <g id="Colors/Microsoft-365/Border" mask="url(#mask-7)" fill="#0076D7">
                            <rect id="Microsoft-365/Border" x="0" y="0" width="94.3396226" height="94.3396226"></rect>
                        </g>
                    </g>
                </g>
                <g id="Blueprint" transform="translate(17.000000, 21.000000)" fill-rule="nonzero">
                    <path d="M50.8761407,43.2160035 C52.7898368,43.0127811 54.6896532,43.7228302 56.0615721,45.1540386 C57.4334909,46.5852471 58.1357021,48.5896762 57.9782141,50.6250038 L57.9782141,50.6250038 C57.7249474,52.8807158 56.3392035,54.8130003 54.3586984,55.6720649 C52.3781933,56.5311295 50.1146819,56.1817474 48.446484,54.7594906 C47.9268154,54.3326697 47.6267572,53.6709298 47.6365984,52.9733923 L47.6365984,43.1829276 L50.8761407,43.2160035 Z" id="Path" fill="url(#linearGradient-8)"></path>
                    <path d="M57.9325395,12.8754625 C57.8956688,8.6154386 54.4629322,5.18181818 50.2412395,5.18181818 L1,5.18181818 L1,35.6852537 C1,39.971773 4.44351228,43.4466834 8.69129995,43.4466834 L16.7555363,43.4466834 L41.9117968,43.4466834 C45.2675912,43.2491592 48.6319412,43.2491592 51.9877356,43.4466834 C58.7050281,44.53125 57.4959154,51.8181818 57.4959154,51.8181818 C57.9542367,49.0304698 58.1006969,46.199616 57.9325395,43.378898 L57.9325395,12.8754625 Z" id="Path" fill="url(#linearGradient-9)"></path>
                    <path d="M0.99777706,35.4090909 L0.9,34.9515717 C1.25103211,32.5822252 3.05934765,30.8691074 5.36264365,30.2280167 C7.66593965,29.5869259 10.1299948,30.3650125 11.6502965,32.2134991 C11.8586043,32.442697 12.1852353,32.5216355 12.4749127,32.4127881 C12.7645901,32.3039407 12.9588812,32.0292636 12.9654224,31.7193354 L12.9654224,5.95693506 C12.9994047,5.63938421 12.9994047,5.31910278 12.9654224,5.00155193 C12.4383839,2.10492655 9.92006406,0 6.98159972,0 C4.04313537,0 1.52481558,2.10492655 0.99777706,5.00155193 C0.947370537,5.31801034 0.947370537,5.64047665 0.99777706,5.95693506 L0.99777706,35.4090909 Z" id="Path" fill="url(#linearGradient-10)"></path>
                </g>
                <path d="M53.0107618,52.055769 L28.5749096,52.0371677 C28.4640794,52.0494629 28.3514531,52.0557749 28.2373583,52.0557749 C26.5589722,52.0557749 25.1983716,50.6898721 25.1983716,49.0049456 C25.1983716,47.4727199 26.3235315,46.2043135 27.7896405,45.986993 C27.9858905,43.8422446 29.6174316,42.1415932 31.6542416,41.9775443 C32.1354189,40.0780821 33.7725003,38.6790619 35.7179409,38.6790619 C36.2561077,38.6790619 36.7706776,38.7861205 37.2437187,38.9812361 C37.9770739,37.6763283 39.322561,36.8016284 40.8608414,36.8016284 C42.3991219,36.8016284 43.744609,37.6763283 44.4785284,38.9819659 C44.9510053,38.7861205 45.4655752,38.6790619 46.003742,38.6790619 C47.9723062,38.6790619 49.6251372,40.1115373 50.0845833,42.0464678 C51.8904771,42.4187239 53.2840797,44.0152526 53.464515,45.9880257 C54.930615,46.2043135 56.0557749,47.4727199 56.0557749,49.0049456 C56.0557749,50.6108912 54.8197409,51.9270205 53.2506091,52.046879 L53.2505564,52.0557749 L53.0107618,52.055769 L53.0107618,52.055769 Z" id="Brain-Shape" fill="url(#linearGradient-11)" fill-rule="nonzero" transform="translate(40.627073, 44.428702) rotate(-90.000000) translate(-40.627073, -44.428702) "></path>
                <g id="Circut-Board" transform="translate(35.629043, 35.594686)">
                    <g id="Stroke-3" stroke-linecap="round">
                        <use fill="black" fill-opacity="1" filter="url(#filter-14)" xlink:href="#path-13"></use>
                        <use stroke="url(#linearGradient-12)" stroke-width="1" xlink:href="#path-13"></use>
                    </g>
                    <g id="Path-2" fill-rule="nonzero">
                        <use fill="black" fill-opacity="1" filter="url(#filter-17)" xlink:href="#path-16"></use>
                        <use stroke="url(#linearGradient-15)" stroke-width="1" xlink:href="#path-16"></use>
                    </g>
                    <g id="Fill-1164">
                        <use fill="black" fill-opacity="1" filter="url(#filter-21)" xlink:href="#path-20"></use>
                        <use stroke="url(#linearGradient-19)" stroke-width="1" fill="url(#linearGradient-18)" fill-rule="evenodd" xlink:href="#path-20"></use>
                    </g>
                    <g id="Path-2" fill-rule="nonzero">
                        <use fill="black" fill-opacity="1" filter="url(#filter-24)" xlink:href="#path-23"></use>
                        <use stroke="url(#linearGradient-22)" stroke-width="1" xlink:href="#path-23"></use>
                    </g>
                    <g id="Path-2" fill-rule="nonzero" transform="translate(11.676101, 12.411476) scale(1, -1) translate(-11.676101, -12.411476) ">
                        <use fill="black" fill-opacity="1" filter="url(#filter-27)" xlink:href="#path-26"></use>
                        <use stroke="url(#linearGradient-25)" stroke-width="1" xlink:href="#path-26"></use>
                    </g>
                    <path d="" id="Path-3" stroke="#979797" fill-rule="nonzero"></path>
                    <g id="Fill-1164">
                        <use fill="black" fill-opacity="1" filter="url(#filter-29)" xlink:href="#path-28"></use>
                        <use stroke="url(#linearGradient-19)" stroke-width="1" fill="url(#linearGradient-18)" fill-rule="evenodd" xlink:href="#path-28"></use>
                    </g>
                    <g id="Fill-1164">
                        <use fill="black" fill-opacity="1" filter="url(#filter-31)" xlink:href="#path-30"></use>
                        <use stroke="url(#linearGradient-19)" stroke-width="1" fill="url(#linearGradient-18)" fill-rule="evenodd" xlink:href="#path-30"></use>
                    </g>
                </g>
                <g id="Group-7" transform="translate(43.688042, 31.318410)" fill="url(#linearGradient-32)">
                    <path d="M2.26552707,1.13298632 C2.26552707,1.75493947 1.75578348,2.25971305 1.13276353,2.25971305 C0.50974359,2.25971305 0,1.75493947 0,1.13298632 C0,0.510469803 0.50974359,0.00625959293 1.13276353,0.00625959293 C1.75578348,0.00625959293 2.26552707,0.510469803 2.26552707,1.13298632" id="Fill-382"></path>
                </g>
                <g id="Group-7" transform="translate(43.688042, 55.851743)" fill="url(#linearGradient-32)">
                    <path d="M2.26552707,1.27695696 C2.26552707,1.89891011 1.75578348,2.40368368 1.13276353,2.40368368 C0.50974359,2.40368368 0,1.89891011 0,1.27695696 C0,0.65444044 0.50974359,0.15023023 1.13276353,0.15023023 C1.75578348,0.15023023 2.26552707,0.65444044 2.26552707,1.27695696" id="Fill-382"></path>
                </g>
                <g id="Combined-Shape" fill-rule="nonzero">
                    <use fill="black" fill-opacity="1" filter="url(#filter-35)" xlink:href="#path-34"></use>
                    <use fill="url(#linearGradient-33)" xlink:href="#path-34"></use>
                </g>
                <g id="Group-2" transform="translate(61.000000, 57.000000)">
                    <polygon id="Path-112" fill="url(#linearGradient-36)" points="3.43033704 11.1428571 3.42857143 26.4334669 9.4132416 21.2194602 15.4132416 26.4334669 15.4132416 11.1428571"></polygon>
                    <g id="Group">
                        <circle id="Oval" fill="#812883" cx="9" cy="9" r="9"></circle>
                        <circle id="Oval" fill="url(#linearGradient-37)" cx="9" cy="9" r="8"></circle>
                        <g id="PowerApp" transform="translate(3.000000, 5.000000)" fill="#752375" fill-rule="nonzero">
                            <path d="M6.62961702,5.49191489 L7.48544681,4.63608511 C7.59773617,4.52375042 7.75006043,4.46063763 7.90889362,4.46063763 C8.06772681,4.46063763 8.22005107,4.52375042 8.33234043,4.63608511 L9.18817021,5.49217021 C9.42204255,5.72604255 9.42204255,6.10493617 9.18817021,6.33880851 L8.33234043,7.19489362 C8.09846809,7.42876596 7.71931915,7.42876596 7.48544681,7.19489362 L6.62961702,6.33880851 C6.51728233,6.22651915 6.45416955,6.07419489 6.45416955,5.9153617 C6.45416955,5.75652851 6.51728233,5.60420425 6.62961702,5.49191489 L6.62961702,5.49191489 Z" id="path-4"></path>
                            <path d="M6.62961702,5.49191489 L7.48544681,4.63608511 C7.59773617,4.52375042 7.75006043,4.46063763 7.90889362,4.46063763 C8.06772681,4.46063763 8.22005107,4.52375042 8.33234043,4.63608511 L9.18817021,5.49217021 C9.42204255,5.72604255 9.42204255,6.10493617 9.18817021,6.33880851 L8.33234043,7.19489362 C8.09846809,7.42876596 7.71931915,7.42876596 7.48544681,7.19489362 L6.62961702,6.33880851 C6.51728233,6.22651915 6.45416955,6.07419489 6.45416955,5.9153617 C6.45416955,5.75652851 6.51728233,5.60420425 6.62961702,5.49191489 L6.62961702,5.49191489 Z" id="path-4"></path>
                            <path d="M8.75770213,3.36051064 L9.61378723,2.50442553 C9.72607659,2.39209084 9.87840085,2.32897806 10.037234,2.32897806 C10.1960672,2.32897806 10.3483915,2.39209084 10.4606809,2.50442553 L11.3165106,3.36051064 C11.550383,3.59438298 11.550383,3.97353191 11.3165106,4.20740426 L10.4604255,5.06297872 C10.2265532,5.29685106 9.84765957,5.29685106 9.61378723,5.06297872 L8.75744681,4.20714894 C8.52368708,3.97334257 8.52368708,3.59431701 8.75744681,3.36051064 L8.75770213,3.36051064 Z" id="path-6"></path>
                            <path d="M8.75770213,3.36051064 L9.61378723,2.50442553 C9.72607659,2.39209084 9.87840085,2.32897806 10.037234,2.32897806 C10.1960672,2.32897806 10.3483915,2.39209084 10.4606809,2.50442553 L11.3165106,3.36051064 C11.550383,3.59438298 11.550383,3.97353191 11.3165106,4.20740426 L10.4604255,5.06297872 C10.2265532,5.29685106 9.84765957,5.29685106 9.61378723,5.06297872 L8.75744681,4.20714894 C8.52368708,3.97334257 8.52368708,3.59431701 8.75744681,3.36051064 L8.75770213,3.36051064 Z" id="path-6"></path>
                            <path d="M7.14612766,3.4427234 L6.81370213,3.11080851 L3.99574468,0.292851064 C3.80746846,0.105398201 3.50308473,0.105398201 3.31480851,0.292851064 L0.496851064,3.11055319 L0.16493617,3.4427234 C-0.0226862244,3.63102923 -0.0226862244,3.93560907 0.16493617,4.12391489 L0.496851064,4.45659574 L3.31608511,7.27276596 C3.50439093,7.46038835 3.80897077,7.46038835 3.9972766,7.27276596 L6.8147234,4.45634043 L7.14740426,4.12365957 C7.33502665,3.93535375 7.33502665,3.63077391 7.14740426,3.44246809 M3.31608511,5.14544681 L2.55523404,4.38459574 L2.29429787,4.12365957 C2.10667548,3.93535375 2.10667548,3.63077391 2.29429787,3.44246809 L3.31582979,2.42119149 C3.50413561,2.23356909 3.80871545,2.23356909 3.99702128,2.42119149 L5.01880851,3.44246809 C5.20643091,3.63077391 5.20643091,3.93535375 5.01880851,4.12365957 L4.75761702,4.38485106 L3.99702128,5.14544681 C3.80871545,5.3330692 3.50413561,5.3330692 3.31582979,5.14544681" id="Shape"></path>
                            <path d="M8.24910638,3.01710638 L9.2706383,1.99557447 C9.45826069,1.80726864 9.45826069,1.5026888 9.2706383,1.31438298 L8.2493617,0.292851064 C8.06105588,0.105228669 7.75647604,0.105228669 7.56817021,0.292851064 L6.54638298,1.31438298 C6.35876058,1.5026888 6.35876058,1.80726864 6.54638298,1.99557447 L7.56765957,3.01710638 C7.75599493,3.20489844 8.06077103,3.20489844 8.24910638,3.01710638" id="path-8"></path>
                            <path d="M8.24910638,3.01710638 L9.2706383,1.99557447 C9.45826069,1.80726864 9.45826069,1.5026888 9.2706383,1.31438298 L8.2493617,0.292851064 C8.06105588,0.105228669 7.75647604,0.105228669 7.56817021,0.292851064 L6.54638298,1.31438298 C6.35876058,1.5026888 6.35876058,1.80726864 6.54638298,1.99557447 L7.56765957,3.01710638 C7.75599493,3.20489844 8.06077103,3.20489844 8.24910638,3.01710638" id="path-8"></path>
                        </g>
                    </g>
                </g>
            </g>
        </g>
    </g>
</svg>