<svg width="103" height="103" viewBox="0 0 103 103" fill="none" xmlns="http://www.w3.org/2000/svg">
<path d="M51.9228 98.244C26.0728 98.244 5.11279 77.294 5.11279 51.434C5.11279 25.574 26.0728 4.62402 51.9228 4.62402C77.7728 4.62402 98.7328 25.584 98.7328 51.434C98.7328 77.284 77.7728 98.244 51.9228 98.244Z" fill="url(#paint0_linear_166_42561)"/>
<path fill-rule="evenodd" clip-rule="evenodd" d="M97.8228 51.4339C97.8228 76.7839 77.2728 97.3339 51.9228 97.3339C26.5728 97.3339 6.02278 76.7839 6.02278 51.4339C6.02278 26.0839 26.5728 5.53395 51.9228 5.53395C77.2728 5.53395 97.8228 26.0839 97.8228 51.4339ZM51.9228 1.79395C79.3428 1.79395 101.563 24.0139 101.563 51.4339C101.563 78.8539 79.3328 101.074 51.9228 101.074C24.5028 101.074 2.28278 78.8439 2.28278 51.4339C2.28278 24.0139 24.5028 1.79395 51.9228 1.79395Z" fill="#F2F1F0"/>
<path fill-rule="evenodd" clip-rule="evenodd" d="M95.0128 51.4335C95.0128 75.2335 75.7228 94.5235 51.9228 94.5235C28.1228 94.5235 8.8328 75.2335 8.8328 51.4335C8.8328 27.6335 28.1228 8.34352 51.9228 8.34352C75.7228 8.34352 95.0128 27.6335 95.0128 51.4335ZM51.9228 4.60352C77.7828 4.60352 98.7528 25.5735 98.7528 51.4335C98.7528 77.2935 77.7828 98.2635 51.9228 98.2635C26.0628 98.2635 5.0928 77.2935 5.0928 51.4335C5.0928 25.5735 26.0528 4.60352 51.9228 4.60352Z" fill="url(#paint1_linear_166_42561)"/>
<path opacity="0.15" d="M62.7452 27.0725L23.7523 26.752C22.9065 26.7431 22.2211 27.4197 22.2211 28.2655L21.8026 79.1521C21.7937 79.9978 22.4703 80.6833 23.3161 80.6833L62.309 81.0038C63.1547 81.0127 63.8402 80.3361 63.8402 79.4904L64.2586 28.6038C64.2497 27.7669 63.5731 27.0814 62.7452 27.0725Z" fill="#1F1D20"/>
<path d="M62.7541 25.4612L23.7612 25.1407C22.9154 25.1318 22.23 25.8084 22.23 26.6541L21.8026 77.5319C21.7937 78.3776 22.4703 79.0631 23.3161 79.0631L62.309 79.3836C63.1547 79.3925 63.8402 78.7159 63.8402 77.8702L64.2586 26.9835C64.2586 26.1556 63.5909 25.4701 62.7541 25.4612Z" fill="#F2F2F2"/>
<path opacity="0.15" d="M60.039 27.2061H26.0226V74.5762H60.039V27.2061Z" fill="#1F1D20"/>
<path d="M60.039 26.6631H26.0226V74.0332H60.039V26.6631Z" fill="white"/>
<path fill-rule="evenodd" clip-rule="evenodd" d="M45.0648 19.5495C46.1687 20.1459 46.8097 21.3299 46.8008 22.5763V22.879C46.8008 22.9947 46.7919 23.0926 46.783 23.2084L49.1778 23.2262C49.89 23.2351 50.5577 23.5912 50.9138 24.2144C51.9108 25.986 50.6467 27.7843 48.9819 27.7665L36.8923 27.6774C36.1801 27.6685 35.5124 27.3124 35.1563 26.6892C34.1593 24.9177 35.4234 23.1194 37.0882 23.1372L39.3138 23.155C39.3049 23.0481 39.3049 22.9413 39.3049 22.8256V22.7276C39.3405 20.0213 42.216 18.0182 45.0648 19.5495Z" fill="#243A5E"/>
<path d="M43.0175 24.5082C43.8721 24.5171 44.5665 23.8316 44.5754 22.977C44.5843 22.1223 43.8988 21.4279 43.0442 21.419C42.1896 21.4101 41.4952 22.0956 41.4863 22.9503C41.4863 23.8049 42.1629 24.4993 43.0175 24.5082Z" fill="#F2F2F2"/>
<path fill-rule="evenodd" clip-rule="evenodd" d="M52.8696 49.8602L42.5872 60.1426L32.0467 49.602C29.278 46.8334 29.278 42.3376 32.0467 39.56L32.2871 39.3197C35.0557 36.551 39.5515 36.551 42.3291 39.3197L52.8696 49.8602Z" fill="url(#paint2_linear_166_42561)"/>
<path fill-rule="evenodd" clip-rule="evenodd" d="M42.5435 60.0891L32.6262 50.1717L43.1667 39.6312C45.9354 36.8625 50.4311 36.8625 53.2087 39.6312L53.4491 39.8716C56.2178 42.6402 56.2178 47.136 53.4491 49.9136L43.2646 60.0891C43.0688 60.2939 42.7483 60.2939 42.5435 60.0891Z" fill="url(#paint3_linear_166_42561)"/>
<path d="M50.9025 60.5236C54.4635 60.5236 57.3568 57.6392 57.3568 54.0693C57.3479 50.5083 54.4546 47.6328 50.9025 47.6328C47.3504 47.6328 44.4482 50.5172 44.4482 54.0871C44.4482 57.6481 47.3326 60.5236 50.9025 60.5236Z" fill="#002D4C"/>
<path d="M51.4099 50.2949H50.3505V57.8442H51.4099V50.2949Z" fill="#F2F2F2"/>
<path d="M54.6504 53.5977H47.11V54.6571H54.6593L54.6504 53.5977Z" fill="#F2F2F2"/>
<path d="M75.6786 56.3604H67.3725" stroke="white" stroke-width="0.8" stroke-miterlimit="10"/>
<path d="M75.6786 44.3506H67.3725" stroke="white" stroke-width="0.8" stroke-miterlimit="10"/>
<path d="M75.6786 31.834H67.3725V69.4025H75.6786" stroke="white" stroke-width="0.8" stroke-miterlimit="10" stroke-linejoin="round"/>
<path d="M83.6908 27.4355H72.0107C71.5033 27.4355 71.0938 27.8451 71.0938 28.3525V35.9641C71.0938 36.4716 71.5033 36.8811 72.0107 36.8811H84.0291C84.5365 36.8811 84.946 36.4716 84.946 35.9641V28.6908C84.9371 27.9964 84.3763 27.4355 83.6908 27.4355Z" fill="#50E6FF"/>
<path d="M83.6908 39.7207H72.0107C71.5033 39.7207 71.0938 40.1302 71.0938 40.6377V48.2493C71.0938 48.7567 71.5033 49.1662 72.0107 49.1662H84.0291C84.5365 49.1662 84.946 48.7567 84.946 48.2493V40.976C84.9371 40.2816 84.3763 39.7207 83.6908 39.7207Z" fill="#50E6FF"/>
<path d="M83.6908 52.0068H72.0107C71.5033 52.0068 71.0938 52.4163 71.0938 52.9238V60.5354C71.0938 61.0429 71.5033 61.4524 72.0107 61.4524H84.0291C84.5365 61.4524 84.946 61.0429 84.946 60.5354V53.2621C84.9371 52.5677 84.3763 52.0068 83.6908 52.0068Z" fill="#3BCAF4"/>
<path d="M83.6908 64.292H72.0107C71.5033 64.292 71.0938 64.7015 71.0938 65.2089V72.8206C71.0938 73.328 71.5033 73.7375 72.0107 73.7375H84.0291C84.5365 73.7375 84.946 73.328 84.946 72.8206V65.5472C84.9371 64.8528 84.3763 64.292 83.6908 64.292Z" fill="#32B0E7"/>
<path d="M66.8473 50.5195H58.0249" stroke="white" stroke-width="0.8" stroke-miterlimit="10"/>
<circle cx="77.8949" cy="56.8976" r="3.39075" fill="white"/>
<path d="M79.7437 58.3705C79.6458 57.4535 78.8535 56.7324 77.9009 56.7324C76.9572 56.7324 76.1827 57.4357 76.0581 58.3438C76.0403 58.4061 76.0403 58.4773 76.0403 58.5396C76.067 58.7978 76.245 59.0471 76.5833 59.2429C77.3044 59.6613 78.4885 59.6613 79.2007 59.2429C79.539 59.0471 79.7081 58.7978 79.7348 58.5396C79.7526 58.4951 79.7526 58.4239 79.7437 58.3705Z" fill="#0078D4"/>
<path d="M77.895 56.4744C78.5093 56.4744 79.0078 55.9759 79.0078 55.3705C79.0078 54.7562 78.5093 54.2666 77.895 54.2666C77.2807 54.2666 76.7822 54.7651 76.7822 55.3705C76.7822 55.9759 77.2807 56.4744 77.895 56.4744Z" fill="#0078D4"/>
<circle cx="77.8949" cy="44.5548" r="3.39075" fill="white"/>
<path d="M79.7437 46.0277C79.6458 45.1108 78.8535 44.3896 77.9009 44.3896C76.9572 44.3896 76.1827 45.0929 76.0581 46.001C76.0403 46.0633 76.0403 46.1345 76.0403 46.1969C76.067 46.455 76.245 46.7043 76.5833 46.9002C77.3044 47.3186 78.4885 47.3186 79.2007 46.9002C79.539 46.7043 79.7081 46.455 79.7348 46.1969C79.7526 46.1523 79.7526 46.0811 79.7437 46.0277Z" fill="#0078D4"/>
<path d="M77.895 44.1316C78.5093 44.1316 79.0078 43.6331 79.0078 43.0277C79.0078 42.4135 78.5093 41.9238 77.895 41.9238C77.2807 41.9238 76.7822 42.4224 76.7822 43.0277C76.7822 43.6331 77.2807 44.1316 77.895 44.1316Z" fill="#0078D4"/>
<circle cx="77.8949" cy="32.2579" r="3.39075" fill="white"/>
<path d="M79.7437 33.7308C79.6458 32.8139 78.8535 32.0928 77.9009 32.0928C76.9572 32.0928 76.1827 32.7961 76.0581 33.7041C76.0403 33.7664 76.0403 33.8377 76.0403 33.9C76.067 34.1582 76.245 34.4074 76.5833 34.6033C77.3044 35.0217 78.4885 35.0217 79.2007 34.6033C79.539 34.4074 79.7081 34.1582 79.7348 33.9C79.7526 33.8555 79.7526 33.7842 79.7437 33.7308Z" fill="#0078D4"/>
<path d="M77.895 31.8348C78.5093 31.8348 79.0078 31.3362 79.0078 30.7309C79.0078 30.1166 78.5093 29.627 77.895 29.627C77.2807 29.627 76.7822 30.1255 76.7822 30.7309C76.7822 31.3362 77.2807 31.8348 77.895 31.8348Z" fill="#0078D4"/>
<circle cx="77.8949" cy="69.1027" r="3.39075" fill="white"/>
<path d="M79.7437 70.5756C79.6458 69.6586 78.8535 68.9375 77.9009 68.9375C76.9572 68.9375 76.1827 69.6408 76.0581 70.5489C76.0403 70.6112 76.0403 70.6824 76.0403 70.7447C76.067 71.0029 76.245 71.2521 76.5833 71.448C77.3044 71.8664 78.4885 71.8664 79.2007 71.448C79.539 71.2521 79.7081 71.0029 79.7348 70.7447C79.7526 70.7002 79.7526 70.629 79.7437 70.5756Z" fill="#0078D4"/>
<path d="M77.895 68.6795C78.5093 68.6795 79.0078 68.181 79.0078 67.5756C79.0078 66.9613 78.5093 66.4717 77.895 66.4717C77.2807 66.4717 76.7822 66.9702 76.7822 67.5756C76.7822 68.181 77.2807 68.6795 77.895 68.6795Z" fill="#0078D4"/>
<path d="M67.4476 53.3532L66.0476 54.7032L69.5076 58.2932L71.5976 56.2032L70.9176 53.0732L67.4476 53.3532Z" fill="url(#paint4_linear_166_42561)"/>
<path d="M55.0476 65.7127L53.6476 67.0527L57.1476 70.6327L59.1576 68.6127L58.4876 65.4727L55.0476 65.7127Z" fill="url(#paint5_linear_166_42561)"/>
<path d="M71.4076 52.853C70.4376 51.883 69.2376 51.503 68.7076 51.993H68.6976L67.1676 53.543C67.1576 53.553 67.1676 53.573 67.1876 53.563C67.7676 53.243 68.8676 53.643 69.7776 54.533C70.5976 55.353 70.9976 56.333 70.8276 56.943C70.8276 56.963 70.8376 56.973 70.8476 56.953L72.2476 55.563L72.2576 55.553C72.2576 55.553 72.2576 55.553 72.2576 55.543L72.2676 55.533C72.7576 55.033 72.3776 53.833 71.4076 52.853Z" fill="#092E4C"/>
<path d="M68.8876 55.3728C67.9276 54.4128 66.7476 54.0328 66.1976 54.5028L54.7276 65.9728C54.7076 65.9928 54.7276 66.0328 54.7576 66.0228C55.3676 65.7928 56.3776 66.1828 57.2376 67.0428C58.0376 67.8428 58.4376 68.7928 58.2976 69.4128C58.2876 69.4428 58.3376 69.4728 58.3576 69.4428L69.7576 58.0428C70.2276 57.5128 69.8576 56.3328 68.8876 55.3728Z" fill="#092E4C"/>
<path d="M56.3276 67.9334C55.3376 66.9434 54.1276 66.5734 53.6076 67.0734V67.0834L52.6676 70.5934C52.8176 70.4434 52.9076 70.7134 53.1876 70.9934C53.4776 71.2734 53.3676 71.2234 53.2176 71.3734L52.5476 71.9734L57.1776 70.6534C57.6876 70.1334 57.3076 68.9134 56.3276 67.9334Z" fill="#FFBB00"/>
<path d="M53.4576 70.8434C53.1776 70.5634 52.8276 70.4434 52.6676 70.5934L52.3576 71.7834C52.3276 71.9034 52.4376 72.0034 52.5476 71.9734L53.7076 71.6334C53.8576 71.4834 53.7476 71.1234 53.4576 70.8434Z" fill="#092E4C"/>
<path opacity="0.15" d="M62.7452 27.0725L23.7523 26.752C22.9065 26.7431 22.2211 27.4197 22.2211 28.2655L21.8026 79.1521C21.7937 79.9978 22.4703 80.6833 23.3161 80.6833L62.309 81.0038C63.1547 81.0127 63.8402 80.3361 63.8402 79.4904L64.2586 28.6038C64.2497 27.7669 63.5731 27.0814 62.7452 27.0725Z" fill="#1F1D20"/>
<path d="M62.7541 25.4612L23.7612 25.1407C22.9154 25.1318 22.23 25.8084 22.23 26.6541L21.8026 77.5319C21.7937 78.3776 22.4703 79.0631 23.3161 79.0631L62.309 79.3836C63.1547 79.3925 63.8402 78.7159 63.8402 77.8702L64.2586 26.9835C64.2586 26.1556 63.5909 25.4701 62.7541 25.4612Z" fill="#F2F2F2"/>
<path opacity="0.15" d="M60.039 27.2061H26.0226V74.5762H60.039V27.2061Z" fill="#1F1D20"/>
<path d="M60.039 26.6631H26.0226V74.0332H60.039V26.6631Z" fill="white"/>
<path fill-rule="evenodd" clip-rule="evenodd" d="M45.0648 19.5495C46.1687 20.1459 46.8097 21.3299 46.8008 22.5763V22.879C46.8008 22.9947 46.7919 23.0926 46.783 23.2084L49.1778 23.2262C49.89 23.2351 50.5577 23.5912 50.9138 24.2144C51.9108 25.986 50.6467 27.7843 48.9819 27.7665L36.8923 27.6774C36.1801 27.6685 35.5124 27.3124 35.1563 26.6892C34.1593 24.9177 35.4234 23.1194 37.0882 23.1372L39.3138 23.155C39.3049 23.0481 39.3049 22.9413 39.3049 22.8256V22.7276C39.3405 20.0213 42.216 18.0182 45.0648 19.5495Z" fill="#243A5E"/>
<path d="M43.0175 24.5082C43.8721 24.5171 44.5665 23.8316 44.5754 22.977C44.5843 22.1223 43.8988 21.4279 43.0442 21.419C42.1896 21.4101 41.4952 22.0956 41.4863 22.9503C41.4863 23.8049 42.1629 24.4993 43.0175 24.5082Z" fill="#F2F2F2"/>
<path fill-rule="evenodd" clip-rule="evenodd" d="M52.8696 49.8602L42.5872 60.1426L32.0467 49.602C29.278 46.8334 29.278 42.3376 32.0467 39.56L32.2871 39.3197C35.0557 36.551 39.5515 36.551 42.3291 39.3197L52.8696 49.8602Z" fill="url(#paint6_linear_166_42561)"/>
<path fill-rule="evenodd" clip-rule="evenodd" d="M42.5435 60.0891L32.6262 50.1717L43.1667 39.6312C45.9354 36.8625 50.4311 36.8625 53.2087 39.6312L53.4491 39.8716C56.2178 42.6402 56.2178 47.136 53.4491 49.9136L43.2646 60.0891C43.0688 60.2939 42.7483 60.2939 42.5435 60.0891Z" fill="url(#paint7_linear_166_42561)"/>
<path d="M50.9025 60.5236C54.4635 60.5236 57.3568 57.6392 57.3568 54.0693C57.3479 50.5083 54.4546 47.6328 50.9025 47.6328C47.3504 47.6328 44.4482 50.5172 44.4482 54.0871C44.4482 57.6481 47.3326 60.5236 50.9025 60.5236Z" fill="#002D4C"/>
<path d="M51.4099 50.2949H50.3505V57.8442H51.4099V50.2949Z" fill="#F2F2F2"/>
<path d="M54.6504 53.5977H47.11V54.6571H54.6593L54.6504 53.5977Z" fill="#F2F2F2"/>
<path d="M75.6786 56.3604H67.3725" stroke="white" stroke-width="0.8" stroke-miterlimit="10"/>
<path fill-rule="evenodd" clip-rule="evenodd" d="M67.3725 43.9502H75.6786V44.7502H67.3725V43.9502Z" fill="white"/>
<path fill-rule="evenodd" clip-rule="evenodd" d="M66.9725 31.8336C66.9725 31.6127 67.1516 31.4336 67.3725 31.4336H75.6786V32.2336H67.7725V69.0021H75.6786V69.8021H67.3725C67.1516 69.8021 66.9725 69.623 66.9725 69.4021V31.8336Z" fill="white"/>
<path d="M83.6908 27.4355H72.0107C71.5033 27.4355 71.0938 27.8451 71.0938 28.3525V35.9641C71.0938 36.4716 71.5033 36.8811 72.0107 36.8811H84.0291C84.5365 36.8811 84.946 36.4716 84.946 35.9641V28.6908C84.9371 27.9964 84.3763 27.4355 83.6908 27.4355Z" fill="#50E6FF"/>
<path d="M83.6908 39.7207H72.0107C71.5033 39.7207 71.0938 40.1302 71.0938 40.6377V48.2493C71.0938 48.7567 71.5033 49.1662 72.0107 49.1662H84.0291C84.5365 49.1662 84.946 48.7567 84.946 48.2493V40.976C84.9371 40.2816 84.3763 39.7207 83.6908 39.7207Z" fill="#50E6FF"/>
<path d="M83.6908 52.0068H72.0107C71.5033 52.0068 71.0938 52.4163 71.0938 52.9238V60.5354C71.0938 61.0429 71.5033 61.4524 72.0107 61.4524H84.0291C84.5365 61.4524 84.946 61.0429 84.946 60.5354V53.2621C84.9371 52.5677 84.3763 52.0068 83.6908 52.0068Z" fill="#3BCAF4"/>
<path d="M83.6908 64.292H72.0107C71.5033 64.292 71.0938 64.7015 71.0938 65.2089V72.8206C71.0938 73.328 71.5033 73.7375 72.0107 73.7375H84.0291C84.5365 73.7375 84.946 73.328 84.946 72.8206V65.5472C84.9371 64.8528 84.3763 64.292 83.6908 64.292Z" fill="#32B0E7"/>
<path fill-rule="evenodd" clip-rule="evenodd" d="M58.0249 50.1201H66.8473V50.9201H58.0249V50.1201Z" fill="white"/>
<circle cx="77.8949" cy="56.8976" r="3.39075" fill="white"/>
<path d="M79.7437 58.3705C79.6458 57.4535 78.8535 56.7324 77.9009 56.7324C76.9572 56.7324 76.1827 57.4357 76.0581 58.3438C76.0403 58.4061 76.0403 58.4773 76.0403 58.5396C76.067 58.7978 76.245 59.0471 76.5833 59.2429C77.3044 59.6613 78.4885 59.6613 79.2007 59.2429C79.539 59.0471 79.7081 58.7978 79.7348 58.5396C79.7526 58.4951 79.7526 58.4239 79.7437 58.3705Z" fill="#0078D4"/>
<path d="M77.895 56.4744C78.5093 56.4744 79.0078 55.9759 79.0078 55.3705C79.0078 54.7562 78.5093 54.2666 77.895 54.2666C77.2807 54.2666 76.7822 54.7651 76.7822 55.3705C76.7822 55.9759 77.2807 56.4744 77.895 56.4744Z" fill="#0078D4"/>
<circle cx="77.8949" cy="44.5548" r="3.39075" fill="white"/>
<path d="M79.7437 46.0277C79.6458 45.1108 78.8535 44.3896 77.9009 44.3896C76.9572 44.3896 76.1827 45.0929 76.0581 46.001C76.0403 46.0633 76.0403 46.1345 76.0403 46.1969C76.067 46.455 76.245 46.7043 76.5833 46.9002C77.3044 47.3186 78.4885 47.3186 79.2007 46.9002C79.539 46.7043 79.7081 46.455 79.7348 46.1969C79.7526 46.1523 79.7526 46.0811 79.7437 46.0277Z" fill="#0078D4"/>
<path d="M77.895 44.1316C78.5093 44.1316 79.0078 43.6331 79.0078 43.0277C79.0078 42.4135 78.5093 41.9238 77.895 41.9238C77.2807 41.9238 76.7822 42.4224 76.7822 43.0277C76.7822 43.6331 77.2807 44.1316 77.895 44.1316Z" fill="#0078D4"/>
<circle cx="77.8949" cy="32.2579" r="3.39075" fill="white"/>
<path d="M79.7437 33.7308C79.6458 32.8139 78.8535 32.0928 77.9009 32.0928C76.9572 32.0928 76.1827 32.7961 76.0581 33.7041C76.0403 33.7664 76.0403 33.8377 76.0403 33.9C76.067 34.1582 76.245 34.4074 76.5833 34.6033C77.3044 35.0217 78.4885 35.0217 79.2007 34.6033C79.539 34.4074 79.7081 34.1582 79.7348 33.9C79.7526 33.8555 79.7526 33.7842 79.7437 33.7308Z" fill="#0078D4"/>
<path d="M77.895 31.8348C78.5093 31.8348 79.0078 31.3362 79.0078 30.7309C79.0078 30.1166 78.5093 29.627 77.895 29.627C77.2807 29.627 76.7822 30.1255 76.7822 30.7309C76.7822 31.3362 77.2807 31.8348 77.895 31.8348Z" fill="#0078D4"/>
<circle cx="77.8949" cy="69.1027" r="3.39075" fill="white"/>
<path d="M79.7437 70.5756C79.6458 69.6586 78.8535 68.9375 77.9009 68.9375C76.9572 68.9375 76.1827 69.6408 76.0581 70.5489C76.0403 70.6112 76.0403 70.6824 76.0403 70.7447C76.067 71.0029 76.245 71.2521 76.5833 71.448C77.3044 71.8664 78.4885 71.8664 79.2007 71.448C79.539 71.2521 79.7081 71.0029 79.7348 70.7447C79.7526 70.7002 79.7526 70.629 79.7437 70.5756Z" fill="#0078D4"/>
<path d="M77.895 68.6795C78.5093 68.6795 79.0078 68.181 79.0078 67.5756C79.0078 66.9613 78.5093 66.4717 77.895 66.4717C77.2807 66.4717 76.7822 66.9702 76.7822 67.5756C76.7822 68.181 77.2807 68.6795 77.895 68.6795Z" fill="#0078D4"/>
<path d="M67.4476 53.3532L66.0476 54.7032L69.5076 58.2932L71.5976 56.2032L70.9176 53.0732L67.4476 53.3532Z" fill="url(#paint8_linear_166_42561)"/>
<path d="M55.0476 65.7127L53.6476 67.0527L57.1476 70.6327L59.1576 68.6127L58.4876 65.4727L55.0476 65.7127Z" fill="url(#paint9_linear_166_42561)"/>
<path d="M71.4076 52.853C70.4376 51.883 69.2376 51.503 68.7076 51.993H68.6976L67.1676 53.543C67.1576 53.553 67.1676 53.573 67.1876 53.563C67.7676 53.243 68.8676 53.643 69.7776 54.533C70.5976 55.353 70.9976 56.333 70.8276 56.943C70.8276 56.963 70.8376 56.973 70.8476 56.953L72.2476 55.563L72.2576 55.553C72.2576 55.553 72.2576 55.553 72.2576 55.543L72.2676 55.533C72.7576 55.033 72.3776 53.833 71.4076 52.853Z" fill="#092E4C"/>
<path d="M68.8876 55.3728C67.9276 54.4128 66.7476 54.0328 66.1976 54.5028L54.7276 65.9728C54.7076 65.9928 54.7276 66.0328 54.7576 66.0228C55.3676 65.7928 56.3776 66.1828 57.2376 67.0428C58.0376 67.8428 58.4376 68.7928 58.2976 69.4128C58.2876 69.4428 58.3376 69.4728 58.3576 69.4428L69.7576 58.0428C70.2276 57.5128 69.8576 56.3328 68.8876 55.3728Z" fill="#092E4C"/>
<path d="M56.3276 67.9334C55.3376 66.9434 54.1276 66.5734 53.6076 67.0734V67.0834L52.6676 70.5934C52.8176 70.4434 52.9076 70.7134 53.1876 70.9934C53.4776 71.2734 53.3676 71.2234 53.2176 71.3734L52.5476 71.9734L57.1776 70.6534C57.6876 70.1334 57.3076 68.9134 56.3276 67.9334Z" fill="#FFBB00"/>
<path d="M53.4576 70.8434C53.1776 70.5634 52.8276 70.4434 52.6676 70.5934L52.3576 71.7834C52.3276 71.9034 52.4376 72.0034 52.5476 71.9734L53.7076 71.6334C53.8576 71.4834 53.7476 71.1234 53.4576 70.8434Z" fill="#092E4C"/>
<defs>
<linearGradient id="paint0_linear_166_42561" x1="50.1489" y1="-13.3555" x2="54.1309" y2="132.415" gradientUnits="userSpaceOnUse">
<stop stop-color="#00ABDE"/>
<stop offset="1" stop-color="#007ED8"/>
</linearGradient>
<linearGradient id="paint1_linear_166_42561" x1="3.3532" y1="-20.1891" x2="98.8807" y2="120.692" gradientUnits="userSpaceOnUse">
<stop stop-color="#007ED8"/>
<stop offset="0.7065" stop-color="#002D4C"/>
</linearGradient>
<linearGradient id="paint2_linear_166_42561" x1="24.6871" y1="36.1583" x2="83.5995" y2="81.0223" gradientUnits="userSpaceOnUse">
<stop stop-color="#FFB900"/>
<stop offset="0.17" stop-color="#EF8400"/>
<stop offset="0.31" stop-color="#E25C01"/>
<stop offset="0.43" stop-color="#DB4401"/>
<stop offset="0.5" stop-color="#D83B01"/>
</linearGradient>
<linearGradient id="paint3_linear_166_42561" x1="29.7865" y1="42.2707" x2="73.8954" y2="60.0954" gradientUnits="userSpaceOnUse">
<stop stop-color="#FFB900"/>
<stop offset="0.17" stop-color="#EF8400"/>
<stop offset="0.31" stop-color="#E25C01"/>
<stop offset="0.43" stop-color="#DB4401"/>
<stop offset="0.5" stop-color="#D83B01"/>
</linearGradient>
<linearGradient id="paint4_linear_166_42561" x1="66.0493" y1="55.6845" x2="71.5946" y2="55.6845" gradientUnits="userSpaceOnUse">
<stop stop-color="#388CF4"/>
<stop offset="1" stop-color="#2C7CEF"/>
</linearGradient>
<linearGradient id="paint5_linear_166_42561" x1="53.6477" y1="68.0501" x2="59.1575" y2="68.0501" gradientUnits="userSpaceOnUse">
<stop stop-color="#388CF4"/>
<stop offset="1" stop-color="#2C7CEF"/>
</linearGradient>
<linearGradient id="paint6_linear_166_42561" x1="24.6871" y1="36.1583" x2="83.5995" y2="81.0223" gradientUnits="userSpaceOnUse">
<stop stop-color="#FFB900"/>
<stop offset="0.17" stop-color="#EF8400"/>
<stop offset="0.31" stop-color="#E25C01"/>
<stop offset="0.43" stop-color="#DB4401"/>
<stop offset="0.5" stop-color="#D83B01"/>
</linearGradient>
<linearGradient id="paint7_linear_166_42561" x1="29.7865" y1="42.2707" x2="73.8954" y2="60.0954" gradientUnits="userSpaceOnUse">
<stop stop-color="#FFB900"/>
<stop offset="0.17" stop-color="#EF8400"/>
<stop offset="0.31" stop-color="#E25C01"/>
<stop offset="0.43" stop-color="#DB4401"/>
<stop offset="0.5" stop-color="#D83B01"/>
</linearGradient>
<linearGradient id="paint8_linear_166_42561" x1="66.0493" y1="55.6845" x2="71.5946" y2="55.6845" gradientUnits="userSpaceOnUse">
<stop stop-color="#388CF4"/>
<stop offset="1" stop-color="#2C7CEF"/>
</linearGradient>
<linearGradient id="paint9_linear_166_42561" x1="53.6477" y1="68.0501" x2="59.1575" y2="68.0501" gradientUnits="userSpaceOnUse">
<stop stop-color="#388CF4"/>
<stop offset="1" stop-color="#2C7CEF"/>
</linearGradient>
</defs>
</svg>
