<svg width="103" height="103" viewBox="0 0 103 103" fill="none" xmlns="http://www.w3.org/2000/svg">
<path d="M51.0195 97.8558C25.1695 97.8558 4.20947 76.9058 4.20947 51.0458C4.20947 25.1858 25.1695 4.23584 51.0195 4.23584C76.8695 4.23584 97.8295 25.1958 97.8295 51.0458C97.8295 76.8958 76.8695 97.8558 51.0195 97.8558Z" fill="url(#paint0_linear)"/>
<path fill-rule="evenodd" clip-rule="evenodd" d="M96.9194 51.0459C96.9194 76.3959 76.3694 96.9459 51.0194 96.9459C25.6694 96.9459 5.11939 76.3959 5.11939 51.0459C5.11939 25.6959 25.6694 5.14588 51.0194 5.14588C76.3694 5.14588 96.9194 25.6959 96.9194 51.0459ZM51.0194 1.40588C78.4394 1.40588 100.659 23.6259 100.659 51.0459C100.659 78.4659 78.4294 100.686 51.0194 100.686C23.5994 100.686 1.37939 78.4559 1.37939 51.0459C1.37939 23.6259 23.5994 1.40588 51.0194 1.40588Z" fill="#F2F1F0"/>
<path d="M50.6797 30.266C47.7797 30.266 45.4097 27.886 45.4097 24.966C45.4097 22.046 47.7797 19.666 50.6797 19.666C53.5797 19.666 55.9497 22.046 55.9497 24.966C55.9497 27.886 53.5797 30.266 50.6797 30.266ZM50.6797 21.756C48.9297 21.756 47.5097 23.196 47.5097 24.966C47.5097 26.736 48.9297 28.176 50.6797 28.176C52.4297 28.176 53.8497 26.736 53.8497 24.966C53.8497 23.196 52.4297 21.756 50.6797 21.756Z" fill="url(#paint1_linear)"/>
<path d="M64.1595 80.656H37.8595L35.0895 85.806L33.2495 84.806L40.9095 70.546L42.7395 71.556L38.9795 78.556H63.0395L59.2795 71.556L61.1195 70.556L68.7795 84.816L66.9395 85.816L64.1595 80.656Z" fill="url(#paint2_linear)"/>
<path d="M79.5196 30.636H22.5396V68.936H79.5196V30.636Z" fill="url(#paint3_linear)"/>
<path d="M21.7895 24.9561H80.2395C81.3895 24.9561 82.3395 25.8961 82.3395 27.0561V29.2461C82.3395 30.3961 81.3995 31.3461 80.2395 31.3461H21.7895C20.6395 31.3461 19.6895 30.4061 19.6895 29.2461V27.0561C19.6995 25.8961 20.6395 24.9561 21.7895 24.9561Z" fill="url(#paint4_linear)"/>
<path d="M21.4692 68.136H80.5592C81.5292 68.136 82.3292 68.936 82.3292 69.906C82.3292 70.876 81.5292 71.676 80.5592 71.676H21.4692C20.4992 71.686 19.6992 70.886 19.6992 69.916C19.6992 68.926 20.4992 68.136 21.4692 68.136Z" fill="url(#paint5_linear)"/>
<path d="M79.5196 30.636H22.5396V68.936H79.5196V30.636Z" fill="url(#paint6_linear)"/>
<path d="M21.7895 24.9561H80.2395C81.3895 24.9561 82.3395 25.8961 82.3395 27.0561V29.2461C82.3395 30.3961 81.3995 31.3461 80.2395 31.3461H21.7895C20.6395 31.3461 19.6895 30.4061 19.6895 29.2461V27.0561C19.6995 25.8961 20.6395 24.9561 21.7895 24.9561Z" fill="url(#paint7_linear)"/>
<path d="M21.4692 68.136H80.5592C81.5292 68.136 82.3292 68.936 82.3292 69.906C82.3292 70.876 81.5292 71.676 80.5592 71.676H21.4692C20.4992 71.686 19.6992 70.886 19.6992 69.916C19.6992 68.926 20.4992 68.136 21.4692 68.136Z" fill="url(#paint8_linear)"/>
<path d="M68.1195 47.5058H45.5695C44.6995 41.6858 39.6795 37.1958 33.6395 37.1958C32.4695 37.1958 31.3895 37.4158 30.3295 37.7258C30.2995 37.7258 30.2995 37.7258 30.2795 37.7258L30.2295 37.6358V41.4658C30.8895 41.1658 31.5795 40.9258 32.2695 40.8058C32.7295 40.7258 33.1795 40.6858 33.6395 40.6858C38.3495 40.6858 42.2095 44.5258 42.2095 49.2558C42.2095 53.9658 38.3695 57.8258 33.6395 57.8258C32.4195 57.8258 31.2695 57.5658 30.2295 57.1058V60.8358C31.3095 61.1658 32.4595 61.3358 33.6395 61.3358C39.6995 61.3358 44.7295 56.8258 45.5795 50.9958H68.1195V47.5058Z" fill="url(#paint9_linear)"/>
<path d="M29.0095 51.0058C29.7195 52.8958 31.5195 54.2358 33.6395 54.2358C36.3795 54.2358 38.5995 52.0058 38.5995 49.2758C38.5995 46.5358 36.3695 44.3158 33.6395 44.3158C31.5395 44.3158 29.7195 45.6458 29.0095 47.5158H22.5195V51.0158H29.0095V51.0058Z" fill="url(#paint10_linear)"/>
<path opacity="0.15" d="M74.5196 61.586H52.1896C51.5596 61.586 51.0596 61.076 51.0596 60.456V40.616C51.0596 39.986 51.5596 39.486 52.1896 39.486H74.5196C75.1496 39.486 75.6496 39.986 75.6496 40.616V60.446C75.6496 61.076 75.1396 61.586 74.5196 61.586Z" fill="#1F1D20"/>
<path d="M74.5196 60.1759H52.1896C51.5596 60.1759 51.0596 59.6759 51.0596 59.0459V39.2159C51.0596 38.5859 51.5596 38.0859 52.1896 38.0859H74.5196C75.1496 38.0859 75.6496 38.5859 75.6496 39.2159V59.0459C75.6496 59.6759 75.1396 60.1759 74.5196 60.1759Z" fill="white"/>
<path d="M70.7694 44.616C70.7694 44.146 70.3894 43.756 69.9094 43.756H56.7194C56.2494 43.756 55.8594 44.136 55.8594 44.616C55.8594 45.086 56.2394 45.476 56.7194 45.476H69.9194C70.3994 45.456 70.7694 45.086 70.7694 44.616Z" fill="#50E6FF"/>
<path d="M59.0498 44.6159C59.0498 45.5559 59.8198 46.3159 60.7498 46.3159C61.6898 46.3159 62.4498 45.5459 62.4498 44.6159C62.4498 43.6759 61.6798 42.9159 60.7498 42.9159C59.8098 42.9159 59.0498 43.6759 59.0498 44.6159Z" fill="#0D3868"/>
<path d="M70.7694 48.9259C70.7694 48.4559 70.3894 48.0659 69.9094 48.0659H56.7194C56.2494 48.0659 55.8594 48.4459 55.8594 48.9259C55.8594 49.3959 56.2394 49.7859 56.7194 49.7859H69.9194C70.3994 49.7759 70.7694 49.3959 70.7694 48.9259Z" fill="#32B0E7"/>
<path d="M64.1592 48.9159C64.1592 49.8559 64.9292 50.6159 65.8592 50.6159C66.7892 50.6159 67.5592 49.8459 67.5592 48.9159C67.5592 47.9759 66.7892 47.2159 65.8592 47.2159C64.9192 47.2259 64.1592 47.9859 64.1592 48.9159Z" fill="#0D3868"/>
<path d="M70.7694 53.476C70.7694 53.006 70.3894 52.616 69.9094 52.616H56.7194C56.2494 52.616 55.8594 52.996 55.8594 53.476C55.8594 53.946 56.2394 54.336 56.7194 54.336H69.9194C70.3994 54.336 70.7694 53.956 70.7694 53.476Z" fill="#185A97"/>
<path d="M59.1094 53.4759C59.1094 54.4159 59.8794 55.1759 60.8094 55.1759C61.7494 55.1759 62.5094 54.4059 62.5094 53.4759C62.5094 52.5359 61.7394 51.7759 60.8094 51.7759C59.8694 51.7859 59.1094 52.5459 59.1094 53.4759Z" fill="#0D3868"/>
<path fill-rule="evenodd" clip-rule="evenodd" d="M94.1095 51.0458C94.1095 74.8458 74.8195 94.1358 51.0195 94.1358C27.2195 94.1358 7.92945 74.8458 7.92945 51.0458C7.92945 27.2458 27.2195 7.95582 51.0195 7.95582C74.8195 7.95582 94.1095 27.2458 94.1095 51.0458ZM51.0195 4.21582C76.8795 4.21582 97.8495 25.1858 97.8495 51.0458C97.8495 76.9058 76.8795 97.8758 51.0195 97.8758C25.1595 97.8758 4.18945 76.9058 4.18945 51.0458C4.18945 25.1858 25.1495 4.21582 51.0195 4.21582Z" fill="url(#paint11_linear)"/>
<defs>
<linearGradient id="paint0_linear" x1="49.25" y1="-13.744" x2="53.232" y2="132.026" gradientUnits="userSpaceOnUse">
<stop stop-color="#00ABDE"/>
<stop offset="1" stop-color="#007ED8"/>
</linearGradient>
<linearGradient id="paint1_linear" x1="43.096" y1="9.32072" x2="71.31" y2="67.5307" gradientUnits="userSpaceOnUse">
<stop stop-color="#007ED8"/>
<stop offset="0.7065" stop-color="#002D4C"/>
</linearGradient>
<linearGradient id="paint2_linear" x1="57.214" y1="160.846" x2="45.3344" y2="15.0233" gradientUnits="userSpaceOnUse">
<stop stop-color="#007ED8"/>
<stop offset="0.7065" stop-color="#002D4C"/>
</linearGradient>
<linearGradient id="paint3_linear" x1="51.0303" y1="68.9391" x2="51.0303" y2="30.6347" gradientUnits="userSpaceOnUse">
<stop stop-color="#D2EBFF"/>
<stop offset="1" stop-color="#F0FFFD"/>
</linearGradient>
<linearGradient id="paint4_linear" x1="51.0197" y1="24.9702" x2="51.0197" y2="31.3425" gradientUnits="userSpaceOnUse">
<stop stop-color="#0099BE"/>
<stop offset="1" stop-color="#006E97"/>
</linearGradient>
<linearGradient id="paint5_linear" x1="51.0142" y1="68.1412" x2="51.0142" y2="71.6828" gradientUnits="userSpaceOnUse">
<stop stop-color="#0099BE"/>
<stop offset="1" stop-color="#006E97"/>
</linearGradient>
<linearGradient id="paint6_linear" x1="51.0303" y1="68.9391" x2="51.0303" y2="30.6347" gradientUnits="userSpaceOnUse">
<stop stop-color="#D2EBFF"/>
<stop offset="1" stop-color="#F0FFFD"/>
</linearGradient>
<linearGradient id="paint7_linear" x1="51.0197" y1="24.9702" x2="51.0197" y2="31.3425" gradientUnits="userSpaceOnUse">
<stop stop-color="#007ED8"/>
<stop offset="0.7065" stop-color="#002D4C"/>
</linearGradient>
<linearGradient id="paint8_linear" x1="51.0142" y1="68.1412" x2="51.0142" y2="71.6828" gradientUnits="userSpaceOnUse">
<stop stop-color="#007ED8"/>
<stop offset="0.7065" stop-color="#002D4C"/>
</linearGradient>
<linearGradient id="paint9_linear" x1="15.842" y1="22.0978" x2="75.9365" y2="79.9246" gradientUnits="userSpaceOnUse">
<stop stop-color="#007ED8"/>
<stop offset="0.7065" stop-color="#002D4C"/>
</linearGradient>
<linearGradient id="paint10_linear" x1="21.6917" y1="39.9825" x2="53.7332" y2="73.051" gradientUnits="userSpaceOnUse">
<stop stop-color="#007ED8"/>
<stop offset="0.7065" stop-color="#002D4C"/>
</linearGradient>
<linearGradient id="paint11_linear" x1="2.45265" y1="-20.5789" x2="97.9803" y2="120.302" gradientUnits="userSpaceOnUse">
<stop stop-color="#007ED8"/>
<stop offset="0.7065" stop-color="#002D4C"/>
</linearGradient>
</defs>
</svg>
