<?xml version="1.0" encoding="UTF-8"?>
<svg width="100px" height="100px" viewBox="0 0 100 100" version="1.1" xmlns="http://www.w3.org/2000/svg" xmlns:xlink="http://www.w3.org/1999/xlink">
    <!-- Generator: Sketch 51.3 (57544) - http://www.bohemiancoding.com/sketch -->
    <title>get-started-with-powerapps</title>
    <desc>Created with Sketch.</desc>
    <defs>
        <filter x="-2.1%" y="-1.5%" width="104.2%" height="105.9%" filterUnits="objectBoundingBox" id="filter-1">
            <feOffset dx="0" dy="2" in="SourceAlpha" result="shadowOffsetOuter1"></feOffset>
            <feColorMatrix values="0 0 0 0 0   0 0 0 0 0   0 0 0 0 0  0 0 0 0.0963541667 0" type="matrix" in="shadowOffsetOuter1" result="shadowMatrixOuter1"></feColorMatrix>
            <feMerge>
                <feMergeNode in="shadowMatrixOuter1"></feMergeNode>
                <feMergeNode in="SourceGraphic"></feMergeNode>
            </feMerge>
        </filter>
        <path d="M14.2695809,40.0678267 L18.266682,40.0678267 L18.266682,49.3326304 L16.1225417,49.3326304 L16.1225417,41.7884331 L14.2695809,41.7884331 L14.2695809,40.0678267 Z M23.8520351,49.4914557 C21.5755404,49.4914557 19.8814049,47.7576138 19.8814049,44.7002286 C19.8814049,41.6428433 21.5755404,39.9090015 23.8520351,39.9090015 C26.1417651,39.9090015 27.8226653,41.6428433 27.8226653,44.7002286 C27.8226653,47.7576138 26.1417651,49.4914557 23.8520351,49.4914557 Z M23.8520351,47.6782012 C24.9241052,47.6782012 25.6652895,46.8046626 25.6652895,44.7002286 C25.6652895,42.5957946 24.9241052,41.7222559 23.8520351,41.7222559 C22.7932004,41.7222559 22.0520161,42.5957946 22.0520161,44.7002286 C22.0520161,46.8046626 22.7932004,47.6782012 23.8520351,47.6782012 Z M28.365318,40.0678267 L32.3624191,40.0678267 L32.3624191,49.3326304 L30.2182788,49.3326304 L30.2182788,41.7884331 L28.365318,41.7884331 L28.365318,40.0678267 Z" id="path-2"></path>
        <filter x="-0.7%" y="-1.3%" width="101.4%" height="105.2%" filterUnits="objectBoundingBox" id="filter-3">
            <feOffset dx="0" dy="0.25" in="SourceAlpha" result="shadowOffsetOuter1"></feOffset>
            <feColorMatrix values="0 0 0 0 1   0 0 0 0 1   0 0 0 0 1  0 0 0 0.249094203 0" type="matrix" in="shadowOffsetOuter1"></feColorMatrix>
        </filter>
        <filter x="-0.4%" y="-0.5%" width="100.7%" height="101.9%" filterUnits="objectBoundingBox" id="filter-4">
            <feOffset dx="0" dy="0.25" in="SourceAlpha" result="shadowOffsetOuter1"></feOffset>
            <feColorMatrix values="0 0 0 0 1   0 0 0 0 1   0 0 0 0 1  0 0 0 0.249094203 0" type="matrix" in="shadowOffsetOuter1" result="shadowMatrixOuter1"></feColorMatrix>
            <feMerge>
                <feMergeNode in="shadowMatrixOuter1"></feMergeNode>
                <feMergeNode in="SourceGraphic"></feMergeNode>
            </feMerge>
        </filter>
    </defs>
    <g id="Badges-FINAL" stroke="none" stroke-width="1" fill="none" fill-rule="evenodd">
        <g id="Create-a-PowerApp" transform="translate(-577.000000, -320.000000)">
            <g id="get-started-with-powerapps" transform="translate(577.000000, 320.000000)">
                <rect id="BG" fill="#965596" x="2" y="2" width="96" height="96" rx="48"></rect>
                <g id="Book" filter="url(#filter-1)" transform="translate(26.000000, 16.000000)">
                    <g transform="translate(0.167481, 0.387536)">
                        <path d="M0.832518557,55.6124645 L0.832518557,61.6124645 C0.839673316,62.8067453 1.6709668,63.6146507 2.83251856,63.6124645 L46.8325186,63.6124689 L46.8325186,55.6124645 L0.832518557,55.6124645 Z" id="Shape" fill="#BE9555" fill-rule="nonzero"></path>
                        <path d="M2.83251856,56.6124645 L2.83251856,60.6124645 C2.86672747,61.717521 3.75260508,62.6147293 4.78807411,62.6124645 L46.8325186,62.6124645 L46.8325186,56.6124645 L2.83251856,56.6124645 Z" id="Shape" fill="#FFFFFF" fill-rule="nonzero"></path>
                        <polygon id="Shape" fill="#4F4D52" fill-rule="nonzero" opacity="0.2" points="2.83251856 56.6124645 2.83251856 57.6124645 46.8325186 57.6124645 46.8325186 56.6124645"></polygon>
                        <polygon id="Shape" fill="#4F4D52" fill-rule="nonzero" opacity="0.2" points="20.8325186 56.6124645 26.8325186 62.6124645 20.8325186 62.6124645"></polygon>
                        <polygon id="Shape" fill="#EF6F59" fill-rule="nonzero" points="21.8325186 66.6124645 17.8325186 64.6124645 14.8325186 66.6124645 14.8325186 56.6124645 21.8325186 56.6124645"></polygon>
                        <polygon id="Shape" fill="#F7CB64" fill-rule="nonzero" points="46.8325186 55.6124645 0.832518557 55.6124645 0.832518557 0.612464493 46.8325186 0.612464493"></polygon>
                        <path d="M23.8325186,51.6124645 C23.8325186,52.7164645 22.9384486,53.6124645 21.8325186,53.6124645 L0.832518557,53.6124645 L0.832518557,55.6124645 L46.8325186,55.6124645 L46.8325186,3.61246449 L25.8325186,3.61246449 C24.7265885,3.61246449 23.8325186,4.50746449 23.8325186,5.61246449 L23.8325186,51.6124645 Z" id="Fill-361" fill-opacity="0.126868207" fill="#000000"></path>
                    </g>
                    <g id="101">
                        <use fill="black" fill-opacity="1" filter="url(#filter-3)" xlink:href="#path-2"></use>
                        <use fill="#4C3B12" fill-rule="evenodd" xlink:href="#path-2"></use>
                    </g>
                    <g id="PowerApp-Logo" filter="url(#filter-4)" transform="translate(7.000000, 9.816977)" fill="#4C3B12" fill-rule="nonzero">
                        <rect id="Rectangle-path" transform="translate(21.438863, 22.110149) rotate(-44.997000) translate(-21.438863, -22.110149) " x="18.7874242" y="19.4587101" width="5.30287698" height="5.30287698" rx="0.899150476"></rect>
                        <rect id="Rectangle-path" transform="translate(26.125618, 17.416215) rotate(-44.997000) translate(-26.125618, -17.416215) " x="23.4741798" y="14.7647763" width="5.30287698" height="5.30287698" rx="0.899150476"></rect>
                        <path d="M19.7591379,16.6650523 L19.0269371,15.9333828 L12.8218271,9.72880422 C12.4071487,9.31571254 11.7365034,9.31571254 11.321825,9.72880422 L5.116715,15.9333828 L4.3850455,16.6650523 C3.97195381,17.0797308 3.97195381,17.750376 4.3850455,18.1650545 L5.116715,18.8972554 L11.3250131,25.0986459 C11.7396915,25.5117376 12.4103368,25.5117376 12.8250152,25.0986459 L19.0295938,18.896724 L19.7617947,18.1645232 C20.1748864,17.7498447 20.1748864,17.0791995 19.7617947,16.664521 M11.3250131,20.4142607 L9.64966525,18.7394443 L9.07474412,18.1645232 C8.66165243,17.7498447 8.66165243,17.0791995 9.07474412,16.664521 L11.3244817,14.4147834 C11.7391602,14.0016917 12.4098054,14.0016917 12.8244839,14.4147834 L15.0742215,16.664521 C15.4873132,17.0791995 15.4873132,17.7498447 15.0742215,18.1645232 L14.4993003,18.7394443 L12.8244839,20.4142607 C12.4098054,20.8273524 11.7391602,20.8273524 11.3244817,20.4142607" id="Shape"></path>
                        <path d="M22.1879406,15.7277502 L24.4376782,13.4780126 C24.8507699,13.0633342 24.8507699,12.3926889 24.4376782,11.9780105 L22.1879406,9.72827287 C21.7732621,9.31518119 21.1026169,9.31518119 20.6879384,9.72827287 L18.4382008,11.9780105 C18.0251092,12.3926889 18.0251092,13.0633342 18.4382008,13.4780126 L20.6879384,15.7277502 C21.1026169,16.1408419 21.7732621,16.1408419 22.1879406,15.7277502" id="Shape"></path>
                        <path d="M29.6688229,22.0354108 L28.9908198,22.0354108 L28.9908198,20.6799359 L29.6688229,20.6799359 C31.1086737,20.6781793 32.2754654,19.5113876 32.277222,18.0715368 L32.277222,4.22507679 C32.2757581,2.78501849 31.1088809,1.61790355 29.6688229,1.61614633 L3.9886581,1.61614633 C2.54860013,1.61790355 1.38172289,2.78501849 1.38025899,4.22507679 L1.38025899,18.0715368 C1.38201563,19.5113876 2.5488073,20.6781793 3.9886581,20.6799359 L4.66666121,20.6799359 L4.66666121,22.0354108 L3.9886581,22.0354108 C1.80023463,22.0333608 0.0265961385,20.25996 0.0242527768,18.0715368 L0.0242527768,4.22507679 C0.0265961385,2.03665361 1.80023463,0.263252844 3.9886581,0.261202817 L29.6688229,0.261202817 C31.8570389,0.263545663 33.630354,2.03686082 33.6326969,4.22507679 L33.6326969,18.0715368 C33.630354,20.2597528 31.8570389,22.033068 29.6688229,22.0354108" id="Shape"></path>
                    </g>
                </g>
                <g id="PowerApps-Border" stroke="#742774" stroke-width="4">
                    <rect id="Azure-Border" x="2" y="2" width="96" height="96" rx="48"></rect>
                </g>
            </g>
        </g>
    </g>
</svg>