<?xml version="1.0" encoding="UTF-8"?>
<svg width="100px" height="100px" viewBox="0 0 100 100" version="1.1" xmlns="http://www.w3.org/2000/svg" xmlns:xlink="http://www.w3.org/1999/xlink">
    <!-- Generator: Sketch 55.2 (78181) - https://sketchapp.com -->
    <title>Create Reports with Power BI Desktop/get-data-with-power-bi-desktop</title>
    <desc>Created with Sketch.</desc>
    <defs>
        <rect id="path-1" x="0" y="0" width="96" height="96" rx="48"></rect>
        <filter x="-6.2%" y="-7.1%" width="112.5%" height="114.3%" filterUnits="objectBoundingBox" id="filter-3">
            <feOffset dx="0" dy="2" in="SourceAlpha" result="shadowOffsetOuter1"></feOffset>
            <feColorMatrix values="0 0 0 0 0   0 0 0 0 0   0 0 0 0 0  0 0 0 0.0964956975 0" type="matrix" in="shadowOffsetOuter1" result="shadowMatrixOuter1"></feColorMatrix>
            <feMerge>
                <feMergeNode in="shadowMatrixOuter1"></feMergeNode>
                <feMergeNode in="SourceGraphic"></feMergeNode>
            </feMerge>
        </filter>
    </defs>
    <g id="Badges" stroke="none" stroke-width="1" fill="none" fill-rule="evenodd">
        <g id="Create-Reports-with-Power-BI-Desktop" transform="translate(-50.000000, -260.000000)">
            <g id="Create-Reports-with-Power-BI-Desktop/get-data-with-power-bi-desktop" transform="translate(50.000000, 260.000000)">
                <g id="Mask" transform="translate(2.000000, 2.000000)">
                    <mask id="mask-2" fill="white">
                        <use xlink:href="#path-1"></use>
                    </mask>
                    <use fill="#7D7D7D" xlink:href="#path-1"></use>
                    <g id="Monitor" filter="url(#filter-3)" mask="url(#mask-2)">
                        <g transform="translate(16.000000, 20.000000)">
                            <path d="M0,36 L0,42 C0,44.2 1.8,46 4,46 L60,46 C62.2,46 64,44.2 64,42 L64,36 L0,36" id="Fill-1285" fill="#E1E4E1"></path>
                            <path d="M4,0 C1.8,0 0,1.8 0,4 L0,36 L64,36 L64,4 C64,1.8 62.2,0 60,0 L4,0 Z M60,2 C61.103,2 62,2.897 62,4 L62,34 L2,34 L2,4 C2,2.897 2.897,2 4,2 L60,2 L60,2 Z" id="Fill-1287" fill="#182A37"></path>
                            <path d="M2,4 C2,2.897 2.897,2 4,2 L60,2 C61.103,2 62,2.897 62,4 L62,34 L2,34 L2,4" id="Fill-1288" fill="#30404D"></path>
                            <path d="M4,2 L31.389,2 L21.611,34 L2,34 L2,4 C2,2.897 2.897,2 4,2" id="Fill-1289" fill="#384B58"></path>
                            <path d="M4,0 L32,0 L31.389,2 L4,2 C2.897,2 2,2.897 2,4 L2,34 L21.611,34 L21,36 L0,36 L0,4 C0,1.8 1.8,0 4,0" id="Fill-1290" fill="#30404D"></path>
                            <polyline id="Fill-1291" fill="#E1E4E1" points="40 55 24 55 26 46 38 46 40 55"></polyline>
                            <path d="M40,55 L38,46 L26,46 L25.555,48 L30,48 C31.105,48 32,48.895 32,50 L32,55 L40,55" id="Fill-1292" fill="#CDD6D8"></path>
                            <path d="M44,55 C44,55.55 43.55,56 43,56 L21,56 C20.45,56 20,55.55 20,55 C20,54.45 20.45,54 21,54 L43,54 C43.55,54 44,54.45 44,55" id="Fill-1293" fill="#E1E4E1"></path>
                            <path d="M21,56 L43,56 C43.55,56 44,55.55 44,55 L20,55 C20,55.55 20.45,56 21,56" id="Fill-1294" fill="#CDD6D8"></path>
                            <path d="M3.37069097,4.7988788 C3.37069097,3.47558797 4.44683954,2.3994394 5.77013037,2.3994394 L58.5577972,2.3994394 C59.8798883,2.3994394 60.9572366,3.47558797 60.9572366,4.7988788 L60.9572366,35.991591 L3.37069097,35.991591 L3.37069097,4.7988788" id="Fill-1417" fill="#F7CB64"></path>
                        </g>
                    </g>
                    <g id="Paper" mask="url(#mask-2)">
                        <g transform="translate(26.250000, 24.000000)">
                            <g id="Lines" transform="translate(0.746534, 18.316920)">
                                <polygon id="Rectangle-path" fill="#FFEBBC" fill-rule="nonzero" points="0.107507788 0.295672515 21.1075078 0.295672515 21.1075078 1.16921637 0.107507788 1.16921637"></polygon>
                                <polygon id="Rectangle-path" fill="#FFEBBC" fill-rule="nonzero" points="0.107507788 3.16481871 21.1075078 3.16481871 21.1075078 4.03836257 0.107507788 4.03836257"></polygon>
                                <polygon id="Rectangle-path" fill="#FFEBBC" fill-rule="nonzero" points="0.107507788 6.03359064 21.1075078 6.03359064 21.1075078 6.90750877 0.107507788 6.90750877"></polygon>
                                <polygon id="Rectangle-path" fill="#FFEBBC" fill-rule="nonzero" points="0.107507788 8.90273684 21.1075078 8.90273684 21.1075078 9.7762807 0.107507788 9.7762807"></polygon>
                            </g>
                            <g id="Pie" transform="translate(27.111111, 15.777778)">
                                <path d="M7.64598956,8.13890869 L7.61670296,8.263166 L7.64598956,8.13890869 L7.5547933,8.13890869 L7.64598956,8.13890869 L9.21931043,1.42639407 C8.67509859,1.2931543 8.10975592,1.21493208 7.52476526,1.21493208 C3.56625436,1.21493208 0.357332239,4.45423032 0.357332239,8.45104904 C0.357332239,12.4471192 3.56625436,15.687166 7.52476526,15.687166 C11.4836469,15.687166 14.6921983,12.4471192 14.6921983,8.45104904 C14.6921983,8.34550518 14.6833011,8.2425812 14.6788525,8.13890869 L7.64598956,8.13890869 Z" id="Shape" fill="#876D31" fill-rule="nonzero"></path>
                                <path d="M8.63913909,7.3140198 L10.5023603,0.729130909 C13.3754132,1.82648763 15.4328899,5.23682682 15.6593977,7.3140198 L8.63913909,7.3140198 Z" id="Shape" fill="#FFDC8A" fill-rule="nonzero"></path>
                            </g>
                            <g id="Graph" transform="translate(3.750000, 0.000000)">
                                <path d="M2.65175997,5.6479919 C1.27305842,5.6479919 0.151960595,4.52609157 0.151960595,3.14779127 C0.151960595,1.76949097 1.27345967,0.647991898 2.65175997,0.647991898 C4.03046152,0.647991898 5.1519606,1.76949097 5.1519606,3.14779127 C5.1519606,4.52609157 4.03006027,5.6479919 2.65175997,5.6479919 Z M2.65175997,1.45009446 C1.71563927,1.45009446 0.954464407,2.21167058 0.954464407,3.14739002 C0.954464407,4.08391197 1.71563927,4.84508683 2.65175997,4.84508683 C3.58788067,4.84508683 4.34945678,4.08391197 4.34945678,3.14739002 C4.34945678,2.21167058 3.58788067,1.45009446 2.65175997,1.45009446 Z" id="Shape" fill="#876D31" fill-rule="nonzero"></path>
                                <path d="M10.6517599,13.6479919 C9.2730584,13.6479919 8.1519606,12.5260916 8.1519606,11.1477913 C8.1519606,9.76908972 9.27345965,8.6479919 10.6517599,8.6479919 C12.0304614,8.6479919 13.1519606,9.76949097 13.1519606,11.1477913 C13.1523617,12.5260916 12.0304614,13.6479919 10.6517599,13.6479919 Z M10.6517599,9.45009446 C9.71563924,9.45009446 8.95446439,10.2112693 8.95446439,11.14739 C8.95446439,12.0835107 9.71563924,12.8450868 10.6517599,12.8450868 C11.5878806,12.8450868 12.3494567,12.0835107 12.3494567,11.14739 C12.3494567,10.2112693 11.5882818,9.45009446 10.6517599,9.45009446 Z" id="Shape" fill="#876D31" fill-rule="nonzero"></path>
                                <path d="M22.65176,8.6479919 C21.2730584,8.6479919 20.1519606,7.52609157 20.1519606,6.14779127 C20.1519606,4.76908972 21.2734597,3.6479919 22.65176,3.6479919 C24.0300603,3.6479919 25.1519606,4.76949097 25.1519606,6.14779127 C25.1519606,7.52609157 24.0300603,8.6479919 22.65176,8.6479919 Z M22.65176,4.45009446 C21.7156393,4.45009446 20.9544644,5.21126932 20.9544644,6.14739002 C20.9544644,7.08351072 21.7156393,7.84508683 22.65176,7.84508683 C23.5878807,7.84508683 24.3494568,7.08351072 24.3494568,6.14739002 C24.3494568,5.21167058 23.5878807,4.45009446 22.65176,4.45009446 Z" id="Shape" fill="#876D31" fill-rule="nonzero"></path>
                                <path d="M33.6517599,13.6479919 C32.2730584,13.6479919 31.1519606,12.5260916 31.1519606,11.1477913 C31.1519606,9.76908972 32.2734596,8.6479919 33.6517599,8.6479919 C35.0304614,8.6479919 36.1519606,9.76949097 36.1519606,11.1477913 C36.1523617,12.5260916 35.0304614,13.6479919 33.6517599,13.6479919 Z M33.6517599,9.45009446 C32.7156392,9.45009446 31.9544644,10.2112693 31.9544644,11.14739 C31.9544644,12.0835107 32.7156392,12.8450868 33.6517599,12.8450868 C34.5878806,12.8450868 35.3494567,12.0835107 35.3494567,11.14739 C35.3494567,10.2112693 34.5878806,9.45009446 33.6517599,9.45009446 Z" id="Shape" fill="#876D31" fill-rule="nonzero"></path>
                                <polygon id="Rectangle-path" fill="#876D31" fill-rule="nonzero" transform="translate(6.206693, 7.591814) rotate(45.000000) translate(-6.206693, -7.591814) " points="2.7184266 7.33899941 9.72533717 7.06571897 9.69495849 7.84462849 2.68804792 8.11790893"></polygon>
                                <polygon id="Rectangle-path" fill="#876D31" fill-rule="nonzero" transform="translate(16.644656, 9.366303) rotate(65.039180) translate(-16.644656, -9.366303) " points="16.3994569 4.88856033 17.151234 4.86554747 16.8898555 13.8440451 16.1380785 13.867058"></polygon>
                                <polygon id="Rectangle-path" fill="#876D31" fill-rule="nonzero" transform="translate(28.212509, 8.645995) rotate(20.488312) translate(-28.212509, -8.645995) " points="24.177581 8.36870102 32.2673471 8.16772064 32.2474369 8.92328902 24.1576708 9.12426941"></polygon>
                            </g>
                        </g>
                    </g>
                </g>
                <g id="Power-BI-Border" stroke="#F2C811" stroke-width="4">
                    <rect id="Azure-Border" x="2" y="2" width="96" height="96" rx="48"></rect>
                </g>
            </g>
        </g>
    </g>
</svg>