<?xml version="1.0" encoding="UTF-8"?>
<svg width="100px" height="118px" viewBox="0 0 100 118" version="1.1" xmlns="http://www.w3.org/2000/svg" xmlns:xlink="http://www.w3.org/1999/xlink">
    <!-- Generator: Sketch 53.2 (72643) - https://sketchapp.com -->
    <title>Get Started with Dynamics 365 Portals/get-started-with-dynamics-365-portals</title>
    <desc>Created with Sketch.</desc>
    <defs>
        <path d="M42.7425,1.49663266 C44.3745,0.498877554 46.1865,0 48,0 C49.8135,0 51.627,0.498877554 53.256,1.49663266 L90.591,24.3316189 C93.933,26.3773408 96,30.2031485 96,34.3529027 L96,79.6470973 C96,83.7952317 93.933,87.6242789 90.591,89.6683811 L53.256,112.504987 C51.627,113.501122 49.8135,114 48,114 C46.1865,114 44.3745,113.501122 42.7425,112.504987 L5.409,89.6683811 C2.0655,87.6242789 0,83.7952317 0,79.6470973 L0,34.3529027 C0,30.2031485 2.0655,26.3773408 5.409,24.3316189 L42.7425,1.49663266 Z" id="path-1"></path>
        <path d="M2.53617494,12.5723499 L10.4638251,12.5723499 C11.0161098,12.5723499 11.4638251,12.1246346 11.4638251,11.5723499 L11.4638251,2.8173956 C11.4638251,2.26511085 11.0161098,1.8173956 10.4638251,1.8173956 L2.53617494,1.8173956 C1.98389019,1.8173956 1.53617494,2.26511085 1.53617494,2.8173956 L1.53617494,11.5723499 C1.53617494,12.1246346 1.98389019,12.5723499 2.53617494,12.5723499 Z" id="path-3"></path>
        <filter x="-10.1%" y="-9.3%" width="120.1%" height="118.6%" filterUnits="objectBoundingBox" id="filter-4">
            <feOffset dx="0" dy="2" in="SourceAlpha" result="shadowOffsetInner1"></feOffset>
            <feComposite in="shadowOffsetInner1" in2="SourceAlpha" operator="arithmetic" k2="-1" k3="1" result="shadowInnerInner1"></feComposite>
            <feColorMatrix values="0 0 0 0 0   0 0 0 0 0   0 0 0 0 0  0 0 0 0.102185236 0" type="matrix" in="shadowInnerInner1"></feColorMatrix>
        </filter>
    </defs>
    <g id="Badges" stroke="none" stroke-width="1" fill="none" fill-rule="evenodd">
        <g id="Get-Started-with-Dynamics-365-Portals" transform="translate(-50.000000, -50.000000)">
            <g id="Get-Started-with-Dynamics-365-Portals/get-started-with-dynamics-365-portals" transform="translate(50.000000, 50.000000)">
                <g id="Mask" transform="translate(2.000000, 2.000000)">
                    <mask id="mask-2" fill="white">
                        <use xlink:href="#path-1"></use>
                    </mask>
                    <use id="Trophy-1" fill="#01B6C3" xlink:href="#path-1"></use>
                    <g id="Book" mask="url(#mask-2)">
                        <g transform="translate(25.000000, 24.000000)">
                            <path d="M0.832518557,55.6124645 L0.832518557,61.6124645 C0.839673316,62.8067453 1.6709668,63.6146507 2.83251856,63.6124645 L46.8325186,63.6124689 L46.8325186,55.6124645 L0.832518557,55.6124645 Z" id="Shape" fill="#BE9555" fill-rule="nonzero"></path>
                            <path d="M2.83251856,56.6124645 L2.83251856,60.6124645 C2.86672747,61.717521 3.75260508,62.6147293 4.78807411,62.6124645 L46.8325186,62.6124645 L46.8325186,56.6124645 L2.83251856,56.6124645 Z" id="Shape" fill="#FFFFFF" fill-rule="nonzero"></path>
                            <polygon id="Shape" fill="#4F4D52" fill-rule="nonzero" opacity="0.2" points="2.83251856 56.6124645 2.83251856 57.6124645 46.8325186 57.6124645 46.8325186 56.6124645"></polygon>
                            <polygon id="Shape" fill="#4F4D52" fill-rule="nonzero" opacity="0.2" points="20.8325186 56.6124645 26.8325186 62.6124645 20.8325186 62.6124645"></polygon>
                            <polygon id="Shape" fill="#EF6F59" fill-rule="nonzero" points="21.8325186 66.6124645 17.8325186 64.6124645 14.8325186 66.6124645 14.8325186 56.6124645 21.8325186 56.6124645"></polygon>
                            <polygon id="Shape" fill="#F7CB64" fill-rule="nonzero" points="46.8325186 55.6124645 0.832518557 55.6124645 0.832518557 0.612464493 46.8325186 0.612464493"></polygon>
                            <path d="M23.8325186,51.6124645 C23.8325186,52.7164645 22.9384486,53.6124645 21.8325186,53.6124645 L0.832518557,53.6124645 L0.832518557,55.6124645 L46.8325186,55.6124645 L46.8325186,3.61246449 L25.8325186,3.61246449 C24.7265885,3.61246449 23.8325186,4.50746449 23.8325186,5.61246449 L23.8325186,51.6124645 Z" id="Fill-361" fill-opacity="0.126868207" fill="#000000" fill-rule="evenodd"></path>
                        </g>
                    </g>
                    <g id="Portal" mask="url(#mask-2)">
                        <g transform="translate(37.000000, 37.000000)">
                            <path d="M2,28 L21,28 L21,6.09881537 C21,2.78510687 18.3137085,0.0988153691 15,0.0988153691 L8,0.0988153691 C4.6862915,0.0988153691 2,2.78510687 2,6.09881537 L2,28 Z" id="Fill-811" fill="#584518"></path>
                            <path d="M11.5340742,28 L21.0000031,28 L21.0000031,5.81427874 C21.0000031,3.21000023 18.8888183,1.09881537 16.2845397,1.09881537 L12.5677761,1.09881537 C12.0159994,1.09881537 11.5684949,1.54573801 11.5677769,2.09751423 L11.5340742,28 Z" id="Fill-811" fill="#000000" opacity="0.047781808"></path>
                            <path d="M9.99996874,3.73148148 C9.53446874,3.73148148 9.14696874,3.41248148 9.03546874,2.98148148 C9.01446874,3.06198148 8.99996874,3.14448148 8.99996874,3.23148148 C8.99996874,3.78398148 9.44796874,4.23148148 9.99996874,4.23148148 C10.5524687,4.23148148 10.9999687,3.78398148 10.9999687,3.23148148 C10.9999687,3.14448148 10.9854687,3.06198148 10.9644687,2.98148148 C10.8529687,3.41248148 10.4654687,3.73148148 9.99996874,3.73148148" id="Fill-178" fill="#584518"></path>
                            <path d="M10.9999687,2.99938224 C10.9999687,3.55188224 10.5524687,3.99938224 9.99996874,3.99938224 C9.44796874,3.99938224 8.99996874,3.55188224 8.99996874,2.99938224 C8.99996874,2.44638224 9.44796874,1.99938224 9.99996874,1.99938224 C10.5524687,1.99938224 10.9999687,2.44638224 10.9999687,2.99938224" id="Fill-177" fill="#F7CB64"></path>
                            <path d="M10.7069687,3.70638224 C11.0979687,3.31538224 11.0974687,2.68288224 10.7069687,2.29238224 L9.29296874,3.70638224 C9.68346874,4.09688224 10.3164687,4.09738224 10.7069687,3.70638224" id="Fill-179" fill="#D8B157"></path>
                            <path d="M12.9999687,3.73148148 C12.5344687,3.73148148 12.1464687,3.41248148 12.0349687,2.98148148 C12.0144687,3.06198148 11.9999687,3.14448148 11.9999687,3.23148148 C11.9999687,3.78398148 12.4474687,4.23148148 12.9999687,4.23148148 C13.5519687,4.23148148 13.9999687,3.78398148 13.9999687,3.23148148 C13.9999687,3.14448148 13.9854687,3.06198148 13.9644687,2.98148148 C13.8529687,3.41248148 13.4654687,3.73148148 12.9999687,3.73148148" id="Fill-181" fill="#584518"></path>
                            <path d="M13.9999687,2.99938224 C13.9999687,3.55188224 13.5524687,3.99938224 12.9999687,3.99938224 C12.4479687,3.99938224 11.9999687,3.55188224 11.9999687,2.99938224 C11.9999687,2.44638224 12.4479687,1.99938224 12.9999687,1.99938224 C13.5524687,1.99938224 13.9999687,2.44638224 13.9999687,2.99938224" id="Fill-180" fill="#F7CB64"></path>
                            <path d="M13.7069687,3.70638224 C14.0979687,3.31538224 14.0974687,2.68288224 13.7069687,2.29238224 L12.2929687,3.70638224 C12.6834687,4.09688224 13.3159687,4.09738224 13.7069687,3.70638224" id="Fill-182" fill="#D8B157"></path>
                            <rect id="Rectangle" fill="#D8B157" x="0" y="28" width="23" height="3" rx="1.5"></rect>
                            <path d="M2.27453473e-13,29.5 L10.0148745,29.5 C10.8433017,29.5 11.5148745,28.8284271 11.5148745,28 L11.5148745,28 L21.5,28 C22.3284271,28 23,28.6715729 23,29.5 L23,29.5 C23,30.3284271 22.3284271,31 21.5,31 L1.5,31 C0.671572875,31 2.27475129e-13,30.3284271 2.27373675e-13,29.5 L2.27453473e-13,29.5 Z" id="Rectangle" fill="#F7CB64"></path>
                            <g id="Group-50" stroke-width="1" fill="none" transform="translate(5.000000, 5.500000)">
                                <path d="M3,0 L10,0 C11.6568542,-1.77594138e-15 13,1.34314575 13,3 L13,22.5 L0,22.5 L0,3 C-2.02906125e-16,1.34314575 1.34314575,3.04359188e-16 3,0 Z" id="Rectangle" fill="#F7CB64"></path>
                                <g id="Fill-822">
                                    <use fill="#584518" fill-rule="evenodd" xlink:href="#path-3"></use>
                                    <use fill="black" fill-opacity="1" filter="url(#filter-4)" xlink:href="#path-3"></use>
                                </g>
                                <g id="Dynamics-icon" opacity="0.401692708" transform="translate(4.650000, 3.750000)" fill="#FFFFFF">
                                    <polygon id="Path" points="0 6.84112039 1.3705474 3.01608375 0 2.14255916"></polygon>
                                    <polygon id="Path" points="4.33449378 4.47535198 4.33449378 2.30375854 0 6.84112039"></polygon>
                                    <polygon id="Path" points="0 0 0 1.83296964 2.82857367 3.1820127 4.14325618 2.14209934"></polygon>
                                </g>
                                <path d="M11.4638251,15.0542624 C11.4638251,15.5109343 11.0931928,15.8815666 10.6365209,15.8815666 C10.179849,15.8815666 9.8092167,15.5109343 9.8092167,15.0542624 C9.8092167,14.5975905 10.179849,14.2269582 10.6365209,14.2269582 C11.0931928,14.2269582 11.4638251,14.5975905 11.4638251,15.0542624" id="Fill-833" fill="#D8B157"></path>
                            </g>
                        </g>
                    </g>
                </g>
                <g id="Dynamic-Hex" stroke="#1D8E96" stroke-width="4">
                    <path d="M45.5620146,3.25834407 L6.67338401,26.8942953 C3.79673288,28.6432593 2,31.9508238 2,35.5582677 L2,82.4417323 C2,86.0486597 3.79764663,89.3586805 6.67318764,91.1055853 L45.560618,114.742485 C46.9289662,115.572418 48.4546283,116 50,116 C51.5458817,116 53.0723633,115.572188 54.4362178,114.743457 L93.3268764,91.1055464 C96.2016145,89.3583456 98,86.0476286 98,82.4417323 L98,35.5582677 C98,31.9518547 96.202529,28.6435953 93.3268966,26.8944659 L54.4351916,3.25759524 C53.0721095,2.42798656 51.5462432,2 50,2 C48.4543284,2 46.9293388,2.42772325 45.5620146,3.25834407 Z M45.5620146,3.25834407 C45.5619597,3.25837737 45.5619049,3.25841067 45.5618501,3.25844398 L45.5621963,3.25823359 L45.5620146,3.25834407 Z" id="Azure-Hex-Border"></path>
                </g>
            </g>
        </g>
    </g>
</svg>