<svg width="105" height="106" viewBox="0 0 105 106" fill="none" xmlns="http://www.w3.org/2000/svg">
<path fill-rule="evenodd" clip-rule="evenodd" d="M52.5061 3.25098C79.9442 3.25098 102.19 25.4963 102.19 52.9344C102.19 80.3724 79.9442 102.618 52.5061 102.618C25.0681 102.618 2.82275 80.3724 2.82275 52.9344C2.82275 25.4963 25.0681 3.25098 52.5061 3.25098Z" fill="#BA93BA"/>
<path d="M52.5063 1.93457C80.6712 1.93457 103.506 24.7698 103.506 52.9346C103.506 81.0994 80.6712 103.935 52.5063 103.935C24.3415 103.935 1.50635 81.0994 1.50635 52.9346C1.50635 24.7698 24.3415 1.93457 52.5063 1.93457Z" stroke="#F2F1F0" stroke-width="2.5"/>
<path d="M52.5061 3.25098C79.9442 3.25098 102.19 25.4963 102.19 52.9344C102.19 80.3724 79.9442 102.618 52.5061 102.618C25.0681 102.618 2.82275 80.3724 2.82275 52.9344C2.82275 25.4963 25.0681 3.25098 52.5061 3.25098ZM52.5061 7.22186C27.2589 7.22186 6.79363 27.6872 6.79363 52.9344C6.79363 78.1816 27.2589 98.6469 52.5061 98.6469C77.7534 98.6469 98.2187 78.1816 98.2187 52.9344C98.2187 27.6872 77.7534 7.22186 52.5061 7.22186Z" fill="#752375"/>
<path d="M71.3394 67.9119C73.3511 67.7013 75.3524 68.4491 76.8059 69.9553C78.2489 71.4615 78.9862 73.5786 78.8282 75.7168C78.5649 78.0972 77.1008 80.13 75.0153 81.0359C72.9298 81.9417 70.5494 81.573 68.7904 80.0774C68.2427 79.6245 67.9267 78.9293 67.9373 78.192V67.8803L71.3394 67.9119Z" fill="url(#paint0_linear)"/>
<path d="M78.7647 35.9557C78.7226 31.4687 75.1098 27.856 70.665 27.856H18.8013V59.9811C18.8013 64.4997 22.4246 68.1546 26.901 68.1546H35.3905H61.8911C65.4301 67.9439 68.9692 67.9439 72.5082 68.1546C79.5863 69.2921 78.3118 76.9706 78.3118 76.9706C78.7963 74.0319 78.9438 71.0511 78.7753 68.0809L78.7647 35.9557Z" fill="url(#paint1_linear)"/>
<path d="M18.8011 59.6859L18.6958 59.2014C19.0645 56.7051 20.9709 54.904 23.3934 54.2299C25.816 53.5558 28.4176 54.3774 30.0186 56.326C30.2398 56.5682 30.5768 56.6525 30.8823 56.5366C31.1877 56.4208 31.3879 56.1364 31.3984 55.8099V28.6667C31.43 28.3297 31.43 27.9926 31.3984 27.6556C30.8402 24.6011 28.1859 22.3892 25.0998 22.3892C22.0136 22.3892 19.3488 24.6011 18.8011 27.6556C18.7485 27.9926 18.7485 28.3297 18.8011 28.6667V59.6859V59.6859Z" fill="url(#paint2_linear)"/>
<path d="M50.6634 34.0174L50.6424 59.7597C50.6529 59.8755 50.6634 59.9914 50.6634 60.1178C50.6634 61.8873 49.2204 63.3198 47.4509 63.3198C45.8394 63.3198 44.5017 62.1296 44.27 60.5918C42.016 60.3811 40.2149 58.6643 40.0463 56.5261C38.0451 56.0205 36.5705 54.2931 36.5705 52.2498C36.5705 51.681 36.6864 51.1438 36.8865 50.6382C35.5172 49.8693 34.5903 48.4474 34.5903 46.8253C34.5903 45.2033 35.5067 43.7919 36.8865 43.0125C36.6758 42.5174 36.5705 41.9697 36.5705 41.4009C36.5705 39.326 38.0767 37.588 40.1201 37.1035C40.5098 35.1971 42.195 33.733 44.27 33.5434C44.5017 31.9951 45.8289 30.8154 47.4509 30.8154C49.1467 30.8154 50.5265 32.1215 50.6529 33.7752H50.6634V34.0174Z" fill="url(#paint3_linear)"/>
<path fill-rule="evenodd" clip-rule="evenodd" d="M39.8354 42.0439C42.2896 42.0439 44.2698 44.1084 44.2698 46.6679C44.2698 49.2273 42.2791 51.2918 39.8354 51.2918" fill="black"/>
<path d="M39.8354 42.0439C42.2896 42.0439 44.2698 44.1084 44.2698 46.6679C44.2698 49.2273 42.2791 51.2918 39.8354 51.2918" stroke="url(#paint4_linear)" stroke-linecap="round"/>
<path d="M40.8257 46.6675L50.9583 46.5938L40.8257 46.6675Z" fill="black"/>
<path d="M40.8257 46.6675L50.9583 46.5938" stroke="url(#paint5_linear)"/>
<path fill-rule="evenodd" clip-rule="evenodd" d="M40.8254 46.6677C40.8254 47.6052 40.0565 48.3741 39.098 48.3741C38.1395 48.3741 37.3706 47.6157 37.3706 46.6677C37.3706 45.7303 38.1395 44.9614 39.098 44.9614C40.0565 44.9614 40.8254 45.7303 40.8254 46.6677Z" fill="black"/>
<path fill-rule="evenodd" clip-rule="evenodd" d="M40.8254 46.6677C40.8254 47.6052 40.0565 48.3741 39.098 48.3741C38.1395 48.3741 37.3706 47.6157 37.3706 46.6677C37.3706 45.7303 38.1395 44.9614 39.098 44.9614C40.0565 44.9614 40.8254 45.7303 40.8254 46.6677Z" fill="url(#paint6_linear)" stroke="url(#paint7_linear)"/>
<path d="M48.7041 42.4121H50.5895" stroke="url(#paint8_linear)"/>
<path d="M48.7041 50.8384H50.6211" stroke="url(#paint9_linear)"/>
<path fill-rule="evenodd" clip-rule="evenodd" d="M48.7038 42.2752C48.7038 43.2126 47.9349 43.9815 46.9764 43.9815C46.0179 43.9815 45.249 43.2231 45.249 42.2752C45.249 41.3377 46.0179 40.5688 46.9764 40.5688C47.9454 40.5688 48.7038 41.3377 48.7038 42.2752Z" fill="black"/>
<path fill-rule="evenodd" clip-rule="evenodd" d="M48.7038 42.2752C48.7038 43.2126 47.9349 43.9815 46.9764 43.9815C46.0179 43.9815 45.249 43.2231 45.249 42.2752C45.249 41.3377 46.0179 40.5688 46.9764 40.5688C47.9454 40.5688 48.7038 41.3377 48.7038 42.2752Z" fill="url(#paint10_linear)" stroke="url(#paint11_linear)"/>
<path fill-rule="evenodd" clip-rule="evenodd" d="M48.7038 51.0491C48.7038 51.9865 47.9349 52.7554 46.9764 52.7554C46.0179 52.7554 45.249 51.9971 45.249 51.0491C45.249 50.1117 46.0179 49.3428 46.9764 49.3428C47.9454 49.3428 48.7038 50.0906 48.7038 51.0491Z" fill="black"/>
<path fill-rule="evenodd" clip-rule="evenodd" d="M48.7038 51.0491C48.7038 51.9865 47.9349 52.7554 46.9764 52.7554C46.0179 52.7554 45.249 51.9971 45.249 51.0491C45.249 50.1117 46.0179 49.3428 46.9764 49.3428C47.9454 49.3428 48.7038 50.0906 48.7038 51.0491Z" fill="url(#paint12_linear)" stroke="url(#paint13_linear)"/>
<path fill-rule="evenodd" clip-rule="evenodd" d="M48.251 34.4495C48.251 35.1025 47.7139 35.6397 47.0608 35.6397C46.4078 35.6397 45.8706 35.1131 45.8706 34.4495C45.8706 33.7965 46.4078 33.2593 47.0608 33.2593C47.7139 33.2593 48.251 33.7965 48.251 34.4495Z" fill="url(#paint14_linear)"/>
<path fill-rule="evenodd" clip-rule="evenodd" d="M48.251 60.4446C48.251 61.0976 47.7139 61.6348 47.0608 61.6348C46.4078 61.6348 45.8706 61.1082 45.8706 60.4446C45.8706 59.7916 46.4078 59.2544 47.0608 59.2544C47.7139 59.2544 48.251 59.781 48.251 60.4446Z" fill="url(#paint15_linear)"/>
<path d="M55.7189 31.8687L57.3515 35.9659L59.8372 36.6822L63.4921 34.7336H64.0187L65.388 36.2924L66.5466 37.4616V37.8513L64.7139 41.6853L65.6303 44.1605L69.3484 45.456V49.1004L65.1036 50.7856L64.3874 53.324L66.2201 56.9684V57.4845L63.6712 60.0229L59.3632 58.0112L56.8775 59.0539L55.6346 62.9511V63.4672H53.5491V52.7447C53.7176 52.7658 53.8862 52.7658 54.0547 52.7658C57.0144 52.7658 59.4054 50.3748 59.4054 47.4151C59.4054 44.8556 57.6148 42.7175 55.2133 42.1908C54.7604 42.075 54.2864 42.0223 53.8019 42.0328C53.7176 42.0434 53.6228 42.0539 53.5386 42.0644V31.8687H55.7189V31.8687Z" fill="black"/>
<path d="M55.7189 31.8687L57.3515 35.9659L59.8372 36.6822L63.4921 34.7336H64.0187L65.388 36.2924L66.5466 37.4616V37.8513L64.7139 41.6853L65.6303 44.1605L69.3484 45.456V49.1004L65.1036 50.7856L64.3874 53.324L66.2201 56.9684V57.4845L63.6712 60.0229L59.3632 58.0112L56.8775 59.0539L55.6346 62.9511V63.4672H53.5491V52.7447C53.7176 52.7658 53.8862 52.7658 54.0547 52.7658C57.0144 52.7658 59.4054 50.3748 59.4054 47.4151C59.4054 44.8556 57.6148 42.7175 55.2133 42.1908C54.7604 42.075 54.2864 42.0223 53.8019 42.0328C53.7176 42.0434 53.6228 42.0539 53.5386 42.0644V31.8687H55.7189V31.8687Z" fill="url(#paint16_linear)"/>
<path fill-rule="evenodd" clip-rule="evenodd" d="M67.7056 72.041V88.1457L74.0042 82.6581L80.3239 88.1457V72.041H67.7056Z" fill="url(#paint17_linear)"/>
<path d="M73.5718 79.2667C78.8067 79.2667 83.0514 75.022 83.0514 69.7872C83.0514 64.5524 78.8067 60.3076 73.5718 60.3076C68.337 60.3076 64.0923 64.5524 64.0923 69.7872C64.0923 75.022 68.337 79.2667 73.5718 79.2667Z" fill="#812883"/>
<path d="M73.5718 78.2134C78.2273 78.2134 81.998 74.4426 81.998 69.7871C81.998 65.1316 78.2273 61.3608 73.5718 61.3608C68.9163 61.3608 65.1455 65.1316 65.1455 69.7871C65.1455 74.4426 68.9163 78.2134 73.5718 78.2134Z" fill="url(#paint18_linear)"/>
<path d="M73.9937 64.6681L72.7719 63.4147C72.6034 63.2461 72.3295 63.2461 72.1715 63.4252L67.021 69.3025C66.7892 69.5658 66.7892 69.9556 67.021 70.2189L72.1189 76.0857C72.3084 76.3069 72.656 76.3069 72.8456 76.0857L74.3729 74.3267L74.5414 65.279L73.9937 64.6681Z" fill="url(#paint19_linear)"/>
<path d="M79.9863 69.05L74.9095 63.5097C74.6883 63.278 74.3196 63.2675 74.0984 63.4992L71.7602 65.9217C71.5074 66.1851 71.4968 66.5958 71.7496 66.8697L74.1511 69.4502C74.3302 69.6398 74.3302 69.9347 74.1511 70.1243L71.7391 72.7259C71.4863 72.9893 71.4968 73.4106 71.7496 73.6739L74.0984 76.107C74.3196 76.3387 74.6988 76.3387 74.9095 76.0965L79.9863 70.5141C80.355 70.0927 80.355 69.4608 79.9863 69.05Z" fill="url(#paint20_linear)"/>
<path d="M80.2179 70.2398L77.9534 72.7466C77.7848 72.9362 77.4899 72.9468 77.3109 72.7572L75.0358 70.4294C74.6671 70.0502 74.6671 69.4499 75.0358 69.0707L77.2687 66.764C77.4478 66.5744 77.7427 66.5849 77.9112 66.7745L80.2179 69.3235C80.4602 69.5868 80.4602 69.9765 80.2179 70.2398Z" fill="url(#paint21_linear)"/>
<defs>
<linearGradient id="paint0_linear" x1="73.3926" y1="70.3397" x2="73.3926" y2="84.8855" gradientUnits="userSpaceOnUse">
<stop stop-color="#198AB3"/>
<stop offset="0.11" stop-color="#22A5CB"/>
<stop offset="0.23" stop-color="#29BADE"/>
<stop offset="0.37" stop-color="#2EC9EB"/>
<stop offset="0.53" stop-color="#31D1F3"/>
<stop offset="1" stop-color="#32D4F5"/>
</linearGradient>
<linearGradient id="paint1_linear" x1="48.8216" y1="76.9704" x2="48.8216" y2="27.8559" gradientUnits="userSpaceOnUse">
<stop stop-color="#D2EBFF"/>
<stop offset="1" stop-color="#F0FFFD"/>
</linearGradient>
<linearGradient id="paint2_linear" x1="25.0587" y1="29.0955" x2="25.0587" y2="68.8529" gradientUnits="userSpaceOnUse">
<stop stop-color="#32D4F5"/>
<stop offset="0.47" stop-color="#31D1F3"/>
<stop offset="0.63" stop-color="#2EC9EB"/>
<stop offset="0.77" stop-color="#29BADE"/>
<stop offset="0.89" stop-color="#22A5CB"/>
<stop offset="1" stop-color="#198AB3"/>
</linearGradient>
<linearGradient id="paint3_linear" x1="50.2911" y1="47.0677" x2="33.7631" y2="47.0677" gradientUnits="userSpaceOnUse">
<stop offset="0.0202" stop-color="#0B5088"/>
<stop offset="1" stop-color="#2997F1"/>
</linearGradient>
<linearGradient id="paint4_linear" x1="42.2388" y1="44.3363" x2="40.7062" y2="48.2105" gradientUnits="userSpaceOnUse">
<stop stop-color="#40C4F5"/>
<stop offset="1" stop-color="#2BB5F0"/>
</linearGradient>
<linearGradient id="paint5_linear" x1="45.8973" y1="46.5793" x2="45.8106" y2="47.1558" gradientUnits="userSpaceOnUse">
<stop stop-color="#40C4F5"/>
<stop offset="1" stop-color="#2BB5F0"/>
</linearGradient>
<linearGradient id="paint6_linear" x1="39.0967" y1="44.6149" x2="39.0967" y2="48.3606" gradientUnits="userSpaceOnUse">
<stop stop-color="#EFEFEF"/>
<stop offset="1" stop-color="white"/>
</linearGradient>
<linearGradient id="paint7_linear" x1="39.6218" y1="46.0344" x2="38.3103" y2="47.603" gradientUnits="userSpaceOnUse">
<stop stop-color="#40C4F5"/>
<stop offset="1" stop-color="#2BB5F0"/>
</linearGradient>
<linearGradient id="paint8_linear" x1="-nan" y1="-nan" x2="-nan" y2="-nan" gradientUnits="userSpaceOnUse">
<stop stop-color="#40C4F5"/>
<stop offset="1" stop-color="#2BB5F0"/>
</linearGradient>
<linearGradient id="paint9_linear" x1="-nan" y1="-nan" x2="-nan" y2="-nan" gradientUnits="userSpaceOnUse">
<stop stop-color="#40C4F5"/>
<stop offset="1" stop-color="#2BB5F0"/>
</linearGradient>
<linearGradient id="paint10_linear" x1="46.9751" y1="40.2358" x2="46.9751" y2="43.9804" gradientUnits="userSpaceOnUse">
<stop stop-color="#EFEFEF"/>
<stop offset="1" stop-color="white"/>
</linearGradient>
<linearGradient id="paint11_linear" x1="47.5027" y1="41.6491" x2="46.1913" y2="43.2182" gradientUnits="userSpaceOnUse">
<stop stop-color="#40C4F5"/>
<stop offset="1" stop-color="#2BB5F0"/>
</linearGradient>
<linearGradient id="paint12_linear" x1="46.9751" y1="48.9943" x2="46.9751" y2="52.7385" gradientUnits="userSpaceOnUse">
<stop stop-color="#EFEFEF"/>
<stop offset="1" stop-color="white"/>
</linearGradient>
<linearGradient id="paint13_linear" x1="47.5051" y1="50.4103" x2="46.1935" y2="51.9783" gradientUnits="userSpaceOnUse">
<stop stop-color="#40C4F5"/>
<stop offset="1" stop-color="#2BB5F0"/>
</linearGradient>
<linearGradient id="paint14_linear" x1="47.0613" y1="34.4471" x2="47.6212" y2="34.1955" gradientUnits="userSpaceOnUse">
<stop stop-color="#D9EAFF"/>
<stop offset="1" stop-color="#BFDDFF"/>
</linearGradient>
<linearGradient id="paint15_linear" x1="47.0629" y1="60.4444" x2="47.6227" y2="60.1919" gradientUnits="userSpaceOnUse">
<stop stop-color="#D9EAFF"/>
<stop offset="1" stop-color="#BFDDFF"/>
</linearGradient>
<linearGradient id="paint16_linear" x1="61.4434" y1="31.8687" x2="61.4434" y2="63.4672" gradientUnits="userSpaceOnUse">
<stop stop-color="#1E5CA5"/>
<stop offset="1" stop-color="#225496"/>
</linearGradient>
<linearGradient id="paint17_linear" x1="74.0148" y1="72.0411" x2="74.0148" y2="88.0754" gradientUnits="userSpaceOnUse">
<stop offset="0.0148" stop-color="#430F44"/>
<stop offset="1" stop-color="#8D2E92"/>
</linearGradient>
<linearGradient id="paint18_linear" x1="73.5717" y1="78.2134" x2="73.5717" y2="61.3608" gradientUnits="userSpaceOnUse">
<stop stop-color="#D2EBFF"/>
<stop offset="1" stop-color="#F0FFFD"/>
</linearGradient>
<linearGradient id="paint19_linear" x1="70.3787" y1="63.7671" x2="71.3226" y2="74.8585" gradientUnits="userSpaceOnUse">
<stop stop-color="#A23093"/>
<stop offset="1" stop-color="#692266"/>
</linearGradient>
<linearGradient id="paint20_linear" x1="71.5527" y1="69.7934" x2="80.2643" y2="69.7934" gradientUnits="userSpaceOnUse">
<stop stop-color="#E184C4"/>
<stop offset="1" stop-color="#D76EBC"/>
</linearGradient>
<linearGradient id="paint21_linear" x1="74.7595" y1="69.7652" x2="80.3971" y2="69.7652" gradientUnits="userSpaceOnUse">
<stop stop-color="#E89BCA"/>
<stop offset="1" stop-color="#E591C8"/>
</linearGradient>
</defs>
</svg>
