<svg width="103" height="103" viewBox="0 0 103 103" fill="none" xmlns="http://www.w3.org/2000/svg">
<path d="M51.6299 98.3622C25.7799 98.3622 4.81995 77.4122 4.81995 51.5522C4.81995 25.6922 25.7799 4.74219 51.6299 4.74219C77.4799 4.74219 98.4399 25.7022 98.4399 51.5522C98.4399 77.4022 77.4799 98.3622 51.6299 98.3622Z" fill="url(#paint0_linear)"/>
<path fill-rule="evenodd" clip-rule="evenodd" d="M97.53 51.5521C97.53 76.9021 76.98 97.4521 51.63 97.4521C26.28 97.4521 5.72999 76.9021 5.72999 51.5521C5.72999 26.2021 26.28 5.65211 51.63 5.65211C76.98 5.65211 97.53 26.2021 97.53 51.5521ZM51.63 1.91211C79.05 1.91211 101.27 24.1321 101.27 51.5521C101.27 78.9721 79.04 101.192 51.63 101.192C24.21 101.192 1.98999 78.9621 1.98999 51.5521C1.98999 24.1321 24.21 1.91211 51.63 1.91211Z" fill="#F2F1F0"/>
<path fill-rule="evenodd" clip-rule="evenodd" d="M94.72 51.5517C94.72 75.3517 75.43 94.6417 51.6301 94.6417C27.8301 94.6417 8.54005 75.3517 8.54005 51.5517C8.54005 27.7517 27.8301 8.46168 51.6301 8.46168C75.43 8.46168 94.72 27.7517 94.72 51.5517ZM51.6301 4.72168C77.4901 4.72168 98.4601 25.6917 98.4601 51.5517C98.4601 77.4117 77.4901 98.3817 51.6301 98.3817C25.7701 98.3817 4.80005 77.4117 4.80005 51.5517C4.80005 25.6917 25.76 4.72168 51.6301 4.72168Z" fill="url(#paint1_linear)"/>
<path d="M71.83 61.4815C82.91 67.8915 82.97 78.2615 71.97 84.6715C60.97 91.0815 43.03 91.0815 31.95 84.6715C20.87 78.2615 20.81 67.8915 31.81 61.4815C42.81 55.0715 60.73 55.0815 71.83 61.4815Z" fill="white" fill-opacity="0.5"/>
<path d="M79.97 71.1716L79.98 71.1616L65.83 11.4616C61.25 9.8016 56.31 8.8916 51.15 8.8916C46.53 8.8916 42.08 9.6316 37.9 10.9716L23.6 71.4116L23.71 71.4716C22.94 76.1816 25.69 81.0516 31.93 84.6616C43.01 91.0716 60.95 91.0716 71.95 84.6616C78.31 80.9816 80.97 75.9716 79.97 71.1716Z" fill="white" fill-opacity="0.5"/>
<path d="M46.35 60.8519H41.12V45.1919C41.12 44.6319 41.58 44.1719 42.14 44.1719H46.35C46.91 44.1719 47.37 44.6319 47.37 45.1919V59.8219C47.37 60.3919 46.91 60.8519 46.35 60.8519Z" fill="url(#paint2_linear)"/>
<path d="M42.96 60.8516H37.6V49.3216C37.6 48.8316 38 48.4316 38.49 48.4316H42.96C43.45 48.4316 43.85 48.8316 43.85 49.3216V59.9516C43.85 60.4516 43.45 60.8516 42.96 60.8516Z" fill="url(#paint3_linear)"/>
<path d="M39.33 60.8515H35.4C34.76 60.8515 34.24 60.3315 34.24 59.6915V53.6815C34.24 53.0415 34.76 52.5215 35.4 52.5215H39.34C39.98 52.5215 40.5 53.0415 40.5 53.6815V59.6915C40.49 60.3315 39.97 60.8515 39.33 60.8515Z" fill="url(#paint4_linear)"/>
<path d="M41.29 65.7317L39.79 64.1817C39.59 63.9717 39.25 63.9817 39.05 64.2017L32.71 71.4417C32.43 71.7617 32.43 72.2417 32.71 72.5717L38.99 79.7917C39.23 80.0617 39.65 80.0617 39.88 79.7917L41.76 77.6317L41.97 66.4917L41.29 65.7317Z" fill="url(#paint5_linear)"/>
<path d="M48.67 71.122L42.42 64.292C42.15 64.002 41.69 64.002 41.42 64.282L38.54 67.262C38.23 67.582 38.22 68.102 38.53 68.432L41.49 71.602C41.71 71.832 41.71 72.192 41.49 72.432L38.52 75.642C38.21 75.972 38.22 76.482 38.53 76.802L41.42 79.802C41.7 80.082 42.15 80.082 42.42 79.792L48.67 72.912C49.13 72.412 49.13 71.632 48.67 71.122Z" fill="url(#paint6_linear)"/>
<path d="M48.97 72.5916L46.18 75.6816C45.97 75.9116 45.6 75.9216 45.38 75.7016L42.58 72.8416C42.13 72.3816 42.12 71.6416 42.58 71.1716L45.33 68.3316C45.55 68.1016 45.92 68.1116 46.13 68.3416L48.97 71.4816C49.25 71.7916 49.25 72.2716 48.97 72.5916Z" fill="url(#paint7_linear)"/>
<path d="M54.03 68.7715C53.67 68.7715 53.37 69.0615 53.37 69.4315V76.4615C53.37 76.8215 53.66 77.1215 54.03 77.1215H56.81C57.19 77.1215 57.5 77.4315 57.5 77.8115V80.1815C57.5 80.5615 57.96 80.7515 58.23 80.4815L61.63 77.1215H65.22C65.58 77.1215 65.88 76.8315 65.88 76.4615V68.7715H54.03Z" fill="url(#paint8_linear)"/>
<path d="M69.37 64.5518H58.14C57.76 64.5518 57.46 64.8618 57.46 65.2318V72.3418C57.46 72.6518 57.71 72.9018 58.02 72.9018H61.41C61.55 72.9018 61.69 72.9618 61.79 73.0618L65.01 76.2818C65.32 76.5918 65.85 76.3718 65.85 75.9318V73.5618C65.85 73.1918 66.15 72.8918 66.52 72.8918H69.39C69.75 72.8918 70.05 72.6018 70.05 72.2318V65.2218C70.05 64.8618 69.74 64.5518 69.37 64.5518Z" fill="#4CCBED"/>
<path d="M70.05 69.5322H57.46V72.3422C57.46 72.6522 57.71 72.9022 58.02 72.9022H61.41C61.55 72.9022 61.69 72.9622 61.79 73.0622L65.01 76.2822C65.32 76.5922 65.85 76.3722 65.85 75.9322V73.5622C65.85 73.1922 66.15 72.8922 66.52 72.8922H69.39C69.75 72.8922 70.05 72.6022 70.05 72.2322V69.5322V69.5322Z" fill="#128AA9"/>
<path d="M70.05 67.2314H57.46V70.1314H70.05V67.2314Z" fill="#17AAD2"/>
<path d="M65.08 49.9118L59.79 53.0018L54.23 46.8118C53.82 46.3518 54.14 45.6318 54.76 45.6318H65.07L65.08 49.9118Z" fill="url(#paint9_linear)"/>
<path d="M68.01 49.0014L65.03 45.6514L54.19 57.7514C53.82 58.1614 54.11 58.8114 54.66 58.8114H59.19L68.01 49.0014Z" fill="url(#paint10_linear)"/>
<path d="M70.5201 51.8121L67.9901 48.9521L59.05 58.8021H64.8101C64.9301 58.8021 65.0501 58.7521 65.1301 58.6621L70.5201 52.7921C70.7701 52.5221 70.7701 52.0921 70.5201 51.8121Z" fill="url(#paint11_linear)"/>
<g opacity="0.15">
<path opacity="0.15" d="M35.4 61.3516H37.6H42.96H46.35C46.91 61.3516 47.37 60.8916 47.37 60.3316V45.7016C47.37 45.1416 46.91 44.6816 46.35 44.6816H42.14C41.58 44.6816 41.12 45.1416 41.12 45.7016V48.9416H38.49C38 48.9416 37.6 49.3416 37.6 49.8316V53.0316H35.4C34.76 53.0316 34.24 53.5516 34.24 54.1916V60.2016C34.24 60.8316 34.76 61.3516 35.4 61.3516Z" fill="#1F1D20"/>
<path opacity="0.15" d="M48.97 71.9813L48.71 71.7013C48.69 71.6813 48.69 71.6513 48.67 71.6313L46.34 69.0812L46.13 68.8513C46.13 68.8513 46.13 68.8513 46.12 68.8513L42.43 64.8113C42.16 64.5213 41.7 64.5213 41.43 64.8013L40.67 65.5913L39.8 64.7013C39.6 64.4913 39.26 64.5012 39.06 64.7212L32.72 71.9613C32.44 72.2813 32.44 72.7613 32.72 73.0913L39 80.3113C39.24 80.5813 39.66 80.5813 39.89 80.3113L40.61 79.4813L41.42 80.3212C41.7 80.6012 42.15 80.6013 42.42 80.3113L46.11 76.2512C46.13 76.2312 46.16 76.2213 46.18 76.2013L48.97 73.1112C49.25 72.7812 49.25 72.2913 48.97 71.9813Z" fill="#1F1D20"/>
</g>
<path opacity="0.15" d="M70.05 67.7415V65.7415C70.05 65.3715 69.75 65.0615 69.37 65.0615H58.14C57.76 65.0615 57.46 65.3715 57.46 65.7415V67.7415V69.2815H54.03C53.67 69.2815 53.37 69.5715 53.37 69.9415V76.9715C53.37 77.3315 53.66 77.6315 54.03 77.6315H56.81C57.19 77.6315 57.5 77.9415 57.5 78.3215V80.6915C57.5 81.0715 57.96 81.2615 58.23 80.9915L61.63 77.6315H65.22C65.58 77.6315 65.88 77.3415 65.88 76.9715V73.9715C65.93 73.6515 66.2 73.4115 66.53 73.4115H69.4C69.76 73.4115 70.06 73.1215 70.06 72.7515V70.6415V67.7415H70.05Z" fill="#1F1D20"/>
<path opacity="0.15" d="M70.52 52.3111L67.99 49.4511L67.98 49.4611L65.08 46.1911V46.1211H54.76C54.15 46.1211 53.82 46.8511 54.23 47.3011L59.11 52.7411L54.19 58.2411C53.82 58.6511 54.11 59.3011 54.66 59.3011H59.19H64.8C64.92 59.3011 65.04 59.2511 65.12 59.1611L70.51 53.2911C70.77 53.0211 70.77 52.5911 70.52 52.3111Z" fill="#1F1D20"/>
<path d="M46.35 60.8519H41.12V45.1919C41.12 44.6319 41.58 44.1719 42.14 44.1719H46.35C46.91 44.1719 47.37 44.6319 47.37 45.1919V59.8219C47.37 60.3919 46.91 60.8519 46.35 60.8519Z" fill="url(#paint12_linear)"/>
<path d="M42.96 60.8516H37.6V49.3216C37.6 48.8316 38 48.4316 38.49 48.4316H42.96C43.45 48.4316 43.85 48.8316 43.85 49.3216V59.9516C43.85 60.4516 43.45 60.8516 42.96 60.8516Z" fill="url(#paint13_linear)"/>
<path d="M39.33 60.8515H35.4C34.76 60.8515 34.24 60.3315 34.24 59.6915V53.6815C34.24 53.0415 34.76 52.5215 35.4 52.5215H39.34C39.98 52.5215 40.5 53.0415 40.5 53.6815V59.6915C40.49 60.3315 39.97 60.8515 39.33 60.8515Z" fill="url(#paint14_linear)"/>
<path d="M41.29 65.7317L39.79 64.1817C39.59 63.9717 39.25 63.9817 39.05 64.2017L32.71 71.4417C32.43 71.7617 32.43 72.2417 32.71 72.5717L38.99 79.7917C39.23 80.0617 39.65 80.0617 39.88 79.7917L41.76 77.6317L41.97 66.4917L41.29 65.7317Z" fill="url(#paint15_linear)"/>
<path d="M48.67 71.122L42.42 64.292C42.15 64.002 41.69 64.002 41.42 64.282L38.54 67.262C38.23 67.582 38.22 68.102 38.53 68.432L41.49 71.602C41.71 71.832 41.71 72.192 41.49 72.432L38.52 75.642C38.21 75.972 38.22 76.482 38.53 76.802L41.42 79.802C41.7 80.082 42.15 80.082 42.42 79.792L48.67 72.912C49.13 72.412 49.13 71.632 48.67 71.122Z" fill="url(#paint16_linear)"/>
<path d="M48.97 72.5916L46.18 75.6816C45.97 75.9116 45.6 75.9216 45.38 75.7016L42.58 72.8416C42.13 72.3816 42.12 71.6416 42.58 71.1716L45.33 68.3316C45.55 68.1016 45.92 68.1116 46.13 68.3416L48.97 71.4816C49.25 71.7916 49.25 72.2716 48.97 72.5916Z" fill="url(#paint17_linear)"/>
<path d="M54.03 68.7715C53.67 68.7715 53.37 69.0615 53.37 69.4315V76.4615C53.37 76.8215 53.66 77.1215 54.03 77.1215H56.81C57.19 77.1215 57.5 77.4315 57.5 77.8115V80.1815C57.5 80.5615 57.96 80.7515 58.23 80.4815L61.63 77.1215H65.22C65.58 77.1215 65.88 76.8315 65.88 76.4615V68.7715H54.03Z" fill="url(#paint18_linear)"/>
<path d="M69.37 64.5518H58.14C57.76 64.5518 57.46 64.8618 57.46 65.2318V72.3418C57.46 72.6518 57.71 72.9018 58.02 72.9018H61.41C61.55 72.9018 61.69 72.9618 61.79 73.0618L65.01 76.2818C65.32 76.5918 65.85 76.3718 65.85 75.9318V73.5618C65.85 73.1918 66.15 72.8918 66.52 72.8918H69.39C69.75 72.8918 70.05 72.6018 70.05 72.2318V65.2218C70.05 64.8618 69.74 64.5518 69.37 64.5518Z" fill="#4CCBED"/>
<path d="M70.05 69.5322H57.46V72.3422C57.46 72.6522 57.71 72.9022 58.02 72.9022H61.41C61.55 72.9022 61.69 72.9622 61.79 73.0622L65.01 76.2822C65.32 76.5922 65.85 76.3722 65.85 75.9322V73.5622C65.85 73.1922 66.15 72.8922 66.52 72.8922H69.39C69.75 72.8922 70.05 72.6022 70.05 72.2322V69.5322V69.5322Z" fill="#128AA9"/>
<path d="M70.05 67.2314H57.46V70.1314H70.05V67.2314Z" fill="#17AAD2"/>
<path d="M65.08 49.9118L59.79 53.0018L54.23 46.8118C53.82 46.3518 54.14 45.6318 54.76 45.6318H65.07L65.08 49.9118Z" fill="url(#paint19_linear)"/>
<path d="M68.01 49.0014L65.03 45.6514L54.19 57.7514C53.82 58.1614 54.11 58.8114 54.66 58.8114H59.19L68.01 49.0014Z" fill="url(#paint20_linear)"/>
<path d="M70.5201 51.8121L67.9901 48.9521L59.05 58.8021H64.8101C64.9301 58.8021 65.0501 58.7521 65.1301 58.6621L70.5201 52.7921C70.7701 52.5221 70.7701 52.0921 70.5201 51.8121Z" fill="url(#paint21_linear)"/>
<path d="M46.35 60.8519H41.12V45.1919C41.12 44.6319 41.58 44.1719 42.14 44.1719H46.35C46.91 44.1719 47.37 44.6319 47.37 45.1919V59.8219C47.37 60.3919 46.91 60.8519 46.35 60.8519Z" fill="url(#paint22_linear)"/>
<path d="M42.96 60.8516H37.6V49.3216C37.6 48.8316 38 48.4316 38.49 48.4316H42.96C43.45 48.4316 43.85 48.8316 43.85 49.3216V59.9516C43.85 60.4516 43.45 60.8516 42.96 60.8516Z" fill="url(#paint23_linear)"/>
<path d="M39.33 60.8515H35.4C34.76 60.8515 34.24 60.3315 34.24 59.6915V53.6815C34.24 53.0415 34.76 52.5215 35.4 52.5215H39.34C39.98 52.5215 40.5 53.0415 40.5 53.6815V59.6915C40.49 60.3315 39.97 60.8515 39.33 60.8515Z" fill="url(#paint24_linear)"/>
<path d="M41.29 65.7317L39.79 64.1817C39.59 63.9717 39.25 63.9817 39.05 64.2017L32.71 71.4417C32.43 71.7617 32.43 72.2417 32.71 72.5717L38.99 79.7917C39.23 80.0617 39.65 80.0617 39.88 79.7917L41.76 77.6317L41.97 66.4917L41.29 65.7317Z" fill="url(#paint25_linear)"/>
<path d="M48.67 71.122L42.42 64.292C42.15 64.002 41.69 64.002 41.42 64.282L38.54 67.262C38.23 67.582 38.22 68.102 38.53 68.432L41.49 71.602C41.71 71.832 41.71 72.192 41.49 72.432L38.52 75.642C38.21 75.972 38.22 76.482 38.53 76.802L41.42 79.802C41.7 80.082 42.15 80.082 42.42 79.792L48.67 72.912C49.13 72.412 49.13 71.632 48.67 71.122Z" fill="url(#paint26_linear)"/>
<path d="M48.97 72.5916L46.18 75.6816C45.97 75.9116 45.6 75.9216 45.38 75.7016L42.58 72.8416C42.13 72.3816 42.12 71.6416 42.58 71.1716L45.33 68.3316C45.55 68.1016 45.92 68.1116 46.13 68.3416L48.97 71.4816C49.25 71.7916 49.25 72.2716 48.97 72.5916Z" fill="url(#paint27_linear)"/>
<path d="M54.03 68.7715C53.67 68.7715 53.37 69.0615 53.37 69.4315V76.4615C53.37 76.8215 53.66 77.1215 54.03 77.1215H56.81C57.19 77.1215 57.5 77.4315 57.5 77.8115V80.1815C57.5 80.5615 57.96 80.7515 58.23 80.4815L61.63 77.1215H65.22C65.58 77.1215 65.88 76.8315 65.88 76.4615V68.7715H54.03Z" fill="url(#paint28_linear)"/>
<path d="M69.37 64.5518H58.14C57.76 64.5518 57.46 64.8618 57.46 65.2318V72.3418C57.46 72.6518 57.71 72.9018 58.02 72.9018H61.41C61.55 72.9018 61.69 72.9618 61.79 73.0618L65.01 76.2818C65.32 76.5918 65.85 76.3718 65.85 75.9318V73.5618C65.85 73.1918 66.15 72.8918 66.52 72.8918H69.39C69.75 72.8918 70.05 72.6018 70.05 72.2318V65.2218C70.05 64.8618 69.74 64.5518 69.37 64.5518Z" fill="#4CCBED"/>
<path d="M70.05 69.5322H57.46V72.3422C57.46 72.6522 57.71 72.9022 58.02 72.9022H61.41C61.55 72.9022 61.69 72.9622 61.79 73.0622L65.01 76.2822C65.32 76.5922 65.85 76.3722 65.85 75.9322V73.5622C65.85 73.1922 66.15 72.8922 66.52 72.8922H69.39C69.75 72.8922 70.05 72.6022 70.05 72.2322V69.5322V69.5322Z" fill="#128AA9"/>
<path d="M70.05 67.2314H57.46V70.1314H70.05V67.2314Z" fill="#17AAD2"/>
<path d="M65.08 49.9118L59.79 53.0018L54.23 46.8118C53.82 46.3518 54.14 45.6318 54.76 45.6318H65.07L65.08 49.9118Z" fill="url(#paint29_linear)"/>
<path d="M68.01 49.0014L65.03 45.6514L54.19 57.7514C53.82 58.1614 54.11 58.8114 54.66 58.8114H59.19L68.01 49.0014Z" fill="url(#paint30_linear)"/>
<path d="M70.5201 51.8121L67.9901 48.9521L59.05 58.8021H64.8101C64.9301 58.8021 65.0501 58.7521 65.1301 58.6621L70.5201 52.7921C70.7701 52.5221 70.7701 52.0921 70.5201 51.8121Z" fill="url(#paint31_linear)"/>
<defs>
<linearGradient id="paint0_linear" x1="49.86" y1="-13.2374" x2="53.842" y2="132.533" gradientUnits="userSpaceOnUse">
<stop stop-color="#00ABDE"/>
<stop offset="1" stop-color="#007ED8"/>
</linearGradient>
<linearGradient id="paint1_linear" x1="3.06325" y1="-20.0728" x2="98.5913" y2="120.808" gradientUnits="userSpaceOnUse">
<stop stop-color="#007ED8"/>
<stop offset="0.7065" stop-color="#002D4C"/>
</linearGradient>
<linearGradient id="paint2_linear" x1="44.1735" y1="45.6993" x2="44.3066" y2="59.5343" gradientUnits="userSpaceOnUse">
<stop offset="0.00753769" stop-color="#E0A310"/>
<stop offset="1" stop-color="#CA810E"/>
</linearGradient>
<linearGradient id="paint3_linear" x1="40.5551" y1="48.9144" x2="40.9541" y2="63.5472" gradientUnits="userSpaceOnUse">
<stop offset="0.00753769" stop-color="#F2CC40"/>
<stop offset="1" stop-color="#E7B116"/>
</linearGradient>
<linearGradient id="paint4_linear" x1="37.2188" y1="53.1565" x2="37.6179" y2="62.6018" gradientUnits="userSpaceOnUse">
<stop stop-color="#F8E17B"/>
<stop offset="0.5302" stop-color="#F6D856"/>
<stop offset="1" stop-color="#F6D856"/>
</linearGradient>
<linearGradient id="paint5_linear" x1="36.8464" y1="64.6264" x2="38.0085" y2="78.2821" gradientUnits="userSpaceOnUse">
<stop stop-color="#A23093"/>
<stop offset="1" stop-color="#692266"/>
</linearGradient>
<linearGradient id="paint6_linear" x1="38.2925" y1="72.0461" x2="49.0185" y2="72.0461" gradientUnits="userSpaceOnUse">
<stop stop-color="#E184C4"/>
<stop offset="1" stop-color="#D76EBC"/>
</linearGradient>
<linearGradient id="paint7_linear" x1="42.2409" y1="72.0115" x2="49.1821" y2="72.0115" gradientUnits="userSpaceOnUse">
<stop stop-color="#E89BCA"/>
<stop offset="1" stop-color="#E591C8"/>
</linearGradient>
<linearGradient id="paint8_linear" x1="57.8378" y1="69.3615" x2="61.5278" y2="76.2658" gradientUnits="userSpaceOnUse">
<stop stop-color="#107590"/>
<stop offset="0.2789" stop-color="#107590"/>
<stop offset="0.9874" stop-color="#0D5D73"/>
</linearGradient>
<linearGradient id="paint9_linear" x1="54.743" y1="42.0723" x2="66.766" y2="53.3848" gradientUnits="userSpaceOnUse">
<stop offset="0.4598" stop-color="#1152D4"/>
<stop offset="0.6156" stop-color="#0D3FB3"/>
</linearGradient>
<linearGradient id="paint10_linear" x1="54.0317" y1="52.2252" x2="68.0085" y2="52.2252" gradientUnits="userSpaceOnUse">
<stop stop-color="#388CF4"/>
<stop offset="1" stop-color="#2C7CEF"/>
</linearGradient>
<linearGradient id="paint11_linear" x1="59.0438" y1="53.8802" x2="70.7055" y2="53.8802" gradientUnits="userSpaceOnUse">
<stop stop-color="#76C0FD"/>
<stop offset="1" stop-color="#63B2FB"/>
</linearGradient>
<linearGradient id="paint12_linear" x1="44.1735" y1="45.6993" x2="44.3066" y2="59.5343" gradientUnits="userSpaceOnUse">
<stop offset="0.00753769" stop-color="#E0A310"/>
<stop offset="1" stop-color="#CA810E"/>
</linearGradient>
<linearGradient id="paint13_linear" x1="40.5551" y1="48.9144" x2="40.9541" y2="63.5472" gradientUnits="userSpaceOnUse">
<stop offset="0.00753769" stop-color="#F2CC40"/>
<stop offset="1" stop-color="#E7B116"/>
</linearGradient>
<linearGradient id="paint14_linear" x1="37.2188" y1="53.1565" x2="37.6179" y2="62.6018" gradientUnits="userSpaceOnUse">
<stop stop-color="#F8E17B"/>
<stop offset="0.5302" stop-color="#F6D856"/>
<stop offset="1" stop-color="#F6D856"/>
</linearGradient>
<linearGradient id="paint15_linear" x1="36.8464" y1="64.6264" x2="38.0085" y2="78.2821" gradientUnits="userSpaceOnUse">
<stop stop-color="#A23093"/>
<stop offset="1" stop-color="#692266"/>
</linearGradient>
<linearGradient id="paint16_linear" x1="38.2925" y1="72.0461" x2="49.0185" y2="72.0461" gradientUnits="userSpaceOnUse">
<stop stop-color="#E184C4"/>
<stop offset="1" stop-color="#D76EBC"/>
</linearGradient>
<linearGradient id="paint17_linear" x1="42.2409" y1="72.0115" x2="49.1821" y2="72.0115" gradientUnits="userSpaceOnUse">
<stop stop-color="#E89BCA"/>
<stop offset="1" stop-color="#E591C8"/>
</linearGradient>
<linearGradient id="paint18_linear" x1="57.8378" y1="69.3615" x2="61.5278" y2="76.2658" gradientUnits="userSpaceOnUse">
<stop stop-color="#107590"/>
<stop offset="0.2789" stop-color="#107590"/>
<stop offset="0.9874" stop-color="#0D5D73"/>
</linearGradient>
<linearGradient id="paint19_linear" x1="54.743" y1="42.0723" x2="66.766" y2="53.3848" gradientUnits="userSpaceOnUse">
<stop offset="0.4598" stop-color="#1152D4"/>
<stop offset="0.6156" stop-color="#0D3FB3"/>
</linearGradient>
<linearGradient id="paint20_linear" x1="54.0317" y1="52.2252" x2="68.0085" y2="52.2252" gradientUnits="userSpaceOnUse">
<stop stop-color="#388CF4"/>
<stop offset="1" stop-color="#2C7CEF"/>
</linearGradient>
<linearGradient id="paint21_linear" x1="59.0438" y1="53.8802" x2="70.7055" y2="53.8802" gradientUnits="userSpaceOnUse">
<stop stop-color="#76C0FD"/>
<stop offset="1" stop-color="#63B2FB"/>
</linearGradient>
<linearGradient id="paint22_linear" x1="44.1735" y1="45.6993" x2="44.3066" y2="59.5343" gradientUnits="userSpaceOnUse">
<stop offset="0.00753769" stop-color="#E0A310"/>
<stop offset="1" stop-color="#CA810E"/>
</linearGradient>
<linearGradient id="paint23_linear" x1="40.5551" y1="48.9144" x2="40.9541" y2="63.5472" gradientUnits="userSpaceOnUse">
<stop offset="0.00753769" stop-color="#F2CC40"/>
<stop offset="1" stop-color="#E7B116"/>
</linearGradient>
<linearGradient id="paint24_linear" x1="37.2188" y1="53.1565" x2="37.6179" y2="62.6018" gradientUnits="userSpaceOnUse">
<stop stop-color="#F8E17B"/>
<stop offset="0.5302" stop-color="#F6D856"/>
<stop offset="1" stop-color="#F6D856"/>
</linearGradient>
<linearGradient id="paint25_linear" x1="36.8464" y1="64.6264" x2="38.0085" y2="78.2821" gradientUnits="userSpaceOnUse">
<stop stop-color="#A23093"/>
<stop offset="1" stop-color="#692266"/>
</linearGradient>
<linearGradient id="paint26_linear" x1="38.2925" y1="72.0461" x2="49.0185" y2="72.0461" gradientUnits="userSpaceOnUse">
<stop stop-color="#E184C4"/>
<stop offset="1" stop-color="#D76EBC"/>
</linearGradient>
<linearGradient id="paint27_linear" x1="42.2409" y1="72.0115" x2="49.1821" y2="72.0115" gradientUnits="userSpaceOnUse">
<stop stop-color="#E89BCA"/>
<stop offset="1" stop-color="#E591C8"/>
</linearGradient>
<linearGradient id="paint28_linear" x1="57.8378" y1="69.3615" x2="61.5278" y2="76.2658" gradientUnits="userSpaceOnUse">
<stop stop-color="#107590"/>
<stop offset="0.2789" stop-color="#107590"/>
<stop offset="0.9874" stop-color="#0D5D73"/>
</linearGradient>
<linearGradient id="paint29_linear" x1="54.743" y1="42.0723" x2="66.766" y2="53.3848" gradientUnits="userSpaceOnUse">
<stop offset="0.4598" stop-color="#1152D4"/>
<stop offset="0.6156" stop-color="#0D3FB3"/>
</linearGradient>
<linearGradient id="paint30_linear" x1="54.0317" y1="52.2252" x2="68.0085" y2="52.2252" gradientUnits="userSpaceOnUse">
<stop stop-color="#388CF4"/>
<stop offset="1" stop-color="#2C7CEF"/>
</linearGradient>
<linearGradient id="paint31_linear" x1="59.0438" y1="53.8802" x2="70.7055" y2="53.8802" gradientUnits="userSpaceOnUse">
<stop stop-color="#76C0FD"/>
<stop offset="1" stop-color="#63B2FB"/>
</linearGradient>
</defs>
</svg>
