<svg width="103" height="103" viewBox="0 0 103 103" fill="none" xmlns="http://www.w3.org/2000/svg">
<path d="M51.2497 98.337C25.3997 98.337 4.4397 77.387 4.4397 51.527C4.4397 25.667 25.3997 4.71704 51.2497 4.71704C77.0997 4.71704 98.0597 25.677 98.0597 51.527C98.0597 77.377 77.0997 98.337 51.2497 98.337Z" fill="url(#paint0_linear)"/>
<path fill-rule="evenodd" clip-rule="evenodd" d="M97.1499 51.527C97.1499 76.877 76.5999 97.427 51.2499 97.427C25.8999 97.427 5.34986 76.877 5.34986 51.527C5.34986 26.177 25.8999 5.62704 51.2499 5.62704C76.5999 5.62704 97.1499 26.177 97.1499 51.527ZM51.2499 1.88704C78.6699 1.88704 100.89 24.107 100.89 51.527C100.89 78.947 78.6599 101.167 51.2499 101.167C23.8299 101.167 1.60986 78.937 1.60986 51.527C1.60986 24.107 23.8299 1.88704 51.2499 1.88704Z" fill="#F2F1F0"/>
<path fill-rule="evenodd" clip-rule="evenodd" d="M94.3397 51.527C94.3397 75.327 75.0497 94.617 51.2497 94.617C27.4497 94.617 8.15968 75.327 8.15968 51.527C8.15968 27.727 27.4497 8.43704 51.2497 8.43704C75.0497 8.43704 94.3397 27.727 94.3397 51.527ZM51.2497 4.69704C77.1097 4.69704 98.0797 25.667 98.0797 51.527C98.0797 77.387 77.1097 98.357 51.2497 98.357C25.3897 98.357 4.41968 77.387 4.41968 51.527C4.41968 25.667 25.3797 4.69704 51.2497 4.69704Z" fill="url(#paint1_linear)"/>
<path d="M50.9299 31.087C48.1599 31.087 45.8999 28.817 45.8999 26.027C45.8999 23.237 48.1599 20.967 50.9299 20.967C53.6999 20.967 55.9599 23.237 55.9599 26.027C55.9599 28.817 53.6999 31.087 50.9299 31.087ZM50.9299 22.967C49.2599 22.967 47.8999 24.337 47.8999 26.027C47.8999 27.717 49.2599 29.087 50.9299 29.087C52.5999 29.087 53.9599 27.717 53.9599 26.027C53.9599 24.337 52.5999 22.967 50.9299 22.967Z" fill="url(#paint2_linear)"/>
<path d="M63.7998 79.177H38.6998L36.0598 84.097L34.2998 83.147L41.6098 69.537L43.3598 70.497L39.7698 77.177H62.7298L59.1398 70.497L60.8998 69.547L68.2098 83.157L66.4498 84.107L63.7998 79.177Z" fill="url(#paint3_linear)"/>
<path d="M78.4498 31.437H24.0598V67.997H78.4498V31.437Z" fill="url(#paint4_linear)"/>
<path d="M23.3599 26.017H79.1499C80.2499 26.017 81.1499 26.917 81.1499 28.017V30.107C81.1499 31.207 80.2499 32.107 79.1499 32.107H23.3599C22.2599 32.107 21.3599 31.207 21.3599 30.107V28.017C21.3599 26.917 22.2599 26.017 23.3599 26.017Z" fill="url(#paint5_linear)"/>
<path d="M23.0499 67.227H79.4499C80.3799 67.227 81.1399 67.987 81.1399 68.917C81.1399 69.847 80.3799 70.607 79.4499 70.607H23.0499C22.1199 70.617 21.3599 69.857 21.3599 68.927C21.3599 67.987 22.1199 67.227 23.0499 67.227Z" fill="url(#paint6_linear)"/>
<path d="M78.4498 31.437H24.0598V67.997H78.4498V31.437Z" fill="url(#paint7_linear)"/>
<path d="M23.3599 26.017H79.1499C80.2499 26.017 81.1499 26.917 81.1499 28.017V30.107C81.1499 31.207 80.2499 32.107 79.1499 32.107H23.3599C22.2599 32.107 21.3599 31.207 21.3599 30.107V28.017C21.3599 26.917 22.2599 26.017 23.3599 26.017Z" fill="url(#paint8_linear)"/>
<path d="M23.0499 67.227H79.4499C80.3799 67.227 81.1399 67.987 81.1399 68.917C81.1399 69.847 80.3799 70.607 79.4499 70.607H23.0499C22.1199 70.617 21.3599 69.857 21.3599 68.927C21.3599 67.987 22.1199 67.227 23.0499 67.227Z" fill="url(#paint9_linear)"/>
<path opacity="0.15" d="M49.2497 35.737H28.0197C27.5597 35.737 27.1897 36.107 27.1897 36.567V64.267C27.1897 64.727 27.5597 65.097 28.0197 65.097H49.2497C49.7097 65.097 50.0797 64.727 50.0797 64.267V36.567C50.0697 36.107 49.6997 35.737 49.2497 35.737Z" fill="#1F1D20"/>
<path d="M49.2497 34.717H28.0197C27.5597 34.717 27.1897 35.087 27.1897 35.547V63.247C27.1897 63.707 27.5597 64.077 28.0197 64.077H49.2497C49.7097 64.077 50.0797 63.707 50.0797 63.247V35.547C50.0697 35.087 49.6997 34.717 49.2497 34.717Z" fill="white"/>
<path opacity="0.15" d="M74.4797 35.737H53.2497C52.7897 35.737 52.4197 36.107 52.4197 36.567V64.267C52.4197 64.727 52.7897 65.097 53.2497 65.097H74.4797C74.9397 65.097 75.3097 64.727 75.3097 64.267V36.567C75.2997 36.107 74.9297 35.737 74.4797 35.737Z" fill="#1F1D20"/>
<path d="M74.4797 34.717H53.2497C52.7897 34.717 52.4197 35.087 52.4197 35.547V63.247C52.4197 63.707 52.7897 64.077 53.2497 64.077H74.4797C74.9397 64.077 75.3097 63.707 75.3097 63.247V35.547C75.2997 35.087 74.9297 34.717 74.4797 34.717Z" fill="white"/>
<path d="M42.2996 47.7771H46.8596C47.2896 47.7771 47.6396 48.1271 47.6396 48.5571V52.7071C47.6396 54.2871 46.3596 55.5771 44.7696 55.5771H44.7596C43.1796 55.5771 41.8896 54.2971 41.8896 52.7071V48.1771C41.8896 47.9571 42.0796 47.7771 42.2996 47.7771Z" fill="#5059C9"/>
<path d="M45.3798 46.9571C46.3998 46.9571 47.2298 46.1271 47.2298 45.1071C47.2298 44.0871 46.3998 43.2571 45.3798 43.2571C44.3598 43.2571 43.5298 44.0871 43.5298 45.1071C43.5398 46.1271 44.3598 46.9571 45.3798 46.9571Z" fill="#5059C9"/>
<path d="M39.6297 46.9571C41.0997 46.9571 42.2997 45.7571 42.2997 44.2871C42.2997 42.8171 41.0997 41.6171 39.6297 41.6171C38.1597 41.6171 36.9597 42.8071 36.9597 44.2871C36.9697 45.7571 38.1597 46.9571 39.6297 46.9571Z" fill="#7B83EB"/>
<path d="M43.1897 47.7771H35.6597C35.2297 47.7871 34.8998 48.1371 34.9098 48.5671V53.3071C34.8498 55.8671 36.8698 57.9871 39.4298 58.0471C41.9898 57.9871 44.0098 55.8671 43.9498 53.3071V48.5671C43.9598 48.1371 43.6197 47.7871 43.1897 47.7771Z" fill="#7B83EB"/>
<path opacity="0.1" d="M39.8397 47.7771V54.4171C39.8397 54.7171 39.6496 54.9971 39.3696 55.1071C39.2796 55.1471 39.1797 55.1671 39.0897 55.1671H35.2796C35.2296 55.0271 35.1796 54.8971 35.1396 54.7571C34.9996 54.2871 34.9196 53.7971 34.9196 53.3071V48.5671C34.9096 48.1471 35.2496 47.7871 35.6696 47.7771H39.8397Z" fill="black"/>
<path opacity="0.2" d="M39.4297 47.7771V54.8271C39.4297 54.9271 39.4096 55.0171 39.3696 55.1071C39.2496 55.3871 38.9797 55.5771 38.6797 55.5771H35.4697C35.3997 55.4371 35.3296 55.3071 35.2796 55.1671C35.2196 55.0271 35.1796 54.8971 35.1396 54.7571C34.9996 54.2871 34.9196 53.7971 34.9196 53.3071V48.5671C34.9096 48.1471 35.2496 47.7871 35.6696 47.7771H39.4297Z" fill="black"/>
<path opacity="0.2" d="M39.4296 47.7771V54.0071C39.4296 54.4171 39.0896 54.7571 38.6796 54.7571H35.1296C34.9896 54.2871 34.9096 53.7971 34.9096 53.3071V48.5671C34.8996 48.1471 35.2396 47.7871 35.6596 47.7771H39.4296Z" fill="black"/>
<path opacity="0.2" d="M39.0196 47.7771V54.0071C39.0196 54.4171 38.6796 54.7571 38.2696 54.7571H35.1296C34.9896 54.2871 34.9096 53.7971 34.9096 53.3071V48.5671C34.8996 48.1471 35.2396 47.7871 35.6596 47.7771H39.0196Z" fill="black"/>
<path opacity="0.1" d="M39.8398 45.6571V46.9471C39.7698 46.9471 39.6998 46.9571 39.6298 46.9571C39.5598 46.9571 39.4898 46.9571 39.4198 46.9471C39.2798 46.9371 39.1398 46.9171 39.0098 46.8771C38.1798 46.6771 37.4898 46.0971 37.1598 45.3071C37.0998 45.1771 37.0598 45.0371 37.0298 44.8971H39.0798C39.4998 44.9071 39.8398 45.2371 39.8398 45.6571Z" fill="black"/>
<path opacity="0.2" d="M39.4297 46.0671V46.9471C39.2897 46.9371 39.1497 46.9171 39.0197 46.8771C38.1897 46.6771 37.4997 46.0971 37.1697 45.3071H38.6797C39.0897 45.3171 39.4297 45.6471 39.4297 46.0671Z" fill="black"/>
<path opacity="0.2" d="M39.4297 46.0671V46.9471C39.2897 46.9371 39.1497 46.9171 39.0197 46.8771C38.1897 46.6771 37.4997 46.0971 37.1697 45.3071H38.6797C39.0897 45.3171 39.4297 45.6471 39.4297 46.0671Z" fill="black"/>
<path opacity="0.2" d="M39.0197 46.0671V46.8871C38.1897 46.6871 37.4997 46.1071 37.1697 45.3171H38.2697C38.6797 45.3171 39.0197 45.6471 39.0197 46.0671Z" fill="black"/>
<path d="M30.7397 45.3071H38.2697C38.6897 45.3071 39.0197 45.6471 39.0197 46.0571V53.5871C39.0197 54.0071 38.6797 54.3371 38.2697 54.3371H30.7397C30.3197 54.3371 29.9897 53.9971 29.9897 53.5871V46.0571C29.9897 45.6471 30.3197 45.3071 30.7397 45.3071Z" fill="url(#paint10_linear)"/>
<path d="M36.4798 48.1771H34.9698V52.2771H34.0098V48.1771H32.5098V47.3771H36.4698V48.1771H36.4798Z" fill="white"/>
<path d="M64.8396 37.1271C63.5896 37.1271 62.5796 38.1371 62.5796 39.3871C62.5796 40.6371 63.5896 41.6471 64.8396 41.6471C66.0896 41.6471 67.0996 40.6371 67.0996 39.3871C67.0996 38.1371 66.0896 37.1271 64.8396 37.1271ZM64.8396 40.9571C63.9796 40.9571 63.2796 40.2571 63.2796 39.3971C63.2796 38.5371 63.9796 37.8371 64.8396 37.8371C65.6996 37.8371 66.3996 38.5371 66.3996 39.3971C66.3996 40.2571 65.6996 40.9571 64.8396 40.9571Z" fill="#E15B1E"/>
<path d="M66.3696 44.1771C64.5396 44.1771 63.0496 45.6671 63.0496 47.4971C63.0496 49.3271 64.5396 50.8171 66.3696 50.8171C68.1996 50.8171 69.6896 49.3271 69.6896 47.4971C69.6996 45.6571 68.2096 44.1771 66.3696 44.1771ZM66.3696 49.7871C65.1096 49.7871 64.0796 48.7671 64.0796 47.4971C64.0796 46.2371 65.0996 45.2071 66.3696 45.2071C67.6296 45.2071 68.6596 46.2271 68.6596 47.4971C68.6596 48.7571 67.6396 49.7871 66.3696 49.7871Z" fill="#E15B1E"/>
<path d="M60.8297 51.3171C57.9697 51.3171 55.6597 53.6271 55.6597 56.4871C55.6597 59.3471 57.9697 61.6571 60.8297 61.6571C63.6897 61.6571 65.9997 59.3471 65.9997 56.4871C65.9997 53.6371 63.6797 51.3171 60.8297 51.3171ZM60.8297 60.6571C58.5297 60.6571 56.6697 58.7971 56.6697 56.4971C56.6697 54.1971 58.5297 52.3371 60.8297 52.3371C63.1297 52.3371 64.9897 54.1971 64.9897 56.4971C64.9897 58.7871 63.1297 60.6571 60.8297 60.6571Z" fill="#E15B1E"/>
<path d="M64.6397 49.6571L63.1497 52.1971L64.0397 52.8771L65.5897 50.0571L64.6397 49.6571Z" fill="#E15B1E"/>
<path d="M64.7896 41.2572L65.5695 44.4772H66.4995L65.6995 40.9572L64.7896 41.2572Z" fill="#E15B1E"/>
<defs>
<linearGradient id="paint0_linear" x1="49.4798" y1="-13.2626" x2="53.4618" y2="132.508" gradientUnits="userSpaceOnUse">
<stop stop-color="#00ABDE"/>
<stop offset="1" stop-color="#007ED8"/>
</linearGradient>
<linearGradient id="paint1_linear" x1="2.68238" y1="-20.0975" x2="98.2094" y2="120.783" gradientUnits="userSpaceOnUse">
<stop stop-color="#007ED8"/>
<stop offset="0.7065" stop-color="#002D4C"/>
</linearGradient>
<linearGradient id="paint2_linear" x1="43.6868" y1="11.0895" x2="70.6159" y2="66.6486" gradientUnits="userSpaceOnUse">
<stop stop-color="#007ED8"/>
<stop offset="0.7065" stop-color="#002D4C"/>
</linearGradient>
<linearGradient id="paint3_linear" x1="57.1619" y1="155.713" x2="45.8233" y2="16.5329" gradientUnits="userSpaceOnUse">
<stop stop-color="#007ED8"/>
<stop offset="0.7065" stop-color="#002D4C"/>
</linearGradient>
<linearGradient id="paint4_linear" x1="51.2598" y1="67.9928" x2="51.2598" y2="31.4328" gradientUnits="userSpaceOnUse">
<stop stop-color="#D2EBFF"/>
<stop offset="1" stop-color="#F0FFFD"/>
</linearGradient>
<linearGradient id="paint5_linear" x1="51.2499" y1="26.0265" x2="51.2499" y2="32.1085" gradientUnits="userSpaceOnUse">
<stop stop-color="#0099BE"/>
<stop offset="1" stop-color="#006E97"/>
</linearGradient>
<linearGradient id="paint6_linear" x1="51.2449" y1="67.2316" x2="51.2449" y2="70.6115" gradientUnits="userSpaceOnUse">
<stop stop-color="#0099BE"/>
<stop offset="1" stop-color="#006E97"/>
</linearGradient>
<linearGradient id="paint7_linear" x1="51.2598" y1="67.9928" x2="51.2598" y2="31.4328" gradientUnits="userSpaceOnUse">
<stop stop-color="#D2EBFF"/>
<stop offset="1" stop-color="#F0FFFD"/>
</linearGradient>
<linearGradient id="paint8_linear" x1="51.2499" y1="26.0265" x2="51.2499" y2="32.1085" gradientUnits="userSpaceOnUse">
<stop stop-color="#007ED8"/>
<stop offset="0.7065" stop-color="#002D4C"/>
</linearGradient>
<linearGradient id="paint9_linear" x1="51.2449" y1="67.2316" x2="51.2449" y2="70.6115" gradientUnits="userSpaceOnUse">
<stop stop-color="#007ED8"/>
<stop offset="0.7065" stop-color="#002D4C"/>
</linearGradient>
<linearGradient id="paint10_linear" x1="31.554" y1="44.7239" x2="37.4488" y2="54.9333" gradientUnits="userSpaceOnUse">
<stop stop-color="#5A62C3"/>
<stop offset="0.5" stop-color="#4D55BD"/>
<stop offset="1" stop-color="#3940AB"/>
</linearGradient>
</defs>
</svg>
