<svg width="103" height="103" viewBox="0 0 103 103" fill="none" xmlns="http://www.w3.org/2000/svg">
<path d="M51.2863 99.5721C24.7281 99.5721 3.19385 78.0482 3.19385 51.4797C3.19385 24.9112 24.7281 3.38721 51.2863 3.38721C77.8445 3.38721 99.3788 24.9215 99.3788 51.4797C99.3788 78.0379 77.8445 99.5721 51.2863 99.5721Z" fill="#B7D2F7"/>
<path fill-rule="evenodd" clip-rule="evenodd" d="M43.3032 49.0547C44.9059 49.3013 46.1285 50.3492 46.7039 51.6849C47.5361 50.4109 49.108 49.7225 50.6799 50.1129C51.358 50.2773 51.9025 50.678 52.3956 51.0992C54.4607 52.815 60.471 57.7568 60.471 57.7568C62.7621 59.7705 63.8203 62.904 63.0909 65.8321L62.1662 69.5616C60.2758 77.1335 55.9607 76.1883 55.0463 79.8561L54.3374 82.6917L34.3135 77.7088C35.8751 71.4314 35.0018 68.8321 33.5737 65.452C32.1354 62.0718 31.5909 61.1883 32.834 56.2157C33.3169 54.2534 36.0395 53.2362 38.0121 53.7397L36.7689 58.702L38.3203 52.476C38.8648 50.2671 41.0121 48.6951 43.3032 49.0547Z" fill="#84522D"/>
<path fill-rule="evenodd" clip-rule="evenodd" d="M58.2725 85.2089L56.5054 92.3082L30.7485 85.8869L32.5157 78.7876C32.7109 78.0068 33.5122 77.5239 34.3033 77.7191L57.1937 83.4315C57.9848 83.6267 58.4677 84.428 58.2725 85.2089Z" fill="#E1E4E1"/>
<path fill-rule="evenodd" clip-rule="evenodd" d="M57.5738 94.0857L56.1662 99.7672L27.5532 92.6371L28.971 86.9556C29.1662 86.1748 29.9676 85.6919 30.7587 85.8871L56.5156 92.3083C57.2964 92.5035 57.769 93.2946 57.5738 94.0857Z" fill="#546670"/>
<path fill-rule="evenodd" clip-rule="evenodd" d="M41.8341 87.1403C42.6252 87.3355 43.4266 86.8527 43.6218 86.0718L44.6903 81.8081C44.8855 81.0273 45.6869 80.5444 46.478 80.7396L55.7759 83.0616L53.6492 91.5787L30.7588 85.8766C30.954 85.0958 31.7554 84.6129 32.5465 84.8081L41.8341 87.1403Z" fill="#CDD3D1"/>
<path fill-rule="evenodd" clip-rule="evenodd" d="M40.0566 94.2403C40.8477 94.4355 41.6491 93.9526 41.8443 93.1718L42.1936 91.7437C42.3888 90.9629 43.1902 90.48 43.9813 90.6752L57.5738 94.0656L56.156 99.7471L27.5532 92.6375L27.9025 91.2094L40.0566 94.2403Z" fill="#3C4E5D"/>
<path fill-rule="evenodd" clip-rule="evenodd" d="M51.6558 84.3052C52.8373 84.5929 53.5668 85.7949 53.2791 86.9662C52.9914 88.1477 51.7894 88.8566 50.6079 88.5586C49.4264 88.2607 48.6969 87.0689 48.9846 85.8977C49.2723 84.7264 50.4743 84.0175 51.6558 84.3052Z" fill="#ADBDC4"/>
<path fill-rule="evenodd" clip-rule="evenodd" d="M51.3065 85.733C51.6969 85.8255 51.9435 86.2262 51.8407 86.6166C51.7483 87.007 51.3476 87.2536 50.9572 87.1406C50.5565 87.0481 50.3202 86.6474 50.4229 86.257C50.5154 85.8666 50.9058 85.6303 51.3065 85.733Z" fill="#7694A3"/>
<path fill-rule="evenodd" clip-rule="evenodd" d="M49.9707 84.5616C50.6796 84.1301 51.6145 84.0993 52.3029 84.5822C53.7618 85.5993 53.5769 87.5514 52.2515 88.3425L51.4913 87.0788C51.6556 86.9863 51.7789 86.8219 51.82 86.6267C51.9125 86.2363 51.6762 85.8356 51.2858 85.7431C51.0906 85.6918 50.8851 85.7329 50.731 85.8253L49.9707 84.5616Z" fill="#8BA6B1"/>
<path fill-rule="evenodd" clip-rule="evenodd" d="M56.5051 92.3081L53.6489 91.5992L55.7756 83.082L57.214 83.4416C58.0051 83.6368 58.4777 84.4382 58.2825 85.219L56.5051 92.3081Z" fill="#CDD3D1"/>
<path fill-rule="evenodd" clip-rule="evenodd" d="M55.7654 83.0723C56.5565 83.2675 57.0291 84.0688 56.8339 84.8497L55.7654 89.1134C55.5702 89.8942 56.0531 90.6956 56.8339 90.8908L56.4846 92.3188L53.6284 91.6099L55.7654 83.0723Z" fill="#B9C3C4"/>
<path fill-rule="evenodd" clip-rule="evenodd" d="M40.0364 55.6713L30.8823 64.8254L31.8584 49.209L40.0364 55.6713Z" fill="#A9B3B6"/>
<path fill-rule="evenodd" clip-rule="evenodd" d="M75.7792 17.9863L26.9881 46.2911L13.3237 36.5308L75.7792 17.9863Z" fill="#E1E4E1"/>
<path fill-rule="evenodd" clip-rule="evenodd" d="M43.3032 49.0548C44.9059 49.3014 46.1285 50.3493 46.7039 51.6849C47.5361 50.411 49.108 49.7226 50.6799 50.113C51.358 50.2774 51.9025 50.6781 52.3957 51.0993C54.4607 52.8151 60.471 57.7569 60.471 57.7569C62.7621 59.7706 63.8203 62.9041 63.0909 65.8322L62.1662 69.5617C60.2758 77.1336 55.9607 76.1884 55.0464 79.8562L54.3375 82.6918L34.3135 77.7089C35.8751 71.4315 37.6422 55.0548 38.6183 52.1267C39.5943 49.1986 41.0121 48.6952 43.3032 49.0548Z" fill="#84522D"/>
<path fill-rule="evenodd" clip-rule="evenodd" d="M48.6457 56.7709C49.1285 54.8085 51.5224 54.038 53.0943 55.3222L59.7313 60.7983C62.0224 62.812 63.4402 64.5174 62.7005 67.4661L62.1765 69.5825C60.2861 77.1544 55.971 76.2092 55.0566 79.877L54.3477 82.7127L34.3135 77.7195L34.5909 76.6305C34.7347 76.0551 35.3101 75.7161 35.8957 75.8496L41.4436 77.2366C42.5429 77.514 43.6525 76.8462 43.9196 75.7572L48.6457 56.7709Z" fill="#6D4526"/>
<path fill-rule="evenodd" clip-rule="evenodd" d="M75.7794 17.9863L31.8582 49.2192L30.8821 64.8356L26.978 46.2911L75.7794 17.9863Z" fill="#C5CCCD"/>
<path fill-rule="evenodd" clip-rule="evenodd" d="M75.7791 17.9863L50.4024 63.8493L40.036 55.6713L31.8579 49.2089L75.7791 17.9863Z" fill="#E1E4E1"/>
<path d="M49.3959 44.9142L48.2144 50.2464L40.8069 50.1437C40.2624 50.1334 39.9747 49.4759 40.3446 49.0752L46.5809 42.3252L49.3959 44.9142Z" fill="url(#paint0_linear)"/>
<path d="M50.5771 42.4382L46.5908 42.356L47.9573 56.7703C48.0086 57.2532 48.6045 57.4587 48.9436 57.0991L51.6867 54.1299L50.5771 42.4382Z" fill="url(#paint1_linear)"/>
<path d="M53.9368 42.5001L50.5361 42.4282L51.5841 54.233L55.067 50.4625C55.1389 50.3803 55.1697 50.2775 55.1594 50.1748L54.5738 43.096C54.5533 42.7673 54.2759 42.5001 53.9368 42.5001Z" fill="url(#paint2_linear)"/>
<path fill-rule="evenodd" clip-rule="evenodd" d="M98.4437 51.4795C98.4437 77.524 77.3307 98.637 51.2861 98.637C25.2416 98.637 4.1286 77.524 4.1286 51.4795C4.1286 25.435 25.2416 4.32196 51.2861 4.32196C77.3307 4.32196 98.4437 25.435 98.4437 51.4795ZM51.2861 0.479492C79.4574 0.479492 102.286 23.3083 102.286 51.4795C102.286 79.6507 79.4471 102.479 51.2861 102.479C23.1149 102.479 0.286133 79.6405 0.286133 51.4795C0.286133 23.3083 23.1149 0.479492 51.2861 0.479492Z" fill="#F2F1F0"/>
<path fill-rule="evenodd" clip-rule="evenodd" d="M95.5569 51.4797C95.5569 75.9318 75.7384 95.7503 51.2864 95.7503C26.8343 95.7503 7.01581 75.9318 7.01581 51.4797C7.01581 27.0277 26.8343 7.20917 51.2864 7.20917C75.7384 7.20917 95.5569 27.0277 95.5569 51.4797ZM51.2864 3.3667C77.8548 3.3667 99.3994 24.9112 99.3994 51.4797C99.3994 78.0482 77.8548 99.5927 51.2864 99.5927C24.7179 99.5927 3.17334 78.0482 3.17334 51.4797C3.17334 24.9112 24.7076 3.3667 51.2864 3.3667Z" fill="#0066FF"/>
<defs>
<linearGradient id="paint0_linear" x1="38.195" y1="46.9295" x2="52.8688" y2="45.9031" gradientUnits="userSpaceOnUse">
<stop offset="0.4598" stop-color="#1152D4"/>
<stop offset="0.6156" stop-color="#0D3FB3"/>
</linearGradient>
<linearGradient id="paint1_linear" x1="44.443" y1="53.3248" x2="52.8901" y2="44.1846" gradientUnits="userSpaceOnUse">
<stop stop-color="#388CF4"/>
<stop offset="1" stop-color="#2C7CEF"/>
</linearGradient>
<linearGradient id="paint2_linear" x1="48.5538" y1="51.0429" x2="55.6004" y2="43.4177" gradientUnits="userSpaceOnUse">
<stop stop-color="#76C0FD"/>
<stop offset="1" stop-color="#63B2FB"/>
</linearGradient>
</defs>
</svg>
