<?xml version="1.0" encoding="UTF-8"?>
<svg width="202px" height="167px" viewBox="0 0 202 167" version="1.1" xmlns="http://www.w3.org/2000/svg" xmlns:xlink="http://www.w3.org/1999/xlink">
    <!-- Generator: Sketch 62 (91390) - https://sketch.com -->
    <title>Get started with Power Automate Buttons/Get-started-with-Power-Automate-Buttons</title>
    <desc>Created with Sketch.</desc>
    <defs>
        <path d="M45.9102524,160 L153.401474,160 C163.025776,160 171.28527,153.145229 173.058918,143.685771 L194.818366,27.6353808 C196.853961,16.7788744 189.703199,6.32776127 178.846693,4.29216632 C176.651494,3.8805665 174.402856,3.83957154 172.194113,4.170883 L21.3829699,26.7925545 C10.4594805,28.4310779 2.93252847,38.6146013 4.57105187,49.5380906 C4.64810856,50.0518019 4.74514986,50.5623161 4.86195501,51.0684717 L26.4224285,144.49719 C28.516572,153.571812 36.5971328,160 45.9102524,160 Z" id="path-1"></path>
        <linearGradient x1="50%" y1="0%" x2="50%" y2="100%" id="linearGradient-3">
            <stop stop-color="#99D3FF" offset="0%"></stop>
            <stop stop-color="#0FA6FF" offset="100%"></stop>
        </linearGradient>
        <path d="M167.847056,0.221272982 C170.055799,-0.110038477 172.304437,-0.0690435174 174.499636,0.342556301 C185.241864,2.35672394 192.355951,12.6101734 190.532544,23.3430778 L190.471309,23.6857707 L168.711861,139.736161 C166.960383,149.077376 158.884193,155.878614 149.414679,156.047185 L149.054417,156.05039 L41.5631955,156.05039 C32.3726169,156.05039 24.3823748,149.790252 22.1611336,140.904406 L22.0753716,140.54758 L0.514898122,47.1188617 C0.398092972,46.612706 0.301051667,46.1021919 0.223994979,45.5884806 C-1.39728081,34.7799754 5.95497707,24.6959399 16.6920965,22.8975187 L17.035913,22.8429445 L167.847056,0.221272982 Z M173.578194,5.25691724 C172.096434,4.97908736 170.582211,4.92639993 169.086554,5.09978529 L168.588759,5.16595475 L17.7776152,27.7876263 C9.58499825,29.0165188 3.93978419,36.6541614 5.16867674,44.8467784 C5.20720509,45.103634 5.25239497,45.3594239 5.30419733,45.6138901 L5.3868541,45.9945642 L26.9473276,139.423283 C28.4926028,146.119475 34.3840263,150.894353 41.2259558,151.046639 L41.5631955,151.05039 L149.054417,151.05039 C156.161594,151.05039 162.276418,146.066282 163.732665,139.140762 L163.7975,138.814718 L185.556948,22.7643281 C187.083644,14.6219483 181.720573,6.78361345 173.578194,5.25691724 Z" id="path-4"></path>
        <filter x="-12.0%" y="-12.0%" width="124.0%" height="124.0%" filterUnits="objectBoundingBox" id="filter-6">
            <feOffset dx="0" dy="2" in="SourceAlpha" result="shadowOffsetOuter1"></feOffset>
            <feGaussianBlur stdDeviation="2" in="shadowOffsetOuter1" result="shadowBlurOuter1"></feGaussianBlur>
            <feColorMatrix values="0 0 0 0 0   0 0 0 0 0   0 0 0 0 0  0 0 0 0.1 0" type="matrix" in="shadowBlurOuter1" result="shadowMatrixOuter1"></feColorMatrix>
            <feMerge>
                <feMergeNode in="shadowMatrixOuter1"></feMergeNode>
                <feMergeNode in="SourceGraphic"></feMergeNode>
            </feMerge>
        </filter>
        <linearGradient x1="50%" y1="-9.93901477%" x2="50%" y2="100%" id="linearGradient-7">
            <stop stop-color="#FFFFFF" offset="0%"></stop>
            <stop stop-color="#CBCBCB" offset="100%"></stop>
        </linearGradient>
        <path d="M100,54.526749 L100,43.0041152 L88.2231405,38.8888889 L85.3305785,31.0699588 L91.1157025,18.9300412 L91.1157025,17.6954733 L87.3966942,13.9917695 L83.0578512,9.05349794 L81.4049587,9.05349794 L69.8347107,15.2263374 L61.9834711,12.962963 L56.8181818,0 L45.4545455,0 L41.5289256,11.7283951 L32.8512397,15.2263374 L19.4214876,8.84773663 L11.3636364,16.872428 L11.3636364,18.3127572 L17.3553719,29.8353909 L13.8429752,38.4773663 L0,43.6213992 L0,55.1440329 L1.65289256,55.1440329 L13.8429752,59.2592593 L17.1487603,67.0781893 L10.9504132,80.4526749 L19.0082645,88.6831276 L20.661157,88.6831276 L32.0247934,82.9218107 L40.0826446,86.2139918 L45.0413223,100 L56.6115702,100 L56.6115702,98.3539095 L60.5371901,86.0082305 L68.3884298,82.7160494 L82.0247934,89.0946502 L90.0826446,81.0699588 L90.0826446,79.4238683 L84.2975207,67.9012346 L86.5702479,59.8765432 L100,54.526749 Z M50.8286834,64.284383 C42.2198209,63.3600298 35.7142857,56.4431389 35.7142857,48.2142771 C35.7142857,39.9854154 42.2198209,33.0685245 50.8286834,32.1441713 C55.3246035,32.0894197 59.6562604,33.7475295 62.855803,36.7480181 C66.0553457,39.7485067 67.8561107,43.8413006 67.8557412,48.1119198 L67.8557412,48.1119198 C67.9142458,52.4179184 66.1391219,56.5638128 62.9331591,59.6088672 C59.7271963,62.6539215 55.362222,64.3399512 50.8286834,64.284383 Z" id="path-8"></path>
        <filter x="0.0%" y="0.0%" width="100.0%" height="100.0%" filterUnits="objectBoundingBox" id="filter-9">
            <feOffset dx="0" dy="0" in="SourceAlpha" result="shadowOffsetOuter1"></feOffset>
            <feColorMatrix values="0 0 0 0 0   0 0 0 0 0   0 0 0 0 0  0 0 0 0.1 0" type="matrix" in="shadowOffsetOuter1"></feColorMatrix>
        </filter>
        <linearGradient x1="50%" y1="0%" x2="50%" y2="100%" id="linearGradient-10">
            <stop stop-color="#6A6A6A" offset="0%"></stop>
            <stop stop-color="#353434" offset="100%"></stop>
        </linearGradient>
        <linearGradient x1="50%" y1="0%" x2="50%" y2="100%" id="linearGradient-11">
            <stop stop-color="#6A6A6A" offset="0%"></stop>
            <stop stop-color="#353434" offset="100%"></stop>
        </linearGradient>
    </defs>
    <g id="Badges" stroke="none" stroke-width="1" fill="none" fill-rule="evenodd">
        <g id="Get-started-with-Power-Automate-Buttons" transform="translate(-109.000000, -48.000000)">
            <g id="Get-started-with-Power-Automate-Buttons/Get-started-with-Power-Automate-Buttons" transform="translate(159.000000, 80.000000)">
                <g id="Trophy-Plates/Trailhead" transform="translate(1.000000, 0.000000)">
                    <g id="BG" transform="translate(-50.000000, -30.474805)">
                        <mask id="mask-2" fill="white">
                            <use xlink:href="#path-1"></use>
                        </mask>
                        <path stroke="#FFFFFF" stroke-width="5" d="M2.09871098,49.9089418 C1.17704157,43.764479 2.83316214,37.8281317 6.25581574,33.1974827 C9.67846935,28.5668337 14.867656,25.241883 21.0121187,24.3202136 L171.823262,1.69854212 C174.308098,1.32581673 176.837815,1.37193606 179.307414,1.83498585 C185.414199,2.98000801 190.478743,6.49189465 193.730336,11.244222 C196.981928,15.9965493 198.420569,21.9893173 197.275547,28.0961021 L175.516098,144.146492 C174.518421,149.467437 171.6966,154.055814 167.770781,157.313955 C163.844961,160.572096 158.815144,162.5 153.401474,162.5 L45.9102524,162.5 C40.6716226,162.5 35.77965,160.692072 31.9028459,157.608026 C28.0260418,154.523979 25.1644062,150.163814 23.9864505,145.059339 L2.42597702,51.6306205 C2.29457123,51.0611954 2.18539976,50.4868669 2.09871098,49.9089418 Z"></path>
                        <g id="Colors/Microsoft-365/BG-Gradient-1" mask="url(#mask-2)" fill="url(#linearGradient-3)">
                            <g transform="translate(0.000000, -0.000000)" id="Rectangle">
                                <rect x="0" y="0" width="200" height="160"></rect>
                            </g>
                        </g>
                    </g>
                    <g id="Border" transform="translate(-45.652943, -26.525195)">
                        <mask id="mask-5" fill="white">
                            <use xlink:href="#path-4"></use>
                        </mask>
                        <use fill="#000000" fill-rule="nonzero" xlink:href="#path-4"></use>
                        <g id="Colors/Microsoft-365/Border" mask="url(#mask-5)" fill="#0076D7">
                            <g transform="translate(-4.347057, -3.949610)" id="Microsoft-365/Border">
                                <rect x="0" y="0" width="200" height="160"></rect>
                            </g>
                        </g>
                    </g>
                </g>
                <g id="Gear" filter="url(#filter-6)" transform="translate(0.000000, 7.000000)">
                    <g id="a30ee4c9-49d5-4d00-a305-a6a3597e53b7" fill-rule="nonzero">
                        <g id="Shape">
                            <use fill="black" fill-opacity="1" filter="url(#filter-9)" xlink:href="#path-8"></use>
                            <use fill="url(#linearGradient-7)" xlink:href="#path-8"></use>
                        </g>
                    </g>
                    <circle id="Oval" fill="#FFFFFF" cx="51" cy="49" r="23"></circle>
                </g>
                <g id="noun_Power_3093788" transform="translate(38.000000, 41.000000)" fill-rule="nonzero">
                    <path d="M12.5013504,28.4759951 C6.69653187,28.4733845 1.65662706,24.4940391 0.331455315,18.8670406 C-0.993716431,13.2400421 1.7442627,7.4448565 6.9428736,4.87336345 C7.45498456,4.61898619 8.06449501,4.6559537 8.54180826,4.9703407 C9.01912151,5.2847277 9.29172233,5.82877131 9.25692462,6.39753557 C9.22212691,6.96629984 8.88521728,7.47337593 8.37310632,7.7277532 C4.47678715,9.65079661 2.44209121,14.0080129 3.47650554,18.2136191 C4.51091987,22.4192252 8.33750849,25.3472859 12.6853885,25.2601481 C17.0332685,25.1730103 20.7384147,22.0940029 21.6020139,17.8503579 C22.4656132,13.6067128 20.2564606,9.33454932 16.2855742,7.56917599 C15.76379,7.33576078 15.40671,6.84291622 15.3488429,6.2762921 C15.2909758,5.70966797 15.5411128,5.15534797 16.0050299,4.82213907 C16.4689469,4.48893018 17.0761639,4.42745475 17.5979481,4.66086999 C22.9834011,7.058582 25.9535148,12.8774266 24.7242504,18.6222364 C23.494986,24.3670462 18.4007027,28.4752362 12.5013504,28.4791667 L12.5013504,28.4759951 Z" id="Path" fill="url(#linearGradient-10)"></path>
                    <path d="M12.4865958,14.9997508 C11.6655716,14.9997508 11,14.3146935 11,13.4696324 L11,1.54388948 C11,0.691222866 11.6715618,0 12.4999752,0 C13.3283886,0 13.9999504,0.691222866 13.9999504,1.54388948 L13.9999504,13.4573915 C14.0032238,13.87014 13.8443462,14.2667426 13.5593849,14.5571655 C13.2744236,14.8475883 12.8875523,15.0071943 12.4865958,14.9997508 L12.4865958,14.9997508 Z" id="Path" fill="url(#linearGradient-11)"></path>
                </g>
            </g>
        </g>
    </g>
</svg>