<svg width="103" height="103" viewBox="0 0 103 103" fill="none" xmlns="http://www.w3.org/2000/svg">
<path d="M51.9228 98.0477C26.0728 98.0477 5.11279 77.0977 5.11279 51.2377C5.11279 25.3777 26.0728 4.42773 51.9228 4.42773C77.7728 4.42773 98.7328 25.3877 98.7328 51.2377C98.7328 77.0877 77.7728 98.0477 51.9228 98.0477Z" fill="url(#paint0_linear_166_42567)"/>
<path fill-rule="evenodd" clip-rule="evenodd" d="M97.8228 51.2377C97.8228 76.5877 77.2728 97.1376 51.9228 97.1376C26.5728 97.1376 6.02278 76.5877 6.02278 51.2377C6.02278 25.8877 26.5728 5.33766 51.9228 5.33766C77.2728 5.33766 97.8228 25.8877 97.8228 51.2377ZM51.9228 1.59766C79.3428 1.59766 101.563 23.8177 101.563 51.2377C101.563 78.6577 79.3328 100.878 51.9228 100.878C24.5028 100.878 2.28278 78.6477 2.28278 51.2377C2.28278 23.8177 24.5028 1.59766 51.9228 1.59766Z" fill="#F2F1F0"/>
<path fill-rule="evenodd" clip-rule="evenodd" d="M95.0128 51.2382C95.0128 75.0382 75.7228 94.3282 51.9228 94.3282C28.1228 94.3282 8.8328 75.0382 8.8328 51.2382C8.8328 27.4382 28.1228 8.14821 51.9228 8.14821C75.7228 8.14821 95.0128 27.4382 95.0128 51.2382ZM51.9228 4.4082C77.7828 4.4082 98.7528 25.3782 98.7528 51.2382C98.7528 77.0982 77.7828 98.0682 51.9228 98.0682C26.0628 98.0682 5.0928 77.0982 5.0928 51.2382C5.0928 25.3782 26.0528 4.4082 51.9228 4.4082Z" fill="url(#paint1_linear_166_42567)"/>
<path opacity="0.15" d="M70.9062 27.5782L33.3595 27.2696C32.5451 27.261 31.8851 27.9125 31.8851 28.7269L31.4822 77.7262C31.4736 78.5405 32.1251 79.2006 32.9395 79.2006L70.4861 79.5092C71.3005 79.5178 71.9606 78.8663 71.9606 78.0519L72.3635 29.0527C72.3549 28.2469 71.7034 27.5868 70.9062 27.5782Z" fill="#1F1D20"/>
<path d="M70.9147 26.0255L33.3681 25.7169C32.5537 25.7083 31.8936 26.3598 31.8936 27.1742L31.4822 76.1648C31.4736 76.9792 32.1251 77.6393 32.9395 77.6393L70.4861 77.9479C71.3005 77.9565 71.9606 77.305 71.9606 76.4906L72.3635 27.4913C72.3635 26.6941 71.7205 26.0341 70.9147 26.0255Z" fill="#F2F2F2"/>
<path opacity="0.15" d="M68.3003 27.707H35.5456V73.3202H68.3003V27.707Z" fill="#1F1D20"/>
<path d="M68.3003 27.1836H35.5456V72.7968H68.3003V27.1836Z" fill="white"/>
<path fill-rule="evenodd" clip-rule="evenodd" d="M53.8815 20.3335C54.9445 20.9078 55.5617 22.0479 55.5531 23.2481V23.5395C55.5531 23.6509 55.5446 23.7452 55.536 23.8567L57.8419 23.8738C58.5277 23.8824 59.1706 24.2253 59.5135 24.8254C60.4736 26.5312 59.2564 28.2628 57.6533 28.2457L46.0122 28.16C45.3264 28.1514 44.6835 27.8085 44.3406 27.2085C43.3805 25.5026 44.5977 23.771 46.2008 23.7881L48.3438 23.8053C48.3353 23.7024 48.3353 23.5995 48.3353 23.4881V23.3938C48.3696 20.7878 51.1384 18.859 53.8815 20.3335Z" fill="#243A5E"/>
<path d="M51.9102 25.1075C52.7331 25.1161 53.4017 24.456 53.4103 23.633C53.4189 22.8101 52.7588 22.1415 51.9359 22.1329C51.1129 22.1243 50.4443 22.7844 50.4357 23.6073C50.4357 24.4303 51.0872 25.0989 51.9102 25.1075Z" fill="#F2F2F2"/>
<path d="M64.6657 60.0075C63.959 53.6705 58.5231 48.6875 51.9458 48.6875C45.4227 48.6875 40.0412 53.5622 39.2258 59.845C39.1171 60.2783 39.1171 60.7658 39.1171 61.1991C39.2802 62.9865 40.5304 64.7198 42.8679 66.0738C47.8688 68.9445 56.0226 68.9445 60.9693 66.0738C63.3067 64.7198 64.5026 62.9865 64.6657 61.1991C64.7744 60.82 64.72 60.3867 64.6657 60.0075Z" fill="url(#paint2_radial_166_42567)"/>
<path d="M51.9553 47.3901C56.2095 47.3901 59.6582 43.9606 59.6582 39.7302C59.6582 35.4998 56.2095 32.0703 51.9553 32.0703C47.7011 32.0703 44.2524 35.4998 44.2524 39.7302C44.2524 43.9606 47.7011 47.3901 51.9553 47.3901Z" fill="url(#paint3_radial_166_42567)"/>
<path opacity="0.15" fill-rule="evenodd" clip-rule="evenodd" d="M57.1888 55.9023L57.0653 55.7788C56.4112 55.1258 55.5247 54.7591 54.6005 54.7591C53.6762 54.7591 52.7897 55.1258 52.1356 55.7788L52.0122 55.9023L51.8887 55.7788C51.5646 55.4539 51.1796 55.1962 50.7558 55.0203C50.3319 54.8444 49.8776 54.7539 49.4187 54.7539C48.9598 54.7539 48.5055 54.8444 48.0817 55.0203C47.6578 55.1962 47.2728 55.4539 46.9488 55.7788L46.8355 55.892C46.1826 56.5461 45.8159 57.4325 45.8159 58.3567C45.8159 59.281 46.1826 60.1675 46.8355 60.8216L46.959 60.9451L51.8475 65.8335C51.8687 65.8559 51.8942 65.8738 51.9225 65.886C51.9508 65.8982 51.9813 65.9046 52.0122 65.9046C52.043 65.9046 52.0735 65.8982 52.1018 65.886C52.1301 65.8738 52.1557 65.8559 52.1768 65.8335L57.1888 60.8216C57.8411 60.1692 58.2076 59.2844 58.2076 58.3619C58.2076 57.4393 57.8411 56.5546 57.1888 55.9023V55.9023Z" fill="#1F1D20"/>
<path d="M49.8732 54.3414C50.797 54.3453 51.0295 54.343 51.6808 54.9982L51.8783 55.1232L52.1242 55.0426C52.7787 54.3858 52.9684 54.6389 53.8955 54.6366C54.3532 54.6369 54.3958 53.8511 54.8181 54.0277C55.2403 54.2044 54.515 54.5507 54.8365 54.8765L55.6299 55.1533C56.2829 55.8074 55.6299 55.0778 55.6299 56.002C55.6299 56.9262 56.6334 56.252 55.9805 56.9061L52.5486 61.4451L52.3839 61.6096L52.2193 61.4451L48.4525 58.2899L48.3187 58.1561C47.9929 57.8336 47.7802 58.4178 47.6037 57.9947C47.4272 57.5716 47.3085 57.2169 47.3085 56.7585C47.3085 56.3001 47.4263 56.1375 47.6028 55.7145C47.7793 55.2914 48.016 55.6972 48.3418 55.3747L48.5263 54.9688C48.85 54.6431 48.0286 54.1859 48.4525 54.0093C48.8763 53.8327 49.0714 54.3218 49.5306 54.3213L49.8732 54.3414ZM49.4582 52.2051C48.9228 52.2034 48.3923 52.3081 47.8977 52.513C47.403 52.7179 46.8645 53.0179 46.4871 53.3977L46.3739 53.5212C45.9943 53.8944 45.7533 54.3212 45.5483 54.8125C45.3433 55.3039 45.2386 55.8313 45.2404 56.3636C45.2387 56.8991 45.3434 57.4295 45.5483 57.9242C45.7533 58.4189 46.0628 58.8203 46.4426 59.1977L46.5249 59.28L46.568 59.3276L51.4976 64.2057L51.6108 64.3292C51.7218 64.4349 51.8692 64.4939 52.0224 64.4939C52.0969 64.4942 52.1707 64.4798 52.2395 64.4516C52.3084 64.4233 52.371 64.3817 52.4238 64.3292L52.5576 64.2057L52.6193 64.1338L57.6004 59.1526C57.9801 58.7794 58.2813 58.334 58.4863 57.8427C58.6913 57.3513 58.796 56.824 58.7942 56.2916C58.7959 55.7562 58.6912 55.2258 58.4863 54.7311C58.2813 54.2364 58.0329 53.8685 57.653 53.4911L57.5398 53.3779C56.8255 52.6606 55.816 52.2926 54.8048 52.245C53.7935 52.1973 52.801 52.5342 52.0224 53.1812C51.2958 52.5712 50.407 52.2067 49.4582 52.2051Z" fill="white"/>
<path fill-rule="evenodd" clip-rule="evenodd" d="M56.6348 58.9315L52.0118 63.5544L47.2945 58.8371C46.9959 58.5414 46.7588 58.1896 46.597 57.8017C46.4352 57.4139 46.3519 56.9978 46.3519 56.5775C46.3519 56.1573 46.4352 55.7412 46.597 55.3533C46.7588 54.9655 46.9959 54.6136 47.2945 54.3179L47.3983 54.2141C47.694 53.9155 48.0459 53.6784 48.4337 53.5166C48.8216 53.3548 49.2377 53.2715 49.6579 53.2715C50.0782 53.2715 50.4942 53.3548 50.8821 53.5166C51.2699 53.6784 51.6219 53.9155 51.9175 54.2141L56.6348 58.9315Z" fill="url(#paint4_linear_166_42567)"/>
<path fill-rule="evenodd" clip-rule="evenodd" d="M51.8514 63.4035L47.3794 58.9314L52.0967 54.2141C52.6964 53.6155 53.509 53.2793 54.3563 53.2793C55.2036 53.2793 56.0163 53.6155 56.6159 54.2141L56.7291 54.3273C57.3277 54.9269 57.6639 55.7396 57.6639 56.5869C57.6639 57.4342 57.3277 58.2468 56.7291 58.8464L52.1439 63.4223C52.1008 63.4544 52.0478 63.47 51.9942 63.4666C51.9406 63.4631 51.89 63.4408 51.8514 63.4035V63.4035Z" fill="url(#paint5_linear_166_42567)"/>
<path opacity="0.15" d="M69.1967 80.6501C72.7628 80.6501 75.6516 77.7612 75.6516 74.1952C75.6516 70.6291 72.7628 67.7402 69.1967 67.7402C65.6306 67.7402 62.7418 70.6291 62.7418 74.1952C62.7503 77.7612 65.6392 80.6501 69.1967 80.6501Z" fill="#1F1D20"/>
<path d="M69.1967 79.9216C72.7628 79.9216 75.6516 77.0327 75.6516 73.4667C75.6516 69.9006 72.7628 67.0117 69.1967 67.0117C65.6306 67.0117 62.7418 69.9006 62.7418 73.4667C62.7503 77.0327 65.6392 79.9216 69.1967 79.9216Z" fill="#002D4C"/>
<path opacity="0.3" d="M72.7113 70.6465L67.3965 75.987L65.8021 74.384L64.7391 75.4555L67.3965 78.1215L73.7829 71.718L72.7113 70.6465Z" fill="#1F1D20"/>
<path d="M72.7113 70.1914L67.3965 75.5319L65.8021 73.9289L64.7391 75.0005L67.3965 77.6664L73.7829 71.2629L72.7113 70.1914Z" fill="#FAF9F8"/>
<path opacity="0.15" d="M90.9933 47.4674C90.9933 46.6227 90.3022 45.9206 89.4465 45.9206C88.887 45.9206 85.4314 45.6135 83.5665 44.1654C83.5665 44.1654 83.5774 44.1435 83.5665 44.1654C82.8644 41.6093 81.8332 39.2178 80.5606 36.947C80.2315 34.7968 82.4585 33.2281 83.4787 31.5496C83.6542 31.2534 83.7639 31.0889 83.8298 30.9682C84.0162 30.4197 83.9175 29.7944 83.4787 29.3666C83.4787 29.3666 81.7673 26.9202 80.0121 25.1759C78.2569 23.4317 75.6021 21.4899 75.6021 21.4899C74.9987 20.8866 74.0224 20.8866 73.419 21.4899C73.0241 21.8739 70.3912 24.046 68.0107 24.397C67.9778 24.397 67.9778 24.397 67.9778 24.397C65.7728 23.1464 63.2935 22.1152 60.8142 21.4131H60.7813C59.0261 20.1187 59.4868 17.4419 59.0261 15.5331C59.0261 14.6884 58.3349 13.9863 57.4793 13.9863C57.4793 13.9863 54.5393 13.4707 52.06 13.4707C49.5807 13.4707 46.3445 13.9863 46.3445 13.9863C45.4998 13.9863 44.7977 14.6774 44.7977 15.5331C44.7977 16.0926 44.4905 19.5482 43.0425 21.4131C40.5851 22.1043 38.0071 23.2013 35.824 24.419C33.6739 24.7481 32.1051 22.5211 30.4267 21.5009C30.1305 21.3254 29.9659 21.2157 29.8453 21.1499C29.2968 20.9634 28.6715 21.0621 28.2436 21.5009C28.2436 21.5009 25.7973 23.2123 24.053 24.9675C22.3087 26.7227 20.367 29.3775 20.367 29.3775C19.7636 29.9809 19.7636 30.9572 20.367 31.5606C20.751 31.9446 22.9889 34.6213 23.2851 36.958V36.9799C22.0674 39.163 21.0033 41.73 20.3012 44.1873C20.3012 44.1873 20.3341 44.1435 20.3012 44.1873C18.7983 46.0084 16.33 45.4818 14.4211 45.9426C13.5764 45.9426 12.8743 46.6337 12.8743 47.4894C12.8743 47.4894 12.3587 50.4294 12.3587 52.9087C12.3587 55.3879 12.8743 58.6242 12.8743 58.6242C12.8743 59.4689 13.5655 60.171 14.4211 60.171C14.9806 60.171 18.4362 60.4781 20.3012 61.9262C20.3451 61.9042 20.3231 61.9591 20.3231 61.9591C21.0362 64.4274 22.0564 66.8957 23.296 69.0678C23.2741 69.1007 23.296 69.0678 23.307 69.1446C23.5155 71.3935 21.4092 72.8635 20.3889 74.5419C20.2134 74.8381 20.1037 75.0027 20.0379 75.1234C19.8514 75.6719 19.9501 76.2972 20.3889 76.725C20.3889 76.725 22.1003 79.1714 23.8555 80.9156C25.6108 82.6709 28.2656 84.6016 28.2656 84.6016C28.8689 85.205 29.8453 85.205 30.4486 84.6016C30.8326 84.2177 33.5093 81.9798 35.846 81.6836C35.846 81.6836 35.835 81.6945 35.8789 81.7055C38.1278 82.9561 40.4425 83.9434 42.9766 84.6345C42.9986 84.6455 43.0754 84.6675 43.0754 84.6675C44.8306 85.9619 44.3699 88.6387 44.8306 90.5475C44.9293 91.4032 45.4011 91.9517 46.3774 92.0943C46.3774 92.0943 49.3174 92.6099 51.7967 92.6099C54.276 92.6099 57.5122 92.1053 57.5122 92.1053C58.3569 91.9627 59.059 91.4142 59.059 90.5585C59.059 89.999 59.3662 86.5434 60.8142 84.6784C60.8142 84.6784 60.88 84.6236 60.9349 84.5687C63.5129 83.8447 65.4766 83.0439 67.7584 81.7384C67.879 81.6945 67.7474 81.7055 68.0217 81.6616C70.1718 81.3325 71.7406 83.5595 73.419 84.5797C73.7152 84.7552 73.8798 84.8649 74.0004 84.9308C74.5489 85.1172 75.1742 85.0185 75.6021 84.5797C75.6021 84.5797 78.0484 82.8683 79.7927 81.1131C81.5479 79.3579 83.4787 76.7031 83.4787 76.7031C84.0821 76.0997 84.0821 75.1234 83.4787 74.52C83.0947 74.136 80.8568 71.4593 80.5606 69.1227C80.5277 68.8813 80.5497 68.8484 80.5826 68.7826C81.888 66.4898 82.6998 64.8114 83.4129 62.2004C83.4129 62.2004 83.38 62.1127 83.5445 61.8933C84.839 60.138 87.5157 60.5988 89.4246 60.138C90.2693 60.138 90.9714 59.4469 90.9714 58.5912C90.9714 58.5912 91.487 55.6512 91.487 53.1719C91.4979 50.7146 90.9933 47.4674 90.9933 47.4674Z" fill="#1F1D20"/>
<path d="M90.9933 45.862C90.9933 45.0173 90.3022 44.3152 89.4465 44.3152C88.887 44.3152 85.4314 44.008 83.5664 42.5599C83.5664 42.5599 83.5774 42.538 83.5664 42.5599C82.8643 40.0039 81.8331 37.6124 80.5606 35.3415C80.2315 33.1913 82.4584 31.6226 83.4787 29.9442C83.6542 29.648 83.7639 29.4834 83.8297 29.3627C84.0162 28.8142 83.9175 28.1889 83.4787 27.7611C83.4787 27.7611 81.7673 25.3147 80.0121 23.5705C78.2568 21.8262 75.6021 19.8845 75.6021 19.8845C74.9987 19.2811 74.0223 19.2811 73.419 19.8845C73.0241 20.2684 70.3912 22.4405 68.0107 22.7916C67.9777 22.7916 67.9777 22.7916 67.9777 22.7916C65.7727 21.541 63.2935 20.5098 60.8142 19.8077H60.7813C59.026 18.5132 59.4868 15.8365 59.026 13.9276C59.026 13.0829 58.3349 12.3808 57.4792 12.3808C57.4792 12.3808 54.5392 11.8652 52.06 11.8652C49.5807 11.8652 46.3445 12.3808 46.3445 12.3808C45.4998 12.3808 44.7977 13.072 44.7977 13.9276C44.7977 14.4871 44.4905 17.9427 43.0424 19.8077C40.5851 20.4988 38.0071 21.5958 35.824 22.8135C33.6739 23.1426 32.1051 20.9157 30.4267 19.8954C30.1305 19.7199 29.9659 19.6102 29.8452 19.5444C29.2967 19.3579 28.6714 19.4566 28.2436 19.8954C28.2436 19.8954 25.7972 21.6068 24.053 23.362C22.3087 25.1173 20.367 27.7721 20.367 27.7721C19.7636 28.3754 19.7636 29.3518 20.367 29.9551C20.7509 30.3391 22.9889 33.0158 23.285 35.3525V35.3744C22.0674 37.5575 21.0032 40.1245 20.3011 42.5819C20.3011 42.5819 20.3341 42.538 20.3011 42.5819C18.7982 44.4029 16.3299 43.8764 14.4211 44.3371C13.5764 44.3371 12.8743 45.0282 12.8743 45.8839C12.8743 45.8839 12.3587 48.8239 12.3587 51.3032C12.3587 53.7825 12.8743 57.0187 12.8743 57.0187C12.8743 57.8634 13.5654 58.5655 14.4211 58.5655C14.9806 58.5655 18.4362 58.8726 20.3011 60.3207C20.345 60.2988 20.3231 60.3536 20.3231 60.3536C21.0362 62.8219 22.0564 65.2902 23.296 67.4623C23.2741 67.4952 23.296 67.4623 23.307 67.5391C23.5154 69.788 21.4091 71.258 20.3889 72.9365C20.2134 73.2327 20.1037 73.3972 20.0379 73.5179C19.8514 74.0664 19.9501 74.6917 20.3889 75.1196C20.3889 75.1196 22.1003 77.5659 23.8555 79.3102C25.6107 81.0654 28.2655 82.9962 28.2655 82.9962C28.8689 83.5995 29.8452 83.5995 30.4486 82.9962C30.8326 82.6122 33.5093 80.3743 35.846 80.0781C35.846 80.0781 35.835 80.0891 35.8789 80.1C38.1278 81.3506 40.4425 82.338 42.9766 83.0291C42.9985 83.0401 43.0753 83.062 43.0753 83.062C44.8306 84.3565 44.3698 87.0332 44.8306 88.942C44.9293 89.7977 45.401 90.3462 46.3774 90.4888C46.3774 90.4888 49.3174 91.0044 51.7967 91.0044C54.2759 91.0044 57.5122 90.4998 57.5122 90.4998C58.3569 90.3572 59.059 89.8087 59.059 88.953C59.059 88.3935 59.3661 84.9379 60.8142 83.073C60.8142 83.073 60.88 83.0181 60.9349 82.9633C63.5129 82.2392 65.4765 81.4384 67.7583 80.1329C67.879 80.0891 67.7474 80.1 68.0216 80.0562C70.1718 79.727 71.7405 81.954 73.419 82.9742C73.7152 83.1497 73.8797 83.2595 74.0004 83.3253C74.5489 83.5118 75.1742 83.413 75.6021 82.9742C75.6021 82.9742 78.0484 81.2629 79.7927 79.5076C81.5479 77.7524 83.4787 75.0976 83.4787 75.0976C84.082 74.4943 84.082 73.5179 83.4787 72.9145C83.0947 72.5306 80.8568 69.8538 80.5606 67.5172C80.5277 67.2758 80.5496 67.2429 80.5825 67.1771C81.888 64.8843 82.6998 63.2059 83.4129 60.595C83.4129 60.595 83.3799 60.5072 83.5445 60.2878C84.839 58.5326 87.5157 58.9933 89.4245 58.5326C90.2692 58.5326 90.9713 57.8414 90.9713 56.9858C90.9713 56.9858 91.4869 54.0457 91.4869 51.5665C91.4979 49.1091 90.9933 45.862 90.9933 45.862Z" fill="url(#paint6_linear_166_42567)"/>
<path opacity="0.15" d="M70.9062 27.5782L33.3595 27.2696C32.5451 27.261 31.8851 27.9125 31.8851 28.7269L31.4822 77.7262C31.4736 78.5405 32.1251 79.2006 32.9395 79.2006L70.4861 79.5092C71.3005 79.5178 71.9606 78.8663 71.9606 78.0519L72.3635 29.0527C72.3549 28.2469 71.7034 27.5868 70.9062 27.5782Z" fill="#1F1D20"/>
<path d="M70.9147 26.0255L33.3681 25.7169C32.5537 25.7083 31.8936 26.3598 31.8936 27.1742L31.4822 76.1648C31.4736 76.9792 32.1251 77.6393 32.9395 77.6393L70.4861 77.9479C71.3005 77.9565 71.9606 77.305 71.9606 76.4906L72.3635 27.4913C72.3635 26.6941 71.7205 26.0341 70.9147 26.0255Z" fill="#F2F2F2"/>
<path opacity="0.15" d="M68.3003 27.707H35.5456V73.3202H68.3003V27.707Z" fill="#1F1D20"/>
<path d="M68.3003 27.1836H35.5456V72.7968H68.3003V27.1836Z" fill="white"/>
<path fill-rule="evenodd" clip-rule="evenodd" d="M53.8815 20.3335C54.9445 20.9078 55.5617 22.0479 55.5531 23.2481V23.5395C55.5531 23.6509 55.5446 23.7452 55.536 23.8567L57.8419 23.8738C58.5277 23.8824 59.1706 24.2253 59.5135 24.8254C60.4736 26.5312 59.2564 28.2628 57.6533 28.2457L46.0122 28.16C45.3264 28.1514 44.6835 27.8085 44.3406 27.2085C43.3805 25.5026 44.5977 23.771 46.2008 23.7881L48.3438 23.8053C48.3353 23.7024 48.3353 23.5995 48.3353 23.4881V23.3938C48.3696 20.7878 51.1384 18.859 53.8815 20.3335Z" fill="#243A5E"/>
<path d="M51.9102 25.1075C52.7331 25.1161 53.4017 24.456 53.4103 23.633C53.4189 22.8101 52.7588 22.1415 51.9359 22.1329C51.1129 22.1243 50.4443 22.7844 50.4357 23.6073C50.4357 24.4303 51.0872 25.0989 51.9102 25.1075Z" fill="#F2F2F2"/>
<path d="M64.6657 60.0075C63.959 53.6705 58.5231 48.6875 51.9458 48.6875C45.4227 48.6875 40.0412 53.5622 39.2258 59.845C39.1171 60.2783 39.1171 60.7658 39.1171 61.1991C39.2802 62.9865 40.5304 64.7198 42.8679 66.0738C47.8688 68.9445 56.0226 68.9445 60.9693 66.0738C63.3067 64.7198 64.5026 62.9865 64.6657 61.1991C64.7744 60.82 64.72 60.3867 64.6657 60.0075Z" fill="url(#paint7_radial_166_42567)"/>
<path d="M51.9553 47.3901C56.2095 47.3901 59.6582 43.9606 59.6582 39.7302C59.6582 35.4998 56.2095 32.0703 51.9553 32.0703C47.7011 32.0703 44.2524 35.4998 44.2524 39.7302C44.2524 43.9606 47.7011 47.3901 51.9553 47.3901Z" fill="url(#paint8_radial_166_42567)"/>
<path opacity="0.15" fill-rule="evenodd" clip-rule="evenodd" d="M57.1888 55.9023L57.0653 55.7788C56.4112 55.1258 55.5247 54.7591 54.6005 54.7591C53.6762 54.7591 52.7897 55.1258 52.1356 55.7788L52.0122 55.9023L51.8887 55.7788C51.5646 55.4539 51.1796 55.1962 50.7558 55.0203C50.3319 54.8444 49.8776 54.7539 49.4187 54.7539C48.9598 54.7539 48.5055 54.8444 48.0817 55.0203C47.6578 55.1962 47.2728 55.4539 46.9488 55.7788L46.8355 55.892C46.1826 56.5461 45.8159 57.4325 45.8159 58.3567C45.8159 59.281 46.1826 60.1675 46.8355 60.8216L46.959 60.9451L51.8475 65.8335C51.8687 65.8559 51.8942 65.8738 51.9225 65.886C51.9508 65.8982 51.9813 65.9046 52.0122 65.9046C52.043 65.9046 52.0735 65.8982 52.1018 65.886C52.1301 65.8738 52.1557 65.8559 52.1768 65.8335L57.1888 60.8216C57.8411 60.1692 58.2076 59.2844 58.2076 58.3619C58.2076 57.4393 57.8411 56.5546 57.1888 55.9023V55.9023Z" fill="#1F1D20"/>
<path d="M49.8732 54.3414C50.797 54.3453 51.0295 54.343 51.6808 54.9982L51.8783 55.1232L52.1242 55.0426C52.7787 54.3858 52.9684 54.6389 53.8955 54.6366C54.3532 54.6369 54.3958 53.8511 54.8181 54.0277C55.2403 54.2044 54.515 54.5507 54.8365 54.8765L55.6299 55.1533C56.2829 55.8074 55.6299 55.0778 55.6299 56.002C55.6299 56.9262 56.6334 56.252 55.9805 56.9061L52.5486 61.4451L52.3839 61.6096L52.2193 61.4451L48.4525 58.2899L48.3187 58.1561C47.9929 57.8336 47.7802 58.4178 47.6037 57.9947C47.4272 57.5716 47.3085 57.2169 47.3085 56.7585C47.3085 56.3001 47.4263 56.1375 47.6028 55.7145C47.7793 55.2914 48.016 55.6972 48.3418 55.3747L48.5263 54.9688C48.85 54.6431 48.0286 54.1859 48.4525 54.0093C48.8763 53.8327 49.0714 54.3218 49.5306 54.3213L49.8732 54.3414ZM49.4582 52.2051C48.9228 52.2034 48.3923 52.3081 47.8977 52.513C47.403 52.7179 46.8645 53.0179 46.4871 53.3977L46.3739 53.5212C45.9943 53.8944 45.7533 54.3212 45.5483 54.8125C45.3433 55.3039 45.2386 55.8313 45.2404 56.3636C45.2387 56.8991 45.3434 57.4295 45.5483 57.9242C45.7533 58.4189 46.0628 58.8203 46.4426 59.1977L46.5249 59.28L46.568 59.3276L51.4976 64.2057L51.6108 64.3292C51.7218 64.4349 51.8692 64.4939 52.0224 64.4939C52.0969 64.4942 52.1707 64.4798 52.2395 64.4516C52.3084 64.4233 52.371 64.3817 52.4238 64.3292L52.5576 64.2057L52.6193 64.1338L57.6004 59.1526C57.9801 58.7794 58.2813 58.334 58.4863 57.8427C58.6913 57.3513 58.796 56.824 58.7942 56.2916C58.7959 55.7562 58.6912 55.2258 58.4863 54.7311C58.2813 54.2364 58.0329 53.8685 57.653 53.4911L57.5398 53.3779C56.8255 52.6606 55.816 52.2926 54.8048 52.245C53.7935 52.1973 52.801 52.5342 52.0224 53.1812C51.2958 52.5712 50.407 52.2067 49.4582 52.2051Z" fill="white"/>
<path fill-rule="evenodd" clip-rule="evenodd" d="M56.6348 58.9315L52.0118 63.5544L47.2945 58.8371C46.9959 58.5414 46.7588 58.1896 46.597 57.8017C46.4352 57.4139 46.3519 56.9978 46.3519 56.5775C46.3519 56.1573 46.4352 55.7412 46.597 55.3533C46.7588 54.9655 46.9959 54.6136 47.2945 54.3179L47.3983 54.2141C47.694 53.9155 48.0459 53.6784 48.4337 53.5166C48.8216 53.3548 49.2377 53.2715 49.6579 53.2715C50.0782 53.2715 50.4942 53.3548 50.8821 53.5166C51.2699 53.6784 51.6219 53.9155 51.9175 54.2141L56.6348 58.9315Z" fill="url(#paint9_linear_166_42567)"/>
<path fill-rule="evenodd" clip-rule="evenodd" d="M51.8514 63.4035L47.3794 58.9314L52.0967 54.2141C52.6964 53.6155 53.509 53.2793 54.3563 53.2793C55.2036 53.2793 56.0163 53.6155 56.6159 54.2141L56.7291 54.3273C57.3277 54.9269 57.6639 55.7396 57.6639 56.5869C57.6639 57.4342 57.3277 58.2468 56.7291 58.8464L52.1439 63.4223C52.1008 63.4544 52.0478 63.47 51.9942 63.4666C51.9406 63.4631 51.89 63.4408 51.8514 63.4035V63.4035Z" fill="url(#paint10_linear_166_42567)"/>
<path opacity="0.15" d="M69.1967 80.6501C72.7628 80.6501 75.6516 77.7612 75.6516 74.1952C75.6516 70.6291 72.7628 67.7402 69.1967 67.7402C65.6306 67.7402 62.7418 70.6291 62.7418 74.1952C62.7503 77.7612 65.6392 80.6501 69.1967 80.6501Z" fill="#1F1D20"/>
<path d="M69.1967 79.9216C72.7628 79.9216 75.6516 77.0327 75.6516 73.4667C75.6516 69.9006 72.7628 67.0117 69.1967 67.0117C65.6306 67.0117 62.7418 69.9006 62.7418 73.4667C62.7503 77.0327 65.6392 79.9216 69.1967 79.9216Z" fill="#002D4C"/>
<path opacity="0.3" d="M72.7113 70.6465L67.3965 75.987L65.8021 74.384L64.7391 75.4555L67.3965 78.1215L73.7829 71.718L72.7113 70.6465Z" fill="#1F1D20"/>
<path d="M72.7113 70.1914L67.3965 75.5319L65.8021 73.9289L64.7391 75.0005L67.3965 77.6664L73.7829 71.2629L72.7113 70.1914Z" fill="#FAF9F8"/>
<defs>
<linearGradient id="paint0_linear_166_42567" x1="50.1489" y1="-13.5518" x2="54.1309" y2="132.218" gradientUnits="userSpaceOnUse">
<stop stop-color="#00ABDE"/>
<stop offset="1" stop-color="#007ED8"/>
</linearGradient>
<linearGradient id="paint1_linear_166_42567" x1="3.3532" y1="-20.3844" x2="98.8807" y2="120.497" gradientUnits="userSpaceOnUse">
<stop stop-color="#007ED8"/>
<stop offset="0.7065" stop-color="#002D4C"/>
</linearGradient>
<radialGradient id="paint2_radial_166_42567" cx="0" cy="0" r="1" gradientUnits="userSpaceOnUse" gradientTransform="translate(47.2416 41.4753) scale(36.3858 36.2549)">
<stop stop-color="#4DC2EB"/>
<stop offset="0.585" stop-color="#0078D4"/>
</radialGradient>
<radialGradient id="paint3_radial_166_42567" cx="0" cy="0" r="1" gradientUnits="userSpaceOnUse" gradientTransform="translate(48.1473 35.8446) scale(17.0656 16.9704)">
<stop stop-color="#4DC2EB"/>
<stop offset="0.585" stop-color="#0078D4"/>
</radialGradient>
<linearGradient id="paint4_linear_166_42567" x1="43.9833" y1="52.7874" x2="71.2586" y2="77.052" gradientUnits="userSpaceOnUse">
<stop stop-color="#FFB900"/>
<stop offset="0.17" stop-color="#EF8400"/>
<stop offset="0.31" stop-color="#E25C01"/>
<stop offset="0.43" stop-color="#DB4401"/>
<stop offset="0.5" stop-color="#D83B01"/>
</linearGradient>
<linearGradient id="paint5_linear_166_42567" x1="46.1045" y1="55.401" x2="65.9108" y2="63.4086" gradientUnits="userSpaceOnUse">
<stop stop-color="#FFB900"/>
<stop offset="0.17" stop-color="#EF8400"/>
<stop offset="0.31" stop-color="#E25C01"/>
<stop offset="0.43" stop-color="#DB4401"/>
<stop offset="0.5" stop-color="#D83B01"/>
</linearGradient>
<linearGradient id="paint6_linear_166_42567" x1="54.9933" y1="-83.6921" x2="49.3958" y2="166.325" gradientUnits="userSpaceOnUse">
<stop stop-color="#007ED8"/>
<stop offset="0.7065" stop-color="#002D4C"/>
</linearGradient>
<radialGradient id="paint7_radial_166_42567" cx="0" cy="0" r="1" gradientUnits="userSpaceOnUse" gradientTransform="translate(47.2416 41.4753) scale(36.3858 36.2549)">
<stop stop-color="#4DC2EB"/>
<stop offset="0.585" stop-color="#0078D4"/>
</radialGradient>
<radialGradient id="paint8_radial_166_42567" cx="0" cy="0" r="1" gradientUnits="userSpaceOnUse" gradientTransform="translate(48.1473 35.8446) scale(17.0656 16.9704)">
<stop stop-color="#4DC2EB"/>
<stop offset="0.585" stop-color="#0078D4"/>
</radialGradient>
<linearGradient id="paint9_linear_166_42567" x1="43.9833" y1="52.7874" x2="71.2586" y2="77.052" gradientUnits="userSpaceOnUse">
<stop stop-color="#FFB900"/>
<stop offset="0.17" stop-color="#EF8400"/>
<stop offset="0.31" stop-color="#E25C01"/>
<stop offset="0.43" stop-color="#DB4401"/>
<stop offset="0.5" stop-color="#D83B01"/>
</linearGradient>
<linearGradient id="paint10_linear_166_42567" x1="46.1045" y1="55.401" x2="65.9108" y2="63.4086" gradientUnits="userSpaceOnUse">
<stop stop-color="#FFB900"/>
<stop offset="0.17" stop-color="#EF8400"/>
<stop offset="0.31" stop-color="#E25C01"/>
<stop offset="0.43" stop-color="#DB4401"/>
<stop offset="0.5" stop-color="#D83B01"/>
</linearGradient>
</defs>
</svg>
