<svg width="103" height="103" viewBox="0 0 103 103" fill="none" xmlns="http://www.w3.org/2000/svg">
<path d="M51.9374 98.3109C26.0874 98.3109 5.12744 77.3609 5.12744 51.5009C5.12744 25.6409 26.0874 4.69092 51.9374 4.69092C77.7874 4.69092 98.7474 25.6509 98.7474 51.5009C98.7474 77.3509 77.7874 98.3109 51.9374 98.3109Z" fill="url(#paint0_linear)"/>
<path fill-rule="evenodd" clip-rule="evenodd" d="M97.8374 51.5011C97.8374 76.8511 77.2874 97.4011 51.9374 97.4011C26.5874 97.4011 6.03736 76.8511 6.03736 51.5011C6.03736 26.1511 26.5874 5.60108 51.9374 5.60108C77.2874 5.60108 97.8374 26.1511 97.8374 51.5011ZM51.9374 1.86108C79.3574 1.86108 101.577 24.0811 101.577 51.5011C101.577 78.9211 79.3474 101.141 51.9374 101.141C24.5174 101.141 2.29736 78.9111 2.29736 51.5011C2.29736 24.0811 24.5174 1.86108 51.9374 1.86108Z" fill="#F2F1F0"/>
<path fill-rule="evenodd" clip-rule="evenodd" d="M95.0274 51.5009C95.0274 75.3009 75.7374 94.5909 51.9374 94.5909C28.1374 94.5909 8.84742 75.3009 8.84742 51.5009C8.84742 27.7009 28.1374 8.4109 51.9374 8.4109C75.7374 8.4109 95.0274 27.7009 95.0274 51.5009ZM51.9374 4.6709C77.7974 4.6709 98.7674 25.6409 98.7674 51.5009C98.7674 77.3609 77.7974 98.3309 51.9374 98.3309C26.0774 98.3309 5.10742 77.3609 5.10742 51.5009C5.10742 25.6409 26.0674 4.6709 51.9374 4.6709Z" fill="url(#paint1_linear)"/>
<path opacity="0.15" d="M72.7875 26.021L62.8775 16.791C62.6275 16.551 62.2075 16.681 62.1275 17.011L61.1675 21.281L60.5775 21.131C46.5975 17.381 31.4975 22.691 23.6175 34.841C18.9375 42.051 17.3475 50.491 18.7675 58.521H23.1375C21.7075 51.421 22.9175 43.841 26.9275 37.471C33.6475 26.801 46.8275 21.721 58.9875 25.101L60.2275 25.441L59.0975 30.381C59.0175 30.721 59.3275 31.011 59.6575 30.921L72.4975 27.241C73.0275 27.071 73.1875 26.401 72.7875 26.021Z" fill="#1F1D20"/>
<path opacity="0.15" d="M45.4673 80.9911C57.1573 83.4011 69.2773 78.2611 75.6473 68.1711C81.7573 58.4711 81.5373 46.0811 75.0773 36.6111C74.9473 36.4111 74.9773 36.2011 75.0173 36.1111C75.0473 36.0311 75.1473 35.8111 75.4073 35.7311L76.8873 35.2811C78.0673 34.9311 79.3773 35.4611 79.9873 36.5611C85.9773 47.1511 85.6773 60.1311 79.1873 70.4311C71.8773 82.0311 57.9173 87.9111 44.4473 85.0511L43.1473 84.771L42.0073 89.6211C41.9273 89.9511 41.5073 90.0911 41.2673 89.8511L31.4673 80.8111C31.0573 80.4311 31.2173 79.7711 31.7473 79.6211L44.5473 75.8211C44.8773 75.7211 45.1973 76.0211 45.1173 76.3611L44.0873 80.7211L45.4673 80.9911Z" fill="#1F1D20"/>
<path d="M46.1373 79.921C57.8273 82.331 69.9473 77.191 76.3173 67.101C82.4273 57.401 82.2073 45.011 75.7473 35.541C75.6173 35.341 75.6473 35.131 75.6873 35.041C75.7173 34.961 75.8173 34.741 76.0773 34.661L77.5573 34.211C78.7373 33.861 80.0473 34.391 80.6573 35.491C86.6573 46.071 86.3473 59.051 79.8573 69.351C72.5473 80.951 58.5873 86.831 45.1273 83.961L43.8273 83.691L42.6873 88.541C42.6073 88.871 42.1873 89.011 41.9473 88.771L32.1573 79.731C31.7473 79.351 31.9073 78.691 32.4373 78.541L45.2373 74.741C45.5673 74.641 45.8873 74.941 45.8073 75.281L44.7773 79.641L46.1373 79.921Z" fill="#F2F1F0"/>
<path d="M73.4575 24.961L63.5475 15.741C63.2975 15.501 62.8775 15.631 62.7975 15.961L61.8375 20.231L61.2475 20.081C47.2675 16.331 32.1675 21.651 24.2975 33.781C19.7075 40.851 18.0975 49.111 19.3875 57.011H23.7275C22.4375 50.041 23.6675 42.641 27.5975 36.401C34.3175 25.741 47.5075 20.651 59.6475 24.041L60.8875 24.381L59.7575 29.321C59.6775 29.661 59.9875 29.951 60.3175 29.861L73.1575 26.181C73.6975 26.001 73.8575 25.341 73.4575 24.961Z" fill="#F2F1F0"/>
<path opacity="0.15" d="M81.0974 75.5309C85.2574 75.5309 88.6274 72.1609 88.6274 68.0009C88.6274 63.8409 85.2574 60.4709 81.0974 60.4709C76.9374 60.4709 73.5674 63.8409 73.5674 68.0009C73.5774 72.1609 76.9474 75.5309 81.0974 75.5309Z" fill="#1F1D20"/>
<path opacity="0.15" d="M82.2775 71.7208H57.2675C56.6975 71.7208 56.2275 71.2508 56.2275 70.6808V36.3808C56.2275 35.5308 56.9175 34.8408 57.7675 34.8408H84.7475C85.4775 34.8408 86.0575 35.4308 86.0575 36.1508V67.9208C86.0775 70.0208 84.3775 71.7208 82.2775 71.7208Z" fill="#1F1D20"/>
<path d="M82.2775 70.5809H57.2675C56.6975 70.5809 56.2275 70.1109 56.2275 69.5409V35.2409C56.2275 34.3909 56.9175 33.7009 57.7675 33.7009H84.7475C85.4775 33.7009 86.0575 34.2909 86.0575 35.0109V66.7809C86.0775 68.8809 84.3775 70.5809 82.2775 70.5809Z" fill="white"/>
<path d="M81.1676 47.471C81.1676 46.941 80.7376 46.511 80.2076 46.511H61.7876C61.2576 46.511 60.8276 46.941 60.8276 47.471C60.8276 48.001 61.2576 48.431 61.7876 48.431H80.2076C80.7376 48.431 81.1676 48.001 81.1676 47.471Z" fill="#9D9E9D"/>
<path d="M81.1676 52.6609C81.1676 52.1309 80.7376 51.7009 80.2076 51.7009H61.7876C61.2576 51.7009 60.8276 52.1309 60.8276 52.6609C60.8276 53.1909 61.2576 53.6209 61.7876 53.6209H80.2076C80.7376 53.6209 81.1676 53.1909 81.1676 52.6609Z" fill="#9D9E9D"/>
<path d="M80.2076 40.9709H61.7876C61.2576 40.9709 60.8276 41.4009 60.8276 41.9309C60.8276 42.4609 61.2576 42.8909 61.7876 42.8909H80.2076C80.7376 42.8909 81.1676 42.4609 81.1676 41.9309C81.1676 41.4009 80.7376 40.9709 80.2076 40.9709Z" fill="#9D9E9D"/>
<path d="M81.0974 74.581C85.2574 74.581 88.6274 71.211 88.6274 67.051C88.6274 62.891 85.2574 59.521 81.0974 59.521C76.9374 59.521 73.5674 62.891 73.5674 67.051C73.5774 71.211 76.9474 74.581 81.0974 74.581Z" fill="#002D4C"/>
<path d="M85.1975 63.231L78.9975 69.461L77.1375 67.591L75.8975 68.841L78.9975 71.951L86.4475 64.481L85.1975 63.231Z" fill="#FAF9F8"/>
<path opacity="0.15" d="M51.0674 50.561C51.0674 50.151 50.7374 49.821 50.3274 49.821C50.0574 49.821 48.3974 49.671 47.5074 48.981C47.5074 48.981 47.5174 48.971 47.5074 48.981C47.1674 47.751 46.6774 46.601 46.0674 45.511C45.9074 44.481 46.9774 43.731 47.4674 42.921C47.5574 42.781 47.6074 42.701 47.6374 42.641C47.7274 42.381 47.6774 42.081 47.4674 41.871C47.4674 41.871 46.6474 40.701 45.8074 39.861C44.9674 39.021 43.6874 38.091 43.6874 38.091C43.3974 37.801 42.9274 37.801 42.6374 38.091C42.4474 38.281 41.1774 39.321 40.0374 39.491C40.0174 39.491 40.0174 39.491 40.0174 39.491C38.9574 38.891 37.7674 38.401 36.5774 38.061H36.5574C35.7174 37.441 35.9374 36.161 35.7174 35.241C35.7174 34.831 35.3874 34.501 34.9774 34.501C34.9774 34.501 33.5674 34.251 32.3774 34.251C31.1874 34.251 29.6274 34.501 29.6274 34.501C29.2174 34.501 28.8874 34.831 28.8874 35.241C28.8874 35.511 28.7374 37.171 28.0474 38.061C26.8674 38.391 25.6274 38.921 24.5774 39.501C23.5474 39.661 22.7974 38.591 21.9874 38.101C21.8474 38.011 21.7674 37.961 21.7074 37.931C21.4474 37.841 21.1474 37.891 20.9374 38.101C20.9374 38.101 19.7674 38.921 18.9274 39.761C18.0874 40.601 17.1574 41.881 17.1574 41.881C16.8674 42.171 16.8674 42.641 17.1574 42.931C17.3474 43.121 18.4174 44.401 18.5574 45.521V45.531C17.9774 46.581 17.4574 47.811 17.1274 48.991C17.1274 48.991 17.1474 48.971 17.1274 48.991C16.4074 49.871 15.2274 49.611 14.3074 49.831C13.8974 49.831 13.5674 50.161 13.5674 50.571C13.5674 50.571 13.3174 51.981 13.3174 53.171C13.3174 54.361 13.5674 55.921 13.5674 55.921C13.5674 56.331 13.8974 56.661 14.3074 56.661C14.5774 56.661 16.2374 56.811 17.1274 57.501C17.1474 57.491 17.1374 57.521 17.1374 57.521C17.4774 58.701 17.9674 59.891 18.5674 60.941C18.5574 60.961 18.5674 60.941 18.5774 60.981C18.6774 62.061 17.6674 62.761 17.1774 63.571C17.0874 63.711 17.0374 63.791 17.0074 63.851C16.9174 64.111 16.9674 64.411 17.1774 64.621C17.1774 64.621 17.9974 65.791 18.8374 66.631C19.6774 67.471 20.9574 68.401 20.9574 68.401C21.2474 68.691 21.7174 68.691 22.0074 68.401C22.1974 68.211 23.4774 67.141 24.5974 67.001C24.5974 67.001 24.5874 67.011 24.6174 67.011C25.6974 67.611 26.8074 68.081 28.0274 68.421C28.0374 68.431 28.0774 68.441 28.0774 68.441C28.9174 69.061 28.6974 70.341 28.9174 71.261C28.9674 71.671 29.1874 71.941 29.6574 72.001C29.6574 72.001 31.0674 72.251 32.2574 72.251C33.4474 72.251 35.0074 72.011 35.0074 72.011C35.4174 71.941 35.7474 71.681 35.7474 71.271C35.7474 71.001 35.8974 69.341 36.5874 68.451C36.5874 68.451 36.6174 68.421 36.6474 68.401C37.8874 68.051 38.8274 67.671 39.9274 67.041C39.9874 67.021 39.9174 67.021 40.0574 67.001C41.0874 66.841 41.8374 67.911 42.6474 68.401C42.7874 68.491 42.8674 68.541 42.9274 68.571C43.1874 68.661 43.4874 68.611 43.6974 68.401C43.6974 68.401 44.8674 67.581 45.7074 66.741C46.5474 65.901 47.4774 64.621 47.4774 64.621C47.7674 64.331 47.7674 63.861 47.4774 63.571C47.2874 63.381 46.2174 62.101 46.0774 60.981C46.0574 60.861 46.0674 60.851 46.0874 60.821C46.7074 59.721 47.1074 58.911 47.4474 57.661C47.4474 57.661 47.4274 57.621 47.5174 57.511C48.1374 56.671 49.4174 56.891 50.3374 56.671C50.7474 56.671 51.0774 56.341 51.0774 55.931C51.0774 55.931 51.3274 54.521 51.3274 53.331C51.3074 52.121 51.0674 50.561 51.0674 50.561Z" fill="#1F1D20"/>
<path d="M51.0674 49.551C51.0674 49.141 50.7374 48.811 50.3274 48.811C50.0574 48.811 48.3974 48.661 47.5074 47.971C47.5074 47.971 47.5174 47.961 47.5074 47.971C47.1674 46.741 46.6774 45.591 46.0674 44.501C45.9074 43.471 46.9774 42.721 47.4674 41.911C47.5574 41.771 47.6074 41.691 47.6374 41.631C47.7274 41.371 47.6774 41.071 47.4674 40.861C47.4674 40.861 46.6474 39.691 45.8074 38.851C44.9674 38.011 43.6874 37.081 43.6874 37.081C43.3974 36.791 42.9274 36.791 42.6374 37.081C42.4474 37.271 41.1774 38.311 40.0374 38.481C40.0174 38.481 40.0174 38.481 40.0174 38.481C38.9574 37.881 37.7674 37.391 36.5774 37.051H36.5574C35.7174 36.431 35.9374 35.151 35.7174 34.231C35.7174 33.821 35.3874 33.491 34.9774 33.491C34.9774 33.491 33.5674 33.241 32.3774 33.241C31.1874 33.241 29.6274 33.491 29.6274 33.491C29.2174 33.491 28.8874 33.821 28.8874 34.231C28.8874 34.501 28.7374 36.161 28.0474 37.051C26.8674 37.381 25.6274 37.911 24.5774 38.491C23.5474 38.651 22.7974 37.581 21.9874 37.091C21.8474 37.001 21.7674 36.951 21.7074 36.921C21.4474 36.831 21.1474 36.881 20.9374 37.091C20.9374 37.091 19.7674 37.911 18.9274 38.751C18.0874 39.591 17.1574 40.871 17.1574 40.871C16.8674 41.161 16.8674 41.631 17.1574 41.921C17.3474 42.111 18.4174 43.391 18.5574 44.511V44.521C17.9774 45.571 17.4574 46.801 17.1274 47.981C17.1274 47.981 17.1474 47.961 17.1274 47.981C16.4074 48.861 15.2274 48.601 14.3074 48.821C13.8974 48.821 13.5674 49.151 13.5674 49.561C13.5674 49.561 13.3174 50.971 13.3174 52.161C13.3174 53.351 13.5674 54.911 13.5674 54.911C13.5674 55.321 13.8974 55.651 14.3074 55.651C14.5774 55.651 16.2374 55.801 17.1274 56.491C17.1474 56.481 17.1374 56.511 17.1374 56.511C17.4774 57.691 17.9674 58.881 18.5674 59.931C18.5574 59.951 18.5674 59.931 18.5774 59.971C18.6774 61.051 17.6674 61.751 17.1774 62.561C17.0874 62.701 17.0374 62.781 17.0074 62.841C16.9174 63.101 16.9674 63.401 17.1774 63.611C17.1774 63.611 17.9974 64.781 18.8374 65.621C19.6774 66.461 20.9574 67.391 20.9574 67.391C21.2474 67.681 21.7174 67.681 22.0074 67.391C22.1974 67.201 23.4774 66.131 24.5974 65.991C24.5974 65.991 24.5874 66.001 24.6174 66.001C25.6974 66.601 26.8074 67.071 28.0274 67.411C28.0374 67.421 28.0774 67.431 28.0774 67.431C28.9174 68.051 28.6974 69.331 28.9174 70.251C28.9674 70.661 29.1874 70.931 29.6574 70.991C29.6574 70.991 31.0674 71.241 32.2574 71.241C33.4474 71.241 35.0074 71.001 35.0074 71.001C35.4174 70.931 35.7474 70.671 35.7474 70.261C35.7474 69.991 35.8974 68.331 36.5874 67.441C36.5874 67.441 36.6174 67.411 36.6474 67.391C37.8874 67.041 38.8274 66.661 39.9274 66.031C39.9874 66.011 39.9174 66.011 40.0574 65.991C41.0874 65.831 41.8374 66.901 42.6474 67.391C42.7874 67.481 42.8674 67.531 42.9274 67.561C43.1874 67.651 43.4874 67.601 43.6974 67.391C43.6974 67.391 44.8674 66.571 45.7074 65.731C46.5474 64.891 47.4774 63.611 47.4774 63.611C47.7674 63.321 47.7674 62.851 47.4774 62.561C47.2874 62.371 46.2174 61.091 46.0774 59.971C46.0574 59.851 46.0674 59.841 46.0874 59.811C46.7074 58.711 47.1074 57.901 47.4474 56.651C47.4474 56.651 47.4274 56.611 47.5174 56.501C48.1374 55.661 49.4174 55.881 50.3374 55.661C50.7474 55.661 51.0774 55.331 51.0774 54.921C51.0774 54.921 51.3274 53.511 51.3274 52.321C51.3074 51.111 51.0674 49.551 51.0674 49.551Z" fill="#002D4C"/>
<path opacity="0.15" fill-rule="evenodd" clip-rule="evenodd" d="M31.5977 58.101V45.111C31.5977 44.791 31.5077 44.491 31.3577 44.231C31.3377 44.191 31.3177 44.161 31.2977 44.121C31.2977 44.121 31.2977 44.121 31.2977 44.111C30.9077 43.451 30.1977 43.001 29.3777 43.001C28.2477 43.001 27.3177 43.841 27.1677 44.921C27.0577 44.911 26.9577 44.901 26.8477 44.901C25.0977 44.901 23.6877 46.321 23.6877 48.071C23.6877 48.341 23.7277 48.601 23.7877 48.851C22.6277 50.141 21.9077 51.841 21.9077 53.721C21.9077 56.821 23.8677 59.471 26.5977 60.501C26.6077 60.541 26.6077 60.571 26.6177 60.611C26.8577 61.861 27.8577 62.861 29.1077 63.101C29.7977 63.231 30.4577 63.141 31.0277 62.891C31.3677 62.741 31.5877 62.411 31.5877 62.031V58.101H31.5977Z" fill="#1F1D20"/>
<path opacity="0.15" fill-rule="evenodd" clip-rule="evenodd" d="M33.0479 58.101V45.111C33.0479 44.791 33.1378 44.491 33.2878 44.231C33.3078 44.191 33.3279 44.161 33.3479 44.121C33.3479 44.121 33.3479 44.121 33.3479 44.111C33.7379 43.451 34.4479 43.001 35.2679 43.001C36.3979 43.001 37.3279 43.841 37.4779 44.921C37.5779 44.911 37.6778 44.901 37.7878 44.901C39.5378 44.901 40.9478 46.321 40.9478 48.071C40.9478 48.341 40.9079 48.601 40.8479 48.851C42.0079 50.141 42.7279 51.841 42.7279 53.721C42.7279 56.821 40.7678 59.471 38.0378 60.501C38.0278 60.541 38.0279 60.571 38.0179 60.611C37.7779 61.861 36.7779 62.861 35.5279 63.101C34.8379 63.231 34.1778 63.141 33.6078 62.891C33.2678 62.741 33.0479 62.411 33.0479 62.031V58.101Z" fill="#1F1D20"/>
<path fill-rule="evenodd" clip-rule="evenodd" d="M31.5977 57.2709V44.2809C31.5977 43.9609 31.5077 43.6609 31.3577 43.4009C31.3377 43.3609 31.3177 43.3309 31.2977 43.2909C31.2977 43.2909 31.2977 43.2909 31.2977 43.2809C30.9077 42.6209 30.1877 42.1709 29.3677 42.1709C28.2377 42.1709 27.3077 43.0109 27.1577 44.0909C27.0577 44.0809 26.9577 44.0709 26.8477 44.0709C25.0977 44.0709 23.6877 45.4909 23.6877 47.2409C23.6877 47.5109 23.7277 47.7709 23.7877 48.0209C22.6277 49.3109 21.9077 51.0109 21.9077 52.8909C21.9077 55.9909 23.8677 58.6409 26.5977 59.6709C26.6077 59.7109 26.6077 59.7409 26.6177 59.7809C26.8577 61.0309 27.8577 62.0309 29.1077 62.2709C29.7977 62.4009 30.4577 62.3109 31.0277 62.0609C31.3677 61.9109 31.5877 61.5809 31.5877 61.2009V57.2709H31.5977Z" fill="url(#paint2_linear)"/>
<path fill-rule="evenodd" clip-rule="evenodd" d="M33.0479 57.2709V44.2809C33.0479 43.9609 33.1378 43.6609 33.2878 43.4009C33.3078 43.3609 33.3279 43.3309 33.3479 43.2909C33.3479 43.2909 33.3479 43.2909 33.3479 43.2809C33.7379 42.6209 34.4579 42.1709 35.2779 42.1709C36.4079 42.1709 37.3379 43.0109 37.4879 44.0909C37.5879 44.0809 37.6879 44.0709 37.7979 44.0709C39.5479 44.0709 40.9579 45.4909 40.9579 47.2409C40.9579 47.5109 40.9178 47.7709 40.8578 48.0209C42.0178 49.3109 42.7379 51.0109 42.7379 52.8909C42.7379 55.9909 40.7779 58.6409 38.0479 59.6709C38.0379 59.7109 38.0379 59.7409 38.0279 59.7809C37.7879 61.0309 36.7878 62.0309 35.5378 62.2709C34.8478 62.4009 34.1879 62.3109 33.6179 62.0609C33.2779 61.9109 33.0578 61.5809 33.0578 61.2009L33.0479 57.2709Z" fill="url(#paint3_linear)"/>
<defs>
<linearGradient id="paint0_linear" x1="50.1675" y1="-13.2882" x2="54.1495" y2="132.482" gradientUnits="userSpaceOnUse">
<stop stop-color="#00ABDE"/>
<stop offset="1" stop-color="#007ED8"/>
</linearGradient>
<linearGradient id="paint1_linear" x1="3.37062" y1="-20.1241" x2="98.8986" y2="120.758" gradientUnits="userSpaceOnUse">
<stop stop-color="#007ED8"/>
<stop offset="0.7065" stop-color="#002D4C"/>
</linearGradient>
<linearGradient id="paint2_linear" x1="26.7531" y1="62.3378" x2="26.7531" y2="42.1728" gradientUnits="userSpaceOnUse">
<stop stop-color="#D2EBFF"/>
<stop offset="1" stop-color="#F0FFFD"/>
</linearGradient>
<linearGradient id="paint3_linear" x1="37.8848" y1="62.3378" x2="37.8848" y2="42.1728" gradientUnits="userSpaceOnUse">
<stop stop-color="#D2EBFF"/>
<stop offset="1" stop-color="#F0FFFD"/>
</linearGradient>
</defs>
</svg>
