<svg width="100" height="100" viewBox="0 0 100 100" fill="none" xmlns="http://www.w3.org/2000/svg">
<g clip-path="url(#clip0)">
<path d="M49.1926 96.4501C39.9344 96.4501 30.8842 93.7047 23.1863 88.5612C15.4885 83.4176 9.48873 76.1069 5.94579 67.5535C2.40285 59.0001 1.47586 49.5882 3.28203 40.5079C5.0882 31.4277 9.54643 23.0869 16.0929 16.5404C22.6394 9.99393 30.9802 5.53571 40.0604 3.72954C49.1407 1.92337 58.5526 2.85036 67.106 6.3933C75.6594 9.93624 82.9701 15.936 88.1137 23.6339C93.2572 31.3317 96.0026 40.382 96.0026 49.6401C96.003 55.7874 94.7925 61.8746 92.4403 67.554C90.088 73.2335 86.64 78.3939 82.2932 82.7407C77.9464 87.0875 72.7859 90.5355 67.1065 92.8878C61.4271 95.24 55.3399 96.4505 49.1926 96.4501V96.4501Z" fill="url(#paint0_linear)"/>
<path fill-rule="evenodd" clip-rule="evenodd" d="M95.5402 49.7103C95.5402 58.7885 92.8483 67.6628 87.8047 75.211C82.7611 82.7592 75.5925 88.6423 67.2054 92.1164C58.8183 95.5904 49.5893 96.4994 40.6856 94.7284C31.7819 92.9573 23.6033 88.5857 17.184 82.1665C10.7648 75.7473 6.39326 67.5687 4.6222 58.665C2.85114 49.7612 3.76011 40.5323 7.23417 32.1451C10.7082 23.758 16.5914 16.5894 24.1396 11.5459C31.6878 6.5023 40.5621 3.81031 49.6402 3.81031C55.6679 3.81029 61.6366 4.99751 67.2054 7.3042C72.7743 9.61088 77.8343 12.9918 82.0965 17.2541C86.3587 21.5163 89.7397 26.5763 92.0464 32.1451C94.353 37.714 95.5403 43.6826 95.5402 49.7103V49.7103ZM49.6402 0.0703125C59.4581 0.0703125 69.0555 2.98165 77.2188 8.43616C85.382 13.8907 91.7445 21.6434 95.5016 30.7139C99.2588 39.7844 100.242 49.7654 98.3264 59.3946C96.4111 69.0238 91.6833 77.8688 84.741 84.8111C77.7987 91.7534 68.9537 96.4811 59.3245 98.3965C49.6953 100.312 39.7144 99.3288 30.6438 95.5717C21.5733 91.8146 13.8206 85.4521 8.36609 77.2888C2.91158 69.1256 0.000244502 59.5282 0.000244502 49.7103C-0.000542285 43.1913 1.2829 36.7359 3.77726 30.713C6.27163 24.69 9.92805 19.2174 14.5377 14.6078C19.1474 9.99812 24.62 6.3417 30.6429 3.84734C36.6659 1.35297 43.1212 0.0695344 49.6402 0.0703225V0.0703125Z" fill="#F2F1F0"/>
<path fill-rule="evenodd" clip-rule="evenodd" d="M78.7131 65.2792C78.7103 66.2422 78.3265 67.1649 77.6456 67.8458C76.9647 68.5267 76.042 68.9105 75.079 68.9133H24.2015C23.2385 68.9105 22.3158 68.5267 21.6349 67.8458C20.954 67.1649 20.5702 66.2422 20.5674 65.2792V30.7552C20.57 29.7922 20.9538 28.8694 21.6347 28.1884C22.3157 27.5075 23.2385 27.1238 24.2015 27.1211H64.1767L78.7131 41.6575V65.2792Z" fill="white"/>
<path fill-rule="evenodd" clip-rule="evenodd" d="M64.1768 38.0234V27.1211L78.7132 41.6575H67.8109C66.8479 41.6547 65.9252 41.2709 65.2443 40.59C64.5634 39.9091 64.1796 38.9864 64.1768 38.0234V38.0234Z" fill="#E8E8E8"/>
<path opacity="0.5" fill-rule="evenodd" clip-rule="evenodd" d="M67.8108 41.6582L78.7131 52.5605V41.6582H67.8108Z" fill="#F2F2F2"/>
<path d="M27.5377 50.9367C27.1412 50.9367 26.7609 50.7792 26.4806 50.4988C26.2002 50.2185 26.0427 49.8382 26.0427 49.4417V49.4417C26.032 49.3837 26.032 49.3243 26.0427 49.2664C26.6407 44.5544 29.3112 40.7188 34.4666 40.7188C39.622 40.7188 42.3646 43.9666 42.8905 49.2767C42.9117 49.4732 42.894 49.672 42.8384 49.8618C42.7829 50.0515 42.6904 50.2284 42.5665 50.3824C42.4425 50.5364 42.2895 50.6644 42.116 50.7593C41.9425 50.8541 41.7521 50.9139 41.5556 50.9351L41.5398 50.9367H27.5377Z" fill="url(#paint1_linear)"/>
<path d="M34.4665 41.8328C35.3734 41.832 36.2609 41.5708 37.0236 41.0801L34.4665 47.6996L31.9507 41.1213C32.7045 41.5931 33.5773 41.8399 34.4665 41.8328Z" fill="url(#paint2_linear)"/>
<path d="M34.4562 41.8236C37.0643 41.8236 39.1785 39.7093 39.1785 37.1012C39.1785 34.4932 37.0643 32.3789 34.4562 32.3789C31.8481 32.3789 29.7339 34.4932 29.7339 37.1012C29.7339 39.7093 31.8481 41.8236 34.4562 41.8236Z" fill="url(#paint3_linear)"/>
<path fill-rule="evenodd" clip-rule="evenodd" d="M47.8233 42.5365H59.3172C59.7984 42.5353 60.2595 42.3434 60.5993 42.0027C60.9392 41.6621 61.13 41.2006 61.13 40.7194C61.13 40.2382 60.9392 39.7767 60.5993 39.4361C60.2595 39.0954 59.7984 38.9035 59.3172 38.9023H47.8233C47.3421 38.9035 46.881 39.0954 46.5412 39.4361C46.2014 39.7767 46.0105 40.2382 46.0105 40.7194C46.0105 41.2006 46.2014 41.6621 46.5412 42.0027C46.881 42.3434 47.3421 42.5353 47.8233 42.5365V42.5365Z" fill="#0078D4"/>
<path fill-rule="evenodd" clip-rule="evenodd" d="M47.8233 48.9115H59.3172C59.7984 48.9103 60.2595 48.7184 60.5993 48.3777C60.9392 48.0371 61.13 47.5756 61.13 47.0944C61.13 46.6132 60.9392 46.1517 60.5993 45.8111C60.2595 45.4704 59.7984 45.2785 59.3172 45.2773H47.8233C47.3421 45.2785 46.881 45.4704 46.5412 45.8111C46.2014 46.1517 46.0105 46.6132 46.0105 47.0944C46.0105 47.5756 46.2014 48.0371 46.5412 48.3777C46.881 48.7184 47.3421 48.9103 47.8233 48.9115V48.9115Z" fill="#50E6FF"/>
<path fill-rule="evenodd" clip-rule="evenodd" d="M28.1314 57.8509H71.4449C71.926 57.8498 72.3871 57.6578 72.727 57.3172C73.0668 56.9766 73.2577 56.515 73.2577 56.0339C73.2577 55.5527 73.0668 55.0911 72.727 54.7505C72.3871 54.4099 71.926 54.2179 71.4449 54.2168H28.1314C27.6502 54.2179 27.1891 54.4099 26.8493 54.7505C26.5095 55.0911 26.3186 55.5527 26.3186 56.0339C26.3186 56.515 26.5095 56.9766 26.8493 57.3172C27.1891 57.6578 27.6502 57.8498 28.1314 57.8509V57.8509Z" fill="#9CEBFF"/>
<path fill-rule="evenodd" clip-rule="evenodd" d="M28.1314 64.6126H71.4449C71.926 64.6115 72.3871 64.4196 72.727 64.0789C73.0668 63.7383 73.2577 63.2767 73.2577 62.7956C73.2577 62.3144 73.0668 61.8529 72.727 61.5122C72.3871 61.1716 71.926 60.9796 71.4449 60.9785H28.1314C27.6502 60.9796 27.1891 61.1716 26.8493 61.5122C26.5095 61.8529 26.3186 62.3144 26.3186 62.7956C26.3186 63.2767 26.5095 63.7383 26.8493 64.0789C27.1891 64.4196 27.6502 64.6115 28.1314 64.6126V64.6126Z" fill="#C3F1FF"/>
<path opacity="0.5" fill-rule="evenodd" clip-rule="evenodd" d="M75.053 63.8679C75.053 66.2279 74.3532 68.535 73.042 70.4972C71.7309 72.4595 69.8673 73.9889 67.687 74.892C65.5066 75.7952 63.1074 76.0315 60.7927 75.571C58.4781 75.1106 56.3519 73.9742 54.6832 72.3054C53.0144 70.6366 51.8779 68.5105 51.4175 66.1958C50.9571 63.8812 51.1934 61.482 52.0965 59.3016C52.9997 57.1213 54.5291 55.2577 56.4913 53.9465C58.4536 52.6354 60.7606 51.9355 63.1206 51.9355C66.2852 51.9357 69.3202 53.1929 71.5579 55.4306C73.7957 57.6684 75.0529 60.7033 75.053 63.8679V63.8679Z" fill="#C7E7F1"/>
<path fill-rule="evenodd" clip-rule="evenodd" d="M51.1883 63.8667C51.1883 61.5067 51.8881 59.1997 53.1993 57.2374C54.5104 55.2751 56.374 53.7457 58.5543 52.8426C60.7347 51.9394 63.1339 51.7031 65.4486 52.1635C67.7632 52.6239 69.8894 53.7604 71.5582 55.4292C73.2269 57.0979 74.3634 59.2241 74.8238 61.5387C75.2842 63.8534 75.0479 66.2526 74.1448 68.433C73.2416 70.6133 71.7122 72.4769 69.75 73.7881C67.7877 75.0992 65.4807 75.799 63.1207 75.799C59.957 75.7959 56.9237 74.5378 54.6866 72.3007C52.4495 70.0636 51.1914 67.0304 51.1883 63.8667V63.8667ZM79.9652 78.8391L74.3239 73.1931C76.7325 70.3037 77.9345 66.5968 77.6797 62.8437C77.4249 59.0905 75.7329 55.5801 72.9558 53.0427C70.1786 50.5054 66.5302 49.1363 62.7693 49.2205C59.0085 49.3046 55.4249 50.8354 52.764 53.4945C50.1031 56.1535 48.5699 59.7361 48.4831 63.4968C48.3964 67.2576 49.7629 70.907 52.2984 73.6859C54.8339 76.4648 58.3431 78.1591 62.0961 78.4165C65.849 78.6739 69.5567 77.4745 72.4479 75.0679L78.0959 80.7139L79.9652 78.8391Z" fill="#30404D"/>
<path fill-rule="evenodd" clip-rule="evenodd" d="M61.0528 78.3084C64.7586 78.8397 68.5266 77.9223 71.5732 75.7469C71.8272 75.5659 72.1371 75.4809 72.4479 75.507C72.7587 75.5331 73.0501 75.6686 73.2703 75.8894L77.155 79.7781H79.031L71.5534 72.3017C70.4463 73.4112 69.1314 74.2916 67.6839 74.8926C66.2364 75.4936 64.6846 75.8033 63.1173 75.8041C61.5499 75.8049 59.9978 75.4968 58.5497 74.8973C57.1015 74.2978 55.7857 73.4188 54.6775 72.3104C53.5694 71.2021 52.6905 69.8861 52.0913 68.4379C51.492 66.9896 51.1841 65.4375 51.1852 63.8702C51.1862 62.3028 51.4962 60.7511 52.0974 59.3036C52.6986 57.8562 53.5792 56.5415 54.6889 55.4346L52.8129 53.5605C50.8957 55.4739 49.5495 57.8837 48.9254 60.5194C48.3013 63.1552 48.424 65.9127 49.2797 68.4827C50.1353 71.0526 51.6902 73.3333 53.7697 75.0688C55.8493 76.8044 58.3713 77.9262 61.0529 78.3084H61.0528Z" fill="#182A37"/>
<path fill-rule="evenodd" clip-rule="evenodd" d="M78.7086 84.9104L75.4507 81.6516C75.196 81.3955 75.053 81.049 75.053 80.6878C75.053 80.3265 75.196 79.98 75.4507 79.7239L78.9774 76.1985C79.2338 75.9438 79.5805 75.8008 79.9419 75.8008C80.3034 75.8008 80.6501 75.9438 80.9065 76.1985L84.04 79.3329L78.7086 84.9104Z" fill="#0078D4"/>
<path fill-rule="evenodd" clip-rule="evenodd" d="M81.3736 82.1214L78.971 79.7203C78.8484 79.5973 78.7027 79.4996 78.5423 79.433C78.3819 79.3663 78.2099 79.332 78.0363 79.332C77.8626 79.332 77.6906 79.3663 77.5302 79.433C77.3698 79.4996 77.2241 79.5973 77.1016 79.7203L75.325 81.4956V81.5241L78.709 84.9092L81.3736 82.1214Z" fill="#1F56A3"/>
<path opacity="0.2" fill-rule="evenodd" clip-rule="evenodd" d="M70.1218 54.2168C71.7922 56.5129 72.5881 59.33 72.366 62.1608C72.144 64.9915 70.9186 67.65 68.9106 69.6576C66.9025 71.6652 64.2437 72.8899 61.4129 73.1113C58.5821 73.3327 55.7652 72.5362 53.4695 70.8652C54.4809 72.2631 55.7837 73.4249 57.2879 74.2703C58.7922 75.1157 60.4619 75.6246 62.182 75.7618C63.902 75.8989 65.6313 75.6612 67.2505 75.0649C68.8697 74.4686 70.3402 73.528 71.5604 72.3081C72.7807 71.0881 73.7216 69.6179 74.3183 67.9988C74.9149 66.3797 75.1531 64.6505 75.0163 62.9304C74.8795 61.2104 74.3711 59.5405 73.526 58.0361C72.681 56.5317 71.5195 55.2286 70.1218 54.2168Z" fill="#ABDCEC"/>
<path fill-rule="evenodd" clip-rule="evenodd" d="M92.2821 49.6386C92.2821 58.161 89.7549 66.492 85.0201 73.5781C80.2853 80.6643 73.5556 86.1872 65.6819 89.4486C57.8082 92.71 49.1443 93.5633 40.7856 91.9007C32.427 90.238 24.7491 86.1341 18.7228 80.1079C12.6966 74.0816 8.59266 66.4037 6.93002 58.0451C5.26739 49.6864 6.12071 41.0225 9.38209 33.1488C12.6435 25.2751 18.1664 18.5454 25.2525 13.8106C32.3387 9.07581 40.6697 6.54862 49.1921 6.54862C54.8508 6.54828 60.4542 7.6626 65.6823 9.82795C70.9104 11.9933 75.6607 15.1673 79.6621 19.1686C83.6634 23.17 86.8374 27.9203 89.0027 33.1484C91.1681 38.3765 92.2824 43.9799 92.2821 49.6386V49.6386ZM49.1921 2.80862C58.4542 2.80862 67.5083 5.55515 75.2094 10.7009C82.9106 15.8466 88.9129 23.1605 92.4573 31.7176C96.0018 40.2746 96.9292 49.6906 95.1222 58.7747C93.3153 67.8588 88.8552 76.2031 82.3059 82.7524C75.7566 89.3017 67.4123 93.7619 58.3281 95.5688C49.244 97.3757 39.8281 96.4484 31.271 92.9039C22.7139 89.3594 15.4001 83.3571 10.2543 75.656C5.10859 67.9548 2.36206 58.9007 2.36206 49.6386C2.36325 37.2189 7.29749 25.3082 16.0796 16.5261C24.8616 7.74404 36.7723 2.80979 49.1921 2.80859V2.80862Z" fill="#0078D4"/>
</g>
<defs>
<linearGradient id="paint0_linear" x1="47.4222" y1="-15.153" x2="51.405" y2="130.615" gradientUnits="userSpaceOnUse">
<stop stop-color="#00ABDE"/>
<stop offset="1" stop-color="#007ED8"/>
</linearGradient>
<linearGradient id="paint1_linear" x1="34.467" y1="50.9367" x2="34.467" y2="40.7187" gradientUnits="userSpaceOnUse">
<stop stop-color="#32BEDD"/>
<stop offset="0.18" stop-color="#32CAEA"/>
<stop offset="0.41" stop-color="#32D2F2"/>
<stop offset="0.78" stop-color="#32D4F5"/>
</linearGradient>
<linearGradient id="paint2_linear" x1="34.4871" y1="41.0801" x2="34.4871" y2="47.6996" gradientUnits="userSpaceOnUse">
<stop stop-color="#CCCCCC"/>
<stop offset="0.32" stop-color="#DFDFDF"/>
<stop offset="0.67" stop-color="#ECECEC"/>
<stop offset="1" stop-color="#F0F0F0"/>
</linearGradient>
<linearGradient id="paint3_linear" x1="34.4669" y1="50.9383" x2="34.4669" y2="40.7203" gradientUnits="userSpaceOnUse">
<stop stop-color="#32BEDD"/>
<stop offset="0.18" stop-color="#32CAEA"/>
<stop offset="0.41" stop-color="#32D2F2"/>
<stop offset="0.78" stop-color="#32D4F5"/>
</linearGradient>
<clipPath id="clip0">
<rect width="99.2799" height="99.28" fill="white"/>
</clipPath>
</defs>
</svg>
