<svg width="154" height="172" viewBox="0 0 154 172" fill="none" xmlns="http://www.w3.org/2000/svg">
<g filter="url(#filter0_d)">
<path d="M70 6.04145C74.3316 3.54059 79.6684 3.54059 84 6.04145L142.746 39.9585C147.078 42.4594 149.746 47.0812 149.746 52.0829V119.917C149.746 124.919 147.078 129.541 142.746 132.041L84 165.959C79.6684 168.459 74.3316 168.459 70 165.959L11.2539 132.041C6.92225 129.541 4.25387 124.919 4.25387 119.917V52.0829C4.25387 47.0812 6.92225 42.4594 11.2539 39.9585L70 6.04145Z" fill="url(#paint0_linear)"/>
<path d="M84.875 4.52591C80.0019 1.71244 73.9981 1.71244 69.125 4.52591L10.3789 38.443C5.5058 41.2565 2.50387 46.456 2.50387 52.0829V119.917C2.50387 125.544 5.5058 130.744 10.3789 133.557L69.125 167.474C73.9981 170.288 80.0019 170.288 84.875 167.474L143.621 133.557C148.494 130.744 151.496 125.544 151.496 119.917V52.0829C151.496 46.456 148.494 41.2565 143.621 38.443L84.875 4.52591Z" stroke="#F2F1F0" stroke-width="3.5"/>
</g>
<path d="M70.5 7.06218C74.5222 4.73995 79.4778 4.73995 83.5 7.06218L142.112 40.9019C146.134 43.2242 148.612 47.5158 148.612 52.1603V119.84C148.612 124.484 146.134 128.776 142.112 131.098L83.5 164.938C79.4778 167.26 74.5222 167.26 70.5 164.938L11.8878 131.098C7.86563 128.776 5.38784 124.484 5.38784 119.84V52.1603C5.38784 47.5158 7.86563 43.2242 11.8878 40.9019L70.5 7.06218Z" stroke="#0078D4" stroke-width="4"/>
<path d="M114.805 128.641L109.699 131.627C110.153 131.404 110.42 130.856 110.42 130.091L115.526 127.105C115.483 127.87 115.209 128.411 114.805 128.641Z" fill="#243A5E"/>
<path d="M106.893 80.1379L115.62 77.426L115.483 127.105L110.377 130.091L106.893 80.1379Z" fill="#243A5E"/>
<path d="M108.112 76.2938L113.218 73.3079C114.574 74.0796 115.656 75.9332 115.613 77.4694L110.506 80.4554C110.506 78.9119 109.468 77.015 108.112 76.2938Z" fill="#243A5E"/>
<path opacity="0.3" d="M60.784 121.588L97.4447 142.518L92.3816 145.367L55.7209 124.437L60.784 121.588Z" fill="#1F1D20"/>
<path d="M69.5976 117.606L64.4912 120.592C63.4093 121.227 58.5554 121.609 56.3412 120.7L59.5868 118.573C60.6975 117.924 62.0029 117.707 63.2723 117.895C65.6524 118.248 68.7537 118.068 69.5976 117.606Z" fill="#243A5E"/>
<path d="M88.6311 137.001L93.7375 134.015C94.7328 134.736 95.6344 135.774 96.3124 137.001C96.9471 138.219 97.3077 139.532 97.3077 140.664L92.2013 143.65C92.2013 142.518 91.8407 141.213 91.206 139.987C90.528 138.76 89.6265 137.722 88.6311 137.001Z" fill="#243A5E"/>
<path d="M81.2601 116.027C81.2168 125.519 81.4836 131.577 88.6311 137.001C89.6265 137.722 90.528 138.761 91.206 139.987C91.8407 141.206 92.2013 142.518 92.2013 143.651L55.995 122.763C55.995 121.631 56.3556 120.729 56.9903 120.275C57.6683 119.821 58.5698 119.821 59.5651 120.232C66.7054 123.081 66.9795 117.34 67.0228 107.798L81.2601 116.027Z" fill="#166BB3"/>
<path d="M81.2601 116.027L86.3664 113.041C86.3232 122.533 86.59 128.591 93.7375 134.015L88.6311 137.001C81.4836 131.577 81.2168 125.518 81.2601 116.027Z" fill="#243A5E"/>
<path d="M67.066 107.848L72.1724 104.862L86.3665 113.041L81.2601 116.027L67.066 107.848Z" fill="#243A5E"/>
<path d="M38.6347 37.2384L43.5175 34.3029C44.1955 33.899 45.0537 33.899 45.7317 34.3029L113.218 73.2716L108.112 76.2575L38.6347 37.2384Z" fill="#243A5E"/>
<path d="M108.112 76.2938C109.468 77.0656 110.55 78.9192 110.506 80.4554L110.369 130.135C110.369 131.671 109.287 132.262 107.932 131.49L81.2601 116.07L67.066 107.891L40.3945 92.5218C39.0819 91.6635 38 89.8099 38 88.2737L38.137 38.6378C38.137 37.1016 39.2189 36.5102 40.5748 37.2386L108.112 76.2938Z" fill="url(#paint1_linear)"/>
<path fill-rule="evenodd" clip-rule="evenodd" d="M74.4611 101.137C82.9089 106.014 89.4964 102.065 89.1747 92.3152C88.853 82.5659 81.7439 70.7086 73.2961 65.8312C64.8483 60.9539 58.2608 64.9034 58.5825 74.6528C58.6948 78.0553 59.6338 81.7145 61.1678 85.2442L61.3575 90.9912L66.3372 93.8663C68.7277 96.8824 71.5129 99.4347 74.4611 101.137Z" fill="#FCA11F"/>
<path fill-rule="evenodd" clip-rule="evenodd" d="M89.1747 92.3153C89.4965 102.065 82.909 106.014 74.4611 101.137C71.5129 99.4347 68.7278 96.8825 66.3372 93.8663L61.3575 90.9913L61.354 90.8866L84.3495 77.3581C87.1849 82.1228 89.0151 87.4785 89.1747 92.3153Z" fill="#E89619"/>
<circle r="2.33939" transform="matrix(0.866025 0.5 0.0329807 0.999456 73.57 74.1316)" fill="white"/>
<circle r="2.33939" transform="matrix(0.866025 0.5 0.0329807 0.999456 74.1872 92.8364)" fill="white"/>
<circle r="2.33939" transform="matrix(0.866025 0.5 0.0329807 0.999456 79.449 89.6819)" fill="white"/>
<circle r="2.33939" transform="matrix(0.866025 0.5 0.0329807 0.999456 79.2446 83.4858)" fill="white"/>
<path d="M78.5345 86.0575C78.564 86.9509 77.7902 88.0934 77.425 88.5706L81.4263 90.8807C81.0343 90.0428 80.2819 88.1214 80.2059 87.0225C80.1728 86.5431 80.2875 86.0741 80.4593 85.667C80.6814 85.1408 80.9989 84.718 81.2161 84.5094L77.2148 82.1992C77.6931 83.1444 78.4959 84.8884 78.5345 86.0575Z" fill="white"/>
<circle r="2.33939" transform="matrix(0.866025 0.5 0.0329807 0.999456 68.5088 83.3655)" fill="white"/>
<circle r="2.33939" transform="matrix(0.866025 0.5 0.0329807 0.999456 68.3043 77.1694)" fill="white"/>
<path d="M67.5942 79.741C67.6237 80.6344 67.3062 80.5495 66.9411 81.0268L69.9275 82.6936C69.5355 81.8557 69.3417 81.805 69.2657 80.706C69.2325 80.2266 69.2444 80.0631 69.4355 79.8293C69.649 79.568 69.6042 79.6873 69.8214 79.4787L66.9908 78.0165C67.4691 78.9616 67.5557 78.572 67.5942 79.741Z" fill="white"/>
<circle r="2.33939" transform="matrix(0.866025 0.5 0.0329807 0.999456 79.449 89.6819)" fill="white"/>
<circle r="2.33939" transform="matrix(0.866025 0.5 0.0329807 0.999456 79.2446 83.4858)" fill="white"/>
<path d="M78.5345 86.0574C78.564 86.9508 78.2465 86.8659 77.8813 87.3432L80.8677 89.01C80.4757 88.1721 80.2819 88.1214 80.2059 87.0224C80.1728 86.543 80.1847 86.3795 80.3757 86.1457C80.5893 85.8844 80.5444 86.0038 80.7616 85.7951L77.9311 84.3329C78.4094 85.278 78.4959 84.8884 78.5345 86.0574Z" fill="white"/>
<circle r="2.33939" transform="matrix(0.866025 0.5 0.0329807 0.999456 73.9789 86.5234)" fill="white"/>
<circle r="2.33939" transform="matrix(0.866025 0.5 0.0329807 0.999456 73.7745 80.3276)" fill="white"/>
<path d="M73.0644 82.8992C73.0939 83.7926 72.7764 83.7077 72.4112 84.185L75.3976 85.8518C75.0056 85.0139 74.8118 84.9632 74.7358 83.8642C74.7026 83.3848 74.7146 83.2213 74.9056 82.9875C75.1192 82.7262 75.0743 82.8456 75.2915 82.6369L72.4609 81.1747C72.9393 82.1198 73.0258 81.7302 73.0644 82.8992Z" fill="white"/>
<circle r="2.33939" transform="matrix(0.866025 0.5 0.0329807 0.999456 73.9789 86.5234)" fill="white"/>
<circle r="2.33939" transform="matrix(0.866025 0.5 0.0329807 0.999456 73.7745 80.3276)" fill="white"/>
<path d="M73.0644 82.8992C73.0939 83.7926 72.7764 83.7077 72.4112 84.185L75.3976 85.8518C75.0056 85.0139 74.8118 84.9632 74.7358 83.8642C74.7026 83.3848 74.7146 83.2213 74.9056 82.9875C75.1192 82.7262 75.0743 82.8456 75.2915 82.6369L72.4609 81.1747C72.9393 82.1198 73.0258 81.7302 73.0644 82.8992Z" fill="white"/>
<defs>
<filter id="filter0_d" x="0.753868" y="0.665771" width="152.992" height="171.168" filterUnits="userSpaceOnUse" color-interpolation-filters="sRGB">
<feFlood flood-opacity="0" result="BackgroundImageFix"/>
<feColorMatrix in="SourceAlpha" type="matrix" values="0 0 0 0 0 0 0 0 0 0 0 0 0 0 0 0 0 0 127 0"/>
<feOffset dx="0.5" dy="0.5"/>
<feColorMatrix type="matrix" values="0 0 0 0 0.823529 0 0 0 0 0.831373 0 0 0 0 0.835294 0 0 0 1 0"/>
<feBlend mode="normal" in2="BackgroundImageFix" result="effect1_dropShadow"/>
<feBlend mode="normal" in="SourceGraphic" in2="effect1_dropShadow" result="shape"/>
</filter>
<linearGradient id="paint0_linear" x1="77" y1="2.00252" x2="77" y2="170.003" gradientUnits="userSpaceOnUse">
<stop stop-color="#00ABDE"/>
<stop offset="1" stop-color="#007ED8"/>
</linearGradient>
<linearGradient id="paint1_linear" x1="48.9055" y1="121.63" x2="107.972" y2="34.8378" gradientUnits="userSpaceOnUse">
<stop offset="0.1111" stop-color="#2E76BC"/>
<stop offset="1" stop-color="#1A2C45"/>
</linearGradient>
</defs>
</svg>
