<?xml version="1.0" encoding="UTF-8"?>
<svg width="182px" height="164px" viewBox="0 0 182 164" version="1.1" xmlns="http://www.w3.org/2000/svg" xmlns:xlink="http://www.w3.org/1999/xlink">
    <!-- Generator: Sketch 64 (93537) - https://sketch.com -->
    <title>Go further improving your business with AI Builder/Go-further-improving-your-business-with-AI-Builder</title>
    <desc>Created with Sketch.</desc>
    <defs>
        <path d="M85,150 C74.895949,139.357925 60.0188259,138.084599 45.5965993,136.849808 C31.7979389,135.668722 18.7639922,134.552819 9.7006596,125.948231 C1.84081742,118.486603 3.73431949,100.819094 5.56570086,83.7333147 C7.48829744,65.7948247 9.31024275,48.788167 0,41.8385753 L7.13641115,7.1775278 C12.3808929,8.91656554 23.4890977,11.908022 37.8436991,11.908022 C54.5207501,11.9076121 70.3776504,7.90233184 85,0 C99.6239223,7.90315175 115.481216,11.908432 132.156301,11.908022 C146.50815,11.9072021 157.618321,8.91574563 162.863589,7.17711784 L170,41.8385753 C160.689364,48.788167 162.511703,65.7952347 164.434299,83.7333147 C166.265681,100.819094 168.159183,118.486603 160.29934,125.948231 C151.235615,134.552819 138.202061,135.668722 124.403008,136.849808 C109.980781,138.084599 95.1036579,139.357925 85,150 Z" id="path-1"></path>
        <linearGradient x1="50%" y1="0%" x2="50%" y2="100%" id="linearGradient-3">
            <stop stop-color="#4E4E57" offset="0%"></stop>
            <stop stop-color="#2E2E34" offset="100%"></stop>
        </linearGradient>
        <rect id="path-4" x="0" y="0" width="170" height="150"></rect>
        <path d="M85,0 C99.6239223,7.90315175 115.481216,11.908432 132.156301,11.908022 C146.50815,11.9072021 157.618321,8.91574563 162.863589,7.17711784 L170,41.8385753 C161.341109,48.3016956 162.311127,63.4635268 164.035812,79.9831342 L164.948124,88.5957639 C166.536912,104.075024 167.414566,119.193494 160.29934,125.948231 C151.784931,134.031329 139.767304,135.505954 126.902778,136.634102 L121.025765,137.143577 C107.691252,138.339925 94.3163598,140.187178 85,150 C75.2896133,139.772552 61.1708369,138.19804 47.2840765,136.994862 L42.4751006,136.579217 C29.8458867,135.456667 18.0773761,133.900956 9.7006596,125.948231 C2.41996369,119.036407 3.50823153,103.367316 5.16378412,87.5153308 L5.96418275,79.9830597 C7.68882206,63.4631722 8.65852575,48.3016956 0,41.8385753 L7.13641115,7.1775278 L7.92522949,7.43402336 C13.4461786,9.19468281 24.1726501,11.908022 37.8436991,11.908022 C54.5207501,11.9076121 70.3776504,7.90233184 85,0 Z M85.8749468,6.08541489 L84.999,5.646 L84.9419178,5.67496513 C70.2652627,13.1283156 54.4273273,16.9076144 37.8436991,16.908022 C27.9344415,16.908022 18.9297168,15.6111276 11.1565513,13.5777666 L10.936,13.519 L5.475,40.044 L5.65150813,40.2347127 C9.48132277,44.415344 11.4016938,50.2842935 11.9491241,57.819532 L11.9850961,58.3479496 L12.055276,59.6059966 C12.3096191,64.9300006 12.0004189,70.0913134 10.9922195,79.9355143 L10.0378286,89.028028 C9.08405777,98.3875424 8.8045726,103.162755 8.99547238,108.262806 C9.26028698,115.337553 10.6598925,119.964595 13.1432338,122.322119 L13.5694961,122.719317 C19.6999193,128.323795 26.7911451,130.142083 44.1668018,131.70523 L49.8200125,132.199609 L51.3022098,132.337774 C59.2974887,133.104183 64.7548714,133.990308 70.1197421,135.608235 C75.5766652,137.253924 80.3263211,139.573243 84.4254477,142.753755 L85,143.209 L85.0654048,143.155844 C89.1168391,139.897989 93.8185628,137.511948 99.2275795,135.809251 L99.8800602,135.608195 C105.24492,133.990272 110.70228,133.104161 118.697664,132.337748 L122.546004,131.99087 L125.832925,131.705224 C143.612613,130.105772 150.624035,128.239121 156.85686,122.322031 C159.280983,120.020724 160.672451,115.556602 160.983683,108.763984 L161.004528,108.262806 C161.214143,102.66275 160.85662,97.4543484 159.662012,86.138382 L159.067859,80.5198009 C157.930576,69.5063578 157.639371,64.254798 158.014754,58.3481387 C158.509822,50.5582421 160.429444,44.5125373 164.348469,40.2346581 L164.525,40.044 L159.064,13.519 L158.841943,13.5773148 C151.310793,15.5469208 142.625189,16.8256747 133.082569,16.9041879 L132.156424,16.908022 C115.881592,16.9084222 100.323122,13.267773 85.8749468,6.08541489 Z" id="path-5"></path>
        <filter x="-11.0%" y="-15.6%" width="122.0%" height="131.2%" filterUnits="objectBoundingBox" id="filter-7">
            <feOffset dx="0" dy="2" in="SourceAlpha" result="shadowOffsetOuter1"></feOffset>
            <feGaussianBlur stdDeviation="2" in="shadowOffsetOuter1" result="shadowBlurOuter1"></feGaussianBlur>
            <feColorMatrix values="0 0 0 0 0   0 0 0 0 0   0 0 0 0 0  0 0 0 0.1 0" type="matrix" in="shadowBlurOuter1" result="shadowMatrixOuter1"></feColorMatrix>
            <feMerge>
                <feMergeNode in="shadowMatrixOuter1"></feMergeNode>
                <feMergeNode in="SourceGraphic"></feMergeNode>
            </feMerge>
        </filter>
        <linearGradient x1="50%" y1="129.304231%" x2="50%" y2="-22.7687391%" id="linearGradient-8">
            <stop stop-color="#0078D4" offset="0%"></stop>
            <stop stop-color="#1380DA" offset="16%"></stop>
            <stop stop-color="#3C91E5" offset="53%"></stop>
            <stop stop-color="#559CEC" offset="82%"></stop>
            <stop stop-color="#5EA0EF" offset="100%"></stop>
        </linearGradient>
        <filter x="-17.6%" y="-17.9%" width="135.3%" height="135.8%" filterUnits="objectBoundingBox" id="filter-9">
            <feOffset dx="0" dy="2" in="SourceAlpha" result="shadowOffsetOuter1"></feOffset>
            <feGaussianBlur stdDeviation="2" in="shadowOffsetOuter1" result="shadowBlurOuter1"></feGaussianBlur>
            <feColorMatrix values="0 0 0 0 0   0 0 0 0 0   0 0 0 0 0  0 0 0 0.1 0" type="matrix" in="shadowBlurOuter1" result="shadowMatrixOuter1"></feColorMatrix>
            <feMerge>
                <feMergeNode in="shadowMatrixOuter1"></feMergeNode>
                <feMergeNode in="SourceGraphic"></feMergeNode>
            </feMerge>
        </filter>
        <path d="M4.81726316,0 C2.53657895,0 0.688052632,1.72234802 0.688052632,3.84667342 L0.688052632,3.84667342 L0.688052632,41.3517393 C0.688052632,43.4760647 2.53657895,45.1984127 4.81726316,45.1984127 L4.81726316,45.1984127 L63.6641053,45.1984127 C65.9447895,45.1984127 67.7942105,43.4760647 67.7942105,41.3517393 L67.7942105,41.3517393 L67.7942105,3.84667342 C67.7942105,1.72234802 65.9447895,0 63.6641053,0 L63.6641053,0 L4.81726316,0 Z" id="path-10"></path>
        <linearGradient x1="50%" y1="-7.83969624%" x2="50%" y2="136.746848%" id="linearGradient-12">
            <stop stop-color="#FFD70F" offset="0%"></stop>
            <stop stop-color="#EEB309" offset="34%"></stop>
            <stop stop-color="#DC8C03" offset="77%"></stop>
            <stop stop-color="#D57D01" offset="100%"></stop>
        </linearGradient>
        <linearGradient x1="50%" y1="0%" x2="50%" y2="100%" id="linearGradient-13">
            <stop stop-color="#E55E14" offset="0%"></stop>
            <stop stop-color="#F59051" offset="100%"></stop>
        </linearGradient>
        <linearGradient x1="50%" y1="0%" x2="50%" y2="100%" id="linearGradient-14">
            <stop stop-color="#F59051" offset="0%"></stop>
            <stop stop-color="#E55E14" offset="100%"></stop>
        </linearGradient>
        <linearGradient x1="50%" y1="-9.93901477%" x2="50%" y2="100%" id="linearGradient-15">
            <stop stop-color="#FFFFFF" offset="0%"></stop>
            <stop stop-color="#EFEFEF" offset="100%"></stop>
        </linearGradient>
        <path d="M38.2302982,41.8283208 L30.5915622,41.8283208 C29.9330825,41.8283208 29.3940737,41.4791208 29.3940737,41.0525208 L29.3940737,33.6041208 C29.3940737,33.1775208 29.9330825,32.8283208 30.5915622,32.8283208 L38.2302982,32.8283208 C38.8887779,32.8283208 39.4268606,33.1775208 39.4268606,33.6041208 L39.4268606,41.0525208 C39.4268606,41.4791208 38.8887779,41.8283208 38.2302982,41.8283208" id="path-16"></path>
        <filter x="-5.0%" y="-5.6%" width="110.0%" height="122.2%" filterUnits="objectBoundingBox" id="filter-17">
            <feOffset dx="0" dy="1" in="SourceAlpha" result="shadowOffsetOuter1"></feOffset>
            <feColorMatrix values="0 0 0 0 0   0 0 0 0 0   0 0 0 0 0  0 0 0 0.1 0" type="matrix" in="shadowOffsetOuter1"></feColorMatrix>
        </filter>
        <linearGradient x1="50%" y1="2.04550253%" x2="50%" y2="100%" id="linearGradient-18">
            <stop stop-color="#FFE02A" offset="0%"></stop>
            <stop stop-color="#FFB518" offset="100%"></stop>
        </linearGradient>
        <filter x="-44.4%" y="-24.5%" width="188.9%" height="153.1%" filterUnits="objectBoundingBox" id="filter-19">
            <feOffset dx="0" dy="2" in="SourceAlpha" result="shadowOffsetOuter1"></feOffset>
            <feGaussianBlur stdDeviation="2" in="shadowOffsetOuter1" result="shadowBlurOuter1"></feGaussianBlur>
            <feColorMatrix values="0 0 0 0 0   0 0 0 0 0   0 0 0 0 0  0 0 0 0.1 0" type="matrix" in="shadowBlurOuter1" result="shadowMatrixOuter1"></feColorMatrix>
            <feMerge>
                <feMergeNode in="shadowMatrixOuter1"></feMergeNode>
                <feMergeNode in="SourceGraphic"></feMergeNode>
            </feMerge>
        </filter>
        <linearGradient x1="50%" y1="0%" x2="50%" y2="100%" id="linearGradient-20">
            <stop stop-color="#E8F6FE" offset="0%"></stop>
            <stop stop-color="#B6E5F9" offset="100%"></stop>
        </linearGradient>
        <path d="M31.0948479,35.9078512 L-6.91740488,35.8798088 C-7.09004444,35.8983533 -7.26548596,35.9078739 -7.44321789,35.9078739 C-10.0545365,35.9078739 -12.1714286,33.8526855 -12.1714286,31.3174821 C-12.1714286,29.0118284 -10.4205289,27.1031993 -8.13917756,26.7764687 C-7.83379261,23.5487595 -5.29552156,20.9905006 -2.12688405,20.7437782 C-1.37763552,17.8851446 1.16910252,15.7807716 4.19545455,15.7807716 C5.03300226,15.7807716 5.83381564,15.9419486 6.56997144,16.235687 C7.71115986,14.271499 9.80418151,12.9559151 12.1970418,12.9559151 C14.5899022,12.9559151 16.6829238,14.271499 17.824944,16.2353629 C18.560268,15.9419486 19.3610814,15.7807716 20.1986291,15.7807716 C23.2616813,15.7807716 25.8334166,17.936493 26.5479921,20.8482365 C29.3578857,21.4083849 31.5251818,23.8096482 31.8063605,26.7768411 C34.0875744,27.1036123 35.8380952,29.0120779 35.8380952,31.3174821 C35.8380952,33.733889 33.914945,35.7142127 31.4735503,35.8944979 L31.4735931,35.9078739 L31.0948479,35.9078512 L31.0948479,35.9078512 Z" id="path-21"></path>
        <filter x="-6.2%" y="-4.4%" width="108.3%" height="108.7%" filterUnits="objectBoundingBox" id="filter-22">
            <feOffset dx="-2" dy="0" in="SourceAlpha" result="shadowOffsetOuter1"></feOffset>
            <feColorMatrix values="0 0 0 0 0   0 0 0 0 0   0 0 0 0 0  0 0 0 0.1 0" type="matrix" in="shadowOffsetOuter1"></feColorMatrix>
        </filter>
        <linearGradient x1="51.8338446%" y1="24.4384801%" x2="42.3323119%" y2="71.2129009%" id="linearGradient-23">
            <stop stop-color="#40C4F5" offset="0%"></stop>
            <stop stop-color="#2BB5F0" offset="100%"></stop>
        </linearGradient>
        <path d="M3.64102564,6.11021271 C7.26066026,6.11021271 10.1948718,9.06670233 10.1948718,12.7138191 C10.1948718,16.3609359 7.26066026,19.3174255 3.64102564,19.3174255" id="path-24"></path>
        <filter x="-22.9%" y="-11.4%" width="145.8%" height="130.3%" filterUnits="objectBoundingBox" id="filter-25">
            <feMorphology radius="1" operator="dilate" in="SourceAlpha" result="shadowSpreadOuter1"></feMorphology>
            <feOffset dx="0" dy="1" in="shadowSpreadOuter1" result="shadowOffsetOuter1"></feOffset>
            <feMorphology radius="1" operator="erode" in="SourceAlpha" result="shadowInner"></feMorphology>
            <feOffset dx="0" dy="1" in="shadowInner" result="shadowInner"></feOffset>
            <feComposite in="shadowOffsetOuter1" in2="shadowInner" operator="out" result="shadowOffsetOuter1"></feComposite>
            <feColorMatrix values="0 0 0 0 0   0 0 0 0 0   0 0 0 0 0  0 0 0 0.1 0" type="matrix" in="shadowOffsetOuter1"></feColorMatrix>
        </filter>
        <linearGradient x1="57.4471893%" y1="49.8212464%" x2="18.8617425%" y2="50.1483434%" id="linearGradient-26">
            <stop stop-color="#40C4F5" offset="0%"></stop>
            <stop stop-color="#2BB5F0" offset="100%"></stop>
        </linearGradient>
        <path d="M5.0974359,12.7138191 L13.758567,12.7138191" id="path-27"></path>
        <filter x="-17.3%" y="-157.1%" width="134.6%" height="552.3%" filterUnits="objectBoundingBox" id="filter-28">
            <feMorphology radius="1" operator="dilate" in="SourceAlpha" result="shadowSpreadOuter1"></feMorphology>
            <feOffset dx="0" dy="1" in="shadowSpreadOuter1" result="shadowOffsetOuter1"></feOffset>
            <feMorphology radius="1" operator="erode" in="SourceAlpha" result="shadowInner"></feMorphology>
            <feOffset dx="0" dy="1" in="shadowInner" result="shadowInner"></feOffset>
            <feComposite in="shadowOffsetOuter1" in2="shadowInner" operator="out" result="shadowOffsetOuter1"></feComposite>
            <feColorMatrix values="0 0 0 0 0   0 0 0 0 0   0 0 0 0 0  0 0 0 0.1 0" type="matrix" in="shadowOffsetOuter1"></feColorMatrix>
        </filter>
        <linearGradient x1="50%" y1="-9.93901477%" x2="50%" y2="100%" id="linearGradient-29">
            <stop stop-color="#EFEFEF" offset="0%"></stop>
            <stop stop-color="#FFFFFF" offset="100%"></stop>
        </linearGradient>
        <linearGradient x1="57.4471893%" y1="26.7086663%" x2="18.8617425%" y2="69.3289271%" id="linearGradient-30">
            <stop stop-color="#40C4F5" offset="0%"></stop>
            <stop stop-color="#2BB5F0" offset="100%"></stop>
        </linearGradient>
        <path d="M5.0974359,12.7138191 C5.0974359,14.0567841 3.96325641,15.1467268 2.54871795,15.1467268 C1.13417949,15.1467268 0,14.0567841 0,12.7138191 C0,11.3696377 1.13417949,10.2809115 2.54871795,10.2809115 C3.96325641,10.2809115 5.0974359,11.3696377 5.0974359,12.7138191" id="path-31"></path>
        <filter x="-29.4%" y="-30.8%" width="158.9%" height="182.2%" filterUnits="objectBoundingBox" id="filter-32">
            <feMorphology radius="1" operator="dilate" in="SourceAlpha" result="shadowSpreadOuter1"></feMorphology>
            <feOffset dx="0" dy="1" in="shadowSpreadOuter1" result="shadowOffsetOuter1"></feOffset>
            <feComposite in="shadowOffsetOuter1" in2="SourceAlpha" operator="out" result="shadowOffsetOuter1"></feComposite>
            <feColorMatrix values="0 0 0 0 0   0 0 0 0 0   0 0 0 0 0  0 0 0 0.1 0" type="matrix" in="shadowOffsetOuter1"></feColorMatrix>
        </filter>
        <linearGradient x1="57.4471893%" y1="48.2635971%" x2="18.8617425%" y2="51.4409997%" id="linearGradient-33">
            <stop stop-color="#40C4F5" offset="0%"></stop>
            <stop stop-color="#2BB5F0" offset="100%"></stop>
        </linearGradient>
        <path d="M16.7487179,6.65359567 L19.5276422,6.65359567" id="path-34"></path>
        <filter x="-54.0%" y="-157.1%" width="208.0%" height="552.3%" filterUnits="objectBoundingBox" id="filter-35">
            <feMorphology radius="1" operator="dilate" in="SourceAlpha" result="shadowSpreadOuter1"></feMorphology>
            <feOffset dx="0" dy="1" in="shadowSpreadOuter1" result="shadowOffsetOuter1"></feOffset>
            <feMorphology radius="1" operator="erode" in="SourceAlpha" result="shadowInner"></feMorphology>
            <feOffset dx="0" dy="1" in="shadowInner" result="shadowInner"></feOffset>
            <feComposite in="shadowOffsetOuter1" in2="shadowInner" operator="out" result="shadowOffsetOuter1"></feComposite>
            <feColorMatrix values="0 0 0 0 0   0 0 0 0 0   0 0 0 0 0  0 0 0 0.1 0" type="matrix" in="shadowOffsetOuter1"></feColorMatrix>
        </filter>
        <linearGradient x1="57.4471893%" y1="48.3317424%" x2="18.8617425%" y2="51.3844475%" id="linearGradient-36">
            <stop stop-color="#40C4F5" offset="0%"></stop>
            <stop stop-color="#2BB5F0" offset="100%"></stop>
        </linearGradient>
        <path d="M16.7487179,18.6747707 L19.5838312,18.6747707" id="path-37"></path>
        <filter x="-52.9%" y="-295.2%" width="205.8%" height="552.3%" filterUnits="objectBoundingBox" id="filter-38">
            <feMorphology radius="1" operator="dilate" in="SourceAlpha" result="shadowSpreadOuter1"></feMorphology>
            <feOffset dx="0" dy="-1" in="shadowSpreadOuter1" result="shadowOffsetOuter1"></feOffset>
            <feMorphology radius="1" operator="erode" in="SourceAlpha" result="shadowInner"></feMorphology>
            <feOffset dx="0" dy="-1" in="shadowInner" result="shadowInner"></feOffset>
            <feComposite in="shadowOffsetOuter1" in2="shadowInner" operator="out" result="shadowOffsetOuter1"></feComposite>
            <feColorMatrix values="0 0 0 0 0   0 0 0 0 0   0 0 0 0 0  0 0 0 0.1 0" type="matrix" in="shadowOffsetOuter1"></feColorMatrix>
        </filter>
        <path d="M16.7487179,6.45777094 C16.7487179,7.80073595 15.6145385,8.89067857 14.2,8.89067857 C12.7854615,8.89067857 11.6512821,7.80073595 11.6512821,6.45777094 C11.6512821,5.11358948 12.7854615,4.02486332 14.2,4.02486332 C15.6145385,4.02486332 16.7487179,5.11358948 16.7487179,6.45777094" id="path-39"></path>
        <filter x="-29.4%" y="-30.8%" width="158.9%" height="182.2%" filterUnits="objectBoundingBox" id="filter-40">
            <feMorphology radius="1" operator="dilate" in="SourceAlpha" result="shadowSpreadOuter1"></feMorphology>
            <feOffset dx="0" dy="1" in="shadowSpreadOuter1" result="shadowOffsetOuter1"></feOffset>
            <feComposite in="shadowOffsetOuter1" in2="SourceAlpha" operator="out" result="shadowOffsetOuter1"></feComposite>
            <feColorMatrix values="0 0 0 0 0   0 0 0 0 0   0 0 0 0 0  0 0 0 0.1 0" type="matrix" in="shadowOffsetOuter1"></feColorMatrix>
        </filter>
        <path d="M16.7487179,18.9698673 C16.7487179,20.3128323 15.6145385,21.4027749 14.2,21.4027749 C12.7854615,21.4027749 11.6512821,20.3128323 11.6512821,18.9698673 C11.6512821,17.6256858 12.7854615,16.5369597 14.2,16.5369597 C15.6145385,16.5369597 16.7487179,17.6256858 16.7487179,18.9698673" id="path-41"></path>
        <filter x="-29.4%" y="-30.8%" width="158.9%" height="182.2%" filterUnits="objectBoundingBox" id="filter-42">
            <feMorphology radius="1" operator="dilate" in="SourceAlpha" result="shadowSpreadOuter1"></feMorphology>
            <feOffset dx="0" dy="1" in="shadowSpreadOuter1" result="shadowOffsetOuter1"></feOffset>
            <feComposite in="shadowOffsetOuter1" in2="SourceAlpha" operator="out" result="shadowOffsetOuter1"></feComposite>
            <feColorMatrix values="0 0 0 0 0   0 0 0 0 0   0 0 0 0 0  0 0 0 0.1 0" type="matrix" in="shadowOffsetOuter1"></feColorMatrix>
        </filter>
        <linearGradient x1="49.9995849%" y1="50.0000104%" x2="73.502198%" y2="39.4704037%" id="linearGradient-43">
            <stop stop-color="#24538D" offset="0%"></stop>
            <stop stop-color="#225EA3" offset="100%"></stop>
        </linearGradient>
    </defs>
    <g id="Badges" stroke="none" stroke-width="1" fill="none" fill-rule="evenodd">
        <g id="Go-further-improving-your-business-with-AI-Builder" transform="translate(-119.000000, -49.000000)">
            <g id="Go-further-improving-your-business-with-AI-Builder/Go-further-improving-your-business-with-AI-Builder" transform="translate(155.000000, 80.000000)">
                <g id="Trophy-Plates/Route-66" transform="translate(5.000000, 0.000000)">
                    <g id="BG" transform="translate(-35.000000, -25.000000)">
                        <mask id="mask-2" fill="white">
                            <use xlink:href="#path-1"></use>
                        </mask>
                        <path stroke="#FFFFFF" stroke-width="5" d="M83.8113984,-2.19936952 C69.5575945,5.50378981 54.1002721,9.40762242 37.8436377,9.40802204 C20.5051874,9.40802204 8.02550015,4.93726842 5.26863281,3.85217858 L-2.79030525,42.9938744 C7.55597579,48.9133606 4.94468837,66.0681234 3.07993701,83.4668976 C1.13511141,101.611049 -0.256294281,119.942875 7.97941922,127.761331 C17.4280905,136.731753 30.9426851,138.104658 45.3852119,139.340856 C59.1540673,140.519707 73.4986175,141.517073 83.1869979,151.721343 C83.8315496,152.400216 84.4343379,153.097558 84.9982036,153.811972 C85.5635341,153.100083 86.167326,152.401427 86.8130356,151.721308 C96.5010446,141.517032 110.845623,140.519699 124.61627,139.340695 C139.057242,138.104666 152.571454,136.731796 162.020588,127.761324 C170.256294,119.942875 168.864889,101.611049 166.92006,83.4668723 C165.055317,66.0685688 162.443581,48.9133598 172.790309,42.9939144 L164.731466,3.85221453 C161.97371,4.93692298 149.490587,9.40703174 132.156158,9.40802204 C115.901558,9.40842166 100.443898,5.50456716 86.1885981,-2.19937141 C85.7909741,-2.41425788 85.3953107,-2.63154684 85.0016148,-2.85123216 C84.6063347,-2.63245276 84.2098507,-2.41470442 83.8113984,-2.19936952 Z"></path>
                        <g id="Colors/PowerApps/BG-Solid-1" mask="url(#mask-2)">
                            <rect id="Rectangle" fill="url(#linearGradient-3)" x="0" y="0" width="170" height="150"></rect>
                            <g id="Rectangle">
                                <use fill="#742774" xlink:href="#path-4"></use>
                                <use fill-opacity="0.501092657" fill="#FFFFFF" xlink:href="#path-4"></use>
                            </g>
                        </g>
                    </g>
                    <g id="Border" transform="translate(-35.000000, -25.000000)">
                        <mask id="mask-6" fill="white">
                            <use xlink:href="#path-5"></use>
                        </mask>
                        <use fill="#000000" fill-rule="nonzero" xlink:href="#path-5"></use>
                        <g id="Colors/PowerApps/Border" mask="url(#mask-6)" fill="#752375">
                            <rect id="Rectangle" x="0" y="0" width="170" height="150"></rect>
                        </g>
                    </g>
                </g>
                <g id="Machine-Learning" filter="url(#filter-7)" transform="translate(0.000000, 3.000000)" fill-rule="nonzero">
                    <g id="Icon-machinelearning-162-Cognitive-Services">
                        <path d="M108,52.8343174 C107.731919,40.8635957 98.7654699,30.9029521 86.94,29.4391986 C86.2250524,12.6193322 72.1846615,-0.496081583 55.44,0.0144099837 C42.1218249,-0.275924307 30.06179,7.88433254 25.32,20.3946939 C11.0794917,22.1338327 0.28374869,34.1398578 0,48.5532518 C0.618220489,64.8273935 14.2243111,77.5298754 30.42,76.9529965 L33.06,76.9529965 L82.32,76.9529965 C82.7577903,77.0156678 83.2022097,77.0156678 83.64,76.9529965 C96.9019493,76.8269164 107.677117,66.1584924 108,52.8343174 Z" id="Path" fill="url(#linearGradient-8)"></path>
                        <path d="M32.7454262,44.3118326 L27.1598828,44.3118326 C26.3691016,41.1441732 23.1314928,39.0292959 19.635902,39.3970028 C16.1403111,39.7647096 13.5,42.4978948 13.5,45.7487377 C13.5,48.9995806 16.1403111,51.7327658 19.635902,52.1004727 C23.1314928,52.4681795 26.3691016,50.3533022 27.1598828,47.1856428 L32.7454262,47.1856428 C33.4465195,47.1856428 34.0148679,47.7108056 34.0148679,48.3586266 L34.0148679,73.5777778 L37.125,73.5777778 L37.125,48.3586266 C37.125,46.123644 35.164198,44.3118326 32.7454262,44.3118326 L32.7454262,44.3118326 Z M20.3683698,49.4729612 C18.1248713,49.4729612 16.3061564,47.7924405 16.3061564,45.7194131 C16.3061564,43.6463857 18.1248713,41.965865 20.3683698,41.965865 C22.6118683,41.965865 24.4305832,43.6463857 24.4305832,45.7194131 C24.4305832,47.7924405 22.6118683,49.4729612 20.3683698,49.4729612 L20.3683698,49.4729612 Z" id="Shape" fill="#9CEBFF"></path>
                        <path d="M55.5313029,45.9604125 L55.5313029,40.0713123 C55.5313029,37.7945902 53.5309383,35.9489422 51.0633635,35.9489422 L41.1700691,35.9489422 C40.4650478,35.9489422 39.893515,35.4216142 39.893515,34.7711221 L39.893515,3.73591001 L38.4254778,4.65723956 L36.7659574,5.68449976 L36.7659574,34.4766671 C36.7659574,36.7208647 38.7377454,38.5401463 41.1700691,38.5401463 L51.0633635,38.5401463 C51.4188549,38.5401463 51.7597862,38.6704422 52.0111566,38.9023706 C52.2625269,39.1342989 52.4037453,39.4488612 52.4037453,39.7768573 L52.4037453,45.6659575 C49.2254953,46.3050882 46.9640157,48.9071603 46.9783904,51.9084038 C46.9752458,55.2624299 49.771248,58.0533008 53.3954638,58.3137004 C57.0196797,58.5741 60.2502393,56.2162371 60.8098854,52.9021955 C61.3695315,49.5881539 59.0695846,46.4352311 55.5313029,45.6659575 L55.5313029,45.9604125 Z M53.4255319,56 L53.4255319,56 C51.2046422,56 49.4042553,54.4329966 49.4042553,52.5 C49.4042553,50.5670034 51.2046422,49 53.4255319,49 C55.6464217,49 57.4468085,50.5670034 57.4468085,52.5 C57.4468085,53.4282577 57.0231395,54.3184964 56.2690039,54.9748737 C55.5148682,55.6312511 54.4920408,56 53.4255319,56 L53.4255319,56 Z" id="Shape" fill="#F2F2F2"></path>
                        <path d="M90.9743467,35.5831784 C87.6047626,35.5951815 84.7757673,38.0874953 84.3865749,41.386933 C83.9973825,44.6863706 86.1707688,47.7520815 89.4476555,48.5259352 L89.4476555,49.7299125 C89.4476555,50.0651929 89.3125437,50.3867411 89.0720432,50.6238201 C88.8315426,50.8608992 88.5053539,50.9940888 88.1652348,50.9940888 L75.9517051,50.9940888 L75.9517051,29.804087 C75.9517051,28.7024515 75.5077664,27.645936 74.7175504,26.8669621 C73.9273344,26.0879881 72.8555715,25.6503651 71.7380374,25.6503651 L65.4480696,25.6503651 C64.7853163,22.6528101 62.08707,20.5199038 58.9748988,20.533397 C55.4969058,20.5304955 52.6028827,23.1675348 52.3328586,26.5857008 C52.0628345,30.0038668 54.5078454,33.0507574 57.9443759,33.5785856 C61.3809065,34.1064137 64.6503631,31.9372272 65.4480696,28.6001096 L71.982308,28.6001096 C72.6568426,28.6001096 73.2036609,29.1391487 73.2036609,29.804087 L73.2036609,77 L76.1959757,77 L76.1959757,53.9438333 L88.4095054,53.9438333 C90.7703766,53.9438333 92.6842408,52.0571967 92.6842408,49.7299125 L92.6842408,48.5259352 C95.7121722,47.8521989 97.8657333,45.2047886 97.8749925,42.1448551 L97.8749925,42.1448551 C97.8762092,40.3620549 97.1414833,38.655511 95.8398291,37.4177956 C94.5381749,36.1800802 92.7816582,35.5177541 90.9743467,35.5831784 Z M58.9748988,30.9478655 L58.9748988,30.9478655 C56.816388,30.9478655 55.0665693,29.2229406 55.0665693,27.0951379 C55.0665693,24.9673352 56.816388,23.2424103 58.9748988,23.2424103 C61.1334096,23.2424103 62.8832283,24.9673352 62.8832283,27.0951379 C62.8832283,29.2229406 61.1334096,30.9478655 58.9748988,30.9478655 Z M90.9743467,45.9975827 L90.9743467,45.9975827 C89.3882529,46.0220158 87.9444991,45.0989786 87.3202758,43.6614204 C86.6960525,42.2238621 87.0151904,40.5569594 88.1279984,39.4425705 C89.2408064,38.3281815 90.9265304,37.987374 92.3944841,38.5800032 C93.8624378,39.1726324 94.8214149,40.581135 94.8216085,42.1448551 C94.8218692,44.2493686 93.1089716,45.9646997 90.9743467,45.9975827 L90.9743467,45.9975827 Z" id="Shape" fill="#9CEBFF"></path>
                    </g>
                </g>
                <g id="Briefcase" transform="translate(21.000000, 33.000000)">
                    <g id="Group" filter="url(#filter-9)">
                        <g id="Group-5" transform="translate(0.000000, 17.365706)">
                            <mask id="mask-11" fill="white">
                                <use xlink:href="#path-10"></use>
                            </mask>
                            <g id="Clip-4"></g>
                            <polygon id="Fill-3" fill="url(#linearGradient-12)" mask="url(#mask-11)" points="-4.47368421 50.0067545 72.9550526 50.0067545 72.9550526 -4.80834178 -4.47368421 -4.80834178"></polygon>
                        </g>
                        <path d="M35.4086737,37.6752083 C21.3944105,37.6752083 8.89135789,34.2467897 0.688410526,28.8838791 L0.688410526,57.5368181 C0.688410526,61.7588256 3.90677895,65.1805834 7.87672632,65.1805834 L60.6053579,65.1805834 C64.5753053,65.1805834 67.7936737,61.7588256 67.7936737,57.5368181 L67.7936737,30.2883603 C59.6453053,34.836748 48.1542,37.6752083 35.4086737,37.6752083" id="Fill-6" fill="url(#linearGradient-13)"></path>
                        <path d="M35.4086737,42.3715599 C21.3944105,42.3715599 8.89135789,39.3381578 0.688410526,34.5931523 L0.688410526,63.2484053 C0.688410526,65.1586993 2.33472632,66.707814 4.36488421,66.707814 L64.1163053,66.707814 C66.1473579,66.707814 67.7936737,65.1586993 67.7936737,63.2484053 L67.7936737,35.8358116 C59.6453053,39.860142 48.1542,42.3715599 35.4086737,42.3715599" id="Fill-8" fill="url(#linearGradient-14)"></path>
                        <g id="Fill-10">
                            <use fill="black" fill-opacity="1" filter="url(#filter-17)" xlink:href="#path-16"></use>
                            <use fill="url(#linearGradient-15)" fill-rule="evenodd" xlink:href="#path-16"></use>
                        </g>
                        <path d="M56.6092842,18.3172515 L52.1356,18.3172515 C52.1356,10.8409582 44.1080211,4.75772765 34.2408632,4.75772765 C24.3737053,4.75772765 16.3461263,10.8409582 16.3461263,18.3172515 L11.8724421,18.3172515 C11.8724421,8.2175472 21.9069158,-1.58569806e-13 34.2408632,-1.58569806e-13 C46.5748105,-1.58569806e-13 56.6092842,8.2175472 56.6092842,18.3172515" id="Fill-12" fill="url(#linearGradient-18)"></path>
                    </g>
                </g>
                <g id="Brain" filter="url(#filter-19)" transform="translate(55.500000, 88.500000) rotate(90.000000) translate(-55.500000, -88.500000) translate(42.000000, 64.000000)">
                    <g id="classify-images---cognitive-vision-services">
                        <g id="Brain-Shape" fill-rule="nonzero" transform="translate(11.833333, 24.431895) rotate(-90.000000) translate(-11.833333, -24.431895) ">
                            <use fill="black" fill-opacity="1" filter="url(#filter-22)" xlink:href="#path-21"></use>
                            <use fill="url(#linearGradient-20)" xlink:href="#path-21"></use>
                        </g>
                        <g id="Circut-Board" transform="translate(4.057143, 11.139905)">
                            <g id="Stroke-3" stroke-linecap="round">
                                <use fill="black" fill-opacity="1" filter="url(#filter-25)" xlink:href="#path-24"></use>
                                <use stroke="url(#linearGradient-23)" stroke-width="2" xlink:href="#path-24"></use>
                            </g>
                            <g id="Path-2" fill-rule="nonzero">
                                <use fill="black" fill-opacity="1" filter="url(#filter-28)" xlink:href="#path-27"></use>
                                <use stroke="url(#linearGradient-26)" stroke-width="2" xlink:href="#path-27"></use>
                            </g>
                            <g id="Fill-1164">
                                <use fill="black" fill-opacity="1" filter="url(#filter-32)" xlink:href="#path-31"></use>
                                <use stroke="url(#linearGradient-30)" stroke-width="2" fill="url(#linearGradient-29)" fill-rule="evenodd" xlink:href="#path-31"></use>
                            </g>
                            <g id="Path-2" fill-rule="nonzero">
                                <use fill="black" fill-opacity="1" filter="url(#filter-35)" xlink:href="#path-34"></use>
                                <use stroke="url(#linearGradient-33)" stroke-width="2" xlink:href="#path-34"></use>
                            </g>
                            <g id="Path-2" fill-rule="nonzero" transform="translate(18.166275, 18.674771) scale(1, -1) translate(-18.166275, -18.674771) ">
                                <use fill="black" fill-opacity="1" filter="url(#filter-38)" xlink:href="#path-37"></use>
                                <use stroke="url(#linearGradient-36)" stroke-width="2" xlink:href="#path-37"></use>
                            </g>
                            <path d="" id="Path-3" stroke="#979797" fill-rule="nonzero"></path>
                            <g id="Fill-1164">
                                <use fill="black" fill-opacity="1" filter="url(#filter-40)" xlink:href="#path-39"></use>
                                <use stroke="url(#linearGradient-30)" stroke-width="2" fill="url(#linearGradient-29)" fill-rule="evenodd" xlink:href="#path-39"></use>
                            </g>
                            <g id="Fill-1164">
                                <use fill="black" fill-opacity="1" filter="url(#filter-42)" xlink:href="#path-41"></use>
                                <use stroke="url(#linearGradient-30)" stroke-width="2" fill="url(#linearGradient-29)" fill-rule="evenodd" xlink:href="#path-41"></use>
                            </g>
                        </g>
                    </g>
                    <g id="Group-7" transform="translate(18.000000, 4.000000)" fill="#30404D">
                        <path d="M2.73076923,1.36565315 C2.73076923,2.11532883 2.11634615,2.72376126 1.36538462,2.72376126 C0.614423077,2.72376126 0,2.11532883 0,1.36565315 C0,0.615298423 0.614423077,0.00754504505 1.36538462,0.00754504505 C2.11634615,0.00754504505 2.73076923,0.615298423 2.73076923,1.36565315" id="Fill-382"></path>
                    </g>
                    <g id="Group-7" transform="translate(18.000000, 42.000000)" fill="url(#linearGradient-43)">
                        <path d="M2.73076923,1.53918919 C2.73076923,2.28886486 2.11634615,2.8972973 1.36538462,2.8972973 C0.614423077,2.8972973 0,2.28886486 0,1.53918919 C0,0.788834459 0.614423077,0.181081081 1.36538462,0.181081081 C2.11634615,0.181081081 2.73076923,0.788834459 2.73076923,1.53918919" id="Fill-382"></path>
                    </g>
                </g>
            </g>
        </g>
    </g>
</svg>