<svg width="103" height="103" fill="none" xmlns="http://www.w3.org/2000/svg"><path d="M51.391 98.329c-25.85 0-46.81-20.95-46.81-46.81 0-25.86 20.96-46.81 46.81-46.81s46.81 20.96 46.81 46.81-20.96 46.81-46.81 46.81Z" fill="url(#a)"/><path fill-rule="evenodd" clip-rule="evenodd" d="M97.291 51.519c0 25.35-20.55 45.9-45.9 45.9-25.35 0-45.9-20.55-45.9-45.9 0-25.35 20.55-45.9 45.9-45.9 25.35 0 45.9 20.55 45.9 45.9Zm-45.9-49.64c27.42 0 49.64 22.22 49.64 49.64s-22.23 49.64-49.64 49.64c-27.42 0-49.64-22.23-49.64-49.64 0-27.42 22.22-49.64 49.64-49.64Z" fill="#F2F1F0"/><path fill-rule="evenodd" clip-rule="evenodd" d="M94.481 51.52c0 23.8-19.29 43.09-43.09 43.09-23.8 0-43.09-19.29-43.09-43.09 0-23.8 19.29-43.09 43.09-43.09 23.8 0 43.09 19.29 43.09 43.09ZM51.391 4.69c25.86 0 46.83 20.97 46.83 46.83s-20.97 46.83-46.83 46.83-46.83-20.97-46.83-46.83 20.96-46.83 46.83-46.83Z" fill="url(#b)"/><path d="M23.544 29.21a.742.742 0 1 0-.742-.741c-.01.4.322.742.742.742Z" fill="url(#c)"/><path d="M23.544 34.228a.742.742 0 1 0-.742-.742c0 .41.322.742.742.742Z" fill="url(#d)"/><path d="M58.673 29.21a.742.742 0 1 0-.742-.741c-.01.4.322.742.742.742Z" fill="url(#e)"/><path d="M63.691 29.21a.742.742 0 1 0-.742-.741c-.01.4.332.742.742.742Z" fill="url(#f)"/><path d="M68.7 29.21a.742.742 0 1 0-.742-.741c-.01.4.322.742.742.742Z" fill="url(#g)"/><path d="M73.718 29.21a.742.742 0 1 0-.742-.741c-.01.4.332.742.742.742Z" fill="url(#h)"/><path d="M78.737 29.22c.42 0 .742-.341.742-.742 0-.4-.322-.761-.742-.761a.742.742 0 0 0-.742.742c-.01.41.332.761.742.761Z" fill="url(#i)"/><path d="M78.737 37.754a.742.742 0 0 0-.742.742c0 .4.341.742.742.742a.742.742 0 1 0 0-1.484Z" fill="url(#j)"/><path d="M73.718 34.228a.742.742 0 1 0 .001-1.483.742.742 0 0 0 0 1.483Z" fill="url(#k)"/><path d="M78.737 32.734a.742.742 0 0 0-.742.742c0 .4.341.742.742.742a.742.742 0 1 0 0-1.484Z" fill="url(#l)"/><path d="M78.737 42.762a.742.742 0 1 0-.001 1.483.742.742 0 0 0 0-1.483Z" fill="url(#m)"/><path d="M23.544 74.367a.742.742 0 1 0-.742-.742c-.01.4.322.742.742.742Z" fill="url(#n)"/><path d="M28.562 72.873a.742.742 0 0 0-.742.742c0 .4.342.742.742.742.4 0 .742-.342.742-.742 0-.4-.322-.742-.742-.742Z" fill="url(#o)"/><path d="M33.58 74.367a.742.742 0 1 0 .001-1.484.742.742 0 0 0 0 1.484Z" fill="url(#p)"/><path d="M38.599 74.367a.742.742 0 1 0 0-1.484.742.742 0 0 0 0 1.484Z" fill="url(#q)"/><path d="M43.617 74.367a.742.742 0 1 0 .001-1.483.742.742 0 0 0 0 1.483Z" fill="url(#r)"/><path d="M48.626 74.367a.742.742 0 1 0 0-1.484.742.742 0 0 0 0 1.484Z" fill="url(#s)"/><path d="M23.544 79.384a.742.742 0 1 0-.742-.742.73.73 0 0 0 .742.742Z" fill="url(#t)"/><path d="M28.562 77.89a.742.742 0 0 0-.742.743c0 .4.342.742.742.742.4 0 .742-.342.742-.742 0-.4-.322-.742-.742-.742Z" fill="url(#u)"/><path d="M33.58 79.384a.742.742 0 1 0 .001-1.483.742.742 0 0 0 0 1.483Z" fill="url(#v)"/><path d="M38.599 79.384a.742.742 0 1 0 0-1.483.742.742 0 0 0 0 1.483Z" fill="url(#w)"/><path d="M43.617 79.384a.742.742 0 1 0 .001-1.483.742.742 0 0 0 0 1.483Z" fill="url(#x)"/><path d="M48.626 79.384a.742.742 0 1 0 0-1.483.742.742 0 0 0 0 1.483Z" fill="url(#y)"/><path d="M53.645 74.367a.742.742 0 1 0 0-1.483.742.742 0 0 0 0 1.483Z" fill="url(#z)"/><path d="M58.673 74.367a.742.742 0 1 0-.742-.742c-.01.4.322.742.742.742Z" fill="url(#A)"/><path d="M63.691 74.367a.742.742 0 1 0-.742-.742c-.01.4.332.742.742.742Z" fill="url(#B)"/><path d="M68.7 74.367a.742.742 0 1 0-.742-.742c-.01.4.322.742.742.742Z" fill="url(#C)"/><path d="M73.718 74.367a.742.742 0 1 0-.742-.742c-.01.4.332.742.742.742Z" fill="url(#D)"/><path d="M78.737 72.873a.742.742 0 0 0-.742.742c0 .4.341.742.742.742a.742.742 0 1 0 0-1.484Z" fill="url(#E)"/><path d="M53.645 79.384a.742.742 0 1 0 0-1.483.742.742 0 0 0 0 1.483Z" fill="url(#F)"/><path d="M58.673 79.384a.742.742 0 1 0-.742-.742.73.73 0 0 0 .742.742Z" fill="url(#G)"/><path d="M63.691 79.384a.742.742 0 1 0-.742-.742c-.01.41.332.742.742.742Z" fill="url(#H)"/><path d="M68.7 79.384a.742.742 0 1 0-.742-.742.73.73 0 0 0 .742.742Z" fill="url(#I)"/><path d="M73.718 79.384a.742.742 0 1 0-.742-.742c-.01.41.332.742.742.742Z" fill="url(#J)"/><path d="M78.737 77.89a.742.742 0 0 0-.742.743c0 .4.341.742.742.742a.742.742 0 1 0 0-1.484Z" fill="url(#K)"/><path d="M33.58 88.213a.448.448 0 0 0-.448.449c0 .244.205.45.449.45.244 0 .449-.206.449-.45a.448.448 0 0 0-.45-.45Z" fill="url(#L)"/><path d="M38.599 88.213a.448.448 0 0 0-.45.449c0 .244.206.45.45.45.244 0 .45-.206.45-.45a.448.448 0 0 0-.45-.45Z" fill="url(#M)"/><path d="M43.618 88.213a.448.448 0 0 0-.45.449c0 .244.206.45.45.45.244 0 .449-.206.449-.45a.448.448 0 0 0-.45-.45Z" fill="url(#N)"/><path d="M48.626 88.213a.448.448 0 0 0-.449.449c0 .244.205.45.45.45.243 0 .448-.206.448-.45a.448.448 0 0 0-.449-.45Z" fill="url(#O)"/><path d="M23.544 83.193a.448.448 0 0 0-.45.45c0 .244.206.449.45.449.244 0 .449-.205.449-.45a.454.454 0 0 0-.45-.449Z" fill="url(#P)"/><path d="M28.494 83.994c.244 0 .449-.205.449-.45a.448.448 0 0 0-.45-.448.454.454 0 0 0-.448.449c-.01.244.205.449.449.449Z" fill="url(#Q)"/><path d="M33.58 83.193a.448.448 0 0 0-.448.45c0 .244.205.449.449.449.244 0 .449-.205.449-.45a.448.448 0 0 0-.45-.449Z" fill="url(#R)"/><path d="M38.599 83.193a.448.448 0 0 0-.45.45c0 .244.206.449.45.449.244 0 .45-.205.45-.45a.448.448 0 0 0-.45-.449Z" fill="url(#S)"/><path d="M43.618 83.193a.448.448 0 0 0-.45.45c0 .244.206.449.45.449.244 0 .449-.205.449-.45a.448.448 0 0 0-.45-.449Z" fill="url(#T)"/><path d="M48.626 83.193a.448.448 0 0 0-.449.45c0 .244.205.449.45.449.243 0 .448-.205.448-.45a.448.448 0 0 0-.449-.449Z" fill="url(#U)"/><path d="M43.618 94.138a.45.45 0 1 0 0-.898.45.45 0 0 0 0 .898Z" fill="url(#V)"/><path d="M48.626 93.23a.448.448 0 0 0-.449.45c0 .244.205.449.45.449.243 0 .448-.205.448-.45a.448.448 0 0 0-.449-.448Z" fill="url(#W)"/><path d="M53.645 88.213a.448.448 0 0 0-.45.449c0 .244.206.45.45.45.244 0 .449-.206.449-.45a.448.448 0 0 0-.45-.45Z" fill="url(#X)"/><path d="M58.673 88.213a.448.448 0 0 0-.45.449c0 .244.206.45.45.45.244 0 .449-.206.449-.45a.454.454 0 0 0-.45-.45Z" fill="url(#Y)"/><path d="M63.691 88.213a.448.448 0 0 0-.449.449c0 .244.205.45.45.45.243 0 .448-.206.448-.45a.454.454 0 0 0-.449-.45Z" fill="url(#Z)"/><path d="M68.7 88.213a.448.448 0 0 0-.45.449c0 .244.206.45.45.45.244 0 .449-.206.449-.45a.454.454 0 0 0-.45-.45Z" fill="url(#aa)"/><path d="M53.645 83.193a.448.448 0 0 0-.45.45c0 .244.206.449.45.449.244 0 .449-.205.449-.45a.448.448 0 0 0-.45-.449Z" fill="url(#ab)"/><path d="M58.673 83.193a.448.448 0 0 0-.45.45c0 .244.206.449.45.449.244 0 .449-.205.449-.45a.454.454 0 0 0-.45-.449Z" fill="url(#ac)"/><path d="M63.691 83.193a.448.448 0 0 0-.449.45c0 .244.205.449.45.449.243 0 .448-.205.448-.45a.454.454 0 0 0-.449-.449Z" fill="url(#ad)"/><path d="M68.7 83.193a.448.448 0 0 0-.45.45c0 .244.206.449.45.449.244 0 .449-.205.449-.45a.454.454 0 0 0-.45-.449Z" fill="url(#ae)"/><path d="M73.718 83.193a.448.448 0 0 0-.449.45c0 .244.205.449.45.449.244 0 .449-.205.449-.45a.454.454 0 0 0-.45-.449Z" fill="url(#af)"/><path d="M78.737 83.193a.442.442 0 0 0-.45.45c0 .244.206.449.45.449.244 0 .449-.205.449-.45a.442.442 0 0 0-.45-.449Z" fill="url(#ag)"/><path d="M53.645 93.23a.448.448 0 0 0-.45.45c0 .244.206.449.45.449.244 0 .449-.205.449-.45a.448.448 0 0 0-.45-.448Z" fill="url(#ah)"/><path d="M58.673 93.23a.448.448 0 0 0-.45.45c0 .244.206.449.45.449.244 0 .449-.205.449-.45a.454.454 0 0 0-.45-.448Z" fill="url(#ai)"/><path d="M33.58 17.992a.448.448 0 0 0-.448.45c0 .243.205.448.449.448.244 0 .449-.205.449-.449a.448.448 0 0 0-.45-.449Z" fill="url(#aj)"/><path d="M38.599 17.992a.448.448 0 0 0-.45.45c0 .243.206.448.45.448.244 0 .45-.205.45-.449a.448.448 0 0 0-.45-.449Z" fill="url(#ak)"/><path d="M43.618 17.992a.448.448 0 0 0-.45.45c0 .243.206.448.45.448.244 0 .449-.205.449-.449a.448.448 0 0 0-.45-.449Z" fill="url(#al)"/><path d="M48.626 17.992a.448.448 0 0 0-.449.45c0 .243.205.448.45.448.243 0 .448-.205.448-.449a.448.448 0 0 0-.449-.449Z" fill="url(#am)"/><path d="M43.618 12.975a.448.448 0 0 0-.45.449c0 .244.206.449.45.449.244 0 .449-.205.449-.45a.448.448 0 0 0-.45-.448Z" fill="url(#an)"/><path d="M48.626 12.975a.448.448 0 0 0-.449.449c0 .244.205.449.45.449.243 0 .448-.205.448-.45a.448.448 0 0 0-.449-.448Z" fill="url(#ao)"/><path d="M23.544 23.002a.448.448 0 0 0-.45.45c0 .243.206.448.45.448.244 0 .449-.205.449-.449a.454.454 0 0 0-.45-.449Z" fill="url(#ap)"/><path d="M28.562 23.002a.448.448 0 0 0-.449.45c0 .243.205.448.45.448.243 0 .448-.205.448-.449a.454.454 0 0 0-.449-.449Z" fill="url(#aq)"/><path d="M33.58 23.002a.448.448 0 0 0-.448.45c0 .243.205.448.449.448.244 0 .449-.205.449-.449a.448.448 0 0 0-.45-.449Z" fill="url(#ar)"/><path d="M48.626 23.002a.448.448 0 0 0-.449.45c0 .243.205.448.45.448.243 0 .448-.205.448-.449a.448.448 0 0 0-.449-.449Z" fill="url(#as)"/><path d="M53.645 17.992a.448.448 0 0 0-.45.45c0 .243.206.448.45.448.244 0 .449-.205.449-.449a.448.448 0 0 0-.45-.449Z" fill="url(#at)"/><path d="M58.673 17.992a.448.448 0 0 0-.45.45c0 .243.206.448.45.448.244 0 .449-.205.449-.449a.454.454 0 0 0-.45-.449Z" fill="url(#au)"/><path d="M63.691 17.992a.448.448 0 0 0-.449.45c0 .243.205.448.45.448.243 0 .448-.205.448-.449a.454.454 0 0 0-.449-.449Z" fill="url(#av)"/><path d="M68.7 17.992a.448.448 0 0 0-.45.45c0 .243.196.458.45.458s.449-.205.449-.449a.463.463 0 0 0-.45-.459Z" fill="url(#aw)"/><path d="M53.645 12.975a.448.448 0 0 0-.45.449c0 .244.206.449.45.449.244 0 .449-.205.449-.45a.448.448 0 0 0-.45-.448Z" fill="url(#ax)"/><path d="M58.673 12.975a.448.448 0 0 0-.45.449c0 .244.206.449.45.449.244 0 .449-.205.449-.45a.454.454 0 0 0-.45-.448Z" fill="url(#ay)"/><path d="M53.645 23.002a.448.448 0 0 0-.45.45c0 .243.206.448.45.448.244 0 .449-.205.449-.449a.448.448 0 0 0-.45-.449Z" fill="url(#az)"/><path d="M58.673 23.002a.448.448 0 0 0-.45.45c0 .243.206.448.45.448.244 0 .449-.205.449-.449a.454.454 0 0 0-.45-.449Z" fill="url(#aA)"/><path d="M63.691 23.002a.448.448 0 0 0-.449.45c0 .243.205.448.45.448.243 0 .448-.205.448-.449a.454.454 0 0 0-.449-.449Z" fill="url(#aB)"/><path d="M68.7 23.002a.448.448 0 0 0-.45.45c0 .243.196.458.45.458s.449-.205.449-.45a.463.463 0 0 0-.45-.458Z" fill="url(#aC)"/><path d="M73.718 23.002a.448.448 0 0 0-.449.45c0 .243.205.448.45.448.244 0 .449-.205.449-.449a.454.454 0 0 0-.45-.449Z" fill="url(#aD)"/><path d="M78.737 23.002a.448.448 0 0 0-.45.45c0 .243.206.448.45.448.244 0 .449-.205.449-.449a.448.448 0 0 0-.45-.449Z" fill="url(#aE)"/><path d="M83.746 27.99a.454.454 0 0 0-.45.45c0 .243.205.448.45.448.244 0 .449-.205.449-.449a.448.448 0 0 0-.45-.449Z" fill="url(#aF)"/><path d="M83.746 38.027a.448.448 0 0 0-.45.45c0 .244.205.449.45.449.244 0 .449-.205.449-.45a.448.448 0 0 0-.45-.449Z" fill="url(#aG)"/><path d="M88.764 38.027a.448.448 0 0 0-.45.45c0 .244.206.449.45.449.244 0 .449-.205.449-.45a.448.448 0 0 0-.45-.449Z" fill="url(#aH)"/><path d="M83.677 33.81c.244 0 .45-.205.45-.449a.442.442 0 0 0-.45-.449.454.454 0 0 0-.449.45c-.01.243.205.448.45.448Z" fill="url(#aI)"/><path d="M83.746 43.037a.442.442 0 0 0-.45.45c0 .243.205.448.45.448.244 0 .449-.205.449-.449a.448.448 0 0 0-.45-.449Z" fill="url(#aJ)"/><path d="M88.764 43.057a.448.448 0 0 0-.45.449c0 .244.206.449.45.449.244 0 .449-.205.449-.45a.448.448 0 0 0-.45-.448Z" fill="url(#aK)"/><path d="M83.746 48.055a.448.448 0 0 0-.45.449c0 .244.205.449.45.449.244 0 .449-.205.449-.45a.448.448 0 0 0-.45-.448Z" fill="url(#aL)"/><path d="M88.764 48.074a.448.448 0 0 0-.45.45c0 .243.206.448.45.448.244 0 .449-.205.449-.449a.448.448 0 0 0-.45-.449Z" fill="url(#aM)"/><path d="M88.764 53.084a.448.448 0 0 0-.45.45c0 .243.196.448.45.448s.449-.205.449-.449a.448.448 0 0 0-.45-.449Z" fill="url(#aN)"/><path d="M88.764 58.102a.448.448 0 0 0-.45.449c0 .244.206.449.45.449.244 0 .449-.205.449-.45a.448.448 0 0 0-.45-.448Z" fill="url(#aO)"/><path d="M83.746 68.129a.442.442 0 0 0-.45.449c0 .244.205.45.45.45.244 0 .449-.206.449-.45a.442.442 0 0 0-.45-.45Z" fill="url(#aP)"/><path d="M88.764 68.139a.448.448 0 0 0-.45.449c0 .244.206.449.45.449.244 0 .449-.205.449-.45a.448.448 0 0 0-.45-.448Z" fill="url(#aQ)"/><path d="M88.764 63.12a.448.448 0 0 0-.45.448c0 .244.206.45.45.45.244 0 .449-.206.449-.45a.448.448 0 0 0-.45-.449Z" fill="url(#aR)"/><path d="M83.746 73.147a.442.442 0 0 0-.45.449c0 .244.205.449.45.449.244 0 .449-.205.449-.45a.442.442 0 0 0-.45-.448Z" fill="url(#aS)"/><path d="M83.746 78.166a.448.448 0 0 0-.45.45c0 .243.205.448.45.448.244 0 .449-.205.449-.449a.448.448 0 0 0-.45-.449Z" fill="url(#aT)"/><path d="M18.525 27.99a.448.448 0 0 0-.449.45c0 .243.205.448.45.448.243 0 .448-.205.448-.449a.454.454 0 0 0-.449-.449Z" fill="url(#aU)"/><path d="M13.497 38.027a.456.456 0 0 0-.449.46c0 .253.205.448.45.448a.454.454 0 0 0 0-.908Z" fill="url(#aV)"/><path d="M18.525 38.935a.45.45 0 1 0 0-.898.45.45 0 0 0 0 .898Z" fill="url(#aW)"/><path d="M18.525 33.918a.45.45 0 1 0 0-.898.45.45 0 0 0 0 .898Z" fill="url(#aX)"/><path d="M13.497 43.057a.448.448 0 0 0-.449.449c0 .254.205.449.45.449.243 0 .448-.205.448-.45a.448.448 0 0 0-.449-.448Z" fill="url(#aY)"/><path d="M18.525 43.955a.45.45 0 1 0 0-.898.45.45 0 0 0 0 .898Z" fill="url(#aZ)"/><path d="M13.497 48.074a.454.454 0 0 0-.449.45c0 .243.205.448.45.448.243 0 .448-.205.448-.449a.448.448 0 0 0-.449-.449Z" fill="url(#ba)"/><path d="M18.525 48.972a.45.45 0 1 0 0-.898.45.45 0 0 0 0 .898Z" fill="url(#bb)"/><path d="M13.497 53.084a.454.454 0 0 0-.449.45c0 .243.205.448.45.448.243 0 .448-.205.448-.449a.448.448 0 0 0-.449-.449Z" fill="url(#bc)"/><path d="M13.497 58.102a.454.454 0 0 0-.449.449c0 .244.205.449.45.449.243 0 .448-.205.448-.45a.448.448 0 0 0-.449-.448Z" fill="url(#bd)"/><path d="M13.497 68.139a.456.456 0 0 0-.449.459c0 .253.205.449.45.449a.454.454 0 0 0 0-.908Z" fill="url(#be)"/><path d="M18.525 69.047a.45.45 0 1 0 0-.899.45.45 0 0 0 0 .899Z" fill="url(#bf)"/><path d="M13.497 63.12a.454.454 0 0 0-.449.448c0 .244.205.45.45.45.243 0 .448-.206.448-.45a.448.448 0 0 0-.449-.449Z" fill="url(#bg)"/><path d="M18.525 73.147a.448.448 0 0 0-.449.449c0 .244.205.449.45.449.243 0 .448-.205.448-.45a.454.454 0 0 0-.449-.448Z" fill="url(#bh)"/><path d="M18.525 79.074a.45.45 0 1 0 0-.898.45.45 0 0 0 0 .898Z" fill="url(#bi)"/><path opacity=".15" d="M78.144 66.845H25.201a9.747 9.747 0 0 1-9.469-7.48c-.172.72-.278-.606-.278.172a9.757 9.757 0 0 0 9.747 9.748h52.943a9.759 9.759 0 0 0 9.748-9.748c0-.778-.105.557-.278-.173a9.749 9.749 0 0 1-9.47 7.481Z" fill="#1F1D20"/><path opacity=".25" d="M25.203 66.845a9.718 9.718 0 0 1-1.373-19.342 20.017 20.017 0 0 1-.605-4.801A19.475 19.475 0 0 1 59.88 33.55a12.407 12.407 0 0 1 5.387-1.24 12.206 12.206 0 0 1 12.187 12.178 12.984 12.984 0 0 1-.374 2.996c.367-.04.735-.056 1.104-.048a9.604 9.604 0 0 1 9.71 9.651 9.749 9.749 0 0 1-9.749 9.738l-52.944.02Z" fill="url(#bj)"/><path d="M25.203 66.845a9.718 9.718 0 0 1-1.373-19.342 20.017 20.017 0 0 1-.605-4.801A19.475 19.475 0 0 1 59.88 33.55a12.407 12.407 0 0 1 5.387-1.24 12.206 12.206 0 0 1 12.187 12.178 12.984 12.984 0 0 1-.374 2.996c.367-.04.735-.056 1.104-.048a9.604 9.604 0 0 1 9.71 9.651 9.749 9.749 0 0 1-9.749 9.738l-52.944.02Z" stroke="#fff" stroke-width=".726" stroke-miterlimit="10"/><path opacity=".25" d="M23.377 45.006c-.09.74-.142 1.483-.154 2.228v.374a5.75 5.75 0 0 1 .585-.106c-.2-.821-.343-1.655-.431-2.496Z" fill="url(#bk)"/><path opacity=".25" d="M77.338 47.485c0-.26-.067-.509-.115-.758-.048.259-.077.518-.144.777.086-.016.172-.022.259-.02Z" fill="url(#bl)"/><path opacity=".2" d="M45.631 70.336a.774.774 0 0 0 .775-.774V51.254H26.84v18.308c0 .428.346.774.774.774h18.016Z" fill="#1F1D21"/><path d="M46.406 51.246v-.303a.68.68 0 0 0-.681-.681H27.522a.68.68 0 0 0-.68.68V69.006a.68.68 0 0 0 .68.681h18.21a.68.68 0 0 0 .681-.68V51.276c-.003-.011-.007-.02-.007-.03Z" fill="#fff"/><path d="M32.49 65.01h-1.995v2.607h1.992V65.01h.004Z" fill="#45CAF2"/><path d="M35.468 63.28h-2.024v4.338h2.031v-4.339h-.008Z" fill="#50E6FF"/><path d="M39.075 60.465h-2.608v7.14h2.608v-7.14Z" fill="#32B0E7"/><path d="M43.16 57.547h-2.996v10.059h2.996v-10.06Z" fill="#185A97"/><path d="m31.67 62.558-.362-.172 2.743-4.972 3.658.361 3.794-2.996.296.269-3.954 3.171-3.572-.339-2.603 4.678Z" fill="#16B2E6"/><path d="M31.082 63.417a.9.9 0 0 0 .467-1.736.9.9 0 0 0-.467 1.736ZM33.985 58.628a.9.9 0 0 0 .467-1.736.9.9 0 0 0-.467 1.736ZM37.46 58.839a.9.9 0 0 0 .467-1.736.9.9 0 0 0-1.101.634.901.901 0 0 0 .634 1.102ZM41.125 55.744a.902.902 0 0 0 .888-1.568.902.902 0 0 0-.888 1.568Z" fill="#059"/><path d="M68.76 50.126V44.04H55.421v6.085h-7.304v19.577h28V50.126h-7.359Zm-10.336-3.078h7.388v3.078h-7.388v-3.078Z" fill="#1D4A79"/><path d="M67.29 58.595h-3.677v-3.808h-2.996v3.808H56.94V61.7h3.677v3.808h2.996V61.7h3.677v-3.104Z" fill="#50E6FF"/><defs><linearGradient id="a" x1="49.617" y1="-13.271" x2="53.599" y2="132.5" gradientUnits="userSpaceOnUse"><stop stop-color="#00ABDE"/><stop offset="1" stop-color="#007ED8"/></linearGradient><linearGradient id="b" x1="2.821" y1="-20.103" x2="98.349" y2="120.778" gradientUnits="userSpaceOnUse"><stop stop-color="#007ED8"/><stop offset=".707" stop-color="#002D4C"/></linearGradient><linearGradient id="c" x1="18.756" y1="10.87" x2="54.181" y2="141.132" gradientUnits="userSpaceOnUse"><stop offset=".043" stop-color="#fff"/><stop offset=".486" stop-color="#4DC1EA"/><stop offset=".845" stop-color="#0078D4"/></linearGradient><linearGradient id="d" x1="17.484" y1="11.215" x2="52.91" y2="141.477" gradientUnits="userSpaceOnUse"><stop offset=".043" stop-color="#fff"/><stop offset=".486" stop-color="#4DC1EA"/><stop offset=".845" stop-color="#0078D4"/></linearGradient><linearGradient id="e" x1="51.465" y1="1.974" x2="86.89" y2="132.236" gradientUnits="userSpaceOnUse"><stop offset=".043" stop-color="#fff"/><stop offset=".486" stop-color="#4DC1EA"/><stop offset=".845" stop-color="#0078D4"/></linearGradient><linearGradient id="f" x1="56.14" y1=".703" x2="91.565" y2="130.965" gradientUnits="userSpaceOnUse"><stop offset=".043" stop-color="#fff"/><stop offset=".486" stop-color="#4DC1EA"/><stop offset=".845" stop-color="#0078D4"/></linearGradient><linearGradient id="g" x1="60.803" y1="-.565" x2="96.228" y2="129.697" gradientUnits="userSpaceOnUse"><stop offset=".043" stop-color="#fff"/><stop offset=".486" stop-color="#4DC1EA"/><stop offset=".845" stop-color="#0078D4"/></linearGradient><linearGradient id="h" x1="65.477" y1="-1.836" x2="100.903" y2="128.425" gradientUnits="userSpaceOnUse"><stop offset=".043" stop-color="#fff"/><stop offset=".486" stop-color="#4DC1EA"/><stop offset=".845" stop-color="#0078D4"/></linearGradient><linearGradient id="i" x1="70.15" y1="-3.107" x2="105.575" y2="127.155" gradientUnits="userSpaceOnUse"><stop offset=".043" stop-color="#fff"/><stop offset=".486" stop-color="#4DC1EA"/><stop offset=".845" stop-color="#0078D4"/></linearGradient><linearGradient id="j" x1="67.609" y1="-2.416" x2="103.034" y2="127.846" gradientUnits="userSpaceOnUse"><stop offset=".043" stop-color="#fff"/><stop offset=".486" stop-color="#4DC1EA"/><stop offset=".845" stop-color="#0078D4"/></linearGradient><linearGradient id="k" x1="64.206" y1="-1.492" x2="99.631" y2="128.77" gradientUnits="userSpaceOnUse"><stop offset=".043" stop-color="#fff"/><stop offset=".486" stop-color="#4DC1EA"/><stop offset=".845" stop-color="#0078D4"/></linearGradient><linearGradient id="l" x1="68.88" y1="-2.763" x2="104.305" y2="127.499" gradientUnits="userSpaceOnUse"><stop offset=".043" stop-color="#fff"/><stop offset=".486" stop-color="#4DC1EA"/><stop offset=".845" stop-color="#0078D4"/></linearGradient><linearGradient id="m" x1="66.341" y1="-2.072" x2="101.766" y2="128.19" gradientUnits="userSpaceOnUse"><stop offset=".043" stop-color="#fff"/><stop offset=".486" stop-color="#4DC1EA"/><stop offset=".845" stop-color="#0078D4"/></linearGradient><linearGradient id="n" x1="7.321" y1="13.98" x2="42.746" y2="144.241" gradientUnits="userSpaceOnUse"><stop offset=".043" stop-color="#fff"/><stop offset=".486" stop-color="#4DC1EA"/><stop offset=".845" stop-color="#0078D4"/></linearGradient><linearGradient id="o" x1="11.996" y1="12.708" x2="47.422" y2="142.97" gradientUnits="userSpaceOnUse"><stop offset=".043" stop-color="#fff"/><stop offset=".486" stop-color="#4DC1EA"/><stop offset=".845" stop-color="#0078D4"/></linearGradient><linearGradient id="p" x1="16.671" y1="11.437" x2="52.096" y2="141.699" gradientUnits="userSpaceOnUse"><stop offset=".043" stop-color="#fff"/><stop offset=".486" stop-color="#4DC1EA"/><stop offset=".845" stop-color="#0078D4"/></linearGradient><linearGradient id="q" x1="21.344" y1="10.166" x2="56.77" y2="140.428" gradientUnits="userSpaceOnUse"><stop offset=".043" stop-color="#fff"/><stop offset=".486" stop-color="#4DC1EA"/><stop offset=".845" stop-color="#0078D4"/></linearGradient><linearGradient id="r" x1="26.019" y1="8.894" x2="61.445" y2="139.156" gradientUnits="userSpaceOnUse"><stop offset=".043" stop-color="#fff"/><stop offset=".486" stop-color="#4DC1EA"/><stop offset=".845" stop-color="#0078D4"/></linearGradient><linearGradient id="s" x1="30.682" y1="7.626" x2="66.107" y2="137.888" gradientUnits="userSpaceOnUse"><stop offset=".043" stop-color="#fff"/><stop offset=".486" stop-color="#4DC1EA"/><stop offset=".845" stop-color="#0078D4"/></linearGradient><linearGradient id="t" x1="6.05" y1="14.325" x2="41.475" y2="144.586" gradientUnits="userSpaceOnUse"><stop offset=".043" stop-color="#fff"/><stop offset=".486" stop-color="#4DC1EA"/><stop offset=".845" stop-color="#0078D4"/></linearGradient><linearGradient id="u" x1="10.725" y1="13.053" x2="46.15" y2="143.315" gradientUnits="userSpaceOnUse"><stop offset=".043" stop-color="#fff"/><stop offset=".486" stop-color="#4DC1EA"/><stop offset=".845" stop-color="#0078D4"/></linearGradient><linearGradient id="v" x1="15.399" y1="11.782" x2="50.825" y2="142.044" gradientUnits="userSpaceOnUse"><stop offset=".043" stop-color="#fff"/><stop offset=".486" stop-color="#4DC1EA"/><stop offset=".845" stop-color="#0078D4"/></linearGradient><linearGradient id="w" x1="20.073" y1="10.511" x2="55.498" y2="140.772" gradientUnits="userSpaceOnUse"><stop offset=".043" stop-color="#fff"/><stop offset=".486" stop-color="#4DC1EA"/><stop offset=".845" stop-color="#0078D4"/></linearGradient><linearGradient id="x" x1="24.748" y1="9.24" x2="60.173" y2="139.501" gradientUnits="userSpaceOnUse"><stop offset=".043" stop-color="#fff"/><stop offset=".486" stop-color="#4DC1EA"/><stop offset=".845" stop-color="#0078D4"/></linearGradient><linearGradient id="y" x1="29.41" y1="7.972" x2="64.835" y2="138.233" gradientUnits="userSpaceOnUse"><stop offset=".043" stop-color="#fff"/><stop offset=".486" stop-color="#4DC1EA"/><stop offset=".845" stop-color="#0078D4"/></linearGradient><linearGradient id="z" x1="35.357" y1="6.355" x2="70.782" y2="136.617" gradientUnits="userSpaceOnUse"><stop offset=".043" stop-color="#fff"/><stop offset=".486" stop-color="#4DC1EA"/><stop offset=".845" stop-color="#0078D4"/></linearGradient><linearGradient id="A" x1="40.031" y1="5.084" x2="75.456" y2="135.346" gradientUnits="userSpaceOnUse"><stop offset=".043" stop-color="#fff"/><stop offset=".486" stop-color="#4DC1EA"/><stop offset=".845" stop-color="#0078D4"/></linearGradient><linearGradient id="B" x1="44.705" y1="3.813" x2="80.131" y2="134.075" gradientUnits="userSpaceOnUse"><stop offset=".043" stop-color="#fff"/><stop offset=".486" stop-color="#4DC1EA"/><stop offset=".845" stop-color="#0078D4"/></linearGradient><linearGradient id="C" x1="49.368" y1="2.545" x2="84.793" y2="132.807" gradientUnits="userSpaceOnUse"><stop offset=".043" stop-color="#fff"/><stop offset=".486" stop-color="#4DC1EA"/><stop offset=".845" stop-color="#0078D4"/></linearGradient><linearGradient id="D" x1="54.043" y1="1.273" x2="89.468" y2="131.535" gradientUnits="userSpaceOnUse"><stop offset=".043" stop-color="#fff"/><stop offset=".486" stop-color="#4DC1EA"/><stop offset=".845" stop-color="#0078D4"/></linearGradient><linearGradient id="E" x1="58.717" y1=".002" x2="94.142" y2="130.264" gradientUnits="userSpaceOnUse"><stop offset=".043" stop-color="#fff"/><stop offset=".486" stop-color="#4DC1EA"/><stop offset=".845" stop-color="#0078D4"/></linearGradient><linearGradient id="F" x1="34.085" y1="6.7" x2="69.511" y2="136.962" gradientUnits="userSpaceOnUse"><stop offset=".043" stop-color="#fff"/><stop offset=".486" stop-color="#4DC1EA"/><stop offset=".845" stop-color="#0078D4"/></linearGradient><linearGradient id="G" x1="38.759" y1="5.429" x2="74.184" y2="135.691" gradientUnits="userSpaceOnUse"><stop offset=".043" stop-color="#fff"/><stop offset=".486" stop-color="#4DC1EA"/><stop offset=".845" stop-color="#0078D4"/></linearGradient><linearGradient id="H" x1="43.434" y1="4.158" x2="78.859" y2="134.419" gradientUnits="userSpaceOnUse"><stop offset=".043" stop-color="#fff"/><stop offset=".486" stop-color="#4DC1EA"/><stop offset=".845" stop-color="#0078D4"/></linearGradient><linearGradient id="I" x1="48.097" y1="2.89" x2="83.522" y2="133.151" gradientUnits="userSpaceOnUse"><stop offset=".043" stop-color="#fff"/><stop offset=".486" stop-color="#4DC1EA"/><stop offset=".845" stop-color="#0078D4"/></linearGradient><linearGradient id="J" x1="52.771" y1="1.619" x2="88.197" y2="131.88" gradientUnits="userSpaceOnUse"><stop offset=".043" stop-color="#fff"/><stop offset=".486" stop-color="#4DC1EA"/><stop offset=".845" stop-color="#0078D4"/></linearGradient><linearGradient id="K" x1="57.445" y1=".347" x2="92.871" y2="130.609" gradientUnits="userSpaceOnUse"><stop offset=".043" stop-color="#fff"/><stop offset=".486" stop-color="#4DC1EA"/><stop offset=".845" stop-color="#0078D4"/></linearGradient><linearGradient id="L" x1="12.861" y1="12.474" x2="48.286" y2="142.737" gradientUnits="userSpaceOnUse"><stop offset=".043" stop-color="#fff"/><stop offset=".486" stop-color="#4DC1EA"/><stop offset=".845" stop-color="#0078D4"/></linearGradient><linearGradient id="M" x1="17.534" y1="11.203" x2="52.96" y2="141.466" gradientUnits="userSpaceOnUse"><stop offset=".043" stop-color="#fff"/><stop offset=".486" stop-color="#4DC1EA"/><stop offset=".845" stop-color="#0078D4"/></linearGradient><linearGradient id="N" x1="22.209" y1="9.932" x2="57.635" y2="140.194" gradientUnits="userSpaceOnUse"><stop offset=".043" stop-color="#fff"/><stop offset=".486" stop-color="#4DC1EA"/><stop offset=".845" stop-color="#0078D4"/></linearGradient><linearGradient id="O" x1="26.871" y1="8.664" x2="62.297" y2="138.926" gradientUnits="userSpaceOnUse"><stop offset=".043" stop-color="#fff"/><stop offset=".486" stop-color="#4DC1EA"/><stop offset=".845" stop-color="#0078D4"/></linearGradient><linearGradient id="P" x1="4.782" y1="14.671" x2="40.207" y2="144.932" gradientUnits="userSpaceOnUse"><stop offset=".043" stop-color="#fff"/><stop offset=".486" stop-color="#4DC1EA"/><stop offset=".845" stop-color="#0078D4"/></linearGradient><linearGradient id="Q" x1="9.419" y1="13.409" x2="44.844" y2="143.671" gradientUnits="userSpaceOnUse"><stop offset=".043" stop-color="#fff"/><stop offset=".486" stop-color="#4DC1EA"/><stop offset=".845" stop-color="#0078D4"/></linearGradient><linearGradient id="R" x1="14.132" y1="12.128" x2="49.557" y2="142.389" gradientUnits="userSpaceOnUse"><stop offset=".043" stop-color="#fff"/><stop offset=".486" stop-color="#4DC1EA"/><stop offset=".845" stop-color="#0078D4"/></linearGradient><linearGradient id="S" x1="18.805" y1="10.857" x2="54.231" y2="141.118" gradientUnits="userSpaceOnUse"><stop offset=".043" stop-color="#fff"/><stop offset=".486" stop-color="#4DC1EA"/><stop offset=".845" stop-color="#0078D4"/></linearGradient><linearGradient id="T" x1="23.48" y1="9.586" x2="58.906" y2="139.847" gradientUnits="userSpaceOnUse"><stop offset=".043" stop-color="#fff"/><stop offset=".486" stop-color="#4DC1EA"/><stop offset=".845" stop-color="#0078D4"/></linearGradient><linearGradient id="U" x1="28.142" y1="8.318" x2="63.568" y2="138.579" gradientUnits="userSpaceOnUse"><stop offset=".043" stop-color="#fff"/><stop offset=".486" stop-color="#4DC1EA"/><stop offset=".845" stop-color="#0078D4"/></linearGradient><linearGradient id="V" x1="20.938" y1="10.277" x2="56.363" y2="140.539" gradientUnits="userSpaceOnUse"><stop offset=".043" stop-color="#fff"/><stop offset=".486" stop-color="#4DC1EA"/><stop offset=".845" stop-color="#0078D4"/></linearGradient><linearGradient id="W" x1="25.6" y1="9.009" x2="61.026" y2="139.271" gradientUnits="userSpaceOnUse"><stop offset=".043" stop-color="#fff"/><stop offset=".486" stop-color="#4DC1EA"/><stop offset=".845" stop-color="#0078D4"/></linearGradient><linearGradient id="X" x1="31.547" y1="7.392" x2="66.972" y2="137.655" gradientUnits="userSpaceOnUse"><stop offset=".043" stop-color="#fff"/><stop offset=".486" stop-color="#4DC1EA"/><stop offset=".845" stop-color="#0078D4"/></linearGradient><linearGradient id="Y" x1="36.22" y1="6.121" x2="71.646" y2="136.384" gradientUnits="userSpaceOnUse"><stop offset=".043" stop-color="#fff"/><stop offset=".486" stop-color="#4DC1EA"/><stop offset=".845" stop-color="#0078D4"/></linearGradient><linearGradient id="Z" x1="40.895" y1="4.85" x2="76.321" y2="135.112" gradientUnits="userSpaceOnUse"><stop offset=".043" stop-color="#fff"/><stop offset=".486" stop-color="#4DC1EA"/><stop offset=".845" stop-color="#0078D4"/></linearGradient><linearGradient id="aa" x1="45.557" y1="3.582" x2="80.983" y2="133.844" gradientUnits="userSpaceOnUse"><stop offset=".043" stop-color="#fff"/><stop offset=".486" stop-color="#4DC1EA"/><stop offset=".845" stop-color="#0078D4"/></linearGradient><linearGradient id="ab" x1="32.818" y1="7.046" x2="68.243" y2="137.308" gradientUnits="userSpaceOnUse"><stop offset=".043" stop-color="#fff"/><stop offset=".486" stop-color="#4DC1EA"/><stop offset=".845" stop-color="#0078D4"/></linearGradient><linearGradient id="ac" x1="37.491" y1="5.775" x2="72.916" y2="136.037" gradientUnits="userSpaceOnUse"><stop offset=".043" stop-color="#fff"/><stop offset=".486" stop-color="#4DC1EA"/><stop offset=".845" stop-color="#0078D4"/></linearGradient><linearGradient id="ad" x1="42.166" y1="4.504" x2="77.591" y2="134.765" gradientUnits="userSpaceOnUse"><stop offset=".043" stop-color="#fff"/><stop offset=".486" stop-color="#4DC1EA"/><stop offset=".845" stop-color="#0078D4"/></linearGradient><linearGradient id="ae" x1="46.829" y1="3.236" x2="82.254" y2="133.497" gradientUnits="userSpaceOnUse"><stop offset=".043" stop-color="#fff"/><stop offset=".486" stop-color="#4DC1EA"/><stop offset=".845" stop-color="#0078D4"/></linearGradient><linearGradient id="af" x1="51.504" y1="1.965" x2="86.929" y2="132.226" gradientUnits="userSpaceOnUse"><stop offset=".043" stop-color="#fff"/><stop offset=".486" stop-color="#4DC1EA"/><stop offset=".845" stop-color="#0078D4"/></linearGradient><linearGradient id="ag" x1="56.178" y1=".693" x2="91.603" y2="130.955" gradientUnits="userSpaceOnUse"><stop offset=".043" stop-color="#fff"/><stop offset=".486" stop-color="#4DC1EA"/><stop offset=".845" stop-color="#0078D4"/></linearGradient><linearGradient id="ah" x1="30.275" y1="7.737" x2="65.701" y2="138" gradientUnits="userSpaceOnUse"><stop offset=".043" stop-color="#fff"/><stop offset=".486" stop-color="#4DC1EA"/><stop offset=".845" stop-color="#0078D4"/></linearGradient><linearGradient id="ai" x1="34.949" y1="6.466" x2="70.374" y2="136.729" gradientUnits="userSpaceOnUse"><stop offset=".043" stop-color="#fff"/><stop offset=".486" stop-color="#4DC1EA"/><stop offset=".845" stop-color="#0078D4"/></linearGradient><linearGradient id="aj" x1="30.641" y1="7.637" x2="66.067" y2="137.899" gradientUnits="userSpaceOnUse"><stop offset=".043" stop-color="#fff"/><stop offset=".486" stop-color="#4DC1EA"/><stop offset=".845" stop-color="#0078D4"/></linearGradient><linearGradient id="ak" x1="35.315" y1="6.366" x2="70.74" y2="136.628" gradientUnits="userSpaceOnUse"><stop offset=".043" stop-color="#fff"/><stop offset=".486" stop-color="#4DC1EA"/><stop offset=".845" stop-color="#0078D4"/></linearGradient><linearGradient id="al" x1="39.99" y1="5.095" x2="75.415" y2="135.357" gradientUnits="userSpaceOnUse"><stop offset=".043" stop-color="#fff"/><stop offset=".486" stop-color="#4DC1EA"/><stop offset=".845" stop-color="#0078D4"/></linearGradient><linearGradient id="am" x1="44.652" y1="3.827" x2="80.077" y2="134.089" gradientUnits="userSpaceOnUse"><stop offset=".043" stop-color="#fff"/><stop offset=".486" stop-color="#4DC1EA"/><stop offset=".845" stop-color="#0078D4"/></linearGradient><linearGradient id="an" x1="41.261" y1="4.75" x2="76.686" y2="135.012" gradientUnits="userSpaceOnUse"><stop offset=".043" stop-color="#fff"/><stop offset=".486" stop-color="#4DC1EA"/><stop offset=".845" stop-color="#0078D4"/></linearGradient><linearGradient id="ao" x1="45.923" y1="3.482" x2="81.349" y2="133.744" gradientUnits="userSpaceOnUse"><stop offset=".043" stop-color="#fff"/><stop offset=".486" stop-color="#4DC1EA"/><stop offset=".845" stop-color="#0078D4"/></linearGradient><linearGradient id="ap" x1="20.024" y1="10.526" x2="55.449" y2="140.788" gradientUnits="userSpaceOnUse"><stop offset=".043" stop-color="#fff"/><stop offset=".486" stop-color="#4DC1EA"/><stop offset=".845" stop-color="#0078D4"/></linearGradient><linearGradient id="aq" x1="24.699" y1="9.254" x2="60.124" y2="139.516" gradientUnits="userSpaceOnUse"><stop offset=".043" stop-color="#fff"/><stop offset=".486" stop-color="#4DC1EA"/><stop offset=".845" stop-color="#0078D4"/></linearGradient><linearGradient id="ar" x1="29.373" y1="7.983" x2="64.799" y2="138.245" gradientUnits="userSpaceOnUse"><stop offset=".043" stop-color="#fff"/><stop offset=".486" stop-color="#4DC1EA"/><stop offset=".845" stop-color="#0078D4"/></linearGradient><linearGradient id="as" x1="43.384" y1="4.173" x2="78.809" y2="134.435" gradientUnits="userSpaceOnUse"><stop offset=".043" stop-color="#fff"/><stop offset=".486" stop-color="#4DC1EA"/><stop offset=".845" stop-color="#0078D4"/></linearGradient><linearGradient id="at" x1="49.327" y1="2.556" x2="84.752" y2="132.817" gradientUnits="userSpaceOnUse"><stop offset=".043" stop-color="#fff"/><stop offset=".486" stop-color="#4DC1EA"/><stop offset=".845" stop-color="#0078D4"/></linearGradient><linearGradient id="au" x1="54.001" y1="1.285" x2="89.426" y2="131.546" gradientUnits="userSpaceOnUse"><stop offset=".043" stop-color="#fff"/><stop offset=".486" stop-color="#4DC1EA"/><stop offset=".845" stop-color="#0078D4"/></linearGradient><linearGradient id="av" x1="58.676" y1=".013" x2="94.101" y2="130.275" gradientUnits="userSpaceOnUse"><stop offset=".043" stop-color="#fff"/><stop offset=".486" stop-color="#4DC1EA"/><stop offset=".845" stop-color="#0078D4"/></linearGradient><linearGradient id="aw" x1="63.338" y1="-1.255" x2="98.764" y2="129.007" gradientUnits="userSpaceOnUse"><stop offset=".043" stop-color="#fff"/><stop offset=".486" stop-color="#4DC1EA"/><stop offset=".845" stop-color="#0078D4"/></linearGradient><linearGradient id="ax" x1="50.599" y1="2.211" x2="86.024" y2="132.472" gradientUnits="userSpaceOnUse"><stop offset=".043" stop-color="#fff"/><stop offset=".486" stop-color="#4DC1EA"/><stop offset=".845" stop-color="#0078D4"/></linearGradient><linearGradient id="ay" x1="55.272" y1=".94" x2="90.697" y2="131.202" gradientUnits="userSpaceOnUse"><stop offset=".043" stop-color="#fff"/><stop offset=".486" stop-color="#4DC1EA"/><stop offset=".845" stop-color="#0078D4"/></linearGradient><linearGradient id="az" x1="48.059" y1="2.901" x2="83.485" y2="133.163" gradientUnits="userSpaceOnUse"><stop offset=".043" stop-color="#fff"/><stop offset=".486" stop-color="#4DC1EA"/><stop offset=".845" stop-color="#0078D4"/></linearGradient><linearGradient id="aA" x1="52.733" y1="1.63" x2="88.158" y2="131.892" gradientUnits="userSpaceOnUse"><stop offset=".043" stop-color="#fff"/><stop offset=".486" stop-color="#4DC1EA"/><stop offset=".845" stop-color="#0078D4"/></linearGradient><linearGradient id="aB" x1="57.408" y1=".359" x2="92.833" y2="130.621" gradientUnits="userSpaceOnUse"><stop offset=".043" stop-color="#fff"/><stop offset=".486" stop-color="#4DC1EA"/><stop offset=".845" stop-color="#0078D4"/></linearGradient><linearGradient id="aC" x1="62.07" y1="-.909" x2="97.496" y2="129.353" gradientUnits="userSpaceOnUse"><stop offset=".043" stop-color="#fff"/><stop offset=".486" stop-color="#4DC1EA"/><stop offset=".845" stop-color="#0078D4"/></linearGradient><linearGradient id="aD" x1="66.745" y1="-2.18" x2="102.17" y2="128.081" gradientUnits="userSpaceOnUse"><stop offset=".043" stop-color="#fff"/><stop offset=".486" stop-color="#4DC1EA"/><stop offset=".845" stop-color="#0078D4"/></linearGradient><linearGradient id="aE" x1="71.419" y1="-3.451" x2="106.845" y2="126.81" gradientUnits="userSpaceOnUse"><stop offset=".043" stop-color="#fff"/><stop offset=".486" stop-color="#4DC1EA"/><stop offset=".845" stop-color="#0078D4"/></linearGradient><linearGradient id="aF" x1="74.819" y1="-4.377" x2="110.244" y2="125.885" gradientUnits="userSpaceOnUse"><stop offset=".043" stop-color="#fff"/><stop offset=".486" stop-color="#4DC1EA"/><stop offset=".845" stop-color="#0078D4"/></linearGradient><linearGradient id="aG" x1="72.276" y1="-3.685" x2="107.702" y2="126.577" gradientUnits="userSpaceOnUse"><stop offset=".043" stop-color="#fff"/><stop offset=".486" stop-color="#4DC1EA"/><stop offset=".845" stop-color="#0078D4"/></linearGradient><linearGradient id="aH" x1="76.951" y1="-4.956" x2="112.376" y2="125.306" gradientUnits="userSpaceOnUse"><stop offset=".043" stop-color="#fff"/><stop offset=".486" stop-color="#4DC1EA"/><stop offset=".845" stop-color="#0078D4"/></linearGradient><linearGradient id="aI" x1="73.51" y1="-4.02" x2="108.935" y2="126.242" gradientUnits="userSpaceOnUse"><stop offset=".043" stop-color="#fff"/><stop offset=".486" stop-color="#4DC1EA"/><stop offset=".845" stop-color="#0078D4"/></linearGradient><linearGradient id="aJ" x1="71.009" y1="-3.339" x2="106.434" y2="126.923" gradientUnits="userSpaceOnUse"><stop offset=".043" stop-color="#fff"/><stop offset=".486" stop-color="#4DC1EA"/><stop offset=".845" stop-color="#0078D4"/></linearGradient><linearGradient id="aK" x1="75.68" y1="-4.61" x2="111.105" y2="125.652" gradientUnits="userSpaceOnUse"><stop offset=".043" stop-color="#fff"/><stop offset=".486" stop-color="#4DC1EA"/><stop offset=".845" stop-color="#0078D4"/></linearGradient><linearGradient id="aL" x1="69.737" y1="-2.994" x2="105.162" y2="127.267" gradientUnits="userSpaceOnUse"><stop offset=".043" stop-color="#fff"/><stop offset=".486" stop-color="#4DC1EA"/><stop offset=".845" stop-color="#0078D4"/></linearGradient><linearGradient id="aM" x1="74.408" y1="-4.265" x2="109.833" y2="125.997" gradientUnits="userSpaceOnUse"><stop offset=".043" stop-color="#fff"/><stop offset=".486" stop-color="#4DC1EA"/><stop offset=".845" stop-color="#0078D4"/></linearGradient><linearGradient id="aN" x1="73.14" y1="-3.919" x2="108.565" y2="126.343" gradientUnits="userSpaceOnUse"><stop offset=".043" stop-color="#fff"/><stop offset=".486" stop-color="#4DC1EA"/><stop offset=".845" stop-color="#0078D4"/></linearGradient><linearGradient id="aO" x1="71.869" y1="-3.574" x2="107.294" y2="126.688" gradientUnits="userSpaceOnUse"><stop offset=".043" stop-color="#fff"/><stop offset=".486" stop-color="#4DC1EA"/><stop offset=".845" stop-color="#0078D4"/></linearGradient><linearGradient id="aP" x1="64.656" y1="-1.612" x2="100.081" y2="128.65" gradientUnits="userSpaceOnUse"><stop offset=".043" stop-color="#fff"/><stop offset=".486" stop-color="#4DC1EA"/><stop offset=".845" stop-color="#0078D4"/></linearGradient><linearGradient id="aQ" x1="69.327" y1="-2.882" x2="104.752" y2="127.38" gradientUnits="userSpaceOnUse"><stop offset=".043" stop-color="#fff"/><stop offset=".486" stop-color="#4DC1EA"/><stop offset=".845" stop-color="#0078D4"/></linearGradient><linearGradient id="aR" x1="70.598" y1="-3.229" x2="106.023" y2="127.033" gradientUnits="userSpaceOnUse"><stop offset=".043" stop-color="#fff"/><stop offset=".486" stop-color="#4DC1EA"/><stop offset=".845" stop-color="#0078D4"/></linearGradient><linearGradient id="aS" x1="63.385" y1="-1.267" x2="98.809" y2="128.995" gradientUnits="userSpaceOnUse"><stop offset=".043" stop-color="#fff"/><stop offset=".486" stop-color="#4DC1EA"/><stop offset=".845" stop-color="#0078D4"/></linearGradient><linearGradient id="aT" x1="62.113" y1="-.921" x2="97.539" y2="129.342" gradientUnits="userSpaceOnUse"><stop offset=".043" stop-color="#fff"/><stop offset=".486" stop-color="#4DC1EA"/><stop offset=".845" stop-color="#0078D4"/></linearGradient><linearGradient id="aU" x1="14.088" y1="12.139" x2="49.513" y2="142.401" gradientUnits="userSpaceOnUse"><stop offset=".043" stop-color="#fff"/><stop offset=".486" stop-color="#4DC1EA"/><stop offset=".845" stop-color="#0078D4"/></linearGradient><linearGradient id="aV" x1="6.871" y1="14.102" x2="42.296" y2="144.364" gradientUnits="userSpaceOnUse"><stop offset=".043" stop-color="#fff"/><stop offset=".486" stop-color="#4DC1EA"/><stop offset=".845" stop-color="#0078D4"/></linearGradient><linearGradient id="aW" x1="11.545" y1="12.831" x2="46.971" y2="143.093" gradientUnits="userSpaceOnUse"><stop offset=".043" stop-color="#fff"/><stop offset=".486" stop-color="#4DC1EA"/><stop offset=".845" stop-color="#0078D4"/></linearGradient><linearGradient id="aX" x1="12.816" y1="12.486" x2="48.242" y2="142.748" gradientUnits="userSpaceOnUse"><stop offset=".043" stop-color="#fff"/><stop offset=".486" stop-color="#4DC1EA"/><stop offset=".845" stop-color="#0078D4"/></linearGradient><linearGradient id="aY" x1="5.599" y1="14.449" x2="41.025" y2="144.711" gradientUnits="userSpaceOnUse"><stop offset=".043" stop-color="#fff"/><stop offset=".486" stop-color="#4DC1EA"/><stop offset=".845" stop-color="#0078D4"/></linearGradient><linearGradient id="aZ" x1="10.274" y1="13.178" x2="45.699" y2="143.44" gradientUnits="userSpaceOnUse"><stop offset=".043" stop-color="#fff"/><stop offset=".486" stop-color="#4DC1EA"/><stop offset=".845" stop-color="#0078D4"/></linearGradient><linearGradient id="ba" x1="4.328" y1="14.794" x2="39.753" y2="145.056" gradientUnits="userSpaceOnUse"><stop offset=".043" stop-color="#fff"/><stop offset=".486" stop-color="#4DC1EA"/><stop offset=".845" stop-color="#0078D4"/></linearGradient><linearGradient id="bb" x1="9.003" y1="13.523" x2="44.428" y2="143.784" gradientUnits="userSpaceOnUse"><stop offset=".043" stop-color="#fff"/><stop offset=".486" stop-color="#4DC1EA"/><stop offset=".845" stop-color="#0078D4"/></linearGradient><linearGradient id="bc" x1="3.06" y1="15.14" x2="38.485" y2="145.402" gradientUnits="userSpaceOnUse"><stop offset=".043" stop-color="#fff"/><stop offset=".486" stop-color="#4DC1EA"/><stop offset=".845" stop-color="#0078D4"/></linearGradient><linearGradient id="bd" x1="1.789" y1="15.485" x2="37.214" y2="145.746" gradientUnits="userSpaceOnUse"><stop offset=".043" stop-color="#fff"/><stop offset=".486" stop-color="#4DC1EA"/><stop offset=".845" stop-color="#0078D4"/></linearGradient><linearGradient id="be" x1="-.754" y1="16.177" x2="34.672" y2="146.438" gradientUnits="userSpaceOnUse"><stop offset=".043" stop-color="#fff"/><stop offset=".486" stop-color="#4DC1EA"/><stop offset=".845" stop-color="#0078D4"/></linearGradient><linearGradient id="bf" x1="3.921" y1="14.905" x2="39.346" y2="145.167" gradientUnits="userSpaceOnUse"><stop offset=".043" stop-color="#fff"/><stop offset=".486" stop-color="#4DC1EA"/><stop offset=".845" stop-color="#0078D4"/></linearGradient><linearGradient id="bg" x1=".518" y1="15.83" x2="35.943" y2="146.091" gradientUnits="userSpaceOnUse"><stop offset=".043" stop-color="#fff"/><stop offset=".486" stop-color="#4DC1EA"/><stop offset=".845" stop-color="#0078D4"/></linearGradient><linearGradient id="bh" x1="2.653" y1="15.249" x2="38.078" y2="145.511" gradientUnits="userSpaceOnUse"><stop offset=".043" stop-color="#fff"/><stop offset=".486" stop-color="#4DC1EA"/><stop offset=".845" stop-color="#0078D4"/></linearGradient><linearGradient id="bi" x1="1.382" y1="15.596" x2="36.807" y2="145.858" gradientUnits="userSpaceOnUse"><stop offset=".043" stop-color="#fff"/><stop offset=".486" stop-color="#4DC1EA"/><stop offset=".845" stop-color="#0078D4"/></linearGradient><linearGradient id="bj" x1="50.085" y1="-7.275" x2="51.996" y2="70.283" gradientUnits="userSpaceOnUse"><stop offset=".57" stop-color="#fff" stop-opacity="0"/><stop offset=".78" stop-color="#fff" stop-opacity=".43"/><stop offset=".9" stop-color="#fff" stop-opacity=".5"/><stop offset="1" stop-color="#fff"/></linearGradient><linearGradient id="bk" x1="5066.32" y1="14541.6" x2="5089.09" y2="14333.8" gradientUnits="userSpaceOnUse"><stop offset=".57" stop-color="#fff" stop-opacity="0"/><stop offset=".78" stop-color="#fff" stop-opacity=".43"/><stop offset=".9" stop-color="#fff" stop-opacity=".5"/><stop offset="1" stop-color="#fff"/></linearGradient><linearGradient id="bl" x1="2322.14" y1="4378.51" x2="2326.76" y2="4316.02" gradientUnits="userSpaceOnUse"><stop offset=".57" stop-color="#fff" stop-opacity="0"/><stop offset=".78" stop-color="#fff" stop-opacity=".43"/><stop offset=".9" stop-color="#fff" stop-opacity=".5"/><stop offset="1" stop-color="#fff"/></linearGradient></defs></svg>