<svg width="100" height="100" viewBox="0 0 100 100" fill="none" xmlns="http://www.w3.org/2000/svg">
<g clip-path="url(#clip0_364_7548)">
<path d="M49.6401 96.4499C40.382 96.4499 31.3317 93.7045 23.6339 88.561C15.936 83.4174 9.93624 76.1067 6.3933 67.5533C2.85036 58.9999 1.92337 49.588 3.72954 40.5077C5.53571 31.4275 9.99394 23.0867 16.5404 16.5402C23.0869 9.99372 31.4277 5.5355 40.5079 3.72933C49.5882 1.92315 59.0001 2.85015 67.5535 6.39308C76.1069 9.93602 83.4176 15.9358 88.5612 23.6336C93.7047 31.3315 96.4501 40.3817 96.4501 49.6399C96.4505 55.7872 95.24 61.8744 92.8878 67.5538C90.5355 73.2332 87.0875 78.3937 82.7407 82.7405C78.3939 87.0873 73.2335 90.5353 67.554 92.8876C61.8746 95.2398 55.7874 96.4503 49.6401 96.4499V96.4499Z" fill="url(#paint0_linear_364_7548)"/>
<path fill-rule="evenodd" clip-rule="evenodd" d="M95.54 49.6399C95.54 58.718 92.848 67.5923 87.8045 75.1406C82.7609 82.6888 75.5923 88.5719 67.2052 92.046C58.818 95.52 49.5891 96.429 40.6854 94.6579C31.7816 92.8869 23.603 88.5153 17.1838 82.0961C10.7646 75.6769 6.39302 67.4983 4.62196 58.5945C2.85089 49.6908 3.75987 40.4618 7.23393 32.0747C10.708 23.6876 16.5911 16.519 24.1393 11.4754C31.6875 6.43187 40.5618 3.73988 49.64 3.73988C55.6677 3.73986 61.6363 4.92708 67.2052 7.23377C72.774 9.54045 77.834 12.9214 82.0963 17.1836C86.3585 21.4458 89.7394 26.5058 92.0461 32.0747C94.3528 37.6435 95.54 43.6122 95.54 49.6399V49.6399ZM49.64 -0.000106449C59.4579 -0.000106449 69.0552 2.91123 77.2185 8.36574C85.3818 13.8203 91.7442 21.573 95.5014 30.6435C99.2585 39.714 100.242 49.695 98.3262 59.3242C96.4108 68.9534 91.6831 77.7984 84.7408 84.7407C77.7985 91.683 68.9535 96.4107 59.3243 98.3261C49.6951 100.241 39.7141 99.2584 30.6436 95.5013C21.5731 91.7441 13.8204 85.3816 8.36584 77.2184C2.91133 69.0551 -1.61629e-06 59.4577 3.61524e-07 49.6399C-0.000786426 43.1208 1.28265 36.6655 3.77702 30.6425C6.27138 24.6196 9.92781 19.147 14.5375 14.5374C19.1471 9.9277 24.6197 6.27127 30.6427 3.77691C36.6656 1.28254 43.121 -0.000894549 49.64 -0.000106449V-0.000106449Z" fill="#F2F1F0"/>
<path fill-rule="evenodd" clip-rule="evenodd" d="M92.7296 49.64C92.7296 58.1624 90.2024 66.4934 85.4676 73.5795C80.7328 80.6656 74.0031 86.1886 66.1294 89.45C58.2557 92.7113 49.5918 93.5647 41.2331 91.902C32.8745 90.2394 25.1966 86.1355 19.1703 80.1092C13.1441 74.083 9.04017 66.4051 7.37753 58.0464C5.7149 49.6878 6.56822 41.0238 9.8296 33.1502C13.091 25.2765 18.6139 18.5468 25.7 13.812C32.7862 9.07718 41.1172 6.55 49.6396 6.55C55.2983 6.54965 60.9017 7.66397 66.1298 9.82933C71.3579 11.9947 76.1082 15.1687 80.1096 19.17C84.1109 23.1713 87.2849 27.9217 89.4502 33.1498C91.6156 38.3778 92.7299 43.9812 92.7296 49.64ZM49.6396 2.81C58.9017 2.81 67.9558 5.55653 75.6569 10.7023C83.3581 15.848 89.3604 23.1619 92.9049 31.7189C96.4493 40.276 97.3767 49.6919 95.5697 58.7761C93.7628 67.8602 89.3027 76.2045 82.7534 82.7538C76.2041 89.3031 67.8598 93.7632 58.7757 95.5702C49.6915 97.3771 40.2756 96.4497 31.7185 92.9053C23.1614 89.3608 15.8476 83.3585 10.7018 75.6574C5.5561 67.9562 2.80957 58.9021 2.80957 49.64C2.81076 37.2203 7.74501 25.3096 16.5271 16.5275C25.3091 7.74544 37.2198 2.81119 49.6396 2.81V2.81Z" fill="#0078D4"/>
<path fill-rule="evenodd" clip-rule="evenodd" d="M92.7296 49.6399C92.7296 58.1623 90.2024 66.4933 85.4676 73.5794C80.7328 80.6655 74.0031 86.1885 66.1294 89.4499C58.2557 92.7112 49.5918 93.5646 41.2331 91.9019C32.8745 90.2393 25.1966 86.1354 19.1703 80.1091C13.1441 74.0829 9.04017 66.405 7.37753 58.0463C5.7149 49.6877 6.56822 41.0237 9.8296 33.1501C13.091 25.2764 18.6139 18.5467 25.7001 13.8119C32.7862 9.07708 41.1172 6.5499 49.6396 6.5499C55.2983 6.54956 60.9017 7.66388 66.1298 9.82923C71.3579 11.9946 76.1082 15.1686 80.1096 19.1699C84.1109 23.1712 87.2849 27.9216 89.4502 33.1497C91.6156 38.3777 92.7299 43.9811 92.7296 49.6399V49.6399ZM49.6396 2.8099C58.9017 2.8099 67.9558 5.55643 75.6569 10.7022C83.3581 15.8479 89.3604 23.1618 92.9048 31.7188C96.4493 40.2759 97.3767 49.6918 95.5697 58.776C93.7628 67.8601 89.3027 76.2044 82.7534 82.7537C76.2041 89.303 67.8598 93.7631 58.7757 95.5701C49.6915 97.377 40.2756 96.4496 31.7185 92.9052C23.1614 89.3607 15.8476 83.3584 10.7018 75.6573C5.5561 67.9561 2.80957 58.902 2.80957 49.6399C2.81075 37.2202 7.74499 25.3095 16.5271 16.5274C25.3091 7.7453 37.2198 2.81105 49.6396 2.80986V2.8099Z" fill="#0078D4"/>
<path fill-rule="evenodd" clip-rule="evenodd" d="M36.8374 67.7483C38.0102 67.8014 39.1142 68.3171 39.9075 69.1826C40.7009 70.048 41.1189 71.1926 41.07 72.3656C41.07 72.4263 41.0592 72.4838 41.0573 72.5439C41.0595 72.6037 41.07 72.6609 41.07 72.7214C41.0735 73.5272 40.851 74.3178 40.4278 75.0035H33.3675C32.8661 74.2153 32.6017 73.2997 32.6057 72.3655C32.5568 71.1927 32.9747 70.0482 33.7678 69.1828C34.561 68.3174 35.6647 67.8016 36.8374 67.7483V67.7483Z" fill="#5E9624"/>
<path fill-rule="evenodd" clip-rule="evenodd" d="M39.6424 72.1509C39.6476 73.1538 39.3816 74.1394 38.8725 75.0035H40.4278C40.8511 74.3179 41.0736 73.5272 41.07 72.7214C41.0922 71.9236 40.8732 71.1376 40.4418 70.4662C40.0103 69.7947 39.3865 69.2689 38.6516 68.9575C39.3056 69.8932 39.6519 71.0093 39.6424 72.1509V72.1509Z" fill="#76BC2D"/>
<path fill-rule="evenodd" clip-rule="evenodd" d="M37.6722 75.0035C38.3095 74.1039 38.6518 73.0286 38.6517 71.9261C38.6374 70.4923 38.0578 69.1221 37.0389 68.1133C36.02 67.1045 34.6441 66.5386 33.2102 66.5386C31.7764 66.5386 30.4005 67.1045 29.3816 68.1133C28.3627 69.1221 27.7831 70.4923 27.7688 71.9261C27.7688 73.0286 28.111 74.1039 28.7483 75.0035H37.6722Z" fill="#76BC2D"/>
<path fill-rule="evenodd" clip-rule="evenodd" d="M27.7688 71.8885C27.7301 73.0245 28.1144 74.1345 28.8473 75.0035H31.3964C30.6741 74.5722 30.0725 73.9653 29.6478 73.2391C29.2231 72.5129 28.9889 71.6911 28.9671 70.8501C28.981 69.703 29.4123 68.6003 30.1804 67.7482C29.4629 68.18 28.8657 68.7858 28.4442 69.5094C28.0227 70.2331 27.7904 71.0513 27.7688 71.8885V71.8885Z" fill="#5E9624"/>
<path d="M64.0893 55.4912H34.9304V75.0035H64.0893V55.4912Z" fill="white"/>
<path fill-rule="evenodd" clip-rule="evenodd" d="M66.7979 54.6579L49.5099 43.3319L32.2219 54.6579V55.4909H66.7979V54.6579Z" fill="#1F56A3"/>
<path d="M49.51 61.7202C50.8505 61.7202 52.1362 62.2527 53.0841 63.2006C54.032 64.1486 54.5646 65.4342 54.5646 66.7748V75.0035H44.4553V66.7748C44.4553 65.4342 44.9879 64.1486 45.9358 63.2006C46.8837 62.2527 48.1694 61.7202 49.51 61.7202V61.7202Z" fill="#0078D4"/>
<path d="M46.7656 70.0493C47.1267 70.0493 47.4194 69.7566 47.4194 69.3955C47.4194 69.0345 47.1267 68.7418 46.7656 68.7418C46.4045 68.7418 46.1118 69.0345 46.1118 69.3955C46.1118 69.7566 46.4045 70.0493 46.7656 70.0493Z" fill="white"/>
<path d="M42.6618 57.8765H37.6404V62.8979H42.6618V57.8765Z" fill="#50E6FF"/>
<path d="M40.4328 57.8765H39.8691V62.8979H40.4328V57.8765Z" fill="#0078D4"/>
<path d="M37.6404 60.1054V60.669H42.6618V60.1054H37.6404Z" fill="#0078D4"/>
<path d="M61.3793 57.8765H56.3579V62.8979H61.3793V57.8765Z" fill="#50E6FF"/>
<path d="M59.1505 57.8765H58.5869V62.8979H59.1505V57.8765Z" fill="#0078D4"/>
<path d="M56.3579 60.1054V60.669H61.3793V60.1054H56.3579Z" fill="#0078D4"/>
<path d="M61.8879 62.8979H55.8494V63.3816H61.8879V62.8979Z" fill="#1F56A3"/>
<path d="M43.1704 62.8979H37.1318V63.3816H43.1704V62.8979Z" fill="#1F56A3"/>
<path opacity="0.2" d="M64.0893 55.4912H34.9304V56.4043H64.0893V55.4912Z" fill="#1F56A3"/>
<path d="M42.3401 44.8818H38.0249V52.102H42.3401V44.8818Z" fill="#1F56A3"/>
<path d="M65.1065 27.2499C65.117 27.1768 65.1379 27.1036 65.1483 27.041C65.3443 26.0071 65.3101 24.9427 65.0483 23.9235C64.7866 22.9042 64.3035 21.9552 63.6336 21.1437C62.9637 20.3322 62.1232 19.6781 61.1721 19.228C60.2209 18.778 59.1822 18.5429 58.1299 18.5394C57.5916 18.5376 57.0551 18.6007 56.5319 18.7274C55.4652 17.045 53.881 15.7545 52.0177 15.05C50.1543 14.3456 48.1126 14.2653 46.1996 14.8213C44.2867 15.3772 42.6061 16.5394 41.4106 18.1329C40.2151 19.7264 39.5694 21.665 39.5707 23.6571C39.5707 23.7824 39.5707 23.9077 39.5811 24.0331C39.1033 23.8722 38.6023 23.7911 38.0981 23.7928C36.9375 23.793 35.8214 24.2393 34.9807 25.0393C34.14 25.8394 33.639 26.932 33.5813 28.0911C33.5236 29.2502 33.9137 30.3871 34.6708 31.2667C35.4279 32.1463 36.4942 32.7011 37.649 32.8166L58.1195 32.8583C59.3936 32.8568 60.6444 32.5165 61.7438 31.8723C62.8431 31.2282 63.7513 30.3033 64.3755 29.1924C64.4068 29.1298 64.4486 29.0671 64.4799 29.0044C64.7564 28.446 64.9668 27.8571 65.1065 27.2499V27.2499Z" fill="white"/>
<path d="M49.4248 41.8189C49.7721 41.8189 50.0537 41.5373 50.0537 41.19C50.0537 40.8426 49.7721 40.5611 49.4248 40.5611C49.0775 40.5611 48.7959 40.8426 48.7959 41.19C48.7959 41.5373 49.0775 41.8189 49.4248 41.8189Z" fill="white"/>
<path d="M49.4248 39.7001C49.7721 39.7001 50.0537 39.4186 50.0537 39.0713C50.0537 38.7239 49.7721 38.4424 49.4248 38.4424C49.0775 38.4424 48.7959 38.7239 48.7959 39.0713C48.7959 39.4186 49.0775 39.7001 49.4248 39.7001Z" fill="white"/>
<path d="M49.4248 37.5814C49.7721 37.5814 50.0537 37.2999 50.0537 36.9525C50.0537 36.6052 49.7721 36.3237 49.4248 36.3237C49.0775 36.3237 48.7959 36.6052 48.7959 36.9525C48.7959 37.2999 49.0775 37.5814 49.4248 37.5814Z" fill="white"/>
<path d="M49.4248 35.4627C49.7721 35.4627 50.0537 35.1812 50.0537 34.8338C50.0537 34.4865 49.7721 34.2049 49.4248 34.2049C49.0775 34.2049 48.7959 34.4865 48.7959 34.8338C48.7959 35.1812 49.0775 35.4627 49.4248 35.4627Z" fill="white"/>
<path fill-rule="evenodd" clip-rule="evenodd" d="M62.8556 67.7483C61.6828 67.8014 60.5788 68.3171 59.7855 69.1826C58.9921 70.048 58.5741 71.1926 58.623 72.3656C58.623 72.4263 58.6337 72.4838 58.6357 72.5439C58.6335 72.6037 58.623 72.6609 58.623 72.7214C58.6194 73.5272 58.8419 74.3178 59.2652 75.0035H66.3255C66.8269 74.2153 67.0913 73.2997 67.0873 72.3655C67.1362 71.1927 66.7183 70.0482 65.9252 69.1828C65.132 68.3174 64.0283 67.8016 62.8556 67.7483V67.7483Z" fill="#5E9624"/>
<path fill-rule="evenodd" clip-rule="evenodd" d="M61.0415 68.9575C60.3067 69.2689 59.6828 69.7947 59.2514 70.4661C58.8199 71.1376 58.601 71.9236 58.6231 72.7214C58.6195 73.5272 58.842 74.3178 59.2653 75.0035H60.8206C60.3116 74.1394 60.0456 73.1538 60.0507 72.1509C60.0412 71.0093 60.3875 69.8932 61.0415 68.9575V68.9575Z" fill="#76BC2D"/>
<path fill-rule="evenodd" clip-rule="evenodd" d="M70.9449 75.0035C71.5822 74.1039 71.9244 73.0286 71.9244 71.9261C71.9101 70.4923 71.3305 69.1221 70.3116 68.1133C69.2927 67.1045 67.9168 66.5386 66.4829 66.5386C65.0491 66.5386 63.6732 67.1045 62.6543 68.1133C61.6354 69.1221 61.0558 70.4923 61.0415 71.9261C61.0414 73.0286 61.3837 74.1039 62.021 75.0035H70.9449Z" fill="#76BC2D"/>
<path fill-rule="evenodd" clip-rule="evenodd" d="M69.5126 67.7483C70.2807 68.6003 70.712 69.7031 70.7259 70.8501C70.7041 71.6911 70.47 72.513 70.0452 73.2391C69.6205 73.9653 69.019 74.5723 68.2966 75.0035H70.8458C71.5786 74.1346 71.9629 73.0246 71.9243 71.8885C71.9026 71.0513 71.6703 70.2331 71.2488 69.5095C70.8273 68.7858 70.2302 68.1801 69.5126 67.7483V67.7483Z" fill="#5E9624"/>
<path d="M52.8374 24.7973H50.2217V22.1816C50.2217 21.7884 48.7977 21.7884 48.7977 22.1816V24.7973H46.1821C45.7889 24.7973 45.7889 26.2212 46.1821 26.2212H48.7978V28.8369C48.7978 29.2301 50.2218 29.2301 50.2218 28.8369V26.2212H52.8374C53.2306 26.2212 53.2306 24.7973 52.8374 24.7973Z" fill="url(#paint1_linear_364_7548)"/>
</g>
<defs>
<linearGradient id="paint0_linear_364_7548" x1="47.8698" y1="-15.1532" x2="51.8525" y2="130.615" gradientUnits="userSpaceOnUse">
<stop stop-color="#00ABDE"/>
<stop offset="1" stop-color="#007ED8"/>
</linearGradient>
<linearGradient id="paint1_linear_364_7548" x1="49.5098" y1="29.1318" x2="49.5098" y2="21.8867" gradientUnits="userSpaceOnUse">
<stop stop-color="#004DAE"/>
<stop offset="0.21" stop-color="#0061C4"/>
<stop offset="0.51" stop-color="#0078DD"/>
<stop offset="0.78" stop-color="#0086EC"/>
<stop offset="1" stop-color="#008BF1"/>
</linearGradient>
<clipPath id="clip0_364_7548">
<rect width="99.2799" height="99.28" fill="white"/>
</clipPath>
</defs>
</svg>
