<svg width="103" height="103" viewBox="0 0 103 103" fill="none" xmlns="http://www.w3.org/2000/svg">
<path d="M51.3625 98.2323C25.5125 98.2323 4.55249 77.2823 4.55249 51.4223C4.55249 25.5623 25.5125 4.6123 51.3625 4.6123C77.2125 4.6123 98.1725 25.5723 98.1725 51.4223C98.1725 77.2723 77.2125 98.2323 51.3625 98.2323Z" fill="url(#paint0_linear)"/>
<path fill-rule="evenodd" clip-rule="evenodd" d="M97.2627 51.4222C97.2627 76.7722 76.7127 97.3222 51.3627 97.3222C26.0127 97.3222 5.46266 76.7722 5.46266 51.4222C5.46266 26.0722 26.0127 5.52223 51.3627 5.52223C76.7127 5.52223 97.2627 26.0722 97.2627 51.4222ZM51.3627 1.78223C78.7827 1.78223 101.003 24.0022 101.003 51.4222C101.003 78.8422 78.7727 101.062 51.3627 101.062C23.9427 101.062 1.72266 78.8322 1.72266 51.4222C1.72266 24.0022 23.9427 1.78223 51.3627 1.78223Z" fill="#F2F1F0"/>
<path fill-rule="evenodd" clip-rule="evenodd" d="M94.4525 51.4218C94.4525 75.2218 75.1625 94.5118 51.3625 94.5118C27.5625 94.5118 8.27247 75.2218 8.27247 51.4218C8.27247 27.6218 27.5625 8.3318 51.3625 8.3318C75.1625 8.3318 94.4525 27.6218 94.4525 51.4218ZM51.3625 4.5918C77.2225 4.5918 98.1925 25.5618 98.1925 51.4218C98.1925 77.2818 77.2225 98.2518 51.3625 98.2518C25.5025 98.2518 4.53247 77.2818 4.53247 51.4218C4.53247 25.5618 25.4925 4.5918 51.3625 4.5918Z" fill="#0078D4"/>
<path d="M84.4326 32.1523V70.7223L51.2626 90.1623L51.2126 51.5123L84.4326 32.1523Z" fill="#32B0E7"/>
<path d="M84.4326 32.1525L51.2226 51.5025L17.8726 32.1525L51.1526 12.8125L84.4326 32.1525Z" fill="#45CAF2"/>
<path d="M51.2226 51.5023L51.2726 90.1523L17.8726 70.7123V32.1523L51.2226 51.5023Z" fill="#0078D4"/>
<path d="M17.8726 70.7127L51.2226 51.5127L51.2726 90.1627L17.8726 70.7127Z" fill="#185A97"/>
<path d="M84.4327 70.7129L51.2227 51.5029L51.2727 90.1529L84.4327 70.7129Z" fill="#156AB3"/>
<path opacity="0.15" d="M71.4326 25.5322H30.7326C29.8526 25.5322 29.1426 26.2422 29.1426 27.1222V80.2222C29.1426 81.1022 29.8526 81.8122 30.7326 81.8122H71.4326C72.3126 81.8122 73.0226 81.1022 73.0226 80.2222V27.1222C73.0026 26.2422 72.2926 25.5322 71.4326 25.5322Z" fill="#1F1D20"/>
<path d="M71.4326 23.5723H30.7326C29.8526 23.5723 29.1426 24.2823 29.1426 25.1623V78.2623C29.1426 79.1423 29.8526 79.8523 30.7326 79.8523H71.4326C72.3126 79.8523 73.0226 79.1423 73.0226 78.2623V25.1623C73.0026 24.2823 72.2926 23.5723 71.4326 23.5723Z" fill="#F2F2F2"/>
<path fill-rule="evenodd" clip-rule="evenodd" d="M53.8226 16.2518C55.3526 17.0618 56.2526 18.6918 56.2526 20.4118V20.8318C56.2526 20.9918 56.2426 21.1318 56.2326 21.2918H59.5426C60.5326 21.2918 61.4526 21.7818 61.9526 22.6418C63.3526 25.0818 61.6326 27.5718 59.3126 27.5718H42.6226C41.6326 27.5718 40.7126 27.0818 40.2126 26.2218C38.8126 23.7818 40.5326 21.2918 42.8526 21.2918H45.9326C45.9226 21.1518 45.9226 20.9918 45.9226 20.8318V20.7018C45.9226 16.9818 49.8826 14.1718 53.8226 16.2518Z" fill="#1F56A3"/>
<path d="M51.0826 23.1321C52.2626 23.1321 53.2126 22.1821 53.2126 21.0021C53.2126 19.8221 52.2626 18.8721 51.0826 18.8721C49.9026 18.8721 48.9526 19.8221 48.9526 21.0021C48.9526 22.1821 49.9026 23.1321 51.0826 23.1321Z" fill="#F2F2F2"/>
<path d="M63.1925 34.8223H39.3625C38.9225 34.8223 38.5625 35.1823 38.5625 35.6223V38.6123H63.9825V35.6223C63.9825 35.1823 63.6325 34.8223 63.1925 34.8223Z" fill="#C3F1FF"/>
<path d="M63.9825 40.3623H38.5625V48.2623H63.9825V40.3623V40.3623Z" fill="#9CEBFF"/>
<path d="M38.5625 49.9121V68.6821C38.5625 69.1221 38.9225 69.4821 39.3625 69.4821H54.4825L56.0125 63.8521C56.2525 62.9821 56.7225 62.1921 57.3925 61.5721L63.9925 55.4621V49.9121H38.5625Z" fill="#50E6FF"/>
<path d="M57.4726 63.8125L75.8126 45.6325C77.4326 44.0225 80.0226 43.9325 81.7526 45.4225C83.6926 47.0825 83.8126 50.0625 81.9826 51.8625L63.5226 70.1925L55.9826 72.1425C55.6126 72.2325 55.2826 71.9025 55.3826 71.5325L57.4726 63.8125Z" fill="url(#paint1_linear)"/>
<path d="M57.4927 63.7925L74.0827 47.3525L80.5027 53.3425L63.5427 70.1925L57.4927 63.7925Z" fill="url(#paint2_linear)"/>
<path d="M57.5026 71.7522L55.9826 72.1422C55.6126 72.2322 55.2826 71.9022 55.3826 71.5322L55.8126 69.9521L57.5026 71.7522Z" fill="url(#paint3_linear)"/>
<defs>
<linearGradient id="paint0_linear" x1="49.5925" y1="-13.3707" x2="53.5755" y2="132.398" gradientUnits="userSpaceOnUse">
<stop stop-color="#00ABDE"/>
<stop offset="1" stop-color="#007ED8"/>
</linearGradient>
<linearGradient id="paint1_linear" x1="55.3624" y1="58.2584" x2="83.2788" y2="58.2584" gradientUnits="userSpaceOnUse">
<stop stop-color="#007ED8"/>
<stop offset="0.7065" stop-color="#002D4C"/>
</linearGradient>
<linearGradient id="paint2_linear" x1="68.1156" y1="36.9" x2="70.5351" y2="96.3112" gradientUnits="userSpaceOnUse">
<stop stop-color="#007ED8"/>
<stop offset="0.7065" stop-color="#002D4C"/>
</linearGradient>
<linearGradient id="paint3_linear" x1="55.0387" y1="37.4319" x2="57.4581" y2="96.8441" gradientUnits="userSpaceOnUse">
<stop stop-color="#007ED8"/>
<stop offset="0.7065" stop-color="#002D4C"/>
</linearGradient>
</defs>
</svg>
