<svg width="103" height="103" viewBox="0 0 103 103" fill="none" xmlns="http://www.w3.org/2000/svg">
<path d="M51.3625 97.9608C25.5125 97.9608 4.55249 77.0108 4.55249 51.1508C4.55249 25.2908 25.5125 4.34082 51.3625 4.34082C77.2125 4.34082 98.1725 25.3008 98.1725 51.1508C98.1725 77.0008 77.2125 97.9608 51.3625 97.9608Z" fill="url(#paint0_linear)"/>
<path fill-rule="evenodd" clip-rule="evenodd" d="M97.2627 51.1507C97.2627 76.5007 76.7127 97.0507 51.3627 97.0507C26.0127 97.0507 5.46266 76.5007 5.46266 51.1507C5.46266 25.8007 26.0127 5.25074 51.3627 5.25074C76.7127 5.25074 97.2627 25.8007 97.2627 51.1507ZM51.3627 1.51074C78.7827 1.51074 101.003 23.7307 101.003 51.1507C101.003 78.5707 78.7727 100.791 51.3627 100.791C23.9427 100.791 1.72266 78.5607 1.72266 51.1507C1.72266 23.7307 23.9427 1.51074 51.3627 1.51074Z" fill="#F2F1F0"/>
<path fill-rule="evenodd" clip-rule="evenodd" d="M94.4525 51.1503C94.4525 74.9503 75.1625 94.2403 51.3625 94.2403C27.5625 94.2403 8.27247 74.9503 8.27247 51.1503C8.27247 27.3503 27.5625 8.06031 51.3625 8.06031C75.1625 8.06031 94.4525 27.3503 94.4525 51.1503ZM51.3625 4.32031C77.2225 4.32031 98.1925 25.2903 98.1925 51.1503C98.1925 77.0103 77.2225 97.9803 51.3625 97.9803C25.5025 97.9803 4.53247 77.0103 4.53247 51.1503C4.53247 25.2903 25.4925 4.32031 51.3625 4.32031Z" fill="#0078D4"/>
<path fill-rule="evenodd" clip-rule="evenodd" d="M54.5826 66.9602L55.5826 66.9502L55.1426 28.9502L54.1426 28.9602L54.5826 66.9602Z" fill="#FFFFFE"/>
<path fill-rule="evenodd" clip-rule="evenodd" d="M68.3826 59.5104L59.0626 59.6204C58.5926 59.6304 58.2126 59.1904 58.2026 58.6404C58.1926 58.0904 58.5626 57.6404 59.0426 57.6404L68.3626 57.5304C68.8326 57.5204 69.2126 57.9604 69.2226 58.5104C69.2326 59.0504 68.8526 59.5004 68.3826 59.5104Z" fill="#FFFFFE"/>
<path fill-rule="evenodd" clip-rule="evenodd" d="M79.9725 59.371L72.4525 59.461C71.7625 59.471 71.1925 59.031 71.1825 58.481C71.1725 57.931 71.7325 57.481 72.4225 57.471L79.9425 57.381C80.6325 57.371 81.2025 57.811 81.2125 58.361C81.2225 58.921 80.6625 59.361 79.9725 59.371Z" fill="white"/>
<path fill-rule="evenodd" clip-rule="evenodd" d="M66.7425 41.5898L59.2225 41.6798C58.5325 41.6898 57.9625 41.2498 57.9525 40.6998C57.9425 40.1498 58.5025 39.6998 59.1925 39.6898L66.7125 39.5998C67.4025 39.5898 67.9725 40.0298 67.9825 40.5798C67.9825 41.1198 67.4325 41.5798 66.7425 41.5898Z" fill="white"/>
<path fill-rule="evenodd" clip-rule="evenodd" d="M69.2425 53.5104L59.0725 53.6304C58.5625 53.6404 58.1425 53.2004 58.1325 52.6504C58.1225 52.1004 58.5425 51.6504 59.0425 51.6504L69.2125 51.5304C69.7225 51.5204 70.1425 51.9604 70.1525 52.5104C70.1625 53.0604 69.7525 53.5004 69.2425 53.5104Z" fill="#FFFFFE"/>
<path fill-rule="evenodd" clip-rule="evenodd" d="M83.2625 53.3503L73.0925 53.4703C72.5825 53.4803 72.1625 53.0403 72.1525 52.4903C72.1425 51.9403 72.5625 51.4903 73.0625 51.4903L83.2325 51.3703C83.7425 51.3603 84.1625 51.8003 84.1725 52.3503C84.1825 52.9003 83.7825 53.3403 83.2625 53.3503Z" fill="#FFFFFE"/>
<path fill-rule="evenodd" clip-rule="evenodd" d="M59.1227 47.6504C58.5227 47.6604 58.0327 47.2204 58.0327 46.6704C58.0327 46.1204 58.5027 45.6704 59.1027 45.6704L70.9727 45.5304C71.5727 45.5204 72.0627 45.9604 72.0627 46.5104C72.0727 47.0604 71.5927 47.5104 70.9927 47.5104L59.1227 47.6504Z" fill="#FFFFFE"/>
<path fill-rule="evenodd" clip-rule="evenodd" d="M89.2825 53.2809L79.1125 53.4009C78.6025 53.4109 78.1825 52.9709 78.1725 52.4209C78.1625 51.8709 78.5825 51.4209 79.0825 51.4209L89.2525 51.3009C89.7625 51.2909 90.1825 51.7309 90.1925 52.2809C90.2025 52.8309 89.7825 53.2709 89.2825 53.2809Z" fill="#FFFFFE"/>
<path d="M74.1425 66.9304L71.3725 64.1504L57.4625 78.0504L53.3025 73.8804L50.5225 76.6604L57.4725 83.6004L74.1425 66.9304Z" fill="#F2F1F0"/>
<path d="M46.9026 21.6699H34.4226C32.6326 21.6699 31.1626 23.1399 31.1626 24.9299V30.0299C31.1626 31.8199 32.6326 33.2899 34.4226 33.2899H37.7626V35.8699C37.7626 36.0899 38.0326 36.1999 38.1826 36.0399L40.9326 33.2899H46.8926C48.6826 33.2899 50.1526 31.8199 50.1526 30.0299V24.9299C50.1526 23.1299 48.6926 21.6699 46.9026 21.6699Z" fill="white"/>
<path d="M44.6726 26.3198H36.6526C36.3726 26.3198 36.1426 26.0898 36.1426 25.8098C36.1426 25.5298 36.3726 25.2998 36.6526 25.2998H44.6726C44.9526 25.2998 45.1826 25.5298 45.1826 25.8098C45.1826 26.0898 44.9526 26.3198 44.6726 26.3198Z" fill="#B5D5EA"/>
<path d="M44.6726 28.7202H36.6526C36.3726 28.7202 36.1426 28.4902 36.1426 28.2102C36.1426 27.9302 36.3726 27.7002 36.6526 27.7002H44.6726C44.9526 27.7002 45.1826 27.9302 45.1826 28.2102C45.1826 28.5002 44.9526 28.7202 44.6726 28.7202Z" fill="#B5D5EA"/>
<path d="M48.7827 57.2702V52.2502H46.2427V48.4902C46.2427 47.9702 46.1427 47.4802 45.9427 47.0202C45.7427 46.5602 45.4727 46.1702 45.1327 45.8202C44.7827 45.4802 44.3827 45.2102 43.9227 45.0202C43.4627 44.8202 42.9627 44.7302 42.4327 44.7302H33.5327V40.6402C33.9127 40.4202 34.2227 40.1102 34.4527 39.7202C34.6827 39.3302 34.8027 38.9102 34.8027 38.4602C34.8027 38.1102 34.7327 37.7802 34.6027 37.4802C34.4727 37.1802 34.2927 36.9102 34.0527 36.6902C33.8227 36.4602 33.5527 36.2802 33.2427 36.1502C32.9327 36.0202 32.6127 35.9502 32.2527 35.9502C31.8927 35.9502 31.5627 36.0102 31.2627 36.1502C30.9527 36.2802 30.6927 36.4602 30.4527 36.6902C30.2227 36.9202 30.0327 37.1802 29.9027 37.4802C29.7727 37.7802 29.7027 38.1102 29.7027 38.4602C29.7027 38.9102 29.8227 39.3202 30.0527 39.7202C30.2827 40.1102 30.5927 40.4202 30.9727 40.6402V44.7302H22.0727C21.5427 44.7302 21.0427 44.8302 20.5827 45.0202C20.1227 45.2202 19.7127 45.4902 19.3727 45.8202C19.0227 46.1602 18.7627 46.5602 18.5627 47.0202C18.3627 47.4802 18.2627 47.9702 18.2627 48.4902V52.2502H15.7227V57.2602H18.2627V63.5302C18.2627 64.0502 18.3627 64.5402 18.5627 65.0002C18.7627 65.4602 19.0327 65.8502 19.3727 66.2002C19.7227 66.5402 20.1227 66.8102 20.5827 67.0002C21.0427 67.2002 21.5427 67.2902 22.0727 67.2902H28.4327H37.1727H42.4227C42.9527 67.2902 43.4527 67.1902 43.9127 67.0002C44.3727 66.8002 44.7827 66.5302 45.1227 66.2002C45.4727 65.8602 45.7327 65.4602 45.9327 65.0002C46.1327 64.5402 46.2327 64.0502 46.2327 63.5302V57.2602H48.7827V57.2702Z" fill="#1F56A3"/>
<path d="M28.7726 55.11H26.1626V52.5H28.7726V55.11Z" fill="white"/>
<path d="M38.3427 55.11H35.7327V52.5H38.3427V55.11Z" fill="white"/>
<path d="M27.0127 57.7197C27.7127 58.3797 28.5127 58.8797 29.4127 59.2397C30.3127 59.5897 31.2627 59.7697 32.2527 59.7697C33.2427 59.7697 34.1927 59.5897 35.0927 59.2397C35.9927 58.8897 36.7927 58.3797 37.4927 57.7197L39.2027 59.3597C38.2727 60.2397 37.2127 60.9097 36.0027 61.3797C34.8027 61.8497 33.5427 62.0797 32.2327 62.0797C30.9227 62.0797 29.6627 61.8497 28.4627 61.3797C27.2627 60.9097 26.1927 60.2397 25.2627 59.3597L27.0127 57.7197Z" fill="white"/>
<defs>
<linearGradient id="paint0_linear" x1="49.5925" y1="-13.6422" x2="53.5755" y2="132.125" gradientUnits="userSpaceOnUse">
<stop stop-color="#00ABDE"/>
<stop offset="1" stop-color="#007ED8"/>
</linearGradient>
</defs>
</svg>
