<svg width="100" height="100" viewBox="0 0 100 100" fill="none" xmlns="http://www.w3.org/2000/svg">
<g clip-path="url(#clip0)">
<path d="M49.6401 96.4501C40.382 96.4501 31.3317 93.7047 23.6339 88.5612C15.936 83.4176 9.93624 76.1069 6.3933 67.5535C2.85036 59.0001 1.92337 49.5882 3.72954 40.5079C5.53571 31.4277 9.99394 23.0869 16.5404 16.5404C23.0869 9.99393 31.4277 5.53571 40.5079 3.72954C49.5882 1.92337 59.0001 2.85036 67.5535 6.3933C76.1069 9.93624 83.4176 15.936 88.5612 23.6339C93.7047 31.3317 96.4501 40.382 96.4501 49.6401C96.4505 55.7874 95.24 61.8746 92.8878 67.554C90.5355 73.2335 87.0875 78.3939 82.7407 82.7407C78.3939 87.0875 73.2335 90.5355 67.554 92.8878C61.8746 95.24 55.7874 96.4505 49.6401 96.4501V96.4501Z" fill="url(#paint0_linear)"/>
<path fill-rule="evenodd" clip-rule="evenodd" d="M95.54 49.64C95.54 58.7182 92.848 67.5925 87.8045 75.1407C82.7609 82.6889 75.5923 88.572 67.2052 92.0461C58.818 95.5201 49.5891 96.4291 40.6854 94.658C31.7816 92.887 23.603 88.5154 17.1838 82.0962C10.7646 75.677 6.39302 67.4984 4.62196 58.5946C2.85089 49.6909 3.75987 40.462 7.23393 32.0748C10.708 23.6877 16.5911 16.5191 24.1393 11.4755C31.6875 6.43199 40.5618 3.74 49.64 3.74C55.6677 3.73998 61.6363 4.9272 67.2052 7.23388C72.774 9.54057 77.834 12.9215 82.0963 17.1837C86.3585 21.446 89.7394 26.5059 92.0461 32.0748C94.3528 37.6437 95.54 43.6123 95.54 49.64V49.64ZM49.64 3.62732e-07C59.4579 3.62732e-07 69.0553 2.91134 77.2185 8.36585C85.3818 13.8204 91.7442 21.5731 95.5014 30.6436C99.2585 39.7141 100.242 49.6951 98.3262 59.3243C96.4108 68.9535 91.6831 77.7985 84.7408 84.7408C77.7985 91.6831 68.9535 96.4108 59.3243 98.3262C49.6951 100.242 39.7141 99.2585 30.6436 95.5014C21.5731 91.7442 13.8204 85.3818 8.36585 77.2185C2.91134 69.0553 3.62732e-07 59.4579 3.62732e-07 49.64C-0.000787738 43.121 1.28265 36.6656 3.77702 30.6427C6.27138 24.6197 9.9278 19.1471 14.5375 14.5375C19.1471 9.9278 24.6197 6.27138 30.6427 3.77702C36.6656 1.28265 43.121 -0.000787738 49.64 3.62732e-07V3.62732e-07Z" fill="#F2F1F0"/>
<path fill-rule="evenodd" clip-rule="evenodd" d="M92.7296 49.6406C92.7296 58.163 90.2024 66.494 85.4676 73.5801C80.7328 80.6662 74.0031 86.1892 66.1294 89.4505C58.2557 92.7119 49.5918 93.5653 41.2331 91.9026C32.8745 90.24 25.1966 86.1361 19.1703 80.1098C13.1441 74.0836 9.04017 66.4057 7.37753 58.047C5.7149 49.6884 6.56822 41.0244 9.8296 33.1507C13.091 25.2771 18.6139 18.5473 25.7 13.8126C32.7862 9.07776 41.1172 6.55058 49.6396 6.55058C55.2983 6.55023 60.9017 7.66455 66.1298 9.82991C71.3579 11.9953 76.1082 15.1692 80.1096 19.1706C84.1109 23.1719 87.2849 27.9223 89.4502 33.1503C91.6156 38.3784 92.7299 43.9818 92.7296 49.6406V49.6406ZM49.6396 2.81058C58.9017 2.81058 67.9558 5.55711 75.6569 10.7029C83.3581 15.8486 89.3604 23.1624 92.9049 31.7195C96.4493 40.2766 97.3767 49.6925 95.5697 58.7767C93.7628 67.8608 89.3027 76.2051 82.7534 82.7544C76.2041 89.3037 67.8598 93.7638 58.7757 95.5708C49.6915 97.3777 40.2756 96.4503 31.7185 92.9059C23.1614 89.3614 15.8476 83.3591 10.7018 75.6579C5.5561 67.9568 2.80957 58.9027 2.80957 49.6406C2.81076 37.2209 7.745 25.3101 16.5271 16.5281C25.3091 7.74599 37.2198 2.81174 49.6396 2.81055V2.81058Z" fill="#0078D4"/>
<path opacity="0.2" d="M22.6112 73.9438H76.668C76.952 73.943 77.2241 73.8298 77.425 73.629C77.6258 73.4281 77.739 73.156 77.7398 72.872V30.668H21.5393V72.872C21.5401 73.156 21.6533 73.4281 21.8542 73.629C22.055 73.8298 22.3271 73.943 22.6112 73.9438V73.9438Z" fill="#003067"/>
<path d="M22.6112 71.7387H76.668C76.952 71.7378 77.2241 71.6246 77.425 71.4238C77.6258 71.223 77.739 70.9508 77.7398 70.6668V28.4629H21.5393V70.6669C21.5402 70.9509 21.6534 71.223 21.8542 71.4238C22.055 71.6247 22.3272 71.7378 22.6112 71.7387V71.7387Z" fill="#F2F2F2"/>
<path d="M21.5393 33.1329H77.7398V28.0952C77.7401 27.9872 77.719 27.8802 77.6778 27.7804C77.6366 27.6806 77.5761 27.5899 77.4998 27.5135C77.4234 27.4371 77.3327 27.3766 77.2329 27.3354C77.133 27.2942 77.0261 27.2732 76.9181 27.2734H22.3611C22.2531 27.2732 22.1461 27.2942 22.0463 27.3354C21.9465 27.3766 21.8558 27.4371 21.7794 27.5135C21.703 27.5899 21.6425 27.6806 21.6013 27.7804C21.5601 27.8802 21.5391 27.9872 21.5394 28.0952L21.5393 33.1329Z" fill="#092E4C"/>
<path d="M25.8625 31.7478C26.1443 31.7469 26.4195 31.6625 26.6533 31.5052C26.8871 31.3479 27.069 31.1248 27.176 30.8642C27.283 30.6035 27.3103 30.317 27.2545 30.0408C27.1986 29.7646 27.0622 29.5112 26.8623 29.3126C26.6624 29.1139 26.4081 28.9791 26.1316 28.9249C25.8551 28.8708 25.5687 28.9 25.3087 29.0086C25.0488 29.1172 24.8268 29.3005 24.671 29.5353C24.5152 29.7701 24.4325 30.0458 24.4334 30.3276C24.4319 30.5153 24.4679 30.7014 24.5392 30.8749C24.6106 31.0485 24.716 31.2061 24.8491 31.3384C24.9823 31.4707 25.1405 31.5751 25.3145 31.6454C25.4885 31.7157 25.6749 31.7505 25.8625 31.7478V31.7478Z" fill="#50E6FF"/>
<path d="M72.7579 36.7598H26.5101C25.9007 36.7598 25.4067 37.2537 25.4067 37.8631V66.6128C25.4067 67.2221 25.9007 67.7161 26.5101 67.7161H72.7579C73.3673 67.7161 73.8613 67.2221 73.8613 66.6128V37.8631C73.8613 37.2537 73.3673 36.7598 72.7579 36.7598Z" fill="#E8E8E8"/>
<path opacity="0.2" d="M41.2864 27.2735L41.7254 27.7618L35.317 34.9228C34.9132 35.3653 34.6468 35.9156 34.5502 36.5068C34.4536 37.098 34.531 37.7045 34.7729 38.2525C35.0177 38.8059 35.418 39.2763 35.9252 39.6064C36.4324 39.9366 37.0246 40.1122 37.6297 40.1119H44.6958L53.4304 40.1114C53.8272 40.1131 54.2196 40.0284 54.5803 39.863C54.941 39.6976 55.2614 39.4556 55.519 39.1538L63.8612 30.0687C64.2137 29.7031 64.4743 29.2591 64.6217 28.7732C64.7691 28.2872 64.7991 27.7732 64.7092 27.2734L41.2864 27.2735Z" fill="#767676"/>
<path d="M53.8617 24.108L45.6139 28.9256L36.9349 19.2718C36.7925 19.1117 36.6993 18.914 36.6663 18.7023C36.6334 18.4906 36.6622 18.2739 36.7492 18.0781C36.8362 17.8823 36.9778 17.7158 37.157 17.5983C37.3362 17.4809 37.5454 17.4176 37.7596 17.416H53.8617V24.108Z" fill="url(#paint1_linear)"/>
<path d="M62.3534 27.0696L58.3982 22.627L44.4331 37.998H53.4308C53.5239 38.0005 53.6163 37.9816 53.7008 37.9426C53.7854 37.9035 53.8597 37.8455 53.9182 37.773L62.3347 28.6067C62.5315 28.4003 62.6429 28.127 62.6463 27.8418C62.6498 27.5566 62.5451 27.2807 62.3534 27.0696V27.0696Z" fill="url(#paint2_linear)"/>
<path d="M53.7876 17.4531L36.8794 36.3483C36.7512 36.4915 36.6674 36.6688 36.6383 36.8588C36.6093 37.0487 36.6361 37.243 36.7157 37.4179C36.7952 37.5929 36.9239 37.7408 37.0862 37.8438C37.2484 37.9468 37.4371 38.0003 37.6292 37.9978H44.696L58.4363 22.683L53.7876 17.4531Z" fill="url(#paint3_linear)"/>
<path opacity="0.2" d="M77.7395 40.1113H21.5391V63.7945H77.7395V40.1113Z" fill="#767676"/>
<path d="M84.4077 57.6504V45.958C84.4077 43.6696 82.5526 41.8145 80.2642 41.8145L19.0044 41.8145C16.716 41.8145 14.8608 43.6696 14.8608 45.958V57.6504C14.8608 59.9388 16.716 61.7939 19.0044 61.7939H80.2642C82.5526 61.7939 84.4077 59.9388 84.4077 57.6504Z" fill="#E8E8E8"/>
<path d="M80.2638 43.8145H19.0045C17.8206 43.8145 16.8608 44.7742 16.8608 45.9581V57.6504C16.8608 58.8343 17.8206 59.794 19.0045 59.794H80.2638C81.4477 59.794 82.4075 58.8343 82.4075 57.6504V45.9581C82.4075 44.7742 81.4477 43.8145 80.2638 43.8145Z" fill="white"/>
<path d="M25.6945 45.4609C26.9489 45.4609 28.175 45.8329 29.218 46.5298C30.2609 47.2266 31.0738 48.2171 31.5538 49.376C32.0338 50.5348 32.1594 51.81 31.9147 53.0402C31.67 54.2704 31.066 55.4005 30.179 56.2874C29.2921 57.1744 28.162 57.7784 26.9318 58.0231C25.7016 58.2678 24.4264 58.1422 23.2676 57.6622C22.1087 57.1822 21.1182 56.3693 20.4214 55.3264C19.7245 54.2834 19.3525 53.0573 19.3525 51.8029C19.3525 50.1209 20.0207 48.5078 21.2101 47.3185C22.3994 46.1291 24.0125 45.4609 25.6945 45.4609V45.4609ZM27.5581 54.6562H23.8309C24.2444 56.187 24.9631 57.1938 25.6945 57.1938C26.426 57.1938 27.1446 56.187 27.5581 54.6562ZM22.8463 54.6566L21.12 54.6565C21.7323 55.6361 22.642 56.394 23.7161 56.8192C23.3539 56.2255 23.0824 55.581 22.9106 54.9071L22.8463 54.6566ZM30.269 54.6565L28.5427 54.6566C28.3716 55.4199 28.0776 56.1503 27.6722 56.8192C28.6785 56.4212 29.5422 55.7305 30.1516 54.8363L30.269 54.6565ZM22.5833 50.5343H20.4542L20.4512 50.5452C20.2012 51.5948 20.2701 52.6952 20.649 53.7055L22.6611 53.7052C22.5681 53.0754 22.522 52.4396 22.523 51.803C22.523 51.3692 22.5436 50.9449 22.5833 50.5343ZM27.8485 50.5343H23.5405C23.4961 50.9557 23.4739 51.3792 23.4742 51.8029C23.4731 52.4401 23.5239 53.0764 23.6262 53.7053H27.7629C27.8651 53.0764 27.916 52.4401 27.9149 51.8029C27.9151 51.3792 27.893 50.9558 27.8485 50.5344V50.5343ZM30.9351 50.5338L28.8058 50.5343C28.8455 50.9449 28.866 51.3692 28.866 51.8029C28.8671 52.4395 28.821 53.0754 28.728 53.7052L30.7401 53.7054C31.1204 52.6914 31.1883 51.5867 30.9352 50.5338H30.9351ZM23.7168 46.7867L23.7023 46.7922C22.4043 47.3103 21.3572 48.3105 20.7803 49.5834L22.7131 49.5837C22.8662 48.5959 23.2069 47.6465 23.7168 46.7867V46.7867ZM25.6945 46.4121L25.6212 46.4155C24.8188 46.4889 24.0436 47.7583 23.6836 49.5834H27.7055C27.3465 47.7634 26.5746 46.496 25.7746 46.4161L25.6945 46.4121ZM27.6729 46.7867L27.7407 46.8971C28.21 47.7297 28.5268 48.6396 28.6759 49.5837L30.6087 49.5834C30.0582 48.3688 29.0785 47.4002 27.8576 46.8636L27.6729 46.7867Z" fill="#0078D4"/>
<path d="M36.0257 50.5347C36.6744 50.5347 37.2003 50.0089 37.2003 49.3601C37.2003 48.7114 36.6744 48.1855 36.0257 48.1855C35.377 48.1855 34.8511 48.7114 34.8511 49.3601C34.8511 50.0089 35.377 50.5347 36.0257 50.5347Z" fill="#0078D4"/>
<path d="M36.0257 55.8316C36.6744 55.8316 37.2003 55.3057 37.2003 54.657C37.2003 54.0083 36.6744 53.4824 36.0257 53.4824C35.377 53.4824 34.8511 54.0083 34.8511 54.657C34.8511 55.3057 35.377 55.8316 36.0257 55.8316Z" fill="#0078D4"/>
<path d="M49.634 53.3047H42.4172C42.0194 53.3047 41.6379 53.1467 41.3566 52.8653C41.0753 52.584 40.9172 52.2025 40.9172 51.8047C40.9172 51.4069 41.0753 51.0253 41.3566 50.744C41.6379 50.4627 42.0194 50.3047 42.4172 50.3047H49.634C50.0319 50.3047 50.4134 50.4627 50.6947 50.744C50.976 51.0253 51.134 51.4069 51.134 51.8047C51.134 52.2025 50.976 52.584 50.6947 52.8653C50.4134 53.1467 50.0319 53.3047 49.634 53.3047V53.3047Z" fill="#0078D4"/>
<path d="M77.5432 53.3047H55.429C55.0311 53.3047 54.6496 53.1467 54.3683 52.8653C54.087 52.584 53.929 52.2025 53.929 51.8047C53.929 51.4069 54.087 51.0253 54.3683 50.744C54.6496 50.4627 55.0311 50.3047 55.429 50.3047H77.5432C77.941 50.3047 78.3226 50.4627 78.6039 50.744C78.8852 51.0253 79.0432 51.4069 79.0432 51.8047C79.0432 52.2025 78.8852 52.584 78.6039 52.8653C78.3226 53.1467 77.941 53.3047 77.5432 53.3047V53.3047Z" fill="#0078D4"/>
</g>
<defs>
<linearGradient id="paint0_linear" x1="47.8697" y1="-15.153" x2="51.8525" y2="130.615" gradientUnits="userSpaceOnUse">
<stop stop-color="#00ABDE"/>
<stop offset="1" stop-color="#007ED8"/>
</linearGradient>
<linearGradient id="paint1_linear" x1="37.7329" y1="11.8757" x2="56.4986" y2="29.5318" gradientUnits="userSpaceOnUse">
<stop offset="0.4598" stop-color="#1152D4"/>
<stop offset="0.6156" stop-color="#0D3FB3"/>
</linearGradient>
<linearGradient id="paint2_linear" x1="44.4331" y1="30.3125" x2="62.6463" y2="30.3125" gradientUnits="userSpaceOnUse">
<stop stop-color="#76C0FD"/>
<stop offset="1" stop-color="#63B2FB"/>
</linearGradient>
<linearGradient id="paint3_linear" x1="36.622" y1="27.7254" x2="58.4363" y2="27.7254" gradientUnits="userSpaceOnUse">
<stop stop-color="#388CF4"/>
<stop offset="1" stop-color="#2C7CEF"/>
</linearGradient>
<clipPath id="clip0">
<rect width="99.2799" height="99.28" fill="white"/>
</clipPath>
</defs>
</svg>
