<?xml version="1.0" encoding="UTF-8"?>
<svg width="100px" height="118px" viewBox="0 0 100 118" version="1.1" xmlns="http://www.w3.org/2000/svg" xmlns:xlink="http://www.w3.org/1999/xlink">
    <!-- Generator: Sketch 52.3 (67297) - http://www.bohemiancoding.com/sketch -->
    <title>Implementing Microsoft Dynamics 365 for Field Service/implementing-microsoft-dynamics-365-for-field-service</title>
    <desc>Created with Sketch.</desc>
    <defs>
        <path d="M42.7425,1.49663266 C44.3745,0.498877554 46.1865,0 48,0 C49.8135,0 51.627,0.498877554 53.256,1.49663266 L90.591,24.3316189 C93.933,26.3773408 96,30.2031485 96,34.3529027 L96,79.6470973 C96,83.7952317 93.933,87.6242789 90.591,89.6683811 L53.256,112.504987 C51.627,113.501122 49.8135,114 48,114 C46.1865,114 44.3745,113.501122 42.7425,112.504987 L5.409,89.6683811 C2.0655,87.6242789 0,83.7952317 0,79.6470973 L0,34.3529027 C0,30.2031485 2.0655,26.3773408 5.409,24.3316189 L42.7425,1.49663266 Z" id="path-1"></path>
        <filter x="-9.1%" y="-5.6%" width="118.2%" height="111.3%" filterUnits="objectBoundingBox" id="filter-3">
            <feOffset dx="0" dy="2" in="SourceAlpha" result="shadowOffsetOuter1"></feOffset>
            <feColorMatrix values="0 0 0 0 0   0 0 0 0 0   0 0 0 0 0  0 0 0 0.100600091 0" type="matrix" in="shadowOffsetOuter1" result="shadowMatrixOuter1"></feColorMatrix>
            <feMerge>
                <feMergeNode in="shadowMatrixOuter1"></feMergeNode>
                <feMergeNode in="SourceGraphic"></feMergeNode>
            </feMerge>
        </filter>
    </defs>
    <g id="Badges" stroke="none" stroke-width="1" fill="none" fill-rule="evenodd">
        <g id="Implementing-Microsoft-Dynamics-365-for-Field-Service" transform="translate(-579.000000, -118.000000)">
            <g id="Implementing-Microsoft-Dynamics-365-for-Field-Service/implementing-microsoft-dynamics-365-for-field-service" transform="translate(579.000000, 118.000000)">
                <g id="Mask" transform="translate(2.000000, 2.000000)">
                    <mask id="mask-2" fill="white">
                        <use xlink:href="#path-1"></use>
                    </mask>
                    <use id="Trophy-1" fill="#01B6C3" xlink:href="#path-1"></use>
                    <g id="Group-4" filter="url(#filter-3)" mask="url(#mask-2)">
                        <g transform="translate(26.000000, 21.800000)">
                            <path d="M22,0 C9.8703,0 0,9.8692 0,22 C0,38.9708 19.3468,68.1846 20.1696,69.4199 C20.5777,70.0326 21.2641,70.4 22,70.4 C22.7359,70.4 23.4223,70.0326 23.8304,69.4199 C24.6532,68.1846 44,38.9708 44,22 C44,9.8692 34.1297,0 22,0" id="Fill-45" fill="#60757D"></path>
                            <path d="M29.2127,1.2144 C25.6795,-0.0154 22,2.7049 22,6.446 L22,34.1 C15.6882,34.1 10.5116,29.2655 9.9561,23.1 C9.9231,23.463 9.9,23.8282 9.9,24.2 C9.9,30.0135 14.0008,34.87 19.4678,36.0349 C20.9605,36.3528 22,37.7146 22,39.2414 L22,64.7746 C22,66.1089 20.8241,67.1099 19.4997,66.957 C19.1576,66.9174 18.821,66.8701 18.4899,66.8162 C19.4216,68.2913 20.0376,69.2219 20.1696,69.4199 C20.5777,70.0326 21.2641,70.4 22,70.4 C22.7359,70.4 23.4223,70.0326 23.8304,69.4199 C24.6543,68.1846 44,38.9708 44,22 C44,12.3937 37.8114,4.2064 29.2127,1.2144" id="Fill-46" fill="#30404D"></path>
                            <path d="M22,9.9 C15.3175,9.9 9.9,15.3186 9.9,22 C9.9,28.6814 15.3175,34.1 22,34.1 C28.6825,34.1 34.1,28.6814 34.1,22 C34.1,15.3186 28.6825,9.9 22,9.9" id="Fill-47" fill="#F2F3F2"></path>
                            <g id="Dynamics-icon" stroke-width="1" fill="none" transform="translate(17.215836, 12.943352)">
                                <polygon id="Path" fill="#EFB252" points="0 18.6568329 3.70820492 8.22534429 0 5.84310257"></polygon>
                                <polygon id="Path" fill="#EFB252" points="11.7275705 12.2050029 11.7275705 6.28271914 0 18.6568329"></polygon>
                                <polygon id="Path" fill="#EFB252" points="0 0 0 4.99880229 7.653096 8.67785914 11.2101508 5.84184857"></polygon>
                            </g>
                        </g>
                    </g>
                </g>
                <g id="Dynamic-Hex" stroke="#1D8E96" stroke-width="4">
                    <path d="M45.5620146,3.25834407 L6.67338401,26.8942953 C3.79673288,28.6432593 2,31.9508238 2,35.5582677 L2,82.4417323 C2,86.0486597 3.79764663,89.3586805 6.67318764,91.1055853 L45.560618,114.742485 C46.9289662,115.572418 48.4546283,116 50,116 C51.5458817,116 53.0723633,115.572188 54.4362178,114.743457 L93.3268764,91.1055464 C96.2016145,89.3583456 98,86.0476286 98,82.4417323 L98,35.5582677 C98,31.9518547 96.202529,28.6435953 93.3268966,26.8944659 L54.4351916,3.25759524 C53.0721095,2.42798656 51.5462432,2 50,2 C48.4543284,2 46.9293388,2.42772325 45.5620146,3.25834407 Z M45.5620146,3.25834407 C45.5619597,3.25837737 45.5619049,3.25841067 45.5618501,3.25844398 L45.5621963,3.25823359 L45.5620146,3.25834407 Z" id="Azure-Hex-Border"></path>
                </g>
            </g>
        </g>
    </g>
</svg>