<svg width="154" height="172" viewBox="0 0 154 172" fill="none" xmlns="http://www.w3.org/2000/svg">
<g filter="url(#filter0_d)">
<path d="M70 6.04145C74.3316 3.54059 79.6684 3.54059 84 6.04145L142.746 39.9585C147.078 42.4594 149.746 47.0812 149.746 52.0829V119.917C149.746 124.919 147.078 129.541 142.746 132.041L84 165.959C79.6684 168.459 74.3316 168.459 70 165.959L11.2539 132.041C6.92225 129.541 4.25387 124.919 4.25387 119.917V52.0829C4.25387 47.0812 6.92225 42.4594 11.2539 39.9585L70 6.04145Z" fill="url(#paint0_linear)"/>
<path d="M84.875 4.52591C80.0019 1.71244 73.9981 1.71244 69.125 4.52591L10.3789 38.443C5.5058 41.2565 2.50387 46.456 2.50387 52.0829V119.917C2.50387 125.544 5.5058 130.744 10.3789 133.557L69.125 167.474C73.9981 170.288 80.0019 170.288 84.875 167.474L143.621 133.557C148.494 130.744 151.496 125.544 151.496 119.917V52.0829C151.496 46.456 148.494 41.2565 143.621 38.443L84.875 4.52591Z" stroke="#F2F1F0" stroke-width="3.5"/>
</g>
<path d="M70.5 7.06218C74.5222 4.73995 79.4778 4.73995 83.5 7.06218L142.112 40.9019C146.134 43.2242 148.612 47.5158 148.612 52.1603V119.84C148.612 124.484 146.134 128.776 142.112 131.098L83.5 164.938C79.4778 167.26 74.5222 167.26 70.5 164.938L11.8878 131.098C7.86563 128.776 5.38784 124.484 5.38784 119.84V52.1603C5.38784 47.5158 7.86563 43.2242 11.8878 40.9019L70.5 7.06218Z" stroke="#0078D4" stroke-width="4"/>
<path d="M98.8234 82.0205L25 124.514L34.7854 130.093L108.738 87.5995L98.8234 82.0205Z" fill="url(#paint1_linear)"/>
<path d="M25 127.471L34.7854 133.05L108.738 90.5561V87.5986L34.7854 130.092L25 124.513V127.471Z" fill="#186CB4"/>
<path d="M101.427 84.5352L28.0989 126.693V69.3063L101.433 27.1484L101.427 84.5352Z" fill="#36AEE4"/>
<path d="M26.2371 125.539V68.152L99.5656 26L101.433 27.1488L28.1164 69.3067V126.694L26.2371 125.539Z" fill="#186CB4"/>
<path d="M99.124 83.1453L30.6675 122.175V70.6087L99.124 31.5791V83.1453Z" fill="#243B5F"/>
<path d="M37.1358 124.332L37.124 127.407L33.7954 125.48L34.5141 122.965L37.1358 124.332Z" fill="#171115"/>
<path d="M37.1358 124.332L43.0507 120.62L43.9049 123.383L37.1182 127.407L37.1358 124.332Z" fill="#171115"/>
<path opacity="0.2" d="M43.9226 123.725L37.1477 127.749L33.8191 125.823L40.594 121.799L43.9226 123.725Z" fill="#1F1D20"/>
<path d="M37.1358 123.512L37.124 126.588L33.7954 124.661L33.8072 121.586L37.1358 123.512Z" fill="#1D4A79"/>
<path d="M37.1358 123.513L43.9225 119.489L43.9108 122.564L37.124 126.588L37.1358 123.513Z" fill="#243A5E"/>
<path d="M33.8076 121.586L40.5826 117.562L43.9229 119.489L37.1362 123.513L33.8076 121.586Z" fill="#166BB3"/>
<path opacity="0.1" d="M57.6495 114.5L47.1553 120.549L48.6028 121.369L59.1156 115.321L57.6495 114.5Z" fill="#1F1D20"/>
<path d="M47.1182 118.888L57.529 113.153C57.4083 113.227 57.3341 113.375 57.3341 113.577C57.3341 114.002 57.6403 114.518 58.0022 114.73L47.5914 120.465C47.2203 120.253 46.9233 119.737 46.9233 119.313C46.9233 119.11 46.9976 118.962 47.1182 118.888Z" fill="#E7E5E6"/>
<path d="M58.4753 114.787L48.0738 120.513C47.9532 120.586 47.7769 120.577 47.5913 120.467L58.0021 114.731C58.1876 114.842 58.3547 114.861 58.4753 114.787Z" fill="black"/>
<path d="M58.0022 112.96C57.7609 112.822 57.5382 112.804 57.3712 112.896L46.9697 118.631C47.1275 118.539 47.3502 118.548 47.6007 118.696C48.0832 118.972 48.4822 119.654 48.4822 120.217C48.4822 120.493 48.3801 120.687 48.2224 120.779L58.6331 115.044C58.7909 114.952 58.8929 114.758 58.8929 114.482C58.8836 113.919 58.4847 113.237 58.0022 112.96Z" fill="#F2F0F2"/>
<path d="M47.5914 118.695C48.0832 118.972 48.4822 119.654 48.4822 120.217C48.4822 120.77 48.0832 120.991 47.5914 120.715C47.0997 120.429 46.71 119.756 46.71 119.193C46.71 118.64 47.1089 118.41 47.5914 118.695Z" fill="#E7E5E6"/>
<path d="M36.9038 76.1959C36.9224 76.1835 36.941 76.168 36.9565 76.1463C36.9379 76.3975 36.9224 76.6487 36.91 76.8968C36.8387 76.9774 36.7642 77.0519 36.696 77.1263C36.6774 77.1449 36.665 77.1666 36.6526 77.1852C36.6805 76.81 36.7146 76.4347 36.7549 76.0532C36.7642 75.9819 36.8077 75.9292 36.8573 75.9013C36.8697 75.895 36.8821 75.8888 36.8914 75.8857C36.8604 75.9633 36.8356 76.0377 36.817 76.109C36.7859 76.2083 36.848 76.23 36.9038 76.1959Z" fill="#F2F0F2"/>
<path d="M37.4558 75.151C37.676 75.0238 37.8683 75.0828 37.9055 75.3309C37.9458 75.5666 37.859 75.8798 37.7287 76.1683C37.7535 76.1496 37.7815 76.1341 37.8063 76.1186C37.8931 76.069 37.98 76.0349 38.0637 76.038C38.3862 76.0442 38.4297 76.5249 38.3366 76.9405C38.2436 77.3499 38.0172 77.8058 37.7194 78.1408C37.5551 78.3206 37.3814 78.454 37.2108 78.5532C36.9782 78.6897 36.7394 78.761 36.5161 78.8107C36.3424 78.851 36.1532 78.8355 36.1656 78.5874C36.178 78.423 36.2928 78.209 36.4292 78.1284C36.4509 78.1159 36.4758 78.1066 36.5006 78.1004C36.544 78.0911 36.575 78.1035 36.5936 78.1346C36.6122 78.1687 36.6184 78.2183 36.606 78.271L36.6308 78.2648C36.7115 78.2462 36.789 78.2245 36.8696 78.1997C36.8789 78.1966 36.8851 78.1935 36.8945 78.1935C37.0216 78.1563 37.1457 78.1128 37.2759 78.0384C37.3193 78.0136 37.3628 77.9857 37.4062 77.9516C37.6419 77.7624 37.8435 77.4522 37.9489 77.1421C38.0296 76.894 38.1009 76.3729 37.8187 76.5125C37.8063 76.5187 37.7939 76.5249 37.7846 76.5311C37.6419 76.6149 37.493 76.7823 37.3566 76.9033C37.2046 77.046 37.0495 77.1886 36.8976 77.3313C36.8758 77.3499 36.8541 77.3716 36.8324 77.3902C36.8169 77.4057 36.7983 77.4181 36.7828 77.4274C36.7208 77.4646 36.6712 77.4429 36.6432 77.3964C36.6153 77.3468 36.6122 77.2631 36.6587 77.1824C36.6712 77.1607 36.6836 77.1421 36.7022 77.1235C36.7704 77.0522 36.8417 76.9746 36.9162 76.894C37.2139 76.5652 37.5178 76.1807 37.6078 75.7558C37.6512 75.548 37.6202 75.3557 37.4465 75.4549C37.431 75.4642 37.4124 75.4766 37.3938 75.4921C37.1984 75.6348 37.1053 75.9139 36.972 76.131C36.9689 76.1341 36.9689 76.1372 36.9658 76.1403C36.9503 76.162 36.9317 76.1776 36.9131 76.19C36.8541 76.2241 36.7952 76.2024 36.8231 76.1093C36.8417 76.038 36.8665 75.9605 36.8976 75.886C36.9999 75.6317 37.1674 75.3712 37.3597 75.2192C37.3876 75.1944 37.4217 75.1696 37.4558 75.151Z" fill="#F2F0F2"/>
<path d="M36.7796 77.4301C36.7951 77.4208 36.8106 77.4084 36.8292 77.3929C36.8509 77.3743 36.8726 77.3526 36.8943 77.334C36.8881 77.5015 36.885 77.672 36.8788 77.8457C36.8726 77.9512 36.8664 78.0628 36.8602 78.1745L36.8695 78.2024C36.7889 78.2272 36.7114 78.252 36.6307 78.2675L36.6059 78.2737C36.6183 78.2179 36.6152 78.1683 36.5935 78.1373C36.5966 77.914 36.6214 77.6782 36.6276 77.5976C36.6307 77.5325 36.6369 77.4673 36.64 77.4022C36.6648 77.4456 36.7176 77.4673 36.7796 77.4301Z" fill="#F2F0F2"/>
<path d="M39.9928 73.9884C40.3898 73.7589 40.6534 74.1187 40.4394 74.6522C40.4208 74.6987 40.396 74.7266 40.3712 74.7421C40.3154 74.7731 40.2657 74.7359 40.2937 74.6459C40.3743 74.3916 40.2844 74.2024 40.0983 74.2397C40.0704 74.2459 40.0393 74.2583 40.0145 74.2738C39.8719 74.3575 39.754 74.5467 39.6641 74.7235C39.4377 75.1422 39.2299 75.6477 39.1554 76.0695C39.0748 76.5347 39.3446 76.6495 39.6424 76.6309C39.8129 76.6247 40.0083 76.5626 40.2006 76.451C40.3216 76.3827 40.4394 76.2928 40.5511 76.1843C40.8736 75.8679 40.7837 75.5236 40.8922 75.167C40.9139 75.0894 40.9698 75.0181 41.0194 74.9871C41.0566 74.9654 41.0938 74.9654 41.1186 75.0026C41.2551 75.1794 41.2489 75.5174 41.1341 75.8524C41.007 76.206 40.7589 76.4882 40.4953 76.6836C40.4115 76.7456 40.3309 76.8014 40.2471 76.848C39.8719 77.0651 39.4997 77.1364 39.1958 77.0402C39.0128 76.9813 38.8639 76.8511 38.8236 76.606C38.7771 76.3486 38.8546 76.023 38.9632 75.7128C39.0686 75.3965 39.2113 75.0832 39.3725 74.7731C39.5121 74.4971 39.6951 74.1993 39.9215 74.0381C39.9432 74.0195 39.968 74.004 39.9928 73.9884Z" fill="#F2F0F2"/>
<path d="M42.8059 71.3483C42.8493 71.3234 42.8958 71.3048 42.9361 71.2986C43.1935 71.2583 43.3145 71.553 43.2556 71.8724C43.237 71.9778 43.2028 72.0802 43.1563 72.1825C43.2152 72.1453 43.2773 72.1081 43.3362 72.074C43.4634 72.0089 43.5192 72.1763 43.4044 72.3221C43.2587 72.502 43.0974 72.626 42.9361 72.7191C42.8245 72.7842 42.7097 72.8338 42.5981 72.8804C42.5174 72.9114 42.4709 72.8369 42.4709 72.7594C42.4647 72.6695 42.5236 72.5578 42.5981 72.4927L42.6446 72.4431L42.657 72.4338L42.7252 72.35L42.8059 72.2508L42.8121 72.2384L42.84 72.1918L42.8741 72.1329L42.8865 72.1112L42.9268 72.012L42.933 71.9934L42.9454 71.9313V71.8848V71.8476V71.8259V71.8352L42.9237 71.7607V71.7514L42.902 71.7235L42.8958 71.7111L42.8679 71.6956L42.8462 71.6832L42.84 71.6801L42.8059 71.677H42.7935L42.7593 71.6801L42.7469 71.6894L42.7407 71.6925C42.719 71.7421 42.6849 71.7763 42.6539 71.7949C42.5857 71.8352 42.5174 71.8073 42.5391 71.7018C42.5764 71.5343 42.6911 71.4134 42.8059 71.3483Z" fill="#F2F0F2"/>
<path d="M45.3614 71.8178C45.4637 71.7588 45.6095 71.7216 45.6095 71.8581C45.6095 71.9976 45.4606 72.1372 45.3614 72.2023C45.287 72.252 45.2063 72.2985 45.1319 72.3419C45.0512 72.3884 44.9706 72.4443 44.89 72.4908L44.7752 72.5652L44.6326 72.6241C44.5581 72.652 44.524 72.5559 44.5519 72.4691L44.676 72.3481L44.6326 72.3357L44.7876 72.2085L44.9024 72.1279C44.9768 72.0783 45.0512 72.0256 45.1319 71.9728C45.2063 71.9201 45.287 71.8581 45.3614 71.8178Z" fill="#F2F0F2"/>
<path d="M45.2126 72.629C45.2684 72.598 45.3242 72.5762 45.3831 72.5607C45.4762 72.5297 45.4855 72.6817 45.411 72.7778L45.2901 72.9174L45.1474 73.0291C45.1102 73.0539 45.073 73.0787 45.0358 73.1004C44.9986 73.1221 44.9582 73.1438 44.9179 73.1624C44.8373 73.2089 44.7504 73.2586 44.6698 73.2834C44.5892 73.3144 44.5147 73.333 44.4403 73.3454C44.3286 73.364 44.338 73.15 44.4589 73.0787C44.462 73.0787 44.462 73.0756 44.4651 73.0756C44.493 73.0632 44.5178 73.0477 44.5426 73.0322C44.5954 73.0011 44.6419 72.9701 44.6915 72.9422C44.7659 72.8988 44.8404 72.8647 44.9148 72.8213C44.9955 72.7747 45.0699 72.7251 45.1443 72.6724C45.1691 72.6569 45.1908 72.6414 45.2126 72.629Z" fill="#F2F0F2"/>
<path d="M46.757 72.7903C46.8159 72.5081 46.8841 72.229 46.9492 71.9467C47.0454 71.8971 47.1415 71.8475 47.2377 71.7979C47.1446 72.1204 47.0485 72.446 46.9461 72.7748C46.9306 72.8275 46.8996 72.8616 46.8686 72.8803C46.8066 72.9144 46.7414 72.8865 46.757 72.7903Z" fill="#F2F0F2"/>
<path d="M48.1124 70.9457C48.1869 70.9023 48.2551 70.8713 48.3202 70.834C48.3543 70.8185 48.3884 70.7999 48.4226 70.7813C48.4629 70.7596 48.5063 70.741 48.5435 70.7379C48.6118 70.7286 48.6645 70.7596 48.6645 70.8527C48.6645 70.9364 48.6118 71.0543 48.5435 71.107C48.5063 71.138 48.4691 71.1659 48.4319 71.1876C48.4257 71.1907 48.4195 71.1969 48.4102 71.2C48.3109 71.2589 48.2055 71.2962 48.1124 71.3396C48.1 71.3458 48.0907 71.352 48.0783 71.3582C47.9605 71.4202 47.8395 71.4822 47.7154 71.5474C47.5542 71.6342 47.396 71.718 47.2347 71.7986C47.1386 71.8482 47.0424 71.8978 46.9463 71.9475C46.9339 71.9537 46.9184 71.9599 46.906 71.9692C46.7571 72.056 46.7633 71.8203 46.906 71.7211C46.9463 71.6931 46.9835 71.6621 47.0238 71.6342C47.1324 71.5567 47.2378 71.4791 47.3464 71.4078C47.4673 71.3272 47.5914 71.2496 47.7154 71.1783C47.8364 71.1101 47.9542 71.0387 48.069 70.9736C48.0845 70.9643 48.1 70.955 48.1124 70.9457Z" fill="#F2F0F2"/>
<path d="M48.3231 70.8334C48.2548 70.8737 48.1897 70.9048 48.1153 70.9451C48.0998 70.9544 48.0874 70.9606 48.0719 70.9699C48.0688 70.8148 48.0626 70.6597 48.0595 70.5047C48.0533 70.238 48.0595 69.965 48.044 69.7014C48.0346 69.5867 48.0222 69.4471 47.9726 69.3602C47.7586 69.841 47.647 70.3527 47.5105 70.8396C47.4578 71.0288 47.4051 71.218 47.3523 71.4041C47.2438 71.4754 47.1383 71.553 47.0298 71.6305C47.1011 71.3359 47.1756 71.0381 47.2469 70.7435C47.3927 70.1542 47.5322 69.5711 47.8362 68.9881L48.0502 68.833C48.4471 68.9198 48.3944 69.5711 48.4099 70.0581C48.4161 70.3 48.4223 70.5419 48.4254 70.7807C48.3913 70.7962 48.3541 70.8179 48.3231 70.8334Z" fill="#F2F0F2"/>
<path d="M48.4379 71.5318C48.4441 71.6837 48.472 71.845 48.4255 72.028C48.4224 72.028 48.4224 72.028 48.4193 72.028C48.3976 72.1179 48.3355 72.1986 48.2704 72.2358C48.2115 72.2699 48.1526 72.2668 48.1215 72.2017C48.075 72.0962 48.0874 71.9349 48.0874 71.7954C48.0812 71.6527 48.0812 71.5132 48.0781 71.3674C48.0781 71.3643 48.0781 71.3612 48.0781 71.3581C48.0905 71.3519 48.0998 71.3457 48.1122 71.3395C48.2053 71.2961 48.3107 71.2588 48.41 71.1999C48.4162 71.1968 48.4224 71.1906 48.4317 71.1875C48.4348 71.3023 48.4379 71.4201 48.4379 71.5318Z" fill="#F2F0F2"/>
<path d="M51.2479 66.455C51.2634 66.4457 51.2789 66.4395 51.2944 66.4333C51.3751 66.4085 51.4433 66.4178 51.5022 66.4457C51.617 66.5047 51.6697 66.6566 51.6635 66.8303C51.6573 67.0009 51.5984 67.1963 51.5053 67.3824L51.6449 67.3141L51.7317 67.2552L51.8403 67.1994C51.9333 67.1746 51.9612 67.2986 51.8961 67.4072C51.8372 67.5188 51.7565 67.5902 51.6759 67.6584C51.617 67.7049 51.5611 67.7421 51.5053 67.7732C51.4867 67.7856 51.465 67.7949 51.4464 67.8042C51.2851 67.8817 51.1362 67.922 50.9874 67.9282L50.9067 67.7732L51.0277 67.5405L51.1083 67.4785L51.1207 67.463L51.1145 67.4754L51.1424 67.4382L51.2014 67.3638V67.3576L51.2293 67.3203L51.2572 67.2676L51.2975 67.1684L51.3037 67.156L51.3161 67.1094L51.3285 67.0257L51.3347 66.9823V66.9358V66.9141L51.3285 66.8861L51.3161 66.8551V66.8458L51.2944 66.8272L51.2882 66.8241L51.2603 66.8086L51.2541 66.8055L51.22 66.8024L51.2076 66.8117L51.1797 66.821L51.1642 66.8241L51.1549 66.8365C51.1486 66.8427 51.1393 66.8489 51.1331 66.852C51.037 66.9079 50.9781 66.8086 51.0463 66.6814C51.0959 66.576 51.1704 66.4985 51.2479 66.455Z" fill="#F2F0F2"/>
<path d="M50.7422 68.9888C51.0927 69.0105 51.1485 69.5222 50.981 70.0029C50.8012 70.5395 50.3639 71.0543 49.9824 71.4172C49.88 71.5102 49.7715 71.6002 49.666 71.6622C49.5389 71.7366 49.4117 71.7708 49.3094 71.7304C49.1543 71.656 49.1202 71.4296 49.2598 71.1629C49.2908 71.1102 49.3218 71.076 49.3528 71.0574C49.4024 71.0264 49.452 71.0419 49.4769 71.0791C49.4241 70.8496 49.3776 70.6139 49.3373 70.3751C49.3032 70.3379 49.2877 70.2759 49.3063 70.2014C49.2939 70.127 49.2815 70.0526 49.2691 69.9781C49.2349 69.7517 49.2008 69.5222 49.1667 69.2958C49.1388 69.1252 49.1109 68.9547 49.2132 68.7345C49.3342 68.4864 49.5482 68.3623 49.725 68.2537C49.8986 68.1514 50.0878 68.0739 50.2429 68.0863C50.5655 68.108 50.6337 68.5112 50.4476 68.9733C50.4321 69.0136 50.4135 69.057 50.3918 69.0973C50.4042 69.0911 50.4135 69.0818 50.4259 69.0756C50.5282 69.0167 50.6337 68.9826 50.7422 68.9888ZM50.6895 69.8448C50.7391 69.5719 50.6244 69.4013 50.4042 69.5284C50.3949 69.5346 50.3825 69.5408 50.3732 69.547C50.1313 69.699 49.9204 69.9874 49.6971 70.2138C49.7374 70.5178 49.7684 70.8279 49.787 71.1412C49.9235 71.0295 50.0537 70.89 50.1778 70.7473C50.3825 70.5023 50.6306 70.1673 50.6895 69.8448ZM49.6257 69.7331C49.7126 69.6153 49.7963 69.5005 49.8738 69.3796C49.9948 69.1935 50.1344 68.9733 50.1685 68.7748C50.2026 68.6073 50.1126 68.5515 49.9979 68.5639C49.9173 68.5732 49.8304 68.6135 49.7436 68.6662L49.4955 68.8337L49.5017 68.8678L49.5141 68.9764C49.5265 69.0849 49.542 69.1935 49.5606 69.2958C49.5823 69.4447 49.604 69.5905 49.6257 69.7331ZM49.4955 71.1784L49.5048 71.1908C49.5017 71.1815 49.4986 71.1691 49.4986 71.1598C49.4955 71.166 49.4955 71.1722 49.4955 71.1784Z" fill="#F2F0F2"/>
<path d="M55.7355 64.9873L55.8503 65.0524C55.8472 65.2261 55.841 65.406 55.8379 65.5828C55.8348 65.7068 55.8317 65.8309 55.8348 65.9518C55.8348 65.9549 55.8348 65.9581 55.8348 65.9612C55.8348 66.1038 55.8348 66.2558 55.8348 66.3985C55.8286 66.5504 55.8503 66.7086 55.7945 66.8792C55.7758 66.9412 55.7231 66.9939 55.6735 67.0249C55.6239 67.056 55.5712 67.0591 55.5525 67.0187C55.4998 66.904 55.5246 66.7179 55.5246 66.5628C55.5308 66.4295 55.537 66.2868 55.5494 66.141C55.5494 66.1317 55.5494 66.1224 55.5525 66.1131C55.5587 65.9984 55.5681 65.8805 55.5774 65.7627C55.5929 65.5704 55.6084 65.375 55.6239 65.1827C55.6301 65.1114 55.6704 65.0276 55.7355 64.9873Z" fill="#F2F0F2"/>
<path d="M56.4704 65.1057C56.6193 65.1522 56.4766 65.4406 56.3495 65.5771C56.275 65.6515 56.1882 65.7104 56.1076 65.7632C56.0269 65.8252 55.9463 65.881 55.8595 65.9462C55.8502 65.9524 55.8408 65.9586 55.8315 65.9648C55.8315 65.9617 55.8315 65.9586 55.8315 65.9555C55.8315 65.8345 55.8346 65.7104 55.8346 65.5864C55.9153 65.5306 55.9959 65.4747 56.0766 65.4189L56.244 65.2918L56.2781 65.2576L56.2906 65.2359C56.3092 65.1832 56.3433 65.146 56.3805 65.1274C56.4177 65.1026 56.4487 65.0964 56.4704 65.1057Z" fill="#F2F0F2"/>
<path d="M54.8581 66.4799C54.7309 66.5233 54.7712 66.3 54.8829 66.2256C55.1093 66.0612 55.3419 65.9217 55.5745 65.7666C55.5652 65.8845 55.5559 66.0023 55.5497 66.1171C55.5497 66.1264 55.5497 66.1357 55.5466 66.145C55.5218 66.1605 55.4939 66.176 55.4691 66.1915C55.2644 66.3125 55.0566 66.4117 54.8581 66.4799Z" fill="#F2F0F2"/>
<path d="M58.0617 64.8979C58.2571 64.7862 58.4494 64.7242 58.6231 64.718C58.7534 64.7149 58.8743 64.7428 58.9767 64.8048C59.0542 64.8514 58.9829 65.0095 58.896 65.0623C58.8712 65.0778 58.8464 65.0809 58.8216 65.0747C58.7875 65.0623 58.7503 65.053 58.713 65.0468C58.5487 65.0219 58.3533 65.0747 58.161 65.177C58.1362 65.1894 58.1114 65.2049 58.0835 65.2173C58.0369 65.2421 57.9935 65.2732 57.947 65.3073C57.9129 65.3321 57.8757 65.36 57.8415 65.391C57.7485 65.4748 57.6617 65.574 57.5748 65.667C57.5686 65.6732 57.5624 65.6826 57.5531 65.6888C57.5128 65.7322 57.4725 65.7756 57.4322 65.7973C57.398 65.819 57.3639 65.8221 57.3391 65.7973L57.3639 65.5585C57.4508 65.4158 57.5655 65.2887 57.6803 65.1832C57.6865 65.177 57.6896 65.1739 57.6958 65.1677C57.8105 65.0623 57.9315 64.9754 58.0493 64.9041C58.0555 64.9041 58.0586 64.901 58.0617 64.8979Z" fill="#F2F0F2"/>
<path d="M57.5777 65.6635C57.6645 65.5704 57.7513 65.4712 57.8444 65.3874C57.8785 65.3564 57.9126 65.3285 57.9498 65.3037C57.8041 65.8527 57.6273 66.414 57.559 66.9444C57.5497 67.0126 57.5125 67.0622 57.4691 67.087C57.4133 67.118 57.3543 67.1056 57.3512 67.0343C57.3357 66.7707 57.3916 66.4947 57.4567 66.2C57.497 66.0263 57.5373 65.8465 57.5777 65.6635Z" fill="#F2F0F2"/>
<path d="M59.2277 65.4495C59.2618 65.5704 59.1688 65.71 59.0758 65.7627C59.0137 65.7969 58.9517 65.7969 58.9238 65.7255C58.8401 65.5084 58.778 65.2758 58.7129 65.0432C58.7501 65.0494 58.7873 65.0587 58.8214 65.0711C58.8463 65.0804 58.8711 65.0742 58.8959 65.0587C58.9827 65.0091 59.0541 64.8478 58.9765 64.8013C58.8742 64.7393 58.7532 64.7114 58.623 64.7145C58.6074 64.6555 58.5888 64.5966 58.5702 64.5408C58.4896 64.302 58.4059 64.0663 58.3221 63.8306C58.2322 64.1872 58.1422 64.5439 58.0523 64.9005C57.9344 64.9688 57.8135 65.0587 57.6987 65.1642C57.8569 64.547 58.0089 63.9267 58.1639 63.3157C58.1919 63.2134 58.2539 63.1327 58.3159 63.0986C58.381 63.0614 58.4462 63.0676 58.4741 63.1389C58.6168 63.5049 58.7532 63.8833 58.8804 64.2647C59.0044 64.6493 59.1533 65.0277 59.2277 65.4495Z" fill="#F2F0F2"/>
<path d="M61.1971 61.6047C61.3181 61.5333 61.3429 61.738 61.2312 61.8249C60.9428 62.0699 60.6264 62.3831 60.3969 62.7398C60.0403 63.3011 59.8542 64.1447 60.3008 64.2595C60.4559 64.2998 60.6544 64.2502 60.8466 64.1385C60.9025 64.1044 60.9583 64.0672 61.0141 64.0269C61.3088 63.8005 61.5724 63.4655 61.8546 63.1771C61.8701 63.1616 61.8856 63.1492 61.898 63.1399C62.0004 63.0809 62.0593 63.2267 61.9818 63.357C61.6871 63.8532 61.256 64.2936 60.8466 64.5324C60.5303 64.7154 60.1953 64.7774 59.972 64.6348C59.7363 64.4859 59.6681 64.1292 59.727 63.7167C59.786 63.2949 59.9876 62.87 60.2543 62.4917C60.5396 62.0916 60.8622 61.8125 61.1971 61.6047Z" fill="#F2F0F2"/>
<path d="M62.9836 59.4887C63.117 59.4173 63.2317 59.4235 63.3124 59.5073C63.3992 59.5972 63.4085 59.7709 63.3806 59.9477C63.3558 60.1059 63.2937 60.2609 63.2131 60.4098C63.2751 60.3757 63.3372 60.3385 63.393 60.3168L63.4147 60.3043L63.4829 60.2733L63.5915 60.2485C63.6783 60.2361 63.7124 60.3633 63.6194 60.4718L63.5046 60.599L63.4023 60.6796C63.3527 60.723 63.3062 60.751 63.2565 60.7789C63.2255 60.7975 63.1914 60.8161 63.1604 60.8347C63.0053 60.9153 62.8502 60.9898 62.7014 61.0456L62.5742 60.9556L62.6611 60.7106L62.8347 60.4873L62.8689 60.4377L62.8875 60.4098L62.9619 60.2888L63.0022 60.2206L63.0084 60.2082L63.0487 60.0935L63.0549 60.0655L63.0673 60.0128L63.0735 59.9849V59.9384V59.9229L63.0611 59.8701V59.8639L63.0332 59.8329L63.0053 59.8174L62.9991 59.8143L62.965 59.8174L62.9712 59.8143L62.9495 59.8174L62.9216 59.8267L62.9278 59.8298L62.9061 59.8329L62.8782 59.8484L62.8658 59.8639L62.8471 59.8826L62.8533 59.8795L62.8409 59.895L62.813 59.9415L62.6642 60.0345L62.6362 59.8795C62.7138 59.712 62.8502 59.5662 62.9836 59.4887Z" fill="#F2F0F2"/>
<path d="M65.8711 59.517C65.9146 59.4922 65.958 59.4798 65.9983 59.4922L66.0448 59.6596C65.9766 59.8364 65.8432 59.914 65.7223 60.0008C65.6292 60.0628 65.5331 60.1249 65.44 60.1869C65.4183 60.1993 65.3966 60.2117 65.378 60.2241C65.1981 60.3265 65.0245 60.4009 64.8477 60.466C64.7205 60.5094 64.7515 60.2644 64.8725 60.1962C65.0555 60.0907 65.2416 59.9667 65.4245 59.8457C65.5114 59.7868 65.592 59.7341 65.6727 59.6721C65.7378 59.6193 65.806 59.5542 65.8711 59.517Z" fill="#F2F0F2"/>
<path d="M67.8402 57.3083C68.0325 57.1966 68.2031 57.2369 68.293 57.3982C68.4202 57.6184 68.4171 57.9844 68.3364 58.3348C68.2372 58.7814 68.0294 59.2156 67.7627 59.6033C67.8247 59.5661 67.8867 59.532 67.9488 59.4948C68.048 59.4389 68.1504 59.3769 68.2527 59.318C68.3054 59.287 68.3551 59.2591 68.4078 59.2312C68.5411 59.1691 68.6559 59.1722 68.6962 59.3025C68.7179 59.3955 68.6373 59.5537 68.5504 59.6064C68.5287 59.6188 68.5039 59.625 68.4822 59.6219L68.4543 59.6312L68.3923 59.6591L68.1907 59.7677C68.0635 59.8421 67.9364 59.9166 67.7999 59.9941C67.5301 60.1492 67.254 60.3073 66.978 60.4841C66.7826 60.5958 66.7516 60.2732 66.9284 60.1182C67.4804 59.6281 67.9767 58.8869 68.0542 58.1581C68.0821 57.9565 68.0728 57.544 67.8495 57.6401C67.8402 57.6432 67.8309 57.6494 67.8216 57.6556C67.7038 57.7239 67.5828 57.9193 67.496 58.0402C67.3874 58.186 67.2882 58.3379 67.254 58.5116C67.2416 58.5737 67.1982 58.6233 67.1579 58.6481C67.1052 58.6791 67.0525 58.6698 67.0618 58.5923C67.0866 58.2294 67.375 57.7611 67.6386 57.4788C67.7069 57.4013 67.7751 57.3455 67.8402 57.3083Z" fill="#F2F0F2"/>
<path d="M69.8531 57.6595C69.8842 57.6409 69.9121 57.6254 69.9431 57.6068C70.0113 57.5665 70.0827 57.5292 70.1509 57.4951C70.0671 57.8363 69.9865 58.1712 69.9214 58.5093C69.9059 58.5837 69.8656 58.6333 69.8221 58.6582C69.757 58.6954 69.6888 58.6706 69.7012 58.5651C69.7415 58.2705 69.7911 57.9665 69.8531 57.6595Z" fill="#F2F0F2"/>
<path d="M69.9058 57.2253C69.9213 57.216 69.9368 57.2067 69.9523 57.1974C70.0547 57.1415 70.157 57.0888 70.2594 57.0454C70.3059 57.0268 70.3524 57.0082 70.3958 56.9927C70.523 56.9492 70.6502 56.9151 70.7742 56.8903C70.8114 56.8841 70.8456 56.881 70.8797 56.8748C70.9138 56.8717 70.9479 56.8655 70.982 56.8624L71.0502 56.8686L71.044 56.8872C71.0658 56.85 71.0906 56.8252 71.1185 56.8097C71.1836 56.7725 71.2487 56.8004 71.2208 56.9027C71.1898 57.0392 71.0937 57.1415 70.9975 57.1974C70.9789 57.2067 70.9603 57.216 70.9448 57.2222C70.9355 57.2253 70.9231 57.2315 70.9138 57.2346C70.8394 57.2532 70.7711 57.2625 70.6998 57.2811C70.6254 57.2997 70.5509 57.3214 70.4765 57.3462C70.371 57.3865 70.2594 57.4331 70.1508 57.4889C70.0826 57.523 70.0144 57.5602 69.943 57.6005C69.912 57.6161 69.8841 57.6347 69.8531 57.6533C69.788 57.6936 69.7228 57.7339 69.6577 57.7804C69.636 57.799 69.6143 57.8176 69.5926 57.827C69.5864 57.8301 69.5802 57.8332 69.574 57.8363C69.3507 57.9417 69.3507 57.5943 69.574 57.4331C69.6856 57.3617 69.7973 57.2904 69.9058 57.2253Z" fill="#F2F0F2"/>
<path d="M71.1807 56.4371C71.2955 56.8651 71.3451 57.3489 71.3389 57.8637C71.3389 57.9878 71.2583 58.1025 71.1683 58.1552C71.1373 58.1739 71.1094 58.1832 71.0784 58.1863L70.976 58.1677V57.9909L70.9884 57.9723C70.9884 57.7179 70.9729 57.4698 70.9419 57.2341C70.9605 57.2279 70.9791 57.2186 70.9946 57.2093C71.0939 57.1535 71.19 57.0511 71.2179 56.9147C71.2459 56.8154 71.1807 56.7844 71.1156 56.8216C71.0908 56.8371 71.0629 56.862 71.0412 56.8992L71.0474 56.8806L70.9791 56.8744C70.945 56.8775 70.9109 56.8837 70.8768 56.8868C70.8737 56.8775 70.8737 56.8682 70.8706 56.8589C70.8365 56.6759 70.7899 56.5022 70.7341 56.3409C70.7062 56.2572 70.6721 56.1827 70.6473 56.099C70.6287 56.0556 70.6039 56.0184 70.5822 55.9749L70.5604 56.0432C70.5263 56.1486 70.4922 56.251 70.4612 56.3657C70.3899 56.5983 70.3247 56.834 70.2565 57.0604C70.1542 57.1039 70.0518 57.1535 69.9495 57.2124C69.9743 57.1039 70.0022 56.9953 70.0301 56.8868C70.1045 56.6107 70.1821 56.3409 70.2689 56.0742C70.3278 55.8788 70.4116 55.5656 70.5853 55.4632C70.6101 55.4477 70.6349 55.4384 70.6628 55.4353C70.7713 55.4198 70.8117 55.5128 70.852 55.5966C70.8985 55.6865 70.9388 55.7765 70.9822 55.8788C71.066 56.037 71.1342 56.2324 71.1807 56.4371Z" fill="#F2F0F2"/>
<path d="M73.4292 55.457C73.6928 55.5128 73.8602 55.795 73.7207 56.2416C73.5873 56.6758 73.2183 57.0418 72.9081 57.2837C72.7903 57.3767 72.6662 57.4636 72.5452 57.5318C72.4739 57.5721 72.4057 57.6063 72.3343 57.6373C72.1793 57.7024 71.9839 57.6528 72.111 57.3798C72.1204 57.3581 72.1359 57.3333 72.1514 57.3147C72.1483 56.7379 72.1421 56.1703 72.139 55.5996C72.139 55.3608 72.1048 55.0786 72.1824 54.8088C72.2568 54.5793 72.4088 54.3901 72.5856 54.2908C73.0105 54.0613 73.1655 54.5296 73.1066 54.9669C73.0818 55.1654 73.0167 55.3763 72.9205 55.5779C73.1035 55.4756 73.2772 55.4228 73.4292 55.457ZM73.4323 56.2044C73.485 55.9656 73.3113 55.8633 73.1562 55.8757C73.057 55.885 72.9515 55.9315 72.843 55.9935C72.7003 56.0772 72.5545 56.1889 72.415 56.2943C72.4057 56.3006 72.3995 56.3068 72.3902 56.3099C72.3778 56.6045 72.3623 56.8991 72.3499 57.1969C72.3499 57.2124 72.3468 57.2248 72.3437 57.2403L72.4243 57.2093L72.598 57.1162C72.7313 57.0294 72.8678 56.9301 72.9887 56.8216C73.1562 56.6727 73.3857 56.4401 73.4323 56.2044ZM72.4243 55.2678C72.4181 55.4725 72.4119 55.6803 72.4057 55.885C72.6042 55.6493 72.7437 55.3391 72.7872 55.0569C72.8151 54.9018 72.8058 54.7374 72.7313 54.663C72.6941 54.6258 72.6259 54.6134 72.5639 54.6506C72.5359 54.6661 72.508 54.694 72.4832 54.7312L72.4367 54.9762C72.4305 55.0724 72.4305 55.1654 72.4243 55.2678Z" fill="#F2F0F2"/>
<path d="M75.4453 53.9283L75.4794 54.0492L75.4515 54.195C75.4236 54.2787 75.3615 54.3625 75.2964 54.3997C75.2809 54.409 75.2654 54.4152 75.2499 54.4183L75.1475 54.3904L75.1258 54.2632L75.1444 54.2229L75.1165 54.2136C75.0948 54.1485 75.1351 54.0461 75.1972 53.9748C75.222 53.9407 75.2499 53.9128 75.2778 53.8973C75.3522 53.86 75.4174 53.8724 75.4453 53.9283ZM75.3181 54.226L75.3243 54.2012L75.3212 54.1826L75.3181 54.1857L75.3212 54.2167L75.3181 54.226ZM75.3212 54.1795L75.3274 54.1826L75.3212 54.1795Z" fill="#F2F0F2"/>
<path d="M77.5945 53.4163C77.6752 53.3698 77.7558 53.3357 77.8148 53.3636L77.8365 53.5218C77.7558 53.683 77.6225 53.7699 77.5015 53.8474C77.4953 53.8505 77.4922 53.8536 77.486 53.8567C77.3899 53.9188 77.2875 53.9839 77.1914 54.0397C77.1697 54.0521 77.1479 54.0676 77.1231 54.08C76.9991 54.1514 76.875 54.2103 76.7541 54.2692C76.692 54.2971 76.6269 54.3281 76.5649 54.3561C76.4997 54.3871 76.4625 54.3592 76.4532 54.3095C76.4439 54.2599 76.4625 54.1886 76.5153 54.1327C76.5308 54.1172 76.5463 54.1048 76.5649 54.0924C76.6796 54.018 76.7975 53.9343 76.9153 53.8567C77.0053 53.7978 77.0952 53.7358 77.1852 53.683C77.272 53.6241 77.3681 53.5621 77.4612 53.5032C77.4674 53.5001 77.4736 53.4939 77.4798 53.4908C77.5139 53.4659 77.5542 53.438 77.5945 53.4163Z" fill="#F2F0F2"/>
<path d="M76.4532 54.3098C76.4625 54.3595 76.4997 54.3874 76.5648 54.3564C76.6269 54.3285 76.692 54.2974 76.754 54.2695C76.5648 54.7503 76.3725 55.2279 76.171 55.7055C76.1492 55.7582 76.1151 55.7954 76.0872 55.814C76.019 55.8544 75.9539 55.8078 75.9911 55.6962C76.1368 55.2341 76.2919 54.772 76.4532 54.3098Z" fill="#F2F0F2"/>
<path d="M77.8705 53.6484C77.8922 53.9058 77.9325 54.1539 77.9325 54.4237C77.9325 54.5416 77.8332 54.6935 77.7402 54.7463C77.6968 54.7711 77.6565 54.7742 77.6254 54.7494C77.5789 54.7153 77.551 54.6749 77.5231 54.6067L77.551 54.5323C77.52 54.3152 77.5014 54.0857 77.4828 53.8562C77.489 53.8531 77.4921 53.85 77.4983 53.8469C77.6192 53.7693 77.7526 53.6825 77.8332 53.5212L77.8115 53.363C77.7526 53.3351 77.672 53.3692 77.5913 53.4158C77.551 53.4375 77.5107 53.4654 77.4766 53.4871C77.4704 53.4902 77.4642 53.4964 77.458 53.4995C77.4549 53.4654 77.4518 53.4344 77.4518 53.4003C77.4301 53.1863 77.4114 52.9754 77.3959 52.7676C77.3897 52.7241 77.3866 52.6776 77.3835 52.6311C77.2285 53.0405 77.0734 53.4468 76.9152 53.8531C76.7974 53.9337 76.6795 54.0143 76.5648 54.0888C76.5462 54.1012 76.5306 54.1136 76.5151 54.1291C76.7664 53.4127 77.03 52.6962 77.2936 51.9798C77.3215 51.8961 77.3928 51.8154 77.458 51.7782C77.4735 51.7689 77.489 51.7627 77.5014 51.7596C77.7154 51.7131 77.7185 51.9612 77.7371 52.1566C77.7588 52.4078 77.7867 52.6559 77.8053 52.8978C77.827 53.1552 77.8487 53.4065 77.8705 53.6484Z" fill="#F2F0F2"/>
<path d="M79.6475 50.7676C79.7685 50.6962 79.877 50.6807 79.9825 50.7211C80.0631 50.7521 79.9918 50.9289 79.9018 50.9816C79.8925 50.9878 79.8832 50.9909 79.8739 50.994C79.8336 51.0064 79.7964 51.025 79.7592 51.0436C79.48 51.2049 79.2505 51.5988 79.0675 51.9306C78.8721 52.2749 78.6799 52.6967 78.6861 53.0316C78.6923 53.3201 78.8349 53.4937 79.0986 53.3821C79.1389 53.3635 79.1823 53.3418 79.2226 53.3201C79.3374 53.2549 79.4521 53.165 79.5607 53.0688C79.7157 52.9324 79.8429 52.7587 79.9918 52.5974C80.0197 52.5664 80.0476 52.5416 80.0786 52.523C80.122 52.4982 80.1654 52.492 80.2027 52.5075L80.2244 52.7339C80.0166 53.1743 79.5979 53.5309 79.2505 53.7325C79.2195 53.7511 79.1854 53.7698 79.1544 53.7853C78.8318 53.9496 78.5496 53.9248 78.4131 53.655C78.2922 53.3914 78.3108 53.0161 78.4379 52.6191C78.5713 52.2004 78.8132 51.76 79.0613 51.3848C79.1947 51.1832 79.3498 50.9847 79.5234 50.8544C79.57 50.8172 79.6103 50.7893 79.6475 50.7676Z" fill="#F2F0F2"/>
<path d="M82.3676 50.3035L82.3893 50.3531V50.4151L82.3831 50.4803L82.3552 50.5578L82.2808 50.6787L82.2405 50.716L82.228 50.7315L82.1815 50.7749L82.1257 50.8059L82.0947 50.809L82.0854 50.8059L82.0792 50.809L82.0544 50.7935L82.0389 50.7873L82.0265 50.7718L82.0109 50.7408L81.9985 50.6725L82.0327 50.5206L82.0575 50.4679L82.073 50.443L82.1071 50.3934L82.1195 50.3779L82.2591 50.2725L82.3676 50.3035Z" fill="#F2F0F2"/>
<path d="M85.3605 48.1965C85.3698 48.1903 85.3791 48.1872 85.3885 48.181C85.5156 48.1158 85.5497 48.3112 85.4226 48.4167C85.2272 48.5842 85.0256 48.8323 84.8922 49.0959C84.7372 49.3936 84.7061 49.7007 84.7061 49.9705C84.7061 50.0852 84.7061 50.2341 84.7744 50.2961C84.8209 50.3458 84.9015 50.3458 84.9822 50.3241C85.0349 50.3085 85.0907 50.2837 85.1465 50.2527C85.3326 50.1442 85.5249 49.9581 85.7017 49.8092C85.711 49.7999 85.7234 49.7937 85.7327 49.7875C85.7482 49.7782 85.7606 49.7751 85.773 49.7751C85.7792 49.7875 85.7823 49.7968 85.7885 49.8092C85.773 49.8278 85.7575 49.8464 85.7451 49.865C85.6707 49.955 85.6893 50.0418 85.742 50.0542C85.5373 50.3054 85.3264 50.5318 85.0938 50.6652C85.0442 50.6931 84.9946 50.7179 84.9449 50.7365C84.7154 50.8234 84.5139 50.7676 84.427 50.5722C84.3309 50.3551 84.3526 49.9891 84.4115 49.6759C84.4642 49.3905 84.5914 49.0773 84.7744 48.8013C84.9419 48.5283 85.1372 48.3236 85.3605 48.1965Z" fill="#F2F0F2"/>
<path d="M87.6895 47.3842C87.7639 47.5268 87.7391 47.7346 87.7112 47.9517C87.6585 48.3301 87.5251 48.7643 87.3049 49.1396C87.1095 49.4745 86.8335 49.7567 86.5668 49.9118C86.3125 50.0576 86.0644 50.0886 85.8969 49.9428C85.8814 49.9614 85.8628 49.98 85.8473 49.9987C85.8318 50.0142 85.8194 50.0235 85.8069 50.0328C85.7852 50.0452 85.7635 50.0483 85.7449 50.0452C85.6891 50.0328 85.6705 49.9459 85.748 49.856C85.7635 49.8374 85.779 49.8188 85.7914 49.8002C85.7852 49.7878 85.779 49.7785 85.7759 49.7661C85.6891 49.5552 85.6984 49.245 85.779 48.9411C85.8783 48.5348 86.0799 48.1099 86.3063 47.716C86.421 47.5268 86.542 47.3097 86.6939 47.1578C86.7374 47.1174 86.7777 47.0864 86.8211 47.0616C86.9483 46.9903 87.0692 46.9841 87.1592 47.0368C87.2615 47.0957 87.3142 47.2105 87.3328 47.3531C87.3546 47.3345 87.3763 47.3221 87.398 47.3097C87.5313 47.2291 87.6368 47.2601 87.6895 47.3842ZM86.452 48.1378C86.2722 48.4883 86.0458 49.0527 86.1419 49.335C86.2442 49.1923 86.3435 49.0496 86.4396 48.9008C86.6288 48.6154 86.8428 48.296 86.9359 47.9796C86.9886 47.8028 87.0227 47.5113 86.88 47.502L86.7994 47.5485L86.7064 47.6881C86.6195 47.8339 86.5327 47.9827 86.452 48.1378ZM87.2801 48.0944C87.2925 47.9982 87.2987 47.899 87.2925 47.7997C87.2832 47.8401 87.2708 47.8804 87.2584 47.9207C87.1375 48.2991 86.8955 48.6557 86.6629 48.9938C86.5451 49.1644 86.4148 49.3287 86.2846 49.4931C86.359 49.5179 86.4675 49.49 86.5668 49.4311C86.5978 49.4125 86.6288 49.3908 86.6567 49.3691C86.8242 49.2326 86.9576 49.062 87.0661 48.8449C87.1871 48.5875 87.246 48.3456 87.2801 48.0944Z" fill="#F2F0F2"/>
<path d="M88.8402 46.9162C89.1565 46.82 89.5535 46.7735 89.5628 47.2046C89.5783 47.614 89.1999 48.0637 88.8929 48.2963C88.8061 48.3614 88.7192 48.4235 88.6293 48.4731C88.5424 48.5227 88.4556 48.563 88.3657 48.591C88.1982 48.6499 88.0028 48.653 87.9221 48.5289C87.8477 48.4173 87.9346 48.2188 88.0772 48.1226L88.2199 48.0575L88.3625 48.0079L88.4308 47.9769C88.4401 47.9738 88.4463 47.9738 88.4494 47.9738C88.4556 47.9707 88.4618 47.9676 88.4711 47.9614L88.5114 47.9459L88.5641 47.921L88.6851 47.8497L88.7657 47.8032L88.7719 47.7908L88.8929 47.6915L88.9611 47.6295L89.0542 47.5148V47.521L89.0573 47.5117C89.0542 47.5117 89.0542 47.5086 89.0542 47.5055C89.0511 47.4993 89.048 47.4931 89.0511 47.4931C89.0511 47.4931 89.0542 47.4962 89.0604 47.5024L89.0325 47.4775L89.0045 47.462L88.9983 47.4589L88.8495 47.4527C88.7068 47.4713 88.5517 47.5086 88.3998 47.5737C88.2323 47.6543 88.0493 47.7691 87.9283 47.6822C87.6771 47.5241 87.9252 46.9627 88.1423 46.6371C88.2695 46.4479 88.4184 46.2525 88.5858 46.1501C88.5952 46.1439 88.6014 46.1408 88.6107 46.1346C88.7688 46.0447 88.9053 46.0354 88.989 46.1408C89.0294 46.206 88.9735 46.3579 88.8898 46.4076C88.8774 46.4138 88.8681 46.42 88.8557 46.42C88.8092 46.4293 88.7595 46.4479 88.713 46.4758C88.6324 46.5223 88.5517 46.5967 88.4773 46.6898L88.316 46.9441L88.2292 47.1488L88.223 47.1767V47.1829V47.1891L88.3253 47.1302C88.4959 47.0433 88.6727 46.972 88.8402 46.9162ZM89.0573 47.5055C89.0604 47.5086 89.0604 47.5117 89.0635 47.5148L89.0573 47.5055C89.0604 47.5024 89.0604 47.5055 89.0573 47.5055Z" fill="#F2F0F2"/>
<path d="M92.8505 45.2041C92.9187 45.4274 93.08 45.7593 92.9218 46.1004L92.7078 46.2555C92.6427 46.2369 92.6024 46.1749 92.6241 46.0818L92.6055 46.057L92.5837 45.9454C92.562 45.8709 92.5434 45.7996 92.5217 45.7252C92.4938 45.5949 92.4535 45.4709 92.4132 45.353C92.4039 45.3251 92.3946 45.3003 92.3853 45.2724C92.4008 45.2631 92.4163 45.2569 92.4318 45.2476C92.5186 45.2041 92.6055 45.1607 92.7016 45.1235C92.7388 45.108 92.776 45.0925 92.8133 45.0801C92.8257 45.1204 92.8381 45.1607 92.8505 45.2041ZM92.683 45.9609L92.7667 45.8989L92.6923 45.9423L92.683 45.9609Z" fill="#F2F0F2"/>
<path d="M92.2581 44.9275C92.3295 44.8872 92.4008 44.8469 92.4721 44.8097C92.5373 44.7786 92.6086 44.7445 92.6799 44.7104C92.7016 44.7011 92.7264 44.6887 92.7482 44.6794C92.8505 44.6298 92.9498 44.5708 93.0366 44.5895C93.1513 44.6174 93.1451 44.8376 92.9901 44.9709C92.9622 44.9988 92.9311 45.0175 92.9032 45.0361C92.8722 45.0547 92.8443 45.0671 92.8133 45.0795C92.7761 45.095 92.7389 45.1074 92.7016 45.1229C92.6086 45.1632 92.5187 45.2035 92.4318 45.247C92.4163 45.2532 92.4008 45.2625 92.3853 45.2718C92.2736 45.3276 92.162 45.3865 92.0472 45.4517C92.0007 45.4796 91.9542 45.5075 91.9077 45.5354C91.6006 45.7277 91.2967 45.9324 90.9928 46.1774C90.94 46.2208 90.8842 46.2673 90.8315 46.3138C90.8191 46.3232 90.8098 46.3294 90.8005 46.3356C90.6857 46.4038 90.6516 46.227 90.7695 46.0998C90.8563 46.013 90.9462 45.9262 91.0362 45.8424C91.3122 45.5881 91.5944 45.3524 91.8829 45.1601C92.0038 45.0764 92.1248 44.9988 92.2488 44.9306C92.255 44.9306 92.255 44.9306 92.2581 44.9275Z" fill="#F2F0F2"/>
<path d="M92.6798 44.7107C92.6084 44.7417 92.5402 44.7758 92.472 44.8099C92.4006 44.8471 92.3293 44.8875 92.258 44.9278C92.2115 44.8409 92.168 44.7541 92.1215 44.6704C91.9168 44.2827 91.6718 43.9415 91.3834 43.6655C91.371 43.712 91.3648 43.7554 91.3586 43.7896C91.3245 43.957 91.2996 44.1183 91.2717 44.2796C91.2128 44.6238 91.1601 44.9712 91.1136 45.3093C91.0887 45.4891 91.0639 45.6659 91.0391 45.8458C90.9492 45.9295 90.8592 46.0164 90.7724 46.1032C90.6545 46.2273 90.6856 46.4041 90.8034 46.3389C90.8127 46.3327 90.8251 46.3265 90.8344 46.3172C90.8872 46.2707 90.943 46.2273 90.9957 46.1808C90.943 46.5932 90.8934 47.0057 90.8499 47.412C90.8437 47.4896 90.791 47.5578 90.7414 47.5888C90.6918 47.6167 90.6483 47.6074 90.6483 47.5299C90.6452 46.7638 90.6918 45.9885 90.7817 45.1697C90.8282 44.7727 90.8747 44.3664 90.9523 43.9477C91.005 43.6531 91.1043 43.3398 91.3555 43.1103L91.5509 43.0576C91.9416 43.405 92.2735 43.833 92.5247 44.354C92.5774 44.4719 92.6301 44.5897 92.6798 44.7107Z" fill="#F2F0F2"/>
<path d="M67.9023 89.5356C68.1349 89.4022 68.4171 89.4116 68.3706 89.7403C68.3644 89.7775 68.3427 89.8054 68.3178 89.8209C68.2899 89.8364 68.2589 89.8364 68.2496 89.8085C68.1938 89.6845 68.0821 89.6473 67.9426 89.7279C67.9209 89.7403 67.9023 89.7527 67.8805 89.7713C67.7069 89.9078 67.5549 90.1466 67.4401 90.3575C67.344 90.5374 67.2479 90.8041 67.3595 90.8909C67.4494 90.9654 67.6169 90.8909 67.7441 90.8475C68.0077 90.7607 68.3116 90.77 68.2589 91.1732C68.2093 91.5515 67.9147 91.8865 67.6293 92.0509C67.6045 92.0664 67.5797 92.0788 67.5549 92.0912C67.4029 92.1594 67.2292 92.2307 67.0928 92.2214C66.9811 92.2152 66.8695 92.1408 66.9191 91.9485C66.9315 91.902 66.9625 91.8617 66.9935 91.8431C67.0183 91.8276 67.0432 91.8276 67.0618 91.8493C67.1517 91.9485 67.2944 91.9113 67.4463 91.8586C67.5115 91.8369 67.5859 91.809 67.6572 91.7686C67.772 91.7035 67.8836 91.6074 67.9643 91.4616C68.0542 91.3034 68.0759 91.1266 67.9643 91.0894C67.8588 91.0553 67.7162 91.1173 67.589 91.1546C67.4525 91.198 67.3037 91.2259 67.2075 91.1546C67.1021 91.077 67.0742 90.9002 67.1207 90.6986C67.1672 90.497 67.2758 90.2924 67.3905 90.1032C67.5115 89.914 67.651 89.7248 67.8092 89.5976C67.8402 89.5728 67.8712 89.5542 67.9023 89.5356Z" fill="#F2F0F2"/>
<path d="M69.1551 90.175L69.1955 90.2432L69.1831 90.2153L69.1862 90.2184L69.2017 90.2153L69.211 90.2122L69.2265 90.2029L69.2699 90.1781C69.3195 90.1502 69.3722 90.1192 69.4219 90.085C69.4777 90.0478 69.5273 90.0168 69.5769 89.9827C69.6235 89.9517 69.67 89.9145 69.7165 89.8865C69.7227 89.8834 69.732 89.8772 69.7382 89.8741C69.8002 89.8369 69.8344 89.9238 69.7723 89.9982C69.6669 90.1129 69.5459 90.1998 69.4312 90.2649C69.4002 90.2804 69.3722 90.299 69.3443 90.3114C69.2792 90.3456 69.2017 90.389 69.1365 90.3952C69.0745 90.4014 69.0311 90.358 69.0652 90.2618L69.1551 90.175Z" fill="#F2F0F2"/>
<path d="M69.0622 89.9013C69.0622 89.9013 69.0653 89.9013 69.0653 89.8982C69.1769 89.8331 69.2917 89.7711 69.4064 89.7152C69.4654 89.6873 69.5181 89.6594 69.577 89.6284L69.6546 89.5912L69.7104 89.5633L69.7693 89.5571C69.8406 89.5478 69.8189 89.6966 69.7476 89.7524L69.6452 89.8145L69.5677 89.8455C69.5088 89.8703 69.4499 89.8951 69.394 89.9199C69.2762 89.9696 69.1645 90.0068 69.0467 90.0533C68.9722 90.0812 68.9908 89.9416 69.0622 89.9013Z" fill="#F2F0F2"/>
<path d="M72.4148 90.6644C72.4583 90.7016 72.4738 90.7916 72.4148 90.8846L72.4024 90.9063C72.3745 90.9466 72.3404 90.9838 72.3032 91.0056C72.2815 91.018 72.2598 91.0242 72.2412 91.0211L72.1977 90.9807C72.1481 90.959 72.0861 90.99 72.0148 91.0304C71.9093 91.0955 71.8101 91.173 71.7077 91.263C71.6147 91.3405 71.5216 91.4367 71.4348 91.5421C71.3697 91.6817 71.2983 91.8181 71.2146 91.9422C71.1898 91.9794 71.1619 92.0073 71.134 92.0228C71.0657 92.0631 71.0037 92.0352 71.0254 91.9236C71.0595 91.7468 71.1619 91.57 71.2859 91.4118C71.32 91.3374 71.3511 91.263 71.379 91.1885C71.472 90.959 71.5557 90.7264 71.5992 90.4969C71.6333 90.3108 71.6519 90.0441 71.5495 89.9604L71.4875 89.9883C71.4596 90.0441 71.4503 90.1092 71.4348 90.1682C71.4069 90.2922 71.3821 90.4132 71.3697 90.5279C71.3635 90.5714 71.3386 90.6024 71.3107 90.6179C71.2766 90.6396 71.2394 90.6303 71.2394 90.5838C71.2394 90.4287 71.2549 90.2705 71.3014 90.0968C71.3324 89.9728 71.379 89.8425 71.4844 89.7588C71.4968 89.7495 71.5061 89.7433 71.5185 89.7371C71.7325 89.613 71.8132 89.9294 71.8287 90.1123C71.8442 90.3884 71.7604 90.7171 71.6426 91.0304C71.6426 91.0335 71.6395 91.0335 71.6395 91.0366C71.7573 90.928 71.9062 90.7978 72.052 90.714C72.1977 90.6272 72.3311 90.59 72.4148 90.6644ZM72.1977 90.8908L72.2101 90.8288C72.2039 90.8505 72.1977 90.8629 72.1946 90.8722C72.1946 90.8784 72.1946 90.8846 72.1977 90.8908Z" fill="#F2F0F2"/>
<path d="M72.2753 88.2952C72.3622 88.2456 72.4428 88.2797 72.4118 88.4099C72.3994 88.4689 72.3622 88.5309 72.3188 88.5712C72.3188 88.5743 72.3157 88.5743 72.3126 88.5774C72.3002 88.5867 72.2878 88.596 72.2753 88.6053C72.0551 88.7697 71.838 88.9186 71.6147 89.0519C71.5558 89.0891 71.4969 89.1233 71.438 89.1574C71.379 89.1915 71.3201 89.2256 71.2612 89.2566C71.1526 89.3093 71.0286 89.3838 70.9262 89.3993C70.8673 89.4117 70.8642 89.3155 70.9262 89.2597C71.0317 89.1636 71.1526 89.0922 71.2612 89.0209C71.3697 88.9434 71.4783 88.8782 71.5868 88.8007C71.8101 88.6456 72.0303 88.4813 72.2474 88.3107C72.2567 88.3045 72.266 88.2983 72.2753 88.2952Z" fill="#F2F0F2"/>
<path d="M71.689 87.3058C71.6828 87.3554 71.6766 87.4019 71.6735 87.4485C71.6673 87.5694 71.6611 87.6935 71.6704 87.8051C71.6735 87.8641 71.6797 87.9261 71.6859 87.9788C71.6983 88.0439 71.7138 88.0967 71.6797 88.1835C71.6611 88.2269 71.6238 88.2703 71.5897 88.2921C71.5742 88.3014 71.5587 88.3045 71.5463 88.3014C71.4812 88.2828 71.4719 88.2238 71.4626 88.1432C71.4533 88.075 71.4471 88.0098 71.4471 87.9323C71.444 87.8392 71.4471 87.7431 71.4533 87.6439C71.3881 87.7276 71.323 87.8082 71.2548 87.8858C71.2455 87.8982 71.2331 87.9075 71.2238 87.9137C71.1648 87.9478 71.1245 87.8703 71.1896 87.7958C71.292 87.6749 71.3881 87.5477 71.4781 87.4144C71.5122 87.1755 71.5742 86.9305 71.658 86.6855C71.7014 86.5615 71.7541 86.4281 71.8564 86.3475C71.8658 86.3413 71.8751 86.3351 71.8844 86.3289C71.9712 86.2792 72.0363 86.3195 72.0425 86.4188C72.0549 86.6452 71.8968 86.9553 71.7634 87.1848C71.7386 87.2221 71.7138 87.2655 71.689 87.3058ZM71.8378 86.6483C71.8099 86.7382 71.7851 86.8282 71.7603 86.915C71.7975 86.8344 71.8316 86.7506 71.8534 86.67L71.872 86.5832L71.8751 86.5491L71.8658 86.5708L71.8378 86.6483Z" fill="#F2F0F2"/>
<path d="M74.0244 87.8353C73.9841 87.8477 73.9438 87.8694 73.9034 87.8911C73.8693 87.9097 73.8352 87.9315 73.8011 87.9563C73.7608 87.8074 73.7236 87.6585 73.6832 87.5128C73.6584 87.4321 73.6398 87.3484 73.615 87.2678C73.6119 87.2615 73.6119 87.2522 73.6088 87.246C73.5499 87.581 73.4785 87.9159 73.3917 88.254C73.3235 88.3067 73.2552 88.3563 73.187 88.4091C73.2956 87.9159 73.3948 87.429 73.4661 86.9514C73.4785 86.8925 73.5251 86.8336 73.5685 86.8025C73.5716 86.7994 73.5747 86.7994 73.5778 86.7963C73.7546 86.694 73.7825 86.9607 73.8166 87.0848C73.8755 87.2957 73.9345 87.5097 73.9903 87.7299C74.0027 87.7671 74.012 87.8012 74.0244 87.8353Z" fill="#F2F0F2"/>
<path d="M74.1702 88.3637C74.2167 88.5529 74.2849 88.7545 74.257 88.9902C74.2508 89.0553 74.2074 89.105 74.1609 89.1329C74.133 89.1484 74.1019 89.1546 74.0802 89.1453C74.0399 89.1267 74.0182 89.105 73.9996 89.0615C73.9841 89.0243 74.0027 88.9809 74.0337 88.9468C74.0306 88.9065 74.0244 88.8631 74.0182 88.8227C74.0027 88.739 73.9841 88.6553 73.9593 88.5746C73.9252 88.4444 73.891 88.311 73.8569 88.1807C73.9314 88.1249 73.9996 88.0598 74.0616 87.9854C74.0988 88.1094 74.1361 88.2366 74.1702 88.3637Z" fill="#F2F0F2"/>
<path d="M73.0196 89.1661C73.0599 88.9893 73.1033 88.8156 73.1405 88.6419C73.2026 88.6047 73.2646 88.5675 73.3266 88.5303C73.2708 88.7381 73.2119 88.9459 73.1436 89.1537C73.1312 89.1878 73.1126 89.2126 73.0909 89.2219C73.0475 89.2467 73.0041 89.2281 73.0196 89.1661Z" fill="#F2F0F2"/>
<path d="M73.9035 87.8925C73.9438 87.8676 73.9841 87.849 74.0245 87.8366C74.0338 87.8335 74.0431 87.8304 74.0493 87.8273C74.1113 87.8149 74.1237 87.9049 74.0648 87.9793C74.0027 88.0568 73.9314 88.122 73.857 88.1778C73.7546 88.2553 73.6461 88.3205 73.5499 88.3856C73.4755 88.4352 73.4011 88.4848 73.3266 88.5313C73.2646 88.5686 73.2026 88.6058 73.1405 88.643C73.1033 88.6647 73.0661 88.6864 73.0289 88.7112C72.9483 88.7578 72.9265 88.6182 73.0103 88.5562C73.0723 88.5096 73.1312 88.4631 73.1933 88.4166C73.2615 88.3639 73.3297 88.3111 73.398 88.2615C73.4414 88.2274 73.4848 88.1964 73.5282 88.1654C73.6151 88.1034 73.7081 88.0258 73.8011 87.9638C73.8353 87.9359 73.8694 87.9142 73.9035 87.8925Z" fill="#F2F0F2"/>
<path d="M75.7364 85.5527C75.8357 85.4937 75.9349 85.4782 76.0124 85.5186C76.0652 85.5465 76.0186 85.6705 75.9597 85.7046C75.9473 85.7108 75.9318 85.7139 75.9194 85.7139C75.8729 85.7046 75.8264 85.717 75.7798 85.745C75.6527 85.8163 75.5317 85.9962 75.4511 86.1512C75.327 86.3963 75.2464 86.663 75.2247 86.9018C75.2061 87.0662 75.2061 87.3019 75.3704 87.2429C75.4077 87.2305 75.4449 87.2119 75.4852 87.1902C75.5441 87.1561 75.6031 87.1158 75.6558 87.0786C75.7271 87.0258 75.8046 86.9607 75.8791 86.9173C75.8977 86.908 75.9132 86.8987 75.9318 86.8894C75.9876 86.8615 76.0279 86.8863 76.0124 86.9576C75.9752 87.1375 75.8295 87.2771 75.7054 87.3639C75.6558 87.398 75.6031 87.4321 75.5503 87.4631C75.4821 87.5004 75.417 87.5345 75.3518 87.5593C74.8618 87.7578 74.9424 87.0165 75.0913 86.5544C75.172 86.297 75.3053 86.0148 75.479 85.7884C75.5565 85.6891 75.6465 85.6054 75.7364 85.5527Z" fill="#F2F0F2"/>
<path d="M77.4858 85.5254L77.4889 85.5378V85.5658L77.4827 85.5906L77.4765 85.6061L77.4703 85.6247L77.4423 85.6774L77.4144 85.6991L77.4051 85.7115L77.3958 85.7177L77.3803 85.7301L77.3617 85.7425H77.3555L77.3338 85.758L77.3307 85.7549L77.3028 85.758L77.2718 85.7518L77.247 85.7363L77.2314 85.7022V85.6588L77.2345 85.6309L77.247 85.5999L77.2656 85.572L77.2966 85.5316L77.3214 85.513L77.3493 85.5006H77.371H77.3803L77.3865 85.4882L77.4113 85.4665L77.4392 85.4541L77.4641 85.4572L77.4765 85.4727L77.4796 85.4882V85.5161L77.4858 85.5223V85.5254Z" fill="#F2F0F2"/>
<path d="M79.5606 84.3502C79.7373 84.3843 79.7684 84.6386 79.6784 84.8992C79.5792 85.1938 79.3497 85.4512 79.1357 85.6342C79.0829 85.6776 79.024 85.7241 78.9651 85.7583C78.9124 85.7893 78.8627 85.8079 78.8162 85.8048C78.7263 85.7924 78.6798 85.69 78.7108 85.5598C78.717 85.5381 78.7263 85.5195 78.7387 85.5008C78.7387 85.4791 78.7387 85.4574 78.7387 85.4419C78.7325 85.2682 78.7325 85.0884 78.7325 84.9085C78.7325 84.8992 78.7325 84.8899 78.7325 84.8806C78.7325 84.8713 78.7325 84.8651 78.7325 84.8557C78.7325 84.5084 78.7232 84.161 78.7325 83.8075C78.7356 83.671 78.7883 83.5811 78.8813 83.5283C78.9031 83.5159 78.9248 83.5066 78.9496 83.4973C79.0519 83.4663 79.1574 83.4415 79.2504 83.4446C79.4644 83.4632 79.5451 83.702 79.4551 84.0153C79.4086 84.1672 79.3342 84.3161 79.2411 84.4557C79.238 84.4588 79.238 84.4619 79.2349 84.4619C79.238 84.4588 79.2411 84.4588 79.2442 84.4557C79.2659 84.4433 79.2876 84.4309 79.3093 84.4184C79.3962 84.3719 79.483 84.3347 79.5606 84.3502ZM79.4799 84.8185C79.5109 84.6542 79.4241 84.6293 79.3093 84.6945C79.2566 84.7224 79.207 84.7534 79.1543 84.7813C79.0736 84.8278 78.9961 84.8744 78.9155 84.9209C78.9155 84.9953 78.9124 85.0728 78.9093 85.1504C78.9062 85.2279 78.9031 85.3117 78.8969 85.3892C78.8938 85.4264 78.8906 85.4636 78.8875 85.4977C78.9062 85.5039 78.931 85.4946 78.9589 85.4791C79.0488 85.4264 79.176 85.293 79.2194 85.2496C79.328 85.138 79.452 84.9767 79.4799 84.8185ZM78.9279 84.1703C78.9248 84.3006 78.9217 84.434 78.9186 84.5673C78.9558 84.527 78.993 84.4867 79.024 84.4464C79.1295 84.313 79.2287 84.1517 79.2597 83.9904C79.2907 83.8385 79.2566 83.733 79.1512 83.7237C79.1046 83.7144 79.055 83.7206 78.9992 83.7361L78.9279 83.7547C78.9279 83.8168 78.931 83.8757 78.9279 83.9346C78.931 84.0122 78.9279 84.0897 78.9279 84.1703Z" fill="#F2F0F2"/>
<path d="M80.8136 82.6906C80.8818 82.6503 80.9531 82.6193 81.0214 82.6007C81.2633 82.5293 81.4587 82.6317 81.5455 82.8457C81.6385 83.0721 81.6292 83.4505 81.5145 83.7885C81.4028 84.1173 81.164 84.3933 80.919 84.5856C80.8353 84.6507 80.7422 84.7189 80.6492 84.7748C80.4786 84.874 80.3142 84.9174 80.2212 84.7903C80.1809 84.7313 80.2367 84.5763 80.3173 84.5298C80.3297 84.5236 80.3422 84.5173 80.3546 84.5173C80.367 84.5173 80.3794 84.5142 80.3918 84.5111C80.4073 84.508 80.4228 84.5049 80.4414 84.4987C80.5096 84.4801 80.5779 84.4491 80.6492 84.4088C80.7391 84.3561 80.8291 84.2909 80.9128 84.2165C81.0648 84.0832 81.2074 83.9219 81.2695 83.7017C81.3005 83.5807 81.3067 83.466 81.3067 83.3512C81.3098 83.2365 81.3036 83.131 81.2602 83.0504C81.1609 82.8674 80.9438 82.8767 80.7205 83.0039C80.6554 83.0411 80.5934 83.0876 80.5313 83.1434C80.491 83.1775 80.4538 83.2178 80.4166 83.2582C80.4073 83.2706 80.3949 83.2768 80.3856 83.283C80.3794 83.2861 80.3732 83.2892 80.367 83.2923C80.3173 83.3047 80.2832 83.2551 80.3297 83.1775C80.3453 83.1527 80.3577 83.131 80.3732 83.1093C80.4135 83.0504 80.4569 82.9946 80.5034 82.9418C80.5996 82.8395 80.705 82.7526 80.8136 82.6906Z" fill="#F2F0F2"/>
<path d="M80.5466 84.1977C80.5466 84.2659 80.5559 84.3218 80.5187 84.4024C80.5001 84.4427 80.4691 84.483 80.4381 84.5016C80.4226 84.5047 80.407 84.5109 80.3884 84.514C80.3791 84.5109 80.3667 84.5078 80.3605 84.4954C80.3295 84.4551 80.3357 84.3869 80.3357 84.3218C80.3357 84.269 80.3388 84.207 80.3388 84.1481C80.3419 84.0302 80.3419 83.9124 80.345 83.8007C80.3481 83.6332 80.3543 83.4658 80.3636 83.2983C80.3698 83.2952 80.376 83.2952 80.3822 83.289C80.3915 83.2828 80.4039 83.2735 80.4132 83.2642C80.4505 83.2238 80.4877 83.1835 80.528 83.1494C80.5342 83.3293 80.5404 83.5061 80.5404 83.6891C80.5435 83.8038 80.5435 83.9248 80.5466 84.0457C80.5435 84.0953 80.5466 84.1481 80.5466 84.1977Z" fill="#F2F0F2"/>
<path d="M80.4475 82.9511C80.4692 82.9387 80.4878 82.9356 80.5033 82.9449C80.4568 82.9945 80.4134 83.0503 80.373 83.1123C80.373 83.0999 80.373 83.0875 80.3761 83.0751C80.3761 83.0193 80.4134 82.9728 80.4475 82.9511Z" fill="#F2F0F2"/>
<path d="M83.1335 82.3058C83.1521 82.3337 83.1614 82.3741 83.1614 82.4206C83.1614 82.464 83.149 82.5167 83.1304 82.5695L83.0559 82.6532L83.0125 82.6501L83.0032 82.6408L82.997 82.6284L82.9536 82.6842L82.8885 82.678L82.8792 82.5943L82.8823 82.5664L82.9288 82.4547L82.9784 82.3803L83.0652 82.3027L83.1335 82.3058Z" fill="#F2F0F2"/>
<path d="M85.0035 80.718C85.1028 80.6622 85.1989 80.6467 85.2672 80.6994C85.3137 80.7304 85.2672 80.8358 85.2144 80.8669C85.1989 80.8762 85.1803 80.8793 85.1648 80.87C85.1276 80.8514 85.0811 80.8607 85.0315 80.8886C84.9973 80.9072 84.9632 80.9351 84.9353 80.9723C84.8578 81.0654 84.8082 81.1863 84.7926 81.2887C84.7771 81.3972 84.8113 81.4344 84.8919 81.4251C84.9663 81.422 85.047 81.3879 85.1214 81.3879C85.2858 81.3786 85.4191 81.5027 85.3168 81.7663C85.2175 82.0206 84.9787 82.2129 84.7957 82.3214C84.7771 82.3307 84.7616 82.3431 84.743 82.3524C84.6531 82.4052 84.5507 82.4517 84.4763 82.4424C84.3833 82.4331 84.3398 82.2935 84.436 82.1478C84.4546 82.1198 84.4732 82.1012 84.4918 82.0888C84.5383 82.0609 84.5786 82.0888 84.5724 82.1633L84.5818 82.154L84.5973 82.1571L84.6531 82.1384C84.6841 82.126 84.7182 82.1074 84.7492 82.0919C84.7709 82.0795 84.7958 82.064 84.8175 82.0485C84.9074 81.9927 85.0035 81.9151 85.078 81.8159L85.1276 81.7384V81.6856C85.1028 81.6453 85.0346 81.6453 84.9818 81.6577C84.8299 81.6825 84.6438 81.7229 84.6066 81.5368C84.5724 81.3569 84.6717 81.0747 84.8206 80.8824C84.8733 80.811 84.9384 80.7552 85.0035 80.718Z" fill="#F2F0F2"/>
<path d="M86.2534 80.6869C86.272 80.78 86.2782 80.8792 86.2658 80.9878C86.2596 81.0994 86.2379 81.2173 86.182 81.3413C86.1169 81.4871 86.0115 81.6111 85.906 81.6732C85.8347 81.7135 85.7633 81.7259 85.7044 81.6887C85.5711 81.608 85.5866 81.363 85.6331 81.1428C85.6703 80.9505 85.7633 80.7086 85.9184 80.5691C85.9246 80.566 85.9277 80.5598 85.9339 80.5567C85.9401 80.5536 85.9463 80.5505 85.9525 80.5505C85.9556 80.5474 85.9587 80.5474 85.9618 80.5443C85.996 80.5256 86.027 80.5132 86.058 80.5101C86.1696 80.4977 86.2348 80.5722 86.2534 80.6869ZM86.0239 81.2762C86.0518 81.2018 86.0549 81.1366 86.058 81.0684L86.0549 80.9536L86.0425 80.8792L86.0115 80.811L85.9959 80.8017H85.9804H85.9711L85.9556 80.8048L85.9587 80.8017L85.9184 80.8203L85.9029 80.8234L85.8719 80.842C85.8719 80.842 85.8719 80.842 85.8688 80.842C85.8378 80.9226 85.813 81.0064 85.7975 81.0932C85.7757 81.2235 85.754 81.394 85.8285 81.4406L85.9246 81.4189C85.968 81.394 86.0022 81.3382 86.0239 81.2762Z" fill="#F2F0F2"/>
<path d="M86.8118 79.8215C86.8397 79.806 86.8677 79.806 86.877 79.8401C86.9049 79.9735 86.9297 80.1099 86.9545 80.2495C86.9638 80.2278 86.9762 80.2092 86.9886 80.1875C87.0382 80.0944 87.1096 79.9921 87.184 79.9331C87.1964 79.9238 87.2088 79.9145 87.2212 79.9083C87.2957 79.8649 87.3639 79.8835 87.4073 79.93C87.4507 79.9828 87.4817 80.0572 87.5066 80.1347C87.5221 80.1875 87.5252 80.2929 87.5655 80.3115L87.6151 80.3053L87.643 80.2898L87.6926 80.2619C87.7671 80.2061 87.8415 80.1316 87.9097 80.0634C87.919 80.0541 87.9283 80.0479 87.9346 80.0448C87.9966 80.0107 88.0245 80.0913 87.9842 80.1658C87.8849 80.3487 87.7733 80.5224 87.6244 80.6093C87.6089 80.6186 87.5934 80.6279 87.5748 80.6341C87.4166 80.7023 87.2988 80.6372 87.2708 80.4697C87.2584 80.3922 87.2522 80.3115 87.2274 80.2433L87.2057 80.1906L87.1809 80.2247C87.091 80.3518 87.0258 80.5162 87.0134 80.6527C87.0041 80.7364 86.9514 80.8078 86.9018 80.8357C86.8522 80.8636 86.8025 80.8543 86.7963 80.7767C86.7684 80.5069 86.7467 80.2278 86.7436 79.9425C86.7405 79.8897 86.7746 79.8432 86.8118 79.8215Z" fill="#F2F0F2"/>
<path d="M90.3938 78.755C90.4868 78.8108 90.4527 78.9783 90.3751 79.1334L90.3875 79.1148C90.3379 79.2512 90.2325 79.366 90.1301 79.4249C90.1146 79.4342 90.0991 79.4404 90.0867 79.4466C90.0061 79.4807 89.9378 79.4652 89.8727 79.4528C89.7797 79.4404 89.6587 79.4249 89.5719 79.4342C89.5657 79.4342 89.5564 79.4373 89.5502 79.4373C89.4695 79.5893 89.3796 79.7381 89.2741 79.8746C89.178 79.9987 89.0477 80.1506 88.9268 80.222C88.902 80.2375 88.8741 80.2499 88.8492 80.2561C88.7128 80.2933 88.6383 80.1971 88.6042 80.0762C88.5608 79.9428 88.5484 79.7629 88.6725 79.5831C88.7903 79.4187 88.9764 79.2946 89.1129 79.1954C89.2059 79.1303 89.302 79.0651 89.3982 79.0124C89.4385 78.9907 89.4757 78.969 89.516 78.9504C89.606 78.7023 89.668 78.4448 89.7269 78.2029C89.7394 78.1564 89.7673 78.1192 89.7952 78.1037C89.8324 78.082 89.8696 78.0913 89.8758 78.144C89.8851 78.3611 89.8572 78.5968 89.7921 78.8387C89.8603 78.817 89.9285 78.7984 89.9937 78.7922C90.0712 78.7798 90.1456 78.786 90.2201 78.7829C90.2046 78.7829 90.2015 78.7829 90.2015 78.786C90.2015 78.786 90.2635 78.7829 90.2666 78.7798L90.2976 78.7891C90.3038 78.7829 90.3131 78.7767 90.3193 78.7736C90.341 78.7457 90.372 78.7426 90.3938 78.755ZM89.0229 79.7785C89.1005 79.6978 89.1687 79.611 89.2276 79.521C89.1811 79.5396 89.1315 79.5645 89.085 79.5924C89.0415 79.6172 88.995 79.6482 88.9516 79.6792L88.8834 79.735L88.8989 79.825L88.9144 79.8684L89.0229 79.7785ZM88.8803 79.7133C88.8803 79.7102 88.8834 79.7102 88.8803 79.7102V79.7133Z" fill="#F2F0F2"/>
<path d="M40.6534 103.929C40.7961 103.845 40.9357 103.821 41.038 103.886C41.1031 103.929 41.0504 104.087 40.9636 104.14C40.9543 104.146 40.9481 104.149 40.9388 104.152C40.855 104.174 40.7682 104.205 40.6844 104.255C40.6038 104.301 40.5263 104.366 40.4549 104.459C40.3061 104.661 40.3371 104.81 40.4456 104.884C40.5666 104.974 40.7154 105.024 40.8581 105.073C40.9853 105.117 41.1217 105.142 41.2179 105.244C41.4412 105.452 41.3202 105.954 41.0349 106.354C40.8395 106.63 40.5821 106.832 40.3371 106.975C40.2502 107.024 40.1665 107.068 40.0859 107.102C39.7633 107.248 39.4625 107.297 39.2826 107.061C39.2299 106.993 39.3105 106.804 39.4035 106.748C39.4253 106.736 39.4501 106.73 39.4718 106.739C39.7075 106.798 40.0021 106.696 40.2875 106.531C40.3154 106.516 40.3433 106.5 40.3681 106.482C40.517 106.382 40.6844 106.277 40.8085 106.116C40.9046 105.998 40.9884 105.827 40.9574 105.712C40.9201 105.588 40.7775 105.56 40.6813 105.526C40.5387 105.47 40.3991 105.415 40.275 105.334C40.1603 105.263 40.0579 105.163 40.0331 104.993C40.0021 104.819 40.0673 104.596 40.1944 104.391C40.3185 104.199 40.489 104.025 40.6534 103.929Z" fill="#F2F0F2"/>
<path d="M42.2104 104.664C42.2569 104.636 42.3034 104.614 42.3499 104.593C42.4275 104.556 42.4988 104.534 42.5701 104.512L42.6601 104.487L42.75 104.49L42.7872 104.531C42.8307 104.583 42.7934 104.714 42.7159 104.779L42.5856 104.847L42.4957 104.866C42.4368 104.878 42.3747 104.9 42.3158 104.922L42.291 104.928L42.2786 104.934L42.2724 104.937L42.2414 104.946L42.1266 104.999L42.108 105.002L42.0553 105.033L41.9654 105.077C41.8506 105.142 41.8227 104.959 41.9343 104.859C42.0057 104.797 42.077 104.742 42.1483 104.695C42.1732 104.689 42.1918 104.676 42.2104 104.664Z" fill="#F2F0F2"/>
<path d="M42.6818 105.111C42.7594 105.068 42.8307 105.03 42.9082 104.993C43.0168 104.937 43.0354 105.092 42.933 105.192C42.8555 105.263 42.7842 105.334 42.7004 105.396C42.6291 105.446 42.5516 105.502 42.4802 105.545C42.3314 105.626 42.1825 105.703 42.0305 105.769C41.9716 105.797 41.9158 105.778 41.9158 105.703L42.0274 105.514C42.1701 105.431 42.319 105.344 42.4647 105.248C42.5392 105.201 42.6105 105.161 42.6818 105.111Z" fill="#F2F0F2"/>
<path d="M48.8197 103.412C48.8755 103.378 48.9344 103.357 48.9933 103.347C49.2259 103.31 49.3407 103.505 49.3004 103.803C49.288 103.893 49.2601 103.986 49.2228 104.076C49.2942 104.023 49.3686 103.974 49.4399 103.93C49.4616 103.918 49.4834 103.902 49.5082 103.89C49.6446 103.813 49.7966 103.747 49.8896 103.825C49.9424 103.868 49.9393 103.983 49.8617 104.082C49.7811 104.185 49.6912 104.247 49.5981 104.299C49.5423 104.334 49.4834 104.361 49.4275 104.396C49.2911 104.476 49.1515 104.569 49.015 104.662C48.7979 104.814 48.5808 104.969 48.3668 105.093C48.3296 105.115 48.2924 105.137 48.2552 105.155C48.2273 105.171 48.2025 105.183 48.1746 105.196C48.0846 105.233 48.0071 105.217 48.0071 105.1C48.0071 105.007 48.0784 104.864 48.1653 104.814C48.1684 104.811 48.1715 104.811 48.1746 104.811C48.218 104.789 48.2645 104.768 48.3079 104.74C48.3637 104.709 48.4196 104.672 48.4754 104.634C48.5436 104.582 48.6119 104.523 48.677 104.458C48.801 104.324 48.9468 104.144 49.0057 103.964C49.0585 103.797 49.0119 103.685 48.8848 103.71C48.8414 103.719 48.7979 103.738 48.7545 103.763C48.6305 103.834 48.5095 103.958 48.3948 104.076C48.3824 104.089 48.373 104.098 48.3606 104.101C48.2738 104.151 48.2242 104.014 48.3141 103.906C48.463 103.719 48.6398 103.518 48.8197 103.412Z" fill="#F2F0F2"/>
<path d="M52.1537 99.4294C52.4949 99.2309 52.8329 99.11 52.9353 99.3488C52.9787 99.4604 52.8826 99.6403 52.7802 99.7489L52.743 99.7892C52.7275 99.8047 52.712 99.8171 52.6965 99.8264C52.6375 99.8605 52.5724 99.8574 52.5383 99.8233C52.4359 99.8419 52.3057 99.9039 52.1692 99.9815C51.9645 100.099 51.7474 100.254 51.6017 100.351C51.2915 100.558 50.9876 100.769 50.6743 100.968C49.9641 101.433 49.2539 101.886 48.5406 102.311C48.3514 102.425 48.1591 102.537 47.9699 102.646C47.4489 102.946 46.9278 103.235 46.4068 103.514C45.7617 103.864 45.0391 104.305 44.4157 104.444C44.3195 104.466 44.3009 104.299 44.4157 104.212C44.6638 104.023 44.9181 103.861 45.1724 103.712C45.6935 103.412 46.2238 103.167 46.7324 102.878C46.8348 102.819 46.934 102.763 47.0364 102.705C47.7311 102.304 48.4227 101.883 49.1112 101.448C49.8928 100.949 50.6712 100.419 51.4528 99.8915C51.6203 99.7799 51.8901 99.5814 52.1537 99.4294Z" fill="#F2F0F2"/>
<path d="M46.6328 101.51C46.6514 101.631 46.5429 101.801 46.4436 101.894C46.425 101.913 46.4033 101.925 46.3847 101.938C46.3041 101.984 46.2328 101.975 46.1831 101.932C46.1521 102.006 46.118 102.081 46.0808 102.155C45.9784 102.344 45.8482 102.524 45.6931 102.626C45.6807 102.636 45.6683 102.642 45.6559 102.648C45.5256 102.723 45.4016 102.729 45.3085 102.682C45.1038 102.574 45.0511 102.26 45.11 101.916C45.1752 101.575 45.3519 101.19 45.6032 100.908C45.7241 100.775 45.8513 100.666 45.9784 100.592C46.1211 100.508 46.2669 100.468 46.4033 100.471C46.4778 100.471 46.4561 100.607 46.3909 100.679C46.4219 100.703 46.4436 100.747 46.4467 100.803C46.4654 100.958 46.4716 101.125 46.4902 101.287L46.4964 101.311L46.5026 101.364L46.515 101.411V101.423C46.577 101.398 46.6266 101.429 46.6328 101.51ZM46.0591 101.029C46.0591 100.942 46.0963 100.852 46.1552 100.781C46.1304 100.793 46.1087 100.806 46.0839 100.818C45.9443 100.899 45.8048 101.023 45.6838 101.178C45.5287 101.386 45.4264 101.649 45.4047 101.854C45.3923 101.978 45.3985 102.065 45.4295 102.149L45.4884 102.232L45.5256 102.267L45.5442 102.27L45.5628 102.273L45.6001 102.279L45.6063 102.276L45.6435 102.263L45.6807 102.242L45.6869 102.232L45.7334 102.183L45.7458 102.161L45.752 102.158L45.7768 102.118L45.8234 102.028L45.8296 102.009L45.8544 101.96L45.8947 101.845C45.9939 101.569 46.0529 101.274 46.0591 101.029ZM46.5367 101.442L46.5522 101.448L46.5367 101.442ZM46.5088 101.429V101.423V101.429Z" fill="#F2F0F2"/>
<path d="M49.2134 99.1318L49.3033 99.2528L49.2134 99.4699L49.0583 99.6157L48.9622 99.6653C48.9157 99.687 48.8722 99.7087 48.8288 99.7273C48.8226 99.6498 48.8164 99.566 48.8164 99.4854C48.8164 99.4203 48.8164 99.3551 48.8195 99.2931L48.9777 99.2094L49.0862 99.1535L49.2134 99.1318Z" fill="#F2F0F2"/>
<path d="M48.5123 99.5039C48.5061 99.5628 48.503 99.6187 48.4999 99.6745C48.4999 99.7303 48.4999 99.7861 48.4999 99.842L48.4564 99.8482L48.3479 99.7861V99.7241L48.3541 99.7148L48.444 99.5597C48.4689 99.5411 48.4906 99.5225 48.5123 99.5039Z" fill="#F2F0F2"/>
<path d="M48.7141 98.8771C48.7172 98.874 48.7234 98.8709 48.7265 98.8709C48.7854 98.843 48.8474 98.8709 48.835 98.9515C48.8288 99.0663 48.8226 99.1779 48.8195 99.2896C48.8195 99.3547 48.8164 99.4167 48.8164 99.4818C48.8164 99.5625 48.8226 99.6462 48.8288 99.7238C48.8288 99.7269 48.8288 99.7269 48.8288 99.73L48.835 99.7889L48.8412 99.8261L48.8536 99.9843C48.8474 100.062 48.8133 100.158 48.742 100.214L48.7017 100.245L48.5683 100.239C48.5156 100.139 48.5032 99.9905 48.5032 99.8416C48.5032 99.7858 48.5032 99.7269 48.5032 99.6741C48.5032 99.6183 48.5094 99.5625 48.5156 99.5036C48.5311 99.3578 48.559 99.2058 48.5931 99.0507C48.6055 98.9794 48.6582 98.9081 48.7141 98.8771Z" fill="#F2F0F2"/>
<path d="M52.3458 97.3672C52.4729 97.6091 52.3303 98.0774 52.0915 98.3937C51.9426 98.5891 51.7565 98.738 51.5766 98.8403C51.4929 98.89 51.4153 98.9272 51.3316 98.9675C51.2603 99.0016 51.1889 99.0512 51.1176 99.0791C51.0401 99.1102 50.9811 99.0419 50.9842 98.9489C50.9842 98.8062 51.0432 98.7039 51.13 98.6232C51.1331 98.3038 51.13 97.9843 51.1114 97.6773C51.1052 97.4819 51.099 97.2865 51.0928 97.0973C51.0866 96.9082 51.068 96.7345 51.0866 96.5298C51.0897 96.4522 51.1393 96.3809 51.1889 96.3499C51.2293 96.3282 51.2696 96.3313 51.2882 96.3778C51.3471 96.536 51.3657 96.7376 51.3905 96.9237C51.4215 97.0911 51.4402 97.2741 51.4526 97.4509C51.4588 97.5439 51.4681 97.6339 51.4743 97.7269C51.5053 97.6773 51.5425 97.6308 51.5797 97.5843C51.6728 97.4726 51.7813 97.3796 51.8868 97.3206C52.0759 97.2152 52.2558 97.2059 52.3458 97.3672ZM51.648 98.3255C51.803 98.2294 51.9829 98.0433 51.9984 97.8324C52.0046 97.7362 51.9519 97.73 51.8868 97.7672C51.834 97.7983 51.7751 97.8541 51.7286 97.9161C51.6293 98.0526 51.5797 98.217 51.5487 98.3782C51.5642 98.3689 51.5797 98.3627 51.5952 98.3534C51.6138 98.3472 51.6324 98.3379 51.648 98.3255Z" fill="#F2F0F2"/>
<path d="M54.5849 98.5834L54.5384 98.7075L54.5353 98.7137L54.5197 98.754L54.5135 98.7602L54.4608 98.8688L54.3182 98.9711C54.2468 98.9835 54.1755 98.9649 54.1631 98.8812V98.7726L54.1817 98.7075L54.2282 98.6237L54.253 98.5617L54.2995 98.4935L54.3399 98.4501L54.3585 98.4315L54.4422 98.3818L54.5073 98.3849L54.5384 98.4439L54.5353 98.4625L54.5756 98.5245L54.5849 98.5834ZM54.3833 98.6579L54.4267 98.6237L54.4143 98.6268L54.3957 98.6424L54.3771 98.661L54.3833 98.6579ZM54.4143 98.6206L54.3926 98.6237L54.4143 98.6206ZM54.436 98.6424V98.6362L54.4329 98.6331L54.436 98.6424Z" fill="#F2F0F2"/>
<path d="M57.1624 97.5686C57.243 97.6213 57.2027 97.795 57.1097 97.9159L56.9298 98.0183C56.7623 97.9903 56.8212 97.7577 56.8274 97.5624C56.8336 97.367 56.8026 97.1778 56.7251 97.0444L56.7065 97.0072L56.6724 97.0692C56.6134 97.1933 56.5545 97.3173 56.4987 97.4383C56.3808 97.6864 56.2599 97.9345 56.1482 98.1857C56.1079 98.2726 56.0552 98.3284 56.0025 98.3594C55.8908 98.4245 55.7916 98.3532 55.8536 98.1578C56.1513 97.215 56.3932 96.2722 56.5824 95.3448C56.5948 95.2704 56.6352 95.2208 56.6786 95.196C56.7437 95.1587 56.8119 95.1836 56.7995 95.289C56.7406 95.7697 56.6507 96.2566 56.539 96.7498C56.5917 96.6784 56.6476 96.6195 56.7127 96.5792C56.7406 96.5637 56.7716 96.5513 56.8026 96.542C57.0135 96.4955 57.1035 96.787 57.1438 96.9824C57.1624 97.0971 57.1748 97.2181 57.1748 97.3421C57.1748 97.4104 57.1748 97.4941 57.1624 97.5686ZM56.9949 97.6926L57.1097 97.5903H57.1066C57.088 97.5934 57.0694 97.5965 57.0538 97.6089L56.9949 97.6926Z" fill="#F2F0F2"/>
<path d="M69.7853 72.1757C69.8473 72.1385 69.9155 72.1044 69.9775 72.0703C69.9962 72.0579 70.0148 72.0486 70.0365 72.0362C70.0551 72.0238 70.0768 72.0114 70.0954 71.999C70.1264 71.9803 70.1543 71.9679 70.1853 71.9555C70.2164 71.9431 70.2381 71.9586 70.2505 71.9834C70.2567 71.999 70.2598 72.0176 70.2598 72.0362C70.2567 72.0858 70.235 72.1447 70.1884 72.1757C70.1667 72.1912 70.145 72.2037 70.1233 72.2161C70.1047 72.2254 70.0892 72.2347 70.0706 72.244C70.0396 72.2595 70.0117 72.275 69.9807 72.2874C69.9186 72.3246 69.8504 72.3587 69.7884 72.3897C69.717 72.4239 69.6488 72.458 69.5775 72.489C69.5216 72.5169 69.4627 72.5417 69.4069 72.5696C69.4069 72.5696 69.4038 72.5696 69.4038 72.5727C69.3138 72.613 69.3076 72.4735 69.4038 72.4114C69.4193 72.4021 69.4348 72.3928 69.4472 72.3835C69.5092 72.3432 69.5713 72.306 69.6333 72.2657C69.6798 72.2378 69.7325 72.2068 69.7853 72.1757Z" fill="#F2F0F2"/>
<path d="M70.1854 71.9557C70.1575 71.965 70.1265 71.9805 70.0955 71.9991C70.0738 72.0116 70.0551 72.024 70.0365 72.0364C69.9962 71.841 69.9249 71.6704 69.8287 71.5308C69.8039 71.596 69.7853 71.6642 69.7667 71.7324C69.7264 71.8751 69.6954 72.0116 69.6613 72.1511C69.652 72.1914 69.6427 72.2318 69.6334 72.269C69.5713 72.3062 69.5093 72.3465 69.4473 72.3868C69.4659 72.3031 69.4845 72.2193 69.5062 72.1325C69.5744 71.8627 69.6209 71.568 69.7729 71.3013C69.7915 71.2672 69.8132 71.2455 69.8349 71.23C69.866 71.2114 69.9001 71.2145 69.9187 71.2362C70.0396 71.3727 70.1389 71.5494 70.1978 71.7572C70.2195 71.8286 70.235 71.9061 70.2505 71.9836C70.2381 71.9588 70.2164 71.9433 70.1854 71.9557Z" fill="#F2F0F2"/>
<path d="M70.2782 72.3779C70.2782 72.471 70.2875 72.6477 70.1759 72.7098C70.1759 72.7098 70.1728 72.7129 70.1697 72.7129C70.0487 72.7842 70.0704 72.5981 70.0735 72.5051C70.0735 72.4151 70.0704 72.3314 70.0642 72.2508C70.0828 72.2415 70.0983 72.2322 70.1169 72.2229C70.1386 72.2104 70.1604 72.198 70.1821 72.1825C70.2286 72.1484 70.2503 72.0895 70.2534 72.043C70.272 72.1453 70.2782 72.257 70.2782 72.3779Z" fill="#F2F0F2"/>
<path d="M69.3015 73.0753C69.3356 72.9078 69.3666 72.7403 69.4038 72.5728C69.4628 72.5449 69.5186 72.5201 69.5744 72.4922C69.5279 72.6752 69.4814 72.8582 69.4348 73.0442C69.4255 73.0877 69.3976 73.1187 69.3697 73.1342C69.3325 73.159 69.2891 73.1435 69.3015 73.0753Z" fill="#F2F0F2"/>
<path d="M86.229 62.7598C86.2352 62.8529 86.2445 62.9459 86.2538 63.0359C86.1887 63.0886 86.1236 63.1289 86.0522 63.1723C86.0119 62.887 85.9933 62.5768 86.015 62.2481C86.0243 62.2512 86.0398 62.2512 86.0553 62.2419C86.105 62.2202 86.1515 62.1985 86.2011 62.1768C86.2042 62.2636 86.2042 62.3535 86.2104 62.4404C86.1701 62.4869 86.1329 62.5365 86.105 62.5954C86.0274 62.7319 86.0864 62.8281 86.1918 62.7784C86.2042 62.7722 86.2166 62.766 86.229 62.7598Z" fill="#F2F0F2"/>
<path d="M86.3933 61.8392C86.4305 61.8175 86.4678 61.7989 86.5019 61.7865C86.6352 61.7338 86.7624 61.7741 86.7779 61.9323C86.7903 62.0439 86.7314 62.1804 86.6476 62.2921C86.7035 62.2641 86.7593 62.2393 86.8151 62.2269C86.9082 62.199 86.995 62.2176 87.0229 62.3076C87.0508 62.4068 87.0136 62.534 86.9423 62.6549C86.8709 62.7728 86.7779 62.8689 86.688 62.962C86.5887 63.0612 86.4895 63.148 86.3871 63.2287C86.2879 63.3062 86.1886 63.3745 86.0863 63.4396C86.0677 63.4489 86.0491 63.4613 86.0304 63.4737C85.9405 63.5264 85.8351 63.5791 85.773 63.5388C85.7327 63.5109 85.742 63.4334 85.7916 63.3682C85.8382 63.3031 85.8971 63.2628 85.956 63.2287C85.987 63.2101 86.018 63.1946 86.0491 63.1791C86.0522 63.176 86.0584 63.1729 86.0615 63.1729C86.1297 63.1325 86.1979 63.0891 86.2631 63.0364C86.2662 63.0333 86.2693 63.0333 86.2693 63.0302C86.4181 62.9247 86.5794 62.7883 86.7128 62.6332L86.7748 62.5464L86.781 62.5309H86.7717L86.7314 62.5402L86.7097 62.5495C86.5515 62.6177 86.3902 62.6952 86.2351 62.7635C86.2227 62.7697 86.2072 62.7759 86.1948 62.7821C86.0925 62.8317 86.0335 62.7356 86.108 62.5991C86.139 62.5402 86.1762 62.4905 86.2134 62.444C86.2662 62.382 86.3251 62.3293 86.384 62.2828L86.4957 62.1773L86.536 62.1215L86.5484 62.0936V62.0688L86.5298 62.0532L86.4088 62.0812C86.3406 62.1184 86.2724 62.1494 86.2041 62.1835C86.1545 62.2052 86.108 62.2269 86.0584 62.2486C86.0429 62.2548 86.0273 62.2579 86.018 62.2548C85.9746 62.2424 85.9777 62.1587 86.0304 62.0998C86.0398 62.0905 86.046 62.0812 86.0584 62.075C86.1049 62.0439 86.1514 62.0098 86.1979 61.9757C86.2631 61.923 86.3282 61.8765 86.3933 61.8392Z" fill="#F2F0F2"/>
<path d="M86.1948 61.9699C86.1483 62.004 86.1018 62.0382 86.0553 62.0692C86.046 62.0754 86.0366 62.0847 86.0273 62.094C86.0335 62.0258 86.0428 61.9575 86.0553 61.8893C86.0615 61.8459 86.0894 61.8149 86.1142 61.7994C86.1483 61.7776 86.1855 61.7869 86.1886 61.8304C86.1917 61.8769 86.1948 61.9234 86.1948 61.9699Z" fill="#F2F0F2"/>
<path d="M84.675 64.0293L84.8549 63.9238L84.7309 64.1006L84.675 64.0293Z" fill="#F2F0F2"/>
<path d="M79.688 72.4331C79.8028 72.368 79.9175 72.337 80.0199 72.3494C80.0788 72.3618 80.0509 72.492 79.9888 72.5292C79.9795 72.5355 79.9733 72.5386 79.964 72.5386C79.9051 72.5448 79.8431 72.5696 79.7811 72.6037C79.7128 72.644 79.6477 72.6967 79.5795 72.7588C79.4802 72.858 79.3903 72.9852 79.3376 73.1309C79.3096 73.2023 79.2941 73.2922 79.2941 73.348V73.4101L79.2972 73.4442L79.3096 73.4876L79.3127 73.5093L79.3158 73.5124L79.3438 73.5527L79.3469 73.5558L79.3593 73.562L79.3903 73.5837L79.4089 73.5899L79.412 73.5868L79.4988 73.5992L79.5267 73.5899L79.5733 73.5806L79.5826 73.5744L79.6136 73.562L79.6663 73.531L79.6973 73.5062L79.7469 73.4659L79.8803 73.3635L79.9826 73.3046C80.0323 73.2922 80.0602 73.3325 80.0447 73.3976C80.0168 73.5434 79.8741 73.6985 79.7655 73.7791C79.7283 73.8039 79.6911 73.8287 79.657 73.8505C79.5795 73.8939 79.505 73.9249 79.4337 73.9342C79.2569 73.959 79.1142 73.8846 79.0584 73.7109C79.0026 73.5403 79.0429 73.286 79.1453 73.0565C79.2445 72.8456 79.3872 72.6533 79.5484 72.5199C79.6012 72.4858 79.6446 72.4579 79.688 72.4331Z" fill="#F2F0F2"/>
<path d="M84.309 64.2391C84.0082 63.9476 83.667 63.715 83.2917 63.5413C83.3507 63.4576 83.4158 63.38 83.484 63.3242C83.6794 63.4173 83.8655 63.5289 84.0423 63.6561L84.4424 64.1616L84.309 64.2391Z" fill="#F2F0F2"/>
<path d="M83.4841 63.1361C83.5182 63.1175 83.5523 63.102 83.5896 63.0896C83.6299 63.0802 83.6454 63.1113 83.6423 63.1516C83.6392 63.1919 83.6144 63.2415 83.5772 63.2632C83.5679 63.2694 83.5617 63.2725 83.5554 63.2756C83.5306 63.2911 83.5058 63.3067 83.4841 63.3284C83.4159 63.3873 83.3508 63.4648 83.2918 63.5455C83.2422 63.6137 83.1957 63.6881 83.1523 63.7533C83.0344 63.93 82.929 64.1099 82.8266 64.2991C82.7274 64.479 82.6374 64.6713 82.5723 64.8605C82.5413 64.9566 82.501 65.0714 82.5103 65.1489C82.5134 65.2078 82.5506 65.2171 82.5754 65.245C82.5816 65.2512 82.5878 65.2605 82.5909 65.273L82.5537 65.3908C82.5351 65.4156 82.5134 65.4342 82.4948 65.4435C82.4234 65.4839 82.3459 65.4559 82.3149 65.4094C82.3118 65.4063 82.3118 65.4001 82.3087 65.397C82.2684 65.3164 82.2839 65.1737 82.3149 65.0528C82.3831 64.8015 82.4886 64.5534 82.6157 64.3115C82.7367 64.0758 82.8886 63.8494 83.0375 63.6292C83.0716 63.5796 83.1088 63.53 83.1461 63.4803C83.205 63.3997 83.2701 63.3222 83.3352 63.257C83.3787 63.2074 83.4283 63.1671 83.4841 63.1361Z" fill="#F2F0F2"/>
<path d="M78.6056 70.53C78.8816 70.3718 79.1514 70.3005 79.3965 70.3222C79.5639 70.3346 79.7128 70.3935 79.8338 70.4989C79.8493 70.5114 79.8648 70.5238 79.8772 70.5393C79.9144 70.5796 79.9392 70.6385 79.902 70.7347C79.8772 70.7967 79.8369 70.8432 79.7996 70.8649C79.7624 70.8866 79.7252 70.8866 79.7004 70.8556C79.688 70.8432 79.6849 70.8215 79.6911 70.7967C79.6973 70.7719 79.7097 70.744 79.7252 70.7223L79.6942 70.7005L79.626 70.6509C79.5763 70.623 79.5267 70.5982 79.474 70.5796C79.3716 70.5455 79.2476 70.5393 79.1266 70.5455C78.9281 70.5672 78.7141 70.6416 78.5001 70.7657C78.4381 70.7998 78.3792 70.8401 78.3172 70.8835C78.3141 70.8866 78.311 70.8866 78.311 70.8897C78.3079 70.8897 78.3079 70.8928 78.3048 70.8928C78.2396 70.9207 78.2272 70.7967 78.2986 70.7409L78.3017 70.7378C78.404 70.6571 78.5063 70.5858 78.6056 70.53Z" fill="#F2F0F2"/>
<path d="M80.1409 58.2852L84.6751 64.029L84.731 64.0972L90.0778 70.8738L89.9072 71.0909L85.4257 65.4091L84.5666 64.3236L84.4394 64.1624L84.0394 63.6568L83.6393 63.1482C83.6424 63.1079 83.6269 63.0769 83.5896 63.0862L79.9734 58.5023L80.1409 58.2852Z" fill="#F2F0F2"/>
<path d="M84.3092 64.2396L84.4426 64.1621L84.5698 64.3234L84.4922 64.4288L78.2087 73.119L72.0307 71.6148L71.8663 71.5745L71.6833 71.5311L71.9563 71.3729L72.2044 71.2303L82.3088 65.3965C82.346 65.4554 82.4236 65.4864 82.4949 65.443C82.5166 65.4306 82.5352 65.4151 82.5538 65.3903L82.5911 65.2724C82.588 65.26 82.5818 65.2538 82.5755 65.2445L84.3092 64.2396ZM79.9021 70.7309C79.9393 70.6348 79.9145 70.5759 79.8773 70.5355L84.2224 64.525L72.3036 71.4039L78.1095 72.812V72.9546L78.3111 72.8368V72.7003L79.6912 70.793C79.685 70.8178 79.6881 70.8395 79.7005 70.8519C79.7253 70.8798 79.7626 70.8829 79.7998 70.8612C79.837 70.8395 79.8773 70.793 79.9021 70.7309Z" fill="#F2F0F2"/>
<path d="M78.2956 68.0176L78.3018 70.7375C78.2243 70.7965 78.2367 70.9236 78.3018 70.8926L78.308 72.7038V72.8403L78.1064 72.9581V72.8155L78.094 68.1354L78.2956 68.0176Z" fill="#F2F0F2"/>
<path d="M78.8258 65.9887C78.9127 66.0879 78.922 66.2802 78.832 66.4818C78.7483 66.6772 78.6118 66.8478 78.4692 66.9749C78.3823 67.0493 78.2955 67.1176 78.2056 67.1734C78.1931 67.1796 78.1776 67.1889 78.1652 67.1982C78.0846 67.2447 77.9885 67.2975 77.9295 67.282C77.9109 67.2758 77.8985 67.2602 77.8923 67.2416C77.883 67.2385 77.8768 67.2323 77.8706 67.223C77.8396 67.1548 77.8427 67.0524 77.8334 66.9594C77.8272 66.8757 77.8179 66.7919 77.8179 66.7051C77.8117 66.5221 77.8086 66.3422 77.8024 66.1654C77.7993 66.091 77.8551 66.0073 77.914 65.9732C77.9233 65.9669 77.9326 65.9638 77.9419 65.9607C78.1187 65.9111 78.2924 65.8615 78.4599 65.8584C78.5963 65.8584 78.7359 65.8863 78.8258 65.9887ZM78.6646 66.3856V66.3019C78.6336 66.1592 78.4692 66.1406 78.3482 66.1468C78.2459 66.1499 78.1342 66.1716 78.0226 66.2027C78.0257 66.3236 78.0288 66.4446 78.0319 66.5624C78.0381 66.6524 78.0319 66.7423 78.0319 66.8322C78.0319 66.885 78.035 66.9439 78.0319 66.9997C78.0505 66.9904 78.0722 66.9811 78.0939 66.9687C78.1156 66.9594 78.1373 66.947 78.1621 66.9346C78.1838 66.9222 78.2087 66.9067 78.2335 66.8881C78.3141 66.8322 78.4009 66.7609 78.4754 66.6803C78.5281 66.6245 78.5839 66.55 78.6242 66.4756L78.6646 66.3856Z" fill="#F2F0F2"/>
<path d="M85.4257 65.4118C85.7917 66.2306 85.9964 67.2386 85.9995 68.4171C86.0119 73.3174 82.5569 79.3 78.2955 81.7594C74.0311 84.222 70.5513 82.2433 70.5389 77.343C70.5327 75.4915 71.0227 73.4879 71.8663 71.5744L72.0307 71.6147C71.2119 73.4755 70.7374 75.4263 70.7405 77.2252C70.7529 81.9952 74.1427 83.9273 78.2955 81.5299C82.4483 79.1325 85.8165 73.2988 85.801 68.5288C85.7948 66.733 85.3141 65.3405 84.4922 64.4287L84.5697 64.3232L85.4257 65.4118Z" fill="#F2F0F2"/>
<path d="M78.246 64.2238C75.7679 65.6536 73.5721 68.3084 72.2044 71.2299L71.9563 71.3726C73.3519 68.3022 75.6501 65.4954 78.2491 63.9974C80.1906 62.8778 81.9708 62.6793 83.3323 63.2562C83.2672 63.3213 83.2052 63.3988 83.1431 63.4795C81.8188 62.946 80.1099 63.1476 78.246 64.2238Z" fill="#F2F0F2"/>
<path d="M43.6617 94.6986C43.671 94.6955 43.6772 94.6893 43.6865 94.6862C43.7176 94.6707 43.7486 94.6521 43.7827 94.6366C43.8385 94.6087 43.8912 94.5777 43.9471 94.5497C43.9502 94.5466 43.9533 94.5466 43.9564 94.5435C44.0091 94.5187 44.0618 94.4908 44.1145 94.4691C44.1518 94.4536 44.1859 94.4412 44.2231 94.4288C44.2448 94.4226 44.2665 94.4164 44.2851 94.4102C44.3471 94.3978 44.3471 94.5032 44.2851 94.5591C44.2758 94.5653 44.2696 94.5746 44.2603 94.5808C44.2076 94.6304 44.1549 94.6707 44.1021 94.7048C44.0711 94.7234 44.0401 94.742 44.0091 94.7575C43.9781 94.7731 43.9471 94.7917 43.916 94.8041C43.8602 94.8258 43.8075 94.8444 43.7517 94.8661L43.6648 94.894L43.6369 94.8971L43.5749 94.9064L43.5408 94.832L43.6152 94.7265C43.6276 94.7172 43.6431 94.7079 43.6617 94.6986Z" fill="#F2F0F2"/>
<path d="M44.2168 94.4317C44.1796 94.4441 44.1455 94.4565 44.1083 94.472C44.0556 94.4937 44.0028 94.5216 43.9501 94.5464C43.9501 94.5433 43.9501 94.5402 43.947 94.5371C43.9129 94.41 43.8757 94.2859 43.8353 94.165C43.7764 94.3386 43.7237 94.5123 43.6803 94.686C43.671 94.6891 43.6648 94.6953 43.6555 94.6984C43.64 94.7077 43.6245 94.717 43.6089 94.7294L43.5345 94.8349L43.5686 94.9093L43.6307 94.9C43.6151 94.9744 43.6027 95.0458 43.5903 95.1202C43.5841 95.1698 43.5686 95.2288 43.5624 95.2784V95.3373L43.5748 95.3559L43.5655 95.3652C43.6058 95.3683 43.5965 95.4583 43.5469 95.4893C43.5469 95.4893 43.5438 95.4893 43.5438 95.4924C43.4942 95.5172 43.4508 95.5327 43.4229 95.4955C43.398 95.4583 43.3918 95.4024 43.3918 95.3466C43.3949 95.1977 43.4291 95.0241 43.4601 94.869C43.5252 94.5278 43.6245 94.1774 43.7609 93.8269C43.7826 93.7711 43.8167 93.7339 43.8509 93.7122C43.8974 93.6842 43.947 93.6935 43.9687 93.737C44.0524 93.9231 44.1207 94.1184 44.1858 94.3231C44.1982 94.3604 44.2075 94.3976 44.2168 94.4317Z" fill="#F2F0F2"/>
<path d="M45.0697 90.4934C45.1131 90.5306 45.141 90.5895 45.1472 90.6671C45.1534 90.7105 45.1162 90.757 45.0821 90.7787C45.0666 90.788 45.048 90.7911 45.0356 90.788C45.0201 90.7787 45.0015 90.7663 44.9829 90.7539C44.9364 90.8625 44.8805 90.9648 44.8061 91.0454C44.7689 91.0889 44.7317 91.1199 44.6944 91.1385C44.5642 91.2129 44.4525 91.1571 44.4556 90.9865C44.4556 90.7942 44.5983 90.5833 44.7565 90.4934C44.7689 90.4872 44.7813 90.481 44.7937 90.4748C44.834 90.4562 44.8743 90.4469 44.9115 90.4438C44.9239 90.3848 44.9364 90.329 44.9457 90.2732C44.9891 90.0468 44.9984 89.8359 45.0232 89.6188C45.0294 89.5754 45.0542 89.5444 45.079 89.5288C45.1131 89.5071 45.1534 89.5164 45.1566 89.5599C45.169 89.8049 45.1628 90.0623 45.1069 90.3352C45.0945 90.3879 45.0852 90.4407 45.0697 90.4934ZM44.7255 90.8935C44.7782 90.8376 44.8123 90.757 44.8402 90.6795C44.8154 90.6795 44.7906 90.6857 44.7658 90.7012C44.7472 90.7136 44.7255 90.7291 44.7037 90.7508C44.6603 90.7942 44.6386 90.8532 44.6448 90.8904C44.6479 90.9245 44.6634 90.94 44.6882 90.9245C44.7006 90.9183 44.7099 90.909 44.7255 90.8935Z" fill="#F2F0F2"/>
<path d="M53.8902 88.0921C53.8437 88.272 53.732 88.4518 53.6266 88.6131C53.5863 88.6751 53.549 88.7341 53.5087 88.7899C53.5676 88.7713 53.6235 88.7558 53.6731 88.7589C53.8375 88.7682 53.9026 88.9543 53.8375 89.1869C53.7599 89.4629 53.5614 89.6893 53.3723 89.8785C53.2699 89.9777 53.1707 90.0615 53.0652 90.1421C53.0218 90.1762 52.9753 90.2103 52.9288 90.2352C52.8667 90.2724 52.8047 90.2941 52.752 90.2879C52.6806 90.2786 52.6899 90.1731 52.752 90.0863C52.8171 89.9901 52.9101 89.9281 52.9939 89.863C53.028 89.8351 53.0621 89.8103 53.0931 89.7824C53.0683 89.7917 53.0497 89.7824 53.0435 89.7544C52.9908 89.4164 52.935 89.0814 52.8915 88.7403C52.876 88.6162 52.8016 88.4301 52.9319 88.2689C52.9908 88.2006 53.0807 88.1386 53.1459 88.0859C53.2234 88.0238 53.3009 87.9649 53.3785 87.9122C53.4095 87.8905 53.4436 87.8719 53.4777 87.8502C53.5894 87.785 53.7041 87.7354 53.7941 87.7571C53.8995 87.7819 53.9336 87.9277 53.8902 88.0921ZM53.577 88.2844C53.608 88.2316 53.6545 88.1541 53.6545 88.1014C53.6607 88.0238 53.5645 88.0642 53.487 88.1076C53.4529 88.1262 53.425 88.1448 53.4095 88.1572C53.3381 88.1975 53.273 88.244 53.2079 88.2906C53.1707 88.3185 53.1179 88.3495 53.0745 88.3867L53.0838 88.5015C53.0869 88.5573 53.0962 88.61 53.0993 88.6658C53.1055 88.7558 53.1148 88.8395 53.1241 88.9264C53.1272 88.9233 53.1303 88.9202 53.1335 88.914C53.242 88.7837 53.3474 88.6472 53.4405 88.5046C53.4839 88.4332 53.5304 88.3619 53.577 88.2844ZM53.5708 89.2396C53.6235 89.0969 53.5428 89.1 53.4622 89.1187C53.3537 89.1466 53.2451 89.1931 53.1459 89.1838C53.1583 89.342 53.1676 89.497 53.18 89.6552C53.18 89.68 53.1738 89.7048 53.1583 89.7234C53.18 89.7048 53.2048 89.6831 53.2265 89.6645C53.335 89.5591 53.5118 89.404 53.5708 89.2396Z" fill="#F2F0F2"/>
<path d="M44.3098 94.8112C44.3222 94.8701 44.3408 94.9259 44.3191 95.0128C44.3005 95.0779 44.2602 95.143 44.2106 95.171C44.2012 95.1772 44.1888 95.1803 44.1795 95.1834C44.1609 95.1896 44.1423 95.1865 44.1268 95.1772C44.1268 95.1803 44.1268 95.1803 44.1237 95.1834C44.0493 95.1275 44.0493 94.9663 44.0245 94.8608C44.0183 94.8267 44.0121 94.7957 44.0059 94.7647C44.0369 94.7492 44.0679 94.7306 44.0989 94.712C44.1516 94.6778 44.2044 94.6375 44.2571 94.5879C44.2633 94.6096 44.2695 94.6313 44.2726 94.6499C44.285 94.7026 44.2974 94.7554 44.3098 94.8112Z" fill="#F2F0F2"/>
<path d="M42.8427 92.0566C42.8986 92.0256 42.9544 91.9946 43.0071 91.9698C43.218 91.8705 43.4289 91.8209 43.615 91.8302C43.7918 91.8457 43.9499 91.9046 44.0802 92.0132C44.1391 92.0597 44.1887 92.1217 44.2353 92.1869C44.2725 92.2427 44.3438 92.3233 44.319 92.435L44.1825 92.5156C44.1453 92.4815 44.1298 92.4133 44.105 92.373C44.0585 92.3047 44.0058 92.2458 43.9437 92.2024C43.8352 92.1093 43.6987 92.0566 43.5468 92.0473C43.37 92.038 43.1715 92.0845 42.973 92.1776C42.9358 92.1962 42.8986 92.2148 42.8613 92.2365C42.7187 92.3202 42.5822 92.4257 42.4395 92.528L42.3806 92.435C42.5171 92.2706 42.6846 92.1466 42.8427 92.0566Z" fill="#F2F0F2"/>
<path d="M40.4766 93.2197L40.4828 94.6526V94.6836L40.3091 94.7828V94.7487L40.306 93.5206L39.4159 94.0354L39.3477 94.0726V93.871L39.4159 93.8338L40.4766 93.2197Z" fill="#F2F0F2"/>
<path d="M39.3661 87.6143L39.487 87.8065L42.3807 92.4308L42.4396 92.5269L42.8986 93.2588L42.7497 93.4418L42.7063 93.3705L39.3971 88.0888L39.2265 87.8158L39.2141 87.7972L39.3661 87.6143Z" fill="#F2F0F2"/>
<path d="M39.2268 87.5781L39.3509 87.5812L53.0374 87.6029L39.2485 95.5643L39.2268 87.8138L39.3974 88.0868L39.416 93.8337L39.3478 93.8709V94.0725L39.416 94.0353L39.4191 95.2635L40.3092 94.7486L40.4829 94.6835L42.7066 93.3685L42.75 93.4398L42.902 93.263L44.1829 92.5125L44.3224 92.435L52.3086 87.8231L39.4873 87.8045L39.3664 87.6122L39.2268 87.7797V87.5781Z" fill="#F2F0F2"/>
<path d="M39.1336 85.6397C39.1832 85.6118 39.2328 85.587 39.2824 85.5684C39.3538 85.5436 39.3383 85.6831 39.2669 85.7265C39.2669 85.7265 39.2638 85.7265 39.2638 85.7296C39.2576 85.7327 39.2483 85.7389 39.2421 85.742C39.1212 85.8134 38.9971 85.9188 38.8917 86.0522C38.7242 86.26 38.5567 86.6259 38.6963 86.7655C38.7583 86.8275 38.8762 86.7872 38.9723 86.7314C38.9754 86.7283 38.9816 86.7252 38.9847 86.7252C39.0995 86.6601 39.1987 86.5484 39.3073 86.4461C39.3166 86.4368 39.3259 86.4275 39.3352 86.4244C39.4065 86.384 39.4406 86.4771 39.391 86.567C39.2948 86.7438 39.1429 86.8772 38.9971 86.9609C38.9537 86.9857 38.9134 87.0043 38.8731 87.0198C38.718 87.0819 38.5691 87.0757 38.4978 86.9485C38.4327 86.8213 38.4389 86.629 38.5133 86.4244C38.5784 86.229 38.7025 86.0336 38.8389 85.8816C38.932 85.7762 39.0312 85.6986 39.1336 85.6397Z" fill="#F2F0F2"/>
<path d="M39.2173 96.8109C39.2328 96.8016 39.2484 96.7923 39.267 96.7861C39.3724 96.7396 39.4748 96.6992 39.5709 96.6837C39.7415 96.6465 39.9183 96.6496 40.0299 96.7551C40.1354 96.8543 40.1385 97.0683 40.0361 97.2947C39.9307 97.5211 39.7694 97.7134 39.5957 97.8716C39.4996 97.9646 39.3972 98.0453 39.2949 98.1104C39.267 98.1321 39.2359 98.1507 39.208 98.1662C39.1336 98.2096 39.0623 98.2344 39.0033 98.2065C38.9692 98.191 38.9785 98.1166 39.0126 98.067C39.0157 98.0608 39.0188 98.0577 39.022 98.0515C39.0561 98.0049 39.0933 97.9708 39.1336 97.9398C39.1894 97.8964 39.2484 97.8623 39.3073 97.8251C39.3941 97.7661 39.4779 97.6948 39.5616 97.6173C39.6701 97.5149 39.7942 97.3785 39.8562 97.2327C39.9152 97.0931 39.8748 97.0125 39.788 96.9722C39.6826 96.9287 39.543 96.9381 39.4127 96.9691C39.3135 96.9877 39.2111 97.0249 39.1088 97.0745C39.0716 97.0931 39.0344 97.1117 38.9971 97.1334C38.9847 97.1396 38.9754 97.1458 38.963 97.152C38.9568 97.1551 38.9506 97.1583 38.9475 97.1583C38.8917 97.1707 38.8793 97.0683 38.9475 97.0125C38.9506 97.0094 38.9537 97.0094 38.9568 97.0063C39.0033 96.966 39.053 96.9256 39.1026 96.8915C39.1429 96.8574 39.1801 96.8326 39.2173 96.8109Z" fill="#F2F0F2"/>
<path d="M39.143 97.8249C39.1554 97.8528 39.1554 97.8963 39.1368 97.9397C39.0965 97.9707 39.0593 98.0048 39.0252 98.0513C39.0221 98.0544 39.019 98.0606 39.0159 98.0668C38.9818 98.0792 38.9476 98.0668 38.9414 98.0265C38.9259 97.9459 38.9321 97.8373 38.9321 97.7412C38.9321 97.6482 38.9321 97.552 38.9352 97.4559C38.9414 97.3566 38.9476 97.2574 38.9538 97.155C38.96 97.155 38.9631 97.1519 38.9694 97.1488C38.9818 97.1426 38.9911 97.1364 39.0035 97.1302C39.0407 97.1085 39.0779 97.0899 39.1151 97.0713C39.1182 97.1643 39.1244 97.2543 39.1275 97.3473C39.1306 97.4404 39.1368 97.5303 39.1368 97.6233C39.1368 97.6885 39.143 97.7567 39.143 97.8249ZM39.0283 97.8497L39.0717 97.8187C39.0686 97.8156 39.0655 97.8125 39.0655 97.8094L39.0562 97.8187L39.0221 97.8622L39.0283 97.8497Z" fill="#F2F0F2"/>
<path d="M39.1026 96.795C39.1026 96.826 39.1057 96.857 39.1057 96.8849C39.0561 96.9221 39.0065 96.9593 38.96 96.9997C38.9631 96.9562 38.9662 96.9159 38.9662 96.8725C38.9693 96.8198 39.0034 96.7733 39.0375 96.7547C39.0716 96.736 39.1026 96.7422 39.1026 96.795Z" fill="#F2F0F2"/>
<path opacity="0.2" d="M118.821 126.702L94.8554 140.488L91.008 138.404L114.894 124.618L118.821 126.702Z" fill="#1F1D21"/>
<path opacity="0.2" d="M106.478 119.408L82.5121 133.275L78.6648 131.191L102.63 117.324L106.478 119.408Z" fill="#1F1D21"/>
<path opacity="0.2" d="M93.813 111.474L69.8473 125.34L66 123.256L89.9657 109.39L93.813 111.474Z" fill="#1F1D21"/>
<path d="M76.5802 91.9955L69.7672 95.923L69.8474 123.415L93.7329 109.629L93.6528 74.8428L76.5802 84.7016V91.9955Z" fill="#45CAF2"/>
<path d="M75.4586 95.8444V97.8482L89.2449 89.8329V87.8291L75.4586 95.8444Z" fill="#84ECFD"/>
<path d="M75.4586 99.6911V101.695L89.2449 93.6796V91.6758L75.4586 99.6911Z" fill="#84ECFD"/>
<path d="M75.4586 103.378V105.381L89.2449 97.3661V95.3623L75.4586 103.378Z" fill="#84ECFD"/>
<path d="M76.5803 84.7029L73.4544 82.8594V90.1533L76.5803 91.9968V84.7029Z" fill="#0078D4"/>
<path d="M93.6528 74.8435L90.5269 73L73.4543 82.8588L76.5803 84.7023L93.6528 74.8435Z" fill="#6ED5ED"/>
<path d="M76.5803 84.7029L73.4544 82.8594L66.6414 94.0808L69.7673 95.9243L76.5803 84.7029Z" fill="#50E6FF"/>
<path d="M69.7675 95.9236L66.6415 94.0801L66.7217 121.572L69.8477 123.416L69.7675 95.9236Z" fill="#32B0E7"/>
<path d="M76.5803 84.7021L69.7673 95.9235L76.5803 91.9961V84.7021Z" fill="#84ECFD"/>
<path d="M89.1647 99.8509L82.3517 103.778L82.4318 131.271L106.317 117.485L106.237 82.6982L89.1647 92.557V99.8509Z" fill="#0078D4"/>
<path d="M87.9624 103.698V105.702L101.829 97.6864V95.6826L87.9624 103.698Z" fill="#32B0E7"/>
<path d="M87.9624 107.546V109.549L101.829 101.534V99.5303L87.9624 107.546Z" fill="#32B0E7"/>
<path d="M87.9624 111.233V113.237L101.829 105.222V103.218L87.9624 111.233Z" fill="#32B0E7"/>
<path d="M106.157 82.698L103.031 80.8545L85.9585 90.7133L89.0844 92.5568L106.157 82.698Z" fill="#32B0E7"/>
<path d="M82.3291 103.823L79.129 102.071L79.211 129.31L82.4111 131.142L82.3291 103.823Z" fill="#156AB3"/>
<path d="M101.668 107.144L94.8554 111.071L94.9355 138.564L118.821 124.778L118.741 89.9912L101.668 99.85V107.144Z" fill="#243A5E"/>
<path d="M118.741 89.9929L115.615 88.1494L98.5422 98.0082L101.668 99.8517L118.741 89.9929Z" fill="#185A97"/>
<path d="M94.8556 111.073L91.7297 109.31L91.8098 136.722L94.9358 138.565L94.8556 111.073Z" fill="#1D4A79"/>
<path d="M89.0847 92.5574L85.9588 90.7139L79.1458 102.015L82.2717 103.779L89.0847 92.5574Z" fill="#45CAF2"/>
<path d="M89.0846 92.5576L82.2717 103.779L89.1648 99.8515L89.0846 92.5576Z" fill="#32B0E7"/>
<path d="M101.668 99.8513L98.5425 98.0078L91.7295 109.309L94.8555 111.073L101.668 99.8513Z" fill="#156AB3"/>
<path d="M101.668 99.8506L94.8555 111.072L101.668 107.144V99.8506Z" fill="#0078D4"/>
<g filter="url(#filter1_d)">
<path fill-rule="evenodd" clip-rule="evenodd" d="M106.777 124.196C110.653 122.092 113.825 116.811 113.861 112.401C113.897 107.99 110.784 106.121 106.908 108.226C103.033 110.33 99.8613 115.611 99.8251 120.021C99.8125 121.561 100.184 122.792 100.838 123.651L100.816 126.249L103.101 125.009C104.166 125.181 105.425 124.931 106.777 124.196Z" fill="#FCA11F"/>
<path fill-rule="evenodd" clip-rule="evenodd" d="M113.862 112.4C113.825 116.81 110.654 122.092 106.778 124.196C105.425 124.931 104.165 125.181 103.099 125.008L100.816 126.248L100.816 126.198L111.88 107.887C113.122 108.648 113.879 110.211 113.862 112.4Z" fill="#E89619"/>
<circle r="1.05769" transform="matrix(0.878817 -0.477159 -0.00820296 0.999966 106.877 111.982)" fill="white"/>
<circle r="1.05769" transform="matrix(0.878817 -0.477159 -0.00820296 0.999966 106.808 120.443)" fill="white"/>
<circle r="1.05769" transform="matrix(0.878817 -0.477159 -0.00820296 0.999966 109.341 116.228)" fill="white"/>
<circle r="1.05769" transform="matrix(0.878817 -0.477159 -0.00820296 0.999966 109.365 113.423)" fill="white"/>
<path d="M108.981 115C108.977 115.404 108.592 116.343 108.411 116.757L110.247 115.76C110.079 115.571 109.762 115.06 109.747 114.584C109.741 114.376 109.804 114.096 109.893 113.815C110.007 113.453 110.164 113.089 110.27 112.878L108.435 113.875C108.641 114.07 108.985 114.471 108.981 115Z" fill="white"/>
<circle r="1.05769" transform="matrix(0.878817 -0.477159 -0.00820296 0.999966 104.322 118.951)" fill="white"/>
<circle r="1.05769" transform="matrix(0.878817 -0.477159 -0.00820296 0.999966 104.345 116.149)" fill="white"/>
<path d="M103.961 117.72C103.958 118.124 103.81 118.249 103.63 118.663L105.001 117.892C104.833 117.703 104.743 117.78 104.728 117.304C104.722 117.096 104.731 117.013 104.825 116.804C104.93 116.57 104.907 116.649 105.013 116.438L103.711 117.224C103.918 117.419 103.966 117.191 103.961 117.72Z" fill="white"/>
<circle r="1.05769" transform="matrix(0.878817 -0.477159 -0.00820296 0.999966 109.341 116.228)" fill="white"/>
<circle r="1.05769" transform="matrix(0.878817 -0.477159 -0.00820296 0.999966 109.365 113.423)" fill="white"/>
<path d="M108.98 114.995C108.977 115.399 108.829 115.525 108.648 115.939L110.02 115.168C109.852 114.978 109.762 115.055 109.747 114.579C109.741 114.371 109.749 114.288 109.844 114.079C109.949 113.845 109.926 113.925 110.032 113.714L108.73 114.499C108.936 114.694 108.984 114.466 108.98 114.995Z" fill="white"/>
<circle r="1.05769" transform="matrix(0.878817 -0.477159 -0.00820296 0.999966 106.831 117.589)" fill="white"/>
<circle r="1.05769" transform="matrix(0.878817 -0.477159 -0.00820296 0.999966 106.854 114.786)" fill="white"/>
<path d="M106.47 116.358C106.467 116.762 106.319 116.887 106.139 117.301L107.51 116.53C107.342 116.341 107.252 116.418 107.237 115.941C107.231 115.733 107.24 115.65 107.334 115.441C107.439 115.207 107.416 115.287 107.522 115.076L106.22 115.862C106.427 116.057 106.475 115.829 106.47 116.358Z" fill="white"/>
<circle r="1.05769" transform="matrix(0.878817 -0.477159 -0.00820296 0.999966 106.831 117.589)" fill="white"/>
<circle r="1.05769" transform="matrix(0.878817 -0.477159 -0.00820296 0.999966 106.854 114.786)" fill="white"/>
<path d="M106.47 116.358C106.467 116.762 106.319 116.887 106.139 117.301L107.51 116.53C107.342 116.341 107.252 116.418 107.237 115.941C107.231 115.733 107.24 115.65 107.334 115.441C107.439 115.207 107.416 115.287 107.522 115.076L106.22 115.862C106.427 116.057 106.475 115.829 106.47 116.358Z" fill="white"/>
</g>
<defs>
<filter id="filter0_d" x="0.753906" y="0.666016" width="152.992" height="171.168" filterUnits="userSpaceOnUse" color-interpolation-filters="sRGB">
<feFlood flood-opacity="0" result="BackgroundImageFix"/>
<feColorMatrix in="SourceAlpha" type="matrix" values="0 0 0 0 0 0 0 0 0 0 0 0 0 0 0 0 0 0 127 0"/>
<feOffset dx="0.5" dy="0.5"/>
<feColorMatrix type="matrix" values="0 0 0 0 0.823529 0 0 0 0 0.831373 0 0 0 0 0.835294 0 0 0 1 0"/>
<feBlend mode="normal" in2="BackgroundImageFix" result="effect1_dropShadow"/>
<feBlend mode="normal" in="SourceGraphic" in2="effect1_dropShadow" result="shape"/>
</filter>
<filter id="filter1_d" x="95.8247" y="105.361" width="22.0371" height="26.8879" filterUnits="userSpaceOnUse" color-interpolation-filters="sRGB">
<feFlood flood-opacity="0" result="BackgroundImageFix"/>
<feColorMatrix in="SourceAlpha" type="matrix" values="0 0 0 0 0 0 0 0 0 0 0 0 0 0 0 0 0 0 127 0"/>
<feOffset dy="2"/>
<feGaussianBlur stdDeviation="2"/>
<feColorMatrix type="matrix" values="0 0 0 0 0 0 0 0 0 0 0 0 0 0 0 0 0 0 0.1 0"/>
<feBlend mode="normal" in2="BackgroundImageFix" result="effect1_dropShadow"/>
<feBlend mode="normal" in="SourceGraphic" in2="effect1_dropShadow" result="shape"/>
</filter>
<linearGradient id="paint0_linear" x1="77" y1="2.00252" x2="77" y2="170.003" gradientUnits="userSpaceOnUse">
<stop stop-color="#00ABDE"/>
<stop offset="1" stop-color="#007ED8"/>
</linearGradient>
<linearGradient id="paint1_linear" x1="113.723" y1="70.9806" x2="-12.7305" y2="165.648" gradientUnits="userSpaceOnUse">
<stop stop-color="#4FC2EB"/>
<stop offset="0.585" stop-color="#2E76BC"/>
</linearGradient>
</defs>
</svg>
