<svg width="103" height="103" viewBox="0 0 103 103" fill="none" xmlns="http://www.w3.org/2000/svg">
<path d="M51.7863 99.6503C25.2281 99.6503 3.69385 78.1263 3.69385 51.5578C3.69385 24.9893 25.2281 3.46533 51.7863 3.46533C78.3445 3.46533 99.8788 24.9996 99.8788 51.5578C99.8788 78.116 78.3445 99.6503 51.7863 99.6503Z" fill="#9E9EA0"/>
<path fill-rule="evenodd" clip-rule="evenodd" d="M98.9437 51.5576C98.9437 77.6021 77.8307 98.7152 51.7861 98.7152C25.7416 98.7152 4.6286 77.6021 4.6286 51.5576C4.6286 25.5131 25.7416 4.40008 51.7861 4.40008C77.8307 4.40008 98.9437 25.5131 98.9437 51.5576ZM51.7861 0.557617C79.9574 0.557617 102.786 23.3864 102.786 51.5576C102.786 79.7289 79.9471 102.558 51.7861 102.558C23.6149 102.558 0.786133 79.7186 0.786133 51.5576C0.786133 23.3864 23.6149 0.557617 51.7861 0.557617Z" fill="#F2F1F0"/>
<path fill-rule="evenodd" clip-rule="evenodd" d="M96.0569 51.5578C96.0569 76.0099 76.2384 95.8284 51.7864 95.8284C27.3343 95.8284 7.51581 76.0099 7.51581 51.5578C7.51581 27.1058 27.3343 7.28729 51.7864 7.28729C76.2384 7.28729 96.0569 27.1058 96.0569 51.5578ZM51.7864 3.44482C78.3548 3.44482 99.8994 24.9893 99.8994 51.5578C99.8994 78.1263 78.3548 99.6709 51.7864 99.6709C25.2179 99.6709 3.67334 78.1263 3.67334 51.5578C3.67334 24.9893 25.2076 3.44482 51.7864 3.44482Z" fill="#3C3C41"/>
<path fill-rule="evenodd" clip-rule="evenodd" d="M31.8263 64.7275C33.6463 67.7675 36.6863 69.3375 40.2163 69.5075C43.7263 69.4975 46.5562 67.6975 48.4662 64.9175L50.3162 71.7675H55.5162V79.4075H24.9062V71.7675H30.1063L31.8263 64.7275Z" fill="url(#paint0_linear)"/>
<path d="M40.2163 69.1376C45.579 69.1376 49.9263 64.8619 49.9263 59.5876C49.9263 54.3133 45.579 50.0376 40.2163 50.0376C34.8537 50.0376 30.5063 54.3133 30.5063 59.5876C30.5063 64.8619 34.8537 69.1376 40.2163 69.1376Z" fill="url(#paint1_linear)"/>
<path fill-rule="evenodd" clip-rule="evenodd" d="M31.8262 64.3574C33.6462 67.3974 36.6862 68.9674 40.2162 69.1374C43.7262 69.1274 46.5562 67.3274 48.4662 64.5474L50.3162 71.3874H30.1162L31.8262 64.3574Z" fill="url(#paint2_linear)"/>
<path fill-rule="evenodd" clip-rule="evenodd" d="M77.1962 43.5775C79.0662 45.2375 79.7862 48.7075 79.7862 48.7075C79.7862 48.7075 78.4662 50.1175 78.3562 50.1375C75.5962 45.5375 72.7362 46.0675 70.5062 47.9675L68.3062 45.6575C69.2062 44.5675 69.5962 43.1175 69.2162 41.6175L69.9262 41.3275C72.7462 40.9275 75.1062 41.6775 77.1962 43.5775Z" fill="#B0BCC1"/>
<path fill-rule="evenodd" clip-rule="evenodd" d="M39.4761 37.1875L44.6961 51.2675C43.2661 50.4775 41.7161 50.2075 40.1061 50.1275C36.5361 50.1275 33.7461 51.9975 31.8061 54.8175L29.0161 39.9275L29.0761 39.9075C30.1261 40.4675 31.3261 40.5775 32.5061 40.6375C35.1861 40.5775 37.9261 39.4275 39.4761 37.1875Z" fill="url(#paint3_linear)"/>
<path fill-rule="evenodd" clip-rule="evenodd" d="M60.8962 22.1274L60.9162 22.1974C60.2062 23.7874 60.4262 22.9774 60.2462 24.6374C60.3362 26.9874 60.9862 27.6974 62.6062 29.2374V29.2474L40.4762 34.9774C40.9362 34.0974 40.9862 33.0874 41.0362 32.1274C41.0362 29.8274 40.0362 27.7774 38.3462 26.1774L60.8962 22.1274Z" fill="url(#paint4_linear)"/>
<path fill-rule="evenodd" clip-rule="evenodd" d="M62.816 29.1074C63.736 30.1574 65.206 30.2674 66.476 30.3974C68.166 30.2274 67.326 30.4374 68.966 29.7474L67.606 39.0274L67.496 39.0174C66.816 38.2174 65.706 38.1274 64.746 38.0274C63.426 38.1574 64.116 37.9974 62.706 38.5974L62.626 38.5874L62.816 29.1074Z" fill="url(#paint5_linear)"/>
<path d="M32.5561 40.8572C37.3997 40.8572 41.3261 36.9934 41.3261 32.2272C41.3261 27.461 37.3997 23.5972 32.5561 23.5972C27.7126 23.5972 23.7861 27.461 23.7861 32.2272C23.7861 36.9934 27.7126 40.8572 32.5561 40.8572Z" fill="url(#paint6_linear)"/>
<path d="M32.1862 34.9751C33.7326 34.9751 34.9862 33.7439 34.9862 32.2251C34.9862 30.7063 33.7326 29.4751 32.1862 29.4751C30.6398 29.4751 29.3862 30.7063 29.3862 32.2251C29.3862 33.7439 30.6398 34.9751 32.1862 34.9751Z" fill="white"/>
<path d="M65.7895 30.9376C68.9872 30.9376 71.5795 28.3901 71.5795 25.2476C71.5795 22.1051 68.9872 19.5576 65.7895 19.5576C62.5918 19.5576 59.9995 22.1051 59.9995 25.2476C59.9995 28.3901 62.5918 30.9376 65.7895 30.9376Z" fill="url(#paint7_linear)"/>
<path d="M65.0963 26.9075C66.1126 26.9075 66.9363 26.0837 66.9363 25.0675C66.9363 24.0513 66.1126 23.2275 65.0963 23.2275C64.0801 23.2275 63.2563 24.0513 63.2563 25.0675C63.2563 26.0837 64.0801 26.9075 65.0963 26.9075Z" fill="white"/>
<path d="M40.3062 63.6178C42.3331 63.6178 43.9762 61.9747 43.9762 59.9478C43.9762 57.9209 42.3331 56.2778 40.3062 56.2778C38.2793 56.2778 36.6362 57.9209 36.6362 59.9478C36.6362 61.9747 38.2793 63.6178 40.3062 63.6178Z" fill="white"/>
<path fill-rule="evenodd" clip-rule="evenodd" d="M69.5663 41.6975C72.6763 41.2875 75.2763 42.0675 77.5863 44.0775C79.6463 45.8275 72.3963 46.7575 69.8963 48.9675C67.3963 51.1775 67.0363 54.1475 72.1463 57.4375C71.9463 57.6475 70.4763 59.0275 70.4763 59.0275C70.4763 59.0275 66.7063 58.1975 64.9063 56.1675C62.9463 54.2175 62.2463 51.9275 62.3563 49.2675C62.3763 48.8275 62.5363 48.3975 62.6263 47.9675C64.9063 48.0875 63.9363 48.2175 65.5663 47.8275C67.9963 46.8675 69.4363 44.5075 68.7863 42.0075L69.5663 41.6975Z" fill="url(#paint8_linear)"/>
<path d="M64.4494 47.6385C67.1335 47.6385 69.3094 45.4626 69.3094 42.7785C69.3094 40.0944 67.1335 37.9185 64.4494 37.9185C61.7653 37.9185 59.5894 40.0944 59.5894 42.7785C59.5894 45.4626 61.7653 47.6385 64.4494 47.6385Z" fill="url(#paint9_linear)"/>
<path d="M64.6363 44.3474C65.3985 44.3474 66.0163 43.7296 66.0163 42.9674C66.0163 42.2052 65.3985 41.5874 64.6363 41.5874C63.8742 41.5874 63.2563 42.2052 63.2563 42.9674C63.2563 43.7296 63.8742 44.3474 64.6363 44.3474Z" fill="white"/>
<path d="M79.7861 63.5576C85.309 63.5576 89.7861 59.0805 89.7861 53.5576C89.7861 48.0348 85.309 43.5576 79.7861 43.5576C74.2633 43.5576 69.7861 48.0348 69.7861 53.5576C69.7861 59.0805 74.2633 63.5576 79.7861 63.5576Z" fill="black"/>
<path d="M79.7861 63.5576C85.309 63.5576 89.7861 59.0805 89.7861 53.5576C89.7861 48.0348 85.309 43.5576 79.7861 43.5576C74.2633 43.5576 69.7861 48.0348 69.7861 53.5576C69.7861 59.0805 74.2633 63.5576 79.7861 63.5576Z" fill="url(#paint10_linear)"/>
<path fill-rule="evenodd" clip-rule="evenodd" d="M70.4762 59.0377L72.6662 56.9677C71.3762 56.5377 70.5362 56.1677 70.1362 55.8677C69.7362 55.5677 69.4662 56.1877 69.3062 57.7477L70.4762 59.0377Z" fill="#CFCFCF"/>
<path d="M82.2131 47.2637L82.8831 48.9337L83.8931 49.2237L85.3831 48.4237H85.5931L86.1631 49.0637L86.6431 49.5437V49.7037L85.8931 51.2637L86.2631 52.2737L87.7831 52.8037V54.2837L86.0531 54.9737L85.7631 56.0137L86.5131 57.4937V57.7037L85.4731 58.7337L83.7131 57.9137L82.7031 58.3337L82.1931 59.9237V60.1337H81.4431V55.5337C81.9531 55.5537 82.4631 55.3837 82.8531 55.0637L82.9931 54.9437C83.4131 54.5537 83.6431 54.0137 83.6331 53.4637L83.6231 53.2837C83.5831 52.7937 83.3531 52.3437 82.9931 51.9937C82.5731 51.6137 82.0131 51.3937 81.4331 51.4037V47.2637H82.2131V47.2637Z" fill="black"/>
<path d="M82.2131 47.2637L82.8831 48.9337L83.8931 49.2237L85.3831 48.4237H85.5931L86.1631 49.0637L86.6431 49.5437V49.7037L85.8931 51.2637L86.2631 52.2737L87.7831 52.8037V54.2837L86.0531 54.9737L85.7631 56.0137L86.5131 57.4937V57.7037L85.4731 58.7337L83.7131 57.9137L82.7031 58.3337L82.1931 59.9237V60.1337H81.4431V55.5337C81.9531 55.5537 82.4631 55.3837 82.8531 55.0637L82.9931 54.9437C83.4131 54.5537 83.6431 54.0137 83.6331 53.4637L83.6231 53.2837C83.5831 52.7937 83.3531 52.3437 82.9931 51.9937C82.5731 51.6137 82.0131 51.3937 81.4331 51.4037V47.2637H82.2131V47.2637Z" fill="url(#paint11_linear)"/>
<path fill-rule="evenodd" clip-rule="evenodd" d="M81.4331 56.2637C82.7931 56.2637 83.9031 55.1537 83.9031 53.7937C83.9031 52.4337 82.7931 51.3237 81.4331 51.3237" fill="white"/>
<path d="M79.9568 48.021L79.9468 59.211C79.9568 59.261 79.9568 59.311 79.9568 59.361C79.9568 60.131 79.3268 60.751 78.5468 60.751C77.8368 60.751 77.2568 60.231 77.1568 59.561C76.1668 59.471 75.3868 58.721 75.3068 57.791C74.4268 57.571 73.7868 56.821 73.7868 55.931C73.7868 55.681 73.8368 55.451 73.9268 55.231C73.3268 54.901 72.9268 54.281 72.9268 53.581C72.9268 52.881 73.3268 52.261 73.9268 51.921C73.8368 51.701 73.7868 51.471 73.7868 51.221C73.7868 50.321 74.4468 49.561 75.3368 49.351C75.5068 48.521 76.2468 47.891 77.1568 47.801C77.2568 47.131 77.8368 46.611 78.5468 46.611C79.3268 46.621 79.9568 47.251 79.9568 48.021L79.9468 47.911H79.9568V48.021Z" fill="black"/>
<path d="M79.9568 48.021L79.9468 59.211C79.9568 59.261 79.9568 59.311 79.9568 59.361C79.9568 60.131 79.3268 60.751 78.5468 60.751C77.8368 60.751 77.2568 60.231 77.1568 59.561C76.1668 59.471 75.3868 58.721 75.3068 57.791C74.4268 57.571 73.7868 56.821 73.7868 55.931C73.7868 55.681 73.8368 55.451 73.9268 55.231C73.3268 54.901 72.9268 54.281 72.9268 53.581C72.9268 52.881 73.3268 52.261 73.9268 51.921C73.8368 51.701 73.7868 51.471 73.7868 51.221C73.7868 50.321 74.4468 49.561 75.3368 49.351C75.5068 48.521 76.2468 47.891 77.1568 47.801C77.2568 47.131 77.8368 46.611 78.5468 46.611C79.3268 46.621 79.9568 47.251 79.9568 48.021L79.9468 47.911H79.9568V48.021Z" fill="url(#paint12_linear)"/>
<path fill-rule="evenodd" clip-rule="evenodd" d="M75.2256 51.4854C76.2856 51.4854 77.1556 52.3954 77.1556 53.5054C77.1556 54.6154 76.2956 55.5254 75.2256 55.5254" fill="black"/>
<path d="M75.2256 51.4854C76.2856 51.4854 77.1556 52.3954 77.1556 53.5054C77.1556 54.6154 76.2956 55.5254 75.2256 55.5254" stroke="url(#paint13_linear)" stroke-width="0.5" stroke-linecap="round"/>
<path d="M75.6558 53.5054H78.2058" stroke="url(#paint14_linear)" stroke-width="0.5"/>
<path fill-rule="evenodd" clip-rule="evenodd" d="M75.6558 53.5051C75.6558 53.9151 75.3258 54.2551 74.9058 54.2551C74.4858 54.2551 74.1558 53.9151 74.1558 53.5051C74.1558 53.0951 74.4858 52.7651 74.9058 52.7651C75.3258 52.7651 75.6558 53.0951 75.6558 53.5051Z" fill="black"/>
<path fill-rule="evenodd" clip-rule="evenodd" d="M75.6558 53.5051C75.6558 53.9151 75.3258 54.2551 74.9058 54.2551C74.4858 54.2551 74.1558 53.9151 74.1558 53.5051C74.1558 53.0951 74.4858 52.7651 74.9058 52.7651C75.3258 52.7651 75.6558 53.0951 75.6558 53.5051Z" fill="url(#paint15_linear)" stroke="url(#paint16_linear)" stroke-width="0.5"/>
<path d="M79.0859 51.6553H79.9059" stroke="url(#paint17_linear)" stroke-width="0.5"/>
<path d="M79.0859 55.3286H79.9159" stroke="url(#paint18_linear)" stroke-width="0.5"/>
<path fill-rule="evenodd" clip-rule="evenodd" d="M79.0859 51.5952C79.0859 52.0052 78.7559 52.3352 78.3359 52.3352C77.9159 52.3352 77.5859 52.0052 77.5859 51.5952C77.5859 51.1852 77.9159 50.8552 78.3359 50.8552C78.7459 50.8452 79.0859 51.1852 79.0859 51.5952Z" fill="black"/>
<path fill-rule="evenodd" clip-rule="evenodd" d="M79.0859 51.5952C79.0859 52.0052 78.7559 52.3352 78.3359 52.3352C77.9159 52.3352 77.5859 52.0052 77.5859 51.5952C77.5859 51.1852 77.9159 50.8552 78.3359 50.8552C78.7459 50.8452 79.0859 51.1852 79.0859 51.5952Z" fill="url(#paint19_linear)" stroke="url(#paint20_linear)" stroke-width="0.5"/>
<path fill-rule="evenodd" clip-rule="evenodd" d="M79.0859 55.4253C79.0859 55.8353 78.7559 56.1653 78.3359 56.1653C77.9159 56.1653 77.5859 55.8353 77.5859 55.4253C77.5859 55.0153 77.9159 54.6853 78.3359 54.6853C78.7459 54.6753 79.0859 55.0153 79.0859 55.4253Z" fill="black"/>
<path fill-rule="evenodd" clip-rule="evenodd" d="M79.0859 55.4253C79.0859 55.8353 78.7559 56.1653 78.3359 56.1653C77.9159 56.1653 77.5859 55.8353 77.5859 55.4253C77.5859 55.0153 77.9159 54.6853 78.3359 54.6853C78.7459 54.6753 79.0859 55.0153 79.0859 55.4253Z" fill="url(#paint21_linear)" stroke="url(#paint22_linear)" stroke-width="0.5"/>
<path fill-rule="evenodd" clip-rule="evenodd" d="M79.1668 47.9002C79.1668 48.1502 78.9668 48.3502 78.7068 48.3502C78.4468 48.3502 78.2568 48.1502 78.2568 47.9002C78.2568 47.6502 78.4568 47.4502 78.7168 47.4502C78.9768 47.4502 79.1668 47.6502 79.1668 47.9002Z" fill="#30404D"/>
<path fill-rule="evenodd" clip-rule="evenodd" d="M79.1668 59.597C79.1668 59.847 78.9668 60.047 78.7068 60.047C78.4468 60.047 78.2568 59.847 78.2568 59.597C78.2568 59.347 78.4568 59.147 78.7168 59.147C78.9768 59.147 79.1668 59.347 79.1668 59.597Z" fill="url(#paint23_linear)"/>
<path d="M66.0912 72.8177L59.7012 76.5377L52.9912 69.0677C52.5012 68.5177 52.8912 67.6377 53.6312 67.6377H66.0812L66.0912 72.8177Z" fill="url(#paint24_linear)"/>
<path d="M69.6311 71.7175L66.0311 67.6675L52.9511 82.2775C52.5111 82.7775 52.8611 83.5575 53.5211 83.5575H58.9911L69.6311 71.7175Z" fill="url(#paint25_linear)"/>
<path d="M72.6613 75.1077L69.6013 71.6577L58.8013 83.5577H65.7613C65.9113 83.5577 66.0413 83.4977 66.1413 83.3877L72.6513 76.2977C72.9613 75.9677 72.9613 75.4477 72.6613 75.1077Z" fill="url(#paint26_linear)"/>
<defs>
<linearGradient id="paint0_linear" x1="40.2274" y1="63.273" x2="40.2274" y2="79.4215" gradientUnits="userSpaceOnUse">
<stop stop-color="white"/>
<stop offset="1" stop-color="#CBCBCB"/>
</linearGradient>
<linearGradient id="paint1_linear" x1="40.2282" y1="50.0304" x2="40.2282" y2="69.1255" gradientUnits="userSpaceOnUse">
<stop stop-color="#2B485B"/>
<stop offset="1" stop-color="#13232E"/>
</linearGradient>
<linearGradient id="paint2_linear" x1="40.2135" y1="63.6582" x2="40.2135" y2="71.3925" gradientUnits="userSpaceOnUse">
<stop stop-color="white"/>
<stop offset="1" stop-color="#CBCBCB"/>
</linearGradient>
<linearGradient id="paint3_linear" x1="36.8531" y1="35.4406" x2="36.8531" y2="54.8188" gradientUnits="userSpaceOnUse">
<stop stop-color="white"/>
<stop offset="1" stop-color="#CBCBCB"/>
</linearGradient>
<linearGradient id="paint4_linear" x1="51.7189" y1="28.3559" x2="42.0928" y2="34.4663" gradientUnits="userSpaceOnUse">
<stop stop-color="white"/>
<stop offset="1" stop-color="#CBCBCB"/>
</linearGradient>
<linearGradient id="paint5_linear" x1="65.7726" y1="28.1062" x2="65.7726" y2="39.0065" gradientUnits="userSpaceOnUse">
<stop stop-color="white"/>
<stop offset="1" stop-color="#CBCBCB"/>
</linearGradient>
<linearGradient id="paint6_linear" x1="32.5453" y1="23.6009" x2="32.5453" y2="40.8599" gradientUnits="userSpaceOnUse">
<stop stop-color="#2B485B"/>
<stop offset="1" stop-color="#13232E"/>
</linearGradient>
<linearGradient id="paint7_linear" x1="65.8009" y1="19.5595" x2="65.8009" y2="30.9431" gradientUnits="userSpaceOnUse">
<stop stop-color="#2B485B"/>
<stop offset="1" stop-color="#13232E"/>
</linearGradient>
<linearGradient id="paint8_linear" x1="70.13" y1="39.8648" x2="70.13" y2="59.0412" gradientUnits="userSpaceOnUse">
<stop stop-color="white"/>
<stop offset="1" stop-color="#CBCBCB"/>
</linearGradient>
<linearGradient id="paint9_linear" x1="64.4724" y1="37.9313" x2="64.4724" y2="47.6556" gradientUnits="userSpaceOnUse">
<stop stop-color="#2B485B"/>
<stop offset="1" stop-color="#13232E"/>
</linearGradient>
<linearGradient id="paint10_linear" x1="79.7861" y1="47.1556" x2="79.7861" y2="68.4756" gradientUnits="userSpaceOnUse">
<stop stop-color="#32D4F5"/>
<stop offset="0.47" stop-color="#31D1F3"/>
<stop offset="0.63" stop-color="#2EC9EB"/>
<stop offset="0.77" stop-color="#29BADE"/>
<stop offset="0.89" stop-color="#22A5CB"/>
<stop offset="1" stop-color="#198AB3"/>
</linearGradient>
<linearGradient id="paint11_linear" x1="84.6311" y1="45.971" x2="84.6311" y2="60.134" gradientUnits="userSpaceOnUse">
<stop stop-color="white"/>
<stop offset="1" stop-color="#CBCBCB"/>
</linearGradient>
<linearGradient id="paint12_linear" x1="72.9323" y1="53.6595" x2="72.9323" y2="39.5391" gradientUnits="userSpaceOnUse">
<stop stop-color="#E8F6FE"/>
<stop offset="1" stop-color="#B6E5F9"/>
</linearGradient>
<linearGradient id="paint13_linear" x1="76.1981" y1="52.4694" x2="75.5314" y2="54.1645" gradientUnits="userSpaceOnUse">
<stop stop-color="#40C4F5"/>
<stop offset="1" stop-color="#2BB5F0"/>
</linearGradient>
<linearGradient id="paint14_linear" x1="-nan" y1="-nan" x2="-nan" y2="-nan" gradientUnits="userSpaceOnUse">
<stop stop-color="#40C4F5"/>
<stop offset="1" stop-color="#2BB5F0"/>
</linearGradient>
<linearGradient id="paint15_linear" x1="74.9152" y1="52.6189" x2="74.9152" y2="54.2565" gradientUnits="userSpaceOnUse">
<stop stop-color="#EFEFEF"/>
<stop offset="1" stop-color="white"/>
</linearGradient>
<linearGradient id="paint16_linear" x1="75.1473" y1="53.2359" x2="74.5731" y2="53.9272" gradientUnits="userSpaceOnUse">
<stop stop-color="#40C4F5"/>
<stop offset="1" stop-color="#2BB5F0"/>
</linearGradient>
<linearGradient id="paint17_linear" x1="-nan" y1="-nan" x2="-nan" y2="-nan" gradientUnits="userSpaceOnUse">
<stop stop-color="#40C4F5"/>
<stop offset="1" stop-color="#2BB5F0"/>
</linearGradient>
<linearGradient id="paint18_linear" x1="-nan" y1="-nan" x2="-nan" y2="-nan" gradientUnits="userSpaceOnUse">
<stop stop-color="#40C4F5"/>
<stop offset="1" stop-color="#2BB5F0"/>
</linearGradient>
<linearGradient id="paint19_linear" x1="78.3423" y1="50.7039" x2="78.3423" y2="52.3414" gradientUnits="userSpaceOnUse">
<stop stop-color="#EFEFEF"/>
<stop offset="1" stop-color="white"/>
</linearGradient>
<linearGradient id="paint20_linear" x1="78.5743" y1="51.3208" x2="78.0002" y2="52.0122" gradientUnits="userSpaceOnUse">
<stop stop-color="#40C4F5"/>
<stop offset="1" stop-color="#2BB5F0"/>
</linearGradient>
<linearGradient id="paint21_linear" x1="78.3423" y1="54.5342" x2="78.3423" y2="56.1717" gradientUnits="userSpaceOnUse">
<stop stop-color="#EFEFEF"/>
<stop offset="1" stop-color="white"/>
</linearGradient>
<linearGradient id="paint22_linear" x1="78.5743" y1="55.1511" x2="78.0002" y2="55.8425" gradientUnits="userSpaceOnUse">
<stop stop-color="#40C4F5"/>
<stop offset="1" stop-color="#2BB5F0"/>
</linearGradient>
<linearGradient id="paint23_linear" x1="78.7104" y1="59.6001" x2="78.924" y2="59.5039" gradientUnits="userSpaceOnUse">
<stop stop-color="#24538D"/>
<stop offset="1" stop-color="#225EA3"/>
</linearGradient>
<linearGradient id="paint24_linear" x1="53.6095" y1="63.352" x2="68.1273" y2="77.0117" gradientUnits="userSpaceOnUse">
<stop offset="0.4598" stop-color="#1152D4"/>
<stop offset="0.6156" stop-color="#0D3FB3"/>
</linearGradient>
<linearGradient id="paint25_linear" x1="52.7511" y1="75.6111" x2="69.6283" y2="75.6111" gradientUnits="userSpaceOnUse">
<stop stop-color="#388CF4"/>
<stop offset="1" stop-color="#2C7CEF"/>
</linearGradient>
<linearGradient id="paint26_linear" x1="58.8032" y1="77.6094" x2="72.885" y2="77.6094" gradientUnits="userSpaceOnUse">
<stop stop-color="#76C0FD"/>
<stop offset="1" stop-color="#63B2FB"/>
</linearGradient>
</defs>
</svg>
