<svg width="160" height="188" viewBox="0 0 160 188" fill="none" xmlns="http://www.w3.org/2000/svg">
<g clip-path="url(#clip0_364_7442)">
<path d="M79.6779 188C82.7592 187.994 85.7796 187.141 88.4083 185.534L150.384 147.874C153.165 146.11 155.449 143.665 157.019 140.771C158.589 137.876 159.394 134.628 159.356 131.336V56.6207C159.392 53.3283 158.587 50.0812 157.017 47.1871C155.447 44.2929 153.163 41.8476 150.384 40.0829L88.4083 2.4228C85.7749 0.837605 82.7592 0 79.6855 0C76.6118 0 73.5961 0.837605 70.9627 2.4228L8.9876 40.098C6.2045 41.8604 3.91796 44.3048 2.34499 47.1991C0.772021 50.0935 -0.0351786 53.3418 4.1431e-06 56.6358V131.336C-0.0185283 134.119 0.556189 136.874 1.68588 139.418C2.81557 141.962 4.4743 144.236 6.5516 146.089V146.115L70.9627 185.549C73.5884 187.149 76.6032 187.996 79.6779 188V188ZM80.3257 6.95218C82.2776 6.95218 84.7548 8.1651 86.4646 9.20912L147.222 46.4034C150.974 48.6881 153.09 55.2842 153.09 60.0352L152.458 131.336C152.458 136.087 149.259 140.355 145.506 142.64L85.1104 179.021C81.6758 181.109 78.8854 181.109 75.4507 179.021L14.2427 142.549C10.4903 140.265 7.47191 136.072 7.47191 131.336V57.688C7.50442 55.3228 8.11341 53.0013 9.24608 50.9247C10.3787 48.8482 12.0009 47.0792 13.9718 45.7714L74.548 9.20912C76.2577 8.1651 78.3739 6.95218 80.3257 6.95218Z" fill="#F2F1F0"/>
<path fill-rule="evenodd" clip-rule="evenodd" d="M87.5765 10.5328C85.2056 9.05928 82.4697 8.27838 79.6783 8.27838C76.8868 8.27838 74.1509 9.05928 71.7801 10.5328L15.6454 44.8642C13.1193 46.4759 11.047 48.7062 9.625 51.3437C8.203 53.9812 7.47851 56.9382 7.52026 59.9343V128.038C7.48034 131.033 8.20562 133.99 9.62745 136.627C11.0493 139.264 13.1206 141.495 15.6454 143.108L71.7801 177.439C74.1508 178.912 76.8867 179.694 79.6783 179.694C82.4698 179.694 85.2057 178.912 87.5765 177.439L143.711 143.108C146.236 141.495 148.307 139.264 149.729 136.627C151.151 133.99 151.877 131.033 151.837 128.038V59.9343C151.875 56.9388 151.149 53.983 149.727 51.3461C148.305 48.7092 146.234 46.4784 143.711 44.8642L87.5765 10.5328Z" fill="url(#paint0_linear_364_7442)"/>
<path fill-rule="evenodd" clip-rule="evenodd" d="M79.6783 9.75432C81.3615 9.75432 83.2442 10.62 85.311 11.8781L143.777 47.4205C145.668 48.6339 147.218 50.3108 148.278 52.2919C149.339 54.2729 149.875 56.4922 149.837 58.739V129.218C149.875 131.464 149.339 133.684 148.278 135.664C147.218 137.645 145.668 139.322 143.777 140.536L85.312 176.078L85.311 176.079C83.6408 177.218 81.6958 177.889 79.6783 178.022C77.6609 177.889 75.7158 177.218 74.0456 176.079L74.0446 176.078L15.5823 140.538L15.5801 140.537C13.7918 139.573 12.2668 138.186 11.1383 136.497C10.1614 134.894 9.52031 132.679 9.52031 129.218V58.739C9.48157 56.4923 10.018 54.273 11.0785 52.292C12.139 50.311 13.6885 48.6341 15.5797 47.4206L74.0365 11.8835L74.0406 11.8811C76.1244 10.6281 77.9846 9.75432 79.6783 9.75432ZM87.3908 8.46132L145.855 44.0026C148.333 45.5727 150.368 47.7514 151.765 50.3311C153.162 52.9109 153.876 55.8055 153.837 58.7391V129.218C153.876 132.151 153.162 135.046 151.765 137.626C150.368 140.205 148.333 142.384 145.855 143.955L87.3898 179.496C85.0956 181.021 82.4302 181.894 79.6783 182.022C76.9264 181.894 74.261 181.021 71.9667 179.496H71.9658L13.502 143.954L13.4995 143.953C11.1642 142.66 9.18097 140.814 7.72281 138.579C6.12823 135.725 5.36521 132.482 5.52031 129.218V58.739C5.48125 55.8054 6.19436 52.9107 7.59165 50.331C8.98894 47.7512 11.0238 45.5724 13.5022 44.0024L71.9667 8.46067L71.9749 8.45579C74.0655 7.19838 76.7734 5.75433 79.6783 5.75433C82.5645 5.75433 85.2816 7.17741 87.3908 8.46127V8.46132Z" fill="#0078D4"/>
<path opacity="0.2" d="M139.959 132.026L80.409 166.633L20.47 132.027L80.02 97.42L139.959 132.026Z" fill="#003067"/>
<path d="M140.532 120.546L79.81 155.834L18.698 120.551L79.42 85.263L140.532 120.546Z" fill="#1B93EB"/>
<path d="M140.532 120.546L140.52 124.652L79.798 159.94L79.81 155.834L140.532 120.546Z" fill="#1F56A3"/>
<path d="M79.81 155.834L79.798 159.94L18.686 124.657L18.698 120.551L79.81 155.834Z" fill="#0078D4"/>
<path d="M65.3779 111.509C66.0544 111.9 66.0687 112.524 65.3966 112.914L46.1524 124.098C45.7762 124.288 45.3604 124.386 44.9389 124.385C44.5174 124.384 44.1021 124.283 43.7268 124.091L40.7149 122.353C40.5693 122.303 40.4428 122.209 40.3529 122.084C40.263 121.96 40.2143 121.81 40.2134 121.656C40.2125 121.502 40.2596 121.352 40.3481 121.226C40.4365 121.1 40.562 121.005 40.707 120.954L59.9512 109.77C60.325 109.579 60.7388 109.48 61.1586 109.48C61.5784 109.48 61.9922 109.579 62.366 109.77L65.3779 111.509Z" fill="#0078D4"/>
<path d="M40.2133 121.648C40.2266 121.8 40.2801 121.945 40.3682 122.069C40.4564 122.192 40.5761 122.29 40.7149 122.353L43.7269 124.091C44.1021 124.283 44.5174 124.384 44.939 124.385C45.3605 124.386 45.7763 124.288 46.1525 124.098L65.3965 112.914C65.5331 112.853 65.651 112.757 65.7383 112.636C65.8255 112.514 65.8789 112.372 65.8931 112.223L65.8852 115.009C65.8711 115.158 65.8176 115.301 65.7304 115.422C65.6431 115.544 65.5252 115.64 65.3886 115.701L46.1446 126.884C45.7684 127.074 45.3525 127.173 44.931 127.172C44.5095 127.171 44.0942 127.07 43.7189 126.878L40.7071 125.139C40.5684 125.077 40.4487 124.979 40.3605 124.855C40.2723 124.731 40.2188 124.586 40.2056 124.435L40.2133 121.648Z" fill="#1F56A3"/>
<path d="M79.5935 113.286C80.2701 113.677 80.2736 114.307 79.6122 114.691L54.8171 129.1C54.4409 129.29 54.0251 129.389 53.6036 129.388C53.182 129.387 52.7668 129.286 52.3915 129.094L49.3796 127.355C49.234 127.305 49.1075 127.212 49.0176 127.087C48.9277 126.962 48.8789 126.812 48.8781 126.659C48.8772 126.505 48.9243 126.354 49.0127 126.229C49.1012 126.103 49.2267 126.008 49.3717 125.956L74.1669 111.547C74.5411 111.358 74.9547 111.259 75.3742 111.259C75.7937 111.259 76.2074 111.358 76.5816 111.547L79.5935 113.286Z" fill="#50E6FF"/>
<path d="M48.878 126.651C48.8913 126.802 48.9448 126.947 49.033 127.071C49.1212 127.195 49.241 127.293 49.3798 127.355L52.3915 129.094C52.7668 129.286 53.182 129.387 53.6035 129.388C54.025 129.389 54.4408 129.29 54.817 129.1L79.6122 114.691C79.7481 114.629 79.8653 114.533 79.9519 114.411C80.0384 114.29 80.0911 114.147 80.1046 113.999L80.0967 116.785C80.0832 116.934 80.0305 117.076 79.944 117.198C79.8575 117.319 79.7402 117.416 79.6043 117.477L54.8091 131.887C54.4329 132.077 54.0171 132.175 53.5956 132.174C53.1741 132.173 52.7588 132.073 52.3836 131.881L49.3718 130.142C49.233 130.08 49.1133 129.982 49.0251 129.858C48.9369 129.734 48.8834 129.589 48.8702 129.437L48.878 126.651Z" fill="#32BEDD"/>
<path d="M74.6302 126.221C74.7758 126.27 74.9023 126.364 74.9922 126.489C75.0821 126.614 75.1308 126.764 75.1317 126.917C75.1325 127.071 75.0854 127.222 74.997 127.347C74.9085 127.473 74.783 127.568 74.6379 127.62L63.4818 134.103C63.1075 134.292 62.694 134.391 62.2745 134.391C61.855 134.391 61.4414 134.292 61.0672 134.103L58.0553 132.364C57.3787 131.973 57.375 131.343 58.0364 130.959L69.1926 124.476C69.5688 124.286 69.9847 124.187 70.4062 124.188C70.8277 124.189 71.243 124.29 71.6183 124.482L74.6302 126.221Z" fill="#C3F1FF"/>
<path d="M57.5441 131.651C57.5581 131.805 57.6129 131.952 57.7027 132.077C57.7926 132.202 57.9143 132.301 58.0552 132.364L61.0672 134.103C61.4415 134.292 61.8551 134.391 62.2746 134.391C62.694 134.391 63.1076 134.292 63.4819 134.103L74.638 127.619C74.7744 127.558 74.892 127.461 74.9787 127.339C75.0655 127.217 75.1183 127.074 75.1319 126.925L75.124 129.712C75.1104 129.861 75.0576 130.004 74.9708 130.126C74.884 130.248 74.7665 130.344 74.6301 130.406L63.4739 136.889C63.0997 137.079 62.6861 137.178 62.2666 137.178C61.8471 137.178 61.4336 137.079 61.0593 136.889L58.0473 135.15C57.9064 135.088 57.7847 134.989 57.6948 134.863C57.605 134.738 57.5502 134.591 57.5361 134.438L57.5441 131.651Z" fill="#9CEBFF"/>
<path d="M97.0095 36.3752C97.5458 36.71 97.9854 37.179 98.2847 37.7359L101.332 43.1261L93.812 47.6942C92.7011 48.3755 92.6785 50.438 93.7651 52.4073L104.18 71.3375C104.949 72.7276 104.945 74.1926 104.179 74.7061L93.6401 81.674C92.5542 82.389 92.5819 84.471 93.677 86.4258L100.998 99.4195L98.4488 101.326C98.2054 101.468 97.9254 101.536 97.6438 101.52C97.3621 101.504 97.0914 101.406 96.8655 101.237C96.1901 100.813 95.644 100.213 95.2866 99.5L73.1671 57.3422C72.181 55.4599 72.1866 53.4937 73.1884 52.7688L95.6758 36.3069C95.8796 36.184 96.1154 36.1248 96.3531 36.1369C96.5908 36.1491 96.8193 36.2321 97.0095 36.3752V36.3752Z" fill="url(#paint1_linear_364_7442)"/>
<path d="M101.063 36.1216C100.763 35.5647 100.324 35.0957 99.7873 34.7609C99.6086 34.6316 99.3989 34.552 99.1795 34.5302C98.96 34.5083 98.7387 34.545 98.538 34.6365L95.7603 36.2507C95.9609 36.1593 96.1822 36.1226 96.4016 36.1444C96.621 36.1663 96.8307 36.2459 97.0094 36.3752C97.5457 36.7099 97.9854 37.179 98.2847 37.7359L101.332 43.1261L104.11 41.5119L101.063 36.1216Z" fill="#B559A9"/>
<path d="M110.363 41.9452C109.95 41.1536 109.333 40.4866 108.576 40.0131C108.331 39.8355 108.043 39.726 107.741 39.6958C107.44 39.6656 107.136 39.7158 106.86 39.8413L104.083 41.4556C104.358 41.3301 104.662 41.2799 104.964 41.3101C105.265 41.3403 105.553 41.4498 105.799 41.6274C106.556 42.1009 107.172 42.7679 107.586 43.5595L129.584 84.0351L132.362 82.4209L110.363 41.9452Z" fill="#ECACD3"/>
<path d="M119.182 65.975C119.789 66.3543 120.281 66.8911 120.607 67.5283L130.05 85.0066L130.62 86.0621C131.64 87.9445 131.634 89.9107 130.624 90.6115L120.724 97.4848C120.623 97.5523 120.51 97.5996 120.391 97.6239C120.005 97.6794 119.612 97.5922 119.285 97.3786C118.706 97.0187 118.231 96.5145 117.906 95.9154L108.033 78.5723C106.436 75.7582 106.436 72.7462 108.035 71.7676L117.789 65.8529C118.011 65.7446 118.257 65.6988 118.503 65.7203C118.748 65.7418 118.983 65.8299 119.182 65.975V65.975Z" fill="url(#paint2_linear_364_7442)"/>
<path d="M105.799 41.6274C106.556 42.1009 107.173 42.7679 107.586 43.5595L129.584 84.0351C129.758 84.3581 129.913 84.6828 130.05 85.0065L120.607 67.5282C120.281 66.8911 119.789 66.3543 119.182 65.975C118.983 65.8299 118.748 65.7418 118.503 65.7203C118.257 65.6988 118.011 65.7446 117.789 65.853L108.035 71.7676C106.436 72.7462 106.436 75.7582 108.032 78.5723L117.906 95.9154C118.231 96.5145 118.706 97.0187 119.285 97.3786C119.612 97.5921 120.005 97.6793 120.39 97.6238L107.416 106.522C107.132 106.667 106.814 106.73 106.497 106.705C106.179 106.68 105.875 106.567 105.618 106.38C104.882 105.92 104.278 105.277 103.867 104.512L100.998 99.4195L93.677 86.4258C92.582 84.471 92.5543 82.389 93.6401 81.674L104.179 74.7061C104.945 74.1926 104.949 72.7276 104.18 71.3375L93.7651 52.4074C92.6785 50.438 92.7011 48.3755 93.812 47.6942L101.332 43.1261L104.054 41.4725C104.332 41.3372 104.641 41.2801 104.948 41.3074C105.255 41.3347 105.549 41.4454 105.799 41.6274V41.6274Z" fill="url(#paint3_linear_364_7442)"/>
<path d="M133.398 84.4478L132.828 83.3922L123.385 65.914C123.059 65.2769 122.567 64.74 121.96 64.3607C121.764 64.2191 121.534 64.1319 121.293 64.1081C121.052 64.0843 120.81 64.1247 120.59 64.2251L117.812 65.8394C118.032 65.739 118.274 65.6986 118.515 65.7224C118.756 65.7462 118.986 65.8333 119.182 65.9749C119.789 66.3543 120.281 66.8911 120.607 67.5282L130.05 85.0066L130.62 86.0621C131.64 87.9445 131.634 89.9107 130.624 90.6114L133.402 88.9972C134.412 88.2964 134.418 86.3301 133.398 84.4478Z" fill="#F1C3DF"/>
<path opacity="0.2" d="M112.79 118.169C114.15 118.954 114.151 120.226 112.8 121.011L112.508 121.18C111.749 121.567 110.909 121.769 110.058 121.769C109.206 121.769 108.366 121.567 107.608 121.18L78.7298 104.508C77.3699 103.723 77.3628 102.455 78.7139 101.669L79.0056 101.5C79.7652 101.112 80.6057 100.91 81.4585 100.909C82.3112 100.908 83.152 101.11 83.9122 101.496L112.79 118.169Z" fill="#003067"/>
<path opacity="0.2" d="M107.901 43.9945C107.881 44.0062 107.864 44.0221 107.844 44.034H107.843C105.237 45.5814 103.794 48.6081 103.783 52.579C103.762 60.1127 108.879 68.9779 115.432 72.7621C117.174 73.8379 119.169 74.4344 121.215 74.4911C122.558 74.5025 123.879 74.1578 125.045 73.4921L125.054 73.5068L126.926 72.4192L110.619 42.4162C110.606 42.424 110.591 42.4291 110.578 42.4369L107.901 43.9945Z" fill="url(#paint4_linear_364_7442)"/>
<path d="M119.18 44.906C116.215 43.1945 113.526 43.0366 111.582 44.166L108.905 45.722C110.848 44.5927 113.537 44.7505 116.502 46.462C122.408 49.8718 127.183 58.1419 127.163 64.9284C127.154 68.2964 125.965 70.664 124.049 71.7779L126.726 70.2219C128.643 69.1081 129.831 66.7405 129.841 63.3725C129.86 56.586 125.085 48.3159 119.18 44.906Z" fill="#E8E8E8"/>
<path d="M116.502 46.4621C122.408 49.8719 127.183 58.142 127.163 64.9285C127.144 71.7149 122.338 74.4397 116.432 71.0299C110.538 67.627 105.764 59.3708 105.783 52.5844C105.802 45.7979 110.608 43.0592 116.502 46.4621Z" fill="white"/>
<path d="M120.514 59.4748C120.949 59.2273 120.951 58.4269 120.519 57.701C120.335 57.3647 120.067 57.0814 119.741 56.8781C119.632 56.798 119.503 56.7493 119.368 56.7372C119.233 56.7252 119.097 56.7502 118.976 56.8097L115.368 58.8654L114.074 56.6446L113.961 56.4279C113.782 56.094 113.519 55.8131 113.197 55.6132C113.085 55.5332 112.954 55.484 112.818 55.4706C112.681 55.4572 112.543 55.48 112.417 55.5368C112.002 55.7735 112 56.5522 112.412 57.2889L112.394 57.2996L114.589 61.0805C114.775 61.4082 115.04 61.6841 115.36 61.883C115.471 61.9618 115.6 62.0112 115.735 62.0267C115.87 62.0422 116.007 62.0233 116.133 61.9717L120.514 59.4748" fill="#0078D4"/>
<path opacity="0.2" d="M98.6703 123.949C99.7578 123.275 100.66 122.34 101.294 121.229L104.814 115.364C105.452 114.252 106.357 113.316 107.446 112.64C107.825 112.371 108.265 112.202 108.725 112.146C109.186 112.09 109.654 112.15 110.085 112.321L111.611 113.207C111.179 113.037 110.712 112.977 110.251 113.032C109.79 113.088 109.35 113.258 108.972 113.526C107.882 114.202 106.977 115.138 106.339 116.251L102.82 122.116C102.185 123.227 101.283 124.162 100.196 124.836C99.8051 125.118 99.3469 125.292 98.8676 125.34C98.3882 125.388 97.9047 125.308 97.4661 125.109L95.9408 124.222C96.3794 124.421 96.8629 124.501 97.3423 124.453C97.8216 124.405 98.2798 124.232 98.6703 123.949V123.949Z" fill="#50E6FF"/>
<path opacity="0.2" d="M82.2335 120.322C82.8821 118.823 83.9673 117.554 85.3476 116.681C85.7372 116.399 86.1945 116.225 86.673 116.177C87.1515 116.129 87.6342 116.209 88.072 116.408L89.5974 117.294C89.1595 117.095 88.6768 117.016 88.1983 117.064C87.7198 117.112 87.2625 117.286 86.8729 117.568C85.4926 118.441 84.4074 119.709 83.7588 121.208L74.2058 142.103L72.6805 141.216L82.2335 120.322Z" fill="#50E6FF"/>
<path opacity="0.2" d="M86.873 117.568C85.4927 118.441 84.4075 119.709 83.7588 121.208L74.2058 142.103L117.838 116.912L111.611 113.207C111.179 113.037 110.712 112.977 110.251 113.032C109.79 113.088 109.35 113.258 108.972 113.526C107.882 114.202 106.977 115.138 106.339 116.251L102.82 122.116C102.185 123.227 101.283 124.162 100.196 124.836C99.009 125.521 97.8292 125.573 97.0697 124.799L89.9976 117.606C89.2272 116.823 88.0492 116.889 86.873 117.568Z" fill="url(#paint5_linear_364_7442)"/>
<path opacity="0.6" d="M101.319 125.693C102.407 125.018 103.309 124.083 103.943 122.972L107.463 117.107C108.101 115.995 109.005 115.059 110.095 114.383C110.474 114.114 110.914 113.945 111.374 113.889C111.835 113.833 112.303 113.893 112.734 114.064L114.26 114.95C113.828 114.78 113.361 114.72 112.9 114.776C112.439 114.831 111.999 115.001 111.621 115.269C110.531 115.945 109.626 116.881 108.988 117.994L105.469 123.859C104.834 124.97 103.932 125.905 102.845 126.579C102.454 126.861 101.996 127.035 101.516 127.083C101.037 127.131 100.554 127.051 100.115 126.852L98.5897 125.965C99.0283 126.165 99.5119 126.244 99.9912 126.196C100.471 126.148 100.929 125.975 101.319 125.693V125.693Z" fill="#50E6FF"/>
<path opacity="0.6" d="M84.8824 122.065C85.531 120.566 86.6163 119.297 87.9966 118.424C88.3862 118.142 88.8434 117.969 89.3219 117.92C89.8004 117.872 90.2831 117.952 90.721 118.151L92.2463 119.037C91.8084 118.838 91.3257 118.759 90.8472 118.807C90.3687 118.855 89.9115 119.029 89.5219 119.311C88.1416 120.184 87.0564 121.453 86.4078 122.952L76.8548 143.846L75.3295 142.959L84.8824 122.065Z" fill="#50E6FF"/>
<path opacity="0.6" d="M89.5219 119.311C88.1416 120.184 87.0564 121.453 86.4077 122.951L76.8547 143.846L120.487 118.655L114.26 114.95C113.828 114.78 113.361 114.72 112.9 114.776C112.439 114.831 111.999 115.001 111.621 115.269C110.531 115.945 109.626 116.881 108.988 117.994L105.469 123.859C104.834 124.97 103.932 125.905 102.845 126.579C101.658 127.264 100.478 127.316 99.7186 126.542L92.6465 119.35C91.8761 118.566 90.6981 118.632 89.5219 119.311Z" fill="url(#paint6_linear_364_7442)"/>
<path d="M103.968 127.436C105.056 126.761 105.958 125.826 106.592 124.715L110.112 118.85C110.75 117.738 111.654 116.802 112.744 116.126C113.123 115.858 113.563 115.688 114.023 115.632C114.484 115.576 114.952 115.637 115.383 115.807L116.909 116.693C116.477 116.523 116.009 116.463 115.549 116.519C115.088 116.574 114.648 116.744 114.269 117.012C113.18 117.688 112.275 118.624 111.637 119.737L108.117 125.602C107.483 126.713 106.581 127.648 105.493 128.322C105.103 128.604 104.645 128.778 104.165 128.826C103.686 128.874 103.203 128.794 102.764 128.595L101.239 127.708C101.677 127.908 102.161 127.987 102.64 127.939C103.119 127.892 103.578 127.718 103.968 127.436Z" fill="#50E6FF"/>
<path d="M87.5313 123.808C88.18 122.309 89.2652 121.04 90.6455 120.167C91.0351 119.885 91.4924 119.712 91.9708 119.664C92.4493 119.616 92.932 119.695 93.3699 119.894L94.8952 120.78C94.4574 120.581 93.9747 120.502 93.4962 120.55C93.0177 120.598 92.5604 120.772 92.1708 121.054C90.7905 121.927 89.7053 123.196 89.0567 124.695L79.5037 145.589L77.9784 144.703L87.5313 123.808Z" fill="#50E6FF"/>
<path d="M92.1708 121.054C90.7905 121.927 89.7053 123.196 89.0567 124.695L79.5037 145.589L123.136 120.398L116.909 116.693C116.477 116.523 116.01 116.463 115.549 116.519C115.088 116.574 114.648 116.744 114.27 117.012C113.18 117.688 112.275 118.624 111.637 119.737L108.118 125.602C107.483 126.713 106.581 127.648 105.494 128.322C104.307 129.007 103.127 129.059 102.368 128.285L95.2954 121.093C94.525 120.309 93.347 120.375 92.1708 121.054Z" fill="url(#paint7_linear_364_7442)"/>
</g>
<defs>
<linearGradient id="paint0_linear_364_7442" x1="79.6785" y1="8.27838" x2="79.6785" y2="179.694" gradientUnits="userSpaceOnUse">
<stop stop-color="#00ABDE"/>
<stop offset="1" stop-color="#007ED8"/>
</linearGradient>
<linearGradient id="paint1_linear_364_7442" x1="72.4323" y1="68.8293" x2="104.755" y2="68.8293" gradientUnits="userSpaceOnUse">
<stop stop-color="#A23093"/>
<stop offset="1" stop-color="#692266"/>
</linearGradient>
<linearGradient id="paint2_linear_364_7442" x1="106.835" y1="81.6783" x2="131.383" y2="81.6783" gradientUnits="userSpaceOnUse">
<stop stop-color="#E89BCA"/>
<stop offset="1" stop-color="#E591C8"/>
</linearGradient>
<linearGradient id="paint3_linear_364_7442" x1="92.8405" y1="74.0053" x2="130.05" y2="74.0053" gradientUnits="userSpaceOnUse">
<stop stop-color="#E184C4"/>
<stop offset="1" stop-color="#D76EBC"/>
</linearGradient>
<linearGradient id="paint4_linear_364_7442" x1="2505.66" y1="1917.33" x2="3041.28" y2="1917.33" gradientUnits="userSpaceOnUse">
<stop stop-color="#A23093"/>
<stop offset="1" stop-color="#692266"/>
</linearGradient>
<linearGradient id="paint5_linear_364_7442" x1="100.907" y1="139.779" x2="88.4074" y2="113.497" gradientUnits="userSpaceOnUse">
<stop stop-color="#50E6FF" stop-opacity="0"/>
<stop offset="1" stop-color="#50E6FF"/>
</linearGradient>
<linearGradient id="paint6_linear_364_7442" x1="-13696.5" y1="4231.72" x2="-13426.4" y2="3379.85" gradientUnits="userSpaceOnUse">
<stop stop-color="#50E6FF" stop-opacity="0"/>
<stop offset="1" stop-color="#50E6FF"/>
</linearGradient>
<linearGradient id="paint7_linear_364_7442" x1="-13809.4" y1="4284.17" x2="-13539.3" y2="3432.3" gradientUnits="userSpaceOnUse">
<stop stop-color="#50E6FF" stop-opacity="0"/>
<stop offset="1" stop-color="#50E6FF"/>
</linearGradient>
<clipPath id="clip0_364_7442">
<rect width="159.356" height="188" fill="white"/>
</clipPath>
</defs>
</svg>
