<svg width="103" height="103" viewBox="0 0 103 103" fill="none" xmlns="http://www.w3.org/2000/svg">
<path d="M51.4999 98.3099C25.6499 98.3099 4.68994 77.3599 4.68994 51.4999C4.68994 25.6399 25.6499 4.68994 51.4999 4.68994C77.3499 4.68994 98.3099 25.6499 98.3099 51.4999C98.3099 77.3499 77.3499 98.3099 51.4999 98.3099Z" fill="url(#paint0_linear)"/>
<path fill-rule="evenodd" clip-rule="evenodd" d="M97.4001 51.5001C97.4001 76.8501 76.8501 97.4001 51.5001 97.4001C26.1501 97.4001 5.60011 76.8501 5.60011 51.5001C5.60011 26.1501 26.1501 5.60011 51.5001 5.60011C76.8501 5.60011 97.4001 26.1501 97.4001 51.5001ZM51.5001 1.86011C78.9201 1.86011 101.14 24.0801 101.14 51.5001C101.14 78.9201 78.9101 101.14 51.5001 101.14C24.0801 101.14 1.86011 78.9101 1.86011 51.5001C1.86011 24.0801 24.0801 1.86011 51.5001 1.86011Z" fill="#F2F1F0"/>
<path fill-rule="evenodd" clip-rule="evenodd" d="M94.5899 51.4999C94.5899 75.2999 75.2999 94.5899 51.4999 94.5899C27.6999 94.5899 8.40992 75.2999 8.40992 51.4999C8.40992 27.6999 27.6999 8.40992 51.4999 8.40992C75.2999 8.40992 94.5899 27.6999 94.5899 51.4999ZM51.4999 4.66992C77.3599 4.66992 98.3299 25.6399 98.3299 51.4999C98.3299 77.3599 77.3599 98.3299 51.4999 98.3299C25.6399 98.3299 4.66992 77.3599 4.66992 51.4999C4.66992 25.6399 25.6299 4.66992 51.4999 4.66992Z" fill="url(#paint1_linear)"/>
<path d="M88.39 50.8301H73.71V51.7201H88.4V50.8301H88.39Z" fill="white"/>
<path d="M87.49 48.1802L92.84 51.2702L87.49 54.3602V48.1802Z" fill="white"/>
<path opacity="0.15" d="M79.1101 71.4602V35.5402C79.1101 34.0702 77.9401 32.9102 76.4801 32.9102H27.0901C25.7201 32.9102 24.6201 34.0302 24.6201 35.3802V71.6002C24.6201 72.9702 25.7401 74.0702 27.0901 74.0702L76.4801 74.0902C77.9501 74.0902 79.1101 72.9302 79.1101 71.4602Z" fill="#1F1D20"/>
<path d="M79.1101 69.2302V33.3102C79.1101 31.8402 77.9401 30.6802 76.4801 30.6802H27.0901C25.7201 30.6802 24.6201 31.8002 24.6201 33.1502V69.3702C24.6201 70.7402 25.7401 71.8402 27.0901 71.8402L76.4801 71.8602C77.9501 71.8602 79.1101 70.6902 79.1101 69.2302Z" fill="white"/>
<path d="M45.9199 48.25L39.1899 52.18L32.1199 44.3C31.5999 43.72 32.0099 42.79 32.7899 42.79H45.9199V48.25Z" fill="url(#paint2_linear)"/>
<path d="M49.65 47.0901L45.86 42.8201L32.07 58.2201C31.6 58.7401 31.97 59.5701 32.67 59.5701H38.44L49.65 47.0901Z" fill="url(#paint3_linear)"/>
<path d="M52.85 50.67L49.62 47.04L38.24 59.57H45.58C45.73 59.57 45.88 59.51 45.98 59.39L52.84 51.92C53.16 51.57 53.17 51.03 52.85 50.67Z" fill="url(#paint4_linear)"/>
<path d="M72.05 46.4097C72.05 45.8997 71.64 45.4897 71.13 45.4897H56.93C56.42 45.4897 56.01 45.8997 56.01 46.4097C56.01 46.9197 56.42 47.3297 56.93 47.3297H71.14C71.64 47.3297 72.05 46.9197 72.05 46.4097Z" fill="url(#paint5_linear)"/>
<path d="M59.4299 46.4098C59.4299 47.4198 60.2499 48.2298 61.2499 48.2298C62.2599 48.2398 63.0799 47.4198 63.0799 46.4098C63.0799 45.3998 62.2599 44.5898 61.2599 44.5898C60.2499 44.5898 59.4299 45.3998 59.4299 46.4098Z" fill="url(#paint6_linear)"/>
<path d="M72.05 51.0499C72.05 50.5399 71.64 50.1299 71.13 50.1299H56.93C56.42 50.1299 56.01 50.5399 56.01 51.0499C56.01 51.5599 56.42 51.9699 56.93 51.9699H71.14C71.64 51.9699 72.05 51.5599 72.05 51.0499Z" fill="url(#paint7_linear)"/>
<path d="M64.9299 51.0497C64.9299 52.0597 65.7499 52.8697 66.7499 52.8697C67.7499 52.8697 68.5699 52.0497 68.5699 51.0497C68.5699 50.0397 67.7499 49.2297 66.7499 49.2297C65.7399 49.2297 64.9299 50.0397 64.9299 51.0497Z" fill="url(#paint8_linear)"/>
<path d="M72.05 55.9598C72.05 55.4498 71.64 55.0398 71.13 55.0398H56.93C56.42 55.0398 56.01 55.4498 56.01 55.9598C56.01 56.4698 56.42 56.8798 56.93 56.8798H71.14C71.64 56.8798 72.05 56.4698 72.05 55.9598Z" fill="url(#paint9_linear)"/>
<path d="M59.49 55.9597C59.49 56.9697 60.31 57.7797 61.31 57.7797C62.32 57.7797 63.13 56.9597 63.13 55.9597C63.13 54.9497 62.31 54.1397 61.31 54.1397C60.31 54.1297 59.49 54.9497 59.49 55.9597Z" fill="url(#paint10_linear)"/>
<path d="M15.4502 50.8301L8.42016 50.8201L8.41016 51.7101H15.4502V50.8301Z" fill="white"/>
<path d="M14.55 48.1802L19.9 51.2702L14.55 54.3602V48.1802V48.1802Z" fill="white"/>
<path d="M82.87 51.18C82.87 49.01 81.1 47.25 78.94 47.25C76.75 47.24 75 49 75 51.18C75 53.36 76.77 55.11 78.93 55.11C81.11 55.11 82.87 53.36 82.87 51.18Z" fill="url(#paint11_linear)"/>
<path d="M29.0302 51.18C29.0302 49.01 27.2602 47.25 25.1002 47.25C22.9102 47.24 21.1602 49 21.1602 51.18C21.1602 53.36 22.9302 55.11 25.0902 55.11C27.2602 55.11 29.0302 53.36 29.0302 51.18Z" fill="url(#paint12_linear)"/>
<defs>
<linearGradient id="paint0_linear" x1="49.73" y1="-13.2896" x2="53.712" y2="132.48" gradientUnits="userSpaceOnUse">
<stop stop-color="#00ABDE"/>
<stop offset="1" stop-color="#007ED8"/>
</linearGradient>
<linearGradient id="paint1_linear" x1="2.93262" y1="-20.1246" x2="98.4596" y2="120.757" gradientUnits="userSpaceOnUse">
<stop stop-color="#007ED8"/>
<stop offset="0.7065" stop-color="#002D4C"/>
</linearGradient>
<linearGradient id="paint2_linear" x1="32.7645" y1="38.271" x2="48.0702" y2="52.672" gradientUnits="userSpaceOnUse">
<stop offset="0.4598" stop-color="#1152D4"/>
<stop offset="0.6156" stop-color="#0D3FB3"/>
</linearGradient>
<linearGradient id="paint3_linear" x1="31.859" y1="51.1963" x2="49.6521" y2="51.1963" gradientUnits="userSpaceOnUse">
<stop stop-color="#388CF4"/>
<stop offset="1" stop-color="#2C7CEF"/>
</linearGradient>
<linearGradient id="paint4_linear" x1="38.2394" y1="53.3025" x2="53.0855" y2="53.3025" gradientUnits="userSpaceOnUse">
<stop stop-color="#76C0FD"/>
<stop offset="1" stop-color="#63B2FB"/>
</linearGradient>
<linearGradient id="paint5_linear" x1="64.4461" y1="58.2368" x2="64.0223" y2="46.3076" gradientUnits="userSpaceOnUse">
<stop stop-color="#76C0FD"/>
<stop offset="1" stop-color="#63B2FB"/>
</linearGradient>
<linearGradient id="paint6_linear" x1="56.6784" y1="42.9147" x2="68.7171" y2="52.1009" gradientUnits="userSpaceOnUse">
<stop stop-color="#388CF4"/>
<stop offset="1" stop-color="#2C7CEF"/>
</linearGradient>
<linearGradient id="paint7_linear" x1="64.2815" y1="58.2427" x2="63.8577" y2="46.3136" gradientUnits="userSpaceOnUse">
<stop stop-color="#76C0FD"/>
<stop offset="1" stop-color="#63B2FB"/>
</linearGradient>
<linearGradient id="paint8_linear" x1="69.7382" y1="43.9699" x2="57.8327" y2="72.1274" gradientUnits="userSpaceOnUse">
<stop offset="0.4598" stop-color="#1152D4"/>
<stop offset="0.6156" stop-color="#0D3FB3"/>
</linearGradient>
<linearGradient id="paint9_linear" x1="64.1075" y1="58.249" x2="63.6836" y2="46.3198" gradientUnits="userSpaceOnUse">
<stop stop-color="#76C0FD"/>
<stop offset="1" stop-color="#63B2FB"/>
</linearGradient>
<linearGradient id="paint10_linear" x1="66.8891" y1="42.7653" x2="54.9836" y2="70.9227" gradientUnits="userSpaceOnUse">
<stop offset="0.4598" stop-color="#1152D4"/>
<stop offset="0.6156" stop-color="#0D3FB3"/>
</linearGradient>
<linearGradient id="paint11_linear" x1="88.8056" y1="58.7099" x2="62.8538" y2="38.9073" gradientUnits="userSpaceOnUse">
<stop stop-color="#76C0FD"/>
<stop offset="1" stop-color="#63B2FB"/>
</linearGradient>
<linearGradient id="paint12_linear" x1="34.9625" y1="58.7099" x2="9.01065" y2="38.9073" gradientUnits="userSpaceOnUse">
<stop stop-color="#76C0FD"/>
<stop offset="1" stop-color="#63B2FB"/>
</linearGradient>
</defs>
</svg>
