<svg width="103" height="103" viewBox="0 0 103 103" fill="none" xmlns="http://www.w3.org/2000/svg">
<path d="M51.621 97.9833C25.771 97.9833 4.81104 77.0333 4.81104 51.1733C4.81104 25.3133 25.771 4.36328 51.621 4.36328C77.471 4.36328 98.431 25.3233 98.431 51.1733C98.431 77.0233 77.471 97.9833 51.621 97.9833Z" fill="url(#paint0_linear_104_66643)"/>
<path fill-rule="evenodd" clip-rule="evenodd" d="M97.521 51.1712C97.521 76.5212 76.971 97.0712 51.621 97.0712C26.271 97.0712 5.72096 76.5212 5.72096 51.1712C5.72096 25.8212 26.271 5.27126 51.621 5.27126C76.971 5.27126 97.521 25.8212 97.521 51.1712ZM51.621 1.53125C79.041 1.53125 101.261 23.7512 101.261 51.1712C101.261 78.5912 79.031 100.811 51.621 100.811C24.201 100.811 1.98096 78.5812 1.98096 51.1712C1.98096 23.7512 24.201 1.53125 51.621 1.53125Z" fill="#F2F1F0"/>
<path fill-rule="evenodd" clip-rule="evenodd" d="M94.711 51.1738C94.711 74.9738 75.421 94.2637 51.621 94.2637C27.821 94.2637 8.53102 74.9738 8.53102 51.1738C8.53102 27.3738 27.821 8.08376 51.621 8.08376C75.421 8.08376 94.711 27.3738 94.711 51.1738ZM51.621 4.34375C77.481 4.34375 98.451 25.3138 98.451 51.1738C98.451 77.0338 77.481 98.0038 51.621 98.0038C25.761 98.0038 4.79102 77.0338 4.79102 51.1738C4.79102 25.3138 25.751 4.34375 51.621 4.34375Z" fill="url(#paint1_linear_104_66643)"/>
<path opacity="0.15" d="M49.293 30.1211H18.0102C17.3321 30.1211 16.7896 30.6636 16.7896 31.3418V72.1673C16.7896 72.8455 17.3321 73.388 18.0102 73.388H49.293C49.9712 73.388 50.5137 72.8455 50.5137 72.1673V31.3418C50.504 30.6636 49.9615 30.1211 49.293 30.1211Z" fill="#1F1D20"/>
<path d="M49.293 28.6094H18.0102C17.3321 28.6094 16.7896 29.1519 16.7896 29.8301V70.6556C16.7896 71.3338 17.3321 71.8763 18.0102 71.8763H49.293C49.9712 71.8763 50.5137 71.3338 50.5137 70.6556V29.8301C50.504 29.1519 49.9615 28.6094 49.293 28.6094Z" fill="#F2F2F2"/>
<path opacity="0.15" d="M84.9932 30.1211H53.7104C53.0323 30.1211 52.4897 30.6636 52.4897 31.3418V72.1673C52.4897 72.8455 53.0323 73.388 53.7104 73.388H84.9932C85.6714 73.388 86.2139 72.8455 86.2139 72.1673V31.3418C86.2042 30.6636 85.6617 30.1211 84.9932 30.1211Z" fill="#1F1D20"/>
<path d="M84.9932 28.6094H53.7104C53.0323 28.6094 52.4897 29.1519 52.4897 29.8301V70.6556C52.4897 71.3338 53.0323 71.8763 53.7104 71.8763H84.9932C85.6714 71.8763 86.2139 71.3338 86.2139 70.6556V29.8301C86.2042 29.1519 85.6617 28.6094 84.9932 28.6094Z" fill="#F2F2F2"/>
<path d="M34.5396 40.7704L32.0776 38.2313C31.7435 37.8844 31.1833 37.8998 30.8672 38.2622L20.4639 50.1431C19.9988 50.6725 19.9988 51.4641 20.4614 51.996L30.7695 63.8461C31.1576 64.2908 31.8489 64.2908 32.2369 63.8461L35.3158 60.2945L35.655 42.0092L34.5396 40.7704Z" fill="url(#paint2_linear_104_66643)"/>
<path d="M46.6491 49.6253L36.395 38.4152C35.953 37.9397 35.2025 37.9346 34.7528 38.3997L30.0189 43.293C29.5049 43.8249 29.4972 44.6653 30.0009 45.2076L34.8556 50.4169C35.2128 50.7998 35.2128 51.3909 34.8582 51.7738L29.9804 57.0423C29.4792 57.582 29.4895 58.4198 30.0009 58.9492L34.7502 63.8758C35.2025 64.3435 35.9555 64.3358 36.3976 63.8578L46.6543 52.5628C47.4124 51.7327 47.4099 50.458 46.6491 49.6253Z" fill="url(#paint3_linear_104_66643)"/>
<path d="M47.1375 52.0328L42.5604 57.1085C42.2135 57.4914 41.6147 57.5043 41.2549 57.1342L36.6547 52.4337C35.9094 51.673 35.9068 50.4574 36.6469 49.6916L41.1598 45.0271C41.5196 44.6544 42.121 44.6647 42.4679 45.0476L47.1375 50.1953C47.6078 50.717 47.6078 51.5111 47.1375 52.0328Z" fill="url(#paint4_linear_104_66643)"/>
<path d="M71.0981 63.6913L72.4531 62.2499V58.4062H65.6948V62.2499L67.0498 63.6913C67.1307 63.7872 67.2433 63.8518 67.3677 63.8735H70.7133C70.7866 63.8709 70.8586 63.8533 70.9248 63.822C70.991 63.7906 71.05 63.7461 71.0981 63.6913Z" fill="#CECECE"/>
<path d="M69.0417 35.7114C67.6435 35.6975 66.2582 35.9784 64.9781 36.5356C63.6979 37.0928 62.5522 37.9135 61.617 38.9431C60.6818 39.9727 59.9787 41.1877 59.5542 42.5072C59.1298 43.8267 58.9938 45.2206 59.1553 46.5963C59.607 50.6884 63.5381 52.5937 64.6589 57.7793C64.7 57.9562 64.7998 58.1143 64.9423 58.2284C65.0849 58.3426 65.2619 58.4061 65.4451 58.4089H72.6383C72.8216 58.4061 72.9986 58.3426 73.1411 58.2284C73.2836 58.1143 73.3834 57.9562 73.4246 57.7793C74.5453 52.5937 78.443 50.6884 78.9282 46.5963C79.0897 45.2206 78.9537 43.8267 78.5292 42.5072C78.1048 41.1877 77.4016 39.9727 76.4665 38.9431C75.5313 37.9135 74.3855 37.0928 73.1054 36.5356C71.8252 35.9784 70.44 35.6975 69.0417 35.7114V35.7114Z" fill="url(#paint5_radial_104_66643)"/>
<path d="M73.157 41.1602C72.5387 41.1818 71.9542 41.4448 71.5311 41.8918C71.108 42.3388 70.8806 42.9334 70.8987 43.5459V44.8216H67.369V43.5459C67.3757 43.2349 67.3196 42.9258 67.2041 42.6366C67.0885 42.3475 66.9158 42.084 66.6962 41.8618C66.4765 41.6396 66.2142 41.4631 65.9247 41.3426C65.6352 41.2221 65.3243 41.1601 65.0103 41.1602C64.392 41.1818 63.8075 41.4448 63.3844 41.8918C62.9613 42.3388 62.7339 42.9334 62.752 43.5459C62.7338 44.1599 62.9607 44.7564 63.3834 45.206C63.806 45.6556 64.3906 45.9223 65.0103 45.9482H66.0809V55.8886C66.0809 56.0468 66.1444 56.1985 66.2573 56.3104C66.3702 56.4222 66.5234 56.4851 66.6831 56.4851C66.8429 56.4851 66.996 56.4222 67.109 56.3104C67.2219 56.1985 67.2854 56.0468 67.2854 55.8886V45.9482H70.8987V55.8886C70.8987 56.0468 70.9621 56.1985 71.0751 56.3104C71.188 56.4222 71.3412 56.4851 71.5009 56.4851C71.6606 56.4851 71.8138 56.4222 71.9267 56.3104C72.0397 56.1985 72.1031 56.0468 72.1031 55.8886V45.9482H73.157C73.4646 45.9375 73.7671 45.8668 74.0471 45.7403C74.3271 45.6137 74.5792 45.4338 74.789 45.2106C74.9987 44.9875 75.162 44.7257 75.2695 44.44C75.3769 44.1543 75.4265 43.8505 75.4153 43.5459C75.4334 42.9334 75.206 42.3388 74.7829 41.8918C74.3598 41.4448 73.7753 41.1818 73.157 41.1602V41.1602ZM66.0809 44.8216H64.9434C64.6239 44.7961 64.3269 44.649 64.1147 44.4111C63.9026 44.1731 63.7918 43.863 63.8059 43.5459C63.7918 43.2288 63.9026 42.9186 64.1147 42.6807C64.3269 42.4428 64.6239 42.2956 64.9434 42.2702C65.2629 42.2956 65.5599 42.4428 65.7721 42.6807C65.9842 42.9186 66.0949 43.2288 66.0809 43.5459V44.8216ZM73.2406 44.8216H72.1031V43.4796C72.0836 43.3213 72.0983 43.1607 72.1461 43.0085C72.194 42.8562 72.2739 42.7158 72.3806 42.5964C72.4874 42.477 72.6185 42.3814 72.7653 42.316C72.9121 42.2505 73.0713 42.2166 73.2323 42.2166C73.3933 42.2166 73.5525 42.2505 73.6993 42.316C73.8461 42.3814 73.9772 42.477 74.0839 42.5964C74.1907 42.7158 74.2706 42.8562 74.3184 43.0085C74.3663 43.1607 74.3809 43.3213 74.3614 43.4796C74.3799 43.6411 74.3653 43.8047 74.3185 43.9605C74.2717 44.1163 74.1936 44.2612 74.089 44.3865C73.9844 44.5117 73.8553 44.6148 73.7096 44.6896C73.5638 44.7644 73.4043 44.8092 73.2406 44.8216V44.8216Z" fill="url(#paint6_linear_104_66643)"/>
<path d="M65.6279 61.0544L72.4531 59.7455V59L65.6279 60.3254V61.0544Z" fill="#999999"/>
<path d="M72.4531 61.5766V60.8477L65.6279 62.1896V62.2559L66.1465 62.8192L72.4531 61.5766Z" fill="#999999"/>
<defs>
<linearGradient id="paint0_linear_104_66643" x1="49.8471" y1="-13.6162" x2="53.8291" y2="132.154" gradientUnits="userSpaceOnUse">
<stop stop-color="#00ABDE"/>
<stop offset="1" stop-color="#007ED8"/>
</linearGradient>
<linearGradient id="paint1_linear_104_66643" x1="3.05142" y1="-20.4489" x2="98.5789" y2="120.433" gradientUnits="userSpaceOnUse">
<stop stop-color="#007ED8"/>
<stop offset="0.7065" stop-color="#002D4C"/>
</linearGradient>
<linearGradient id="paint2_linear_104_66643" x1="27.237" y1="38.9549" x2="29.1451" y2="61.3755" gradientUnits="userSpaceOnUse">
<stop stop-color="#A23093"/>
<stop offset="1" stop-color="#692266"/>
</linearGradient>
<linearGradient id="paint3_linear_104_66643" x1="29.6108" y1="51.1396" x2="47.2208" y2="51.1396" gradientUnits="userSpaceOnUse">
<stop stop-color="#E184C4"/>
<stop offset="1" stop-color="#D76EBC"/>
</linearGradient>
<linearGradient id="paint4_linear_104_66643" x1="36.0933" y1="51.0792" x2="47.4904" y2="51.0792" gradientUnits="userSpaceOnUse">
<stop stop-color="#E89BCA"/>
<stop offset="1" stop-color="#E591C8"/>
</linearGradient>
<radialGradient id="paint5_radial_104_66643" cx="0" cy="0" r="1" gradientUnits="userSpaceOnUse" gradientTransform="translate(69.0417 47.0601) scale(10.7396 10.6363)">
<stop stop-color="#B77AF4"/>
<stop offset="0.21" stop-color="#B378F2"/>
<stop offset="0.43" stop-color="#A672ED"/>
<stop offset="0.65" stop-color="#9267E4"/>
<stop offset="0.88" stop-color="#7559D8"/>
<stop offset="1" stop-color="#624FD0"/>
</radialGradient>
<linearGradient id="paint6_linear_104_66643" x1="69.0753" y1="41.359" x2="69.1737" y2="53.9171" gradientUnits="userSpaceOnUse">
<stop stop-color="#F2F2F2"/>
<stop offset="0.23" stop-color="#F1F1F2" stop-opacity="0.99"/>
<stop offset="0.37" stop-color="#EDEDF1" stop-opacity="0.95"/>
<stop offset="0.48" stop-color="#E7E5F0" stop-opacity="0.89"/>
<stop offset="0.58" stop-color="#DEDBEE" stop-opacity="0.81"/>
<stop offset="0.67" stop-color="#D3CEEB" stop-opacity="0.7"/>
<stop offset="0.76" stop-color="#C4BEE8" stop-opacity="0.57"/>
<stop offset="0.84" stop-color="#B4ABE5" stop-opacity="0.41"/>
<stop offset="0.92" stop-color="#A095E1" stop-opacity="0.22"/>
<stop offset="0.99" stop-color="#8B7DDC" stop-opacity="0.02"/>
<stop offset="1" stop-color="#897BDC" stop-opacity="0"/>
</linearGradient>
</defs>
</svg>
