<svg width="100" height="100" viewBox="0 0 100 100" fill="none" xmlns="http://www.w3.org/2000/svg">
<g clip-path="url(#clip0)">
<path d="M49.6401 96.4501C40.382 96.4501 31.3317 93.7047 23.6339 88.5612C15.936 83.4176 9.93624 76.1069 6.3933 67.5535C2.85036 59.0001 1.92337 49.5882 3.72954 40.5079C5.53571 31.4277 9.99394 23.0869 16.5404 16.5404C23.0869 9.99393 31.4277 5.53571 40.5079 3.72954C49.5882 1.92337 59.0001 2.85036 67.5535 6.3933C76.1069 9.93624 83.4176 15.936 88.5612 23.6339C93.7047 31.3317 96.4501 40.382 96.4501 49.6401C96.4505 55.7874 95.24 61.8746 92.8878 67.554C90.5355 73.2335 87.0875 78.3939 82.7407 82.7407C78.3939 87.0875 73.2335 90.5355 67.554 92.8878C61.8746 95.24 55.7874 96.4505 49.6401 96.4501V96.4501Z" fill="url(#paint0_linear)"/>
<path fill-rule="evenodd" clip-rule="evenodd" d="M95.54 49.64C95.54 58.7182 92.848 67.5925 87.8045 75.1407C82.7609 82.6889 75.5923 88.572 67.2052 92.0461C58.818 95.5201 49.5891 96.4291 40.6854 94.658C31.7816 92.887 23.603 88.5154 17.1838 82.0962C10.7646 75.677 6.39302 67.4984 4.62196 58.5946C2.85089 49.6909 3.75987 40.462 7.23393 32.0748C10.708 23.6877 16.5911 16.5191 24.1393 11.4755C31.6875 6.43199 40.5618 3.74 49.64 3.74C55.6677 3.73998 61.6363 4.9272 67.2052 7.23388C72.774 9.54057 77.834 12.9215 82.0963 17.1837C86.3585 21.446 89.7394 26.5059 92.0461 32.0748C94.3528 37.6437 95.54 43.6123 95.54 49.64V49.64ZM49.64 3.62732e-07C59.4579 3.62732e-07 69.0553 2.91134 77.2185 8.36585C85.3818 13.8204 91.7442 21.5731 95.5014 30.6436C99.2585 39.7141 100.242 49.6951 98.3262 59.3243C96.4108 68.9535 91.6831 77.7985 84.7408 84.7408C77.7985 91.6831 68.9535 96.4108 59.3243 98.3262C49.6951 100.242 39.7141 99.2585 30.6436 95.5014C21.5731 91.7442 13.8204 85.3818 8.36585 77.2185C2.91134 69.0553 3.62732e-07 59.4579 3.62732e-07 49.64C-0.000787738 43.121 1.28265 36.6656 3.77702 30.6427C6.27138 24.6197 9.9278 19.1471 14.5375 14.5375C19.1471 9.9278 24.6197 6.27138 30.6427 3.77702C36.6656 1.28265 43.121 -0.000787738 49.64 3.62732e-07V3.62732e-07Z" fill="#F2F1F0"/>
<path fill-rule="evenodd" clip-rule="evenodd" d="M92.7296 49.6406C92.7296 58.163 90.2024 66.494 85.4676 73.5801C80.7328 80.6662 74.0031 86.1892 66.1294 89.4505C58.2557 92.7119 49.5918 93.5653 41.2331 91.9026C32.8745 90.24 25.1966 86.1361 19.1703 80.1098C13.1441 74.0836 9.04017 66.4057 7.37753 58.047C5.7149 49.6884 6.56822 41.0244 9.8296 33.1507C13.091 25.2771 18.6139 18.5473 25.7 13.8126C32.7862 9.07776 41.1172 6.55058 49.6396 6.55058C55.2983 6.55023 60.9017 7.66455 66.1298 9.82991C71.3579 11.9953 76.1082 15.1692 80.1096 19.1706C84.1109 23.1719 87.2849 27.9223 89.4502 33.1503C91.6156 38.3784 92.7299 43.9818 92.7296 49.6406V49.6406ZM49.6396 2.81058C58.9017 2.81058 67.9558 5.55711 75.6569 10.7029C83.3581 15.8486 89.3604 23.1624 92.9049 31.7195C96.4493 40.2766 97.3767 49.6925 95.5697 58.7767C93.7628 67.8608 89.3027 76.2051 82.7534 82.7544C76.2041 89.3037 67.8598 93.7638 58.7757 95.5708C49.6915 97.3777 40.2756 96.4503 31.7185 92.9059C23.1614 89.3614 15.8476 83.3591 10.7018 75.6579C5.5561 67.9568 2.80957 58.9027 2.80957 49.6406C2.81076 37.2209 7.745 25.3101 16.5271 16.5281C25.3091 7.74599 37.2198 2.81174 49.6396 2.81055V2.81058Z" fill="#0078D4"/>
<path fill-rule="evenodd" clip-rule="evenodd" d="M92.7296 49.6405C92.7296 58.1629 90.2024 66.494 85.4676 73.5801C80.7328 80.6662 74.0031 86.1891 66.1294 89.4505C58.2557 92.7119 49.5918 93.5652 41.2331 91.9026C32.8745 90.24 25.1966 86.136 19.1703 80.1098C13.1441 74.0835 9.04017 66.4056 7.37753 58.047C5.7149 49.6883 6.56822 41.0244 9.8296 33.1507C13.091 25.277 18.6139 18.5473 25.7001 13.8125C32.7862 9.07773 41.1172 6.55055 49.6396 6.55055C55.2983 6.5502 60.9017 7.66452 66.1298 9.82988C71.3579 11.9952 76.1082 15.1692 80.1096 19.1705C84.1109 23.1719 87.2849 27.9222 89.4502 33.1503C91.6156 38.3784 92.7299 43.9818 92.7296 49.6405V49.6405ZM49.6396 2.81055C58.9017 2.81055 67.9558 5.55708 75.6569 10.7028C83.3581 15.8486 89.3604 23.1624 92.9048 31.7195C96.4493 40.2765 97.3767 49.6925 95.5697 58.7766C93.7628 67.8608 89.3027 76.2051 82.7534 82.7544C76.2041 89.3036 67.8598 93.7638 58.7757 95.5707C49.6915 97.3777 40.2756 96.4503 31.7185 92.9058C23.1614 89.3614 15.8476 83.3591 10.7018 75.6579C5.5561 67.9568 2.80957 58.9026 2.80957 49.6405C2.81076 37.2208 7.74501 25.3101 16.5271 16.5281C25.3091 7.74599 37.2198 2.81174 49.6396 2.81055V2.81055Z" fill="#0078D4"/>
<path opacity="0.2" d="M23.6381 75.7964H75.6419C75.9152 75.7956 76.177 75.6867 76.3702 75.4935C76.5634 75.3003 76.6723 75.0384 76.6731 74.7652V34.1641H22.6069V74.7652C22.6077 75.0384 22.7166 75.3003 22.9098 75.4935C23.103 75.6867 23.3649 75.7956 23.6381 75.7964V75.7964Z" fill="#003067"/>
<path d="M23.6381 73.6733H75.6419C75.9152 73.6725 76.177 73.5636 76.3702 73.3704C76.5634 73.1772 76.6723 72.9154 76.6731 72.6422V32.041H22.6069V72.6422C22.6077 72.9154 22.7166 73.1772 22.9098 73.3704C23.103 73.5636 23.3649 73.6725 23.6381 73.6733V73.6733Z" fill="#F2F2F2"/>
<path d="M22.6069 36.5353H76.6731V31.689C76.6734 31.5851 76.6531 31.4822 76.6135 31.3861C76.5738 31.2901 76.5156 31.2028 76.4422 31.1294C76.3687 31.0559 76.2814 30.9977 76.1854 30.9581C76.0894 30.9184 75.9865 30.8982 75.8826 30.8984H23.3975C23.2936 30.8982 23.1907 30.9184 23.0946 30.9581C22.9986 30.9977 22.9113 31.0559 22.8379 31.1294C22.7644 31.2028 22.7062 31.2901 22.6666 31.3861C22.6269 31.4822 22.6067 31.5851 22.607 31.689L22.6069 36.5353Z" fill="#092E4C"/>
<path d="M26.7663 35.2021C27.0373 35.2012 27.3021 35.12 27.527 34.9687C27.7519 34.8174 27.9269 34.6028 28.0298 34.352C28.1328 34.1013 28.1591 33.8256 28.1054 33.5599C28.0516 33.2942 27.9203 33.0504 27.7281 32.8593C27.5358 32.6683 27.2912 32.5385 27.0251 32.4864C26.7591 32.4344 26.4836 32.4624 26.2335 32.5669C25.9834 32.6714 25.7699 32.8478 25.62 33.0736C25.4701 33.2995 25.3906 33.5647 25.3914 33.8358C25.3899 34.0164 25.4246 34.1954 25.4932 34.3624C25.5619 34.5294 25.6633 34.681 25.7913 34.8082C25.9194 34.9355 26.0716 35.0359 26.239 35.1035C26.4065 35.1712 26.5857 35.2047 26.7663 35.2021V35.2021Z" fill="#50E6FF"/>
<path d="M71.8806 40.0234H27.3891C26.8029 40.0234 26.3276 40.4987 26.3276 41.0849V68.7427C26.3276 69.3289 26.8029 69.8041 27.3891 69.8041H71.8806C72.4668 69.8041 72.942 69.3289 72.942 68.7427V41.0849C72.942 40.4987 72.4668 40.0234 71.8806 40.0234Z" fill="#E8E8E8"/>
<path d="M61.3375 56.1559C61.3428 56.9369 61.1873 57.7107 60.8806 58.4291C60.5864 59.122 60.1596 59.7506 59.624 60.2797C59.0855 60.8089 58.4543 61.2348 57.762 61.5362C57.0456 61.8502 56.271 62.0098 55.4888 62.0046C54.9875 62.0038 54.4884 61.9385 54.0038 61.8104C53.9404 62.4405 53.7582 63.0529 53.4669 63.6153C53.181 64.1667 52.7979 64.6621 52.336 65.0774C51.8786 65.4919 51.3478 65.8174 50.771 66.037C50.1753 66.2611 49.5454 66.3809 48.909 66.3911C48.226 66.3962 47.5493 66.2601 46.9213 65.9913C45.9955 65.5971 45.2055 64.9401 44.6492 64.1016C44.0928 63.263 43.7946 62.2798 43.7913 61.2735C43.7913 61.1516 43.7951 61.0298 43.8027 60.9079C43.8105 60.7853 43.8257 60.6632 43.8484 60.5424H38.9136C38.6564 60.5413 38.4101 60.4387 38.2282 60.2568C38.0463 60.075 37.9437 59.8286 37.9426 59.5714V49.8159C37.9437 49.5587 38.0463 49.3124 38.2282 49.1305C38.4101 48.9487 38.6564 48.846 38.9136 48.8449H42.3635C42.448 48.0372 42.6885 47.2535 43.0717 46.5374C43.4453 45.8384 43.936 45.2086 44.5225 44.6754C45.1065 44.1438 45.7844 43.7254 46.5215 43.4417C47.2837 43.1494 48.0927 42.9984 48.909 42.9962C49.7881 42.9907 50.659 43.1657 51.4678 43.5103C52.2504 43.8414 52.9606 44.3226 53.5583 44.9268C54.1532 45.5297 54.6297 46.2387 54.9633 47.0172C55.3095 47.8259 55.4883 48.6964 55.4888 49.576C55.4888 49.6979 55.485 49.8197 55.4774 49.9416C55.4698 50.0634 55.4584 50.1853 55.4431 50.3071C56.2278 50.3026 57.0052 50.4581 57.7278 50.7641C59.1361 51.3505 60.2622 52.4602 60.8692 53.8598C61.1847 54.5838 61.3443 55.3661 61.3375 56.1559V56.1559ZM48.909 44.4584C48.292 44.4556 47.6799 44.568 47.1041 44.7897C46.5421 45.0051 46.0207 45.3141 45.5619 45.7036C45.104 46.0932 44.7242 46.5661 44.4425 47.0972C44.1511 47.6438 43.9505 48.234 43.8485 48.845H48.6691C48.9263 48.846 49.1726 48.9487 49.3545 49.1305C49.5364 49.3124 49.639 49.5588 49.6401 49.816V54.6366L49.8457 54.6023C49.9818 54.1173 50.1815 53.6526 50.4397 53.2201C50.6962 52.7893 51.0029 52.3905 51.3536 52.0321C51.7066 51.6721 52.1061 51.3609 52.5416 51.1068C52.9787 50.8498 53.4471 50.6502 53.9352 50.5128C53.9943 50.204 54.0249 49.8905 54.0266 49.5761C54.0317 48.8931 53.8956 48.2164 53.6268 47.5884C53.2326 46.6626 52.5756 45.8726 51.737 45.3163C50.8985 44.76 49.9153 44.4617 48.909 44.4584V44.4584ZM43.9056 58.4976C44.2509 58.4981 44.5953 58.4637 44.9337 58.3948C45.2583 58.3305 45.5681 58.2066 45.8475 58.0293C46.1119 57.8643 46.3316 57.6367 46.4872 57.3667C46.6526 57.0493 46.7388 56.6966 46.7385 56.3386C46.7517 55.9793 46.6647 55.6233 46.4872 55.3105C46.3215 55.0383 46.0995 54.8046 45.8361 54.6251C45.5758 54.4457 45.2961 54.2962 45.0022 54.1796C44.7128 54.0654 44.4349 53.955 44.1683 53.8484C43.9429 53.7633 43.7282 53.6521 43.5286 53.5171C43.4548 53.4693 43.3929 53.4054 43.3474 53.3302C43.3018 53.255 43.274 53.1705 43.2659 53.083C43.2635 53.0245 43.2746 52.9662 43.2984 52.9128C43.3221 52.8593 43.3579 52.812 43.4029 52.7746C43.4999 52.6951 43.6075 52.6297 43.7228 52.5804C43.8494 52.526 43.9849 52.495 44.1226 52.489C44.2673 52.4814 44.3816 52.4738 44.4653 52.4661C44.8138 52.4602 45.1609 52.5103 45.4934 52.6146C45.818 52.7269 46.1285 52.8764 46.4187 53.0602V51.3238C46.2359 51.2705 46.0684 51.2248 45.9161 51.1867C45.7616 51.1482 45.6053 51.1177 45.4477 51.0953C45.2878 51.0725 45.1317 51.0535 44.9794 51.0382C44.8271 51.023 44.6443 51.0154 44.431 51.0154C44.0852 51.0166 43.7406 51.0549 43.4029 51.1296C43.0692 51.1994 42.749 51.3228 42.4548 51.4952C42.1754 51.6605 41.9372 51.887 41.758 52.1577C41.5679 52.4577 41.4724 52.808 41.4838 53.163C41.4712 53.5042 41.5586 53.8417 41.7351 54.134C41.9058 54.3961 42.1272 54.6213 42.3863 54.7965C42.6481 54.9767 42.9275 55.1298 43.2202 55.2534C43.5096 55.3753 43.7875 55.4933 44.0541 55.6076C44.2808 55.6995 44.4956 55.8184 44.6938 55.9617C44.7673 56.0124 44.8289 56.0786 44.8742 56.1555C44.9196 56.2324 44.9477 56.3183 44.9565 56.4072C44.9634 56.5318 44.9226 56.6544 44.8423 56.7499C44.7573 56.8393 44.6512 56.9061 44.5339 56.9441C44.4125 56.9881 44.2856 57.015 44.1569 57.0241L43.7913 57.0469C43.3763 57.055 42.964 56.9772 42.5804 56.8185C42.2011 56.65 41.8378 56.4474 41.4952 56.213V58.0408C42.2627 58.3436 43.0805 58.4986 43.9056 58.4976H43.9056ZM48.909 64.9289C49.3958 64.9322 49.878 64.8349 50.3255 64.6434C50.7561 64.4604 51.1477 64.1968 51.4792 63.8666C51.8123 63.5308 52.0797 63.1356 52.2674 62.7014C52.4655 62.2516 52.5667 61.765 52.5644 61.2735C52.567 60.4321 52.2761 59.6161 51.7419 58.966C51.4777 58.6491 51.1655 58.3754 50.8167 58.1549C50.4575 57.926 50.0583 57.7671 49.6401 57.6866V59.5714C49.639 59.8286 49.5363 60.075 49.3545 60.2568C49.1726 60.4387 48.9263 60.5414 48.6691 60.5424H45.3221C45.2766 60.7835 45.2537 61.0282 45.2535 61.2735C45.2503 61.7603 45.3475 62.2425 45.5391 62.69C45.7237 63.1231 45.9871 63.5182 46.3159 63.8552C46.6477 64.1932 47.0439 64.4612 47.4811 64.6434C47.9328 64.8343 48.4186 64.9314 48.909 64.9289ZM55.4888 60.5424C56.0736 60.5458 56.6529 60.4292 57.1909 60.1997C57.7112 59.9798 58.1844 59.6618 58.5845 59.263C58.9843 58.8614 59.3059 58.3888 59.5326 57.8694C59.77 57.3299 59.887 56.7451 59.8753 56.1559C59.8787 55.571 59.7621 54.9917 59.5326 54.4538C59.3127 53.9334 58.9947 53.4603 58.5959 53.0602C58.1915 52.6584 57.7148 52.3367 57.1909 52.112C56.6547 51.8769 56.0742 51.76 55.4888 51.7693C54.9076 51.7652 54.3319 51.8819 53.7981 52.112C52.7488 52.5674 51.9117 53.4045 51.4564 54.4538C51.2253 54.9916 51.1049 55.5705 51.1022 56.1559V56.4072C51.1023 56.4915 51.1099 56.5756 51.1251 56.6585C51.4785 56.8308 51.8117 57.0415 52.1189 57.2868C52.4229 57.5299 52.6954 57.81 52.93 58.1207C53.1674 58.4351 53.374 58.7718 53.5468 59.1259C53.721 59.4809 53.8478 59.8573 53.9238 60.2454C54.4224 60.4412 54.9532 60.5419 55.4888 60.5424H55.4888Z" fill="white"/>
<path opacity="0.2" d="M41.0357 30.8984L42.1451 32.1324L36.1646 38.8155C35.7836 39.2337 35.5324 39.7535 35.4414 40.3119C35.3503 40.8702 35.4235 41.443 35.6519 41.9605C35.8833 42.483 36.2615 42.9271 36.7405 43.2387C37.2195 43.5503 37.7787 43.7161 38.3501 43.7159H53.232C53.6061 43.717 53.976 43.6371 54.3162 43.4814C54.6565 43.3258 54.9589 43.0983 55.2027 42.8145L63.0621 34.254C63.4821 33.816 63.761 33.262 63.8627 32.6638C63.9643 32.0655 63.884 31.4505 63.6321 30.8984H41.0357Z" fill="#767676"/>
<path opacity="0.2" d="M73.8944 73.7035V68.201C73.8928 66.907 73.378 65.6664 72.4629 64.7514C71.5479 63.8365 70.3073 63.3218 69.0132 63.3203H30.267C28.9729 63.3218 27.7323 63.8365 26.8173 64.7514C25.9022 65.6664 25.3874 66.907 25.3857 68.201V73.7035H73.8944Z" fill="#767676"/>
<path d="M71.6343 75.5963V68.2009C71.6343 66.7535 70.4609 65.5801 69.0135 65.5801H30.2665C28.8191 65.5801 27.6457 66.7535 27.6457 68.2009V75.5963C27.6457 77.0438 28.8191 78.2172 30.2665 78.2172H69.0135C70.4609 78.2172 71.6343 77.0438 71.6343 75.5963Z" fill="#E8E8E8"/>
<path d="M69.0134 66.8457H30.2668C29.5179 66.8457 28.9109 67.4528 28.9109 68.2016V75.5969C28.9109 76.3458 29.5179 76.9528 30.2668 76.9528H69.0134C69.7623 76.9528 70.3693 76.3458 70.3693 75.5969V68.2016C70.3693 67.4528 69.7623 66.8457 69.0134 66.8457Z" fill="white"/>
<path d="M34.4984 67.8887C35.2917 67.8887 36.0673 68.1239 36.7269 68.5647C37.3866 69.0054 37.9008 69.6319 38.2044 70.3649C38.508 71.0979 38.5874 71.9044 38.4326 72.6825C38.2779 73.4607 37.8958 74.1754 37.3348 74.7364C36.7739 75.2974 36.0591 75.6795 35.281 75.8343C34.5029 75.989 33.6963 75.9096 32.9633 75.606C32.2304 75.3024 31.6039 74.7883 31.1631 74.1286C30.7223 73.4689 30.4871 72.6934 30.4871 71.9C30.4871 71.3732 30.5908 70.8516 30.7924 70.365C30.994 69.8783 31.2894 69.4361 31.6619 69.0636C32.0344 68.6911 32.4766 68.3956 32.9633 68.194C33.45 67.9924 33.9716 67.8887 34.4984 67.8887ZM35.6771 73.7048H33.3196C33.5812 74.673 34.0357 75.3098 34.4984 75.3098C34.961 75.3098 35.4155 74.6729 35.6771 73.7048ZM32.6968 73.705L31.6049 73.7049C31.9922 74.3245 32.5677 74.8038 33.247 75.0728C33.0179 74.6972 32.8462 74.2896 32.7375 73.8633L32.6968 73.705ZM37.3917 73.7049L36.2998 73.705C36.1916 74.1877 36.0057 74.6497 35.7493 75.0728C36.3857 74.821 36.932 74.3841 37.3175 73.8186L37.3917 73.7049ZM32.5305 71.0976H31.1838L31.1819 71.1045C31.0238 71.7684 31.0674 72.4643 31.307 73.1033L32.5797 73.1032C32.5209 72.7048 32.4917 72.3027 32.4924 71.9C32.4924 71.6257 32.5054 71.3573 32.5305 71.0976ZM35.8608 71.0976H33.1359C33.1078 71.3641 33.0938 71.632 33.0939 71.9C33.0933 72.303 33.1254 72.7054 33.1901 73.1032H35.8066C35.8712 72.7054 35.9034 72.303 35.9027 71.9C35.9028 71.632 35.8889 71.3642 35.8608 71.0976V71.0976ZM37.8131 71.0973L36.4662 71.0976C36.4913 71.3573 36.5043 71.6257 36.5043 71.9C36.505 72.3027 36.4758 72.7048 36.417 73.1032L37.6897 73.1033C37.9302 72.462 37.9732 71.7633 37.8131 71.0973V71.0973ZM33.2474 68.7272L33.2383 68.7307C32.4173 69.0584 31.755 69.691 31.3901 70.4962L32.6126 70.4963C32.7094 69.8715 32.9249 69.271 33.2474 68.7272H33.2474ZM34.4984 68.4903L34.452 68.4924C33.9444 68.5388 33.4541 69.3418 33.2265 70.4961H35.7703C35.5432 69.345 35.055 68.5433 34.549 68.4928L34.4984 68.4903ZM35.7497 68.7272L35.7925 68.797C36.0894 69.3237 36.2898 69.8992 36.3841 70.4963L37.6066 70.4962C37.2584 69.7279 36.6387 69.1153 35.8665 68.7759L35.7497 68.7272Z" fill="#0078D4"/>
<path d="M41.0327 71.0972C41.443 71.0972 41.7757 70.7646 41.7757 70.3543C41.7757 69.9439 41.443 69.6113 41.0327 69.6113C40.6224 69.6113 40.2898 69.9439 40.2898 70.3543C40.2898 70.7646 40.6224 71.0972 41.0327 71.0972Z" fill="#0078D4"/>
<path d="M41.0327 74.4468C41.443 74.4468 41.7757 74.1142 41.7757 73.7039C41.7757 73.2936 41.443 72.9609 41.0327 72.9609C40.6224 72.9609 40.2898 73.2936 40.2898 73.7039C40.2898 74.1142 40.6224 74.4468 41.0327 74.4468Z" fill="#0078D4"/>
<path d="M49.6401 72.8487H45.0755C44.9509 72.8487 44.8275 72.8241 44.7124 72.7765C44.5973 72.7288 44.4927 72.6589 44.4046 72.5708C44.3165 72.4827 44.2466 72.3781 44.1989 72.263C44.1512 72.1479 44.1267 72.0245 44.1267 71.8999C44.1267 71.7753 44.1512 71.652 44.1989 71.5368C44.2466 71.4217 44.3165 71.3172 44.4046 71.2291C44.4927 71.141 44.5973 71.0711 44.7124 71.0234C44.8275 70.9757 44.9509 70.9512 45.0755 70.9512H49.6401C49.7647 70.9512 49.8881 70.9757 50.0032 71.0234C50.1183 71.0711 50.2229 71.141 50.311 71.2291C50.3991 71.3172 50.4689 71.4217 50.5166 71.5368C50.5643 71.652 50.5888 71.7753 50.5888 71.8999C50.5888 72.0245 50.5643 72.1479 50.5166 72.263C50.4689 72.3781 50.3991 72.4827 50.311 72.5708C50.2229 72.6589 50.1183 72.7288 50.0032 72.7765C49.8881 72.8241 49.7647 72.8487 49.6401 72.8487V72.8487Z" fill="#0078D4"/>
<path d="M67.2928 72.8487H53.3054C53.0538 72.8487 52.8125 72.7487 52.6346 72.5708C52.4566 72.3929 52.3567 72.1515 52.3567 71.8999C52.3567 71.6483 52.4566 71.407 52.6346 71.2291C52.8125 71.0511 53.0538 70.9512 53.3054 70.9512H67.2928C67.4174 70.9512 67.5407 70.9757 67.6558 71.0234C67.7709 71.0711 67.8755 71.141 67.9636 71.2291C68.0517 71.3172 68.1216 71.4217 68.1693 71.5368C68.217 71.652 68.2415 71.7753 68.2415 71.8999C68.2415 72.0245 68.217 72.1479 68.1693 72.263C68.1216 72.3781 68.0517 72.4827 67.9636 72.5708C67.8755 72.6589 67.7709 72.7288 67.6558 72.7765C67.5407 72.8241 67.4174 72.8487 67.2928 72.8487V72.8487Z" fill="#0078D4"/>
<path d="M53.568 28.668L45.7999 33.2052L37.6257 24.1131C37.4917 23.9623 37.4038 23.7761 37.3728 23.5767C37.3418 23.3773 37.3689 23.1732 37.4509 22.9888C37.5328 22.8044 37.6661 22.6475 37.8349 22.5369C38.0037 22.4264 38.2008 22.3667 38.4026 22.3652H53.568V28.668Z" fill="url(#paint1_linear)"/>
<path d="M61.6354 31.4225L57.9102 27.2383L44.7576 41.7151H53.2318C53.3195 41.7175 53.4065 41.6997 53.4861 41.6629C53.5658 41.6262 53.6358 41.5715 53.6908 41.5033L61.6177 32.8701C61.8031 32.6758 61.908 32.4184 61.9113 32.1498C61.9146 31.8812 61.816 31.6213 61.6354 31.4225V31.4225Z" fill="url(#paint2_linear)"/>
<path d="M53.5679 22.3652L37.6433 40.1612C37.5225 40.296 37.4436 40.4631 37.4162 40.642C37.3889 40.8209 37.4142 41.0038 37.4891 41.1686C37.564 41.3333 37.6852 41.4727 37.838 41.5697C37.9908 41.6667 38.1685 41.7171 38.3495 41.7147H45.0052L57.9462 27.2909L53.5679 22.3652Z" fill="url(#paint3_linear)"/>
</g>
<defs>
<linearGradient id="paint0_linear" x1="47.8698" y1="-15.153" x2="51.8525" y2="130.615" gradientUnits="userSpaceOnUse">
<stop stop-color="#00ABDE"/>
<stop offset="1" stop-color="#007ED8"/>
</linearGradient>
<linearGradient id="paint1_linear" x1="38.3774" y1="17.1472" x2="56.0514" y2="33.7762" gradientUnits="userSpaceOnUse">
<stop offset="0.4598" stop-color="#1152D4"/>
<stop offset="0.6156" stop-color="#0D3FB3"/>
</linearGradient>
<linearGradient id="paint2_linear" x1="44.7576" y1="34.4767" x2="61.9113" y2="34.4767" gradientUnits="userSpaceOnUse">
<stop stop-color="#76C0FD"/>
<stop offset="1" stop-color="#63B2FB"/>
</linearGradient>
<linearGradient id="paint3_linear" x1="37.4009" y1="32.04" x2="57.9462" y2="32.04" gradientUnits="userSpaceOnUse">
<stop stop-color="#388CF4"/>
<stop offset="1" stop-color="#2C7CEF"/>
</linearGradient>
<clipPath id="clip0">
<rect width="99.2799" height="99.28" fill="white"/>
</clipPath>
</defs>
</svg>
