<svg width="100" height="100" viewBox="0 0 100 100" fill="none" xmlns="http://www.w3.org/2000/svg">
<g clip-path="url(#clip0)">
<path d="M49.6401 96.4501C40.382 96.4501 31.3317 93.7047 23.6339 88.5612C15.936 83.4176 9.93624 76.1069 6.3933 67.5535C2.85036 59.0001 1.92337 49.5882 3.72954 40.5079C5.53571 31.4277 9.99394 23.0869 16.5404 16.5404C23.0869 9.99393 31.4277 5.53571 40.5079 3.72954C49.5882 1.92337 59.0001 2.85036 67.5535 6.3933C76.1069 9.93624 83.4176 15.936 88.5612 23.6339C93.7047 31.3317 96.4501 40.382 96.4501 49.6401C96.4505 55.7874 95.24 61.8746 92.8878 67.554C90.5355 73.2335 87.0875 78.3939 82.7407 82.7407C78.3939 87.0875 73.2335 90.5355 67.554 92.8878C61.8746 95.24 55.7874 96.4505 49.6401 96.4501V96.4501Z" fill="url(#paint0_linear)"/>
<path fill-rule="evenodd" clip-rule="evenodd" d="M95.54 49.64C95.54 58.7182 92.848 67.5925 87.8045 75.1407C82.7609 82.6889 75.5923 88.572 67.2052 92.0461C58.818 95.5201 49.5891 96.4291 40.6854 94.658C31.7816 92.887 23.603 88.5154 17.1838 82.0962C10.7646 75.677 6.39302 67.4984 4.62196 58.5946C2.85089 49.6909 3.75987 40.462 7.23393 32.0748C10.708 23.6877 16.5911 16.5191 24.1393 11.4755C31.6875 6.43199 40.5618 3.74 49.64 3.74C55.6677 3.73998 61.6363 4.9272 67.2052 7.23388C72.774 9.54057 77.834 12.9215 82.0963 17.1837C86.3585 21.446 89.7394 26.5059 92.0461 32.0748C94.3528 37.6437 95.54 43.6123 95.54 49.64V49.64ZM49.64 3.62732e-07C59.4579 3.62732e-07 69.0553 2.91134 77.2185 8.36585C85.3818 13.8204 91.7442 21.5731 95.5014 30.6436C99.2585 39.7141 100.242 49.6951 98.3262 59.3243C96.4108 68.9535 91.6831 77.7985 84.7408 84.7408C77.7985 91.6831 68.9535 96.4108 59.3243 98.3262C49.6951 100.242 39.7141 99.2585 30.6436 95.5014C21.5731 91.7442 13.8204 85.3818 8.36585 77.2185C2.91134 69.0553 3.62732e-07 59.4579 3.62732e-07 49.64C-0.000787738 43.121 1.28265 36.6656 3.77702 30.6427C6.27138 24.6197 9.9278 19.1471 14.5375 14.5375C19.1471 9.9278 24.6197 6.27138 30.6427 3.77702C36.6656 1.28265 43.121 -0.000787738 49.64 3.62732e-07V3.62732e-07Z" fill="#F2F1F0"/>
<path fill-rule="evenodd" clip-rule="evenodd" d="M92.7296 49.6406C92.7296 58.163 90.2024 66.494 85.4676 73.5801C80.7328 80.6662 74.0031 86.1892 66.1294 89.4505C58.2557 92.7119 49.5918 93.5653 41.2331 91.9026C32.8745 90.24 25.1966 86.1361 19.1703 80.1098C13.1441 74.0836 9.04017 66.4057 7.37753 58.047C5.7149 49.6884 6.56822 41.0244 9.8296 33.1507C13.091 25.2771 18.6139 18.5473 25.7 13.8126C32.7862 9.07776 41.1172 6.55058 49.6396 6.55058C55.2983 6.55023 60.9017 7.66455 66.1298 9.82991C71.3579 11.9953 76.1082 15.1692 80.1096 19.1706C84.1109 23.1719 87.2849 27.9223 89.4502 33.1503C91.6156 38.3784 92.7299 43.9818 92.7296 49.6406V49.6406ZM49.6396 2.81058C58.9017 2.81058 67.9558 5.55711 75.6569 10.7029C83.3581 15.8486 89.3604 23.1624 92.9049 31.7195C96.4493 40.2766 97.3767 49.6925 95.5697 58.7767C93.7628 67.8608 89.3027 76.2051 82.7534 82.7544C76.2041 89.3037 67.8598 93.7638 58.7757 95.5708C49.6915 97.3777 40.2756 96.4503 31.7185 92.9059C23.1614 89.3614 15.8476 83.3591 10.7018 75.6579C5.5561 67.9568 2.80957 58.9027 2.80957 49.6406C2.81076 37.2209 7.745 25.3101 16.5271 16.5281C25.3091 7.74599 37.2198 2.81174 49.6396 2.81055V2.81058Z" fill="#0078D4"/>
<path fill-rule="evenodd" clip-rule="evenodd" d="M92.7296 49.6405C92.7296 58.1629 90.2024 66.494 85.4676 73.5801C80.7328 80.6662 74.0031 86.1891 66.1294 89.4505C58.2557 92.7119 49.5918 93.5652 41.2331 91.9026C32.8745 90.24 25.1966 86.136 19.1703 80.1098C13.1441 74.0835 9.04017 66.4056 7.37753 58.047C5.7149 49.6883 6.56822 41.0244 9.8296 33.1507C13.091 25.277 18.6139 18.5473 25.7001 13.8125C32.7862 9.07773 41.1172 6.55055 49.6396 6.55055C55.2983 6.5502 60.9017 7.66452 66.1298 9.82988C71.3579 11.9952 76.1082 15.1692 80.1096 19.1705C84.1109 23.1719 87.2849 27.9222 89.4502 33.1503C91.6156 38.3784 92.7299 43.9818 92.7296 49.6405V49.6405ZM49.6396 2.81055C58.9017 2.81055 67.9558 5.55708 75.6569 10.7028C83.3581 15.8486 89.3604 23.1624 92.9048 31.7195C96.4493 40.2765 97.3767 49.6925 95.5697 58.7766C93.7628 67.8608 89.3027 76.2051 82.7534 82.7544C76.2041 89.3036 67.8598 93.7638 58.7757 95.5707C49.6915 97.3777 40.2756 96.4503 31.7185 92.9058C23.1614 89.3614 15.8476 83.3591 10.7018 75.6579C5.5561 67.9568 2.80957 58.9026 2.80957 49.6405C2.81076 37.2208 7.74501 25.3101 16.5271 16.5281C25.3091 7.74599 37.2198 2.81174 49.6396 2.81055V2.81055Z" fill="#0078D4"/>
<path fill-rule="evenodd" clip-rule="evenodd" d="M26.9094 31.8867C25.8142 31.8899 24.7648 32.3264 23.9904 33.1007C23.216 33.8751 22.7796 34.9245 22.7764 36.0196V64.9502H76.5045V36.0196C76.5013 34.9245 76.0649 33.8751 75.2905 33.1008C74.5161 32.3264 73.4667 31.8899 72.3716 31.8867H26.9094ZM72.3716 33.9532C72.9194 33.9539 73.4446 34.1718 73.832 34.5592C74.2194 34.9466 74.4374 35.4718 74.4381 36.0196V62.8837H24.8429V36.0196C24.8434 35.4718 25.0613 34.9465 25.4487 34.559C25.8362 34.1716 26.3615 33.9537 26.9094 33.9532H72.3716Z" fill="#1F56A3"/>
<path fill-rule="evenodd" clip-rule="evenodd" d="M24.8428 36.0196C24.8433 35.4717 25.0612 34.9464 25.4486 34.559C25.8361 34.1716 26.3614 33.9537 26.9093 33.9531H72.3715C72.9194 33.9538 73.4446 34.1718 73.8319 34.5592C74.2193 34.9465 74.4373 35.4717 74.438 36.0196V62.8837H24.8428V36.0196Z" fill="#0078D4"/>
<path d="M71.9819 36.4082H27.2979V60.4276H71.9819V36.4082Z" fill="#1B93EB"/>
<path fill-rule="evenodd" clip-rule="evenodd" d="M16.5769 64.9492V65.9824C16.5801 67.0776 17.0166 68.1269 17.791 68.9013C18.5653 69.6757 19.6147 70.1122 20.7098 70.1154H78.5709C79.666 70.1122 80.7154 69.6757 81.4898 68.9013C82.2642 68.1269 82.7006 67.0776 82.7038 65.9824V64.9492H16.5769Z" fill="#0078D4"/>
<path fill-rule="evenodd" clip-rule="evenodd" d="M47.5735 68.0489H17.1541C17.5143 68.6742 18.0321 69.194 18.656 69.5566C19.2798 69.9192 19.9878 70.1119 20.7094 70.1154H78.5705C79.6656 70.1122 80.715 69.6757 81.4893 68.9013C82.2637 68.127 82.7002 67.0776 82.7034 65.9825V64.9492H49.64V65.9824C49.6401 66.2538 49.5867 66.5226 49.4828 66.7733C49.379 67.0241 49.2268 67.2519 49.0349 67.4438C48.843 67.6357 48.6152 67.788 48.3644 67.8918C48.1136 67.9956 47.8449 68.049 47.5735 68.0489V68.0489Z" fill="#1F56A3"/>
<path fill-rule="evenodd" clip-rule="evenodd" d="M45.5074 67.0157H53.7732C54.3212 67.0155 54.8467 66.7977 55.2342 66.4102C55.6217 66.0227 55.8395 65.4972 55.8397 64.9492H43.4409C43.4409 65.4973 43.6587 66.0229 44.0462 66.4104C44.4337 66.7979 44.9593 67.0156 45.5074 67.0157Z" fill="#003067"/>
<path opacity="0.2" d="M42.2191 68.6525L40.9101 70.1156H63.4413C63.7273 69.5664 63.8397 68.9434 63.7638 68.3289C63.6878 67.7144 63.4271 67.1375 63.016 66.6745L59.3207 62.5246L58.1264 61.1945L55.5893 58.34L54.9533 57.6681C54.7495 57.453 54.5041 57.2816 54.2319 57.1645C53.9598 57.0474 53.6666 56.987 53.3703 56.987H38.6491C38.2234 56.9783 37.8005 57.0567 37.4062 57.2173C37.012 57.3779 36.6547 57.6174 36.3562 57.921C35.8277 58.4763 35.5275 59.2102 35.5153 59.9768C35.5031 60.7433 35.7798 61.4864 36.2904 62.0582L42.2191 68.6525Z" fill="#003067"/>
<path d="M56.1819 39.3477C55.2531 39.3477 54.3544 39.677 53.6455 40.2771C52.9366 40.8771 52.4633 41.709 52.3097 42.625C51.5713 42.6704 50.8701 42.9649 50.3205 43.4602C49.771 43.9555 49.4056 44.6225 49.2839 45.3523L48.7044 48.8297C48.6336 49.2544 48.4251 49.644 48.1111 49.9385C47.7971 50.2331 47.3949 50.4163 46.9666 50.4598C46.8001 49.4899 46.2754 48.6178 45.4963 48.0165C44.7173 47.4151 43.7408 47.1283 42.7604 47.2129C41.7799 47.2974 40.8669 47.7472 40.2024 48.473C39.5378 49.1989 39.1701 50.1478 39.1721 51.132C39.1742 52.1161 39.5457 53.0635 40.2133 53.7866C40.8808 54.5097 41.7956 54.9557 42.7765 55.0362C43.7573 55.1168 44.7326 54.8259 45.5091 54.2214C46.2856 53.6168 46.8068 52.7427 46.9693 51.7721C47.7077 51.7266 48.4089 51.4322 48.9585 50.9369C49.508 50.4415 49.8734 49.7746 49.995 49.0448L50.5747 45.5674C50.6455 45.1427 50.8539 44.753 51.168 44.4585C51.482 44.1639 51.8841 43.9808 52.3125 43.9373C52.439 44.6745 52.7735 45.3603 53.2766 45.9138C53.7798 46.4674 54.4306 46.8657 55.1525 47.0618C55.8743 47.2579 56.6372 47.2437 57.3513 47.0208C58.0653 46.7979 58.7009 46.3757 59.183 45.8038C59.6652 45.2319 59.9739 44.5341 60.0729 43.7926C60.1718 43.0512 60.0569 42.2969 59.7415 41.6186C59.4262 40.9402 58.9237 40.3661 58.293 39.9638C57.6624 39.5615 56.93 39.3477 56.1819 39.3477H56.1819Z" fill="#1F56A3"/>
<path opacity="0.2" fill-rule="evenodd" clip-rule="evenodd" d="M31.6392 31.8867V35.0522C31.6432 36.1118 32.0659 37.1269 32.8152 37.8762C33.5644 38.6255 34.5795 39.0482 35.6392 39.0522H63.6392C64.6989 39.0484 65.7141 38.6258 66.4634 37.8764C67.2127 37.1271 67.6354 36.1119 67.6392 35.0522V31.8867H31.6392Z" fill="#767676"/>
<path d="M53.5896 65.2376L45.885 69.7377L37.7776 60.7199C37.6446 60.5703 37.5575 60.3856 37.5268 60.1879C37.496 59.9901 37.5229 59.7877 37.6042 59.6048C37.6854 59.4219 37.8177 59.2663 37.9851 59.1566C38.1525 59.047 38.348 58.9878 38.5481 58.9863H53.5896V65.2376Z" fill="url(#paint1_linear)"/>
<path d="M61.5219 68.0055L57.8272 63.8555L44.782 78.214H53.187C53.2739 78.2164 53.3602 78.1987 53.4392 78.1623C53.5182 78.1258 53.5877 78.0716 53.6423 78.0039L61.5044 69.4413C61.6882 69.2485 61.7923 68.9932 61.7955 68.7268C61.7988 68.4604 61.701 68.2027 61.5219 68.0055V68.0055Z" fill="url(#paint2_linear)"/>
<path d="M53.5202 59.0215L37.7258 76.6721C37.606 76.8057 37.5278 76.9714 37.5006 77.1489C37.4735 77.3263 37.4986 77.5078 37.5728 77.6712C37.6471 77.8346 37.7674 77.9728 37.9189 78.069C38.0705 78.1652 38.2468 78.2152 38.4262 78.2128H45.0276L57.8628 63.9068L53.5202 59.0215Z" fill="url(#paint3_linear)"/>
<path fill-rule="evenodd" clip-rule="evenodd" d="M45.7399 24.9522L34.2299 36.4622C34.0427 36.2782 33.894 36.0588 33.7926 35.8167C33.6913 35.5746 33.6392 35.3147 33.6394 35.0522V17.0522C33.6381 16.5687 33.8163 16.1019 34.1394 15.7422L45.7399 24.9522Z" fill="#E8E8E8"/>
<path fill-rule="evenodd" clip-rule="evenodd" d="M65.0492 36.4612C64.8652 36.6483 64.6458 36.7969 64.4037 36.8982C64.1616 36.9995 63.9017 37.0515 63.6392 37.0512H35.6392C35.3769 37.0515 35.1171 36.9994 34.8751 36.8981C34.633 36.7968 34.4137 36.6483 34.2297 36.4612L45.7397 24.9512L49.6392 28.0512L53.5892 25.0012L65.0492 36.4612Z" fill="white"/>
<path fill-rule="evenodd" clip-rule="evenodd" d="M65.6396 17.0509V35.0509C65.6399 35.3134 65.5879 35.5733 65.4866 35.8154C65.3853 36.0575 65.2367 36.2769 65.0496 36.4609L53.5896 25.0009L65.3096 15.9609C65.525 16.2836 65.6399 16.663 65.6396 17.0509V17.0509Z" fill="#E8E8E8"/>
<path fill-rule="evenodd" clip-rule="evenodd" d="M65.3094 15.9608L53.5894 25.0008L49.6394 28.0508L45.7399 24.9508L34.1394 15.7408C34.3242 15.5236 34.5541 15.3493 34.8132 15.2301C35.0723 15.1109 35.3542 15.0497 35.6394 15.0508H63.6394C63.9717 15.0504 64.2988 15.1335 64.5906 15.2925C64.8825 15.4515 65.1296 15.6813 65.3094 15.9608V15.9608Z" fill="white"/>
<path opacity="0.2" fill-rule="evenodd" clip-rule="evenodd" d="M53.5893 25.0013L50.8796 27.0937C50.5256 27.367 50.0903 27.5138 49.6431 27.5106C49.1959 27.5074 48.7627 27.3545 48.4127 27.0762L45.7398 24.9513L37.3333 18.2773L47.6718 27.3288C48.217 27.8062 48.9167 28.07 49.6414 28.0716C50.3661 28.0732 51.0669 27.8124 51.6143 27.3374L60.0298 20.0339L53.5893 25.0013Z" fill="#767676"/>
</g>
<defs>
<linearGradient id="paint0_linear" x1="47.8698" y1="-15.153" x2="51.8525" y2="130.615" gradientUnits="userSpaceOnUse">
<stop stop-color="#00ABDE"/>
<stop offset="1" stop-color="#007ED8"/>
</linearGradient>
<linearGradient id="paint1_linear" x1="38.5232" y1="53.811" x2="56.0528" y2="70.3041" gradientUnits="userSpaceOnUse">
<stop offset="0.4598" stop-color="#1152D4"/>
<stop offset="0.6156" stop-color="#0D3FB3"/>
</linearGradient>
<linearGradient id="paint2_linear" x1="44.782" y1="71.0348" x2="61.7955" y2="71.0348" gradientUnits="userSpaceOnUse">
<stop stop-color="#76C0FD"/>
<stop offset="1" stop-color="#63B2FB"/>
</linearGradient>
<linearGradient id="paint3_linear" x1="37.4854" y1="68.6172" x2="57.8628" y2="68.6172" gradientUnits="userSpaceOnUse">
<stop stop-color="#388CF4"/>
<stop offset="1" stop-color="#2C7CEF"/>
</linearGradient>
<clipPath id="clip0">
<rect width="99.2799" height="99.28" fill="white"/>
</clipPath>
</defs>
</svg>
