<svg width="160" height="188" viewBox="0 0 160 188" fill="none" xmlns="http://www.w3.org/2000/svg">
<g clip-path="url(#clip0)">
<path d="M79.6779 188C82.7592 187.994 85.7796 187.141 88.4083 185.534L150.384 147.874C153.165 146.11 155.449 143.665 157.019 140.771C158.589 137.876 159.394 134.628 159.356 131.336V56.6207C159.392 53.3283 158.587 50.0812 157.017 47.1871C155.447 44.2929 153.163 41.8476 150.384 40.0829L88.4083 2.4228C85.7749 0.837605 82.7592 0 79.6855 0C76.6118 0 73.5961 0.837605 70.9627 2.4228L8.9876 40.098C6.2045 41.8604 3.91796 44.3048 2.34499 47.1991C0.772021 50.0935 -0.0351786 53.3418 4.1431e-06 56.6358V131.336C-0.0185283 134.119 0.556189 136.874 1.68588 139.418C2.81557 141.962 4.4743 144.236 6.5516 146.089V146.115L70.9627 185.549C73.5884 187.149 76.6032 187.996 79.6779 188V188ZM80.3257 6.95218C82.2776 6.95218 84.7548 8.1651 86.4646 9.20912L147.222 46.4034C150.974 48.6881 153.09 55.2842 153.09 60.0352L152.458 131.336C152.458 136.087 149.259 140.355 145.506 142.64L85.1104 179.021C81.6758 181.109 78.8854 181.109 75.4507 179.021L14.2427 142.549C10.4903 140.265 7.47191 136.072 7.47191 131.336V57.688C7.50442 55.3228 8.11341 53.0013 9.24608 50.9247C10.3787 48.8482 12.0009 47.0792 13.9718 45.7714L74.548 9.20912C76.2577 8.1651 78.3739 6.95218 80.3257 6.95218Z" fill="#F2F1F0"/>
<path fill-rule="evenodd" clip-rule="evenodd" d="M87.5765 10.5337C85.2056 9.0602 82.4697 8.2793 79.6783 8.2793C76.8868 8.2793 74.1509 9.0602 71.7801 10.5337L15.6454 44.8651C13.1193 46.4768 11.047 48.7072 9.625 51.3446C8.203 53.9821 7.47851 56.9392 7.52026 59.9352V128.038C7.48034 131.034 8.20562 133.991 9.62745 136.628C11.0493 139.265 13.1206 141.495 15.6454 143.108L71.7801 177.439C74.1508 178.913 76.8867 179.694 79.6783 179.694C82.4698 179.694 85.2057 178.913 87.5765 177.439L143.711 143.108C146.236 141.496 148.307 139.265 149.729 136.628C151.151 133.991 151.877 131.034 151.837 128.038V59.9352C151.875 56.9397 151.149 53.9839 149.727 51.347C148.305 48.7101 146.234 46.4793 143.711 44.8651L87.5765 10.5337Z" fill="url(#paint0_linear)"/>
<path fill-rule="evenodd" clip-rule="evenodd" d="M79.6783 9.7539C81.3615 9.7539 83.2442 10.6196 85.311 11.8777L143.777 47.4201C145.668 48.6335 147.218 50.3104 148.278 52.2914C149.339 54.2725 149.875 56.4918 149.837 58.7386V129.217C149.875 131.464 149.339 133.683 148.278 135.664C147.218 137.645 145.668 139.322 143.777 140.535L85.312 176.077L85.311 176.078C83.6408 177.217 81.6958 177.888 79.6783 178.021C77.6609 177.888 75.7158 177.217 74.0456 176.078L74.0446 176.077L15.5823 140.537L15.5801 140.536C13.7918 139.572 12.2668 138.185 11.1383 136.496C10.1614 134.893 9.52031 132.678 9.52031 129.217V58.7386C9.48157 56.4919 10.018 54.2726 11.0785 52.2916C12.139 50.3106 13.6885 48.6336 15.5797 47.4202L74.0365 11.8831L74.0406 11.8807C76.1244 10.6277 77.9846 9.7539 79.6783 9.7539ZM87.3908 8.4609L145.855 44.0021C148.333 45.5722 150.368 47.751 151.765 50.3307C153.162 52.9104 153.876 55.8051 153.837 58.7386V129.217C153.876 132.151 153.162 135.045 151.765 137.625C150.368 140.205 148.333 142.384 145.855 143.954L87.3898 179.495C85.0956 181.02 82.4302 181.893 79.6783 182.021C76.9264 181.893 74.261 181.02 71.9667 179.495H71.9658L13.502 143.953L13.4995 143.952C11.1642 142.659 9.18097 140.814 7.72281 138.578C6.12823 135.725 5.36521 132.482 5.52031 129.217V58.7386C5.48125 55.805 6.19436 52.9103 7.59165 50.3305C8.98894 47.7508 11.0238 45.572 13.5022 44.002L71.9667 8.46025L71.9749 8.45537C74.0655 7.19796 76.7734 5.75391 79.6783 5.75391C82.5645 5.75391 85.2816 7.17699 87.3908 8.46085V8.4609Z" fill="#0078D4"/>
<path opacity="0.2" d="M139.887 131.926L80.3369 166.533L20.3979 131.927L79.9479 97.3203L139.887 131.926Z" fill="#003067"/>
<path d="M140.532 120.547L79.81 155.835L18.698 120.552L79.42 85.2637L140.532 120.547Z" fill="#1B93EB"/>
<path d="M140.532 120.547L140.52 124.653L79.798 159.941L79.81 155.835L140.532 120.547Z" fill="#1F56A3"/>
<path d="M79.81 155.834L79.798 159.94L18.686 124.657L18.698 120.551L79.81 155.834Z" fill="#0078D4"/>
<path d="M77.2452 94.4114C77.3961 94.4624 77.5274 94.5593 77.6206 94.6885C77.7139 94.8177 77.7645 94.9728 77.7654 95.1321C77.7663 95.2915 77.7174 95.4471 77.6256 95.5774C77.5338 95.7076 77.4037 95.806 77.2533 95.8587C76.8658 96.0579 76.4366 96.1621 76.0009 96.1628C75.5653 96.1635 75.1357 96.0607 74.7476 95.8628C74.0395 95.4539 74.0359 94.8162 74.7324 94.4114C75.1215 94.2129 75.552 94.1094 75.9888 94.1094C76.4256 94.1094 76.8561 94.2129 77.2452 94.4114V94.4114Z" fill="#50E6FF"/>
<path d="M77.589 94.5559C77.7399 94.607 77.8712 94.7038 77.9644 94.833C78.0577 94.9622 78.1083 95.1173 78.1092 95.2766C78.1101 95.436 78.0612 95.5916 77.9694 95.7218C77.8777 95.8521 77.7475 95.9504 77.5972 96.0032C77.2097 96.2024 76.7805 96.3066 76.3448 96.3073C75.9092 96.308 75.4796 96.2052 75.0915 96.0073C74.3833 95.5984 74.3798 94.9607 75.0763 94.5559C75.4654 94.3574 75.8959 94.2539 76.3326 94.2539C76.7694 94.2539 77.1999 94.3574 77.589 94.5559V94.5559Z" fill="#50E6FF"/>
<path d="M123.984 119.697C124.071 119.726 124.146 119.782 124.2 119.857C124.253 119.931 124.282 120.02 124.283 120.112C124.283 120.204 124.255 120.293 124.202 120.368C124.15 120.443 124.075 120.5 123.989 120.531L119.577 123.094L70.0718 94.5121L74.1593 92.1367L74.4829 91.9487C74.7058 91.8348 74.9526 91.7754 75.2029 91.7754C75.4532 91.7754 75.6999 91.8348 75.9228 91.9487L123.984 119.697ZM75.0915 96.0085C75.4797 96.2063 75.9092 96.3092 76.3449 96.3085C76.7805 96.3077 77.2098 96.2035 77.5972 96.0044C77.7476 95.9516 77.8778 95.8533 77.9695 95.723C78.0613 95.5928 78.1102 95.4371 78.1093 95.2778C78.1084 95.1185 78.0578 94.9634 77.9645 94.8342C77.8713 94.705 77.74 94.6081 77.5891 94.557C77.2 94.3585 76.7695 94.255 76.3327 94.255C75.896 94.255 75.4654 94.3585 75.0764 94.557C74.3799 94.9618 74.3834 95.5996 75.0915 96.0084" fill="#0078D4"/>
<path d="M123.989 120.531L119.577 123.095L119.57 125.807L123.981 123.244C124.062 123.207 124.132 123.149 124.184 123.076C124.236 123.004 124.267 122.918 124.275 122.83L124.283 120.117C124.275 120.206 124.243 120.291 124.192 120.364C124.14 120.437 124.07 120.494 123.989 120.531V120.531Z" fill="#1F56A3"/>
<path d="M86.7295 142.183C86.4384 142.33 86.1168 142.407 85.7907 142.407C85.4645 142.407 85.1429 142.33 84.8519 142.183L37.2299 114.688C37.122 114.64 37.0291 114.564 36.9606 114.467C36.8921 114.371 36.8506 114.258 36.8405 114.141L36.8326 116.853C36.8429 116.971 36.8844 117.083 36.9529 117.18C37.0214 117.276 37.1143 117.352 37.2222 117.4L84.8443 144.895C85.1354 145.042 85.457 145.119 85.7831 145.119C86.1093 145.119 86.4309 145.042 86.7219 144.895L119.57 125.806L119.578 123.094L86.7295 142.183Z" fill="#E8E8E8"/>
<path d="M70.0717 94.5117L119.577 123.094L86.7294 142.183C86.4383 142.33 86.1168 142.407 85.7906 142.407C85.4645 142.407 85.1429 142.33 84.8519 142.183L37.2298 114.688C37.1167 114.65 37.0184 114.577 36.9486 114.48C36.8788 114.383 36.841 114.266 36.8403 114.147C36.8397 114.027 36.8762 113.91 36.9449 113.813C37.0137 113.715 37.1111 113.641 37.2238 113.601L70.0717 94.5117Z" fill="#F2F2F2"/>
<path d="M43.1393 114.636C43.035 114.6 42.9445 114.533 42.8804 114.443C42.8163 114.353 42.7818 114.246 42.7816 114.135C42.7815 114.025 42.8157 113.918 42.8795 113.828C42.9434 113.738 43.0337 113.67 43.1378 113.634L69.2123 98.4814C69.4803 98.3451 69.7767 98.2739 70.0774 98.2734C70.378 98.273 70.6746 98.3434 70.943 98.479L112.726 122.603C112.83 122.638 112.92 122.706 112.984 122.796C113.049 122.885 113.083 122.993 113.083 123.103C113.083 123.214 113.049 123.321 112.985 123.411C112.921 123.501 112.831 123.569 112.727 123.605L86.6535 138.757C86.3855 138.894 86.0891 138.965 85.7884 138.965C85.4878 138.966 85.1912 138.895 84.9228 138.76L43.1393 114.636Z" fill="#E8E8E8"/>
<path d="M60.3121 115.901C60.6267 115.516 60.9722 115.157 61.3453 114.828C61.7344 114.488 62.1439 114.172 62.5714 113.882C63.0064 113.589 63.4067 113.336 63.7723 113.123C64.7618 112.561 65.7997 112.089 66.8734 111.712C68.0165 111.306 69.1902 110.992 70.3833 110.774C71.6177 110.541 72.8678 110.402 74.1231 110.356C75.3798 110.31 76.6382 110.358 77.8879 110.498C79.0985 110.633 80.2942 110.879 81.4596 111.234C82.5799 111.572 83.6579 112.037 84.6726 112.62C85.2995 112.997 85.8896 113.432 86.4352 113.92C86.9198 114.343 87.3313 114.843 87.6531 115.4C87.9312 115.893 88.1218 116.432 88.2166 116.991C88.2434 117.166 88.2567 117.343 88.2562 117.521L88.2594 116.402C88.2599 116.225 88.2466 116.047 88.2198 115.872C88.125 115.313 87.9344 114.775 87.6563 114.281C87.3345 113.724 86.923 113.224 86.4384 112.801C85.8928 112.314 85.3026 111.879 84.6758 111.501C83.6611 110.918 82.5831 110.453 81.4628 110.115C80.2973 109.761 79.1017 109.514 77.8911 109.379C76.6414 109.239 75.383 109.192 74.1263 109.238C72.871 109.283 71.6209 109.423 70.3864 109.655C69.1934 109.874 68.0197 110.188 66.8766 110.593C65.8029 110.97 64.765 111.443 63.7755 112.005C63.4099 112.217 63.0096 112.47 62.5745 112.764C62.147 113.054 61.7376 113.37 61.3485 113.71C60.9754 114.038 60.6298 114.397 60.3152 114.782C60.0381 115.103 59.8332 115.48 59.7145 115.887C59.6745 116.032 59.6537 116.182 59.6528 116.332L59.6497 117.451C59.6506 117.3 59.6713 117.151 59.7113 117.006C59.8301 116.599 60.035 116.222 60.3121 115.901V115.901Z" fill="#103834"/>
<path d="M95.1638 119.003C95.5626 119.196 95.884 119.519 96.0757 119.918C96.1462 120.11 96.1824 120.312 96.1827 120.516L96.1858 119.397C96.1856 119.193 96.1493 118.991 96.0788 118.8C95.8872 118.4 95.5657 118.078 95.167 117.884C94.5044 117.487 93.7543 117.259 92.9827 117.219C92.1778 117.185 91.3716 117.237 90.5775 117.373L90.5743 118.492C91.3684 118.356 92.1746 118.304 92.9795 118.337C93.7511 118.377 94.5012 118.606 95.1638 119.003Z" fill="#103834"/>
<path d="M73.2084 115.414C73.761 115.289 74.3204 115.196 74.8837 115.136C75.4575 115.071 76.0354 115.049 76.6125 115.07L76.6157 113.951C76.0386 113.93 75.4607 113.952 74.8869 114.017C74.3235 114.077 73.7642 114.17 73.2116 114.295C72.6833 114.417 72.1646 114.578 71.6598 114.776C71.1936 114.954 70.7423 115.169 70.3098 115.418C69.6753 115.772 69.1027 116.226 68.6143 116.764C68.2214 117.207 67.9201 117.724 67.7277 118.284C67.6206 118.624 67.5651 118.978 67.563 119.335L67.5598 120.454C67.5619 120.097 67.6175 119.743 67.7246 119.403C67.917 118.842 68.2183 118.326 68.6112 117.882C69.0995 117.345 69.6722 116.89 70.3066 116.537C70.7391 116.288 71.1905 116.073 71.6566 115.894C72.1614 115.696 72.6801 115.536 73.2084 115.414V115.414Z" fill="#103834"/>
<path d="M82.7899 121.824C83.5036 121.452 84.0903 120.877 84.4749 120.17C84.6545 119.794 84.7496 119.383 84.7536 118.966L84.7568 117.848C84.7528 118.264 84.6577 118.675 84.4781 119.051C84.0935 119.758 83.5068 120.334 82.793 120.705C82.2774 121.001 81.7312 121.24 81.164 121.419C80.5317 121.616 79.879 121.742 79.2185 121.793L79.2153 122.911C79.8759 122.86 80.5285 122.735 81.1609 122.537C81.7281 122.359 82.2743 122.12 82.7899 121.824V121.824Z" fill="#103834"/>
<path d="M85.3604 122.217C84.6373 122.48 83.8956 122.689 83.1414 122.842C82.3623 123.003 81.5739 123.115 80.7808 123.178C79.9826 123.241 79.1803 123.233 78.3834 123.155C77.6136 123.082 76.8507 122.948 76.1018 122.756C75.422 122.581 74.7692 122.315 74.1615 121.964L74.0797 121.916C73.3568 121.508 72.7049 120.985 72.1497 120.368C71.6732 119.85 71.3309 119.223 71.1525 118.542C71.1023 118.331 71.077 118.115 71.0774 117.899L71.0742 119.017C71.0739 119.234 71.0991 119.45 71.1493 119.66C71.3277 120.341 71.6701 120.968 72.1465 121.487C72.7018 122.104 73.3536 122.626 74.0765 123.034L74.1583 123.082C74.766 123.434 75.4188 123.7 76.0986 123.874C76.8475 124.067 77.6104 124.201 78.3802 124.274C79.1771 124.352 79.9794 124.36 80.7777 124.297C81.5708 124.234 82.3591 124.121 83.1382 123.96C83.8924 123.808 84.6341 123.599 85.3572 123.335C86.0092 123.096 86.64 122.802 87.2431 122.458C88.0875 121.977 88.8443 121.357 89.4815 120.624C90.0109 120.011 90.3856 119.28 90.5743 118.492L90.5775 117.373C90.3888 118.161 90.0141 118.892 89.4847 119.505C88.8475 120.239 88.0906 120.859 87.2463 121.339C86.6432 121.684 86.0124 121.977 85.3604 122.217Z" fill="#103834"/>
<path d="M98.6637 119.547C98.5993 120.062 98.4217 120.557 98.1436 120.996C97.8245 121.511 97.4363 121.979 96.9898 122.387C96.503 122.841 95.9892 123.265 95.4511 123.657C94.9163 124.052 94.3601 124.418 93.785 124.752C92.6339 125.415 91.4219 125.967 90.1656 126.399C88.8323 126.863 87.4648 127.221 86.0756 127.471C84.6403 127.735 83.1875 127.892 81.7291 127.942C80.2689 127.995 78.8067 127.93 77.357 127.747C75.9417 127.568 74.5437 127.272 73.1775 126.862C71.8973 126.481 70.6654 125.955 69.506 125.292L69.4174 125.24C68.8263 124.901 68.2647 124.513 67.7384 124.079C67.2543 123.69 66.8115 123.252 66.4167 122.772C66.0573 122.342 65.7592 121.865 65.531 121.353C65.3156 120.882 65.1899 120.375 65.1601 119.858C64.6142 119.942 64.0627 119.984 63.5103 119.985C62.4344 119.982 61.3654 119.812 60.3416 119.481C59.8787 119.337 59.4326 119.144 59.011 118.905C58.4203 118.602 57.9159 118.155 57.5452 117.604C57.3179 117.238 57.196 116.816 57.1928 116.385L57.1897 117.503C57.1929 117.935 57.3148 118.357 57.5421 118.723C57.9128 119.274 58.4171 119.721 59.0079 120.023C59.4294 120.263 59.8755 120.456 60.3385 120.6C61.3622 120.931 62.4312 121.101 63.5072 121.103C64.0595 121.103 64.6111 121.061 65.157 120.977C65.1867 121.494 65.3125 122.001 65.5278 122.472C65.7561 122.983 66.0541 123.461 66.4135 123.891C66.8083 124.37 67.2511 124.809 67.7352 125.198C68.2615 125.631 68.8232 126.02 69.4142 126.359L69.5027 126.411C70.6621 127.073 71.8941 127.6 73.1742 127.98C74.5404 128.391 75.9384 128.687 77.3537 128.866C78.8034 129.049 80.2656 129.114 81.7259 129.06C83.1843 129.011 84.637 128.853 86.0723 128.59C87.4615 128.34 88.829 127.981 90.1623 127.517C91.4186 127.085 92.6306 126.534 93.7817 125.871C94.3569 125.537 94.9132 125.171 95.448 124.776C95.9861 124.384 96.4999 123.96 96.9866 123.506C97.4332 123.097 97.8214 122.629 98.1404 122.115C98.4186 121.676 98.5963 121.181 98.6606 120.665C98.668 120.594 98.6718 120.523 98.672 120.451L98.6752 119.333C98.675 119.404 98.6711 119.476 98.6637 119.547Z" fill="#103834"/>
<path d="M95.4511 123.655C94.9163 124.051 94.36 124.417 93.7849 124.751C92.6338 125.414 91.4218 125.965 90.1655 126.397C88.8323 126.861 87.4648 127.22 86.0756 127.47C84.6403 127.733 83.1875 127.89 81.7291 127.94C80.2688 127.994 78.8067 127.929 77.357 127.745C75.9416 127.567 74.5437 127.271 73.1775 126.86C71.8973 126.48 70.6654 125.953 69.506 125.29L69.4174 125.239C68.8263 124.899 68.2647 124.511 67.7384 124.078C67.2544 123.688 66.8115 123.25 66.4167 122.77C66.0573 122.34 65.7592 121.863 65.531 121.351C65.3157 120.88 65.1899 120.373 65.1602 119.856C64.6143 119.941 64.0627 119.983 63.5103 119.983C62.4344 119.98 61.3654 119.811 60.3417 119.48C59.8787 119.336 59.4325 119.142 59.011 118.903C58.4203 118.601 57.9159 118.153 57.5452 117.603C57.2833 117.184 57.1627 116.692 57.2011 116.199C57.2549 115.687 57.427 115.194 57.7038 114.76C58.0234 114.244 58.4115 113.775 58.8575 113.364C59.3428 112.911 59.852 112.485 60.383 112.086C60.9126 111.683 61.4694 111.318 62.0493 110.991C63.1988 110.329 64.4094 109.778 65.6643 109.347C66.9998 108.885 68.3685 108.526 69.7586 108.272C71.1909 108.01 72.6409 107.856 74.0964 107.812C75.5612 107.764 77.0275 107.832 78.4816 108.014C79.8976 108.189 81.2958 108.485 82.6611 108.899C83.9691 109.295 85.2277 109.839 86.4124 110.521C87.0019 110.858 87.5647 111.24 88.0957 111.664C88.585 112.047 89.0285 112.486 89.4174 112.971C89.7648 113.41 90.0578 113.889 90.29 114.398C90.5038 114.869 90.6352 115.373 90.6783 115.888C91.2241 115.802 91.7757 115.76 92.3282 115.761C92.8755 115.76 93.422 115.804 93.962 115.893C94.4802 115.98 94.9916 116.103 95.4924 116.262C95.9602 116.41 96.4107 116.607 96.8363 116.851C97.4277 117.155 97.9367 117.598 98.3195 118.141C98.5904 118.557 98.7117 119.052 98.6636 119.545C98.5992 120.061 98.4216 120.556 98.1434 120.994C97.8244 121.509 97.4362 121.977 96.9897 122.386C96.503 122.84 95.9892 123.264 95.4511 123.655V123.655ZM88.9446 125.158C90.0238 124.779 91.0674 124.305 92.0631 123.741C92.4287 123.529 92.829 123.276 93.264 122.983C93.69 122.691 94.0979 122.375 94.4857 122.034C94.8588 121.705 95.2044 121.347 95.5189 120.962C95.7961 120.641 96.0009 120.264 96.1197 119.856C96.22 119.509 96.2057 119.138 96.0788 118.799C95.8872 118.4 95.5657 118.077 95.167 117.884C94.5044 117.487 93.7543 117.258 92.9827 117.218C92.1778 117.185 91.3716 117.237 90.5775 117.373C90.3889 118.16 90.0142 118.892 89.4848 119.505C88.8475 120.238 88.0907 120.858 87.2463 121.339C86.6433 121.683 86.0125 121.977 85.3604 122.216C84.6374 122.48 83.8956 122.688 83.1414 122.841C82.3623 123.002 81.574 123.115 80.7809 123.177C79.9826 123.241 79.1804 123.233 78.3835 123.155C77.6136 123.081 76.8508 122.948 76.1019 122.755C75.422 122.581 74.7692 122.314 74.1615 121.963L74.0797 121.915C73.3568 121.507 72.705 120.984 72.1497 120.367C71.6733 119.849 71.3309 119.222 71.1526 118.541C71.0059 117.92 71.0778 117.267 71.3562 116.692C71.7373 115.991 72.3176 115.419 73.0237 115.048C73.5481 114.749 74.1069 114.515 74.6878 114.35C75.3197 114.17 75.9641 114.036 76.6156 113.95C76.0385 113.929 75.4606 113.951 74.8868 114.016C74.3235 114.077 73.7641 114.169 73.2116 114.294C72.6832 114.416 72.1646 114.577 71.6598 114.775C71.1936 114.953 70.7422 115.168 70.3097 115.417C69.6753 115.771 69.1026 116.226 68.6143 116.763C68.2214 117.206 67.9201 117.723 67.7277 118.283C67.5633 118.799 67.5216 119.347 67.6057 119.882C67.6974 120.439 67.8914 120.975 68.1779 121.463C68.5087 122.013 68.9191 122.512 69.3958 122.942C69.9343 123.438 70.5254 123.874 71.1585 124.242C72.1731 124.825 73.2511 125.29 74.3714 125.628C75.5431 125.984 76.7443 126.234 77.9606 126.374C79.2084 126.521 80.4659 126.567 81.7211 126.514C82.9671 126.464 84.2081 126.326 85.4348 126.101C86.6284 125.883 87.8022 125.567 88.9446 125.158L88.9446 125.158ZM62.8646 118.531C63.6655 118.566 64.4678 118.512 65.2567 118.369C65.4447 117.581 65.8211 116.85 66.3538 116.24C66.9879 115.509 67.7438 114.895 68.588 114.423C69.5248 113.892 70.5224 113.476 71.5591 113.184C72.6939 112.854 73.8611 112.649 75.0403 112.572C76.2293 112.493 77.4233 112.549 78.6 112.736C79.7096 112.903 80.7789 113.272 81.7544 113.826C82.4786 114.236 83.1318 114.759 83.6889 115.377C84.164 115.894 84.5049 116.521 84.6816 117.201C84.8287 117.822 84.7568 118.475 84.4781 119.05C84.0936 119.756 83.5069 120.332 82.7931 120.704C82.2775 121 81.7313 121.239 81.164 121.417C80.5317 121.615 79.8791 121.74 79.2186 121.791C79.7956 121.812 80.3733 121.791 80.9475 121.731C81.5109 121.669 82.0702 121.574 82.6226 121.447C83.1471 121.326 83.6627 121.169 84.1658 120.977C84.6287 120.797 85.0772 120.583 85.5071 120.334C86.1443 119.982 86.7187 119.527 87.2069 118.986C87.6026 118.547 87.903 118.03 88.0891 117.469C88.2561 116.953 88.3008 116.406 88.2198 115.87C88.125 115.311 87.9344 114.773 87.6563 114.279C87.3345 113.722 86.923 113.222 86.4384 112.8C85.8928 112.312 85.3026 111.877 84.6757 111.5C83.6611 110.917 82.5831 110.452 81.4628 110.113C80.2974 109.759 79.1018 109.513 77.8911 109.377C76.6414 109.237 75.383 109.19 74.1263 109.236C72.871 109.281 71.6209 109.421 70.3864 109.653C69.1934 109.872 68.0197 110.186 66.8766 110.592C65.8029 110.969 64.765 111.441 63.7755 112.003C63.4099 112.215 63.0096 112.468 62.5746 112.762C62.1471 113.052 61.7376 113.368 61.3485 113.708C60.9754 114.036 60.6298 114.395 60.3153 114.78C60.0381 115.101 59.8332 115.478 59.7145 115.885C59.6157 116.238 59.6362 116.613 59.7729 116.953C59.9659 117.352 60.2871 117.674 60.6851 117.868C61.346 118.265 62.0947 118.493 62.8646 118.531" fill="#207067"/>
<path d="M71.5592 113.186C72.6939 112.856 73.8611 112.651 75.0403 112.574C76.2293 112.495 77.4233 112.55 78.6 112.738C79.7096 112.904 80.779 113.274 81.7545 113.828C82.4786 114.237 83.1318 114.761 83.6889 115.379C84.164 115.896 84.5049 116.522 84.6816 117.202C84.8287 117.824 84.7568 118.477 84.4781 119.051C84.0936 119.758 83.5069 120.334 82.7931 120.705C82.2775 121.001 81.7312 121.241 81.164 121.419C80.5317 121.616 79.8791 121.742 79.2186 121.793C79.7956 121.813 80.3733 121.793 80.9475 121.732C81.5109 121.67 82.0702 121.576 82.6227 121.449C83.1472 121.328 83.6627 121.17 84.1658 120.979C84.6287 120.799 85.0771 120.584 85.5071 120.336C86.1443 119.984 86.7187 119.528 87.2069 118.988C87.6026 118.548 87.903 118.032 88.0892 117.47C88.2561 116.955 88.3008 116.408 88.2199 115.872C88.1251 115.313 87.9344 114.775 87.6564 114.281C87.3345 113.724 86.923 113.224 86.4385 112.801C85.8928 112.314 85.3027 111.879 84.6758 111.501C83.6611 110.918 82.5832 110.453 81.4629 110.115C80.2974 109.761 79.1018 109.514 77.8912 109.379C76.6415 109.239 75.3831 109.192 74.1264 109.238C72.8711 109.283 71.621 109.423 70.3865 109.655C69.1934 109.874 68.0197 110.188 66.8766 110.593C65.8029 110.97 64.7651 111.443 63.7756 112.005C63.4099 112.217 63.0096 112.47 62.5746 112.764C62.1471 113.054 61.7377 113.37 61.3486 113.709C60.9754 114.038 60.6299 114.397 60.3153 114.782C60.0382 115.103 59.8333 115.48 59.7146 115.887C59.6157 116.24 59.6362 116.615 59.7729 116.955C59.9659 117.353 60.2872 117.676 60.6852 117.87C61.3461 118.267 62.0947 118.495 62.8646 118.533C63.6656 118.568 64.4679 118.513 65.2568 118.371C65.4447 117.583 65.8212 116.852 66.3539 116.241C66.9879 115.511 67.7439 114.897 68.5881 114.425C69.5248 113.894 70.5224 113.478 71.5592 113.186V113.186Z" fill="#37C2B1"/>
<path d="M96.0788 118.8C95.8871 118.4 95.5657 118.078 95.167 117.885C94.5043 117.487 93.7543 117.259 92.9827 117.219C92.1778 117.186 91.3715 117.237 90.5775 117.373C90.3889 118.161 90.0142 118.892 89.4847 119.505C88.8475 120.239 88.0906 120.859 87.2463 121.339C86.6433 121.684 86.0124 121.977 85.3604 122.217C84.6374 122.48 83.8956 122.689 83.1413 122.842C82.3623 123.003 81.5739 123.115 80.7808 123.178C79.9826 123.241 79.1803 123.234 78.3834 123.155C77.6136 123.082 76.8507 122.948 76.1018 122.756C75.422 122.581 74.7691 122.315 74.1615 121.964L74.0797 121.916C73.3568 121.508 72.705 120.985 72.1497 120.368C71.6732 119.85 71.3309 119.223 71.1525 118.542C71.0058 117.92 71.0777 117.267 71.3561 116.693C71.7372 115.992 72.3175 115.42 73.0237 115.049C73.548 114.75 74.1068 114.515 74.6877 114.351C75.3197 114.17 75.964 114.037 76.6156 113.951C76.0385 113.93 75.4606 113.952 74.8867 114.017C74.3234 114.077 73.764 114.17 73.2115 114.295C72.6831 114.417 72.1645 114.578 71.6597 114.776C71.1935 114.954 70.7421 115.169 70.3096 115.418C69.6752 115.772 69.1026 116.226 68.6142 116.764C68.2213 117.207 67.92 117.724 67.7276 118.284C67.5633 118.8 67.5215 119.347 67.6056 119.882C67.6973 120.44 67.8913 120.976 68.1779 121.463C68.5086 122.014 68.919 122.512 69.3957 122.943C69.9342 123.439 70.5252 123.875 71.1583 124.243C72.173 124.826 73.251 125.291 74.3714 125.629C75.543 125.984 76.7442 126.234 77.9605 126.375C79.2083 126.521 80.4658 126.568 81.721 126.514C82.967 126.464 84.208 126.327 85.4347 126.102C86.6283 125.883 87.8021 125.568 88.9445 125.158C90.0237 124.779 91.0673 124.305 92.063 123.742C92.4287 123.53 92.829 123.277 93.2639 122.983C93.6899 122.692 94.0979 122.375 94.4856 122.035C94.8588 121.706 95.2044 121.347 95.5189 120.962C95.796 120.641 96.0009 120.264 96.1196 119.857C96.2199 119.509 96.2056 119.139 96.0788 118.8V118.8Z" fill="#42E8CA"/>
<path opacity="0.2" d="M91.0179 122.319C91.2551 122.399 91.4615 122.551 91.6081 122.754C91.7548 122.956 91.8344 123.2 91.8358 123.45C91.8372 123.7 91.7603 123.945 91.616 124.149C91.4716 124.354 91.267 124.508 91.0307 124.59L90.796 124.726C90.1896 125.035 89.5189 125.195 88.8386 125.195C88.1584 125.194 87.4879 125.032 86.8822 124.723L63.8144 111.405C62.729 110.778 62.717 109.764 63.7953 109.138L64.03 109.001C64.6372 108.692 65.3088 108.531 65.9901 108.531C66.6713 108.531 67.343 108.692 67.9501 109.001L91.0179 122.319Z" fill="#003067"/>
<path d="M91.9288 113.772L89.9976 114.894C90.0232 114.879 90.047 114.862 90.0684 114.841L91.9997 113.719C91.9782 113.739 91.9544 113.757 91.9288 113.772V113.772Z" fill="#A3A3A3"/>
<path d="M97.0835 91.8574L103.203 103.315C103.813 104.473 103.81 105.639 103.172 106.042L90.0685 114.841C89.8927 115.008 89.6008 114.974 89.3092 114.805L75.7565 106.981L75.3483 106.745L97.0835 91.8574Z" fill="url(#paint1_linear)"/>
<path d="M105.134 102.192L99.0148 90.7344L97.0835 91.8567L103.203 103.314C103.813 104.472 103.81 105.638 103.172 106.042L105.103 104.919C105.741 104.516 105.744 103.35 105.134 102.192Z" fill="#87C5FD"/>
<path d="M66.9156 62.9575C66.744 62.8298 66.5411 62.7509 66.3284 62.7289C66.1157 62.707 65.901 62.7428 65.707 62.8327L63.7756 63.955C63.9697 63.8651 64.1844 63.8293 64.3971 63.8512C64.6098 63.8732 64.8127 63.9521 64.9843 64.0798L89.9668 78.5035L91.8982 77.3812L66.9156 62.9575Z" fill="url(#paint2_linear)"/>
<path d="M89.967 78.5048L91.898 77.3828L77.456 87.5538L75.525 88.6768L89.967 78.5048Z" fill="#F2F2F2"/>
<path d="M89.967 78.5039L97.0836 91.857L75.3483 106.745L75.7565 106.98L64.793 100.65C63.4576 99.8795 62.7337 97.656 63.6409 97.0455L75.5247 88.6756L89.967 78.5039Z" fill="url(#paint3_linear)"/>
<path d="M89.967 78.5039L75.5247 88.6756L63.6978 66.6531C62.7101 64.8076 63.5031 63.225 64.9843 64.0802L89.967 78.5039Z" fill="url(#paint4_linear)"/>
<path d="M89.967 78.5048L91.898 77.3828L99.015 90.7358L97.084 91.8578L89.967 78.5048Z" fill="#5899F3"/>
<path d="M91.4556 52.8616L88.5818 54.5316C89.8505 53.7943 91.6071 53.8983 93.5434 55.0163C94.3726 55.5022 95.1398 56.0868 95.8283 56.7574L98.702 55.0874C98.0135 54.4169 97.2463 53.8323 96.4172 53.3463C94.4809 52.2283 92.7242 52.1243 91.4556 52.8616Z" fill="#E8E8E8"/>
<path d="M127.327 61.867C126.55 61.4091 125.722 61.045 124.86 60.7821C122.35 54.7489 117.944 49.202 112.905 46.2925C108.969 44.0202 105.404 43.8086 102.829 45.3053L99.955 46.9753C102.53 45.4787 106.095 45.6902 110.031 47.9626C115.071 50.8721 119.476 56.419 121.986 62.4521C122.848 62.715 123.676 63.0792 124.453 63.537C130.542 67.0525 135.45 75.5787 135.43 82.5671C135.433 83.33 135.365 84.0916 135.229 84.8423C135.215 84.9496 135.178 85.0528 135.164 85.1766C134.968 86.0701 134.64 86.9295 134.192 87.7265C134.141 87.813 134.076 87.8831 134.025 87.9697C133.559 88.6584 132.945 89.2346 132.228 89.6563L135.102 87.9863C135.819 87.5646 136.433 86.9884 136.899 86.2997C136.95 86.213 137.014 86.143 137.065 86.0565C137.514 85.2596 137.842 84.4002 138.037 83.5066C138.052 83.3828 138.088 83.2797 138.103 83.1723C138.239 82.4216 138.306 81.66 138.304 80.8971C138.324 73.9087 133.416 65.3824 127.327 61.867Z" fill="#E8E8E8"/>
<path d="M110.031 47.9624C115.07 50.8719 119.476 56.4189 121.986 62.452C122.848 62.7148 123.676 63.079 124.453 63.5369C130.542 67.0524 135.45 75.5786 135.43 82.5669C135.433 83.3298 135.365 84.0914 135.229 84.8421C135.215 84.9495 135.178 85.0527 135.164 85.1765C134.968 86.07 134.64 86.9294 134.192 87.7263C134.141 87.8128 134.076 87.8829 134.025 87.9695C132.116 90.7397 128.5 91.283 124.367 88.8965L92.808 70.6017C89.2938 68.1674 86.5357 63.1661 86.5475 59.0028C86.5601 54.5752 89.6974 52.7956 93.5434 55.0161C94.3726 55.5021 95.1398 56.0867 95.8282 56.7572C95.8145 56.5259 95.8151 56.3112 95.8158 56.0881C95.8414 47.076 102.203 43.4426 110.031 47.9624Z" fill="white"/>
</g>
<defs>
<linearGradient id="paint0_linear" x1="79.6785" y1="8.2793" x2="79.6785" y2="179.694" gradientUnits="userSpaceOnUse">
<stop stop-color="#00ABDE"/>
<stop offset="1" stop-color="#007ED8"/>
</linearGradient>
<linearGradient id="paint1_linear" x1="75.3483" y1="103.404" x2="103.655" y2="103.404" gradientUnits="userSpaceOnUse">
<stop stop-color="#76C0FD"/>
<stop offset="1" stop-color="#63B2FB"/>
</linearGradient>
<linearGradient id="paint2_linear" x1="63.7756" y1="70.6113" x2="91.8982" y2="70.6113" gradientUnits="userSpaceOnUse">
<stop stop-color="#388CF4"/>
<stop offset="1" stop-color="#2C7CEF"/>
</linearGradient>
<linearGradient id="paint3_linear" x1="2203.59" y1="2719.46" x2="3349.17" y2="2719.46" gradientUnits="userSpaceOnUse">
<stop stop-color="#388CF4"/>
<stop offset="1" stop-color="#2C7CEF"/>
</linearGradient>
<linearGradient id="paint4_linear" x1="63.26" y1="76.2587" x2="89.967" y2="76.2587" gradientUnits="userSpaceOnUse">
<stop offset="0.4598" stop-color="#1152D4"/>
<stop offset="0.81193" stop-color="#0D3FB3"/>
</linearGradient>
<clipPath id="clip0">
<rect width="159.356" height="188" fill="white"/>
</clipPath>
</defs>
</svg>
