<svg width="181" height="190" viewBox="0 0 181 190" fill="none" xmlns="http://www.w3.org/2000/svg">
<path d="M90.5001 189C93.5601 189 96.5701 188.15 99.2301 186.53L161.2 148.87C166.74 145.5 170.17 139.17 170.17 132.33V57.6201C170.17 50.8001 166.74 44.4601 161.2 41.0801L99.2301 3.42006C93.9001 0.180064 87.0801 0.200064 81.7801 3.42006L19.8101 41.1001C14.2701 44.4701 10.8201 50.8001 10.8201 57.6401V132.34C10.8201 138.1 13.2701 143.52 17.3701 147.09V147.12L81.7801 186.55C84.4201 188.15 87.4401 189 90.5001 189ZM91.1501 7.95006C93.1001 7.95006 95.5801 9.16006 97.2901 10.2101L158.05 47.4001C161.8 49.6801 163.92 56.2801 163.92 61.0301L163.29 132.33C163.29 137.08 160.09 141.35 156.34 143.63L95.9401 180.01C92.5101 182.1 89.7201 182.1 86.2801 180.01L25.0701 143.54C21.3201 141.26 18.3001 137.06 18.3001 132.33V58.6901C18.3001 53.9501 21.0301 49.0601 24.8001 46.7701L85.3801 10.2101C87.0801 9.17006 89.2001 7.95006 91.1501 7.95006Z" fill="#F2F1F0"/>
<path fill-rule="evenodd" clip-rule="evenodd" d="M98.4001 11.5298C95.9501 10.0298 93.2301 9.27979 90.5001 9.27979C87.7701 9.27979 85.0501 10.0398 82.6001 11.5298L26.4701 45.8598C21.4501 48.9298 18.3401 54.6798 18.3401 60.9298V129.03C18.3401 135.26 21.4401 141.03 26.4701 144.1L82.6001 178.43C85.0501 179.93 87.7701 180.68 90.5001 180.68C93.2301 180.68 95.9501 179.94 98.4001 178.43L154.53 144.1C159.55 141.03 162.66 135.26 162.66 129.03V60.9298C162.66 54.6998 159.56 48.9498 154.53 45.8598L98.4001 11.5298Z" fill="url(#paint0_linear)"/>
<path fill-rule="evenodd" clip-rule="evenodd" d="M90.5001 10.75C92.1801 10.75 94.0701 11.62 96.1301 12.87L154.6 48.41C158.25 50.63 160.66 54.9 160.66 59.73V130.21C160.66 135.03 158.25 139.31 154.6 141.53L96.1401 177.07C94.1801 178.26 92.2601 179.01 90.5101 179.01C88.7601 179.01 86.8401 178.26 84.8801 177.07L26.4001 141.54C24.3901 140.31 22.9401 139.11 21.9601 137.5C20.9801 135.9 20.3401 133.68 20.3401 130.22V59.74C20.3401 54.91 22.7501 50.64 26.4001 48.42L84.8601 12.88C86.9501 11.63 88.8101 10.75 90.5001 10.75ZM98.2101 180.5L156.67 144.96C161.59 141.97 164.65 136.35 164.65 130.22V59.74C164.65 53.61 161.59 47.99 156.67 45L98.2101 9.46C96.1001 8.18 93.3901 6.75 90.5001 6.75C87.6001 6.75 84.8901 8.19 82.8001 9.45H82.7901L24.3201 45C19.4001 47.99 16.3401 53.61 16.3401 59.74V130.22C16.3401 134.18 17.0801 137.17 18.5401 139.58C20.0001 141.98 22.0601 143.58 24.3201 144.95L82.7801 180.49C85.0001 181.84 87.6701 183.02 90.4901 183.02C93.3101 183.02 95.9901 181.85 98.2101 180.5Z" fill="url(#paint1_linear)"/>
<path opacity="0.15" d="M85.9501 57.75H30.9801C29.7901 57.75 28.8301 58.7 28.8301 59.9V131.64C28.8301 132.83 29.7801 133.79 30.9801 133.79H85.9501C87.1401 133.79 88.1001 132.84 88.1001 131.64V59.9C88.0801 58.7 87.1301 57.75 85.9501 57.75Z" fill="#1F1D20"/>
<path d="M85.9501 55.0898H30.9801C29.7901 55.0898 28.8301 56.0398 28.8301 57.2398V128.98C28.8301 130.17 29.7801 131.13 30.9801 131.13H85.9501C87.1401 131.13 88.1001 130.18 88.1001 128.98V57.2398C88.0801 56.0498 87.1301 55.0898 85.9501 55.0898Z" fill="#F2F2F2"/>
<path opacity="0.15" d="M150.39 57.75H95.42C94.24 57.75 93.27 58.71 93.27 59.9V131.64C93.27 132.82 94.23 133.79 95.42 133.79H150.39C151.57 133.79 152.54 132.83 152.54 131.64V59.9C152.52 58.7 151.57 57.75 150.39 57.75Z" fill="#1F1D20"/>
<path d="M150.39 55.0898H95.42C94.24 55.0898 93.27 56.0498 93.27 57.2398V128.98C93.27 130.16 94.23 131.13 95.42 131.13H150.39C151.57 131.13 152.54 130.17 152.54 128.98V57.2398C152.52 56.0498 151.57 55.0898 150.39 55.0898Z" fill="#F2F2F2"/>
<path d="M67.1999 86.6202L54.6299 93.9602L41.4199 79.2402C40.4399 78.1602 41.2199 76.4302 42.6699 76.4302H67.1999V86.6202Z" fill="url(#paint2_linear)"/>
<path d="M74.17 84.45L67.09 76.48L41.32 105.26C40.45 106.24 41.14 107.78 42.45 107.78H53.22L74.17 84.45Z" fill="url(#paint3_linear)"/>
<path d="M80.1401 91.1401L74.1101 84.3501L52.8501 107.78H66.5501C66.8401 107.78 67.1101 107.66 67.3001 107.45L80.1101 93.4901C80.7301 92.8201 80.7401 91.8101 80.1401 91.1401Z" fill="url(#paint4_linear)"/>
<path d="M122.07 95.2602C130.31 96.3002 137.23 89.3702 136.19 81.1402C135.48 75.5302 130.95 71.0002 125.34 70.2902C117.1 69.2502 110.18 76.1802 111.22 84.4102C111.92 90.0202 116.45 94.5502 122.07 95.2602Z" fill="#036C70"/>
<path d="M132.24 105.7C140.14 107 146.87 100.26 145.57 92.3703C144.79 87.5903 140.93 83.7303 136.15 82.9403C128.25 81.6403 121.52 88.3803 122.82 96.2703C123.6 101.05 127.46 104.91 132.24 105.7Z" fill="#1A9BA1"/>
<path d="M123.77 114.12C129.87 115.12 135.07 109.92 134.07 103.82C133.46 100.12 130.48 97.1404 126.79 96.5404C120.69 95.5404 115.49 100.74 116.49 106.84C117.09 110.54 120.07 113.52 123.77 114.12Z" fill="#37C6D0"/>
<path opacity="0.1" d="M125.8 81.5502V103.94C125.79 104.72 125.32 105.42 124.6 105.71C124.37 105.81 124.12 105.86 123.88 105.86H116.37C116.36 105.68 116.36 105.51 116.36 105.34C116.36 105.16 116.36 104.99 116.38 104.82C116.57 101.47 118.64 98.5102 121.72 97.1702V95.2202C114.86 94.1302 110.18 87.6902 111.27 80.8302C111.28 80.7802 111.29 80.7302 111.29 80.6902C111.34 80.3402 111.42 79.9902 111.51 79.6402H123.88C124.94 79.6302 125.8 80.4902 125.8 81.5502Z" fill="black"/>
<path opacity="0.2" d="M122.83 80.6802H111.29C110.12 87.5302 114.73 94.0202 121.58 95.1902C121.79 95.2302 122 95.2602 122.2 95.2802C118.95 96.8202 116.58 101.2 116.38 104.81C116.36 104.98 116.36 105.16 116.36 105.33C116.36 105.51 116.36 105.68 116.37 105.85C116.39 106.2 116.43 106.55 116.51 106.9H122.84C123.62 106.89 124.32 106.42 124.61 105.7C124.71 105.47 124.76 105.22 124.76 104.98V82.6002C124.75 81.5402 123.89 80.6802 122.83 80.6802Z" fill="black"/>
<path opacity="0.2" d="M122.83 80.6802H111.29C110.12 87.5302 114.73 94.0202 121.58 95.1902C121.72 95.2102 121.86 95.2402 122 95.2502C118.85 96.9002 116.58 101.27 116.38 104.81H122.83C123.89 104.8 124.74 103.95 124.75 102.89V82.6002C124.75 81.5402 123.89 80.6802 122.83 80.6802Z" fill="black"/>
<path opacity="0.2" d="M121.78 80.6802H111.29C110.19 87.1402 114.24 93.3702 120.6 94.9802C118.19 97.7302 116.72 101.17 116.38 104.81H121.78C122.84 104.81 123.7 103.95 123.7 102.89V82.6002C123.7 81.5402 122.84 80.6802 121.78 80.6802Z" fill="black"/>
<path d="M102.55 80.6802H121.78C122.84 80.6802 123.7 81.5402 123.7 82.6002V101.83C123.7 102.89 122.84 103.75 121.78 103.75H102.55C101.49 103.75 100.63 102.89 100.63 101.83V82.6002C100.62 81.5402 101.48 80.6802 102.55 80.6802Z" fill="url(#paint5_linear)"/>
<path d="M109.21 91.9804C108.76 91.6804 108.38 91.2804 108.11 90.8204C107.85 90.3304 107.71 89.7804 107.73 89.2304C107.71 88.4804 107.96 87.7404 108.44 87.1704C108.95 86.5904 109.6 86.1704 110.33 85.9304C111.16 85.6604 112.04 85.5204 112.92 85.5304C114.08 85.4904 115.23 85.6504 116.33 86.0104V88.4204C115.85 88.1304 115.33 87.9204 114.79 87.7904C114.2 87.6504 113.59 87.5704 112.99 87.5704C112.35 87.5504 111.71 87.6804 111.14 87.9604C110.7 88.1504 110.41 88.5904 110.41 89.0704C110.41 89.3604 110.52 89.6504 110.72 89.8604C110.96 90.1104 111.25 90.3104 111.56 90.4604C111.91 90.6304 112.43 90.8704 113.13 91.1504C113.21 91.1704 113.28 91.2004 113.35 91.2404C114.04 91.5104 114.7 91.8404 115.33 92.2204C115.81 92.5204 116.21 92.9204 116.5 93.4004C116.8 93.9504 116.94 94.5604 116.92 95.1804C116.95 95.9504 116.72 96.7104 116.25 97.3304C115.79 97.9004 115.17 98.3104 114.47 98.5304C113.65 98.7904 112.79 98.9104 111.93 98.9004C111.16 98.9004 110.38 98.8404 109.62 98.7104C108.98 98.6004 108.35 98.4204 107.75 98.1604V95.6204C108.32 96.0304 108.96 96.3304 109.64 96.5204C110.31 96.7304 111.02 96.8404 111.72 96.8504C112.37 96.8904 113.03 96.7504 113.61 96.4504C114.02 96.2204 114.26 95.7904 114.25 95.3204C114.25 94.9904 114.12 94.6804 113.89 94.4504C113.6 94.1704 113.27 93.9404 112.91 93.7604C112.49 93.5504 111.87 93.2704 111.06 92.9304C110.42 92.6904 109.8 92.3704 109.21 91.9804Z" fill="white"/>
<defs>
<linearGradient id="paint0_linear" x1="90.4997" y1="9.27979" x2="90.4997" y2="180.68" gradientUnits="userSpaceOnUse">
<stop stop-color="#00ABDE"/>
<stop offset="1" stop-color="#007ED8"/>
</linearGradient>
<linearGradient id="paint1_linear" x1="36.6196" y1="4.0712" x2="203.296" y2="286.402" gradientUnits="userSpaceOnUse">
<stop stop-color="#007ED8"/>
<stop offset="0.7065" stop-color="#002D4C"/>
</linearGradient>
<linearGradient id="paint2_linear" x1="42.6242" y1="67.9857" x2="71.2124" y2="94.8839" gradientUnits="userSpaceOnUse">
<stop offset="0.4598" stop-color="#1152D4"/>
<stop offset="0.6156" stop-color="#0D3FB3"/>
</linearGradient>
<linearGradient id="paint3_linear" x1="40.9328" y1="92.1272" x2="74.167" y2="92.1272" gradientUnits="userSpaceOnUse">
<stop stop-color="#388CF4"/>
<stop offset="1" stop-color="#2C7CEF"/>
</linearGradient>
<linearGradient id="paint4_linear" x1="52.8503" y1="96.0616" x2="80.5799" y2="96.0616" gradientUnits="userSpaceOnUse">
<stop stop-color="#76C0FD"/>
<stop offset="1" stop-color="#63B2FB"/>
</linearGradient>
<linearGradient id="paint5_linear" x1="104.632" y1="79.1751" x2="119.693" y2="105.261" gradientUnits="userSpaceOnUse">
<stop stop-color="#058F92"/>
<stop offset="0.5" stop-color="#038489"/>
<stop offset="1" stop-color="#026D71"/>
</linearGradient>
</defs>
</svg>
