<svg width="103" height="103" viewBox="0 0 103 103" fill="none" xmlns="http://www.w3.org/2000/svg">
<path d="M51.9228 98.6581C26.0728 98.6581 5.11279 77.7081 5.11279 51.8481C5.11279 25.9881 26.0728 5.03809 51.9228 5.03809C77.7728 5.03809 98.7328 25.9981 98.7328 51.8481C98.7328 77.6981 77.7728 98.6581 51.9228 98.6581Z" fill="url(#paint0_linear_166_42555)"/>
<path fill-rule="evenodd" clip-rule="evenodd" d="M97.8228 51.848C97.8228 77.198 77.2728 97.748 51.9228 97.748C26.5728 97.748 6.02278 77.198 6.02278 51.848C6.02278 26.498 26.5728 5.94801 51.9228 5.94801C77.2728 5.94801 97.8228 26.498 97.8228 51.848ZM51.9228 2.20801C79.3428 2.20801 101.563 24.428 101.563 51.848C101.563 79.268 79.3328 101.488 51.9228 101.488C24.5028 101.488 2.28278 79.258 2.28278 51.848C2.28278 24.428 24.5028 2.20801 51.9228 2.20801Z" fill="#F2F1F0"/>
<path fill-rule="evenodd" clip-rule="evenodd" d="M95.0128 51.8476C95.0128 75.6476 75.7228 94.9376 51.9228 94.9376C28.1228 94.9376 8.8328 75.6476 8.8328 51.8476C8.8328 28.0476 28.1228 8.75758 51.9228 8.75758C75.7228 8.75758 95.0128 28.0476 95.0128 51.8476ZM51.9228 5.01758C77.7828 5.01758 98.7528 25.9876 98.7528 51.8476C98.7528 77.7076 77.7828 98.6776 51.9228 98.6776C26.0628 98.6776 5.0928 77.7076 5.0928 51.8476C5.0928 25.9876 26.0528 5.01758 51.9228 5.01758Z" fill="url(#paint1_linear_166_42555)"/>
<path opacity="0.15" d="M89.3496 47.2131C89.3496 46.4039 88.6875 45.7313 87.8678 45.7313C87.3319 45.7313 84.0216 45.4371 82.2351 44.0499C82.2351 44.0499 82.2457 44.0289 82.2351 44.0499C81.5626 41.6014 80.5748 39.3105 79.3557 37.1352C79.0405 35.0755 81.1738 33.5727 82.1511 31.9649C82.3192 31.6812 82.4243 31.5235 82.4874 31.4079C82.666 30.8825 82.5714 30.2835 82.1511 29.8737C82.1511 29.8737 80.5117 27.5302 78.8303 25.8593C77.1489 24.1884 74.6058 22.3284 74.6058 22.3284C74.0278 21.7504 73.0925 21.7504 72.5146 22.3284C72.1362 22.6962 69.6141 24.7769 67.3337 25.1132C67.3022 25.1132 67.3022 25.1132 67.3022 25.1132C65.19 23.9152 62.815 22.9274 60.44 22.2548H60.4085C58.7271 21.0148 59.1685 18.4507 58.7271 16.6221C58.7271 15.813 58.065 15.1404 57.2454 15.1404C57.2454 15.1404 54.429 14.6465 52.054 14.6465C49.6791 14.6465 46.579 15.1404 46.579 15.1404C45.7698 15.1404 45.0972 15.8024 45.0972 16.6221C45.0972 17.1581 44.803 20.4683 43.4158 22.2548C41.0619 22.9169 38.5923 23.9677 36.5011 25.1342C34.4414 25.4495 32.9386 23.3162 31.3308 22.3389C31.0471 22.1707 30.8894 22.0657 30.7738 22.0026C30.2484 21.824 29.6494 21.9185 29.2395 22.3389C29.2395 22.3389 26.8961 23.9782 25.2252 25.6596C23.5543 27.341 21.6943 29.8842 21.6943 29.8842C21.1163 30.4621 21.1163 31.3974 21.6943 31.9754C22.0621 32.3432 24.2059 34.9073 24.4896 37.1457V37.1667C23.3231 39.258 22.3038 41.717 21.6312 44.071C21.6312 44.071 21.6627 44.0289 21.6312 44.071C20.1915 45.8154 17.8271 45.311 15.9985 45.7524C15.1894 45.7524 14.5168 46.4144 14.5168 47.2341C14.5168 47.2341 14.0229 50.0504 14.0229 52.4254C14.0229 54.8004 14.5168 57.9005 14.5168 57.9005C14.5168 58.7096 15.1789 59.3822 15.9985 59.3822C16.5345 59.3822 19.8447 59.6764 21.6312 61.0636C21.6733 61.0426 21.6522 61.0951 21.6522 61.0951C22.3353 63.4596 23.3126 65.8241 24.5001 67.9048C24.4791 67.9363 24.5001 67.9048 24.5106 67.9784C24.7103 70.1326 22.6926 71.5408 21.7153 73.1487C21.5471 73.4324 21.4421 73.59 21.379 73.7056C21.2004 74.2311 21.2949 74.8301 21.7153 75.2399C21.7153 75.2399 23.3547 77.5833 25.0361 79.2542C26.7175 80.9356 29.2606 82.7852 29.2606 82.7852C29.8385 83.3631 30.7738 83.3631 31.3518 82.7852C31.7196 82.4174 34.2837 80.2736 36.5221 79.9898C36.5221 79.9898 36.5116 80.0004 36.5536 80.0109C38.7079 81.2089 40.9253 82.1546 43.3528 82.8167C43.3738 82.8272 43.4474 82.8482 43.4474 82.8482C45.1288 84.0882 44.6874 86.6524 45.1288 88.4809C45.2234 89.3006 45.6752 89.826 46.6105 89.9626C46.6105 89.9626 49.4268 90.4566 51.8018 90.4566C54.1768 90.4566 57.2769 89.9732 57.2769 89.9732C58.086 89.8365 58.7586 89.3111 58.7586 88.4914C58.7586 87.9555 59.0529 84.6452 60.44 82.8587C60.44 82.8587 60.5031 82.8062 60.5556 82.7536C63.0252 82.0601 64.9062 81.2929 67.092 80.0424C67.2076 80.0004 67.0815 80.0109 67.3443 79.9688C69.404 79.6536 70.9067 81.7868 72.5146 82.7642C72.7983 82.9323 72.9559 83.0374 73.0715 83.1004C73.597 83.2791 74.196 83.1845 74.6058 82.7642C74.6058 82.7642 76.9492 81.1248 78.6201 79.4434C80.3015 77.762 82.1511 75.2189 82.1511 75.2189C82.7291 74.6409 82.7291 73.7056 82.1511 73.1276C81.7833 72.7598 79.6395 70.1957 79.3557 67.9573C79.3242 67.7261 79.3452 67.6946 79.3768 67.6316C80.6273 65.4352 81.405 63.8274 82.088 61.3263C82.088 61.3263 82.0565 61.2422 82.2141 61.0321C83.4542 59.3507 86.0183 59.792 87.8468 59.3507C88.656 59.3507 89.3285 58.6886 89.3285 57.8689C89.3285 57.8689 89.8225 55.0526 89.8225 52.6776C89.833 50.3237 89.3496 47.2131 89.3496 47.2131Z" fill="#1F1D20"/>
<path d="M89.3496 46.2043C89.3496 45.3951 88.6875 44.7226 87.8678 44.7226C87.3319 44.7226 84.0216 44.4283 82.2351 43.0412C82.2351 43.0412 82.2457 43.0201 82.2351 43.0412C81.5626 40.5926 80.5748 38.3017 79.3557 36.1264C79.0405 34.0667 81.1738 32.5639 82.1511 30.9561C82.3192 30.6724 82.4243 30.5147 82.4874 30.3991C82.666 29.8737 82.5714 29.2747 82.1511 28.8649C82.1511 28.8649 80.5117 26.5214 78.8303 24.8505C77.1489 23.1796 74.6058 21.3196 74.6058 21.3196C74.0278 20.7416 73.0925 20.7416 72.5146 21.3196C72.1362 21.6874 69.6141 23.7681 67.3337 24.1044C67.3022 24.1044 67.3022 24.1044 67.3022 24.1044C65.19 22.9064 62.815 21.9186 60.44 21.246H60.4085C58.7271 20.006 59.1685 17.4419 58.7271 15.6133C58.7271 14.8042 58.065 14.1316 57.2454 14.1316C57.2454 14.1316 54.429 13.6377 52.054 13.6377C49.6791 13.6377 46.579 14.1316 46.579 14.1316C45.7698 14.1316 45.0972 14.7937 45.0972 15.6133C45.0972 16.1493 44.803 19.4595 43.4158 21.246C41.0619 21.9081 38.5923 22.9589 36.5011 24.1254C34.4414 24.4407 32.9386 22.3074 31.3308 21.3301C31.0471 21.162 30.8894 21.0569 30.7738 20.9938C30.2484 20.8152 29.6494 20.9097 29.2395 21.3301C29.2395 21.3301 26.8961 22.9695 25.2252 24.6509C23.5543 26.3323 21.6943 28.8754 21.6943 28.8754C21.1163 29.4534 21.1163 30.3886 21.6943 30.9666C22.0621 31.3344 24.2059 33.8986 24.4896 36.1369V36.1579C23.3231 38.2492 22.3038 40.7082 21.6312 43.0622C21.6312 43.0622 21.6627 43.0201 21.6312 43.0622C20.1915 44.8066 17.8271 44.3022 15.9985 44.7436C15.1894 44.7436 14.5168 45.4056 14.5168 46.2253C14.5168 46.2253 14.0229 49.0416 14.0229 51.4166C14.0229 53.7916 14.5168 56.8917 14.5168 56.8917C14.5168 57.7009 15.1789 58.3734 15.9985 58.3734C16.5345 58.3734 19.8447 58.6677 21.6312 60.0548C21.6733 60.0338 21.6522 60.0863 21.6522 60.0863C22.3353 62.4508 23.3126 64.8153 24.5001 66.896C24.4791 66.9275 24.5001 66.896 24.5106 66.9696C24.7103 69.1239 22.6926 70.532 21.7153 72.1399C21.5471 72.4236 21.4421 72.5812 21.379 72.6968C21.2004 73.2223 21.2949 73.8213 21.7153 74.2311C21.7153 74.2311 23.3547 76.5746 25.0361 78.2454C26.7175 79.9268 29.2606 81.7764 29.2606 81.7764C29.8385 82.3544 30.7738 82.3544 31.3518 81.7764C31.7196 81.4086 34.2837 79.2648 36.5221 78.9811C36.5221 78.9811 36.5116 78.9916 36.5536 79.0021C38.7079 80.2001 40.9253 81.1459 43.3528 81.8079C43.3738 81.8184 43.4474 81.8394 43.4474 81.8394C45.1288 83.0795 44.6874 85.6436 45.1288 87.4721C45.2234 88.2918 45.6752 88.8172 46.6105 88.9538C46.6105 88.9538 49.4268 89.4478 51.8018 89.4478C54.1768 89.4478 57.2769 88.9644 57.2769 88.9644C58.086 88.8277 58.7586 88.3023 58.7586 87.4826C58.7586 86.9467 59.0529 83.6364 60.44 81.8499C60.44 81.8499 60.5031 81.7974 60.5556 81.7449C63.0252 81.0513 64.9062 80.2841 67.092 79.0336C67.2076 78.9916 67.0815 79.0021 67.3443 78.96C69.404 78.6448 70.9067 80.778 72.5146 81.7554C72.7983 81.9235 72.9559 82.0286 73.0715 82.0916C73.597 82.2703 74.196 82.1757 74.6058 81.7554C74.6058 81.7554 76.9492 80.116 78.6201 78.4346C80.3015 76.7532 82.1511 74.2101 82.1511 74.2101C82.7291 73.6321 82.7291 72.6968 82.1511 72.1188C81.7833 71.751 79.6395 69.1869 79.3557 66.9485C79.3242 66.7174 79.3452 66.6858 79.3768 66.6228C80.6273 64.4264 81.405 62.8186 82.088 60.3175C82.088 60.3175 82.0565 60.2335 82.2141 60.0233C83.4542 58.3419 86.0183 58.7833 87.8468 58.3419C88.656 58.3419 89.3285 57.6798 89.3285 56.8602C89.3285 56.8602 89.8225 54.0438 89.8225 51.6688C89.833 49.3149 89.3496 46.2043 89.3496 46.2043Z" fill="url(#paint2_linear_166_42555)"/>
<path d="M73.124 82.0916C73.1135 82.0916 73.1135 82.0811 73.103 82.0811C73.1135 82.0811 73.124 82.0916 73.124 82.0916Z" fill="#9FC2F6"/>
<path d="M73.103 82.0814C72.8928 81.9553 72.546 81.7451 72.546 81.7451C72.7142 81.9027 72.9033 82.0078 73.103 82.0814Z" fill="#9FC2F6"/>
<path d="M73.1241 82.0918C73.3132 82.1969 73.2712 82.1759 73.1241 82.0918V82.0918Z" fill="#9FC2F6"/>
<path d="M30.8369 21.0254C31.0471 21.1515 31.3938 21.3617 31.3938 21.3617C31.2362 21.204 31.0365 21.0884 30.8369 21.0254Z" fill="#9FC2F6"/>
<path d="M30.8158 21.0146C30.8263 21.0146 30.8263 21.0252 30.8368 21.0252C30.8263 21.0252 30.8158 21.0146 30.8158 21.0146Z" fill="#9FC2F6"/>
<path d="M30.8157 21.0146C30.6265 20.899 30.6686 20.92 30.8157 21.0146V21.0146Z" fill="#9FC2F6"/>
<path d="M21.4313 72.707C21.3157 72.8962 21.3368 72.8542 21.4313 72.707V72.707Z" fill="#9FC2F6"/>
<path d="M21.4313 72.7075C21.4313 72.697 21.4418 72.697 21.4418 72.6865C21.4418 72.697 21.4313 72.7075 21.4313 72.7075Z" fill="#9FC2F6"/>
<path d="M21.4421 72.6859C21.5682 72.4757 21.7784 72.1289 21.7784 72.1289C21.6208 72.2865 21.5157 72.4757 21.4421 72.6859Z" fill="#9FC2F6"/>
<path d="M82.498 30.4199C82.3719 30.6301 82.1617 30.9769 82.1617 30.9769C82.3193 30.8087 82.4349 30.6196 82.498 30.4199Z" fill="#9FC2F6"/>
<path d="M82.5083 30.3994C82.5083 30.4099 82.4978 30.4099 82.4978 30.4204C82.4978 30.4099 82.5083 30.3994 82.5083 30.3994Z" fill="#9FC2F6"/>
<path d="M82.5083 30.3991C82.6239 30.2099 82.6029 30.2519 82.5083 30.3991V30.3991Z" fill="#9FC2F6"/>
<path opacity="0.25" d="M34.1492 61.3878C32.3922 61.3897 30.7002 60.7251 29.4139 59.5282C28.1276 58.3313 27.3428 56.6912 27.2184 54.9386C27.0939 53.186 27.6392 51.4513 28.7434 50.0847C29.8477 48.7181 31.429 47.8211 33.1687 47.5747C32.8864 46.4533 32.7414 45.3018 32.7366 44.1455C32.7399 41.0453 33.7788 38.0354 35.6883 35.5931C37.5979 33.1508 40.2684 31.4162 43.2762 30.6652C46.2841 29.9142 49.4567 30.1897 52.2901 31.4478C55.1235 32.7059 57.4554 34.8746 58.9155 37.6094C60.1152 37.0289 61.4299 36.7265 62.7627 36.7247C65.0687 36.7283 67.2793 37.6456 68.9106 39.2755C70.5418 40.9055 71.461 43.1154 71.4664 45.4214C71.4607 46.1426 71.3712 46.8605 71.1992 47.561C71.4611 47.5326 71.7242 47.5213 71.9875 47.5268C72.8974 47.5168 73.8001 47.6878 74.6432 48.0302C75.4863 48.3725 76.253 48.8792 76.8983 49.5207C77.5437 50.1623 78.0553 50.9258 78.4026 51.7668C78.75 52.6079 78.9263 53.5095 78.9217 54.4195C78.9199 56.2646 78.1856 58.0336 76.8802 59.3377C75.5749 60.6417 73.8052 61.3741 71.9601 61.3741L34.1492 61.3878Z" fill="url(#paint3_linear_166_42555)"/>
<path d="M34.1486 61.2999C32.3916 61.3018 30.6995 60.6372 29.4132 59.4403C28.127 58.2434 27.3422 56.6033 27.2177 54.8507C27.0933 53.0981 27.6385 51.3634 28.7428 49.9968C29.8471 48.6302 31.4284 47.7332 33.168 47.4868C32.8858 46.3654 32.7408 45.2139 32.736 44.0576C32.7392 40.9574 33.7782 37.9475 35.6877 35.5052C37.5972 33.0629 40.2678 31.3283 43.2756 30.5773C46.2834 29.8263 49.456 30.1019 52.2894 31.36C55.1229 32.618 57.4548 34.7867 58.9149 37.5216C60.1146 36.941 61.4293 36.6386 62.7621 36.6368C65.0681 36.6404 67.2787 37.5577 68.9099 39.1876C70.5412 40.8176 71.4604 43.0275 71.4658 45.3335C71.4601 46.0547 71.3706 46.7726 71.1986 47.4731C71.4605 47.4447 71.7235 47.4334 71.9869 47.4389C72.8968 47.4289 73.7995 47.5999 74.6425 47.9423C75.4856 48.2846 76.2523 48.7913 76.8977 49.4329C77.543 50.0744 78.0547 50.8379 78.402 51.6789C78.7493 52.52 78.9257 53.4217 78.9211 54.3316C78.9193 56.1767 78.1849 57.9457 76.8796 59.2498C75.5743 60.5538 73.8045 61.2862 71.9594 61.2862L34.1486 61.2999Z" stroke="white" stroke-width="0.8" stroke-miterlimit="10"/>
<path opacity="0.25" d="M32.8475 45.7041C32.7831 46.2322 32.7464 46.7632 32.7376 47.2952C32.7376 47.3843 32.7376 47.4736 32.7376 47.5627C32.8757 47.5304 33.0149 47.505 33.1556 47.487C33.0133 46.9001 32.9107 46.3047 32.8475 45.7041Z" fill="url(#paint4_linear_166_42555)"/>
<path opacity="0.15" d="M71.961 61.2991H34.1502C32.5867 61.2973 31.0696 60.7694 29.8428 59.8002C28.6161 58.8309 27.7516 57.4769 27.3881 55.9563C27.2646 56.4707 27.1892 55.5243 27.1892 56.0799C27.191 57.9256 27.9249 59.6953 29.23 61.0004C30.5351 62.3055 32.3044 63.0394 34.1502 63.0412H71.961C73.8067 63.0394 75.5768 62.3055 76.8819 61.0004C78.187 59.6953 78.9209 57.9256 78.9227 56.0799C78.9227 55.5243 78.8472 56.4776 78.7238 55.9563C78.3602 57.4769 77.4951 58.8309 76.2684 59.8002C75.0416 60.7694 73.5244 61.2973 71.961 61.2991V61.2991Z" fill="#1F1D20"/>
<path opacity="0.25" d="M71.385 47.4732C71.385 47.288 71.3369 47.11 71.3026 46.9316C71.2683 47.1168 71.2482 47.3017 71.2002 47.4869C71.2612 47.4755 71.323 47.4709 71.385 47.4732V47.4732Z" fill="url(#paint5_linear_166_42555)"/>
<path d="M57.4632 64.8661C56.827 59.1609 51.9331 54.6748 46.0116 54.6748C40.139 54.6748 35.294 59.0634 34.56 64.7198C34.4621 65.1099 34.4621 65.5488 34.4621 65.9389C34.6089 67.548 35.7345 69.1085 37.8388 70.3275C42.3412 72.912 49.682 72.912 54.1354 70.3275C56.2397 69.1085 57.3164 67.548 57.4632 65.9389C57.5611 65.5976 57.5121 65.2075 57.4632 64.8661Z" fill="url(#paint6_radial_166_42555)"/>
<path d="M46.0202 53.5061C49.8502 53.5061 52.955 50.4186 52.955 46.61C52.955 42.8014 49.8502 39.7139 46.0202 39.7139C42.1902 39.7139 39.0854 42.8014 39.0854 46.61C39.0854 50.4186 42.1902 53.5061 46.0202 53.5061Z" fill="url(#paint7_radial_166_42555)"/>
<path opacity="0.15" fill-rule="evenodd" clip-rule="evenodd" d="M50.7318 61.1677L50.6206 61.0565C50.0318 60.4686 49.2337 60.1384 48.4016 60.1384C47.5695 60.1384 46.7714 60.4686 46.1826 61.0565L46.0714 61.1677L45.9602 61.0565C45.6684 60.764 45.3219 60.5319 44.9403 60.3736C44.5587 60.2153 44.1497 60.1338 43.7365 60.1338C43.3234 60.1338 42.9144 60.2153 42.5328 60.3736C42.1512 60.5319 41.8046 60.764 41.5129 61.0565L41.4109 61.1584C40.8231 61.7473 40.4929 62.5453 40.4929 63.3774C40.4929 64.2095 40.8231 65.0076 41.4109 65.5964L41.5221 65.7076L45.9231 70.1086C45.9422 70.1288 45.9652 70.1449 45.9907 70.1559C46.0161 70.1669 46.0436 70.1726 46.0714 70.1726C46.0991 70.1726 46.1266 70.1669 46.1521 70.1559C46.1776 70.1449 46.2006 70.1288 46.2196 70.1086L50.7318 65.5964C51.3191 65.0091 51.6491 64.2126 51.6491 63.382C51.6491 62.5515 51.3191 61.755 50.7318 61.1677V61.1677Z" fill="#1F1D20"/>
<path d="M44.1457 59.7632C44.9774 59.7666 45.1867 59.7646 45.7731 60.3545L45.9509 60.467L46.1723 60.3944C46.7615 59.8031 46.9322 60.031 47.7669 60.0289C48.179 60.0291 48.2174 59.3217 48.5975 59.4808C48.9776 59.6398 48.3247 59.9516 48.6141 60.2449L49.3284 60.4941C49.9163 61.0829 49.3284 60.4261 49.3284 61.2582C49.3284 62.0903 50.2319 61.4833 49.644 62.0721L46.5543 66.1585L46.4061 66.3067L46.2578 66.1585L42.8666 63.318L42.7462 63.1975C42.4529 62.9072 42.2614 63.4331 42.1025 63.0522C41.9436 62.6713 41.8367 62.3519 41.8367 61.9392C41.8367 61.5265 41.9427 61.3802 42.1017 60.9993C42.2606 60.6184 42.4737 60.9837 42.767 60.6934L42.9331 60.328C43.2245 60.0348 42.485 59.6232 42.8666 59.4642C43.2482 59.3052 43.4238 59.7455 43.8372 59.745L44.1457 59.7632ZM43.7721 57.8399C43.29 57.8384 42.8125 57.9326 42.3672 58.1171C41.9218 58.3016 41.437 58.5716 41.0972 58.9136L40.9953 59.0247C40.6535 59.3607 40.4366 59.745 40.252 60.1873C40.0675 60.6296 39.9732 61.1045 39.9748 61.5838C39.9733 62.0658 40.0676 62.5434 40.2521 62.9887C40.4366 63.4341 40.7152 63.7955 41.0572 64.1352L41.1313 64.2093L41.17 64.2522L45.6081 68.6439L45.71 68.7551C45.81 68.8503 45.9427 68.9034 46.0806 68.9034C46.1477 68.9036 46.2141 68.8907 46.2761 68.8653C46.3381 68.8398 46.3945 68.8024 46.442 68.7551L46.5624 68.6439L46.618 68.5791L51.1024 64.0946C51.4443 63.7586 51.7154 63.3577 51.9 62.9153C52.0846 62.473 52.1788 61.9982 52.1772 61.5189C52.1787 61.0369 52.0845 60.5593 51.9 60.114C51.7155 59.6687 51.4918 59.3374 51.1498 58.9977L51.0479 58.8957C50.4047 58.2499 49.4959 57.9186 48.5855 57.8757C47.6751 57.8329 46.7816 58.1361 46.0806 58.7186C45.4264 58.1694 44.6263 57.8413 43.7721 57.8399Z" fill="white"/>
<path fill-rule="evenodd" clip-rule="evenodd" d="M50.2337 63.8955L46.0717 68.0574L41.8247 63.8105C41.5559 63.5443 41.3424 63.2275 41.1967 62.8783C41.0511 62.5291 40.9761 62.1545 40.9761 61.7762C40.9761 61.3979 41.0511 61.0233 41.1967 60.6741C41.3424 60.3249 41.5559 60.0081 41.8247 59.7419L41.9182 59.6485C42.1844 59.3796 42.5012 59.1662 42.8504 59.0205C43.1995 58.8748 43.5741 58.7998 43.9525 58.7998C44.3308 58.7998 44.7054 58.8748 45.0546 59.0205C45.4038 59.1662 45.7206 59.3796 45.9868 59.6485L50.2337 63.8955Z" fill="url(#paint8_linear_166_42555)"/>
<path fill-rule="evenodd" clip-rule="evenodd" d="M45.9278 67.9213L41.9017 63.8952L46.1486 59.6482C46.6885 59.1093 47.4201 58.8066 48.1829 58.8066C48.9457 58.8066 49.6774 59.1093 50.2172 59.6482L50.3191 59.7501C50.8581 60.29 51.1607 61.0216 51.1607 61.7844C51.1607 62.5472 50.8581 63.2788 50.3191 63.8187L46.1911 67.9383C46.1523 67.9672 46.1046 67.9812 46.0563 67.9781C46.0081 67.975 45.9626 67.9549 45.9278 67.9213V67.9213Z" fill="url(#paint9_linear_166_42555)"/>
<path opacity="0.2" d="M72.1799 58.9756C73.763 58.9756 75.049 58.1678 75.049 57.1743C75.049 56.1808 73.763 55.373 72.1799 55.373C70.5969 55.373 69.3109 56.1808 69.3109 57.1743C69.3109 58.1678 70.5969 58.9756 72.1799 58.9756Z" fill="#1F1D21"/>
<path opacity="0.2" d="M65.9079 59.0645C67.491 59.0645 68.777 58.2567 68.777 57.2632C68.777 56.2697 67.491 55.4619 65.9079 55.4619C64.3248 55.4619 63.0389 56.2697 63.0389 57.2632C63.0389 58.2567 64.3248 59.0645 65.9079 59.0645Z" fill="#1F1D21"/>
<path d="M68.8142 56.8683C68.6563 55.4291 67.4214 54.3057 65.9312 54.3057C64.4549 54.3057 63.2246 55.4106 63.0482 56.8358C63.025 56.9333 63.025 57.0447 63.025 57.1469C63.0575 57.5508 63.3499 57.9454 63.8745 58.2518C65.0073 58.9017 66.8597 58.9017 67.9785 58.2518C68.5077 57.9407 68.7817 57.5508 68.8142 57.1469C68.8374 57.054 68.8281 56.9565 68.8142 56.8683Z" fill="white"/>
<path d="M65.9265 54.0082C66.8922 54.0082 67.6767 53.2283 67.6767 52.2673C67.6767 51.3063 66.8922 50.5264 65.9265 50.5264C64.9609 50.5264 64.1763 51.3063 64.1763 52.2673C64.1763 53.2283 64.9609 54.0082 65.9265 54.0082Z" fill="white"/>
<path d="M75.0258 56.6496C74.8679 55.2104 73.633 54.0869 72.1428 54.0869C70.6665 54.0869 69.4362 55.1918 69.2598 56.6171C69.2366 56.7146 69.2366 56.826 69.2366 56.9281C69.2691 57.332 69.5616 57.7266 70.0862 58.033C71.2189 58.683 73.0713 58.683 74.1901 58.033C74.7194 57.722 74.9933 57.332 75.0258 56.9281C75.0536 56.8353 75.0397 56.7331 75.0258 56.6496Z" fill="white"/>
<path d="M72.1428 53.7856C73.1084 53.7856 73.893 53.0056 73.893 52.0446C73.893 51.0836 73.1038 50.3037 72.1428 50.3037C71.1772 50.3037 70.3926 51.0836 70.3926 52.0446C70.3926 53.0056 71.1772 53.7856 72.1428 53.7856Z" fill="white"/>
<path opacity="0.2" d="M59.752 58.9619C61.3351 58.9619 62.6211 58.1542 62.6211 57.1607C62.6211 56.1672 61.3351 55.3594 59.752 55.3594C58.1689 55.3594 56.8829 56.1672 56.8829 57.1607C56.8829 58.1542 58.1689 58.9619 59.752 58.9619Z" fill="#1F1D21"/>
<path d="M62.5978 56.6496C62.44 55.2104 61.2051 54.0869 59.7149 54.0869C58.2385 54.0869 57.0083 55.1918 56.8319 56.6171C56.804 56.7146 56.804 56.826 56.804 56.9281C56.8365 57.332 57.129 57.7266 57.6536 58.033C58.7864 58.683 60.6387 58.683 61.7576 58.033C62.2868 57.722 62.5607 57.332 62.5932 56.9281C62.6211 56.8353 62.6118 56.7331 62.5978 56.6496Z" fill="white"/>
<path d="M59.7148 53.7856C60.6805 53.7856 61.4651 53.0056 61.4651 52.0446C61.4651 51.0836 60.6805 50.3037 59.7148 50.3037C58.7492 50.3037 57.9646 51.0836 57.9646 52.0446C57.9646 53.0056 58.7492 53.7856 59.7148 53.7856Z" fill="white"/>
<path opacity="0.15" d="M89.3496 47.2131C89.3496 46.4039 88.6875 45.7313 87.8678 45.7313C87.3319 45.7313 84.0216 45.4371 82.2351 44.0499C82.2351 44.0499 82.2457 44.0289 82.2351 44.0499C81.5626 41.6014 80.5748 39.3105 79.3557 37.1352C79.0405 35.0755 81.1738 33.5727 82.1511 31.9649C82.3192 31.6812 82.4243 31.5235 82.4874 31.4079C82.666 30.8825 82.5714 30.2835 82.1511 29.8737C82.1511 29.8737 80.5117 27.5302 78.8303 25.8593C77.1489 24.1884 74.6058 22.3284 74.6058 22.3284C74.0278 21.7504 73.0925 21.7504 72.5146 22.3284C72.1362 22.6962 69.6141 24.7769 67.3337 25.1132C67.3022 25.1132 67.3022 25.1132 67.3022 25.1132C65.19 23.9152 62.815 22.9274 60.44 22.2548H60.4085C58.7271 21.0148 59.1685 18.4507 58.7271 16.6221C58.7271 15.813 58.065 15.1404 57.2454 15.1404C57.2454 15.1404 54.429 14.6465 52.054 14.6465C49.6791 14.6465 46.579 15.1404 46.579 15.1404C45.7698 15.1404 45.0972 15.8024 45.0972 16.6221C45.0972 17.1581 44.803 20.4683 43.4158 22.2548C41.0619 22.9169 38.5923 23.9677 36.5011 25.1342C34.4414 25.4495 32.9386 23.3162 31.3308 22.3389C31.0471 22.1707 30.8894 22.0657 30.7738 22.0026C30.2484 21.824 29.6494 21.9185 29.2395 22.3389C29.2395 22.3389 26.8961 23.9782 25.2252 25.6596C23.5543 27.341 21.6943 29.8842 21.6943 29.8842C21.1163 30.4621 21.1163 31.3974 21.6943 31.9754C22.0621 32.3432 24.2059 34.9073 24.4896 37.1457V37.1667C23.3231 39.258 22.3038 41.717 21.6312 44.071C21.6312 44.071 21.6627 44.0289 21.6312 44.071C20.1915 45.8154 17.8271 45.311 15.9985 45.7524C15.1894 45.7524 14.5168 46.4144 14.5168 47.2341C14.5168 47.2341 14.0229 50.0504 14.0229 52.4254C14.0229 54.8004 14.5168 57.9005 14.5168 57.9005C14.5168 58.7096 15.1789 59.3822 15.9985 59.3822C16.5345 59.3822 19.8447 59.6764 21.6312 61.0636C21.6733 61.0426 21.6522 61.0951 21.6522 61.0951C22.3353 63.4596 23.3126 65.8241 24.5001 67.9048C24.4791 67.9363 24.5001 67.9048 24.5106 67.9784C24.7103 70.1326 22.6926 71.5408 21.7153 73.1487C21.5471 73.4324 21.4421 73.59 21.379 73.7056C21.2004 74.2311 21.2949 74.8301 21.7153 75.2399C21.7153 75.2399 23.3547 77.5833 25.0361 79.2542C26.7175 80.9356 29.2606 82.7852 29.2606 82.7852C29.8385 83.3631 30.7738 83.3631 31.3518 82.7852C31.7196 82.4174 34.2837 80.2736 36.5221 79.9898C36.5221 79.9898 36.5116 80.0004 36.5536 80.0109C38.7079 81.2089 40.9253 82.1546 43.3528 82.8167C43.3738 82.8272 43.4474 82.8482 43.4474 82.8482C45.1288 84.0882 44.6874 86.6524 45.1288 88.4809C45.2234 89.3006 45.6752 89.826 46.6105 89.9626C46.6105 89.9626 49.4268 90.4566 51.8018 90.4566C54.1768 90.4566 57.2769 89.9732 57.2769 89.9732C58.086 89.8365 58.7586 89.3111 58.7586 88.4914C58.7586 87.9555 59.0529 84.6452 60.44 82.8587C60.44 82.8587 60.5031 82.8062 60.5556 82.7536C63.0252 82.0601 64.9062 81.2929 67.092 80.0424C67.2076 80.0004 67.0815 80.0109 67.3443 79.9688C69.404 79.6536 70.9067 81.7868 72.5146 82.7642C72.7983 82.9323 72.9559 83.0374 73.0715 83.1004C73.597 83.2791 74.196 83.1845 74.6058 82.7642C74.6058 82.7642 76.9492 81.1248 78.6201 79.4434C80.3015 77.762 82.1511 75.2189 82.1511 75.2189C82.7291 74.6409 82.7291 73.7056 82.1511 73.1276C81.7833 72.7598 79.6395 70.1957 79.3557 67.9573C79.3242 67.7261 79.3452 67.6946 79.3768 67.6316C80.6273 65.4352 81.405 63.8274 82.088 61.3263C82.088 61.3263 82.0565 61.2422 82.2141 61.0321C83.4542 59.3507 86.0183 59.792 87.8468 59.3507C88.656 59.3507 89.3285 58.6886 89.3285 57.8689C89.3285 57.8689 89.8225 55.0526 89.8225 52.6776C89.833 50.3237 89.3496 47.2131 89.3496 47.2131Z" fill="#1F1D20"/>
<path d="M89.3496 46.2043C89.3496 45.3951 88.6875 44.7226 87.8678 44.7226C87.3319 44.7226 84.0216 44.4283 82.2351 43.0412C82.2351 43.0412 82.2457 43.0201 82.2351 43.0412C81.5626 40.5926 80.5748 38.3017 79.3557 36.1264C79.0405 34.0667 81.1738 32.5639 82.1511 30.9561C82.3192 30.6724 82.4243 30.5147 82.4874 30.3991C82.666 29.8737 82.5714 29.2747 82.1511 28.8649C82.1511 28.8649 80.5117 26.5214 78.8303 24.8505C77.1489 23.1796 74.6058 21.3196 74.6058 21.3196C74.0278 20.7416 73.0925 20.7416 72.5146 21.3196C72.1362 21.6874 69.6141 23.7681 67.3337 24.1044C67.3022 24.1044 67.3022 24.1044 67.3022 24.1044C65.19 22.9064 62.815 21.9186 60.44 21.246H60.4085C58.7271 20.006 59.1685 17.4419 58.7271 15.6133C58.7271 14.8042 58.065 14.1316 57.2454 14.1316C57.2454 14.1316 54.429 13.6377 52.054 13.6377C49.6791 13.6377 46.579 14.1316 46.579 14.1316C45.7698 14.1316 45.0972 14.7937 45.0972 15.6133C45.0972 16.1493 44.803 19.4595 43.4158 21.246C41.0619 21.9081 38.5923 22.9589 36.5011 24.1254C34.4414 24.4407 32.9386 22.3074 31.3308 21.3301C31.0471 21.162 30.8894 21.0569 30.7738 20.9938C30.2484 20.8152 29.6494 20.9097 29.2395 21.3301C29.2395 21.3301 26.8961 22.9695 25.2252 24.6509C23.5543 26.3323 21.6943 28.8754 21.6943 28.8754C21.1163 29.4534 21.1163 30.3886 21.6943 30.9666C22.0621 31.3344 24.2059 33.8986 24.4896 36.1369V36.1579C23.3231 38.2492 22.3038 40.7082 21.6312 43.0622C21.6312 43.0622 21.6627 43.0201 21.6312 43.0622C20.1915 44.8066 17.8271 44.3022 15.9985 44.7436C15.1894 44.7436 14.5168 45.4056 14.5168 46.2253C14.5168 46.2253 14.0229 49.0416 14.0229 51.4166C14.0229 53.7916 14.5168 56.8917 14.5168 56.8917C14.5168 57.7009 15.1789 58.3734 15.9985 58.3734C16.5345 58.3734 19.8447 58.6677 21.6312 60.0548C21.6733 60.0338 21.6522 60.0863 21.6522 60.0863C22.3353 62.4508 23.3126 64.8153 24.5001 66.896C24.4791 66.9275 24.5001 66.896 24.5106 66.9696C24.7103 69.1239 22.6926 70.532 21.7153 72.1399C21.5471 72.4236 21.4421 72.5812 21.379 72.6968C21.2004 73.2223 21.2949 73.8213 21.7153 74.2311C21.7153 74.2311 23.3547 76.5746 25.0361 78.2454C26.7175 79.9268 29.2606 81.7764 29.2606 81.7764C29.8385 82.3544 30.7738 82.3544 31.3518 81.7764C31.7196 81.4086 34.2837 79.2648 36.5221 78.9811C36.5221 78.9811 36.5116 78.9916 36.5536 79.0021C38.7079 80.2001 40.9253 81.1459 43.3528 81.8079C43.3738 81.8184 43.4474 81.8394 43.4474 81.8394C45.1288 83.0795 44.6874 85.6436 45.1288 87.4721C45.2234 88.2918 45.6752 88.8172 46.6105 88.9538C46.6105 88.9538 49.4268 89.4478 51.8018 89.4478C54.1768 89.4478 57.2769 88.9644 57.2769 88.9644C58.086 88.8277 58.7586 88.3023 58.7586 87.4826C58.7586 86.9467 59.0529 83.6364 60.44 81.8499C60.44 81.8499 60.5031 81.7974 60.5556 81.7449C63.0252 81.0513 64.9062 80.2841 67.092 79.0336C67.2076 78.9916 67.0815 79.0021 67.3443 78.96C69.404 78.6448 70.9067 80.778 72.5146 81.7554C72.7983 81.9235 72.9559 82.0286 73.0715 82.0916C73.597 82.2703 74.196 82.1757 74.6058 81.7554C74.6058 81.7554 76.9492 80.116 78.6201 78.4346C80.3015 76.7532 82.1511 74.2101 82.1511 74.2101C82.7291 73.6321 82.7291 72.6968 82.1511 72.1188C81.7833 71.751 79.6395 69.1869 79.3557 66.9485C79.3242 66.7174 79.3452 66.6858 79.3768 66.6228C80.6273 64.4264 81.405 62.8186 82.088 60.3175C82.088 60.3175 82.0565 60.2335 82.2141 60.0233C83.4542 58.3419 86.0183 58.7833 87.8468 58.3419C88.656 58.3419 89.3285 57.6798 89.3285 56.8602C89.3285 56.8602 89.8225 54.0438 89.8225 51.6688C89.833 49.3149 89.3496 46.2043 89.3496 46.2043Z" fill="url(#paint10_linear_166_42555)"/>
<path d="M73.124 82.0916C73.1135 82.0916 73.1135 82.0811 73.103 82.0811C73.1135 82.0811 73.124 82.0916 73.124 82.0916Z" fill="#9FC2F6"/>
<path d="M73.103 82.0814C72.8928 81.9553 72.546 81.7451 72.546 81.7451C72.7142 81.9027 72.9033 82.0078 73.103 82.0814Z" fill="#9FC2F6"/>
<path d="M73.1241 82.0918C73.3132 82.1969 73.2712 82.1759 73.1241 82.0918V82.0918Z" fill="#9FC2F6"/>
<path d="M30.8369 21.0254C31.0471 21.1515 31.3938 21.3617 31.3938 21.3617C31.2362 21.204 31.0365 21.0884 30.8369 21.0254Z" fill="#9FC2F6"/>
<path d="M30.8158 21.0146C30.8263 21.0146 30.8263 21.0252 30.8368 21.0252C30.8263 21.0252 30.8158 21.0146 30.8158 21.0146Z" fill="#9FC2F6"/>
<path d="M30.8157 21.0146C30.6265 20.899 30.6686 20.92 30.8157 21.0146V21.0146Z" fill="#9FC2F6"/>
<path d="M21.4313 72.707C21.3157 72.8962 21.3368 72.8542 21.4313 72.707V72.707Z" fill="#9FC2F6"/>
<path d="M21.4313 72.7075C21.4313 72.697 21.4418 72.697 21.4418 72.6865C21.4418 72.697 21.4313 72.7075 21.4313 72.7075Z" fill="#9FC2F6"/>
<path d="M21.4421 72.6859C21.5682 72.4757 21.7784 72.1289 21.7784 72.1289C21.6208 72.2865 21.5157 72.4757 21.4421 72.6859Z" fill="#9FC2F6"/>
<path d="M82.498 30.4199C82.3719 30.6301 82.1617 30.9769 82.1617 30.9769C82.3193 30.8087 82.4349 30.6196 82.498 30.4199Z" fill="#9FC2F6"/>
<path d="M82.5083 30.3994C82.5083 30.4099 82.4978 30.4099 82.4978 30.4204C82.4978 30.4099 82.5083 30.3994 82.5083 30.3994Z" fill="#9FC2F6"/>
<path d="M82.5083 30.3991C82.6239 30.2099 82.6029 30.2519 82.5083 30.3991V30.3991Z" fill="#9FC2F6"/>
<path opacity="0.25" d="M34.1492 61.3878C32.3922 61.3897 30.7002 60.7251 29.4139 59.5282C28.1276 58.3313 27.3428 56.6912 27.2184 54.9386C27.0939 53.186 27.6392 51.4513 28.7434 50.0847C29.8477 48.7181 31.429 47.8211 33.1687 47.5747C32.8864 46.4533 32.7414 45.3018 32.7366 44.1455C32.7399 41.0453 33.7788 38.0354 35.6883 35.5931C37.5979 33.1508 40.2684 31.4162 43.2762 30.6652C46.2841 29.9142 49.4567 30.1897 52.2901 31.4478C55.1235 32.7059 57.4554 34.8746 58.9155 37.6094C60.1152 37.0289 61.4299 36.7265 62.7627 36.7247C65.0687 36.7283 67.2793 37.6456 68.9106 39.2755C70.5418 40.9055 71.461 43.1154 71.4664 45.4214C71.4607 46.1426 71.3712 46.8605 71.1992 47.561C71.4611 47.5326 71.7242 47.5213 71.9875 47.5268C72.8974 47.5168 73.8001 47.6878 74.6432 48.0302C75.4863 48.3725 76.253 48.8792 76.8983 49.5207C77.5437 50.1623 78.0553 50.9258 78.4026 51.7668C78.75 52.6079 78.9263 53.5095 78.9217 54.4195C78.9199 56.2646 78.1856 58.0336 76.8802 59.3377C75.5749 60.6417 73.8052 61.3741 71.9601 61.3741L34.1492 61.3878Z" fill="url(#paint11_linear_166_42555)"/>
<path d="M34.1486 61.2999C32.3916 61.3018 30.6995 60.6372 29.4132 59.4403C28.127 58.2434 27.3422 56.6033 27.2177 54.8507C27.0933 53.0981 27.6385 51.3634 28.7428 49.9968C29.8471 48.6302 31.4284 47.7332 33.168 47.4868C32.8858 46.3654 32.7408 45.2139 32.736 44.0576C32.7392 40.9574 33.7782 37.9475 35.6877 35.5052C37.5972 33.0629 40.2678 31.3283 43.2756 30.5773C46.2834 29.8263 49.456 30.1019 52.2894 31.36C55.1229 32.618 57.4548 34.7867 58.9149 37.5216C60.1146 36.941 61.4293 36.6386 62.7621 36.6368C65.0681 36.6404 67.2787 37.5577 68.9099 39.1876C70.5412 40.8176 71.4604 43.0275 71.4658 45.3335C71.4601 46.0547 71.3706 46.7726 71.1986 47.4731C71.4605 47.4447 71.7235 47.4334 71.9869 47.4389C72.8968 47.4289 73.7995 47.5999 74.6425 47.9423C75.4856 48.2846 76.2523 48.7913 76.8977 49.4329C77.543 50.0744 78.0547 50.8379 78.402 51.6789C78.7493 52.52 78.9257 53.4217 78.9211 54.3316C78.9193 56.1767 78.1849 57.9457 76.8796 59.2498C75.5743 60.5538 73.8045 61.2862 71.9594 61.2862L34.1486 61.2999Z" stroke="white" stroke-width="0.8" stroke-miterlimit="10"/>
<path opacity="0.25" d="M32.8475 45.7041C32.7831 46.2322 32.7464 46.7632 32.7376 47.2952C32.7376 47.3843 32.7376 47.4736 32.7376 47.5627C32.8757 47.5304 33.0149 47.505 33.1556 47.487C33.0133 46.9001 32.9107 46.3047 32.8475 45.7041Z" fill="url(#paint12_linear_166_42555)"/>
<path opacity="0.15" d="M71.961 61.2991H34.1502C32.5867 61.2973 31.0696 60.7694 29.8428 59.8002C28.6161 58.8309 27.7516 57.4769 27.3881 55.9563C27.2646 56.4707 27.1892 55.5243 27.1892 56.0799C27.191 57.9256 27.9249 59.6953 29.23 61.0004C30.5351 62.3055 32.3044 63.0394 34.1502 63.0412H71.961C73.8067 63.0394 75.5768 62.3055 76.8819 61.0004C78.187 59.6953 78.9209 57.9256 78.9227 56.0799C78.9227 55.5243 78.8472 56.4776 78.7238 55.9563C78.3602 57.4769 77.4951 58.8309 76.2684 59.8002C75.0416 60.7694 73.5244 61.2973 71.961 61.2991V61.2991Z" fill="#1F1D20"/>
<path opacity="0.25" d="M71.385 47.4732C71.385 47.288 71.3369 47.11 71.3026 46.9316C71.2683 47.1168 71.2482 47.3017 71.2002 47.4869C71.2612 47.4755 71.323 47.4709 71.385 47.4732V47.4732Z" fill="url(#paint13_linear_166_42555)"/>
<path d="M57.4632 64.8661C56.827 59.1609 51.9331 54.6748 46.0116 54.6748C40.139 54.6748 35.294 59.0634 34.56 64.7198C34.4621 65.1099 34.4621 65.5488 34.4621 65.9389C34.6089 67.548 35.7345 69.1085 37.8388 70.3275C42.3412 72.912 49.682 72.912 54.1354 70.3275C56.2397 69.1085 57.3164 67.548 57.4632 65.9389C57.5611 65.5976 57.5121 65.2075 57.4632 64.8661Z" fill="url(#paint14_radial_166_42555)"/>
<path d="M46.0202 53.5061C49.8502 53.5061 52.955 50.4186 52.955 46.61C52.955 42.8014 49.8502 39.7139 46.0202 39.7139C42.1902 39.7139 39.0854 42.8014 39.0854 46.61C39.0854 50.4186 42.1902 53.5061 46.0202 53.5061Z" fill="url(#paint15_radial_166_42555)"/>
<path opacity="0.15" fill-rule="evenodd" clip-rule="evenodd" d="M50.7318 61.1677L50.6206 61.0565C50.0318 60.4686 49.2337 60.1384 48.4016 60.1384C47.5695 60.1384 46.7714 60.4686 46.1826 61.0565L46.0714 61.1677L45.9602 61.0565C45.6684 60.764 45.3219 60.5319 44.9403 60.3736C44.5587 60.2153 44.1497 60.1338 43.7365 60.1338C43.3234 60.1338 42.9144 60.2153 42.5328 60.3736C42.1512 60.5319 41.8046 60.764 41.5129 61.0565L41.4109 61.1584C40.8231 61.7473 40.4929 62.5453 40.4929 63.3774C40.4929 64.2095 40.8231 65.0076 41.4109 65.5964L41.5221 65.7076L45.9231 70.1086C45.9422 70.1288 45.9652 70.1449 45.9907 70.1559C46.0161 70.1669 46.0436 70.1726 46.0714 70.1726C46.0991 70.1726 46.1266 70.1669 46.1521 70.1559C46.1776 70.1449 46.2006 70.1288 46.2196 70.1086L50.7318 65.5964C51.3191 65.0091 51.6491 64.2126 51.6491 63.382C51.6491 62.5515 51.3191 61.755 50.7318 61.1677V61.1677Z" fill="#1F1D20"/>
<path d="M44.1457 59.7632C44.9774 59.7666 45.1867 59.7646 45.7731 60.3545L45.9509 60.467L46.1723 60.3944C46.7615 59.8031 46.9322 60.031 47.7669 60.0289C48.179 60.0291 48.2174 59.3217 48.5975 59.4808C48.9776 59.6398 48.3247 59.9516 48.6141 60.2449L49.3284 60.4941C49.9163 61.0829 49.3284 60.4261 49.3284 61.2582C49.3284 62.0903 50.2319 61.4833 49.644 62.0721L46.5543 66.1585L46.4061 66.3067L46.2578 66.1585L42.8666 63.318L42.7462 63.1975C42.4529 62.9072 42.2614 63.4331 42.1025 63.0522C41.9436 62.6713 41.8367 62.3519 41.8367 61.9392C41.8367 61.5265 41.9427 61.3802 42.1017 60.9993C42.2606 60.6184 42.4737 60.9837 42.767 60.6934L42.9331 60.328C43.2245 60.0348 42.485 59.6232 42.8666 59.4642C43.2482 59.3052 43.4238 59.7455 43.8372 59.745L44.1457 59.7632ZM43.7721 57.8399C43.29 57.8384 42.8125 57.9326 42.3672 58.1171C41.9218 58.3016 41.437 58.5716 41.0972 58.9136L40.9953 59.0247C40.6535 59.3607 40.4366 59.745 40.252 60.1873C40.0675 60.6296 39.9732 61.1045 39.9748 61.5838C39.9733 62.0658 40.0676 62.5434 40.2521 62.9887C40.4366 63.4341 40.7152 63.7955 41.0572 64.1352L41.1313 64.2093L41.17 64.2522L45.6081 68.6439L45.71 68.7551C45.81 68.8503 45.9427 68.9034 46.0806 68.9034C46.1477 68.9036 46.2141 68.8907 46.2761 68.8653C46.3381 68.8398 46.3945 68.8024 46.442 68.7551L46.5624 68.6439L46.618 68.5791L51.1024 64.0946C51.4443 63.7586 51.7154 63.3577 51.9 62.9153C52.0846 62.473 52.1788 61.9982 52.1772 61.5189C52.1787 61.0369 52.0845 60.5593 51.9 60.114C51.7155 59.6687 51.4918 59.3374 51.1498 58.9977L51.0479 58.8957C50.4047 58.2499 49.4959 57.9186 48.5855 57.8757C47.6751 57.8329 46.7816 58.1361 46.0806 58.7186C45.4264 58.1694 44.6263 57.8413 43.7721 57.8399Z" fill="white"/>
<path fill-rule="evenodd" clip-rule="evenodd" d="M50.2337 63.8955L46.0717 68.0574L41.8247 63.8105C41.5559 63.5443 41.3424 63.2275 41.1967 62.8783C41.0511 62.5291 40.9761 62.1545 40.9761 61.7762C40.9761 61.3979 41.0511 61.0233 41.1967 60.6741C41.3424 60.3249 41.5559 60.0081 41.8247 59.7419L41.9182 59.6485C42.1844 59.3796 42.5012 59.1662 42.8504 59.0205C43.1995 58.8748 43.5741 58.7998 43.9525 58.7998C44.3308 58.7998 44.7054 58.8748 45.0546 59.0205C45.4038 59.1662 45.7206 59.3796 45.9868 59.6485L50.2337 63.8955Z" fill="url(#paint16_linear_166_42555)"/>
<path fill-rule="evenodd" clip-rule="evenodd" d="M45.9278 67.9213L41.9017 63.8952L46.1486 59.6482C46.6885 59.1093 47.4201 58.8066 48.1829 58.8066C48.9457 58.8066 49.6774 59.1093 50.2172 59.6482L50.3191 59.7501C50.8581 60.29 51.1607 61.0216 51.1607 61.7844C51.1607 62.5472 50.8581 63.2788 50.3191 63.8187L46.1911 67.9383C46.1523 67.9672 46.1046 67.9812 46.0563 67.9781C46.0081 67.975 45.9626 67.9549 45.9278 67.9213V67.9213Z" fill="url(#paint17_linear_166_42555)"/>
<path opacity="0.2" d="M72.1799 58.9756C73.763 58.9756 75.049 58.1678 75.049 57.1743C75.049 56.1808 73.763 55.373 72.1799 55.373C70.5969 55.373 69.3109 56.1808 69.3109 57.1743C69.3109 58.1678 70.5969 58.9756 72.1799 58.9756Z" fill="#1F1D21"/>
<path opacity="0.2" d="M65.9079 59.0645C67.491 59.0645 68.777 58.2567 68.777 57.2632C68.777 56.2697 67.491 55.4619 65.9079 55.4619C64.3248 55.4619 63.0389 56.2697 63.0389 57.2632C63.0389 58.2567 64.3248 59.0645 65.9079 59.0645Z" fill="#1F1D21"/>
<path d="M68.8142 56.8683C68.6563 55.4291 67.4214 54.3057 65.9312 54.3057C64.4549 54.3057 63.2246 55.4106 63.0482 56.8358C63.025 56.9333 63.025 57.0447 63.025 57.1469C63.0575 57.5508 63.3499 57.9454 63.8745 58.2518C65.0073 58.9017 66.8597 58.9017 67.9785 58.2518C68.5077 57.9407 68.7817 57.5508 68.8142 57.1469C68.8374 57.054 68.8281 56.9565 68.8142 56.8683Z" fill="white"/>
<path d="M65.9265 54.0082C66.8922 54.0082 67.6767 53.2283 67.6767 52.2673C67.6767 51.3063 66.8922 50.5264 65.9265 50.5264C64.9609 50.5264 64.1763 51.3063 64.1763 52.2673C64.1763 53.2283 64.9609 54.0082 65.9265 54.0082Z" fill="white"/>
<path d="M75.0258 56.6496C74.8679 55.2104 73.633 54.0869 72.1428 54.0869C70.6665 54.0869 69.4362 55.1918 69.2598 56.6171C69.2366 56.7146 69.2366 56.826 69.2366 56.9281C69.2691 57.332 69.5616 57.7266 70.0862 58.033C71.2189 58.683 73.0713 58.683 74.1901 58.033C74.7194 57.722 74.9933 57.332 75.0258 56.9281C75.0536 56.8353 75.0397 56.7331 75.0258 56.6496Z" fill="white"/>
<path d="M72.1428 53.7856C73.1084 53.7856 73.893 53.0056 73.893 52.0446C73.893 51.0836 73.1038 50.3037 72.1428 50.3037C71.1772 50.3037 70.3926 51.0836 70.3926 52.0446C70.3926 53.0056 71.1772 53.7856 72.1428 53.7856Z" fill="white"/>
<path opacity="0.2" d="M59.752 58.9619C61.3351 58.9619 62.6211 58.1542 62.6211 57.1607C62.6211 56.1672 61.3351 55.3594 59.752 55.3594C58.1689 55.3594 56.8829 56.1672 56.8829 57.1607C56.8829 58.1542 58.1689 58.9619 59.752 58.9619Z" fill="#1F1D21"/>
<path d="M62.5978 56.6496C62.44 55.2104 61.2051 54.0869 59.7149 54.0869C58.2385 54.0869 57.0083 55.1918 56.8319 56.6171C56.804 56.7146 56.804 56.826 56.804 56.9281C56.8365 57.332 57.129 57.7266 57.6536 58.033C58.7864 58.683 60.6387 58.683 61.7576 58.033C62.2868 57.722 62.5607 57.332 62.5932 56.9281C62.6211 56.8353 62.6118 56.7331 62.5978 56.6496Z" fill="white"/>
<path d="M59.7148 53.7856C60.6805 53.7856 61.4651 53.0056 61.4651 52.0446C61.4651 51.0836 60.6805 50.3037 59.7148 50.3037C58.7492 50.3037 57.9646 51.0836 57.9646 52.0446C57.9646 53.0056 58.7492 53.7856 59.7148 53.7856Z" fill="white"/>
<defs>
<linearGradient id="paint0_linear_166_42555" x1="50.1489" y1="-12.9414" x2="54.1309" y2="132.829" gradientUnits="userSpaceOnUse">
<stop stop-color="#00ABDE"/>
<stop offset="1" stop-color="#007ED8"/>
</linearGradient>
<linearGradient id="paint1_linear_166_42555" x1="3.3532" y1="-19.775" x2="98.8807" y2="121.106" gradientUnits="userSpaceOnUse">
<stop stop-color="#007ED8"/>
<stop offset="0.7065" stop-color="#002D4C"/>
</linearGradient>
<linearGradient id="paint2_linear_166_42555" x1="54.864" y1="-77.8999" x2="49.502" y2="161.6" gradientUnits="userSpaceOnUse">
<stop stop-color="#007ED8"/>
<stop offset="0.7065" stop-color="#002D4C"/>
</linearGradient>
<linearGradient id="paint3_linear_166_42555" x1="51.9197" y1="8.45376" x2="53.2845" y2="63.8432" gradientUnits="userSpaceOnUse">
<stop offset="0.57" stop-color="white" stop-opacity="0"/>
<stop offset="0.78" stop-color="white" stop-opacity="0.43"/>
<stop offset="0.9" stop-color="white" stop-opacity="0.5"/>
<stop offset="1" stop-color="white"/>
</linearGradient>
<linearGradient id="paint4_linear_166_42555" x1="3634.37" y1="10398.8" x2="3650.63" y2="10250.4" gradientUnits="userSpaceOnUse">
<stop offset="0.57" stop-color="white" stop-opacity="0"/>
<stop offset="0.78" stop-color="white" stop-opacity="0.43"/>
<stop offset="0.9" stop-color="white" stop-opacity="0.5"/>
<stop offset="1" stop-color="white"/>
</linearGradient>
<linearGradient id="paint5_linear_166_42555" x1="1674.56" y1="3140.56" x2="1677.86" y2="3095.94" gradientUnits="userSpaceOnUse">
<stop offset="0.57" stop-color="white" stop-opacity="0"/>
<stop offset="0.78" stop-color="white" stop-opacity="0.43"/>
<stop offset="0.9" stop-color="white" stop-opacity="0.5"/>
<stop offset="1" stop-color="white"/>
</linearGradient>
<radialGradient id="paint6_radial_166_42555" cx="0" cy="0" r="1" gradientUnits="userSpaceOnUse" gradientTransform="translate(41.7765 48.1818) scale(32.7578 32.6399)">
<stop stop-color="#4DC2EB"/>
<stop offset="0.585" stop-color="#0078D4"/>
</radialGradient>
<radialGradient id="paint7_radial_166_42555" cx="0" cy="0" r="1" gradientUnits="userSpaceOnUse" gradientTransform="translate(42.5919 43.1118) scale(15.364 15.2782)">
<stop stop-color="#4DC2EB"/>
<stop offset="0.585" stop-color="#0078D4"/>
</radialGradient>
<linearGradient id="paint8_linear_166_42555" x1="38.8437" y1="58.364" x2="63.3993" y2="80.2092" gradientUnits="userSpaceOnUse">
<stop stop-color="#FFB900"/>
<stop offset="0.17" stop-color="#EF8400"/>
<stop offset="0.31" stop-color="#E25C01"/>
<stop offset="0.43" stop-color="#DB4401"/>
<stop offset="0.5" stop-color="#D83B01"/>
</linearGradient>
<linearGradient id="paint9_linear_166_42555" x1="40.7539" y1="60.7168" x2="58.5853" y2="67.9259" gradientUnits="userSpaceOnUse">
<stop stop-color="#FFB900"/>
<stop offset="0.17" stop-color="#EF8400"/>
<stop offset="0.31" stop-color="#E25C01"/>
<stop offset="0.43" stop-color="#DB4401"/>
<stop offset="0.5" stop-color="#D83B01"/>
</linearGradient>
<linearGradient id="paint10_linear_166_42555" x1="54.864" y1="-77.8999" x2="49.502" y2="161.6" gradientUnits="userSpaceOnUse">
<stop stop-color="#007ED8"/>
<stop offset="0.7065" stop-color="#002D4C"/>
</linearGradient>
<linearGradient id="paint11_linear_166_42555" x1="51.9197" y1="8.45376" x2="53.2845" y2="63.8432" gradientUnits="userSpaceOnUse">
<stop offset="0.57" stop-color="white" stop-opacity="0"/>
<stop offset="0.78" stop-color="white" stop-opacity="0.43"/>
<stop offset="0.9" stop-color="white" stop-opacity="0.5"/>
<stop offset="1" stop-color="white"/>
</linearGradient>
<linearGradient id="paint12_linear_166_42555" x1="3634.37" y1="10398.8" x2="3650.63" y2="10250.4" gradientUnits="userSpaceOnUse">
<stop offset="0.57" stop-color="white" stop-opacity="0"/>
<stop offset="0.78" stop-color="white" stop-opacity="0.43"/>
<stop offset="0.9" stop-color="white" stop-opacity="0.5"/>
<stop offset="1" stop-color="white"/>
</linearGradient>
<linearGradient id="paint13_linear_166_42555" x1="1674.56" y1="3140.56" x2="1677.86" y2="3095.94" gradientUnits="userSpaceOnUse">
<stop offset="0.57" stop-color="white" stop-opacity="0"/>
<stop offset="0.78" stop-color="white" stop-opacity="0.43"/>
<stop offset="0.9" stop-color="white" stop-opacity="0.5"/>
<stop offset="1" stop-color="white"/>
</linearGradient>
<radialGradient id="paint14_radial_166_42555" cx="0" cy="0" r="1" gradientUnits="userSpaceOnUse" gradientTransform="translate(41.7765 48.1818) scale(32.7578 32.6399)">
<stop stop-color="#4DC2EB"/>
<stop offset="0.585" stop-color="#0078D4"/>
</radialGradient>
<radialGradient id="paint15_radial_166_42555" cx="0" cy="0" r="1" gradientUnits="userSpaceOnUse" gradientTransform="translate(42.5919 43.1118) scale(15.364 15.2782)">
<stop stop-color="#4DC2EB"/>
<stop offset="0.585" stop-color="#0078D4"/>
</radialGradient>
<linearGradient id="paint16_linear_166_42555" x1="38.8437" y1="58.364" x2="63.3993" y2="80.2092" gradientUnits="userSpaceOnUse">
<stop stop-color="#FFB900"/>
<stop offset="0.17" stop-color="#EF8400"/>
<stop offset="0.31" stop-color="#E25C01"/>
<stop offset="0.43" stop-color="#DB4401"/>
<stop offset="0.5" stop-color="#D83B01"/>
</linearGradient>
<linearGradient id="paint17_linear_166_42555" x1="40.7539" y1="60.7168" x2="58.5853" y2="67.9259" gradientUnits="userSpaceOnUse">
<stop stop-color="#FFB900"/>
<stop offset="0.17" stop-color="#EF8400"/>
<stop offset="0.31" stop-color="#E25C01"/>
<stop offset="0.43" stop-color="#DB4401"/>
<stop offset="0.5" stop-color="#D83B01"/>
</linearGradient>
</defs>
</svg>
