<svg width="103" height="103" viewBox="0 0 103 103" fill="none" xmlns="http://www.w3.org/2000/svg">
<path d="M51.2497 98.1869C25.3997 98.1869 4.4397 77.2369 4.4397 51.3769C4.4397 25.5169 25.3997 4.56688 51.2497 4.56688C77.0997 4.56688 98.0597 25.5269 98.0597 51.3769C98.0597 77.2269 77.0997 98.1869 51.2497 98.1869Z" fill="url(#paint0_linear)"/>
<path fill-rule="evenodd" clip-rule="evenodd" d="M97.1499 51.3769C97.1499 76.7269 76.5999 97.2769 51.2499 97.2769C25.8999 97.2769 5.34986 76.7269 5.34986 51.3769C5.34986 26.0269 25.8999 5.47688 51.2499 5.47688C76.5999 5.47688 97.1499 26.0269 97.1499 51.3769ZM51.2499 1.73688C78.6699 1.73688 100.89 23.9569 100.89 51.3769C100.89 78.7969 78.6599 101.017 51.2499 101.017C23.8299 101.017 1.60986 78.7869 1.60986 51.3769C1.60986 23.9569 23.8299 1.73688 51.2499 1.73688Z" fill="#F2F1F0"/>
<path fill-rule="evenodd" clip-rule="evenodd" d="M94.3397 51.3769C94.3397 75.1769 75.0497 94.4669 51.2497 94.4669C27.4497 94.4669 8.15968 75.1769 8.15968 51.3769C8.15968 27.5769 27.4497 8.28687 51.2497 8.28687C75.0497 8.28687 94.3397 27.5769 94.3397 51.3769ZM51.2497 4.54688C77.1097 4.54688 98.0797 25.5169 98.0797 51.3769C98.0797 77.2369 77.1097 98.2069 51.2497 98.2069C25.3897 98.2069 4.41968 77.2369 4.41968 51.3769C4.41968 25.5169 25.3797 4.54688 51.2497 4.54688Z" fill="url(#paint1_linear)"/>
<path fill-rule="evenodd" clip-rule="evenodd" d="M34.9097 35.5868C34.9097 35.3106 35.1335 35.0868 35.4097 35.0868H43.2697V36.0868H35.9097V72.4168H43.2697V73.4168H35.4097C35.1335 73.4168 34.9097 73.1929 34.9097 72.9168V35.5868Z" fill="white"/>
<path fill-rule="evenodd" clip-rule="evenodd" d="M51.5698 35.0868H62.3698C62.646 35.0868 62.8698 35.3106 62.8698 35.5868V52.5268H73.1598V53.5268H62.3698C62.0937 53.5268 61.8698 53.3029 61.8698 53.0268V36.0868H51.5698V35.0868Z" fill="white"/>
<path fill-rule="evenodd" clip-rule="evenodd" d="M72.7597 36.0868H55.2197V35.0868H72.7597V36.0868Z" fill="white"/>
<path fill-rule="evenodd" clip-rule="evenodd" d="M25.8296 50.4768H43.2496V51.4768H25.8296V50.4768Z" fill="white"/>
<path d="M58.5298 31.3568H40.0298V42.1868C40.0298 42.5168 40.2998 42.7768 40.6198 42.7768H57.9298C58.2598 42.7768 58.5198 42.5068 58.5198 42.1868V31.3568H58.5298Z" fill="#50E6FF"/>
<path d="M57.8998 29.7568H40.6598C40.3098 29.7568 40.0298 30.0368 40.0298 30.3868V31.7368H58.5298V30.3868C58.5298 30.0368 58.2498 29.7568 57.8998 29.7568Z" fill="white"/>
<path d="M30.6997 46.2368H12.1997V57.0668C12.1997 57.3968 12.4697 57.6568 12.7897 57.6568H30.0997C30.4297 57.6568 30.6897 57.3868 30.6897 57.0668V46.2368H30.6997Z" fill="#9CEBFF"/>
<path d="M30.0697 44.6368H12.8397C12.4897 44.6368 12.2097 44.9168 12.2097 45.2668V46.6168H30.7097V45.2668C30.6997 44.9168 30.4197 44.6368 30.0697 44.6368Z" fill="white"/>
<path d="M85.1597 31.3568H66.6597V42.1868C66.6597 42.5168 66.9297 42.7768 67.2497 42.7768H84.5597C84.8897 42.7768 85.1497 42.5068 85.1497 42.1868V31.3568H85.1597Z" fill="#45CAF2"/>
<path d="M84.5297 29.7568H67.2897C66.9397 29.7568 66.6597 30.0368 66.6597 30.3868V31.7368H85.1597V30.3868C85.1597 30.0368 84.8797 29.7568 84.5297 29.7568Z" fill="white"/>
<path d="M85.5796 48.5468H67.0796V59.3768C67.0796 59.7068 67.3496 59.9668 67.6696 59.9668H84.9796C85.3096 59.9668 85.5696 59.6968 85.5696 59.3768V48.5468H85.5796Z" fill="#45CAF2"/>
<path d="M84.9496 46.9468H67.7196C67.3696 46.9468 67.0896 47.2268 67.0896 47.5768V48.9268H85.5896V47.5768C85.5796 47.2268 85.2996 46.9468 84.9496 46.9468Z" fill="white"/>
<path d="M58.5298 68.8268H40.0298V79.6568C40.0298 79.9868 40.2998 80.2468 40.6198 80.2468H57.9298C58.2598 80.2468 58.5198 79.9768 58.5198 79.6568V68.8268H58.5298Z" fill="#50E6FF"/>
<path d="M57.8998 67.2268H40.6598C40.3098 67.2268 40.0298 67.5068 40.0298 67.8568V69.2068H58.5298V67.8568C58.5298 67.5068 58.2498 67.2268 57.8998 67.2268Z" fill="white"/>
<path d="M58.5298 48.0068H40.0298V63.3468C40.0298 63.8868 40.4598 64.3168 40.9998 64.3168H57.5598C58.0998 64.3168 58.5298 63.8868 58.5298 63.3468V48.0068Z" fill="#50E6FF"/>
<path d="M57.6398 46.4068H40.9198C40.4298 46.4068 40.0298 46.8068 40.0298 47.2968V48.3968H58.5298V47.2968C58.5298 46.7968 58.1298 46.4068 57.6398 46.4068Z" fill="white"/>
<defs>
<linearGradient id="paint0_linear" x1="49.4798" y1="-13.4127" x2="53.4618" y2="132.357" gradientUnits="userSpaceOnUse">
<stop stop-color="#00ABDE"/>
<stop offset="1" stop-color="#007ED8"/>
</linearGradient>
<linearGradient id="paint1_linear" x1="2.68238" y1="-20.2477" x2="98.2094" y2="120.634" gradientUnits="userSpaceOnUse">
<stop stop-color="#007ED8"/>
<stop offset="0.7065" stop-color="#002D4C"/>
</linearGradient>
</defs>
</svg>
