<svg width="103" height="103" viewBox="0 0 103 103" fill="none" xmlns="http://www.w3.org/2000/svg">
<path fill-rule="evenodd" clip-rule="evenodd" d="M51.9265 5.33789C77.4361 5.33789 98.1151 26.0169 98.1151 51.5266C98.1151 77.0362 77.4361 97.7152 51.9265 97.7152C26.4168 97.7152 5.73779 77.0362 5.73779 51.5266C5.73779 26.0169 26.4168 5.33789 51.9265 5.33789Z" fill="#55A2FF"/>
<path fill-rule="evenodd" clip-rule="evenodd" d="M60.9808 79.0373L53.8505 71.8973V68.8469C53.8505 67.7884 52.9844 66.9224 51.9259 66.9224C50.8674 66.9224 50.0014 67.7884 50.0014 68.8469V71.8973L42.871 79.0276C42.1205 79.7782 42.1205 81.0003 42.871 81.7509C43.2463 82.1358 43.7371 82.3186 44.2278 82.3186C44.7186 82.3186 45.2093 82.1358 45.5846 81.7509L50.0014 77.3437V79.4318C50.0014 80.4903 50.8674 81.3563 51.9259 81.3563C52.9844 81.3563 53.8505 80.4903 53.8505 79.4318V77.3437L58.2673 81.7605C58.6425 82.1358 59.1333 82.3186 59.624 82.3186C60.1148 82.3186 60.6056 82.1358 60.9808 81.7509C61.7314 81.0003 61.7314 79.7878 60.9808 79.0373Z" fill="#546670"/>
<path fill-rule="evenodd" clip-rule="evenodd" d="M80.794 32.2812V66.9228C80.794 67.9812 79.9279 68.8473 78.8694 68.8473H24.9826C23.9241 68.8473 23.0581 67.9812 23.0581 66.9228V32.2812H80.794Z" fill="#E1E4E1"/>
<path fill-rule="evenodd" clip-rule="evenodd" d="M51.9265 28.4318C50.868 28.4318 50.002 27.5658 50.002 26.5073V24.5827C50.002 23.5146 50.868 22.6582 51.9265 22.6582C52.985 22.6582 53.851 23.5146 53.851 24.5827V26.5073C53.851 27.5658 52.985 28.4318 51.9265 28.4318Z" fill="#546670"/>
<path fill-rule="evenodd" clip-rule="evenodd" d="M82.7187 31.3186C82.7187 31.8479 82.2857 32.2809 81.7564 32.2809H22.0961C21.5668 32.2809 21.1338 31.8479 21.1338 31.3186V27.4696C21.1338 26.9403 21.5668 26.5073 22.0961 26.5073H81.7564C82.2857 26.5073 82.7187 26.9403 82.7187 27.4696V31.3186Z" fill="#30404D"/>
<path fill-rule="evenodd" clip-rule="evenodd" d="M23.0581 34.2058H80.794V32.2812H23.0581V34.2058Z" fill="#C5CCCD"/>
<path fill-rule="evenodd" clip-rule="evenodd" d="M44.3438 80.2789C43.8819 80.7408 43.0929 80.6253 42.7945 80.0384C42.6983 79.8363 42.6213 79.6438 42.5636 79.4418C42.1402 80.1731 42.2364 81.1257 42.8715 81.7512C43.2468 82.1361 43.7376 82.3189 44.2283 82.3189C44.7191 82.3189 45.2098 82.1361 45.5851 81.7512L51.9264 75.5831V72.6963L44.3438 80.2789Z" fill="#30404D"/>
<path fill-rule="evenodd" clip-rule="evenodd" d="M59.5089 80.2789C59.9708 80.7408 60.7599 80.6253 61.0485 80.0384C61.1448 79.8363 61.2217 79.6438 61.2795 79.4418C61.7029 80.1731 61.6066 81.1257 60.9812 81.7512C60.6059 82.1361 60.1151 82.3189 59.6244 82.3189C59.1336 82.3189 58.6429 82.1361 58.2676 81.7512L51.9263 75.5831V72.6963L59.5089 80.2789Z" fill="#30404D"/>
<path fill-rule="evenodd" clip-rule="evenodd" d="M51.926 74.6206V79.278C51.926 79.9419 51.2621 80.4038 50.627 80.1825C50.4249 80.1151 50.2421 80.0285 50.0688 79.9323C50.3094 80.7983 51.1273 81.4334 52.0896 81.3468C53.1096 81.2602 53.8505 80.3365 53.8505 79.3165V74.6206H51.926Z" fill="#30404D"/>
<path fill-rule="evenodd" clip-rule="evenodd" d="M50.002 68.8472V69.8094H50.8776C51.455 69.8094 51.9265 70.2809 51.9265 70.8583C51.9265 71.4357 52.398 71.9072 52.9753 71.9072H53.851V68.8472H50.002Z" fill="#30404D"/>
<path fill-rule="evenodd" clip-rule="evenodd" d="M22.0961 32.2809H81.7564C82.2857 32.2809 82.7187 31.8479 82.7187 31.3186V27.4696C82.7187 26.9403 82.2857 26.5073 81.7564 26.5073H51.9262V28.4319C51.9262 28.9611 51.4932 29.3941 50.964 29.3941H21.1338V31.3186C21.1338 31.8479 21.5668 32.2809 22.0961 32.2809Z" fill="#182A37"/>
<path fill-rule="evenodd" clip-rule="evenodd" d="M51.9263 24.4865V26.5073H53.8508V24.5828C53.8508 24.4673 53.8412 24.3614 53.8219 24.2556C53.6391 23.1394 51.9263 23.3511 51.9263 24.4865Z" fill="#30404D"/>
<path d="M51.9263 102.526C23.8089 102.526 0.92627 79.6437 0.92627 51.5264C0.92627 23.409 23.8089 0.526367 51.9263 0.526367C80.0436 0.526367 102.926 23.409 102.926 51.5264C102.926 79.6437 80.0436 102.526 51.9263 102.526ZM51.9263 4.37542C25.9259 4.37542 4.77533 25.526 4.77533 51.5264C4.77533 77.5267 25.9259 98.6773 51.9263 98.6773C77.9266 98.6773 99.0772 77.5267 99.0772 51.5264C99.0772 25.526 77.9266 4.37542 51.9263 4.37542Z" fill="#F2F1F0"/>
<path d="M51.9262 99.6395C25.3966 99.6395 3.81299 78.0559 3.81299 51.5263C3.81299 24.9967 25.3966 3.41309 51.9262 3.41309C78.4558 3.41309 100.039 24.9967 100.039 51.5263C100.039 78.0559 78.4558 99.6395 51.9262 99.6395ZM51.9262 7.26214C27.5232 7.26214 7.66205 27.1233 7.66205 51.5263C7.66205 75.9293 27.5232 95.7904 51.9262 95.7904C76.3292 95.7904 96.1903 75.9293 96.1903 51.5263C96.1903 27.1233 76.3292 7.26214 51.9262 7.26214Z" fill="#0078D4"/>
<path d="M53.0138 40.9607L50.7909 38.6705C50.4926 38.353 49.9826 38.3722 49.694 38.6994L40.2926 49.4383C39.8692 49.9194 39.8692 50.6315 40.2926 51.1126L49.6074 61.8226C49.9538 62.2268 50.5793 62.2268 50.9353 61.8226L53.7162 58.6087L54.0242 42.0866L53.0138 40.9607Z" fill="url(#paint0_linear)"/>
<path d="M63.9546 48.9669L54.688 38.8343C54.2838 38.4013 53.6102 38.4013 53.2061 38.8247L48.924 43.2414C48.4621 43.7226 48.4525 44.4828 48.9048 44.9735L53.2927 49.679C53.6199 50.0254 53.6199 50.5547 53.2927 50.9011L48.8855 55.6643C48.4333 56.155 48.4429 56.9056 48.9048 57.3867L53.1965 61.842C53.6006 62.2654 54.2838 62.2558 54.688 61.8228L63.9546 51.6131C64.6474 50.8626 64.6474 49.7175 63.9546 48.9669Z" fill="url(#paint1_linear)"/>
<path d="M64.3973 51.1414L60.2596 55.7314C59.942 56.0778 59.4031 56.0874 59.076 55.7506L54.919 51.507C54.2454 50.8238 54.2454 49.7172 54.9094 49.0244L58.9894 44.8097C59.3165 44.4729 59.8554 44.4825 60.173 44.8289L64.3877 49.4767C64.8207 49.9482 64.8207 50.6699 64.3973 51.1414Z" fill="url(#paint2_linear)"/>
<defs>
<linearGradient id="paint0_linear" x1="46.4173" y1="39.3219" x2="48.1414" y2="59.5816" gradientUnits="userSpaceOnUse">
<stop stop-color="#A23093"/>
<stop offset="1" stop-color="#692266"/>
</linearGradient>
<linearGradient id="paint1_linear" x1="48.5625" y1="50.3299" x2="64.4754" y2="50.3299" gradientUnits="userSpaceOnUse">
<stop stop-color="#E184C4"/>
<stop offset="1" stop-color="#D76EBC"/>
</linearGradient>
<linearGradient id="paint2_linear" x1="54.4205" y1="50.2789" x2="64.7185" y2="50.2789" gradientUnits="userSpaceOnUse">
<stop stop-color="#E89BCA"/>
<stop offset="1" stop-color="#E591C8"/>
</linearGradient>
</defs>
</svg>
