<?xml version="1.0" encoding="UTF-8"?>
<svg width="107px" height="107px" viewBox="0 0 107 107" version="1.1" xmlns="http://www.w3.org/2000/svg" xmlns:xlink="http://www.w3.org/1999/xlink">
    <!-- Generator: Sketch 61 (89581) - https://sketch.com -->
    <title>NA/introduction-to-common-data-service </title>
    <desc>Created with Sketch.</desc>
    <defs>
        <rect id="path-1" x="0" y="0" width="96" height="96" rx="48"></rect>
        <rect id="path-3" x="0" y="0" width="100" height="100" rx="50"></rect>
        <linearGradient x1="78.4210223%" y1="-7.24023438%" x2="15.5786468%" y2="110.793945%" id="linearGradient-5">
            <stop stop-color="#FFFFFF" offset="0%"></stop>
            <stop stop-color="#000000" stop-opacity="0.5" offset="100%"></stop>
        </linearGradient>
        <rect id="path-6" x="-3" y="-3" width="106" height="106" rx="53"></rect>
        <filter x="-0.5%" y="-0.5%" width="101.9%" height="101.9%" filterUnits="objectBoundingBox" id="filter-7">
            <feOffset dx="1" dy="1" in="SourceAlpha" result="shadowOffsetOuter1"></feOffset>
            <feMorphology radius="4" operator="erode" in="SourceAlpha" result="shadowInner"></feMorphology>
            <feOffset dx="1" dy="1" in="shadowInner" result="shadowInner"></feOffset>
            <feComposite in="shadowOffsetOuter1" in2="shadowInner" operator="out" result="shadowOffsetOuter1"></feComposite>
            <feColorMatrix values="0 0 0 0 0   0 0 0 0 0   0 0 0 0 0  0 0 0 0.15 0" type="matrix" in="shadowOffsetOuter1"></feColorMatrix>
        </filter>
    </defs>
    <g id="Badges" stroke="none" stroke-width="1" fill="none" fill-rule="evenodd">
        <g id="N/A-73" transform="translate(-47.000000, -657.000000)">
            <g id="NA/introduction-to-common-data-service-" transform="translate(50.000000, 660.000000)">
                <g id="Mask" transform="translate(2.000000, 2.000000)">
                    <mask id="mask-2" fill="white">
                        <use xlink:href="#path-1"></use>
                    </mask>
                    <use id="BG" fill="#55A2FF" xlink:href="#path-1"></use>
                    <g id="Circle-" mask="url(#mask-2)">
                        <g transform="translate(-2.000000, -2.000000)">
                            <mask id="mask-4" fill="white">
                                <use xlink:href="#path-3"></use>
                            </mask>
                            <g id="BG" stroke="none" fill="none"></g>
                            <g id="Color/Blue" stroke="none" fill="none" mask="url(#mask-4)" fill-rule="evenodd">
                                <rect id="Rectangle" fill="#55A2FF" x="0" y="0" width="100" height="100"></rect>
                            </g>
                        </g>
                    </g>
                    <g id="Group" mask="url(#mask-2)">
                        <g transform="translate(32.000000, 47.527923)">
                            <g id="Lower" transform="translate(0.527000, 21.572000)">
                                <path d="M15.862,11.35 C7.407,11.35 0.552,8.796 0.552,5.645 L0.552,13.252 C0.552,16.403 7.407,18.957 15.862,18.957 C24.317,18.957 31.172,16.403 31.172,13.252 L31.172,5.645 C31.172,8.796 24.317,11.35 15.862,11.35" id="Fill-101" fill="#E1E4E1" fill-rule="nonzero"></path>
                                <path d="M15.862,13.865 L15.862,16.398 C15.862,17.118 15.259,17.691 14.536,17.668 C6.702,17.418 0.552,14.968 0.552,11.984 L0.552,13.252 C0.552,16.403 7.407,18.957 15.862,18.957 C24.317,18.957 31.172,16.403 31.172,13.252 L31.172,6.912 C31.172,9.91 24.972,12.367 17.09,12.599 C16.4059193,12.6200669 15.8622159,13.1805951 15.862,13.865" id="Fill-106" fill="#D3DAD8" fill-rule="nonzero"></path>
                                <path d="M31.09,5.71 C31.09,8.865 24.272,11.42 15.862,11.42 C7.452,11.42 0.634,8.866 0.634,5.71 C0.634,2.556 7.453,0 15.862,0 C24.272,0 31.089,2.556 31.089,5.71" id="Fill-100" stroke="#E1E4E1" stroke-width="0.25" fill="#BAC0C2" fill-rule="nonzero"></path>
                            </g>
                            <g id="Mid" transform="translate(0.527000, 10.786000)">
                                <path d="M15.862,11.36 C7.407,11.36 0.552,8.805 0.552,5.653 L0.552,13.26 C0.552,16.412 7.407,18.965 15.862,18.965 C24.317,18.965 31.172,16.412 31.172,13.26 L31.172,5.654 C31.172,8.806 24.317,11.359 15.862,11.359" id="Fill-102" fill="#E1E4E1" fill-rule="nonzero"></path>
                                <path d="M15.862,13.874 L15.862,16.408 C15.862,17.128 15.259,17.7 14.536,17.678 C6.702,17.428 0.552,14.978 0.552,11.993 L0.552,13.261 C0.552,16.413 7.407,18.966 15.862,18.966 C24.317,18.966 31.172,16.413 31.172,13.261 L31.172,6.921 C31.172,9.92 24.972,12.376 17.09,12.609 C16.4063069,12.6300546 15.8627556,13.1899832 15.862,13.874" id="Fill-107" fill="#D3DAD8" fill-rule="nonzero"></path>
                                <path d="M31.09,5.71 C31.09,8.865 24.272,11.42 15.862,11.42 C7.452,11.42 0.634,8.866 0.634,5.71 C0.634,2.556 7.453,0 15.862,0 C24.272,0 31.089,2.556 31.089,5.71" id="Fill-103" stroke="#E1E4E1" stroke-width="0.25" fill="#BAC0C2" fill-rule="nonzero"></path>
                            </g>
                            <g id="Top" transform="translate(0.527000, 0.000000)">
                                <path d="M15.862,11.369 C7.407,11.369 0.552,8.815 0.552,5.663 L0.552,13.27 C0.552,16.422 7.407,18.976 15.862,18.976 C24.317,18.976 31.172,16.422 31.172,13.27 L31.172,5.663 C31.172,8.815 24.317,11.369 15.862,11.369" id="Fill-104" fill="#E1E4E1" fill-rule="nonzero"></path>
                                <path d="M15.862,13.883 L15.862,16.417 C15.862,17.137 15.259,17.71 14.536,17.687 C6.702,17.437 0.552,14.987 0.552,12.003 L0.552,13.27 C0.552,16.422 7.407,18.976 15.862,18.976 C24.317,18.976 31.172,16.422 31.172,13.27 L31.172,6.931 C31.172,9.929 24.972,12.385 17.09,12.618 C16.4063069,12.6390546 15.8627556,13.1989832 15.862,13.883" id="Fill-108" fill="#D3DAD8" fill-rule="nonzero"></path>
                                <path d="M30.474,5.71 C30.474,8.865 23.932,11.42 15.862,11.42 C7.792,11.42 1.25,8.866 1.25,5.71 C1.25,2.556 7.792,0 15.862,0 C23.932,0 30.474,2.556 30.474,5.71" id="Fill-105" stroke="#E1E4E1" stroke-width="1.25" fill="#C4CBCD" fill-rule="nonzero"></path>
                            </g>
                        </g>
                    </g>
                    <g id="Group" mask="url(#mask-2)" fill-rule="nonzero">
                        <g transform="translate(44.000000, 33.527923)">
                            <path d="M8,20.552 C8,21.41 6.21,22.105 4,22.105 C1.791,22.105 0,21.41 0,20.552 C0,19.695 1.791,19 4,19 C6.21,19 8,19.695 8,20.552" id="Fill-105-Copy" fill="#12202B"></path>
                            <polygon id="Fill-455-Copy" fill="#182A37" points="2 21 6 21 6 2 2 2"></polygon>
                            <polygon id="Fill-473-Copy" fill="#12202B" points="2 21.838 4 21.838 4 3.838 2 3.838"></polygon>
                            <path d="M7,3.6 C7,3.82 6.831,4 6.625,4 L1.375,4 C1.169,4 1,3.82 1,3.6 L1,0.4 C1,0.18 1.169,0 1.375,0 L6.625,0 C6.831,0 7,0.18 7,0.4 L7,3.6" id="Fill-475-Copy" fill="#12202B"></path>
                        </g>
                    </g>
                    <g id="Group" mask="url(#mask-2)" fill-rule="nonzero">
                        <g transform="translate(40.000000, 59.527923)">
                            <path d="M8,0 C4.78840635,0.00385711244 2.18585711,2.60640635 2.182,5.818 L2.182,10.182 C2.182,10.583 2.671,10.909 3.272,10.909 C3.875,10.909 4.364,10.583 4.364,10.182 L4.364,5.818 C4.3662045,3.81080649 5.99280649,2.1842045 8,2.182 C10.0071935,2.1842045 11.6337955,3.81080649 11.636,5.818 L11.636,10.182 C11.636,10.583 12.126,10.909 12.727,10.909 C13.329,10.909 13.818,10.583 13.818,10.182 L13.818,5.818 C13.8141429,2.60640635 11.2115936,0.00385711244 8,0" id="Fill-84" fill="#F5F8F5"></path>
                            <path d="M8,0 C7.877,0 7.757,0.01 7.636,0.019 C10.675,0.208 13.091,2.733 13.091,5.819 L13.091,7.619 C13.091,8.042 12.631,8.305 12.269,8.087 C12.0634258,7.96231287 11.8522006,7.84719013 11.636,7.742 L11.636,10.182 C11.636,10.583 12.126,10.909 12.727,10.909 C13.329,10.909 13.818,10.583 13.818,10.182 L13.818,5.818 C13.8141429,2.60640635 11.2115936,0.00385711244 8,0" id="Fill-85" fill="#C5CCCD"></path>
                            <path d="M6.629,2.24 C4.872,2.563 3.636,4.162 3.636,5.948 L3.636,7.562 C3.636,7.911 3.473,8.242 3.188,8.442 C2.83139036,8.69181878 2.49501635,8.96934405 2.182,9.272 L2.182,10.182 C2.182,10.583 2.671,10.909 3.272,10.909 C3.875,10.909 4.364,10.583 4.364,10.182 L4.364,5.818 C4.36571793,3.95146071 5.77902328,2.38870436 7.636,2.2 C7.30013912,2.16537757 6.96105648,2.1788466 6.629,2.24" id="Fill-87" fill="#C5CCCD"></path>
                            <path d="M8,8 C3.99,8 0.727,11.263 0.727,15.273 C0.727,19.283 3.99,22.545 8,22.545 C12.01,22.545 15.273,19.283 15.273,15.273 C15.273,11.263 12.01,8 8,8" id="Fill-88" fill="#30404D"></path>
                            <path d="M8,8 L8,9.818 C7.90355327,9.81826569 7.81096569,9.78013849 7.74267355,9.71203396 C7.67438141,9.64392944 7.63599963,9.5514471 7.636,9.455 L7.636,9.818 C7.636,9.933 7.689,10.035 7.772,10.101 C7.932,10.231 8,10.445 8,10.651 L8,17.818 C6.66389111,17.821639 5.55414161,16.7880017 5.463,15.455 C5.37555474,16.6439395 6.12674624,17.7337079 7.269,18.075 C7.713,18.208 8,18.641 8,19.105 L8,22.545 C12.01,22.545 15.273,19.283 15.273,15.273 C15.273,11.263 12.01,8 8,8" id="Fill-89" fill="#182A37"></path>
                            <path d="M4.143,11.416 C4.00093811,11.5576358 3.77106189,11.5576358 3.629,11.416 L3.129,10.916 C2.13810129,12.0193985 1.55384399,13.4281783 1.473,14.909 L1.509,14.909 C1.65733824,13.5596953 2.22375148,12.29051 3.129,11.279 L3.629,11.779 C3.69710157,11.8472718 3.78956937,11.8856409 3.886,11.8856409 C3.98243063,11.8856409 4.07489843,11.8472718 4.143,11.779 C4.263,11.659 4.276,11.48 4.193,11.34 C4.178,11.367 4.165,11.393 4.143,11.416" id="Fill-90" fill="#182A37"></path>
                            <path d="M7.636,9.11 L7.636,8.746 C6.15542705,8.82628831 4.74667643,9.40982788 3.643,10.4 L3.843,10.6 C4.9146721,9.70887009 6.24440417,9.18581176 7.636,9.108" id="Fill-91" fill="#182A37"></path>
                            <path d="M2.182,15.636 L1.473,15.636 C1.48,15.759 1.496,15.879 1.509,16 L2.182,16 C2.2784471,16.0000004 2.37092944,15.9616186 2.43903396,15.8933265 C2.50713849,15.8250343 2.54526569,15.7324467 2.54500138,15.636 C2.54332552,15.5718106 2.5243212,15.5092691 2.49,15.455 C2.42662258,15.5656115 2.30947242,15.6344562 2.182,15.636" id="Fill-92" fill="#182A37"></path>
                            <path d="M4.143,19.644 L3.643,20.144 C3.707,20.201 3.776,20.254 3.843,20.308 L4.143,20.008 C4.263,19.888 4.276,19.708 4.193,19.568 C4.178,19.595 4.165,19.621 4.143,19.644" id="Fill-93" fill="#182A37"></path>
                            <path d="M12.87,19.63 L12.37,19.13 C12.2255837,19.0048446 12.0089716,19.0126788 11.8739738,19.1479398 C11.7389759,19.2832008 11.7315636,19.4998277 11.857,19.644 L12.357,20.144 C11.2536015,21.1348987 9.84482166,21.719156 8.364,21.8 L8.364,21.09 C8.364,20.8889684 8.20103165,20.726 8,20.726 C7.79896835,20.726 7.636,20.8889684 7.636,21.09 L7.636,21.8 C6.15517834,21.719156 4.74639851,21.1348987 3.643,20.144 L4.143,19.644 C4.27742389,19.5007926 4.27398983,19.2767642 4.13523975,19.1377442 C3.99648967,18.9987242 3.77246842,18.9948547 3.629,19.129 L3.129,19.629 C2.13810129,18.5256015 1.55384399,17.1168217 1.473,15.636 L2.182,15.636 C2.38275551,15.636 2.5455,15.4732555 2.5455,15.2725 C2.5455,15.0717445 2.38275551,14.909 2.182,14.909 L1.473,14.909 C1.55384399,13.4281783 2.13810129,12.0193985 3.129,10.916 L3.629,11.416 C3.77121332,11.5579372 4.00156282,11.5577133 4.14349999,11.4155 C4.28543717,11.2732867 4.28521332,11.0429372 4.143,10.901 L3.643,10.401 C4.74653749,9.41046459 6.15530271,8.82656616 7.636,8.746 L7.636,9.455 C7.636,9.65603165 7.79896835,9.819 8,9.819 C8.20103165,9.819 8.364,9.65603165 8.364,9.455 L8.364,8.745 C9.894,8.83 11.284,9.44 12.357,10.401 L11.857,10.901 C11.7225761,11.0442074 11.7260102,11.2682358 11.8647602,11.4072558 C12.0035103,11.5462758 12.2275316,11.5501453 12.371,11.416 L12.871,10.916 C13.8620365,12.0193116 14.4463149,13.4281422 14.527,14.909 L13.818,14.909 C13.6172445,14.909 13.4545,15.0717445 13.4545,15.2725 C13.4545,15.4732555 13.6172445,15.636 13.818,15.636 L14.527,15.636 C14.4463149,17.1168578 13.8620365,18.5256884 12.871,19.629 L12.87,19.63 Z M8,7.272 C3.589,7.272 0,10.86 0,15.272 C0,19.683 3.589,23.272 8,23.272 C12.411,23.272 16,19.683 16,15.272 C16,10.86 12.411,7.272 8,7.272 Z" id="Fill-94" fill="#546670"></path>
                            <polyline id="Fill-95" fill="#DF5142" points="10.314 14.501 8.527 14.719 8.784 12.946 11.073 12.174 10.314 14.501"></polyline>
                            <path d="M9.8,17.072 C10.752589,16.0711122 10.7329746,14.4931113 9.75580204,13.5162101 C8.77862943,12.5393089 7.20062315,12.520133 6.2,13.473 L9.8,17.073" id="Fill-96" fill="#ADBDC4"></path>
                            <path d="M6.2,13.473 C5.23630001,14.47217 5.2506378,16.0591717 6.23223305,17.040767 C7.21382829,18.0223622 8.80082996,18.0367 9.8,17.073 L6.2,13.473" id="Fill-97" fill="#A0AEB3"></path>
                        </g>
                    </g>
                    <g id="Group" mask="url(#mask-2)" fill-rule="nonzero">
                        <g transform="translate(28.000000, 11.527923)">
                            <path d="M2.5,33.75 C1.12088408,33.7461546 0.0038453964,32.6291159 0,31.25 L0,2.5 C0,1.125 1.125,0 2.5,0 L37.5,0 C38.875,0 40,1.125 40,2.5 L40,31.25 C40,32.625 38.875,33.75 37.5,33.75 L2.5,33.75" id="Fill-1465" fill="#30404D"></path>
                            <path d="M3.125,31.875 C2.437,31.875 1.875,31.312 1.875,30.625 L1.875,6.875 C1.875,6.187 2.438,5.625 3.125,5.625 L36.875,5.625 C37.563,5.625 38.125,6.188 38.125,6.875 L38.125,30.625 C38.125,31.313 37.562,31.875 36.875,31.875 L3.125,31.875" id="Fill-1466" fill="#E1E4E1"></path>
                            <path d="M36.25,2.813 C36.25,2.29523305 36.669733,1.8755 37.1875,1.8755 C37.705267,1.8755 38.125,2.29523305 38.125,2.813 C38.125,3.33076695 37.705267,3.7505 37.1875,3.7505 C36.669733,3.7505 36.25,3.33076695 36.25,2.813" id="Fill-1467" fill="#DF5142"></path>
                            <path d="M32.5,2.813 C32.5,2.29523305 32.919733,1.8755 33.4375,1.8755 C33.955267,1.8755 34.375,2.29523305 34.375,2.813 C34.375,3.33076695 33.955267,3.7505 33.4375,3.7505 C32.919733,3.7505 32.5,3.33076695 32.5,2.813" id="Fill-1468" fill="#697D85"></path>
                            <path d="M28.75,2.813 C28.75,2.29523305 29.169733,1.8755 29.6875,1.8755 C30.205267,1.8755 30.625,2.29523305 30.625,2.813 C30.625,3.33076695 30.205267,3.7505 29.6875,3.7505 C29.169733,3.7505 28.75,3.33076695 28.75,2.813" id="Fill-1469" fill="#697D85"></path>
                            <path d="M24.063,3.75 L2.813,3.75 C2.29523305,3.75 1.8755,3.33026695 1.8755,2.8125 C1.8755,2.29473305 2.29523305,1.875 2.813,1.875 L24.063,1.875 C24.3979365,1.875 24.7074306,2.05368648 24.8748988,2.34374999 C25.0423671,2.63381351 25.0423671,2.99118649 24.8748988,3.28125001 C24.7074306,3.57131352 24.3979365,3.75 24.063,3.75" id="Fill-1470" fill="#697D85"></path>
                        </g>
                    </g>
                    <g id="Rectangle" mask="url(#mask-2)" fill="#ADBDC4" fill-rule="nonzero">
                        <g transform="translate(33.000000, 20.527923)">
                            <rect x="0" y="0" width="8" height="8" rx="1"></rect>
                            <rect x="11" y="0" width="8" height="8" rx="1"></rect>
                            <rect x="22" y="0" width="8" height="8" rx="1"></rect>
                            <rect x="0" y="12" width="8" height="8" rx="1"></rect>
                            <rect x="11" y="12" width="8" height="8" rx="1"></rect>
                            <rect x="22" y="12" width="8" height="8" rx="1"></rect>
                        </g>
                    </g>
                </g>
                <g id="Azure-Border">
                    <path d="M50,0 C74.5263677,-4.50542066e-15 94.9281966,17.6592499 99.1842495,40.9565123 L94.2027317,73.3905473 C85.8096395,89.2186645 69.1638777,100 50,100 C30.9551233,100 14.3971863,89.3521454 5.95457608,73.6848234 L0.0261464987,48.3675131 C0.887696267,21.508872 22.932015,4.97230817e-15 50,0 Z" id="Combined-Shape" fill="url(#linearGradient-5)" fill-rule="evenodd" opacity="0.400000006" style="mix-blend-mode: overlay;"></path>
                    <g>
                        <use fill="black" fill-opacity="1" filter="url(#filter-7)" xlink:href="#path-6"></use>
                        <rect stroke="#F2F1F0" stroke-width="4" stroke-linejoin="square" x="-1" y="-1" width="102" height="102" rx="51"></rect>
                    </g>
                    <rect stroke="#0078D4" stroke-width="4" x="2" y="2" width="96" height="96" rx="48"></rect>
                </g>
            </g>
        </g>
    </g>
</svg>