<svg width="106" height="106" viewBox="0 0 106 106" fill="none" xmlns="http://www.w3.org/2000/svg">
<g filter="url(#filter0_d)">
<circle cx="53" cy="53" r="49" fill="#5197D5"/>
<circle cx="53" cy="53" r="50.75" stroke="#F2F1F0" stroke-width="3.5"/>
</g>
<circle cx="53" cy="53" r="48" stroke="#0078D4" stroke-width="4"/>
<g filter="url(#filter1_d)">
<circle cx="53.0001" cy="53.4711" r="32.4711" stroke="#0078D4" stroke-width="2"/>
<circle cx="53.09" cy="53.487" r="27.0407" fill="url(#paint0_linear)"/>
<g filter="url(#filter2_d)">
<path fill-rule="evenodd" clip-rule="evenodd" d="M40.8849 37.6916C41.6659 36.9105 42.9322 36.9105 43.7133 37.6916L68.8838 62.8621C69.6649 63.6432 69.6649 64.9095 68.8838 65.6905L65.2958 69.2786C64.5148 70.0596 63.2485 70.0596 62.4674 69.2786L37.2969 44.108C36.5158 43.3269 36.5158 42.0606 37.2969 41.2796L40.8849 37.6916Z" fill="url(#paint1_linear)"/>
<path fill-rule="evenodd" clip-rule="evenodd" d="M43.707 44.6865L44.8737 45.8531L41.9571 48.7697L40.7905 47.6031L43.707 44.6865Z" fill="#99EBFC"/>
<path fill-rule="evenodd" clip-rule="evenodd" d="M48.3569 45.7334L49.5236 46.9L44.8571 51.5665L43.6904 50.3999L48.3569 45.7334Z" fill="#99EBFC"/>
<path fill-rule="evenodd" clip-rule="evenodd" d="M58.9529 59.9053L60.1195 61.0719L57.2029 63.9885L56.0363 62.8218L58.9529 59.9053Z" fill="#99EBFC"/>
<path fill-rule="evenodd" clip-rule="evenodd" d="M64.0303 61.4102L65.1969 62.5768L60.5304 67.2433L59.3638 66.0767L64.0303 61.4102Z" fill="#99EBFC"/>
<g filter="url(#filter3_d)">
<path fill-rule="evenodd" clip-rule="evenodd" d="M69.7079 41.2811C70.4889 42.0621 70.4889 43.3285 69.7079 44.1095L45.4563 68.361L39.0399 61.9446L63.2914 37.6931C64.0725 36.912 65.3388 36.912 66.1199 37.6931L69.7079 41.2811Z" fill="url(#paint2_linear)"/>
</g>
<path fill-rule="evenodd" clip-rule="evenodd" d="M68.5129 39.9434L42.8472 65.6091L41.6806 64.4425L67.3463 38.7767L68.5129 39.9434Z" fill="#B17AE1"/>
<path fill-rule="evenodd" clip-rule="evenodd" d="M39.0558 61.8291L36.9688 69.8627L45.4675 68.2111L39.0558 61.8291Z" fill="url(#paint3_linear)"/>
</g>
<g filter="url(#filter4_d)">
<path d="M53.0394 76.2246C59.8244 76.2246 63.9659 81.3354 64.3037 88.1645C64.3278 88.643 64.1544 89.1106 63.824 89.4576C63.4936 89.8047 63.0352 90.0009 62.556 90.0002H43.464C42.9937 89.9891 42.5481 89.7873 42.2296 89.4411C41.9111 89.0949 41.747 88.6341 41.7751 88.1645C42.1128 81.3354 46.2543 76.2246 53.0394 76.2246Z" fill="#0078D4"/>
<path d="M43.5078 88.84C43.2028 88.8017 42.9824 88.5295 43.0084 88.2232C43.2581 81.6291 47.7961 77.3848 53.0391 77.3848C58.2821 77.3848 62.8201 81.6291 63.1432 88.2232C63.1424 88.3844 63.0853 88.5403 62.9816 88.6637C62.8662 88.7729 62.7145 88.8356 62.5557 88.84H43.5078Z" fill="url(#paint4_linear)"/>
<path d="M58.5026 81.0249C57.147 79.8094 55.4276 79.0762 53.6121 78.9395V82.8019C54.4464 82.9064 55.2349 83.2422 55.8884 83.7712L58.5026 81.0249Z" fill="#5EA0EF"/>
<path d="M47.5759 81.0249L50.1901 83.7125C50.8433 83.2022 51.6272 82.8866 52.4517 82.8019V78.9395C50.64 79.0739 48.9245 79.8076 47.5759 81.0249Z" fill="#0078D4"/>
<path d="M56.7112 84.5665C57.2393 85.2389 57.5789 86.0398 57.6952 86.8869H61.3961C61.2715 85.0442 60.5614 83.2896 59.3694 81.8789L56.7112 84.5665Z" fill="#5EA0EF"/>
<path d="M49.3676 84.5665L46.7535 81.8789C45.5561 83.2863 44.8452 85.0428 44.7268 86.8869H48.413C48.5279 86.0446 48.8566 85.2458 49.3676 84.5665Z" fill="#005BA1"/>
<path d="M59.8392 83.728C59.7111 83.434 59.3792 83.2872 59.0755 83.3902L53.627 85.5638L54.0529 86.6506L59.5014 84.477C59.7933 84.3549 59.9409 84.0277 59.8392 83.728Z" fill="#005BA1"/>
<circle cx="53.0392" cy="86.3576" r="1.58611" fill="#767676"/>
</g>
<circle cx="29.9168" cy="30.3882" r="3.6167" fill="white" stroke="#32BEDD" stroke-width="2"/>
<circle cx="76.0835" cy="30.3882" r="3.6167" fill="white" stroke="#32BEDD" stroke-width="2"/>
<circle cx="29.9168" cy="76.5542" r="3.6167" fill="white" stroke="#32BEDD" stroke-width="2"/>
<circle cx="76.0835" cy="76.5542" r="3.6167" fill="white" stroke="#32BEDD" stroke-width="2"/>
</g>
<defs>
<filter id="filter0_d" x="0.5" y="0.5" width="105.5" height="105.5" filterUnits="userSpaceOnUse" color-interpolation-filters="sRGB">
<feFlood flood-opacity="0" result="BackgroundImageFix"/>
<feColorMatrix in="SourceAlpha" type="matrix" values="0 0 0 0 0 0 0 0 0 0 0 0 0 0 0 0 0 0 127 0"/>
<feOffset dx="0.5" dy="0.5"/>
<feColorMatrix type="matrix" values="0 0 0 0 0.823529 0 0 0 0 0.831373 0 0 0 0 0.835294 0 0 0 1 0"/>
<feBlend mode="normal" in2="BackgroundImageFix" result="effect1_dropShadow"/>
<feBlend mode="normal" in="SourceGraphic" in2="effect1_dropShadow" result="shape"/>
</filter>
<filter id="filter1_d" x="15.5291" y="16" width="74.9422" height="78.0002" filterUnits="userSpaceOnUse" color-interpolation-filters="sRGB">
<feFlood flood-opacity="0" result="BackgroundImageFix"/>
<feColorMatrix in="SourceAlpha" type="matrix" values="0 0 0 0 0 0 0 0 0 0 0 0 0 0 0 0 0 0 127 0"/>
<feOffset/>
<feGaussianBlur stdDeviation="2"/>
<feColorMatrix type="matrix" values="0 0 0 0 0 0 0 0 0 0 0 0 0 0 0 0 0 0 0.15 0"/>
<feBlend mode="normal" in2="BackgroundImageFix" result="effect1_dropShadow"/>
<feBlend mode="normal" in="SourceGraphic" in2="effect1_dropShadow" result="shape"/>
</filter>
<filter id="filter2_d" x="32.7112" y="37.1055" width="41.5824" height="40.7586" filterUnits="userSpaceOnUse" color-interpolation-filters="sRGB">
<feFlood flood-opacity="0" result="BackgroundImageFix"/>
<feColorMatrix in="SourceAlpha" type="matrix" values="0 0 0 0 0 0 0 0 0 0 0 0 0 0 0 0 0 0 127 0"/>
<feOffset dy="4"/>
<feGaussianBlur stdDeviation="2"/>
<feColorMatrix type="matrix" values="0 0 0 0 0 0 0 0 0 0 0 0 0 0 0 0 0 0 0.2 0"/>
<feBlend mode="normal" in2="BackgroundImageFix" result="effect1_dropShadow"/>
<feBlend mode="normal" in="SourceGraphic" in2="effect1_dropShadow" result="shape"/>
</filter>
<filter id="filter3_d" x="39.0398" y="36.1074" width="31.2537" height="32.2537" filterUnits="userSpaceOnUse" color-interpolation-filters="sRGB">
<feFlood flood-opacity="0" result="BackgroundImageFix"/>
<feColorMatrix in="SourceAlpha" type="matrix" values="0 0 0 0 0 0 0 0 0 0 0 0 0 0 0 0 0 0 127 0"/>
<feOffset dy="-1"/>
<feColorMatrix type="matrix" values="0 0 0 0 0 0 0 0 0 0 0 0 0 0 0 0 0 0 0.1 0"/>
<feBlend mode="normal" in2="BackgroundImageFix" result="effect1_dropShadow"/>
<feBlend mode="normal" in="SourceGraphic" in2="effect1_dropShadow" result="shape"/>
</filter>
<filter id="filter4_d" x="37.772" y="72.2246" width="30.5339" height="21.7756" filterUnits="userSpaceOnUse" color-interpolation-filters="sRGB">
<feFlood flood-opacity="0" result="BackgroundImageFix"/>
<feColorMatrix in="SourceAlpha" type="matrix" values="0 0 0 0 0 0 0 0 0 0 0 0 0 0 0 0 0 0 127 0"/>
<feOffset/>
<feGaussianBlur stdDeviation="2"/>
<feColorMatrix type="matrix" values="0 0 0 0 0 0 0 0 0 0 0 0 0 0 0 0 0 0 0.25 0"/>
<feBlend mode="normal" in2="BackgroundImageFix" result="effect1_dropShadow"/>
<feBlend mode="normal" in="SourceGraphic" in2="effect1_dropShadow" result="shape"/>
</filter>
<linearGradient id="paint0_linear" x1="26.0493" y1="26.4463" x2="26.0493" y2="80.5277" gradientUnits="userSpaceOnUse">
<stop stop-color="#1E5CA5"/>
<stop offset="1" stop-color="#225496"/>
</linearGradient>
<linearGradient id="paint1_linear" x1="39.1824" y1="36.9331" x2="32.5314" y2="43.833" gradientUnits="userSpaceOnUse">
<stop stop-color="#32D4F5"/>
<stop offset="0.47" stop-color="#31D1F3"/>
<stop offset="0.756625" stop-color="#2EC9EB"/>
<stop offset="1" stop-color="#29BADE"/>
</linearGradient>
<linearGradient id="paint2_linear" x1="71.0086" y1="42.7543" x2="64.6353" y2="36.381" gradientUnits="userSpaceOnUse">
<stop stop-color="#C69AEB"/>
<stop offset="0.09" stop-color="#BB90E4"/>
<stop offset="0.49" stop-color="#926BC9"/>
<stop offset="0.81" stop-color="#7854B8"/>
<stop offset="1" stop-color="#6F4BB2"/>
</linearGradient>
<linearGradient id="paint3_linear" x1="39.0274" y1="67.9949" x2="39.3662" y2="72.4667" gradientUnits="userSpaceOnUse">
<stop stop-color="#32D4F5"/>
<stop offset="0.47" stop-color="#31D1F3"/>
<stop offset="0.63" stop-color="#2EC9EB"/>
<stop offset="0.77" stop-color="#29BADE"/>
<stop offset="0.89" stop-color="#22A5CB"/>
<stop offset="1" stop-color="#198AB3"/>
<stop offset="1" stop-color="#198AB3"/>
</linearGradient>
<linearGradient id="paint4_linear" x1="43.5515" y1="77.796" x2="43.5515" y2="88.5903" gradientUnits="userSpaceOnUse">
<stop stop-color="white"/>
<stop offset="0.56" stop-color="#FBFBFB"/>
<stop offset="1" stop-color="#F2F2F2"/>
</linearGradient>
</defs>
</svg>
