<?xml version="1.0" encoding="UTF-8"?>
<svg width="107px" height="107px" viewBox="0 0 107 107" version="1.1" xmlns="http://www.w3.org/2000/svg" xmlns:xlink="http://www.w3.org/1999/xlink">
    <!-- Generator: Sketch 61.2 (89653) - https://sketch.com -->
    <title>NA/introduction-to-power-platform</title>
    <desc>Created with Sketch.</desc>
    <defs>
        <rect id="path-1" x="0" y="0" width="100" height="100" rx="50"></rect>
        <filter x="-5.0%" y="-6.7%" width="110.0%" height="113.3%" filterUnits="objectBoundingBox" id="filter-3">
            <feOffset dx="0" dy="2" in="SourceAlpha" result="shadowOffsetOuter1"></feOffset>
            <feColorMatrix values="0 0 0 0 0   0 0 0 0 0   0 0 0 0 0  0 0 0 0.10082654 0" type="matrix" in="shadowOffsetOuter1" result="shadowMatrixOuter1"></feColorMatrix>
            <feMerge>
                <feMergeNode in="shadowMatrixOuter1"></feMergeNode>
                <feMergeNode in="SourceGraphic"></feMergeNode>
            </feMerge>
        </filter>
        <linearGradient x1="78.4210223%" y1="-7.24023438%" x2="15.5786468%" y2="110.793945%" id="linearGradient-4">
            <stop stop-color="#FFFFFF" offset="0%"></stop>
            <stop stop-color="#000000" stop-opacity="0.5" offset="100%"></stop>
        </linearGradient>
        <rect id="path-5" x="-3" y="-3" width="106" height="106" rx="53"></rect>
        <filter x="-0.5%" y="-0.5%" width="101.9%" height="101.9%" filterUnits="objectBoundingBox" id="filter-6">
            <feOffset dx="1" dy="1" in="SourceAlpha" result="shadowOffsetOuter1"></feOffset>
            <feMorphology radius="4" operator="erode" in="SourceAlpha" result="shadowInner"></feMorphology>
            <feOffset dx="1" dy="1" in="shadowInner" result="shadowInner"></feOffset>
            <feComposite in="shadowOffsetOuter1" in2="shadowInner" operator="out" result="shadowOffsetOuter1"></feComposite>
            <feColorMatrix values="0 0 0 0 0   0 0 0 0 0   0 0 0 0 0  0 0 0 0.15 0" type="matrix" in="shadowOffsetOuter1"></feColorMatrix>
        </filter>
    </defs>
    <g id="Badges" stroke="none" stroke-width="1" fill="none" fill-rule="evenodd">
        <g id="N/A-74" transform="translate(-47.000000, -457.000000)">
            <g id="NA/introduction-to-power-platform" transform="translate(50.000000, 460.000000)">
                <g id="Mask" transform="translate(2.000000, 2.000000)">
                    <g id="Circle-" transform="translate(-2.000000, -0.000000)">
                        <mask id="mask-2" fill="white">
                            <use xlink:href="#path-1"></use>
                        </mask>
                        <g id="BG"></g>
                        <g id="Color/Blue" mask="url(#mask-2)" fill="#55A2FF" fill-rule="evenodd">
                            <rect id="Rectangle" x="0" y="0" width="100" height="100"></rect>
                        </g>
                    </g>
                    <path d="M89.3713448,59.8636045 L80.4673448,59.8636045 C77.4673448,59.8636045 75.0263448,57.4236045 75.0263448,54.4226045 C75.0263448,51.4226045 77.4663448,48.9816045 80.4673448,48.9816045 C80.7433448,48.9816045 81.0193448,49.0066045 81.3173448,49.0586045 C82.3646453,45.4852174 85.6476634,43.0341635 89.3713448,43.0455646 C94.0083448,43.0455646 97.7813448,46.8176045 97.7813448,51.4556045 C97.7813448,56.0916045 94.0083448,59.8636045 89.3713448,59.8636045 Z" id="Cloud" fill="#FFFFFF" fill-rule="nonzero" transform="translate(86.403845, 51.454585) scale(-1, 1) translate(-86.403845, -51.454585) "></path>
                    <g id="Group" transform="translate(9.000000, 18.000000)">
                        <g id="Screen" filter="url(#filter-3)">
                            <path d="M77.5,12.5 L77.5,57.5 C77.5,58.875 76.375,60 75,60 L5,60 C3.625,60 2.5,58.875 2.5,57.5 L2.5,12.5 L77.5,12.5" id="Fill-1017" fill="#E1E4E1"></path>
                            <path d="M40,7.5 C38.62,7.5 37.5,6.38 37.5,5 L37.5,2.5 C37.5,1.11875 38.62,0 40,0 C41.38,0 42.5,1.11875 42.5,2.5 L42.5,5 C42.5,6.38 41.38,7.5 40,7.5" id="Fill-1018" fill="#546670"></path>
                            <path d="M80,11.25 C80,11.9375 79.4375,12.5 78.75,12.5 L1.25,12.5 C0.5625,12.5 0,11.9375 0,11.25 L0,6.25 C0,5.5625 0.5625,5 1.25,5 L78.75,5 C79.4375,5 80,5.5625 80,6.25 L80,11.25" id="Fill-1019" fill="#30404D"></path>
                            <polygon id="Fill-1020" fill="#C5CCCD" points="2.5 15 77.5 15 77.5 12.5 2.5 12.5"></polygon>
                            <path d="M1.25,12.5 L78.75,12.5 C79.4375,12.5 80,11.9375 80,11.25 L80,6.25 C80,5.5625 79.4375,5 78.75,5 L40,5 L40,7.5 C40,8.19 39.44,8.75 38.75,8.75 L0,8.75 L0,11.25 C0,11.9375 0.5625,12.5 1.25,12.5" id="Fill-1026" fill="#182A37"></path>
                            <path d="M40,2.37875 L40,5 L42.5,5 L42.5,2.5 C42.5,2.35625 42.4875,2.21625 42.465,2.08 C42.21875,0.62375 40,0.9025 40,2.37875" id="Fill-1027" fill="#30404D"></path>
                        </g>
                        <circle id="Oval" fill="#742674" cx="12.5" cy="35.8747528" r="7.5"></circle>
                        <circle id="Oval" fill="#EDBD10" cx="31.25" cy="35.8747528" r="7.5"></circle>
                        <circle id="Oval" fill="#0177FF" cx="50" cy="35.8747528" r="7.5"></circle>
                        <circle id="Oval" fill="#15848F" cx="68.75" cy="35.8747528" r="7.5"></circle>
                        <g id="PowerApp" transform="translate(6.250000, 32.124753)" fill="#FFFFFF" fill-rule="nonzero">
                            <path d="M7.00597824,5.66389411 L7.91431157,4.75556078 C8.16223426,4.50792806 8.56388889,4.50792806 8.81181157,4.75556078 L9.7201449,5.66389411 C9.83932466,5.7829922 9.90628601,5.94457289 9.90628601,6.11306078 C9.90628601,6.28154866 9.83932466,6.44312936 9.7201449,6.56222745 L8.81181157,7.47056078 C8.69271348,7.58974053 8.53113279,7.65670189 8.3626449,7.65670189 C8.19415702,7.65670189 8.03257633,7.58974053 7.91347824,7.47056078 L7.00597824,6.56222745 C6.88679849,6.44312936 6.81983713,6.28154866 6.81983713,6.11306078 C6.81983713,5.94457289 6.88679849,5.7829922 7.00597824,5.66389411 L7.00597824,5.66389411 Z" id="Rectangle-path"></path>
                            <path d="M9.26347824,3.40306078 L10.1718116,2.49472745 C10.4197343,2.24709472 10.8213889,2.24709472 11.0693116,2.49472745 L11.9776449,3.40306078 C12.0968247,3.52215887 12.163786,3.68373956 12.163786,3.85222745 C12.163786,4.02071533 12.0968247,4.18229602 11.9776449,4.30139411 L11.0693116,5.20972745 C10.9502135,5.3289072 10.7886328,5.39586855 10.6201449,5.39586855 C10.451657,5.39586855 10.2900763,5.3289072 10.1709782,5.20972745 L9.2626449,4.30139411 C9.14346515,4.18229602 9.0765038,4.02071533 9.0765038,3.85222745 C9.0765038,3.68373956 9.14346515,3.52215887 9.2626449,3.40306078 L9.26347824,3.40306078 Z" id="Rectangle-path"></path>
                            <path d="M7.55431157,3.49056078 L7.20097824,3.13806078 L4.2126449,0.149727445 C4.0129538,-0.0493546496 3.68983601,-0.0493546496 3.4901449,0.149727445 L0.501811571,3.13806078 L0.149311571,3.49056078 C-0.0497705237,3.69025188 -0.0497705237,4.01336967 0.149311571,4.21306078 L0.501811571,4.56556078 L3.49097824,7.55222745 C3.69097824,7.75222745 4.01347824,7.75222745 4.21347824,7.55222745 L7.20181157,4.56556078 L7.55431157,4.21306078 C7.75339367,4.01336967 7.75339367,3.69025188 7.55431157,3.49056078 M3.49181157,5.29639411 L2.68431157,4.48972745 L2.4076449,4.21306078 C2.20856281,4.01336967 2.20856281,3.69025188 2.4076449,3.49056078 L3.49097824,2.40722745 C3.69066934,2.20814535 4.01378713,2.20814535 4.21347824,2.40722745 L5.29681157,3.49056078 C5.49589367,3.69025188 5.49589367,4.01336967 5.29681157,4.21306078 L5.0201449,4.48972745 L4.21347824,5.29639411 C4.01378713,5.49547621 3.69066934,5.49547621 3.49097824,5.29639411" id="Shape"></path>
                            <path d="M8.72431157,3.03889411 L9.8076449,1.95556078 C10.006727,1.75586967 10.006727,1.43275188 9.8076449,1.23306078 L8.72431157,0.149727445 C8.52452453,-0.0499091484 8.20076528,-0.0499091484 8.00097824,0.149727445 L6.9176449,1.23306078 C6.71856281,1.43275188 6.71856281,1.75586967 6.9176449,1.95556078 L8.00097824,3.03889411 C8.20097824,3.23806078 8.52431157,3.23806078 8.72347824,3.03889411" id="Shape"></path>
                        </g>
                        <g id="Power" transform="translate(45.000000, 32.124753)" fill="#FFFFFF" fill-rule="nonzero">
                            <path d="M0.642857143,4.72098214 L0.642857143,1.31946429 C0.642857143,0.867857143 1.00767857,0.503035714 1.45848214,0.503035714 L9.50625,0.503035714 C9.95705357,0.503035714 10.3226786,0.868660714 10.3234821,1.31946429 L10.3234821,5.65473214 C10.3234821,6.10473214 9.95705357,6.47035714 9.50625,6.47116071 L5.79133929,6.47116071 L5.79133929,6.89544643 L9.50625,6.89544643 C10.1916964,6.89544643 10.7469643,6.339375 10.7477679,5.65473214 L10.7477679,1.31946429 C10.7477679,0.634017857 10.1916964,0.07875 9.50625,0.0779464286 L1.45928571,0.0779464286 C0.773839286,0.07875 0.218571429,0.634821429 0.217767857,1.31946429 L0.217767857,4.72098214 L0.642053571,4.72098214 L0.642857143,4.72098214 Z" id="Shape"></path>
                            <path d="M5.80258929,3.61366071 C5.80237593,3.71190929 5.84120053,3.80621858 5.91052207,3.87584151 C5.9798436,3.94546444 6.07398357,3.98469782 6.17223214,3.98491071 L7.89991071,3.98491071 C8.10431852,3.98402582 8.26955445,3.81807044 8.26955445,3.61366071 L8.26955445,1.88035714 C8.26976692,1.78210857 8.23094232,1.68779928 8.16162079,1.61817635 C8.09229926,1.54855342 7.99815929,1.50932003 7.89991071,1.50910714 L6.17223214,1.50910714 C5.96782434,1.50999203 5.80258737,1.67594742 5.80258929,1.88035714 L5.80258929,2.43883929 L5.10508929,2.43883929 C4.81301638,2.43889057 4.55402632,2.62656922 4.46303571,2.90410714 L3.40232143,6.11035714 C3.39421876,6.13587824 3.37043646,6.15314484 3.34366071,6.15294643 L2.68473214,6.15294643 L2.68473214,5.59446429 C2.68494549,5.49621571 2.6461209,5.40190642 2.57679936,5.33228349 C2.50747783,5.26266056 2.41333786,5.22342718 2.31508929,5.22321429 L0.586607143,5.22321429 C0.382199337,5.22409918 0.216963411,5.39005456 0.216963411,5.59446429 L0.216963411,7.32776786 C0.216750934,7.42601643 0.255575533,7.52032572 0.324897066,7.58994865 C0.394218599,7.65957158 0.48835857,7.69880497 0.586607143,7.69901786 L2.31428571,7.69901786 C2.51869352,7.69813297 2.68393049,7.53217758 2.68392857,7.32776786 L2.68392857,6.77008929 L3.34285714,6.77008929 C3.63522602,6.77038554 3.89463157,6.58264078 3.98571429,6.30482143 L5.04642857,3.09857143 C5.05453124,3.07305033 5.07831354,3.05578373 5.10508929,3.05598214 L5.80178571,3.05598214 L5.80178571,3.61285714 L5.80258929,3.61366071 Z M2.06839286,7.08026786 L0.834107143,7.08026786 L0.834107143,5.84196429 L2.06839286,5.84196429 L2.06839286,7.07946429 L2.06839286,7.08026786 Z" id="Shape"></path>
                        </g>
                        <g id="powerbi_icon" transform="translate(26.250000, 32.124753)" fill="#FFFFFF" fill-rule="nonzero">
                            <path d="M8.45571429,6.08928571 L8.26285714,6.08928571 L8.26285714,5.71071429 L8.45571429,5.71071429 C8.86642857,5.70928571 9.19928571,5.38357143 9.2,4.98071429 L9.2,1.10857143 C9.2,0.705714286 8.86642857,0.38 8.45571429,0.379285714 L1.13071429,0.379285714 C0.72,0.378571429 0.387142857,0.705714286 0.385714286,1.10857143 L0.385714286,4.98071429 C0.385714286,5.38357143 0.719285714,5.70928571 1.13,5.71071429 L1.32285714,5.71071429 L1.32285714,6.08928571 L1.13,6.08928571 C0.506428571,6.08928571 0,5.59285714 0,4.98071429 L0,1.10857143 C0.000714285714,0.496428571 0.507142857,0.000714285714 1.13071429,0 L8.45571429,0 C9.08,0.000714285714 9.58571429,0.496428571 9.58642857,1.10857143 L9.58642857,4.98071429 C9.58642857,5.59285714 9.08,6.08857143 8.45571429,6.08928571" id="Shape"></path>
                            <path d="M2.31785714,4.82 C2.45714286,4.82 2.59071429,4.87428571 2.68928571,4.97071429 C2.78743999,5.06651025 2.84280717,5.19784634 2.84285714,5.335 L2.84285714,6.52071429 C2.84285714,6.805 2.60785714,7.03500365 2.31785714,7.03500365 C2.1791923,7.03551431 2.04584838,6.98166388 1.94642857,6.885 C1.84827429,6.78920404 1.79290712,6.65786794 1.79285714,6.52071429 L1.79285714,5.335 C1.79285714,5.05071429 2.02857143,4.82071429 2.31785714,4.82071429 L2.31785714,4.82 Z" id="Shape"></path>
                            <path d="M3.96857143,7.03573859 C3.83065696,7.03704676 3.69786246,6.98353506 3.59940446,6.88695245 C3.50094647,6.79036985 3.44489115,6.65862888 3.44357143,6.52071429 L3.44357143,3.47571429 C3.44357143,3.19214286 3.67857143,2.96142857 3.96857143,2.96142857 C4.25785714,2.96142857 4.49285714,3.19214286 4.49285714,3.47571429 L4.49285714,6.52142857 C4.49285714,6.80571429 4.25785714,7.03573859 3.96857143,7.03573859" id="Shape"></path>
                            <path d="M7.26857143,7.02002485 C6.98165405,7.02277613 6.74671108,6.79262791 6.74357143,6.50571429 L6.74357143,2.19428571 C6.74357143,1.91 6.97928571,1.68 7.26857143,1.68 C7.55857143,1.68 7.79357143,1.91 7.79357143,2.19428571 L7.79357143,6.50571429 C7.79357143,6.79 7.55785714,7.02002485 7.26857143,7.02002485" id="Shape"></path>
                            <path d="M5.61857143,7.03573859 C5.48065696,7.03704676 5.34786246,6.98353506 5.24940446,6.88695245 C5.15094647,6.79036985 5.09489115,6.65862888 5.09357143,6.52071429 L5.09357143,4.25857143 C5.09357143,3.975 5.32928571,3.74428571 5.61857143,3.74428571 C5.90857143,3.74428571 6.14357143,3.975 6.14357143,4.25857143 L6.14357143,6.52142857 C6.14357143,6.80571429 5.90785714,7.03573859 5.61857143,7.03573859" id="Shape"></path>
                        </g>
                        <g id="Group-4" transform="translate(63.750000, 32.124753)">
                            <path d="M8.80591246,6.00585937 L8.96963122,6.00585937 C9.52191597,6.00585937 9.96963122,5.55814412 9.96963122,5.00585937 L9.96963122,1.0390625 C9.96963122,0.48677775 9.52191597,0.0390625 8.96963122,0.0390625 L1.10852011,0.0390625 C0.556235356,0.0390625 0.108520106,0.48677775 0.108520106,1.0390625 L0.108520106,5.00585937 C0.108520106,5.55814412 0.556235356,6.00585937 1.10852011,6.00585937 L1.18821363,6.00585937 L1.18821363,6.00585937" id="Path-285" stroke="#FFFFFF" stroke-width="0.35"></path>
                            <path d="M2.98392366,6.72743906 L2.98392366,6.00278896 L2.98392366,6.00278896 L5.89685306,6.00278896 C6.09189073,6.00278896 6.25,5.84467969 6.25,5.64964202 C6.25,5.45460435 6.09189073,5.29649507 5.89685306,5.29649507 L4.61696183,5.29649507 C3.71505975,5.29649507 2.98392366,4.56535898 2.98392366,3.6634569 L2.98392366,2.77777778 L2.98392366,2.77777778 L2.00555556,2.77777778 C1.89509861,2.77777778 1.80555556,2.86732083 1.80555556,2.97777778 L1.80555556,6.00278896 L1.80555556,6.00278896 L2.64010139,6.86641803 C2.71685735,6.94584887 2.84347178,6.94801729 2.92290263,6.87126133 C2.96190084,6.8335764 2.98392366,6.78167018 2.98392366,6.72743906 Z" id="Path-286" fill="#FFFFFF"></path>
                            <path d="M4.9283681,5.33855017 L4.9283681,4.61390007 L4.9283681,4.61390007 L7.69444444,4.61390007 C7.97058682,4.61390007 8.19444444,4.39004245 8.19444444,4.11390007 L8.19444444,1.88888889 C8.19444444,1.61274651 7.97058682,1.38888889 7.69444444,1.38888889 L4.25,1.38888889 C3.97385763,1.38888889 3.75,1.61274651 3.75,1.88888889 L3.75,4.61390007 L3.75,4.61390007 L4.58454583,5.47752914 C4.6613018,5.55695999 4.78791623,5.55912841 4.86734707,5.48237244 C4.90634529,5.44468751 4.9283681,5.39278129 4.9283681,5.33855017 Z" id="Path-286" stroke="#FFFFFF" stroke-width="0.35" transform="translate(5.972222, 3.611111) scale(-1, 1) translate(-5.972222, -3.611111) "></path>
                        </g>
                    </g>
                    <path d="M20.326,33.009805 L3.431,33.009805 C0.432132275,33.0064964 -1.99779556,30.5756738 -2,27.576805 C-2,25.246805 -0.51,23.1998022 1.673,22.454805 C2.12812176,17.4925508 6.2919198,13.6960447 11.275,13.6998022 C16.156,13.6998022 20.26,17.379805 20.847,22.171805 C23.6301952,22.443319 25.7537569,24.7813993 25.757,27.577805 C25.7536944,30.5755029 23.3246972,33.0049474 20.327,33.008805 L20.326,33.009805 Z" id="Cloud" fill="#FFFFFF" fill-rule="nonzero" opacity="0.9"></path>
                </g>
                <g id="Azure-Border">
                    <path d="M50,0 C74.5263677,-4.50542066e-15 94.9281966,17.6592499 99.1842495,40.9565123 L94.2027317,73.3905473 C85.8096395,89.2186645 69.1638777,100 50,100 C30.9551233,100 14.3971863,89.3521454 5.95457608,73.6848234 L0.0261464987,48.3675131 C0.887696267,21.508872 22.932015,4.97230817e-15 50,0 Z" id="Combined-Shape" fill="url(#linearGradient-4)" fill-rule="evenodd" opacity="0.400000006" style="mix-blend-mode: overlay;"></path>
                    <g>
                        <use fill="black" fill-opacity="1" filter="url(#filter-6)" xlink:href="#path-5"></use>
                        <rect stroke="#F2F1F0" stroke-width="4" stroke-linejoin="square" x="-1" y="-1" width="102" height="102" rx="51"></rect>
                    </g>
                    <rect stroke="#0078D4" stroke-width="4" x="2" y="2" width="96" height="96" rx="48"></rect>
                </g>
            </g>
        </g>
    </g>
</svg>