<svg width="157" height="119" viewBox="0 0 157 119" fill="none" xmlns="http://www.w3.org/2000/svg">
<g filter="url(#filter0_d)">
<circle cx="104" cy="53" r="49" fill="#5197D5"/>
<circle cx="104" cy="53" r="50.75" stroke="#F2F1F0" stroke-width="3.5"/>
</g>
<circle cx="104" cy="53" r="48" stroke="#0078D4" stroke-width="4"/>
<g filter="url(#filter1_d)">
<path d="M100.5 18V45H105.5V18H100.5Z" fill="white"/>
</g>
<g filter="url(#filter2_d)">
<path fill-rule="evenodd" clip-rule="evenodd" d="M103.678 73.4737C114.902 73.4737 124 64.3754 124 53.152C124 41.9287 114.902 32.8304 103.678 32.8304C92.455 32.8304 83.3567 41.9287 83.3567 53.152C83.3567 57.0689 84.4649 60.727 86.3848 63.8298V70.4455H93.0005C96.1033 72.3655 99.7614 73.4737 103.678 73.4737Z" fill="#FCA11F"/>
<path fill-rule="evenodd" clip-rule="evenodd" d="M124 53.1521C124 64.3754 114.902 73.4737 103.678 73.4737C99.7614 73.4737 96.1033 72.3655 93.0004 70.4456H86.3848V70.3253L118.133 38.8685C121.761 42.539 124 47.584 124 53.1521Z" fill="#E89619"/>
<circle cx="103.678" cy="42.3855" r="2.69161" fill="white"/>
<circle cx="103.678" cy="63.9185" r="2.69161" fill="white"/>
<circle cx="110.946" cy="56.6509" r="2.69161" fill="white"/>
<circle cx="110.946" cy="49.5183" r="2.69161" fill="white"/>
<path d="M109.869 53.0171C109.869 54.0456 108.77 55.9106 108.254 56.7181H113.57C113.077 56.0003 112.143 54.2553 112.09 53.0171C112.066 52.477 112.242 51.8489 112.493 51.2547C112.818 50.4868 113.267 49.7755 113.57 49.3835H108.254C108.86 50.1685 109.869 51.6713 109.869 53.0171Z" fill="white"/>
<circle cx="96.411" cy="56.6512" r="2.69161" fill="white"/>
<circle cx="96.411" cy="49.5183" r="2.69161" fill="white"/>
<path d="M95.3344 53.0174C95.3344 54.0459 94.9082 54.1614 94.3923 54.9688L98.3624 54.9016C97.869 54.1838 97.6088 54.2556 97.555 53.0174C97.5315 52.4773 97.555 52.2772 97.8241 51.8735C98.125 51.4221 98.059 51.5926 98.3624 51.2006L94.5942 51.4025C95.1998 52.1875 95.3344 51.6716 95.3344 53.0174Z" fill="white"/>
<circle cx="110.946" cy="56.6509" r="2.69161" fill="white"/>
<circle cx="110.946" cy="49.5183" r="2.69161" fill="white"/>
<path d="M109.869 53.0174C109.869 54.0459 109.443 54.1614 108.927 54.9688L112.897 54.9016C112.404 54.1838 112.143 54.2556 112.09 53.0174C112.066 52.4773 112.09 52.2772 112.359 51.8735C112.66 51.4221 112.594 51.5926 112.897 51.2006L109.129 51.4025C109.734 52.1875 109.869 51.6716 109.869 53.0174Z" fill="white"/>
<circle cx="103.678" cy="56.6509" r="2.69161" fill="white"/>
<circle cx="103.678" cy="49.5183" r="2.69161" fill="white"/>
<path d="M102.602 53.0174C102.602 54.0459 102.176 54.1614 101.66 54.9688L105.63 54.9016C105.136 54.1838 104.876 54.2556 104.822 53.0174C104.799 52.4773 104.822 52.2772 105.091 51.8735C105.392 51.4221 105.326 51.5926 105.63 51.2006L101.862 51.4025C102.467 52.1875 102.602 51.6716 102.602 53.0174Z" fill="white"/>
<circle cx="103.678" cy="56.6509" r="2.69161" fill="white"/>
<circle cx="103.678" cy="49.5183" r="2.69161" fill="white"/>
<path d="M102.602 53.0174C102.602 54.0459 102.176 54.1614 101.66 54.9688L105.63 54.9016C105.136 54.1838 104.876 54.2556 104.822 53.0174C104.799 52.4773 104.822 52.2772 105.091 51.8735C105.392 51.4221 105.326 51.5926 105.63 51.2006L101.862 51.4025C102.467 52.1875 102.602 51.6716 102.602 53.0174Z" fill="white"/>
</g>
<g filter="url(#filter3_d)">
<path d="M87.7278 28C79.4684 33.4208 74 42.8409 74 53.5631C74 70.3728 87.4316 84 104 84C120.568 84 134 70.3728 134 53.5631C134 42.8409 128.532 33.4208 120.272 28" stroke="white" stroke-width="5" stroke-miterlimit="10"/>
</g>
<defs>
<filter id="filter0_d" x="51.5" y="0.5" width="105.5" height="105.5" filterUnits="userSpaceOnUse" color-interpolation-filters="sRGB">
<feFlood flood-opacity="0" result="BackgroundImageFix"/>
<feColorMatrix in="SourceAlpha" type="matrix" values="0 0 0 0 0 0 0 0 0 0 0 0 0 0 0 0 0 0 127 0"/>
<feOffset dx="0.5" dy="0.5"/>
<feColorMatrix type="matrix" values="0 0 0 0 0.823529 0 0 0 0 0.831373 0 0 0 0 0.835294 0 0 0 1 0"/>
<feBlend mode="normal" in2="BackgroundImageFix" result="effect1_dropShadow"/>
<feBlend mode="normal" in="SourceGraphic" in2="effect1_dropShadow" result="shape"/>
</filter>
<filter id="filter1_d" x="96.5" y="16" width="13" height="35" filterUnits="userSpaceOnUse" color-interpolation-filters="sRGB">
<feFlood flood-opacity="0" result="BackgroundImageFix"/>
<feColorMatrix in="SourceAlpha" type="matrix" values="0 0 0 0 0 0 0 0 0 0 0 0 0 0 0 0 0 0 127 0"/>
<feOffset dy="2"/>
<feGaussianBlur stdDeviation="2"/>
<feColorMatrix type="matrix" values="0 0 0 0 0 0 0 0 0 0 0 0 0 0 0 0 0 0 0.1 0"/>
<feBlend mode="normal" in2="BackgroundImageFix" result="effect1_dropShadow"/>
<feBlend mode="normal" in="SourceGraphic" in2="effect1_dropShadow" result="shape"/>
</filter>
<filter id="filter2_d" x="79.3567" y="30.8304" width="48.6433" height="48.6433" filterUnits="userSpaceOnUse" color-interpolation-filters="sRGB">
<feFlood flood-opacity="0" result="BackgroundImageFix"/>
<feColorMatrix in="SourceAlpha" type="matrix" values="0 0 0 0 0 0 0 0 0 0 0 0 0 0 0 0 0 0 127 0"/>
<feOffset dy="2"/>
<feGaussianBlur stdDeviation="2"/>
<feColorMatrix type="matrix" values="0 0 0 0 0 0 0 0 0 0 0 0 0 0 0 0 0 0 0.1 0"/>
<feBlend mode="normal" in2="BackgroundImageFix" result="effect1_dropShadow"/>
<feBlend mode="normal" in="SourceGraphic" in2="effect1_dropShadow" result="shape"/>
</filter>
<filter id="filter3_d" x="67.5" y="23.9099" width="73" height="68.5901" filterUnits="userSpaceOnUse" color-interpolation-filters="sRGB">
<feFlood flood-opacity="0" result="BackgroundImageFix"/>
<feColorMatrix in="SourceAlpha" type="matrix" values="0 0 0 0 0 0 0 0 0 0 0 0 0 0 0 0 0 0 127 0"/>
<feOffset dy="2"/>
<feGaussianBlur stdDeviation="2"/>
<feColorMatrix type="matrix" values="0 0 0 0 0 0 0 0 0 0 0 0 0 0 0 0 0 0 0.1 0"/>
<feBlend mode="normal" in2="BackgroundImageFix" result="effect1_dropShadow"/>
<feBlend mode="normal" in="SourceGraphic" in2="effect1_dropShadow" result="shape"/>
</filter>
</defs>
</svg>
