<?xml version="1.0" encoding="UTF-8"?>
<svg width="100px" height="100px" viewBox="0 0 100 100" version="1.1" xmlns="http://www.w3.org/2000/svg" xmlns:xlink="http://www.w3.org/1999/xlink">
    <!-- Generator: Sketch 52.5 (67469) - http://www.bohemiancoding.com/sketch -->
    <title>Get started with Power BI to make business decisions/find-help-and-get-training-on-power-bi</title>
    <desc>Created with Sketch.</desc>
    <defs>
        <rect id="path-1" x="0" y="0" width="96" height="96" rx="48"></rect>
        <filter x="-4.5%" y="-4.8%" width="109.0%" height="109.6%" filterUnits="objectBoundingBox" id="filter-3">
            <feOffset dx="0" dy="1" in="SourceAlpha" result="shadowOffsetOuter1"></feOffset>
            <feColorMatrix values="0 0 0 0 0   0 0 0 0 0   0 0 0 0 0  0 0 0 0.102043705 0" type="matrix" in="shadowOffsetOuter1" result="shadowMatrixOuter1"></feColorMatrix>
            <feMerge>
                <feMergeNode in="shadowMatrixOuter1"></feMergeNode>
                <feMergeNode in="SourceGraphic"></feMergeNode>
            </feMerge>
        </filter>
        <filter x="-11.3%" y="-11.9%" width="122.6%" height="123.8%" filterUnits="objectBoundingBox" id="filter-4">
            <feOffset dx="0" dy="1" in="SourceAlpha" result="shadowOffsetOuter1"></feOffset>
            <feColorMatrix values="0 0 0 0 0   0 0 0 0 0   0 0 0 0 0  0 0 0 0.0972599638 0" type="matrix" in="shadowOffsetOuter1" result="shadowMatrixOuter1"></feColorMatrix>
            <feMerge>
                <feMergeNode in="shadowMatrixOuter1"></feMergeNode>
                <feMergeNode in="SourceGraphic"></feMergeNode>
            </feMerge>
        </filter>
    </defs>
    <g id="Badges" stroke="none" stroke-width="1" fill="none" fill-rule="evenodd">
        <g id="Get-started-with-Power-BI-to-make-business-decisions" transform="translate(-50.000000, -1060.000000)">
            <g id="Get-started-with-Power-BI-to-make-business-decisions/find-help-and-get-training-on-power-bi" transform="translate(50.000000, 1060.000000)">
                <g id="Mask" transform="translate(2.000000, 2.000000)">
                    <mask id="mask-2" fill="white">
                        <use xlink:href="#path-1"></use>
                    </mask>
                    <use id="BG" fill="#7D7D7D" xlink:href="#path-1"></use>
                    <g id="Projector" mask="url(#mask-2)">
                        <g transform="translate(24.000000, 21.000000)">
                            <g id="Group-23" filter="url(#filter-3)" stroke="none" fill="none" fill-rule="evenodd" transform="translate(-0.000000, 0.000000)">
                                <path d="M35.2130722,48.9213456 L28.8730295,42.691011 L28.8730295,40.0254294 C28.8730295,39.0968457 28.1068199,38.3447349 27.1627402,38.3447349 C26.2186604,38.3447349 25.4524508,39.0968457 25.4524508,40.0254294 L25.4524508,42.691011 L19.1124081,48.9213456 C18.4445401,49.5776569 18.4445401,50.6415365 19.1124081,51.2978477 C19.4467697,51.6264235 19.8837486,51.7902912 20.3215827,51.7902912 C20.7594168,51.7902912 21.1963957,51.6264235 21.5307573,51.2978477 L25.4524508,47.4440151 L25.4524508,49.2692494 C25.4524508,50.1969928 26.2186604,50.949944 27.1627402,50.949944 C28.1068199,50.949944 28.8730295,50.1969928 28.8730295,49.2692494 L28.8730295,47.4440151 L32.794723,51.2978477 C33.1290846,51.6264235 33.5660635,51.7902912 34.0038976,51.7902912 C34.4417317,51.7902912 34.8787106,51.6264235 35.2130722,51.2978477 C35.8809402,50.6415365 35.8809402,49.5776569 35.2130722,48.9213456" id="Fill-1016" fill="#546670"></path>
                                <path d="M52.3134255,8.46572068 L52.3134255,38.6592508 C52.3134255,39.5818309 51.5513597,40.3366691 50.619946,40.3366691 L3.2025206,40.3366691 C2.27110689,40.3366691 1.50904112,39.5818309 1.50904112,38.6592508 L1.50904112,8.46572068 L52.3134255,8.46572068" id="Fill-1017" fill="#F7CB64"></path>
                                <path d="M27.2130415,4.9798357 C26.241219,4.9798357 25.4524936,4.23618023 25.4524936,3.31989046 L25.4524936,1.65994523 C25.4524936,0.742825491 26.241219,-6.66133815e-15 27.2130415,-6.66133815e-15 C28.184864,-6.66133815e-15 28.9735895,0.742825491 28.9735895,1.65994523 L28.9735895,3.31989046 C28.9735895,4.23618023 28.184864,4.9798357 27.2130415,4.9798357" id="Fill-1018" fill="#546670"></path>
                                <path d="M54.3254803,7.63574807 C54.3254803,8.09223301 53.9435043,8.46572068 53.4766447,8.46572068 L0.84883563,8.46572068 C0.381976033,8.46572068 0,8.09223301 0,7.63574807 L0,4.3158576 C0,3.85937266 0.381976033,3.48588499 0.84883563,3.48588499 L53.4766447,3.48588499 C53.9435043,3.48588499 54.3254803,3.85937266 54.3254803,4.3158576 L54.3254803,7.63574807" id="Fill-1019" fill="#30404D"></path>
                                <polygon id="Fill-1020" fill="#FFDC8A" points="1.50904112 9.95967139 52.3134255 9.95967139 52.3134255 8.46572068 1.50904112 8.46572068"></polygon>
                                <path d="M20.4182384,49.9980982 C20.0075621,50.4036062 19.3042791,50.2994778 19.0450397,49.784762 C18.9569154,49.6103682 18.8876138,49.4342812 18.838846,49.2598873 C18.4649595,49.9066684 18.550517,50.742235 19.1083523,51.2942 C19.4428823,51.6252097 19.8800814,51.7902912 20.3181361,51.7902912 C20.7561907,51.7902912 21.1933898,51.6252097 21.5279198,51.2942 L27.1627402,45.8642868 L27.1627402,43.3245706 L20.4182384,49.9980982" id="Fill-1022" fill="#30404D"></path>
                                <path d="M33.9072419,49.9980982 C34.3170626,50.4036062 35.0212012,50.2994778 35.2804406,49.784762 C35.3685649,49.6103682 35.4378665,49.4342812 35.4866343,49.2598873 C35.8605208,49.9066684 35.7749633,50.742235 35.217128,51.2942 C34.882598,51.6252097 34.4453989,51.7902912 34.0073443,51.7902912 C33.5692896,51.7902912 33.1320905,51.6252097 32.7975605,51.2942 L27.1627402,45.8642868 L27.1627402,43.3245706 L33.9072419,49.9980982" id="Fill-1023" fill="#30404D"></path>
                                <path d="M27.3792336,45.3165048 L27.3792336,49.4465701 C27.3792336,50.0398721 26.7597649,50.4445127 26.1699229,50.2507291 C25.9849801,50.1901184 25.8117084,50.1167026 25.653699,50.0321891 C25.8754509,50.8039086 26.6430534,51.3613564 27.5426297,51.2853796 C28.487095,51.2059881 29.174795,50.3856093 29.174795,49.4841316 L29.174795,45.3165048 L27.3792336,45.3165048" id="Fill-1024" fill="#30404D"></path>
                                <path d="M25.653699,40.3366691 L25.653699,41.1216369 L26.4582695,41.1216369 C26.9864339,41.1216369 27.414247,41.5031313 27.414247,41.974112 C27.414247,42.4450926 27.8420602,42.826587 28.3702246,42.826587 L29.174795,42.826587 L29.174795,40.3366691 L25.653699,40.3366691" id="Fill-1025" fill="#30404D"></path>
                                <path d="M0.84883563,8.46572068 L53.4766447,8.46572068 C53.9435043,8.46572068 54.3254803,8.09223301 54.3254803,7.63574807 L54.3254803,4.3158576 C54.3254803,3.85937266 53.9435043,3.48588499 53.4766447,3.48588499 L27.1627402,3.48588499 L27.1627402,5.14583022 C27.1627402,5.6039751 26.7824618,5.97580283 26.3139045,5.97580283 L0,5.97580283 L0,7.63574807 C0,8.09223301 0.381976033,8.46572068 0.84883563,8.46572068" id="Fill-1026" fill="#182A37"></path>
                                <path d="M27.1627402,1.80414148 L27.1627402,3.48588499 L28.6717813,3.48588499 L28.6717813,1.88193315 C28.6717813,1.78970592 28.6642361,1.69988461 28.6506547,1.61246924 C28.5020142,0.678167292 27.1627402,0.857007922 27.1627402,1.80414148" id="Fill-1027" fill="#30404D"></path>
                            </g>
                            <g id="Group-18" filter="url(#filter-4)" stroke="none" fill="none" fill-rule="evenodd" transform="translate(25.418959, 14.109534)">
                                <path d="M20.9109984,0.49798357 L17.3180433,0.49798357 C16.9210218,0.49798357 16.5994523,0.776543129 16.5994523,1.12046303 L16.5994523,19.7948469 C16.5994523,20.1384556 16.9210218,20.4173264 17.3180433,20.4173264 L20.9109984,20.4173264 C21.3076606,20.4173264 21.6295894,20.1384556 21.6295894,19.7948469 L21.6295894,1.12046303 C21.6295894,0.776543129 21.3076606,0.49798357 20.9109984,0.49798357" id="Fill-49" fill="#876D31"></path>
                                <path d="M15.3778476,8.46572068 L11.7848926,8.46572068 C11.387871,8.46572068 11.0663015,8.74721245 11.0663015,9.09475256 L11.0663015,19.7882945 C11.0663015,20.1355201 11.387871,20.4173264 11.7848926,20.4173264 L15.3778476,20.4173264 C15.7745098,20.4173264 16.0964386,20.1355201 16.0964386,19.7882945 L16.0964386,9.09475256 C16.0964386,8.74721245 15.7745098,8.46572068 15.3778476,8.46572068" id="Fill-50" fill="#876D31"></path>
                                <path d="M6.25174178,11.4536221 C5.85472025,11.4536221 5.53315077,11.7401405 5.53315077,12.0938867 L5.53315077,19.7770618 C5.53315077,20.1304878 5.85472025,20.4173264 6.25174178,20.4173264 L9.84469683,20.4173264 C10.2413591,20.4173264 10.5632878,20.1304878 10.5632878,19.7770618 L10.5632878,12.0938867 C10.5632878,11.7401405 10.2413591,11.4536221 9.84469683,11.4536221 L6.25174178,11.4536221 Z" id="Fill-51" fill="#876D31"></path>
                                <path d="M3.88039145,13.4455564 L0.646731909,13.4455564 C0.289412529,13.4455564 0,13.7291807 0,14.0793536 L0,19.7835291 C0,20.1333852 0.289412529,20.4173264 0.646731909,20.4173264 L3.88039145,20.4173264 C4.23738746,20.4173264 4.52712336,20.1333852 4.52712336,19.7835291 L4.52712336,14.0793536 C4.52712336,13.7291807 4.23738746,13.4455564 3.88039145,13.4455564" id="Fill-52" fill="#876D31"></path>
                                <path d="M14.4089794,1.98615293 C14.4080191,1.98427483 14.4064186,1.98364879 14.4048181,1.98208371 L12.7825301,0.200707249 C12.7809296,0.19882915 12.7796491,0.196638035 12.7783687,0.19538597 C12.5744624,-0.0284207727 12.2626809,-0.0594093986 12.0274043,0.0996029443 C11.9877114,0.126522357 11.949619,0.157510983 11.9150478,0.19538597 L10.2847572,1.98615293 C10.0465997,2.24752164 10.0465997,2.67165889 10.2850773,2.93365364 C10.5235549,3.19627442 10.9096005,3.19533537 11.147758,2.93365364 L11.7021785,2.32608876 C11.6074276,6.54116792 7.10164123,9.70357284 1.14322206,9.70357284 C0.789506946,9.70357284 0.503013707,9.98372254 0.503013707,10.3296057 C0.503013707,10.6751758 0.789506946,10.9556385 1.14322206,10.9556385 C7.83852105,10.9556385 12.8984078,7.25046313 12.9829153,2.31638525 L13.5453383,2.93396666 L13.5459785,2.93365364 C13.7841361,3.19533537 14.1701817,3.1959614 14.4092995,2.93396666 C14.6468168,2.67228493 14.6468168,2.24752164 14.4089794,1.98615293" id="Fill-53" fill="#FFFFFF"></path>
                                <path d="M20.9109984,0.49798357 L19.1145209,0.49798357 L19.1145209,20.4173264 L20.9109984,20.4173264 C21.3076606,20.4173264 21.6295894,20.1384556 21.6295894,19.7948469 L21.6295894,1.12046303 C21.6295894,0.776854369 21.3076606,0.49798357 20.9109984,0.49798357" id="Fill-54" fill="#978760"></path>
                                <path d="M15.3778476,8.46572068 L13.5813701,8.46572068 L13.5813701,20.4173264 L15.3778476,20.4173264 C15.7745098,20.4173264 16.0964386,20.1355201 16.0964386,19.7882945 L16.0964386,9.09475256 C16.0964386,8.74752696 15.7745098,8.46572068 15.3778476,8.46572068" id="Fill-55" fill="#978760"></path>
                                <path d="M9.84469683,11.4536221 L8.04821931,11.4536221 L8.04821931,20.4173264 L9.84469683,20.4173264 C10.2413591,20.4173264 10.5632878,20.1304878 10.5632878,19.7770618 L10.5632878,12.0938867 C10.5632878,11.7404606 10.2413591,11.4536221 9.84469683,11.4536221" id="Fill-56" fill="#978760"></path>
                                <path d="M4.31154606,13.4455564 L2.51506853,13.4455564 L2.51506853,20.4173264 L4.31154606,20.4173264 C4.70820829,20.4173264 5.03013707,20.1333852 5.03013707,19.7835291 L5.03013707,14.0793536 C5.03013707,13.7294976 4.70820829,13.4455564 4.31154606,13.4455564" id="Fill-57" fill="#978760"></path>
                            </g>
                            <rect id="Rectangle" stroke="#FFFFFF" fill="#D8D8D8" fill-rule="nonzero" x="13.7795619" y="13.7795619" width="15.5994523" height="1"></rect>
                            <rect id="Rectangle" stroke="#FFFFFF" fill="#D8D8D8" fill-rule="nonzero" x="13.7795619" y="17.0994523" width="11.1729317" height="1"></rect>
                        </g>
                    </g>
                    <g id="Person" mask="url(#mask-2)">
                        <g transform="translate(16.000000, 33.000000)">
                            <circle id="Oval" stroke="#7D7D7D" stroke-width="1.5" fill="none" fill-rule="nonzero" cx="9.47517688" cy="6.1335858" r="6.28315077"></circle>
                            <path d="M3.074532,29.4304479 C1.43743199,29.1346103 0.168083589,27.7513168 0.0667939136,26.0350353 L-0.561215618,15.3938608 C-0.565557083,15.3202978 -0.567729231,15.2466227 -0.567729231,15.1729317 C-0.567729231,13.1018639 1.11120296,11.4229317 3.18227077,11.4229317 L5.87576272,11.4229317 L9.44637347,15.7035972 L13.2419085,11.4229317 L26.7705771,11.4229317 C28.2893601,11.4229317 29.5205771,12.6541486 29.5205771,14.1729317 L29.5205771,14.8536604 C29.5205771,16.3724435 28.2893601,17.6036604 26.7705771,17.6036604 L19.460664,17.6036604 L16.2127749,28.8543594 L14.7154173,38.4762957 C14.4311871,40.302743 12.8584472,41.6496643 11.0100163,41.6496643 L8.11457885,41.6496643 C6.25490352,41.6496643 4.67615247,40.286737 4.40473372,38.446975 L3.074532,29.4304479 Z" id="Path-13" stroke="#7D7D7D" stroke-width="1.5" fill="none" fill-rule="nonzero"></path>
                            <path d="M8.11457885,40.8996643 L11.0100163,40.8996643 C12.488761,40.8996643 13.7469529,39.8221273 13.9743371,38.3609694 L15.4716947,28.7390331 L18.8965502,16.8536604 L26.7705771,16.8536604 C27.8751466,16.8536604 28.7705771,15.9582299 28.7705771,14.8536604 L28.7705771,14.1729317 C28.7705771,13.0683622 27.8751466,12.1729317 26.7705771,12.1729317 L13.5792675,12.1729317 L9.42900866,16.8536604 L5.52469508,12.1729317 L3.18227077,12.1729317 C1.52541652,12.1729317 0.182270769,13.5160775 0.182270769,15.1729317 C0.182270769,15.2318845 0.184008487,15.2908246 0.187481659,15.349675 L0.815491191,25.9908495 C0.906571356,27.5341381 2.1846721,28.7390331 3.73064597,28.7390331 L5.14670274,38.3375129 C5.36383775,39.8093225 6.62683858,40.8996643 8.11457885,40.8996643 Z" id="Path-13" stroke="none" fill="#30404D" fill-rule="nonzero"></path>
                            <path d="M5.35590001,38.6118182 L8.54505508,38.6118182 C9.09733983,38.6118182 9.54505508,38.164103 9.54505508,37.6118182 L9.54505508,21.2631662 C9.54505508,20.3228262 9.8763434,19.4125463 10.4807453,18.6921731 L13.4935588,15.1012674 C13.8735468,14.648368 14.434438,14.3867885 15.0256306,14.3867639 L28.7897494,14.386192 L28.7897494,14.386192 C28.7897494,15.9079245 27.5561415,17.1415324 26.0344091,17.1415324 L18.7976828,17.1415324 L16.6782777,24.5002275 C15.9101015,27.167379 15.3059442,29.8790608 14.8691967,32.620054 L13.9219929,38.5646308 C13.6899553,40.0208804 12.4339862,41.0925683 10.9593662,41.0925683 L8.3612022,41.0925683 C6.8944312,41.0925683 5.63385119,40.0520127 5.35590001,38.6118182 Z" id="Path-14" stroke="none" fill="#182A37" fill-rule="nonzero"></path>
                            <path d="M15.0007714,6.13645138 C15.0007714,9.19075061 12.5200755,11.6696022 9.46762063,11.6696022 C6.40963264,11.6696022 3.93446986,9.19075061 3.93446986,6.13645138 C3.93446986,3.08215215 6.40963264,0.603300607 9.46762063,0.603300607 C12.5200755,0.603300607 15.0007714,3.08215215 15.0007714,6.13645138" id="Fill-305" stroke="none" fill="#30404D" fill-rule="evenodd"></path>
                            <path d="M13.2078513,4.49663032 C13.2078513,7.46624066 10.7963737,9.87635919 7.82909084,9.87635919 C6.80354052,9.87635919 5.85687868,9.57509438 5.04110002,9.07657284 C5.98596893,10.6259348 7.6748997,11.6696022 9.62201098,11.6696022 C12.5892938,11.6696022 15.0007714,9.25948362 15.0007714,6.28987328 C15.0007714,4.34420467 13.955499,2.6549698 12.4082089,1.70993076 C12.9048478,2.52406307 13.2078513,3.47268859 13.2078513,4.49663032 Z" id="Fill-306" stroke="none" fill="#182A37" fill-rule="evenodd"></path>
                            <polygon id="Path-15" stroke="none" fill="#7D7D7D" fill-rule="nonzero" points="8 13 9.44141154 15.3994769 12.5395462 13"></polygon>
                        </g>
                    </g>
                </g>
                <g id="Power-BI-Border" stroke="#F2C811" stroke-width="4">
                    <rect id="Azure-Border" x="2" y="2" width="96" height="96" rx="48"></rect>
                </g>
            </g>
        </g>
    </g>
</svg>