<svg width="103" height="103" viewBox="0 0 103 103" fill="none" xmlns="http://www.w3.org/2000/svg">
<path d="M51.2683 98.2743C25.4183 98.2743 4.45825 77.3243 4.45825 51.4643C4.45825 25.6043 25.4183 4.6543 51.2683 4.6543C77.1183 4.6543 98.0782 25.6143 98.0782 51.4643C98.0782 77.3143 77.1183 98.2743 51.2683 98.2743Z" fill="#6EBDFF"/>
<path fill-rule="evenodd" clip-rule="evenodd" d="M51.2683 1.46484C78.8783 1.46484 101.268 23.8548 101.268 51.4648C101.268 79.0748 78.8783 101.465 51.2683 101.465C23.6583 101.465 1.26831 79.0748 1.26831 51.4648C1.26831 23.8548 23.6583 1.46484 51.2683 1.46484ZM51.2683 97.2248C76.5383 97.2248 97.0283 76.7348 97.0283 51.4648C97.0283 26.1948 76.5383 5.70484 51.2683 5.70484C25.9983 5.70484 5.50831 26.1948 5.50831 51.4648C5.50831 76.7348 25.9983 97.2248 51.2683 97.2248Z" fill="#D9D9D9"/>
<path d="M85.6483 63.1244H94.5483C97.5483 63.1244 99.9883 60.6344 99.9883 57.5644C99.9883 54.4944 97.5483 52.0044 94.5483 52.0044C94.2683 52.0044 93.9983 52.0244 93.6983 52.0844C92.6483 48.4344 89.3683 45.9344 85.6483 45.9444C81.0083 45.9444 77.2383 49.7944 77.2383 54.5444C77.2383 59.2644 81.0083 63.1244 85.6483 63.1244Z" fill="white"/>
<path fill-rule="evenodd" clip-rule="evenodd" d="M88.7083 33.1143V79.1143C88.7083 80.5243 87.5783 81.6743 86.2083 81.6743H16.2083C14.8283 81.6743 13.7083 80.5143 13.7083 79.1143V33.1143H88.7083V33.1143Z" fill="#E1E4E1"/>
<path fill-rule="evenodd" clip-rule="evenodd" d="M51.2083 28.0042C49.8283 28.0042 48.7083 26.8642 48.7083 25.4442V22.8842C48.7083 21.4742 49.8283 20.3242 51.2083 20.3242C52.5883 20.3242 53.7083 21.4642 53.7083 22.8842V25.4442C53.7083 26.8542 52.5883 28.0042 51.2083 28.0042Z" fill="#546670"/>
<path fill-rule="evenodd" clip-rule="evenodd" d="M91.2083 31.8343C91.2083 32.5443 90.6483 33.1143 89.9583 33.1143H12.4583C11.7683 33.1143 11.2083 32.5443 11.2083 31.8343V26.7243C11.2083 26.0143 11.7683 25.4443 12.4583 25.4443H89.9583C90.6483 25.4443 91.2083 26.0143 91.2083 26.7243V31.8343Z" fill="#30404D"/>
<path fill-rule="evenodd" clip-rule="evenodd" d="M13.7083 35.6645H88.7083V33.1045H13.7083V35.6645V35.6645Z" fill="#C5CCCD"/>
<path fill-rule="evenodd" clip-rule="evenodd" d="M12.4583 33.1143H89.9583C90.6483 33.1143 91.2083 32.5443 91.2083 31.8343V26.7243C91.2083 26.0143 90.6483 25.4443 89.9583 25.4443H51.2083V28.0043C51.2083 28.7143 50.6483 29.2843 49.9583 29.2843H11.2083V31.8443C11.2083 32.5343 11.7683 33.1143 12.4583 33.1143Z" fill="#182A37"/>
<path fill-rule="evenodd" clip-rule="evenodd" d="M51.2083 22.7638V25.4438H53.7083V22.8838C53.7083 22.7438 53.6983 22.5938 53.6783 22.4538C53.4283 20.9638 51.2083 21.2538 51.2083 22.7638Z" fill="#30404D"/>
<path d="M24.4682 37.8041H5.63818C5.97818 38.1441 8.08818 36.5041 8.08818 33.0841C8.08818 30.4341 8.82818 30.4541 9.49818 28.7141C10.5082 26.3441 16.4982 20.1741 16.9282 19.7141C18.3982 18.1341 18.3882 16.7741 19.4582 17.1741C22.6682 18.4041 24.5482 21.3641 25.0382 25.4541C28.1382 25.7641 30.5082 28.4241 30.5082 31.6141C30.5082 35.0341 27.8082 37.7941 24.4682 37.8041Z" fill="white"/>
<path opacity="0.15" d="M47.8783 55.6547L47.6483 55.4047C47.6383 55.3847 47.6283 55.3647 47.6083 55.3447L45.5383 53.0747L45.3283 52.8447C45.3283 52.8447 45.3283 52.8447 45.3183 52.8447L42.0083 49.2247C41.7683 48.9647 41.3583 48.9647 41.1083 49.2147L40.4183 49.9247L39.6383 49.1247C39.4583 48.9347 39.1483 48.9447 38.9783 49.1447L33.2983 55.6347C33.0483 55.9247 33.0483 56.3547 33.2983 56.6447L38.9283 63.1147C39.1383 63.3547 39.5183 63.3547 39.7283 63.1147L40.3683 62.3747L41.0983 63.1347C41.3483 63.3947 41.7583 63.3847 41.9983 63.1247L45.3083 59.4847C45.3283 59.4647 45.3483 59.4647 45.3683 59.4447L47.8683 56.6747C48.1283 56.3647 48.1283 55.9347 47.8783 55.6547Z" fill="#1F1D20"/>
<path opacity="0.15" d="M84.5782 51.3744V49.5944C84.5782 49.2644 84.3082 48.9844 83.9682 48.9844H73.9582C73.6182 48.9844 73.3482 49.2544 73.3482 49.5944V51.3744V52.7444H70.2882C69.9682 52.7444 69.6982 53.0044 69.6982 53.3344V59.6044C69.6982 59.9244 69.9582 60.1944 70.2882 60.1944H72.7682C73.1082 60.1944 73.3882 60.4744 73.3882 60.8144V62.9244C73.3882 63.2644 73.7982 63.4344 74.0382 63.1944L77.0682 60.1944H80.2682C80.5882 60.1944 80.8582 59.9344 80.8582 59.6044V56.9244C80.9082 56.6444 81.1382 56.4244 81.4382 56.4244H83.9982C84.3182 56.4244 84.5882 56.1644 84.5882 55.8344V53.9644L84.5782 51.3744Z" fill="#1F1D20"/>
<path opacity="0.15" d="M66.1684 55.7841L63.8984 53.2241L63.8884 53.2341L61.2884 50.3041V50.2441H52.0484C51.4984 50.2441 51.2084 50.8941 51.5784 51.3041L55.9584 56.1841L51.5484 61.1141C51.2184 61.4841 51.4784 62.0641 51.9784 62.0641H56.0384H61.0584C61.1684 62.0641 61.2684 62.0241 61.3384 61.9341L66.1684 56.6741C66.3884 56.4141 66.3984 56.0341 66.1684 55.7841Z" fill="#1F1D20"/>
<path opacity="0.15" d="M26.7683 49.4551H23.3883C22.9383 49.4551 22.5683 49.8251 22.5683 50.2751V52.8751H20.4583C20.0683 52.8751 19.7483 53.1951 19.7483 53.5851V56.1451H17.9883C17.4783 56.1451 17.0583 56.5651 17.0583 57.0751V61.9051C17.0583 62.4151 17.4783 62.8351 17.9883 62.8351H19.7483H22.5683H24.0483H26.7683C27.2183 62.8351 27.5883 62.4651 27.5883 62.0151V50.2751C27.5883 49.8251 27.2183 49.4551 26.7683 49.4551Z" fill="#1F1D20"/>
<path d="M40.9983 49.505L39.6483 48.115C39.4683 47.925 39.1583 47.935 38.9883 48.135L33.3083 54.625C33.0583 54.915 33.0583 55.345 33.3083 55.635L38.9383 62.105C39.1483 62.345 39.5283 62.345 39.7383 62.105L41.4184 60.165L41.6083 50.175L40.9983 49.505Z" fill="url(#paint0_linear)"/>
<path d="M47.6084 54.3348L42.0084 48.2148C41.7684 47.9548 41.3584 47.9548 41.1084 48.2048L38.5184 50.8748C38.2384 51.1648 38.2284 51.6248 38.5084 51.9248L41.1584 54.7748C41.3584 54.9848 41.3584 55.3048 41.1584 55.5148L38.4984 58.3948C38.2284 58.6848 38.2284 59.1448 38.5084 59.4348L41.0984 62.1248C41.3484 62.3848 41.7584 62.3748 41.9984 62.1148L47.5984 55.9448C48.0284 55.4848 48.0284 54.7948 47.6084 54.3348Z" fill="url(#paint1_linear)"/>
<path d="M47.8783 55.6548L45.3783 58.4248C45.1883 58.6348 44.8583 58.6448 44.6683 58.4348L42.1583 55.8648C41.7483 55.4448 41.7483 54.7848 42.1583 54.3648L44.6283 51.8148C44.8283 51.6148 45.1583 51.6148 45.3383 51.8248L47.8883 54.6348C48.1283 54.9348 48.1283 55.3648 47.8783 55.6548Z" fill="url(#paint2_linear)"/>
<path d="M70.2982 51.7441C69.9782 51.7441 69.7083 52.0041 69.7083 52.3341V58.6041C69.7083 58.9241 69.9682 59.1941 70.2982 59.1941H72.7783C73.1183 59.1941 73.3982 59.4741 73.3982 59.8141V61.9241C73.3982 62.2641 73.8082 62.4341 74.0482 62.1941L77.0782 59.1941H80.2682C80.5882 59.1941 80.8582 58.9341 80.8582 58.6041V51.7441H70.2982Z" fill="url(#paint3_linear)"/>
<path d="M83.9681 47.9844H73.9581C73.6181 47.9844 73.3481 48.2544 73.3481 48.5944V54.9344C73.3481 55.2144 73.5681 55.4344 73.8481 55.4344H76.8681C76.9981 55.4344 77.1181 55.4844 77.2081 55.5744L80.0781 58.4444C80.3581 58.7244 80.8281 58.5244 80.8281 58.1344V56.0244C80.8281 55.6944 81.0981 55.4244 81.4281 55.4244H83.9881C84.3081 55.4244 84.5781 55.1644 84.5781 54.8344V48.5844C84.5781 48.2644 84.3081 47.9844 83.9681 47.9844Z" fill="#4CCBED"/>
<path d="M84.5781 52.4248H73.3481V54.9348C73.3481 55.2148 73.5681 55.4348 73.8481 55.4348H76.8681C76.9981 55.4348 77.1181 55.4848 77.2081 55.5748L80.0781 58.4448C80.3581 58.7248 80.8281 58.5248 80.8281 58.1348V56.0248C80.8281 55.6948 81.0981 55.4248 81.4281 55.4248H83.9881C84.3081 55.4248 84.5781 55.1648 84.5781 54.8348V52.4248Z" fill="#128AA9"/>
<path d="M84.5781 50.374H73.3481V52.964H84.5681V50.374H84.5781Z" fill="#17AAD2"/>
<path d="M61.2983 53.0744L56.5583 55.8444L51.5783 50.2944C51.2083 49.8844 51.4983 49.2344 52.0483 49.2344H61.2883L61.2983 53.0744Z" fill="url(#paint4_linear)"/>
<path d="M63.9184 52.2646L61.2483 49.2646L51.5384 60.1046C51.2084 60.4746 51.4684 61.0546 51.9684 61.0546H56.0283L63.9184 52.2646Z" fill="url(#paint5_linear)"/>
<path d="M66.1684 54.7846L63.8984 52.2246L55.8884 61.0546H61.0484C61.1584 61.0546 61.2584 61.0146 61.3284 60.9346L66.1584 55.6746C66.3884 55.4146 66.3984 55.0346 66.1684 54.7846Z" fill="url(#paint6_linear)"/>
<path d="M26.7684 61.8351H22.5684V49.2751C22.5684 48.8251 22.9384 48.4551 23.3884 48.4551H26.7684C27.2184 48.4551 27.5884 48.8251 27.5884 49.2751V61.0151C27.5884 61.4651 27.2184 61.8351 26.7684 61.8351Z" fill="url(#paint7_linear)"/>
<path d="M24.0483 61.835H19.7383V52.585C19.7383 52.195 20.0583 51.875 20.4483 51.875H24.0383C24.4283 51.875 24.7483 52.195 24.7483 52.585V61.125C24.7583 61.515 24.4383 61.835 24.0483 61.835Z" fill="url(#paint8_linear)"/>
<path d="M21.1383 61.8355H17.9783C17.4683 61.8355 17.0483 61.4155 17.0483 60.9055V56.0755C17.0483 55.5655 17.4683 55.1455 17.9783 55.1455H21.1383C21.6483 55.1455 22.0683 55.5655 22.0683 56.0755V60.9055C22.0683 61.4155 21.6483 61.8355 21.1383 61.8355Z" fill="url(#paint9_linear)"/>
<path fill-rule="evenodd" clip-rule="evenodd" d="M97.1682 51.4642C97.1682 76.8142 76.6182 97.3642 51.2682 97.3642C25.9182 97.3642 5.36817 76.8142 5.36817 51.4642C5.36817 26.1142 25.9182 5.56422 51.2682 5.56422C76.6182 5.56422 97.1682 26.1142 97.1682 51.4642ZM51.2682 1.82422C78.6882 1.82422 100.908 24.0442 100.908 51.4642C100.908 78.8842 78.6782 101.104 51.2682 101.104C23.8482 101.104 1.62817 78.8742 1.62817 51.4642C1.62817 24.0442 23.8482 1.82422 51.2682 1.82422Z" fill="#F2F1F0"/>
<path fill-rule="evenodd" clip-rule="evenodd" d="M94.3582 51.4648C94.3582 75.2648 75.0682 94.5548 51.2682 94.5548C27.4682 94.5548 8.17823 75.2648 8.17823 51.4648C8.17823 27.6648 27.4682 8.37477 51.2682 8.37477C75.0682 8.37477 94.3582 27.6648 94.3582 51.4648ZM51.2682 4.63477C77.1282 4.63477 98.0982 25.6048 98.0982 51.4648C98.0982 77.3248 77.1282 98.2948 51.2682 98.2948C25.4082 98.2948 4.43823 77.3248 4.43823 51.4648C4.43823 25.6048 25.3982 4.63477 51.2682 4.63477Z" fill="#0078D4"/>
<defs>
<linearGradient id="paint0_linear" x1="37.0037" y1="48.5089" x2="38.0461" y2="60.7579" gradientUnits="userSpaceOnUse">
<stop stop-color="#A23093"/>
<stop offset="1" stop-color="#692266"/>
</linearGradient>
<linearGradient id="paint1_linear" x1="38.3009" y1="55.164" x2="47.9219" y2="55.164" gradientUnits="userSpaceOnUse">
<stop stop-color="#E184C4"/>
<stop offset="1" stop-color="#D76EBC"/>
</linearGradient>
<linearGradient id="paint2_linear" x1="41.8426" y1="55.1337" x2="48.0689" y2="55.1337" gradientUnits="userSpaceOnUse">
<stop stop-color="#E89BCA"/>
<stop offset="1" stop-color="#E591C8"/>
</linearGradient>
<linearGradient id="paint3_linear" x1="73.6908" y1="52.2717" x2="76.981" y2="58.4279" gradientUnits="userSpaceOnUse">
<stop stop-color="#107590"/>
<stop offset="0.2789" stop-color="#107590"/>
<stop offset="0.9874" stop-color="#0D5D73"/>
</linearGradient>
<linearGradient id="paint4_linear" x1="52.0344" y1="46.0571" x2="62.8069" y2="56.1929" gradientUnits="userSpaceOnUse">
<stop offset="0.4598" stop-color="#1152D4"/>
<stop offset="0.6156" stop-color="#0D3FB3"/>
</linearGradient>
<linearGradient id="paint5_linear" x1="51.3976" y1="55.154" x2="63.9207" y2="55.154" gradientUnits="userSpaceOnUse">
<stop stop-color="#388CF4"/>
<stop offset="1" stop-color="#2C7CEF"/>
</linearGradient>
<linearGradient id="paint6_linear" x1="55.8882" y1="56.6364" x2="66.3371" y2="56.6364" gradientUnits="userSpaceOnUse">
<stop stop-color="#76C0FD"/>
<stop offset="1" stop-color="#63B2FB"/>
</linearGradient>
<linearGradient id="paint7_linear" x1="25.0178" y1="49.677" x2="25.1246" y2="60.7815" gradientUnits="userSpaceOnUse">
<stop offset="0.00753769" stop-color="#E0A310"/>
<stop offset="1" stop-color="#CA810E"/>
</linearGradient>
<linearGradient id="paint8_linear" x1="22.1135" y1="52.2579" x2="22.4338" y2="64.0021" gradientUnits="userSpaceOnUse">
<stop offset="0.00753769" stop-color="#F2CC40"/>
<stop offset="1" stop-color="#E7B116"/>
</linearGradient>
<linearGradient id="paint9_linear" x1="19.4359" y1="55.6637" x2="19.7562" y2="63.2438" gradientUnits="userSpaceOnUse">
<stop stop-color="#F8E17B"/>
<stop offset="0.5302" stop-color="#F6D856"/>
<stop offset="1" stop-color="#F6D856"/>
</linearGradient>
</defs>
</svg>
