<?xml version="1.0" encoding="UTF-8"?>
<svg width="101px" height="101px" viewBox="0 0 101 101" version="1.1" xmlns="http://www.w3.org/2000/svg" xmlns:xlink="http://www.w3.org/1999/xlink">
    <!-- Generator: Sketch 63.1 (92452) - https://sketch.com -->
    <title>Create a business process flow in Power Automate/Introduction-to-Business-Process-Flows</title>
    <desc>Created with Sketch.</desc>
    <defs>
        <rect id="path-1" x="0" y="0" width="94.3396226" height="94.3396226" rx="47.1698113"></rect>
        <linearGradient x1="77.8299825%" y1="11.1997378%" x2="-99.6885927%" y2="253.807911%" id="linearGradient-3">
            <stop stop-color="#FFFFFF" offset="0%"></stop>
            <stop stop-color="#000000" stop-opacity="0.5" offset="100%"></stop>
        </linearGradient>
        <rect id="path-4" x="0" y="0" width="94.3396226" height="94.3396226"></rect>
        <rect id="path-5" x="0" y="0" width="100" height="100" rx="50"></rect>
        <filter x="-0.5%" y="-0.5%" width="102.0%" height="102.0%" filterUnits="objectBoundingBox" id="filter-6">
            <feOffset dx="1" dy="1" in="SourceAlpha" result="shadowOffsetOuter1"></feOffset>
            <feMorphology radius="4" operator="erode" in="SourceAlpha" result="shadowInner"></feMorphology>
            <feOffset dx="1" dy="1" in="shadowInner" result="shadowInner"></feOffset>
            <feComposite in="shadowOffsetOuter1" in2="shadowInner" operator="out" result="shadowOffsetOuter1"></feComposite>
            <feColorMatrix values="0 0 0 0 0   0 0 0 0 0   0 0 0 0 0  0 0 0 0.15 0" type="matrix" in="shadowOffsetOuter1"></feColorMatrix>
        </filter>
        <path d="M50,2.83018868 C76.0511674,2.83018868 97.1698113,23.9488326 97.1698113,50 C97.1698113,76.0511674 76.0511674,97.1698113 50,97.1698113 C23.9488326,97.1698113 2.83018868,76.0511674 2.83018868,50 C2.83018868,23.9488326 23.9488326,2.83018868 50,2.83018868 Z M50,6.60377358 C26.032926,6.60377358 6.60377358,26.032926 6.60377358,50 C6.60377358,73.967074 26.032926,93.3962264 50,93.3962264 C73.967074,93.3962264 93.3962264,73.967074 93.3962264,50 C93.3962264,26.032926 73.967074,6.60377358 50,6.60377358 Z" id="path-7"></path>
        <filter x="-21.8%" y="-24.6%" width="143.6%" height="149.1%" filterUnits="objectBoundingBox" id="filter-9">
            <feOffset dx="0" dy="2" in="SourceAlpha" result="shadowOffsetOuter1"></feOffset>
            <feGaussianBlur stdDeviation="2" in="shadowOffsetOuter1" result="shadowBlurOuter1"></feGaussianBlur>
            <feColorMatrix values="0 0 0 0 0   0 0 0 0 0   0 0 0 0 0  0 0 0 0.1 0" type="matrix" in="shadowBlurOuter1" result="shadowMatrixOuter1"></feColorMatrix>
            <feMerge>
                <feMergeNode in="shadowMatrixOuter1"></feMergeNode>
                <feMergeNode in="SourceGraphic"></feMergeNode>
            </feMerge>
        </filter>
        <linearGradient x1="50%" y1="100%" x2="50%" y2="0%" id="linearGradient-10">
            <stop stop-color="#D2EBFF" offset="0%"></stop>
            <stop stop-color="#F0FFFD" offset="100%"></stop>
        </linearGradient>
        <linearGradient x1="50%" y1="100%" x2="50%" y2="0%" id="linearGradient-11">
            <stop stop-color="#D2EBFF" offset="0%"></stop>
            <stop stop-color="#F0FFFD" offset="100%"></stop>
        </linearGradient>
        <linearGradient x1="50%" y1="100%" x2="50%" y2="0%" id="linearGradient-12">
            <stop stop-color="#D2EBFF" offset="0%"></stop>
            <stop stop-color="#F0FFFD" offset="100%"></stop>
        </linearGradient>
        <linearGradient x1="50%" y1="97.5691716%" x2="50%" y2="-5.30956676%" id="linearGradient-13">
            <stop stop-color="#0078D4" offset="0%"></stop>
            <stop stop-color="#1380DA" offset="16%"></stop>
            <stop stop-color="#3C91E5" offset="53%"></stop>
            <stop stop-color="#559CEC" offset="82%"></stop>
            <stop stop-color="#5EA0EF" offset="100%"></stop>
        </linearGradient>
        <linearGradient x1="50%" y1="97.5691716%" x2="50%" y2="-5.30956676%" id="linearGradient-14">
            <stop stop-color="#0078D4" offset="0%"></stop>
            <stop stop-color="#1380DA" offset="16%"></stop>
            <stop stop-color="#3C91E5" offset="53%"></stop>
            <stop stop-color="#559CEC" offset="82%"></stop>
            <stop stop-color="#5EA0EF" offset="100%"></stop>
        </linearGradient>
        <linearGradient x1="50%" y1="0%" x2="50%" y2="100%" id="linearGradient-15">
            <stop stop-color="#1E5CA5" offset="0%"></stop>
            <stop stop-color="#225496" offset="100%"></stop>
        </linearGradient>
        <polygon id="path-16" points="0 0 24 0 24 16 0 16"></polygon>
        <linearGradient x1="50%" y1="0%" x2="50%" y2="100%" id="linearGradient-18">
            <stop stop-color="#1E5CA5" offset="0%"></stop>
            <stop stop-color="#225496" offset="100%"></stop>
        </linearGradient>
        <filter x="-120.0%" y="-120.0%" width="340.0%" height="340.0%" filterUnits="objectBoundingBox" id="filter-19">
            <feOffset dx="0" dy="2" in="SourceAlpha" result="shadowOffsetOuter1"></feOffset>
            <feGaussianBlur stdDeviation="2" in="shadowOffsetOuter1" result="shadowBlurOuter1"></feGaussianBlur>
            <feColorMatrix values="0 0 0 0 0   0 0 0 0 0   0 0 0 0 0  0 0 0 0.1 0" type="matrix" in="shadowBlurOuter1" result="shadowMatrixOuter1"></feColorMatrix>
            <feMerge>
                <feMergeNode in="shadowMatrixOuter1"></feMergeNode>
                <feMergeNode in="SourceGraphic"></feMergeNode>
            </feMerge>
        </filter>
        <linearGradient x1="50%" y1="0%" x2="50%" y2="100%" id="linearGradient-20">
            <stop stop-color="#1E5CA5" offset="0%"></stop>
            <stop stop-color="#225496" offset="100%"></stop>
        </linearGradient>
        <path d="M10,5.4526749 L10,4.30041152 L8.82231405,3.88888889 L8.53305785,3.10699588 L9.11157025,1.89300412 L9.11157025,1.76954733 L8.73966942,1.39917695 L8.30578512,0.905349794 L8.14049587,0.905349794 L6.98347107,1.52263374 L6.19834711,1.2962963 L5.68181818,0 L4.54545455,0 L4.15289256,1.17283951 L3.28512397,1.52263374 L1.94214876,0.884773663 L1.13636364,1.6872428 L1.13636364,1.83127572 L1.73553719,2.98353909 L1.38429752,3.84773663 L0,4.36213992 L0,5.51440329 L0.165289256,5.51440329 L1.38429752,5.92592593 L1.71487603,6.70781893 L1.09504132,8.04526749 L1.90082645,8.86831276 L2.0661157,8.86831276 L3.20247934,8.29218107 L4.00826446,8.62139918 L4.50413223,10 L5.66115702,10 L5.66115702,9.83539095 L6.05371901,8.60082305 L6.83884298,8.27160494 L8.20247934,8.90946502 L9.00826446,8.10699588 L9.00826446,7.94238683 L8.42975207,6.79012346 L8.65702479,5.98765432 L10,5.4526749 Z M5.08286834,6.4284383 C4.22198209,6.33600298 3.57142857,5.64431389 3.57142857,4.82142771 C3.57142857,3.99854154 4.22198209,3.30685245 5.08286834,3.21441713 C5.53246035,3.20894197 5.96562604,3.37475295 6.2855803,3.67480181 C6.60553457,3.97485067 6.78561107,4.38413006 6.78557412,4.81119198 L6.78557412,4.81119198 C6.79142458,5.24179184 6.61391219,5.65638128 6.29331591,5.96088672 C5.97271963,6.26539215 5.5362222,6.43399512 5.08286834,6.4284383 Z" id="path-21"></path>
        <filter x="0.0%" y="0.0%" width="100.0%" height="100.0%" filterUnits="objectBoundingBox" id="filter-22">
            <feOffset dx="0" dy="0" in="SourceAlpha" result="shadowOffsetOuter1"></feOffset>
            <feColorMatrix values="0 0 0 0 0   0 0 0 0 0   0 0 0 0 0  0 0 0 0.1 0" type="matrix" in="shadowOffsetOuter1"></feColorMatrix>
        </filter>
    </defs>
    <g id="Badges" stroke="none" stroke-width="1" fill="none" fill-rule="evenodd">
        <g id="Create-a-business-process-flow-in-Power-Automate" transform="translate(-160.000000, -320.000000)">
            <g id="Create-a-business-process-flow-in-Power-Automate/Introduction-to-Business-Process-Flows" transform="translate(160.000000, 320.000000)">
                <g id="Badge-Plates/Circle">
                    <g id="BG" transform="translate(2.830189, 2.830189)">
                        <mask id="mask-2" fill="white">
                            <use xlink:href="#path-1"></use>
                        </mask>
                        <g></g>
                        <g id="Colors/Microsoft-365/BG-Solid-Badge" mask="url(#mask-2)">
                            <g id="Rectangle">
                                <use fill="#0078D4" xlink:href="#path-4"></use>
                                <use fill-opacity="0.4" fill="url(#linearGradient-3)" xlink:href="#path-4"></use>
                            </g>
                        </g>
                    </g>
                    <g id="Border">
                        <g id="White-Border">
                            <use fill="black" fill-opacity="1" filter="url(#filter-6)" xlink:href="#path-5"></use>
                            <rect stroke="#F2F1F0" stroke-width="4" stroke-linejoin="square" x="2" y="2" width="96" height="96" rx="48"></rect>
                        </g>
                        <mask id="mask-8" fill="white">
                            <use xlink:href="#path-7"></use>
                        </mask>
                        <use id="Boarder" fill="#0078D4" fill-rule="nonzero" xlink:href="#path-7"></use>
                        <g id="Colors/Microsoft-365/Border" mask="url(#mask-8)" fill="#0076D7">
                            <g transform="translate(2.830189, 2.830189)" id="Microsoft-365/Border">
                                <rect x="0" y="0" width="94.3396226" height="94.3396226"></rect>
                            </g>
                        </g>
                    </g>
                </g>
                <g id="Presentation-" filter="url(#filter-9)" transform="translate(22.000000, 22.000000)">
                    <g id="Group-15">
                        <ellipse id="Oval" stroke="url(#linearGradient-10)" stroke-width="3" cx="27.201087" cy="3.67619681" rx="3.70652174" ry="3.67619681"></ellipse>
                        <path d="M11.9565217,56.8610372 L19.9873188,42.15625 M42.8442029,56.8610372 L34.8134058,42.15625 M16.2807971,50.7340426 L39.1376812,50.7340426" id="Combined-Shape" stroke="url(#linearGradient-11)" stroke-width="3" stroke-linecap="round"></path>
                        <rect id="Rectangle" fill="url(#linearGradient-12)" x="2.49094203" y="8.57779255" width="50.0380435" height="33.0857713"></rect>
                        <rect id="Rectangle" fill="url(#linearGradient-13)" x="0" y="3.67619681" width="55" height="5.51429521" rx="2"></rect>
                        <rect id="Rectangle" fill="url(#linearGradient-14)" x="0" y="40.96875" width="55" height="3.06349734" rx="1.53174867"></rect>
                    </g>
                </g>
                <g id="Group-6" transform="translate(34.000000, 34.000000)">
                    <path d="M23.385046,21.9244343 C25.4486441,19.9200393 26.6828749,17.3165608 26.9157487,14.518203 L28.78435,14.5345565 L25.791221,9.39437624 L22.7049424,14.4819527 L24.4680492,14.4974885 C24.2480817,16.669507 23.268048,18.6878025 21.660658,20.24929 C19.8189914,22.0383638 17.3684862,23.0239352 14.7636671,23.0239352 C12.1574451,23.0239352 9.70862338,22.0383638 7.86555394,20.24929 C7.39110875,19.7873033 6.61813626,19.7873033 6.14228822,20.24929 C5.66503732,20.7115491 5.66503732,21.4624477 6.14228822,21.9244343 C8.44549374,24.1618668 11.5059598,25.3943762 14.7636671,25.3943762 C18.019691,25.3943762 21.0818405,24.1618668 23.385046,21.9244343 Z" id="Fill-1" fill="url(#linearGradient-15)"></path>
                    <g id="Group-5" transform="translate(0.784350, 0.394376)">
                        <mask id="mask-17" fill="white">
                            <use xlink:href="#path-16"></use>
                        </mask>
                        <g id="Clip-4"></g>
                        <path d="M4.49974398,10.9355154 C4.69343867,8.72465232 5.71984493,6.6724585 7.44378612,5.08468869 C9.36581084,3.31562111 11.9195377,2.34151598 14.6374077,2.34151598 C17.3538146,2.34151598 19.9092971,3.31562111 21.8295662,5.08468869 C22.3257991,5.54156986 23.1304221,5.54156986 23.6278253,5.08468869 C24.1240582,4.62726875 24.1240582,3.88645318 23.6278253,3.42903324 C21.2262453,1.21817019 18.033209,0 14.6377002,0 C11.240436,0 8.04886256,1.21817019 5.64698998,3.42903324 C3.43588618,5.46560259 2.14234511,8.1117958 1.94894302,10.956797 L0,10.9724215 L3.2184917,16 L6.3386731,10.9204297 L4.49974398,10.9355154 Z" id="Fill-3" fill="url(#linearGradient-18)" mask="url(#mask-17)"></path>
                    </g>
                </g>
                <g id="Gear" filter="url(#filter-19)" transform="translate(44.000000, 42.000000)">
                    <g fill-rule="nonzero" id="Shape">
                        <g>
                            <use fill="black" fill-opacity="1" filter="url(#filter-22)" xlink:href="#path-21"></use>
                            <use fill="url(#linearGradient-20)" xlink:href="#path-21"></use>
                        </g>
                    </g>
                    <circle id="Oval" fill="#FFFFFF" cx="5" cy="5" r="2"></circle>
                </g>
            </g>
        </g>
    </g>
</svg>