<svg width="200" height="200" viewBox="0 0 200 200" fill="none" xmlns="http://www.w3.org/2000/svg">
<path d="M100 190.58C81.9267 190.58 64.2593 185.221 49.232 175.18C34.2046 165.139 22.4922 150.867 15.5759 134.17C8.65954 117.472 6.84991 99.0986 10.3758 81.3726C13.9017 63.6467 22.6048 47.3643 35.3846 34.5846C48.1643 21.8049 64.4467 13.1018 82.1726 9.57584C99.8986 6.04992 118.272 7.85955 134.97 14.7759C151.667 21.6922 165.939 33.4046 175.98 48.432C186.021 63.4594 191.38 81.1267 191.38 99.2C191.383 111.201 189.021 123.085 184.429 134.173C179.838 145.261 173.107 155.335 164.621 163.821C156.135 172.307 146.061 179.038 134.973 183.629C123.885 188.221 112.001 190.583 100 190.58Z" fill="url(#paint0_linear_318_152)"/>
<path fill-rule="evenodd" clip-rule="evenodd" d="M189.6 99.2C189.6 116.921 184.345 134.244 174.5 148.979C164.654 163.714 150.661 175.198 134.288 181.98C117.916 188.761 99.9006 190.536 82.5199 187.078C65.1392 183.621 49.174 175.088 36.6432 162.557C24.1124 150.026 15.5789 134.061 12.1216 116.68C8.66439 99.2994 10.4388 81.2838 17.2204 64.9116C24.002 48.5393 35.4862 34.5457 50.2209 24.7003C64.9555 14.8549 82.2788 9.6 100 9.6C123.762 9.6053 146.549 19.047 163.351 35.8491C180.153 52.6512 189.595 75.4382 189.6 99.2ZM100 2.3C119.171 2.29604 137.912 7.97744 153.853 18.6256C169.795 29.2738 182.22 44.4104 189.559 62.1211C196.897 79.8317 198.818 99.3207 195.079 118.123C191.34 136.926 182.108 154.197 168.553 167.753C154.997 181.308 137.726 190.54 118.923 194.279C100.121 198.018 80.6317 196.097 62.9211 188.759C45.2104 181.42 30.0738 168.995 19.4256 153.053C8.77743 137.112 3.09603 118.371 3.09999 99.2C3.09999 73.5005 13.3091 48.8536 31.4813 30.6814C49.6536 12.5091 74.3005 2.3 100 2.3Z" fill="#F2F1F0"/>
<path fill-rule="evenodd" clip-rule="evenodd" d="M184.12 99.2C184.12 115.837 179.186 132.101 169.943 145.935C160.7 159.768 147.562 170.55 132.191 176.917C116.82 183.284 99.9067 184.949 83.589 181.704C67.2713 178.458 52.2826 170.446 40.5182 158.682C28.7538 146.917 20.7421 131.929 17.4964 115.611C14.2506 99.2933 15.9164 82.3796 22.2833 67.0087C28.6501 51.6377 39.432 38.5 53.2654 29.2568C67.0989 20.0136 83.3626 15.08 100 15.08C122.31 15.08 143.706 23.9426 159.482 39.7182C175.257 55.4937 184.12 76.89 184.12 99.2ZM100 7.78C118.081 7.78 135.756 13.1417 150.79 23.187C165.824 33.2324 177.542 47.5103 184.461 64.2151C191.38 80.9199 193.191 99.3014 189.663 117.035C186.136 134.769 177.429 151.058 164.644 163.844C151.858 176.629 135.569 185.336 117.835 188.863C100.101 192.391 81.7199 190.58 65.0151 183.661C48.3103 176.742 34.0324 165.024 23.9871 149.99C13.9417 134.956 8.58001 117.281 8.58001 99.2C8.58531 74.9555 18.2187 51.7056 35.3622 34.5622C52.5056 17.4187 75.7555 7.7853 100 7.78Z" fill="#0078D4"/>
<path fill-rule="evenodd" clip-rule="evenodd" d="M184.12 99.2C184.12 115.837 179.186 132.101 169.943 145.935C160.7 159.768 147.562 170.55 132.191 176.917C116.82 183.284 99.9067 184.949 83.589 181.704C67.2713 178.458 52.2826 170.446 40.5182 158.682C28.7538 146.917 20.7421 131.929 17.4964 115.611C14.2506 99.2933 15.9164 82.3796 22.2833 67.0087C28.6501 51.6377 39.432 38.5 53.2654 29.2568C67.0989 20.0136 83.3626 15.08 100 15.08C122.31 15.08 143.706 23.9426 159.482 39.7182C175.257 55.4937 184.12 76.89 184.12 99.2ZM100 7.78C118.081 7.78 135.756 13.1417 150.79 23.187C165.824 33.2324 177.542 47.5103 184.461 64.2151C191.38 80.9199 193.191 99.3014 189.663 117.035C186.136 134.769 177.429 151.058 164.644 163.844C151.858 176.629 135.569 185.336 117.835 188.863C100.101 192.391 81.7199 190.58 65.0151 183.661C48.3103 176.742 34.0324 165.024 23.9871 149.99C13.9417 134.956 8.58001 117.281 8.58001 99.2C8.58531 74.9555 18.2187 51.7056 35.3622 34.5622C52.5056 17.4187 75.7555 7.7853 100 7.78Z" fill="#0078D4"/>
<path d="M126.289 56H75.7107C74.7653 56 74 56.7371 74 57.6477V150.352C74 151.263 74.7653 152 75.7107 152H126.289C127.235 152 128 151.263 128 150.352V57.626C127.977 56.7371 127.212 56 126.289 56Z" fill="#0062AD"/>
<path d="M95 146H107V143H95V146Z" fill="white"/>
<path d="M103 63.5C103 64.3547 102.14 65 101 65C99.8605 65 99 64.3547 99 63.5C99 62.6453 99.8605 62 101 62C102.14 62 103 62.6279 103 63.5Z" fill="white"/>
<path d="M79 137H124V71H79V137Z" fill="white"/>
<path d="M84 111H118V107H84V111Z" fill="#0078D4"/>
<path d="M84 117H118V113H84V117Z" fill="#83B9F9"/>
<path d="M84 122H118V119H84V122Z" fill="#83B9F9"/>
<path d="M84 127H118V124H84V127Z" fill="#83B9F9"/>
<path d="M109 104H118V101H109V104Z" fill="#C3F1FF"/>
<path d="M110 98H118V95H110V98Z" fill="#C3F1FF"/>
<path d="M110 94H118V91H110V94Z" fill="#C3F1FF"/>
<path d="M110 88H118V85H110V88Z" fill="#C3F1FF"/>
<path d="M108 84H118V79H108V84Z" fill="#C3F1FF"/>
<path d="M96.7803 79.1512C89.8456 79.1512 84.2301 84.7188 84.2301 91.5756C84.2301 98.4325 89.8456 104 96.7803 104C103.715 104 109.331 98.4325 109.331 91.5756C109.322 84.7104 103.715 79.1512 96.7803 79.1512ZM96.7803 97.3692C93.5497 97.3692 90.9196 94.7738 90.9196 91.5672C90.9196 88.3607 93.5413 85.7653 96.7803 85.7653C100.019 85.7653 102.641 88.3607 102.641 91.5672C102.641 94.7738 100.011 97.3692 96.7803 97.3692Z" fill="#0062AD"/>
<path d="M96.7635 85.7737L96.7381 79.1429C92.3235 79.1596 88.4502 81.4201 86.2175 84.8527L91.7231 88.6621C92.721 86.9458 94.6154 85.7737 96.7635 85.7737Z" fill="#50E6FF"/>
<path d="M90.9281 91.5754C90.9281 90.5205 91.2071 89.5326 91.7061 88.687L86.2175 84.8609L86.1921 84.9027C84.9489 86.8284 84.2301 89.1056 84.2301 91.5754C84.2301 93.4006 84.6275 95.142 85.3548 96.6992L91.4778 94.0285C91.1141 93.2833 90.9281 92.4545 90.9281 91.5754Z" fill="#3BCAF4"/>
<path d="M136.022 64.104H148.004V63.1091H135.453L130.985 70.0736C131.351 70.193 131.676 70.2726 132.001 70.392L136.022 64.104Z" fill="#50E6FF"/>
<path d="M148.776 66.8125C150.604 66.8125 152.107 65.34 152.107 63.5491C152.107 61.7582 150.604 60.2857 148.776 60.2857C146.948 60.2857 145.445 61.7582 145.445 63.5491C145.445 65.34 146.948 66.8125 148.776 66.8125Z" fill="#50E6FF"/>
<path d="M63.9507 131.717H51.9686V132.711H64.5193L68.9871 125.747C68.6215 125.628 68.2966 125.548 67.9716 125.429L63.9507 131.717Z" fill="#50E6FF"/>
<path d="M51.1964 129.008C49.3687 129.008 47.8658 130.481 47.8658 132.271C47.8658 134.062 49.3687 135.535 51.1964 135.535C53.0242 135.535 54.5271 134.062 54.5271 132.271C54.5271 130.481 53.0242 129.008 51.1964 129.008Z" fill="#50E6FF"/>
<path d="M136.388 133.168H148.938V132.173H136.956L132.001 124.571C131.676 124.651 131.351 124.77 130.985 124.85L136.388 133.168Z" fill="#50E6FF"/>
<path d="M149.669 129.583C147.842 129.583 146.339 131.055 146.339 132.846C146.339 134.637 147.842 136.11 149.669 136.11C151.497 136.11 153 134.637 153 132.846C153 131.015 151.497 129.583 149.669 129.583Z" fill="#50E6FF"/>
<path d="M63.6124 63.2276H51.0617V64.2225H63.0437L67.9992 71.8238C68.3241 71.7442 68.649 71.6248 69.0146 71.5452L63.6124 63.2276Z" fill="#50E6FF"/>
<path d="M50.3306 66.8124C52.1584 66.8124 53.6612 65.3399 53.6612 63.5491C53.6612 61.7582 52.1584 60.2857 50.3306 60.2857C48.5028 60.2857 47 61.7582 47 63.5491C47 65.3797 48.5028 66.8124 50.3306 66.8124Z" fill="#50E6FF"/>
<path d="M145.08 98.5342H130.985V99.5292H145.08V98.5342Z" fill="#50E6FF"/>
<path d="M147.17 95.4286C145.342 95.4286 143.839 96.9011 143.839 98.692C143.839 100.483 145.342 101.955 147.17 101.955C148.997 101.955 150.5 100.483 150.5 98.692C150.5 96.9011 148.997 95.4286 147.17 95.4286Z" fill="#50E6FF"/>
<path d="M54.1523 98.8497H68.2465V97.8547H54.1523V98.8497Z" fill="#50E6FF"/>
<path d="M52.0623 101.955C53.8901 101.955 55.3929 100.483 55.3929 98.6919C55.3929 96.9011 53.8901 95.4286 52.0623 95.4286C50.2345 95.4286 48.7317 96.9011 48.7317 98.6919C48.7317 100.483 50.2345 101.955 52.0623 101.955Z" fill="#50E6FF"/>
<defs>
<linearGradient id="paint0_linear_318_152" x1="96.54" y1="-27.28" x2="104.32" y2="257.28" gradientUnits="userSpaceOnUse">
<stop stop-color="#00ABDE"/>
<stop offset="1" stop-color="#007ED8"/>
</linearGradient>
</defs>
</svg>
