<svg width="157" height="119" viewBox="0 0 157 119" fill="none" xmlns="http://www.w3.org/2000/svg">
<g filter="url(#filter0_d)">
<circle cx="104" cy="53" r="49" fill="#5197D5"/>
<circle cx="104" cy="53" r="50.75" stroke="#F2F1F0" stroke-width="3.5"/>
</g>
<circle cx="104" cy="53" r="48" stroke="#0078D4" stroke-width="4"/>
<g filter="url(#filter1_d)">
<path d="M101.5 18V45H106.5V18H101.5Z" fill="white"/>
</g>
<g filter="url(#filter2_d)">
<path fill-rule="evenodd" clip-rule="evenodd" d="M104.322 73.6433C115.545 73.6433 124.643 64.545 124.643 53.3216C124.643 42.0983 115.545 33 104.322 33C93.0983 33 84 42.0983 84 53.3216C84 57.2385 85.1082 60.8966 87.028 63.9994V70.6151H93.6437C96.7466 72.5351 100.405 73.6433 104.322 73.6433Z" fill="#FCA11F"/>
<path fill-rule="evenodd" clip-rule="evenodd" d="M124.643 53.3217C124.643 64.545 115.545 73.6433 104.322 73.6433C100.405 73.6433 96.7466 72.5351 93.6437 70.6151H87.028V70.4949L118.777 39.0381C122.404 42.7086 124.643 47.7536 124.643 53.3217Z" fill="#E89619"/>
<circle cx="104.322" cy="42.5551" r="2.69161" fill="white"/>
<circle cx="104.322" cy="64.0881" r="2.69161" fill="white"/>
<circle cx="111.589" cy="56.8205" r="2.69161" fill="white"/>
<circle cx="111.589" cy="49.6879" r="2.69161" fill="white"/>
<path d="M110.512 53.1867C110.512 54.2152 109.413 56.0802 108.897 56.8877H114.213C113.72 56.1699 112.787 54.4249 112.733 53.1867C112.709 52.6466 112.886 52.0185 113.137 51.4243C113.461 50.6564 113.91 49.945 114.213 49.5531H108.897C109.503 50.3381 110.512 51.8409 110.512 53.1867Z" fill="white"/>
<circle cx="97.0543" cy="56.8208" r="2.69161" fill="white"/>
<circle cx="97.0543" cy="49.6879" r="2.69161" fill="white"/>
<path d="M95.9776 53.187C95.9776 54.2155 95.5515 54.3309 95.0356 55.1384L99.0057 55.0711C98.5122 54.3534 98.252 54.4252 98.1982 53.187C98.1747 52.6469 98.1982 52.4468 98.4674 52.0431C98.7683 51.5917 98.7022 51.7622 99.0057 51.3702L95.2375 51.572C95.8431 52.3571 95.9776 51.8412 95.9776 53.187Z" fill="white"/>
<circle cx="111.589" cy="56.8205" r="2.69161" fill="white"/>
<circle cx="111.589" cy="49.6879" r="2.69161" fill="white"/>
<path d="M110.512 53.187C110.512 54.2155 110.086 54.3309 109.57 55.1384L113.54 55.0711C113.047 54.3534 112.787 54.4252 112.733 53.187C112.709 52.6469 112.733 52.4468 113.002 52.0431C113.303 51.5917 113.237 51.7622 113.54 51.3702L109.772 51.572C110.378 52.3571 110.512 51.8412 110.512 53.187Z" fill="white"/>
<circle cx="104.322" cy="56.8205" r="2.69161" fill="white"/>
<circle cx="104.322" cy="49.6879" r="2.69161" fill="white"/>
<path d="M103.245 53.187C103.245 54.2155 102.819 54.3309 102.303 55.1384L106.273 55.0711C105.78 54.3534 105.519 54.4252 105.466 53.187C105.442 52.6469 105.466 52.4468 105.735 52.0431C106.036 51.5917 105.97 51.7622 106.273 51.3702L102.505 51.572C103.11 52.3571 103.245 51.8412 103.245 53.187Z" fill="white"/>
<circle cx="104.322" cy="56.8205" r="2.69161" fill="white"/>
<circle cx="104.322" cy="49.6879" r="2.69161" fill="white"/>
<path d="M103.245 53.187C103.245 54.2155 102.819 54.3309 102.303 55.1384L106.273 55.0711C105.78 54.3534 105.519 54.4252 105.466 53.187C105.442 52.6469 105.466 52.4468 105.735 52.0431C106.036 51.5917 105.97 51.7622 106.273 51.3702L102.505 51.572C103.11 52.3571 103.245 51.8412 103.245 53.187Z" fill="white"/>
</g>
<g filter="url(#filter3_d)">
<path d="M87.7278 28C79.4684 33.4208 74 42.8409 74 53.5631C74 70.3728 87.4316 84 104 84C120.568 84 134 70.3728 134 53.5631C134 42.8409 128.532 33.4208 120.272 28" stroke="white" stroke-width="5" stroke-miterlimit="10"/>
</g>
<defs>
<filter id="filter0_d" x="51.5" y="0.5" width="105.5" height="105.5" filterUnits="userSpaceOnUse" color-interpolation-filters="sRGB">
<feFlood flood-opacity="0" result="BackgroundImageFix"/>
<feColorMatrix in="SourceAlpha" type="matrix" values="0 0 0 0 0 0 0 0 0 0 0 0 0 0 0 0 0 0 127 0"/>
<feOffset dx="0.5" dy="0.5"/>
<feColorMatrix type="matrix" values="0 0 0 0 0.823529 0 0 0 0 0.831373 0 0 0 0 0.835294 0 0 0 1 0"/>
<feBlend mode="normal" in2="BackgroundImageFix" result="effect1_dropShadow"/>
<feBlend mode="normal" in="SourceGraphic" in2="effect1_dropShadow" result="shape"/>
</filter>
<filter id="filter1_d" x="97.5" y="16" width="13" height="35" filterUnits="userSpaceOnUse" color-interpolation-filters="sRGB">
<feFlood flood-opacity="0" result="BackgroundImageFix"/>
<feColorMatrix in="SourceAlpha" type="matrix" values="0 0 0 0 0 0 0 0 0 0 0 0 0 0 0 0 0 0 127 0"/>
<feOffset dy="2"/>
<feGaussianBlur stdDeviation="2"/>
<feColorMatrix type="matrix" values="0 0 0 0 0 0 0 0 0 0 0 0 0 0 0 0 0 0 0.1 0"/>
<feBlend mode="normal" in2="BackgroundImageFix" result="effect1_dropShadow"/>
<feBlend mode="normal" in="SourceGraphic" in2="effect1_dropShadow" result="shape"/>
</filter>
<filter id="filter2_d" x="80" y="31" width="48.6433" height="48.6433" filterUnits="userSpaceOnUse" color-interpolation-filters="sRGB">
<feFlood flood-opacity="0" result="BackgroundImageFix"/>
<feColorMatrix in="SourceAlpha" type="matrix" values="0 0 0 0 0 0 0 0 0 0 0 0 0 0 0 0 0 0 127 0"/>
<feOffset dy="2"/>
<feGaussianBlur stdDeviation="2"/>
<feColorMatrix type="matrix" values="0 0 0 0 0 0 0 0 0 0 0 0 0 0 0 0 0 0 0.1 0"/>
<feBlend mode="normal" in2="BackgroundImageFix" result="effect1_dropShadow"/>
<feBlend mode="normal" in="SourceGraphic" in2="effect1_dropShadow" result="shape"/>
</filter>
<filter id="filter3_d" x="67.5" y="23.9099" width="73" height="68.5901" filterUnits="userSpaceOnUse" color-interpolation-filters="sRGB">
<feFlood flood-opacity="0" result="BackgroundImageFix"/>
<feColorMatrix in="SourceAlpha" type="matrix" values="0 0 0 0 0 0 0 0 0 0 0 0 0 0 0 0 0 0 127 0"/>
<feOffset dy="2"/>
<feGaussianBlur stdDeviation="2"/>
<feColorMatrix type="matrix" values="0 0 0 0 0 0 0 0 0 0 0 0 0 0 0 0 0 0 0.1 0"/>
<feBlend mode="normal" in2="BackgroundImageFix" result="effect1_dropShadow"/>
<feBlend mode="normal" in="SourceGraphic" in2="effect1_dropShadow" result="shape"/>
</filter>
</defs>
</svg>
