<?xml version="1.0" encoding="UTF-8"?>
<svg width="101px" height="101px" viewBox="0 0 101 101" version="1.1" xmlns="http://www.w3.org/2000/svg" xmlns:xlink="http://www.w3.org/1999/xlink">
    <!-- Generator: Sketch 62 (91390) - https://sketch.com -->
    <title>Get started with Power Automate Buttons/Introduction-to-using-Power-Automate Buttons</title>
    <desc>Created with Sketch.</desc>
    <defs>
        <rect id="path-1" x="0" y="0" width="94.3396226" height="94.3396226" rx="47.1698113"></rect>
        <linearGradient x1="50%" y1="0%" x2="50%" y2="100%" id="linearGradient-3">
            <stop stop-color="#99D3FF" offset="0%"></stop>
            <stop stop-color="#0FA6FF" offset="100%"></stop>
        </linearGradient>
        <rect id="path-4" x="0" y="0" width="100" height="100" rx="50"></rect>
        <filter x="-0.5%" y="-0.5%" width="102.0%" height="102.0%" filterUnits="objectBoundingBox" id="filter-5">
            <feOffset dx="1" dy="1" in="SourceAlpha" result="shadowOffsetOuter1"></feOffset>
            <feMorphology radius="4" operator="erode" in="SourceAlpha" result="shadowInner"></feMorphology>
            <feOffset dx="1" dy="1" in="shadowInner" result="shadowInner"></feOffset>
            <feComposite in="shadowOffsetOuter1" in2="shadowInner" operator="out" result="shadowOffsetOuter1"></feComposite>
            <feColorMatrix values="0 0 0 0 0   0 0 0 0 0   0 0 0 0 0  0 0 0 0.15 0" type="matrix" in="shadowOffsetOuter1"></feColorMatrix>
        </filter>
        <path d="M50,2.83018868 C76.0511674,2.83018868 97.1698113,23.9488326 97.1698113,50 C97.1698113,76.0511674 76.0511674,97.1698113 50,97.1698113 C23.9488326,97.1698113 2.83018868,76.0511674 2.83018868,50 C2.83018868,23.9488326 23.9488326,2.83018868 50,2.83018868 Z M50,6.60377358 C26.032926,6.60377358 6.60377358,26.032926 6.60377358,50 C6.60377358,73.967074 26.032926,93.3962264 50,93.3962264 C73.967074,93.3962264 93.3962264,73.967074 93.3962264,50 C93.3962264,26.032926 73.967074,6.60377358 50,6.60377358 Z" id="path-6"></path>
        <filter x="-6.2%" y="-6.5%" width="112.5%" height="112.9%" filterUnits="objectBoundingBox" id="filter-8">
            <feOffset dx="0" dy="2" in="SourceAlpha" result="shadowOffsetOuter1"></feOffset>
            <feColorMatrix values="0 0 0 0 0   0 0 0 0 0   0 0 0 0 0  0 0 0 0.10082654 0" type="matrix" in="shadowOffsetOuter1" result="shadowMatrixOuter1"></feColorMatrix>
            <feMerge>
                <feMergeNode in="shadowMatrixOuter1"></feMergeNode>
                <feMergeNode in="SourceGraphic"></feMergeNode>
            </feMerge>
        </filter>
        <path d="M24.5842045,19.9573105 C24.5842045,22.3194892 22.6619891,24.2412762 20.3002388,24.2412762 C17.9380601,24.2412762 16.0162731,22.3194892 16.0162731,19.9573105 C16.0162731,17.5951318 17.9380601,15.6733448 20.3002388,15.6733448 C22.6619891,15.6733448 24.5842045,17.5951318 24.5842045,19.9573105 Z M30.5093575,17.2070045 C30.3461385,17.1710192 30.0920993,16.939685 30.0411201,16.7803215 C30.0346941,16.7584733 30.0265546,16.7370535 30.0175583,16.716062 L29.4679255,15.3803215 C29.4585008,15.3571881 29.4477908,15.3340547 29.4362241,15.3117781 C29.3591127,15.1639812 29.3741066,14.823406 29.4636415,14.6833203 L30.5594799,12.9611661 C31.0242902,12.2307499 30.9086232,11.1790363 30.2968728,10.5668576 L29.6906917,9.96067647 C29.0930785,9.36263485 28.0113771,9.24311221 27.2963833,9.69806937 L25.5738006,10.7934794 C25.5163955,10.8307499 25.3805938,10.8705908 25.2195167,10.8705908 C25.0875705,10.8705908 24.9894677,10.8440302 24.9457713,10.8213252 C24.923923,10.8093301 24.9003612,10.7990486 24.8767994,10.7896238 L23.5414873,10.2395626 C23.5204959,10.2309947 23.499076,10.2228552 23.4772278,10.2164292 C23.3182927,10.16545 23.0865301,9.91141086 23.0505448,9.74776337 L22.6080112,7.75614771 C22.4199451,6.91092127 21.5944249,6.24862017 20.7286354,6.24862017 L19.8718422,6.24862017 C19.0056244,6.24862017 18.1805326,6.91092127 17.9928949,7.75571931 L17.5499328,9.74862017 C17.5135191,9.91141086 17.282185,10.16545 17.1232498,10.2164292 C17.1014016,10.2228552 17.0799818,10.2309947 17.058562,10.2395626 L15.7232498,10.7896238 C15.699688,10.7990486 15.6765546,10.8093301 15.654278,10.8213252 C15.6110099,10.8440302 15.5129071,10.8705908 15.3805326,10.8705908 C15.2194555,10.8705908 15.0836538,10.8303215 15.0258202,10.7934794 L13.3040944,9.69849777 C12.5891005,9.24354061 11.5069708,9.36349165 10.9097859,9.96110487 L10.3036048,10.5668576 C9.69142609,11.1794647 9.57618741,12.2311783 10.0409977,12.9615945 L11.1368361,14.6833203 C11.2259426,14.8238344 11.2409365,15.1635528 11.1642535,15.3113497 C11.1526868,15.3340547 11.1415485,15.3571881 11.1321238,15.3803215 L10.582491,16.716062 C10.573923,16.7370535 10.5657835,16.7584733 10.5589292,16.7803215 C10.50795,16.939685 10.2543392,17.1710192 10.0906917,17.2074329 L8.09907603,17.6495382 C7.25384959,17.8376043 6.59154849,18.6626961 6.59154849,19.5289139 L6.59154849,20.3857071 C6.59154849,21.2514965 7.25384959,22.0770167 8.09864763,22.2646544 L10.0911201,22.7071881 C10.2543392,22.7436018 10.50795,22.974936 10.5589292,23.1342995 C10.5657835,23.1561477 10.573923,23.1775675 10.582491,23.198559 L11.1321238,24.5342995 C11.1415485,24.5574329 11.1522584,24.5801379 11.1642535,24.6028429 C11.2409365,24.7502114 11.2259426,25.0907866 11.1364077,25.2313007 L10.0409977,26.9530265 C9.57575902,27.6834427 9.69142609,28.7355847 10.3036048,29.3477634 L10.9097859,29.9539445 C11.5065424,30.5502726 12.5873869,30.6719372 13.3045228,30.2165516 L15.0253918,29.1211416 C15.0836538,29.0838711 15.2194555,29.0440302 15.3805326,29.0440302 C15.5129071,29.0440302 15.6110099,29.0701624 15.654278,29.0932958 C15.676983,29.1044341 15.699688,29.1155724 15.7232498,29.1249972 L17.058562,29.6750584 C17.0799818,29.6836263 17.1014016,29.6913374 17.1232498,29.6981918 C17.282185,29.749171 17.5135191,30.0032101 17.5499328,30.1664292 L17.9928949,32.1584733 C18.1805326,33.0036997 19.0056244,33.6660008 19.8718422,33.6660008 L20.7286354,33.6660008 C21.5944249,33.6660008 22.4195167,33.0036997 22.6075828,32.1584733 L23.0505448,30.1664292 C23.0865301,30.0032101 23.3182927,29.749171 23.4772278,29.6981918 C23.499076,29.6913374 23.5204959,29.6836263 23.5414873,29.6750584 L24.8767994,29.1249972 C24.9003612,29.1155724 24.9234946,29.1044341 24.9457713,29.0932958 C24.9894677,29.0701624 25.0875705,29.0440302 25.2190883,29.0440302 C25.3801654,29.0440302 25.5163955,29.0838711 25.5738006,29.1211416 L27.2959549,30.2161232 C28.0105203,30.6719372 29.0930785,30.5511293 29.6906917,29.9539445 L30.2964445,29.3481918 C30.9086232,28.7360131 31.0242902,27.6838711 30.5594799,26.9530265 L29.4636415,25.2313007 C29.3741066,25.0907866 29.3591127,24.7506398 29.4362241,24.6032713 C29.4477908,24.5805663 29.4585008,24.5578613 29.4679255,24.5347279 L30.0175583,23.198559 C30.0265546,23.1775675 30.0346941,23.1561477 30.0411201,23.1342995 C30.0920993,22.974936 30.3461385,22.7436018 30.5097859,22.7071881 L32.5009732,22.2646544 C33.346628,22.0770167 34.0089292,21.2514965 34.0089292,20.3857071 L34.0089292,19.5289139 C34.0089292,18.6626961 33.346628,17.8376043 32.5014016,17.6499666 L30.5093575,17.2070045 Z" id="path-9"></path>
        <filter x="-3.6%" y="-3.6%" width="107.3%" height="114.6%" filterUnits="objectBoundingBox" id="filter-10">
            <feOffset dx="0" dy="2" in="SourceAlpha" result="shadowOffsetOuter1"></feOffset>
            <feColorMatrix values="0 0 0 0 0   0 0 0 0 0   0 0 0 0 0  0 0 0 0.1 0" type="matrix" in="shadowOffsetOuter1"></feColorMatrix>
        </filter>
        <path d="M0.411675,8.59090909 C2.69115,8.59090909 4.5375,6.75981818 4.5375,4.5 L4.5375,4.5 C4.5375,2.24018182 2.69115,0.409090909 0.411675,0.409090909 L0.411675,0.409090909 L0.411675,8.59090909 Z" id="path-11"></path>
    </defs>
    <g id="Badges" stroke="none" stroke-width="1" fill="none" fill-rule="evenodd">
        <g id="Get-started-with-Power-Automate-Buttons" transform="translate(-160.000000, -320.000000)">
            <g id="Get-started-with-Power-Automate-Buttons/Introduction-to-using-Power-Automate-Buttons" transform="translate(160.000000, 320.000000)">
                <g id="Badge-Plates/Circle">
                    <g id="BG" transform="translate(2.830189, 2.830189)">
                        <mask id="mask-2" fill="white">
                            <use xlink:href="#path-1"></use>
                        </mask>
                        <g></g>
                        <g id="Colors/Microsoft-365/BG-Gradient-1" mask="url(#mask-2)" fill="url(#linearGradient-3)">
                            <rect id="Rectangle" x="0" y="0" width="94.3396226" height="94.3396226"></rect>
                        </g>
                    </g>
                    <g id="Border">
                        <g id="White-Border">
                            <use fill="black" fill-opacity="1" filter="url(#filter-5)" xlink:href="#path-4"></use>
                            <rect stroke="#F2F1F0" stroke-width="4" stroke-linejoin="square" x="2" y="2" width="96" height="96" rx="48"></rect>
                        </g>
                        <mask id="mask-7" fill="white">
                            <use xlink:href="#path-6"></use>
                        </mask>
                        <use id="Boarder" fill="#0078D4" fill-rule="nonzero" xlink:href="#path-6"></use>
                        <g id="Colors/Microsoft-365/Border" mask="url(#mask-7)" fill="#0076D7">
                            <g transform="translate(2.830189, 2.830189)" id="Microsoft-365/Border">
                                <rect x="0" y="0" width="94.3396226" height="94.3396226"></rect>
                            </g>
                        </g>
                    </g>
                </g>
                <g id="Screen" filter="url(#filter-8)" transform="translate(18.000000, 22.000000)">
                    <path d="M41.414,58.586 L34,51.172 L34,48 C34,46.895 33.104,46 32,46 C30.896,46 30,46.895 30,48 L30,51.172 L22.586,58.586 C21.805,59.367 21.805,60.633 22.586,61.414 C22.977,61.805 23.488,62 24,62 C24.512,62 25.023,61.805 25.414,61.414 L30,56.828 L30,59 C30,60.104 30.896,61 32,61 C33.104,61 34,60.104 34,59 L34,56.828 L38.586,61.414 C38.977,61.805 39.488,62 40,62 C40.512,62 41.023,61.805 41.414,61.414 C42.195,60.633 42.195,59.367 41.414,58.586" id="Fill-1016" fill="#546670"></path>
                    <path d="M62,10 L62,46 C62,47.1 61.1,48 60,48 L4,48 C2.9,48 2,47.1 2,46 L2,10 L62,10" id="Fill-1017" fill="#E1E4E1"></path>
                    <path d="M32,6 C30.896,6 30,5.104 30,4 L30,2 C30,0.895 30.896,0 32,0 C33.104,0 34,0.895 34,2 L34,4 C34,5.104 33.104,6 32,6" id="Fill-1018" fill="#546670"></path>
                    <path d="M64,9 C64,9.55 63.55,10 63,10 L1,10 C0.45,10 0,9.55 0,9 L0,5 C0,4.45 0.45,4 1,4 L63,4 C63.55,4 64,4.45 64,5 L64,9" id="Fill-1019" fill="#30404D"></path>
                    <polygon id="Fill-1020" fill="#C5CCCD" points="2 12 62 12 62 10 2 10"></polygon>
                    <path d="M24.117,59.883 C23.637,60.362 22.815,60.239 22.512,59.631 C22.409,59.425 22.328,59.217 22.271,59.011 C21.834,59.775 21.934,60.762 22.586,61.414 C22.977,61.805 23.488,62 24,62 C24.512,62 25.023,61.805 25.414,61.414 L32,55 L32,52 L24.117,59.883" id="Fill-1022" fill="#30404D"></path>
                    <path d="M39.883,59.883 C40.362,60.362 41.185,60.239 41.488,59.631 C41.591,59.425 41.672,59.217 41.729,59.011 C42.166,59.775 42.066,60.762 41.414,61.414 C41.023,61.805 40.512,62 40,62 C39.488,62 38.977,61.805 38.586,61.414 L32,55 L32,52 L39.883,59.883" id="Fill-1023" fill="#30404D"></path>
                    <path d="M32,54 L32,58.838 C32,59.533 31.31,60.007 30.653,59.78 C30.447,59.709 30.254,59.623 30.078,59.524 C30.325,60.428 31.18,61.081 32.182,60.992 C33.234,60.899 34,59.938 34,58.882 L34,54 L32,54" id="Fill-1024" fill="#30404D"></path>
                    <path d="M30,48 L30,49 L30.914,49 C31.514,49 32,49.486 32,50.086 C32,50.686 32.486,51.172 33.086,51.172 L34,51.172 L34,48 L30,48" id="Fill-1025" fill="#30404D"></path>
                    <path d="M1,10 L63,10 C63.55,10 64,9.55 64,9 L64,5 C64,4.45 63.55,4 63,4 L32,4 L32,6 C32,6.552 31.552,7 31,7 L0,7 L0,9 C0,9.55 0.45,10 1,10" id="Fill-1026" fill="#182A37"></path>
                    <path d="M32,1.903 L32,4 L34,4 L34,2 C34,1.885 33.99,1.773 33.972,1.664 C33.775,0.499 32,0.722 32,1.903" id="Fill-1027" fill="#30404D"></path>
                </g>
                <g id="Group" transform="translate(30.000000, 31.000000)">
                    <g id="Group-10">
                        <g id="Fill-376" transform="translate(20.300239, 19.957310) rotate(-45.000000) translate(-20.300239, -19.957310) ">
                            <use fill="black" fill-opacity="1" filter="url(#filter-10)" xlink:href="#path-9"></use>
                            <use fill="#546670" fill-rule="evenodd" xlink:href="#path-9"></use>
                        </g>
                        <path d="M15.886604,27.2688234 C15.9451114,27.2313965 16.0814852,27.1913885 16.243241,27.1913885 C16.3761732,27.1913885 16.4746893,27.2176303 16.5181397,27.2408608 C16.5409403,27.2520458 16.563741,27.2632308 16.5874021,27.2726951 L17.9283399,27.8250636 C17.9498499,27.8336675 17.97136,27.8414109 17.9933003,27.848294 C18.152905,27.8994871 18.3852138,28.1545918 18.4217809,28.3184956 L18.8666091,30.3188955 C19.0550373,31.1676673 19.8836052,31.8327465 20.7534725,31.8327465 L21.6138753,31.8327465 C22.4833123,31.8327465 23.3118802,31.1676673 23.5007386,30.3188955 L23.9455669,28.3184956 C23.9817038,28.1545918 24.2144428,27.8994871 24.3740475,27.848294 C24.3959877,27.8414109 24.4174978,27.8336675 24.4385777,27.8250636 L25.7795155,27.2726951 C25.8031765,27.2632308 25.8264074,27.2520458 25.8487779,27.2408608 C25.8926584,27.2176303 25.9911745,27.1913885 26.1232464,27.1913885 C26.2850021,27.1913885 26.4218061,27.2313965 26.4794531,27.2688234 L28.2088628,28.368398 C28.9264387,28.8261239 30.0135577,28.7048094 30.6136886,28.1051196 L31.2219934,27.4968259 C31.8367512,26.8820794 31.9529056,25.8255241 31.4861371,25.0916139 L30.3856819,23.3626661 C30.2957698,23.2215627 30.2807127,22.879989 30.358149,22.7320024 C30.3697644,22.7092022 30.3805194,22.6864019 30.3899839,22.6631715 L30.9419323,21.3213978 C30.9509665,21.3003184 30.9591403,21.2788087 30.9655934,21.2568688 C31.0167873,21.0968368 31.2718968,20.8645323 31.4362337,20.8279659 L33.4358098,20.383576 C34.2850274,20.1951512 34.9501187,19.3661683 34.9501187,18.4967471 L34.9501187,17.6363601 C34.9501187,16.7665088 34.2850274,15.937956 33.43624,15.7495313 L31.4358035,15.3047112 C31.2718968,15.2685749 31.0167873,15.0362704 30.9655934,14.8762384 C30.9591403,14.8542986 30.9509665,14.8327889 30.9419323,14.8117094 L30.3899839,13.470366 C30.3805194,13.4471355 30.3697644,13.4239051 30.358149,13.401535 C30.2807127,13.2531182 30.2957698,12.9111144 30.3856819,12.7704411 L31.4861371,11.0410631 C31.9529056,10.3075832 31.7897888,9.29842047 31.1754612,8.68367392 L30.6070399,8.11525817 L24.0356055,14.6866925 C24.8147003,15.465773 25.4856879,16.8805101 25.4856879,18.0665536 C25.4856879,20.4386407 23.5553742,22.3684889 21.1836739,22.3684889 C19.9976086,22.3684889 18.7084517,21.5715913 17.929357,20.792941 L11.1854188,27.5368792 L11.7536591,28.1051196 C12.3529297,28.703949 13.4383278,28.8261239 14.158485,28.3688282 L15.886604,27.2688234 Z" id="Fill-377" fill="#30404D" transform="translate(23.067769, 19.974002) rotate(-45.000000) translate(-23.067769, -19.974002) "></path>
                    </g>
                    <g id="Group-11" transform="translate(16.000000, 16.000000)">
                        <path d="M4.5,8 C6.9858,8 9,6.2096 9,4 C9,1.7904 6.9858,0 4.5,0 C2.0151,0 0,1.7904 0,4 C0,6.2096 2.0151,8 4.5,8 Z" id="Stroke-4" stroke="#30404D"></path>
                        <g id="Group-8" transform="translate(4.000000, 0.000000)">
                            <mask id="mask-12" fill="white">
                                <use xlink:href="#path-11"></use>
                            </mask>
                            <g id="Clip-7"></g>
                            <polygon id="Stroke-6" stroke="#C4C4C4" mask="url(#mask-12)" points="-7.8375 12.6818182 8.6625 12.6818182 8.6625 -3.68181818 -7.8375 -3.68181818"></polygon>
                        </g>
                        <path d="M4,8 C6.2096,8 8,6.2096 8,4 C8,1.7904 6.2096,0 4,0" id="Stroke-9" stroke="#546670"></path>
                    </g>
                </g>
                <circle id="Oval" fill="#E1E4E1" cx="50" cy="51" r="7"></circle>
                <g id="noun_Power_3093788" transform="translate(45.610202, 45.368332)" fill="#000000" fill-rule="nonzero">
                    <path d="M4.50044113,9.99894098 C2.60420041,9.99806925 0.957831507,8.66931392 0.524942069,6.79038572 C0.0920526324,4.91145753 0.986459149,2.97636948 2.68467204,2.11771441 C2.85196162,2.03277452 3.05106837,2.04511845 3.2069907,2.15009637 C3.36291303,2.25507429 3.45196263,2.43673755 3.44059538,2.62665536 C3.42922812,2.81657316 3.31917098,2.98589249 3.1518814,3.07083237 C1.8790838,3.71296165 1.21441646,5.167893 1.55232514,6.57219975 C1.89023382,7.9765065 3.14025277,8.95422415 4.56056025,8.92512771 C5.98086773,8.89603128 7.19121547,7.86791054 7.47332456,6.4509021 C7.75543364,5.03389366 7.03377712,3.60736255 5.73662089,3.01788137 C5.56617139,2.93994099 5.44952528,2.77537377 5.43062201,2.58617058 C5.41171875,2.39696739 5.49343019,2.21187271 5.64497642,2.10060992 C5.79652265,1.98934712 5.9948802,1.96881967 6.1653297,2.04676007 C7.92457768,2.84738738 8.89481482,4.79037549 8.49325512,6.70864242 C8.09169541,8.62690935 6.42756288,9.99868756 4.50044113,10 L4.50044113,9.99894098 Z" id="Path"></path>
                    <path d="M4.49553195,4.63160163 C4.22185721,4.63160163 4,4.44891967 4,4.22357005 L4,1.04337193 C4,0.815994164 4.22385392,0.631668067 4.5,0.631668067 C4.77612954,0.631668067 4.99998347,0.815994164 4.99998347,1.04337193 L4.99998347,4.22030579 C5.0010746,4.33037207 4.9481154,4.43613276 4.8531283,4.51357886 C4.75814119,4.59102495 4.62918411,4.63358655 4.49553195,4.63160163 L4.49553195,4.63160163 Z" id="Path"></path>
                </g>
            </g>
        </g>
    </g>
</svg>