<svg width="103" height="103" viewBox="0 0 103 103" fill="none" xmlns="http://www.w3.org/2000/svg">
<path d="M51.3625 98.3885C25.5125 98.3885 4.55249 77.4386 4.55249 51.5786C4.55249 25.7186 25.5125 4.76855 51.3625 4.76855C77.2125 4.76855 98.1725 25.7286 98.1725 51.5786C98.1725 77.4286 77.2125 98.3885 51.3625 98.3885Z" fill="url(#paint0_linear)"/>
<path fill-rule="evenodd" clip-rule="evenodd" d="M97.2627 51.5785C97.2627 76.9285 76.7127 97.4785 51.3627 97.4785C26.0127 97.4785 5.46266 76.9285 5.46266 51.5785C5.46266 26.2285 26.0127 5.67848 51.3627 5.67848C76.7127 5.67848 97.2627 26.2285 97.2627 51.5785ZM51.3627 1.93848C78.7827 1.93848 101.003 24.1585 101.003 51.5785C101.003 78.9985 78.7727 101.218 51.3627 101.218C23.9427 101.218 1.72266 78.9885 1.72266 51.5785C1.72266 24.1585 23.9427 1.93848 51.3627 1.93848Z" fill="#F2F1F0"/>
<path fill-rule="evenodd" clip-rule="evenodd" d="M94.4525 51.578C94.4525 75.378 75.1625 94.668 51.3625 94.668C27.5625 94.668 8.27247 75.378 8.27247 51.578C8.27247 27.778 27.5625 8.48805 51.3625 8.48805C75.1625 8.48805 94.4525 27.778 94.4525 51.578ZM51.3625 4.74805C77.2225 4.74805 98.1925 25.718 98.1925 51.578C98.1925 77.438 77.2225 98.4081 51.3625 98.4081C25.5025 98.4081 4.53247 77.438 4.53247 51.578C4.53247 25.718 25.4925 4.74805 51.3625 4.74805Z" fill="#0078D4"/>
<path d="M84.6424 32.3477V70.9177L51.4724 90.3577V51.7877L84.6424 32.3477Z" fill="#32B0E7"/>
<path d="M84.6425 32.348L51.3625 51.788L18.0825 32.348L51.3625 12.998L84.6425 32.348Z" fill="#45CAF2"/>
<path d="M51.4726 51.7877V90.3577L18.1926 70.8977V32.3477L51.4726 51.7877Z" fill="#0078D4"/>
<path d="M18.1926 70.7981L51.4726 51.5781V90.1481L18.1926 70.7981Z" fill="#185A97"/>
<path d="M84.6425 70.7984L51.3625 51.5684V90.1384L84.6425 70.7984Z" fill="#156AB3"/>
<path opacity="0.15" d="M71.7126 25.7285H31.0126C30.1326 25.7285 29.4226 26.4385 29.4226 27.3185V80.4185C29.4226 81.2985 30.1326 82.0085 31.0126 82.0085H71.7126C72.5926 82.0085 73.3026 81.2985 73.3026 80.4185V27.3185C73.2826 26.4385 72.5726 25.7285 71.7126 25.7285Z" fill="#1F1D20"/>
<path d="M71.7126 23.7686H31.0126C30.1326 23.7686 29.4226 24.4786 29.4226 25.3586V78.4585C29.4226 79.3385 30.1326 80.0486 31.0126 80.0486H71.7126C72.5926 80.0486 73.3026 79.3385 73.3026 78.4585V25.3586C73.2826 24.4786 72.5726 23.7686 71.7126 23.7686Z" fill="#F2F2F2"/>
<path fill-rule="evenodd" clip-rule="evenodd" d="M54.1027 16.4481C55.6327 17.2581 56.5327 18.8881 56.5327 20.6081V21.0281C56.5327 21.1881 56.5227 21.3281 56.5127 21.4881H59.8227C60.8127 21.4881 61.7327 21.9781 62.2327 22.8381C63.6327 25.2781 61.9127 27.7681 59.5927 27.7681H42.9027C41.9127 27.7681 40.9927 27.2781 40.4927 26.4181C39.0927 23.9781 40.8127 21.4881 43.1327 21.4881H46.2127C46.2027 21.3481 46.2027 21.1881 46.2027 21.0281V20.8981C46.2027 17.1781 50.1627 14.3681 54.1027 16.4481Z" fill="#1F56A3"/>
<path d="M51.3627 23.3186C52.5427 23.3186 53.4927 22.3686 53.4927 21.1886C53.4927 20.0086 52.5427 19.0586 51.3627 19.0586C50.1827 19.0586 49.2327 20.0086 49.2327 21.1886C49.2327 22.3686 50.1827 23.3186 51.3627 23.3186Z" fill="#F2F2F2"/>
<path d="M51.9426 34.1981L50.0126 32.2081C49.7526 31.9381 49.3126 31.9481 49.0626 32.2281L40.9126 41.5381C40.5526 41.9481 40.5526 42.5781 40.9126 42.9881L48.9926 52.2781C49.2926 52.6281 49.8426 52.6281 50.1426 52.2781L52.5526 49.4981L52.8226 35.1681L51.9426 34.1981Z" fill="url(#paint1_linear)"/>
<path d="M61.4325 41.1377L53.3925 32.3577C53.0425 31.9877 52.4625 31.9777 52.1025 32.3477L48.3925 36.1777C47.9925 36.5977 47.9825 37.2577 48.3825 37.6777L52.1825 41.7577C52.4625 42.0577 52.4625 42.5177 52.1825 42.8177L48.3625 46.9477C47.9725 47.3677 47.9825 48.0277 48.3825 48.4377L52.1025 52.2977C52.4525 52.6677 53.0425 52.6577 53.3925 52.2877L61.4325 43.4377C62.0225 42.7877 62.0225 41.7877 61.4325 41.1377Z" fill="url(#paint2_linear)"/>
<path d="M61.8126 43.0285L58.2226 47.0085C57.9526 47.3085 57.4826 47.3185 57.2026 47.0285L53.6026 43.3485C53.0226 42.7485 53.0126 41.7985 53.5926 41.1985L57.1326 37.5385C57.4126 37.2485 57.8826 37.2585 58.1626 37.5585L61.8226 41.5885C62.1826 41.9985 62.1826 42.6185 61.8126 43.0285Z" fill="url(#paint3_linear)"/>
<path d="M62.4327 57.9287H47.1927C46.7027 57.9287 46.3127 58.3287 46.3127 58.8087C46.3127 59.2987 46.7127 59.6887 47.1927 59.6887H62.4327C62.9227 59.6887 63.3127 59.2887 63.3127 58.8087C63.3127 58.3187 62.9127 57.9287 62.4327 57.9287Z" fill="#0078D4"/>
<path d="M62.4327 63.9385H47.1927C46.7027 63.9385 46.3127 64.3385 46.3127 64.8185C46.3127 65.3085 46.7127 65.6985 47.1927 65.6985H62.4327C62.9227 65.6985 63.3127 65.2985 63.3127 64.8185C63.3127 64.3285 62.9127 63.9385 62.4327 63.9385Z" fill="#32B0E7"/>
<path fill-rule="evenodd" clip-rule="evenodd" d="M47.1927 69.9385H56.8327C57.3227 69.9385 57.7127 70.3385 57.7127 70.8185C57.7127 71.3085 57.3127 71.6985 56.8327 71.6985H47.1927C46.7027 71.6985 46.3127 71.2985 46.3127 70.8185C46.3027 70.3485 46.6927 69.9385 47.1927 69.9385Z" fill="#45CAF2"/>
<path d="M44.8826 57.6283L44.2426 56.9883L41.0226 60.1983L40.0626 59.2283L39.4126 59.8683L41.0226 61.4783L44.8826 57.6283Z" fill="#0078D4"/>
<path d="M44.8826 63.7787L44.2426 63.1387L41.0226 66.3487L40.0626 65.3787L39.4126 66.0187L41.0226 67.6287L44.8826 63.7787Z" fill="#32B0E7"/>
<path d="M44.8826 69.9281L44.2426 69.2881L41.0226 72.4981L40.0626 71.5281L39.4126 72.1681L41.0226 73.7781L44.8826 69.9281Z" fill="#45CAF2"/>
<defs>
<linearGradient id="paint0_linear" x1="49.5925" y1="-13.2144" x2="53.5755" y2="132.554" gradientUnits="userSpaceOnUse">
<stop stop-color="#00ABDE"/>
<stop offset="1" stop-color="#007ED8"/>
</linearGradient>
<linearGradient id="paint1_linear" x1="46.2174" y1="32.7802" x2="47.7127" y2="50.3496" gradientUnits="userSpaceOnUse">
<stop stop-color="#A23093"/>
<stop offset="1" stop-color="#692266"/>
</linearGradient>
<linearGradient id="paint2_linear" x1="48.0779" y1="42.3257" x2="61.8774" y2="42.3257" gradientUnits="userSpaceOnUse">
<stop stop-color="#E184C4"/>
<stop offset="1" stop-color="#D76EBC"/>
</linearGradient>
<linearGradient id="paint3_linear" x1="53.1578" y1="42.2826" x2="62.0881" y2="42.2826" gradientUnits="userSpaceOnUse">
<stop stop-color="#E89BCA"/>
<stop offset="1" stop-color="#E591C8"/>
</linearGradient>
</defs>
</svg>
