<svg width="101" height="101" viewBox="0 0 101 101" fill="none" xmlns="http://www.w3.org/2000/svg">
<path d="M50.582 97.1805C24.732 97.1805 3.77197 76.2305 3.77197 50.3705C3.77197 24.5105 24.732 3.56055 50.582 3.56055C76.432 3.56055 97.392 24.5205 97.392 50.3705C97.392 76.2205 76.432 97.1805 50.582 97.1805Z" fill="url(#paint0_linear)"/>
<path fill-rule="evenodd" clip-rule="evenodd" d="M96.4819 50.3705C96.4819 75.7205 75.9319 96.2705 50.5819 96.2705C25.2319 96.2705 4.68189 75.7205 4.68189 50.3705C4.68189 25.0205 25.2319 4.47047 50.5819 4.47047C75.9319 4.47047 96.4819 25.0205 96.4819 50.3705ZM50.5819 0.730469C78.0019 0.730469 100.222 22.9505 100.222 50.3705C100.222 77.7905 77.9919 100.01 50.5819 100.01C23.1619 100.01 0.941895 77.7805 0.941895 50.3705C0.941895 22.9505 23.1619 0.730469 50.5819 0.730469Z" fill="#F2F1F0"/>
<path fill-rule="evenodd" clip-rule="evenodd" d="M93.672 50.371C93.672 74.171 74.382 93.461 50.582 93.461C26.782 93.461 7.49195 74.171 7.49195 50.371C7.49195 26.571 26.782 7.28102 50.582 7.28102C74.382 7.28102 93.672 26.571 93.672 50.371ZM50.582 3.54102C76.442 3.54102 97.412 24.511 97.412 50.371C97.412 76.231 76.442 97.201 50.582 97.201C24.722 97.201 3.75195 76.231 3.75195 50.371C3.75195 24.511 24.712 3.54102 50.582 3.54102Z" fill="#0078D4"/>
<path fill-rule="evenodd" clip-rule="evenodd" d="M59.332 80.631L51.922 73.211V70.041C51.922 68.941 51.022 68.041 49.922 68.041C48.822 68.041 47.922 68.941 47.922 70.041V73.211L40.512 80.621C39.732 81.401 39.732 82.671 40.512 83.451C40.902 83.851 41.412 84.041 41.922 84.041C42.432 84.041 42.942 83.851 43.332 83.451L47.922 78.871V81.041C47.922 82.141 48.822 83.041 49.922 83.041C51.022 83.041 51.922 82.141 51.922 81.041V78.871L56.512 83.461C56.902 83.851 57.412 84.041 57.922 84.041C58.432 84.041 58.942 83.851 59.332 83.451C60.112 82.671 60.112 81.411 59.332 80.631Z" fill="#546670"/>
<path fill-rule="evenodd" clip-rule="evenodd" d="M79.9221 32.041V68.041C79.9221 69.141 79.0221 70.041 77.9221 70.041H21.9221C20.8221 70.041 19.9221 69.141 19.9221 68.041V32.041H79.9221Z" fill="#E1E4E1"/>
<path fill-rule="evenodd" clip-rule="evenodd" d="M49.9221 28.041C48.8221 28.041 47.9221 27.141 47.9221 26.041V24.041C47.9221 22.931 48.8221 22.041 49.9221 22.041C51.0221 22.041 51.9221 22.931 51.9221 24.041V26.041C51.9221 27.141 51.0221 28.041 49.9221 28.041Z" fill="#546670"/>
<path fill-rule="evenodd" clip-rule="evenodd" d="M81.9221 31.041C81.9221 31.591 81.4721 32.041 80.9221 32.041H18.9221C18.3721 32.041 17.9221 31.591 17.9221 31.041V27.041C17.9221 26.491 18.3721 26.041 18.9221 26.041H80.9221C81.4721 26.041 81.9221 26.491 81.9221 27.041V31.041Z" fill="#30404D"/>
<path fill-rule="evenodd" clip-rule="evenodd" d="M19.9221 34.041H79.9221V32.041H19.9221V34.041V34.041Z" fill="#C5CCCD"/>
<path fill-rule="evenodd" clip-rule="evenodd" d="M42.0421 81.921C41.5621 82.401 40.7421 82.281 40.4321 81.671C40.3321 81.461 40.2521 81.261 40.1921 81.051C39.7521 81.811 39.8521 82.801 40.5121 83.451C40.9021 83.851 41.4121 84.041 41.9221 84.041C42.4321 84.041 42.9421 83.851 43.3321 83.451L49.9221 77.041V74.041L42.0421 81.921Z" fill="#30404D"/>
<path fill-rule="evenodd" clip-rule="evenodd" d="M57.8021 81.921C58.2821 82.401 59.1021 82.281 59.4021 81.671C59.5021 81.461 59.5821 81.261 59.6421 81.051C60.0821 81.811 59.9821 82.801 59.3321 83.451C58.9421 83.851 58.4321 84.041 57.9221 84.041C57.4121 84.041 56.9021 83.851 56.5121 83.451L49.9221 77.041V74.041L57.8021 81.921Z" fill="#30404D"/>
<path fill-rule="evenodd" clip-rule="evenodd" d="M49.9222 76.041V80.881C49.9222 81.571 49.2322 82.051 48.5722 81.821C48.3622 81.751 48.1722 81.661 47.9922 81.561C48.2422 82.461 49.0922 83.121 50.0922 83.031C51.1522 82.941 51.9222 81.981 51.9222 80.921V76.041H49.9222Z" fill="#30404D"/>
<path fill-rule="evenodd" clip-rule="evenodd" d="M47.9221 70.041V71.041H48.8321C49.4321 71.041 49.9221 71.531 49.9221 72.131C49.9221 72.731 50.4121 73.221 51.0121 73.221H51.9221V70.041H47.9221Z" fill="#30404D"/>
<path fill-rule="evenodd" clip-rule="evenodd" d="M18.9221 32.041H80.9221C81.4721 32.041 81.9221 31.591 81.9221 31.041V27.041C81.9221 26.491 81.4721 26.041 80.9221 26.041H49.9221V28.041C49.9221 28.591 49.4721 29.041 48.9221 29.041H17.9221V31.041C17.9221 31.591 18.3721 32.041 18.9221 32.041Z" fill="#182A37"/>
<path fill-rule="evenodd" clip-rule="evenodd" d="M49.9221 23.9415V26.0415H51.9221V24.0415C51.9221 23.9215 51.9121 23.8115 51.8921 23.7015C51.7021 22.5415 49.9221 22.7615 49.9221 23.9415Z" fill="#30404D"/>
<path d="M58.8621 64.8314H50.4221V39.5914C50.4221 38.6814 51.1621 37.9414 52.0721 37.9414H58.8621C59.7721 37.9414 60.5121 38.6814 60.5121 39.5914V63.1914C60.5121 64.0914 59.7721 64.8314 58.8621 64.8314Z" fill="url(#paint1_linear)"/>
<path d="M53.4022 64.8305H44.7522V46.2405C44.7522 45.4505 45.3922 44.8105 46.1822 44.8105H53.3922C54.1822 44.8105 54.8222 45.4505 54.8222 46.2405V63.3905C54.8322 64.1905 54.1922 64.8305 53.4022 64.8305Z" fill="url(#paint2_linear)"/>
<path d="M47.552 64.8306H41.202C40.172 64.8306 39.332 63.9906 39.332 62.9606V53.2606C39.332 52.2306 40.172 51.3906 41.202 51.3906H47.552C48.582 51.3906 49.422 52.2306 49.422 53.2606V62.9606C49.422 64.0006 48.582 64.8306 47.552 64.8306Z" fill="url(#paint3_linear)"/>
<defs>
<linearGradient id="paint0_linear" x1="49.1084" y1="11.8126" x2="52.51" y2="100.821" gradientUnits="userSpaceOnUse">
<stop stop-color="#83B4EF"/>
<stop offset="1" stop-color="#4F89CF"/>
</linearGradient>
<linearGradient id="paint1_linear" x1="55.3536" y1="40.4052" x2="55.5682" y2="62.7161" gradientUnits="userSpaceOnUse">
<stop offset="0.00753769" stop-color="#E0A310"/>
<stop offset="1" stop-color="#CA810E"/>
</linearGradient>
<linearGradient id="paint2_linear" x1="49.5161" y1="45.5897" x2="50.1597" y2="69.1876" gradientUnits="userSpaceOnUse">
<stop offset="0.00753769" stop-color="#F2CC40"/>
<stop offset="1" stop-color="#E7B116"/>
</linearGradient>
<linearGradient id="paint3_linear" x1="44.137" y1="52.4316" x2="44.7806" y2="67.6628" gradientUnits="userSpaceOnUse">
<stop stop-color="#F8E17B"/>
<stop offset="0.5302" stop-color="#F6D856"/>
<stop offset="1" stop-color="#F6D856"/>
</linearGradient>
</defs>
</svg>
