<?xml version="1.0" encoding="UTF-8"?>
<svg width="107px" height="107px" viewBox="0 0 107 107" version="1.1" xmlns="http://www.w3.org/2000/svg" xmlns:xlink="http://www.w3.org/1999/xlink">
    <!-- Generator: Sketch 61.2 (89653) - https://sketch.com -->
    <title>NA/Introduction-to-powerApps </title>
    <desc>Created with Sketch.</desc>
    <defs>
        <rect id="path-1" x="0" y="0" width="96" height="96" rx="48"></rect>
        <rect id="path-3" x="0" y="0" width="100" height="100" rx="50"></rect>
        <filter x="-6.2%" y="-6.5%" width="112.5%" height="112.9%" filterUnits="objectBoundingBox" id="filter-5">
            <feOffset dx="0" dy="2" in="SourceAlpha" result="shadowOffsetOuter1"></feOffset>
            <feColorMatrix values="0 0 0 0 0   0 0 0 0 0   0 0 0 0 0  0 0 0 0.10082654 0" type="matrix" in="shadowOffsetOuter1" result="shadowMatrixOuter1"></feColorMatrix>
            <feMerge>
                <feMergeNode in="shadowMatrixOuter1"></feMergeNode>
                <feMergeNode in="SourceGraphic"></feMergeNode>
            </feMerge>
        </filter>
        <linearGradient x1="78.4210223%" y1="-7.24023438%" x2="15.5786468%" y2="110.793945%" id="linearGradient-6">
            <stop stop-color="#FFFFFF" offset="0%"></stop>
            <stop stop-color="#000000" stop-opacity="0.5" offset="100%"></stop>
        </linearGradient>
        <rect id="path-7" x="-3" y="-3" width="106" height="106" rx="53"></rect>
        <filter x="-0.5%" y="-0.5%" width="101.9%" height="101.9%" filterUnits="objectBoundingBox" id="filter-8">
            <feOffset dx="1" dy="1" in="SourceAlpha" result="shadowOffsetOuter1"></feOffset>
            <feMorphology radius="4" operator="erode" in="SourceAlpha" result="shadowInner"></feMorphology>
            <feOffset dx="1" dy="1" in="shadowInner" result="shadowInner"></feOffset>
            <feComposite in="shadowOffsetOuter1" in2="shadowInner" operator="out" result="shadowOffsetOuter1"></feComposite>
            <feColorMatrix values="0 0 0 0 0   0 0 0 0 0   0 0 0 0 0  0 0 0 0.15 0" type="matrix" in="shadowOffsetOuter1"></feColorMatrix>
        </filter>
    </defs>
    <g id="Badges" stroke="none" stroke-width="1" fill="none" fill-rule="evenodd">
        <g id="N/A-73" transform="translate(-47.000000, -257.000000)">
            <g id="NA/Introduction-to-powerApps-" transform="translate(50.000000, 260.000000)">
                <g id="Mask" transform="translate(2.000000, 2.000000)">
                    <mask id="mask-2" fill="white">
                        <use xlink:href="#path-1"></use>
                    </mask>
                    <use id="BG" fill="#55A2FF" xlink:href="#path-1"></use>
                    <g id="Circle-" mask="url(#mask-2)">
                        <g transform="translate(-2.000000, -2.000000)">
                            <mask id="mask-4" fill="white">
                                <use xlink:href="#path-3"></use>
                            </mask>
                            <g id="BG" stroke="none" fill="none"></g>
                            <g id="Color/Blue" stroke="none" fill="none" mask="url(#mask-4)" fill-rule="evenodd">
                                <rect id="Rectangle" fill="#55A2FF" x="0" y="0" width="100" height="100"></rect>
                            </g>
                        </g>
                    </g>
                    <g id="Screen" filter="url(#filter-5)" mask="url(#mask-2)">
                        <g transform="translate(16.000000, 18.000000)">
                            <path d="M41.414,58.586 L34,51.172 L34,48 C34,46.895 33.104,46 32,46 C30.896,46 30,46.895 30,48 L30,51.172 L22.586,58.586 C21.805,59.367 21.805,60.633 22.586,61.414 C22.977,61.805 23.488,62 24,62 C24.512,62 25.023,61.805 25.414,61.414 L30,56.828 L30,59 C30,60.104 30.896,61 32,61 C33.104,61 34,60.104 34,59 L34,56.828 L38.586,61.414 C38.977,61.805 39.488,62 40,62 C40.512,62 41.023,61.805 41.414,61.414 C42.195,60.633 42.195,59.367 41.414,58.586" id="Fill-1016" fill="#546670"></path>
                            <path d="M62,10 L62,46 C62,47.1 61.1,48 60,48 L4,48 C2.9,48 2,47.1 2,46 L2,10 L62,10" id="Fill-1017" fill="#E1E4E1"></path>
                            <path d="M32,6 C30.896,6 30,5.104 30,4 L30,2 C30,0.895 30.896,0 32,0 C33.104,0 34,0.895 34,2 L34,4 C34,5.104 33.104,6 32,6" id="Fill-1018" fill="#546670"></path>
                            <path d="M64,9 C64,9.55 63.55,10 63,10 L1,10 C0.45,10 0,9.55 0,9 L0,5 C0,4.45 0.45,4 1,4 L63,4 C63.55,4 64,4.45 64,5 L64,9" id="Fill-1019" fill="#30404D"></path>
                            <polygon id="Fill-1020" fill="#C5CCCD" points="2 12 62 12 62 10 2 10"></polygon>
                            <path d="M24.117,59.883 C23.637,60.362 22.815,60.239 22.512,59.631 C22.409,59.425 22.328,59.217 22.271,59.011 C21.834,59.775 21.934,60.762 22.586,61.414 C22.977,61.805 23.488,62 24,62 C24.512,62 25.023,61.805 25.414,61.414 L32,55 L32,52 L24.117,59.883" id="Fill-1022" fill="#30404D"></path>
                            <path d="M39.883,59.883 C40.362,60.362 41.185,60.239 41.488,59.631 C41.591,59.425 41.672,59.217 41.729,59.011 C42.166,59.775 42.066,60.762 41.414,61.414 C41.023,61.805 40.512,62 40,62 C39.488,62 38.977,61.805 38.586,61.414 L32,55 L32,52 L39.883,59.883" id="Fill-1023" fill="#30404D"></path>
                            <path d="M32,54 L32,58.838 C32,59.533 31.31,60.007 30.653,59.78 C30.447,59.709 30.254,59.623 30.078,59.524 C30.325,60.428 31.18,61.081 32.182,60.992 C33.234,60.899 34,59.938 34,58.882 L34,54 L32,54" id="Fill-1024" fill="#30404D"></path>
                            <path d="M30,48 L30,49 L30.914,49 C31.514,49 32,49.486 32,50.086 C32,50.686 32.486,51.172 33.086,51.172 L34,51.172 L34,48 L30,48" id="Fill-1025" fill="#30404D"></path>
                            <path d="M1,10 L63,10 C63.55,10 64,9.55 64,9 L64,5 C64,4.45 63.55,4 63,4 L32,4 L32,6 C32,6.552 31.552,7 31,7 L0,7 L0,9 C0,9.55 0.45,10 1,10" id="Fill-1026" fill="#182A37"></path>
                            <path d="M32,1.903 L32,4 L34,4 L34,2 C34,1.885 33.99,1.773 33.972,1.664 C33.775,0.499 32,0.722 32,1.903" id="Fill-1027" fill="#30404D"></path>
                        </g>
                    </g>
                    <circle id="Oval" fill="#6A236A" mask="url(#mask-2)" cx="48" cy="48" r="14"></circle>
                    <g id="PowerApp" mask="url(#mask-2)" fill="#FFFFFF" fill-rule="nonzero">
                        <g transform="translate(39.000000, 42.000000)">
                            <path d="M10.0886087,8.15600752 L11.3966087,6.84800752 C11.7536173,6.4914164 12.332,6.4914164 12.6890087,6.84800752 L13.9970087,8.15600752 C14.1686275,8.32750877 14.2650519,8.56018497 14.2650519,8.80280752 C14.2650519,9.04543008 14.1686275,9.27810627 13.9970087,9.44960752 L12.6890087,10.7576075 C12.5175074,10.9292264 12.2848312,11.0256507 12.0422087,11.0256507 C11.7995861,11.0256507 11.5669099,10.9292264 11.3954087,10.7576075 L10.0886087,9.44960752 C9.91698982,9.27810627 9.82056547,9.04543008 9.82056547,8.80280752 C9.82056547,8.56018497 9.91698982,8.32750877 10.0886087,8.15600752 L10.0886087,8.15600752 Z" id="Rectangle-path"></path>
                            <path d="M13.3394087,4.90040752 L14.6474087,3.59240752 C15.0044173,3.2358164 15.5828,3.2358164 15.9398087,3.59240752 L17.2478087,4.90040752 C17.4194275,5.07190877 17.5158519,5.30458497 17.5158519,5.54720752 C17.5158519,5.78983008 17.4194275,6.02250627 17.2478087,6.19400752 L15.9398087,7.50200752 C15.7683074,7.67362636 15.5356312,7.77005072 15.2930087,7.77005072 C15.0503861,7.77005072 14.8177099,7.67362636 14.6462087,7.50200752 L13.3382087,6.19400752 C13.1665898,6.02250627 13.0701655,5.78983008 13.0701655,5.54720752 C13.0701655,5.30458497 13.1665898,5.07190877 13.3382087,4.90040752 L13.3394087,4.90040752 Z" id="Rectangle-path"></path>
                            <path d="M10.8782087,5.02640752 L10.3694087,4.51880752 L6.06620866,0.215607521 C5.77865347,-0.0710706954 5.31336385,-0.0710706954 5.02580866,0.215607521 L0.722608662,4.51880752 L0.215008662,5.02640752 C-0.0716695542,5.31396271 -0.0716695542,5.77925233 0.215008662,6.06680752 L0.722608662,6.57440752 L5.02700866,10.8752075 C5.31500866,11.1632075 5.77940866,11.1632075 6.06740866,10.8752075 L10.3706087,6.57440752 L10.8782087,6.06680752 C11.1648869,5.77925233 11.1648869,5.31396271 10.8782087,5.02640752 M5.02820866,7.62680752 L3.86540866,6.46520752 L3.46700866,6.06680752 C3.18033045,5.77925233 3.18033045,5.31396271 3.46700866,5.02640752 L5.02700866,3.46640752 C5.31456385,3.1797293 5.77985347,3.1797293 6.06740866,3.46640752 L7.62740866,5.02640752 C7.91408688,5.31396271 7.91408688,5.77925233 7.62740866,6.06680752 L7.22900866,6.46520752 L6.06740866,7.62680752 C5.77985347,7.91348574 5.31456385,7.91348574 5.02700866,7.62680752" id="Shape"></path>
                            <path d="M12.5630087,4.37600752 L14.1230087,2.81600752 C14.4096869,2.52845233 14.4096869,2.06316271 14.1230087,1.77560752 L12.5630087,0.215607521 C12.2753153,-0.0718691737 11.809102,-0.0718691737 11.5214087,0.215607521 L9.96140866,1.77560752 C9.67473045,2.06316271 9.67473045,2.52845233 9.96140866,2.81600752 L11.5214087,4.37600752 C11.8094087,4.66280752 12.2750087,4.66280752 12.5618087,4.37600752" id="Shape"></path>
                        </g>
                    </g>
                </g>
                <g id="Azure-Border">
                    <path d="M50,0 C74.5263677,-4.50542066e-15 94.9281966,17.6592499 99.1842495,40.9565123 L94.2027317,73.3905473 C85.8096395,89.2186645 69.1638777,100 50,100 C30.9551233,100 14.3971863,89.3521454 5.95457608,73.6848234 L0.0261464987,48.3675131 C0.887696267,21.508872 22.932015,4.97230817e-15 50,0 Z" id="Combined-Shape" fill="url(#linearGradient-6)" fill-rule="evenodd" opacity="0.400000006" style="mix-blend-mode: overlay;"></path>
                    <g>
                        <use fill="black" fill-opacity="1" filter="url(#filter-8)" xlink:href="#path-7"></use>
                        <rect stroke="#F2F1F0" stroke-width="4" stroke-linejoin="square" x="-1" y="-1" width="102" height="102" rx="51"></rect>
                    </g>
                    <rect stroke="#0078D4" stroke-width="4" x="2" y="2" width="96" height="96" rx="48"></rect>
                </g>
            </g>
        </g>
    </g>
</svg>