<svg width="100" height="100" viewBox="0 0 100 100" fill="none" xmlns="http://www.w3.org/2000/svg">
<g clip-path="url(#clip0)">
<path d="M49.6401 96.4481C40.382 96.4481 31.3317 93.7028 23.6339 88.5592C15.936 83.4157 9.93624 76.105 6.3933 67.5516C2.85036 58.9981 1.92337 49.5862 3.72954 40.506C5.53571 31.4257 9.99394 23.085 16.5404 16.5385C23.0869 9.99198 31.4277 5.53376 40.5079 3.72759C49.5882 1.92141 59.0001 2.84841 67.5535 6.39135C76.1069 9.93428 83.4176 15.934 88.5612 23.6319C93.7047 31.3298 96.4501 40.38 96.4501 49.6381C96.4505 55.7854 95.24 61.8726 92.8878 67.5521C90.5355 73.2315 87.0875 78.392 82.7407 82.7388C78.3939 87.0856 73.2335 90.5335 67.554 92.8858C61.8746 95.2381 55.7874 96.4486 49.6401 96.4481V96.4481Z" fill="url(#paint0_linear)"/>
<path fill-rule="evenodd" clip-rule="evenodd" d="M95.54 49.64C95.54 58.7182 92.848 67.5925 87.8045 75.1407C82.7609 82.6889 75.5923 88.572 67.2052 92.0461C58.818 95.5201 49.5891 96.4291 40.6854 94.658C31.7816 92.887 23.603 88.5154 17.1838 82.0962C10.7646 75.677 6.39302 67.4984 4.62196 58.5946C2.85089 49.6909 3.75987 40.462 7.23393 32.0748C10.708 23.6877 16.5911 16.5191 24.1393 11.4755C31.6875 6.43199 40.5618 3.74 49.64 3.74C55.6677 3.73998 61.6363 4.9272 67.2052 7.23388C72.774 9.54057 77.834 12.9215 82.0963 17.1837C86.3585 21.446 89.7394 26.5059 92.0461 32.0748C94.3528 37.6437 95.54 43.6123 95.54 49.64V49.64ZM49.64 3.62732e-07C59.4579 3.62732e-07 69.0553 2.91134 77.2185 8.36585C85.3818 13.8204 91.7442 21.5731 95.5014 30.6436C99.2585 39.7141 100.242 49.6951 98.3262 59.3243C96.4108 68.9535 91.6831 77.7985 84.7408 84.7408C77.7985 91.6831 68.9535 96.4108 59.3243 98.3262C49.6951 100.242 39.7141 99.2585 30.6436 95.5014C21.5731 91.7442 13.8204 85.3818 8.36585 77.2185C2.91134 69.0553 3.62732e-07 59.4579 3.62732e-07 49.64C-0.000787738 43.121 1.28265 36.6656 3.77702 30.6427C6.27138 24.6197 9.9278 19.1471 14.5375 14.5375C19.1471 9.9278 24.6197 6.27138 30.6427 3.77702C36.6656 1.28265 43.121 -0.000787738 49.64 3.62732e-07V3.62732e-07Z" fill="#F2F1F0"/>
<path fill-rule="evenodd" clip-rule="evenodd" d="M92.7296 49.6386C92.7296 58.161 90.2024 66.492 85.4676 73.5781C80.7328 80.6643 74.0031 86.1872 66.1294 89.4486C58.2557 92.71 49.5918 93.5633 41.2331 91.9007C32.8745 90.238 25.1966 86.1341 19.1703 80.1079C13.1441 74.0816 9.04017 66.4037 7.37753 58.0451C5.7149 49.6864 6.56822 41.0225 9.8296 33.1488C13.091 25.2751 18.6139 18.5454 25.7 13.8106C32.7862 9.07581 41.1172 6.54862 49.6396 6.54862C55.2983 6.54828 60.9017 7.6626 66.1298 9.82795C71.3579 11.9933 76.1082 15.1673 80.1096 19.1686C84.1109 23.17 87.2849 27.9203 89.4502 33.1484C91.6156 38.3765 92.7299 43.9799 92.7296 49.6386V49.6386ZM49.6396 2.80862C58.9017 2.80862 67.9558 5.55515 75.6569 10.7009C83.3581 15.8466 89.3604 23.1605 92.9049 31.7176C96.4493 40.2746 97.3767 49.6906 95.5697 58.7747C93.7628 67.8588 89.3027 76.2031 82.7534 82.7524C76.2041 89.3017 67.8598 93.7619 58.7757 95.5688C49.6915 97.3757 40.2756 96.4484 31.7185 92.9039C23.1614 89.3594 15.8476 83.3571 10.7018 75.656C5.5561 67.9548 2.80957 58.9007 2.80957 49.6386C2.81076 37.2189 7.745 25.3082 16.5271 16.5261C25.3091 7.74403 37.2198 2.80979 49.6396 2.80859V2.80862Z" fill="#0078D4"/>
<path fill-rule="evenodd" clip-rule="evenodd" d="M92.7296 49.6386C92.7296 58.161 90.2024 66.492 85.4676 73.5781C80.7328 80.6642 74.0031 86.1872 66.1294 89.4486C58.2557 92.7099 49.5918 93.5633 41.2331 91.9006C32.8745 90.238 25.1966 86.1341 19.1703 80.1078C13.1441 74.0816 9.04017 66.4037 7.37753 58.045C5.7149 49.6864 6.56822 41.0224 9.8296 33.1488C13.091 25.2751 18.6139 18.5454 25.7001 13.8106C32.7862 9.07578 41.1172 6.54859 49.6396 6.54859C55.2983 6.54825 60.9017 7.66257 66.1298 9.82792C71.3579 11.9933 76.1082 15.1673 80.1096 19.1686C84.1109 23.1699 87.2849 27.9203 89.4502 33.1484C91.6156 38.3764 92.7299 43.9798 92.7296 49.6386V49.6386ZM49.6396 2.80859C58.9017 2.80859 67.9558 5.55513 75.6569 10.7009C83.3581 15.8466 89.3604 23.1605 92.9048 31.7175C96.4493 40.2746 97.3767 49.6905 95.5697 58.7747C93.7628 67.8588 89.3027 76.2031 82.7534 82.7524C76.2041 89.3017 67.8598 93.7618 58.7757 95.5688C49.6915 97.3757 40.2756 96.4483 31.7185 92.9039C23.1614 89.3594 15.8476 83.3571 10.7018 75.656C5.5561 67.9548 2.80957 58.9007 2.80957 49.6386C2.81076 37.2189 7.74501 25.3082 16.5271 16.5261C25.3091 7.74403 37.2198 2.80979 49.6396 2.80859V2.80859Z" fill="#0078D4"/>
<path opacity="0.1" d="M49.8359 78.9374C65.6757 78.9374 78.5165 77.8076 78.5165 76.414C78.5165 75.0204 65.6757 73.8906 49.8359 73.8906C33.9961 73.8906 21.1553 75.0204 21.1553 76.414C21.1553 77.8076 33.9961 78.9374 49.8359 78.9374Z" fill="#0F1519"/>
<path fill-rule="evenodd" clip-rule="evenodd" d="M41.7442 36.0391H57.7111C58.3417 36.0771 58.9317 36.363 59.3523 36.8344C59.7729 37.3058 59.9901 37.9244 59.9564 38.5553V47.7803H39.4985V38.5553C39.4649 37.9244 39.6821 37.3058 40.1028 36.8344C40.5235 36.363 41.1135 36.0771 41.7442 36.0391V36.0391ZM41.4945 45.5437H57.9607V38.5553C57.9644 38.4852 57.9402 38.4165 57.8935 38.3641C57.8467 38.3118 57.7811 38.2801 57.7111 38.2759H41.7442C41.6741 38.28 41.6085 38.3117 41.5617 38.3641C41.5149 38.4164 41.4908 38.4852 41.4945 38.5553V45.5437Z" fill="#1F56A3"/>
<path d="M26.2505 53.543V74.1217C26.2488 74.4504 26.3118 74.7763 26.436 75.0806C26.5602 75.385 26.7432 75.6619 26.9744 75.8956C27.2056 76.1293 27.4807 76.3151 27.7837 76.4425C28.0868 76.5698 28.412 76.6362 28.7407 76.6379H70.5247C70.8535 76.6362 71.1786 76.5698 71.4817 76.4424C71.7848 76.315 72.0598 76.1292 72.291 75.8956C72.5223 75.6619 72.7052 75.385 72.8294 75.0806C72.9537 74.7763 73.0167 74.4504 73.015 74.1217V54.0031L49.6327 58.5787L26.2505 53.543Z" fill="#1F56A3"/>
<path d="M70.5252 41.875H28.7409C28.0721 41.8834 27.434 42.1572 26.967 42.636C26.5 43.1148 26.2424 43.7596 26.2507 44.4284V54.7845L49.6329 58.7513L73.0154 54.5894V44.4284C73.0237 43.7596 72.766 43.1149 72.299 42.6361C71.8321 42.1572 71.194 41.8835 70.5252 41.875V41.875Z" fill="#0078D4"/>
<path opacity="0.31" d="M73.0152 55.6823V54.5703L49.633 58.6721L26.2505 54.7629V55.6823L49.633 61.8144" fill="#003067"/>
<path d="M35.0982 41.875H31.6851V76.5409H35.0982V41.875Z" fill="#9CEBFF"/>
<path d="M65.314 41.875H68.7271V76.5409H65.314V41.875Z" fill="#9CEBFF"/>
<path d="M45.5634 50.5664C45.2219 50.5668 44.8945 50.7027 44.6531 50.9441C44.4116 51.1856 44.2758 51.513 44.2754 51.8545V53.4638C44.2754 53.8054 44.4111 54.133 44.6526 54.3746C44.8942 54.6161 45.2218 54.7518 45.5634 54.7518C45.9051 54.7518 46.2327 54.6161 46.4742 54.3746C46.7158 54.133 46.8515 53.8054 46.8515 53.4638V51.8545C46.8511 51.513 46.7152 51.1856 46.4738 50.9441C46.2323 50.7026 45.9049 50.5668 45.5634 50.5664Z" fill="#1B93EB"/>
<path d="M53.7016 47.7031C53.3601 47.7035 53.0327 47.8394 52.7913 48.0808C52.5498 48.3223 52.414 48.6497 52.4136 48.9911V53.464C52.4136 53.8056 52.5493 54.1332 52.7908 54.3748C53.0324 54.6163 53.36 54.752 53.7016 54.752C54.0432 54.752 54.3708 54.6163 54.6124 54.3748C54.854 54.1332 54.9897 53.8056 54.9897 53.464V48.9912C54.9893 48.6497 54.8534 48.3223 54.6119 48.0808C54.3705 47.8394 54.0431 47.7035 53.7016 47.7031V47.7031Z" fill="#1B93EB"/>
<path d="M49.6327 45.5469C49.2913 45.5473 48.9639 45.6831 48.7224 45.9246C48.481 46.166 48.3451 46.4934 48.3447 46.8349V53.4661C48.3447 53.8077 48.4804 54.1353 48.722 54.3769C48.9635 54.6184 49.2912 54.7541 49.6328 54.7541C49.9744 54.7541 50.302 54.6184 50.5436 54.3769C50.7851 54.1353 50.9208 53.8077 50.9208 53.4661V46.8349C50.9204 46.4934 50.7846 46.166 50.5431 45.9246C50.3016 45.6831 49.9742 45.5473 49.6327 45.5469V45.5469Z" fill="#1B93EB"/>
<path d="M41.2388 68.3086H58.0812" stroke="#1B93EB" stroke-width="1.03545" stroke-miterlimit="10"/>
<path d="M39.7472 69.799C40.5708 69.799 41.2385 69.1314 41.2385 68.3077C41.2385 67.4841 40.5708 66.8164 39.7472 66.8164C38.9235 66.8164 38.2559 67.4841 38.2559 68.3077C38.2559 69.1314 38.9235 69.799 39.7472 69.799Z" stroke="#1B93EB" stroke-width="1.03545" stroke-miterlimit="10"/>
<path d="M59.5724 69.799C60.396 69.799 61.0637 69.1314 61.0637 68.3077C61.0637 67.4841 60.396 66.8164 59.5724 66.8164C58.7487 66.8164 58.0811 67.4841 58.0811 68.3077C58.0811 69.1314 58.7487 69.799 59.5724 69.799Z" stroke="#1B93EB" stroke-width="1.03545" stroke-miterlimit="10"/>
<path d="M49.6331 71.696C51.5038 71.696 53.0202 70.1795 53.0202 68.3089C53.0202 66.4383 51.5038 64.9219 49.6331 64.9219C47.7625 64.9219 46.2461 66.4383 46.2461 68.3089C46.2461 70.1795 47.7625 71.696 49.6331 71.696Z" fill="#1F56A3" stroke="#1B93EB" stroke-width="1.03545" stroke-miterlimit="10"/>
<path d="M49.6329 69.799C50.4566 69.799 51.1242 69.1314 51.1242 68.3077C51.1242 67.4841 50.4566 66.8164 49.6329 66.8164C48.8093 66.8164 48.1416 67.4841 48.1416 68.3077C48.1416 69.1314 48.8093 69.799 49.6329 69.799Z" fill="#50E6FF"/>
<path fill-rule="evenodd" clip-rule="evenodd" d="M60.429 14.6758L42.2753 25.2049L38.7578 22.6924C38.6146 22.5901 38.503 22.4496 38.4357 22.287C38.3684 22.1243 38.3481 21.9461 38.3772 21.7725C38.4062 21.5989 38.4834 21.4369 38.6 21.3051C38.7166 21.1732 38.8679 21.0767 39.0366 21.0266L60.429 14.6758Z" fill="white"/>
<path fill-rule="evenodd" clip-rule="evenodd" d="M60.4286 14.6758L51.5244 30.7718C51.4584 30.891 51.3673 30.9945 51.2573 31.0751C51.1474 31.1556 51.0212 31.2113 50.8876 31.2382C50.754 31.2651 50.6161 31.2626 50.4835 31.2309C50.351 31.1992 50.2269 31.1391 50.1199 31.0547L47.1329 28.698L44.0903 26.2941L60.4286 14.6758Z" fill="white"/>
<path fill-rule="evenodd" clip-rule="evenodd" d="M47.1332 28.6969L43.7275 32.1021L44.0906 26.293L47.1332 28.6969Z" fill="#F2F2F2"/>
<path fill-rule="evenodd" clip-rule="evenodd" d="M60.429 14.6758L44.0908 26.2941L43.7277 32.1033L42.2754 25.2049L60.429 14.6758Z" fill="#E8E8E8"/>
<path d="M36.9926 32.1912C36.8776 32.1912 36.7661 32.1515 36.6769 32.0789C36.5877 32.0063 36.5263 31.9051 36.503 31.7924C36.4797 31.6798 36.496 31.5626 36.5491 31.4605C36.6022 31.3585 36.6888 31.2778 36.7944 31.2322L39.5493 30.0432C39.6708 29.992 39.8076 29.9908 39.93 30.0399C40.0524 30.0891 40.1504 30.1846 40.2026 30.3057C40.2549 30.4267 40.2573 30.5635 40.2092 30.6863C40.161 30.8091 40.0664 30.9079 39.9458 30.9612L37.1909 32.1502C37.1283 32.1773 37.0608 32.1912 36.9926 32.1912V32.1912Z" fill="#F2F2F2"/>
<path d="M41.0425 60.2293H35.4712C35.3386 60.2293 35.2114 60.1766 35.1177 60.0828C35.0239 59.9891 34.9712 59.8619 34.9712 59.7293C34.9712 59.5967 35.0239 59.4695 35.1177 59.3757C35.2114 59.282 35.3386 59.2293 35.4712 59.2293H41.0425C41.1751 59.2293 41.3023 59.282 41.3961 59.3757C41.4898 59.4695 41.5425 59.5967 41.5425 59.7293C41.5425 59.8619 41.4898 59.9891 41.3961 60.0828C41.3023 60.1766 41.1751 60.2293 41.0425 60.2293ZM29.8999 60.2093L29.8716 60.2083C27.9322 60.1018 26.0446 59.5428 24.3599 58.576C24.302 58.5439 24.251 58.5006 24.2099 58.4487C24.1689 58.3967 24.1385 58.3371 24.1207 58.2733C24.1029 58.2096 24.0979 58.1429 24.106 58.0772C24.1141 58.0115 24.1352 57.948 24.1681 57.8905C24.2009 57.833 24.2449 57.7826 24.2974 57.7423C24.3499 57.7019 24.4098 57.6723 24.4738 57.6553C24.5378 57.6383 24.6046 57.6342 24.6702 57.6432C24.7358 57.6522 24.7989 57.6742 24.856 57.7078C26.4064 58.5974 28.1435 59.1119 29.9283 59.2103C30.0581 59.2177 30.18 59.2755 30.2679 59.3713C30.3559 59.4672 30.403 59.5935 30.3994 59.7235C30.3957 59.8536 30.3414 59.977 30.2482 60.0677C30.155 60.1584 30.03 60.2092 29.8999 60.2093V60.2093ZM20.5631 54.8836C20.4811 54.8837 20.4004 54.8636 20.328 54.8251C20.2556 54.7866 20.1938 54.7309 20.1481 54.6629C19.0647 53.0509 18.368 51.2107 18.1119 49.2855C18.0952 49.1541 18.1312 49.0215 18.212 48.9166C18.2929 48.8118 18.412 48.7432 18.5433 48.726C18.6746 48.7089 18.8073 48.7444 18.9125 48.8249C19.0176 48.9054 19.0865 49.0243 19.1041 49.1556C19.3392 50.9275 19.9805 52.6211 20.9781 54.1043C21.0286 54.1796 21.0578 54.2672 21.0624 54.3577C21.067 54.4483 21.0469 54.5384 21.0043 54.6184C20.9617 54.6984 20.8981 54.7654 20.8204 54.8121C20.7427 54.8588 20.6537 54.8835 20.5631 54.8836V54.8836ZM19.1519 44.2264C19.0971 44.2265 19.0426 44.2174 18.9908 44.1995C18.9286 44.1784 18.8712 44.1453 18.8218 44.102C18.7725 44.0586 18.7321 44.006 18.7031 43.9471C18.6741 43.8882 18.6569 43.8242 18.6527 43.7587C18.6484 43.6931 18.6571 43.6274 18.6783 43.5653C19.3073 41.7281 20.3501 40.06 21.7261 38.6898C21.8203 38.5963 21.9477 38.544 22.0804 38.5445C22.2131 38.5449 22.3402 38.5981 22.4337 38.6922C22.5272 38.7864 22.5794 38.9138 22.579 39.0465C22.5785 39.1792 22.5253 39.3063 22.4312 39.3998C21.1638 40.6604 20.2038 42.1961 19.6255 43.8876C19.5917 43.9863 19.5279 44.0721 19.443 44.1328C19.3581 44.1936 19.2563 44.2263 19.1519 44.2264V44.2264ZM26.7632 36.6087C26.6482 36.6087 26.5367 36.569 26.4475 36.4964C26.3583 36.4237 26.2969 36.3226 26.2736 36.2099C26.2503 36.0973 26.2666 35.9801 26.3197 35.878C26.3728 35.776 26.4594 35.6953 26.565 35.6497L31.6802 33.4412C31.7406 33.4145 31.8057 33.4 31.8717 33.3986C31.9377 33.3971 32.0034 33.4088 32.0649 33.4329C32.1264 33.4569 32.1825 33.493 32.23 33.5388C32.2775 33.5847 32.3154 33.6396 32.3416 33.7002C32.3678 33.7608 32.3817 33.826 32.3825 33.8921C32.3834 33.9581 32.3711 34.0236 32.3465 34.0849C32.3219 34.1462 32.2853 34.202 32.239 34.249C32.1927 34.2961 32.1376 34.3336 32.0767 34.3592L26.9615 36.5677C26.8989 36.5948 26.8314 36.6087 26.7632 36.6087V36.6087Z" fill="#F2F2F2"/>
<path d="M49.6401 60.2266H46.6401C46.5075 60.2266 46.3804 60.1739 46.2866 60.0801C46.1928 59.9863 46.1401 59.8592 46.1401 59.7266C46.1401 59.594 46.1928 59.4668 46.2866 59.373C46.3804 59.2792 46.5075 59.2266 46.6401 59.2266H49.6401C49.7727 59.2266 49.8999 59.2792 49.9937 59.373C50.0875 59.4668 50.1401 59.594 50.1401 59.7266C50.1401 59.8592 50.0875 59.9863 49.9937 60.0801C49.8999 60.1739 49.7727 60.2266 49.6401 60.2266Z" fill="#F2F2F2"/>
</g>
<defs>
<linearGradient id="paint0_linear" x1="47.8698" y1="-15.155" x2="51.8525" y2="130.613" gradientUnits="userSpaceOnUse">
<stop stop-color="#00ABDE"/>
<stop offset="1" stop-color="#007ED8"/>
</linearGradient>
<clipPath id="clip0">
<rect width="99.2799" height="99.28" fill="white"/>
</clipPath>
</defs>
</svg>
