<?xml version="1.0" encoding="UTF-8"?>
<svg width="107px" height="107px" viewBox="0 0 107 107" version="1.1" xmlns="http://www.w3.org/2000/svg" xmlns:xlink="http://www.w3.org/1999/xlink">
    <!-- Generator: Sketch 61.2 (89653) - https://sketch.com -->
    <title>NA/Introduction-to-power-bi </title>
    <desc>Created with Sketch.</desc>
    <defs>
        <rect id="path-1" x="0" y="0" width="96" height="96" rx="48"></rect>
        <rect id="path-3" x="0" y="0" width="100" height="100" rx="50"></rect>
        <filter x="-6.2%" y="-6.5%" width="112.5%" height="112.9%" filterUnits="objectBoundingBox" id="filter-5">
            <feOffset dx="0" dy="2" in="SourceAlpha" result="shadowOffsetOuter1"></feOffset>
            <feColorMatrix values="0 0 0 0 0   0 0 0 0 0   0 0 0 0 0  0 0 0 0.10082654 0" type="matrix" in="shadowOffsetOuter1" result="shadowMatrixOuter1"></feColorMatrix>
            <feMerge>
                <feMergeNode in="shadowMatrixOuter1"></feMergeNode>
                <feMergeNode in="SourceGraphic"></feMergeNode>
            </feMerge>
        </filter>
        <linearGradient x1="78.4210223%" y1="-7.24023438%" x2="15.5786468%" y2="110.793945%" id="linearGradient-6">
            <stop stop-color="#FFFFFF" offset="0%"></stop>
            <stop stop-color="#000000" stop-opacity="0.5" offset="100%"></stop>
        </linearGradient>
        <rect id="path-7" x="-3" y="-3" width="106" height="106" rx="53"></rect>
        <filter x="-0.5%" y="-0.5%" width="101.9%" height="101.9%" filterUnits="objectBoundingBox" id="filter-8">
            <feOffset dx="1" dy="1" in="SourceAlpha" result="shadowOffsetOuter1"></feOffset>
            <feMorphology radius="4" operator="erode" in="SourceAlpha" result="shadowInner"></feMorphology>
            <feOffset dx="1" dy="1" in="shadowInner" result="shadowInner"></feOffset>
            <feComposite in="shadowOffsetOuter1" in2="shadowInner" operator="out" result="shadowOffsetOuter1"></feComposite>
            <feColorMatrix values="0 0 0 0 0   0 0 0 0 0   0 0 0 0 0  0 0 0 0.15 0" type="matrix" in="shadowOffsetOuter1"></feColorMatrix>
        </filter>
    </defs>
    <g id="Badges" stroke="none" stroke-width="1" fill="none" fill-rule="evenodd">
        <g id="N/A-73" transform="translate(-47.000000, -1257.000000)">
            <g id="NA/Introduction-to-power-bi-" transform="translate(50.000000, 1260.000000)">
                <g id="Mask" transform="translate(2.000000, 2.000000)">
                    <mask id="mask-2" fill="white">
                        <use xlink:href="#path-1"></use>
                    </mask>
                    <use id="BG" fill="#55A2FF" xlink:href="#path-1"></use>
                    <g id="Circle-" mask="url(#mask-2)">
                        <g transform="translate(-2.000000, -2.000000)">
                            <mask id="mask-4" fill="white">
                                <use xlink:href="#path-3"></use>
                            </mask>
                            <g id="BG" stroke="none" fill="none"></g>
                            <g id="Color/Blue" stroke="none" fill="none" mask="url(#mask-4)" fill-rule="evenodd">
                                <rect id="Rectangle" fill="#55A2FF" x="0" y="0" width="100" height="100"></rect>
                            </g>
                        </g>
                    </g>
                    <g id="Screen" filter="url(#filter-5)" mask="url(#mask-2)">
                        <g transform="translate(16.000000, 18.000000)">
                            <path d="M41.414,58.586 L34,51.172 L34,48 C34,46.895 33.104,46 32,46 C30.896,46 30,46.895 30,48 L30,51.172 L22.586,58.586 C21.805,59.367 21.805,60.633 22.586,61.414 C22.977,61.805 23.488,62 24,62 C24.512,62 25.023,61.805 25.414,61.414 L30,56.828 L30,59 C30,60.104 30.896,61 32,61 C33.104,61 34,60.104 34,59 L34,56.828 L38.586,61.414 C38.977,61.805 39.488,62 40,62 C40.512,62 41.023,61.805 41.414,61.414 C42.195,60.633 42.195,59.367 41.414,58.586" id="Fill-1016" fill="#546670"></path>
                            <path d="M62,10 L62,46 C62,47.1 61.1,48 60,48 L4,48 C2.9,48 2,47.1 2,46 L2,10 L62,10" id="Fill-1017" fill="#E1E4E1"></path>
                            <g id="powerbi_icon" opacity="0.800000012" stroke-width="1" fill="none" transform="translate(13.500000, 15.000000)">
                                <path d="M32.5908667,23.9385028 L31.8456722,23.9385028 L31.8456722,22.4481139 L32.5908667,22.4481139 C34.1738307,22.4461991 35.4565991,21.1634307 35.4585139,19.5804667 L35.4585139,4.35803611 C35.4568119,2.77492129 34.1739812,1.49191795 32.5908667,1.49000278 L4.35765,1.49000278 C2.77453542,1.49191795 1.49170481,2.77492129 1.49000278,4.35803611 L1.49000278,19.581625 C1.49191753,21.164589 2.77468596,22.4473575 4.35765,22.4492722 L5.10284444,22.4492722 L5.10284444,23.9396611 L4.35765,23.9396611 C1.95207058,23.9366823 0.0027656386,21.9872047 1.13686838e-13,19.581625 L1.13686838e-13,4.35803611 C0.00276606587,1.9523059 1.9523059,0.00276606587 4.35803611,0 L32.5908667,0 C34.9965969,0.00276606587 36.9461367,1.9523059 36.9489028,4.35803611 L36.9489028,19.581625 C36.9461367,21.9873552 34.9965969,23.936895 32.5908667,23.9396611" id="Path" fill="#ECBA0F"></path>
                                <path d="M8.93461111,18.949175 L8.93461111,18.949175 C9.4708958,18.949175 9.98521566,19.1622133 10.3644262,19.5414238 C10.7436367,19.9206343 10.956675,20.4349542 10.956675,20.9712389 L10.956675,25.6343028 C10.956675,26.7512711 10.0511933,27.6567529 8.934225,27.6567529 L8.934225,27.6567529 C8.39780653,27.6569576 7.88328826,27.4440098 7.50391069,27.0647771 C7.12453311,26.6855443 6.91138889,26.1711074 6.91138889,25.6346889 L6.91138889,20.971625 C6.91138889,19.8546567 7.8168706,18.949175 8.93383889,18.949175 L8.93461111,18.949175 Z" id="Path" fill="#ECBA0F"></path>
                                <path d="M15.2950194,27.6571389 C14.1779887,27.6571389 13.2723965,26.7517196 13.2721833,25.6346889 L13.2721833,13.6652444 C13.2721833,12.5481695 14.1777515,11.6426014 15.2948264,11.6426014 C16.4119013,11.6426014 17.3174694,12.5481695 17.3174694,13.6652444 L17.3174694,25.6346889 C17.3174694,26.7517197 16.4120502,27.6573118 15.2950194,27.657525" id="Path" fill="#ECBA0F"></path>
                                <path d="M28.0150639,27.5980639 C26.8980331,27.5980639 25.992441,26.6926446 25.9922278,25.5756139 L25.9922278,8.62533611 C25.9922278,7.5082612 26.8977959,6.60269306 28.0148708,6.60269306 C29.1319457,6.60269306 30.0375139,7.5082612 30.0375139,8.62533611 L30.0375139,25.5756139 C30.0375139,26.6926447 29.1320946,27.5982368 28.0150639,27.59845" id="Path" fill="#ECBA0F"></path>
                                <path d="M21.6550417,27.6571389 C20.5380109,27.6571389 19.6324188,26.7517196 19.6322056,25.6346889 L19.6322056,16.7429361 C19.6322056,15.6258612 20.5377737,14.7202931 21.6548486,14.7202931 C22.7719235,14.7202931 23.6774917,15.6258612 23.6774917,16.7429361 L23.6774917,25.6346889 C23.6774917,26.7517197 22.7720724,27.6573118 21.6550417,27.657525" id="Path" fill="#ECBA0F"></path>
                            </g>
                            <path d="M32,6 C30.896,6 30,5.104 30,4 L30,2 C30,0.895 30.896,0 32,0 C33.104,0 34,0.895 34,2 L34,4 C34,5.104 33.104,6 32,6" id="Fill-1018" fill="#546670"></path>
                            <path d="M64,9 C64,9.55 63.55,10 63,10 L1,10 C0.45,10 0,9.55 0,9 L0,5 C0,4.45 0.45,4 1,4 L63,4 C63.55,4 64,4.45 64,5 L64,9" id="Fill-1019" fill="#30404D"></path>
                            <polygon id="Fill-1020" fill="#C5CCCD" points="2 12 62 12 62 10 2 10"></polygon>
                            <path d="M24.117,59.883 C23.637,60.362 22.815,60.239 22.512,59.631 C22.409,59.425 22.328,59.217 22.271,59.011 C21.834,59.775 21.934,60.762 22.586,61.414 C22.977,61.805 23.488,62 24,62 C24.512,62 25.023,61.805 25.414,61.414 L32,55 L32,52 L24.117,59.883" id="Fill-1022" fill="#30404D"></path>
                            <path d="M39.883,59.883 C40.362,60.362 41.185,60.239 41.488,59.631 C41.591,59.425 41.672,59.217 41.729,59.011 C42.166,59.775 42.066,60.762 41.414,61.414 C41.023,61.805 40.512,62 40,62 C39.488,62 38.977,61.805 38.586,61.414 L32,55 L32,52 L39.883,59.883" id="Fill-1023" fill="#30404D"></path>
                            <path d="M32,54 L32,58.838 C32,59.533 31.31,60.007 30.653,59.78 C30.447,59.709 30.254,59.623 30.078,59.524 C30.325,60.428 31.18,61.081 32.182,60.992 C33.234,60.899 34,59.938 34,58.882 L34,54 L32,54" id="Fill-1024" fill="#30404D"></path>
                            <path d="M30,48 L30,49 L30.914,49 C31.514,49 32,49.486 32,50.086 C32,50.686 32.486,51.172 33.086,51.172 L34,51.172 L34,48 L30,48" id="Fill-1025" fill="#30404D"></path>
                            <path d="M1,10 L63,10 C63.55,10 64,9.55 64,9 L64,5 C64,4.45 63.55,4 63,4 L32,4 L32,6 C32,6.552 31.552,7 31,7 L0,7 L0,9 C0,9.55 0.45,10 1,10" id="Fill-1026" fill="#182A37"></path>
                            <path d="M32,1.903 L32,4 L34,4 L34,2 C34,1.885 33.99,1.773 33.972,1.664 C33.775,0.499 32,0.722 32,1.903" id="Fill-1027" fill="#30404D"></path>
                        </g>
                    </g>
                </g>
                <g id="Azure-Border">
                    <path d="M50,0 C74.5263677,-4.50542066e-15 94.9281966,17.6592499 99.1842495,40.9565123 L94.2027317,73.3905473 C85.8096395,89.2186645 69.1638777,100 50,100 C30.9551233,100 14.3971863,89.3521454 5.95457608,73.6848234 L0.0261464987,48.3675131 C0.887696267,21.508872 22.932015,4.97230817e-15 50,0 Z" id="Combined-Shape" fill="url(#linearGradient-6)" fill-rule="evenodd" opacity="0.400000006" style="mix-blend-mode: overlay;"></path>
                    <g>
                        <use fill="black" fill-opacity="1" filter="url(#filter-8)" xlink:href="#path-7"></use>
                        <rect stroke="#F2F1F0" stroke-width="4" stroke-linejoin="square" x="-1" y="-1" width="102" height="102" rx="51"></rect>
                    </g>
                    <rect stroke="#0078D4" stroke-width="4" x="2" y="2" width="96" height="96" rx="48"></rect>
                </g>
            </g>
        </g>
    </g>
</svg>