<?xml version="1.0" encoding="UTF-8"?>
<svg width="100px" height="100px" viewBox="0 0 100 100" version="1.1" xmlns="http://www.w3.org/2000/svg" xmlns:xlink="http://www.w3.org/1999/xlink">
    <!-- Generator: Sketch 52.5 (67469) - http://www.bohemiancoding.com/sketch -->
    <title>Work with Dynamics for Marketing/lead-lifecycle</title>
    <desc>Created with Sketch.</desc>
    <defs>
        <rect id="path-1" x="0" y="0" width="96" height="96" rx="48"></rect>
        <filter x="-14.3%" y="-14.3%" width="128.6%" height="128.6%" filterUnits="objectBoundingBox" id="filter-3">
            <feOffset dx="0" dy="2" in="SourceAlpha" result="shadowOffsetOuter1"></feOffset>
            <feColorMatrix values="0 0 0 0 0   0 0 0 0 0   0 0 0 0 0  0 0 0 0.0964956975 0" type="matrix" in="shadowOffsetOuter1" result="shadowMatrixOuter1"></feColorMatrix>
            <feMerge>
                <feMergeNode in="shadowMatrixOuter1"></feMergeNode>
                <feMergeNode in="SourceGraphic"></feMergeNode>
            </feMerge>
        </filter>
        <polygon id="path-4" points="0.000424623868 0.0169849547 27.1763522 0.0169849547 27.1763522 27.1759276 0.000424623868 27.1759276"></polygon>
        <polygon id="path-6" points="0.000424623868 0.0169849547 13.5883884 0.0169849547 13.5883884 27.1759276 0.000424623868 27.1759276"></polygon>
    </defs>
    <g id="Badges" stroke="none" stroke-width="1" fill="none" fill-rule="evenodd">
        <g id="Work-with-Dynamics-for-Marketing" transform="translate(-50.000000, -460.000000)">
            <g id="Work-with-Dynamics-for-Marketing/lead-lifecycle" transform="translate(50.000000, 460.000000)">
                <g id="Mask" transform="translate(2.000000, 2.000000)">
                    <mask id="mask-2" fill="white">
                        <use xlink:href="#path-1"></use>
                    </mask>
                    <use id="BG" fill="#01B6C3" xlink:href="#path-1"></use>
                    <path d="M76.9407439,45.7381149 C76.5372405,45.133222 75.8596695,44.7705478 75.1334627,44.7705478 C74.4072559,44.7705478 73.7296849,45.133222 73.3263348,45.737885 L66.9825735,55.2535265 C66.5381491,55.9212506 66.496514,56.7790952 66.8739584,57.4848157 C67.2518879,58.1899946 67.9886298,58.6309935 68.7892844,58.6309935 L71.822258,58.6309935 L71.0363813,60.1021658 C66.5589347,68.4840089 57.8163875,73.8480316 48.2013686,73.8480316 C33.9311349,73.8480316 22.3226734,62.2538747 22.3226734,48 C22.3226734,33.7461253 33.9311349,22.1519684 48.2013686,22.1519684 C58.8566712,22.1519684 68.2990993,28.5405787 72.2495037,38.4231895 C72.6934213,39.5365985 73.9585734,40.0787745 75.0719835,39.63399 C76.1855788,39.1886967 76.7278142,37.9243768 76.2826136,36.8110133 C71.667619,25.265337 60.6482975,17.8077901 48.2013686,17.8077901 C31.5367648,17.8077901 17.9784952,31.3530641 17.9784952,48 C17.9784952,64.6476231 31.5363942,78.1922099 48.2013686,78.1922099 C60.5769926,78.1922099 71.6561196,70.5909467 76.2386145,59.2561794 L76.4913688,58.6309935 L81.477641,58.6309935 C82.2782957,58.6309935 83.0150375,58.1899946 83.3925641,57.4855682 C83.7703579,56.7791952 83.7287881,55.9214935 83.2845407,55.2538102 L76.9407439,45.7381149 Z" id="Path" fill="#FFFFFF" fill-rule="nonzero" mask="url(#mask-2)"></path>
                    <g id="User" mask="url(#mask-2)" fill="#2A5254">
                        <g transform="translate(21.602382, 21.602382)" id="Path">
                            <path d="M26.3976187,28.4274543 C32.004097,28.4274543 36.5516734,23.8823147 36.5516734,18.2758364 C36.5516734,12.6669822 32.0041579,8.12178168 26.3976187,8.12178168 C20.7910794,8.12178168 16.243564,12.6669213 16.243564,18.2758364 C16.243564,23.8823147 20.7910794,28.4274543 26.3976187,28.4274543 Z"></path>
                            <path d="M7.29388691,37.9796248 C11.2108251,44.4261214 18.3020323,48.7355637 26.3976187,48.7355637 C34.493205,48.7355637 41.5848387,44.4259996 45.5013504,37.9796248 C45.4775553,37.801149 45.4085457,37.6274372 45.287182,37.4775144 C42.7837579,34.3482648 38.8218003,32.4897341 33.5053595,32.4897341 L19.2891956,32.4897341 C13.9729984,32.4897341 10.0111626,34.3482648 7.50737304,37.4775144 C7.38600931,37.6274311 7.31699975,37.801149 7.29320461,37.9796248 L7.29388691,37.9796248 Z"></path>
                        </g>
                    </g>
                    <g id="Clock" filter="url(#filter-3)" mask="url(#mask-2)">
                        <g transform="translate(13.978495, 50.192210)">
                            <path d="M25.4778567,13.5879638 C25.4778567,20.1543473 20.1547719,25.4774321 13.5883884,25.4774321 C7.02200491,25.4774321 1.6989201,20.1543473 1.6989201,13.5879638 C1.6989201,7.02158028 7.02200491,1.69849547 13.5883884,1.69849547 C20.1547719,1.69849547 25.4778567,7.02158028 25.4778567,13.5879638" id="Fill-29" fill="#E1E4E1"></path>
                            <g id="Group-33" stroke-width="1" fill="none">
                                <mask id="mask-5" fill="white">
                                    <use xlink:href="#path-4"></use>
                                </mask>
                                <g id="Clip-31"></g>
                                <path d="M14.3467666,1.72227441 C7.43686243,1.2934043 1.6989201,6.77062758 1.6989201,13.5879638 C1.6989201,13.8015496 1.70528945,14.0138615 1.71632967,14.2248996 C2.01186789,8.62368614 6.18422201,4.05006245 11.5998748,3.13797038 C12.6385048,2.96302535 13.5883884,3.76131822 13.5883884,4.81481004 L13.5883884,25.4774321 C20.4057246,25.4774321 25.8833725,19.7394898 25.4540778,12.8291609 C25.0863535,6.90820571 20.2677218,2.08957405 14.3467666,1.72227441" id="Fill-30" fill="#C5CCCD" mask="url(#mask-5)"></path>
                                <path d="M13.5883884,1.69849547 C7.03219588,1.69849547 1.6989201,7.03219588 1.6989201,13.5879638 C1.6989201,20.1441563 7.03219588,25.4774321 13.5883884,25.4774321 C20.1441563,25.4774321 25.4778567,20.1441563 25.4778567,13.5879638 C25.4778567,7.03219588 20.1441563,1.69849547 13.5883884,1.69849547 Z M13.5883884,27.1759276 C6.09590025,27.1759276 0.000424623868,21.0804519 0.000424623868,13.5879638 C0.000424623868,6.09547563 6.09590025,0 13.5883884,0 C21.0808766,0 27.1763522,6.09547563 27.1763522,13.5879638 C27.1763522,21.0804519 21.0808766,27.1759276 13.5883884,27.1759276 Z" id="Fill-32" fill="#546670" mask="url(#mask-5)"></path>
                            </g>
                            <path d="M13.5883884,14.4372115 C13.119179,14.4372115 12.7391407,14.0567485 12.7391407,13.5879638 C12.7391407,13.5879638 13.119179,7.21860576 13.5883884,7.21860576 C14.0571732,7.21860576 14.4376361,13.5879638 14.4376361,13.5879638 C14.4376361,14.0567485 14.0571732,14.4372115 13.5883884,14.4372115" id="Fill-34" fill="#DF5142"></path>
                            <path d="M13.5883884,12.738716 C13.8057958,12.738716 14.0232032,12.8215177 14.1888066,12.9875456 C14.1888066,12.9875456 19.4401299,18.7764428 19.1084987,19.1080741 C18.7772921,19.4397053 12.9879703,14.1883819 12.9879703,14.1883819 C12.656339,13.8567507 12.656339,13.3191769 12.9879703,12.9875456 C13.1535736,12.8215177 13.370981,12.738716 13.5883884,12.738716" id="Fill-35" fill="#DF5142"></path>
                            <path d="M23.7793612,13.5879638 C23.7793612,14.0567485 23.3988982,14.4372115 22.9301135,14.4372115 C22.4609041,14.4372115 22.0808658,14.0567485 22.0808658,13.5879638 C22.0808658,13.119179 22.4609041,12.738716 22.9301135,12.738716 C23.3988982,12.738716 23.7793612,13.119179 23.7793612,13.5879638" id="Fill-36" fill="#AAB0B1"></path>
                            <path d="M5.09591104,13.5879638 C5.09591104,14.0567485 4.71544805,14.4372115 4.2466633,14.4372115 C3.77745393,14.4372115 3.39741557,14.0567485 3.39741557,13.5879638 C3.39741557,13.119179 3.77745393,12.738716 4.2466633,12.738716 C4.71544805,12.738716 5.09591104,13.119179 5.09591104,13.5879638" id="Fill-37" fill="#AAB0B1"></path>
                            <path d="M13.5883884,23.7789366 C13.119179,23.7789366 12.7391407,23.3984736 12.7391407,22.9296889 C12.7391407,22.4609041 13.119179,22.0804411 13.5883884,22.0804411 C14.0571732,22.0804411 14.4376361,22.4609041 14.4376361,22.9296889 C14.4376361,23.3984736 14.0571732,23.7789366 13.5883884,23.7789366" id="Fill-38" fill="#AAB0B1"></path>
                            <path d="M13.5883884,5.09548642 C13.119179,5.09548642 12.7391407,4.71502343 12.7391407,4.24623868 C12.7391407,3.77745393 13.119179,3.39699094 13.5883884,3.39699094 C14.0571732,3.39699094 14.4376361,3.77745393 14.4376361,4.24623868 C14.4376361,4.71502343 14.0571732,5.09548642 13.5883884,5.09548642" id="Fill-39" fill="#AAB0B1"></path>
                            <path d="M20.7946801,20.7942554 C20.4626242,21.1258867 19.9250504,21.1258867 19.5934191,20.7942554 C19.2617879,20.4626242 19.2617879,19.9246258 19.5934191,19.5934191 C19.9250504,19.2613633 20.4626242,19.2613633 20.7946801,19.5934191 C21.1258867,19.9246258 21.1258867,20.4626242 20.7946801,20.7942554" id="Fill-40" fill="#AAB0B1"></path>
                            <path d="M7.58335766,7.58250841 C7.25172642,7.91456428 6.71372798,7.91456428 6.38209674,7.58250841 C6.0504655,7.25130179 6.0504655,6.71372798 6.38209674,6.38167211 C6.71372798,6.05004087 7.25172642,6.05004087 7.58335766,6.38167211 C7.91456428,6.71372798 7.91456428,7.25130179 7.58335766,7.58250841" id="Fill-41" fill="#AAB0B1"></path>
                            <path d="M6.38209674,20.7942554 C6.0504655,20.4626242 6.0504655,19.9246258 6.38209674,19.5934191 C6.71372798,19.2613633 7.25172642,19.2613633 7.58335766,19.5934191 C7.91456428,19.9246258 7.91456428,20.4626242 7.58335766,20.7942554 C7.25172642,21.1258867 6.71372798,21.1258867 6.38209674,20.7942554" id="Fill-42" fill="#AAB0B1"></path>
                            <g id="Group-46" stroke-width="1" fill="none" transform="translate(13.587964, 0.000000)">
                                <mask id="mask-7" fill="white">
                                    <use xlink:href="#path-6"></use>
                                </mask>
                                <g id="Clip-44"></g>
                                <path d="M6.00545537,7.58250841 C5.67382412,7.25130179 5.67382412,6.71372798 6.00545537,6.38167211 C6.33708661,6.05004087 6.87466042,6.05004087 7.20671629,6.38167211 C7.53792291,6.71372798 7.53792291,7.25130179 7.20671629,7.58250841 C6.87466042,7.91456428 6.33708661,7.91456428 6.00545537,7.58250841" id="Fill-43" fill="#AAB0B1" mask="url(#mask-7)"></path>
                                <path d="M11.8898929,13.5879638 C11.8898929,20.1441563 6.55619252,25.4774321 0.000424623868,25.4774321 L0.000424623868,27.1759276 C7.49291278,27.1759276 13.5883884,21.0804519 13.5883884,13.5879638 C13.5883884,6.09547563 7.49291278,0 0.000424623868,0 L0.000424623868,1.69849547 C6.55619252,1.69849547 11.8898929,7.03219588 11.8898929,13.5879638" id="Fill-45" fill="#30404D" mask="url(#mask-7)"></path>
                            </g>
                            <path d="M14.4376361,13.5879638 C14.4376361,13.5879638 14.0571732,7.21860576 13.5883884,7.21860576 L13.5883884,14.4372115 C14.0571732,14.4372115 14.4376361,14.0567485 14.4376361,13.5879638" id="Fill-47" fill="#C2423D"></path>
                            <path d="M12.9879703,14.1883819 C12.9879703,14.1883819 18.7772921,19.4397053 19.1084987,19.1080741 L12.9879703,12.9875456 C12.656339,13.3191769 12.656339,13.8567507 12.9879703,14.1883819" id="Fill-48" fill="#C2423D"></path>
                            <path d="M14.86226,13.5879638 C14.86226,14.2911409 14.2919902,14.8618354 13.5883884,14.8618354 C12.8847867,14.8618354 12.3145168,14.2911409 12.3145168,13.5879638 C12.3145168,12.8847867 12.8847867,12.3140922 13.5883884,12.3140922 C14.2919902,12.3140922 14.86226,12.8847867 14.86226,13.5879638" id="Fill-49" fill="#30404D"></path>
                            <path d="M14.2482539,12.5034744 C14.3658747,12.6962537 14.4376361,12.9208797 14.4376361,13.1633399 C14.4376361,13.866517 13.8673663,14.4372115 13.1637645,14.4372115 C12.9213043,14.4372115 12.6966783,14.3658747 12.503899,14.2478293 C12.7272512,14.6147043 13.1276715,14.8618354 13.5883884,14.8618354 C14.2919902,14.8618354 14.86226,14.2911409 14.86226,13.5879638 C14.86226,13.1272469 14.6151289,12.7272512 14.2482539,12.5034744" id="Fill-50" fill="#182A37"></path>
                        </g>
                    </g>
                </g>
                <g id="Dynamic-Border" stroke="#1D8E96" stroke-width="4">
                    <rect id="Azure-Border" x="2" y="2" width="96" height="96" rx="48"></rect>
                </g>
            </g>
        </g>
    </g>
</svg>