<svg width="103" height="103" viewBox="0 0 103 103" fill="none" xmlns="http://www.w3.org/2000/svg">
<path d="M51.2121 98.0575C25.3621 98.0575 4.4021 77.1075 4.4021 51.2475C4.4021 25.3875 25.3621 4.4375 51.2121 4.4375C77.0621 4.4375 98.0221 25.3975 98.0221 51.2475C98.0221 77.0975 77.0621 98.0575 51.2121 98.0575Z" fill="url(#paint0_linear)"/>
<path fill-rule="evenodd" clip-rule="evenodd" d="M97.1123 51.2475C97.1123 76.5975 76.5623 97.1475 51.2123 97.1475C25.8623 97.1475 5.31227 76.5975 5.31227 51.2475C5.31227 25.8975 25.8623 5.34754 51.2123 5.34754C76.5623 5.34754 97.1123 25.8975 97.1123 51.2475ZM51.2123 1.60754C78.6323 1.60754 100.852 23.8275 100.852 51.2475C100.852 78.6675 78.6223 100.888 51.2123 100.888C23.7923 100.888 1.57227 78.6575 1.57227 51.2475C1.57227 23.8275 23.7923 1.60754 51.2123 1.60754Z" fill="#F2F1F0"/>
<path fill-rule="evenodd" clip-rule="evenodd" d="M94.3021 51.2476C94.3021 75.0476 75.0121 94.3376 51.2121 94.3376C27.4121 94.3376 8.12208 75.0476 8.12208 51.2476C8.12208 27.4476 27.4121 8.1576 51.2121 8.1576C75.0121 8.1576 94.3021 27.4476 94.3021 51.2476ZM51.2121 4.4176C77.0721 4.4176 98.0421 25.3876 98.0421 51.2476C98.0421 77.1076 77.0721 98.0776 51.2121 98.0776C25.3521 98.0776 4.38208 77.1076 4.38208 51.2476C4.38208 25.3876 25.3421 4.4176 51.2121 4.4176Z" fill="#0078D4"/>
<path d="M21.5222 75.0276H80.6022V29.5376H21.5222V75.0276Z" fill="#D5F9FD"/>
<path d="M21.5222 34.4476H80.5822V28.2876H21.5222V34.4476Z" fill="#50E6FF"/>
<path d="M26.0623 33.0076C26.8923 33.0076 27.5623 32.3376 27.5623 31.5076C27.5623 30.6776 26.8923 30.0076 26.0623 30.0076C25.2323 30.0076 24.5623 30.6776 24.5623 31.5076C24.5623 32.3376 25.2323 33.0076 26.0623 33.0076Z" fill="#45CAF2"/>
<path d="M75.912 61.8275L73.832 59.6875C73.552 59.3975 73.082 59.4075 72.812 59.7175L64.042 69.7375C63.652 70.1875 63.652 70.8475 64.042 71.2975L72.732 81.2875C73.062 81.6575 73.642 81.6575 73.972 81.2875L76.572 78.2875L76.862 62.8675L75.912 61.8275Z" fill="url(#paint1_linear)"/>
<path d="M86.122 69.2875L77.472 59.8375C77.102 59.4375 76.462 59.4275 76.092 59.8275L72.102 63.9575C71.672 64.4075 71.662 65.1175 72.082 65.5675L76.172 69.9575C76.472 70.2775 76.472 70.7775 76.172 71.0975L72.062 75.5375C71.642 75.9975 71.652 76.6975 72.082 77.1475L76.092 81.2975C76.472 81.6875 77.112 81.6875 77.482 81.2775L86.132 71.7475C86.772 71.0675 86.762 69.9975 86.122 69.2875Z" fill="url(#paint2_linear)"/>
<path d="M86.532 71.3276L82.672 75.6076C82.382 75.9276 81.872 75.9376 81.572 75.6276L77.692 71.6676C77.062 71.0276 77.062 69.9976 77.682 69.3576L81.492 65.4276C81.792 65.1176 82.302 65.1176 82.592 65.4476L86.532 69.7876C86.932 70.2176 86.932 70.8876 86.532 71.3276Z" fill="url(#paint3_linear)"/>
<path d="M34.6421 59.1475V47.0275H37.2321C37.9521 47.0275 38.5421 47.6175 38.5421 48.3375V48.7475H40.3221V45.2375H26.3521V48.7475H28.1121V48.3375C28.1121 47.6175 28.7021 47.0275 29.4221 47.0275H32.0121V59.1475H30.7321V60.9075H35.9821V59.1475H34.6421Z" fill="url(#paint4_linear)"/>
<path fill-rule="evenodd" clip-rule="evenodd" d="M45.3022 65.4476H46.1522V40.6476H45.3022V65.4476Z" fill="url(#paint5_linear)"/>
<path fill-rule="evenodd" clip-rule="evenodd" d="M57.1422 61.7576H49.1922C48.7922 61.7576 48.4722 61.3776 48.4722 60.9076C48.4722 60.4376 48.7922 60.0576 49.1922 60.0576H57.1422C57.5422 60.0576 57.8622 60.4376 57.8622 60.9076C57.8622 61.3776 57.5322 61.7576 57.1422 61.7576Z" fill="url(#paint6_linear)"/>
<path fill-rule="evenodd" clip-rule="evenodd" d="M67.0122 61.7576H60.6022C60.0122 61.7576 59.5322 61.3776 59.5322 60.9076C59.5322 60.4376 60.0122 60.0576 60.6022 60.0576H67.0122C67.6022 60.0576 68.0822 60.4376 68.0822 60.9076C68.0822 61.3776 67.6022 61.7576 67.0122 61.7576Z" fill="url(#paint7_linear)"/>
<path fill-rule="evenodd" clip-rule="evenodd" d="M55.9121 46.4676H49.5121C48.9221 46.4676 48.4421 46.0876 48.4421 45.6176C48.4421 45.1476 48.9221 44.7676 49.5121 44.7676H55.9221C56.5121 44.7676 56.9921 45.1476 56.9921 45.6176C56.9821 46.0876 56.5021 46.4676 55.9121 46.4676Z" fill="url(#paint8_linear)"/>
<path fill-rule="evenodd" clip-rule="evenodd" d="M57.9322 56.6575H49.2622C48.8322 56.6575 48.4722 56.2775 48.4722 55.8075C48.4722 55.3375 48.8322 54.9575 49.2622 54.9575H57.9322C58.3622 54.9575 58.7222 55.3375 58.7222 55.8075C58.7122 56.2775 58.3622 56.6575 57.9322 56.6575Z" fill="url(#paint9_linear)"/>
<path fill-rule="evenodd" clip-rule="evenodd" d="M69.8724 56.6575H61.2024C60.7724 56.6575 60.4124 56.2775 60.4124 55.8075C60.4124 55.3375 60.7724 54.9575 61.2024 54.9575H69.8724C70.3024 54.9575 70.6623 55.3375 70.6623 55.8075C70.6623 56.2775 70.3124 56.6575 69.8724 56.6575Z" fill="url(#paint10_linear)"/>
<path fill-rule="evenodd" clip-rule="evenodd" d="M49.3621 51.5575C48.8521 51.5575 48.4421 51.1775 48.4421 50.7075C48.4421 50.2375 48.8521 49.8575 49.3621 49.8575H59.4821C59.9921 49.8575 60.4021 50.2375 60.4021 50.7075C60.4021 51.1775 59.9921 51.5575 59.4821 51.5575H49.3621Z" fill="url(#paint11_linear)"/>
<path fill-rule="evenodd" clip-rule="evenodd" d="M75.0022 56.6575H66.3322C65.9022 56.6575 65.5422 56.2775 65.5422 55.8075C65.5422 55.3375 65.9022 54.9575 66.3322 54.9575H75.0022C75.4322 54.9575 75.7922 55.3375 75.7922 55.8075C75.7922 56.2775 75.4322 56.6575 75.0022 56.6575Z" fill="url(#paint12_linear)"/>
<defs>
<linearGradient id="paint0_linear" x1="49.4421" y1="-13.5454" x2="53.4251" y2="132.223" gradientUnits="userSpaceOnUse">
<stop stop-color="#00ABDE"/>
<stop offset="1" stop-color="#007ED8"/>
</linearGradient>
<linearGradient id="paint1_linear" x1="69.7523" y1="60.2954" x2="71.3615" y2="79.2029" gradientUnits="userSpaceOnUse">
<stop stop-color="#A23093"/>
<stop offset="1" stop-color="#692266"/>
</linearGradient>
<linearGradient id="paint2_linear" x1="71.7546" y1="70.5683" x2="86.6059" y2="70.5683" gradientUnits="userSpaceOnUse">
<stop stop-color="#E184C4"/>
<stop offset="1" stop-color="#D76EBC"/>
</linearGradient>
<linearGradient id="paint3_linear" x1="77.2216" y1="70.5213" x2="86.8325" y2="70.5213" gradientUnits="userSpaceOnUse">
<stop stop-color="#E89BCA"/>
<stop offset="1" stop-color="#E591C8"/>
</linearGradient>
<linearGradient id="paint4_linear" x1="35.3353" y1="52.7247" x2="54.5359" y2="85.8294" gradientUnits="userSpaceOnUse">
<stop stop-color="#15548F"/>
<stop offset="0.4179" stop-color="#243A5E"/>
<stop offset="0.9677" stop-color="#1A2C45"/>
</linearGradient>
<linearGradient id="paint5_linear" x1="42.9765" y1="48.2931" x2="62.1772" y2="81.3978" gradientUnits="userSpaceOnUse">
<stop stop-color="#15548F"/>
<stop offset="0.4179" stop-color="#243A5E"/>
<stop offset="0.9677" stop-color="#1A2C45"/>
</linearGradient>
<linearGradient id="paint6_linear" x1="45.1257" y1="47.0464" x2="64.3264" y2="80.1511" gradientUnits="userSpaceOnUse">
<stop stop-color="#15548F"/>
<stop offset="0.4179" stop-color="#243A5E"/>
<stop offset="0.9677" stop-color="#1A2C45"/>
</linearGradient>
<linearGradient id="paint7_linear" x1="53.0891" y1="42.4277" x2="72.2898" y2="75.5324" gradientUnits="userSpaceOnUse">
<stop stop-color="#15548F"/>
<stop offset="0.4179" stop-color="#243A5E"/>
<stop offset="0.9677" stop-color="#1A2C45"/>
</linearGradient>
<linearGradient id="paint8_linear" x1="51.4203" y1="43.3955" x2="70.6211" y2="76.5002" gradientUnits="userSpaceOnUse">
<stop stop-color="#15548F"/>
<stop offset="0.4179" stop-color="#243A5E"/>
<stop offset="0.9677" stop-color="#1A2C45"/>
</linearGradient>
<linearGradient id="paint9_linear" x1="47.6591" y1="45.577" x2="66.8599" y2="78.6817" gradientUnits="userSpaceOnUse">
<stop stop-color="#15548F"/>
<stop offset="0.4179" stop-color="#243A5E"/>
<stop offset="0.9677" stop-color="#1A2C45"/>
</linearGradient>
<linearGradient id="paint10_linear" x1="56.5994" y1="40.3917" x2="75.8001" y2="73.4964" gradientUnits="userSpaceOnUse">
<stop stop-color="#15548F"/>
<stop offset="0.4179" stop-color="#243A5E"/>
<stop offset="0.9677" stop-color="#1A2C45"/>
</linearGradient>
<linearGradient id="paint11_linear" x1="50.4866" y1="43.937" x2="69.6874" y2="77.0417" gradientUnits="userSpaceOnUse">
<stop stop-color="#15548F"/>
<stop offset="0.4179" stop-color="#243A5E"/>
<stop offset="0.9677" stop-color="#1A2C45"/>
</linearGradient>
<linearGradient id="paint12_linear" x1="60.4371" y1="38.1657" x2="79.638" y2="71.2704" gradientUnits="userSpaceOnUse">
<stop stop-color="#15548F"/>
<stop offset="0.4179" stop-color="#243A5E"/>
<stop offset="0.9677" stop-color="#1A2C45"/>
</linearGradient>
</defs>
</svg>
