<svg width="103" height="103" viewBox="0 0 103 103" fill="none" xmlns="http://www.w3.org/2000/svg">
<path d="M49.0153 97.9434C25.2353 96.7134 5.91528 77.3734 4.73528 53.5834C3.35528 25.8234 26.1653 3.03345 53.9253 4.44345C77.7053 5.65345 97.0253 24.9734 98.2353 48.7434C99.6453 76.5334 76.8053 99.3634 49.0153 97.9434Z" fill="url(#paint0_linear)"/>
<path fill-rule="evenodd" clip-rule="evenodd" d="M97.3256 48.8035C98.7056 76.0435 76.3356 98.4135 49.0956 97.0335C25.7756 95.8535 6.82556 76.9035 5.64557 53.5835C4.26557 26.3435 26.6356 3.97348 53.8756 5.35348C77.1956 6.53348 96.1456 25.4835 97.3256 48.8035ZM48.9356 1.61348C78.3756 0.143477 102.546 24.3235 101.056 53.7635C99.7856 78.9835 79.2856 99.4835 54.0656 100.763C24.5956 102.253 0.395565 78.0335 1.91557 48.5635C3.21557 23.3535 23.7156 2.87348 48.9356 1.61348Z" fill="#F2F1F0"/>
<path fill-rule="evenodd" clip-rule="evenodd" d="M94.5153 48.9533C95.8053 74.5233 74.8153 95.5233 49.2453 94.2233C27.3553 93.1133 9.56532 75.3233 8.45532 53.4333C7.15532 27.8633 28.1553 6.86332 53.7253 8.16332C75.6153 9.27332 93.4053 27.0633 94.5153 48.9533ZM49.0453 4.42332C76.8253 3.01332 99.6653 25.8433 98.2553 53.6333C97.0453 77.4233 77.7153 96.7533 53.9253 97.9633C26.1353 99.3733 3.30532 76.5433 4.71532 48.7533C5.92532 24.9633 25.2553 5.63332 49.0453 4.42332Z" fill="#0078D4"/>
<path opacity="0.15" d="M87.5355 46.6934C87.5355 45.9234 86.9055 45.2834 86.1255 45.2834C85.6155 45.2834 82.4655 45.0034 80.7655 43.6834C80.7655 43.6834 80.7755 43.6634 80.7655 43.6834C80.1255 41.3534 79.1855 39.1734 78.0255 37.1034C77.7255 35.1434 79.7555 33.7134 80.6855 32.1834C80.8455 31.9134 80.9455 31.7634 81.0055 31.6534C81.1755 31.1534 81.0855 30.5834 80.6855 30.1934C80.6855 30.1934 79.1255 27.9634 77.5255 26.3734C75.9255 24.7834 73.5055 23.0134 73.5055 23.0134C72.9555 22.4634 72.0655 22.4634 71.5155 23.0134C71.1555 23.3634 68.7555 25.3434 66.5855 25.6634C66.5555 25.6634 66.5555 25.6634 66.5555 25.6634C64.5455 24.5234 62.2855 23.5834 60.0255 22.9434H59.9955C58.3955 21.7634 58.8155 19.3234 58.3955 17.5834C58.3955 16.8134 57.7655 16.1734 56.9855 16.1734C56.9855 16.1734 54.3055 15.7034 52.0455 15.7034C49.7855 15.7034 46.8355 16.1734 46.8355 16.1734C46.0655 16.1734 45.4255 16.8034 45.4255 17.5834C45.4255 18.0934 45.1455 21.2434 43.8255 22.9434C41.5855 23.5734 39.2355 24.5734 37.2455 25.6834C35.2855 25.9834 33.8555 23.9534 32.3255 23.0234C32.0555 22.8634 31.9055 22.7634 31.7955 22.7034C31.2955 22.5334 30.7255 22.6234 30.3355 23.0234C30.3355 23.0234 28.1055 24.5834 26.5155 26.1834C24.9255 27.7834 23.1555 30.2034 23.1555 30.2034C22.6055 30.7534 22.6055 31.6434 23.1555 32.1934C23.5055 32.5434 25.5455 34.9834 25.8155 37.1134V37.1334C24.7055 39.1234 23.7355 41.4634 23.0955 43.7034C23.0955 43.7034 23.1255 43.6634 23.0955 43.7034C21.7255 45.3634 19.4755 44.8834 17.7355 45.3034C16.9655 45.3034 16.3255 45.9334 16.3255 46.7134C16.3255 46.7134 15.8555 49.3934 15.8555 51.6534C15.8555 53.9134 16.3255 56.8634 16.3255 56.8634C16.3255 57.6334 16.9555 58.2734 17.7355 58.2734C18.2455 58.2734 21.3955 58.5534 23.0955 59.8734C23.1355 59.8534 23.1155 59.9034 23.1155 59.9034C23.7655 62.1534 24.6955 64.4034 25.8255 66.3834C25.8055 66.4134 25.8255 66.3834 25.8355 66.4534C26.0255 68.5034 24.1055 69.8434 23.1755 71.3734C23.0155 71.6434 22.9155 71.7934 22.8555 71.9034C22.6855 72.4034 22.7755 72.9734 23.1755 73.3634C23.1755 73.3634 24.7355 75.5934 26.3355 77.1834C27.9355 78.7834 30.3555 80.5434 30.3555 80.5434C30.9055 81.0934 31.7955 81.0934 32.3455 80.5434C32.6955 80.1934 35.1355 78.1534 37.2655 77.8834C37.2655 77.8834 37.2555 77.8934 37.2955 77.9034C39.3455 79.0434 41.4555 79.9434 43.7655 80.5734C43.7855 80.5834 43.8555 80.6034 43.8555 80.6034C45.4855 81.7534 45.0655 84.1934 45.4855 85.9334C45.5755 86.7134 46.0055 87.2134 46.8955 87.3434C46.8955 87.3434 49.5755 87.8134 51.8355 87.8134C54.0955 87.8134 57.0455 87.3534 57.0455 87.3534C57.8155 87.2234 58.4555 86.7234 58.4555 85.9434C58.4555 85.4334 58.7355 82.2834 60.0555 80.5834C60.0555 80.5834 60.1155 80.5334 60.1655 80.4834C62.5155 79.8234 64.3055 79.0934 66.3855 77.9034C66.4955 77.8634 66.3755 77.8734 66.6255 77.8334C68.5855 77.5334 70.0155 79.5634 71.5455 80.4934C71.8155 80.6534 71.9655 80.7534 72.0755 80.8134C72.5755 80.9834 73.1455 80.8934 73.5355 80.4934C73.5355 80.4934 75.7655 78.9334 77.3555 77.3334C78.9555 75.7334 80.7155 73.3134 80.7155 73.3134C81.2655 72.7634 81.2655 71.8734 80.7155 71.3234C80.3655 70.9734 78.3255 68.5334 78.0555 66.4034C78.0255 66.1834 78.0455 66.1534 78.0755 66.0934C79.2655 64.0034 80.0055 62.4734 80.6555 60.0934C80.6555 60.0934 80.6255 60.0134 80.7755 59.8134C81.9555 58.2134 84.3955 58.6334 86.1355 58.2134C86.9055 58.2134 87.5455 57.5834 87.5455 56.8034C87.5455 56.8034 88.0155 54.1234 88.0155 51.8634C87.9955 49.6434 87.5355 46.6934 87.5355 46.6934Z" fill="#1F1D20"/>
<path d="M87.5355 45.7334C87.5355 44.9634 86.9055 44.3234 86.1255 44.3234C85.6155 44.3234 82.4655 44.0434 80.7655 42.7234C80.7655 42.7234 80.7755 42.7034 80.7655 42.7234C80.1255 40.3934 79.1855 38.2134 78.0255 36.1434C77.7255 34.1834 79.7555 32.7534 80.6855 31.2234C80.8455 30.9534 80.9455 30.8034 81.0055 30.6934C81.1755 30.1934 81.0855 29.6234 80.6855 29.2334C80.6855 29.2334 79.1255 27.0034 77.5255 25.4134C75.9255 23.8234 73.5055 22.0534 73.5055 22.0534C72.9555 21.5034 72.0655 21.5034 71.5155 22.0534C71.1555 22.4034 68.7555 24.3834 66.5855 24.7034C66.5555 24.7034 66.5555 24.7034 66.5555 24.7034C64.5455 23.5634 62.2855 22.6234 60.0255 21.9834H59.9955C58.3955 20.8034 58.8155 18.3634 58.3955 16.6234C58.3955 15.8534 57.7655 15.2134 56.9855 15.2134C56.9855 15.2134 54.3055 14.7434 52.0455 14.7434C49.7855 14.7434 46.8355 15.2134 46.8355 15.2134C46.0655 15.2134 45.4255 15.8434 45.4255 16.6234C45.4255 17.1334 45.1455 20.2834 43.8255 21.9834C41.5855 22.6134 39.2355 23.6134 37.2455 24.7234C35.2855 25.0234 33.8555 22.9934 32.3255 22.0634C32.0555 21.9034 31.9055 21.8034 31.7955 21.7434C31.2955 21.5734 30.7255 21.6634 30.3355 22.0634C30.3355 22.0634 28.1055 23.6234 26.5155 25.2234C24.9255 26.8234 23.1555 29.2434 23.1555 29.2434C22.6055 29.7934 22.6055 30.6834 23.1555 31.2334C23.5055 31.5834 25.5455 34.0234 25.8155 36.1534V36.1734C24.7055 38.1634 23.7355 40.5034 23.0955 42.7434C23.0955 42.7434 23.1255 42.7034 23.0955 42.7434C21.7255 44.4034 19.4755 43.9234 17.7355 44.3434C16.9655 44.3434 16.3255 44.9734 16.3255 45.7534C16.3255 45.7534 15.8555 48.4334 15.8555 50.6934C15.8555 52.9534 16.3255 55.9034 16.3255 55.9034C16.3255 56.6734 16.9555 57.3134 17.7355 57.3134C18.2455 57.3134 21.3955 57.5934 23.0955 58.9134C23.1355 58.8934 23.1155 58.9434 23.1155 58.9434C23.7655 61.1934 24.6955 63.4434 25.8255 65.4234C25.8055 65.4534 25.8255 65.4234 25.8355 65.4934C26.0255 67.5434 24.1055 68.8834 23.1755 70.4134C23.0155 70.6834 22.9155 70.8334 22.8555 70.9434C22.6855 71.4434 22.7755 72.0134 23.1755 72.4034C23.1755 72.4034 24.7355 74.6334 26.3355 76.2234C27.9355 77.8234 30.3555 79.5834 30.3555 79.5834C30.9055 80.1334 31.7955 80.1334 32.3455 79.5834C32.6955 79.2334 35.1355 77.1934 37.2655 76.9234C37.2655 76.9234 37.2555 76.9334 37.2955 76.9434C39.3455 78.0834 41.4555 78.9834 43.7655 79.6134C43.7855 79.6234 43.8555 79.6434 43.8555 79.6434C45.4555 80.8234 45.0355 83.2634 45.4555 85.0034C45.5455 85.7834 45.9755 86.2834 46.8655 86.4134C46.8655 86.4134 49.5455 86.8834 51.8055 86.8834C54.0655 86.8834 57.0155 86.4234 57.0155 86.4234C57.7855 86.2934 58.4255 85.7934 58.4255 85.0134C58.4255 84.5034 58.7055 81.3534 60.0255 79.6534C60.0255 79.6534 60.0855 79.6034 60.1355 79.5534C62.4855 78.8934 64.2755 78.1634 66.3555 76.9734C66.4655 76.9334 66.3455 76.9434 66.5955 76.9034C68.5555 76.6034 69.9855 78.6334 71.5155 79.5634C71.7855 79.7234 71.9355 79.8234 72.0455 79.8834C72.5455 80.0534 73.1155 79.9634 73.5055 79.5634C73.5055 79.5634 75.7355 78.0034 77.3255 76.4034C78.9255 74.8034 80.6855 72.3834 80.6855 72.3834C81.2355 71.8334 81.2355 70.9434 80.6855 70.3934C80.3355 70.0434 78.2955 67.6034 78.0255 65.4734C77.9955 65.2534 78.0155 65.2234 78.0455 65.1634C79.2355 63.0734 79.9755 61.5434 80.6255 59.1634C80.6255 59.1634 80.5955 59.0834 80.7455 58.8834C81.9255 57.2834 84.3655 57.7034 86.1055 57.2834C86.8755 57.2834 87.5155 56.6534 87.5155 55.8734C87.5155 55.8734 87.9855 53.1934 87.9855 50.9334C87.9955 48.6934 87.5355 45.7334 87.5355 45.7334Z" fill="url(#paint1_linear)"/>
<path d="M72.0854 79.8835C72.0754 79.8835 72.0754 79.8735 72.0654 79.8735C72.0754 79.8735 72.0854 79.8835 72.0854 79.8835Z" fill="#9FC2F6"/>
<path d="M72.0656 79.8732C71.8656 79.7532 71.5356 79.5532 71.5356 79.5532C71.6956 79.6932 71.8756 79.8032 72.0656 79.8732Z" fill="#9FC2F6"/>
<path d="M72.0854 79.8735C72.2754 79.9835 72.2354 79.9635 72.0854 79.8735V79.8735Z" fill="#9FC2F6"/>
<path d="M31.8555 21.7634C32.0555 21.8834 32.3855 22.0834 32.3855 22.0834C32.2255 21.9434 32.0455 21.8334 31.8555 21.7634Z" fill="#9FC2F6"/>
<path d="M31.8354 21.7534C31.8454 21.7534 31.8454 21.7634 31.8554 21.7634C31.8454 21.7634 31.8354 21.7534 31.8354 21.7534Z" fill="#9FC2F6"/>
<path d="M31.8354 21.7535C31.6554 21.6535 31.6854 21.6735 31.8354 21.7535V21.7535Z" fill="#9FC2F6"/>
<path d="M22.8953 70.9434C22.7953 71.1234 22.8153 71.0934 22.8953 70.9434V70.9434Z" fill="#9FC2F6"/>
<path d="M22.8955 70.9433C22.8955 70.9333 22.9055 70.9333 22.9055 70.9233C22.9055 70.9333 22.8955 70.9433 22.8955 70.9433Z" fill="#9FC2F6"/>
<path d="M22.9053 70.9236C23.0253 70.7236 23.2253 70.3936 23.2253 70.3936C23.0853 70.5536 22.9753 70.7336 22.9053 70.9236Z" fill="#9FC2F6"/>
<path d="M81.0153 30.7134C80.8953 30.9134 80.6953 31.2434 80.6953 31.2434C80.8353 31.0834 80.9453 30.9034 81.0153 30.7134Z" fill="#9FC2F6"/>
<path d="M81.0256 30.6934C81.0256 30.7034 81.0156 30.7034 81.0156 30.7134C81.0156 30.7034 81.0256 30.6934 81.0256 30.6934Z" fill="#9FC2F6"/>
<path d="M81.0254 30.6934C81.1254 30.5034 81.1054 30.5434 81.0254 30.6934V30.6934Z" fill="#9FC2F6"/>
<path d="M56.5152 62.4933C56.4552 62.4333 56.3652 62.3433 56.3652 62.3433C56.4052 62.4033 56.4552 62.4533 56.5152 62.4933Z" fill="#F2F1F0"/>
<path d="M56.5249 62.4932C56.5749 62.5532 56.5649 62.5432 56.5249 62.4932V62.4932Z" fill="#F2F1F0"/>
<path d="M47.3149 38.9634C47.3749 39.0234 47.4649 39.1134 47.4649 39.1134C47.4349 39.0434 47.3749 38.9934 47.3149 38.9634Z" fill="#F2F1F0"/>
<path d="M47.3149 38.9434C47.3249 38.9534 47.3249 38.9534 47.3149 38.9434C47.3149 38.9534 47.3149 38.9534 47.3149 38.9434Z" fill="#F2F1F0"/>
<path d="M47.3151 38.9433C47.2651 38.8933 47.2751 38.9133 47.3151 38.9433V38.9433Z" fill="#F2F1F0"/>
<path d="M65.2551 46.5332C65.2451 46.5432 65.2451 46.5432 65.2551 46.5332V46.5332Z" fill="#F2F1F0"/>
<path opacity="0.15" d="M54.0753 71.2234C62.1853 70.3034 68.9653 64.3734 70.9553 56.4534C72.8653 48.8434 70.0753 40.8434 63.8653 36.0634C63.7353 35.9634 63.7153 35.8234 63.7153 35.7434C63.7153 35.6834 63.7353 35.5234 63.8853 35.4134L64.7553 34.8034C65.4453 34.3234 66.4153 34.3934 67.0453 34.9734C73.1953 40.5834 75.7653 49.0834 73.7453 57.1534C71.4653 66.2634 63.6453 73.0634 54.2853 74.0734L53.3853 74.1734L53.6853 77.5734C53.7053 77.8034 53.4653 77.9834 53.2553 77.8834L44.9553 74.0934C44.6153 73.9334 44.5753 73.4734 44.8853 73.2634L52.3953 68.0634C52.5853 67.9334 52.8653 68.0534 52.8753 68.2934L53.1353 71.3434L54.0753 71.2234Z" fill="#1F1D20"/>
<path opacity="0.15" d="M52.6251 35.6634C52.4351 35.7934 52.1651 35.6734 52.1451 35.4334L51.8251 31.9834L50.9451 32.0234C42.3351 32.4134 34.8451 38.5334 32.7551 46.8934C30.6551 55.2734 34.3851 64.1934 41.8151 68.5934C41.9851 68.6934 42.0151 68.8534 42.0151 68.9334C42.0151 68.9734 42.0151 69.0034 42.0051 69.0534C41.9851 69.1234 41.9351 69.2234 41.8351 69.2834L40.7851 70.0134C40.1551 70.4534 39.2951 70.4334 38.6451 69.9634C31.0251 64.4634 27.6251 54.9834 30.0351 45.8934C32.5651 36.3234 41.2551 29.6434 51.1351 29.1034L51.5451 29.0834L51.2651 26.1034C51.2451 25.8734 51.4851 25.6934 51.7051 25.8034L60.1051 29.6934C60.4451 29.8534 60.4851 30.3134 60.1751 30.5334L52.6251 35.6634Z" fill="#1F1D20"/>
<path d="M54.285 70.3933C62.395 69.4733 69.175 63.5434 71.165 55.6234C73.075 48.0134 70.285 40.0134 64.075 35.2334C63.945 35.1334 63.925 34.9934 63.925 34.9134C63.925 34.8534 63.945 34.6933 64.095 34.5833L64.965 33.9733C65.655 33.4933 66.625 33.5633 67.255 34.1433C73.405 39.7433 75.975 48.2434 73.955 56.3234C71.675 65.4334 63.855 72.2334 54.495 73.2434L53.595 73.3433L53.895 76.7434C53.915 76.9734 53.675 77.1533 53.465 77.0533L45.175 73.2633C44.835 73.1033 44.795 72.6433 45.105 72.4333L52.615 67.2333C52.805 67.1033 53.085 67.2233 53.095 67.4633L53.355 70.5133L54.285 70.3933Z" fill="#32B0E7"/>
<path d="M52.835 34.8233C52.645 34.9533 52.375 34.8333 52.355 34.5933L52.035 31.1433L51.155 31.1833C42.545 31.5733 35.055 37.6933 32.965 46.0533C30.865 54.4333 34.5951 63.3533 42.0251 67.7533C42.1951 67.8533 42.2251 68.0133 42.2251 68.0933C42.2251 68.1333 42.225 68.1633 42.215 68.2133C42.195 68.2833 42.1451 68.3833 42.0451 68.4433L40.995 69.1733C40.365 69.6133 39.505 69.5933 38.855 69.1233C31.235 63.6233 27.835 54.1433 30.245 45.0533C32.775 35.4933 41.455 28.8233 51.345 28.2833L51.755 28.2633L51.485 25.2733C51.465 25.0433 51.705 24.8633 51.925 24.9733L60.335 28.8533C60.675 29.0133 60.715 29.4733 60.405 29.6933L52.835 34.8233Z" fill="#50E6FF"/>
<path d="M52.8055 39.5134C46.2255 39.5134 40.8955 44.8434 40.8955 51.4234C40.8955 53.6834 41.5255 55.8034 42.6255 57.6034V61.4334H46.3655C48.2255 62.6334 50.4355 63.3334 52.8055 63.3334C59.3855 63.3334 64.7155 58.0034 64.7155 51.4234C64.7155 44.8434 59.3855 39.5134 52.8055 39.5134Z" fill="#ED722E"/>
<path d="M52.8055 39.5134C46.2255 39.5134 40.8955 44.8434 40.8955 51.4234C40.8955 53.6834 41.5255 55.8034 42.6255 57.6034L42.4655 61.4334L60.9855 42.9234C58.9955 40.8134 56.0555 39.5134 52.8055 39.5134Z" fill="#FF7736"/>
<path d="M53.7456 52.5037C53.6156 52.3737 53.5057 52.2137 53.4557 52.0337C53.3957 51.8337 53.3556 51.6237 53.3556 51.3937C53.3556 51.2137 53.3757 51.0337 53.4157 50.8737C53.4757 50.6237 53.6257 50.4136 53.7957 50.2236C54.0857 49.9036 54.2357 49.4637 54.1457 48.9837C54.0357 48.4137 53.5856 47.9437 53.0156 47.8237C52.0656 47.6237 51.2357 48.3437 51.2357 49.2537C51.2357 49.6337 51.3757 49.9736 51.6157 50.2236C51.7857 50.4136 51.9257 50.6236 51.9857 50.8636C52.0257 51.0336 52.0457 51.2037 52.0457 51.3937C52.0457 51.6137 52.0156 51.8337 51.9456 52.0337C51.8856 52.2137 51.7857 52.3737 51.6457 52.5037C51.3257 52.8237 51.1556 53.2936 51.2456 53.7936C51.3456 54.3636 51.8057 54.8336 52.3757 54.9536C53.3257 55.1536 54.1556 54.4337 54.1556 53.5237C54.1756 53.1337 54.0056 52.7737 53.7456 52.5037Z" fill="white"/>
<path d="M58.0557 52.5037C57.9257 52.3737 57.8157 52.2137 57.7657 52.0337C57.7057 51.8337 57.6657 51.6237 57.6657 51.3937C57.6657 51.2137 57.6857 51.0337 57.7257 50.8737C57.7857 50.6237 57.9357 50.4136 58.1057 50.2236C58.3957 49.9036 58.5457 49.4637 58.4557 48.9837C58.3457 48.4137 57.8957 47.9437 57.3257 47.8237C56.3757 47.6237 55.5457 48.3437 55.5457 49.2537C55.5457 49.6337 55.6857 49.9736 55.9257 50.2236C56.0957 50.4136 56.2357 50.6236 56.2957 50.8636C56.3357 51.0336 56.3557 51.2037 56.3557 51.3937C56.3557 51.6137 56.3257 51.8337 56.2557 52.0337C56.1957 52.2137 56.0957 52.3737 55.9557 52.5037C55.6357 52.8237 55.4657 53.2936 55.5557 53.7936C55.6557 54.3636 56.1157 54.8336 56.6857 54.9536C57.6357 55.1536 58.4657 54.4337 58.4657 53.5237C58.4857 53.1337 58.3157 52.7737 58.0557 52.5037Z" fill="white"/>
<path d="M49.5855 52.5037C49.4555 52.3737 49.3455 52.2137 49.2955 52.0337C49.2355 51.8337 49.1955 51.6237 49.1955 51.3937C49.1955 51.2137 49.2155 51.0337 49.2555 50.8737C49.3155 50.6237 49.4655 50.4136 49.6355 50.2236C49.9255 49.9036 50.0755 49.4637 49.9855 48.9837C49.8755 48.4137 49.4255 47.9437 48.8555 47.8237C47.9055 47.6237 47.0755 48.3437 47.0755 49.2537C47.0755 49.6337 47.2155 49.9736 47.4555 50.2236C47.6255 50.4136 47.7655 50.6236 47.8255 50.8636C47.8655 51.0336 47.8855 51.2037 47.8855 51.3937C47.8855 51.6137 47.8555 51.8337 47.7855 52.0337C47.7255 52.2137 47.6255 52.3737 47.4855 52.5037C47.1655 52.8237 46.9955 53.2936 47.0855 53.7936C47.1855 54.3636 47.6455 54.8336 48.2155 54.9536C49.1655 55.1536 49.9955 54.4337 49.9955 53.5237C50.0155 53.1337 49.8455 52.7737 49.5855 52.5037Z" fill="white"/>
<path d="M52.7154 59.1134C53.5217 59.1134 54.1754 58.4597 54.1754 57.6534C54.1754 56.847 53.5217 56.1934 52.7154 56.1934C51.909 56.1934 51.2554 56.847 51.2554 57.6534C51.2554 58.4597 51.909 59.1134 52.7154 59.1134Z" fill="white"/>
<path d="M52.7154 46.4932C53.5217 46.4932 54.1754 45.8396 54.1754 45.0332C54.1754 44.2269 53.5217 43.5732 52.7154 43.5732C51.909 43.5732 51.2554 44.2269 51.2554 45.0332C51.2554 45.8396 51.909 46.4932 52.7154 46.4932Z" fill="white"/>
<defs>
<linearGradient id="paint0_linear" x1="49.7145" y1="-13.5993" x2="53.6973" y2="132.168" gradientUnits="userSpaceOnUse">
<stop stop-color="#00ABDE"/>
<stop offset="1" stop-color="#007ED8"/>
</linearGradient>
<linearGradient id="paint1_linear" x1="54.7137" y1="-72.3658" x2="49.6113" y2="155.54" gradientUnits="userSpaceOnUse">
<stop stop-color="#007ED8"/>
<stop offset="0.7065" stop-color="#002D4C"/>
</linearGradient>
</defs>
</svg>
