<?xml version="1.0" encoding="UTF-8"?>
<svg width="106px" height="106px" viewBox="0 0 106 106" version="1.1" xmlns="http://www.w3.org/2000/svg" xmlns:xlink="http://www.w3.org/1999/xlink">
    <title>NA/Manage-datasets-in-Power-BI</title>
    <defs>
        <rect id="path-1" x="0" y="0" width="100" height="100" rx="50"></rect>
        <filter x="-2.8%" y="-2.8%" width="106.0%" height="106.0%" filterUnits="objectBoundingBox" id="filter-3">
            <feMorphology radius="2.5" operator="dilate" in="SourceAlpha" result="shadowSpreadOuter1"></feMorphology>
            <feOffset dx="0.5" dy="0.5" in="shadowSpreadOuter1" result="shadowOffsetOuter1"></feOffset>
            <feMorphology radius="1" operator="erode" in="SourceAlpha" result="shadowInner"></feMorphology>
            <feOffset dx="0.5" dy="0.5" in="shadowInner" result="shadowInner"></feOffset>
            <feComposite in="shadowOffsetOuter1" in2="shadowInner" operator="out" result="shadowOffsetOuter1"></feComposite>
            <feColorMatrix values="0 0 0 0 0.821822822   0 0 0 0 0.831640661   0 0 0 0 0.835737288  0 0 0 1 0" type="matrix" in="shadowOffsetOuter1"></feColorMatrix>
        </filter>
        <linearGradient x1="50%" y1="0%" x2="50%" y2="100%" id="linearGradient-4">
            <stop stop-color="#4E4E57" offset="0%"></stop>
            <stop stop-color="#2E2E34" offset="100%"></stop>
        </linearGradient>
        <rect id="path-5" x="0" y="0" width="100" height="100"></rect>
        <path d="M50,0 C77.6142375,0 100,22.3857625 100,50 C100,77.6142375 77.6142375,100 50,100 C22.3857625,100 0,77.6142375 0,50 C0,22.3857625 22.3857625,0 50,0 Z M50,4 C24.5949015,4 4,24.5949015 4,50 C4,75.4050985 24.5949015,96 50,96 C75.4050985,96 96,75.4050985 96,50 C96,24.5949015 75.4050985,4 50,4 Z" id="path-6"></path>
        <filter x="-82.4%" y="-63.6%" width="264.7%" height="227.3%" filterUnits="objectBoundingBox" id="filter-8">
            <feOffset dx="0" dy="2" in="SourceAlpha" result="shadowOffsetOuter1"></feOffset>
            <feGaussianBlur stdDeviation="2" in="shadowOffsetOuter1" result="shadowBlurOuter1"></feGaussianBlur>
            <feColorMatrix values="0 0 0 0 0   0 0 0 0 0   0 0 0 0 0  0 0 0 0.1 0" type="matrix" in="shadowBlurOuter1" result="shadowMatrixOuter1"></feColorMatrix>
            <feMerge>
                <feMergeNode in="shadowMatrixOuter1"></feMergeNode>
                <feMergeNode in="SourceGraphic"></feMergeNode>
            </feMerge>
        </filter>
        <filter x="-14.7%" y="-11.4%" width="129.4%" height="122.7%" filterUnits="objectBoundingBox" id="filter-9">
            <feOffset dx="0" dy="1" in="SourceAlpha" result="shadowOffsetOuter1"></feOffset>
            <feColorMatrix values="0 0 0 0 0   0 0 0 0 0   0 0 0 0 0  0 0 0 0.12 0" type="matrix" in="shadowOffsetOuter1" result="shadowMatrixOuter1"></feColorMatrix>
            <feMerge>
                <feMergeNode in="shadowMatrixOuter1"></feMergeNode>
                <feMergeNode in="SourceGraphic"></feMergeNode>
            </feMerge>
        </filter>
        <linearGradient x1="50%" y1="97.5691716%" x2="50%" y2="-5.30956676%" id="linearGradient-10">
            <stop stop-color="#0078D4" offset="0%"></stop>
            <stop stop-color="#1380DA" offset="16%"></stop>
            <stop stop-color="#3C91E5" offset="53%"></stop>
            <stop stop-color="#559CEC" offset="82%"></stop>
            <stop stop-color="#5EA0EF" offset="100%"></stop>
        </linearGradient>
        <filter x="-82.4%" y="-63.6%" width="264.7%" height="227.3%" filterUnits="objectBoundingBox" id="filter-11">
            <feOffset dx="0" dy="2" in="SourceAlpha" result="shadowOffsetOuter1"></feOffset>
            <feGaussianBlur stdDeviation="2" in="shadowOffsetOuter1" result="shadowBlurOuter1"></feGaussianBlur>
            <feColorMatrix values="0 0 0 0 0   0 0 0 0 0   0 0 0 0 0  0 0 0 0.1 0" type="matrix" in="shadowBlurOuter1" result="shadowMatrixOuter1"></feColorMatrix>
            <feMerge>
                <feMergeNode in="shadowMatrixOuter1"></feMergeNode>
                <feMergeNode in="SourceGraphic"></feMergeNode>
            </feMerge>
        </filter>
        <filter x="-14.7%" y="-11.4%" width="129.4%" height="122.7%" filterUnits="objectBoundingBox" id="filter-12">
            <feOffset dx="0" dy="1" in="SourceAlpha" result="shadowOffsetOuter1"></feOffset>
            <feColorMatrix values="0 0 0 0 0   0 0 0 0 0   0 0 0 0 0  0 0 0 0.12 0" type="matrix" in="shadowOffsetOuter1" result="shadowMatrixOuter1"></feColorMatrix>
            <feMerge>
                <feMergeNode in="shadowMatrixOuter1"></feMergeNode>
                <feMergeNode in="SourceGraphic"></feMergeNode>
            </feMerge>
        </filter>
        <filter x="-82.4%" y="-63.6%" width="264.7%" height="227.3%" filterUnits="objectBoundingBox" id="filter-13">
            <feOffset dx="0" dy="2" in="SourceAlpha" result="shadowOffsetOuter1"></feOffset>
            <feGaussianBlur stdDeviation="2" in="shadowOffsetOuter1" result="shadowBlurOuter1"></feGaussianBlur>
            <feColorMatrix values="0 0 0 0 0   0 0 0 0 0   0 0 0 0 0  0 0 0 0.1 0" type="matrix" in="shadowBlurOuter1" result="shadowMatrixOuter1"></feColorMatrix>
            <feMerge>
                <feMergeNode in="shadowMatrixOuter1"></feMergeNode>
                <feMergeNode in="SourceGraphic"></feMergeNode>
            </feMerge>
        </filter>
        <filter x="-14.7%" y="-11.4%" width="129.4%" height="122.7%" filterUnits="objectBoundingBox" id="filter-14">
            <feOffset dx="0" dy="1" in="SourceAlpha" result="shadowOffsetOuter1"></feOffset>
            <feColorMatrix values="0 0 0 0 0   0 0 0 0 0   0 0 0 0 0  0 0 0 0.12 0" type="matrix" in="shadowOffsetOuter1" result="shadowMatrixOuter1"></feColorMatrix>
            <feMerge>
                <feMergeNode in="shadowMatrixOuter1"></feMergeNode>
                <feMergeNode in="SourceGraphic"></feMergeNode>
            </feMerge>
        </filter>
        <filter x="-20.3%" y="-30.8%" width="140.7%" height="161.5%" filterUnits="objectBoundingBox" id="filter-15">
            <feOffset dx="0" dy="2" in="SourceAlpha" result="shadowOffsetOuter1"></feOffset>
            <feGaussianBlur stdDeviation="2" in="shadowOffsetOuter1" result="shadowBlurOuter1"></feGaussianBlur>
            <feColorMatrix values="0 0 0 0 0   0 0 0 0 0   0 0 0 0 0  0 0 0 0.1 0" type="matrix" in="shadowBlurOuter1" result="shadowMatrixOuter1"></feColorMatrix>
            <feMerge>
                <feMergeNode in="shadowMatrixOuter1"></feMergeNode>
                <feMergeNode in="SourceGraphic"></feMergeNode>
            </feMerge>
        </filter>
        <polygon id="path-16" points="0 0.0428318777 58.9063397 0.0428318777 58.9063397 38.9127183 0 38.9127183"></polygon>
        <linearGradient x1="50%" y1="0.670396959%" x2="50%" y2="100%" id="linearGradient-18">
            <stop stop-color="#6A6A6A" offset="0%"></stop>
            <stop stop-color="#343333" offset="100%"></stop>
        </linearGradient>
    </defs>
    <g id="Badges" stroke="none" stroke-width="1" fill="none" fill-rule="evenodd">
        <g id="N/A-6" transform="translate(-160.000000, -1080.000000)">
            <g id="NA/Manage-datasets-in-Power-BI" transform="translate(160.000000, 1080.000000)">
                <g id="Badge-Plates/Circle">
                    <g id="BG" transform="translate(3.000000, 3.000000)">
                        <mask id="mask-2" fill="white">
                            <use xlink:href="#path-1"></use>
                        </mask>
                        <g>
                            <use fill="black" fill-opacity="1" filter="url(#filter-3)" xlink:href="#path-1"></use>
                            <rect stroke="#F2F1F0" stroke-width="2.5" x="-1.25" y="-1.25" width="102.5" height="102.5" rx="50"></rect>
                        </g>
                        <g id="Colors/Power-BI/BG-Solid-1" mask="url(#mask-2)">
                            <rect id="Rectangle" fill="url(#linearGradient-4)" x="0" y="0" width="100" height="100"></rect>
                            <g id="Rectangle">
                                <use fill="#F2C811" xlink:href="#path-5"></use>
                                <use fill-opacity="0.501092657" fill="#FFFFFF" xlink:href="#path-5"></use>
                            </g>
                        </g>
                    </g>
                    <g id="Border" transform="translate(3.000000, 3.000000)">
                        <mask id="mask-7" fill="white">
                            <use xlink:href="#path-6"></use>
                        </mask>
                        <use id="Boarder" fill="#0078D4" fill-rule="nonzero" xlink:href="#path-6"></use>
                        <g id="Colors/Power-BI/Border" mask="url(#mask-7)" fill="#F3C900">
                            <rect id="Rectangle" x="0" y="0" width="100" height="100"></rect>
                        </g>
                    </g>
                </g>
                <g id="Data" transform="translate(24.000000, 52.000000)">
                    <g id="Data-Model" transform="translate(29.500000, 9.000000) rotate(-90.000000) translate(-29.500000, -9.000000) translate(21.000000, -15.000000)" stroke="#75746D">
                        <g id="Connection" transform="translate(0.500000, 0.500000)">
                            <polyline id="Path" points="8 45.53125 8 1.46875 8 1.46875"></polyline>
                            <line x1="3.92785367e-13" y1="1.46875" x2="8" y2="1.46875" id="Path" stroke-linecap="round"></line>
                            <line x1="4.6383964e-13" y1="45.53125" x2="8" y2="45.53125" id="Path-Copy-3" stroke-linecap="round"></line>
                            <line x1="0.5" y1="23.5" x2="16" y2="23.5" id="Path-26"></line>
                        </g>
                    </g>
                    <g id="Database" filter="url(#filter-8)" transform="translate(0.000000, 14.000000)" fill-rule="nonzero">
                        <g id="Group-2">
                            <g id="Icon-databases-133-Azure-Database-Migration-Services" filter="url(#filter-9)">
                                <path d="M8.50960452,5.32982063 C3.80338983,5.32982063 0,3.93139013 0,2.2 L0,18.8701794 C0,20.5793722 3.84180791,21.9778027 8.39435028,22 L8.50960452,22 C13.1966102,22 17,20.6015695 17,18.8701794 L17,2.2 C17,3.93139013 13.1966102,5.32982063 8.50960452,5.32982063 Z" id="Path" fill="url(#linearGradient-10)"></path>
                                <path d="M17,2.93333333 C17,4.55602837 13.1581921,5.86666667 8.50960452,5.86666667 C3.86101695,5.86666667 0,4.55602837 0,2.93333333 C0,1.3106383 3.84180791,0 8.50960452,0 C13.1774011,0 17,1.3106383 17,2.93333333" id="Path" fill="#E8E8E8"></path>
                            </g>
                        </g>
                    </g>
                    <g id="Database-Copy" filter="url(#filter-11)" transform="translate(21.000000, 14.000000)" fill-rule="nonzero">
                        <g id="Group-2">
                            <g id="Icon-databases-133-Azure-Database-Migration-Services" filter="url(#filter-12)">
                                <path d="M8.50960452,5.32982063 C3.80338983,5.32982063 0,3.93139013 0,2.2 L0,18.8701794 C0,20.5793722 3.84180791,21.9778027 8.39435028,22 L8.50960452,22 C13.1966102,22 17,20.6015695 17,18.8701794 L17,2.2 C17,3.93139013 13.1966102,5.32982063 8.50960452,5.32982063 Z" id="Path" fill="url(#linearGradient-10)"></path>
                                <path d="M17,2.93333333 C17,4.55602837 13.1581921,5.86666667 8.50960452,5.86666667 C3.86101695,5.86666667 0,4.55602837 0,2.93333333 C0,1.3106383 3.84180791,0 8.50960452,0 C13.1774011,0 17,1.3106383 17,2.93333333" id="Path" fill="#E8E8E8"></path>
                            </g>
                        </g>
                    </g>
                    <g id="Database-Copy-2" filter="url(#filter-13)" transform="translate(42.000000, 14.000000)" fill-rule="nonzero">
                        <g id="Group-2">
                            <g id="Icon-databases-133-Azure-Database-Migration-Services" filter="url(#filter-14)">
                                <path d="M8.50960452,5.32982063 C3.80338983,5.32982063 0,3.93139013 0,2.2 L0,18.8701794 C0,20.5793722 3.84180791,21.9778027 8.39435028,22 L8.50960452,22 C13.1966102,22 17,20.6015695 17,18.8701794 L17,2.2 C17,3.93139013 13.1966102,5.32982063 8.50960452,5.32982063 Z" id="Path" fill="url(#linearGradient-10)"></path>
                                <path d="M17,2.93333333 C17,4.55602837 13.1581921,5.86666667 8.50960452,5.86666667 C3.86101695,5.86666667 0,4.55602837 0,2.93333333 C0,1.3106383 3.84180791,0 8.50960452,0 C13.1774011,0 17,1.3106383 17,2.93333333" id="Path" fill="#E8E8E8"></path>
                            </g>
                        </g>
                    </g>
                </g>
                <g id="Computer" filter="url(#filter-15)" transform="translate(24.000000, 19.000000)">
                    <g id="Group-17">
                        <g id="Group-7">
                            <g id="Group-3">
                                <mask id="mask-17" fill="white">
                                    <use xlink:href="#path-16"></use>
                                </mask>
                                <g id="Clip-2"></g>
                                <path d="M56.9555554,0.0428318777 C58.0330364,0.0428318777 58.9063397,0.907473799 58.9063397,1.97426856 L58.9063397,36.9812817 C58.9063397,38.0480764 58.0330364,38.9127183 56.9555554,38.9127183 L1.95069825,38.9127183 C0.873389213,38.9127183 -8.60058309e-05,38.0480764 -8.60058309e-05,36.9812817 L-8.60058309e-05,1.97426856 C-8.60058309e-05,0.907473799 0.873389213,0.0428318777 1.95069825,0.0428318777 L56.9555554,0.0428318777 Z" id="Fill-1" fill="url(#linearGradient-18)" mask="url(#mask-17)"></path>
                            </g>
                        </g>
                    </g>
                    <g id="screen" transform="translate(7.000000, 6.000000)">
                        <g id="Screen-Info.">
                            <path d="M44.0575791,27.2716591 L47.2794754,24.1107835 C47.3484014,24.039955 47.4430342,24 47.5418647,24 C47.6406952,24 47.735328,24.039955 47.804254,24.1107835 L50.9407213,27.2716591 C50.9964626,27.3164555 51.0153461,27.3930056 50.9868329,27.4585861 C50.9583196,27.5241666 50.8894577,27.5625666 50.8186798,27.5523546 L48.841607,27.5523546 C48.7498176,27.5582947 48.6766889,27.6314233 48.6707488,27.7232127 L48.6707488,31.6773583 C48.6707488,31.7515001 48.610645,31.8116039 48.5365032,31.8116039 L46.4129806,31.8116039 C46.3388387,31.8116039 46.2787349,31.7515001 46.2787349,31.6773583 L46.2787349,27.7232127 C46.2789642,27.633418 46.2096466,27.5587682 46.1200809,27.5523546 L44.1674164,27.5523546 C44.0989997,27.5561352 44.0358864,27.5155655 44.0109173,27.4517557 C43.9859483,27.3879459 44.0047661,27.3153162 44.0575791,27.2716591 Z" id="Path" fill="#EFF9FF" fill-rule="nonzero" transform="translate(47.500000, 27.905802) scale(1, -1) translate(-47.500000, -27.905802) "></path>
                            <path d="M0.0575790662,15.2716591 L3.27947542,12.1107835 C3.34840139,12.039955 3.4430342,12 3.54186471,12 C3.64069522,12 3.73532803,12.039955 3.80425399,12.1107835 L6.94072128,15.2716591 C6.99646255,15.3164555 7.01534613,15.3930056 6.98683288,15.4585861 C6.95831962,15.5241666 6.88945772,15.5625666 6.81867975,15.5523546 L4.84160699,15.5523546 C4.74981758,15.5582947 4.67668894,15.6314233 4.67074885,15.7232127 L4.67074885,19.6773583 C4.67074885,19.7515001 4.61064501,19.8116039 4.53650317,19.8116039 L2.41298057,19.8116039 C2.33883873,19.8116039 2.27873489,19.7515001 2.27873489,19.6773583 L2.27873489,15.7232127 C2.27896423,15.633418 2.20964661,15.5587682 2.1200809,15.5523546 L0.167416442,15.5523546 C0.0989996593,15.5561352 0.0358864073,15.5155655 0.010917341,15.4517557 C-0.0140517253,15.3879459 0.00476610306,15.3153162 0.0575790662,15.2716591 Z" id="Path-Copy-8" fill="#EFF9FF" fill-rule="nonzero" transform="translate(3.500000, 15.905802) scale(1, -1) translate(-3.500000, -15.905802) "></path>
                            <rect id="Rectangle-Copy-13" fill="#EFF9FF" x="18" y="0" width="31" height="2"></rect>
                            <rect id="Rectangle-Copy-14" fill="#EFF9FF" x="18" y="5" width="31" height="2"></rect>
                            <rect id="Rectangle-Copy-15" fill="#EFF9FF" x="18" y="10" width="16" height="2"></rect>
                            <rect id="Rectangle-Copy-16" fill="#F8E388" transform="translate(12.000000, 23.000000) rotate(90.000000) translate(-12.000000, -23.000000) " x="4" y="22" width="16" height="2"></rect>
                            <rect id="Rectangle-Copy-20" fill="#F8E388" transform="translate(32.000000, 23.000000) rotate(90.000000) translate(-32.000000, -23.000000) " x="24" y="22" width="16" height="2"></rect>
                            <rect id="Rectangle-Copy-21" fill="#F8E388" transform="translate(37.000000, 24.500000) rotate(90.000000) translate(-37.000000, -24.500000) " x="30.5" y="23.5" width="13" height="2"></rect>
                            <rect id="Rectangle-Copy-17" fill="#F8E388" transform="translate(17.000000, 26.000000) rotate(90.000000) translate(-17.000000, -26.000000) " x="12" y="25" width="10" height="2"></rect>
                            <rect id="Rectangle-Copy-19" fill="#F8E388" transform="translate(27.000000, 27.000000) rotate(90.000000) translate(-27.000000, -27.000000) " x="23" y="26" width="8" height="2"></rect>
                            <rect id="Rectangle-Copy-18" fill="#F8E388" transform="translate(22.000000, 24.500000) rotate(90.000000) translate(-22.000000, -24.500000) " x="15.5" y="23.5" width="13" height="2"></rect>
                        </g>
                    </g>
                    <g id="Misc" transform="translate(45.000000, 1.000000)" fill="#FFFFFF" fill-rule="nonzero">
                        <path d="M11.7,0.3 C11.3,-0.1 10.7,-0.1 10.3,0.3 C10.1,0.5 10,0.7 10,1 C10,1.3 10.1,1.5 10.3,1.7 C10.5,1.9 10.7,2 11,2 C11.3,2 11.5,1.9 11.7,1.7 C11.9,1.5 12,1.2 12,1 C12,0.7 11.9,0.5 11.7,0.3 Z" id="Path"></path>
                        <path d="M6,0 C5.4,0 5,0.5 5,1 C5,1.6 5.4,2 6,2 C6.6,2 7,1.6 7,1 C7,0.5 6.6,0 6,0 Z" id="Path"></path>
                        <path d="M0.3,0.3 C0.1,0.5 0,0.7 0,1 C0,1.3 0.1,1.5 0.3,1.7 C0.5,1.9 0.7,2 1,2 C1.3,2 1.5,1.9 1.7,1.7 C1.9,1.5 2,1.3 2,1 C2,0.7 1.9,0.5 1.7,0.3 C1.4,-0.1 0.7,-0.1 0.3,0.3 Z" id="Path"></path>
                    </g>
                    <g id="powerbi_icon" transform="translate(2.000000, 3.000000)" fill="#FFFFFF" fill-rule="nonzero">
                        <path d="M11.4666962,7.9995355 L11.2044331,7.9995355 L11.2044331,7.5015967 L11.4666962,7.5015967 C12.0233459,7.50066771 12.4749945,7.07193869 12.4754739,6.5433432 L12.4754739,1.4561923 C12.4749945,0.927132323 12.0233459,0.498403298 11.4666962,0.497938803 L1.53330383,0.497938803 C0.97617467,0.498403298 0.525005532,0.927132323 0.524046618,1.4561923 L0.524046618,6.5438077 C0.525005532,7.07240318 0.97617467,7.50113221 1.53330383,7.5020612 L1.79556687,7.5020612 L1.79556687,8 L1.53330383,8 C0.686582577,7.99860651 0.000958914214,7.34738431 0,6.5438077 L0,1.4561923 C0.000958914214,0.652615688 0.687062034,0.000928990304 1.53330383,0 L11.4666962,0 C12.312938,0.000928990304 12.9990411,0.652615688 13,1.4561923 L13,6.5438077 C12.9990411,7.34738431 12.312938,7.99907101 11.4666962,8" id="Shape"></path>
                        <path d="M3.5,6 C3.63274933,6 3.75977089,6.07327586 3.85377358,6.20402299 C3.94743935,6.33429119 4,6.51149425 4,6.69636015 L4,8.30316092 C4,8.68821839 3.77628032,9 3.5,9 C3.36725067,9 3.24022911,8.92672414 3.14622642,8.79597701 C3.05283112,8.6663538 3.00011991,8.48870512 3,8.30316092 L3,6.69683908 C3,6.31178161 3.22371968,6 3.5,6 L3.5,6 Z" id="Shape"></path>
                        <path d="M5.50016841,8.99956605 C5.22398114,8.99956605 5,8.71706301 5,8.36816525 L5,4.63183475 C5,4.28250304 5.22398114,4 5.50016841,4 C5.77635568,4 6,4.28250304 6,4.6314008 L6,8.36816525 C6,8.71706301 5.77601886,8.99956605 5.50016841,9" id="Shape"></path>
                        <path d="M9.50016841,9 C9.22398114,9 9.00033681,8.69784839 9,8.32571996 L9,2.67428004 C9,2.30215161 9.22398114,2 9.50016841,2 C9.77635568,2 10,2.30215161 10,2.67428004 L10,8.32571996 C10,8.69784839 9.77635568,9 9.50016841,9" id="Shape"></path>
                        <path d="M7.49983159,8.99957026 C7.22398114,8.99957026 7.00033681,8.71981092 7,8.37430168 L7,5.62526859 C7,5.28018908 7.22398114,5 7.50016841,5 C7.77635568,5 8,5.28018908 8,5.62526859 L8,8.37430168 C8,8.71981092 7.77601886,8.99957026 7.50016841,9" id="Shape"></path>
                    </g>
                </g>
            </g>
        </g>
    </g>
</svg>