<?xml version="1.0" encoding="UTF-8"?>
<svg width="100px" height="100px" viewBox="0 0 100 100" version="1.1" xmlns="http://www.w3.org/2000/svg" xmlns:xlink="http://www.w3.org/1999/xlink">
    <!-- Generator: Sketch 52.3 (67297) - http://www.bohemiancoding.com/sketch -->
    <title>Universal Resource Scheduling for Microsoft Dynamics 365/manage-scheduling-options-in-dynamics-365-for-field-service</title>
    <desc>Created with Sketch.</desc>
    <defs>
        <rect id="path-1" x="0" y="0" width="96" height="96" rx="48"></rect>
        <filter x="-17.8%" y="-14.8%" width="137.8%" height="129.6%" filterUnits="objectBoundingBox" id="filter-3">
            <feOffset dx="0" dy="2" in="SourceAlpha" result="shadowOffsetOuter1"></feOffset>
            <feColorMatrix values="0 0 0 0 0   0 0 0 0 0   0 0 0 0 0  0 0 0 0.10045856 0" type="matrix" in="shadowOffsetOuter1" result="shadowMatrixOuter1"></feColorMatrix>
            <feMerge>
                <feMergeNode in="shadowMatrixOuter1"></feMergeNode>
                <feMergeNode in="SourceGraphic"></feMergeNode>
            </feMerge>
        </filter>
        <filter x="-17.8%" y="-14.8%" width="137.8%" height="129.6%" filterUnits="objectBoundingBox" id="filter-4">
            <feOffset dx="0" dy="2" in="SourceAlpha" result="shadowOffsetOuter1"></feOffset>
            <feColorMatrix values="0 0 0 0 0   0 0 0 0 0   0 0 0 0 0  0 0 0 0.10045856 0" type="matrix" in="shadowOffsetOuter1" result="shadowMatrixOuter1"></feColorMatrix>
            <feMerge>
                <feMergeNode in="shadowMatrixOuter1"></feMergeNode>
                <feMergeNode in="SourceGraphic"></feMergeNode>
            </feMerge>
        </filter>
        <filter x="-17.8%" y="-14.8%" width="137.8%" height="129.6%" filterUnits="objectBoundingBox" id="filter-5">
            <feOffset dx="0" dy="2" in="SourceAlpha" result="shadowOffsetOuter1"></feOffset>
            <feColorMatrix values="0 0 0 0 0   0 0 0 0 0   0 0 0 0 0  0 0 0 0.10045856 0" type="matrix" in="shadowOffsetOuter1" result="shadowMatrixOuter1"></feColorMatrix>
            <feMerge>
                <feMergeNode in="shadowMatrixOuter1"></feMergeNode>
                <feMergeNode in="SourceGraphic"></feMergeNode>
            </feMerge>
        </filter>
        <filter x="-14.3%" y="-19.2%" width="129.0%" height="134.5%" filterUnits="objectBoundingBox" id="filter-6">
            <feOffset dx="0" dy="2" in="SourceAlpha" result="shadowOffsetOuter1"></feOffset>
            <feColorMatrix values="0 0 0 0 0   0 0 0 0 0   0 0 0 0 0  0 0 0 0.2 0" type="matrix" in="shadowOffsetOuter1" result="shadowMatrixOuter1"></feColorMatrix>
            <feMerge>
                <feMergeNode in="shadowMatrixOuter1"></feMergeNode>
                <feMergeNode in="SourceGraphic"></feMergeNode>
            </feMerge>
        </filter>
        <filter x="-14.3%" y="-19.2%" width="129.0%" height="134.5%" filterUnits="objectBoundingBox" id="filter-7">
            <feOffset dx="0" dy="2" in="SourceAlpha" result="shadowOffsetOuter1"></feOffset>
            <feColorMatrix values="0 0 0 0 0   0 0 0 0 0   0 0 0 0 0  0 0 0 0.2 0" type="matrix" in="shadowOffsetOuter1" result="shadowMatrixOuter1"></feColorMatrix>
            <feMerge>
                <feMergeNode in="shadowMatrixOuter1"></feMergeNode>
                <feMergeNode in="SourceGraphic"></feMergeNode>
            </feMerge>
        </filter>
        <filter x="-14.3%" y="-19.2%" width="129.0%" height="134.5%" filterUnits="objectBoundingBox" id="filter-8">
            <feOffset dx="0" dy="2" in="SourceAlpha" result="shadowOffsetOuter1"></feOffset>
            <feColorMatrix values="0 0 0 0 0   0 0 0 0 0   0 0 0 0 0  0 0 0 0.2 0" type="matrix" in="shadowOffsetOuter1" result="shadowMatrixOuter1"></feColorMatrix>
            <feMerge>
                <feMergeNode in="shadowMatrixOuter1"></feMergeNode>
                <feMergeNode in="SourceGraphic"></feMergeNode>
            </feMerge>
        </filter>
    </defs>
    <g id="Badges" stroke="none" stroke-width="1" fill="none" fill-rule="evenodd">
        <g id="Universal-Resource-Scheduling-for-Microsoft-Dynamics-365" transform="translate(-579.000000, -527.000000)">
            <g id="Universal-Resource-Scheduling-for-Microsoft-Dynamics-365/manage-scheduling-options-in-dynamics-365-for-field-service" transform="translate(579.000000, 527.000000)">
                <g id="Mask" transform="translate(2.000000, 2.000000)">
                    <mask id="mask-2" fill="white">
                        <use xlink:href="#path-1"></use>
                    </mask>
                    <use id="BG" fill="#01B6C3" xlink:href="#path-1"></use>
                    <g id="Group-7" mask="url(#mask-2)">
                        <g transform="translate(45.806694, 54.130945) rotate(3.000000) translate(-45.806694, -54.130945) translate(5.756694, 10.930945)">
                            <g id="Group-5" transform="translate(64.428989, 49.693690) rotate(20.000000) translate(-64.428989, -49.693690) translate(53.178989, 36.193690)">
                                <g id="Clock" filter="url(#filter-3)">
                                    <path d="M5.40221674,4.51416424 L4.33638951,3.18188021" id="Fill-1" fill="#CC9547"></path>
                                    <path d="M17.8994105,3.18188021 L19.1816056,4.20829318 L18.1519081,5.49500447 C17.7388795,5.13575993 17.2987536,4.80730778 16.8335833,4.51416424 L17.8994105,3.18188021 Z" id="Fill-2" fill="#FDBD0F"></path>
                                    <path d="M4.03752534,2.97169811 L5.31972042,3.99811108 L4.29002293,5.28482238 C3.87699435,4.92557784 3.43686847,4.59712569 2.97169811,4.30398215 L4.03752534,2.97169811 Z" id="Fill-2" fill="#FDBD0F" transform="translate(4.145709, 4.128260) scale(-1, 1) translate(-4.145709, -4.128260) "></path>
                                    <path d="M7.20131339,2.29341714 C7.46120116,2.20350336 7.57205376,1.89065269 7.40905938,1.66894749 C6.5715064,0.528807962 5.16080441,-0.155193641 3.59860387,0.0303818239 C2.02942372,0.216778419 0.673326908,1.32817838 0.198302986,2.83536319 C-0.226631984,4.1832487 0.0583002567,5.53400817 0.807581724,6.54523022 C0.968112713,6.76200864 1.30149165,6.75954525 1.46079094,6.54153514 C2.88093592,4.59381389 4.87833556,3.09484039 7.20131339,2.29341714 Z" id="Fill-4" fill="#FCD116"></path>
                                    <path d="M21.9730383,2.83536319 C21.4976038,1.32817838 20.141507,0.216367854 18.5723268,0.0303818239 C17.0101263,-0.155193641 15.5998349,0.528807962 14.7622819,1.66894749 C14.5992875,1.89065269 14.7097295,2.20350336 14.9700279,2.29341714 C17.2930057,3.09484039 19.2899948,4.59381389 20.7105503,6.54153514 C20.8694391,6.75954525 21.202818,6.76200864 21.3637595,6.54523022 C22.113041,5.53400817 22.3979733,4.1832487 21.9730383,2.83536319 Z" id="Fill-5" fill="#FCD116"></path>
                                    <path d="M11.1691772,22.7626058 C6.17306151,22.7626058 2.12292528,18.7106814 2.12292528,13.7162086 C2.12292528,8.72173573 6.17306151,4.66981132 11.1691772,4.66981132 C16.165293,4.66981132 20.2154292,8.72173573 20.2154292,13.7162086 C20.2154292,18.7106814 16.165293,22.7626058 11.1691772,22.7626058 Z" id="Fill-7" fill="#E1E4E1"></path>
                                    <path d="M2.46380169,13.5486512 C2.46380169,13.6874222 2.47817147,13.8220876 2.48474052,13.9592164 C2.66744203,10.0900501 5.39400544,6.88476763 9.0328447,5.99425174 C10.0752697,5.73929076 11.0856706,6.51402727 11.0856706,7.58724467 L11.0856706,22.1705201 C16.0025993,22.1705201 19.9583949,18.0525513 19.6948121,13.0797858 C19.464485,8.72820533 15.8979052,5.16532063 11.5463248,4.93868864 C6.57561205,4.68003258 2.46380169,8.63623873 2.46380169,13.5486512 Z" id="Fill-8" fill="#C5CCCD"></path>
                                    <path d="M2.46380169,13.5486512 C2.46380169,8.79471689 6.33173633,4.92678225 11.0856706,4.92678225 C15.8396049,4.92678225 19.7075396,8.79471689 19.7075396,13.5486512 C19.7075396,18.3025855 15.8396049,22.1705201 11.0856706,22.1705201 C6.33173633,22.1705201 2.46380169,18.3025855 2.46380169,13.5486512 Z M22.1709307,13.5486512 C22.1709307,7.43615668 17.1977546,2.46339113 11.0856706,2.46339113 C4.97317612,2.46339113 0.000410565188,7.43615668 0.000410565188,13.5486512 C0.000410565188,17.0803329 1.66278901,20.2289574 4.24360178,22.2608445 L2.21746258,24.9623634 C1.94525786,25.325303 2.01874903,25.8397412 2.38168865,26.1119459 C2.52949212,26.222388 2.70234007,26.276172 2.87354575,26.276172 C3.12316938,26.276172 3.36991906,26.162856 3.53086062,25.9477199 L5.60708877,23.1796894 C7.22430505,24.1030505 9.09360835,24.6339113 11.0856706,24.6339113 C13.0773224,24.6339113 14.9466257,24.1030505 16.5642525,23.1796894 L18.6400701,25.9477199 C18.8014222,26.1632666 19.0477613,26.276172 19.2977955,26.276172 C19.4690012,26.276172 19.6418492,26.222388 19.7896526,26.1119459 C20.1525922,25.8397412 20.2256728,25.325303 19.9534681,24.9623634 L17.9277395,22.2608445 C20.5085523,20.2289574 22.1709307,17.0803329 22.1709307,13.5486512 Z" id="Fill-9" fill="#30404D"></path>
                                    <path d="M11.0856706,22.1705201 L11.0856706,24.6339113 C13.0773224,24.6339113 14.9466257,24.1030505 16.5642525,23.1796894 L18.6400701,25.9477199 C18.8014222,26.1632666 19.0477613,26.276172 19.2977955,26.276172 C19.4690012,26.276172 19.6418492,26.222388 19.7896526,26.1119459 C20.1525922,25.8397412 20.2256728,25.325303 19.9534681,24.9623634 L17.9277395,22.2608445 C20.5085523,20.2289574 22.1709307,17.0803329 22.1709307,13.5486512 C22.1709307,7.43615668 17.1977546,2.46339113 11.0856706,2.46339113 L11.0856706,4.92678225 C15.8396049,4.92678225 19.7075396,8.79471689 19.7075396,13.5486512 C19.7075396,18.3025855 15.8396049,22.1705201 11.0856706,22.1705201 Z" id="Fill-20" fill="#243038"></path>
                                    <path d="M20.3890778,6.12234808 C20.497467,6.25824516 20.6033928,6.39660563 20.7064447,6.53701892 C20.8677968,6.75749243 21.2052814,6.75913469 21.3678652,6.53948231 C21.8773766,5.8497328 22.1709307,5.00191568 22.1709307,4.10565188 C22.1709307,1.84179543 20.3287247,0 18.0652788,0 C17.8530166,0 17.6465023,0.0205282594 17.442862,0.0513206485 C19.4148066,0.350212105 20.9326661,2.05200481 20.9326661,4.10565188 C20.9326661,4.83071 20.7323103,5.51922782 20.3890778,6.12234808 Z" id="Fill-26" fill="#FDBD0F"></path>
                                    <path d="M7.2000817,2.2938277 C7.4595589,2.20432449 7.57246432,1.89229495 7.40905938,1.67182144 C6.66100961,0.658546561 5.4592853,0 4.10606244,0 C3.89380024,0 3.68728595,0.0205282594 3.48364562,0.0513206485 C4.90871739,0.267277937 6.09319795,1.21773635 6.64253417,2.50239482 C6.82605681,2.42849309 7.01204284,2.358697 7.2000817,2.2938277 Z" id="Fill-27" fill="#FDBD0F"></path>
                                </g>
                                <g id="Group-3" transform="translate(10.613208, 10.188679)" fill-rule="nonzero">
                                    <path d="M1.27891991,4.02504033 L4.51018564,4.59479966 C4.85653343,4.65587012 5.0877964,4.98614787 5.02672594,5.33249565 C4.96565548,5.67884344 4.63537773,5.91010641 4.28902994,5.84903595 L0.526321076,5.18556886 C0.189065051,5.12610152 -0.039068893,4.81137498 0.00557253027,4.47511035 C0.00541452029,4.46927521 0.00533500643,4.46342047 0.00533500643,4.45754717 L0.00533500643,0.636792453 C0.00533500643,0.285101692 0.290436699,-1.85871423e-14 0.642127459,-1.86517468e-14 C0.99381822,-1.87163514e-14 1.27891991,0.285101692 1.27891991,0.636792453 L1.27891991,4.02504033 Z" id="Combined-Shape" fill="#FCD116"></path>
                                    <path d="M1.39676217,4.02707189 L0.896014649,4.65784037 C0.896014649,3.31322396 0.896014649,2.24364415 0.896014649,1.44910094 C0.896014649,0.296945642 0.976305492,0.189941902 0.500538478,0.0180287928 C0.552328629,0.00623057565 0.606236943,3.5628838e-15 0.661600486,3.55271368e-15 C1.06040348,3.47945476e-15 1.38369719,0.323293705 1.38369719,0.722096702 L1.38369719,4.02504033 L1.39676217,4.02707189 Z" id="Combined-Shape" fill="#FDBD0F"></path>
                                    <path d="M1.29128221,4.02722014 L4.51018564,4.59479966 C4.85653343,4.65587012 5.0877964,4.98614787 5.02672594,5.33249565 C5.01052105,5.42439815 4.97536147,5.50819761 4.92597655,5.58058252 C4.82389956,4.9134298 4.49496951,5.05160246 3.17054029,4.88943424 C2.21704447,4.77268453 1.44864064,4.68575478 0.865328807,4.62864499 L1.29128221,4.02722014 Z" id="Combined-Shape" fill="#FDBD0F"></path>
                                </g>
                            </g>
                            <g id="Group-5" transform="translate(40.950000, 14.400000) rotate(-2.000000) translate(-40.950000, -14.400000) translate(29.700000, 0.900000)">
                                <g id="Clock" filter="url(#filter-4)">
                                    <path d="M5.40221674,4.51416424 L4.33638951,3.18188021" id="Fill-1" fill="#CC9547"></path>
                                    <path d="M17.8994105,3.18188021 L19.1816056,4.20829318 L18.1519081,5.49500447 C17.7388795,5.13575993 17.2987536,4.80730778 16.8335833,4.51416424 L17.8994105,3.18188021 Z" id="Fill-2" fill="#243038"></path>
                                    <path d="M4.03752534,2.97169811 L5.31972042,3.99811108 L4.29002293,5.28482238 C3.87699435,4.92557784 3.43686847,4.59712569 2.97169811,4.30398215 L4.03752534,2.97169811 Z" id="Fill-2" fill="#243038" transform="translate(4.145709, 4.128260) scale(-1, 1) translate(-4.145709, -4.128260) "></path>
                                    <path d="M7.20131339,2.29341714 C7.46120116,2.20350336 7.57205376,1.89065269 7.40905938,1.66894749 C6.5715064,0.528807962 5.16080441,-0.155193641 3.59860387,0.0303818239 C2.02942372,0.216778419 0.673326908,1.32817838 0.198302986,2.83536319 C-0.226631984,4.1832487 0.0583002567,5.53400817 0.807581724,6.54523022 C0.968112713,6.76200864 1.30149165,6.75954525 1.46079094,6.54153514 C2.88093592,4.59381389 4.87833556,3.09484039 7.20131339,2.29341714 Z" id="Fill-4" fill="#354652"></path>
                                    <path d="M21.9730383,2.83536319 C21.4976038,1.32817838 20.141507,0.216367854 18.5723268,0.0303818239 C17.0101263,-0.155193641 15.5998349,0.528807962 14.7622819,1.66894749 C14.5992875,1.89065269 14.7097295,2.20350336 14.9700279,2.29341714 C17.2930057,3.09484039 19.2899948,4.59381389 20.7105503,6.54153514 C20.8694391,6.75954525 21.202818,6.76200864 21.3637595,6.54523022 C22.113041,5.53400817 22.3979733,4.1832487 21.9730383,2.83536319 Z" id="Fill-5" fill="#354652"></path>
                                    <path d="M11.1691772,22.7626058 C6.17306151,22.7626058 2.12292528,18.7106814 2.12292528,13.7162086 C2.12292528,8.72173573 6.17306151,4.66981132 11.1691772,4.66981132 C16.165293,4.66981132 20.2154292,8.72173573 20.2154292,13.7162086 C20.2154292,18.7106814 16.165293,22.7626058 11.1691772,22.7626058 Z" id="Fill-7" fill="#E1E4E1"></path>
                                    <path d="M2.46380169,13.5486512 C2.46380169,13.6874222 2.47817147,13.8220876 2.48474052,13.9592164 C2.66744203,10.0900501 5.39400544,6.88476763 9.0328447,5.99425174 C10.0752697,5.73929076 11.0856706,6.51402727 11.0856706,7.58724467 L11.0856706,22.1705201 C16.0025993,22.1705201 19.9583949,18.0525513 19.6948121,13.0797858 C19.464485,8.72820533 15.8979052,5.16532063 11.5463248,4.93868864 C6.57561205,4.68003258 2.46380169,8.63623873 2.46380169,13.5486512 Z" id="Fill-8" fill="#C5CCCD"></path>
                                    <path d="M2.46380169,13.5486512 C2.46380169,8.79471689 6.33173633,4.92678225 11.0856706,4.92678225 C15.8396049,4.92678225 19.7075396,8.79471689 19.7075396,13.5486512 C19.7075396,18.3025855 15.8396049,22.1705201 11.0856706,22.1705201 C6.33173633,22.1705201 2.46380169,18.3025855 2.46380169,13.5486512 Z M22.1709307,13.5486512 C22.1709307,7.43615668 17.1977546,2.46339113 11.0856706,2.46339113 C4.97317612,2.46339113 0.000410565188,7.43615668 0.000410565188,13.5486512 C0.000410565188,17.0803329 1.66278901,20.2289574 4.24360178,22.2608445 L2.21746258,24.9623634 C1.94525786,25.325303 2.01874903,25.8397412 2.38168865,26.1119459 C2.52949212,26.222388 2.70234007,26.276172 2.87354575,26.276172 C3.12316938,26.276172 3.36991906,26.162856 3.53086062,25.9477199 L5.60708877,23.1796894 C7.22430505,24.1030505 9.09360835,24.6339113 11.0856706,24.6339113 C13.0773224,24.6339113 14.9466257,24.1030505 16.5642525,23.1796894 L18.6400701,25.9477199 C18.8014222,26.1632666 19.0477613,26.276172 19.2977955,26.276172 C19.4690012,26.276172 19.6418492,26.222388 19.7896526,26.1119459 C20.1525922,25.8397412 20.2256728,25.325303 19.9534681,24.9623634 L17.9277395,22.2608445 C20.5085523,20.2289574 22.1709307,17.0803329 22.1709307,13.5486512 Z" id="Fill-9" fill="#DF5142"></path>
                                    <path d="M11.0856706,22.1705201 L11.0856706,24.6339113 C13.0773224,24.6339113 14.9466257,24.1030505 16.5642525,23.1796894 L18.6400701,25.9477199 C18.8014222,26.1632666 19.0477613,26.276172 19.2977955,26.276172 C19.4690012,26.276172 19.6418492,26.222388 19.7896526,26.1119459 C20.1525922,25.8397412 20.2256728,25.325303 19.9534681,24.9623634 L17.9277395,22.2608445 C20.5085523,20.2289574 22.1709307,17.0803329 22.1709307,13.5486512 C22.1709307,7.43615668 17.1977546,2.46339113 11.0856706,2.46339113 L11.0856706,4.92678225 C15.8396049,4.92678225 19.7075396,8.79471689 19.7075396,13.5486512 C19.7075396,18.3025855 15.8396049,22.1705201 11.0856706,22.1705201 Z" id="Fill-20" fill="#B43F3A"></path>
                                    <path d="M20.3890778,6.12234808 C20.497467,6.25824516 20.6033928,6.39660563 20.7064447,6.53701892 C20.8677968,6.75749243 21.2052814,6.75913469 21.3678652,6.53948231 C21.8773766,5.8497328 22.1709307,5.00191568 22.1709307,4.10565188 C22.1709307,1.84179543 20.3287247,0 18.0652788,0 C17.8530166,0 17.6465023,0.0205282594 17.442862,0.0513206485 C19.4148066,0.350212105 20.9326661,2.05200481 20.9326661,4.10565188 C20.9326661,4.83071 20.7323103,5.51922782 20.3890778,6.12234808 Z" id="Fill-26" fill="#243038"></path>
                                    <path d="M7.2000817,2.2938277 C7.4595589,2.20432449 7.57246432,1.89229495 7.40905938,1.67182144 C6.66100961,0.658546561 5.4592853,0 4.10606244,0 C3.89380024,0 3.68728595,0.0205282594 3.48364562,0.0513206485 C4.90871739,0.267277937 6.09319795,1.21773635 6.64253417,2.50239482 C6.82605681,2.42849309 7.01204284,2.358697 7.2000817,2.2938277 Z" id="Fill-27" fill="#243038"></path>
                                </g>
                                <g id="Group-3" transform="translate(10.188679, 10.188679)" fill-rule="nonzero">
                                    <path d="M1.27891991,4.02504033 L4.51018564,4.59479966 C4.85653343,4.65587012 5.0877964,4.98614787 5.02672594,5.33249565 C4.96565548,5.67884344 4.63537773,5.91010641 4.28902994,5.84903595 L0.526321076,5.18556886 C0.189065051,5.12610152 -0.039068893,4.81137498 0.00557253027,4.47511035 C0.00541452029,4.46927521 0.00533500643,4.46342047 0.00533500643,4.45754717 L0.00533500643,0.636792453 C0.00533500643,0.285101692 0.290436699,-1.85871423e-14 0.642127459,-1.86517468e-14 C0.99381822,-1.87163514e-14 1.27891991,0.285101692 1.27891991,0.636792453 L1.27891991,4.02504033 Z" id="Combined-Shape" fill="#354652"></path>
                                    <path d="M1.39676217,4.02707189 L0.896014649,4.65784037 C0.896014649,3.31322396 0.896014649,2.24364415 0.896014649,1.44910094 C0.896014649,0.296945642 0.976305492,0.189941902 0.500538478,0.0180287928 C0.552328629,0.00623057565 0.606236943,3.5628838e-15 0.661600486,3.55271368e-15 C1.06040348,3.47945476e-15 1.38369719,0.323293705 1.38369719,0.722096702 L1.38369719,4.02504033 L1.39676217,4.02707189 Z" id="Combined-Shape" fill="#243038"></path>
                                    <path d="M1.29128221,4.02722014 L4.51018564,4.59479966 C4.85653343,4.65587012 5.0877964,4.98614787 5.02672594,5.33249565 C5.01052105,5.42439815 4.97536147,5.50819761 4.92597655,5.58058252 C4.82389956,4.9134298 4.49496951,5.05160246 3.17054029,4.88943424 C2.21704447,4.77268453 1.44864064,4.68575478 0.865328807,4.62864499 L1.29128221,4.02722014 Z" id="Combined-Shape" fill="#243038"></path>
                                </g>
                            </g>
                            <g id="Group-5" transform="translate(20.319405, 52.344219) rotate(-20.000000) translate(-20.319405, -52.344219) translate(9.069405, 38.844219)">
                                <g id="Clock" filter="url(#filter-5)">
                                    <path d="M5.40221674,4.51416424 L4.33638951,3.18188021" id="Fill-1" fill="#CC9547"></path>
                                    <path d="M17.8994105,3.18188021 L19.1816056,4.20829318 L18.1519081,5.49500447 C17.7388795,5.13575993 17.2987536,4.80730778 16.8335833,4.51416424 L17.8994105,3.18188021 Z" id="Fill-2" fill="#B43F3A"></path>
                                    <path d="M4.03752534,2.97169811 L5.31972042,3.99811108 L4.29002293,5.28482238 C3.87699435,4.92557784 3.43686847,4.59712569 2.97169811,4.30398215 L4.03752534,2.97169811 Z" id="Fill-2" fill="#B43F3A" transform="translate(4.145709, 4.128260) scale(-1, 1) translate(-4.145709, -4.128260) "></path>
                                    <path d="M7.20131339,2.29341714 C7.46120116,2.20350336 7.57205376,1.89065269 7.40905938,1.66894749 C6.5715064,0.528807962 5.16080441,-0.155193641 3.59860387,0.0303818239 C2.02942372,0.216778419 0.673326908,1.32817838 0.198302986,2.83536319 C-0.226631984,4.1832487 0.0583002567,5.53400817 0.807581724,6.54523022 C0.968112713,6.76200864 1.30149165,6.75954525 1.46079094,6.54153514 C2.88093592,4.59381389 4.87833556,3.09484039 7.20131339,2.29341714 Z" id="Fill-4" fill="#DF5142"></path>
                                    <path d="M21.9730383,2.83536319 C21.4976038,1.32817838 20.141507,0.216367854 18.5723268,0.0303818239 C17.0101263,-0.155193641 15.5998349,0.528807962 14.7622819,1.66894749 C14.5992875,1.89065269 14.7097295,2.20350336 14.9700279,2.29341714 C17.2930057,3.09484039 19.2899948,4.59381389 20.7105503,6.54153514 C20.8694391,6.75954525 21.202818,6.76200864 21.3637595,6.54523022 C22.113041,5.53400817 22.3979733,4.1832487 21.9730383,2.83536319 Z" id="Fill-5" fill="#DF5142"></path>
                                    <path d="M11.1691772,22.7626058 C6.17306151,22.7626058 2.12292528,18.7106814 2.12292528,13.7162086 C2.12292528,8.72173573 6.17306151,4.66981132 11.1691772,4.66981132 C16.165293,4.66981132 20.2154292,8.72173573 20.2154292,13.7162086 C20.2154292,18.7106814 16.165293,22.7626058 11.1691772,22.7626058 Z" id="Fill-7" fill="#E1E4E1"></path>
                                    <path d="M2.46380169,13.5486512 C2.46380169,13.6874222 2.47817147,13.8220876 2.48474052,13.9592164 C2.66744203,10.0900501 5.39400544,6.88476763 9.0328447,5.99425174 C10.0752697,5.73929076 11.0856706,6.51402727 11.0856706,7.58724467 L11.0856706,22.1705201 C16.0025993,22.1705201 19.9583949,18.0525513 19.6948121,13.0797858 C19.464485,8.72820533 15.8979052,5.16532063 11.5463248,4.93868864 C6.57561205,4.68003258 2.46380169,8.63623873 2.46380169,13.5486512 Z" id="Fill-8" fill="#C5CCCD"></path>
                                    <path d="M2.46380169,13.5486512 C2.46380169,8.79471689 6.33173633,4.92678225 11.0856706,4.92678225 C15.8396049,4.92678225 19.7075396,8.79471689 19.7075396,13.5486512 C19.7075396,18.3025855 15.8396049,22.1705201 11.0856706,22.1705201 C6.33173633,22.1705201 2.46380169,18.3025855 2.46380169,13.5486512 Z M22.1709307,13.5486512 C22.1709307,7.43615668 17.1977546,2.46339113 11.0856706,2.46339113 C4.97317612,2.46339113 0.000410565188,7.43615668 0.000410565188,13.5486512 C0.000410565188,17.0803329 1.66278901,20.2289574 4.24360178,22.2608445 L2.21746258,24.9623634 C1.94525786,25.325303 2.01874903,25.8397412 2.38168865,26.1119459 C2.52949212,26.222388 2.70234007,26.276172 2.87354575,26.276172 C3.12316938,26.276172 3.36991906,26.162856 3.53086062,25.9477199 L5.60708877,23.1796894 C7.22430505,24.1030505 9.09360835,24.6339113 11.0856706,24.6339113 C13.0773224,24.6339113 14.9466257,24.1030505 16.5642525,23.1796894 L18.6400701,25.9477199 C18.8014222,26.1632666 19.0477613,26.276172 19.2977955,26.276172 C19.4690012,26.276172 19.6418492,26.222388 19.7896526,26.1119459 C20.1525922,25.8397412 20.2256728,25.325303 19.9534681,24.9623634 L17.9277395,22.2608445 C20.5085523,20.2289574 22.1709307,17.0803329 22.1709307,13.5486512 Z" id="Fill-9" fill="#FCD116"></path>
                                    <path d="M11.0856706,22.1705201 L11.0856706,24.6339113 C13.0773224,24.6339113 14.9466257,24.1030505 16.5642525,23.1796894 L18.6400701,25.9477199 C18.8014222,26.1632666 19.0477613,26.276172 19.2977955,26.276172 C19.4690012,26.276172 19.6418492,26.222388 19.7896526,26.1119459 C20.1525922,25.8397412 20.2256728,25.325303 19.9534681,24.9623634 L17.9277395,22.2608445 C20.5085523,20.2289574 22.1709307,17.0803329 22.1709307,13.5486512 C22.1709307,7.43615668 17.1977546,2.46339113 11.0856706,2.46339113 L11.0856706,4.92678225 C15.8396049,4.92678225 19.7075396,8.79471689 19.7075396,13.5486512 C19.7075396,18.3025855 15.8396049,22.1705201 11.0856706,22.1705201 Z" id="Fill-20" fill="#FDBD0F"></path>
                                    <path d="M20.3890778,6.12234808 C20.497467,6.25824516 20.6033928,6.39660563 20.7064447,6.53701892 C20.8677968,6.75749243 21.2052814,6.75913469 21.3678652,6.53948231 C21.8773766,5.8497328 22.1709307,5.00191568 22.1709307,4.10565188 C22.1709307,1.84179543 20.3287247,0 18.0652788,0 C17.8530166,0 17.6465023,0.0205282594 17.442862,0.0513206485 C19.4148066,0.350212105 20.9326661,2.05200481 20.9326661,4.10565188 C20.9326661,4.83071 20.7323103,5.51922782 20.3890778,6.12234808 Z" id="Fill-26" fill="#B43F3A"></path>
                                    <path d="M7.2000817,2.2938277 C7.4595589,2.20432449 7.57246432,1.89229495 7.40905938,1.67182144 C6.66100961,0.658546561 5.4592853,0 4.10606244,0 C3.89380024,0 3.68728595,0.0205282594 3.48364562,0.0513206485 C4.90871739,0.267277937 6.09319795,1.21773635 6.64253417,2.50239482 C6.82605681,2.42849309 7.01204284,2.358697 7.2000817,2.2938277 Z" id="Fill-27" fill="#B43F3A"></path>
                                </g>
                                <g id="Group-3" transform="translate(10.613208, 10.188679)" fill-rule="nonzero">
                                    <path d="M1.27891991,4.02504033 L4.51018564,4.59479966 C4.85653343,4.65587012 5.0877964,4.98614787 5.02672594,5.33249565 C4.96565548,5.67884344 4.63537773,5.91010641 4.28902994,5.84903595 L0.526321076,5.18556886 C0.189065051,5.12610152 -0.039068893,4.81137498 0.00557253027,4.47511035 C0.00541452029,4.46927521 0.00533500643,4.46342047 0.00533500643,4.45754717 L0.00533500643,0.636792453 C0.00533500643,0.285101692 0.290436699,-1.85871423e-14 0.642127459,-1.86517468e-14 C0.99381822,-1.87163514e-14 1.27891991,0.285101692 1.27891991,0.636792453 L1.27891991,4.02504033 Z" id="Combined-Shape" fill="#DF5142"></path>
                                    <path d="M1.39676217,4.02707189 L0.896014649,4.65784037 C0.896014649,3.31322396 0.896014649,2.24364415 0.896014649,1.44910094 C0.896014649,0.296945642 0.976305492,0.189941902 0.500538478,0.0180287928 C0.552328629,0.00623057565 0.606236943,3.5628838e-15 0.661600486,3.55271368e-15 C1.06040348,3.47945476e-15 1.38369719,0.323293705 1.38369719,0.722096702 L1.38369719,4.02504033 L1.39676217,4.02707189 Z" id="Combined-Shape" fill="#B43F3A"></path>
                                    <path d="M1.29128221,4.02722014 L4.51018564,4.59479966 C4.85653343,4.65587012 5.0877964,4.98614787 5.02672594,5.33249565 C5.01052105,5.42439815 4.97536147,5.50819761 4.92597655,5.58058252 C4.82389956,4.9134298 4.49496951,5.05160246 3.17054029,4.88943424 C2.21704447,4.77268453 1.44864064,4.68575478 0.865328807,4.62864499 L1.29128221,4.02722014 Z" id="Combined-Shape" fill="#B43F3A"></path>
                                </g>
                            </g>
                            <g id="Group" filter="url(#filter-6)" transform="translate(63.484520, 22.286834) rotate(-2.000000) translate(-63.484520, -22.286834) translate(49.534520, 9.236834)">
                                <g id="Group-6" transform="translate(13.803632, 12.727822) rotate(200.000000) translate(-13.803632, -12.727822) translate(2.553632, 3.277822)" fill="#FFFFFF">
                                    <path d="M20.6323152,18.2913928 C20.7052152,18.3102928 20.7790152,18.3183928 20.8510152,18.3183928 C21.2542152,18.3183928 21.6205152,18.0456928 21.7231152,17.6361928 C21.8437152,17.1537928 21.5503152,16.6650928 21.0679152,16.5453928 C12.4954152,14.4033928 5.44211515,8.56239276 1.71701515,0.520892756 C1.50821515,0.0708927562 0.974515154,-0.124407244 0.521815154,0.0825927562 C0.0709151542,0.291392756 -0.125284846,0.825992756 0.0835151542,1.27779276 C4.03991515,9.81519276 11.5297152,16.0170928 20.6323152,18.2913928 Z" id="Path"></path>
                                    <path d="M20.5963152,13.2864928 C20.6827152,13.3125928 20.7709152,13.3251928 20.8573152,13.3251928 C21.2434152,13.3251928 21.6007152,13.0740928 21.7186152,12.6852928 C21.8626152,12.2091928 21.5926152,11.7069928 21.1174152,11.5629928 C17.0422152,10.3326928 13.3405152,8.02959276 10.4128152,4.90479276 C10.0735152,4.54299276 9.50381515,4.52409276 9.14021515,4.86339276 C8.77751515,5.20269276 8.75861515,5.77239276 9.09881515,6.13599276 C12.2425152,9.49119276 16.2187152,11.9634928 20.5963152,13.2864928 Z" id="Path"></path>
                                </g>
                                <path d="M6.219,5.85527344 C5.98687939,5.7543457 5.8041687,5.7543457 5.67086792,5.85527344 C5.53997225,5.95438016 5.1978104,6.3189145 5.38961538,6.64566127 C5.53997225,6.90179967 5.85152239,7.09842355 6.11819196,7.3496024 C7.32183136,8.4833229 7.71447405,8.78181152 9.86208147,11.1265137 C10.5859056,11.9167661 11.3202678,13.026071 12.0388184,14.1297991 C12.4785852,14.805302 12.9778439,15.8662418 13.8665039,17.3847656 C13.8881167,17.4216972 14.0198675,17.6329764 13.9452288,17.7053938 C13.9091223,17.7404257 13.8154978,17.7716425 13.6643555,17.7990444 C13.6121603,17.8064352 13.5276597,17.7752183 13.4108538,17.7053938 C13.2084542,17.5844029 13.1419085,17.5276193 13.0133606,17.2307373 C12.8848127,16.9338553 12.5501378,16.1844622 12.1491054,15.432605 C11.748073,14.6807478 11.2967233,13.9529506 10.8102958,13.2160034 C10.4236177,12.6301786 9.89704939,11.8903774 9.09000942,10.9497123 C7.88104475,9.54057403 6.93288639,8.73231573 6.19859619,8.1194458 C5.68358796,7.68959796 5.14679653,7.31052246 5.04804513,7.16059047 C4.8086367,6.79710211 4.85658482,6.27400949 5.19937395,5.97262312 C5.29454799,5.88894439 5.33518066,5.83410121 5.58232596,5.76752407 C5.82055141,5.71414097 6.03277609,5.74339076 6.219,5.85527344 Z" id="Path-7" fill-opacity="0.5" fill="#D8D8D8" fill-rule="nonzero"></path>
                                <path d="M8.1,1.25721261 C7.77235543,1.14884338 7.50219639,1.19785287 7.28952288,1.40424107 C7.08068658,1.60690547 7.08068658,2.06489607 7.96540179,2.7 C8.85967103,3.34196242 9.26511579,3.56421596 10.2700195,4.40966099 C11.2749233,5.25510603 12.5549158,6.21855451 15.9837074,11.0975725 C17.1,12.6860073 17.9892488,14.8432643 18.9,17.3850167 C19.4819615,19.0091727 19.7976144,20.4136649 19.9555664,21.2660784 C20.1135184,22.1184919 20.1916783,22.4500279 20.2833984,22.9982771 C20.3751186,23.5465262 20.430113,23.8466099 20.5758859,24.5009556 C20.6730678,24.9371861 20.575572,25.1481445 20.2833984,25.1338309 C20.2047573,25.1175084 20.0954799,25.0428013 19.9555664,24.9097098 C19.6464011,24.615619 19.7205845,24.3516044 19.5937081,23.3897042 C19.4668318,22.4278041 19.401416,21.8368025 19.0750907,20.3131557 C18.7487653,18.7895089 18.3395321,17.9072754 17.7631975,16.1976144 C17.2972412,14.8153836 16.4915326,13.0211487 15.2039481,11.0975725 C13.2751165,8.21601068 11.6049526,6.50666853 10.2700195,5.2530971 C9.42006329,4.45494406 8.29279436,3.6376988 7.72307478,3.21089565 C7.19586768,2.81594056 6.46401076,2.56193062 6.62221331,1.7443464 C6.67080427,1.49323033 6.91014927,1.20965751 7.2,1.1040632 C7.54871652,1.00723703 7.84871652,1.05828683 8.1,1.25721261 Z" id="Path-7" fill-opacity="0.5" fill="#D8D8D8" fill-rule="nonzero"></path>
                            </g>
                            <g id="Group" filter="url(#filter-7)" transform="translate(43.650643, 67.503444) scale(-1, -1) rotate(-62.000000) translate(-43.650643, -67.503444) translate(29.700643, 54.453444)">
                                <g id="Group-6" transform="translate(13.803632, 12.727822) rotate(200.000000) translate(-13.803632, -12.727822) translate(2.553632, 3.277822)" fill="#FFFFFF">
                                    <path d="M20.6323152,18.2913928 C20.7052152,18.3102928 20.7790152,18.3183928 20.8510152,18.3183928 C21.2542152,18.3183928 21.6205152,18.0456928 21.7231152,17.6361928 C21.8437152,17.1537928 21.5503152,16.6650928 21.0679152,16.5453928 C12.4954152,14.4033928 5.44211515,8.56239276 1.71701515,0.520892756 C1.50821515,0.0708927562 0.974515154,-0.124407244 0.521815154,0.0825927562 C0.0709151542,0.291392756 -0.125284846,0.825992756 0.0835151542,1.27779276 C4.03991515,9.81519276 11.5297152,16.0170928 20.6323152,18.2913928 Z" id="Path"></path>
                                    <path d="M20.5963152,13.2864928 C20.6827152,13.3125928 20.7709152,13.3251928 20.8573152,13.3251928 C21.2434152,13.3251928 21.6007152,13.0740928 21.7186152,12.6852928 C21.8626152,12.2091928 21.5926152,11.7069928 21.1174152,11.5629928 C17.0422152,10.3326928 13.3405152,8.02959276 10.4128152,4.90479276 C10.0735152,4.54299276 9.50381515,4.52409276 9.14021515,4.86339276 C8.77751515,5.20269276 8.75861515,5.77239276 9.09881515,6.13599276 C12.2425152,9.49119276 16.2187152,11.9634928 20.5963152,13.2864928 Z" id="Path"></path>
                                </g>
                                <path d="M6.219,5.85527344 C5.98687939,5.7543457 5.8041687,5.7543457 5.67086792,5.85527344 C5.53997225,5.95438016 5.1978104,6.3189145 5.38961538,6.64566127 C5.53997225,6.90179967 5.85152239,7.09842355 6.11819196,7.3496024 C7.32183136,8.4833229 7.71447405,8.78181152 9.86208147,11.1265137 C10.5859056,11.9167661 11.3202678,13.026071 12.0388184,14.1297991 C12.4785852,14.805302 12.9778439,15.8662418 13.8665039,17.3847656 C13.8881167,17.4216972 14.0198675,17.6329764 13.9452288,17.7053938 C13.9091223,17.7404257 13.8154978,17.7716425 13.6643555,17.7990444 C13.6121603,17.8064352 13.5276597,17.7752183 13.4108538,17.7053938 C13.2084542,17.5844029 13.1419085,17.5276193 13.0133606,17.2307373 C12.8848127,16.9338553 12.5501378,16.1844622 12.1491054,15.432605 C11.748073,14.6807478 11.2967233,13.9529506 10.8102958,13.2160034 C10.4236177,12.6301786 9.89704939,11.8903774 9.09000942,10.9497123 C7.88104475,9.54057403 6.93288639,8.73231573 6.19859619,8.1194458 C5.68358796,7.68959796 5.14679653,7.31052246 5.04804513,7.16059047 C4.8086367,6.79710211 4.85658482,6.27400949 5.19937395,5.97262312 C5.29454799,5.88894439 5.33518066,5.83410121 5.58232596,5.76752407 C5.82055141,5.71414097 6.03277609,5.74339076 6.219,5.85527344 Z" id="Path-7" fill-opacity="0.5" fill="#D8D8D8" fill-rule="nonzero"></path>
                                <path d="M8.1,1.25721261 C7.77235543,1.14884338 7.50219639,1.19785287 7.28952288,1.40424107 C7.08068658,1.60690547 7.08068658,2.06489607 7.96540179,2.7 C8.85967103,3.34196242 9.26511579,3.56421596 10.2700195,4.40966099 C11.2749233,5.25510603 12.5549158,6.21855451 15.9837074,11.0975725 C17.1,12.6860073 17.9892488,14.8432643 18.9,17.3850167 C19.4819615,19.0091727 19.7976144,20.4136649 19.9555664,21.2660784 C20.1135184,22.1184919 20.1916783,22.4500279 20.2833984,22.9982771 C20.3751186,23.5465262 20.430113,23.8466099 20.5758859,24.5009556 C20.6730678,24.9371861 20.575572,25.1481445 20.2833984,25.1338309 C20.2047573,25.1175084 20.0954799,25.0428013 19.9555664,24.9097098 C19.6464011,24.615619 19.7205845,24.3516044 19.5937081,23.3897042 C19.4668318,22.4278041 19.401416,21.8368025 19.0750907,20.3131557 C18.7487653,18.7895089 18.3395321,17.9072754 17.7631975,16.1976144 C17.2972412,14.8153836 16.4915326,13.0211487 15.2039481,11.0975725 C13.2751165,8.21601068 11.6049526,6.50666853 10.2700195,5.2530971 C9.42006329,4.45494406 8.29279436,3.6376988 7.72307478,3.21089565 C7.19586768,2.81594056 6.46401076,2.56193062 6.62221331,1.7443464 C6.67080427,1.49323033 6.91014927,1.20965751 7.2,1.1040632 C7.54871652,1.00723703 7.84871652,1.05828683 8.1,1.25721261 Z" id="Path-7" fill-opacity="0.5" fill="#D8D8D8" fill-rule="nonzero"></path>
                            </g>
                            <g id="Group" filter="url(#filter-8)" transform="translate(18.963838, 23.887912) scale(-1, -1) rotate(55.000000) translate(-18.963838, -23.887912) translate(5.013838, 10.837912)">
                                <g id="Group-6" transform="translate(13.803632, 12.727822) rotate(200.000000) translate(-13.803632, -12.727822) translate(2.553632, 3.277822)" fill="#FFFFFF">
                                    <path d="M20.6323152,18.2913928 C20.7052152,18.3102928 20.7790152,18.3183928 20.8510152,18.3183928 C21.2542152,18.3183928 21.6205152,18.0456928 21.7231152,17.6361928 C21.8437152,17.1537928 21.5503152,16.6650928 21.0679152,16.5453928 C12.4954152,14.4033928 5.44211515,8.56239276 1.71701515,0.520892756 C1.50821515,0.0708927562 0.974515154,-0.124407244 0.521815154,0.0825927562 C0.0709151542,0.291392756 -0.125284846,0.825992756 0.0835151542,1.27779276 C4.03991515,9.81519276 11.5297152,16.0170928 20.6323152,18.2913928 Z" id="Path"></path>
                                    <path d="M20.5963152,13.2864928 C20.6827152,13.3125928 20.7709152,13.3251928 20.8573152,13.3251928 C21.2434152,13.3251928 21.6007152,13.0740928 21.7186152,12.6852928 C21.8626152,12.2091928 21.5926152,11.7069928 21.1174152,11.5629928 C17.0422152,10.3326928 13.3405152,8.02959276 10.4128152,4.90479276 C10.0735152,4.54299276 9.50381515,4.52409276 9.14021515,4.86339276 C8.77751515,5.20269276 8.75861515,5.77239276 9.09881515,6.13599276 C12.2425152,9.49119276 16.2187152,11.9634928 20.5963152,13.2864928 Z" id="Path"></path>
                                </g>
                                <path d="M6.219,5.85527344 C5.98687939,5.7543457 5.8041687,5.7543457 5.67086792,5.85527344 C5.53997225,5.95438016 5.1978104,6.3189145 5.38961538,6.64566127 C5.53997225,6.90179967 5.85152239,7.09842355 6.11819196,7.3496024 C7.32183136,8.4833229 7.71447405,8.78181152 9.86208147,11.1265137 C10.5859056,11.9167661 11.3202678,13.026071 12.0388184,14.1297991 C12.4785852,14.805302 12.9778439,15.8662418 13.8665039,17.3847656 C13.8881167,17.4216972 14.0198675,17.6329764 13.9452288,17.7053938 C13.9091223,17.7404257 13.8154978,17.7716425 13.6643555,17.7990444 C13.6121603,17.8064352 13.5276597,17.7752183 13.4108538,17.7053938 C13.2084542,17.5844029 13.1419085,17.5276193 13.0133606,17.2307373 C12.8848127,16.9338553 12.5501378,16.1844622 12.1491054,15.432605 C11.748073,14.6807478 11.2967233,13.9529506 10.8102958,13.2160034 C10.4236177,12.6301786 9.89704939,11.8903774 9.09000942,10.9497123 C7.88104475,9.54057403 6.93288639,8.73231573 6.19859619,8.1194458 C5.68358796,7.68959796 5.14679653,7.31052246 5.04804513,7.16059047 C4.8086367,6.79710211 4.85658482,6.27400949 5.19937395,5.97262312 C5.29454799,5.88894439 5.33518066,5.83410121 5.58232596,5.76752407 C5.82055141,5.71414097 6.03277609,5.74339076 6.219,5.85527344 Z" id="Path-7" fill-opacity="0.5" fill="#D8D8D8" fill-rule="nonzero"></path>
                                <path d="M8.1,1.25721261 C7.77235543,1.14884338 7.50219639,1.19785287 7.28952288,1.40424107 C7.08068658,1.60690547 7.08068658,2.06489607 7.96540179,2.7 C8.85967103,3.34196242 9.26511579,3.56421596 10.2700195,4.40966099 C11.2749233,5.25510603 12.5549158,6.21855451 15.9837074,11.0975725 C17.1,12.6860073 17.9892488,14.8432643 18.9,17.3850167 C19.4819615,19.0091727 19.7976144,20.4136649 19.9555664,21.2660784 C20.1135184,22.1184919 20.1916783,22.4500279 20.2833984,22.9982771 C20.3751186,23.5465262 20.430113,23.8466099 20.5758859,24.5009556 C20.6730678,24.9371861 20.575572,25.1481445 20.2833984,25.1338309 C20.2047573,25.1175084 20.0954799,25.0428013 19.9555664,24.9097098 C19.6464011,24.615619 19.7205845,24.3516044 19.5937081,23.3897042 C19.4668318,22.4278041 19.401416,21.8368025 19.0750907,20.3131557 C18.7487653,18.7895089 18.3395321,17.9072754 17.7631975,16.1976144 C17.2972412,14.8153836 16.4915326,13.0211487 15.2039481,11.0975725 C13.2751165,8.21601068 11.6049526,6.50666853 10.2700195,5.2530971 C9.42006329,4.45494406 8.29279436,3.6376988 7.72307478,3.21089565 C7.19586768,2.81594056 6.46401076,2.56193062 6.62221331,1.7443464 C6.67080427,1.49323033 6.91014927,1.20965751 7.2,1.1040632 C7.54871652,1.00723703 7.84871652,1.05828683 8.1,1.25721261 Z" id="Path-7" fill-opacity="0.5" fill="#D8D8D8" fill-rule="nonzero"></path>
                            </g>
                        </g>
                    </g>
                </g>
                <g id="Dynamic-Border" stroke="#1D8E96" stroke-width="4">
                    <rect id="Azure-Border" x="2" y="2" width="96" height="96" rx="48"></rect>
                </g>
            </g>
        </g>
    </g>
</svg>