<svg width="103" height="103" viewBox="0 0 103 103" fill="none" xmlns="http://www.w3.org/2000/svg">
<path d="M51.5817 98.7196C25.7317 98.7196 4.77173 77.7696 4.77173 51.9096C4.77173 26.0496 25.7317 5.09961 51.5817 5.09961C77.4317 5.09961 98.3917 26.0596 98.3917 51.9096C98.3917 77.7596 77.4317 98.7196 51.5817 98.7196Z" fill="#F9E488"/>
<path fill-rule="evenodd" clip-rule="evenodd" d="M97.4819 51.9095C97.4819 77.2595 76.9319 97.8095 51.5819 97.8095C26.2319 97.8095 5.68189 77.2595 5.68189 51.9095C5.68189 26.5595 26.2319 6.00953 51.5819 6.00953C76.9319 6.00953 97.4819 26.5595 97.4819 51.9095ZM51.5819 2.26953C79.0019 2.26953 101.222 24.4895 101.222 51.9095C101.222 79.3295 78.9919 101.55 51.5819 101.55C24.1619 101.55 1.94189 79.3195 1.94189 51.9095C1.94189 24.4895 24.1619 2.26953 51.5819 2.26953Z" fill="#F2F1F0"/>
<path fill-rule="evenodd" clip-rule="evenodd" d="M94.6717 51.9091C94.6717 75.7091 75.3817 94.9991 51.5817 94.9991C27.7817 94.9991 8.49171 75.7091 8.49171 51.9091C8.49171 28.1091 27.7817 8.8191 51.5817 8.8191C75.3817 8.8191 94.6717 28.1091 94.6717 51.9091ZM51.5817 5.0791C77.4417 5.0791 98.4117 26.0491 98.4117 51.9091C98.4117 77.7691 77.4417 98.7391 51.5817 98.7391C25.7217 98.7391 4.75171 77.7691 4.75171 51.9091C4.75171 26.0491 25.7117 5.0791 51.5817 5.0791Z" fill="#F3C900"/>
<path d="M70.3617 59.1289H34.0117" stroke="#75746D"/>
<path d="M34.0117 65.7289V59.1289" stroke="#75746D" stroke-linecap="round"/>
<path d="M70.3618 65.7289V59.1289" stroke="#75746D" stroke-linecap="round"/>
<path d="M52.1917 65.3193V52.5293" stroke="#75746D"/>
<path d="M34.8718 67.6493C30.9818 67.6493 27.8518 66.4993 27.8518 65.0693V78.8193C27.8518 80.2293 31.0218 81.3893 34.7718 81.3993H34.8718C38.7418 81.3993 41.8718 80.2493 41.8718 78.8193V65.0693C41.8818 66.4993 38.7418 67.6493 34.8718 67.6493Z" fill="url(#paint0_linear)"/>
<path d="M41.8818 65.669C41.8818 67.009 38.7118 68.089 34.8818 68.089C31.0518 68.089 27.8618 67.019 27.8618 65.669C27.8618 64.329 31.0318 63.249 34.8818 63.249C38.7218 63.259 41.8818 64.339 41.8818 65.669Z" fill="#E8E8E8"/>
<path d="M52.2019 67.6493C48.3119 67.6493 45.1819 66.4993 45.1819 65.0693V78.8193C45.1819 80.2293 48.3519 81.3893 52.1019 81.3993H52.2019C56.0719 81.3993 59.2019 80.2493 59.2019 78.8193V65.0693C59.2019 66.4993 56.0719 67.6493 52.2019 67.6493Z" fill="url(#paint1_linear)"/>
<path d="M59.2019 65.669C59.2019 67.009 56.0319 68.089 52.2019 68.089C48.3719 68.089 45.1819 67.019 45.1819 65.669C45.1819 64.329 48.3519 63.249 52.2019 63.249C56.0519 63.259 59.2019 64.339 59.2019 65.669Z" fill="#E8E8E8"/>
<path d="M69.5217 67.6493C65.6317 67.6493 62.5017 66.4993 62.5017 65.0693V78.8193C62.5017 80.2293 65.6717 81.3893 69.4217 81.3993H69.5217C73.3917 81.3993 76.5217 80.2493 76.5217 78.8193V65.0693C76.5317 66.4993 73.3917 67.6493 69.5217 67.6493Z" fill="url(#paint2_linear)"/>
<path d="M76.5317 65.669C76.5317 67.009 73.3617 68.089 69.5317 68.089C65.7017 68.089 62.5117 67.019 62.5117 65.669C62.5117 64.329 65.6817 63.249 69.5317 63.249C73.3817 63.249 76.5317 64.339 76.5317 65.669Z" fill="#E8E8E8"/>
<mask id="mask0" mask-type="alpha" maskUnits="userSpaceOnUse" x="27" y="24" width="50" height="33">
<path fill-rule="evenodd" clip-rule="evenodd" d="M27.8518 24.5195H76.4518V56.5895H27.8518V24.5195V24.5195Z" fill="white"/>
</mask>
<g mask="url(#mask0)">
<path fill-rule="evenodd" clip-rule="evenodd" d="M74.8418 24.5195C75.7318 24.5195 76.4518 25.2295 76.4518 26.1095V54.9895C76.4518 55.8695 75.7318 56.5795 74.8418 56.5795H29.4718C28.5818 56.5795 27.8618 55.8695 27.8618 54.9895V26.1095C27.8618 25.2295 28.5818 24.5195 29.4718 24.5195H74.8418Z" fill="url(#paint3_linear)"/>
<path d="M31.8619 32.2791L34.5219 34.8891C34.5819 34.9491 34.6519 34.9791 34.7319 34.9791C34.8119 34.9791 34.8919 34.9491 34.9419 34.8891L37.5319 32.2791C37.5819 32.2491 37.5919 32.1791 37.5719 32.1191C37.5519 32.0591 37.4919 32.0391 37.4319 32.0491H35.8019C35.7319 32.0391 35.6719 31.9791 35.6619 31.9091V28.6491C35.6619 28.5891 35.6119 28.5391 35.5519 28.5391H33.8019C33.7419 28.5391 33.6919 28.5891 33.6919 28.6491V31.9091C33.6919 31.9791 33.6319 32.0391 33.5619 32.0491H31.9519C31.8919 32.0491 31.8419 32.0791 31.8219 32.1291C31.8019 32.1791 31.8119 32.2491 31.8619 32.2791Z" fill="#EFF9FF"/>
<path d="M74.0519 29.4297H51.1719V30.9097H74.0519V29.4297Z" fill="#EFF9FF"/>
<path d="M74.0519 33.1201H51.1719V34.6001H74.0519V33.1201Z" fill="#EFF9FF"/>
<path d="M62.9819 36.8096H51.1719V38.2896H62.9819V36.8096Z" fill="#EFF9FF"/>
<path d="M53.2418 40.749H51.5918V53.949H53.2418V40.749Z" fill="#F8E388"/>
<path d="M69.7418 40.749H68.0918V53.949H69.7418V40.749Z" fill="#F8E388"/>
<path d="M73.8619 43.2295H72.2119V53.9495H73.8619V43.2295Z" fill="#F8E388"/>
<path d="M57.3619 45.6992H55.7119V53.9492H57.3619V45.6992Z" fill="#F8E388"/>
<path d="M65.6119 47.3486H63.9619V53.9486H65.6119V47.3486Z" fill="#F8E388"/>
<path d="M61.4918 43.2295H59.8418V53.9495H61.4918V43.2295Z" fill="#F8E388"/>
<path d="M74.6317 25.5493C74.3017 25.2193 73.8117 25.2193 73.4817 25.5493C73.3117 25.7093 73.2317 25.8793 73.2317 26.1293C73.2317 26.3793 73.3117 26.5393 73.4817 26.7093C73.6417 26.8693 73.8117 26.9593 74.0617 26.9593C74.3117 26.9593 74.4717 26.8793 74.6417 26.7093C74.8117 26.5493 74.8917 26.2993 74.8917 26.1293C74.8817 25.8793 74.7917 25.7193 74.6317 25.5493Z" fill="white"/>
<path d="M69.9318 25.3086C69.4418 25.3086 69.1118 25.7186 69.1118 26.1286C69.1118 26.6286 69.4418 26.9486 69.9318 26.9486C70.4218 26.9486 70.7518 26.6186 70.7518 26.1286C70.7518 25.7186 70.4218 25.3086 69.9318 25.3086Z" fill="white"/>
<path d="M65.2219 25.5493C65.0519 25.7093 64.9719 25.8793 64.9719 26.1293C64.9719 26.3793 65.0519 26.5393 65.2219 26.7093C65.3819 26.8693 65.5519 26.9593 65.8019 26.9593C66.0519 26.9593 66.2119 26.8793 66.3819 26.7093C66.5519 26.5493 66.6319 26.3793 66.6319 26.1293C66.6319 25.8793 66.5519 25.7193 66.3819 25.5493C66.1319 25.2193 65.5519 25.2193 65.2219 25.5493Z" fill="white"/>
<path d="M46.9717 54.1292H40.0117V33.3092C40.0117 32.5592 40.6217 31.9492 41.3717 31.9492H46.9717C47.7217 31.9492 48.3317 32.5592 48.3317 33.3092V52.7792C48.3317 53.5192 47.7217 54.1292 46.9717 54.1292Z" fill="url(#paint4_linear)"/>
<path d="M42.4618 54.1294H35.3218V38.7894C35.3218 38.1394 35.8518 37.6094 36.5018 37.6094H42.4518C43.1018 37.6094 43.6318 38.1394 43.6318 38.7894V52.9394C43.6518 53.5994 43.1118 54.1294 42.4618 54.1294Z" fill="url(#paint5_linear)"/>
<path d="M37.6418 54.1288H32.4018C31.5518 54.1288 30.8618 53.4388 30.8618 52.5888V44.5888C30.8618 43.7388 31.5518 43.0488 32.4018 43.0488H37.6418C38.4918 43.0488 39.1818 43.7388 39.1818 44.5888V52.5888C39.1818 53.4388 38.4918 54.1288 37.6418 54.1288Z" fill="url(#paint6_linear)"/>
</g>
<defs>
<linearGradient id="paint0_linear" x1="34.8646" y1="81.0083" x2="34.8646" y2="64.2048" gradientUnits="userSpaceOnUse">
<stop stop-color="#0078D4"/>
<stop offset="0.16" stop-color="#1380DA"/>
<stop offset="0.53" stop-color="#3C91E5"/>
<stop offset="0.82" stop-color="#559CEC"/>
<stop offset="1" stop-color="#5EA0EF"/>
</linearGradient>
<linearGradient id="paint1_linear" x1="52.1896" y1="81.0083" x2="52.1896" y2="64.2048" gradientUnits="userSpaceOnUse">
<stop stop-color="#0078D4"/>
<stop offset="0.16" stop-color="#1380DA"/>
<stop offset="0.53" stop-color="#3C91E5"/>
<stop offset="0.82" stop-color="#559CEC"/>
<stop offset="1" stop-color="#5EA0EF"/>
</linearGradient>
<linearGradient id="paint2_linear" x1="69.5143" y1="81.0083" x2="69.5143" y2="64.2048" gradientUnits="userSpaceOnUse">
<stop stop-color="#0078D4"/>
<stop offset="0.16" stop-color="#1380DA"/>
<stop offset="0.53" stop-color="#3C91E5"/>
<stop offset="0.82" stop-color="#559CEC"/>
<stop offset="1" stop-color="#5EA0EF"/>
</linearGradient>
<linearGradient id="paint3_linear" x1="52.1565" y1="24.7298" x2="52.1565" y2="56.5829" gradientUnits="userSpaceOnUse">
<stop stop-color="#6A6A6A"/>
<stop offset="1" stop-color="#343333"/>
</linearGradient>
<linearGradient id="paint4_linear" x1="44.0761" y1="33.9768" x2="44.2531" y2="52.3832" gradientUnits="userSpaceOnUse">
<stop offset="0.00753769" stop-color="#E0A310"/>
<stop offset="1" stop-color="#CA810E"/>
</linearGradient>
<linearGradient id="paint5_linear" x1="39.262" y1="38.2548" x2="39.7929" y2="57.723" gradientUnits="userSpaceOnUse">
<stop offset="0.00753769" stop-color="#F2CC40"/>
<stop offset="1" stop-color="#E7B116"/>
</linearGradient>
<linearGradient id="paint6_linear" x1="34.8234" y1="43.8987" x2="35.3544" y2="56.4645" gradientUnits="userSpaceOnUse">
<stop stop-color="#F8E17B"/>
<stop offset="0.5302" stop-color="#F6D856"/>
<stop offset="1" stop-color="#F6D856"/>
</linearGradient>
</defs>
</svg>
