<svg width="103" height="103" viewBox="0 0 103 103" fill="none" xmlns="http://www.w3.org/2000/svg">
<path d="M51.9228 98.5194C26.0728 98.5194 5.11279 77.5694 5.11279 51.7094C5.11279 25.8494 26.0728 4.89941 51.9228 4.89941C77.7728 4.89941 98.7328 25.8594 98.7328 51.7094C98.7328 77.5594 77.7728 98.5194 51.9228 98.5194Z" fill="url(#paint0_linear_166_42558)"/>
<path fill-rule="evenodd" clip-rule="evenodd" d="M97.8228 51.7093C97.8228 77.0593 77.2728 97.6093 51.9228 97.6093C26.5728 97.6093 6.02278 77.0593 6.02278 51.7093C6.02278 26.3593 26.5728 5.80934 51.9228 5.80934C77.2728 5.80934 97.8228 26.3593 97.8228 51.7093ZM51.9228 2.06934C79.3428 2.06934 101.563 24.2893 101.563 51.7093C101.563 79.1293 79.3328 101.349 51.9228 101.349C24.5028 101.349 2.28278 79.1193 2.28278 51.7093C2.28278 24.2893 24.5028 2.06934 51.9228 2.06934Z" fill="#F2F1F0"/>
<path fill-rule="evenodd" clip-rule="evenodd" d="M95.0128 51.7089C95.0128 75.5089 75.7228 94.7989 51.9228 94.7989C28.1228 94.7989 8.8328 75.5089 8.8328 51.7089C8.8328 27.9089 28.1228 8.61891 51.9228 8.61891C75.7228 8.61891 95.0128 27.9089 95.0128 51.7089ZM51.9228 4.87891C77.7828 4.87891 98.7528 25.8489 98.7528 51.7089C98.7528 77.5689 77.7828 98.5389 51.9228 98.5389C26.0628 98.5389 5.0928 77.5689 5.0928 51.7089C5.0928 25.8489 26.0528 4.87891 51.9228 4.87891Z" fill="url(#paint1_linear_166_42558)"/>
<path opacity="0.2" d="M34.0009 27.0838V74.0226L35.7786 72.8723L36.6974 74.0226L38.1913 72.8723L39.3192 74.0226L40.8131 72.8723L42.0456 74.0226L43.5993 72.8723L44.7272 74.0226L46.0717 72.8723L47.1622 74.0226L48.6562 72.8723L49.8214 74.0226L51.1659 72.8723L52.3611 74.0226L53.855 72.8723L54.9082 74.0226L56.2527 72.8723L57.4553 74.0226L58.4787 72.8723L59.8157 74.0226L60.9137 72.8723L61.9371 74.0226L63.0276 72.8723L64.2302 74.0226L65.3208 72.8723L66.6279 74.0226L67.5467 72.8723L68.8165 74.0226L69.9444 72.8723L71.162 74.0226V27.0838C71.16 26.8395 71.0616 26.6058 70.8881 26.4337C70.7146 26.2616 70.4801 26.1651 70.2358 26.1651H34.9271C34.8058 26.1641 34.6855 26.1871 34.5732 26.2328C34.4609 26.2786 34.3587 26.3461 34.2726 26.4315C34.1865 26.5169 34.1181 26.6185 34.0715 26.7305C34.0249 26.8425 34.0009 26.9626 34.0009 27.0838V27.0838Z" fill="#1F1D21"/>
<path d="M34.0009 26.0457V72.9845L35.7786 71.8417L36.6974 72.9845L38.1913 71.8417L39.3192 72.9845L40.8131 71.8417L42.0456 72.9845L43.5993 71.8417L44.7272 72.9845L46.0717 71.8417L47.1622 72.9845L48.6562 71.8417L49.8214 72.9845L51.1659 71.8417L52.3611 72.9845L53.855 71.8417L54.9082 72.9845L56.2527 71.8417L57.4553 72.9845L58.4787 71.8417L59.8157 72.9845L60.9137 71.8417L61.9371 72.9845L63.0276 71.8417L64.2302 72.9845L65.3208 71.8417L66.6279 72.9845L67.5467 71.8417L68.8165 72.9845L69.9444 71.8417L71.162 72.9845V26.0457C71.16 25.8014 71.0616 25.5677 70.8881 25.3956C70.7146 25.2235 70.4801 25.127 70.2358 25.127H34.9271C34.8058 25.126 34.6855 25.149 34.5732 25.1948C34.4609 25.2405 34.3587 25.308 34.2726 25.3934C34.1865 25.4789 34.1181 25.5805 34.0715 25.6924C34.0249 25.8044 34.0009 25.9245 34.0009 26.0457V26.0457Z" fill="white"/>
<path d="M61.5941 47.7893C61.5941 47.5789 61.5106 47.3772 61.3618 47.2284C61.2131 47.0797 61.0113 46.9961 60.801 46.9961H45.64C45.4296 46.9961 45.2279 47.0797 45.0791 47.2284C44.9304 47.3772 44.8468 47.5789 44.8468 47.7893C44.8482 47.9987 44.9324 48.1991 45.081 48.3467C45.2296 48.4943 45.4305 48.5771 45.64 48.5771H60.801C61.0104 48.5771 61.2114 48.4943 61.36 48.3467C61.5086 48.1991 61.5927 47.9987 61.5941 47.7893V47.7893Z" fill="#9D9E9D"/>
<path d="M61.5941 52.0594C61.5927 51.8499 61.5086 51.6495 61.36 51.5019C61.2114 51.3543 61.0104 51.2715 60.801 51.2715H45.64C45.4305 51.2715 45.2296 51.3543 45.081 51.5019C44.9324 51.6495 44.8482 51.8499 44.8468 52.0594C44.8468 52.2697 44.9304 52.4715 45.0791 52.6202C45.2279 52.769 45.4296 52.8525 45.64 52.8525H60.801C61.0113 52.8525 61.2131 52.769 61.3618 52.6202C61.5106 52.4715 61.5941 52.2697 61.5941 52.0594Z" fill="#9D9E9D"/>
<path d="M60.801 42.4336H45.64C45.5358 42.4336 45.4327 42.4541 45.3364 42.494C45.2402 42.5338 45.1528 42.5923 45.0791 42.6659C45.0055 42.7396 44.947 42.827 44.9072 42.9232C44.8673 43.0195 44.8468 43.1226 44.8468 43.2268C44.8482 43.4362 44.9324 43.6366 45.081 43.7842C45.2296 43.9318 45.4305 44.0146 45.64 44.0146H60.801C61.0104 44.0146 61.2114 43.9318 61.36 43.7842C61.5086 43.6366 61.5927 43.4362 61.5941 43.2268C61.5941 43.0164 61.5106 42.8147 61.3618 42.6659C61.2131 42.5172 61.0113 42.4336 60.801 42.4336V42.4336Z" fill="#9D9E9D"/>
<path d="M66.4451 49.6505C66.7546 47.5009 66.557 45.3087 65.8679 43.2492C65.1787 41.1897 64.0173 39.32 62.4765 37.7895C58.1407 33.4375 51.3904 32.5565 45.9086 35.3423L45.6802 35.4565L44.9011 33.7679C44.8864 33.7377 44.8641 33.712 44.8363 33.6932C44.8086 33.6743 44.7764 33.6632 44.743 33.6607C44.7095 33.6582 44.676 33.6645 44.6458 33.679C44.6156 33.6936 44.5897 33.7157 44.5707 33.7434L41.2669 38.4543C41.2368 38.4986 41.2188 38.55 41.2147 38.6034C41.2106 38.6568 41.2207 38.7104 41.2438 38.7587C41.2669 38.807 41.3023 38.8484 41.3465 38.8787C41.3906 38.9091 41.442 38.9273 41.4954 38.9316L47.1567 39.3394C47.1898 39.3412 47.2228 39.3343 47.2525 39.3195C47.2822 39.3047 47.3075 39.2824 47.326 39.2549C47.3445 39.2273 47.3555 39.1955 47.358 39.1624C47.3605 39.1293 47.3544 39.0961 47.3402 39.0661L46.4388 37.1084L46.9242 36.8555C49.2597 35.6539 51.9184 35.2313 54.5114 35.6497C57.1043 36.068 59.4953 37.3052 61.3344 39.1804C62.916 40.8215 64.0105 42.8697 64.4959 45.0966C64.9813 47.3235 64.8385 49.6414 64.0835 51.7919C63.3382 53.7829 62.0806 55.542 60.4377 56.8913C58.7948 58.2405 56.8248 59.1322 54.7268 59.4762C53.5252 59.6816 52.3013 59.7228 51.0886 59.5986C48.3205 59.2619 45.7504 57.9898 43.8039 55.993C42.1439 54.2827 41.0196 52.1249 40.5689 49.7845C40.1182 47.4441 40.3608 45.023 41.2669 42.8186C41.2848 42.7854 41.2941 42.7482 41.2941 42.7105C41.2941 42.6728 41.2848 42.6357 41.2669 42.6024C41.2455 42.5675 41.2163 42.538 41.1816 42.5161C41.147 42.4942 41.1078 42.4805 41.0671 42.476L40.4104 42.4189C40.1507 42.4021 39.893 42.4735 39.679 42.6216C39.4651 42.7697 39.3074 42.9857 39.2316 43.2346C38.4652 45.6505 38.3684 48.2291 38.9516 50.6956C39.5349 53.1622 40.7763 55.4243 42.5436 57.2411C44.3681 59.1069 46.6762 60.4275 49.2093 61.055C51.7423 61.6825 54.4 61.592 56.8845 60.7937L57.2026 60.6958L57.5004 60.5816C57.7859 60.4755 58.0673 60.3654 58.3406 60.243L58.7893 60.0432C61.5577 58.702 63.8069 56.4858 65.1888 53.7374C65.2686 53.644 65.3345 53.5396 65.3846 53.4274C65.7086 52.6943 65.9719 51.9359 66.1718 51.1597C66.2656 50.8007 66.3554 50.4418 66.4247 50.0747L66.4451 49.6505Z" fill="#1D4A79"/>
<path opacity="0.2" d="M81.4597 76.1441L71.0681 82.2922L60.4393 76.1441L71.0681 69.9961L81.4597 76.1441Z" fill="#1F1D21"/>
<path d="M71.0681 68.2301V80.4557L60.4393 74.3077V62.082L71.0681 68.2301Z" fill="#EB0018"/>
<path d="M67.0124 65.8323V78.0579L64.239 76.4376V64.2119L67.0124 65.8323Z" fill="#DAAFAB"/>
<path d="M71.0681 68.2301L81.4597 62.082V74.3077L71.0681 80.4557V68.2301Z" fill="#C6001D"/>
<path d="M60.4393 62.0819L70.8262 55.9268L81.4597 62.0725L71.0681 68.2205L60.4393 62.0819Z" fill="#F4344F"/>
<path d="M64.2437 64.2799L74.6306 58.1318L77.4486 59.7757L67.057 65.9214L64.2437 64.2799Z" fill="#FCF5EA"/>
<path d="M75.0204 65.8879L64.4809 59.6976L67.2637 58.0537L77.7938 64.2675L75.0204 65.8879Z" fill="#FCF5EA"/>
<path d="M77.7915 64.252L77.8784 76.4166L75.1684 78.0604L75.0509 65.9005L77.7915 64.252Z" fill="#DAAFAB"/>
<path d="M70.9788 60.3881C71.8283 59.4432 72.7914 58.6071 73.8462 57.8988C75.7085 56.6119 77.4181 56.7903 77.7281 57.0111C78.0381 57.2318 78.9704 58.2769 79.0596 58.6761C79.1488 59.0753 79.5927 60.0851 78.5711 60.5172C77.5496 60.9493 73.8227 61.8487 73.0243 61.8487C72.5377 61.8482 72.0518 61.8113 71.5706 61.7384C71.5706 61.7384 70.7111 60.6511 70.9788 60.3881Z" fill="#DAAFAB"/>
<path d="M71.7984 60.4402C72.2766 59.5112 72.9728 58.7118 73.8274 58.1107C75.2106 57.1713 77.3265 56.9365 77.5567 57.1126C77.7868 57.2887 78.3856 58.2656 78.4514 58.5568C78.5171 58.848 78.8483 59.5831 78.0897 59.9072C77.3312 60.2312 73.811 61.0062 73.2192 61.0062C72.8584 61.0058 72.498 60.9783 72.1413 60.924C72.1413 60.924 71.6012 60.6352 71.7984 60.4402Z" fill="#BF8C8A"/>
<path d="M70.6243 60.2074C70.6243 60.2074 70.2673 57.3636 70.8896 56.3913C71.512 55.4191 71.4673 54.6817 72.2165 54.5643C73.7288 54.3294 74.4099 55.1232 74.485 55.4356C74.5602 55.7479 74.0623 57.8332 74.0623 57.8332L70.4928 60.9143L70.6243 60.2074Z" fill="#DAAFAB"/>
<path d="M70.5867 60.4095C70.5867 60.4095 70.333 58.3758 70.7769 57.683C71.2207 56.9903 71.1879 56.4619 71.7162 56.3773C72.7965 56.2059 73.285 56.7765 73.3366 57.002C73.3883 57.2274 73.036 58.714 73.036 58.714L70.4857 60.9144L70.5867 60.4095Z" fill="#BF8C8A"/>
<path d="M71.1339 61.1397C71.5572 60.2337 72.1024 59.3899 72.7542 58.6316C73.7734 57.4785 75.3656 57.0018 76.2768 56.8116C77.451 56.5768 78.0287 56.8797 78.496 57.5161C78.604 57.6641 79.116 58.493 79.1841 58.9251C79.2566 59.3338 79.216 59.7544 79.0667 60.1416C79.0667 60.1416 79.2733 58.4602 77.2091 58.8805C75.7085 59.1881 74.1562 60.0805 73.6584 60.4117C72.9938 60.8555 71.573 62.1424 71.573 62.1424C71.3147 61.8692 71.1595 61.5147 71.1339 61.1397Z" fill="#FCF5EA"/>
<path d="M70.7675 60.839C70.7675 60.839 69.5698 58.4765 67.9494 58.1759C66.3291 57.8753 64.7556 57.8096 64.2883 57.9763C63.821 58.143 63.1799 59.2092 63.457 59.8738C63.7341 60.5384 64.92 60.6065 65.4531 60.7051C65.9862 60.8037 70.7675 60.839 70.7675 60.839Z" fill="#DAAFAB"/>
<path d="M70.3683 60.672C70.3683 60.672 69.1283 58.2415 67.8719 58.009C66.6156 57.7765 65.9087 57.76 65.5494 57.8892C65.332 58.0047 65.1643 58.1957 65.0778 58.4262C64.9913 58.6567 64.992 58.9108 65.0797 59.1409C65.2934 59.6552 66.0402 59.9158 66.4512 59.9933C66.8621 60.0708 70.3683 60.672 70.3683 60.672Z" fill="#BF8C8A"/>
<path d="M71.4227 60.8725C70.3226 59.6478 69.1594 58.4814 67.9377 57.3781C66.8739 56.4575 65.5635 56.5679 64.5866 56.8121C64.2065 56.9347 63.8601 57.1437 63.5744 57.4227C63.472 57.531 63.3939 57.6599 63.3453 57.8009C63.2967 57.9418 63.2787 58.0915 63.2926 58.2399L63.4993 59.919C63.4993 59.919 63.5181 58.5875 64.4762 58.3879C65.6504 58.153 67.0289 58.5945 67.4399 58.7425C68.4071 59.0592 69.2646 59.6439 69.9127 60.4286C70.0846 60.6535 70.3236 60.8177 70.5951 60.8975C70.8666 60.9773 71.1565 60.9685 71.4227 60.8725V60.8725Z" fill="#FCF5EA"/>
<path d="M70.4904 60.6961C70.4904 60.6961 69.7859 59.0311 69.8681 57.6995C69.9432 56.6005 70.3377 55.1915 71.0798 54.6466C71.4819 54.3292 71.9767 54.1518 72.4889 54.1417C72.7577 54.1128 73.0296 54.1474 73.2826 54.2427C73.7311 54.4094 74.2478 54.7922 74.3558 55.013L74.5085 55.384C74.5085 55.384 74.1961 54.8627 73.3343 55.0975C72.6767 55.2736 72.2023 56.1613 71.8924 56.894C71.4039 58.0447 71.2959 60.3908 71.3828 60.534C71.7421 61.1329 71.4297 60.8299 71.0282 60.8205L70.4904 60.6961Z" fill="#FCF5EA"/>
<path d="M70.7017 61.1723C70.7017 61.1723 72.1648 64.3521 73.2662 65.0096C74.3675 65.6672 75.6145 65.7141 75.8916 65.39C76.1687 65.066 77.047 62.9102 76.4787 62.4522C75.9104 61.9943 73.1722 60.2988 72.5358 60.6064C71.9426 60.8495 71.3288 61.0389 70.7017 61.1723V61.1723Z" fill="#DAAFAB"/>
<path d="M71.3664 60.7363C71.3664 60.7363 72.712 63.2819 73.5903 63.8056C74.4686 64.3293 75.469 64.3645 75.685 64.1085C75.9011 63.8526 76.6103 62.1312 76.1547 61.7602C75.6991 61.3891 73.5151 60.0411 73.0079 60.2877C72.4765 60.49 71.9268 60.6402 71.3664 60.7363V60.7363Z" fill="#BF8C8A"/>
<path d="M71.047 60.5931C71.047 60.5931 72.564 59.9426 73.8392 60.161C75.0134 60.363 76.1359 60.9642 76.7794 61.7509C77.0016 62.019 77.185 62.317 77.3242 62.6362C77.559 63.1482 77.7305 63.3196 77.4369 63.9255L75.793 65.4801C75.8739 65.002 75.8428 64.5116 75.7022 64.0475C75.5617 63.5834 75.3154 63.1582 74.9829 62.8053C73.9824 61.7932 71.6951 61.3587 71.6951 61.3587L70.6548 61.4268L70.5609 60.936L71.047 60.5931Z" fill="#FCF5EA"/>
<path d="M71.0282 61.4054C71.0282 61.4054 68.9147 61.2223 67.3013 61.9221C66.4254 62.3002 65.6997 62.7017 65.6199 63.4626C65.5072 64.5358 65.6668 64.8505 65.9745 65.1065C65.9745 65.1065 66.7894 65.3155 68.4426 64.4748C70.0959 63.634 70.373 63.0657 70.5562 62.697C70.7393 62.3283 71.2231 61.5463 71.0282 61.4054Z" fill="#DAAFAB"/>
<path d="M70.6571 61.2669C70.6571 61.2669 69.0133 60.9146 67.8719 61.4055C67.259 61.6708 65.4155 62.5797 65.3592 63.1221C65.2793 63.8736 65.3921 64.0944 65.6081 64.2681C65.6081 64.2681 67.6888 63.9981 68.8465 63.4086C70.0043 62.8192 70.1992 62.4176 70.326 62.164C70.4528 61.9104 70.7933 61.3632 70.6571 61.2669Z" fill="#BF8C8A"/>
<path d="M70.8661 61.3394C70.7603 61.0329 70.5638 60.7659 70.3025 60.5738C69.9103 60.339 67.5173 59.78 66.1342 60.0008C64.751 60.2215 64.2742 60.501 63.8938 61.4803C63.5134 62.4596 63.7928 62.9739 64.0934 63.3332C64.394 63.6925 65.5353 64.775 65.7748 65.0451C66.0144 65.3152 64.8919 63.2439 66.3173 62.3375C67.7428 61.431 69.8845 61.5625 70.8661 61.3394Z" fill="#FCF5EA"/>
<path d="M77.2549 79.9507C80.8929 79.9507 83.8488 77.004 83.8488 73.3569C83.8397 69.7189 80.8838 66.7812 77.2549 66.7812C73.626 66.7812 70.6611 69.728 70.6611 73.3751C70.6611 77.0131 73.6078 79.9507 77.2549 79.9507Z" fill="#002D4C"/>
<path d="M77.7733 69.501H76.691V77.2135H77.7733V69.501Z" fill="#F2F2F2"/>
<path d="M81.0839 72.875H73.3805V73.9573H81.093L81.0839 72.875Z" fill="#F2F2F2"/>
<path d="M40.5623 72.297C40.0408 67.6082 36.0173 63.9219 31.1487 63.9219C26.3205 63.9219 22.342 67.5363 21.7351 72.1846C21.6542 72.4948 21.6542 72.8634 21.6542 73.1781C21.7801 74.4953 22.7017 75.7855 24.4279 76.7925C28.1232 78.9189 34.1652 78.9189 37.82 76.7925C39.5463 75.7855 40.4364 74.5088 40.5533 73.1781C40.6477 72.9039 40.6072 72.5802 40.5623 72.297Z" fill="url(#paint2_linear_166_42558)"/>
<path d="M31.1487 62.5691C34.3001 62.5691 36.8445 60.0336 36.8445 56.9048C36.858 53.7669 34.3001 51.2314 31.1487 51.2314C28.0109 51.2314 25.4529 53.7669 25.4529 56.8958C25.4529 60.0246 28.0109 62.5691 31.1487 62.5691Z" fill="url(#paint3_linear_166_42558)"/>
<path opacity="0.2" d="M34.0009 27.0838V74.0226L35.7786 72.8723L36.6974 74.0226L38.1913 72.8723L39.3192 74.0226L40.8131 72.8723L42.0456 74.0226L43.5993 72.8723L44.7272 74.0226L46.0717 72.8723L47.1622 74.0226L48.6562 72.8723L49.8214 74.0226L51.1659 72.8723L52.3611 74.0226L53.855 72.8723L54.9082 74.0226L56.2527 72.8723L57.4553 74.0226L58.4787 72.8723L59.8157 74.0226L60.9137 72.8723L61.9371 74.0226L63.0276 72.8723L64.2302 74.0226L65.3208 72.8723L66.6279 74.0226L67.5467 72.8723L68.8165 74.0226L69.9444 72.8723L71.162 74.0226V27.0838C71.16 26.8395 71.0616 26.6058 70.8881 26.4337C70.7146 26.2616 70.4801 26.1651 70.2358 26.1651H34.9271C34.8058 26.1641 34.6855 26.1871 34.5732 26.2328C34.4609 26.2786 34.3587 26.3461 34.2726 26.4315C34.1865 26.5169 34.1181 26.6185 34.0715 26.7305C34.0249 26.8425 34.0009 26.9626 34.0009 27.0838V27.0838Z" fill="#1F1D21"/>
<path d="M34.0009 26.0457V72.9845L35.7786 71.8417L36.6974 72.9845L38.1913 71.8417L39.3192 72.9845L40.8131 71.8417L42.0456 72.9845L43.5993 71.8417L44.7272 72.9845L46.0717 71.8417L47.1622 72.9845L48.6562 71.8417L49.8214 72.9845L51.1659 71.8417L52.3611 72.9845L53.855 71.8417L54.9082 72.9845L56.2527 71.8417L57.4553 72.9845L58.4787 71.8417L59.8157 72.9845L60.9137 71.8417L61.9371 72.9845L63.0276 71.8417L64.2302 72.9845L65.3208 71.8417L66.6279 72.9845L67.5467 71.8417L68.8165 72.9845L69.9444 71.8417L71.162 72.9845V26.0457C71.16 25.8014 71.0616 25.5677 70.8881 25.3956C70.7146 25.2235 70.4801 25.127 70.2358 25.127H34.9271C34.8058 25.126 34.6855 25.149 34.5732 25.1948C34.4609 25.2405 34.3587 25.308 34.2726 25.3934C34.1865 25.4789 34.1181 25.5805 34.0715 25.6924C34.0249 25.8044 34.0009 25.9245 34.0009 26.0457V26.0457Z" fill="white"/>
<path d="M61.5941 47.7893C61.5941 47.5789 61.5106 47.3772 61.3618 47.2284C61.2131 47.0797 61.0113 46.9961 60.801 46.9961H45.64C45.4296 46.9961 45.2279 47.0797 45.0791 47.2284C44.9304 47.3772 44.8468 47.5789 44.8468 47.7893C44.8482 47.9987 44.9324 48.1991 45.081 48.3467C45.2296 48.4943 45.4305 48.5771 45.64 48.5771H60.801C61.0104 48.5771 61.2114 48.4943 61.36 48.3467C61.5086 48.1991 61.5927 47.9987 61.5941 47.7893V47.7893Z" fill="#9D9E9D"/>
<path d="M61.5941 52.0594C61.5927 51.8499 61.5086 51.6495 61.36 51.5019C61.2114 51.3543 61.0104 51.2715 60.801 51.2715H45.64C45.4305 51.2715 45.2296 51.3543 45.081 51.5019C44.9324 51.6495 44.8482 51.8499 44.8468 52.0594C44.8468 52.2697 44.9304 52.4715 45.0791 52.6202C45.2279 52.769 45.4296 52.8525 45.64 52.8525H60.801C61.0113 52.8525 61.2131 52.769 61.3618 52.6202C61.5106 52.4715 61.5941 52.2697 61.5941 52.0594Z" fill="#9D9E9D"/>
<path d="M60.801 42.4336H45.64C45.5358 42.4336 45.4327 42.4541 45.3364 42.494C45.2402 42.5338 45.1528 42.5923 45.0791 42.6659C45.0055 42.7396 44.947 42.827 44.9072 42.9232C44.8673 43.0195 44.8468 43.1226 44.8468 43.2268C44.8482 43.4362 44.9324 43.6366 45.081 43.7842C45.2296 43.9318 45.4305 44.0146 45.64 44.0146H60.801C61.0104 44.0146 61.2114 43.9318 61.36 43.7842C61.5086 43.6366 61.5927 43.4362 61.5941 43.2268C61.5941 43.0164 61.5106 42.8147 61.3618 42.6659C61.2131 42.5172 61.0113 42.4336 60.801 42.4336V42.4336Z" fill="#9D9E9D"/>
<path d="M66.4451 49.6505C66.7546 47.5009 66.557 45.3087 65.8679 43.2492C65.1787 41.1897 64.0173 39.32 62.4765 37.7895C58.1407 33.4375 51.3904 32.5565 45.9086 35.3423L45.6802 35.4565L44.9011 33.7679C44.8864 33.7377 44.8641 33.712 44.8363 33.6932C44.8086 33.6743 44.7764 33.6632 44.743 33.6607C44.7095 33.6582 44.676 33.6645 44.6458 33.679C44.6156 33.6936 44.5897 33.7157 44.5707 33.7434L41.2669 38.4543C41.2368 38.4986 41.2188 38.55 41.2147 38.6034C41.2106 38.6568 41.2207 38.7104 41.2438 38.7587C41.2669 38.807 41.3023 38.8484 41.3465 38.8787C41.3906 38.9091 41.442 38.9273 41.4954 38.9316L47.1567 39.3394C47.1898 39.3412 47.2228 39.3343 47.2525 39.3195C47.2822 39.3047 47.3075 39.2824 47.326 39.2549C47.3445 39.2273 47.3555 39.1955 47.358 39.1624C47.3605 39.1293 47.3544 39.0961 47.3402 39.0661L46.4388 37.1084L46.9242 36.8555C49.2597 35.6539 51.9184 35.2313 54.5114 35.6497C57.1043 36.068 59.4953 37.3052 61.3344 39.1804C62.916 40.8215 64.0105 42.8697 64.4959 45.0966C64.9813 47.3235 64.8385 49.6414 64.0835 51.7919C63.3382 53.7829 62.0806 55.542 60.4377 56.8913C58.7948 58.2405 56.8248 59.1322 54.7268 59.4762C53.5252 59.6816 52.3013 59.7228 51.0886 59.5986C48.3205 59.2619 45.7504 57.9898 43.8039 55.993C42.1439 54.2827 41.0196 52.1249 40.5689 49.7845C40.1182 47.4441 40.3608 45.023 41.2669 42.8186C41.2848 42.7854 41.2941 42.7482 41.2941 42.7105C41.2941 42.6728 41.2848 42.6357 41.2669 42.6024C41.2455 42.5675 41.2163 42.538 41.1816 42.5161C41.147 42.4942 41.1078 42.4805 41.0671 42.476L40.4104 42.4189C40.1507 42.4021 39.893 42.4735 39.679 42.6216C39.4651 42.7697 39.3074 42.9857 39.2316 43.2346C38.4652 45.6505 38.3684 48.2291 38.9516 50.6956C39.5349 53.1622 40.7763 55.4243 42.5436 57.2411C44.3681 59.1069 46.6762 60.4275 49.2093 61.055C51.7423 61.6825 54.4 61.592 56.8845 60.7937L57.2026 60.6958L57.5004 60.5816C57.7859 60.4755 58.0673 60.3654 58.3406 60.243L58.7893 60.0432C61.5577 58.702 63.8069 56.4858 65.1888 53.7374C65.2686 53.644 65.3345 53.5396 65.3846 53.4274C65.7086 52.6943 65.9719 51.9359 66.1718 51.1597C66.2656 50.8007 66.3554 50.4418 66.4247 50.0747L66.4451 49.6505Z" fill="#1D4A79"/>
<path opacity="0.2" d="M81.4597 76.1441L71.0681 82.2922L60.4393 76.1441L71.0681 69.9961L81.4597 76.1441Z" fill="#1F1D21"/>
<path d="M71.0681 68.2301V80.4557L60.4393 74.3077V62.082L71.0681 68.2301Z" fill="#EB0018"/>
<path d="M67.0124 65.8323V78.0579L64.239 76.4376V64.2119L67.0124 65.8323Z" fill="#DAAFAB"/>
<path d="M71.0681 68.2301L81.4597 62.082V74.3077L71.0681 80.4557V68.2301Z" fill="#C6001D"/>
<path d="M60.4393 62.0819L70.8262 55.9268L81.4597 62.0725L71.0681 68.2205L60.4393 62.0819Z" fill="#F4344F"/>
<path d="M64.2437 64.2799L74.6306 58.1318L77.4486 59.7757L67.057 65.9214L64.2437 64.2799Z" fill="#FCF5EA"/>
<path d="M75.0204 65.8879L64.4809 59.6976L67.2637 58.0537L77.7938 64.2675L75.0204 65.8879Z" fill="#FCF5EA"/>
<path d="M77.7915 64.252L77.8784 76.4166L75.1684 78.0604L75.0509 65.9005L77.7915 64.252Z" fill="#DAAFAB"/>
<path d="M70.9788 60.3881C71.8283 59.4432 72.7914 58.6071 73.8462 57.8988C75.7085 56.6119 77.4181 56.7903 77.7281 57.0111C78.0381 57.2318 78.9704 58.2769 79.0596 58.6761C79.1488 59.0753 79.5927 60.0851 78.5711 60.5172C77.5496 60.9493 73.8227 61.8487 73.0243 61.8487C72.5377 61.8482 72.0518 61.8113 71.5706 61.7384C71.5706 61.7384 70.7111 60.6511 70.9788 60.3881Z" fill="#DAAFAB"/>
<path d="M71.7984 60.4402C72.2766 59.5112 72.9728 58.7118 73.8274 58.1107C75.2106 57.1713 77.3265 56.9365 77.5567 57.1126C77.7868 57.2887 78.3856 58.2656 78.4514 58.5568C78.5171 58.848 78.8483 59.5831 78.0897 59.9072C77.3312 60.2312 73.811 61.0062 73.2192 61.0062C72.8584 61.0058 72.498 60.9783 72.1413 60.924C72.1413 60.924 71.6012 60.6352 71.7984 60.4402Z" fill="#BF8C8A"/>
<path d="M70.6243 60.2074C70.6243 60.2074 70.2673 57.3636 70.8896 56.3913C71.512 55.4191 71.4673 54.6817 72.2165 54.5643C73.7288 54.3294 74.4099 55.1232 74.485 55.4356C74.5602 55.7479 74.0623 57.8332 74.0623 57.8332L70.4928 60.9143L70.6243 60.2074Z" fill="#DAAFAB"/>
<path d="M70.5867 60.4095C70.5867 60.4095 70.333 58.3758 70.7769 57.683C71.2207 56.9903 71.1879 56.4619 71.7162 56.3773C72.7965 56.2059 73.285 56.7765 73.3366 57.002C73.3883 57.2274 73.036 58.714 73.036 58.714L70.4857 60.9144L70.5867 60.4095Z" fill="#BF8C8A"/>
<path d="M71.1339 61.1397C71.5572 60.2337 72.1024 59.3899 72.7542 58.6316C73.7734 57.4785 75.3656 57.0018 76.2768 56.8116C77.451 56.5768 78.0287 56.8797 78.496 57.5161C78.604 57.6641 79.116 58.493 79.1841 58.9251C79.2566 59.3338 79.216 59.7544 79.0667 60.1416C79.0667 60.1416 79.2733 58.4602 77.2091 58.8805C75.7085 59.1881 74.1562 60.0805 73.6584 60.4117C72.9938 60.8555 71.573 62.1424 71.573 62.1424C71.3147 61.8692 71.1595 61.5147 71.1339 61.1397Z" fill="#FCF5EA"/>
<path d="M70.7675 60.839C70.7675 60.839 69.5698 58.4765 67.9494 58.1759C66.3291 57.8753 64.7556 57.8096 64.2883 57.9763C63.821 58.143 63.1799 59.2092 63.457 59.8738C63.7341 60.5384 64.92 60.6065 65.4531 60.7051C65.9862 60.8037 70.7675 60.839 70.7675 60.839Z" fill="#DAAFAB"/>
<path d="M70.3683 60.672C70.3683 60.672 69.1283 58.2415 67.8719 58.009C66.6156 57.7765 65.9087 57.76 65.5494 57.8892C65.332 58.0047 65.1643 58.1957 65.0778 58.4262C64.9913 58.6567 64.992 58.9108 65.0797 59.1409C65.2934 59.6552 66.0402 59.9158 66.4512 59.9933C66.8621 60.0708 70.3683 60.672 70.3683 60.672Z" fill="#BF8C8A"/>
<path d="M71.4227 60.8725C70.3226 59.6478 69.1594 58.4814 67.9377 57.3781C66.8739 56.4575 65.5635 56.5679 64.5866 56.8121C64.2065 56.9347 63.8601 57.1437 63.5744 57.4227C63.472 57.531 63.3939 57.6599 63.3453 57.8009C63.2967 57.9418 63.2787 58.0915 63.2926 58.2399L63.4993 59.919C63.4993 59.919 63.5181 58.5875 64.4762 58.3879C65.6504 58.153 67.0289 58.5945 67.4399 58.7425C68.4071 59.0592 69.2646 59.6439 69.9127 60.4286C70.0846 60.6535 70.3236 60.8177 70.5951 60.8975C70.8666 60.9773 71.1565 60.9685 71.4227 60.8725V60.8725Z" fill="#FCF5EA"/>
<path d="M70.4904 60.6961C70.4904 60.6961 69.7859 59.0311 69.8681 57.6995C69.9432 56.6005 70.3377 55.1915 71.0798 54.6466C71.4819 54.3292 71.9767 54.1518 72.4889 54.1417C72.7577 54.1128 73.0296 54.1474 73.2826 54.2427C73.7311 54.4094 74.2478 54.7922 74.3558 55.013L74.5085 55.384C74.5085 55.384 74.1961 54.8627 73.3343 55.0975C72.6767 55.2736 72.2023 56.1613 71.8924 56.894C71.4039 58.0447 71.2959 60.3908 71.3828 60.534C71.7421 61.1329 71.4297 60.8299 71.0282 60.8205L70.4904 60.6961Z" fill="#FCF5EA"/>
<path d="M70.7017 61.1723C70.7017 61.1723 72.1648 64.3521 73.2662 65.0096C74.3675 65.6672 75.6145 65.7141 75.8916 65.39C76.1687 65.066 77.047 62.9102 76.4787 62.4522C75.9104 61.9943 73.1722 60.2988 72.5358 60.6064C71.9426 60.8495 71.3288 61.0389 70.7017 61.1723V61.1723Z" fill="#DAAFAB"/>
<path d="M71.3664 60.7363C71.3664 60.7363 72.712 63.2819 73.5903 63.8056C74.4686 64.3293 75.469 64.3645 75.685 64.1085C75.9011 63.8526 76.6103 62.1312 76.1547 61.7602C75.6991 61.3891 73.5151 60.0411 73.0079 60.2877C72.4765 60.49 71.9268 60.6402 71.3664 60.7363V60.7363Z" fill="#BF8C8A"/>
<path d="M71.047 60.5931C71.047 60.5931 72.564 59.9426 73.8392 60.161C75.0134 60.363 76.1359 60.9642 76.7794 61.7509C77.0016 62.019 77.185 62.317 77.3242 62.6362C77.559 63.1482 77.7305 63.3196 77.4369 63.9255L75.793 65.4801C75.8739 65.002 75.8428 64.5116 75.7022 64.0475C75.5617 63.5834 75.3154 63.1582 74.9829 62.8053C73.9824 61.7932 71.6951 61.3587 71.6951 61.3587L70.6548 61.4268L70.5609 60.936L71.047 60.5931Z" fill="#FCF5EA"/>
<path d="M71.0282 61.4054C71.0282 61.4054 68.9147 61.2223 67.3013 61.9221C66.4254 62.3002 65.6997 62.7017 65.6199 63.4626C65.5072 64.5358 65.6668 64.8505 65.9745 65.1065C65.9745 65.1065 66.7894 65.3155 68.4426 64.4748C70.0959 63.634 70.373 63.0657 70.5562 62.697C70.7393 62.3283 71.2231 61.5463 71.0282 61.4054Z" fill="#DAAFAB"/>
<path d="M70.6571 61.2669C70.6571 61.2669 69.0133 60.9146 67.8719 61.4055C67.259 61.6708 65.4155 62.5797 65.3592 63.1221C65.2793 63.8736 65.3921 64.0944 65.6081 64.2681C65.6081 64.2681 67.6888 63.9981 68.8465 63.4086C70.0043 62.8192 70.1992 62.4176 70.326 62.164C70.4528 61.9104 70.7933 61.3632 70.6571 61.2669Z" fill="#BF8C8A"/>
<path d="M70.8661 61.3394C70.7603 61.0329 70.5638 60.7659 70.3025 60.5738C69.9103 60.339 67.5173 59.78 66.1342 60.0008C64.751 60.2215 64.2742 60.501 63.8938 61.4803C63.5134 62.4596 63.7928 62.9739 64.0934 63.3332C64.394 63.6925 65.5353 64.775 65.7748 65.0451C66.0144 65.3152 64.8919 63.2439 66.3173 62.3375C67.7428 61.431 69.8845 61.5625 70.8661 61.3394Z" fill="#FCF5EA"/>
<path d="M77.2549 79.9507C80.8929 79.9507 83.8488 77.004 83.8488 73.3569C83.8397 69.7189 80.8838 66.7812 77.2549 66.7812C73.626 66.7812 70.6611 69.728 70.6611 73.3751C70.6611 77.0131 73.6078 79.9507 77.2549 79.9507Z" fill="#002D4C"/>
<path d="M77.7733 69.501H76.691V77.2135H77.7733V69.501Z" fill="#F2F2F2"/>
<path d="M81.0839 72.875H73.3805V73.9573H81.093L81.0839 72.875Z" fill="#F2F2F2"/>
<path d="M40.5623 72.297C40.0408 67.6082 36.0173 63.9219 31.1487 63.9219C26.3205 63.9219 22.342 67.5363 21.7351 72.1846C21.6542 72.4948 21.6542 72.8634 21.6542 73.1781C21.7801 74.4953 22.7017 75.7855 24.4279 76.7925C28.1232 78.9189 34.1652 78.9189 37.82 76.7925C39.5463 75.7855 40.4364 74.5088 40.5533 73.1781C40.6477 72.9039 40.6072 72.5802 40.5623 72.297Z" fill="url(#paint4_linear_166_42558)"/>
<path d="M31.1487 62.5691C34.3001 62.5691 36.8445 60.0336 36.8445 56.9048C36.858 53.7669 34.3001 51.2314 31.1487 51.2314C28.0109 51.2314 25.4529 53.7669 25.4529 56.8958C25.4529 60.0246 28.0109 62.5691 31.1487 62.5691Z" fill="url(#paint5_linear_166_42558)"/>
<defs>
<linearGradient id="paint0_linear_166_42558" x1="50.1489" y1="-13.0801" x2="54.1309" y2="132.69" gradientUnits="userSpaceOnUse">
<stop stop-color="#00ABDE"/>
<stop offset="1" stop-color="#007ED8"/>
</linearGradient>
<linearGradient id="paint1_linear_166_42558" x1="3.3532" y1="-19.9137" x2="98.8807" y2="120.968" gradientUnits="userSpaceOnUse">
<stop stop-color="#007ED8"/>
<stop offset="0.7065" stop-color="#002D4C"/>
</linearGradient>
<linearGradient id="paint2_linear_166_42558" x1="31.2658" y1="36.3367" x2="31.0566" y2="93.6565" gradientUnits="userSpaceOnUse">
<stop stop-color="#007ED8"/>
<stop offset="0.7065" stop-color="#002D4C"/>
</linearGradient>
<linearGradient id="paint3_linear_166_42558" x1="31.2806" y1="29.6032" x2="31.0666" y2="74.5459" gradientUnits="userSpaceOnUse">
<stop stop-color="#007ED8"/>
<stop offset="0.7065" stop-color="#002D4C"/>
</linearGradient>
<linearGradient id="paint4_linear_166_42558" x1="31.2658" y1="36.3367" x2="31.0566" y2="93.6565" gradientUnits="userSpaceOnUse">
<stop stop-color="#007ED8"/>
<stop offset="0.7065" stop-color="#002D4C"/>
</linearGradient>
<linearGradient id="paint5_linear_166_42558" x1="31.2806" y1="29.6032" x2="31.0666" y2="74.5459" gradientUnits="userSpaceOnUse">
<stop stop-color="#007ED8"/>
<stop offset="0.7065" stop-color="#002D4C"/>
</linearGradient>
</defs>
</svg>
