<svg width="103" height="103" viewBox="0 0 103 103" fill="none" xmlns="http://www.w3.org/2000/svg">
<path d="M51.9228 98.6805C26.0728 98.6805 5.11279 77.7305 5.11279 51.8705C5.11279 26.0105 26.0728 5.06055 51.9228 5.06055C77.7728 5.06055 98.7328 26.0205 98.7328 51.8705C98.7328 77.7205 77.7728 98.6805 51.9228 98.6805Z" fill="url(#paint0_linear_166_42563)"/>
<path fill-rule="evenodd" clip-rule="evenodd" d="M97.8228 51.8705C97.8228 77.2205 77.2728 97.7705 51.9228 97.7705C26.5728 97.7705 6.02278 77.2205 6.02278 51.8705C6.02278 26.5205 26.5728 5.97047 51.9228 5.97047C77.2728 5.97047 97.8228 26.5205 97.8228 51.8705ZM51.9228 2.23047C79.3428 2.23047 101.563 24.4505 101.563 51.8705C101.563 79.2905 79.3328 101.51 51.9228 101.51C24.5028 101.51 2.28278 79.2805 2.28278 51.8705C2.28278 24.4505 24.5028 2.23047 51.9228 2.23047Z" fill="#F2F1F0"/>
<path fill-rule="evenodd" clip-rule="evenodd" d="M95.0128 51.871C95.0128 75.671 75.7228 94.961 51.9228 94.961C28.1228 94.961 8.8328 75.671 8.8328 51.871C8.8328 28.071 28.1228 8.78102 51.9228 8.78102C75.7228 8.78102 95.0128 28.071 95.0128 51.871ZM51.9228 5.04102C77.7828 5.04102 98.7528 26.011 98.7528 51.871C98.7528 77.731 77.7828 98.701 51.9228 98.701C26.0628 98.701 5.0928 77.731 5.0928 51.871C5.0928 26.011 26.0528 5.04102 51.9228 5.04102Z" fill="url(#paint1_linear_166_42563)"/>
<path opacity="0.15" d="M83.768 29.4414H72.0776C71.7354 29.4414 71.4074 29.5774 71.1655 29.8193C70.9235 30.0613 70.7875 30.3893 70.7875 30.7314V37.8813C70.7875 38.2235 70.9235 38.5515 71.1655 38.7935C71.4074 39.0354 71.7354 39.1714 72.0776 39.1714H83.768C83.9382 39.1741 84.1064 39.1425 84.2641 39.0786C84.4218 39.0147 84.5656 38.9201 84.686 38.7998C84.8063 38.6795 84.9014 38.5361 84.9653 38.3784C85.0291 38.2207 85.0607 38.0515 85.058 37.8813V30.7515C85.0594 30.5807 85.0265 30.4116 84.9623 30.2534C84.8982 30.0952 84.8038 29.9507 84.684 29.8291C84.5642 29.7075 84.4213 29.611 84.2641 29.5444C84.1069 29.4779 83.9387 29.4427 83.768 29.4414V29.4414Z" fill="#1F1D20"/>
<path opacity="0.15" d="M83.768 53.2422H72.0776C71.7354 53.2422 71.4074 53.3777 71.1655 53.6196C70.9235 53.8616 70.7875 54.1896 70.7875 54.5317V61.6924C70.7875 62.0345 70.9235 62.3626 71.1655 62.6045C71.4074 62.8464 71.7354 62.9824 72.0776 62.9824H83.768C83.9378 62.9838 84.106 62.9511 84.2631 62.8867C84.4202 62.8224 84.563 62.7275 84.683 62.6074C84.8031 62.4874 84.898 62.3446 84.9623 62.1875C85.0267 62.0304 85.0594 61.8622 85.058 61.6924V54.5518C85.0581 54.2078 84.9225 53.8779 84.6811 53.6328C84.4397 53.3877 84.112 53.2474 83.768 53.2422V53.2422Z" fill="#1F1D20"/>
<path opacity="0.15" d="M83.768 41.3223H72.0776C71.7354 41.3223 71.4074 41.4583 71.1655 41.7002C70.9235 41.9422 70.7875 42.2702 70.7875 42.6123V49.7525C70.7875 50.0946 70.9235 50.4227 71.1655 50.6646C71.4074 50.9065 71.7354 51.0425 72.0776 51.0425H83.768C83.9398 51.048 84.1109 51.0183 84.2709 50.9556C84.431 50.893 84.5762 50.7989 84.6987 50.6783C84.8212 50.5577 84.9177 50.413 84.9828 50.2539C85.048 50.0949 85.0804 49.9244 85.0776 49.7525V42.6026C85.0723 42.2595 84.9314 41.9322 84.686 41.6924C84.4406 41.4527 84.1111 41.3196 83.768 41.3223Z" fill="#1F1D20"/>
<path opacity="0.15" d="M83.768 65.1328H72.0776C71.7354 65.1328 71.4074 65.2688 71.1655 65.5107C70.9235 65.7527 70.7875 66.0807 70.7875 66.4229V73.583C70.7875 73.9251 70.9235 74.2532 71.1655 74.4951C71.4074 74.737 71.7354 74.873 72.0776 74.873H83.768C84.1101 74.873 84.4382 74.737 84.6801 74.4951C84.922 74.2532 85.058 73.9251 85.058 73.583V66.4326C85.0581 66.0896 84.9218 65.7611 84.6801 65.5176C84.4385 65.2741 84.1111 65.1355 83.768 65.1328V65.1328Z" fill="#1F1D20"/>
<path opacity="0.15" d="M66.7172 76.4521C66.9019 76.4522 67.0848 76.4157 67.2553 76.3447C67.4258 76.2737 67.5812 76.1691 67.7114 76.0381C67.8415 75.907 67.9443 75.7521 68.0141 75.5811C68.0839 75.41 68.1189 75.2267 68.1176 75.042V28.752H19.2377V75.0322C19.2377 75.2169 19.2742 75.3998 19.3452 75.5703C19.4161 75.7408 19.5198 75.8953 19.6508 76.0254C19.7819 76.1555 19.9378 76.2584 20.1088 76.3281C20.2798 76.3979 20.4632 76.433 20.6479 76.4316L66.7172 76.4521Z" fill="#1F1D20"/>
<path d="M68.0776 29.1924V28.4326C68.0776 27.9817 67.8983 27.5493 67.5795 27.2305C67.2607 26.9117 66.8282 26.7324 66.3774 26.7324H20.8979C20.447 26.7324 20.0146 26.9117 19.6957 27.2305C19.3769 27.5493 19.1977 27.9817 19.1977 28.4326V73.562C19.1977 74.0129 19.3769 74.4453 19.6957 74.7642C20.0146 75.083 20.447 75.2622 20.8979 75.2622H66.3871C66.6104 75.2622 66.8323 75.2187 67.0385 75.1333C67.2448 75.0479 67.4314 74.922 67.5893 74.7642C67.7472 74.6063 67.873 74.4196 67.9584 74.2134C68.0439 74.0071 68.0873 73.7853 68.0873 73.562V29.2725C68.0873 29.2725 68.0776 29.2224 68.0776 29.1924Z" fill="white"/>
<g opacity="0.15">
<path opacity="0.15" d="M83.768 29.4336H72.0776C71.7354 29.4336 71.4074 29.5691 71.1655 29.811C70.9235 30.053 70.7875 30.3815 70.7875 30.7236V37.8833C70.7875 38.2254 70.9235 38.5535 71.1655 38.7954C71.4074 39.0373 71.7354 39.1733 72.0776 39.1733H83.768C83.9378 39.1747 84.106 39.1425 84.2631 39.0781C84.4202 39.0138 84.563 38.9184 84.683 38.7983C84.8031 38.6783 84.898 38.5355 84.9623 38.3784C85.0267 38.2213 85.0594 38.0531 85.058 37.8833V30.7534C85.0607 30.5819 85.0288 30.4113 84.9653 30.252C84.9018 30.0926 84.8078 29.9474 84.6879 29.8247C84.568 29.702 84.4249 29.6043 84.267 29.5371C84.1091 29.4699 83.9396 29.4349 83.768 29.4336V29.4336Z" fill="#1F1D20"/>
<path opacity="0.15" d="M83.768 53.2441H72.0776C71.7354 53.2441 71.4074 53.3797 71.1655 53.6216C70.9235 53.8635 70.7875 54.1916 70.7875 54.5337V61.6943C70.7875 62.0365 70.9235 62.3645 71.1655 62.6064C71.4074 62.8484 71.7354 62.9844 72.0776 62.9844H83.768C84.1101 62.9844 84.4382 62.8484 84.6801 62.6064C84.922 62.3645 85.058 62.0365 85.058 61.6943V54.5537C85.0581 54.2097 84.9225 53.8799 84.6811 53.6348C84.4397 53.3897 84.112 53.2494 83.768 53.2441V53.2441Z" fill="#1F1D20"/>
<path opacity="0.15" d="M83.768 41.3243H72.0776C71.7354 41.3243 71.4074 41.4603 71.1655 41.7022C70.9235 41.9441 70.7875 42.2722 70.7875 42.6143V49.7544C70.7875 50.0966 70.9235 50.4246 71.1655 50.6665C71.4074 50.9085 71.7354 51.0445 72.0776 51.0445H83.768C83.9398 51.0499 84.1109 51.0202 84.2709 50.9576C84.431 50.8949 84.5762 50.8008 84.6987 50.6802C84.8212 50.5596 84.9177 50.415 84.9828 50.2559C85.048 50.0968 85.0804 49.9263 85.0776 49.7544V42.6045C85.0723 42.2615 84.9314 41.9341 84.686 41.6944C84.4406 41.4546 84.1111 41.3216 83.768 41.3243Z" fill="#1F1D20"/>
<path opacity="0.15" d="M83.768 65.1328H72.0776C71.7354 65.1328 71.4074 65.2688 71.1655 65.5107C70.9235 65.7527 70.7875 66.0807 70.7875 66.4229V73.583C70.7875 73.9251 70.9235 74.2532 71.1655 74.4951C71.4074 74.737 71.7354 74.873 72.0776 74.873H83.768C84.1101 74.873 84.4382 74.737 84.6801 74.4951C84.922 74.2532 85.058 73.9251 85.058 73.583V66.4229C85.0554 66.0815 84.9185 65.755 84.6772 65.5137C84.4358 65.2723 84.1093 65.1354 83.768 65.1328V65.1328Z" fill="#1F1D20"/>
</g>
<path d="M77.3677 68.3125H61.1977V69.7125H77.3677V68.3125Z" fill="white"/>
<path d="M77.3677 56.5723H61.1977V57.9723H77.3677V56.5723Z" fill="white"/>
<path d="M77.3677 44.8223H61.1977V46.2223H77.3677V44.8223Z" fill="white"/>
<path d="M77.3677 33.0625H61.1977V34.4625H77.3677V33.0625Z" fill="white"/>
<path d="M83.768 28.5918H72.0776C71.7354 28.5918 71.4074 28.7278 71.1655 28.9697C70.9235 29.2116 70.7875 29.5397 70.7875 29.8818V37.0317C70.7875 37.3739 70.9235 37.7024 71.1655 37.9443C71.4074 38.1863 71.7354 38.3218 72.0776 38.3218H83.768C83.9382 38.3245 84.1064 38.2934 84.2641 38.2295C84.4218 38.1656 84.5656 38.0705 84.686 37.9502C84.8063 37.8299 84.9014 37.6865 84.9653 37.5288C85.0291 37.3711 85.0607 37.2019 85.058 37.0317V29.8818C85.0554 29.5405 84.9185 29.214 84.6772 28.9727C84.4358 28.7313 84.1093 28.5944 83.768 28.5918V28.5918Z" fill="#96D8EC"/>
<path d="M83.768 52.3926H72.0776C71.7354 52.3926 71.4074 52.5286 71.1655 52.7705C70.9235 53.0124 70.7875 53.3405 70.7875 53.6826V60.8423C70.7875 61.0117 70.8213 61.1799 70.8862 61.3364C70.951 61.4929 71.0457 61.6346 71.1655 61.7544C71.2853 61.8742 71.4269 61.9698 71.5834 62.0347C71.7399 62.0995 71.9082 62.1323 72.0776 62.1323H83.768C83.9374 62.1323 84.1047 62.0995 84.2612 62.0347C84.4177 61.9698 84.5603 61.8742 84.6801 61.7544C84.7999 61.6346 84.8946 61.4929 84.9594 61.3364C85.0242 61.1799 85.058 61.0117 85.058 60.8423V53.7524C85.0647 53.5779 85.0356 53.4037 84.9741 53.2402C84.9125 53.0768 84.8189 52.9275 84.6987 52.8008C84.5785 52.6741 84.4348 52.5726 84.2748 52.5024C84.1149 52.4323 83.9426 52.3951 83.768 52.3926V52.3926Z" fill="#4BC8EF"/>
<path d="M83.768 40.4727H72.0776C71.7354 40.4727 71.4074 40.6082 71.1655 40.8501C70.9235 41.092 70.7875 41.4201 70.7875 41.7622V48.9126C70.7875 49.2547 70.9235 49.5828 71.1655 49.8247C71.4074 50.0666 71.7354 50.2026 72.0776 50.2026H83.768C83.9382 50.2053 84.1064 50.1737 84.2641 50.1099C84.4218 50.046 84.5656 49.9509 84.686 49.8306C84.8063 49.7102 84.9014 49.5669 84.9653 49.4092C85.0291 49.2514 85.0607 49.0827 85.058 48.9126V41.7524C85.0528 41.4129 84.9144 41.0888 84.6733 40.8496C84.4322 40.6104 84.1076 40.4752 83.768 40.4727V40.4727Z" fill="#74CFEB"/>
<path d="M83.768 64.2832H72.0776C71.9082 64.2832 71.7399 64.3161 71.5834 64.3809C71.4269 64.4457 71.2853 64.5414 71.1655 64.6612C71.0457 64.781 70.951 64.9226 70.8862 65.0791C70.8213 65.2357 70.7875 65.4039 70.7875 65.5733V72.753C70.7875 72.9224 70.8213 73.0906 70.8862 73.2471C70.951 73.4036 71.0457 73.5453 71.1655 73.6651C71.2853 73.7849 71.4269 73.8795 71.5834 73.9444C71.7399 74.0092 71.9082 74.043 72.0776 74.043H83.768C83.9391 74.0457 84.1082 74.0139 84.267 73.9502C84.4259 73.8866 84.5709 73.792 84.6928 73.6719C84.8147 73.5519 84.9119 73.4088 84.978 73.251C85.044 73.0932 85.0776 72.9241 85.0776 72.753V65.6026C85.0802 65.4293 85.0486 65.2574 84.9838 65.0967C84.9191 64.936 84.8227 64.79 84.7006 64.667C84.5786 64.5441 84.4331 64.4469 84.2729 64.3809C84.1127 64.3149 83.9413 64.2819 83.768 64.2832V64.2832Z" fill="#35AFE4"/>
<path opacity="0.15" d="M63.7674 37.8203H23.5245C22.9835 37.8203 22.5461 38.2577 22.5461 38.7988V63.0297C22.5461 63.5707 22.9835 64.0081 23.5245 64.0081H63.7674C64.3084 64.0081 64.7458 63.5707 64.7458 63.0297V38.7988C64.7573 38.2577 64.3199 37.8203 63.7674 37.8203Z" fill="#1F1D20"/>
<path d="M63.7674 36.9453H23.5245C22.9835 36.9453 22.5461 37.3827 22.5461 37.9238V62.1547C22.5461 62.6957 22.9835 63.1331 23.5245 63.1331H63.7674C64.3084 63.1331 64.7458 62.6957 64.7458 62.1547V37.9238C64.7573 37.3827 64.3199 36.9453 63.7674 36.9453Z" fill="#243A5E"/>
<path opacity="0.15" d="M35.0814 59.426C39.7779 59.426 43.5766 55.6273 43.5766 50.9307C43.5766 46.2342 39.7779 42.4355 35.0814 42.4355C30.3849 42.4355 26.5862 46.2342 26.5862 50.9307C26.5862 55.6273 30.3964 59.426 35.0814 59.426Z" fill="#1F1D20"/>
<path d="M35.0814 58.6662C39.7779 58.6662 43.5766 54.8675 43.5766 50.171C43.5766 45.4744 39.7779 41.6758 35.0814 41.6758C30.3849 41.6758 26.5862 45.4744 26.5862 50.171C26.5862 54.8675 30.3964 58.6662 35.0814 58.6662Z" fill="white"/>
<path d="M39.2258 53.6255C38.9956 51.5189 37.1884 49.8613 35.0012 49.8613C32.8256 49.8613 31.0414 51.4844 30.7767 53.5679C30.7421 53.7176 30.7421 53.8787 30.7421 54.0168C30.7997 54.6154 31.2026 55.191 31.9853 55.6399C33.6429 56.5953 36.3596 56.5953 38.0056 55.6399C38.7884 55.191 39.1798 54.6154 39.2373 54.0168C39.2604 53.8902 39.2373 53.7521 39.2258 53.6255Z" fill="url(#paint2_radial_166_42563)"/>
<path d="M35.0009 49.25C36.4168 49.25 37.5679 48.1104 37.5679 46.7061C37.5679 45.3017 36.4283 44.1621 35.0009 44.1621C33.5735 44.1621 32.4339 45.2902 32.4339 46.7061C32.4339 48.1219 33.585 49.25 35.0009 49.25Z" fill="url(#paint3_radial_166_42563)"/>
<g opacity="0.15">
<path opacity="0.15" d="M60.1764 44.4961H47.8595C47.33 44.4961 46.8925 44.9335 46.8925 45.463C46.8925 45.9925 47.33 46.43 47.8595 46.43H60.1649C60.6944 46.43 61.1318 45.9925 61.1318 45.463C61.1433 44.9335 60.7059 44.4961 60.1764 44.4961Z" fill="#1F1D20"/>
<path opacity="0.15" d="M60.1764 48.709H47.8595C47.33 48.709 46.8925 49.1464 46.8925 49.6759C46.8925 50.2054 47.33 50.6429 47.8595 50.6429H60.1649C60.6944 50.6429 61.1318 50.2054 61.1318 49.6759C61.1433 49.1464 60.7059 48.709 60.1764 48.709Z" fill="#1F1D20"/>
<path opacity="0.15" fill-rule="evenodd" clip-rule="evenodd" d="M47.8595 53.2441H54.0179C54.5474 53.2441 54.9849 53.6816 54.9849 54.2111C54.9849 54.7406 54.5474 55.178 54.0179 55.178H47.8595C47.33 55.178 46.8925 54.7406 46.8925 54.2111C46.8925 53.6816 47.3185 53.2441 47.8595 53.2441Z" fill="#1F1D20"/>
</g>
<path d="M60.1764 43.8398H47.8595C47.33 43.8398 46.8925 44.2773 46.8925 44.8068C46.8925 45.3363 47.33 45.7737 47.8595 45.7737H60.1649C60.6944 45.7737 61.1318 45.3363 61.1318 44.8068C61.1433 44.2773 60.7059 43.8398 60.1764 43.8398Z" fill="#50E6FF"/>
<path d="M60.1764 48.0527H47.8595C47.33 48.0527 46.8925 48.4902 46.8925 49.0197C46.8925 49.5492 47.33 49.9866 47.8595 49.9866H60.1649C60.6944 49.9866 61.1318 49.5492 61.1318 49.0197C61.1433 48.4902 60.7059 48.0527 60.1764 48.0527Z" fill="#32B0E7"/>
<path fill-rule="evenodd" clip-rule="evenodd" d="M47.8595 52.5879H54.0179C54.5474 52.5879 54.9849 53.0253 54.9849 53.5548C54.9849 54.0843 54.5474 54.5218 54.0179 54.5218H47.8595C47.33 54.5218 46.8925 54.0843 46.8925 53.5548C46.8925 53.0253 47.3185 52.5879 47.8595 52.5879Z" fill="#185A97"/>
<path fill-rule="evenodd" clip-rule="evenodd" d="M75.8306 67.6926L65.3259 78.1972L54.5575 67.4288C51.729 64.6003 51.729 60.0073 54.5575 57.1697L54.8031 56.9241C57.6316 54.0956 62.2245 54.0956 65.0622 56.9241L75.8306 67.6926Z" fill="url(#paint4_linear_166_42563)"/>
<path fill-rule="evenodd" clip-rule="evenodd" d="M65.2813 78.1427L55.1495 68.0109L65.9179 57.2425C68.7464 54.414 73.3394 54.414 76.177 57.2425L76.4226 57.4881C79.2511 60.3166 79.2511 64.9095 76.4226 67.7472L66.0179 78.1427C65.8179 78.3519 65.4904 78.3519 65.2813 78.1427Z" fill="url(#paint5_linear_166_42563)"/>
<path d="M73.8209 78.5855C77.4588 78.5855 80.4147 75.6387 80.4147 71.9917C80.4056 68.3537 77.4497 65.416 73.8209 65.416C70.192 65.416 67.227 68.3628 67.227 72.0099C67.227 75.6478 70.1738 78.5855 73.8209 78.5855Z" fill="#002D4C"/>
<path d="M74.3393 68.1348H73.257V75.8473H74.3393V68.1348Z" fill="#F2F2F2"/>
<path d="M77.6498 71.5098H69.9464V72.5921H77.6589L77.6498 71.5098Z" fill="#F2F2F2"/>
<path opacity="0.15" d="M83.768 29.4414H72.0776C71.7354 29.4414 71.4074 29.5774 71.1655 29.8193C70.9235 30.0613 70.7875 30.3893 70.7875 30.7314V37.8813C70.7875 38.2235 70.9235 38.5515 71.1655 38.7935C71.4074 39.0354 71.7354 39.1714 72.0776 39.1714H83.768C83.9382 39.1741 84.1064 39.1425 84.2641 39.0786C84.4218 39.0147 84.5656 38.9201 84.686 38.7998C84.8063 38.6795 84.9014 38.5361 84.9653 38.3784C85.0291 38.2207 85.0607 38.0515 85.058 37.8813V30.7515C85.0594 30.5807 85.0265 30.4116 84.9623 30.2534C84.8982 30.0952 84.8038 29.9507 84.684 29.8291C84.5642 29.7075 84.4213 29.611 84.2641 29.5444C84.1069 29.4779 83.9387 29.4427 83.768 29.4414V29.4414Z" fill="#1F1D20"/>
<path opacity="0.15" d="M83.768 53.2422H72.0776C71.7354 53.2422 71.4074 53.3777 71.1655 53.6196C70.9235 53.8616 70.7875 54.1896 70.7875 54.5317V61.6924C70.7875 62.0345 70.9235 62.3626 71.1655 62.6045C71.4074 62.8464 71.7354 62.9824 72.0776 62.9824H83.768C83.9378 62.9838 84.106 62.9511 84.2631 62.8867C84.4202 62.8224 84.563 62.7275 84.683 62.6074C84.8031 62.4874 84.898 62.3446 84.9623 62.1875C85.0267 62.0304 85.0594 61.8622 85.058 61.6924V54.5518C85.0581 54.2078 84.9225 53.8779 84.6811 53.6328C84.4397 53.3877 84.112 53.2474 83.768 53.2422V53.2422Z" fill="#1F1D20"/>
<path opacity="0.15" d="M83.768 41.3223H72.0776C71.7354 41.3223 71.4074 41.4583 71.1655 41.7002C70.9235 41.9422 70.7875 42.2702 70.7875 42.6123V49.7525C70.7875 50.0946 70.9235 50.4227 71.1655 50.6646C71.4074 50.9065 71.7354 51.0425 72.0776 51.0425H83.768C83.9398 51.048 84.1109 51.0183 84.2709 50.9556C84.431 50.893 84.5762 50.7989 84.6987 50.6783C84.8212 50.5577 84.9177 50.413 84.9828 50.2539C85.048 50.0949 85.0804 49.9244 85.0776 49.7525V42.6026C85.0723 42.2595 84.9314 41.9322 84.686 41.6924C84.4406 41.4527 84.1111 41.3196 83.768 41.3223Z" fill="#1F1D20"/>
<path opacity="0.15" d="M83.768 65.1328H72.0776C71.7354 65.1328 71.4074 65.2688 71.1655 65.5107C70.9235 65.7527 70.7875 66.0807 70.7875 66.4229V73.583C70.7875 73.9251 70.9235 74.2532 71.1655 74.4951C71.4074 74.737 71.7354 74.873 72.0776 74.873H83.768C84.1101 74.873 84.4382 74.737 84.6801 74.4951C84.922 74.2532 85.058 73.9251 85.058 73.583V66.4326C85.0581 66.0896 84.9218 65.7611 84.6801 65.5176C84.4385 65.2741 84.1111 65.1355 83.768 65.1328V65.1328Z" fill="#1F1D20"/>
<path opacity="0.15" d="M66.7172 76.4521C66.9019 76.4522 67.0848 76.4157 67.2553 76.3447C67.4258 76.2737 67.5812 76.1691 67.7114 76.0381C67.8415 75.907 67.9443 75.7521 68.0141 75.5811C68.0839 75.41 68.1189 75.2267 68.1176 75.042V28.752H19.2377V75.0322C19.2377 75.2169 19.2742 75.3998 19.3452 75.5703C19.4161 75.7408 19.5198 75.8953 19.6508 76.0254C19.7819 76.1555 19.9378 76.2584 20.1088 76.3281C20.2798 76.3979 20.4632 76.433 20.6479 76.4316L66.7172 76.4521Z" fill="#1F1D20"/>
<path d="M68.0776 29.1924V28.4326C68.0776 27.9817 67.8983 27.5493 67.5795 27.2305C67.2607 26.9117 66.8282 26.7324 66.3774 26.7324H20.8979C20.447 26.7324 20.0146 26.9117 19.6957 27.2305C19.3769 27.5493 19.1977 27.9817 19.1977 28.4326V73.562C19.1977 74.0129 19.3769 74.4453 19.6957 74.7642C20.0146 75.083 20.447 75.2622 20.8979 75.2622H66.3871C66.6104 75.2622 66.8323 75.2187 67.0385 75.1333C67.2448 75.0479 67.4314 74.922 67.5893 74.7642C67.7472 74.6063 67.873 74.4196 67.9584 74.2134C68.0439 74.0071 68.0873 73.7853 68.0873 73.562V29.2725C68.0873 29.2725 68.0776 29.2224 68.0776 29.1924Z" fill="white"/>
<g opacity="0.15">
<path opacity="0.15" d="M83.768 29.4336H72.0776C71.7354 29.4336 71.4074 29.5691 71.1655 29.811C70.9235 30.053 70.7875 30.3815 70.7875 30.7236V37.8833C70.7875 38.2254 70.9235 38.5535 71.1655 38.7954C71.4074 39.0373 71.7354 39.1733 72.0776 39.1733H83.768C83.9378 39.1747 84.106 39.1425 84.2631 39.0781C84.4202 39.0138 84.563 38.9184 84.683 38.7983C84.8031 38.6783 84.898 38.5355 84.9623 38.3784C85.0267 38.2213 85.0594 38.0531 85.058 37.8833V30.7534C85.0607 30.5819 85.0288 30.4113 84.9653 30.252C84.9018 30.0926 84.8078 29.9474 84.6879 29.8247C84.568 29.702 84.4249 29.6043 84.267 29.5371C84.1091 29.4699 83.9396 29.4349 83.768 29.4336V29.4336Z" fill="#1F1D20"/>
<path opacity="0.15" d="M83.768 53.2441H72.0776C71.7354 53.2441 71.4074 53.3797 71.1655 53.6216C70.9235 53.8635 70.7875 54.1916 70.7875 54.5337V61.6943C70.7875 62.0365 70.9235 62.3645 71.1655 62.6064C71.4074 62.8484 71.7354 62.9844 72.0776 62.9844H83.768C84.1101 62.9844 84.4382 62.8484 84.6801 62.6064C84.922 62.3645 85.058 62.0365 85.058 61.6943V54.5537C85.0581 54.2097 84.9225 53.8799 84.6811 53.6348C84.4397 53.3897 84.112 53.2494 83.768 53.2441V53.2441Z" fill="#1F1D20"/>
<path opacity="0.15" d="M83.768 41.3243H72.0776C71.7354 41.3243 71.4074 41.4603 71.1655 41.7022C70.9235 41.9441 70.7875 42.2722 70.7875 42.6143V49.7544C70.7875 50.0966 70.9235 50.4246 71.1655 50.6665C71.4074 50.9085 71.7354 51.0445 72.0776 51.0445H83.768C83.9398 51.0499 84.1109 51.0202 84.2709 50.9576C84.431 50.8949 84.5762 50.8008 84.6987 50.6802C84.8212 50.5596 84.9177 50.415 84.9828 50.2559C85.048 50.0968 85.0804 49.9263 85.0776 49.7544V42.6045C85.0723 42.2615 84.9314 41.9341 84.686 41.6944C84.4406 41.4546 84.1111 41.3216 83.768 41.3243Z" fill="#1F1D20"/>
<path opacity="0.15" d="M83.768 65.1328H72.0776C71.7354 65.1328 71.4074 65.2688 71.1655 65.5107C70.9235 65.7527 70.7875 66.0807 70.7875 66.4229V73.583C70.7875 73.9251 70.9235 74.2532 71.1655 74.4951C71.4074 74.737 71.7354 74.873 72.0776 74.873H83.768C84.1101 74.873 84.4382 74.737 84.6801 74.4951C84.922 74.2532 85.058 73.9251 85.058 73.583V66.4229C85.0554 66.0815 84.9185 65.755 84.6772 65.5137C84.4358 65.2723 84.1093 65.1354 83.768 65.1328V65.1328Z" fill="#1F1D20"/>
</g>
<path d="M77.3677 68.3125H61.1977V69.7125H77.3677V68.3125Z" fill="white"/>
<path d="M77.3677 56.5723H61.1977V57.9723H77.3677V56.5723Z" fill="white"/>
<path d="M77.3677 44.8223H61.1977V46.2223H77.3677V44.8223Z" fill="white"/>
<path d="M77.3677 33.0625H61.1977V34.4625H77.3677V33.0625Z" fill="white"/>
<path d="M83.768 28.5918H72.0776C71.7354 28.5918 71.4074 28.7278 71.1655 28.9697C70.9235 29.2116 70.7875 29.5397 70.7875 29.8818V37.0317C70.7875 37.3739 70.9235 37.7024 71.1655 37.9443C71.4074 38.1863 71.7354 38.3218 72.0776 38.3218H83.768C83.9382 38.3245 84.1064 38.2934 84.2641 38.2295C84.4218 38.1656 84.5656 38.0705 84.686 37.9502C84.8063 37.8299 84.9014 37.6865 84.9653 37.5288C85.0291 37.3711 85.0607 37.2019 85.058 37.0317V29.8818C85.0554 29.5405 84.9185 29.214 84.6772 28.9727C84.4358 28.7313 84.1093 28.5944 83.768 28.5918V28.5918Z" fill="#96D8EC"/>
<path d="M83.768 52.3926H72.0776C71.7354 52.3926 71.4074 52.5286 71.1655 52.7705C70.9235 53.0124 70.7875 53.3405 70.7875 53.6826V60.8423C70.7875 61.0117 70.8213 61.1799 70.8862 61.3364C70.951 61.4929 71.0457 61.6346 71.1655 61.7544C71.2853 61.8742 71.4269 61.9698 71.5834 62.0347C71.7399 62.0995 71.9082 62.1323 72.0776 62.1323H83.768C83.9374 62.1323 84.1047 62.0995 84.2612 62.0347C84.4177 61.9698 84.5603 61.8742 84.6801 61.7544C84.7999 61.6346 84.8946 61.4929 84.9594 61.3364C85.0242 61.1799 85.058 61.0117 85.058 60.8423V53.7524C85.0647 53.5779 85.0356 53.4037 84.9741 53.2402C84.9125 53.0768 84.8189 52.9275 84.6987 52.8008C84.5785 52.6741 84.4348 52.5726 84.2748 52.5024C84.1149 52.4323 83.9426 52.3951 83.768 52.3926V52.3926Z" fill="#4BC8EF"/>
<path d="M83.768 40.4727H72.0776C71.7354 40.4727 71.4074 40.6082 71.1655 40.8501C70.9235 41.092 70.7875 41.4201 70.7875 41.7622V48.9126C70.7875 49.2547 70.9235 49.5828 71.1655 49.8247C71.4074 50.0666 71.7354 50.2026 72.0776 50.2026H83.768C83.9382 50.2053 84.1064 50.1737 84.2641 50.1099C84.4218 50.046 84.5656 49.9509 84.686 49.8306C84.8063 49.7102 84.9014 49.5669 84.9653 49.4092C85.0291 49.2514 85.0607 49.0827 85.058 48.9126V41.7524C85.0528 41.4129 84.9144 41.0888 84.6733 40.8496C84.4322 40.6104 84.1076 40.4752 83.768 40.4727V40.4727Z" fill="#74CFEB"/>
<path d="M83.768 64.2832H72.0776C71.9082 64.2832 71.7399 64.3161 71.5834 64.3809C71.4269 64.4457 71.2853 64.5414 71.1655 64.6612C71.0457 64.781 70.951 64.9226 70.8862 65.0791C70.8213 65.2357 70.7875 65.4039 70.7875 65.5733V72.753C70.7875 72.9224 70.8213 73.0906 70.8862 73.2471C70.951 73.4036 71.0457 73.5453 71.1655 73.6651C71.2853 73.7849 71.4269 73.8795 71.5834 73.9444C71.7399 74.0092 71.9082 74.043 72.0776 74.043H83.768C83.9391 74.0457 84.1082 74.0139 84.267 73.9502C84.4259 73.8866 84.5709 73.792 84.6928 73.6719C84.8147 73.5519 84.9119 73.4088 84.978 73.251C85.044 73.0932 85.0776 72.9241 85.0776 72.753V65.6026C85.0802 65.4293 85.0486 65.2574 84.9838 65.0967C84.9191 64.936 84.8227 64.79 84.7006 64.667C84.5786 64.5441 84.4331 64.4469 84.2729 64.3809C84.1127 64.3149 83.9413 64.2819 83.768 64.2832V64.2832Z" fill="#35AFE4"/>
<path opacity="0.15" d="M63.7674 37.8203H23.5245C22.9835 37.8203 22.5461 38.2577 22.5461 38.7988V63.0297C22.5461 63.5707 22.9835 64.0081 23.5245 64.0081H63.7674C64.3084 64.0081 64.7458 63.5707 64.7458 63.0297V38.7988C64.7573 38.2577 64.3199 37.8203 63.7674 37.8203Z" fill="#1F1D20"/>
<path d="M63.7674 36.9453H23.5245C22.9835 36.9453 22.5461 37.3827 22.5461 37.9238V62.1547C22.5461 62.6957 22.9835 63.1331 23.5245 63.1331H63.7674C64.3084 63.1331 64.7458 62.6957 64.7458 62.1547V37.9238C64.7573 37.3827 64.3199 36.9453 63.7674 36.9453Z" fill="#243A5E"/>
<path opacity="0.15" d="M35.0814 59.426C39.7779 59.426 43.5766 55.6273 43.5766 50.9307C43.5766 46.2342 39.7779 42.4355 35.0814 42.4355C30.3849 42.4355 26.5862 46.2342 26.5862 50.9307C26.5862 55.6273 30.3964 59.426 35.0814 59.426Z" fill="#1F1D20"/>
<path d="M35.0814 58.6662C39.7779 58.6662 43.5766 54.8675 43.5766 50.171C43.5766 45.4744 39.7779 41.6758 35.0814 41.6758C30.3849 41.6758 26.5862 45.4744 26.5862 50.171C26.5862 54.8675 30.3964 58.6662 35.0814 58.6662Z" fill="white"/>
<path d="M39.2258 53.6255C38.9956 51.5189 37.1884 49.8613 35.0012 49.8613C32.8256 49.8613 31.0414 51.4844 30.7767 53.5679C30.7421 53.7176 30.7421 53.8787 30.7421 54.0168C30.7997 54.6154 31.2026 55.191 31.9853 55.6399C33.6429 56.5953 36.3596 56.5953 38.0056 55.6399C38.7884 55.191 39.1798 54.6154 39.2373 54.0168C39.2604 53.8902 39.2373 53.7521 39.2258 53.6255Z" fill="url(#paint6_radial_166_42563)"/>
<path d="M35.0009 49.25C36.4168 49.25 37.5679 48.1104 37.5679 46.7061C37.5679 45.3017 36.4283 44.1621 35.0009 44.1621C33.5735 44.1621 32.4339 45.2902 32.4339 46.7061C32.4339 48.1219 33.585 49.25 35.0009 49.25Z" fill="url(#paint7_radial_166_42563)"/>
<g opacity="0.15">
<path opacity="0.15" d="M60.1764 44.4961H47.8595C47.33 44.4961 46.8925 44.9335 46.8925 45.463C46.8925 45.9925 47.33 46.43 47.8595 46.43H60.1649C60.6944 46.43 61.1318 45.9925 61.1318 45.463C61.1433 44.9335 60.7059 44.4961 60.1764 44.4961Z" fill="#1F1D20"/>
<path opacity="0.15" d="M60.1764 48.709H47.8595C47.33 48.709 46.8925 49.1464 46.8925 49.6759C46.8925 50.2054 47.33 50.6429 47.8595 50.6429H60.1649C60.6944 50.6429 61.1318 50.2054 61.1318 49.6759C61.1433 49.1464 60.7059 48.709 60.1764 48.709Z" fill="#1F1D20"/>
<path opacity="0.15" fill-rule="evenodd" clip-rule="evenodd" d="M47.8595 53.2441H54.0179C54.5474 53.2441 54.9849 53.6816 54.9849 54.2111C54.9849 54.7406 54.5474 55.178 54.0179 55.178H47.8595C47.33 55.178 46.8925 54.7406 46.8925 54.2111C46.8925 53.6816 47.3185 53.2441 47.8595 53.2441Z" fill="#1F1D20"/>
</g>
<path d="M60.1764 43.8398H47.8595C47.33 43.8398 46.8925 44.2773 46.8925 44.8068C46.8925 45.3363 47.33 45.7737 47.8595 45.7737H60.1649C60.6944 45.7737 61.1318 45.3363 61.1318 44.8068C61.1433 44.2773 60.7059 43.8398 60.1764 43.8398Z" fill="#50E6FF"/>
<path d="M60.1764 48.0527H47.8595C47.33 48.0527 46.8925 48.4902 46.8925 49.0197C46.8925 49.5492 47.33 49.9866 47.8595 49.9866H60.1649C60.6944 49.9866 61.1318 49.5492 61.1318 49.0197C61.1433 48.4902 60.7059 48.0527 60.1764 48.0527Z" fill="#32B0E7"/>
<path fill-rule="evenodd" clip-rule="evenodd" d="M47.8595 52.5879H54.0179C54.5474 52.5879 54.9849 53.0253 54.9849 53.5548C54.9849 54.0843 54.5474 54.5218 54.0179 54.5218H47.8595C47.33 54.5218 46.8925 54.0843 46.8925 53.5548C46.8925 53.0253 47.3185 52.5879 47.8595 52.5879Z" fill="#185A97"/>
<path fill-rule="evenodd" clip-rule="evenodd" d="M75.8306 67.6926L65.3259 78.1972L54.5575 67.4288C51.729 64.6003 51.729 60.0073 54.5575 57.1697L54.8031 56.9241C57.6316 54.0956 62.2245 54.0956 65.0622 56.9241L75.8306 67.6926Z" fill="url(#paint8_linear_166_42563)"/>
<path fill-rule="evenodd" clip-rule="evenodd" d="M65.2813 78.1427L55.1495 68.0109L65.9179 57.2425C68.7464 54.414 73.3394 54.414 76.177 57.2425L76.4226 57.4881C79.2511 60.3166 79.2511 64.9095 76.4226 67.7472L66.0179 78.1427C65.8179 78.3519 65.4904 78.3519 65.2813 78.1427Z" fill="url(#paint9_linear_166_42563)"/>
<path d="M73.8209 78.5855C77.4588 78.5855 80.4147 75.6387 80.4147 71.9917C80.4056 68.3537 77.4497 65.416 73.8209 65.416C70.192 65.416 67.227 68.3628 67.227 72.0099C67.227 75.6478 70.1738 78.5855 73.8209 78.5855Z" fill="#002D4C"/>
<path d="M74.3393 68.1348H73.257V75.8473H74.3393V68.1348Z" fill="#F2F2F2"/>
<path d="M77.6498 71.5098H69.9464V72.5921H77.6589L77.6498 71.5098Z" fill="#F2F2F2"/>
<defs>
<linearGradient id="paint0_linear_166_42563" x1="50.1489" y1="-12.919" x2="54.1309" y2="132.851" gradientUnits="userSpaceOnUse">
<stop stop-color="#00ABDE"/>
<stop offset="1" stop-color="#007ED8"/>
</linearGradient>
<linearGradient id="paint1_linear_166_42563" x1="3.3532" y1="-19.7516" x2="98.8807" y2="121.13" gradientUnits="userSpaceOnUse">
<stop stop-color="#007ED8"/>
<stop offset="0.7065" stop-color="#002D4C"/>
</linearGradient>
<radialGradient id="paint2_radial_166_42563" cx="0" cy="0" r="1" gradientUnits="userSpaceOnUse" gradientTransform="translate(32.5377 46.0321) scale(17.8778)">
<stop stop-color="#4FC2EB"/>
<stop offset="0.585" stop-color="#2E76BC"/>
</radialGradient>
<radialGradient id="paint3_radial_166_42563" cx="0" cy="0" r="1" gradientUnits="userSpaceOnUse" gradientTransform="translate(32.5364 46.0309) scale(17.8778)">
<stop stop-color="#4FC2EB"/>
<stop offset="0.585" stop-color="#2E76BC"/>
</radialGradient>
<linearGradient id="paint4_linear_166_42563" x1="47.0388" y1="53.6944" x2="107.225" y2="99.5284" gradientUnits="userSpaceOnUse">
<stop stop-color="#FFB900"/>
<stop offset="0.17" stop-color="#EF8400"/>
<stop offset="0.31" stop-color="#E25C01"/>
<stop offset="0.43" stop-color="#DB4401"/>
<stop offset="0.5" stop-color="#D83B01"/>
</linearGradient>
<linearGradient id="paint5_linear_166_42563" x1="52.2485" y1="59.9391" x2="97.3109" y2="78.1492" gradientUnits="userSpaceOnUse">
<stop stop-color="#FFB900"/>
<stop offset="0.17" stop-color="#EF8400"/>
<stop offset="0.31" stop-color="#E25C01"/>
<stop offset="0.43" stop-color="#DB4401"/>
<stop offset="0.5" stop-color="#D83B01"/>
</linearGradient>
<radialGradient id="paint6_radial_166_42563" cx="0" cy="0" r="1" gradientUnits="userSpaceOnUse" gradientTransform="translate(32.5377 46.0321) scale(17.8778)">
<stop stop-color="#4FC2EB"/>
<stop offset="0.585" stop-color="#2E76BC"/>
</radialGradient>
<radialGradient id="paint7_radial_166_42563" cx="0" cy="0" r="1" gradientUnits="userSpaceOnUse" gradientTransform="translate(32.5364 46.0309) scale(17.8778)">
<stop stop-color="#4FC2EB"/>
<stop offset="0.585" stop-color="#2E76BC"/>
</radialGradient>
<linearGradient id="paint8_linear_166_42563" x1="47.0388" y1="53.6944" x2="107.225" y2="99.5284" gradientUnits="userSpaceOnUse">
<stop stop-color="#FFB900"/>
<stop offset="0.17" stop-color="#EF8400"/>
<stop offset="0.31" stop-color="#E25C01"/>
<stop offset="0.43" stop-color="#DB4401"/>
<stop offset="0.5" stop-color="#D83B01"/>
</linearGradient>
<linearGradient id="paint9_linear_166_42563" x1="52.2485" y1="59.9391" x2="97.3109" y2="78.1492" gradientUnits="userSpaceOnUse">
<stop stop-color="#FFB900"/>
<stop offset="0.17" stop-color="#EF8400"/>
<stop offset="0.31" stop-color="#E25C01"/>
<stop offset="0.43" stop-color="#DB4401"/>
<stop offset="0.5" stop-color="#D83B01"/>
</linearGradient>
</defs>
</svg>
