<svg width="103" height="103" viewBox="0 0 103 103" fill="none" xmlns="http://www.w3.org/2000/svg">
<path d="M51.9228 98.6825C26.0728 98.6825 5.11279 77.7325 5.11279 51.8725C5.11279 26.0125 26.0728 5.0625 51.9228 5.0625C77.7728 5.0625 98.7328 26.0225 98.7328 51.8725C98.7328 77.7225 77.7728 98.6825 51.9228 98.6825Z" fill="url(#paint0_linear_166_42562)"/>
<path fill-rule="evenodd" clip-rule="evenodd" d="M97.8228 51.8724C97.8228 77.2224 77.2728 97.7724 51.9228 97.7724C26.5728 97.7724 6.02278 77.2224 6.02278 51.8724C6.02278 26.5224 26.5728 5.97243 51.9228 5.97243C77.2728 5.97243 97.8228 26.5224 97.8228 51.8724ZM51.9228 2.23242C79.3428 2.23242 101.563 24.4524 101.563 51.8724C101.563 79.2924 79.3328 101.512 51.9228 101.512C24.5028 101.512 2.28278 79.2824 2.28278 51.8724C2.28278 24.4524 24.5028 2.23242 51.9228 2.23242Z" fill="#F2F1F0"/>
<path fill-rule="evenodd" clip-rule="evenodd" d="M95.0128 51.872C95.0128 75.672 75.7228 94.962 51.9228 94.962C28.1228 94.962 8.8328 75.672 8.8328 51.872C8.8328 28.072 28.1228 8.782 51.9228 8.782C75.7228 8.782 95.0128 28.072 95.0128 51.872ZM51.9228 5.04199C77.7828 5.04199 98.7528 26.012 98.7528 51.872C98.7528 77.732 77.7828 98.702 51.9228 98.702C26.0628 98.702 5.0928 77.732 5.0928 51.872C5.0928 26.012 26.0528 5.04199 51.9228 5.04199Z" fill="url(#paint1_linear_166_42562)"/>
<path opacity="0.15" d="M91.6388 47.9843C91.6388 47.1256 90.9362 46.4119 90.0664 46.4119C89.4977 46.4119 85.985 46.0997 84.0892 44.6277C84.0892 44.6277 84.1004 44.6054 84.0892 44.6277C83.3755 42.0294 82.3273 39.5983 81.0337 37.29C80.6992 35.1043 82.9629 33.5096 84 31.8034C84.1784 31.5024 84.2899 31.3351 84.3568 31.2124C84.5464 30.6548 84.4461 30.0192 84 29.5843C84 29.5843 82.2604 27.0975 80.4761 25.3244C78.6919 23.5513 75.9932 21.5775 75.9932 21.5775C75.3799 20.9642 74.3874 20.9642 73.7741 21.5775C73.3726 21.9678 70.6963 24.1758 68.2764 24.5327C68.2429 24.5327 68.2429 24.5327 68.2429 24.5327C66.0015 23.2614 63.4813 22.2132 60.961 21.4995H60.9276C59.1433 20.1836 59.6117 17.4626 59.1433 15.5223C59.1433 14.6636 58.4408 13.9499 57.571 13.9499C57.571 13.9499 54.5824 13.4258 52.0621 13.4258C49.5419 13.4258 46.2522 13.9499 46.2522 13.9499C45.3935 13.9499 44.6798 14.6524 44.6798 15.5223C44.6798 16.091 44.3676 19.6037 42.8956 21.4995C40.3977 22.202 37.7771 23.3172 35.5579 24.555C33.3722 24.8895 31.7776 22.6258 30.0714 21.5887C29.7703 21.4103 29.603 21.2987 29.4803 21.2318C28.9228 21.0423 28.2871 21.1426 27.8522 21.5887C27.8522 21.5887 25.3654 23.3283 23.5924 25.1125C21.8193 26.8968 19.8455 29.5955 19.8455 29.5955C19.2321 30.2088 19.2321 31.2013 19.8455 31.8146C20.2358 32.2049 22.5107 34.9259 22.8118 37.3011V37.3234C21.5739 39.5426 20.4922 42.152 19.7785 44.65C19.7785 44.65 19.812 44.6054 19.7785 44.65C18.2508 46.5011 15.7417 45.9658 13.8013 46.4342C12.9427 46.4342 12.229 47.1368 12.229 48.0066C12.229 48.0066 11.7049 50.9952 11.7049 53.5154C11.7049 56.0356 12.229 59.3253 12.229 59.3253C12.229 60.184 12.9315 60.8977 13.8013 60.8977C14.3701 60.8977 17.8828 61.2099 19.7785 62.6819C19.8232 62.6596 19.8008 62.7154 19.8008 62.7154C20.5257 65.2245 21.5628 67.7336 22.8229 69.9416C22.8006 69.975 22.8229 69.9416 22.8341 70.0196C23.0459 72.3057 20.9048 73.8 19.8678 75.5062C19.6893 75.8072 19.5778 75.9745 19.5109 76.0972C19.3213 76.6548 19.4217 77.2904 19.8678 77.7253C19.8678 77.7253 21.6074 80.2121 23.3916 81.9852C25.1759 83.7694 27.8745 85.7321 27.8745 85.7321C28.4879 86.3454 29.4803 86.3454 30.0937 85.7321C30.484 85.3418 33.2049 83.0669 35.5802 82.7658C35.5802 82.7658 35.5691 82.7769 35.6137 82.7881C37.8997 84.0594 40.2527 85.063 42.8287 85.7655C42.851 85.7767 42.9291 85.799 42.9291 85.799C44.7133 87.1149 44.2449 89.8358 44.7133 91.7762C44.8137 92.646 45.2932 93.2036 46.2857 93.3486C46.2857 93.3486 49.2743 93.8727 51.7945 93.8727C54.3147 93.8727 57.6044 93.3597 57.6044 93.3597C58.4631 93.2147 59.1768 92.6572 59.1768 91.7873C59.1768 91.2186 59.489 87.7059 60.961 85.8101C60.961 85.8101 61.0279 85.7544 61.0837 85.6986C63.7043 84.9626 65.7004 84.1486 68.0199 82.8215C68.1426 82.7769 68.0088 82.7881 68.2876 82.7435C70.4732 82.4089 72.0679 84.6727 73.7741 85.7098C74.0752 85.8882 74.2424 85.9997 74.3651 86.0666C74.9227 86.2562 75.5583 86.1558 75.9932 85.7098C75.9932 85.7098 78.48 83.9702 80.2531 82.1859C82.0373 80.4017 84 77.703 84 77.703C84.6133 77.0897 84.6133 76.0972 84 75.4839C83.6097 75.0936 81.3348 72.3726 81.0337 69.9973C81.0003 69.752 81.0226 69.7185 81.056 69.6516C82.383 67.321 83.2082 65.6148 83.9331 62.9607C83.9331 62.9607 83.8996 62.8715 84.0669 62.6485C85.3828 60.8642 88.1038 61.3326 90.0441 60.8642C90.9028 60.8642 91.6165 60.1617 91.6165 59.2919C91.6165 59.2919 92.1406 56.3033 92.1406 53.783C92.1517 51.2851 91.6388 47.9843 91.6388 47.9843Z" fill="#1F1D20"/>
<path d="M91.6388 46.9247C91.6388 46.066 90.9363 45.3523 90.0664 45.3523C89.4977 45.3523 85.985 45.0401 84.0892 43.5681C84.0892 43.5681 84.1004 43.5458 84.0892 43.5681C83.3755 40.9698 82.3273 38.5388 81.0337 36.2304C80.6992 34.0447 82.9629 32.4501 84 30.7439C84.1785 30.4428 84.29 30.2755 84.3569 30.1528C84.5465 29.5953 84.4461 28.9596 84 28.5247C84 28.5247 82.2604 26.0379 80.4762 24.2649C78.6919 22.4918 75.9933 20.518 75.9933 20.518C75.3799 19.9046 74.3874 19.9046 73.7741 20.518C73.3727 20.9083 70.6963 23.1163 68.2764 23.4731C68.243 23.4731 68.243 23.4731 68.243 23.4731C66.0015 22.2018 63.4813 21.1536 60.9611 20.4399H60.9276C59.1434 19.124 59.6117 16.4031 59.1434 14.4627C59.1434 13.604 58.4408 12.8903 57.571 12.8903C57.571 12.8903 54.5824 12.3662 52.0622 12.3662C49.5419 12.3662 46.2522 12.8903 46.2522 12.8903C45.3936 12.8903 44.6799 13.5929 44.6799 14.4627C44.6799 15.0314 44.3676 18.5441 42.8956 20.4399C40.3977 21.1424 37.7771 22.2576 35.5579 23.4954C33.3722 23.8299 31.7776 21.5662 30.0714 20.5291C29.7703 20.3507 29.603 20.2392 29.4804 20.1723C28.9228 19.9827 28.2872 20.083 27.8523 20.5291C27.8523 20.5291 25.3655 22.2687 23.5924 24.053C21.8193 25.8372 19.8455 28.5359 19.8455 28.5359C19.2322 29.1492 19.2322 30.1417 19.8455 30.755C20.2358 31.1453 22.5107 33.8663 22.8118 36.2416V36.2639C21.574 38.483 20.4923 41.0925 19.7786 43.5904C19.7786 43.5904 19.812 43.5458 19.7786 43.5904C18.2508 45.4416 15.7417 44.9063 13.8014 45.3746C12.9427 45.3746 12.229 46.0772 12.229 46.947C12.229 46.947 11.7049 49.9356 11.7049 52.4558C11.7049 54.9761 12.229 58.2658 12.229 58.2658C12.229 59.1244 12.9316 59.8381 13.8014 59.8381C14.3701 59.8381 17.8828 60.1504 19.7786 61.6224C19.8232 61.6001 19.8009 61.6558 19.8009 61.6558C20.5257 64.1649 21.5628 66.674 22.8229 68.882C22.8006 68.9154 22.8229 68.882 22.8341 68.9601C23.046 71.2461 20.9049 72.7404 19.8678 74.4466C19.6894 74.7477 19.5779 74.9149 19.5109 75.0376C19.3214 75.5952 19.4217 76.2308 19.8678 76.6657C19.8678 76.6657 21.6074 79.1525 23.3917 80.9256C25.1759 82.7098 27.8746 84.6725 27.8746 84.6725C28.4879 85.2858 29.4804 85.2858 30.0937 84.6725C30.484 84.2822 33.205 82.0073 35.5802 81.7062C35.5802 81.7062 35.5691 81.7174 35.6137 81.7285C37.8998 82.9998 40.2527 84.0034 42.8287 84.706C42.851 84.7171 42.9291 84.7394 42.9291 84.7394C44.7133 86.0553 44.245 88.7763 44.7133 90.7166C44.8137 91.5864 45.2932 92.144 46.2857 92.289C46.2857 92.289 49.2743 92.8131 51.7945 92.8131C54.3148 92.8131 57.6044 92.3001 57.6044 92.3001C58.4631 92.1552 59.1768 91.5976 59.1768 90.7278C59.1768 90.159 59.4891 86.6463 60.9611 84.7506C60.9611 84.7506 61.028 84.6948 61.0837 84.6391C63.7043 83.9031 65.7004 83.089 68.0199 81.762C68.1426 81.7174 68.0088 81.7285 68.2876 81.6839C70.4733 81.3494 72.0679 83.6131 73.7741 84.6502C74.0752 84.8286 74.2425 84.9401 74.3651 85.0071C74.9227 85.1966 75.5584 85.0963 75.9933 84.6502C75.9933 84.6502 78.48 82.9106 80.2531 81.1263C82.0374 79.3421 84 76.6434 84 76.6434C84.6134 76.0301 84.6134 75.0376 84 74.4243C83.6097 74.034 81.3348 71.313 81.0337 68.9377C81.0003 68.6924 81.0226 68.659 81.056 68.5921C82.3831 66.2614 83.2083 64.5552 83.9331 61.9012C83.9331 61.9012 83.8997 61.8119 84.0669 61.5889C85.3828 59.8047 88.1038 60.273 90.0441 59.8047C90.9028 59.8047 91.6165 59.1021 91.6165 58.2323C91.6165 58.2323 92.1406 55.2437 92.1406 52.7235C92.1518 50.2144 91.6388 46.9247 91.6388 46.9247Z" fill="url(#paint2_linear_166_42562)"/>
<path d="M74.4094 84.9954C74.3984 84.9954 74.3984 84.9844 74.3874 84.9844C74.3984 84.9844 74.4094 84.9954 74.4094 84.9954Z" fill="#9FC2F6"/>
<path d="M74.3874 84.9848C74.1643 84.851 73.7963 84.6279 73.7963 84.6279C73.9747 84.7952 74.1755 84.9067 74.3874 84.9848Z" fill="#9FC2F6"/>
<path d="M74.4097 84.9961C74.6223 85.108 74.5775 85.0968 74.4097 84.9961V84.9961Z" fill="#9FC2F6"/>
<path d="M29.5473 20.1943C29.7703 20.3282 30.1383 20.5512 30.1383 20.5512C29.9599 20.3839 29.7592 20.2612 29.5473 20.1943Z" fill="#9FC2F6"/>
<path d="M29.5249 20.1836C29.536 20.1836 29.536 20.1946 29.547 20.1946C29.536 20.1946 29.5249 20.1836 29.5249 20.1836Z" fill="#9FC2F6"/>
<path d="M29.5254 20.1837C29.324 20.0607 29.3575 20.083 29.5254 20.1837V20.1837Z" fill="#9FC2F6"/>
<path d="M19.5556 75.0371C19.4438 75.2385 19.4661 75.1937 19.5556 75.0371V75.0371Z" fill="#9FC2F6"/>
<path d="M19.5556 75.0367C19.5556 75.0257 19.5666 75.0257 19.5666 75.0146C19.5666 75.0257 19.5556 75.0367 19.5556 75.0367Z" fill="#9FC2F6"/>
<path d="M84.3681 30.1641C84.2343 30.3871 84.0113 30.7551 84.0113 30.7551C84.1674 30.5767 84.29 30.3759 84.3681 30.1641Z" fill="#9FC2F6"/>
<path d="M84.379 30.1416C84.379 30.1526 84.3679 30.1526 84.3679 30.1637C84.3679 30.1526 84.379 30.1416 84.379 30.1416Z" fill="#9FC2F6"/>
<path d="M84.3791 30.1426C84.491 29.9412 84.4686 29.986 84.3791 30.1426V30.1426Z" fill="#9FC2F6"/>
<path d="M57.0573 65.6148C57.0473 65.6148 57.0473 65.6048 57.0573 65.6148V65.6148Z" fill="#F2F1F0"/>
<path d="M57.0472 65.6038C56.9802 65.5369 56.8799 65.4365 56.8799 65.4365C56.9245 65.5146 56.9802 65.5703 57.0472 65.6038Z" fill="#F2F1F0"/>
<path d="M57.0579 65.6152C57.1129 65.6702 57.1019 65.6592 57.0579 65.6152V65.6152Z" fill="#F2F1F0"/>
<path d="M46.7876 39.3643C46.8545 39.4312 46.9548 39.5315 46.9548 39.5315C46.9214 39.4646 46.8545 39.3977 46.7876 39.3643Z" fill="#F2F1F0"/>
<path d="M46.7869 39.3525C46.7969 39.3525 46.7969 39.3625 46.7869 39.3525V39.3525Z" fill="#F2F1F0"/>
<path d="M46.7871 39.3526C46.7321 39.2977 46.7431 39.3087 46.7871 39.3526V39.3526Z" fill="#F2F1F0"/>
<path opacity="0.15" d="M75.4936 36.2988H66.0876C65.5155 36.2988 65.0501 36.7642 65.0501 37.3363V43.0958C65.0501 43.668 65.5155 44.1333 66.0876 44.1333H75.5012C76.0733 44.1409 76.5387 43.6756 76.5387 43.0958V37.3439C76.5387 36.7565 76.0733 36.2988 75.4936 36.2988Z" fill="#1F1D20"/>
<path opacity="0.15" d="M75.4936 55.4688H66.0876C65.5155 55.4688 65.0501 55.9341 65.0501 56.5062V62.2734C65.0501 62.8455 65.5155 63.3109 66.0876 63.3109H75.5012C76.0733 63.3109 76.5387 62.8455 76.5387 62.2734V56.5215C76.5387 55.9341 76.0733 55.4688 75.4936 55.4688Z" fill="#1F1D20"/>
<path opacity="0.15" d="M75.4936 45.8652H66.0876C65.5155 45.8652 65.0501 46.3306 65.0501 46.9027V52.6622C65.0501 53.2344 65.5155 53.6997 66.0876 53.6997H75.5012C76.0733 53.7073 76.5387 53.242 76.5387 52.6622V46.9027C76.5387 46.3306 76.0733 45.8652 75.4936 45.8652Z" fill="#1F1D20"/>
<path opacity="0.15" d="M75.4936 65.0352H66.0876C65.5155 65.0352 65.0501 65.5005 65.0501 66.0726V71.8398C65.0501 72.4119 65.5155 72.8773 66.0876 72.8773H75.5012C76.0733 72.8773 76.5387 72.4119 76.5387 71.8398V66.0803C76.5387 65.5081 76.0733 65.0352 75.4936 65.0352Z" fill="#1F1D20"/>
<path fill-rule="evenodd" clip-rule="evenodd" d="M61.0624 58.2119H74.0842V59.2119H61.0624V58.2119Z" fill="white"/>
<path fill-rule="evenodd" clip-rule="evenodd" d="M61.0624 48.752H74.0842V49.752H61.0624V48.752Z" fill="white"/>
<path fill-rule="evenodd" clip-rule="evenodd" d="M60.5624 39.7773C60.5624 39.5012 60.7862 39.2773 61.0624 39.2773H74.0842V40.2773H61.5624V67.663H74.0842V68.663H61.0624C60.7862 68.663 60.5624 68.4391 60.5624 68.163V39.7773Z" fill="white"/>
<path d="M75.4936 35.6123H66.0876C65.5155 35.6123 65.0501 36.0776 65.0501 36.6498V42.4093C65.0501 42.9814 65.5155 43.4468 66.0876 43.4468H75.5012C76.0733 43.4544 76.5387 42.9891 76.5387 42.4093V36.6574C76.5387 36.0776 76.0733 35.6123 75.4936 35.6123Z" fill="#84ECFD"/>
<path d="M75.4936 54.7822H66.0876C65.5155 54.7822 65.0501 55.2476 65.0501 55.8197V61.5869C65.0501 62.159 65.5155 62.6243 66.0876 62.6243H75.5012C76.0733 62.6243 76.5387 62.159 76.5387 61.5869V55.835C76.5387 55.2476 76.0733 54.7822 75.4936 54.7822Z" fill="#45CAF2"/>
<path d="M75.4936 45.1865H66.0876C65.5155 45.1865 65.0501 45.6519 65.0501 46.224V51.9835C65.0501 52.5557 65.5155 53.021 66.0876 53.021H75.5012C76.0733 53.0286 76.5387 52.5633 76.5387 51.9835V46.224C76.5387 45.6519 76.0733 45.1865 75.4936 45.1865Z" fill="#50E6FF"/>
<path d="M75.4936 64.3564H66.0876C65.5155 64.3564 65.0501 64.8218 65.0501 65.3939V71.1611C65.0501 71.7332 65.5155 72.1985 66.0876 72.1985H75.5012C76.0733 72.1985 76.5387 71.7332 76.5387 71.1611V65.4015C76.5387 64.8294 76.0733 64.3564 75.4936 64.3564Z" fill="#32B0E7"/>
<path fill-rule="evenodd" clip-rule="evenodd" d="M51.3055 53.749H61.1005V54.749H51.3055V53.749Z" fill="white"/>
<path opacity="0.2" d="M55.556 70.6333C56.4232 70.6333 57.1298 69.9266 57.1298 69.0594V40.4307H26.1778V69.0487C26.1778 69.9159 26.8844 70.6226 27.7516 70.6226L55.556 70.6333Z" fill="#1F1D21"/>
<path d="M57.1298 39.9382V39.4564C57.1298 38.8568 56.6481 38.3857 56.0592 38.3857H27.2484C26.6596 38.3857 26.1778 38.8675 26.1778 39.4564V39.9917V40.4735V68.0423C26.1778 68.6419 26.6596 69.113 27.2484 69.113H56.0485C56.6481 69.113 57.1191 68.6312 57.1191 68.0423V39.9917C57.1405 39.9703 57.1298 39.9596 57.1298 39.9382Z" fill="white"/>
<path fill-rule="evenodd" clip-rule="evenodd" d="M50.1153 54.8955L40.8841 64.1267L31.4211 54.6638C28.9355 52.1781 28.9355 48.142 31.4211 45.6484L31.6369 45.4326C34.1226 42.947 38.1587 42.947 40.6523 45.4326L50.1153 54.8955Z" fill="url(#paint3_linear_166_42562)"/>
<path fill-rule="evenodd" clip-rule="evenodd" d="M40.8448 64.0793L31.9413 55.1758L41.4043 45.7129C43.8899 43.2272 47.9261 43.2272 50.4197 45.7129L50.6355 45.9286C53.1211 48.4143 53.1211 52.4504 50.6355 54.944L41.4922 64.0793C41.3164 64.2631 41.0287 64.2631 40.8448 64.0793Z" fill="url(#paint4_linear_166_42562)"/>
<path d="M48.3492 64.4685C51.5462 64.4685 54.1437 61.8789 54.1437 58.674C54.1357 55.477 51.5382 52.8955 48.3492 52.8955C45.1603 52.8955 42.5547 55.485 42.5547 58.69C42.5547 61.8869 45.1443 64.4685 48.3492 64.4685Z" fill="#002D4C"/>
<path d="M48.8048 55.2852H47.8537V62.0627H48.8048V55.2852Z" fill="#F2F2F2"/>
<path d="M51.714 58.25H44.9445V59.2011H51.722L51.714 58.25Z" fill="#F2F2F2"/>
<path opacity="0.15" d="M55.556 70.6333C56.4232 70.6333 57.1298 69.9266 57.1298 69.0594V40.4307H26.1778V69.0487C26.1778 69.9159 26.8844 70.6226 27.7516 70.6226L55.556 70.6333Z" fill="#1F1D20"/>
<path d="M57.1298 39.9382V39.4564C57.1298 38.8568 56.6481 38.3857 56.0592 38.3857H27.2484C26.6596 38.3857 26.1778 38.8675 26.1778 39.4564V39.9917V40.4735V68.0423C26.1778 68.6419 26.6596 69.113 27.2484 69.113H56.0485C56.6481 69.113 57.1191 68.6312 57.1191 68.0423V39.9917C57.1405 39.9703 57.1298 39.9596 57.1298 39.9382Z" fill="white"/>
<path fill-rule="evenodd" clip-rule="evenodd" d="M50.6162 54.8955L41.385 64.1267L31.922 54.6638C29.4364 52.1781 29.4364 48.142 31.922 45.6484L32.1378 45.4326C34.6234 42.947 38.6596 42.947 41.1532 45.4326L50.6162 54.8955Z" fill="url(#paint5_linear_166_42562)"/>
<path fill-rule="evenodd" clip-rule="evenodd" d="M41.3457 64.0793L32.4422 55.1758L41.9052 45.7129C44.3908 43.2272 48.427 43.2272 50.9206 45.7129L51.1364 45.9286C53.622 48.4143 53.622 52.4504 51.1364 54.944L41.9931 64.0793C41.8173 64.2631 41.5296 64.2631 41.3457 64.0793Z" fill="url(#paint6_linear_166_42562)"/>
<path d="M53.9189 71.5397C56.5856 71.5397 58.7459 69.3794 58.7459 66.7127C58.7459 64.046 56.5856 61.8857 53.9189 61.8857C51.2523 61.8857 49.092 64.046 49.092 66.7127C49.0984 69.3794 51.2587 71.5397 53.9189 71.5397Z" fill="#50E6FF"/>
<path d="M56.5472 64.2637L52.5728 68.2573L51.3805 67.0586L50.5856 67.8599L52.5728 69.8535L57.3485 65.065L56.5472 64.2637Z" fill="#002D4C"/>
<defs>
<linearGradient id="paint0_linear_166_42562" x1="50.1489" y1="-12.917" x2="54.1309" y2="132.853" gradientUnits="userSpaceOnUse">
<stop stop-color="#00ABDE"/>
<stop offset="1" stop-color="#007ED8"/>
</linearGradient>
<linearGradient id="paint1_linear_166_42562" x1="3.3532" y1="-19.7506" x2="98.8807" y2="121.131" gradientUnits="userSpaceOnUse">
<stop stop-color="#007ED8"/>
<stop offset="0.7065" stop-color="#002D4C"/>
</linearGradient>
<linearGradient id="paint2_linear_166_42562" x1="55.0376" y1="-84.7799" x2="49.3477" y2="169.369" gradientUnits="userSpaceOnUse">
<stop stop-color="#007ED8"/>
<stop offset="0.7065" stop-color="#002D4C"/>
</linearGradient>
<linearGradient id="paint3_linear_166_42562" x1="24.8139" y1="42.5944" x2="77.7036" y2="82.8719" gradientUnits="userSpaceOnUse">
<stop stop-color="#FFB900"/>
<stop offset="0.17" stop-color="#EF8400"/>
<stop offset="0.31" stop-color="#E25C01"/>
<stop offset="0.43" stop-color="#DB4401"/>
<stop offset="0.5" stop-color="#D83B01"/>
</linearGradient>
<linearGradient id="paint4_linear_166_42562" x1="29.392" y1="48.0825" x2="68.9915" y2="64.085" gradientUnits="userSpaceOnUse">
<stop stop-color="#FFB900"/>
<stop offset="0.17" stop-color="#EF8400"/>
<stop offset="0.31" stop-color="#E25C01"/>
<stop offset="0.43" stop-color="#DB4401"/>
<stop offset="0.5" stop-color="#D83B01"/>
</linearGradient>
<linearGradient id="paint5_linear_166_42562" x1="25.3148" y1="42.5944" x2="78.2045" y2="82.8719" gradientUnits="userSpaceOnUse">
<stop stop-color="#FFB900"/>
<stop offset="0.17" stop-color="#EF8400"/>
<stop offset="0.31" stop-color="#E25C01"/>
<stop offset="0.43" stop-color="#DB4401"/>
<stop offset="0.5" stop-color="#D83B01"/>
</linearGradient>
<linearGradient id="paint6_linear_166_42562" x1="29.8929" y1="48.0825" x2="69.4924" y2="64.085" gradientUnits="userSpaceOnUse">
<stop stop-color="#FFB900"/>
<stop offset="0.17" stop-color="#EF8400"/>
<stop offset="0.31" stop-color="#E25C01"/>
<stop offset="0.43" stop-color="#DB4401"/>
<stop offset="0.5" stop-color="#D83B01"/>
</linearGradient>
</defs>
</svg>
