<svg width="103" height="103" viewBox="0 0 103 103" fill="none" xmlns="http://www.w3.org/2000/svg">
<path d="M51.9228 98.4823C26.0728 98.4823 5.11279 77.5323 5.11279 51.6723C5.11279 25.8123 26.0728 4.8623 51.9228 4.8623C77.7728 4.8623 98.7328 25.8223 98.7328 51.6723C98.7328 77.5223 77.7728 98.4823 51.9228 98.4823Z" fill="url(#paint0_linear_166_42569)"/>
<path fill-rule="evenodd" clip-rule="evenodd" d="M97.8228 51.6722C97.8228 77.0222 77.2728 97.5722 51.9228 97.5722C26.5728 97.5722 6.02278 77.0222 6.02278 51.6722C6.02278 26.3222 26.5728 5.77223 51.9228 5.77223C77.2728 5.77223 97.8228 26.3222 97.8228 51.6722ZM51.9228 2.03223C79.3428 2.03223 101.563 24.2522 101.563 51.6722C101.563 79.0922 79.3328 101.312 51.9228 101.312C24.5028 101.312 2.28278 79.0822 2.28278 51.6722C2.28278 24.2522 24.5028 2.03223 51.9228 2.03223Z" fill="#F2F1F0"/>
<path fill-rule="evenodd" clip-rule="evenodd" d="M95.0128 51.6718C95.0128 75.4718 75.7228 94.7618 51.9228 94.7618C28.1228 94.7618 8.8328 75.4718 8.8328 51.6718C8.8328 27.8718 28.1228 8.5818 51.9228 8.5818C75.7228 8.5818 95.0128 27.8718 95.0128 51.6718ZM51.9228 4.8418C77.7828 4.8418 98.7528 25.8118 98.7528 51.6718C98.7528 77.5318 77.7828 98.5018 51.9228 98.5018C26.0628 98.5018 5.0928 77.5318 5.0928 51.6718C5.0928 25.8118 26.0528 4.8418 51.9228 4.8418Z" fill="url(#paint1_linear_166_42569)"/>
<path opacity="0.15" d="M89.3496 46.8381C89.3496 46.0289 88.6876 45.3563 87.8679 45.3563C87.3319 45.3563 84.0217 45.0621 82.2352 43.6749C82.2352 43.6749 82.2457 43.6539 82.2352 43.6749C81.5626 41.2264 80.5748 38.9355 79.3558 36.7602C79.0405 34.7005 81.1738 33.1977 82.1511 31.5899C82.3193 31.3062 82.4244 31.1485 82.4874 31.0329C82.6661 30.5075 82.5715 29.9085 82.1511 29.4987C82.1511 29.4987 80.5118 27.1552 78.8304 25.4843C77.149 23.8134 74.6059 21.9534 74.6059 21.9534C74.0279 21.3754 73.0926 21.3754 72.5146 21.9534C72.1363 22.3212 69.6142 24.4019 67.3338 24.7382C67.3023 24.7382 67.3023 24.7382 67.3023 24.7382C65.19 23.5402 62.815 22.5524 60.4401 21.8798H60.4085C58.7271 20.6398 59.1685 18.0757 58.7271 16.2471C58.7271 15.438 58.0651 14.7654 57.2454 14.7654C57.2454 14.7654 54.4291 14.2715 52.0541 14.2715C49.6791 14.2715 46.579 14.7654 46.579 14.7654C45.7699 14.7654 45.0973 15.4274 45.0973 16.2471C45.0973 16.7831 44.8031 20.0933 43.4159 21.8798C41.0619 22.5419 38.5924 23.5927 36.5012 24.7592C34.4414 25.0745 32.9387 22.9412 31.3309 21.9639C31.0471 21.7957 30.8895 21.6907 30.7739 21.6276C30.2484 21.449 29.6495 21.5435 29.2396 21.9639C29.2396 21.9639 26.8962 23.6032 25.2253 25.2846C23.5544 26.966 21.6943 29.5092 21.6943 29.5092C21.1164 30.0871 21.1164 31.0224 21.6943 31.6004C22.0621 31.9682 24.2059 34.5323 24.4897 36.7707V36.7917C23.3232 38.883 22.3038 41.342 21.6313 43.696C21.6313 43.696 21.6628 43.6539 21.6313 43.696C20.1916 45.4404 17.8271 44.936 15.9986 45.3774C15.1894 45.3774 14.5169 46.0394 14.5169 46.8591C14.5169 46.8591 14.0229 49.6754 14.0229 52.0504C14.0229 54.4254 14.5169 57.5255 14.5169 57.5255C14.5169 58.3346 15.1789 59.0072 15.9986 59.0072C16.5345 59.0072 19.8448 59.3014 21.6313 60.6886C21.6733 60.6676 21.6523 60.7201 21.6523 60.7201C22.3354 63.0846 23.3127 65.4491 24.5002 67.5298C24.4791 67.5613 24.5002 67.5298 24.5107 67.6034C24.7103 69.7576 22.6927 71.1658 21.7153 72.7737C21.5472 73.0574 21.4421 73.215 21.3791 73.3306C21.2004 73.8561 21.295 74.4551 21.7153 74.8649C21.7153 74.8649 23.3547 77.2083 25.0361 78.8792C26.7175 80.5606 29.2606 82.4102 29.2606 82.4102C29.8386 82.9881 30.7739 82.9881 31.3519 82.4102C31.7197 82.0424 34.2838 79.8986 36.5222 79.6148C36.5222 79.6148 36.5117 79.6254 36.5537 79.6359C38.708 80.8339 40.9253 81.7796 43.3529 82.4417C43.3739 82.4522 43.4474 82.4732 43.4474 82.4732C45.1288 83.7132 44.6875 86.2774 45.1288 88.1059C45.2234 88.9256 45.6753 89.451 46.6106 89.5876C46.6106 89.5876 49.4269 90.0816 51.8019 90.0816C54.1769 90.0816 57.2769 89.5982 57.2769 89.5982C58.0861 89.4615 58.7587 88.9361 58.7587 88.1164C58.7587 87.5805 59.0529 84.2702 60.4401 82.4837C60.4401 82.4837 60.5031 82.4312 60.5557 82.3786C63.0252 81.6851 64.9063 80.9179 67.0921 79.6674C67.2077 79.6254 67.0816 79.6359 67.3443 79.5938C69.404 79.2786 70.9068 81.4118 72.5146 82.3892C72.7984 82.5573 72.956 82.6624 73.0716 82.7254C73.597 82.9041 74.196 82.8095 74.6059 82.3892C74.6059 82.3892 76.9493 80.7498 78.6202 79.0684C80.3016 77.387 82.1511 74.8439 82.1511 74.8439C82.7291 74.2659 82.7291 73.3306 82.1511 72.7526C81.7833 72.3848 79.6395 69.8207 79.3558 67.5823C79.3243 67.3511 79.3453 67.3196 79.3768 67.2566C80.6274 65.0602 81.405 63.4524 82.0881 60.9513C82.0881 60.9513 82.0566 60.8672 82.2142 60.6571C83.4542 58.9757 86.0184 59.417 87.8469 58.9757C88.656 58.9757 89.3286 58.3136 89.3286 57.4939C89.3286 57.4939 89.8225 54.6776 89.8225 52.3026C89.833 49.9487 89.3496 46.8381 89.3496 46.8381Z" fill="#1F1D20"/>
<path d="M89.3496 45.8293C89.3496 45.0201 88.6876 44.3476 87.8679 44.3476C87.3319 44.3476 84.0217 44.0533 82.2352 42.6662C82.2352 42.6662 82.2457 42.6451 82.2352 42.6662C81.5626 40.2176 80.5748 37.9267 79.3558 35.7514C79.0405 33.6917 81.1738 32.1889 82.1511 30.5811C82.3193 30.2974 82.4244 30.1397 82.4874 30.0241C82.6661 29.4987 82.5715 28.8997 82.1511 28.4899C82.1511 28.4899 80.5118 26.1464 78.8304 24.4755C77.149 22.8046 74.6059 20.9446 74.6059 20.9446C74.0279 20.3666 73.0926 20.3666 72.5146 20.9446C72.1363 21.3124 69.6142 23.3931 67.3338 23.7294C67.3023 23.7294 67.3023 23.7294 67.3023 23.7294C65.19 22.5314 62.815 21.5436 60.4401 20.871H60.4085C58.7271 19.631 59.1685 17.0669 58.7271 15.2383C58.7271 14.4292 58.0651 13.7566 57.2454 13.7566C57.2454 13.7566 54.4291 13.2627 52.0541 13.2627C49.6791 13.2627 46.579 13.7566 46.579 13.7566C45.7699 13.7566 45.0973 14.4187 45.0973 15.2383C45.0973 15.7743 44.8031 19.0845 43.4159 20.871C41.0619 21.5331 38.5924 22.5839 36.5012 23.7504C34.4414 24.0657 32.9387 21.9324 31.3309 20.9551C31.0471 20.787 30.8895 20.6819 30.7739 20.6188C30.2484 20.4402 29.6495 20.5347 29.2396 20.9551C29.2396 20.9551 26.8962 22.5945 25.2253 24.2759C23.5544 25.9573 21.6943 28.5004 21.6943 28.5004C21.1164 29.0784 21.1164 30.0136 21.6943 30.5916C22.0621 30.9594 24.2059 33.5236 24.4897 35.7619V35.7829C23.3232 37.8742 22.3038 40.3332 21.6313 42.6872C21.6313 42.6872 21.6628 42.6451 21.6313 42.6872C20.1916 44.4316 17.8271 43.9272 15.9986 44.3686C15.1894 44.3686 14.5169 45.0306 14.5169 45.8503C14.5169 45.8503 14.0229 48.6666 14.0229 51.0416C14.0229 53.4166 14.5169 56.5167 14.5169 56.5167C14.5169 57.3259 15.1789 57.9984 15.9986 57.9984C16.5345 57.9984 19.8448 58.2927 21.6313 59.6798C21.6733 59.6588 21.6523 59.7113 21.6523 59.7113C22.3354 62.0758 23.3127 64.4403 24.5002 66.521C24.4791 66.5525 24.5002 66.521 24.5107 66.5946C24.7103 68.7489 22.6927 70.157 21.7153 71.7649C21.5472 72.0486 21.4421 72.2062 21.3791 72.3218C21.2004 72.8473 21.295 73.4463 21.7153 73.8561C21.7153 73.8561 23.3547 76.1996 25.0361 77.8704C26.7175 79.5518 29.2606 81.4014 29.2606 81.4014C29.8386 81.9794 30.7739 81.9794 31.3519 81.4014C31.7197 81.0336 34.2838 78.8898 36.5222 78.6061C36.5222 78.6061 36.5117 78.6166 36.5537 78.6271C38.708 79.8251 40.9253 80.7709 43.3529 81.4329C43.3739 81.4434 43.4474 81.4644 43.4474 81.4644C45.1288 82.7045 44.6875 85.2686 45.1288 87.0971C45.2234 87.9168 45.6753 88.4422 46.6106 88.5788C46.6106 88.5788 49.4269 89.0728 51.8019 89.0728C54.1769 89.0728 57.2769 88.5894 57.2769 88.5894C58.0861 88.4527 58.7587 87.9273 58.7587 87.1076C58.7587 86.5717 59.0529 83.2614 60.4401 81.4749C60.4401 81.4749 60.5031 81.4224 60.5557 81.3699C63.0252 80.6763 64.9063 79.9091 67.0921 78.6586C67.2077 78.6166 67.0816 78.6271 67.3443 78.585C69.404 78.2698 70.9068 80.403 72.5146 81.3804C72.7984 81.5485 72.956 81.6536 73.0716 81.7166C73.597 81.8953 74.196 81.8007 74.6059 81.3804C74.6059 81.3804 76.9493 79.741 78.6202 78.0596C80.3016 76.3782 82.1511 73.8351 82.1511 73.8351C82.7291 73.2571 82.7291 72.3218 82.1511 71.7438C81.7833 71.376 79.6395 68.8119 79.3558 66.5735C79.3243 66.3424 79.3453 66.3108 79.3768 66.2478C80.6274 64.0514 81.405 62.4436 82.0881 59.9425C82.0881 59.9425 82.0566 59.8585 82.2142 59.6483C83.4542 57.9669 86.0184 58.4083 87.8469 57.9669C88.656 57.9669 89.3286 57.3048 89.3286 56.4852C89.3286 56.4852 89.8225 53.6688 89.8225 51.2938C89.833 48.9399 89.3496 45.8293 89.3496 45.8293Z" fill="url(#paint2_linear_166_42569)"/>
<path d="M73.1241 81.7156C73.1136 81.7156 73.1136 81.7051 73.1031 81.7051C73.1136 81.7051 73.1241 81.7156 73.1241 81.7156Z" fill="#9FC2F6"/>
<path d="M73.103 81.7054C72.8929 81.5793 72.5461 81.3691 72.5461 81.3691C72.7142 81.5268 72.9034 81.6319 73.103 81.7054Z" fill="#9FC2F6"/>
<path d="M73.1241 81.7168C73.3133 81.8219 73.2712 81.8009 73.1241 81.7168V81.7168Z" fill="#9FC2F6"/>
<path d="M30.8369 20.6504C31.0471 20.7765 31.3939 20.9867 31.3939 20.9867C31.2363 20.829 31.0366 20.7134 30.8369 20.6504Z" fill="#9FC2F6"/>
<path d="M30.8159 20.6396C30.8264 20.6396 30.8264 20.6502 30.8369 20.6502C30.8264 20.6502 30.8159 20.6396 30.8159 20.6396Z" fill="#9FC2F6"/>
<path d="M30.8157 20.6396C30.6266 20.524 30.6686 20.545 30.8157 20.6396V20.6396Z" fill="#9FC2F6"/>
<path d="M21.4314 72.332C21.3158 72.5212 21.3368 72.4792 21.4314 72.332V72.332Z" fill="#9FC2F6"/>
<path d="M21.4314 72.3316C21.4314 72.3211 21.4419 72.3211 21.4419 72.3105C21.4419 72.3211 21.4314 72.3316 21.4314 72.3316Z" fill="#9FC2F6"/>
<path d="M21.4422 72.3109C21.5683 72.1007 21.7784 71.7539 21.7784 71.7539C21.6208 71.9115 21.5157 72.1007 21.4422 72.3109Z" fill="#9FC2F6"/>
<path d="M82.498 30.0449C82.3719 30.2551 82.1617 30.6019 82.1617 30.6019C82.3194 30.4337 82.435 30.2446 82.498 30.0449Z" fill="#9FC2F6"/>
<path d="M82.5083 30.0244C82.5083 30.0349 82.4978 30.0349 82.4978 30.0454C82.4978 30.0349 82.5083 30.0244 82.5083 30.0244Z" fill="#9FC2F6"/>
<path d="M82.5084 30.0241C82.624 29.8349 82.6029 29.8769 82.5084 30.0241V30.0241Z" fill="#9FC2F6"/>
<path opacity="0.15" d="M40.244 64.1628H75.4746C76.0409 64.1628 76.5 63.7037 76.5 63.1374V39.1504C76.5 38.5841 76.0409 38.125 75.4746 38.125H40.244C39.6777 38.125 39.2186 38.5841 39.2186 39.1504V63.1374C39.2135 63.7037 39.6726 64.1628 40.244 64.1628Z" fill="#1F1D20"/>
<path d="M40.244 62.8623H75.4746C76.0409 62.8623 76.5 62.4031 76.5 61.8369V37.8447C76.5 37.2785 76.0409 36.8193 75.4746 36.8193H40.244C39.6777 36.8193 39.2186 37.2785 39.2186 37.8447V61.8318C39.2135 62.398 39.6726 62.8623 40.244 62.8623Z" fill="#F2F2F2"/>
<path d="M51.4149 60.5283C50.7387 54.4639 45.5367 49.6953 39.2423 49.6953C32.9999 49.6953 27.8499 54.3602 27.0696 60.3728C26.9656 60.7875 26.9656 61.254 26.9656 61.6686C27.1217 63.3791 28.3181 65.0378 30.555 66.3335C35.3408 69.0807 43.1438 69.0807 47.8776 66.3335C50.1144 65.0378 51.2589 63.3791 51.4149 61.6686C51.519 61.3058 51.4669 60.8911 51.4149 60.5283Z" fill="url(#paint3_radial_166_42569)"/>
<path d="M39.2514 48.4536C43.3226 48.4536 46.6229 45.1717 46.6229 41.1233C46.6229 37.0749 43.3226 33.793 39.2514 33.793C35.1803 33.793 31.88 37.0749 31.88 41.1233C31.88 45.1717 35.1803 48.4536 39.2514 48.4536Z" fill="url(#paint4_radial_166_42569)"/>
<path opacity="0.15" fill-rule="evenodd" clip-rule="evenodd" d="M44.2597 56.599L44.1416 56.4808C43.5156 55.8559 42.6673 55.5049 41.7828 55.5049C40.8983 55.5049 40.05 55.8559 39.424 56.4808L39.3059 56.599L39.1877 56.4808C38.8776 56.1699 38.5091 55.9232 38.1035 55.7549C37.6979 55.5866 37.2631 55.5 36.824 55.5C36.3849 55.5 35.9501 55.5866 35.5445 55.7549C35.1389 55.9232 34.7705 56.1699 34.4603 56.4808L34.352 56.5891C33.7271 57.2151 33.3762 58.0633 33.3762 58.9478C33.3762 59.8323 33.7271 60.6806 34.352 61.3066L34.4702 61.4248L39.1483 66.1029C39.1685 66.1244 39.193 66.1415 39.2201 66.1531C39.2471 66.1648 39.2764 66.1709 39.3059 66.1709C39.3354 66.1709 39.3646 66.1648 39.3917 66.1531C39.4188 66.1415 39.4432 66.1244 39.4634 66.1029L44.2597 61.3066C44.884 60.6823 45.2347 59.8356 45.2347 58.9527C45.2347 58.0699 44.884 57.2232 44.2597 56.599V56.599Z" fill="#1F1D20"/>
<path d="M37.2589 55.105C38.143 55.1087 38.3655 55.1065 38.9888 55.7335L39.1778 55.8531L39.4131 55.7759C40.0394 55.1475 40.2209 55.3897 41.1082 55.3875C41.5462 55.3877 41.587 54.6357 41.991 54.8048C42.3951 54.9739 41.7011 55.3053 42.0087 55.617L42.768 55.8819C43.3928 56.5078 42.768 55.8096 42.768 56.6941C42.768 57.5786 43.7283 56.9334 43.1034 57.5593L39.8192 61.903L39.6616 62.0605L39.504 61.903L35.8993 58.8836L35.7713 58.7556C35.4595 58.4469 35.256 59.006 35.0871 58.6011C34.9182 58.1962 34.8046 57.8567 34.8046 57.4181C34.8046 56.9794 34.9173 56.8238 35.0862 56.4189C35.2551 56.0141 35.4816 56.4024 35.7934 56.0938L35.9699 55.7053C36.2797 55.3937 35.4937 54.9561 35.8993 54.7871C36.3049 54.6181 36.4916 55.0862 36.931 55.0857L37.2589 55.105ZM36.8618 53.0606C36.3494 53.059 35.8418 53.1591 35.3684 53.3552C34.895 53.5513 34.3797 53.8384 34.0185 54.2019L33.9102 54.32C33.5469 54.6772 33.3163 55.0856 33.1201 55.5558C32.9239 56.026 32.8237 56.5307 32.8254 57.0402C32.8238 57.5526 32.924 58.0602 33.1201 58.5336C33.3162 59.007 33.6125 59.3912 33.9759 59.7523L34.0547 59.8311L34.0959 59.8766L38.8134 64.5449L38.9218 64.6631C39.028 64.7642 39.169 64.8207 39.3157 64.8207C39.3869 64.821 39.4575 64.8072 39.5234 64.7802C39.5894 64.7531 39.6493 64.7133 39.6998 64.6631L39.8278 64.5449L39.8869 64.476L44.6537 59.7091C45.017 59.352 45.3053 58.9258 45.5014 58.4556C45.6976 57.9854 45.7978 57.4807 45.7961 56.9712C45.7977 56.4589 45.6975 55.9513 45.5014 55.4779C45.3053 55.0045 45.0675 54.6524 44.704 54.2913L44.5957 54.1829C43.9121 53.4965 42.946 53.1443 41.9783 53.0987C41.0106 53.0531 40.0608 53.3755 39.3157 53.9947C38.6203 53.4109 37.7697 53.0621 36.8618 53.0606Z" fill="white"/>
<path fill-rule="evenodd" clip-rule="evenodd" d="M43.7297 59.4966L39.3056 63.9206L34.7912 59.4062C34.5054 59.1233 34.2785 58.7866 34.1237 58.4154C33.9688 58.0442 33.8891 57.646 33.8891 57.2439C33.8891 56.8417 33.9688 56.4435 34.1237 56.0724C34.2785 55.7012 34.5054 55.3644 34.7912 55.0815L34.8905 54.9822C35.1735 54.6964 35.5102 54.4695 35.8814 54.3147C36.2526 54.1598 36.6507 54.0801 37.0529 54.0801C37.4551 54.0801 37.8533 54.1598 38.2244 54.3147C38.5956 54.4695 38.9324 54.6964 39.2153 54.9822L43.7297 59.4966Z" fill="url(#paint5_linear_166_42569)"/>
<path fill-rule="evenodd" clip-rule="evenodd" d="M39.1521 63.7765L34.8724 59.4969L39.3868 54.9824C39.9606 54.4096 40.7384 54.0879 41.5492 54.0879C42.36 54.0879 43.1377 54.4096 43.7116 54.9824L43.8199 55.0908C44.3927 55.6646 44.7145 56.4423 44.7145 57.2532C44.7145 58.064 44.3927 58.8417 43.8199 59.4155L39.432 63.7945C39.3907 63.8252 39.3399 63.8402 39.2887 63.8369C39.2374 63.8335 39.189 63.8122 39.1521 63.7765V63.7765Z" fill="url(#paint6_linear_166_42569)"/>
<path opacity="0.2" d="M69.534 54.7934C71.618 54.7934 73.3109 53.73 73.3109 52.4221C73.3109 51.1142 71.618 50.0508 69.534 50.0508C67.4499 50.0508 65.757 51.1142 65.757 52.4221C65.757 53.73 67.4499 54.7934 69.534 54.7934Z" fill="#1F1D21"/>
<path opacity="0.2" d="M61.2772 54.9106C63.3613 54.9106 65.0542 53.8472 65.0542 52.5393C65.0542 51.2314 63.3613 50.168 61.2772 50.168C59.1932 50.168 57.5003 51.2314 57.5003 52.5393C57.5003 53.8472 59.1932 54.9106 61.2772 54.9106Z" fill="#1F1D21"/>
<path d="M65.1031 52.0181C64.8953 50.1235 63.2696 48.6445 61.3078 48.6445C59.3643 48.6445 57.7447 50.0991 57.5125 51.9754C57.4819 52.1037 57.4819 52.2504 57.4819 52.3848C57.5247 52.9165 57.9097 53.436 58.6004 53.8394C60.0916 54.695 62.5301 54.695 64.003 53.8394C64.6997 53.4299 65.0603 52.9165 65.1031 52.3848C65.1336 52.2626 65.1214 52.1343 65.1031 52.0181Z" fill="url(#paint7_linear_166_42569)"/>
<path d="M61.3017 48.2536C62.5729 48.2536 63.6058 47.2269 63.6058 45.9618C63.6058 44.6967 62.5729 43.6699 61.3017 43.6699C60.0305 43.6699 58.9976 44.6967 58.9976 45.9618C58.9976 47.2269 60.0305 48.2536 61.3017 48.2536Z" fill="url(#paint8_linear_166_42569)"/>
<path d="M73.2804 51.731C73.0726 49.8364 71.4469 48.3574 69.4851 48.3574C67.5416 48.3574 65.922 49.812 65.6898 51.6882C65.6592 51.8166 65.6592 51.9633 65.6592 52.0977C65.702 52.6294 66.087 53.1489 66.7777 53.5523C68.2689 54.4079 70.7074 54.4079 72.1803 53.5523C72.877 53.1428 73.2376 52.6294 73.2804 52.0977C73.3171 51.9755 73.2987 51.841 73.2804 51.731Z" fill="url(#paint9_linear_166_42569)"/>
<path d="M69.4851 47.9606C70.7563 47.9606 71.7892 46.9339 71.7892 45.6688C71.7892 44.4037 70.7502 43.377 69.4851 43.377C68.2139 43.377 67.181 44.4037 67.181 45.6688C67.181 46.9339 68.2139 47.9606 69.4851 47.9606Z" fill="url(#paint10_linear_166_42569)"/>
<path opacity="0.2" d="M53.1733 54.7758C55.2573 54.7758 56.9502 53.7124 56.9502 52.4045C56.9502 51.0966 55.2573 50.0332 53.1733 50.0332C51.0892 50.0332 49.3963 51.0966 49.3963 52.4045C49.3963 53.7124 51.0892 54.7758 53.1733 54.7758Z" fill="#1F1D21"/>
<path d="M56.9197 51.731C56.7119 49.8364 55.0862 48.3574 53.1244 48.3574C51.1809 48.3574 49.5613 49.812 49.3291 51.6882C49.2924 51.8166 49.2924 51.9633 49.2924 52.0977C49.3352 52.6294 49.7202 53.1489 50.4108 53.5523C51.9021 54.4079 54.3406 54.4079 55.8135 53.5523C56.5102 53.1428 56.8708 52.6294 56.9136 52.0977C56.9502 51.9755 56.938 51.841 56.9197 51.731Z" fill="url(#paint11_linear_166_42569)"/>
<path d="M53.1244 47.9606C54.3956 47.9606 55.4284 46.9339 55.4284 45.6688C55.4284 44.4037 54.3956 43.377 53.1244 43.377C51.8531 43.377 50.8203 44.4037 50.8203 45.6688C50.8203 46.9339 51.8531 47.9606 53.1244 47.9606Z" fill="url(#paint12_linear_166_42569)"/>
<path opacity="0.15" d="M89.3496 46.8381C89.3496 46.0289 88.6876 45.3563 87.8679 45.3563C87.3319 45.3563 84.0217 45.0621 82.2352 43.6749C82.2352 43.6749 82.2457 43.6539 82.2352 43.6749C81.5626 41.2264 80.5748 38.9355 79.3558 36.7602C79.0405 34.7005 81.1738 33.1977 82.1511 31.5899C82.3193 31.3062 82.4244 31.1485 82.4874 31.0329C82.6661 30.5075 82.5715 29.9085 82.1511 29.4987C82.1511 29.4987 80.5118 27.1552 78.8304 25.4843C77.149 23.8134 74.6059 21.9534 74.6059 21.9534C74.0279 21.3754 73.0926 21.3754 72.5146 21.9534C72.1363 22.3212 69.6142 24.4019 67.3338 24.7382C67.3023 24.7382 67.3023 24.7382 67.3023 24.7382C65.19 23.5402 62.815 22.5524 60.4401 21.8798H60.4085C58.7271 20.6398 59.1685 18.0757 58.7271 16.2471C58.7271 15.438 58.0651 14.7654 57.2454 14.7654C57.2454 14.7654 54.4291 14.2715 52.0541 14.2715C49.6791 14.2715 46.579 14.7654 46.579 14.7654C45.7699 14.7654 45.0973 15.4274 45.0973 16.2471C45.0973 16.7831 44.8031 20.0933 43.4159 21.8798C41.0619 22.5419 38.5924 23.5927 36.5012 24.7592C34.4414 25.0745 32.9387 22.9412 31.3309 21.9639C31.0471 21.7957 30.8895 21.6907 30.7739 21.6276C30.2484 21.449 29.6495 21.5435 29.2396 21.9639C29.2396 21.9639 26.8962 23.6032 25.2253 25.2846C23.5544 26.966 21.6943 29.5092 21.6943 29.5092C21.1164 30.0871 21.1164 31.0224 21.6943 31.6004C22.0621 31.9682 24.2059 34.5323 24.4897 36.7707V36.7917C23.3232 38.883 22.3038 41.342 21.6313 43.696C21.6313 43.696 21.6628 43.6539 21.6313 43.696C20.1916 45.4404 17.8271 44.936 15.9986 45.3774C15.1894 45.3774 14.5169 46.0394 14.5169 46.8591C14.5169 46.8591 14.0229 49.6754 14.0229 52.0504C14.0229 54.4254 14.5169 57.5255 14.5169 57.5255C14.5169 58.3346 15.1789 59.0072 15.9986 59.0072C16.5345 59.0072 19.8448 59.3014 21.6313 60.6886C21.6733 60.6676 21.6523 60.7201 21.6523 60.7201C22.3354 63.0846 23.3127 65.4491 24.5002 67.5298C24.4791 67.5613 24.5002 67.5298 24.5107 67.6034C24.7103 69.7576 22.6927 71.1658 21.7153 72.7737C21.5472 73.0574 21.4421 73.215 21.3791 73.3306C21.2004 73.8561 21.295 74.4551 21.7153 74.8649C21.7153 74.8649 23.3547 77.2083 25.0361 78.8792C26.7175 80.5606 29.2606 82.4102 29.2606 82.4102C29.8386 82.9881 30.7739 82.9881 31.3519 82.4102C31.7197 82.0424 34.2838 79.8986 36.5222 79.6148C36.5222 79.6148 36.5117 79.6254 36.5537 79.6359C38.708 80.8339 40.9253 81.7796 43.3529 82.4417C43.3739 82.4522 43.4474 82.4732 43.4474 82.4732C45.1288 83.7132 44.6875 86.2774 45.1288 88.1059C45.2234 88.9256 45.6753 89.451 46.6106 89.5876C46.6106 89.5876 49.4269 90.0816 51.8019 90.0816C54.1769 90.0816 57.2769 89.5982 57.2769 89.5982C58.0861 89.4615 58.7587 88.9361 58.7587 88.1164C58.7587 87.5805 59.0529 84.2702 60.4401 82.4837C60.4401 82.4837 60.5031 82.4312 60.5557 82.3786C63.0252 81.6851 64.9063 80.9179 67.0921 79.6674C67.2077 79.6254 67.0816 79.6359 67.3443 79.5938C69.404 79.2786 70.9068 81.4118 72.5146 82.3892C72.7984 82.5573 72.956 82.6624 73.0716 82.7254C73.597 82.9041 74.196 82.8095 74.6059 82.3892C74.6059 82.3892 76.9493 80.7498 78.6202 79.0684C80.3016 77.387 82.1511 74.8439 82.1511 74.8439C82.7291 74.2659 82.7291 73.3306 82.1511 72.7526C81.7833 72.3848 79.6395 69.8207 79.3558 67.5823C79.3243 67.3511 79.3453 67.3196 79.3768 67.2566C80.6274 65.0602 81.405 63.4524 82.0881 60.9513C82.0881 60.9513 82.0566 60.8672 82.2142 60.6571C83.4542 58.9757 86.0184 59.417 87.8469 58.9757C88.656 58.9757 89.3286 58.3136 89.3286 57.4939C89.3286 57.4939 89.8225 54.6776 89.8225 52.3026C89.833 49.9487 89.3496 46.8381 89.3496 46.8381Z" fill="#1F1D20"/>
<path d="M89.3496 45.8293C89.3496 45.0201 88.6876 44.3476 87.8679 44.3476C87.3319 44.3476 84.0217 44.0533 82.2352 42.6662C82.2352 42.6662 82.2457 42.6451 82.2352 42.6662C81.5626 40.2176 80.5748 37.9267 79.3558 35.7514C79.0405 33.6917 81.1738 32.1889 82.1511 30.5811C82.3193 30.2974 82.4244 30.1397 82.4874 30.0241C82.6661 29.4987 82.5715 28.8997 82.1511 28.4899C82.1511 28.4899 80.5118 26.1464 78.8304 24.4755C77.149 22.8046 74.6059 20.9446 74.6059 20.9446C74.0279 20.3666 73.0926 20.3666 72.5146 20.9446C72.1363 21.3124 69.6142 23.3931 67.3338 23.7294C67.3023 23.7294 67.3023 23.7294 67.3023 23.7294C65.19 22.5314 62.815 21.5436 60.4401 20.871H60.4085C58.7271 19.631 59.1685 17.0669 58.7271 15.2383C58.7271 14.4292 58.0651 13.7566 57.2454 13.7566C57.2454 13.7566 54.4291 13.2627 52.0541 13.2627C49.6791 13.2627 46.579 13.7566 46.579 13.7566C45.7699 13.7566 45.0973 14.4187 45.0973 15.2383C45.0973 15.7743 44.8031 19.0845 43.4159 20.871C41.0619 21.5331 38.5924 22.5839 36.5012 23.7504C34.4414 24.0657 32.9387 21.9324 31.3309 20.9551C31.0471 20.787 30.8895 20.6819 30.7739 20.6188C30.2484 20.4402 29.6495 20.5347 29.2396 20.9551C29.2396 20.9551 26.8962 22.5945 25.2253 24.2759C23.5544 25.9573 21.6943 28.5004 21.6943 28.5004C21.1164 29.0784 21.1164 30.0136 21.6943 30.5916C22.0621 30.9594 24.2059 33.5236 24.4897 35.7619V35.7829C23.3232 37.8742 22.3038 40.3332 21.6313 42.6872C21.6313 42.6872 21.6628 42.6451 21.6313 42.6872C20.1916 44.4316 17.8271 43.9272 15.9986 44.3686C15.1894 44.3686 14.5169 45.0306 14.5169 45.8503C14.5169 45.8503 14.0229 48.6666 14.0229 51.0416C14.0229 53.4166 14.5169 56.5167 14.5169 56.5167C14.5169 57.3259 15.1789 57.9984 15.9986 57.9984C16.5345 57.9984 19.8448 58.2927 21.6313 59.6798C21.6733 59.6588 21.6523 59.7113 21.6523 59.7113C22.3354 62.0758 23.3127 64.4403 24.5002 66.521C24.4791 66.5525 24.5002 66.521 24.5107 66.5946C24.7103 68.7489 22.6927 70.157 21.7153 71.7649C21.5472 72.0486 21.4421 72.2062 21.3791 72.3218C21.2004 72.8473 21.295 73.4463 21.7153 73.8561C21.7153 73.8561 23.3547 76.1996 25.0361 77.8704C26.7175 79.5518 29.2606 81.4014 29.2606 81.4014C29.8386 81.9794 30.7739 81.9794 31.3519 81.4014C31.7197 81.0336 34.2838 78.8898 36.5222 78.6061C36.5222 78.6061 36.5117 78.6166 36.5537 78.6271C38.708 79.8251 40.9253 80.7709 43.3529 81.4329C43.3739 81.4434 43.4474 81.4644 43.4474 81.4644C45.1288 82.7045 44.6875 85.2686 45.1288 87.0971C45.2234 87.9168 45.6753 88.4422 46.6106 88.5788C46.6106 88.5788 49.4269 89.0728 51.8019 89.0728C54.1769 89.0728 57.2769 88.5894 57.2769 88.5894C58.0861 88.4527 58.7587 87.9273 58.7587 87.1076C58.7587 86.5717 59.0529 83.2614 60.4401 81.4749C60.4401 81.4749 60.5031 81.4224 60.5557 81.3699C63.0252 80.6763 64.9063 79.9091 67.0921 78.6586C67.2077 78.6166 67.0816 78.6271 67.3443 78.585C69.404 78.2698 70.9068 80.403 72.5146 81.3804C72.7984 81.5485 72.956 81.6536 73.0716 81.7166C73.597 81.8953 74.196 81.8007 74.6059 81.3804C74.6059 81.3804 76.9493 79.741 78.6202 78.0596C80.3016 76.3782 82.1511 73.8351 82.1511 73.8351C82.7291 73.2571 82.7291 72.3218 82.1511 71.7438C81.7833 71.376 79.6395 68.8119 79.3558 66.5735C79.3243 66.3424 79.3453 66.3108 79.3768 66.2478C80.6274 64.0514 81.405 62.4436 82.0881 59.9425C82.0881 59.9425 82.0566 59.8585 82.2142 59.6483C83.4542 57.9669 86.0184 58.4083 87.8469 57.9669C88.656 57.9669 89.3286 57.3048 89.3286 56.4852C89.3286 56.4852 89.8225 53.6688 89.8225 51.2938C89.833 48.9399 89.3496 45.8293 89.3496 45.8293Z" fill="url(#paint13_linear_166_42569)"/>
<path d="M73.1241 81.7156C73.1136 81.7156 73.1136 81.7051 73.1031 81.7051C73.1136 81.7051 73.1241 81.7156 73.1241 81.7156Z" fill="#9FC2F6"/>
<path d="M73.103 81.7054C72.8929 81.5793 72.5461 81.3691 72.5461 81.3691C72.7142 81.5268 72.9034 81.6319 73.103 81.7054Z" fill="#9FC2F6"/>
<path d="M73.1241 81.7168C73.3133 81.8219 73.2712 81.8009 73.1241 81.7168V81.7168Z" fill="#9FC2F6"/>
<path d="M30.8369 20.6504C31.0471 20.7765 31.3939 20.9867 31.3939 20.9867C31.2363 20.829 31.0366 20.7134 30.8369 20.6504Z" fill="#9FC2F6"/>
<path d="M30.8159 20.6396C30.8264 20.6396 30.8264 20.6502 30.8369 20.6502C30.8264 20.6502 30.8159 20.6396 30.8159 20.6396Z" fill="#9FC2F6"/>
<path d="M30.8157 20.6396C30.6266 20.524 30.6686 20.545 30.8157 20.6396V20.6396Z" fill="#9FC2F6"/>
<path d="M21.4314 72.332C21.3158 72.5212 21.3368 72.4792 21.4314 72.332V72.332Z" fill="#9FC2F6"/>
<path d="M21.4314 72.3316C21.4314 72.3211 21.4419 72.3211 21.4419 72.3105C21.4419 72.3211 21.4314 72.3316 21.4314 72.3316Z" fill="#9FC2F6"/>
<path d="M21.4422 72.3109C21.5683 72.1007 21.7784 71.7539 21.7784 71.7539C21.6208 71.9115 21.5157 72.1007 21.4422 72.3109Z" fill="#9FC2F6"/>
<path d="M82.498 30.0449C82.3719 30.2551 82.1617 30.6019 82.1617 30.6019C82.3194 30.4337 82.435 30.2446 82.498 30.0449Z" fill="#9FC2F6"/>
<path d="M82.5083 30.0244C82.5083 30.0349 82.4978 30.0349 82.4978 30.0454C82.4978 30.0349 82.5083 30.0244 82.5083 30.0244Z" fill="#9FC2F6"/>
<path d="M82.5084 30.0241C82.624 29.8349 82.6029 29.8769 82.5084 30.0241V30.0241Z" fill="#9FC2F6"/>
<path opacity="0.15" d="M40.244 64.1628H75.4746C76.0409 64.1628 76.5 63.7037 76.5 63.1374V39.1504C76.5 38.5841 76.0409 38.125 75.4746 38.125H40.244C39.6777 38.125 39.2186 38.5841 39.2186 39.1504V63.1374C39.2135 63.7037 39.6726 64.1628 40.244 64.1628Z" fill="#1F1D20"/>
<path d="M40.244 62.8623H75.4746C76.0409 62.8623 76.5 62.4031 76.5 61.8369V37.8447C76.5 37.2785 76.0409 36.8193 75.4746 36.8193H40.244C39.6777 36.8193 39.2186 37.2785 39.2186 37.8447V61.8318C39.2135 62.398 39.6726 62.8623 40.244 62.8623Z" fill="#F2F2F2"/>
<path d="M51.4149 60.5283C50.7387 54.4639 45.5367 49.6953 39.2423 49.6953C32.9999 49.6953 27.8499 54.3602 27.0696 60.3728C26.9656 60.7875 26.9656 61.254 26.9656 61.6686C27.1217 63.3791 28.3181 65.0378 30.555 66.3335C35.3408 69.0807 43.1438 69.0807 47.8776 66.3335C50.1144 65.0378 51.2589 63.3791 51.4149 61.6686C51.519 61.3058 51.4669 60.8911 51.4149 60.5283Z" fill="url(#paint14_radial_166_42569)"/>
<path d="M39.2514 48.4536C43.3226 48.4536 46.6229 45.1717 46.6229 41.1233C46.6229 37.0749 43.3226 33.793 39.2514 33.793C35.1803 33.793 31.88 37.0749 31.88 41.1233C31.88 45.1717 35.1803 48.4536 39.2514 48.4536Z" fill="url(#paint15_radial_166_42569)"/>
<path opacity="0.15" fill-rule="evenodd" clip-rule="evenodd" d="M44.2597 56.599L44.1416 56.4808C43.5156 55.8559 42.6673 55.5049 41.7828 55.5049C40.8983 55.5049 40.05 55.8559 39.424 56.4808L39.3059 56.599L39.1877 56.4808C38.8776 56.1699 38.5091 55.9232 38.1035 55.7549C37.6979 55.5866 37.2631 55.5 36.824 55.5C36.3849 55.5 35.9501 55.5866 35.5445 55.7549C35.1389 55.9232 34.7705 56.1699 34.4603 56.4808L34.352 56.5891C33.7271 57.2151 33.3762 58.0633 33.3762 58.9478C33.3762 59.8323 33.7271 60.6806 34.352 61.3066L34.4702 61.4248L39.1483 66.1029C39.1685 66.1244 39.193 66.1415 39.2201 66.1531C39.2471 66.1648 39.2764 66.1709 39.3059 66.1709C39.3354 66.1709 39.3646 66.1648 39.3917 66.1531C39.4188 66.1415 39.4432 66.1244 39.4634 66.1029L44.2597 61.3066C44.884 60.6823 45.2347 59.8356 45.2347 58.9527C45.2347 58.0699 44.884 57.2232 44.2597 56.599V56.599Z" fill="#1F1D20"/>
<path d="M37.2589 55.105C38.143 55.1087 38.3655 55.1065 38.9888 55.7335L39.1778 55.8531L39.4131 55.7759C40.0394 55.1475 40.2209 55.3897 41.1082 55.3875C41.5462 55.3877 41.587 54.6357 41.991 54.8048C42.3951 54.9739 41.7011 55.3053 42.0087 55.617L42.768 55.8819C43.3928 56.5078 42.768 55.8096 42.768 56.6941C42.768 57.5786 43.7283 56.9334 43.1034 57.5593L39.8192 61.903L39.6616 62.0605L39.504 61.903L35.8993 58.8836L35.7713 58.7556C35.4595 58.4469 35.256 59.006 35.0871 58.6011C34.9182 58.1962 34.8046 57.8567 34.8046 57.4181C34.8046 56.9794 34.9173 56.8238 35.0862 56.4189C35.2551 56.0141 35.4816 56.4024 35.7934 56.0938L35.9699 55.7053C36.2797 55.3937 35.4937 54.9561 35.8993 54.7871C36.3049 54.6181 36.4916 55.0862 36.931 55.0857L37.2589 55.105ZM36.8618 53.0606C36.3494 53.059 35.8418 53.1591 35.3684 53.3552C34.895 53.5513 34.3797 53.8384 34.0185 54.2019L33.9102 54.32C33.5469 54.6772 33.3163 55.0856 33.1201 55.5558C32.9239 56.026 32.8237 56.5307 32.8254 57.0402C32.8238 57.5526 32.924 58.0602 33.1201 58.5336C33.3162 59.007 33.6125 59.3912 33.9759 59.7523L34.0547 59.8311L34.0959 59.8766L38.8134 64.5449L38.9218 64.6631C39.028 64.7642 39.169 64.8207 39.3157 64.8207C39.3869 64.821 39.4575 64.8072 39.5234 64.7802C39.5894 64.7531 39.6493 64.7133 39.6998 64.6631L39.8278 64.5449L39.8869 64.476L44.6537 59.7091C45.017 59.352 45.3053 58.9258 45.5014 58.4556C45.6976 57.9854 45.7978 57.4807 45.7961 56.9712C45.7977 56.4589 45.6975 55.9513 45.5014 55.4779C45.3053 55.0045 45.0675 54.6524 44.704 54.2913L44.5957 54.1829C43.9121 53.4965 42.946 53.1443 41.9783 53.0987C41.0106 53.0531 40.0608 53.3755 39.3157 53.9947C38.6203 53.4109 37.7697 53.0621 36.8618 53.0606Z" fill="white"/>
<path fill-rule="evenodd" clip-rule="evenodd" d="M43.7297 59.4966L39.3056 63.9206L34.7912 59.4062C34.5054 59.1233 34.2785 58.7866 34.1237 58.4154C33.9688 58.0442 33.8891 57.646 33.8891 57.2439C33.8891 56.8417 33.9688 56.4435 34.1237 56.0724C34.2785 55.7012 34.5054 55.3644 34.7912 55.0815L34.8905 54.9822C35.1735 54.6964 35.5102 54.4695 35.8814 54.3147C36.2526 54.1598 36.6507 54.0801 37.0529 54.0801C37.4551 54.0801 37.8533 54.1598 38.2244 54.3147C38.5956 54.4695 38.9324 54.6964 39.2153 54.9822L43.7297 59.4966Z" fill="url(#paint16_linear_166_42569)"/>
<path fill-rule="evenodd" clip-rule="evenodd" d="M39.1521 63.7765L34.8724 59.4969L39.3868 54.9824C39.9606 54.4096 40.7384 54.0879 41.5492 54.0879C42.36 54.0879 43.1377 54.4096 43.7116 54.9824L43.8199 55.0908C44.3927 55.6646 44.7145 56.4423 44.7145 57.2532C44.7145 58.064 44.3927 58.8417 43.8199 59.4155L39.432 63.7945C39.3907 63.8252 39.3399 63.8402 39.2887 63.8369C39.2374 63.8335 39.189 63.8122 39.1521 63.7765V63.7765Z" fill="url(#paint17_linear_166_42569)"/>
<path opacity="0.2" d="M69.534 54.7934C71.618 54.7934 73.3109 53.73 73.3109 52.4221C73.3109 51.1142 71.618 50.0508 69.534 50.0508C67.4499 50.0508 65.757 51.1142 65.757 52.4221C65.757 53.73 67.4499 54.7934 69.534 54.7934Z" fill="#1F1D21"/>
<path opacity="0.2" d="M61.2772 54.9106C63.3613 54.9106 65.0542 53.8472 65.0542 52.5393C65.0542 51.2314 63.3613 50.168 61.2772 50.168C59.1932 50.168 57.5003 51.2314 57.5003 52.5393C57.5003 53.8472 59.1932 54.9106 61.2772 54.9106Z" fill="#1F1D21"/>
<path d="M65.1031 52.0181C64.8953 50.1235 63.2696 48.6445 61.3078 48.6445C59.3643 48.6445 57.7447 50.0991 57.5125 51.9754C57.4819 52.1037 57.4819 52.2504 57.4819 52.3848C57.5247 52.9165 57.9097 53.436 58.6004 53.8394C60.0916 54.695 62.5301 54.695 64.003 53.8394C64.6997 53.4299 65.0603 52.9165 65.1031 52.3848C65.1336 52.2626 65.1214 52.1343 65.1031 52.0181Z" fill="url(#paint18_linear_166_42569)"/>
<path d="M61.3017 48.2536C62.5729 48.2536 63.6058 47.2269 63.6058 45.9618C63.6058 44.6967 62.5729 43.6699 61.3017 43.6699C60.0305 43.6699 58.9976 44.6967 58.9976 45.9618C58.9976 47.2269 60.0305 48.2536 61.3017 48.2536Z" fill="url(#paint19_linear_166_42569)"/>
<path d="M73.2804 51.731C73.0726 49.8364 71.4469 48.3574 69.4851 48.3574C67.5416 48.3574 65.922 49.812 65.6898 51.6882C65.6592 51.8166 65.6592 51.9633 65.6592 52.0977C65.702 52.6294 66.087 53.1489 66.7777 53.5523C68.2689 54.4079 70.7074 54.4079 72.1803 53.5523C72.877 53.1428 73.2376 52.6294 73.2804 52.0977C73.3171 51.9755 73.2987 51.841 73.2804 51.731Z" fill="url(#paint20_linear_166_42569)"/>
<path d="M69.4851 47.9606C70.7563 47.9606 71.7892 46.9339 71.7892 45.6688C71.7892 44.4037 70.7502 43.377 69.4851 43.377C68.2139 43.377 67.181 44.4037 67.181 45.6688C67.181 46.9339 68.2139 47.9606 69.4851 47.9606Z" fill="url(#paint21_linear_166_42569)"/>
<path opacity="0.2" d="M53.1733 54.7758C55.2573 54.7758 56.9502 53.7124 56.9502 52.4045C56.9502 51.0966 55.2573 50.0332 53.1733 50.0332C51.0892 50.0332 49.3963 51.0966 49.3963 52.4045C49.3963 53.7124 51.0892 54.7758 53.1733 54.7758Z" fill="#1F1D21"/>
<path d="M56.9197 51.731C56.7119 49.8364 55.0862 48.3574 53.1244 48.3574C51.1809 48.3574 49.5613 49.812 49.3291 51.6882C49.2924 51.8166 49.2924 51.9633 49.2924 52.0977C49.3352 52.6294 49.7202 53.1489 50.4108 53.5523C51.9021 54.4079 54.3406 54.4079 55.8135 53.5523C56.5102 53.1428 56.8708 52.6294 56.9136 52.0977C56.9502 51.9755 56.938 51.841 56.9197 51.731Z" fill="url(#paint22_linear_166_42569)"/>
<path d="M53.1244 47.9606C54.3956 47.9606 55.4284 46.9339 55.4284 45.6688C55.4284 44.4037 54.3956 43.377 53.1244 43.377C51.8531 43.377 50.8203 44.4037 50.8203 45.6688C50.8203 46.9339 51.8531 47.9606 53.1244 47.9606Z" fill="url(#paint23_linear_166_42569)"/>
<defs>
<linearGradient id="paint0_linear_166_42569" x1="50.1489" y1="-13.1172" x2="54.1309" y2="132.653" gradientUnits="userSpaceOnUse">
<stop stop-color="#00ABDE"/>
<stop offset="1" stop-color="#007ED8"/>
</linearGradient>
<linearGradient id="paint1_linear_166_42569" x1="3.3532" y1="-19.9508" x2="98.8807" y2="120.931" gradientUnits="userSpaceOnUse">
<stop stop-color="#007ED8"/>
<stop offset="0.7065" stop-color="#002D4C"/>
</linearGradient>
<linearGradient id="paint2_linear_166_42569" x1="54.864" y1="-78.2749" x2="49.502" y2="161.225" gradientUnits="userSpaceOnUse">
<stop stop-color="#007ED8"/>
<stop offset="0.7065" stop-color="#002D4C"/>
</linearGradient>
<radialGradient id="paint3_radial_166_42569" cx="0" cy="0" r="1" gradientUnits="userSpaceOnUse" gradientTransform="translate(34.7405 42.7935) scale(34.8203 34.695)">
<stop stop-color="#4DC2EB"/>
<stop offset="0.585" stop-color="#0078D4"/>
</radialGradient>
<radialGradient id="paint4_radial_166_42569" cx="0" cy="0" r="1" gradientUnits="userSpaceOnUse" gradientTransform="translate(35.6073 37.4048) scale(16.3314 16.2402)">
<stop stop-color="#4DC2EB"/>
<stop offset="0.585" stop-color="#0078D4"/>
</radialGradient>
<linearGradient id="paint5_linear_166_42569" x1="31.6225" y1="53.6168" x2="57.7242" y2="76.8375" gradientUnits="userSpaceOnUse">
<stop stop-color="#FFB900"/>
<stop offset="0.17" stop-color="#EF8400"/>
<stop offset="0.31" stop-color="#E25C01"/>
<stop offset="0.43" stop-color="#DB4401"/>
<stop offset="0.5" stop-color="#D83B01"/>
</linearGradient>
<linearGradient id="paint6_linear_166_42569" x1="33.6524" y1="56.1183" x2="52.6066" y2="63.7814" gradientUnits="userSpaceOnUse">
<stop stop-color="#FFB900"/>
<stop offset="0.17" stop-color="#EF8400"/>
<stop offset="0.31" stop-color="#E25C01"/>
<stop offset="0.43" stop-color="#DB4401"/>
<stop offset="0.5" stop-color="#D83B01"/>
</linearGradient>
<linearGradient id="paint7_linear_166_42569" x1="58.7599" y1="48.6" x2="65.553" y2="57.5766" gradientUnits="userSpaceOnUse">
<stop stop-color="#007ED8"/>
<stop offset="0.7065" stop-color="#002D4C"/>
</linearGradient>
<linearGradient id="paint8_linear_166_42569" x1="59.0562" y1="43.1965" x2="64.2722" y2="49.6256" gradientUnits="userSpaceOnUse">
<stop stop-color="#007ED8"/>
<stop offset="0.7065" stop-color="#002D4C"/>
</linearGradient>
<linearGradient id="paint9_linear_166_42569" x1="66.8297" y1="48.2295" x2="74.2293" y2="57.8125" gradientUnits="userSpaceOnUse">
<stop stop-color="#007ED8"/>
<stop offset="0.7065" stop-color="#002D4C"/>
</linearGradient>
<linearGradient id="paint10_linear_166_42569" x1="66.898" y1="43.1318" x2="73.691" y2="49.8035" gradientUnits="userSpaceOnUse">
<stop stop-color="#007ED8"/>
<stop offset="0.7065" stop-color="#002D4C"/>
</linearGradient>
<linearGradient id="paint11_linear_166_42569" x1="50.7821" y1="48.1644" x2="57.3325" y2="58.1113" gradientUnits="userSpaceOnUse">
<stop stop-color="#007ED8"/>
<stop offset="0.7065" stop-color="#002D4C"/>
</linearGradient>
<linearGradient id="paint12_linear_166_42569" x1="51.2478" y1="42.7984" x2="56.9491" y2="51.5323" gradientUnits="userSpaceOnUse">
<stop stop-color="#007ED8"/>
<stop offset="0.7065" stop-color="#002D4C"/>
</linearGradient>
<linearGradient id="paint13_linear_166_42569" x1="54.864" y1="-78.2749" x2="49.502" y2="161.225" gradientUnits="userSpaceOnUse">
<stop stop-color="#007ED8"/>
<stop offset="0.7065" stop-color="#002D4C"/>
</linearGradient>
<radialGradient id="paint14_radial_166_42569" cx="0" cy="0" r="1" gradientUnits="userSpaceOnUse" gradientTransform="translate(34.7405 42.7935) scale(34.8203 34.695)">
<stop stop-color="#4DC2EB"/>
<stop offset="0.585" stop-color="#0078D4"/>
</radialGradient>
<radialGradient id="paint15_radial_166_42569" cx="0" cy="0" r="1" gradientUnits="userSpaceOnUse" gradientTransform="translate(35.6073 37.4048) scale(16.3314 16.2402)">
<stop stop-color="#4DC2EB"/>
<stop offset="0.585" stop-color="#0078D4"/>
</radialGradient>
<linearGradient id="paint16_linear_166_42569" x1="31.6225" y1="53.6168" x2="57.7242" y2="76.8375" gradientUnits="userSpaceOnUse">
<stop stop-color="#FFB900"/>
<stop offset="0.17" stop-color="#EF8400"/>
<stop offset="0.31" stop-color="#E25C01"/>
<stop offset="0.43" stop-color="#DB4401"/>
<stop offset="0.5" stop-color="#D83B01"/>
</linearGradient>
<linearGradient id="paint17_linear_166_42569" x1="33.6524" y1="56.1183" x2="52.6066" y2="63.7814" gradientUnits="userSpaceOnUse">
<stop stop-color="#FFB900"/>
<stop offset="0.17" stop-color="#EF8400"/>
<stop offset="0.31" stop-color="#E25C01"/>
<stop offset="0.43" stop-color="#DB4401"/>
<stop offset="0.5" stop-color="#D83B01"/>
</linearGradient>
<linearGradient id="paint18_linear_166_42569" x1="58.7599" y1="48.6" x2="65.553" y2="57.5766" gradientUnits="userSpaceOnUse">
<stop stop-color="#007ED8"/>
<stop offset="0.7065" stop-color="#002D4C"/>
</linearGradient>
<linearGradient id="paint19_linear_166_42569" x1="59.0562" y1="43.1965" x2="64.2722" y2="49.6256" gradientUnits="userSpaceOnUse">
<stop stop-color="#007ED8"/>
<stop offset="0.7065" stop-color="#002D4C"/>
</linearGradient>
<linearGradient id="paint20_linear_166_42569" x1="66.8297" y1="48.2295" x2="74.2293" y2="57.8125" gradientUnits="userSpaceOnUse">
<stop stop-color="#007ED8"/>
<stop offset="0.7065" stop-color="#002D4C"/>
</linearGradient>
<linearGradient id="paint21_linear_166_42569" x1="66.898" y1="43.1318" x2="73.691" y2="49.8035" gradientUnits="userSpaceOnUse">
<stop stop-color="#007ED8"/>
<stop offset="0.7065" stop-color="#002D4C"/>
</linearGradient>
<linearGradient id="paint22_linear_166_42569" x1="50.7821" y1="48.1644" x2="57.3325" y2="58.1113" gradientUnits="userSpaceOnUse">
<stop stop-color="#007ED8"/>
<stop offset="0.7065" stop-color="#002D4C"/>
</linearGradient>
<linearGradient id="paint23_linear_166_42569" x1="51.2478" y1="42.7984" x2="56.9491" y2="51.5323" gradientUnits="userSpaceOnUse">
<stop stop-color="#007ED8"/>
<stop offset="0.7065" stop-color="#002D4C"/>
</linearGradient>
</defs>
</svg>
