<svg width="103" height="103" viewBox="0 0 103 103" fill="none" xmlns="http://www.w3.org/2000/svg">
<path d="M51.9228 98.6444C26.0728 98.6444 5.11279 77.6944 5.11279 51.8344C5.11279 25.9744 26.0728 5.02441 51.9228 5.02441C77.7728 5.02441 98.7328 25.9844 98.7328 51.8344C98.7328 77.6844 77.7728 98.6444 51.9228 98.6444Z" fill="url(#paint0_linear_166_42559)"/>
<path fill-rule="evenodd" clip-rule="evenodd" d="M97.8228 51.8343C97.8228 77.1843 77.2728 97.7343 51.9228 97.7343C26.5728 97.7343 6.02278 77.1843 6.02278 51.8343C6.02278 26.4843 26.5728 5.93434 51.9228 5.93434C77.2728 5.93434 97.8228 26.4843 97.8228 51.8343ZM51.9228 2.19434C79.3428 2.19434 101.563 24.4143 101.563 51.8343C101.563 79.2543 79.3328 101.474 51.9228 101.474C24.5028 101.474 2.28278 79.2443 2.28278 51.8343C2.28278 24.4143 24.5028 2.19434 51.9228 2.19434Z" fill="#F2F1F0"/>
<path fill-rule="evenodd" clip-rule="evenodd" d="M95.0128 51.8339C95.0128 75.6339 75.7228 94.9239 51.9228 94.9239C28.1228 94.9239 8.8328 75.6339 8.8328 51.8339C8.8328 28.0339 28.1228 8.74391 51.9228 8.74391C75.7228 8.74391 95.0128 28.0339 95.0128 51.8339ZM51.9228 5.00391C77.7828 5.00391 98.7528 25.9739 98.7528 51.8339C98.7528 77.6939 77.7828 98.6639 51.9228 98.6639C26.0628 98.6639 5.0928 77.6939 5.0928 51.8339C5.0928 25.9739 26.0528 5.00391 51.9228 5.00391Z" fill="url(#paint1_linear_166_42559)"/>
<path opacity="0.15" d="M91.6387 47.5165C91.6387 46.6578 90.9362 45.9441 90.0664 45.9441C89.4976 45.9441 85.9849 45.6319 84.0892 44.1599C84.0892 44.1599 84.1003 44.1376 84.0892 44.1599C83.3755 41.5616 82.3272 39.1306 81.0336 36.8222C80.6991 34.6365 82.9628 33.0419 83.9999 31.3357C84.1784 31.0346 84.2899 30.8673 84.3568 30.7446C84.5464 30.1871 84.446 29.5514 83.9999 29.1165C83.9999 29.1165 82.2603 26.6297 80.4761 24.8567C78.6918 23.0836 75.9932 21.1098 75.9932 21.1098C75.3798 20.4964 74.3874 20.4964 73.774 21.1098C73.3726 21.5001 70.6962 23.7081 68.2763 24.0649C68.2429 24.0649 68.2429 24.0649 68.2429 24.0649C66.0014 22.7936 63.4812 21.7454 60.961 21.0317H60.9275C59.1433 19.7158 59.6116 16.9948 59.1433 15.0545C59.1433 14.1958 58.4407 13.4821 57.5709 13.4821C57.5709 13.4821 54.5823 12.958 52.0621 12.958C49.5418 12.958 46.2521 13.4821 46.2521 13.4821C45.3935 13.4821 44.6798 14.1847 44.6798 15.0545C44.6798 15.6232 44.3675 19.1359 42.8955 21.0317C40.3976 21.7342 37.777 22.8494 35.5579 24.0872C33.3722 24.4217 31.7775 22.158 30.0713 21.1209C29.7702 20.9425 29.603 20.831 29.4803 20.7641C28.9227 20.5745 28.2871 20.6748 27.8522 21.1209C27.8522 21.1209 25.3654 22.8605 23.5923 24.6448C21.8192 26.429 19.8454 29.1277 19.8454 29.1277C19.2321 29.741 19.2321 30.7335 19.8454 31.3468C20.2357 31.7371 22.5106 34.4581 22.8117 36.8334V36.8557C21.5739 39.0748 20.4922 41.6843 19.7785 44.1822C19.7785 44.1822 19.8119 44.1376 19.7785 44.1822C18.2507 46.0333 15.7416 45.4981 13.8013 45.9664C12.9426 45.9664 12.2289 46.669 12.2289 47.5388C12.2289 47.5388 11.7048 50.5274 11.7048 53.0476C11.7048 55.5679 12.2289 58.8576 12.2289 58.8576C12.2289 59.7162 12.9315 60.4299 13.8013 60.4299C14.37 60.4299 17.8827 60.7422 19.7785 62.2142C19.8231 62.1919 19.8008 62.2476 19.8008 62.2476C20.5256 64.7567 21.5627 67.2658 22.8228 69.4738C22.8005 69.5072 22.8228 69.4738 22.834 69.5519C23.0459 71.8379 20.9048 73.3322 19.8677 75.0384C19.6893 75.3395 19.5778 75.5068 19.5109 75.6294C19.3213 76.187 19.4216 76.8226 19.8677 77.2575C19.8677 77.2575 21.6073 79.7443 23.3916 81.5174C25.1758 83.3016 27.8745 85.2643 27.8745 85.2643C28.4878 85.8776 29.4803 85.8776 30.0936 85.2643C30.4839 84.874 33.2049 82.5991 35.5802 82.298C35.5802 82.298 35.569 82.3092 35.6136 82.3203C37.8997 83.5916 40.2526 84.5952 42.8286 85.2978C42.8509 85.3089 42.929 85.3312 42.929 85.3312C44.7132 86.6471 44.2449 89.3681 44.7132 91.3084C44.8136 92.1782 45.2931 92.7358 46.2856 92.8808C46.2856 92.8808 49.2742 93.4049 51.7944 93.4049C54.3147 93.4049 57.6044 92.8919 57.6044 92.8919C58.463 92.747 59.1767 92.1894 59.1767 91.3196C59.1767 90.7508 59.489 87.2381 60.961 85.3424C60.961 85.3424 61.0279 85.2866 61.0836 85.2309C63.7042 84.4949 65.7003 83.6808 68.0199 82.3538C68.1425 82.3092 68.0087 82.3203 68.2875 82.2757C70.4732 81.9412 72.0678 84.2049 73.774 85.242C74.0751 85.4204 74.2424 85.5319 74.3651 85.5989C74.9226 85.7884 75.5583 85.6881 75.9932 85.242C75.9932 85.242 78.48 83.5024 80.253 81.7181C82.0373 79.9339 83.9999 77.2352 83.9999 77.2352C84.6133 76.6219 84.6133 75.6294 83.9999 75.0161C83.6096 74.6258 81.3347 71.9048 81.0336 69.5296C81.0002 69.2842 81.0225 69.2508 81.0559 69.1838C82.383 66.8532 83.2082 65.147 83.933 62.493C83.933 62.493 83.8996 62.4037 84.0669 62.1807C85.3827 60.3965 88.1037 60.8648 90.0441 60.3965C90.9027 60.3965 91.6164 59.6939 91.6164 58.8241C91.6164 58.8241 92.1405 55.8355 92.1405 53.3153C92.1517 50.8173 91.6387 47.5165 91.6387 47.5165Z" fill="#1F1D20"/>
<path d="M91.6388 46.4569C91.6388 45.5983 90.9362 44.8846 90.0664 44.8846C89.4977 44.8846 85.9849 44.5723 84.0892 43.1003C84.0892 43.1003 84.1003 43.078 84.0892 43.1003C83.3755 40.502 82.3273 38.071 81.0337 35.7626C80.6991 33.5769 82.9629 31.9823 84 30.2761C84.1784 29.975 84.2899 29.8077 84.3568 29.6851C84.5464 29.1275 84.446 28.4919 84 28.057C84 28.057 82.2603 25.5702 80.4761 23.7971C78.6919 22.024 75.9932 20.0502 75.9932 20.0502C75.3799 19.4368 74.3874 19.4368 73.7741 20.0502C73.3726 20.4405 70.6962 22.6485 68.2764 23.0053C68.2429 23.0053 68.2429 23.0053 68.2429 23.0053C66.0015 21.7341 63.4812 20.6858 60.961 19.9721H60.9275C59.1433 18.6562 59.6117 15.9353 59.1433 13.9949C59.1433 13.1363 58.4408 12.4226 57.5709 12.4226C57.5709 12.4226 54.5823 11.8984 52.0621 11.8984C49.5419 11.8984 46.2522 12.4226 46.2522 12.4226C45.3935 12.4226 44.6798 13.1251 44.6798 13.9949C44.6798 14.5636 44.3676 18.0764 42.8956 19.9721C40.3976 20.6747 37.777 21.7898 35.5579 23.0276C33.3722 23.3622 31.7775 21.0984 30.0713 20.0613C29.7703 19.8829 29.603 19.7714 29.4803 19.7045C28.9227 19.5149 28.2871 19.6153 27.8522 20.0613C27.8522 20.0613 25.3654 21.801 23.5923 23.5852C21.8192 25.3694 19.8454 28.0681 19.8454 28.0681C19.2321 28.6814 19.2321 29.6739 19.8454 30.2873C20.2357 30.6776 22.5106 33.3985 22.8117 35.7738V35.7961C21.5739 38.0152 20.4922 40.6247 19.7785 43.1226C19.7785 43.1226 19.812 43.078 19.7785 43.1226C18.2508 44.9738 15.7417 44.4385 13.8013 44.9069C12.9427 44.9069 12.229 45.6094 12.229 46.4792C12.229 46.4792 11.7048 49.4678 11.7048 51.9881C11.7048 54.5083 12.229 57.798 12.229 57.798C12.229 58.6567 12.9315 59.3704 13.8013 59.3704C14.37 59.3704 17.8828 59.6826 19.7785 61.1546C19.8231 61.1323 19.8008 61.188 19.8008 61.188C20.5257 63.6971 21.5628 66.2062 22.8229 68.4142C22.8006 68.4477 22.8229 68.4142 22.834 68.4923C23.0459 70.7783 20.9048 72.2726 19.8677 73.9788C19.6893 74.2799 19.5778 74.4472 19.5109 74.5698C19.3213 75.1274 19.4217 75.7631 19.8677 76.198C19.8677 76.198 21.6074 78.6847 23.3916 80.4578C25.1758 82.2421 27.8745 84.2047 27.8745 84.2047C28.4878 84.8181 29.4803 84.8181 30.0937 84.2047C30.484 83.8144 33.2049 81.5395 35.5802 81.2384C35.5802 81.2384 35.569 81.2496 35.6136 81.2607C37.8997 82.532 40.2527 83.5356 42.8287 84.2382C42.851 84.2493 42.929 84.2716 42.929 84.2716C44.7133 85.5875 44.2449 88.3085 44.7133 90.2488C44.8136 91.1187 45.2931 91.6762 46.2856 91.8212C46.2856 91.8212 49.2742 92.3453 51.7945 92.3453C54.3147 92.3453 57.6044 91.8324 57.6044 91.8324C58.4631 91.6874 59.1767 91.1298 59.1767 90.26C59.1767 89.6913 59.489 86.1785 60.961 84.2828C60.961 84.2828 61.0279 84.227 61.0837 84.1713C63.7043 83.4353 65.7004 82.6212 68.0199 81.2942C68.1426 81.2496 68.0087 81.2607 68.2875 81.2161C70.4732 80.8816 72.0679 83.1453 73.7741 84.1824C74.0751 84.3609 74.2424 84.4724 74.3651 84.5393C74.9227 84.7289 75.5583 84.6285 75.9932 84.1824C75.9932 84.1824 78.48 82.4428 80.2531 80.6586C82.0373 78.8743 84 76.1757 84 76.1757C84.6133 75.5623 84.6133 74.5698 84 73.9565C83.6097 73.5662 81.3348 70.8452 81.0337 68.47C81.0002 68.2246 81.0225 68.1912 81.056 68.1243C82.383 65.7936 83.2082 64.0874 83.9331 61.4334C83.9331 61.4334 83.8996 61.3442 84.0669 61.1211C85.3828 59.3369 88.1037 59.8053 90.0441 59.3369C90.9028 59.3369 91.6164 58.6344 91.6164 57.7645C91.6164 57.7645 92.1406 54.7759 92.1406 52.2557C92.1517 49.7466 91.6388 46.4569 91.6388 46.4569Z" fill="url(#paint2_linear_166_42559)"/>
<path d="M74.4094 84.5276C74.3984 84.5276 74.3984 84.5166 74.3873 84.5166C74.3984 84.5166 74.4094 84.5276 74.4094 84.5276Z" fill="#9FC2F6"/>
<path d="M74.3873 84.517C74.1643 84.3832 73.7963 84.1602 73.7963 84.1602C73.9747 84.3274 74.1754 84.4389 74.3873 84.517Z" fill="#9FC2F6"/>
<path d="M74.4096 84.5283C74.6222 84.6402 74.5775 84.629 74.4096 84.5283V84.5283Z" fill="#9FC2F6"/>
<path d="M29.5472 19.7266C29.7702 19.8604 30.1382 20.0834 30.1382 20.0834C29.9598 19.9161 29.7591 19.7935 29.5472 19.7266Z" fill="#9FC2F6"/>
<path d="M29.5249 19.7158C29.5359 19.7158 29.5359 19.7269 29.5469 19.7269C29.5359 19.7269 29.5249 19.7158 29.5249 19.7158Z" fill="#9FC2F6"/>
<path d="M29.5253 19.716C29.3239 19.5929 29.3575 19.6153 29.5253 19.716V19.716Z" fill="#9FC2F6"/>
<path d="M19.5556 74.5693C19.4437 74.7707 19.4661 74.726 19.5556 74.5693V74.5693Z" fill="#9FC2F6"/>
<path d="M19.5555 74.5689C19.5555 74.5579 19.5665 74.5579 19.5665 74.5469C19.5665 74.5579 19.5555 74.5689 19.5555 74.5689Z" fill="#9FC2F6"/>
<path d="M84.368 29.6963C84.2342 29.9193 84.0112 30.2873 84.0112 30.2873C84.1673 30.1089 84.29 29.9082 84.368 29.6963Z" fill="#9FC2F6"/>
<path d="M84.3789 29.6738C84.3789 29.6849 84.3679 29.6849 84.3679 29.6959C84.3679 29.6849 84.3789 29.6738 84.3789 29.6738Z" fill="#9FC2F6"/>
<path d="M84.379 29.6748C84.4909 29.4734 84.4685 29.5182 84.379 29.6748V29.6748Z" fill="#9FC2F6"/>
<path d="M57.0572 65.147C57.0472 65.147 57.0472 65.137 57.0572 65.147V65.147Z" fill="#F2F1F0"/>
<path d="M57.0471 65.136C56.9802 65.0691 56.8798 64.9688 56.8798 64.9688C56.9244 65.0468 56.9802 65.1026 57.0471 65.136Z" fill="#F2F1F0"/>
<path d="M57.0579 65.1475C57.1128 65.2024 57.1018 65.1914 57.0579 65.1475V65.1475Z" fill="#F2F1F0"/>
<path d="M46.7875 38.8965C46.8544 38.9634 46.9548 39.0638 46.9548 39.0638C46.9213 38.9968 46.8544 38.9299 46.7875 38.8965Z" fill="#F2F1F0"/>
<path d="M46.7869 38.8848C46.7969 38.8848 46.7969 38.8948 46.7869 38.8848V38.8848Z" fill="#F2F1F0"/>
<path d="M46.787 38.8849C46.7321 38.8299 46.7431 38.8409 46.787 38.8849V38.8849Z" fill="#F2F1F0"/>
<path opacity="0.15" d="M70.9062 28.0538L33.3595 27.7452C32.5451 27.7366 31.8851 28.3881 31.8851 29.2025L31.4822 78.2017C31.4736 79.0161 32.1251 79.6762 32.9395 79.6762L70.4861 79.9848C71.3005 79.9933 71.9606 79.3418 71.9606 78.5275L72.3635 29.5282C72.3549 28.7224 71.7034 28.0624 70.9062 28.0538Z" fill="#1F1D20"/>
<path d="M70.9147 26.502L33.3681 26.1934C32.5537 26.1849 31.8936 26.8364 31.8936 27.6507L31.4822 76.6414C31.4736 77.4558 32.1251 78.1158 32.9395 78.1158L70.4861 78.4244C71.3005 78.433 71.9606 77.7815 71.9606 76.9672L72.3635 27.9679C72.3635 27.1707 71.7205 26.5106 70.9147 26.502Z" fill="#F2F2F2"/>
<path opacity="0.15" d="M68.3003 28.1826H35.5456V73.7958H68.3003V28.1826Z" fill="#1F1D20"/>
<path d="M68.3003 27.6592H35.5456V73.2724H68.3003V27.6592Z" fill="white"/>
<path fill-rule="evenodd" clip-rule="evenodd" d="M53.8815 20.81C54.9445 21.3844 55.5617 22.5245 55.5531 23.7246V24.0161C55.5531 24.1275 55.5446 24.2218 55.536 24.3332L57.8419 24.3504C58.5277 24.359 59.1706 24.7019 59.5135 25.3019C60.4736 27.0078 59.2564 28.7394 57.6533 28.7223L46.0122 28.6365C45.3264 28.628 44.6835 28.2851 44.3406 27.685C43.3805 25.9791 44.5977 24.2475 46.2008 24.2647L48.3438 24.2818C48.3353 24.1789 48.3353 24.0761 48.3353 23.9646V23.8703C48.3696 21.2644 51.1384 19.3356 53.8815 20.81Z" fill="#243A5E"/>
<path d="M51.9102 25.585C52.7331 25.5936 53.4017 24.9335 53.4103 24.1106C53.4189 23.2876 52.7588 22.619 51.9359 22.6104C51.1129 22.6019 50.4443 23.2619 50.4357 24.0849C50.4357 24.9078 51.0872 25.5764 51.9102 25.585Z" fill="#F2F2F2"/>
<path d="M64.6657 60.4851C63.959 54.148 58.5231 49.165 51.9458 49.165C45.4227 49.165 40.0412 54.0397 39.2258 60.3226C39.1171 60.7559 39.1171 61.2434 39.1171 61.6767C39.2802 63.464 40.5304 65.1973 42.8679 66.5513C47.8688 69.422 56.0226 69.422 60.9693 66.5513C63.3067 65.1973 64.5026 63.464 64.6657 61.6767C64.7744 61.2975 64.72 60.8642 64.6657 60.4851Z" fill="url(#paint3_radial_166_42559)"/>
<path d="M51.9553 47.8667C56.2095 47.8667 59.6582 44.4372 59.6582 40.2068C59.6582 35.9763 56.2095 32.5469 51.9553 32.5469C47.7011 32.5469 44.2524 35.9763 44.2524 40.2068C44.2524 44.4372 47.7011 47.8667 51.9553 47.8667Z" fill="url(#paint4_radial_166_42559)"/>
<path opacity="0.15" fill-rule="evenodd" clip-rule="evenodd" d="M57.1888 56.3769L57.0653 56.2534C56.4112 55.6004 55.5247 55.2337 54.6005 55.2337C53.6762 55.2337 52.7897 55.6004 52.1356 56.2534L52.0122 56.3769L51.8887 56.2534C51.5646 55.9285 51.1796 55.6708 50.7558 55.4949C50.3319 55.3191 49.8776 55.2285 49.4187 55.2285C48.9598 55.2285 48.5055 55.3191 48.0817 55.4949C47.6578 55.6708 47.2728 55.9285 46.9488 56.2534L46.8355 56.3666C46.1826 57.0207 45.8159 57.9071 45.8159 58.8313C45.8159 59.7556 46.1826 60.6421 46.8355 61.2962L46.959 61.4197L51.8475 66.3081C51.8687 66.3305 51.8942 66.3484 51.9225 66.3606C51.9508 66.3728 51.9813 66.3792 52.0122 66.3792C52.043 66.3792 52.0735 66.3728 52.1018 66.3606C52.1301 66.3484 52.1557 66.3305 52.1768 66.3081L57.1888 61.2962C57.8411 60.6438 58.2076 59.759 58.2076 58.8365C58.2076 57.9139 57.8411 57.0292 57.1888 56.3769V56.3769Z" fill="#1F1D20"/>
<path d="M49.8732 54.817C50.797 54.8209 51.0295 54.8186 51.6808 55.4738L51.8783 55.5988L52.1242 55.5181C52.7787 54.8614 52.9684 55.1145 53.8955 55.1122C54.3532 55.1124 54.3958 54.3267 54.8181 54.5033C55.2403 54.68 54.515 55.0263 54.8365 55.3521L55.6299 55.6288C56.2829 56.2829 55.6299 55.5534 55.6299 56.4776C55.6299 57.4018 56.6334 56.7276 55.9805 57.3817L52.5486 61.9206L52.3839 62.0852L52.2193 61.9206L48.4525 58.7655L48.3187 58.6317C47.9929 58.3092 47.7802 58.8934 47.6037 58.4703C47.4272 58.0472 47.3085 57.6925 47.3085 57.2341C47.3085 56.7757 47.4263 56.6131 47.6028 56.19C47.7793 55.767 48.016 56.1728 48.3418 55.8503L48.5263 55.4443C48.85 55.1187 48.0286 54.6615 48.4525 54.4849C48.8763 54.3083 49.0714 54.7974 49.5306 54.7968L49.8732 54.817ZM49.4582 52.6807C48.9228 52.679 48.3923 52.7837 47.8977 52.9886C47.403 53.1935 46.8645 53.4935 46.4871 53.8733L46.3739 53.9968C45.9943 54.37 45.7533 54.7968 45.5483 55.2881C45.3433 55.7794 45.2386 56.3068 45.2404 56.8392C45.2387 57.3747 45.3434 57.9051 45.5483 58.3998C45.7533 58.8944 46.0628 59.2959 46.4426 59.6733L46.5249 59.7556L46.568 59.8032L51.4976 64.6813L51.6108 64.8048C51.7218 64.9105 51.8692 64.9695 52.0224 64.9695C52.0969 64.9698 52.1707 64.9554 52.2395 64.9272C52.3084 64.8989 52.371 64.8573 52.4238 64.8048L52.5576 64.6813L52.6193 64.6093L57.6004 59.6282C57.9801 59.255 58.2813 58.8096 58.4863 58.3183C58.6913 57.8269 58.796 57.2996 58.7942 56.7672C58.7959 56.2318 58.6912 55.7014 58.4863 55.2067C58.2813 54.712 58.0329 54.3441 57.653 53.9667L57.5398 53.8535C56.8255 53.1362 55.816 52.7681 54.8048 52.7205C53.7935 52.6729 52.801 53.0098 52.0224 53.6568C51.2958 53.0468 50.407 52.6823 49.4582 52.6807Z" fill="white"/>
<path fill-rule="evenodd" clip-rule="evenodd" d="M56.6348 59.4071L52.0118 64.03L47.2945 59.3127C46.9959 59.017 46.7588 58.6651 46.597 58.2773C46.4352 57.8895 46.3519 57.4734 46.3519 57.0531C46.3519 56.6329 46.4352 56.2168 46.597 55.8289C46.7588 55.4411 46.9959 55.0891 47.2945 54.7935L47.3983 54.6897C47.694 54.3911 48.0459 54.154 48.4337 53.9922C48.8216 53.8304 49.2377 53.7471 49.6579 53.7471C50.0782 53.7471 50.4942 53.8304 50.8821 53.9922C51.2699 54.154 51.6219 54.3911 51.9175 54.6897L56.6348 59.4071Z" fill="url(#paint5_linear_166_42559)"/>
<path fill-rule="evenodd" clip-rule="evenodd" d="M51.8514 63.879L47.3794 59.407L52.0967 54.6897C52.6964 54.0911 53.509 53.7549 54.3563 53.7549C55.2036 53.7549 56.0163 54.0911 56.6159 54.6897L56.7291 54.8029C57.3277 55.4025 57.6639 56.2152 57.6639 57.0625C57.6639 57.9098 57.3277 58.7224 56.7291 59.322L52.1439 63.8979C52.1008 63.93 52.0478 63.9456 51.9942 63.9422C51.9406 63.9387 51.89 63.9163 51.8514 63.879V63.879Z" fill="url(#paint6_linear_166_42559)"/>
<path opacity="0.15" d="M70.6318 81.1267C74.1979 81.1267 77.0868 78.2378 77.0868 74.6717C77.0868 71.1057 74.1979 68.2168 70.6318 68.2168C67.0657 68.2168 64.1769 71.1057 64.1769 74.6717C64.1855 78.2378 67.0743 81.1267 70.6318 81.1267Z" fill="#1F1D20"/>
<path d="M70.6318 80.3982C74.1979 80.3982 77.0868 77.5093 77.0868 73.9432C77.0868 70.3771 74.1979 67.4883 70.6318 67.4883C67.0657 67.4883 64.1769 70.3771 64.1769 73.9432C64.1855 77.5093 67.0743 80.3982 70.6318 80.3982Z" fill="#002D4C"/>
<path opacity="0.3" d="M74.1465 71.123L68.8316 76.4636L67.2372 74.8606L66.1742 75.9321L68.8316 78.5981L75.218 72.1946L74.1465 71.123Z" fill="#1F1D20"/>
<path d="M74.1465 70.6689L68.8316 76.0095L67.2372 74.4065L66.1742 75.478L68.8316 78.144L75.218 71.7405L74.1465 70.6689Z" fill="#FAF9F8"/>
<path d="M42.4113 33.125H35.3888C35.0807 33.125 34.8374 33.3845 34.8374 33.6764C34.8374 33.9846 35.0969 34.2278 35.3888 34.2278H42.4113C42.7195 34.2278 42.9627 33.9683 42.9627 33.6764C42.9627 33.3683 42.7195 33.125 42.4113 33.125Z" fill="#45CAF2"/>
<path d="M42.4113 35.5254H35.3888C35.0807 35.5254 34.8374 35.7849 34.8374 36.0768C34.8374 36.385 35.0969 36.6282 35.3888 36.6282H42.4113C42.7195 36.6282 42.9627 36.3687 42.9627 36.0768C42.9627 35.7849 42.7195 35.5254 42.4113 35.5254Z" fill="#0078D4"/>
<path fill-rule="evenodd" clip-rule="evenodd" d="M35.3888 38.1201H38.892C39.2001 38.1201 39.4434 38.3796 39.4434 38.6715C39.4434 38.9797 39.1839 39.223 38.892 39.223H35.3888C35.0807 39.223 34.8374 38.9635 34.8374 38.6715C34.8374 38.3634 35.0807 38.1201 35.3888 38.1201Z" fill="#185A97"/>
<path d="M76.9493 56.0088H70.3757" stroke="white" stroke-width="0.8" stroke-miterlimit="10"/>
<path d="M76.9493 51.2344H70.3757" stroke="white" stroke-width="0.8" stroke-miterlimit="10"/>
<path d="M76.9493 46.458H70.3757" stroke="white" stroke-width="0.8" stroke-miterlimit="10"/>
<path d="M76.9493 41.6807H70.3757" stroke="white" stroke-width="0.8" stroke-miterlimit="10"/>
<path d="M79.5482 39.5762H74.7995C74.5086 39.5762 74.2741 39.8106 74.2741 40.1016V43.0084C74.2741 43.2994 74.5086 43.5339 74.7995 43.5339H79.551C79.842 43.5367 80.0765 43.3022 80.0765 43.0113V40.1044C80.0737 39.8106 79.8392 39.5762 79.5482 39.5762Z" fill="#50E6FF"/>
<path d="M79.5482 49.2539H74.7995C74.5086 49.2539 74.2741 49.4884 74.2741 49.7793V52.689C74.2741 52.98 74.5086 53.2144 74.7995 53.2144H79.551C79.842 53.2144 80.0765 52.98 80.0765 52.689V49.7822C80.0737 49.4884 79.8392 49.2539 79.5482 49.2539Z" fill="#3BCAF4"/>
<path d="M79.5482 44.4072H74.7995C74.5086 44.4072 74.2741 44.6417 74.2741 44.9327V47.8395C74.2741 48.1305 74.5086 48.3649 74.7995 48.3649H79.551C79.842 48.3678 80.0765 48.1333 80.0765 47.8395V44.9327C80.0737 44.6417 79.8392 44.4072 79.5482 44.4072Z" fill="#50E6FF"/>
<path d="M79.5482 54.085H74.7995C74.5086 54.085 74.2741 54.3194 74.2741 54.6104V57.5201C74.2741 57.811 74.5086 58.0455 74.7995 58.0455H79.551C79.842 58.0455 80.0765 57.811 80.0765 57.5201V54.6132C80.0737 54.3223 79.8392 54.085 79.5482 54.085Z" fill="#0078D4"/>
<path opacity="0.15" d="M91.6387 47.5165C91.6387 46.6578 90.9362 45.9441 90.0664 45.9441C89.4976 45.9441 85.9849 45.6319 84.0892 44.1599C84.0892 44.1599 84.1003 44.1376 84.0892 44.1599C83.3755 41.5616 82.3272 39.1306 81.0336 36.8222C80.6991 34.6365 82.9628 33.0419 83.9999 31.3357C84.1784 31.0346 84.2899 30.8673 84.3568 30.7446C84.5464 30.1871 84.446 29.5514 83.9999 29.1165C83.9999 29.1165 82.2603 26.6297 80.4761 24.8567C78.6918 23.0836 75.9932 21.1098 75.9932 21.1098C75.3798 20.4964 74.3874 20.4964 73.774 21.1098C73.3726 21.5001 70.6962 23.7081 68.2763 24.0649C68.2429 24.0649 68.2429 24.0649 68.2429 24.0649C66.0014 22.7936 63.4812 21.7454 60.961 21.0317H60.9275C59.1433 19.7158 59.6116 16.9948 59.1433 15.0545C59.1433 14.1958 58.4407 13.4821 57.5709 13.4821C57.5709 13.4821 54.5823 12.958 52.0621 12.958C49.5418 12.958 46.2521 13.4821 46.2521 13.4821C45.3935 13.4821 44.6798 14.1847 44.6798 15.0545C44.6798 15.6232 44.3675 19.1359 42.8955 21.0317C40.3976 21.7342 37.777 22.8494 35.5579 24.0872C33.3722 24.4217 31.7775 22.158 30.0713 21.1209C29.7702 20.9425 29.603 20.831 29.4803 20.7641C28.9227 20.5745 28.2871 20.6748 27.8522 21.1209C27.8522 21.1209 25.3654 22.8605 23.5923 24.6448C21.8192 26.429 19.8454 29.1277 19.8454 29.1277C19.2321 29.741 19.2321 30.7335 19.8454 31.3468C20.2357 31.7371 22.5106 34.4581 22.8117 36.8334V36.8557C21.5739 39.0748 20.4922 41.6843 19.7785 44.1822C19.7785 44.1822 19.8119 44.1376 19.7785 44.1822C18.2507 46.0333 15.7416 45.4981 13.8013 45.9664C12.9426 45.9664 12.2289 46.669 12.2289 47.5388C12.2289 47.5388 11.7048 50.5274 11.7048 53.0476C11.7048 55.5679 12.2289 58.8576 12.2289 58.8576C12.2289 59.7162 12.9315 60.4299 13.8013 60.4299C14.37 60.4299 17.8827 60.7422 19.7785 62.2142C19.8231 62.1919 19.8008 62.2476 19.8008 62.2476C20.5256 64.7567 21.5627 67.2658 22.8228 69.4738C22.8005 69.5072 22.8228 69.4738 22.834 69.5519C23.0459 71.8379 20.9048 73.3322 19.8677 75.0384C19.6893 75.3395 19.5778 75.5068 19.5109 75.6294C19.3213 76.187 19.4216 76.8226 19.8677 77.2575C19.8677 77.2575 21.6073 79.7443 23.3916 81.5174C25.1758 83.3016 27.8745 85.2643 27.8745 85.2643C28.4878 85.8776 29.4803 85.8776 30.0936 85.2643C30.4839 84.874 33.2049 82.5991 35.5802 82.298C35.5802 82.298 35.569 82.3092 35.6136 82.3203C37.8997 83.5916 40.2526 84.5952 42.8286 85.2978C42.8509 85.3089 42.929 85.3312 42.929 85.3312C44.7132 86.6471 44.2449 89.3681 44.7132 91.3084C44.8136 92.1782 45.2931 92.7358 46.2856 92.8808C46.2856 92.8808 49.2742 93.4049 51.7944 93.4049C54.3147 93.4049 57.6044 92.8919 57.6044 92.8919C58.463 92.747 59.1767 92.1894 59.1767 91.3196C59.1767 90.7508 59.489 87.2381 60.961 85.3424C60.961 85.3424 61.0279 85.2866 61.0836 85.2309C63.7042 84.4949 65.7003 83.6808 68.0199 82.3538C68.1425 82.3092 68.0087 82.3203 68.2875 82.2757C70.4732 81.9412 72.0678 84.2049 73.774 85.242C74.0751 85.4204 74.2424 85.5319 74.3651 85.5989C74.9226 85.7884 75.5583 85.6881 75.9932 85.242C75.9932 85.242 78.48 83.5024 80.253 81.7181C82.0373 79.9339 83.9999 77.2352 83.9999 77.2352C84.6133 76.6219 84.6133 75.6294 83.9999 75.0161C83.6096 74.6258 81.3347 71.9048 81.0336 69.5296C81.0002 69.2842 81.0225 69.2508 81.0559 69.1838C82.383 66.8532 83.2082 65.147 83.933 62.493C83.933 62.493 83.8996 62.4037 84.0669 62.1807C85.3827 60.3965 88.1037 60.8648 90.0441 60.3965C90.9027 60.3965 91.6164 59.6939 91.6164 58.8241C91.6164 58.8241 92.1405 55.8355 92.1405 53.3153C92.1517 50.8173 91.6387 47.5165 91.6387 47.5165Z" fill="#1F1D20"/>
<path d="M91.6388 46.4569C91.6388 45.5983 90.9362 44.8846 90.0664 44.8846C89.4977 44.8846 85.9849 44.5723 84.0892 43.1003C84.0892 43.1003 84.1003 43.078 84.0892 43.1003C83.3755 40.502 82.3273 38.071 81.0337 35.7626C80.6991 33.5769 82.9629 31.9823 84 30.2761C84.1784 29.975 84.2899 29.8077 84.3568 29.6851C84.5464 29.1275 84.446 28.4919 84 28.057C84 28.057 82.2603 25.5702 80.4761 23.7971C78.6919 22.024 75.9932 20.0502 75.9932 20.0502C75.3799 19.4368 74.3874 19.4368 73.7741 20.0502C73.3726 20.4405 70.6962 22.6485 68.2764 23.0053C68.2429 23.0053 68.2429 23.0053 68.2429 23.0053C66.0015 21.7341 63.4812 20.6858 60.961 19.9721H60.9275C59.1433 18.6562 59.6117 15.9353 59.1433 13.9949C59.1433 13.1363 58.4408 12.4226 57.5709 12.4226C57.5709 12.4226 54.5823 11.8984 52.0621 11.8984C49.5419 11.8984 46.2522 12.4226 46.2522 12.4226C45.3935 12.4226 44.6798 13.1251 44.6798 13.9949C44.6798 14.5636 44.3676 18.0764 42.8956 19.9721C40.3976 20.6747 37.777 21.7898 35.5579 23.0276C33.3722 23.3622 31.7775 21.0984 30.0713 20.0613C29.7703 19.8829 29.603 19.7714 29.4803 19.7045C28.9227 19.5149 28.2871 19.6153 27.8522 20.0613C27.8522 20.0613 25.3654 21.801 23.5923 23.5852C21.8192 25.3694 19.8454 28.0681 19.8454 28.0681C19.2321 28.6814 19.2321 29.6739 19.8454 30.2873C20.2357 30.6776 22.5106 33.3985 22.8117 35.7738V35.7961C21.5739 38.0152 20.4922 40.6247 19.7785 43.1226C19.7785 43.1226 19.812 43.078 19.7785 43.1226C18.2508 44.9738 15.7417 44.4385 13.8013 44.9069C12.9427 44.9069 12.229 45.6094 12.229 46.4792C12.229 46.4792 11.7048 49.4678 11.7048 51.9881C11.7048 54.5083 12.229 57.798 12.229 57.798C12.229 58.6567 12.9315 59.3704 13.8013 59.3704C14.37 59.3704 17.8828 59.6826 19.7785 61.1546C19.8231 61.1323 19.8008 61.188 19.8008 61.188C20.5257 63.6971 21.5628 66.2062 22.8229 68.4142C22.8006 68.4477 22.8229 68.4142 22.834 68.4923C23.0459 70.7783 20.9048 72.2726 19.8677 73.9788C19.6893 74.2799 19.5778 74.4472 19.5109 74.5698C19.3213 75.1274 19.4217 75.7631 19.8677 76.198C19.8677 76.198 21.6074 78.6847 23.3916 80.4578C25.1758 82.2421 27.8745 84.2047 27.8745 84.2047C28.4878 84.8181 29.4803 84.8181 30.0937 84.2047C30.484 83.8144 33.2049 81.5395 35.5802 81.2384C35.5802 81.2384 35.569 81.2496 35.6136 81.2607C37.8997 82.532 40.2527 83.5356 42.8287 84.2382C42.851 84.2493 42.929 84.2716 42.929 84.2716C44.7133 85.5875 44.2449 88.3085 44.7133 90.2488C44.8136 91.1187 45.2931 91.6762 46.2856 91.8212C46.2856 91.8212 49.2742 92.3453 51.7945 92.3453C54.3147 92.3453 57.6044 91.8324 57.6044 91.8324C58.4631 91.6874 59.1767 91.1298 59.1767 90.26C59.1767 89.6913 59.489 86.1785 60.961 84.2828C60.961 84.2828 61.0279 84.227 61.0837 84.1713C63.7043 83.4353 65.7004 82.6212 68.0199 81.2942C68.1426 81.2496 68.0087 81.2607 68.2875 81.2161C70.4732 80.8816 72.0679 83.1453 73.7741 84.1824C74.0751 84.3609 74.2424 84.4724 74.3651 84.5393C74.9227 84.7289 75.5583 84.6285 75.9932 84.1824C75.9932 84.1824 78.48 82.4428 80.2531 80.6586C82.0373 78.8743 84 76.1757 84 76.1757C84.6133 75.5623 84.6133 74.5698 84 73.9565C83.6097 73.5662 81.3348 70.8452 81.0337 68.47C81.0002 68.2246 81.0225 68.1912 81.056 68.1243C82.383 65.7936 83.2082 64.0874 83.9331 61.4334C83.9331 61.4334 83.8996 61.3442 84.0669 61.1211C85.3828 59.3369 88.1037 59.8053 90.0441 59.3369C90.9028 59.3369 91.6164 58.6344 91.6164 57.7645C91.6164 57.7645 92.1406 54.7759 92.1406 52.2557C92.1517 49.7466 91.6388 46.4569 91.6388 46.4569Z" fill="url(#paint7_linear_166_42559)"/>
<path d="M74.4094 84.5276C74.3984 84.5276 74.3984 84.5166 74.3873 84.5166C74.3984 84.5166 74.4094 84.5276 74.4094 84.5276Z" fill="#9FC2F6"/>
<path d="M74.3873 84.517C74.1643 84.3832 73.7963 84.1602 73.7963 84.1602C73.9747 84.3274 74.1754 84.4389 74.3873 84.517Z" fill="#9FC2F6"/>
<path d="M74.4096 84.5283C74.6222 84.6402 74.5775 84.629 74.4096 84.5283V84.5283Z" fill="#9FC2F6"/>
<path d="M29.5472 19.7266C29.7702 19.8604 30.1382 20.0834 30.1382 20.0834C29.9598 19.9161 29.7591 19.7935 29.5472 19.7266Z" fill="#9FC2F6"/>
<path d="M29.5249 19.7158C29.5359 19.7158 29.5359 19.7269 29.5469 19.7269C29.5359 19.7269 29.5249 19.7158 29.5249 19.7158Z" fill="#9FC2F6"/>
<path d="M29.5253 19.716C29.3239 19.5929 29.3575 19.6153 29.5253 19.716V19.716Z" fill="#9FC2F6"/>
<path d="M19.5556 74.5693C19.4437 74.7707 19.4661 74.726 19.5556 74.5693V74.5693Z" fill="#9FC2F6"/>
<path d="M19.5555 74.5689C19.5555 74.5579 19.5665 74.5579 19.5665 74.5469C19.5665 74.5579 19.5555 74.5689 19.5555 74.5689Z" fill="#9FC2F6"/>
<path d="M84.368 29.6963C84.2342 29.9193 84.0112 30.2873 84.0112 30.2873C84.1673 30.1089 84.29 29.9082 84.368 29.6963Z" fill="#9FC2F6"/>
<path d="M84.3789 29.6738C84.3789 29.6849 84.3679 29.6849 84.3679 29.6959C84.3679 29.6849 84.3789 29.6738 84.3789 29.6738Z" fill="#9FC2F6"/>
<path d="M84.379 29.6748C84.4909 29.4734 84.4685 29.5182 84.379 29.6748V29.6748Z" fill="#9FC2F6"/>
<path d="M57.0572 65.147C57.0472 65.147 57.0472 65.137 57.0572 65.147V65.147Z" fill="#F2F1F0"/>
<path d="M57.0471 65.136C56.9802 65.0691 56.8798 64.9688 56.8798 64.9688C56.9244 65.0468 56.9802 65.1026 57.0471 65.136Z" fill="#F2F1F0"/>
<path d="M57.0579 65.1475C57.1128 65.2024 57.1018 65.1914 57.0579 65.1475V65.1475Z" fill="#F2F1F0"/>
<path d="M46.7875 38.8965C46.8544 38.9634 46.9548 39.0638 46.9548 39.0638C46.9213 38.9968 46.8544 38.9299 46.7875 38.8965Z" fill="#F2F1F0"/>
<path d="M46.7869 38.8848C46.7969 38.8848 46.7969 38.8948 46.7869 38.8848V38.8848Z" fill="#F2F1F0"/>
<path d="M46.787 38.8849C46.7321 38.8299 46.7431 38.8409 46.787 38.8849V38.8849Z" fill="#F2F1F0"/>
<path opacity="0.15" d="M70.9062 28.0538L33.3595 27.7452C32.5451 27.7366 31.8851 28.3881 31.8851 29.2025L31.4822 78.2017C31.4736 79.0161 32.1251 79.6762 32.9395 79.6762L70.4861 79.9848C71.3005 79.9933 71.9606 79.3418 71.9606 78.5275L72.3635 29.5282C72.3549 28.7224 71.7034 28.0624 70.9062 28.0538Z" fill="#1F1D20"/>
<path d="M70.9147 26.502L33.3681 26.1934C32.5537 26.1849 31.8936 26.8364 31.8936 27.6507L31.4822 76.6414C31.4736 77.4558 32.1251 78.1158 32.9395 78.1158L70.4861 78.4244C71.3005 78.433 71.9606 77.7815 71.9606 76.9672L72.3635 27.9679C72.3635 27.1707 71.7205 26.5106 70.9147 26.502Z" fill="#F2F2F2"/>
<path opacity="0.15" d="M68.3003 28.1826H35.5456V73.7958H68.3003V28.1826Z" fill="#1F1D20"/>
<path d="M68.3003 27.6592H35.5456V73.2724H68.3003V27.6592Z" fill="white"/>
<path fill-rule="evenodd" clip-rule="evenodd" d="M53.8815 20.81C54.9445 21.3844 55.5617 22.5245 55.5531 23.7246V24.0161C55.5531 24.1275 55.5446 24.2218 55.536 24.3332L57.8419 24.3504C58.5277 24.359 59.1706 24.7019 59.5135 25.3019C60.4736 27.0078 59.2564 28.7394 57.6533 28.7223L46.0122 28.6365C45.3264 28.628 44.6835 28.2851 44.3406 27.685C43.3805 25.9791 44.5977 24.2475 46.2008 24.2647L48.3438 24.2818C48.3353 24.1789 48.3353 24.0761 48.3353 23.9646V23.8703C48.3696 21.2644 51.1384 19.3356 53.8815 20.81Z" fill="#243A5E"/>
<path d="M51.9102 25.585C52.7331 25.5936 53.4017 24.9335 53.4103 24.1106C53.4189 23.2876 52.7588 22.619 51.9359 22.6104C51.1129 22.6019 50.4443 23.2619 50.4357 24.0849C50.4357 24.9078 51.0872 25.5764 51.9102 25.585Z" fill="#F2F2F2"/>
<path d="M64.6657 60.4851C63.959 54.148 58.5231 49.165 51.9458 49.165C45.4227 49.165 40.0412 54.0397 39.2258 60.3226C39.1171 60.7559 39.1171 61.2434 39.1171 61.6767C39.2802 63.464 40.5304 65.1973 42.8679 66.5513C47.8688 69.422 56.0226 69.422 60.9693 66.5513C63.3067 65.1973 64.5026 63.464 64.6657 61.6767C64.7744 61.2975 64.72 60.8642 64.6657 60.4851Z" fill="url(#paint8_radial_166_42559)"/>
<path d="M51.9553 47.8667C56.2095 47.8667 59.6582 44.4372 59.6582 40.2068C59.6582 35.9763 56.2095 32.5469 51.9553 32.5469C47.7011 32.5469 44.2524 35.9763 44.2524 40.2068C44.2524 44.4372 47.7011 47.8667 51.9553 47.8667Z" fill="url(#paint9_radial_166_42559)"/>
<path opacity="0.15" fill-rule="evenodd" clip-rule="evenodd" d="M57.1888 56.3769L57.0653 56.2534C56.4112 55.6004 55.5247 55.2337 54.6005 55.2337C53.6762 55.2337 52.7897 55.6004 52.1356 56.2534L52.0122 56.3769L51.8887 56.2534C51.5646 55.9285 51.1796 55.6708 50.7558 55.4949C50.3319 55.3191 49.8776 55.2285 49.4187 55.2285C48.9598 55.2285 48.5055 55.3191 48.0817 55.4949C47.6578 55.6708 47.2728 55.9285 46.9488 56.2534L46.8355 56.3666C46.1826 57.0207 45.8159 57.9071 45.8159 58.8313C45.8159 59.7556 46.1826 60.6421 46.8355 61.2962L46.959 61.4197L51.8475 66.3081C51.8687 66.3305 51.8942 66.3484 51.9225 66.3606C51.9508 66.3728 51.9813 66.3792 52.0122 66.3792C52.043 66.3792 52.0735 66.3728 52.1018 66.3606C52.1301 66.3484 52.1557 66.3305 52.1768 66.3081L57.1888 61.2962C57.8411 60.6438 58.2076 59.759 58.2076 58.8365C58.2076 57.9139 57.8411 57.0292 57.1888 56.3769V56.3769Z" fill="#1F1D20"/>
<path d="M49.8732 54.817C50.797 54.8209 51.0295 54.8186 51.6808 55.4738L51.8783 55.5988L52.1242 55.5181C52.7787 54.8614 52.9684 55.1145 53.8955 55.1122C54.3532 55.1124 54.3958 54.3267 54.8181 54.5033C55.2403 54.68 54.515 55.0263 54.8365 55.3521L55.6299 55.6288C56.2829 56.2829 55.6299 55.5534 55.6299 56.4776C55.6299 57.4018 56.6334 56.7276 55.9805 57.3817L52.5486 61.9206L52.3839 62.0852L52.2193 61.9206L48.4525 58.7655L48.3187 58.6317C47.9929 58.3092 47.7802 58.8934 47.6037 58.4703C47.4272 58.0472 47.3085 57.6925 47.3085 57.2341C47.3085 56.7757 47.4263 56.6131 47.6028 56.19C47.7793 55.767 48.016 56.1728 48.3418 55.8503L48.5263 55.4443C48.85 55.1187 48.0286 54.6615 48.4525 54.4849C48.8763 54.3083 49.0714 54.7974 49.5306 54.7968L49.8732 54.817ZM49.4582 52.6807C48.9228 52.679 48.3923 52.7837 47.8977 52.9886C47.403 53.1935 46.8645 53.4935 46.4871 53.8733L46.3739 53.9968C45.9943 54.37 45.7533 54.7968 45.5483 55.2881C45.3433 55.7794 45.2386 56.3068 45.2404 56.8392C45.2387 57.3747 45.3434 57.9051 45.5483 58.3998C45.7533 58.8944 46.0628 59.2959 46.4426 59.6733L46.5249 59.7556L46.568 59.8032L51.4976 64.6813L51.6108 64.8048C51.7218 64.9105 51.8692 64.9695 52.0224 64.9695C52.0969 64.9698 52.1707 64.9554 52.2395 64.9272C52.3084 64.8989 52.371 64.8573 52.4238 64.8048L52.5576 64.6813L52.6193 64.6093L57.6004 59.6282C57.9801 59.255 58.2813 58.8096 58.4863 58.3183C58.6913 57.8269 58.796 57.2996 58.7942 56.7672C58.7959 56.2318 58.6912 55.7014 58.4863 55.2067C58.2813 54.712 58.0329 54.3441 57.653 53.9667L57.5398 53.8535C56.8255 53.1362 55.816 52.7681 54.8048 52.7205C53.7935 52.6729 52.801 53.0098 52.0224 53.6568C51.2958 53.0468 50.407 52.6823 49.4582 52.6807Z" fill="white"/>
<path fill-rule="evenodd" clip-rule="evenodd" d="M56.6348 59.4071L52.0118 64.03L47.2945 59.3127C46.9959 59.017 46.7588 58.6651 46.597 58.2773C46.4352 57.8895 46.3519 57.4734 46.3519 57.0531C46.3519 56.6329 46.4352 56.2168 46.597 55.8289C46.7588 55.4411 46.9959 55.0891 47.2945 54.7935L47.3983 54.6897C47.694 54.3911 48.0459 54.154 48.4337 53.9922C48.8216 53.8304 49.2377 53.7471 49.6579 53.7471C50.0782 53.7471 50.4942 53.8304 50.8821 53.9922C51.2699 54.154 51.6219 54.3911 51.9175 54.6897L56.6348 59.4071Z" fill="url(#paint10_linear_166_42559)"/>
<path fill-rule="evenodd" clip-rule="evenodd" d="M51.8514 63.879L47.3794 59.407L52.0967 54.6897C52.6964 54.0911 53.509 53.7549 54.3563 53.7549C55.2036 53.7549 56.0163 54.0911 56.6159 54.6897L56.7291 54.8029C57.3277 55.4025 57.6639 56.2152 57.6639 57.0625C57.6639 57.9098 57.3277 58.7224 56.7291 59.322L52.1439 63.8979C52.1008 63.93 52.0478 63.9456 51.9942 63.9422C51.9406 63.9387 51.89 63.9163 51.8514 63.879V63.879Z" fill="url(#paint11_linear_166_42559)"/>
<path opacity="0.15" d="M70.6318 81.1267C74.1979 81.1267 77.0868 78.2378 77.0868 74.6717C77.0868 71.1057 74.1979 68.2168 70.6318 68.2168C67.0657 68.2168 64.1769 71.1057 64.1769 74.6717C64.1855 78.2378 67.0743 81.1267 70.6318 81.1267Z" fill="#1F1D20"/>
<path d="M70.6318 80.3982C74.1979 80.3982 77.0868 77.5093 77.0868 73.9432C77.0868 70.3771 74.1979 67.4883 70.6318 67.4883C67.0657 67.4883 64.1769 70.3771 64.1769 73.9432C64.1855 77.5093 67.0743 80.3982 70.6318 80.3982Z" fill="#002D4C"/>
<path opacity="0.3" d="M74.1465 71.123L68.8316 76.4636L67.2372 74.8606L66.1742 75.9321L68.8316 78.5981L75.218 72.1946L74.1465 71.123Z" fill="#1F1D20"/>
<path d="M74.1465 70.6689L68.8316 76.0095L67.2372 74.4065L66.1742 75.478L68.8316 78.144L75.218 71.7405L74.1465 70.6689Z" fill="#FAF9F8"/>
<path d="M42.4113 33.125H35.3888C35.0807 33.125 34.8374 33.3845 34.8374 33.6764C34.8374 33.9846 35.0969 34.2278 35.3888 34.2278H42.4113C42.7195 34.2278 42.9627 33.9683 42.9627 33.6764C42.9627 33.3683 42.7195 33.125 42.4113 33.125Z" fill="#45CAF2"/>
<path d="M42.4113 35.5254H35.3888C35.0807 35.5254 34.8374 35.7849 34.8374 36.0768C34.8374 36.385 35.0969 36.6282 35.3888 36.6282H42.4113C42.7195 36.6282 42.9627 36.3687 42.9627 36.0768C42.9627 35.7849 42.7195 35.5254 42.4113 35.5254Z" fill="#0078D4"/>
<path fill-rule="evenodd" clip-rule="evenodd" d="M35.3888 38.1201H38.892C39.2001 38.1201 39.4434 38.3796 39.4434 38.6715C39.4434 38.9797 39.1839 39.223 38.892 39.223H35.3888C35.0807 39.223 34.8374 38.9635 34.8374 38.6715C34.8374 38.3634 35.0807 38.1201 35.3888 38.1201Z" fill="#185A97"/>
<path fill-rule="evenodd" clip-rule="evenodd" d="M70.3757 55.6084H76.9493V56.4084H70.3757V55.6084Z" fill="white"/>
<path fill-rule="evenodd" clip-rule="evenodd" d="M70.3757 50.835H76.9493V51.635H70.3757V50.835Z" fill="white"/>
<path fill-rule="evenodd" clip-rule="evenodd" d="M70.3757 46.0576H76.9493V46.8576H70.3757V46.0576Z" fill="white"/>
<path fill-rule="evenodd" clip-rule="evenodd" d="M70.3757 41.2803H76.9493V42.0803H70.3757V41.2803Z" fill="white"/>
<path d="M79.5482 39.5762H74.7995C74.5086 39.5762 74.2741 39.8106 74.2741 40.1016V43.0084C74.2741 43.2994 74.5086 43.5339 74.7995 43.5339H79.551C79.842 43.5367 80.0765 43.3022 80.0765 43.0113V40.1044C80.0737 39.8106 79.8392 39.5762 79.5482 39.5762Z" fill="#50E6FF"/>
<path d="M79.5482 49.2539H74.7995C74.5086 49.2539 74.2741 49.4884 74.2741 49.7793V52.689C74.2741 52.98 74.5086 53.2144 74.7995 53.2144H79.551C79.842 53.2144 80.0765 52.98 80.0765 52.689V49.7822C80.0737 49.4884 79.8392 49.2539 79.5482 49.2539Z" fill="#3BCAF4"/>
<path d="M79.5482 44.4072H74.7995C74.5086 44.4072 74.2741 44.6417 74.2741 44.9327V47.8395C74.2741 48.1305 74.5086 48.3649 74.7995 48.3649H79.551C79.842 48.3678 80.0765 48.1333 80.0765 47.8395V44.9327C80.0737 44.6417 79.8392 44.4072 79.5482 44.4072Z" fill="#50E6FF"/>
<path d="M79.5482 54.085H74.7995C74.5086 54.085 74.2741 54.3194 74.2741 54.6104V57.5201C74.2741 57.811 74.5086 58.0455 74.7995 58.0455H79.551C79.842 58.0455 80.0765 57.811 80.0765 57.5201V54.6132C80.0737 54.3223 79.8392 54.085 79.5482 54.085Z" fill="#0078D4"/>
<defs>
<linearGradient id="paint0_linear_166_42559" x1="50.1489" y1="-12.9551" x2="54.1309" y2="132.815" gradientUnits="userSpaceOnUse">
<stop stop-color="#00ABDE"/>
<stop offset="1" stop-color="#007ED8"/>
</linearGradient>
<linearGradient id="paint1_linear_166_42559" x1="3.3532" y1="-19.7887" x2="98.8807" y2="121.093" gradientUnits="userSpaceOnUse">
<stop stop-color="#007ED8"/>
<stop offset="0.7065" stop-color="#002D4C"/>
</linearGradient>
<linearGradient id="paint2_linear_166_42559" x1="55.0375" y1="-85.2477" x2="49.3476" y2="168.901" gradientUnits="userSpaceOnUse">
<stop stop-color="#007ED8"/>
<stop offset="0.7065" stop-color="#002D4C"/>
</linearGradient>
<radialGradient id="paint3_radial_166_42559" cx="0" cy="0" r="1" gradientUnits="userSpaceOnUse" gradientTransform="translate(47.2416 41.9529) scale(36.3858 36.2549)">
<stop stop-color="#4DC2EB"/>
<stop offset="0.585" stop-color="#0078D4"/>
</radialGradient>
<radialGradient id="paint4_radial_166_42559" cx="0" cy="0" r="1" gradientUnits="userSpaceOnUse" gradientTransform="translate(48.1473 36.3211) scale(17.0656 16.9704)">
<stop stop-color="#4DC2EB"/>
<stop offset="0.585" stop-color="#0078D4"/>
</radialGradient>
<linearGradient id="paint5_linear_166_42559" x1="43.9833" y1="53.263" x2="71.2586" y2="77.5276" gradientUnits="userSpaceOnUse">
<stop stop-color="#FFB900"/>
<stop offset="0.17" stop-color="#EF8400"/>
<stop offset="0.31" stop-color="#E25C01"/>
<stop offset="0.43" stop-color="#DB4401"/>
<stop offset="0.5" stop-color="#D83B01"/>
</linearGradient>
<linearGradient id="paint6_linear_166_42559" x1="46.1045" y1="55.8766" x2="65.9108" y2="63.8842" gradientUnits="userSpaceOnUse">
<stop stop-color="#FFB900"/>
<stop offset="0.17" stop-color="#EF8400"/>
<stop offset="0.31" stop-color="#E25C01"/>
<stop offset="0.43" stop-color="#DB4401"/>
<stop offset="0.5" stop-color="#D83B01"/>
</linearGradient>
<linearGradient id="paint7_linear_166_42559" x1="55.0375" y1="-85.2477" x2="49.3476" y2="168.901" gradientUnits="userSpaceOnUse">
<stop stop-color="#007ED8"/>
<stop offset="0.7065" stop-color="#002D4C"/>
</linearGradient>
<radialGradient id="paint8_radial_166_42559" cx="0" cy="0" r="1" gradientUnits="userSpaceOnUse" gradientTransform="translate(47.2416 41.9529) scale(36.3858 36.2549)">
<stop stop-color="#4DC2EB"/>
<stop offset="0.585" stop-color="#0078D4"/>
</radialGradient>
<radialGradient id="paint9_radial_166_42559" cx="0" cy="0" r="1" gradientUnits="userSpaceOnUse" gradientTransform="translate(48.1473 36.3211) scale(17.0656 16.9704)">
<stop stop-color="#4DC2EB"/>
<stop offset="0.585" stop-color="#0078D4"/>
</radialGradient>
<linearGradient id="paint10_linear_166_42559" x1="43.9833" y1="53.263" x2="71.2586" y2="77.5276" gradientUnits="userSpaceOnUse">
<stop stop-color="#FFB900"/>
<stop offset="0.17" stop-color="#EF8400"/>
<stop offset="0.31" stop-color="#E25C01"/>
<stop offset="0.43" stop-color="#DB4401"/>
<stop offset="0.5" stop-color="#D83B01"/>
</linearGradient>
<linearGradient id="paint11_linear_166_42559" x1="46.1045" y1="55.8766" x2="65.9108" y2="63.8842" gradientUnits="userSpaceOnUse">
<stop stop-color="#FFB900"/>
<stop offset="0.17" stop-color="#EF8400"/>
<stop offset="0.31" stop-color="#E25C01"/>
<stop offset="0.43" stop-color="#DB4401"/>
<stop offset="0.5" stop-color="#D83B01"/>
</linearGradient>
</defs>
</svg>
