<svg width="103" height="103" viewBox="0 0 103 103" fill="none" xmlns="http://www.w3.org/2000/svg">
<path d="M51.9228 98.0399C26.0728 98.0399 5.11279 77.0899 5.11279 51.2299C5.11279 25.3699 26.0728 4.41992 51.9228 4.41992C77.7728 4.41992 98.7328 25.3799 98.7328 51.2299C98.7328 77.0799 77.7728 98.0399 51.9228 98.0399Z" fill="url(#paint0_linear_166_42565)"/>
<path fill-rule="evenodd" clip-rule="evenodd" d="M97.8228 51.2298C97.8228 76.5798 77.2728 97.1298 51.9228 97.1298C26.5728 97.1298 6.02278 76.5798 6.02278 51.2298C6.02278 25.8798 26.5728 5.32985 51.9228 5.32985C77.2728 5.32985 97.8228 25.8798 97.8228 51.2298ZM51.9228 1.58984C79.3428 1.58984 101.563 23.8098 101.563 51.2298C101.563 78.6498 79.3328 100.87 51.9228 100.87C24.5028 100.87 2.28278 78.6398 2.28278 51.2298C2.28278 23.8098 24.5028 1.58984 51.9228 1.58984Z" fill="#F2F1F0"/>
<path fill-rule="evenodd" clip-rule="evenodd" d="M95.0128 51.2304C95.0128 75.0304 75.7228 94.3204 51.9228 94.3204C28.1228 94.3204 8.8328 75.0304 8.8328 51.2304C8.8328 27.4304 28.1228 8.1404 51.9228 8.1404C75.7228 8.1404 95.0128 27.4304 95.0128 51.2304ZM51.9228 4.40039C77.7828 4.40039 98.7528 25.3704 98.7528 51.2304C98.7528 77.0904 77.7828 98.0604 51.9228 98.0604C26.0628 98.0604 5.0928 77.0904 5.0928 51.2304C5.0928 25.3704 26.0528 4.40039 51.9228 4.40039Z" fill="url(#paint1_linear_166_42565)"/>
<path opacity="0.15" d="M33.3801 74.2728H80.6247C81.0019 74.2728 81.3006 73.9742 81.3006 73.597V30.2344H32.7043V73.597C32.7043 73.9742 33.0029 74.2728 33.3801 74.2728Z" fill="#1F1D20"/>
<path d="M33.3015 24.0566H80.6876C81.0177 24.0566 81.2849 24.3238 81.2849 24.6539V71.9771C81.2849 72.3386 80.9863 72.653 80.6091 72.653H33.3801C33.0029 72.6372 32.7043 72.3386 32.7043 71.9771V24.6539C32.7043 24.3238 32.9715 24.0566 33.3015 24.0566Z" fill="white"/>
<path d="M33.3801 72.638H80.6247C80.9862 72.638 81.3006 72.3393 81.3006 71.9621V28.6152H32.7043V71.9779C32.7043 72.3393 33.0029 72.638 33.3801 72.638Z" fill="#F2F1F0"/>
<path d="M32.7043 29.2117H81.2849V24.6539C81.2849 24.3238 81.0177 24.0566 80.6876 24.0566H33.3015C32.9715 24.0566 32.7043 24.3238 32.7043 24.6539V29.2117Z" fill="url(#paint2_linear_166_42565)"/>
<path d="M44.0986 59.7344H39.0063V64.8266H44.0986V59.7344Z" fill="url(#paint3_linear_166_42565)"/>
<path d="M51.8004 59.7344H46.7082V64.8266H51.8004V59.7344Z" fill="url(#paint4_linear_166_42565)"/>
<path d="M59.4547 59.7344H54.3624V64.8266H59.4547V59.7344Z" fill="url(#paint5_linear_166_42565)"/>
<path d="M67.1243 59.7344H62.032V64.8266H67.1243V59.7344Z" fill="#0078D4"/>
<path d="M74.8092 59.7344H69.717V64.8266H74.8092V59.7344Z" fill="url(#paint6_linear_166_42565)"/>
<path d="M44.0986 52.0801H39.0063V57.1723H44.0986V52.0801Z" fill="url(#paint7_linear_166_42565)"/>
<path d="M51.8004 52.0801H46.7082V57.1723H51.8004V52.0801Z" fill="#2195DC"/>
<path d="M59.4547 52.0801H54.3624V57.1723H59.4547V52.0801Z" fill="url(#paint8_linear_166_42565)"/>
<path d="M67.1243 52.0801H62.032V57.1723H67.1243V52.0801Z" fill="url(#paint9_linear_166_42565)"/>
<path d="M74.8092 52.0801H69.717V57.1723H74.8092V52.0801Z" fill="url(#paint10_linear_166_42565)"/>
<path d="M44.0986 44.4258H39.0063V49.518H44.0986V44.4258Z" fill="url(#paint11_linear_166_42565)"/>
<path d="M51.8004 44.4258H46.7082V49.518H51.8004V44.4258Z" fill="url(#paint12_linear_166_42565)"/>
<path d="M59.4547 44.4258H54.3624V49.518H59.4547V44.4258Z" fill="#32B0E7"/>
<path d="M67.1243 44.4258H62.032V49.518H67.1243V44.4258Z" fill="url(#paint13_linear_166_42565)"/>
<path d="M74.8092 44.4258H69.717V49.518H74.8092V44.4258Z" fill="url(#paint14_linear_166_42565)"/>
<path d="M44.0986 36.8184H39.0063V41.9106H44.0986V36.8184Z" fill="#50E6FF"/>
<path d="M51.8004 36.8184H46.7082V41.9106H51.8004V36.8184Z" fill="url(#paint15_linear_166_42565)"/>
<path d="M59.4547 36.8184H54.3624V41.9106H59.4547V36.8184Z" fill="url(#paint16_linear_166_42565)"/>
<path d="M67.1243 36.8184H62.032V41.9106H67.1243V36.8184Z" fill="url(#paint17_linear_166_42565)"/>
<path d="M74.8092 36.8184H69.717V41.9106H74.8092V36.8184Z" fill="url(#paint18_linear_166_42565)"/>
<path d="M35.7078 28.0573C36.4844 28.0573 37.1198 27.4307 37.1198 26.6453C37.1198 25.8599 36.4756 25.2422 35.7078 25.2422C34.9313 25.2422 34.2959 25.8687 34.2959 26.6541C34.2959 27.4395 34.9136 28.0573 35.7078 28.0573Z" fill="#32B0E7"/>
<path opacity="0.2" d="M51.708 82.1651C52.5495 82.1651 53.2351 81.4794 53.2351 80.6379V52.8574H23.2003V80.6275C23.2003 81.469 23.8859 82.1547 24.7275 82.1547L51.708 82.1651Z" fill="#1F1D21"/>
<path d="M53.2351 52.3795V51.912C53.2351 51.3302 52.7676 50.873 52.1962 50.873H24.2392C23.6678 50.873 23.2003 51.3406 23.2003 51.912V52.4314V52.8989V79.6509C23.2003 80.2326 23.6678 80.6898 24.2392 80.6898H52.1858C52.7676 80.6898 53.2248 80.2223 53.2248 79.6509V52.4314C53.2455 52.4106 53.2351 52.4002 53.2351 52.3795Z" fill="white"/>
<path fill-rule="evenodd" clip-rule="evenodd" d="M46.0897 66.6009L37.764 74.9267L29.2292 66.3919C26.9873 64.1501 26.9873 60.5098 29.2292 58.2608L29.4238 58.0661C31.6656 55.8243 35.3059 55.8243 37.5549 58.0661L46.0897 66.6009Z" fill="url(#paint19_linear_166_42565)"/>
<path fill-rule="evenodd" clip-rule="evenodd" d="M37.7286 74.8831L29.6984 66.8529L38.2332 58.3181C40.475 56.0763 44.1153 56.0763 46.3643 58.3181L46.5589 58.5127C48.8007 60.7545 48.8007 64.3948 46.5589 66.6438L38.3125 74.8831C38.1539 75.0489 37.8944 75.0489 37.7286 74.8831Z" fill="url(#paint20_linear_166_42565)"/>
<path d="M44.4968 75.2347C47.3802 75.2347 49.723 72.8992 49.723 70.0086C49.7158 67.1252 47.373 64.7969 44.4968 64.7969C41.6207 64.7969 39.2707 67.1324 39.2707 70.023C39.2707 72.9064 41.6063 75.2347 44.4968 75.2347Z" fill="#002D4C"/>
<path d="M44.9077 66.9531H44.0499V73.0659H44.9077V66.9531Z" fill="#F2F2F2"/>
<path d="M47.5316 69.627H41.4261V70.4848H47.5388L47.5316 69.627Z" fill="#F2F2F2"/>
<path opacity="0.15" d="M33.3801 74.2728H80.6247C81.0019 74.2728 81.3006 73.9742 81.3006 73.597V30.2344H32.7043V73.597C32.7043 73.9742 33.0029 74.2728 33.3801 74.2728Z" fill="#1F1D20"/>
<path d="M33.3015 24.0566H80.6876C81.0177 24.0566 81.2849 24.3238 81.2849 24.6539V71.9771C81.2849 72.3386 80.9863 72.653 80.6091 72.653H33.3801C33.0029 72.6372 32.7043 72.3386 32.7043 71.9771V24.6539C32.7043 24.3238 32.9715 24.0566 33.3015 24.0566Z" fill="white"/>
<path d="M33.3801 72.638H80.6247C80.9862 72.638 81.3006 72.3393 81.3006 71.9621V28.6152H32.7043V71.9779C32.7043 72.3393 33.0029 72.638 33.3801 72.638Z" fill="#F2F1F0"/>
<path d="M32.7043 29.2117H81.2849V24.6539C81.2849 24.3238 81.0177 24.0566 80.6876 24.0566H33.3015C32.9715 24.0566 32.7043 24.3238 32.7043 24.6539V29.2117Z" fill="url(#paint21_linear_166_42565)"/>
<path d="M44.0986 59.7344H39.0063V64.8266H44.0986V59.7344Z" fill="url(#paint22_linear_166_42565)"/>
<path d="M51.8004 59.7344H46.7082V64.8266H51.8004V59.7344Z" fill="url(#paint23_linear_166_42565)"/>
<path d="M59.4547 59.7344H54.3624V64.8266H59.4547V59.7344Z" fill="url(#paint24_linear_166_42565)"/>
<path d="M67.1243 59.7344H62.032V64.8266H67.1243V59.7344Z" fill="#0078D4"/>
<path d="M74.8092 59.7344H69.717V64.8266H74.8092V59.7344Z" fill="url(#paint25_linear_166_42565)"/>
<path d="M44.0986 52.0801H39.0063V57.1723H44.0986V52.0801Z" fill="url(#paint26_linear_166_42565)"/>
<path d="M51.8004 52.0801H46.7082V57.1723H51.8004V52.0801Z" fill="#2195DC"/>
<path d="M59.4547 52.0801H54.3624V57.1723H59.4547V52.0801Z" fill="url(#paint27_linear_166_42565)"/>
<path d="M67.1243 52.0801H62.032V57.1723H67.1243V52.0801Z" fill="url(#paint28_linear_166_42565)"/>
<path d="M74.8092 52.0801H69.717V57.1723H74.8092V52.0801Z" fill="url(#paint29_linear_166_42565)"/>
<path d="M44.0986 44.4258H39.0063V49.518H44.0986V44.4258Z" fill="url(#paint30_linear_166_42565)"/>
<path d="M51.8004 44.4258H46.7082V49.518H51.8004V44.4258Z" fill="url(#paint31_linear_166_42565)"/>
<path d="M59.4547 44.4258H54.3624V49.518H59.4547V44.4258Z" fill="#32B0E7"/>
<path d="M67.1243 44.4258H62.032V49.518H67.1243V44.4258Z" fill="url(#paint32_linear_166_42565)"/>
<path d="M74.8092 44.4258H69.717V49.518H74.8092V44.4258Z" fill="url(#paint33_linear_166_42565)"/>
<path d="M44.0986 36.8184H39.0063V41.9106H44.0986V36.8184Z" fill="#50E6FF"/>
<path d="M51.8004 36.8184H46.7082V41.9106H51.8004V36.8184Z" fill="url(#paint34_linear_166_42565)"/>
<path d="M59.4547 36.8184H54.3624V41.9106H59.4547V36.8184Z" fill="url(#paint35_linear_166_42565)"/>
<path d="M67.1243 36.8184H62.032V41.9106H67.1243V36.8184Z" fill="url(#paint36_linear_166_42565)"/>
<path d="M74.8092 36.8184H69.717V41.9106H74.8092V36.8184Z" fill="url(#paint37_linear_166_42565)"/>
<path d="M35.7078 28.0573C36.4844 28.0573 37.1198 27.4307 37.1198 26.6453C37.1198 25.8599 36.4756 25.2422 35.7078 25.2422C34.9313 25.2422 34.2959 25.8687 34.2959 26.6541C34.2959 27.4395 34.9136 28.0573 35.7078 28.0573Z" fill="#32B0E7"/>
<path opacity="0.2" d="M51.708 82.1651C52.5495 82.1651 53.2351 81.4794 53.2351 80.6379V52.8574H23.2003V80.6275C23.2003 81.469 23.8859 82.1547 24.7275 82.1547L51.708 82.1651Z" fill="#1F1D21"/>
<path d="M53.2351 52.3795V51.912C53.2351 51.3302 52.7676 50.873 52.1962 50.873H24.2392C23.6678 50.873 23.2003 51.3406 23.2003 51.912V52.4314V52.8989V79.6509C23.2003 80.2326 23.6678 80.6898 24.2392 80.6898H52.1858C52.7676 80.6898 53.2248 80.2223 53.2248 79.6509V52.4314C53.2455 52.4106 53.2351 52.4002 53.2351 52.3795Z" fill="white"/>
<path fill-rule="evenodd" clip-rule="evenodd" d="M46.0897 66.6009L37.764 74.9267L29.2292 66.3919C26.9873 64.1501 26.9873 60.5098 29.2292 58.2608L29.4238 58.0661C31.6656 55.8243 35.3059 55.8243 37.5549 58.0661L46.0897 66.6009Z" fill="url(#paint38_linear_166_42565)"/>
<path fill-rule="evenodd" clip-rule="evenodd" d="M37.7286 74.8831L29.6984 66.8529L38.2332 58.3181C40.475 56.0763 44.1153 56.0763 46.3643 58.3181L46.5589 58.5127C48.8007 60.7545 48.8007 64.3948 46.5589 66.6438L38.3125 74.8831C38.1539 75.0489 37.8944 75.0489 37.7286 74.8831Z" fill="url(#paint39_linear_166_42565)"/>
<path d="M44.4968 75.2347C47.3802 75.2347 49.723 72.8992 49.723 70.0086C49.7158 67.1252 47.373 64.7969 44.4968 64.7969C41.6207 64.7969 39.2707 67.1324 39.2707 70.023C39.2707 72.9064 41.6063 75.2347 44.4968 75.2347Z" fill="#002D4C"/>
<path d="M44.9077 66.9531H44.0499V73.0659H44.9077V66.9531Z" fill="#F2F2F2"/>
<path d="M47.5316 69.627H41.4261V70.4848H47.5388L47.5316 69.627Z" fill="#F2F2F2"/>
<defs>
<linearGradient id="paint0_linear_166_42565" x1="50.1489" y1="-13.5596" x2="54.1309" y2="132.211" gradientUnits="userSpaceOnUse">
<stop stop-color="#00ABDE"/>
<stop offset="1" stop-color="#007ED8"/>
</linearGradient>
<linearGradient id="paint1_linear_166_42565" x1="3.3532" y1="-20.3922" x2="98.8807" y2="120.489" gradientUnits="userSpaceOnUse">
<stop stop-color="#007ED8"/>
<stop offset="0.7065" stop-color="#002D4C"/>
</linearGradient>
<linearGradient id="paint2_linear_166_42565" x1="23.8867" y1="-7.24142" x2="79.21" y2="47.5759" gradientUnits="userSpaceOnUse">
<stop stop-color="#007ED8"/>
<stop offset="0.7065" stop-color="#002D4C"/>
</linearGradient>
<linearGradient id="paint3_linear_166_42565" x1="4.38993" y1="26.4314" x2="96.1661" y2="114.941" gradientUnits="userSpaceOnUse">
<stop stop-color="#007ED8"/>
<stop offset="0.7065" stop-color="#002D4C"/>
</linearGradient>
<linearGradient id="paint4_linear_166_42565" x1="8.09751" y1="22.5876" x2="99.8737" y2="111.097" gradientUnits="userSpaceOnUse">
<stop stop-color="#007ED8"/>
<stop offset="0.7065" stop-color="#002D4C"/>
</linearGradient>
<linearGradient id="paint5_linear_166_42565" x1="11.7905" y1="18.7587" x2="103.567" y2="107.268" gradientUnits="userSpaceOnUse">
<stop stop-color="#007ED8"/>
<stop offset="0.7065" stop-color="#002D4C"/>
</linearGradient>
<linearGradient id="paint6_linear_166_42565" x1="19.1894" y1="11.0859" x2="110.966" y2="99.5949" gradientUnits="userSpaceOnUse">
<stop stop-color="#007ED8"/>
<stop offset="0.7065" stop-color="#002D4C"/>
</linearGradient>
<linearGradient id="paint7_linear_166_42565" x1="8.21383" y1="22.4663" x2="99.99" y2="110.975" gradientUnits="userSpaceOnUse">
<stop stop-color="#007ED8"/>
<stop offset="0.7065" stop-color="#002D4C"/>
</linearGradient>
<linearGradient id="paint8_linear_166_42565" x1="15.6142" y1="14.7936" x2="107.39" y2="103.303" gradientUnits="userSpaceOnUse">
<stop stop-color="#007ED8"/>
<stop offset="0.7065" stop-color="#002D4C"/>
</linearGradient>
<linearGradient id="paint9_linear_166_42565" x1="19.3062" y1="10.965" x2="111.082" y2="99.4741" gradientUnits="userSpaceOnUse">
<stop stop-color="#007ED8"/>
<stop offset="0.7065" stop-color="#002D4C"/>
</linearGradient>
<linearGradient id="paint10_linear_166_42565" x1="23.0131" y1="7.12063" x2="114.789" y2="95.6298" gradientUnits="userSpaceOnUse">
<stop stop-color="#007ED8"/>
<stop offset="0.7065" stop-color="#002D4C"/>
</linearGradient>
<linearGradient id="paint11_linear_166_42565" x1="12.0376" y1="18.5011" x2="103.814" y2="107.01" gradientUnits="userSpaceOnUse">
<stop stop-color="#007ED8"/>
<stop offset="0.7065" stop-color="#002D4C"/>
</linearGradient>
<linearGradient id="paint12_linear_166_42565" x1="15.7451" y1="14.6572" x2="107.521" y2="103.166" gradientUnits="userSpaceOnUse">
<stop stop-color="#007ED8"/>
<stop offset="0.7065" stop-color="#002D4C"/>
</linearGradient>
<linearGradient id="paint13_linear_166_42565" x1="23.1301" y1="6.99985" x2="114.906" y2="95.5088" gradientUnits="userSpaceOnUse">
<stop stop-color="#007ED8"/>
<stop offset="0.7065" stop-color="#002D4C"/>
</linearGradient>
<linearGradient id="paint14_linear_166_42565" x1="26.837" y1="3.15553" x2="118.613" y2="91.6645" gradientUnits="userSpaceOnUse">
<stop stop-color="#007ED8"/>
<stop offset="0.7065" stop-color="#002D4C"/>
</linearGradient>
<linearGradient id="paint15_linear_166_42565" x1="19.5488" y1="10.7128" x2="111.325" y2="99.2219" gradientUnits="userSpaceOnUse">
<stop stop-color="#007ED8"/>
<stop offset="0.7065" stop-color="#002D4C"/>
</linearGradient>
<linearGradient id="paint16_linear_166_42565" x1="23.2416" y1="6.88385" x2="115.018" y2="95.393" gradientUnits="userSpaceOnUse">
<stop stop-color="#007ED8"/>
<stop offset="0.7065" stop-color="#002D4C"/>
</linearGradient>
<linearGradient id="paint17_linear_166_42565" x1="26.9336" y1="3.0554" x2="118.71" y2="91.5643" gradientUnits="userSpaceOnUse">
<stop stop-color="#007ED8"/>
<stop offset="0.7065" stop-color="#002D4C"/>
</linearGradient>
<linearGradient id="paint18_linear_166_42565" x1="30.6405" y1="-0.788933" x2="122.417" y2="87.7201" gradientUnits="userSpaceOnUse">
<stop stop-color="#007ED8"/>
<stop offset="0.7065" stop-color="#002D4C"/>
</linearGradient>
<linearGradient id="paint19_linear_166_42565" x1="23.27" y1="55.5063" x2="70.972" y2="91.8332" gradientUnits="userSpaceOnUse">
<stop stop-color="#FFB900"/>
<stop offset="0.17" stop-color="#EF8400"/>
<stop offset="0.31" stop-color="#E25C01"/>
<stop offset="0.43" stop-color="#DB4401"/>
<stop offset="0.5" stop-color="#D83B01"/>
</linearGradient>
<linearGradient id="paint20_linear_166_42565" x1="27.3991" y1="60.4553" x2="63.1145" y2="74.8882" gradientUnits="userSpaceOnUse">
<stop stop-color="#FFB900"/>
<stop offset="0.17" stop-color="#EF8400"/>
<stop offset="0.31" stop-color="#E25C01"/>
<stop offset="0.43" stop-color="#DB4401"/>
<stop offset="0.5" stop-color="#D83B01"/>
</linearGradient>
<linearGradient id="paint21_linear_166_42565" x1="23.8867" y1="-7.24142" x2="79.21" y2="47.5759" gradientUnits="userSpaceOnUse">
<stop stop-color="#007ED8"/>
<stop offset="0.7065" stop-color="#002D4C"/>
</linearGradient>
<linearGradient id="paint22_linear_166_42565" x1="4.38993" y1="26.4314" x2="96.1661" y2="114.941" gradientUnits="userSpaceOnUse">
<stop stop-color="#007ED8"/>
<stop offset="0.7065" stop-color="#002D4C"/>
</linearGradient>
<linearGradient id="paint23_linear_166_42565" x1="8.09751" y1="22.5876" x2="99.8737" y2="111.097" gradientUnits="userSpaceOnUse">
<stop stop-color="#007ED8"/>
<stop offset="0.7065" stop-color="#002D4C"/>
</linearGradient>
<linearGradient id="paint24_linear_166_42565" x1="11.7905" y1="18.7587" x2="103.567" y2="107.268" gradientUnits="userSpaceOnUse">
<stop stop-color="#007ED8"/>
<stop offset="0.7065" stop-color="#002D4C"/>
</linearGradient>
<linearGradient id="paint25_linear_166_42565" x1="19.1894" y1="11.0859" x2="110.966" y2="99.5949" gradientUnits="userSpaceOnUse">
<stop stop-color="#007ED8"/>
<stop offset="0.7065" stop-color="#002D4C"/>
</linearGradient>
<linearGradient id="paint26_linear_166_42565" x1="8.21383" y1="22.4663" x2="99.99" y2="110.975" gradientUnits="userSpaceOnUse">
<stop stop-color="#007ED8"/>
<stop offset="0.7065" stop-color="#002D4C"/>
</linearGradient>
<linearGradient id="paint27_linear_166_42565" x1="15.6142" y1="14.7936" x2="107.39" y2="103.303" gradientUnits="userSpaceOnUse">
<stop stop-color="#007ED8"/>
<stop offset="0.7065" stop-color="#002D4C"/>
</linearGradient>
<linearGradient id="paint28_linear_166_42565" x1="19.3062" y1="10.965" x2="111.082" y2="99.4741" gradientUnits="userSpaceOnUse">
<stop stop-color="#007ED8"/>
<stop offset="0.7065" stop-color="#002D4C"/>
</linearGradient>
<linearGradient id="paint29_linear_166_42565" x1="23.0131" y1="7.12063" x2="114.789" y2="95.6298" gradientUnits="userSpaceOnUse">
<stop stop-color="#007ED8"/>
<stop offset="0.7065" stop-color="#002D4C"/>
</linearGradient>
<linearGradient id="paint30_linear_166_42565" x1="12.0376" y1="18.5011" x2="103.814" y2="107.01" gradientUnits="userSpaceOnUse">
<stop stop-color="#007ED8"/>
<stop offset="0.7065" stop-color="#002D4C"/>
</linearGradient>
<linearGradient id="paint31_linear_166_42565" x1="15.7451" y1="14.6572" x2="107.521" y2="103.166" gradientUnits="userSpaceOnUse">
<stop stop-color="#007ED8"/>
<stop offset="0.7065" stop-color="#002D4C"/>
</linearGradient>
<linearGradient id="paint32_linear_166_42565" x1="23.1301" y1="6.99985" x2="114.906" y2="95.5088" gradientUnits="userSpaceOnUse">
<stop stop-color="#007ED8"/>
<stop offset="0.7065" stop-color="#002D4C"/>
</linearGradient>
<linearGradient id="paint33_linear_166_42565" x1="26.837" y1="3.15553" x2="118.613" y2="91.6645" gradientUnits="userSpaceOnUse">
<stop stop-color="#007ED8"/>
<stop offset="0.7065" stop-color="#002D4C"/>
</linearGradient>
<linearGradient id="paint34_linear_166_42565" x1="19.5488" y1="10.7128" x2="111.325" y2="99.2219" gradientUnits="userSpaceOnUse">
<stop stop-color="#007ED8"/>
<stop offset="0.7065" stop-color="#002D4C"/>
</linearGradient>
<linearGradient id="paint35_linear_166_42565" x1="23.2416" y1="6.88385" x2="115.018" y2="95.393" gradientUnits="userSpaceOnUse">
<stop stop-color="#007ED8"/>
<stop offset="0.7065" stop-color="#002D4C"/>
</linearGradient>
<linearGradient id="paint36_linear_166_42565" x1="26.9336" y1="3.0554" x2="118.71" y2="91.5643" gradientUnits="userSpaceOnUse">
<stop stop-color="#007ED8"/>
<stop offset="0.7065" stop-color="#002D4C"/>
</linearGradient>
<linearGradient id="paint37_linear_166_42565" x1="30.6405" y1="-0.788933" x2="122.417" y2="87.7201" gradientUnits="userSpaceOnUse">
<stop stop-color="#007ED8"/>
<stop offset="0.7065" stop-color="#002D4C"/>
</linearGradient>
<linearGradient id="paint38_linear_166_42565" x1="23.27" y1="55.5063" x2="70.972" y2="91.8332" gradientUnits="userSpaceOnUse">
<stop stop-color="#FFB900"/>
<stop offset="0.17" stop-color="#EF8400"/>
<stop offset="0.31" stop-color="#E25C01"/>
<stop offset="0.43" stop-color="#DB4401"/>
<stop offset="0.5" stop-color="#D83B01"/>
</linearGradient>
<linearGradient id="paint39_linear_166_42565" x1="27.3991" y1="60.4553" x2="63.1145" y2="74.8882" gradientUnits="userSpaceOnUse">
<stop stop-color="#FFB900"/>
<stop offset="0.17" stop-color="#EF8400"/>
<stop offset="0.31" stop-color="#E25C01"/>
<stop offset="0.43" stop-color="#DB4401"/>
<stop offset="0.5" stop-color="#D83B01"/>
</linearGradient>
</defs>
</svg>
