<svg width="103" height="103" viewBox="0 0 103 103" fill="none" xmlns="http://www.w3.org/2000/svg">
<path d="M51.696 98.37C25.846 98.37 4.88605 77.42 4.88605 51.56C4.88605 25.7 25.846 4.75 51.696 4.75C77.546 4.75 98.506 25.71 98.506 51.56C98.506 77.41 77.546 98.37 51.696 98.37Z" fill="url(#paint0_linear_332_15039)"/>
<path fill-rule="evenodd" clip-rule="evenodd" d="M97.596 51.5599C97.596 76.9099 77.046 97.4599 51.696 97.4599C26.346 97.4599 5.79603 76.9099 5.79603 51.5599C5.79603 26.2099 26.346 5.65993 51.696 5.65993C77.046 5.65993 97.596 26.2099 97.596 51.5599ZM51.696 1.91992C79.116 1.91992 101.336 24.1399 101.336 51.5599C101.336 78.9799 79.106 101.2 51.696 101.2C24.276 101.2 2.05603 78.9699 2.05603 51.5599C2.05603 24.1399 24.276 1.91992 51.696 1.91992Z" fill="#F2F1F0"/>
<path fill-rule="evenodd" clip-rule="evenodd" d="M94.786 51.5595C94.786 75.3595 75.496 94.6495 51.696 94.6495C27.896 94.6495 8.60603 75.3595 8.60603 51.5595C8.60603 27.7595 27.896 8.4695 51.696 8.4695C75.496 8.4695 94.786 27.7595 94.786 51.5595ZM51.696 4.72949C77.556 4.72949 98.526 25.6995 98.526 51.5595C98.526 77.4195 77.556 98.3895 51.696 98.3895C25.836 98.3895 4.86603 77.4195 4.86603 51.5595C4.86603 25.6995 25.826 4.72949 51.696 4.72949Z" fill="url(#paint1_linear_332_15039)"/>
<path opacity="0.15" d="M51.2462 70.0334C51.8262 70.0334 52.2862 69.5734 52.2862 68.9934V33.7734H16.0562V69.0034C16.0562 69.5834 16.5162 70.0434 17.0962 70.0434L51.2462 70.0334Z" fill="#1F1D20"/>
<path d="M52.2762 34.0739V33.5139C52.2762 32.8139 51.7162 32.2539 51.0162 32.2539H17.3162C16.6162 32.2539 16.0562 32.8139 16.0562 33.5139V34.1339V34.7039V67.8939C16.0562 68.5939 16.6162 69.1539 17.3162 69.1539H51.0262C51.7262 69.1539 52.2862 68.5939 52.2862 67.8939V34.1439C52.2862 34.1139 52.2762 34.1039 52.2762 34.0739Z" fill="white"/>
<path d="M67.4362 56.0244H57.0062V56.8344H67.4362V56.0244Z" fill="white"/>
<path d="M67.4362 44.1943H57.0062V45.0043H67.4362V44.1943Z" fill="white"/>
<path d="M67.4461 68.664H57.0061C56.7861 68.664 56.5961 68.484 56.5961 68.254V32.744C56.5961 32.524 56.7761 32.334 57.0061 32.334H67.4361V33.144H57.4161V67.844H67.4461V68.664Z" fill="white"/>
<path d="M57.0362 50.3438H49.1862V51.3537H57.0362V50.3438Z" fill="white"/>
<path d="M81.2261 44.1641H70.7861V44.9741H81.2261V44.1641Z" fill="white"/>
<path d="M81.2261 56.0039H70.7861V56.8139H81.2261V56.0039Z" fill="white"/>
<path d="M81.2161 68.6637H70.7861V67.8538H80.8161V33.1538H70.7861V32.3438H81.2261C81.4461 32.3438 81.6361 32.5237 81.6361 32.7537V68.2637C81.6261 68.4837 81.4461 68.6637 81.2161 68.6637Z" fill="white"/>
<path d="M91.4062 49.6436H81.1862V50.6536H91.4062V49.6436Z" fill="white"/>
<path opacity="0.15" d="M74.7962 28.0547H63.0262C62.3062 28.0547 61.7262 28.6347 61.7262 29.3547V36.5647C61.7262 37.2847 62.3062 37.8647 63.0262 37.8647H74.8062C75.5262 37.8747 76.1062 37.2947 76.1062 36.5647V29.3647C76.1062 28.6247 75.5162 28.0547 74.7962 28.0547Z" fill="#1F1D20"/>
<path opacity="0.15" d="M74.7962 52.0342H63.0262C62.3062 52.0342 61.7262 52.6142 61.7262 53.3342V60.5442C61.7262 61.2642 62.3062 61.8442 63.0262 61.8442H74.8062C75.5262 61.8442 76.1062 61.2642 76.1062 60.5442V53.3442C76.1062 52.6142 75.5162 52.0342 74.7962 52.0342Z" fill="#1F1D20"/>
<path opacity="0.15" d="M74.7962 40.0146H63.0262C62.3062 40.0146 61.7262 40.5947 61.7262 41.3147V48.5247C61.7262 49.2447 62.3062 49.8246 63.0262 49.8246H74.8062C75.5262 49.8346 76.1062 49.2547 76.1062 48.5247V41.3147C76.1062 40.6047 75.5162 40.0146 74.7962 40.0146Z" fill="#1F1D20"/>
<path opacity="0.15" d="M74.7962 64.0039H63.0262C62.3062 64.0039 61.7262 64.5839 61.7262 65.3039V72.5139C61.7262 73.2339 62.3062 73.8139 63.0262 73.8139H74.8062C75.5262 73.8139 76.1062 73.2339 76.1062 72.5139V65.3039C76.1062 64.5939 75.5162 64.0039 74.7962 64.0039Z" fill="#1F1D20"/>
<path d="M74.7962 27.1943H63.0262C62.3062 27.1943 61.7262 27.7743 61.7262 28.4943V35.7043C61.7262 36.4243 62.3062 37.0043 63.0262 37.0043H74.8062C75.5262 37.0143 76.1062 36.4343 76.1062 35.7043V28.5043C76.1062 27.7743 75.5162 27.1943 74.7962 27.1943Z" fill="#69B7FC"/>
<path d="M74.7962 51.1748H63.0262C62.3062 51.1748 61.7262 51.7548 61.7262 52.4748V59.6848C61.7262 60.4048 62.3062 60.9848 63.0262 60.9848H74.8062C75.5262 60.9848 76.1062 60.4048 76.1062 59.6848V52.4848C76.1062 51.7548 75.5162 51.1748 74.7962 51.1748Z" fill="#0F49C5"/>
<path d="M74.7962 39.1748H63.0262C62.3062 39.1748 61.7262 39.7548 61.7262 40.4748V47.6848C61.7262 48.4048 62.3062 48.9848 63.0262 48.9848H74.8062C75.5262 48.9948 76.1062 48.4148 76.1062 47.6848V40.4748C76.1062 39.7548 75.5162 39.1748 74.7962 39.1748Z" fill="#2675E2"/>
<path d="M74.7962 63.1543H63.0262C62.3062 63.1543 61.7262 63.7343 61.7262 64.4543V71.6643C61.7262 72.3843 62.3062 72.9643 63.0262 72.9643H74.8062C75.5262 72.9643 76.1062 72.3843 76.1062 71.6643V64.4543C76.1062 63.7443 75.5162 63.1543 74.7962 63.1543Z" fill="#002D4C"/>
<path d="M86.6661 46.5938L92.7861 50.1237L86.6661 53.6538V46.5938Z" fill="white"/>
<path opacity="0.15" d="M49.2449 41.4092H19.2058C18.8019 41.4092 18.4754 41.7357 18.4754 42.1395V60.2266C18.4754 60.6304 18.8019 60.9569 19.2058 60.9569H49.2449C49.6487 60.9569 49.9752 60.6304 49.9752 60.2266V42.1395C49.9838 41.7357 49.6573 41.4092 49.2449 41.4092Z" fill="#1F1D20"/>
<path d="M49.2448 40.7559H19.2057C18.8019 40.7559 18.4753 41.0824 18.4753 41.4862V59.5733C18.4753 59.9771 18.8019 60.3036 19.2057 60.3036H49.2448C49.6486 60.3036 49.9752 59.9771 49.9752 59.5733V41.4862C49.9837 41.0824 49.6572 40.7559 49.2448 40.7559Z" fill="url(#paint2_linear_332_15039)"/>
<path opacity="0.15" d="M27.8323 57.5369C31.338 57.5369 34.1735 54.7014 34.1735 51.1957C34.1735 47.69 31.338 44.8545 27.8323 44.8545C24.3266 44.8545 21.4911 47.69 21.4911 51.1957C21.4911 54.7014 24.3352 57.5369 27.8323 57.5369Z" fill="#1F1D20"/>
<path d="M27.8323 56.9705C31.338 56.9705 34.1735 54.135 34.1735 50.6293C34.1735 47.1236 31.338 44.2881 27.8323 44.2881C24.3266 44.2881 21.4911 47.1236 21.4911 50.6293C21.4911 54.135 24.3352 56.9705 27.8323 56.9705Z" fill="white"/>
<path d="M30.9259 53.2062C30.754 51.6338 29.405 50.3965 27.7725 50.3965C26.1485 50.3965 24.8167 51.608 24.619 53.1632C24.5933 53.2749 24.5933 53.3952 24.5933 53.4983C24.6362 53.9452 24.937 54.3748 25.5212 54.7099C26.7586 55.423 28.7864 55.423 30.0151 54.7099C30.5994 54.3748 30.8915 53.9452 30.9345 53.4983C30.9517 53.4038 30.9345 53.3007 30.9259 53.2062Z" fill="url(#paint3_linear_332_15039)"/>
<path d="M27.7722 49.9404C28.8291 49.9404 29.6883 49.0898 29.6883 48.0415C29.6883 46.9932 28.8376 46.1426 27.7722 46.1426C26.7067 46.1426 25.8561 46.9846 25.8561 48.0415C25.8561 49.0984 26.7153 49.9404 27.7722 49.9404Z" fill="url(#paint4_linear_332_15039)"/>
<path opacity="0.15" d="M46.5643 46.3926H37.3704C36.9752 46.3926 36.6487 46.7191 36.6487 47.1143C36.6487 47.5096 36.9752 47.8361 37.3704 47.8361H46.5557C46.951 47.8361 47.2775 47.5096 47.2775 47.1143C47.2861 46.7191 46.9596 46.3926 46.5643 46.3926Z" fill="#1F1D20"/>
<path opacity="0.15" d="M46.5643 49.5371H37.3704C36.9752 49.5371 36.6487 49.8636 36.6487 50.2589C36.6487 50.6541 36.9752 50.9806 37.3704 50.9806H46.5557C46.951 50.9806 47.2775 50.6541 47.2775 50.2589C47.2861 49.8636 46.9596 49.5371 46.5643 49.5371Z" fill="#1F1D20"/>
<path opacity="0.15" fill-rule="evenodd" clip-rule="evenodd" d="M37.3704 52.9229H41.9674C42.3626 52.9229 42.6892 53.2494 42.6892 53.6446C42.6892 54.0399 42.3626 54.3664 41.9674 54.3664H37.3704C36.9752 54.3664 36.6487 54.0399 36.6487 53.6446C36.6487 53.2494 36.9666 52.9229 37.3704 52.9229Z" fill="#1F1D20"/>
<path d="M46.5643 45.9023H37.3704C36.9752 45.9023 36.6487 46.2289 36.6487 46.6241C36.6487 47.0194 36.9752 47.3459 37.3704 47.3459H46.5557C46.951 47.3459 47.2775 47.0194 47.2775 46.6241C47.2861 46.2289 46.9596 45.9023 46.5643 45.9023Z" fill="white"/>
<path d="M46.5643 49.0479H37.3704C36.9752 49.0479 36.6487 49.3744 36.6487 49.7696C36.6487 50.1649 36.9752 50.4914 37.3704 50.4914H46.5557C46.951 50.4914 47.2775 50.1649 47.2775 49.7696C47.2861 49.3744 46.9596 49.0479 46.5643 49.0479Z" fill="#50E6FF"/>
<path fill-rule="evenodd" clip-rule="evenodd" d="M37.3704 52.4336H41.9674C42.3626 52.4336 42.6892 52.7601 42.6892 53.1554C42.6892 53.5506 42.3626 53.8771 41.9674 53.8771H37.3704C36.9752 53.8771 36.6487 53.5506 36.6487 53.1554C36.6487 52.7601 36.9666 52.4336 37.3704 52.4336Z" fill="#32B0E7"/>
<defs>
<linearGradient id="paint0_linear_332_15039" x1="49.9221" y1="-13.2295" x2="53.9041" y2="132.541" gradientUnits="userSpaceOnUse">
<stop stop-color="#00ABDE"/>
<stop offset="1" stop-color="#007ED8"/>
</linearGradient>
<linearGradient id="paint1_linear_332_15039" x1="3.12643" y1="-20.0631" x2="98.654" y2="120.818" gradientUnits="userSpaceOnUse">
<stop stop-color="#007ED8"/>
<stop offset="0.7065" stop-color="#002D4C"/>
</linearGradient>
<linearGradient id="paint2_linear_332_15039" x1="32.5732" y1="18.2326" x2="37.7057" y2="76.001" gradientUnits="userSpaceOnUse">
<stop offset="0.0340756" stop-color="#1152D4"/>
<stop offset="0.4598" stop-color="#1152D4"/>
<stop offset="0.6156" stop-color="#0D3FB3"/>
</linearGradient>
<linearGradient id="paint3_linear_332_15039" x1="27.7675" y1="50.3965" x2="27.7675" y2="55.2448" gradientUnits="userSpaceOnUse">
<stop stop-color="#008BF1"/>
<stop offset="0.22" stop-color="#0086EC"/>
<stop offset="0.49" stop-color="#0078DD"/>
<stop offset="0.79" stop-color="#0061C4"/>
<stop offset="1" stop-color="#004DAE"/>
</linearGradient>
<linearGradient id="paint4_linear_332_15039" x1="27.7722" y1="46.1426" x2="27.7722" y2="49.9404" gradientUnits="userSpaceOnUse">
<stop stop-color="#008BF1"/>
<stop offset="0.22" stop-color="#0086EC"/>
<stop offset="0.49" stop-color="#0078DD"/>
<stop offset="0.79" stop-color="#0061C4"/>
<stop offset="1" stop-color="#004DAE"/>
</linearGradient>
</defs>
</svg>
