<?xml version="1.0" encoding="UTF-8"?>
<svg width="100px" height="100px" viewBox="0 0 100 100" version="1.1" xmlns="http://www.w3.org/2000/svg" xmlns:xlink="http://www.w3.org/1999/xlink">
    <!-- Generator: Sketch 52.5 (67469) - http://www.bohemiancoding.com/sketch -->
    <title>Work with Dynamics for Marketing/marketing-to-leads-and-contacts-in-dynamics-365-for-marketing</title>
    <desc>Created with Sketch.</desc>
    <defs>
        <rect id="path-1" x="0" y="0" width="96" height="96" rx="48"></rect>
        <filter x="-8.2%" y="-6.2%" width="116.3%" height="112.5%" filterUnits="objectBoundingBox" id="filter-3">
            <feOffset dx="0" dy="2" in="SourceAlpha" result="shadowOffsetOuter1"></feOffset>
            <feColorMatrix values="0 0 0 0 0   0 0 0 0 0   0 0 0 0 0  0 0 0 0.0964956975 0" type="matrix" in="shadowOffsetOuter1" result="shadowMatrixOuter1"></feColorMatrix>
            <feMerge>
                <feMergeNode in="shadowMatrixOuter1"></feMergeNode>
                <feMergeNode in="SourceGraphic"></feMergeNode>
            </feMerge>
        </filter>
    </defs>
    <g id="Badges" stroke="none" stroke-width="1" fill="none" fill-rule="evenodd">
        <g id="Work-with-Dynamics-for-Marketing" transform="translate(-50.000000, -860.000000)">
            <g id="Work-with-Dynamics-for-Marketing/marketing-to-leads-and-contacts-in-dynamics-365-for-marketing" transform="translate(50.000000, 860.000000)">
                <g id="Mask" transform="translate(2.000000, 2.000000)">
                    <mask id="mask-2" fill="white">
                        <use xlink:href="#path-1"></use>
                    </mask>
                    <use id="BG" fill="#01B6C3" xlink:href="#path-1"></use>
                    <g id="Clipboard" filter="url(#filter-3)" mask="url(#mask-2)">
                        <g transform="translate(23.500000, 14.000000)">
                            <path d="M4.27393336,64 C2.07393336,64 0.273933363,62.2 0.273933363,60 L0.273933363,10 C0.273933363,7.8 2.07393336,6 4.27393336,6 L44.2739334,6 C46.4739334,6 48.2739334,7.8 48.2739334,10 L48.2739334,60 C48.2739334,62.2 46.4739334,64 44.2739334,64 L4.27393336,64" id="Fill-18" fill="#30404D" fill-rule="evenodd"></path>
                            <path d="M44.2739334,6 L24.2739334,6 L24.2739334,64 L44.2739334,64 C46.4739334,64 48.2739334,62.2 48.2739334,60 L48.2739334,10 C48.2739334,7.8 46.4739334,6 44.2739334,6" id="Fill-19" fill="#182A37" fill-rule="evenodd"></path>
                            <path d="M3.27393336,59 L3.27393336,11 C3.27393336,9.899 4.17393336,9 5.27393336,9 L43.2739334,9 C44.3739334,9 45.2739334,9.899 45.2739334,11 L45.2739334,59 C45.2739334,60.101 44.3739334,61 43.2739334,61 L5.27393336,61 C4.17393336,61 3.27393336,60.101 3.27393336,59 Z" id="Fill-20" fill="#E1E4E1" fill-rule="evenodd"></path>
                            <polygon id="Fill-26" fill="#182A37" fill-rule="evenodd" points="13.2739334 9 14.2739334 9 14.2739334 6 13.2739334 6"></polygon>
                            <g id="User" stroke-width="1" fill="none" fill-rule="evenodd" transform="translate(7.270796, 16.781206)">
                                <path d="M5.33342929,10.6668586 C8.27414886,10.6668586 10.6668586,8.27414886 10.6668586,5.33342929 C10.6668586,2.39254304 8.27414886,0 5.33342929,0 C2.39254304,0 0,2.39254304 0,5.33342929 C0,8.27414886 2.39254304,10.6668586 5.33342929,10.6668586" id="Fill-115" fill="#55B7D9"></path>
                                <path d="M5.33342935,5.74354153 C6.4661738,5.74354153 7.38497551,4.82523215 7.38497551,3.6924877 C7.38497551,2.55926322 6.46618611,1.64094153 5.33342935,1.64094153 C4.20067259,1.64094153 3.28188319,2.55925091 3.28188319,3.6924877 C3.28188319,4.82523215 4.20067259,5.74354153 5.33342935,5.74354153 Z" id="Path" fill="#FFFFFE"></path>
                                <path d="M1.47367196,7.67348176 C2.26505823,8.97594526 3.69778038,9.84663385 5.33342935,9.84663385 C6.96907832,9.84663385 8.40188662,8.97592064 9.19318674,7.67348176 C9.18837912,7.63742216 9.17443629,7.60232506 9.14991571,7.57203436 C8.64411874,6.9397943 7.84363664,6.56429292 6.76949197,6.56429292 L3.89722888,6.56429292 C2.82313344,6.56429292 2.02267596,6.9397943 1.51680514,7.57203436 C1.49228456,7.60232383 1.47834173,7.63742216 1.47353411,7.67348176 L1.47367196,7.67348176 Z" id="Path" fill="#FFFFFE"></path>
                            </g>
                            <g id="User" stroke-width="1" fill="none" fill-rule="evenodd" transform="translate(7.270796, 30.751152)">
                                <path d="M5.33342929,10.6668586 C8.27414886,10.6668586 10.6668586,8.27414886 10.6668586,5.33342929 C10.6668586,2.39254304 8.27414886,0 5.33342929,0 C2.39254304,0 0,2.39254304 0,5.33342929 C0,8.27414886 2.39254304,10.6668586 5.33342929,10.6668586" id="Fill-115" fill="#55B7D9"></path>
                                <path d="M5.33342935,5.74354153 C6.4661738,5.74354153 7.38497551,4.82523215 7.38497551,3.6924877 C7.38497551,2.55926322 6.46618611,1.64094153 5.33342935,1.64094153 C4.20067259,1.64094153 3.28188319,2.55925091 3.28188319,3.6924877 C3.28188319,4.82523215 4.20067259,5.74354153 5.33342935,5.74354153 Z" id="Path" fill="#FFFFFE"></path>
                                <path d="M1.47367196,7.67348176 C2.26505823,8.97594526 3.69778038,9.84663385 5.33342935,9.84663385 C6.96907832,9.84663385 8.40188662,8.97592064 9.19318674,7.67348176 C9.18837912,7.63742216 9.17443629,7.60232506 9.14991571,7.57203436 C8.64411874,6.9397943 7.84363664,6.56429292 6.76949197,6.56429292 L3.89722888,6.56429292 C2.82313344,6.56429292 2.02267596,6.9397943 1.51680514,7.57203436 C1.49228456,7.60232383 1.47834173,7.63742216 1.47353411,7.67348176 L1.47367196,7.67348176 Z" id="Path" fill="#FFFFFE"></path>
                            </g>
                            <g id="User" stroke-width="1" fill="none" fill-rule="evenodd" transform="translate(7.270796, 44.781206)">
                                <path d="M5.33342929,10.6668586 C8.27414886,10.6668586 10.6668586,8.27414886 10.6668586,5.33342929 C10.6668586,2.39254304 8.27414886,0 5.33342929,0 C2.39254304,0 0,2.39254304 0,5.33342929 C0,8.27414886 2.39254304,10.6668586 5.33342929,10.6668586" id="Fill-115" fill="#55B7D9"></path>
                                <path d="M5.33342935,5.74354153 C6.4661738,5.74354153 7.38497551,4.82523215 7.38497551,3.6924877 C7.38497551,2.55926322 6.46618611,1.64094153 5.33342935,1.64094153 C4.20067259,1.64094153 3.28188319,2.55925091 3.28188319,3.6924877 C3.28188319,4.82523215 4.20067259,5.74354153 5.33342935,5.74354153 Z" id="Path" fill="#FFFFFE"></path>
                                <path d="M1.47367196,7.67348176 C2.26505823,8.97594526 3.69778038,9.84663385 5.33342935,9.84663385 C6.96907832,9.84663385 8.40188662,8.97592064 9.19318674,7.67348176 C9.18837912,7.63742216 9.17443629,7.60232506 9.14991571,7.57203436 C8.64411874,6.9397943 7.84363664,6.56429292 6.76949197,6.56429292 L3.89722888,6.56429292 C2.82313344,6.56429292 2.02267596,6.9397943 1.51680514,7.57203436 C1.49228456,7.60232383 1.47834173,7.63742216 1.47353411,7.67348176 L1.47367196,7.67348176 Z" id="Path" fill="#FFFFFE"></path>
                            </g>
                            <rect id="Rectangle" fill="#C5CCCD" fill-rule="nonzero" x="22" y="18" width="19" height="4" rx="2"></rect>
                            <rect id="Rectangle" fill="#C5CCCD" fill-rule="nonzero" x="22" y="34" width="17" height="4" rx="2"></rect>
                            <rect id="Rectangle" fill="#C5CCCD" fill-rule="nonzero" x="22" y="26" width="19" height="4" rx="2"></rect>
                            <rect id="Rectangle" fill="#C5CCCD" fill-rule="nonzero" x="22" y="42" width="19" height="4" rx="2"></rect>
                            <rect id="Rectangle" fill="#C5CCCD" fill-rule="nonzero" x="22" y="50" width="14" height="4" rx="2"></rect>
                            <g id="Top" stroke-width="1" fill="none" fill-rule="evenodd" transform="translate(14.272933, 0.000000)">
                                <path d="M19.001,11 L1.001,11 C0.451,11 0.001,10.55 0.001,10 L0.001,11 C0.001,11.55 0.451,12 1.001,12 L19.001,12 C19.551,12 20.001,11.55 20.001,11 L20.001,10 C20.001,10.55 19.551,11 19.001,11" id="Fill-22" fill="#546670"></path>
                                <path d="M10.001,2 C11.104,2 12.001,2.897 12.001,4 L8.001,4 C8.001,2.897 8.897,2 10.001,2 Z M19.001,4 L14.001,4 C14.001,1.791 12.21,0 10.001,0 C7.792,0 6.001,1.791 6.001,4 L1.001,4 C0.451,4 0.001,4.45 0.001,5 L0.001,10 C0.001,10.55 0.451,11 1.001,11 L19.001,11 C19.551,11 20.001,10.55 20.001,10 L20.001,5 C20.001,4.45 19.551,4 19.001,4 Z" id="Fill-24" fill="#ADBDC4"></path>
                                <path d="M20.001,10 L20.001,5 C20.001,4.45 19.551,4 19.001,4 L15.001,4 L12.001,11 L19.001,11 C19.551,11 20.001,10.55 20.001,10" id="Fill-33" fill="#8BA6B1"></path>
                                <path d="M10.686,0.069 L9.852,2.015 C9.902,2.011 9.95,2 10.001,2 C11.104,2 12.001,2.897 12.001,4 L9.001,4 L6.001,11 L10.001,11 L13.676,2.424 C13.151,1.202 12.033,0.303 10.686,0.069" id="Fill-34" fill="#8BA6B1"></path>
                            </g>
                        </g>
                    </g>
                </g>
                <g id="Dynamic-Border" stroke="#1D8E96" stroke-width="4">
                    <rect id="Azure-Border" x="2" y="2" width="96" height="96" rx="48"></rect>
                </g>
            </g>
        </g>
    </g>
</svg>