<svg width="103" height="103" viewBox="0 0 103 103" fill="none" xmlns="http://www.w3.org/2000/svg">
<path d="M49.38 98.2804C25.6 97.0504 6.28003 77.7104 5.10003 53.9204C3.72003 26.1604 26.53 3.37036 54.29 4.78036C78.07 5.99036 97.39 25.3104 98.6 49.0804C100.01 76.8704 77.17 99.7004 49.38 98.2804Z" fill="url(#paint0_linear)"/>
<path fill-rule="evenodd" clip-rule="evenodd" d="M97.6903 49.1404C99.0703 76.3804 76.7003 98.7504 49.4603 97.3704C26.1403 96.1904 7.19031 77.2404 6.01031 53.9204C4.63031 26.6804 27.0003 4.31039 54.2403 5.69039C77.5603 6.87039 96.5103 25.8204 97.6903 49.1404ZM49.3003 1.95039C78.7403 0.480391 102.91 24.6604 101.42 54.1004C100.15 79.3204 79.6503 99.8204 54.4303 101.1C24.9603 102.59 0.760311 78.3704 2.28031 48.9004C3.58031 23.6904 24.0803 3.21039 49.3003 1.95039Z" fill="#F2F1F0"/>
<path fill-rule="evenodd" clip-rule="evenodd" d="M94.8801 49.2902C96.1701 74.8602 75.1801 95.8602 49.6101 94.5602C27.7201 93.4502 9.93006 75.6602 8.82006 53.7702C7.52006 28.2002 28.5201 7.20024 54.0901 8.50024C75.9801 9.61024 93.7701 27.4002 94.8801 49.2902ZM49.4101 4.76024C77.1901 3.35024 100.03 26.1802 98.6201 53.9702C97.4101 77.7602 78.0801 97.0902 54.2901 98.3002C26.5001 99.7102 3.67006 76.8802 5.08006 49.0902C6.29006 25.3002 25.6201 5.97024 49.4101 4.76024Z" fill="#0078D4"/>
<path opacity="0.15" d="M88.0101 47.0003C88.0101 46.2303 87.3801 45.5903 86.6001 45.5903C86.0901 45.5903 82.9401 45.3103 81.2401 43.9903C81.2401 43.9903 81.2501 43.9703 81.2401 43.9903C80.6001 41.6603 79.6601 39.4803 78.5001 37.4103C78.2001 35.4503 80.2301 34.0203 81.1601 32.4903C81.3201 32.2203 81.4201 32.0703 81.4801 31.9603C81.6501 31.4603 81.5601 30.8903 81.1601 30.5003C81.1601 30.5003 79.6001 28.2703 78.0001 26.6803C76.4001 25.0903 73.9801 23.3203 73.9801 23.3203C73.4301 22.7703 72.5401 22.7703 71.9901 23.3203C71.6301 23.6703 69.2301 25.6503 67.0601 25.9703C67.0301 25.9703 67.0301 25.9703 67.0301 25.9703C65.0201 24.8303 62.7601 23.8903 60.5001 23.2503H60.4701C58.8701 22.0703 59.2901 19.6303 58.8701 17.8903C58.8701 17.1203 58.2401 16.4803 57.4601 16.4803C57.4601 16.4803 54.7801 16.0103 52.5201 16.0103C50.2601 16.0103 47.3101 16.4803 47.3101 16.4803C46.5401 16.4803 45.9001 17.1103 45.9001 17.8903C45.9001 18.4003 45.6201 21.5503 44.3001 23.2503C42.0601 23.8803 39.7101 24.8803 37.7201 25.9903C35.7601 26.2903 34.3301 24.2603 32.8001 23.3303C32.5301 23.1703 32.3801 23.0703 32.2701 23.0103C31.7701 22.8403 31.2001 22.9303 30.8101 23.3303C30.8101 23.3303 28.5801 24.8903 26.9901 26.4903C25.4001 28.0903 23.6301 30.5103 23.6301 30.5103C23.0801 31.0603 23.0801 31.9503 23.6301 32.5003C23.9801 32.8503 26.0201 35.2903 26.2901 37.4203V37.4403C25.1801 39.4303 24.2101 41.7703 23.5701 44.0103C23.5701 44.0103 23.6001 43.9703 23.5701 44.0103C22.2001 45.6703 19.9501 45.1903 18.2101 45.6103C17.4401 45.6103 16.8001 46.2403 16.8001 47.0203C16.8001 47.0203 16.3301 49.7003 16.3301 51.9603C16.3301 54.2203 16.8001 57.1703 16.8001 57.1703C16.8001 57.9403 17.4301 58.5803 18.2101 58.5803C18.7201 58.5803 21.8701 58.8603 23.5701 60.1803C23.6101 60.1603 23.5901 60.2103 23.5901 60.2103C24.2401 62.4603 25.1701 64.7103 26.3001 66.6903C26.2801 66.7203 26.3001 66.6903 26.3101 66.7603C26.5001 68.8103 24.5801 70.1503 23.6501 71.6803C23.4901 71.9503 23.3901 72.1003 23.3301 72.2103C23.1601 72.7103 23.2501 73.2803 23.6501 73.6703C23.6501 73.6703 25.2101 75.9003 26.8101 77.4903C28.4101 79.0903 30.8301 80.8503 30.8301 80.8503C31.3801 81.4003 32.2701 81.4003 32.8201 80.8503C33.1701 80.5003 35.6101 78.4603 37.7401 78.1903C37.7401 78.1903 37.7301 78.2003 37.7701 78.2103C39.8201 79.3503 41.9301 80.2502 44.2401 80.8802C44.2601 80.8902 44.3301 80.9102 44.3301 80.9102C45.9301 82.0902 45.5101 84.5302 45.9301 86.2702C46.0201 87.0502 46.4501 87.5503 47.3401 87.6803C47.3401 87.6803 50.0201 88.1503 52.2801 88.1503C54.5401 88.1503 57.4901 87.6903 57.4901 87.6903C58.2601 87.5603 58.9001 87.0603 58.9001 86.2803C58.9001 85.7703 59.1801 82.6203 60.5001 80.9203C60.5001 80.9203 60.5601 80.8703 60.6101 80.8203C62.9601 80.1603 64.7501 79.4303 66.8301 78.2403C66.9401 78.2003 66.8201 78.2103 67.0701 78.1703C69.0301 77.8703 70.4601 79.9003 71.9901 80.8303C72.2601 80.9903 72.4101 81.0903 72.5201 81.1503C73.0201 81.3203 73.5901 81.2303 73.9801 80.8303C73.9801 80.8303 76.2101 79.2703 77.8001 77.6703C79.4001 76.0703 81.1601 73.6503 81.1601 73.6503C81.7101 73.1003 81.7101 72.2103 81.1601 71.6603C80.8101 71.3103 78.7701 68.8703 78.5001 66.7403C78.4701 66.5203 78.4901 66.4903 78.5201 66.4303C79.7101 64.3403 80.4501 62.8103 81.1001 60.4303C81.1001 60.4303 81.0701 60.3503 81.2201 60.1503C82.4001 58.5503 84.8401 58.9703 86.5801 58.5503C87.3501 58.5503 87.9901 57.9203 87.9901 57.1403C87.9901 57.1403 88.4601 54.4603 88.4601 52.2003C88.4601 49.9403 88.0101 47.0003 88.0101 47.0003Z" fill="#1F1D20"/>
<path d="M88.0101 46.0403C88.0101 45.2703 87.3801 44.6303 86.6001 44.6303C86.0901 44.6303 82.9401 44.3503 81.2401 43.0303C81.2401 43.0303 81.2501 43.0103 81.2401 43.0303C80.6001 40.7003 79.6601 38.5203 78.5001 36.4503C78.2001 34.4903 80.2301 33.0603 81.1601 31.5303C81.3201 31.2603 81.4201 31.1103 81.4801 31.0003C81.6501 30.5003 81.5601 29.9303 81.1601 29.5403C81.1601 29.5403 79.6001 27.3103 78.0001 25.7203C76.4001 24.1303 73.9801 22.3603 73.9801 22.3603C73.4301 21.8103 72.5401 21.8103 71.9901 22.3603C71.6301 22.7103 69.2301 24.6903 67.0601 25.0103C67.0301 25.0103 67.0301 25.0103 67.0301 25.0103C65.0201 23.8703 62.7601 22.9303 60.5001 22.2903H60.4701C58.8701 21.1103 59.2901 18.6703 58.8701 16.9303C58.8701 16.1603 58.2401 15.5203 57.4601 15.5203C57.4601 15.5203 54.7801 15.0503 52.5201 15.0503C50.2601 15.0503 47.3101 15.5203 47.3101 15.5203C46.5401 15.5203 45.9001 16.1503 45.9001 16.9303C45.9001 17.4403 45.6201 20.5903 44.3001 22.2903C42.0601 22.9203 39.7101 23.9203 37.7201 25.0303C35.7601 25.3303 34.3301 23.3003 32.8001 22.3703C32.5301 22.2103 32.3801 22.1103 32.2701 22.0503C31.7701 21.8803 31.2001 21.9703 30.8101 22.3703C30.8101 22.3703 28.5801 23.9303 26.9901 25.5303C25.4001 27.1303 23.6301 29.5503 23.6301 29.5503C23.0801 30.1003 23.0801 30.9903 23.6301 31.5403C23.9801 31.8903 26.0201 34.3303 26.2901 36.4603V36.4803C25.1801 38.4703 24.2101 40.8103 23.5701 43.0503C23.5701 43.0503 23.6001 43.0103 23.5701 43.0503C22.2001 44.7103 19.9501 44.2303 18.2101 44.6503C17.4401 44.6503 16.8001 45.2803 16.8001 46.0603C16.8001 46.0603 16.3301 48.7403 16.3301 51.0003C16.3301 53.2603 16.8001 56.2103 16.8001 56.2103C16.8001 56.9803 17.4301 57.6203 18.2101 57.6203C18.7201 57.6203 21.8701 57.9003 23.5701 59.2203C23.6101 59.2003 23.5901 59.2503 23.5901 59.2503C24.2401 61.5003 25.1701 63.7503 26.3001 65.7303C26.2801 65.7603 26.3001 65.7303 26.3101 65.8003C26.5001 67.8503 24.5801 69.1903 23.6501 70.7203C23.4901 70.9903 23.3901 71.1403 23.3301 71.2503C23.1601 71.7503 23.2501 72.3203 23.6501 72.7103C23.6501 72.7103 25.2101 74.9403 26.8101 76.5303C28.4101 78.1303 30.8301 79.8903 30.8301 79.8903C31.3801 80.4403 32.2701 80.4403 32.8201 79.8903C33.1701 79.5403 35.6101 77.5003 37.7401 77.2303C37.7401 77.2303 37.7301 77.2403 37.7701 77.2503C39.8201 78.3903 41.9301 79.2903 44.2401 79.9203C44.2601 79.9303 44.3301 79.9503 44.3301 79.9503C45.9301 81.1303 45.5101 83.5703 45.9301 85.3103C46.0201 86.0903 46.4501 86.5903 47.3401 86.7203C47.3401 86.7203 50.0201 87.1903 52.2801 87.1903C54.5401 87.1903 57.4901 86.7303 57.4901 86.7303C58.2601 86.6003 58.9001 86.1003 58.9001 85.3203C58.9001 84.8103 59.1801 81.6603 60.5001 79.9603C60.5001 79.9603 60.5601 79.9103 60.6101 79.8603C62.9601 79.2003 64.7501 78.4703 66.8301 77.2803C66.9401 77.2403 66.8201 77.2503 67.0701 77.2103C69.0301 76.9103 70.4601 78.9403 71.9901 79.8703C72.2601 80.0303 72.4101 80.1303 72.5201 80.1903C73.0201 80.3603 73.5901 80.2703 73.9801 79.8703C73.9801 79.8703 76.2101 78.3103 77.8001 76.7103C79.4001 75.1103 81.1601 72.6903 81.1601 72.6903C81.7101 72.1403 81.7101 71.2503 81.1601 70.7003C80.8101 70.3503 78.7701 67.9103 78.5001 65.7803C78.4701 65.5603 78.4901 65.5303 78.5201 65.4703C79.7101 63.3803 80.4501 61.8503 81.1001 59.4703C81.1001 59.4703 81.0701 59.3903 81.2201 59.1903C82.4001 57.5903 84.8401 58.0103 86.5801 57.5903C87.3501 57.5903 87.9901 56.9603 87.9901 56.1803C87.9901 56.1803 88.4601 53.5003 88.4601 51.2403C88.4601 48.9803 88.0101 46.0403 88.0101 46.0403Z" fill="url(#paint1_linear)"/>
<path d="M72.56 80.1804C72.55 80.1804 72.55 80.1704 72.54 80.1704C72.55 80.1704 72.56 80.1804 72.56 80.1804Z" fill="#9FC2F6"/>
<path d="M72.5403 80.1701C72.3403 80.0501 72.0103 79.8501 72.0103 79.8501C72.1703 80.0001 72.3503 80.1101 72.5403 80.1701Z" fill="#9FC2F6"/>
<path d="M72.5601 80.1802C72.7501 80.2902 72.7101 80.2702 72.5601 80.1802V80.1802Z" fill="#9FC2F6"/>
<path d="M32.3301 22.0703C32.5301 22.1903 32.8601 22.3903 32.8601 22.3903C32.7001 22.2403 32.5201 22.1403 32.3301 22.0703Z" fill="#9FC2F6"/>
<path d="M32.3101 22.0601C32.3201 22.0601 32.3201 22.0701 32.3301 22.0701C32.3201 22.0701 32.3101 22.0601 32.3101 22.0601Z" fill="#9FC2F6"/>
<path d="M32.31 22.0604C32.13 21.9604 32.16 21.9804 32.31 22.0604V22.0604Z" fill="#9FC2F6"/>
<path d="M23.37 71.2505C23.27 71.4305 23.29 71.3905 23.37 71.2505V71.2505Z" fill="#9FC2F6"/>
<path d="M23.3701 71.2505C23.3701 71.2405 23.3801 71.2405 23.3801 71.2305C23.3801 71.2405 23.3701 71.2505 23.3701 71.2505Z" fill="#9FC2F6"/>
<path d="M23.3799 71.2302C23.4999 71.0302 23.6999 70.7002 23.6999 70.7002C23.5599 70.8602 23.4499 71.0402 23.3799 71.2302Z" fill="#9FC2F6"/>
<path d="M81.4899 31.0103C81.3699 31.2103 81.1699 31.5403 81.1699 31.5403C81.3099 31.3903 81.4199 31.2103 81.4899 31.0103Z" fill="#9FC2F6"/>
<path d="M81.5002 31.0005C81.5002 31.0105 81.4902 31.0105 81.4902 31.0205C81.4902 31.0005 81.5002 31.0005 81.5002 31.0005Z" fill="#9FC2F6"/>
<path d="M81.5 31.0005C81.6 30.8105 81.58 30.8505 81.5 31.0005V31.0005Z" fill="#9FC2F6"/>
<path opacity="0.15" d="M88.0101 47.0003C88.0101 46.2303 87.3801 45.5903 86.6001 45.5903C86.0901 45.5903 82.9401 45.3103 81.2401 43.9903C81.2401 43.9903 81.2501 43.9703 81.2401 43.9903C80.6001 41.6603 79.6601 39.4803 78.5001 37.4103C78.2001 35.4503 80.2301 34.0203 81.1601 32.4903C81.3201 32.2203 81.4201 32.0703 81.4801 31.9603C81.6501 31.4603 81.5601 30.8903 81.1601 30.5003C81.1601 30.5003 79.6001 28.2703 78.0001 26.6803C76.4001 25.0903 73.9801 23.3203 73.9801 23.3203C73.4301 22.7703 72.5401 22.7703 71.9901 23.3203C71.6301 23.6703 69.2301 25.6503 67.0601 25.9703C67.0301 25.9703 67.0301 25.9703 67.0301 25.9703C65.0201 24.8303 62.7601 23.8903 60.5001 23.2503H60.4701C58.8701 22.0703 59.2901 19.6303 58.8701 17.8903C58.8701 17.1203 58.2401 16.4803 57.4601 16.4803C57.4601 16.4803 54.7801 16.0103 52.5201 16.0103C50.2601 16.0103 47.3101 16.4803 47.3101 16.4803C46.5401 16.4803 45.9001 17.1103 45.9001 17.8903C45.9001 18.4003 45.6201 21.5503 44.3001 23.2503C42.0601 23.8803 39.7101 24.8803 37.7201 25.9903C35.7601 26.2903 34.3301 24.2603 32.8001 23.3303C32.5301 23.1703 32.3801 23.0703 32.2701 23.0103C31.7701 22.8403 31.2001 22.9303 30.8101 23.3303C30.8101 23.3303 28.5801 24.8903 26.9901 26.4903C25.4001 28.0903 23.6301 30.5103 23.6301 30.5103C23.0801 31.0603 23.0801 31.9503 23.6301 32.5003C23.9801 32.8503 26.0201 35.2903 26.2901 37.4203V37.4403C25.1801 39.4303 24.2101 41.7703 23.5701 44.0103C23.5701 44.0103 23.6001 43.9703 23.5701 44.0103C22.2001 45.6703 19.9501 45.1903 18.2101 45.6103C17.4401 45.6103 16.8001 46.2403 16.8001 47.0203C16.8001 47.0203 16.3301 49.7003 16.3301 51.9603C16.3301 54.2203 16.8001 57.1703 16.8001 57.1703C16.8001 57.9403 17.4301 58.5803 18.2101 58.5803C18.7201 58.5803 21.8701 58.8603 23.5701 60.1803C23.6101 60.1603 23.5901 60.2103 23.5901 60.2103C24.2401 62.4603 25.1701 64.7103 26.3001 66.6903C26.2801 66.7203 26.3001 66.6903 26.3101 66.7603C26.5001 68.8103 24.5801 70.1503 23.6501 71.6803C23.4901 71.9503 23.3901 72.1003 23.3301 72.2103C23.1601 72.7103 23.2501 73.2803 23.6501 73.6703C23.6501 73.6703 25.2101 75.9003 26.8101 77.4903C28.4101 79.0903 30.8301 80.8503 30.8301 80.8503C31.3801 81.4003 32.2701 81.4003 32.8201 80.8503C33.1701 80.5003 35.6101 78.4603 37.7401 78.1903C37.7401 78.1903 37.7301 78.2003 37.7701 78.2103C39.8201 79.3503 41.9301 80.2502 44.2401 80.8802C44.2601 80.8902 44.3301 80.9102 44.3301 80.9102C45.9301 82.0902 45.5101 84.5302 45.9301 86.2702C46.0201 87.0502 46.4501 87.5503 47.3401 87.6803C47.3401 87.6803 50.0201 88.1503 52.2801 88.1503C54.5401 88.1503 57.4901 87.6903 57.4901 87.6903C58.2601 87.5603 58.9001 87.0603 58.9001 86.2803C58.9001 85.7703 59.1801 82.6203 60.5001 80.9203C60.5001 80.9203 60.5601 80.8703 60.6101 80.8203C62.9601 80.1603 64.7501 79.4303 66.8301 78.2403C66.9401 78.2003 66.8201 78.2103 67.0701 78.1703C69.0301 77.8703 70.4601 79.9003 71.9901 80.8303C72.2601 80.9903 72.4101 81.0903 72.5201 81.1503C73.0201 81.3203 73.5901 81.2303 73.9801 80.8303C73.9801 80.8303 76.2101 79.2703 77.8001 77.6703C79.4001 76.0703 81.1601 73.6503 81.1601 73.6503C81.7101 73.1003 81.7101 72.2103 81.1601 71.6603C80.8101 71.3103 78.7701 68.8703 78.5001 66.7403C78.4701 66.5203 78.4901 66.4903 78.5201 66.4303C79.7101 64.3403 80.4501 62.8103 81.1001 60.4303C81.1001 60.4303 81.0701 60.3503 81.2201 60.1503C82.4001 58.5503 84.8401 58.9703 86.5801 58.5503C87.3501 58.5503 87.9901 57.9203 87.9901 57.1403C87.9901 57.1403 88.4601 54.4603 88.4601 52.2003C88.4601 49.9403 88.0101 47.0003 88.0101 47.0003Z" fill="#1F1D20"/>
<path d="M88.0101 46.0403C88.0101 45.2703 87.3801 44.6303 86.6001 44.6303C86.0901 44.6303 82.9401 44.3503 81.2401 43.0303C81.2401 43.0303 81.2501 43.0103 81.2401 43.0303C80.6001 40.7003 79.6601 38.5203 78.5001 36.4503C78.2001 34.4903 80.2301 33.0603 81.1601 31.5303C81.3201 31.2603 81.4201 31.1103 81.4801 31.0003C81.6501 30.5003 81.5601 29.9303 81.1601 29.5403C81.1601 29.5403 79.6001 27.3103 78.0001 25.7203C76.4001 24.1303 73.9801 22.3603 73.9801 22.3603C73.4301 21.8103 72.5401 21.8103 71.9901 22.3603C71.6301 22.7103 69.2301 24.6903 67.0601 25.0103C67.0301 25.0103 67.0301 25.0103 67.0301 25.0103C65.0201 23.8703 62.7601 22.9303 60.5001 22.2903H60.4701C58.8701 21.1103 59.2901 18.6703 58.8701 16.9303C58.8701 16.1603 58.2401 15.5203 57.4601 15.5203C57.4601 15.5203 54.7801 15.0503 52.5201 15.0503C50.2601 15.0503 47.3101 15.5203 47.3101 15.5203C46.5401 15.5203 45.9001 16.1503 45.9001 16.9303C45.9001 17.4403 45.6201 20.5903 44.3001 22.2903C42.0601 22.9203 39.7101 23.9203 37.7201 25.0303C35.7601 25.3303 34.3301 23.3003 32.8001 22.3703C32.5301 22.2103 32.3801 22.1103 32.2701 22.0503C31.7701 21.8803 31.2001 21.9703 30.8101 22.3703C30.8101 22.3703 28.5801 23.9303 26.9901 25.5303C25.4001 27.1303 23.6301 29.5503 23.6301 29.5503C23.0801 30.1003 23.0801 30.9903 23.6301 31.5403C23.9801 31.8903 26.0201 34.3303 26.2901 36.4603V36.4803C25.1801 38.4703 24.2101 40.8103 23.5701 43.0503C23.5701 43.0503 23.6001 43.0103 23.5701 43.0503C22.2001 44.7103 19.9501 44.2303 18.2101 44.6503C17.4401 44.6503 16.8001 45.2803 16.8001 46.0603C16.8001 46.0603 16.3301 48.7403 16.3301 51.0003C16.3301 53.2603 16.8001 56.2103 16.8001 56.2103C16.8001 56.9803 17.4301 57.6203 18.2101 57.6203C18.7201 57.6203 21.8701 57.9003 23.5701 59.2203C23.6101 59.2003 23.5901 59.2503 23.5901 59.2503C24.2401 61.5003 25.1701 63.7503 26.3001 65.7303C26.2801 65.7603 26.3001 65.7303 26.3101 65.8003C26.5001 67.8503 24.5801 69.1903 23.6501 70.7203C23.4901 70.9903 23.3901 71.1403 23.3301 71.2503C23.1601 71.7503 23.2501 72.3203 23.6501 72.7103C23.6501 72.7103 25.2101 74.9403 26.8101 76.5303C28.4101 78.1303 30.8301 79.8903 30.8301 79.8903C31.3801 80.4403 32.2701 80.4403 32.8201 79.8903C33.1701 79.5403 35.6101 77.5003 37.7401 77.2303C37.7401 77.2303 37.7301 77.2403 37.7701 77.2503C39.8201 78.3903 41.9301 79.2903 44.2401 79.9203C44.2601 79.9303 44.3301 79.9503 44.3301 79.9503C45.9301 81.1303 45.5101 83.5703 45.9301 85.3103C46.0201 86.0903 46.4501 86.5903 47.3401 86.7203C47.3401 86.7203 50.0201 87.1903 52.2801 87.1903C54.5401 87.1903 57.4901 86.7303 57.4901 86.7303C58.2601 86.6003 58.9001 86.1003 58.9001 85.3203C58.9001 84.8103 59.1801 81.6603 60.5001 79.9603C60.5001 79.9603 60.5601 79.9103 60.6101 79.8603C62.9601 79.2003 64.7501 78.4703 66.8301 77.2803C66.9401 77.2403 66.8201 77.2503 67.0701 77.2103C69.0301 76.9103 70.4601 78.9403 71.9901 79.8703C72.2601 80.0303 72.4101 80.1303 72.5201 80.1903C73.0201 80.3603 73.5901 80.2703 73.9801 79.8703C73.9801 79.8703 76.2101 78.3103 77.8001 76.7103C79.4001 75.1103 81.1601 72.6903 81.1601 72.6903C81.7101 72.1403 81.7101 71.2503 81.1601 70.7003C80.8101 70.3503 78.7701 67.9103 78.5001 65.7803C78.4701 65.5603 78.4901 65.5303 78.5201 65.4703C79.7101 63.3803 80.4501 61.8503 81.1001 59.4703C81.1001 59.4703 81.0701 59.3903 81.2201 59.1903C82.4001 57.5903 84.8401 58.0103 86.5801 57.5903C87.3501 57.5903 87.9901 56.9603 87.9901 56.1803C87.9901 56.1803 88.4601 53.5003 88.4601 51.2403C88.4601 48.9803 88.0101 46.0403 88.0101 46.0403Z" fill="url(#paint2_linear)"/>
<path d="M72.56 80.1804C72.55 80.1804 72.55 80.1704 72.54 80.1704C72.55 80.1704 72.56 80.1804 72.56 80.1804Z" fill="#9FC2F6"/>
<path d="M72.5403 80.1701C72.3403 80.0501 72.0103 79.8501 72.0103 79.8501C72.1703 80.0001 72.3503 80.1101 72.5403 80.1701Z" fill="#9FC2F6"/>
<path d="M72.5601 80.1802C72.7501 80.2902 72.7101 80.2702 72.5601 80.1802V80.1802Z" fill="#9FC2F6"/>
<path d="M32.3301 22.0703C32.5301 22.1903 32.8601 22.3903 32.8601 22.3903C32.7001 22.2403 32.5201 22.1403 32.3301 22.0703Z" fill="#9FC2F6"/>
<path d="M32.3101 22.0601C32.3201 22.0601 32.3201 22.0701 32.3301 22.0701C32.3201 22.0701 32.3101 22.0601 32.3101 22.0601Z" fill="#9FC2F6"/>
<path d="M32.31 22.0604C32.13 21.9604 32.16 21.9804 32.31 22.0604V22.0604Z" fill="#9FC2F6"/>
<path d="M23.37 71.2505C23.27 71.4305 23.29 71.3905 23.37 71.2505V71.2505Z" fill="#9FC2F6"/>
<path d="M23.3701 71.2505C23.3701 71.2405 23.3801 71.2405 23.3801 71.2305C23.3801 71.2405 23.3701 71.2505 23.3701 71.2505Z" fill="#9FC2F6"/>
<path d="M23.3799 71.2302C23.4999 71.0302 23.6999 70.7002 23.6999 70.7002C23.5599 70.8602 23.4499 71.0402 23.3799 71.2302Z" fill="#9FC2F6"/>
<path d="M81.4899 31.0103C81.3699 31.2103 81.1699 31.5403 81.1699 31.5403C81.3099 31.3903 81.4199 31.2103 81.4899 31.0103Z" fill="#9FC2F6"/>
<path d="M81.5002 31.0005C81.5002 31.0105 81.4902 31.0105 81.4902 31.0205C81.4902 31.0005 81.5002 31.0005 81.5002 31.0005Z" fill="#9FC2F6"/>
<path d="M81.5 31.0005C81.6 30.8105 81.58 30.8505 81.5 31.0005V31.0005Z" fill="#9FC2F6"/>
<path d="M30.98 50.3201H45.12L48.26 53.4301V50.3201H51.41V36.1401H30.98V50.3201Z" fill="#50E6FF"/>
<path d="M40.1904 58.3901V65.9201H43.1104V68.4101L46.0304 65.9201H53.3604V58.3901H40.1904Z" fill="#32B0E7"/>
<path d="M66.5202 38.6704C60.2502 38.6704 55.1602 43.7604 55.1602 50.0304C55.1602 52.1904 55.7602 54.2104 56.8102 55.9304V59.5804H60.3702C62.1402 60.7204 64.2502 61.3904 66.5102 61.3904C72.7802 61.3904 77.8702 56.3004 77.8702 50.0304C77.8702 43.7604 72.8002 38.6704 66.5202 38.6704Z" fill="#ED722E"/>
<path d="M66.5202 38.6704C60.2502 38.6704 55.1602 43.7604 55.1602 50.0304C55.1602 52.1904 55.7602 54.2104 56.8102 55.9304L56.6602 59.5804L74.3202 41.9204C72.4202 39.9104 69.6202 38.6704 66.5202 38.6704Z" fill="#FF7736"/>
<path d="M67.4203 51.0603C67.2903 50.9303 67.1903 50.7803 67.1403 50.6103C67.0803 50.4203 67.0503 50.2103 67.0503 50.0003C67.0503 49.8303 67.0703 49.6603 67.1103 49.5003C67.1703 49.2603 67.3103 49.0603 67.4703 48.8803C67.7403 48.5803 67.8903 48.1503 67.8003 47.6903C67.7003 47.1503 67.2703 46.7003 66.7303 46.5903C65.8303 46.4003 65.0303 47.0903 65.0303 47.9603C65.0303 48.3203 65.1703 48.6403 65.3903 48.8903C65.5503 49.0703 65.6903 49.2703 65.7503 49.5003C65.7903 49.6603 65.8103 49.8303 65.8103 50.0003C65.8103 50.2103 65.7803 50.4203 65.7203 50.6103C65.6703 50.7803 65.5603 50.9303 65.4403 51.0603C65.1403 51.3703 64.9703 51.8103 65.0603 52.2903C65.1603 52.8303 65.5903 53.2803 66.1303 53.4003C67.0303 53.5903 67.8303 52.9003 67.8303 52.0303C67.8303 51.6603 67.6703 51.3103 67.4203 51.0603Z" fill="white"/>
<path d="M71.5301 51.0603C71.4001 50.9303 71.3001 50.7803 71.2501 50.6103C71.1901 50.4203 71.1601 50.2103 71.1601 50.0003C71.1601 49.8303 71.1801 49.6603 71.2201 49.5003C71.2801 49.2603 71.4201 49.0603 71.5801 48.8803C71.8501 48.5803 72.0001 48.1503 71.9101 47.6903C71.8101 47.1503 71.3801 46.7003 70.8401 46.5903C69.9401 46.4003 69.1401 47.0903 69.1401 47.9603C69.1401 48.3203 69.2801 48.6403 69.5001 48.8903C69.6601 49.0703 69.8001 49.2703 69.8601 49.5003C69.9001 49.6603 69.9201 49.8303 69.9201 50.0003C69.9201 50.2103 69.8901 50.4203 69.8301 50.6103C69.7801 50.7803 69.6701 50.9303 69.5501 51.0603C69.2501 51.3703 69.0801 51.8103 69.1701 52.2903C69.2701 52.8303 69.7001 53.2803 70.2401 53.4003C71.1401 53.5903 71.9401 52.9003 71.9401 52.0303C71.9401 51.6603 71.7801 51.3103 71.5301 51.0603Z" fill="white"/>
<path d="M63.4501 51.0603C63.3201 50.9303 63.2201 50.7803 63.1701 50.6103C63.1101 50.4203 63.0801 50.2103 63.0801 50.0003C63.0801 49.8303 63.1001 49.6603 63.1401 49.5003C63.2001 49.2603 63.3401 49.0603 63.5001 48.8803C63.7701 48.5803 63.9201 48.1503 63.8301 47.6903C63.7301 47.1503 63.3001 46.7003 62.7601 46.5903C61.8601 46.4003 61.0601 47.0903 61.0601 47.9603C61.0601 48.3203 61.2001 48.6403 61.4201 48.8903C61.5801 49.0703 61.7201 49.2703 61.7801 49.5003C61.8201 49.6603 61.8401 49.8303 61.8401 50.0003C61.8401 50.2103 61.8101 50.4203 61.7501 50.6103C61.7001 50.7803 61.5901 50.9303 61.4701 51.0603C61.1701 51.3703 61.0001 51.8103 61.0901 52.2903C61.1901 52.8303 61.6201 53.2803 62.1601 53.4003C63.0601 53.5903 63.8601 52.9003 63.8601 52.0303C63.8601 51.6603 63.7001 51.3103 63.4501 51.0603Z" fill="white"/>
<path d="M66.44 57.3703C67.2132 57.3703 67.84 56.7435 67.84 55.9703C67.84 55.1971 67.2132 54.5703 66.44 54.5703C65.6668 54.5703 65.04 55.1971 65.04 55.9703C65.04 56.7435 65.6668 57.3703 66.44 57.3703Z" fill="white"/>
<path d="M66.44 45.3405C67.2132 45.3405 67.84 44.7137 67.84 43.9405C67.84 43.1673 67.2132 42.5405 66.44 42.5405C65.6668 42.5405 65.04 43.1673 65.04 43.9405C65.04 44.7137 65.6668 45.3405 66.44 45.3405Z" fill="white"/>
<defs>
<linearGradient id="paint0_linear" x1="50.0792" y1="-13.2623" x2="54.062" y2="132.505" gradientUnits="userSpaceOnUse">
<stop stop-color="#00ABDE"/>
<stop offset="1" stop-color="#007ED8"/>
</linearGradient>
<linearGradient id="paint1_linear" x1="55.1885" y1="-72.0604" x2="50.0861" y2="155.845" gradientUnits="userSpaceOnUse">
<stop stop-color="#007ED8"/>
<stop offset="0.7065" stop-color="#002D4C"/>
</linearGradient>
<linearGradient id="paint2_linear" x1="55.1885" y1="-72.0604" x2="50.0861" y2="155.845" gradientUnits="userSpaceOnUse">
<stop stop-color="#007ED8"/>
<stop offset="0.7065" stop-color="#002D4C"/>
</linearGradient>
</defs>
</svg>
