<svg width="103" height="103" viewBox="0 0 103 103" fill="none" xmlns="http://www.w3.org/2000/svg">
<path d="M51.6176 98.6879C25.7676 98.6879 4.80762 77.7379 4.80762 51.8779C4.80762 26.0179 25.7676 5.06787 51.6176 5.06787C77.4676 5.06787 98.4276 26.0279 98.4276 51.8779C98.4276 77.7279 77.4676 98.6879 51.6176 98.6879Z" fill="url(#paint0_linear)"/>
<path fill-rule="evenodd" clip-rule="evenodd" d="M97.5178 51.8778C97.5178 77.2278 76.9678 97.7778 51.6178 97.7778C26.2678 97.7778 5.71778 77.2278 5.71778 51.8778C5.71778 26.5278 26.2678 5.97779 51.6178 5.97779C76.9678 5.97779 97.5178 26.5278 97.5178 51.8778ZM51.6178 2.23779C79.0378 2.23779 101.258 24.4578 101.258 51.8778C101.258 79.2978 79.0278 101.518 51.6178 101.518C24.1978 101.518 1.97778 79.2878 1.97778 51.8778C1.97778 24.4578 24.1978 2.23779 51.6178 2.23779Z" fill="#F2F1F0"/>
<path fill-rule="evenodd" clip-rule="evenodd" d="M94.7076 51.8779C94.7076 75.6779 75.4176 94.9678 51.6176 94.9678C27.8176 94.9678 8.5276 75.6779 8.5276 51.8779C8.5276 28.0779 27.8176 8.78785 51.6176 8.78785C75.4176 8.78785 94.7076 28.0779 94.7076 51.8779ZM51.6176 5.04785C77.4776 5.04785 98.4476 26.0179 98.4476 51.8779C98.4476 77.7379 77.4776 98.7079 51.6176 98.7079C25.7576 98.7079 4.7876 77.7379 4.7876 51.8779C4.7876 26.0179 25.7476 5.04785 51.6176 5.04785Z" fill="url(#paint1_linear)"/>
<path opacity="0.15" d="M75.2277 20.748L28.1477 20.358C27.1277 20.348 26.2977 21.168 26.2977 22.188L25.7877 83.628C25.7777 84.648 26.5977 85.478 27.6177 85.478L74.6977 85.868C75.7177 85.878 76.5477 85.058 76.5477 84.038L77.0577 22.598C77.0477 21.588 76.2277 20.758 75.2277 20.748Z" fill="#1F1D20"/>
<path d="M75.2377 18.7978L28.1577 18.4078C27.1377 18.3978 26.3077 19.2178 26.3077 20.2378L25.7877 81.6678C25.7777 82.6878 26.5977 83.5178 27.6177 83.5178L74.6977 83.9078C75.7177 83.9178 76.5477 83.0978 76.5477 82.0778L77.0577 20.6378C77.0577 19.6378 76.2477 18.8078 75.2377 18.7978Z" fill="#D3D2D3"/>
<path fill-rule="evenodd" clip-rule="evenodd" d="M53.8877 11.6578C55.2177 12.3778 55.9977 13.8078 55.9877 15.3078V15.6778C55.9877 15.8178 55.9777 15.9378 55.9677 16.0778L58.8577 16.0978C59.7177 16.1078 60.5277 16.5378 60.9577 17.2878C62.1577 19.4278 60.6377 21.5978 58.6277 21.5778L44.0177 21.4778C43.1577 21.4678 42.3477 21.0378 41.9177 20.2878C40.7177 18.1478 42.2377 15.9778 44.2477 15.9978L46.9377 16.0178C46.9277 15.8878 46.9277 15.7578 46.9277 15.6178V15.4978C46.9677 12.2278 50.4477 9.81778 53.8877 11.6578Z" fill="#243A5E"/>
<path d="M51.4076 17.6476C52.4376 17.6576 53.2776 16.8276 53.2876 15.7976C53.2976 14.7676 52.4676 13.9276 51.4376 13.9176C50.4076 13.9076 49.5676 14.7376 49.5576 15.7676C49.5576 16.7976 50.3776 17.6376 51.4076 17.6476Z" fill="#F2F2F2"/>
<path opacity="0.15" d="M58.8578 64.3479C62.5478 66.5579 62.5478 70.0079 58.8578 72.2279C55.1678 74.4379 49.2578 74.4379 45.3278 72.2279C41.6378 70.0179 41.6378 66.5679 45.3278 64.3479C49.2678 62.1379 55.1678 62.1379 58.8578 64.3479Z" fill="#1F1D20"/>
<path d="M59.9077 43.7679V38.8779H44.0177V43.8479C44.0177 44.0379 43.9377 44.2179 43.8077 44.3579C42.4677 45.7179 41.6377 47.5879 41.6377 49.6479V53.1779L52.7577 61.4679L62.2877 53.1779V49.4479C62.2877 47.4079 61.4477 45.5579 60.1077 44.2279C59.9777 44.1179 59.9077 43.9479 59.9077 43.7679Z" fill="url(#paint2_linear)"/>
<path d="M62.2877 55.2178H41.6377V65.9578C41.6377 66.1978 41.6577 66.4378 41.6977 66.6678C41.6877 68.1978 42.6777 69.7378 44.6877 70.9378C48.9377 73.3278 55.3077 73.3278 59.2877 70.9378C61.3977 69.6678 62.3877 68.0278 62.2677 66.4078C62.2877 66.2578 62.2877 66.1078 62.2877 65.9578V55.2178V55.2178Z" fill="url(#paint3_linear)"/>
<path d="M62.2777 48.7278C62.3577 48.6578 62.4877 48.7178 62.4877 48.8278V64.4078C62.4877 65.8478 61.4577 67.5078 59.3877 68.7378C57.4377 69.8078 54.9377 70.0678 52.4077 70.1278C49.5777 70.1978 46.7077 69.9378 44.5277 68.7378C43.4977 68.1178 42.6677 67.4978 42.2577 66.8778C41.8477 66.4678 41.4277 65.6378 41.4277 65.0178V48.9978C41.4277 48.8578 41.5877 48.7878 41.6877 48.8678C42.0577 49.1778 42.8777 49.7478 44.5277 50.5178C47.4077 51.7078 49.4177 51.9078 52.1277 51.9378C54.6077 51.9578 57.4577 51.5678 59.4277 50.4778C61.0477 49.6578 61.9177 49.0378 62.2777 48.7278Z" fill="white"/>
<path opacity="0.5" d="M59.4177 53.5777C58.6077 54.0277 57.6377 54.3577 56.6077 54.5777V67.1677C57.6077 66.9677 58.5377 66.6577 59.3777 66.1977C59.8777 65.8977 60.3277 65.4977 60.6877 65.0277V52.8877C60.3277 53.0977 59.9177 53.3277 59.4177 53.5777Z" fill="black"/>
<path d="M60.9278 35.7679L60.9778 38.8579C60.9778 40.0979 60.0978 41.5079 58.3278 42.5679C54.7978 44.5079 49.1378 44.5079 45.5978 42.5679C44.7178 42.0379 44.0078 41.5079 43.6578 40.9779C43.3078 40.6279 42.9478 39.9179 42.9478 39.3879L43.0178 35.7179C43.0178 35.7179 43.8278 36.1379 45.5978 37.1979C45.2178 36.9879 57.8978 33.7679 57.5178 33.9779C59.2878 32.9079 60.9278 37.0079 60.9278 35.7679Z" fill="#E6E6E6"/>
<path d="M58.3378 32.2377C61.8178 34.3277 61.8178 37.5677 58.3378 39.6577C54.8578 41.7477 49.2978 41.7477 45.5878 39.6577C42.1078 37.5677 42.1078 34.3277 45.5878 32.2377C49.2978 30.1577 54.8578 30.1577 58.3378 32.2377Z" fill="white"/>
<path d="M54.7378 34.5277C56.2578 35.4377 56.2578 36.8577 54.7378 37.7577C53.2178 38.6677 50.7978 38.6677 49.1778 37.7577C47.6578 36.8477 47.6578 35.4277 49.1778 34.5277C50.7978 33.6177 53.2278 33.6177 54.7378 34.5277Z" fill="url(#paint4_linear)"/>
<g opacity="0.15">
<path opacity="0.15" d="M40.9278 25.8379H31.0478C30.6178 25.8379 30.2678 26.1879 30.2678 26.6179C30.2678 27.0479 30.6178 27.3979 31.0478 27.3979H40.9178C41.3478 27.3979 41.6978 27.0479 41.6978 26.6179C41.6978 26.1879 41.3478 25.8379 40.9278 25.8379Z" fill="#1F1D20"/>
<path opacity="0.15" d="M40.9278 29.2178H31.0478C30.6178 29.2178 30.2678 29.5678 30.2678 29.9978C30.2678 30.4278 30.6178 30.7778 31.0478 30.7778H40.9178C41.3478 30.7778 41.6978 30.4278 41.6978 29.9978C41.6978 29.5678 41.3478 29.2178 40.9278 29.2178Z" fill="#1F1D20"/>
<path opacity="0.15" fill-rule="evenodd" clip-rule="evenodd" d="M31.0378 32.8579H35.9778C36.4078 32.8579 36.7578 33.2079 36.7578 33.6379C36.7578 34.0679 36.4078 34.4179 35.9778 34.4179H31.0378C30.6078 34.4179 30.2578 34.0679 30.2578 33.6379C30.2678 33.2179 30.6078 32.8579 31.0378 32.8579Z" fill="#1F1D20"/>
</g>
<path opacity="0.15" d="M71.4277 87.8379C76.6777 87.8379 80.9377 83.5779 80.9377 78.3279C80.9377 73.0779 76.6777 68.8179 71.4277 68.8179C66.1777 68.8179 61.9177 73.0779 61.9177 78.3279C61.9177 83.5779 66.1777 87.8379 71.4277 87.8379Z" fill="#1F1D20"/>
<path d="M71.1477 86.8481C76.3977 86.8481 80.6577 82.5881 80.6577 77.3381C80.6577 72.0881 76.3977 67.8281 71.1477 67.8281C65.8977 67.8281 61.6377 72.0881 61.6377 77.3381C61.6377 82.5881 65.8977 86.8481 71.1477 86.8481Z" fill="#002D4C"/>
<path d="M76.3176 72.498L68.4776 80.368L66.1276 78.008L64.5676 79.588L68.4876 83.508L77.8976 74.068L76.3176 72.498Z" fill="#FAF9F8"/>
<path d="M40.9278 25.418H31.0478C30.6178 25.418 30.2678 25.768 30.2678 26.198C30.2678 26.628 30.6178 26.978 31.0478 26.978H40.9178C41.3478 26.978 41.6978 26.628 41.6978 26.198C41.6978 25.758 41.3478 25.418 40.9278 25.418Z" fill="#50E6FF"/>
<path d="M40.9278 28.7979H31.0478C30.6178 28.7979 30.2678 29.1479 30.2678 29.5779C30.2678 30.0079 30.6178 30.3579 31.0478 30.3579H40.9178C41.3478 30.3579 41.6978 30.0079 41.6978 29.5779C41.6978 29.1479 41.3478 28.7979 40.9278 28.7979Z" fill="#32B0E7"/>
<path fill-rule="evenodd" clip-rule="evenodd" d="M31.0378 32.438H35.9778C36.4078 32.438 36.7578 32.788 36.7578 33.218C36.7578 33.648 36.4078 33.998 35.9778 33.998H31.0378C30.6078 33.998 30.2578 33.648 30.2578 33.218C30.2678 32.788 30.6078 32.438 31.0378 32.438Z" fill="#185A97"/>
<defs>
<linearGradient id="paint0_linear" x1="49.8477" y1="-12.9121" x2="53.8297" y2="132.858" gradientUnits="userSpaceOnUse">
<stop stop-color="#00ABDE"/>
<stop offset="1" stop-color="#007ED8"/>
</linearGradient>
<linearGradient id="paint1_linear" x1="3.0503" y1="-19.7471" x2="98.5773" y2="121.135" gradientUnits="userSpaceOnUse">
<stop stop-color="#007ED8"/>
<stop offset="0.7065" stop-color="#002D4C"/>
</linearGradient>
<linearGradient id="paint2_linear" x1="51.7758" y1="27.662" x2="52.1999" y2="81.5178" gradientUnits="userSpaceOnUse">
<stop stop-color="#4DC2EB"/>
<stop offset="0.585" stop-color="#0078D4"/>
</linearGradient>
<linearGradient id="paint3_linear" x1="51.8637" y1="58.2241" x2="52.8558" y2="82.4603" gradientUnits="userSpaceOnUse">
<stop stop-color="#4DC2EB"/>
<stop offset="0.585" stop-color="#0078D4"/>
</linearGradient>
<linearGradient id="paint4_linear" x1="49.6471" y1="29.7213" x2="56.2082" y2="47.9192" gradientUnits="userSpaceOnUse">
<stop stop-color="#4DC2EB"/>
<stop offset="0.585" stop-color="#0078D4"/>
</linearGradient>
</defs>
</svg>
