<svg width="100" height="100" viewBox="0 0 100 100" fill="none" xmlns="http://www.w3.org/2000/svg">
<g clip-path="url(#clip0)">
<path d="M49.6401 96.4501C40.382 96.4501 31.3317 93.7047 23.6339 88.5612C15.936 83.4176 9.93624 76.1069 6.3933 67.5535C2.85036 59.0001 1.92337 49.5882 3.72954 40.5079C5.53571 31.4277 9.99394 23.0869 16.5404 16.5404C23.0869 9.99394 31.4277 5.53571 40.5079 3.72954C49.5882 1.92337 59.0001 2.85036 67.5535 6.3933C76.1069 9.93624 83.4176 15.936 88.5612 23.6339C93.7047 31.3317 96.4501 40.382 96.4501 49.6401C96.4505 55.7874 95.24 61.8746 92.8878 67.554C90.5355 73.2335 87.0875 78.3939 82.7407 82.7407C78.3939 87.0875 73.2335 90.5355 67.554 92.8878C61.8746 95.24 55.7874 96.4505 49.6401 96.4501V96.4501Z" fill="url(#paint0_linear)"/>
<path fill-rule="evenodd" clip-rule="evenodd" d="M95.54 49.64C95.54 58.7182 92.848 67.5924 87.8045 75.1407C82.7609 82.6889 75.5923 88.572 67.2052 92.0461C58.818 95.5201 49.5891 96.4291 40.6854 94.658C31.7816 92.887 23.603 88.5154 17.1838 82.0962C10.7646 75.677 6.39302 67.4984 4.62196 58.5946C2.85089 49.6909 3.75987 40.462 7.23393 32.0748C10.708 23.6877 16.5911 16.5191 24.1393 11.4755C31.6875 6.43198 40.5618 3.73999 49.64 3.73999C55.6677 3.73997 61.6363 4.92719 67.2052 7.23387C72.774 9.54056 77.834 12.9215 82.0963 17.1837C86.3585 21.446 89.7394 26.5059 92.0461 32.0748C94.3528 37.6436 95.54 43.6123 95.54 49.64V49.64ZM49.64 3.62732e-07C59.4579 3.62732e-07 69.0552 2.91134 77.2185 8.36585C85.3818 13.8204 91.7442 21.5731 95.5014 30.6436C99.2585 39.7141 100.242 49.6951 98.3262 59.3243C96.4108 68.9535 91.6831 77.7985 84.7408 84.7408C77.7985 91.6831 68.9535 96.4108 59.3243 98.3262C49.6951 100.242 39.7141 99.2585 30.6436 95.5014C21.5731 91.7442 13.8204 85.3818 8.36584 77.2185C2.91133 69.0552 -1.61629e-06 59.4579 3.61524e-07 49.64C-0.000786426 43.1209 1.28265 36.6656 3.77702 30.6427C6.27138 24.6197 9.92781 19.1471 14.5375 14.5375C19.1471 9.9278 24.6197 6.27138 30.6427 3.77701C36.6656 1.28265 43.121 -0.000787738 49.64 3.62732e-07V3.62732e-07Z" fill="#F2F1F0"/>
<path fill-rule="evenodd" clip-rule="evenodd" d="M92.7296 49.6401C92.7296 58.1625 90.2024 66.4935 85.4676 73.5796C80.7328 80.6657 74.0031 86.1886 66.1294 89.45C58.2557 92.7114 49.5918 93.5647 41.2331 91.9021C32.8745 90.2395 25.1966 86.1355 19.1703 80.1093C13.1441 74.083 9.04017 66.4051 7.37753 58.0465C5.7149 49.6879 6.56822 41.0239 9.8296 33.1502C13.091 25.2766 18.6139 18.5468 25.7 13.812C32.7862 9.07724 41.1172 6.55006 49.6396 6.55006C55.2983 6.54971 60.9017 7.66404 66.1298 9.82939C71.3579 11.9947 76.1082 15.1687 80.1096 19.1701C84.1109 23.1714 87.2849 27.9217 89.4502 33.1498C91.6156 38.3779 92.7299 43.9813 92.7296 49.6401ZM49.6396 2.81006C58.9017 2.81006 67.9558 5.55659 75.6569 10.7023C83.3581 15.8481 89.3604 23.1619 92.9049 31.719C96.4493 40.2761 97.3767 49.692 95.5697 58.7761C93.7628 67.8603 89.3027 76.2046 82.7534 82.7539C76.2041 89.3032 67.8598 93.7633 58.7757 95.5702C49.6915 97.3772 40.2756 96.4498 31.7185 92.9053C23.1614 89.3609 15.8476 83.3586 10.7018 75.6574C5.5561 67.9563 2.80957 58.9022 2.80957 49.6401C2.81076 37.2203 7.74501 25.3096 16.5271 16.5276C25.3091 7.7455 37.2198 2.81125 49.6396 2.81006V2.81006Z" fill="#0078D4"/>
<path fill-rule="evenodd" clip-rule="evenodd" d="M92.7296 49.6401C92.7296 58.1625 90.2024 66.4935 85.4676 73.5796C80.7328 80.6657 74.0031 86.1887 66.1294 89.4501C58.2557 92.7114 49.5918 93.5648 41.2331 91.9021C32.8745 90.2395 25.1966 86.1356 19.1703 80.1093C13.1441 74.0831 9.04017 66.4052 7.37753 58.0465C5.7149 49.6879 6.56822 41.0239 9.8296 33.1503C13.091 25.2766 18.6139 18.5469 25.7001 13.8121C32.7862 9.07728 41.1172 6.5501 49.6396 6.5501C55.2983 6.54975 60.9017 7.66408 66.1298 9.82943C71.3579 11.9948 76.1082 15.1688 80.1096 19.1701C84.1109 23.1714 87.2849 27.9218 89.4502 33.1499C91.6156 38.3779 92.7299 43.9813 92.7296 49.6401V49.6401ZM49.6396 2.8101C58.9017 2.8101 67.9558 5.55663 75.6569 10.7024C83.3581 15.8481 89.3604 23.162 92.9048 31.719C96.4493 40.2761 97.3767 49.692 95.5697 58.7762C93.7628 67.8603 89.3027 76.2046 82.7534 82.7539C76.2041 89.3032 67.8598 93.7633 58.7757 95.5703C49.6915 97.3772 40.2756 96.4498 31.7185 92.9054C23.1614 89.3609 15.8476 83.3586 10.7018 75.6575C5.5561 67.9563 2.80957 58.9022 2.80957 49.6401C2.81075 37.2204 7.74499 25.3097 16.5271 16.5276C25.3091 7.7455 37.2198 2.81125 49.6396 2.81006V2.8101Z" fill="#0078D4"/>
<path d="M73.2627 28.1065C62.3818 28.1065 55.1228 25.8477 51.0642 21.1922C50.8812 20.9981 50.6605 20.8435 50.4156 20.7378C50.1707 20.6321 49.9068 20.5776 49.64 20.5776C49.3733 20.5776 49.1094 20.6321 48.8645 20.7378C48.6196 20.8435 48.3989 20.9981 48.2159 21.1922C44.1575 25.8477 36.8985 28.1065 26.0176 28.1065C25.7692 28.1064 25.5233 28.1553 25.2938 28.2503C25.0642 28.3453 24.8557 28.4846 24.6801 28.6602C24.5044 28.8359 24.3651 29.0444 24.2701 29.2739C24.1752 29.5035 24.1263 29.7494 24.1265 29.9978V45.1208C24.1265 61.469 31.5001 72.1584 48.7901 80.8494C49.0548 80.9792 49.3454 81.0472 49.6402 81.0485C49.9359 81.0483 50.2273 80.9774 50.4901 80.8418C67.7801 72.1508 75.1539 61.469 75.1539 45.1208V29.9978C75.1528 29.4966 74.9532 29.0161 74.5988 28.6617C74.2444 28.3072 73.7639 28.1076 73.2627 28.1065V28.1065Z" fill="url(#paint1_linear)"/>
<path d="M49.64 22.525L49.6432 22.5253C54.0911 27.5824 61.8008 30.0457 73.2063 30.0539V45.1206C73.2063 60.6272 66.151 70.7897 49.6647 79.1091C33.1291 70.7974 26.074 60.6326 26.074 45.1206V30.0538C37.4845 30.0457 45.195 27.5811 49.6372 22.525H49.64H49.64ZM49.64 20.5774C49.3726 20.5732 49.1074 20.6257 48.8619 20.7317C48.6164 20.8376 48.3961 20.9945 48.2158 21.192C44.1575 25.8475 36.8984 28.1064 26.0176 28.1064C25.7692 28.1062 25.5232 28.1551 25.2937 28.2501C25.0642 28.3451 24.8557 28.4844 24.68 28.6601C24.5044 28.8357 24.3651 29.0443 24.2701 29.2738C24.1751 29.5033 24.1263 29.7493 24.1265 29.9977V45.1207C24.1265 61.4688 31.5 72.1582 48.79 80.8492C49.0547 80.979 49.3454 81.0471 49.6401 81.0483C49.9358 81.0481 50.2272 80.9772 50.49 80.8416C67.78 72.1506 75.1538 61.4688 75.1538 45.1206V29.9976C75.1528 29.4964 74.9532 29.0159 74.5987 28.6615C74.2443 28.307 73.7638 28.1074 73.2626 28.1063C62.3817 28.1063 55.1228 25.8475 51.0642 21.1919C50.8839 20.9945 50.6637 20.8376 50.4181 20.7316C50.1726 20.6257 49.9074 20.5731 49.64 20.5774L49.64 20.5774Z" fill="url(#paint2_linear)"/>
<path d="M59.7524 63.566H50.0498V35.633C50.0505 35.3069 50.1805 34.9943 50.4111 34.7636C50.6417 34.533 50.9543 34.4031 51.2805 34.4023H59.7524C60.0786 34.4031 60.3912 34.533 60.6218 34.7636C60.8525 34.9943 60.9824 35.3069 60.9831 35.633V62.3353C60.9838 62.4971 60.9524 62.6575 60.8908 62.8071C60.8292 62.9567 60.7386 63.0927 60.6241 63.2071C60.5097 63.3215 60.3738 63.4121 60.2242 63.4737C60.0746 63.5353 59.9142 63.5667 59.7524 63.566V63.566Z" fill="url(#paint3_linear)"/>
<path d="M52.9587 63.566H43.8901V43.7195C43.8906 43.2235 44.0879 42.7479 44.4387 42.3972C44.7894 42.0464 45.265 41.8491 45.761 41.8486H52.9587C53.4548 41.8491 53.9304 42.0464 54.2811 42.3972C54.6319 42.7479 54.8291 43.2235 54.8296 43.7195V61.6952C54.8299 61.9409 54.7817 62.1843 54.6878 62.4114C54.5938 62.6385 54.456 62.8449 54.2823 63.0187C54.1085 63.1925 53.9021 63.3303 53.675 63.4242C53.4479 63.5181 53.2045 63.5663 52.9587 63.566V63.566Z" fill="url(#paint4_linear)"/>
<path d="M47.0474 63.566H39.9243C39.4183 63.5659 38.933 63.3648 38.5751 63.007C38.2173 62.6491 38.0162 62.1638 38.0161 61.6578V50.9048C38.0162 50.3987 38.2173 49.9134 38.5751 49.5556C38.933 49.1978 39.4183 48.9967 39.9243 48.9966H47.0474C47.5535 48.9967 48.0388 49.1978 48.3966 49.5556C48.7544 49.9134 48.9555 50.3987 48.9556 50.9048V61.664C48.9542 62.1691 48.7525 62.653 48.3948 63.0095C48.0371 63.3661 47.5525 63.5662 47.0474 63.566V63.566Z" fill="url(#paint5_linear)"/>
<path opacity="0.2" d="M74.201 54.4677C73.319 53.3906 72.1255 52.6126 70.784 52.2404C69.4426 51.8681 68.0188 51.9198 66.7079 52.3884C65.397 52.857 64.2631 53.7196 63.4616 54.8579C62.6601 55.9961 62.2302 57.3544 62.2309 58.7466V59.1226H61.2612C60.2584 59.1237 59.297 59.5225 58.588 60.2316C57.8789 60.9406 57.4801 61.902 57.479 62.9048V75.9732C57.4808 76.2519 57.5136 76.5295 57.5767 76.801C66.8713 70.7482 72.1835 63.6327 74.201 54.4677Z" fill="#003067"/>
<path d="M68.9832 53.9946C70.2435 53.9946 71.4522 54.4953 72.3434 55.3865C73.2346 56.2777 73.7353 57.4864 73.7353 58.7467V61.1228H76.7054C77.178 61.1228 77.6313 61.3106 77.9654 61.6448C78.2996 61.979 78.4874 62.4322 78.4874 62.9049V75.9732C78.4874 76.4458 78.2996 76.899 77.9654 77.2332C77.6313 77.5674 77.178 77.7552 76.7054 77.7552H61.261C60.7884 77.7552 60.3351 77.5674 60.0009 77.2332C59.6668 76.899 59.479 76.4458 59.479 75.9732V62.9049C59.479 62.6708 59.5251 62.4391 59.6146 62.2229C59.7042 62.0067 59.8354 61.8102 60.0009 61.6448C60.1664 61.4793 60.3628 61.348 60.5791 61.2585C60.7953 61.1689 61.027 61.1228 61.261 61.1228H64.2311V58.7467C64.2311 57.4864 64.7318 56.2777 65.6229 55.3865C66.5141 54.4953 67.7228 53.9946 68.9832 53.9946V53.9946ZM68.9832 56.3707C68.6711 56.3707 68.3622 56.4321 68.0739 56.5515C67.7856 56.6709 67.5237 56.846 67.303 57.0666C67.0824 57.2872 66.9074 57.5492 66.788 57.8375C66.6686 58.1257 66.6071 58.4347 66.6071 58.7467V61.1228H71.3592V58.7467C71.3592 58.4347 71.2978 58.1257 71.1784 57.8375C71.059 57.5492 70.884 57.2872 70.6633 57.0666C70.4427 56.846 70.1808 56.6709 69.8925 56.5515C69.6042 56.4321 69.2952 56.3707 68.9832 56.3707V56.3707Z" fill="url(#paint6_linear)"/>
<path d="M65.3222 69.6786L65.2608 69.6243C65.1485 69.512 65.0811 69.3626 65.0711 69.2041C65.0611 69.0456 65.1093 68.889 65.2066 68.7635L65.2609 68.702L68.5202 65.4434C68.6325 65.3312 68.7818 65.2638 68.9402 65.2537C69.0986 65.2437 69.2552 65.2918 69.3807 65.389L69.4422 65.4431L72.7052 68.7018C72.8226 68.819 72.8908 68.9765 72.8962 69.1423C72.9015 69.3081 72.8434 69.4697 72.7338 69.5942C72.6242 69.7187 72.4713 69.7967 72.3062 69.8125C72.1411 69.8282 71.9762 69.7804 71.845 69.6789L71.7836 69.6247L69.6349 67.48L69.635 73.9633C69.635 74.1231 69.5763 74.2774 69.4701 74.3968C69.3639 74.5162 69.2176 74.5925 69.0589 74.6111L68.9829 74.6155C68.8231 74.6155 68.6688 74.5568 68.5494 74.4506C68.43 74.3444 68.3537 74.1981 68.3351 74.0394L68.3307 73.9633L68.3306 67.478L66.1831 69.6244C66.0708 69.7367 65.9214 69.8041 65.7629 69.8141C65.6045 69.8241 65.4478 69.7759 65.3223 69.6786L65.2608 69.6243L65.3222 69.6786Z" fill="white"/>
</g>
<defs>
<linearGradient id="paint0_linear" x1="47.8698" y1="-15.153" x2="51.8525" y2="130.615" gradientUnits="userSpaceOnUse">
<stop stop-color="#00ABDE"/>
<stop offset="1" stop-color="#007ED8"/>
</linearGradient>
<linearGradient id="paint1_linear" x1="49.6402" y1="81.0485" x2="49.6402" y2="20.5776" gradientUnits="userSpaceOnUse">
<stop stop-color="#008BF1"/>
<stop offset="0.99498" stop-color="#0078D4"/>
</linearGradient>
<linearGradient id="paint2_linear" x1="49.6401" y1="20.5774" x2="49.6401" y2="81.0483" gradientUnits="userSpaceOnUse">
<stop stop-color="#008BF1"/>
<stop offset="0.22" stop-color="#0086EC"/>
<stop offset="0.49" stop-color="#0078DD"/>
<stop offset="0.79" stop-color="#0061C4"/>
<stop offset="1" stop-color="#004DAE"/>
</linearGradient>
<linearGradient id="paint3_linear" x1="55.396" y1="37.0665" x2="55.6288" y2="61.276" gradientUnits="userSpaceOnUse">
<stop offset="0.00754" stop-color="#E0A310"/>
<stop offset="1" stop-color="#CA810E"/>
</linearGradient>
<linearGradient id="paint4_linear" x1="49.0619" y1="42.7029" x2="49.7594" y2="68.2801" gradientUnits="userSpaceOnUse">
<stop offset="0.00754" stop-color="#F2CC40"/>
<stop offset="1" stop-color="#E7B116"/>
</linearGradient>
<linearGradient id="paint5_linear" x1="43.2252" y1="50.1125" x2="43.9238" y2="66.6451" gradientUnits="userSpaceOnUse">
<stop stop-color="#F8E17B"/>
<stop offset="0.5302" stop-color="#F6D856"/>
<stop offset="1" stop-color="#F6D856"/>
</linearGradient>
<linearGradient id="paint6_linear" x1="68.9832" y1="77.7552" x2="68.9832" y2="53.952" gradientUnits="userSpaceOnUse">
<stop stop-color="#003067"/>
<stop offset="0.2" stop-color="#003F7C"/>
<stop offset="0.47" stop-color="#004F90"/>
<stop offset="0.74" stop-color="#00589D"/>
<stop offset="1" stop-color="#005BA1"/>
</linearGradient>
<clipPath id="clip0">
<rect width="99.2799" height="99.28" fill="white"/>
</clipPath>
</defs>
</svg>
