<svg width="183" height="152" viewBox="0 0 183 152" fill="none" xmlns="http://www.w3.org/2000/svg">
<path d="M26.764 5.75442C26.764 5.75442 13.724 4.30288 9.04402 15.0259C4.36402 25.7489 4.37402 25.7489 4.37402 25.7489C4.37402 25.7489 17.134 118.331 19.114 129.626C21.094 140.922 27.334 147.014 42.354 148.169C57.374 149.324 137.744 147.587 146.954 148.026C156.164 148.466 160.984 141.075 164.384 129.77C167.784 118.464 178.274 37.9133 178.984 30.2365C179.694 22.5596 177.704 8.94373 155.594 6.18375C133.484 3.42377 26.764 5.75442 26.764 5.75442Z" fill="url(#paint0_linear)"/>
<path d="M158.524 2.33008H24.6439C23.6039 2.33008 22.5639 2.40163 21.5339 2.55497C15.5239 3.43407 10.4239 6.7256 7.04391 11.3256C3.66391 15.9255 2.00391 21.8544 2.86391 27.9979L17.1539 130.219C17.9239 135.76 20.6339 140.585 24.5139 144.029C28.3939 147.474 33.4539 149.529 38.9239 149.529H144.244C149.714 149.529 154.774 147.474 158.654 144.029C162.534 140.585 165.244 135.76 166.014 130.219L180.304 27.9979C180.454 26.945 180.524 25.8819 180.524 24.8188C180.524 18.6037 178.064 12.9816 174.084 8.91314C170.104 4.84473 164.604 2.33008 158.524 2.33008Z" stroke="white" stroke-width="4"/>
<path d="M158.934 3.93457C170.044 3.93457 179.054 13.1447 179.054 24.5015C179.054 25.4726 178.984 26.4437 178.854 27.4148L164.484 130.26C163.064 140.39 154.574 147.924 144.564 147.924H38.6141C28.6041 147.924 20.1141 140.4 18.6941 130.26L4.31412 27.4148C2.74412 16.1705 10.3841 5.75411 21.3841 4.13901C22.3241 4.00613 23.2741 3.93457 24.2341 3.93457H158.934ZM158.754 9.26031H24.4141C23.7041 9.26031 22.9941 9.31142 22.2841 9.41364C14.1641 10.5994 8.48412 18.2149 9.47412 26.4948L9.51412 26.822L23.8541 129.391C24.8941 136.853 31.0741 142.434 38.4241 142.598H38.7541H144.424C151.804 142.598 158.074 137.139 159.274 129.728L159.324 129.391L173.654 26.822C173.754 26.0962 173.804 25.3704 173.804 24.6446C173.804 16.2523 167.234 9.43409 159.064 9.26031H158.754V9.26031Z" fill="#F3C900"/>
<path d="M75.084 31.4629H50.084V32.4851H75.084V31.4629Z" fill="#F3C900"/>
<path fill-rule="evenodd" clip-rule="evenodd" d="M75.584 21.752H103.584C104.134 21.752 104.584 22.2119 104.584 22.7742V43.2185C104.584 43.7807 104.134 44.2407 103.584 44.2407H75.584C75.034 44.2407 74.584 43.7807 74.584 43.2185V22.7742C74.584 22.2119 75.034 21.752 75.584 21.752Z" fill="url(#paint1_linear)"/>
<path fill-rule="evenodd" clip-rule="evenodd" d="M117.584 85.1299H145.584C146.134 85.1299 146.584 85.5899 146.584 86.1521V106.596C146.584 107.159 146.134 107.619 145.584 107.619H117.584C117.034 107.619 116.584 107.159 116.584 106.596V86.1521C116.584 85.5899 117.034 85.1299 117.584 85.1299Z" fill="url(#paint2_linear)"/>
<path fill-rule="evenodd" clip-rule="evenodd" d="M117.584 21.752H145.584C146.134 21.752 146.584 22.2119 146.584 22.7742V43.2185C146.584 43.7807 146.134 44.2407 145.584 44.2407H117.584C117.034 44.2407 116.584 43.7807 116.584 43.2185V22.7742C116.584 22.2119 117.034 21.752 117.584 21.752Z" fill="url(#paint3_linear)"/>
<path fill-rule="evenodd" clip-rule="evenodd" d="M36.584 85.1299H64.584C65.134 85.1299 65.584 85.5899 65.584 86.1521V106.596C65.584 107.159 65.134 107.619 64.584 107.619H36.584C36.034 107.619 35.584 107.159 35.584 106.596V86.1521C35.584 85.5899 36.034 85.1299 36.584 85.1299Z" fill="url(#paint4_linear)"/>
<path fill-rule="evenodd" clip-rule="evenodd" d="M77.584 85.1299H105.584C106.134 85.1299 106.584 85.5899 106.584 86.1521V106.596C106.584 107.159 106.134 107.619 105.584 107.619H77.584C77.034 107.619 76.584 107.159 76.584 106.596V86.1521C76.584 85.5899 77.034 85.1299 77.584 85.1299Z" fill="url(#paint5_linear)"/>
<path d="M94.6238 40.4377H89.3838V24.4196C89.3838 23.8472 89.8438 23.377 90.4038 23.377H94.6238C95.1838 23.377 95.6438 23.8472 95.6438 24.4196V39.4053C95.6538 39.9675 95.1938 40.4377 94.6238 40.4377Z" fill="url(#paint6_linear)"/>
<path d="M91.234 40.4376H85.864V28.6412C85.864 28.1403 86.264 27.7314 86.754 27.7314H91.234C91.724 27.7314 92.124 28.1403 92.124 28.6412V39.5278C92.124 40.0287 91.724 40.4376 91.234 40.4376Z" fill="url(#paint7_linear)"/>
<path d="M87.6039 40.4374H83.6639C83.0239 40.4374 82.5039 39.9058 82.5039 39.2516V33.0979C82.5039 32.4437 83.0239 31.9121 83.6639 31.9121H87.6039C88.2439 31.9121 88.7639 32.4437 88.7639 33.0979V39.2516C88.7639 39.9058 88.2439 40.4374 87.6039 40.4374Z" fill="url(#paint8_linear)"/>
<path d="M89.584 46.2851C90.684 46.2851 91.584 45.3652 91.584 44.2407C91.584 43.1163 90.684 42.1963 89.584 42.1963C88.484 42.1963 87.584 43.1163 87.584 44.2407C87.584 45.3652 88.484 46.2851 89.584 46.2851Z" fill="#F3C900"/>
<path d="M90.084 44.2412H89.084V85.1298H90.084V44.2412Z" fill="#F3C900"/>
<path d="M89.584 87.1738C90.684 87.1738 91.584 86.2538 91.584 85.1294C91.584 84.005 90.684 83.085 89.584 83.085C88.484 83.085 87.584 84.005 87.584 85.1294C87.584 86.2538 88.484 87.1738 89.584 87.1738Z" fill="#F3C900"/>
<path d="M74.584 34.0185C75.684 34.0185 76.584 33.0986 76.584 31.9741C76.584 30.8497 75.684 29.9297 74.584 29.9297C73.484 29.9297 72.584 30.8497 72.584 31.9741C72.584 33.0986 73.484 34.0185 74.584 34.0185Z" fill="#F3C900"/>
<path d="M51.084 31.9746H50.084V87.1742H51.084V31.9746Z" fill="#F3C900"/>
<path d="M51.084 107.618H50.084V132.151H51.084V107.618Z" fill="#F3C900"/>
<path d="M90.084 107.618H89.084V132.151H90.084V107.618Z" fill="#F3C900"/>
<path d="M89.584 131.129H50.584V132.151H89.584V131.129Z" fill="#F3C900"/>
<path d="M50.584 87.1738C51.684 87.1738 52.584 86.2538 52.584 85.1294C52.584 84.005 51.684 83.085 50.584 83.085C49.484 83.085 48.584 84.005 48.584 85.1294C48.584 86.2538 49.484 87.1738 50.584 87.1738Z" fill="#F3C900"/>
<path d="M50.584 109.663C51.684 109.663 52.584 108.743 52.584 107.619C52.584 106.494 51.684 105.574 50.584 105.574C49.484 105.574 48.584 106.494 48.584 107.619C48.584 108.743 49.484 109.663 50.584 109.663Z" fill="#F3C900"/>
<path d="M89.584 109.663C90.684 109.663 91.584 108.743 91.584 107.619C91.584 106.494 90.684 105.574 89.584 105.574C88.484 105.574 87.584 106.494 87.584 107.619C87.584 108.743 88.484 109.663 89.584 109.663Z" fill="#F3C900"/>
<path d="M131.584 46.2851C132.684 46.2851 133.584 45.3652 133.584 44.2407C133.584 43.1163 132.684 42.1963 131.584 42.1963C130.484 42.1963 129.584 43.1163 129.584 44.2407C129.584 45.3652 130.484 46.2851 131.584 46.2851Z" fill="#F3C900"/>
<path d="M132.084 44.2412H131.084V85.1298H132.084V44.2412Z" fill="#F3C900"/>
<path d="M131.584 87.1738C132.684 87.1738 133.584 86.2538 133.584 85.1294C133.584 84.005 132.684 83.085 131.584 83.085C130.484 83.085 129.584 84.005 129.584 85.1294C129.584 86.2538 130.484 87.1738 131.584 87.1738Z" fill="#F3C900"/>
<path d="M74.584 96.3735C74.584 97.498 75.484 98.418 76.584 98.418C77.684 98.418 78.584 97.498 78.584 96.3735C78.584 95.2491 77.684 94.3291 76.584 94.3291C75.484 94.3291 74.584 95.2491 74.584 96.3735Z" fill="#F3C900"/>
<path d="M64.594 96.8845H76.594V95.8623H64.594V96.8845Z" fill="#F3C900"/>
<path d="M63.584 96.3735C63.584 97.498 64.484 98.418 65.584 98.418C66.684 98.418 67.584 97.498 67.584 96.3735C67.584 95.2491 66.684 94.3291 65.584 94.3291C64.484 94.3291 63.584 95.2491 63.584 96.3735Z" fill="#F3C900"/>
<path d="M116.084 96.8852C116.084 98.0097 116.984 98.9297 118.084 98.9297C119.194 98.9297 120.084 98.0097 120.084 96.8852C120.084 95.7608 119.194 94.8408 118.084 94.8408C116.984 94.8408 116.084 95.7608 116.084 96.8852Z" fill="#F3C900"/>
<path d="M106.094 97.3962H118.094V96.374H106.094V97.3962Z" fill="#F3C900"/>
<path d="M105.084 96.8852C105.084 98.0097 105.984 98.9297 107.084 98.9297C108.194 98.9297 109.084 98.0097 109.084 96.8852C109.084 95.7608 108.194 94.8408 107.084 94.8408C105.984 94.8408 105.084 95.7608 105.084 96.8852Z" fill="#F3C900"/>
<path d="M146.094 32.9968H173.094V31.9746H146.094V32.9968Z" fill="#F3C900"/>
<path d="M145.084 32.4858C145.084 33.6103 145.984 34.5303 147.084 34.5303C148.184 34.5303 149.084 33.6103 149.084 32.4858C149.084 31.3614 148.184 30.4414 147.084 30.4414C145.984 30.4414 145.084 31.3614 145.084 32.4858Z" fill="#F3C900"/>
<defs>
<linearGradient id="paint0_linear" x1="91.7378" y1="4.84618" x2="91.7378" y2="148.582" gradientUnits="userSpaceOnUse">
<stop stop-color="#4E4E57"/>
<stop offset="1" stop-color="#2E2E34"/>
</linearGradient>
<linearGradient id="paint1_linear" x1="89.5882" y1="21.752" x2="89.5882" y2="44.2407" gradientUnits="userSpaceOnUse">
<stop stop-color="#EEEEEE"/>
<stop offset="1" stop-color="#D8D8D8"/>
</linearGradient>
<linearGradient id="paint2_linear" x1="131.588" y1="85.1299" x2="131.588" y2="107.619" gradientUnits="userSpaceOnUse">
<stop stop-color="#EEEEEE"/>
<stop offset="1" stop-color="#D8D8D8"/>
</linearGradient>
<linearGradient id="paint3_linear" x1="131.588" y1="21.752" x2="131.588" y2="44.2407" gradientUnits="userSpaceOnUse">
<stop stop-color="#EEEEEE"/>
<stop offset="1" stop-color="#D8D8D8"/>
</linearGradient>
<linearGradient id="paint4_linear" x1="50.5883" y1="85.1299" x2="50.5883" y2="107.619" gradientUnits="userSpaceOnUse">
<stop stop-color="#EEEEEE"/>
<stop offset="1" stop-color="#D8D8D8"/>
</linearGradient>
<linearGradient id="paint5_linear" x1="91.5882" y1="85.1299" x2="91.5882" y2="107.619" gradientUnits="userSpaceOnUse">
<stop stop-color="#EEEEEE"/>
<stop offset="1" stop-color="#D8D8D8"/>
</linearGradient>
<linearGradient id="paint6_linear" x1="92.4468" y1="24.931" x2="92.5861" y2="39.0953" gradientUnits="userSpaceOnUse">
<stop offset="0.00753769" stop-color="#E0A310"/>
<stop offset="1" stop-color="#CA810E"/>
</linearGradient>
<linearGradient id="paint7_linear" x1="88.8229" y1="28.2231" x2="89.2405" y2="43.204" gradientUnits="userSpaceOnUse">
<stop offset="0.00753769" stop-color="#F2CC40"/>
<stop offset="1" stop-color="#E7B116"/>
</linearGradient>
<linearGradient id="paint8_linear" x1="85.4814" y1="32.5664" x2="85.899" y2="42.2352" gradientUnits="userSpaceOnUse">
<stop stop-color="#F8E17B"/>
<stop offset="0.5302" stop-color="#F6D856"/>
<stop offset="1" stop-color="#F6D856"/>
</linearGradient>
</defs>
</svg>
