<svg width="181" height="191" fill="none" xmlns="http://www.w3.org/2000/svg"><path d="M90.391 189.819c3.06 0 6.07-.85 8.73-2.47l61.97-37.66c5.54-3.37 8.97-9.7 8.97-16.54v-74.71c0-6.82-3.43-13.16-8.97-16.54l-61.97-37.66c-5.33-3.24-12.15-3.22-17.45 0l-61.97 37.68c-5.54 3.37-8.99 9.7-8.99 16.54v74.7c0 5.76 2.45 11.18 6.55 14.75v.03l64.41 39.43c2.64 1.6 5.66 2.45 8.72 2.45Zm.65-181.05c1.95 0 4.43 1.21 6.14 2.26l60.76 37.19c3.75 2.28 5.87 8.88 5.87 13.63l-.63 71.3c0 4.75-3.2 9.02-6.95 11.3l-60.4 36.38c-3.43 2.09-6.22 2.09-9.66 0l-61.21-36.47c-3.75-2.28-6.77-6.48-6.77-11.21v-73.64c0-4.74 2.73-9.63 6.5-11.92l60.58-36.56c1.7-1.04 3.82-2.26 5.77-2.26Z" fill="#F2F1F0"/><path fill-rule="evenodd" clip-rule="evenodd" d="M98.291 12.348c-2.45-1.5-5.17-2.25-7.9-2.25-2.73 0-5.45.76-7.9 2.25l-56.13 34.33c-5.02 3.07-8.13 8.82-8.13 15.07v68.1c0 6.23 3.1 12 8.13 15.07l56.13 34.33c2.45 1.5 5.17 2.25 7.9 2.25 2.73 0 5.45-.74 7.9-2.25l56.13-34.33c5.02-3.07 8.13-8.84 8.13-15.07v-68.1c0-6.23-3.1-11.98-8.13-15.07l-56.13-34.33Z" fill="url(#a)"/><path fill-rule="evenodd" clip-rule="evenodd" d="M90.391 11.568c1.68 0 3.57.87 5.63 2.12l58.47 35.54c3.65 2.22 6.06 6.49 6.06 11.32v70.48c0 4.82-2.41 9.1-6.06 11.32l-58.46 35.54c-1.96 1.19-3.88 1.94-5.63 1.94s-3.67-.75-5.63-1.94l-58.48-35.53c-2.01-1.23-3.46-2.43-4.44-4.04-.98-1.6-1.62-3.82-1.62-7.28v-70.48c0-4.83 2.41-9.1 6.06-11.32l58.46-35.54c2.09-1.25 3.95-2.13 5.64-2.13Zm7.71 169.75 58.46-35.54c4.92-2.99 7.98-8.61 7.98-14.74v-70.48c0-6.13-3.06-11.75-7.98-14.74l-58.46-35.54c-2.11-1.28-4.82-2.71-7.71-2.71-2.9 0-5.61 1.44-7.7 2.7h-.01l-58.47 35.55c-4.92 2.99-7.98 8.61-7.98 14.74v70.48c0 3.96.74 6.95 2.2 9.36 1.46 2.4 3.52 4 5.78 5.37l58.46 35.54c2.22 1.35 4.89 2.53 7.71 2.53 2.82 0 5.5-1.17 7.72-2.52Z" fill="url(#b)"/><path fill-rule="evenodd" clip-rule="evenodd" d="M75.358 126.979a.5.5 0 0 1-.5.5H61.015v-1h13.343V68.031h-13.32v-1h13.82a.5.5 0 0 1 .5.5v59.448Z" fill="#fff"/><path fill-rule="evenodd" clip-rule="evenodd" d="M95.007 99.644H74.645v-1h20.362v1Z" fill="#fff"/><path opacity=".2" d="M67.982 96.13a2.087 2.087 0 0 0 2.084-2.084V56.143h-40.98V94.03c0 1.149.936 2.084 2.084 2.084l36.812.014Z" fill="#1F1D21"/><path d="M70.066 55.49v-.637c0-.794-.638-1.418-1.418-1.418H30.504c-.78 0-1.418.638-1.418 1.418V92.7c0 .793.638 1.417 1.418 1.417h38.13c.794 0 1.417-.638 1.417-1.418V55.562c.029-.029.014-.043.014-.071Z" fill="#fff"/><path opacity=".2" d="M67.982 142.825a2.087 2.087 0 0 0 2.084-2.084v-37.903h-40.98v37.889c0 1.148.936 2.084 2.084 2.084l36.812.014Z" fill="#1F1D21"/><path d="M70.066 102.186v-.638c0-.793-.638-1.417-1.418-1.417H30.504c-.78 0-1.418.638-1.418 1.417v37.847c0 .794.638 1.417 1.418 1.417h38.13c.794 0 1.417-.638 1.417-1.417v-37.138c.029-.028.014-.042.014-.071Z" fill="#fff"/><path d="M58.871 136.332h-9.64v-28.836c0-1.038.844-1.881 1.881-1.881h7.76c1.037 0 1.88.843 1.88 1.881v26.956c0 1.037-.843 1.88-1.88 1.88Z" fill="url(#c)"/><path d="M52.63 136.333h-9.882v-21.238a1.64 1.64 0 0 1 1.638-1.638h8.24a1.64 1.64 0 0 1 1.637 1.638v19.595a1.635 1.635 0 0 1-1.634 1.643Z" fill="url(#d)"/><path d="M45.947 136.332h-7.25a2.134 2.134 0 0 1-2.135-2.135v-11.079c0-1.18.956-2.136 2.136-2.136h7.253c1.18 0 2.136.956 2.136 2.136v11.079a2.14 2.14 0 0 1-2.14 2.135Z" fill="url(#e)"/><path fill-rule="evenodd" clip-rule="evenodd" d="M42.426 58.816h20.722c.86 0 1.565.705 1.565 1.566v26.685a1.57 1.57 0 0 1-1.565 1.565H42.426a1.57 1.57 0 0 1-1.565-1.565V60.382c0-.861.688-1.566 1.565-1.566Z" fill="#195C37"/><path d="M64.713 73.717H52.787v7.45h11.926v-7.45Z" fill="#107B42"/><path d="M64.713 66.266H52.787v7.45h11.926v-7.45Z" fill="#22A366"/><path d="M52.787 66.266H40.109v7.45h12.678v-7.45Z" fill="#117740"/><path fill-rule="evenodd" clip-rule="evenodd" d="M52.787 58.816h10.36c.862 0 1.566.705 1.566 1.566v5.884H52.787v-7.45Z" fill="#34C481"/><path fill-rule="evenodd" clip-rule="evenodd" d="M52.787 58.816H41.675a1.57 1.57 0 0 0-1.566 1.566v5.884h12.678v-7.45Z" fill="#21A465"/><path fill-rule="evenodd" clip-rule="evenodd" d="M34.967 66.27h13.272c.861 0 1.565.704 1.565 1.565v12.52a1.57 1.57 0 0 1-1.565 1.566H34.967a1.57 1.57 0 0 1-1.565-1.565V67.835c0-.861.704-1.566 1.565-1.566Z" fill="#137F47"/><path fill-rule="evenodd" clip-rule="evenodd" d="m40.132 74.502-2.707-4.508h2.128l1.847 3.412 1.847-3.412h1.972l-2.74 4.445 2.85 4.508h-2.223l-1.831-3.663-1.863 3.663h-2.27l2.99-4.445Z" fill="#fff"/><path opacity=".15" d="M83.971 130.091h68.514a3.481 3.481 0 0 0 3.479-3.479V71.977H80.493v54.635a3.48 3.48 0 0 0 3.478 3.479Z" fill="#1F1D20"/><path d="M81.932 126.913h72.592c.792 0 1.44-.648 1.44-1.439V68.799H80.493v56.675c0 .791.648 1.439 1.44 1.439Z" fill="#fff"/><path d="M80.493 75.072h75.471v-6.765a1.1 1.1 0 0 0-1.104-1.104H81.596a1.1 1.1 0 0 0-1.103 1.104v6.765Z" fill="#092E4C"/><path d="M86.298 73.213c1.056 0 1.92-.852 1.92-1.92a1.915 1.915 0 0 0-1.92-1.906c-1.055 0-1.919.851-1.919 1.919 0 1.067.84 1.907 1.92 1.907Z" fill="#32B0E7"/><path d="M150.049 88.687c0-.74-.6-1.34-1.34-1.34h-2.749a1.339 1.339 0 1 0 0 2.68h2.749c.747 0 1.34-.6 1.34-1.34ZM150.049 94.115c0-.74-.6-1.34-1.34-1.34h-5.414a1.339 1.339 0 1 0 0 2.68h5.414c.747 0 1.34-.6 1.34-1.34ZM150.049 104.878c0-.74-.6-1.339-1.34-1.339h-17.623a1.338 1.338 0 1 0 0 2.679h17.616c.754 0 1.347-.599 1.347-1.34ZM150.049 99.45c0-.74-.6-1.339-1.34-1.339H137.86a1.339 1.339 0 1 0 0 2.679h10.863c.733 0 1.326-.606 1.326-1.34ZM150.049 110.321c0-.755-.6-1.354-1.34-1.354h-22.98a1.318 1.318 0 0 0-1.34 1.325v.014c0 .741.599 1.34 1.34 1.34h22.98a1.314 1.314 0 0 0 1.34-1.325Z" fill="#fff"/><path d="M124.382 110.322c0 .74.599 1.339 1.339 1.339h2.75a1.338 1.338 0 1 0 0-2.679h-2.75c-.733 0-1.339.6-1.339 1.34Z" fill="#185A97"/><path d="M124.382 104.894c0 .74.599 1.339 1.339 1.339h5.421a1.339 1.339 0 1 0 0-2.678h-5.414c-.74 0-1.346.599-1.346 1.339Z" fill="#0078D1"/><path d="M124.382 94.115c0 .74.599 1.34 1.339 1.34h17.617a1.339 1.339 0 1 0 0-2.68h-17.61c-.74 0-1.346.6-1.346 1.34Z" fill="#45CAF2"/><path d="M124.382 99.543c0 .74.599 1.339 1.339 1.339h10.863a1.339 1.339 0 1 0 0-2.679h-10.856c-.74 0-1.346.613-1.346 1.34Z" fill="#32B0E7"/><path d="M124.382 88.687c0 .754.599 1.353 1.339 1.353h22.981a1.318 1.318 0 0 0 1.339-1.325v-.028c0-.74-.599-1.34-1.339-1.34h-22.981a1.339 1.339 0 0 0-1.339 1.34Z" fill="#50E6FF"/><path opacity=".2" d="M119.363 118.956c.775 0 1.403-.627 1.403-1.402V84.387H85.322v33.167c0 .775.627 1.402 1.403 1.402h32.638Z" fill="#1F1D21"/><path d="M120.766 84.373v-.55a1.23 1.23 0 0 0-1.234-1.233H86.555a1.23 1.23 0 0 0-1.233 1.233v32.723c0 .684.55 1.234 1.233 1.234h32.991a1.23 1.23 0 0 0 1.234-1.234V84.43c-.007-.021-.014-.036-.014-.057Z" fill="#fff"/><path d="M95.557 109.305h-3.616v4.723h3.609v-4.723h.007Z" fill="#45CAF2"/><path d="M100.95 106.168h-3.666v7.86h3.68v-7.86h-.014Z" fill="#50E6FF"/><path d="M107.484 101.072h-4.723v12.936h4.723v-12.936Z" fill="#32B0E7"/><path d="M114.886 95.785h-5.428v18.223h5.428V95.785Z" fill="#185A97"/><path d="m94.07 104.865-.656-.31 4.97-9.01 6.626.656 6.873-5.428.536.487-7.162 5.745-6.471-.613-4.716 8.473Z" fill="#16B2E6"/><path d="M93.005 106.423a1.629 1.629 0 1 0 .843-3.142 1.629 1.629 0 0 0-.843 3.142ZM98.264 97.745a1.63 1.63 0 0 0 1.995-1.15 1.63 1.63 0 0 0-1.15-1.994 1.63 1.63 0 0 0-1.994 1.149 1.63 1.63 0 0 0 1.149 1.995ZM104.559 98.126a1.63 1.63 0 0 0 1.995-1.15 1.63 1.63 0 0 0-1.149-1.994 1.63 1.63 0 0 0-1.995 1.149 1.633 1.633 0 0 0 1.149 1.995ZM111.199 92.521a1.634 1.634 0 0 0 2.432-1.403 1.63 1.63 0 0 0-.824-1.438 1.634 1.634 0 0 0-2.432 1.403c-.014.585.31 1.156.824 1.438Z" fill="#059"/><defs><linearGradient id="a" x1="90.391" y1="10.098" x2="90.391" y2="181.497" gradientUnits="userSpaceOnUse"><stop stop-color="#00ABDE"/><stop offset="1" stop-color="#007ED8"/></linearGradient><linearGradient id="b" x1="36.511" y1="4.889" x2="203.188" y2="287.22" gradientUnits="userSpaceOnUse"><stop stop-color="#007ED8"/><stop offset=".707" stop-color="#002D4C"/></linearGradient><linearGradient id="c" x1="54.863" y1="108.425" x2="55.108" y2="133.911" gradientUnits="userSpaceOnUse"><stop offset=".008" stop-color="#E0A310"/><stop offset="1" stop-color="#CA810E"/></linearGradient><linearGradient id="d" x1="48.199" y1="114.348" x2="48.934" y2="141.305" gradientUnits="userSpaceOnUse"><stop offset=".008" stop-color="#F2CC40"/><stop offset="1" stop-color="#E7B116"/></linearGradient><linearGradient id="e" x1="42.047" y1="122.164" x2="42.782" y2="139.564" gradientUnits="userSpaceOnUse"><stop stop-color="#F8E17B"/><stop offset=".53" stop-color="#F6D856"/><stop offset="1" stop-color="#F6D856"/></linearGradient></defs></svg>