<svg width="103" height="103" fill="none" xmlns="http://www.w3.org/2000/svg"><path d="M51.377 98.706c-25.85 0-46.81-20.95-46.81-46.81 0-25.86 20.96-46.81 46.81-46.81s46.81 20.96 46.81 46.81-20.96 46.81-46.81 46.81Z" fill="url(#a)"/><path fill-rule="evenodd" clip-rule="evenodd" d="M97.277 51.896c0 25.35-20.55 45.9-45.9 45.9-25.35 0-45.9-20.55-45.9-45.9 0-25.35 20.55-45.9 45.9-45.9 25.35 0 45.9 20.55 45.9 45.9Zm-45.9-49.64c27.42 0 49.64 22.22 49.64 49.64s-22.23 49.64-49.64 49.64c-27.42 0-49.64-22.23-49.64-49.64 0-27.42 22.22-49.64 49.64-49.64Z" fill="#F2F1F0"/><path fill-rule="evenodd" clip-rule="evenodd" d="M94.467 51.896c0 23.8-19.29 43.09-43.09 43.09-23.8 0-43.09-19.29-43.09-43.09 0-23.8 19.29-43.09 43.09-43.09 23.8 0 43.09 19.29 43.09 43.09Zm-43.09-46.83c25.86 0 46.83 20.97 46.83 46.83s-20.97 46.83-46.83 46.83-46.83-20.97-46.83-46.83 20.96-46.83 46.83-46.83Z" fill="url(#b)"/><path opacity=".15" d="M23.4 79.829h57.12c1.6 0 2.9-1.3 2.9-2.9v-45.55H20.5v45.55c0 1.6 1.3 2.9 2.9 2.9Z" fill="#1F1D20"/><path d="M21.7 77.178h60.52c.66 0 1.2-.54 1.2-1.2v-47.25H20.5v47.25c0 .66.54 1.2 1.2 1.2Z" fill="#EBEBEB"/><path d="M20.5 33.958h62.92v-5.64c0-.51-.41-.92-.92-.92H21.42c-.51 0-.92.41-.92.92v5.64Z" fill="#092E4C"/><path d="M25.34 32.409c.88 0 1.6-.71 1.6-1.6 0-.89-.73-1.59-1.6-1.59-.88 0-1.6.71-1.6 1.6 0 .89.7 1.59 1.6 1.59Z" fill="#32B0E7"/><path fill-rule="evenodd" clip-rule="evenodd" d="m56.83 44.53-4.838 4.542-4.805-.078-5.424 5.117-4.435-4.968-5.052.075-.012-.8 5.418-.08 4.13 4.627 5.062-4.776 4.806.078 4.602-4.32.548.584ZM56.62 48.333a.4.4 0 0 1 .242.366l.023 4.93a.4.4 0 1 1-.8.004l-.019-4.01-4.495 4.23a.4.4 0 0 1-.29.108l-4.314-.166-4.806 4.647-4.758 4.702a.4.4 0 0 1-.276.116l-5.095.055a.4.4 0 1 1-.009-.8l4.933-.053 4.647-4.594 4.93-4.766a.4.4 0 0 1 .294-.112l4.318.165 5.043-4.745a.4.4 0 0 1 .432-.077Z" fill="#243A5E"/><path d="M42.928 67.604c0-.594-.476-1.07-1.07-1.07-.594 0-1.07.476-1.07 1.07 0 .594.476 1.07 1.07 1.07.586 0 1.07-.484 1.07-1.07Z" fill="url(#c)"/><path d="M47.656 67.604c0-.594-.477-1.07-1.071-1.07s-1.07.476-1.07 1.07c0 .594.476 1.07 1.07 1.07.594 0 1.07-.484 1.07-1.07Z" fill="url(#d)"/><path d="M33.153 67.604c0-.594-.477-1.07-1.07-1.07-.595 0-1.071.476-1.071 1.07 0 .594.476 1.07 1.07 1.07.586 0 1.07-.484 1.07-1.07ZM38.216 67.604c0-.594-.476-1.07-1.07-1.07-.594 0-1.07.476-1.07 1.07 0 .594.476 1.07 1.07 1.07.594 0 1.07-.484 1.07-1.07Z" fill="#3BCAF4"/><path d="M52 67.604c0-.594-.477-1.07-1.07-1.07-.594 0-1.07.476-1.07 1.07 0 .594.476 1.07 1.07 1.07.593 0 1.07-.484 1.07-1.07Z" fill="url(#e)"/><path d="M55.258 67.604c0 .594.477 1.07 1.071 1.07s1.07-.476 1.07-1.07c0-.594-.476-1.07-1.07-1.07-.594 0-1.07.476-1.07 1.07Z" fill="url(#f)"/><path d="M42.928 62.893c0-.594-.476-1.07-1.07-1.07-.594 0-1.07.476-1.07 1.07 0 .594.476 1.07 1.07 1.07.586 0 1.07-.476 1.07-1.07Z" fill="#3BCAF4"/><path d="M47.984 62.893c0-.594-.477-1.07-1.07-1.07-.595 0-1.071.476-1.071 1.07 0 .594.476 1.07 1.07 1.07.594 0 1.07-.476 1.07-1.07Z" fill="url(#g)"/><path d="M33.153 62.893c0-.594-.477-1.07-1.07-1.07-.595 0-1.071.476-1.071 1.07 0 .594.476 1.07 1.07 1.07.586 0 1.07-.476 1.07-1.07ZM38.216 62.893c0-.594-.476-1.07-1.07-1.07-.594 0-1.07.476-1.07 1.07 0 .594.476 1.07 1.07 1.07.594 0 1.07-.476 1.07-1.07Z" fill="#3BCAF4"/><path d="M52.328 62.893c0-.594-.476-1.07-1.07-1.07-.594 0-1.07.476-1.07 1.07 0 .594.476 1.07 1.07 1.07.594 0 1.07-.476 1.07-1.07Z" fill="url(#h)"/><path d="M57.392 62.893c0-.594-.477-1.07-1.07-1.07-.595 0-1.071.476-1.071 1.07 0 .594.476 1.07 1.07 1.07.594 0 1.07-.476 1.07-1.07Z" fill="url(#i)"/><path d="M42.928 58.196c0-.594-.476-1.071-1.07-1.071-.594 0-1.07.477-1.07 1.07 0 .594.476 1.071 1.07 1.071a1.083 1.083 0 0 0 1.07-1.07ZM46.913 59.266c.594 0 1.07-.477 1.07-1.07 0-.594-.476-1.071-1.07-1.071-.594 0-1.07.477-1.07 1.07 0 .594.476 1.071 1.07 1.071Z" fill="#3BCAF4"/><path d="M33.153 58.196c0-.594-.477-1.071-1.07-1.071-.595 0-1.071.477-1.071 1.07 0 .594.476 1.071 1.07 1.071a1.083 1.083 0 0 0 1.07-1.07Z" fill="#50E6FF"/><path d="M37.146 59.266c.594 0 1.07-.477 1.07-1.07 0-.594-.476-1.071-1.07-1.071-.594 0-1.07.477-1.07 1.07 0 .594.476 1.071 1.07 1.071ZM52.328 58.196c0-.594-.476-1.071-1.07-1.071-.594 0-1.07.477-1.07 1.07 0 .594.476 1.071 1.07 1.071.594 0 1.07-.484 1.07-1.07Z" fill="#3BCAF4"/><path d="M56.33 59.266c.593 0 1.07-.477 1.07-1.07 0-.594-.477-1.071-1.07-1.071-.595 0-1.072.477-1.072 1.07 0 .594.477 1.071 1.071 1.071Z" fill="url(#j)"/><path d="M42.928 53.485c0-.594-.476-1.07-1.07-1.07-.594 0-1.07.476-1.07 1.07 0 .593.476 1.07 1.07 1.07.586 0 1.07-.484 1.07-1.07ZM47.984 53.485c0-.594-.477-1.07-1.07-1.07-.595 0-1.071.476-1.071 1.07 0 .593.476 1.07 1.07 1.07.594 0 1.07-.484 1.07-1.07ZM33.153 53.485c0-.594-.477-1.07-1.07-1.07-.595 0-1.071.476-1.071 1.07 0 .593.476 1.07 1.07 1.07.586 0 1.07-.484 1.07-1.07ZM38.216 53.485c0-.594-.476-1.07-1.07-1.07-.594 0-1.07.476-1.07 1.07 0 .593.476 1.07 1.07 1.07.594 0 1.07-.484 1.07-1.07ZM52.328 53.485c0-.594-.476-1.07-1.07-1.07-.594 0-1.07.476-1.07 1.07 0 .593.476 1.07 1.07 1.07.594 0 1.07-.484 1.07-1.07ZM57.392 53.485c0-.594-.477-1.07-1.07-1.07-.595 0-1.071.476-1.071 1.07 0 .593.476 1.07 1.07 1.07.594 0 1.07-.484 1.07-1.07ZM42.928 48.78c0-.594-.476-1.071-1.07-1.071-.594 0-1.07.477-1.07 1.07 0 .594.476 1.071 1.07 1.071.586 0 1.07-.477 1.07-1.07ZM47.984 48.78c0-.594-.477-1.071-1.07-1.071-.595 0-1.071.477-1.071 1.07 0 .594.476 1.071 1.07 1.071.594 0 1.07-.477 1.07-1.07Z" fill="#50E6FF"/><path d="M33.153 48.78c0-.594-.477-1.071-1.07-1.071-.595 0-1.071.477-1.071 1.07 0 .594.476 1.071 1.07 1.071.586 0 1.07-.477 1.07-1.07ZM38.216 48.78c0-.594-.476-1.071-1.07-1.071-.594 0-1.07.477-1.07 1.07 0 .594.476 1.071 1.07 1.071.594 0 1.07-.477 1.07-1.07Z" fill="#9CEBFF"/><path d="M52.328 48.78c0-.594-.476-1.071-1.07-1.071-.594 0-1.07.477-1.07 1.07 0 .594.476 1.071 1.07 1.071.594 0 1.07-.477 1.07-1.07ZM57.392 48.78c0-.594-.477-1.071-1.07-1.071-.595 0-1.071.477-1.071 1.07 0 .594.476 1.071 1.07 1.071.594 0 1.07-.477 1.07-1.07Z" fill="#50E6FF"/><path d="M42.928 44.084c0-.594-.476-1.07-1.07-1.07-.594 0-1.07.476-1.07 1.07 0 .594.476 1.07 1.07 1.07.586 0 1.07-.484 1.07-1.07ZM47.984 44.084c0-.594-.477-1.07-1.07-1.07-.595 0-1.071.476-1.071 1.07 0 .594.476 1.07 1.07 1.07.594 0 1.07-.484 1.07-1.07ZM33.153 44.084c0-.594-.477-1.07-1.07-1.07-.595 0-1.071.476-1.071 1.07 0 .594.476 1.07 1.07 1.07.586 0 1.07-.484 1.07-1.07ZM38.216 44.084c0-.594-.476-1.07-1.07-1.07-.594 0-1.07.476-1.07 1.07 0 .594.476 1.07 1.07 1.07.594 0 1.07-.484 1.07-1.07ZM52.328 44.084c0-.594-.476-1.07-1.07-1.07-.594 0-1.07.476-1.07 1.07 0 .594.476 1.07 1.07 1.07.594 0 1.07-.484 1.07-1.07Z" fill="#9CEBFF"/><path d="M57.392 44.084c0-.594-.477-1.07-1.07-1.07-.595 0-1.071.476-1.071 1.07 0 .594.476 1.07 1.07 1.07.594 0 1.07-.484 1.07-1.07Z" fill="#50E6FF"/><path fill-rule="evenodd" clip-rule="evenodd" d="M55.917 39.215c0-.262.212-.475.475-.475h5.65c.262 0 .474.213.474.475v33.147a.475.475 0 0 1-.475.476h-5.65a.475.475 0 0 1 0-.95h5.175V39.69h-5.174a.475.475 0 0 1-.475-.475ZM26.81 39.215c0-.262.212-.475.474-.475h5.65a.475.475 0 0 1 0 .95h-5.175v32.198h5.175a.475.475 0 1 1 0 .95h-5.65a.475.475 0 0 1-.475-.475V39.214Z" fill="#0078D4"/><path d="M59.337 57.682c.073.107 16.8 17.015 16.8 17.015l-7.826.142 3.11 7.793-3.29 1.821-2.969-7.04-6.323 4.97-.469-24.809.967.108Z" fill="#fff"/><path d="M77.332 74.94 58.62 56.233c-.13-.133-.357-.038-.357.146l.017 27.159c0 .292.352.433.559.227l5.808-5.855 2.938 7.067c.073.18.283.257.455.171l4.012-2.006a.33.33 0 0 0 .16-.425l-3.008-7.217h7.9a.327.327 0 0 0 .228-.558Zm-6.753 7.458-2.2 1.091-3.067-7.62a.24.24 0 0 0-.39-.082l-5.263 5.232-.034-22.016 15.03 15.173-7.1.086a.24.24 0 0 0-.22.33l3.244 7.806Z" fill="url(#k)"/><path d="M67.89 85.346a.483.483 0 0 1-.455-.305l-2.844-6.844-5.636 5.684a.481.481 0 0 1-.533.107.481.481 0 0 1-.3-.45l-.018-27.159c0-.15.09-.283.228-.344a.372.372 0 0 1 .404.082l18.712 18.712c.142.142.18.344.107.533a.471.471 0 0 1-.45.3h-7.66l2.917 6.999a.495.495 0 0 1-.236.631l-4.013 2.006a.58.58 0 0 1-.223.048Zm-3.188-7.72 3.029 7.29a.17.17 0 0 0 .236.086l4.012-2.006c.082-.039.116-.138.082-.22l-3.102-7.44H77.1a.154.154 0 0 0 .15-.103.171.171 0 0 0-.034-.18L58.508 56.345c-.017-.017-.039-.013-.052-.009a.044.044 0 0 0-.03.043l.017 27.158c0 .103.078.142.104.15.025.009.107.04.18-.034l5.975-6.027Z" fill="url(#l)"/><path d="M78.465 58.085h-5.983V40.188c0-.643.524-1.166 1.167-1.166h4.816c.644 0 1.167.523 1.167 1.166v16.73c0 .644-.523 1.167-1.167 1.167Z" fill="url(#m)"/><path d="M74.591 58.086h-6.133v-13.18c0-.561.456-1.017 1.017-1.017h5.113c.561 0 1.017.456 1.017 1.016v12.161a1.014 1.014 0 0 1-1.014 1.02Z" fill="url(#n)"/><path d="M70.444 58.085h-4.5a1.325 1.325 0 0 1-1.325-1.325v-6.876c0-.733.593-1.325 1.326-1.325h4.501c.733 0 1.326.593 1.326 1.325v6.876a1.329 1.329 0 0 1-1.328 1.325Z" fill="url(#o)"/><defs><linearGradient id="a" x1="49.603" y1="-12.894" x2="53.585" y2="132.877" gradientUnits="userSpaceOnUse"><stop stop-color="#00ABDE"/><stop offset="1" stop-color="#007ED8"/></linearGradient><linearGradient id="b" x1="2.807" y1="-19.726" x2="98.335" y2="121.155" gradientUnits="userSpaceOnUse"><stop stop-color="#007ED8"/><stop offset=".707" stop-color="#002D4C"/></linearGradient><linearGradient id="c" x1="36.233" y1="63.715" x2="80.755" y2="94.503" gradientUnits="userSpaceOnUse"><stop stop-color="#007ED8"/><stop offset=".707" stop-color="#002D4C"/></linearGradient><linearGradient id="d" x1="37.763" y1="61.503" x2="82.285" y2="92.292" gradientUnits="userSpaceOnUse"><stop stop-color="#007ED8"/><stop offset=".707" stop-color="#002D4C"/></linearGradient><linearGradient id="e" x1="39.169" y1="59.471" x2="83.69" y2="90.259" gradientUnits="userSpaceOnUse"><stop stop-color="#007ED8"/><stop offset=".707" stop-color="#002D4C"/></linearGradient><linearGradient id="f" x1="39.808" y1="56.179" x2="87.721" y2="89.313" gradientUnits="userSpaceOnUse"><stop stop-color="#007ED8"/><stop offset=".707" stop-color="#002D4C"/></linearGradient><linearGradient id="g" x1="40.074" y1="58.163" x2="84.595" y2="88.951" gradientUnits="userSpaceOnUse"><stop stop-color="#007ED8"/><stop offset=".707" stop-color="#002D4C"/></linearGradient><linearGradient id="h" x1="41.479" y1="56.13" x2="86.001" y2="86.919" gradientUnits="userSpaceOnUse"><stop stop-color="#007ED8"/><stop offset=".707" stop-color="#002D4C"/></linearGradient><linearGradient id="i" x1="43.117" y1="53.761" x2="87.639" y2="84.55" gradientUnits="userSpaceOnUse"><stop stop-color="#007ED8"/><stop offset=".707" stop-color="#002D4C"/></linearGradient><linearGradient id="j" x1="45.316" y1="50.58" x2="89.838" y2="81.369" gradientUnits="userSpaceOnUse"><stop stop-color="#007ED8"/><stop offset=".707" stop-color="#002D4C"/></linearGradient><linearGradient id="k" x1="57.907" y1="48.49" x2="89.749" y2="79.511" gradientUnits="userSpaceOnUse"><stop stop-color="#007ED8"/><stop offset=".707" stop-color="#002D4C"/></linearGradient><linearGradient id="l" x1="57.742" y1="48.242" x2="89.945" y2="79.788" gradientUnits="userSpaceOnUse"><stop stop-color="#007ED8"/><stop offset=".707" stop-color="#002D4C"/></linearGradient><linearGradient id="m" x1="75.978" y1="40.765" x2="76.13" y2="56.583" gradientUnits="userSpaceOnUse"><stop offset=".008" stop-color="#E0A310"/><stop offset="1" stop-color="#CA810E"/></linearGradient><linearGradient id="n" x1="71.842" y1="44.442" x2="72.298" y2="61.172" gradientUnits="userSpaceOnUse"><stop offset=".008" stop-color="#F2CC40"/><stop offset="1" stop-color="#E7B116"/></linearGradient><linearGradient id="o" x1="68.023" y1="49.292" x2="68.48" y2="60.091" gradientUnits="userSpaceOnUse"><stop stop-color="#F8E17B"/><stop offset=".53" stop-color="#F6D856"/><stop offset="1" stop-color="#F6D856"/></linearGradient></defs></svg>