<svg width="103" height="103" viewBox="0 0 103 103" fill="none" xmlns="http://www.w3.org/2000/svg">
<path d="M51.696 98.37C25.846 98.37 4.88605 77.42 4.88605 51.56C4.88605 25.7 25.846 4.75 51.696 4.75C77.546 4.75 98.506 25.71 98.506 51.56C98.506 77.41 77.546 98.37 51.696 98.37Z" fill="url(#paint0_linear_331_15028)"/>
<path fill-rule="evenodd" clip-rule="evenodd" d="M97.596 51.5599C97.596 76.9099 77.046 97.4599 51.696 97.4599C26.346 97.4599 5.79603 76.9099 5.79603 51.5599C5.79603 26.2099 26.346 5.65993 51.696 5.65993C77.046 5.65993 97.596 26.2099 97.596 51.5599ZM51.696 1.91992C79.116 1.91992 101.336 24.1399 101.336 51.5599C101.336 78.9799 79.106 101.2 51.696 101.2C24.276 101.2 2.05603 78.9699 2.05603 51.5599C2.05603 24.1399 24.276 1.91992 51.696 1.91992Z" fill="#F2F1F0"/>
<path fill-rule="evenodd" clip-rule="evenodd" d="M94.786 51.5595C94.786 75.3595 75.496 94.6495 51.696 94.6495C27.896 94.6495 8.60603 75.3595 8.60603 51.5595C8.60603 27.7595 27.896 8.4695 51.696 8.4695C75.496 8.4695 94.786 27.7595 94.786 51.5595ZM51.696 4.72949C77.556 4.72949 98.526 25.6995 98.526 51.5595C98.526 77.4195 77.556 98.3895 51.696 98.3895C25.836 98.3895 4.86603 77.4195 4.86603 51.5595C4.86603 25.6995 25.826 4.72949 51.696 4.72949Z" fill="url(#paint1_linear_331_15028)"/>
<path opacity="0.15" d="M88.1733 48.3662C88.1733 47.5862 87.5333 46.9462 86.7533 46.9462C86.2433 46.9462 83.0533 46.6662 81.3433 45.3362C81.3433 45.3362 81.3533 45.3162 81.3433 45.3362C80.6933 42.9762 79.7533 40.7762 78.5833 38.6962C78.2833 36.7162 80.3333 35.2762 81.2633 33.7362C81.4233 33.4662 81.5233 33.3162 81.5833 33.2062C81.7533 32.7062 81.6633 32.1262 81.2633 31.7262C81.2633 31.7262 79.6933 29.4762 78.0733 27.8762C76.4633 26.2762 74.0133 24.4862 74.0133 24.4862C73.4633 23.9362 72.5533 23.9362 72.0033 24.4862C71.6333 24.8462 69.2133 26.8462 67.0333 27.1562C67.0033 27.1562 67.0033 27.1562 67.0033 27.1562C64.9733 26.0062 62.6933 25.0562 60.4133 24.4162H60.3833C58.7733 23.2262 59.1933 20.7662 58.7733 19.0062C58.7733 18.2262 58.1333 17.5862 57.3533 17.5862C57.3533 17.5862 54.6533 17.1162 52.3733 17.1162C50.0933 17.1162 47.1133 17.5862 47.1133 17.5862C46.3333 17.5862 45.6933 18.2262 45.6933 19.0062C45.6933 19.5162 45.4133 22.7062 44.0833 24.4162C41.8233 25.0562 39.4533 26.0562 37.4433 27.1762C35.4633 27.4762 34.0233 25.4262 32.4833 24.4962C32.2133 24.3362 32.0633 24.2362 31.9533 24.1762C31.4533 24.0062 30.8733 24.0962 30.4733 24.4962C30.4733 24.4962 28.2233 26.0662 26.6233 27.6862C25.0233 29.3062 23.2333 31.7462 23.2333 31.7462C22.6833 32.2962 22.6833 33.2062 23.2333 33.7562C23.5933 34.1162 25.6433 36.5762 25.9133 38.7162V38.7362C24.7933 40.7462 23.8133 43.1062 23.1733 45.3662C23.1733 45.3662 23.2033 45.3262 23.1733 45.3662C21.7933 47.0462 19.5233 46.5562 17.7633 46.9762C16.9833 46.9762 16.3433 47.6162 16.3433 48.3962C16.3433 48.3962 15.8733 51.0962 15.8733 53.3762C15.8733 55.6562 16.3433 58.6362 16.3433 58.6362C16.3433 59.4162 16.9833 60.0562 17.7633 60.0562C18.2733 60.0562 21.4633 60.3362 23.1733 61.6662C23.2133 61.6462 23.1933 61.6962 23.1933 61.6962C23.8533 63.9662 24.7833 66.2362 25.9233 68.2462C25.9033 68.2762 25.9233 68.2462 25.9333 68.3162C26.1233 70.3862 24.1833 71.7362 23.2533 73.2762C23.0933 73.5462 22.9933 73.6962 22.9333 73.8062C22.7633 74.3062 22.8533 74.8862 23.2533 75.2862C23.2533 75.2862 24.8233 77.5362 26.4433 79.1362C28.0533 80.7462 30.5033 82.5262 30.5033 82.5262C31.0533 83.0762 31.9633 83.0762 32.5133 82.5262C32.8733 82.1662 35.3333 80.1162 37.4733 79.8462C37.4733 79.8462 37.4633 79.8562 37.5033 79.8662C39.5733 81.0162 41.7033 81.9262 44.0433 82.5562C44.0633 82.5662 44.1333 82.5862 44.1333 82.5862C45.7433 83.7762 45.3233 86.2362 45.7433 87.9962C45.8333 88.7862 46.2633 89.2862 47.1633 89.4162C47.1633 89.4162 49.8633 89.8862 52.1433 89.8862C54.4233 89.8862 57.4033 89.4262 57.4033 89.4262C58.1833 89.2862 58.8233 88.7862 58.8233 88.0062C58.8233 87.4962 59.1033 84.3062 60.4333 82.5962C60.4333 82.5962 60.4933 82.5462 60.5533 82.4962C62.9333 81.8262 64.7333 81.0962 66.8333 79.8862C66.9433 79.8462 66.8233 79.8562 67.0733 79.8162C69.0533 79.5162 70.4933 81.5662 72.0333 82.4962C72.3033 82.6562 72.4533 82.7562 72.5633 82.8162C73.0633 82.9862 73.6433 82.8962 74.0433 82.4962C74.0433 82.4962 76.2933 80.9262 77.8933 79.3062C79.5033 77.6962 81.2833 75.2462 81.2833 75.2462C81.8333 74.6962 81.8333 73.7862 81.2833 73.2362C80.9233 72.8762 78.8733 70.4162 78.6033 68.2762C78.5733 68.0562 78.5933 68.0262 78.6233 67.9662C79.8233 65.8562 80.5733 64.3062 81.2333 61.9162C81.2333 61.9162 81.2033 61.8362 81.3633 61.6362C82.5533 60.0262 85.0133 60.4462 86.7733 60.0262C87.5533 60.0262 88.1933 59.3862 88.1933 58.6062C88.1933 58.6062 88.6633 55.9062 88.6633 53.6262C88.6633 51.3462 88.1733 48.3662 88.1733 48.3662Z" fill="#1F1D20"/>
<path d="M88.1733 46.4365C88.1733 45.6565 87.5333 45.0165 86.7533 45.0165C86.2433 45.0165 83.0533 44.7365 81.3433 43.4065C81.3433 43.4065 81.3533 43.3865 81.3433 43.4065C80.6933 41.0465 79.7533 38.8465 78.5833 36.7665C78.2833 34.7865 80.3333 33.3465 81.2633 31.8065C81.4233 31.5365 81.5233 31.3865 81.5833 31.2765C81.7533 30.7765 81.6633 30.1965 81.2633 29.7965C81.2633 29.7965 79.6933 27.5465 78.0733 25.9465C76.4633 24.3465 74.0133 22.5565 74.0133 22.5565C73.4633 22.0065 72.5533 22.0065 72.0033 22.5565C71.6333 22.9165 69.2133 24.9165 67.0333 25.2265C67.0033 25.2265 67.0033 25.2265 67.0033 25.2265C64.9733 24.0765 62.6933 23.1265 60.4133 22.4865H60.3833C58.7733 21.2965 59.1933 18.8365 58.7733 17.0765C58.7733 16.2965 58.1333 15.6565 57.3533 15.6565C57.3533 15.6565 54.6533 15.1865 52.3733 15.1865C50.0933 15.1865 47.1133 15.6565 47.1133 15.6565C46.3333 15.6565 45.6933 16.2965 45.6933 17.0765C45.6933 17.5865 45.4133 20.7765 44.0833 22.4865C41.8233 23.1265 39.4533 24.1265 37.4433 25.2465C35.4633 25.5465 34.0233 23.4965 32.4833 22.5665C32.2133 22.4065 32.0633 22.3065 31.9533 22.2465C31.4533 22.0765 30.8733 22.1665 30.4733 22.5665C30.4733 22.5665 28.2233 24.1365 26.6233 25.7565C25.0233 27.3665 23.2333 29.8165 23.2333 29.8165C22.6833 30.3665 22.6833 31.2765 23.2333 31.8265C23.5933 32.1865 25.6433 34.6465 25.9133 36.7865V36.8065C24.7933 38.8165 23.8133 41.1765 23.1733 43.4365C23.1733 43.4365 23.2033 43.3965 23.1733 43.4365C21.7933 45.1165 19.5233 44.6265 17.7633 45.0465C16.9833 45.0465 16.3433 45.6865 16.3433 46.4665C16.3433 46.4665 15.8733 49.1665 15.8733 51.4465C15.8733 53.7265 16.3433 56.7065 16.3433 56.7065C16.3433 57.4865 16.9833 58.1265 17.7633 58.1265C18.2733 58.1265 21.4633 58.4065 23.1733 59.7365C23.2133 59.7165 23.1933 59.7665 23.1933 59.7665C23.8533 62.0365 24.7833 64.3065 25.9233 66.3165C25.9033 66.3465 25.9233 66.3165 25.9333 66.3865C26.1233 68.4565 24.1833 69.8065 23.2533 71.3465C23.0933 71.6165 22.9933 71.7665 22.9333 71.8765C22.7633 72.3765 22.8533 72.9565 23.2533 73.3565C23.2533 73.3565 24.8233 75.6065 26.4433 77.2065C28.0533 78.8165 30.5033 80.5965 30.5033 80.5965C31.0533 81.1465 31.9633 81.1465 32.5133 80.5965C32.8733 80.2365 35.3333 78.1865 37.4733 77.9165C37.4733 77.9165 37.4633 77.9265 37.5033 77.9365C39.5733 79.0865 41.7033 79.9965 44.0433 80.6265C44.0633 80.6365 44.1333 80.6565 44.1333 80.6565C45.7433 81.8465 45.3233 84.3065 45.7433 86.0665C45.8333 86.8565 46.2633 87.3565 47.1633 87.4865C47.1633 87.4865 49.8633 87.9565 52.1433 87.9565C54.4233 87.9565 57.4033 87.4965 57.4033 87.4965C58.1833 87.3565 58.8233 86.8565 58.8233 86.0765C58.8233 85.5665 59.1033 82.3765 60.4333 80.6665C60.4333 80.6665 60.4933 80.6165 60.5533 80.5665C62.9333 79.8965 64.7333 79.1665 66.8333 77.9565C66.9433 77.9165 66.8233 77.9265 67.0733 77.8865C69.0533 77.5865 70.4933 79.6365 72.0333 80.5665C72.3033 80.7265 72.4533 80.8265 72.5633 80.8865C73.0633 81.0565 73.6433 80.9665 74.0433 80.5665C74.0433 80.5665 76.2933 78.9965 77.8933 77.3765C79.5033 75.7665 81.2833 73.3165 81.2833 73.3165C81.8333 72.7665 81.8333 71.8565 81.2833 71.3065C80.9233 70.9465 78.8733 68.4865 78.6033 66.3465C78.5733 66.1265 78.5933 66.0965 78.6233 66.0365C79.8233 63.9265 80.5733 62.3765 81.2333 59.9865C81.2333 59.9865 81.2033 59.9065 81.3633 59.7065C82.5533 58.0965 85.0133 58.5165 86.7733 58.0965C87.5533 58.0965 88.1933 57.4565 88.1933 56.6765C88.1933 56.6765 88.6633 53.9765 88.6633 51.6965C88.6633 49.4165 88.1733 46.4365 88.1733 46.4365Z" fill="#F2F1F0"/>
<path d="M71.7406 43.9621L73.1277 42.5514V38.8623H68.7776V42.5278L70.1647 43.9385H70.1883V51.5645H68.8012V60.3887C68.8012 61.5928 69.7751 62.5667 70.9792 62.5667C72.1833 62.5667 73.1572 61.5928 73.1572 60.3887V51.5704H71.7288L71.7406 43.9621Z" fill="#185A97"/>
<path d="M63.306 57.2482V45.5613C64.6753 45.0419 65.6492 43.7374 65.6492 42.2028C65.6492 40.7331 64.758 39.4463 63.4712 38.9092V42.6396H60.6321V38.9092C59.3454 39.4463 58.4541 40.7094 58.4541 42.2028C58.4541 43.7374 59.428 45.0596 60.7974 45.5613V57.2246C59.8884 57.6791 59.245 58.6353 59.245 59.7332C59.245 61.2856 60.5082 62.531 62.0428 62.531C63.5952 62.531 64.8406 61.2678 64.8406 59.7332C64.8583 58.6353 64.2386 57.7027 63.306 57.2482ZM62.0664 60.7071C61.5293 60.7071 61.1161 60.2703 61.1161 59.7568C61.1161 59.2197 61.5529 58.8065 62.0664 58.8065C62.5859 58.8065 63.0167 59.2433 63.0167 59.7568C63.0167 60.2703 62.5799 60.7071 62.0664 60.7071Z" fill="#0078D4"/>
<path opacity="0.2" d="M76.3233 83.1393C81.6533 83.0293 85.8733 78.6293 85.7633 73.3093C85.6533 67.9893 81.2533 63.7593 75.9333 63.8693C70.6033 63.9793 66.3833 68.3793 66.4933 73.6993C66.6033 79.0193 71.0033 83.2493 76.3233 83.1393Z" fill="#1F1D21"/>
<path d="M76.2933 81.5885C81.6233 81.4785 85.8433 77.0785 85.7333 71.7585C85.6233 66.4385 81.2233 62.2085 75.9033 62.3185C70.5733 62.4285 66.3533 66.8285 66.4633 72.1485C66.5733 77.4685 70.9733 81.6985 76.2933 81.5885Z" fill="#002D4C"/>
<path d="M81.2433 66.9395L73.4533 75.0795L71.0233 72.7394L69.4733 74.3694L73.5233 78.2694L82.8733 68.5095L81.2433 66.9395Z" fill="#FAF9F8"/>
<path opacity="0.4" d="M55.3457 61.0797L41.8908 68.879L28.489 60.9888L41.9409 53.229L55.3457 61.0797Z" fill="#1F1D20"/>
<path d="M55.4035 43.9672L55.3509 59.5266L41.9271 67.326L41.9799 51.7299L55.4035 43.9672Z" fill="#32B0E7"/>
<path d="M55.4036 43.9674L41.9799 51.7328L28.5468 43.8764L41.9988 36.1167L55.4036 43.9674Z" fill="#45CAF2"/>
<path d="M41.9799 51.7305L41.9271 67.3267L28.4942 59.4335L28.5468 43.877L41.9799 51.7305Z" fill="#0078D4"/>
<path d="M28.4942 59.4314L41.9787 51.7291L41.9259 67.3238L28.4942 59.4314Z" fill="#185A97"/>
<path d="M55.3496 59.5265L41.9799 51.7305L41.9271 67.3252L55.3496 59.5265Z" fill="#156AB3"/>
<defs>
<linearGradient id="paint0_linear_331_15028" x1="49.9221" y1="-13.2295" x2="53.9041" y2="132.541" gradientUnits="userSpaceOnUse">
<stop stop-color="#00ABDE"/>
<stop offset="1" stop-color="#007ED8"/>
</linearGradient>
<linearGradient id="paint1_linear_331_15028" x1="3.12643" y1="-20.0631" x2="98.654" y2="120.818" gradientUnits="userSpaceOnUse">
<stop stop-color="#007ED8"/>
<stop offset="0.7065" stop-color="#002D4C"/>
</linearGradient>
</defs>
</svg>
