<svg width="103" height="103" fill="none" xmlns="http://www.w3.org/2000/svg"><path d="M51.391 98.786c-25.85 0-46.81-20.95-46.81-46.81 0-25.86 20.96-46.81 46.81-46.81s46.81 20.96 46.81 46.81-20.96 46.81-46.81 46.81Z" fill="url(#a)"/><path fill-rule="evenodd" clip-rule="evenodd" d="M97.291 51.976c0 25.35-20.55 45.9-45.9 45.9-25.35 0-45.9-20.55-45.9-45.9 0-25.35 20.55-45.9 45.9-45.9 25.35 0 45.9 20.55 45.9 45.9Zm-45.9-49.64c27.42 0 49.64 22.22 49.64 49.64s-22.23 49.64-49.64 49.64c-27.42 0-49.64-22.23-49.64-49.64 0-27.42 22.22-49.64 49.64-49.64Z" fill="#F2F1F0"/><path fill-rule="evenodd" clip-rule="evenodd" d="M94.481 51.977c0 23.8-19.29 43.09-43.09 43.09-23.8 0-43.09-19.29-43.09-43.09 0-23.8 19.29-43.09 43.09-43.09 23.8 0 43.09 19.29 43.09 43.09Zm-43.09-46.83c25.86 0 46.83 20.97 46.83 46.83s-20.97 46.83-46.83 46.83-46.83-20.97-46.83-46.83 20.96-46.83 46.83-46.83Z" fill="url(#b)"/><path opacity=".15" d="m84.181 81.046-9.11-9.05c3.84-5 6.12-11.25 6.12-18.03 0-16.38-13.29-29.64-29.65-29.64s-29.65 13.26-29.65 29.64c0 16.38 13.26 29.64 29.64 29.64 6.57 0 12.62-2.13 17.56-5.75l9.16 9.11s2.32.91 4.75-1.67c2.43-2.57 1.18-4.25 1.18-4.25Zm-57.87-26.97c0-13.88 11.26-25.14 25.14-25.14s25.14 11.26 25.14 25.14-11.29 25.14-25.17 25.14c-13.88 0-25.11-11.26-25.11-25.14Z" fill="#1F1D20"/><path d="M51.251 79.417c15.133 0 27.4-12.267 27.4-27.4 0-15.132-12.267-27.4-27.4-27.4s-27.4 12.268-27.4 27.4c0 15.133 12.267 27.4 27.4 27.4Z" fill="#fff"/><path d="m86.101 81.058-11.04-11.04c3.84-5 6.12-11.25 6.12-18.03 0-16.38-13.29-29.64-29.65-29.64s-29.64 13.26-29.64 29.64c0 16.38 13.26 29.64 29.64 29.64 6.57 0 12.62-2.13 17.56-5.75l11.07 11.1s1.12.01 3.56-2.56c2.43-2.58 2.38-3.36 2.38-3.36Zm-59.79-28.97c0-13.88 11.26-25.14 25.14-25.14s25.14 11.26 25.14 25.14-11.29 25.14-25.17 25.14c-13.88 0-25.11-11.26-25.11-25.14Z" fill="url(#c)"/><path d="M41.939 61.496h-4.347v5.677h4.338v-5.677h.009Z" fill="#45CAF2"/><path d="M48.42 57.725h-4.405v9.447h4.423v-9.447h-.017Z" fill="#50E6FF"/><path d="M56.275 51.6h-5.677v15.548h5.677V51.6Z" fill="#32B0E7"/><path d="M65.172 45.244h-6.524v21.903h6.524V45.244Z" fill="#185A97"/><path d="m40.151 56.156-.788-.373 5.974-10.828 7.964.788 8.261-6.524.644.584-8.608 6.906-7.779-.737-5.668 10.184Z" fill="#16B2E6"/><path d="M38.872 58.03a1.959 1.959 0 0 0 2.398-1.381 1.959 1.959 0 0 0-1.382-2.398 1.959 1.959 0 0 0-2.398 1.38 1.955 1.955 0 0 0 1.382 2.399ZM45.192 47.6a1.959 1.959 0 0 0 2.398-1.381 1.959 1.959 0 0 0-1.38-2.398 1.959 1.959 0 0 0-2.399 1.381 1.959 1.959 0 0 0 1.381 2.398ZM52.759 48.057a1.959 1.959 0 0 0 2.398-1.381 1.959 1.959 0 0 0-1.381-2.398 1.959 1.959 0 0 0-2.398 1.381 1.963 1.963 0 0 0 1.38 2.398ZM60.74 41.32a1.964 1.964 0 0 0 2.924-1.685 1.961 1.961 0 0 0-.992-1.729 1.964 1.964 0 0 0-2.923 1.686c-.017.703.373 1.39.991 1.729Z" fill="#059"/><defs><linearGradient id="a" x1="49.621" y1="-12.813" x2="53.603" y2="132.957" gradientUnits="userSpaceOnUse"><stop stop-color="#00ABDE"/><stop offset="1" stop-color="#007ED8"/></linearGradient><linearGradient id="b" x1="2.824" y1="-19.648" x2="98.352" y2="121.233" gradientUnits="userSpaceOnUse"><stop stop-color="#007ED8"/><stop offset=".707" stop-color="#002D4C"/></linearGradient><linearGradient id="c" x1="29.478" y1="26.943" x2="75.26" y2="78.935" gradientUnits="userSpaceOnUse"><stop stop-color="#007ED8"/><stop offset=".707" stop-color="#002D4C"/></linearGradient></defs></svg>