<svg width="103" height="103" viewBox="0 0 103 103" fill="none" xmlns="http://www.w3.org/2000/svg">
<path d="M51.3769 98.7059C25.5269 98.7059 4.56689 77.7559 4.56689 51.8959C4.56689 26.0359 25.5269 5.08594 51.3769 5.08594C77.2269 5.08594 98.1869 26.0459 98.1869 51.8959C98.1869 77.7459 77.2269 98.7059 51.3769 98.7059Z" fill="url(#paint0_linear_1284:2976)"/>
<path fill-rule="evenodd" clip-rule="evenodd" d="M97.2771 51.8959C97.2771 77.2459 76.7271 97.7959 51.3771 97.7959C26.0271 97.7959 5.47706 77.2459 5.47706 51.8959C5.47706 26.5459 26.0271 5.99586 51.3771 5.99586C76.7271 5.99586 97.2771 26.5459 97.2771 51.8959ZM51.3771 2.25586C78.7971 2.25586 101.017 24.4759 101.017 51.8959C101.017 79.3159 78.7871 101.536 51.3771 101.536C23.9571 101.536 1.73706 79.3059 1.73706 51.8959C1.73706 24.4759 23.9571 2.25586 51.3771 2.25586Z" fill="#F2F1F0"/>
<path fill-rule="evenodd" clip-rule="evenodd" d="M94.4669 51.8964C94.4669 75.6964 75.1769 94.9864 51.3769 94.9864C27.5769 94.9864 8.28687 75.6964 8.28687 51.8964C8.28687 28.0964 27.5769 8.80641 51.3769 8.80641C75.1769 8.80641 94.4669 28.0964 94.4669 51.8964ZM51.3769 5.06641C77.2369 5.06641 98.2069 26.0364 98.2069 51.8964C98.2069 77.7564 77.2369 98.7264 51.3769 98.7264C25.5169 98.7264 4.54688 77.7564 4.54688 51.8964C4.54687 26.0364 25.5069 5.06641 51.3769 5.06641Z" fill="url(#paint1_linear_1284:2976)"/>
<path opacity="0.15" d="M23.3993 79.8289H80.5193C82.1193 79.8289 83.4193 78.5289 83.4193 76.9289V31.3789H20.4993V76.9289C20.4993 78.5289 21.7993 79.8289 23.3993 79.8289Z" fill="#1F1D20"/>
<path d="M21.6993 77.1785H82.2193C82.8793 77.1785 83.4193 76.6385 83.4193 75.9785V28.7285H20.4993V75.9785C20.4993 76.6385 21.0393 77.1785 21.6993 77.1785Z" fill="#EBEBEB"/>
<path d="M20.4993 33.9584H83.4193V28.3184C83.4193 27.8084 83.0093 27.3984 82.4993 27.3984H21.4193C20.9093 27.3984 20.4993 27.8084 20.4993 28.3184V33.9584Z" fill="#092E4C"/>
<path d="M25.3393 32.4088C26.2193 32.4088 26.9393 31.6988 26.9393 30.8088C26.9393 29.9188 26.2093 29.2188 25.3393 29.2188C24.4593 29.2188 23.7393 29.9288 23.7393 30.8188C23.7393 31.7088 24.4393 32.4088 25.3393 32.4088Z" fill="#32B0E7"/>
<path fill-rule="evenodd" clip-rule="evenodd" d="M56.8295 44.5305L51.9916 49.0721L47.1866 48.9939L41.7625 54.1108L37.3283 49.1425L32.2756 49.2179L32.2637 48.418L37.6818 48.3371L41.8118 52.9645L46.8742 48.1887L51.6805 48.2669L56.282 43.9473L56.8295 44.5305Z" fill="#243A5E"/>
<path fill-rule="evenodd" clip-rule="evenodd" d="M56.6198 48.3332C56.7661 48.396 56.8612 48.5397 56.862 48.6989L56.8854 53.6296C56.8865 53.8505 56.7083 54.0304 56.4874 54.0315C56.2664 54.0325 56.0865 53.8543 56.0855 53.6334L56.0664 49.6223L51.571 53.8524C51.493 53.9259 51.3887 53.9649 51.2816 53.9608L46.9669 53.7955L42.1606 58.4418L37.4034 63.1443C37.3296 63.2173 37.2303 63.2587 37.1265 63.2598L32.0317 63.3145C31.8108 63.3169 31.6298 63.1398 31.6275 62.9189C31.6251 62.698 31.8022 62.517 32.0231 62.5146L36.9561 62.4616L41.6029 57.8682L46.5336 53.1016C46.612 53.0258 46.718 52.9853 46.827 52.9895L51.1448 53.155L56.1879 48.4095C56.3038 48.3004 56.4735 48.2704 56.6198 48.3332Z" fill="#243A5E"/>
<path d="M42.9282 67.6037C42.9282 67.0099 42.4515 66.5332 41.8576 66.5332C41.2638 66.5332 40.7871 67.0099 40.7871 67.6037C40.7871 68.1976 41.2638 68.6743 41.8576 68.6743C42.4437 68.6743 42.9282 68.1898 42.9282 67.6037Z" fill="url(#paint2_linear_1284:2976)"/>
<path d="M47.6555 67.6037C47.6555 67.0099 47.1788 66.5332 46.5849 66.5332C45.9911 66.5332 45.5144 67.0099 45.5144 67.6037C45.5144 68.1976 45.9911 68.6743 46.5849 68.6743C47.1788 68.6743 47.6555 68.1898 47.6555 67.6037Z" fill="url(#paint3_linear_1284:2976)"/>
<path d="M33.1528 67.6037C33.1528 67.0099 32.6761 66.5332 32.0822 66.5332C31.4884 66.5332 31.0117 67.0099 31.0117 67.6037C31.0117 68.1976 31.4884 68.6743 32.0822 68.6743C32.6683 68.6743 33.1528 68.1898 33.1528 67.6037Z" fill="#3BCAF4"/>
<path d="M38.2162 67.6037C38.2162 67.0099 37.7396 66.5332 37.1457 66.5332C36.5519 66.5332 36.0752 67.0099 36.0752 67.6037C36.0752 68.1976 36.5519 68.6743 37.1457 68.6743C37.7396 68.6743 38.2162 68.1898 38.2162 67.6037Z" fill="#3BCAF4"/>
<path d="M52.0002 67.6037C52.0002 67.0099 51.5235 66.5332 50.9297 66.5332C50.3358 66.5332 49.8591 67.0099 49.8591 67.6037C49.8591 68.1976 50.3358 68.6743 50.9297 68.6743C51.5235 68.6743 52.0002 68.1898 52.0002 67.6037Z" fill="url(#paint4_linear_1284:2976)"/>
<path d="M55.2585 67.6037C55.2585 68.1976 55.7352 68.6743 56.3291 68.6743C56.9229 68.6743 57.3996 68.1976 57.3996 67.6037C57.3996 67.0099 56.9229 66.5332 56.3291 66.5332C55.7352 66.5332 55.2585 67.0099 55.2585 67.6037Z" fill="url(#paint5_linear_1284:2976)"/>
<path d="M42.9282 62.8928C42.9282 62.2989 42.4515 61.8223 41.8576 61.8223C41.2638 61.8223 40.7871 62.2989 40.7871 62.8928C40.7871 63.4867 41.2638 63.9633 41.8576 63.9633C42.4437 63.9633 42.9282 63.4867 42.9282 62.8928Z" fill="#3BCAF4"/>
<path d="M47.9838 62.8928C47.9838 62.2989 47.5072 61.8223 46.9133 61.8223C46.3194 61.8223 45.8428 62.2989 45.8428 62.8928C45.8428 63.4867 46.3194 63.9633 46.9133 63.9633C47.5072 63.9633 47.9838 63.4867 47.9838 62.8928Z" fill="url(#paint6_linear_1284:2976)"/>
<path d="M33.1528 62.8928C33.1528 62.2989 32.6761 61.8223 32.0822 61.8223C31.4884 61.8223 31.0117 62.2989 31.0117 62.8928C31.0117 63.4867 31.4884 63.9633 32.0822 63.9633C32.6683 63.9633 33.1528 63.4867 33.1528 62.8928Z" fill="#3BCAF4"/>
<path d="M38.2162 62.8928C38.2162 62.2989 37.7396 61.8223 37.1457 61.8223C36.5519 61.8223 36.0752 62.2989 36.0752 62.8928C36.0752 63.4867 36.5519 63.9633 37.1457 63.9633C37.7396 63.9633 38.2162 63.4867 38.2162 62.8928Z" fill="#3BCAF4"/>
<path d="M52.3283 62.8928C52.3283 62.2989 51.8517 61.8223 51.2578 61.8223C50.6639 61.8223 50.1873 62.2989 50.1873 62.8928C50.1873 63.4867 50.6639 63.9633 51.2578 63.9633C51.8517 63.9633 52.3283 63.4867 52.3283 62.8928Z" fill="url(#paint7_linear_1284:2976)"/>
<path d="M57.3918 62.8928C57.3918 62.2989 56.9151 61.8223 56.3213 61.8223C55.7274 61.8223 55.2507 62.2989 55.2507 62.8928C55.2507 63.4867 55.7274 63.9633 56.3213 63.9633C56.9151 63.9633 57.3918 63.4867 57.3918 62.8928Z" fill="url(#paint8_linear_1284:2976)"/>
<path d="M42.9282 58.1955C42.9282 57.6017 42.4515 57.125 41.8576 57.125C41.2638 57.125 40.7871 57.6017 40.7871 58.1955C40.7871 58.7894 41.2638 59.2661 41.8576 59.2661C42.4437 59.2582 42.9282 58.7816 42.9282 58.1955Z" fill="#3BCAF4"/>
<path d="M46.9133 59.2661C47.5072 59.2661 47.9838 58.7894 47.9838 58.1955C47.9838 57.6017 47.5072 57.125 46.9133 57.125C46.3194 57.125 45.8428 57.6017 45.8428 58.1955C45.8428 58.7894 46.3194 59.2661 46.9133 59.2661Z" fill="#3BCAF4"/>
<path d="M33.1528 58.1955C33.1528 57.6017 32.6761 57.125 32.0822 57.125C31.4884 57.125 31.0117 57.6017 31.0117 58.1955C31.0117 58.7894 31.4884 59.2661 32.0822 59.2661C32.6683 59.2582 33.1528 58.7816 33.1528 58.1955Z" fill="#50E6FF"/>
<path d="M37.1457 59.2661C37.7396 59.2661 38.2162 58.7894 38.2162 58.1955C38.2162 57.6017 37.7396 57.125 37.1457 57.125C36.5519 57.125 36.0752 57.6017 36.0752 58.1955C36.0752 58.7894 36.5519 59.2661 37.1457 59.2661Z" fill="#3BCAF4"/>
<path d="M52.3283 58.1955C52.3283 57.6017 51.8517 57.125 51.2578 57.125C50.6639 57.125 50.1873 57.6017 50.1873 58.1955C50.1873 58.7894 50.6639 59.2661 51.2578 59.2661C51.8517 59.2661 52.3283 58.7816 52.3283 58.1955Z" fill="#3BCAF4"/>
<path d="M56.3291 59.2661C56.9229 59.2661 57.3996 58.7894 57.3996 58.1955C57.3996 57.6017 56.9229 57.125 56.3291 57.125C55.7352 57.125 55.2585 57.6017 55.2585 58.1955C55.2585 58.7894 55.7352 59.2661 56.3291 59.2661Z" fill="url(#paint9_linear_1284:2976)"/>
<path d="M42.9282 53.4846C42.9282 52.8907 42.4515 52.4141 41.8576 52.4141C41.2638 52.4141 40.7871 52.8907 40.7871 53.4846C40.7871 54.0785 41.2638 54.5551 41.8576 54.5551C42.4437 54.5551 42.9282 54.0706 42.9282 53.4846Z" fill="#50E6FF"/>
<path d="M47.9838 53.4846C47.9838 52.8907 47.5072 52.4141 46.9133 52.4141C46.3194 52.4141 45.8428 52.8907 45.8428 53.4846C45.8428 54.0785 46.3194 54.5551 46.9133 54.5551C47.5072 54.5551 47.9838 54.0706 47.9838 53.4846Z" fill="#50E6FF"/>
<path d="M33.1528 53.4846C33.1528 52.8907 32.6761 52.4141 32.0822 52.4141C31.4884 52.4141 31.0117 52.8907 31.0117 53.4846C31.0117 54.0785 31.4884 54.5551 32.0822 54.5551C32.6683 54.5551 33.1528 54.0706 33.1528 53.4846Z" fill="#50E6FF"/>
<path d="M38.2162 53.4846C38.2162 52.8907 37.7396 52.4141 37.1457 52.4141C36.5519 52.4141 36.0752 52.8907 36.0752 53.4846C36.0752 54.0785 36.5519 54.5551 37.1457 54.5551C37.7396 54.5551 38.2162 54.0706 38.2162 53.4846Z" fill="#50E6FF"/>
<path d="M52.3283 53.4846C52.3283 52.8907 51.8517 52.4141 51.2578 52.4141C50.6639 52.4141 50.1873 52.8907 50.1873 53.4846C50.1873 54.0785 50.6639 54.5551 51.2578 54.5551C51.8517 54.5551 52.3283 54.0706 52.3283 53.4846Z" fill="#50E6FF"/>
<path d="M57.3918 53.4846C57.3918 52.8907 56.9151 52.4141 56.3213 52.4141C55.7274 52.4141 55.2507 52.8907 55.2507 53.4846C55.2507 54.0785 55.7274 54.5551 56.3213 54.5551C56.9151 54.5551 57.3918 54.0706 57.3918 53.4846Z" fill="#50E6FF"/>
<path d="M42.9282 48.7795C42.9282 48.1856 42.4515 47.709 41.8576 47.709C41.2638 47.709 40.7871 48.1856 40.7871 48.7795C40.7871 49.3734 41.2638 49.85 41.8576 49.85C42.4437 49.85 42.9282 49.3734 42.9282 48.7795Z" fill="#50E6FF"/>
<path d="M47.9838 48.7795C47.9838 48.1856 47.5072 47.709 46.9133 47.709C46.3194 47.709 45.8428 48.1856 45.8428 48.7795C45.8428 49.3734 46.3194 49.85 46.9133 49.85C47.5072 49.85 47.9838 49.3734 47.9838 48.7795Z" fill="#50E6FF"/>
<path d="M33.1528 48.7795C33.1528 48.1856 32.6761 47.709 32.0822 47.709C31.4884 47.709 31.0117 48.1856 31.0117 48.7795C31.0117 49.3734 31.4884 49.85 32.0822 49.85C32.6683 49.85 33.1528 49.3734 33.1528 48.7795Z" fill="#9CEBFF"/>
<path d="M38.2162 48.7795C38.2162 48.1856 37.7396 47.709 37.1457 47.709C36.5519 47.709 36.0752 48.1856 36.0752 48.7795C36.0752 49.3734 36.5519 49.85 37.1457 49.85C37.7396 49.85 38.2162 49.3734 38.2162 48.7795Z" fill="#9CEBFF"/>
<path d="M52.3283 48.7795C52.3283 48.1856 51.8517 47.709 51.2578 47.709C50.6639 47.709 50.1873 48.1856 50.1873 48.7795C50.1873 49.3734 50.6639 49.85 51.2578 49.85C51.8517 49.85 52.3283 49.3734 52.3283 48.7795Z" fill="#50E6FF"/>
<path d="M57.3918 48.7795C57.3918 48.1856 56.9151 47.709 56.3213 47.709C55.7274 47.709 55.2507 48.1856 55.2507 48.7795C55.2507 49.3734 55.7274 49.85 56.3213 49.85C56.9151 49.85 57.3918 49.3734 57.3918 48.7795Z" fill="#50E6FF"/>
<path d="M42.9282 44.0842C42.9282 43.4903 42.4515 43.0137 41.8576 43.0137C41.2638 43.0137 40.7871 43.4903 40.7871 44.0842C40.7871 44.6781 41.2638 45.1547 41.8576 45.1547C42.4437 45.1547 42.9282 44.6703 42.9282 44.0842Z" fill="#9CEBFF"/>
<path d="M47.9838 44.0842C47.9838 43.4903 47.5072 43.0137 46.9133 43.0137C46.3194 43.0137 45.8428 43.4903 45.8428 44.0842C45.8428 44.6781 46.3194 45.1547 46.9133 45.1547C47.5072 45.1547 47.9838 44.6703 47.9838 44.0842Z" fill="#9CEBFF"/>
<path d="M33.1528 44.0842C33.1528 43.4903 32.6761 43.0137 32.0822 43.0137C31.4884 43.0137 31.0117 43.4903 31.0117 44.0842C31.0117 44.6781 31.4884 45.1547 32.0822 45.1547C32.6683 45.1547 33.1528 44.6703 33.1528 44.0842Z" fill="#9CEBFF"/>
<path d="M38.2162 44.0842C38.2162 43.4903 37.7396 43.0137 37.1457 43.0137C36.5519 43.0137 36.0752 43.4903 36.0752 44.0842C36.0752 44.6781 36.5519 45.1547 37.1457 45.1547C37.7396 45.1547 38.2162 44.6703 38.2162 44.0842Z" fill="#9CEBFF"/>
<path d="M52.3283 44.0842C52.3283 43.4903 51.8517 43.0137 51.2578 43.0137C50.6639 43.0137 50.1873 43.4903 50.1873 44.0842C50.1873 44.6781 50.6639 45.1547 51.2578 45.1547C51.8517 45.1547 52.3283 44.6703 52.3283 44.0842Z" fill="#9CEBFF"/>
<path d="M57.3918 44.0842C57.3918 43.4903 56.9151 43.0137 56.3213 43.0137C55.7274 43.0137 55.2507 43.4903 55.2507 44.0842C55.2507 44.6781 55.7274 45.1547 56.3213 45.1547C56.9151 45.1547 57.3918 44.6703 57.3918 44.0842Z" fill="#50E6FF"/>
<path fill-rule="evenodd" clip-rule="evenodd" d="M55.9167 39.2152C55.9167 38.9529 56.1294 38.7402 56.3917 38.7402H62.0413C62.3037 38.7402 62.5163 38.9529 62.5163 39.2152V72.3625C62.5163 72.6248 62.3037 72.8375 62.0413 72.8375H56.3917C56.1294 72.8375 55.9167 72.6248 55.9167 72.3625C55.9167 72.1001 56.1294 71.8875 56.3917 71.8875H61.5663V39.6902H56.3917C56.1294 39.6902 55.9167 39.4776 55.9167 39.2152Z" fill="#0078D4"/>
<path fill-rule="evenodd" clip-rule="evenodd" d="M26.8093 39.2152C26.8093 38.9529 27.022 38.7402 27.2843 38.7402H32.9339C33.1962 38.7402 33.4089 38.9529 33.4089 39.2152C33.4089 39.4776 33.1962 39.6902 32.9339 39.6902H27.7593V71.8875H32.9339C33.1962 71.8875 33.4089 72.1001 33.4089 72.3625C33.4089 72.6248 33.1962 72.8375 32.9339 72.8375H27.2843C27.022 72.8375 26.8093 72.6248 26.8093 72.3625V39.2152Z" fill="#0078D4"/>
<path d="M59.3369 57.6816C59.4099 57.789 76.1378 74.6973 76.1378 74.6973L68.3109 74.8391L71.421 82.6316L68.1304 84.4531L65.162 77.4122L58.8386 82.3825L58.3704 57.5742L59.3369 57.6816Z" fill="white"/>
<path d="M77.332 74.9406L58.6195 56.2323C58.4906 56.0992 58.2629 56.1937 58.2629 56.3784L58.2801 83.5365C58.2801 83.8286 58.6324 83.9703 58.8386 83.7641L64.6465 77.909L67.5848 84.9756C67.6579 85.156 67.8684 85.2333 68.0402 85.1474L72.0525 83.1412C72.2114 83.0639 72.2801 82.8749 72.2114 82.716L69.2044 75.499H77.1043C77.3922 75.499 77.5382 75.1468 77.332 74.9406ZM70.579 82.3981L68.3796 83.4892L65.3124 75.8685C65.2479 75.7095 65.046 75.6666 64.9214 75.7868L59.6591 81.0191L59.6247 59.0031L74.6557 74.1759L67.5548 74.2618C67.3872 74.2618 67.2712 74.4337 67.3357 74.5926L70.579 82.3981Z" fill="url(#paint10_linear_1284:2976)"/>
<path d="M67.8898 85.3456C67.8297 85.3456 67.7739 85.337 67.718 85.3155C67.5891 85.2683 67.486 85.1695 67.4345 85.0406L64.5907 78.1974L58.9546 83.8807C58.8128 84.0225 58.6109 84.0655 58.4219 83.9881C58.2372 83.9108 58.1212 83.739 58.1212 83.5371L58.104 56.379C58.104 56.2287 58.1942 56.0955 58.3317 56.0353C58.4691 55.9795 58.6281 56.0096 58.7355 56.117L77.448 74.8295C77.5898 74.9712 77.6284 75.1731 77.5554 75.3622C77.4824 75.5512 77.3062 75.6629 77.1043 75.6629H69.4449L72.3618 82.6607C72.4606 82.9013 72.3575 83.1762 72.1255 83.2922L68.1132 85.2984C68.0402 85.3284 67.9672 85.3456 67.8898 85.3456ZM64.7024 77.626L67.7309 84.916C67.7481 84.959 67.7867 84.9934 67.8297 85.0105C67.877 85.0277 67.9242 85.0234 67.9672 85.0019L71.9794 82.9958C72.0611 82.9571 72.0954 82.8583 72.0611 82.7767L68.9595 75.3364H77.1C77.2031 75.3364 77.2418 75.2591 77.2504 75.2333C77.259 75.2075 77.2848 75.1259 77.216 75.0529L58.5078 56.3446C58.4906 56.3275 58.4691 56.3317 58.4563 56.336C58.4434 56.3403 58.4262 56.3532 58.4262 56.379L58.4434 83.5371C58.4434 83.6402 58.5207 83.6788 58.5465 83.6874C58.5722 83.696 58.6539 83.7261 58.7269 83.6531L64.7024 77.626Z" fill="url(#paint11_linear_1284:2976)"/>
<path d="M78.465 58.0854H72.4824V40.1885C72.4824 39.5446 73.0056 39.0215 73.6494 39.0215H78.465C79.1089 39.0215 79.632 39.5446 79.632 40.1885V56.9184C79.632 57.5622 79.1089 58.0854 78.465 58.0854Z" fill="url(#paint12_linear_1284:2976)"/>
<path d="M74.5911 58.086H68.4583V44.9054C68.4583 44.3447 68.9143 43.8887 69.475 43.8887H74.5884C75.1491 43.8887 75.6052 44.3447 75.6052 44.9054V57.0665C75.6079 57.6299 75.1518 58.086 74.5911 58.086Z" fill="url(#paint13_linear_1284:2976)"/>
<path d="M70.4437 58.0852H65.9447C65.2123 58.0852 64.6194 57.4923 64.6194 56.7599V49.8839C64.6194 49.1515 65.2123 48.5586 65.9447 48.5586H70.4464C71.1788 48.5586 71.7717 49.1515 71.7717 49.8839V56.7599C71.769 57.4923 71.1761 58.0852 70.4437 58.0852Z" fill="url(#paint14_linear_1284:2976)"/>
<defs>
<linearGradient id="paint0_linear_1284:2976" x1="49.603" y1="-12.8936" x2="53.585" y2="132.877" gradientUnits="userSpaceOnUse">
<stop stop-color="#00ABDE"/>
<stop offset="1" stop-color="#007ED8"/>
</linearGradient>
<linearGradient id="paint1_linear_1284:2976" x1="2.80728" y1="-19.7262" x2="98.3348" y2="121.155" gradientUnits="userSpaceOnUse">
<stop stop-color="#007ED8"/>
<stop offset="0.7065" stop-color="#002D4C"/>
</linearGradient>
<linearGradient id="paint2_linear_1284:2976" x1="36.2335" y1="63.7146" x2="80.7552" y2="94.5033" gradientUnits="userSpaceOnUse">
<stop stop-color="#007ED8"/>
<stop offset="0.7065" stop-color="#002D4C"/>
</linearGradient>
<linearGradient id="paint3_linear_1284:2976" x1="37.7629" y1="61.503" x2="82.2846" y2="92.2917" gradientUnits="userSpaceOnUse">
<stop stop-color="#007ED8"/>
<stop offset="0.7065" stop-color="#002D4C"/>
</linearGradient>
<linearGradient id="paint4_linear_1284:2976" x1="39.1686" y1="59.4705" x2="83.6902" y2="90.259" gradientUnits="userSpaceOnUse">
<stop stop-color="#007ED8"/>
<stop offset="0.7065" stop-color="#002D4C"/>
</linearGradient>
<linearGradient id="paint5_linear_1284:2976" x1="39.8084" y1="56.1792" x2="87.7205" y2="89.3125" gradientUnits="userSpaceOnUse">
<stop stop-color="#007ED8"/>
<stop offset="0.7065" stop-color="#002D4C"/>
</linearGradient>
<linearGradient id="paint6_linear_1284:2976" x1="40.0735" y1="58.1627" x2="84.5951" y2="88.9513" gradientUnits="userSpaceOnUse">
<stop stop-color="#007ED8"/>
<stop offset="0.7065" stop-color="#002D4C"/>
</linearGradient>
<linearGradient id="paint7_linear_1284:2976" x1="41.479" y1="56.1302" x2="86.0007" y2="86.9189" gradientUnits="userSpaceOnUse">
<stop stop-color="#007ED8"/>
<stop offset="0.7065" stop-color="#002D4C"/>
</linearGradient>
<linearGradient id="paint8_linear_1284:2976" x1="43.1171" y1="53.7614" x2="87.6388" y2="84.5501" gradientUnits="userSpaceOnUse">
<stop stop-color="#007ED8"/>
<stop offset="0.7065" stop-color="#002D4C"/>
</linearGradient>
<linearGradient id="paint9_linear_1284:2976" x1="45.3164" y1="50.5799" x2="89.8381" y2="81.3686" gradientUnits="userSpaceOnUse">
<stop stop-color="#007ED8"/>
<stop offset="0.7065" stop-color="#002D4C"/>
</linearGradient>
<linearGradient id="paint10_linear_1284:2976" x1="57.907" y1="48.49" x2="89.7486" y2="79.5113" gradientUnits="userSpaceOnUse">
<stop stop-color="#007ED8"/>
<stop offset="0.7065" stop-color="#002D4C"/>
</linearGradient>
<linearGradient id="paint11_linear_1284:2976" x1="57.7421" y1="48.2418" x2="89.9447" y2="79.788" gradientUnits="userSpaceOnUse">
<stop stop-color="#007ED8"/>
<stop offset="0.7065" stop-color="#002D4C"/>
</linearGradient>
<linearGradient id="paint12_linear_1284:2976" x1="75.9775" y1="40.7652" x2="76.1296" y2="56.5831" gradientUnits="userSpaceOnUse">
<stop offset="0.00753769" stop-color="#E0A310"/>
<stop offset="1" stop-color="#CA810E"/>
</linearGradient>
<linearGradient id="paint13_linear_1284:2976" x1="71.8416" y1="44.4419" x2="72.2979" y2="61.1724" gradientUnits="userSpaceOnUse">
<stop offset="0.00753769" stop-color="#F2CC40"/>
<stop offset="1" stop-color="#E7B116"/>
</linearGradient>
<linearGradient id="paint14_linear_1284:2976" x1="68.0233" y1="49.292" x2="68.4796" y2="60.0907" gradientUnits="userSpaceOnUse">
<stop stop-color="#F8E17B"/>
<stop offset="0.5302" stop-color="#F6D856"/>
<stop offset="1" stop-color="#F6D856"/>
</linearGradient>
</defs>
</svg>
