<svg width="100" height="100" viewBox="0 0 100 100" fill="none" xmlns="http://www.w3.org/2000/svg">
<g clip-path="url(#clip0)">
<path d="M49.6401 96.4501C40.382 96.4501 31.3317 93.7047 23.6339 88.5612C15.936 83.4176 9.93624 76.1069 6.3933 67.5535C2.85036 59.0001 1.92337 49.5882 3.72954 40.5079C5.53571 31.4277 9.99394 23.0869 16.5404 16.5404C23.0869 9.99394 31.4277 5.53571 40.5079 3.72954C49.5882 1.92337 59.0001 2.85036 67.5535 6.3933C76.1069 9.93624 83.4176 15.936 88.5612 23.6339C93.7047 31.3317 96.4501 40.382 96.4501 49.6401C96.4505 55.7874 95.24 61.8746 92.8878 67.554C90.5355 73.2335 87.0875 78.3939 82.7407 82.7407C78.3939 87.0875 73.2335 90.5355 67.554 92.8878C61.8746 95.24 55.7874 96.4505 49.6401 96.4501V96.4501Z" fill="url(#paint0_linear)"/>
<path fill-rule="evenodd" clip-rule="evenodd" d="M95.54 49.64C95.54 58.7182 92.848 67.5924 87.8045 75.1407C82.7609 82.6889 75.5923 88.572 67.2052 92.0461C58.818 95.5201 49.5891 96.4291 40.6854 94.658C31.7816 92.887 23.603 88.5154 17.1838 82.0962C10.7646 75.677 6.39302 67.4984 4.62196 58.5946C2.85089 49.6909 3.75987 40.462 7.23393 32.0748C10.708 23.6877 16.5911 16.5191 24.1393 11.4755C31.6875 6.43198 40.5618 3.73999 49.64 3.73999C55.6677 3.73997 61.6363 4.92719 67.2052 7.23387C72.774 9.54056 77.834 12.9215 82.0963 17.1837C86.3585 21.446 89.7394 26.5059 92.0461 32.0748C94.3528 37.6436 95.54 43.6123 95.54 49.64V49.64ZM49.64 3.62732e-07C59.4579 3.62732e-07 69.0552 2.91134 77.2185 8.36585C85.3818 13.8204 91.7442 21.5731 95.5014 30.6436C99.2585 39.7141 100.242 49.6951 98.3262 59.3243C96.4108 68.9535 91.6831 77.7985 84.7408 84.7408C77.7985 91.6831 68.9535 96.4108 59.3243 98.3262C49.6951 100.242 39.7141 99.2585 30.6436 95.5014C21.5731 91.7442 13.8204 85.3818 8.36584 77.2185C2.91133 69.0552 -1.61629e-06 59.4579 3.61524e-07 49.64C-0.000786426 43.1209 1.28265 36.6656 3.77702 30.6427C6.27138 24.6197 9.92781 19.1471 14.5375 14.5375C19.1471 9.9278 24.6197 6.27138 30.6427 3.77701C36.6656 1.28265 43.121 -0.000787738 49.64 3.62732e-07V3.62732e-07Z" fill="#F2F1F0"/>
<path fill-rule="evenodd" clip-rule="evenodd" d="M92.7296 49.6405C92.7296 58.1629 90.2024 66.494 85.4676 73.5801C80.7328 80.6662 74.0031 86.1891 66.1294 89.4505C58.2557 92.7119 49.5918 93.5652 41.2331 91.9026C32.8745 90.24 25.1966 86.136 19.1703 80.1098C13.1441 74.0835 9.04017 66.4056 7.37753 58.047C5.7149 49.6883 6.56822 41.0244 9.8296 33.1507C13.091 25.277 18.6139 18.5473 25.7 13.8125C32.7862 9.07773 41.1172 6.55055 49.6396 6.55055C55.2983 6.5502 60.9017 7.66452 66.1298 9.82988C71.3579 11.9952 76.1082 15.1692 80.1096 19.1705C84.1109 23.1719 87.2849 27.9222 89.4502 33.1503C91.6156 38.3784 92.7299 43.9818 92.7296 49.6405ZM49.6396 2.81055C58.9017 2.81055 67.9558 5.55708 75.6569 10.7028C83.3581 15.8486 89.3604 23.1624 92.9049 31.7195C96.4493 40.2765 97.3767 49.6925 95.5697 58.7766C93.7628 67.8608 89.3027 76.2051 82.7534 82.7544C76.2041 89.3036 67.8598 93.7638 58.7757 95.5707C49.6915 97.3777 40.2756 96.4503 31.7185 92.9058C23.1614 89.3614 15.8476 83.3591 10.7018 75.6579C5.5561 67.9568 2.80957 58.9026 2.80957 49.6405C2.81076 37.2208 7.74501 25.3101 16.5271 16.5281C25.3091 7.74599 37.2198 2.81174 49.6396 2.81055V2.81055Z" fill="#0078D4"/>
<path fill-rule="evenodd" clip-rule="evenodd" d="M92.7296 49.6396C92.7296 58.162 90.2024 66.493 85.4676 73.5791C80.7328 80.6652 74.0031 86.1882 66.1294 89.4496C58.2557 92.711 49.5918 93.5643 41.2331 91.9016C32.8745 90.239 25.1966 86.1351 19.1703 80.1088C13.1441 74.0826 9.04017 66.4047 7.37753 58.0461C5.7149 49.6874 6.56822 41.0234 9.8296 33.1498C13.091 25.2761 18.6139 18.5464 25.7001 13.8116C32.7862 9.07679 41.1172 6.54961 49.6396 6.54961C55.2983 6.54927 60.9017 7.66359 66.1298 9.82894C71.3579 11.9943 76.1082 15.1683 80.1096 19.1696C84.1109 23.171 87.2849 27.9213 89.4502 33.1494C91.6156 38.3774 92.7299 43.9809 92.7296 49.6396V49.6396ZM49.6396 2.80961C58.9017 2.80961 67.9558 5.55614 75.6569 10.7019C83.3581 15.8476 89.3604 23.1615 92.9048 31.7185C96.4493 40.2756 97.3767 49.6916 95.5697 58.7757C93.7628 67.8598 89.3027 76.2041 82.7534 82.7534C76.2041 89.3027 67.8598 93.7628 58.7757 95.5698C49.6915 97.3767 40.2756 96.4493 31.7185 92.9049C23.1614 89.3604 15.8476 83.3581 10.7018 75.657C5.5561 67.9558 2.80957 58.9017 2.80957 49.6396C2.81075 37.2199 7.74499 25.3092 16.5271 16.5271C25.3091 7.74501 37.2198 2.81076 49.6396 2.80957V2.80961Z" fill="#0078D4"/>
<path d="M58.7682 62.2181H50.1294V37.3477C50.1301 37.0573 50.2457 36.779 50.4511 36.5736C50.6564 36.3683 50.9347 36.2526 51.2252 36.252H58.7682C59.0586 36.2526 59.3369 36.3683 59.5422 36.5736C59.7476 36.779 59.8633 37.0573 59.8639 37.3477V61.1223C59.8645 61.2664 59.8366 61.4091 59.7817 61.5424C59.7269 61.6756 59.6462 61.7966 59.5443 61.8985C59.4425 62.0003 59.3214 62.081 59.1882 62.1359C59.055 62.1907 58.9122 62.2187 58.7682 62.2181V62.2181Z" fill="url(#paint1_linear)"/>
<path opacity="0.2" d="M49.699 62.2181H54.7296C55.1073 61.7342 55.3136 61.1386 55.316 60.5247V44.574C55.316 44.1252 55.1377 43.6948 54.8203 43.3775C54.503 43.0601 54.0726 42.8818 53.6238 42.8818H49.699V62.2181Z" fill="#D15900"/>
<path d="M52.7193 62.2181H44.645V44.5476C44.6455 44.106 44.8211 43.6825 45.1334 43.3702C45.4457 43.0579 45.8691 42.8823 46.3108 42.8818H52.7193C53.161 42.8823 53.5844 43.0579 53.8967 43.3702C54.209 43.6825 54.3847 44.1059 54.3851 44.5476V60.5523C54.3854 60.7711 54.3424 60.9879 54.2588 61.1901C54.1752 61.3923 54.0525 61.576 53.8978 61.7307C53.743 61.8855 53.5593 62.0082 53.3571 62.0918C53.1549 62.1754 52.9381 62.2183 52.7193 62.2181V62.2181Z" fill="url(#paint2_linear)"/>
<path opacity="0.2" d="M44.645 62.2181H49.6756C50.0534 61.7342 50.2596 61.1385 50.262 60.5247V50.9382C50.262 50.4895 50.0837 50.0591 49.7664 49.7417C49.449 49.4244 49.0186 49.2461 48.5699 49.2461H44.645V62.2181Z" fill="url(#paint3_linear)"/>
<path d="M47.4562 62.2181H41.114C40.6635 62.218 40.2314 62.039 39.9128 61.7204C39.5942 61.4018 39.4151 60.9697 39.415 60.5191V50.9451C39.4151 50.4945 39.5942 50.0624 39.9128 49.7438C40.2314 49.4252 40.6635 49.2462 41.114 49.2461H47.4561C47.9067 49.2462 48.3388 49.4252 48.6574 49.7438C48.976 50.0624 49.155 50.4945 49.1551 50.9451V60.5247C49.1539 60.9744 48.9743 61.4052 48.6558 61.7227C48.3373 62.0401 47.9059 62.2183 47.4562 62.2181V62.2181Z" fill="url(#paint4_linear)"/>
<path d="M69.0628 42.9805L77.9815 39.9224C75.9554 34.0159 72.1349 28.8897 67.0536 25.2601C61.9724 21.6305 55.8843 19.6789 49.6399 19.6777V29.088C53.9203 29.0953 58.0919 30.4375 61.5734 32.9277C65.0549 35.4179 67.673 38.932 69.0628 42.9805V42.9805Z" fill="#C3F1FF"/>
<path d="M79.602 49.6397C79.6029 46.3331 79.0554 43.0493 77.9817 39.9219L69.063 42.98C69.8063 45.1218 70.1879 47.3725 70.192 49.6397H79.602L79.602 49.6397Z" fill="#003067"/>
<path d="M49.6398 70.1926C44.189 70.1926 38.9614 68.0272 35.1071 64.173C31.2528 60.3187 29.0875 55.0911 29.0875 49.6403C29.0875 44.1895 31.2528 38.962 35.1071 35.1077C38.9614 31.2534 44.189 29.088 49.6398 29.088H49.6401V19.6777H49.6395C44.7209 19.6767 39.8776 20.8866 35.5372 23.2006C31.1968 25.5146 27.4929 28.8616 24.7524 32.946C22.0118 37.0305 20.319 41.7268 19.8232 46.6204C19.3275 51.5141 20.0441 56.4545 21.9099 61.0056C23.7756 65.5567 26.7331 69.5785 30.5212 72.7159C34.3093 75.8533 38.8115 78.01 43.6305 78.9954C48.4495 79.9808 53.4369 79.7647 58.1526 78.3661C62.8682 76.9676 67.1671 74.4296 70.6696 70.9763L64.0558 64.2661C60.2194 68.0645 55.0384 70.1944 49.6398 70.1926V70.1926Z" fill="#50E6FF"/>
<path d="M79.602 49.6396H70.192C70.1928 52.363 69.6505 55.0592 68.5968 57.5705C67.5432 60.0819 65.9994 62.3579 64.0557 64.2654L70.6695 70.9756C73.5022 68.1918 75.7513 64.871 77.2851 61.2075C78.8189 57.5439 79.6065 53.6113 79.602 49.6396V49.6396Z" fill="#1F56A3"/>
<path opacity="0.2" d="M50.1295 62.2183H58.7682C58.9122 62.2189 59.055 62.1909 59.1882 62.1361C59.3214 62.0812 59.4424 62.0005 59.5443 61.8987C59.6462 61.7968 59.7269 61.6758 59.7817 61.5425C59.8366 61.4093 59.8645 61.2666 59.8639 61.1225V50.9609H58.2046C57.4822 50.9598 56.7668 51.1025 56.1001 51.3809C55.4038 51.6674 54.7763 52.0986 54.2593 52.646C53.8109 53.1198 53.4487 53.6682 53.189 54.2666C53.025 54.6417 52.9047 55.0344 52.8306 55.437C51.7013 55.6443 50.6662 56.2026 49.8726 57.0322C49.4232 57.5064 49.0603 58.0555 48.8003 58.6548C48.5034 59.3351 48.3511 60.0697 48.353 60.812V62.2183H50.1295H50.1295Z" fill="#D15900"/>
<path opacity="0.2" d="M76.9563 61.9093C78.0726 59.447 78.8475 56.8439 79.2595 54.172C78.979 53.5343 78.5753 52.9584 78.0717 52.4771C77.5968 52.0289 77.0476 51.6666 76.4487 51.4063C75.7693 51.1109 75.0362 50.9593 74.2954 50.961H70.1244C69.8697 54.925 68.4666 58.7293 66.0862 61.9093H76.9563Z" fill="#003067"/>
<path opacity="0.2" d="M61.8613 66.1182C58.3345 68.7608 54.0466 70.1903 49.6395 70.1924C49.2052 70.1924 48.7805 70.1539 48.3528 70.1273V72.5143C48.3523 73.2394 48.496 73.9575 48.7756 74.6266C49.0607 75.3179 49.489 75.941 50.0325 76.4547C50.5071 76.9053 51.0571 77.2692 51.6575 77.5299C52.0332 77.6935 52.4264 77.8138 52.8293 77.8883C52.8998 78.2736 53.0118 78.6501 53.1633 79.0113C53.2157 79.1372 53.2946 79.2446 53.3552 79.3649C56.294 78.9941 59.161 78.1867 61.8613 76.9695L61.8613 66.1182Z" fill="#0078D4"/>
<path d="M58.2044 80.3662C57.7381 80.3675 57.2766 80.2724 56.8489 80.0869C56.4621 79.9193 56.1075 79.6855 55.8011 79.396C55.4586 79.0717 55.1887 78.6787 55.0091 78.2427C54.8317 77.8184 54.7407 77.3631 54.7415 76.9033V75.9775H53.8157C53.3483 75.9789 52.8858 75.8833 52.4573 75.6968C52.0701 75.5292 51.7154 75.2949 51.4094 75.0044C51.0687 74.6816 50.8001 74.2904 50.6214 73.8564C50.4436 73.4315 50.3523 72.9753 50.3528 72.5146V60.812C50.3512 60.3452 50.4467 59.8831 50.6331 59.4551C50.8003 59.0686 51.034 58.7144 51.3235 58.4087C51.6473 58.067 52.0397 57.7976 52.4749 57.6181C52.8993 57.4397 53.3553 57.3482 53.8157 57.3491H54.7415V56.4239C54.7399 55.957 54.8353 55.4949 55.0218 55.0669C55.1891 54.6804 55.4228 54.3261 55.7122 54.02C56.0365 53.6773 56.43 53.4073 56.8665 53.228C57.2903 53.0512 57.7451 52.9604 58.2044 52.961H74.2952C74.7614 52.9596 75.2229 53.0547 75.6507 53.2403C76.0375 53.4079 76.3921 53.6417 76.6985 53.9312C77.0405 54.2546 77.3101 54.6469 77.4895 55.082C77.6673 55.507 77.7586 55.9632 77.7581 56.4238V76.9033C77.7596 77.3701 77.6642 77.8322 77.4778 78.2602C77.3105 78.6468 77.0768 79.0011 76.7874 79.3071C76.4633 79.6502 76.0698 79.9202 75.6331 80.0991C75.2092 80.276 74.7544 80.3668 74.2952 80.3662L58.2044 80.3662Z" fill="url(#paint5_linear)"/>
<path d="M74.2956 54.96C74.4882 54.9589 74.6789 54.9978 74.8556 55.0743C75.0286 55.149 75.1872 55.2534 75.3241 55.3828C75.4628 55.5146 75.5719 55.6743 75.6441 55.8514C75.7199 56.0324 75.7588 56.2266 75.7584 56.4228V76.9025C75.7596 77.0951 75.7206 77.2858 75.6441 77.4625C75.5694 77.6355 75.465 77.7941 75.3356 77.9311C75.2038 78.0698 75.0441 78.1789 74.867 78.2511C74.6861 78.3269 74.4918 78.3658 74.2956 78.3654H58.2044C58.0118 78.3665 57.8211 78.3276 57.6444 78.2511C57.4714 78.1764 57.3128 78.072 57.1758 77.9425C57.0372 77.8108 56.9281 77.6511 56.8558 77.474C56.78 77.293 56.7412 77.0987 56.7415 76.9026V73.9768H53.8159C53.6233 73.978 53.4326 73.9391 53.2559 73.8626C53.0829 73.7878 52.9243 73.6834 52.7873 73.554C52.6487 73.4222 52.5396 73.2625 52.4673 73.0854C52.3915 72.9045 52.3527 72.7102 52.3531 72.514V60.8113C52.3519 60.6188 52.3908 60.4281 52.4673 60.2513C52.5421 60.0783 52.6465 59.9197 52.7759 59.7828C52.9076 59.6441 53.0674 59.535 53.2445 59.4628C53.4254 59.387 53.6197 59.3481 53.8159 59.3485H56.7416V56.4228C56.7404 56.2303 56.7793 56.0396 56.8558 55.8628C56.9306 55.6898 57.035 55.5312 57.1644 55.3943C57.2962 55.2556 57.4559 55.1465 57.633 55.0743C57.8139 54.9984 58.0082 54.9596 58.2044 54.96L74.2956 54.96ZM58.0216 71.4169L59.6901 68.3655L61.3243 71.4169H64.2386L61.2786 66.6284L64.17 61.9085H61.3815L59.7815 64.8227L58.3072 61.9085H55.3473L58.1587 66.6398L55.073 71.4169L58.0216 71.4169ZM65.5186 76.9025V73.9768H58.2044V76.9025L65.5186 76.9025ZM65.5186 59.3485V56.4228H58.2044V59.3485L65.5186 59.3485ZM74.2956 76.9025V72.514H66.9814V76.9025L74.2956 76.9025ZM74.2956 71.0512V66.6627H66.9814V71.0512H74.2956ZM74.2956 65.1998V60.8113H66.9814V65.1998H74.2956ZM74.2956 59.3485V56.4228H66.9814V59.3485L74.2956 59.3485Z" fill="url(#paint6_linear)"/>
</g>
<defs>
<linearGradient id="paint0_linear" x1="47.8697" y1="-15.153" x2="51.8525" y2="130.615" gradientUnits="userSpaceOnUse">
<stop stop-color="#00ABDE"/>
<stop offset="1" stop-color="#007ED8"/>
</linearGradient>
<linearGradient id="paint1_linear" x1="54.8894" y1="38.624" x2="55.0967" y2="60.1791" gradientUnits="userSpaceOnUse">
<stop offset="0.00754" stop-color="#E0A310"/>
<stop offset="1" stop-color="#CA810E"/>
</linearGradient>
<linearGradient id="paint2_linear" x1="49.2497" y1="43.6425" x2="49.8708" y2="66.4153" gradientUnits="userSpaceOnUse">
<stop offset="0.00754" stop-color="#F2CC40"/>
<stop offset="1" stop-color="#E7B116"/>
</linearGradient>
<linearGradient id="paint3_linear" x1="309.694" y1="843.322" x2="328.04" y2="655.323" gradientUnits="userSpaceOnUse">
<stop offset="0.00754" stop-color="#E0A310"/>
<stop offset="1" stop-color="#CA810E"/>
</linearGradient>
<linearGradient id="paint4_linear" x1="44.053" y1="50.2397" x2="44.675" y2="64.9596" gradientUnits="userSpaceOnUse">
<stop stop-color="#F8E17B"/>
<stop offset="0.5302" stop-color="#F6D856"/>
<stop offset="1" stop-color="#F6D856"/>
</linearGradient>
<linearGradient id="paint5_linear" x1="64.0555" y1="79.3826" x2="64.0555" y2="53.5579" gradientUnits="userSpaceOnUse">
<stop stop-color="#F2F2F2"/>
<stop offset="0.44" stop-color="#FBFBFB"/>
<stop offset="1" stop-color="white"/>
</linearGradient>
<linearGradient id="paint6_linear" x1="64.0557" y1="78.3653" x2="64.0557" y2="54.96" gradientUnits="userSpaceOnUse">
<stop stop-color="#004DAE"/>
<stop offset="0.21" stop-color="#0061C4"/>
<stop offset="0.51" stop-color="#0078DD"/>
<stop offset="0.78" stop-color="#0086EC"/>
<stop offset="1" stop-color="#008BF1"/>
</linearGradient>
<clipPath id="clip0">
<rect width="99.2799" height="99.28" fill="white"/>
</clipPath>
</defs>
</svg>
