<?xml version="1.0" encoding="UTF-8"?>
<svg width="100px" height="100px" viewBox="0 0 100 100" version="1.1" xmlns="http://www.w3.org/2000/svg" xmlns:xlink="http://www.w3.org/1999/xlink">
    <!-- Generator: Sketch 55.2 (78181) - https://sketchapp.com -->
    <title>Create Reports with Power BI Desktop/model-data-with-power-bi-desktop</title>
    <desc>Created with Sketch.</desc>
    <defs>
        <rect id="path-1" x="0" y="0" width="96" height="96" rx="48"></rect>
        <filter x="-6.2%" y="-7.1%" width="112.5%" height="114.3%" filterUnits="objectBoundingBox" id="filter-3">
            <feOffset dx="0" dy="2" in="SourceAlpha" result="shadowOffsetOuter1"></feOffset>
            <feColorMatrix values="0 0 0 0 0   0 0 0 0 0   0 0 0 0 0  0 0 0 0.0964956975 0" type="matrix" in="shadowOffsetOuter1" result="shadowMatrixOuter1"></feColorMatrix>
            <feMerge>
                <feMergeNode in="shadowMatrixOuter1"></feMergeNode>
                <feMergeNode in="SourceGraphic"></feMergeNode>
            </feMerge>
        </filter>
    </defs>
    <g id="Badges" stroke="none" stroke-width="1" fill="none" fill-rule="evenodd">
        <g id="Create-Reports-with-Power-BI-Desktop" transform="translate(-50.000000, -460.000000)">
            <g id="Create-Reports-with-Power-BI-Desktop/model-data-with-power-bi-desktop" transform="translate(50.000000, 460.000000)">
                <g id="Mask" transform="translate(2.000000, 2.000000)">
                    <mask id="mask-2" fill="white">
                        <use xlink:href="#path-1"></use>
                    </mask>
                    <use fill="#7D7D7D" xlink:href="#path-1"></use>
                    <g id="Monitor" filter="url(#filter-3)" mask="url(#mask-2)">
                        <g transform="translate(16.000000, 20.000000)">
                            <path d="M0,36 L0,42 C0,44.2 1.8,46 4,46 L60,46 C62.2,46 64,44.2 64,42 L64,36 L0,36" id="Fill-1285" fill="#E1E4E1"></path>
                            <path d="M4,0 C1.8,0 0,1.8 0,4 L0,36 L64,36 L64,4 C64,1.8 62.2,0 60,0 L4,0 Z M60,2 C61.103,2 62,2.897 62,4 L62,34 L2,34 L2,4 C2,2.897 2.897,2 4,2 L60,2 L60,2 Z" id="Fill-1287" fill="#182A37"></path>
                            <path d="M2,4 C2,2.897 2.897,2 4,2 L60,2 C61.103,2 62,2.897 62,4 L62,34 L2,34 L2,4" id="Fill-1288" fill="#30404D"></path>
                            <path d="M4,2 L31.389,2 L21.611,34 L2,34 L2,4 C2,2.897 2.897,2 4,2" id="Fill-1289" fill="#384B58"></path>
                            <path d="M4,0 L32,0 L31.389,2 L4,2 C2.897,2 2,2.897 2,4 L2,34 L21.611,34 L21,36 L0,36 L0,4 C0,1.8 1.8,0 4,0" id="Fill-1290" fill="#30404D"></path>
                            <polyline id="Fill-1291" fill="#E1E4E1" points="40 55 24 55 26 46 38 46 40 55"></polyline>
                            <path d="M40,55 L38,46 L26,46 L25.555,48 L30,48 C31.105,48 32,48.895 32,50 L32,55 L40,55" id="Fill-1292" fill="#CDD6D8"></path>
                            <path d="M44,55 C44,55.55 43.55,56 43,56 L21,56 C20.45,56 20,55.55 20,55 C20,54.45 20.45,54 21,54 L43,54 C43.55,54 44,54.45 44,55" id="Fill-1293" fill="#E1E4E1"></path>
                            <path d="M21,56 L43,56 C43.55,56 44,55.55 44,55 L20,55 C20,55.55 20.45,56 21,56" id="Fill-1294" fill="#CDD6D8"></path>
                            <path d="M3.37069097,4.7988788 C3.37069097,3.47558797 4.44683954,2.3994394 5.77013037,2.3994394 L58.5577972,2.3994394 C59.8798883,2.3994394 60.9572366,3.47558797 60.9572366,4.7988788 L60.9572366,35.991591 L3.37069097,35.991591 L3.37069097,4.7988788" id="Fill-1417" fill="#F7CB64"></path>
                        </g>
                    </g>
                    <polyline id="Path-2" stroke="#DBB04A" mask="url(#mask-2)" points="34 29.9995185 40 29.9995185 48 39.9995185 54 39.9995185"></polyline>
                    <path d="M34.0000001,39.9995185 L54.0000001,39.9995185" id="Path-3" stroke="#DBB04A" mask="url(#mask-2)"></path>
                    <polyline id="Path-4" stroke="#DBB04A" mask="url(#mask-2)" points="34 49.9995185 40 49.9995185 47.389 40"></polyline>
                    <g id="Graph" mask="url(#mask-2)" fill="#876D31" fill-rule="nonzero">
                        <g transform="translate(28.000000, 27.000000)" id="Shape">
                            <path d="M2.99975925,6 C1.34531739,6 0,4.65371961 0,2.99975925 C0,1.34579889 1.34579889,0 2.99975925,0 C4.65420111,0 6,1.34579889 6,2.99975925 C6,4.65371961 4.65371961,6 2.99975925,6 Z M2.99975925,0.962523072 C1.87641441,0.962523072 0.963004574,1.87641441 0.963004574,2.99927775 C0.963004574,4.12310408 1.87641441,5.03651392 2.99975925,5.03651392 C4.12310408,5.03651392 5.03699543,4.12310408 5.03699543,2.99927775 C5.03699543,1.87641441 4.12310408,0.962523072 2.99975925,0.962523072 Z"></path>
                            <path d="M2.99975925,26 C1.34531739,26 0,24.6537196 0,22.9997592 C0,21.3457989 1.34579889,20 2.99975925,20 C4.65420111,20 6,21.3457989 6,22.9997592 C6,24.6537196 4.65371961,26 2.99975925,26 Z M2.99975925,20.9625231 C1.87641441,20.9625231 0.963004574,21.8764144 0.963004574,22.9992777 C0.963004574,24.1231041 1.87641441,25.0365139 2.99975925,25.0365139 C4.12310408,25.0365139 5.03699543,24.1231041 5.03699543,22.9992777 C5.03699543,21.8764144 4.12310408,20.9625231 2.99975925,20.9625231 Z"></path>
                            <path d="M2.99975918,16 C1.34531736,16 0,14.6537196 0,12.9997592 C0,11.3453174 1.34579886,10 2.99975918,10 C4.65420101,10 6,11.3457989 6,12.9997592 C6.00048137,14.6537196 4.65420101,16 2.99975918,16 Z M2.99975918,10.9625231 C1.87641437,10.9625231 0.963004554,11.8759329 0.963004554,12.9992777 C0.963004554,14.1226226 1.87641437,15.0365139 2.99975918,15.0365139 C4.123104,15.0365139 5.03699532,14.1226226 5.03699532,12.9992777 C5.03699532,11.8759329 4.1235855,10.9625231 2.99975918,10.9625231 Z"></path>
                            <path d="M31.999358,21 C27.587513,21 24,17.4099189 24,12.999358 C24,8.58751304 27.588797,5 31.999358,5 C36.4099189,5 40,8.58879705 40,12.999358 C40,17.4099189 36.4099189,21 31.999358,21 Z M31.9992909,7 C28.6904621,7 26,9.69046212 26,12.9992909 C26,16.3081196 28.6904621,19 31.9992909,19 C35.3081196,19 38,16.3081196 38,12.9992909 C38,9.69188039 35.3081196,7 31.9992909,7 Z"></path>
                        </g>
                    </g>
                </g>
                <g id="Power-BI-Border" stroke="#F2C811" stroke-width="4">
                    <rect id="Azure-Border" x="2" y="2" width="96" height="96" rx="48"></rect>
                </g>
            </g>
        </g>
    </g>
</svg>