<svg width="103" height="103" fill="none" xmlns="http://www.w3.org/2000/svg"><path d="M51.377 98.222c-25.85 0-46.81-20.95-46.81-46.81 0-25.86 20.96-46.81 46.81-46.81s46.81 20.96 46.81 46.81-20.96 46.81-46.81 46.81Z" fill="url(#a)"/><path fill-rule="evenodd" clip-rule="evenodd" d="M97.277 51.411c0 25.35-20.55 45.9-45.9 45.9-25.35 0-45.9-20.55-45.9-45.9 0-25.35 20.55-45.9 45.9-45.9 25.35 0 45.9 20.55 45.9 45.9Zm-45.9-49.64c27.42 0 49.64 22.22 49.64 49.64s-22.23 49.64-49.64 49.64c-27.42 0-49.64-22.23-49.64-49.64 0-27.42 22.22-49.64 49.64-49.64Z" fill="#F2F1F0"/><path fill-rule="evenodd" clip-rule="evenodd" d="M94.467 51.412c0 23.8-19.29 43.09-43.09 43.09-23.8 0-43.09-19.29-43.09-43.09 0-23.8 19.29-43.09 43.09-43.09 23.8 0 43.09 19.29 43.09 43.09Zm-43.09-46.83c25.86 0 46.83 20.97 46.83 46.83s-20.97 46.83-46.83 46.83-46.83-20.97-46.83-46.83 20.96-46.83 46.83-46.83Z" fill="url(#b)"/><path d="M50.87 31.067c-2.77 0-5.03-2.27-5.03-5.06 0-2.79 2.26-5.06 5.03-5.06 2.77 0 5.03 2.27 5.03 5.06 0 2.79-2.26 5.06-5.03 5.06Zm0-8.12c-1.67 0-3.03 1.37-3.03 3.06s1.36 3.06 3.03 3.06c1.67 0 3.03-1.37 3.03-3.06s-1.36-3.06-3.03-3.06Z" fill="url(#c)"/><path d="M63.74 79.156h-25.1L36 84.076l-1.76-.95 7.31-13.61 1.75.96-3.59 6.68h22.96l-3.59-6.68 1.76-.95 7.31 13.61-1.76.95-2.65-4.93Z" fill="url(#d)"/><path d="M78.4 31.416H24.01v36.56H78.4v-36.56Z" fill="url(#e)"/><path d="M23.3 25.996h55.79c1.1 0 2 .9 2 2v2.09c0 1.1-.9 2-2 2H23.3c-1.1 0-2-.9-2-2v-2.09c0-1.1.9-2 2-2Z" fill="url(#f)"/><path d="M22.99 67.207h56.4c.93 0 1.69.76 1.69 1.69 0 .93-.76 1.69-1.69 1.69h-56.4a1.68 1.68 0 0 1-1.69-1.68c0-.94.76-1.7 1.69-1.7Z" fill="url(#g)"/><path d="M78.4 31.416H24.01v36.56H78.4v-36.56Z" fill="url(#h)"/><path d="M23.3 25.996h55.79c1.1 0 2 .9 2 2v2.09c0 1.1-.9 2-2 2H23.3c-1.1 0-2-.9-2-2v-2.09c0-1.1.9-2 2-2Z" fill="url(#i)"/><path d="M22.99 67.207h56.4c.93 0 1.69.76 1.69 1.69 0 .93-.76 1.69-1.69 1.69h-56.4a1.68 1.68 0 0 1-1.69-1.68c0-.94.76-1.7 1.69-1.7Z" fill="url(#j)"/><g opacity=".15" fill="#1F1D20"><path opacity=".15" d="M70.698 35.48h-7.63a.842.842 0 0 0-.841.842v4.672c0 .464.377.842.841.842h7.636a.835.835 0 0 0 .842-.842v-4.666a.841.841 0 0 0-.848-.848ZM70.698 51.031h-7.63a.842.842 0 0 0-.841.842v4.678c0 .464.377.842.841.842h7.636a.842.842 0 0 0 .842-.842v-4.666a.847.847 0 0 0-.848-.854ZM70.698 43.24h-7.63a.842.842 0 0 0-.841.842v4.672c0 .464.377.842.841.842h7.636a.835.835 0 0 0 .842-.842v-4.672a.844.844 0 0 0-.848-.842ZM70.698 58.791h-7.63a.842.842 0 0 0-.841.842v4.678c0 .464.377.841.841.841h7.636a.843.843 0 0 0 .842-.841v-4.672a.85.85 0 0 0-.848-.848Z"/></g><path fill-rule="evenodd" clip-rule="evenodd" d="M55.958 53.313h10.563v.7H55.958v-.7ZM55.958 45.639h10.563v.7H55.958v-.7Z" fill="#78787D"/><path fill-rule="evenodd" clip-rule="evenodd" d="M55.608 38.303a.35.35 0 0 1 .35-.35H66.52v.7H56.308V60.98H66.52v.7H55.958a.35.35 0 0 1-.35-.35V38.303Z" fill="#78787D"/><path d="M70.698 34.924h-7.63a.842.842 0 0 0-.841.841v4.672c0 .465.377.842.841.842h7.636a.835.835 0 0 0 .842-.842v-4.665a.845.845 0 0 0-.848-.848Z" fill="#84ECFD"/><path d="M70.698 50.475h-7.63a.842.842 0 0 0-.841.841v4.678c0 .465.377.842.841.842h7.636a.843.843 0 0 0 .842-.841v-4.666a.847.847 0 0 0-.848-.854Z" fill="#45CAF2"/><path d="M70.698 42.69h-7.63a.842.842 0 0 0-.841.841v4.672c0 .464.377.842.841.842h7.636a.835.835 0 0 0 .842-.842v-4.672a.844.844 0 0 0-.848-.841Z" fill="#50E6FF"/><path d="M70.698 58.24h-7.63a.842.842 0 0 0-.841.842v4.678c0 .464.377.842.841.842h7.636a.843.843 0 0 0 .842-.842v-4.672a.85.85 0 0 0-.848-.848Z" fill="#32B0E7"/><path fill-rule="evenodd" clip-rule="evenodd" d="M42.31 49.691h13.679v.7h-13.68v-.7Z" fill="#78787D"/><path fill-rule="evenodd" clip-rule="evenodd" d="M48.436 58.696c0 1.802-3.805 3.255-8.496 3.255-4.691 0-8.496-1.46-8.496-3.255 0-1.805 3.805-3.255 8.496-3.255 4.698 0 8.496 1.46 8.496 3.255Z" fill="#000" fill-opacity=".103"/><path fill-rule="evenodd" clip-rule="evenodd" d="M48.42 53.387c0 1.759-3.792 3.18-8.467 3.18-4.675 0-8.467-1.421-8.467-3.18 0-1.76 3.792-3.18 8.467-3.18 4.675 0 8.467 1.42 8.467 3.18Z" fill="#185A97"/><path d="M48.41 41.48c0 1.827-3.781 3.303-8.456 3.303-4.666 0-8.458-1.476-8.458-3.304-.003-1.827 3.78-3.303 8.457-3.303 4.675.01 8.458 1.489 8.458 3.303Z" fill="#fff"/><path fill-rule="evenodd" clip-rule="evenodd" d="M39.95 56.523c-4.672 0-8.464-1.414-8.464-3.15v4.206c0 1.74 3.792 3.15 8.464 3.15 4.671 0 8.463-1.414 8.463-3.15v-4.206c0 1.736-3.791 3.15-8.463 3.15Z" fill="#45CAF2"/><path fill-rule="evenodd" clip-rule="evenodd" d="M39.95 57.914v1.401c0 .401-.336.717-.74.707-4.333-.143-7.734-1.489-7.734-3.14v.707c0 1.74 3.792 3.15 8.464 3.15 4.672 0 8.474-1.414 8.474-3.15V54.08c0 1.662-3.444 3.02-7.8 3.15-.358-.013-.664.303-.664.684Z" fill="#0078D4"/><path fill-rule="evenodd" clip-rule="evenodd" d="M39.95 50.559c-4.672 0-8.464-1.414-8.464-3.15v4.205c0 1.74 3.792 3.15 8.464 3.15 4.671 0 8.463-1.414 8.463-3.15v-4.206c0 1.74-3.791 3.15-8.463 3.15Z" fill="#C3F1FF"/><path fill-rule="evenodd" clip-rule="evenodd" d="M39.95 51.95v1.4c0 .401-.336.717-.74.707-4.336-.14-7.724-1.488-7.724-3.14v.707c0 1.74 3.782 3.15 8.454 3.15 4.672 0 8.464-1.414 8.464-3.15v-3.519c0 1.662-3.434 3.02-7.79 3.15a.693.693 0 0 0-.664.695Z" fill="#32B0E7"/><path fill-rule="evenodd" clip-rule="evenodd" d="M48.371 47.441c0 1.75-3.769 3.16-8.418 3.16-4.649 0-8.418-1.413-8.418-3.16 0-1.746 3.77-3.16 8.418-3.16 4.65 0 8.418 1.41 8.418 3.16Z" fill="#BAC0C2"/><path d="M48.427 47.421c0 1.76-3.792 3.183-8.474 3.183-4.681 0-8.47-1.424-8.47-3.183 0-1.76 3.792-3.183 8.473-3.183 4.682 0 8.47 1.424 8.47 3.183Z" fill="#2195DC"/><path fill-rule="evenodd" clip-rule="evenodd" d="M39.95 44.594c-4.672 0-8.464-1.414-8.464-3.15v4.205c0 1.74 3.792 3.15 8.464 3.15 4.671 0 8.463-1.413 8.463-3.15v-4.206c0 1.74-3.791 3.15-8.463 3.15Z" fill="#fff"/><path fill-rule="evenodd" clip-rule="evenodd" d="M39.95 45.985v1.4c0 .401-.336.717-.74.708-4.333-.14-7.734-1.49-7.734-3.14v.706c0 1.74 3.792 3.15 8.464 3.15 4.672 0 8.464-1.414 8.464-3.15V42.15c0 1.662-3.434 3.02-7.79 3.15-.358 0-.664.317-.664.685Z" fill="#50E6FF"/><path fill-rule="evenodd" clip-rule="evenodd" d="M48.033 41.467c0 1.75-3.617 3.16-8.093 3.16-4.466 0-8.092-1.414-8.092-3.16 0-1.75 3.616-3.16 8.092-3.16 4.476.01 8.093 1.42 8.093 3.16Z" fill="#C3F1FF"/><defs><linearGradient id="a" x1="49.603" y1="-13.378" x2="53.585" y2="132.392" gradientUnits="userSpaceOnUse"><stop stop-color="#00ABDE"/><stop offset="1" stop-color="#007ED8"/></linearGradient><linearGradient id="b" x1="2.807" y1="-20.211" x2="98.335" y2="120.671" gradientUnits="userSpaceOnUse"><stop stop-color="#007ED8"/><stop offset=".707" stop-color="#002D4C"/></linearGradient><linearGradient id="c" x1="43.631" y1="11.074" x2="70.56" y2="66.633" gradientUnits="userSpaceOnUse"><stop stop-color="#007ED8"/><stop offset=".707" stop-color="#002D4C"/></linearGradient><linearGradient id="d" x1="57.106" y1="155.696" x2="45.768" y2="16.515" gradientUnits="userSpaceOnUse"><stop stop-color="#007ED8"/><stop offset=".707" stop-color="#002D4C"/></linearGradient><linearGradient id="e" x1="51.204" y1="67.976" x2="51.204" y2="31.416" gradientUnits="userSpaceOnUse"><stop stop-color="#D2EBFF"/><stop offset="1" stop-color="#F0FFFD"/></linearGradient><linearGradient id="f" x1="51.194" y1="26.01" x2="51.194" y2="32.092" gradientUnits="userSpaceOnUse"><stop stop-color="#0099BE"/><stop offset="1" stop-color="#006E97"/></linearGradient><linearGradient id="g" x1="51.189" y1="67.216" x2="51.189" y2="70.596" gradientUnits="userSpaceOnUse"><stop stop-color="#0099BE"/><stop offset="1" stop-color="#006E97"/></linearGradient><linearGradient id="h" x1="51.204" y1="67.976" x2="51.204" y2="31.416" gradientUnits="userSpaceOnUse"><stop stop-color="#D2EBFF"/><stop offset="1" stop-color="#F0FFFD"/></linearGradient><linearGradient id="i" x1="51.194" y1="26.01" x2="51.194" y2="32.092" gradientUnits="userSpaceOnUse"><stop stop-color="#007ED8"/><stop offset=".707" stop-color="#002D4C"/></linearGradient><linearGradient id="j" x1="51.189" y1="67.216" x2="51.189" y2="70.596" gradientUnits="userSpaceOnUse"><stop stop-color="#007ED8"/><stop offset=".707" stop-color="#002D4C"/></linearGradient></defs></svg>