<svg width="100" height="100" viewBox="0 0 100 100" fill="none" xmlns="http://www.w3.org/2000/svg">
<g clip-path="url(#clip0)">
<path d="M49.6401 96.4501C40.382 96.4501 31.3317 93.7047 23.6339 88.5612C15.936 83.4176 9.93624 76.1069 6.3933 67.5535C2.85036 59.0001 1.92337 49.5882 3.72954 40.5079C5.53571 31.4277 9.99394 23.0869 16.5404 16.5404C23.0869 9.99393 31.4277 5.53571 40.5079 3.72954C49.5882 1.92337 59.0001 2.85036 67.5535 6.3933C76.1069 9.93624 83.4176 15.936 88.5612 23.6339C93.7047 31.3317 96.4501 40.382 96.4501 49.6401C96.4505 55.7874 95.24 61.8746 92.8878 67.554C90.5355 73.2335 87.0875 78.3939 82.7407 82.7407C78.3939 87.0875 73.2335 90.5355 67.554 92.8878C61.8746 95.24 55.7874 96.4505 49.6401 96.4501V96.4501Z" fill="url(#paint0_linear)"/>
<path fill-rule="evenodd" clip-rule="evenodd" d="M95.54 49.64C95.54 58.7182 92.848 67.5925 87.8045 75.1407C82.7609 82.6889 75.5923 88.572 67.2052 92.0461C58.818 95.5201 49.5891 96.4291 40.6854 94.658C31.7816 92.887 23.603 88.5154 17.1838 82.0962C10.7646 75.677 6.39302 67.4984 4.62196 58.5946C2.85089 49.6909 3.75987 40.462 7.23393 32.0748C10.708 23.6877 16.5911 16.5191 24.1393 11.4755C31.6875 6.43199 40.5618 3.74 49.64 3.74C55.6677 3.73998 61.6363 4.9272 67.2052 7.23388C72.774 9.54057 77.834 12.9215 82.0963 17.1837C86.3585 21.446 89.7394 26.5059 92.0461 32.0748C94.3528 37.6437 95.54 43.6123 95.54 49.64V49.64ZM49.64 3.62732e-07C59.4579 3.62732e-07 69.0553 2.91134 77.2185 8.36585C85.3818 13.8204 91.7442 21.5731 95.5014 30.6436C99.2585 39.7141 100.242 49.6951 98.3262 59.3243C96.4108 68.9535 91.6831 77.7985 84.7408 84.7408C77.7985 91.6831 68.9535 96.4108 59.3243 98.3262C49.6951 100.242 39.7141 99.2585 30.6436 95.5014C21.5731 91.7442 13.8204 85.3818 8.36585 77.2185C2.91134 69.0553 3.62732e-07 59.4579 3.62732e-07 49.64C-0.000787738 43.121 1.28265 36.6656 3.77702 30.6427C6.27138 24.6197 9.9278 19.1471 14.5375 14.5375C19.1471 9.9278 24.6197 6.27138 30.6427 3.77702C36.6656 1.28265 43.121 -0.000787738 49.64 3.62732e-07V3.62732e-07Z" fill="#F2F1F0"/>
<path fill-rule="evenodd" clip-rule="evenodd" d="M92.7296 49.6406C92.7296 58.163 90.2024 66.494 85.4676 73.5801C80.7328 80.6662 74.0031 86.1892 66.1294 89.4505C58.2557 92.7119 49.5918 93.5653 41.2331 91.9026C32.8745 90.24 25.1966 86.1361 19.1703 80.1098C13.1441 74.0836 9.04017 66.4057 7.37753 58.047C5.7149 49.6884 6.56822 41.0244 9.8296 33.1507C13.091 25.2771 18.6139 18.5473 25.7 13.8126C32.7862 9.07776 41.1172 6.55058 49.6396 6.55058C55.2983 6.55023 60.9017 7.66455 66.1298 9.82991C71.3579 11.9953 76.1082 15.1692 80.1096 19.1706C84.1109 23.1719 87.2849 27.9223 89.4502 33.1503C91.6156 38.3784 92.7299 43.9818 92.7296 49.6406V49.6406ZM49.6396 2.81058C58.9017 2.81058 67.9558 5.55711 75.6569 10.7029C83.3581 15.8486 89.3604 23.1624 92.9049 31.7195C96.4493 40.2766 97.3767 49.6925 95.5697 58.7767C93.7628 67.8608 89.3027 76.2051 82.7534 82.7544C76.2041 89.3037 67.8598 93.7638 58.7757 95.5708C49.6915 97.3777 40.2756 96.4503 31.7185 92.9059C23.1614 89.3614 15.8476 83.3591 10.7018 75.6579C5.5561 67.9568 2.80957 58.9027 2.80957 49.6406C2.81076 37.2209 7.745 25.3101 16.5271 16.5281C25.3091 7.74599 37.2198 2.81174 49.6396 2.81055V2.81058Z" fill="#0078D4"/>
<path fill-rule="evenodd" clip-rule="evenodd" d="M92.7296 49.6405C92.7296 58.1629 90.2024 66.494 85.4676 73.5801C80.7328 80.6662 74.0031 86.1891 66.1294 89.4505C58.2557 92.7119 49.5918 93.5652 41.2331 91.9026C32.8745 90.24 25.1966 86.136 19.1703 80.1098C13.1441 74.0835 9.04017 66.4056 7.37753 58.047C5.7149 49.6883 6.56822 41.0244 9.8296 33.1507C13.091 25.277 18.6139 18.5473 25.7001 13.8125C32.7862 9.07773 41.1172 6.55055 49.6396 6.55055C55.2983 6.5502 60.9017 7.66452 66.1298 9.82988C71.3579 11.9952 76.1082 15.1692 80.1096 19.1705C84.1109 23.1719 87.2849 27.9222 89.4502 33.1503C91.6156 38.3784 92.7299 43.9818 92.7296 49.6405V49.6405ZM49.6396 2.81055C58.9017 2.81055 67.9558 5.55708 75.6569 10.7028C83.3581 15.8486 89.3604 23.1624 92.9048 31.7195C96.4493 40.2765 97.3767 49.6925 95.5697 58.7766C93.7628 67.8608 89.3027 76.2051 82.7534 82.7544C76.2041 89.3036 67.8598 93.7638 58.7757 95.5707C49.6915 97.3777 40.2756 96.4503 31.7185 92.9058C23.1614 89.3614 15.8476 83.3591 10.7018 75.6579C5.5561 67.9568 2.80957 58.9026 2.80957 49.6405C2.81076 37.2208 7.74501 25.3101 16.5271 16.5281C25.3091 7.74599 37.2198 2.81174 49.6396 2.81055V2.81055Z" fill="#0078D4"/>
<path d="M49.64 49.6406V50.6833C49.64 51.4064 49.3527 52.1 48.8414 52.6113C48.33 53.1226 47.6365 53.4099 46.9134 53.4099H30.8118C30.0887 53.4099 29.3952 53.6972 28.8838 54.2085C28.3725 54.7199 28.0852 55.4134 28.0852 56.1365V59.8418" stroke="white" stroke-linecap="round" stroke-linejoin="round"/>
<path d="M49.6401 49.6406V50.6833C49.6401 51.0414 49.7107 51.3959 49.8477 51.7267C49.9847 52.0575 50.1856 52.3581 50.4388 52.6113C50.6919 52.8645 50.9925 53.0653 51.3233 53.2024C51.6541 53.3394 52.0087 53.4099 52.3668 53.4099H68.4683C69.1914 53.4099 69.885 53.6972 70.3963 54.2085C70.9077 54.7199 71.1949 55.4134 71.1949 56.1365V59.8418" stroke="white" stroke-linecap="round" stroke-linejoin="round"/>
<path d="M49.6771 67.4621L49.6531 75.9331L42.2781 71.6751L42.3021 63.2031L49.6771 67.4621Z" fill="url(#paint1_linear)"/>
<path d="M49.6771 67.4621L57.0021 63.2051L56.9781 71.6761L49.6531 75.9331L49.6771 67.4621Z" fill="url(#paint2_linear)"/>
<path d="M42.302 63.2043L49.627 58.9473L57.002 63.2063L49.677 67.4633L42.302 63.2043Z" fill="url(#paint3_linear)"/>
<path d="M70.6585 61.6055C69.6954 61.6055 68.7472 61.843 67.8979 62.297C67.0485 62.751 66.3242 63.4075 65.7892 64.2083C65.2541 65.009 64.9248 65.9294 64.8304 66.8878C64.7361 67.8463 64.8795 68.8132 65.2481 69.703C65.6166 70.5928 66.199 71.3779 66.9434 71.9889C67.6879 72.5998 68.5716 73.0177 69.5162 73.2056C70.4607 73.3935 71.4371 73.3455 72.3587 73.0659C73.2803 72.7863 74.1187 72.2838 74.7997 71.6027L71.7979 68.601C71.6105 68.7884 71.3798 68.9267 71.1262 69.0037C70.8725 69.0806 70.6038 69.0938 70.3439 69.0421C70.0839 68.9904 69.8407 68.8754 69.6359 68.7072C69.431 68.539 69.2708 68.323 69.1694 68.0781C69.068 67.8332 69.0285 67.5671 69.0545 67.3033C69.0805 67.0396 69.1712 66.7863 69.3185 66.5659C69.4658 66.3456 69.6651 66.165 69.8989 66.0401C70.1327 65.9152 70.3936 65.8499 70.6587 65.8499V61.6055H70.6585Z" fill="white"/>
<path d="M72.2707 67.4618H76.5148C76.5148 65.9086 75.8978 64.4191 74.7996 63.3208C73.7014 62.2225 72.2119 61.6055 70.6587 61.6055V65.8499C71.086 65.8504 71.4957 66.0204 71.7979 66.3226C72.1001 66.6247 72.2701 67.0344 72.2707 67.4618V67.4618Z" fill="#50E6FF"/>
<path d="M72.2708 67.4629V67.463C72.271 67.6747 72.2293 67.8843 72.1481 68.0798C72.067 68.2752 71.948 68.4528 71.7981 68.6021L74.7999 71.6039C75.3444 71.0607 75.7763 70.4152 76.0707 69.7046C76.365 68.9939 76.516 68.2321 76.515 67.4629L72.2708 67.4629Z" fill="#C3F1FF"/>
<path d="M33.3515 62.1367H20.4256C19.9663 62.1367 19.594 62.509 19.594 62.9683V71.9586C19.594 72.4179 19.9663 72.7903 20.4256 72.7903H33.3515C33.8108 72.7903 34.1831 72.4179 34.1831 71.9586V62.9683C34.1831 62.509 33.8108 62.1367 33.3515 62.1367Z" fill="white"/>
<path d="M22.3933 70.4012V69.0977" stroke="#C3F1FF" stroke-width="1.66324" stroke-miterlimit="10" stroke-linecap="round"/>
<path d="M25.3901 70.4017V66.8711" stroke="#9CEBFF" stroke-width="1.66324" stroke-miterlimit="10" stroke-linecap="round"/>
<path d="M28.387 70.4018V64.5723" stroke="#50E6FF" stroke-width="1.66324" stroke-miterlimit="10" stroke-linecap="round"/>
<path d="M31.384 70.4028V67.7754" stroke="#0078D4" stroke-width="1.66324" stroke-miterlimit="10" stroke-linecap="round"/>
<path fill-rule="evenodd" clip-rule="evenodd" d="M49.6397 14.002V14.0022L49.6394 14.002C46.7694 17.2889 41.717 18.3801 35.9551 18.3801V27.1362C35.9551 36.1674 39.9561 41.9782 49.6394 46.8442L49.6397 46.8441V46.8442C59.3228 41.9782 63.3239 36.1674 63.3239 27.1362V18.3801C57.5618 18.3801 52.5095 17.2889 49.6397 14.002Z" fill="white"/>
<path d="M37.0509 19.4495V27.1322C37.0509 35.6134 40.7059 41.0028 49.6395 45.6204C58.5731 40.9984 62.2282 35.6134 62.2282 27.1278V19.4495C56.475 19.3076 52.332 18.0257 49.6395 15.5505C46.9426 18.0257 42.804 19.3076 37.0509 19.4495ZM49.6395 47.9403C49.4688 47.9396 49.3004 47.9002 49.1471 47.825C39.1312 42.7904 34.8596 36.5981 34.8596 27.1278V18.3672C34.8596 18.2233 34.8878 18.0808 34.9429 17.9479C34.9979 17.8149 35.0786 17.6941 35.1804 17.5923C35.2821 17.4906 35.4029 17.4099 35.5359 17.3548C35.6688 17.2998 35.8113 17.2715 35.9552 17.2716C42.2584 17.2716 46.4635 15.9631 48.8145 13.2661C48.9205 13.1537 49.0484 13.0642 49.1902 13.0029C49.3321 12.9417 49.485 12.9102 49.6395 12.9102C49.794 12.9102 49.9469 12.9417 50.0888 13.0029C50.2307 13.0642 50.3585 13.1537 50.4646 13.2661C52.8155 15.9631 57.0206 17.2716 63.3238 17.2716C63.6142 17.2722 63.8925 17.3878 64.0978 17.5932C64.3032 17.7985 64.4188 18.0768 64.4194 18.3672V27.1278C64.4194 36.5981 60.1478 42.786 50.1319 47.8206C49.9796 47.8991 49.8108 47.9402 49.6395 47.9403V47.9403Z" fill="url(#paint4_linear)"/>
<path fill-rule="evenodd" clip-rule="evenodd" d="M49.6396 36.1672C48.4232 36.1672 47.2342 35.8065 46.2228 35.1308C45.2114 34.455 44.4231 33.4945 43.9577 32.3707C43.4922 31.247 43.3704 30.0104 43.6077 28.8174C43.845 27.6244 44.4307 26.5286 45.2908 25.6685C46.1509 24.8084 47.2467 24.2227 48.4397 23.9854C49.6327 23.7481 50.8693 23.8699 51.993 24.3353C53.1168 24.8008 54.0773 25.5891 54.7531 26.6005C55.4288 27.6119 55.7895 28.8009 55.7895 30.0173C55.7895 31.6483 55.1415 33.2126 53.9882 34.3659C52.8349 35.5192 51.2706 36.1672 49.6396 36.1672V36.1672Z" fill="#72C472"/>
<path fill-rule="evenodd" clip-rule="evenodd" d="M52.4649 28.3131C52.3207 28.1689 52.125 28.0879 51.921 28.0879C51.717 28.0879 51.5214 28.1689 51.3771 28.3131L48.8414 30.8469L47.9255 29.9398C47.904 29.908 47.8799 29.8782 47.8532 29.8506C47.7099 29.707 47.5156 29.6259 47.3127 29.625C47.1099 29.624 46.9148 29.7033 46.7702 29.8455C46.6255 29.9878 46.543 30.1815 46.5406 30.3843C46.5382 30.5872 46.616 30.7828 46.7572 30.9285L46.748 30.9377L48.2998 32.4753C48.4441 32.6194 48.6398 32.7004 48.8439 32.7004C49.0479 32.7004 49.2436 32.6194 49.388 32.4753L52.4626 29.402L52.4649 29.4001C52.5364 29.3288 52.593 29.244 52.6317 29.1508C52.6703 29.0575 52.6902 28.9576 52.6902 28.8566C52.6902 28.7557 52.6703 28.6557 52.6317 28.5624C52.593 28.4692 52.5364 28.3844 52.4649 28.3131V28.3131Z" fill="white"/>
</g>
<defs>
<linearGradient id="paint0_linear" x1="47.8697" y1="-15.153" x2="51.8525" y2="130.615" gradientUnits="userSpaceOnUse">
<stop stop-color="#00ABDE"/>
<stop offset="1" stop-color="#007ED8"/>
</linearGradient>
<linearGradient id="paint1_linear" x1="47.5243" y1="72.5803" x2="41.9841" y2="65.0946" gradientUnits="userSpaceOnUse">
<stop offset="0.0024" stop-color="#50E6FF"/>
<stop offset="0.13844" stop-color="#61E8FF"/>
<stop offset="0.40787" stop-color="#8DEFFF"/>
<stop offset="0.7814" stop-color="#D4F9FF"/>
<stop offset="0.99436" stop-color="white"/>
</linearGradient>
<linearGradient id="paint2_linear" x1="54.8638" y1="72.5808" x2="49.3139" y2="65.1314" gradientUnits="userSpaceOnUse">
<stop offset="0.0024" stop-color="#50E6FF"/>
<stop offset="0.13844" stop-color="#61E8FF"/>
<stop offset="0.40787" stop-color="#8DEFFF"/>
<stop offset="0.7814" stop-color="#D4F9FF"/>
<stop offset="0.99436" stop-color="white"/>
</linearGradient>
<linearGradient id="paint3_linear" x1="52.7249" y1="65.2203" x2="50.9064" y2="57.9228" gradientUnits="userSpaceOnUse">
<stop offset="0.0024" stop-color="#50E6FF"/>
<stop offset="0.13844" stop-color="#61E8FF"/>
<stop offset="0.40787" stop-color="#8DEFFF"/>
<stop offset="0.7814" stop-color="#D4F9FF"/>
<stop offset="0.99436" stop-color="white"/>
</linearGradient>
<linearGradient id="paint4_linear" x1="59.3672" y1="42.5817" x2="42.481" y2="13.334" gradientUnits="userSpaceOnUse">
<stop stop-color="#007ED8"/>
<stop offset="1" stop-color="#00ABDE"/>
</linearGradient>
<clipPath id="clip0">
<rect width="99.2799" height="99.28" fill="white"/>
</clipPath>
</defs>
</svg>
