<svg width="103" height="103" fill="none" xmlns="http://www.w3.org/2000/svg"><path d="M51.377 98.805c-25.85 0-46.81-20.95-46.81-46.81 0-25.86 20.96-46.81 46.81-46.81s46.81 20.96 46.81 46.81-20.96 46.81-46.81 46.81Z" fill="url(#a)"/><path fill-rule="evenodd" clip-rule="evenodd" d="M97.277 51.995c0 25.35-20.55 45.9-45.9 45.9-25.35 0-45.9-20.55-45.9-45.9 0-25.35 20.55-45.9 45.9-45.9 25.35 0 45.9 20.55 45.9 45.9Zm-45.9-49.64c27.42 0 49.64 22.22 49.64 49.64s-22.23 49.64-49.64 49.64c-27.42 0-49.64-22.23-49.64-49.64 0-27.42 22.22-49.64 49.64-49.64Z" fill="#F2F1F0"/><path fill-rule="evenodd" clip-rule="evenodd" d="M94.467 51.996c0 23.8-19.29 43.09-43.09 43.09-23.8 0-43.09-19.29-43.09-43.09 0-23.8 19.29-43.09 43.09-43.09 23.8 0 43.09 19.29 43.09 43.09Zm-43.09-46.83c25.86 0 46.83 20.97 46.83 46.83s-20.97 46.83-46.83 46.83-46.83-20.97-46.83-46.83 20.96-46.83 46.83-46.83Z" fill="url(#b)"/><path d="m64.62 46.162-5.204-2.992a.45.45 0 0 0-.67.387v1.502l-12.677-.02v3.031c.168.013.084.013 0 .02v.012h12.677v1.49c0 .342.367.554.664.387l5.203-2.94a.506.506 0 0 0 .007-.877Z" fill="#F2F1F0"/><path fill-rule="evenodd" clip-rule="evenodd" d="M43.341 47.108v-5.81a1.55 1.55 0 0 0-1.55-1.54h-21.23a1.55 1.55 0 0 0-1.55 1.54v5.82h-5.09a1.54 1.54 0 0 0-1.54 1.54v12.39a1.54 1.54 0 0 0 1.54 1.54h5.83v5.09a1.56 1.56 0 0 0 1.55 1.55h20.48a1.56 1.56 0 0 0 1.55-1.55v-20.57h.01Z" fill="#000" fill-opacity=".103"/><path fill-rule="evenodd" clip-rule="evenodd" d="M21.305 37.908h20.492c.851 0 1.548.697 1.548 1.548v26.389c0 .85-.697 1.547-1.548 1.547H21.305a1.552 1.552 0 0 1-1.548-1.547v-26.39c0-.85.681-1.547 1.548-1.547Z" fill="#195C37"/><path d="M43.345 52.643H31.55v7.367h11.794v-7.367Z" fill="#107B42"/><path d="M43.345 45.275H31.55v7.368h11.794v-7.368Z" fill="#22A366"/><path d="M31.551 45.275H19.014v7.368h12.537v-7.368Z" fill="#117740"/><path fill-rule="evenodd" clip-rule="evenodd" d="M31.551 37.908h10.246c.851 0 1.548.697 1.548 1.548v5.82H31.55v-7.368Z" fill="#34C481"/><path fill-rule="evenodd" clip-rule="evenodd" d="M31.551 37.908H20.562c-.851 0-1.548.697-1.548 1.548v5.82h12.537v-7.368Z" fill="#21A465"/><path fill-rule="evenodd" clip-rule="evenodd" d="M13.93 45.28h13.124c.851 0 1.548.696 1.548 1.547v12.382c0 .851-.697 1.548-1.548 1.548H13.929a1.552 1.552 0 0 1-1.548-1.548V46.827c0-.851.697-1.548 1.548-1.548Z" fill="#137F47"/><path fill-rule="evenodd" clip-rule="evenodd" d="m19.037 53.42-2.678-4.457h2.105l1.827 3.374 1.826-3.374h1.95l-2.708 4.395 2.816 4.458h-2.197l-1.811-3.622-1.842 3.622h-2.244l2.956-4.396Z" fill="#fff"/><path d="M85.453 37.373h-8.14a2 2 0 0 0-2 2v6.22h-5.08a1.73 1.73 0 0 0-1.72 1.72v6.17h-4.24a2.24 2.24 0 0 0-2.24 2.24v11.61a2.239 2.239 0 0 0 2.24 2.24h21.15a2 2 0 0 0 2-2v-28.25a2 2 0 0 0-1.97-1.95Z" fill="#000" fill-opacity=".103"/><path d="M85.417 67.96H75.313V37.732c0-1.088.884-1.971 1.971-1.971h8.133c1.088 0 1.971.883 1.971 1.97v28.256a1.972 1.972 0 0 1-1.97 1.971Z" fill="url(#c)"/><path d="M78.874 67.959H68.517V45.698c0-.947.77-1.718 1.717-1.718h8.636c.947 0 1.717.77 1.717 1.718v20.539a1.713 1.713 0 0 1-1.713 1.722Z" fill="url(#d)"/><path d="M71.87 67.959H64.27a2.237 2.237 0 0 1-2.238-2.239V54.108a2.237 2.237 0 0 1 2.238-2.239h7.603a2.237 2.237 0 0 1 2.239 2.239V65.72a2.244 2.244 0 0 1-2.243 2.238Z" fill="url(#e)"/><defs><linearGradient id="a" x1="49.603" y1="-12.794" x2="53.585" y2="132.976" gradientUnits="userSpaceOnUse"><stop stop-color="#00ABDE"/><stop offset="1" stop-color="#007ED8"/></linearGradient><linearGradient id="b" x1="2.807" y1="-19.627" x2="98.335" y2="121.255" gradientUnits="userSpaceOnUse"><stop stop-color="#007ED8"/><stop offset=".707" stop-color="#002D4C"/></linearGradient><linearGradient id="c" x1="81.216" y1="38.707" x2="81.473" y2="65.422" gradientUnits="userSpaceOnUse"><stop offset=".008" stop-color="#E0A310"/><stop offset="1" stop-color="#CA810E"/></linearGradient><linearGradient id="d" x1="74.231" y1="44.915" x2="75.001" y2="73.171" gradientUnits="userSpaceOnUse"><stop offset=".008" stop-color="#F2CC40"/><stop offset="1" stop-color="#E7B116"/></linearGradient><linearGradient id="e" x1="67.782" y1="53.108" x2="68.553" y2="71.346" gradientUnits="userSpaceOnUse"><stop stop-color="#F8E17B"/><stop offset=".53" stop-color="#F6D856"/><stop offset="1" stop-color="#F6D856"/></linearGradient></defs></svg>