<svg width="100" height="100" viewBox="0 0 100 100" fill="none" xmlns="http://www.w3.org/2000/svg">
<g clip-path="url(#clip0)">
<path d="M49.6401 96.4501C40.382 96.4501 31.3317 93.7047 23.6339 88.5612C15.936 83.4176 9.93624 76.1069 6.3933 67.5535C2.85036 59.0001 1.92337 49.5882 3.72954 40.5079C5.53571 31.4277 9.99394 23.0869 16.5404 16.5404C23.0869 9.99394 31.4277 5.53571 40.5079 3.72954C49.5882 1.92337 59.0001 2.85036 67.5535 6.3933C76.1069 9.93624 83.4176 15.936 88.5612 23.6339C93.7047 31.3317 96.4501 40.382 96.4501 49.6401C96.4505 55.7874 95.24 61.8746 92.8878 67.554C90.5355 73.2335 87.0875 78.3939 82.7407 82.7407C78.3939 87.0875 73.2335 90.5355 67.554 92.8878C61.8746 95.24 55.7874 96.4505 49.6401 96.4501V96.4501Z" fill="url(#paint0_linear)"/>
<path fill-rule="evenodd" clip-rule="evenodd" d="M95.54 49.64C95.54 58.7182 92.848 67.5924 87.8045 75.1407C82.7609 82.6889 75.5923 88.572 67.2052 92.0461C58.818 95.5201 49.5891 96.4291 40.6854 94.658C31.7816 92.887 23.603 88.5154 17.1838 82.0962C10.7646 75.677 6.39302 67.4984 4.62196 58.5946C2.85089 49.6909 3.75987 40.462 7.23393 32.0748C10.708 23.6877 16.5911 16.5191 24.1393 11.4755C31.6875 6.43198 40.5618 3.73999 49.64 3.73999C55.6677 3.73997 61.6363 4.92719 67.2052 7.23387C72.774 9.54056 77.834 12.9215 82.0963 17.1837C86.3585 21.446 89.7394 26.5059 92.0461 32.0748C94.3528 37.6436 95.54 43.6123 95.54 49.64V49.64ZM49.64 3.62732e-07C59.4579 3.62732e-07 69.0552 2.91134 77.2185 8.36585C85.3818 13.8204 91.7442 21.5731 95.5014 30.6436C99.2585 39.7141 100.242 49.6951 98.3262 59.3243C96.4108 68.9535 91.6831 77.7985 84.7408 84.7408C77.7985 91.6831 68.9535 96.4108 59.3243 98.3262C49.6951 100.242 39.7141 99.2585 30.6436 95.5014C21.5731 91.7442 13.8204 85.3818 8.36584 77.2185C2.91133 69.0552 -1.61629e-06 59.4579 3.61524e-07 49.64C-0.000786426 43.1209 1.28265 36.6656 3.77702 30.6427C6.27138 24.6197 9.92781 19.1471 14.5375 14.5375C19.1471 9.9278 24.6197 6.27138 30.6427 3.77701C36.6656 1.28265 43.121 -0.000787738 49.64 3.62732e-07V3.62732e-07Z" fill="#F2F1F0"/>
<path fill-rule="evenodd" clip-rule="evenodd" d="M92.7296 49.6405C92.7296 58.1629 90.2024 66.494 85.4676 73.5801C80.7328 80.6662 74.0031 86.1891 66.1294 89.4505C58.2557 92.7119 49.5918 93.5652 41.2331 91.9026C32.8745 90.24 25.1966 86.136 19.1703 80.1098C13.1441 74.0835 9.04017 66.4056 7.37753 58.047C5.7149 49.6883 6.56822 41.0244 9.8296 33.1507C13.091 25.277 18.6139 18.5473 25.7 13.8125C32.7862 9.07773 41.1172 6.55055 49.6396 6.55055C55.2983 6.5502 60.9017 7.66452 66.1298 9.82988C71.3579 11.9952 76.1082 15.1692 80.1096 19.1705C84.1109 23.1719 87.2849 27.9222 89.4502 33.1503C91.6156 38.3784 92.7299 43.9818 92.7296 49.6405ZM49.6396 2.81055C58.9017 2.81055 67.9558 5.55708 75.6569 10.7028C83.3581 15.8486 89.3604 23.1624 92.9049 31.7195C96.4493 40.2765 97.3767 49.6925 95.5697 58.7766C93.7628 67.8608 89.3027 76.2051 82.7534 82.7544C76.2041 89.3036 67.8598 93.7638 58.7757 95.5707C49.6915 97.3777 40.2756 96.4503 31.7185 92.9058C23.1614 89.3614 15.8476 83.3591 10.7018 75.6579C5.5561 67.9568 2.80957 58.9026 2.80957 49.6405C2.81076 37.2208 7.74501 25.3101 16.5271 16.5281C25.3091 7.74599 37.2198 2.81174 49.6396 2.81055V2.81055Z" fill="#0078D4"/>
<path fill-rule="evenodd" clip-rule="evenodd" d="M92.7296 49.6396C92.7296 58.162 90.2024 66.493 85.4676 73.5791C80.7328 80.6652 74.0031 86.1882 66.1294 89.4496C58.2557 92.711 49.5918 93.5643 41.2331 91.9016C32.8745 90.239 25.1966 86.1351 19.1703 80.1088C13.1441 74.0826 9.04017 66.4047 7.37753 58.0461C5.7149 49.6874 6.56822 41.0234 9.8296 33.1498C13.091 25.2761 18.6139 18.5464 25.7001 13.8116C32.7862 9.07679 41.1172 6.54961 49.6396 6.54961C55.2983 6.54927 60.9017 7.66359 66.1298 9.82894C71.3579 11.9943 76.1082 15.1683 80.1096 19.1696C84.1109 23.171 87.2849 27.9213 89.4502 33.1494C91.6156 38.3774 92.7299 43.9809 92.7296 49.6396V49.6396ZM49.6396 2.80961C58.9017 2.80961 67.9558 5.55614 75.6569 10.7019C83.3581 15.8476 89.3604 23.1615 92.9048 31.7185C96.4493 40.2756 97.3767 49.6916 95.5697 58.7757C93.7628 67.8598 89.3027 76.2041 82.7534 82.7534C76.2041 89.3027 67.8598 93.7628 58.7757 95.5698C49.6915 97.3767 40.2756 96.4493 31.7185 92.9049C23.1614 89.3604 15.8476 83.3581 10.7018 75.657C5.5561 67.9558 2.80957 58.9017 2.80957 49.6396C2.81075 37.2199 7.74499 25.3092 16.5271 16.5271C25.3091 7.74501 37.2198 2.81076 49.6396 2.80957V2.80961Z" fill="#0078D4"/>
<path d="M25.4034 31.2119C24.2358 31.2153 23.1169 31.6807 22.2913 32.5063C21.4656 33.332 21.0002 34.4508 20.9968 35.6185V66.4644H78.2821V35.6185C78.2787 34.4508 77.8133 33.332 76.9877 32.5063C76.162 31.6807 75.0432 31.2153 73.8755 31.2119H25.4034ZM73.8755 33.4152C74.4596 33.416 75.0196 33.6483 75.4326 34.0614C75.8456 34.4744 76.078 35.0344 76.0788 35.6185V64.2611H23.2001V35.6185C23.2007 35.0343 23.433 34.4742 23.8461 34.0612C24.2592 33.6481 24.8192 33.4158 25.4034 33.4152H73.8755Z" fill="url(#paint1_linear)"/>
<path d="M23.2002 35.6193C23.2008 35.0351 23.4331 34.475 23.8462 34.062C24.2593 33.6489 24.8193 33.4166 25.4035 33.416H73.8756C74.4597 33.4168 75.0197 33.6492 75.4327 34.0622C75.8457 34.4752 76.0781 35.0352 76.0789 35.6193V64.2619H23.2002V35.6193Z" fill="url(#paint2_linear)"/>
<path d="M14.387 66.4648V67.5665C14.3904 68.7341 14.8557 69.853 15.6814 70.6786C16.507 71.5043 17.6259 71.9696 18.7935 71.9731H80.4853C81.653 71.9696 82.7718 71.5043 83.5974 70.6786C84.4231 69.853 84.8885 68.7341 84.8919 67.5665V66.4648H14.387Z" fill="url(#paint3_linear)"/>
<path fill-rule="evenodd" clip-rule="evenodd" d="M45.2328 68.6681H54.0459C54.6302 68.6679 55.1905 68.4357 55.6036 68.0226C56.0168 67.6094 56.249 67.0491 56.2492 66.4648H43.0295C43.0296 67.0492 43.2617 67.6096 43.6749 68.0228C44.0881 68.436 44.6485 68.6681 45.2328 68.6681Z" fill="#003067"/>
<path d="M56.8994 59.875H49.2607V37.8839C49.2613 37.6271 49.3636 37.381 49.5452 37.1995C49.7268 37.0179 49.9729 36.9156 50.2296 36.915H56.8994C57.1562 36.9156 57.4023 37.0179 57.5839 37.1995C57.7655 37.381 57.8677 37.6271 57.8683 37.8839V58.9061C57.8688 59.0335 57.8441 59.1597 57.7956 59.2775C57.7471 59.3953 57.6758 59.5024 57.5857 59.5924C57.4956 59.6825 57.3886 59.7539 57.2708 59.8024C57.153 59.8509 57.0268 59.8756 56.8994 59.875V59.875Z" fill="url(#paint4_linear)"/>
<path opacity="0.2" d="M48.8801 59.875H53.3283C53.6624 59.4472 53.8447 58.9205 53.8468 58.3777V44.2736C53.8468 44.0771 53.8081 43.8825 53.7329 43.701C53.6578 43.5195 53.5475 43.3545 53.4086 43.2156C53.2697 43.0766 53.1047 42.9664 52.9232 42.8912C52.7416 42.816 52.5471 42.7773 52.3506 42.7773H48.8801V59.875Z" fill="#D15900"/>
<path d="M51.5507 59.875H44.4111V44.2503C44.4115 43.8598 44.5668 43.4853 44.843 43.2092C45.1191 42.933 45.4935 42.7777 45.8841 42.7773H51.5507C51.9412 42.7777 52.3156 42.933 52.5917 43.2092C52.8679 43.4853 53.0232 43.8598 53.0236 44.2503V58.4021C53.0238 58.5956 52.9859 58.7872 52.9119 58.966C52.838 59.1448 52.7295 59.3073 52.5927 59.4441C52.4558 59.5809 52.2934 59.6894 52.1146 59.7634C51.9358 59.8373 51.7442 59.8753 51.5507 59.875V59.875Z" fill="url(#paint5_linear)"/>
<path opacity="0.2" d="M44.4111 59.8755H48.8593C49.1934 59.4476 49.3757 58.9209 49.3778 58.3782V49.9015C49.3778 49.705 49.3391 49.5105 49.2639 49.3289C49.1888 49.1474 49.0785 48.9825 48.9396 48.8435C48.8007 48.7046 48.6357 48.5944 48.4542 48.5192C48.2726 48.444 48.0781 48.4053 47.8816 48.4053H44.4111V59.8755Z" fill="url(#paint6_linear)"/>
<path d="M46.897 59.8755H41.2892C40.8907 59.8754 40.5087 59.7171 40.227 59.4354C39.9453 59.1537 39.787 58.7716 39.7869 58.3732V49.9076C39.7869 49.5092 39.9453 49.1271 40.227 48.8454C40.5087 48.5637 40.8907 48.4054 41.2892 48.4053H46.897C47.2954 48.4054 47.6775 48.5637 47.9592 48.8454C48.2409 49.1271 48.3992 49.5092 48.3993 49.9076V58.3781C48.3982 58.7758 48.2394 59.1567 47.9578 59.4374C47.6761 59.7182 47.2947 59.8757 46.897 59.8755V59.8755Z" fill="url(#paint7_linear)"/>
<path opacity="0.2" d="M73.8755 31.2119H23.1711V32.6218C23.1722 33.7837 23.6342 34.8977 24.4557 35.7194C25.2772 36.5411 26.3911 37.0033 27.553 37.0047H28.4348C29.2161 38.8106 30.6583 40.2495 32.4661 41.0267C33.4163 41.4353 34.4405 41.644 35.4749 41.6399H35.4944L35.5598 41.6389C36.4757 41.6208 37.3817 41.4459 38.2385 41.1219C39.1122 40.7883 39.9164 40.2958 40.6106 39.6692C41.1325 39.1989 41.5875 38.6594 41.9631 38.0657C42.6471 37.9598 43.3142 37.7648 43.9475 37.4856C44.8977 37.0698 45.7639 36.4836 46.5032 35.7561C47.1404 35.1232 47.6688 34.3894 48.0669 33.5844C48.1915 34.7897 48.7575 35.9063 49.656 36.7194C50.5544 37.5325 51.7219 37.9845 52.9336 37.9885H54.6045C55.3293 39.2387 56.3698 40.2765 57.6217 40.9983C58.8737 41.7201 60.2932 42.1004 61.7383 42.1013H62.0879C63.1708 42.1042 64.2435 41.8923 65.2439 41.4778C66.2443 41.0632 67.1526 40.4543 67.916 39.6863C68.2389 39.3636 68.5336 39.0139 68.7969 38.6409C70.4615 38.5483 72.0321 37.8391 73.2023 36.6516C74.3726 35.4641 75.0587 33.8834 75.1269 32.2175V31.3944L73.8755 31.2119Z" fill="#003067"/>
<path d="M35.4753 39.64C34.7136 39.6438 33.9593 39.4908 33.2593 39.1907C31.9133 38.6137 30.8409 37.5409 30.2645 36.1947C30.0997 35.8129 29.9787 35.4137 29.9038 35.0048H27.5531C26.9216 35.0035 26.3164 34.7521 25.8699 34.3055C25.4234 33.859 25.172 33.2537 25.1709 32.6222V24.8909C25.172 24.2595 25.4233 23.6542 25.8698 23.2077C26.3163 22.7612 26.9216 22.5099 27.5531 22.5088H29.0021C29.1167 22.1711 29.2592 21.8436 29.4281 21.5295C29.8111 20.8144 30.3134 20.1699 30.9133 19.6238C31.5232 19.0693 32.2305 18.6326 32.9994 18.3358C33.785 18.0342 34.6188 17.8774 35.4603 17.8731C36.3614 17.8686 37.2542 18.0441 38.0865 18.3892C38.9188 18.7343 39.6739 19.2421 40.3073 19.8828C40.9185 20.5034 41.4088 21.2323 41.7532 22.0323C42.006 22.6177 42.1731 23.2365 42.2493 23.8695C42.5379 23.9447 42.8206 24.0411 43.0951 24.1578C44.5886 24.7829 45.7831 25.9606 46.4294 27.4452C46.7696 28.224 46.9429 29.0656 46.9381 29.9155C46.9407 30.7372 46.7794 31.551 46.4635 32.3095C46.1476 33.068 45.6836 33.7558 45.0985 34.3326C44.5321 34.8894 43.8686 35.3378 43.1408 35.6556C42.3744 35.9917 41.5466 36.1647 40.7098 36.1635C40.6515 36.3021 40.5877 36.4381 40.5184 36.5715C40.2026 37.179 39.7803 37.725 39.2718 38.1835C38.7611 38.6451 38.1691 39.0078 37.5259 39.2533C36.882 39.4961 36.2012 39.6267 35.5131 39.6396L35.4942 39.64H35.4753Z" fill="url(#paint8_linear)"/>
<path d="M45.325 29.9158C45.3292 30.5348 45.206 31.1481 44.9629 31.7174C44.7298 32.2665 44.3915 32.7647 43.9671 33.184C43.5402 33.6034 43.04 33.9409 42.4914 34.1799C41.9236 34.4287 41.3097 34.5551 40.6898 34.551C40.2925 34.5504 39.8969 34.4987 39.5129 34.3971C39.4626 34.8965 39.3182 35.3819 39.0874 35.8275C38.8607 36.2646 38.5571 36.6572 38.1911 36.9864C37.8286 37.3148 37.4079 37.5728 36.9508 37.7468C36.4787 37.9244 35.9795 38.0194 35.4751 38.0275C34.9338 38.0315 34.3975 37.9237 33.8998 37.7106C33.1661 37.3982 32.54 36.8775 32.0991 36.2129C31.6582 35.5484 31.4218 34.7691 31.4192 33.9716C31.4192 33.8751 31.4222 33.7785 31.4282 33.6819C31.4344 33.5847 31.4465 33.488 31.4645 33.3922H27.5535C27.3496 33.3914 27.1544 33.31 27.0103 33.1659C26.8661 33.0218 26.7848 32.8265 26.7839 32.6227V24.8912C26.7848 24.6874 26.8661 24.4922 27.0103 24.348C27.1544 24.2039 27.3496 24.1226 27.5535 24.1217H30.2875C30.3545 23.4815 30.5452 22.8605 30.8489 22.2929C31.1449 21.7389 31.5338 21.2398 31.9986 20.8173C32.4615 20.3959 32.9988 20.0643 33.5829 19.8395C34.1869 19.6078 34.8281 19.4881 35.4751 19.4864C36.1718 19.4821 36.862 19.6208 37.503 19.8938C38.1232 20.1563 38.6861 20.5377 39.1597 21.0164C39.6312 21.4942 40.0089 22.0562 40.2733 22.6732C40.5476 23.3141 40.6893 24.0039 40.6897 24.7011C40.6897 24.7977 40.6867 24.8942 40.6807 24.9908C40.6747 25.0874 40.6656 25.1839 40.6535 25.2805C41.2754 25.2769 41.8915 25.4001 42.4642 25.6426C43.5803 26.1074 44.4727 26.9869 44.9538 28.0961C45.2039 28.6699 45.3304 29.2899 45.325 29.9158V29.9158ZM35.475 20.6452C34.9861 20.643 34.501 20.7321 34.0446 20.9078C33.5993 21.0785 33.186 21.3234 32.8224 21.632C32.4595 21.9408 32.1585 22.3156 31.9352 22.7365C31.7043 23.1697 31.5453 23.6375 31.4645 24.1217H35.2849C35.4888 24.1226 35.684 24.2039 35.8281 24.348C35.9723 24.4922 36.0536 24.6874 36.0545 24.8912V28.7117L36.2174 28.6845C36.3252 28.3002 36.4835 27.9318 36.6882 27.5891C36.8914 27.2476 37.1346 26.9316 37.4125 26.6476C37.6922 26.3622 38.0089 26.1156 38.354 25.9142C38.7004 25.7106 39.0717 25.5523 39.4585 25.4435C39.5054 25.1988 39.5296 24.9503 39.5309 24.7011C39.535 24.1598 39.4271 23.6235 39.2141 23.1258C38.9016 22.3921 38.3809 21.766 37.7164 21.3251C37.0518 20.8842 36.2726 20.6478 35.4751 20.6452H35.475ZM31.5097 31.7717C31.7834 31.7721 32.0564 31.7448 32.3245 31.6902C32.5818 31.6392 32.8274 31.541 33.0488 31.4005C33.2583 31.2697 33.4325 31.0894 33.5558 30.8754C33.6868 30.6238 33.7552 30.3443 33.755 30.0606C33.7654 29.7758 33.6964 29.4937 33.5558 29.2458C33.4245 29.0301 33.2485 28.8449 33.0398 28.7026C32.8335 28.5604 32.6118 28.442 32.3789 28.3496C32.1496 28.259 31.9293 28.1715 31.718 28.087C31.5393 28.0196 31.3692 27.9315 31.211 27.8245C31.1526 27.7866 31.1034 27.736 31.0674 27.6764C31.0313 27.6168 31.0092 27.5498 31.0028 27.4805C31.0009 27.4341 31.0097 27.388 31.0285 27.3456C31.0474 27.3032 31.0757 27.2657 31.1114 27.236C31.1882 27.173 31.2736 27.1212 31.3649 27.0821C31.4653 27.039 31.5727 27.0145 31.6818 27.0097C31.7965 27.0037 31.887 26.9976 31.9534 26.9916C32.2295 26.9869 32.5047 27.0266 32.7682 27.1093C33.0255 27.1982 33.2715 27.3167 33.5015 27.4624V26.0863C33.3566 26.044 33.2239 26.0078 33.1032 25.9776C32.9808 25.9471 32.8569 25.923 32.732 25.9052C32.6052 25.8871 32.4815 25.872 32.3608 25.8599C32.2401 25.8479 32.0952 25.8418 31.9262 25.8418C31.6522 25.8428 31.379 25.8731 31.1114 25.9324C30.8469 25.9876 30.5932 26.0855 30.36 26.2221C30.1386 26.3531 29.9498 26.5326 29.8078 26.7472C29.6571 26.9849 29.5814 27.2625 29.5905 27.5439C29.5805 27.8143 29.6497 28.0817 29.7897 28.3134C29.9249 28.5211 30.1003 28.6996 30.3057 28.8385C30.5131 28.9812 30.7346 29.1026 30.9665 29.2006C31.1959 29.2972 31.4162 29.3907 31.6274 29.4812C31.8071 29.5541 31.9773 29.6483 32.1344 29.7619C32.1927 29.8021 32.2415 29.8545 32.2774 29.9155C32.3134 29.9765 32.3357 30.0445 32.3427 30.115C32.3481 30.2137 32.3158 30.3109 32.2521 30.3866C32.1848 30.4575 32.1007 30.5104 32.0077 30.5405C31.9115 30.5753 31.811 30.5967 31.7089 30.6039L31.4192 30.622C31.0903 30.6284 30.7636 30.5667 30.4596 30.4409C30.1589 30.3074 29.871 30.1468 29.5995 29.9611V31.4096C30.2078 31.6496 30.8559 31.7725 31.5097 31.7717V31.7717ZM35.4751 36.8687C35.8608 36.8712 36.243 36.7942 36.5977 36.6424C36.9389 36.4974 37.2493 36.2884 37.512 36.0267C37.7761 35.7606 37.9879 35.4474 38.1367 35.1033C38.2937 34.7468 38.3739 34.3612 38.3721 33.9717C38.3741 33.3048 38.1436 32.6581 37.7203 32.1429C37.5108 31.8917 37.2634 31.6748 36.987 31.5001C36.7023 31.3187 36.3859 31.1927 36.0545 31.1289V32.6227C36.0536 32.8265 35.9723 33.0218 35.8281 33.1659C35.684 33.31 35.4888 33.3914 35.2849 33.3922H32.6323C32.5963 33.5833 32.5781 33.7773 32.578 33.9717C32.5755 34.3574 32.6525 34.7396 32.8044 35.0943C32.9507 35.4375 33.1594 35.7506 33.42 36.0177C33.6829 36.2856 33.9969 36.498 34.3434 36.6424C34.7014 36.7936 35.0864 36.8706 35.475 36.8687L35.4751 36.8687ZM40.6897 33.3922C41.1532 33.3949 41.6123 33.3025 42.0387 33.1206C42.4511 32.9464 42.8261 32.6943 43.1432 32.3783C43.4601 32.06 43.7149 31.6854 43.8946 31.2738C44.0827 30.8462 44.1754 30.3828 44.1662 29.9158C44.1689 29.4523 44.0764 28.9932 43.8946 28.5668C43.7203 28.1545 43.4683 27.7795 43.1522 27.4624C42.8317 27.144 42.4539 26.889 42.0387 26.7109C41.6138 26.5246 41.1537 26.4319 40.6897 26.4393C40.2291 26.436 39.7728 26.5285 39.3499 26.7109C38.5182 27.0718 37.8548 27.7352 37.4939 28.5668C37.3108 28.9931 37.2154 29.4519 37.2133 29.9158V30.115C37.2133 30.1818 37.2194 30.2484 37.2314 30.3141C37.5114 30.4507 37.7756 30.6176 38.019 30.8121C38.26 31.0047 38.4759 31.2267 38.6618 31.4729C38.85 31.7222 39.0137 31.989 39.1507 32.2696C39.2887 32.551 39.3892 32.8493 39.4494 33.1568C39.8446 33.312 40.2652 33.3919 40.6897 33.3922V33.3922Z" fill="url(#paint9_linear)"/>
<path d="M29.5903 39.3955V41.3955" stroke="white" stroke-linecap="round" stroke-linejoin="round"/>
<path d="M29.5903 41V46" stroke="white" stroke-linecap="round" stroke-linejoin="round" stroke-dasharray="2.42 2.42"/>
<path d="M29.5901 48.6475V50.6475H31.5901" stroke="white" stroke-linecap="round" stroke-linejoin="round"/>
<path d="M35.2131 50.6475H37.2131" stroke="white" stroke-linecap="round" stroke-linejoin="round"/>
<path d="M68.0715 39.3955V41.3955" stroke="white" stroke-linecap="round" stroke-linejoin="round"/>
<path d="M68.0715 40.5V46" stroke="white" stroke-linecap="round" stroke-linejoin="round" stroke-dasharray="2.42 2.42"/>
<path d="M68.072 48.6475V50.6475H66.072" stroke="white" stroke-linecap="round" stroke-linejoin="round"/>
<path d="M62.4487 50.6475H60.4487" stroke="white" stroke-linecap="round" stroke-linejoin="round"/>
<path d="M73.7329 27.0205C73.6534 26.319 73.3102 25.6739 72.7728 25.216C73.0901 24.4171 73.1421 23.5374 72.9211 22.7067C72.7 21.876 72.2178 21.1384 71.5454 20.6028C70.8731 20.0672 70.0463 19.762 69.1872 19.7323C68.3281 19.7026 67.4823 19.9499 66.7745 20.4378C66.2406 19.6435 65.477 19.0311 64.5858 18.6825C63.6945 18.3338 62.7181 18.2655 61.787 18.4866C60.8559 18.7077 60.0144 19.2077 59.375 19.9198C58.7357 20.6319 58.3289 21.5222 58.2091 22.4717H53.5526C52.7785 22.4726 52.0365 22.7805 51.4892 23.3279C50.9419 23.8753 50.6341 24.6174 50.6333 25.3914V33.0687C50.6341 33.8427 50.9419 34.5848 51.4892 35.1322C52.0365 35.6796 52.7785 35.9875 53.5526 35.9884H56.491C56.8017 36.8473 57.2978 37.6272 57.9439 38.2726C59.117 39.4394 60.7028 40.0965 62.3573 40.1012H62.7067C63.5269 40.1034 64.3393 39.9428 65.0971 39.6289C65.8548 39.3149 66.5427 38.8538 67.121 38.2722C67.5909 37.8008 67.9802 37.2554 68.2734 36.6579C68.415 36.6685 68.5577 36.6737 68.7012 36.6737C71.4827 36.6737 73.7454 34.6747 73.7454 32.2177V27.1296L73.7329 27.0205Z" fill="white"/>
<path d="M70.86 26.4911L66.2074 26.4887L65.6165 27.2398V32.218C65.7671 32.9243 66.1556 33.5575 66.717 34.0118C67.2784 34.466 67.9787 34.7139 68.7009 34.7139C69.4231 34.7139 70.1234 34.466 70.6848 34.0118C71.2462 33.5575 71.6347 32.9243 71.7854 32.218V27.2398C71.7596 27.0189 71.6483 26.8168 71.4754 26.6768C71.3024 26.5369 71.0815 26.4702 70.86 26.4911V26.4911Z" fill="#5059C9"/>
<path d="M69.0436 25.8031C69.4503 25.8031 69.8479 25.6825 70.186 25.4565C70.5242 25.2306 70.7878 24.9094 70.9434 24.5337C71.099 24.1579 71.1398 23.7445 71.0604 23.3456C70.9811 22.9467 70.7852 22.5803 70.4976 22.2927C70.2101 22.0051 69.8437 21.8093 69.4448 21.7299C69.0459 21.6506 68.6324 21.6913 68.2567 21.847C67.881 22.0026 67.5598 22.2662 67.3339 22.6043C67.1079 22.9425 66.9873 23.34 66.9873 23.7467C66.9873 24.0168 67.0405 24.2842 67.1438 24.5337C67.2472 24.7831 67.3986 25.0098 67.5896 25.2008C67.7805 25.3917 68.0072 25.5432 68.2567 25.6465C68.5062 25.7499 68.7736 25.8031 69.0436 25.8031Z" fill="#5059C9"/>
<path d="M58.0767 33.8611V27.2693C58.0767 27.0624 58.1589 26.864 58.3052 26.7177C58.4514 26.5714 58.6498 26.4893 58.8567 26.4893H66.2073C66.4142 26.4893 66.6126 26.5714 66.7589 26.7177C66.9051 26.864 66.9873 27.0623 66.9873 27.2692V33.8611C66.9873 34.9964 66.5363 36.0852 65.7336 36.8879C64.9308 37.6907 63.842 38.1417 62.7068 38.1417H62.3572C61.2219 38.1417 60.1332 37.6907 59.3304 36.8879C58.5277 36.0852 58.0767 34.9964 58.0767 33.8611L58.0767 33.8611Z" fill="#7B83EB"/>
<path d="M62.8748 25.8028C63.4171 25.8028 63.9472 25.642 64.3981 25.3408C64.8489 25.0395 65.2003 24.6113 65.4079 24.1103C65.6154 23.6093 65.6697 23.058 65.5639 22.5262C65.4581 21.9943 65.197 21.5058 64.8135 21.1224C64.4301 20.7389 63.9415 20.4778 63.4097 20.372C62.8778 20.2662 62.3266 20.3205 61.8256 20.528C61.3246 20.7356 60.8964 21.087 60.5951 21.5379C60.2939 21.9887 60.1331 22.5188 60.1331 23.0611C60.1331 23.7883 60.4219 24.4856 60.9361 24.9998C61.4503 25.514 62.1477 25.8028 62.8748 25.8028V25.8028Z" fill="#7B83EB"/>
<path opacity="0.5" d="M58.1623 34.7135H60.9711C62.0223 34.7135 62.8747 34.2978 62.8747 33.2372V26.4883H58.8675C58.4308 26.4883 58.0767 28.2133 58.0767 28.65V33.8601C58.0766 34.1467 58.1053 34.4326 58.1623 34.7135V34.7135Z" fill="black"/>
<path opacity="0.5" d="M62.8284 25.7989C62.7688 25.6028 62.648 25.431 62.4837 25.3085C62.3194 25.186 62.1202 25.1193 61.9153 25.1182H61.0786C61.5625 25.5457 62.1828 25.787 62.8284 25.7989V25.7989Z" fill="black"/>
<path d="M61.2298 24.4326H53.5529C53.2984 24.4326 53.0543 24.5337 52.8743 24.7137C52.6944 24.8936 52.5933 25.1377 52.5933 25.3922V33.0691C52.5933 33.3236 52.6944 33.5677 52.8743 33.7477C53.0543 33.9276 53.2984 34.0287 53.5529 34.0287H61.2298C61.4843 34.0287 61.7283 33.9276 61.9083 33.7477C62.0883 33.5677 62.1894 33.3236 62.1894 33.0691V25.3922C62.1894 25.1377 62.0883 24.8936 61.9083 24.7137C61.7283 24.5337 61.4843 24.4326 61.2298 24.4326Z" fill="#4B53BC"/>
<path d="M60.4688 27.2801H58.3364V32.6112H57.2702V27.2801H55.1377V26.2139H60.4688V27.2801Z" fill="white"/>
</g>
<defs>
<linearGradient id="paint0_linear" x1="47.8697" y1="-15.153" x2="51.8525" y2="130.615" gradientUnits="userSpaceOnUse">
<stop stop-color="#00ABDE"/>
<stop offset="1" stop-color="#007ED8"/>
</linearGradient>
<linearGradient id="paint1_linear" x1="49.6394" y1="66.4644" x2="49.6394" y2="31.1487" gradientUnits="userSpaceOnUse">
<stop stop-color="#003067"/>
<stop offset="0.16493" stop-color="#003F7C"/>
<stop offset="0.36216" stop-color="#004F90"/>
<stop offset="0.68089" stop-color="#00589D"/>
<stop offset="1" stop-color="#005BA1"/>
</linearGradient>
<linearGradient id="paint2_linear" x1="49.6395" y1="64.2619" x2="49.6395" y2="33.3607" gradientUnits="userSpaceOnUse">
<stop stop-color="#005BA1"/>
<stop offset="0.26" stop-color="#00589D"/>
<stop offset="0.53" stop-color="#004F90"/>
<stop offset="0.8" stop-color="#003F7C"/>
<stop offset="1" stop-color="#003067"/>
</linearGradient>
<linearGradient id="paint3_linear" x1="49.6394" y1="71.973" x2="49.6394" y2="66.4648" gradientUnits="userSpaceOnUse">
<stop stop-color="#004DAE"/>
<stop offset="0.21" stop-color="#0061C4"/>
<stop offset="0.51" stop-color="#0078DD"/>
<stop offset="0.78" stop-color="#0086EC"/>
<stop offset="1" stop-color="#008BF1"/>
</linearGradient>
<linearGradient id="paint4_linear" x1="53.4697" y1="39.0124" x2="53.6529" y2="58.0721" gradientUnits="userSpaceOnUse">
<stop offset="0.00754" stop-color="#E0A310"/>
<stop offset="1" stop-color="#CA810E"/>
</linearGradient>
<linearGradient id="paint5_linear" x1="48.4828" y1="43.4499" x2="49.0319" y2="63.5863" gradientUnits="userSpaceOnUse">
<stop offset="0.00754" stop-color="#F2CC40"/>
<stop offset="1" stop-color="#E7B116"/>
</linearGradient>
<linearGradient id="paint6_linear" x1="276.153" y1="725.012" x2="290.497" y2="578.022" gradientUnits="userSpaceOnUse">
<stop offset="0.00754" stop-color="#E0A310"/>
<stop offset="1" stop-color="#CA810E"/>
</linearGradient>
<linearGradient id="paint7_linear" x1="43.8879" y1="49.2838" x2="44.4379" y2="62.2996" gradientUnits="userSpaceOnUse">
<stop stop-color="#F8E17B"/>
<stop offset="0.5302" stop-color="#F6D856"/>
<stop offset="1" stop-color="#F6D856"/>
</linearGradient>
<linearGradient id="paint8_linear" x1="36.0545" y1="38.8587" x2="36.0545" y2="18.3473" gradientUnits="userSpaceOnUse">
<stop stop-color="#F2F2F2"/>
<stop offset="0.44" stop-color="#FBFBFB"/>
<stop offset="1" stop-color="white"/>
</linearGradient>
<linearGradient id="paint9_linear" x1="695.279" y1="724.562" x2="695.279" y2="380.787" gradientUnits="userSpaceOnUse">
<stop stop-color="#004DAE"/>
<stop offset="0.21" stop-color="#0061C4"/>
<stop offset="0.51" stop-color="#0078DD"/>
<stop offset="0.78" stop-color="#0086EC"/>
<stop offset="1" stop-color="#008BF1"/>
</linearGradient>
<clipPath id="clip0">
<rect width="99.2799" height="99.28" fill="white"/>
</clipPath>
</defs>
</svg>
