<?xml version="1.0" encoding="UTF-8"?>
<svg width="102px" height="102px" viewBox="0 0 102 102" version="1.1" xmlns="http://www.w3.org/2000/svg" xmlns:xlink="http://www.w3.org/1999/xlink">
    <title>Use DAX in Power BI Desktop/m5-modify-dax-filter-context-in-power-bi-desktop-models</title>
    <defs>
        <rect id="path-1" x="0" y="0" width="94.3396226" height="94.3396226" rx="47.1698113"></rect>
        <filter x="-2.9%" y="-2.9%" width="106.4%" height="106.4%" filterUnits="objectBoundingBox" id="filter-3">
            <feMorphology radius="2.5" operator="dilate" in="SourceAlpha" result="shadowSpreadOuter1"></feMorphology>
            <feOffset dx="0.5" dy="0.5" in="shadowSpreadOuter1" result="shadowOffsetOuter1"></feOffset>
            <feMorphology radius="1" operator="erode" in="SourceAlpha" result="shadowInner"></feMorphology>
            <feOffset dx="0.5" dy="0.5" in="shadowInner" result="shadowInner"></feOffset>
            <feComposite in="shadowOffsetOuter1" in2="shadowInner" operator="out" result="shadowOffsetOuter1"></feComposite>
            <feColorMatrix values="0 0 0 0 0.821822822   0 0 0 0 0.831640661   0 0 0 0 0.835737288  0 0 0 1 0" type="matrix" in="shadowOffsetOuter1"></feColorMatrix>
        </filter>
        <linearGradient x1="50%" y1="0%" x2="50%" y2="100%" id="linearGradient-4">
            <stop stop-color="#4E4E57" offset="0%"></stop>
            <stop stop-color="#2E2E34" offset="100%"></stop>
        </linearGradient>
        <rect id="path-5" x="0" y="0" width="94.3396226" height="94.3396226"></rect>
        <path d="M48.1132075,0.739331515 C74.2770768,0.739331515 95.4870836,21.9493383 95.4870836,48.1132075 C95.4870836,74.2770768 74.2770768,95.4870836 48.1132075,95.4870836 C21.9493383,95.4870836 0.739331515,74.2770768 0.739331515,48.1132075 C0.739331515,21.9493383 21.9493383,0.739331515 48.1132075,0.739331515 Z M48.1132075,4.71698113 C24.1461335,4.71698113 4.71698113,24.1461335 4.71698113,48.1132075 C4.71698113,72.0802816 24.1461335,91.509434 48.1132075,91.509434 C72.0802816,91.509434 91.509434,72.0802816 91.509434,48.1132075 C91.509434,24.1461335 72.0802816,4.71698113 48.1132075,4.71698113 Z" id="path-6"></path>
        <linearGradient x1="50%" y1="0.670396959%" x2="50%" y2="100%" id="linearGradient-8">
            <stop stop-color="#6A6A6A" offset="0%"></stop>
            <stop stop-color="#343333" offset="100%"></stop>
        </linearGradient>
        <linearGradient x1="50%" y1="100%" x2="50%" y2="0%" id="linearGradient-9">
            <stop stop-color="#CCCCCC" offset="15%"></stop>
            <stop stop-color="#707070" offset="100%"></stop>
        </linearGradient>
        <filter x="-30.0%" y="-24.5%" width="160.0%" height="149.0%" filterUnits="objectBoundingBox" id="filter-10">
            <feOffset dx="0" dy="2" in="SourceAlpha" result="shadowOffsetOuter1"></feOffset>
            <feGaussianBlur stdDeviation="2" in="shadowOffsetOuter1" result="shadowBlurOuter1"></feGaussianBlur>
            <feColorMatrix values="0 0 0 0 0   0 0 0 0 0   0 0 0 0 0  0 0 0 0.1 0" type="matrix" in="shadowBlurOuter1" result="shadowMatrixOuter1"></feColorMatrix>
            <feMerge>
                <feMergeNode in="shadowMatrixOuter1"></feMergeNode>
                <feMergeNode in="SourceGraphic"></feMergeNode>
            </feMerge>
        </filter>
        <linearGradient x1="50%" y1="100%" x2="50%" y2="0%" id="linearGradient-11">
            <stop stop-color="#D2EBFF" offset="0%"></stop>
            <stop stop-color="#F0FFFD" offset="100%"></stop>
        </linearGradient>
        <linearGradient x1="-78.2380608%" y1="50%" x2="100%" y2="50%" id="linearGradient-12">
            <stop stop-color="#C28626" offset="0%"></stop>
            <stop stop-color="#EFB252" offset="100%"></stop>
        </linearGradient>
    </defs>
    <g id="Badges" stroke="none" stroke-width="1" fill="none" fill-rule="evenodd">
        <g id="Use-DAX-in-Power-BI-Desktop" transform="translate(-159.000000, -1079.000000)">
            <g id="Use-DAX-in-Power-BI-Desktop/m5-modify-dax-filter-context-in-power-bi-desktop-models" transform="translate(160.000000, 1080.000000)">
                <g id="Badge-Plates/Circle">
                    <g id="BG" transform="translate(2.830189, 2.830189)">
                        <mask id="mask-2" fill="white">
                            <use xlink:href="#path-1"></use>
                        </mask>
                        <g>
                            <use fill="black" fill-opacity="1" filter="url(#filter-3)" xlink:href="#path-1"></use>
                            <rect stroke="#F2F1F0" stroke-width="2.5" x="-1.25" y="-1.25" width="96.8396226" height="96.8396226" rx="48.4198113"></rect>
                        </g>
                        <g id="Colors/Power-BI/BG-Solid-1" mask="url(#mask-2)">
                            <rect id="Rectangle" fill="url(#linearGradient-4)" x="0" y="0" width="94.3396226" height="94.3396226"></rect>
                            <g id="Rectangle">
                                <use fill="#F2C811" xlink:href="#path-5"></use>
                                <use fill-opacity="0.501092657" fill="#FFFFFF" xlink:href="#path-5"></use>
                            </g>
                        </g>
                    </g>
                    <g id="Border" transform="translate(1.886792, 1.886792)">
                        <mask id="mask-7" fill="white">
                            <use xlink:href="#path-6"></use>
                        </mask>
                        <use id="Boarder" fill="#0078D4" fill-rule="nonzero" xlink:href="#path-6"></use>
                        <g id="Colors/Power-BI/Border" mask="url(#mask-7)" fill="#F3C900">
                            <g transform="translate(-1.886792, -1.886792)" id="Rectangle">
                                <rect x="0" y="0" width="100" height="100"></rect>
                            </g>
                        </g>
                    </g>
                </g>
                <g id="Group" transform="translate(17.000000, 22.000000)" fill-rule="nonzero">
                    <g id="Computer">
                        <rect id="Rectangle" fill="url(#linearGradient-8)" x="0" y="0" width="66" height="45.8644068" rx="0.6"></rect>
                        <path d="M47.020283,59.8969872 C40.3830225,58.8145843 40.1220066,53.8664568 40.1220066,45.8644068 L26.9593495,45.8644068 C26.9593495,53.8664568 26.7356216,58.8145843 20.098361,59.8969872 C18.2006454,60.1146859 16.7681482,61.7833381 16.779661,63.7627119 L50.3389831,63.7627119 C50.3504958,61.7833381 48.9179986,60.1146859 47.020283,59.8969872 Z" id="Path" fill="url(#linearGradient-9)"></path>
                    </g>
                </g>
                <g id="Group" filter="url(#filter-10)" transform="translate(30.000000, 19.000000)">
                    <ellipse id="Oval" fill="#C9E3F2" cx="20.2" cy="16" rx="18.2" ry="7.2"></ellipse>
                    <path d="M0,15.5 C0,16.43752 0.304688,17.25468 0.82812,17.97188 L0.8374952,18 L14.999896,35.5 L14.999896,48.8644068 C16.6260187,48.8644068 18.3593867,48.8644068 20.2,48.8644068 C22.0406133,48.8644068 23.6405787,48.8644068 24.999896,48.8644068 L24.999896,35.5 L39.162292,18 L39.171668,17.97188 C39.695108,17.25468 39.999788,16.43752 39.999788,15.5 C39.999788,8.2092 22.046588,8 19.999788,8 C17.95312,8 0,8.209376 0,15.5 Z M20,20.5 C10.3344,20.5 2.5,18.26092 2.5,15.5 C2.5,12.73908 10.3344,10.5 20,10.5 C29.6656,10.5 37.5,12.73908 37.5,15.5 C37.5,18.26092 29.6656,20.5 20,20.5 Z M20,20.5 C10.3344,20.5 2.5,18.26092 2.5,15.5 C2.5,12.73908 10.3344,10.5 20,10.5 C29.6656,10.5 37.5,12.73908 37.5,15.5 C37.5,18.26092 29.6656,20.5 20,20.5 Z" id="Fill-1" fill="url(#linearGradient-11)"></path>
                    <g id="Group-9" transform="translate(3.999894, 0.376874)" fill-rule="nonzero">
                        <path d="M1.96813309,20.7719298 L29.4243828,20.7719298 C31.2790401,20.7719298 31.4901294,20.1478804 31.4901294,18.2757322 L31.4901294,2 C31.4901294,0.8954305 30.5946989,-2.02906125e-16 29.4901294,0 L2,0 C0.8954305,2.02906125e-16 1.69718927e-12,0.8954305 1.69732454e-12,2 L1.69732454e-12,19.1090901 L1.69732454e-12,19.1090901 C1.69732454e-12,20.0225537 0.885842915,20.7719298 1.96813309,20.7719298 Z" id="Fill-1315" fill="url(#linearGradient-12)"></path>
                        <path d="M7.46226238,5.26882784 C7.46226238,5.55218294 7.06315512,5.78446115 6.57582415,5.78446115 L3.01956841,5.78446115 C2.52932115,5.78379253 2.1321845,5.55387132 2.13102962,5.27004396 L2.13102962,3.21115905 C2.13102962,2.92902007 2.53013688,2.69674185 3.01956841,2.69674185 L6.57582415,2.69674185 C7.06315512,2.69674185 7.46436295,2.92780395 7.46436295,3.21115905 L7.46436295,5.27004396" id="Fill-1327" fill="#FFFFFF"></path>
                        <path d="M7.46226238,9.76005591 C7.46226238,10.043411 7.06315512,10.2756892 6.57582415,10.2756892 L3.01956841,10.2756892 C2.52932115,10.2750206 2.1321845,10.0450994 2.13102962,9.76127203 L2.13102962,7.70238712 C2.13102962,7.42024814 2.53013688,7.18796992 3.01956841,7.18796992 L6.57582415,7.18796992 C7.06315512,7.18796992 7.46436295,7.41903202 7.46436295,7.70238712 L7.46436295,9.76127203" id="Fill-1327" fill="#FFFFFF"></path>
                        <path d="M7.46226238,14.251284 C7.46226238,14.5346391 7.06315512,14.7669173 6.57582415,14.7669173 L3.01956841,14.7669173 C2.52932115,14.7662487 2.1321845,14.5363275 2.13102962,14.2525001 L2.13102962,12.1936152 C2.13102962,11.9114762 2.53013688,11.679198 3.01956841,11.679198 L6.57582415,11.679198 C7.06315512,11.679198 7.46436295,11.9102601 7.46436295,12.1936152 L7.46436295,14.2525001" id="Fill-1327" fill="#FFFFFF"></path>
                        <path d="M7.46226238,18.7425121 C7.46226238,19.0258671 7.06315512,19.2581454 6.57582415,19.2581454 L3.01956841,19.2581454 C2.52932115,19.2574767 2.1321845,19.0275555 2.13102962,18.7437282 L2.13102962,16.6848433 C2.13102962,16.4027043 2.53013688,16.1704261 3.01956841,16.1704261 L6.57582415,16.1704261 C7.06315512,16.1704261 7.46436295,16.4014882 7.46436295,16.6848433 L7.46436295,18.7437282" id="Fill-1327" fill="#FFFFFF"></path>
                        <path d="M14.760508,5.26882784 C14.760508,5.55218294 14.3614007,5.78446115 13.8740698,5.78446115 L10.317814,5.78446115 C9.82756677,5.78379253 9.43043012,5.55387132 9.42927523,5.27004396 L9.42927523,3.21115905 C9.42927523,2.92902007 9.82838249,2.69674185 10.317814,2.69674185 L13.8740698,2.69674185 C14.3614007,2.69674185 14.7626086,2.92780395 14.7626086,3.21115905 L14.7626086,5.27004396" id="Fill-1327" fill="#FFFFFF"></path>
                        <path d="M14.760508,9.76005591 C14.760508,10.043411 14.3614007,10.2756892 13.8740698,10.2756892 L10.317814,10.2756892 C9.82756677,10.2750206 9.43043012,10.0450994 9.42927523,9.76127203 L9.42927523,7.70238712 C9.42927523,7.42024814 9.82838249,7.18796992 10.317814,7.18796992 L13.8740698,7.18796992 C14.3614007,7.18796992 14.7626086,7.41903202 14.7626086,7.70238712 L14.7626086,9.76127203" id="Fill-1327" fill="#FFFFFF"></path>
                        <path d="M14.760508,14.251284 C14.760508,14.5346391 14.3614007,14.7669173 13.8740698,14.7669173 L10.317814,14.7669173 C9.82756677,14.7662487 9.43043012,14.5363275 9.42927523,14.2525001 L9.42927523,12.1936152 C9.42927523,11.9114762 9.82838249,11.679198 10.317814,11.679198 L13.8740698,11.679198 C14.3614007,11.679198 14.7626086,11.9102601 14.7626086,12.1936152 L14.7626086,14.2525001" id="Fill-1327" fill="#FFFFFF"></path>
                        <path d="M14.760508,18.7425121 C14.760508,19.0258671 14.3614007,19.2581454 13.8740698,19.2581454 L10.317814,19.2581454 C9.82756677,19.2574767 9.43043012,19.0275555 9.42927523,18.7437282 L9.42927523,16.6848433 C9.42927523,16.4027043 9.82838249,16.1704261 10.317814,16.1704261 L13.8740698,16.1704261 C14.3614007,16.1704261 14.7626086,16.4014882 14.7626086,16.6848433 L14.7626086,18.7437282" id="Fill-1327" fill="#FFFFFF"></path>
                        <path d="M22.0587536,5.26882784 C22.0587536,5.55218294 21.6596464,5.78446115 21.1723154,5.78446115 L17.6160596,5.78446115 C17.1258124,5.78379253 16.7286757,5.55387132 16.7275208,5.27004396 L16.7275208,3.21115905 C16.7275208,2.92902007 17.1266281,2.69674185 17.6160596,2.69674185 L21.1723154,2.69674185 C21.6596464,2.69674185 22.0608542,2.92780395 22.0608542,3.21115905 L22.0608542,5.27004396" id="Fill-1327" fill="#FFFFFF"></path>
                        <path d="M22.0587536,9.76005591 C22.0587536,10.043411 21.6596464,10.2756892 21.1723154,10.2756892 L17.6160596,10.2756892 C17.1258124,10.2750206 16.7286757,10.0450994 16.7275208,9.76127203 L16.7275208,7.70238712 C16.7275208,7.42024814 17.1266281,7.18796992 17.6160596,7.18796992 L21.1723154,7.18796992 C21.6596464,7.18796992 22.0608542,7.41903202 22.0608542,7.70238712 L22.0608542,9.76127203" id="Fill-1327" fill="#FFFFFF"></path>
                        <path d="M22.0587536,14.251284 C22.0587536,14.5346391 21.6596464,14.7669173 21.1723154,14.7669173 L17.6160596,14.7669173 C17.1258124,14.7662487 16.7286757,14.5363275 16.7275208,14.2525001 L16.7275208,12.1936152 C16.7275208,11.9114762 17.1266281,11.679198 17.6160596,11.679198 L21.1723154,11.679198 C21.6596464,11.679198 22.0608542,11.9102601 22.0608542,12.1936152 L22.0608542,14.2525001" id="Fill-1327" fill="#FFFFFF"></path>
                        <path d="M22.0587536,18.7425121 C22.0587536,19.0258671 21.6596464,19.2581454 21.1723154,19.2581454 L17.6160596,19.2581454 C17.1258124,19.2574767 16.7286757,19.0275555 16.7275208,18.7437282 L16.7275208,16.6848433 C16.7275208,16.4027043 17.1266281,16.1704261 17.6160596,16.1704261 L21.1723154,16.1704261 C21.6596464,16.1704261 22.0608542,16.4014882 22.0608542,16.6848433 L22.0608542,18.7437282" id="Fill-1327" fill="#FFFFFF"></path>
                        <path d="M29.3569992,5.26882784 C29.3569992,5.55218294 28.957892,5.78446115 28.470561,5.78446115 L24.9143053,5.78446115 C24.424058,5.78379253 24.0269213,5.55387132 24.0257665,5.27004396 L24.0257665,3.21115905 C24.0257665,2.92902007 24.4248737,2.69674185 24.9143053,2.69674185 L28.470561,2.69674185 C28.957892,2.69674185 29.3590998,2.92780395 29.3590998,3.21115905 L29.3590998,5.27004396" id="Fill-1327" fill="#FFFFFF"></path>
                        <path d="M29.3569992,9.76005591 C29.3569992,10.043411 28.957892,10.2756892 28.470561,10.2756892 L24.9143053,10.2756892 C24.424058,10.2750206 24.0269213,10.0450994 24.0257665,9.76127203 L24.0257665,7.70238712 C24.0257665,7.42024814 24.4248737,7.18796992 24.9143053,7.18796992 L28.470561,7.18796992 C28.957892,7.18796992 29.3590998,7.41903202 29.3590998,7.70238712 L29.3590998,9.76127203" id="Fill-1327" fill="#FFFFFF"></path>
                        <path d="M29.3569992,14.251284 C29.3569992,14.5346391 28.957892,14.7669173 28.470561,14.7669173 L24.9143053,14.7669173 C24.424058,14.7662487 24.0269213,14.5363275 24.0257665,14.2525001 L24.0257665,12.1936152 C24.0257665,11.9114762 24.4248737,11.679198 24.9143053,11.679198 L28.470561,11.679198 C28.957892,11.679198 29.3590998,11.9102601 29.3590998,12.1936152 L29.3590998,14.2525001" id="Fill-1327" fill="#FFFFFF"></path>
                        <path d="M29.3569992,18.7425121 C29.3569992,19.0258671 28.957892,19.2581454 28.470561,19.2581454 L24.9143053,19.2581454 C24.424058,19.2574767 24.0269213,19.0275555 24.0257665,18.7437282 L24.0257665,16.6848433 C24.0257665,16.4027043 24.4248737,16.1704261 24.9143053,16.1704261 L28.470561,16.1704261 C28.957892,16.1704261 29.3590998,16.4014882 29.3590998,16.6848433 L29.3590998,18.7437282" id="Fill-1327" fill="#FFFFFF"></path>
                    </g>
                    <path d="M2.88503755,16.5478993 C4.57073257,18.8059259 11.592629,20.5 20,20.5 C28.1005114,20.5 34.9148391,18.9273327 36.9092505,16.7928369 L37.3389831,18.09116 L34.088566,23.2 L19.7449587,23.2 L4.86767578,22.3291016 L1.22998047,16.5473004 Z" id="Combined-Shape" fill="#E2F5FE"></path>
                </g>
            </g>
        </g>
    </g>
</svg>