<svg width="103" height="103" viewBox="0 0 103 103" fill="none" xmlns="http://www.w3.org/2000/svg">
<path d="M51.6166 98.1844C25.7666 98.1844 4.80664 77.2345 4.80664 51.3745C4.80664 25.5145 25.7666 4.56445 51.6166 4.56445C77.4666 4.56445 98.4266 25.5245 98.4266 51.3745C98.4266 77.2245 77.4666 98.1844 51.6166 98.1844Z" fill="url(#paint0_linear_60_641)"/>
<path fill-rule="evenodd" clip-rule="evenodd" d="M97.5166 51.3744C97.5166 76.7244 76.9666 97.2744 51.6166 97.2744C26.2666 97.2744 5.71656 76.7244 5.71656 51.3744C5.71656 26.0244 26.2666 5.47438 51.6166 5.47438C76.9666 5.47438 97.5166 26.0244 97.5166 51.3744ZM51.6166 1.73438C79.0366 1.73438 101.257 23.9544 101.257 51.3744C101.257 78.7944 79.0266 101.014 51.6166 101.014C24.1966 101.014 1.97656 78.7844 1.97656 51.3744C1.97656 23.9544 24.1966 1.73438 51.6166 1.73438Z" fill="#F2F1F0"/>
<path fill-rule="evenodd" clip-rule="evenodd" d="M94.7066 51.3749C94.7066 75.1749 75.4166 94.4649 51.6166 94.4649C27.8166 94.4649 8.52662 75.1749 8.52662 51.3749C8.52662 27.5749 27.8166 8.28493 51.6166 8.28493C75.4166 8.28493 94.7066 27.5749 94.7066 51.3749ZM51.6166 4.54492C77.4766 4.54492 98.4466 25.5149 98.4466 51.3749C98.4466 77.2349 77.4766 98.2049 51.6166 98.2049C25.7566 98.2049 4.78662 77.2349 4.78662 51.3749C4.78662 25.5149 25.7466 4.54492 51.6166 4.54492Z" fill="url(#paint1_linear_60_641)"/>
<path opacity="0.15" d="M49.2886 30.9023H18.0059C17.3277 30.9023 16.7852 31.4449 16.7852 32.123V72.9486C16.7852 73.6267 17.3277 74.1693 18.0059 74.1693H49.2886C49.9668 74.1693 50.5093 73.6267 50.5093 72.9486V32.123C50.4996 31.4449 49.9571 30.9023 49.2886 30.9023Z" fill="#1F1D20"/>
<path d="M49.2886 29.3906H18.0059C17.3277 29.3906 16.7852 29.9332 16.7852 30.6113V71.4369C16.7852 72.115 17.3277 72.6575 18.0059 72.6575H49.2886C49.9668 72.6575 50.5093 72.115 50.5093 71.4369V30.6113C50.4996 29.9332 49.9571 29.3906 49.2886 29.3906Z" fill="#F2F2F2"/>
<path opacity="0.15" d="M84.9888 30.9023H53.7061C53.0279 30.9023 52.4854 31.4449 52.4854 32.123V72.9486C52.4854 73.6267 53.0279 74.1693 53.7061 74.1693H84.9888C85.667 74.1693 86.2095 73.6267 86.2095 72.9486V32.123C86.1998 31.4449 85.6573 30.9023 84.9888 30.9023Z" fill="#1F1D20"/>
<path d="M84.9888 29.3906H53.7061C53.0279 29.3906 52.4854 29.9332 52.4854 30.6113V71.4369C52.4854 72.115 53.0279 72.6575 53.7061 72.6575H84.9888C85.667 72.6575 86.2095 72.115 86.2095 71.4369V30.6113C86.1998 29.9332 85.6573 29.3906 84.9888 29.3906Z" fill="#F2F2F2"/>
<path d="M34.4041 40.9128L32.0009 38.4343C31.6748 38.0957 31.1279 38.1107 30.8193 38.4644L20.6646 50.0616C20.2105 50.5784 20.2105 51.351 20.6621 51.8703L30.724 63.4374C31.1028 63.8714 31.7776 63.8714 32.1564 63.4374L35.1617 59.9705L35.4928 42.1219L34.4041 40.9128Z" fill="url(#paint2_linear_60_641)"/>
<path d="M46.2247 49.5541L36.2154 38.6116C35.7839 38.1475 35.0514 38.1425 34.6124 38.5966L29.9916 43.3729C29.4899 43.8922 29.4823 44.7125 29.974 45.2418L34.7127 50.3267C35.0614 50.7005 35.0614 51.2775 34.7153 51.6513L29.954 56.7939C29.4648 57.3207 29.4748 58.1385 29.974 58.6553L34.6099 63.4642C35.0514 63.9208 35.7864 63.9133 36.2179 63.4467L46.2297 52.4214C46.9697 51.6111 46.9672 50.3669 46.2247 49.5541Z" fill="url(#paint3_linear_60_641)"/>
<path d="M46.7014 51.9078L42.2336 56.8623C41.895 57.236 41.3105 57.2486 40.9593 56.8873L36.4689 52.2991C35.7414 51.5566 35.7389 50.37 36.4614 49.6225L40.8664 45.0694C41.2176 44.7056 41.8047 44.7157 42.1433 45.0895L46.7014 50.1142C47.1605 50.6234 47.1605 51.3986 46.7014 51.9078Z" fill="url(#paint4_linear_60_641)"/>
<path d="M69.3615 65.0189C77.1608 65.0189 83.4833 58.7186 83.4833 50.9469C83.4833 43.1752 77.1608 36.875 69.3615 36.875C61.5623 36.875 55.2397 43.1752 55.2397 50.9469C55.2397 58.7186 61.5623 65.0189 69.3615 65.0189Z" fill="url(#paint5_radial_60_641)"/>
<path d="M69.3616 63.188C76.1516 63.188 81.6559 57.706 81.6559 50.9436C81.6559 44.1812 76.1516 38.6992 69.3616 38.6992C62.5717 38.6992 57.0674 44.1812 57.0674 50.9436C57.0674 57.706 62.5717 63.188 69.3616 63.188Z" fill="white"/>
<path d="M58.9282 51.6797C59.0969 54.1882 60.1715 56.55 61.9519 58.3252L65.2747 55.0025C64.3755 54.1042 63.7924 52.938 63.6133 51.6797H58.9282Z" fill="#9CEBFF"/>
<path d="M76.2233 43.0849C74.5129 41.5898 72.3593 40.6968 70.0928 40.543V45.1782C71.1287 45.297 72.1118 45.6995 72.9337 46.3412L76.2233 43.0849Z" fill="#32BEDD"/>
<path d="M62.4995 43.0849L65.8223 46.4077C66.6442 45.7659 67.6273 45.3635 68.6633 45.2447V40.543C66.3851 40.6897 64.2188 41.5831 62.4995 43.0849V43.0849Z" fill="#32BEDD"/>
<path d="M73.9805 47.3755C74.6146 48.2034 75.0213 49.1828 75.1601 50.2164H79.7953C79.6453 47.9589 78.7514 45.8147 77.2534 44.1191L73.9805 47.3755Z" fill="#32BEDD"/>
<path d="M64.7431 47.3755L61.4203 44.0527C59.9268 45.7727 59.0498 47.9418 58.9282 50.2165H63.5635C63.7023 49.1828 64.1089 48.2035 64.7431 47.3755V47.3755Z" fill="#50E6FF"/>
<path d="M77.9018 47.6229C77.8278 47.445 77.6881 47.3025 77.5117 47.2251C77.3352 47.1477 77.1357 47.1414 76.9548 47.2075L70.1099 49.9654L70.6415 51.3111L77.4864 48.6031C77.5799 48.5685 77.6654 48.5151 77.7375 48.4463C77.8096 48.3774 77.8669 48.2945 77.9058 48.2027C77.9447 48.1109 77.9644 48.0121 77.9637 47.9124C77.963 47.8126 77.942 47.7141 77.9018 47.6229V47.6229Z" fill="#F04049"/>
<path d="M69.3618 52.9404C70.4629 52.9404 71.3555 52.0479 71.3555 50.9468C71.3555 49.8457 70.4629 48.9531 69.3618 48.9531C68.2608 48.9531 67.3682 49.8457 67.3682 50.9468C67.3682 52.0479 68.2608 52.9404 69.3618 52.9404Z" fill="url(#paint6_radial_60_641)"/>
<defs>
<linearGradient id="paint0_linear_60_641" x1="49.8427" y1="-13.415" x2="53.8247" y2="132.355" gradientUnits="userSpaceOnUse">
<stop stop-color="#00ABDE"/>
<stop offset="1" stop-color="#007ED8"/>
</linearGradient>
<linearGradient id="paint1_linear_60_641" x1="3.04702" y1="-20.2477" x2="98.5746" y2="120.634" gradientUnits="userSpaceOnUse">
<stop stop-color="#007ED8"/>
<stop offset="0.7065" stop-color="#002D4C"/>
</linearGradient>
<linearGradient id="paint2_linear_60_641" x1="27.2759" y1="39.1407" x2="29.1384" y2="61.0257" gradientUnits="userSpaceOnUse">
<stop stop-color="#A23093"/>
<stop offset="1" stop-color="#692266"/>
</linearGradient>
<linearGradient id="paint3_linear_60_641" x1="29.5932" y1="51.0322" x2="46.7827" y2="51.0322" gradientUnits="userSpaceOnUse">
<stop stop-color="#E184C4"/>
<stop offset="1" stop-color="#D76EBC"/>
</linearGradient>
<linearGradient id="paint4_linear_60_641" x1="35.921" y1="50.9769" x2="47.0458" y2="50.9769" gradientUnits="userSpaceOnUse">
<stop stop-color="#E89BCA"/>
<stop offset="1" stop-color="#E591C8"/>
</linearGradient>
<radialGradient id="paint5_radial_60_641" cx="0" cy="0" r="1" gradientUnits="userSpaceOnUse" gradientTransform="translate(69.3735 51.0043) scale(14.1288)">
<stop offset="0.18" stop-color="#5EA0EF"/>
<stop offset="0.56" stop-color="#5C9FEE"/>
<stop offset="0.69" stop-color="#559CED"/>
<stop offset="0.78" stop-color="#4A97E9"/>
<stop offset="0.86" stop-color="#3990E4"/>
<stop offset="0.93" stop-color="#2387DE"/>
<stop offset="0.99" stop-color="#087BD6"/>
<stop offset="1" stop-color="#0078D4"/>
</radialGradient>
<radialGradient id="paint6_radial_60_641" cx="0" cy="0" r="1" gradientUnits="userSpaceOnUse" gradientTransform="translate(69.3635 47.899) scale(4.26146)">
<stop offset="0.19" stop-color="#8C8E90"/>
<stop offset="0.35" stop-color="#848688"/>
<stop offset="0.6" stop-color="#6E7071"/>
<stop offset="0.91" stop-color="#4A4B4C"/>
<stop offset="1" stop-color="#3E3F3F"/>
</radialGradient>
</defs>
</svg>
