<svg width="103" height="103" viewBox="0 0 103 103" fill="none" xmlns="http://www.w3.org/2000/svg">
<path d="M51.9228 98.118C26.0728 98.118 5.11279 77.168 5.11279 51.308C5.11279 25.448 26.0728 4.49805 51.9228 4.49805C77.7728 4.49805 98.7328 25.458 98.7328 51.308C98.7328 77.158 77.7728 98.118 51.9228 98.118Z" fill="url(#paint0_linear_166_42564)"/>
<path fill-rule="evenodd" clip-rule="evenodd" d="M97.8228 51.308C97.8228 76.658 77.2728 97.208 51.9228 97.208C26.5728 97.208 6.02278 76.658 6.02278 51.308C6.02278 25.958 26.5728 5.40797 51.9228 5.40797C77.2728 5.40797 97.8228 25.958 97.8228 51.308ZM51.9228 1.66797C79.3428 1.66797 101.563 23.888 101.563 51.308C101.563 78.728 79.3328 100.948 51.9228 100.948C24.5028 100.948 2.28278 78.718 2.28278 51.308C2.28278 23.888 24.5028 1.66797 51.9228 1.66797Z" fill="#F2F1F0"/>
<path fill-rule="evenodd" clip-rule="evenodd" d="M95.0128 51.3085C95.0128 75.1085 75.7228 94.3985 51.9228 94.3985C28.1228 94.3985 8.8328 75.1085 8.8328 51.3085C8.8328 27.5085 28.1228 8.21852 51.9228 8.21852C75.7228 8.21852 95.0128 27.5085 95.0128 51.3085ZM51.9228 4.47852C77.7828 4.47852 98.7528 25.4485 98.7528 51.3085C98.7528 77.1685 77.7828 98.1385 51.9228 98.1385C26.0628 98.1385 5.0928 77.1685 5.0928 51.3085C5.0928 25.4485 26.0528 4.47852 51.9228 4.47852Z" fill="url(#paint1_linear_166_42564)"/>
<path opacity="0.15" d="M90.8165 46.2805C90.8165 45.4396 90.1285 44.7407 89.2767 44.7407C88.7198 44.7407 85.2798 44.4349 83.4233 42.9934C83.4233 42.9934 83.4342 42.9715 83.4233 42.9934C82.7243 40.4489 81.6978 38.0682 80.431 35.8076C80.1034 33.6672 82.3203 32.1055 83.3359 30.4347C83.5106 30.1398 83.6198 29.976 83.6853 29.8559C83.871 29.3099 83.7727 28.6874 83.3359 28.2615C83.3359 28.2615 81.6323 25.8262 79.885 24.0898C78.1377 22.3534 75.4949 20.4205 75.4949 20.4205C74.8943 19.8198 73.9223 19.8198 73.3217 20.4205C72.9285 20.8027 70.3076 22.965 67.9378 23.3144C67.9051 23.3144 67.9051 23.3144 67.9051 23.3144C65.71 22.0695 63.242 21.0429 60.7739 20.344H60.7411C58.9938 19.0554 59.4525 16.3908 58.9938 14.4906C58.9938 13.6497 58.3058 12.9508 57.454 12.9508C57.454 12.9508 54.5273 12.4375 52.0592 12.4375C49.5912 12.4375 46.3696 12.9508 46.3696 12.9508C45.5287 12.9508 44.8298 13.6388 44.8298 14.4906C44.8298 15.0475 44.524 18.4875 43.0825 20.344C40.6363 21.032 38.0699 22.1241 35.8967 23.3363C33.7563 23.6639 32.1946 21.447 30.5238 20.4314C30.2289 20.2567 30.0651 20.1475 29.945 20.0819C29.399 19.8963 28.7765 19.9946 28.3506 20.4314C28.3506 20.4314 25.9153 22.135 24.1789 23.8823C22.4425 25.6296 20.5096 28.2724 20.5096 28.2724C19.909 28.873 19.909 29.845 20.5096 30.4456C20.8918 30.8278 23.1196 33.4924 23.4145 35.8185V35.8404C22.2023 38.0136 21.143 40.569 20.4441 43.0152C20.4441 43.0152 20.4768 42.9715 20.4441 43.0152C18.9479 44.828 16.4908 44.3039 14.5906 44.7625C13.7497 44.7625 13.0508 45.4505 13.0508 46.3023C13.0508 46.3023 12.5375 49.2291 12.5375 51.6971C12.5375 54.1652 13.0508 57.3868 13.0508 57.3868C13.0508 58.2276 13.7388 58.9266 14.5906 58.9266C15.1476 58.9266 18.5876 59.2323 20.4441 60.6739C20.4877 60.652 20.4659 60.7066 20.4659 60.7066C21.1757 63.1638 22.1914 65.6209 23.4254 67.7832C23.4036 67.8159 23.4254 67.7832 23.4363 67.8596C23.6438 70.0984 21.547 71.5617 20.5314 73.2326C20.3567 73.5274 20.2475 73.6912 20.182 73.8114C19.9963 74.3574 20.0946 74.9799 20.5314 75.4058C20.5314 75.4058 22.235 77.8411 23.9823 79.5775C25.7296 81.3248 28.3724 83.2468 28.3724 83.2468C28.9731 83.8474 29.945 83.8474 30.5456 83.2468C30.9279 82.8646 33.5925 80.6367 35.9186 80.3419C35.9186 80.3419 35.9077 80.3528 35.9513 80.3637C38.1901 81.6087 40.4943 82.5915 43.017 83.2795C43.0388 83.2905 43.1153 83.3123 43.1153 83.3123C44.8626 84.6009 44.4039 87.2656 44.8626 89.1658C44.9608 90.0176 45.4304 90.5636 46.4024 90.7056C46.4024 90.7056 49.3291 91.2188 51.7972 91.2188C54.2652 91.2188 57.4868 90.7165 57.4868 90.7165C58.3277 90.5745 59.0266 90.0285 59.0266 89.1767C59.0266 88.6197 59.3324 85.1797 60.7739 83.3232C60.7739 83.3232 60.8394 83.2686 60.894 83.214C63.4604 82.4933 65.4152 81.6961 67.6867 80.3965C67.8068 80.3528 67.6757 80.3637 67.9487 80.3201C70.0892 79.9924 71.6508 82.2093 73.3217 83.2249C73.6165 83.3997 73.7804 83.5089 73.9005 83.5744C74.4465 83.76 75.069 83.6618 75.4949 83.2249C75.4949 83.2249 77.9302 81.5213 79.6666 79.774C81.4139 78.0267 83.3359 75.3839 83.3359 75.3839C83.9365 74.7833 83.9365 73.8114 83.3359 73.2107C82.9537 72.8285 80.7259 70.1639 80.431 67.8378C80.3982 67.5975 80.4201 67.5648 80.4528 67.4992C81.7524 65.2168 82.5605 63.546 83.2704 60.9469C83.2704 60.9469 83.2376 60.8595 83.4014 60.6411C84.69 58.8938 87.3547 59.3525 89.2549 58.8938C90.0958 58.8938 90.7947 58.2058 90.7947 57.354C90.7947 57.354 91.3079 54.4273 91.3079 51.9592C91.3189 49.513 90.8165 46.2805 90.8165 46.2805Z" fill="#1F1D20"/>
<path d="M90.8165 45.2434C90.8165 44.4025 90.1285 43.7036 89.2767 43.7036C88.7198 43.7036 85.2798 43.3978 83.4233 41.9563C83.4233 41.9563 83.4342 41.9344 83.4233 41.9563C82.7243 39.4118 81.6978 37.0311 80.431 34.7705C80.1034 32.6301 82.3203 31.0684 83.3359 29.3976C83.5106 29.1027 83.6198 28.9389 83.6853 28.8188C83.871 28.2727 83.7727 27.6503 83.3359 27.2244C83.3359 27.2244 81.6323 24.7891 79.885 23.0527C78.1377 21.3163 75.4949 19.3834 75.4949 19.3834C74.8943 18.7827 73.9223 18.7827 73.3217 19.3834C72.9285 19.7656 70.3076 21.9279 67.9378 22.2773C67.9051 22.2773 67.9051 22.2773 67.9051 22.2773C65.71 21.0324 63.242 20.0058 60.7739 19.3069H60.7411C58.9938 18.0183 59.4525 15.3537 58.9938 13.4535C58.9938 12.6126 58.3058 11.9137 57.454 11.9137C57.454 11.9137 54.5273 11.4004 52.0592 11.4004C49.5912 11.4004 46.3696 11.9137 46.3696 11.9137C45.5287 11.9137 44.8298 12.6017 44.8298 13.4535C44.8298 14.0104 44.524 17.4504 43.0825 19.3069C40.6363 19.9949 38.0699 21.087 35.8967 22.2992C33.7563 22.6268 32.1946 20.4099 30.5238 19.3943C30.2289 19.2196 30.0651 19.1103 29.945 19.0448C29.399 18.8592 28.7765 18.9575 28.3506 19.3943C28.3506 19.3943 25.9153 21.0979 24.1789 22.8452C22.4425 24.5925 20.5096 27.2353 20.5096 27.2353C19.909 27.8359 19.909 28.8079 20.5096 29.4085C20.8918 29.7907 23.1196 32.4553 23.4145 34.7814V34.8033C22.2023 36.9765 21.143 39.5319 20.4441 41.9781C20.4441 41.9781 20.4768 41.9344 20.4441 41.9781C18.9479 43.7909 16.4908 43.2667 14.5906 43.7254C13.7497 43.7254 13.0508 44.4134 13.0508 45.2652C13.0508 45.2652 12.5375 48.1919 12.5375 50.66C12.5375 53.1281 13.0508 56.3497 13.0508 56.3497C13.0508 57.1905 13.7388 57.8895 14.5906 57.8895C15.1476 57.8895 18.5876 58.1952 20.4441 59.6368C20.4877 59.6149 20.4659 59.6695 20.4659 59.6695C21.1757 62.1267 22.1914 64.5838 23.4254 66.7461C23.4036 66.7788 23.4254 66.7461 23.4363 66.8225C23.6438 69.0612 21.547 70.5246 20.5314 72.1955C20.3567 72.4903 20.2475 72.6541 20.182 72.7743C19.9963 73.3203 20.0946 73.9428 20.5314 74.3687C20.5314 74.3687 22.235 76.804 23.9823 78.5403C25.7296 80.2876 28.3724 82.2097 28.3724 82.2097C28.9731 82.8103 29.945 82.8103 30.5456 82.2097C30.9279 81.8274 33.5925 79.5996 35.9186 79.3048C35.9186 79.3048 35.9077 79.3157 35.9513 79.3266C38.1901 80.5716 40.4943 81.5544 43.017 82.2424C43.0388 82.2533 43.1153 82.2752 43.1153 82.2752C44.8626 83.5638 44.4039 86.2284 44.8626 88.1286C44.9608 88.9804 45.4304 89.5265 46.4024 89.6684C46.4024 89.6684 49.3291 90.1817 51.7972 90.1817C54.2652 90.1817 57.4868 89.6794 57.4868 89.6794C58.3277 89.5374 59.0266 88.9914 59.0266 88.1396C59.0266 87.5826 59.3324 84.1426 60.7739 82.2861C60.7739 82.2861 60.8394 82.2315 60.894 82.1769C63.4604 81.4561 65.4152 80.6589 67.6867 79.3594C67.8068 79.3157 67.6757 79.3266 67.9487 79.2829C70.0892 78.9553 71.6508 81.1722 73.3217 82.1878C73.6165 82.3626 73.7804 82.4718 73.9005 82.5373C74.4465 82.7229 75.069 82.6247 75.4949 82.1878C75.4949 82.1878 77.9302 80.4842 79.6666 78.7369C81.4139 76.9896 83.3359 74.3468 83.3359 74.3468C83.9365 73.7462 83.9365 72.7743 83.3359 72.1736C82.9537 71.7914 80.7259 69.1268 80.431 66.8007C80.3982 66.5604 80.4201 66.5277 80.4528 66.4621C81.7524 64.1797 82.5605 62.5089 83.2704 59.9098C83.2704 59.9098 83.2376 59.8224 83.4014 59.604C84.69 57.8567 87.3547 58.3154 89.2549 57.8567C90.0958 57.8567 90.7947 57.1687 90.7947 56.3169C90.7947 56.3169 91.3079 53.3902 91.3079 50.9221C91.3189 48.465 90.8165 45.2434 90.8165 45.2434Z" fill="url(#paint2_linear_166_42564)"/>
<path d="M73.9443 82.5267C73.9333 82.5267 73.9333 82.5156 73.9223 82.5156C73.9333 82.5156 73.9443 82.5267 73.9443 82.5267Z" fill="#9FC2F6"/>
<path d="M73.9222 82.5155C73.7038 82.3844 73.3434 82.166 73.3434 82.166C73.5182 82.3298 73.7147 82.439 73.9222 82.5155Z" fill="#9FC2F6"/>
<path d="M73.9442 82.5273C74.1523 82.6369 74.1085 82.626 73.9442 82.5273V82.5273Z" fill="#9FC2F6"/>
<path d="M30.0105 19.0664C30.2289 19.1975 30.5893 19.4159 30.5893 19.4159C30.4146 19.2521 30.218 19.1319 30.0105 19.0664Z" fill="#9FC2F6"/>
<path d="M29.9886 19.0566C29.9997 19.0566 29.9997 19.0677 30.0107 19.0677C29.9997 19.0677 29.9886 19.0566 29.9886 19.0566Z" fill="#9FC2F6"/>
<path d="M29.9891 19.055C29.7919 18.9345 29.8247 18.9564 29.9891 19.055V19.055Z" fill="#9FC2F6"/>
<path d="M20.2258 72.7734C20.1162 72.9707 20.1381 72.9268 20.2258 72.7734V72.7734Z" fill="#9FC2F6"/>
<path d="M20.2257 72.774C20.2257 72.763 20.2367 72.763 20.2367 72.752C20.2367 72.763 20.2257 72.774 20.2257 72.774Z" fill="#9FC2F6"/>
<path d="M83.6964 28.8301C83.5653 29.0485 83.3469 29.4089 83.3469 29.4089C83.4998 29.2341 83.6199 29.0376 83.6964 28.8301Z" fill="#9FC2F6"/>
<path d="M83.7072 28.8086C83.7072 28.8196 83.6962 28.8196 83.6962 28.8307C83.6962 28.8196 83.7072 28.8086 83.7072 28.8086Z" fill="#9FC2F6"/>
<path d="M83.7071 28.8078C83.8167 28.6105 83.7947 28.6544 83.7071 28.8078V28.8078Z" fill="#9FC2F6"/>
<path d="M56.9511 63.5455C56.9411 63.5455 56.9411 63.5355 56.9511 63.5455V63.5455Z" fill="#F2F1F0"/>
<path d="M56.941 63.5349C56.8755 63.4694 56.7772 63.3711 56.7772 63.3711C56.8209 63.4475 56.8755 63.5021 56.941 63.5349Z" fill="#F2F1F0"/>
<path d="M56.9516 63.5449C57.0066 63.5999 56.9956 63.5889 56.9516 63.5449V63.5449Z" fill="#F2F1F0"/>
<path d="M46.8939 37.8398C46.9594 37.9054 47.0577 38.0037 47.0577 38.0037C47.0249 37.9381 46.9594 37.8726 46.8939 37.8398Z" fill="#F2F1F0"/>
<path d="M46.894 37.8281C46.904 37.8281 46.904 37.8381 46.894 37.8281V37.8281Z" fill="#F2F1F0"/>
<path d="M46.8942 37.8282C46.8392 37.7733 46.8502 37.7843 46.8942 37.8282V37.8282Z" fill="#F2F1F0"/>
<g opacity="0.15">
<path opacity="0.4" d="M34.5606 30.0492V74.8694L36.2581 73.771L37.1354 74.8694L38.5619 73.771L39.6389 74.8694L41.0654 73.771L42.2422 74.8694L43.7258 73.771L44.8028 74.8694L46.0866 73.771L47.1279 74.8694L48.5544 73.771L49.6671 74.8694L50.9509 73.771L52.0921 74.8694L53.5186 73.771L54.5243 74.8694L55.8081 73.771L56.9564 74.8694L57.9336 73.771L59.2103 74.8694L60.2587 73.771L61.2359 74.8694L62.2772 73.771L63.4255 74.8694L64.4669 73.771L65.7151 74.8694L66.5923 73.771L67.8049 74.8694L68.8819 73.771L70.0444 74.8694V30.0492C70.0426 29.8159 69.9486 29.5927 69.7829 29.4284C69.6172 29.2641 69.3933 29.1719 69.16 29.1719H35.445C35.3292 29.171 35.2144 29.1929 35.1071 29.2366C34.9999 29.2803 34.9023 29.3448 34.8201 29.4263C34.7379 29.5079 34.6726 29.6049 34.6281 29.7118C34.5835 29.8187 34.5606 29.9334 34.5606 30.0492V30.0492Z" fill="#1F1D20"/>
</g>
<path d="M34.5606 29.059V73.8791L36.2581 72.7879L37.1354 73.8791L38.5619 72.7879L39.6389 73.8791L41.0654 72.7879L42.2422 73.8791L43.7258 72.7879L44.8028 73.8791L46.0866 72.7879L47.1279 73.8791L48.5544 72.7879L49.6671 73.8791L50.9509 72.7879L52.0921 73.8791L53.5186 72.7879L54.5243 73.8791L55.8081 72.7879L56.9564 73.8791L57.9336 72.7879L59.2103 73.8791L60.2587 72.7879L61.2359 73.8791L62.2772 72.7879L63.4255 73.8791L64.4669 72.7879L65.7151 73.8791L66.5923 72.7879L67.8049 73.8791L68.8819 72.7879L70.0444 73.8791V29.059C70.0426 28.8256 69.9486 28.6025 69.7829 28.4382C69.6172 28.2739 69.3933 28.1817 69.16 28.1817H35.445C35.3292 28.1807 35.2144 28.2027 35.1071 28.2464C34.9999 28.2901 34.9023 28.3545 34.8201 28.4361C34.7379 28.5177 34.6726 28.6147 34.6281 28.7216C34.5835 28.8285 34.5606 28.9432 34.5606 29.059V29.059Z" fill="white"/>
<path d="M47.1864 35.6866C47.1864 35.5765 47.1427 35.4709 47.0648 35.3931C46.987 35.3152 46.8814 35.2715 46.7713 35.2715H38.8374C38.7273 35.2715 38.6217 35.3152 38.5438 35.3931C38.466 35.4709 38.4223 35.5765 38.4223 35.6866C38.423 35.7962 38.4671 35.901 38.5448 35.9783C38.6226 36.0555 38.7278 36.0989 38.8374 36.0989H46.7713C46.8809 36.0989 46.9861 36.0555 47.0639 35.9783C47.1416 35.901 47.1857 35.7962 47.1864 35.6866V35.6866Z" fill="#9D9E9D"/>
<path d="M47.1864 37.9221C47.1857 37.8125 47.1416 37.7076 47.0639 37.6304C46.9861 37.5531 46.8809 37.5098 46.7713 37.5098H38.8374C38.7278 37.5098 38.6226 37.5531 38.5448 37.6304C38.4671 37.7076 38.423 37.8125 38.4223 37.9221C38.4223 38.0322 38.466 38.1377 38.5438 38.2156C38.6217 38.2934 38.7273 38.3371 38.8374 38.3371H46.7713C46.8814 38.3371 46.987 38.2934 47.0648 38.2156C47.1427 38.1377 47.1864 38.0322 47.1864 37.9221Z" fill="#9D9E9D"/>
<path d="M46.7713 32.8848H38.8374C38.7828 32.8848 38.7289 32.8955 38.6785 32.9164C38.6281 32.9372 38.5824 32.9678 38.5438 33.0063C38.5053 33.0449 38.4747 33.0906 38.4539 33.141C38.433 33.1914 38.4223 33.2453 38.4223 33.2998C38.423 33.4095 38.4671 33.5143 38.5448 33.5916C38.6226 33.6688 38.7278 33.7122 38.8374 33.7121H46.7713C46.8809 33.7122 46.9861 33.6688 47.0639 33.5916C47.1416 33.5143 47.1857 33.4095 47.1864 33.2998C47.1864 33.1898 47.1427 33.0842 47.0648 33.0063C46.987 32.9285 46.8814 32.8848 46.7713 32.8848V32.8848Z" fill="#9D9E9D"/>
<path fill-rule="evenodd" clip-rule="evenodd" d="M61.1388 53.0958L51.6138 62.6207L41.8497 52.8567C39.285 50.2919 39.285 46.1274 41.8497 43.5544L42.0724 43.3317C44.6371 40.767 48.8017 40.767 51.3747 43.3317L61.1388 53.0958Z" fill="url(#paint3_linear_166_42564)"/>
<path fill-rule="evenodd" clip-rule="evenodd" d="M51.5733 62.5717L42.3865 53.3849L52.1506 43.6208C54.7153 41.0561 58.8799 41.0561 61.4528 43.6208L61.6755 43.8435C64.2402 46.4082 64.2402 50.5728 61.6755 53.1457L52.2413 62.5717C52.0599 62.7614 51.763 62.7614 51.5733 62.5717Z" fill="url(#paint4_linear_166_42564)"/>
<path d="M59.3165 62.9744C62.6151 62.9744 65.2953 60.3025 65.2953 56.9956C65.2871 53.6969 62.6069 51.0332 59.3165 51.0332C56.026 51.0332 53.3376 53.7051 53.3376 57.0121C53.3376 60.3107 56.0095 62.9744 59.3165 62.9744Z" fill="#002D4C"/>
<path d="M59.7865 53.5H58.8052V60.4932H59.7865V53.5Z" fill="#F2F2F2"/>
<path d="M62.7883 56.5586H55.8034V57.54H62.7966L62.7883 56.5586Z" fill="#F2F2F2"/>
<path opacity="0.15" d="M90.8165 46.2805C90.8165 45.4396 90.1285 44.7407 89.2767 44.7407C88.7198 44.7407 85.2798 44.4349 83.4233 42.9934C83.4233 42.9934 83.4342 42.9715 83.4233 42.9934C82.7243 40.4489 81.6978 38.0682 80.431 35.8076C80.1034 33.6672 82.3203 32.1055 83.3359 30.4347C83.5106 30.1398 83.6198 29.976 83.6853 29.8559C83.871 29.3099 83.7727 28.6874 83.3359 28.2615C83.3359 28.2615 81.6323 25.8262 79.885 24.0898C78.1377 22.3534 75.4949 20.4205 75.4949 20.4205C74.8943 19.8198 73.9223 19.8198 73.3217 20.4205C72.9285 20.8027 70.3076 22.965 67.9378 23.3144C67.9051 23.3144 67.9051 23.3144 67.9051 23.3144C65.71 22.0695 63.242 21.0429 60.7739 20.344H60.7411C58.9938 19.0554 59.4525 16.3908 58.9938 14.4906C58.9938 13.6497 58.3058 12.9508 57.454 12.9508C57.454 12.9508 54.5273 12.4375 52.0592 12.4375C49.5912 12.4375 46.3696 12.9508 46.3696 12.9508C45.5287 12.9508 44.8298 13.6388 44.8298 14.4906C44.8298 15.0475 44.524 18.4875 43.0825 20.344C40.6363 21.032 38.0699 22.1241 35.8967 23.3363C33.7563 23.6639 32.1946 21.447 30.5238 20.4314C30.2289 20.2567 30.0651 20.1475 29.945 20.0819C29.399 19.8963 28.7765 19.9946 28.3506 20.4314C28.3506 20.4314 25.9153 22.135 24.1789 23.8823C22.4425 25.6296 20.5096 28.2724 20.5096 28.2724C19.909 28.873 19.909 29.845 20.5096 30.4456C20.8918 30.8278 23.1196 33.4924 23.4145 35.8185V35.8404C22.2023 38.0136 21.143 40.569 20.4441 43.0152C20.4441 43.0152 20.4768 42.9715 20.4441 43.0152C18.9479 44.828 16.4908 44.3039 14.5906 44.7625C13.7497 44.7625 13.0508 45.4505 13.0508 46.3023C13.0508 46.3023 12.5375 49.2291 12.5375 51.6971C12.5375 54.1652 13.0508 57.3868 13.0508 57.3868C13.0508 58.2276 13.7388 58.9266 14.5906 58.9266C15.1476 58.9266 18.5876 59.2323 20.4441 60.6739C20.4877 60.652 20.4659 60.7066 20.4659 60.7066C21.1757 63.1638 22.1914 65.6209 23.4254 67.7832C23.4036 67.8159 23.4254 67.7832 23.4363 67.8596C23.6438 70.0984 21.547 71.5617 20.5314 73.2326C20.3567 73.5274 20.2475 73.6912 20.182 73.8114C19.9963 74.3574 20.0946 74.9799 20.5314 75.4058C20.5314 75.4058 22.235 77.8411 23.9823 79.5775C25.7296 81.3248 28.3724 83.2468 28.3724 83.2468C28.9731 83.8474 29.945 83.8474 30.5456 83.2468C30.9279 82.8646 33.5925 80.6367 35.9186 80.3419C35.9186 80.3419 35.9077 80.3528 35.9513 80.3637C38.1901 81.6087 40.4943 82.5915 43.017 83.2795C43.0388 83.2905 43.1153 83.3123 43.1153 83.3123C44.8626 84.6009 44.4039 87.2656 44.8626 89.1658C44.9608 90.0176 45.4304 90.5636 46.4024 90.7056C46.4024 90.7056 49.3291 91.2188 51.7972 91.2188C54.2652 91.2188 57.4868 90.7165 57.4868 90.7165C58.3277 90.5745 59.0266 90.0285 59.0266 89.1767C59.0266 88.6197 59.3324 85.1797 60.7739 83.3232C60.7739 83.3232 60.8394 83.2686 60.894 83.214C63.4604 82.4933 65.4152 81.6961 67.6867 80.3965C67.8068 80.3528 67.6757 80.3637 67.9487 80.3201C70.0892 79.9924 71.6508 82.2093 73.3217 83.2249C73.6165 83.3997 73.7804 83.5089 73.9005 83.5744C74.4465 83.76 75.069 83.6618 75.4949 83.2249C75.4949 83.2249 77.9302 81.5213 79.6666 79.774C81.4139 78.0267 83.3359 75.3839 83.3359 75.3839C83.9365 74.7833 83.9365 73.8114 83.3359 73.2107C82.9537 72.8285 80.7259 70.1639 80.431 67.8378C80.3982 67.5975 80.4201 67.5648 80.4528 67.4992C81.7524 65.2168 82.5605 63.546 83.2704 60.9469C83.2704 60.9469 83.2376 60.8595 83.4014 60.6411C84.69 58.8938 87.3547 59.3525 89.2549 58.8938C90.0958 58.8938 90.7947 58.2058 90.7947 57.354C90.7947 57.354 91.3079 54.4273 91.3079 51.9592C91.3189 49.513 90.8165 46.2805 90.8165 46.2805Z" fill="#1F1D20"/>
<path d="M90.8165 45.2434C90.8165 44.4025 90.1285 43.7036 89.2767 43.7036C88.7198 43.7036 85.2798 43.3978 83.4233 41.9563C83.4233 41.9563 83.4342 41.9344 83.4233 41.9563C82.7243 39.4118 81.6978 37.0311 80.431 34.7705C80.1034 32.6301 82.3203 31.0684 83.3359 29.3976C83.5106 29.1027 83.6198 28.9389 83.6853 28.8188C83.871 28.2727 83.7727 27.6503 83.3359 27.2244C83.3359 27.2244 81.6323 24.7891 79.885 23.0527C78.1377 21.3163 75.4949 19.3834 75.4949 19.3834C74.8943 18.7827 73.9223 18.7827 73.3217 19.3834C72.9285 19.7656 70.3076 21.9279 67.9378 22.2773C67.9051 22.2773 67.9051 22.2773 67.9051 22.2773C65.71 21.0324 63.242 20.0058 60.7739 19.3069H60.7411C58.9938 18.0183 59.4525 15.3537 58.9938 13.4535C58.9938 12.6126 58.3058 11.9137 57.454 11.9137C57.454 11.9137 54.5273 11.4004 52.0592 11.4004C49.5912 11.4004 46.3696 11.9137 46.3696 11.9137C45.5287 11.9137 44.8298 12.6017 44.8298 13.4535C44.8298 14.0104 44.524 17.4504 43.0825 19.3069C40.6363 19.9949 38.0699 21.087 35.8967 22.2992C33.7563 22.6268 32.1946 20.4099 30.5238 19.3943C30.2289 19.2196 30.0651 19.1103 29.945 19.0448C29.399 18.8592 28.7765 18.9575 28.3506 19.3943C28.3506 19.3943 25.9153 21.0979 24.1789 22.8452C22.4425 24.5925 20.5096 27.2353 20.5096 27.2353C19.909 27.8359 19.909 28.8079 20.5096 29.4085C20.8918 29.7907 23.1196 32.4553 23.4145 34.7814V34.8033C22.2023 36.9765 21.143 39.5319 20.4441 41.9781C20.4441 41.9781 20.4768 41.9344 20.4441 41.9781C18.9479 43.7909 16.4908 43.2667 14.5906 43.7254C13.7497 43.7254 13.0508 44.4134 13.0508 45.2652C13.0508 45.2652 12.5375 48.1919 12.5375 50.66C12.5375 53.1281 13.0508 56.3497 13.0508 56.3497C13.0508 57.1905 13.7388 57.8895 14.5906 57.8895C15.1476 57.8895 18.5876 58.1952 20.4441 59.6368C20.4877 59.6149 20.4659 59.6695 20.4659 59.6695C21.1757 62.1267 22.1914 64.5838 23.4254 66.7461C23.4036 66.7788 23.4254 66.7461 23.4363 66.8225C23.6438 69.0612 21.547 70.5246 20.5314 72.1955C20.3567 72.4903 20.2475 72.6541 20.182 72.7743C19.9963 73.3203 20.0946 73.9428 20.5314 74.3687C20.5314 74.3687 22.235 76.804 23.9823 78.5403C25.7296 80.2876 28.3724 82.2097 28.3724 82.2097C28.9731 82.8103 29.945 82.8103 30.5456 82.2097C30.9279 81.8274 33.5925 79.5996 35.9186 79.3048C35.9186 79.3048 35.9077 79.3157 35.9513 79.3266C38.1901 80.5716 40.4943 81.5544 43.017 82.2424C43.0388 82.2533 43.1153 82.2752 43.1153 82.2752C44.8626 83.5638 44.4039 86.2284 44.8626 88.1286C44.9608 88.9804 45.4304 89.5265 46.4024 89.6684C46.4024 89.6684 49.3291 90.1817 51.7972 90.1817C54.2652 90.1817 57.4868 89.6794 57.4868 89.6794C58.3277 89.5374 59.0266 88.9914 59.0266 88.1396C59.0266 87.5826 59.3324 84.1426 60.7739 82.2861C60.7739 82.2861 60.8394 82.2315 60.894 82.1769C63.4604 81.4561 65.4152 80.6589 67.6867 79.3594C67.8068 79.3157 67.6757 79.3266 67.9487 79.2829C70.0892 78.9553 71.6508 81.1722 73.3217 82.1878C73.6165 82.3626 73.7804 82.4718 73.9005 82.5373C74.4465 82.7229 75.069 82.6247 75.4949 82.1878C75.4949 82.1878 77.9302 80.4842 79.6666 78.7369C81.4139 76.9896 83.3359 74.3468 83.3359 74.3468C83.9365 73.7462 83.9365 72.7743 83.3359 72.1736C82.9537 71.7914 80.7259 69.1268 80.431 66.8007C80.3982 66.5604 80.4201 66.5277 80.4528 66.4621C81.7524 64.1797 82.5605 62.5089 83.2704 59.9098C83.2704 59.9098 83.2376 59.8224 83.4014 59.604C84.69 57.8567 87.3547 58.3154 89.2549 57.8567C90.0958 57.8567 90.7947 57.1687 90.7947 56.3169C90.7947 56.3169 91.3079 53.3902 91.3079 50.9221C91.3189 48.465 90.8165 45.2434 90.8165 45.2434Z" fill="url(#paint5_linear_166_42564)"/>
<path d="M73.9443 82.5267C73.9333 82.5267 73.9333 82.5156 73.9223 82.5156C73.9333 82.5156 73.9443 82.5267 73.9443 82.5267Z" fill="#9FC2F6"/>
<path d="M73.9222 82.5155C73.7038 82.3844 73.3434 82.166 73.3434 82.166C73.5182 82.3298 73.7147 82.439 73.9222 82.5155Z" fill="#9FC2F6"/>
<path d="M73.9442 82.5273C74.1523 82.6369 74.1085 82.626 73.9442 82.5273V82.5273Z" fill="#9FC2F6"/>
<path d="M30.0105 19.0664C30.2289 19.1975 30.5893 19.4159 30.5893 19.4159C30.4146 19.2521 30.218 19.1319 30.0105 19.0664Z" fill="#9FC2F6"/>
<path d="M29.9886 19.0566C29.9997 19.0566 29.9997 19.0677 30.0107 19.0677C29.9997 19.0677 29.9886 19.0566 29.9886 19.0566Z" fill="#9FC2F6"/>
<path d="M29.9891 19.055C29.7919 18.9345 29.8247 18.9564 29.9891 19.055V19.055Z" fill="#9FC2F6"/>
<path d="M20.2258 72.7734C20.1162 72.9707 20.1381 72.9268 20.2258 72.7734V72.7734Z" fill="#9FC2F6"/>
<path d="M20.2257 72.774C20.2257 72.763 20.2367 72.763 20.2367 72.752C20.2367 72.763 20.2257 72.774 20.2257 72.774Z" fill="#9FC2F6"/>
<path d="M83.6964 28.8301C83.5653 29.0485 83.3469 29.4089 83.3469 29.4089C83.4998 29.2341 83.6199 29.0376 83.6964 28.8301Z" fill="#9FC2F6"/>
<path d="M83.7072 28.8086C83.7072 28.8196 83.6962 28.8196 83.6962 28.8307C83.6962 28.8196 83.7072 28.8086 83.7072 28.8086Z" fill="#9FC2F6"/>
<path d="M83.7071 28.8078C83.8167 28.6105 83.7947 28.6544 83.7071 28.8078V28.8078Z" fill="#9FC2F6"/>
<path d="M56.9511 63.5455C56.9411 63.5455 56.9411 63.5355 56.9511 63.5455V63.5455Z" fill="#F2F1F0"/>
<path d="M56.941 63.5349C56.8755 63.4694 56.7772 63.3711 56.7772 63.3711C56.8209 63.4475 56.8755 63.5021 56.941 63.5349Z" fill="#F2F1F0"/>
<path d="M56.9516 63.5449C57.0066 63.5999 56.9956 63.5889 56.9516 63.5449V63.5449Z" fill="#F2F1F0"/>
<path d="M46.8939 37.8398C46.9594 37.9054 47.0577 38.0037 47.0577 38.0037C47.0249 37.9381 46.9594 37.8726 46.8939 37.8398Z" fill="#F2F1F0"/>
<path d="M46.894 37.8281C46.904 37.8281 46.904 37.8381 46.894 37.8281V37.8281Z" fill="#F2F1F0"/>
<path d="M46.8942 37.8282C46.8392 37.7733 46.8502 37.7843 46.8942 37.8282V37.8282Z" fill="#F2F1F0"/>
<g opacity="0.15">
<path opacity="0.4" d="M34.5606 30.0492V74.8694L36.2581 73.771L37.1354 74.8694L38.5619 73.771L39.6389 74.8694L41.0654 73.771L42.2422 74.8694L43.7258 73.771L44.8028 74.8694L46.0866 73.771L47.1279 74.8694L48.5544 73.771L49.6671 74.8694L50.9509 73.771L52.0921 74.8694L53.5186 73.771L54.5243 74.8694L55.8081 73.771L56.9564 74.8694L57.9336 73.771L59.2103 74.8694L60.2587 73.771L61.2359 74.8694L62.2772 73.771L63.4255 74.8694L64.4669 73.771L65.7151 74.8694L66.5923 73.771L67.8049 74.8694L68.8819 73.771L70.0444 74.8694V30.0492C70.0426 29.8159 69.9486 29.5927 69.7829 29.4284C69.6172 29.2641 69.3933 29.1719 69.16 29.1719H35.445C35.3292 29.171 35.2144 29.1929 35.1071 29.2366C34.9999 29.2803 34.9023 29.3448 34.8201 29.4263C34.7379 29.5079 34.6726 29.6049 34.6281 29.7118C34.5835 29.8187 34.5606 29.9334 34.5606 30.0492V30.0492Z" fill="#1F1D20"/>
</g>
<path d="M34.5606 29.059V73.8791L36.2581 72.7879L37.1354 73.8791L38.5619 72.7879L39.6389 73.8791L41.0654 72.7879L42.2422 73.8791L43.7258 72.7879L44.8028 73.8791L46.0866 72.7879L47.1279 73.8791L48.5544 72.7879L49.6671 73.8791L50.9509 72.7879L52.0921 73.8791L53.5186 72.7879L54.5243 73.8791L55.8081 72.7879L56.9564 73.8791L57.9336 72.7879L59.2103 73.8791L60.2587 72.7879L61.2359 73.8791L62.2772 72.7879L63.4255 73.8791L64.4669 72.7879L65.7151 73.8791L66.5923 72.7879L67.8049 73.8791L68.8819 72.7879L70.0444 73.8791V29.059C70.0426 28.8256 69.9486 28.6025 69.7829 28.4382C69.6172 28.2739 69.3933 28.1817 69.16 28.1817H35.445C35.3292 28.1807 35.2144 28.2027 35.1071 28.2464C34.9999 28.2901 34.9023 28.3545 34.8201 28.4361C34.7379 28.5177 34.6726 28.6147 34.6281 28.7216C34.5835 28.8285 34.5606 28.9432 34.5606 29.059V29.059Z" fill="white"/>
<path d="M47.1864 35.6866C47.1864 35.5765 47.1427 35.4709 47.0648 35.3931C46.987 35.3152 46.8814 35.2715 46.7713 35.2715H38.8374C38.7273 35.2715 38.6217 35.3152 38.5438 35.3931C38.466 35.4709 38.4223 35.5765 38.4223 35.6866C38.423 35.7962 38.4671 35.901 38.5448 35.9783C38.6226 36.0555 38.7278 36.0989 38.8374 36.0989H46.7713C46.8809 36.0989 46.9861 36.0555 47.0639 35.9783C47.1416 35.901 47.1857 35.7962 47.1864 35.6866V35.6866Z" fill="#9D9E9D"/>
<path d="M47.1864 37.9221C47.1857 37.8125 47.1416 37.7076 47.0639 37.6304C46.9861 37.5531 46.8809 37.5098 46.7713 37.5098H38.8374C38.7278 37.5098 38.6226 37.5531 38.5448 37.6304C38.4671 37.7076 38.423 37.8125 38.4223 37.9221C38.4223 38.0322 38.466 38.1377 38.5438 38.2156C38.6217 38.2934 38.7273 38.3371 38.8374 38.3371H46.7713C46.8814 38.3371 46.987 38.2934 47.0648 38.2156C47.1427 38.1377 47.1864 38.0322 47.1864 37.9221Z" fill="#9D9E9D"/>
<path d="M46.7713 32.8848H38.8374C38.7828 32.8848 38.7289 32.8955 38.6785 32.9164C38.6281 32.9372 38.5824 32.9678 38.5438 33.0063C38.5053 33.0449 38.4747 33.0906 38.4539 33.141C38.433 33.1914 38.4223 33.2453 38.4223 33.2998C38.423 33.4095 38.4671 33.5143 38.5448 33.5916C38.6226 33.6688 38.7278 33.7122 38.8374 33.7121H46.7713C46.8809 33.7122 46.9861 33.6688 47.0639 33.5916C47.1416 33.5143 47.1857 33.4095 47.1864 33.2998C47.1864 33.1898 47.1427 33.0842 47.0648 33.0063C46.987 32.9285 46.8814 32.8848 46.7713 32.8848V32.8848Z" fill="#9D9E9D"/>
<path fill-rule="evenodd" clip-rule="evenodd" d="M61.1388 53.0958L51.6138 62.6207L41.8497 52.8567C39.285 50.2919 39.285 46.1274 41.8497 43.5544L42.0724 43.3317C44.6371 40.767 48.8017 40.767 51.3747 43.3317L61.1388 53.0958Z" fill="url(#paint6_linear_166_42564)"/>
<path fill-rule="evenodd" clip-rule="evenodd" d="M51.5733 62.5717L42.3865 53.3849L52.1506 43.6208C54.7153 41.0561 58.8799 41.0561 61.4528 43.6208L61.6755 43.8435C64.2402 46.4082 64.2402 50.5728 61.6755 53.1457L52.2413 62.5717C52.0599 62.7614 51.763 62.7614 51.5733 62.5717Z" fill="url(#paint7_linear_166_42564)"/>
<path d="M59.3165 62.9744C62.6151 62.9744 65.2953 60.3025 65.2953 56.9956C65.2871 53.6969 62.6069 51.0332 59.3165 51.0332C56.026 51.0332 53.3376 53.7051 53.3376 57.0121C53.3376 60.3107 56.0095 62.9744 59.3165 62.9744Z" fill="#002D4C"/>
<path d="M59.7865 53.5H58.8052V60.4932H59.7865V53.5Z" fill="#F2F2F2"/>
<path d="M62.7883 56.5586H55.8034V57.54H62.7966L62.7883 56.5586Z" fill="#F2F2F2"/>
<defs>
<linearGradient id="paint0_linear_166_42564" x1="50.1489" y1="-13.4815" x2="54.1309" y2="132.289" gradientUnits="userSpaceOnUse">
<stop stop-color="#00ABDE"/>
<stop offset="1" stop-color="#007ED8"/>
</linearGradient>
<linearGradient id="paint1_linear_166_42564" x1="3.3532" y1="-20.3141" x2="98.8807" y2="120.567" gradientUnits="userSpaceOnUse">
<stop stop-color="#007ED8"/>
<stop offset="0.7065" stop-color="#002D4C"/>
</linearGradient>
<linearGradient id="paint2_linear_166_42564" x1="54.9731" y1="-83.7345" x2="49.401" y2="165.152" gradientUnits="userSpaceOnUse">
<stop stop-color="#007ED8"/>
<stop offset="0.7065" stop-color="#002D4C"/>
</linearGradient>
<linearGradient id="paint3_linear_166_42564" x1="35.0323" y1="40.4033" x2="89.6049" y2="81.9624" gradientUnits="userSpaceOnUse">
<stop stop-color="#FFB900"/>
<stop offset="0.17" stop-color="#EF8400"/>
<stop offset="0.31" stop-color="#E25C01"/>
<stop offset="0.43" stop-color="#DB4401"/>
<stop offset="0.5" stop-color="#D83B01"/>
</linearGradient>
<linearGradient id="paint4_linear_166_42564" x1="39.7561" y1="46.0659" x2="80.6156" y2="62.5775" gradientUnits="userSpaceOnUse">
<stop stop-color="#FFB900"/>
<stop offset="0.17" stop-color="#EF8400"/>
<stop offset="0.31" stop-color="#E25C01"/>
<stop offset="0.43" stop-color="#DB4401"/>
<stop offset="0.5" stop-color="#D83B01"/>
</linearGradient>
<linearGradient id="paint5_linear_166_42564" x1="54.9731" y1="-83.7345" x2="49.401" y2="165.152" gradientUnits="userSpaceOnUse">
<stop stop-color="#007ED8"/>
<stop offset="0.7065" stop-color="#002D4C"/>
</linearGradient>
<linearGradient id="paint6_linear_166_42564" x1="35.0323" y1="40.4033" x2="89.6049" y2="81.9624" gradientUnits="userSpaceOnUse">
<stop stop-color="#FFB900"/>
<stop offset="0.17" stop-color="#EF8400"/>
<stop offset="0.31" stop-color="#E25C01"/>
<stop offset="0.43" stop-color="#DB4401"/>
<stop offset="0.5" stop-color="#D83B01"/>
</linearGradient>
<linearGradient id="paint7_linear_166_42564" x1="39.7561" y1="46.0659" x2="80.6156" y2="62.5775" gradientUnits="userSpaceOnUse">
<stop stop-color="#FFB900"/>
<stop offset="0.17" stop-color="#EF8400"/>
<stop offset="0.31" stop-color="#E25C01"/>
<stop offset="0.43" stop-color="#DB4401"/>
<stop offset="0.5" stop-color="#D83B01"/>
</linearGradient>
</defs>
</svg>
