<svg width="103" height="103" viewBox="0 0 103 103" fill="none" xmlns="http://www.w3.org/2000/svg">
<path d="M51.696 98.37C25.846 98.37 4.88605 77.42 4.88605 51.56C4.88605 25.7 25.846 4.75 51.696 4.75C77.546 4.75 98.506 25.71 98.506 51.56C98.506 77.41 77.546 98.37 51.696 98.37Z" fill="url(#paint0_linear_332_15041)"/>
<path fill-rule="evenodd" clip-rule="evenodd" d="M97.596 51.5599C97.596 76.9099 77.046 97.4599 51.696 97.4599C26.346 97.4599 5.79603 76.9099 5.79603 51.5599C5.79603 26.2099 26.346 5.65993 51.696 5.65993C77.046 5.65993 97.596 26.2099 97.596 51.5599ZM51.696 1.91992C79.116 1.91992 101.336 24.1399 101.336 51.5599C101.336 78.9799 79.106 101.2 51.696 101.2C24.276 101.2 2.05603 78.9699 2.05603 51.5599C2.05603 24.1399 24.276 1.91992 51.696 1.91992Z" fill="#F2F1F0"/>
<path fill-rule="evenodd" clip-rule="evenodd" d="M94.786 51.5595C94.786 75.3595 75.496 94.6495 51.696 94.6495C27.896 94.6495 8.60603 75.3595 8.60603 51.5595C8.60603 27.7595 27.896 8.4695 51.696 8.4695C75.496 8.4695 94.786 27.7595 94.786 51.5595ZM51.696 4.72949C77.556 4.72949 98.526 25.6995 98.526 51.5595C98.526 77.4195 77.556 98.3895 51.696 98.3895C25.836 98.3895 4.86603 77.4195 4.86603 51.5595C4.86603 25.6995 25.826 4.72949 51.696 4.72949Z" fill="url(#paint1_linear_332_15041)"/>
<path opacity="0.15" d="M50.8094 71.7248C51.3894 71.7248 51.8494 71.2648 51.8494 70.6848V35.4648H15.6194V70.6948C15.6194 71.2748 16.0794 71.7348 16.6594 71.7348L50.8094 71.7248Z" fill="#1F1D20"/>
<path d="M51.8394 35.7653V35.2053C51.8394 34.5053 51.2794 33.9453 50.5794 33.9453H16.8794C16.1794 33.9453 15.6194 34.5053 15.6194 35.2053V35.8253V36.3953V69.5853C15.6194 70.2853 16.1794 70.8453 16.8794 70.8453H50.5894C51.2894 70.8453 51.8494 70.2853 51.8494 69.5853V35.8353C51.8494 35.8053 51.8394 35.7953 51.8394 35.7653Z" fill="white"/>
<path d="M66.9994 57.7158H56.5694V58.5258H66.9994V57.7158Z" fill="white"/>
<path d="M66.9994 45.8857H56.5694V46.6957H66.9994V45.8857Z" fill="white"/>
<path d="M67.0094 70.3554H56.5694C56.3494 70.3554 56.1594 70.1754 56.1594 69.9454V34.4354C56.1594 34.2154 56.3394 34.0254 56.5694 34.0254H66.9994V34.8354H56.9794V69.5354H67.0094V70.3554Z" fill="white"/>
<path d="M56.5994 52.0352H48.7494V53.0452H56.5994V52.0352Z" fill="white"/>
<path d="M80.7894 45.8555H70.3494V46.6655H80.7894V45.8555Z" fill="white"/>
<path d="M80.7894 57.6953H70.3494V58.5053H80.7894V57.6953Z" fill="white"/>
<path d="M80.7794 70.3552H70.3494V69.5452H80.3794V34.8452H70.3494V34.0352H80.7894C81.0094 34.0352 81.1994 34.2152 81.1994 34.4452V69.9552C81.1894 70.1752 81.0094 70.3552 80.7794 70.3552Z" fill="white"/>
<path d="M90.9694 51.335H80.7494V52.345H90.9694V51.335Z" fill="white"/>
<path opacity="0.15" d="M74.3594 29.7451H62.5894C61.8694 29.7451 61.2894 30.3251 61.2894 31.0451V38.2551C61.2894 38.9751 61.8694 39.5551 62.5894 39.5551H74.3694C75.0894 39.5651 75.6694 38.9851 75.6694 38.2551V31.0551C75.6694 30.3151 75.0794 29.7451 74.3594 29.7451Z" fill="#1F1D20"/>
<path opacity="0.15" d="M74.3594 53.7246H62.5894C61.8694 53.7246 61.2894 54.3046 61.2894 55.0246V62.2346C61.2894 62.9546 61.8694 63.5346 62.5894 63.5346H74.3694C75.0894 63.5346 75.6694 62.9546 75.6694 62.2346V55.0346C75.6694 54.3046 75.0794 53.7246 74.3594 53.7246Z" fill="#1F1D20"/>
<path opacity="0.15" d="M74.3594 41.7051H62.5894C61.8694 41.7051 61.2894 42.2851 61.2894 43.0051V50.2151C61.2894 50.9351 61.8694 51.5151 62.5894 51.5151H74.3694C75.0894 51.5251 75.6694 50.9451 75.6694 50.2151V43.0051C75.6694 42.2951 75.0794 41.7051 74.3594 41.7051Z" fill="#1F1D20"/>
<path opacity="0.15" d="M74.3594 65.6943H62.5894C61.8694 65.6943 61.2894 66.2743 61.2894 66.9943V74.2043C61.2894 74.9243 61.8694 75.5043 62.5894 75.5043H74.3694C75.0894 75.5043 75.6694 74.9243 75.6694 74.2043V66.9943C75.6694 66.2843 75.0794 65.6943 74.3594 65.6943Z" fill="#1F1D20"/>
<path d="M74.3594 28.8848H62.5894C61.8694 28.8848 61.2894 29.4648 61.2894 30.1848V37.3948C61.2894 38.1148 61.8694 38.6948 62.5894 38.6948H74.3694C75.0894 38.7048 75.6694 38.1248 75.6694 37.3948V30.1948C75.6694 29.4648 75.0794 28.8848 74.3594 28.8848Z" fill="#69B7FC"/>
<path d="M74.3594 52.8652H62.5894C61.8694 52.8652 61.2894 53.4452 61.2894 54.1652V61.3752C61.2894 62.0952 61.8694 62.6752 62.5894 62.6752H74.3694C75.0894 62.6752 75.6694 62.0952 75.6694 61.3752V54.1752C75.6694 53.4452 75.0794 52.8652 74.3594 52.8652Z" fill="#0F49C5"/>
<path d="M74.3594 40.8652H62.5894C61.8694 40.8652 61.2894 41.4452 61.2894 42.1652V49.3752C61.2894 50.0952 61.8694 50.6752 62.5894 50.6752H74.3694C75.0894 50.6852 75.6694 50.1052 75.6694 49.3752V42.1652C75.6694 41.4452 75.0794 40.8652 74.3594 40.8652Z" fill="#2675E2"/>
<path d="M74.3594 64.8447H62.5894C61.8694 64.8447 61.2894 65.4247 61.2894 66.1447V73.3547C61.2894 74.0747 61.8694 74.6547 62.5894 74.6547H74.3694C75.0894 74.6547 75.6694 74.0747 75.6694 73.3547V66.1447C75.6694 65.4347 75.0794 64.8447 74.3594 64.8447Z" fill="#002D4C"/>
<path d="M86.2294 48.2852L92.3494 51.8152L86.2294 55.3452V48.2852Z" fill="white"/>
<path d="M38.8411 48.5085L30.7397 53.2401L22.2228 43.7528C21.5935 43.0539 22.0907 41.9395 23.0298 41.9395H38.8387V48.5085H38.8411Z" fill="url(#paint2_linear_332_15041)"/>
<path d="M43.3345 47.1136L38.771 41.9736L22.1623 60.523C21.6003 61.1523 22.0446 62.149 22.8901 62.149H29.8314L43.3345 47.1136Z" fill="url(#paint3_linear_332_15041)"/>
<path d="M47.1822 51.422L43.2984 47.0459L29.5936 62.1486H38.4275C38.6125 62.1486 38.7878 62.0718 38.9127 61.9349L47.1702 52.9376C47.5617 52.5101 47.5689 51.8568 47.1822 51.422Z" fill="url(#paint4_linear_332_15041)"/>
<path opacity="0.15" d="M47.2968 75.0657C48.9062 75.0621 50.4488 74.4211 51.5869 73.2831C52.7249 72.145 53.3656 70.6027 53.3692 68.9933C53.3692 67.3828 52.7296 65.838 51.5908 64.6993C50.452 63.5605 48.9073 62.9209 47.2968 62.9209C45.6874 62.9244 44.1447 63.5652 43.0067 64.7032C41.8686 65.8412 41.2279 67.3839 41.2244 68.9933C41.2244 69.7907 41.3817 70.5804 41.6868 71.3171C41.992 72.0538 42.4389 72.7231 43.0027 73.287C43.5666 73.8509 44.2366 74.2981 44.9733 74.6032C45.71 74.9084 46.4993 75.0657 47.2968 75.0657V75.0657Z" fill="#1F1D20"/>
<path d="M47.2968 74.2825C48.9073 74.2825 50.452 73.6426 51.5908 72.5038C52.7296 71.365 53.3692 69.8206 53.3692 68.2101C53.3692 66.5996 52.7296 65.0552 51.5908 63.9164C50.452 62.7776 48.9073 62.1377 47.2968 62.1377C45.6874 62.1412 44.1447 62.7823 43.0067 63.9203C41.8686 65.0583 41.2279 66.6007 41.2244 68.2101C41.2244 69.0075 41.3817 69.7972 41.6868 70.5339C41.992 71.2706 42.4389 71.9399 43.0027 72.5038C43.5666 73.0677 44.2366 73.5152 44.9733 73.8204C45.71 74.1255 46.4993 74.2825 47.2968 74.2825V74.2825Z" fill="#092D4C"/>
<path d="M47.861 64.3545H46.7727V72.0659H47.861V64.3545Z" fill="white"/>
<path d="M51.1793 67.7266H43.4677V68.8014H51.1793V67.7266Z" fill="white"/>
<defs>
<linearGradient id="paint0_linear_332_15041" x1="49.9221" y1="-13.2295" x2="53.9041" y2="132.541" gradientUnits="userSpaceOnUse">
<stop stop-color="#00ABDE"/>
<stop offset="1" stop-color="#007ED8"/>
</linearGradient>
<linearGradient id="paint1_linear_332_15041" x1="3.12643" y1="-20.0631" x2="98.654" y2="120.818" gradientUnits="userSpaceOnUse">
<stop stop-color="#007ED8"/>
<stop offset="0.7065" stop-color="#002D4C"/>
</linearGradient>
<linearGradient id="paint2_linear_332_15041" x1="23.0018" y1="36.4994" x2="41.4297" y2="53.838" gradientUnits="userSpaceOnUse">
<stop offset="0.4598" stop-color="#1152D4"/>
<stop offset="0.6156" stop-color="#0D3FB3"/>
</linearGradient>
<linearGradient id="paint3_linear_332_15041" x1="21.9125" y1="52.0617" x2="43.3336" y2="52.0617" gradientUnits="userSpaceOnUse">
<stop stop-color="#388CF4"/>
<stop offset="1" stop-color="#2C7CEF"/>
</linearGradient>
<linearGradient id="paint4_linear_332_15041" x1="29.5939" y1="54.5975" x2="47.4683" y2="54.5975" gradientUnits="userSpaceOnUse">
<stop stop-color="#76C0FD"/>
<stop offset="1" stop-color="#63B2FB"/>
</linearGradient>
</defs>
</svg>
