<?xml version="1.0" encoding="UTF-8"?>
<svg width="100px" height="100px" viewBox="0 0 100 100" version="1.1" xmlns="http://www.w3.org/2000/svg" xmlns:xlink="http://www.w3.org/1999/xlink">
    <!-- Generator: Sketch 53.2 (72643) - https://sketchapp.com -->
    <title>Use the UI and controls in a canvas app in PowerApps/navigation-in-a-canvas-app-in-powerapps</title>
    <desc>Created with Sketch.</desc>
    <defs>
        <rect id="path-1" x="0" y="0" width="96" height="96" rx="48"></rect>
        <filter x="-6.2%" y="-6.2%" width="112.5%" height="112.5%" filterUnits="objectBoundingBox" id="filter-3">
            <feOffset dx="0" dy="2" in="SourceAlpha" result="shadowOffsetOuter1"></feOffset>
            <feColorMatrix values="0 0 0 0 0   0 0 0 0 0   0 0 0 0 0  0 0 0 0.0964956975 0" type="matrix" in="shadowOffsetOuter1" result="shadowMatrixOuter1"></feColorMatrix>
            <feMerge>
                <feMergeNode in="shadowMatrixOuter1"></feMergeNode>
                <feMergeNode in="SourceGraphic"></feMergeNode>
            </feMerge>
        </filter>
    </defs>
    <g id="Badges" stroke="none" stroke-width="1" fill="none" fill-rule="evenodd">
        <g id="Use-the-UI-and-controls-in-a-canvas-app-in-PowerApps" transform="translate(-50.000000, -260.000000)">
            <g id="Use-the-UI-and-controls-in-a-canvas-app-in-PowerApps/navigation-in-a-canvas-app-in-powerapps" transform="translate(50.000000, 260.000000)">
                <g id="Mask" transform="translate(2.000000, 2.000000)">
                    <mask id="mask-2" fill="white">
                        <use xlink:href="#path-1"></use>
                    </mask>
                    <use id="BG" fill="#965596" xlink:href="#path-1"></use>
                    <g id="Compass" filter="url(#filter-3)" mask="url(#mask-2)">
                        <g transform="translate(16.000000, 16.000000)">
                            <path d="M62,32 C62,48.567 48.567,62 32,62 C15.433,62 2,48.567 2,32 C2,15.433 15.433,2 32,2 C48.567,2 62,15.433 62,32" id="Fill-49" fill="#FFFFFE"></path>
                            <path d="M32,2 L32,8 C31.447,8 31,7.553 31,7 L31,9 C31,9.238 31.083,9.456 31.221,9.627 C31.663,10.177 32,10.802 32,11.508 L32,26.632 L27,29 L18,48 L27.716,43.398 C29.706,42.455 32,43.907 32,46.109 L32,62 C48.567,62 62,48.567 62,32 C62,15.433 48.567,2 32,2" id="Fill-50" fill="#E1E4E1"></path>
                            <path d="M14.669,15.255 C14.557,15.296 14.44,15.322 14.322,15.322 C14.066,15.322 13.81,15.225 13.615,15.029 L11.519,12.934 C7.072,17.709 4.271,24.033 4.025,31 L4.175,31 C4.836,24.827 7.502,19.247 11.519,14.934 L13.615,17.029 C13.81,17.225 14.066,17.322 14.322,17.322 C14.578,17.322 14.834,17.225 15.029,17.029 C15.42,16.639 15.42,16.006 15.029,15.615 L14.669,15.255" id="Fill-51" fill="#E1E4E1"></path>
                            <path d="M7,33 L4.025,33 C4.049,33.674 4.104,34.339 4.175,35 L7,35 C7.553,35 8,34.553 8,34 C8,33.447 7.553,33 7,33" id="Fill-52" fill="#E1E4E1"></path>
                            <path d="M14.669,50.745 L12.934,52.48 C13.279,52.802 13.635,53.113 13.997,53.417 L15.029,52.385 C15.42,51.994 15.42,51.361 15.029,50.971 C14.924,50.865 14.8,50.794 14.669,50.745" id="Fill-53" fill="#E1E4E1"></path>
                            <path d="M31,6.025 L31,4.025 C24.033,4.271 17.709,7.072 12.934,11.519 L13.997,12.583 C18.63,8.683 24.537,6.254 31,6.025" id="Fill-54" fill="#E1E4E1"></path>
                            <path d="M52.48,51.066 L50.385,48.971 C49.994,48.58 49.361,48.58 48.971,48.971 C48.58,49.361 48.58,49.994 48.971,50.385 L51.066,52.48 C46.291,56.928 39.967,59.729 33,59.975 L33,57 C33,56.447 32.553,56 32,56 C31.447,56 31,56.447 31,57 L31,59.975 C24.033,59.729 17.709,56.928 12.934,52.48 L15.029,50.385 C15.42,49.994 15.42,49.361 15.029,48.971 C14.639,48.58 14.006,48.58 13.615,48.971 L11.52,51.066 C7.072,46.291 4.271,39.967 4.025,33 L7,33 C7.553,33 8,32.553 8,32 C8,31.447 7.553,31 7,31 L4.025,31 C4.271,24.033 7.072,17.709 11.52,12.934 L13.615,15.029 C13.81,15.225 14.066,15.322 14.322,15.322 C14.578,15.322 14.834,15.225 15.029,15.029 C15.42,14.639 15.42,14.006 15.029,13.615 L12.934,11.52 C17.709,7.072 24.033,4.271 31,4.025 L31,7 C31,7.553 31.447,8 32,8 C32.553,8 33,7.553 33,7 L33,4.025 C39.967,4.271 46.291,7.072 51.066,11.52 L48.971,13.615 C48.58,14.006 48.58,14.639 48.971,15.029 C49.166,15.225 49.422,15.322 49.678,15.322 C49.934,15.322 50.19,15.225 50.385,15.029 L52.48,12.934 C56.928,17.709 59.729,24.033 59.975,31 L57,31 C56.447,31 56,31.447 56,32 C56,32.553 56.447,33 57,33 L59.975,33 C59.729,39.967 56.928,46.291 52.48,51.066 Z M32,0 C14.355,0 0,14.355 0,32 C0,49.645 14.355,64 32,64 C49.644,64 64,49.645 64,32 C64,14.355 49.644,0 32,0 L32,0 Z" id="Fill-55" fill="#546670"></path>
                            <polyline id="Fill-56" fill="#C5CCCD" points="34 30 30 30 32 12 34 30"></polyline>
                            <polyline id="Fill-57" fill="#C5CCCD" points="34 34 34 30 52 32 34 34"></polyline>
                            <polyline id="Fill-58" fill="#C5CCCD" points="30 30 30 34 12 32 30 30"></polyline>
                            <polyline id="Fill-59" fill="#C5CCCD" points="30 34 34 34 32 52 30 34"></polyline>
                            <polyline id="Fill-60" fill="#DF5142" points="37 37 27 27 46 18 37 37"></polyline>
                            <polyline id="Fill-61" fill="#A9B3B6" points="30.667 40 30.878 41.9 33.247 40.777 33.481 38.667 30.667 40"></polyline>
                            <polyline id="Fill-62" fill="#55B7D9" points="27 27 37 37 18 46 27 27"></polyline>
                            <polyline id="Fill-63" fill="#B43F3A" points="37 37 46 18 32 32 37 37"></polyline>
                            <polyline id="Fill-64" fill="#0095B2" points="32 32 18 46 37 37 32 32"></polyline>
                            <path d="M34,32 C34,33.104 33.104,34 32,34 C30.895,34 30,33.104 30,32 C30,30.896 30.895,30 32,30 C33.104,30 34,30.896 34,32" id="Fill-65" fill="#30404D"></path>
                            <path d="M32.82,30.18 C32.933,30.431 33,30.707 33,31 C33,32.104 32.104,33 31,33 C30.707,33 30.431,32.933 30.18,32.82 C30.493,33.515 31.189,34 32,34 C33.104,34 34,33.104 34,32 C34,31.189 33.515,30.493 32.82,30.18" id="Fill-66" fill="#182A37"></path>
                            <path d="M33,7 L33,4.025 C39.967,4.271 46.291,7.072 51.066,11.519 L48.971,13.615 C48.58,14.006 48.58,14.639 48.971,15.029 C49.166,15.225 49.422,15.322 49.678,15.322 C49.934,15.322 50.19,15.225 50.385,15.029 L52.48,12.934 C56.928,17.709 59.729,24.033 59.975,31 L57,31 C56.447,31 56,31.447 56,32 C56,32.553 56.447,33 57,33 L59.975,33 C59.729,39.967 56.928,46.291 52.48,51.066 L50.385,48.971 C49.994,48.58 49.361,48.58 48.971,48.971 C48.58,49.361 48.58,49.994 48.971,50.385 L51.066,52.48 C46.291,56.928 39.967,59.728 33,59.975 L33,57 C33,56.447 32.553,56 32,56 L32,64 C49.644,64 64,49.644 64,32 C64,14.355 49.644,0 32,0 L32,8 C32.553,8 33,7.553 33,7" id="Fill-67" fill="#30404D"></path>
                        </g>
                    </g>
                </g>
                <g id="PowerApps-Border" stroke="#742774" stroke-width="4">
                    <rect id="Azure-Border" x="2" y="2" width="96" height="96" rx="48"></rect>
                </g>
            </g>
        </g>
    </g>
</svg>