<svg width="181" height="191" viewBox="0 0 181 191" fill="none" xmlns="http://www.w3.org/2000/svg">
<path d="M90.4588 189.79C93.5188 189.79 96.5288 188.94 99.1888 187.32L161.159 149.66C166.699 146.29 170.129 139.96 170.129 133.12V58.4096C170.129 51.5896 166.699 45.2496 161.159 41.8696L99.1888 4.20962C93.8588 0.969615 87.0388 0.989615 81.7388 4.20962L19.7688 41.8896C14.2288 45.2596 10.7788 51.5896 10.7788 58.4296V133.13C10.7788 138.89 13.2288 144.31 17.3288 147.88V147.91L81.7388 187.34C84.3788 188.94 87.3988 189.79 90.4588 189.79ZM91.1088 8.73961C93.0588 8.73961 95.5388 9.94961 97.2488 10.9996L158.009 48.1896C161.759 50.4696 163.879 57.0696 163.879 61.8196L163.249 133.12C163.249 137.87 160.049 142.14 156.299 144.42L95.8988 180.8C92.4688 182.89 89.6788 182.89 86.2388 180.8L25.0288 144.33C21.2788 142.05 18.2588 137.85 18.2588 133.12V59.4796C18.2588 54.7396 20.9888 49.8496 24.7588 47.5596L85.3388 10.9996C87.0388 9.95961 89.1588 8.73961 91.1088 8.73961Z" fill="#F2F1F0"/>
<path fill-rule="evenodd" clip-rule="evenodd" d="M98.3588 12.3203C95.9088 10.8203 93.1888 10.0703 90.4588 10.0703C87.7288 10.0703 85.0088 10.8303 82.5588 12.3203L26.4288 46.6503C21.4088 49.7203 18.2988 55.4703 18.2988 61.7203V129.82C18.2988 136.05 21.3988 141.82 26.4288 144.89L82.5588 179.22C85.0088 180.72 87.7288 181.47 90.4588 181.47C93.1888 181.47 95.9088 180.73 98.3588 179.22L154.489 144.89C159.509 141.82 162.619 136.05 162.619 129.82V61.7203C162.619 55.4903 159.519 49.7403 154.489 46.6503L98.3588 12.3203Z" fill="url(#paint0_linear_204_2260)"/>
<path fill-rule="evenodd" clip-rule="evenodd" d="M90.4588 11.54C92.1388 11.54 94.0288 12.41 96.0888 13.66L154.559 49.2C158.209 51.42 160.619 55.69 160.619 60.52V131C160.619 135.82 158.209 140.1 154.559 142.32L96.0988 177.86C94.1388 179.05 92.2188 179.8 90.4688 179.8C88.7188 179.8 86.7988 179.05 84.8388 177.86L26.3588 142.33C24.3488 141.1 22.8988 139.9 21.9188 138.29C20.9388 136.69 20.2988 134.47 20.2988 131.01V60.53C20.2988 55.7 22.7088 51.43 26.3588 49.21L84.8188 13.67C86.9088 12.42 88.7688 11.54 90.4588 11.54ZM98.1688 181.29L156.629 145.75C161.549 142.76 164.609 137.14 164.609 131.01V60.53C164.609 54.4 161.549 48.78 156.629 45.79L98.1688 10.25C96.0588 8.97004 93.3488 7.54004 90.4588 7.54004C87.5588 7.54004 84.8488 8.98004 82.7588 10.24H82.7488L24.2788 45.79C19.3588 48.78 16.2988 54.4 16.2988 60.53V131.01C16.2988 134.97 17.0388 137.96 18.4988 140.37C19.9588 142.77 22.0188 144.37 24.2788 145.74L82.7388 181.28C84.9588 182.63 87.6288 183.81 90.4488 183.81C93.2688 183.81 95.9488 182.64 98.1688 181.29Z" fill="url(#paint1_linear_204_2260)"/>
<path opacity="0.15" d="M156.01 87.9639C156.01 86.5466 154.851 85.3687 153.415 85.3687C152.477 85.3687 146.679 84.8533 143.55 82.4238C143.55 82.4238 143.568 82.387 143.55 82.4238C142.372 78.1353 140.642 74.1228 138.507 70.3129C137.955 66.7054 141.691 64.0734 143.403 61.2573C143.697 60.7603 143.881 60.4843 143.992 60.2818C144.304 59.3615 144.139 58.3124 143.403 57.5946C143.403 57.5946 140.531 53.4901 137.586 50.5636C134.642 47.6371 130.187 44.3793 130.187 44.3793C129.175 43.367 127.537 43.367 126.525 44.3793C125.862 45.0235 121.445 48.6678 117.451 49.2568C117.395 49.2568 117.395 49.2568 117.395 49.2568C113.696 47.1586 109.536 45.4284 105.377 44.2505H105.321C102.376 42.0786 103.149 37.5876 102.376 34.3851C102.376 32.9678 101.217 31.7899 99.7812 31.7899C99.7812 31.7899 94.8485 30.9248 90.6889 30.9248C86.5292 30.9248 81.0995 31.7899 81.0995 31.7899C79.6823 31.7899 78.5043 32.9494 78.5043 34.3851C78.5043 35.3238 77.989 41.1215 75.5594 44.2505C71.4366 45.41 67.1112 47.2506 63.4485 49.2936C59.841 49.8458 57.209 46.1095 54.3929 44.3977C53.896 44.1032 53.6199 43.9192 53.4174 43.8088C52.4972 43.4959 51.448 43.6615 50.7302 44.3977C50.7302 44.3977 46.6258 47.269 43.6993 50.2139C40.7728 53.1588 37.515 57.613 37.515 57.613C36.5027 58.6253 36.5027 60.2634 37.515 61.2757C38.1592 61.9199 41.9139 66.4109 42.4109 70.3313V70.3681C40.3678 74.0308 38.5825 78.3377 37.4045 82.4606C37.4045 82.4606 37.4598 82.387 37.4045 82.4606C34.883 85.5159 30.7417 84.6325 27.5391 85.4055C26.1219 85.4055 24.9439 86.5651 24.9439 88.0007C24.9439 88.0007 24.0789 92.9334 24.0789 97.0931C24.0789 101.253 24.9439 106.682 24.9439 106.682C24.9439 108.1 26.1035 109.278 27.5391 109.278C28.4778 109.278 34.2756 109.793 37.4045 112.223C37.4782 112.186 37.4414 112.278 37.4414 112.278C38.6377 116.419 40.3494 120.56 42.4293 124.205C42.3925 124.26 42.4293 124.205 42.4477 124.333C42.7974 128.107 39.2635 130.573 37.5518 133.389C37.2573 133.886 37.0732 134.162 36.9628 134.364C36.6499 135.285 36.8156 136.334 37.5518 137.052C37.5518 137.052 40.4231 141.156 43.368 144.083C46.3129 147.028 50.767 150.267 50.767 150.267C51.7793 151.279 53.4174 151.279 54.4298 150.267C55.074 149.623 59.5649 145.868 63.4853 145.371C63.4853 145.371 63.4669 145.389 63.5405 145.408C67.3137 147.506 71.1973 149.163 75.449 150.322C75.4858 150.341 75.6146 150.377 75.6146 150.377C78.5595 152.549 77.7865 157.04 78.5595 160.243C78.7252 161.678 79.5166 162.599 81.1547 162.838C81.1547 162.838 86.0875 163.703 90.2471 163.703C94.4068 163.703 99.8365 162.856 99.8365 162.856C101.254 162.617 102.432 161.697 102.432 160.261C102.432 159.323 102.947 153.525 105.377 150.396C105.377 150.396 105.487 150.304 105.579 150.212C109.904 148.997 113.199 147.653 117.027 145.463C117.23 145.389 117.009 145.408 117.469 145.334C121.077 144.782 123.709 148.518 126.525 150.23C127.022 150.525 127.298 150.709 127.5 150.819C128.42 151.132 129.47 150.966 130.187 150.23C130.187 150.23 134.292 147.359 137.218 144.414C140.163 141.469 143.403 137.015 143.403 137.015C144.415 136.003 144.415 134.364 143.403 133.352C142.758 132.708 139.004 128.217 138.507 124.297C138.451 123.892 138.488 123.836 138.544 123.726C140.734 119.879 142.096 117.063 143.292 112.683C143.292 112.683 143.237 112.535 143.513 112.167C145.685 109.222 150.176 109.995 153.378 109.222C154.796 109.222 155.974 108.063 155.974 106.627C155.974 106.627 156.839 101.694 156.839 97.5348C156.839 93.3751 156.01 87.9639 156.01 87.9639Z" fill="#1F1D20"/>
<path d="M156.01 86.1953C156.01 84.7781 154.851 83.6001 153.415 83.6001C152.477 83.6001 146.679 83.0848 143.55 80.6552C143.55 80.6552 143.568 80.6184 143.55 80.6552C142.372 76.3667 140.642 72.3543 138.507 68.5443C137.955 64.9368 141.691 62.3048 143.403 59.4887C143.697 58.9918 143.881 58.7157 143.992 58.5132C144.304 57.593 144.139 56.5438 143.403 55.826C143.403 55.826 140.531 51.7216 137.586 48.7951C134.642 45.8686 130.187 42.6108 130.187 42.6108C129.175 41.5985 127.537 41.5985 126.525 42.6108C125.862 43.255 121.445 46.8993 117.451 47.4883C117.395 47.4883 117.395 47.4883 117.395 47.4883C113.696 45.39 109.536 43.6599 105.377 42.4819H105.321C102.376 40.3101 103.149 35.8191 102.376 32.6165C102.376 31.1993 101.217 30.0213 99.7812 30.0213C99.7812 30.0213 94.8485 29.1562 90.6889 29.1562C86.5292 29.1562 81.0995 30.0213 81.0995 30.0213C79.6823 30.0213 78.5043 31.1809 78.5043 32.6165C78.5043 33.5552 77.989 39.353 75.5594 42.4819C71.4366 43.6415 67.1112 45.4821 63.4485 47.5251C59.841 48.0772 57.209 44.3409 54.3929 42.6292C53.896 42.3347 53.6199 42.1506 53.4174 42.0402C52.4972 41.7273 51.448 41.893 50.7302 42.6292C50.7302 42.6292 46.6258 45.5005 43.6993 48.4454C40.7728 51.3903 37.515 55.8444 37.515 55.8444C36.5027 56.8567 36.5027 58.4948 37.515 59.5071C38.1592 60.1513 41.9139 64.6423 42.4109 68.5627V68.5995C40.3678 72.2623 38.5825 76.5692 37.4045 80.692C37.4045 80.692 37.4598 80.6184 37.4045 80.692C34.883 83.7474 30.7417 82.8639 27.5391 83.6369C26.1219 83.6369 24.9439 84.7965 24.9439 86.2321C24.9439 86.2321 24.0789 91.1648 24.0789 95.3245C24.0789 99.4842 24.9439 104.914 24.9439 104.914C24.9439 106.331 26.1035 107.509 27.5391 107.509C28.4778 107.509 34.2756 108.024 37.4045 110.454C37.4782 110.417 37.4414 110.509 37.4414 110.509C38.6377 114.65 40.3494 118.792 42.4293 122.436C42.3925 122.491 42.4293 122.436 42.4477 122.565C42.7974 126.338 39.2635 128.804 37.5518 131.62C37.2573 132.117 37.0732 132.393 36.9628 132.596C36.6499 133.516 36.8156 134.565 37.5518 135.283C37.5518 135.283 40.4231 139.388 43.368 142.314C46.3129 145.259 50.767 148.498 50.767 148.498C51.7793 149.511 53.4174 149.511 54.4298 148.498C55.074 147.854 59.5649 144.099 63.4853 143.603C63.4853 143.603 63.4669 143.621 63.5405 143.639C67.3137 145.738 71.1973 147.394 75.449 148.554C75.4858 148.572 75.6146 148.609 75.6146 148.609C78.5595 150.781 77.7865 155.272 78.5595 158.474C78.7252 159.91 79.5166 160.83 81.1547 161.069C81.1547 161.069 86.0875 161.935 90.2471 161.935C94.4068 161.935 99.8365 161.088 99.8365 161.088C101.254 160.849 102.432 159.928 102.432 158.493C102.432 157.554 102.947 151.756 105.377 148.627C105.377 148.627 105.487 148.535 105.579 148.443C109.904 147.228 113.199 145.885 117.027 143.695C117.23 143.621 117.009 143.639 117.469 143.566C121.077 143.014 123.709 146.75 126.525 148.462C127.022 148.756 127.298 148.94 127.5 149.051C128.42 149.363 129.47 149.198 130.187 148.462C130.187 148.462 134.292 145.59 137.218 142.645C140.163 139.701 143.403 135.246 143.403 135.246C144.415 134.234 144.415 132.596 143.403 131.584C142.758 130.939 139.004 126.448 138.507 122.528C138.451 122.123 138.488 122.068 138.544 121.957C140.734 118.111 142.096 115.295 143.292 110.914C143.292 110.914 143.237 110.767 143.513 110.399C145.685 107.454 150.176 108.227 153.378 107.454C154.796 107.454 155.974 106.294 155.974 104.859C155.974 104.859 156.839 99.9259 156.839 95.7663C156.839 91.6066 156.01 86.1953 156.01 86.1953Z" fill="url(#paint2_linear_204_2260)"/>
<path opacity="0.15" d="M156.01 87.9639C156.01 86.5466 154.851 85.3687 153.415 85.3687C152.477 85.3687 146.679 84.8533 143.55 82.4238C143.55 82.4238 143.568 82.387 143.55 82.4238C142.372 78.1353 140.642 74.1228 138.507 70.3129C137.955 66.7054 141.691 64.0734 143.403 61.2573C143.697 60.7603 143.881 60.4843 143.992 60.2818C144.304 59.3615 144.139 58.3124 143.403 57.5946C143.403 57.5946 140.531 53.4901 137.586 50.5636C134.642 47.6371 130.187 44.3793 130.187 44.3793C129.175 43.367 127.537 43.367 126.525 44.3793C125.862 45.0235 121.445 48.6678 117.451 49.2568C117.395 49.2568 117.395 49.2568 117.395 49.2568C113.696 47.1586 109.536 45.4284 105.377 44.2505H105.321C102.376 42.0786 103.149 37.5876 102.376 34.3851C102.376 32.9678 101.217 31.7899 99.7812 31.7899C99.7812 31.7899 94.8485 30.9248 90.6889 30.9248C86.5292 30.9248 81.0995 31.7899 81.0995 31.7899C79.6823 31.7899 78.5043 32.9494 78.5043 34.3851C78.5043 35.3238 77.989 41.1215 75.5594 44.2505C71.4366 45.41 67.1112 47.2506 63.4485 49.2936C59.841 49.8458 57.209 46.1095 54.3929 44.3977C53.896 44.1032 53.6199 43.9192 53.4174 43.8088C52.4972 43.4959 51.448 43.6615 50.7302 44.3977C50.7302 44.3977 46.6258 47.269 43.6993 50.2139C40.7728 53.1588 37.515 57.613 37.515 57.613C36.5027 58.6253 36.5027 60.2634 37.515 61.2757C38.1592 61.9199 41.9139 66.4109 42.4109 70.3313V70.3681C40.3678 74.0308 38.5825 78.3377 37.4045 82.4606C37.4045 82.4606 37.4598 82.387 37.4045 82.4606C34.883 85.5159 30.7417 84.6325 27.5391 85.4055C26.1219 85.4055 24.9439 86.5651 24.9439 88.0007C24.9439 88.0007 24.0789 92.9334 24.0789 97.0931C24.0789 101.253 24.9439 106.682 24.9439 106.682C24.9439 108.1 26.1035 109.278 27.5391 109.278C28.4778 109.278 34.2756 109.793 37.4045 112.223C37.4782 112.186 37.4414 112.278 37.4414 112.278C38.6377 116.419 40.3494 120.56 42.4293 124.205C42.3925 124.26 42.4293 124.205 42.4477 124.333C42.7974 128.107 39.2635 130.573 37.5518 133.389C37.2573 133.886 37.0732 134.162 36.9628 134.364C36.6499 135.285 36.8156 136.334 37.5518 137.052C37.5518 137.052 40.4231 141.156 43.368 144.083C46.3129 147.028 50.767 150.267 50.767 150.267C51.7793 151.279 53.4174 151.279 54.4298 150.267C55.074 149.623 59.5649 145.868 63.4853 145.371C63.4853 145.371 63.4669 145.389 63.5405 145.408C67.3137 147.506 71.1973 149.163 75.449 150.322C75.4858 150.341 75.6146 150.377 75.6146 150.377C78.5595 152.549 77.7865 157.04 78.5595 160.243C78.7252 161.678 79.5166 162.599 81.1547 162.838C81.1547 162.838 86.0875 163.703 90.2471 163.703C94.4068 163.703 99.8365 162.856 99.8365 162.856C101.254 162.617 102.432 161.697 102.432 160.261C102.432 159.323 102.947 153.525 105.377 150.396C105.377 150.396 105.487 150.304 105.579 150.212C109.904 148.997 113.199 147.653 117.027 145.463C117.23 145.389 117.009 145.408 117.469 145.334C121.077 144.782 123.709 148.518 126.525 150.23C127.022 150.525 127.298 150.709 127.5 150.819C128.42 151.132 129.47 150.966 130.187 150.23C130.187 150.23 134.292 147.359 137.218 144.414C140.163 141.469 143.403 137.015 143.403 137.015C144.415 136.003 144.415 134.364 143.403 133.352C142.758 132.708 139.004 128.217 138.507 124.297C138.451 123.892 138.488 123.836 138.544 123.726C140.734 119.879 142.096 117.063 143.292 112.683C143.292 112.683 143.237 112.535 143.513 112.167C145.685 109.222 150.176 109.995 153.378 109.222C154.796 109.222 155.974 108.063 155.974 106.627C155.974 106.627 156.839 101.694 156.839 97.5348C156.839 93.3751 156.01 87.9639 156.01 87.9639Z" fill="#1F1D20"/>
<path opacity="0.2" d="M121.222 133.287C123.141 133.287 124.705 131.723 124.705 129.804V66.4473H56.2068V129.78C56.2068 131.699 57.7706 133.263 59.6897 133.263L121.222 133.287Z" fill="#1F1D21"/>
<path d="M124.705 65.3555V64.2893C124.705 62.9624 123.639 61.9199 122.336 61.9199H58.5761C57.273 61.9199 56.2068 62.9861 56.2068 64.2893V65.474V66.5402V127.551C56.2068 128.878 57.273 129.92 58.5761 129.92H122.312C123.639 129.92 124.681 128.854 124.681 127.551V65.474C124.729 65.4266 124.705 65.4029 124.705 65.3555Z" fill="#F2F1F0"/>
<path fill-rule="evenodd" clip-rule="evenodd" d="M107.147 97.6562L89.5686 115.234L71.5491 97.2149C66.816 92.4817 66.816 84.7961 71.5491 80.0477L71.96 79.6368C76.6932 74.9036 84.3788 74.9036 89.1272 79.6368L107.147 97.6562Z" fill="url(#paint3_linear_204_2260)"/>
<path fill-rule="evenodd" clip-rule="evenodd" d="M89.4939 115.143L72.5398 98.1884L90.5592 80.169C95.2924 75.4359 102.978 75.4359 107.726 80.169L108.137 80.5799C112.87 85.3131 112.87 92.9987 108.137 97.7471L90.7266 115.143C90.3918 115.493 89.8439 115.493 89.4939 115.143Z" fill="url(#paint4_linear_204_2260)"/>
<path d="M103.784 115.885C109.871 115.885 114.817 110.954 114.817 104.851C114.802 98.7634 109.856 93.8477 103.784 93.8477C97.7112 93.8477 92.7498 98.7787 92.7498 104.882C92.7498 110.969 97.6808 115.885 103.784 115.885Z" fill="#002D4C"/>
<path d="M104.651 98.3984H102.84V111.304H104.651V98.3984Z" fill="#F2F2F2"/>
<path d="M110.191 104.045H97.3003V105.856H110.206L110.191 104.045Z" fill="#F2F2F2"/>
<path opacity="0.2" d="M121.222 133.287C123.141 133.287 124.705 131.723 124.705 129.804V66.4473H56.2068V129.78C56.2068 131.699 57.7706 133.263 59.6897 133.263L121.222 133.287Z" fill="#1F1D21"/>
<path d="M124.705 65.3555V64.2893C124.705 62.9624 123.639 61.9199 122.336 61.9199H58.5761C57.273 61.9199 56.2068 62.9861 56.2068 64.2893V65.474V66.5402V127.551C56.2068 128.878 57.273 129.92 58.5761 129.92H122.312C123.639 129.92 124.681 128.854 124.681 127.551V65.474C124.729 65.4266 124.705 65.4029 124.705 65.3555Z" fill="white"/>
<path fill-rule="evenodd" clip-rule="evenodd" d="M107.147 97.6562L89.5686 115.234L71.5491 97.2149C66.816 92.4817 66.816 84.7961 71.5491 80.0477L71.96 79.6368C76.6932 74.9036 84.3788 74.9036 89.1272 79.6368L107.147 97.6562Z" fill="url(#paint5_linear_204_2260)"/>
<path fill-rule="evenodd" clip-rule="evenodd" d="M89.4939 115.143L72.5398 98.1884L90.5592 80.169C95.2924 75.4359 102.978 75.4359 107.726 80.169L108.137 80.5799C112.87 85.3131 112.87 92.9987 108.137 97.7471L90.7266 115.143C90.3918 115.493 89.8439 115.493 89.4939 115.143Z" fill="url(#paint6_linear_204_2260)"/>
<path d="M103.784 115.885C109.871 115.885 114.817 110.954 114.817 104.851C114.802 98.7634 109.856 93.8477 103.784 93.8477C97.7112 93.8477 92.7498 98.7787 92.7498 104.882C92.7498 110.969 97.6808 115.885 103.784 115.885Z" fill="#002D4C"/>
<path d="M104.651 98.3984H102.84V111.304H104.651V98.3984Z" fill="#F2F2F2"/>
<path d="M110.191 104.045H97.3003V105.856H110.206L110.191 104.045Z" fill="#F2F2F2"/>
<defs>
<linearGradient id="paint0_linear_204_2260" x1="90.4587" y1="10.0703" x2="90.4587" y2="181.47" gradientUnits="userSpaceOnUse">
<stop stop-color="#00ABDE"/>
<stop offset="1" stop-color="#007ED8"/>
</linearGradient>
<linearGradient id="paint1_linear_204_2260" x1="36.5785" y1="4.86114" x2="203.256" y2="287.192" gradientUnits="userSpaceOnUse">
<stop stop-color="#007ED8"/>
<stop offset="0.7065" stop-color="#002D4C"/>
</linearGradient>
<linearGradient id="paint2_linear_204_2260" x1="95.6002" y1="-131.177" x2="86.2089" y2="288.298" gradientUnits="userSpaceOnUse">
<stop stop-color="#007ED8"/>
<stop offset="0.7065" stop-color="#002D4C"/>
</linearGradient>
<linearGradient id="paint3_linear_204_2260" x1="58.9676" y1="74.2323" x2="159.68" y2="150.929" gradientUnits="userSpaceOnUse">
<stop stop-color="#FFB900"/>
<stop offset="0.17" stop-color="#EF8400"/>
<stop offset="0.31" stop-color="#E25C01"/>
<stop offset="0.43" stop-color="#DB4401"/>
<stop offset="0.5" stop-color="#D83B01"/>
</linearGradient>
<linearGradient id="paint4_linear_204_2260" x1="67.6854" y1="84.6813" x2="143.091" y2="115.153" gradientUnits="userSpaceOnUse">
<stop stop-color="#FFB900"/>
<stop offset="0.17" stop-color="#EF8400"/>
<stop offset="0.31" stop-color="#E25C01"/>
<stop offset="0.43" stop-color="#DB4401"/>
<stop offset="0.5" stop-color="#D83B01"/>
</linearGradient>
<linearGradient id="paint5_linear_204_2260" x1="58.9676" y1="74.2323" x2="159.68" y2="150.929" gradientUnits="userSpaceOnUse">
<stop stop-color="#FFB900"/>
<stop offset="0.17" stop-color="#EF8400"/>
<stop offset="0.31" stop-color="#E25C01"/>
<stop offset="0.43" stop-color="#DB4401"/>
<stop offset="0.5" stop-color="#D83B01"/>
</linearGradient>
<linearGradient id="paint6_linear_204_2260" x1="67.6854" y1="84.6813" x2="143.091" y2="115.153" gradientUnits="userSpaceOnUse">
<stop stop-color="#FFB900"/>
<stop offset="0.17" stop-color="#EF8400"/>
<stop offset="0.31" stop-color="#E25C01"/>
<stop offset="0.43" stop-color="#DB4401"/>
<stop offset="0.5" stop-color="#D83B01"/>
</linearGradient>
</defs>
</svg>
