<svg width="103" height="103" viewBox="0 0 103 103" fill="none" xmlns="http://www.w3.org/2000/svg">
<path d="M51.9228 98.2704C26.0728 98.2704 5.11279 77.3204 5.11279 51.4604C5.11279 25.6004 26.0728 4.65039 51.9228 4.65039C77.7728 4.65039 98.7328 25.6104 98.7328 51.4604C98.7328 77.3104 77.7728 98.2704 51.9228 98.2704Z" fill="url(#paint0_linear_166_42566)"/>
<path fill-rule="evenodd" clip-rule="evenodd" d="M97.8228 51.4603C97.8228 76.8103 77.2728 97.3603 51.9228 97.3603C26.5728 97.3603 6.02278 76.8103 6.02278 51.4603C6.02278 26.1103 26.5728 5.56032 51.9228 5.56032C77.2728 5.56032 97.8228 26.1103 97.8228 51.4603ZM51.9228 1.82031C79.3428 1.82031 101.563 24.0403 101.563 51.4603C101.563 78.8803 79.3328 101.1 51.9228 101.1C24.5028 101.1 2.28278 78.8703 2.28278 51.4603C2.28278 24.0403 24.5028 1.82031 51.9228 1.82031Z" fill="#F2F1F0"/>
<path fill-rule="evenodd" clip-rule="evenodd" d="M95.0128 51.4609C95.0128 75.2609 75.7228 94.5509 51.9228 94.5509C28.1228 94.5509 8.8328 75.2609 8.8328 51.4609C8.8328 27.6609 28.1228 8.37086 51.9228 8.37086C75.7228 8.37086 95.0128 27.6609 95.0128 51.4609ZM51.9228 4.63086C77.7828 4.63086 98.7528 25.6009 98.7528 51.4609C98.7528 77.3209 77.7828 98.2909 51.9228 98.2909C26.0628 98.2909 5.0928 77.3209 5.0928 51.4609C5.0928 25.6009 26.0528 4.63086 51.9228 4.63086Z" fill="url(#paint1_linear_166_42566)"/>
<path d="M81.2774 57.7773H63.4907V58.8111H81.2774V57.7773Z" fill="white"/>
<path d="M81.2774 44.8535H63.4907V45.8872H81.2774V44.8535Z" fill="white"/>
<path d="M81.2774 71.7244H63.4907C63.2077 71.7244 62.9709 71.4934 62.9709 71.2047V32.4319C62.9709 32.1489 63.2019 31.9121 63.4907 31.9121H81.2774V32.9458H64.0046V70.6849H81.2774V71.7244Z" fill="white"/>
<path d="M39.0685 31.9121H56.8553C57.1382 31.9121 57.375 32.1431 57.375 32.4319V71.2047C57.375 71.4876 57.144 71.7244 56.8553 71.7244H39.0685V70.6907H56.3413V32.9516H39.0685V31.9121Z" fill="white"/>
<path d="M63.5484 51.6797H56.6358V52.7134H63.5484V51.6797Z" fill="white"/>
<path opacity="0.15" d="M83.1485 27.6797H70.2993C69.5197 27.6797 68.8844 28.3149 68.8844 29.0945V36.96C68.8844 37.7396 69.5197 38.3748 70.2993 38.3748H83.16C83.9397 38.3864 84.5749 37.7511 84.5749 36.96V29.1061C84.5749 28.3034 83.9397 27.6797 83.1485 27.6797Z" fill="#1F1D20"/>
<path opacity="0.15" d="M83.1485 53.8691H70.2993C69.5197 53.8691 68.8844 54.5044 68.8844 55.284V63.161C68.8844 63.9406 69.5197 64.5758 70.2993 64.5758H83.16C83.9397 64.5758 84.5749 63.9406 84.5749 63.161V55.3071C84.5749 54.5044 83.9397 53.8691 83.1485 53.8691Z" fill="#1F1D20"/>
<path opacity="0.15" d="M83.1485 40.748H70.2993C69.5197 40.748 68.8844 41.3833 68.8844 42.1629V50.0341C68.8844 50.8137 69.5197 51.449 70.2993 51.449H83.16C83.9397 51.4605 84.5749 50.8253 84.5749 50.0341V42.1629C84.5749 41.3833 83.9397 40.748 83.1485 40.748Z" fill="#1F1D20"/>
<path opacity="0.15" d="M83.1485 66.9316H70.2993C69.5197 66.9316 68.8844 67.5669 68.8844 68.3465V76.2235C68.8844 77.0031 69.5197 77.6383 70.2993 77.6383H83.16C83.9397 77.6383 84.5749 77.0031 84.5749 76.2235V68.358C84.5749 67.5784 83.9397 66.9316 83.1485 66.9316Z" fill="#1F1D20"/>
<path d="M83.1485 26.7441H70.2993C69.5197 26.7441 68.8844 27.3794 68.8844 28.159V36.0244C68.8844 36.8041 69.5197 37.4393 70.2993 37.4393H83.16C83.9397 37.4508 84.5749 36.8156 84.5749 36.0244V28.1705C84.5749 27.3794 83.9397 26.7441 83.1485 26.7441Z" fill="#84ECFD"/>
<path d="M83.1485 52.9277H70.2993C69.5197 52.9277 68.8844 53.563 68.8844 54.3426V62.2196C68.8844 62.9992 69.5197 63.6344 70.2993 63.6344H83.16C83.9397 63.6344 84.5749 62.9992 84.5749 62.2196V54.3657C84.5749 53.563 83.9397 52.9277 83.1485 52.9277Z" fill="#45CAF2"/>
<path d="M83.1485 39.8184H70.2993C69.5197 39.8184 68.8844 40.4536 68.8844 41.2332V49.0987C68.8844 49.8783 69.5197 50.5135 70.2993 50.5135H83.16C83.9397 50.5251 84.5749 49.8898 84.5749 49.0987V41.239C84.5749 40.4536 83.9397 39.8184 83.1485 39.8184Z" fill="#50E6FF"/>
<path d="M83.1485 66.0078H70.2993C69.5197 66.0078 68.8844 66.6431 68.8844 67.4227V75.2997C68.8844 76.0793 69.5197 76.7145 70.2993 76.7145H83.16C83.9397 76.7145 84.5749 76.0793 84.5749 75.2997V67.4342C84.5749 66.6546 83.9397 66.0078 83.1485 66.0078Z" fill="#32B0E7"/>
<path opacity="0.15" d="M51.167 28.2617H21.9459C20.5945 28.2617 19.4915 29.3532 19.4915 30.7161V49.0861C19.4915 50.4374 20.583 51.5404 21.9459 51.5404H50.3527C51.704 51.5404 52.807 50.449 52.807 49.0861V29.9076C52.8013 28.9894 52.0621 28.2617 51.167 28.2617Z" fill="#1F1D20"/>
<path d="M21.3222 50.017H50.9822C51.987 50.017 52.8128 49.2027 52.8128 48.1863V28.5689C52.8128 27.5641 51.9985 26.7383 50.9822 26.7383H21.3222C20.3173 26.7383 19.4915 27.5525 19.4915 28.5689V48.1863C19.5031 49.1912 20.3173 50.017 21.3222 50.017Z" fill="white"/>
<path opacity="0.15" d="M51.167 54.8164H21.9459C20.5945 54.8164 19.4915 55.9079 19.4915 57.2707V75.6408C19.4915 76.9921 20.583 78.0951 21.9459 78.0951H50.3527C51.704 78.0951 52.807 77.0036 52.807 75.6408V56.4565C52.8013 55.5556 52.0621 54.8164 51.167 54.8164Z" fill="#1F1D20"/>
<path d="M21.3222 76.5699H50.9822C51.987 76.5699 52.8128 75.7556 52.8128 74.7392V55.1334C52.8128 54.1285 51.9985 53.3027 50.9822 53.3027H21.3222C20.3173 53.3027 19.4915 54.117 19.4915 55.1334V74.7508C19.5031 75.7556 20.3173 76.5699 21.3222 76.5699Z" fill="white"/>
<path opacity="0.2" d="M43.931 70.3681C45.9003 70.3681 47.4999 69.3632 47.4999 68.1274C47.4999 66.8916 45.9003 65.8867 43.931 65.8867C41.9618 65.8867 40.3621 66.8916 40.3621 68.1274C40.3621 69.3632 41.9618 70.3681 43.931 70.3681Z" fill="#1F1D21"/>
<path opacity="0.2" d="M36.1291 70.4774C38.0983 70.4774 39.698 69.4726 39.698 68.2368C39.698 67.0009 38.0983 65.9961 36.1291 65.9961C34.1598 65.9961 32.5602 67.0009 32.5602 68.2368C32.5602 69.4726 34.1598 70.4774 36.1291 70.4774Z" fill="#1F1D21"/>
<path d="M39.7442 67.7464C39.5479 65.9561 38.0117 64.5586 36.158 64.5586C34.3216 64.5586 32.7912 65.933 32.5718 67.7059C32.5429 67.8272 32.5429 67.9658 32.5429 68.0928C32.5833 68.5953 32.9471 69.0861 33.5997 69.4673C35.0088 70.2758 37.313 70.2758 38.7047 69.4673C39.3631 69.0804 39.7038 68.5953 39.7442 68.0928C39.7731 67.9773 39.7615 67.8561 39.7442 67.7464Z" fill="url(#paint2_linear_166_42566)"/>
<path d="M36.1522 64.1886C37.3534 64.1886 38.3293 63.2184 38.3293 62.023C38.3293 60.8276 37.3534 59.8574 36.1522 59.8574C34.951 59.8574 33.975 60.8276 33.975 62.023C33.975 63.2184 34.951 64.1886 36.1522 64.1886Z" fill="url(#paint3_linear_166_42566)"/>
<path d="M47.471 67.4749C47.2747 65.6846 45.7386 64.2871 43.8848 64.2871C42.0484 64.2871 40.518 65.6615 40.2986 67.4344C40.2697 67.5557 40.2697 67.6943 40.2697 67.8214C40.3101 68.3238 40.674 68.8146 41.3265 69.1958C42.7356 70.0043 45.0398 70.0043 46.4316 69.1958C47.0899 68.8089 47.4306 68.3238 47.471 67.8214C47.5057 67.7059 47.4884 67.5788 47.471 67.4749Z" fill="url(#paint4_linear_166_42566)"/>
<path d="M43.8848 63.9113C45.086 63.9113 46.062 62.9411 46.062 61.7457C46.062 60.5503 45.0802 59.5801 43.8848 59.5801C42.6836 59.5801 41.7077 60.5503 41.7077 61.7457C41.7077 62.9411 42.6836 63.9113 43.8848 63.9113Z" fill="url(#paint5_linear_166_42566)"/>
<path opacity="0.2" d="M28.4715 70.3505C30.4408 70.3505 32.0404 69.3456 32.0404 68.1098C32.0404 66.874 30.4408 65.8691 28.4715 65.8691C26.5023 65.8691 24.9026 66.874 24.9026 68.1098C24.9026 69.3456 26.5023 70.3505 28.4715 70.3505Z" fill="#1F1D21"/>
<path d="M32.0116 67.4749C31.8152 65.6846 30.2791 64.2871 28.4253 64.2871C26.5889 64.2871 25.0586 65.6615 24.8391 67.4344C24.8045 67.5557 24.8045 67.6943 24.8045 67.8214C24.8449 68.3238 25.2087 68.8146 25.8613 69.1958C27.2704 70.0043 29.5746 70.0043 30.9663 69.1958C31.6247 68.8089 31.9654 68.3238 32.0058 67.8214C32.0405 67.7059 32.0289 67.5788 32.0116 67.4749Z" fill="url(#paint6_linear_166_42566)"/>
<path d="M28.4253 63.9113C29.6265 63.9113 30.6025 62.9411 30.6025 61.7457C30.6025 60.5503 29.6265 59.5801 28.4253 59.5801C27.2242 59.5801 26.2482 60.5503 26.2482 61.7457C26.2482 62.9411 27.2242 63.9113 28.4253 63.9113Z" fill="url(#paint7_linear_166_42566)"/>
<path d="M33.2015 35.8831L33.1177 46.555C33.1177 46.7925 32.964 47.0299 32.6567 47.1976C32.0421 47.5607 31.0224 47.5607 30.3938 47.1976C30.0726 47.016 29.9189 46.7785 29.9189 46.541L30.0027 35.8691C30.0027 36.1066 30.1564 36.3441 30.4777 36.5257C31.1062 36.8888 32.112 36.8888 32.7405 36.5257C33.0478 36.3441 33.2015 36.1206 33.2015 35.8831Z" fill="url(#paint8_linear_166_42566)"/>
<path d="M32.7272 35.2294C33.3558 35.5926 33.3558 36.1793 32.7412 36.5425C32.1265 36.9056 31.1068 36.9056 30.4783 36.5425C29.8497 36.1793 29.8497 35.5926 30.4643 35.2294C31.0789 34.8662 32.0986 34.8662 32.7272 35.2294Z" fill="#0078D4"/>
<path d="M43.4126 31.3459C40.7167 31.7929 36.0093 31.2621 32.7966 30.3122C32.1401 30.1167 31.4696 29.8932 30.7991 29.6278C30.7293 29.5998 30.6594 29.5719 30.5896 29.5579C30.5197 29.53 30.4639 29.5021 30.394 29.4741C29.8912 29.2786 29.2486 29.3344 28.5502 29.7395C26.9718 30.6614 25.7006 32.8685 25.7006 34.6844C25.7006 35.285 25.8543 35.7599 26.1057 36.1091C26.2873 36.2907 26.4689 36.4304 26.6644 36.5701C27.2651 37.0031 27.8518 37.2406 28.1591 37.4781L28.2988 37.5758C29.1369 38.1346 29.0531 38.1485 29.7096 38.7212C29.7794 38.7771 29.8493 38.833 29.9191 38.9028L33.048 41.8362C34.9896 43.8058 34.2912 43.0235 36.0093 45.3004L36.1351 45.454L36.0373 45.3144C35.297 44.141 36.2049 42.4508 39.4456 37.045C42.2253 32.4215 43.8876 32.6589 44.4882 31.8627C44.5999 31.6951 43.3009 31.3878 43.4126 31.3459Z" fill="#0078D4"/>
<path d="M40.94 32.1699C44.1528 30.3121 46.7649 31.8067 46.7649 35.4944C46.7788 39.182 44.1807 43.6799 40.968 45.5237C37.7552 47.3815 35.1431 45.8869 35.1292 42.1992C35.1431 38.5255 37.7413 34.0277 40.94 32.1699Z" fill="#185A97"/>
<path d="M26.1058 36.1074C26.2595 36.317 26.4412 36.4707 26.6647 36.5685C26.4831 36.4288 26.2875 36.2751 26.1058 36.1074Z" fill="#070D15"/>
<path d="M38.5518 35.2014C39.9766 34.3773 41.122 35.0338 41.136 36.6681C41.136 38.3024 39.9906 40.286 38.5797 41.1101C37.155 41.9203 35.9956 41.2637 35.9956 39.6294C35.9956 38.0091 37.141 36.0116 38.5518 35.2014Z" fill="#50E6FF"/>
<path fill-rule="evenodd" clip-rule="evenodd" d="M72.517 76.1923L61.4124 87.2968L50.0291 75.9135C47.039 72.9234 47.039 68.0682 50.0291 65.0685L50.2887 64.8089C53.2787 61.8189 58.134 61.8189 61.1336 64.8089L72.517 76.1923Z" fill="url(#paint9_linear_166_42566)"/>
<path fill-rule="evenodd" clip-rule="evenodd" d="M61.3652 87.2386L50.6548 76.5282L62.0382 65.1449C65.0282 62.1548 69.8835 62.1548 72.8831 65.1449L73.1427 65.4045C76.1328 68.3945 76.1328 73.2497 73.1427 76.2494L62.144 87.2386C61.9324 87.4597 61.5863 87.4597 61.3652 87.2386Z" fill="url(#paint10_linear_166_42566)"/>
<path d="M70.3924 87.7067C74.2382 87.7067 77.3628 84.5916 77.3628 80.7363C77.3532 76.8906 74.2285 73.7852 70.3924 73.7852C66.5563 73.7852 63.4221 76.9002 63.4221 80.7555C63.4221 84.6013 66.5371 87.7067 70.3924 87.7067Z" fill="#002D4C"/>
<path d="M70.9405 76.6602H69.7964V84.8131H70.9405V76.6602Z" fill="#F2F2F2"/>
<path d="M74.4401 80.2266H66.2968V81.3707H74.4497L74.4401 80.2266Z" fill="#F2F2F2"/>
<path d="M81.2774 57.7773H63.4907V58.8111H81.2774V57.7773Z" fill="white"/>
<path d="M81.2774 44.8535H63.4907V45.8872H81.2774V44.8535Z" fill="white"/>
<path d="M81.2774 71.7244H63.4907C63.2077 71.7244 62.9709 71.4934 62.9709 71.2047V32.4319C62.9709 32.1489 63.2019 31.9121 63.4907 31.9121H81.2774V32.9458H64.0046V70.6849H81.2774V71.7244Z" fill="white"/>
<path d="M39.0685 31.9121H56.8553C57.1382 31.9121 57.375 32.1431 57.375 32.4319V71.2047C57.375 71.4876 57.144 71.7244 56.8553 71.7244H39.0685V70.6907H56.3413V32.9516H39.0685V31.9121Z" fill="white"/>
<path d="M63.5484 51.6797H56.6358V52.7134H63.5484V51.6797Z" fill="white"/>
<path opacity="0.15" d="M83.1485 27.6797H70.2993C69.5197 27.6797 68.8844 28.3149 68.8844 29.0945V36.96C68.8844 37.7396 69.5197 38.3748 70.2993 38.3748H83.16C83.9397 38.3864 84.5749 37.7511 84.5749 36.96V29.1061C84.5749 28.3034 83.9397 27.6797 83.1485 27.6797Z" fill="#1F1D20"/>
<path opacity="0.15" d="M83.1485 53.8691H70.2993C69.5197 53.8691 68.8844 54.5044 68.8844 55.284V63.161C68.8844 63.9406 69.5197 64.5758 70.2993 64.5758H83.16C83.9397 64.5758 84.5749 63.9406 84.5749 63.161V55.3071C84.5749 54.5044 83.9397 53.8691 83.1485 53.8691Z" fill="#1F1D20"/>
<path opacity="0.15" d="M83.1485 40.748H70.2993C69.5197 40.748 68.8844 41.3833 68.8844 42.1629V50.0341C68.8844 50.8137 69.5197 51.449 70.2993 51.449H83.16C83.9397 51.4605 84.5749 50.8253 84.5749 50.0341V42.1629C84.5749 41.3833 83.9397 40.748 83.1485 40.748Z" fill="#1F1D20"/>
<path opacity="0.15" d="M83.1485 66.9316H70.2993C69.5197 66.9316 68.8844 67.5669 68.8844 68.3465V76.2235C68.8844 77.0031 69.5197 77.6383 70.2993 77.6383H83.16C83.9397 77.6383 84.5749 77.0031 84.5749 76.2235V68.358C84.5749 67.5784 83.9397 66.9316 83.1485 66.9316Z" fill="#1F1D20"/>
<path d="M83.1485 26.7441H70.2993C69.5197 26.7441 68.8844 27.3794 68.8844 28.159V36.0244C68.8844 36.8041 69.5197 37.4393 70.2993 37.4393H83.16C83.9397 37.4508 84.5749 36.8156 84.5749 36.0244V28.1705C84.5749 27.3794 83.9397 26.7441 83.1485 26.7441Z" fill="#84ECFD"/>
<path d="M83.1485 52.9277H70.2993C69.5197 52.9277 68.8844 53.563 68.8844 54.3426V62.2196C68.8844 62.9992 69.5197 63.6344 70.2993 63.6344H83.16C83.9397 63.6344 84.5749 62.9992 84.5749 62.2196V54.3657C84.5749 53.563 83.9397 52.9277 83.1485 52.9277Z" fill="#45CAF2"/>
<path d="M83.1485 39.8184H70.2993C69.5197 39.8184 68.8844 40.4536 68.8844 41.2332V49.0987C68.8844 49.8783 69.5197 50.5135 70.2993 50.5135H83.16C83.9397 50.5251 84.5749 49.8898 84.5749 49.0987V41.239C84.5749 40.4536 83.9397 39.8184 83.1485 39.8184Z" fill="#50E6FF"/>
<path d="M83.1485 66.0078H70.2993C69.5197 66.0078 68.8844 66.6431 68.8844 67.4227V75.2997C68.8844 76.0793 69.5197 76.7145 70.2993 76.7145H83.16C83.9397 76.7145 84.5749 76.0793 84.5749 75.2997V67.4342C84.5749 66.6546 83.9397 66.0078 83.1485 66.0078Z" fill="#32B0E7"/>
<path opacity="0.15" d="M51.167 28.2617H21.9459C20.5945 28.2617 19.4915 29.3532 19.4915 30.7161V49.0861C19.4915 50.4374 20.583 51.5404 21.9459 51.5404H50.3527C51.704 51.5404 52.807 50.449 52.807 49.0861V29.9076C52.8013 28.9894 52.0621 28.2617 51.167 28.2617Z" fill="#1F1D20"/>
<path d="M21.3222 50.017H50.9822C51.987 50.017 52.8128 49.2027 52.8128 48.1863V28.5689C52.8128 27.5641 51.9985 26.7383 50.9822 26.7383H21.3222C20.3173 26.7383 19.4915 27.5525 19.4915 28.5689V48.1863C19.5031 49.1912 20.3173 50.017 21.3222 50.017Z" fill="white"/>
<path opacity="0.15" d="M51.167 54.8164H21.9459C20.5945 54.8164 19.4915 55.9079 19.4915 57.2707V75.6408C19.4915 76.9921 20.583 78.0951 21.9459 78.0951H50.3527C51.704 78.0951 52.807 77.0036 52.807 75.6408V56.4565C52.8013 55.5556 52.0621 54.8164 51.167 54.8164Z" fill="#1F1D20"/>
<path d="M21.3222 76.5699H50.9822C51.987 76.5699 52.8128 75.7556 52.8128 74.7392V55.1334C52.8128 54.1285 51.9985 53.3027 50.9822 53.3027H21.3222C20.3173 53.3027 19.4915 54.117 19.4915 55.1334V74.7508C19.5031 75.7556 20.3173 76.5699 21.3222 76.5699Z" fill="white"/>
<path opacity="0.2" d="M43.931 70.3681C45.9003 70.3681 47.4999 69.3632 47.4999 68.1274C47.4999 66.8916 45.9003 65.8867 43.931 65.8867C41.9618 65.8867 40.3621 66.8916 40.3621 68.1274C40.3621 69.3632 41.9618 70.3681 43.931 70.3681Z" fill="#1F1D21"/>
<path opacity="0.2" d="M36.1291 70.4774C38.0983 70.4774 39.698 69.4726 39.698 68.2368C39.698 67.0009 38.0983 65.9961 36.1291 65.9961C34.1598 65.9961 32.5602 67.0009 32.5602 68.2368C32.5602 69.4726 34.1598 70.4774 36.1291 70.4774Z" fill="#1F1D21"/>
<path d="M39.7442 67.7464C39.5479 65.9561 38.0117 64.5586 36.158 64.5586C34.3216 64.5586 32.7912 65.933 32.5718 67.7059C32.5429 67.8272 32.5429 67.9658 32.5429 68.0928C32.5833 68.5953 32.9471 69.0861 33.5997 69.4673C35.0088 70.2758 37.313 70.2758 38.7047 69.4673C39.3631 69.0804 39.7038 68.5953 39.7442 68.0928C39.7731 67.9773 39.7615 67.8561 39.7442 67.7464Z" fill="url(#paint11_linear_166_42566)"/>
<path d="M36.1522 64.1886C37.3534 64.1886 38.3293 63.2184 38.3293 62.023C38.3293 60.8276 37.3534 59.8574 36.1522 59.8574C34.951 59.8574 33.975 60.8276 33.975 62.023C33.975 63.2184 34.951 64.1886 36.1522 64.1886Z" fill="url(#paint12_linear_166_42566)"/>
<path d="M47.471 67.4749C47.2747 65.6846 45.7386 64.2871 43.8848 64.2871C42.0484 64.2871 40.518 65.6615 40.2986 67.4344C40.2697 67.5557 40.2697 67.6943 40.2697 67.8214C40.3101 68.3238 40.674 68.8146 41.3265 69.1958C42.7356 70.0043 45.0398 70.0043 46.4316 69.1958C47.0899 68.8089 47.4306 68.3238 47.471 67.8214C47.5057 67.7059 47.4884 67.5788 47.471 67.4749Z" fill="url(#paint13_linear_166_42566)"/>
<path d="M43.8848 63.9113C45.086 63.9113 46.062 62.9411 46.062 61.7457C46.062 60.5503 45.0802 59.5801 43.8848 59.5801C42.6836 59.5801 41.7077 60.5503 41.7077 61.7457C41.7077 62.9411 42.6836 63.9113 43.8848 63.9113Z" fill="url(#paint14_linear_166_42566)"/>
<path opacity="0.2" d="M28.4715 70.3505C30.4408 70.3505 32.0404 69.3456 32.0404 68.1098C32.0404 66.874 30.4408 65.8691 28.4715 65.8691C26.5023 65.8691 24.9026 66.874 24.9026 68.1098C24.9026 69.3456 26.5023 70.3505 28.4715 70.3505Z" fill="#1F1D21"/>
<path d="M32.0116 67.4749C31.8152 65.6846 30.2791 64.2871 28.4253 64.2871C26.5889 64.2871 25.0586 65.6615 24.8391 67.4344C24.8045 67.5557 24.8045 67.6943 24.8045 67.8214C24.8449 68.3238 25.2087 68.8146 25.8613 69.1958C27.2704 70.0043 29.5746 70.0043 30.9663 69.1958C31.6247 68.8089 31.9654 68.3238 32.0058 67.8214C32.0405 67.7059 32.0289 67.5788 32.0116 67.4749Z" fill="url(#paint15_linear_166_42566)"/>
<path d="M28.4253 63.9113C29.6265 63.9113 30.6025 62.9411 30.6025 61.7457C30.6025 60.5503 29.6265 59.5801 28.4253 59.5801C27.2242 59.5801 26.2482 60.5503 26.2482 61.7457C26.2482 62.9411 27.2242 63.9113 28.4253 63.9113Z" fill="url(#paint16_linear_166_42566)"/>
<path d="M33.2015 35.8831L33.1177 46.555C33.1177 46.7925 32.964 47.0299 32.6567 47.1976C32.0421 47.5607 31.0224 47.5607 30.3938 47.1976C30.0726 47.016 29.9189 46.7785 29.9189 46.541L30.0027 35.8691C30.0027 36.1066 30.1564 36.3441 30.4777 36.5257C31.1062 36.8888 32.112 36.8888 32.7405 36.5257C33.0478 36.3441 33.2015 36.1206 33.2015 35.8831Z" fill="url(#paint17_linear_166_42566)"/>
<path d="M32.7272 35.2294C33.3558 35.5926 33.3558 36.1793 32.7412 36.5425C32.1265 36.9056 31.1068 36.9056 30.4783 36.5425C29.8497 36.1793 29.8497 35.5926 30.4643 35.2294C31.0789 34.8662 32.0986 34.8662 32.7272 35.2294Z" fill="#0078D4"/>
<path d="M43.4126 31.3459C40.7167 31.7929 36.0093 31.2621 32.7966 30.3122C32.1401 30.1167 31.4696 29.8932 30.7991 29.6278C30.7293 29.5998 30.6594 29.5719 30.5896 29.5579C30.5197 29.53 30.4639 29.5021 30.394 29.4741C29.8912 29.2786 29.2486 29.3344 28.5502 29.7395C26.9718 30.6614 25.7006 32.8685 25.7006 34.6844C25.7006 35.285 25.8543 35.7599 26.1057 36.1091C26.2873 36.2907 26.4689 36.4304 26.6644 36.5701C27.2651 37.0031 27.8518 37.2406 28.1591 37.4781L28.2988 37.5758C29.1369 38.1346 29.0531 38.1485 29.7096 38.7212C29.7794 38.7771 29.8493 38.833 29.9191 38.9028L33.048 41.8362C34.9896 43.8058 34.2912 43.0235 36.0093 45.3004L36.1351 45.454L36.0373 45.3144C35.297 44.141 36.2049 42.4508 39.4456 37.045C42.2253 32.4215 43.8876 32.6589 44.4882 31.8627C44.5999 31.6951 43.3009 31.3878 43.4126 31.3459Z" fill="#0078D4"/>
<path d="M40.94 32.1699C44.1528 30.3121 46.7649 31.8067 46.7649 35.4944C46.7788 39.182 44.1807 43.6799 40.968 45.5237C37.7552 47.3815 35.1431 45.8869 35.1292 42.1992C35.1431 38.5255 37.7413 34.0277 40.94 32.1699Z" fill="#185A97"/>
<path d="M26.1058 36.1074C26.2595 36.317 26.4412 36.4707 26.6647 36.5685C26.4831 36.4288 26.2875 36.2751 26.1058 36.1074Z" fill="#070D15"/>
<path d="M38.5518 35.2014C39.9766 34.3773 41.122 35.0338 41.136 36.6681C41.136 38.3024 39.9906 40.286 38.5797 41.1101C37.155 41.9203 35.9956 41.2637 35.9956 39.6294C35.9956 38.0091 37.141 36.0116 38.5518 35.2014Z" fill="#50E6FF"/>
<path fill-rule="evenodd" clip-rule="evenodd" d="M72.517 76.1923L61.4124 87.2968L50.0291 75.9135C47.039 72.9234 47.039 68.0682 50.0291 65.0685L50.2887 64.8089C53.2787 61.8189 58.134 61.8189 61.1336 64.8089L72.517 76.1923Z" fill="url(#paint18_linear_166_42566)"/>
<path fill-rule="evenodd" clip-rule="evenodd" d="M61.3652 87.2386L50.6548 76.5282L62.0382 65.1449C65.0282 62.1548 69.8835 62.1548 72.8831 65.1449L73.1427 65.4045C76.1328 68.3945 76.1328 73.2497 73.1427 76.2494L62.144 87.2386C61.9324 87.4597 61.5863 87.4597 61.3652 87.2386Z" fill="url(#paint19_linear_166_42566)"/>
<path d="M70.3924 87.7067C74.2382 87.7067 77.3628 84.5916 77.3628 80.7363C77.3532 76.8906 74.2285 73.7852 70.3924 73.7852C66.5563 73.7852 63.4221 76.9002 63.4221 80.7555C63.4221 84.6013 66.5371 87.7067 70.3924 87.7067Z" fill="#002D4C"/>
<path d="M70.9405 76.6602H69.7964V84.8131H70.9405V76.6602Z" fill="#F2F2F2"/>
<path d="M74.4401 80.2266H66.2968V81.3707H74.4497L74.4401 80.2266Z" fill="#F2F2F2"/>
<defs>
<linearGradient id="paint0_linear_166_42566" x1="50.1489" y1="-13.3291" x2="54.1309" y2="132.441" gradientUnits="userSpaceOnUse">
<stop stop-color="#00ABDE"/>
<stop offset="1" stop-color="#007ED8"/>
</linearGradient>
<linearGradient id="paint1_linear_166_42566" x1="3.3532" y1="-20.1617" x2="98.8807" y2="120.72" gradientUnits="userSpaceOnUse">
<stop stop-color="#007ED8"/>
<stop offset="0.7065" stop-color="#002D4C"/>
</linearGradient>
<linearGradient id="paint2_linear_166_42566" x1="33.7505" y1="64.5166" x2="40.1693" y2="72.9986" gradientUnits="userSpaceOnUse">
<stop stop-color="#007ED8"/>
<stop offset="0.7065" stop-color="#002D4C"/>
</linearGradient>
<linearGradient id="paint3_linear_166_42566" x1="34.0304" y1="59.41" x2="38.9591" y2="65.485" gradientUnits="userSpaceOnUse">
<stop stop-color="#007ED8"/>
<stop offset="0.7065" stop-color="#002D4C"/>
</linearGradient>
<linearGradient id="paint4_linear_166_42566" x1="41.3757" y1="64.1662" x2="48.3677" y2="73.2214" gradientUnits="userSpaceOnUse">
<stop stop-color="#007ED8"/>
<stop offset="0.7065" stop-color="#002D4C"/>
</linearGradient>
<linearGradient id="paint5_linear_166_42566" x1="41.4402" y1="59.3484" x2="47.8591" y2="65.6526" gradientUnits="userSpaceOnUse">
<stop stop-color="#007ED8"/>
<stop offset="0.7065" stop-color="#002D4C"/>
</linearGradient>
<linearGradient id="paint6_linear_166_42566" x1="26.2121" y1="64.1047" x2="32.4017" y2="73.5037" gradientUnits="userSpaceOnUse">
<stop stop-color="#007ED8"/>
<stop offset="0.7065" stop-color="#002D4C"/>
</linearGradient>
<linearGradient id="paint7_linear_166_42566" x1="26.6522" y1="59.0334" x2="32.0394" y2="67.2862" gradientUnits="userSpaceOnUse">
<stop stop-color="#007ED8"/>
<stop offset="0.7065" stop-color="#002D4C"/>
</linearGradient>
<linearGradient id="paint8_linear_166_42566" x1="31.5593" y1="34.9621" x2="31.5593" y2="50.0168" gradientUnits="userSpaceOnUse">
<stop stop-color="#4DC1EA"/>
<stop offset="0.585" stop-color="#0078D4"/>
</linearGradient>
<linearGradient id="paint9_linear_166_42566" x1="42.081" y1="61.3948" x2="105.704" y2="109.846" gradientUnits="userSpaceOnUse">
<stop stop-color="#FFB900"/>
<stop offset="0.17" stop-color="#EF8400"/>
<stop offset="0.31" stop-color="#E25C01"/>
<stop offset="0.43" stop-color="#DB4401"/>
<stop offset="0.5" stop-color="#D83B01"/>
</linearGradient>
<linearGradient id="paint10_linear_166_42566" x1="47.5882" y1="67.9954" x2="95.2238" y2="87.2454" gradientUnits="userSpaceOnUse">
<stop stop-color="#FFB900"/>
<stop offset="0.17" stop-color="#EF8400"/>
<stop offset="0.31" stop-color="#E25C01"/>
<stop offset="0.43" stop-color="#DB4401"/>
<stop offset="0.5" stop-color="#D83B01"/>
</linearGradient>
<linearGradient id="paint11_linear_166_42566" x1="33.7505" y1="64.5166" x2="40.1693" y2="72.9986" gradientUnits="userSpaceOnUse">
<stop stop-color="#007ED8"/>
<stop offset="0.7065" stop-color="#002D4C"/>
</linearGradient>
<linearGradient id="paint12_linear_166_42566" x1="34.0304" y1="59.41" x2="38.9591" y2="65.485" gradientUnits="userSpaceOnUse">
<stop stop-color="#007ED8"/>
<stop offset="0.7065" stop-color="#002D4C"/>
</linearGradient>
<linearGradient id="paint13_linear_166_42566" x1="41.3757" y1="64.1662" x2="48.3677" y2="73.2214" gradientUnits="userSpaceOnUse">
<stop stop-color="#007ED8"/>
<stop offset="0.7065" stop-color="#002D4C"/>
</linearGradient>
<linearGradient id="paint14_linear_166_42566" x1="41.4402" y1="59.3484" x2="47.8591" y2="65.6526" gradientUnits="userSpaceOnUse">
<stop stop-color="#007ED8"/>
<stop offset="0.7065" stop-color="#002D4C"/>
</linearGradient>
<linearGradient id="paint15_linear_166_42566" x1="26.2121" y1="64.1047" x2="32.4017" y2="73.5037" gradientUnits="userSpaceOnUse">
<stop stop-color="#007ED8"/>
<stop offset="0.7065" stop-color="#002D4C"/>
</linearGradient>
<linearGradient id="paint16_linear_166_42566" x1="26.6522" y1="59.0334" x2="32.0394" y2="67.2862" gradientUnits="userSpaceOnUse">
<stop stop-color="#007ED8"/>
<stop offset="0.7065" stop-color="#002D4C"/>
</linearGradient>
<linearGradient id="paint17_linear_166_42566" x1="31.5593" y1="34.9621" x2="31.5593" y2="50.0168" gradientUnits="userSpaceOnUse">
<stop stop-color="#4DC1EA"/>
<stop offset="0.585" stop-color="#0078D4"/>
</linearGradient>
<linearGradient id="paint18_linear_166_42566" x1="42.081" y1="61.3948" x2="105.704" y2="109.846" gradientUnits="userSpaceOnUse">
<stop stop-color="#FFB900"/>
<stop offset="0.17" stop-color="#EF8400"/>
<stop offset="0.31" stop-color="#E25C01"/>
<stop offset="0.43" stop-color="#DB4401"/>
<stop offset="0.5" stop-color="#D83B01"/>
</linearGradient>
<linearGradient id="paint19_linear_166_42566" x1="47.5882" y1="67.9954" x2="95.2238" y2="87.2454" gradientUnits="userSpaceOnUse">
<stop stop-color="#FFB900"/>
<stop offset="0.17" stop-color="#EF8400"/>
<stop offset="0.31" stop-color="#E25C01"/>
<stop offset="0.43" stop-color="#DB4401"/>
<stop offset="0.5" stop-color="#D83B01"/>
</linearGradient>
</defs>
</svg>
