<svg width="103" height="103" viewBox="0 0 103 103" fill="none" xmlns="http://www.w3.org/2000/svg">
<path d="M51.6838 97.951C25.8338 97.951 4.87378 77.0011 4.87378 51.1411C4.87378 25.2811 25.8338 4.33105 51.6838 4.33105C77.5338 4.33105 98.4938 25.2911 98.4938 51.1411C98.4938 76.9911 77.5338 97.951 51.6838 97.951Z" fill="url(#paint0_linear)"/>
<path fill-rule="evenodd" clip-rule="evenodd" d="M97.5839 51.141C97.5839 76.491 77.0339 97.041 51.6839 97.041C26.3339 97.041 5.78395 76.491 5.78395 51.141C5.78395 25.791 26.3339 5.24098 51.6839 5.24098C77.0339 5.24098 97.5839 25.791 97.5839 51.141ZM51.6839 1.50098C79.1039 1.50098 101.324 23.721 101.324 51.141C101.324 78.561 79.0939 100.781 51.6839 100.781C24.2639 100.781 2.04395 78.551 2.04395 51.141C2.04395 23.721 24.2639 1.50098 51.6839 1.50098Z" fill="#F2F1F0"/>
<path fill-rule="evenodd" clip-rule="evenodd" d="M94.7738 51.141C94.7738 74.941 75.4838 94.231 51.6838 94.231C27.8838 94.231 8.59376 74.941 8.59376 51.141C8.59376 27.341 27.8838 8.05103 51.6838 8.05103C75.4838 8.05103 94.7738 27.341 94.7738 51.141ZM51.6838 4.31104C77.5438 4.31104 98.5138 25.281 98.5138 51.141C98.5138 77.001 77.5438 97.971 51.6838 97.971C25.8238 97.971 4.85376 77.001 4.85376 51.141C4.85376 25.281 25.8138 4.31104 51.6838 4.31104Z" fill="#0078D4"/>
<path opacity="0.15" d="M87.3138 46.5315C87.3138 45.7615 86.6838 45.1215 85.9038 45.1215C85.3938 45.1215 82.2438 44.8415 80.5438 43.5215C80.5438 43.5215 80.5538 43.5015 80.5438 43.5215C79.9038 41.1915 78.9638 39.0115 77.8038 36.9415C77.5038 34.9815 79.5338 33.5515 80.4638 32.0215C80.6238 31.7515 80.7238 31.6015 80.7838 31.4915C80.9538 30.9915 80.8638 30.4215 80.4638 30.0315C80.4638 30.0315 78.9038 27.8015 77.3038 26.2115C75.7038 24.6215 73.2838 22.8515 73.2838 22.8515C72.7338 22.3015 71.8438 22.3015 71.2938 22.8515C70.9338 23.2015 68.5338 25.1815 66.3638 25.5015C66.3338 25.5015 66.3338 25.5015 66.3338 25.5015C64.3238 24.3615 62.0638 23.4215 59.8038 22.7815H59.7738C58.1738 21.6015 58.5938 19.1615 58.1738 17.4215C58.1738 16.6515 57.5438 16.0115 56.7638 16.0115C56.7638 16.0115 54.0838 15.5415 51.8238 15.5415C49.5638 15.5415 46.6138 16.0115 46.6138 16.0115C45.8438 16.0115 45.2038 16.6415 45.2038 17.4215C45.2038 17.9315 44.9238 21.0815 43.6038 22.7815C41.3638 23.4115 39.0138 24.4115 37.0238 25.5215C35.0638 25.8215 33.6338 23.7915 32.1038 22.8615C31.8338 22.7015 31.6838 22.6015 31.5738 22.5415C31.0738 22.3715 30.5038 22.4615 30.1138 22.8615C30.1138 22.8615 27.8838 24.4215 26.2938 26.0215C24.7038 27.6215 22.9338 30.0415 22.9338 30.0415C22.3838 30.5915 22.3838 31.4815 22.9338 32.0315C23.2838 32.3815 25.3238 34.8215 25.5938 36.9515V36.9715C24.4838 38.9615 23.5138 41.3015 22.8738 43.5415C22.8738 43.5415 22.9038 43.5015 22.8738 43.5415C21.5038 45.2015 19.2538 44.7215 17.5138 45.1415C16.7438 45.1415 16.1038 45.7715 16.1038 46.5515C16.1038 46.5515 15.6338 49.2315 15.6338 51.4915C15.6338 53.7515 16.1038 56.7015 16.1038 56.7015C16.1038 57.4715 16.7338 58.1115 17.5138 58.1115C18.0238 58.1115 21.1738 58.3915 22.8738 59.7115C22.9138 59.6915 22.8938 59.7415 22.8938 59.7415C23.5438 61.9915 24.4738 64.2415 25.6038 66.2215C25.5838 66.2515 25.6038 66.2215 25.6138 66.2915C25.8038 68.3415 23.8838 69.6815 22.9538 71.2115C22.7938 71.4815 22.6938 71.6315 22.6338 71.7415C22.4638 72.2415 22.5538 72.8115 22.9538 73.2015C22.9538 73.2015 24.5138 75.4315 26.1138 77.0215C27.7138 78.6215 30.1338 80.3815 30.1338 80.3815C30.6838 80.9315 31.5738 80.9315 32.1238 80.3815C32.4738 80.0315 34.9138 77.9915 37.0438 77.7215C37.0438 77.7215 37.0338 77.7315 37.0738 77.7415C39.1238 78.8815 41.2338 79.7815 43.5438 80.4115C43.5638 80.4215 43.6338 80.4415 43.6338 80.4415C45.2338 81.6215 44.8138 84.0615 45.2338 85.8015C45.3238 86.5815 45.7538 87.0815 46.6438 87.2115C46.6438 87.2115 49.3238 87.6815 51.5838 87.6815C53.8438 87.6815 56.7938 87.2215 56.7938 87.2215C57.5638 87.0915 58.2038 86.5915 58.2038 85.8115C58.2038 85.3015 58.4838 82.1515 59.8038 80.4515C59.8038 80.4515 59.8638 80.4015 59.9138 80.3515C62.2638 79.6915 64.0538 78.9615 66.1338 77.7715C66.2438 77.7315 66.1238 77.7415 66.3738 77.7015C68.3338 77.4015 69.7638 79.4315 71.2938 80.3615C71.5638 80.5215 71.7138 80.6215 71.8238 80.6815C72.3238 80.8515 72.8938 80.7615 73.2838 80.3615C73.2838 80.3615 75.5138 78.8015 77.1038 77.2015C78.7038 75.6015 80.4638 73.1815 80.4638 73.1815C81.0138 72.6315 81.0138 71.7415 80.4638 71.1915C80.1138 70.8415 78.0738 68.4015 77.8038 66.2715C77.7738 66.0515 77.7938 66.0215 77.8238 65.9615C79.0138 63.8715 79.7538 62.3415 80.4038 59.9615C80.4038 59.9615 80.3738 59.8815 80.5238 59.6815C81.7038 58.0815 84.1438 58.5015 85.8838 58.0815C86.6538 58.0815 87.2938 57.4515 87.2938 56.6715C87.2938 56.6715 87.7638 53.9915 87.7638 51.7315C87.7738 49.4915 87.3138 46.5315 87.3138 46.5315Z" fill="#1F1D20"/>
<path d="M87.3138 45.5813C87.3138 44.8113 86.6838 44.1713 85.9038 44.1713C85.3938 44.1713 82.2438 43.8913 80.5438 42.5713C80.5438 42.5713 80.5538 42.5513 80.5438 42.5713C79.9038 40.2413 78.9638 38.0613 77.8038 35.9913C77.5038 34.0313 79.5338 32.6013 80.4638 31.0713C80.6238 30.8013 80.7238 30.6513 80.7838 30.5413C80.9538 30.0413 80.8638 29.4713 80.4638 29.0813C80.4638 29.0813 78.9038 26.8513 77.3038 25.2613C75.7038 23.6713 73.2838 21.9013 73.2838 21.9013C72.7338 21.3513 71.8438 21.3513 71.2938 21.9013C70.9338 22.2513 68.5338 24.2313 66.3638 24.5513C66.3338 24.5513 66.3338 24.5513 66.3338 24.5513C64.3238 23.4113 62.0638 22.4713 59.8038 21.8313H59.7738C58.1738 20.6513 58.5938 18.2113 58.1738 16.4713C58.1738 15.7013 57.5438 15.0613 56.7638 15.0613C56.7638 15.0613 54.0838 14.5913 51.8238 14.5913C49.5638 14.5913 46.6138 15.0613 46.6138 15.0613C45.8438 15.0613 45.2038 15.6913 45.2038 16.4713C45.2038 16.9813 44.9238 20.1313 43.6038 21.8313C41.3638 22.4613 39.0138 23.4613 37.0238 24.5713C35.0638 24.8713 33.6338 22.8413 32.1038 21.9113C31.8338 21.7513 31.6838 21.6513 31.5738 21.5913C31.0738 21.4213 30.5038 21.5113 30.1138 21.9113C30.1138 21.9113 27.8838 23.4713 26.2938 25.0713C24.7038 26.6713 22.9338 29.0913 22.9338 29.0913C22.3838 29.6413 22.3838 30.5313 22.9338 31.0813C23.2838 31.4313 25.3238 33.8713 25.5938 36.0013V36.0213C24.4838 38.0113 23.5138 40.3513 22.8738 42.5913C22.8738 42.5913 22.9038 42.5513 22.8738 42.5913C21.5038 44.2513 19.2538 43.7713 17.5138 44.1913C16.7438 44.1913 16.1038 44.8213 16.1038 45.6013C16.1038 45.6013 15.6338 48.2813 15.6338 50.5413C15.6338 52.8013 16.1038 55.7513 16.1038 55.7513C16.1038 56.5213 16.7338 57.1613 17.5138 57.1613C18.0238 57.1613 21.1738 57.4413 22.8738 58.7613C22.9138 58.7413 22.8938 58.7913 22.8938 58.7913C23.5438 61.0413 24.4738 63.2913 25.6038 65.2713C25.5838 65.3013 25.6038 65.2713 25.6138 65.3413C25.8038 67.3913 23.8838 68.7313 22.9538 70.2613C22.7938 70.5313 22.6938 70.6813 22.6338 70.7913C22.4638 71.2913 22.5538 71.8613 22.9538 72.2513C22.9538 72.2513 24.5138 74.4813 26.1138 76.0713C27.7138 77.6713 30.1338 79.4313 30.1338 79.4313C30.6838 79.9813 31.5738 79.9813 32.1238 79.4313C32.4738 79.0813 34.9138 77.0413 37.0438 76.7713C37.0438 76.7713 37.0338 76.7813 37.0738 76.7913C39.1238 77.9313 41.2338 78.8313 43.5438 79.4613C43.5638 79.4713 43.6338 79.4913 43.6338 79.4913C45.2338 80.6713 44.8138 83.1113 45.2338 84.8513C45.3238 85.6313 45.7538 86.1313 46.6438 86.2613C46.6438 86.2613 49.3238 86.7313 51.5838 86.7313C53.8438 86.7313 56.7938 86.2713 56.7938 86.2713C57.5638 86.1413 58.2038 85.6413 58.2038 84.8613C58.2038 84.3513 58.4838 81.2013 59.8038 79.5013C59.8038 79.5013 59.8638 79.4513 59.9138 79.4013C62.2638 78.7413 64.0538 78.0113 66.1338 76.8213C66.2438 76.7813 66.1238 76.7913 66.3738 76.7513C68.3338 76.4513 69.7638 78.4813 71.2938 79.4113C71.5638 79.5713 71.7138 79.6713 71.8238 79.7313C72.3238 79.9013 72.8938 79.8113 73.2838 79.4113C73.2838 79.4113 75.5138 77.8513 77.1038 76.2513C78.7038 74.6513 80.4638 72.2313 80.4638 72.2313C81.0138 71.6813 81.0138 70.7913 80.4638 70.2413C80.1138 69.8913 78.0738 67.4513 77.8038 65.3213C77.7738 65.1013 77.7938 65.0713 77.8238 65.0113C79.0138 62.9213 79.7538 61.3913 80.4038 59.0113C80.4038 59.0113 80.3738 58.9313 80.5238 58.7313C81.7038 57.1313 84.1438 57.5513 85.8838 57.1313C86.6538 57.1313 87.2938 56.5013 87.2938 55.7213C87.2938 55.7213 87.7638 53.0413 87.7638 50.7813C87.7738 48.5313 87.3138 45.5813 87.3138 45.5813Z" fill="url(#paint1_linear)"/>
<path d="M51.6839 29.7012C39.8339 29.7012 30.2439 39.3012 30.2439 51.1412C30.2439 55.2112 31.3739 59.0312 33.3539 62.2712V69.1712H40.0839C43.4339 71.3312 47.4139 72.5912 51.6739 72.5912C63.5239 72.5912 73.1139 62.9912 73.1139 51.1512C73.1139 39.3112 63.5339 29.7012 51.6839 29.7012Z" fill="#ED722E"/>
<path d="M51.6839 29.7012C39.8339 29.7012 30.2439 39.3012 30.2439 51.1412C30.2439 55.2112 31.3739 59.0312 33.3539 62.2712L33.0639 69.1712L66.4039 35.8312C62.8239 32.0412 57.5339 29.7012 51.6839 29.7012Z" fill="#FF7736"/>
<path d="M45.7039 58.1312V44.2912H48.6639C49.4939 44.2912 50.1639 44.9612 50.1639 45.7912V46.2612H52.2039V42.2612H36.2339V46.2612H38.2439V45.7912C38.2439 44.9612 38.9139 44.2912 39.7439 44.2912H42.7039V58.1312H41.2439V60.1412H47.2439V58.1312H45.7039Z" fill="#F2F1F0"/>
<path d="M61.4538 53.031C61.2938 52.871 61.1638 52.671 61.0938 52.451C61.0238 52.201 60.9739 51.951 60.9739 51.671C60.9739 51.451 60.9938 51.231 61.0438 51.031C61.1138 50.721 61.3039 50.471 61.5139 50.231C61.8739 49.841 62.0538 49.301 61.9438 48.711C61.8138 48.011 61.2538 47.441 60.5538 47.291C59.3938 47.041 58.3738 47.931 58.3738 49.041C58.3738 49.511 58.5438 49.921 58.8438 50.231C59.0538 50.461 59.2238 50.721 59.2938 51.011C59.3438 51.221 59.3638 51.431 59.3638 51.661C59.3638 51.931 59.3239 52.201 59.2439 52.441C59.1739 52.661 59.0438 52.861 58.8738 53.021C58.4838 53.411 58.2739 53.991 58.3839 54.601C58.5039 55.301 59.0738 55.871 59.7738 56.021C60.9338 56.271 61.9538 55.381 61.9538 54.271C61.9838 53.791 61.7738 53.351 61.4538 53.031Z" fill="white"/>
<path d="M66.7436 53.031C66.5836 52.871 66.4536 52.671 66.3836 52.451C66.3136 52.201 66.2636 51.951 66.2636 51.671C66.2636 51.451 66.2836 51.231 66.3336 51.031C66.4036 50.721 66.5936 50.471 66.8036 50.231C67.1636 49.841 67.3436 49.301 67.2336 48.711C67.1036 48.011 66.5436 47.441 65.8436 47.291C64.6836 47.041 63.6636 47.931 63.6636 49.041C63.6636 49.511 63.8336 49.921 64.1336 50.231C64.3436 50.461 64.5136 50.721 64.5836 51.011C64.6336 51.221 64.6536 51.431 64.6536 51.661C64.6536 51.931 64.6136 52.201 64.5336 52.441C64.4636 52.661 64.3336 52.861 64.1636 53.021C63.7736 53.411 63.5636 53.991 63.6736 54.601C63.7936 55.301 64.3636 55.871 65.0636 56.021C66.2236 56.271 67.2436 55.381 67.2436 54.271C67.2636 53.791 67.0636 53.351 66.7436 53.031Z" fill="white"/>
<path d="M56.3538 53.031C56.1938 52.871 56.0638 52.671 55.9938 52.451C55.9238 52.201 55.8738 51.951 55.8738 51.671C55.8738 51.451 55.8938 51.231 55.9438 51.031C56.0138 50.721 56.2038 50.471 56.4138 50.231C56.7738 49.841 56.9538 49.301 56.8438 48.711C56.7138 48.011 56.1538 47.441 55.4538 47.291C54.2938 47.041 53.2738 47.931 53.2738 49.041C53.2738 49.511 53.4438 49.921 53.7438 50.231C53.9538 50.461 54.1238 50.721 54.1938 51.011C54.2438 51.221 54.2638 51.431 54.2638 51.661C54.2638 51.931 54.2238 52.201 54.1438 52.441C54.0738 52.661 53.9438 52.861 53.7738 53.021C53.3838 53.411 53.1738 53.991 53.2838 54.601C53.4038 55.301 53.9738 55.871 54.6738 56.021C55.8338 56.271 56.8538 55.381 56.8538 54.271C56.8838 53.791 56.6738 53.351 56.3538 53.031Z" fill="white"/>
<path d="M60.1938 61.121C61.1838 61.121 61.9838 60.321 61.9838 59.331C61.9838 58.341 61.1838 57.541 60.1938 57.541C59.2038 57.541 58.4038 58.341 58.4038 59.331C58.4038 60.321 59.2038 61.121 60.1938 61.121Z" fill="white"/>
<path d="M60.1938 45.6611C61.1838 45.6611 61.9838 44.8611 61.9838 43.8711C61.9838 42.8811 61.1838 42.0811 60.1938 42.0811C59.2038 42.0811 58.4038 42.8811 58.4038 43.8711C58.4038 44.8511 59.2038 45.6611 60.1938 45.6611Z" fill="white"/>
<defs>
<linearGradient id="paint0_linear" x1="49.9138" y1="-13.6518" x2="53.8968" y2="132.116" gradientUnits="userSpaceOnUse">
<stop stop-color="#00ABDE"/>
<stop offset="1" stop-color="#007ED8"/>
</linearGradient>
<linearGradient id="paint1_linear" x1="54.4428" y1="-72.5833" x2="49.3378" y2="155.439" gradientUnits="userSpaceOnUse">
<stop stop-color="#007ED8"/>
<stop offset="0.7065" stop-color="#002D4C"/>
</linearGradient>
</defs>
</svg>
