<svg width="103" height="103" viewBox="0 0 103 103" fill="none" xmlns="http://www.w3.org/2000/svg">
<path d="M51.9228 98.4755C26.0728 98.4755 5.11279 77.5255 5.11279 51.6655C5.11279 25.8055 26.0728 4.85547 51.9228 4.85547C77.7728 4.85547 98.7328 25.8155 98.7328 51.6655C98.7328 77.5155 77.7728 98.4755 51.9228 98.4755Z" fill="url(#paint0_linear_166_42568)"/>
<path fill-rule="evenodd" clip-rule="evenodd" d="M97.8228 51.6654C97.8228 77.0154 77.2728 97.5654 51.9228 97.5654C26.5728 97.5654 6.02278 77.0154 6.02278 51.6654C6.02278 26.3154 26.5728 5.7654 51.9228 5.7654C77.2728 5.7654 97.8228 26.3154 97.8228 51.6654ZM51.9228 2.02539C79.3428 2.02539 101.563 24.2454 101.563 51.6654C101.563 79.0854 79.3328 101.305 51.9228 101.305C24.5028 101.305 2.28278 79.0754 2.28278 51.6654C2.28278 24.2454 24.5028 2.02539 51.9228 2.02539Z" fill="#F2F1F0"/>
<path fill-rule="evenodd" clip-rule="evenodd" d="M95.0128 51.6659C95.0128 75.4659 75.7228 94.7559 51.9228 94.7559C28.1228 94.7559 8.8328 75.4659 8.8328 51.6659C8.8328 27.8659 28.1228 8.57594 51.9228 8.57594C75.7228 8.57594 95.0128 27.8659 95.0128 51.6659ZM51.9228 4.83594C77.7828 4.83594 98.7528 25.8059 98.7528 51.6659C98.7528 77.5259 77.7828 98.496 51.9228 98.496C26.0628 98.496 5.0928 77.5259 5.0928 51.6659C5.0928 25.8059 26.0528 4.83594 51.9228 4.83594Z" fill="url(#paint1_linear_166_42568)"/>
<path opacity="0.15" d="M73.7267 22.2076L27.5697 21.8282C26.5686 21.8177 25.7572 22.6186 25.7572 23.6197L25.2619 83.8556C25.2513 84.8567 26.0522 85.6682 27.0534 85.6682L73.2103 86.0475C74.2115 86.0581 75.0229 85.2572 75.0229 84.2561L75.5182 24.0202C75.5076 23.0296 74.7067 22.2181 73.7267 22.2076Z" fill="#1F1D20"/>
<path d="M73.7372 20.2994L27.5803 19.92C26.5791 19.9095 25.7677 20.7104 25.7677 21.7115L25.2619 81.9369C25.2513 82.938 26.0522 83.7494 27.0534 83.7494L73.2103 84.1288C74.2115 84.1393 75.0229 83.3384 75.0229 82.3373L75.5182 22.1014C75.5182 21.1214 74.7278 20.3099 73.7372 20.2994Z" fill="#F2F2F2"/>
<path opacity="0.15" d="M70.5233 22.3652H30.2571V78.4386H70.5233V22.3652Z" fill="#1F1D20"/>
<path d="M70.5233 21.7227H30.2571V77.796H70.5233V21.7227Z" fill="white"/>
<path fill-rule="evenodd" clip-rule="evenodd" d="M52.798 13.3023C54.1047 14.0083 54.8634 15.4099 54.8529 16.8852V17.2435C54.8529 17.3805 54.8424 17.4964 54.8318 17.6334L57.6666 17.6545C58.5096 17.665 59.3 18.0866 59.7215 18.8242C60.9018 20.9213 59.4054 23.05 57.4347 23.0289L43.124 22.9236C42.2809 22.913 41.4906 22.4915 41.069 21.7538C39.8888 19.6568 41.3852 17.5281 43.3558 17.5491L45.9903 17.5702C45.9798 17.4437 45.9798 17.3173 45.9798 17.1803V17.0644C46.022 13.8608 49.4258 11.4897 52.798 13.3023Z" fill="#243A5E"/>
<path d="M50.3745 19.1725C51.3861 19.183 52.2081 18.3716 52.2186 17.3599C52.2292 16.3482 51.4178 15.5263 50.4061 15.5157C49.3944 15.5052 48.5725 16.3166 48.5619 17.3283C48.5619 18.3399 49.3628 19.1619 50.3745 19.1725Z" fill="#F2F2F2"/>
<path d="M55.3508 57.4245C54.7857 52.3563 50.4382 48.3711 45.1778 48.3711C39.9609 48.3711 35.6569 52.2697 35.0048 57.2945C34.9179 57.6411 34.9179 58.031 34.9179 58.3775C35.0483 59.807 36.0482 61.1932 37.9176 62.2761C41.9172 64.572 48.4384 64.572 52.3946 62.2761C54.2639 61.1932 55.2204 59.807 55.3508 58.3775C55.4378 58.0743 55.3943 57.7277 55.3508 57.4245Z" fill="url(#paint2_radial_166_42568)"/>
<path d="M45.1855 47.3324C48.5878 47.3324 51.346 44.5896 51.346 41.2062C51.346 37.8229 48.5878 35.0801 45.1855 35.0801C41.7831 35.0801 39.0249 37.8229 39.0249 41.2062C39.0249 44.5896 41.7831 47.3324 45.1855 47.3324Z" fill="url(#paint3_radial_166_42568)"/>
<path opacity="0.15" fill-rule="evenodd" clip-rule="evenodd" d="M49.371 54.1391L49.2723 54.0404C48.7491 53.5181 48.0402 53.2248 47.301 53.2248C46.5618 53.2248 45.8528 53.5181 45.3297 54.0404L45.2309 54.1391L45.1322 54.0404C44.873 53.7806 44.5651 53.5744 44.2261 53.4338C43.8872 53.2931 43.5238 53.2207 43.1568 53.2207C42.7898 53.2207 42.4264 53.2931 42.0874 53.4338C41.7485 53.5744 41.4406 53.7806 41.1814 54.0404L41.0908 54.1309C40.5686 54.654 40.2753 55.363 40.2753 56.1021C40.2753 56.8413 40.5686 57.5503 41.0908 58.0734L41.1896 58.1722L45.0992 62.0818C45.1162 62.0998 45.1366 62.1141 45.1592 62.1238C45.1819 62.1336 45.2063 62.1387 45.2309 62.1387C45.2556 62.1387 45.28 62.1336 45.3027 62.1238C45.3253 62.1141 45.3457 62.0998 45.3626 62.0818L49.371 58.0734C49.8927 57.5517 50.1858 56.8441 50.1858 56.1063C50.1858 55.3684 49.8927 54.6609 49.371 54.1391V54.1391Z" fill="#1F1D20"/>
<path d="M43.5203 52.8902C44.2591 52.8933 44.4451 52.8915 44.9659 53.4155L45.1239 53.5154L45.3206 53.451C45.844 52.9257 45.9957 53.1281 46.7372 53.1263C47.1032 53.1265 47.1373 52.4981 47.475 52.6394C47.8127 52.7806 47.2327 53.0576 47.4898 53.3182L48.1243 53.5395C48.6465 54.0626 48.1243 53.4791 48.1243 54.2183C48.1243 54.9575 48.9269 54.4183 48.4047 54.9414L45.66 58.5715L45.5283 58.7031L45.3966 58.5715L42.384 56.0481L42.277 55.9411C42.0165 55.6832 41.8464 56.1504 41.7052 55.812C41.5641 55.4737 41.4691 55.19 41.4691 54.8233C41.4691 54.4567 41.5633 54.3267 41.7045 53.9883C41.8456 53.65 42.0349 53.9745 42.2955 53.7166L42.443 53.3919C42.7019 53.1315 42.045 52.7658 42.384 52.6246C42.723 52.4834 42.879 52.8746 43.2462 52.8741L43.5203 52.8902ZM43.1884 51.1817C42.7602 51.1803 42.3359 51.264 41.9403 51.4279C41.5447 51.5918 41.114 51.8317 40.8122 52.1355L40.7217 52.2342C40.418 52.5327 40.2253 52.874 40.0613 53.267C39.8974 53.6599 39.8137 54.0817 39.8151 54.5075C39.8138 54.9358 39.8975 55.36 40.0614 55.7556C40.2253 56.1512 40.4728 56.4723 40.7766 56.7741L40.8424 56.8399L40.8769 56.878L44.8194 60.7794L44.9099 60.8782C44.9987 60.9627 45.1166 61.0099 45.2392 61.0099C45.2987 61.0101 45.3577 60.9986 45.4128 60.976C45.4679 60.9534 45.518 60.9201 45.5602 60.8782L45.6672 60.7794L45.7165 60.7218L49.7003 56.7381C50.0039 56.4396 50.2448 56.0834 50.4088 55.6904C50.5727 55.2975 50.6565 54.8757 50.655 54.4499C50.6564 54.0217 50.5726 53.5975 50.4087 53.2019C50.2448 52.8063 50.0461 52.512 49.7423 52.2102L49.6518 52.1196C49.0805 51.5459 48.2731 51.2516 47.4644 51.2135C46.6556 51.1755 45.8619 51.4448 45.2392 51.9623C44.658 51.4744 43.9472 51.183 43.1884 51.1817Z" fill="white"/>
<path fill-rule="evenodd" clip-rule="evenodd" d="M48.9281 56.5619L45.2307 60.2591L41.4579 56.4864C41.2191 56.2499 41.0295 55.9685 40.9001 55.6583C40.7707 55.3481 40.704 55.0153 40.704 54.6792C40.704 54.3431 40.7707 54.0103 40.9001 53.7002C41.0295 53.39 41.2191 53.1085 41.4579 52.8721L41.541 52.7891C41.7774 52.5502 42.0589 52.3606 42.3691 52.2312C42.6793 52.1018 43.012 52.0352 43.3481 52.0352C43.6842 52.0352 44.017 52.1018 44.3272 52.2312C44.6374 52.3606 44.9188 52.5502 45.1553 52.7891L48.9281 56.5619Z" fill="url(#paint4_linear_166_42568)"/>
<path fill-rule="evenodd" clip-rule="evenodd" d="M45.1024 60.138L41.5258 56.5614L45.2986 52.7886C45.7782 52.3099 46.4281 52.041 47.1058 52.041C47.7834 52.041 48.4333 52.3099 48.9129 52.7886L49.0034 52.8792C49.4822 53.3587 49.7511 54.0087 49.7511 54.6863C49.7511 55.364 49.4822 56.0139 49.0034 56.4935L45.3363 60.1531C45.3019 60.1787 45.2594 60.1912 45.2166 60.1885C45.1737 60.1857 45.1333 60.1678 45.1024 60.138V60.138Z" fill="url(#paint5_linear_166_42568)"/>
<g opacity="0.15">
<path opacity="0.15" fill-rule="evenodd" clip-rule="evenodd" d="M67.3502 35.0017H59.7498V42.6724H67.4205V37.0928L69.7228 34.7906L68.6471 33.7148L67.3502 35.0017Z" fill="#1F1D20"/>
<path opacity="0.15" fill-rule="evenodd" clip-rule="evenodd" d="M67.3502 47.1055H59.7498V54.7762H67.4205V49.1966L69.7228 46.8843L68.6471 45.8086L67.3502 47.1055Z" fill="#1F1D20"/>
<path opacity="0.15" fill-rule="evenodd" clip-rule="evenodd" d="M68.6471 57.8027L67.3502 59.0896H59.7498V66.7603H67.4205V61.1807L69.7228 58.8784L68.6471 57.8027Z" fill="#1F1D20"/>
</g>
<path d="M67.4205 34.1172H59.7498V41.7879H67.4205V34.1172Z" fill="#0078D4"/>
<path d="M69.723 33.896L68.6473 32.8203L63.2285 38.229L61.62 36.6004L60.5342 37.6761L63.2386 40.3805L69.723 33.896Z" fill="url(#paint6_linear_166_42568)"/>
<path d="M67.4205 46.2207H59.7498V53.8914H67.4205V46.2207Z" fill="#32B0E7"/>
<path d="M69.7223 45.9995L68.6466 44.9238L63.2278 50.3325L61.6092 48.7039L60.5234 49.7796L63.2278 52.484L69.7223 45.9995Z" fill="url(#paint7_linear_166_42568)"/>
<path d="M67.4205 58.2051H59.7498V65.8758H67.4205V58.2051Z" fill="#50E6FF"/>
<path d="M69.7223 57.9839L68.6466 56.9082L63.2278 62.3169L61.6092 60.6883L60.5234 61.764L63.2278 64.4683L69.7223 57.9839Z" fill="url(#paint8_linear_166_42568)"/>
<path d="M77.4324 56.6607L75.926 58.1133L79.649 61.9763L81.8979 59.7273L81.1662 56.3594L77.4324 56.6607Z" fill="url(#paint9_linear_166_42568)"/>
<path d="M64.0894 69.9594L62.5829 71.4013L66.349 75.2535L68.5118 73.0799L67.7909 69.7012L64.0894 69.9594Z" fill="url(#paint10_linear_166_42568)"/>
<path d="M81.6938 56.1221C80.65 55.0784 79.3588 54.6695 78.7885 55.1967H78.7777L77.1314 56.8646C77.1206 56.8754 77.1314 56.8969 77.1529 56.8861C77.777 56.5418 78.9606 56.9722 79.9398 57.9299C80.8222 58.8122 81.2526 59.8667 81.0697 60.5231C81.0697 60.5446 81.0804 60.5554 81.0912 60.5339L82.5976 59.0382L82.6084 59.0274C82.6084 59.0274 82.6084 59.0274 82.6084 59.0167L82.6191 59.0059C83.1464 58.4679 82.7375 57.1766 81.6938 56.1221Z" fill="#092E4C"/>
<path d="M78.9817 58.8341C77.9487 57.8011 76.679 57.3922 76.0872 57.898L63.7451 70.24C63.7236 70.2615 63.7451 70.3046 63.7774 70.2938C64.4338 70.0463 65.5206 70.466 66.4459 71.3914C67.3068 72.2522 67.7372 73.2744 67.5865 73.9416C67.5758 73.9738 67.6296 74.0061 67.6511 73.9738L79.9178 61.7071C80.4236 61.1368 80.0254 59.8671 78.9817 58.8341Z" fill="#092E4C"/>
<path d="M65.467 72.3477C64.4017 71.2824 63.0997 70.8843 62.5402 71.4223V71.4331L61.5287 75.2099C61.6901 75.0485 61.7869 75.3391 62.0882 75.6403C62.4003 75.9416 62.2819 75.8878 62.1205 76.0492L61.3996 76.6949L66.3816 75.2745C66.9304 74.715 66.5215 73.4022 65.467 72.3477Z" fill="#FFBB00"/>
<path d="M62.3784 75.4797C62.0771 75.1784 61.7005 75.0493 61.5284 75.2107L61.1948 76.4911C61.1625 76.6203 61.2809 76.7279 61.3992 76.6956L62.6474 76.3297C62.8088 76.1683 62.6905 75.781 62.3784 75.4797Z" fill="#092E4C"/>
<path opacity="0.15" d="M73.7267 22.2076L27.5697 21.8282C26.5686 21.8177 25.7572 22.6186 25.7572 23.6197L25.2619 83.8556C25.2513 84.8567 26.0522 85.6682 27.0534 85.6682L73.2103 86.0475C74.2115 86.0581 75.0229 85.2572 75.0229 84.2561L75.5182 24.0202C75.5076 23.0296 74.7067 22.2181 73.7267 22.2076Z" fill="#1F1D20"/>
<path d="M73.7372 20.2994L27.5803 19.92C26.5791 19.9095 25.7677 20.7104 25.7677 21.7115L25.2619 81.9369C25.2513 82.938 26.0522 83.7494 27.0534 83.7494L73.2103 84.1288C74.2115 84.1393 75.0229 83.3384 75.0229 82.3373L75.5182 22.1014C75.5182 21.1214 74.7278 20.3099 73.7372 20.2994Z" fill="#F2F2F2"/>
<path opacity="0.15" d="M70.5233 22.3652H30.2571V78.4386H70.5233V22.3652Z" fill="#1F1D20"/>
<path d="M70.5233 21.7227H30.2571V77.796H70.5233V21.7227Z" fill="white"/>
<path fill-rule="evenodd" clip-rule="evenodd" d="M52.798 13.3023C54.1047 14.0083 54.8634 15.4099 54.8529 16.8852V17.2435C54.8529 17.3805 54.8424 17.4964 54.8318 17.6334L57.6666 17.6545C58.5096 17.665 59.3 18.0866 59.7215 18.8242C60.9018 20.9213 59.4054 23.05 57.4347 23.0289L43.124 22.9236C42.2809 22.913 41.4906 22.4915 41.069 21.7538C39.8888 19.6568 41.3852 17.5281 43.3558 17.5491L45.9903 17.5702C45.9798 17.4437 45.9798 17.3173 45.9798 17.1803V17.0644C46.022 13.8608 49.4258 11.4897 52.798 13.3023Z" fill="#243A5E"/>
<path d="M50.3745 19.1725C51.3861 19.183 52.2081 18.3716 52.2186 17.3599C52.2292 16.3482 51.4178 15.5263 50.4061 15.5157C49.3944 15.5052 48.5725 16.3166 48.5619 17.3283C48.5619 18.3399 49.3628 19.1619 50.3745 19.1725Z" fill="#F2F2F2"/>
<path d="M55.3508 57.4245C54.7857 52.3563 50.4382 48.3711 45.1778 48.3711C39.9609 48.3711 35.6569 52.2697 35.0048 57.2945C34.9179 57.6411 34.9179 58.031 34.9179 58.3775C35.0483 59.807 36.0482 61.1932 37.9176 62.2761C41.9172 64.572 48.4384 64.572 52.3946 62.2761C54.2639 61.1932 55.2204 59.807 55.3508 58.3775C55.4378 58.0743 55.3943 57.7277 55.3508 57.4245Z" fill="url(#paint11_radial_166_42568)"/>
<path d="M45.1855 47.3324C48.5878 47.3324 51.346 44.5896 51.346 41.2062C51.346 37.8229 48.5878 35.0801 45.1855 35.0801C41.7831 35.0801 39.0249 37.8229 39.0249 41.2062C39.0249 44.5896 41.7831 47.3324 45.1855 47.3324Z" fill="url(#paint12_radial_166_42568)"/>
<path opacity="0.15" fill-rule="evenodd" clip-rule="evenodd" d="M49.371 54.1391L49.2723 54.0404C48.7491 53.5181 48.0402 53.2248 47.301 53.2248C46.5618 53.2248 45.8528 53.5181 45.3297 54.0404L45.2309 54.1391L45.1322 54.0404C44.873 53.7806 44.5651 53.5744 44.2261 53.4338C43.8872 53.2931 43.5238 53.2207 43.1568 53.2207C42.7898 53.2207 42.4264 53.2931 42.0874 53.4338C41.7485 53.5744 41.4406 53.7806 41.1814 54.0404L41.0908 54.1309C40.5686 54.654 40.2753 55.363 40.2753 56.1021C40.2753 56.8413 40.5686 57.5503 41.0908 58.0734L41.1896 58.1722L45.0992 62.0818C45.1162 62.0998 45.1366 62.1141 45.1592 62.1238C45.1819 62.1336 45.2063 62.1387 45.2309 62.1387C45.2556 62.1387 45.28 62.1336 45.3027 62.1238C45.3253 62.1141 45.3457 62.0998 45.3626 62.0818L49.371 58.0734C49.8927 57.5517 50.1858 56.8441 50.1858 56.1063C50.1858 55.3684 49.8927 54.6609 49.371 54.1391V54.1391Z" fill="#1F1D20"/>
<path d="M43.5203 52.8902C44.2591 52.8933 44.4451 52.8915 44.9659 53.4155L45.1239 53.5154L45.3206 53.451C45.844 52.9257 45.9957 53.1281 46.7372 53.1263C47.1032 53.1265 47.1373 52.4981 47.475 52.6394C47.8127 52.7806 47.2327 53.0576 47.4898 53.3182L48.1243 53.5395C48.6465 54.0626 48.1243 53.4791 48.1243 54.2183C48.1243 54.9575 48.9269 54.4183 48.4047 54.9414L45.66 58.5715L45.5283 58.7031L45.3966 58.5715L42.384 56.0481L42.277 55.9411C42.0165 55.6832 41.8464 56.1504 41.7052 55.812C41.5641 55.4737 41.4691 55.19 41.4691 54.8233C41.4691 54.4567 41.5633 54.3267 41.7045 53.9883C41.8456 53.65 42.0349 53.9745 42.2955 53.7166L42.443 53.3919C42.7019 53.1315 42.045 52.7658 42.384 52.6246C42.723 52.4834 42.879 52.8746 43.2462 52.8741L43.5203 52.8902ZM43.1884 51.1817C42.7602 51.1803 42.3359 51.264 41.9403 51.4279C41.5447 51.5918 41.114 51.8317 40.8122 52.1355L40.7217 52.2342C40.418 52.5327 40.2253 52.874 40.0613 53.267C39.8974 53.6599 39.8137 54.0817 39.8151 54.5075C39.8138 54.9358 39.8975 55.36 40.0614 55.7556C40.2253 56.1512 40.4728 56.4723 40.7766 56.7741L40.8424 56.8399L40.8769 56.878L44.8194 60.7794L44.9099 60.8782C44.9987 60.9627 45.1166 61.0099 45.2392 61.0099C45.2987 61.0101 45.3577 60.9986 45.4128 60.976C45.4679 60.9534 45.518 60.9201 45.5602 60.8782L45.6672 60.7794L45.7165 60.7218L49.7003 56.7381C50.0039 56.4396 50.2448 56.0834 50.4088 55.6904C50.5727 55.2975 50.6565 54.8757 50.655 54.4499C50.6564 54.0217 50.5726 53.5975 50.4087 53.2019C50.2448 52.8063 50.0461 52.512 49.7423 52.2102L49.6518 52.1196C49.0805 51.5459 48.2731 51.2516 47.4644 51.2135C46.6556 51.1755 45.8619 51.4448 45.2392 51.9623C44.658 51.4744 43.9472 51.183 43.1884 51.1817Z" fill="white"/>
<path fill-rule="evenodd" clip-rule="evenodd" d="M48.9281 56.5619L45.2307 60.2591L41.4579 56.4864C41.2191 56.2499 41.0295 55.9685 40.9001 55.6583C40.7707 55.3481 40.704 55.0153 40.704 54.6792C40.704 54.3431 40.7707 54.0103 40.9001 53.7002C41.0295 53.39 41.2191 53.1085 41.4579 52.8721L41.541 52.7891C41.7774 52.5502 42.0589 52.3606 42.3691 52.2312C42.6793 52.1018 43.012 52.0352 43.3481 52.0352C43.6842 52.0352 44.017 52.1018 44.3272 52.2312C44.6374 52.3606 44.9188 52.5502 45.1553 52.7891L48.9281 56.5619Z" fill="url(#paint13_linear_166_42568)"/>
<path fill-rule="evenodd" clip-rule="evenodd" d="M45.1024 60.138L41.5258 56.5614L45.2986 52.7886C45.7782 52.3099 46.4281 52.041 47.1058 52.041C47.7834 52.041 48.4333 52.3099 48.9129 52.7886L49.0034 52.8792C49.4822 53.3587 49.7511 54.0087 49.7511 54.6863C49.7511 55.364 49.4822 56.0139 49.0034 56.4935L45.3363 60.1531C45.3019 60.1787 45.2594 60.1912 45.2166 60.1885C45.1737 60.1857 45.1333 60.1678 45.1024 60.138V60.138Z" fill="url(#paint14_linear_166_42568)"/>
<g opacity="0.15">
<path opacity="0.15" fill-rule="evenodd" clip-rule="evenodd" d="M67.3502 35.0017H59.7498V42.6724H67.4205V37.0928L69.7228 34.7906L68.6471 33.7148L67.3502 35.0017Z" fill="#1F1D20"/>
<path opacity="0.15" fill-rule="evenodd" clip-rule="evenodd" d="M67.3502 47.1055H59.7498V54.7762H67.4205V49.1966L69.7228 46.8843L68.6471 45.8086L67.3502 47.1055Z" fill="#1F1D20"/>
<path opacity="0.15" fill-rule="evenodd" clip-rule="evenodd" d="M68.6471 57.8027L67.3502 59.0896H59.7498V66.7603H67.4205V61.1807L69.7228 58.8784L68.6471 57.8027Z" fill="#1F1D20"/>
</g>
<path d="M67.4205 34.1172H59.7498V41.7879H67.4205V34.1172Z" fill="#0078D4"/>
<path d="M69.723 33.896L68.6473 32.8203L63.2285 38.229L61.62 36.6004L60.5342 37.6761L63.2386 40.3805L69.723 33.896Z" fill="url(#paint15_linear_166_42568)"/>
<path d="M67.4205 46.2207H59.7498V53.8914H67.4205V46.2207Z" fill="#32B0E7"/>
<path d="M69.7223 45.9995L68.6466 44.9238L63.2278 50.3325L61.6092 48.7039L60.5234 49.7796L63.2278 52.484L69.7223 45.9995Z" fill="url(#paint16_linear_166_42568)"/>
<path d="M67.4205 58.2051H59.7498V65.8758H67.4205V58.2051Z" fill="#50E6FF"/>
<path d="M69.7223 57.9839L68.6466 56.9082L63.2278 62.3169L61.6092 60.6883L60.5234 61.764L63.2278 64.4683L69.7223 57.9839Z" fill="url(#paint17_linear_166_42568)"/>
<path d="M77.4324 56.6607L75.926 58.1133L79.649 61.9763L81.8979 59.7273L81.1662 56.3594L77.4324 56.6607Z" fill="url(#paint18_linear_166_42568)"/>
<path d="M64.0894 69.9594L62.5829 71.4013L66.349 75.2535L68.5118 73.0799L67.7909 69.7012L64.0894 69.9594Z" fill="url(#paint19_linear_166_42568)"/>
<path d="M81.6938 56.1221C80.65 55.0784 79.3588 54.6695 78.7885 55.1967H78.7777L77.1314 56.8646C77.1206 56.8754 77.1314 56.8969 77.1529 56.8861C77.777 56.5418 78.9606 56.9722 79.9398 57.9299C80.8222 58.8122 81.2526 59.8667 81.0697 60.5231C81.0697 60.5446 81.0804 60.5554 81.0912 60.5339L82.5976 59.0382L82.6084 59.0274C82.6084 59.0274 82.6084 59.0274 82.6084 59.0167L82.6191 59.0059C83.1464 58.4679 82.7375 57.1766 81.6938 56.1221Z" fill="#092E4C"/>
<path d="M78.9817 58.8341C77.9487 57.8011 76.679 57.3922 76.0872 57.898L63.7451 70.24C63.7236 70.2615 63.7451 70.3046 63.7774 70.2938C64.4338 70.0463 65.5206 70.466 66.4459 71.3914C67.3068 72.2522 67.7372 73.2744 67.5865 73.9416C67.5758 73.9738 67.6296 74.0061 67.6511 73.9738L79.9178 61.7071C80.4236 61.1368 80.0254 59.8671 78.9817 58.8341Z" fill="#092E4C"/>
<path d="M65.467 72.3477C64.4017 71.2824 63.0997 70.8843 62.5402 71.4223V71.4331L61.5287 75.2099C61.6901 75.0485 61.7869 75.3391 62.0882 75.6403C62.4003 75.9416 62.2819 75.8878 62.1205 76.0492L61.3996 76.6949L66.3816 75.2745C66.9304 74.715 66.5215 73.4022 65.467 72.3477Z" fill="#FFBB00"/>
<path d="M62.3784 75.4797C62.0771 75.1784 61.7005 75.0493 61.5284 75.2107L61.1948 76.4911C61.1625 76.6203 61.2809 76.7279 61.3992 76.6956L62.6474 76.3297C62.8088 76.1683 62.6905 75.781 62.3784 75.4797Z" fill="#092E4C"/>
<defs>
<linearGradient id="paint0_linear_166_42568" x1="50.1489" y1="-13.124" x2="54.1309" y2="132.646" gradientUnits="userSpaceOnUse">
<stop stop-color="#00ABDE"/>
<stop offset="1" stop-color="#007ED8"/>
</linearGradient>
<linearGradient id="paint1_linear_166_42568" x1="3.3532" y1="-19.9567" x2="98.8807" y2="120.925" gradientUnits="userSpaceOnUse">
<stop stop-color="#007ED8"/>
<stop offset="0.7065" stop-color="#002D4C"/>
</linearGradient>
<radialGradient id="paint2_radial_166_42568" cx="0" cy="0" r="1" gradientUnits="userSpaceOnUse" gradientTransform="translate(41.4156 42.603) scale(29.1003 28.9955)">
<stop stop-color="#4DC2EB"/>
<stop offset="0.585" stop-color="#0078D4"/>
</radialGradient>
<radialGradient id="paint3_radial_166_42568" cx="0" cy="0" r="1" gradientUnits="userSpaceOnUse" gradientTransform="translate(42.14 38.0986) scale(13.6486 13.5724)">
<stop stop-color="#4DC2EB"/>
<stop offset="0.585" stop-color="#0078D4"/>
</radialGradient>
<linearGradient id="paint4_linear_166_42568" x1="38.8098" y1="51.648" x2="60.6237" y2="71.0541" gradientUnits="userSpaceOnUse">
<stop stop-color="#FFB900"/>
<stop offset="0.17" stop-color="#EF8400"/>
<stop offset="0.31" stop-color="#E25C01"/>
<stop offset="0.43" stop-color="#DB4401"/>
<stop offset="0.5" stop-color="#D83B01"/>
</linearGradient>
<linearGradient id="paint5_linear_166_42568" x1="40.5062" y1="53.7379" x2="56.3467" y2="60.1421" gradientUnits="userSpaceOnUse">
<stop stop-color="#FFB900"/>
<stop offset="0.17" stop-color="#EF8400"/>
<stop offset="0.31" stop-color="#E25C01"/>
<stop offset="0.43" stop-color="#DB4401"/>
<stop offset="0.5" stop-color="#D83B01"/>
</linearGradient>
<linearGradient id="paint6_linear_166_42568" x1="50.48" y1="61.1323" x2="68.1433" y2="30.5719" gradientUnits="userSpaceOnUse">
<stop stop-color="#007ED8"/>
<stop offset="0.7065" stop-color="#002D4C"/>
</linearGradient>
<linearGradient id="paint7_linear_166_42568" x1="55.7223" y1="64.162" x2="73.3857" y2="33.6015" gradientUnits="userSpaceOnUse">
<stop stop-color="#007ED8"/>
<stop offset="0.7065" stop-color="#002D4C"/>
</linearGradient>
<linearGradient id="paint8_linear_166_42568" x1="75.4617" y1="31.5703" x2="60.9525" y2="71.3129" gradientUnits="userSpaceOnUse">
<stop stop-color="#007ED8"/>
<stop offset="0.7065" stop-color="#002D4C"/>
</linearGradient>
<linearGradient id="paint9_linear_166_42568" x1="75.9278" y1="59.1692" x2="81.8947" y2="59.1692" gradientUnits="userSpaceOnUse">
<stop stop-color="#388CF4"/>
<stop offset="1" stop-color="#2C7CEF"/>
</linearGradient>
<linearGradient id="paint10_linear_166_42568" x1="62.583" y1="72.4745" x2="68.5117" y2="72.4745" gradientUnits="userSpaceOnUse">
<stop stop-color="#388CF4"/>
<stop offset="1" stop-color="#2C7CEF"/>
</linearGradient>
<radialGradient id="paint11_radial_166_42568" cx="0" cy="0" r="1" gradientUnits="userSpaceOnUse" gradientTransform="translate(41.4156 42.603) scale(29.1003 28.9955)">
<stop stop-color="#4DC2EB"/>
<stop offset="0.585" stop-color="#0078D4"/>
</radialGradient>
<radialGradient id="paint12_radial_166_42568" cx="0" cy="0" r="1" gradientUnits="userSpaceOnUse" gradientTransform="translate(42.14 38.0986) scale(13.6486 13.5724)">
<stop stop-color="#4DC2EB"/>
<stop offset="0.585" stop-color="#0078D4"/>
</radialGradient>
<linearGradient id="paint13_linear_166_42568" x1="38.8098" y1="51.648" x2="60.6237" y2="71.0541" gradientUnits="userSpaceOnUse">
<stop stop-color="#FFB900"/>
<stop offset="0.17" stop-color="#EF8400"/>
<stop offset="0.31" stop-color="#E25C01"/>
<stop offset="0.43" stop-color="#DB4401"/>
<stop offset="0.5" stop-color="#D83B01"/>
</linearGradient>
<linearGradient id="paint14_linear_166_42568" x1="40.5062" y1="53.7379" x2="56.3467" y2="60.1421" gradientUnits="userSpaceOnUse">
<stop stop-color="#FFB900"/>
<stop offset="0.17" stop-color="#EF8400"/>
<stop offset="0.31" stop-color="#E25C01"/>
<stop offset="0.43" stop-color="#DB4401"/>
<stop offset="0.5" stop-color="#D83B01"/>
</linearGradient>
<linearGradient id="paint15_linear_166_42568" x1="50.48" y1="61.1323" x2="68.1433" y2="30.5719" gradientUnits="userSpaceOnUse">
<stop stop-color="#007ED8"/>
<stop offset="0.7065" stop-color="#002D4C"/>
</linearGradient>
<linearGradient id="paint16_linear_166_42568" x1="55.7223" y1="64.162" x2="73.3857" y2="33.6015" gradientUnits="userSpaceOnUse">
<stop stop-color="#007ED8"/>
<stop offset="0.7065" stop-color="#002D4C"/>
</linearGradient>
<linearGradient id="paint17_linear_166_42568" x1="75.4617" y1="31.5703" x2="60.9525" y2="71.3129" gradientUnits="userSpaceOnUse">
<stop stop-color="#007ED8"/>
<stop offset="0.7065" stop-color="#002D4C"/>
</linearGradient>
<linearGradient id="paint18_linear_166_42568" x1="75.9278" y1="59.1692" x2="81.8947" y2="59.1692" gradientUnits="userSpaceOnUse">
<stop stop-color="#388CF4"/>
<stop offset="1" stop-color="#2C7CEF"/>
</linearGradient>
<linearGradient id="paint19_linear_166_42568" x1="62.583" y1="72.4745" x2="68.5117" y2="72.4745" gradientUnits="userSpaceOnUse">
<stop stop-color="#388CF4"/>
<stop offset="1" stop-color="#2C7CEF"/>
</linearGradient>
</defs>
</svg>
