<svg width="103" height="103" viewBox="0 0 103 103" fill="none" xmlns="http://www.w3.org/2000/svg">
<path d="M51.4941 97.8559C25.6441 97.8559 4.68408 76.9059 4.68408 51.0459C4.68408 25.1859 25.6441 4.2359 51.4941 4.2359C77.3441 4.2359 98.3041 25.1959 98.3041 51.0459C98.3041 76.8959 77.3441 97.8559 51.4941 97.8559Z" fill="url(#paint0_linear)"/>
<path fill-rule="evenodd" clip-rule="evenodd" d="M97.394 51.0459C97.394 76.3959 76.844 96.9459 51.494 96.9459C26.144 96.9459 5.594 76.3959 5.594 51.0459C5.594 25.6959 26.144 5.14588 51.494 5.14588C76.844 5.14588 97.394 25.6959 97.394 51.0459ZM51.494 1.40588C78.914 1.40588 101.134 23.6259 101.134 51.0459C101.134 78.4659 78.904 100.686 51.494 100.686C24.074 100.686 1.854 78.4559 1.854 51.0459C1.854 23.6259 24.074 1.40588 51.494 1.40588Z" fill="#F2F1F0"/>
<path d="M79.3245 31.2258H22.9245C21.7645 31.2258 20.8345 32.1158 20.8345 33.2058V72.0658C20.8345 73.1558 21.7745 74.0458 22.9245 74.0458H79.3345C80.4945 74.0458 81.4245 73.1558 81.4245 72.0658V33.2258C81.4245 32.1258 80.4745 31.2258 79.3245 31.2258Z" fill="url(#paint1_linear)"/>
<path d="M81.5443 27.6858H20.7043C19.4643 27.6858 18.4443 28.7058 18.4443 29.9458V74.7258C18.4443 75.9658 19.4643 76.9858 20.7043 76.9858H81.5543C82.7943 76.9858 83.8143 75.9658 83.8143 74.7258V29.9458C83.7943 28.7058 82.7943 27.6858 81.5443 27.6858ZM79.7943 71.0258C79.7943 72.0558 78.9043 72.9058 77.8143 72.9058H24.4443C23.3543 72.9058 22.4643 72.0558 22.4643 71.0258V34.2758C22.4643 33.2458 23.3543 32.3958 24.4443 32.3958H77.8043C78.8943 32.3958 79.7843 33.2358 79.7843 34.2758V71.0258H79.7943Z" fill="url(#paint2_linear)"/>
<path opacity="0.15" d="M81.5443 76.9858H20.7043C19.4643 76.9858 18.4443 75.9658 18.4443 74.7258V75.4658C18.4443 76.6958 19.4643 77.7158 20.7043 77.7258H81.5543C82.7943 77.7258 83.8143 76.7058 83.8143 75.4658V74.7258C83.7943 75.9658 82.7943 76.9858 81.5443 76.9858Z" fill="#1F1D20"/>
<path opacity="0.15" d="M77.8044 72.9058H24.4444C23.3544 72.9058 22.4644 72.0558 22.4644 71.0258V71.6558C22.4644 72.6858 23.3544 73.5358 24.4444 73.5358H77.8044C78.8944 73.5358 79.7844 72.6858 79.7844 71.6558V71.0258C79.7944 72.0658 78.8944 72.9058 77.8044 72.9058Z" fill="#1F1D20"/>
<path d="M75.4941 49.396H48.4641C47.5641 43.336 42.3341 38.656 36.0341 38.656C34.8141 38.656 33.6941 38.886 32.5841 39.206C32.5541 39.206 32.5541 39.206 32.5341 39.206L32.4741 39.116V43.106C33.1541 42.796 33.8741 42.546 34.6041 42.416C35.0841 42.336 35.5541 42.296 36.0341 42.296C40.9441 42.296 44.9641 46.296 44.9641 51.226C44.9641 56.136 40.9641 60.156 36.0341 60.156C34.7641 60.156 33.5641 59.886 32.4741 59.406V63.296C33.6041 63.636 34.7941 63.816 36.0341 63.816C42.3441 63.816 47.5841 59.116 48.4641 53.046H75.4941V49.396Z" fill="#185A97"/>
<path d="M31.2141 53.046C31.9541 55.016 33.8241 56.406 36.0341 56.406C38.8841 56.406 41.2041 54.086 41.2041 51.236C41.2041 48.386 38.8841 46.066 36.0341 46.066C33.8441 46.066 31.9541 47.456 31.2141 49.396H22.4741V53.046H31.2141Z" fill="#185A97"/>
<path opacity="0.15" d="M85.134 65.216H58.014C57.254 65.216 56.644 64.596 56.644 63.846V39.746C56.644 38.986 57.254 38.376 58.014 38.376H85.134C85.894 38.376 86.504 38.986 86.504 39.746V63.836C86.504 64.596 85.884 65.216 85.134 65.216Z" fill="#1F1D20"/>
<path d="M85.134 64.206H58.014C57.254 64.206 56.644 63.596 56.644 62.836V38.746C56.644 37.986 57.254 37.376 58.014 37.376H85.134C85.894 37.376 86.504 37.986 86.504 38.746V62.836C86.504 63.596 85.884 64.206 85.134 64.206Z" fill="white"/>
<path d="M80.5841 45.296C80.5841 44.726 80.1241 44.256 79.5441 44.256H63.5141C62.9441 44.256 62.4741 44.716 62.4741 45.296C62.4741 45.866 62.9341 46.336 63.5141 46.336H79.5541C80.1241 46.326 80.5841 45.876 80.5841 45.296Z" fill="#50E6FF"/>
<path d="M66.3442 45.296C66.3442 46.436 67.2742 47.356 68.4042 47.356C69.5442 47.356 70.4642 46.426 70.4642 45.296C70.4642 44.156 69.5342 43.236 68.4042 43.236C67.2642 43.236 66.3442 44.156 66.3442 45.296Z" fill="#0D3868"/>
<path d="M80.5841 50.536C80.5841 49.966 80.1241 49.496 79.5441 49.496H63.5141C62.9441 49.496 62.4741 49.956 62.4741 50.536C62.4741 51.106 62.9341 51.576 63.5141 51.576H79.5541C80.1241 51.566 80.5841 51.106 80.5841 50.536Z" fill="#32B0E7"/>
<path d="M72.5439 50.5259C72.5439 51.6659 73.4739 52.5859 74.6039 52.5859C75.7339 52.5859 76.6639 51.6559 76.6639 50.5259C76.6639 49.3859 75.7339 48.4659 74.6039 48.4659C73.4739 48.4659 72.5439 49.3959 72.5439 50.5259Z" fill="#0D3868"/>
<path d="M80.5841 56.066C80.5841 55.496 80.1241 55.026 79.5441 55.026H63.5141C62.9441 55.026 62.4741 55.486 62.4741 56.066C62.4741 56.636 62.9341 57.106 63.5141 57.106H79.5541C80.1241 57.106 80.5841 56.646 80.5841 56.066Z" fill="#185A97"/>
<path d="M66.4141 56.066C66.4141 57.206 67.3441 58.126 68.4741 58.126C69.6141 58.126 70.5341 57.196 70.5341 56.066C70.5341 54.926 69.6041 54.006 68.4741 54.006C67.3341 54.006 66.4141 54.936 66.4141 56.066Z" fill="#0D3868"/>
<path fill-rule="evenodd" clip-rule="evenodd" d="M94.5841 51.0458C94.5841 74.8458 75.2941 94.1358 51.4941 94.1358C27.6941 94.1358 8.40406 74.8458 8.40406 51.0458C8.40406 27.2458 27.6941 7.95582 51.4941 7.95582C75.2941 7.95582 94.5841 27.2458 94.5841 51.0458ZM51.4941 4.21582C77.3541 4.21582 98.3241 25.1858 98.3241 51.0458C98.3241 76.9058 77.3541 97.8758 51.4941 97.8758C25.6341 97.8758 4.66406 76.9058 4.66406 51.0458C4.66406 25.1858 25.6241 4.21582 51.4941 4.21582Z" fill="url(#paint3_linear)"/>
<path opacity="0.15" d="M82.9643 73.6259C86.7143 73.6259 89.7543 70.5859 89.7543 66.8359C89.7543 63.0859 86.7143 60.0459 82.9643 60.0459C79.2143 60.0459 76.1743 63.0859 76.1743 66.8359C76.1743 70.5859 79.2243 73.6259 82.9643 73.6259Z" fill="#1F1D20"/>
<path d="M82.9643 72.7758C86.7143 72.7758 89.7543 69.7358 89.7543 65.9858C89.7543 62.2358 86.7143 59.1958 82.9643 59.1958C79.2143 59.1958 76.1743 62.2358 76.1743 65.9858C76.1743 69.7358 79.2243 72.7758 82.9643 72.7758Z" fill="#002D4C"/>
<path d="M86.6544 62.5358L81.0544 68.1558L79.3744 66.4758L78.2544 67.6058L81.0544 70.4058L87.7744 63.6658L86.6544 62.5358Z" fill="#FAF9F8"/>
<defs>
<linearGradient id="paint0_linear" x1="49.7246" y1="-13.7439" x2="53.7066" y2="132.026" gradientUnits="userSpaceOnUse">
<stop stop-color="#00ABDE"/>
<stop offset="1" stop-color="#007ED8"/>
</linearGradient>
<linearGradient id="paint1_linear" x1="19.8172" y1="13.4093" x2="194.45" y2="232.253" gradientUnits="userSpaceOnUse">
<stop offset="0.0435" stop-color="white"/>
<stop offset="0.4857" stop-color="#4DC1EA"/>
<stop offset="0.8452" stop-color="#0078D4"/>
</linearGradient>
<linearGradient id="paint2_linear" x1="43.6117" y1="-2.86241" x2="58.7463" y2="108.334" gradientUnits="userSpaceOnUse">
<stop offset="0.0435" stop-color="white"/>
<stop offset="0.4857" stop-color="#4DC1EA"/>
<stop offset="0.8452" stop-color="#0078D4"/>
</linearGradient>
<linearGradient id="paint3_linear" x1="2.92726" y1="-20.579" x2="98.4549" y2="120.302" gradientUnits="userSpaceOnUse">
<stop stop-color="#007ED8"/>
<stop offset="0.7065" stop-color="#002D4C"/>
</linearGradient>
</defs>
</svg>
