<svg width="103" height="103" viewBox="0 0 103 103" fill="none" xmlns="http://www.w3.org/2000/svg">
<path d="M51.6166 98.1991C25.7666 98.1991 4.80664 77.2491 4.80664 51.3891C4.80664 25.5291 25.7666 4.5791 51.6166 4.5791C77.4666 4.5791 98.4266 25.5391 98.4266 51.3891C98.4266 77.2391 77.4666 98.1991 51.6166 98.1991Z" fill="url(#paint0_linear_58_99)"/>
<path fill-rule="evenodd" clip-rule="evenodd" d="M97.5166 51.389C97.5166 76.739 76.9666 97.289 51.6166 97.289C26.2666 97.289 5.71656 76.739 5.71656 51.389C5.71656 26.039 26.2666 5.48903 51.6166 5.48903C76.9666 5.48903 97.5166 26.039 97.5166 51.389ZM51.6166 1.74902C79.0366 1.74902 101.257 23.969 101.257 51.389C101.257 78.809 79.0266 101.029 51.6166 101.029C24.1966 101.029 1.97656 78.799 1.97656 51.389C1.97656 23.969 24.1966 1.74902 51.6166 1.74902Z" fill="#F2F1F0"/>
<path fill-rule="evenodd" clip-rule="evenodd" d="M94.7066 51.3886C94.7066 75.1886 75.4166 94.4786 51.6166 94.4786C27.8166 94.4786 8.52662 75.1886 8.52662 51.3886C8.52662 27.5886 27.8166 8.2986 51.6166 8.2986C75.4166 8.2986 94.7066 27.5886 94.7066 51.3886ZM51.6166 4.55859C77.4766 4.55859 98.4466 25.5286 98.4466 51.3886C98.4466 77.2486 77.4766 98.2186 51.6166 98.2186C25.7566 98.2186 4.78662 77.2486 4.78662 51.3886C4.78662 25.5286 25.7466 4.55859 51.6166 4.55859Z" fill="url(#paint1_linear_58_99)"/>
<path d="M89.5464 45.9739C89.5464 45.148 88.8735 44.475 88.0476 44.475C87.5072 44.475 84.1424 44.1793 82.3377 42.7722C82.3377 42.7722 82.3479 42.7519 82.3377 42.7722C81.6546 40.2844 80.6553 37.9596 79.4216 35.7573C79.1055 33.667 81.2671 32.1478 82.2561 30.5164C82.4295 30.2309 82.5314 30.0678 82.5926 29.9556C82.7761 29.4254 82.6742 28.8136 82.2561 28.3956C82.2561 28.3956 80.5942 26.0199 78.8914 24.3273C77.1886 22.6347 74.609 20.7485 74.609 20.7485C74.0278 20.1673 73.0694 20.1673 72.4882 20.7485C72.1007 21.1257 69.5415 23.2363 67.2371 23.5728C67.2065 23.5728 67.2065 23.5728 67.2065 23.5728C65.0653 22.3595 62.659 21.3602 60.2425 20.6771H60.2119C58.5092 19.4229 58.9578 16.8229 58.5092 14.9672C58.5092 14.1413 57.8362 13.4684 57.0103 13.4684C57.0103 13.4684 54.1554 12.9688 51.7491 12.9688C49.3428 12.9688 46.1922 13.4684 46.1922 13.4684C45.3663 13.4684 44.6933 14.1413 44.6933 14.9672C44.6933 15.5076 44.3976 18.8724 42.9906 20.6771C40.6047 21.35 38.0964 22.4104 35.9756 23.5932C33.8854 23.9093 32.3661 21.7477 30.7347 20.7586C30.4492 20.5853 30.2861 20.4833 30.1739 20.4222C29.6437 20.2386 29.032 20.3406 28.6139 20.7586C28.6139 20.7586 26.2382 22.4206 24.5456 24.1234C22.8531 25.8262 20.9668 28.4058 20.9668 28.4058C20.3856 28.987 20.3856 29.9454 20.9668 30.5266C21.344 30.9039 23.5158 33.5039 23.8013 35.7675V35.7878C22.6186 37.9087 21.5785 40.4067 20.9056 42.7926C20.9056 42.7926 20.9362 42.7519 20.9056 42.7926C19.4475 44.5668 17.0514 44.0468 15.1957 44.4954C14.3698 44.4954 13.6969 45.1684 13.6969 45.9942C13.6969 45.9942 13.1973 48.8492 13.1973 51.2555C13.1973 53.6618 13.6969 56.8124 13.6969 56.8124C13.6969 57.6383 14.3698 58.3113 15.1957 58.3113C15.7361 58.3113 19.1009 58.6069 20.9056 60.014C20.9464 59.9936 20.926 60.0446 20.926 60.0446C21.6193 62.4407 22.6084 64.8368 23.8115 66.9576C23.7911 66.9882 23.8115 66.9576 23.8217 67.029C24.0256 69.211 21.9762 70.6385 20.9872 72.2699C20.8138 72.5553 20.7119 72.7185 20.6507 72.8306C20.4672 73.3608 20.5691 73.9726 20.9872 74.3907C20.9872 74.3907 22.6491 76.7664 24.3519 78.4589C26.0547 80.1617 28.6343 82.0378 28.6343 82.0378C29.2155 82.619 30.1739 82.619 30.7551 82.0378C31.1324 81.6606 33.7324 79.4888 35.996 79.2033C35.996 79.2033 35.9858 79.2135 36.0266 79.2237C38.2085 80.437 40.4619 81.3954 42.9294 82.0684C42.9498 82.0786 43.0212 82.099 43.0212 82.099C44.7239 83.3531 44.2753 85.9532 44.7239 87.8089C44.8157 88.645 45.2745 89.1752 46.2228 89.3077C46.2228 89.3077 49.0777 89.8073 51.484 89.8073C53.8903 89.8073 57.0409 89.3179 57.0409 89.3179C57.8668 89.1752 58.5398 88.645 58.5398 87.8191C58.5398 87.2787 58.8355 83.9139 60.2425 82.1092C60.2425 82.1092 60.3037 82.0582 60.3649 82.0072C62.8732 81.3037 64.7798 80.5288 66.9924 79.2543C67.1046 79.2135 66.9822 79.2237 67.2473 79.1829C69.3375 78.8668 70.8568 81.0284 72.4882 82.0174C72.7737 82.1908 72.9368 82.2927 73.049 82.3539C73.5792 82.5374 74.1909 82.4355 74.609 82.0174C74.609 82.0174 76.9847 80.3554 78.6773 78.6527C80.38 76.9499 82.2561 74.3703 82.2561 74.3703C82.8373 73.7891 82.8373 72.8306 82.2561 72.2495C81.8789 71.8722 79.7071 69.2722 79.4216 67.0086C79.391 66.7741 79.4114 66.7435 79.442 66.6823C80.7063 64.4494 81.5016 62.818 82.195 60.2893C82.195 60.2893 82.1644 60.2077 82.3275 59.9936C83.5816 58.2909 86.1817 58.7395 88.0374 58.2909C88.8633 58.2909 89.5362 57.6179 89.5362 56.792C89.5362 56.792 90.0358 53.9371 90.0358 51.5308C90.0358 49.1245 89.5464 45.9739 89.5464 45.9739ZM73.8341 51.3167C73.8341 63.6439 63.8418 73.6463 51.5044 73.6463C39.167 73.6463 29.1747 63.6541 29.1747 51.3167C29.1747 38.9895 39.167 28.987 51.5044 28.987C63.8418 28.987 73.8341 38.9895 73.8341 51.3167Z" fill="url(#paint2_linear_58_99)"/>
<path d="M73.0793 82.3744C73.0692 82.3744 73.0692 82.3643 73.0591 82.3643C73.0692 82.3643 73.0793 82.3744 73.0793 82.3744Z" fill="#F2F1F0"/>
<path d="M73.0588 82.3638C72.8447 82.2313 72.498 82.0273 72.498 82.0273C72.6612 82.1803 72.8549 82.2924 73.0588 82.3638Z" fill="#F2F1F0"/>
<path d="M73.0796 82.374C73.2733 82.4862 73.2325 82.4658 73.0796 82.374V82.374Z" fill="#F2F1F0"/>
<path d="M30.1841 20.4219C30.3982 20.5544 30.7449 20.7583 30.7449 20.7583C30.5817 20.6054 30.388 20.4932 30.1841 20.4219Z" fill="#F2F1F0"/>
<path d="M30.1636 20.4121C30.1737 20.4121 30.1737 20.4222 30.1838 20.4222C30.1737 20.4222 30.1636 20.4121 30.1636 20.4121Z" fill="#F2F1F0"/>
<path d="M30.1637 20.4116C29.9699 20.2995 30.0107 20.3199 30.1637 20.4116V20.4116Z" fill="#F2F1F0"/>
<path d="M20.6406 72.8506C20.5285 73.0443 20.5489 73.0035 20.6406 72.8506V72.8506Z" fill="#F2F1F0"/>
<path d="M20.6406 72.8513C20.6406 72.8412 20.6507 72.8412 20.6507 72.8311C20.6507 72.8412 20.6406 72.8513 20.6406 72.8513Z" fill="#F2F1F0"/>
<path d="M20.6509 72.8303C20.7834 72.6162 20.9874 72.2695 20.9874 72.2695C20.8344 72.4327 20.7223 72.6264 20.6509 72.8303Z" fill="#F2F1F0"/>
<path d="M82.5923 29.9561C82.4598 30.1702 82.2559 30.5168 82.2559 30.5168C82.4088 30.3537 82.521 30.16 82.5923 29.9561Z" fill="#F2F1F0"/>
<path d="M82.6029 29.9355C82.6029 29.9457 82.5928 29.9457 82.5928 29.9558C82.5928 29.9457 82.6029 29.9355 82.6029 29.9355Z" fill="#F2F1F0"/>
<path d="M82.603 29.9351C82.7152 29.7414 82.6948 29.7822 82.603 29.9351V29.9351Z" fill="#F2F1F0"/>
<path opacity="0.2" d="M32.2069 66.1991H49.4305C50.2006 66.1991 50.8258 65.574 50.8258 64.8038V39.5186H23.4751V64.8038C23.4751 65.574 24.1002 66.1991 24.8704 66.1991H27.851H32.2069V66.1991Z" fill="#1F1D21"/>
<path d="M32.2069 65.1484H49.8806C50.4057 65.1484 50.8308 64.7233 50.8308 64.1982V39.4131C50.8258 38.888 50.4007 38.4629 49.8806 38.4629H24.4253C23.9002 38.4629 23.4751 38.888 23.4751 39.4131V64.1982C23.4751 64.7233 23.9002 65.1484 24.4253 65.1484H27.851H32.2069Z" fill="white"/>
<path d="M50.8258 38.9434C50.8258 38.4183 50.4007 37.9932 49.8756 37.9932H24.4253C23.9002 37.9932 23.4751 38.4183 23.4751 38.9434V39.8435H50.8258V38.9434Z" fill="white"/>
<path opacity="0.15" d="M37.1573 52.7266L46.5122 58.1663L37.1291 63.6062L27.793 58.1663L37.1573 52.7266Z" fill="#1F1D20"/>
<path d="M37.1291 51.4652V62.3353L27.793 56.8673V46.0254L37.1291 51.4652Z" fill="#32B0E7"/>
<path d="M37.1573 40.5859L46.5122 46.0257L37.1291 51.4655L27.793 46.0257L37.1573 40.5859Z" fill="#45CAF2"/>
<path d="M46.5121 46.0254V56.8673L37.1289 62.3353V51.4652L46.5121 46.0254Z" fill="#156AB3"/>
<path d="M37.1289 62.336V51.4658L46.5121 56.868L37.1289 62.336Z" fill="#185A97"/>
<path d="M37.1291 62.336V51.4658L27.793 56.868L37.1291 62.336Z" fill="#0078D4"/>
<path opacity="0.2" d="M61.1342 66.1991H78.3577C79.1279 66.1991 79.753 65.574 79.753 64.8038V39.5186H52.4023V64.8038C52.4023 65.574 53.0275 66.1991 53.7976 66.1991H56.7783H61.1342V66.1991Z" fill="#1F1D21"/>
<path d="M61.1342 65.1484H78.8078C79.3329 65.1484 79.758 64.7233 79.758 64.1982V39.4131C79.753 38.888 79.3279 38.4629 78.8078 38.4629H53.3525C52.8274 38.4629 52.4023 38.888 52.4023 39.4131V64.1982C52.4023 64.7233 52.8274 65.1484 53.3525 65.1484H56.7783H61.1342Z" fill="white"/>
<path d="M79.753 38.9434C79.753 38.4183 79.3279 37.9932 78.8028 37.9932H53.3525C52.8274 37.9932 52.4023 38.4183 52.4023 38.9434V39.8435H79.753V38.9434Z" fill="white"/>
<g clip-path="url(#clip0_58_99)">
<path d="M67.5123 52.2508L72.7588 44.4878C72.9491 44.2082 73.0585 43.8835 73.0754 43.5479C73.0924 43.2124 73.0162 42.8787 72.855 42.5821C72.6938 42.2856 72.4535 42.0373 72.1598 41.8636C71.866 41.6899 71.5297 41.5973 71.1866 41.5957H60.9875C60.6393 41.5955 60.2977 41.689 60.0001 41.8659C59.7025 42.0428 59.4602 42.2963 59.2998 42.5988C59.1393 42.9013 59.0668 43.2412 59.0902 43.5812C59.1137 43.9213 59.2321 44.2486 59.4325 44.5273L64.7365 52.2508H67.5123V52.2508Z" fill="#003960"/>
<path d="M64.3784 51.084L64.6491 52.2509L59.4027 59.7094C59.2116 59.9889 59.1017 60.314 59.0848 60.6498C59.0679 60.9857 59.1446 61.3198 59.3067 61.6163C59.4688 61.9128 59.7101 62.1606 60.005 62.3331C60.2999 62.5057 60.6371 62.5965 60.9806 62.5959H71.197C71.5446 62.5963 71.8856 62.5031 72.1827 62.3265C72.4798 62.1499 72.7216 61.8967 72.8815 61.5946C73.0415 61.2926 73.1134 60.9532 73.0896 60.6137C73.0657 60.2743 72.9469 59.9478 72.7461 59.67L67.4479 52.2509V51.084H64.3784Z" fill="#003960"/>
<path d="M65.3456 50.7399C65.4352 50.8701 65.5561 50.9768 65.6977 51.0506C65.8393 51.1243 65.9972 51.1629 66.1576 51.1629C66.318 51.1629 66.4759 51.1243 66.6175 51.0506C66.7591 50.9768 66.88 50.8701 66.9696 50.7399L70.425 45.6097C70.4497 45.5713 70.4634 45.5272 70.4648 45.4819C70.4662 45.4365 70.4551 45.3917 70.4328 45.352C70.4104 45.3123 70.3776 45.2792 70.3377 45.2561C70.2979 45.233 70.2524 45.2208 70.2061 45.2207H61.9823C61.9356 45.2211 61.8899 45.2339 61.85 45.2577C61.8101 45.2814 61.7775 45.3154 61.7556 45.3558C61.7338 45.3962 61.7235 45.4418 61.7259 45.4874C61.7283 45.5331 61.7433 45.5773 61.7693 45.6153L65.3456 50.7399Z" fill="white"/>
<path d="M61.8384 61.6203H70.3271C70.5454 61.6207 70.7586 61.5556 70.9378 61.4336C71.117 61.3115 71.2537 61.1386 71.3292 60.9381C71.3606 60.853 71.3706 60.7617 71.3584 60.672C71.3462 60.5823 71.3121 60.4968 71.2591 60.4227C71.206 60.3486 71.1354 60.2881 71.0534 60.2463C70.9714 60.2045 70.8803 60.1827 70.7878 60.1827H61.3662C61.2804 60.1812 61.1954 60.1984 61.1173 60.2332C61.0392 60.2679 60.97 60.3194 60.9148 60.3837C60.8596 60.448 60.8198 60.5235 60.7982 60.6048C60.7767 60.6861 60.774 60.7711 60.7903 60.8536C60.8521 61.0778 60.989 61.2752 61.179 61.4142C61.3691 61.5532 61.6013 61.6258 61.8384 61.6203V61.6203Z" fill="white"/>
</g>
<defs>
<linearGradient id="paint0_linear_58_99" x1="49.8427" y1="-13.4004" x2="53.8247" y2="132.37" gradientUnits="userSpaceOnUse">
<stop stop-color="#00ABDE"/>
<stop offset="1" stop-color="#007ED8"/>
</linearGradient>
<linearGradient id="paint1_linear_58_99" x1="3.04702" y1="-20.234" x2="98.5746" y2="120.647" gradientUnits="userSpaceOnUse">
<stop stop-color="#007ED8"/>
<stop offset="0.7065" stop-color="#002D4C"/>
</linearGradient>
<linearGradient id="paint2_linear_58_99" x1="11.7701" y1="-7.37107" x2="90.1408" y2="108.208" gradientUnits="userSpaceOnUse">
<stop stop-color="#007ED8"/>
<stop offset="0.7065" stop-color="#002D4C"/>
</linearGradient>
<clipPath id="clip0_58_99">
<rect width="14" height="21" fill="white" transform="translate(59.0801 41.5957)"/>
</clipPath>
</defs>
</svg>
