<svg width="201" height="170" viewBox="0 0 201 170" fill="none" xmlns="http://www.w3.org/2000/svg">
<path d="M18.6033 27.223C18.6033 27.223 161.843 5.58276 170.913 4.81609C179.983 4.04943 191.323 7.90318 194.343 16.408C197.363 24.9026 193.963 41.1354 191.693 52.3389C189.423 63.5423 175.443 152.403 170.903 156.656C166.363 160.908 166.363 163.607 143.313 163.607C120.263 163.607 45.4233 168.248 39.7533 164.384C34.0833 160.52 26.9033 142.744 21.9933 126.521C17.0833 110.298 3.48329 50.3967 4.99329 43.0571C6.50329 35.7176 12.9333 27.223 18.6033 27.223Z" fill="url(#paint0_linear)"/>
<path d="M21.8334 25.6181C15.6934 26.5585 10.5034 29.9625 7.07335 34.6954C3.64335 39.4282 1.99335 45.49 2.91335 51.7766C3.00335 52.3695 3.11335 52.9521 3.24335 53.5348L24.8034 149.04C25.9834 154.254 28.8434 158.71 32.7234 161.869C36.6034 165.018 41.4934 166.868 46.7334 166.868H154.223C159.633 166.868 164.663 164.895 168.593 161.562C172.523 158.23 175.343 153.538 176.343 148.1L198.103 29.4719C199.253 23.2261 197.813 17.1031 194.553 12.2475C191.303 7.39202 186.233 3.80405 180.133 2.6285C177.913 2.20939 175.683 2.02539 21.8334 25.6181Z" stroke="white" stroke-width="5"/>
<path d="M173.013 5.02057C175.223 4.68324 177.473 4.72413 179.663 5.14323C190.403 7.19789 197.523 17.6858 195.693 28.6542L195.633 29.0017L173.873 147.63C172.123 157.177 164.043 164.128 154.573 164.302H154.213H46.7334C37.5434 164.302 29.5534 157.903 27.3334 148.816L27.2434 148.448L5.6834 52.9624C5.5634 52.4411 5.4734 51.9198 5.3934 51.3985C3.7734 40.3483 11.1234 30.0444 21.8634 28.2044L22.2034 28.1533L173.013 5.02057ZM178.743 10.1725C177.263 9.88631 175.743 9.8352 174.253 10.009L173.753 10.0805L22.9434 33.203C14.7534 34.4604 9.1034 42.2599 10.3334 50.642C10.3734 50.9078 10.4134 51.1633 10.4734 51.4291L10.5534 51.8176L32.1134 147.323C33.6634 154.172 39.5534 159.048 46.3934 159.201H46.7334H154.223C161.333 159.201 167.443 154.111 168.903 147.027L168.963 146.689L190.723 28.0613C192.253 19.7405 186.883 11.7263 178.743 10.1725Z" fill="#F3C900"/>
<path d="M108.683 34.3574H65.0933C63.1833 34.3574 61.6333 35.9214 61.6333 37.8534V132.306C61.6333 134.238 63.1833 135.802 65.0933 135.802H140.133C142.043 135.802 143.593 134.238 143.593 132.306V69.8078C143.593 67.8758 142.043 66.3119 140.133 66.3119H115.223C113.353 66.3119 111.833 64.7785 111.833 62.8772V37.8534C111.873 36.0236 110.483 34.4903 108.683 34.3574Z" fill="url(#paint1_linear)"/>
<path d="M144.063 68.4894L110.253 34.2656V61.9983C110.253 65.5863 113.113 68.4894 116.633 68.4894H144.063Z" fill="#4A4C4A"/>
<path d="M77.3135 127.922H60.1135V75.3184C60.1135 73.4273 61.6135 71.8838 63.4735 71.8838H77.3235C79.1735 71.8838 80.6835 73.4171 80.6835 75.3184V124.497C80.6635 126.378 79.1635 127.922 77.3135 127.922Z" fill="url(#paint2_linear)"/>
<path d="M66.1735 127.922H48.5334V89.1802C48.5334 87.5344 49.8434 86.1953 51.4534 86.1953H66.1634C67.7734 86.1953 69.0834 87.5344 69.0834 89.1802V124.927C69.0934 126.583 67.7835 127.922 66.1735 127.922Z" fill="url(#paint3_linear)"/>
<path d="M54.2434 127.921H41.3134C39.2034 127.921 37.5034 126.184 37.5034 124.027V103.817C37.5034 101.661 39.2034 99.9229 41.3134 99.9229H54.2534C56.3634 99.9229 58.0634 101.661 58.0634 103.817V124.027C58.0534 126.173 56.3534 127.921 54.2434 127.921Z" fill="url(#paint4_linear)"/>
<path d="M99.5732 102.969H88.3232V117.586H99.5732V102.969Z" fill="url(#paint5_linear)"/>
<path d="M115.863 90.999H104.613V118.609H115.863V90.999Z" fill="url(#paint6_linear)"/>
<path d="M131.143 74.7559H119.893V118.609H131.143V74.7559Z" fill="url(#paint7_linear)"/>
<path d="M106.223 148.918L129.913 124.64C130.143 124.405 130.503 124.405 130.733 124.64L135.073 129.097C135.303 129.332 135.303 129.7 135.073 129.935L111.393 154.213C111.163 154.448 110.803 154.448 110.573 154.213L106.233 149.756C105.993 149.531 105.993 149.153 106.223 148.918Z" fill="#C7A701"/>
<path d="M143.283 140.362C156.743 140.362 167.643 129.21 167.643 115.461C167.643 101.712 156.733 90.5596 143.283 90.5596C129.823 90.5596 118.923 101.712 118.923 115.461C118.913 129.22 129.823 140.362 143.283 140.362Z" fill="#F7CF00"/>
<path d="M143.283 135.67C153.943 135.67 162.593 126.838 162.593 115.931C162.593 105.035 153.953 96.1924 143.283 96.1924C132.623 96.1924 123.973 105.024 123.973 115.931C123.973 126.828 132.613 135.67 143.283 135.67Z" fill="#5F5F5F"/>
<path d="M133.083 116.391L138.533 128.136L144.053 113.038L148.613 121.624L154.263 112.782H162.313C162.113 111.781 162.023 111.096 161.783 109.808H152.763L149.083 115.563L143.433 105.586L138.193 119.928L133.423 109.757L127.563 119.672H124.423C124.423 121.287 124.713 121.686 125.163 122.647H129.403L133.083 116.391Z" fill="white"/>
<defs>
<linearGradient id="paint0_linear" x1="100.21" y1="4.71459" x2="100.21" y2="165.911" gradientUnits="userSpaceOnUse">
<stop stop-color="#D48E15"/>
<stop offset="1" stop-color="#996A20"/>
</linearGradient>
<linearGradient id="paint1_linear" x1="102.613" y1="35.0384" x2="102.613" y2="135.806" gradientUnits="userSpaceOnUse">
<stop stop-color="#6A6A6A"/>
<stop offset="1" stop-color="#343333"/>
</linearGradient>
<linearGradient id="paint2_linear" x1="70.1565" y1="77.0087" x2="70.6135" y2="123.504" gradientUnits="userSpaceOnUse">
<stop offset="0.00753769" stop-color="#E0A310"/>
<stop offset="1" stop-color="#CA810E"/>
</linearGradient>
<linearGradient id="paint3_linear" x1="58.2599" y1="87.8153" x2="59.6308" y2="136.991" gradientUnits="userSpaceOnUse">
<stop offset="0.00753769" stop-color="#F2CC40"/>
<stop offset="1" stop-color="#E7B116"/>
</linearGradient>
<linearGradient id="paint4_linear" x1="47.2916" y1="102.073" x2="48.6624" y2="133.812" gradientUnits="userSpaceOnUse">
<stop stop-color="#F8E17B"/>
<stop offset="0.5302" stop-color="#F6D856"/>
<stop offset="1" stop-color="#F6D856"/>
</linearGradient>
<linearGradient id="paint5_linear" x1="93.9453" y1="117.221" x2="93.9453" y2="102.184" gradientUnits="userSpaceOnUse">
<stop stop-color="#0078D4"/>
<stop offset="0.16" stop-color="#1380DA"/>
<stop offset="0.53" stop-color="#3C91E5"/>
<stop offset="0.82" stop-color="#559CEC"/>
<stop offset="1" stop-color="#5EA0EF"/>
</linearGradient>
<linearGradient id="paint6_linear" x1="110.235" y1="91.0018" x2="110.235" y2="118.612" gradientUnits="userSpaceOnUse">
<stop stop-color="#DA3A00"/>
<stop offset="1" stop-color="#DA3A00"/>
</linearGradient>
<linearGradient id="paint7_linear" x1="125.515" y1="75.6429" x2="125.515" y2="118.6" gradientUnits="userSpaceOnUse">
<stop stop-color="#FFE02A"/>
<stop offset="1" stop-color="#FFB518"/>
</linearGradient>
</defs>
</svg>
