<?xml version="1.0" encoding="UTF-8"?>
<svg width="180px" height="190px" viewBox="0 0 180 190" version="1.1" xmlns="http://www.w3.org/2000/svg" xmlns:xlink="http://www.w3.org/1999/xlink">
    <title>Overview of data analysis in Power BI/overview-of-data-analysis-in-power-bi</title>
    <defs>
        <path d="M100.206168,6.55621559 L158.148455,40.9384601 C164.220022,44.5412538 167.942286,51.0782575 167.942286,58.1382893 L167.942286,127.861711 C167.942286,134.921743 164.220022,141.458746 158.148455,145.06154 L100.206168,179.443784 C93.9142272,183.177345 86.0857728,183.177345 79.7938316,179.443784 L21.8515452,145.06154 C15.7799781,141.458746 12.0577137,134.921743 12.0577137,127.861711 L12.0577137,58.1382893 C12.0577137,51.0782575 15.7799781,44.5412538 21.8515452,40.9384601 L79.7938316,6.55621559 C86.0857728,2.82265458 93.9142272,2.82265458 100.206168,6.55621559 Z" id="path-1"></path>
        <linearGradient x1="50%" y1="0%" x2="50%" y2="100%" id="linearGradient-3">
            <stop stop-color="#D48E15" offset="0%"></stop>
            <stop stop-color="#996A20" offset="100%"></stop>
        </linearGradient>
        <path d="M88.2061684,3.05621559 L146.148455,37.4384601 C152.220022,41.0412538 155.942286,47.5782575 155.942286,54.6382893 L155.942286,124.361711 C155.942286,131.421743 152.220022,137.958746 146.148455,141.56154 L88.2061684,175.943784 C81.9142272,179.677345 74.0857728,179.677345 67.7938316,175.943784 L9.85154523,141.56154 C3.77997814,137.958746 0.0577136594,131.421743 0.0577136594,124.361711 L0.0577136594,54.6382893 C0.0577136594,47.5782575 3.77997814,41.0412538 9.85154523,37.4384601 L67.7938316,3.05621559 C74.0857728,-0.677345417 81.9142272,-0.677345417 88.2061684,3.05621559 Z M85.6546263,7.3561729 C81.0429194,4.61964239 75.3306135,4.55744852 70.6688793,7.16959128 L70.3453737,7.3561729 L12.4030873,41.7384174 C7.95060481,44.3804661 5.18265925,49.1264521 5.06183821,54.2858887 L5.05771366,54.6382893 L5.05771366,124.361711 C5.05771366,129.539067 7.72671515,134.341394 12.1021306,137.078203 L12.4030873,137.261583 L70.3453737,171.643827 C74.9570806,174.380358 80.6693865,174.442551 85.3311207,171.830409 L85.6546263,171.643827 L143.596913,137.261583 C148.049395,134.619534 150.817341,129.873548 150.938162,124.714111 L150.942286,124.361711 L150.942286,54.6382893 C150.942286,49.4609326 148.273285,44.6586065 143.897869,41.9217974 L143.596913,41.7384174 L85.6546263,7.3561729 Z" id="path-4"></path>
        <filter x="-10.7%" y="-12.0%" width="121.4%" height="124.8%" filterUnits="objectBoundingBox" id="filter-6">
            <feOffset dx="0" dy="2" in="SourceAlpha" result="shadowOffsetOuter1"></feOffset>
            <feGaussianBlur stdDeviation="2" in="shadowOffsetOuter1" result="shadowBlurOuter1"></feGaussianBlur>
            <feColorMatrix values="0 0 0 0 0   0 0 0 0 0   0 0 0 0 0  0 0 0 0.1 0" type="matrix" in="shadowBlurOuter1" result="shadowMatrixOuter1"></feColorMatrix>
            <feMerge>
                <feMergeNode in="shadowMatrixOuter1"></feMergeNode>
                <feMergeNode in="SourceGraphic"></feMergeNode>
            </feMerge>
        </filter>
        <linearGradient x1="50%" y1="0.670396959%" x2="50%" y2="100%" id="linearGradient-7">
            <stop stop-color="#6A6A6A" offset="0%"></stop>
            <stop stop-color="#343333" offset="100%"></stop>
        </linearGradient>
        <linearGradient x1="50%" y1="100%" x2="50%" y2="0%" id="linearGradient-8">
            <stop stop-color="#D2EBFF" offset="0%"></stop>
            <stop stop-color="#F0FFFD" offset="100%"></stop>
        </linearGradient>
        <linearGradient x1="50%" y1="100%" x2="50%" y2="0%" id="linearGradient-9">
            <stop stop-color="#D2EBFF" offset="0%"></stop>
            <stop stop-color="#F0FFFD" offset="100%"></stop>
        </linearGradient>
        <linearGradient x1="50%" y1="0.670396959%" x2="50%" y2="100%" id="linearGradient-10">
            <stop stop-color="#6A6A6A" offset="0%"></stop>
            <stop stop-color="#343333" offset="100%"></stop>
        </linearGradient>
        <linearGradient x1="50%" y1="0.670396959%" x2="50%" y2="100%" id="linearGradient-11">
            <stop stop-color="#6A6A6A" offset="0%"></stop>
            <stop stop-color="#343333" offset="100%"></stop>
        </linearGradient>
        <filter x="-23.1%" y="-19.0%" width="146.2%" height="138.1%" filterUnits="objectBoundingBox" id="filter-12">
            <feOffset dx="0" dy="2" in="SourceAlpha" result="shadowOffsetOuter1"></feOffset>
            <feGaussianBlur stdDeviation="2" in="shadowOffsetOuter1" result="shadowBlurOuter1"></feGaussianBlur>
            <feColorMatrix values="0 0 0 0 0   0 0 0 0 0   0 0 0 0 0  0 0 0 0.1 0" type="matrix" in="shadowBlurOuter1" result="shadowMatrixOuter1"></feColorMatrix>
            <feMerge>
                <feMergeNode in="shadowMatrixOuter1"></feMergeNode>
                <feMergeNode in="SourceGraphic"></feMergeNode>
            </feMerge>
        </filter>
        <linearGradient x1="50%" y1="0.670396959%" x2="50%" y2="100%" id="linearGradient-13">
            <stop stop-color="#6A6A6A" offset="0%"></stop>
            <stop stop-color="#343333" offset="100%"></stop>
        </linearGradient>
        <linearGradient x1="50%" y1="97.5691716%" x2="50%" y2="-5.30956676%" id="linearGradient-14">
            <stop stop-color="#0078D4" offset="0%"></stop>
            <stop stop-color="#1380DA" offset="16%"></stop>
            <stop stop-color="#3C91E5" offset="53%"></stop>
            <stop stop-color="#559CEC" offset="82%"></stop>
            <stop stop-color="#5EA0EF" offset="100%"></stop>
        </linearGradient>
        <linearGradient x1="50%" y1="0%" x2="50%" y2="100%" id="linearGradient-15">
            <stop stop-color="#DA3A00" offset="0%"></stop>
            <stop stop-color="#DA3A00" offset="100%"></stop>
        </linearGradient>
        <linearGradient x1="50%" y1="2.04550253%" x2="50%" y2="100%" id="linearGradient-16">
            <stop stop-color="#FFE02A" offset="0%"></stop>
            <stop stop-color="#FFB518" offset="100%"></stop>
        </linearGradient>
        <filter x="-27.9%" y="-27.9%" width="155.8%" height="155.8%" filterUnits="objectBoundingBox" id="filter-17">
            <feOffset dx="0" dy="2" in="SourceAlpha" result="shadowOffsetOuter1"></feOffset>
            <feGaussianBlur stdDeviation="2" in="shadowOffsetOuter1" result="shadowBlurOuter1"></feGaussianBlur>
            <feColorMatrix values="0 0 0 0 0   0 0 0 0 0   0 0 0 0 0  0 0 0 0.1 0" type="matrix" in="shadowBlurOuter1" result="shadowMatrixOuter1"></feColorMatrix>
            <feMerge>
                <feMergeNode in="shadowMatrixOuter1"></feMergeNode>
                <feMergeNode in="SourceGraphic"></feMergeNode>
            </feMerge>
        </filter>
    </defs>
    <g id="Badges" stroke="none" stroke-width="1" fill="none" fill-rule="evenodd">
        <g id="Overview-of-data-analysis-in-Power-BI" transform="translate(-120.000000, -35.000000)">
            <g id="Overview-of-data-analysis-in-Power-BI/overview-of-data-analysis-in-power-bi" transform="translate(154.000000, 73.000000)">
                <g id="Trophy-Plates/Hex" transform="translate(6.000000, 7.000000)">
                    <g id="BG" transform="translate(-40.000000, -43.000000)">
                        <mask id="mask-2" fill="white">
                            <use xlink:href="#path-1"></use>
                        </mask>
                        <path stroke="#FFFFFF" stroke-width="5" d="M101.481939,4.40623694 C97.9427226,2.30610887 93.9713613,1.25604484 90,1.25604484 C86.0286387,1.25604484 82.0572774,2.30610887 78.5180605,4.40623694 L20.5757742,38.7884814 C13.7452612,42.8416243 9.55771366,50.1957535 9.55771366,58.1382893 L9.55771366,127.861711 C9.55771366,135.804246 13.7452612,143.158376 20.5757742,147.211519 L78.5180605,181.593763 C82.0572774,183.693891 86.0286387,184.743955 90,184.743955 C93.9713613,184.743955 97.9427226,183.693891 101.481939,181.593763 L159.424226,147.211519 C166.254739,143.158376 170.442286,135.804246 170.442286,127.861711 L170.442286,58.1382893 C170.442286,50.1957535 166.254739,42.8416243 159.424226,38.7884814 L101.481939,4.40623694 Z"></path>
                        <g id="Colors/Power-BI/BG-Gradient-2" mask="url(#mask-2)" fill="url(#linearGradient-3)">
                            <g transform="translate(0.000000, 0.500000)" id="Rectangle">
                                <rect x="0" y="0" width="180" height="185"></rect>
                            </g>
                        </g>
                    </g>
                    <g id="Border" transform="translate(-28.000000, -39.500000)">
                        <mask id="mask-5" fill="white">
                            <use xlink:href="#path-4"></use>
                        </mask>
                        <use fill="#000000" fill-rule="nonzero" xlink:href="#path-4"></use>
                        <g id="Colors/Power-BI/Border" mask="url(#mask-5)" fill="#F3C900">
                            <g transform="translate(-12.000000, -3.000000)" id="Rectangle">
                                <rect x="0" y="0" width="180" height="185"></rect>
                            </g>
                        </g>
                    </g>
                </g>
                <g id="Presentation-" filter="url(#filter-6)">
                    <g id="Group-15">
                        <ellipse id="Oval" stroke="url(#linearGradient-7)" stroke-width="4" cx="55.3913043" cy="7.55679214" rx="7.54782609" ry="7.55679214"></ellipse>
                        <path d="M24.3478261,116.883579 L40.7014493,86.6564103 M87.2463768,116.883579 L70.8927536,86.6564103 M33.1536232,104.288925 L79.6985507,104.288925" id="Combined-Shape" stroke="url(#linearGradient-8)" stroke-width="5" stroke-linecap="round"></path>
                        <rect id="Rectangle" fill="url(#linearGradient-9)" x="5.07246377" y="17.632515" width="101.895652" height="68.0111293"></rect>
                        <rect id="Rectangle" fill="url(#linearGradient-10)" x="0" y="7.55679214" width="112" height="11.3351882" rx="2"></rect>
                        <rect id="Rectangle" fill="url(#linearGradient-11)" x="0" y="84.2153846" width="112" height="6.29732679" rx="2"></rect>
                    </g>
                </g>
                <g id="Group-2" transform="translate(39.000000, 20.000000)" fill-rule="nonzero">
                    <g id="Document-w/-Data" filter="url(#filter-12)" transform="translate(9.393939, -0.000000)">
                        <g id="Icon-azurestack-6">
                            <g id="Group">
                                <path d="M29.8058349,0.0580734458 L2.51202806,0.0580734458 C1.31701368,0.0580734458 0.348263119,1.01702817 0.348263119,2.19995877 L0.348263119,60.0684395 C0.348263119,61.2513701 1.31701368,62.2103248 2.51202806,62.2103248 L49.5074841,62.2103248 C50.7024985,62.2103248 51.6712491,61.2513701 51.6712491,60.0684395 L51.6712491,21.7775422 C51.6712491,20.5946116 50.7024985,19.6356569 49.5074841,19.6356569 L33.9056001,19.6356569 C32.7315509,19.6356569 31.7797959,18.6935259 31.7797959,17.5313485 L31.7797959,2.19995877 C31.8028854,1.07961226 30.9349867,0.137881732 29.8058349,0.0580734458 Z" id="Path" fill="url(#linearGradient-13)"></path>
                                <path d="M51.9645233,20.96793 L30.7937916,0 L30.7937916,16.9891957 C30.7937916,19.18659 32.5821801,20.96793 34.7882693,20.96793 L51.9645233,20.96793 Z" id="Path" fill="#4A4C4A"></path>
                            </g>
                        </g>
                        <g id="Computer" transform="translate(8.588745, 13.956710)">
                            <rect id="Rectangle" fill="#FFFFFF" x="0" y="6.96526238" width="15.0974026" height="2.98511245" rx="1.49255622"></rect>
                            <rect id="Rectangle" fill="#FFFFFF" x="0" y="0" width="15.0974026" height="2.98511245" rx="1.49255622"></rect>
                            <rect id="Rectangle" fill="#FFFFFF" x="0" y="13.9305248" width="9.05844156" height="2.98511245" rx="1.49255622"></rect>
                            <rect id="Rectangle" fill="url(#linearGradient-14)" x="1.00649351" y="31.8411995" width="7.04545455" height="8.95533735"></rect>
                            <rect id="Rectangle" fill="url(#linearGradient-15)" x="13.0844156" y="23.8808996" width="7.04545455" height="16.9156372"></rect>
                            <rect id="Rectangle" fill="url(#linearGradient-16)" x="25.1623377" y="13.9305248" width="7.04545455" height="26.866012"></rect>
                        </g>
                    </g>
                    <g id="Magnifying-Glass" filter="url(#filter-17)" transform="translate(0.000000, 12.525253)">
                        <path d="M-0.616649907,30.0910177 L21.7622796,30.0614411 C22.1102187,30.0609812 22.3926518,30.3426688 22.3931117,30.6906079 C22.3931125,30.6912093 22.3931124,30.6918106 22.3931115,30.692412 L22.387377,34.4112674 C22.3868416,34.7585021 22.1054451,35.0398365 21.7582104,35.0402954 L-0.620719132,35.0698721 C-0.96865822,35.0703319 -1.25109136,34.7886443 -1.25155121,34.4407052 C-1.251552,34.4401039 -1.25155194,34.4395025 -1.25155101,34.4389011 L-1.24581653,30.7200457 C-1.2452811,30.372811 -0.963884666,30.0914766 -0.616649907,30.0910177 Z" id="Rectangle" fill="#C7A701" transform="translate(10.570780, 32.565657) rotate(-45.000000) translate(-10.570780, -32.565657) "></path>
                        <circle id="Oval" fill="#F7CF00" cx="25.989899" cy="16.5959596" r="16.5959596"></circle>
                        <circle id="Oval" fill="#5F5F5F" cx="25.989899" cy="16.9090909" r="13.1515152"></circle>
                        <path d="M19.0430228,17.2195909 L22.7542088,25.0505051 L26.5117845,14.9882013 L29.6199027,20.7140311 L33.4702581,14.8197946 L38.9535354,14.8197946 C38.8176233,14.1495099 38.7549971,13.6988834 38.5915996,12.8410152 L32.449682,12.8410152 L29.9446315,16.6722689 L26.0942761,10.020202 L22.5222596,19.5772855 L19.2749719,12.7989135 L15.2854471,19.4088787 L13.1515152,19.4088787 C13.1515152,20.4877345 13.351193,20.7498433 13.6525253,21.3876581 L16.5379723,21.3876581 L19.0430228,17.2195909 Z" id="Path" fill="#FFFFFF"></path>
                    </g>
                </g>
                <g id="powerbi_icon" transform="translate(15.000000, 27.000000)" fill="#B57B1B" fill-rule="nonzero">
                    <path d="M22.2077143,15.9918571 L21.6997857,15.9918571 L21.6997857,14.9964286 L22.2077143,14.9964286 C23.2857857,14.9945714 24.1605,14.1375 24.1614286,13.0807857 L24.1614286,2.91107143 C24.1605,1.85342857 23.2857857,0.996357143 22.2077143,0.995428571 L2.96957143,0.995428571 C1.89057143,0.996357143 1.01678571,1.85342857 1.01492857,2.91107143 L1.01492857,13.0817143 C1.01678571,14.1384286 1.89057143,14.9955 2.96957143,14.9973571 L3.4775,14.9973571 L3.4775,15.9927857 L2.96957143,15.9927857 C1.32971429,15.99 0.00185714286,14.6881429 0,13.0817143 L0,2.91107143 C0.00185714286,1.30464286 1.33064286,0.00185714286 2.96957143,0 L22.2077143,0 C23.8466429,0.00185714286 25.1754286,1.30464286 25.1772857,2.91107143 L25.1772857,13.0817143 C25.1754286,14.6881429 23.8466429,15.9909286 22.2077143,15.9927857" id="Shape"></path>
                    <path d="M6.08771429,12.6592143 C6.45357143,12.6592143 6.80364286,12.8012857 7.06271429,13.0547857 C7.32085714,13.3073571 7.46571429,13.6509286 7.46571429,14.0093571 L7.46571429,17.1247143 C7.46571429,17.8712857 6.84914286,18.4757857 6.08771429,18.4757857 C5.72185714,18.4757857 5.37178571,18.3337143 5.11271429,18.0802143 C4.85531685,17.8288934 4.71004477,17.484458 4.70971429,17.1247143 L4.70971429,14.0102857 C4.70971429,13.2637143 5.32628571,12.6592143 6.08771429,12.6592143 L6.08771429,12.6592143 Z" id="Shape"></path>
                    <path d="M10.4222857,18.4757857 C9.66085714,18.4757857 9.04335714,17.8712857 9.04335714,17.1247143 L9.04335714,9.12971429 C9.04335714,8.38221429 9.66085714,7.77771429 10.4222857,7.77771429 C11.1837143,7.77771429 11.8002857,8.38221429 11.8002857,9.12878571 L11.8002857,17.1247143 C11.8002857,17.8712857 11.1827857,18.4757857 10.4222857,18.4767143" id="Shape"></path>
                    <path d="M19.0895714,18.4367857 C18.3281429,18.4367857 17.7115714,17.8313571 17.7106429,17.0857143 L17.7106429,5.76178571 C17.7106429,5.01614286 18.3281429,4.41071429 19.0895714,4.41071429 C19.851,4.41071429 20.4675714,5.01614286 20.4675714,5.76178571 L20.4675714,17.0857143 C20.4675714,17.8313571 19.851,18.4367857 19.0895714,18.4367857" id="Shape"></path>
                    <path d="M14.755,18.4757857 C13.9945,18.4757857 13.3779286,17.8712857 13.377,17.1247143 L13.377,11.1846429 C13.377,10.439 13.9945,9.83357143 14.7559286,9.83357143 C15.5173571,9.83357143 16.1339286,10.439 16.1339286,11.1846429 L16.1339286,17.1247143 C16.1339286,17.8712857 15.5164286,18.4757857 14.7559286,18.4767143" id="Shape"></path>
                </g>
            </g>
        </g>
    </g>
</svg>