<svg width="103" height="103" viewBox="0 0 103 103" fill="none" xmlns="http://www.w3.org/2000/svg">
<path d="M51.3005 98.1632C25.4505 98.1632 4.49048 77.2132 4.49048 51.3532C4.49048 25.4932 25.4505 4.54321 51.3005 4.54321C77.1505 4.54321 98.1105 25.5032 98.1105 51.3532C98.1105 77.2032 77.1505 98.1632 51.3005 98.1632Z" fill="url(#paint0_linear)"/>
<path fill-rule="evenodd" clip-rule="evenodd" d="M97.2005 51.3534C97.2005 76.7034 76.6505 97.2534 51.3005 97.2534C25.9505 97.2534 5.40052 76.7034 5.40052 51.3534C5.40052 26.0034 25.9505 5.45338 51.3005 5.45338C76.6505 5.45338 97.2005 26.0034 97.2005 51.3534ZM51.3005 1.71338C78.7205 1.71338 100.941 23.9334 100.941 51.3534C100.941 78.7734 78.7105 100.993 51.3005 100.993C23.8805 100.993 1.66052 78.7634 1.66052 51.3534C1.66052 23.9334 23.8805 1.71338 51.3005 1.71338Z" fill="#F2F1F0"/>
<path fill-rule="evenodd" clip-rule="evenodd" d="M94.3906 51.3532C94.3906 75.1532 75.1006 94.4432 51.3006 94.4432C27.5006 94.4432 8.21058 75.1532 8.21058 51.3532C8.21058 27.5532 27.5006 8.26319 51.3006 8.26319C75.1006 8.26319 94.3906 27.5532 94.3906 51.3532ZM51.3006 4.52319C77.1606 4.52319 98.1306 25.4932 98.1306 51.3532C98.1306 77.2132 77.1606 98.1832 51.3006 98.1832C25.4406 98.1832 4.47058 77.2132 4.47058 51.3532C4.47058 25.4932 25.4306 4.52319 51.3006 4.52319Z" fill="url(#paint1_linear)"/>
<path d="M21.5805 45.0133H20.3005C19.7105 45.0133 19.2405 44.5433 19.2405 43.9533V42.6733C19.2405 42.0833 19.7105 41.6133 20.3005 41.6133H21.5805C22.1705 41.6133 22.6405 42.0833 22.6405 42.6733V43.9533C22.6405 44.5433 22.1705 45.0133 21.5805 45.0133Z" fill="#EBEBEB"/>
<path d="M26.5205 45.0133H25.2405C24.6505 45.0133 24.1805 44.5433 24.1805 43.9533V42.6733C24.1805 42.0833 24.6505 41.6133 25.2405 41.6133H26.5205C27.1105 41.6133 27.5805 42.0833 27.5805 42.6733V43.9533C27.5805 44.5433 27.1005 45.0133 26.5205 45.0133Z" fill="#EBEBEB"/>
<path d="M31.6205 45.0133H30.3405C29.7505 45.0133 29.2805 44.5433 29.2805 43.9533V42.6733C29.2805 42.0833 29.7505 41.6133 30.3405 41.6133H31.6205C32.2105 41.6133 32.6805 42.0833 32.6805 42.6733V43.9533C32.6805 44.5433 32.2105 45.0133 31.6205 45.0133Z" fill="#EBEBEB"/>
<path d="M36.5605 45.0133H35.2805C34.6905 45.0133 34.2205 44.5433 34.2205 43.9533V42.6733C34.2205 42.0833 34.6905 41.6133 35.2805 41.6133H36.5605C37.1505 41.6133 37.6205 42.0833 37.6205 42.6733V43.9533C37.6205 44.5433 37.1405 45.0133 36.5605 45.0133Z" fill="#EBEBEB"/>
<path d="M41.7205 45.0133H40.4405C39.8505 45.0133 39.3805 44.5433 39.3805 43.9533V42.6733C39.3805 42.0833 39.8505 41.6133 40.4405 41.6133H41.7205C42.3105 41.6133 42.7805 42.0833 42.7805 42.6733V43.9533C42.7805 44.5433 42.3105 45.0133 41.7205 45.0133Z" fill="#EBEBEB"/>
<path d="M46.6505 45.0133H45.3705C44.7805 45.0133 44.3105 44.5433 44.3105 43.9533V42.6733C44.3105 42.0833 44.7805 41.6133 45.3705 41.6133H46.6505C47.2405 41.6133 47.7105 42.0833 47.7105 42.6733V43.9533C47.7105 44.5433 47.2405 45.0133 46.6505 45.0133Z" fill="#EBEBEB"/>
<path d="M51.7605 45.0133H50.4805C49.8905 45.0133 49.4205 44.5433 49.4205 43.9533V42.6733C49.4205 42.0833 49.8905 41.6133 50.4805 41.6133H51.7605C52.3505 41.6133 52.8205 42.0833 52.8205 42.6733V43.9533C52.8205 44.5433 52.3405 45.0133 51.7605 45.0133Z" fill="#EBEBEB"/>
<path d="M56.6905 45.0133H55.4105C54.8205 45.0133 54.3505 44.5433 54.3505 43.9533V42.6733C54.3505 42.0833 54.8205 41.6133 55.4105 41.6133H56.6905C57.2805 41.6133 57.7505 42.0833 57.7505 42.6733V43.9533C57.7505 44.5433 57.2805 45.0133 56.6905 45.0133Z" fill="#EBEBEB"/>
<path d="M29.0705 50.2633H27.7905C27.2005 50.2633 26.7305 49.7933 26.7305 49.2033V47.9233C26.7305 47.3333 27.2005 46.8633 27.7905 46.8633H29.0705C29.6605 46.8633 30.1305 47.3333 30.1305 47.9233V49.2033C30.1305 49.7833 29.6605 50.2633 29.0705 50.2633Z" fill="#EBEBEB"/>
<path d="M23.8005 50.2633H20.1905C19.6005 50.2633 19.1305 49.7933 19.1305 49.2033V47.9233C19.1305 47.3333 19.6005 46.8633 20.1905 46.8633H23.8005C24.3905 46.8633 24.8605 47.3333 24.8605 47.9233V49.2033C24.8605 49.7833 24.3805 50.2633 23.8005 50.2633Z" fill="#EBEBEB"/>
<path d="M34.1805 50.2633H32.9005C32.3105 50.2633 31.8405 49.7933 31.8405 49.2033V47.9233C31.8405 47.3333 32.3105 46.8633 32.9005 46.8633H34.1805C34.7705 46.8633 35.2405 47.3333 35.2405 47.9233V49.2033C35.2405 49.7833 34.7605 50.2633 34.1805 50.2633Z" fill="#EBEBEB"/>
<path d="M39.3705 50.2633H38.0905C37.5005 50.2633 37.0305 49.7933 37.0305 49.2033V47.9233C37.0305 47.3333 37.5005 46.8633 38.0905 46.8633H39.3705C39.9605 46.8633 40.4305 47.3333 40.4305 47.9233V49.2033C40.4305 49.7833 39.9505 50.2633 39.3705 50.2633Z" fill="#EBEBEB"/>
<path d="M44.5605 50.2633H43.2805C42.6905 50.2633 42.2205 49.7933 42.2205 49.2033V47.9233C42.2205 47.3333 42.6905 46.8633 43.2805 46.8633H44.5605C45.1505 46.8633 45.6205 47.3333 45.6205 47.9233V49.2033C45.6205 49.7833 45.1405 50.2633 44.5605 50.2633Z" fill="#EBEBEB"/>
<path d="M49.6606 50.2633H48.3806C47.7906 50.2633 47.3206 49.7933 47.3206 49.2033V47.9233C47.3206 47.3333 47.7906 46.8633 48.3806 46.8633H49.6606C50.2506 46.8633 50.7206 47.3333 50.7206 47.9233V49.2033C50.7206 49.7833 50.2506 50.2633 49.6606 50.2633Z" fill="#EBEBEB"/>
<path d="M54.8805 50.2633H53.6005C53.0105 50.2633 52.5405 49.7933 52.5405 49.2033V47.9233C52.5405 47.3333 53.0105 46.8633 53.6005 46.8633H54.8805C55.4705 46.8633 55.9405 47.3333 55.9405 47.9233V49.2033C55.9405 49.7833 55.4605 50.2633 54.8805 50.2633Z" fill="#EBEBEB"/>
<path d="M60.1005 50.2633H58.8205C58.2305 50.2633 57.7605 49.7933 57.7605 49.2033V47.9233C57.7605 47.3333 58.2305 46.8633 58.8205 46.8633H60.1005C60.6905 46.8633 61.1605 47.3333 61.1605 47.9233V49.2033C61.1605 49.7833 60.6805 50.2633 60.1005 50.2633Z" fill="#EBEBEB"/>
<path d="M31.4206 55.4532H29.8706C29.3606 55.4532 28.9506 55.0432 28.9506 54.5332V52.9832C28.9506 52.4732 29.3606 52.0632 29.8706 52.0632H31.4206C31.9306 52.0632 32.3406 52.4732 32.3406 52.9832V54.5332C32.3406 55.0332 31.9306 55.4532 31.4206 55.4532Z" fill="#EBEBEB"/>
<path d="M26.2905 55.4532H20.0505C19.5405 55.4532 19.1305 55.0432 19.1305 54.5332V52.9832C19.1305 52.4732 19.5405 52.0632 20.0505 52.0632H26.2905C26.8005 52.0632 27.2105 52.4732 27.2105 52.9832V54.5332C27.2105 55.0332 26.8005 55.4532 26.2905 55.4532Z" fill="#EBEBEB"/>
<path d="M36.6105 55.4532H35.0605C34.5505 55.4532 34.1405 55.0432 34.1405 54.5332V52.9832C34.1405 52.4732 34.5505 52.0632 35.0605 52.0632H36.6105C37.1205 52.0632 37.5305 52.4732 37.5305 52.9832V54.5332C37.5305 55.0332 37.1205 55.4532 36.6105 55.4532Z" fill="#EBEBEB"/>
<path d="M41.8006 55.4532H40.2506C39.7406 55.4532 39.3306 55.0432 39.3306 54.5332V52.9832C39.3306 52.4732 39.7406 52.0632 40.2506 52.0632H41.8006C42.3106 52.0632 42.7206 52.4732 42.7206 52.9832V54.5332C42.7206 55.0332 42.3106 55.4532 41.8006 55.4532Z" fill="#EBEBEB"/>
<path d="M46.9005 55.4532H45.3505C44.8405 55.4532 44.4305 55.0432 44.4305 54.5332V52.9832C44.4305 52.4732 44.8405 52.0632 45.3505 52.0632H46.9005C47.4105 52.0632 47.8205 52.4732 47.8205 52.9832V54.5332C47.8305 55.0332 47.4105 55.4532 46.9005 55.4532Z" fill="#EBEBEB"/>
<path d="M52.1205 55.4532H50.5705C50.0605 55.4532 49.6505 55.0432 49.6505 54.5332V52.9832C49.6505 52.4732 50.0605 52.0632 50.5705 52.0632H52.1205C52.6305 52.0632 53.0405 52.4732 53.0405 52.9832V54.5332C53.0505 55.0332 52.6305 55.4532 52.1205 55.4532Z" fill="#EBEBEB"/>
<path d="M26.3105 60.6134H20.0905C19.5805 60.6134 19.1705 60.2034 19.1705 59.6934V58.1434C19.1705 57.6334 19.5805 57.2234 20.0905 57.2234H26.3105C26.8205 57.2234 27.2305 57.6334 27.2305 58.1434V59.6934C27.2405 60.2034 26.8205 60.6134 26.3105 60.6134Z" fill="#EBEBEB"/>
<path d="M57.3705 60.6134H29.8105C29.3005 60.6134 28.8905 60.2034 28.8905 59.6934V58.1434C28.8905 57.6334 29.3005 57.2234 29.8105 57.2234H57.3705C57.8805 57.2234 58.2905 57.6334 58.2905 58.1434V59.6934C58.2905 60.2034 57.8805 60.6134 57.3705 60.6134Z" fill="#EBEBEB"/>
<path d="M67.1505 60.6134H60.9305C60.4205 60.6134 60.0105 60.2034 60.0105 59.6934V58.1434C60.0105 57.6334 60.4205 57.2234 60.9305 57.2234H67.1505C67.6605 57.2234 68.0705 57.6334 68.0705 58.1434V59.6934C68.0805 60.2034 67.6605 60.6134 67.1505 60.6134Z" fill="#EBEBEB"/>
<path d="M57.3405 55.4532H55.7905C55.2805 55.4532 54.8705 55.0432 54.8705 54.5332V52.9832C54.8705 52.4732 55.2805 52.0632 55.7905 52.0632H57.3405C57.8505 52.0632 58.2605 52.4732 58.2605 52.9832V54.5332C58.2705 55.0332 57.8505 55.4532 57.3405 55.4532Z" fill="#EBEBEB"/>
<path d="M67.1805 55.4532H60.9205C60.4105 55.4532 60.0005 55.0432 60.0005 54.5332V52.9832C60.0005 52.4732 60.4105 52.0632 60.9205 52.0632H67.1805C67.6905 52.0632 68.1005 52.4732 68.1005 52.9832V54.5332C68.1105 55.0332 67.6905 55.4532 67.1805 55.4532Z" fill="#EBEBEB"/>
<path d="M67.0805 50.2633H63.9505C63.3605 50.2633 62.8905 49.7933 62.8905 49.2033V47.9233C62.8905 47.3333 63.3605 46.8633 63.9505 46.8633H67.0805C67.6705 46.8633 68.1405 47.3333 68.1405 47.9233V49.2033C68.1405 49.7833 67.6605 50.2633 67.0805 50.2633Z" fill="#EBEBEB"/>
<path d="M61.8805 45.0133H60.6005C60.0105 45.0133 59.5405 44.5433 59.5405 43.9533V42.6733C59.5405 42.0833 60.0105 41.6133 60.6005 41.6133H61.8805C62.4705 41.6133 62.9405 42.0833 62.9405 42.6733V43.9533C62.9405 44.5433 62.4705 45.0133 61.8805 45.0133Z" fill="#EBEBEB"/>
<path d="M66.8205 45.0133H65.5405C64.9505 45.0133 64.4805 44.5433 64.4805 43.9533V42.6733C64.4805 42.0833 64.9505 41.6133 65.5405 41.6133H66.8205C67.4105 41.6133 67.8805 42.0833 67.8805 42.6733V43.9533C67.8805 44.5433 67.4005 45.0133 66.8205 45.0133Z" fill="#EBEBEB"/>
<path d="M71.3705 37.6533H15.9705C15.5205 37.6533 15.1505 38.0233 15.1505 38.4733V63.9133C15.1505 64.3633 15.5205 64.7333 15.9705 64.7333H71.3705C71.8205 64.7333 72.1905 64.3633 72.1905 63.9133V38.4633C72.1905 38.0133 71.8205 37.6533 71.3705 37.6533ZM71.4105 63.4733C71.4105 63.7433 71.1905 63.9533 70.9305 63.9533H16.4305C16.1605 63.9533 15.9505 63.7333 15.9505 63.4733V38.9033C15.9505 38.6333 16.1705 38.4233 16.4305 38.4233H70.9305C71.2005 38.4233 71.4105 38.6433 71.4105 38.9033V63.4733Z" fill="#EBEBEB"/>
<path d="M83.2905 59.2832C83.2505 59.2832 83.2205 59.2732 83.1805 59.2632C83.1005 59.2332 83.0405 59.1732 83.0105 59.0932L81.2605 54.8732L77.7805 58.3832C77.6905 58.4732 77.5705 58.4932 77.4505 58.4532C77.3405 58.4032 77.2605 58.3032 77.2605 58.1732L77.2505 41.4232C77.2505 41.3332 77.3105 41.2532 77.3905 41.2132C77.4705 41.1832 77.5705 41.1932 77.6405 41.2632L89.1805 52.8032C89.2705 52.8932 89.2905 53.0132 89.2505 53.1332C89.2005 53.2532 89.1005 53.3232 88.9705 53.3232H84.2505L86.0505 57.6432C86.1105 57.7932 86.0505 57.9632 85.9005 58.0332L83.4305 59.2732C83.3905 59.2732 83.3405 59.2832 83.2905 59.2832Z" fill="#EBEBEB"/>
<defs>
<linearGradient id="paint0_linear" x1="6.52378" y1="-12.1197" x2="83.9096" y2="97.581" gradientUnits="userSpaceOnUse">
<stop stop-color="#97C3F9"/>
<stop offset="0.4975" stop-color="#388CF4"/>
<stop offset="1" stop-color="#2C7CEF"/>
</linearGradient>
<linearGradient id="paint1_linear" x1="43.8002" y1="4.89239" x2="57.4065" y2="89.1758" gradientUnits="userSpaceOnUse">
<stop offset="0.0829" stop-color="#1152D4"/>
<stop offset="0.4296" stop-color="#0D40B5"/>
<stop offset="0.706" stop-color="#0D3FB1"/>
<stop offset="1" stop-color="#092D7F"/>
</linearGradient>
</defs>
</svg>
