<svg width="103" height="103" viewBox="0 0 103 103" fill="none" xmlns="http://www.w3.org/2000/svg">
<path d="M51.1704 97.9056C25.3204 97.9056 4.36035 76.9556 4.36035 51.0956C4.36035 25.2356 25.3204 4.28564 51.1704 4.28564C77.0204 4.28564 97.9803 25.2456 97.9803 51.0956C97.9803 76.9456 77.0204 97.9056 51.1704 97.9056Z" fill="url(#paint0_linear)"/>
<path fill-rule="evenodd" clip-rule="evenodd" d="M97.0703 51.0957C97.0703 76.4457 76.5203 96.9957 51.1703 96.9957C25.8203 96.9957 5.27027 76.4457 5.27027 51.0957C5.27027 25.7457 25.8203 5.19569 51.1703 5.19569C76.5203 5.19569 97.0703 25.7457 97.0703 51.0957ZM51.1703 1.45569C78.5903 1.45569 100.81 23.6757 100.81 51.0957C100.81 78.5157 78.5803 100.736 51.1703 100.736C23.7503 100.736 1.53027 78.5057 1.53027 51.0957C1.53027 23.6757 23.7503 1.45569 51.1703 1.45569Z" fill="#F2F1F0"/>
<path fill-rule="evenodd" clip-rule="evenodd" d="M94.2603 51.0957C94.2603 74.8957 74.9703 94.1857 51.1703 94.1857C27.3703 94.1857 8.08033 74.8957 8.08033 51.0957C8.08033 27.2957 27.3703 8.00575 51.1703 8.00575C74.9703 8.00575 94.2603 27.2957 94.2603 51.0957ZM51.1703 4.26575C77.0303 4.26575 98.0003 25.2357 98.0003 51.0957C98.0003 76.9557 77.0303 97.9258 51.1703 97.9258C25.3103 97.9258 4.34033 76.9557 4.34033 51.0957C4.34033 25.2357 25.3003 4.26575 51.1703 4.26575Z" fill="url(#paint1_linear)"/>
<path opacity="0.15" d="M67.0705 85.7957H35.2905V86.4357H67.0705V85.7957Z" fill="#1F1D20"/>
<path d="M81.0806 26.6757H21.0806C20.6706 26.6757 20.3506 27.0057 20.3506 27.4057V68.3157C20.3506 68.7257 20.6806 69.0457 21.0806 69.0457H81.0606C81.4706 69.0457 81.7906 68.7157 81.7906 68.3157V27.4057C81.8106 27.0057 81.4706 26.6757 81.0806 26.6757Z" fill="url(#paint2_linear)"/>
<path d="M63.9601 82.3657C57.6801 81.3457 57.4201 76.6457 57.4201 69.0857H44.9501C44.9501 76.6757 44.7401 81.3557 38.4401 82.3657C36.6501 82.5757 35.2801 84.1457 35.2901 86.0257H67.0701C67.1201 84.1257 65.7701 82.5457 63.9601 82.3657Z" fill="url(#paint3_linear)"/>
<path opacity="0.15" d="M26.6602 63.2857H75.4902C75.9902 63.2857 76.4002 62.8757 76.4002 62.3757V36.3357C76.4002 35.3157 75.5702 34.4857 74.5502 34.4857H27.4102C26.4902 34.4857 25.7402 35.2357 25.7402 36.1557V62.3757C25.7402 62.8757 26.1502 63.2857 26.6602 63.2857Z" fill="#1F1D20"/>
<path d="M26.6602 62.2857H75.4902C75.9902 62.2857 76.4002 61.8757 76.4002 61.3757V35.3357C76.4002 34.3157 75.5702 33.4857 74.5502 33.4857H27.4102C26.4902 33.4857 25.7402 34.2357 25.7402 35.1557V61.3757C25.7402 61.8757 26.1502 62.2857 26.6602 62.2857Z" fill="#EBEBEB"/>
<path d="M25.7305 36.6458H76.4105V33.6458C76.4105 33.3758 76.1905 33.1558 75.9205 33.1558H26.2205C25.9505 33.1558 25.7305 33.3758 25.7305 33.6458V36.6458Z" fill="#092E4C"/>
<path d="M28.4105 35.8157C28.8805 35.8157 29.2605 35.4357 29.2605 34.9657C29.2605 34.4957 28.8705 34.1157 28.4105 34.1157C27.9405 34.1157 27.5605 34.4957 27.5605 34.9657C27.5605 35.4457 27.9305 35.8157 28.4105 35.8157Z" fill="#32B0E7"/>
<path opacity="0.15" d="M48.9505 45.7756H34.8905C34.5205 45.7756 34.2305 46.0756 34.2305 46.4356V51.5956C34.2305 51.9656 34.5305 52.2556 34.8905 52.2556H48.9505C49.3205 52.2556 49.6105 51.9556 49.6105 51.5956V46.4356C49.6105 46.0756 49.3205 45.7756 48.9505 45.7756Z" fill="#1F1D20"/>
<path d="M48.9505 45.2957H34.8905C34.5205 45.2957 34.2305 45.5957 34.2305 45.9557V51.1157C34.2305 51.4857 34.5305 51.7757 34.8905 51.7757H48.9505C49.3205 51.7757 49.6105 51.4757 49.6105 51.1157V45.9557C49.6105 45.5857 49.3205 45.2957 48.9505 45.2957Z" fill="url(#paint4_linear)"/>
<path opacity="0.15" d="M66.7205 45.7756H52.6605C52.2905 45.7756 52.0005 46.0756 52.0005 46.4356V51.5956C52.0005 51.9656 52.3005 52.2556 52.6605 52.2556H66.7205C67.0905 52.2556 67.3805 51.9556 67.3805 51.5956V46.4356C67.3805 46.0756 67.0905 45.7756 66.7205 45.7756Z" fill="#1F1D20"/>
<path d="M66.7205 45.2957H52.6605C52.2905 45.2957 52.0005 45.5957 52.0005 45.9557V51.1157C52.0005 51.4857 52.3005 51.7757 52.6605 51.7757H66.7205C67.0905 51.7757 67.3805 51.4757 67.3805 51.1157V45.9557C67.3805 45.5857 67.0905 45.2957 66.7205 45.2957Z" fill="url(#paint5_linear)"/>
<path d="M60.9504 47.9356C60.9804 47.9756 67.1404 54.2056 67.1404 54.2056L64.2603 54.2556L65.4104 57.1256L64.2004 57.7956L63.1104 55.2056L60.7804 57.0356L60.6104 47.8956L60.9504 47.9356Z" fill="#092E4C"/>
<path d="M67.5803 54.3057L60.6803 47.4057C60.6303 47.3557 60.5503 47.3957 60.5503 47.4557L60.5603 57.4657C60.5603 57.5757 60.6903 57.6257 60.7703 57.5457L62.9103 55.3857L63.9903 57.9857C64.0203 58.0557 64.0903 58.0757 64.1603 58.0457L65.6403 57.3057C65.7003 57.2757 65.7203 57.2057 65.7003 57.1457L64.5903 54.4857H67.5003C67.6003 54.5057 67.6503 54.3757 67.5803 54.3057ZM65.0903 57.0457L64.2803 57.4457L63.1503 54.6357C63.1303 54.5757 63.0503 54.5657 63.0103 54.6057L61.0703 56.5357L61.0603 48.4257L66.6003 54.0157L63.9803 54.0457C63.9203 54.0457 63.8803 54.1057 63.9003 54.1657L65.0903 57.0457Z" fill="white"/>
<path d="M64.1002 58.1357C64.0802 58.1357 64.0602 58.1357 64.0402 58.1257C63.9902 58.1057 63.9502 58.0757 63.9402 58.0257L62.8902 55.5057L60.8102 57.5957C60.7602 57.6457 60.6802 57.6657 60.6102 57.6357C60.5402 57.6057 60.5002 57.5457 60.5002 57.4657L60.4902 47.4557C60.4902 47.3957 60.5202 47.3557 60.5702 47.3257C60.6202 47.3057 60.6802 47.3157 60.7202 47.3557L67.6202 54.2557C67.6702 54.3057 67.6902 54.3857 67.6602 54.4557C67.6302 54.5257 67.5702 54.5657 67.4902 54.5657H64.6702L65.7502 57.1457C65.7902 57.2357 65.7502 57.3357 65.6602 57.3757L64.1802 58.1157C64.1502 58.1257 64.1302 58.1357 64.1002 58.1357ZM62.9202 55.2857L64.0402 57.9757C64.0502 57.9957 64.0602 58.0057 64.0802 58.0057C64.1002 58.0157 64.1102 58.0057 64.1302 58.0057L65.6102 57.2657C65.6402 57.2557 65.6502 57.2157 65.6402 57.1857L64.5002 54.4457H67.5002C67.5402 54.4457 67.5502 54.4157 67.5602 54.4057C67.5602 54.3957 67.5702 54.3657 67.5502 54.3357L60.6502 47.4357C60.6402 47.4257 60.6402 47.4357 60.6302 47.4357C60.6302 47.4357 60.6202 47.4457 60.6202 47.4557L60.6302 57.4657C60.6302 57.5057 60.6602 57.5157 60.6702 57.5257C60.6802 57.5257 60.7102 57.5357 60.7402 57.5157L62.9202 55.2857Z" fill="white"/>
<defs>
<linearGradient id="paint0_linear" x1="6.39335" y1="-12.3771" x2="83.7791" y2="97.3236" gradientUnits="userSpaceOnUse">
<stop stop-color="#97C3F9"/>
<stop offset="0.4975" stop-color="#388CF4"/>
<stop offset="1" stop-color="#2C7CEF"/>
</linearGradient>
<linearGradient id="paint1_linear" x1="43.6698" y1="4.63535" x2="57.2761" y2="88.9186" gradientUnits="userSpaceOnUse">
<stop offset="0.0829" stop-color="#1152D4"/>
<stop offset="0.4296" stop-color="#0D40B5"/>
<stop offset="0.706" stop-color="#0D3FB1"/>
<stop offset="1" stop-color="#092D7F"/>
</linearGradient>
<linearGradient id="paint2_linear" x1="50.8108" y1="29.6553" x2="51.3777" y2="68.915" gradientUnits="userSpaceOnUse">
<stop stop-color="#6A6A6A"/>
<stop offset="1" stop-color="#343333"/>
</linearGradient>
<linearGradient id="paint3_linear" x1="51.1809" y1="86.0303" x2="51.1809" y2="69.0903" gradientUnits="userSpaceOnUse">
<stop offset="0.15" stop-color="#CCCCCC"/>
<stop offset="1" stop-color="#707070"/>
</linearGradient>
<linearGradient id="paint4_linear" x1="41.4546" y1="45.2612" x2="42.9695" y2="55.8657" gradientUnits="userSpaceOnUse">
<stop offset="0.15" stop-color="#CCCCCC"/>
<stop offset="1" stop-color="#707070"/>
</linearGradient>
<linearGradient id="paint5_linear" x1="59.2249" y1="45.2612" x2="60.7398" y2="55.8657" gradientUnits="userSpaceOnUse">
<stop offset="0.0829" stop-color="#1152D4"/>
<stop offset="0.4296" stop-color="#0D40B5"/>
<stop offset="0.706" stop-color="#0D3FB1"/>
<stop offset="1" stop-color="#092D7F"/>
</linearGradient>
</defs>
</svg>
