<svg width="181" height="191" viewBox="0 0 181 191" fill="none" xmlns="http://www.w3.org/2000/svg">
<path d="M90.8403 189.576C93.9003 189.576 96.9103 188.726 99.5703 187.106L161.54 149.446C167.08 146.076 170.51 139.746 170.51 132.906V58.1965C170.51 51.3765 167.08 45.0365 161.54 41.6565L99.5703 3.99648C94.2403 0.75648 87.4203 0.77648 82.1203 3.99648L20.1503 41.6765C14.6103 45.0465 11.1603 51.3765 11.1603 58.2165V132.916C11.1603 138.676 13.6103 144.096 17.7103 147.666V147.696L82.1203 187.126C84.7603 188.726 87.7803 189.576 90.8403 189.576ZM91.4903 8.52648C93.4403 8.52648 95.9203 9.73648 97.6303 10.7865L158.39 47.9765C162.14 50.2565 164.26 56.8565 164.26 61.6065L163.63 132.906C163.63 137.656 160.43 141.926 156.68 144.206L96.2803 180.586C92.8503 182.676 90.0603 182.676 86.6203 180.586L25.4103 144.116C21.6603 141.836 18.6403 137.636 18.6403 132.906V59.2665C18.6403 54.5265 21.3703 49.6365 25.1403 47.3465L85.7203 10.7865C87.4203 9.74648 89.5403 8.52648 91.4903 8.52648Z" fill="#F2F1F0"/>
<path fill-rule="evenodd" clip-rule="evenodd" d="M98.7403 12.1064C96.2903 10.6064 93.5703 9.85645 90.8403 9.85645C88.1103 9.85645 85.3903 10.6164 82.9403 12.1064L26.8103 46.4364C21.7903 49.5064 18.6803 55.2564 18.6803 61.5064V129.606C18.6803 135.836 21.7803 141.606 26.8103 144.676L82.9403 179.006C85.3903 180.506 88.1103 181.256 90.8403 181.256C93.5703 181.256 96.2903 180.516 98.7403 179.006L154.87 144.676C159.89 141.606 163 135.836 163 129.606V61.5064C163 55.2764 159.9 49.5264 154.87 46.4364L98.7403 12.1064Z" fill="url(#paint0_linear)"/>
<path fill-rule="evenodd" clip-rule="evenodd" d="M90.8403 11.3264C92.5203 11.3264 94.4103 12.1964 96.4703 13.4464L154.94 48.9864C158.59 51.2064 161 55.4764 161 60.3064V130.786C161 135.606 158.59 139.886 154.94 142.106L96.4803 177.646C94.5203 178.836 92.6003 179.586 90.8503 179.586C89.1003 179.586 87.1803 178.836 85.2203 177.646L26.7403 142.116C24.7303 140.886 23.2803 139.686 22.3003 138.076C21.3203 136.476 20.6803 134.256 20.6803 130.796V60.3164C20.6803 55.4864 23.0903 51.2164 26.7403 48.9964L85.2003 13.4564C87.2903 12.2064 89.1503 11.3264 90.8403 11.3264ZM98.5503 181.076L157.01 145.536C161.93 142.546 164.99 136.926 164.99 130.796V60.3164C164.99 54.1864 161.93 48.5664 157.01 45.5764L98.5503 10.0364C96.4403 8.75642 93.7303 7.32642 90.8403 7.32642C87.9403 7.32642 85.2303 8.76642 83.1403 10.0264H83.1303L24.6603 45.5764C19.7403 48.5664 16.6803 54.1864 16.6803 60.3164V130.796C16.6803 134.756 17.4203 137.746 18.8803 140.156C20.3403 142.556 22.4003 144.156 24.6603 145.526L83.1203 181.066C85.3403 182.416 88.0103 183.596 90.8303 183.596C93.6503 183.596 96.3303 182.426 98.5503 181.076Z" fill="url(#paint1_linear)"/>
<path d="M90.2703 60.8863C85.4303 60.8863 81.4803 56.9163 81.4803 52.0463C81.4803 47.1763 85.4303 43.2063 90.2703 43.2063C95.1103 43.2063 99.0603 47.1763 99.0603 52.0463C99.0603 56.9163 95.1103 60.8863 90.2703 60.8863ZM90.2703 46.6963C87.3503 46.6963 84.9703 49.0863 84.9703 52.0463C84.9703 55.0063 87.3503 57.3963 90.2703 57.3963C93.1903 57.3963 95.5704 55.0063 95.5704 52.0463C95.5704 49.0863 93.1903 46.6963 90.2703 46.6963Z" fill="url(#paint2_linear)"/>
<path d="M112.77 144.946H68.9003L64.2903 153.546L61.2103 151.886L73.9903 128.096L77.0503 129.776L70.7803 141.456H110.91L104.64 129.776L107.72 128.116L120.5 151.906L117.42 153.566L112.77 144.946Z" fill="url(#paint3_linear)"/>
<path d="M138.39 61.4963H43.3203V125.396H138.39V61.4963V61.4963Z" fill="url(#paint4_linear)"/>
<path d="M42.0803 52.0264H139.6C141.52 52.0264 143.1 53.5964 143.1 55.5264V59.1764C143.1 61.0964 141.53 62.6764 139.6 62.6764H42.0803C40.1603 62.6764 38.5803 61.1064 38.5803 59.1764V55.5264C38.5903 53.5964 40.1603 52.0264 42.0803 52.0264Z" fill="url(#paint5_linear)"/>
<path d="M41.5403 124.056H140.12C141.75 124.056 143.07 125.386 143.07 127.006C143.07 128.636 141.74 129.956 140.12 129.956H41.5403C39.9103 129.976 38.5903 128.646 38.5903 127.016C38.5903 125.386 39.9103 124.056 41.5403 124.056Z" fill="url(#paint6_linear)"/>
<path d="M138.39 61.4963H43.3203V125.396H138.39V61.4963V61.4963Z" fill="url(#paint7_linear)"/>
<path d="M42.0803 52.0264H139.6C141.52 52.0264 143.1 53.5964 143.1 55.5264V59.1764C143.1 61.0964 141.53 62.6764 139.6 62.6764H42.0803C40.1603 62.6764 38.5803 61.1064 38.5803 59.1764V55.5264C38.5903 53.5964 40.1603 52.0264 42.0803 52.0264Z" fill="url(#paint8_linear)"/>
<path d="M41.5403 124.056H140.12C141.75 124.056 143.07 125.386 143.07 127.006C143.07 128.636 141.74 129.956 140.12 129.956H41.5403C39.9103 129.976 38.5903 128.646 38.5903 127.016C38.5903 125.386 39.9103 124.056 41.5403 124.056Z" fill="url(#paint9_linear)"/>
<path opacity="0.2" d="M116.73 93.5061L109.27 85.1061L109.25 85.1361L100.71 75.5162V75.3062H70.3603C68.5603 75.3062 67.6003 77.4461 68.8103 78.7861L83.1903 94.7962L68.7003 110.976C67.6203 112.186 68.4703 114.096 70.1003 114.096H83.4303H99.9303C100.29 114.096 100.62 113.946 100.86 113.686L116.71 96.4161C117.46 95.5961 117.48 94.3461 116.73 93.5061Z" fill="#1F1D21"/>
<path d="M100.72 84.9962L85.1603 94.0762L68.8103 75.8662C67.6003 74.5262 68.5603 72.3862 70.3603 72.3862H100.71L100.72 84.9962Z" fill="url(#paint10_linear)"/>
<path d="M109.35 82.3163L100.59 72.4463L68.7003 108.056C67.6203 109.266 68.4703 111.176 70.1003 111.176H83.4303L109.35 82.3163Z" fill="url(#paint11_linear)"/>
<path d="M116.73 90.5863L109.27 82.1863L82.9603 111.186H99.9203C100.28 111.186 100.61 111.036 100.85 110.776L116.7 93.5063C117.46 92.6763 117.48 91.4263 116.73 90.5863Z" fill="url(#paint12_linear)"/>
<defs>
<linearGradient id="paint0_linear" x1="5.0936" y1="13.0177" x2="217.503" y2="217.49" gradientUnits="userSpaceOnUse">
<stop stop-color="#97C3F9"/>
<stop offset="0.4975" stop-color="#388CF4"/>
<stop offset="1" stop-color="#2C7CEF"/>
</linearGradient>
<linearGradient id="paint1_linear" x1="28.4975" y1="11.6039" x2="149.064" y2="174.502" gradientUnits="userSpaceOnUse">
<stop offset="0.0829" stop-color="#1152D4"/>
<stop offset="0.4296" stop-color="#0D40B5"/>
<stop offset="0.706" stop-color="#0D3FB1"/>
<stop offset="1" stop-color="#092D7F"/>
</linearGradient>
<linearGradient id="paint2_linear" x1="77.6206" y1="25.9401" x2="124.69" y2="123.052" gradientUnits="userSpaceOnUse">
<stop stop-color="#007ED8"/>
<stop offset="0.7065" stop-color="#002D4C"/>
</linearGradient>
<linearGradient id="paint3_linear" x1="101.174" y1="278.73" x2="81.3553" y2="35.4541" gradientUnits="userSpaceOnUse">
<stop stop-color="#007ED8"/>
<stop offset="0.7065" stop-color="#002D4C"/>
</linearGradient>
<linearGradient id="paint4_linear" x1="90.8576" y1="125.402" x2="90.8576" y2="61.4982" gradientUnits="userSpaceOnUse">
<stop stop-color="#D2EBFF"/>
<stop offset="1" stop-color="#F0FFFD"/>
</linearGradient>
<linearGradient id="paint5_linear" x1="90.8403" y1="52.0486" x2="90.8403" y2="62.6789" gradientUnits="userSpaceOnUse">
<stop stop-color="#0099BE"/>
<stop offset="1" stop-color="#006E97"/>
</linearGradient>
<linearGradient id="paint6_linear" x1="90.8315" y1="124.07" x2="90.8315" y2="129.979" gradientUnits="userSpaceOnUse">
<stop stop-color="#0099BE"/>
<stop offset="1" stop-color="#006E97"/>
</linearGradient>
<linearGradient id="paint7_linear" x1="90.8576" y1="125.402" x2="90.8576" y2="61.4982" gradientUnits="userSpaceOnUse">
<stop stop-color="#D2EBFF"/>
<stop offset="1" stop-color="#F0FFFD"/>
</linearGradient>
<linearGradient id="paint8_linear" x1="90.8403" y1="52.0486" x2="90.8403" y2="62.6789" gradientUnits="userSpaceOnUse">
<stop stop-color="#007ED8"/>
<stop offset="0.7065" stop-color="#002D4C"/>
</linearGradient>
<linearGradient id="paint9_linear" x1="90.8315" y1="124.07" x2="90.8315" y2="129.979" gradientUnits="userSpaceOnUse">
<stop stop-color="#007ED8"/>
<stop offset="0.7065" stop-color="#002D4C"/>
</linearGradient>
<linearGradient id="paint10_linear" x1="70.3087" y1="61.937" x2="105.69" y2="95.2266" gradientUnits="userSpaceOnUse">
<stop offset="0.4598" stop-color="#1152D4"/>
<stop offset="0.6156" stop-color="#0D3FB3"/>
</linearGradient>
<linearGradient id="paint11_linear" x1="68.2157" y1="91.8156" x2="109.347" y2="91.8156" gradientUnits="userSpaceOnUse">
<stop stop-color="#388CF4"/>
<stop offset="1" stop-color="#2C7CEF"/>
</linearGradient>
<linearGradient id="paint12_linear" x1="82.9648" y1="96.6842" x2="117.283" y2="96.6842" gradientUnits="userSpaceOnUse">
<stop stop-color="#76C0FD"/>
<stop offset="1" stop-color="#63B2FB"/>
</linearGradient>
</defs>
</svg>
