<svg width="103" height="103" viewBox="0 0 103 103" fill="none" xmlns="http://www.w3.org/2000/svg">
<path d="M51.3005 98.1632C25.4505 98.1632 4.49048 77.2132 4.49048 51.3532C4.49048 25.4932 25.4505 4.54321 51.3005 4.54321C77.1505 4.54321 98.1105 25.5032 98.1105 51.3532C98.1105 77.2032 77.1505 98.1632 51.3005 98.1632Z" fill="url(#paint0_linear)"/>
<path fill-rule="evenodd" clip-rule="evenodd" d="M97.2005 51.3534C97.2005 76.7034 76.6505 97.2534 51.3005 97.2534C25.9505 97.2534 5.40052 76.7034 5.40052 51.3534C5.40052 26.0034 25.9505 5.45338 51.3005 5.45338C76.6505 5.45338 97.2005 26.0034 97.2005 51.3534ZM51.3005 1.71338C78.7205 1.71338 100.941 23.9334 100.941 51.3534C100.941 78.7734 78.7105 100.993 51.3005 100.993C23.8805 100.993 1.66052 78.7634 1.66052 51.3534C1.66052 23.9334 23.8805 1.71338 51.3005 1.71338Z" fill="#F2F1F0"/>
<path fill-rule="evenodd" clip-rule="evenodd" d="M94.3906 51.3532C94.3906 75.1532 75.1006 94.4432 51.3006 94.4432C27.5006 94.4432 8.21058 75.1532 8.21058 51.3532C8.21058 27.5532 27.5006 8.26319 51.3006 8.26319C75.1006 8.26319 94.3906 27.5532 94.3906 51.3532ZM51.3006 4.52319C77.1606 4.52319 98.1306 25.4932 98.1306 51.3532C98.1306 77.2132 77.1606 98.1832 51.3006 98.1832C25.4406 98.1832 4.47058 77.2132 4.47058 51.3532C4.47058 25.4932 25.4306 4.52319 51.3006 4.52319Z" fill="url(#paint1_linear)"/>
<path opacity="0.15" d="M22.0005 79.0834H80.2405C81.8705 79.0834 83.2005 77.7633 83.2005 76.1233V29.6833H19.0405V76.1233C19.0405 77.7633 20.3705 79.0834 22.0005 79.0834Z" fill="#1F1D20"/>
<path d="M20.2705 76.7733H81.9805C82.6505 76.7733 83.2005 76.2233 83.2005 75.5533V27.3733H19.0405V75.5533C19.0405 76.2233 19.5905 76.7733 20.2705 76.7733Z" fill="#EBEBEB"/>
<path d="M19.0405 32.3133H83.2005V26.5533C83.2005 26.0333 82.7805 25.6233 82.2705 25.6233H19.9805C19.4605 25.6233 19.0505 26.0433 19.0505 26.5533V32.3133H19.0405Z" fill="url(#paint2_linear)"/>
<path d="M23.9806 30.7334C24.8806 30.7334 25.6106 30.0134 25.6106 29.1034C25.6106 28.1934 24.8706 27.4834 23.9806 27.4834C23.0806 27.4834 22.3506 28.2034 22.3506 29.1134C22.3506 30.0234 23.0606 30.7334 23.9806 30.7334Z" fill="url(#paint3_linear)"/>
<path d="M36.5306 60.1534V44.5634H39.8706C40.8006 44.5634 41.5606 45.3234 41.5606 46.2534V46.7834H43.8506V42.2734H25.8606V46.7834H28.1306V46.2534C28.1306 45.3234 28.8906 44.5634 29.8206 44.5634H33.1606V60.1534H31.5106V62.4234H38.2606V60.1534H36.5306Z" fill="url(#paint4_linear)"/>
<path opacity="0.15" d="M48.4506 65.8731H73.5406V44.4731H48.4506V65.8731Z" fill="#1F1D20"/>
<path d="M48.4506 64.8131H73.5406V43.4131H48.4506V64.8131Z" fill="url(#paint5_linear)"/>
<path d="M48.4506 43.7831H73.5406V40.7031H48.4506V43.7831Z" fill="url(#paint6_linear)"/>
<path d="M55.2506 57.4231H52.2106V60.4631H55.2506V57.4231Z" fill="url(#paint7_linear)"/>
<path d="M59.8405 57.4231H56.8005V60.4631H59.8405V57.4231Z" fill="url(#paint8_linear)"/>
<path d="M64.4106 57.4231H61.3706V60.4631H64.4106V57.4231Z" fill="url(#paint9_linear)"/>
<path d="M68.9806 57.4231H65.9406V60.4631H68.9806V57.4231Z" fill="url(#paint10_linear)"/>
<path d="M55.2506 52.853H52.2106V55.893H55.2506V52.853Z" fill="url(#paint11_linear)"/>
<path d="M59.8405 52.853H56.8005V55.893H59.8405V52.853Z" fill="url(#paint12_linear)"/>
<path d="M64.4106 52.853H61.3706V55.893H64.4106V52.853Z" fill="url(#paint13_linear)"/>
<path d="M68.9806 52.853H65.9406V55.893H68.9806V52.853Z" fill="url(#paint14_linear)"/>
<path d="M55.2506 48.3132H52.2106V51.3532H55.2506V48.3132Z" fill="url(#paint15_linear)"/>
<path d="M59.8405 48.3132H56.8005V51.3532H59.8405V48.3132Z" fill="url(#paint16_linear)"/>
<path d="M64.4106 48.3132H61.3706V51.3532H64.4106V48.3132Z" fill="url(#paint17_linear)"/>
<path d="M68.9806 48.3132H65.9406V51.3532H68.9806V48.3132Z" fill="url(#paint18_linear)"/>
<path opacity="0.3" d="M71.0905 56.563C67.4705 56.563 64.5405 59.493 64.5405 63.113C64.5405 66.723 67.4705 69.663 71.0905 69.663C74.7005 69.663 77.6405 66.733 77.6405 63.113C77.6305 59.503 74.7005 56.563 71.0905 56.563Z" fill="#1F1D20"/>
<path d="M71.0906 68.573C74.3506 68.573 76.9906 65.933 76.9906 62.673C76.9906 59.413 74.3506 56.7729 71.0906 56.7729C67.8306 56.7729 65.1906 59.413 65.1906 62.673C65.1906 65.933 67.8306 68.573 71.0906 68.573Z" fill="white"/>
<path d="M71.7105 57.4531H70.5005V58.3331H71.7105V57.4531Z" fill="#C8C8C8"/>
<path d="M71.7105 66.793H70.5005V67.673H71.7105V66.793Z" fill="#C8C8C8"/>
<path d="M76.0405 63.1731V61.9631H75.1605V63.1731H76.0405Z" fill="#C8C8C8"/>
<path d="M66.8705 63.1731V61.9631H66.0005V63.1731H66.8705Z" fill="#C8C8C8"/>
<path d="M71.0905 56.113C67.4705 56.113 64.5405 59.043 64.5405 62.663C64.5405 66.273 67.4705 69.213 71.0905 69.213C74.7005 69.213 77.6405 66.283 77.6405 62.663C77.6305 59.053 74.7005 56.113 71.0905 56.113ZM71.0905 68.213C68.0305 68.213 65.5405 65.733 65.5405 62.663C65.5405 59.603 68.0205 57.113 71.0905 57.113C74.1605 57.113 76.6405 59.593 76.6405 62.663C76.6405 65.723 74.1505 68.213 71.0905 68.213Z" fill="#C8C8C8"/>
<path d="M71.0906 63.2331C71.4406 63.2331 71.7306 62.9431 71.7306 62.5931C71.7306 62.2431 71.4406 61.9531 71.0906 61.9531C70.7406 61.9531 70.4506 62.2431 70.4506 62.5931C70.4506 62.9431 70.7406 63.2331 71.0906 63.2331Z" fill="#F57800"/>
<path d="M70.9605 62.8331C70.9605 62.8331 68.1605 62.7431 67.8005 62.7331C67.5005 62.7231 67.4205 62.6731 67.4305 62.5231C67.4405 62.3531 67.5005 62.3031 67.8005 62.2831C68.0405 62.2631 70.9605 62.1731 70.9605 62.1731V62.8331Z" fill="#F57800"/>
<path d="M70.8805 62.3829C70.8805 62.3829 70.9605 58.793 70.9705 58.323C70.9805 57.933 71.0205 57.833 71.1505 57.843C71.3005 57.853 71.3405 57.933 71.3605 58.323C71.3705 58.623 71.4605 62.3829 71.4605 62.3829H70.8805Z" fill="#F57800"/>
<defs>
<linearGradient id="paint0_linear" x1="6.52378" y1="-12.1197" x2="83.9096" y2="97.581" gradientUnits="userSpaceOnUse">
<stop stop-color="#97C3F9"/>
<stop offset="0.4975" stop-color="#388CF4"/>
<stop offset="1" stop-color="#2C7CEF"/>
</linearGradient>
<linearGradient id="paint1_linear" x1="43.8002" y1="4.89239" x2="57.4065" y2="89.1758" gradientUnits="userSpaceOnUse">
<stop offset="0.0829" stop-color="#1152D4"/>
<stop offset="0.4296" stop-color="#0D40B5"/>
<stop offset="0.706" stop-color="#0D3FB1"/>
<stop offset="1" stop-color="#092D7F"/>
</linearGradient>
<linearGradient id="paint2_linear" x1="34.3994" y1="20.6452" x2="119.279" y2="63.8347" gradientUnits="userSpaceOnUse">
<stop offset="0.0829" stop-color="#1152D4"/>
<stop offset="0.4296" stop-color="#0D40B5"/>
<stop offset="0.706" stop-color="#0D3FB1"/>
<stop offset="1" stop-color="#092D7F"/>
</linearGradient>
<linearGradient id="paint3_linear" x1="22.3491" y1="29.1114" x2="25.6118" y2="29.1114" gradientUnits="userSpaceOnUse">
<stop stop-color="#76C0FD"/>
<stop offset="1" stop-color="#63B2FB"/>
</linearGradient>
<linearGradient id="paint4_linear" x1="22.0928" y1="27.4424" x2="75.7797" y2="113.222" gradientUnits="userSpaceOnUse">
<stop offset="0.0829" stop-color="#1152D4"/>
<stop offset="0.4296" stop-color="#0D40B5"/>
<stop offset="0.706" stop-color="#0D3FB1"/>
<stop offset="1" stop-color="#092D7F"/>
</linearGradient>
<linearGradient id="paint5_linear" x1="49.3053" y1="43.1942" x2="108.691" y2="98.6807" gradientUnits="userSpaceOnUse">
<stop offset="0.0829" stop-color="#1152D4"/>
<stop offset="0.4296" stop-color="#0D40B5"/>
<stop offset="0.706" stop-color="#0D3FB1"/>
<stop offset="1" stop-color="#092D7F"/>
</linearGradient>
<linearGradient id="paint6_linear" x1="48.4465" y1="42.2395" x2="73.5375" y2="42.2395" gradientUnits="userSpaceOnUse">
<stop stop-color="#76C0FD"/>
<stop offset="1" stop-color="#63B2FB"/>
</linearGradient>
<linearGradient id="paint7_linear" x1="60.4026" y1="61.1394" x2="144.532" y2="88.8826" gradientUnits="userSpaceOnUse">
<stop stop-color="#388CF4"/>
<stop offset="1" stop-color="#2C7CEF"/>
</linearGradient>
<linearGradient id="paint8_linear" x1="56.8049" y1="58.9385" x2="59.8417" y2="58.9385" gradientUnits="userSpaceOnUse">
<stop stop-color="#76C0FD"/>
<stop offset="1" stop-color="#63B2FB"/>
</linearGradient>
<linearGradient id="paint9_linear" x1="61.3018" y1="58.4126" x2="145.431" y2="86.1558" gradientUnits="userSpaceOnUse">
<stop stop-color="#388CF4"/>
<stop offset="1" stop-color="#2C7CEF"/>
</linearGradient>
<linearGradient id="paint10_linear" x1="61.7499" y1="57.0538" x2="145.879" y2="84.797" gradientUnits="userSpaceOnUse">
<stop stop-color="#388CF4"/>
<stop offset="1" stop-color="#2C7CEF"/>
</linearGradient>
<linearGradient id="paint11_linear" x1="61.7614" y1="57.0188" x2="145.891" y2="84.762" gradientUnits="userSpaceOnUse">
<stop stop-color="#388CF4"/>
<stop offset="1" stop-color="#2C7CEF"/>
</linearGradient>
<linearGradient id="paint12_linear" x1="62.212" y1="55.6522" x2="146.342" y2="83.3954" gradientUnits="userSpaceOnUse">
<stop stop-color="#388CF4"/>
<stop offset="1" stop-color="#2C7CEF"/>
</linearGradient>
<linearGradient id="paint13_linear" x1="61.3781" y1="54.3698" x2="64.4149" y2="54.3698" gradientUnits="userSpaceOnUse">
<stop stop-color="#76C0FD"/>
<stop offset="1" stop-color="#63B2FB"/>
</linearGradient>
<linearGradient id="paint14_linear" x1="63.1087" y1="52.9332" x2="147.238" y2="80.6764" gradientUnits="userSpaceOnUse">
<stop stop-color="#388CF4"/>
<stop offset="1" stop-color="#2C7CEF"/>
</linearGradient>
<linearGradient id="paint15_linear" x1="52.2101" y1="49.8273" x2="55.247" y2="49.8273" gradientUnits="userSpaceOnUse">
<stop stop-color="#76C0FD"/>
<stop offset="1" stop-color="#63B2FB"/>
</linearGradient>
<linearGradient id="paint16_linear" x1="63.5631" y1="51.5553" x2="147.693" y2="79.2985" gradientUnits="userSpaceOnUse">
<stop stop-color="#388CF4"/>
<stop offset="1" stop-color="#2C7CEF"/>
</linearGradient>
<linearGradient id="paint17_linear" x1="64.0117" y1="50.1951" x2="148.141" y2="77.9383" gradientUnits="userSpaceOnUse">
<stop stop-color="#388CF4"/>
<stop offset="1" stop-color="#2C7CEF"/>
</linearGradient>
<linearGradient id="paint18_linear" x1="64.4598" y1="48.8363" x2="148.589" y2="76.5795" gradientUnits="userSpaceOnUse">
<stop stop-color="#388CF4"/>
<stop offset="1" stop-color="#2C7CEF"/>
</linearGradient>
</defs>
</svg>
