<svg width="103" height="103" viewBox="0 0 103 103" fill="none" xmlns="http://www.w3.org/2000/svg">
<path d="M51.2407 97.9719C25.3907 97.9719 4.43066 77.0219 4.43066 51.1619C4.43066 25.3019 25.3907 4.35193 51.2407 4.35193C77.0907 4.35193 98.0507 25.3119 98.0507 51.1619C98.0507 77.0119 77.0907 97.9719 51.2407 97.9719Z" fill="url(#paint0_linear)"/>
<path fill-rule="evenodd" clip-rule="evenodd" d="M97.1406 51.162C97.1406 76.512 76.5906 97.062 51.2406 97.062C25.8906 97.062 5.34059 76.512 5.34059 51.162C5.34059 25.812 25.8906 5.26197 51.2406 5.26197C76.5906 5.26197 97.1406 25.812 97.1406 51.162ZM51.2406 1.52197C78.6606 1.52197 100.881 23.742 100.881 51.162C100.881 78.582 78.6506 100.802 51.2406 100.802C23.8206 100.802 1.60059 78.572 1.60059 51.162C1.60059 23.742 23.8206 1.52197 51.2406 1.52197Z" fill="#F2F1F0"/>
<path fill-rule="evenodd" clip-rule="evenodd" d="M94.3306 51.1619C94.3306 74.9619 75.0406 94.2519 51.2406 94.2519C27.4406 94.2519 8.15064 74.9619 8.15064 51.1619C8.15064 27.3619 27.4406 8.07191 51.2406 8.07191C75.0406 8.07191 94.3306 27.3619 94.3306 51.1619ZM51.2406 4.33191C77.1006 4.33191 98.0706 25.3019 98.0706 51.1619C98.0706 77.0219 77.1006 97.9919 51.2406 97.9919C25.3806 97.9919 4.41064 77.0219 4.41064 51.1619C4.41064 25.3019 25.3706 4.33191 51.2406 4.33191Z" fill="url(#paint1_linear)"/>
<path opacity="0.15" d="M22.2408 79.2819H80.2308C81.8608 79.2819 83.1708 77.9619 83.1708 76.3419V30.1019H19.3008V76.3419C19.3008 77.9719 20.6108 79.2819 22.2408 79.2819Z" fill="#1F1D20"/>
<path d="M20.5108 76.982H81.9508C82.6208 76.982 83.1708 76.442 83.1708 75.762V27.802H19.3008V75.772C19.3008 76.442 19.8408 76.982 20.5108 76.982Z" fill="#EBEBEB"/>
<path d="M19.3008 32.722H83.1708V26.992C83.1708 26.482 82.7508 26.062 82.2408 26.062H20.2308C19.7208 26.062 19.3008 26.482 19.3008 26.992V32.722Z" fill="url(#paint2_linear)"/>
<path d="M24.2606 31.152C25.1506 31.152 25.8806 30.432 25.8806 29.532C25.8806 28.632 25.1406 27.922 24.2606 27.922C23.3706 27.922 22.6406 28.642 22.6406 29.542C22.6406 30.442 23.3506 31.152 24.2606 31.152Z" fill="url(#paint3_linear)"/>
<path opacity="0.15" d="M61.021 52.6019C61.021 52.2019 60.691 51.8719 60.291 51.8719C60.031 51.8719 58.401 51.7319 57.521 51.0519C57.521 51.0519 57.521 51.0419 57.521 51.0519C57.191 49.8519 56.711 48.7219 56.111 47.6519C55.961 46.6419 57.001 45.9019 57.481 45.1119C57.561 44.9719 57.611 44.8919 57.641 44.8419C57.731 44.5819 57.681 44.2919 57.481 44.0819C57.481 44.0819 56.681 42.9319 55.851 42.1119C55.021 41.2919 53.781 40.3819 53.781 40.3819C53.501 40.1019 53.031 40.1019 52.751 40.3819C52.561 40.5619 51.321 41.5819 50.211 41.7519C50.201 41.7519 50.201 41.7519 50.201 41.7519C49.161 41.1619 48.001 40.6819 46.831 40.3519H46.821C46.001 39.7419 46.211 38.4819 46.001 37.5819C46.001 37.1819 45.671 36.8519 45.271 36.8519C45.271 36.8519 43.891 36.6119 42.721 36.6119C41.551 36.6119 40.031 36.8519 40.031 36.8519C39.631 36.8519 39.301 37.1819 39.301 37.5819C39.301 37.8419 39.161 39.4719 38.481 40.3519C37.321 40.6819 36.111 41.1919 35.081 41.7619C34.071 41.9119 33.331 40.8719 32.541 40.3919C32.401 40.3119 32.321 40.2619 32.271 40.2319C32.011 40.1419 31.721 40.1919 31.511 40.3919C31.511 40.3919 30.361 41.1919 29.541 42.0219C28.721 42.8419 27.811 44.0919 27.811 44.0919C27.531 44.3719 27.531 44.8419 27.811 45.1219C27.991 45.3019 29.041 46.5619 29.181 47.6619V47.6719C28.611 48.7019 28.101 49.9119 27.781 51.0619C27.781 51.0619 27.791 51.0419 27.781 51.0619C27.071 51.9219 25.911 51.6719 25.011 51.8819C24.611 51.8819 24.281 52.2119 24.281 52.6119C24.281 52.6119 24.041 53.9919 24.041 55.1619C24.041 56.3319 24.281 57.8519 24.281 57.8519C24.281 58.2519 24.611 58.5819 25.011 58.5819C25.271 58.5819 26.901 58.7219 27.781 59.4019C27.801 59.3919 27.791 59.4119 27.791 59.4119C28.131 60.5719 28.601 61.7319 29.191 62.7619C29.181 62.7719 29.191 62.7619 29.191 62.7919C29.291 63.8519 28.301 64.5419 27.821 65.3319C27.741 65.4719 27.691 65.5519 27.661 65.6019C27.571 65.8619 27.621 66.1519 27.821 66.3619C27.821 66.3619 28.621 67.5119 29.451 68.3319C30.271 69.1519 31.521 70.0619 31.521 70.0619C31.801 70.3419 32.271 70.3419 32.551 70.0619C32.731 69.8819 33.991 68.8319 35.091 68.6919C35.091 68.6919 35.091 68.6919 35.101 68.7019C36.161 69.2919 37.251 69.7519 38.441 70.0819C38.451 70.0819 38.481 70.0919 38.481 70.0919C39.301 70.7019 39.091 71.9619 39.301 72.8619C39.341 73.2619 39.571 73.5219 40.031 73.5919C40.031 73.5919 41.411 73.8319 42.581 73.8319C43.751 73.8319 45.271 73.5919 45.271 73.5919C45.671 73.5219 46.001 73.2619 46.001 72.8619C46.001 72.6019 46.141 70.9719 46.821 70.0919C46.821 70.0919 46.851 70.0719 46.881 70.0419C48.091 69.7019 49.021 69.3219 50.091 68.7119C50.141 68.6919 50.091 68.7019 50.211 68.6819C51.221 68.5319 51.961 69.5719 52.751 70.0519C52.891 70.1319 52.971 70.1819 53.021 70.2119C53.281 70.3019 53.571 70.2519 53.781 70.0519C53.781 70.0519 54.931 69.2519 55.751 68.4219C56.571 67.6019 57.481 66.3519 57.481 66.3519C57.761 66.0719 57.761 65.6019 57.481 65.3219C57.301 65.1419 56.251 63.8819 56.111 62.7819C56.101 62.6719 56.111 62.6519 56.121 62.6219C56.731 61.5419 57.121 60.7519 57.451 59.5219C57.451 59.5219 57.441 59.4819 57.511 59.3819C58.121 58.5619 59.381 58.7719 60.281 58.5619C60.681 58.5619 61.011 58.2319 61.011 57.8319C61.011 57.8319 61.251 56.4519 61.251 55.2819C61.251 54.1119 61.021 52.6019 61.021 52.6019ZM53.411 55.1919C53.411 61.1619 48.571 66.0019 42.601 66.0019C36.631 66.0019 31.791 61.1619 31.791 55.1919C31.791 49.2219 36.631 44.3819 42.601 44.3819C48.571 44.3719 53.411 49.2219 53.411 55.1919Z" fill="#1F1D20"/>
<path d="M61.021 51.6119C61.021 51.2119 60.691 50.882 60.291 50.882C60.031 50.882 58.401 50.742 57.521 50.062C57.521 50.062 57.521 50.052 57.521 50.062C57.191 48.862 56.711 47.7319 56.111 46.6619C55.961 45.6519 57.001 44.9119 57.481 44.1219C57.561 43.9819 57.611 43.9019 57.641 43.8519C57.731 43.5919 57.681 43.3019 57.481 43.0919C57.481 43.0919 56.681 41.9419 55.851 41.1219C55.021 40.3019 53.781 39.3919 53.781 39.3919C53.501 39.1119 53.031 39.1119 52.751 39.3919C52.561 39.5719 51.321 40.5919 50.211 40.7619C50.201 40.7619 50.201 40.7619 50.201 40.7619C49.161 40.1719 48.001 39.6919 46.831 39.3619H46.821C46.001 38.7519 46.211 37.4919 46.001 36.5919C46.001 36.1919 45.671 35.8619 45.271 35.8619C45.271 35.8619 43.891 35.6219 42.721 35.6219C41.551 35.6219 40.031 35.8619 40.031 35.8619C39.631 35.8619 39.301 36.1919 39.301 36.5919C39.301 36.8519 39.161 38.4819 38.481 39.3619C37.321 39.6919 36.111 40.2019 35.081 40.7719C34.071 40.9219 33.331 39.882 32.541 39.402C32.401 39.322 32.321 39.272 32.271 39.242C32.011 39.152 31.721 39.202 31.511 39.402C31.511 39.402 30.361 40.2019 29.541 41.0319C28.721 41.8519 27.811 43.1019 27.811 43.1019C27.531 43.3819 27.531 43.852 27.811 44.132C27.991 44.312 29.041 45.5719 29.181 46.6719V46.6819C28.611 47.7119 28.101 48.9219 27.781 50.0719C27.781 50.0719 27.791 50.0519 27.781 50.0719C27.071 50.9319 25.911 50.6819 25.011 50.8919C24.611 50.8919 24.281 51.2219 24.281 51.6219C24.281 51.6219 24.041 53.0019 24.041 54.1719C24.041 55.3419 24.281 56.8619 24.281 56.8619C24.281 57.2619 24.611 57.5919 25.011 57.5919C25.271 57.5919 26.901 57.7319 27.781 58.4119C27.801 58.4019 27.791 58.4219 27.791 58.4219C28.131 59.5819 28.601 60.7419 29.191 61.7719C29.181 61.7819 29.191 61.7719 29.191 61.8019C29.291 62.8619 28.301 63.5519 27.821 64.3419C27.741 64.4819 27.691 64.5619 27.661 64.6119C27.571 64.8719 27.621 65.1619 27.821 65.3719C27.821 65.3719 28.621 66.5219 29.451 67.3419C30.271 68.1619 31.521 69.072 31.521 69.072C31.801 69.352 32.271 69.352 32.551 69.072C32.731 68.892 33.991 67.842 35.091 67.702C35.091 67.702 35.091 67.702 35.101 67.712C36.161 68.302 37.251 68.7619 38.441 69.0919C38.451 69.0919 38.481 69.102 38.481 69.102C39.301 69.712 39.091 70.9719 39.301 71.8719C39.341 72.2719 39.571 72.532 40.031 72.602C40.031 72.602 41.411 72.8419 42.581 72.8419C43.751 72.8419 45.271 72.602 45.271 72.602C45.671 72.532 46.001 72.2719 46.001 71.8719C46.001 71.6119 46.141 69.982 46.821 69.102C46.821 69.102 46.851 69.0819 46.881 69.0519C48.091 68.7119 49.021 68.3319 50.091 67.7219C50.141 67.7019 50.091 67.7119 50.211 67.6919C51.221 67.5419 51.961 68.582 52.751 69.062C52.891 69.142 52.971 69.1919 53.021 69.2219C53.281 69.3119 53.571 69.262 53.781 69.062C53.781 69.062 54.931 68.2619 55.751 67.4319C56.571 66.6119 57.481 65.3619 57.481 65.3619C57.761 65.0819 57.761 64.6119 57.481 64.3319C57.301 64.1519 56.251 62.892 56.111 61.792C56.101 61.682 56.111 61.662 56.121 61.632C56.731 60.552 57.121 59.7619 57.451 58.5319C57.451 58.5319 57.441 58.4919 57.511 58.3919C58.121 57.5719 59.381 57.7819 60.281 57.5719C60.681 57.5719 61.011 57.2419 61.011 56.8419C61.011 56.8419 61.251 55.462 61.251 54.292C61.261 53.142 61.021 51.6119 61.021 51.6119ZM53.411 54.202C53.411 60.1719 48.571 65.0119 42.601 65.0119C36.631 65.0119 31.791 60.1719 31.791 54.202C31.791 48.232 36.631 43.3919 42.601 43.3919C48.571 43.3919 53.411 48.232 53.411 54.202Z" fill="url(#paint4_linear)"/>
<path opacity="0.15" d="M80.8305 48.702H66.2505V60.802C66.2505 61.232 66.5905 61.562 67.0105 61.562H80.0805C80.5105 61.562 80.8405 61.222 80.8405 60.802V48.702H80.8305Z" fill="#1F1D20"/>
<path d="M80.8305 48.162H66.2505V60.262C66.2505 60.692 66.5905 61.022 67.0105 61.022H80.0805C80.5105 61.022 80.8405 60.682 80.8405 60.262V48.162H80.8305Z" fill="#9CEBFF"/>
<path d="M80.1407 46.892H66.9507C66.5607 46.892 66.2407 47.202 66.2407 47.602V48.472H80.8407V47.602C80.8307 47.202 80.5207 46.892 80.1407 46.892Z" fill="white"/>
<path d="M78.9209 51.542C78.9209 51.202 78.6509 50.942 78.3209 50.942H69.0009C68.6609 50.942 68.4009 51.212 68.4009 51.542C68.4009 51.882 68.6709 52.142 69.0009 52.142H78.3209C78.6409 52.142 78.9209 51.872 78.9209 51.542Z" fill="white"/>
<path d="M70.6406 51.542C70.6406 52.202 71.1806 52.742 71.8406 52.742C72.5006 52.742 73.0406 52.202 73.0406 51.542C73.0406 50.882 72.5006 50.342 71.8406 50.342C71.1706 50.332 70.6406 50.882 70.6406 51.542Z" fill="url(#paint5_linear)"/>
<path d="M78.9209 54.582C78.9209 54.242 78.6509 53.982 78.3209 53.982H69.0009C68.6609 53.982 68.4009 54.252 68.4009 54.582C68.4009 54.922 68.6709 55.182 69.0009 55.182H78.3209C78.6409 55.172 78.9209 54.912 78.9209 54.582Z" fill="white"/>
<path d="M74.2505 54.582C74.2505 55.242 74.7905 55.782 75.4505 55.782C76.1105 55.782 76.6505 55.242 76.6505 54.582C76.6505 53.922 76.1105 53.382 75.4505 53.382C74.7805 53.372 74.2505 53.922 74.2505 54.582Z" fill="url(#paint6_linear)"/>
<path d="M78.9209 57.792C78.9209 57.452 78.6509 57.192 78.3209 57.192H69.0009C68.6609 57.192 68.4009 57.462 68.4009 57.792C68.4009 58.132 68.6709 58.392 69.0009 58.392H78.3209C78.6409 58.402 78.9209 58.132 78.9209 57.792Z" fill="white"/>
<path d="M70.6909 57.792C70.6909 58.452 71.2309 58.992 71.8909 58.992C72.5509 58.992 73.0909 58.452 73.0909 57.792C73.0909 57.132 72.5509 56.592 71.8909 56.592C71.2209 56.602 70.6909 57.132 70.6909 57.792Z" fill="url(#paint7_linear)"/>
<path opacity="0.15" d="M80.8305 48.702H66.2505V60.802C66.2505 61.232 66.5905 61.562 67.0105 61.562H80.0805C80.5105 61.562 80.8405 61.222 80.8405 60.802V48.702H80.8305Z" fill="#1F1D20"/>
<path d="M80.8305 48.162H66.2505V60.262C66.2505 60.692 66.5905 61.022 67.0105 61.022H80.0805C80.5105 61.022 80.8405 60.682 80.8405 60.262V48.162H80.8305Z" fill="url(#paint8_linear)"/>
<path d="M80.1407 46.892H66.9507C66.5607 46.892 66.2407 47.202 66.2407 47.602V48.472H80.8407V47.602C80.8307 47.202 80.5207 46.892 80.1407 46.892Z" fill="url(#paint9_linear)"/>
<path d="M77.6306 52.002C77.6306 51.732 77.4206 51.532 77.1606 51.532H69.8006C69.5306 51.532 69.3306 51.742 69.3306 52.002C69.3306 52.262 69.5406 52.472 69.8006 52.472H77.1706C77.4106 52.482 77.6306 52.262 77.6306 52.002Z" fill="white"/>
<path d="M77.6306 54.412C77.6306 54.142 77.4206 53.942 77.1606 53.942H69.8006C69.5306 53.942 69.3306 54.152 69.3306 54.412C69.3306 54.672 69.5406 54.882 69.8006 54.882H77.1706C77.4106 54.882 77.6306 54.682 77.6306 54.412Z" fill="white"/>
<path d="M77.6306 56.962C77.6306 56.692 77.4206 56.492 77.1606 56.492H69.8006C69.5306 56.492 69.3306 56.702 69.3306 56.962C69.3306 57.222 69.5406 57.432 69.8006 57.432H77.1706C77.4106 57.432 77.6306 57.222 77.6306 56.962Z" fill="white"/>
<path d="M69.7805 51.532C69.5105 51.532 69.3105 51.742 69.3105 52.002C69.3105 52.262 69.5205 52.472 69.7805 52.472H71.9405V51.512H69.7805V51.532Z" fill="url(#paint10_linear)"/>
<path d="M69.7805 53.932C69.5105 53.932 69.3105 54.142 69.3105 54.402C69.3105 54.662 69.5205 54.872 69.7805 54.872H74.4505V53.912H69.7805V53.932Z" fill="url(#paint11_linear)"/>
<path d="M69.7805 56.472C69.5105 56.472 69.3105 56.682 69.3105 56.942C69.3105 57.202 69.5205 57.412 69.7805 57.412H71.9105V56.462H69.7805V56.472Z" fill="url(#paint12_linear)"/>
<path d="M71.0908 52.002C71.0908 52.522 71.5208 52.952 72.0408 52.952C72.5608 52.952 72.9908 52.522 72.9908 52.002C72.9908 51.482 72.5608 51.052 72.0408 51.052C71.5108 51.052 71.0908 51.482 71.0908 52.002Z" fill="#50E6FF"/>
<path d="M71.1108 56.962C71.1108 57.482 71.5408 57.912 72.0608 57.912C72.5808 57.912 73.0108 57.482 73.0108 56.962C73.0108 56.442 72.5808 56.012 72.0608 56.012C71.5408 56.012 71.1108 56.442 71.1108 56.962Z" fill="#50E6FF"/>
<path d="M73.4507 54.552C73.4507 55.072 73.8807 55.502 74.4007 55.502C74.9207 55.502 75.3507 55.072 75.3507 54.552C75.3507 54.032 74.9207 53.602 74.4007 53.602C73.8807 53.612 73.4507 54.022 73.4507 54.552Z" fill="#50E6FF"/>
<path opacity="0.15" d="M80.8507 65.1619H66.2607V73.7119C66.2607 73.9819 66.4807 74.1719 66.7207 74.1719H80.3707C80.6407 74.1719 80.8307 73.9519 80.8307 73.7119L80.8507 65.1619Z" fill="#1F1D20"/>
<path d="M80.8507 64.6119H66.2607V73.1619C66.2607 73.4319 66.4807 73.6219 66.7207 73.6219H80.3707C80.6407 73.6219 80.8307 73.4019 80.8307 73.1619L80.8507 64.6119Z" fill="#9CEBFF"/>
<path d="M80.3607 63.3519H66.7407C66.4707 63.3519 66.2407 63.5719 66.2407 63.8519V64.9219H80.8407V63.8519C80.8507 63.5719 80.6407 63.3519 80.3607 63.3519Z" fill="white"/>
<path d="M70.6509 70.6819H69.6309V72.3619H70.6509V70.6819Z" fill="url(#paint13_linear)"/>
<path d="M72.5605 69.5719H71.2705V72.3619H72.5805L72.5605 69.5719Z" fill="url(#paint14_linear)"/>
<path opacity="0.15" d="M80.8507 65.1619H66.2607V73.7119C66.2607 73.9819 66.4807 74.1719 66.7207 74.1719H80.3707C80.6407 74.1719 80.8307 73.9519 80.8307 73.7119L80.8507 65.1619Z" fill="#1F1D20"/>
<path d="M80.8507 64.6119H66.2607V73.1619C66.2607 73.4319 66.4807 73.6219 66.7207 73.6219H80.3707C80.6407 73.6219 80.8307 73.4019 80.8307 73.1619L80.8507 64.6119Z" fill="url(#paint15_linear)"/>
<path d="M80.3607 63.3519H66.7407C66.4707 63.3519 66.2407 63.5719 66.2407 63.8519V64.9219H80.8407V63.8519C80.8507 63.5719 80.6407 63.3519 80.3607 63.3519Z" fill="url(#paint16_linear)"/>
<path d="M70.6509 70.6819H69.6309V72.3619H70.6509V70.6819Z" fill="white"/>
<path d="M72.5605 69.5719H71.2705V72.3619H72.5805L72.5605 69.5719Z" fill="white"/>
<path d="M74.8709 67.7619H73.1909V72.3419H74.8709V67.7619Z" fill="#50E6FF"/>
<path d="M77.4905 65.9019H75.5605V72.3519H77.4905V65.9019Z" fill="#50E6FF"/>
<path opacity="0.15" d="M80.8505 36.6819H66.2505V45.2319C66.2505 45.5019 66.4705 45.6919 66.7105 45.6919H80.3605C80.6305 45.6919 80.8205 45.4719 80.8205 45.2319L80.8505 36.6819Z" fill="#1F1D20"/>
<path d="M80.8505 36.1419H66.2505V44.6919C66.2505 44.9619 66.4705 45.1519 66.7105 45.1519H80.3605C80.6305 45.1519 80.8205 44.9319 80.8205 44.6919L80.8505 36.1419Z" fill="url(#paint17_linear)"/>
<path d="M80.3507 34.8719H66.7407C66.4707 34.8719 66.2407 35.0919 66.2407 35.3719V36.4419H80.8407V35.3619C80.8507 35.0919 80.6307 34.8719 80.3507 34.8719Z" fill="url(#paint18_linear)"/>
<path d="M72.5806 39.1219H68.4806C68.3106 39.1219 68.1606 39.2719 68.1606 39.4419C68.1606 39.6119 68.3106 39.7619 68.4806 39.7619H72.5706C72.7506 39.7519 72.8906 39.6019 72.8906 39.4219C72.8906 39.2419 72.7506 39.1219 72.5806 39.1219Z" fill="#50E6FF"/>
<path d="M72.5806 40.5219H68.4806C68.3106 40.5219 68.1606 40.6719 68.1606 40.8419C68.1606 41.0119 68.3106 41.1619 68.4806 41.1619H72.5706C72.7506 41.1519 72.8906 41.0019 72.8906 40.8419C72.8906 40.6619 72.7506 40.5219 72.5806 40.5219Z" fill="#50E6FF"/>
<path fill-rule="evenodd" clip-rule="evenodd" d="M68.4806 42.0219H70.5306C70.7006 42.0219 70.8506 42.1719 70.8506 42.3419C70.8506 42.5119 70.7006 42.6619 70.5306 42.6619H68.4806C68.3106 42.6619 68.1606 42.5119 68.1606 42.3419C68.1706 42.1719 68.3006 42.0219 68.4806 42.0219Z" fill="white"/>
<defs>
<linearGradient id="paint0_linear" x1="6.46366" y1="-12.3109" x2="83.8495" y2="97.3898" gradientUnits="userSpaceOnUse">
<stop stop-color="#97C3F9"/>
<stop offset="0.4975" stop-color="#388CF4"/>
<stop offset="1" stop-color="#2C7CEF"/>
</linearGradient>
<linearGradient id="paint1_linear" x1="43.7401" y1="4.70121" x2="57.3464" y2="88.9845" gradientUnits="userSpaceOnUse">
<stop offset="0.0829" stop-color="#1152D4"/>
<stop offset="0.4296" stop-color="#0D40B5"/>
<stop offset="0.706" stop-color="#0D3FB1"/>
<stop offset="1" stop-color="#092D7F"/>
</linearGradient>
<linearGradient id="paint2_linear" x1="42.8742" y1="-8.2933" x2="51.3781" y2="30.4469" gradientUnits="userSpaceOnUse">
<stop offset="0.0829" stop-color="#1152D4"/>
<stop offset="0.4296" stop-color="#0D40B5"/>
<stop offset="0.706" stop-color="#0D3FB1"/>
<stop offset="1" stop-color="#092D7F"/>
</linearGradient>
<linearGradient id="paint3_linear" x1="22.6366" y1="29.5357" x2="25.8851" y2="29.5357" gradientUnits="userSpaceOnUse">
<stop stop-color="#76C0FD"/>
<stop offset="1" stop-color="#63B2FB"/>
</linearGradient>
<linearGradient id="paint4_linear" x1="39.5886" y1="32.7954" x2="45.3974" y2="73.3874" gradientUnits="userSpaceOnUse">
<stop offset="0.0829" stop-color="#1152D4"/>
<stop offset="0.4296" stop-color="#0D40B5"/>
<stop offset="0.706" stop-color="#0D3FB1"/>
<stop offset="1" stop-color="#092D7F"/>
</linearGradient>
<linearGradient id="paint5_linear" x1="68.1407" y1="46.6449" x2="78.6643" y2="60.5576" gradientUnits="userSpaceOnUse">
<stop offset="0.1" stop-color="#54AEF0"/>
<stop offset="0.29" stop-color="#4FABEE"/>
<stop offset="0.51" stop-color="#41A2E9"/>
<stop offset="0.74" stop-color="#2A93E0"/>
<stop offset="0.88" stop-color="#1988D9"/>
</linearGradient>
<linearGradient id="paint6_linear" x1="68.9718" y1="46.0164" x2="79.4954" y2="59.9288" gradientUnits="userSpaceOnUse">
<stop offset="0.1" stop-color="#54AEF0"/>
<stop offset="0.29" stop-color="#4FABEE"/>
<stop offset="0.51" stop-color="#41A2E9"/>
<stop offset="0.74" stop-color="#2A93E0"/>
<stop offset="0.88" stop-color="#1988D9"/>
</linearGradient>
<linearGradient id="paint7_linear" x1="65.1618" y1="48.8985" x2="75.6854" y2="62.8108" gradientUnits="userSpaceOnUse">
<stop offset="0.1" stop-color="#54AEF0"/>
<stop offset="0.29" stop-color="#4FABEE"/>
<stop offset="0.51" stop-color="#41A2E9"/>
<stop offset="0.74" stop-color="#2A93E0"/>
<stop offset="0.88" stop-color="#1988D9"/>
</linearGradient>
<linearGradient id="paint8_linear" x1="61.3052" y1="46.0498" x2="148.736" y2="105.813" gradientUnits="userSpaceOnUse">
<stop stop-color="#388CF4"/>
<stop offset="1" stop-color="#2C7CEF"/>
</linearGradient>
<linearGradient id="paint9_linear" x1="70.4231" y1="72.1676" x2="75.9567" y2="29.3745" gradientUnits="userSpaceOnUse">
<stop offset="0.4598" stop-color="#1152D4"/>
<stop offset="0.6156" stop-color="#0D3FB3"/>
</linearGradient>
<linearGradient id="paint10_linear" x1="69.308" y1="51.9954" x2="71.9433" y2="51.9954" gradientUnits="userSpaceOnUse">
<stop offset="0.4598" stop-color="#1152D4"/>
<stop offset="0.6156" stop-color="#0D3FB3"/>
</linearGradient>
<linearGradient id="paint11_linear" x1="69.3109" y1="54.3995" x2="74.4642" y2="54.3995" gradientUnits="userSpaceOnUse">
<stop offset="0.4598" stop-color="#1152D4"/>
<stop offset="0.6156" stop-color="#0D3FB3"/>
</linearGradient>
<linearGradient id="paint12_linear" x1="69.308" y1="56.9423" x2="71.9086" y2="56.9423" gradientUnits="userSpaceOnUse">
<stop offset="0.4598" stop-color="#1152D4"/>
<stop offset="0.6156" stop-color="#0D3FB3"/>
</linearGradient>
<linearGradient id="paint13_linear" x1="64.9537" y1="68.1501" x2="79.9364" y2="77.871" gradientUnits="userSpaceOnUse">
<stop offset="0.1" stop-color="#54AEF0"/>
<stop offset="0.29" stop-color="#4FABEE"/>
<stop offset="0.51" stop-color="#41A2E9"/>
<stop offset="0.74" stop-color="#2A93E0"/>
<stop offset="0.88" stop-color="#1988D9"/>
</linearGradient>
<linearGradient id="paint14_linear" x1="65.7306" y1="66.9523" x2="80.7134" y2="76.6732" gradientUnits="userSpaceOnUse">
<stop offset="0.1" stop-color="#54AEF0"/>
<stop offset="0.29" stop-color="#4FABEE"/>
<stop offset="0.51" stop-color="#41A2E9"/>
<stop offset="0.74" stop-color="#2A93E0"/>
<stop offset="0.88" stop-color="#1988D9"/>
</linearGradient>
<linearGradient id="paint15_linear" x1="53.6627" y1="55.4134" x2="141.093" y2="115.176" gradientUnits="userSpaceOnUse">
<stop stop-color="#388CF4"/>
<stop offset="1" stop-color="#2C7CEF"/>
</linearGradient>
<linearGradient id="paint16_linear" x1="72.7377" y1="70.6313" x2="78.2712" y2="27.8382" gradientUnits="userSpaceOnUse">
<stop offset="0.4598" stop-color="#1152D4"/>
<stop offset="0.6156" stop-color="#0D3FB3"/>
</linearGradient>
<linearGradient id="paint17_linear" x1="53.814" y1="27.0486" x2="141.244" y2="86.8113" gradientUnits="userSpaceOnUse">
<stop offset="0.0829" stop-color="#1152D4"/>
<stop offset="0.4296" stop-color="#0D40B5"/>
<stop offset="0.706" stop-color="#0D3FB1"/>
<stop offset="1" stop-color="#092D7F"/>
</linearGradient>
<linearGradient id="paint18_linear" x1="66.2482" y1="35.6536" x2="80.8464" y2="35.6536" gradientUnits="userSpaceOnUse">
<stop stop-color="#388CF4"/>
<stop offset="1" stop-color="#2C7CEF"/>
</linearGradient>
</defs>
</svg>
