<svg width="103" height="103" viewBox="0 0 103 103" fill="none" xmlns="http://www.w3.org/2000/svg">
<path d="M51.1813 98.6649C25.3313 98.6649 4.37134 77.7149 4.37134 51.8549C4.37134 25.9949 25.3313 5.04492 51.1813 5.04492C77.0313 5.04492 97.9913 26.0049 97.9913 51.8549C97.9913 77.7049 77.0313 98.6649 51.1813 98.6649Z" fill="url(#paint0_linear)"/>
<path fill-rule="evenodd" clip-rule="evenodd" d="M97.0813 51.8558C97.0813 77.2058 76.5313 97.7558 51.1813 97.7558C25.8313 97.7558 5.28132 77.2058 5.28132 51.8558C5.28132 26.5058 25.8313 5.95582 51.1813 5.95582C76.5313 5.95582 97.0813 26.5058 97.0813 51.8558ZM51.1813 2.21582C78.6013 2.21582 100.821 24.4358 100.821 51.8558C100.821 79.2758 78.5913 101.496 51.1813 101.496C23.7613 101.496 1.54132 79.2658 1.54132 51.8558C1.54132 24.4358 23.7613 2.21582 51.1813 2.21582Z" fill="#F2F1F0"/>
<path fill-rule="evenodd" clip-rule="evenodd" d="M94.2713 51.8554C94.2713 75.6554 74.9813 94.9454 51.1813 94.9454C27.3813 94.9454 8.09132 75.6554 8.09132 51.8554C8.09132 28.0554 27.3813 8.76539 51.1813 8.76539C74.9813 8.76539 94.2713 28.0554 94.2713 51.8554ZM51.1813 5.02539C77.0413 5.02539 98.0113 25.9954 98.0113 51.8554C98.0113 77.7154 77.0413 98.6854 51.1813 98.6854C25.3213 98.6854 4.35132 77.7154 4.35132 51.8554C4.35132 25.9954 25.3113 5.02539 51.1813 5.02539Z" fill="url(#paint1_linear)"/>
<path opacity="0.2" d="M65.9913 68.7951H86.5414C87.4614 68.7951 88.2013 68.0551 88.2013 67.1351V36.9551H55.5714V67.1351C55.5714 68.0551 56.3113 68.7951 57.2313 68.7951H60.7914H65.9913Z" fill="#1F1D21"/>
<path d="M88.2013 36.6352V36.2152H88.2113C88.2113 35.5952 87.7013 35.0752 87.0713 35.0752H56.7013C56.0813 35.0752 55.5613 35.5852 55.5613 36.2152V36.7752V37.2952V66.3452C55.5613 66.9652 56.0713 67.4852 56.7013 67.4852H60.7913H65.9913H87.0813C87.7013 67.4852 88.2213 66.9752 88.2213 66.3452V36.7652C88.2213 36.7152 88.2113 36.6752 88.2013 36.6352Z" fill="#F2F1F0"/>
<path opacity="0.2" d="M84.1513 51.3649L80.7513 47.5249L80.7413 47.5349L76.8413 43.1449V43.0449H62.9813C62.1513 43.0449 61.7213 44.0149 62.2713 44.6349L68.8313 51.9449L62.2113 59.3349C61.7213 59.8849 62.1113 60.7649 62.8513 60.7649H68.9413H76.4813C76.6413 60.7649 76.7913 60.6949 76.9013 60.5749L84.1413 52.6849C84.4813 52.3149 84.4913 51.7449 84.1513 51.3649Z" fill="#1F1D21"/>
<path d="M76.8313 48.175L69.7313 52.325L62.2713 44.005C61.7213 43.395 62.1513 42.415 62.9813 42.415H76.8413V48.175H76.8313Z" fill="url(#paint2_linear)"/>
<path d="M80.7713 46.9551L76.7713 42.4551L62.2213 58.7151C61.7313 59.2651 62.1213 60.1451 62.8613 60.1451H68.9513L80.7713 46.9551Z" fill="url(#paint3_linear)"/>
<path d="M84.1514 50.7248L80.7514 46.8848L68.7314 60.1348H76.4814C76.6414 60.1348 76.7914 60.0648 76.9014 59.9448L84.1413 52.0548C84.4813 51.6848 84.4914 51.1148 84.1514 50.7248Z" fill="url(#paint4_linear)"/>
<path opacity="0.15" d="M42.1713 71.835H24.1613C23.7513 71.835 23.4113 71.495 23.4113 71.085C23.4113 70.675 23.7513 70.335 24.1613 70.335H42.1713C42.5813 70.335 42.9213 70.675 42.9213 71.085C42.9213 71.495 42.5813 71.835 42.1713 71.835Z" fill="#1F1D20"/>
<path d="M34.0013 57.3857V65.5057C34.0013 65.9657 33.6213 66.3457 33.1613 66.3457C32.7013 66.3457 32.3213 65.9657 32.3213 65.5057V57.3857H29.1813V70.6757H37.1313V57.3857H34.0013Z" fill="url(#paint5_linear)"/>
<path d="M51.1313 37.1953H15.5713C14.6213 37.1953 13.8513 37.9653 13.8513 38.9153V62.3653C13.8513 63.3053 14.6213 64.0853 15.5713 64.0853H51.1313C52.0713 64.0853 52.8513 63.3153 52.8513 62.3653V38.9153C52.8513 37.9653 52.0813 37.1953 51.1313 37.1953Z" fill="url(#paint6_linear)"/>
<path d="M49.9413 39.2354H16.7613C16.4113 39.2354 16.1213 39.5154 16.1213 39.8754V61.3954C16.1213 61.7454 16.4013 62.0354 16.7613 62.0354H49.9413C50.2913 62.0354 50.5813 61.7554 50.5813 61.3954V39.8754C50.5813 39.5254 50.3013 39.2354 49.9413 39.2354Z" fill="#F2F1F0"/>
<path d="M42.1713 71.1758H24.1613C23.7513 71.1758 23.4113 70.8358 23.4113 70.4258C23.4113 70.0158 23.7513 69.6758 24.1613 69.6758H42.1713C42.5813 69.6758 42.9213 70.0158 42.9213 70.4258C42.9213 70.8358 42.5813 71.1758 42.1713 71.1758Z" fill="url(#paint7_linear)"/>
<path opacity="0.2" d="M42.5213 51.0965L39.9813 48.2365L39.9713 48.2465L37.0613 44.9665V44.8965H26.7213C26.1013 44.8965 25.7813 45.6265 26.1913 46.0865L31.0913 51.5465L26.1513 57.0665C25.7813 57.4765 26.0713 58.1365 26.6313 58.1365H31.1813H36.8113C36.9313 58.1365 37.0413 58.0865 37.1313 57.9965L42.5413 52.1065C42.7713 51.8065 42.7813 51.3765 42.5213 51.0965Z" fill="#1F1D21"/>
<path d="M37.0613 48.716L31.7613 51.816L26.1913 45.606C25.7813 45.146 26.1013 44.416 26.7213 44.416H37.0613V48.716Z" fill="url(#paint8_linear)"/>
<path d="M40.0013 47.8063L37.0113 44.4463L26.1513 56.5763C25.7813 56.9863 26.0713 57.6463 26.6313 57.6463H31.1813L40.0013 47.8063Z" fill="url(#paint9_linear)"/>
<path d="M42.5214 50.6159L39.9814 47.7559L31.0114 57.6359H36.7914C36.9114 57.6359 37.0214 57.5859 37.1114 57.4959L42.5214 51.6059C42.7714 51.3359 42.7814 50.9059 42.5214 50.6159Z" fill="url(#paint10_linear)"/>
<defs>
<linearGradient id="paint0_linear" x1="6.40414" y1="-11.6181" x2="83.7899" y2="98.0825" gradientUnits="userSpaceOnUse">
<stop stop-color="#97C3F9"/>
<stop offset="0.4975" stop-color="#388CF4"/>
<stop offset="1" stop-color="#2C7CEF"/>
</linearGradient>
<linearGradient id="paint1_linear" x1="43.6808" y1="5.39449" x2="57.2871" y2="89.6777" gradientUnits="userSpaceOnUse">
<stop offset="0.0829" stop-color="#1152D4"/>
<stop offset="0.4296" stop-color="#0D40B5"/>
<stop offset="0.706" stop-color="#0D3FB1"/>
<stop offset="1" stop-color="#092D7F"/>
</linearGradient>
<linearGradient id="paint2_linear" x1="62.9525" y1="37.6509" x2="79.1054" y2="52.8491" gradientUnits="userSpaceOnUse">
<stop offset="0.4598" stop-color="#1152D4"/>
<stop offset="0.6156" stop-color="#0D3FB3"/>
</linearGradient>
<linearGradient id="paint3_linear" x1="62.0016" y1="51.2932" x2="80.7732" y2="51.2932" gradientUnits="userSpaceOnUse">
<stop stop-color="#388CF4"/>
<stop offset="1" stop-color="#2C7CEF"/>
</linearGradient>
<linearGradient id="paint4_linear" x1="68.7321" y1="53.5116" x2="84.4005" y2="53.5116" gradientUnits="userSpaceOnUse">
<stop stop-color="#76C0FD"/>
<stop offset="1" stop-color="#63B2FB"/>
</linearGradient>
<linearGradient id="paint5_linear" x1="33.1605" y1="64.1855" x2="32.7868" y2="83.4973" gradientUnits="userSpaceOnUse">
<stop stop-color="#092D7F"/>
<stop offset="0.294" stop-color="#0D3FB1"/>
<stop offset="0.5704" stop-color="#0D40B5"/>
<stop offset="0.9171" stop-color="#1152D4"/>
</linearGradient>
<linearGradient id="paint6_linear" x1="22.4755" y1="30.2249" x2="39.6693" y2="62.4943" gradientUnits="userSpaceOnUse">
<stop offset="0.0829" stop-color="#1152D4"/>
<stop offset="0.4296" stop-color="#0D40B5"/>
<stop offset="0.706" stop-color="#0D3FB1"/>
<stop offset="1" stop-color="#092D7F"/>
</linearGradient>
<linearGradient id="paint7_linear" x1="26.8622" y1="57.3812" x2="35.7083" y2="75.6963" gradientUnits="userSpaceOnUse">
<stop offset="0.0829" stop-color="#1152D4"/>
<stop offset="0.4296" stop-color="#0D40B5"/>
<stop offset="0.706" stop-color="#0D3FB1"/>
<stop offset="1" stop-color="#092D7F"/>
</linearGradient>
<linearGradient id="paint8_linear" x1="26.6998" y1="40.8574" x2="38.7594" y2="52.2042" gradientUnits="userSpaceOnUse">
<stop offset="0.4598" stop-color="#1152D4"/>
<stop offset="0.6156" stop-color="#0D3FB3"/>
</linearGradient>
<linearGradient id="paint9_linear" x1="25.9898" y1="51.0428" x2="40.0045" y2="51.0428" gradientUnits="userSpaceOnUse">
<stop stop-color="#388CF4"/>
<stop offset="1" stop-color="#2C7CEF"/>
</linearGradient>
<linearGradient id="paint10_linear" x1="31.0147" y1="52.6989" x2="42.7127" y2="52.6989" gradientUnits="userSpaceOnUse">
<stop stop-color="#76C0FD"/>
<stop offset="1" stop-color="#63B2FB"/>
</linearGradient>
</defs>
</svg>
