<svg width="103" height="103" viewBox="0 0 103 103" fill="none" xmlns="http://www.w3.org/2000/svg">
<path d="M51.4999 97.8959C25.6499 97.8959 4.68994 76.9459 4.68994 51.0859C4.68994 25.2259 25.6499 4.27588 51.4999 4.27588C77.3499 4.27588 98.3099 25.2359 98.3099 51.0859C98.3099 76.9359 77.3499 97.8959 51.4999 97.8959Z" fill="url(#paint0_linear)"/>
<path fill-rule="evenodd" clip-rule="evenodd" d="M97.4 51.0859C97.4 76.4359 76.85 96.9859 51.5 96.9859C26.15 96.9859 5.59999 76.4359 5.59999 51.0859C5.59999 25.7359 26.15 5.18592 51.5 5.18592C76.85 5.18592 97.4 25.7359 97.4 51.0859ZM51.5 1.44592C78.92 1.44592 101.14 23.6659 101.14 51.0859C101.14 78.5059 78.91 100.726 51.5 100.726C24.08 100.726 1.85999 78.4959 1.85999 51.0859C1.85999 23.6659 24.08 1.44592 51.5 1.44592Z" fill="#F2F1F0"/>
<path fill-rule="evenodd" clip-rule="evenodd" d="M94.59 51.086C94.59 74.886 75.3 94.176 51.5 94.176C27.7 94.176 8.41004 74.886 8.41004 51.086C8.41004 27.286 27.7 7.99598 51.5 7.99598C75.3 7.99598 94.59 27.286 94.59 51.086ZM51.5 4.25598C77.36 4.25598 98.33 25.226 98.33 51.086C98.33 76.946 77.36 97.916 51.5 97.916C25.64 97.916 4.67004 76.946 4.67004 51.086C4.67004 25.226 25.63 4.25598 51.5 4.25598Z" fill="url(#paint1_linear)"/>
<g opacity="0.2">
<path opacity="0.2" d="M92.7001 51.7459L89.3701 47.8959H89.3601L62.7801 64.7459L36.6601 47.9559L33.3301 51.7459L62.7801 70.8259L92.7001 51.7459Z" fill="#1F1D21"/>
<path opacity="0.2" d="M62.7801 61.2459V61.2559V61.2459L87.4201 45.8359H87.4101L87.4201 45.8259L62.7801 17.3059L38.6401 45.7959H38.6501H38.6401L62.7801 61.2459Z" fill="#1F1D21"/>
</g>
<path d="M36.6601 46.5359L62.7801 63.3259L89.3601 46.4659L92.6901 50.3159L62.7801 69.4059L33.3301 50.3259L36.6601 46.5359Z" fill="#9CEBFF"/>
<path d="M38.6401 44.376L62.7801 15.886L87.4201 44.406L62.7801 59.826L38.6401 44.376Z" fill="white"/>
<path d="M62.7801 15.886V59.826L38.6401 44.376L62.7801 15.886Z" fill="#9CEBFF"/>
<path d="M62.78 15.886V59.826L87.42 44.406L62.78 15.886Z" fill="url(#paint2_linear)"/>
<path d="M62.78 38.606L87.42 44.416L62.78 59.836V38.606Z" fill="#53B1E0"/>
<path d="M62.7801 59.836L38.6401 44.386L62.7801 38.606V59.836Z" fill="#C3F1FF"/>
<path d="M62.78 69.406L92.7 50.326L89.37 46.476L62.78 63.326V69.406Z" fill="url(#paint3_linear)"/>
<path opacity="0.2" d="M32.65 79.7159H55.76C57.16 79.7159 58.3 78.5759 58.3 77.1759V43.5859C58.3 43.2459 58.02 42.9659 57.68 42.9659H21.24C20.9 42.9659 20.62 43.2459 20.62 43.5859V77.1759C20.62 78.5759 21.76 79.7159 23.16 79.7159H26.65H32.65V79.7159Z" fill="#1F1D21"/>
<path d="M32.65 78.1959H56.38C57.45 78.1959 58.31 77.3359 58.31 76.2659V42.7459C58.3 42.0259 57.72 41.4359 57 41.4359H22.55C21.48 41.4359 20.62 42.2959 20.62 43.3659V76.2659C20.62 77.3359 21.48 78.1959 22.55 78.1959H26.65H32.65Z" fill="#F2F1F0"/>
<path d="M58.3 42.7159C58.3 41.6459 57.44 40.7859 56.37 40.7859H22.55C21.48 40.7859 20.62 41.6459 20.62 42.7159C20.62 43.0559 20.9 43.3359 21.24 43.3359H57.68C58.02 43.3359 58.3 43.0659 58.3 42.7159Z" fill="url(#paint4_linear)"/>
<path opacity="0.2" d="M53.61 59.8058L49.68 55.3758L49.67 55.3858L45.17 50.3158V50.2058H29.17C28.22 50.2058 27.72 51.3358 28.35 52.0358L35.55 60.0658C35.76 60.3058 35.76 60.6558 35.55 60.8958L28.28 69.0158C27.71 69.6558 28.16 70.6658 29.02 70.6658H36.04H44.47C44.83 70.6658 45.17 70.5158 45.42 70.2458L53.59 61.3458C53.99 60.9058 54 60.2458 53.61 59.8058Z" fill="#1F1D21"/>
<path d="M45.17 56.1258L37.41 60.6558C37.16 60.8058 36.83 60.7558 36.64 60.5358L28.36 51.3158C27.72 50.6058 28.23 49.4858 29.18 49.4858H44.56C44.9 49.4858 45.18 49.7658 45.18 50.1058L45.17 56.1258Z" fill="url(#paint5_linear)"/>
<path d="M49.35 54.2958L45.56 50.0258C45.31 49.7458 44.88 49.7458 44.63 50.0258L28.29 68.2858C27.72 68.9258 28.17 69.9358 29.03 69.9358H35.78C35.96 69.9358 36.12 69.8658 36.24 69.7258L49.35 55.1258C49.56 54.8958 49.56 54.5358 49.35 54.2958Z" fill="url(#paint6_linear)"/>
<path d="M53.61 59.0759L50.14 55.1659C49.9 54.8859 49.47 54.8859 49.22 55.1559L36.75 68.8859C36.39 69.2859 36.67 69.9259 37.21 69.9259H44.48C44.84 69.9259 45.18 69.7759 45.43 69.5059L53.6 60.6059C53.99 60.1759 54 59.5159 53.61 59.0759Z" fill="url(#paint7_linear)"/>
<defs>
<linearGradient id="paint0_linear" x1="6.72294" y1="-12.3867" x2="84.1087" y2="97.314" gradientUnits="userSpaceOnUse">
<stop stop-color="#97C3F9"/>
<stop offset="0.4975" stop-color="#388CF4"/>
<stop offset="1" stop-color="#2C7CEF"/>
</linearGradient>
<linearGradient id="paint1_linear" x1="43.9996" y1="4.62508" x2="57.6059" y2="88.9088" gradientUnits="userSpaceOnUse">
<stop offset="0.0829" stop-color="#1152D4"/>
<stop offset="0.4296" stop-color="#0D40B5"/>
<stop offset="0.706" stop-color="#0D3FB1"/>
<stop offset="1" stop-color="#092D7F"/>
</linearGradient>
<linearGradient id="paint2_linear" x1="77.0157" y1="55.7818" x2="61.9739" y2="27.0138" gradientUnits="userSpaceOnUse">
<stop stop-color="#1988D9"/>
<stop offset="0.9" stop-color="#54AEF0"/>
</linearGradient>
<linearGradient id="paint3_linear" x1="70.5747" y1="47.3917" x2="80.9775" y2="65.5108" gradientUnits="userSpaceOnUse">
<stop offset="0.1" stop-color="#54AEF0"/>
<stop offset="0.29" stop-color="#4FABEE"/>
<stop offset="0.51" stop-color="#41A2E9"/>
<stop offset="0.74" stop-color="#2A93E0"/>
<stop offset="0.88" stop-color="#1988D9"/>
</linearGradient>
<linearGradient id="paint4_linear" x1="20.6191" y1="42.0643" x2="58.2962" y2="42.0643" gradientUnits="userSpaceOnUse">
<stop offset="0.4598" stop-color="#1152D4"/>
<stop offset="0.6156" stop-color="#0D3FB3"/>
</linearGradient>
<linearGradient id="paint5_linear" x1="29.0674" y1="44.0531" x2="47.7134" y2="61.5971" gradientUnits="userSpaceOnUse">
<stop offset="0.4598" stop-color="#1152D4"/>
<stop offset="0.6156" stop-color="#0D3FB3"/>
</linearGradient>
<linearGradient id="paint6_linear" x1="28.0384" y1="59.8764" x2="49.5035" y2="59.8764" gradientUnits="userSpaceOnUse">
<stop stop-color="#388CF4"/>
<stop offset="1" stop-color="#2C7CEF"/>
</linearGradient>
<linearGradient id="paint7_linear" x1="36.59" y1="62.4404" x2="53.8974" y2="62.4404" gradientUnits="userSpaceOnUse">
<stop stop-color="#76C0FD"/>
<stop offset="1" stop-color="#63B2FB"/>
</linearGradient>
</defs>
</svg>
