<svg width="103" height="103" viewBox="0 0 103 103" fill="none" xmlns="http://www.w3.org/2000/svg">
<path d="M51.4999 98.3099C25.6499 98.3099 4.68994 77.3599 4.68994 51.4999C4.68994 25.6399 25.6499 4.68994 51.4999 4.68994C77.3499 4.68994 98.3099 25.6499 98.3099 51.4999C98.3099 77.3499 77.3499 98.3099 51.4999 98.3099Z" fill="url(#paint0_linear)"/>
<path fill-rule="evenodd" clip-rule="evenodd" d="M97.4004 51.5004C97.4004 76.8504 76.8504 97.4004 51.5004 97.4004C26.1504 97.4004 5.60035 76.8504 5.60035 51.5004C5.60035 26.1504 26.1504 5.60035 51.5004 5.60035C76.8504 5.60035 97.4004 26.1504 97.4004 51.5004ZM51.5004 1.86035C78.9204 1.86035 101.14 24.0804 101.14 51.5004C101.14 78.9204 78.9104 101.14 51.5004 101.14C24.0804 101.14 1.86035 78.9104 1.86035 51.5004C1.86035 24.0804 24.0804 1.86035 51.5004 1.86035Z" fill="#F2F1F0"/>
<path fill-rule="evenodd" clip-rule="evenodd" d="M94.5899 51.4999C94.5899 75.2999 75.2999 94.5899 51.4999 94.5899C27.6999 94.5899 8.40992 75.2999 8.40992 51.4999C8.40992 27.6999 27.6999 8.40992 51.4999 8.40992C75.2999 8.40992 94.5899 27.6999 94.5899 51.4999ZM51.4999 4.66992C77.3599 4.66992 98.3299 25.6399 98.3299 51.4999C98.3299 77.3599 77.3599 98.3299 51.4999 98.3299C25.6399 98.3299 4.66992 77.3599 4.66992 51.4999C4.66992 25.6399 25.6299 4.66992 51.4999 4.66992Z" fill="url(#paint1_linear)"/>
<path opacity="0.15" d="M22.5001 78.4798H80.4901C82.1201 78.4798 83.4301 77.1598 83.4301 75.5398V29.2998H19.5601V75.5398C19.5601 77.1698 20.8701 78.4798 22.5001 78.4798Z" fill="#1F1D20"/>
<path d="M20.7701 76.18H82.2101C82.8801 76.18 83.4301 75.64 83.4301 74.96V27H19.5601V74.97C19.5601 75.64 20.1001 76.18 20.7701 76.18Z" fill="#EBEBEB"/>
<path d="M19.5601 31.9198H83.4301V26.1898C83.4301 25.6798 83.0101 25.2598 82.5001 25.2598H20.4901C19.9801 25.2598 19.5601 25.6798 19.5601 26.1898V31.9198Z" fill="url(#paint2_linear)"/>
<path d="M24.5199 30.3501C25.4099 30.3501 26.1399 29.6301 26.1399 28.7301C26.1399 27.8301 25.3999 27.1201 24.5199 27.1201C23.6299 27.1201 22.8999 27.8401 22.8999 28.7401C22.8999 29.6401 23.6099 30.3501 24.5199 30.3501Z" fill="url(#paint3_linear)"/>
<path opacity="0.15" d="M79.3901 37.5098H59.5601V53.9598C59.5601 54.5398 60.0201 54.9898 60.5901 54.9898H78.3701C78.9501 54.9898 79.4001 54.5298 79.4001 53.9598V37.5098H79.3901Z" fill="#1F1D20"/>
<path d="M79.3901 36.7598H59.5601V53.2098C59.5601 53.7898 60.0201 54.2398 60.5901 54.2398H78.3701C78.9501 54.2398 79.4001 53.7798 79.4001 53.2098V36.7598H79.3901Z" fill="#9CEBFF"/>
<path d="M78.4498 35.04H60.5098C59.9698 35.04 59.5498 35.47 59.5498 36V37.18H79.4098V36C79.3898 35.45 78.9698 35.04 78.4498 35.04Z" fill="white"/>
<path d="M76.7897 41.36C76.7897 40.9 76.4297 40.54 75.9697 40.54H63.2897C62.8297 40.54 62.4697 40.9 62.4697 41.36C62.4697 41.82 62.8297 42.18 63.2897 42.18H75.9697C76.4097 42.18 76.7897 41.82 76.7897 41.36Z" fill="white"/>
<path d="M65.5303 41.3601C65.5303 42.2601 66.2703 42.9901 67.1603 42.9901C68.0603 42.9901 68.7903 42.2501 68.7903 41.3601C68.7903 40.4601 68.0503 39.7301 67.1603 39.7301C66.2403 39.7201 65.5303 40.4601 65.5303 41.3601Z" fill="url(#paint4_linear)"/>
<path d="M76.7897 45.4997C76.7897 45.0397 76.4297 44.6797 75.9697 44.6797H63.2897C62.8297 44.6797 62.4697 45.0397 62.4697 45.4997C62.4697 45.9597 62.8297 46.3197 63.2897 46.3197H75.9697C76.4097 46.2997 76.7897 45.9497 76.7897 45.4997Z" fill="white"/>
<path d="M70.4399 45.5C70.4399 46.4 71.1799 47.13 72.0699 47.13C72.9699 47.13 73.6999 46.39 73.6999 45.5C73.6999 44.62 72.9599 43.87 72.0699 43.87C71.1499 43.85 70.4399 44.6 70.4399 45.5Z" fill="url(#paint5_linear)"/>
<path d="M76.7897 49.8698C76.7897 49.4098 76.4297 49.0498 75.9697 49.0498H63.2897C62.8297 49.0498 62.4697 49.4098 62.4697 49.8698C62.4697 50.3298 62.8297 50.6898 63.2897 50.6898H75.9697C76.4097 50.6898 76.7897 50.3298 76.7897 49.8698Z" fill="white"/>
<path d="M65.6001 49.8702C65.6001 50.7702 66.3401 51.5002 67.2301 51.5002C68.1301 51.5002 68.8601 50.7602 68.8601 49.8702C68.8601 48.9702 68.1201 48.2402 67.2301 48.2402C66.3201 48.2402 65.6001 48.9702 65.6001 49.8702Z" fill="url(#paint6_linear)"/>
<path opacity="0.15" d="M79.3901 37.5098H59.5601V53.9598C59.5601 54.5398 60.0201 54.9898 60.5901 54.9898H78.3701C78.9501 54.9898 79.4001 54.5298 79.4001 53.9598V37.5098H79.3901Z" fill="#1F1D20"/>
<path d="M79.4098 36.0098C79.3898 35.4598 78.9698 35.0498 78.4498 35.0498H60.5098C59.9698 35.0498 59.5498 35.4798 59.5498 36.0098V37.1898H59.5698V53.2198C59.5698 53.7998 60.0298 54.2498 60.5998 54.2498H78.3798C78.9598 54.2498 79.4098 53.7898 79.4098 53.2198V37.1898H79.4298V36.0098H79.4098Z" fill="url(#paint7_linear)"/>
<path opacity="0.15" d="M79.4101 59.8799H59.5801V71.4999C59.5801 71.8599 59.8801 72.1299 60.2101 72.1299H78.7801C79.1401 72.1299 79.4101 71.8299 79.4101 71.4999V59.8799Z" fill="#1F1D20"/>
<path d="M79.4101 59.1396H59.5801V70.7597C59.5801 71.1197 59.8801 71.3896 60.2101 71.3896H78.7801C79.1401 71.3896 79.4101 71.0897 79.4101 70.7597V59.1396Z" fill="#9CEBFF"/>
<path d="M78.7498 57.4297H60.2298C59.8698 57.4297 59.5498 57.7297 59.5498 58.1097V59.5597H79.4098V58.1097C79.4098 57.7197 79.1298 57.4297 78.7498 57.4297Z" fill="white"/>
<path d="M65.5502 67.3896H64.1602V69.6796H65.5502V67.3896Z" fill="url(#paint8_linear)"/>
<path d="M68.1396 65.8799H66.3896V69.6699H68.1696L68.1396 65.8799Z" fill="url(#paint9_linear)"/>
<path opacity="0.15" d="M79.4101 59.8799H59.5801V71.4999C59.5801 71.8599 59.8801 72.1299 60.2101 72.1299H78.7801C79.1401 72.1299 79.4101 71.8299 79.4101 71.4999V59.8799Z" fill="#1F1D20"/>
<path d="M78.7498 57.4297H60.2298C59.8698 57.4297 59.5498 57.7297 59.5498 58.1097V59.5597H59.5798V70.7497C59.5798 71.1097 59.8798 71.3797 60.2098 71.3797H78.7798C79.1398 71.3797 79.4098 71.0797 79.4098 70.7497V59.5597V59.1297V58.0997C79.4098 57.7197 79.1298 57.4297 78.7498 57.4297Z" fill="url(#paint10_linear)"/>
<path opacity="0.2" d="M53.7996 52.8904L44.7796 42.7604V42.6304H27.6496C26.6296 42.6304 26.0796 43.8404 26.7696 44.6004L34.8696 53.6204L26.6996 62.7604C26.0996 63.4504 26.5796 64.5204 27.4896 64.5204L44.3196 64.5004C44.5196 64.5004 44.7096 64.4104 44.8496 64.2704L53.7896 54.5304C54.2096 54.0704 54.2196 53.3504 53.7996 52.8904Z" fill="#1F1D21"/>
<path d="M44.7601 48.6002L36.0001 53.7202L26.7701 43.4602C26.0801 42.7002 26.6301 41.4902 27.6501 41.4902H44.7801L44.7601 48.6002Z" fill="url(#paint11_linear)"/>
<path d="M49.6299 47.0903L44.6899 41.5303L26.6899 61.6203C26.0899 62.3103 26.5699 63.3803 27.4799 63.3803H34.9899L49.6299 47.0903Z" fill="url(#paint12_linear)"/>
<path d="M53.8 51.77L49.6 47.02L34.75 63.38H44.31C44.51 63.38 44.7 63.29 44.84 63.15L53.78 53.41C54.21 52.95 54.22 52.24 53.8 51.77Z" fill="url(#paint13_linear)"/>
<path d="M67.0602 65.3697C67.0602 65.3697 69.9302 62.9997 70.2802 63.2897C70.6702 63.6197 68.2802 66.6497 68.2802 66.6497L66.7602 67.0397C66.6902 67.0597 66.6202 66.9897 66.6402 66.9197L67.0602 65.3697Z" fill="white"/>
<path d="M69.2402 63.2796L70.7302 61.7696C71.0602 61.4496 71.5802 61.4296 71.9202 61.7296C72.3102 62.0596 72.3302 62.6596 71.9702 63.0296L71.6702 63.3296L69.2402 63.2796Z" fill="white"/>
<path d="M67.0601 65.3596L70.4201 62.0796L71.7201 63.2796L68.2801 66.6496L67.0601 65.3596Z" fill="white"/>
<path d="M67.0702 66.9596L66.7602 67.0396C66.6902 67.0596 66.6202 66.9896 66.6402 66.9196L66.7302 66.5996L67.0702 66.9596Z" fill="white"/>
<path d="M74.0301 61.9902L73.3901 62.6302L75.4501 64.6902L73.3701 66.7702L74.0101 67.4102L76.7301 64.6902L74.0301 61.9902Z" fill="white"/>
<path d="M64.93 67.4L65.57 66.76L63.51 64.7L65.59 62.62L64.95 61.98L62.23 64.7L64.93 67.4Z" fill="white"/>
<path d="M67.61 50.55C66.8 50.55 66.2 50.38 65.82 50.03C65.44 49.68 65.25 49.12 65.25 48.33V46.44C65.25 45.6 64.9 45.18 64.21 45.18V44.15C64.9 44.15 65.25 43.71 65.25 42.83V41.06C65.25 40.29 65.44 39.71 65.83 39.34C66.22 38.97 66.81 38.79 67.61 38.79V39.84C66.9 39.84 66.54 40.25 66.54 41.06V42.84C66.54 43.8 66.21 44.4 65.55 44.64V44.67C66.21 44.88 66.54 45.47 66.54 46.43V48.21C66.54 48.65 66.62 48.97 66.78 49.18C66.94 49.38 67.22 49.49 67.61 49.49V50.55Z" fill="white"/>
<path d="M71.5801 49.49C71.9701 49.49 72.2401 49.39 72.4101 49.18C72.5801 48.97 72.6501 48.65 72.6501 48.21V46.43C72.6501 45.47 72.9801 44.88 73.6401 44.67V44.64C72.9801 44.4 72.6501 43.8 72.6501 42.84V41.06C72.6501 40.25 72.2901 39.84 71.5801 39.84V38.79C72.3801 38.79 72.9701 38.97 73.3601 39.34C73.7501 39.71 73.9401 40.28 73.9401 41.06V42.83C73.9401 43.71 74.2901 44.15 74.9801 44.15V45.18C74.2901 45.18 73.9401 45.6 73.9401 46.44V48.33C73.9401 49.11 73.7501 49.68 73.3701 50.03C72.9901 50.38 72.3901 50.55 71.5801 50.55V49.49Z" fill="white"/>
<defs>
<linearGradient id="paint0_linear" x1="6.72264" y1="-11.9731" x2="84.1085" y2="97.7274" gradientUnits="userSpaceOnUse">
<stop stop-color="#97C3F9"/>
<stop offset="0.4975" stop-color="#388CF4"/>
<stop offset="1" stop-color="#2C7CEF"/>
</linearGradient>
<linearGradient id="paint1_linear" x1="43.9994" y1="5.03902" x2="57.6057" y2="89.3222" gradientUnits="userSpaceOnUse">
<stop offset="0.0829" stop-color="#1152D4"/>
<stop offset="0.4296" stop-color="#0D40B5"/>
<stop offset="0.706" stop-color="#0D3FB1"/>
<stop offset="1" stop-color="#092D7F"/>
</linearGradient>
<linearGradient id="paint2_linear" x1="43.133" y1="-9.08933" x2="51.6369" y2="29.6504" gradientUnits="userSpaceOnUse">
<stop offset="0.0829" stop-color="#1152D4"/>
<stop offset="0.4296" stop-color="#0D40B5"/>
<stop offset="0.706" stop-color="#0D3FB1"/>
<stop offset="1" stop-color="#092D7F"/>
</linearGradient>
<linearGradient id="paint3_linear" x1="22.8957" y1="28.7352" x2="26.1442" y2="28.7352" gradientUnits="userSpaceOnUse">
<stop stop-color="#76C0FD"/>
<stop offset="1" stop-color="#63B2FB"/>
</linearGradient>
<linearGradient id="paint4_linear" x1="62.1262" y1="34.7054" x2="76.4379" y2="53.6264" gradientUnits="userSpaceOnUse">
<stop offset="0.1" stop-color="#54AEF0"/>
<stop offset="0.29" stop-color="#4FABEE"/>
<stop offset="0.51" stop-color="#41A2E9"/>
<stop offset="0.74" stop-color="#2A93E0"/>
<stop offset="0.88" stop-color="#1988D9"/>
</linearGradient>
<linearGradient id="paint5_linear" x1="63.2571" y1="33.8501" x2="77.5689" y2="52.7704" gradientUnits="userSpaceOnUse">
<stop offset="0.1" stop-color="#54AEF0"/>
<stop offset="0.29" stop-color="#4FABEE"/>
<stop offset="0.51" stop-color="#41A2E9"/>
<stop offset="0.74" stop-color="#2A93E0"/>
<stop offset="0.88" stop-color="#1988D9"/>
</linearGradient>
<linearGradient id="paint6_linear" x1="58.0716" y1="37.7724" x2="72.3833" y2="56.6926" gradientUnits="userSpaceOnUse">
<stop offset="0.1" stop-color="#54AEF0"/>
<stop offset="0.29" stop-color="#4FABEE"/>
<stop offset="0.51" stop-color="#41A2E9"/>
<stop offset="0.74" stop-color="#2A93E0"/>
<stop offset="0.88" stop-color="#1988D9"/>
</linearGradient>
<linearGradient id="paint7_linear" x1="49.3767" y1="-110.891" x2="84.598" y2="161.48" gradientUnits="userSpaceOnUse">
<stop stop-color="#388CF4"/>
<stop offset="1" stop-color="#2C7CEF"/>
</linearGradient>
<linearGradient id="paint8_linear" x1="57.7899" y1="63.9555" x2="78.166" y2="77.1767" gradientUnits="userSpaceOnUse">
<stop offset="0.1" stop-color="#54AEF0"/>
<stop offset="0.29" stop-color="#4FABEE"/>
<stop offset="0.51" stop-color="#41A2E9"/>
<stop offset="0.74" stop-color="#2A93E0"/>
<stop offset="0.88" stop-color="#1988D9"/>
</linearGradient>
<linearGradient id="paint9_linear" x1="58.8531" y1="62.3179" x2="79.2289" y2="75.5379" gradientUnits="userSpaceOnUse">
<stop offset="0.1" stop-color="#54AEF0"/>
<stop offset="0.29" stop-color="#4FABEE"/>
<stop offset="0.51" stop-color="#41A2E9"/>
<stop offset="0.74" stop-color="#2A93E0"/>
<stop offset="0.88" stop-color="#1988D9"/>
</linearGradient>
<linearGradient id="paint10_linear" x1="65.4701" y1="33.3015" x2="92.1278" y2="239.465" gradientUnits="userSpaceOnUse">
<stop stop-color="#388CF4"/>
<stop offset="1" stop-color="#2C7CEF"/>
</linearGradient>
<linearGradient id="paint11_linear" x1="27.6173" y1="35.5907" x2="47.5771" y2="54.3709" gradientUnits="userSpaceOnUse">
<stop offset="0.4598" stop-color="#1152D4"/>
<stop offset="0.6156" stop-color="#0D3FB3"/>
</linearGradient>
<linearGradient id="paint12_linear" x1="26.4214" y1="52.4583" x2="49.6289" y2="52.4583" gradientUnits="userSpaceOnUse">
<stop stop-color="#388CF4"/>
<stop offset="1" stop-color="#2C7CEF"/>
</linearGradient>
<linearGradient id="paint13_linear" x1="34.748" y1="55.1997" x2="54.107" y2="55.1997" gradientUnits="userSpaceOnUse">
<stop stop-color="#76C0FD"/>
<stop offset="1" stop-color="#63B2FB"/>
</linearGradient>
</defs>
</svg>
