<svg width="103" height="103" viewBox="0 0 103 103" fill="none" xmlns="http://www.w3.org/2000/svg">
<path d="M51.6387 98.4755C25.7887 98.4755 4.82874 77.5255 4.82874 51.6655C4.82874 25.8055 25.7887 4.85547 51.6387 4.85547C77.4887 4.85547 98.4487 25.8155 98.4487 51.6655C98.4487 77.5155 77.4887 98.4755 51.6387 98.4755Z" fill="url(#paint0_linear)"/>
<path fill-rule="evenodd" clip-rule="evenodd" d="M97.5388 51.6654C97.5388 77.0154 76.9888 97.5654 51.6388 97.5654C26.2888 97.5654 5.73878 77.0154 5.73878 51.6654C5.73878 26.3154 26.2888 5.76539 51.6388 5.76539C76.9888 5.76539 97.5388 26.3154 97.5388 51.6654ZM51.6388 2.02539C79.0588 2.02539 101.279 24.2454 101.279 51.6654C101.279 79.0854 79.0488 101.305 51.6388 101.305C24.2188 101.305 1.99878 79.0754 1.99878 51.6654C1.99878 24.2454 24.2188 2.02539 51.6388 2.02539Z" fill="#F2F1F0"/>
<path fill-rule="evenodd" clip-rule="evenodd" d="M94.7288 51.6655C94.7288 75.4655 75.4388 94.7554 51.6388 94.7554C27.8388 94.7554 8.54884 75.4655 8.54884 51.6655C8.54884 27.8655 27.8388 8.57545 51.6388 8.57545C75.4388 8.57545 94.7288 27.8655 94.7288 51.6655ZM51.6388 4.83545C77.4988 4.83545 98.4688 25.8055 98.4688 51.6655C98.4688 77.5255 77.4988 98.4955 51.6388 98.4955C25.7788 98.4955 4.80884 77.5255 4.80884 51.6655C4.80884 25.8055 25.7688 4.83545 51.6388 4.83545Z" fill="url(#paint1_linear)"/>
<path opacity="0.15" d="M23.6687 77.7957H80.7887C82.3887 77.7957 83.6887 76.4957 83.6887 74.8957V29.3457H20.7687V74.8957C20.7687 76.5057 22.0687 77.7957 23.6687 77.7957Z" fill="#1F1D20"/>
<path d="M21.9687 75.1556H82.4887C83.1487 75.1556 83.6887 74.6156 83.6887 73.9556V26.7056H20.7687V73.9556C20.7687 74.6156 21.3087 75.1556 21.9687 75.1556Z" fill="#EBEBEB"/>
<path d="M20.7687 31.9355H83.6887V26.2955C83.6887 25.7855 83.2787 25.3755 82.7687 25.3755H21.6887C21.1787 25.3755 20.7687 25.7855 20.7687 26.2955V31.9355Z" fill="#092E4C"/>
<path d="M25.6087 30.3853C26.4887 30.3853 27.2087 29.6753 27.2087 28.7853C27.2087 27.8953 26.4787 27.1953 25.6087 27.1953C24.7287 27.1953 24.0087 27.9053 24.0087 28.7953C24.0087 29.6853 24.7087 30.3853 25.6087 30.3853Z" fill="url(#paint2_linear)"/>
<path opacity="0.15" d="M56.933 70.4099C66.0595 68.253 71.6837 58.9971 69.4951 49.7362C67.3064 40.4754 58.1337 34.7165 49.0072 36.8734C39.8808 39.0303 34.2566 48.2862 36.4452 57.547C38.6338 66.8079 47.8066 72.5668 56.933 70.4099Z" fill="#1F1D20"/>
<path d="M55.5524 69.5469C64.7703 67.3684 70.451 58.0209 68.2408 48.6687C66.0305 39.3165 56.7663 33.501 47.5484 35.6795C38.3306 37.858 32.6498 47.2055 34.86 56.5577C37.0703 65.9099 46.3346 71.7254 55.5524 69.5469Z" fill="#EBEBEB"/>
<path d="M37.5488 63.2556C39.5488 66.4056 42.2188 68.3156 45.4188 69.4956C48.2188 70.5256 51.2188 70.8956 54.3888 70.3756C56.6688 70.0056 58.5288 68.8956 60.2088 67.8356L59.1988 66.3556C59.1288 66.4056 59.0588 66.4556 58.9888 66.4956C54.5388 69.2356 48.8588 68.9556 44.4688 66.8156C42.0188 65.6256 40.2088 64.1256 38.6688 61.5756C37.9788 60.4256 37.4488 58.9756 37.0888 57.7456L36.0688 59.8756C36.5188 61.1456 36.7988 62.0756 37.5488 63.2556Z" fill="white"/>
<path d="M33.9088 50.5455C34.6388 42.6255 40.5688 36.0055 48.2888 34.5755C59.4688 32.4955 69.4788 41.0755 69.6788 52.2255C69.8088 59.5455 65.3288 66.1155 58.7488 69.0955C55.9988 70.3355 53.3388 70.7255 50.8188 70.5555L50.8588 71.6555C50.8688 71.9955 50.5188 72.2155 50.2288 72.0555L45.8088 69.6355C45.5188 69.4755 45.4988 69.0555 45.7788 68.8755L50.0088 66.2355C50.2888 66.0555 50.6588 66.2555 50.6688 66.5955L50.7288 68.3255C51.3188 68.3755 51.9088 68.4055 52.5088 68.3855C61.0088 68.0755 67.6088 60.7755 67.2388 52.0855C66.8788 43.3955 59.6888 36.5955 51.1888 36.9055C42.6888 37.2155 36.0888 44.5155 36.4588 53.2055C36.5788 56.1055 37.4688 58.7955 38.8988 61.0755C39.1788 61.5255 39.1388 62.1055 38.7588 62.4855C38.1688 63.0655 37.1988 62.9555 36.7388 62.2555C34.6288 58.9455 33.5088 54.9055 33.9088 50.5455Z" fill="url(#paint3_linear)"/>
<path opacity="0.15" d="M63.5488 52.2852L60.2788 48.6052L60.2688 48.6152L56.5288 44.3952V44.3052H43.2288C42.4388 44.3052 42.0188 45.2452 42.5488 45.8352L48.8488 52.8552L42.4988 59.9452C42.0288 60.4752 42.3988 61.3152 43.1088 61.3152H48.9488H56.1788C56.3388 61.3152 56.4788 61.2552 56.5888 61.1352L63.5388 53.5652C63.8688 53.1952 63.8788 52.6452 63.5488 52.2852Z" fill="#1F1D20"/>
<path d="M56.5688 49.0754L49.7488 53.0554L42.5788 45.0754C42.0488 44.4854 42.4688 43.5454 43.2588 43.5454H56.5588L56.5688 49.0754Z" fill="url(#paint4_linear)"/>
<path d="M60.3488 47.9052L56.5088 43.5752L42.5288 59.1852C42.0588 59.7152 42.4288 60.5552 43.1388 60.5552H48.9788L60.3488 47.9052Z" fill="url(#paint5_linear)"/>
<path d="M63.5888 51.5252L60.3188 47.8452L48.7888 60.5552H56.2188C56.3788 60.5552 56.5188 60.4952 56.6288 60.3752L63.5788 52.8052C63.9088 52.4452 63.9088 51.8952 63.5888 51.5252Z" fill="url(#paint6_linear)"/>
<path d="M37.0288 61.1052C37.4188 60.6152 38.1488 60.5252 38.6488 60.9152C39.1488 61.3052 39.2288 62.0152 38.8388 62.5052C38.4488 62.9952 37.7188 63.0852 37.2188 62.6952C36.7188 62.3052 36.6288 61.5952 37.0288 61.1052Z" fill="url(#paint7_linear)"/>
<path d="M51.4387 34.8056C51.8987 34.2256 52.7387 34.1256 53.3187 34.5756C53.8987 35.0256 53.9987 35.8556 53.5387 36.4356C53.0787 37.0156 52.2387 37.1156 51.6587 36.6656C51.0787 36.2056 50.9787 35.3756 51.4387 34.8056Z" fill="url(#paint8_linear)"/>
<path d="M52.0588 68.8355C52.4188 68.3855 53.0688 68.3155 53.5188 68.6555C53.9688 69.0055 54.0488 69.6455 53.6888 70.0955C53.3288 70.5455 52.6788 70.6155 52.2288 70.2755C51.7788 69.9355 51.7088 69.2755 52.0588 68.8355Z" fill="url(#paint9_linear)"/>
<defs>
<linearGradient id="paint0_linear" x1="6.86204" y1="-11.8074" x2="84.2478" y2="97.8933" gradientUnits="userSpaceOnUse">
<stop stop-color="#97C3F9"/>
<stop offset="0.4975" stop-color="#388CF4"/>
<stop offset="1" stop-color="#2C7CEF"/>
</linearGradient>
<linearGradient id="paint1_linear" x1="44.1384" y1="5.20465" x2="57.7447" y2="89.4881" gradientUnits="userSpaceOnUse">
<stop offset="0.0829" stop-color="#1152D4"/>
<stop offset="0.4296" stop-color="#0D40B5"/>
<stop offset="0.706" stop-color="#0D3FB1"/>
<stop offset="1" stop-color="#092D7F"/>
</linearGradient>
<linearGradient id="paint2_linear" x1="24.0096" y1="28.7885" x2="27.2096" y2="28.7885" gradientUnits="userSpaceOnUse">
<stop stop-color="#76C0FD"/>
<stop offset="1" stop-color="#63B2FB"/>
</linearGradient>
<linearGradient id="paint3_linear" x1="66.6045" y1="34.2418" x2="32.5983" y2="75.6357" gradientUnits="userSpaceOnUse">
<stop stop-color="#388CF4"/>
<stop offset="1" stop-color="#2C7CEF"/>
</linearGradient>
<linearGradient id="paint4_linear" x1="43.2385" y1="38.9696" x2="58.7463" y2="53.5604" gradientUnits="userSpaceOnUse">
<stop offset="0.4598" stop-color="#1152D4"/>
<stop offset="0.6156" stop-color="#0D3FB3"/>
</linearGradient>
<linearGradient id="paint5_linear" x1="42.3212" y1="52.0651" x2="60.3492" y2="52.0651" gradientUnits="userSpaceOnUse">
<stop stop-color="#388CF4"/>
<stop offset="1" stop-color="#2C7CEF"/>
</linearGradient>
<linearGradient id="paint6_linear" x1="48.7859" y1="54.1989" x2="63.8278" y2="54.1989" gradientUnits="userSpaceOnUse">
<stop stop-color="#76C0FD"/>
<stop offset="1" stop-color="#63B2FB"/>
</linearGradient>
<linearGradient id="paint7_linear" x1="38.8256" y1="62.5074" x2="37.0307" y2="61.095" gradientUnits="userSpaceOnUse">
<stop stop-color="#76C0FD"/>
<stop offset="1" stop-color="#63B2FB"/>
</linearGradient>
<linearGradient id="paint8_linear" x1="53.5347" y1="36.436" x2="51.4436" y2="34.7906" gradientUnits="userSpaceOnUse">
<stop stop-color="#76C0FD"/>
<stop offset="1" stop-color="#63B2FB"/>
</linearGradient>
<linearGradient id="paint9_linear" x1="53.6858" y1="70.1007" x2="52.0674" y2="68.8272" gradientUnits="userSpaceOnUse">
<stop stop-color="#76C0FD"/>
<stop offset="1" stop-color="#63B2FB"/>
</linearGradient>
</defs>
</svg>
