<svg width="103" height="103" viewBox="0 0 103 103" fill="none" xmlns="http://www.w3.org/2000/svg">
<path d="M51.3005 98.1632C25.4505 98.1632 4.49048 77.2132 4.49048 51.3532C4.49048 25.4932 25.4505 4.54321 51.3005 4.54321C77.1505 4.54321 98.1105 25.5032 98.1105 51.3532C98.1105 77.2032 77.1505 98.1632 51.3005 98.1632Z" fill="url(#paint0_linear)"/>
<path fill-rule="evenodd" clip-rule="evenodd" d="M97.2005 51.3534C97.2005 76.7034 76.6505 97.2534 51.3005 97.2534C25.9505 97.2534 5.40052 76.7034 5.40052 51.3534C5.40052 26.0034 25.9505 5.45338 51.3005 5.45338C76.6505 5.45338 97.2005 26.0034 97.2005 51.3534ZM51.3005 1.71338C78.7205 1.71338 100.941 23.9334 100.941 51.3534C100.941 78.7734 78.7105 100.993 51.3005 100.993C23.8805 100.993 1.66052 78.7634 1.66052 51.3534C1.66052 23.9334 23.8805 1.71338 51.3005 1.71338Z" fill="#F2F1F0"/>
<path fill-rule="evenodd" clip-rule="evenodd" d="M94.3906 51.3532C94.3906 75.1532 75.1006 94.4432 51.3006 94.4432C27.5006 94.4432 8.21058 75.1532 8.21058 51.3532C8.21058 27.5532 27.5006 8.26319 51.3006 8.26319C75.1006 8.26319 94.3906 27.5532 94.3906 51.3532ZM51.3006 4.52319C77.1606 4.52319 98.1306 25.4932 98.1306 51.3532C98.1306 77.2132 77.1606 98.1832 51.3006 98.1832C25.4406 98.1832 4.47058 77.2132 4.47058 51.3532C4.47058 25.4932 25.4306 4.52319 51.3006 4.52319Z" fill="url(#paint1_linear)"/>
<path opacity="0.15" d="M22.8305 76.8533H79.9505C81.5505 76.8533 82.8505 75.5533 82.8505 73.9533V28.4033H19.9305V73.9533C19.9305 75.5533 21.2305 76.8533 22.8305 76.8533Z" fill="#1F1D20"/>
<path d="M21.5505 74.2034H81.2405C82.1305 74.2034 82.8505 73.4834 82.8505 72.5934V26.1734C82.8505 25.9434 82.6605 25.7634 82.4405 25.7634H20.3505C20.1205 25.7634 19.9405 25.9534 19.9405 26.1734V72.5934C19.9305 73.4834 20.6605 74.2034 21.5505 74.2034Z" fill="#EBEBEB"/>
<path d="M19.9305 30.9833H82.8505V25.3433C82.8505 24.8333 82.4405 24.4233 81.9305 24.4233H20.8505C20.3405 24.4233 19.9305 24.8333 19.9305 25.3433V30.9833Z" fill="#092E4C"/>
<path d="M24.7705 29.4334C25.6505 29.4334 26.3705 28.7234 26.3705 27.8334C26.3705 26.9434 25.6405 26.2434 24.7705 26.2434C23.8905 26.2434 23.1705 26.9534 23.1705 27.8434C23.1705 28.7334 23.8705 29.4334 24.7705 29.4334Z" fill="url(#paint2_linear)"/>
<path opacity="0.15" d="M54.2805 69.4834H30.2905C29.8805 69.4834 29.5405 69.1434 29.5405 68.7334V36.6934C29.5405 36.2834 29.8805 35.9434 30.2905 35.9434H47.4605L54.9805 43.9834L55.0305 44.0034V68.7434C55.0305 69.1534 54.6905 69.4834 54.2805 69.4834Z" fill="#1F1D20"/>
<path d="M72.2805 55.7134H60.7805V56.7134H72.2805V55.7134Z" fill="white"/>
<path d="M72.2805 46.5432H60.7805V47.5432H72.2805V46.5432Z" fill="white"/>
<path d="M72.2805 65.8733H60.7805C60.5005 65.8733 60.2805 65.6533 60.2805 65.3733V37.8733C60.2805 37.5933 60.5005 37.3733 60.7805 37.3733H72.2805V38.3733H61.2805V64.8733H72.2805V65.8733Z" fill="white"/>
<path d="M60.6305 51.1433H52.3905V52.1433H60.6305V51.1433Z" fill="white"/>
<path d="M75.1905 35.2034H70.3505L69.9305 34.7534H67.6705V40.4634H75.2005V35.2034H75.1905Z" fill="#092E4C"/>
<path d="M75.6005 36.0334H67.6105C67.4905 36.0334 67.4005 36.1234 67.4005 36.2434V42.0034C67.4005 42.1134 67.4905 42.2034 67.6005 42.2034H75.6005C75.7105 42.2034 75.8005 42.1134 75.8005 42.0034V36.2434C75.8105 36.1334 75.7205 36.0334 75.6005 36.0334Z" fill="url(#paint3_linear)"/>
<path d="M75.1905 43.9932H70.3505L69.9305 43.5432H67.6705V49.2532H75.2005V43.9932H75.1905Z" fill="url(#paint4_linear)"/>
<path d="M75.6505 44.8232H67.5705C67.4805 44.8232 67.4105 44.8932 67.4105 44.9832V50.7832C67.4105 50.8932 67.5005 50.9832 67.6105 50.9832H75.6105C75.7205 50.9832 75.8105 50.8932 75.8105 50.7832V44.9832C75.8105 44.8932 75.7405 44.8232 75.6505 44.8232Z" fill="url(#paint5_linear)"/>
<path d="M75.1905 52.7732H70.3505L69.9305 52.3232H67.6705V58.0332H75.2005V52.7732H75.1905Z" fill="url(#paint6_linear)"/>
<path d="M75.6005 53.6033H67.6205C67.5005 53.6033 67.4105 53.7033 67.4105 53.8133V59.5633C67.4105 59.6733 67.5005 59.7633 67.6105 59.7633H75.6105C75.7205 59.7633 75.8105 59.6733 75.8105 59.5633V53.8133C75.8105 53.7033 75.7205 53.6033 75.6005 53.6033Z" fill="url(#paint7_linear)"/>
<path d="M75.1905 61.5633H70.3505L69.9305 61.1133H67.6705V66.8233H75.2005V61.5633H75.1905Z" fill="url(#paint8_linear)"/>
<path d="M75.6205 62.3933H67.6005C67.4905 62.3933 67.4105 62.4833 67.4105 62.5833V68.3533C67.4105 68.4633 67.5005 68.5533 67.6105 68.5533H75.6105C75.7205 68.5533 75.8105 68.4633 75.8105 68.3533V62.5733C75.8105 62.4733 75.7305 62.3933 75.6205 62.3933Z" fill="#50E6FF"/>
<path d="M54.2805 68.3532H30.2905C29.8805 68.3532 29.5405 68.0132 29.5405 67.6032V35.5532C29.5405 35.1432 29.8805 34.8032 30.2905 34.8032H47.4605L54.9805 42.8432L55.0305 42.8632V67.6032C55.0305 68.0132 54.6905 68.3532 54.2805 68.3532Z" fill="url(#paint9_linear)"/>
<path d="M55.0306 42.8732H47.4606V34.8132L55.0306 42.8732Z" fill="url(#paint10_linear)"/>
<defs>
<linearGradient id="paint0_linear" x1="6.52378" y1="-12.1197" x2="83.9096" y2="97.581" gradientUnits="userSpaceOnUse">
<stop stop-color="#97C3F9"/>
<stop offset="0.4975" stop-color="#388CF4"/>
<stop offset="1" stop-color="#2C7CEF"/>
</linearGradient>
<linearGradient id="paint1_linear" x1="43.8002" y1="4.89239" x2="57.4065" y2="89.1758" gradientUnits="userSpaceOnUse">
<stop offset="0.0829" stop-color="#1152D4"/>
<stop offset="0.4296" stop-color="#0D40B5"/>
<stop offset="0.706" stop-color="#0D3FB1"/>
<stop offset="1" stop-color="#092D7F"/>
</linearGradient>
<linearGradient id="paint2_linear" x1="23.1753" y1="27.8388" x2="26.3753" y2="27.8388" gradientUnits="userSpaceOnUse">
<stop stop-color="#76C0FD"/>
<stop offset="1" stop-color="#63B2FB"/>
</linearGradient>
<linearGradient id="paint3_linear" x1="63.5649" y1="32.6061" x2="84.8179" y2="49.8182" gradientUnits="userSpaceOnUse">
<stop offset="0.4598" stop-color="#1152D4"/>
<stop offset="0.6156" stop-color="#0D3FB3"/>
</linearGradient>
<linearGradient id="paint4_linear" x1="65.5542" y1="44.3697" x2="78.2095" y2="49.2232" gradientUnits="userSpaceOnUse">
<stop offset="0.4598" stop-color="#1152D4"/>
<stop offset="0.6156" stop-color="#0D3FB3"/>
</linearGradient>
<linearGradient id="paint5_linear" x1="67.4057" y1="47.9044" x2="75.8134" y2="47.9044" gradientUnits="userSpaceOnUse">
<stop stop-color="#388CF4"/>
<stop offset="1" stop-color="#2C7CEF"/>
</linearGradient>
<linearGradient id="paint6_linear" x1="65.5542" y1="53.1552" x2="78.2095" y2="58.0087" gradientUnits="userSpaceOnUse">
<stop offset="0.4598" stop-color="#1152D4"/>
<stop offset="0.6156" stop-color="#0D3FB3"/>
</linearGradient>
<linearGradient id="paint7_linear" x1="67.4057" y1="56.6899" x2="75.8134" y2="56.6899" gradientUnits="userSpaceOnUse">
<stop stop-color="#76C0FD"/>
<stop offset="1" stop-color="#63B2FB"/>
</linearGradient>
<linearGradient id="paint8_linear" x1="65.5542" y1="61.9408" x2="78.2095" y2="66.7943" gradientUnits="userSpaceOnUse">
<stop offset="0.4598" stop-color="#1152D4"/>
<stop offset="0.6156" stop-color="#0D3FB3"/>
</linearGradient>
<linearGradient id="paint9_linear" x1="29.5421" y1="51.5796" x2="55.0267" y2="51.5796" gradientUnits="userSpaceOnUse">
<stop stop-color="#76C0FD"/>
<stop offset="1" stop-color="#63B2FB"/>
</linearGradient>
<linearGradient id="paint10_linear" x1="40.6982" y1="33.3775" x2="61.8137" y2="50.4323" gradientUnits="userSpaceOnUse">
<stop offset="0.4598" stop-color="#1152D4"/>
<stop offset="0.6156" stop-color="#0D3FB3"/>
</linearGradient>
</defs>
</svg>
