<svg width="103" height="103" viewBox="0 0 103 103" fill="none" xmlns="http://www.w3.org/2000/svg">
<path d="M51.7327 98.578C25.8827 98.578 4.92273 77.628 4.92273 51.768C4.92273 25.908 25.8827 4.95801 51.7327 4.95801C77.5827 4.95801 98.5427 25.918 98.5427 51.768C98.5427 77.618 77.5827 98.578 51.7327 98.578Z" fill="url(#paint0_linear)"/>
<path fill-rule="evenodd" clip-rule="evenodd" d="M97.6328 51.7679C97.6328 77.1179 77.0828 97.6679 51.7328 97.6679C26.3828 97.6679 5.83277 77.1179 5.83277 51.7679C5.83277 26.4179 26.3828 5.86793 51.7328 5.86793C77.0828 5.86793 97.6328 26.4179 97.6328 51.7679ZM51.7328 2.12793C79.1528 2.12793 101.373 24.3479 101.373 51.7679C101.373 79.1879 79.1428 101.408 51.7328 101.408C24.3128 101.408 2.09277 79.1779 2.09277 51.7679C2.09277 24.3479 24.3128 2.12793 51.7328 2.12793Z" fill="#F2F1F0"/>
<path fill-rule="evenodd" clip-rule="evenodd" d="M94.8228 51.768C94.8228 75.568 75.5328 94.858 51.7328 94.858C27.9328 94.858 8.64283 75.568 8.64283 51.768C8.64283 27.968 27.9328 8.67799 51.7328 8.67799C75.5328 8.67799 94.8228 27.968 94.8228 51.768ZM51.7328 4.93799C77.5928 4.93799 98.5628 25.908 98.5628 51.768C98.5628 77.628 77.5928 98.598 51.7328 98.598C25.8728 98.598 4.90283 77.628 4.90283 51.768C4.90283 25.908 25.8628 4.93799 51.7328 4.93799Z" fill="url(#paint1_linear)"/>
<path opacity="0.15" d="M23.0827 77.9383H80.2027C81.8027 77.9383 83.1027 76.6383 83.1027 75.0383V29.4883H20.1827V75.0383C20.1827 76.6383 21.4827 77.9383 23.0827 77.9383Z" fill="#1F1D20"/>
<path d="M21.3827 75.2981H81.9027C82.5627 75.2981 83.1027 74.7581 83.1027 74.0981V26.8481H20.1827V74.0981C20.1827 74.7581 20.7227 75.2981 21.3827 75.2981Z" fill="#EBEBEB"/>
<path d="M20.1827 32.0781H83.1027V26.4381C83.1027 25.9281 82.6927 25.5181 82.1827 25.5181H21.1027C20.5927 25.5181 20.1827 25.9281 20.1827 26.4381V32.0781Z" fill="url(#paint2_linear)"/>
<path d="M25.0227 30.5279C25.9027 30.5279 26.6227 29.8179 26.6227 28.9279C26.6227 28.0379 25.8927 27.3379 25.0227 27.3379C24.1427 27.3379 23.4227 28.0479 23.4227 28.9379C23.4227 29.8279 24.1227 30.5279 25.0227 30.5279Z" fill="url(#paint3_linear)"/>
<path d="M61.3028 46.8082C60.4128 45.6882 58.6728 45.5782 57.4128 46.5782C57.2328 46.7182 57.0728 46.8882 56.9328 47.0582C56.5128 47.4882 55.9128 48.1982 55.1628 49.3382C54.6828 50.0482 54.1128 50.8082 53.5128 51.5582C53.4128 51.1882 53.3228 50.8682 53.2428 50.6082C52.7128 48.8382 51.8728 47.3182 51.0028 46.7382C50.1328 46.1582 48.8628 46.1182 47.2128 46.2682C45.5628 46.4182 44.5428 46.9982 43.8228 47.4482C43.1728 47.8482 43.0528 48.8982 44.0728 48.7082C45.0928 48.5182 46.3828 47.9882 47.3128 49.2782C48.2428 50.5682 48.7928 52.7182 49.2028 54.4382C49.2028 54.4582 49.3628 55.1182 49.5828 56.0182C48.7828 56.8682 48.2028 57.4682 48.1028 57.6082C47.6428 58.2282 46.7328 57.9382 45.5028 57.5982C44.5728 57.3782 43.5428 57.4482 42.7228 58.0982C41.4628 59.0982 41.1728 60.8082 42.0628 61.9382C42.6928 62.7282 43.7428 63.0082 44.7428 62.7682C45.1128 62.7182 45.5928 62.5182 46.1728 61.9882C46.2228 61.9382 46.2928 61.8782 46.3528 61.7982C46.3728 61.7782 46.3828 61.7582 46.4028 61.7382C46.9428 61.1082 47.8928 59.7582 49.0028 58.4782C49.3028 58.1282 49.6128 57.7782 49.9328 57.4182C50.2328 58.6182 50.5628 59.8682 50.7628 60.4882C51.2228 61.8682 52.3828 62.7182 54.3028 62.8282C56.2228 62.9382 59.2428 62.2482 59.8628 61.3382C60.4828 60.4282 59.8128 60.4582 59.5328 60.5382C58.9528 60.6882 58.0228 60.7282 57.5528 60.7282C57.0828 60.7282 55.7128 60.3782 55.3528 58.7382C55.1028 57.6082 54.4528 55.0582 53.9028 52.9882C54.7628 52.0382 55.3828 51.3582 55.5228 51.2082C55.9328 50.7482 57.3828 51.1682 58.2328 51.3182C58.2728 51.3282 58.3128 51.3382 58.3528 51.3382C58.4728 51.3582 58.5828 51.3682 58.6728 51.3682C58.7228 51.3682 58.7728 51.3682 58.8228 51.3682C59.4528 51.3482 60.1028 51.1282 60.6628 50.6882C61.9028 49.6582 62.1928 47.9382 61.3028 46.8082Z" fill="url(#paint4_linear)"/>
<path d="M37.9129 43.1182C37.9129 43.1182 35.4629 47.2482 35.3829 53.4682C35.3029 59.6882 38.6629 65.7082 38.6629 65.7082L36.1729 65.8782C36.1729 65.8782 31.5229 61.4782 31.7329 53.4282C31.9429 45.3782 35.2629 43.1182 35.2629 43.1182C35.2629 43.1182 37.9129 43.1982 37.9129 43.1182Z" fill="url(#paint5_linear)"/>
<path d="M65.3728 43.1182C65.3728 43.1182 67.8228 47.2482 67.9028 53.4682C67.9828 59.6882 64.6228 65.7082 64.6228 65.7082L67.1128 65.8782C67.1128 65.8782 71.7628 61.4782 71.5528 53.4282C71.3428 45.3782 68.0228 43.1182 68.0228 43.1182C68.0228 43.1182 65.3728 43.1982 65.3728 43.1182Z" fill="url(#paint6_linear)"/>
<defs>
<linearGradient id="paint0_linear" x1="6.95603" y1="-11.7049" x2="84.3418" y2="97.9958" gradientUnits="userSpaceOnUse">
<stop stop-color="#97C3F9"/>
<stop offset="0.4975" stop-color="#388CF4"/>
<stop offset="1" stop-color="#2C7CEF"/>
</linearGradient>
<linearGradient id="paint1_linear" x1="44.2324" y1="5.30719" x2="57.8387" y2="89.5906" gradientUnits="userSpaceOnUse">
<stop offset="0.0829" stop-color="#1152D4"/>
<stop offset="0.4296" stop-color="#0D40B5"/>
<stop offset="0.706" stop-color="#0D3FB1"/>
<stop offset="1" stop-color="#092D7F"/>
</linearGradient>
<linearGradient id="paint2_linear" x1="7.82774" y1="4.83557" x2="129.907" y2="72.1112" gradientUnits="userSpaceOnUse">
<stop offset="0.4598" stop-color="#1152D4"/>
<stop offset="0.6156" stop-color="#0D3FB3"/>
</linearGradient>
<linearGradient id="paint3_linear" x1="23.4232" y1="28.929" x2="26.6232" y2="28.929" gradientUnits="userSpaceOnUse">
<stop stop-color="#76C0FD"/>
<stop offset="1" stop-color="#63B2FB"/>
</linearGradient>
<linearGradient id="paint4_linear" x1="5.36661" y1="28.8407" x2="108.978" y2="85.9395" gradientUnits="userSpaceOnUse">
<stop offset="0.4598" stop-color="#1152D4"/>
<stop offset="0.6156" stop-color="#0D3FB3"/>
</linearGradient>
<linearGradient id="paint5_linear" x1="1.90196" y1="35.1278" x2="105.514" y2="92.2265" gradientUnits="userSpaceOnUse">
<stop offset="0.4598" stop-color="#1152D4"/>
<stop offset="0.6156" stop-color="#0D3FB3"/>
</linearGradient>
<linearGradient id="paint6_linear" x1="8.7588" y1="22.6852" x2="112.371" y2="79.784" gradientUnits="userSpaceOnUse">
<stop offset="0.4598" stop-color="#1152D4"/>
<stop offset="0.6156" stop-color="#0D3FB3"/>
</linearGradient>
</defs>
</svg>
