<svg width="103" height="103" viewBox="0 0 103 103" fill="none" xmlns="http://www.w3.org/2000/svg">
<path d="M51.4948 98.308C25.6448 98.308 4.68481 77.358 4.68481 51.498C4.68481 25.638 25.6448 4.68799 51.4948 4.68799C77.3448 4.68799 98.3048 25.648 98.3048 51.498C98.3048 77.348 77.3448 98.308 51.4948 98.308Z" fill="url(#paint0_linear)"/>
<path fill-rule="evenodd" clip-rule="evenodd" d="M97.3949 51.4979C97.3949 76.8479 76.8449 97.3979 51.4949 97.3979C26.1449 97.3979 5.59486 76.8479 5.59486 51.4979C5.59486 26.1479 26.1449 5.59791 51.4949 5.59791C76.8449 5.59791 97.3949 26.1479 97.3949 51.4979ZM51.4949 1.85791C78.9149 1.85791 101.135 24.0779 101.135 51.4979C101.135 78.9179 78.9049 101.138 51.4949 101.138C24.0749 101.138 1.85486 78.9079 1.85486 51.4979C1.85486 24.0779 24.0749 1.85791 51.4949 1.85791Z" fill="#F2F1F0"/>
<path fill-rule="evenodd" clip-rule="evenodd" d="M94.5849 51.498C94.5849 75.298 75.2949 94.588 51.4949 94.588C27.6949 94.588 8.40492 75.298 8.40492 51.498C8.40492 27.698 27.6949 8.40797 51.4949 8.40797C75.2949 8.40797 94.5849 27.698 94.5849 51.498ZM51.4949 4.66797C77.3549 4.66797 98.3249 25.638 98.3249 51.498C98.3249 77.358 77.3549 98.328 51.4949 98.328C25.6349 98.328 4.66492 77.358 4.66492 51.498C4.66492 25.638 25.6249 4.66797 51.4949 4.66797Z" fill="url(#paint1_linear)"/>
<path d="M80.0249 29.6382H24.0649C22.9249 29.6382 21.9849 30.5282 21.9849 31.6082V70.1582C21.9849 71.2382 22.9149 71.1282 24.0649 71.1282H80.0249C81.1649 71.1282 82.1049 71.2382 82.1049 70.1582V31.6182C82.1049 30.5182 81.1749 29.6382 80.0249 29.6382Z" fill="#EBEBEB"/>
<path d="M82.2349 26.9082H21.8649C20.6249 26.9082 19.6249 27.9082 19.6249 29.1482V71.7882C19.6249 73.0282 20.6249 74.0282 21.8649 74.0282H82.2249C83.4649 74.0282 84.4649 73.0282 84.4649 71.7882V29.1482C84.4649 27.9082 83.4649 26.9082 82.2349 26.9082ZM24.5849 29.5082H79.5049C80.6249 29.5082 81.5449 30.3682 81.5449 31.4382V34.0582L58.5049 58.0882C57.0649 59.5982 55.1549 60.4382 53.1249 60.4782C51.1549 60.5082 49.1749 59.7282 47.6849 58.2782L22.5549 33.8182V31.4482C22.5549 30.3782 23.4649 29.5082 24.5849 29.5082ZM81.5449 37.0682V66.3182L66.0049 53.2682L81.5449 37.0682ZM39.6449 53.3282L22.5549 67.4982V36.6382L39.6449 53.3282ZM79.5049 71.2082H24.5849C23.7549 71.2082 23.0349 70.7282 22.7249 70.0482L41.1349 54.7882L46.2249 59.7582C48.0749 61.5582 50.4649 62.5482 52.9949 62.5482C53.0449 62.5482 53.1049 62.5482 53.1549 62.5482C55.7449 62.5082 58.1749 61.4282 60.0049 59.5282L64.5649 54.7682L81.5449 69.0482V69.2682C81.5449 70.3382 80.6249 71.2082 79.5049 71.2082Z" fill="url(#paint2_linear)"/>
<path opacity="0.15" d="M82.2249 74.0281H21.8649C20.6249 74.0281 19.6249 73.0281 19.6249 71.7881V73.4581C19.6249 74.6781 20.6249 75.6881 21.8649 75.6981H82.2249C83.4649 75.6981 84.4649 74.6981 84.4649 73.4581V71.7881C84.4649 73.0181 83.4649 74.0281 82.2249 74.0281Z" fill="#1F1D20"/>
<defs>
<linearGradient id="paint0_linear" x1="6.71812" y1="-11.9749" x2="84.1039" y2="97.7258" gradientUnits="userSpaceOnUse">
<stop stop-color="#97C3F9"/>
<stop offset="0.4975" stop-color="#388CF4"/>
<stop offset="1" stop-color="#2C7CEF"/>
</linearGradient>
<linearGradient id="paint1_linear" x1="43.9945" y1="5.03717" x2="57.6008" y2="89.3206" gradientUnits="userSpaceOnUse">
<stop offset="0.0829" stop-color="#1152D4"/>
<stop offset="0.4296" stop-color="#0D40B5"/>
<stop offset="0.706" stop-color="#0D3FB1"/>
<stop offset="1" stop-color="#092D7F"/>
</linearGradient>
<linearGradient id="paint2_linear" x1="49.3588" y1="21.9329" x2="56.4881" y2="97.6138" gradientUnits="userSpaceOnUse">
<stop stop-color="#6A6A6A"/>
<stop offset="1" stop-color="#343333"/>
</linearGradient>
</defs>
</svg>
