<svg width="181" height="191" viewBox="0 0 181 191" fill="none" xmlns="http://www.w3.org/2000/svg">
<path d="M90.5391 189.55C93.5991 189.55 96.6091 188.7 99.2691 187.08L161.239 149.42C166.779 146.05 170.209 139.72 170.209 132.88V58.1704C170.209 51.3504 166.779 45.0104 161.239 41.6304L99.2691 3.97036C93.9391 0.730357 87.1191 0.750357 81.8191 3.97036L19.8491 41.6504C14.3091 45.0204 10.8591 51.3504 10.8591 58.1904V132.89C10.8591 138.65 13.3091 144.07 17.4091 147.64V147.67L81.8191 187.1C84.4591 188.7 87.4791 189.55 90.5391 189.55ZM91.1891 8.50036C93.1391 8.50036 95.6191 9.71036 97.3291 10.7604L158.089 47.9504C161.839 50.2304 163.959 56.8304 163.959 61.5804L163.329 132.88C163.329 137.63 160.129 141.9 156.379 144.18L95.9791 180.56C92.5491 182.65 89.7591 182.65 86.3191 180.56L25.1091 144.09C21.3591 141.81 18.3391 137.61 18.3391 132.88V59.2404C18.3391 54.5004 21.0691 49.6104 24.8391 47.3204L85.4191 10.7604C87.1191 9.72036 89.2391 8.50036 91.1891 8.50036Z" fill="#F2F1F0"/>
<path fill-rule="evenodd" clip-rule="evenodd" d="M98.4391 12.0803C95.9891 10.5803 93.2692 9.83032 90.5392 9.83032C87.8092 9.83032 85.0891 10.5903 82.6391 12.0803L26.5091 46.4103C21.4891 49.4803 18.3792 55.2303 18.3792 61.4803V129.58C18.3792 135.81 21.4791 141.58 26.5091 144.65L82.6391 178.98C85.0891 180.48 87.8092 181.23 90.5392 181.23C93.2692 181.23 95.9891 180.49 98.4391 178.98L154.569 144.65C159.589 141.58 162.699 135.81 162.699 129.58V61.4803C162.699 55.2503 159.599 49.5003 154.569 46.4103L98.4391 12.0803Z" fill="url(#paint0_linear)"/>
<path fill-rule="evenodd" clip-rule="evenodd" d="M90.5392 11.3003C92.2192 11.3003 94.1091 12.1703 96.1691 13.4203L154.639 48.9603C158.289 51.1803 160.699 55.4503 160.699 60.2803V130.76C160.699 135.58 158.289 139.86 154.639 142.08L96.1792 177.62C94.2192 178.81 92.2991 179.56 90.5491 179.56C88.7991 179.56 86.8791 178.81 84.9191 177.62L26.4391 142.09C24.4291 140.86 22.9791 139.66 21.9991 138.05C21.0191 136.45 20.3792 134.23 20.3792 130.77V60.2903C20.3792 55.4603 22.7891 51.1903 26.4391 48.9703L84.8992 13.4303C86.9892 12.1803 88.8492 11.3003 90.5392 11.3003ZM98.2491 181.05L156.709 145.51C161.629 142.52 164.689 136.9 164.689 130.77V60.2903C164.689 54.1603 161.629 48.5403 156.709 45.5503L98.2491 10.0103C96.1391 8.73029 93.4292 7.30029 90.5392 7.30029C87.6392 7.30029 84.9292 8.74029 82.8392 10.0003H82.8291L24.3591 45.5503C19.4391 48.5403 16.3792 54.1603 16.3792 60.2903V130.77C16.3792 134.73 17.1192 137.72 18.5792 140.13C20.0392 142.53 22.0991 144.13 24.3591 145.5L82.8192 181.04C85.0392 182.39 87.7091 183.57 90.5291 183.57C93.3491 183.57 96.0291 182.4 98.2491 181.05Z" fill="url(#paint1_linear)"/>
<g opacity="0.15">
<path opacity="0.15" d="M146.539 58.1503V134.89C146.539 137.02 144.809 138.76 142.669 138.76H38.4092C36.2792 138.76 34.5392 137.03 34.5392 134.89V58.1503C34.5392 56.0203 36.2692 54.2803 38.4092 54.2803H142.699C144.809 54.3003 146.539 56.0203 146.539 58.1503Z" fill="#1F1D20"/>
</g>
<path d="M146.539 56.9203V133.66C146.539 135.79 144.809 137.53 142.669 137.53H38.4092C36.2792 137.51 34.5392 135.8 34.5392 133.66V56.9203C34.5392 54.7903 36.2692 53.0503 38.4092 53.0503H142.699C144.809 53.0503 146.539 54.7803 146.539 56.9203Z" fill="url(#paint2_linear)"/>
<path d="M146.539 56.9203V133.66C146.539 135.79 144.809 137.53 142.669 137.53H38.4092C36.2792 137.51 34.5392 135.8 34.5392 133.66V56.9203C34.5392 54.7903 36.2692 53.0503 38.4092 53.0503H142.699C144.809 53.0503 146.539 54.7803 146.539 56.9203Z" fill="url(#paint3_linear)"/>
<path opacity="0.15" d="M139.659 64.3303V128.42C139.659 130.19 138.139 131.64 136.269 131.64H44.8092C42.9392 131.64 41.4192 130.19 41.4192 128.42V64.3303C41.4192 62.5603 42.9392 61.1103 44.8092 61.1103H136.269C138.139 61.0903 139.659 62.5403 139.659 64.3303Z" fill="#1F1D20"/>
<path d="M139.659 63.2403V127.33C139.659 129.1 138.139 130.55 136.269 130.55H44.8092C42.9392 130.55 41.4192 129.1 41.4192 127.33V63.2403C41.4192 61.4703 42.9392 60.0203 44.8092 60.0203H136.269C138.139 60.0203 139.659 61.4503 139.659 63.2403Z" fill="url(#paint4_linear)"/>
<path d="M75.7791 145.17L80.5991 135.72L88.1291 139.57L79.5691 107.15L67.2391 112.77L75.7791 145.17Z" fill="url(#paint5_linear)"/>
<path d="M64.7692 145.17L60.5191 136.48L52.1292 141.61L60.9692 107.15L73.3191 112.77L64.7692 145.17Z" fill="url(#paint6_linear)"/>
<path opacity="0.15" d="M91.2592 95.2704C91.2592 94.7904 90.8792 94.4104 90.3992 94.4104C90.0992 94.4104 88.1691 94.2404 87.1391 93.4404C87.1391 93.4404 87.1391 93.4204 87.1391 93.4404C86.7591 92.0104 86.1892 90.7004 85.4792 89.4404C85.3092 88.2404 86.5291 87.3804 87.0991 86.4504C87.1991 86.2804 87.2492 86.2004 87.2892 86.1304C87.3992 85.8304 87.3291 85.4804 87.0991 85.2304C87.0991 85.2304 86.1491 83.8804 85.1691 82.9004C84.1991 81.9304 82.7292 80.8604 82.7292 80.8604C82.4092 80.5404 81.8492 80.5404 81.5092 80.8604C81.2792 81.0704 79.8292 82.2904 78.5192 82.4804C78.4992 82.4804 78.4991 82.4804 78.4991 82.4804C77.2791 81.7904 75.9092 81.2204 74.5192 80.8204H74.4991C73.5391 80.0904 73.7792 78.6104 73.5392 77.5604C73.5392 77.0804 73.1591 76.7004 72.6791 76.7004C72.6791 76.7004 71.0391 76.4104 69.6691 76.4104C68.2991 76.4104 66.4891 76.7004 66.4891 76.7004C66.0091 76.7004 65.6291 77.0804 65.6291 77.5604C65.6291 77.8604 65.4592 79.7904 64.6592 80.8204C63.2892 81.2004 61.8591 81.8104 60.6591 82.4804C59.4591 82.6504 58.5992 81.4304 57.6692 80.8604C57.4992 80.7604 57.4192 80.7104 57.3492 80.6704C57.0492 80.5604 56.6992 80.6304 56.4492 80.8604C56.4492 80.8604 55.0992 81.8104 54.1192 82.7904C53.1492 83.7604 52.0792 85.2304 52.0792 85.2304C51.7592 85.5504 51.7592 86.1104 52.0792 86.4504C52.2892 86.6604 53.5292 88.1504 53.6992 89.4404V89.4604C53.0292 90.6804 52.4192 92.0904 52.0392 93.4604C52.0392 93.4604 52.0592 93.4404 52.0392 93.4604C51.1992 94.4704 49.8292 94.1804 48.7792 94.4304C48.2992 94.4304 47.9192 94.8104 47.9192 95.2904C47.9192 95.2904 47.6292 96.9304 47.6292 98.3004C47.6292 99.6704 47.9192 101.48 47.9192 101.48C47.9192 101.96 48.2992 102.34 48.7792 102.34C49.0792 102.34 51.0092 102.51 52.0392 103.31C52.0592 103.29 52.0592 103.33 52.0592 103.33C52.4592 104.7 53.0092 106.07 53.7192 107.28C53.6992 107.3 53.7192 107.28 53.7192 107.32C53.8292 108.56 52.6692 109.38 52.0992 110.31C51.9992 110.48 51.9491 110.56 51.9091 110.63C51.7991 110.93 51.8692 111.28 52.0992 111.53C52.0992 111.53 53.0492 112.88 54.0292 113.86C54.9992 114.83 56.4692 115.9 56.4692 115.9C56.7892 116.22 57.3492 116.22 57.6892 115.9C57.8992 115.69 59.3891 114.45 60.6791 114.28C60.6791 114.28 60.6792 114.28 60.6992 114.3C61.9392 114.99 63.2392 115.54 64.6492 115.92C64.6692 115.92 64.7091 115.94 64.7091 115.94C65.6791 116.66 65.4291 118.15 65.6791 119.2C65.7391 119.68 65.9992 119.98 66.5392 120.06C66.5392 120.06 68.1792 120.35 69.5492 120.35C70.9192 120.35 72.7292 120.06 72.7292 120.06C73.2092 119.98 73.5892 119.68 73.5892 119.2C73.5892 118.9 73.7591 116.97 74.5591 115.94C74.5591 115.94 74.5991 115.9 74.6391 115.88C76.0691 115.48 77.1591 115.04 78.4291 114.3C78.4891 114.28 78.4292 114.28 78.5792 114.26C79.7792 114.09 80.6391 115.31 81.5691 115.88C81.7391 115.98 81.8191 116.03 81.8891 116.07C82.1891 116.18 82.5392 116.11 82.7892 115.88C82.7892 115.88 84.1392 114.93 85.1192 113.95C86.0892 112.98 87.1592 111.51 87.1592 111.51C87.4792 111.19 87.4792 110.63 87.1592 110.29C86.9492 110.08 85.7092 108.59 85.5392 107.3C85.5192 107.17 85.5391 107.15 85.5591 107.11C86.2791 105.83 86.7391 104.9 87.1391 103.45C87.1391 103.45 87.1192 103.41 87.2192 103.28C87.9392 102.31 89.4292 102.56 90.4792 102.31C90.9592 102.31 91.3392 101.93 91.3392 101.45C91.3392 101.45 91.6291 99.8104 91.6291 98.4404C91.6291 97.0704 91.2592 95.2704 91.2592 95.2704Z" fill="#1F1D20"/>
<path d="M91.2592 94.1102C91.2592 93.6302 90.8792 93.2502 90.3992 93.2502C90.0992 93.2502 88.1691 93.0803 87.1391 92.2803C87.1391 92.2803 87.1391 92.2603 87.1391 92.2803C86.7591 90.8503 86.1892 89.5403 85.4792 88.2803C85.3092 87.0803 86.5291 86.2202 87.0991 85.2902C87.1991 85.1202 87.2492 85.0402 87.2892 84.9702C87.3992 84.6702 87.3291 84.3202 87.0991 84.0702C87.0991 84.0702 86.1491 82.7202 85.1691 81.7402C84.1991 80.7702 82.7292 79.7002 82.7292 79.7002C82.4092 79.3802 81.8492 79.3802 81.5092 79.7002C81.2792 79.9102 79.8292 81.1302 78.5192 81.3202C78.4992 81.3202 78.4991 81.3202 78.4991 81.3202C77.2791 80.6302 75.9092 80.0602 74.5192 79.6602H74.4991C73.5391 78.9302 73.7792 77.4502 73.5392 76.4002C73.5392 75.9202 73.1591 75.5402 72.6791 75.5402C72.6791 75.5402 71.0391 75.2502 69.6691 75.2502C68.2991 75.2502 66.4891 75.5402 66.4891 75.5402C66.0091 75.5402 65.6291 75.9202 65.6291 76.4002C65.6291 76.7002 65.4592 78.6302 64.6592 79.6602C63.2892 80.0402 61.8591 80.6502 60.6591 81.3202C59.4591 81.4902 58.5992 80.2702 57.6692 79.7002C57.4992 79.6002 57.4192 79.5502 57.3492 79.5102C57.0492 79.4002 56.6992 79.4702 56.4492 79.7002C56.4492 79.7002 55.0992 80.6502 54.1192 81.6302C53.1492 82.6002 52.0792 84.0702 52.0792 84.0702C51.7592 84.3902 51.7592 84.9502 52.0792 85.2902C52.2892 85.5002 53.5292 86.9903 53.6992 88.2803V88.3002C53.0292 89.5202 52.4192 90.9302 52.0392 92.3002C52.0392 92.3002 52.0592 92.2802 52.0392 92.3002C51.1992 93.3102 49.8292 93.0202 48.7792 93.2702C48.2992 93.2702 47.9192 93.6502 47.9192 94.1302C47.9192 94.1302 47.6292 95.7702 47.6292 97.1402C47.6292 98.5102 47.9192 100.32 47.9192 100.32C47.9192 100.8 48.2992 101.18 48.7792 101.18C49.0792 101.18 51.0092 101.35 52.0392 102.15C52.0592 102.13 52.0592 102.17 52.0592 102.17C52.4592 103.54 53.0092 104.91 53.7192 106.12C53.6992 106.14 53.7192 106.12 53.7192 106.16C53.8292 107.4 52.6692 108.22 52.0992 109.15C51.9992 109.32 51.9491 109.4 51.9091 109.47C51.7991 109.77 51.8692 110.12 52.0992 110.37C52.0992 110.37 53.0492 111.72 54.0292 112.7C54.9992 113.67 56.4692 114.74 56.4692 114.74C56.7892 115.06 57.3492 115.06 57.6892 114.74C57.8992 114.53 59.3891 113.29 60.6791 113.12C60.6791 113.12 60.6792 113.12 60.6992 113.14C61.9392 113.83 63.2392 114.38 64.6492 114.76C64.6692 114.76 64.7091 114.78 64.7091 114.78C65.6791 115.5 65.4291 116.99 65.6791 118.04C65.7391 118.52 65.9992 118.82 66.5392 118.9C66.5392 118.9 68.1792 119.19 69.5492 119.19C70.9192 119.19 72.7292 118.9 72.7292 118.9C73.2092 118.82 73.5892 118.52 73.5892 118.04C73.5892 117.74 73.7591 115.81 74.5591 114.78C74.5591 114.78 74.5991 114.74 74.6391 114.72C76.0691 114.32 77.1591 113.88 78.4291 113.14C78.4891 113.12 78.4292 113.12 78.5792 113.1C79.7792 112.93 80.6391 114.15 81.5691 114.72C81.7391 114.82 81.8191 114.87 81.8891 114.91C82.1891 115.02 82.5392 114.95 82.7892 114.72C82.7892 114.72 84.1392 113.77 85.1192 112.79C86.0892 111.82 87.1592 110.35 87.1592 110.35C87.4792 110.03 87.4792 109.47 87.1592 109.13C86.9492 108.92 85.7092 107.43 85.5392 106.14C85.5192 106.01 85.5391 105.99 85.5591 105.95C86.2791 104.67 86.7391 103.74 87.1391 102.29C87.1391 102.29 87.1192 102.25 87.2192 102.12C87.9392 101.15 89.4292 101.4 90.4792 101.15C90.9592 101.15 91.3392 100.77 91.3392 100.29C91.3392 100.29 91.6291 98.6503 91.6291 97.2803C91.6091 95.9003 91.2592 94.1102 91.2592 94.1102Z" fill="#F2F2F2"/>
<path d="M53.8992 103.5C53.8292 103.62 53.8392 103.6 53.8992 103.5V103.5Z" fill="#9FC2F6"/>
<g opacity="0.15">
<path opacity="0.15" d="M128.719 85.1304H101.019C99.8192 85.1304 98.8492 86.1204 98.8492 87.3004C98.8492 88.5004 99.8392 89.4704 101.019 89.4704H128.719C129.919 89.4704 130.889 88.4804 130.889 87.3004C130.889 86.1004 129.919 85.1304 128.719 85.1304Z" fill="#1F1D20"/>
<path opacity="0.15" d="M128.719 94.6003H101.019C99.8192 94.6003 98.8492 95.5903 98.8492 96.7703C98.8492 97.9703 99.8392 98.9403 101.019 98.9403H128.719C129.919 98.9403 130.889 97.9503 130.889 96.7703C130.889 95.5703 129.919 94.6003 128.719 94.6003Z" fill="#1F1D20"/>
<path opacity="0.15" fill-rule="evenodd" clip-rule="evenodd" d="M101.019 104.07H128.679C129.879 104.07 130.849 105.06 130.849 106.24C130.849 107.44 129.859 108.41 128.679 108.41H101.019C99.8192 108.41 98.8492 107.42 98.8492 106.24C98.8092 105.07 99.7792 104.07 101.019 104.07Z" fill="#1F1D20"/>
</g>
<path d="M128.719 84.4004H101.019C99.8192 84.4004 98.8492 85.3904 98.8492 86.5704C98.8492 87.7704 99.8392 88.7404 101.019 88.7404H128.719C129.919 88.7404 130.889 87.7504 130.889 86.5704C130.889 85.3804 129.919 84.4004 128.719 84.4004Z" fill="url(#paint7_linear)"/>
<path d="M128.719 93.8804H101.019C99.8192 93.8804 98.8492 94.8704 98.8492 96.0504C98.8492 97.2504 99.8392 98.2204 101.019 98.2204H128.719C129.919 98.2204 130.889 97.2304 130.889 96.0504C130.889 94.8504 129.919 93.8804 128.719 93.8804Z" fill="url(#paint8_linear)"/>
<path fill-rule="evenodd" clip-rule="evenodd" d="M101.019 103.35H128.679C129.879 103.35 130.849 104.34 130.849 105.52C130.849 106.72 129.859 107.69 128.679 107.69H101.019C99.8192 107.69 98.8492 106.7 98.8492 105.52C98.8092 104.34 99.7792 103.35 101.019 103.35Z" fill="url(#paint9_linear)"/>
<path d="M74.7392 93.8502L66.8992 98.4302L58.6492 89.2502C58.0392 88.5702 58.5192 87.4902 59.4292 87.4902H74.7392V93.8502Z" fill="url(#paint10_linear)"/>
<path d="M79.0992 92.5003L74.6792 87.5203L58.5992 105.48C58.0592 106.09 58.4892 107.05 59.2992 107.05H66.0192L79.0992 92.5003Z" fill="url(#paint11_linear)"/>
<path d="M82.8192 96.6702L79.0592 92.4302L65.7892 107.05H74.3392C74.5192 107.05 74.6892 106.98 74.8092 106.84L82.7992 98.1302C83.1892 97.7302 83.1892 97.0902 82.8192 96.6702Z" fill="url(#paint12_linear)"/>
<defs>
<linearGradient id="paint0_linear" x1="4.79245" y1="12.9916" x2="217.202" y2="217.464" gradientUnits="userSpaceOnUse">
<stop stop-color="#97C3F9"/>
<stop offset="0.4975" stop-color="#388CF4"/>
<stop offset="1" stop-color="#2C7CEF"/>
</linearGradient>
<linearGradient id="paint1_linear" x1="28.1963" y1="11.5778" x2="148.763" y2="174.475" gradientUnits="userSpaceOnUse">
<stop offset="0.0829" stop-color="#1152D4"/>
<stop offset="0.4296" stop-color="#0D40B5"/>
<stop offset="0.706" stop-color="#0D3FB1"/>
<stop offset="1" stop-color="#092D7F"/>
</linearGradient>
<linearGradient id="paint2_linear" x1="77.6648" y1="0.696297" x2="103.601" y2="191.255" gradientUnits="userSpaceOnUse">
<stop offset="0.0435" stop-color="white"/>
<stop offset="0.4857" stop-color="#4DC1EA"/>
<stop offset="0.8452" stop-color="#0078D4"/>
</linearGradient>
<linearGradient id="paint3_linear" x1="70.5128" y1="58.5216" x2="148.749" y2="202.144" gradientUnits="userSpaceOnUse">
<stop stop-color="#F2F2F2"/>
<stop offset="1" stop-color="#69B6FC"/>
</linearGradient>
<linearGradient id="paint4_linear" x1="63.7252" y1="66.8629" x2="145.741" y2="153.792" gradientUnits="userSpaceOnUse">
<stop stop-color="#388CF4"/>
<stop offset="1" stop-color="#2C7CEF"/>
</linearGradient>
<linearGradient id="paint5_linear" x1="98.1287" y1="144.269" x2="71.672" y2="120.836" gradientUnits="userSpaceOnUse">
<stop offset="0.4598" stop-color="#1152D4"/>
<stop offset="0.6156" stop-color="#0D3FB3"/>
</linearGradient>
<linearGradient id="paint6_linear" x1="78.8968" y1="138.991" x2="41.1015" y2="111.401" gradientUnits="userSpaceOnUse">
<stop offset="0.4598" stop-color="#1152D4"/>
<stop offset="0.6156" stop-color="#0D3FB3"/>
</linearGradient>
<linearGradient id="paint7_linear" x1="105.912" y1="75.3376" x2="128.967" y2="104.251" gradientUnits="userSpaceOnUse">
<stop offset="0.4598" stop-color="#1152D4"/>
<stop offset="0.6156" stop-color="#0D3FB3"/>
</linearGradient>
<linearGradient id="paint8_linear" x1="101.293" y1="79.0201" x2="124.348" y2="107.933" gradientUnits="userSpaceOnUse">
<stop offset="0.4598" stop-color="#1152D4"/>
<stop offset="0.6156" stop-color="#0D3FB3"/>
</linearGradient>
<linearGradient id="paint9_linear" x1="96.6615" y1="82.7135" x2="119.717" y2="111.627" gradientUnits="userSpaceOnUse">
<stop offset="0.4598" stop-color="#1152D4"/>
<stop offset="0.6156" stop-color="#0D3FB3"/>
</linearGradient>
<linearGradient id="paint10_linear" x1="59.4095" y1="82.225" x2="77.2503" y2="99.0111" gradientUnits="userSpaceOnUse">
<stop offset="0.4598" stop-color="#1152D4"/>
<stop offset="0.6156" stop-color="#0D3FB3"/>
</linearGradient>
<linearGradient id="paint11_linear" x1="58.3542" y1="97.291" x2="79.0944" y2="97.291" gradientUnits="userSpaceOnUse">
<stop stop-color="#388CF4"/>
<stop offset="1" stop-color="#2C7CEF"/>
</linearGradient>
<linearGradient id="paint12_linear" x1="65.7914" y1="99.746" x2="83.0964" y2="99.746" gradientUnits="userSpaceOnUse">
<stop stop-color="#76C0FD"/>
<stop offset="1" stop-color="#63B2FB"/>
</linearGradient>
</defs>
</svg>
