<svg width="103" height="103" viewBox="0 0 103 103" fill="none" xmlns="http://www.w3.org/2000/svg">
<path d="M51.2914 98.6998C25.4414 98.6998 4.48145 77.7498 4.48145 51.8898C4.48145 26.0298 25.4414 5.07983 51.2914 5.07983C77.1414 5.07983 98.1014 26.0398 98.1014 51.8898C98.1014 77.7398 77.1414 98.6998 51.2914 98.6998Z" fill="url(#paint0_linear)"/>
<path fill-rule="evenodd" clip-rule="evenodd" d="M97.1914 51.8899C97.1914 77.2399 76.6414 97.7899 51.2914 97.7899C25.9414 97.7899 5.39137 77.2399 5.39137 51.8899C5.39137 26.5399 25.9414 5.98988 51.2914 5.98988C76.6414 5.98988 97.1914 26.5399 97.1914 51.8899ZM51.2914 2.24988C78.7114 2.24988 100.931 24.4699 100.931 51.8899C100.931 79.3099 78.7014 101.53 51.2914 101.53C23.8714 101.53 1.65137 79.2999 1.65137 51.8899C1.65137 24.4699 23.8714 2.24988 51.2914 2.24988Z" fill="#F2F1F0"/>
<path fill-rule="evenodd" clip-rule="evenodd" d="M94.3814 51.8898C94.3814 75.6898 75.0914 94.9798 51.2914 94.9798C27.4914 94.9798 8.20143 75.6898 8.20143 51.8898C8.20143 28.0898 27.4914 8.79981 51.2914 8.79981C75.0914 8.79981 94.3814 28.0898 94.3814 51.8898ZM51.2914 5.05981C77.1514 5.05981 98.1214 26.0298 98.1214 51.8898C98.1214 77.7498 77.1514 98.7198 51.2914 98.7198C25.4314 98.7198 4.46143 77.7498 4.46143 51.8898C4.46143 26.0298 25.4214 5.05981 51.2914 5.05981Z" fill="url(#paint1_linear)"/>
<path opacity="0.2" d="M74.4517 25.7699H21.7617V74.4799C21.7617 75.9599 22.9617 77.1599 24.4417 77.1599H30.1917V84.0799C30.1917 84.5999 30.8217 84.8599 31.2017 84.4899L38.5917 77.1599H71.7717C73.2517 77.1599 74.4517 75.9599 74.4517 74.4799V25.7699Z" fill="#1F1D21"/>
<path d="M72.6315 24.3599H23.5915C22.5715 24.3599 21.7715 25.1799 21.7715 26.1799V73.9199C21.7715 74.9399 22.5915 75.7399 23.5915 75.7399H30.1915V82.6599C30.1915 83.1799 30.8215 83.4399 31.2015 83.0699L38.5915 75.7399H72.6415C73.6615 75.7399 74.4615 74.9199 74.4615 73.9199V26.1999C74.4515 25.1799 73.6415 24.3599 72.6315 24.3599Z" fill="#F2F1F0"/>
<path d="M74.4515 25.29C74.4515 24.27 73.6315 23.47 72.6315 23.47H23.5915C22.5715 23.47 21.7715 24.29 21.7715 25.29V27.02H74.4615V25.29H74.4515Z" fill="#F2F1F0"/>
<path opacity="0.2" fill-rule="evenodd" clip-rule="evenodd" d="M38.4916 34.3099H60.1916C61.0916 34.3099 61.8316 35.0499 61.8316 35.9499V63.8899C61.8316 64.7899 61.0916 65.5299 60.1916 65.5299H38.4916C37.5916 65.5299 36.8516 64.7899 36.8516 63.8899V35.9499C36.8516 35.0499 37.5716 34.3099 38.4916 34.3099Z" fill="#1F1D21"/>
<path fill-rule="evenodd" clip-rule="evenodd" d="M38.4916 33.1899H60.1916C61.0916 33.1899 61.8316 33.9299 61.8316 34.8299V62.7599C61.8316 63.6599 61.0916 64.3999 60.1916 64.3999H38.4916C37.5916 64.3999 36.8516 63.6599 36.8516 62.7599V34.8399C36.8516 33.9299 37.5716 33.1899 38.4916 33.1899Z" fill="#195C37"/>
<path d="M61.8213 48.7899H49.3413V56.5899H61.8213V48.7899Z" fill="#107B42"/>
<path d="M61.8213 41H49.3413V48.8H61.8213V41Z" fill="#22A366"/>
<path d="M49.3413 41H36.0713V48.8H49.3413V41Z" fill="#117740"/>
<path fill-rule="evenodd" clip-rule="evenodd" d="M49.3413 33.1899H60.1913C61.0913 33.1899 61.8313 33.9299 61.8313 34.8299V40.9899H49.3413V33.1899Z" fill="#34C481"/>
<path fill-rule="evenodd" clip-rule="evenodd" d="M49.3415 33.1899H37.7015C36.8015 33.1899 36.0615 33.9299 36.0615 34.8299V40.9899H49.3315V33.1899H49.3415Z" fill="#21A465"/>
<path fill-rule="evenodd" clip-rule="evenodd" d="M30.6815 41H44.5715C45.4715 41 46.2115 41.74 46.2115 42.64V55.75C46.2115 56.65 45.4715 57.39 44.5715 57.39H30.6815C29.7815 57.39 29.0415 56.65 29.0415 55.75V42.64C29.0415 41.73 29.7815 41 30.6815 41Z" fill="#137F47"/>
<path fill-rule="evenodd" clip-rule="evenodd" d="M36.0914 49.6199L33.2614 44.8999H35.4914L37.4314 48.4699L39.3714 44.8999H41.4414L38.5814 49.5599L41.5614 54.2799H39.2314L37.3114 50.4499L35.3614 54.2799H32.9814L36.0914 49.6199Z" fill="white"/>
<path opacity="0.15" d="M89.9814 40.5848H66.9614V60.4648C66.9614 60.8748 67.3014 61.2048 67.7014 61.2048H89.2514C89.6614 61.2048 89.9914 60.8648 89.9914 60.4648L89.9814 40.5848Z" fill="#1F1D20"/>
<path d="M89.2014 37.7249H67.7414C67.3014 37.7249 66.9614 38.0749 66.9614 38.5049V39.7149V40.1849V59.5849C66.9614 59.9949 67.3014 60.3249 67.7014 60.3249H89.2514C89.6614 60.3249 89.9914 59.9849 89.9914 59.5849V40.1849H90.0014V38.5149C89.9814 38.0749 89.6414 37.7249 89.2014 37.7249Z" fill="white"/>
<path opacity="0.2" d="M86.9946 49.1892L81.8724 43.4338V43.3623H72.1438C71.5617 43.3623 71.2553 44.0466 71.6434 44.4807L76.2446 49.6029L71.6025 54.7914C71.2604 55.1847 71.5361 55.7873 72.0519 55.7873L81.6068 55.7771C81.7192 55.7771 81.8264 55.726 81.9081 55.6443L86.9843 50.1136C87.2244 49.8582 87.2295 49.4497 86.9946 49.1892Z" fill="#1F1D21"/>
<path d="M81.8628 46.7532L76.8836 49.6641L71.6491 43.8371C71.2559 43.4031 71.5674 42.7188 72.1496 42.7188H81.873L81.8628 46.7532Z" fill="url(#paint2_linear)"/>
<path d="M84.6247 45.8953L81.8211 42.7393L71.5971 54.148C71.255 54.5412 71.5308 55.1438 72.0466 55.1438H76.3108L84.6247 45.8953Z" fill="url(#paint3_linear)"/>
<path d="M86.9943 48.5509L84.6094 45.8545L76.1729 55.1439H81.6014C81.7138 55.1439 81.821 55.0928 81.9027 55.0111L86.9789 49.4804C87.2241 49.2199 87.2292 48.8216 86.9943 48.5509Z" fill="url(#paint4_linear)"/>
<defs>
<linearGradient id="paint0_linear" x1="49.5215" y1="-12.8993" x2="53.5035" y2="132.872" gradientUnits="userSpaceOnUse">
<stop stop-color="#00ABDE"/>
<stop offset="1" stop-color="#007ED8"/>
</linearGradient>
<linearGradient id="paint1_linear" x1="2.72442" y1="-19.7352" x2="98.2524" y2="121.147" gradientUnits="userSpaceOnUse">
<stop stop-color="#007ED8"/>
<stop offset="0.7065" stop-color="#002D4C"/>
</linearGradient>
<linearGradient id="paint2_linear" x1="72.1259" y1="39.3646" x2="83.4598" y2="50.0286" gradientUnits="userSpaceOnUse">
<stop offset="0.4598" stop-color="#1152D4"/>
<stop offset="0.6156" stop-color="#0D3FB3"/>
</linearGradient>
<linearGradient id="paint3_linear" x1="71.4461" y1="48.9425" x2="84.6241" y2="48.9425" gradientUnits="userSpaceOnUse">
<stop stop-color="#388CF4"/>
<stop offset="1" stop-color="#2C7CEF"/>
</linearGradient>
<linearGradient id="paint4_linear" x1="76.1741" y1="50.4995" x2="87.1668" y2="50.4995" gradientUnits="userSpaceOnUse">
<stop stop-color="#76C0FD"/>
<stop offset="1" stop-color="#63B2FB"/>
</linearGradient>
</defs>
</svg>
