<svg width="103" height="103" viewBox="0 0 103 103" fill="none" xmlns="http://www.w3.org/2000/svg">
<path d="M51.6387 98.4755C25.7887 98.4755 4.82874 77.5255 4.82874 51.6655C4.82874 25.8055 25.7887 4.85547 51.6387 4.85547C77.4887 4.85547 98.4487 25.8155 98.4487 51.6655C98.4487 77.5155 77.4887 98.4755 51.6387 98.4755Z" fill="url(#paint0_linear)"/>
<path fill-rule="evenodd" clip-rule="evenodd" d="M97.5388 51.6654C97.5388 77.0154 76.9888 97.5654 51.6388 97.5654C26.2888 97.5654 5.73878 77.0154 5.73878 51.6654C5.73878 26.3154 26.2888 5.76539 51.6388 5.76539C76.9888 5.76539 97.5388 26.3154 97.5388 51.6654ZM51.6388 2.02539C79.0588 2.02539 101.279 24.2454 101.279 51.6654C101.279 79.0854 79.0488 101.305 51.6388 101.305C24.2188 101.305 1.99878 79.0754 1.99878 51.6654C1.99878 24.2454 24.2188 2.02539 51.6388 2.02539Z" fill="#F2F1F0"/>
<path fill-rule="evenodd" clip-rule="evenodd" d="M94.7288 51.6655C94.7288 75.4655 75.4388 94.7554 51.6388 94.7554C27.8388 94.7554 8.54884 75.4655 8.54884 51.6655C8.54884 27.8655 27.8388 8.57545 51.6388 8.57545C75.4388 8.57545 94.7288 27.8655 94.7288 51.6655ZM51.6388 4.83545C77.4988 4.83545 98.4688 25.8055 98.4688 51.6655C98.4688 77.5255 77.4988 98.4955 51.6388 98.4955C25.7788 98.4955 4.80884 77.5255 4.80884 51.6655C4.80884 25.8055 25.7688 4.83545 51.6388 4.83545Z" fill="url(#paint1_linear)"/>
<path opacity="0.15" d="M24.5089 75.0354H79.3189C80.8589 75.0354 82.0989 73.7854 82.0989 72.2554V28.5454H21.7189V72.2554C21.7189 73.7854 22.9689 75.0354 24.5089 75.0354Z" fill="#1F1D20"/>
<path d="M22.8689 72.4954H80.9389C81.5789 72.4954 82.0889 71.9854 82.0889 71.3454V26.0054H21.7189V71.3454C21.7189 71.9854 22.2389 72.4954 22.8689 72.4954Z" fill="#EBEBEB"/>
<path d="M21.7189 31.0256H82.0889V25.6056C82.0889 25.1256 81.6989 24.7256 81.2089 24.7256H22.5989C22.1189 24.7256 21.7189 25.1156 21.7189 25.6056V31.0256V31.0256Z" fill="url(#paint2_linear)"/>
<path d="M26.3689 29.5358C27.2089 29.5358 27.9089 28.8558 27.9089 27.9958C27.9089 27.1458 27.2089 26.4658 26.3689 26.4658C25.5289 26.4658 24.8289 27.1458 24.8289 28.0058C24.8289 28.8658 25.4989 29.5358 26.3689 29.5358Z" fill="url(#paint3_linear)"/>
<path d="M66.0588 46.2054L55.9788 52.0954L45.3788 40.2854C44.5988 39.4154 45.2188 38.0254 46.3788 38.0254H66.0488L66.0588 46.2054Z" fill="url(#paint4_linear)"/>
<path d="M71.6488 44.4654L65.9688 38.0654L45.2988 61.1554C44.5988 61.9354 45.1488 63.1754 46.2088 63.1754H54.8488L71.6488 44.4654Z" fill="url(#paint5_linear)"/>
<path d="M76.4388 49.8255L71.6088 44.3755L54.5488 63.1755H65.5388C65.7688 63.1755 65.9888 63.0755 66.1388 62.9055L76.4188 51.7055C76.9088 51.1855 76.9188 50.3655 76.4388 49.8255Z" fill="url(#paint6_linear)"/>
<path opacity="0.2" d="M17.2888 74.9053C17.2888 75.5553 17.8188 76.0853 18.4688 76.0853H33.0688L36.3188 79.3153C36.4888 79.4753 36.7588 79.3653 36.7588 79.1353V76.0953H39.2888C39.9388 76.0953 40.4688 75.5653 40.4688 74.9153V53.4653H17.2888V74.9053Z" fill="#1F1D21"/>
<path d="M17.2788 53.1552V74.1652C17.2788 74.6152 17.6388 74.9752 18.0888 74.9752H33.0688L36.3188 78.2052C36.4888 78.3652 36.7588 78.2552 36.7588 78.0252V74.9852H39.6588C40.1088 74.9852 40.4688 74.6252 40.4688 74.1752V53.1552C40.4688 52.7052 40.1088 52.3452 39.6588 52.3452H18.0888C17.6488 52.3552 17.2888 52.7152 17.2788 53.1552Z" fill="white"/>
<path d="M17.2888 54.2253H40.4788V52.7553C40.4788 52.3053 40.1188 51.9453 39.6688 51.9453H18.0888C17.6388 51.9453 17.2788 52.3053 17.2788 52.7553V54.2253H17.2888Z" fill="url(#paint7_linear)"/>
<path d="M24.0189 68.3954H34.1189C34.5589 68.3954 34.9089 68.0354 34.9089 67.6054C34.9089 67.1654 34.5489 66.8154 34.1189 66.8154H24.0289C23.5889 66.8154 23.2389 67.1754 23.2389 67.6054C23.2289 68.0354 23.5789 68.3954 24.0189 68.3954Z" fill="url(#paint8_linear)"/>
<path d="M24.0189 64.9455H34.1189C34.5589 64.9455 34.9089 64.5855 34.9089 64.1455C34.9089 63.7055 34.5489 63.3555 34.1189 63.3555H24.0289C23.5889 63.3555 23.2389 63.7155 23.2389 64.1455C23.2289 64.5855 23.5789 64.9455 24.0189 64.9455Z" fill="url(#paint9_linear)"/>
<path fill-rule="evenodd" clip-rule="evenodd" d="M34.1189 61.2255H24.0389C23.5989 61.2255 23.2489 60.8655 23.2489 60.4355C23.2489 59.9955 23.6089 59.6455 24.0389 59.6455H34.1189C34.5589 59.6455 34.9089 60.0055 34.9089 60.4355C34.9189 60.8655 34.5689 61.2255 34.1189 61.2255Z" fill="url(#paint10_linear)"/>
<defs>
<linearGradient id="paint0_linear" x1="6.86204" y1="-11.8074" x2="84.2478" y2="97.8933" gradientUnits="userSpaceOnUse">
<stop stop-color="#97C3F9"/>
<stop offset="0.4975" stop-color="#388CF4"/>
<stop offset="1" stop-color="#2C7CEF"/>
</linearGradient>
<linearGradient id="paint1_linear" x1="44.1384" y1="5.20465" x2="57.7447" y2="89.4881" gradientUnits="userSpaceOnUse">
<stop offset="0.0829" stop-color="#1152D4"/>
<stop offset="0.4296" stop-color="#0D40B5"/>
<stop offset="0.706" stop-color="#0D3FB1"/>
<stop offset="1" stop-color="#092D7F"/>
</linearGradient>
<linearGradient id="paint2_linear" x1="31.8046" y1="16.7973" x2="147.836" y2="81.8052" gradientUnits="userSpaceOnUse">
<stop offset="0.4598" stop-color="#1152D4"/>
<stop offset="0.6156" stop-color="#0D3FB3"/>
</linearGradient>
<linearGradient id="paint3_linear" x1="24.8314" y1="28.0089" x2="27.9019" y2="28.0089" gradientUnits="userSpaceOnUse">
<stop stop-color="#76C0FD"/>
<stop offset="1" stop-color="#63B2FB"/>
</linearGradient>
<linearGradient id="paint4_linear" x1="46.3472" y1="31.2567" x2="69.2793" y2="52.8334" gradientUnits="userSpaceOnUse">
<stop offset="0.4598" stop-color="#1152D4"/>
<stop offset="0.6156" stop-color="#0D3FB3"/>
</linearGradient>
<linearGradient id="paint5_linear" x1="44.9907" y1="50.6224" x2="71.6496" y2="50.6224" gradientUnits="userSpaceOnUse">
<stop stop-color="#388CF4"/>
<stop offset="1" stop-color="#2C7CEF"/>
</linearGradient>
<linearGradient id="paint6_linear" x1="54.5503" y1="53.7778" x2="76.7937" y2="53.7778" gradientUnits="userSpaceOnUse">
<stop stop-color="#76C0FD"/>
<stop offset="1" stop-color="#63B2FB"/>
</linearGradient>
<linearGradient id="paint7_linear" x1="17.2853" y1="53.0894" x2="40.4735" y2="53.0894" gradientUnits="userSpaceOnUse">
<stop stop-color="#76C0FD"/>
<stop offset="1" stop-color="#63B2FB"/>
</linearGradient>
<linearGradient id="paint8_linear" x1="34.9095" y1="67.6034" x2="23.233" y2="67.6034" gradientUnits="userSpaceOnUse">
<stop stop-color="#76C0FD"/>
<stop offset="1" stop-color="#63B2FB"/>
</linearGradient>
<linearGradient id="paint9_linear" x1="31.8351" y1="69.0057" x2="14.4021" y2="38.3915" gradientUnits="userSpaceOnUse">
<stop stop-color="#388CF4"/>
<stop offset="1" stop-color="#2C7CEF"/>
</linearGradient>
<linearGradient id="paint10_linear" x1="33.4377" y1="68.0931" x2="16.0046" y2="37.4789" gradientUnits="userSpaceOnUse">
<stop offset="0.4598" stop-color="#1152D4"/>
<stop offset="0.6156" stop-color="#0D3FB3"/>
</linearGradient>
</defs>
</svg>
