<svg width="103" height="103" viewBox="0 0 103 103" fill="none" xmlns="http://www.w3.org/2000/svg">
<path d="M51.0737 97.9988C25.2237 97.9988 4.26367 77.0488 4.26367 51.1888C4.26367 25.3288 25.2237 4.37878 51.0737 4.37878C76.9237 4.37878 97.8837 25.3388 97.8837 51.1888C97.8837 77.0388 76.9237 97.9988 51.0737 97.9988Z" fill="url(#paint0_linear)"/>
<path fill-rule="evenodd" clip-rule="evenodd" d="M96.9736 51.1888C96.9736 76.5388 76.4236 97.0888 51.0736 97.0888C25.7236 97.0888 5.17359 76.5388 5.17359 51.1888C5.17359 25.8388 25.7236 5.28883 51.0736 5.28883C76.4236 5.28883 96.9736 25.8388 96.9736 51.1888ZM51.0736 1.54883C78.4936 1.54883 100.714 23.7688 100.714 51.1888C100.714 78.6088 78.4836 100.829 51.0736 100.829C23.6536 100.829 1.43359 78.5988 1.43359 51.1888C1.43359 23.7688 23.6536 1.54883 51.0736 1.54883Z" fill="#F2F1F0"/>
<path fill-rule="evenodd" clip-rule="evenodd" d="M94.1637 51.1889C94.1637 74.9889 74.8737 94.2789 51.0737 94.2789C27.2737 94.2789 7.98365 74.9889 7.98365 51.1889C7.98365 27.3889 27.2737 8.09889 51.0737 8.09889C74.8737 8.09889 94.1637 27.3889 94.1637 51.1889ZM51.0737 4.35889C76.9337 4.35889 97.9037 25.3289 97.9037 51.1889C97.9037 77.0489 76.9337 98.0189 51.0737 98.0189C25.2137 98.0189 4.24365 77.0489 4.24365 51.1889C4.24365 25.3289 25.2037 4.35889 51.0737 4.35889Z" fill="url(#paint1_linear)"/>
<path d="M92.8836 50.2388L85.3736 55.9488V52.7388H72.8936V47.7588H85.3736V44.5488L92.8836 50.2388Z" fill="white"/>
<path opacity="0.15" d="M21.714 77.5189H77.664C79.234 77.5189 80.504 76.2488 80.504 74.6788V30.0688H18.874V74.6788C18.874 76.2388 20.154 77.5189 21.714 77.5189Z" fill="#1F1D20"/>
<path d="M20.054 74.9189H79.334C79.984 74.9189 80.514 74.3889 80.514 73.7389V27.4689H18.874V73.7389C18.874 74.3989 19.404 74.9189 20.054 74.9189Z" fill="#EBEBEB"/>
<path d="M18.874 32.5988H80.494V27.0788C80.494 26.5788 80.094 26.1788 79.594 26.1788H19.774C19.274 26.1788 18.874 26.5788 18.874 27.0788V32.5988Z" fill="#092E4C"/>
<path d="M23.6139 31.0789C24.4739 31.0789 25.1839 30.3789 25.1839 29.5089C25.1839 28.6389 24.4739 27.9489 23.6139 27.9489C22.7539 27.9489 22.0439 28.6489 22.0439 29.5189C22.0439 30.3889 22.7339 31.0789 23.6139 31.0789Z" fill="url(#paint2_linear)"/>
<path d="M80.2138 97.2589C80.2038 97.2589 80.2038 97.2489 80.1938 97.2489C80.2038 97.2489 80.2138 97.2589 80.2138 97.2589Z" fill="#EBEBEB"/>
<path d="M85.844 29.6189C85.844 29.6289 85.834 29.6289 85.834 29.6389C85.834 29.6289 85.844 29.6189 85.844 29.6189Z" fill="#EBEBEB"/>
<path opacity="0.15" d="M72.8136 39.2888H44.1636V67.9388H72.8136V39.2888V39.2888Z" fill="#1F1D20"/>
<path d="M32.0039 44.6088C34.6493 44.6088 36.7939 42.4643 36.7939 39.8188C36.7939 37.1734 34.6493 35.0288 32.0039 35.0288C29.3584 35.0288 27.2139 37.1734 27.2139 39.8188C27.2139 42.4643 29.3584 44.6088 32.0039 44.6088Z" fill="url(#paint3_linear)"/>
<path d="M32.334 37.1288V42.5188H31.484V38.1788C31.334 38.2888 31.164 38.3788 30.984 38.4588C30.804 38.5388 30.604 38.6088 30.374 38.6588V37.9288C30.514 37.8788 30.654 37.8288 30.784 37.7788C30.914 37.7288 31.044 37.6688 31.174 37.6088C31.304 37.5488 31.434 37.4788 31.564 37.3988C31.694 37.3188 31.834 37.2288 31.974 37.1288H32.334Z" fill="white"/>
<path d="M32.0039 57.1789C34.6493 57.1789 36.7939 55.0343 36.7939 52.3889C36.7939 49.7434 34.6493 47.5989 32.0039 47.5989C29.3584 47.5989 27.2139 49.7434 27.2139 52.3889C27.2139 55.0343 29.3584 57.1789 32.0039 57.1789Z" fill="url(#paint4_linear)"/>
<path d="M33.7338 55.0689H30.4238V54.6589C30.4238 54.4889 30.4438 54.3389 30.4938 54.1889C30.5438 54.0389 30.6038 53.9089 30.6838 53.7789C30.7638 53.6489 30.8538 53.5289 30.9638 53.4189C31.0738 53.3089 31.1838 53.1989 31.3038 53.0889C31.4238 52.9789 31.5438 52.8789 31.6738 52.7789C31.7938 52.6789 31.9238 52.5789 32.0438 52.4789C32.1538 52.3789 32.2638 52.2889 32.3538 52.1989C32.4438 52.1089 32.5238 52.0089 32.5938 51.9189C32.6638 51.8189 32.7138 51.7189 32.7438 51.6089C32.7738 51.4989 32.8038 51.3789 32.8038 51.2589C32.8038 51.1189 32.7838 50.9989 32.7438 50.8889C32.7038 50.7889 32.6438 50.6989 32.5638 50.6289C32.4838 50.5589 32.3938 50.5089 32.2938 50.4689C32.1838 50.4289 32.0738 50.4189 31.9438 50.4189C31.7238 50.4189 31.5138 50.4689 31.2838 50.5689C31.0638 50.6689 30.8438 50.8189 30.6438 51.0189V50.1889C30.7538 50.1089 30.8638 50.0389 30.9738 49.9789C31.0838 49.9189 31.1938 49.8689 31.3138 49.8289C31.4338 49.7889 31.5538 49.7589 31.6838 49.7389C31.8138 49.7189 31.9538 49.7089 32.1038 49.7089C32.3438 49.7089 32.5538 49.7389 32.7538 49.7989C32.9538 49.8589 33.1138 49.9489 33.2538 50.0789C33.3938 50.1989 33.4938 50.3489 33.5738 50.5289C33.6538 50.7089 33.6838 50.9189 33.6838 51.1489C33.6838 51.3589 33.6538 51.5489 33.6038 51.7189C33.5538 51.8889 33.4738 52.0489 33.3838 52.1989C33.2838 52.3489 33.1738 52.4889 33.0338 52.6189C32.8938 52.7489 32.7438 52.8889 32.5738 53.0289C32.4338 53.1489 32.2938 53.2589 32.1538 53.3689C32.0138 53.4789 31.8838 53.5889 31.7738 53.6889C31.6638 53.7889 31.5738 53.8989 31.5038 53.9989C31.4338 54.0989 31.4038 54.2089 31.4038 54.3089V54.3289H33.7838V55.0689H33.7338Z" fill="white"/>
<path d="M32.0039 69.7488C34.6493 69.7488 36.7939 67.6043 36.7939 64.9588C36.7939 62.3134 34.6493 60.1688 32.0039 60.1688C29.3584 60.1688 27.2139 62.3134 27.2139 64.9588C27.2139 67.6043 29.3584 69.7488 32.0039 69.7488Z" fill="url(#paint5_linear)"/>
<path d="M30.5239 67.3988V66.5988C30.8639 66.8688 31.2539 67.0088 31.6839 67.0088C32.0339 67.0088 32.3139 66.9288 32.5239 66.7688C32.7339 66.6088 32.8339 66.3988 32.8339 66.1188C32.8339 65.5188 32.3739 65.2188 31.4639 65.2188H31.0539V64.5388H31.4439C32.2539 64.5388 32.6639 64.2588 32.6639 63.6988C32.6639 63.1788 32.3439 62.9188 31.7139 62.9188C31.3639 62.9188 31.0339 63.0488 30.7139 63.2988V62.5388C31.0739 62.3388 31.4939 62.2388 31.9839 62.2388C32.4539 62.2388 32.8239 62.3588 33.1039 62.5888C33.3839 62.8288 33.5239 63.1288 33.5239 63.4888C33.5239 64.1788 33.1739 64.6288 32.4639 64.8288V64.8388C32.8439 64.8788 33.1439 65.0088 33.3639 65.2388C33.5839 65.4688 33.6939 65.7488 33.6939 66.0988C33.6939 66.5688 33.5139 66.9488 33.1639 67.2388C32.8039 67.5288 32.3439 67.6788 31.7639 67.6788C31.2539 67.6788 30.8339 67.5888 30.5239 67.3988Z" fill="white"/>
<path d="M72.8136 38.3389H44.1636V66.9889H72.8136V38.3389V38.3389Z" fill="url(#paint6_linear)"/>
<path d="M62.854 53.1588L55.084 58.1488V48.1688L62.854 53.1588Z" fill="white"/>
<path d="M80.5039 58.2888L63.7539 58.3088L63.7739 75.0588L80.5239 75.0388L80.5039 58.2888Z" fill="#092E4C"/>
<path d="M76.2235 62.8289L70.9835 68.1089L69.4035 66.5289L68.3535 67.5889L70.9735 70.2089L77.2735 63.8689L76.2235 62.8289Z" fill="#FAF9F8"/>
<defs>
<linearGradient id="paint0_linear" x1="6.29667" y1="-12.2843" x2="83.6825" y2="97.4164" gradientUnits="userSpaceOnUse">
<stop stop-color="#97C3F9"/>
<stop offset="0.4975" stop-color="#388CF4"/>
<stop offset="1" stop-color="#2C7CEF"/>
</linearGradient>
<linearGradient id="paint1_linear" x1="43.5732" y1="4.72799" x2="57.1795" y2="89.0112" gradientUnits="userSpaceOnUse">
<stop offset="0.0829" stop-color="#1152D4"/>
<stop offset="0.4296" stop-color="#0D40B5"/>
<stop offset="0.706" stop-color="#0D3FB1"/>
<stop offset="1" stop-color="#092D7F"/>
</linearGradient>
<linearGradient id="paint2_linear" x1="22.055" y1="29.5151" x2="25.1889" y2="29.5151" gradientUnits="userSpaceOnUse">
<stop stop-color="#76C0FD"/>
<stop offset="1" stop-color="#63B2FB"/>
</linearGradient>
<linearGradient id="paint3_linear" x1="31.0283" y1="36.123" x2="42.2713" y2="78.7354" gradientUnits="userSpaceOnUse">
<stop offset="0.0829" stop-color="#1152D4"/>
<stop offset="0.4296" stop-color="#0D40B5"/>
<stop offset="0.706" stop-color="#0D3FB1"/>
<stop offset="1" stop-color="#092D7F"/>
</linearGradient>
<linearGradient id="paint4_linear" x1="28.0838" y1="37.5337" x2="39.3268" y2="80.1461" gradientUnits="userSpaceOnUse">
<stop offset="0.0829" stop-color="#1152D4"/>
<stop offset="0.4296" stop-color="#0D40B5"/>
<stop offset="0.706" stop-color="#0D3FB1"/>
<stop offset="1" stop-color="#092D7F"/>
</linearGradient>
<linearGradient id="paint5_linear" x1="25.0023" y1="38.4251" x2="36.2453" y2="81.0375" gradientUnits="userSpaceOnUse">
<stop offset="0.0829" stop-color="#1152D4"/>
<stop offset="0.4296" stop-color="#0D40B5"/>
<stop offset="0.706" stop-color="#0D3FB1"/>
<stop offset="1" stop-color="#092D7F"/>
</linearGradient>
<linearGradient id="paint6_linear" x1="34.3252" y1="10.0264" x2="104.113" y2="133.183" gradientUnits="userSpaceOnUse">
<stop offset="0.0829" stop-color="#1152D4"/>
<stop offset="0.4296" stop-color="#0D40B5"/>
<stop offset="0.706" stop-color="#0D3FB1"/>
<stop offset="1" stop-color="#092D7F"/>
</linearGradient>
</defs>
</svg>
