<svg width="103" height="103" viewBox="0 0 103 103" fill="none" xmlns="http://www.w3.org/2000/svg">
<path d="M51.8184 98.163C25.9684 98.163 5.00842 77.213 5.00842 51.353C5.00842 25.493 25.9684 4.54297 51.8184 4.54297C77.6684 4.54297 98.6284 25.503 98.6284 51.353C98.6284 77.203 77.6684 98.163 51.8184 98.163Z" fill="url(#paint0_linear)"/>
<path fill-rule="evenodd" clip-rule="evenodd" d="M97.7185 51.3529C97.7185 76.7029 77.1685 97.2529 51.8185 97.2529C26.4685 97.2529 5.91847 76.7029 5.91847 51.3529C5.91847 26.0029 26.4685 5.45289 51.8185 5.45289C77.1685 5.45289 97.7185 26.0029 97.7185 51.3529ZM51.8185 1.71289C79.2385 1.71289 101.458 23.9329 101.458 51.3529C101.458 78.7729 79.2285 100.993 51.8185 100.993C24.3985 100.993 2.17847 78.7629 2.17847 51.3529C2.17847 23.9329 24.3985 1.71289 51.8185 1.71289Z" fill="#F2F1F0"/>
<path fill-rule="evenodd" clip-rule="evenodd" d="M94.9085 51.353C94.9085 75.153 75.6185 94.4429 51.8185 94.4429C28.0185 94.4429 8.72853 75.153 8.72853 51.353C8.72853 27.553 28.0185 8.26295 51.8185 8.26295C75.6185 8.26295 94.9085 27.553 94.9085 51.353ZM51.8185 4.52295C77.6785 4.52295 98.6485 25.493 98.6485 51.353C98.6485 77.213 77.6785 98.183 51.8185 98.183C25.9585 98.183 4.98853 77.213 4.98853 51.353C4.98853 25.493 25.9485 4.52295 51.8185 4.52295Z" fill="url(#paint1_linear)"/>
<path opacity="0.15" d="M23.0486 77.3431H80.1686C81.7686 77.3431 83.0686 76.0431 83.0686 74.4431V28.8931H20.1486V74.4431C20.1486 76.0431 21.4486 77.3431 23.0486 77.3431Z" fill="#1F1D20"/>
<path d="M21.3486 74.7029H81.8686C82.5286 74.7029 83.0686 74.1629 83.0686 73.5029V26.2529H20.1486V73.5029C20.1486 74.1629 20.6786 74.7029 21.3486 74.7029Z" fill="#EBEBEB"/>
<path d="M20.1486 31.4829H83.0686V25.8429C83.0686 25.3329 82.6586 24.9229 82.1486 24.9229H21.0585C20.5485 24.9229 20.1385 25.3329 20.1385 25.8429V31.4829H20.1486Z" fill="url(#paint2_linear)"/>
<path d="M24.9886 29.9327C25.8686 29.9327 26.5886 29.2227 26.5886 28.3327C26.5886 27.4427 25.8586 26.7427 24.9886 26.7427C24.1086 26.7427 23.3885 27.4527 23.3885 28.3427C23.3885 29.2327 24.0886 29.9327 24.9886 29.9327Z" fill="url(#paint3_linear)"/>
<path fill-rule="evenodd" clip-rule="evenodd" d="M41.2585 38.8628C41.2585 38.5867 41.4823 38.3628 41.7585 38.3628H47.5785V39.3628H42.2585V49.7428H47.5585V50.7428H42.2585V65.9828H47.5785V66.9828H41.7585C41.4823 66.9828 41.2585 66.7589 41.2585 66.4828V50.7428H34.6785V49.7428H41.2585V38.8628ZM61.2085 38.8628C61.2085 38.5867 61.4323 38.3628 61.7085 38.3628H69.6885V39.3628H62.2085V51.2628H69.3985V52.2628H53.7185V51.2628H61.2085V38.8628Z" fill="#B3B3B3"/>
<path d="M58.8685 35.7329H45.1785V43.7429C45.1785 43.9829 45.3785 44.1829 45.6185 44.1829H58.4285C58.6685 44.1829 58.8685 43.9829 58.8685 43.7429V35.7329Z" fill="#CDCDD0"/>
<path d="M58.3985 34.543H45.6485C45.3885 34.543 45.1785 34.753 45.1785 35.013V36.013H58.8685V35.013C58.8685 34.753 58.6585 34.543 58.3985 34.543Z" fill="#78787D"/>
<path d="M38.2785 46.7432H24.5885V54.7532C24.5885 54.9932 24.7885 55.1932 25.0285 55.1932H37.8385C38.0785 55.1932 38.2785 54.9932 38.2785 54.7532V46.7432Z" fill="url(#paint4_linear)"/>
<path d="M37.8085 45.5527H25.0585C24.7985 45.5527 24.5885 45.7627 24.5885 46.0227V47.0227H38.2785V46.0227C38.2785 45.7627 38.0685 45.5527 37.8085 45.5527Z" fill="url(#paint5_linear)"/>
<path d="M78.5686 35.7329H64.8885V43.7429C64.8885 43.9829 65.0886 44.1829 65.3286 44.1829H78.1385C78.3785 44.1829 78.5786 43.9829 78.5786 43.7429L78.5686 35.7329Z" fill="url(#paint6_linear)"/>
<path d="M78.1085 34.543H65.3485C65.0885 34.543 64.8785 34.753 64.8785 35.013V36.013H78.5685V35.013C78.5685 34.753 78.3685 34.543 78.1085 34.543Z" fill="url(#paint7_linear)"/>
<path d="M78.8785 48.4531H65.1985V56.4631C65.1985 56.7031 65.3985 56.9031 65.6385 56.9031H78.4485C78.6885 56.9031 78.8885 56.7031 78.8885 56.4631L78.8785 48.4531Z" fill="#CDCDD0"/>
<path d="M78.4185 47.2632H65.6685C65.4085 47.2632 65.1985 47.4732 65.1985 47.7332V48.7332H78.8885V47.7332C78.8785 47.4732 78.6785 47.2632 78.4185 47.2632Z" fill="#78787D"/>
<path d="M58.8685 63.4531H45.1785V71.4631C45.1785 71.7031 45.3785 71.9031 45.6185 71.9031H58.4285C58.6685 71.9031 58.8685 71.7031 58.8685 71.4631V63.4531Z" fill="#CDCDD0"/>
<path d="M58.3985 62.2729H45.6485C45.3885 62.2729 45.1785 62.483 45.1785 62.743V63.743H58.8685V62.743C58.8685 62.473 58.6585 62.2729 58.3985 62.2729Z" fill="#78787D"/>
<path d="M58.8685 48.0527H45.1785V59.4027C45.1785 59.8027 45.4985 60.1227 45.8985 60.1227H58.1485C58.5485 60.1227 58.8685 59.8027 58.8685 59.4027V48.0527Z" fill="url(#paint8_linear)"/>
<path d="M58.2085 46.8628H45.8385C45.4785 46.8628 45.1785 47.1628 45.1785 47.5228V48.3328H58.8685V47.5228C58.8685 47.1528 58.5685 46.8628 58.2085 46.8628Z" fill="url(#paint9_linear)"/>
<path d="M74.1186 37.1929L70.5486 40.7829L69.4786 39.7029L68.7686 40.4229L70.5586 42.2129L74.8486 37.9129L74.1186 37.1929Z" fill="url(#paint10_linear)"/>
<defs>
<linearGradient id="paint0_linear" x1="7.04172" y1="-12.1199" x2="84.4275" y2="97.5808" gradientUnits="userSpaceOnUse">
<stop stop-color="#97C3F9"/>
<stop offset="0.4975" stop-color="#388CF4"/>
<stop offset="1" stop-color="#2C7CEF"/>
</linearGradient>
<linearGradient id="paint1_linear" x1="44.3181" y1="4.89215" x2="57.9244" y2="89.1756" gradientUnits="userSpaceOnUse">
<stop offset="0.0829" stop-color="#1152D4"/>
<stop offset="0.4296" stop-color="#0D40B5"/>
<stop offset="0.706" stop-color="#0D3FB1"/>
<stop offset="1" stop-color="#092D7F"/>
</linearGradient>
<linearGradient id="paint2_linear" x1="22.756" y1="9.84185" x2="104.394" y2="62.3772" gradientUnits="userSpaceOnUse">
<stop offset="0.4598" stop-color="#1152D4"/>
<stop offset="0.6156" stop-color="#0D3FB3"/>
</linearGradient>
<linearGradient id="paint3_linear" x1="23.3862" y1="28.3342" x2="26.5863" y2="28.3342" gradientUnits="userSpaceOnUse">
<stop stop-color="#76C0FD"/>
<stop offset="1" stop-color="#63B2FB"/>
</linearGradient>
<linearGradient id="paint4_linear" x1="21.3493" y1="47.7493" x2="116.943" y2="77.6826" gradientUnits="userSpaceOnUse">
<stop stop-color="#76C0FD"/>
<stop offset="1" stop-color="#63B2FB"/>
</linearGradient>
<linearGradient id="paint5_linear" x1="26.7723" y1="45.4077" x2="92.2393" y2="58.3467" gradientUnits="userSpaceOnUse">
<stop offset="0.4598" stop-color="#1152D4"/>
<stop offset="0.6156" stop-color="#0D3FB3"/>
</linearGradient>
<linearGradient id="paint6_linear" x1="28.087" y1="26.2317" x2="123.68" y2="56.165" gradientUnits="userSpaceOnUse">
<stop stop-color="#76C0FD"/>
<stop offset="1" stop-color="#63B2FB"/>
</linearGradient>
<linearGradient id="paint7_linear" x1="30.3811" y1="27.1486" x2="95.8481" y2="40.0875" gradientUnits="userSpaceOnUse">
<stop offset="0.4598" stop-color="#1152D4"/>
<stop offset="0.6156" stop-color="#0D3FB3"/>
</linearGradient>
<linearGradient id="paint8_linear" x1="22.3091" y1="44.6835" x2="117.902" y2="74.6167" gradientUnits="userSpaceOnUse">
<stop stop-color="#76C0FD"/>
<stop offset="1" stop-color="#63B2FB"/>
</linearGradient>
<linearGradient id="paint9_linear" x1="27.2932" y1="42.7722" x2="92.7602" y2="55.7111" gradientUnits="userSpaceOnUse">
<stop offset="0.4598" stop-color="#1152D4"/>
<stop offset="0.6156" stop-color="#0D3FB3"/>
</linearGradient>
<linearGradient id="paint10_linear" x1="68.7553" y1="39.7083" x2="74.8341" y2="39.7083" gradientUnits="userSpaceOnUse">
<stop offset="0.4598" stop-color="#1152D4"/>
<stop offset="0.6156" stop-color="#0D3FB3"/>
</linearGradient>
</defs>
</svg>
