<svg width="103" height="103" viewBox="0 0 103 103" fill="none" xmlns="http://www.w3.org/2000/svg">
<path d="M51.4948 98.3085C25.6448 98.3085 4.68481 77.3585 4.68481 51.4985C4.68481 25.6385 25.6448 4.68848 51.4948 4.68848C77.3448 4.68848 98.3048 25.6485 98.3048 51.4985C98.3048 77.3485 77.3448 98.3085 51.4948 98.3085Z" fill="url(#paint0_linear)"/>
<path fill-rule="evenodd" clip-rule="evenodd" d="M97.3949 51.4984C97.3949 76.8484 76.8449 97.3984 51.4949 97.3984C26.1449 97.3984 5.59486 76.8484 5.59486 51.4984C5.59486 26.1484 26.1449 5.5984 51.4949 5.5984C76.8449 5.5984 97.3949 26.1484 97.3949 51.4984ZM51.4949 1.8584C78.9149 1.8584 101.135 24.0784 101.135 51.4984C101.135 78.9184 78.9049 101.138 51.4949 101.138C24.0749 101.138 1.85486 78.9084 1.85486 51.4984C1.85486 24.0784 24.0749 1.8584 51.4949 1.8584Z" fill="#F2F1F0"/>
<path fill-rule="evenodd" clip-rule="evenodd" d="M94.5849 51.498C94.5849 75.298 75.2949 94.588 51.4949 94.588C27.6949 94.588 8.40492 75.298 8.40492 51.498C8.40492 27.698 27.6949 8.40797 51.4949 8.40797C75.2949 8.40797 94.5849 27.698 94.5849 51.498ZM51.4949 4.66797C77.3549 4.66797 98.3249 25.638 98.3249 51.498C98.3249 77.358 77.3549 98.328 51.4949 98.328C25.6349 98.328 4.66492 77.358 4.66492 51.498C4.66492 25.638 25.6249 4.66797 51.4949 4.66797Z" fill="url(#paint1_linear)"/>
<path d="M21.2649 74.8182H82.1449C82.7049 74.8182 83.1649 74.3582 83.1649 73.7982V26.3682H20.2449V73.7982C20.2449 74.3682 20.7049 74.8182 21.2649 74.8182Z" fill="#EBEBEB"/>
<path d="M20.2449 31.5981H83.2349V26.1381C83.2349 25.5281 82.7449 25.0381 82.1349 25.0381H21.3549C20.7449 25.0381 20.2549 25.5281 20.2549 26.1381V31.5981H20.2449Z" fill="#092E4C"/>
<path d="M25.1549 30.0484C26.0349 30.0484 26.7549 29.3384 26.7549 28.4484C26.7549 27.5584 26.0249 26.8584 25.1549 26.8584C24.2749 26.8584 23.5549 27.5684 23.5549 28.4584C23.5549 29.3484 24.2549 30.0484 25.1549 30.0484Z" fill="url(#paint2_linear)"/>
<path d="M21.2649 74.8179H27.7849L25.6749 61.3779L20.2449 65.7379V73.7979C20.2449 74.3679 20.7049 74.8179 21.2649 74.8179Z" fill="#2567B1"/>
<path d="M25.6749 61.3879L27.7949 74.8179H35.3249L40.8549 69.1679L25.8049 61.4379L25.6849 61.3779L25.6749 61.3879Z" fill="#176BB4"/>
<path d="M25.6849 61.3779L25.8049 61.4379L40.8649 69.1579L38.7049 53.5879L25.7349 61.3379L25.6749 61.3679L25.6849 61.3779Z" fill="#2567B1"/>
<path d="M40.8549 69.1685L40.8649 69.1585L25.8049 61.4385L40.8549 69.1685Z" fill="#2567B1"/>
<path d="M21.1749 46.6777L25.6749 61.3677L25.7349 61.3377L38.7049 53.5777L27.4049 49.1277L21.1749 46.6777Z" fill="#2F76BC"/>
<path d="M21.1649 46.668V46.678H21.1749L21.1649 46.668Z" fill="#2F76BC"/>
<path d="M25.6749 61.3679L25.7349 61.3379L25.6749 61.3679Z" fill="#2F76BC"/>
<path d="M20.2449 59.8877L25.6749 61.3677L21.1749 46.6777L20.2449 47.4777V59.8877Z" fill="#3087C8"/>
<path d="M25.6749 61.3784L20.2449 59.8984V65.6984L25.6749 61.3784H25.6849H25.6749Z" fill="#2F76BC"/>
<path d="M25.6749 61.3879V61.3779L20.2449 65.6979V65.7479L25.6749 61.3879Z" fill="#2F76BC"/>
<path d="M25.6849 61.3779H25.6749V61.3879L25.6849 61.3779Z" fill="#2F76BC"/>
<path d="M25.6849 61.3782L25.6749 61.3682V61.3782H25.6849Z" fill="#2F76BC"/>
<path d="M20.2449 59.8977L25.6749 61.3777V61.3677L20.2449 59.8877V59.8977Z" fill="#2F76BC"/>
<path d="M40.8648 69.1782L40.8548 69.1682L35.3248 74.8182H41.8848L40.8648 69.1582V69.1782Z" fill="#195A98"/>
<path d="M40.8649 69.1582L40.8549 69.1682L40.8649 69.1782V69.1582Z" fill="#195A98"/>
<path d="M48.2949 69.0677L47.9749 67.8477L40.8649 69.1577L41.8849 74.8177H46.4749L48.2949 69.0677Z" fill="#1D4B7A"/>
<path d="M38.7048 53.5781L40.8648 69.1581L48.5448 67.5881L48.3848 67.1181L48.2448 67.5881L38.7048 53.5781Z" fill="#176BB4"/>
<path d="M20.2449 46.8577V47.4677L21.1649 46.6777L20.2449 46.8577Z" fill="#3194D1"/>
<path d="M20.2449 47.4677V47.4777L21.1749 46.6777H21.1649L20.2449 47.4677Z" fill="#3194D1"/>
<path d="M21.1749 46.678L21.1849 46.668H21.1749V46.678Z" fill="#3194D1"/>
<path d="M30.9848 45.8877L21.1848 46.6777L27.4048 49.1277L38.7048 53.5777L38.4648 53.3377C38.4248 53.3077 38.3748 53.2877 38.3348 53.2477L30.9848 45.8877Z" fill="#3194D1"/>
<path d="M38.7049 53.5779L27.4049 49.1279L38.7049 53.5779Z" fill="#3194D1"/>
<path d="M21.1749 46.678L21.1849 46.668L21.1749 46.678Z" fill="#3194D1"/>
<path d="M21.1649 46.6678L20.2449 45.9678V46.8578L21.1649 46.6678Z" fill="#3194D1"/>
<path d="M31.0349 45.8882L30.9849 45.8682L31.0249 45.8882H31.0349Z" fill="#37AFE4"/>
<path d="M21.1849 46.6676L30.9849 45.8876L30.9649 45.8676L25.9249 44.6576L20.2449 44.0576V45.9676L21.1849 46.6676Z" fill="#37AFE4"/>
<path d="M21.1848 46.6677L30.9848 45.8877L21.1848 46.6677Z" fill="#37AFE4"/>
<path d="M38.4649 53.3377C38.6449 53.4677 38.8549 53.5677 39.0849 53.5777L39.9249 53.6077C41.0049 53.6477 41.4949 52.2577 40.6249 51.6077L34.5149 47.0277C34.4149 46.9477 34.2949 46.8977 34.1749 46.8577L31.0349 45.8877L38.4649 53.3377Z" fill="#37AFE4"/>
<path d="M30.9849 45.8877L38.3349 53.2477C38.3749 53.2877 38.4249 53.3077 38.4649 53.3377L31.0249 45.8877H30.9849Z" fill="#37AFE4"/>
<path d="M31.0248 45.8882L30.9848 45.8682H30.9648L30.9848 45.8882H31.0248Z" fill="#37AFE4"/>
<path d="M38.7048 53.5781L47.9548 65.8881L48.3848 67.1281L48.6548 66.2281L44.9348 56.6881C44.1548 54.8081 42.1648 53.6981 40.1248 53.6281L38.7048 53.5781Z" fill="#2F76BC"/>
<path d="M38.7048 53.5781L48.2448 67.5881L48.3848 67.1181L47.9548 65.8881L38.7048 53.5781Z" fill="#2F76BC"/>
<path d="M46.6649 74.8183H48.3549L48.9249 69.4783L48.5449 68.2783L48.2949 69.0683L48.4249 69.5883L46.6649 74.8183Z" fill="#1D4B7A"/>
<path d="M46.6649 74.8184L48.4249 69.5884L48.2949 69.0684L46.4749 74.8184H46.6649Z" fill="#1D4B7A"/>
<path d="M41.7649 65.5178H77.4249C77.9749 65.5178 78.4149 65.0779 78.4149 64.5279V37.2979H41.7649V65.5178Z" fill="url(#paint3_linear)"/>
<path d="M41.7649 40.3376H78.4249V37.4576C78.4249 36.9376 78.0049 36.5176 77.4849 36.5176H42.7049C42.1849 36.5176 41.7649 36.9376 41.7649 37.4576V40.3376Z" fill="#092E4C"/>
<path d="M44.5849 39.4371C45.0949 39.4371 45.5149 39.0271 45.5149 38.5071C45.5149 37.9871 45.0849 37.5771 44.5849 37.5771C44.0749 37.5771 43.6549 37.9871 43.6549 38.5071C43.6549 39.0271 44.0649 39.4371 44.5849 39.4371Z" fill="url(#paint4_linear)"/>
<path d="M20.4349 58.9079V58.6279C20.4249 58.6579 20.4249 58.6979 20.4049 58.7579C20.3749 58.8579 20.3949 58.8779 20.4349 58.9079Z" fill="url(#paint5_linear)"/>
<path d="M20.4249 60.6382C20.4249 60.6482 20.4349 60.6482 20.4349 60.6582V60.1582C20.3949 60.2282 20.3949 60.2682 20.2849 60.3882C20.1749 60.5182 20.3249 60.4782 20.4249 60.6382Z" fill="url(#paint6_linear)"/>
<path d="M28.955 57.1281C28.865 56.9581 29.005 56.9481 28.785 56.9181C28.555 56.8881 28.455 56.9681 28.465 56.8681C28.475 56.7681 28.545 56.7081 28.545 56.6381C28.545 56.5781 28.605 56.5581 28.485 56.4781C28.355 56.3981 28.285 56.3981 28.315 56.3381C28.345 56.2781 28.405 56.0981 28.315 56.0181C28.225 55.9681 28.155 55.8381 28.195 55.7581C28.235 55.6781 28.275 55.4681 28.335 55.4181C28.395 55.3781 28.495 55.3681 28.495 55.3681L28.365 54.8981H28.235C28.235 54.8981 27.995 54.7181 27.885 54.4881C27.785 54.2781 27.765 54.2081 27.545 53.9481C27.345 53.7081 27.125 53.5981 27.125 53.5981L26.875 53.2781C26.875 53.2781 26.665 52.9981 26.555 52.8081C26.465 52.6281 26.495 52.5981 26.475 52.4381C26.465 52.2981 26.295 52.1881 26.295 52.1881L25.975 52.1281L25.925 51.8881L25.785 51.5581L25.535 51.7981L25.405 51.8381L25.145 51.7881C25.145 51.7881 24.985 51.6581 24.915 51.7781C24.855 51.8981 24.665 51.8581 24.665 51.8581C24.665 51.8581 24.495 51.7681 24.615 51.6481C24.735 51.5281 24.855 51.4381 24.855 51.4381L25.025 51.3981C25.025 51.3981 25.165 51.2281 24.975 51.2581C24.775 51.2881 24.555 51.2881 24.555 51.2881L24.425 51.2081C24.425 51.2081 23.935 51.1081 23.855 51.1481C23.775 51.1881 23.625 51.1581 23.475 51.3881C23.345 51.6181 23.345 51.7681 23.345 51.7681L23.165 52.1781C23.165 52.1781 23.195 52.1881 22.965 52.2281C22.735 52.2681 22.315 52.3981 22.285 52.3881C22.245 52.3781 22.035 52.5181 22.035 52.5181L21.795 52.7781C21.795 52.7781 21.425 52.7681 21.455 52.9081C21.485 53.0481 21.575 53.3581 21.575 53.3581C21.575 53.3581 21.585 53.4981 21.415 53.5581C21.245 53.6081 21.025 53.6681 21.025 53.6681C21.025 53.6681 21.055 53.7881 20.895 53.8381C20.735 53.8881 20.635 53.9981 20.685 54.1181C20.735 54.2381 20.715 54.3681 20.865 54.3681C21.015 54.3681 21.295 54.3981 21.045 54.4881C20.805 54.5781 20.695 54.6281 20.665 54.7181C20.635 54.7981 20.655 55.0981 20.655 55.0981L20.755 55.2681C20.755 55.2681 21.005 55.1781 21.085 55.0881C21.135 54.9981 21.225 54.9881 21.225 54.9881L21.675 54.9581C21.775 55.0581 22.065 55.2181 22.435 55.4381C22.645 55.5681 22.765 55.9481 22.785 56.1081C22.815 56.2681 22.945 56.4481 22.945 56.4481L23.105 56.6081L23.155 57.1081L23.185 57.3681L23.425 57.3281L23.525 57.5681C23.525 57.5681 23.655 57.5081 23.785 57.4881C23.915 57.4781 24.115 57.6681 24.135 57.8681C24.165 58.0381 24.085 58.2781 24.135 58.4581C24.185 58.6381 24.225 58.7481 24.225 58.9081C24.225 59.0481 24.325 59.1481 24.195 59.1681C24.065 59.1981 24.015 59.1581 23.985 59.2881C23.955 59.4181 23.935 59.5481 23.935 59.5481L23.835 59.6681L23.795 59.9181C23.795 59.9181 23.745 60.2881 23.805 60.3381C23.865 60.3881 23.855 60.5381 23.965 60.5481C24.065 60.5581 24.295 60.5781 24.295 60.5781C24.295 60.5781 24.235 60.9481 24.295 61.0081C24.355 61.0681 24.425 61.0881 24.425 61.0881C24.425 61.0881 24.415 61.4381 24.425 61.5381C24.435 61.6381 24.545 61.8281 24.545 61.8281C24.545 61.8281 24.645 61.8881 24.785 61.9181C24.915 61.9481 25.045 62.0581 25.045 62.0581C25.045 62.0581 25.205 62.0581 25.285 62.1581C25.365 62.2581 25.385 62.3181 25.535 62.4181C25.675 62.5181 25.675 62.5781 25.855 62.5581C25.995 62.5481 26.015 62.5181 26.065 62.4781C26.115 62.4381 26.205 62.4181 26.205 62.4181L26.625 62.8081C26.625 62.8081 26.665 62.8581 26.795 62.9381C26.925 63.0181 27.055 63.0181 27.055 63.0181L26.935 61.7281C26.935 61.7281 26.935 61.4781 26.995 61.3181C27.055 61.1881 27.115 60.9981 27.075 60.9281C27.035 60.8581 26.995 60.4681 26.995 60.3881C26.995 60.3081 26.935 60.1381 26.945 60.0481C26.955 59.9681 27.005 59.8881 27.125 59.9181C27.245 59.9481 27.355 59.8881 27.355 59.8881L27.445 59.6881L27.485 59.6281C27.485 59.6281 27.765 59.5981 27.865 59.5681C27.945 59.5281 28.035 59.3881 28.035 59.3281C28.035 59.2681 28.095 59.2081 28.095 59.2081C28.095 59.2081 28.095 59.0281 28.125 58.8281C28.155 58.6581 28.175 58.3281 28.255 58.3281C28.335 58.3281 28.455 58.3681 28.515 58.2381C28.575 58.1081 28.605 57.9881 28.605 57.9881C28.605 57.9881 28.815 58.0681 28.895 57.9081C28.955 57.7481 28.995 57.6981 28.995 57.5381C28.995 57.4081 29.055 57.2881 29.025 57.2881C28.985 57.2681 29.045 57.2981 28.955 57.1281Z" fill="url(#paint7_linear)"/>
<path d="M32.4449 58.0281C32.3149 58.0281 32.3049 58.0581 32.1949 58.0781C32.0949 58.1081 31.9349 58.0281 31.9349 58.0281C31.9349 58.0281 31.8349 57.9181 31.8049 58.0781C31.7749 58.2181 31.6749 58.4981 31.5349 58.4981C31.4049 58.4981 31.4749 58.1781 31.3349 58.4681C31.1949 58.7581 31.2549 58.6381 31.0049 58.6381C30.7649 58.6381 30.7749 58.5781 30.6749 58.6281C30.5949 58.6781 30.5449 58.6281 30.5849 58.8381C30.6249 59.0481 30.6249 59.2281 30.7249 59.2681C30.8249 59.3081 30.9749 59.3181 31.2149 59.3281C31.4449 59.3381 31.3749 59.3781 31.4749 59.5081C31.5749 59.6381 31.6149 59.4981 31.7549 59.5481C31.8849 59.5981 31.9249 59.7781 32.0449 59.5981C32.1449 59.4281 32.2049 59.3881 32.2049 59.2681C32.2049 59.1681 32.0749 59.2181 32.1249 59.1281C32.1749 59.0381 32.3049 58.9681 32.3049 58.9681C32.3049 58.9681 32.4249 58.9981 32.4349 58.9081C32.4449 58.8181 32.4449 58.7781 32.4349 58.6181C32.4249 58.4781 32.5149 58.2681 32.5149 58.2681C32.5149 58.2681 32.5749 58.0281 32.4449 58.0281Z" fill="url(#paint8_linear)"/>
<path d="M21.4349 68.1576C21.5249 68.0676 21.2949 68.0976 21.0849 68.1076C20.9049 68.1176 20.6749 68.1476 20.6749 68.1476C20.3849 68.1776 20.8749 68.3076 20.9949 68.4776C21.0849 68.6176 21.1949 68.6076 21.3649 68.7976C21.5049 68.9576 21.4449 68.7976 21.5049 68.7076C21.5649 68.6176 21.4649 68.4676 21.3849 68.3576C21.2949 68.2276 21.3349 68.2476 21.4349 68.1576Z" fill="url(#paint9_linear)"/>
<path d="M24.845 68.8083L24.805 68.6683L24.575 68.5683L24.495 68.4383C24.495 68.4383 24.465 68.1183 24.395 68.1083C24.315 68.0983 24.185 68.0483 24.145 68.1183C24.105 68.1983 24.095 68.3483 24.025 68.3283C23.965 68.3183 23.775 68.3683 23.675 68.1483C23.595 67.9383 23.385 68.2283 23.385 68.2283L23.185 68.1283C23.185 68.1283 23.325 67.8383 23.425 67.7183C23.515 67.6183 23.765 67.1083 23.295 67.3383C23.085 67.4383 23.065 67.5683 23.055 67.6883C23.045 67.7883 23.005 68.0283 22.975 68.1583C22.945 68.2883 23.005 68.2783 22.875 68.4183C22.745 68.5583 22.835 68.3683 22.745 68.5583C22.655 68.7583 22.545 68.9483 22.625 69.0683C22.705 69.1883 22.805 69.1883 22.805 69.1883C22.805 69.1883 22.905 69.0583 23.065 69.0583C23.225 69.0583 23.395 69.0883 23.555 69.0183C23.715 68.9583 23.905 68.9883 23.905 68.9883L24.065 68.9283L24.275 69.0283C24.275 69.0283 24.315 68.9983 24.325 69.1683C24.335 69.3383 24.455 69.1683 24.455 69.1683L24.635 69.0383L24.715 69.2383C24.715 69.2383 24.835 69.3983 24.965 69.3583C25.095 69.3183 25.165 69.3583 25.165 69.2283C25.165 69.0983 25.155 68.8583 25.155 68.8583L24.845 68.8083Z" fill="url(#paint10_linear)"/>
<path d="M20.4549 70.3782C20.4549 70.3982 20.4549 70.4082 20.4349 70.4182V71.0782C20.5049 71.0182 20.6349 71.0082 20.7649 70.9182C20.8949 70.8182 20.9349 70.7782 21.1049 70.7182C21.2649 70.6782 21.3349 70.6182 21.4349 70.5082C21.5249 70.4082 21.8149 70.3482 21.8149 70.3482C21.8149 70.3482 22.0449 70.0582 22.0649 69.9782C22.1049 69.8982 22.0749 69.7282 21.9349 69.7282C21.8049 69.7282 21.7349 69.8582 21.7349 69.8582C21.7349 69.8582 21.6049 70.0982 21.4949 70.1582C21.3949 70.2082 21.2649 70.1882 21.1249 70.2782C20.9949 70.3682 20.7749 70.4482 20.7449 70.4082C20.7149 70.3682 20.9549 70.3282 20.9849 70.2682C21.0149 70.2082 20.9249 70.1782 20.8049 70.1282C20.6849 70.0782 20.6649 70.0082 20.6449 69.8382C20.6349 69.6782 20.5449 69.6582 20.4449 69.6382C20.4349 69.6382 20.4349 69.6282 20.4249 69.6182V70.3482C20.4449 70.3682 20.4549 70.3682 20.4549 70.3782Z" fill="url(#paint11_linear)"/>
<path d="M20.5749 68.5982C20.5949 68.4782 20.5149 68.4282 20.4349 68.4082V68.9582C20.5049 68.8482 20.5549 68.6982 20.5749 68.5982Z" fill="url(#paint12_linear)"/>
<path d="M20.8049 68.0974C20.9049 68.0974 21.1049 68.0474 21.2249 68.0374C21.3549 68.0274 21.7949 68.1274 21.7949 68.1274C21.7949 68.1274 22.0349 68.0974 22.1849 67.9874C22.3249 67.8674 22.3549 67.8274 22.4749 67.6674C22.5749 67.5274 22.6349 67.5374 22.7949 67.5274C22.9349 67.4974 23.0249 67.4374 23.2149 67.3274C23.3949 67.2274 23.5349 67.1174 23.5649 66.8774C23.6049 66.6574 23.3049 66.4874 23.2149 66.4474C23.1349 66.4074 23.0049 66.3974 22.8949 66.4174C22.8149 66.4474 22.5749 66.5174 22.5049 66.5874C22.4249 66.6474 22.1249 66.7574 22.0349 66.7874C21.9449 66.8174 22.1249 66.5874 22.2449 66.5774C22.2849 66.5774 22.3049 66.5674 22.3349 66.5474C22.3949 66.5174 22.4549 66.4874 22.5149 66.4474C22.6049 66.4074 22.6849 66.3974 22.8349 66.3874C22.9549 66.3774 22.8749 66.3074 22.8249 66.2174C22.7749 66.1274 22.6149 66.0874 22.6149 66.0874L22.1449 65.9174C22.1449 65.9174 22.0149 65.7974 21.9349 65.7374C21.8549 65.6774 21.7249 65.5774 21.5949 65.5374C21.4949 65.4974 21.5049 65.3674 21.4749 65.2374C21.4449 65.1374 21.5549 65.1474 21.5949 65.0374C21.6349 64.9374 21.6349 64.9574 21.6049 64.8674C21.5749 64.7774 21.5149 64.7274 21.4649 64.7074C21.4149 64.6974 21.2949 64.5274 21.2649 64.4574C21.2349 64.3974 21.1649 63.9974 21.1649 63.9974C21.1649 63.9974 21.0849 63.8574 20.9949 63.8574C20.9049 63.8574 20.8549 63.8074 20.8149 63.6574C20.7649 63.4974 20.7349 63.4974 20.6949 63.6074C20.6649 63.7074 20.5349 63.7074 20.4449 63.7774C20.4449 63.7774 20.4449 63.7874 20.4349 63.7874V68.0574C20.5149 68.0974 20.6749 68.0974 20.8049 68.0974ZM20.6349 66.4274C20.6649 66.3474 20.7949 66.4374 20.7949 66.4374C20.9249 66.5574 20.8849 66.6374 20.8349 66.6174C20.7949 66.6174 20.6649 66.6274 20.5949 66.6074C20.5249 66.5874 20.6049 66.5074 20.6349 66.4274Z" fill="url(#paint13_linear)"/>
<path d="M20.835 66.6274C20.885 66.6374 20.925 66.5674 20.795 66.4474C20.795 66.4474 20.665 66.3574 20.635 66.4374C20.605 66.5174 20.535 66.5974 20.595 66.6174C20.655 66.6374 20.795 66.6274 20.835 66.6274Z" fill="url(#paint14_linear)"/>
<path d="M20.835 66.6274C20.885 66.6374 20.925 66.5674 20.795 66.4474C20.795 66.4474 20.665 66.3574 20.635 66.4374C20.605 66.5174 20.535 66.5974 20.595 66.6174C20.655 66.6374 20.795 66.6274 20.835 66.6274Z" fill="url(#paint15_linear)"/>
<path d="M29.115 56.0879C28.955 56.0079 28.795 55.9979 28.795 55.9979C28.695 55.9679 28.635 55.9879 28.565 56.0979C28.505 56.2179 28.475 56.5279 28.615 56.4779C28.765 56.4279 28.855 56.4279 28.955 56.4879C29.035 56.5479 29.135 56.7779 29.275 56.8079C29.325 56.8179 29.375 56.8379 29.435 56.8179C29.475 56.8179 29.515 56.7879 29.525 56.7379C29.535 56.6179 29.645 56.5279 29.485 56.3579C29.345 56.2279 29.275 56.1379 29.115 56.0879Z" fill="url(#paint16_linear)"/>
<path d="M29.1549 56.948C29.1149 56.978 29.1549 57.078 29.1849 57.198C29.2149 57.318 29.2949 57.248 29.4349 57.208C29.5749 57.168 29.5649 57.078 29.5149 56.958C29.3849 56.668 29.1749 56.918 29.1549 56.948Z" fill="url(#paint17_linear)"/>
<path d="M23.675 58.6779C23.775 58.5979 23.815 58.5979 23.765 58.4679C23.715 58.3379 23.725 58.3079 23.735 58.2279C23.745 58.1479 23.635 58.1879 23.745 58.1479C23.905 58.0979 24.135 57.9979 23.885 57.8179C23.805 57.7679 23.725 57.6479 23.515 57.7279C23.335 57.8079 23.225 57.6779 23.225 57.9279C23.225 58.1779 23.235 58.3779 23.235 58.4679C23.235 58.5579 23.365 58.7579 23.415 58.8779C23.465 58.9779 23.515 59.1579 23.555 58.9979C23.595 58.8379 23.565 58.7779 23.675 58.6779Z" fill="url(#paint18_linear)"/>
<path d="M45.5849 62.2676C45.6449 62.0976 45.6149 61.9876 45.5749 61.9176C45.5449 61.8676 45.4549 62.0576 45.4549 62.0576C45.4549 62.0576 45.3549 62.1776 45.3549 62.3176C45.3449 62.4676 45.5149 62.4076 45.5849 62.2676Z" fill="url(#paint19_linear)"/>
<path d="M45.555 61.7581C45.555 61.7581 45.585 61.5381 45.545 61.5781C45.505 61.6181 45.365 61.5781 45.415 61.6981C45.465 61.8081 45.555 61.7581 45.555 61.7581Z" fill="url(#paint20_linear)"/>
<path d="M37.745 62.3677L37.575 62.2277C37.575 62.2277 37.455 62.0877 37.445 61.9877C37.435 61.8977 37.475 61.5777 37.435 61.4777C37.425 61.4377 37.195 61.3877 37.045 61.3477C36.895 61.4277 36.955 61.6677 36.955 61.6677C36.955 61.6677 36.965 61.8977 36.895 61.9577C36.815 62.0177 36.815 62.2377 36.765 62.5277C36.715 62.8077 36.855 62.6177 36.965 62.5877C37.075 62.5577 37.135 62.7077 37.135 62.7077L37.185 63.0477L37.175 63.5477L37.555 63.3377L37.595 63.1077L37.715 62.9377L37.955 62.6877C37.955 62.6877 37.915 62.6377 37.905 62.5677C37.865 62.4977 37.745 62.3677 37.745 62.3677Z" fill="url(#paint21_linear)"/>
<path d="M36.6149 59.938C36.6949 59.898 36.7349 59.548 36.6949 59.568C36.6549 59.618 36.5749 59.368 36.4749 59.568C36.4349 59.618 36.3949 59.768 36.4749 59.828C36.5449 59.898 36.5349 59.978 36.6149 59.938Z" fill="url(#paint22_linear)"/>
<path d="M37.1349 61.2177C37.3349 61.2477 37.6249 61.2477 37.6749 61.1277C37.7249 61.0077 38.1649 60.6977 37.9949 60.6377C37.8249 60.5877 37.5749 60.7277 37.4249 60.6377C37.2849 60.5477 37.2549 60.5477 37.1949 60.3177C37.1449 60.1177 37.1349 59.8477 37.0649 59.8577C37.0049 59.8877 36.8849 60.0877 36.7749 60.1077C36.6449 60.1477 36.4249 60.0077 36.4049 60.1377C36.3949 60.2677 36.4949 60.6077 36.4949 60.6077C36.4949 60.6077 36.6649 60.7677 36.7749 60.9577C36.8849 61.1377 36.9249 61.1877 37.1349 61.2177Z" fill="url(#paint23_linear)"/>
<path d="M39.545 61.9377C39.585 61.8777 39.635 61.8977 39.635 61.7377C39.635 61.5777 39.735 61.6077 39.635 61.5777C39.535 61.5477 39.425 61.7077 39.385 61.6077C39.345 61.5077 39.345 61.3677 39.345 61.2877C39.345 61.1677 39.405 60.7477 39.165 61.1377C39.085 61.2677 39.075 61.4577 38.965 61.2977C38.865 61.1677 38.685 61.1177 38.685 61.1177L38.595 61.2177C38.595 61.2177 38.505 61.0477 38.395 60.9777C38.295 60.9177 38.215 60.8477 38.215 60.8477C38.215 60.8477 37.895 60.9877 37.835 61.1277C37.775 61.2577 37.845 61.4777 37.975 61.5477C38.105 61.6177 38.145 61.6377 38.105 61.7977C38.065 61.9577 38.005 61.9577 38.025 62.1177C38.055 62.2477 38.185 62.5077 38.185 62.5077C38.185 62.5077 38.265 62.5077 38.365 62.3877C38.465 62.2677 38.545 62.2277 38.545 62.2277C38.545 62.2277 38.745 62.0177 38.755 62.1477C38.765 62.2777 38.795 62.4877 38.635 62.5677C38.475 62.6477 38.535 62.5277 38.475 62.6477C38.415 62.7677 38.415 62.8477 38.425 63.0277C38.435 63.1877 38.435 63.3677 38.435 63.3677L38.755 63.3377C38.755 63.3377 38.895 63.1077 38.895 62.9677C38.895 62.8477 38.865 62.6777 38.945 62.6377C39.025 62.6077 39.065 62.6377 39.105 62.5777C39.145 62.5177 39.225 62.4377 39.225 62.4377L39.255 62.2577C39.255 62.2577 39.265 62.1577 39.345 62.1177C39.425 62.0777 39.505 61.9977 39.545 61.9377Z" fill="url(#paint24_linear)"/>
<path d="M38.9449 58.6076C38.9149 58.7776 39.0249 58.8976 39.0249 58.8976C39.0249 58.8976 39.0849 58.9576 39.1649 58.8376C39.2449 58.7076 39.3349 58.5876 39.4549 58.6276C39.5649 58.6376 40.1149 58.4776 39.8249 58.3576C39.7249 58.3176 39.5949 58.3676 39.4849 58.3576C39.3949 58.3476 39.3549 58.3876 39.2749 58.2576C39.1949 58.1276 39.2249 58.1976 39.1149 58.0776C39.0149 57.9576 38.9349 57.9176 38.9049 57.8676C38.8749 57.8176 38.8149 57.8076 38.8149 57.8076C38.8149 57.8076 38.7249 58.1976 38.8149 58.3476C38.9049 58.4776 38.9649 58.4376 38.9449 58.6076Z" fill="url(#paint25_linear)"/>
<path d="M40.3849 57.5776C40.5049 57.5276 40.5549 57.3476 40.5549 57.3476L40.4749 57.0876C40.3949 57.0476 40.3049 56.9076 40.3349 57.1376C40.3549 57.3776 40.2649 57.6276 40.3849 57.5776Z" fill="url(#paint26_linear)"/>
<path d="M39.9149 56.4974C39.8749 56.4874 39.7249 56.4874 39.8249 56.5874C39.9149 56.6874 39.9549 56.7674 39.9549 56.7674C39.9549 56.7674 40.1449 56.5874 39.9149 56.4974Z" fill="url(#paint27_linear)"/>
<path d="M20.7149 61.3575C20.8449 61.3675 20.9149 61.3875 20.8949 61.2275C20.8749 61.0675 20.7349 60.9075 20.7349 60.9075C20.7349 60.9075 20.5449 60.7975 20.4349 60.6475V61.3375C20.5349 61.3375 20.6449 61.3475 20.7149 61.3575Z" fill="url(#paint28_linear)"/>
<path d="M20.5049 58.4574C20.5949 58.3374 20.6849 58.3374 20.6649 58.2074C20.6449 58.0774 20.7649 57.8774 20.6149 57.8674C20.5549 57.8574 20.4949 57.8574 20.4449 57.8574V58.6374C20.4449 58.5774 20.4549 58.5374 20.5049 58.4574Z" fill="url(#paint29_linear)"/>
<path d="M20.5649 62.0182C20.5349 61.9882 20.4849 61.9482 20.4349 61.9082V62.1382C20.5649 62.1182 20.6849 62.1082 20.5649 62.0182Z" fill="url(#paint30_linear)"/>
<path d="M20.4449 60.1282C20.5249 60.0382 20.6249 60.1282 20.6849 60.2682C20.7349 60.4082 20.6549 60.4782 20.8949 60.5882C21.1349 60.6782 21.1249 60.8782 21.2649 60.9282C21.3949 60.9782 21.3449 60.7582 21.4349 60.5782C21.5249 60.4182 21.4849 60.4382 21.5949 60.3382C21.6949 60.2482 21.6949 60.1782 21.8449 60.0482C22.0149 59.8782 22.1249 59.6982 22.0049 59.6282C21.8849 59.5682 21.7249 59.5882 21.7249 59.5882C21.7249 59.5882 21.6449 59.6782 21.4849 59.6482C21.3249 59.6182 21.2849 59.5582 21.1849 59.4782C21.0949 59.3982 20.9249 59.3482 20.9249 59.3482C20.9249 59.3482 20.8849 59.3482 20.7449 59.2182C20.6049 59.0882 20.5849 59.0582 20.5049 58.9682C20.4749 58.9382 20.4549 58.9182 20.4349 58.9082V60.1482C20.4449 60.1482 20.4449 60.1382 20.4449 60.1282Z" fill="url(#paint31_linear)"/>
<path d="M20.8949 53.2382C20.8949 53.2382 21.0049 53.2682 21.1249 53.1582C21.2449 53.0282 21.1849 52.8082 21.1849 52.8082C21.1849 52.8082 21.3149 52.7582 21.4849 52.7182C21.6549 52.6782 21.5349 52.5882 21.6249 52.5082C21.7449 52.4382 21.7649 52.4982 21.9749 52.2982C22.1849 52.1082 22.0049 52.0882 22.0049 52.0882L21.7249 51.9982L21.3549 51.8682C21.3549 51.8682 21.2249 51.8682 21.1149 51.9582C20.9949 52.0482 20.9149 52.0282 20.7349 52.0482C20.6249 52.0682 20.5149 52.0582 20.4149 52.0482V52.5082C20.5049 52.5382 20.4849 52.6382 20.4149 52.7082V53.3782C20.4749 53.3582 20.5549 53.3382 20.6049 53.3082C20.7049 53.2582 20.8949 53.2382 20.8949 53.2382Z" fill="url(#paint32_linear)"/>
<path d="M29.895 50.8879C29.815 50.8979 29.525 50.9879 29.425 50.8279C29.325 50.6579 29.075 50.6279 29.075 50.6279C29.075 50.6279 28.655 50.6579 28.865 50.7879C29.075 50.9179 29.155 50.9179 29.285 50.9479C29.415 50.9779 29.525 51.1079 29.525 51.1079L29.765 51.1379C29.765 51.1479 30.175 50.9879 29.895 50.8879Z" fill="url(#paint33_linear)"/>
<path d="M33.585 49.3978C33.585 49.3978 33.765 49.4978 33.875 49.5378C33.965 49.5778 34.045 49.6578 34.075 49.6178C34.075 49.5678 34.245 49.4378 33.995 49.3178C33.865 49.2578 33.895 49.1478 33.765 49.2178C33.645 49.2778 33.585 49.3978 33.585 49.3978Z" fill="url(#paint34_linear)"/>
<path d="M34.1249 50.3876C34.1249 50.4776 34.0949 50.5676 34.2249 50.5576C34.3449 50.5476 34.3049 50.5976 34.3449 50.5476C34.3949 50.5076 34.6049 50.4576 34.4149 50.2976C34.2549 50.1776 34.1249 50.2976 34.1249 50.3876Z" fill="url(#paint35_linear)"/>
<path d="M32.1249 47.6878C32.1349 47.5978 32.2549 47.2678 32.1149 47.2378C31.9849 47.2278 32.0849 47.3578 31.9949 47.4378C31.9049 47.4978 31.6749 47.5278 31.7949 47.6378C31.8949 47.7378 32.0849 47.7778 32.1249 47.6878Z" fill="url(#paint36_linear)"/>
<path d="M32.5549 47.9382C32.5849 47.8482 32.6349 47.7482 32.4649 47.6782C32.3449 47.6382 32.1349 47.7082 32.2649 47.8382C32.3849 47.9582 32.5049 48.0282 32.5549 47.9382Z" fill="url(#paint37_linear)"/>
<path d="M32.9849 48.4881C33.0649 48.3481 33.1549 48.0581 32.8249 48.0781C32.6249 48.0881 32.2949 48.1581 32.4149 48.2781C32.5349 48.3781 32.6549 48.4381 32.7549 48.4781C32.8449 48.4981 32.9149 48.6281 32.9849 48.4881Z" fill="url(#paint38_linear)"/>
<path d="M20.8449 45.3774C20.9449 45.3674 21.1449 45.4074 21.0749 45.2874C21.0249 45.1774 20.8349 45.0874 20.7949 45.0674C20.6749 45.0774 20.5649 45.0774 20.4549 45.0874C20.4449 45.0974 20.4449 45.1074 20.4349 45.1174V45.2374C20.4449 45.2474 20.4649 45.2674 20.4849 45.2774C20.6149 45.3574 20.7249 45.3774 20.8449 45.3774Z" fill="url(#paint39_linear)"/>
<path d="M20.435 45.2274V45.1074C20.415 45.1474 20.395 45.1874 20.435 45.2274Z" fill="url(#paint40_linear)"/>
<path d="M20.435 45.2274V45.1074C20.415 45.1474 20.395 45.1874 20.435 45.2274Z" fill="url(#paint41_linear)"/>
<path d="M25.6949 46.0674C25.7049 46.0774 25.6149 45.8174 25.6049 45.8174C25.4649 45.8174 25.5149 46.0174 25.5149 46.0174L25.6949 46.0674Z" fill="url(#paint42_linear)"/>
<path d="M33.0349 49.2682C33.1249 49.2982 33.2349 49.4582 33.2949 49.3582C33.3649 49.2682 33.1149 49.1082 33.1149 49.1082C33.1149 49.1082 33.1149 48.9282 33.0849 48.7582C33.0849 48.6682 32.9349 48.9282 32.9349 48.9282C32.9349 48.9282 32.8549 49.1482 32.8749 49.2482C32.8949 49.3282 32.9349 49.2382 33.0349 49.2682Z" fill="url(#paint43_linear)"/>
<path d="M33.785 48.6082C33.785 48.5182 33.735 48.3982 33.625 48.3682C33.625 48.3682 33.485 48.4182 33.535 48.5282C33.595 48.6282 33.785 48.6982 33.785 48.6082Z" fill="url(#paint44_linear)"/>
<path d="M35.1149 50.0683C35.1249 50.0783 35.0849 49.7083 34.9949 49.7683C34.8749 49.8283 34.9349 49.9983 34.9349 49.9983L35.1149 50.0683Z" fill="url(#paint45_linear)"/>
<path d="M34.945 50.1881C34.905 50.2181 34.955 50.2881 35.035 50.3181C35.125 50.3481 35.015 50.1181 34.945 50.1881Z" fill="url(#paint46_linear)"/>
<path d="M20.455 45.0878C20.455 45.0878 20.455 45.0778 20.455 45.0878C20.515 45.0278 20.715 45.0878 20.775 45.0678L20.785 45.0778C21.025 45.0678 21.265 45.0478 21.365 45.0678C21.565 45.0978 21.695 45.1278 21.695 45.1278L22.035 45.1378C22.045 45.1278 22.035 45.1178 22.065 45.1178C22.245 45.1178 22.315 45.0878 22.395 45.0878C22.445 45.0878 22.485 45.1078 22.515 45.1378L22.735 45.1078C22.775 45.0778 22.815 45.0378 22.835 45.0278C22.865 45.0078 22.915 45.0378 22.965 45.0778L23.055 45.0678L23.635 45.3178C23.635 45.3178 23.635 45.5278 23.835 45.5278C24.035 45.5278 24.255 45.5878 24.405 45.6478C24.555 45.7078 24.775 45.8778 24.775 45.8778C24.775 45.8778 25.005 45.8778 25.155 45.7978C25.295 45.7178 25.545 45.5678 25.645 45.6278C25.735 45.6778 25.905 45.7578 25.905 45.7578L26.135 46.1878L26.635 46.0878C26.635 46.0878 27.145 46.0978 27.335 46.0478C27.515 45.9978 27.835 46.0378 27.835 46.0378L28.455 46.2178C28.455 46.2178 28.965 46.3378 29.195 46.3178C29.425 46.3078 29.655 46.0678 29.765 46.2878C29.865 46.5178 30.005 46.3878 30.105 46.3478C30.185 46.3078 30.525 46.2978 30.525 46.2978C30.525 46.2978 30.285 46.4678 30.435 46.5378C30.575 46.5978 30.815 46.8778 30.935 46.7778C31.055 46.6978 31.135 46.5378 31.275 46.5378C31.395 46.5378 31.555 46.4578 31.645 46.5878C31.705 46.7178 31.775 46.9078 31.875 46.9578C31.965 47.0078 32.245 47.1378 32.245 47.1378L32.595 47.2178C32.595 47.2178 32.635 47.4978 32.735 47.6878C32.835 47.8578 32.835 47.8578 32.995 47.8878C33.155 47.9178 33.455 48.0478 33.455 48.0478C33.455 48.0478 33.695 48.3078 33.825 48.3078C33.925 48.3078 34.145 48.5578 34.145 48.7678C34.145 48.9678 34.285 49.1478 34.385 49.2178C34.475 49.2778 34.585 49.4778 34.585 49.4778C34.585 49.4778 34.755 49.6478 34.905 49.6078C35.025 49.5678 35.225 49.4478 35.275 49.5578C35.325 49.6578 35.355 50.0578 35.355 50.0578L35.575 50.4978C35.575 50.4978 35.705 50.6578 35.855 50.7378C35.995 50.8178 36.115 50.6978 36.175 50.8978C36.205 51.0978 36.085 50.9878 35.885 50.8878C35.705 50.7878 35.425 50.6378 35.425 50.6378C35.425 50.6378 35.185 50.4978 35.035 50.4778C34.905 50.4678 34.835 50.5778 34.835 50.5778L34.705 50.9678C34.705 50.9678 34.645 51.0478 34.475 51.0478C34.315 51.0478 34.215 51.0178 34.215 51.0178L33.885 51.0978L33.985 51.6078L34.035 52.4478C34.035 52.4478 34.035 52.9378 34.235 53.1078C34.435 53.2778 34.445 53.4778 34.685 53.5778C34.895 53.6778 34.975 53.5878 35.155 53.7578C35.325 53.9278 35.545 53.9978 35.685 54.2278C35.815 54.4378 35.825 54.4878 36.015 54.9078C36.175 55.3278 36.245 55.4878 36.385 55.5178C36.505 55.5478 36.555 55.6378 36.555 55.6378C36.555 55.6378 36.565 56.0078 36.655 56.3178C36.745 56.6578 36.855 56.6678 36.815 56.9478C36.775 57.2378 36.905 57.4378 36.905 57.4378C36.905 57.4378 36.915 57.4878 37.085 57.5278C37.255 57.5678 37.335 57.7378 37.415 57.6478C37.465 57.5578 37.515 57.2278 37.575 57.4078C37.625 57.5678 37.535 57.8578 37.635 57.8778C37.735 57.9078 37.755 57.8678 37.845 58.0478C37.935 58.2278 37.985 58.3978 38.165 58.2978C38.305 58.2178 38.305 58.1978 38.415 58.0978C38.515 58.0078 38.605 57.9178 38.575 57.7078C38.545 57.5278 38.475 57.4478 38.545 57.2978C38.625 57.1778 38.685 57.1778 38.685 57.1378C38.685 57.0978 38.545 56.8878 38.655 56.7878C38.775 56.7078 38.655 56.6678 38.775 56.7078C38.895 56.7478 38.945 56.7178 39.015 56.7878C39.075 56.8478 39.115 56.9078 39.105 56.9978C39.095 57.0878 38.935 57.0978 38.905 57.2578C38.875 57.4178 38.945 57.5878 38.945 57.5878C38.945 57.5878 39.115 57.6778 39.205 57.6478C39.295 57.6178 39.295 57.5678 39.445 57.7678C39.585 57.9678 39.615 58.0878 39.695 58.0978C39.775 58.1078 40.075 58.2178 39.945 58.0078C39.845 57.7978 39.765 57.7478 39.735 57.6378C39.705 57.5578 39.775 57.3178 39.775 57.3178C39.775 57.3178 39.935 57.1978 39.835 57.0678C39.745 56.9378 39.495 56.8278 39.375 56.7278C39.255 56.6478 39.055 56.7178 39.025 56.4678C38.985 56.2178 38.935 56.3478 38.935 56.1178C38.935 55.8878 38.835 55.5278 38.675 55.4978C38.515 55.4678 38.415 55.5978 38.175 55.5878C37.965 55.5778 37.565 55.1178 37.345 54.8778C37.115 54.6378 36.755 54.3078 36.835 54.2178C36.915 54.1278 36.915 53.9878 36.915 53.9878C36.915 53.9878 36.915 54.1578 36.625 53.8178C36.335 53.4478 36.055 53.1778 36.095 53.0378C36.135 52.9078 36.355 53.0478 36.545 53.0878C36.705 53.1278 36.925 53.4678 37.125 53.5578C37.325 53.6478 37.335 53.8178 37.335 53.9778C37.335 54.1078 37.395 54.1078 37.575 54.2178C37.745 54.3178 37.985 54.5678 38.185 54.6878C38.385 54.8078 38.325 54.6478 38.515 54.6378C38.645 54.6278 38.715 54.6878 38.745 54.7178C38.745 54.7078 38.735 54.6678 38.715 54.5478C38.705 54.3478 38.685 54.2678 38.625 54.0978C38.565 53.9578 38.495 53.7178 38.565 53.6678C38.625 53.6178 38.805 53.5678 38.805 53.5678C38.805 53.5678 38.815 53.7278 38.945 53.8878C39.075 54.0178 39.315 54.0578 39.175 54.1678C39.055 54.2678 39.045 54.3478 39.005 54.4878C38.965 54.5878 38.925 54.8078 38.925 54.8078L39.025 55.0178L39.445 55.3578C39.445 55.3578 39.765 55.3678 39.775 55.7378C39.785 56.1078 39.855 56.2278 39.855 56.2278C39.855 56.2278 39.975 56.4378 40.135 56.4778C40.295 56.5178 40.305 56.5578 40.455 56.8678C40.575 57.1878 40.625 57.1878 40.775 57.3578C40.895 57.5278 40.865 57.6778 40.865 57.6778C40.865 57.6778 40.665 57.5178 40.635 57.7278C40.605 57.9378 40.585 58.4278 40.585 58.4278L40.495 58.6478C40.495 58.6478 40.285 58.4878 40.285 58.6878C40.285 58.8878 40.325 59.0278 40.195 59.0778C40.065 59.1278 40.065 59.1278 40.065 59.1278L39.885 59.2078L39.965 59.4478C39.965 59.4478 40.065 59.5678 40.105 59.6078C40.145 59.6478 40.055 59.9778 40.055 59.9778L39.895 60.2578L39.885 60.5078C39.885 60.5078 39.795 60.9778 39.915 60.9378C40.035 60.8978 40.095 60.9978 40.095 60.9978L40.045 61.2878C40.045 61.2878 39.875 61.3178 39.855 61.4178C39.865 61.5478 39.865 61.9478 39.865 61.9478C39.865 61.9478 39.905 62.1478 39.905 62.4178C39.905 62.6678 39.965 62.4678 39.905 62.6678C39.845 62.8678 39.805 62.7978 39.725 62.8778C39.645 62.9578 39.675 63.1678 39.675 63.1678V63.3778C39.675 63.3778 39.685 63.5078 39.555 63.6078C39.425 63.6978 39.465 63.9378 39.465 63.9378C39.465 63.9378 39.935 63.9878 39.995 63.9878L40.365 64.1478C40.365 64.1478 40.485 63.8978 40.705 64.1578C40.905 64.4178 40.945 64.6578 40.945 64.6578L41.145 65.2378L40.975 65.4078C40.975 65.4078 40.885 65.4578 40.735 65.5478C40.595 65.6378 40.505 65.8678 40.365 65.8978C40.245 65.9378 40.235 65.9278 40.105 65.9278C39.975 65.9278 39.855 66.0078 39.855 66.0078C39.855 66.0078 39.775 66.0378 39.755 66.1678C39.725 66.2978 39.665 66.4178 39.665 66.4178L39.495 66.6778C39.495 66.6778 39.665 66.7978 39.745 66.9078C39.825 67.0178 39.885 67.0878 39.885 67.2778C39.885 67.4378 39.945 67.7078 39.945 67.7078C39.945 67.7078 40.075 67.4978 40.145 67.8778C40.205 68.2878 40.275 68.3478 40.275 68.3478L40.435 68.5478L40.595 68.7978C40.595 68.7978 40.585 68.9278 40.765 68.8278C40.945 68.7278 41.085 68.5678 41.085 68.5678L41.285 68.4778C41.285 68.4778 41.335 68.4778 41.415 68.4678C41.495 68.4578 41.475 68.4578 41.595 68.3878C41.715 68.3278 41.835 68.2978 41.835 68.2978C41.835 68.2978 41.835 68.1678 41.885 68.1178C41.935 68.0678 42.085 67.9578 42.085 67.9578C42.085 67.9578 42.185 67.8178 42.185 67.6078C42.185 67.4278 42.265 67.3478 42.275 67.0978C42.285 66.8678 42.265 67.0678 42.225 66.5678C42.185 66.0678 42.275 66.1478 42.265 65.6478C42.255 65.1478 42.145 64.9978 42.255 64.8478C42.355 64.6878 42.295 64.5178 42.295 64.5178L42.115 64.4578C42.115 64.4578 42.055 64.4278 42.055 64.2278C42.055 64.0278 41.995 63.8178 42.155 63.8078C42.325 63.7978 42.585 63.7278 42.585 63.7278C42.585 63.7278 42.745 63.6078 42.685 63.2978C42.625 62.9878 42.635 62.7578 42.635 62.7578L42.805 62.5778C42.805 62.5778 42.835 62.7478 43.045 62.8078C43.255 62.8578 43.365 62.9378 43.475 63.0078C43.595 63.0678 43.675 63.2178 43.945 63.1278C44.195 63.0378 44.315 62.9978 44.455 63.0078C44.595 63.0178 44.795 63.0978 44.795 63.0978C44.795 63.0978 44.965 63.1878 44.965 63.1378C44.965 63.0878 44.905 62.8078 44.765 62.7678C44.635 62.7278 44.515 62.7778 44.445 62.5378C44.405 62.2978 44.545 62.1878 44.395 62.1878C44.235 62.1878 44.005 62.3878 44.005 62.3878C44.005 62.3878 43.995 62.5878 43.905 62.5978C43.815 62.6078 43.775 62.7578 43.735 62.5178C43.695 62.2778 43.745 62.1778 43.635 62.1478C43.515 62.1178 43.515 62.1078 43.305 62.1478C43.125 62.1878 42.985 62.1878 42.975 62.1078C42.965 62.0278 42.985 61.7278 42.915 61.7278C42.835 61.7278 42.725 61.7678 42.725 61.7678L42.605 61.8978L42.935 61.4478L42.995 61.2778L43.155 60.9378L43.185 60.8778C43.185 60.8778 43.065 61.2178 43.155 61.3378C43.245 61.4578 43.215 61.4978 43.485 61.5378C43.725 61.5778 43.915 61.5778 43.975 61.5478C44.025 61.5178 44.155 61.4478 44.155 61.4478C44.155 61.4478 44.255 61.3878 44.275 61.3278C44.295 61.2678 44.355 61.0878 44.355 61.0878C44.355 61.0878 44.395 60.8278 44.435 60.8778C44.475 60.9278 44.475 61.2078 44.475 61.2078V61.4978L44.695 61.7578C44.695 61.7578 44.875 61.8378 45.035 61.8778C45.165 61.9178 45.325 62.0478 45.375 61.9578C45.415 61.8678 45.495 61.8678 45.425 61.6978C45.365 61.5278 45.425 61.3778 45.295 61.3578C45.165 61.3278 45.085 61.4078 44.975 61.2678C44.895 61.1278 44.895 61.0178 44.895 61.0178C44.895 61.0178 44.985 60.7278 44.935 60.6478C44.885 60.5878 44.765 60.4678 44.765 60.4678L44.845 60.3278C44.845 60.3278 45.085 60.2078 45.105 60.1678C45.135 60.1278 45.075 60.1278 45.135 60.1278C45.185 60.1278 45.305 60.4678 45.305 60.4678L45.465 60.4978L45.505 60.7778C45.505 60.7778 45.545 61.0378 45.635 61.0378C45.725 61.0378 46.055 60.9778 46.065 60.7978C46.075 60.6278 46.055 60.4078 46.015 60.1578C45.975 59.9078 45.985 59.7878 45.915 59.6578C45.835 59.5278 45.815 59.4278 45.815 59.4278C45.815 59.4278 45.815 59.0878 45.845 59.1378C45.875 59.1778 46.185 59.6078 46.295 59.8078C46.395 60.0078 46.555 60.3478 46.555 60.3478L46.815 60.8078L46.935 61.3978C46.935 61.3978 47.025 62.1178 47.025 62.4378C47.025 62.7578 46.945 63.1878 46.945 63.1878C46.945 63.1878 46.815 63.3478 46.735 63.4378C46.655 63.5278 46.575 63.5978 46.495 63.6978C46.415 63.7978 46.365 64.1278 46.365 64.1278C46.365 64.1278 46.445 64.2678 46.525 64.4178C46.605 64.5478 46.655 64.6278 46.655 64.8278C46.655 64.9978 46.705 65.0778 46.645 65.2378C46.585 65.3678 46.385 65.4878 46.385 65.4878L46.125 65.7478C46.125 65.7478 46.085 65.8078 45.895 65.8478C45.715 65.8878 45.795 65.9278 45.565 66.0278C45.365 66.1278 45.385 66.0678 45.195 66.1078C45.035 66.1478 44.945 66.2778 44.845 66.1478C44.765 66.0178 44.705 65.8878 44.705 65.8878C44.705 65.8878 44.885 65.8478 44.885 65.7678C44.885 65.6878 44.925 65.5878 44.855 65.4378C44.795 65.3178 44.725 65.2678 44.725 65.2678L44.625 65.0978C44.625 65.0978 44.575 64.7278 44.455 65.0078C44.455 65.0078 44.415 65.0878 44.295 65.3478C44.175 65.5878 44.165 65.6378 43.965 65.8578C43.795 66.0678 43.465 66.4978 43.325 66.6778C43.185 66.8478 43.095 66.7978 43.035 67.0478C42.985 67.2778 42.995 67.3378 42.915 67.4678C42.835 67.5878 42.685 67.7278 42.685 67.7278L42.605 68.0578L42.475 68.3178C42.475 68.3178 42.335 68.3078 42.235 68.3978C42.145 68.4878 42.115 68.5978 42.025 68.7178C41.935 68.8078 41.945 68.7978 41.825 68.7478C41.705 68.6978 41.585 68.7178 41.585 68.7178V69.4378C41.585 69.4378 41.535 69.8678 41.425 70.0178C41.325 70.1578 41.195 70.2178 41.175 70.3878C41.145 70.5278 41.055 70.9778 41.095 71.1378C41.135 71.2978 41.255 71.1678 41.275 71.5178C41.305 71.8678 41.415 71.9678 41.315 72.2778C41.215 72.6178 41.285 72.7078 41.105 72.8878C40.925 73.0578 40.725 73.3778 40.725 73.3778L40.495 73.8078C40.495 73.8078 40.365 74.2378 40.295 74.5678C40.265 74.7378 40.275 74.7778 40.285 74.8178H48.885C49.065 73.6778 49.235 72.3278 49.295 70.7078C49.255 67.6178 48.885 65.9378 48.565 64.9478C48.245 63.9578 48.315 64.1578 48.225 63.8678C48.165 63.6078 48.165 63.5378 48.065 63.3978C47.975 63.2578 48.055 63.4878 47.925 63.1878C47.795 62.8578 47.685 62.7778 47.685 62.7778C47.685 62.7778 47.555 62.7178 47.525 62.6478C47.495 62.5878 47.465 62.5578 47.445 62.4678C47.435 62.3778 47.405 62.2678 47.365 62.2278C47.325 62.1878 47.235 61.9778 47.305 61.9678C47.365 61.9578 47.565 62.2578 47.625 62.1478C47.655 62.0578 47.725 61.9778 47.565 61.7678C47.395 61.5678 47.335 61.3478 47.335 61.3478C47.335 61.3478 47.335 61.0078 47.295 60.9378C47.255 60.8778 47.135 60.6978 47.135 60.6978C47.135 60.6978 47.055 60.4878 47.005 60.2378C46.955 60.0078 46.835 59.7778 46.745 59.5778C46.655 59.3778 46.365 58.9578 46.195 58.6178C46.025 58.2778 45.995 58.3678 45.965 58.0478C45.935 57.7278 45.965 57.6578 45.795 57.5178C45.625 57.3878 45.385 57.2678 45.385 57.2678C45.385 57.2678 45.305 57.1278 45.175 56.8178C45.045 56.5378 44.945 56.2878 44.945 56.2878L44.895 56.0578L44.795 56.3978C44.795 56.3978 44.655 56.4978 44.635 56.5378C44.625 56.5778 44.725 56.9478 44.725 56.9478L44.805 57.3178C44.805 57.3178 44.815 57.4378 44.815 57.6678C44.815 57.8778 44.785 58.2178 44.865 58.3778C44.945 58.5378 44.995 58.6078 45.025 58.8078C45.055 59.0078 45.055 59.2978 45.015 59.4278C44.975 59.5578 44.915 59.5578 44.725 59.2978C44.555 59.0378 44.545 58.9778 44.315 58.6778C44.115 58.3478 43.905 58.3278 43.845 58.0878C43.785 57.8478 43.815 57.7678 43.805 57.5578C43.795 57.3478 43.775 57.2678 43.775 57.2678C43.775 57.2678 44.095 57.2178 44.105 57.1678C44.115 57.1178 44.165 56.9978 44.075 56.9678C43.985 56.9378 43.865 56.9278 43.865 56.9278C43.865 56.9278 43.765 56.6378 43.735 56.5078C43.705 56.3878 43.575 56.3378 43.605 56.1178C43.635 55.9178 43.525 55.7278 43.595 55.6978C43.655 55.6678 43.845 56.1278 43.845 56.1278L43.985 56.5878L44.215 56.6878L44.335 56.6778C44.335 56.6778 44.515 57.3078 44.475 56.8778C44.435 56.4478 44.375 56.3078 44.425 56.2878C44.475 56.2578 44.585 56.1678 44.585 56.0878C44.585 56.0078 44.595 55.7578 44.545 55.6978C44.495 55.6378 43.765 54.6978 43.765 54.6978C43.765 54.6978 43.345 54.5578 43.305 54.5578C43.265 54.5578 43.145 54.3878 43.065 54.2978C42.985 54.2078 42.935 54.2878 42.805 54.0178C42.675 53.7578 42.605 53.5978 42.545 53.4778C42.485 53.3578 42.425 53.4378 42.295 53.0878C42.165 52.7378 42.085 52.6278 41.965 52.5578C41.875 52.4978 40.355 50.7778 38.145 49.2678C35.915 47.7578 34.105 46.0878 28.925 45.0378C24.985 44.2278 24.445 44.0178 20.475 44.0078V45.0878C20.445 45.0878 20.445 45.0878 20.455 45.0878ZM38.555 53.0578C38.555 53.0578 38.615 53.2278 38.645 53.2878C38.685 53.3378 38.695 53.4178 38.645 53.4378C38.605 53.4678 38.485 53.3578 38.325 53.2978C38.195 53.2378 38.435 53.1678 38.555 53.0578ZM38.025 52.3578L38.205 52.6778C38.215 52.6578 38.165 52.7378 38.065 52.6378C37.975 52.5578 37.945 52.4978 37.825 52.4078C37.705 52.3378 37.855 52.3078 38.025 52.3578ZM36.375 50.8978C36.455 50.9278 36.495 51.1078 36.585 51.1778C36.675 51.2378 36.825 51.1878 36.925 51.2678C37.005 51.3478 37.045 51.4378 37.045 51.6078C37.035 51.7378 36.985 51.8078 36.985 51.8078C36.985 51.8078 36.775 51.5278 36.665 51.5478C36.585 51.5578 36.565 51.4878 36.565 51.4878L36.395 51.0678C36.405 51.0578 36.155 50.8178 36.375 50.8978ZM36.625 51.6478C36.855 51.8478 36.545 51.7378 36.405 51.7678C36.265 51.7978 36.275 51.6078 36.175 51.5178C36.085 51.4278 36.165 51.3178 36.165 51.1878C36.165 50.7678 36.355 51.4378 36.625 51.6478Z" fill="url(#paint47_linear)"/>
<path d="M20.795 45.0674L20.785 45.0574C20.725 45.0874 20.525 45.0174 20.465 45.0674C20.465 45.0674 20.465 45.0774 20.455 45.0774C20.565 45.0874 20.675 45.0774 20.795 45.0674Z" fill="url(#paint48_linear)"/>
<path d="M20.795 45.0674L20.785 45.0574C20.725 45.0874 20.525 45.0174 20.465 45.0674C20.465 45.0674 20.465 45.0774 20.455 45.0774C20.565 45.0874 20.675 45.0774 20.795 45.0674Z" fill="url(#paint49_linear)"/>
<path d="M33.355 51.4783C33.305 51.4783 33.265 51.5283 33.075 51.4183C32.895 51.2983 32.975 51.4483 32.975 51.5083C32.965 51.5683 33.115 51.6483 33.215 51.7583C33.315 51.8583 33.345 51.8883 33.425 51.8983C33.485 51.9083 33.505 51.8183 33.505 51.7183C33.495 51.6883 33.495 51.6783 33.495 51.6483C33.495 51.6483 33.415 51.4783 33.355 51.4783Z" fill="url(#paint50_linear)"/>
<path d="M30.9349 48.1982C31.0749 48.2882 31.1749 48.1982 31.2849 48.2282C31.4049 48.2382 31.4949 48.0882 31.3749 48.0482C31.0149 47.9282 31.0149 47.6382 30.9549 47.5882C30.8849 47.5482 30.7549 47.6682 30.5749 47.6882C30.3749 47.7182 30.4549 47.7582 30.3949 47.9182C30.3149 48.0782 30.5749 48.0482 30.5749 48.0482C30.5749 48.0482 30.8049 48.1082 30.9349 48.1982Z" fill="url(#paint51_linear)"/>
<path d="M30.4249 47.0776C30.2849 46.9476 29.9249 47.1976 29.9249 47.1876L29.7849 47.4876L29.9849 47.4376L30.3049 47.3076C30.2849 47.3076 30.5249 47.1776 30.4249 47.0776Z" fill="url(#paint52_linear)"/>
<path d="M24.1849 47.0376C24.2849 46.9776 24.3249 46.8776 24.3849 46.8576C24.4449 46.8276 24.5449 46.7776 24.5449 46.7276C24.5449 46.6576 24.5149 46.4476 24.4249 46.5576C24.3649 46.6576 24.2649 46.8176 24.2249 46.8976C24.1849 46.9576 24.0849 47.0976 24.1849 47.0376Z" fill="url(#paint53_linear)"/>
<path d="M24.9549 46.8482C24.9949 46.7682 25.0149 46.7482 25.0149 46.6782C25.0149 46.6082 24.9749 46.6382 24.9749 46.6382C24.8749 46.7282 24.6749 46.9382 24.6749 46.9382C24.6749 46.9382 24.5549 47.2582 24.6849 47.0982C24.8249 46.9482 24.9149 46.9382 24.9549 46.8482Z" fill="url(#paint54_linear)"/>
<path d="M23.7249 45.9377C23.7149 45.9977 23.6349 46.2377 23.8249 46.0777C24.0249 45.9177 24.1249 45.8777 24.1749 45.8177C24.2249 45.7577 24.2349 45.6477 24.2349 45.6477L24.0449 45.5977C23.9549 45.6977 23.9049 45.7577 23.8449 45.7677C23.8049 45.7777 23.7449 45.8677 23.7249 45.9377Z" fill="url(#paint55_linear)"/>
<path d="M23.475 45.8376C23.515 45.8876 23.525 45.8976 23.605 45.8276C23.685 45.7476 24.005 45.4576 23.565 45.5676C23.435 45.5976 23.235 45.5676 23.315 45.6576C23.385 45.7476 23.425 45.7876 23.475 45.8376Z" fill="url(#paint56_linear)"/>
<path d="M22.7149 45.2376C22.8549 45.2676 22.9449 45.2776 23.0149 45.2976C23.0749 45.3276 23.1749 45.2676 23.1749 45.2676C23.1749 45.2676 23.0649 45.1376 22.9649 45.0576L22.7349 45.0976C22.6749 45.1676 22.6249 45.2276 22.7149 45.2376Z" fill="url(#paint57_linear)"/>
<path d="M22.835 45.028C22.815 45.038 22.775 45.078 22.735 45.108L22.965 45.068C22.915 45.038 22.865 45.008 22.835 45.028Z" fill="url(#paint58_linear)"/>
<path d="M22.835 45.028C22.815 45.038 22.775 45.078 22.735 45.108L22.965 45.068C22.915 45.038 22.865 45.008 22.835 45.028Z" fill="url(#paint59_linear)"/>
<path d="M22.225 45.3475C22.225 45.3475 22.395 45.3975 22.615 45.3775C22.855 45.3475 22.585 45.2975 22.555 45.2075C22.545 45.1775 22.525 45.1675 22.515 45.1475L22.465 45.1575L22.045 45.1475C21.975 45.1775 22.225 45.3475 22.225 45.3475Z" fill="url(#paint60_linear)"/>
<path d="M22.5149 45.1379C22.4849 45.1079 22.4549 45.0879 22.3949 45.0879C22.3149 45.0879 22.2449 45.1179 22.0649 45.1179C22.0449 45.1179 22.0449 45.1279 22.0349 45.1379L22.4549 45.1479L22.5149 45.1379Z" fill="url(#paint61_linear)"/>
<path d="M22.5149 45.1379C22.4849 45.1079 22.4549 45.0879 22.3949 45.0879C22.3149 45.0879 22.2449 45.1179 22.0649 45.1179C22.0449 45.1179 22.0449 45.1279 22.0349 45.1379L22.4549 45.1479L22.5149 45.1379Z" fill="url(#paint62_linear)"/>
<path d="M21.735 45.1579C21.735 45.1579 21.345 45.0679 21.185 45.0779C21.005 45.0879 21.415 45.2379 21.415 45.2379C21.415 45.2379 21.505 45.2979 21.665 45.3579C21.805 45.4079 21.805 45.2179 21.735 45.1579Z" fill="url(#paint63_linear)"/>
<path d="M20.9449 45.5078C20.8449 45.5578 20.5949 45.5378 20.7449 45.6778C20.9049 45.8178 20.9049 45.8578 21.0049 45.8778C21.1049 45.8878 21.1849 45.9078 21.1849 45.8178C21.1849 45.7278 21.1349 45.6378 21.1349 45.6378C21.1349 45.6378 21.0549 45.4578 20.9449 45.5078Z" fill="url(#paint64_linear)"/>
<path d="M20.5949 45.8675C20.5249 45.7775 20.4549 45.7075 20.4349 45.6875V45.9875C20.5449 45.9975 20.6749 45.9575 20.5949 45.8675Z" fill="url(#paint65_linear)"/>
<path d="M22.495 45.7776C22.505 45.6776 22.635 45.5676 22.385 45.5276C22.215 45.4976 22.085 45.5876 22.085 45.5876C22.085 45.5876 21.885 45.6376 22.025 45.7476C22.155 45.8476 22.325 45.9076 22.325 45.9076C22.325 45.9076 22.475 45.8676 22.495 45.7776Z" fill="url(#paint66_linear)"/>
<path d="M23.0049 45.8579C23.0049 45.8579 23.2949 45.7579 23.0549 45.6179C22.9149 45.5379 22.8949 45.5179 22.8449 45.5779C22.7949 45.6379 22.7649 45.7079 22.7449 45.7579C22.7149 45.8079 22.7349 45.8879 22.8249 45.8879C22.9149 45.8879 23.0049 45.8579 23.0049 45.8579Z" fill="url(#paint67_linear)"/>
<path d="M21.6749 45.6077C21.5549 45.7277 21.4349 45.7677 21.5149 45.8477C21.5949 45.9077 21.7549 45.9477 21.7549 45.9477L21.8549 45.8477C21.8549 45.8577 21.7349 45.5377 21.6749 45.6077Z" fill="url(#paint68_linear)"/>
<path d="M24.2649 46.5382C24.2649 46.5382 24.4249 46.1682 24.2749 46.2982C24.1849 46.3782 24.1349 46.4382 24.1549 46.5082C24.1849 46.5782 24.2649 46.5382 24.2649 46.5382Z" fill="url(#paint69_linear)"/>
<path d="M23.5349 46.788C23.5349 46.788 23.2849 46.848 23.4849 46.928C23.6849 46.988 23.6949 47.008 23.8049 46.928C23.8949 46.848 24.0349 46.798 24.0049 46.718C23.9849 46.628 24.0349 46.478 23.8749 46.578C23.6649 46.668 23.5349 46.788 23.5349 46.788Z" fill="url(#paint70_linear)"/>
<path d="M27.9849 46.488C28.0649 46.428 28.2349 46.388 28.2349 46.388C28.2349 46.388 28.4449 46.438 28.5349 46.438C28.6149 46.448 28.7449 46.318 28.4749 46.268C28.3149 46.228 28.3449 46.178 28.1549 46.228C27.9849 46.278 27.8249 46.328 27.8249 46.328C27.8249 46.328 27.4949 46.468 27.6849 46.498C27.8349 46.528 27.8949 46.568 27.9849 46.488Z" fill="url(#paint71_linear)"/>
<path d="M28.2549 47.3675C28.4149 47.4275 28.6249 47.4675 28.6249 47.4675C28.6249 47.4675 28.9149 47.6375 28.8849 47.4675C28.8849 47.2975 28.6449 47.2275 28.6449 47.2275C28.3749 47.2275 28.0749 47.3075 28.2549 47.3675Z" fill="url(#paint72_linear)"/>
<path d="M33.6449 49.9378C33.5649 49.8478 33.5449 49.8878 33.5449 49.8878C33.5449 49.8878 33.4549 50.1378 33.5149 50.2278C33.5949 50.3078 33.6049 50.4278 33.6949 50.4378C33.7849 50.4678 33.8749 50.5978 33.8549 50.4378C33.8349 50.2778 33.8249 50.2278 33.7349 50.1178C33.6649 50.0178 33.6449 49.9378 33.6449 49.9378Z" fill="url(#paint73_linear)"/>
<path d="M34.4249 50.0778C34.4349 49.9878 34.4749 49.9178 34.4549 49.8778C34.4149 49.8478 34.2949 49.7578 34.2949 49.7578C34.1349 49.8078 34.1249 50.0378 34.1249 50.0378C34.1249 50.0378 34.3949 50.1778 34.4249 50.0778Z" fill="url(#paint74_linear)"/>
<defs>
<linearGradient id="paint0_linear" x1="6.71812" y1="-11.9744" x2="84.1039" y2="97.7263" gradientUnits="userSpaceOnUse">
<stop stop-color="#97C3F9"/>
<stop offset="0.4975" stop-color="#388CF4"/>
<stop offset="1" stop-color="#2C7CEF"/>
</linearGradient>
<linearGradient id="paint1_linear" x1="43.9945" y1="5.03717" x2="57.6008" y2="89.3206" gradientUnits="userSpaceOnUse">
<stop offset="0.0829" stop-color="#1152D4"/>
<stop offset="0.4296" stop-color="#0D40B5"/>
<stop offset="0.706" stop-color="#0D3FB1"/>
<stop offset="1" stop-color="#092D7F"/>
</linearGradient>
<linearGradient id="paint2_linear" x1="23.5587" y1="28.4563" x2="26.7587" y2="28.4563" gradientUnits="userSpaceOnUse">
<stop stop-color="#76C0FD"/>
<stop offset="1" stop-color="#63B2FB"/>
</linearGradient>
<linearGradient id="paint3_linear" x1="41.768" y1="51.4084" x2="78.4241" y2="51.4084" gradientUnits="userSpaceOnUse">
<stop stop-color="#76C0FD"/>
<stop offset="1" stop-color="#63B2FB"/>
</linearGradient>
<linearGradient id="paint4_linear" x1="43.6557" y1="38.5091" x2="45.5199" y2="38.5091" gradientUnits="userSpaceOnUse">
<stop stop-color="#76C0FD"/>
<stop offset="1" stop-color="#63B2FB"/>
</linearGradient>
<linearGradient id="paint5_linear" x1="-59.6017" y1="58.7709" x2="20.436" y2="58.7709" gradientUnits="userSpaceOnUse">
<stop stop-color="#243B5F"/>
<stop offset="0.2311" stop-color="#2F76BC"/>
<stop offset="0.6365" stop-color="#75D0EB"/>
<stop offset="0.8192" stop-color="#97D9EC"/>
<stop offset="0.9751" stop-color="#D9F0F6"/>
</linearGradient>
<linearGradient id="paint6_linear" x1="-59.6006" y1="60.4017" x2="20.436" y2="60.4017" gradientUnits="userSpaceOnUse">
<stop stop-color="#243B5F"/>
<stop offset="0.2311" stop-color="#2F76BC"/>
<stop offset="0.6365" stop-color="#75D0EB"/>
<stop offset="0.8192" stop-color="#97D9EC"/>
<stop offset="0.9751" stop-color="#D9F0F6"/>
</linearGradient>
<linearGradient id="paint7_linear" x1="12.5457" y1="126.459" x2="26.5698" y2="45.6851" gradientUnits="userSpaceOnUse">
<stop stop-color="#243B5F"/>
<stop offset="0.2311" stop-color="#2F76BC"/>
<stop offset="0.6365" stop-color="#75D0EB"/>
<stop offset="0.8192" stop-color="#97D9EC"/>
<stop offset="0.9751" stop-color="#D9F0F6"/>
</linearGradient>
<linearGradient id="paint8_linear" x1="19.5568" y1="127.675" x2="33.5805" y2="46.9024" gradientUnits="userSpaceOnUse">
<stop stop-color="#243B5F"/>
<stop offset="0.2311" stop-color="#2F76BC"/>
<stop offset="0.6365" stop-color="#75D0EB"/>
<stop offset="0.8192" stop-color="#97D9EC"/>
<stop offset="0.9751" stop-color="#D9F0F6"/>
</linearGradient>
<linearGradient id="paint9_linear" x1="11.0184" y1="126.192" x2="25.0423" y2="45.4195" gradientUnits="userSpaceOnUse">
<stop stop-color="#243B5F"/>
<stop offset="0.2311" stop-color="#2F76BC"/>
<stop offset="0.6365" stop-color="#75D0EB"/>
<stop offset="0.8192" stop-color="#97D9EC"/>
<stop offset="0.9751" stop-color="#D9F0F6"/>
</linearGradient>
<linearGradient id="paint10_linear" x1="13.8886" y1="126.692" x2="27.9128" y2="45.9186" gradientUnits="userSpaceOnUse">
<stop stop-color="#243B5F"/>
<stop offset="0.2311" stop-color="#2F76BC"/>
<stop offset="0.6365" stop-color="#75D0EB"/>
<stop offset="0.8192" stop-color="#97D9EC"/>
<stop offset="0.9751" stop-color="#D9F0F6"/>
</linearGradient>
<linearGradient id="paint11_linear" x1="11.4555" y1="126.269" x2="25.4794" y2="45.4957" gradientUnits="userSpaceOnUse">
<stop stop-color="#243B5F"/>
<stop offset="0.2311" stop-color="#2F76BC"/>
<stop offset="0.6365" stop-color="#75D0EB"/>
<stop offset="0.8192" stop-color="#97D9EC"/>
<stop offset="0.9751" stop-color="#D9F0F6"/>
</linearGradient>
<linearGradient id="paint12_linear" x1="10.504" y1="126.103" x2="24.5277" y2="45.3309" gradientUnits="userSpaceOnUse">
<stop stop-color="#243B5F"/>
<stop offset="0.2311" stop-color="#2F76BC"/>
<stop offset="0.6365" stop-color="#75D0EB"/>
<stop offset="0.8192" stop-color="#97D9EC"/>
<stop offset="0.9751" stop-color="#D9F0F6"/>
</linearGradient>
<linearGradient id="paint13_linear" x1="11.426" y1="126.263" x2="25.4499" y2="45.4901" gradientUnits="userSpaceOnUse">
<stop stop-color="#243B5F"/>
<stop offset="0.2311" stop-color="#2F76BC"/>
<stop offset="0.6365" stop-color="#75D0EB"/>
<stop offset="0.8192" stop-color="#97D9EC"/>
<stop offset="0.9751" stop-color="#D9F0F6"/>
</linearGradient>
<linearGradient id="paint14_linear" x1="10.3942" y1="126.084" x2="24.4181" y2="45.311" gradientUnits="userSpaceOnUse">
<stop stop-color="#243B5F"/>
<stop offset="0.2311" stop-color="#2F76BC"/>
<stop offset="0.6365" stop-color="#75D0EB"/>
<stop offset="0.8192" stop-color="#97D9EC"/>
<stop offset="0.9751" stop-color="#D9F0F6"/>
</linearGradient>
<linearGradient id="paint15_linear" x1="10.3942" y1="126.084" x2="24.4181" y2="45.311" gradientUnits="userSpaceOnUse">
<stop stop-color="#243B5F"/>
<stop offset="0.2311" stop-color="#2F76BC"/>
<stop offset="0.6365" stop-color="#75D0EB"/>
<stop offset="0.8192" stop-color="#97D9EC"/>
<stop offset="0.9751" stop-color="#D9F0F6"/>
</linearGradient>
<linearGradient id="paint16_linear" x1="16.7694" y1="127.191" x2="30.7935" y2="46.4183" gradientUnits="userSpaceOnUse">
<stop stop-color="#243B5F"/>
<stop offset="0.2311" stop-color="#2F76BC"/>
<stop offset="0.6365" stop-color="#75D0EB"/>
<stop offset="0.8192" stop-color="#97D9EC"/>
<stop offset="0.9751" stop-color="#D9F0F6"/>
</linearGradient>
<linearGradient id="paint17_linear" x1="17.1532" y1="127.258" x2="31.1771" y2="46.4848" gradientUnits="userSpaceOnUse">
<stop stop-color="#243B5F"/>
<stop offset="0.2311" stop-color="#2F76BC"/>
<stop offset="0.6365" stop-color="#75D0EB"/>
<stop offset="0.8192" stop-color="#97D9EC"/>
<stop offset="0.9751" stop-color="#D9F0F6"/>
</linearGradient>
<linearGradient id="paint18_linear" x1="11.7494" y1="126.32" x2="25.7737" y2="45.5467" gradientUnits="userSpaceOnUse">
<stop stop-color="#243B5F"/>
<stop offset="0.2311" stop-color="#2F76BC"/>
<stop offset="0.6365" stop-color="#75D0EB"/>
<stop offset="0.8192" stop-color="#97D9EC"/>
<stop offset="0.9751" stop-color="#D9F0F6"/>
</linearGradient>
<linearGradient id="paint19_linear" x1="33.691" y1="130.129" x2="47.7152" y2="49.3559" gradientUnits="userSpaceOnUse">
<stop stop-color="#243B5F"/>
<stop offset="0.2311" stop-color="#2F76BC"/>
<stop offset="0.6365" stop-color="#75D0EB"/>
<stop offset="0.8192" stop-color="#97D9EC"/>
<stop offset="0.9751" stop-color="#D9F0F6"/>
</linearGradient>
<linearGradient id="paint20_linear" x1="33.5995" y1="130.114" x2="47.6234" y2="49.3404" gradientUnits="userSpaceOnUse">
<stop stop-color="#243B5F"/>
<stop offset="0.2311" stop-color="#2F76BC"/>
<stop offset="0.6365" stop-color="#75D0EB"/>
<stop offset="0.8192" stop-color="#97D9EC"/>
<stop offset="0.9751" stop-color="#D9F0F6"/>
</linearGradient>
<linearGradient id="paint21_linear" x1="25.8491" y1="128.768" x2="39.8731" y2="47.9943" gradientUnits="userSpaceOnUse">
<stop stop-color="#243B5F"/>
<stop offset="0.2311" stop-color="#2F76BC"/>
<stop offset="0.6365" stop-color="#75D0EB"/>
<stop offset="0.8192" stop-color="#97D9EC"/>
<stop offset="0.9751" stop-color="#D9F0F6"/>
</linearGradient>
<linearGradient id="paint22_linear" x1="24.6082" y1="128.553" x2="38.632" y2="47.7792" gradientUnits="userSpaceOnUse">
<stop stop-color="#243B5F"/>
<stop offset="0.2311" stop-color="#2F76BC"/>
<stop offset="0.6365" stop-color="#75D0EB"/>
<stop offset="0.8192" stop-color="#97D9EC"/>
<stop offset="0.9751" stop-color="#D9F0F6"/>
</linearGradient>
<linearGradient id="paint23_linear" x1="25.3709" y1="128.685" x2="39.3952" y2="47.9117" gradientUnits="userSpaceOnUse">
<stop stop-color="#243B5F"/>
<stop offset="0.2311" stop-color="#2F76BC"/>
<stop offset="0.6365" stop-color="#75D0EB"/>
<stop offset="0.8192" stop-color="#97D9EC"/>
<stop offset="0.9751" stop-color="#D9F0F6"/>
</linearGradient>
<linearGradient id="paint24_linear" x1="27.0203" y1="128.971" x2="41.0444" y2="48.1979" gradientUnits="userSpaceOnUse">
<stop stop-color="#243B5F"/>
<stop offset="0.2311" stop-color="#2F76BC"/>
<stop offset="0.6365" stop-color="#75D0EB"/>
<stop offset="0.8192" stop-color="#97D9EC"/>
<stop offset="0.9751" stop-color="#D9F0F6"/>
</linearGradient>
<linearGradient id="paint25_linear" x1="27.0571" y1="128.977" x2="41.0809" y2="48.2041" gradientUnits="userSpaceOnUse">
<stop stop-color="#243B5F"/>
<stop offset="0.2311" stop-color="#2F76BC"/>
<stop offset="0.6365" stop-color="#75D0EB"/>
<stop offset="0.8192" stop-color="#97D9EC"/>
<stop offset="0.9751" stop-color="#D9F0F6"/>
</linearGradient>
<linearGradient id="paint26_linear" x1="27.9509" y1="129.132" x2="41.975" y2="48.3594" gradientUnits="userSpaceOnUse">
<stop stop-color="#243B5F"/>
<stop offset="0.2311" stop-color="#2F76BC"/>
<stop offset="0.6365" stop-color="#75D0EB"/>
<stop offset="0.8192" stop-color="#97D9EC"/>
<stop offset="0.9751" stop-color="#D9F0F6"/>
</linearGradient>
<linearGradient id="paint27_linear" x1="27.3351" y1="129.026" x2="41.3596" y2="48.2523" gradientUnits="userSpaceOnUse">
<stop stop-color="#243B5F"/>
<stop offset="0.2311" stop-color="#2F76BC"/>
<stop offset="0.6365" stop-color="#75D0EB"/>
<stop offset="0.8192" stop-color="#97D9EC"/>
<stop offset="0.9751" stop-color="#D9F0F6"/>
</linearGradient>
<linearGradient id="paint28_linear" x1="9.39086" y1="125.91" x2="23.4149" y2="45.1366" gradientUnits="userSpaceOnUse">
<stop stop-color="#243B5F"/>
<stop offset="0.2311" stop-color="#2F76BC"/>
<stop offset="0.6365" stop-color="#75D0EB"/>
<stop offset="0.8192" stop-color="#97D9EC"/>
<stop offset="0.9751" stop-color="#D9F0F6"/>
</linearGradient>
<linearGradient id="paint29_linear" x1="8.78795" y1="125.805" x2="22.8121" y2="45.032" gradientUnits="userSpaceOnUse">
<stop stop-color="#243B5F"/>
<stop offset="0.2311" stop-color="#2F76BC"/>
<stop offset="0.6365" stop-color="#75D0EB"/>
<stop offset="0.8192" stop-color="#97D9EC"/>
<stop offset="0.9751" stop-color="#D9F0F6"/>
</linearGradient>
<linearGradient id="paint30_linear" x1="9.42768" y1="125.917" x2="23.4518" y2="45.1437" gradientUnits="userSpaceOnUse">
<stop stop-color="#243B5F"/>
<stop offset="0.2311" stop-color="#2F76BC"/>
<stop offset="0.6365" stop-color="#75D0EB"/>
<stop offset="0.8192" stop-color="#97D9EC"/>
<stop offset="0.9751" stop-color="#D9F0F6"/>
</linearGradient>
<linearGradient id="paint31_linear" x1="9.67524" y1="125.96" x2="23.6993" y2="45.1867" gradientUnits="userSpaceOnUse">
<stop stop-color="#243B5F"/>
<stop offset="0.2311" stop-color="#2F76BC"/>
<stop offset="0.6365" stop-color="#75D0EB"/>
<stop offset="0.8192" stop-color="#97D9EC"/>
<stop offset="0.9751" stop-color="#D9F0F6"/>
</linearGradient>
<linearGradient id="paint32_linear" x1="8.47492" y1="125.752" x2="22.4992" y2="44.9782" gradientUnits="userSpaceOnUse">
<stop stop-color="#243B5F"/>
<stop offset="0.2311" stop-color="#2F76BC"/>
<stop offset="0.6365" stop-color="#75D0EB"/>
<stop offset="0.8192" stop-color="#97D9EC"/>
<stop offset="0.9751" stop-color="#D9F0F6"/>
</linearGradient>
<linearGradient id="paint33_linear" x1="16.156" y1="127.085" x2="30.1802" y2="46.3118" gradientUnits="userSpaceOnUse">
<stop stop-color="#243B5F"/>
<stop offset="0.2311" stop-color="#2F76BC"/>
<stop offset="0.6365" stop-color="#75D0EB"/>
<stop offset="0.8192" stop-color="#97D9EC"/>
<stop offset="0.9751" stop-color="#D9F0F6"/>
</linearGradient>
<linearGradient id="paint34_linear" x1="20.2506" y1="127.795" x2="34.2746" y2="47.0227" gradientUnits="userSpaceOnUse">
<stop stop-color="#243B5F"/>
<stop offset="0.2311" stop-color="#2F76BC"/>
<stop offset="0.6365" stop-color="#75D0EB"/>
<stop offset="0.8192" stop-color="#97D9EC"/>
<stop offset="0.9751" stop-color="#D9F0F6"/>
</linearGradient>
<linearGradient id="paint35_linear" x1="20.8536" y1="127.9" x2="34.8779" y2="47.127" gradientUnits="userSpaceOnUse">
<stop stop-color="#243B5F"/>
<stop offset="0.2311" stop-color="#2F76BC"/>
<stop offset="0.6365" stop-color="#75D0EB"/>
<stop offset="0.8192" stop-color="#97D9EC"/>
<stop offset="0.9751" stop-color="#D9F0F6"/>
</linearGradient>
<linearGradient id="paint36_linear" x1="18.091" y1="127.42" x2="32.1146" y2="46.6477" gradientUnits="userSpaceOnUse">
<stop stop-color="#243B5F"/>
<stop offset="0.2311" stop-color="#2F76BC"/>
<stop offset="0.6365" stop-color="#75D0EB"/>
<stop offset="0.8192" stop-color="#97D9EC"/>
<stop offset="0.9751" stop-color="#D9F0F6"/>
</linearGradient>
<linearGradient id="paint37_linear" x1="18.5627" y1="127.503" x2="32.5865" y2="46.7301" gradientUnits="userSpaceOnUse">
<stop stop-color="#243B5F"/>
<stop offset="0.2311" stop-color="#2F76BC"/>
<stop offset="0.6365" stop-color="#75D0EB"/>
<stop offset="0.8192" stop-color="#97D9EC"/>
<stop offset="0.9751" stop-color="#D9F0F6"/>
</linearGradient>
<linearGradient id="paint38_linear" x1="18.9478" y1="127.57" x2="32.9719" y2="46.7964" gradientUnits="userSpaceOnUse">
<stop stop-color="#243B5F"/>
<stop offset="0.2311" stop-color="#2F76BC"/>
<stop offset="0.6365" stop-color="#75D0EB"/>
<stop offset="0.8192" stop-color="#97D9EC"/>
<stop offset="0.9751" stop-color="#D9F0F6"/>
</linearGradient>
<linearGradient id="paint39_linear" x1="6.82885" y1="125.466" x2="20.8531" y2="44.6917" gradientUnits="userSpaceOnUse">
<stop stop-color="#243B5F"/>
<stop offset="0.2311" stop-color="#2F76BC"/>
<stop offset="0.6365" stop-color="#75D0EB"/>
<stop offset="0.8192" stop-color="#97D9EC"/>
<stop offset="0.9751" stop-color="#D9F0F6"/>
</linearGradient>
<linearGradient id="paint40_linear" x1="-59.6007" y1="45.172" x2="20.4361" y2="45.172" gradientUnits="userSpaceOnUse">
<stop stop-color="#243B5F"/>
<stop offset="0.2311" stop-color="#2F76BC"/>
<stop offset="0.6365" stop-color="#75D0EB"/>
<stop offset="0.8192" stop-color="#97D9EC"/>
<stop offset="0.9751" stop-color="#D9F0F6"/>
</linearGradient>
<linearGradient id="paint41_linear" x1="6.49856" y1="125.407" x2="20.5224" y2="44.6346" gradientUnits="userSpaceOnUse">
<stop stop-color="#243B5F"/>
<stop offset="0.2311" stop-color="#2F76BC"/>
<stop offset="0.6365" stop-color="#75D0EB"/>
<stop offset="0.8192" stop-color="#97D9EC"/>
<stop offset="0.9751" stop-color="#D9F0F6"/>
</linearGradient>
<linearGradient id="paint42_linear" x1="11.6515" y1="126.303" x2="25.6758" y2="45.5291" gradientUnits="userSpaceOnUse">
<stop stop-color="#243B5F"/>
<stop offset="0.2311" stop-color="#2F76BC"/>
<stop offset="0.6365" stop-color="#75D0EB"/>
<stop offset="0.8192" stop-color="#97D9EC"/>
<stop offset="0.9751" stop-color="#D9F0F6"/>
</linearGradient>
<linearGradient id="paint43_linear" x1="19.4848" y1="127.663" x2="33.5092" y2="46.8903" gradientUnits="userSpaceOnUse">
<stop stop-color="#243B5F"/>
<stop offset="0.2311" stop-color="#2F76BC"/>
<stop offset="0.6365" stop-color="#75D0EB"/>
<stop offset="0.8192" stop-color="#97D9EC"/>
<stop offset="0.9751" stop-color="#D9F0F6"/>
</linearGradient>
<linearGradient id="paint44_linear" x1="19.9" y1="127.736" x2="33.9244" y2="46.962" gradientUnits="userSpaceOnUse">
<stop stop-color="#243B5F"/>
<stop offset="0.2311" stop-color="#2F76BC"/>
<stop offset="0.6365" stop-color="#75D0EB"/>
<stop offset="0.8192" stop-color="#97D9EC"/>
<stop offset="0.9751" stop-color="#D9F0F6"/>
</linearGradient>
<linearGradient id="paint45_linear" x1="21.4683" y1="128.007" x2="35.492" y2="47.2346" gradientUnits="userSpaceOnUse">
<stop stop-color="#243B5F"/>
<stop offset="0.2311" stop-color="#2F76BC"/>
<stop offset="0.6365" stop-color="#75D0EB"/>
<stop offset="0.8192" stop-color="#97D9EC"/>
<stop offset="0.9751" stop-color="#D9F0F6"/>
</linearGradient>
<linearGradient id="paint46_linear" x1="21.4973" y1="128.013" x2="35.5216" y2="47.2393" gradientUnits="userSpaceOnUse">
<stop stop-color="#243B5F"/>
<stop offset="0.2311" stop-color="#2F76BC"/>
<stop offset="0.6365" stop-color="#75D0EB"/>
<stop offset="0.8192" stop-color="#97D9EC"/>
<stop offset="0.9751" stop-color="#D9F0F6"/>
</linearGradient>
<linearGradient id="paint47_linear" x1="22.6962" y1="128.279" x2="36.7347" y2="47.4221" gradientUnits="userSpaceOnUse">
<stop stop-color="#243B5F"/>
<stop offset="0.2311" stop-color="#2F76BC"/>
<stop offset="0.6365" stop-color="#75D0EB"/>
<stop offset="0.8192" stop-color="#97D9EC"/>
<stop offset="0.9751" stop-color="#D9F0F6"/>
</linearGradient>
<linearGradient id="paint48_linear" x1="6.67145" y1="125.441" x2="20.6967" y2="44.6646" gradientUnits="userSpaceOnUse">
<stop stop-color="#243B5F"/>
<stop offset="0.2311" stop-color="#2F76BC"/>
<stop offset="0.6365" stop-color="#75D0EB"/>
<stop offset="0.8192" stop-color="#97D9EC"/>
<stop offset="0.9751" stop-color="#D9F0F6"/>
</linearGradient>
<linearGradient id="paint49_linear" x1="6.67145" y1="125.441" x2="20.6967" y2="44.6646" gradientUnits="userSpaceOnUse">
<stop stop-color="#243B5F"/>
<stop offset="0.2311" stop-color="#2F76BC"/>
<stop offset="0.6365" stop-color="#75D0EB"/>
<stop offset="0.8192" stop-color="#97D9EC"/>
<stop offset="0.9751" stop-color="#D9F0F6"/>
</linearGradient>
<linearGradient id="paint50_linear" x1="20.0081" y1="127.755" x2="34.0325" y2="46.9807" gradientUnits="userSpaceOnUse">
<stop stop-color="#243B5F"/>
<stop offset="0.2311" stop-color="#2F76BC"/>
<stop offset="0.6365" stop-color="#75D0EB"/>
<stop offset="0.8192" stop-color="#97D9EC"/>
<stop offset="0.9751" stop-color="#D9F0F6"/>
</linearGradient>
<linearGradient id="paint51_linear" x1="17.1556" y1="127.259" x2="31.1797" y2="46.4855" gradientUnits="userSpaceOnUse">
<stop stop-color="#243B5F"/>
<stop offset="0.2311" stop-color="#2F76BC"/>
<stop offset="0.6365" stop-color="#75D0EB"/>
<stop offset="0.8192" stop-color="#97D9EC"/>
<stop offset="0.9751" stop-color="#D9F0F6"/>
</linearGradient>
<linearGradient id="paint52_linear" x1="16.2588" y1="127.103" x2="30.283" y2="46.3291" gradientUnits="userSpaceOnUse">
<stop stop-color="#243B5F"/>
<stop offset="0.2311" stop-color="#2F76BC"/>
<stop offset="0.6365" stop-color="#75D0EB"/>
<stop offset="0.8192" stop-color="#97D9EC"/>
<stop offset="0.9751" stop-color="#D9F0F6"/>
</linearGradient>
<linearGradient id="paint53_linear" x1="10.588" y1="126.118" x2="24.6123" y2="45.3448" gradientUnits="userSpaceOnUse">
<stop stop-color="#243B5F"/>
<stop offset="0.2311" stop-color="#2F76BC"/>
<stop offset="0.6365" stop-color="#75D0EB"/>
<stop offset="0.8192" stop-color="#97D9EC"/>
<stop offset="0.9751" stop-color="#D9F0F6"/>
</linearGradient>
<linearGradient id="paint54_linear" x1="11.0558" y1="126.199" x2="25.0799" y2="45.4264" gradientUnits="userSpaceOnUse">
<stop stop-color="#243B5F"/>
<stop offset="0.2311" stop-color="#2F76BC"/>
<stop offset="0.6365" stop-color="#75D0EB"/>
<stop offset="0.8192" stop-color="#97D9EC"/>
<stop offset="0.9751" stop-color="#D9F0F6"/>
</linearGradient>
<linearGradient id="paint55_linear" x1="10.0562" y1="126.026" x2="24.0803" y2="45.2526" gradientUnits="userSpaceOnUse">
<stop stop-color="#243B5F"/>
<stop offset="0.2311" stop-color="#2F76BC"/>
<stop offset="0.6365" stop-color="#75D0EB"/>
<stop offset="0.8192" stop-color="#97D9EC"/>
<stop offset="0.9751" stop-color="#D9F0F6"/>
</linearGradient>
<linearGradient id="paint56_linear" x1="9.59955" y1="125.947" x2="23.6236" y2="45.1729" gradientUnits="userSpaceOnUse">
<stop stop-color="#243B5F"/>
<stop offset="0.2311" stop-color="#2F76BC"/>
<stop offset="0.6365" stop-color="#75D0EB"/>
<stop offset="0.8192" stop-color="#97D9EC"/>
<stop offset="0.9751" stop-color="#D9F0F6"/>
</linearGradient>
<linearGradient id="paint57_linear" x1="8.92748" y1="125.829" x2="22.9512" y2="45.0562" gradientUnits="userSpaceOnUse">
<stop stop-color="#243B5F"/>
<stop offset="0.2311" stop-color="#2F76BC"/>
<stop offset="0.6365" stop-color="#75D0EB"/>
<stop offset="0.8192" stop-color="#97D9EC"/>
<stop offset="0.9751" stop-color="#D9F0F6"/>
</linearGradient>
<linearGradient id="paint58_linear" x1="8.83301" y1="125.815" x2="22.8577" y2="45.0406" gradientUnits="userSpaceOnUse">
<stop stop-color="#243B5F"/>
<stop offset="0.2311" stop-color="#2F76BC"/>
<stop offset="0.6365" stop-color="#75D0EB"/>
<stop offset="0.8192" stop-color="#97D9EC"/>
<stop offset="0.9751" stop-color="#D9F0F6"/>
</linearGradient>
<linearGradient id="paint59_linear" x1="8.83311" y1="125.815" x2="22.8577" y2="45.0406" gradientUnits="userSpaceOnUse">
<stop stop-color="#243B5F"/>
<stop offset="0.2311" stop-color="#2F76BC"/>
<stop offset="0.6365" stop-color="#75D0EB"/>
<stop offset="0.8192" stop-color="#97D9EC"/>
<stop offset="0.9751" stop-color="#D9F0F6"/>
</linearGradient>
<linearGradient id="paint60_linear" x1="8.39954" y1="125.738" x2="22.4235" y2="44.9647" gradientUnits="userSpaceOnUse">
<stop stop-color="#243B5F"/>
<stop offset="0.2311" stop-color="#2F76BC"/>
<stop offset="0.6365" stop-color="#75D0EB"/>
<stop offset="0.8192" stop-color="#97D9EC"/>
<stop offset="0.9751" stop-color="#D9F0F6"/>
</linearGradient>
<linearGradient id="paint61_linear" x1="8.28713" y1="125.72" x2="22.3119" y2="44.9457" gradientUnits="userSpaceOnUse">
<stop stop-color="#243B5F"/>
<stop offset="0.2311" stop-color="#2F76BC"/>
<stop offset="0.6365" stop-color="#75D0EB"/>
<stop offset="0.8192" stop-color="#97D9EC"/>
<stop offset="0.9751" stop-color="#D9F0F6"/>
</linearGradient>
<linearGradient id="paint62_linear" x1="8.28723" y1="125.721" x2="22.3119" y2="44.9457" gradientUnits="userSpaceOnUse">
<stop stop-color="#243B5F"/>
<stop offset="0.2311" stop-color="#2F76BC"/>
<stop offset="0.6365" stop-color="#75D0EB"/>
<stop offset="0.8192" stop-color="#97D9EC"/>
<stop offset="0.9751" stop-color="#D9F0F6"/>
</linearGradient>
<linearGradient id="paint63_linear" x1="7.50188" y1="125.582" x2="21.526" y2="44.8094" gradientUnits="userSpaceOnUse">
<stop stop-color="#243B5F"/>
<stop offset="0.2311" stop-color="#2F76BC"/>
<stop offset="0.6365" stop-color="#75D0EB"/>
<stop offset="0.8192" stop-color="#97D9EC"/>
<stop offset="0.9751" stop-color="#D9F0F6"/>
</linearGradient>
<linearGradient id="paint64_linear" x1="7.09569" y1="125.512" x2="21.1199" y2="44.7385" gradientUnits="userSpaceOnUse">
<stop stop-color="#243B5F"/>
<stop offset="0.2311" stop-color="#2F76BC"/>
<stop offset="0.6365" stop-color="#75D0EB"/>
<stop offset="0.8192" stop-color="#97D9EC"/>
<stop offset="0.9751" stop-color="#D9F0F6"/>
</linearGradient>
<linearGradient id="paint65_linear" x1="6.70035" y1="125.444" x2="20.7247" y2="44.6698" gradientUnits="userSpaceOnUse">
<stop stop-color="#243B5F"/>
<stop offset="0.2311" stop-color="#2F76BC"/>
<stop offset="0.6365" stop-color="#75D0EB"/>
<stop offset="0.8192" stop-color="#97D9EC"/>
<stop offset="0.9751" stop-color="#D9F0F6"/>
</linearGradient>
<linearGradient id="paint66_linear" x1="8.35008" y1="125.729" x2="22.3743" y2="44.9561" gradientUnits="userSpaceOnUse">
<stop stop-color="#243B5F"/>
<stop offset="0.2311" stop-color="#2F76BC"/>
<stop offset="0.6365" stop-color="#75D0EB"/>
<stop offset="0.8192" stop-color="#97D9EC"/>
<stop offset="0.9751" stop-color="#D9F0F6"/>
</linearGradient>
<linearGradient id="paint67_linear" x1="9.03605" y1="125.849" x2="23.0601" y2="45.0754" gradientUnits="userSpaceOnUse">
<stop stop-color="#243B5F"/>
<stop offset="0.2311" stop-color="#2F76BC"/>
<stop offset="0.6365" stop-color="#75D0EB"/>
<stop offset="0.8192" stop-color="#97D9EC"/>
<stop offset="0.9751" stop-color="#D9F0F6"/>
</linearGradient>
<linearGradient id="paint68_linear" x1="7.81631" y1="125.636" x2="21.8404" y2="44.8634" gradientUnits="userSpaceOnUse">
<stop stop-color="#243B5F"/>
<stop offset="0.2311" stop-color="#2F76BC"/>
<stop offset="0.6365" stop-color="#75D0EB"/>
<stop offset="0.8192" stop-color="#97D9EC"/>
<stop offset="0.9751" stop-color="#D9F0F6"/>
</linearGradient>
<linearGradient id="paint69_linear" x1="10.4131" y1="126.088" x2="24.4372" y2="45.3151" gradientUnits="userSpaceOnUse">
<stop stop-color="#243B5F"/>
<stop offset="0.2311" stop-color="#2F76BC"/>
<stop offset="0.6365" stop-color="#75D0EB"/>
<stop offset="0.8192" stop-color="#97D9EC"/>
<stop offset="0.9751" stop-color="#D9F0F6"/>
</linearGradient>
<linearGradient id="paint70_linear" x1="9.9471" y1="126.007" x2="23.9711" y2="45.2338" gradientUnits="userSpaceOnUse">
<stop stop-color="#243B5F"/>
<stop offset="0.2311" stop-color="#2F76BC"/>
<stop offset="0.6365" stop-color="#75D0EB"/>
<stop offset="0.8192" stop-color="#97D9EC"/>
<stop offset="0.9751" stop-color="#D9F0F6"/>
</linearGradient>
<linearGradient id="paint71_linear" x1="14.1871" y1="126.743" x2="28.2113" y2="45.9701" gradientUnits="userSpaceOnUse">
<stop stop-color="#243B5F"/>
<stop offset="0.2311" stop-color="#2F76BC"/>
<stop offset="0.6365" stop-color="#75D0EB"/>
<stop offset="0.8192" stop-color="#97D9EC"/>
<stop offset="0.9751" stop-color="#D9F0F6"/>
</linearGradient>
<linearGradient id="paint72_linear" x1="14.7524" y1="126.841" x2="28.7764" y2="46.0674" gradientUnits="userSpaceOnUse">
<stop stop-color="#243B5F"/>
<stop offset="0.2311" stop-color="#2F76BC"/>
<stop offset="0.6365" stop-color="#75D0EB"/>
<stop offset="0.8192" stop-color="#97D9EC"/>
<stop offset="0.9751" stop-color="#D9F0F6"/>
</linearGradient>
<linearGradient id="paint73_linear" x1="20.2229" y1="127.791" x2="34.2467" y2="47.0178" gradientUnits="userSpaceOnUse">
<stop stop-color="#243B5F"/>
<stop offset="0.2311" stop-color="#2F76BC"/>
<stop offset="0.6365" stop-color="#75D0EB"/>
<stop offset="0.8192" stop-color="#97D9EC"/>
<stop offset="0.9751" stop-color="#D9F0F6"/>
</linearGradient>
<linearGradient id="paint74_linear" x1="20.768" y1="127.886" x2="34.7919" y2="47.1121" gradientUnits="userSpaceOnUse">
<stop stop-color="#243B5F"/>
<stop offset="0.2311" stop-color="#2F76BC"/>
<stop offset="0.6365" stop-color="#75D0EB"/>
<stop offset="0.8192" stop-color="#97D9EC"/>
<stop offset="0.9751" stop-color="#D9F0F6"/>
</linearGradient>
</defs>
</svg>
