<svg width="103" height="103" viewBox="0 0 103 103" fill="none" xmlns="http://www.w3.org/2000/svg">
<path d="M51.6387 98.4755C25.7887 98.4755 4.82874 77.5255 4.82874 51.6655C4.82874 25.8055 25.7887 4.85547 51.6387 4.85547C77.4887 4.85547 98.4487 25.8155 98.4487 51.6655C98.4487 77.5155 77.4887 98.4755 51.6387 98.4755Z" fill="url(#paint0_linear)"/>
<path fill-rule="evenodd" clip-rule="evenodd" d="M97.5388 51.6654C97.5388 77.0154 76.9888 97.5654 51.6388 97.5654C26.2888 97.5654 5.73878 77.0154 5.73878 51.6654C5.73878 26.3154 26.2888 5.76539 51.6388 5.76539C76.9888 5.76539 97.5388 26.3154 97.5388 51.6654ZM51.6388 2.02539C79.0588 2.02539 101.279 24.2454 101.279 51.6654C101.279 79.0854 79.0488 101.305 51.6388 101.305C24.2188 101.305 1.99878 79.0754 1.99878 51.6654C1.99878 24.2454 24.2188 2.02539 51.6388 2.02539Z" fill="#F2F1F0"/>
<path fill-rule="evenodd" clip-rule="evenodd" d="M94.7288 51.6655C94.7288 75.4655 75.4388 94.7554 51.6388 94.7554C27.8388 94.7554 8.54884 75.4655 8.54884 51.6655C8.54884 27.8655 27.8388 8.57545 51.6388 8.57545C75.4388 8.57545 94.7288 27.8655 94.7288 51.6655ZM51.6388 4.83545C77.4988 4.83545 98.4688 25.8055 98.4688 51.6655C98.4688 77.5255 77.4988 98.4955 51.6388 98.4955C25.7788 98.4955 4.80884 77.5255 4.80884 51.6655C4.80884 25.8055 25.7688 4.83545 51.6388 4.83545Z" fill="url(#paint1_linear)"/>
<path opacity="0.15" d="M22.7587 78.5358H80.3587C81.9687 78.5358 83.2787 77.2258 83.2787 75.6158V29.6758H19.8387V75.6158C19.8387 77.2258 21.1487 78.5358 22.7587 78.5358Z" fill="#1F1D20"/>
<path d="M21.0487 75.8659H82.0787C82.7487 75.8659 83.2887 75.3259 83.2887 74.6559V27.0059H19.8387V74.6559C19.8387 75.3259 20.3787 75.8659 21.0487 75.8659Z" fill="#EBEBEB"/>
<path d="M19.8387 32.2858H83.2887V26.5958C83.2887 26.0858 82.8787 25.6758 82.3687 25.6758H20.7587C20.2487 25.6758 19.8387 26.0858 19.8387 26.5958V32.2858Z" fill="#092E4C"/>
<path d="M24.7188 30.7159C25.6088 30.7159 26.3288 29.9959 26.3288 29.1059C26.3288 28.2059 25.5888 27.5059 24.7188 27.5059C23.8288 27.5059 23.1088 28.2259 23.1088 29.1159C23.1088 30.0159 23.8088 30.7159 24.7188 30.7159Z" fill="url(#paint2_linear)"/>
<path fill-rule="evenodd" clip-rule="evenodd" d="M48.2488 35.6855C44.9988 39.4055 39.2888 40.6355 32.7688 40.6355V50.5355C32.7688 60.7455 37.2988 67.3256 48.2488 72.8256C59.1988 67.3256 63.7288 60.7455 63.7288 50.5355V40.6255C57.2088 40.6255 51.4888 39.3955 48.2488 35.6855Z" fill="url(#paint3_linear)"/>
<path fill-rule="evenodd" clip-rule="evenodd" d="M47.7888 35.6855V72.8355C58.7388 67.3255 63.2688 60.7555 63.2688 50.5355V40.6255C56.7488 40.6255 51.0288 39.3955 47.7888 35.6855Z" fill="url(#paint4_linear)"/>
<path fill-rule="evenodd" clip-rule="evenodd" d="M33.5488 41.8354V50.5254C33.5488 60.1254 37.6888 66.2154 47.7888 71.4354C57.8888 66.2154 62.0288 60.1154 62.0288 50.5254V41.8354C55.5188 41.6754 50.8388 40.2254 47.7888 37.4254C44.7388 40.2254 40.0588 41.6754 33.5488 41.8354ZM47.7888 74.0654C47.5988 74.0654 47.4088 74.0254 47.2288 73.9354C35.8988 68.2354 31.0688 61.2354 31.0688 50.5254V40.6154C31.0688 39.9354 31.6188 39.3754 32.3088 39.3754C39.4388 39.3754 44.1988 37.8954 46.8488 34.8454C47.3188 34.3054 48.2488 34.3054 48.7188 34.8454C51.3788 37.8954 56.1388 39.3754 63.2588 39.3754C63.9388 39.3754 64.4988 39.9354 64.4988 40.6154V50.5254C64.4988 61.2454 59.6588 68.2354 48.3388 73.9354C48.1688 74.0254 47.9788 74.0654 47.7888 74.0654Z" fill="#546670"/>
<path opacity="0.15" d="M69.9689 55.7755L67.7789 53.3055L67.7689 53.3155L65.2589 50.4955V50.4355H56.3589C55.8289 50.4355 55.5489 51.0655 55.9089 51.4555L60.1289 56.1555L55.8789 60.9055C55.5589 61.2555 55.8089 61.8255 56.2889 61.8255H60.1989H65.0389C65.1389 61.8255 65.2389 61.7855 65.3089 61.7055L69.9589 56.6355C70.1789 56.3955 70.1889 56.0255 69.9689 55.7755Z" fill="#1F1D20"/>
<path opacity="0.15" d="M75.7688 56.1454L72.3288 52.2654L72.3188 52.2754L68.3788 47.8354V47.7354H54.3688C53.5388 47.7354 53.0988 48.7254 53.6488 49.3454L60.2888 56.7354L53.5988 64.2054C53.0988 64.7654 53.4988 65.6454 54.2388 65.6454H60.3888H68.0088C68.1688 65.6454 68.3288 65.5754 68.4388 65.4554L75.7588 57.4854C76.1088 57.1154 76.1088 56.5354 75.7688 56.1454Z" fill="#1F1D20"/>
<path d="M68.3788 52.6254L61.1988 56.8154L53.6488 48.4054C53.0888 47.7854 53.5288 46.7954 54.3688 46.7954H68.3788V52.6254Z" fill="url(#paint5_linear)"/>
<path d="M72.3588 51.3852L68.3188 46.8252L53.5988 63.2752C53.0988 63.8352 53.4988 64.7152 54.2388 64.7152H60.3888L72.3588 51.3852Z" fill="url(#paint6_linear)"/>
<path d="M75.7688 55.2052L72.3288 51.3252L60.1788 64.7152H68.0088C68.1688 64.7152 68.3288 64.6452 68.4388 64.5252L75.7588 56.5552C76.1088 56.1652 76.1088 55.5952 75.7688 55.2052Z" fill="url(#paint7_linear)"/>
<defs>
<linearGradient id="paint0_linear" x1="6.86204" y1="-11.8074" x2="84.2478" y2="97.8933" gradientUnits="userSpaceOnUse">
<stop stop-color="#97C3F9"/>
<stop offset="0.4975" stop-color="#388CF4"/>
<stop offset="1" stop-color="#2C7CEF"/>
</linearGradient>
<linearGradient id="paint1_linear" x1="44.1384" y1="5.20465" x2="57.7447" y2="89.4881" gradientUnits="userSpaceOnUse">
<stop offset="0.0829" stop-color="#1152D4"/>
<stop offset="0.4296" stop-color="#0D40B5"/>
<stop offset="0.706" stop-color="#0D3FB1"/>
<stop offset="1" stop-color="#092D7F"/>
</linearGradient>
<linearGradient id="paint2_linear" x1="23.1066" y1="29.1096" x2="26.3336" y2="29.1096" gradientUnits="userSpaceOnUse">
<stop stop-color="#76C0FD"/>
<stop offset="1" stop-color="#63B2FB"/>
</linearGradient>
<linearGradient id="paint3_linear" x1="15.3678" y1="13.9543" x2="54.4859" y2="57.0409" gradientUnits="userSpaceOnUse">
<stop offset="0.0829" stop-color="#1152D4"/>
<stop offset="0.4296" stop-color="#0D40B5"/>
<stop offset="0.706" stop-color="#0D3FB1"/>
<stop offset="1" stop-color="#092D7F"/>
</linearGradient>
<linearGradient id="paint4_linear" x1="19.7736" y1="-0.030649" x2="53.2224" y2="53.0716" gradientUnits="userSpaceOnUse">
<stop offset="0.0829" stop-color="#1152D4"/>
<stop offset="0.4296" stop-color="#0D40B5"/>
<stop offset="0.706" stop-color="#0D3FB1"/>
<stop offset="1" stop-color="#092D7F"/>
</linearGradient>
<linearGradient id="paint5_linear" x1="54.3404" y1="41.9809" x2="70.6716" y2="57.3466" gradientUnits="userSpaceOnUse">
<stop offset="0.4598" stop-color="#1152D4"/>
<stop offset="0.6156" stop-color="#0D3FB3"/>
</linearGradient>
<linearGradient id="paint6_linear" x1="53.3743" y1="55.7717" x2="72.3596" y2="55.7717" gradientUnits="userSpaceOnUse">
<stop stop-color="#388CF4"/>
<stop offset="1" stop-color="#2C7CEF"/>
</linearGradient>
<linearGradient id="paint7_linear" x1="60.1822" y1="58.0192" x2="76.023" y2="58.0192" gradientUnits="userSpaceOnUse">
<stop stop-color="#76C0FD"/>
<stop offset="1" stop-color="#63B2FB"/>
</linearGradient>
</defs>
</svg>
