<svg width="181" height="191" viewBox="0 0 181 191" fill="none" xmlns="http://www.w3.org/2000/svg">
<path d="M90.4661 189.59C93.5261 189.59 96.5361 188.74 99.1961 187.12L161.166 149.46C166.706 146.09 170.136 139.76 170.136 132.92V58.2102C170.136 51.3902 166.706 45.0502 161.166 41.6702L99.1961 4.01015C93.8661 0.770152 87.0461 0.790152 81.7461 4.01015L19.7761 41.6902C14.2361 45.0602 10.7861 51.3902 10.7861 58.2302V132.93C10.7861 138.69 13.2361 144.11 17.3361 147.68V147.71L81.7461 187.14C84.3861 188.74 87.4061 189.59 90.4661 189.59ZM91.1161 8.54015C93.0661 8.54015 95.5461 9.75015 97.2561 10.8002L158.016 47.9902C161.766 50.2702 163.886 56.8702 163.886 61.6202L163.256 132.92C163.256 137.67 160.056 141.94 156.306 144.22L95.9061 180.6C92.4761 182.69 89.6861 182.69 86.2461 180.6L25.0361 144.13C21.2861 141.85 18.2661 137.65 18.2661 132.92V59.2802C18.2661 54.5402 20.9961 49.6502 24.7661 47.3602L85.3461 10.8002C87.0461 9.76015 89.1661 8.54015 91.1161 8.54015Z" fill="#F2F1F0"/>
<path fill-rule="evenodd" clip-rule="evenodd" d="M98.3661 12.1201C95.9161 10.6201 93.1962 9.87012 90.4662 9.87012C87.7362 9.87012 85.0161 10.6301 82.5661 12.1201L26.4362 46.4501C21.4162 49.5201 18.3062 55.2701 18.3062 61.5201V129.62C18.3062 135.85 21.4062 141.62 26.4362 144.69L82.5661 179.02C85.0161 180.52 87.7362 181.27 90.4662 181.27C93.1962 181.27 95.9161 180.53 98.3661 179.02L154.496 144.69C159.516 141.62 162.626 135.85 162.626 129.62V61.5201C162.626 55.2901 159.526 49.5401 154.496 46.4501L98.3661 12.1201Z" fill="url(#paint0_linear)"/>
<path fill-rule="evenodd" clip-rule="evenodd" d="M90.4662 11.3401C92.1462 11.3401 94.0361 12.2101 96.0961 13.4601L154.566 49.0001C158.216 51.2201 160.626 55.4901 160.626 60.3201V130.8C160.626 135.62 158.216 139.9 154.566 142.12L96.1062 177.66C94.1462 178.85 92.2262 179.6 90.4762 179.6C88.7262 179.6 86.8061 178.85 84.8461 177.66L26.3662 142.13C24.3562 140.9 22.9062 139.7 21.9262 138.09C20.9462 136.49 20.3062 134.27 20.3062 130.81V60.3301C20.3062 55.5001 22.7162 51.2301 26.3662 49.0101L84.8262 13.4701C86.9162 12.2201 88.7762 11.3401 90.4662 11.3401ZM98.1761 181.09L156.636 145.55C161.556 142.56 164.616 136.94 164.616 130.81V60.3301C164.616 54.2001 161.556 48.5801 156.636 45.5901L98.1761 10.0501C96.0661 8.77009 93.3562 7.34009 90.4662 7.34009C87.5662 7.34009 84.8562 8.78009 82.7662 10.0401H82.7561L24.2862 45.5901C19.3662 48.5801 16.3062 54.2001 16.3062 60.3301V130.81C16.3062 134.77 17.0462 137.76 18.5062 140.17C19.9662 142.57 22.0262 144.17 24.2862 145.54L82.7462 181.08C84.9662 182.43 87.6361 183.61 90.4561 183.61C93.2761 183.61 95.9561 182.44 98.1761 181.09Z" fill="url(#paint1_linear)"/>
<path opacity="0.15" d="M151.366 90.3101C151.366 88.9801 150.286 87.9001 148.956 87.9001C148.086 87.9001 142.686 87.4301 139.786 85.1701C139.786 85.1701 139.806 85.1401 139.786 85.1701C138.686 81.1801 137.086 77.4401 135.106 73.9101C134.596 70.5501 138.066 68.1101 139.656 65.5001C139.936 65.0401 140.096 64.7801 140.196 64.6001C140.486 63.7501 140.326 62.7701 139.656 62.1001C139.656 62.1001 136.986 58.2901 134.256 55.5701C131.526 52.8501 127.376 49.8201 127.376 49.8201C126.446 48.8901 124.906 48.8901 123.966 49.8201C123.346 50.4301 119.236 53.8101 115.536 54.3501C115.486 54.3501 115.486 54.3501 115.486 54.3501C112.046 52.4001 108.186 50.8001 104.306 49.7001H104.256C101.526 47.6901 102.246 43.5101 101.526 40.5301C101.526 39.2001 100.446 38.1201 99.1161 38.1201C99.1161 38.1201 94.5361 37.3201 90.6661 37.3201C86.8061 37.3201 81.7461 38.1201 81.7461 38.1201C80.4161 38.1201 79.3361 39.2001 79.3361 40.5301C79.3361 41.4001 78.8661 46.8001 76.6061 49.7001C72.7761 50.7801 68.7461 52.4801 65.3461 54.3801C61.9861 54.8901 59.5461 51.4201 56.9361 49.8301C56.4761 49.5501 56.2161 49.3901 56.0361 49.2901C55.1861 49.0001 54.2061 49.1601 53.5361 49.8301C53.5361 49.8301 49.7261 52.5001 47.0061 55.2301C44.2861 57.9601 41.2561 62.1101 41.2561 62.1101C40.3261 63.0401 40.3261 64.5801 41.2561 65.5201C41.8661 66.1301 45.3461 70.3001 45.8061 73.9301V73.9601C43.9061 77.3701 42.2361 81.3801 41.1561 85.2101C41.1561 85.2101 41.2061 85.1401 41.1561 85.2101C38.8161 88.0601 34.9661 87.2201 31.9861 87.9401C30.6561 87.9401 29.5761 89.0201 29.5761 90.3501C29.5761 90.3501 28.7761 94.9301 28.7761 98.8001C28.7761 102.66 29.5761 107.72 29.5761 107.72C29.5761 109.05 30.6561 110.13 31.9861 110.13C32.8561 110.13 38.2561 110.6 41.1561 112.86C41.2261 112.83 41.1861 112.91 41.1861 112.91C42.2961 116.76 43.8861 120.6 45.8161 124.01C45.7861 124.06 45.8161 124.01 45.8361 124.12C46.1661 127.62 42.8761 129.92 41.2861 132.53C41.0061 132.99 40.8461 133.25 40.7461 133.43C40.4561 134.28 40.6161 135.26 41.2861 135.93C41.2861 135.93 43.9561 139.74 46.6861 142.46C49.4161 145.19 53.5661 148.21 53.5661 148.21C54.4961 149.14 56.0361 149.14 56.9761 148.21C57.5861 147.6 61.7561 144.12 65.3861 143.66C65.3861 143.66 65.3661 143.68 65.4361 143.69C68.9361 145.64 72.5561 147.18 76.5161 148.26C76.5461 148.28 76.6661 148.31 76.6661 148.31C79.3961 150.32 78.6761 154.5 79.3961 157.48C79.5461 158.82 80.2761 159.67 81.8061 159.89C81.8061 159.89 86.3861 160.69 90.2561 160.69C94.1261 160.69 99.1761 159.9 99.1761 159.9C100.506 159.67 101.586 158.82 101.586 157.49C101.586 156.62 102.056 151.22 104.316 148.32C104.316 148.32 104.416 148.24 104.516 148.16C108.546 147.03 111.606 145.79 115.156 143.74C115.336 143.67 115.136 143.69 115.566 143.63C118.926 143.12 121.366 146.59 123.976 148.18C124.436 148.46 124.696 148.62 124.876 148.72C125.726 149.01 126.706 148.85 127.376 148.18C127.376 148.18 131.186 145.51 133.906 142.78C136.636 140.05 139.656 135.9 139.656 135.9C140.586 134.97 140.586 133.43 139.656 132.49C139.046 131.88 135.566 127.71 135.106 124.08C135.056 123.7 135.086 123.65 135.136 123.56C137.166 119.97 138.446 117.36 139.556 113.3C139.556 113.3 139.506 113.17 139.766 112.83C141.776 110.1 145.956 110.82 148.936 110.1C150.266 110.1 151.346 109.02 151.346 107.69C151.346 107.69 152.146 103.11 152.146 99.2401C152.146 95.3701 151.366 90.3101 151.366 90.3101Z" fill="#1F1D20"/>
<path d="M151.366 87.04C151.366 85.71 150.286 84.6301 148.956 84.6301C148.086 84.6301 142.686 84.16 139.786 81.9C139.786 81.9 139.806 81.87 139.786 81.9C138.686 77.91 137.086 74.1701 135.106 70.6401C134.596 67.2801 138.066 64.84 139.656 62.23C139.936 61.77 140.096 61.5101 140.196 61.3301C140.486 60.4801 140.326 59.5001 139.656 58.8301C139.656 58.8301 136.986 55.02 134.256 52.3C131.526 49.58 127.376 46.55 127.376 46.55C126.446 45.62 124.906 45.62 123.966 46.55C123.346 47.16 119.236 50.5401 115.536 51.0801C115.486 51.0801 115.486 51.0801 115.486 51.0801C112.046 49.1301 108.186 47.53 104.306 46.43H104.256C101.526 44.42 102.246 40.24 101.526 37.26C101.526 35.93 100.446 34.85 99.1161 34.85C99.1161 34.85 94.5361 34.05 90.6661 34.05C86.8061 34.05 81.7461 34.85 81.7461 34.85C80.4161 34.85 79.3361 35.93 79.3361 37.26C79.3361 38.13 78.8661 43.53 76.6061 46.43C72.7761 47.51 68.7461 49.2101 65.3461 51.1101C61.9861 51.6201 59.5461 48.1501 56.9361 46.5601C56.4761 46.2801 56.2161 46.1201 56.0361 46.0201C55.1861 45.7301 54.2061 45.8901 53.5361 46.5601C53.5361 46.5601 49.7261 49.23 47.0061 51.96C44.2861 54.69 41.2561 58.84 41.2561 58.84C40.3261 59.77 40.3261 61.31 41.2561 62.25C41.8661 62.86 45.3461 67.03 45.8061 70.66V70.69C43.9061 74.1 42.2361 78.11 41.1561 81.94C41.1561 81.94 41.2061 81.87 41.1561 81.94C38.8161 84.79 34.9661 83.9501 31.9861 84.6701C30.6561 84.6701 29.5761 85.75 29.5761 87.08C29.5761 87.08 28.7761 91.6601 28.7761 95.5301C28.7761 99.3901 29.5761 104.45 29.5761 104.45C29.5761 105.78 30.6561 106.86 31.9861 106.86C32.8561 106.86 38.2561 107.33 41.1561 109.59C41.2261 109.56 41.1861 109.64 41.1861 109.64C42.2961 113.49 43.8861 117.33 45.8161 120.74C45.7861 120.79 45.8161 120.74 45.8361 120.85C46.1661 124.35 42.8761 126.65 41.2861 129.26C41.0061 129.72 40.8461 129.98 40.7461 130.16C40.4561 131.01 40.6161 131.99 41.2861 132.66C41.2861 132.66 43.9561 136.47 46.6861 139.19C49.4161 141.92 53.5661 144.94 53.5661 144.94C54.4961 145.87 56.0361 145.87 56.9761 144.94C57.5861 144.33 61.7561 140.85 65.3861 140.39C65.3861 140.39 65.3661 140.41 65.4361 140.42C68.9361 142.37 72.5561 143.91 76.5161 144.99C76.5461 145.01 76.6661 145.04 76.6661 145.04C79.3961 147.05 78.6761 151.23 79.3961 154.21C79.5461 155.55 80.2761 156.4 81.8061 156.62C81.8061 156.62 86.3861 157.42 90.2561 157.42C94.1261 157.42 99.1761 156.63 99.1761 156.63C100.506 156.4 101.586 155.55 101.586 154.22C101.586 153.35 102.056 147.95 104.316 145.05C104.316 145.05 104.416 144.97 104.516 144.89C108.546 143.76 111.606 142.52 115.156 140.47C115.336 140.4 115.136 140.42 115.566 140.36C118.926 139.85 121.366 143.32 123.976 144.91C124.436 145.19 124.696 145.35 124.876 145.45C125.726 145.74 126.706 145.58 127.376 144.91C127.376 144.91 131.186 142.24 133.906 139.51C136.636 136.78 139.656 132.63 139.656 132.63C140.586 131.7 140.586 130.16 139.656 129.22C139.046 128.61 135.566 124.44 135.106 120.81C135.056 120.43 135.086 120.38 135.136 120.29C137.166 116.7 138.446 114.09 139.556 110.03C139.556 110.03 139.506 109.9 139.766 109.56C141.776 106.83 145.956 107.55 148.936 106.83C150.266 106.83 151.346 105.75 151.346 104.42C151.346 104.42 152.146 99.84 152.146 95.97C152.146 92.1 151.366 87.04 151.366 87.04Z" fill="url(#paint2_linear)"/>
<path opacity="0.15" d="M136.186 97.6101L126.686 88.1101L126.506 92.3901H104.616V101.8H126.466L126.686 107.12L136.186 97.6101Z" fill="#1F1D20"/>
<path d="M136.186 95.3901L126.686 85.8901L126.506 90.1701H104.616V99.5801H126.466L126.686 104.9L136.186 95.3901Z" fill="#F2F1F0"/>
<path opacity="0.2" d="M74.7261 128.95H114.416C116.186 128.95 117.636 127.51 117.636 125.73V67.48H54.6061V125.74C54.6061 127.51 56.0461 128.96 57.8261 128.96H64.6961H74.7261V128.95Z" fill="#1F1D21"/>
<path d="M74.7261 125.88H115.446C116.656 125.88 117.636 124.9 117.636 123.69V66.5801C117.626 65.3701 116.646 64.3901 115.446 64.3901H56.7961C55.5861 64.3901 54.6061 65.3701 54.6061 66.5801V123.69C54.6061 124.9 55.5861 125.88 56.7961 125.88H64.6861H74.7261V125.88Z" fill="white"/>
<path d="M117.626 65.5001C117.626 64.2901 116.646 63.3101 115.436 63.3101H56.7961C55.5861 63.3101 54.6061 64.2901 54.6061 65.5001V67.5701H117.626V65.5001Z" fill="url(#paint3_linear)"/>
<path opacity="0.2" d="M107.836 97.1301L101.386 89.8701L101.366 89.8901L93.9862 81.5801V81.3901H67.7562C66.1962 81.3901 65.3762 83.2401 66.4162 84.4001L78.8462 98.2401L66.3162 112.23C65.3862 113.27 66.1162 114.93 67.5262 114.93H79.0462H93.3162C93.6262 114.93 93.9162 114.8 94.1262 114.58L107.826 99.6501C108.466 98.9301 108.486 97.8501 107.836 97.1301Z" fill="#1F1D21"/>
<path d="M93.9961 89.7701L80.5561 97.6201L66.4161 81.8801C65.3761 80.7201 66.1961 78.8701 67.7561 78.8701H93.9961V89.7701Z" fill="url(#paint4_linear)"/>
<path d="M101.456 87.4502L93.8862 78.9202L66.3262 109.7C65.3962 110.74 66.1262 112.4 67.5362 112.4H79.0562L101.456 87.4502Z" fill="url(#paint5_linear)"/>
<path d="M107.836 94.6001L101.386 87.3401L78.6462 112.4H93.3062C93.6162 112.4 93.9062 112.27 94.1162 112.05L107.816 97.1201C108.466 96.4101 108.486 95.3201 107.836 94.6001Z" fill="url(#paint6_linear)"/>
<defs>
<linearGradient id="paint0_linear" x1="4.71945" y1="13.0314" x2="217.129" y2="217.504" gradientUnits="userSpaceOnUse">
<stop stop-color="#97C3F9"/>
<stop offset="0.4975" stop-color="#388CF4"/>
<stop offset="1" stop-color="#2C7CEF"/>
</linearGradient>
<linearGradient id="paint1_linear" x1="28.1233" y1="11.6176" x2="148.69" y2="174.515" gradientUnits="userSpaceOnUse">
<stop offset="0.0829" stop-color="#1152D4"/>
<stop offset="0.4296" stop-color="#0D40B5"/>
<stop offset="0.706" stop-color="#0D3FB1"/>
<stop offset="1" stop-color="#092D7F"/>
</linearGradient>
<linearGradient id="paint2_linear" x1="27.3586" y1="37.6192" x2="176.895" y2="175.319" gradientUnits="userSpaceOnUse">
<stop offset="0.0829" stop-color="#1152D4"/>
<stop offset="0.4296" stop-color="#0D40B5"/>
<stop offset="0.706" stop-color="#0D3FB1"/>
<stop offset="1" stop-color="#092D7F"/>
</linearGradient>
<linearGradient id="paint3_linear" x1="70.2909" y1="56.4147" x2="138.021" y2="97.0525" gradientUnits="userSpaceOnUse">
<stop stop-color="#76C0FD"/>
<stop offset="1" stop-color="#63B2FB"/>
</linearGradient>
<linearGradient id="paint4_linear" x1="67.7107" y1="69.8381" x2="98.2932" y2="98.6125" gradientUnits="userSpaceOnUse">
<stop offset="0.4598" stop-color="#1152D4"/>
<stop offset="0.6156" stop-color="#0D3FB3"/>
</linearGradient>
<linearGradient id="paint5_linear" x1="65.9016" y1="95.6644" x2="101.454" y2="95.6644" gradientUnits="userSpaceOnUse">
<stop stop-color="#388CF4"/>
<stop offset="1" stop-color="#2C7CEF"/>
</linearGradient>
<linearGradient id="paint6_linear" x1="78.6505" y1="99.8728" x2="108.315" y2="99.8728" gradientUnits="userSpaceOnUse">
<stop stop-color="#76C0FD"/>
<stop offset="1" stop-color="#63B2FB"/>
</linearGradient>
</defs>
</svg>
