<svg width="103" height="103" viewBox="0 0 103 103" fill="none" xmlns="http://www.w3.org/2000/svg">
<path d="M51.4418 98.1483C25.5918 98.1483 4.63184 77.1983 4.63184 51.3383C4.63184 25.4783 25.5918 4.52832 51.4418 4.52832C77.2918 4.52832 98.2518 25.4883 98.2518 51.3383C98.2518 77.1883 77.2918 98.1483 51.4418 98.1483Z" fill="url(#paint0_linear)"/>
<path fill-rule="evenodd" clip-rule="evenodd" d="M97.3419 51.3382C97.3419 76.6882 76.7919 97.2382 51.4419 97.2382C26.0919 97.2382 5.54188 76.6882 5.54188 51.3382C5.54188 25.9882 26.0919 5.43824 51.4419 5.43824C76.7919 5.43824 97.3419 25.9882 97.3419 51.3382ZM51.4419 1.69824C78.8619 1.69824 101.082 23.9182 101.082 51.3382C101.082 78.7582 78.8519 100.978 51.4419 100.978C24.0219 100.978 1.80188 78.7482 1.80188 51.3382C1.80188 23.9182 24.0219 1.69824 51.4419 1.69824Z" fill="#F2F1F0"/>
<path fill-rule="evenodd" clip-rule="evenodd" d="M94.5319 51.3378C94.5319 75.1378 75.2419 94.4278 51.4419 94.4278C27.6419 94.4278 8.35194 75.1378 8.35194 51.3378C8.35194 27.5378 27.6419 8.24781 51.4419 8.24781C75.2419 8.24781 94.5319 27.5378 94.5319 51.3378ZM51.4419 4.50781C77.3019 4.50781 98.2719 25.4778 98.2719 51.3378C98.2719 77.1978 77.3019 98.1678 51.4419 98.1678C25.5819 98.1678 4.61194 77.1978 4.61194 51.3378C4.61194 25.4778 25.5719 4.50781 51.4419 4.50781Z" fill="url(#paint1_linear)"/>
<path opacity="0.4" d="M67.1319 80.6076C78.8238 80.6076 88.3019 71.1294 88.3019 59.4376C88.3019 47.7457 78.8238 38.2676 67.1319 38.2676C55.44 38.2676 45.9619 47.7457 45.9619 59.4376C45.9619 71.1294 55.44 80.6076 67.1319 80.6076Z" fill="#1F1D21"/>
<path opacity="0.4" d="M67.5218 70.7791L40.5218 86.5491L22.7318 76.0691L49.7318 61.0391L67.5218 70.7791Z" fill="#1F1D21"/>
<path d="M66.8118 22.3188L40.6218 37.5088L22.7618 27.2388L48.9518 12.0488L66.8118 22.3188Z" fill="#2B70E0"/>
<path d="M66.8119 22.3184L66.7118 70.0784L40.5219 85.3284L40.6218 37.5084L66.8119 22.3184Z" fill="#0046B7"/>
<path d="M40.6219 37.5093L40.5219 85.3293L22.6619 75.0593L22.7619 27.2393L40.6219 37.5093Z" fill="url(#paint2_linear)"/>
<path d="M27.6318 43.5286V42.2686L28.6818 42.8986V44.0986L27.6318 43.5286Z" fill="white"/>
<path d="M29.7318 44.7391V43.5391L30.7818 44.1191V45.3191L29.7318 44.7391Z" fill="white"/>
<path d="M31.8219 45.9393V44.7393L32.8719 45.3193V46.5193L31.8219 45.9393Z" fill="white"/>
<path d="M27.5819 48.3484L27.6319 44.1084L28.6819 44.7384V48.9284L27.5819 48.3484Z" fill="white"/>
<path d="M29.6819 49.5584L29.7319 45.3184L30.7819 45.9484V50.1384L29.6819 49.5584Z" fill="white"/>
<path d="M31.8219 50.7586V46.5186L32.8719 47.1486V51.3886L31.8219 50.7586Z" fill="white"/>
<path d="M28.1119 64.429C27.8019 64.269 27.5919 63.849 27.5919 63.539C27.5919 63.229 27.8019 63.069 28.1119 63.229C28.3719 63.389 28.6319 63.809 28.6319 64.119C28.6319 64.479 28.4219 64.639 28.1119 64.429Z" fill="white"/>
<path d="M30.2518 65.6887C29.9418 65.5287 29.7318 65.1087 29.7318 64.7987C29.7318 64.4887 29.9418 64.3287 30.2518 64.4887C30.5118 64.6487 30.7718 65.0687 30.7718 65.3787C30.7818 65.6887 30.5118 65.8387 30.2518 65.6887Z" fill="white"/>
<path d="M28.1618 62.0188C27.8518 61.8588 27.6418 61.4388 27.6418 61.1288C27.6418 60.8188 27.8518 60.6588 28.1618 60.8188C28.4218 60.9788 28.6818 61.3988 28.6818 61.7088C28.6818 62.0188 28.4218 62.1788 28.1618 62.0188Z" fill="white"/>
<path d="M30.2518 63.219C29.9418 63.059 29.7318 62.639 29.7318 62.329C29.7318 62.019 29.9418 61.859 30.2518 62.019C30.5118 62.179 30.7718 62.599 30.7718 62.909C30.7818 63.279 30.5118 63.379 30.2518 63.219Z" fill="white"/>
<path d="M28.1618 59.6087C27.8518 59.4487 27.6418 59.0287 27.6418 58.7187C27.6418 58.4087 27.8518 58.2487 28.1618 58.4087C28.4218 58.5687 28.6818 58.9887 28.6818 59.2987C28.6818 59.6587 28.4218 59.7687 28.1618 59.6087Z" fill="white"/>
<path d="M30.2518 60.8186C29.9418 60.6586 29.7318 60.2386 29.7318 59.9286C29.7318 59.6186 29.9418 59.4586 30.2518 59.6186C30.5118 59.7786 30.7718 60.1986 30.7718 60.5086C30.7818 60.8686 30.5118 60.9686 30.2518 60.8186Z" fill="white"/>
<path d="M32.3519 66.8889C32.0419 66.7289 31.8319 66.3089 31.8319 65.9989C31.8319 65.6889 32.0419 65.5289 32.3519 65.6889C32.6119 65.8489 32.8719 66.2689 32.8719 66.5789C32.8719 66.8889 32.6119 67.0489 32.3519 66.8889Z" fill="white"/>
<path d="M32.3519 64.429C32.0419 64.269 31.8319 63.849 31.8319 63.539C31.8319 63.229 32.0419 63.069 32.3519 63.229C32.6119 63.389 32.8719 63.809 32.8719 64.119C32.8719 64.479 32.6119 64.639 32.3519 64.429Z" fill="white"/>
<path d="M32.3519 62.0188C32.0419 61.8588 31.8319 61.4388 31.8319 61.1288C31.8319 60.8188 32.0419 60.6588 32.3519 60.8188C32.6119 60.9788 32.8719 61.3988 32.8719 61.7088C32.8719 62.0688 32.6119 62.2288 32.3519 62.0188Z" fill="white"/>
<path d="M29.7819 54.0093L27.5819 52.7493V50.2393L29.7819 51.4993V54.0093ZM28.1119 51.0193V52.4293L29.3719 53.1593V51.7493L28.1119 51.0193Z" fill="white"/>
<path d="M29.7819 57.519L27.5819 56.259V53.749L29.7819 55.009V57.519ZM28.0519 54.579V55.989L29.3119 56.719V55.309L28.0519 54.579Z" fill="white"/>
<path d="M32.8719 59.2993L30.6719 58.0393V55.5293L32.8719 56.7893V59.2993ZM31.1419 56.3093V57.7193L32.4019 58.4493V57.0393L31.1419 56.3093Z" fill="white"/>
<path d="M32.8719 55.7887L30.6719 54.4787V51.9688L32.8719 53.2287V55.7887ZM31.1419 52.7987V54.2087L32.4019 54.9387V53.5287L31.1419 52.7987Z" fill="white"/>
<path d="M67.1319 79.2785C78.8238 79.2785 88.3019 69.8003 88.3019 58.1085C88.3019 46.4166 78.8238 36.9385 67.1319 36.9385C55.44 36.9385 45.9619 46.4166 45.9619 58.1085C45.9619 69.8003 55.44 79.2785 67.1319 79.2785Z" fill="#F2F1F0"/>
<path d="M73.1519 53.8787L64.2719 59.0687L54.9319 48.6687C54.2419 47.8987 54.7919 46.6787 55.8119 46.6787H73.1419L73.1519 53.8787Z" fill="url(#paint3_linear)"/>
<path d="M78.0719 52.3487L73.0719 46.7188L54.8619 67.0487C54.2419 67.7387 54.7319 68.8287 55.6619 68.8287H63.2719L78.0719 52.3487Z" fill="url(#paint4_linear)"/>
<path d="M82.2918 57.0783L78.0318 52.2783L63.0118 68.8383H72.6918C72.8918 68.8383 73.0818 68.7583 73.2218 68.6083L82.2718 58.7483C82.7118 58.2683 82.7218 57.5483 82.2918 57.0783Z" fill="url(#paint5_linear)"/>
<defs>
<linearGradient id="paint0_linear" x1="49.6719" y1="-13.4481" x2="53.6539" y2="132.322" gradientUnits="userSpaceOnUse">
<stop stop-color="#76C0FD"/>
<stop offset="1" stop-color="#63B2FB"/>
</linearGradient>
<linearGradient id="paint1_linear" x1="23.3255" y1="4.14541" x2="76.2389" y2="92.9643" gradientUnits="userSpaceOnUse">
<stop offset="0.4598" stop-color="#1152D4"/>
<stop offset="0.6156" stop-color="#0D3FB3"/>
</linearGradient>
<linearGradient id="paint2_linear" x1="26.0417" y1="26.6252" x2="52.8764" y2="168.735" gradientUnits="userSpaceOnUse">
<stop offset="0.4598" stop-color="#1152D4"/>
<stop offset="0.6156" stop-color="#0D3FB3"/>
</linearGradient>
<linearGradient id="paint3_linear" x1="55.786" y1="40.7163" x2="75.9887" y2="59.7246" gradientUnits="userSpaceOnUse">
<stop offset="0.4598" stop-color="#1152D4"/>
<stop offset="0.6156" stop-color="#0D3FB3"/>
</linearGradient>
<linearGradient id="paint4_linear" x1="54.5909" y1="57.7769" x2="78.0768" y2="57.7769" gradientUnits="userSpaceOnUse">
<stop stop-color="#388CF4"/>
<stop offset="1" stop-color="#2C7CEF"/>
</linearGradient>
<linearGradient id="paint5_linear" x1="63.0126" y1="60.5565" x2="82.6085" y2="60.5565" gradientUnits="userSpaceOnUse">
<stop stop-color="#76C0FD"/>
<stop offset="1" stop-color="#63B2FB"/>
</linearGradient>
</defs>
</svg>
