<svg width="181" height="191" viewBox="0 0 181 191" fill="none" xmlns="http://www.w3.org/2000/svg">
<path d="M90.4201 189.763C93.4801 189.763 96.4901 188.913 99.1501 187.293L161.12 149.633C166.66 146.263 170.09 139.933 170.09 133.093V58.3832C170.09 51.5632 166.66 45.2233 161.12 41.8433L99.1501 4.18325C93.8201 0.943248 87.0001 0.963248 81.7001 4.18325L19.7301 41.8632C14.1901 45.2332 10.7401 51.5632 10.7401 58.4032V133.103C10.7401 138.863 13.1901 144.283 17.2901 147.853V147.883L81.7001 187.313C84.3401 188.913 87.3601 189.763 90.4201 189.763ZM91.0701 8.71325C93.0201 8.71325 95.5001 9.92325 97.2101 10.9732L157.97 48.1632C161.72 50.4432 163.84 57.0432 163.84 61.7932L163.21 133.093C163.21 137.843 160.01 142.113 156.26 144.393L95.8601 180.773C92.4301 182.863 89.6401 182.863 86.2001 180.773L24.9901 144.303C21.2401 142.023 18.2201 137.823 18.2201 133.093V59.4532C18.2201 54.7132 20.9501 49.8232 24.7201 47.5332L85.3001 10.9732C87.0001 9.93325 89.1201 8.71325 91.0701 8.71325Z" fill="#F2F1F0"/>
<path fill-rule="evenodd" clip-rule="evenodd" d="M98.3201 12.293C95.8701 10.793 93.1501 10.043 90.4201 10.043C87.6901 10.043 84.9701 10.803 82.5201 12.293L26.3901 46.623C21.3701 49.693 18.2601 55.443 18.2601 61.693V129.793C18.2601 136.023 21.3601 141.793 26.3901 144.863L82.5201 179.193C84.9701 180.693 87.6901 181.443 90.4201 181.443C93.1501 181.443 95.8701 180.703 98.3201 179.193L154.45 144.863C159.47 141.793 162.58 136.023 162.58 129.793V61.693C162.58 55.463 159.48 49.713 154.45 46.623L98.3201 12.293Z" fill="url(#paint0_linear)"/>
<path fill-rule="evenodd" clip-rule="evenodd" d="M90.4201 11.5132C92.1001 11.5132 93.9901 12.3832 96.0501 13.6332L154.52 49.1732C158.17 51.3932 160.58 55.6632 160.58 60.4932V130.973C160.58 135.793 158.17 140.073 154.52 142.293L96.0601 177.833C94.1001 179.023 92.1801 179.773 90.4301 179.773C88.6801 179.773 86.7601 179.023 84.8001 177.833L26.3201 142.303C24.3101 141.073 22.8601 139.873 21.8801 138.263C20.9001 136.663 20.2601 134.443 20.2601 130.983V60.5032C20.2601 55.6732 22.6701 51.4032 26.3201 49.1832L84.7801 13.6432C86.8701 12.3932 88.7301 11.5132 90.4201 11.5132ZM98.1301 181.263L156.59 145.723C161.51 142.733 164.57 137.113 164.57 130.983V60.5032C164.57 54.3732 161.51 48.7532 156.59 45.7632L98.1301 10.2232C96.0201 8.94318 93.3101 7.51318 90.4201 7.51318C87.5201 7.51318 84.8101 8.95318 82.7201 10.2132H82.7101L24.2401 45.7632C19.3201 48.7532 16.2601 54.3732 16.2601 60.5032V130.983C16.2601 134.943 17.0001 137.933 18.4601 140.343C19.9201 142.743 21.9801 144.343 24.2401 145.713L82.7001 181.253C84.9201 182.603 87.5901 183.783 90.4101 183.783C93.2301 183.783 95.9101 182.613 98.1301 181.263Z" fill="url(#paint1_linear)"/>
<path opacity="0.2" d="M146.09 57.0532H125.09C123.81 57.0532 122.76 58.0832 122.76 59.3832V72.2432C122.76 73.5232 123.79 74.5732 125.09 74.5732H146.11C147.39 74.5932 148.44 73.5432 148.44 72.2632V59.4032C148.43 58.1032 147.39 57.0532 146.09 57.0532Z" fill="#1F1D21"/>
<path opacity="0.2" d="M146.09 99.8633H125.09C123.81 99.8633 122.76 100.893 122.76 102.193V115.053C122.76 116.333 123.79 117.383 125.09 117.383H146.11C147.39 117.383 148.44 116.353 148.44 115.053V102.213C148.43 100.913 147.39 99.8633 146.09 99.8633Z" fill="#1F1D21"/>
<path opacity="0.2" d="M146.09 78.4229H125.09C123.81 78.4229 122.76 79.4528 122.76 80.7528V93.6128C122.76 94.8928 123.79 95.9428 125.09 95.9428H146.11C147.39 95.9628 148.44 94.9128 148.44 93.6128V80.7528C148.43 79.4728 147.39 78.4229 146.09 78.4229Z" fill="#1F1D21"/>
<path opacity="0.2" d="M146.09 121.233H125.09C123.81 121.233 122.76 122.263 122.76 123.563V136.423C122.76 137.703 123.79 138.753 125.09 138.753H146.11C147.39 138.753 148.44 137.723 148.44 136.423V123.563C148.43 122.283 147.39 121.233 146.09 121.233Z" fill="#1F1D21"/>
<path d="M134.51 127.673H105.44V128.473H134.51V127.673Z" fill="white"/>
<path d="M134.51 106.553H105.44V107.353H134.51V106.553Z" fill="white"/>
<path d="M134.51 85.4331H105.44V86.2331H134.51V85.4331Z" fill="white"/>
<path d="M134.51 64.3032H105.44V65.1032H134.51V64.3032Z" fill="white"/>
<path d="M146.02 55.3931H125.02C123.74 55.3931 122.69 56.4231 122.69 57.7231V70.5831C122.69 71.8631 123.72 72.9131 125.02 72.9131H146.04C147.32 72.9331 148.37 71.8831 148.37 70.6031V57.7231C148.33 56.4231 147.3 55.3931 146.02 55.3931Z" fill="url(#paint2_linear)"/>
<path d="M146.02 98.2031H125.02C123.74 98.2031 122.69 99.2331 122.69 100.533V113.393C122.69 114.673 123.72 115.723 125.02 115.723H146.04C147.32 115.723 148.37 114.693 148.37 113.393V100.533C148.33 99.2331 147.3 98.2031 146.02 98.2031Z" fill="url(#paint3_linear)"/>
<path d="M146.02 76.7632H125.02C123.74 76.7632 122.69 77.7932 122.69 79.0932V91.9532C122.69 93.2332 123.72 94.2832 125.02 94.2832H146.04C147.32 94.3032 148.37 93.2532 148.37 91.9532V79.0932C148.33 77.7932 147.3 76.7632 146.02 76.7632Z" fill="url(#paint4_linear)"/>
<path d="M146.02 119.573H125.02C123.74 119.573 122.69 120.603 122.69 121.903V134.763C122.69 136.043 123.72 137.093 125.02 137.093H146.04C147.32 137.093 148.37 136.063 148.37 134.763V121.903C148.33 120.623 147.3 119.573 146.02 119.573Z" fill="url(#paint5_linear)"/>
<path d="M140.44 129.943H138.11C137.79 129.943 137.54 130.213 137.54 130.513C137.54 130.833 137.81 131.083 138.11 131.083H140.44C140.76 131.083 141.01 130.833 141.01 130.513C141.01 130.213 140.76 129.943 140.44 129.943Z" fill="white"/>
<path d="M140.44 125.303H132.85C132.53 125.303 132.28 125.573 132.28 125.873C132.28 126.193 132.55 126.443 132.85 126.443H140.44C140.76 126.443 141.01 126.173 141.01 125.873C141.01 125.573 140.76 125.303 140.44 125.303Z" fill="white"/>
<path d="M140.44 127.653H135.01C134.69 127.653 135.18 127.923 135.18 128.223C135.18 128.543 134.68 128.763 135.01 128.763H140.44C140.76 128.763 141.01 128.553 141.01 128.223C141.01 127.923 140.76 127.653 140.44 127.653Z" fill="white"/>
<path d="M140.44 122.973H130.54C130.22 122.973 129.97 123.243 129.97 123.543V123.563C129.97 123.883 130.24 124.133 130.54 124.133H140.44C140.76 124.133 141.01 123.863 141.01 123.543C141.01 123.223 140.76 122.973 140.44 122.973Z" fill="white"/>
<path d="M130.54 124.123H131.72C132.04 124.123 132.29 123.853 132.29 123.553C132.29 123.243 132.02 122.983 131.72 122.983H130.54C130.22 122.983 129.97 123.253 129.97 123.553C129.96 123.853 130.21 124.123 130.54 124.123Z" fill="#50E6FF"/>
<path d="M130.54 126.473H132.87C133.19 126.473 133.44 126.203 133.44 125.903C133.44 125.583 133.17 125.333 132.87 125.333H130.54C130.22 125.333 129.97 125.603 129.97 125.903C129.96 126.203 130.21 126.473 130.54 126.473Z" fill="#45CAF2"/>
<path d="M130.54 131.113H138.15C138.47 131.113 138.72 130.843 138.72 130.543C138.72 130.223 138.45 129.973 138.15 129.973H130.56C130.24 129.973 129.99 130.243 129.99 130.543C129.96 130.843 130.21 131.113 130.54 131.113Z" fill="#0078D1"/>
<path d="M130.54 128.763H135.22C135.54 128.763 135.79 128.493 135.79 128.193C135.79 127.873 135.52 127.623 135.22 127.623H130.54C130.22 127.623 129.97 127.893 129.97 128.193C129.96 128.493 130.21 128.763 130.54 128.763Z" fill="#32B0E7"/>
<path d="M130.54 133.463H140.44C140.76 133.463 141.01 133.193 141.01 132.873V132.853C141.01 132.533 140.74 132.283 140.44 132.283H130.54C130.22 132.283 129.97 132.553 129.97 132.853C129.96 133.193 130.21 133.463 130.54 133.463Z" fill="#185A97"/>
<path opacity="0.15" d="M135.49 107.793L141.22 111.133L135.47 114.473L129.74 111.133L135.49 107.793Z" fill="#1F1D20"/>
<path d="M135.47 107.033V113.703L129.74 110.343V103.693L135.47 107.033Z" fill="#ACF3FD"/>
<path d="M135.49 100.343L141.22 103.683L135.47 107.023L129.74 103.683L135.49 100.343Z" fill="white"/>
<path d="M141.22 103.683V110.333L135.47 113.693V107.023L141.22 103.683Z" fill="#45CAF2"/>
<path d="M135.47 113.683V107.013L141.22 110.323L135.47 113.683Z" fill="#50E6FF"/>
<path d="M135.47 113.683V107.013L129.74 110.323L135.47 113.683Z" fill="#84ECFD"/>
<g opacity="0.4">
<path opacity="0.4" d="M141.62 88.9929C141.35 88.8429 140.99 88.8429 140.66 88.9129L136.3 86.5029C136.38 86.3529 136.3 86.1629 136.09 86.0429C135.77 85.8529 135.23 85.8529 134.94 86.0429C134.67 86.1929 134.62 86.4429 134.83 86.6329L130.4 88.9629C130.08 88.8129 129.6 88.8129 129.31 88.9829C128.99 89.1729 128.99 89.4629 129.31 89.6529C129.52 89.7829 129.81 89.8029 130.07 89.7829L134.77 92.3629C134.62 92.5529 134.64 92.7629 134.9 92.9129C135.22 93.1029 135.76 93.1029 136.05 92.9129C136.32 92.7629 136.37 92.5129 136.16 92.3229L140.59 89.7029C140.91 89.8329 141.34 89.8129 141.62 89.6429C141.97 89.4729 141.97 89.1629 141.62 88.9929Z" fill="#1F1D21"/>
</g>
<g opacity="0.25">
<path opacity="0.25" d="M130.17 82.433L135.48 79.313L140.79 82.373L135.48 85.493L130.17 82.433Z" fill="#1E9FE0"/>
</g>
<g opacity="0.25">
<path opacity="0.25" d="M130.12 88.5931L135.49 85.4731L140.75 88.5331L135.44 91.6531L130.12 88.5931Z" fill="#1E9FE0"/>
</g>
<g opacity="0.05">
<path opacity="0.05" d="M135.49 85.493L135.43 91.643L140.74 88.523L140.8 82.373L135.49 85.493Z" fill="#1E9FE0"/>
</g>
<g opacity="0.05">
<path opacity="0.05" d="M130.17 82.433L130.11 88.583L135.48 85.463V79.313L130.17 82.433Z" fill="#1E9FE0"/>
</g>
<path d="M135.52 85.513C135.52 85.513 135.51 85.513 135.52 85.513L130.19 82.453C130.17 82.453 130.17 82.433 130.17 82.433C130.17 82.413 130.17 82.413 130.19 82.413L135.5 79.293C135.52 79.293 135.52 79.293 135.54 79.293L140.85 82.353C140.87 82.353 140.87 82.373 140.87 82.373C140.87 82.393 140.87 82.393 140.85 82.393L135.52 85.513C135.52 85.513 135.54 85.513 135.52 85.513ZM130.29 82.433L135.53 85.453L140.77 82.373L135.53 79.353L130.29 82.433Z" fill="#50E6FF"/>
<path d="M135.47 91.6629L130.14 88.6029C130.12 88.6029 130.12 88.5829 130.12 88.5829C130.12 88.5629 130.12 88.5629 130.14 88.5629L135.51 85.4429C135.53 85.4429 135.53 85.4429 135.55 85.4429L140.81 88.5029C140.83 88.5029 140.83 88.5229 140.83 88.5229C140.83 88.5229 140.83 88.5429 140.81 88.5429L135.47 91.6629C135.49 91.6629 135.49 91.6629 135.47 91.6629ZM130.23 88.5929L135.47 91.6129L140.71 88.5329L135.51 85.5129L130.23 88.5929Z" fill="#50E6FF"/>
<path d="M135.47 91.663C135.47 91.663 135.45 91.663 135.47 91.663C135.45 91.643 135.43 91.643 135.43 91.623L135.49 85.473C135.49 85.453 135.49 85.453 135.51 85.453L140.82 82.333C140.84 82.333 140.84 82.333 140.86 82.333C140.88 82.333 140.88 82.353 140.88 82.373L140.82 88.523C140.82 88.543 140.82 88.543 140.8 88.543L135.47 91.663C135.47 91.663 135.49 91.663 135.47 91.663ZM135.56 85.513L135.5 91.593L140.74 88.533L140.8 82.453L135.56 85.513Z" fill="white"/>
<path d="M130.16 88.623C130.14 88.603 130.12 88.603 130.12 88.583L130.18 82.433C130.18 82.413 130.18 82.413 130.2 82.413L135.51 79.293C135.53 79.293 135.53 79.293 135.55 79.293C135.57 79.293 135.57 79.313 135.57 79.313V85.463C135.57 85.483 135.57 85.483 135.55 85.483L130.16 88.623C130.17 88.623 130.17 88.623 130.16 88.623ZM130.25 82.453L130.19 88.533L135.48 85.453V79.373L130.25 82.453Z" fill="white"/>
<path d="M135.52 85.513C135.52 85.513 135.51 85.513 135.52 85.513L130.19 82.453C130.17 82.453 130.17 82.433 130.17 82.433C130.17 82.413 130.17 82.413 130.19 82.413L135.5 79.293C135.52 79.293 135.52 79.293 135.54 79.293L140.85 82.353C140.87 82.353 140.87 82.373 140.87 82.373C140.87 82.393 140.87 82.393 140.85 82.393L135.52 85.513C135.52 85.513 135.54 85.513 135.52 85.513ZM130.29 82.433L135.53 85.453L140.77 82.373L135.53 79.353L130.29 82.433Z" fill="white"/>
<path d="M135.47 91.6629L130.14 88.6029C130.12 88.6029 130.12 88.5829 130.12 88.5829C130.12 88.5629 130.12 88.5629 130.14 88.5629L135.51 85.4429C135.53 85.4429 135.53 85.4429 135.55 85.4429L140.81 88.5029C140.83 88.5029 140.83 88.5229 140.83 88.5229C140.83 88.5229 140.83 88.5429 140.81 88.5429L135.47 91.6629C135.49 91.6629 135.49 91.6629 135.47 91.6629ZM130.23 88.5929L135.47 91.6129L140.71 88.5329L135.51 85.5129L130.23 88.5929Z" fill="white"/>
<path d="M140.74 82.9731C140.47 82.9731 140.24 82.7431 140.24 82.4731C140.24 82.2031 140.47 81.9731 140.74 81.9731C141.01 81.9731 141.22 82.2031 141.22 82.4731C141.22 82.7231 141.01 82.9731 140.74 82.9731Z" fill="#50E6FF"/>
<path d="M140.72 82.2431C140.83 82.2431 140.93 82.3431 140.93 82.4531C140.93 82.5631 140.83 82.6831 140.72 82.6831C140.61 82.6831 140.51 82.5831 140.51 82.4731C140.51 82.3431 140.61 82.2431 140.72 82.2431ZM140.72 81.9331C140.45 81.9331 140.2 82.1631 140.2 82.4531C140.2 82.7231 140.43 82.9731 140.72 82.9731C141.01 82.9731 141.24 82.7431 141.24 82.4531C141.24 82.1831 141.01 81.9331 140.72 81.9331Z" fill="white"/>
<path d="M135.52 86.0132C135.25 86.0132 135.02 85.7832 135.02 85.5132C135.02 85.2432 135.25 85.0132 135.52 85.0132C135.79 85.0132 136 85.2432 136 85.5132C136 85.7632 135.79 86.0132 135.52 86.0132Z" fill="#50E6FF"/>
<path d="M135.52 85.2832C135.63 85.2832 135.73 85.3832 135.73 85.4932C135.73 85.6032 135.63 85.7032 135.52 85.7032C135.41 85.7032 135.31 85.6032 135.31 85.4932C135.3 85.3732 135.39 85.2832 135.52 85.2832ZM135.52 84.9932C135.25 84.9932 135 85.2232 135 85.5132C135 85.7832 135.23 86.0332 135.52 86.0332C135.79 86.0332 136.04 85.8032 136.04 85.5132C136.02 85.2232 135.79 84.9932 135.52 84.9932Z" fill="white"/>
<path d="M135.52 79.853C135.25 79.853 135.02 79.623 135.02 79.353C135.02 79.083 135.25 78.853 135.52 78.853C135.79 78.853 136 79.083 136 79.353C136 79.623 135.79 79.853 135.52 79.853Z" fill="#50E6FF"/>
<path d="M135.52 79.1433C135.63 79.1433 135.73 79.2433 135.73 79.3533C135.73 79.4633 135.63 79.5633 135.52 79.5633C135.41 79.5633 135.31 79.4633 135.31 79.3533C135.3 79.2433 135.39 79.1433 135.52 79.1433ZM135.52 78.8633C135.25 78.8633 135 79.0933 135 79.3833C135 79.6733 135.23 79.9033 135.52 79.9033C135.79 79.9033 136.04 79.6733 136.04 79.3833C136.04 79.0933 135.79 78.8633 135.52 78.8633Z" fill="white"/>
<path d="M130.17 82.9731C129.9 82.9731 129.67 82.7431 129.67 82.4731C129.67 82.2031 129.9 81.9731 130.17 81.9731C130.44 81.9731 130.65 82.2031 130.65 82.4731C130.65 82.7231 130.44 82.9731 130.17 82.9731Z" fill="#50E6FF"/>
<path d="M130.16 82.2431C130.27 82.2431 130.37 82.3431 130.37 82.4531C130.37 82.5631 130.27 82.6831 130.16 82.6831C130.05 82.6831 129.95 82.5831 129.95 82.4731C129.95 82.3431 130.04 82.2431 130.16 82.2431ZM130.16 81.9331C129.89 81.9331 129.64 82.1631 129.64 82.4531C129.64 82.7231 129.87 82.9731 130.16 82.9731C130.43 82.9731 130.68 82.7431 130.68 82.4531C130.67 82.1831 130.44 81.9331 130.16 81.9331Z" fill="white"/>
<path d="M130.17 89.083C129.9 89.083 129.67 88.853 129.67 88.583C129.67 88.313 129.9 88.083 130.17 88.083C130.44 88.083 130.65 88.313 130.65 88.583C130.65 88.853 130.44 89.083 130.17 89.083Z" fill="#50E6FF"/>
<path d="M130.16 88.3832C130.27 88.3832 130.37 88.4832 130.37 88.5932C130.37 88.7032 130.27 88.8032 130.16 88.8032C130.05 88.8032 129.95 88.7032 129.95 88.5932C129.95 88.4832 130.04 88.3832 130.16 88.3832ZM130.16 88.0732C129.89 88.0732 129.64 88.3032 129.64 88.5932C129.64 88.8632 129.87 89.1132 130.16 89.1132C130.43 89.1132 130.68 88.8832 130.68 88.5932C130.67 88.3232 130.44 88.0732 130.16 88.0732Z" fill="white"/>
<path d="M135.52 92.1431C135.25 92.1431 135.02 91.9131 135.02 91.6431C135.02 91.3731 135.25 91.1431 135.52 91.1431C135.79 91.1431 136 91.3731 136 91.6431C136 91.8931 135.79 92.1431 135.52 92.1431Z" fill="#50E6FF"/>
<path d="M135.52 91.4133C135.63 91.4133 135.73 91.5133 135.73 91.6233C135.73 91.7333 135.63 91.8333 135.52 91.8333C135.41 91.8333 135.31 91.7333 135.31 91.6233C135.3 91.5133 135.39 91.4133 135.52 91.4133ZM135.52 91.1133C135.25 91.1133 135 91.3433 135 91.6333C135 91.9033 135.23 92.1533 135.52 92.1533C135.79 92.1533 136.04 91.9233 136.04 91.6333C136.02 91.3633 135.79 91.1133 135.52 91.1133Z" fill="white"/>
<path d="M140.74 89.083C140.47 89.083 140.24 88.853 140.24 88.583C140.24 88.313 140.47 88.083 140.74 88.083C141.01 88.083 141.22 88.313 141.22 88.583C141.22 88.853 141.01 89.083 140.74 89.083Z" fill="#50E6FF"/>
<path d="M140.72 88.3832C140.83 88.3832 140.93 88.4832 140.93 88.5932C140.93 88.7032 140.83 88.8032 140.72 88.8032C140.61 88.8032 140.51 88.7032 140.51 88.5932C140.51 88.4832 140.61 88.3832 140.72 88.3832ZM140.72 88.0732C140.45 88.0732 140.2 88.3032 140.2 88.5932C140.2 88.8632 140.43 89.1132 140.72 89.1132C141.01 89.1132 141.24 88.8832 141.24 88.5932C141.24 88.3232 141.01 88.0732 140.72 88.0732Z" fill="white"/>
<g opacity="0.2">
<path opacity="0.2" d="M136.31 59.8429C138.3 60.2029 139.95 61.7529 140.33 63.8629C140.7 65.8829 139.79 67.8329 138.19 68.9029C137.99 69.0329 137.98 69.3229 138.17 69.4729L138.39 69.6529C138.66 69.8629 139.04 69.8629 139.31 69.6529C141.05 68.2629 142 65.9929 141.57 63.6429C141.09 60.9929 139.01 59.0429 136.5 58.6029L136.63 57.7729C136.66 57.6029 136.49 57.4629 136.33 57.5229L133.69 58.5229C133.52 58.5829 133.49 58.8129 133.63 58.9229L135.84 60.7129C135.97 60.8229 136.18 60.7429 136.2 60.5729L136.31 59.8429Z" fill="#1F1D21"/>
<path opacity="0.2" d="M134.85 71.9231L137.53 70.8931C137.7 70.8331 137.73 70.6031 137.59 70.4931L135.36 68.7231C135.22 68.6131 135.02 68.6931 135 68.8631L134.86 69.7131C132.72 69.4731 130.91 67.8631 130.51 65.6431C130.11 63.4131 131.25 61.2731 133.17 60.3031C133.4 60.1831 133.44 59.8731 133.23 59.7131L132.96 59.5031C132.71 59.3031 132.37 59.2931 132.11 59.4631C130.01 60.7831 128.8 63.2831 129.27 65.8831C129.77 68.6431 132.01 70.6531 134.66 70.9731L134.55 71.6831C134.52 71.8431 134.69 71.9831 134.85 71.9231Z" fill="#1F1D21"/>
</g>
<path d="M136.31 59.3131C138.3 59.6731 139.95 61.2231 140.33 63.3331C140.7 65.3531 139.79 67.3031 138.19 68.3731C137.99 68.5031 137.98 68.7931 138.17 68.9431L138.39 69.1231C138.66 69.3331 139.04 69.3331 139.31 69.1231C141.05 67.7331 142 65.4631 141.57 63.1131C141.09 60.4631 139.01 58.5131 136.5 58.0731L136.63 57.2431C136.66 57.0731 136.49 56.9331 136.33 56.9931L133.69 57.9931C133.52 58.0531 133.49 58.2831 133.63 58.3931L135.84 60.1831C135.97 60.2931 136.18 60.2131 136.2 60.0431L136.31 59.3131Z" fill="white"/>
<path d="M134.85 71.3831L137.53 70.3531C137.7 70.2931 137.73 70.0631 137.59 69.9531L135.36 68.1831C135.22 68.0731 135.02 68.1531 135 68.3231L134.86 69.1731C132.72 68.9331 130.91 67.3231 130.51 65.1031C130.11 62.8731 131.25 60.7331 133.17 59.7631C133.4 59.6431 133.44 59.3331 133.23 59.1731L132.96 58.9631C132.71 58.7631 132.37 58.7531 132.11 58.9231C130.01 60.2431 128.8 62.7431 129.27 65.3431C129.77 68.1031 132.01 70.1131 134.66 70.4331L134.55 71.1431C134.52 71.3131 134.69 71.4431 134.85 71.3831Z" fill="white"/>
<path opacity="0.2" d="M58.7101 141.143H110.62C112.94 141.143 114.83 139.263 114.83 136.933V60.7334H32.4001V136.943C32.4001 139.263 34.2801 141.153 36.6101 141.153H45.5901H58.7101V141.143Z" fill="#1F1D21"/>
<path d="M58.7101 137.123H111.98C113.56 137.123 114.84 135.843 114.84 134.263V59.5631C114.82 57.9831 113.54 56.7031 111.98 56.7031H35.2601C33.6801 56.7031 32.4001 57.9831 32.4001 59.5631V134.263C32.4001 135.843 33.6801 137.123 35.2601 137.123H45.5801H58.7101Z" fill="#F2F1F0"/>
<path d="M114.83 58.1432C114.83 56.5632 113.55 55.2832 111.97 55.2832H35.2702C33.6902 55.2832 32.4102 56.5632 32.4102 58.1432V60.8532H114.84V58.1432H114.83Z" fill="url(#paint6_linear)"/>
<path opacity="0.2" d="M102.72 98.2333L94.2901 88.7333L94.2601 88.7633L84.6101 77.8933V77.6533H50.2901C48.2501 77.6533 47.1701 80.0733 48.5401 81.5933L64.7901 99.6933L48.4101 117.993C47.1901 119.363 48.1501 121.523 49.9901 121.523H65.0601H83.7201C84.1201 121.523 84.5001 121.353 84.7701 121.063L102.69 101.533C103.55 100.593 103.56 99.1733 102.72 98.2333Z" fill="#1F1D21"/>
<path d="M84.6101 88.6033L67.0301 98.8733L48.5401 78.2833C47.1701 76.7633 48.2501 74.3433 50.2901 74.3433H84.6101V88.6033Z" fill="url(#paint7_linear)"/>
<path d="M94.3701 85.5731L84.4601 74.4131L48.4101 114.683C47.1901 116.053 48.1501 118.213 49.9901 118.213H65.0601L94.3701 85.5731Z" fill="url(#paint8_linear)"/>
<path d="M102.72 94.9331L94.29 85.4331L64.54 118.213H83.72C84.12 118.213 84.5 118.043 84.77 117.753L102.69 98.2231C103.55 97.2931 103.56 95.8731 102.72 94.9331Z" fill="url(#paint9_linear)"/>
<defs>
<linearGradient id="paint0_linear" x1="4.67343" y1="13.2043" x2="217.083" y2="217.677" gradientUnits="userSpaceOnUse">
<stop stop-color="#97C3F9"/>
<stop offset="0.4975" stop-color="#388CF4"/>
<stop offset="1" stop-color="#2C7CEF"/>
</linearGradient>
<linearGradient id="paint1_linear" x1="28.0773" y1="11.7907" x2="148.644" y2="174.688" gradientUnits="userSpaceOnUse">
<stop offset="0.0829" stop-color="#1152D4"/>
<stop offset="0.4296" stop-color="#0D40B5"/>
<stop offset="0.706" stop-color="#0D3FB1"/>
<stop offset="1" stop-color="#092D7F"/>
</linearGradient>
<linearGradient id="paint2_linear" x1="124.217" y1="50.829" x2="179.164" y2="115.649" gradientUnits="userSpaceOnUse">
<stop offset="0.4598" stop-color="#1152D4"/>
<stop offset="0.6156" stop-color="#0D3FB3"/>
</linearGradient>
<linearGradient id="paint3_linear" x1="103.101" y1="68.7289" x2="158.047" y2="133.549" gradientUnits="userSpaceOnUse">
<stop offset="0.4598" stop-color="#1152D4"/>
<stop offset="0.6156" stop-color="#0D3FB3"/>
</linearGradient>
<linearGradient id="paint4_linear" x1="113.678" y1="59.7633" x2="168.624" y2="124.583" gradientUnits="userSpaceOnUse">
<stop offset="0.4598" stop-color="#1152D4"/>
<stop offset="0.6156" stop-color="#0D3FB3"/>
</linearGradient>
<linearGradient id="paint5_linear" x1="92.5595" y1="77.6648" x2="147.506" y2="142.485" gradientUnits="userSpaceOnUse">
<stop offset="0.4598" stop-color="#1152D4"/>
<stop offset="0.6156" stop-color="#0D3FB3"/>
</linearGradient>
<linearGradient id="paint6_linear" x1="52.9066" y1="46.2644" x2="141.496" y2="99.4184" gradientUnits="userSpaceOnUse">
<stop offset="0.4598" stop-color="#1152D4"/>
<stop offset="0.6156" stop-color="#0D3FB3"/>
</linearGradient>
<linearGradient id="paint7_linear" x1="50.2325" y1="62.5377" x2="90.2343" y2="100.174" gradientUnits="userSpaceOnUse">
<stop offset="0.4598" stop-color="#1152D4"/>
<stop offset="0.6156" stop-color="#0D3FB3"/>
</linearGradient>
<linearGradient id="paint8_linear" x1="47.8662" y1="96.3177" x2="94.3689" y2="96.3177" gradientUnits="userSpaceOnUse">
<stop stop-color="#388CF4"/>
<stop offset="1" stop-color="#2C7CEF"/>
</linearGradient>
<linearGradient id="paint9_linear" x1="64.5415" y1="101.823" x2="103.342" y2="101.823" gradientUnits="userSpaceOnUse">
<stop stop-color="#76C0FD"/>
<stop offset="1" stop-color="#63B2FB"/>
</linearGradient>
</defs>
</svg>
