<svg width="181" height="191" viewBox="0 0 181 191" fill="none" xmlns="http://www.w3.org/2000/svg">
<path d="M90.864 190.646C93.924 190.646 96.934 189.796 99.594 188.176L161.564 150.516C167.104 147.146 170.534 140.816 170.534 133.976V59.2661C170.534 52.4461 167.104 46.1061 161.564 42.7261L99.594 5.06606C94.264 1.82606 87.444 1.84606 82.144 5.06606L20.174 42.7461C14.634 46.1161 11.184 52.4461 11.184 59.2861V133.986C11.184 139.746 13.634 145.166 17.734 148.736V148.766L82.144 188.196C84.784 189.796 87.804 190.646 90.864 190.646ZM91.514 9.59606C93.464 9.59606 95.944 10.8061 97.654 11.8561L158.414 49.0461C162.164 51.3261 164.284 57.9261 164.284 62.6761L163.654 133.976C163.654 138.726 160.454 142.996 156.704 145.276L96.304 181.656C92.874 183.746 90.084 183.746 86.644 181.656L25.434 145.186C21.684 142.906 18.664 138.706 18.664 133.976V60.3361C18.664 55.5961 21.394 50.7061 25.164 48.4161L85.744 11.8561C87.444 10.8161 89.564 9.59606 91.514 9.59606Z" fill="#F2F1F0"/>
<path fill-rule="evenodd" clip-rule="evenodd" d="M98.764 13.176C96.314 11.676 93.594 10.926 90.864 10.926C88.134 10.926 85.414 11.686 82.964 13.176L26.834 47.506C21.814 50.576 18.704 56.326 18.704 62.576V130.676C18.704 136.906 21.804 142.676 26.834 145.746L82.964 180.076C85.414 181.576 88.134 182.326 90.864 182.326C93.594 182.326 96.314 181.586 98.764 180.076L154.894 145.746C159.914 142.676 163.024 136.906 163.024 130.676V62.576C163.024 56.346 159.924 50.596 154.894 47.506L98.764 13.176Z" fill="url(#paint0_linear)"/>
<path fill-rule="evenodd" clip-rule="evenodd" d="M90.864 12.3962C92.544 12.3962 94.434 13.2662 96.494 14.5162L154.964 50.0562C158.614 52.2762 161.024 56.5462 161.024 61.3762V131.856C161.024 136.676 158.614 140.956 154.964 143.176L96.504 178.716C94.544 179.906 92.624 180.656 90.874 180.656C89.124 180.656 87.204 179.906 85.244 178.716L26.764 143.186C24.754 141.956 23.304 140.756 22.324 139.146C21.344 137.546 20.704 135.326 20.704 131.866V61.3862C20.704 56.5562 23.114 52.2862 26.764 50.0662L85.224 14.5262C87.314 13.2762 89.174 12.3962 90.864 12.3962ZM98.574 182.146L157.034 146.606C161.954 143.616 165.014 137.996 165.014 131.866V61.3862C165.014 55.2562 161.954 49.6362 157.034 46.6462L98.574 11.1062C96.464 9.82624 93.754 8.39624 90.864 8.39624C87.964 8.39624 85.254 9.83624 83.164 11.0962H83.154L24.684 46.6462C19.764 49.6362 16.704 55.2562 16.704 61.3862V131.866C16.704 135.826 17.444 138.816 18.904 141.226C20.364 143.626 22.424 145.226 24.684 146.596L83.144 182.136C85.364 183.486 88.034 184.666 90.854 184.666C93.674 184.666 96.354 183.496 98.574 182.146Z" fill="url(#paint1_linear)"/>
<path opacity="0.2" d="M78.3539 131.766H120.394C122.274 131.766 123.804 130.236 123.804 128.356V42.636H57.0439V128.356C57.0439 130.236 58.5739 131.766 60.4539 131.766H67.7339H78.3539Z" fill="#1F1D21"/>
<path d="M78.3539 128.506H121.494C122.774 128.506 123.814 127.466 123.814 126.186V41.686C123.804 40.406 122.764 39.366 121.494 39.366H59.3639C58.0839 39.366 57.0439 40.406 57.0439 41.686V126.186C57.0439 127.466 58.0839 128.506 59.3639 128.506H67.7239H78.3539Z" fill="#F2F1F0"/>
<path d="M123.804 40.5361C123.804 39.2561 122.764 38.2161 121.484 38.2161H59.3639C58.0839 38.2161 57.0439 39.2561 57.0439 40.5361V42.7361H123.804V40.5361Z" fill="url(#paint2_linear)"/>
<path opacity="0.15" d="M84.8341 140.266L57.3241 156.226L29.6841 140.396L57.1941 124.436L84.8341 140.266Z" fill="#1F1D20"/>
<path d="M31.1041 106.276L57.3241 91.0959L83.2841 106.016L57.0641 121.196L31.1041 106.276Z" fill="url(#paint3_linear)"/>
<path d="M57.0641 121.196L56.8041 151.286L83.0241 136.106L83.2841 106.016L57.0641 121.196Z" fill="url(#paint4_linear)"/>
<path d="M31.1041 106.206V136.296L56.8041 151.216L57.0641 121.126L31.1041 106.206Z" fill="url(#paint5_linear)"/>
<path d="M57.3241 91.1159L83.2841 106.036L83.0241 136.126L56.8041 151.166L31.1041 136.376V106.286L57.3241 91.1159ZM57.3241 89.8159C57.0641 89.8159 56.9341 89.8159 56.6741 89.9359L30.4641 105.116C30.0741 105.376 29.8141 105.766 29.8141 106.286V136.376C29.8141 136.896 30.0741 137.286 30.4641 137.546L56.1641 152.466C56.4241 152.586 56.5541 152.586 56.8141 152.586C57.0741 152.586 57.2041 152.586 57.4641 152.466L83.6841 137.286C84.0741 137.026 84.3341 136.636 84.3341 136.116L84.5941 106.026C84.5941 105.506 84.3341 105.116 83.9441 104.856L57.9741 89.9359C57.8341 89.8159 57.5841 89.8159 57.3241 89.8159Z" fill="white"/>
<path opacity="0.15" d="M151.594 140.186L124.084 155.056L96.4441 139.106L123.954 123.146L151.594 140.186Z" fill="#1F1D20"/>
<g opacity="0.6">
<path opacity="0.6" d="M97.4841 104.866L124.604 89.8159L151.464 104.866L124.344 120.296L97.4841 104.866Z" fill="#50E6FF"/>
</g>
<path d="M124.344 120.856C124.244 120.856 124.154 120.836 124.064 120.776L97.2041 105.336C97.0241 105.236 96.9241 105.046 96.9241 104.836C96.9241 104.636 97.0341 104.436 97.2141 104.346L124.334 89.306C124.504 89.216 124.724 89.216 124.894 89.306L151.754 104.346C151.934 104.446 152.044 104.626 152.044 104.836C152.044 105.036 151.934 105.236 151.764 105.336L124.624 120.786C124.544 120.836 124.434 120.856 124.344 120.856ZM98.6441 104.866L124.354 119.636L150.324 104.856L124.614 90.466L98.6441 104.866Z" fill="url(#paint6_linear)"/>
<g opacity="0.3">
<path opacity="0.3" d="M124.344 120.286L124.084 150.516L151.204 135.466L151.464 104.986L124.344 120.286Z" fill="#50E6FF"/>
</g>
<path d="M124.084 151.076C123.984 151.076 123.884 151.056 123.794 150.996C123.624 150.896 123.514 150.696 123.524 150.506L123.784 120.286C123.784 120.086 123.894 119.896 124.064 119.796L151.184 104.496C151.364 104.396 151.584 104.406 151.754 104.496C151.924 104.596 152.034 104.786 152.034 104.986L151.774 135.466C151.774 135.666 151.664 135.866 151.484 135.956L124.364 151.006C124.274 151.056 124.174 151.076 124.084 151.076ZM124.914 120.626L124.664 149.536L150.644 135.116L150.894 105.936L124.914 120.626Z" fill="url(#paint7_linear)"/>
<g opacity="0.5">
<path opacity="0.5" d="M97.4841 104.866V135.346L124.084 150.386L124.344 120.296L97.4841 104.866Z" fill="#50E6FF"/>
</g>
<path d="M124.054 151.076C123.964 151.076 123.864 151.056 123.774 151.006L97.2041 135.826C97.0241 135.726 96.9241 135.546 96.9241 135.326V104.856C96.9241 104.656 97.0341 104.466 97.2041 104.366C97.3741 104.266 97.5941 104.266 97.7741 104.366L124.634 119.806C124.814 119.906 124.914 120.096 124.914 120.306L124.654 150.396C124.654 150.596 124.514 150.906 124.344 151.006C124.244 151.046 124.154 151.076 124.054 151.076ZM98.0541 135.006L123.534 149.426L123.784 120.626L98.0541 105.846V135.006Z" fill="url(#paint8_linear)"/>
<path d="M144.014 131.746L124.504 143.076C124.354 143.166 124.164 143.166 124.014 143.076L104.374 131.746L124.134 120.276L144.014 131.746Z" fill="url(#paint9_linear)"/>
<path d="M144.014 125.296L124.254 136.796L104.374 125.306L124.134 113.836L144.014 125.296Z" fill="url(#paint10_linear)"/>
<path d="M144.014 117.266L124.084 128.296L104.384 117.266L124.144 105.776L144.014 117.266Z" fill="url(#paint11_linear)"/>
<path d="M144.014 109.586L124.254 121.056L104.374 109.586L124.134 98.0959L144.014 109.586Z" fill="url(#paint12_linear)"/>
<path d="M137.414 138.016V138.556L140.974 136.526V135.936L137.414 138.016Z" fill="white"/>
<path d="M135.144 122.756C134.604 123.046 134.204 123.786 134.204 124.386C134.204 124.976 134.644 125.226 135.144 124.926C135.684 124.636 136.084 123.896 136.084 123.296C136.084 122.706 135.694 122.466 135.144 122.756Z" fill="white"/>
<path d="M139.004 120.536C138.464 120.826 138.064 121.566 138.064 122.166C138.064 122.756 138.504 123.006 139.004 122.706C139.504 122.416 139.944 121.676 139.944 121.076C139.934 120.496 139.534 120.246 139.004 120.536Z" fill="white"/>
<path d="M135.144 127.246C134.604 127.536 134.204 128.276 134.204 128.876C134.204 129.466 134.644 129.716 135.144 129.416C135.684 129.126 136.084 128.386 136.084 127.786C136.134 127.206 135.694 126.956 135.144 127.246Z" fill="#50E6FF"/>
<path d="M139.004 125.026C138.464 125.316 138.064 126.056 138.064 126.656C138.064 127.246 138.504 127.496 139.004 127.196C139.504 126.906 139.944 126.166 139.944 125.566C139.984 124.986 139.534 124.736 139.004 125.026Z" fill="#50E6FF"/>
<path d="M135.144 131.646C134.604 131.946 134.204 132.676 134.204 133.276C134.204 133.866 134.644 134.116 135.144 133.816C135.684 133.526 136.084 132.786 136.084 132.186C136.134 131.606 135.694 131.356 135.144 131.646Z" fill="white"/>
<path d="M139.004 129.426C138.464 129.716 138.064 130.456 138.064 131.056C138.064 131.646 138.504 131.896 139.004 131.596C139.504 131.306 139.944 130.566 139.944 129.966C139.984 129.376 139.534 129.126 139.004 129.426Z" fill="white"/>
<path d="M142.904 118.316C142.364 118.606 141.964 119.346 141.964 119.946C141.964 120.536 142.404 120.786 142.904 120.486C143.404 120.196 143.844 119.456 143.844 118.856C143.844 118.266 143.384 118.026 142.904 118.316Z" fill="white"/>
<path d="M142.904 122.756C142.364 123.046 141.964 123.786 141.964 124.386C141.964 124.976 142.404 125.226 142.904 124.926C143.404 124.636 143.844 123.896 143.844 123.296C143.844 122.706 143.434 122.466 142.904 122.756Z" fill="#50E6FF"/>
<path d="M142.904 127.206C142.364 127.496 141.964 128.236 141.964 128.836C141.964 129.426 142.404 129.676 142.904 129.376C143.404 129.086 143.844 128.346 143.844 127.746C143.834 127.156 143.434 126.906 142.904 127.206Z" fill="white"/>
<path opacity="0.15" d="M118.144 159.556L90.634 175.496L63.124 159.546L90.504 143.586L118.144 159.556Z" fill="#1F1D20"/>
<path opacity="0.5" d="M63.9141 124.916L90.7741 109.616L117.634 124.656L90.7741 140.096L63.9141 124.916Z" fill="#50E6FF"/>
<path opacity="0.5" d="M90.774 140.096L90.514 170.576L117.374 155.276L117.634 124.796L90.774 140.096Z" fill="#0078D4"/>
<path opacity="0.5" d="M63.9141 124.916L63.6541 155.396L90.5141 170.576L90.7741 140.096L63.9141 124.916Z" fill="#1E9FE0"/>
<path opacity="0.75" d="M90.7741 109.616L117.634 124.656L117.374 155.136L90.5141 170.576L63.6541 155.396L63.9141 124.916L90.7741 109.616ZM90.7741 108.316C90.5141 108.316 90.3841 108.316 90.1241 108.436L63.2641 123.886C62.8741 124.146 62.6141 124.536 62.6141 125.056C62.6141 125.056 62.6141 125.056 62.6141 125.176L62.3541 155.396C62.3541 155.916 62.6141 156.306 63.0041 156.566L89.8641 171.596C90.1241 171.726 90.2541 171.726 90.5141 171.726C90.7741 171.726 90.9041 171.726 91.1641 171.596C91.1641 171.596 91.1641 171.596 91.2841 171.596L118.024 156.296C118.414 156.036 118.674 155.646 118.674 155.126L118.934 124.646C118.934 124.126 118.674 123.736 118.284 123.476L91.4241 108.436C91.1541 108.316 90.8941 108.316 90.7741 108.316Z" fill="white"/>
<path d="M110.484 150.806L90.7241 162.276L70.8341 150.806L90.5941 139.336L110.484 150.806Z" fill="#185A97"/>
<path d="M110.484 144.746L90.7241 156.236L70.8341 144.746L90.5941 133.276L110.484 144.746Z" fill="#0078D4"/>
<path d="M110.484 136.826L90.7241 148.296L70.8341 136.826L90.5941 125.336L110.484 136.826Z" fill="url(#paint13_linear)"/>
<path d="M110.484 128.646L90.7241 140.116L70.8341 128.646L90.5941 117.156L110.484 128.646Z" fill="url(#paint14_linear)"/>
<path opacity="0.2" d="M112.184 72.5459L105.854 65.4059L105.834 65.4259L98.5841 57.2559V57.0759H72.7941C71.2641 57.0759 70.4541 58.8959 71.4741 60.0359L83.6841 73.6359L71.3841 87.3859C70.4641 88.4159 71.1941 90.0359 72.5741 90.0359H83.8941H97.9141C98.2141 90.0359 98.5041 89.9059 98.7041 89.6859L112.174 75.0159C112.794 74.3159 112.814 73.2459 112.184 72.5459Z" fill="#1F1D21"/>
<path d="M98.5741 65.306L85.3641 73.026L71.4841 57.5559C70.4541 56.4159 71.2641 54.5959 72.8041 54.5959H98.5841L98.5741 65.306Z" fill="url(#paint15_linear)"/>
<path d="M105.904 63.036L98.4641 54.656L71.3841 84.906C70.4641 85.936 71.1941 87.556 72.5741 87.556H83.8941L105.904 63.036Z" fill="url(#paint16_linear)"/>
<path d="M112.184 70.066L105.854 62.926L83.4941 87.556H97.9041C98.2041 87.556 98.4941 87.426 98.6941 87.206L112.164 72.536C112.794 71.836 112.814 70.766 112.184 70.066Z" fill="url(#paint17_linear)"/>
<defs>
<linearGradient id="paint0_linear" x1="5.11728" y1="14.0877" x2="217.527" y2="218.56" gradientUnits="userSpaceOnUse">
<stop stop-color="#97C3F9"/>
<stop offset="0.4975" stop-color="#388CF4"/>
<stop offset="1" stop-color="#2C7CEF"/>
</linearGradient>
<linearGradient id="paint1_linear" x1="28.5212" y1="12.6741" x2="149.088" y2="175.572" gradientUnits="userSpaceOnUse">
<stop offset="0.0829" stop-color="#1152D4"/>
<stop offset="0.4296" stop-color="#0D40B5"/>
<stop offset="0.706" stop-color="#0D3FB1"/>
<stop offset="1" stop-color="#092D7F"/>
</linearGradient>
<linearGradient id="paint2_linear" x1="46.8977" y1="26.7348" x2="181.155" y2="70.1033" gradientUnits="userSpaceOnUse">
<stop offset="0.0829" stop-color="#1152D4"/>
<stop offset="0.4296" stop-color="#0D40B5"/>
<stop offset="0.706" stop-color="#0D3FB1"/>
<stop offset="1" stop-color="#092D7F"/>
</linearGradient>
<linearGradient id="paint3_linear" x1="31.1087" y1="106.15" x2="83.2814" y2="106.15" gradientUnits="userSpaceOnUse">
<stop stop-color="#76C0FD"/>
<stop offset="1" stop-color="#63B2FB"/>
</linearGradient>
<linearGradient id="paint4_linear" x1="57.3357" y1="118.756" x2="108.643" y2="158.725" gradientUnits="userSpaceOnUse">
<stop offset="0.4598" stop-color="#1152D4"/>
<stop offset="0.6156" stop-color="#0D3FB3"/>
</linearGradient>
<linearGradient id="paint5_linear" x1="31.1087" y1="128.714" x2="57.0646" y2="128.714" gradientUnits="userSpaceOnUse">
<stop stop-color="#388CF4"/>
<stop offset="1" stop-color="#2C7CEF"/>
</linearGradient>
<linearGradient id="paint6_linear" x1="96.9171" y1="105.051" x2="152.048" y2="105.051" gradientUnits="userSpaceOnUse">
<stop stop-color="#76C0FD"/>
<stop offset="1" stop-color="#63B2FB"/>
</linearGradient>
<linearGradient id="paint7_linear" x1="123.518" y1="127.752" x2="152.036" y2="127.752" gradientUnits="userSpaceOnUse">
<stop stop-color="#76C0FD"/>
<stop offset="1" stop-color="#63B2FB"/>
</linearGradient>
<linearGradient id="paint8_linear" x1="96.9171" y1="127.686" x2="124.913" y2="127.686" gradientUnits="userSpaceOnUse">
<stop stop-color="#76C0FD"/>
<stop offset="1" stop-color="#63B2FB"/>
</linearGradient>
<linearGradient id="paint9_linear" x1="54.838" y1="94.9485" x2="129.106" y2="134.35" gradientUnits="userSpaceOnUse">
<stop offset="0.4598" stop-color="#1152D4"/>
<stop offset="0.6156" stop-color="#0D3FB3"/>
</linearGradient>
<linearGradient id="paint10_linear" x1="112.528" y1="121.652" x2="174.891" y2="141.211" gradientUnits="userSpaceOnUse">
<stop offset="0.4598" stop-color="#1152D4"/>
<stop offset="0.6156" stop-color="#0D3FB3"/>
</linearGradient>
<linearGradient id="paint11_linear" x1="104.375" y1="117.033" x2="144.012" y2="117.033" gradientUnits="userSpaceOnUse">
<stop stop-color="#388CF4"/>
<stop offset="1" stop-color="#2C7CEF"/>
</linearGradient>
<linearGradient id="paint12_linear" x1="104.375" y1="109.579" x2="144.012" y2="109.579" gradientUnits="userSpaceOnUse">
<stop stop-color="#76C0FD"/>
<stop offset="1" stop-color="#63B2FB"/>
</linearGradient>
<linearGradient id="paint13_linear" x1="70.836" y1="136.815" x2="110.484" y2="136.815" gradientUnits="userSpaceOnUse">
<stop stop-color="#388CF4"/>
<stop offset="1" stop-color="#2C7CEF"/>
</linearGradient>
<linearGradient id="paint14_linear" x1="70.836" y1="128.632" x2="110.484" y2="128.632" gradientUnits="userSpaceOnUse">
<stop stop-color="#76C0FD"/>
<stop offset="1" stop-color="#63B2FB"/>
</linearGradient>
<linearGradient id="paint15_linear" x1="72.7496" y1="45.7275" x2="102.799" y2="74.001" gradientUnits="userSpaceOnUse">
<stop offset="0.4598" stop-color="#1152D4"/>
<stop offset="0.6156" stop-color="#0D3FB3"/>
</linearGradient>
<linearGradient id="paint16_linear" x1="70.972" y1="71.1041" x2="105.905" y2="71.1041" gradientUnits="userSpaceOnUse">
<stop stop-color="#388CF4"/>
<stop offset="1" stop-color="#2C7CEF"/>
</linearGradient>
<linearGradient id="paint17_linear" x1="83.4987" y1="75.2389" x2="112.646" y2="75.2389" gradientUnits="userSpaceOnUse">
<stop stop-color="#76C0FD"/>
<stop offset="1" stop-color="#63B2FB"/>
</linearGradient>
</defs>
</svg>
