<svg width="100" height="100" viewBox="0 0 100 100" fill="none" xmlns="http://www.w3.org/2000/svg">
<g clip-path="url(#clip0_369_399)">
<path d="M49.6401 96.45C40.382 96.45 31.3317 93.7047 23.6339 88.5611C15.936 83.4176 9.93624 76.1068 6.3933 67.5534C2.85036 59 1.92337 49.5881 3.72954 40.5078C5.53571 31.4276 9.99394 23.0868 16.5404 16.5403C23.0869 9.99384 31.4277 5.53562 40.5079 3.72945C49.5882 1.92327 59.0001 2.85027 67.5535 6.39321C76.1069 9.93614 83.4176 15.9359 88.5612 23.6338C93.7047 31.3316 96.4501 40.3819 96.4501 49.64C96.4505 55.7873 95.24 61.8745 92.8878 67.5539C90.5355 73.2334 87.0875 78.3938 82.7407 82.7406C78.3939 87.0874 73.2335 90.5354 67.554 92.8877C61.8746 95.2399 55.7874 96.4504 49.6401 96.45Z" fill="url(#paint0_linear_369_399)"/>
<path fill-rule="evenodd" clip-rule="evenodd" d="M95.54 49.64C95.54 58.7182 92.848 67.5925 87.8045 75.1407C82.7609 82.6889 75.5923 88.572 67.2052 92.0461C58.818 95.5201 49.5891 96.4291 40.6854 94.658C31.7816 92.887 23.603 88.5154 17.1838 82.0962C10.7646 75.677 6.39302 67.4984 4.62196 58.5946C2.85089 49.6909 3.75987 40.462 7.23393 32.0748C10.708 23.6877 16.5911 16.5191 24.1393 11.4755C31.6875 6.43199 40.5618 3.74 49.64 3.74C55.6677 3.73998 61.6363 4.9272 67.2052 7.23388C72.774 9.54057 77.834 12.9215 82.0963 17.1837C86.3585 21.446 89.7394 26.5059 92.0461 32.0748C94.3528 37.6437 95.54 43.6123 95.54 49.64ZM49.64 3.62732e-07C59.4579 3.62732e-07 69.0553 2.91134 77.2185 8.36585C85.3818 13.8204 91.7442 21.5731 95.5014 30.6436C99.2585 39.7141 100.242 49.6951 98.3262 59.3243C96.4108 68.9535 91.6831 77.7985 84.7408 84.7408C77.7985 91.6831 68.9535 96.4108 59.3243 98.3262C49.6951 100.242 39.7141 99.2585 30.6436 95.5014C21.5731 91.7442 13.8204 85.3818 8.36585 77.2185C2.91134 69.0553 3.62732e-07 59.4579 3.62732e-07 49.64C-0.000787738 43.121 1.28265 36.6656 3.77702 30.6427C6.27138 24.6197 9.9278 19.1471 14.5375 14.5375C19.1471 9.9278 24.6197 6.27138 30.6427 3.77702C36.6656 1.28265 43.121 -0.000787738 49.64 3.62732e-07Z" fill="#F2F1F0"/>
<path fill-rule="evenodd" clip-rule="evenodd" d="M92.7296 49.6401C92.7296 58.1625 90.2024 66.4935 85.4676 73.5796C80.7328 80.6657 74.0031 86.1887 66.1294 89.4501C58.2557 92.7114 49.5918 93.5648 41.2331 91.9021C32.8745 90.2395 25.1966 86.1356 19.1703 80.1093C13.1441 74.0831 9.04017 66.4052 7.37753 58.0465C5.7149 49.6879 6.56822 41.0239 9.8296 33.1503C13.091 25.2766 18.6139 18.5469 25.7 13.8121C32.7862 9.07727 41.1172 6.55009 49.6396 6.55009C55.2983 6.54974 60.9017 7.66407 66.1298 9.82942C71.3579 11.9948 76.1082 15.1687 80.1096 19.1701C84.1109 23.1714 87.2849 27.9218 89.4502 33.1499C91.6156 38.3779 92.7299 43.9813 92.7296 49.6401ZM49.6396 2.81009C58.9017 2.81009 67.9558 5.55662 75.6569 10.7024C83.3581 15.8481 89.3604 23.162 92.9049 31.719C96.4493 40.2761 97.3767 49.692 95.5697 58.7762C93.7628 67.8603 89.3027 76.2046 82.7534 82.7539C76.2041 89.3032 67.8598 93.7633 58.7757 95.5703C49.6915 97.3772 40.2756 96.4498 31.7185 92.9054C23.1614 89.3609 15.8476 83.3586 10.7018 75.6574C5.5561 67.9563 2.80957 58.9022 2.80957 49.6401C2.81076 37.2204 7.745 25.3097 16.5271 16.5276C25.3091 7.7455 37.2198 2.81125 49.6396 2.81006V2.81009Z" fill="#0078D4"/>
<path fill-rule="evenodd" clip-rule="evenodd" d="M92.7296 49.64C92.7296 58.1624 90.2024 66.4934 85.4676 73.5795C80.7328 80.6656 74.0031 86.1886 66.1294 89.45C58.2557 92.7113 49.5918 93.5647 41.2331 91.902C32.8745 90.2394 25.1966 86.1355 19.1703 80.1092C13.1441 74.083 9.04017 66.4051 7.37753 58.0464C5.7149 49.6878 6.56822 41.0238 9.8296 33.1502C13.091 25.2765 18.6139 18.5468 25.7001 13.812C32.7862 9.07718 41.1172 6.55 49.6396 6.55C55.2983 6.54965 60.9017 7.66397 66.1298 9.82933C71.3579 11.9947 76.1082 15.1687 80.1096 19.17C84.1109 23.1713 87.2849 27.9217 89.4502 33.1498C91.6156 38.3778 92.7299 43.9812 92.7296 49.64ZM49.6396 2.81C58.9017 2.81 67.9558 5.55653 75.6569 10.7023C83.3581 15.848 89.3604 23.1619 92.9048 31.7189C96.4493 40.276 97.3767 49.6919 95.5697 58.7761C93.7628 67.8602 89.3027 76.2045 82.7534 82.7538C76.2041 89.3031 67.8598 93.7632 58.7757 95.5702C49.6915 97.3771 40.2756 96.4497 31.7185 92.9053C23.1614 89.3608 15.8476 83.3585 10.7018 75.6574C5.5561 67.9562 2.80957 58.9021 2.80957 49.64C2.81076 37.2203 7.74501 25.3096 16.5271 16.5275C25.3091 7.74544 37.2198 2.81119 49.6396 2.81Z" fill="#0078D4"/>
<path d="M78.1627 41.4309C78.1817 41.2979 78.2197 41.1649 78.2387 41.051C78.5951 39.1705 78.533 37.2346 78.0569 35.3808C77.5808 33.527 76.7022 31.8007 75.4837 30.3247C74.2652 28.8488 72.7366 27.6592 71.0066 26.8406C69.2765 26.0219 67.3874 25.5943 65.4734 25.5881C64.4944 25.5848 63.5185 25.6997 62.567 25.9301C60.6269 22.87 57.7455 20.5227 54.3564 19.2414C50.9672 17.9601 47.2536 17.814 43.7743 18.8253C40.295 19.8365 37.2382 21.9503 35.0638 24.8486C32.8894 27.7469 31.7151 31.2729 31.7174 34.8962C31.7174 35.1242 31.7174 35.3522 31.7364 35.5801C30.8673 35.2876 29.956 35.14 29.039 35.1432C26.9282 35.1436 24.8983 35.9553 23.3692 37.4104C21.8401 38.8655 20.9288 40.8527 20.8239 42.9609C20.719 45.0691 21.4284 47.137 22.8054 48.7368C24.1825 50.3365 26.1218 51.3458 28.2221 51.5558L65.4544 51.6318C67.7719 51.629 70.047 51.0101 72.0465 49.8385C74.046 48.6668 75.6979 46.9845 76.8331 44.9641C76.8901 44.8501 76.9661 44.7361 77.0231 44.6221C77.5261 43.6064 77.9085 42.5354 78.1627 41.4309Z" fill="white"/>
<path opacity="0.2" d="M59.9119 51.6317C60.9473 49.8431 61.4921 47.8129 61.4914 45.7462C61.4914 44.189 61.1847 42.6471 60.5888 41.2085C59.9929 39.7699 59.1194 38.4627 58.0184 37.3616C56.9173 36.2605 55.6101 35.3871 54.1715 34.7912C52.7328 34.1953 51.1909 33.8886 49.6338 33.8886C48.0766 33.8886 46.5347 34.1953 45.096 34.7912C43.6574 35.3871 42.3502 36.2605 41.2491 37.3616C40.1481 38.4627 39.2746 39.7699 38.6787 41.2085C38.0828 42.6471 37.7761 44.189 37.7761 45.7462C37.7754 47.8129 38.3202 49.8431 39.3556 51.6317H59.9119Z" fill="#B3B3B3"/>
<path d="M60.6609 59.1518C61.2269 59.1518 61.7873 59.2632 62.3102 59.4798C62.8331 59.6964 63.3082 60.0139 63.7084 60.4141C64.1086 60.8143 64.4261 61.2894 64.6427 61.8123C64.8593 62.3351 64.9707 62.8956 64.9707 63.4616V65.2215C64.9707 66.3203 64.6272 67.3917 63.9884 68.2857C61.0259 72.4314 56.1883 74.485 49.6337 74.485C43.0778 74.485 38.2428 72.4304 35.2874 68.2826C34.6512 67.3897 34.3093 66.3207 34.3093 65.2244V63.4616C34.3093 62.8956 34.4208 62.3352 34.6374 61.8123C34.8539 61.2894 35.1714 60.8143 35.5716 60.4141C35.9718 60.0139 36.4469 59.6964 36.9698 59.4798C37.4927 59.2632 38.0531 59.1518 38.6191 59.1518H60.6609ZM49.6337 36.164C51.5288 36.164 53.3814 36.7259 54.9571 37.7788C56.5329 38.8317 57.7611 40.3282 58.4863 42.0791C59.2116 43.83 59.4013 45.7566 59.0316 47.6153C58.6619 49.474 57.7493 51.1814 56.4092 52.5215C55.0692 53.8615 53.3618 54.7741 51.5031 55.1439C49.6444 55.5136 47.7178 55.3239 45.9669 54.5986C44.216 53.8734 42.7195 52.6452 41.6666 51.0695C40.6137 49.4937 40.0517 47.6411 40.0517 45.746C40.0517 43.2047 41.0612 40.7675 42.8582 38.9705C44.6552 37.1736 47.0924 36.164 49.6337 36.164Z" fill="url(#paint1_linear_369_399)"/>
<path opacity="0.2" d="M55.9315 68.5231H55.2837V67.8747C55.2826 66.854 54.8766 65.8753 54.1548 65.1535C53.433 64.4317 52.4543 64.0257 51.4335 64.0246H47.8345C46.8138 64.0257 45.8351 64.4317 45.1133 65.1535C44.3915 65.8753 43.9855 66.854 43.9844 67.8747V68.5231H43.3355C42.3597 68.5259 41.4216 68.8996 40.7112 69.5686C40.0009 70.2376 39.5717 71.1517 39.5105 72.1256C42.6158 73.7966 46.1098 74.6109 49.6339 74.485C53.1575 74.6104 56.6511 73.797 59.7569 72.1281C59.6963 71.1538 59.2672 70.239 58.5568 69.5695C57.8463 68.8999 56.9077 68.5258 55.9315 68.5231Z" fill="#003067"/>
<path d="M47.8344 66.3001C47.4169 66.3001 47.0164 66.466 46.7211 66.7612C46.4258 67.0565 46.26 67.457 46.26 67.8746V70.7986H43.336C43.1292 70.7986 42.9244 70.8393 42.7334 70.9184C42.5424 70.9975 42.3688 71.1135 42.2226 71.2597C42.0764 71.4059 41.9604 71.5795 41.8813 71.7705C41.8022 71.9615 41.7615 72.1663 41.7615 72.373V75.9718C41.7615 76.1786 41.8022 76.3834 41.8813 76.5744C41.9604 76.7654 42.0764 76.939 42.2226 77.0852C42.3688 77.2314 42.5424 77.3474 42.7334 77.4265C42.9244 77.5056 43.1292 77.5463 43.336 77.5463H46.26V80.4703C46.26 80.6771 46.3007 80.8818 46.3798 81.0728C46.4589 81.2639 46.5749 81.4374 46.7211 81.5836C46.8673 81.7298 47.0409 81.8458 47.2319 81.9249C47.4229 82.0041 47.6277 82.0448 47.8344 82.0448H51.4332C51.64 82.0448 51.8447 82.0041 52.0358 81.9249C52.2268 81.8458 52.4004 81.7298 52.5466 81.5836C52.6928 81.4374 52.8087 81.2639 52.8879 81.0728C52.967 80.8818 53.0077 80.6771 53.0077 80.4703V77.5463H55.9317C56.1385 77.5463 56.3432 77.5056 56.5342 77.4265C56.7253 77.3474 56.8988 77.2314 57.045 77.0852C57.1912 76.939 57.3072 76.7654 57.3863 76.5744C57.4655 76.3834 57.5062 76.1786 57.5062 75.9718V72.373C57.5062 71.9555 57.3403 71.555 57.045 71.2597C56.7498 70.9645 56.3493 70.7986 55.9317 70.7986H53.0077V67.8746C53.0077 67.457 52.8418 67.0565 52.5466 66.7612C52.2513 66.466 51.8508 66.3001 51.4332 66.3001H47.8344Z" fill="#9CEBFF"/>
</g>
<defs>
<linearGradient id="paint0_linear_369_399" x1="47.8697" y1="-15.1531" x2="51.8525" y2="130.615" gradientUnits="userSpaceOnUse">
<stop stop-color="#00ABDE"/>
<stop offset="1" stop-color="#007ED8"/>
</linearGradient>
<linearGradient id="paint1_linear_369_399" x1="49.64" y1="74.485" x2="49.64" y2="36.164" gradientUnits="userSpaceOnUse">
<stop stop-color="#004DAE"/>
<stop offset="0.21" stop-color="#0061C4"/>
<stop offset="0.51" stop-color="#0078DD"/>
<stop offset="0.78" stop-color="#0086EC"/>
<stop offset="1" stop-color="#008BF1"/>
</linearGradient>
<clipPath id="clip0_369_399">
<rect width="99.2799" height="99.28" fill="white"/>
</clipPath>
</defs>
</svg>
