<svg width="103" height="103" viewBox="0 0 103 103" fill="none" xmlns="http://www.w3.org/2000/svg">
<path d="M51.997 97.9423C26.147 97.9423 5.18701 76.9923 5.18701 51.1323C5.18701 25.2723 26.147 4.32227 51.997 4.32227C77.847 4.32227 98.807 25.2823 98.807 51.1323C98.807 76.9823 77.847 97.9423 51.997 97.9423Z" fill="url(#paint0_linear_409_14682)"/>
<path fill-rule="evenodd" clip-rule="evenodd" d="M97.8969 51.1324C97.8969 76.4824 77.3469 97.0324 51.9969 97.0324C26.6469 97.0324 6.09693 76.4824 6.09693 51.1324C6.09693 25.7824 26.6469 5.23244 51.9969 5.23244C77.3469 5.23244 97.8969 25.7824 97.8969 51.1324ZM51.9969 1.49243C79.4169 1.49243 101.637 23.7124 101.637 51.1324C101.637 78.5524 79.4069 100.772 51.9969 100.772C24.5769 100.772 2.35693 78.5424 2.35693 51.1324C2.35693 23.7124 24.5769 1.49243 51.9969 1.49243Z" fill="#F2F1F0"/>
<path fill-rule="evenodd" clip-rule="evenodd" d="M95.087 51.1322C95.087 74.9322 75.797 94.2222 51.997 94.2222C28.197 94.2222 8.90699 74.9322 8.90699 51.1322C8.90699 27.3322 28.197 8.04225 51.997 8.04225C75.797 8.04225 95.087 27.3322 95.087 51.1322ZM51.997 4.30225C77.857 4.30225 98.827 25.2722 98.827 51.1322C98.827 76.9922 77.857 97.9623 51.997 97.9623C26.137 97.9623 5.16699 76.9922 5.16699 51.1322C5.16699 25.2722 26.127 4.30225 51.997 4.30225Z" fill="url(#paint1_linear_409_14682)"/>
<path fill-rule="evenodd" clip-rule="evenodd" d="M57.9219 29.7816C54.2354 25.2335 48.6109 22.3335 42.3015 22.3335C31.2059 22.3335 22.2195 31.3216 22.2195 42.3991C22.2195 44.1283 22.4358 45.8125 22.8504 47.4155C18.7853 47.5236 15.5225 50.8469 15.5225 54.9357C15.5225 59.0965 18.8935 62.4648 23.0577 62.4648H74.9483C79.1036 62.4648 82.4836 59.0965 82.4836 54.9357C82.4836 50.7838 79.1126 47.4065 74.9483 47.4065H74.8131C75.4441 45.8575 75.7866 44.1643 75.7866 42.3901C75.7866 35.0051 69.7926 29.007 62.3926 29.007C60.8242 29.025 59.319 29.2952 57.9219 29.7816Z" fill="white"/>
<path d="M37.0444 75.5832H83.0797C84.1484 75.5832 85.0069 74.7247 85.0069 73.6559V39.0879C85.0069 38.0192 84.1484 37.1606 83.0797 37.1606H37.0444C35.9757 37.1606 35.1172 38.0192 35.1172 39.0879V73.6559C35.1172 74.7159 35.9757 75.5832 37.0444 75.5832Z" fill="url(#paint2_linear_409_14682)"/>
<path d="M35.1172 41.6113H84.9894V38.4138C84.9894 37.31 84.0871 36.4077 82.9833 36.4077H37.1233C36.0195 36.4077 35.1172 37.31 35.1172 38.4138V41.6113Z" fill="#092E4C"/>
<path d="M38.2273 40.3764C38.9193 40.3764 39.4975 39.8158 39.4975 39.1062C39.4975 38.3966 38.9281 37.8359 38.2273 37.8359C37.5264 37.8359 36.957 38.4054 36.957 39.1062C36.957 39.807 37.5264 40.3764 38.2273 40.3764Z" fill="#50E6FF"/>
<path opacity="0.15" d="M50.2555 46.6737H29.8392C29.6128 46.6737 29.3959 46.7637 29.2359 46.9238C29.0758 47.0838 28.9858 47.3007 28.9858 47.527V68.6068C28.9894 68.8308 29.0802 69.0444 29.2399 69.2015C29.3995 69.3586 29.6151 69.4469 29.8392 69.4469H50.2555C50.4795 69.4469 50.6938 69.3586 50.8534 69.2015C51.0131 69.0444 51.1052 68.8308 51.1088 68.6068V47.5681C51.1163 47.4521 51.0995 47.3359 51.0598 47.2267C51.0201 47.1176 50.9575 47.0177 50.8773 46.9337C50.797 46.8497 50.7014 46.7833 50.5941 46.7385C50.4869 46.6938 50.3716 46.6716 50.2555 46.6737V46.6737Z" fill="#1F1D20"/>
<path d="M50.2555 45.9137H29.8392C29.6128 45.9137 29.3959 46.0037 29.2359 46.1637C29.0758 46.3238 28.9858 46.5407 28.9858 46.767V67.7925C28.9858 68.0189 29.0758 68.2364 29.2359 68.3965C29.3959 68.5565 29.6128 68.6459 29.8392 68.6459H50.2555C50.3675 68.6459 50.4774 68.6239 50.5809 68.581C50.6845 68.5381 50.7795 68.4757 50.8587 68.3965C50.938 68.3172 51.0011 68.2229 51.044 68.1193C51.0868 68.0158 51.1088 67.9046 51.1088 67.7925V46.767C51.1106 46.6544 51.0888 46.5426 51.0466 46.4382C51.0044 46.3339 50.9423 46.2394 50.8627 46.1598C50.7831 46.0801 50.6879 46.0174 50.5836 45.9752C50.4792 45.933 50.368 45.9119 50.2555 45.9137V45.9137Z" fill="url(#paint3_linear_409_14682)"/>
<path opacity="0.15" d="M40.054 65.435C41.5143 65.435 42.9411 65.0021 44.1552 64.1908C45.3694 63.3795 46.3165 62.2258 46.8753 60.8767C47.4341 59.5276 47.5796 58.0436 47.2947 56.6114C47.0098 55.1792 46.3071 53.8635 45.2745 52.831C44.2419 51.7984 42.9269 51.095 41.4947 50.8101C40.0625 50.5252 38.5772 50.6713 37.2281 51.2302C35.879 51.789 34.7266 52.7354 33.9154 53.9496C33.1041 55.1637 32.6704 56.5912 32.6704 58.0515C32.6686 59.0216 32.8583 59.9828 33.2287 60.8793C33.5991 61.7759 34.1436 62.5906 34.8295 63.2766C35.5155 63.9626 36.3302 64.5063 37.2268 64.8767C38.1234 65.2472 39.0839 65.4368 40.054 65.435V65.435Z" fill="#1F1D20"/>
<path d="M40.054 64.7734C41.5149 64.7734 42.9421 64.3404 44.1566 63.5285C45.371 62.7166 46.3182 61.5623 46.8766 60.2124C47.4351 58.8625 47.5807 57.3771 47.2947 55.9445C47.0087 54.5119 46.3031 53.1967 45.2692 52.1647C44.2353 51.1327 42.9186 50.4305 41.4855 50.1472C40.0524 49.8638 38.5677 50.0116 37.2188 50.5725C35.87 51.1334 34.7184 52.0819 33.9087 53.2978C33.0991 54.5138 32.6677 55.9429 32.6704 57.4037C32.6686 58.3732 32.8581 59.3338 33.2287 60.2296C33.5993 61.1254 34.1434 61.9387 34.8295 62.6236C35.5157 63.3084 36.3303 63.8508 37.2268 64.2197C38.1233 64.5887 39.0845 64.777 40.054 64.7734V64.7734Z" fill="white"/>
<path d="M43.7259 60.396C43.6167 59.4991 43.1824 58.6732 42.5061 58.0742C41.8297 57.4751 40.9581 57.1448 40.0546 57.1448C39.1511 57.1448 38.2781 57.4751 37.6018 58.0742C36.9254 58.6732 36.4925 59.4991 36.3833 60.396C36.3703 60.5266 36.3703 60.6583 36.3833 60.7889C36.4462 61.0834 36.5762 61.3595 36.7643 61.5946C36.9525 61.8298 37.1933 62.0176 37.4668 62.1437C38.2782 62.5512 39.1731 62.7635 40.0811 62.7635C40.989 62.7635 41.8853 62.5512 42.6966 62.1437C42.9688 62.0177 43.2065 61.8293 43.3925 61.594C43.5784 61.3586 43.7074 61.0829 43.7669 60.7889C43.7726 60.6567 43.7585 60.5243 43.7259 60.396V60.396Z" fill="url(#paint4_linear_409_14682)"/>
<path d="M40.0537 56.6027C40.4893 56.5973 40.9139 56.4629 41.2735 56.217C41.6331 55.9711 41.9109 55.6248 42.0739 55.2208C42.2369 54.8169 42.2773 54.3733 42.189 53.9468C42.1008 53.5202 41.8877 53.1297 41.5778 52.8236C41.2679 52.5174 40.8756 52.3099 40.448 52.2269C40.0204 52.1439 39.5772 52.1886 39.1753 52.3565C38.7733 52.5245 38.4298 52.8077 38.1883 53.1702C37.9468 53.5327 37.8179 53.9584 37.8179 54.3939C37.8196 54.6857 37.8792 54.9744 37.9925 55.2433C38.1058 55.5122 38.2705 55.756 38.478 55.961C38.6856 56.1661 38.9315 56.3286 39.2017 56.4386C39.472 56.5486 39.7619 56.6045 40.0537 56.6027V56.6027Z" fill="url(#paint5_linear_409_14682)"/>
<path fill-rule="evenodd" clip-rule="evenodd" d="M78.5247 59.3592L68.1082 69.7756L57.4302 59.0977C54.6255 56.2929 54.6255 51.7385 57.4302 48.9247L57.6737 48.6812C60.4785 45.8764 65.0329 45.8764 67.8467 48.6812L78.5247 59.3592Z" fill="url(#paint6_linear_409_14682)"/>
<path fill-rule="evenodd" clip-rule="evenodd" d="M68.0643 69.7206L58.0176 59.6739L68.6956 48.9959C71.5003 46.1911 76.0547 46.1911 78.8685 48.9959L79.112 49.2394C81.9168 52.0442 81.9168 56.5986 79.112 59.4124L68.7948 69.7206C68.5964 69.928 68.2717 69.928 68.0643 69.7206Z" fill="url(#paint7_linear_409_14682)"/>
<path fill-rule="evenodd" clip-rule="evenodd" d="M78.5247 59.3592L68.1082 69.7756L57.4302 59.0977C54.6255 56.2929 54.6255 51.7385 57.4302 48.9247L57.6737 48.6812C60.4785 45.8764 65.0329 45.8764 67.8467 48.6812L78.5247 59.3592Z" fill="url(#paint8_linear_409_14682)"/>
<path fill-rule="evenodd" clip-rule="evenodd" d="M68.0643 69.7206L58.0176 59.6739L68.6956 48.9959C71.5003 46.1911 76.0547 46.1911 78.8685 48.9959L79.112 49.2394C81.9168 52.0442 81.9168 56.5986 79.112 59.4124L68.7948 69.7206C68.5964 69.928 68.2717 69.928 68.0643 69.7206Z" fill="url(#paint9_linear_409_14682)"/>
<path d="M73.2706 55.9012H69.7185V52.3491H66.8236V55.9012H63.2715V58.7962H66.8236V62.3483H69.7185V58.7962H73.2706V55.9012Z" fill="white"/>
<defs>
<linearGradient id="paint0_linear_409_14682" x1="50.2231" y1="-13.6572" x2="54.2051" y2="132.113" gradientUnits="userSpaceOnUse">
<stop stop-color="#00ABDE"/>
<stop offset="1" stop-color="#007ED8"/>
</linearGradient>
<linearGradient id="paint1_linear_409_14682" x1="3.42739" y1="-20.4904" x2="98.9549" y2="120.391" gradientUnits="userSpaceOnUse">
<stop stop-color="#007ED8"/>
<stop offset="0.7065" stop-color="#002D4C"/>
</linearGradient>
<linearGradient id="paint2_linear_409_14682" x1="60.0621" y1="75.5832" x2="60.0621" y2="37.0918" gradientUnits="userSpaceOnUse">
<stop stop-color="#003067"/>
<stop offset="0.2" stop-color="#003F7C"/>
<stop offset="0.47" stop-color="#004F90"/>
<stop offset="0.74" stop-color="#00589D"/>
<stop offset="1" stop-color="#005BA1"/>
</linearGradient>
<linearGradient id="paint3_linear_409_14682" x1="40.0474" y1="45.9136" x2="40.0474" y2="68.6459" gradientUnits="userSpaceOnUse">
<stop stop-color="#008BF1"/>
<stop offset="0.22" stop-color="#0086EC"/>
<stop offset="0.49" stop-color="#0078DD"/>
<stop offset="0.79" stop-color="#0061C4"/>
<stop offset="1" stop-color="#004DAE"/>
</linearGradient>
<linearGradient id="paint4_linear_409_14682" x1="40.0708" y1="57.1448" x2="40.0708" y2="62.7635" gradientUnits="userSpaceOnUse">
<stop stop-color="#008BF1"/>
<stop offset="0.22" stop-color="#0086EC"/>
<stop offset="0.49" stop-color="#0078DD"/>
<stop offset="0.79" stop-color="#0061C4"/>
<stop offset="1" stop-color="#004DAE"/>
</linearGradient>
<linearGradient id="paint5_linear_409_14682" x1="40.0263" y1="52.1863" x2="40.0263" y2="56.6027" gradientUnits="userSpaceOnUse">
<stop stop-color="#008BF1"/>
<stop offset="0.22" stop-color="#0086EC"/>
<stop offset="0.49" stop-color="#0078DD"/>
<stop offset="0.79" stop-color="#0061C4"/>
<stop offset="1" stop-color="#004DAE"/>
</linearGradient>
<linearGradient id="paint6_linear_409_14682" x1="49.9747" y1="45.4786" x2="109.655" y2="90.9276" gradientUnits="userSpaceOnUse">
<stop stop-color="#FFB900"/>
<stop offset="0.17" stop-color="#EF8400"/>
<stop offset="0.31" stop-color="#E25C01"/>
<stop offset="0.43" stop-color="#DB4401"/>
<stop offset="0.5" stop-color="#D83B01"/>
</linearGradient>
<linearGradient id="paint7_linear_409_14682" x1="55.1409" y1="51.6698" x2="99.8248" y2="69.727" gradientUnits="userSpaceOnUse">
<stop stop-color="#FFB900"/>
<stop offset="0.17" stop-color="#EF8400"/>
<stop offset="0.31" stop-color="#E25C01"/>
<stop offset="0.43" stop-color="#DB4401"/>
<stop offset="0.5" stop-color="#D83B01"/>
</linearGradient>
<linearGradient id="paint8_linear_409_14682" x1="49.9747" y1="45.4786" x2="109.655" y2="90.9276" gradientUnits="userSpaceOnUse">
<stop stop-color="#FFB900"/>
<stop offset="0.17" stop-color="#EF8400"/>
<stop offset="0.31" stop-color="#E25C01"/>
<stop offset="0.43" stop-color="#DB4401"/>
<stop offset="0.5" stop-color="#D83B01"/>
</linearGradient>
<linearGradient id="paint9_linear_409_14682" x1="55.1409" y1="51.6698" x2="99.8248" y2="69.727" gradientUnits="userSpaceOnUse">
<stop stop-color="#FFB900"/>
<stop offset="0.17" stop-color="#EF8400"/>
<stop offset="0.31" stop-color="#E25C01"/>
<stop offset="0.43" stop-color="#DB4401"/>
<stop offset="0.5" stop-color="#D83B01"/>
</linearGradient>
</defs>
</svg>
