<svg width="103" height="103" viewBox="0 0 103 103" fill="none" xmlns="http://www.w3.org/2000/svg">
<path d="M51.5783 97.8475C25.7283 97.8475 4.76831 76.8975 4.76831 51.0375C4.76831 25.1775 25.7283 4.22754 51.5783 4.22754C77.4283 4.22754 98.3883 25.1875 98.3883 51.0375C98.3883 76.8875 77.4283 97.8475 51.5783 97.8475Z" fill="url(#paint0_linear)"/>
<path fill-rule="evenodd" clip-rule="evenodd" d="M97.4785 51.0375C97.4785 76.3875 76.9285 96.9375 51.5785 96.9375C26.2285 96.9375 5.67848 76.3875 5.67848 51.0375C5.67848 25.6875 26.2285 5.13746 51.5785 5.13746C76.9285 5.13746 97.4785 25.6875 97.4785 51.0375ZM51.5785 1.39746C78.9985 1.39746 101.218 23.6175 101.218 51.0375C101.218 78.4575 78.9885 100.677 51.5785 100.677C24.1585 100.677 1.93848 78.4475 1.93848 51.0375C1.93848 23.6175 24.1585 1.39746 51.5785 1.39746Z" fill="#F2F1F0"/>
<path fill-rule="evenodd" clip-rule="evenodd" d="M94.6683 51.037C94.6683 74.837 75.3783 94.127 51.5783 94.127C27.7783 94.127 8.48829 74.837 8.48829 51.037C8.48829 27.237 27.7783 7.94703 51.5783 7.94703C75.3783 7.94703 94.6683 27.237 94.6683 51.037ZM51.5783 4.20703C77.4383 4.20703 98.4083 25.177 98.4083 51.037C98.4083 76.897 77.4383 97.867 51.5783 97.867C25.7183 97.867 4.74829 76.897 4.74829 51.037C4.74829 25.177 25.7083 4.20703 51.5783 4.20703Z" fill="#F3C900"/>
<path d="M54.6884 19.3164H31.0384C29.9984 19.3164 29.1584 20.1464 29.1584 21.1764V71.3264C29.1584 72.3564 29.9984 73.1864 31.0384 73.1864H71.7684C72.8084 73.1864 73.6484 72.3564 73.6484 71.3264V37.4264C72.3884 37.3564 72.8084 36.2764 71.7684 36.2764H58.2484C57.2284 36.2764 56.4084 35.4564 56.4084 34.4564V21.1664C56.4184 20.1964 55.6684 19.3864 54.6884 19.3164Z" fill="url(#paint1_linear)"/>
<path d="M73.7284 37.5472L55.6284 19.6172V34.1472C55.6284 36.0272 57.1584 37.5472 59.0484 37.5472H73.7284Z" fill="#494B49"/>
<path d="M35.7384 60.1875H43.3884C44.0984 60.1875 44.6784 60.7675 44.6784 61.4775C44.6784 62.1875 44.0984 62.7675 43.3884 62.7675H35.7384C35.0284 62.7675 34.4484 62.1875 34.4484 61.4775C34.4384 60.7575 35.0184 60.1875 35.7384 60.1875Z" fill="white"/>
<path d="M35.7384 65.7676H43.3884C44.0984 65.7676 44.6784 66.3476 44.6784 67.0576C44.6784 67.7676 44.0984 68.3476 43.3884 68.3476H35.7384C35.0284 68.3476 34.4484 67.7676 34.4484 67.0576C34.4384 66.3476 35.0184 65.7676 35.7384 65.7676Z" fill="white"/>
<path d="M38.2283 51.3364L47.5283 55.4764L55.9083 50.8164L66.1383 55.4764" stroke="#D2D2D2"/>
<path d="M37.2982 52.677C38.3255 52.677 39.1582 51.8443 39.1582 50.817C39.1582 49.7898 38.3255 48.957 37.2982 48.957C36.271 48.957 35.4382 49.7898 35.4382 50.817C35.4382 51.8443 36.271 52.677 37.2982 52.677Z" fill="#504E4E" stroke="#CCCCCC"/>
<path d="M47.5285 57.3372C48.5557 57.3372 49.3885 56.5044 49.3885 55.4772C49.3885 54.4499 48.5557 53.6172 47.5285 53.6172C46.5012 53.6172 45.6685 54.4499 45.6685 55.4772C45.6685 56.5044 46.5012 57.3372 47.5285 57.3372Z" fill="#504E4E" stroke="#CCCCCC"/>
<path d="M55.9083 52.677C56.9356 52.677 57.7683 51.8443 57.7683 50.817C57.7683 49.7898 56.9356 48.957 55.9083 48.957C54.8811 48.957 54.0483 49.7898 54.0483 50.817C54.0483 51.8443 54.8811 52.677 55.9083 52.677Z" fill="#504E4E" stroke="#CCCCCC"/>
<path d="M66.0785 59.2766C67.1058 59.2766 67.9385 58.4439 67.9385 57.4166C67.9385 56.3894 67.1058 55.5566 66.0785 55.5566C65.0513 55.5566 64.2185 56.3894 64.2185 57.4166C64.2185 58.4439 65.0513 59.2766 66.0785 59.2766Z" fill="#504E4E" stroke="#CCCCCC"/>
<path d="M66.3684 77.5366C72.8522 77.5366 78.1084 72.2805 78.1084 65.7966C78.1084 59.3128 72.8522 54.0566 66.3684 54.0566C59.8846 54.0566 54.6284 59.3128 54.6284 65.7966C54.6284 72.2805 59.8846 77.5366 66.3684 77.5366Z" fill="url(#paint2_linear)"/>
<path d="M79.7784 78.9071L73.0784 71.4471C72.8584 71.2071 72.4884 71.1871 72.2484 71.4071L71.0184 72.5171C70.7784 72.7371 70.7584 73.1071 70.9784 73.3471L77.6784 80.8071C77.8984 81.0471 78.2684 81.0671 78.5084 80.8471L79.7384 79.7371C79.9684 79.5171 79.9884 79.1471 79.7784 78.9071Z" fill="url(#paint3_linear)"/>
<path d="M66.8485 56.3567C61.6485 56.0867 57.2085 60.0767 56.9385 65.2767C56.6685 70.4767 60.6585 74.9167 65.8585 75.1867C71.0585 75.4567 75.4985 71.4667 75.7685 66.2667C76.0485 61.0667 72.0485 56.6367 66.8485 56.3567ZM66.8185 58.4967C70.8985 58.7067 74.0285 62.1867 73.8185 66.2667C73.6085 70.3467 70.1285 73.4767 66.0485 73.2667C61.9685 73.0567 58.8385 69.5767 59.0485 65.4967C59.2585 61.4167 62.7385 58.2867 66.8185 58.4967Z" fill="url(#paint4_linear)"/>
<path d="M66.4283 73.2673C70.5097 73.2673 73.8183 69.9587 73.8183 65.8773C73.8183 61.7959 70.5097 58.4873 66.4283 58.4873C62.3469 58.4873 59.0383 61.7959 59.0383 65.8773C59.0383 69.9587 62.3469 73.2673 66.4283 73.2673Z" fill="white"/>
<path fill-rule="evenodd" clip-rule="evenodd" d="M59.2383 67.7566L60.5583 68.3166L63.1683 69.4366L65.1583 64.6066L68.8583 67.4666L70.5683 61.4766L73.6383 63.9666L73.7983 64.9566L70.9383 62.7666L69.1983 68.6766L65.4483 65.7866L63.4483 70.5666L59.5483 68.6766L59.2383 67.7566Z" fill="#474646"/>
<path d="M49.7981 45.4065H43.5981V26.8565C43.5981 26.1865 44.1381 25.6465 44.8081 25.6465H49.7981C50.4681 25.6465 51.0081 26.1865 51.0081 26.8565V44.1965C51.0081 44.8665 50.4681 45.4065 49.7981 45.4065Z" fill="url(#paint5_linear)"/>
<path d="M45.7882 45.4063H39.4282V31.7463C39.4282 31.1663 39.8982 30.6963 40.4782 30.6963H45.7782C46.3582 30.6963 46.8282 31.1663 46.8282 31.7463V44.3563C46.8382 44.9363 46.3682 45.4063 45.7882 45.4063Z" fill="url(#paint6_linear)"/>
<path d="M41.4883 45.4061H36.8283C36.0683 45.4061 35.4583 44.7961 35.4583 44.0361V36.9061C35.4583 36.1461 36.0683 35.5361 36.8283 35.5361H41.4982C42.2582 35.5361 42.8683 36.1461 42.8683 36.9061V44.0361C42.8583 44.7961 42.2483 45.4061 41.4883 45.4061Z" fill="url(#paint7_linear)"/>
<defs>
<linearGradient id="paint0_linear" x1="49.8079" y1="-13.7555" x2="53.7907" y2="132.013" gradientUnits="userSpaceOnUse">
<stop stop-color="#F7E387"/>
<stop offset="0.6586" stop-color="#F7E387"/>
<stop offset="1" stop-color="#E3D07C"/>
</linearGradient>
<linearGradient id="paint1_linear" x1="51.4177" y1="19.6245" x2="51.4177" y2="73.1224" gradientUnits="userSpaceOnUse">
<stop stop-color="#6A6A6A"/>
<stop offset="1" stop-color="#343333"/>
</linearGradient>
<linearGradient id="paint2_linear" x1="75.9278" y1="60.4226" x2="53.195" y2="73.2074" gradientUnits="userSpaceOnUse">
<stop stop-color="#F7E387"/>
<stop offset="0.6586" stop-color="#F7E387"/>
<stop offset="1" stop-color="#E3D07C"/>
</linearGradient>
<linearGradient id="paint3_linear" x1="57.581" y1="60.1904" x2="81.9589" y2="82.0171" gradientUnits="userSpaceOnUse">
<stop offset="0.00753769" stop-color="#E0A310"/>
<stop offset="1" stop-color="#CA810E"/>
</linearGradient>
<linearGradient id="paint4_linear" x1="58.7102" y1="58.9289" x2="83.0882" y2="80.7556" gradientUnits="userSpaceOnUse">
<stop offset="0.00753769" stop-color="#E0A310"/>
<stop offset="1" stop-color="#CA810E"/>
</linearGradient>
<linearGradient id="paint5_linear" x1="47.2223" y1="27.4535" x2="47.38" y2="43.8495" gradientUnits="userSpaceOnUse">
<stop offset="0.00753769" stop-color="#E0A310"/>
<stop offset="1" stop-color="#CA810E"/>
</linearGradient>
<linearGradient id="paint6_linear" x1="42.9341" y1="31.2638" x2="43.407" y2="48.6056" gradientUnits="userSpaceOnUse">
<stop offset="0.00753769" stop-color="#F2CC40"/>
<stop offset="1" stop-color="#E7B116"/>
</linearGradient>
<linearGradient id="paint7_linear" x1="38.9805" y1="36.2915" x2="39.4534" y2="47.4848" gradientUnits="userSpaceOnUse">
<stop stop-color="#F8E17B"/>
<stop offset="0.5302" stop-color="#F6D856"/>
<stop offset="1" stop-color="#F6D856"/>
</linearGradient>
</defs>
</svg>
