<svg width="103" height="105" viewBox="0 0 103 105" fill="none" xmlns="http://www.w3.org/2000/svg">
<path d="M51.5783 100.312C25.7283 100.312 4.76831 78.8967 4.76831 52.4622C4.76831 26.0277 25.7283 4.6123 51.5783 4.6123C77.4283 4.6123 98.3883 26.0379 98.3883 52.4622C98.3883 78.8864 77.4283 100.312 51.5783 100.312Z" fill="#F9E488"/>
<path d="M74.3402 71.1264C64.9364 71.1264 57.3115 63.3359 57.3115 53.7195C57.3115 44.1031 64.9364 36.3125 74.3402 36.3125C83.744 36.3125 91.3689 44.1068 91.3689 53.7195C91.3689 63.3322 83.744 71.1264 74.3402 71.1264Z" fill="#F8F9FA"/>
<path fill-rule="evenodd" clip-rule="evenodd" d="M97.4785 52.4625C97.4785 78.3756 76.9285 99.3821 51.5785 99.3821C26.2285 99.3821 5.67848 78.3756 5.67848 52.4625C5.67848 26.5493 26.2285 5.54281 51.5785 5.54281C76.9285 5.54281 97.4785 26.5493 97.4785 52.4625ZM51.5785 1.71973C78.9985 1.71973 101.218 24.4333 101.218 52.4625C101.218 80.4916 78.9885 103.205 51.5785 103.205C24.1585 103.205 1.93848 80.4814 1.93848 52.4625C1.93848 24.4333 24.1585 1.71973 51.5785 1.71973Z" fill="#F2F1F0"/>
<path fill-rule="evenodd" clip-rule="evenodd" d="M94.6683 52.4621C94.6683 76.7908 75.3783 96.5093 51.5783 96.5093C27.7783 96.5093 8.48829 76.7908 8.48829 52.4621C8.48829 28.1334 27.7783 8.41488 51.5783 8.41488C75.3783 8.41488 94.6683 28.1334 94.6683 52.4621ZM51.5783 4.5918C77.4383 4.5918 98.4083 26.0276 98.4083 52.4621C98.4083 78.8966 77.4383 100.332 51.5783 100.332C25.7183 100.332 4.74829 78.8966 4.74829 52.4621C4.74829 26.0276 25.7083 4.5918 51.5783 4.5918Z" fill="#F3C900"/>
<path d="M50.5283 29.585L40.4983 47.5657L29.8883 36.6791L18.9583 50.9595L21.5183 52.9835L30.1883 41.7186L41.1983 53.0346L53.3583 31.2409L50.5283 29.585Z" fill="#9B844B"/>
<path d="M29.7583 43.3747C31.9983 43.3747 33.8083 41.5245 33.8083 39.2347C33.8083 36.9449 31.9983 35.0947 29.7583 35.0947C27.5183 35.0947 25.7083 36.9449 25.7083 39.2347C25.7083 41.5245 27.5183 43.3747 29.7583 43.3747Z" fill="url(#paint0_linear)"/>
<path d="M41.2282 53.7194C43.4682 53.7194 45.2782 51.8692 45.2782 49.5794C45.2782 47.2897 43.4682 45.4395 41.2282 45.4395C38.9882 45.4395 37.1782 47.2897 37.1782 49.5794C37.1782 51.8692 38.9882 53.7194 41.2282 53.7194Z" fill="url(#paint1_linear)"/>
<path d="M51.3383 35.1051C53.5783 35.1051 55.3883 33.2549 55.3883 30.9652C55.3883 28.6754 53.5783 26.8252 51.3383 26.8252C49.0983 26.8252 47.2883 28.6754 47.2883 30.9652C47.2883 33.2549 49.0983 35.1051 51.3383 35.1051Z" fill="url(#paint2_linear)"/>
<path d="M20.3183 55.7946C22.5583 55.7946 24.3683 53.9444 24.3683 51.6546C24.3683 49.3649 22.5583 47.5146 20.3183 47.5146C18.0783 47.5146 16.2683 49.3649 16.2683 51.6546C16.2683 53.9444 18.0783 55.7946 20.3183 55.7946Z" fill="url(#paint3_linear)"/>
<path opacity="0.6171" d="M27.1185 50.959H33.4585C33.5685 50.959 33.6585 51.051 33.6585 51.1634V70.054C33.6585 70.1664 33.5685 70.2584 33.4585 70.2584H27.1185C27.0085 70.2584 26.9185 70.1664 26.9185 70.054V51.1737C26.9185 51.051 26.9985 50.959 27.1185 50.959Z" fill="#6D572C"/>
<path opacity="0.8107" d="M37.9083 57.8594H44.2482C44.3582 57.8594 44.4482 57.9514 44.4482 58.0638V70.0646C44.4482 70.1771 44.3582 70.2691 44.2482 70.2691H37.9083C37.7983 70.2691 37.7083 70.1771 37.7083 70.0646V58.0638C37.7083 57.9412 37.7983 57.8594 37.9083 57.8594Z" fill="#6D572C"/>
<path d="M48.0284 44.0693H54.3684C54.4784 44.0693 54.5684 44.1613 54.5684 44.2738V70.0643C54.5684 70.1767 54.4784 70.2687 54.3684 70.2687H48.0284C47.9184 70.2687 47.8284 70.1767 47.8284 70.0643V44.2738C47.8284 44.1511 47.9084 44.0693 48.0284 44.0693Z" fill="#6D572C"/>
<path opacity="0.3942" d="M16.9983 57.8594H23.3383C23.4483 57.8594 23.5383 57.9514 23.5383 58.0638V70.0646C23.5383 70.1771 23.4483 70.2691 23.3383 70.2691H16.9983C16.8883 70.2691 16.7983 70.1771 16.7983 70.0646V58.0638C16.7983 57.9412 16.8883 57.8594 16.9983 57.8594Z" fill="#6D572C"/>
<path d="M81.9073 65.3533H74.7629V43.51C74.7629 42.7249 75.389 42.085 76.157 42.085H81.9073C82.6753 42.085 83.3013 42.7249 83.3013 43.51V63.9283C83.3013 64.7133 82.6753 65.3533 81.9073 65.3533Z" fill="url(#paint4_linear)"/>
<path d="M77.2799 65.3533H69.9548V49.2627C69.9548 48.5766 70.497 48.0225 71.1682 48.0225H77.2735C77.9447 48.0225 78.4868 48.5766 78.4868 49.2627V64.1064C78.4932 64.7991 77.9511 65.3533 77.2799 65.3533Z" fill="url(#paint5_linear)"/>
<path d="M72.3297 65.3528H66.9601C66.0888 65.3528 65.3789 64.6271 65.3789 63.7365V55.3448C65.3789 54.4476 66.0888 53.7285 66.9601 53.7285H72.3361C73.2074 53.7285 73.9173 54.4542 73.9173 55.3448V63.7365C73.9109 64.6271 73.2009 65.3528 72.3297 65.3528Z" fill="url(#paint6_linear)"/>
<defs>
<linearGradient id="paint0_linear" x1="29.7544" y1="35.1579" x2="29.7544" y2="43.3786" gradientUnits="userSpaceOnUse">
<stop stop-color="#A78A04"/>
<stop offset="1" stop-color="#6D572C"/>
</linearGradient>
<linearGradient id="paint1_linear" x1="41.2233" y1="45.5041" x2="41.2233" y2="53.7247" gradientUnits="userSpaceOnUse">
<stop stop-color="#A78A04"/>
<stop offset="1" stop-color="#6D572C"/>
</linearGradient>
<linearGradient id="paint2_linear" x1="51.3372" y1="26.8855" x2="51.3372" y2="35.1065" gradientUnits="userSpaceOnUse">
<stop stop-color="#A78A04"/>
<stop offset="1" stop-color="#6D572C"/>
</linearGradient>
<linearGradient id="paint3_linear" x1="20.3142" y1="47.5705" x2="20.3142" y2="55.7911" gradientUnits="userSpaceOnUse">
<stop stop-color="#A78A04"/>
<stop offset="1" stop-color="#6D572C"/>
</linearGradient>
<linearGradient id="paint4_linear" x1="78.9339" y1="44.2131" x2="79.1236" y2="63.5188" gradientUnits="userSpaceOnUse">
<stop offset="0.00753769" stop-color="#E0A310"/>
<stop offset="1" stop-color="#CA810E"/>
</linearGradient>
<linearGradient id="paint5_linear" x1="73.9942" y1="48.7001" x2="74.5634" y2="69.119" gradientUnits="userSpaceOnUse">
<stop offset="0.00753769" stop-color="#F2CC40"/>
<stop offset="1" stop-color="#E7B116"/>
</linearGradient>
<linearGradient id="paint6_linear" x1="69.4398" y1="54.6198" x2="70.009" y2="67.7986" gradientUnits="userSpaceOnUse">
<stop stop-color="#F8E17B"/>
<stop offset="0.5302" stop-color="#F6D856"/>
<stop offset="1" stop-color="#F6D856"/>
</linearGradient>
</defs>
</svg>
