<?xml version="1.0" encoding="UTF-8"?>
<svg width="101px" height="101px" viewBox="0 0 101 101" version="1.1" xmlns="http://www.w3.org/2000/svg" xmlns:xlink="http://www.w3.org/1999/xlink">
    <!-- Generator: Sketch 63.1 (92452) - https://sketch.com -->
    <title>Get started with Power Automate Buttons/Create-a-Power-Automate-Button-that-uses-a-physical-Button-input</title>
    <desc>Created with Sketch.</desc>
    <defs>
        <rect id="path-1" x="0" y="0" width="94.3396226" height="94.3396226" rx="47.1698113"></rect>
        <linearGradient x1="50%" y1="0%" x2="50%" y2="100%" id="linearGradient-3">
            <stop stop-color="#99D3FF" offset="0%"></stop>
            <stop stop-color="#0FA6FF" offset="100%"></stop>
        </linearGradient>
        <rect id="path-4" x="0" y="0" width="100" height="100" rx="50"></rect>
        <filter x="-0.5%" y="-0.5%" width="102.0%" height="102.0%" filterUnits="objectBoundingBox" id="filter-5">
            <feOffset dx="1" dy="1" in="SourceAlpha" result="shadowOffsetOuter1"></feOffset>
            <feMorphology radius="4" operator="erode" in="SourceAlpha" result="shadowInner"></feMorphology>
            <feOffset dx="1" dy="1" in="shadowInner" result="shadowInner"></feOffset>
            <feComposite in="shadowOffsetOuter1" in2="shadowInner" operator="out" result="shadowOffsetOuter1"></feComposite>
            <feColorMatrix values="0 0 0 0 0   0 0 0 0 0   0 0 0 0 0  0 0 0 0.15 0" type="matrix" in="shadowOffsetOuter1"></feColorMatrix>
        </filter>
        <path d="M50,2.83018868 C76.0511674,2.83018868 97.1698113,23.9488326 97.1698113,50 C97.1698113,76.0511674 76.0511674,97.1698113 50,97.1698113 C23.9488326,97.1698113 2.83018868,76.0511674 2.83018868,50 C2.83018868,23.9488326 23.9488326,2.83018868 50,2.83018868 Z M50,6.60377358 C26.032926,6.60377358 6.60377358,26.032926 6.60377358,50 C6.60377358,73.967074 26.032926,93.3962264 50,93.3962264 C73.967074,93.3962264 93.3962264,73.967074 93.3962264,50 C93.3962264,26.032926 73.967074,6.60377358 50,6.60377358 Z" id="path-6"></path>
        <circle id="path-8" cx="47.4784347" cy="34.8058592" r="18.5"></circle>
        <filter x="-2.7%" y="-2.7%" width="105.4%" height="110.8%" filterUnits="objectBoundingBox" id="filter-9">
            <feOffset dx="0" dy="2" in="SourceAlpha" result="shadowOffsetOuter1"></feOffset>
            <feColorMatrix values="0 0 0 0 0   0 0 0 0 0   0 0 0 0 0  0 0 0 0.1 0" type="matrix" in="shadowOffsetOuter1"></feColorMatrix>
        </filter>
        <filter x="-11.8%" y="-8.5%" width="123.5%" height="117.0%" filterUnits="objectBoundingBox" id="filter-10">
            <feOffset dx="0" dy="2" in="SourceAlpha" result="shadowOffsetOuter1"></feOffset>
            <feColorMatrix values="0 0 0 0 0   0 0 0 0 0   0 0 0 0 0  0 0 0 0.0977411685 0" type="matrix" in="shadowOffsetOuter1" result="shadowMatrixOuter1"></feColorMatrix>
            <feMerge>
                <feMergeNode in="shadowMatrixOuter1"></feMergeNode>
                <feMergeNode in="SourceGraphic"></feMergeNode>
            </feMerge>
        </filter>
    </defs>
    <g id="Badges" stroke="none" stroke-width="1" fill="none" fill-rule="evenodd">
        <g id="Get-started-with-Power-Automate-Buttons" transform="translate(-160.000000, -890.000000)">
            <g id="Get-started-with-Power-Automate-Buttons/Create-a-Power-Automate-Button-that-uses-a-physical-Button-input" transform="translate(160.000000, 890.000000)">
                <g id="Badge-Plates/Circle">
                    <g id="BG" transform="translate(2.830189, 2.830189)">
                        <mask id="mask-2" fill="white">
                            <use xlink:href="#path-1"></use>
                        </mask>
                        <g></g>
                        <g id="Colors/Microsoft-365/BG-Gradient-1" mask="url(#mask-2)" fill="url(#linearGradient-3)">
                            <rect id="Rectangle" x="0" y="0" width="94.3396226" height="94.3396226"></rect>
                        </g>
                    </g>
                    <g id="Border">
                        <g id="White-Border">
                            <use fill="black" fill-opacity="1" filter="url(#filter-5)" xlink:href="#path-4"></use>
                            <rect stroke="#F2F1F0" stroke-width="4" stroke-linejoin="square" x="2" y="2" width="96" height="96" rx="48"></rect>
                        </g>
                        <mask id="mask-7" fill="white">
                            <use xlink:href="#path-6"></use>
                        </mask>
                        <use id="Boarder" fill="#0078D4" fill-rule="nonzero" xlink:href="#path-6"></use>
                        <g id="Colors/Microsoft-365/Border" mask="url(#mask-7)" fill="#0076D7">
                            <g transform="translate(2.830189, 2.830189)" id="Microsoft-365/Border">
                                <rect x="0" y="0" width="94.3396226" height="94.3396226"></rect>
                            </g>
                        </g>
                    </g>
                </g>
                <g id="Oval">
                    <use fill="black" fill-opacity="1" filter="url(#filter-9)" xlink:href="#path-8"></use>
                    <use fill="#629E3F" fill-rule="evenodd" xlink:href="#path-8"></use>
                </g>
                <g id="noun_Power_3093788" transform="translate(35.000000, 21.000000)" fill="#FFFFFF" fill-rule="nonzero">
                    <path d="M12.5012424,25.9970877 C7.16080932,25.9946904 2.5240969,22.3406133 1.30493889,17.1735607 C0.085780883,12.0065082 2.60472169,6.68501606 7.38744371,4.32371461 C7.8585858,4.09012992 8.41933541,4.12407575 8.8584636,4.41276503 C9.29759179,4.7014543 9.54838454,5.20102826 9.51637065,5.72330223 C9.48435676,6.2455762 9.17439989,6.71120434 8.70325781,6.94478903 C5.11864417,8.71064454 3.24672391,12.7117058 4.19838509,16.5735493 C5.15004628,20.4353929 8.67050781,23.1241164 12.6705574,23.0441012 C16.6706071,22.964086 20.0793415,20.136754 20.8738528,16.2399808 C21.6683641,12.3432076 19.6359437,8.42024703 15.9827282,6.79917378 C15.5026868,6.58483773 15.1741732,6.13227785 15.1209355,5.61196909 C15.0676977,5.09166033 15.2978238,4.58264996 15.7246275,4.27667727 C16.1514311,3.97070458 16.7100708,3.9142541 17.1901122,4.12859019 C22.144729,6.3303153 24.8772336,11.6735326 23.7463103,16.9487667 C22.6153871,22.2240007 17.9286465,25.9963908 12.5012424,26 L12.5012424,25.9970877 Z" id="Path"></path>
                    <path d="M12.4865958,13.9997675 C11.6655716,13.9997675 11,13.3603806 11,12.5716569 L11,1.44096352 C11,0.645141342 11.6715618,0 12.4999752,0 C13.3283886,0 13.9999504,0.645141342 13.9999504,1.44096352 L13.9999504,12.560232 C14.0032238,12.945464 13.8443462,13.3156264 13.5593849,13.5866878 C13.2744236,13.8577491 12.8875523,14.0067147 12.4865958,13.9997675 L12.4865958,13.9997675 Z" id="Path"></path>
                </g>
                <g id="Click" transform="translate(59.500000, 55.500000) rotate(-31.000000) translate(-59.500000, -55.500000) translate(42.000000, 30.000000)">
                    <g id="Group-4" filter="url(#filter-10)" transform="translate(0.904762, 4.000000)">
                        <path d="M31.0549442,17.2106508 L24.0038216,12.7991304 C21.975721,11.5301826 19.3768945,11.6406295 17.4630977,13.0772341 L17.4630977,3.97291109 C17.4630977,2.11438328 15.869987,0.628514534 13.9760346,0.80967928 C12.3249781,0.967006559 11.1128804,2.31302884 11.1128804,3.97291109 L11.1128804,22.2483021 C11.1128804,22.2483021 6.54548654,18.7251245 5.62708636,18.203084 C4.10224042,17.3369894 2.24083295,17.0986147 1.00095301,18.3397522 C-0.238926928,19.5808896 -0.375456601,20.9348577 0.864423338,22.1759951 C1.20495374,22.5176655 9.06255395,31.7975912 13.1965455,35.7561998 L29.698379,35.7561998 C29.9547691,35.2476672 30.3548328,34.8146199 30.8946012,34.1670354 L31.814589,33.0617715 C32.7996664,31.8786386 33.3386411,30.9394424 33.3386411,29.3995421 L33.3386411,21.3353271 C33.3386411,19.6579641 32.4758054,18.0997883 31.0549442,17.2106508" id="Fill-49" fill="#EAC5A7"></path>
                        <path d="M16.3351404,16.478046 L17.4630977,17.9829848 L17.4630977,4.3702022 C17.4630977,3.71228812 16.9296795,3.17832887 16.272432,3.17832887 C15.6151845,3.17832887 15.0817662,3.71228812 15.0817662,4.3702022 L15.0817662,12.7133155 C15.0817662,14.0712565 15.5215188,15.3918521 16.3351404,16.478046" id="Fill-55" fill="#D9B090"></path>
                        <path d="M12.7004347,35.7561998 L30.1635325,35.7561998 C31.0406562,35.7561998 31.7510868,36.4673509 31.7510868,37.3453642 L31.7510868,40.5236931 L11.1128804,40.5236931 L11.1128804,37.3453642 C11.1128804,36.4673509 11.8233109,35.7561998 12.7004347,35.7561998" id="Fill-56" fill="#E1E4E1"></path>
                        <path d="M13.1965455,35.7561998 L21.7852144,35.7561998 C21.2351269,34.8098524 20.223061,34.1670354 19.0506521,34.1670354 L17.9012627,34.1670354 C15.9192011,34.1670354 14.0101671,33.395496 12.6020064,31.9986205 C9.51421316,28.9347115 4.63804001,23.3678684 2.176537,20.5216749 C1.30258834,19.5117609 -0.268296684,20.7743521 0.554056465,21.8271735 C0.646134616,21.9439771 0.749325649,22.0607807 0.864423338,22.1759951 C1.20495374,22.5176655 9.06255395,31.7975912 13.1965455,35.7561998" id="Fill-57" fill="#D9B090"></path>
                        <path d="M11.1128804,40.5236931 L31.7510868,40.5236931 C32.6282106,40.5236931 33.3386411,41.2348442 33.3386411,42.1128576 L33.3386411,46.8803509 L9.52532604,46.8803509 L9.52532604,42.1128576 C9.52532604,41.2348442 10.2357566,40.5236931 11.1128804,40.5236931" id="Fill-58" fill="#546670"></path>
                        <path d="M19.0506521,45.2911864 L9.52532604,45.2911864 L9.52532604,46.8803509 L33.3386411,46.8803509 L33.3386411,42.1128576 L22.2257608,42.1128576 C21.348637,42.1128576 20.6382064,42.8240086 20.6382064,43.702022 C20.6382064,44.5800353 19.9277759,45.2911864 19.0506521,45.2911864" id="Fill-59" fill="#3C4E5D"></path>
                        <path d="M12.7004347,38.9345287 L19.0506521,38.9345287 C19.9277759,38.9345287 20.6382064,38.2233776 20.6382064,37.3453642 C20.6382064,36.4673509 21.3494308,35.7561998 22.2257608,35.7561998 L30.1635325,35.7561998 C31.0406562,35.7561998 31.7510868,36.4673509 31.7510868,37.3453642 L31.7510868,40.5236931 L11.1128804,40.5236931 C11.1128804,39.6456798 11.8241047,38.9345287 12.7004347,38.9345287" id="Fill-60" fill="#CDD3D1"></path>
                        <path d="M28.5759781,37.3453642 C28.1378131,37.3453642 27.782201,37.7013371 27.782201,38.1399465 C27.782201,38.5785558 28.1378131,38.9345287 28.5759781,38.9345287 C29.0141431,38.9345287 29.3697553,38.5785558 29.3697553,38.1399465 C29.3697553,37.7013371 29.0141431,37.3453642 28.5759781,37.3453642" id="Fill-61" fill="#7694A3"></path>
                        <path d="M15.0817662,6.35665774 L13.4942119,6.35665774 C13.0560469,6.35665774 12.7004347,6.00068491 12.7004347,5.56207553 L12.7004347,3.97291109 C12.7004347,3.09489774 13.4108653,2.38374665 14.2879891,2.38374665 C15.1651128,2.38374665 15.8755434,3.09489774 15.8755434,3.97291109 L15.8755434,5.56207553 C15.8755434,6.00068491 15.5199312,6.35665774 15.0817662,6.35665774" id="Fill-62" fill="#F9D8BE"></path>
                        <path d="M14.2879891,5.56207553 C13.6561424,5.56207553 13.1155802,5.74800776 12.8599839,6.01498739 C13.0036576,6.21681127 13.2282965,6.35665774 13.4942119,6.35665774 L15.0817662,6.35665774 C15.3484754,6.35665774 15.5723205,6.21681127 15.7159942,6.01498739 C15.4603979,5.74800776 14.9198357,5.56207553 14.2879891,5.56207553" id="Fill-63" fill="#FFFFFE"></path>
                        <path d="M15.8755434,5.56207553 L15.8755434,3.97291109 C15.8755434,3.73771475 15.8215666,3.51602631 15.7294884,3.31499701 C15.346094,3.51284799 15.0817662,3.90854993 15.0817662,4.3702022 L15.0817662,6.35665774 C15.5199312,6.35665774 15.8755434,6.00068491 15.8755434,5.56207553" id="Fill-64" fill="#EAC5A7"></path>
                        <path d="M15.7159942,6.01498739 C15.5786707,5.87116801 15.3540318,5.75436442 15.0817662,5.67411162 L15.0817662,6.35665774 C15.3484754,6.35665774 15.5723205,6.21681127 15.7159942,6.01498739" id="Fill-65" fill="#F9D8BE"></path>
                    </g>
                    <g id="Group-8" transform="translate(7.904762, 0.000000)" fill="#5DC0FF">
                        <path d="M7.96363635,3.29224585 L7.96363635,3.29224585 C7.53062624,3.29224585 7.17919774,2.93283033 7.17919774,2.48997908 L7.17919774,0.885445549 C7.17919774,0.442594294 7.53062624,0.0831787833 7.96363635,0.0831787833 C8.39664647,0.0831787833 8.74807497,0.442594294 8.74807497,0.885445549 L8.74807497,2.48997908 C8.74807497,2.93283033 8.39664647,3.29224585 7.96363635,3.29224585" id="Fill-50"></path>
                        <path d="M12.670268,8.10584644 L12.670268,8.10584644 C12.670268,7.66299518 13.0216965,7.30357967 13.4547067,7.30357967 L15.0235839,7.30357967 C15.456594,7.30357967 15.8080225,7.66299518 15.8080225,8.10584644 C15.8080225,8.54869769 15.456594,8.9081132 15.0235839,8.9081132 L13.4547067,8.9081132 C13.0216965,8.9081132 12.670268,8.54869769 12.670268,8.10584644" id="Fill-51"></path>
                        <path d="M0.1192502,8.10584644 L0.1192502,8.10584644 C0.1192502,7.66299518 0.4706787,7.30357967 0.903688816,7.30357967 L2.47256605,7.30357967 C2.90557616,7.30357967 3.25700466,7.66299518 3.25700466,8.10584644 C3.25700466,8.54869769 2.90557616,8.9081132 2.47256605,8.9081132 L0.903688816,8.9081132 C0.4706787,8.9081132 0.1192502,8.54869769 0.1192502,8.10584644" id="Fill-52"></path>
                        <path d="M2.4168709,2.43301814 L2.4168709,2.43301814 C2.7235864,2.11933183 3.22013605,2.11933183 3.52606711,2.43301814 L4.63526331,3.56742335 C4.94197881,3.88110965 4.94197881,4.38894451 4.63526331,4.70182855 C4.32933225,5.01551486 3.8327826,5.01551486 3.52606711,4.70182855 L2.4168709,3.56742335 C2.11015541,3.25453931 2.11015541,2.74590218 2.4168709,2.43301814" id="Fill-53"></path>
                        <path d="M11.2920094,4.70182855 L11.2920094,4.70182855 C10.9852939,4.38894451 10.9852939,3.88110965 11.2920094,3.56742335 L12.4012056,2.43301814 C12.7071367,2.11933183 13.2044707,2.11933183 13.5104018,2.43301814 C13.8171173,2.74590218 13.8171173,3.25453931 13.5104018,3.56742335 L12.4012056,4.70182855 C12.0944901,5.01551486 11.5979405,5.01551486 11.2920094,4.70182855" id="Fill-54"></path>
                    </g>
                </g>
            </g>
        </g>
    </g>
</svg>