<svg width="103" height="103" viewBox="0 0 103 103" fill="none" xmlns="http://www.w3.org/2000/svg">
<path d="M51.696 98.368C25.846 98.368 4.88605 77.418 4.88605 51.558C4.88605 25.698 25.846 4.74805 51.696 4.74805C77.546 4.74805 98.506 25.708 98.506 51.558C98.506 77.408 77.546 98.368 51.696 98.368Z" fill="url(#paint0_linear_331_15029)"/>
<path fill-rule="evenodd" clip-rule="evenodd" d="M97.596 51.558C97.596 76.908 77.046 97.458 51.696 97.458C26.346 97.458 5.79603 76.908 5.79603 51.558C5.79603 26.208 26.346 5.65797 51.696 5.65797C77.046 5.65797 97.596 26.208 97.596 51.558ZM51.696 1.91797C79.116 1.91797 101.336 24.138 101.336 51.558C101.336 78.978 79.106 101.198 51.696 101.198C24.276 101.198 2.05603 78.968 2.05603 51.558C2.05603 24.138 24.276 1.91797 51.696 1.91797Z" fill="#F2F1F0"/>
<path fill-rule="evenodd" clip-rule="evenodd" d="M94.786 51.5585C94.786 75.3585 75.496 94.6485 51.696 94.6485C27.896 94.6485 8.60603 75.3585 8.60603 51.5585C8.60603 27.7585 27.896 8.46852 51.696 8.46852C75.496 8.46852 94.786 27.7585 94.786 51.5585ZM51.696 4.72852C77.556 4.72852 98.526 25.6985 98.526 51.5585C98.526 77.4185 77.556 98.3885 51.696 98.3885C25.836 98.3885 4.86603 77.4185 4.86603 51.5585C4.86603 25.6985 25.826 4.72852 51.696 4.72852Z" fill="url(#paint1_linear_331_15029)"/>
<path opacity="0.15" d="M73.8412 24.1413L30.0412 23.7813C29.0912 23.7713 28.3212 24.5313 28.3212 25.4813L27.8512 82.6413C27.8412 83.5913 28.6012 84.3613 29.5512 84.3613L73.3512 84.7213C74.3012 84.7313 75.0712 83.9713 75.0712 83.0213L75.5412 25.8613C75.5312 24.9213 74.7712 24.1513 73.8412 24.1413Z" fill="#1F1D20"/>
<path d="M73.8512 22.3308L30.0512 21.9708C29.1012 21.9608 28.3312 22.7208 28.3312 23.6708L27.8512 80.8208C27.8412 81.7708 28.6012 82.5408 29.5512 82.5408L73.3512 82.9008C74.3012 82.9108 75.0712 82.1508 75.0712 81.2008L75.5412 24.0408C75.5412 23.1108 74.7912 22.3408 73.8512 22.3308Z" fill="#F2F2F2"/>
<path opacity="0.15" d="M70.8013 24.291H32.5913V77.501H70.8013V24.291Z" fill="#1F1D20"/>
<path d="M70.8013 23.6797H32.5913V76.8897H70.8013V23.6797Z" fill="white"/>
<path fill-rule="evenodd" clip-rule="evenodd" d="M53.9811 15.6901C55.2211 16.3601 55.9411 17.6901 55.9311 19.0901V19.4301C55.9311 19.5601 55.9211 19.6701 55.9111 19.8001L58.6011 19.8201C59.4011 19.8301 60.1511 20.2301 60.5511 20.9301C61.6711 22.9201 60.2511 24.9401 58.3811 24.9201L44.8011 24.8201C44.0011 24.8101 43.2511 24.4101 42.8511 23.7101C41.7311 21.7201 43.1511 19.7001 45.0211 19.7201L47.5211 19.7401C47.5111 19.6201 47.5111 19.5001 47.5111 19.3701V19.2601C47.5511 16.2201 50.7811 13.9701 53.9811 15.6901Z" fill="#243A5E"/>
<path d="M51.6814 21.2592C52.6414 21.2692 53.4214 20.4992 53.4314 19.5392C53.4414 18.5792 52.6714 17.7992 51.7114 17.7892C50.7514 17.7792 49.9714 18.5492 49.9614 19.5092C49.9614 20.4692 50.7214 21.2492 51.6814 21.2592Z" fill="#F2F2F2"/>
<path d="M75.043 60.2019L73.643 61.5519L77.103 65.1419L79.193 63.0519L78.513 59.9219L75.043 60.2019Z" fill="url(#paint2_linear_331_15029)"/>
<path d="M62.643 72.5623L61.243 73.9023L64.743 77.4823L66.753 75.4623L66.083 72.3223L62.643 72.5623Z" fill="url(#paint3_linear_331_15029)"/>
<path d="M79.003 59.7026C78.033 58.7326 76.833 58.3526 76.303 58.8426H76.293L74.763 60.3926C74.753 60.4026 74.763 60.4226 74.783 60.4126C75.363 60.0926 76.463 60.4926 77.373 61.3826C78.193 62.2026 78.593 63.1826 78.423 63.7926C78.423 63.8126 78.433 63.8226 78.443 63.8026L79.843 62.4126L79.853 62.4026C79.853 62.4026 79.853 62.4026 79.853 62.3926L79.863 62.3826C80.353 61.8826 79.973 60.6826 79.003 59.7026Z" fill="#092E4C"/>
<path d="M76.483 62.2234C75.523 61.2634 74.343 60.8834 73.793 61.3534L62.323 72.8234C62.303 72.8434 62.323 72.8834 62.353 72.8734C62.963 72.6434 63.973 73.0334 64.833 73.8934C65.633 74.6934 66.033 75.6434 65.893 76.2634C65.883 76.2934 65.933 76.3234 65.953 76.2934L77.353 64.8934C77.823 64.3634 77.453 63.1834 76.483 62.2234Z" fill="#092E4C"/>
<path d="M63.923 74.783C62.933 73.793 61.723 73.423 61.203 73.923V73.933L60.263 77.443C60.413 77.293 60.503 77.563 60.783 77.843C61.073 78.123 60.963 78.073 60.813 78.223L60.143 78.823L64.773 77.503C65.283 76.983 64.903 75.763 63.923 74.783Z" fill="#FFBB00"/>
<path d="M61.053 77.694C60.773 77.414 60.423 77.294 60.263 77.444L59.953 78.634C59.923 78.754 60.033 78.854 60.143 78.824L61.303 78.484C61.453 78.334 61.343 77.974 61.053 77.694Z" fill="#092E4C"/>
<path d="M47.1008 58.2049H46.2318V40.477L56.3123 40.4336L56.334 41.3026L47.1008 41.3461V58.2049Z" fill="#9B9BA0"/>
<path d="M50.9256 48.6016H47.7755V49.4706H50.9256V48.6016Z" fill="#9B9BA0"/>
<path d="M50.4678 50.645L53.2487 49.0374L50.4678 47.4297V50.645Z" fill="#9B9BA0"/>
<path d="M41.5601 48.6016H38.4099V49.4706H41.5601V48.6016Z" fill="#9B9BA0"/>
<path d="M41.084 50.645L43.8649 49.0374L41.084 47.4297V50.645Z" fill="#9B9BA0"/>
<path d="M61.0479 48.6016H57.8977V49.4706H61.0479V48.6016Z" fill="#9B9BA0"/>
<path d="M60.5931 50.645L63.374 49.0374L60.5931 47.4297V50.645Z" fill="#9B9BA0"/>
<path d="M59.1808 38.1309H53.6191V43.7143H59.2025V38.1309H59.1808Z" fill="#FDC4C5"/>
<path d="M69.9125 49.0381L66.6537 45.7793L63.3949 49.0381L66.6537 52.2969L69.9125 49.0381Z" fill="#D166CB"/>
<path d="M49.4267 46.2559H43.8433V51.8175H49.4267V46.2559Z" fill="#FD7853"/>
<path d="M47.9055 54.4688H45.3853C44.538 54.4688 43.8646 55.1422 43.8646 55.9895V58.5097C43.8646 59.3569 44.538 60.0304 45.3853 60.0304H47.9055C48.7528 60.0304 49.4262 59.3569 49.4262 58.5097V55.9895C49.4262 55.1422 48.731 54.4688 47.9055 54.4688Z" fill="#83462B"/>
<path d="M48.253 38.1309H45.0377L43.43 40.9117L45.0377 43.6925H48.253L49.8607 40.9117L48.253 38.1309Z" fill="#FFB39D"/>
<path d="M36.8686 52.209C38.6284 52.209 40.0405 50.7969 40.0405 49.0371C40.0405 47.2774 38.6284 45.8652 36.8686 45.8652C35.1089 45.8652 33.6967 47.2774 33.6967 49.0371C33.6967 50.7969 35.1089 52.209 36.8686 52.209Z" fill="#FDBE52"/>
<path d="M56.399 52.209C58.1588 52.209 59.5709 50.7969 59.5709 49.0371C59.5709 47.2774 58.1588 45.8652 56.399 45.8652C54.6393 45.8652 53.2271 47.2774 53.2271 49.0371C53.2271 50.7969 54.661 52.209 56.399 52.209Z" fill="#FD5A5F"/>
<defs>
<linearGradient id="paint0_linear_331_15029" x1="49.9221" y1="-13.2315" x2="53.9041" y2="132.539" gradientUnits="userSpaceOnUse">
<stop stop-color="#00ABDE"/>
<stop offset="1" stop-color="#007ED8"/>
</linearGradient>
<linearGradient id="paint1_linear_331_15029" x1="3.12643" y1="-20.0641" x2="98.654" y2="120.817" gradientUnits="userSpaceOnUse">
<stop stop-color="#007ED8"/>
<stop offset="0.7065" stop-color="#002D4C"/>
</linearGradient>
<linearGradient id="paint2_linear_331_15029" x1="73.6447" y1="62.5332" x2="79.19" y2="62.5332" gradientUnits="userSpaceOnUse">
<stop stop-color="#388CF4"/>
<stop offset="1" stop-color="#2C7CEF"/>
</linearGradient>
<linearGradient id="paint3_linear_331_15029" x1="61.2431" y1="74.8997" x2="66.7529" y2="74.8997" gradientUnits="userSpaceOnUse">
<stop stop-color="#388CF4"/>
<stop offset="1" stop-color="#2C7CEF"/>
</linearGradient>
</defs>
</svg>
