<?xml version="1.0" encoding="UTF-8"?>
<svg width="101px" height="101px" viewBox="0 0 101 101" version="1.1" xmlns="http://www.w3.org/2000/svg" xmlns:xlink="http://www.w3.org/1999/xlink">
    <!-- Generator: Sketch 63.1 (92452) - https://sketch.com -->
    <title>Use best practices to secure and govern Power Automate environments/Plan-and-manage-your-Power-Automate-environment</title>
    <desc>Created with Sketch.</desc>
    <defs>
        <rect id="path-1" x="0" y="0" width="94.3396226" height="94.3396226" rx="47.1698113"></rect>
        <linearGradient x1="77.8299825%" y1="11.1997378%" x2="-99.6885927%" y2="253.807911%" id="linearGradient-3">
            <stop stop-color="#FFFFFF" offset="0%"></stop>
            <stop stop-color="#000000" stop-opacity="0.5" offset="100%"></stop>
        </linearGradient>
        <rect id="path-4" x="0" y="0" width="94.3396226" height="94.3396226"></rect>
        <rect id="path-5" x="0" y="0" width="100" height="100" rx="50"></rect>
        <filter x="-0.5%" y="-0.5%" width="102.0%" height="102.0%" filterUnits="objectBoundingBox" id="filter-6">
            <feOffset dx="1" dy="1" in="SourceAlpha" result="shadowOffsetOuter1"></feOffset>
            <feMorphology radius="4" operator="erode" in="SourceAlpha" result="shadowInner"></feMorphology>
            <feOffset dx="1" dy="1" in="shadowInner" result="shadowInner"></feOffset>
            <feComposite in="shadowOffsetOuter1" in2="shadowInner" operator="out" result="shadowOffsetOuter1"></feComposite>
            <feColorMatrix values="0 0 0 0 0   0 0 0 0 0   0 0 0 0 0  0 0 0 0.15 0" type="matrix" in="shadowOffsetOuter1"></feColorMatrix>
        </filter>
        <path d="M50,2.83018868 C76.0511674,2.83018868 97.1698113,23.9488326 97.1698113,50 C97.1698113,76.0511674 76.0511674,97.1698113 50,97.1698113 C23.9488326,97.1698113 2.83018868,76.0511674 2.83018868,50 C2.83018868,23.9488326 23.9488326,2.83018868 50,2.83018868 Z M50,6.60377358 C26.032926,6.60377358 6.60377358,26.032926 6.60377358,50 C6.60377358,73.967074 26.032926,93.3962264 50,93.3962264 C73.967074,93.3962264 93.3962264,73.967074 93.3962264,50 C93.3962264,26.032926 73.967074,6.60377358 50,6.60377358 Z" id="path-7"></path>
        <filter x="-25.5%" y="-21.8%" width="151.1%" height="143.6%" filterUnits="objectBoundingBox" id="filter-9">
            <feOffset dx="0" dy="2" in="SourceAlpha" result="shadowOffsetOuter1"></feOffset>
            <feGaussianBlur stdDeviation="2" in="shadowOffsetOuter1" result="shadowBlurOuter1"></feGaussianBlur>
            <feColorMatrix values="0 0 0 0 0   0 0 0 0 0   0 0 0 0 0  0 0 0 0.1 0" type="matrix" in="shadowBlurOuter1" result="shadowMatrixOuter1"></feColorMatrix>
            <feMerge>
                <feMergeNode in="shadowMatrixOuter1"></feMergeNode>
                <feMergeNode in="SourceGraphic"></feMergeNode>
            </feMerge>
        </filter>
        <linearGradient x1="50%" y1="100%" x2="50%" y2="0%" id="linearGradient-10">
            <stop stop-color="#D2EBFF" offset="0%"></stop>
            <stop stop-color="#F0FFFD" offset="100%"></stop>
        </linearGradient>
        <linearGradient x1="50%" y1="0%" x2="50%" y2="100%" id="linearGradient-11">
            <stop stop-color="#B3DC93" offset="0%"></stop>
            <stop stop-color="#7CB65A" offset="100%"></stop>
        </linearGradient>
        <polygon id="path-12" points="0 0.013324026 14.3076107 0.013324026 14.3076107 9.30167143 0 9.30167143"></polygon>
    </defs>
    <g id="Badges" stroke="none" stroke-width="1" fill="none" fill-rule="evenodd">
        <g id="Use-best-practices-to-secure-and-govern-Power-Automate-environments" transform="translate(-160.000000, -700.000000)">
            <g id="Use-best-practices-to-secure-and-govern-Power-Automate-environments/Plan-and-manage-your-Power-Automate-environment" transform="translate(160.000000, 700.000000)">
                <g id="Badge-Plates/Circle">
                    <g id="BG" transform="translate(2.830189, 2.830189)">
                        <mask id="mask-2" fill="white">
                            <use xlink:href="#path-1"></use>
                        </mask>
                        <g></g>
                        <g id="Colors/Microsoft-365/BG-Solid-Badge" mask="url(#mask-2)">
                            <g id="Rectangle">
                                <use fill="#0078D4" xlink:href="#path-4"></use>
                                <use fill-opacity="0.4" fill="url(#linearGradient-3)" xlink:href="#path-4"></use>
                            </g>
                        </g>
                    </g>
                    <g id="Border">
                        <g id="White-Border">
                            <use fill="black" fill-opacity="1" filter="url(#filter-6)" xlink:href="#path-5"></use>
                            <rect stroke="#F2F1F0" stroke-width="4" stroke-linejoin="square" x="2" y="2" width="96" height="96" rx="48"></rect>
                        </g>
                        <mask id="mask-8" fill="white">
                            <use xlink:href="#path-7"></use>
                        </mask>
                        <use id="Boarder" fill="#0078D4" fill-rule="nonzero" xlink:href="#path-7"></use>
                        <g id="Colors/Microsoft-365/Border" mask="url(#mask-8)" fill="#0076D7">
                            <g transform="translate(2.830189, 2.830189)" id="Microsoft-365/Border">
                                <rect x="0" y="0" width="94.3396226" height="94.3396226"></rect>
                            </g>
                        </g>
                    </g>
                </g>
                <g id="Document" filter="url(#filter-9)" transform="translate(26.000000, 21.000000)">
                    <g id="Group">
                        <path d="M26.6295219,0.0512947114 L2.24432922,0.0512947114 C1.17666372,0.0512947114 0.311149826,0.898313606 0.311149826,1.94316436 L0.311149826,53.0568356 C0.311149826,54.1016864 1.17666372,54.9487053 2.24432922,54.9487053 L44.231629,54.9487053 C45.2992945,54.9487053 46.1648084,54.1016864 46.1648084,53.0568356 L46.1648084,19.2355168 C46.1648084,18.190666 45.2992945,17.3436471 44.231629,17.3436471 L30.2923881,17.3436471 C29.2434536,17.3436471 28.3931241,16.5114882 28.3931241,15.4849682 L28.3931241,1.94316436 C28.413753,0.953592451 27.6383436,0.121787222 26.6295219,0.0512947114 Z" id="Path" fill="url(#linearGradient-10)" fill-rule="nonzero"></path>
                        <ellipse id="Oval" fill="#83B9F9" cx="10.0304878" cy="28.3418367" rx="2.00609756" ry="1.96428571"></ellipse>
                        <ellipse id="Oval" fill="#83B9F9" cx="10.0304878" cy="35.6377551" rx="2.00609756" ry="1.96428571"></ellipse>
                        <ellipse id="Oval" fill="#83B9F9" cx="10.0304878" cy="43.494898" rx="2.00609756" ry="1.96428571"></ellipse>
                        <path d="M46.4268293,18.5204082 L27.5121951,0 L27.5121951,15.0060992 C27.5121951,16.9469985 29.1100008,18.5204082 31.080994,18.5204082 L46.4268293,18.5204082 Z" id="Path" fill="#92C4FC" fill-rule="nonzero"></path>
                    </g>
                    <path d="M37.3693767,27 L17.5036859,27 C16.7851041,27 16.2025784,27.5786582 16.2025784,28.2924694 C16.2025784,29.0062805 16.7851041,29.5849387 17.5036859,29.5849387 L37.4963141,29.5849387 C38.2148959,29.5849387 38.7974216,29.0062805 38.7974216,28.2924694 C38.7974216,27.5786582 38.2148959,27 37.4963141,27 L37.3693767,27 Z M37.3693767,34.6917688 L17.5036859,34.6917688 C16.9963105,34.6123277 16.4893714,34.8368335 16.2097306,35.2648169 C15.9300898,35.6928003 15.9300898,36.2441524 16.2097306,36.6721358 C16.4893714,37.1001192 16.9963105,37.324625 17.5036859,37.2451839 L37.4963141,37.2451839 C38.0036895,37.324625 38.5106286,37.1001192 38.7902694,36.6721358 C39.0699102,36.2441524 39.0699102,35.6928003 38.7902694,35.2648169 C38.5106286,34.8368335 38.0036895,34.6123277 37.4963141,34.6917688 L37.3693767,34.6917688 Z M37.3693767,42.4150613 L17.5036859,42.4150613 C16.7851041,42.4150613 16.2025784,42.9937195 16.2025784,43.7075306 C16.2025784,44.4213418 16.7851041,45 17.5036859,45 L37.4963141,45 C38.2148959,45 38.7974216,44.4213418 38.7974216,43.7075306 C38.7974216,42.9937195 38.2148959,42.4150613 37.4963141,42.4150613 L37.3693767,42.4150613 Z" id="Shape" fill="#83B9F9" fill-rule="nonzero"></path>
                </g>
                <g id="Group-3" transform="translate(55.000000, 57.000000)" fill="url(#linearGradient-11)">
                    <g id="Group-4">
                        <g id="Group-2">
                            <circle id="Oval" cx="12" cy="12" r="12"></circle>
                        </g>
                    </g>
                </g>
                <g id="Group-4" transform="translate(58.000000, 61.000000)">
                    <g id="Group-6">
                        <path d="M14.4735208,13.5218141 C15.8193456,12.394342 16.6242788,10.9298853 16.776153,9.355809 L17.994806,9.36500785 L16.0427654,6.47365647 L14.029975,9.33541822 L15.1798272,9.34415713 C15.0363702,10.5659175 14.3972177,11.7012087 13.3489199,12.5795454 C12.147833,13.5858995 10.5496775,14.1402834 8.85088239,14.1402834 C7.15117241,14.1402834 5.55411474,13.5858995 4.35211293,12.5795454 C4.04269216,12.319678 3.53857966,12.319678 3.22824398,12.5795454 C2.9169934,12.8395662 2.9169934,13.2619467 3.22824398,13.5218141 C4.73033454,14.7803699 6.72629066,15.4736565 8.85088239,15.4736565 C10.9743762,15.4736565 12.9714302,14.7803699 14.4735208,13.5218141 Z" id="Fill-1" fill="#FFFFFF"></path>
                        <g id="Group-5" transform="translate(0.414761, 0.609524)">
                            <mask id="mask-13" fill="white">
                                <use xlink:href="#path-12"></use>
                            </mask>
                            <g id="Clip-4"></g>
                            <path d="M2.68252766,6.36162814 C2.79799897,5.07817413 3.40989227,3.88683106 4.43762183,2.96509621 C5.58343913,1.93811407 7.1058464,1.37262489 8.72610775,1.37262489 C10.345497,1.37262489 11.8689508,1.93811407 13.0137215,2.96509621 C13.3095514,3.23032565 13.7892283,3.23032565 14.0857558,2.96509621 C14.3815856,2.699554 14.3815856,2.26949448 14.0857558,2.00395227 C12.6540511,0.720498268 10.7505187,0.013324026 8.72628218,0.013324026 C6.70099909,0.013324026 4.79833886,0.720498268 3.3664597,2.00395227 C2.04830758,3.186225 1.27716155,4.72239762 1.16186467,6.37398258 L-1.10844667e-12,6.38305292 L1.9187076,9.30167143 L3.77880741,6.35287056 L2.68252766,6.36162814 Z" id="Fill-3" fill="#FFFFFF" mask="url(#mask-13)"></path>
                        </g>
                    </g>
                    <g id="Gear" transform="translate(5.165307, 4.988842)" fill="#FFFFFF" fill-rule="nonzero">
                        <path d="M7.41476125,3.42639676 L7.41476125,2.61981239 L6.59038108,2.33174655 L6.38790174,1.78442145 L6.79286042,0.93462721 L6.79286042,0.848207457 L6.53252984,0.588948197 L6.22881083,0.243269185 L6.11310835,0.243269185 L5.303191,0.67536795 L4.75360422,0.516931736 L4.39203397,-0.390475671 L3.59657943,-0.390475671 L3.32178604,0.430511983 L2.71434802,0.67536795 L1.77426538,0.228865893 L1.21021579,0.790594288 L1.21021579,0.891417333 L1.62963728,1.6980017 L1.38376951,2.30293997 L0.414761247,2.66302227 L0.414761247,3.46960663 L0.530463727,3.46960663 L1.38376951,3.75767248 L1.61517447,4.30499758 L1.18129017,5.24121157 L1.74533976,5.81734326 L1.86104224,5.81734326 L2.65649678,5.41405108 L3.22054637,5.64450375 L3.56765381,6.60952433 L4.37757116,6.60952433 L4.37757116,6.49429799 L4.65236455,5.63010046 L5.20195133,5.39964779 L6.15649678,5.84614984 L6.72054637,5.28442145 L6.72054637,5.16919511 L6.31558769,4.36261075 L6.4746786,3.80088235 L7.41476125,3.42639676 Z M3.92150566,4.22475648 C3.3446383,4.16281691 2.90871184,3.6993261 2.90871184,3.14792203 C2.90871184,2.59651796 3.3446383,2.13302715 3.92150566,2.07108759 C4.22277074,2.06741877 4.51302877,2.17852629 4.72742548,2.37958468 C4.94182218,2.58064306 5.06248883,2.85489523 5.06246407,3.14106321 C5.06638438,3.42960192 4.9474359,3.70741229 4.73260899,3.91145695 C4.51778208,4.11550162 4.2252915,4.22848002 3.92150566,4.22475648 Z" id="Shape"></path>
                    </g>
                </g>
            </g>
        </g>
    </g>
</svg>