<svg width="103" height="103" viewBox="0 0 103 103" fill="none" xmlns="http://www.w3.org/2000/svg">
<path d="M51.2822 98.5708C25.4322 98.5708 4.47217 77.6208 4.47217 51.7608C4.47217 25.9008 25.4322 4.95081 51.2822 4.95081C77.1322 4.95081 98.0922 25.9108 98.0922 51.7608C98.0922 77.6108 77.1322 98.5708 51.2822 98.5708Z" fill="url(#paint0_linear)"/>
<path fill-rule="evenodd" clip-rule="evenodd" d="M97.1821 51.7608C97.1821 77.1108 76.6321 97.6609 51.2821 97.6609C25.9321 97.6609 5.38209 77.1108 5.38209 51.7608C5.38209 26.4108 25.9321 5.86085 51.2821 5.86085C76.6321 5.86085 97.1821 26.4108 97.1821 51.7608ZM51.2821 2.12085C78.7021 2.12085 100.922 24.3408 100.922 51.7608C100.922 79.1808 78.6921 101.401 51.2821 101.401C23.8621 101.401 1.64209 79.1708 1.64209 51.7608C1.64209 24.3408 23.8621 2.12085 51.2821 2.12085Z" fill="#F2F1F0"/>
<path fill-rule="evenodd" clip-rule="evenodd" d="M94.3721 51.7609C94.3721 75.5609 75.0821 94.8509 51.2822 94.8509C27.4822 94.8509 8.19215 75.5609 8.19215 51.7609C8.19215 27.9609 27.4822 8.67091 51.2822 8.67091C75.0821 8.67091 94.3721 27.9609 94.3721 51.7609ZM51.2822 4.93091C77.1422 4.93091 98.1122 25.9009 98.1122 51.7609C98.1122 77.6209 77.1422 98.5909 51.2822 98.5909C25.4221 98.5909 4.45215 77.6209 4.45215 51.7609C4.45215 25.9009 25.4121 4.93091 51.2822 4.93091Z" fill="url(#paint1_linear)"/>
<path opacity="0.15" d="M18.262 74.5009H68.762C69.412 74.5009 69.942 73.9709 69.942 73.3209V33.7909H17.082V73.3209C17.082 73.9709 17.612 74.5009 18.262 74.5009Z" fill="#1F1D20"/>
<path d="M18.092 73.1809H68.942C69.492 73.1809 69.952 72.731 69.952 72.171V32.4709H17.082V72.171C17.082 72.721 17.532 73.1809 18.092 73.1809Z" fill="#EBEBEB"/>
<path d="M17.082 36.861H69.952V32.121C69.952 31.691 69.612 31.351 69.182 31.351H17.852C17.422 31.351 17.082 31.691 17.082 32.121V36.861Z" fill="#092E4C"/>
<path d="M21.152 35.561C21.892 35.561 22.492 34.961 22.492 34.221C22.492 33.471 21.882 32.881 21.152 32.881C20.412 32.881 19.812 33.481 19.812 34.221C19.812 34.961 20.392 35.561 21.152 35.561Z" fill="#32B0E7"/>
<path d="M55.3024 53.3808H36.3524C35.6224 48.4908 31.4024 44.7208 26.3324 44.7208C25.3524 44.7208 24.4424 44.9108 23.5524 45.1608C23.5324 45.1608 23.5324 45.1608 23.5124 45.1608L23.4724 45.0908V48.3108C24.0224 48.0608 24.6024 47.8608 25.1824 47.7508C25.5724 47.6908 25.9524 47.6508 26.3324 47.6508C30.2924 47.6508 33.5324 50.8808 33.5324 54.8508C33.5324 58.8108 30.3024 62.0508 26.3324 62.0508C25.3024 62.0508 24.3424 61.8308 23.4624 61.4408V64.5808C24.3724 64.8508 25.3324 65.0008 26.3324 65.0008C31.4224 65.0008 35.6524 61.2108 36.3624 56.3108H55.3024V53.3808V53.3808Z" fill="url(#paint2_linear)"/>
<path d="M22.4324 56.3208C23.0324 57.9108 24.5424 59.0308 26.3224 59.0308C28.6224 59.0308 30.4924 57.1608 30.4924 54.8608C30.4924 52.5608 28.6224 50.6908 26.3224 50.6908C24.5524 50.6908 23.0324 51.8108 22.4324 53.3808H16.9824V56.3208H22.4324V56.3208Z" fill="url(#paint3_linear)"/>
<path d="M68.7222 65.2108H64.5322C64.2522 65.2108 64.0322 64.9908 64.0322 64.7108V45.9108C64.0322 45.6308 64.2522 45.4108 64.5322 45.4108H68.7222V46.4108H65.0322V64.2008H68.7222V65.2108Z" fill="#78787D"/>
<path d="M64.5426 54.9907H61.3926V55.9907H64.5426V54.9907Z" fill="#78787D"/>
<path opacity="0.15" d="M60.6722 65.2109H41.9222C41.3922 65.2109 40.9722 64.7809 40.9722 64.2609V47.5909C40.9722 47.0609 41.3922 46.6409 41.9222 46.6409H60.6822C61.2122 46.6409 61.6322 47.0609 61.6322 47.5909V64.2609C61.6222 64.7809 61.1922 65.2109 60.6722 65.2109Z" fill="#1F1D20"/>
<path d="M60.6722 64.0308H41.9222C41.3922 64.0308 40.9722 63.6108 40.9722 63.0808V46.4208C40.9722 45.8908 41.3922 45.4708 41.9222 45.4708H60.6822C61.2122 45.4708 61.6322 45.8908 61.6322 46.4208V63.0808C61.6222 63.6108 61.1922 64.0308 60.6722 64.0308Z" fill="white"/>
<path d="M57.532 50.9508C57.532 50.5608 57.212 50.2308 56.812 50.2308H45.722C45.332 50.2308 45.002 50.5508 45.002 50.9508C45.002 51.3408 45.322 51.6708 45.722 51.6708H56.812C57.212 51.6608 57.532 51.3508 57.532 50.9508Z" fill="#50E6FF"/>
<path d="M47.6821 50.9509C47.6821 51.7409 48.3221 52.3709 49.1021 52.3709C49.8921 52.3709 50.5221 51.7309 50.5221 50.9509C50.5221 50.1609 49.8821 49.5309 49.1021 49.5309C48.3121 49.5209 47.6821 50.1609 47.6821 50.9509Z" fill="#0D3868"/>
<path d="M57.532 54.5708C57.532 54.1808 57.212 53.8508 56.812 53.8508H45.722C45.332 53.8508 45.002 54.1708 45.002 54.5708C45.002 54.9608 45.322 55.2908 45.722 55.2908H56.812C57.212 55.2908 57.532 54.9708 57.532 54.5708Z" fill="#32B0E7"/>
<path d="M51.9727 54.5709C51.9727 55.3609 52.6127 55.9909 53.3927 55.9909C54.1727 55.9909 54.8127 55.3509 54.8127 54.5709C54.8127 53.7809 54.1727 53.1509 53.3927 53.1509C52.6127 53.1509 51.9727 53.7809 51.9727 54.5709Z" fill="#0D3868"/>
<path d="M57.532 58.4008C57.532 58.0108 57.212 57.6808 56.812 57.6808H45.722C45.332 57.6808 45.002 58.0008 45.002 58.4008C45.002 58.7908 45.322 59.1208 45.722 59.1208H56.812C57.212 59.1208 57.532 58.8008 57.532 58.4008Z" fill="#185A97"/>
<path d="M47.7319 58.4008C47.7319 59.1908 48.3719 59.8208 49.1519 59.8208C49.9419 59.8208 50.5719 59.1808 50.5719 58.4008C50.5719 57.6108 49.9319 56.9808 49.1519 56.9808C48.3619 56.9708 47.7319 57.6208 47.7319 58.4008Z" fill="#0D3868"/>
<path opacity="0.15" d="M86.9422 42.121H66.7422V53.951C66.7422 54.311 67.0422 54.591 67.3822 54.591H86.2822C86.6422 54.591 86.9222 54.291 86.9222 53.951L86.9422 42.121Z" fill="#1F1D20"/>
<path d="M86.9422 41.361H66.7422V53.191C66.7422 53.551 67.0422 53.831 67.3822 53.831H86.2822C86.6422 53.831 86.9222 53.531 86.9222 53.191L86.9422 41.361Z" fill="#D5F9FD"/>
<path d="M86.2517 39.611H67.4417C67.0517 39.611 66.7617 39.921 66.7617 40.291V41.771H86.9517V40.291C86.9417 39.921 86.6417 39.611 86.2517 39.611Z" fill="#32B0E7"/>
<path d="M79.7322 44.291L75.4222 48.611L74.1322 47.311L73.2822 48.181L75.4322 50.331L80.5922 45.161L79.7322 44.291Z" fill="#32B0E7"/>
<path opacity="0.15" d="M86.9422 58.1708H66.7422V70.0008C66.7422 70.3608 67.0422 70.6408 67.3822 70.6408H86.2822C86.6422 70.6408 86.9222 70.3408 86.9222 70.0008L86.9422 58.1708Z" fill="#1F1D20"/>
<path d="M86.9422 57.4108H66.7422V69.2408C66.7422 69.6008 67.0422 69.8808 67.3822 69.8808H86.2822C86.6422 69.8808 86.9222 69.5808 86.9222 69.2408L86.9422 57.4108Z" fill="#ACF3FD"/>
<path d="M86.2517 55.6608H67.4417C67.0517 55.6608 66.7617 55.9708 66.7617 56.3408V57.8208H86.9517V56.3408C86.9417 55.9708 86.6417 55.6608 86.2517 55.6608Z" fill="#185A97"/>
<path d="M79.7322 60.6608L75.4222 64.9808L74.1322 63.6808L73.2822 64.5508L75.4322 66.7008L80.5922 61.5308L79.7322 60.6608Z" fill="#185A97"/>
<defs>
<linearGradient id="paint0_linear" x1="49.5127" y1="-13.029" x2="53.4947" y2="132.741" gradientUnits="userSpaceOnUse">
<stop stop-color="#00ABDE"/>
<stop offset="1" stop-color="#007ED8"/>
</linearGradient>
<linearGradient id="paint1_linear" x1="2.71535" y1="-19.8639" x2="98.243" y2="121.017" gradientUnits="userSpaceOnUse">
<stop stop-color="#007ED8"/>
<stop offset="0.7065" stop-color="#002D4C"/>
</linearGradient>
<linearGradient id="paint2_linear" x1="11.3733" y1="32.0322" x2="61.8677" y2="80.6212" gradientUnits="userSpaceOnUse">
<stop stop-color="#007ED8"/>
<stop offset="0.7065" stop-color="#002D4C"/>
</linearGradient>
<linearGradient id="paint3_linear" x1="16.2885" y1="47.0598" x2="43.2114" y2="74.8457" gradientUnits="userSpaceOnUse">
<stop stop-color="#007ED8"/>
<stop offset="0.7065" stop-color="#002D4C"/>
</linearGradient>
</defs>
</svg>
