<svg width="103" height="103" viewBox="0 0 103 103" fill="none" xmlns="http://www.w3.org/2000/svg">
<path d="M51.4511 98.6268C25.6011 98.6268 4.64111 77.6768 4.64111 51.8168C4.64111 25.9568 25.6011 5.00684 51.4511 5.00684C77.3011 5.00684 98.2611 25.9668 98.2611 51.8168C98.2611 77.6668 77.3011 98.6268 51.4511 98.6268Z" fill="url(#paint0_linear)"/>
<path fill-rule="evenodd" clip-rule="evenodd" d="M97.3513 51.8168C97.3513 77.1668 76.8013 97.7168 51.4513 97.7168C26.1013 97.7168 5.55128 77.1668 5.55128 51.8168C5.55128 26.4668 26.1013 5.91676 51.4513 5.91676C76.8013 5.91676 97.3513 26.4668 97.3513 51.8168ZM51.4513 2.17676C78.8713 2.17676 101.091 24.3968 101.091 51.8168C101.091 79.2368 78.8613 101.457 51.4513 101.457C24.0313 101.457 1.81128 79.2268 1.81128 51.8168C1.81128 24.3968 24.0313 2.17676 51.4513 2.17676Z" fill="#F2F1F0"/>
<path fill-rule="evenodd" clip-rule="evenodd" d="M94.5411 51.8168C94.5411 75.6168 75.2511 94.9068 51.4511 94.9068C27.6511 94.9068 8.36109 75.6168 8.36109 51.8168C8.36109 28.0168 27.6511 8.72682 51.4511 8.72682C75.2511 8.72682 94.5411 28.0168 94.5411 51.8168ZM51.4511 4.98682C77.3111 4.98682 98.2811 25.9568 98.2811 51.8168C98.2811 77.6768 77.3111 98.6468 51.4511 98.6468C25.5911 98.6468 4.62109 77.6768 4.62109 51.8168C4.62109 25.9568 25.5811 4.98682 51.4511 4.98682Z" fill="#0078D4"/>
<path d="M80.6812 26.0068H22.1912C21.7912 26.0068 21.4712 26.3268 21.4712 26.7268V66.6168C21.4712 67.0168 21.7912 67.3368 22.1912 67.3368H80.6812C81.0812 67.3368 81.4012 67.0168 81.4012 66.6168V26.7268C81.4012 26.3268 81.0812 26.0068 80.6812 26.0068Z" fill="url(#paint1_linear)"/>
<path d="M63.8712 80.3067C57.7512 79.3167 57.4912 74.7367 57.4912 67.3467H45.3412C45.3412 74.7467 45.1412 79.3067 39.0012 80.3067C37.2512 80.5067 35.9212 82.0467 35.9312 83.8767H66.9312C66.9512 82.0367 65.6312 80.4967 63.8712 80.3067Z" fill="url(#paint2_linear)"/>
<path d="M73.0013 56.4268H52.5413" stroke="white" stroke-width="0.5" stroke-miterlimit="10"/>
<path d="M73.0013 49.917H55.5513" stroke="white" stroke-width="0.5" stroke-miterlimit="10"/>
<path d="M73.0013 43.4067H55.5513" stroke="white" stroke-width="0.5" stroke-miterlimit="10"/>
<path d="M73.0013 36.897H52.5413" stroke="white" stroke-width="0.5" stroke-miterlimit="10"/>
<path d="M76.5513 34.0269H70.0813C69.6813 34.0269 69.3613 34.3469 69.3613 34.7469V38.7069C69.3613 39.1069 69.6813 39.4269 70.0813 39.4269H76.5613C76.9613 39.4269 77.2813 39.1069 77.2813 38.7169V34.7569C77.2613 34.3469 76.9413 34.0269 76.5513 34.0269Z" fill="#0078D4"/>
<path d="M76.5513 47.2168H70.0813C69.6813 47.2168 69.3613 47.5368 69.3613 47.9368V51.9068C69.3613 52.3068 69.6813 52.6268 70.0813 52.6268H76.5613C76.9613 52.6268 77.2813 52.3068 77.2813 51.9068V47.9468C77.2613 47.5368 76.9413 47.2168 76.5513 47.2168Z" fill="#50E6FF"/>
<path d="M76.5513 40.6069H70.0813C69.6813 40.6069 69.3613 40.9269 69.3613 41.3269V45.2869C69.3613 45.6869 69.6813 46.0069 70.0813 46.0069H76.5613C76.9613 46.0069 77.2813 45.6869 77.2813 45.2869V41.3269C77.2613 40.9369 76.9413 40.6069 76.5513 40.6069Z" fill="#3BCAF4"/>
<path d="M76.5513 53.8066H70.0813C69.6813 53.8066 69.3613 54.1266 69.3613 54.5266V58.4966C69.3613 58.8966 69.6813 59.2166 70.0813 59.2166H76.5613C76.9613 59.2166 77.2813 58.8966 77.2813 58.4966V54.5366C77.2613 54.1266 76.9413 53.8066 76.5513 53.8066Z" fill="#50E6FF"/>
<path d="M51.8811 34.947L49.0811 32.057C48.7011 31.667 48.0611 31.677 47.7011 32.097L35.8611 45.617C35.3311 46.217 35.3311 47.117 35.8611 47.727L47.5911 61.217C48.0311 61.727 48.8211 61.727 49.2611 61.217L52.7611 57.177L53.1511 36.367L51.8811 34.947Z" fill="url(#paint3_linear)"/>
<path d="M65.6711 45.0268L54.0011 32.2668C53.5011 31.7268 52.6411 31.7168 52.1311 32.2468L46.7411 37.8168C46.1511 38.4268 46.1511 39.3768 46.7211 39.9968L52.2511 45.9268C52.6611 46.3668 52.6611 47.0368 52.2511 47.4668L46.7011 53.4668C46.1311 54.0768 46.1411 55.0368 46.7211 55.6368L52.1311 61.2468C52.6411 61.7768 53.5011 61.7668 54.0011 61.2268L65.6711 48.3668C66.5411 47.4268 66.5311 45.9768 65.6711 45.0268Z" fill="url(#paint4_linear)"/>
<path d="M66.2211 47.7671L61.0111 53.5471C60.6211 53.9871 59.9311 53.9971 59.5211 53.5771L54.2811 48.2271C53.4311 47.3571 53.4311 45.9771 54.2711 45.1071L59.4111 39.7971C59.8211 39.3771 60.5011 39.3871 60.9011 39.8171L66.2111 45.6771C66.7611 46.2771 66.7611 47.1771 66.2211 47.7671Z" fill="url(#paint5_linear)"/>
<defs>
<linearGradient id="paint0_linear" x1="49.6811" y1="-12.9762" x2="53.6641" y2="132.791" gradientUnits="userSpaceOnUse">
<stop stop-color="#00ABDE"/>
<stop offset="1" stop-color="#007ED8"/>
</linearGradient>
<linearGradient id="paint1_linear" x1="51.4386" y1="26.2831" x2="51.4386" y2="67.3363" gradientUnits="userSpaceOnUse">
<stop stop-color="#6A6A6A"/>
<stop offset="1" stop-color="#343333"/>
</linearGradient>
<linearGradient id="paint2_linear" x1="51.4263" y1="83.8738" x2="51.4263" y2="67.345" gradientUnits="userSpaceOnUse">
<stop offset="0.15" stop-color="#CCCCCC"/>
<stop offset="1" stop-color="#707070"/>
</linearGradient>
<linearGradient id="paint3_linear" x1="43.5743" y1="32.8844" x2="45.746" y2="58.4019" gradientUnits="userSpaceOnUse">
<stop stop-color="#A23093"/>
<stop offset="1" stop-color="#692266"/>
</linearGradient>
<linearGradient id="paint4_linear" x1="46.2766" y1="46.7489" x2="66.3199" y2="46.7489" gradientUnits="userSpaceOnUse">
<stop stop-color="#E184C4"/>
<stop offset="1" stop-color="#D76EBC"/>
</linearGradient>
<linearGradient id="paint5_linear" x1="53.6549" y1="46.6852" x2="66.6257" y2="46.6852" gradientUnits="userSpaceOnUse">
<stop stop-color="#E89BCA"/>
<stop offset="1" stop-color="#E591C8"/>
</linearGradient>
</defs>
</svg>
