<svg width="103" height="103" viewBox="0 0 103 103" fill="none" xmlns="http://www.w3.org/2000/svg">
<path d="M51.6413 98.6591C25.7913 98.6591 4.8313 77.7091 4.8313 51.8491C4.8313 25.9891 25.7913 5.03906 51.6413 5.03906C77.4913 5.03906 98.4513 25.9991 98.4513 51.8491C98.4513 77.6991 77.4913 98.6591 51.6413 98.6591Z" fill="url(#paint0_linear)"/>
<path fill-rule="evenodd" clip-rule="evenodd" d="M97.5415 51.849C97.5415 77.199 76.9915 97.749 51.6415 97.749C26.2915 97.749 5.74146 77.199 5.74146 51.849C5.74146 26.499 26.2915 5.94898 51.6415 5.94898C76.9915 5.94898 97.5415 26.499 97.5415 51.849ZM51.6415 2.20898C79.0615 2.20898 101.281 24.429 101.281 51.849C101.281 79.269 79.0515 101.489 51.6415 101.489C24.2215 101.489 2.00146 79.259 2.00146 51.849C2.00146 24.429 24.2215 2.20898 51.6415 2.20898Z" fill="#F2F1F0"/>
<path fill-rule="evenodd" clip-rule="evenodd" d="M94.7313 51.849C94.7313 75.649 75.4413 94.939 51.6413 94.939C27.8413 94.939 8.55128 75.649 8.55128 51.849C8.55128 28.049 27.8413 8.75904 51.6413 8.75904C75.4413 8.75904 94.7313 28.049 94.7313 51.849ZM51.6413 5.01904C77.5013 5.01904 98.4713 25.989 98.4713 51.849C98.4713 77.709 77.5013 98.679 51.6413 98.679C25.7813 98.679 4.81128 77.709 4.81128 51.849C4.81128 25.989 25.7713 5.01904 51.6413 5.01904Z" fill="#0078D4"/>
<path opacity="0.15" d="M51.3113 82.1691H79.0213V60.8291H51.3113V82.1691Z" fill="#1F1D20"/>
<path d="M85.4413 44.4694L74.1413 53.0594V48.2294H55.3713V40.7294H74.1513V35.8994L85.4413 44.4694Z" fill="#0078D4"/>
<path d="M44.8513 40.7695H42.5513V48.2695H44.8513V40.7695Z" fill="#0078D4"/>
<path d="M49.1413 40.7695H46.8413V48.2695H49.1413V40.7695Z" fill="#0078D4"/>
<path d="M53.2712 40.7695H50.9712V48.2695H53.2712V40.7695Z" fill="#0078D4"/>
<path opacity="0.15" d="M18.1213 67.929H66.0913V30.999H18.1213V67.929Z" fill="#1F1D20"/>
<path d="M18.1213 66.2589H66.0913V29.3188H18.1213V66.2589Z" fill="#EBEBEB"/>
<path d="M18.1213 33.3091H66.0713V28.3091H18.1213V33.3091Z" fill="#185A97"/>
<path d="M21.8013 32.129C22.4713 32.129 23.0213 31.579 23.0213 30.909C23.0213 30.239 22.4713 29.689 21.8013 29.689C21.1313 29.689 20.5813 30.239 20.5813 30.909C20.5813 31.589 21.1313 32.129 21.8013 32.129Z" fill="#32B0E7"/>
<path d="M33.9813 42.1892L32.0013 40.1492C31.7313 39.8692 31.2813 39.8792 31.0313 40.1692L22.6713 49.7192C22.3013 50.1492 22.3013 50.7792 22.6713 51.2092L30.9513 60.7292C31.2613 61.0892 31.8213 61.0892 32.1313 60.7292L34.6013 57.8792L34.8713 43.1892L33.9813 42.1892Z" fill="url(#paint1_linear)"/>
<path d="M43.7112 49.2991L35.4712 40.2891C35.1112 39.9091 34.5112 39.8991 34.1512 40.2791L30.3512 44.2091C29.9412 44.6391 29.9312 45.3091 30.3412 45.7491L34.2412 49.9391C34.5312 50.2491 34.5312 50.7191 34.2412 51.0291L30.3212 55.2591C29.9212 55.6891 29.9312 56.3691 30.3412 56.7891L34.1612 60.7491C34.5212 61.1291 35.1312 61.1191 35.4812 60.7391L43.7212 51.6591C44.3312 50.9991 44.3212 49.9691 43.7112 49.2991Z" fill="url(#paint2_linear)"/>
<path d="M44.1012 51.239L40.4212 55.319C40.1412 55.629 39.6612 55.639 39.3712 55.339L35.6712 51.559C35.0712 50.949 35.0712 49.969 35.6612 49.359L39.2912 45.609C39.5812 45.309 40.0612 45.319 40.3412 45.629L44.0912 49.769C44.4812 50.179 44.4812 50.819 44.1012 51.239Z" fill="url(#paint3_linear)"/>
<path d="M61.9613 41.7192C61.9613 41.2892 61.6113 40.9292 61.1713 40.9292H48.9113C48.4713 40.9292 48.1213 41.2792 48.1213 41.7192C48.1213 42.1592 48.4713 42.5092 48.9113 42.5092H61.1813C61.6113 42.5092 61.9613 42.1592 61.9613 41.7192Z" fill="#84ECFD"/>
<path d="M51.0713 41.7092C51.0713 42.5792 51.7813 43.2792 52.6413 43.2792C53.5113 43.2792 54.2113 42.5692 54.2113 41.7092C54.2113 40.8392 53.5013 40.1392 52.6413 40.1392C51.7713 40.1392 51.0713 40.8392 51.0713 41.7092Z" fill="#32B0E7"/>
<path d="M61.9613 45.7192C61.9613 45.2792 61.6113 44.9292 61.1713 44.9292H48.9113C48.4713 44.9292 48.1213 45.2792 48.1213 45.7192C48.1213 46.1592 48.4713 46.5092 48.9113 46.5092H61.1813C61.6113 46.5092 61.9613 46.1592 61.9613 45.7192Z" fill="#50E6FF"/>
<path d="M55.8113 45.719C55.8113 46.589 56.5213 47.289 57.3813 47.289C58.2513 47.289 58.9513 46.579 58.9513 45.719C58.9513 44.849 58.2413 44.149 57.3813 44.149C56.5213 44.139 55.8113 44.849 55.8113 45.719Z" fill="#0078D4"/>
<path d="M61.9613 49.9492C61.9613 49.5092 61.6113 49.1592 61.1713 49.1592H48.9113C48.4713 49.1592 48.1213 49.5092 48.1213 49.9492C48.1213 50.3892 48.4713 50.7392 48.9113 50.7392H61.1813C61.6113 50.7492 61.9613 50.3992 61.9613 49.9492Z" fill="#32B0E7"/>
<path d="M51.1213 49.9494C51.1213 50.8194 51.8313 51.5194 52.6913 51.5194C53.5613 51.5194 54.2613 50.8094 54.2613 49.9494C54.2613 49.0794 53.5513 48.3794 52.6913 48.3794C51.8313 48.3794 51.1213 49.0794 51.1213 49.9494Z" fill="#185A97"/>
<path d="M51.3113 80.4591H79.0213V59.1191H51.3113V80.4591Z" fill="#EBEBEB"/>
<path d="M51.3113 61.4291H79.0113V58.5391H51.3113V61.4291Z" fill="#185A97"/>
<path d="M53.4412 60.7491C53.8312 60.7491 54.1412 60.4291 54.1412 60.0491C54.1412 59.6691 53.8212 59.3491 53.4412 59.3491C53.0512 59.3491 52.7412 59.6691 52.7412 60.0491C52.7412 60.4291 53.0512 60.7491 53.4412 60.7491Z" fill="#32B0E7"/>
<path d="M58.5312 71.2589L61.9912 69.3689V67.3789L55.7412 70.8889V71.7889L61.9912 74.9189V72.9789L58.5312 71.2589Z" fill="#0078D4"/>
<path d="M62.2712 76.8989H64.2612L68.8612 65.6289H66.8712L62.2712 76.8989Z" fill="#0078D4"/>
<path d="M75.5312 70.8291L69.2812 67.3291V69.3691L72.7412 71.2591L69.2812 72.9191V74.9091L75.5312 71.7791V70.8291Z" fill="#0078D4"/>
<defs>
<linearGradient id="paint0_linear" x1="49.8713" y1="-12.9439" x2="53.8543" y2="132.824" gradientUnits="userSpaceOnUse">
<stop stop-color="#00ABDE"/>
<stop offset="1" stop-color="#007ED8"/>
</linearGradient>
<linearGradient id="paint1_linear" x1="28.1146" y1="40.7305" x2="29.6479" y2="58.7457" gradientUnits="userSpaceOnUse">
<stop stop-color="#A23093"/>
<stop offset="1" stop-color="#692266"/>
</linearGradient>
<linearGradient id="paint2_linear" x1="30.0224" y1="50.5185" x2="44.1728" y2="50.5185" gradientUnits="userSpaceOnUse">
<stop stop-color="#E184C4"/>
<stop offset="1" stop-color="#D76EBC"/>
</linearGradient>
<linearGradient id="paint3_linear" x1="35.2314" y1="50.4735" x2="44.3888" y2="50.4735" gradientUnits="userSpaceOnUse">
<stop stop-color="#E89BCA"/>
<stop offset="1" stop-color="#E591C8"/>
</linearGradient>
</defs>
</svg>
