<svg width="103" height="103" viewBox="0 0 103 103" fill="none" xmlns="http://www.w3.org/2000/svg">
<path d="M51.6413 98.5253C25.7913 98.5253 4.8313 77.5753 4.8313 51.7153C4.8313 25.8553 25.7913 4.90527 51.6413 4.90527C77.4913 4.90527 98.4513 25.8653 98.4513 51.7153C98.4513 77.5653 77.4913 98.5253 51.6413 98.5253Z" fill="url(#paint0_linear)"/>
<path fill-rule="evenodd" clip-rule="evenodd" d="M97.5415 51.7154C97.5415 77.0654 76.9915 97.6154 51.6415 97.6154C26.2915 97.6154 5.74146 77.0654 5.74146 51.7154C5.74146 26.3654 26.2915 5.81544 51.6415 5.81544C76.9915 5.81544 97.5415 26.3654 97.5415 51.7154ZM51.6415 2.07544C79.0615 2.07544 101.281 24.2954 101.281 51.7154C101.281 79.1354 79.0515 101.355 51.6415 101.355C24.2215 101.355 2.00146 79.1254 2.00146 51.7154C2.00146 24.2954 24.2215 2.07544 51.6415 2.07544Z" fill="#F2F1F0"/>
<path fill-rule="evenodd" clip-rule="evenodd" d="M94.7313 51.7153C94.7313 75.5153 75.4413 94.8053 51.6413 94.8053C27.8413 94.8053 8.55128 75.5153 8.55128 51.7153C8.55128 27.9153 27.8413 8.62525 51.6413 8.62525C75.4413 8.62525 94.7313 27.9153 94.7313 51.7153ZM51.6413 4.88525C77.5013 4.88525 98.4713 25.8553 98.4713 51.7153C98.4713 77.5753 77.5013 98.5453 51.6413 98.5453C25.7813 98.5453 4.81128 77.5753 4.81128 51.7153C4.81128 25.8553 25.7713 4.88525 51.6413 4.88525Z" fill="#0078D4"/>
<path opacity="0.15" d="M20.4214 78.2552H82.6414V30.3452H20.4214V78.2552Z" fill="#1F1D20"/>
<path d="M21.4414 76.0753H81.6214C82.1814 76.0753 82.6414 75.6153 82.6414 75.0553V29.1853C82.6414 28.6253 82.1814 28.1653 81.6214 28.1653H21.4414C20.8814 28.1653 20.4214 28.6253 20.4214 29.1853V75.0553C20.4214 75.6153 20.8714 76.0753 21.4414 76.0753Z" fill="#EBEBEB"/>
<path d="M20.4214 33.3452H82.6214V27.9152C82.6214 27.3352 82.1514 26.8652 81.5714 26.8652H21.4714C20.8914 26.8652 20.4214 27.3352 20.4214 27.9152V33.3452V33.3452Z" fill="#185A97"/>
<path d="M25.2014 31.8153C26.0714 31.8153 26.7814 31.1053 26.7814 30.2353C26.7814 29.3653 26.0714 28.6553 25.2014 28.6553C24.3314 28.6553 23.6214 29.3653 23.6214 30.2353C23.6114 31.1053 24.3214 31.8153 25.2014 31.8153Z" fill="#32B0E7"/>
<path d="M41.2414 42.2854L38.3614 39.3054C37.9714 38.8954 37.3114 38.9154 36.9414 39.3454L24.7514 53.2654C24.2014 53.8854 24.2014 54.8154 24.7514 55.4354L36.8214 69.3154C37.2714 69.8354 38.0814 69.8354 38.5414 69.3154L42.1514 65.1554L42.5514 43.7254L41.2414 42.2854Z" fill="url(#paint1_linear)"/>
<path d="M55.4314 52.6553L43.4114 39.5153C42.8914 38.9553 42.0114 38.9553 41.4914 39.4953L35.9414 45.2253C35.3414 45.8453 35.3314 46.8353 35.9214 47.4653L41.6114 53.5653C42.0314 54.0153 42.0314 54.7053 41.6114 55.1553L35.8914 61.3253C35.3014 61.9553 35.3114 62.9353 35.9114 63.5553L41.4714 69.3253C42.0014 69.8753 42.8814 69.8653 43.4014 69.3053L55.4414 56.0953C56.3214 55.1253 56.3214 53.6353 55.4314 52.6553Z" fill="url(#paint2_linear)"/>
<path d="M56.0015 55.4755L50.6415 61.4255C50.2315 61.8755 49.5315 61.8855 49.1115 61.4555L43.7215 55.9455C42.8515 55.0555 42.8415 53.6255 43.7115 52.7355L49.0015 47.2655C49.4215 46.8255 50.1315 46.8455 50.5315 47.2855L56.0015 53.3155C56.5515 53.9355 56.5515 54.8655 56.0015 55.4755Z" fill="url(#paint3_linear)"/>
<path d="M78.0213 48.7253C78.0213 48.1653 77.5613 47.6953 76.9913 47.6953H61.0913C60.5313 47.6953 60.0613 48.1553 60.0613 48.7253C60.0613 49.2853 60.5213 49.7553 61.0913 49.7553H77.0013C77.5713 49.7553 78.0213 49.2953 78.0213 48.7253Z" fill="#84ECFD"/>
<path d="M63.9014 48.7253C63.9014 49.8553 64.8214 50.7653 65.9414 50.7653C67.0714 50.7653 67.9814 49.8453 67.9814 48.7253C67.9814 47.5953 67.0614 46.6853 65.9414 46.6853C64.8114 46.6853 63.9014 47.5953 63.9014 48.7253Z" fill="#32B0E7"/>
<path d="M78.0213 53.9253C78.0213 53.3653 77.5613 52.8953 76.9913 52.8953H61.0913C60.5313 52.8953 60.0613 53.3553 60.0613 53.9253C60.0613 54.4853 60.5213 54.9553 61.0913 54.9553H77.0013C77.5713 54.9453 78.0213 54.4853 78.0213 53.9253Z" fill="#50E6FF"/>
<path d="M70.0513 53.9152C70.0513 55.0452 70.9713 55.9552 72.0913 55.9552C73.2113 55.9552 74.1313 55.0352 74.1313 53.9152C74.1313 52.7852 73.2113 51.8752 72.0913 51.8752C70.9713 51.8752 70.0513 52.7952 70.0513 53.9152Z" fill="#0078D4"/>
<path d="M78.0213 59.4153C78.0213 58.8553 77.5613 58.3853 76.9913 58.3853H61.0913C60.5313 58.3853 60.0613 58.8453 60.0613 59.4153C60.0613 59.9853 60.5213 60.4453 61.0913 60.4453H77.0013C77.5713 60.4453 78.0213 59.9853 78.0213 59.4153Z" fill="#32B0E7"/>
<path d="M63.9712 59.4153C63.9712 60.5453 64.8912 61.4553 66.0112 61.4553C67.1412 61.4553 68.0512 60.5353 68.0512 59.4153C68.0512 58.2853 67.1312 57.3753 66.0112 57.3753C64.8812 57.3653 63.9712 58.2853 63.9712 59.4153Z" fill="#185A97"/>
<path d="M41.3213 61.9052C45.4713 61.9052 48.8413 58.5352 48.8413 54.3852C48.8413 50.2352 45.4713 46.8652 41.3213 46.8652C37.1713 46.8652 33.8013 50.2352 33.8013 54.3852C33.8013 58.5352 37.1713 61.9052 41.3213 61.9052Z" fill="#F2F1F0"/>
<path d="M45.7212 58.0452C45.4712 55.8152 43.5512 54.0552 41.2312 54.0552C38.9312 54.0552 37.0312 55.7752 36.7412 57.9952C36.7012 58.1452 36.7012 58.3152 36.7012 58.4752C36.7612 59.1052 37.2012 59.7152 38.0212 60.1952C39.7812 61.2052 42.6612 61.2052 44.4112 60.1952C45.2412 59.7152 45.6612 59.1052 45.7112 58.4752C45.7612 58.3352 45.7412 58.1752 45.7212 58.0452Z" fill="#0078D4"/>
<path d="M41.2412 53.4051C42.7412 53.4051 43.9612 52.1951 43.9612 50.7051C43.9612 49.2151 42.7412 48.0051 41.2412 48.0051C39.7412 48.0051 38.5212 49.2151 38.5212 50.7051C38.5212 52.1951 39.7412 53.4051 41.2412 53.4051Z" fill="#0078D4"/>
<defs>
<linearGradient id="paint0_linear" x1="49.8713" y1="-13.0777" x2="53.8543" y2="132.69" gradientUnits="userSpaceOnUse">
<stop stop-color="#00ABDE"/>
<stop offset="1" stop-color="#007ED8"/>
</linearGradient>
<linearGradient id="paint1_linear" x1="32.685" y1="40.1538" x2="34.9208" y2="66.4244" gradientUnits="userSpaceOnUse">
<stop stop-color="#A23093"/>
<stop offset="1" stop-color="#692266"/>
</linearGradient>
<linearGradient id="paint2_linear" x1="35.4671" y1="54.4272" x2="56.1015" y2="54.4272" gradientUnits="userSpaceOnUse">
<stop stop-color="#E184C4"/>
<stop offset="1" stop-color="#D76EBC"/>
</linearGradient>
<linearGradient id="paint3_linear" x1="43.0631" y1="54.362" x2="56.4165" y2="54.362" gradientUnits="userSpaceOnUse">
<stop stop-color="#E89BCA"/>
<stop offset="1" stop-color="#E591C8"/>
</linearGradient>
</defs>
</svg>
