<svg width="103" height="103" viewBox="0 0 103 103" fill="none" xmlns="http://www.w3.org/2000/svg">
<path d="M51.1809 98.8046C25.3309 98.8046 4.37085 77.8546 4.37085 51.9946C4.37085 26.1346 25.3309 5.18457 51.1809 5.18457C77.0309 5.18457 97.9908 26.1446 97.9908 51.9946C97.9908 77.8446 77.0309 98.8046 51.1809 98.8046Z" fill="url(#paint0_linear)"/>
<path fill-rule="evenodd" clip-rule="evenodd" d="M97.081 51.9945C97.081 77.3445 76.531 97.8945 51.181 97.8945C25.831 97.8945 5.28102 77.3445 5.28102 51.9945C5.28102 26.6445 25.831 6.09449 51.181 6.09449C76.531 6.09449 97.081 26.6445 97.081 51.9945ZM51.181 2.35449C78.601 2.35449 100.821 24.5745 100.821 51.9945C100.821 79.4145 78.591 101.634 51.181 101.634C23.761 101.634 1.54102 79.4045 1.54102 51.9945C1.54102 24.5745 23.761 2.35449 51.181 2.35449Z" fill="#F2F1F0"/>
<path fill-rule="evenodd" clip-rule="evenodd" d="M94.2708 51.9946C94.2708 75.7946 74.9808 95.0845 51.1808 95.0845C27.3808 95.0845 8.09083 75.7946 8.09083 51.9946C8.09083 28.1946 27.3808 8.90455 51.1808 8.90455C74.9808 8.90455 94.2708 28.1946 94.2708 51.9946ZM51.1808 5.16455C77.0408 5.16455 98.0108 26.1346 98.0108 51.9946C98.0108 77.8546 77.0408 98.8246 51.1808 98.8246C25.3208 98.8246 4.35083 77.8546 4.35083 51.9946C4.35083 26.1346 25.3108 5.16455 51.1808 5.16455Z" fill="#0078D4"/>
<path d="M45.981 76.5445H38.251V39.8545" stroke="white" stroke-width="1.5" stroke-miterlimit="10" stroke-linejoin="round"/>
<path d="M75.3609 56.9945H64.7609V39.8545H54.1409" stroke="white" stroke-width="1.5" stroke-miterlimit="10" stroke-linejoin="round"/>
<path d="M57.731 39.8545H74.971" stroke="white" stroke-width="1.5" stroke-miterlimit="10" stroke-linejoin="round"/>
<path d="M45.9608 39.9243H28.8408" stroke="white" stroke-width="1.5" stroke-miterlimit="10" stroke-linejoin="round"/>
<path d="M60.981 35.6943H42.801V46.3343C42.801 46.6543 43.071 46.9143 43.381 46.9143H60.391C60.711 46.9143 60.971 46.6443 60.971 46.3343L60.981 35.6943Z" fill="#50E6FF"/>
<path d="M60.361 34.1245H43.421C43.081 34.1245 42.801 34.4045 42.801 34.7445V36.0745H60.981V34.7445C60.981 34.3945 60.711 34.1245 60.361 34.1245Z" fill="white"/>
<path d="M33.6309 35.9644H15.4509V55.6044C15.4509 55.9244 15.7209 56.1844 16.0309 56.1844H33.0409C33.3609 56.1844 33.6209 55.9144 33.6209 55.6044L33.6309 35.9644Z" fill="#9CEBFF"/>
<path d="M33.0109 34.3945H16.0709C15.7309 34.3945 15.4509 34.6745 15.4509 35.0145V36.3445H33.6309V35.0145C33.6309 34.6745 33.3509 34.3945 33.0109 34.3945Z" fill="white"/>
<path d="M87.1609 35.6943H68.9709V46.3343C68.9709 46.6543 69.2409 46.9143 69.5509 46.9143H86.5609C86.8809 46.9143 87.1409 46.6443 87.1409 46.3343L87.1609 35.6943Z" fill="#45CAF2"/>
<path d="M86.5409 34.1245H69.591C69.251 34.1245 68.9709 34.4045 68.9709 34.7445V36.0745H87.1509V34.7445C87.1609 34.3945 86.8809 34.1245 86.5409 34.1245Z" fill="white"/>
<path d="M87.5709 52.5947H69.3909V63.2347C69.3909 63.5547 69.6609 63.8147 69.9709 63.8147H86.9809C87.3009 63.8147 87.5609 63.5447 87.5609 63.2347L87.5709 52.5947Z" fill="#45CAF2"/>
<path d="M86.9509 51.0244H70.0209C69.6809 51.0244 69.4009 51.3044 69.4009 51.6444V52.9744H87.5809V51.6444C87.5709 51.2944 87.3009 51.0244 86.9509 51.0244Z" fill="white"/>
<path d="M60.981 72.5244H42.801V83.1644C42.801 83.4844 43.071 83.7444 43.381 83.7444H60.391C60.711 83.7444 60.971 83.4744 60.971 83.1644L60.981 72.5244Z" fill="#50E6FF"/>
<path d="M60.361 70.9546H43.421C43.081 70.9546 42.801 71.2346 42.801 71.5746V72.9046H60.981V71.5746C60.981 71.2246 60.711 70.9546 60.361 70.9546Z" fill="white"/>
<path d="M60.981 52.0645H42.801V67.1445C42.801 67.6745 43.221 68.0945 43.751 68.0945H60.031C60.561 68.0945 60.981 67.6745 60.981 67.1445V52.0645Z" fill="#50E6FF"/>
<path d="M60.111 50.4844H43.671C43.191 50.4844 42.801 50.8744 42.801 51.3544V52.4344H60.981V51.3544C60.981 50.8744 60.591 50.4844 60.111 50.4844Z" fill="white"/>
<path d="M24.871 40.3048L23.651 39.0448C23.481 38.8748 23.211 38.8848 23.051 39.0648L17.881 44.9748C17.651 45.2348 17.651 45.6348 17.881 45.8948L23.011 51.7848C23.201 52.0048 23.551 52.0048 23.741 51.7848L25.271 50.0148L25.441 40.9248L24.871 40.3048Z" fill="url(#paint1_linear)"/>
<path d="M30.901 44.7049L25.801 39.1349C25.581 38.8949 25.211 38.8949 24.981 39.1249L22.631 41.5549C22.371 41.8149 22.371 42.2349 22.621 42.5049L25.031 45.0949C25.211 45.2849 25.211 45.5749 25.031 45.7649L22.601 48.3849C22.351 48.6549 22.361 49.0649 22.611 49.3349L24.971 51.7849C25.191 52.0149 25.571 52.0149 25.791 51.7749L30.891 46.1549C31.271 45.7549 31.271 45.1249 30.901 44.7049Z" fill="url(#paint2_linear)"/>
<path d="M31.1411 45.9049L28.8611 48.4249C28.6911 48.6149 28.3911 48.6249 28.2111 48.4349L25.9211 46.0949C25.5511 45.7149 25.5511 45.1149 25.9211 44.7349L28.1611 42.4149C28.3411 42.2249 28.6411 42.2349 28.8111 42.4249L31.1411 44.9949C31.3711 45.2549 31.3711 45.6449 31.1411 45.9049Z" fill="url(#paint3_linear)"/>
<defs>
<linearGradient id="paint0_linear" x1="49.4108" y1="-12.7984" x2="53.3938" y2="132.969" gradientUnits="userSpaceOnUse">
<stop stop-color="#00ABDE"/>
<stop offset="1" stop-color="#007ED8"/>
</linearGradient>
<linearGradient id="paint1_linear" x1="21.2439" y1="39.4035" x2="22.1926" y2="50.5514" gradientUnits="userSpaceOnUse">
<stop stop-color="#A23093"/>
<stop offset="1" stop-color="#692266"/>
</linearGradient>
<linearGradient id="paint2_linear" x1="22.4244" y1="45.4602" x2="31.1808" y2="45.4602" gradientUnits="userSpaceOnUse">
<stop stop-color="#E184C4"/>
<stop offset="1" stop-color="#D76EBC"/>
</linearGradient>
<linearGradient id="paint3_linear" x1="25.6479" y1="45.4324" x2="31.3145" y2="45.4324" gradientUnits="userSpaceOnUse">
<stop stop-color="#E89BCA"/>
<stop offset="1" stop-color="#E591C8"/>
</linearGradient>
</defs>
</svg>
