<svg width="103" height="103" viewBox="0 0 103 103" fill="none" xmlns="http://www.w3.org/2000/svg">
<path d="M51.6413 98.8046C25.7913 98.8046 4.8313 77.8546 4.8313 51.9946C4.8313 26.1346 25.7913 5.18457 51.6413 5.18457C77.4913 5.18457 98.4513 26.1446 98.4513 51.9946C98.4513 77.8446 77.4913 98.8046 51.6413 98.8046Z" fill="url(#paint0_linear)"/>
<path fill-rule="evenodd" clip-rule="evenodd" d="M97.5415 51.9945C97.5415 77.3445 76.9915 97.8945 51.6415 97.8945C26.2915 97.8945 5.74146 77.3445 5.74146 51.9945C5.74146 26.6445 26.2915 6.09449 51.6415 6.09449C76.9915 6.09449 97.5415 26.6445 97.5415 51.9945ZM51.6415 2.35449C79.0615 2.35449 101.281 24.5745 101.281 51.9945C101.281 79.4145 79.0515 101.634 51.6415 101.634C24.2215 101.634 2.00146 79.4045 2.00146 51.9945C2.00146 24.5745 24.2215 2.35449 51.6415 2.35449Z" fill="#F2F1F0"/>
<path fill-rule="evenodd" clip-rule="evenodd" d="M94.7313 51.9946C94.7313 75.7946 75.4413 95.0845 51.6413 95.0845C27.8413 95.0845 8.55128 75.7946 8.55128 51.9946C8.55128 28.1946 27.8413 8.90455 51.6413 8.90455C75.4413 8.90455 94.7313 28.1946 94.7313 51.9946ZM51.6413 5.16455C77.5013 5.16455 98.4713 26.1346 98.4713 51.9946C98.4713 77.8546 77.5013 98.8246 51.6413 98.8246C25.7813 98.8246 4.81128 77.8546 4.81128 51.9946C4.81128 26.1346 25.7713 5.16455 51.6413 5.16455Z" fill="#0078D4"/>
<path d="M88.9913 47.3246C88.9913 46.5146 88.3313 45.8546 87.5213 45.8546C86.9913 45.8546 83.6913 45.5646 81.9213 44.1846C81.9213 44.1846 81.9313 44.1646 81.9213 44.1846C81.2513 41.7446 80.2713 39.4646 79.0613 37.3046C78.7513 35.2546 80.8713 33.7646 81.8413 32.1646C82.0113 31.8846 82.1113 31.7246 82.1713 31.6146C82.3513 31.0946 82.2513 30.4946 81.8413 30.0846C81.8413 30.0846 80.2113 27.7546 78.5413 26.0946C76.8713 24.4346 74.3413 22.5846 74.3413 22.5846C73.7713 22.0146 72.8313 22.0146 72.2613 22.5846C71.8813 22.9546 69.3713 25.0246 67.1113 25.3546C67.0813 25.3546 67.0813 25.3546 67.0813 25.3546C64.9813 24.1646 62.6213 23.1846 60.2513 22.5146H60.2213C58.5513 21.2846 58.9913 18.7346 58.5513 16.9146C58.5513 16.1046 57.8913 15.4446 57.0813 15.4446C57.0813 15.4446 54.2813 14.9546 51.9213 14.9546C49.5613 14.9546 46.4713 15.4446 46.4713 15.4446C45.6613 15.4446 45.0013 16.1046 45.0013 16.9146C45.0013 17.4446 44.7113 20.7446 43.3313 22.5146C40.9913 23.1746 38.5313 24.2146 36.4513 25.3746C34.4013 25.6846 32.9113 23.5646 31.3113 22.5946C31.0313 22.4246 30.8713 22.3246 30.7613 22.2646C30.2413 22.0846 29.6413 22.1846 29.2313 22.5946C29.2313 22.5946 26.9013 24.2246 25.2413 25.8946C23.5813 27.5646 21.7313 30.0946 21.7313 30.0946C21.1613 30.6646 21.1613 31.6046 21.7313 32.1746C22.1013 32.5446 24.2313 35.0946 24.5113 37.3146V37.3346C23.3513 39.4146 22.3313 41.8646 21.6713 44.2046C21.6713 44.2046 21.7013 44.1646 21.6713 44.2046C20.2413 45.9446 17.8913 45.4346 16.0713 45.8746C15.2613 45.8746 14.6013 46.5346 14.6013 47.3446C14.6013 47.3446 14.1113 50.1446 14.1113 52.5046C14.1113 54.8646 14.6013 57.9546 14.6013 57.9546C14.6013 58.7646 15.2613 59.4246 16.0713 59.4246C16.6013 59.4246 19.9013 59.7146 21.6713 61.0946C21.7113 61.0746 21.6913 61.1246 21.6913 61.1246C22.3713 63.4746 23.3413 65.8246 24.5213 67.9046C24.5013 67.9346 24.5213 67.9046 24.5313 67.9746C24.7313 70.1146 22.7213 71.5146 21.7513 73.1146C21.5813 73.3946 21.4813 73.5546 21.4213 73.6646C21.2413 74.1846 21.3413 74.7846 21.7513 75.1946C21.7513 75.1946 23.3813 77.5246 25.0513 79.1846C26.7213 80.8546 29.2513 82.6946 29.2513 82.6946C29.8213 83.2646 30.7613 83.2646 31.3313 82.6946C31.7013 82.3246 34.2513 80.1946 36.4713 79.9146C36.4713 79.9146 36.4613 79.9246 36.5013 79.9346C38.6413 81.1246 40.8513 82.0646 43.2713 82.7246C43.2913 82.7346 43.3613 82.7546 43.3613 82.7546C45.0313 83.9846 44.5913 86.5346 45.0313 88.3546C45.1213 89.1746 45.5713 89.6946 46.5013 89.8246C46.5013 89.8246 49.3013 90.3146 51.6613 90.3146C54.0213 90.3146 57.1113 89.8346 57.1113 89.8346C57.9213 89.6946 58.5813 89.1746 58.5813 88.3646C58.5813 87.8346 58.8713 84.5346 60.2513 82.7646C60.2513 82.7646 60.3113 82.7146 60.3713 82.6646C62.8313 81.9746 64.7013 81.2146 66.8713 79.9646C66.9813 79.9246 66.8613 79.9346 67.1213 79.8946C69.1713 79.5846 70.6613 81.7046 72.2613 82.6746C72.5413 82.8446 72.7013 82.9446 72.8113 83.0046C73.3313 83.1846 73.9313 83.0846 74.3413 82.6746C74.3413 82.6746 76.6713 81.0446 78.3313 79.3746C80.0013 77.7046 81.8413 75.1746 81.8413 75.1746C82.4113 74.6046 82.4113 73.6646 81.8413 73.0946C81.4713 72.7246 79.3413 70.1746 79.0613 67.9546C79.0313 67.7246 79.0513 67.6946 79.0813 67.6346C80.3213 65.4446 81.1013 63.8446 81.7813 61.3646C81.7813 61.3646 81.7513 61.2846 81.9113 61.0746C83.1413 59.4046 85.6913 59.8446 87.5113 59.4046C88.3213 59.4046 88.9813 58.7446 88.9813 57.9346C88.9813 57.9346 89.4713 55.1346 89.4713 52.7746C89.4713 50.4146 88.9913 47.3246 88.9913 47.3246Z" fill="#F2F1F0"/>
<path d="M72.8413 83.0344C72.8313 83.0344 72.8313 83.0244 72.8213 83.0244C72.8313 83.0244 72.8413 83.0344 72.8413 83.0344Z" fill="#F2F1F0"/>
<path d="M72.8212 83.0146C72.6112 82.8846 72.2712 82.6846 72.2712 82.6846C72.4312 82.8346 72.6212 82.9446 72.8212 83.0146Z" fill="#F2F1F0"/>
<path d="M72.8413 83.0244C73.0313 83.1344 72.9913 83.1144 72.8413 83.0244V83.0244Z" fill="#F2F1F0"/>
<path d="M30.7712 22.2744C30.9812 22.4044 31.3212 22.6044 31.3212 22.6044C31.1612 22.4544 30.9712 22.3444 30.7712 22.2744Z" fill="#F2F1F0"/>
<path d="M30.7512 22.2544C30.7612 22.2544 30.7612 22.2644 30.7712 22.2644C30.7612 22.2644 30.7512 22.2544 30.7512 22.2544Z" fill="#F2F1F0"/>
<path d="M30.7512 22.2544C30.5612 22.1444 30.6012 22.1644 30.7512 22.2544V22.2544Z" fill="#F2F1F0"/>
<path d="M21.4114 73.6846C21.3014 73.8746 21.3214 73.8346 21.4114 73.6846V73.6846Z" fill="#F2F1F0"/>
<path d="M21.4114 73.6846C21.4114 73.6746 21.4214 73.6746 21.4214 73.6646C21.4214 73.6746 21.4114 73.6846 21.4114 73.6846Z" fill="#F2F1F0"/>
<path d="M21.4214 73.6745C21.5514 73.4645 21.7514 73.1245 21.7514 73.1245C21.6014 73.2845 21.4914 73.4745 21.4214 73.6745Z" fill="#F2F1F0"/>
<path d="M82.1713 31.6245C82.0413 31.8345 81.8413 32.1745 81.8413 32.1745C81.9913 32.0145 82.1013 31.8245 82.1713 31.6245Z" fill="#F2F1F0"/>
<path d="M82.1814 31.6045C82.1814 31.6145 82.1714 31.6145 82.1714 31.6245C82.1714 31.6145 82.1814 31.6045 82.1814 31.6045Z" fill="#F2F1F0"/>
<path d="M82.1814 31.6045C82.2914 31.4145 82.2714 31.4545 82.1814 31.6045V31.6045Z" fill="#F2F1F0"/>
<path opacity="0.2" d="M74.2913 67.2347L53.1213 55.5547L31.8713 68.4647L52.3913 80.1447L74.2913 67.2347Z" fill="#1F1D21"/>
<path d="M52.4714 51.4746L52.3914 76.8846L30.2314 64.1346L30.3114 38.7246L52.4714 51.4746Z" fill="#243A5E"/>
<path d="M52.4714 51.4745L73.9714 38.6445V64.0545L52.3914 76.8845L52.4714 51.4745Z" fill="#1D4A79"/>
<path d="M30.3115 38.7245L51.9015 25.8945L73.9715 38.6345L52.4715 51.4645L30.3115 38.7245Z" fill="#156AB3"/>
<path d="M51.9014 51.3044V31.0444L69.5614 41.2544L69.4814 61.5144L51.9014 51.3044Z" fill="#84ECFD"/>
<path d="M51.9014 51.3047L34.6514 61.5247L34.7314 41.2647L51.9014 31.0547V51.3047Z" fill="#ACF3FD"/>
<path d="M69.4714 61.5245L52.3014 71.7345L34.6514 61.5245L51.9014 51.3145L69.4714 61.5245Z" fill="#D5F9FD"/>
<path d="M53.1614 41.1047L50.6414 38.5047C50.3014 38.1547 49.7314 38.1647 49.4014 38.5347L38.7714 50.6947C38.2914 51.2347 38.2914 52.0447 38.7714 52.5847L49.3114 64.7047C49.7114 65.1547 50.4114 65.1547 50.8114 64.7047L53.9614 61.0747L54.3114 42.3747L53.1614 41.1047Z" fill="url(#paint1_linear)"/>
<path d="M65.5513 50.1547L55.0613 38.6947C54.6113 38.2047 53.8413 38.2047 53.3813 38.6747L48.5413 43.6747C48.0113 44.2147 48.0113 45.0747 48.5213 45.6347L53.4813 50.9647C53.8513 51.3547 53.8513 51.9647 53.4813 52.3547L48.4913 57.7447C47.9813 58.2947 47.9913 59.1547 48.5113 59.6947L53.3713 64.7347C53.8313 65.2147 54.6013 65.2047 55.0513 64.7147L65.5413 53.1647C66.3313 52.3147 66.3313 51.0147 65.5513 50.1547Z" fill="url(#paint2_linear)"/>
<path d="M66.0513 52.6249L61.3713 57.8149C61.0213 58.2049 60.4013 58.2149 60.0313 57.8449L55.3313 53.0349C54.5713 52.2549 54.5713 51.0149 55.3213 50.2349L59.9413 45.4649C60.3113 45.0849 60.9213 45.0949 61.2813 45.4849L66.0613 50.7449C66.5313 51.2749 66.5313 52.0949 66.0513 52.6249Z" fill="url(#paint3_linear)"/>
<defs>
<linearGradient id="paint0_linear" x1="49.8713" y1="-12.7984" x2="53.8543" y2="132.969" gradientUnits="userSpaceOnUse">
<stop stop-color="#00ABDE"/>
<stop offset="1" stop-color="#007ED8"/>
</linearGradient>
<linearGradient id="paint1_linear" x1="45.6958" y1="39.2481" x2="47.6472" y2="62.1768" gradientUnits="userSpaceOnUse">
<stop stop-color="#A23093"/>
<stop offset="1" stop-color="#692266"/>
</linearGradient>
<linearGradient id="paint2_linear" x1="48.1238" y1="51.7061" x2="66.1336" y2="51.7061" gradientUnits="userSpaceOnUse">
<stop stop-color="#E184C4"/>
<stop offset="1" stop-color="#D76EBC"/>
</linearGradient>
<linearGradient id="paint3_linear" x1="54.7536" y1="51.6487" x2="66.4085" y2="51.6487" gradientUnits="userSpaceOnUse">
<stop stop-color="#E89BCA"/>
<stop offset="1" stop-color="#E591C8"/>
</linearGradient>
</defs>
</svg>
