<svg width="103" height="103" viewBox="0 0 103 103" fill="none" xmlns="http://www.w3.org/2000/svg">
<path d="M51.9705 98.4725C77.8228 98.4725 98.7764 77.519 98.7764 51.6666C98.7764 25.8143 77.8228 4.86072 51.9705 4.86072C26.1181 4.86072 5.16455 25.8143 5.16455 51.6666C5.16455 77.519 26.1181 98.4725 51.9705 98.4725Z" fill="url(#paint0_linear)"/>
<path fill-rule="evenodd" clip-rule="evenodd" d="M51.9702 1.66663C24.3569 1.66663 1.97021 24.0533 1.97021 51.6666C1.97021 79.28 24.3569 101.667 51.9702 101.667C79.5836 101.667 101.97 79.28 101.97 51.6666C101.97 24.0533 79.5836 1.66663 51.9702 1.66663ZM51.9702 97.4235C26.6986 97.4235 6.21338 76.9383 6.21338 51.6666C6.21338 26.395 26.6986 5.90979 51.9702 5.90979C77.2419 5.90979 97.7271 26.395 97.7271 51.6666C97.7271 76.9383 77.2419 97.4235 51.9702 97.4235Z" fill="#D9D9D9"/>
<path fill-rule="evenodd" clip-rule="evenodd" d="M6.07289 51.6666C6.07289 77.0132 26.6237 97.564 51.9702 97.564C77.3168 97.564 97.8676 77.0132 97.8676 51.6666C97.8676 26.3201 77.3168 5.7693 51.9702 5.7693C26.6237 5.7693 6.07289 26.3201 6.07289 51.6666ZM51.9702 2.02258C24.5536 2.02258 2.32617 24.25 2.32617 51.6666C2.32617 79.0833 24.5536 101.311 51.9702 101.311C79.3869 101.311 101.614 79.0833 101.614 51.6666C101.614 24.25 79.3869 2.02258 51.9702 2.02258Z" fill="#F2F1F0"/>
<path fill-rule="evenodd" clip-rule="evenodd" d="M8.88295 51.6667C8.88295 75.4677 28.1692 94.754 51.9702 94.754C75.7713 94.754 95.0575 75.4677 95.0575 51.6667C95.0575 27.8656 75.7713 8.57936 51.9702 8.57936C28.1692 8.57936 8.88295 27.8656 8.88295 51.6667ZM51.9702 4.83264C26.1085 4.83264 5.13623 25.8049 5.13623 51.6667C5.13623 77.5284 26.1085 98.5007 51.9702 98.5007C77.832 98.5007 98.8043 77.5284 98.8043 51.6667C98.8043 25.8049 77.8414 4.83264 51.9702 4.83264Z" fill="#0078D4"/>
<path opacity="0.15" d="M88.6694 52.5565L87.8358 51.6385C87.6953 51.4325 87.5548 51.2264 87.3768 51.0391L76.6705 39.3305L76.3333 38.9559C76.3333 38.9465 76.324 38.9465 76.3146 38.9371L60.2973 21.4306C59.1265 20.1754 57.1501 20.1567 55.9605 21.3931L52.6447 24.8214L48.8979 20.9529C48.0175 20.0443 46.5375 20.0818 45.6945 21.0372L18.231 52.4066C17.004 53.8023 17.004 55.9004 18.2217 57.3054L45.451 88.5999C46.4719 89.7802 48.2985 89.7708 49.3195 88.5999L52.4292 85.0125L55.9605 88.6749C57.1501 89.9113 59.1452 89.8926 60.3067 88.628L76.1741 71.1683C76.324 71.0653 76.4645 70.9529 76.5862 70.8124L88.6788 57.4085C89.9246 56.0316 89.9152 53.9334 88.6694 52.5565Z" fill="#1F1D20"/>
<path d="M55.3985 23.3696L48.8979 16.663C48.0175 15.7544 46.5375 15.7919 45.7039 16.7473L18.231 48.1167C17.004 49.5123 17.004 51.6105 18.2217 53.0155L45.451 84.31C46.4719 85.4902 48.2985 85.4809 49.3288 84.31L57.4592 74.9339L58.3584 26.6386L55.3985 23.3696Z" fill="url(#paint1_linear)"/>
<path d="M87.3864 46.7491L60.307 17.15C59.1361 15.8948 57.1597 15.8761 55.9701 17.1125L43.4655 30.02C42.1073 31.425 42.0885 33.6449 43.4186 35.078L56.2418 48.8379C57.1785 49.8495 57.1878 51.4137 56.2512 52.4254L43.3624 66.3351C42.0417 67.7588 42.0604 69.9787 43.4186 71.3744L55.9608 84.3849C57.1504 85.6213 59.1455 85.6026 60.307 84.3381L87.3958 54.5141C89.4003 52.3129 89.3909 48.9409 87.3864 46.7491Z" fill="url(#paint2_linear)"/>
<path d="M88.6787 53.1185L76.5862 66.513C75.6682 67.5246 74.0946 67.5621 73.1392 66.5786L60.9904 54.1676C59.0234 52.1537 59.014 48.9409 60.9717 46.927L72.8863 34.6097C73.8417 33.6262 75.4247 33.6543 76.3426 34.6659L88.6693 48.2665C89.9151 49.6434 89.9245 51.7416 88.6787 53.1185Z" fill="url(#paint3_linear)"/>
<g opacity="0.15">
<path opacity="0.15" d="M60.9899 50.3459L57.646 47.002L31.269 73.3601L34.613 76.7041L60.9899 50.3459Z" fill="#1F1D20"/>
<path opacity="0.15" d="M47.9041 70.091L44.5601 66.7471L37.8535 73.4443L41.1975 76.7883L47.9041 70.091Z" fill="#1F1D20"/>
<path opacity="0.15" d="M64.3808 31.8651C57.8615 31.8651 52.5786 37.1386 52.5786 43.6579C52.5786 50.1678 57.8615 55.4507 64.3808 55.4507C70.9001 55.4507 76.183 50.1772 76.183 43.6579C76.183 37.1386 70.8907 31.8651 64.3808 31.8651ZM64.3808 50.758C60.4467 50.758 57.2714 47.5826 57.2714 43.6486C57.2714 39.7239 60.4561 36.5391 64.3808 36.5391C68.3055 36.5391 71.4902 39.7145 71.4902 43.6486C71.4996 47.5826 68.3055 50.758 64.3808 50.758Z" fill="#1F1D20"/>
</g>
<path d="M60.9899 47.5172L57.646 44.1732L31.269 70.5314L34.613 73.8753L60.9899 47.5172Z" fill="#F2F1F0"/>
<path d="M47.9041 67.2624L44.5601 63.9185L37.8535 70.6157L41.1975 73.9597L47.9041 67.2624Z" fill="#F2F1F0"/>
<path d="M64.3808 29.0271C57.8615 29.0271 52.5786 34.3006 52.5786 40.8199C52.5786 47.3298 57.8615 52.6127 64.3808 52.6127C70.9001 52.6127 76.183 47.3392 76.183 40.8199C76.183 34.31 70.8907 29.0271 64.3808 29.0271ZM64.3808 47.9293C60.4467 47.9293 57.2714 44.754 57.2714 40.8199C57.2714 36.8952 60.4561 33.7105 64.3808 33.7105C68.3055 33.7105 71.4902 36.8858 71.4902 40.8199C71.4996 44.7446 68.3055 47.9293 64.3808 47.9293Z" fill="#F2F1F0"/>
<defs>
<linearGradient id="paint0_linear" x1="53.7408" y1="-13.1262" x2="49.758" y2="132.642" gradientUnits="userSpaceOnUse">
<stop stop-color="#00ABDE"/>
<stop offset="1" stop-color="#007ED8"/>
</linearGradient>
<linearGradient id="paint1_linear" x1="36.1185" y1="18.5699" x2="41.1579" y2="77.7819" gradientUnits="userSpaceOnUse">
<stop stop-color="#A23093"/>
<stop offset="1" stop-color="#692266"/>
</linearGradient>
<linearGradient id="paint2_linear" x1="42.3885" y1="50.7455" x2="88.8961" y2="50.7455" gradientUnits="userSpaceOnUse">
<stop stop-color="#E184C4"/>
<stop offset="1" stop-color="#D76EBC"/>
</linearGradient>
<linearGradient id="paint3_linear" x1="59.5081" y1="50.5942" x2="89.6074" y2="50.5942" gradientUnits="userSpaceOnUse">
<stop stop-color="#E89BCA"/>
<stop offset="1" stop-color="#E591C8"/>
</linearGradient>
</defs>
</svg>
