<svg width="102" height="102" viewBox="0 0 102 102" fill="none" xmlns="http://www.w3.org/2000/svg">
<path d="M50.9995 97.7705C44.8523 97.7705 38.7652 96.5597 33.0859 94.2073C27.4067 91.8549 22.2461 88.4068 17.8994 84.0601C13.5527 79.7133 10.1049 74.5533 7.75244 68.874C5.40002 63.1948 4.18945 57.1076 4.18945 50.9604C4.18945 44.8133 5.40002 38.7264 7.75244 33.0471C10.1049 27.3679 13.5527 22.2076 17.8994 17.8608C22.2461 13.5141 27.4067 10.066 33.0859 7.71362C38.7652 5.3612 44.8523 4.15039 50.9995 4.15039C63.4143 4.15039 75.3205 9.08226 84.0991 17.8608C92.8777 26.6394 97.8091 38.5457 97.8091 50.9604C97.8091 63.3752 92.8777 75.2815 84.0991 84.0601C75.3205 92.8386 63.4143 97.7705 50.9995 97.7705V97.7705Z" fill="url(#paint0_linear)"/>
<path fill-rule="evenodd" clip-rule="evenodd" d="M96.8994 51.0002C96.8994 63.1737 92.0635 74.8486 83.4556 83.4565C74.8476 92.0645 63.1729 96.9001 50.9995 96.9001C38.8261 96.9001 27.1509 92.0645 18.543 83.4565C9.93505 74.8486 5.09912 63.1737 5.09912 51.0002C5.09912 38.8268 9.93505 27.1519 18.543 18.5439C27.1509 9.93603 38.8261 5.10034 50.9995 5.10034C63.1729 5.10034 74.8476 9.93603 83.4556 18.5439C92.0635 27.1519 96.8994 38.8268 96.8994 51.0002V51.0002ZM50.9995 1.36035C57.5187 1.35904 63.9739 2.64205 69.9971 5.13623C76.0203 7.63041 81.4933 11.2867 86.103 15.8965C90.7128 20.5062 94.3691 25.979 96.8633 32.0022C99.3575 38.0254 100.64 44.4811 100.639 51.0002C100.639 64.1656 95.4094 76.7918 86.1001 86.1011C76.7908 95.4104 64.1649 100.64 50.9995 100.64C37.8342 100.64 25.2077 95.4104 15.8984 86.1011C6.58913 76.7918 1.35938 64.1656 1.35938 51.0002C1.35806 44.4811 2.64108 38.0254 5.13525 32.0022C7.62943 25.979 11.2857 20.5062 15.8955 15.8965C20.5053 11.2867 25.9783 7.63041 32.0015 5.13623C38.0247 2.64205 44.4803 1.35904 50.9995 1.36035V1.36035Z" fill="#F2F1F0"/>
<path fill-rule="evenodd" clip-rule="evenodd" d="M94.0898 51C94.0898 56.6587 92.975 62.2618 90.8096 67.4897C88.6441 72.7177 85.4705 77.468 81.4692 81.4692C77.468 85.4705 72.7177 88.6446 67.4897 90.8101C62.2618 92.9755 56.6587 94.0901 51 94.0901C45.3413 94.0901 39.7377 92.9755 34.5098 90.8101C29.2818 88.6446 24.532 85.4705 20.5308 81.4692C16.5295 77.468 13.3554 72.7177 11.1899 67.4897C9.02447 62.2618 7.90967 56.6587 7.90967 51C7.90967 39.5718 12.4498 28.6117 20.5308 20.5308C28.6117 12.4498 39.5718 7.90991 51 7.90991C62.4282 7.90991 73.3883 12.4498 81.4692 20.5308C89.5502 28.6117 94.0898 39.5718 94.0898 51V51ZM51 4.16992C63.4201 4.16992 75.3314 9.1039 84.1138 17.8862C92.8961 26.6686 97.8296 38.5799 97.8296 51C97.8296 63.4201 92.8961 75.3314 84.1138 84.1138C75.3314 92.8961 63.4201 97.8301 51 97.8301C38.5799 97.8301 26.6686 92.8961 17.8862 84.1138C9.1039 75.3314 4.16992 63.4201 4.16992 51C4.16992 38.5799 9.1039 26.6686 17.8862 17.8862C26.6686 9.1039 38.5799 4.16992 51 4.16992Z" fill="url(#paint1_linear)"/>
<path d="M78.6796 65.2197H64.6396V66.0197H78.6796V65.2197Z" fill="white"/>
<path d="M78.6796 55.04H64.6396V55.84H78.6796V55.04Z" fill="white"/>
<path d="M78.6796 44.8398H64.6396V45.6398H78.6796V44.8398Z" fill="white"/>
<path d="M78.6796 34.6504H64.6396V35.4504H78.6796V34.6504Z" fill="white"/>
<path d="M84.2305 30.5498H74.0903C73.795 30.5524 73.5126 30.6716 73.3047 30.8813C73.0968 31.0911 72.9805 31.3744 72.9805 31.6697V37.8699C72.9805 38.1643 73.097 38.4466 73.3052 38.6548C73.5133 38.863 73.7959 38.9797 74.0903 38.9797H84.2305C84.5258 38.9797 84.8088 38.8632 85.0186 38.6553C85.2283 38.4474 85.3475 38.1652 85.3501 37.8699V31.6897C85.3476 31.3916 85.2295 31.1062 85.0205 30.8936C84.8116 30.6809 84.5285 30.5576 84.2305 30.5498V30.5498Z" fill="#74CFEB"/>
<path d="M84.2305 51.2197H74.0903C73.7959 51.2197 73.5133 51.3368 73.3052 51.5449C73.097 51.7531 72.9805 52.0354 72.9805 52.3298V58.5498C72.9805 58.8442 73.097 59.1266 73.3052 59.3347C73.5133 59.5429 73.7959 59.6597 74.0903 59.6597H84.2305C84.3771 59.661 84.5224 59.6333 84.6582 59.5781C84.794 59.5229 84.9173 59.4413 85.0215 59.3381C85.1256 59.2349 85.2082 59.1121 85.2646 58.9768C85.3211 58.8415 85.3501 58.6964 85.3501 58.5498V52.3298C85.3449 52.0353 85.2253 51.7545 85.0161 51.5471C84.8069 51.3398 84.525 51.2223 84.2305 51.2197V51.2197Z" fill="#44C7F0"/>
<path d="M84.2305 40.8701H74.0903C73.7959 40.8701 73.5133 40.9869 73.3052 41.1951C73.097 41.4032 72.9805 41.6856 72.9805 41.98V48.1799C72.9805 48.4752 73.0968 48.7588 73.3047 48.9685C73.5126 49.1783 73.795 49.2974 74.0903 49.3H84.2305C84.5275 49.3 84.8124 49.182 85.0225 48.9719C85.2325 48.7619 85.3501 48.477 85.3501 48.1799V42C85.3501 41.702 85.2327 41.4162 85.0229 41.2046C84.8132 40.993 84.5284 40.8728 84.2305 40.8701V40.8701Z" fill="#74CFEB"/>
<path d="M84.2305 61.5098H74.0903C73.7959 61.5098 73.5133 61.6268 73.3052 61.835C73.097 62.0431 72.9805 62.3255 72.9805 62.6199V68.8398C72.9805 69.1352 73.0968 69.4184 73.3047 69.6282C73.5126 69.8379 73.795 69.9571 74.0903 69.9597H84.2305C84.5275 69.9597 84.8124 69.8419 85.0225 69.6318C85.2325 69.4218 85.3501 69.1369 85.3501 68.8398V62.6399C85.345 62.3435 85.2258 62.0604 85.0171 61.8499C84.8084 61.6393 84.5268 61.5175 84.2305 61.5098V61.5098Z" fill="#2E76BC"/>
<path opacity="0.2" d="M67.2998 78.4299C67.9823 78.4273 68.636 78.1545 69.1177 77.6709C69.5994 77.1873 69.8696 76.5326 69.8696 75.8501V29.21H19.4297V75.8501C19.4297 76.5326 19.7004 77.1873 20.1821 77.6709C20.6638 78.1545 21.3175 78.4273 22 78.4299H67.2998Z" fill="#1F1D20"/>
<path d="M69.8897 28.4399V27.6401C69.8897 27.4077 69.8439 27.1774 69.7549 26.9626C69.666 26.7479 69.536 26.5528 69.3716 26.3884C69.2072 26.2241 69.0121 26.0936 68.7974 26.0046C68.5826 25.9157 68.3521 25.8701 68.1197 25.8701H21.19C20.958 25.8701 20.7284 25.9158 20.5142 26.0049C20.3 26.094 20.1055 26.2247 19.9419 26.3892C19.7784 26.5537 19.6489 26.7487 19.5611 26.9634C19.4732 27.1781 19.4284 27.4082 19.4297 27.6401V74.22C19.4284 74.4519 19.4732 74.682 19.5611 74.8967C19.6489 75.1114 19.7784 75.3065 19.9419 75.4709C20.1055 75.6354 20.3 75.7659 20.5142 75.855C20.7284 75.9441 20.958 75.99 21.19 75.99H68.19C68.4224 75.99 68.6525 75.9442 68.8672 75.8552C69.082 75.7663 69.2771 75.636 69.4414 75.4717C69.6058 75.3073 69.7363 75.1122 69.8252 74.8975C69.9142 74.6827 69.96 74.4524 69.96 74.22V28.5C69.96 28.5 69.8897 28.4599 69.8897 28.4399Z" fill="white"/>
<path opacity="0.15" d="M55.2097 61.8604C58.6697 63.9304 58.6697 67.1702 55.2097 69.2502C53.2503 70.2704 51.0736 70.803 48.8645 70.803C46.6555 70.803 44.4792 70.2704 42.5198 69.2502C39.0598 67.1802 39.0598 63.9404 42.5198 61.8604C44.4777 60.8353 46.6545 60.2998 48.8645 60.2998C51.0745 60.2998 53.2518 60.8353 55.2097 61.8604V61.8604Z" fill="#1F1D20"/>
<path d="M56.1996 42.5498V37.9697H41.2997V42.6299C41.2964 42.8046 41.2288 42.9719 41.1098 43.0999C39.8087 44.4368 39.0897 46.2344 39.1098 48.0999V51.4097L49.54 59.1797L58.4799 51.4097V47.9097C58.4877 46.0761 57.7686 44.3142 56.4799 43.0098C56.3964 42.9651 56.326 42.8988 56.2768 42.8179C56.2275 42.737 56.2009 42.6445 56.1996 42.5498V42.5498Z" fill="url(#paint2_linear)"/>
<path d="M58.4292 53.2903H39.0591V63.3704C39.0554 63.5914 39.0725 63.8123 39.1094 64.0303C39.1094 65.4603 40.0294 66.9103 41.9194 68.0303C45.9194 70.2703 51.9194 70.2703 55.6094 68.0303C57.6094 66.8403 58.5192 65.3003 58.4092 63.7803C58.419 63.6404 58.419 63.5002 58.4092 63.3604V53.2803L58.4292 53.2903Z" fill="url(#paint3_linear)"/>
<path d="M58.4194 47.2002C58.4375 47.1872 58.4587 47.1796 58.481 47.178C58.5032 47.1765 58.5257 47.1811 58.5454 47.1915C58.5651 47.2018 58.5815 47.2177 58.5928 47.2369C58.6041 47.2561 58.6098 47.2781 58.6094 47.3003V61.9102C58.6094 63.2602 57.6095 64.8203 55.7095 65.9703C53.6577 66.9104 51.4147 67.359 49.1592 67.2803C46.4992 67.3403 43.8095 67.1003 41.7695 65.9703C40.9472 65.5433 40.2216 64.9509 39.6392 64.2303C39.1891 63.7517 38.9144 63.1349 38.8594 62.4803V47.4803C38.8598 47.4514 38.8681 47.4231 38.8833 47.3985C38.8985 47.3739 38.9197 47.354 38.9453 47.3406C38.9709 47.3273 39 47.3211 39.0288 47.3228C39.0577 47.3245 39.0855 47.3341 39.1094 47.3504C39.9238 47.9822 40.8184 48.5032 41.7695 48.9002C44.0243 49.8465 46.4551 50.3 48.8994 50.2303C51.2561 50.3267 53.6015 49.857 55.7393 48.8604C56.696 48.4166 57.596 47.8591 58.4194 47.2002V47.2002Z" fill="#B4E2EF"/>
<path d="M55.7397 51.77C54.9107 52.2092 54.0209 52.5226 53.0996 52.7V64.51C54.0113 64.3429 54.892 64.036 55.71 63.6001C56.1835 63.3194 56.5976 62.9491 56.9297 62.51V51.1201C56.5897 51.3001 56.1997 51.52 55.7397 51.77Z" fill="#F4F4F5"/>
<path d="M57.1597 35.05V37.9499C57.1597 39.1099 56.3397 40.4299 54.6797 41.4299C52.8177 42.3282 50.7773 42.7947 48.71 42.7947C46.6426 42.7947 44.6017 42.3282 42.7397 41.4299C42.0371 41.0593 41.415 40.5528 40.9097 39.9399C40.5267 39.5287 40.2944 39.0001 40.25 38.4399L40.3096 35C40.3096 35 41.0797 35.3901 42.7397 36.3901C42.3797 36.1901 54.2799 33.1701 53.9199 33.3901C55.6099 32.3701 57.1597 36.21 57.1597 35.05Z" fill="#E6E6E6"/>
<path d="M54.7201 31.7703C57.9901 33.7703 57.9901 36.7703 54.7201 38.7703C52.8696 39.7425 50.8105 40.2505 48.7201 40.2505C46.6297 40.2505 44.5706 39.7425 42.7201 38.7703C39.4501 36.7703 39.4501 33.7703 42.7201 31.7703C44.5731 30.8062 46.6312 30.3027 48.7201 30.3027C50.8089 30.3027 52.867 30.8062 54.7201 31.7703Z" fill="#96D8EC"/>
<path d="M51.3498 33.8896C52.7698 34.7396 52.7698 36.0696 51.3498 36.8896C50.5452 37.3135 49.6495 37.5349 48.74 37.5349C47.8305 37.5349 46.9348 37.3135 46.1301 36.8896C44.7001 36.0396 44.7001 34.7096 46.1301 33.8896C46.9348 33.4658 47.8305 33.2441 48.74 33.2441C49.6495 33.2441 50.5452 33.4658 51.3498 33.8896Z" fill="url(#paint4_linear)"/>
<g opacity="0.15">
<path opacity="0.15" d="M24.42 34.4194C24.42 34.6564 24.5131 34.884 24.6797 35.0525C24.8464 35.221 25.0727 35.3169 25.3096 35.3196H36.73C36.967 35.3169 37.1933 35.221 37.3599 35.0525C37.5265 34.884 37.6197 34.6564 37.6197 34.4194C37.6197 34.1825 37.5265 33.9551 37.3599 33.7866C37.1933 33.6181 36.967 33.5222 36.73 33.5195H25.2999C25.183 33.5208 25.0675 33.5451 24.96 33.5911C24.8525 33.637 24.7551 33.7038 24.6734 33.7874C24.5917 33.8709 24.5275 33.9696 24.4839 34.0781C24.4404 34.1866 24.4187 34.3026 24.42 34.4194V34.4194Z" fill="#1F1D20"/>
<path opacity="0.15" d="M24.42 38.3298C24.42 38.5668 24.5131 38.7941 24.6797 38.9626C24.8464 39.1311 25.0727 39.2271 25.3096 39.2297H36.73C36.967 39.2271 37.1933 39.1311 37.3599 38.9626C37.5265 38.7941 37.6197 38.5668 37.6197 38.3298C37.6197 38.0929 37.5265 37.8653 37.3599 37.6968C37.1933 37.5283 36.967 37.4323 36.73 37.4297H25.2999C25.183 37.431 25.0675 37.4553 24.96 37.5012C24.8525 37.5472 24.7551 37.6139 24.6734 37.6975C24.5917 37.7811 24.5275 37.88 24.4839 37.9885C24.4404 38.097 24.4187 38.213 24.42 38.3298V38.3298Z" fill="#1F1D20"/>
<path opacity="0.15" fill-rule="evenodd" clip-rule="evenodd" d="M37.6192 42.5396C37.6192 42.7756 37.5254 43.002 37.3585 43.1689C37.1915 43.3359 36.9656 43.4294 36.7295 43.4294H31.0093C30.7733 43.4294 30.5468 43.3359 30.3799 43.1689C30.213 43.002 30.1192 42.7756 30.1192 42.5396C30.1179 42.4218 30.14 42.3049 30.1841 42.1958C30.2283 42.0867 30.2937 41.9875 30.3765 41.9038C30.4593 41.8201 30.5579 41.7536 30.6666 41.7083C30.7752 41.6629 30.8916 41.6396 31.0093 41.6396H36.7295C36.8473 41.6396 36.9637 41.6629 37.0723 41.7083C37.181 41.7536 37.2796 41.8201 37.3624 41.9038C37.4451 41.9875 37.5106 42.0867 37.5547 42.1958C37.5989 42.3049 37.6205 42.4218 37.6192 42.5396V42.5396Z" fill="#1F1D20"/>
</g>
<path d="M24.42 33.7698C24.42 34.0067 24.5131 34.2341 24.6797 34.4026C24.8464 34.5711 25.0727 34.667 25.3096 34.6697H36.73C36.967 34.667 37.1933 34.5711 37.3599 34.4026C37.5265 34.2341 37.6197 34.0067 37.6197 33.7698C37.6197 33.5337 37.5259 33.3073 37.3589 33.1404C37.192 32.9735 36.9661 32.8799 36.73 32.8799H25.2999C25.1835 32.8799 25.0684 32.9029 24.961 32.9478C24.8536 32.9926 24.7557 33.0583 24.6739 33.1411C24.592 33.2239 24.5276 33.322 24.4839 33.4299C24.4403 33.5379 24.4187 33.6534 24.42 33.7698V33.7698Z" fill="#74CFEB"/>
<path d="M24.42 37.77C24.42 38.007 24.5131 38.2343 24.6797 38.4028C24.8464 38.5713 25.0727 38.6673 25.3096 38.6699H36.73C36.967 38.6673 37.1933 38.5713 37.3599 38.4028C37.5265 38.2343 37.6197 38.007 37.6197 37.77C37.6197 37.533 37.5265 37.3057 37.3599 37.1372C37.1933 36.9687 36.967 36.8728 36.73 36.8701H25.2999C25.183 36.8714 25.0675 36.8957 24.96 36.9417C24.8525 36.9876 24.7551 37.0541 24.6734 37.1377C24.5917 37.2213 24.5275 37.3202 24.4839 37.4287C24.4404 37.5372 24.4187 37.6531 24.42 37.77V37.77Z" fill="#35AFE4"/>
<path fill-rule="evenodd" clip-rule="evenodd" d="M37.6191 41.9302C37.6191 42.1662 37.5253 42.3927 37.3584 42.5596C37.1915 42.7265 36.9655 42.8203 36.7295 42.8203H31.0093C30.7732 42.8203 30.5468 42.7265 30.3799 42.5596C30.213 42.3927 30.1191 42.1662 30.1191 41.9302C30.1191 41.6932 30.2128 41.4659 30.3794 41.2974C30.546 41.1289 30.7723 41.0329 31.0093 41.0303H36.7295C36.8472 41.0303 36.9636 41.0535 37.0723 41.0989C37.1809 41.1442 37.2795 41.2107 37.3623 41.2944C37.4451 41.3781 37.5106 41.4775 37.5547 41.5867C37.5988 41.6958 37.6205 41.8125 37.6191 41.9302V41.9302Z" fill="#175A98"/>
<path d="M65.3794 80.0496C67.594 80.0496 69.7178 79.1697 71.2837 77.6038C72.8496 76.0378 73.7295 73.914 73.7295 71.6995C73.7295 69.4849 72.8496 67.3611 71.2837 65.7952C69.7178 64.2292 67.594 63.3496 65.3794 63.3496C63.1648 63.3496 61.041 64.2292 59.4751 65.7952C57.9092 67.3611 57.0293 69.4849 57.0293 71.6995C57.0293 73.914 57.9092 76.0378 59.4751 77.6038C61.041 79.1697 63.1648 80.0496 65.3794 80.0496Z" fill="#092D4C"/>
<path d="M69.9199 67.4502L63.04 74.3604L60.98 72.2803L59.5996 73.6702L63.04 77.1104L71.2998 68.8303L69.9199 67.4502Z" fill="#FAF9F8"/>
<defs>
<linearGradient id="paint0_linear" x1="49.2393" y1="-13.7896" x2="53.2193" y2="131.981" gradientUnits="userSpaceOnUse">
<stop stop-color="#00ABDE"/>
<stop offset="1" stop-color="#2E7BBF"/>
</linearGradient>
<linearGradient id="paint1_linear" x1="2.43993" y1="-20.6201" x2="97.9603" y2="120.26" gradientUnits="userSpaceOnUse">
<stop stop-color="#2E7BBF"/>
<stop offset="0.71" stop-color="#092D4C"/>
</linearGradient>
<linearGradient id="paint2_linear" x1="48.5698" y1="27.4497" x2="48.9698" y2="77.9597" gradientUnits="userSpaceOnUse">
<stop stop-color="#4FC2EB"/>
<stop offset="0.58" stop-color="#2E76BC"/>
</linearGradient>
<linearGradient id="paint3_linear" x1="98274.1" y1="138217" x2="98287.1" y2="137843" gradientUnits="userSpaceOnUse">
<stop stop-color="#4FC2EB"/>
<stop offset="0.58" stop-color="#2E76BC"/>
</linearGradient>
<linearGradient id="paint4_linear" x1="37340.8" y1="36230" x2="37357.5" y2="36150.7" gradientUnits="userSpaceOnUse">
<stop stop-color="#4FC2EB"/>
<stop offset="0.58" stop-color="#2E76BC"/>
</linearGradient>
</defs>
</svg>
