<svg width="103" height="103" viewBox="0 0 103 103" fill="none" xmlns="http://www.w3.org/2000/svg">
<path d="M51.2497 98.4736C25.3997 98.4736 4.4397 77.5236 4.4397 51.6636C4.4397 25.8036 25.3997 4.85364 51.2497 4.85364C77.0997 4.85364 98.0597 25.8136 98.0597 51.6636C98.0597 77.5136 77.0997 98.4736 51.2497 98.4736Z" fill="url(#paint0_linear)"/>
<path fill-rule="evenodd" clip-rule="evenodd" d="M97.1499 51.6636C97.1499 77.0136 76.5999 97.5636 51.2499 97.5636C25.8999 97.5636 5.34986 77.0136 5.34986 51.6636C5.34986 26.3136 25.8999 5.76362 51.2499 5.76362C76.5999 5.76362 97.1499 26.3136 97.1499 51.6636ZM51.2499 2.02362C78.6699 2.02362 100.89 24.2436 100.89 51.6636C100.89 79.0836 78.6599 101.304 51.2499 101.304C23.8299 101.304 1.60986 79.0736 1.60986 51.6636C1.60986 24.2436 23.8299 2.02362 51.2499 2.02362Z" fill="#F2F1F0"/>
<path fill-rule="evenodd" clip-rule="evenodd" d="M94.3397 51.6636C94.3397 75.4636 75.0497 94.7536 51.2497 94.7536C27.4497 94.7536 8.15968 75.4636 8.15968 51.6636C8.15968 27.8636 27.4497 8.57362 51.2497 8.57362C75.0497 8.57362 94.3397 27.8636 94.3397 51.6636ZM51.2497 4.83362C77.1097 4.83362 98.0797 25.8036 98.0797 51.6636C98.0797 77.5236 77.1097 98.4936 51.2497 98.4936C25.3897 98.4936 4.41968 77.5236 4.41968 51.6636C4.41968 25.8036 25.3797 4.83362 51.2497 4.83362Z" fill="url(#paint1_linear)"/>
<path opacity="0.2" d="M69.4097 36.6536H55.6897V44.6836C55.6897 44.9236 55.8897 45.1236 56.1297 45.1236H68.9697C69.2097 45.1236 69.4097 44.9236 69.4097 44.6836V36.6536Z" fill="#1F1D21"/>
<path opacity="0.2" d="M89.1597 36.6536H75.4397V44.6836C75.4397 44.9236 75.6397 45.1236 75.8797 45.1236H88.7197C88.9597 45.1236 89.1597 44.9236 89.1597 44.6836V36.6536Z" fill="#1F1D21"/>
<path opacity="0.2" d="M89.4798 49.4036H75.7498V57.4336C75.7498 57.6736 75.9498 57.8736 76.1898 57.8736H89.0298C89.2698 57.8736 89.4698 57.6736 89.4698 57.4336L89.4798 49.4036Z" fill="#1F1D21"/>
<path opacity="0.2" d="M69.4097 64.4437H55.6897V72.4737C55.6897 72.7137 55.8897 72.9137 56.1297 72.9137H68.9697C69.2097 72.9137 69.4097 72.7137 69.4097 72.4737V64.4437Z" fill="#1F1D21"/>
<path opacity="0.2" d="M69.4097 49.0037H55.6897V60.3837C55.6897 60.7837 56.0097 61.1037 56.4097 61.1037H68.6897C69.0897 61.1037 69.4097 60.7837 69.4097 60.3837V49.0037Z" fill="#1F1D21"/>
<path fill-rule="evenodd" clip-rule="evenodd" d="M51.8848 38.7537C51.8848 38.5466 52.0527 38.3787 52.2598 38.3787H58.0898V39.1287H52.6348V66.0687H58.0898V66.8187H52.2598C52.0527 66.8187 51.8848 66.6508 51.8848 66.4437V38.7537Z" fill="white"/>
<path fill-rule="evenodd" clip-rule="evenodd" d="M64.2498 38.3787H72.2598C72.4669 38.3787 72.6348 38.5466 72.6348 38.7537V51.3087H80.2598V52.0587H72.2598C72.0527 52.0587 71.8848 51.8908 71.8848 51.6837V39.1287H64.2498V38.3787Z" fill="white"/>
<path fill-rule="evenodd" clip-rule="evenodd" d="M79.9697 39.1287H66.9597V38.3787H79.9697V39.1287Z" fill="white"/>
<path fill-rule="evenodd" clip-rule="evenodd" d="M45.1597 49.7886H58.0797V50.5386H45.1597V49.7886Z" fill="white"/>
<path d="M69.4097 35.6136H55.6897V43.6436C55.6897 43.8836 55.8897 44.0836 56.1297 44.0836H68.9697C69.2097 44.0836 69.4097 43.8836 69.4097 43.6436V35.6136Z" fill="#50E6FF"/>
<path d="M68.9497 34.4236H56.1597C55.8997 34.4236 55.6897 34.6336 55.6897 34.8936V35.8936H69.4097V34.8936C69.4097 34.6336 69.1997 34.4236 68.9497 34.4236Z" fill="white"/>
<path d="M89.1597 35.6136H75.4397V43.6436C75.4397 43.8836 75.6397 44.0836 75.8797 44.0836H88.7197C88.9597 44.0836 89.1597 43.8836 89.1597 43.6436V35.6136Z" fill="#45CAF2"/>
<path d="M88.6997 34.4236H75.9097C75.6497 34.4236 75.4397 34.6336 75.4397 34.8936V35.8936H89.1597V34.8936C89.1597 34.6336 88.9597 34.4236 88.6997 34.4236Z" fill="white"/>
<path d="M89.4798 48.3636H75.7498V56.3936C75.7498 56.6336 75.9498 56.8336 76.1898 56.8336H89.0298C89.2698 56.8336 89.4698 56.6336 89.4698 56.3936L89.4798 48.3636Z" fill="#45CAF2"/>
<path d="M89.0098 47.1736H76.2298C75.9698 47.1736 75.7598 47.3836 75.7598 47.6436V48.6436H89.4798V47.6436C89.4798 47.3836 89.2698 47.1736 89.0098 47.1736Z" fill="white"/>
<path d="M69.4097 63.4036H55.6897V71.4336C55.6897 71.6736 55.8897 71.8736 56.1297 71.8736H68.9697C69.2097 71.8736 69.4097 71.6736 69.4097 71.4336V63.4036Z" fill="#50E6FF"/>
<path d="M68.9497 62.2136H56.1597C55.8997 62.2136 55.6897 62.4236 55.6897 62.6836V63.6836H69.4097V62.6836C69.4097 62.4236 69.1997 62.2136 68.9497 62.2136Z" fill="white"/>
<path d="M69.4097 47.9636H55.6897V59.3436C55.6897 59.7436 56.0097 60.0636 56.4097 60.0636H68.6897C69.0897 60.0636 69.4097 59.7436 69.4097 59.3436V47.9636Z" fill="#50E6FF"/>
<path d="M68.7497 46.7736H56.3497C55.9897 46.7736 55.6897 47.0736 55.6897 47.4336V48.2536H69.4097V47.4336C69.4097 47.0636 69.1197 46.7736 68.7497 46.7736Z" fill="white"/>
<path opacity="0.2" d="M46.8296 68.8037C47.3696 68.8037 47.8096 68.3637 47.8096 67.8237V36.9037H15.1096V67.8237C15.1096 68.3637 15.5496 68.8037 16.0896 68.8037H46.8296Z" fill="#1F1D21"/>
<path d="M47.8096 36.9137V36.4037C47.8096 35.7737 47.2996 35.2637 46.6696 35.2637H16.2396C15.6096 35.2637 15.0996 35.7737 15.0996 36.4037V36.9637V37.4737V66.5937C15.0996 67.2237 15.6096 67.7337 16.2396 67.7337H46.6796C47.3096 67.7337 47.8196 67.2237 47.8196 66.5937V36.9737C47.8096 36.9537 47.8096 36.9337 47.8096 36.9137Z" fill="#F2F1F0"/>
<path d="M35.9699 48.3836L29.1999 52.3336L22.0799 44.4036C21.5499 43.8236 21.9699 42.8836 22.7499 42.8836H35.9599L35.9699 48.3836Z" fill="url(#paint2_linear)"/>
<path d="M39.7299 47.2236L35.9199 42.9336L22.0399 58.4336C21.5699 58.9636 21.9399 59.7936 22.6499 59.7936H28.4499L39.7299 47.2236Z" fill="url(#paint3_linear)"/>
<path d="M42.94 50.8236L39.69 47.1636L28.25 59.7836H35.63C35.78 59.7836 35.93 59.7236 36.04 59.6036L42.94 52.0836C43.26 51.7336 43.27 51.1836 42.94 50.8236Z" fill="url(#paint4_linear)"/>
<defs>
<linearGradient id="paint0_linear" x1="49.4798" y1="-13.1259" x2="53.4618" y2="132.644" gradientUnits="userSpaceOnUse">
<stop stop-color="#00ABDE"/>
<stop offset="1" stop-color="#007ED8"/>
</linearGradient>
<linearGradient id="paint1_linear" x1="2.68238" y1="-19.9609" x2="98.2094" y2="120.921" gradientUnits="userSpaceOnUse">
<stop stop-color="#007ED8"/>
<stop offset="0.7065" stop-color="#002D4C"/>
</linearGradient>
<linearGradient id="paint2_linear" x1="22.7384" y1="38.3521" x2="38.1365" y2="52.8404" gradientUnits="userSpaceOnUse">
<stop offset="0.4598" stop-color="#1152D4"/>
<stop offset="0.6156" stop-color="#0D3FB3"/>
</linearGradient>
<linearGradient id="paint3_linear" x1="21.8273" y1="51.3555" x2="39.7278" y2="51.3555" gradientUnits="userSpaceOnUse">
<stop stop-color="#388CF4"/>
<stop offset="1" stop-color="#2C7CEF"/>
</linearGradient>
<linearGradient id="paint4_linear" x1="28.2463" y1="53.4747" x2="43.182" y2="53.4747" gradientUnits="userSpaceOnUse">
<stop stop-color="#76C0FD"/>
<stop offset="1" stop-color="#63B2FB"/>
</linearGradient>
</defs>
</svg>
