<svg width="103" height="103" viewBox="0 0 103 103" fill="none" xmlns="http://www.w3.org/2000/svg">
<path d="M51.8749 98.1556C26.0249 98.1556 5.06494 77.2056 5.06494 51.3456C5.06494 25.4856 26.0249 4.53564 51.8749 4.53564C77.7249 4.53564 98.6849 25.4956 98.6849 51.3456C98.6849 77.1956 77.7249 98.1556 51.8749 98.1556Z" fill="url(#paint0_linear)"/>
<path fill-rule="evenodd" clip-rule="evenodd" d="M97.7751 51.3456C97.7751 76.6956 77.2251 97.2456 51.8751 97.2456C26.5251 97.2456 5.97511 76.6956 5.97511 51.3456C5.97511 25.9956 26.5251 5.44557 51.8751 5.44557C77.2251 5.44557 97.7751 25.9956 97.7751 51.3456ZM51.8751 1.70557C79.2951 1.70557 101.515 23.9256 101.515 51.3456C101.515 78.7656 79.2851 100.986 51.8751 100.986C24.4551 100.986 2.23511 78.7556 2.23511 51.3456C2.23511 23.9256 24.4551 1.70557 51.8751 1.70557Z" fill="#F2F1F0"/>
<path fill-rule="evenodd" clip-rule="evenodd" d="M94.9649 51.3456C94.9649 75.1456 75.6749 94.4356 51.8749 94.4356C28.0749 94.4356 8.78492 75.1456 8.78492 51.3456C8.78492 27.5456 28.0749 8.25562 51.8749 8.25562C75.6749 8.25562 94.9649 27.5456 94.9649 51.3456ZM51.8749 4.51562C77.7349 4.51562 98.7049 25.4856 98.7049 51.3456C98.7049 77.2056 77.7349 98.1756 51.8749 98.1756C26.0149 98.1756 5.04492 77.2056 5.04492 51.3456C5.04492 25.4856 26.0049 4.51562 51.8749 4.51562Z" fill="url(#paint1_linear)"/>
<path opacity="0.3" d="M20.225 76.2656H83.505C83.985 76.2656 84.445 76.0756 84.795 75.7356C85.145 75.3856 85.325 74.9256 85.325 74.4456V31.2056C85.325 30.2056 84.275 29.2856 82.865 29.2856L21.095 30.2256C20.855 30.2256 20.625 30.2656 20.405 30.3556C20.185 30.4556 19.985 30.5756 19.815 30.7556C19.645 30.9256 19.515 31.1156 19.415 31.3456C19.315 31.5656 19.285 31.8056 19.285 32.0356L18.405 74.4756C18.405 74.9556 18.595 75.4156 18.935 75.7556C19.285 76.0856 19.755 76.2656 20.225 76.2656Z" fill="#1F1D20"/>
<path d="M83.3449 28.4756H19.8349C18.8449 28.4756 18.0349 29.2856 18.0349 30.2756V73.6156C18.0349 74.6056 18.8449 75.4156 19.8349 75.4156H83.3549C84.3449 75.4156 85.1549 74.6056 85.1549 73.6156V30.2756C85.1449 29.2756 84.3349 28.4756 83.3449 28.4756Z" fill="url(#paint2_linear)"/>
<path d="M82.5149 31.106H51.8149V72.336H82.5049V31.106H82.5149Z" fill="white"/>
<path d="M52.2549 31.106H21.5549V72.336H52.2449V31.106H52.2549Z" fill="#CDCDD0"/>
<path d="M27.6948 21.8657V62.7557C27.6948 62.7557 35.8848 61.9357 42.5248 65.2757C49.1748 68.6057 52.2548 72.2957 52.2548 72.2957V31.3957C52.2548 31.3957 48.4248 26.5157 42.5248 24.7157C37.7348 23.2457 27.6948 21.8657 27.6948 21.8657Z" fill="#EAEAEA"/>
<path d="M57.8849 50.7756L55.9549 49.9356L54.0149 50.7756V28.4756H57.8849V50.7756Z" fill="url(#paint3_linear)"/>
<path d="M73.9551 55.8456H68.1851V38.5856C68.1851 37.9656 68.6851 37.4556 69.3151 37.4556H73.9551C74.5751 37.4556 75.0851 37.9556 75.0851 38.5856V54.7156C75.0751 55.3356 74.5751 55.8456 73.9551 55.8456Z" fill="url(#paint4_linear)"/>
<path d="M70.2149 55.8458H64.3049V43.1358C64.3049 42.5958 64.7449 42.1558 65.2849 42.1558H70.2149C70.7549 42.1558 71.1949 42.5958 71.1949 43.1358V54.8558C71.1949 55.4058 70.7549 55.8458 70.2149 55.8458Z" fill="url(#paint5_linear)"/>
<path d="M66.225 55.8458H61.885C61.175 55.8458 60.605 55.2758 60.605 54.5658V47.9358C60.605 47.2258 61.175 46.6558 61.885 46.6558H66.225C66.935 46.6558 67.505 47.2258 67.505 47.9358V54.5658C67.495 55.2658 66.925 55.8458 66.225 55.8458Z" fill="url(#paint6_linear)"/>
<path d="M80.6951 77.5158C84.6651 77.5158 87.8751 74.2958 87.8751 70.3358C87.8751 66.3758 84.6551 63.1558 80.6951 63.1558C76.7251 63.1558 73.5151 66.3758 73.5151 70.3358C73.5151 74.3058 76.7351 77.5158 80.6951 77.5158Z" fill="#002D4C"/>
<path d="M84.6051 66.6855L78.6851 72.6255L76.9151 70.8456L75.7351 72.0356L78.6951 74.9956L85.8051 67.8655L84.6051 66.6855Z" fill="#FAF9F8"/>
<path d="M74.8449 58.2959H61.3749C60.9149 58.2959 60.5549 58.6859 60.5549 59.1159C60.5549 59.5759 60.9449 59.9359 61.3749 59.9359H74.8449C75.3049 59.9359 75.6649 59.5459 75.6649 59.1159C75.6649 58.6559 75.3049 58.2959 74.8449 58.2959Z" fill="#45CAF2"/>
<path d="M70.8449 61.876H61.3749C60.9149 61.876 60.5549 62.266 60.5549 62.696C60.5549 63.156 60.9449 63.516 61.3749 63.516H70.8449C71.3049 63.516 71.6649 63.126 71.6649 62.696C71.6649 62.266 71.3049 61.876 70.8449 61.876Z" fill="#0078D4"/>
<path fill-rule="evenodd" clip-rule="evenodd" d="M61.3749 65.7461H66.5949C67.0549 65.7461 67.4149 66.1361 67.4149 66.5661C67.4149 67.0261 67.0249 67.3861 66.5949 67.3861H61.3749C60.9149 67.3861 60.5549 66.9961 60.5549 66.5661C60.5549 66.1061 60.9149 65.7461 61.3749 65.7461Z" fill="#185A97"/>
<defs>
<linearGradient id="paint0_linear" x1="50.105" y1="-13.444" x2="54.087" y2="132.326" gradientUnits="userSpaceOnUse">
<stop stop-color="#00ABDE"/>
<stop offset="1" stop-color="#007ED8"/>
</linearGradient>
<linearGradient id="paint1_linear" x1="3.30762" y1="-20.2789" x2="98.8346" y2="120.602" gradientUnits="userSpaceOnUse">
<stop stop-color="#007ED8"/>
<stop offset="0.7065" stop-color="#002D4C"/>
</linearGradient>
<linearGradient id="paint2_linear" x1="51.597" y1="31.4918" x2="51.597" y2="79.16" gradientUnits="userSpaceOnUse">
<stop stop-color="#007ED8"/>
<stop offset="0.7065" stop-color="#002D4C"/>
</linearGradient>
<linearGradient id="paint3_linear" x1="42.6849" y1="15.3348" x2="88.6562" y2="99.5397" gradientUnits="userSpaceOnUse">
<stop stop-color="#007ED8"/>
<stop offset="0.7065" stop-color="#002D4C"/>
</linearGradient>
<linearGradient id="paint4_linear" x1="71.5549" y1="39.143" x2="71.7015" y2="54.393" gradientUnits="userSpaceOnUse">
<stop offset="0.00753769" stop-color="#E0A310"/>
<stop offset="1" stop-color="#CA810E"/>
</linearGradient>
<linearGradient id="paint5_linear" x1="67.5656" y1="42.6873" x2="68.0055" y2="58.8172" gradientUnits="userSpaceOnUse">
<stop offset="0.00753769" stop-color="#F2CC40"/>
<stop offset="1" stop-color="#E7B116"/>
</linearGradient>
<linearGradient id="paint6_linear" x1="63.8885" y1="47.3639" x2="64.3284" y2="57.775" gradientUnits="userSpaceOnUse">
<stop stop-color="#F8E17B"/>
<stop offset="0.5302" stop-color="#F6D856"/>
<stop offset="1" stop-color="#F6D856"/>
</linearGradient>
</defs>
</svg>
