<svg width="100" height="100" viewBox="0 0 100 100" fill="none" xmlns="http://www.w3.org/2000/svg">
<g clip-path="url(#clip0)">
<path d="M49.6401 96.4501C40.382 96.4501 31.3317 93.7047 23.6339 88.5612C15.936 83.4176 9.93624 76.1069 6.3933 67.5535C2.85036 59.0001 1.92337 49.5882 3.72954 40.5079C5.53571 31.4277 9.99394 23.0869 16.5404 16.5404C23.0869 9.99393 31.4277 5.53571 40.5079 3.72954C49.5882 1.92337 59.0001 2.85036 67.5535 6.3933C76.1069 9.93624 83.4176 15.936 88.5612 23.6339C93.7047 31.3317 96.4501 40.382 96.4501 49.6401C96.4505 55.7874 95.24 61.8746 92.8878 67.554C90.5355 73.2335 87.0875 78.3939 82.7407 82.7407C78.3939 87.0875 73.2335 90.5355 67.554 92.8878C61.8746 95.24 55.7874 96.4505 49.6401 96.4501V96.4501Z" fill="url(#paint0_linear)"/>
<path fill-rule="evenodd" clip-rule="evenodd" d="M95.54 49.64C95.54 58.7182 92.848 67.5925 87.8045 75.1407C82.7609 82.6889 75.5923 88.572 67.2052 92.0461C58.818 95.5201 49.5891 96.4291 40.6854 94.658C31.7816 92.887 23.603 88.5154 17.1838 82.0962C10.7646 75.677 6.39302 67.4984 4.62196 58.5946C2.85089 49.6909 3.75987 40.462 7.23393 32.0748C10.708 23.6877 16.5911 16.5191 24.1393 11.4755C31.6875 6.43199 40.5618 3.74 49.64 3.74C55.6677 3.73998 61.6363 4.9272 67.2052 7.23388C72.774 9.54057 77.834 12.9215 82.0963 17.1837C86.3585 21.446 89.7394 26.5059 92.0461 32.0748C94.3528 37.6437 95.54 43.6123 95.54 49.64V49.64ZM49.64 3.62732e-07C59.4579 3.62732e-07 69.0553 2.91134 77.2185 8.36585C85.3818 13.8204 91.7442 21.5731 95.5014 30.6436C99.2585 39.7141 100.242 49.6951 98.3262 59.3243C96.4108 68.9535 91.6831 77.7985 84.7408 84.7408C77.7985 91.6831 68.9535 96.4108 59.3243 98.3262C49.6951 100.242 39.7141 99.2585 30.6436 95.5014C21.5731 91.7442 13.8204 85.3818 8.36585 77.2185C2.91134 69.0553 3.62732e-07 59.4579 3.62732e-07 49.64C-0.000787738 43.121 1.28265 36.6656 3.77702 30.6427C6.27138 24.6197 9.9278 19.1471 14.5375 14.5375C19.1471 9.9278 24.6197 6.27138 30.6427 3.77702C36.6656 1.28265 43.121 -0.000787738 49.64 3.62732e-07V3.62732e-07Z" fill="#F2F1F0"/>
<path fill-rule="evenodd" clip-rule="evenodd" d="M92.7296 49.6406C92.7296 58.163 90.2024 66.494 85.4676 73.5801C80.7328 80.6662 74.0031 86.1892 66.1294 89.4505C58.2557 92.7119 49.5918 93.5653 41.2331 91.9026C32.8745 90.24 25.1966 86.1361 19.1703 80.1098C13.1441 74.0836 9.04017 66.4057 7.37753 58.047C5.7149 49.6884 6.56822 41.0244 9.8296 33.1507C13.091 25.2771 18.6139 18.5473 25.7 13.8126C32.7862 9.07776 41.1172 6.55058 49.6396 6.55058C55.2983 6.55023 60.9017 7.66455 66.1298 9.82991C71.3579 11.9953 76.1082 15.1692 80.1096 19.1706C84.1109 23.1719 87.2849 27.9223 89.4502 33.1503C91.6156 38.3784 92.7299 43.9818 92.7296 49.6406V49.6406ZM49.6396 2.81058C58.9017 2.81058 67.9558 5.55711 75.6569 10.7029C83.3581 15.8486 89.3604 23.1624 92.9049 31.7195C96.4493 40.2766 97.3767 49.6925 95.5697 58.7767C93.7628 67.8608 89.3027 76.2051 82.7534 82.7544C76.2041 89.3037 67.8598 93.7638 58.7757 95.5708C49.6915 97.3777 40.2756 96.4503 31.7185 92.9059C23.1614 89.3614 15.8476 83.3591 10.7018 75.6579C5.5561 67.9568 2.80957 58.9027 2.80957 49.6406C2.81076 37.2209 7.745 25.3101 16.5271 16.5281C25.3091 7.74599 37.2198 2.81174 49.6396 2.81055V2.81058Z" fill="#0078D4"/>
<path d="M47.2351 29.8359H23.586C22.2578 29.8359 21.1812 30.9126 21.1812 32.2407V55.8899C21.1812 57.2181 22.2578 58.2947 23.586 58.2947H47.2351C48.5633 58.2947 49.6399 57.2181 49.6399 55.8899V32.2407C49.6399 30.9126 48.5633 29.8359 47.2351 29.8359Z" fill="white"/>
<path d="M47.2352 60.6191H23.5518C22.2236 60.6191 21.147 61.6958 21.147 63.0239V67.0408C21.147 68.3689 22.2236 69.4456 23.5518 69.4456H47.2352C48.5633 69.4456 49.64 68.3689 49.64 67.0408V63.0239C49.64 61.6958 48.5633 60.6191 47.2352 60.6191Z" fill="white"/>
<path d="M75.7284 29.8359H54.1358C52.8076 29.8359 51.731 30.9126 51.731 32.2407V67.0412C51.731 68.3693 52.8076 69.446 54.1358 69.446H75.7284C77.0566 69.446 78.1332 68.3693 78.1332 67.0412V32.2407C78.1332 30.9126 77.0566 29.8359 75.7284 29.8359Z" fill="white"/>
<path d="M35.4106 32.918L36.5736 32.9791C36.1872 32.9387 35.7991 32.9183 35.4106 32.918V32.918Z" fill="#0078D4"/>
<path d="M35.4104 47.8098C34.9181 47.8106 34.4305 47.7144 33.9754 47.5265C33.5203 47.3387 33.1067 47.0629 32.7583 46.7151C32.4099 46.3673 32.1335 45.9541 31.9449 45.4994C31.7563 45.0446 31.6593 44.5571 31.6593 44.0648C31.6593 43.5724 31.7563 43.085 31.9449 42.6302C32.1335 42.1754 32.4099 41.7623 32.7583 41.4144C33.1067 41.0666 33.5203 40.7909 33.9754 40.603C34.4305 40.4152 34.9181 40.3189 35.4104 40.3197V32.918C33.5773 32.918 31.7725 33.3701 30.1559 34.2342C28.5392 35.0983 27.1607 36.3478 26.1422 37.872C25.1238 39.3961 24.497 41.1479 24.3173 42.9722C24.1377 44.7965 24.4107 46.6369 25.1122 48.3305C25.8137 50.024 26.922 51.5185 28.339 52.6814C29.756 53.8443 31.438 54.6398 33.2358 54.9974C35.0337 55.355 36.892 55.2637 38.6462 54.7316C40.4004 54.1995 41.9962 53.243 43.2924 51.9468L38.0586 46.7129C37.7112 47.0612 37.2984 47.3374 36.844 47.5256C36.3895 47.7139 35.9023 47.8105 35.4104 47.8098V47.8098Z" fill="#0078D4"/>
<path d="M36.5736 32.9791L35.4106 32.918V40.3197C36.1514 40.3197 36.8755 40.5393 37.4913 40.9508C38.1072 41.3623 38.5873 41.9472 38.8707 42.6316C39.1542 43.3159 39.2283 44.0689 39.0838 44.7954C38.9393 45.5219 38.5826 46.1892 38.0588 46.7129L43.2927 51.9468C44.7815 50.458 45.8182 48.578 46.2827 46.5244C46.7473 44.4708 46.6207 42.3276 45.9177 40.343C45.2147 38.3583 43.9639 36.6134 42.3102 35.3102C40.6565 34.0069 38.6676 33.1987 36.5736 32.9791Z" fill="#9CEBFF"/>
<path d="M56.6772 64.8114V56.8613" stroke="#C3F1FF" stroke-width="2.91112" stroke-miterlimit="10" stroke-linecap="round"/>
<path d="M62.1802 64.8113V49.6406" stroke="#50E6FF" stroke-width="2.91112" stroke-miterlimit="10" stroke-linecap="round"/>
<path d="M67.6836 64.8101V37.0996" stroke="#0078D4" stroke-width="2.91112" stroke-miterlimit="10" stroke-linecap="round"/>
<path d="M73.1865 64.8105V43.1641" stroke="#1F56A3" stroke-width="2.91112" stroke-miterlimit="10" stroke-linecap="round"/>
<path d="M24.918 65.0312H45.9036" stroke="#0078D4" stroke-width="1.09167" stroke-miterlimit="10" stroke-linecap="round"/>
<path d="M32.3685 67.4127C33.683 67.4127 34.7486 66.347 34.7486 65.0325C34.7486 63.718 33.683 62.6523 32.3685 62.6523C31.0539 62.6523 29.9883 63.718 29.9883 65.0325C29.9883 66.347 31.0539 67.4127 32.3685 67.4127Z" fill="#1B93EB" stroke="#0078D4" stroke-width="1.09167" stroke-miterlimit="10" stroke-linecap="round"/>
<path opacity="0.2" fill-rule="evenodd" clip-rule="evenodd" d="M55.9849 29.832V29.8324C55.9849 32.2052 56.9275 34.4809 58.6054 36.1588C60.2832 37.8367 62.5589 38.7793 64.9318 38.7793C67.3047 38.7793 69.5803 37.8367 71.2582 36.1588C72.9361 34.4809 73.8787 32.2052 73.8787 29.8324V29.832L55.9849 29.832Z" fill="#767676"/>
<path fill-rule="evenodd" clip-rule="evenodd" d="M64.9625 37.4521C63.4554 37.4521 61.9823 37.0053 60.7292 36.168C59.4762 35.3308 58.4995 34.1408 57.9228 32.7484C57.3461 31.3561 57.1952 29.8241 57.4892 28.346C57.7832 26.8679 58.5089 25.5103 59.5745 24.4446C60.6401 23.379 61.9978 22.6533 63.4759 22.3593C64.954 22.0653 66.486 22.2162 67.8783 22.7929C69.2706 23.3696 70.4607 24.3463 71.2979 25.5993C72.1352 26.8524 72.582 28.3256 72.582 29.8326C72.582 31.8534 71.7792 33.7914 70.3503 35.2204C68.9213 36.6493 66.9833 37.4521 64.9625 37.4521V37.4521Z" fill="white"/>
<path d="M64.9321 26.873V32.7902" stroke="#0078D4" stroke-width="1.25" stroke-linecap="round" stroke-linejoin="round"/>
<path d="M61.9731 29.832H67.8903" stroke="#0078D4" stroke-width="1.25" stroke-linecap="round" stroke-linejoin="round"/>
</g>
<defs>
<linearGradient id="paint0_linear" x1="47.8697" y1="-15.153" x2="51.8525" y2="130.615" gradientUnits="userSpaceOnUse">
<stop stop-color="#00ABDE"/>
<stop offset="1" stop-color="#007ED8"/>
</linearGradient>
<clipPath id="clip0">
<rect width="99.2799" height="99.28" fill="white"/>
</clipPath>
</defs>
</svg>
