<svg width="206" height="174" viewBox="0 0 206 174" fill="none" xmlns="http://www.w3.org/2000/svg">
<path d="M22.4818 29.2457C22.4818 29.2457 167.482 6.27568 175.342 5.43568C183.202 4.58568 191.712 12.8057 197.382 21.3157C203.052 29.8157 201.922 38.6057 195.962 67.5157C190.002 96.4257 176.682 153.126 174.422 157.376C172.162 161.626 168.182 168.716 145.222 168.436C122.262 168.156 52.8118 169.006 47.9918 167.586C43.1718 166.166 34.1018 167.866 30.9818 152.566C27.8618 137.266 6.89185 56.7457 6.89185 52.4957C6.89185 48.2457 8.59185 30.3857 22.4818 29.2457Z" fill="url(#paint0_linear)"/>
<path d="M24.5318 28.5749C18.3918 29.5149 13.2018 32.9149 9.77184 37.6549C6.34184 42.3849 4.69184 48.4449 5.61184 54.7249C5.70184 55.3149 5.81184 55.9049 5.94184 56.4849L27.5018 151.995C28.6818 157.205 31.5418 161.665 35.4218 164.825C39.3018 167.975 44.1918 169.825 49.4318 169.825H156.922C162.332 169.825 167.362 167.855 171.292 164.525C175.222 161.195 178.042 156.505 179.042 151.065L200.802 32.4349C201.952 26.1849 200.512 20.0649 197.252 15.2149C194.002 10.3549 188.932 6.77488 182.832 5.59488C180.362 5.12488 177.832 5.07488 175.352 5.45488L24.5318 28.5749Z" stroke="white" stroke-width="5"/>
<path d="M175.912 7.74476C178.132 7.40476 180.382 7.44476 182.582 7.86476C193.352 9.92476 200.492 20.4348 198.662 31.4448L198.602 31.7948L176.782 150.775C175.022 160.355 166.922 167.325 157.432 167.495H157.072H49.2619C40.0419 167.495 32.0319 161.075 29.8019 151.965L29.7119 151.595L8.09192 55.8148C7.97192 55.2948 7.88192 54.7748 7.80192 54.2548C6.17192 43.1748 13.5519 32.8348 24.3219 30.9848L24.6619 30.9348L175.912 7.74476ZM181.602 12.1548C180.122 11.8648 178.602 11.8148 177.102 11.9948L176.602 12.0648L25.6419 35.3348C17.4419 36.6048 11.7919 44.4548 13.0219 52.8848C13.0619 53.1548 13.1019 53.4148 13.1619 53.6748L13.2419 54.0648L34.8219 150.195C36.3719 157.085 42.2619 162.005 49.1119 162.155H49.4519H157.052C164.162 162.155 170.292 157.025 171.742 149.895L171.802 149.555L193.582 30.1648C195.122 21.7848 189.752 13.7248 181.602 12.1548Z" fill="#0078D4"/>
<mask id="mask0" mask-type="alpha" maskUnits="userSpaceOnUse" x="43" y="56" width="122" height="84">
<path fill-rule="evenodd" clip-rule="evenodd" d="M43.512 56.4248H164.322V139.965H43.512V56.4248Z" fill="white"/>
</mask>
<g mask="url(#mask0)">
<path fill-rule="evenodd" clip-rule="evenodd" d="M157.542 60.4746C159.642 60.4746 161.342 62.1546 161.342 64.2246V132.175C161.342 134.245 159.642 135.925 157.542 135.925H50.302C48.202 135.925 46.502 134.245 46.502 132.175V64.2246C46.502 62.1446 48.202 60.4746 50.302 60.4746H157.542Z" fill="url(#paint1_linear)" stroke="#F1CF99"/>
<path fill-rule="evenodd" clip-rule="evenodd" d="M71.512 94.5156H107.512C109.722 94.5156 111.512 96.3456 111.512 98.6056V108.316C111.512 110.576 109.722 112.406 107.512 112.406H71.512C69.302 112.406 67.512 110.576 67.512 108.316V98.6056C67.512 96.3456 69.302 94.5156 71.512 94.5156Z" fill="#ECD264"/>
<path fill-rule="evenodd" clip-rule="evenodd" d="M76.012 89.915H78.012C79.672 89.915 81.012 91.285 81.012 92.985V94.515H73.012V92.985C73.012 91.285 74.362 89.915 76.012 89.915Z" fill="#F2C811"/>
<path fill-rule="evenodd" clip-rule="evenodd" d="M88.512 89.915H90.512C92.172 89.915 93.512 91.285 93.512 92.985V94.515H85.512V92.985C85.512 91.285 86.862 89.915 88.512 89.915Z" fill="#F2C811"/>
<path fill-rule="evenodd" clip-rule="evenodd" d="M101.012 89.915H103.012C104.672 89.915 106.012 91.285 106.012 92.985V94.515H98.012V92.985C98.012 91.285 99.362 89.915 101.012 89.915Z" fill="#F2C811"/>
<path fill-rule="evenodd" clip-rule="evenodd" d="M89.5118 109.565C89.5118 109.945 89.5118 110.675 87.9418 110.675H68.1318C68.1318 111.055 69.0018 112.385 70.4818 112.385H109.502C111.502 112.385 111.502 110.465 111.502 110.095V97.9248H91.1018C89.5318 97.9248 89.5118 99.2348 89.5118 99.6148V109.565Z" fill="#F2C811"/>
<path d="M106.012 94.0049H98.012V95.0249H106.012V94.0049Z" fill="#D59D45"/>
<path d="M93.512 94.0049H85.512V95.0249H93.512V94.0049Z" fill="#D59D45"/>
<path d="M81.012 94.0049H73.012V95.0249H81.012V94.0049Z" fill="#D59D45"/>
<path fill-rule="evenodd" clip-rule="evenodd" d="M99.9819 69.0848L137.402 75.8348C138.482 76.0348 139.212 77.0948 139.022 78.2048L137.022 89.7848C136.642 92.0048 134.562 93.4948 132.392 93.1048L94.9719 86.3548C93.8919 86.1548 93.1619 85.0948 93.3519 83.9848L95.3519 72.4048C95.7319 70.1748 97.8119 68.6948 99.9819 69.0848Z" fill="#15848F"/>
<path fill-rule="evenodd" clip-rule="evenodd" d="M105.202 65.3556L107.172 65.7156C108.802 66.0056 109.892 67.5956 109.602 69.2656L109.342 70.7756L101.462 69.3556L101.722 67.8456C102.012 66.1656 103.572 65.0556 105.202 65.3556Z" fill="#168E98"/>
<path fill-rule="evenodd" clip-rule="evenodd" d="M117.512 67.5743L119.482 67.9243C121.112 68.2143 122.202 69.8043 121.912 71.4743L121.652 72.9843L113.772 71.5643L114.032 70.0543C114.322 68.3843 115.882 67.2743 117.512 67.5743Z" fill="#168E98"/>
<path fill-rule="evenodd" clip-rule="evenodd" d="M129.822 69.7843L131.792 70.1443C133.422 70.4343 134.512 72.0243 134.222 73.6943L133.962 75.2043L126.082 73.7843L126.342 72.2743C126.632 70.6043 128.192 69.4943 129.822 69.7843Z" fill="#168E98"/>
<path fill-rule="evenodd" clip-rule="evenodd" d="M115.152 87.1051C115.082 87.4751 114.962 88.205 113.412 87.925L93.292 84.2951C93.232 84.6651 93.752 86.1151 95.202 86.3751L134.372 93.4351C136.342 93.7851 136.672 91.8951 136.732 91.5351L139.032 78.1951L118.942 74.5751C117.392 74.2951 117.172 75.4051 117.112 75.7751L115.152 87.1051Z" fill="#127D87"/>
<path d="M133.872 75.7054L134.042 74.6954L126.162 73.2754L125.992 74.2854L133.872 75.7054Z" fill="#168F99"/>
<path d="M121.562 73.4847L121.732 72.4747L113.852 71.0547L113.682 72.0647L121.562 73.4847Z" fill="#168F99"/>
<path d="M109.252 71.265L109.422 70.255L101.542 68.835L101.372 69.845L109.252 71.265Z" fill="#168F99"/>
<path fill-rule="evenodd" clip-rule="evenodd" d="M93.512 112.395H129.512C131.722 112.395 133.512 114.225 133.512 116.485V126.195C133.512 128.455 131.722 130.285 129.512 130.285H93.512C91.302 130.285 89.512 128.455 89.512 126.195V116.485C89.512 114.225 91.302 112.395 93.512 112.395Z" fill="#8A348C"/>
<path fill-rule="evenodd" clip-rule="evenodd" d="M71.512 112.395H85.512C87.722 112.395 89.512 114.225 89.512 116.485V126.195C89.512 128.455 87.722 130.285 85.512 130.285H71.512C69.302 130.285 67.512 128.455 67.512 126.195V116.485C67.512 114.225 69.302 112.395 71.512 112.395Z" fill="#3077F6"/>
<path fill-rule="evenodd" clip-rule="evenodd" d="M120.012 107.795H122.012C123.672 107.795 125.012 109.165 125.012 110.865V112.395H117.012V110.865C117.012 109.175 118.362 107.795 120.012 107.795Z" fill="#742774"/>
<path fill-rule="evenodd" clip-rule="evenodd" d="M111.512 127.465C111.512 127.845 111.512 128.575 109.942 128.575H90.1819C90.1819 128.955 91.5319 130.275 93.0119 130.275H130.592C133.072 130.275 133.512 127.165 133.512 126.785V115.715H113.062C111.492 115.715 111.502 117.175 111.502 117.555L111.512 127.465Z" fill="#742774"/>
<path fill-rule="evenodd" clip-rule="evenodd" d="M78.5118 127.455C78.5118 127.835 78.5118 128.565 77.7218 128.565H68.1218C68.1218 128.945 70.0618 130.275 70.8018 130.275L85.7718 130.285C87.7718 130.285 89.5018 128.575 89.5018 126.645V115.955H79.1418C78.3518 115.955 78.5118 117.265 78.5118 117.645V127.455V127.455Z" fill="#0066FF"/>
<path d="M124.512 112.395H117.512V113.415H124.512V112.395Z" fill="#D8D8D8" stroke="#571C57"/>
<path opacity="0.15" d="M93.4719 97.6846H89.8919C89.4119 97.6846 89.0219 98.0746 89.0219 98.5546V101.305H86.7819C86.3619 101.305 86.0219 101.645 86.0219 102.065V104.785H84.1519C83.6119 104.785 83.1619 105.225 83.1619 105.775V110.895C83.1619 111.435 83.6019 111.885 84.1519 111.885H86.0219H89.0119H90.5819H93.4619C93.9419 111.885 94.3319 111.495 94.3319 111.015V98.5546C94.3419 98.0746 93.9519 97.6846 93.4719 97.6846Z" fill="#1F1D20"/>
<path d="M93.472 110.815H89.022V97.495C89.022 97.015 89.412 96.625 89.892 96.625H93.472C93.952 96.625 94.342 97.015 94.342 97.495V109.945C94.342 110.425 93.952 110.815 93.472 110.815Z" fill="url(#paint2_linear)"/>
<path d="M90.592 110.815H86.032V101.005C86.032 100.585 86.372 100.245 86.792 100.245H90.592C91.012 100.245 91.352 100.585 91.352 101.005V110.055C91.352 110.475 91.012 110.815 90.592 110.815Z" fill="url(#paint3_linear)"/>
<path d="M87.5119 110.815H84.1619C83.6219 110.815 83.1719 110.375 83.1719 109.825V104.705C83.1719 104.165 83.6119 103.715 84.1619 103.715H87.5119C88.0519 103.715 88.5019 104.155 88.5019 104.705V109.825C88.4919 110.375 88.0519 110.815 87.5119 110.815Z" fill="url(#paint4_linear)"/>
<path opacity="0.15" d="M117.822 121.594L117.592 121.344C117.582 121.324 117.572 121.304 117.552 121.284L115.482 119.014L115.272 118.784C115.272 118.784 115.272 118.784 115.262 118.784L111.952 115.164C111.712 114.904 111.302 114.904 111.052 115.154L110.362 115.864L109.582 115.064C109.402 114.874 109.092 114.884 108.922 115.084L103.242 121.574C102.992 121.864 102.992 122.294 103.242 122.584L108.872 129.054C109.082 129.294 109.462 129.294 109.672 129.054L110.312 128.314L111.042 129.074C111.292 129.334 111.702 129.324 111.942 129.064L115.252 125.424C115.272 125.404 115.292 125.404 115.312 125.384L117.812 122.614C118.072 122.314 118.072 121.874 117.822 121.594Z" fill="#1F1D20"/>
<path d="M110.932 115.444L109.582 114.054C109.402 113.864 109.092 113.874 108.922 114.074L103.242 120.564C102.992 120.854 102.992 121.284 103.242 121.574L108.872 128.044C109.082 128.284 109.462 128.284 109.672 128.044L111.352 126.104L111.542 116.114L110.932 115.444Z" fill="url(#paint5_linear)"/>
<path d="M117.552 120.274L111.952 114.154C111.712 113.894 111.302 113.894 111.052 114.144L108.462 116.814C108.182 117.104 108.172 117.564 108.452 117.864L111.102 120.714C111.302 120.924 111.302 121.244 111.102 121.454L108.442 124.334C108.172 124.624 108.172 125.084 108.452 125.374L111.042 128.064C111.292 128.324 111.702 128.314 111.942 128.054L117.542 121.884C117.972 121.434 117.962 120.734 117.552 120.274Z" fill="url(#paint6_linear)"/>
<path d="M117.822 121.594L115.322 124.364C115.132 124.574 114.802 124.584 114.612 124.374L112.102 121.804C111.692 121.384 111.692 120.724 112.102 120.304L114.572 117.754C114.772 117.554 115.102 117.554 115.282 117.764L117.832 120.574C118.072 120.874 118.072 121.314 117.822 121.594Z" fill="url(#paint7_linear)"/>
<path opacity="0.15" d="M125.492 78.735L125.802 76.985C125.862 76.655 125.642 76.345 125.312 76.285L115.452 74.545C115.122 74.485 114.812 74.705 114.752 75.035L114.442 76.785L114.202 78.135L111.192 77.605C110.872 77.545 110.572 77.765 110.512 78.085L109.422 84.255C109.362 84.575 109.582 84.875 109.902 84.935L112.342 85.365C112.682 85.425 112.902 85.745 112.842 86.075L112.472 88.155C112.412 88.485 112.782 88.725 113.062 88.535L116.562 86.105L119.712 86.665C120.032 86.725 120.332 86.505 120.392 86.185L120.862 83.555C120.962 83.285 121.222 83.115 121.522 83.165L124.042 83.615C124.362 83.675 124.662 83.455 124.722 83.135L125.052 81.285L125.492 78.735Z" fill="#1F1D20"/>
<path d="M111.372 76.6144C111.052 76.5544 110.752 76.7744 110.692 77.0944L109.602 83.2644C109.542 83.5844 109.762 83.8844 110.082 83.9444L112.522 84.3744C112.862 84.4344 113.082 84.7544 113.022 85.0844L112.652 87.1644C112.592 87.4944 112.962 87.7344 113.242 87.5444L116.742 85.1144L119.892 85.6744C120.212 85.7344 120.512 85.5144 120.572 85.1944L121.772 78.4444L111.372 76.6144Z" fill="url(#paint8_linear)"/>
<path d="M125.482 75.2948L115.622 73.5548C115.292 73.4948 114.982 73.7148 114.922 74.0448L113.822 80.2848C113.772 80.5548 113.952 80.8148 114.222 80.8648L117.202 81.3948C117.332 81.4148 117.442 81.4848 117.512 81.5948L119.842 84.9248C120.062 85.2448 120.562 85.1348 120.632 84.7548L121.002 82.6748C121.062 82.3548 121.372 82.1348 121.692 82.1948L124.212 82.6448C124.532 82.7048 124.832 82.4848 124.892 82.1648L125.982 76.0148C126.032 75.6648 125.822 75.3448 125.482 75.2948Z" fill="#4CCBED"/>
<path d="M125.312 79.7647L114.262 77.8047L113.822 80.2747C113.772 80.5447 113.952 80.8047 114.222 80.8547L117.202 81.3847C117.332 81.4047 117.442 81.4747 117.512 81.5847L119.842 84.9147C120.062 85.2347 120.562 85.1247 120.632 84.7447L121.002 82.6647C121.062 82.3447 121.372 82.1247 121.692 82.1847L124.212 82.6347C124.532 82.6947 124.832 82.4747 124.892 82.1547L125.312 79.7647Z" fill="#128AA9"/>
<path d="M125.672 77.7452L114.622 75.7852L114.162 78.3352L125.212 80.2952L125.672 77.7452Z" fill="#17AAD2"/>
<path opacity="0.15" d="M86.622 121.585L84.352 119.025L84.342 119.035L81.742 116.105V116.045H72.502C71.952 116.045 71.662 116.695 72.032 117.105L76.412 121.985L72.002 126.915C71.672 127.285 71.932 127.865 72.432 127.865H76.492H81.512C81.622 127.865 81.722 127.825 81.792 127.735L86.622 122.475C86.842 122.215 86.852 121.835 86.622 121.585Z" fill="#1F1D20"/>
<path d="M81.7419 118.875L77.0019 121.645L72.0219 116.095C71.6519 115.685 71.9419 115.035 72.4919 115.035H81.7319L81.7419 118.875Z" fill="url(#paint9_linear)"/>
<path d="M84.372 118.065L81.702 115.065L71.992 125.905C71.662 126.275 71.922 126.855 72.422 126.855H76.482L84.372 118.065Z" fill="url(#paint10_linear)"/>
<path d="M86.622 120.585L84.352 118.025L76.342 126.855H81.502C81.612 126.855 81.712 126.815 81.782 126.735L86.612 121.475C86.842 121.215 86.852 120.835 86.622 120.585Z" fill="url(#paint11_linear)"/>
</g>
<defs>
<linearGradient id="paint0_linear" x1="6.89465" y1="86.9068" x2="201.085" y2="86.9068" gradientUnits="userSpaceOnUse">
<stop stop-color="#4694CF"/>
<stop offset="1" stop-color="#66AEE5"/>
</linearGradient>
<linearGradient id="paint1_linear" x1="103.918" y1="60.981" x2="103.918" y2="135.916" gradientUnits="userSpaceOnUse">
<stop stop-color="#6A6A6A"/>
<stop offset="1" stop-color="#343333"/>
</linearGradient>
<linearGradient id="paint2_linear" x1="91.6243" y1="97.9267" x2="91.7374" y2="109.693" gradientUnits="userSpaceOnUse">
<stop offset="0.00753769" stop-color="#E0A310"/>
<stop offset="1" stop-color="#CA810E"/>
</linearGradient>
<linearGradient id="paint3_linear" x1="88.5466" y1="100.661" x2="88.886" y2="113.108" gradientUnits="userSpaceOnUse">
<stop offset="0.00753769" stop-color="#F2CC40"/>
<stop offset="1" stop-color="#E7B116"/>
</linearGradient>
<linearGradient id="paint4_linear" x1="85.7089" y1="104.269" x2="86.0483" y2="112.303" gradientUnits="userSpaceOnUse">
<stop stop-color="#F8E17B"/>
<stop offset="0.5302" stop-color="#F6D856"/>
<stop offset="1" stop-color="#F6D856"/>
</linearGradient>
<linearGradient id="paint5_linear" x1="106.945" y1="114.45" x2="107.987" y2="126.699" gradientUnits="userSpaceOnUse">
<stop stop-color="#A23093"/>
<stop offset="1" stop-color="#692266"/>
</linearGradient>
<linearGradient id="paint6_linear" x1="108.242" y1="121.105" x2="117.863" y2="121.105" gradientUnits="userSpaceOnUse">
<stop stop-color="#E184C4"/>
<stop offset="1" stop-color="#D76EBC"/>
</linearGradient>
<linearGradient id="paint7_linear" x1="111.784" y1="121.073" x2="118.01" y2="121.073" gradientUnits="userSpaceOnUse">
<stop stop-color="#E89BCA"/>
<stop offset="1" stop-color="#E591C8"/>
</linearGradient>
<linearGradient id="paint8_linear" x1="114.865" y1="77.832" x2="117.032" y2="84.4674" gradientUnits="userSpaceOnUse">
<stop stop-color="#107590"/>
<stop offset="0.2789" stop-color="#107590"/>
<stop offset="0.9874" stop-color="#0D5D73"/>
</linearGradient>
<linearGradient id="paint9_linear" x1="72.4873" y1="111.857" x2="83.2598" y2="121.992" gradientUnits="userSpaceOnUse">
<stop offset="0.4598" stop-color="#1152D4"/>
<stop offset="0.6156" stop-color="#0D3FB3"/>
</linearGradient>
<linearGradient id="paint10_linear" x1="71.8505" y1="120.954" x2="84.3736" y2="120.954" gradientUnits="userSpaceOnUse">
<stop stop-color="#388CF4"/>
<stop offset="1" stop-color="#2C7CEF"/>
</linearGradient>
<linearGradient id="paint11_linear" x1="76.3411" y1="122.436" x2="86.79" y2="122.436" gradientUnits="userSpaceOnUse">
<stop stop-color="#76C0FD"/>
<stop offset="1" stop-color="#63B2FB"/>
</linearGradient>
</defs>
</svg>
