<svg width="100" height="100" viewBox="0 0 100 100" fill="none" xmlns="http://www.w3.org/2000/svg">
<g clip-path="url(#clip0)">
<path d="M49.6401 96.4501C40.382 96.4501 31.3317 93.7047 23.6339 88.5612C15.936 83.4176 9.93624 76.1069 6.3933 67.5535C2.85036 59.0001 1.92337 49.5882 3.72954 40.5079C5.53571 31.4277 9.99394 23.0869 16.5404 16.5404C23.0869 9.99393 31.4277 5.53571 40.5079 3.72954C49.5882 1.92337 59.0001 2.85036 67.5535 6.3933C76.1069 9.93624 83.4176 15.936 88.5612 23.6339C93.7047 31.3317 96.4501 40.382 96.4501 49.6401C96.4505 55.7874 95.24 61.8746 92.8878 67.554C90.5355 73.2335 87.0875 78.3939 82.7407 82.7407C78.3939 87.0875 73.2335 90.5355 67.554 92.8878C61.8746 95.24 55.7874 96.4505 49.6401 96.4501V96.4501Z" fill="url(#paint0_linear)"/>
<path fill-rule="evenodd" clip-rule="evenodd" d="M95.54 49.64C95.54 58.7182 92.848 67.5925 87.8045 75.1407C82.7609 82.6889 75.5923 88.572 67.2052 92.0461C58.818 95.5201 49.5891 96.4291 40.6854 94.658C31.7816 92.887 23.603 88.5154 17.1838 82.0962C10.7646 75.677 6.39302 67.4984 4.62196 58.5946C2.85089 49.6909 3.75987 40.462 7.23393 32.0748C10.708 23.6877 16.5911 16.5191 24.1393 11.4755C31.6875 6.43199 40.5618 3.74 49.64 3.74C55.6677 3.73998 61.6363 4.9272 67.2052 7.23388C72.774 9.54057 77.834 12.9215 82.0963 17.1837C86.3585 21.446 89.7394 26.5059 92.0461 32.0748C94.3528 37.6437 95.54 43.6123 95.54 49.64V49.64ZM49.64 3.62732e-07C59.4579 3.62732e-07 69.0553 2.91134 77.2185 8.36585C85.3818 13.8204 91.7442 21.5731 95.5014 30.6436C99.2585 39.7141 100.242 49.6951 98.3262 59.3243C96.4108 68.9535 91.6831 77.7985 84.7408 84.7408C77.7985 91.6831 68.9535 96.4108 59.3243 98.3262C49.6951 100.242 39.7141 99.2585 30.6436 95.5014C21.5731 91.7442 13.8204 85.3818 8.36585 77.2185C2.91134 69.0553 3.62732e-07 59.4579 3.62732e-07 49.64C-0.000787738 43.121 1.28265 36.6656 3.77702 30.6427C6.27138 24.6197 9.9278 19.1471 14.5375 14.5375C19.1471 9.9278 24.6197 6.27138 30.6427 3.77702C36.6656 1.28265 43.121 -0.000787738 49.64 3.62732e-07V3.62732e-07Z" fill="#F2F1F0"/>
<path fill-rule="evenodd" clip-rule="evenodd" d="M92.7296 49.6406C92.7296 58.163 90.2024 66.494 85.4676 73.5801C80.7328 80.6662 74.0031 86.1892 66.1294 89.4505C58.2557 92.7119 49.5918 93.5653 41.2331 91.9026C32.8745 90.24 25.1966 86.1361 19.1703 80.1098C13.1441 74.0836 9.04017 66.4057 7.37753 58.047C5.7149 49.6884 6.56822 41.0244 9.8296 33.1507C13.091 25.2771 18.6139 18.5473 25.7 13.8126C32.7862 9.07776 41.1172 6.55058 49.6396 6.55058C55.2983 6.55023 60.9017 7.66455 66.1298 9.82991C71.3579 11.9953 76.1082 15.1692 80.1096 19.1706C84.1109 23.1719 87.2849 27.9223 89.4502 33.1503C91.6156 38.3784 92.7299 43.9818 92.7296 49.6406V49.6406ZM49.6396 2.81058C58.9017 2.81058 67.9558 5.55711 75.6569 10.7029C83.3581 15.8486 89.3604 23.1624 92.9049 31.7195C96.4493 40.2766 97.3767 49.6925 95.5697 58.7767C93.7628 67.8608 89.3027 76.2051 82.7534 82.7544C76.2041 89.3037 67.8598 93.7638 58.7757 95.5708C49.6915 97.3777 40.2756 96.4503 31.7185 92.9059C23.1614 89.3614 15.8476 83.3591 10.7018 75.6579C5.5561 67.9568 2.80957 58.9027 2.80957 49.6406C2.81076 37.2209 7.745 25.3101 16.5271 16.5281C25.3091 7.74599 37.2198 2.81174 49.6396 2.81055V2.81058Z" fill="#0078D4"/>
<path d="M53.763 31.4189H63.6733C63.6733 27.7922 62.2326 24.3141 59.6682 21.7496C57.1038 19.1851 53.6257 17.7443 49.999 17.7441V27.6551C50.9969 27.6563 51.9536 28.0532 52.6592 28.7588C53.3648 29.4644 53.7617 30.421 53.763 31.4189V31.4189Z" fill="#0078D4"/>
<path d="M53.763 31.418V31.4182C53.7633 31.9124 53.6659 32.4018 53.4765 32.8583C53.2871 33.3147 53.0093 33.7293 52.6592 34.0781L59.6684 41.0873C60.94 39.8189 61.9485 38.3117 62.6358 36.6523C63.3231 34.9929 63.6757 33.2141 63.6734 31.418H53.763Z" fill="#C3F1FF"/>
<path d="M52.6589 34.0798C52.3102 34.432 51.8954 34.7119 51.4382 34.9032C50.981 35.0946 50.4905 35.1938 49.9949 35.195C49.4993 35.1963 49.0083 35.0996 48.5502 34.9105C48.0921 34.7214 47.6758 34.4437 47.3254 34.0932C46.9749 33.7428 46.6972 33.3265 46.5081 32.8684C46.319 32.4103 46.2223 31.9193 46.2235 31.4237C46.2247 30.9281 46.3239 30.4376 46.5152 29.9804C46.7066 29.5232 46.9864 29.1084 47.3386 28.7597L40.329 21.75C39.0567 23.0193 38.047 24.5269 37.3577 26.1867C36.6684 27.8464 36.3131 29.6258 36.312 31.423C36.3109 33.2202 36.6641 35 37.3514 36.6606C38.0386 38.3212 39.0465 39.83 40.3173 41.1008C41.5881 42.3716 43.0969 43.3795 44.7576 44.0667C46.4182 44.754 48.1979 45.1072 49.9951 45.1061C51.7923 45.105 53.5717 44.7496 55.2315 44.0603C56.8912 43.3711 58.3988 42.3614 59.6681 41.089L52.6589 34.0798Z" fill="white"/>
<path d="M49.9988 27.6552V17.7442H49.9982C48.2022 17.7418 46.4234 18.0944 44.764 18.7817C43.1046 19.469 41.5975 20.4775 40.3291 21.7492L47.3387 28.7588C47.6876 28.4087 48.1021 28.131 48.5586 27.9416C49.0151 27.7522 49.5046 27.6549 49.9988 27.6552V27.6552Z" fill="#50E6FF"/>
<path d="M65.7758 31.418H34.2201C32.8945 31.418 31.8198 32.4926 31.8198 33.8182V75.6492C31.8198 76.9748 32.8945 78.0494 34.2201 78.0494H65.7758C67.1014 78.0494 68.1761 76.9748 68.1761 75.6492V33.8182C68.1761 32.4926 67.1014 31.418 65.7758 31.418Z" fill="#1F56A3"/>
<path d="M66.9761 75.6502V33.8193C66.9761 33.1565 66.4388 32.6191 65.7759 32.6191H34.2195C33.5566 32.6191 33.0193 33.1565 33.0193 33.8193V75.6502C33.0193 76.313 33.5566 76.8504 34.2195 76.8504H65.7759C66.4388 76.8504 66.9761 76.313 66.9761 75.6502Z" fill="#0078D4"/>
<path d="M62.776 36.2188H37.2202C36.8888 36.2188 36.6201 36.4874 36.6201 36.8188V43.3059C36.6201 43.6373 36.8888 43.906 37.2202 43.906H62.776C63.1074 43.906 63.376 43.6373 63.376 43.3059V36.8188C63.376 36.4874 63.1074 36.2188 62.776 36.2188Z" fill="#1F56A3"/>
<path d="M43.1601 65.3301H37.7792C37.1164 65.3301 36.5791 65.8674 36.5791 66.5302V71.9111C36.5791 72.5739 37.1164 73.1112 37.7792 73.1112H43.1601C43.8229 73.1112 44.3602 72.5739 44.3602 71.9111V66.5302C44.3602 65.8674 43.8229 65.3301 43.1601 65.3301Z" fill="#50E6FF"/>
<path d="M52.6889 65.3301H47.308C46.6452 65.3301 46.1079 65.8674 46.1079 66.5302V71.9111C46.1079 72.5739 46.6452 73.1112 47.308 73.1112H52.6889C53.3517 73.1112 53.889 72.5739 53.889 71.9111V66.5302C53.889 65.8674 53.3517 65.3301 52.6889 65.3301Z" fill="#50E6FF"/>
<path d="M43.1601 55.8809H37.7792C37.1164 55.8809 36.5791 56.4182 36.5791 57.081V62.4618C36.5791 63.1247 37.1164 63.662 37.7792 63.662H43.1601C43.8229 63.662 44.3602 63.1247 44.3602 62.4618V57.081C44.3602 56.4182 43.8229 55.8809 43.1601 55.8809Z" fill="#50E6FF"/>
<path d="M52.6889 55.8809H47.308C46.6452 55.8809 46.1079 56.4182 46.1079 57.081V62.4618C46.1079 63.1247 46.6452 63.662 47.308 63.662H52.6889C53.3517 63.662 53.889 63.1247 53.889 62.4618V57.081C53.889 56.4182 53.3517 55.8809 52.6889 55.8809Z" fill="#50E6FF"/>
<path d="M62.1757 55.8809H56.7949C56.132 55.8809 55.5947 56.4182 55.5947 57.081V71.9104C55.5947 72.5732 56.132 73.1105 56.7949 73.1105H62.1757C62.8385 73.1105 63.3759 72.5732 63.3759 71.9104V57.081C63.3759 56.4182 62.8385 55.8809 62.1757 55.8809Z" fill="#50E6FF"/>
<path d="M43.1601 46.4336H37.7792C37.1164 46.4336 36.5791 46.9709 36.5791 47.6337V53.0146C36.5791 53.6774 37.1164 54.2147 37.7792 54.2147H43.1601C43.8229 54.2147 44.3602 53.6774 44.3602 53.0146V47.6337C44.3602 46.9709 43.8229 46.4336 43.1601 46.4336Z" fill="#50E6FF"/>
<path d="M52.6889 46.4336H47.308C46.6452 46.4336 46.1079 46.9709 46.1079 47.6337V53.0146C46.1079 53.6774 46.6452 54.2147 47.308 54.2147H52.6889C53.3517 54.2147 53.889 53.6774 53.889 53.0146V47.6337C53.889 46.9709 53.3517 46.4336 52.6889 46.4336Z" fill="#50E6FF"/>
<path d="M62.1757 46.4336H56.7949C56.132 46.4336 55.5947 46.9709 55.5947 47.6337V53.0146C55.5947 53.6774 56.132 54.2147 56.7949 54.2147H62.1757C62.8385 54.2147 63.3759 53.6774 63.3759 53.0146V47.6337C63.3759 46.9709 62.8385 46.4336 62.1757 46.4336Z" fill="#50E6FF"/>
<path d="M53.6099 42.1847V41.2441" stroke="white" stroke-width="1.20014" stroke-miterlimit="10" stroke-linecap="round"/>
<path d="M55.772 42.1843V39.6367" stroke="#C3F1FF" stroke-width="1.20014" stroke-miterlimit="10" stroke-linecap="round"/>
<path d="M57.9346 42.183V37.9766" stroke="#50E6FF" stroke-width="1.20014" stroke-miterlimit="10" stroke-linecap="round"/>
<path d="M60.0972 42.183V40.2871" stroke="#0078D4" stroke-width="1.20014" stroke-miterlimit="10" stroke-linecap="round"/>
<path opacity="0.2" d="M31.8198 78.0503H51.2709C51.3766 77.7398 51.4326 77.4145 51.437 77.0864V67.4939C51.436 66.6547 51.1023 65.8501 50.5089 65.2566C49.9155 64.6631 49.111 64.3292 48.2717 64.3281H31.8198V78.0503Z" fill="#003067"/>
<path d="M48.2714 66.5293H24.9682C24.4359 66.5293 24.0044 66.9608 24.0044 67.4931V77.0857C24.0044 77.618 24.4359 78.0495 24.9682 78.0495H48.2714C48.8037 78.0495 49.2352 77.618 49.2352 77.0857V67.4931C49.2352 66.9608 48.8037 66.5293 48.2714 66.5293Z" fill="white"/>
<path d="M29.7493 75.4058C31.4848 75.4058 32.8916 73.9989 32.8916 72.2634C32.8916 70.528 31.4848 69.1211 29.7493 69.1211C28.0138 69.1211 26.6069 70.528 26.6069 72.2634C26.6069 73.9989 28.0138 75.4058 29.7493 75.4058Z" fill="#0078D4"/>
<path d="M29.7495 70.75V73.7756" stroke="white" stroke-width="0.96378" stroke-miterlimit="10" stroke-linecap="round"/>
<path d="M28.2363 72.2637H31.2619" stroke="white" stroke-width="0.96378" stroke-miterlimit="10" stroke-linecap="round"/>
<path d="M35.6401 70.2695H40.387" stroke="#FFE452" stroke-width="0.96378" stroke-miterlimit="10" stroke-linecap="round"/>
<path d="M35.6401 72.2637H45.586" stroke="#FFCA00" stroke-width="0.96378" stroke-miterlimit="10" stroke-linecap="round"/>
<path d="M35.6401 74.2578H42.591" stroke="#FF9300" stroke-width="0.96378" stroke-miterlimit="10" stroke-linecap="round"/>
</g>
<defs>
<linearGradient id="paint0_linear" x1="47.8697" y1="-15.153" x2="51.8525" y2="130.615" gradientUnits="userSpaceOnUse">
<stop stop-color="#00ABDE"/>
<stop offset="1" stop-color="#007ED8"/>
</linearGradient>
<clipPath id="clip0">
<rect width="99.2799" height="99.28" fill="white"/>
</clipPath>
</defs>
</svg>
