<svg width="181" height="191" fill="none" xmlns="http://www.w3.org/2000/svg"><path d="M90.863 189.202c3.06 0 6.07-.85 8.73-2.47l61.97-37.66c5.54-3.37 8.97-9.7 8.97-16.54v-74.71c0-6.82-3.43-13.16-8.97-16.54l-61.97-37.66c-5.33-3.24-12.15-3.22-17.45 0l-61.97 37.68c-5.54 3.37-8.99 9.7-8.99 16.54v74.7c0 5.76 2.45 11.18 6.55 14.75v.03l64.41 39.43c2.64 1.6 5.66 2.45 8.72 2.45Zm.65-181.05c1.95 0 4.43 1.21 6.14 2.26l60.76 37.19c3.75 2.28 5.87 8.88 5.87 13.63l-.63 71.3c0 4.75-3.2 9.02-6.95 11.3l-60.4 36.38c-3.43 2.09-6.22 2.09-9.66 0l-61.21-36.47c-3.75-2.28-6.77-6.48-6.77-11.21v-73.64c0-4.74 2.73-9.63 6.5-11.92l60.58-36.56c1.7-1.04 3.82-2.26 5.77-2.26Z" fill="#F2F1F0"/><path fill-rule="evenodd" clip-rule="evenodd" d="M98.763 11.732c-2.45-1.5-5.17-2.25-7.9-2.25-2.73 0-5.45.76-7.9 2.25l-56.13 34.33c-5.02 3.07-8.13 8.82-8.13 15.07v68.1c0 6.23 3.1 12 8.13 15.07l56.13 34.33c2.45 1.5 5.17 2.25 7.9 2.25 2.73 0 5.45-.74 7.9-2.25l56.13-34.33c5.02-3.07 8.13-8.84 8.13-15.07v-68.1c0-6.23-3.1-11.98-8.13-15.07l-56.13-34.33Z" fill="url(#a)"/><path fill-rule="evenodd" clip-rule="evenodd" d="M90.863 10.952c1.68 0 3.57.87 5.63 2.12l58.47 35.54c3.65 2.22 6.06 6.49 6.06 11.32v70.48c0 4.82-2.41 9.1-6.06 11.32l-58.46 35.54c-1.96 1.19-3.88 1.94-5.63 1.94s-3.67-.75-5.63-1.94l-58.48-35.53c-2.01-1.23-3.46-2.43-4.44-4.04-.98-1.6-1.62-3.82-1.62-7.28v-70.48c0-4.83 2.41-9.1 6.06-11.32l58.46-35.54c2.09-1.25 3.95-2.13 5.64-2.13Zm7.71 169.75 58.46-35.54c4.92-2.99 7.98-8.61 7.98-14.74v-70.48c0-6.13-3.06-11.75-7.98-14.74l-58.46-35.54c-2.11-1.28-4.82-2.71-7.71-2.71-2.9 0-5.61 1.44-7.7 2.7h-.01l-58.47 35.55c-4.92 2.99-7.98 8.61-7.98 14.74v70.48c0 3.96.74 6.95 2.2 9.36 1.46 2.4 3.52 4 5.78 5.37l58.46 35.54c2.22 1.35 4.89 2.53 7.71 2.53 2.82 0 5.5-1.17 7.72-2.52Z" fill="url(#b)"/><path opacity=".15" d="m129.871 46.58-76.314-.624a2.964 2.964 0 0 0-3.001 2.968l-.82 99.587a2.965 2.965 0 0 0 2.968 3.002l76.314.623a2.965 2.965 0 0 0 3.001-2.969l.82-99.603c-.016-1.623-1.345-2.968-2.968-2.985Z" fill="#1F1D20"/><path d="m129.887 43.43-76.314-.623a2.95 2.95 0 0 0-3.001 2.952l-.837 99.587a2.964 2.964 0 0 0 2.97 3.001l76.313.624a2.965 2.965 0 0 0 3.001-2.969l.82-99.603a2.985 2.985 0 0 0-2.952-2.969Z" fill="#F2F2F2"/><path fill-rule="evenodd" clip-rule="evenodd" d="M95.724 31.851c2.165 1.165 3.411 3.477 3.395 5.92v.591c0 .23-.016.41-.033.64l4.691.033c1.394.016 2.706.722 3.395 1.935 1.951 3.46-.525 6.987-3.789 6.954l-23.666-.18c-1.395-.017-2.707-.722-3.395-1.936-1.952-3.46.524-6.986 3.788-6.954l4.363.033c-.017-.213-.017-.41-.017-.64v-.163c.066-5.298 5.691-9.218 11.268-6.233Z" fill="#243A5E"/><path d="M91.738 41.56a3.024 3.024 0 0 0 3.051-3 3.024 3.024 0 0 0-3.001-3.051 3.024 3.024 0 0 0-3.05 3c.016 1.674 1.328 3.035 3 3.051Z" fill="#F2F2F2"/><path d="M84.074 120.777c0-.763-.617-1.38-1.38-1.38H61.413a1.379 1.379 0 1 0 0 2.76H82.71c.763 0 1.364-.617 1.364-1.38Z" fill="#50E6FF"/><path d="M65.163 120.777a2.733 2.733 0 0 0 2.727 2.727 2.733 2.733 0 0 0 2.727-2.727 2.733 2.733 0 0 0-2.727-2.727 2.733 2.733 0 0 0-2.727 2.727Z" fill="#0D3868"/><path d="M84.074 127.741c0-.763-.617-1.38-1.38-1.38H61.413a1.379 1.379 0 1 0 0 2.76H82.71a1.387 1.387 0 0 0 1.364-1.38Z" fill="#32B0E7"/><path d="M73.409 127.725a2.733 2.733 0 0 0 2.727 2.727 2.733 2.733 0 0 0 2.727-2.727 2.734 2.734 0 0 0-2.727-2.728 2.723 2.723 0 0 0-2.727 2.728Z" fill="#0D3868"/><path d="M84.074 135.094c0-.763-.617-1.38-1.38-1.38H61.413a1.379 1.379 0 1 0 0 2.76H82.71c.763 0 1.364-.617 1.364-1.38Z" fill="#185A97"/><path d="M65.26 135.094a2.733 2.733 0 0 0 2.727 2.727 2.733 2.733 0 0 0 2.728-2.727 2.733 2.733 0 0 0-2.728-2.727c-1.493-.016-2.727 1.218-2.727 2.727Z" fill="#0D3868"/><path d="M96.43 127.305s25.634-21.223 28.75-18.55c3.494 2.985-17.86 30.014-17.86 30.014l-13.564 3.51a.888.888 0 0 1-1.082-1.099l3.755-13.875Z" fill="#FB0"/><path d="m115.865 108.673 13.333-13.514c2.903-2.887 7.578-3.05 10.661-.377 3.494 2.985 3.69 8.348.41 11.579l-2.69 2.673-21.714-.361Z" fill="#092E4C"/><path d="m96.462 127.272 30.03-29.342 11.612 10.727-30.784 30.128-10.858-11.513Z" fill="url(#c)"/><path d="m96.495 141.574-2.739.705a.888.888 0 0 1-1.082-1.099l.77-2.837 3.05 3.231Z" fill="#092E4C"/><path d="M103.18 106.496H88.745V63.312a2.818 2.818 0 0 1 2.816-2.816h11.619a2.818 2.818 0 0 1 2.816 2.816v40.368a2.818 2.818 0 0 1-2.816 2.816Z" fill="url(#d)"/><path d="M93.833 106.496H79.035V74.692c0-1.353 1.1-2.453 2.453-2.453h12.338c1.353 0 2.454 1.1 2.454 2.453v29.344a2.448 2.448 0 0 1-2.447 2.46Z" fill="url(#e)"/><path d="M83.825 106.496H72.97a3.197 3.197 0 0 1-3.197-3.198V86.707a3.196 3.196 0 0 1 3.197-3.198h10.863a3.196 3.196 0 0 1 3.198 3.198v16.591a3.206 3.206 0 0 1-3.205 3.198Z" fill="url(#f)"/><defs><linearGradient id="a" x1="90.862" y1="9.482" x2="90.862" y2="180.881" gradientUnits="userSpaceOnUse"><stop stop-color="#00ABDE"/><stop offset="1" stop-color="#007ED8"/></linearGradient><linearGradient id="b" x1="36.982" y1="4.273" x2="203.66" y2="286.603" gradientUnits="userSpaceOnUse"><stop stop-color="#007ED8"/><stop offset=".707" stop-color="#002D4C"/></linearGradient><linearGradient id="c" x1="105.604" y1="117.175" x2="202.377" y2="127.323" gradientUnits="userSpaceOnUse"><stop stop-color="#007ED8"/><stop offset=".707" stop-color="#002D4C"/></linearGradient><linearGradient id="d" x1="97.178" y1="64.704" x2="97.545" y2="102.871" gradientUnits="userSpaceOnUse"><stop offset=".008" stop-color="#E0A310"/><stop offset="1" stop-color="#CA810E"/></linearGradient><linearGradient id="e" x1="87.199" y1="73.574" x2="88.299" y2="113.943" gradientUnits="userSpaceOnUse"><stop offset=".008" stop-color="#F2CC40"/><stop offset="1" stop-color="#E7B116"/></linearGradient><linearGradient id="f" x1="77.985" y1="85.278" x2="79.086" y2="111.335" gradientUnits="userSpaceOnUse"><stop stop-color="#F8E17B"/><stop offset=".53" stop-color="#F6D856"/><stop offset="1" stop-color="#F6D856"/></linearGradient></defs></svg>