<svg width="103" height="103" viewBox="0 0 103 103" fill="none" xmlns="http://www.w3.org/2000/svg">
<path d="M51.7089 98.7109C25.8589 98.7109 4.89893 77.7609 4.89893 51.9009C4.89893 26.0409 25.8589 5.09094 51.7089 5.09094C77.5589 5.09094 98.5189 26.0509 98.5189 51.9009C98.5189 77.7509 77.5589 98.7109 51.7089 98.7109Z" fill="url(#paint0_linear)"/>
<path fill-rule="evenodd" clip-rule="evenodd" d="M97.6091 51.901C97.6091 77.251 77.0591 97.801 51.7091 97.801C26.3591 97.801 5.80909 77.251 5.80909 51.901C5.80909 26.551 26.3591 6.00099 51.7091 6.00099C77.0591 6.00099 97.6091 26.551 97.6091 51.901ZM51.7091 2.26099C79.1291 2.26099 101.349 24.481 101.349 51.901C101.349 79.321 79.1191 101.541 51.7091 101.541C24.2891 101.541 2.06909 79.311 2.06909 51.901C2.06909 24.481 24.2891 2.26099 51.7091 2.26099Z" fill="#F2F1F0"/>
<path fill-rule="evenodd" clip-rule="evenodd" d="M94.7989 51.901C94.7989 75.701 75.5089 94.991 51.7089 94.991C27.9089 94.991 8.61891 75.701 8.61891 51.901C8.61891 28.101 27.9089 8.81104 51.7089 8.81104C75.5089 8.81104 94.7989 28.101 94.7989 51.901ZM51.7089 5.07104C77.5689 5.07104 98.5389 26.041 98.5389 51.901C98.5389 77.761 77.5689 98.731 51.7089 98.731C25.8489 98.731 4.87891 77.761 4.87891 51.901C4.87891 26.041 25.8389 5.07104 51.7089 5.07104Z" fill="url(#paint1_linear)"/>
<path opacity="0.15" d="M88.9088 48.5911C88.9088 47.7811 88.2488 47.1211 87.4388 47.1211C86.9088 47.1211 83.6088 46.8311 81.8388 45.4511C81.8388 45.4511 81.8488 45.4311 81.8388 45.4511C81.1688 43.0111 80.1888 40.7311 78.9788 38.5711C78.6688 36.5211 80.7888 35.0311 81.7588 33.4311C81.9288 33.1511 82.0288 32.9911 82.0888 32.8811C82.2688 32.3611 82.1688 31.7611 81.7588 31.3511C81.7588 31.3511 80.1288 29.0211 78.4588 27.3611C76.7888 25.7011 74.2588 23.8511 74.2588 23.8511C73.6888 23.2811 72.7488 23.2811 72.1788 23.8511C71.7988 24.2211 69.2888 26.2911 67.0288 26.6211C66.9988 26.6211 66.9988 26.6211 66.9988 26.6211C64.8988 25.4311 62.5388 24.4511 60.1688 23.7811H60.1388C58.4688 22.5511 58.9088 20.0011 58.4688 18.1811C58.4688 17.3711 57.8088 16.7111 56.9988 16.7111C56.9988 16.7111 54.1988 16.2211 51.8388 16.2211C49.4788 16.2211 46.3888 16.7111 46.3888 16.7111C45.5788 16.7111 44.9188 17.3711 44.9188 18.1811C44.9188 18.7111 44.6288 22.0111 43.2488 23.7811C40.9088 24.4411 38.4488 25.4811 36.3688 26.6411C34.3188 26.9511 32.8288 24.8311 31.2288 23.8611C30.9488 23.6911 30.7888 23.5911 30.6788 23.5311C30.1588 23.3511 29.5588 23.4511 29.1488 23.8611C29.1488 23.8611 26.8188 25.4911 25.1588 27.1611C23.4988 28.8311 21.6488 31.3611 21.6488 31.3611C21.0788 31.9311 21.0788 32.8711 21.6488 33.4411C22.0188 33.8111 24.1488 36.3611 24.4288 38.5811V38.6011C23.2688 40.6811 22.2488 43.1311 21.5888 45.4711C21.5888 45.4711 21.6188 45.4311 21.5888 45.4711C20.1588 47.2111 17.8088 46.7011 15.9888 47.1411C15.1788 47.1411 14.5188 47.8011 14.5188 48.6111C14.5188 48.6111 14.0288 51.4111 14.0288 53.7711C14.0288 56.1311 14.5188 59.2211 14.5188 59.2211C14.5188 60.0311 15.1788 60.6911 15.9888 60.6911C16.5188 60.6911 19.8188 60.9811 21.5888 62.3611C21.6288 62.3411 21.6088 62.3911 21.6088 62.3911C22.2888 64.7411 23.2588 67.0911 24.4388 69.1711C24.4188 69.2011 24.4388 69.1711 24.4488 69.2411C24.6488 71.3811 22.6388 72.7811 21.6688 74.3811C21.4988 74.6611 21.3988 74.8211 21.3388 74.9311C21.1588 75.4511 21.2588 76.0511 21.6688 76.4611C21.6688 76.4611 23.2988 78.7911 24.9688 80.4511C26.6388 82.1211 29.1688 83.9611 29.1688 83.9611C29.7388 84.5311 30.6788 84.5311 31.2488 83.9611C31.6188 83.5911 34.1688 81.4611 36.3888 81.1811C36.3888 81.1811 36.3788 81.1911 36.4188 81.2011C38.5588 82.3911 40.7688 83.3311 43.1888 83.9911C43.2088 84.0011 43.2788 84.0211 43.2788 84.0211C44.9488 85.2511 44.5088 87.8011 44.9488 89.6211C45.0388 90.4411 45.4888 90.9611 46.4188 91.0911C46.4188 91.0911 49.2188 91.5811 51.5788 91.5811C53.9388 91.5811 57.0288 91.1011 57.0288 91.1011C57.8388 90.9611 58.4988 90.4411 58.4988 89.6311C58.4988 89.1011 58.7888 85.8011 60.1688 84.0311C60.1688 84.0311 60.2288 83.9811 60.2888 83.9311C62.7488 83.2411 64.6188 82.4811 66.7888 81.2311C66.8988 81.1911 66.7788 81.2011 67.0388 81.1611C69.0888 80.8511 70.5788 82.9711 72.1788 83.9411C72.4588 84.1111 72.6188 84.2111 72.7288 84.2711C73.2488 84.4511 73.8488 84.3511 74.2588 83.9411C74.2588 83.9411 76.5888 82.3111 78.2488 80.6411C79.9188 78.9711 81.7588 76.4411 81.7588 76.4411C82.3288 75.8711 82.3288 74.9311 81.7588 74.3611C81.3888 73.9911 79.2588 71.4411 78.9788 69.2211C78.9488 68.9911 78.9688 68.9611 78.9988 68.9011C80.2388 66.7111 81.0188 65.1111 81.6988 62.6311C81.6988 62.6311 81.6688 62.5511 81.8288 62.3411C83.0588 60.6711 85.6088 61.1111 87.4288 60.6711C88.2388 60.6711 88.8988 60.0111 88.8988 59.2011C88.8988 59.2011 89.3888 56.4011 89.3888 54.0411C89.3888 51.6811 88.9088 48.5911 88.9088 48.5911Z" fill="#1F1D20"/>
<path d="M88.9088 46.5911C88.9088 45.7811 88.2488 45.1211 87.4388 45.1211C86.9088 45.1211 83.6088 44.8311 81.8388 43.4511C81.8388 43.4511 81.8488 43.4311 81.8388 43.4511C81.1688 41.0111 80.1888 38.7311 78.9788 36.5711C78.6688 34.5211 80.7888 33.0311 81.7588 31.4311C81.9288 31.1511 82.0288 30.9911 82.0888 30.8811C82.2688 30.3611 82.1688 29.7611 81.7588 29.3511C81.7588 29.3511 80.1288 27.0211 78.4588 25.3611C76.7888 23.7011 74.2588 21.8511 74.2588 21.8511C73.6888 21.2811 72.7488 21.2811 72.1788 21.8511C71.7988 22.2211 69.2888 24.2911 67.0288 24.6211C66.9988 24.6211 66.9988 24.6211 66.9988 24.6211C64.8988 23.4311 62.5388 22.4511 60.1688 21.7811H60.1388C58.4688 20.5511 58.9088 18.0011 58.4688 16.1811C58.4688 15.3711 57.8088 14.7111 56.9988 14.7111C56.9988 14.7111 54.1988 14.2211 51.8388 14.2211C49.4788 14.2211 46.3888 14.7111 46.3888 14.7111C45.5788 14.7111 44.9188 15.3711 44.9188 16.1811C44.9188 16.7111 44.6288 20.0111 43.2488 21.7811C40.9088 22.4411 38.4488 23.4811 36.3688 24.6411C34.3188 24.9511 32.8288 22.8311 31.2288 21.8611C30.9488 21.6911 30.7888 21.5911 30.6788 21.5311C30.1588 21.3511 29.5588 21.4511 29.1488 21.8611C29.1488 21.8611 26.8188 23.4911 25.1588 25.1611C23.4988 26.8311 21.6488 29.3611 21.6488 29.3611C21.0788 29.9311 21.0788 30.8711 21.6488 31.4411C22.0188 31.8111 24.1488 34.3611 24.4288 36.5811V36.6011C23.2688 38.6811 22.2488 41.1311 21.5888 43.4711C21.5888 43.4711 21.6188 43.4311 21.5888 43.4711C20.1588 45.2111 17.8088 44.7011 15.9888 45.1411C15.1788 45.1411 14.5188 45.8011 14.5188 46.6111C14.5188 46.6111 14.0288 49.4111 14.0288 51.7711C14.0288 54.1311 14.5188 57.2211 14.5188 57.2211C14.5188 58.0311 15.1788 58.6911 15.9888 58.6911C16.5188 58.6911 19.8188 58.9811 21.5888 60.3611C21.6288 60.3411 21.6088 60.3911 21.6088 60.3911C22.2888 62.7411 23.2588 65.0911 24.4388 67.1711C24.4188 67.2011 24.4388 67.1711 24.4488 67.2411C24.6488 69.3811 22.6388 70.7811 21.6688 72.3811C21.4988 72.6611 21.3988 72.8211 21.3388 72.9311C21.1588 73.4511 21.2588 74.0511 21.6688 74.4611C21.6688 74.4611 23.2988 76.7911 24.9688 78.4511C26.6388 80.1211 29.1688 81.9611 29.1688 81.9611C29.7388 82.5311 30.6788 82.5311 31.2488 81.9611C31.6188 81.5911 34.1688 79.4611 36.3888 79.1811C36.3888 79.1811 36.3788 79.1911 36.4188 79.2011C38.5588 80.3911 40.7688 81.3311 43.1888 81.9911C43.2088 82.0011 43.2788 82.0211 43.2788 82.0211C44.9488 83.2511 44.5088 85.8011 44.9488 87.6211C45.0388 88.4411 45.4888 88.9611 46.4188 89.0911C46.4188 89.0911 49.2188 89.5811 51.5788 89.5811C53.9388 89.5811 57.0288 89.1011 57.0288 89.1011C57.8388 88.9611 58.4988 88.4411 58.4988 87.6311C58.4988 87.1011 58.7888 83.8011 60.1688 82.0311C60.1688 82.0311 60.2288 81.9811 60.2888 81.9311C62.7488 81.2411 64.6188 80.4811 66.7888 79.2311C66.8988 79.1911 66.7788 79.2011 67.0388 79.1611C69.0888 78.8511 70.5788 80.9711 72.1788 81.9411C72.4588 82.1111 72.6188 82.2111 72.7288 82.2711C73.2488 82.4511 73.8488 82.3511 74.2588 81.9411C74.2588 81.9411 76.5888 80.3111 78.2488 78.6411C79.9188 76.9711 81.7588 74.4411 81.7588 74.4411C82.3288 73.8711 82.3288 72.9311 81.7588 72.3611C81.3888 71.9911 79.2588 69.4411 78.9788 67.2211C78.9488 66.9911 78.9688 66.9611 78.9988 66.9011C80.2388 64.7111 81.0188 63.1111 81.6988 60.6311C81.6988 60.6311 81.6688 60.5511 81.8288 60.3411C83.0588 58.6711 85.6088 59.1111 87.4288 58.6711C88.2388 58.6711 88.8988 58.0111 88.8988 57.2011C88.8988 57.2011 89.3888 54.4011 89.3888 52.0411C89.3888 49.6811 88.9088 46.5911 88.9088 46.5911Z" fill="#F2F1F0"/>
<path opacity="0.15" d="M62.819 31.8009H52.539C51.169 31.8009 50.049 32.9209 50.049 34.2909V42.1909H43.629C42.429 42.1909 41.459 43.1609 41.459 44.3609V52.1609H36.099C34.539 52.1609 33.269 53.4309 33.269 54.9909V69.6709C33.269 71.2309 34.539 72.5009 36.099 72.5009H41.459H50.049H54.549H62.819C64.189 72.5009 65.309 71.3809 65.309 70.0109V34.2909C65.309 32.9209 64.189 31.8009 62.819 31.8009Z" fill="#1F1D20"/>
<path d="M62.8188 71.2209H50.0488V33.0209C50.0488 31.6509 51.1688 30.5309 52.5388 30.5309H62.8188C64.1888 30.5309 65.3088 31.6509 65.3088 33.0209V68.7309C65.3088 70.1009 64.1888 71.2209 62.8188 71.2209Z" fill="url(#paint2_linear)"/>
<path d="M54.549 71.221H41.459V43.081C41.459 41.881 42.429 40.911 43.629 40.911H54.539C55.739 40.911 56.709 41.881 56.709 43.081V69.041C56.719 70.241 55.749 71.221 54.549 71.221Z" fill="url(#paint3_linear)"/>
<path d="M45.699 71.221H36.099C34.539 71.221 33.269 69.951 33.269 68.391V53.711C33.269 52.151 34.539 50.881 36.099 50.881H45.709C47.269 50.881 48.539 52.151 48.539 53.711V68.391C48.529 69.951 47.259 71.221 45.699 71.221Z" fill="url(#paint4_linear)"/>
<path opacity="0.15" d="M62.099 75.1009C67.289 75.1009 71.509 70.8909 71.509 65.6909C71.509 60.5009 67.299 56.2809 62.099 56.2809C56.899 56.2809 52.689 60.4909 52.689 65.6909C52.699 70.8809 56.909 75.1009 62.099 75.1009Z" fill="#1F1D20"/>
<path d="M62.099 74.0911C67.289 74.0911 71.509 69.8811 71.509 64.6811C71.509 59.4911 67.299 55.2711 62.099 55.2711C56.899 55.2711 52.689 59.4811 52.689 64.6811C52.699 69.8811 56.909 74.0911 62.099 74.0911Z" fill="white"/>
<path d="M66.6788 68.5109C66.4188 66.1809 64.4188 64.3409 61.9988 64.3409C59.5988 64.3409 57.6188 66.1309 57.3188 68.4409C57.2788 68.6009 57.2788 68.7809 57.2788 68.9409C57.3388 69.6009 57.7988 70.2309 58.6588 70.7309C60.4988 71.7809 63.4988 71.7809 65.3188 70.7309C66.1788 70.2309 66.6188 69.6009 66.6788 68.9409C66.7188 68.8109 66.6988 68.6509 66.6788 68.5109Z" fill="url(#paint5_radial)"/>
<path d="M62.009 63.6809C63.579 63.6809 64.839 62.4209 64.839 60.8609C64.839 59.3009 63.569 58.0409 62.009 58.0409C60.439 58.0409 59.179 59.3009 59.179 60.8609C59.169 62.4209 60.439 63.6809 62.009 63.6809Z" fill="url(#paint6_radial)"/>
<defs>
<linearGradient id="paint0_linear" x1="49.939" y1="-12.8887" x2="53.921" y2="132.881" gradientUnits="userSpaceOnUse">
<stop stop-color="#00ABDE"/>
<stop offset="1" stop-color="#007ED8"/>
</linearGradient>
<linearGradient id="paint1_linear" x1="3.14241" y1="-19.724" x2="98.6694" y2="121.158" gradientUnits="userSpaceOnUse">
<stop stop-color="#007ED8"/>
<stop offset="0.7065" stop-color="#002D4C"/>
</linearGradient>
<linearGradient id="paint2_linear" x1="57.5029" y1="34.2459" x2="57.8276" y2="68.0086" gradientUnits="userSpaceOnUse">
<stop offset="0.00753769" stop-color="#E0A310"/>
<stop offset="1" stop-color="#CA810E"/>
</linearGradient>
<linearGradient id="paint3_linear" x1="48.6697" y1="42.0928" x2="49.6437" y2="77.8032" gradientUnits="userSpaceOnUse">
<stop offset="0.00753769" stop-color="#F2CC40"/>
<stop offset="1" stop-color="#E7B116"/>
</linearGradient>
<linearGradient id="paint4_linear" x1="40.5365" y1="52.446" x2="41.5104" y2="75.4953" gradientUnits="userSpaceOnUse">
<stop stop-color="#F8E17B"/>
<stop offset="0.5302" stop-color="#F6D856"/>
<stop offset="1" stop-color="#F6D856"/>
</linearGradient>
<radialGradient id="paint5_radial" cx="0" cy="0" r="1" gradientUnits="userSpaceOnUse" gradientTransform="translate(59.4181 64.211) scale(13.576)">
<stop stop-color="#4FC2EB"/>
<stop offset="0.585" stop-color="#2E76BC"/>
</radialGradient>
<radialGradient id="paint6_radial" cx="0" cy="0" r="1" gradientUnits="userSpaceOnUse" gradientTransform="translate(59.7723 57.4469) scale(12.6049)">
<stop stop-color="#4FC2EB"/>
<stop offset="0.585" stop-color="#2E76BC"/>
</radialGradient>
</defs>
</svg>
