<svg width="103" height="103" viewBox="0 0 103 103" fill="none" xmlns="http://www.w3.org/2000/svg">
<path d="M51.3844 98.3046C25.5344 98.3046 4.5744 77.3546 4.5744 51.4946C4.5744 25.6346 25.5344 4.68457 51.3844 4.68457C77.2344 4.68457 98.1944 25.6446 98.1944 51.4946C98.1944 77.3446 77.2344 98.3046 51.3844 98.3046Z" fill="url(#paint0_linear_148_114182)"/>
<path fill-rule="evenodd" clip-rule="evenodd" d="M97.2844 51.4945C97.2844 76.8445 76.7344 97.3945 51.3844 97.3945C26.0344 97.3945 5.48438 76.8445 5.48438 51.4945C5.48438 26.1445 26.0344 5.5945 51.3844 5.5945C76.7344 5.5945 97.2844 26.1445 97.2844 51.4945ZM51.3844 1.85449C78.8044 1.85449 101.024 24.0745 101.024 51.4945C101.024 78.9145 78.7944 101.135 51.3844 101.135C23.9644 101.135 1.74438 78.9045 1.74438 51.4945C1.74438 24.0745 23.9644 1.85449 51.3844 1.85449Z" fill="#F2F1F0"/>
<path fill-rule="evenodd" clip-rule="evenodd" d="M94.4744 51.4941C94.4744 75.2941 75.1844 94.5841 51.3844 94.5841C27.5844 94.5841 8.29441 75.2941 8.29441 51.4941C8.29441 27.6941 27.5844 8.40407 51.3844 8.40407C75.1844 8.40407 94.4744 27.6941 94.4744 51.4941ZM51.3844 4.66406C77.2444 4.66406 98.2144 25.6341 98.2144 51.4941C98.2144 77.3541 77.2444 98.3241 51.3844 98.3241C25.5244 98.3241 4.55441 77.3541 4.55441 51.4941C4.55441 25.6341 25.5144 4.66406 51.3844 4.66406Z" fill="url(#paint1_linear_148_114182)"/>
<path opacity="0.15" d="M22.6796 78.3444H80.2796C81.8896 78.3444 83.1996 77.0344 83.1996 75.4244V29.4844H19.7596V75.4244C19.7596 77.0344 21.0696 78.3444 22.6796 78.3444Z" fill="#1F1D20"/>
<path d="M20.9696 76.6998H81.9996C82.6696 76.6998 83.2096 76.1598 83.2096 75.4898V27.8398H19.7596V75.4898C19.7596 76.1598 20.2996 76.6998 20.9696 76.6998Z" fill="#EBEBEB"/>
<path d="M19.7596 33.1198H83.2096V27.4298C83.2096 26.9198 82.7996 26.5098 82.2896 26.5098H20.6796C20.1696 26.5098 19.7596 26.9198 19.7596 27.4298V33.1198Z" fill="#092E4C"/>
<path d="M24.6396 31.5498C25.5296 31.5498 26.2496 30.8298 26.2496 29.9398C26.2496 29.0398 25.5096 28.3398 24.6396 28.3398C23.7496 28.3398 23.0296 29.0598 23.0296 29.9498C23.0296 30.8498 23.7296 31.5498 24.6396 31.5498Z" fill="#00A2DD"/>
<path d="M45.4989 70.2266H36.2127V42.4472C36.2127 41.4478 37.0247 40.6357 38.0241 40.6357H45.4989C46.4983 40.6357 47.3103 41.4478 47.3103 42.4472V68.4152C47.3103 69.4146 46.4983 70.2266 45.4989 70.2266Z" fill="url(#paint2_linear_148_114182)"/>
<path d="M39.4859 70.2265H29.9665V49.7677C29.9665 48.8974 30.6744 48.1895 31.5447 48.1895H39.4817C40.352 48.1895 41.0599 48.8974 41.0599 49.7677V68.6441C41.0641 69.5186 40.3562 70.2265 39.4859 70.2265Z" fill="url(#paint3_linear_148_114182)"/>
<path d="M33.0481 70.2266H26.0648C24.9279 70.2266 24.0076 69.3063 24.0076 68.1695V57.4966C24.0076 56.3597 24.9279 55.4395 26.0648 55.4395H33.0523C34.1891 55.4395 35.1094 56.3597 35.1094 57.4966V68.1695C35.1053 69.3063 34.185 70.2266 33.0481 70.2266Z" fill="url(#paint4_linear_148_114182)"/>
<path d="M59.4343 40.002H50.8604V46.1637H59.439V40.002H59.4343Z" fill="url(#paint5_linear_148_114182)"/>
<path d="M68.7322 40.002H60.1536V46.1637H68.7322V40.002Z" fill="url(#paint6_linear_148_114182)"/>
<path d="M78.0343 40.002H69.4557V46.1637H78.0343V40.002Z" fill="url(#paint7_linear_148_114182)"/>
<path d="M59.4341 46.9551H50.8602V47.7015H59.4388V46.9551H59.4341Z" fill="url(#paint8_linear_148_114182)"/>
<path d="M68.7322 46.9551H60.1537V47.7015H68.7322V46.9551Z" fill="url(#paint9_linear_148_114182)"/>
<path d="M78.0342 46.9551H69.4557V47.7015H78.0342V46.9551Z" fill="url(#paint10_linear_148_114182)"/>
<path d="M59.4341 48.4131H50.8602V49.1595H59.4388V48.4131H59.4341Z" fill="url(#paint11_linear_148_114182)"/>
<path d="M68.7322 48.4131H60.1537V49.1595H68.7322V48.4131Z" fill="url(#paint12_linear_148_114182)"/>
<path d="M78.0342 48.4131H69.4557V49.1595H78.0342V48.4131Z" fill="url(#paint13_linear_148_114182)"/>
<path d="M59.4341 50.0566H50.8602V56.2183H59.4388V50.0566H59.4341Z" fill="url(#paint14_linear_148_114182)"/>
<path d="M68.7322 50.0566H60.1537V56.2183H68.7322V50.0566Z" fill="url(#paint15_linear_148_114182)"/>
<path d="M78.0342 50.0566H69.4557V56.2183H78.0342V50.0566Z" fill="url(#paint16_linear_148_114182)"/>
<path d="M59.4341 57.0146H50.8602V57.7611H59.4388V57.0146H59.4341Z" fill="url(#paint17_linear_148_114182)"/>
<path d="M68.7322 57.0146H60.1537V57.7611H68.7322V57.0146Z" fill="url(#paint18_linear_148_114182)"/>
<path d="M78.0342 57.0146H69.4557V57.7611H78.0342V57.0146Z" fill="url(#paint19_linear_148_114182)"/>
<path d="M59.4341 58.4717H50.8602V59.2181H59.4388V58.4717H59.4341Z" fill="url(#paint20_linear_148_114182)"/>
<path d="M68.7322 58.4717H60.1537V59.2181H68.7322V58.4717Z" fill="url(#paint21_linear_148_114182)"/>
<path d="M78.0342 58.4717H69.4557V59.2181H78.0342V58.4717Z" fill="url(#paint22_linear_148_114182)"/>
<path d="M59.4341 60.2148H50.8602V66.3765H59.4388V60.2148H59.4341Z" fill="url(#paint23_linear_148_114182)"/>
<path d="M68.7322 60.2148H60.1537V66.3765H68.7322V60.2148Z" fill="url(#paint24_linear_148_114182)"/>
<path d="M78.0342 60.2148H69.4557V66.3765H78.0342V60.2148Z" fill="url(#paint25_linear_148_114182)"/>
<path d="M59.4341 67.1738H50.8602V67.9202H59.4388V67.1738H59.4341Z" fill="url(#paint26_linear_148_114182)"/>
<path d="M68.7322 67.1738H60.1537V67.9202H68.7322V67.1738Z" fill="url(#paint27_linear_148_114182)"/>
<path d="M78.0342 67.1738H69.4557V67.9202H78.0342V67.1738Z" fill="url(#paint28_linear_148_114182)"/>
<path d="M59.4341 68.6309H50.8602V69.3773H59.4388V68.6309H59.4341Z" fill="url(#paint29_linear_148_114182)"/>
<path d="M68.7322 68.6309H60.1537V69.3773H68.7322V68.6309Z" fill="url(#paint30_linear_148_114182)"/>
<path d="M78.0342 68.6309H69.4557V69.3773H78.0342V68.6309Z" fill="url(#paint31_linear_148_114182)"/>
<path d="M77.8248 80.5971C81.9848 80.5971 85.3548 77.2271 85.3548 73.0671C85.3548 68.9071 81.9848 65.5371 77.8248 65.5371C73.6648 65.5371 70.2948 68.9071 70.2948 73.0671C70.3048 77.2271 73.6748 80.5971 77.8248 80.5971Z" fill="#002D4C"/>
<path d="M81.9249 69.2471L75.7249 75.4771L73.8649 73.6071L72.6249 74.8571L75.7249 77.9671L83.1749 70.4971L81.9249 69.2471Z" fill="#FAF9F8"/>
<defs>
<linearGradient id="paint0_linear_148_114182" x1="49.6105" y1="-13.2949" x2="53.5925" y2="132.475" gradientUnits="userSpaceOnUse">
<stop stop-color="#00ABDE"/>
<stop offset="1" stop-color="#007ED8"/>
</linearGradient>
<linearGradient id="paint1_linear_148_114182" x1="2.81481" y1="-20.1285" x2="98.3423" y2="120.753" gradientUnits="userSpaceOnUse">
<stop stop-color="#007ED8"/>
<stop offset="0.7065" stop-color="#002D4C"/>
</linearGradient>
<linearGradient id="paint2_linear_148_114182" x1="41.6378" y1="43.3423" x2="41.8739" y2="67.8948" gradientUnits="userSpaceOnUse">
<stop offset="0.00753769" stop-color="#E0A310"/>
<stop offset="1" stop-color="#CA810E"/>
</linearGradient>
<linearGradient id="paint3_linear_148_114182" x1="35.2182" y1="49.0482" x2="35.9264" y2="75.0172" gradientUnits="userSpaceOnUse">
<stop offset="0.00753769" stop-color="#F2CC40"/>
<stop offset="1" stop-color="#E7B116"/>
</linearGradient>
<linearGradient id="paint4_linear_148_114182" x1="29.2912" y1="56.5778" x2="29.9995" y2="73.3395" gradientUnits="userSpaceOnUse">
<stop stop-color="#F8E17B"/>
<stop offset="0.5302" stop-color="#F6D856"/>
<stop offset="1" stop-color="#F6D856"/>
</linearGradient>
<linearGradient id="paint5_linear_148_114182" x1="55.0541" y1="40.5655" x2="55.0673" y2="45.6785" gradientUnits="userSpaceOnUse">
<stop offset="0.00753769" stop-color="#E0A310"/>
<stop offset="1" stop-color="#CA810E"/>
</linearGradient>
<linearGradient id="paint6_linear_148_114182" x1="64.3473" y1="40.5655" x2="64.3605" y2="45.6785" gradientUnits="userSpaceOnUse">
<stop offset="0.00753769" stop-color="#E0A310"/>
<stop offset="1" stop-color="#CA810E"/>
</linearGradient>
<linearGradient id="paint7_linear_148_114182" x1="73.6494" y1="40.5655" x2="73.6626" y2="45.6785" gradientUnits="userSpaceOnUse">
<stop offset="0.00753769" stop-color="#E0A310"/>
<stop offset="1" stop-color="#CA810E"/>
</linearGradient>
<linearGradient id="paint8_linear_148_114182" x1="54.9958" y1="34.1029" x2="55.1989" y2="49.5335" gradientUnits="userSpaceOnUse">
<stop stop-color="#008BF1"/>
<stop offset="0.22" stop-color="#0086EC"/>
<stop offset="0.49" stop-color="#0078DD"/>
<stop offset="0.79" stop-color="#0061C4"/>
<stop offset="1" stop-color="#004DAE"/>
</linearGradient>
<linearGradient id="paint9_linear_148_114182" x1="64.2916" y1="33.9806" x2="64.4947" y2="49.4111" gradientUnits="userSpaceOnUse">
<stop stop-color="#008BF1"/>
<stop offset="0.22" stop-color="#0086EC"/>
<stop offset="0.49" stop-color="#0078DD"/>
<stop offset="0.79" stop-color="#0061C4"/>
<stop offset="1" stop-color="#004DAE"/>
</linearGradient>
<linearGradient id="paint10_linear_148_114182" x1="73.5923" y1="33.8581" x2="73.7954" y2="49.2887" gradientUnits="userSpaceOnUse">
<stop stop-color="#008BF1"/>
<stop offset="0.22" stop-color="#0086EC"/>
<stop offset="0.49" stop-color="#0078DD"/>
<stop offset="0.79" stop-color="#0061C4"/>
<stop offset="1" stop-color="#004DAE"/>
</linearGradient>
<linearGradient id="paint11_linear_148_114182" x1="54.9791" y1="34.1034" x2="55.1823" y2="49.5339" gradientUnits="userSpaceOnUse">
<stop stop-color="#008BF1"/>
<stop offset="0.22" stop-color="#0086EC"/>
<stop offset="0.49" stop-color="#0078DD"/>
<stop offset="0.79" stop-color="#0061C4"/>
<stop offset="1" stop-color="#004DAE"/>
</linearGradient>
<linearGradient id="paint12_linear_148_114182" x1="64.2749" y1="33.9811" x2="64.478" y2="49.4116" gradientUnits="userSpaceOnUse">
<stop stop-color="#008BF1"/>
<stop offset="0.22" stop-color="#0086EC"/>
<stop offset="0.49" stop-color="#0078DD"/>
<stop offset="0.79" stop-color="#0061C4"/>
<stop offset="1" stop-color="#004DAE"/>
</linearGradient>
<linearGradient id="paint13_linear_148_114182" x1="73.5756" y1="33.8586" x2="73.7787" y2="49.2891" gradientUnits="userSpaceOnUse">
<stop stop-color="#008BF1"/>
<stop offset="0.22" stop-color="#0086EC"/>
<stop offset="0.49" stop-color="#0078DD"/>
<stop offset="0.79" stop-color="#0061C4"/>
<stop offset="1" stop-color="#004DAE"/>
</linearGradient>
<linearGradient id="paint14_linear_148_114182" x1="54.9213" y1="50.2968" x2="54.993" y2="57.5625" gradientUnits="userSpaceOnUse">
<stop offset="0.00753769" stop-color="#F2CC40"/>
<stop offset="1" stop-color="#E7B116"/>
</linearGradient>
<linearGradient id="paint15_linear_148_114182" x1="64.2148" y1="50.2968" x2="64.2864" y2="57.5625" gradientUnits="userSpaceOnUse">
<stop offset="0.00753769" stop-color="#F2CC40"/>
<stop offset="1" stop-color="#E7B116"/>
</linearGradient>
<linearGradient id="paint16_linear_148_114182" x1="73.5168" y1="50.2968" x2="73.5885" y2="57.5625" gradientUnits="userSpaceOnUse">
<stop offset="0.00753769" stop-color="#F2CC40"/>
<stop offset="1" stop-color="#E7B116"/>
</linearGradient>
<linearGradient id="paint17_linear_148_114182" x1="57.5719" y1="30.2499" x2="51.487" y2="89.4309" gradientUnits="userSpaceOnUse">
<stop stop-color="#198AB3"/>
<stop offset="0.16" stop-color="#1F9AC2"/>
<stop offset="0.5" stop-color="#29BADE"/>
<stop offset="0.8" stop-color="#30CDEF"/>
<stop offset="1" stop-color="#32D4F5"/>
</linearGradient>
<linearGradient id="paint18_linear_148_114182" x1="66.7844" y1="31.1971" x2="60.6996" y2="90.3781" gradientUnits="userSpaceOnUse">
<stop stop-color="#198AB3"/>
<stop offset="0.16" stop-color="#1F9AC2"/>
<stop offset="0.5" stop-color="#29BADE"/>
<stop offset="0.8" stop-color="#30CDEF"/>
<stop offset="1" stop-color="#32D4F5"/>
</linearGradient>
<linearGradient id="paint19_linear_148_114182" x1="76.0019" y1="32.1449" x2="69.917" y2="91.3259" gradientUnits="userSpaceOnUse">
<stop stop-color="#198AB3"/>
<stop offset="0.16" stop-color="#1F9AC2"/>
<stop offset="0.5" stop-color="#29BADE"/>
<stop offset="0.8" stop-color="#30CDEF"/>
<stop offset="1" stop-color="#32D4F5"/>
</linearGradient>
<linearGradient id="paint20_linear_148_114182" x1="57.701" y1="30.2625" x2="51.6161" y2="89.4435" gradientUnits="userSpaceOnUse">
<stop stop-color="#198AB3"/>
<stop offset="0.16" stop-color="#1F9AC2"/>
<stop offset="0.5" stop-color="#29BADE"/>
<stop offset="0.8" stop-color="#30CDEF"/>
<stop offset="1" stop-color="#32D4F5"/>
</linearGradient>
<linearGradient id="paint21_linear_148_114182" x1="66.9135" y1="31.2096" x2="60.8287" y2="90.3907" gradientUnits="userSpaceOnUse">
<stop stop-color="#198AB3"/>
<stop offset="0.16" stop-color="#1F9AC2"/>
<stop offset="0.5" stop-color="#29BADE"/>
<stop offset="0.8" stop-color="#30CDEF"/>
<stop offset="1" stop-color="#32D4F5"/>
</linearGradient>
<linearGradient id="paint22_linear_148_114182" x1="76.1309" y1="32.1574" x2="70.0461" y2="91.3384" gradientUnits="userSpaceOnUse">
<stop stop-color="#198AB3"/>
<stop offset="0.16" stop-color="#1F9AC2"/>
<stop offset="0.5" stop-color="#29BADE"/>
<stop offset="0.8" stop-color="#30CDEF"/>
<stop offset="1" stop-color="#32D4F5"/>
</linearGradient>
<linearGradient id="paint23_linear_148_114182" x1="54.943" y1="60.6892" x2="55.1023" y2="67.6825" gradientUnits="userSpaceOnUse">
<stop stop-color="#F8E17B"/>
<stop offset="0.5302" stop-color="#F6D856"/>
<stop offset="1" stop-color="#F6D856"/>
</linearGradient>
<linearGradient id="paint24_linear_148_114182" x1="64.2364" y1="60.6892" x2="64.3958" y2="67.6825" gradientUnits="userSpaceOnUse">
<stop stop-color="#F8E17B"/>
<stop offset="0.5302" stop-color="#F6D856"/>
<stop offset="1" stop-color="#F6D856"/>
</linearGradient>
<linearGradient id="paint25_linear_148_114182" x1="73.5384" y1="60.6892" x2="73.6978" y2="67.6825" gradientUnits="userSpaceOnUse">
<stop stop-color="#F8E17B"/>
<stop offset="0.5302" stop-color="#F6D856"/>
<stop offset="1" stop-color="#F6D856"/>
</linearGradient>
<linearGradient id="paint26_linear_148_114182" x1="54.8667" y1="55.7181" x2="55.476" y2="78.0576" gradientUnits="userSpaceOnUse">
<stop stop-color="#32BEDD"/>
<stop offset="0.06" stop-color="#37C5E3"/>
<stop offset="0.3" stop-color="#49DDF7"/>
<stop offset="0.45" stop-color="#50E6FF"/>
<stop offset="0.55" stop-color="#50E6FF"/>
<stop offset="0.7" stop-color="#49DDF7"/>
<stop offset="0.94" stop-color="#37C5E3"/>
<stop offset="1" stop-color="#32BEDD"/>
</linearGradient>
<linearGradient id="paint27_linear_148_114182" x1="64.1579" y1="55.4648" x2="64.7671" y2="77.8042" gradientUnits="userSpaceOnUse">
<stop stop-color="#32BEDD"/>
<stop offset="0.06" stop-color="#37C5E3"/>
<stop offset="0.3" stop-color="#49DDF7"/>
<stop offset="0.45" stop-color="#50E6FF"/>
<stop offset="0.55" stop-color="#50E6FF"/>
<stop offset="0.7" stop-color="#49DDF7"/>
<stop offset="0.94" stop-color="#37C5E3"/>
<stop offset="1" stop-color="#32BEDD"/>
</linearGradient>
<linearGradient id="paint28_linear_148_114182" x1="73.454" y1="55.2112" x2="74.0633" y2="77.5506" gradientUnits="userSpaceOnUse">
<stop stop-color="#32BEDD"/>
<stop offset="0.06" stop-color="#37C5E3"/>
<stop offset="0.3" stop-color="#49DDF7"/>
<stop offset="0.45" stop-color="#50E6FF"/>
<stop offset="0.55" stop-color="#50E6FF"/>
<stop offset="0.7" stop-color="#49DDF7"/>
<stop offset="0.94" stop-color="#37C5E3"/>
<stop offset="1" stop-color="#32BEDD"/>
</linearGradient>
<linearGradient id="paint29_linear_148_114182" x1="54.8322" y1="55.7183" x2="55.4415" y2="78.0578" gradientUnits="userSpaceOnUse">
<stop stop-color="#32BEDD"/>
<stop offset="0.06" stop-color="#37C5E3"/>
<stop offset="0.3" stop-color="#49DDF7"/>
<stop offset="0.45" stop-color="#50E6FF"/>
<stop offset="0.55" stop-color="#50E6FF"/>
<stop offset="0.7" stop-color="#49DDF7"/>
<stop offset="0.94" stop-color="#37C5E3"/>
<stop offset="1" stop-color="#32BEDD"/>
</linearGradient>
<linearGradient id="paint30_linear_148_114182" x1="64.1234" y1="55.4649" x2="64.7326" y2="77.8044" gradientUnits="userSpaceOnUse">
<stop stop-color="#32BEDD"/>
<stop offset="0.06" stop-color="#37C5E3"/>
<stop offset="0.3" stop-color="#49DDF7"/>
<stop offset="0.45" stop-color="#50E6FF"/>
<stop offset="0.55" stop-color="#50E6FF"/>
<stop offset="0.7" stop-color="#49DDF7"/>
<stop offset="0.94" stop-color="#37C5E3"/>
<stop offset="1" stop-color="#32BEDD"/>
</linearGradient>
<linearGradient id="paint31_linear_148_114182" x1="73.4195" y1="55.2114" x2="74.0287" y2="77.5508" gradientUnits="userSpaceOnUse">
<stop stop-color="#32BEDD"/>
<stop offset="0.06" stop-color="#37C5E3"/>
<stop offset="0.3" stop-color="#49DDF7"/>
<stop offset="0.45" stop-color="#50E6FF"/>
<stop offset="0.55" stop-color="#50E6FF"/>
<stop offset="0.7" stop-color="#49DDF7"/>
<stop offset="0.94" stop-color="#37C5E3"/>
<stop offset="1" stop-color="#32BEDD"/>
</linearGradient>
</defs>
</svg>
