<svg width="103" height="103" viewBox="0 0 103 103" fill="none" xmlns="http://www.w3.org/2000/svg">
<path d="M51.1318 98.3329C25.2818 98.3329 4.32178 77.3829 4.32178 51.5229C4.32178 25.6629 25.2818 4.71289 51.1318 4.71289C76.9818 4.71289 97.9418 25.6729 97.9418 51.5229C97.9418 77.3729 76.9818 98.3329 51.1318 98.3329Z" fill="#6EBDFF"/>
<path fill-rule="evenodd" clip-rule="evenodd" d="M51.1318 1.52246C78.7418 1.52246 101.132 23.9125 101.132 51.5225C101.132 79.1325 78.7418 101.522 51.1318 101.522C23.5218 101.522 1.13184 79.1325 1.13184 51.5225C1.13184 23.9125 23.5218 1.52246 51.1318 1.52246ZM51.1318 97.2825C76.4018 97.2825 96.8918 76.7925 96.8918 51.5225C96.8918 26.2525 76.4018 5.76246 51.1318 5.76246C25.8618 5.76246 5.37184 26.2525 5.37184 51.5225C5.37184 76.7925 25.8618 97.2825 51.1318 97.2825Z" fill="#D9D9D9"/>
<path d="M85.5118 63.183H94.4118C97.4118 63.183 99.8518 60.693 99.8518 57.623C99.8518 54.553 97.4118 52.063 94.4118 52.063C94.1318 52.063 93.8618 52.083 93.5618 52.143C92.5118 48.493 89.2318 45.993 85.5118 46.003C80.8718 46.003 77.1018 49.853 77.1018 54.603C77.1018 59.323 80.8718 63.183 85.5118 63.183Z" fill="white"/>
<path fill-rule="evenodd" clip-rule="evenodd" d="M88.5718 33.1729V79.1729C88.5718 80.5829 87.4418 81.7328 86.0718 81.7328H16.0718C14.6918 81.7328 13.5718 80.5729 13.5718 79.1729V33.1729H88.5718V33.1729Z" fill="#E1E4E1"/>
<path fill-rule="evenodd" clip-rule="evenodd" d="M51.0718 28.0628C49.6918 28.0628 48.5718 26.9228 48.5718 25.5028V22.9428C48.5718 21.5328 49.6918 20.3828 51.0718 20.3828C52.4518 20.3828 53.5718 21.5228 53.5718 22.9428V25.5028C53.5718 26.9128 52.4518 28.0628 51.0718 28.0628Z" fill="#546670"/>
<path fill-rule="evenodd" clip-rule="evenodd" d="M91.0718 31.8929C91.0718 32.6029 90.5118 33.1729 89.8218 33.1729H12.3218C11.6318 33.1729 11.0718 32.6029 11.0718 31.8929V26.7829C11.0718 26.0729 11.6318 25.5029 12.3218 25.5029H89.8218C90.5118 25.5029 91.0718 26.0729 91.0718 26.7829V31.8929Z" fill="#30404D"/>
<path fill-rule="evenodd" clip-rule="evenodd" d="M13.5718 35.7231H88.5718V33.1631H13.5718V35.7231V35.7231Z" fill="#C5CCCD"/>
<path fill-rule="evenodd" clip-rule="evenodd" d="M12.3218 33.1729H89.8218C90.5118 33.1729 91.0718 32.6029 91.0718 31.8929V26.7829C91.0718 26.0729 90.5118 25.5029 89.8218 25.5029H51.0718V28.0629C51.0718 28.7729 50.5118 29.3429 49.8218 29.3429H11.0718V31.9029C11.0718 32.5929 11.6318 33.1729 12.3218 33.1729Z" fill="#182A37"/>
<path fill-rule="evenodd" clip-rule="evenodd" d="M51.0718 22.8224V25.5024H53.5718V22.9424C53.5718 22.8024 53.5618 22.6524 53.5418 22.5124C53.2918 21.0224 51.0718 21.3124 51.0718 22.8224Z" fill="#30404D"/>
<path d="M24.3317 37.8627H5.50171C5.84171 38.2027 7.95171 36.5627 7.95171 33.1427C7.95171 30.4927 8.69171 30.5127 9.36171 28.7727C10.3717 26.4027 16.3617 20.2327 16.7917 19.7727C18.2617 18.1927 18.2517 16.8327 19.3217 17.2327C22.5317 18.4627 24.4117 21.4227 24.9017 25.5127C28.0017 25.8227 30.3717 28.4827 30.3717 31.6727C30.3717 35.0927 27.6717 37.8527 24.3317 37.8627Z" fill="white"/>
<path opacity="0.15" d="M47.7419 55.7124L47.5119 55.4624C47.5019 55.4424 47.4919 55.4224 47.4719 55.4024L45.4019 53.1324L45.1919 52.9024C45.1919 52.9024 45.1919 52.9024 45.1819 52.9024L41.8719 49.2824C41.6319 49.0224 41.2219 49.0224 40.9719 49.2724L40.2819 49.9824L39.5019 49.1824C39.3219 48.9924 39.0119 49.0024 38.8419 49.2024L33.1619 55.6924C32.9119 55.9824 32.9119 56.4124 33.1619 56.7024L38.7919 63.1724C39.0019 63.4124 39.3819 63.4124 39.5919 63.1724L40.2319 62.4324L40.9619 63.1924C41.2119 63.4524 41.6219 63.4424 41.8619 63.1824L45.1719 59.5424C45.1919 59.5224 45.2119 59.5224 45.2319 59.5024L47.7319 56.7324C47.9919 56.4224 47.9919 55.9924 47.7419 55.7124Z" fill="#1F1D20"/>
<path opacity="0.15" d="M84.4418 51.433V49.653C84.4418 49.323 84.1718 49.043 83.8318 49.043H73.8218C73.4818 49.043 73.2118 49.313 73.2118 49.653V51.433V52.803H70.1518C69.8318 52.803 69.5618 53.063 69.5618 53.393V59.663C69.5618 59.983 69.8218 60.253 70.1518 60.253H72.6318C72.9718 60.253 73.2518 60.533 73.2518 60.873V62.983C73.2518 63.323 73.6618 63.493 73.9018 63.253L76.9318 60.253H80.1318C80.4518 60.253 80.7218 59.993 80.7218 59.663V56.983C80.7718 56.703 81.0018 56.483 81.3018 56.483H83.8618C84.1818 56.483 84.4518 56.223 84.4518 55.893V54.023L84.4418 51.433Z" fill="#1F1D20"/>
<path opacity="0.15" d="M66.0319 55.8427L63.7619 53.2827L63.7519 53.2927L61.1519 50.3627V50.3027H51.9119C51.3619 50.3027 51.0719 50.9527 51.4419 51.3627L55.8219 56.2427L51.4119 61.1727C51.0819 61.5427 51.3419 62.1227 51.8419 62.1227H55.9019H60.9219C61.0319 62.1227 61.1319 62.0827 61.2019 61.9927L66.0319 56.7327C66.2519 56.4727 66.2619 56.0927 66.0319 55.8427Z" fill="#1F1D20"/>
<path opacity="0.15" d="M26.6319 49.5127H23.2519C22.8019 49.5127 22.4319 49.8827 22.4319 50.3327V52.9327H20.3219C19.9319 52.9327 19.6119 53.2527 19.6119 53.6427V56.2027H17.8519C17.3419 56.2027 16.9219 56.6227 16.9219 57.1327V61.9627C16.9219 62.4727 17.3419 62.8927 17.8519 62.8927H19.6119H22.4319H23.9119H26.6319C27.0819 62.8927 27.4519 62.5227 27.4519 62.0727V50.3327C27.4519 49.8827 27.0819 49.5127 26.6319 49.5127Z" fill="#1F1D20"/>
<path d="M40.8619 49.5626L39.5119 48.1726C39.3319 47.9826 39.0219 47.9926 38.8519 48.1926L33.1719 54.6826C32.9219 54.9726 32.9219 55.4026 33.1719 55.6926L38.8019 62.1626C39.0119 62.4026 39.3919 62.4026 39.6019 62.1626L41.2819 60.2226L41.4719 50.2326L40.8619 49.5626Z" fill="url(#paint0_linear)"/>
<path d="M47.4719 54.3924L41.8719 48.2724C41.6319 48.0124 41.2219 48.0124 40.9719 48.2624L38.3819 50.9324C38.1019 51.2224 38.0919 51.6824 38.3719 51.9824L41.0219 54.8324C41.2219 55.0424 41.2219 55.3624 41.0219 55.5724L38.3619 58.4524C38.0919 58.7424 38.0919 59.2024 38.3719 59.4924L40.9619 62.1824C41.2119 62.4424 41.6219 62.4324 41.8619 62.1724L47.4619 56.0024C47.8919 55.5424 47.8919 54.8524 47.4719 54.3924Z" fill="url(#paint1_linear)"/>
<path d="M47.7419 55.7124L45.2419 58.4824C45.0519 58.6924 44.7219 58.7024 44.5319 58.4924L42.0219 55.9224C41.6119 55.5024 41.6119 54.8424 42.0219 54.4224L44.4919 51.8724C44.6919 51.6724 45.0219 51.6724 45.2019 51.8824L47.7519 54.6924C47.9919 54.9924 47.9919 55.4224 47.7419 55.7124Z" fill="url(#paint2_linear)"/>
<path d="M70.1618 51.8027C69.8418 51.8027 69.5718 52.0627 69.5718 52.3927V58.6627C69.5718 58.9827 69.8318 59.2527 70.1618 59.2527H72.6418C72.9818 59.2527 73.2618 59.5327 73.2618 59.8727V61.9827C73.2618 62.3227 73.6718 62.4927 73.9118 62.2527L76.9418 59.2527H80.1318C80.4518 59.2527 80.7218 58.9927 80.7218 58.6627V51.8027H70.1618Z" fill="url(#paint3_linear)"/>
<path d="M83.8317 48.043H73.8217C73.4817 48.043 73.2117 48.313 73.2117 48.653V54.993C73.2117 55.273 73.4317 55.493 73.7117 55.493H76.7317C76.8617 55.493 76.9817 55.543 77.0717 55.633L79.9417 58.503C80.2217 58.783 80.6917 58.583 80.6917 58.193V56.083C80.6917 55.753 80.9617 55.483 81.2917 55.483H83.8517C84.1717 55.483 84.4417 55.223 84.4417 54.893V48.643C84.4417 48.323 84.1717 48.043 83.8317 48.043Z" fill="#4CCBED"/>
<path d="M84.4417 52.4834H73.2117V54.9934C73.2117 55.2734 73.4317 55.4934 73.7117 55.4934H76.7317C76.8617 55.4934 76.9817 55.5434 77.0717 55.6334L79.9417 58.5034C80.2217 58.7834 80.6917 58.5834 80.6917 58.1934V56.0834C80.6917 55.7534 80.9617 55.4834 81.2917 55.4834H83.8517C84.1717 55.4834 84.4417 55.2234 84.4417 54.8934V52.4834Z" fill="#128AA9"/>
<path d="M84.4417 50.4326H73.2117V53.0226H84.4317V50.4326H84.4417Z" fill="#17AAD2"/>
<path d="M61.1619 53.133L56.4219 55.903L51.4419 50.353C51.0719 49.943 51.3619 49.293 51.9119 49.293H61.1519L61.1619 53.133Z" fill="url(#paint4_linear)"/>
<path d="M63.7819 52.3232L61.1119 49.3232L51.4019 60.1632C51.0719 60.5332 51.3319 61.1132 51.8319 61.1132H55.8919L63.7819 52.3232Z" fill="url(#paint5_linear)"/>
<path d="M66.032 54.8432L63.762 52.2832L55.752 61.1132H60.912C61.022 61.1132 61.122 61.0732 61.192 60.9932L66.022 55.7332C66.252 55.4732 66.262 55.0932 66.032 54.8432Z" fill="url(#paint6_linear)"/>
<path d="M26.6319 61.8927H22.4319V49.3327C22.4319 48.8827 22.8019 48.5127 23.2519 48.5127H26.6319C27.0819 48.5127 27.4519 48.8827 27.4519 49.3327V61.0727C27.4519 61.5227 27.0819 61.8927 26.6319 61.8927Z" fill="url(#paint7_linear)"/>
<path d="M23.9118 61.8926H19.6018V52.6426C19.6018 52.2526 19.9218 51.9326 20.3118 51.9326H23.9018C24.2918 51.9326 24.6118 52.2526 24.6118 52.6426V61.1826C24.6218 61.5726 24.3018 61.8926 23.9118 61.8926Z" fill="url(#paint8_linear)"/>
<path d="M21.0019 61.8931H17.8419C17.3319 61.8931 16.9119 61.4731 16.9119 60.9631V56.1331C16.9119 55.6231 17.3319 55.2031 17.8419 55.2031H21.0019C21.5119 55.2031 21.9319 55.6231 21.9319 56.1331V60.9631C21.9319 61.4731 21.5119 61.8931 21.0019 61.8931Z" fill="url(#paint9_linear)"/>
<path fill-rule="evenodd" clip-rule="evenodd" d="M97.0317 51.5228C97.0317 76.8728 76.4817 97.4228 51.1317 97.4228C25.7817 97.4228 5.2317 76.8728 5.2317 51.5228C5.2317 26.1728 25.7817 5.62281 51.1317 5.62281C76.4817 5.62281 97.0317 26.1728 97.0317 51.5228ZM51.1317 1.88281C78.5517 1.88281 100.772 24.1028 100.772 51.5228C100.772 78.9428 78.5417 101.163 51.1317 101.163C23.7117 101.163 1.4917 78.9328 1.4917 51.5228C1.4917 24.1028 23.7117 1.88281 51.1317 1.88281Z" fill="#F2F1F0"/>
<path fill-rule="evenodd" clip-rule="evenodd" d="M94.2218 51.5224C94.2218 75.3224 74.9318 94.6124 51.1318 94.6124C27.3318 94.6124 8.04176 75.3224 8.04176 51.5224C8.04176 27.7224 27.3318 8.43238 51.1318 8.43238C74.9318 8.43238 94.2218 27.7224 94.2218 51.5224ZM51.1318 4.69238C76.9918 4.69238 97.9618 25.6624 97.9618 51.5224C97.9618 77.3824 76.9918 98.3524 51.1318 98.3524C25.2718 98.3524 4.30176 77.3824 4.30176 51.5224C4.30176 25.6624 25.2618 4.69238 51.1318 4.69238Z" fill="#0078D4"/>
<defs>
<linearGradient id="paint0_linear" x1="36.8673" y1="48.5665" x2="37.9097" y2="60.8155" gradientUnits="userSpaceOnUse">
<stop stop-color="#A23093"/>
<stop offset="1" stop-color="#692266"/>
</linearGradient>
<linearGradient id="paint1_linear" x1="38.1644" y1="55.2216" x2="47.7854" y2="55.2216" gradientUnits="userSpaceOnUse">
<stop stop-color="#E184C4"/>
<stop offset="1" stop-color="#D76EBC"/>
</linearGradient>
<linearGradient id="paint2_linear" x1="41.7062" y1="55.1913" x2="47.9325" y2="55.1913" gradientUnits="userSpaceOnUse">
<stop stop-color="#E89BCA"/>
<stop offset="1" stop-color="#E591C8"/>
</linearGradient>
<linearGradient id="paint3_linear" x1="73.5544" y1="52.3303" x2="76.8445" y2="58.4865" gradientUnits="userSpaceOnUse">
<stop stop-color="#107590"/>
<stop offset="0.2789" stop-color="#107590"/>
<stop offset="0.9874" stop-color="#0D5D73"/>
</linearGradient>
<linearGradient id="paint4_linear" x1="51.898" y1="46.1157" x2="62.6705" y2="56.2515" gradientUnits="userSpaceOnUse">
<stop offset="0.4598" stop-color="#1152D4"/>
<stop offset="0.6156" stop-color="#0D3FB3"/>
</linearGradient>
<linearGradient id="paint5_linear" x1="51.2611" y1="55.2126" x2="63.7842" y2="55.2126" gradientUnits="userSpaceOnUse">
<stop stop-color="#388CF4"/>
<stop offset="1" stop-color="#2C7CEF"/>
</linearGradient>
<linearGradient id="paint6_linear" x1="55.7518" y1="56.695" x2="66.2007" y2="56.695" gradientUnits="userSpaceOnUse">
<stop stop-color="#76C0FD"/>
<stop offset="1" stop-color="#63B2FB"/>
</linearGradient>
<linearGradient id="paint7_linear" x1="24.8813" y1="49.7346" x2="24.9881" y2="60.8391" gradientUnits="userSpaceOnUse">
<stop offset="0.00753769" stop-color="#E0A310"/>
<stop offset="1" stop-color="#CA810E"/>
</linearGradient>
<linearGradient id="paint8_linear" x1="21.977" y1="52.3155" x2="22.2973" y2="64.0597" gradientUnits="userSpaceOnUse">
<stop offset="0.00753769" stop-color="#F2CC40"/>
<stop offset="1" stop-color="#E7B116"/>
</linearGradient>
<linearGradient id="paint9_linear" x1="19.2995" y1="55.7213" x2="19.6198" y2="63.3014" gradientUnits="userSpaceOnUse">
<stop stop-color="#F8E17B"/>
<stop offset="0.5302" stop-color="#F6D856"/>
<stop offset="1" stop-color="#F6D856"/>
</linearGradient>
</defs>
</svg>
