<svg width="103" height="103" fill="none" xmlns="http://www.w3.org/2000/svg"><path d="M51.862 97.927c-25.85 0-46.81-20.95-46.81-46.81 0-25.86 20.96-46.81 46.81-46.81s46.81 20.96 46.81 46.81-20.96 46.81-46.81 46.81Z" fill="url(#a)"/><path fill-rule="evenodd" clip-rule="evenodd" d="M97.763 51.117c0 25.35-20.55 45.9-45.9 45.9-25.35 0-45.9-20.55-45.9-45.9 0-25.35 20.55-45.9 45.9-45.9 25.35 0 45.9 20.55 45.9 45.9Zm-45.9-49.64c27.42 0 49.64 22.22 49.64 49.64s-22.23 49.64-49.64 49.64c-27.42 0-49.64-22.23-49.64-49.64 0-27.42 22.22-49.64 49.64-49.64Z" fill="#F2F1F0"/><path fill-rule="evenodd" clip-rule="evenodd" d="M94.953 51.117c0 23.8-19.29 43.09-43.09 43.09-23.8 0-43.09-19.29-43.09-43.09 0-23.8 19.29-43.09 43.09-43.09 23.8 0 43.09 19.29 43.09 43.09Zm-43.09-46.83c25.86 0 46.83 20.97 46.83 46.83s-20.97 46.83-46.83 46.83-46.83-20.97-46.83-46.83 20.96-46.83 46.83-46.83Z" fill="url(#b)"/><path opacity=".15" d="m74.008 22.27-43.8-.36c-.95-.01-1.72.75-1.72 1.7l-.47 57.16c-.01.95.75 1.72 1.7 1.72l43.8.36c.95.01 1.72-.75 1.72-1.7l.47-57.16c-.01-.94-.77-1.71-1.7-1.72Z" fill="#1F1D20"/><path d="m74.018 20.46-43.8-.36c-.95-.01-1.72.75-1.72 1.7l-.48 57.15c-.01.95.75 1.72 1.7 1.72l43.8.36c.95.01 1.72-.75 1.72-1.7l.47-57.16c0-.93-.75-1.7-1.69-1.71Z" fill="#F2F2F2"/><path fill-rule="evenodd" clip-rule="evenodd" d="M54.408 13.82c1.24.67 1.96 2 1.95 3.4v.34c0 .13-.01.24-.02.37l2.69.02c.8.01 1.55.41 1.95 1.11 1.12 1.99-.3 4.01-2.17 3.99l-13.58-.1c-.8-.01-1.55-.41-1.95-1.11-1.12-1.99.3-4.01 2.17-3.99l2.5.02c-.01-.12-.01-.24-.01-.37v-.11c.04-3.04 3.27-5.29 6.47-3.57Z" fill="#243A5E"/><path d="M52.128 19.39c.96.01 1.74-.76 1.75-1.72.01-.96-.76-1.74-1.72-1.75-.96-.01-1.74.76-1.75 1.72 0 .96.76 1.74 1.72 1.75Z" fill="#F2F2F2"/><path d="M61.062 56.584H52.38v-25.97c0-.934.76-1.693 1.694-1.693h6.988c.934 0 1.693.759 1.693 1.693v24.277c0 .934-.759 1.693-1.693 1.693Z" fill="url(#c)"/><path d="M55.44 56.584h-8.9V37.458c0-.813.663-1.475 1.476-1.475h7.42c.814 0 1.476.662 1.476 1.475v17.647a1.472 1.472 0 0 1-1.472 1.48Z" fill="url(#d)"/><path d="M49.422 56.584h-6.529a1.922 1.922 0 0 1-1.923-1.923v-9.978c0-1.062.86-1.923 1.923-1.923h6.533c1.063 0 1.923.86 1.923 1.923v9.978a1.928 1.928 0 0 1-1.927 1.923Z" fill="url(#e)"/><path d="M57.078 63.02a.982.982 0 0 0-.984-.984H44.286a.982.982 0 0 0-.983.984c0 .544.439.983.983.983h11.817a.98.98 0 0 0 .975-.983Z" fill="url(#f)"/><path d="M60.423 63.02a.982.982 0 0 0-.984-.984h-3.213c-.544 0-.193.44-.193.984s-.343.983.193.983h3.222a.991.991 0 0 0 .975-.983Z" fill="#9B9BA0"/><path d="M54.637 63.02c0 1.079.87 1.957 1.958 1.957 1.089 0 1.958-.87 1.958-1.958 0-1.08-.887-1.958-1.967-1.958-1.071.018-1.949.878-1.949 1.958Z" fill="#50E6FF"/><path d="M53.452 67.962a.982.982 0 0 0-.984-.983h-8.182a.982.982 0 0 0-.983.983c0 .544.439.983.983.983h8.2a.978.978 0 0 0 .966-.983Z" fill="url(#g)"/><path d="M60.423 67.962a.982.982 0 0 0-.984-.983h-6.374a.982.982 0 0 0-.983.983c0 .544.439.983.983.983h6.383a.991.991 0 0 0 .975-.983Z" fill="#9B9BA0"/><path d="M50.361 67.962c0 1.08.87 1.958 1.958 1.958 1.089 0 1.958-.87 1.958-1.958 0-1.08-.87-1.958-1.958-1.958a1.954 1.954 0 0 0-1.958 1.958Z" fill="#35AFE4"/><path d="M48.895 73.203a.982.982 0 0 0-.983-.983h-3.626a.987.987 0 0 0-.983.983c0 .545.439.984.983.984h3.626c.544-.018.983-.448.983-.984Z" fill="url(#h)"/><path d="M60.423 73.203a.982.982 0 0 0-.984-.983H48.878a.982.982 0 0 0-.984.983c0 .545.44.984.984.984h10.561c.536-.018.984-.448.984-.984Z" fill="#9B9BA0"/><path d="M46.331 73.204c0 1.08.87 1.958 1.958 1.958 1.08 0 1.958-.87 1.958-1.958 0-1.08-.869-1.958-1.958-1.958a1.954 1.954 0 0 0-1.958 1.958Z" fill="#2E76BC"/><defs><linearGradient id="a" x1="50.089" y1="-13.673" x2="54.071" y2="132.098" gradientUnits="userSpaceOnUse"><stop stop-color="#00ABDE"/><stop offset="1" stop-color="#007ED8"/></linearGradient><linearGradient id="b" x1="3.293" y1="-20.506" x2="98.82" y2="120.376" gradientUnits="userSpaceOnUse"><stop stop-color="#007ED8"/><stop offset=".707" stop-color="#002D4C"/></linearGradient><linearGradient id="c" x1="57.452" y1="31.451" x2="57.673" y2="54.404" gradientUnits="userSpaceOnUse"><stop offset=".008" stop-color="#E0A310"/><stop offset="1" stop-color="#CA810E"/></linearGradient><linearGradient id="d" x1="51.45" y1="36.786" x2="52.112" y2="61.063" gradientUnits="userSpaceOnUse"><stop offset=".008" stop-color="#F2CC40"/><stop offset="1" stop-color="#E7B116"/></linearGradient><linearGradient id="e" x1="45.91" y1="43.824" x2="46.572" y2="59.494" gradientUnits="userSpaceOnUse"><stop stop-color="#F8E17B"/><stop offset=".53" stop-color="#F6D856"/><stop offset="1" stop-color="#F6D856"/></linearGradient><linearGradient id="f" x1="49.796" y1="61.91" x2="57.873" y2="84.683" gradientUnits="userSpaceOnUse"><stop stop-color="#15548F"/><stop offset=".418" stop-color="#243A5E"/><stop offset=".968" stop-color="#1A2C45"/></linearGradient><linearGradient id="g" x1="47.022" y1="64.145" x2="53.44" y2="82.243" gradientUnits="userSpaceOnUse"><stop stop-color="#15548F"/><stop offset=".418" stop-color="#243A5E"/><stop offset=".968" stop-color="#1A2C45"/></linearGradient><linearGradient id="h" x1="44.44" y1="68.519" x2="48.776" y2="80.743" gradientUnits="userSpaceOnUse"><stop stop-color="#15548F"/><stop offset=".418" stop-color="#243A5E"/><stop offset=".968" stop-color="#1A2C45"/></linearGradient></defs></svg>