<svg width="103" height="103" viewBox="0 0 103 103" fill="none" xmlns="http://www.w3.org/2000/svg">
<path d="M51.4765 98.7972C25.6265 98.7972 4.6665 77.8472 4.6665 51.9872C4.6665 26.1272 25.6265 5.17725 51.4765 5.17725C77.3265 5.17725 98.2865 26.1372 98.2865 51.9872C98.2865 77.8372 77.3265 98.7972 51.4765 98.7972Z" fill="url(#paint0_linear_46_17782)"/>
<path fill-rule="evenodd" clip-rule="evenodd" d="M97.3764 51.9872C97.3764 77.3372 76.8264 97.8872 51.4764 97.8872C26.1264 97.8872 5.57643 77.3372 5.57643 51.9872C5.57643 26.6372 26.1264 6.08717 51.4764 6.08717C76.8264 6.08717 97.3764 26.6372 97.3764 51.9872ZM51.4764 2.34717C78.8964 2.34717 101.116 24.5672 101.116 51.9872C101.116 79.4072 78.8864 101.627 51.4764 101.627C24.0564 101.627 1.83643 79.3972 1.83643 51.9872C1.83643 24.5672 24.0564 2.34717 51.4764 2.34717Z" fill="#F2F1F0"/>
<path fill-rule="evenodd" clip-rule="evenodd" d="M94.5665 51.9872C94.5665 75.7872 75.2765 95.0772 51.4765 95.0772C27.6765 95.0772 8.38648 75.7872 8.38648 51.9872C8.38648 28.1872 27.6765 8.89723 51.4765 8.89723C75.2765 8.89723 94.5665 28.1872 94.5665 51.9872ZM51.4765 5.15723C77.3365 5.15723 98.3065 26.1272 98.3065 51.9872C98.3065 77.8472 77.3365 98.8172 51.4765 98.8172C25.6165 98.8172 4.64648 77.8472 4.64648 51.9872C4.64648 26.1272 25.6065 5.15723 51.4765 5.15723Z" fill="url(#paint1_linear_46_17782)"/>
<path opacity="0.15" d="M85.5247 31.0669H76.0847C75.8084 31.0669 75.5435 31.1767 75.3481 31.3721C75.1528 31.5674 75.043 31.8323 75.043 32.1086V37.8821C75.043 38.1584 75.1528 38.4233 75.3481 38.6187C75.5435 38.814 75.8084 38.9239 76.0847 38.9239H85.5247C85.6621 38.926 85.7979 38.9005 85.9253 38.8489C86.0527 38.7974 86.1688 38.721 86.266 38.6238C86.3631 38.5266 86.4399 38.4109 86.4915 38.2835C86.5431 38.1562 86.5686 38.0195 86.5664 37.8821V32.1248C86.5675 31.9869 86.5409 31.8504 86.4891 31.7226C86.4373 31.5948 86.3611 31.4782 86.2644 31.38C86.1676 31.2817 86.0522 31.2038 85.9253 31.1501C85.7983 31.0964 85.6626 31.068 85.5247 31.0669Z" fill="#1F1D20"/>
<path opacity="0.15" d="M85.5247 50.2856H76.0847C75.8084 50.2856 75.5435 50.3951 75.3481 50.5904C75.1528 50.7858 75.043 51.0507 75.043 51.327V57.1092C75.043 57.3854 75.1528 57.6504 75.3481 57.8457C75.5435 58.0411 75.8084 58.1509 76.0847 58.1509H85.5247C85.6618 58.152 85.7976 58.1256 85.9245 58.0736C86.0514 58.0216 86.1666 57.945 86.2636 57.8481C86.3605 57.7511 86.4372 57.6359 86.4891 57.509C86.5411 57.3821 86.5675 57.2463 86.5664 57.1092V51.3431C86.5664 51.0653 86.4569 50.799 86.262 50.6011C86.0671 50.4032 85.8024 50.2899 85.5247 50.2856Z" fill="#1F1D20"/>
<path opacity="0.15" d="M85.5247 40.6597H76.0847C75.8084 40.6597 75.5435 40.7695 75.3481 40.9649C75.1528 41.1602 75.043 41.4251 75.043 41.7014V47.4671C75.043 47.7433 75.1528 48.0082 75.3481 48.2036C75.5435 48.3989 75.8084 48.5088 76.0847 48.5088H85.5247C85.6634 48.5132 85.8015 48.4892 85.9308 48.4386C86.0601 48.388 86.1773 48.312 86.2762 48.2146C86.3751 48.1172 86.4531 48.0005 86.5057 47.872C86.5583 47.7435 86.5844 47.6059 86.5822 47.4671V41.6935C86.5779 41.4165 86.4641 41.1522 86.266 40.9586C86.0678 40.765 85.8017 40.6575 85.5247 40.6597Z" fill="#1F1D20"/>
<path opacity="0.15" d="M85.5247 59.8862H76.0847C75.8084 59.8862 75.5435 59.9961 75.3481 60.1914C75.1528 60.3868 75.043 60.6517 75.043 60.9279V66.7098C75.043 66.986 75.1528 67.2509 75.3481 67.4463C75.5435 67.6416 75.8084 67.7515 76.0847 67.7515H85.5247C85.801 67.7515 86.0659 67.6416 86.2612 67.4463C86.4566 67.2509 86.5664 66.986 86.5664 66.7098V60.9358C86.5664 60.6588 86.4563 60.3936 86.2612 60.1969C86.0661 60.0003 85.8017 59.8884 85.5247 59.8862Z" fill="#1F1D20"/>
<g opacity="0.15">
<path opacity="0.15" d="M85.5247 31.0591H76.0847C75.8084 31.0591 75.5435 31.1685 75.3481 31.3639C75.1528 31.5592 75.043 31.8245 75.043 32.1008V37.8822C75.043 38.1585 75.1528 38.4234 75.3481 38.6187C75.5435 38.8141 75.8084 38.9239 76.0847 38.9239H85.5247C85.6618 38.925 85.7976 38.899 85.9245 38.847C86.0514 38.7951 86.1666 38.7181 86.2636 38.6211C86.3605 38.5242 86.4372 38.4089 86.4891 38.282C86.5411 38.1552 86.5675 38.0193 86.5664 37.8822V32.1248C86.5685 31.9863 86.5428 31.8486 86.4915 31.7199C86.4402 31.5912 86.3644 31.474 86.2675 31.3749C86.1707 31.2758 86.0551 31.1969 85.9277 31.1427C85.8002 31.0884 85.6632 31.0601 85.5247 31.0591Z" fill="#1F1D20"/>
<path opacity="0.15" d="M85.5247 50.2856H76.0847C75.8084 50.2856 75.5435 50.3951 75.3481 50.5904C75.1528 50.7858 75.043 51.0507 75.043 51.327V57.1092C75.043 57.3854 75.1528 57.6504 75.3481 57.8457C75.5435 58.0411 75.8084 58.1509 76.0847 58.1509H85.5247C85.801 58.1509 86.0659 58.0411 86.2612 57.8457C86.4566 57.6504 86.5664 57.3854 86.5664 57.1092V51.3431C86.5664 51.0653 86.4569 50.799 86.262 50.6011C86.0671 50.4032 85.8024 50.2899 85.5247 50.2856Z" fill="#1F1D20"/>
<path opacity="0.15" d="M85.5247 40.6602H76.0847C75.8084 40.6602 75.5435 40.77 75.3481 40.9654C75.1528 41.1607 75.043 41.4256 75.043 41.7019V47.4676C75.043 47.7438 75.1528 48.0087 75.3481 48.2041C75.5435 48.3994 75.8084 48.5093 76.0847 48.5093H85.5247C85.6634 48.5137 85.8015 48.4897 85.9308 48.4391C86.0601 48.3885 86.1773 48.3125 86.2762 48.2151C86.3751 48.1177 86.4531 48.001 86.5057 47.8725C86.5583 47.744 86.5844 47.6063 86.5822 47.4676V41.694C86.5779 41.417 86.4641 41.1527 86.266 40.9591C86.0678 40.7654 85.8017 40.658 85.5247 40.6602Z" fill="#1F1D20"/>
<path opacity="0.15" d="M85.5247 59.8867H76.0847C75.8084 59.8867 75.5435 59.9965 75.3481 60.1919C75.1528 60.3872 75.043 60.6522 75.043 60.9284V66.7102C75.043 66.9865 75.1528 67.2514 75.3481 67.4468C75.5435 67.6421 75.8084 67.752 76.0847 67.752H85.5247C85.801 67.752 86.0659 67.6421 86.2612 67.4468C86.4566 67.2514 86.5664 66.9865 86.5664 66.7102V60.9284C86.5643 60.6528 86.4538 60.3892 86.2589 60.1943C86.064 59.9994 85.8003 59.8888 85.5247 59.8867Z" fill="#1F1D20"/>
</g>
<path d="M80.3566 62.4546H67.2993V63.5851H80.3566V62.4546Z" fill="white"/>
<path d="M80.3566 52.9741H67.2993V54.1046H80.3566V52.9741Z" fill="white"/>
<path d="M80.3566 43.4858H67.2993V44.6163H80.3566V43.4858Z" fill="white"/>
<path d="M80.3566 33.9902H67.2993V35.1207H80.3566V33.9902Z" fill="white"/>
<path d="M85.5247 30.3804H76.0847C75.8084 30.3804 75.5435 30.4902 75.3481 30.6855C75.1528 30.8809 75.043 31.1458 75.043 31.4221V37.1956C75.043 37.4719 75.1528 37.7372 75.3481 37.9325C75.5435 38.1279 75.8084 38.2373 76.0847 38.2373H85.5247C85.6621 38.2395 85.7979 38.2144 85.9253 38.1628C86.0527 38.1112 86.1688 38.0344 86.266 37.9373C86.3631 37.8401 86.4399 37.7244 86.4915 37.597C86.5431 37.4696 86.5686 37.333 86.5664 37.1956V31.4221C86.5643 31.1465 86.4538 30.8828 86.2589 30.6879C86.064 30.493 85.8003 30.3825 85.5247 30.3804Z" fill="url(#paint2_linear_46_17782)"/>
<path d="M85.5247 49.5991H76.0847C75.8084 49.5991 75.5435 49.7089 75.3481 49.9043C75.1528 50.0997 75.043 50.3646 75.043 50.6408V56.4223C75.043 56.5591 75.0703 56.6949 75.1226 56.8213C75.175 56.9477 75.2514 57.0621 75.3481 57.1588C75.4449 57.2555 75.5593 57.3328 75.6857 57.3851C75.812 57.4375 75.9479 57.464 76.0847 57.464H85.5247C85.6615 57.464 85.7965 57.4375 85.9229 57.3851C86.0493 57.3328 86.1645 57.2555 86.2612 57.1588C86.358 57.0621 86.4344 56.9477 86.4868 56.8213C86.5391 56.6949 86.5664 56.5591 86.5664 56.4223V50.6972C86.5718 50.5563 86.5483 50.4156 86.4986 50.2836C86.4489 50.1516 86.3733 50.0311 86.2762 49.9287C86.1792 49.8264 86.0631 49.7445 85.934 49.6878C85.8048 49.6312 85.6657 49.6012 85.5247 49.5991Z" fill="url(#paint3_linear_46_17782)"/>
<path d="M85.5247 39.9736H76.0847C75.8084 39.9736 75.5435 40.0831 75.3481 40.2784C75.1528 40.4738 75.043 40.7387 75.043 41.0149V46.7889C75.043 47.0652 75.1528 47.3301 75.3481 47.5254C75.5435 47.7208 75.8084 47.8306 76.0847 47.8306H85.5247C85.6621 47.8328 85.7979 47.8073 85.9253 47.7557C86.0527 47.7041 86.1688 47.6273 86.266 47.5301C86.3631 47.433 86.4399 47.3172 86.4915 47.1899C86.5431 47.0625 86.5686 46.9263 86.5664 46.7889V41.0071C86.5622 40.7328 86.4504 40.4712 86.2557 40.278C86.061 40.0849 85.7989 39.9757 85.5247 39.9736Z" fill="url(#paint4_linear_46_17782)"/>
<path d="M85.5247 59.2002H76.0847C75.9479 59.2002 75.812 59.2267 75.6857 59.2791C75.5593 59.3314 75.4449 59.4087 75.3481 59.5054C75.2514 59.6021 75.175 59.7165 75.1226 59.8429C75.0703 59.9693 75.043 60.1051 75.043 60.2419V66.0395C75.043 66.1763 75.0703 66.3122 75.1226 66.4385C75.175 66.5649 75.2514 66.6793 75.3481 66.7761C75.4449 66.8728 75.5593 66.9492 75.6857 67.0016C75.812 67.0539 75.9479 67.0812 76.0847 67.0812H85.5247C85.6628 67.0834 85.7994 67.0577 85.9277 67.0063C86.0559 66.9549 86.173 66.8785 86.2715 66.7816C86.3699 66.6846 86.4484 66.5691 86.5017 66.4417C86.5551 66.3143 86.5822 66.1777 86.5822 66.0395V60.2656C86.5843 60.1257 86.5588 59.9869 86.5065 59.8571C86.4542 59.7273 86.3763 59.6094 86.2778 59.5101C86.1792 59.4108 86.0618 59.3324 85.9324 59.2791C85.803 59.2258 85.6646 59.1991 85.5247 59.2002Z" fill="url(#paint5_linear_46_17782)"/>
<path opacity="0.15" d="M70.9247 22.5974L27.1247 22.2374C26.1747 22.2274 25.4047 22.9874 25.4047 23.9374L24.9347 81.0974C24.9247 82.0474 25.6847 82.8174 26.6347 82.8174L70.4347 83.1774C71.3847 83.1874 72.1547 82.4274 72.1547 81.4774L72.6247 24.3174C72.6147 23.3774 71.8547 22.6074 70.9247 22.5974Z" fill="#1F1D20"/>
<path d="M70.9347 21.6467L27.1347 21.2867C26.1847 21.2767 25.4147 22.0367 25.4147 22.9867L24.9347 80.1367C24.9247 81.0867 25.6847 81.8567 26.6347 81.8567L70.4347 82.2167C71.3847 82.2267 72.1547 81.4667 72.1547 80.5167L72.6247 23.3567C72.6247 22.4267 71.8747 21.6567 70.9347 21.6467Z" fill="#F2F2F2"/>
<path opacity="0.15" d="M67.8848 23.6069H29.6748V76.8169H67.8848V23.6069Z" fill="#1F1D20"/>
<path d="M67.8848 22.9966H29.6748V76.2066H67.8848V22.9966Z" fill="white"/>
<path fill-rule="evenodd" clip-rule="evenodd" d="M51.0646 15.0065C52.3046 15.6765 53.0246 17.0065 53.0146 18.4065V18.7465C53.0146 18.8765 53.0046 18.9865 52.9946 19.1165L55.6846 19.1365C56.4846 19.1465 57.2346 19.5465 57.6346 20.2465C58.7546 22.2365 57.3346 24.2565 55.4646 24.2365L41.8846 24.1365C41.0846 24.1265 40.3346 23.7265 39.9346 23.0265C38.8146 21.0365 40.2346 19.0165 42.1046 19.0365L44.6046 19.0565C44.5946 18.9365 44.5946 18.8165 44.5946 18.6865V18.5765C44.6346 15.5365 47.8646 13.2865 51.0646 15.0065Z" fill="#243A5E"/>
<path d="M48.7649 20.5765C49.7249 20.5865 50.5049 19.8165 50.5149 18.8565C50.5249 17.8965 49.7549 17.1165 48.7949 17.1065C47.8349 17.0965 47.0549 17.8665 47.0449 18.8265C47.0449 19.7865 47.8049 20.5665 48.7649 20.5765Z" fill="#F2F2F2"/>
<path d="M58.2763 64.4372H48.7388V35.9059C48.7388 34.8794 49.5728 34.0454 50.5992 34.0454H58.2763C59.3028 34.0454 60.1368 34.8794 60.1368 35.9059V62.5767C60.1368 63.6032 59.3028 64.4372 58.2763 64.4372Z" fill="url(#paint6_linear_46_17782)"/>
<path d="M52.1003 64.4372H42.3232V43.4247C42.3232 42.5308 43.0503 41.8037 43.9442 41.8037H52.096C52.9899 41.8037 53.717 42.5308 53.717 43.4247V62.8119C53.7212 63.7101 52.9942 64.4372 52.1003 64.4372Z" fill="url(#paint7_linear_46_17782)"/>
<path d="M45.4883 64.4373H38.3159C37.1483 64.4373 36.2031 63.4921 36.2031 62.3245V51.3628C36.2031 50.1952 37.1483 49.25 38.3159 49.25H45.4926C46.6602 49.25 47.6054 50.1952 47.6054 51.3628V62.3245C47.6011 63.4921 46.6559 64.4373 45.4883 64.4373Z" fill="url(#paint8_linear_46_17782)"/>
<path opacity="0.15" d="M68.016 85.2975C72.151 85.2975 75.5106 81.9482 75.5106 77.803C75.5003 73.6681 72.1406 70.3291 68.016 70.3291C63.8915 70.3291 60.5215 73.6784 60.5215 77.8237C60.5215 81.9586 63.8708 85.2975 68.016 85.2975Z" fill="#1F1D20"/>
<path d="M68.016 84.3263C72.151 84.3263 75.5106 80.9771 75.5106 76.8318C75.5003 72.6969 72.1406 69.3579 68.016 69.3579C63.8915 69.3579 60.5215 72.7072 60.5215 76.8525C60.5215 80.9874 63.8708 84.3263 68.016 84.3263Z" fill="#002D4C"/>
<path d="M68.6051 72.4482H67.375V81.2143H68.6051V72.4482Z" fill="#F2F2F2"/>
<path d="M72.368 76.2837H63.6123V77.5138H72.3784L72.368 76.2837Z" fill="#F2F2F2"/>
<defs>
<linearGradient id="paint0_linear_46_17782" x1="49.7026" y1="-12.8023" x2="53.6846" y2="132.968" gradientUnits="userSpaceOnUse">
<stop stop-color="#00ABDE"/>
<stop offset="1" stop-color="#007ED8"/>
</linearGradient>
<linearGradient id="paint1_linear_46_17782" x1="2.90688" y1="-19.6354" x2="98.4344" y2="121.246" gradientUnits="userSpaceOnUse">
<stop stop-color="#007ED8"/>
<stop offset="0.7065" stop-color="#002D4C"/>
</linearGradient>
<linearGradient id="paint2_linear_46_17782" x1="80.6763" y1="31.099" x2="80.6923" y2="37.6189" gradientUnits="userSpaceOnUse">
<stop offset="0.00753769" stop-color="#E0A310"/>
<stop offset="0.34375" stop-color="#D18F09"/>
<stop offset="0.848958" stop-color="#BD7400"/>
</linearGradient>
<linearGradient id="paint3_linear_46_17782" x1="80.4986" y1="49.9056" x2="80.5855" y2="59.1798" gradientUnits="userSpaceOnUse">
<stop offset="0.00753769" stop-color="#F2CC40"/>
<stop offset="1" stop-color="#E7B116"/>
</linearGradient>
<linearGradient id="paint4_linear_46_17782" x1="80.6763" y1="40.6923" x2="80.6923" y2="47.2121" gradientUnits="userSpaceOnUse">
<stop offset="0.00753769" stop-color="#E0A310"/>
<stop offset="1" stop-color="#CA810E"/>
</linearGradient>
<linearGradient id="paint5_linear_46_17782" x1="80.5348" y1="59.8069" x2="80.7286" y2="68.7522" gradientUnits="userSpaceOnUse">
<stop stop-color="#F8E17B"/>
<stop offset="0.5302" stop-color="#F6D856"/>
<stop offset="1" stop-color="#F6D856"/>
</linearGradient>
<linearGradient id="paint6_linear_46_17782" x1="54.3107" y1="36.8252" x2="54.5532" y2="62.0423" gradientUnits="userSpaceOnUse">
<stop offset="0.00753769" stop-color="#E0A310"/>
<stop offset="1" stop-color="#CA810E"/>
</linearGradient>
<linearGradient id="paint7_linear_46_17782" x1="47.7171" y1="42.6857" x2="48.4445" y2="69.3575" gradientUnits="userSpaceOnUse">
<stop offset="0.00753769" stop-color="#F2CC40"/>
<stop offset="1" stop-color="#E7B116"/>
</linearGradient>
<linearGradient id="paint8_linear_46_17782" x1="41.6297" y1="50.4191" x2="42.3571" y2="67.6345" gradientUnits="userSpaceOnUse">
<stop stop-color="#F8E17B"/>
<stop offset="0.5302" stop-color="#F6D856"/>
<stop offset="1" stop-color="#F6D856"/>
</linearGradient>
</defs>
</svg>
