<svg width="102" height="103" viewBox="0 0 102 103" fill="none" xmlns="http://www.w3.org/2000/svg">
<path d="M50.9999 98.4281C25.1499 98.4281 4.18994 77.4781 4.18994 51.6181C4.18994 25.7581 25.1499 4.80811 50.9999 4.80811C76.8499 4.80811 97.8099 25.7681 97.8099 51.6181C97.8099 77.4681 76.8499 98.4281 50.9999 98.4281Z" fill="url(#paint0_linear)"/>
<path fill-rule="evenodd" clip-rule="evenodd" d="M96.9001 51.618C96.9001 76.968 76.3501 97.518 51.0001 97.518C25.6501 97.518 5.10011 76.968 5.10011 51.618C5.10011 26.268 25.6501 5.71803 51.0001 5.71803C76.3501 5.71803 96.9001 26.268 96.9001 51.618ZM51.0001 1.97803C78.4201 1.97803 100.64 24.198 100.64 51.618C100.64 79.038 78.4101 101.258 51.0001 101.258C23.5801 101.258 1.36011 79.028 1.36011 51.618C1.36011 24.198 23.5801 1.97803 51.0001 1.97803Z" fill="#F2F1F0"/>
<path fill-rule="evenodd" clip-rule="evenodd" d="M94.0899 51.6181C94.0899 75.4181 74.7999 94.7081 50.9999 94.7081C27.1999 94.7081 7.90992 75.4181 7.90992 51.6181C7.90992 27.8181 27.1999 8.52809 50.9999 8.52809C74.7999 8.52809 94.0899 27.8181 94.0899 51.6181ZM50.9999 4.78809C76.8599 4.78809 97.8299 25.7581 97.8299 51.6181C97.8299 77.4781 76.8599 98.4481 50.9999 98.4481C25.1399 98.4481 4.16992 77.4781 4.16992 51.6181C4.16992 25.7581 25.1299 4.78809 50.9999 4.78809Z" fill="url(#paint1_linear)"/>
<path opacity="0.15" d="M72.7 21.9082L28.1 21.5382C27.13 21.5282 26.35 22.2982 26.35 23.2682L25.87 81.4682C25.86 82.4382 26.63 83.2182 27.6 83.2182L72.2 83.5882C73.17 83.5982 73.95 82.8282 73.95 81.8582L74.43 23.6582C74.42 22.7082 73.64 21.9182 72.7 21.9082Z" fill="#1F1D20"/>
<path d="M72.71 20.0683L28.11 19.6983C27.14 19.6883 26.36 20.4583 26.36 21.4283L25.87 79.6183C25.86 80.5883 26.63 81.3683 27.6 81.3683L72.2 81.7383C73.17 81.7483 73.95 80.9783 73.95 80.0083L74.43 21.8083C74.43 20.8683 73.66 20.0783 72.71 20.0683Z" fill="#F2F2F2"/>
<path fill-rule="evenodd" clip-rule="evenodd" d="M52.7401 13.3082C54.0001 13.9882 54.7401 15.3482 54.7301 16.7682V17.1182C54.7301 17.2482 54.7201 17.3582 54.7101 17.4982L57.4501 17.5182C58.2601 17.5282 59.0301 17.9382 59.4401 18.6482C60.5801 20.6782 59.1301 22.7282 57.2301 22.7082L43.4001 22.6082C42.5901 22.5982 41.8201 22.1882 41.4101 21.4782C40.2701 19.4482 41.7201 17.3982 43.6201 17.4182L46.1701 17.4382C46.1601 17.3182 46.1601 17.1982 46.1601 17.0582V16.9482C46.1901 13.8482 49.4801 11.5582 52.7401 13.3082Z" fill="#243A5E"/>
<path d="M50.4199 18.9783C51.3999 18.9883 52.1899 18.2083 52.1999 17.2283C52.2099 16.2483 51.4299 15.4583 50.4499 15.4483C49.4699 15.4383 48.6799 16.2183 48.6699 17.1983C48.6699 18.1783 49.4399 18.9683 50.4199 18.9783Z" fill="#F2F2F2"/>
<g opacity="0.15">
<path opacity="0.15" d="M81.17 74.2981L64.73 57.8681C67.11 54.7681 68.53 50.8981 68.53 46.6881C68.53 36.5281 60.28 28.3081 50.14 28.3081C40 28.3081 31.76 36.5381 31.76 46.6881C31.76 56.8381 39.97 65.0681 50.13 65.0681C54.2 65.0681 57.96 63.7481 61.02 61.5081L77.48 77.9681C77.48 77.9681 78.92 78.5281 80.43 76.9381C81.96 75.3481 81.17 74.2981 81.17 74.2981ZM34.49 46.7481C34.49 38.1381 41.47 31.1481 50.09 31.1481C58.71 31.1481 65.69 38.1281 65.69 46.7481C65.69 55.3681 58.69 62.3481 50.08 62.3481C41.47 62.3481 34.49 55.3581 34.49 46.7481Z" fill="#1F1D20"/>
</g>
<path d="M80.7799 77.1082L64.3499 60.6782C66.7299 57.5782 68.1499 53.7082 68.1499 49.4982C68.1499 39.3382 59.8999 31.1182 49.7599 31.1182C39.6199 31.1182 31.3799 39.3482 31.3799 49.4982C31.3799 59.6482 39.6099 67.8782 49.7599 67.8782C53.8299 67.8782 57.5899 66.5582 60.6499 64.3182L77.1099 80.7782C77.1099 80.7782 78.5499 81.3382 80.0599 79.7482C81.5899 78.1582 80.7799 77.1082 80.7799 77.1082ZM34.1099 49.5582C34.1099 40.9482 41.0899 33.9582 49.7099 33.9582C58.3299 33.9582 65.3099 40.9382 65.3099 49.5582C65.3099 58.1782 58.3099 65.1582 49.6999 65.1582C41.0899 65.1582 34.1099 58.1682 34.1099 49.5582Z" fill="#243A5E"/>
<path d="M56.41 59.9582H49.73V39.9782C49.73 39.2582 50.31 38.6782 51.03 38.6782H56.4C57.12 38.6782 57.7 39.2582 57.7 39.9782V58.6482C57.71 59.3782 57.12 59.9582 56.41 59.9582Z" fill="url(#paint2_linear)"/>
<path d="M52.08 59.9582H45.23V45.2482C45.23 44.6182 45.74 44.1182 46.36 44.1182H52.07C52.7 44.1182 53.2 44.6282 53.2 45.2482V58.8182C53.22 59.4482 52.71 59.9582 52.08 59.9582Z" fill="url(#paint3_linear)"/>
<path d="M47.45 59.9581H42.43C41.61 59.9581 40.95 59.2981 40.95 58.4781V50.8081C40.95 49.9881 41.61 49.3281 42.43 49.3281H47.45C48.27 49.3281 48.93 49.9881 48.93 50.8081V58.4781C48.93 59.2981 48.27 59.9581 47.45 59.9581Z" fill="url(#paint4_linear)"/>
<defs>
<linearGradient id="paint0_linear" x1="49.23" y1="-13.1717" x2="53.212" y2="132.598" gradientUnits="userSpaceOnUse">
<stop stop-color="#00ABDE"/>
<stop offset="1" stop-color="#007ED8"/>
</linearGradient>
<linearGradient id="paint1_linear" x1="2.43262" y1="-20.0064" x2="97.9596" y2="120.875" gradientUnits="userSpaceOnUse">
<stop stop-color="#007ED8"/>
<stop offset="0.7065" stop-color="#002D4C"/>
</linearGradient>
<linearGradient id="paint2_linear" x1="53.6281" y1="40.6255" x2="53.7978" y2="58.2808" gradientUnits="userSpaceOnUse">
<stop offset="0.00753769" stop-color="#E0A310"/>
<stop offset="1" stop-color="#CA810E"/>
</linearGradient>
<linearGradient id="paint3_linear" x1="49.0098" y1="44.7288" x2="49.5191" y2="63.4026" gradientUnits="userSpaceOnUse">
<stop offset="0.00753769" stop-color="#F2CC40"/>
<stop offset="1" stop-color="#E7B116"/>
</linearGradient>
<linearGradient id="paint4_linear" x1="44.7526" y1="50.1428" x2="45.2619" y2="62.1957" gradientUnits="userSpaceOnUse">
<stop stop-color="#F8E17B"/>
<stop offset="0.5302" stop-color="#F6D856"/>
<stop offset="1" stop-color="#F6D856"/>
</linearGradient>
</defs>
</svg>
