<svg width="102" height="103" viewBox="0 0 102 103" fill="none" xmlns="http://www.w3.org/2000/svg">
<path d="M50.9999 98.0643C25.1499 98.0643 4.18994 77.1143 4.18994 51.2543C4.18994 25.3943 25.1499 4.44434 50.9999 4.44434C76.8499 4.44434 97.8099 25.4043 97.8099 51.2543C97.8099 77.1043 76.8499 98.0643 50.9999 98.0643Z" fill="url(#paint0_linear)"/>
<path fill-rule="evenodd" clip-rule="evenodd" d="M96.9001 51.2544C96.9001 76.6044 76.3501 97.1544 51.0001 97.1544C25.6501 97.1544 5.10011 76.6044 5.10011 51.2544C5.10011 25.9044 25.6501 5.35438 51.0001 5.35438C76.3501 5.35438 96.9001 25.9044 96.9001 51.2544ZM51.0001 1.61438C78.4201 1.61438 100.64 23.8344 100.64 51.2544C100.64 78.6744 78.4101 100.894 51.0001 100.894C23.5801 100.894 1.36011 78.6644 1.36011 51.2544C1.36011 23.8344 23.5801 1.61438 51.0001 1.61438Z" fill="#F2F1F0"/>
<path fill-rule="evenodd" clip-rule="evenodd" d="M94.0899 51.2544C94.0899 75.0544 74.7999 94.3444 50.9999 94.3444C27.1999 94.3444 7.90992 75.0544 7.90992 51.2544C7.90992 27.4544 27.1999 8.16444 50.9999 8.16444C74.7999 8.16444 94.0899 27.4544 94.0899 51.2544ZM50.9999 4.42444C76.8599 4.42444 97.8299 25.3944 97.8299 51.2544C97.8299 77.1144 76.8599 98.0844 50.9999 98.0844C25.1399 98.0844 4.16992 77.1144 4.16992 51.2544C4.16992 25.3944 25.1299 4.42444 50.9999 4.42444Z" fill="url(#paint1_linear)"/>
<path opacity="0.15" d="M49.2 28.0745H37.58C36.03 28.0745 34.76 29.3345 34.76 30.8945V39.8245H27.5C26.15 39.8245 25.05 40.9245 25.05 42.2745V51.0945H18.99C17.22 51.0945 15.79 52.5245 15.79 54.2945V70.8845C15.79 72.6545 17.22 74.0845 18.99 74.0845H25.05H34.76H39.85H49.2C50.75 74.0845 52.02 72.8245 52.02 71.2645V30.8945C52.02 29.3345 50.76 28.0745 49.2 28.0745Z" fill="#1F1D20"/>
<path fill-rule="evenodd" clip-rule="evenodd" d="M46.4539 52.0617L62.3639 42.4917L62.7762 43.1772L46.8662 52.7472L46.4539 52.0617Z" fill="white"/>
<path fill-rule="evenodd" clip-rule="evenodd" d="M46.8539 46.3804L62.9839 55.9404L62.576 56.6286L46.446 47.0686L46.8539 46.3804Z" fill="white"/>
<path fill-rule="evenodd" clip-rule="evenodd" d="M49.4673 40.645L61.9373 25.005L62.5628 25.5037L50.0928 41.1437L49.4673 40.645Z" fill="white"/>
<path fill-rule="evenodd" clip-rule="evenodd" d="M49.7724 59.0525L62.9324 74.2425L62.3277 74.7663L49.1677 59.5763L49.7724 59.0525Z" fill="white"/>
<path d="M49.2 72.0845H34.77V28.9045C34.77 27.3545 36.03 26.0845 37.59 26.0845H49.2C50.75 26.0845 52.02 27.3445 52.02 28.9045V69.2745C52.02 70.8245 50.76 72.0845 49.2 72.0845Z" fill="url(#paint2_linear)"/>
<path d="M39.85 72.0845H25.05V40.2845C25.05 38.9345 26.15 37.8345 27.5 37.8345H39.84C41.19 37.8345 42.2901 38.9345 42.2901 40.2845V69.6245C42.3101 70.9845 41.21 72.0845 39.85 72.0845Z" fill="url(#paint3_linear)"/>
<path d="M29.85 72.0845H18.99C17.22 72.0845 15.79 70.6545 15.79 68.8845V52.3045C15.79 50.5345 17.22 49.1045 18.99 49.1045H29.85C31.62 49.1045 33.05 50.5345 33.05 52.3045V68.8945C33.04 70.6545 31.61 72.0845 29.85 72.0845Z" fill="url(#paint4_linear)"/>
<path opacity="0.15" d="M82.3599 27.2644H61.9199V39.2444C61.9199 39.6144 62.2099 39.8944 62.5699 39.8944H81.7099C82.0799 39.8944 82.3599 39.6044 82.3599 39.2444V27.2644V27.2644Z" fill="#1F1D20"/>
<path d="M82.3599 26.4744H61.9199V38.4544C61.9199 38.8244 62.2099 39.1044 62.5699 39.1044H81.7099C82.0799 39.1044 82.3599 38.8144 82.3599 38.4544V26.4744V26.4744Z" fill="#FFF2BD"/>
<path d="M81.6799 24.7144H62.6199C62.2399 24.7144 61.9299 25.0244 61.9299 25.4044V26.9044H82.3799V25.4044C82.3599 25.0244 82.0599 24.7144 81.6799 24.7144Z" fill="white"/>
<path opacity="0.15" d="M82.66 44.8542H62.21V56.8343C62.21 57.2043 62.5 57.4842 62.86 57.4842H82C82.37 57.4842 82.65 57.1943 82.65 56.8343V44.8542H82.66Z" fill="#1F1D20"/>
<path d="M82.66 44.0845H62.21V56.0645C62.21 56.4345 62.5 56.7145 62.86 56.7145H82C82.37 56.7145 82.65 56.4245 82.65 56.0645V44.0845H82.66Z" fill="#FFF2BD"/>
<path d="M81.97 42.3145H62.9C62.52 42.3145 62.21 42.6245 62.21 43.0045V44.5045H82.66V43.0045C82.66 42.6345 82.35 42.3145 81.97 42.3145Z" fill="white"/>
<path opacity="0.15" d="M82.66 63.0044H62.21V74.9844C62.21 75.3544 62.5 75.6344 62.86 75.6344H82C82.37 75.6344 82.65 75.3444 82.65 74.9844V63.0044H82.66Z" fill="#1F1D20"/>
<path d="M82.66 62.2244H62.21V74.2044C62.21 74.5744 62.5 74.8544 62.86 74.8544H82C82.37 74.8544 82.65 74.5644 82.65 74.2044V62.2244H82.66Z" fill="#FFF2BD"/>
<path d="M81.97 60.4543H62.9C62.52 60.4543 62.21 60.7643 62.21 61.1443V62.6443H82.66V61.1443C82.66 60.7743 82.35 60.4543 81.97 60.4543Z" fill="white"/>
<path d="M69.27 45.3343L73.85 47.9743V53.2843L69.29 55.9343L64.69 53.2543L64.71 47.9843L69.27 45.3343ZM69.27 45.1143C69.23 45.1143 69.2 45.1243 69.15 45.1443L64.59 47.7843C64.53 47.8243 64.48 47.9043 64.48 47.9743L64.46 53.2443C64.46 53.3143 64.5 53.3943 64.57 53.4343L69.16 56.1143C69.2 56.1343 69.23 56.1443 69.28 56.1443C69.32 56.1443 69.35 56.1343 69.4 56.1143L73.96 53.4643C74.02 53.4243 74.07 53.3443 74.07 53.2743V47.9643C74.07 47.8943 74.03 47.8143 73.95 47.7743L69.37 45.1343C69.34 45.1243 69.3 45.1143 69.27 45.1143Z" fill="white"/>
<path opacity="0.15" d="M73.27 53.0143L69.28 55.3343L65.27 53.0143L69.26 50.6943L73.27 53.0143Z" fill="#1F1D20"/>
<path d="M73.27 52.8945L69.28 55.2145L65.27 52.8945L69.26 50.5745L73.27 52.8945Z" fill="url(#paint5_linear)"/>
<path opacity="0.15" d="M72.4299 52.4145L69.2999 54.2345L66.1499 52.4145L69.2799 50.5845L72.4299 52.4145Z" fill="#1F1D20"/>
<path d="M73.27 51.5944L69.28 53.9144L65.27 51.5944L69.26 49.2744L73.27 51.5944Z" fill="url(#paint6_linear)"/>
<path opacity="0.15" d="M72.3699 51.0644L69.2899 52.8544L66.1899 51.0644L69.2699 49.2744L72.3699 51.0644Z" fill="#1F1D20"/>
<path d="M73.27 50.0744L69.28 52.3944L65.27 50.0744L69.26 47.7544L73.27 50.0744Z" fill="url(#paint7_linear)"/>
<path opacity="0.15" d="M72.2198 49.4544L69.2898 51.1544L66.3398 49.4544L69.2698 47.7544L72.2198 49.4544Z" fill="#1F1D20"/>
<path d="M73.27 48.4343L69.28 50.7543L65.27 48.4343L69.26 46.1143L73.27 48.4343Z" fill="white"/>
<path d="M72.9499 37.5244H77.8299C78.1299 37.5244 78.3699 37.2844 78.3699 36.9844V34.0044C78.3699 33.7144 78.1299 33.4644 77.8299 33.4644H72.9499C72.6599 33.4644 72.4099 33.6944 72.4099 33.9944V36.9744C72.4299 37.2844 72.6699 37.5244 72.9499 37.5244Z" fill="url(#paint8_linear)"/>
<path d="M66.25 37.5244H71.13C71.42 37.5244 71.67 37.2844 71.67 36.9844V34.0044C71.67 33.7144 71.43 33.4644 71.13 33.4644H66.25C65.96 33.4644 65.71 33.7044 65.71 34.0044V36.9844C65.71 37.2844 65.95 37.5244 66.25 37.5244Z" fill="url(#paint9_linear)"/>
<path d="M72.9499 32.5544H77.8299C78.1299 32.5544 78.3699 32.3144 78.3699 32.0144V29.0344C78.3699 28.7444 78.1299 28.4944 77.8299 28.4944H72.9499C72.6599 28.4944 72.4099 28.7244 72.4099 29.0344V32.0144C72.4299 32.3144 72.6699 32.5544 72.9499 32.5544Z" fill="url(#paint10_linear)"/>
<path d="M66.25 32.5544H71.13C71.42 32.5544 71.67 32.3144 71.67 32.0144V29.0244C71.67 28.7344 71.43 28.4844 71.13 28.4844H66.25C65.96 28.4844 65.71 28.7244 65.71 29.0244V32.0044C65.71 32.3144 65.95 32.5544 66.25 32.5544Z" fill="url(#paint11_linear)"/>
<path opacity="0.2" d="M73.05 71.2444L69.3 73.4544L65.48 71.2344L69.3 69.0144L73.05 71.2444Z" fill="#1F1D21"/>
<path d="M69.3 68.4143V72.8243L65.48 70.6043V66.1943L69.3 68.4143Z" fill="url(#paint12_linear)"/>
<path d="M69.2998 68.4143L73.0498 66.1943V70.6043L69.2998 72.8243V68.4143Z" fill="url(#paint13_linear)"/>
<path d="M65.47 66.2044L69.2 63.9844L73.04 66.2044L69.29 68.4244L65.47 66.2044Z" fill="white"/>
<path d="M68.75 68.0943L72.48 65.8743L73.05 66.1943L69.3 68.4143L68.75 68.0943Z" fill="url(#paint14_linear)"/>
<path d="M65.47 66.2244L69.22 64.0044L69.8 64.3244L66.06 66.5444L65.47 66.2244Z" fill="url(#paint15_linear)"/>
<path d="M69.3 68.3642V72.8342L68.74 72.5042V68.0942L69.3 68.3642Z" fill="url(#paint16_linear)"/>
<path d="M66.04 66.4743L66.02 70.8243L65.47 70.6043V66.1943L66.04 66.4743Z" fill="url(#paint17_linear)"/>
<path d="M69.8798 68.0942V72.3842L69.2998 72.8342V68.3642L69.8798 68.0942Z" fill="url(#paint18_linear)"/>
<path d="M73.04 66.2043V70.6143L72.5 70.9444L72.48 66.4743L73.04 66.2043Z" fill="url(#paint19_linear)"/>
<path d="M69.3 72.2144V72.8244L65.48 70.6044V69.9944L69.3 72.2144Z" fill="url(#paint20_linear)"/>
<path d="M69.3 68.4143V69.0243L65.48 66.8043V66.1943L69.3 68.4143Z" fill="url(#paint21_linear)"/>
<path d="M73.04 69.9844V70.5944L69.29 72.8144V72.2044L73.04 69.9844Z" fill="url(#paint22_linear)"/>
<path d="M65.47 66.2043L66.05 65.8943L69.9 68.1143L69.29 68.4243L65.47 66.2043Z" fill="url(#paint23_linear)"/>
<path d="M68.78 64.3844L69.23 64.0044L73.05 66.2244L72.49 66.5344L68.78 64.3844Z" fill="url(#paint24_linear)"/>
<path d="M73.04 66.1943V66.8043L69.29 69.0343V68.4243L73.04 66.1943Z" fill="url(#paint25_linear)"/>
<path d="M79.4998 66.8743H75.3898C75.2098 66.8743 75.0598 67.0243 75.0598 67.2043C75.0598 67.3843 75.2098 67.5343 75.3898 67.5343H79.4998C79.6798 67.5343 79.8298 67.3843 79.8298 67.2043C79.8298 67.0343 79.6698 66.8743 79.4998 66.8743Z" fill="url(#paint26_linear)"/>
<path d="M79.4998 68.2744H75.3898C75.2098 68.2744 75.0598 68.4244 75.0598 68.6044C75.0598 68.7844 75.2098 68.9344 75.3898 68.9344H79.4998C79.6798 68.9344 79.8298 68.7844 79.8298 68.6044C79.8298 68.4244 79.6698 68.2744 79.4998 68.2744Z" fill="url(#paint27_linear)"/>
<path fill-rule="evenodd" clip-rule="evenodd" d="M75.3898 69.7944H77.4398C77.6198 69.7944 77.7698 69.9444 77.7698 70.1244C77.7698 70.3044 77.6198 70.4544 77.4398 70.4544H75.3898C75.2098 70.4544 75.0598 70.3044 75.0598 70.1244C75.0698 69.9544 75.2098 69.7944 75.3898 69.7944Z" fill="url(#paint28_linear)"/>
<path d="M79.4998 48.0645H75.3898C75.2098 48.0645 75.0598 48.2145 75.0598 48.3945C75.0598 48.5745 75.2098 48.7245 75.3898 48.7245H79.4998C79.6798 48.7245 79.8298 48.5745 79.8298 48.3945C79.8298 48.1945 79.6698 48.0645 79.4998 48.0645Z" fill="url(#paint29_linear)"/>
<path d="M79.4998 49.4644H75.3898C75.2098 49.4644 75.0598 49.6144 75.0598 49.7944C75.0598 49.9744 75.2098 50.1244 75.3898 50.1244H79.4998C79.6798 50.1244 79.8298 49.9744 79.8298 49.7944C79.8298 49.6044 79.6698 49.4644 79.4998 49.4644Z" fill="url(#paint30_linear)"/>
<path fill-rule="evenodd" clip-rule="evenodd" d="M75.3898 50.9844H77.4398C77.6198 50.9844 77.7698 51.1344 77.7698 51.3144C77.7698 51.4944 77.6198 51.6444 77.4398 51.6444H75.3898C75.2098 51.6444 75.0598 51.4944 75.0598 51.3144C75.0698 51.1244 75.2098 50.9844 75.3898 50.9844Z" fill="url(#paint31_linear)"/>
<defs>
<linearGradient id="paint0_linear" x1="49.23" y1="-13.5352" x2="53.212" y2="132.235" gradientUnits="userSpaceOnUse">
<stop stop-color="#00ABDE"/>
<stop offset="1" stop-color="#007ED8"/>
</linearGradient>
<linearGradient id="paint1_linear" x1="2.43262" y1="-20.3701" x2="97.9596" y2="120.511" gradientUnits="userSpaceOnUse">
<stop stop-color="#007ED8"/>
<stop offset="0.7065" stop-color="#002D4C"/>
</linearGradient>
<linearGradient id="paint2_linear" x1="43.1982" y1="30.297" x2="43.5652" y2="68.4645" gradientUnits="userSpaceOnUse">
<stop offset="0.00753769" stop-color="#E0A310"/>
<stop offset="1" stop-color="#CA810E"/>
</linearGradient>
<linearGradient id="paint3_linear" x1="33.2143" y1="39.1671" x2="34.3153" y2="79.5368" gradientUnits="userSpaceOnUse">
<stop offset="0.00753769" stop-color="#F2CC40"/>
<stop offset="1" stop-color="#E7B116"/>
</linearGradient>
<linearGradient id="paint4_linear" x1="24.011" y1="50.8712" x2="25.112" y2="76.9279" gradientUnits="userSpaceOnUse">
<stop stop-color="#F8E17B"/>
<stop offset="0.5302" stop-color="#F6D856"/>
<stop offset="1" stop-color="#F6D856"/>
</linearGradient>
<linearGradient id="paint5_linear" x1="65.2761" y1="52.8985" x2="73.2722" y2="52.8985" gradientUnits="userSpaceOnUse">
<stop offset="0.00753769" stop-color="#E0A310"/>
<stop offset="1" stop-color="#CA810E"/>
</linearGradient>
<linearGradient id="paint6_linear" x1="65.2761" y1="51.5984" x2="73.2722" y2="51.5984" gradientUnits="userSpaceOnUse">
<stop offset="0.00753769" stop-color="#F2CC40"/>
<stop offset="1" stop-color="#E7B116"/>
</linearGradient>
<linearGradient id="paint7_linear" x1="65.2761" y1="50.0758" x2="73.2722" y2="50.0758" gradientUnits="userSpaceOnUse">
<stop stop-color="#F8E17B"/>
<stop offset="0.5302" stop-color="#F6D856"/>
<stop offset="1" stop-color="#F6D856"/>
</linearGradient>
<linearGradient id="paint8_linear" x1="66.3791" y1="27.8655" x2="83.3869" y2="42.2512" gradientUnits="userSpaceOnUse">
<stop offset="0.00753769" stop-color="#F2CC40"/>
<stop offset="1" stop-color="#E7B116"/>
</linearGradient>
<linearGradient id="paint9_linear" x1="63.5812" y1="31.1734" x2="80.5891" y2="45.5593" gradientUnits="userSpaceOnUse">
<stop offset="0.00753769" stop-color="#F2CC40"/>
<stop offset="1" stop-color="#E7B116"/>
</linearGradient>
<linearGradient id="paint10_linear" x1="68.8288" y1="24.9692" x2="85.8367" y2="39.3551" gradientUnits="userSpaceOnUse">
<stop offset="0.00753769" stop-color="#F2CC40"/>
<stop offset="1" stop-color="#E7B116"/>
</linearGradient>
<linearGradient id="paint11_linear" x1="65.7031" y1="30.5197" x2="71.669" y2="30.5197" gradientUnits="userSpaceOnUse">
<stop offset="0.00753769" stop-color="#E0A310"/>
<stop offset="1" stop-color="#CA810E"/>
</linearGradient>
<linearGradient id="paint12_linear" x1="65.4805" y1="69.5138" x2="69.3004" y2="69.5138" gradientUnits="userSpaceOnUse">
<stop stop-color="#F8E17B"/>
<stop offset="0.5302" stop-color="#F6D856"/>
<stop offset="1" stop-color="#F6D856"/>
</linearGradient>
<linearGradient id="paint13_linear" x1="69.3002" y1="69.5138" x2="73.049" y2="69.5138" gradientUnits="userSpaceOnUse">
<stop offset="0.00753769" stop-color="#F2CC40"/>
<stop offset="1" stop-color="#E7B116"/>
</linearGradient>
<linearGradient id="paint14_linear" x1="68.7483" y1="67.1499" x2="73.0491" y2="67.1499" gradientUnits="userSpaceOnUse">
<stop stop-color="#F8E17B"/>
<stop offset="0.5302" stop-color="#F6D856"/>
<stop offset="1" stop-color="#F6D856"/>
</linearGradient>
<linearGradient id="paint15_linear" x1="65.4718" y1="65.2713" x2="69.7993" y2="65.2713" gradientUnits="userSpaceOnUse">
<stop stop-color="#F8E17B"/>
<stop offset="0.5302" stop-color="#F6D856"/>
<stop offset="1" stop-color="#F6D856"/>
</linearGradient>
<linearGradient id="paint16_linear" x1="66.4617" y1="65.4561" x2="70.4302" y2="73.1806" gradientUnits="userSpaceOnUse">
<stop offset="0.00753769" stop-color="#F2CC40"/>
<stop offset="1" stop-color="#E7B116"/>
</linearGradient>
<linearGradient id="paint17_linear" x1="64.6491" y1="66.3874" x2="68.6176" y2="74.1118" gradientUnits="userSpaceOnUse">
<stop offset="0.00753769" stop-color="#F2CC40"/>
<stop offset="1" stop-color="#E7B116"/>
</linearGradient>
<linearGradient id="paint18_linear" x1="67.3955" y1="67.634" x2="72.994" y2="74.8623" gradientUnits="userSpaceOnUse">
<stop offset="0.00753769" stop-color="#E0A310"/>
<stop offset="1" stop-color="#CA810E"/>
</linearGradient>
<linearGradient id="paint19_linear" x1="70.3012" y1="65.3837" x2="75.8996" y2="72.6121" gradientUnits="userSpaceOnUse">
<stop offset="0.00753769" stop-color="#E0A310"/>
<stop offset="1" stop-color="#CA810E"/>
</linearGradient>
<linearGradient id="paint20_linear" x1="64.7762" y1="66.3222" x2="68.7447" y2="74.0467" gradientUnits="userSpaceOnUse">
<stop offset="0.00753769" stop-color="#F2CC40"/>
<stop offset="1" stop-color="#E7B116"/>
</linearGradient>
<linearGradient id="paint21_linear" x1="66.3216" y1="65.5281" x2="70.2901" y2="73.2526" gradientUnits="userSpaceOnUse">
<stop offset="0.00753769" stop-color="#F2CC40"/>
<stop offset="1" stop-color="#E7B116"/>
</linearGradient>
<linearGradient id="paint22_linear" x1="67.9285" y1="67.2215" x2="73.5269" y2="74.4498" gradientUnits="userSpaceOnUse">
<stop offset="0.00753769" stop-color="#E0A310"/>
<stop offset="1" stop-color="#CA810E"/>
</linearGradient>
<linearGradient id="paint23_linear" x1="65.4718" y1="67.1545" x2="69.8972" y2="67.1545" gradientUnits="userSpaceOnUse">
<stop stop-color="#F8E17B"/>
<stop offset="0.5302" stop-color="#F6D856"/>
<stop offset="1" stop-color="#F6D856"/>
</linearGradient>
<linearGradient id="paint24_linear" x1="68.7753" y1="65.2668" x2="73.0405" y2="65.2668" gradientUnits="userSpaceOnUse">
<stop stop-color="#F8E17B"/>
<stop offset="0.5302" stop-color="#F6D856"/>
<stop offset="1" stop-color="#F6D856"/>
</linearGradient>
<linearGradient id="paint25_linear" x1="69.7626" y1="65.8009" x2="75.361" y2="73.0292" gradientUnits="userSpaceOnUse">
<stop offset="0.00753769" stop-color="#E0A310"/>
<stop offset="1" stop-color="#CA810E"/>
</linearGradient>
<linearGradient id="paint26_linear" x1="74.6614" y1="64.7872" x2="82.3858" y2="71.5195" gradientUnits="userSpaceOnUse">
<stop offset="0.00753769" stop-color="#F2CC40"/>
<stop offset="1" stop-color="#E7B116"/>
</linearGradient>
<linearGradient id="paint27_linear" x1="73.9691" y1="65.5817" x2="81.6936" y2="72.314" gradientUnits="userSpaceOnUse">
<stop offset="0.00753769" stop-color="#F2CC40"/>
<stop offset="1" stop-color="#E7B116"/>
</linearGradient>
<linearGradient id="paint28_linear" x1="72.7727" y1="66.9544" x2="80.4971" y2="73.6867" gradientUnits="userSpaceOnUse">
<stop offset="0.00753769" stop-color="#F2CC40"/>
<stop offset="1" stop-color="#E7B116"/>
</linearGradient>
<linearGradient id="paint29_linear" x1="75.7458" y1="46.1452" x2="81.8403" y2="54.224" gradientUnits="userSpaceOnUse">
<stop offset="0.00753769" stop-color="#E0A310"/>
<stop offset="1" stop-color="#CA810E"/>
</linearGradient>
<linearGradient id="paint30_linear" x1="75.0729" y1="46.6528" x2="81.1674" y2="54.7315" gradientUnits="userSpaceOnUse">
<stop offset="0.00753769" stop-color="#E0A310"/>
<stop offset="1" stop-color="#CA810E"/>
</linearGradient>
<linearGradient id="paint31_linear" x1="73.6871" y1="47.6982" x2="79.7816" y2="55.7769" gradientUnits="userSpaceOnUse">
<stop offset="0.00753769" stop-color="#E0A310"/>
<stop offset="1" stop-color="#CA810E"/>
</linearGradient>
</defs>
</svg>
