<svg width="160" height="188" viewBox="0 0 160 188" fill="none" xmlns="http://www.w3.org/2000/svg">
<g clip-path="url(#clip0)">
<path d="M79.6779 188C82.7592 187.994 85.7796 187.141 88.4083 185.534L150.384 147.874C153.165 146.11 155.449 143.665 157.019 140.771C158.589 137.876 159.394 134.628 159.356 131.336V56.6207C159.392 53.3283 158.587 50.0812 157.017 47.1871C155.447 44.2929 153.163 41.8476 150.384 40.0829L88.4083 2.4228C85.7749 0.837605 82.7592 0 79.6855 0C76.6118 0 73.5961 0.837605 70.9627 2.4228L8.9876 40.098C6.2045 41.8604 3.91796 44.3048 2.34499 47.1991C0.772021 50.0935 -0.0351786 53.3418 4.1431e-06 56.6358V131.336C-0.0185283 134.119 0.556189 136.874 1.68588 139.418C2.81557 141.962 4.4743 144.236 6.5516 146.089V146.115L70.9627 185.549C73.5884 187.149 76.6032 187.996 79.6779 188V188ZM80.3257 6.95218C82.2776 6.95218 84.7548 8.1651 86.4646 9.20912L147.222 46.4034C150.974 48.6881 153.09 55.2842 153.09 60.0352L152.458 131.336C152.458 136.087 149.259 140.355 145.506 142.64L85.1104 179.021C81.6758 181.109 78.8854 181.109 75.4507 179.021L14.2427 142.549C10.4903 140.265 7.47191 136.072 7.47191 131.336V57.688C7.50442 55.3228 8.11341 53.0013 9.24608 50.9247C10.3787 48.8482 12.0009 47.0792 13.9718 45.7714L74.548 9.20912C76.2577 8.1651 78.3739 6.95218 80.3257 6.95218Z" fill="#F2F1F0"/>
<path fill-rule="evenodd" clip-rule="evenodd" d="M87.5765 10.5328C85.2056 9.05922 82.4697 8.27832 79.6783 8.27832C76.8868 8.27832 74.1509 9.05922 71.7801 10.5328L15.6454 44.8642C13.1193 46.4758 11.047 48.7062 9.625 51.3436C8.203 53.9811 7.47851 56.9382 7.52026 59.9343V128.037C7.48034 131.033 8.20562 133.99 9.62745 136.627C11.0493 139.264 13.1206 141.494 15.6454 143.107L71.7801 177.438C74.1508 178.912 76.8867 179.693 79.6783 179.693C82.4698 179.693 85.2057 178.912 87.5765 177.438L143.711 143.107C146.236 141.495 148.307 139.264 149.729 136.627C151.151 133.99 151.877 131.033 151.837 128.037V59.9343C151.875 56.9387 151.149 53.9829 149.727 51.346C148.305 48.7092 146.234 46.4783 143.711 44.8642L87.5765 10.5328Z" fill="url(#paint0_linear)"/>
<path fill-rule="evenodd" clip-rule="evenodd" d="M79.6783 9.7539C81.3615 9.7539 83.2442 10.6196 85.311 11.8777L143.777 47.4201C145.668 48.6335 147.218 50.3104 148.278 52.2914C149.339 54.2725 149.875 56.4918 149.837 58.7386V129.217C149.875 131.464 149.339 133.683 148.278 135.664C147.218 137.645 145.668 139.322 143.777 140.535L85.312 176.077L85.311 176.078C83.6408 177.217 81.6958 177.888 79.6783 178.021C77.6609 177.888 75.7158 177.217 74.0456 176.078L74.0446 176.077L15.5823 140.537L15.5801 140.536C13.7918 139.572 12.2668 138.185 11.1383 136.496C10.1614 134.893 9.52031 132.678 9.52031 129.217V58.7386C9.48157 56.4919 10.018 54.2726 11.0785 52.2916C12.139 50.3106 13.6885 48.6336 15.5797 47.4202L74.0365 11.8831L74.0406 11.8807C76.1244 10.6277 77.9846 9.7539 79.6783 9.7539ZM87.3908 8.4609L145.855 44.0021C148.333 45.5722 150.368 47.751 151.765 50.3307C153.162 52.9104 153.876 55.8051 153.837 58.7386V129.217C153.876 132.151 153.162 135.045 151.765 137.625C150.368 140.205 148.333 142.384 145.855 143.954L87.3898 179.495C85.0956 181.02 82.4302 181.893 79.6783 182.021C76.9264 181.893 74.261 181.02 71.9667 179.495H71.9658L13.502 143.953L13.4995 143.952C11.1642 142.659 9.18097 140.814 7.72281 138.578C6.12823 135.725 5.36521 132.482 5.52031 129.217V58.7386C5.48125 55.805 6.19436 52.9103 7.59165 50.3305C8.98894 47.7508 11.0238 45.572 13.5022 44.002L71.9667 8.46025L71.9749 8.45537C74.0655 7.19796 76.7734 5.75391 79.6783 5.75391C82.5645 5.75391 85.2816 7.17699 87.3908 8.46085V8.4609Z" fill="#0078D4"/>
<path opacity="0.2" d="M139.887 131.927L80.3369 166.534L20.3979 131.928L79.9479 97.3213L139.887 131.927Z" fill="#003067"/>
<path d="M140.532 120.546L79.81 155.834L18.698 120.551L79.42 85.2627L140.532 120.546Z" fill="#1B93EB"/>
<path d="M140.532 120.546L140.52 124.652L79.798 159.94L79.81 155.834L140.532 120.546Z" fill="#1F56A3"/>
<path d="M79.81 155.834L79.798 159.94L18.686 124.657L18.698 120.551L79.81 155.834Z" fill="#0078D4"/>
<path d="M82.6653 79.2853L82.5803 109.282L70.3178 102.202C69.6886 101.792 69.1651 101.24 68.7897 100.59C68.4144 99.94 68.1979 99.2104 68.1578 98.4608L68.2288 73.4444C68.2326 72.0714 69.2079 71.5157 70.4028 72.2055L82.6653 79.2853Z" fill="#FFE452"/>
<path d="M81.6257 65.6834C81.4055 65.5233 81.1465 65.4251 80.8756 65.3988C80.6046 65.3724 80.3316 65.419 80.0847 65.5337L68.8616 72.0558C69.1085 71.9411 69.3816 71.8945 69.6526 71.9209C69.9236 71.9472 70.1826 72.0455 70.4028 72.2055L82.6654 79.2853L93.8883 72.7632L81.6257 65.6834Z" fill="#FFE975"/>
<path d="M95.0047 59.3123C95.6323 59.7211 96.1544 60.2727 96.528 60.9219C96.9016 61.5711 97.1163 62.2995 97.1544 63.0476L96.9998 117.607L82.5803 109.282L82.735 54.7225C82.7389 53.3495 83.7041 52.788 84.8989 53.4778L95.0047 59.3123Z" fill="#FFCA00"/>
<path d="M106.228 52.7901L96.1219 46.9556C95.9032 46.7964 95.6459 46.6985 95.3767 46.6722C95.1075 46.6459 94.8361 46.6921 94.5907 46.8059L83.3678 53.328C83.6132 53.2142 83.8845 53.168 84.1537 53.1944C84.4229 53.2207 84.6801 53.3185 84.8988 53.4777L95.0046 59.3123C95.6323 59.7211 96.1543 60.2726 96.5279 60.9218C96.9016 61.571 97.1163 62.2994 97.1544 63.0475L96.9997 117.607L108.223 111.084L108.377 56.5254C108.339 55.7773 108.124 55.0489 107.751 54.3997C107.377 53.7505 106.855 53.1989 106.228 52.7901V52.7901Z" fill="#FFD533"/>
<path d="M109.394 81.8737C110.02 82.2836 110.542 82.8353 110.915 83.4843C111.289 84.1333 111.504 84.8612 111.544 85.609L111.436 123.448C111.432 124.821 110.457 125.377 109.272 124.692L96.9998 117.607L97.1211 74.7881L109.394 81.8737Z" fill="#FF9300"/>
<path d="M120.617 75.3512L108.344 68.2656L97.1211 74.7878L109.394 81.8734C110.02 82.2832 110.542 82.835 110.915 83.484C111.289 84.133 111.504 84.8609 111.543 85.6087L111.436 123.447C111.463 123.715 111.418 123.984 111.307 124.228C111.196 124.473 111.022 124.683 110.802 124.838L122.025 118.316C122.244 118.161 122.419 117.951 122.53 117.706C122.641 117.462 122.686 117.192 122.659 116.925L122.767 79.0865C122.727 78.3387 122.512 77.6109 122.138 76.9619C121.765 76.3129 121.243 75.7611 120.617 75.3512V75.3512Z" fill="#FFA933"/>
<path d="M86.6474 133.036C86.7881 133.083 86.9106 133.173 86.9978 133.293C87.0851 133.413 87.1327 133.557 87.134 133.705C87.1353 133.853 87.0902 133.998 87.005 134.12C86.9199 134.241 86.7989 134.333 86.6591 134.382C86.2985 134.565 85.8998 134.661 85.4953 134.661C85.0909 134.661 84.6922 134.565 84.3316 134.382C84.1912 134.334 84.0692 134.244 83.9827 134.124C83.8962 134.003 83.8495 133.859 83.8491 133.71C83.8487 133.562 83.8947 133.417 83.9806 133.297C84.0665 133.176 84.188 133.085 84.3282 133.036C84.6873 132.853 85.0847 132.758 85.4878 132.758C85.8909 132.758 86.2882 132.853 86.6474 133.036Z" fill="#0078D4"/>
<path d="M63.4702 105.247L102.927 128.028L75.7408 143.827L36.2838 121.046L63.4702 105.247ZM84.3316 134.383C84.6922 134.566 85.0909 134.661 85.4953 134.661C85.8998 134.661 86.2985 134.566 86.6591 134.383C86.7989 134.333 86.9199 134.242 87.005 134.12C87.0902 133.999 87.1353 133.854 87.134 133.706C87.1327 133.557 87.0851 133.413 86.9978 133.293C86.9106 133.173 86.7881 133.084 86.6474 133.037C86.2882 132.854 85.8909 132.758 85.4878 132.758C85.0847 132.758 84.6873 132.854 84.3282 133.037C84.188 133.085 84.0665 133.176 83.9806 133.297C83.8947 133.418 83.8488 133.563 83.8491 133.711C83.8495 133.859 83.8962 134.004 83.9827 134.124C84.0692 134.245 84.1912 134.335 84.3316 134.383" fill="white"/>
<path d="M75.741 143.826L75.738 144.872L36.281 122.092L36.284 121.046L75.741 143.826Z" fill="#1F56A3"/>
<path d="M104.734 126.977C104.954 127.051 105.144 127.191 105.28 127.379C105.416 127.566 105.489 127.791 105.49 128.023C105.492 128.254 105.421 128.48 105.287 128.669C105.154 128.858 104.965 129.001 104.746 129.077L77.5596 144.876C76.9976 145.163 76.3758 145.312 75.7449 145.313C75.1141 145.313 74.4921 145.164 73.9297 144.878L34.4727 122.098C34.2532 122.024 34.0623 121.883 33.9268 121.695C33.7913 121.507 33.718 121.281 33.7172 121.049C33.7163 120.818 33.788 120.591 33.922 120.402C34.0561 120.213 34.246 120.071 34.465 119.995L61.6514 104.196C62.213 103.911 62.8342 103.762 63.4643 103.762C64.0944 103.762 64.7156 103.911 65.2772 104.196L104.734 126.977ZM75.7408 143.826L102.927 128.027L63.4702 105.246L36.2838 121.045L75.7408 143.826" fill="#0078D4"/>
<path d="M104.746 129.078L77.5596 144.877C76.9976 145.163 76.3758 145.313 75.7449 145.313C75.114 145.314 74.492 145.165 73.9297 144.879L34.4727 122.099C34.264 122.006 34.0839 121.859 33.951 121.673C33.8182 121.487 33.7374 121.269 33.717 121.042L33.714 122.088C33.7344 122.315 33.8152 122.533 33.948 122.719C34.0809 122.905 34.261 123.052 34.4697 123.145L73.9267 145.925C74.489 146.211 75.1111 146.36 75.7419 146.359C76.3728 146.359 76.9946 146.209 77.5566 145.923L104.743 130.124C104.948 130.031 105.125 129.886 105.256 129.703C105.387 129.52 105.467 129.305 105.487 129.081L105.49 128.035C105.47 128.259 105.39 128.474 105.259 128.657C105.128 128.84 104.951 128.985 104.746 129.078Z" fill="#003067"/>
<path d="M77.2725 121.089L77.2669 123.038C77.2709 121.637 76.3476 120.233 74.4988 119.166C72.4419 118.12 70.1672 117.576 67.8598 117.576C65.5525 117.576 63.2778 118.12 61.2208 119.166C59.4098 120.218 58.5037 121.599 58.4998 122.982L58.5053 121.032C58.5092 119.649 59.4154 118.269 61.2264 117.216C63.2833 116.171 65.558 115.626 67.8653 115.626C70.1727 115.626 72.4474 116.171 74.5044 117.216C76.3531 118.284 77.2765 119.687 77.2725 121.089Z" fill="#1F56A3"/>
<path d="M81.1031 121.1L81.0975 123.05C81.092 124.996 79.8131 126.939 77.2571 128.425C72.1143 131.413 63.7463 131.412 58.5699 128.423C55.9651 126.919 54.6641 124.945 54.6697 122.974L54.6752 121.024C54.6696 122.995 55.9706 124.97 58.5754 126.473C63.7518 129.462 72.1198 129.464 77.2626 126.475C79.8186 124.99 81.0975 123.046 81.1031 121.1Z" fill="#1F56A3"/>
<path opacity="0.2" d="M77.2017 120.948C72.0252 117.96 63.6603 117.96 58.5145 120.95C53.3717 123.939 53.399 128.784 58.5754 131.773C60.8494 133.007 63.3618 133.739 65.943 133.919L65.9544 136.486C64.9551 136.855 64.286 137.502 64.2932 138.241L64.3094 141.125C64.3414 141.441 64.4561 141.744 64.6419 142.001C64.8277 142.259 65.078 142.464 65.3678 142.594C66.1491 143.011 67.0244 143.221 67.91 143.204C69.8886 143.204 71.4906 142.273 71.4842 141.127L71.4679 138.242C71.4357 137.927 71.3211 137.625 71.1355 137.367C70.95 137.11 70.7 136.906 70.4106 136.776C70.2104 136.661 70.0007 136.564 69.7838 136.486L69.7694 133.932C72.3949 133.769 74.9526 133.033 77.2626 131.774C82.4084 128.784 82.3781 123.937 77.2017 120.948Z" fill="#003067"/>
<path d="M77.2017 115.648C82.3781 118.637 82.4084 123.484 77.2626 126.474C72.1198 129.463 63.7518 129.461 58.5754 126.473C53.399 123.484 53.3717 118.639 58.5145 115.65C63.6603 112.66 72.0252 112.66 77.2017 115.648ZM61.2727 124.905C63.3289 125.951 65.6031 126.496 67.9099 126.496C70.2168 126.497 72.4911 125.952 74.5476 124.907C78.1976 122.786 78.1782 119.337 74.5043 117.216C72.4474 116.171 70.1727 115.626 67.8653 115.626C65.558 115.626 63.2833 116.171 61.2263 117.216C57.5793 119.335 57.6018 122.786 61.2727 124.905" fill="#1B93EB"/>
<path d="M74.5043 117.216C78.1782 119.338 78.1976 122.786 74.5506 124.906C72.4938 125.952 70.219 126.497 67.9116 126.497C65.6042 126.497 63.3294 125.952 61.2726 124.906C57.6017 122.787 57.5823 119.338 61.2323 117.217C63.2883 116.172 65.562 115.627 67.8683 115.627C70.1746 115.627 72.4483 116.172 74.5043 117.216Z" fill="url(#paint1_linear)"/>
<path d="M64.309 135.826L64.304 137.775L64.288 134.891L64.293 132.941L64.309 135.826Z" fill="#A3A3A3"/>
<path d="M69.2029 127.83C69.3574 127.899 69.491 128.008 69.5903 128.146C69.6897 128.283 69.7514 128.444 69.7693 128.613L69.7838 131.187C70.0008 131.265 70.2105 131.362 70.4107 131.476C70.7 131.607 70.95 131.811 71.1356 132.068C71.3211 132.326 71.4357 132.627 71.4679 132.943L71.4841 135.828C71.4906 136.974 69.8886 137.905 67.91 137.905C67.0244 137.922 66.1491 137.712 65.3679 137.295C65.0781 137.164 64.8278 136.96 64.642 136.702C64.4562 136.444 64.3415 136.142 64.3094 135.826L64.2931 132.941C64.286 132.203 64.955 131.556 65.9544 131.187L65.943 128.614C65.9396 128.001 66.7921 127.505 67.8514 127.505C68.3222 127.496 68.7876 127.608 69.2029 127.83V127.83Z" fill="#1B93EB"/>
<path d="M71.4841 135.828L71.4786 137.777C71.485 138.924 69.883 139.854 67.9044 139.854C67.0188 139.872 66.1436 139.662 65.3623 139.244C65.0725 139.114 64.8222 138.91 64.6364 138.652C64.4506 138.394 64.3359 138.092 64.3038 137.776L64.3094 135.826C64.3414 136.142 64.4561 136.444 64.6419 136.702C64.8277 136.96 65.0781 137.164 65.3678 137.295C66.1491 137.712 67.0243 137.922 67.9099 137.905C69.8886 137.905 71.4906 136.974 71.4841 135.828Z" fill="#1F56A3"/>
</g>
<defs>
<linearGradient id="paint0_linear" x1="79.6785" y1="8.27832" x2="79.6785" y2="179.693" gradientUnits="userSpaceOnUse">
<stop stop-color="#00ABDE"/>
<stop offset="1" stop-color="#007ED8"/>
</linearGradient>
<linearGradient id="paint1_linear" x1="67.89" y1="126.497" x2="67.89" y2="115.627" gradientUnits="userSpaceOnUse">
<stop stop-color="white" stop-opacity="0.1"/>
<stop offset="1" stop-color="white"/>
</linearGradient>
<clipPath id="clip0">
<rect width="159.356" height="188" fill="white"/>
</clipPath>
</defs>
</svg>
