<svg width="100" height="100" viewBox="0 0 100 100" fill="none" xmlns="http://www.w3.org/2000/svg">
<g clip-path="url(#clip0)">
<path d="M49.6401 96.4501C40.382 96.4501 31.3317 93.7047 23.6339 88.5612C15.936 83.4176 9.93624 76.1069 6.3933 67.5535C2.85036 59.0001 1.92337 49.5882 3.72954 40.5079C5.53571 31.4277 9.99394 23.0869 16.5404 16.5404C23.0869 9.99393 31.4277 5.53571 40.5079 3.72954C49.5882 1.92337 59.0001 2.85036 67.5535 6.3933C76.1069 9.93624 83.4176 15.936 88.5612 23.6339C93.7047 31.3317 96.4501 40.382 96.4501 49.6401C96.4505 55.7874 95.24 61.8746 92.8878 67.554C90.5355 73.2335 87.0875 78.3939 82.7407 82.7407C78.3939 87.0875 73.2335 90.5355 67.554 92.8878C61.8746 95.24 55.7874 96.4505 49.6401 96.4501V96.4501Z" fill="url(#paint0_linear)"/>
<path fill-rule="evenodd" clip-rule="evenodd" d="M95.54 49.64C95.54 58.7182 92.848 67.5925 87.8045 75.1407C82.7609 82.6889 75.5923 88.572 67.2052 92.0461C58.818 95.5201 49.5891 96.4291 40.6854 94.658C31.7816 92.887 23.603 88.5154 17.1838 82.0962C10.7646 75.677 6.39302 67.4984 4.62196 58.5946C2.85089 49.6909 3.75987 40.462 7.23393 32.0748C10.708 23.6877 16.5911 16.5191 24.1393 11.4755C31.6875 6.43199 40.5618 3.74 49.64 3.74C55.6677 3.73998 61.6363 4.9272 67.2052 7.23388C72.774 9.54057 77.834 12.9215 82.0963 17.1837C86.3585 21.446 89.7394 26.5059 92.0461 32.0748C94.3528 37.6437 95.54 43.6123 95.54 49.64V49.64ZM49.64 3.62732e-07C59.4579 3.62732e-07 69.0553 2.91134 77.2185 8.36585C85.3818 13.8204 91.7442 21.5731 95.5014 30.6436C99.2585 39.7141 100.242 49.6951 98.3262 59.3243C96.4108 68.9535 91.6831 77.7985 84.7408 84.7408C77.7985 91.6831 68.9535 96.4108 59.3243 98.3262C49.6951 100.242 39.7141 99.2585 30.6436 95.5014C21.5731 91.7442 13.8204 85.3818 8.36585 77.2185C2.91134 69.0553 3.62732e-07 59.4579 3.62732e-07 49.64C-0.000787738 43.121 1.28265 36.6656 3.77702 30.6427C6.27138 24.6197 9.9278 19.1471 14.5375 14.5375C19.1471 9.9278 24.6197 6.27138 30.6427 3.77702C36.6656 1.28265 43.121 -0.000787738 49.64 3.62732e-07V3.62732e-07Z" fill="#F2F1F0"/>
<path fill-rule="evenodd" clip-rule="evenodd" d="M92.7296 49.6406C92.7296 58.163 90.2024 66.494 85.4676 73.5801C80.7328 80.6662 74.0031 86.1892 66.1294 89.4505C58.2557 92.7119 49.5918 93.5653 41.2331 91.9026C32.8745 90.24 25.1966 86.1361 19.1703 80.1098C13.1441 74.0836 9.04017 66.4057 7.37753 58.047C5.7149 49.6884 6.56822 41.0244 9.8296 33.1507C13.091 25.2771 18.6139 18.5473 25.7 13.8126C32.7862 9.07776 41.1172 6.55058 49.6396 6.55058C55.2983 6.55023 60.9017 7.66455 66.1298 9.82991C71.3579 11.9953 76.1082 15.1692 80.1096 19.1706C84.1109 23.1719 87.2849 27.9223 89.4502 33.1503C91.6156 38.3784 92.7299 43.9818 92.7296 49.6406V49.6406ZM49.6396 2.81058C58.9017 2.81058 67.9558 5.55711 75.6569 10.7029C83.3581 15.8486 89.3604 23.1624 92.9049 31.7195C96.4493 40.2766 97.3767 49.6925 95.5697 58.7767C93.7628 67.8608 89.3027 76.2051 82.7534 82.7544C76.2041 89.3037 67.8598 93.7638 58.7757 95.5708C49.6915 97.3777 40.2756 96.4503 31.7185 92.9059C23.1614 89.3614 15.8476 83.3591 10.7018 75.6579C5.5561 67.9568 2.80957 58.9027 2.80957 49.6406C2.81076 37.2209 7.745 25.3101 16.5271 16.5281C25.3091 7.74599 37.2198 2.81174 49.6396 2.81055V2.81058Z" fill="#0078D4"/>
<path fill-rule="evenodd" clip-rule="evenodd" d="M92.7296 49.6405C92.7296 58.1629 90.2024 66.494 85.4676 73.5801C80.7328 80.6662 74.0031 86.1891 66.1294 89.4505C58.2557 92.7119 49.5918 93.5652 41.2331 91.9026C32.8745 90.24 25.1966 86.136 19.1703 80.1098C13.1441 74.0835 9.04017 66.4056 7.37753 58.047C5.7149 49.6883 6.56822 41.0244 9.8296 33.1507C13.091 25.277 18.6139 18.5473 25.7001 13.8125C32.7862 9.07773 41.1172 6.55055 49.6396 6.55055C55.2983 6.5502 60.9017 7.66452 66.1298 9.82988C71.3579 11.9952 76.1082 15.1692 80.1096 19.1705C84.1109 23.1719 87.2849 27.9222 89.4502 33.1503C91.6156 38.3784 92.7299 43.9818 92.7296 49.6405V49.6405ZM49.6396 2.81055C58.9017 2.81055 67.9558 5.55708 75.6569 10.7028C83.3581 15.8486 89.3604 23.1624 92.9048 31.7195C96.4493 40.2765 97.3767 49.6925 95.5697 58.7766C93.7628 67.8608 89.3027 76.2051 82.7534 82.7544C76.2041 89.3036 67.8598 93.7638 58.7757 95.5707C49.6915 97.3777 40.2756 96.4503 31.7185 92.9058C23.1614 89.3614 15.8476 83.3591 10.7018 75.6579C5.5561 67.9568 2.80957 58.9026 2.80957 49.6405C2.81076 37.2208 7.74501 25.3101 16.5271 16.5281C25.3091 7.74599 37.2198 2.81174 49.6396 2.81055V2.81055Z" fill="#0078D4"/>
<path d="M45.1851 32.0059H18.7141C17.9578 32.0059 17.3447 32.619 17.3447 33.3753V48.1795C17.3447 48.9358 17.9578 49.5489 18.7141 49.5489H45.1851C45.9414 49.5489 46.5545 48.9358 46.5545 48.1795V33.3753C46.5545 32.619 45.9414 32.0059 45.1851 32.0059Z" fill="white"/>
<path d="M24.5474 45.6172V43.4707" stroke="#C3F1FF" stroke-width="2.73884" stroke-miterlimit="10" stroke-linecap="round"/>
<path d="M29.4819 45.6184V39.8047" stroke="#9CEBFF" stroke-width="2.73884" stroke-miterlimit="10" stroke-linecap="round"/>
<path d="M34.417 45.617V36.0176" stroke="#50E6FF" stroke-width="2.73884" stroke-miterlimit="10" stroke-linecap="round"/>
<path d="M39.3521 45.6175V41.291" stroke="#0078D4" stroke-width="2.73884" stroke-miterlimit="10" stroke-linecap="round"/>
<path d="M45.1851 54.8906H18.7141C17.9578 54.8906 17.3447 55.5037 17.3447 56.26V71.0643C17.3447 71.8206 17.9578 72.4337 18.7141 72.4337H45.1851C45.9414 72.4337 46.5545 71.8206 46.5545 71.0643V56.26C46.5545 55.5037 45.9414 54.8906 45.1851 54.8906Z" fill="#0078D4"/>
<path d="M28.6914 57.8906H20.3452V66.2368H28.6914V57.8906Z" fill="#9CEBFF"/>
<path d="M28.6914 66.2363H20.3452V69.5612H28.6914V66.2363Z" fill="#50E6FF"/>
<path d="M34.832 57.8906H28.6914V64.0312H34.832V57.8906Z" fill="white"/>
<path d="M43.5542 64.0312H28.6914V69.5617H43.5542V64.0312Z" fill="#1F56A3"/>
<path d="M39.1931 57.8906H34.832V64.0312H39.1931V57.8906Z" fill="#50E6FF"/>
<path d="M43.554 57.8906H39.1929V60.9609H43.554V57.8906Z" fill="#9CEBFF"/>
<path d="M43.554 60.9609H39.1929V64.0312H43.554V60.9609Z" fill="white"/>
<path d="M80.6358 65.8457H54.1648C53.4085 65.8457 52.7954 66.4588 52.7954 67.2151V71.065C52.7954 71.8213 53.4085 72.4344 54.1648 72.4344H80.6358C81.3921 72.4344 82.0052 71.8213 82.0052 71.065V67.2151C82.0052 66.4588 81.3921 65.8457 80.6358 65.8457Z" fill="white"/>
<path d="M80.2377 32.0059H54.562C53.5861 32.0059 52.7949 32.797 52.7949 33.7729V59.4486C52.7949 60.4245 53.5861 61.2157 54.562 61.2157H80.2377C81.2136 61.2157 82.0047 60.4245 82.0047 59.4486V33.7729C82.0047 32.797 81.2136 32.0059 80.2377 32.0059Z" fill="#0078D4"/>
<path d="M70.062 46.6111H77.0698C77.0698 44.0466 76.0511 41.5871 74.2377 39.7737C72.4244 37.9603 69.9649 36.9415 67.4004 36.9414V43.9497C68.106 43.9505 68.7825 44.2312 69.2815 44.7301C69.7804 45.2291 70.0611 45.9055 70.062 46.6111Z" fill="#1B93EB"/>
<path d="M70.0618 46.6113V46.6115C70.062 46.961 69.9931 47.307 69.8592 47.6298C69.7252 47.9526 69.5288 48.2457 69.2812 48.4923L74.2376 53.4487C75.1368 52.5518 75.8499 51.486 76.3359 50.3126C76.8219 49.1392 77.0713 47.8814 77.0696 46.6113H70.0618Z" fill="#C3F1FF"/>
<path d="M69.2812 48.4921C68.7823 48.991 68.1057 49.2713 67.4002 49.2713C66.6947 49.2713 66.0181 48.9911 65.5192 48.4922C65.0203 47.9933 64.74 47.3167 64.74 46.6112C64.74 45.9057 65.0203 45.229 65.5191 44.7301L60.5625 39.7734C59.6641 40.6713 58.9513 41.7373 58.465 42.9106C57.9787 44.0839 57.7282 45.3415 57.728 46.6117C57.7278 47.8818 57.9778 49.1395 58.4638 50.313C58.9498 51.4864 59.6621 52.5527 60.5602 53.4508C61.4584 54.3489 62.5246 55.0613 63.6981 55.5472C64.8716 56.0332 66.1293 56.2832 67.3994 56.283C68.6695 56.2828 69.9271 56.0323 71.1005 55.546C72.2738 55.0597 73.3398 54.3469 74.2376 53.4485L69.2812 48.4921Z" fill="white"/>
<path d="M67.4002 43.9498V36.9414H67.3998C66.1297 36.9398 64.8719 37.1891 63.6985 37.6751C62.5251 38.1611 61.4594 38.8742 60.5625 39.7734L65.5192 44.7301C65.7658 44.4826 66.059 44.2862 66.3818 44.1523C66.7046 44.0184 67.0507 43.9495 67.4002 43.9498V43.9498Z" fill="#50E6FF"/>
<path d="M55.686 69.1406H79.1137" stroke="#0078D4" stroke-width="0.75" stroke-miterlimit="10" stroke-linecap="round"/>
<path d="M71.0103 70.3633C71.6866 70.3633 72.2349 69.8151 72.2349 69.1387C72.2349 68.4624 71.6866 67.9141 71.0103 67.9141C70.3339 67.9141 69.7856 68.4624 69.7856 69.1387C69.7856 69.8151 70.3339 70.3633 71.0103 70.3633Z" fill="white" stroke="#0078D4" stroke-width="0.75" stroke-miterlimit="10" stroke-linecap="round"/>
<path d="M48.0967 40.8359H51.1821" stroke="white" stroke-width="0.5" stroke-miterlimit="10"/>
<path d="M67.3999 62.5059V64.8205" stroke="white" stroke-width="0.5" stroke-miterlimit="10"/>
<path d="M51.1826 69.1406H48.0972" stroke="white" stroke-width="0.5" stroke-miterlimit="10"/>
<path d="M31.7617 53.5786V50.9531" stroke="white" stroke-width="0.5" stroke-miterlimit="10"/>
<path d="M31.7622 30.5126V23.0996H34.4172" stroke="white" stroke-width="0.5" stroke-miterlimit="10"/>
<path d="M67.3118 30.5126V23.0996H64.6558" stroke="white" stroke-width="0.5" stroke-miterlimit="10"/>
<path d="M36.7047 23.6428C36.6961 23.5825 36.6789 23.5222 36.6703 23.4705C36.5087 22.6177 36.5368 21.7398 36.7527 20.8991C36.9687 20.0584 37.3671 19.2756 37.9197 18.6062C38.4722 17.9369 39.1654 17.3974 39.95 17.0262C40.7346 16.6549 41.5913 16.461 42.4593 16.4582C42.9033 16.4567 43.3458 16.5087 43.7773 16.6132C44.6571 15.2255 45.9638 14.161 47.5008 13.5799C49.0378 12.9989 50.7219 12.9326 52.2997 13.3912C53.8776 13.8498 55.2638 14.8084 56.2499 16.1228C57.236 17.4372 57.7686 19.0362 57.7675 20.6794C57.7675 20.7827 57.7675 20.8861 57.7589 20.9895C58.153 20.8568 58.5663 20.7899 58.9822 20.7914C59.9394 20.7915 60.8599 21.1597 61.5533 21.8196C62.2468 22.4795 62.66 23.3806 62.7076 24.3367C62.7552 25.2927 62.4335 26.2305 61.809 26.956C61.1845 27.6815 60.3051 28.1392 59.3526 28.2344L42.4679 28.2689C41.417 28.2676 40.3852 27.987 39.4785 27.4556C38.5717 26.9243 37.8225 26.1614 37.3077 25.2451C37.2819 25.1934 37.2474 25.1417 37.2216 25.0901C36.9935 24.6294 36.82 24.1437 36.7047 23.6428V23.6428Z" fill="white"/>
</g>
<defs>
<linearGradient id="paint0_linear" x1="47.8698" y1="-15.153" x2="51.8525" y2="130.615" gradientUnits="userSpaceOnUse">
<stop stop-color="#00ABDE"/>
<stop offset="1" stop-color="#007ED8"/>
</linearGradient>
<clipPath id="clip0">
<rect width="99.2799" height="99.28" fill="white"/>
</clipPath>
</defs>
</svg>
