<svg width="100" height="100" viewBox="0 0 100 100" fill="none" xmlns="http://www.w3.org/2000/svg">
<g clip-path="url(#clip0)">
<path d="M49.6401 96.4501C40.382 96.4501 31.3317 93.7047 23.6339 88.5612C15.936 83.4176 9.93624 76.1069 6.3933 67.5535C2.85036 59.0001 1.92337 49.5882 3.72954 40.5079C5.53571 31.4277 9.99394 23.0869 16.5404 16.5404C23.0869 9.99393 31.4277 5.53571 40.5079 3.72954C49.5882 1.92337 59.0001 2.85036 67.5535 6.3933C76.1069 9.93624 83.4176 15.936 88.5612 23.6339C93.7047 31.3317 96.4501 40.382 96.4501 49.6401C96.4505 55.7874 95.24 61.8746 92.8878 67.554C90.5355 73.2335 87.0875 78.3939 82.7407 82.7407C78.3939 87.0875 73.2335 90.5355 67.554 92.8878C61.8746 95.24 55.7874 96.4505 49.6401 96.4501V96.4501Z" fill="url(#paint0_linear)"/>
<path fill-rule="evenodd" clip-rule="evenodd" d="M95.54 49.64C95.54 58.7182 92.848 67.5925 87.8045 75.1407C82.7609 82.6889 75.5923 88.572 67.2052 92.0461C58.818 95.5201 49.5891 96.4291 40.6854 94.658C31.7816 92.887 23.603 88.5154 17.1838 82.0962C10.7646 75.677 6.39302 67.4984 4.62196 58.5946C2.85089 49.6909 3.75987 40.462 7.23393 32.0748C10.708 23.6877 16.5911 16.5191 24.1393 11.4755C31.6875 6.43199 40.5618 3.74 49.64 3.74C55.6677 3.73998 61.6363 4.9272 67.2052 7.23388C72.774 9.54057 77.834 12.9215 82.0963 17.1837C86.3585 21.446 89.7394 26.5059 92.0461 32.0748C94.3528 37.6437 95.54 43.6123 95.54 49.64V49.64ZM49.64 3.62732e-07C59.4579 3.62732e-07 69.0553 2.91134 77.2185 8.36585C85.3818 13.8204 91.7442 21.5731 95.5014 30.6436C99.2585 39.7141 100.242 49.6951 98.3262 59.3243C96.4108 68.9535 91.6831 77.7985 84.7408 84.7408C77.7985 91.6831 68.9535 96.4108 59.3243 98.3262C49.6951 100.242 39.7141 99.2585 30.6436 95.5014C21.5731 91.7442 13.8204 85.3818 8.36585 77.2185C2.91134 69.0553 3.62732e-07 59.4579 3.62732e-07 49.64C-0.000787738 43.121 1.28265 36.6656 3.77702 30.6427C6.27138 24.6197 9.9278 19.1471 14.5375 14.5375C19.1471 9.9278 24.6197 6.27138 30.6427 3.77702C36.6656 1.28265 43.121 -0.000787738 49.64 3.62732e-07V3.62732e-07Z" fill="#F2F1F0"/>
<path fill-rule="evenodd" clip-rule="evenodd" d="M92.7296 49.6406C92.7296 58.163 90.2024 66.494 85.4676 73.5801C80.7328 80.6662 74.0031 86.1892 66.1294 89.4505C58.2557 92.7119 49.5918 93.5653 41.2331 91.9026C32.8745 90.24 25.1966 86.1361 19.1703 80.1098C13.1441 74.0836 9.04017 66.4057 7.37753 58.047C5.7149 49.6884 6.56822 41.0244 9.8296 33.1507C13.091 25.2771 18.6139 18.5473 25.7 13.8126C32.7862 9.07776 41.1172 6.55058 49.6396 6.55058C55.2983 6.55023 60.9017 7.66455 66.1298 9.82991C71.3579 11.9953 76.1082 15.1692 80.1096 19.1706C84.1109 23.1719 87.2849 27.9223 89.4502 33.1503C91.6156 38.3784 92.7299 43.9818 92.7296 49.6406V49.6406ZM49.6396 2.81058C58.9017 2.81058 67.9558 5.55711 75.6569 10.7029C83.3581 15.8486 89.3604 23.1624 92.9049 31.7195C96.4493 40.2766 97.3767 49.6925 95.5697 58.7767C93.7628 67.8608 89.3027 76.2051 82.7534 82.7544C76.2041 89.3037 67.8598 93.7638 58.7757 95.5708C49.6915 97.3777 40.2756 96.4503 31.7185 92.9059C23.1614 89.3614 15.8476 83.3591 10.7018 75.6579C5.5561 67.9568 2.80957 58.9027 2.80957 49.6406C2.81076 37.2209 7.745 25.3101 16.5271 16.5281C25.3091 7.74599 37.2198 2.81174 49.6396 2.81055V2.81058Z" fill="#0078D4"/>
<path fill-rule="evenodd" clip-rule="evenodd" d="M42.96 39.8711H29.5121C28.7669 39.8733 28.0528 40.1703 27.5259 40.6972C26.9989 41.2242 26.7019 41.9383 26.6997 42.6835V49.7146H71.6984V46.9021C71.6962 46.1569 71.3992 45.4428 70.8723 44.9159C70.3453 44.3889 69.6312 44.0919 68.886 44.0897H49.1101C48.6978 44.0897 48.2905 43.9991 47.9172 43.8242C47.5438 43.6493 47.2135 43.3945 46.9495 43.0778L45.1206 40.883C44.8566 40.5663 44.5263 40.3115 44.1529 40.1366C43.7796 39.9617 43.3723 39.8711 42.96 39.8711V39.8711Z" fill="#CC9547"/>
<path d="M65.045 34.3672C62.8505 34.3672 60.6898 34.9084 58.7545 35.9429C56.8191 36.9774 55.1687 38.4733 53.9495 40.2979C52.7304 42.1226 51.98 44.2198 51.7649 46.4038C51.5499 48.5877 51.8767 50.791 52.7165 52.8184C53.5564 54.8459 54.8833 56.6349 56.5797 58.027C58.2761 59.4192 60.2896 60.3715 62.442 60.7996C64.5943 61.2277 66.819 61.1183 68.919 60.4812C71.019 59.8442 72.9295 58.699 74.4812 57.1472L67.6413 50.3074C67.2143 50.7344 66.6885 51.0496 66.1106 51.2249C65.5327 51.4002 64.9204 51.4303 64.3281 51.3125C63.7358 51.1947 63.1816 50.9326 62.7148 50.5494C62.248 50.1662 61.8829 49.6739 61.6518 49.1159C61.4207 48.5579 61.3309 47.9515 61.3901 47.3505C61.4494 46.7495 61.656 46.1724 61.9916 45.6703C62.3272 45.1682 62.7815 44.7566 63.3142 44.472C63.8468 44.1874 64.4415 44.0386 65.0454 44.0387V34.3672L65.045 34.3672Z" fill="#1F56A3"/>
<path d="M68.718 47.7115H78.3889C78.3889 44.1725 76.983 40.7784 74.4805 38.2758C71.9781 35.7733 68.584 34.3673 65.0449 34.3672V44.0387C66.0187 44.0398 66.9523 44.4272 67.6408 45.1157C68.3294 45.8042 68.7168 46.7378 68.718 47.7115Z" fill="#0078D4"/>
<path d="M68.7183 47.7129V47.7131C68.7186 48.1954 68.6235 48.673 68.4387 49.1184C68.2538 49.5638 67.9828 49.9684 67.6411 50.3087L74.481 57.1486C75.7219 55.9108 76.706 54.44 77.3767 52.8207C78.0474 51.2014 78.3915 49.4656 78.3892 47.7129H68.7183Z" fill="#50E6FF"/>
<path fill-rule="evenodd" clip-rule="evenodd" d="M71.6984 72.2161C71.6963 72.9613 71.3994 73.6755 70.8724 74.2024C70.3454 74.7294 69.6313 75.0264 68.886 75.0285H29.5121C28.7669 75.0263 28.0528 74.7293 27.5259 74.2023C26.9989 73.6754 26.7019 72.9613 26.6997 72.2161V49.7167C26.7019 48.9715 26.9989 48.2574 27.5259 47.7304C28.0528 47.2035 28.7669 46.9065 29.5121 46.9043H68.886C69.6313 46.9064 70.3454 47.2033 70.8724 47.7303C71.3994 48.2573 71.6964 48.9714 71.6984 49.7167L71.6984 72.2161Z" fill="#EFB252"/>
<path d="M55.4562 68.1376H52.2931C52.1363 68.1369 51.9861 68.0742 51.8754 67.963C51.7648 67.8519 51.7026 67.7014 51.7026 67.5446C51.7026 67.3877 51.7648 67.2373 51.8754 67.1261C51.9861 67.015 52.1363 66.9522 52.2931 66.9515H54.8631V64.3815C54.8638 64.2247 54.9266 64.0745 55.0377 63.9638C55.1489 63.8531 55.2993 63.791 55.4562 63.791C55.613 63.791 55.7635 63.8531 55.8746 63.9638C55.9858 64.0745 56.0486 64.2247 56.0492 64.3815V67.5446C56.0492 67.7018 55.9867 67.8527 55.8755 67.9639C55.7643 68.0751 55.6135 68.1376 55.4562 68.1376V68.1376Z" fill="#CC9547"/>
<path d="M46.1218 68.1376H42.9588C42.8015 68.1376 42.6507 68.0751 42.5395 67.9639C42.4283 67.8527 42.3658 67.7018 42.3657 67.5446V64.3815C42.3664 64.2247 42.4292 64.0745 42.5403 63.9638C42.6515 63.8531 42.8019 63.791 42.9588 63.791C43.1156 63.791 43.2661 63.8531 43.3772 63.9638C43.4884 64.0745 43.5512 64.2247 43.5519 64.3815V66.9515H46.1218C46.1999 66.9511 46.2773 66.9662 46.3496 66.9959C46.4218 67.0255 46.4875 67.0692 46.5429 67.1243C46.5982 67.1794 46.6421 67.2449 46.6721 67.317C46.7021 67.3891 46.7175 67.4665 46.7175 67.5446C46.7175 67.6227 46.7021 67.7 46.6721 67.7721C46.6421 67.8442 46.5982 67.9097 46.5429 67.9648C46.4875 68.0199 46.4218 68.0636 46.3496 68.0932C46.2773 68.1229 46.1999 68.138 46.1218 68.1376V68.1376Z" fill="#CC9547"/>
<path d="M42.9588 58.8023C42.8015 58.8023 42.6507 58.7398 42.5395 58.6286C42.4283 58.5174 42.3658 58.3665 42.3657 58.2092V55.0462C42.3658 54.8889 42.4283 54.7381 42.5395 54.6269C42.6507 54.5157 42.8015 54.4532 42.9588 54.4531H46.1218C46.1999 54.4528 46.2773 54.4679 46.3496 54.4975C46.4218 54.5272 46.4875 54.5708 46.5429 54.6259C46.5982 54.681 46.6421 54.7465 46.6721 54.8186C46.7021 54.8908 46.7175 54.9681 46.7175 55.0462C46.7175 55.1243 46.7021 55.2016 46.6721 55.2738C46.6421 55.3459 46.5982 55.4114 46.5429 55.4665C46.4875 55.5216 46.4218 55.5652 46.3496 55.5949C46.2773 55.6245 46.1999 55.6396 46.1218 55.6393H43.5519V58.2092C43.5519 58.3665 43.4894 58.5174 43.3781 58.6286C43.2669 58.7398 43.1161 58.8023 42.9588 58.8023V58.8023Z" fill="#CC9547"/>
<path d="M55.4562 58.8023C55.2989 58.8023 55.1481 58.7398 55.0369 58.6286C54.9256 58.5174 54.8631 58.3665 54.8631 58.2092V55.6393H52.2931C52.1363 55.6386 51.9861 55.5758 51.8754 55.4646C51.7648 55.3535 51.7026 55.203 51.7026 55.0462C51.7026 54.8893 51.7648 54.7389 51.8754 54.6277C51.9861 54.5166 52.1363 54.4538 52.2931 54.4531H55.4562C55.6135 54.4532 55.7643 54.5157 55.8755 54.6269C55.9867 54.7381 56.0492 54.8889 56.0492 55.0462V58.2092C56.0492 58.3665 55.9867 58.5174 55.8755 58.6286C55.7643 58.7398 55.6135 58.8023 55.4562 58.8023V58.8023Z" fill="#CC9547"/>
<path opacity="0.2" fill-rule="evenodd" clip-rule="evenodd" d="M47.4869 43.5618C47.2878 43.4244 47.1074 43.2617 46.9501 43.0777L45.1211 40.883C44.8572 40.5663 44.5269 40.3115 44.1535 40.1366C43.7802 39.9617 43.373 39.8711 42.9607 39.8711H29.5127C28.7675 39.8733 28.0534 40.1703 27.5264 40.6972C26.9994 41.2242 26.7024 41.9382 26.7002 42.6835V43.3538V61.0841H43.0431C44.2213 61.0826 45.3507 60.6139 46.1837 59.7808C47.0167 58.9477 47.4853 57.8182 47.4866 56.64V49.7146H47.4869L47.4869 43.5618Z" fill="#D15900"/>
<path d="M43.0424 26.4629H23.1992C21.9846 26.4629 21 27.4475 21 28.6621V56.6424C21 57.857 21.9846 58.8416 23.1992 58.8416H43.0424C44.257 58.8416 45.2416 57.857 45.2416 56.6424V28.6621C45.2416 27.4475 44.257 26.4629 43.0424 26.4629Z" fill="white"/>
<path d="M26.7496 39.084H30.7615V47.6225H26.7496C26.5619 47.6225 26.3819 47.5479 26.2492 47.4152C26.1165 47.2825 26.042 47.1026 26.042 46.9149V39.7916C26.042 39.6039 26.1165 39.4239 26.2492 39.2912C26.3819 39.1585 26.5619 39.084 26.7496 39.084V39.084Z" fill="#FFE452"/>
<path d="M31.4688 31.3848H34.7731C34.9608 31.3848 35.1407 31.4593 35.2734 31.592C35.4061 31.7247 35.4807 31.9047 35.4807 32.0923V47.6258H30.7612V32.0924C30.7612 31.9994 30.7795 31.9074 30.8151 31.8216C30.8506 31.7357 30.9028 31.6577 30.9685 31.592C31.0342 31.5263 31.1122 31.4742 31.198 31.4386C31.2839 31.4031 31.3759 31.3848 31.4688 31.3848Z" fill="#FFCA00"/>
<path d="M35.481 35.4355H39.4928C39.6805 35.4355 39.8605 35.5101 39.9932 35.6428C40.1259 35.7755 40.2004 35.9555 40.2004 36.1431V46.918C40.2004 47.1056 40.1259 47.2856 39.9932 47.4183C39.8605 47.551 39.6805 47.6255 39.4928 47.6255H35.481V35.4355Z" fill="#FF9300"/>
<path d="M29.6772 51.3711H38.4844" stroke="#E8E8E8" stroke-width="0.857935" stroke-miterlimit="10" stroke-linecap="round"/>
<path d="M27.3271 52.1707C27.7679 52.1707 28.1253 51.8133 28.1253 51.3725C28.1253 50.9316 27.7679 50.5742 27.3271 50.5742C26.8862 50.5742 26.5288 50.9316 26.5288 51.3725C26.5288 51.8133 26.8862 52.1707 27.3271 52.1707Z" fill="#E8E8E8"/>
<path d="M29.6772 54.0508H38.4844" stroke="#E8E8E8" stroke-width="0.857935" stroke-miterlimit="10" stroke-linecap="round"/>
<path d="M27.3271 54.8465C27.7679 54.8465 28.1253 54.4891 28.1253 54.0483C28.1253 53.6074 27.7679 53.25 27.3271 53.25C26.8862 53.25 26.5288 53.6074 26.5288 54.0483C26.5288 54.4891 26.8862 54.8465 27.3271 54.8465Z" fill="#E8E8E8"/>
<path d="M54.6964 32.926C58.2659 32.926 61.1594 30.0325 61.1594 26.463C61.1594 22.8936 58.2659 20 54.6964 20C51.127 20 48.2334 22.8936 48.2334 26.463C48.2334 30.0325 51.127 32.926 54.6964 32.926Z" fill="white"/>
<path d="M54.6968 24.1543V28.7681" stroke="#0078D4" stroke-width="1.12238" stroke-miterlimit="10" stroke-linecap="round"/>
<path d="M52.3892 26.4629H57.0029" stroke="#0078D4" stroke-width="1.12238" stroke-miterlimit="10" stroke-linecap="round"/>
</g>
<defs>
<linearGradient id="paint0_linear" x1="47.8697" y1="-15.153" x2="51.8525" y2="130.615" gradientUnits="userSpaceOnUse">
<stop stop-color="#00ABDE"/>
<stop offset="1" stop-color="#007ED8"/>
</linearGradient>
<clipPath id="clip0">
<rect width="99.2799" height="99.28" fill="white"/>
</clipPath>
</defs>
</svg>
