<svg width="102" height="103" viewBox="0 0 102 103" fill="none" xmlns="http://www.w3.org/2000/svg">
<path d="M50.9999 98.0643C25.1499 98.0643 4.18994 77.1143 4.18994 51.2543C4.18994 25.3943 25.1499 4.44434 50.9999 4.44434C76.8499 4.44434 97.8099 25.4043 97.8099 51.2543C97.8099 77.1043 76.8499 98.0643 50.9999 98.0643Z" fill="url(#paint0_linear)"/>
<path fill-rule="evenodd" clip-rule="evenodd" d="M96.9001 51.2545C96.9001 76.6045 76.3501 97.1545 51.0001 97.1545C25.6501 97.1545 5.10011 76.6045 5.10011 51.2545C5.10011 25.9045 25.6501 5.3545 51.0001 5.3545C76.3501 5.3545 96.9001 25.9045 96.9001 51.2545ZM51.0001 1.6145C78.4201 1.6145 100.64 23.8345 100.64 51.2545C100.64 78.6745 78.4101 100.895 51.0001 100.895C23.5801 100.895 1.36011 78.6645 1.36011 51.2545C1.36011 23.8345 23.5801 1.6145 51.0001 1.6145Z" fill="#F2F1F0"/>
<path fill-rule="evenodd" clip-rule="evenodd" d="M94.0899 51.2543C94.0899 75.0543 74.7999 94.3443 50.9999 94.3443C27.1999 94.3443 7.90992 75.0543 7.90992 51.2543C7.90992 27.4543 27.1999 8.16432 50.9999 8.16432C74.7999 8.16432 94.0899 27.4543 94.0899 51.2543ZM50.9999 4.42432C76.8599 4.42432 97.8299 25.3943 97.8299 51.2543C97.8299 77.1143 76.8599 98.0843 50.9999 98.0843C25.1399 98.0843 4.16992 77.1143 4.16992 51.2543C4.16992 25.3943 25.1299 4.42432 50.9999 4.42432Z" fill="url(#paint1_linear)"/>
<path opacity="0.15" d="M80.5299 32.7944H20.17C19.36 32.7944 18.7 33.4544 18.7 34.2644V70.6044C18.7 71.4144 19.36 72.0744 20.17 72.0744H80.5299C81.3399 72.0744 82 71.4144 82 70.6044V34.2644C82.01 33.4444 81.3599 32.7944 80.5299 32.7944Z" fill="#1F1D20"/>
<path d="M80.5299 31.4844H20.17C19.36 31.4844 18.7 32.1444 18.7 32.9544V69.2944C18.7 70.1044 19.36 70.7644 20.17 70.7644H80.5299C81.3399 70.7644 82 70.1044 82 69.2944V32.9444C82.01 32.1344 81.3599 31.4844 80.5299 31.4844Z" fill="#243A5E"/>
<path opacity="0.15" d="M37.5 65.2044C44.54 65.2044 50.24 59.5044 50.24 52.4644C50.24 45.4244 44.54 39.7244 37.5 39.7244C30.46 39.7244 24.76 45.4244 24.76 52.4644C24.76 59.5044 30.48 65.2044 37.5 65.2044Z" fill="#1F1D20"/>
<path d="M37.5 64.0645C44.54 64.0645 50.24 58.3645 50.24 51.3245C50.24 44.2845 44.54 38.5845 37.5 38.5845C30.46 38.5845 24.76 44.2845 24.76 51.3245C24.76 58.3645 30.48 64.0645 37.5 64.0645Z" fill="white"/>
<path d="M43.72 56.4945C43.37 53.3345 40.66 50.8445 37.38 50.8445C34.12 50.8445 31.44 53.2745 31.04 56.4045C30.99 56.6245 30.99 56.8745 30.99 57.0745C31.08 57.9745 31.68 58.8345 32.85 59.5045C35.34 60.9345 39.41 60.9345 41.88 59.5045C43.05 58.8345 43.64 57.9645 43.73 57.0745C43.77 56.8945 43.74 56.6845 43.72 56.4945Z" fill="url(#paint2_radial)"/>
<path d="M37.38 49.9344C39.5 49.9344 41.23 48.2244 41.23 46.1144C41.23 44.0044 39.52 42.2944 37.38 42.2944C35.24 42.2944 33.53 43.9844 33.53 46.1144C33.53 48.2444 35.26 49.9344 37.38 49.9344Z" fill="url(#paint3_radial)"/>
<g opacity="0.15">
<path opacity="0.15" d="M75.14 42.8044H56.67C55.88 42.8044 55.22 43.4644 55.22 44.2544C55.22 45.0444 55.88 45.7044 56.67 45.7044H75.13C75.92 45.7044 76.58 45.0444 76.58 44.2544C76.59 43.4644 75.94 42.8044 75.14 42.8044Z" fill="#1F1D20"/>
<path opacity="0.15" d="M75.14 49.1245H56.67C55.88 49.1245 55.22 49.7845 55.22 50.5745C55.22 51.3645 55.88 52.0245 56.67 52.0245H75.13C75.92 52.0245 76.58 51.3645 76.58 50.5745C76.59 49.7845 75.94 49.1245 75.14 49.1245Z" fill="#1F1D20"/>
<path opacity="0.15" fill-rule="evenodd" clip-rule="evenodd" d="M56.67 55.9246H65.91C66.7 55.9246 67.36 56.5846 67.36 57.3746C67.36 58.1646 66.7 58.8246 65.91 58.8246H56.67C55.88 58.8246 55.22 58.1646 55.22 57.3746C55.22 56.5846 55.86 55.9246 56.67 55.9246Z" fill="#1F1D20"/>
</g>
<path d="M75.14 41.8245H56.67C55.88 41.8245 55.22 42.4845 55.22 43.2745C55.22 44.0645 55.88 44.7245 56.67 44.7245H75.13C75.92 44.7245 76.58 44.0645 76.58 43.2745C76.59 42.4745 75.94 41.8245 75.14 41.8245Z" fill="#50E6FF"/>
<path d="M75.14 48.1443H56.67C55.88 48.1443 55.22 48.8043 55.22 49.5943C55.22 50.3843 55.88 51.0443 56.67 51.0443H75.13C75.92 51.0443 76.58 50.3843 76.58 49.5943C76.59 48.7943 75.94 48.1443 75.14 48.1443Z" fill="#32B0E7"/>
<path fill-rule="evenodd" clip-rule="evenodd" d="M56.67 54.9443H65.91C66.7 54.9443 67.36 55.6043 67.36 56.3943C67.36 57.1843 66.7 57.8443 65.91 57.8443H56.67C55.88 57.8443 55.22 57.1843 55.22 56.3943C55.22 55.6043 55.86 54.9443 56.67 54.9443Z" fill="#185A97"/>
<path d="M83.0598 73.8046H72.5898V42.4946C72.5898 41.3646 73.5098 40.4546 74.6298 40.4546H83.0598C84.1898 40.4546 85.0998 41.3746 85.0998 42.4946V71.7646C85.0998 72.8846 84.1898 73.8046 83.0598 73.8046Z" fill="url(#paint4_linear)"/>
<path d="M76.2798 73.8046H65.5498V50.7446C65.5498 49.7646 66.3498 48.9646 67.3298 48.9646H76.2798C77.2598 48.9646 78.0598 49.7646 78.0598 50.7446V72.0246C78.0598 73.0046 77.2598 73.8046 76.2798 73.8046Z" fill="url(#paint5_linear)"/>
<path d="M69.0298 73.8045H61.1598C59.8798 73.8045 58.8398 72.7645 58.8398 71.4845V59.4545C58.8398 58.1745 59.8798 57.1345 61.1598 57.1345H69.0398C70.3198 57.1345 71.3598 58.1745 71.3598 59.4545V71.4845C71.3498 72.7645 70.3098 73.8045 69.0298 73.8045Z" fill="url(#paint6_linear)"/>
<defs>
<linearGradient id="paint0_linear" x1="49.23" y1="-13.5353" x2="53.212" y2="132.235" gradientUnits="userSpaceOnUse">
<stop stop-color="#00ABDE"/>
<stop offset="1" stop-color="#007ED8"/>
</linearGradient>
<linearGradient id="paint1_linear" x1="2.43262" y1="-20.3703" x2="97.9596" y2="120.511" gradientUnits="userSpaceOnUse">
<stop stop-color="#007ED8"/>
<stop offset="0.7065" stop-color="#002D4C"/>
</linearGradient>
<radialGradient id="paint2_radial" cx="0" cy="0" r="1" gradientUnits="userSpaceOnUse" gradientTransform="translate(33.6884 45.1098) scale(26.8141)">
<stop stop-color="#4FC2EB"/>
<stop offset="0.585" stop-color="#2E76BC"/>
</radialGradient>
<radialGradient id="paint3_radial" cx="0" cy="0" r="1" gradientUnits="userSpaceOnUse" gradientTransform="translate(33.6864 45.1097) scale(26.8141)">
<stop stop-color="#4FC2EB"/>
<stop offset="0.585" stop-color="#2E76BC"/>
</radialGradient>
<linearGradient id="paint4_linear" x1="78.7079" y1="43.5004" x2="78.974" y2="71.1752" gradientUnits="userSpaceOnUse">
<stop offset="0.00753769" stop-color="#E0A310"/>
<stop offset="1" stop-color="#CA810E"/>
</linearGradient>
<linearGradient id="paint5_linear" x1="71.4688" y1="49.932" x2="72.2671" y2="79.2035" gradientUnits="userSpaceOnUse">
<stop offset="0.00753769" stop-color="#F2CC40"/>
<stop offset="1" stop-color="#E7B116"/>
</linearGradient>
<linearGradient id="paint6_linear" x1="64.7956" y1="58.4188" x2="65.5939" y2="77.3118" gradientUnits="userSpaceOnUse">
<stop stop-color="#F8E17B"/>
<stop offset="0.5302" stop-color="#F6D856"/>
<stop offset="1" stop-color="#F6D856"/>
</linearGradient>
</defs>
</svg>
