<svg width="103" height="103" viewBox="0 0 103 103" fill="none" xmlns="http://www.w3.org/2000/svg">
<path d="M51.2057 98.8026C25.3557 98.8026 4.39575 77.8526 4.39575 51.9926C4.39575 26.1326 25.3557 5.18262 51.2057 5.18262C77.0557 5.18262 98.0157 26.1426 98.0157 51.9926C98.0157 77.8426 77.0557 98.8026 51.2057 98.8026Z" fill="url(#paint0_linear_148_111944)"/>
<path fill-rule="evenodd" clip-rule="evenodd" d="M97.1057 51.9925C97.1057 77.3425 76.5557 97.8925 51.2057 97.8925C25.8557 97.8925 5.30573 77.3425 5.30573 51.9925C5.30573 26.6425 25.8557 6.09254 51.2057 6.09254C76.5557 6.09254 97.1057 26.6425 97.1057 51.9925ZM51.2057 2.35254C78.6257 2.35254 100.846 24.5725 100.846 51.9925C100.846 79.4125 78.6157 101.633 51.2057 101.633C23.7857 101.633 1.56573 79.4025 1.56573 51.9925C1.56573 24.5725 23.7857 2.35254 51.2057 2.35254Z" fill="#F2F1F0"/>
<path fill-rule="evenodd" clip-rule="evenodd" d="M94.2958 51.9921C94.2958 75.7921 75.0058 95.0821 51.2058 95.0821C27.4058 95.0821 8.11576 75.7921 8.11576 51.9921C8.11576 28.1921 27.4058 8.90211 51.2058 8.90211C75.0058 8.90211 94.2958 28.1921 94.2958 51.9921ZM51.2058 5.16211C77.0658 5.16211 98.0358 26.1321 98.0358 51.9921C98.0358 77.8521 77.0658 98.8221 51.2058 98.8221C25.3458 98.8221 4.37576 77.8521 4.37576 51.9921C4.37576 26.1321 25.3358 5.16211 51.2058 5.16211Z" fill="url(#paint1_linear_148_111944)"/>
<path opacity="0.15" d="M74.7199 22.2717L28.1899 21.8917C27.1799 21.8817 26.3599 22.6917 26.3599 23.7017L25.8599 84.4217C25.8499 85.4317 26.6599 86.2517 27.6699 86.2517L74.1999 86.6317C75.2099 86.6417 76.0299 85.8317 76.0299 84.8217L76.5299 24.0917C76.5199 23.1017 75.7099 22.2817 74.7199 22.2717Z" fill="#1F1D20"/>
<path d="M74.7299 20.3518L28.1999 19.9718C27.1899 19.9618 26.3699 20.7618 26.3699 21.7718L25.8599 82.4918C25.8499 83.5018 26.6599 84.3218 27.6699 84.3218L74.1999 84.7018C75.2099 84.7118 76.0299 83.9018 76.0299 82.8918L76.5299 22.1618C76.5299 21.1818 75.7299 20.3618 74.7299 20.3518Z" fill="#F2F2F2"/>
<path fill-rule="evenodd" clip-rule="evenodd" d="M53.8999 13.2916C55.2199 14.0016 55.9799 15.4116 55.9699 16.9016V17.2616C55.9699 17.4016 55.9599 17.5116 55.9499 17.6516L58.8099 17.6716C59.6599 17.6816 60.4599 18.1116 60.8799 18.8516C62.0699 20.9616 60.5599 23.1116 58.5699 23.0916L44.1399 22.9816C43.2899 22.9716 42.4899 22.5416 42.0699 21.8016C40.8799 19.6916 42.3899 17.5416 44.3799 17.5616L47.0399 17.5816C47.0299 17.4516 47.0299 17.3316 47.0299 17.1916V17.0916C47.0699 13.8616 50.4999 11.4716 53.8999 13.2916Z" fill="#243A5E"/>
<path d="M51.4699 19.2116C52.4899 19.2216 53.3199 18.4016 53.3299 17.3816C53.3399 16.3616 52.5199 15.5316 51.4999 15.5216C50.4799 15.5116 49.6499 16.3316 49.6399 17.3516C49.6499 18.3716 50.4499 19.2016 51.4699 19.2116Z" fill="#F2F2F2"/>
<path d="M73.3194 24.8516H29.6694V64.1116H73.3194V24.8516Z" fill="white"/>
<path d="M47.6403 55.742H43.5803C43.3403 55.742 43.1403 55.542 43.1403 55.302V36.022C43.1403 35.782 43.3403 35.582 43.5803 35.582H47.6403V36.452H44.0203V54.862H47.6403V55.742Z" fill="#78787D"/>
<path d="M63.0803 45.4718H57.5103C57.2703 45.4718 57.0703 45.2718 57.0703 45.0318V36.4618H51.9303V35.5918H57.5103C57.7503 35.5918 57.9503 35.7918 57.9503 36.0318V44.6018H63.0903V45.4718H63.0803Z" fill="#78787D"/>
<path d="M62.8703 35.5918H53.8103V36.4618H62.8703V35.5918Z" fill="#78787D"/>
<path d="M47.6303 43.542H38.6303V44.412H47.6303V43.542Z" fill="#78787D"/>
<path d="M55.5203 33.8418H45.9603V39.4318C45.9603 39.6018 46.1003 39.7318 46.2603 39.7318H55.2003C55.3703 39.7318 55.5003 39.5918 55.5003 39.4318L55.5203 33.8418Z" fill="#50E6FF"/>
<path d="M55.1903 33.0117H46.2803C46.1003 33.0117 45.9503 33.1517 45.9503 33.3417V34.0417H55.5103V33.3417C55.5203 33.1617 55.3703 33.0117 55.1903 33.0117Z" fill="#45CAF2"/>
<path d="M41.1403 41.5215H31.5903V47.1115C31.5903 47.2815 31.7303 47.4115 31.8903 47.4115H40.8303C41.0003 47.4115 41.1303 47.2715 41.1303 47.1115L41.1403 41.5215Z" fill="#9CEBFF"/>
<path d="M40.8203 40.7021H31.9203C31.7403 40.7021 31.5903 40.8421 31.5903 41.0321V41.7321H41.1503V41.0321C41.1403 40.8421 41.0003 40.7021 40.8203 40.7021Z" fill="#50E6FF"/>
<path d="M69.2703 33.8418H59.7103V39.4318C59.7103 39.6018 59.8503 39.7318 60.0103 39.7318H68.9503C69.1203 39.7318 69.2503 39.5918 69.2503 39.4318L69.2703 33.8418Z" fill="#45CAF2"/>
<path d="M68.9503 33.0117H60.0403C59.8603 33.0117 59.7103 33.1517 59.7103 33.3417V34.0417H69.2703V33.3417C69.2703 33.1617 69.1303 33.0117 68.9503 33.0117Z" fill="#32B0E7"/>
<path d="M69.4903 42.7217H59.9303V48.3117C59.9303 48.4817 60.0703 48.6117 60.2303 48.6117H69.1703C69.3403 48.6117 69.4703 48.4717 69.4703 48.3117L69.4903 42.7217Z" fill="#45CAF2"/>
<path d="M69.1703 41.8916H60.2703C60.0903 41.8916 59.9403 42.0316 59.9403 42.2216V42.9216H69.5003V42.2216C69.4903 42.0416 69.3503 41.8916 69.1703 41.8916Z" fill="#32B0E7"/>
<path d="M55.5203 53.1914H45.9603V58.7814C45.9603 58.9514 46.1003 59.0814 46.2603 59.0814H55.2003C55.3703 59.0814 55.5003 58.9414 55.5003 58.7814L55.5203 53.1914Z" fill="#50E6FF"/>
<path d="M55.1903 52.3721H46.2803C46.1003 52.3721 45.9503 52.5121 45.9503 52.7021V53.4021H55.5103V52.7021C55.5203 52.5121 55.3703 52.3721 55.1903 52.3721Z" fill="#45CAF2"/>
<path d="M55.5203 42.4414H45.9603V50.3614C45.9603 50.6414 46.1803 50.8614 46.4603 50.8614H55.0103C55.2903 50.8614 55.5103 50.6414 55.5103 50.3614V42.4414H55.5203Z" fill="#50E6FF"/>
<path d="M55.0603 41.6113H46.4203C46.1703 41.6113 45.9603 41.8213 45.9603 42.0713V42.6413H55.5203V42.0713C55.5203 41.8113 55.3103 41.6113 55.0603 41.6113Z" fill="#45CAF2"/>
<path d="M39.4378 80.3571H35.4404V68.3989C35.4404 67.9687 35.7899 67.6191 36.2201 67.6191H39.4378C39.868 67.6191 40.2175 67.9687 40.2175 68.3989V79.5773C40.2175 80.0075 39.868 80.3571 39.4378 80.3571Z" fill="url(#paint2_linear_148_111944)"/>
<path d="M36.8493 80.3573H32.7515V71.5505C32.7515 71.1758 33.0563 70.8711 33.4309 70.8711H36.8475C37.2222 70.8711 37.5269 71.1758 37.5269 71.5505V79.6761C37.5287 80.0526 37.224 80.3573 36.8493 80.3573Z" fill="url(#paint3_linear_148_111944)"/>
<path d="M34.0781 80.3576H31.072C30.5826 80.3576 30.1865 79.9614 30.1865 79.472V74.8777C30.1865 74.3883 30.5826 73.9922 31.072 73.9922H34.0799C34.5693 73.9922 34.9654 74.3883 34.9654 74.8777V79.472C34.9636 79.9614 34.5675 80.3576 34.0781 80.3576Z" fill="url(#paint4_linear_148_111944)"/>
<path d="M80.1456 52.4952L78.0165 54.5483L83.2785 60.008L86.457 56.8295L85.4229 52.0693L80.1456 52.4952Z" fill="url(#paint5_linear_148_111944)"/>
<path d="M61.287 71.2927L59.1578 73.3306L64.4807 78.7751L67.5375 75.7031L66.5186 70.9277L61.287 71.2927Z" fill="url(#paint6_linear_148_111944)"/>
<path d="M86.1682 51.7345C84.693 50.2593 82.868 49.6814 82.062 50.4266H82.0468L79.72 52.7838C79.7047 52.799 79.72 52.8294 79.7504 52.8142C80.6324 52.3276 82.3053 52.9359 83.6893 54.2894C84.9363 55.5365 85.5447 57.0269 85.2861 57.9546C85.2861 57.985 85.3013 58.0002 85.3165 57.9698L87.4457 55.8559L87.4609 55.8406C87.4609 55.8406 87.4609 55.8406 87.4609 55.8254L87.4761 55.8102C88.2213 55.0498 87.6434 53.2249 86.1682 51.7345Z" fill="#092E4C"/>
<path d="M82.3355 55.5663C80.8755 54.1064 79.0809 53.5284 78.2445 54.2432L60.8008 71.6869C60.7704 71.7173 60.8008 71.7782 60.8464 71.763C61.7741 71.4132 63.3101 72.0063 64.618 73.3142C65.8347 74.5308 66.443 75.9756 66.2301 76.9185C66.2149 76.9641 66.2909 77.0098 66.3213 76.9641L83.6586 59.6269C84.3733 58.8209 83.8106 57.0263 82.3355 55.5663Z" fill="#092E4C"/>
<path d="M63.234 74.6677C61.7284 73.1621 59.8882 72.5994 59.0974 73.3599V73.3751L57.6678 78.7131C57.896 78.485 58.0328 78.8956 58.4587 79.3214C58.8997 79.7473 58.7324 79.6712 58.5043 79.8993L57.4854 80.8118L64.5267 78.8044C65.3023 78.0135 64.7244 76.1581 63.234 74.6677Z" fill="#FFBB00"/>
<path d="M58.8689 79.0934C58.4431 78.6676 57.9108 78.4851 57.6675 78.7132L57.196 80.523C57.1504 80.7055 57.3177 80.8576 57.485 80.812L59.2491 80.2949C59.4772 80.0668 59.31 79.5193 58.8689 79.0934Z" fill="#092E4C"/>
<defs>
<linearGradient id="paint0_linear_148_111944" x1="49.4318" y1="-12.7969" x2="53.4138" y2="132.973" gradientUnits="userSpaceOnUse">
<stop stop-color="#00ABDE"/>
<stop offset="1" stop-color="#007ED8"/>
</linearGradient>
<linearGradient id="paint1_linear_148_111944" x1="2.63616" y1="-19.6305" x2="98.1637" y2="121.251" gradientUnits="userSpaceOnUse">
<stop stop-color="#007ED8"/>
<stop offset="0.7065" stop-color="#002D4C"/>
</linearGradient>
<linearGradient id="paint2_linear_148_111944" x1="37.7757" y1="68.7842" x2="37.8773" y2="79.3533" gradientUnits="userSpaceOnUse">
<stop offset="0.00753769" stop-color="#E0A310"/>
<stop offset="1" stop-color="#CA810E"/>
</linearGradient>
<linearGradient id="paint3_linear_148_111944" x1="35.0122" y1="71.2408" x2="35.3171" y2="82.4195" gradientUnits="userSpaceOnUse">
<stop offset="0.00753769" stop-color="#F2CC40"/>
<stop offset="1" stop-color="#E7B116"/>
</linearGradient>
<linearGradient id="paint4_linear_148_111944" x1="32.4609" y1="74.4822" x2="32.7658" y2="81.6976" gradientUnits="userSpaceOnUse">
<stop stop-color="#F8E17B"/>
<stop offset="0.5302" stop-color="#F6D856"/>
<stop offset="1" stop-color="#F6D856"/>
</linearGradient>
<linearGradient id="paint5_linear_148_111944" x1="78.0191" y1="56.0406" x2="86.4524" y2="56.0406" gradientUnits="userSpaceOnUse">
<stop stop-color="#388CF4"/>
<stop offset="1" stop-color="#2C7CEF"/>
</linearGradient>
<linearGradient id="paint6_linear_148_111944" x1="59.158" y1="74.8475" x2="67.5373" y2="74.8475" gradientUnits="userSpaceOnUse">
<stop stop-color="#388CF4"/>
<stop offset="1" stop-color="#2C7CEF"/>
</linearGradient>
</defs>
</svg>
