<svg width="103" height="103" viewBox="0 0 103 103" fill="none" xmlns="http://www.w3.org/2000/svg">
<path d="M51.4448 98.7919C25.5948 98.7919 4.63477 77.8419 4.63477 51.9819C4.63477 26.1219 25.5948 5.17188 51.4448 5.17188C77.2948 5.17188 98.2548 26.1319 98.2548 51.9819C98.2548 77.8319 77.2948 98.7919 51.4448 98.7919Z" fill="url(#paint0_linear)"/>
<path fill-rule="evenodd" clip-rule="evenodd" d="M97.3449 51.982C97.3449 77.332 76.7949 97.882 51.4449 97.882C26.0949 97.882 5.54493 77.332 5.54493 51.982C5.54493 26.632 26.0949 6.08204 51.4449 6.08204C76.7949 6.08204 97.3449 26.632 97.3449 51.982ZM51.4449 2.34204C78.8649 2.34204 101.085 24.562 101.085 51.982C101.085 79.402 78.8549 101.622 51.4449 101.622C24.0249 101.622 1.80493 79.392 1.80493 51.982C1.80493 24.562 24.0249 2.34204 51.4449 2.34204Z" fill="#F2F1F0"/>
<path fill-rule="evenodd" clip-rule="evenodd" d="M94.5347 51.9819C94.5347 75.7819 75.2447 95.0719 51.4447 95.0719C27.6447 95.0719 8.35475 75.7819 8.35475 51.9819C8.35475 28.1819 27.6447 8.89186 51.4447 8.89186C75.2447 8.89186 94.5347 28.1819 94.5347 51.9819ZM51.4447 5.15186C77.3047 5.15186 98.2747 26.1219 98.2747 51.9819C98.2747 77.8419 77.3047 98.8119 51.4447 98.8119C25.5847 98.8119 4.61475 77.8419 4.61475 51.9819C4.61475 26.1219 25.5747 5.15186 51.4447 5.15186Z" fill="url(#paint1_linear)"/>
<g opacity="0.2">
<path opacity="0.2" d="M71.8447 42.1875H82.4047C82.9447 42.1875 83.3847 41.7475 83.3847 41.2075V30.6175C83.3847 30.0775 82.9447 29.6375 82.4047 29.6375H71.8447C71.3047 29.6375 70.8647 30.0775 70.8647 30.6175V41.1975C70.8547 41.7475 71.2947 42.1875 71.8447 42.1875Z" fill="#1F1D21"/>
<path opacity="0.2" d="M71.8447 59.7375H82.4047C82.9447 59.7375 83.3847 59.2975 83.3847 58.7575V48.1775C83.3847 47.6375 82.9447 47.1975 82.4047 47.1975H71.8447C71.3047 47.1975 70.8647 47.6375 70.8647 48.1775V58.7575C70.8547 59.3075 71.2947 59.7375 71.8447 59.7375Z" fill="#1F1D21"/>
<path opacity="0.2" d="M71.8447 77.2976H82.4047C82.9447 77.2976 83.3847 76.8576 83.3847 76.3176V65.7376C83.3847 65.1976 82.9447 64.7576 82.4047 64.7576H71.8447C71.3047 64.7576 70.8647 65.1976 70.8647 65.7376V76.3176C70.8547 76.8576 71.2947 77.2976 71.8447 77.2976Z" fill="#1F1D21"/>
</g>
<path d="M78.4249 68.5276H63.4749V69.5776H78.4249V68.5276Z" fill="white"/>
<path d="M78.4249 51.4275H63.4749V52.4775H78.4249V51.4275Z" fill="white"/>
<path d="M63.9948 70.7276H62.9448V34.8276C62.9448 34.5376 63.1848 34.2976 63.4748 34.2976H78.4248V35.3476H63.9948V70.7276Z" fill="white"/>
<path opacity="0.2" d="M65.1547 77.2774C65.9147 77.2774 66.5347 76.6574 66.5347 75.8974V30.5474H18.6147V75.9074C18.6147 76.6674 19.2347 77.2874 19.9947 77.2874H65.1547V77.2774Z" fill="#1F1D21"/>
<path d="M66.5348 30.5274V29.7874C66.5348 28.8674 65.7948 28.1274 64.8748 28.1274H20.2848C19.3648 28.1274 18.6248 28.8674 18.6248 29.7874V30.6074V31.3574V74.0174C18.6248 74.9374 19.3648 75.6774 20.2848 75.6774H64.8748C65.7948 75.6774 66.5348 74.9374 66.5348 74.0174V30.6074C66.5348 30.5774 66.5348 30.5574 66.5348 30.5274Z" fill="#F2F1F0"/>
<path d="M52.1148 66.9476H42.4148V37.9476C42.4148 36.9076 43.2648 36.0576 44.3048 36.0576H52.1048C53.1448 36.0576 53.9948 36.9076 53.9948 37.9476V65.0576C54.0048 66.0976 53.1548 66.9476 52.1148 66.9476Z" fill="url(#paint2_linear)"/>
<path d="M45.8348 66.9475H35.8948V45.5875C35.8948 44.6775 36.6348 43.9375 37.5448 43.9375H45.8348C46.7448 43.9375 47.4848 44.6775 47.4848 45.5875V65.2975C47.4748 66.2075 46.7448 66.9475 45.8348 66.9475Z" fill="url(#paint3_linear)"/>
<path d="M39.1148 66.9476H31.8248C30.6348 66.9476 29.6748 65.9876 29.6748 64.7976V53.6576C29.6748 52.4676 30.6348 51.5076 31.8248 51.5076H39.1248C40.3148 51.5076 41.2748 52.4676 41.2748 53.6576V64.7976C41.2548 65.9876 40.2948 66.9476 39.1148 66.9476Z" fill="url(#paint4_linear)"/>
<path d="M71.8047 40.5376H82.4447C82.9647 40.5376 83.3847 40.1176 83.3847 39.5976V28.9376C83.3847 28.4176 82.9647 27.9976 82.4447 27.9976H71.8047C71.2847 27.9976 70.8647 28.4176 70.8647 28.9376V39.5976C70.8547 40.1176 71.2847 40.5376 71.8047 40.5376Z" fill="#F2F1F0"/>
<path d="M71.8047 58.0976H82.4447C82.9647 58.0976 83.3847 57.6776 83.3847 57.1576V46.4976C83.3847 45.9776 82.9647 45.5576 82.4447 45.5576H71.8047C71.2847 45.5576 70.8647 45.9776 70.8647 46.4976V57.1576C70.8547 57.6776 71.2847 58.0976 71.8047 58.0976Z" fill="#F2F1F0"/>
<path d="M71.8047 75.6577H82.4447C82.9647 75.6577 83.3847 75.2377 83.3847 74.7177V64.0577C83.3847 63.5377 82.9647 63.1177 82.4447 63.1177H71.8047C71.2847 63.1177 70.8647 63.5377 70.8647 64.0577V74.7177C70.8547 75.2377 71.2847 75.6577 71.8047 75.6577Z" fill="#F2F1F0"/>
<path d="M80.8748 50.5876H73.3948V55.5776H80.8748V50.5876Z" fill="#45CAF2"/>
<path d="M80.8748 65.6174H73.3948V73.0974H80.8748V65.6174Z" fill="#32B0E7"/>
<path d="M80.8748 35.5176H73.3948V38.0276H80.8748V35.5176Z" fill="#50E6FF"/>
<defs>
<linearGradient id="paint0_linear" x1="49.6749" y1="-12.8076" x2="53.6569" y2="132.962" gradientUnits="userSpaceOnUse">
<stop stop-color="#00ABDE"/>
<stop offset="1" stop-color="#007ED8"/>
</linearGradient>
<linearGradient id="paint1_linear" x1="2.87745" y1="-19.6426" x2="98.4045" y2="121.239" gradientUnits="userSpaceOnUse">
<stop stop-color="#007ED8"/>
<stop offset="0.7065" stop-color="#002D4C"/>
</linearGradient>
<linearGradient id="paint2_linear" x1="48.0781" y1="38.8802" x2="48.3245" y2="64.514" gradientUnits="userSpaceOnUse">
<stop offset="0.00753769" stop-color="#E0A310"/>
<stop offset="1" stop-color="#CA810E"/>
</linearGradient>
<linearGradient id="paint3_linear" x1="41.3728" y1="44.8376" x2="42.1123" y2="71.9499" gradientUnits="userSpaceOnUse">
<stop offset="0.00753769" stop-color="#F2CC40"/>
<stop offset="1" stop-color="#E7B116"/>
</linearGradient>
<linearGradient id="paint4_linear" x1="35.1918" y1="52.6985" x2="35.9312" y2="70.1985" gradientUnits="userSpaceOnUse">
<stop stop-color="#F8E17B"/>
<stop offset="0.5302" stop-color="#F6D856"/>
<stop offset="1" stop-color="#F6D856"/>
</linearGradient>
</defs>
</svg>
