<svg width="103" height="103" viewBox="0 0 103 103" fill="none" xmlns="http://www.w3.org/2000/svg">
<path d="M51.2497 98.4735C25.3997 98.4735 4.4397 77.5235 4.4397 51.6635C4.4397 25.8035 25.3997 4.85352 51.2497 4.85352C77.0997 4.85352 98.0597 25.8135 98.0597 51.6635C98.0597 77.5135 77.0997 98.4735 51.2497 98.4735Z" fill="url(#paint0_linear)"/>
<path fill-rule="evenodd" clip-rule="evenodd" d="M97.1499 51.6636C97.1499 77.0136 76.5999 97.5636 51.2499 97.5636C25.8999 97.5636 5.34986 77.0136 5.34986 51.6636C5.34986 26.3136 25.8999 5.76356 51.2499 5.76356C76.5999 5.76356 97.1499 26.3136 97.1499 51.6636ZM51.2499 2.02356C78.6699 2.02356 100.89 24.2436 100.89 51.6636C100.89 79.0836 78.6599 101.304 51.2499 101.304C23.8299 101.304 1.60986 79.0736 1.60986 51.6636C1.60986 24.2436 23.8299 2.02356 51.2499 2.02356Z" fill="#F2F1F0"/>
<path fill-rule="evenodd" clip-rule="evenodd" d="M94.3397 51.6636C94.3397 75.4636 75.0497 94.7536 51.2497 94.7536C27.4497 94.7536 8.15968 75.4636 8.15968 51.6636C8.15968 27.8636 27.4497 8.57362 51.2497 8.57362C75.0497 8.57362 94.3397 27.8636 94.3397 51.6636ZM51.2497 4.83362C77.1097 4.83362 98.0797 25.8036 98.0797 51.6636C98.0797 77.5236 77.1097 98.4936 51.2497 98.4936C25.3897 98.4936 4.41968 77.5236 4.41968 51.6636C4.41968 25.8036 25.3797 4.83362 51.2497 4.83362Z" fill="url(#paint1_linear)"/>
<path fill-rule="evenodd" clip-rule="evenodd" d="M51.8848 38.9034C51.8848 38.6963 52.0527 38.5284 52.2598 38.5284H58.0898V39.2784H52.6348V66.2084H58.0898V66.9584H52.2598C52.0527 66.9584 51.8848 66.7905 51.8848 66.5834V38.9034Z" fill="white"/>
<path fill-rule="evenodd" clip-rule="evenodd" d="M64.2498 38.5284H72.2598C72.4669 38.5284 72.6348 38.6963 72.6348 38.9034V51.4584H80.2598V52.2084H72.2598C72.0527 52.2084 71.8848 52.0405 71.8848 51.8334V39.2784H64.2498V38.5284Z" fill="white"/>
<path fill-rule="evenodd" clip-rule="evenodd" d="M79.9697 39.2784H66.9597V38.5284H79.9697V39.2784Z" fill="white"/>
<path fill-rule="evenodd" clip-rule="evenodd" d="M45.1597 49.9385H58.0797V50.6885H45.1597V49.9385Z" fill="white"/>
<path d="M69.4097 35.7634H55.6897V43.7934C55.6897 44.0334 55.8897 44.2334 56.1297 44.2334H68.9697C69.2097 44.2334 69.4097 44.0334 69.4097 43.7934V35.7634Z" fill="#50E6FF"/>
<path d="M68.9497 34.5735H56.1597C55.8997 34.5735 55.6897 34.7835 55.6897 35.0435V36.0435H69.4097V35.0435C69.4097 34.7835 69.1997 34.5735 68.9497 34.5735Z" fill="white"/>
<path d="M89.1597 35.7634H75.4397V43.7934C75.4397 44.0334 75.6397 44.2334 75.8797 44.2334H88.7197C88.9597 44.2334 89.1597 44.0334 89.1597 43.7934V35.7634Z" fill="#45CAF2"/>
<path d="M88.6997 34.5735H75.9097C75.6497 34.5735 75.4397 34.7835 75.4397 35.0435V36.0435H89.1597V35.0435C89.1597 34.7835 88.9597 34.5735 88.6997 34.5735Z" fill="white"/>
<path d="M89.4798 48.5134H75.7498V56.5434C75.7498 56.7834 75.9498 56.9834 76.1898 56.9834H89.0298C89.2698 56.9834 89.4698 56.7834 89.4698 56.5434L89.4798 48.5134Z" fill="#45CAF2"/>
<path d="M89.0098 47.3235H76.2298C75.9698 47.3235 75.7598 47.5335 75.7598 47.7935V48.7935H89.4798V47.7935C89.4798 47.5335 89.2698 47.3235 89.0098 47.3235Z" fill="white"/>
<path d="M69.4097 63.5535H55.6897V71.5835C55.6897 71.8235 55.8897 72.0235 56.1297 72.0235H68.9697C69.2097 72.0235 69.4097 71.8235 69.4097 71.5835V63.5535Z" fill="#50E6FF"/>
<path d="M68.9497 62.3635H56.1597C55.8997 62.3635 55.6897 62.5735 55.6897 62.8335V63.8335H69.4097V62.8335C69.4097 62.5735 69.1997 62.3635 68.9497 62.3635Z" fill="white"/>
<path d="M69.4097 48.1135H55.6897V59.4935C55.6897 59.8935 56.0097 60.2135 56.4097 60.2135H68.6897C69.0897 60.2135 69.4097 59.8935 69.4097 59.4935V48.1135Z" fill="#50E6FF"/>
<path d="M68.7497 46.9235H56.3497C55.9897 46.9235 55.6897 47.2235 55.6897 47.5835V48.4035H69.4097V47.5835C69.4097 47.2135 69.1197 46.9235 68.7497 46.9235Z" fill="white"/>
<path opacity="0.2" d="M46.8296 68.9536C47.3696 68.9536 47.8096 68.5136 47.8096 67.9736V37.0536H15.1096V67.9736C15.1096 68.5136 15.5496 68.9536 16.0896 68.9536H46.8296Z" fill="#1F1D21"/>
<path d="M47.8096 37.0636V36.5536C47.8096 35.9236 47.2996 35.4136 46.6696 35.4136H16.2396C15.6096 35.4136 15.0996 35.9236 15.0996 36.5536V37.1136V37.6236V66.7436C15.0996 67.3736 15.6096 67.8836 16.2396 67.8836H46.6796C47.3096 67.8836 47.8196 67.3736 47.8196 66.7436V37.1236C47.8096 37.1036 47.8096 37.0836 47.8096 37.0636Z" fill="#F2F1F0"/>
<path d="M32.0599 42.8436L30.0499 40.7635C29.7799 40.4835 29.3199 40.4936 29.0599 40.7936L20.5599 50.5036C20.1799 50.9336 20.1799 51.5835 20.5599 52.0135L28.9899 61.7036C29.3099 62.0636 29.8699 62.0636 30.1899 61.7036L32.7099 58.8035L32.9899 43.8535L32.0599 42.8436Z" fill="url(#paint2_linear)"/>
<path d="M41.9599 50.0835L33.5799 40.9235C33.2199 40.5335 32.6099 40.5335 32.2399 40.9135L28.3699 44.9135C27.9499 45.3435 27.9399 46.0335 28.3599 46.4735L32.3299 50.7335C32.6199 51.0435 32.6199 51.5335 32.3299 51.8435L28.3399 56.1535C27.9299 56.5935 27.9399 57.2835 28.3599 57.7135L32.2399 61.7435C32.6099 62.1235 33.2299 62.1235 33.5899 61.7335L41.9699 52.5035C42.5799 51.8035 42.5799 50.7635 41.9599 50.0835Z" fill="url(#paint3_linear)"/>
<path d="M42.3598 52.0535L38.6198 56.2035C38.3398 56.5135 37.8498 56.5235 37.5498 56.2235L33.7898 52.3835C33.1798 51.7635 33.1798 50.7635 33.7798 50.1435L37.4698 46.3335C37.7598 46.0335 38.2598 46.0335 38.5398 46.3535L42.3598 50.5635C42.7398 50.9735 42.7398 51.6235 42.3598 52.0535Z" fill="url(#paint4_linear)"/>
<defs>
<linearGradient id="paint0_linear" x1="49.4798" y1="-13.126" x2="53.4618" y2="132.644" gradientUnits="userSpaceOnUse">
<stop stop-color="#00ABDE"/>
<stop offset="1" stop-color="#007ED8"/>
</linearGradient>
<linearGradient id="paint1_linear" x1="2.68238" y1="-19.9609" x2="98.2094" y2="120.92" gradientUnits="userSpaceOnUse">
<stop stop-color="#007ED8"/>
<stop offset="0.7065" stop-color="#002D4C"/>
</linearGradient>
<linearGradient id="paint2_linear" x1="26.0925" y1="41.3623" x2="27.6522" y2="59.6885" gradientUnits="userSpaceOnUse">
<stop stop-color="#A23093"/>
<stop offset="1" stop-color="#692266"/>
</linearGradient>
<linearGradient id="paint3_linear" x1="28.0333" y1="51.3193" x2="42.4277" y2="51.3193" gradientUnits="userSpaceOnUse">
<stop stop-color="#E184C4"/>
<stop offset="1" stop-color="#D76EBC"/>
</linearGradient>
<linearGradient id="paint4_linear" x1="33.3322" y1="51.2734" x2="42.6475" y2="51.2734" gradientUnits="userSpaceOnUse">
<stop stop-color="#E89BCA"/>
<stop offset="1" stop-color="#E591C8"/>
</linearGradient>
</defs>
</svg>
