<svg width="100" height="100" viewBox="0 0 100 100" fill="none" xmlns="http://www.w3.org/2000/svg">
<g clip-path="url(#clip0)">
<path d="M49.6401 96.4501C40.382 96.4501 31.3317 93.7047 23.6339 88.5612C15.936 83.4176 9.93624 76.1069 6.3933 67.5535C2.85036 59.0001 1.92337 49.5882 3.72954 40.5079C5.53571 31.4277 9.99394 23.0869 16.5404 16.5404C23.0869 9.99393 31.4277 5.53571 40.5079 3.72954C49.5882 1.92337 59.0001 2.85036 67.5535 6.3933C76.1069 9.93624 83.4176 15.936 88.5612 23.6339C93.7047 31.3317 96.4501 40.382 96.4501 49.6401C96.4505 55.7874 95.24 61.8746 92.8878 67.554C90.5355 73.2335 87.0875 78.3939 82.7407 82.7407C78.3939 87.0875 73.2335 90.5355 67.554 92.8878C61.8746 95.24 55.7874 96.4505 49.6401 96.4501V96.4501Z" fill="url(#paint0_linear)"/>
<path fill-rule="evenodd" clip-rule="evenodd" d="M95.54 49.64C95.54 58.7182 92.848 67.5925 87.8045 75.1407C82.7609 82.6889 75.5923 88.572 67.2052 92.0461C58.818 95.5201 49.5891 96.4291 40.6854 94.658C31.7816 92.887 23.603 88.5154 17.1838 82.0962C10.7646 75.677 6.39302 67.4984 4.62196 58.5946C2.85089 49.6909 3.75987 40.462 7.23393 32.0748C10.708 23.6877 16.5911 16.5191 24.1393 11.4755C31.6875 6.43199 40.5618 3.74 49.64 3.74C55.6677 3.73998 61.6363 4.9272 67.2052 7.23388C72.774 9.54057 77.834 12.9215 82.0963 17.1837C86.3585 21.446 89.7394 26.5059 92.0461 32.0748C94.3528 37.6437 95.54 43.6123 95.54 49.64V49.64ZM49.64 3.62732e-07C59.4579 3.62732e-07 69.0553 2.91134 77.2185 8.36585C85.3818 13.8204 91.7442 21.5731 95.5014 30.6436C99.2585 39.7141 100.242 49.6951 98.3262 59.3243C96.4108 68.9535 91.6831 77.7985 84.7408 84.7408C77.7985 91.6831 68.9535 96.4108 59.3243 98.3262C49.6951 100.242 39.7141 99.2585 30.6436 95.5014C21.5731 91.7442 13.8204 85.3818 8.36585 77.2185C2.91134 69.0553 3.62732e-07 59.4579 3.62732e-07 49.64C-0.000787738 43.121 1.28265 36.6656 3.77702 30.6427C6.27138 24.6197 9.9278 19.1471 14.5375 14.5375C19.1471 9.9278 24.6197 6.27138 30.6427 3.77702C36.6656 1.28265 43.121 -0.000787738 49.64 3.62732e-07V3.62732e-07Z" fill="#F2F1F0"/>
<path fill-rule="evenodd" clip-rule="evenodd" d="M92.7296 49.6406C92.7296 58.163 90.2024 66.494 85.4676 73.5801C80.7328 80.6662 74.0031 86.1892 66.1294 89.4505C58.2557 92.7119 49.5918 93.5653 41.2331 91.9026C32.8745 90.24 25.1966 86.1361 19.1703 80.1098C13.1441 74.0836 9.04017 66.4057 7.37753 58.047C5.7149 49.6884 6.56822 41.0244 9.8296 33.1507C13.091 25.2771 18.6139 18.5473 25.7 13.8126C32.7862 9.07776 41.1172 6.55058 49.6396 6.55058C55.2983 6.55023 60.9017 7.66455 66.1298 9.82991C71.3579 11.9953 76.1082 15.1692 80.1096 19.1706C84.1109 23.1719 87.2849 27.9223 89.4502 33.1503C91.6156 38.3784 92.7299 43.9818 92.7296 49.6406V49.6406ZM49.6396 2.81058C58.9017 2.81058 67.9558 5.55711 75.6569 10.7029C83.3581 15.8486 89.3604 23.1624 92.9049 31.7195C96.4493 40.2766 97.3767 49.6925 95.5697 58.7767C93.7628 67.8608 89.3027 76.2051 82.7534 82.7544C76.2041 89.3037 67.8598 93.7638 58.7757 95.5708C49.6915 97.3777 40.2756 96.4503 31.7185 92.9059C23.1614 89.3614 15.8476 83.3591 10.7018 75.6579C5.5561 67.9568 2.80957 58.9027 2.80957 49.6406C2.81076 37.2209 7.745 25.3101 16.5271 16.5281C25.3091 7.74599 37.2198 2.81174 49.6396 2.81055V2.81058Z" fill="#0078D4"/>
<path fill-rule="evenodd" clip-rule="evenodd" d="M92.7296 49.6405C92.7296 58.1629 90.2024 66.494 85.4676 73.5801C80.7328 80.6662 74.0031 86.1891 66.1294 89.4505C58.2557 92.7119 49.5918 93.5652 41.2331 91.9026C32.8745 90.24 25.1966 86.136 19.1703 80.1098C13.1441 74.0835 9.04017 66.4056 7.37753 58.047C5.7149 49.6883 6.56822 41.0244 9.8296 33.1507C13.091 25.277 18.6139 18.5473 25.7001 13.8125C32.7862 9.07773 41.1172 6.55055 49.6396 6.55055C55.2983 6.5502 60.9017 7.66452 66.1298 9.82988C71.3579 11.9952 76.1082 15.1692 80.1096 19.1705C84.1109 23.1719 87.2849 27.9222 89.4502 33.1503C91.6156 38.3784 92.7299 43.9818 92.7296 49.6405V49.6405ZM49.6396 2.81055C58.9017 2.81055 67.9558 5.55708 75.6569 10.7028C83.3581 15.8486 89.3604 23.1624 92.9048 31.7195C96.4493 40.2765 97.3767 49.6925 95.5697 58.7766C93.7628 67.8608 89.3027 76.2051 82.7534 82.7544C76.2041 89.3036 67.8598 93.7638 58.7757 95.5707C49.6915 97.3777 40.2756 96.4503 31.7185 92.9058C23.1614 89.3614 15.8476 83.3591 10.7018 75.6579C5.5561 67.9568 2.80957 58.9026 2.80957 49.6405C2.81076 37.2208 7.74501 25.3101 16.5271 16.5281C25.3091 7.74599 37.2198 2.81174 49.6396 2.81055V2.81055Z" fill="#0078D4"/>
<path d="M61.4897 34.4453H37.7928C36.3423 34.4453 35.1665 35.6211 35.1665 37.0716V70.4858C35.1665 71.9362 36.3423 73.1121 37.7928 73.1121H61.4897C62.9401 73.1121 64.1159 71.9362 64.1159 70.4858V37.0716C64.1159 35.6211 62.9401 34.4453 61.4897 34.4453Z" fill="white"/>
<path d="M42.032 49.5195H46.823V59.7162H42.032C41.8079 59.7162 41.593 59.6272 41.4345 59.4687C41.276 59.3103 41.187 59.0953 41.187 58.8712V50.3645C41.187 50.1404 41.276 49.9255 41.4345 49.767C41.593 49.6086 41.8079 49.5195 42.032 49.5195V49.5195Z" fill="#FFE452"/>
<path d="M47.6682 40.3223H51.6142C51.8383 40.3223 52.0533 40.4113 52.2117 40.5698C52.3702 40.7282 52.4592 40.9432 52.4592 41.1673V59.7174H46.8232V41.1673C46.8232 40.9431 46.9123 40.7282 47.0707 40.5698C47.2292 40.4113 47.4441 40.3223 47.6682 40.3223Z" fill="#FFCA00"/>
<path d="M52.459 45.1602H57.25C57.4741 45.1602 57.689 45.2492 57.8475 45.4076C58.006 45.5661 58.095 45.781 58.095 46.0052V58.8725C58.095 59.0966 58.006 59.3115 57.8475 59.47C57.689 59.6284 57.4741 59.7175 57.25 59.7175H52.459V45.1602Z" fill="#FF9300"/>
<path d="M45.5283 64.1914H56.0458" stroke="#E8E8E8" stroke-width="1.02455" stroke-miterlimit="10" stroke-linecap="round"/>
<path d="M42.7213 65.1448C43.2478 65.1448 43.6746 64.718 43.6746 64.1916C43.6746 63.6651 43.2478 63.2383 42.7213 63.2383C42.1949 63.2383 41.7681 63.6651 41.7681 64.1916C41.7681 64.718 42.1949 65.1448 42.7213 65.1448Z" fill="#E8E8E8"/>
<path d="M45.5283 67.3906H56.0458" stroke="#E8E8E8" stroke-width="1.02455" stroke-miterlimit="10" stroke-linecap="round"/>
<path d="M42.7213 68.3441C43.2478 68.3441 43.6746 67.9173 43.6746 67.3908C43.6746 66.8643 43.2478 66.4375 42.7213 66.4375C42.1949 66.4375 41.7681 66.8643 41.7681 67.3908C41.7681 67.9173 42.1949 68.3441 42.7213 68.3441Z" fill="#E8E8E8"/>
<path opacity="0.2" d="M40.5155 38.8281H35.1665V68.7278H40.5155C41.3909 68.7269 42.2302 68.3787 42.8492 67.7597C43.4682 67.1407 43.8163 66.3014 43.8173 65.426V42.13C43.8164 41.2546 43.4682 40.4153 42.8492 39.7963C42.2302 39.1772 41.3909 38.8291 40.5155 38.8281V38.8281Z" fill="#767676"/>
<path opacity="0.2" d="M64.1159 38.8281H58.5923C57.7169 38.8291 56.8776 39.1772 56.2586 39.7963C55.6396 40.4153 55.2915 41.2546 55.2905 42.13V65.426C55.2915 66.3014 55.6396 67.1407 56.2586 67.7597C56.8776 68.3787 57.7169 68.7269 58.5923 68.7278H64.1159V38.8281Z" fill="#767676"/>
<path d="M40.5156 40.877H17.2195C16.5276 40.877 15.9668 41.4378 15.9668 42.1296V65.4258C15.9668 66.1176 16.5276 66.6784 17.2195 66.6784H40.5156C41.2075 66.6784 41.7683 66.1176 41.7683 65.4258V42.1296C41.7683 41.4378 41.2075 40.877 40.5156 40.877Z" fill="#1F56A3"/>
<path fill-rule="evenodd" clip-rule="evenodd" d="M20.1727 50.0664C20.0858 50.0664 19.9997 50.0492 19.9195 50.0158C19.8392 49.9824 19.7664 49.9333 19.7052 49.8716C19.581 49.7467 19.5112 49.5777 19.5112 49.4016C19.5112 49.2254 19.581 49.0564 19.7052 48.9316L21.2217 47.4073L19.7052 45.883C19.581 45.7581 19.5112 45.5891 19.5112 45.413C19.5112 45.2368 19.581 45.0679 19.7052 44.943C19.7664 44.8812 19.8392 44.8322 19.9195 44.7987C19.9997 44.7653 20.0858 44.748 20.1727 44.748C20.2597 44.748 20.3458 44.7653 20.426 44.7987C20.5063 44.8322 20.5791 44.8812 20.6403 44.943L22.6244 46.9373C22.7486 47.0622 22.8183 47.2311 22.8183 47.4073C22.8183 47.5834 22.7486 47.7524 22.6244 47.8773L20.6403 49.8715C20.5791 49.9333 20.5063 49.9823 20.426 50.0158C20.3458 50.0492 20.2597 50.0664 20.1727 50.0664V50.0664Z" fill="white"/>
<path fill-rule="evenodd" clip-rule="evenodd" d="M26.786 50.0658H24.1407C23.9648 50.0651 23.7964 49.9948 23.6723 49.8702C23.5482 49.7456 23.4785 49.5769 23.4785 49.4011C23.4785 49.2252 23.5482 49.0565 23.6723 48.9319C23.7964 48.8073 23.9648 48.737 24.1407 48.7363H26.786C26.9619 48.737 27.1303 48.8073 27.2544 48.9319C27.3785 49.0565 27.4482 49.2252 27.4482 49.4011C27.4482 49.5769 27.3785 49.7456 27.2544 49.8702C27.1303 49.9948 26.9619 50.0651 26.786 50.0658V50.0658Z" fill="white"/>
<path d="M26.9231 53.0836H19.8987C19.7465 53.0836 19.6005 53.0231 19.4928 52.9155C19.3852 52.8078 19.3247 52.6618 19.3247 52.5096C19.3247 52.3573 19.3852 52.2113 19.4928 52.1037C19.6005 51.996 19.7465 51.9355 19.8987 51.9355H26.9231C27.0753 51.9355 27.2213 51.996 27.329 52.1037C27.4366 52.2113 27.4971 52.3573 27.4971 52.5096C27.4971 52.6618 27.4366 52.8078 27.329 52.9155C27.2213 53.0231 27.0753 53.0836 26.9231 53.0836Z" fill="#50E6FF"/>
<path d="M34.0488 53.0836H29.5745C29.4223 53.0836 29.2763 53.0231 29.1686 52.9155C29.061 52.8078 29.0005 52.6618 29.0005 52.5096C29.0005 52.3573 29.061 52.2113 29.1686 52.1037C29.2763 51.996 29.4223 51.9355 29.5745 51.9355H34.0488C34.201 51.9355 34.347 51.996 34.4546 52.1037C34.5623 52.2113 34.6228 52.3573 34.6228 52.5096C34.6228 52.6618 34.5623 52.8078 34.4546 52.9155C34.347 53.0231 34.201 53.0836 34.0488 53.0836Z" fill="#0078D4"/>
<path d="M30.8233 56.3667H19.8987C19.7465 56.3667 19.6005 56.3063 19.4928 56.1986C19.3852 56.091 19.3247 55.945 19.3247 55.7927C19.3247 55.6405 19.3852 55.4945 19.4928 55.3869C19.6005 55.2792 19.7465 55.2187 19.8987 55.2188H30.8233C30.9755 55.2187 31.1215 55.2792 31.2292 55.3869C31.3368 55.4945 31.3973 55.6405 31.3973 55.7927C31.3973 55.945 31.3368 56.091 31.2292 56.1986C31.1215 56.3063 30.9755 56.3667 30.8233 56.3667V56.3667Z" fill="#0078D4"/>
<path d="M37.8362 56.3667H33.3626C33.2103 56.3667 33.0643 56.3063 32.9567 56.1986C32.849 56.091 32.7886 55.945 32.7886 55.7927C32.7886 55.6405 32.849 55.4945 32.9567 55.3869C33.0643 55.2792 33.2103 55.2187 33.3626 55.2188H37.8362C37.9885 55.2187 38.1345 55.2792 38.2421 55.3869C38.3498 55.4945 38.4102 55.6405 38.4102 55.7927C38.4102 55.945 38.3498 56.091 38.2421 56.1986C38.1345 56.3063 37.9885 56.3667 37.8362 56.3667V56.3667Z" fill="white"/>
<path d="M30.8233 62.8082H19.8987C19.7465 62.8082 19.6005 62.7477 19.4928 62.6401C19.3852 62.5324 19.3247 62.3864 19.3247 62.2342C19.3247 62.0819 19.3852 61.9359 19.4928 61.8283C19.6005 61.7206 19.7465 61.6602 19.8987 61.6602H30.8233C30.9756 61.6602 31.1216 61.7206 31.2292 61.8283C31.3369 61.9359 31.3973 62.0819 31.3973 62.2342C31.3973 62.3864 31.3369 62.5324 31.2292 62.6401C31.1216 62.7477 30.9756 62.8082 30.8233 62.8082V62.8082Z" fill="#0078D4"/>
<path d="M37.8363 62.8082H33.3626C33.2104 62.8082 33.0644 62.7477 32.9567 62.6401C32.8491 62.5324 32.7886 62.3864 32.7886 62.2342C32.7886 62.0819 32.8491 61.9359 32.9567 61.8283C33.0644 61.7206 33.2104 61.6602 33.3626 61.6602H37.8363C37.9885 61.6602 38.1345 61.7206 38.2422 61.8283C38.3498 61.9359 38.4103 62.0819 38.4103 62.2342C38.4103 62.3864 38.3498 62.5324 38.2422 62.6401C38.1345 62.7477 37.9885 62.8082 37.8363 62.8082V62.8082Z" fill="white"/>
<path d="M26.9231 59.648H19.8987C19.7465 59.648 19.6005 59.5875 19.4928 59.4799C19.3852 59.3722 19.3247 59.2262 19.3247 59.074C19.3247 58.9218 19.3852 58.7758 19.4928 58.6681C19.6005 58.5605 19.7465 58.5 19.8987 58.5H26.9231C27.0753 58.5 27.2213 58.5605 27.329 58.6681C27.4366 58.7758 27.4971 58.9218 27.4971 59.074C27.4971 59.2262 27.4366 59.3722 27.329 59.4799C27.2213 59.5875 27.0753 59.648 26.9231 59.648Z" fill="#50E6FF"/>
<path d="M34.0487 59.648H29.5745C29.4223 59.648 29.2763 59.5875 29.1686 59.4799C29.061 59.3722 29.0005 59.2262 29.0005 59.074C29.0005 58.9218 29.061 58.7758 29.1686 58.6681C29.2763 58.5605 29.4223 58.5 29.5745 58.5H34.0487C34.201 58.5 34.347 58.5605 34.4546 58.6681C34.5623 58.7758 34.6227 58.9218 34.6227 59.074C34.6227 59.2262 34.5623 59.3722 34.4546 59.4799C34.347 59.5875 34.201 59.648 34.0487 59.648Z" fill="#C3F1FF"/>
<path d="M81.8877 40.877H58.5915C57.8997 40.877 57.3389 41.4378 57.3389 42.1296V65.4258C57.3389 66.1176 57.8997 66.6784 58.5915 66.6784H81.8877C82.5795 66.6784 83.1404 66.1176 83.1404 65.4258V42.1296C83.1404 41.4378 82.5795 40.877 81.8877 40.877Z" fill="white"/>
<path fill-rule="evenodd" clip-rule="evenodd" d="M61.5448 50.0664C61.4579 50.0664 61.3718 50.0492 61.2915 50.0158C61.2113 49.9824 61.1384 49.9333 61.0772 49.8716C60.953 49.7467 60.8833 49.5777 60.8833 49.4016C60.8833 49.2254 60.953 49.0565 61.0772 48.9316L62.5938 47.4073L61.0772 45.883C60.953 45.7581 60.8833 45.5891 60.8833 45.413C60.8833 45.2369 60.953 45.0679 61.0772 44.943C61.1384 44.8812 61.2113 44.8322 61.2915 44.7987C61.3718 44.7653 61.4579 44.748 61.5448 44.748C61.6318 44.748 61.7178 44.7653 61.7981 44.7987C61.8784 44.8322 61.9512 44.8812 62.0124 44.943L63.9965 46.9373C64.1207 47.0622 64.1904 47.2311 64.1904 47.4073C64.1904 47.5834 64.1207 47.7524 63.9965 47.8773L62.0124 49.8715C61.9512 49.9333 61.8784 49.9823 61.7981 50.0158C61.7179 50.0492 61.6318 50.0664 61.5448 50.0664V50.0664Z" fill="#C3F1FF"/>
<path fill-rule="evenodd" clip-rule="evenodd" d="M68.1582 50.0658H65.5127C65.3369 50.0651 65.1685 49.9948 65.0444 49.8702C64.9203 49.7456 64.8506 49.5769 64.8506 49.4011C64.8506 49.2252 64.9203 49.0565 65.0444 48.9319C65.1685 48.8073 65.3369 48.737 65.5127 48.7363H68.1582C68.334 48.737 68.5024 48.8073 68.6265 48.9319C68.7506 49.0565 68.8203 49.2252 68.8203 49.4011C68.8203 49.5769 68.7506 49.7456 68.6265 49.8702C68.5024 49.9948 68.334 50.0651 68.1582 50.0658V50.0658Z" fill="#C3F1FF"/>
<path d="M68.2952 53.0836H61.2708C61.1186 53.0836 60.9726 53.0231 60.8649 52.9155C60.7573 52.8078 60.6968 52.6618 60.6968 52.5096C60.6968 52.3573 60.7573 52.2113 60.8649 52.1037C60.9726 51.996 61.1186 51.9355 61.2708 51.9355H68.2952C68.4474 51.9355 68.5934 51.996 68.7011 52.1037C68.8087 52.2113 68.8692 52.3573 68.8692 52.5096C68.8692 52.6618 68.8087 52.8078 68.7011 52.9155C68.5934 53.0231 68.4474 53.0836 68.2952 53.0836V53.0836Z" fill="#50E6FF"/>
<path d="M75.4213 53.0836H70.9471C70.7948 53.0836 70.6488 53.0231 70.5412 52.9155C70.4335 52.8078 70.373 52.6618 70.373 52.5096C70.373 52.3573 70.4335 52.2113 70.5412 52.1037C70.6488 51.996 70.7948 51.9355 70.9471 51.9355H75.4213C75.5736 51.9355 75.7196 51.996 75.8272 52.1037C75.9349 52.2113 75.9953 52.3573 75.9953 52.5096C75.9953 52.6618 75.9349 52.8078 75.8272 52.9155C75.7196 53.0231 75.5736 53.0836 75.4213 53.0836Z" fill="#0078D4"/>
<path d="M72.1954 56.3667H61.2708C61.1185 56.3667 60.9725 56.3063 60.8649 56.1986C60.7573 56.091 60.6968 55.945 60.6968 55.7927C60.6968 55.6405 60.7573 55.4945 60.8649 55.3869C60.9725 55.2792 61.1185 55.2187 61.2708 55.2188H72.1954C72.3476 55.2187 72.4936 55.2792 72.6012 55.3869C72.7089 55.4945 72.7694 55.6405 72.7694 55.7927C72.7694 55.945 72.7089 56.091 72.6012 56.1986C72.4936 56.3063 72.3476 56.3667 72.1954 56.3667V56.3667Z" fill="#0078D4"/>
<path d="M79.2088 56.3667H74.7351C74.5829 56.3667 74.4369 56.3063 74.3293 56.1986C74.2216 56.091 74.1611 55.945 74.1611 55.7927C74.1611 55.6405 74.2216 55.4945 74.3293 55.3869C74.4369 55.2792 74.5829 55.2187 74.7351 55.2188H79.2088C79.361 55.2187 79.507 55.2792 79.6147 55.3869C79.7223 55.4945 79.7828 55.6405 79.7828 55.7927C79.7828 55.945 79.7223 56.091 79.6147 56.1986C79.507 56.3063 79.361 56.3667 79.2088 56.3667H79.2088Z" fill="#50E6FF"/>
<path d="M72.1954 62.8082H61.2708C61.1186 62.8082 60.9726 62.7477 60.8649 62.6401C60.7573 62.5324 60.6968 62.3864 60.6968 62.2342C60.6968 62.0819 60.7573 61.9359 60.8649 61.8283C60.9726 61.7206 61.1186 61.6602 61.2708 61.6602H72.1954C72.3476 61.6602 72.4936 61.7206 72.6013 61.8283C72.7089 61.9359 72.7694 62.0819 72.7694 62.2342C72.7694 62.3864 72.7089 62.5324 72.6013 62.6401C72.4936 62.7477 72.3476 62.8082 72.1954 62.8082V62.8082Z" fill="#0078D4"/>
<path d="M79.2088 62.8082H74.7352C74.5829 62.8082 74.4369 62.7477 74.3293 62.6401C74.2216 62.5324 74.1611 62.3864 74.1611 62.2342C74.1611 62.0819 74.2216 61.9359 74.3293 61.8283C74.4369 61.7206 74.5829 61.6602 74.7352 61.6602H79.2088C79.3611 61.6602 79.5071 61.7206 79.6147 61.8283C79.7224 61.9359 79.7828 62.0819 79.7828 62.2342C79.7828 62.3864 79.7224 62.5324 79.6147 62.6401C79.5071 62.7477 79.3611 62.8082 79.2088 62.8082H79.2088Z" fill="white"/>
<path d="M68.2951 59.648H61.2708C61.1185 59.648 60.9725 59.5875 60.8649 59.4799C60.7573 59.3722 60.6968 59.2262 60.6968 59.074C60.6968 58.9218 60.7573 58.7758 60.8649 58.6681C60.9725 58.5605 61.1185 58.5 61.2708 58.5H68.2951C68.4474 58.5 68.5934 58.5605 68.701 58.6681C68.8087 58.7758 68.8691 58.9218 68.8691 59.074C68.8691 59.2262 68.8087 59.3722 68.701 59.4799C68.5934 59.5875 68.4474 59.648 68.2951 59.648V59.648Z" fill="#50E6FF"/>
<path d="M75.4213 59.648H70.9471C70.7948 59.648 70.6488 59.5875 70.5412 59.4799C70.4335 59.3722 70.373 59.2262 70.373 59.074C70.373 58.9218 70.4335 58.7758 70.5412 58.6681C70.6488 58.5605 70.7948 58.5 70.9471 58.5H75.4213C75.5735 58.5 75.7195 58.5605 75.8272 58.6681C75.9348 58.7758 75.9953 58.9218 75.9953 59.074C75.9953 59.2262 75.9348 59.3722 75.8272 59.4799C75.7195 59.5875 75.5735 59.648 75.4213 59.648V59.648Z" fill="#C3F1FF"/>
<path d="M49.6409 31.442C52.8993 31.442 55.5407 28.8006 55.5407 25.5423C55.5407 22.284 52.8993 19.6426 49.6409 19.6426C46.3826 19.6426 43.7412 22.284 43.7412 25.5423C43.7412 28.8006 46.3826 31.442 49.6409 31.442Z" fill="white"/>
<path d="M49.6411 23.4375V27.6492" stroke="#0078D4" stroke-width="1.02455" stroke-miterlimit="10" stroke-linecap="round"/>
<path d="M47.5352 25.543H51.7468" stroke="#0078D4" stroke-width="1.02455" stroke-miterlimit="10" stroke-linecap="round"/>
<path d="M41.1868 25.543H39.1377" stroke="white" stroke-width="1.02455" stroke-linecap="round" stroke-linejoin="round"/>
<path d="M36.9998 25.543H32.9556" stroke="white" stroke-width="1.02455" stroke-linecap="round" stroke-linejoin="round" stroke-dasharray="2.7 2.7"/>
<path d="M31.05 25.543H29.001V27.592" stroke="white" stroke-width="1.02455" stroke-linecap="round" stroke-linejoin="round"/>
<path d="M29.0005 29.5957V33.424" stroke="white" stroke-width="1.02455" stroke-linecap="round" stroke-linejoin="round" stroke-dasharray="2.55 2.55"/>
<path d="M29.0005 35.248V37.2971" stroke="white" stroke-width="1.02455" stroke-linecap="round" stroke-linejoin="round"/>
</g>
<defs>
<linearGradient id="paint0_linear" x1="47.8698" y1="-15.153" x2="51.8525" y2="130.615" gradientUnits="userSpaceOnUse">
<stop stop-color="#00ABDE"/>
<stop offset="1" stop-color="#007ED8"/>
</linearGradient>
<clipPath id="clip0">
<rect width="99.2799" height="99.28" fill="white"/>
</clipPath>
</defs>
</svg>
