<svg width="103" height="103" viewBox="0 0 103 103" fill="none" xmlns="http://www.w3.org/2000/svg">
<path d="M51.8749 98.3099C26.0249 98.3099 5.06494 77.3599 5.06494 51.4999C5.06494 25.6399 26.0249 4.68994 51.8749 4.68994C77.7249 4.68994 98.6849 25.6499 98.6849 51.4999C98.6849 77.3499 77.7249 98.3099 51.8749 98.3099Z" fill="url(#paint0_linear)"/>
<path fill-rule="evenodd" clip-rule="evenodd" d="M97.7751 51.4999C97.7751 76.8499 77.2251 97.3999 51.8751 97.3999C26.5251 97.3999 5.97511 76.8499 5.97511 51.4999C5.97511 26.1499 26.5251 5.59986 51.8751 5.59986C77.2251 5.59986 97.7751 26.1499 97.7751 51.4999ZM51.8751 1.85986C79.2951 1.85986 101.515 24.0799 101.515 51.4999C101.515 78.9199 79.2851 101.14 51.8751 101.14C24.4551 101.14 2.23511 78.9099 2.23511 51.4999C2.23511 24.0799 24.4551 1.85986 51.8751 1.85986Z" fill="#F2F1F0"/>
<path fill-rule="evenodd" clip-rule="evenodd" d="M94.9649 51.4999C94.9649 75.2999 75.6749 94.5899 51.8749 94.5899C28.0749 94.5899 8.78492 75.2999 8.78492 51.4999C8.78492 27.6999 28.0749 8.40992 51.8749 8.40992C75.6749 8.40992 94.9649 27.6999 94.9649 51.4999ZM51.8749 4.66992C77.7349 4.66992 98.7049 25.6399 98.7049 51.4999C98.7049 77.3599 77.7349 98.3299 51.8749 98.3299C26.0149 98.3299 5.04492 77.3599 5.04492 51.4999C5.04492 25.6399 26.0049 4.66992 51.8749 4.66992Z" fill="url(#paint1_linear)"/>
<path opacity="0.15" d="M82.7149 31.5601H18.3749C17.4749 31.5601 16.7349 32.2901 16.7349 33.2001V67.8801C16.7349 68.7801 17.4649 69.5201 18.3749 69.5201H82.1649C83.0649 69.5201 83.8049 68.7901 83.8049 67.8801V32.6601C83.8049 32.0501 83.3049 31.5601 82.7149 31.5601Z" fill="#1F1D20"/>
<path d="M17.9549 68.5H82.5849C83.2549 68.5 83.8049 67.95 83.8049 67.28V31.76C83.8049 31.09 83.2549 30.54 82.5849 30.54H17.9549C17.2849 30.54 16.7349 31.09 16.7349 31.76V67.28C16.7349 67.95 17.2849 68.5 17.9549 68.5Z" fill="#F2F2F2"/>
<g opacity="0.2">
<path opacity="0.2" d="M53.775 58.3001C57.175 58.3001 59.925 56.5701 59.925 54.4401C59.925 52.3101 57.175 50.5801 53.775 50.5801C50.375 50.5801 47.625 52.3101 47.625 54.4401C47.625 56.5701 50.375 58.3001 53.775 58.3001Z" fill="#1F1D21"/>
</g>
<g opacity="0.2">
<path opacity="0.2" d="M40.8851 57.4803C44.2851 57.4803 47.0351 55.7503 47.0351 53.6203C47.0351 51.4903 44.2851 49.7603 40.8851 49.7603C37.4851 49.7603 34.7351 51.4903 34.7351 53.6203C34.7351 55.7503 37.4851 57.4803 40.8851 57.4803Z" fill="#1F1D21"/>
</g>
<path d="M47.1151 52.78C46.7651 49.7 44.1251 47.27 40.9251 47.27C37.7451 47.27 35.1251 49.64 34.7351 52.7C34.6851 52.91 34.6851 53.15 34.6851 53.36C34.7651 54.23 35.3751 55.08 36.5151 55.73C38.9451 57.13 42.9151 57.13 45.3351 55.73C46.4751 55.07 47.0551 54.23 47.1351 53.36C47.1651 53.18 47.1351 52.97 47.1151 52.78Z" fill="url(#paint2_radial)"/>
<path d="M40.925 46.6402C42.995 46.6402 44.675 44.9702 44.675 42.9102C44.675 40.8502 42.995 39.1802 40.925 39.1802C38.855 39.1802 37.175 40.8502 37.175 42.9102C37.175 44.9702 38.855 46.6402 40.925 46.6402Z" fill="url(#paint3_radial)"/>
<path d="M59.8851 53.4304C59.5351 50.3504 56.8951 47.9204 53.6951 47.9204C50.5151 47.9204 47.8951 50.2904 47.5051 53.3504C47.4551 53.5704 47.4551 53.8004 47.4551 54.0204C47.5351 54.8904 48.1451 55.7404 49.2851 56.3904C51.7151 57.7904 55.6851 57.7904 58.1051 56.3904C59.2451 55.7304 59.8251 54.8904 59.9051 54.0204C59.9351 53.8304 59.9051 53.6204 59.8851 53.4304Z" fill="url(#paint4_linear)"/>
<path d="M53.6951 47.2901C55.7651 47.2901 57.4451 45.6201 57.4451 43.5601C57.4451 41.5001 55.7651 39.8301 53.6951 39.8301C51.6251 39.8301 49.9451 41.5001 49.9451 43.5601C49.9451 45.6201 51.6251 47.2901 53.6951 47.2901Z" fill="url(#paint5_linear)"/>
<g opacity="0.2">
<path opacity="0.2" d="M28.235 58.3904C31.635 58.3904 34.385 56.6604 34.385 54.5304C34.385 52.4004 31.635 50.6704 28.235 50.6704C24.835 50.6704 22.085 52.4004 22.085 54.5304C22.085 56.6504 24.835 58.3904 28.235 58.3904Z" fill="#1F1D21"/>
</g>
<path d="M34.345 53.4304C33.995 50.3504 31.355 47.9204 28.155 47.9204C24.975 47.9204 22.355 50.2904 21.965 53.3504C21.915 53.5604 21.915 53.8004 21.915 54.0104C21.995 54.8804 22.605 55.7304 23.745 56.3804C26.175 57.7804 30.145 57.7804 32.565 56.3804C33.705 55.7204 34.285 54.8804 34.365 54.0104C34.405 53.8304 34.375 53.6204 34.345 53.4304Z" fill="url(#paint6_linear)"/>
<path d="M28.155 47.2901C30.225 47.2901 31.905 45.6201 31.905 43.5601C31.905 41.5001 30.225 39.8301 28.155 39.8301C26.085 39.8301 24.405 41.5001 24.405 43.5601C24.405 45.6201 26.085 47.2901 28.155 47.2901Z" fill="url(#paint7_linear)"/>
<path d="M85.8551 71.81H75.9451V42.16C75.9451 41.09 76.8151 40.23 77.8751 40.23H85.8551C86.9251 40.23 87.7851 41.1 87.7851 42.16V69.88C87.7851 70.95 86.9151 71.81 85.8551 71.81Z" fill="url(#paint8_linear)"/>
<path d="M79.4351 71.81H69.2651V49.97C69.2651 49.04 70.0251 48.29 70.9451 48.29H79.4151C80.3451 48.29 81.0951 49.05 81.0951 49.97V70.12C81.1151 71.06 80.3551 71.81 79.4351 71.81Z" fill="url(#paint9_linear)"/>
<path d="M72.555 71.81H65.095C63.885 71.81 62.895 70.83 62.895 69.61V58.22C62.895 57.01 63.875 56.02 65.095 56.02H72.555C73.765 56.02 74.755 57 74.755 58.22V69.61C74.755 70.83 73.775 71.81 72.555 71.81Z" fill="url(#paint10_linear)"/>
<defs>
<linearGradient id="paint0_linear" x1="50.105" y1="-13.2897" x2="54.087" y2="132.48" gradientUnits="userSpaceOnUse">
<stop stop-color="#00ABDE"/>
<stop offset="1" stop-color="#007ED8"/>
</linearGradient>
<linearGradient id="paint1_linear" x1="3.30762" y1="-20.1246" x2="98.8346" y2="120.757" gradientUnits="userSpaceOnUse">
<stop stop-color="#007ED8"/>
<stop offset="0.7065" stop-color="#002D4C"/>
</linearGradient>
<radialGradient id="paint2_radial" cx="0" cy="0" r="1" gradientUnits="userSpaceOnUse" gradientTransform="translate(38.6266 43.7621) scale(17.7139 17.6502)">
<stop stop-color="#4DC2EB"/>
<stop offset="0.585" stop-color="#0078D4"/>
</radialGradient>
<radialGradient id="paint3_radial" cx="0" cy="0" r="1" gradientUnits="userSpaceOnUse" gradientTransform="translate(39.0752 41.0175) scale(8.30814 8.26179)">
<stop stop-color="#4DC2EB"/>
<stop offset="0.585" stop-color="#0078D4"/>
</radialGradient>
<linearGradient id="paint4_linear" x1="50.3194" y1="48.8978" x2="56.818" y2="57.4283" gradientUnits="userSpaceOnUse">
<stop stop-color="#15548F"/>
<stop offset="0.4179" stop-color="#243A5E"/>
<stop offset="0.9677" stop-color="#1A2C45"/>
</linearGradient>
<linearGradient id="paint5_linear" x1="51.4357" y1="40.5858" x2="55.9537" y2="46.5355" gradientUnits="userSpaceOnUse">
<stop stop-color="#15548F"/>
<stop offset="0.4179" stop-color="#243A5E"/>
<stop offset="0.9677" stop-color="#1A2C45"/>
</linearGradient>
<linearGradient id="paint6_linear" x1="15.9547" y1="32.1486" x2="30.128" y2="56.9045" gradientUnits="userSpaceOnUse">
<stop offset="0.1608" stop-color="#ACF3FD"/>
<stop offset="0.9598" stop-color="#45CAF2"/>
</linearGradient>
<linearGradient id="paint7_linear" x1="20.2232" y1="29.7045" x2="34.3965" y2="54.4604" gradientUnits="userSpaceOnUse">
<stop offset="0.1608" stop-color="#ACF3FD"/>
<stop offset="0.9598" stop-color="#45CAF2"/>
</linearGradient>
<linearGradient id="paint8_linear" x1="81.7272" y1="43.1125" x2="81.9792" y2="69.3242" gradientUnits="userSpaceOnUse">
<stop offset="0.00753769" stop-color="#E0A310"/>
<stop offset="1" stop-color="#CA810E"/>
</linearGradient>
<linearGradient id="paint9_linear" x1="74.8708" y1="49.2043" x2="75.6269" y2="76.9279" gradientUnits="userSpaceOnUse">
<stop offset="0.00753769" stop-color="#F2CC40"/>
<stop offset="1" stop-color="#E7B116"/>
</linearGradient>
<linearGradient id="paint10_linear" x1="68.5503" y1="57.2422" x2="69.3064" y2="75.1367" gradientUnits="userSpaceOnUse">
<stop stop-color="#F8E17B"/>
<stop offset="0.5302" stop-color="#F6D856"/>
<stop offset="1" stop-color="#F6D856"/>
</linearGradient>
</defs>
</svg>
