<svg width="100" height="100" viewBox="0 0 100 100" fill="none" xmlns="http://www.w3.org/2000/svg">
<g clip-path="url(#clip0)">
<path d="M49.6401 96.4501C40.382 96.4501 31.3317 93.7047 23.6339 88.5612C15.936 83.4176 9.93624 76.1069 6.3933 67.5535C2.85036 59.0001 1.92337 49.5882 3.72954 40.5079C5.53571 31.4277 9.99394 23.0869 16.5404 16.5404C23.0869 9.99393 31.4277 5.53571 40.5079 3.72954C49.5882 1.92337 59.0001 2.85036 67.5535 6.3933C76.1069 9.93624 83.4176 15.936 88.5612 23.6339C93.7047 31.3317 96.4501 40.382 96.4501 49.6401C96.4505 55.7874 95.24 61.8746 92.8878 67.554C90.5355 73.2335 87.0875 78.3939 82.7407 82.7407C78.3939 87.0875 73.2335 90.5355 67.554 92.8878C61.8746 95.24 55.7874 96.4505 49.6401 96.4501V96.4501Z" fill="url(#paint0_linear)"/>
<path fill-rule="evenodd" clip-rule="evenodd" d="M95.54 49.64C95.54 58.7182 92.848 67.5925 87.8045 75.1407C82.7609 82.6889 75.5923 88.572 67.2052 92.0461C58.818 95.5201 49.5891 96.4291 40.6854 94.658C31.7816 92.887 23.603 88.5154 17.1838 82.0962C10.7646 75.677 6.39302 67.4984 4.62196 58.5946C2.85089 49.6909 3.75987 40.462 7.23393 32.0748C10.708 23.6877 16.5911 16.5191 24.1393 11.4755C31.6875 6.43199 40.5618 3.74 49.64 3.74C55.6677 3.73998 61.6363 4.9272 67.2052 7.23388C72.774 9.54057 77.834 12.9215 82.0963 17.1837C86.3585 21.446 89.7394 26.5059 92.0461 32.0748C94.3528 37.6437 95.54 43.6123 95.54 49.64V49.64ZM49.64 3.62732e-07C59.4579 3.62732e-07 69.0553 2.91134 77.2185 8.36585C85.3818 13.8204 91.7442 21.5731 95.5014 30.6436C99.2585 39.7141 100.242 49.6951 98.3262 59.3243C96.4108 68.9535 91.6831 77.7985 84.7408 84.7408C77.7985 91.6831 68.9535 96.4108 59.3243 98.3262C49.6951 100.242 39.7141 99.2585 30.6436 95.5014C21.5731 91.7442 13.8204 85.3818 8.36585 77.2185C2.91134 69.0553 3.62732e-07 59.4579 3.62732e-07 49.64C-0.000787738 43.121 1.28265 36.6656 3.77702 30.6427C6.27138 24.6197 9.9278 19.1471 14.5375 14.5375C19.1471 9.9278 24.6197 6.27138 30.6427 3.77702C36.6656 1.28265 43.121 -0.000787738 49.64 3.62732e-07V3.62732e-07Z" fill="#F2F1F0"/>
<path fill-rule="evenodd" clip-rule="evenodd" d="M92.7296 49.6406C92.7296 58.163 90.2024 66.494 85.4676 73.5801C80.7328 80.6662 74.0031 86.1892 66.1294 89.4505C58.2557 92.7119 49.5918 93.5653 41.2331 91.9026C32.8745 90.24 25.1966 86.1361 19.1703 80.1098C13.1441 74.0836 9.04017 66.4057 7.37753 58.047C5.7149 49.6884 6.56822 41.0244 9.8296 33.1507C13.091 25.2771 18.6139 18.5473 25.7 13.8126C32.7862 9.07776 41.1172 6.55058 49.6396 6.55058C55.2983 6.55023 60.9017 7.66455 66.1298 9.82991C71.3579 11.9953 76.1082 15.1692 80.1096 19.1706C84.1109 23.1719 87.2849 27.9223 89.4502 33.1503C91.6156 38.3784 92.7299 43.9818 92.7296 49.6406V49.6406ZM49.6396 2.81058C58.9017 2.81058 67.9558 5.55711 75.6569 10.7029C83.3581 15.8486 89.3604 23.1624 92.9049 31.7195C96.4493 40.2766 97.3767 49.6925 95.5697 58.7767C93.7628 67.8608 89.3027 76.2051 82.7534 82.7544C76.2041 89.3037 67.8598 93.7638 58.7757 95.5708C49.6915 97.3777 40.2756 96.4503 31.7185 92.9059C23.1614 89.3614 15.8476 83.3591 10.7018 75.6579C5.5561 67.9568 2.80957 58.9027 2.80957 49.6406C2.81076 37.2209 7.745 25.3101 16.5271 16.5281C25.3091 7.74599 37.2198 2.81174 49.6396 2.81055V2.81058Z" fill="#0078D4"/>
<path d="M72.9156 34.4297H26.3638C25.2592 34.4297 24.3638 35.3251 24.3638 36.4297V52.2507C24.3638 53.3553 25.2592 54.2507 26.3638 54.2507H72.9156C74.0201 54.2507 74.9156 53.3553 74.9156 52.2507V36.4297C74.9156 35.3251 74.0201 34.4297 72.9156 34.4297Z" fill="white"/>
<path d="M34.1724 37.4043C33.0317 37.4043 31.9087 37.6856 30.9027 38.2233C29.8968 38.761 29.0389 39.5385 28.4052 40.4869C27.7715 41.4353 27.3815 42.5254 27.2697 43.6605C27.1579 44.7957 27.3278 45.9409 27.7643 46.9947C28.2009 48.0485 28.8905 48.9784 29.7723 49.702C30.654 50.4256 31.7006 50.9206 32.8194 51.1431C33.9381 51.3656 35.0944 51.3087 36.186 50.9776C37.2775 50.6464 38.2705 50.0512 39.077 49.2446L35.5219 45.6895C35.2999 45.9115 35.0266 46.0753 34.7262 46.1664C34.4259 46.2575 34.1076 46.2732 33.7998 46.2119C33.4919 46.1507 33.2039 46.0144 32.9612 45.8153C32.7186 45.6161 32.5288 45.3602 32.4087 45.0702C32.2886 44.7801 32.2419 44.465 32.2727 44.1526C32.3035 43.8402 32.4109 43.5402 32.5853 43.2793C32.7598 43.0183 32.9959 42.8044 33.2727 42.6564C33.5496 42.5085 33.8587 42.4312 34.1726 42.4312V37.4043H34.1724Z" fill="#1F56A3"/>
<path d="M36.082 44.3403H41.1086C41.1086 42.5008 40.3779 40.7366 39.0772 39.4359C37.7765 38.1351 36.0123 37.4044 34.1729 37.4043V42.4312C34.679 42.4318 35.1642 42.6332 35.5221 42.991C35.88 43.3489 36.0814 43.8342 36.082 44.3403Z" fill="#0078D4"/>
<path d="M36.0819 44.3398V44.34C36.082 44.5906 36.0326 44.8389 35.9365 45.0704C35.8404 45.3019 35.6996 45.5122 35.522 45.6891L39.0771 49.2442C39.7221 48.6009 40.2336 47.8364 40.5822 46.9947C40.9308 46.1531 41.1097 45.2508 41.1085 44.3398H36.0819Z" fill="#50E6FF"/>
<path d="M45.8564 41.6562H62.1557" stroke="#0078D4" stroke-miterlimit="10" stroke-linecap="round"/>
<path d="M45.8564 44.7109H65.502" stroke="#0078D4" stroke-miterlimit="10" stroke-linecap="round"/>
<path d="M45.8564 47.7656H68.4283" stroke="#0078D4" stroke-miterlimit="10" stroke-linecap="round"/>
<path d="M72.9156 55.4727H26.3638C25.2592 55.4727 24.3638 56.3681 24.3638 57.4727V73.2937C24.3638 74.3982 25.2592 75.2937 26.3638 75.2937H72.9156C74.0201 75.2937 74.9156 74.3982 74.9156 73.2937V57.4727C74.9156 56.3681 74.0201 55.4727 72.9156 55.4727Z" fill="white"/>
<path d="M70.9155 70.2935V60.4727C70.9155 59.9204 70.4678 59.4727 69.9155 59.4727H45.9522C45.3999 59.4727 44.9522 59.9204 44.9522 60.4727V70.2935C44.9522 70.8457 45.3999 71.2935 45.9522 71.2935H69.9155C70.4678 71.2935 70.9155 70.8457 70.9155 70.2935Z" fill="#F2F2F2"/>
<path d="M48.7637 62.8438H67.5238" stroke="white" stroke-miterlimit="10" stroke-linecap="round"/>
<path d="M48.7637 65.3828H67.5238" stroke="white" stroke-miterlimit="10" stroke-linecap="round"/>
<path d="M48.7637 67.9219H67.5238" stroke="white" stroke-miterlimit="10" stroke-linecap="round"/>
<path d="M34.1728 72.3192C38.0034 72.3192 41.1087 69.2139 41.1087 65.3832C41.1087 61.5526 38.0034 58.4473 34.1728 58.4473C30.3422 58.4473 27.2368 61.5526 27.2368 65.3832C27.2368 69.2139 30.3422 72.3192 34.1728 72.3192Z" fill="#0078D4"/>
<path d="M37.993 67.7448C37.9059 67.7446 37.8203 67.7221 37.7443 67.6795C37.6684 67.6368 37.6046 67.5754 37.5591 67.5011C37.5136 67.4268 37.4879 67.3421 37.4845 67.255C37.481 67.168 37.4999 67.0815 37.5394 67.0038C37.8322 66.4268 37.9653 65.7821 37.925 65.1363C37.8848 64.4905 37.6725 63.8673 37.3103 63.3312C36.9481 62.7951 36.4491 62.3656 35.865 62.0873C35.2809 61.8089 34.633 61.6919 33.9885 61.7482C33.854 61.7596 33.7205 61.7172 33.6172 61.6304C33.5139 61.5435 33.4493 61.4192 33.4375 61.2848C33.4257 61.1504 33.4677 61.0167 33.5543 60.9132C33.6408 60.8096 33.7649 60.7447 33.8993 60.7325C34.7251 60.6604 35.5551 60.8104 36.3033 61.1671C37.0516 61.5237 37.6908 62.074 38.1548 62.7608C38.6188 63.4477 38.8906 64.2462 38.9422 65.0734C38.9937 65.9007 38.8231 66.7267 38.4479 67.4659C38.4053 67.5499 38.3402 67.6204 38.2599 67.6696C38.1796 67.7189 38.0872 67.7449 37.993 67.7448V67.7448Z" fill="white"/>
<path d="M34.2958 70.0085C33.5461 70.0067 32.8079 69.8236 32.1442 69.4749C31.4806 69.1262 30.9111 68.6221 30.4843 68.0057C30.0576 67.3893 29.7863 66.6788 29.6935 65.9349C29.6007 65.1909 29.6892 64.4356 29.9514 63.7332C29.9749 63.6705 30.0105 63.6131 30.0561 63.5642C30.1018 63.5153 30.1566 63.4758 30.2175 63.4481C30.2784 63.4204 30.3442 63.405 30.411 63.4026C30.4779 63.4003 30.5446 63.4112 30.6072 63.4347C30.6699 63.4581 30.7273 63.4937 30.7762 63.5394C30.8251 63.585 30.8646 63.6399 30.8923 63.7007C30.92 63.7616 30.9355 63.8274 30.9378 63.8943C30.9401 63.9611 30.9292 64.0278 30.9057 64.0905C30.6913 64.6643 30.6257 65.2831 30.715 65.8892C30.8043 66.4952 31.0456 67.0688 31.4164 67.5564C31.7872 68.044 32.2755 68.4298 32.8357 68.6778C33.3958 68.9258 34.0096 69.0279 34.6199 68.9746C34.7543 68.9646 34.8872 69.0074 34.9905 69.094C35.0937 69.1806 35.1589 69.3042 35.1724 69.4382C35.1841 69.5729 35.1419 69.7067 35.055 69.8102C34.9682 69.9138 34.8437 69.9786 34.7091 69.9904C34.5705 70.0024 34.4331 70.0085 34.2958 70.0085Z" fill="white"/>
<path d="M28.8586 63.3396L31.1779 61.9962C31.2119 61.9765 31.25 61.9652 31.2892 61.9632C31.3284 61.9612 31.3675 61.9686 31.4033 61.9847C31.4391 62.0008 31.4706 62.0253 31.495 62.0559C31.5195 62.0866 31.5363 62.1227 31.5441 62.1612L32.0702 64.7705C32.0792 64.815 32.0757 64.8611 32.0603 64.9037C32.0448 64.9463 32.0179 64.9839 31.9825 65.0123C31.9471 65.0406 31.9046 65.0587 31.8596 65.0645C31.8146 65.0703 31.7689 65.0636 31.7274 65.0452L28.8821 63.7793C28.8404 63.7608 28.8047 63.7311 28.7789 63.6936C28.7531 63.6561 28.7381 63.6121 28.7357 63.5666C28.7333 63.5211 28.7435 63.4758 28.7652 63.4358C28.7869 63.3957 28.8192 63.3624 28.8586 63.3396V63.3396Z" fill="white"/>
<path d="M39.3939 68.0016L36.9282 69.0524C36.8921 69.0678 36.8528 69.0743 36.8137 69.0715C36.7745 69.0687 36.7366 69.0567 36.703 69.0363C36.6695 69.0159 36.6413 68.9879 36.6207 68.9544C36.6002 68.921 36.5879 68.8831 36.5849 68.844L36.3806 66.19C36.3771 66.1447 36.3862 66.0994 36.4067 66.059C36.4273 66.0186 36.4586 65.9846 36.4971 65.9607C36.5357 65.9369 36.5801 65.9241 36.6255 65.9238C36.6709 65.9235 36.7154 65.9357 36.7543 65.9591L39.4242 67.5623C39.4633 67.5858 39.4951 67.6196 39.5161 67.66C39.5372 67.7004 39.5467 67.7458 39.5435 67.7912C39.5404 67.8367 39.5247 67.8804 39.4983 67.9175C39.4719 67.9546 39.4358 67.9837 39.3939 68.0016V68.0016Z" fill="white"/>
<path d="M62.6204 26.6373C62.6291 26.5768 62.6464 26.5163 62.655 26.4644C62.8172 25.6086 62.789 24.7275 62.5723 23.8839C62.3556 23.0402 61.9557 22.2546 61.4012 21.5828C60.8466 20.9111 60.151 20.3697 59.3636 19.9971C58.5762 19.6246 57.7165 19.43 56.8454 19.4271C56.3999 19.4257 55.9557 19.4779 55.5227 19.5828C54.6397 18.1901 53.3284 17.1218 51.786 16.5387C50.2435 15.9556 48.5535 15.8891 46.97 16.3493C45.3865 16.8095 43.9954 17.7715 43.0058 19.0906C42.0162 20.4096 41.4818 22.0144 41.4828 23.6633C41.4828 23.7671 41.4828 23.8708 41.4915 23.9746C41.0959 23.8414 40.6812 23.7743 40.2638 23.7757C39.3031 23.7758 38.3792 24.1451 37.6832 24.8074C36.9872 25.4696 36.5724 26.3741 36.5247 27.3336C36.4769 28.2932 36.7998 29.2343 37.4266 29.9624C38.0534 30.6905 38.9361 31.1498 39.8921 31.2452L56.8368 31.2798C57.8915 31.2785 58.9269 30.9969 59.8369 30.4636C60.7468 29.9304 61.4987 29.1648 62.0153 28.2453C62.0412 28.1934 62.0758 28.1415 62.1017 28.0897C62.3307 27.6274 62.5047 27.14 62.6204 26.6373V26.6373Z" fill="white"/>
</g>
<defs>
<linearGradient id="paint0_linear" x1="47.8697" y1="-15.153" x2="51.8525" y2="130.615" gradientUnits="userSpaceOnUse">
<stop stop-color="#00ABDE"/>
<stop offset="1" stop-color="#007ED8"/>
</linearGradient>
<clipPath id="clip0">
<rect width="99.2799" height="99.28" fill="white"/>
</clipPath>
</defs>
</svg>
