<svg width="103" height="103" viewBox="0 0 103 103" fill="none" xmlns="http://www.w3.org/2000/svg">
<path d="M51.626 98.2216C25.776 98.2216 4.81598 77.2716 4.81598 51.4116C4.81598 25.5516 25.776 4.60156 51.626 4.60156C77.476 4.60156 98.436 25.5616 98.436 51.4116C98.436 77.2616 77.476 98.2216 51.626 98.2216Z" fill="url(#paint0_linear_202_53)"/>
<path fill-rule="evenodd" clip-rule="evenodd" d="M97.526 51.4115C97.526 76.7615 76.976 97.3115 51.626 97.3115C26.276 97.3115 5.72596 76.7615 5.72596 51.4115C5.72596 26.0615 26.276 5.51149 51.626 5.51149C76.976 5.51149 97.526 26.0615 97.526 51.4115ZM51.626 1.77148C79.046 1.77148 101.266 23.9915 101.266 51.4115C101.266 78.8315 79.036 101.051 51.626 101.051C24.206 101.051 1.98596 78.8215 1.98596 51.4115C1.98596 23.9915 24.206 1.77148 51.626 1.77148Z" fill="#F2F1F0"/>
<path fill-rule="evenodd" clip-rule="evenodd" d="M94.716 51.412C94.716 75.212 75.426 94.502 51.626 94.502C27.826 94.502 8.53596 75.212 8.53596 51.412C8.53596 27.612 27.826 8.32204 51.626 8.32204C75.426 8.32204 94.716 27.612 94.716 51.412ZM51.626 4.58203C77.486 4.58203 98.456 25.552 98.456 51.412C98.456 77.272 77.486 98.2421 51.626 98.2421C25.766 98.2421 4.79596 77.272 4.79596 51.412C4.79596 25.552 25.756 4.58203 51.626 4.58203Z" fill="url(#paint1_linear_202_53)"/>
<path opacity="0.15" d="M82.2589 25.2695H71.799C71.4929 25.2695 71.1994 25.3912 70.9829 25.6077C70.7665 25.8241 70.6448 26.1177 70.6448 26.4238V32.8211C70.6448 33.1272 70.7665 33.4207 70.9829 33.6372C71.1994 33.8536 71.4929 33.9753 71.799 33.9753H82.2589C82.4111 33.9777 82.5616 33.9495 82.7028 33.8923C82.8439 33.8352 82.9726 33.7505 83.0802 33.6429C83.1879 33.5352 83.273 33.4069 83.3301 33.2658C83.3873 33.1247 83.4156 32.9733 83.4131 32.8211V26.4417C83.4143 26.2889 83.3849 26.1376 83.3275 25.9961C83.2702 25.8545 83.1857 25.7253 83.0785 25.6164C82.9713 25.5076 82.8434 25.4213 82.7028 25.3617C82.5621 25.3022 82.4117 25.2707 82.2589 25.2695V25.2695Z" fill="#1F1D20"/>
<path opacity="0.15" d="M82.2589 46.5625H71.799C71.4929 46.5625 71.1994 46.6838 70.9829 46.9002C70.7665 47.1167 70.6448 47.4102 70.6448 47.7163V54.1232C70.6448 54.4293 70.7665 54.7229 70.9829 54.9393C71.1994 55.1558 71.4929 55.2775 71.799 55.2775H82.2589C82.4108 55.2787 82.5613 55.2494 82.7019 55.1918C82.8425 55.1343 82.9702 55.0494 83.0776 54.9419C83.185 54.8345 83.2699 54.7068 83.3275 54.5662C83.3851 54.4256 83.4143 54.2751 83.4131 54.1232V47.7342C83.4132 47.4264 83.2918 47.1313 83.0759 46.912C82.8599 46.6927 82.5667 46.5672 82.2589 46.5625V46.5625Z" fill="#1F1D20"/>
<path opacity="0.15" d="M82.2589 35.8985H71.799C71.4929 35.8985 71.1994 36.0202 70.9829 36.2366C70.7665 36.4531 70.6448 36.7466 70.6448 37.0527V43.4413C70.6448 43.7474 70.7665 44.0409 70.9829 44.2574C71.1994 44.4738 71.4929 44.5955 71.799 44.5955H82.2589C82.4126 44.6004 82.5657 44.5738 82.7089 44.5178C82.8521 44.4617 82.982 44.3775 83.0916 44.2696C83.2012 44.1617 83.2876 44.0323 83.3459 43.89C83.4041 43.7476 83.4331 43.5951 83.4306 43.4413V37.044C83.4259 36.7371 83.2998 36.4442 83.0802 36.2296C82.8607 36.0151 82.5659 35.8961 82.2589 35.8985Z" fill="#1F1D20"/>
<path opacity="0.15" d="M82.2589 57.2012H71.799C71.4929 57.2012 71.1994 57.3229 70.9829 57.5393C70.7665 57.7558 70.6448 58.0493 70.6448 58.3554V64.7619C70.6448 65.068 70.7665 65.3615 70.9829 65.578C71.1994 65.7944 71.4929 65.9161 71.799 65.9161H82.2589C82.565 65.9161 82.8585 65.7944 83.075 65.578C83.2915 65.3615 83.4131 65.068 83.4131 64.7619V58.3642C83.4132 58.0572 83.2912 57.7633 83.075 57.5454C82.8588 57.3276 82.5658 57.2035 82.2589 57.2012V57.2012Z" fill="#1F1D20"/>
<g opacity="0.15">
<path opacity="0.15" d="M82.259 25.2598H71.7991C71.493 25.2598 71.1995 25.381 70.983 25.5975C70.7666 25.8139 70.6449 26.1079 70.6449 26.414V32.82C70.6449 33.1262 70.7666 33.4197 70.983 33.6361C71.1995 33.8526 71.493 33.9743 71.7991 33.9743H82.259C82.4109 33.9755 82.5615 33.9467 82.702 33.8891C82.8426 33.8315 82.9703 33.7462 83.0777 33.6388C83.1852 33.5313 83.2701 33.4036 83.3276 33.263C83.3852 33.1225 83.4145 32.9719 83.4133 32.82V26.4407C83.4156 26.2872 83.3871 26.1346 83.3303 25.992C83.2734 25.8494 83.1894 25.7195 83.0821 25.6097C82.9748 25.4999 82.8468 25.4125 82.7055 25.3524C82.5643 25.2923 82.4125 25.2609 82.259 25.2598V25.2598Z" fill="#1F1D20"/>
<path opacity="0.15" d="M82.2589 46.5645H71.799C71.4929 46.5645 71.1994 46.6857 70.9829 46.9022C70.7665 47.1186 70.6448 47.4121 70.6448 47.7183V54.1252C70.6448 54.4313 70.7665 54.7248 70.9829 54.9413C71.1994 55.1577 71.4929 55.2794 71.799 55.2794H82.2589C82.565 55.2794 82.8585 55.1577 83.075 54.9413C83.2915 54.7248 83.4131 54.4313 83.4131 54.1252V47.7362C83.4132 47.4284 83.2918 47.1333 83.0759 46.914C82.8599 46.6947 82.5667 46.5692 82.2589 46.5645V46.5645Z" fill="#1F1D20"/>
<path opacity="0.15" d="M82.2589 35.8985H71.799C71.4929 35.8985 71.1994 36.0202 70.9829 36.2366C70.7665 36.4531 70.6448 36.7466 70.6448 37.0527V43.4413C70.6448 43.7474 70.7665 44.0409 70.9829 44.2574C71.1994 44.4738 71.4929 44.5955 71.799 44.5955H82.2589C82.4126 44.6004 82.5657 44.5738 82.7089 44.5178C82.8521 44.4617 82.982 44.3775 83.0916 44.2696C83.2012 44.1617 83.2876 44.0323 83.3459 43.89C83.4041 43.7476 83.4331 43.5951 83.4306 43.4413V37.044C83.4259 36.7371 83.2998 36.4442 83.0802 36.2296C82.8607 36.0151 82.5659 35.8961 82.2589 35.8985Z" fill="#1F1D20"/>
<path opacity="0.15" d="M82.2589 57.2012H71.799C71.4929 57.2012 71.1994 57.3229 70.9829 57.5393C70.7665 57.7558 70.6448 58.0493 70.6448 58.3554V64.7619C70.6448 65.068 70.7665 65.3615 70.9829 65.578C71.1994 65.7944 71.4929 65.9161 71.799 65.9161H82.2589C82.565 65.9161 82.8585 65.7944 83.075 65.578C83.2915 65.3615 83.4131 65.068 83.4131 64.7619V58.3554C83.4108 58.05 83.2883 57.7579 83.0724 57.5419C82.8564 57.326 82.5643 57.2035 82.2589 57.2012V57.2012Z" fill="#1F1D20"/>
</g>
<path d="M76.5324 60.0469H62.0645V61.2995H76.5324V60.0469Z" fill="white"/>
<path d="M76.5324 49.543H62.0645V50.7956H76.5324V49.543Z" fill="white"/>
<path d="M76.5324 39.0293H62.0645V40.2819H76.5324V39.0293Z" fill="white"/>
<path d="M76.5324 28.5078H62.0645V29.7604H76.5324V28.5078Z" fill="white"/>
<path d="M82.2589 24.5078H71.799C71.4929 24.5078 71.1994 24.6295 70.9829 24.846C70.7665 25.0624 70.6448 25.3559 70.6448 25.6621V32.0594C70.6448 32.3655 70.7665 32.6594 70.9829 32.8759C71.1994 33.0923 71.4929 33.2136 71.799 33.2136H82.2589C82.4111 33.216 82.5616 33.1882 82.7028 33.131C82.8439 33.0739 82.9726 32.9888 83.0802 32.8811C83.1879 32.7735 83.273 32.6452 83.3301 32.5041C83.3873 32.363 83.4156 32.2116 83.4131 32.0594V25.6621C83.4108 25.3567 83.2883 25.0645 83.0724 24.8486C82.8564 24.6326 82.5643 24.5102 82.2589 24.5078V24.5078Z" fill="url(#paint2_linear_202_53)"/>
<path d="M82.2589 45.8027H71.799C71.4929 45.8027 71.1994 45.9244 70.9829 46.1409C70.7665 46.3573 70.6448 46.6509 70.6448 46.957V53.363C70.6448 53.5146 70.675 53.6651 70.733 53.8051C70.791 53.9452 70.8757 54.0719 70.9829 54.1791C71.0901 54.2863 71.2169 54.3719 71.3569 54.4299C71.4969 54.4879 71.6474 54.5173 71.799 54.5173H82.2589C82.4105 54.5173 82.5601 54.4879 82.7002 54.4299C82.8402 54.3719 82.9678 54.2863 83.075 54.1791C83.1822 54.0719 83.2669 53.9452 83.3249 53.8051C83.3829 53.6651 83.4131 53.5146 83.4131 53.363V47.0195C83.4191 46.8633 83.3931 46.7074 83.338 46.5612C83.2829 46.4149 83.1991 46.2813 83.0916 46.168C82.9841 46.0546 82.8555 45.9638 82.7124 45.901C82.5693 45.8383 82.4152 45.805 82.2589 45.8027V45.8027Z" fill="url(#paint3_linear_202_53)"/>
<path d="M82.2589 35.1387H71.799C71.4929 35.1387 71.1994 35.2599 70.9829 35.4764C70.7665 35.6928 70.6448 35.9864 70.6448 36.2925V42.6902C70.6448 42.9963 70.7665 43.2899 70.9829 43.5063C71.1994 43.7228 71.4929 43.8445 71.799 43.8445H82.2589C82.4111 43.8469 82.5616 43.8186 82.7028 43.7615C82.8439 43.7043 82.9726 43.6192 83.0802 43.5116C83.1879 43.4039 83.273 43.2757 83.3301 43.1345C83.3873 42.9934 83.4156 42.8425 83.4131 42.6902V36.2837C83.4085 35.9799 83.2846 35.69 83.0689 35.4759C82.8532 35.2619 82.5628 35.141 82.2589 35.1387V35.1387Z" fill="url(#paint4_linear_202_53)"/>
<path d="M82.2589 56.4414H71.799C71.6474 56.4414 71.4969 56.4708 71.3569 56.5288C71.2169 56.5868 71.0901 56.6724 70.9829 56.7796C70.8757 56.8868 70.791 57.0135 70.733 57.1536C70.675 57.2936 70.6448 57.4441 70.6448 57.5957V64.0196C70.6448 64.1712 70.675 64.3217 70.733 64.4618C70.791 64.6018 70.8757 64.7286 70.9829 64.8357C71.0901 64.9429 71.2169 65.0276 71.3569 65.0856C71.4969 65.1436 71.6474 65.1739 71.799 65.1739H82.2589C82.412 65.1763 82.5633 65.1478 82.7054 65.0909C82.8475 65.0339 82.9773 64.9493 83.0864 64.8418C83.1954 64.7344 83.2824 64.6065 83.3415 64.4653C83.4006 64.324 83.4306 64.1727 83.4306 64.0196V57.6219C83.433 57.4669 83.4047 57.3131 83.3467 57.1693C83.2888 57.0255 83.2025 56.8949 83.0933 56.7848C82.9841 56.6748 82.854 56.5879 82.7106 56.5288C82.5673 56.4698 82.4139 56.4402 82.2589 56.4414V56.4414Z" fill="url(#paint5_linear_202_53)"/>
<path opacity="0.15" d="M72.2201 23.5554L28.4201 23.1954C27.4701 23.1854 26.7001 23.9454 26.7001 24.8954L26.2301 82.0554C26.2201 83.0054 26.9801 83.7754 27.9301 83.7754L71.7301 84.1354C72.6801 84.1454 73.4501 83.3854 73.4501 82.4354L73.9201 25.2754C73.9101 24.3354 73.1501 23.5654 72.2201 23.5554Z" fill="#1F1D20"/>
<path d="M72.2301 21.7449L28.4301 21.3849C27.4801 21.3749 26.7101 22.1349 26.7101 23.0849L26.2301 80.2349C26.2201 81.1849 26.9801 81.9549 27.9301 81.9549L71.7301 82.3149C72.6801 82.3249 73.4501 81.5649 73.4501 80.6149L73.9201 23.4549C73.9201 22.5249 73.1701 21.7549 72.2301 21.7449Z" fill="#F2F2F2"/>
<path opacity="0.15" d="M69.1802 23.7051H30.9702V76.9151H69.1802V23.7051Z" fill="#1F1D20"/>
<path d="M69.1802 23.0938H30.9702V76.3037H69.1802V23.0938Z" fill="white"/>
<path fill-rule="evenodd" clip-rule="evenodd" d="M52.36 15.1042C53.6 15.7742 54.32 17.1042 54.31 18.5042V18.8442C54.31 18.9742 54.3 19.0842 54.29 19.2142L56.98 19.2342C57.78 19.2442 58.53 19.6442 58.93 20.3442C60.05 22.3342 58.63 24.3542 56.76 24.3342L43.18 24.2342C42.38 24.2242 41.63 23.8242 41.23 23.1242C40.11 21.1342 41.53 19.1142 43.4 19.1342L45.9 19.1542C45.89 19.0342 45.89 18.9142 45.89 18.7842V18.6742C45.93 15.6342 49.16 13.3842 52.36 15.1042Z" fill="#243A5E"/>
<path d="M50.0603 20.6732C51.0203 20.6832 51.8003 19.9132 51.8103 18.9532C51.8203 17.9932 51.0503 17.2132 50.0903 17.2032C49.1303 17.1932 48.3503 17.9632 48.3403 18.9232C48.3403 19.8832 49.1003 20.6632 50.0603 20.6732Z" fill="#F2F2F2"/>
<path d="M60.6997 68.024H50.0854V36.2717C50.0854 35.1293 51.0135 34.2012 52.1559 34.2012H60.6997C61.842 34.2012 62.7702 35.1293 62.7702 36.2717V65.9535C62.7702 67.0959 61.842 68.024 60.6997 68.024Z" fill="url(#paint6_linear_202_53)"/>
<path d="M53.8266 68.0246H42.9458V44.6399C42.9458 43.6451 43.755 42.8359 44.7498 42.8359H53.8219C54.8166 42.8359 55.6258 43.6451 55.6258 44.6399V66.2159C55.6306 67.2154 54.8214 68.0246 53.8266 68.0246Z" fill="url(#paint7_linear_202_53)"/>
<path d="M46.4682 68.023H38.4861C37.1867 68.023 36.1348 66.9711 36.1348 65.6717V53.4724C36.1348 52.173 37.1867 51.1211 38.4861 51.1211H46.473C47.7724 51.1211 48.8243 52.173 48.8243 53.4724V65.6717C48.8195 66.9711 47.7676 68.023 46.4682 68.023Z" fill="url(#paint8_linear_202_53)"/>
<path d="M78.0324 50.0441L76.2394 51.773L80.6705 56.3706L83.3471 53.694L82.4763 49.6855L78.0324 50.0441Z" fill="url(#paint9_linear_202_53)"/>
<path d="M62.1516 65.8738L60.3586 67.5899L64.841 72.1746L67.4151 69.5877L66.5571 65.5664L62.1516 65.8738Z" fill="url(#paint10_linear_202_53)"/>
<path d="M83.104 49.4044C81.8618 48.1621 80.325 47.6755 79.6462 48.303H79.6334L77.674 50.288C77.6612 50.3008 77.674 50.3264 77.6996 50.3136C78.4424 49.9038 79.8511 50.4161 81.0165 51.5559C82.0667 52.606 82.5789 53.8611 82.3612 54.6423C82.3612 54.6679 82.374 54.6807 82.3868 54.6551L84.1798 52.875L84.1926 52.8622C84.1926 52.8622 84.1926 52.8622 84.1926 52.8493L84.2054 52.8365C84.8329 52.1962 84.3462 50.6594 83.104 49.4044Z" fill="#092E4C"/>
<path d="M79.8764 52.6314C78.647 51.402 77.1358 50.9153 76.4314 51.5172L61.7422 66.2065C61.7166 66.2321 61.7422 66.2833 61.7806 66.2705C62.5618 65.9759 63.8553 66.4754 64.9567 67.5768C65.9812 68.6013 66.4935 69.818 66.3142 70.612C66.3014 70.6504 66.3654 70.6888 66.391 70.6504L80.9906 56.0508C81.5925 55.372 81.1187 53.8608 79.8764 52.6314Z" fill="#092E4C"/>
<path d="M63.7912 68.7175C62.5234 67.4497 60.9738 66.9758 60.3078 67.6161V67.629L59.104 72.1241C59.2961 71.932 59.4114 72.2778 59.7699 72.6364C60.1413 72.9949 60.0005 72.9309 59.8084 73.123L58.9503 73.8914L64.8798 72.2009C65.5329 71.535 65.0463 69.9726 63.7912 68.7175Z" fill="#FFBB00"/>
<path d="M60.1153 72.4445C59.7568 72.0859 59.3085 71.9323 59.1036 72.1244L58.7066 73.6484C58.6682 73.802 58.8091 73.9301 58.9499 73.8917L60.4355 73.4563C60.6276 73.2642 60.4867 72.8031 60.1153 72.4445Z" fill="#092E4C"/>
<defs>
<linearGradient id="paint0_linear_202_53" x1="49.8521" y1="-13.3779" x2="53.8341" y2="132.392" gradientUnits="userSpaceOnUse">
<stop stop-color="#00ABDE"/>
<stop offset="1" stop-color="#007ED8"/>
</linearGradient>
<linearGradient id="paint1_linear_202_53" x1="3.05636" y1="-20.2106" x2="98.5839" y2="120.671" gradientUnits="userSpaceOnUse">
<stop stop-color="#007ED8"/>
<stop offset="0.7065" stop-color="#002D4C"/>
</linearGradient>
<linearGradient id="paint2_linear_202_53" x1="76.8867" y1="25.3041" x2="76.9044" y2="32.5283" gradientUnits="userSpaceOnUse">
<stop offset="0.00753769" stop-color="#E0A310"/>
<stop offset="0.34375" stop-color="#D18F09"/>
<stop offset="0.848958" stop-color="#BD7400"/>
</linearGradient>
<linearGradient id="paint3_linear_202_53" x1="76.6898" y1="46.1423" x2="76.786" y2="56.4185" gradientUnits="userSpaceOnUse">
<stop offset="0.00753769" stop-color="#F2CC40"/>
<stop offset="1" stop-color="#E7B116"/>
</linearGradient>
<linearGradient id="paint4_linear_202_53" x1="76.8867" y1="35.935" x2="76.9044" y2="43.1592" gradientUnits="userSpaceOnUse">
<stop offset="0.00753769" stop-color="#E0A310"/>
<stop offset="1" stop-color="#CA810E"/>
</linearGradient>
<linearGradient id="paint5_linear_202_53" x1="76.7299" y1="57.1137" x2="76.9447" y2="67.0254" gradientUnits="userSpaceOnUse">
<stop stop-color="#F8E17B"/>
<stop offset="0.5302" stop-color="#F6D856"/>
<stop offset="1" stop-color="#F6D856"/>
</linearGradient>
<linearGradient id="paint6_linear_202_53" x1="56.2864" y1="37.2948" x2="56.5562" y2="65.3587" gradientUnits="userSpaceOnUse">
<stop offset="0.00753769" stop-color="#E0A310"/>
<stop offset="1" stop-color="#CA810E"/>
</linearGradient>
<linearGradient id="paint7_linear_202_53" x1="48.9486" y1="43.8175" x2="49.7581" y2="73.5004" gradientUnits="userSpaceOnUse">
<stop offset="0.00753769" stop-color="#F2CC40"/>
<stop offset="1" stop-color="#E7B116"/>
</linearGradient>
<linearGradient id="paint8_linear_202_53" x1="42.174" y1="52.4222" x2="42.9835" y2="71.5812" gradientUnits="userSpaceOnUse">
<stop stop-color="#F8E17B"/>
<stop offset="0.5302" stop-color="#F6D856"/>
<stop offset="1" stop-color="#F6D856"/>
</linearGradient>
<linearGradient id="paint9_linear_202_53" x1="76.2416" y1="53.0298" x2="83.3433" y2="53.0298" gradientUnits="userSpaceOnUse">
<stop stop-color="#388CF4"/>
<stop offset="1" stop-color="#2C7CEF"/>
</linearGradient>
<linearGradient id="paint10_linear_202_53" x1="60.3588" y1="68.8672" x2="67.415" y2="68.8672" gradientUnits="userSpaceOnUse">
<stop stop-color="#388CF4"/>
<stop offset="1" stop-color="#2C7CEF"/>
</linearGradient>
</defs>
</svg>
