<svg width="103" height="103" viewBox="0 0 103 103" fill="none" xmlns="http://www.w3.org/2000/svg">
<path d="M51.2497 98.676C25.3997 98.676 4.4397 77.726 4.4397 51.866C4.4397 26.006 25.3997 5.05603 51.2497 5.05603C77.0997 5.05603 98.0597 26.016 98.0597 51.866C98.0597 77.716 77.0997 98.676 51.2497 98.676Z" fill="url(#paint0_linear)"/>
<path fill-rule="evenodd" clip-rule="evenodd" d="M97.1499 51.866C97.1499 77.216 76.5999 97.766 51.2499 97.766C25.8999 97.766 5.34986 77.216 5.34986 51.866C5.34986 26.516 25.8999 5.96601 51.2499 5.96601C76.5999 5.96601 97.1499 26.516 97.1499 51.866ZM51.2499 2.22601C78.6699 2.22601 100.89 24.446 100.89 51.866C100.89 79.286 78.6599 101.506 51.2499 101.506C23.8299 101.506 1.60986 79.276 1.60986 51.866C1.60986 24.446 23.8299 2.22601 51.2499 2.22601Z" fill="#F2F1F0"/>
<path fill-rule="evenodd" clip-rule="evenodd" d="M94.3397 51.866C94.3397 75.666 75.0497 94.956 51.2497 94.956C27.4497 94.956 8.15968 75.666 8.15968 51.866C8.15968 28.066 27.4497 8.77604 51.2497 8.77604C75.0497 8.77604 94.3397 28.066 94.3397 51.866ZM51.2497 5.03604C77.1097 5.03604 98.0797 26.006 98.0797 51.866C98.0797 77.726 77.1097 98.696 51.2497 98.696C25.3897 98.696 4.41968 77.726 4.41968 51.866C4.41968 26.006 25.3797 5.03604 51.2497 5.03604Z" fill="url(#paint1_linear)"/>
<path d="M52.8598 71.016H46.3198C46.0398 71.016 45.8198 70.796 45.8198 70.516V39.466C45.8198 39.186 46.0398 38.966 46.3198 38.966H52.8598V39.966H46.8198V70.016H52.8598V71.016Z" fill="white"/>
<path d="M77.7298 54.466H68.7498C68.4698 54.466 68.2498 54.246 68.2498 53.966V39.966H59.7698V38.966H68.7498C69.0298 38.966 69.2498 39.186 69.2498 39.466V53.466H77.7298V54.466Z" fill="white"/>
<path d="M77.3898 38.966H62.7998V39.966H77.3898V38.966Z" fill="white"/>
<path d="M52.8499 51.766H38.3599V52.766H52.8499V51.766Z" fill="white"/>
<path d="M65.5599 35.946H50.1699V44.956C50.1699 45.226 50.3899 45.446 50.6599 45.446H65.0599C65.3299 45.446 65.5499 45.226 65.5499 44.956L65.5599 35.946Z" fill="#50E6FF"/>
<path d="M65.0299 34.616H50.6899C50.3999 34.616 50.1699 34.846 50.1699 35.136V36.256H65.5599V35.136C65.5599 34.846 65.3199 34.616 65.0299 34.616Z" fill="white"/>
<path d="M87.7098 35.946H72.3198V44.956C72.3198 45.226 72.5398 45.446 72.8098 45.446H87.2098C87.4798 45.446 87.6998 45.226 87.6998 44.956L87.7098 35.946Z" fill="#45CAF2"/>
<path d="M87.1798 34.616H72.8398C72.5498 34.616 72.3198 34.846 72.3198 35.136V36.256H87.7098V35.136C87.7098 34.846 87.4798 34.616 87.1798 34.616Z" fill="white"/>
<path d="M88.0599 50.246H72.6699V59.256C72.6699 59.526 72.8899 59.746 73.1599 59.746H87.5599C87.8299 59.746 88.0499 59.526 88.0499 59.256L88.0599 50.246Z" fill="#45CAF2"/>
<path d="M87.5299 48.916H73.1999C72.9099 48.916 72.6799 49.146 72.6799 49.436V50.556H88.0699V49.436C88.0599 49.146 87.8299 48.916 87.5299 48.916Z" fill="white"/>
<path d="M65.5599 67.116H50.1699V76.126C50.1699 76.396 50.3899 76.616 50.6599 76.616H65.0599C65.3299 76.616 65.5499 76.396 65.5499 76.126L65.5599 67.116Z" fill="#50E6FF"/>
<path d="M65.0299 65.786H50.6899C50.3999 65.786 50.1699 66.016 50.1699 66.306V67.426H65.5599V66.306C65.5599 66.016 65.3199 65.786 65.0299 65.786Z" fill="white"/>
<path d="M65.5599 49.796H50.1699V62.556C50.1699 63.006 50.5299 63.366 50.9799 63.366H64.7499C65.1999 63.366 65.5599 63.006 65.5599 62.556V49.796Z" fill="#50E6FF"/>
<path d="M64.8199 48.466H50.9099C50.4999 48.466 50.1699 48.796 50.1699 49.206V50.126H65.5599V49.206C65.5599 48.786 65.2199 48.466 64.8199 48.466Z" fill="white"/>
<path opacity="0.2" d="M22.7398 67.8461H40.9498C41.7598 67.8461 42.4198 67.1861 42.4198 66.3761V39.6361H13.5098V66.3661C13.5098 67.1761 14.1698 67.8361 14.9798 67.8361H18.1298H22.7398V67.8461Z" fill="#1F1D21"/>
<path d="M42.4198 39.1761V38.7261C42.4198 38.1661 41.9698 37.7261 41.4198 37.7261H14.5098C13.9598 37.7261 13.5098 38.1761 13.5098 38.7261V39.2261V39.6761V65.4261C13.5098 65.9861 13.9598 66.4261 14.5098 66.4261H18.1298H22.7298H41.4098C41.9698 66.4261 42.4098 65.9761 42.4098 65.4261V39.2261C42.4298 39.2061 42.4198 39.1961 42.4198 39.1761Z" fill="white"/>
<path d="M23.7998 50.9759H20.5898V41.3759C20.5898 41.0359 20.8698 40.7459 21.2198 40.7459H23.7998C24.1398 40.7459 24.4298 41.0259 24.4298 41.3759V50.3559C24.4298 50.7059 24.1398 50.9759 23.7998 50.9759Z" fill="url(#paint2_linear)"/>
<path d="M21.7197 50.9759H18.4297V43.9059C18.4297 43.6059 18.6797 43.3559 18.9797 43.3559H21.7197C22.0197 43.3559 22.2697 43.6059 22.2697 43.9059V50.4359C22.2697 50.7359 22.0197 50.9759 21.7197 50.9759Z" fill="url(#paint3_linear)"/>
<path d="M19.4999 50.9759H17.0799C16.6899 50.9759 16.3699 50.6559 16.3699 50.2659V46.5759C16.3699 46.1859 16.6899 45.8659 17.0799 45.8659H19.4999C19.8899 45.8659 20.2099 46.1859 20.2099 46.5759V50.2659C20.1999 50.6659 19.8899 50.9759 19.4999 50.9759Z" fill="url(#paint4_linear)"/>
<path d="M20.6998 53.9759L19.7798 53.0259C19.6598 52.8959 19.4498 52.9059 19.3298 53.0359L15.4398 57.4759C15.2698 57.6759 15.2698 57.9659 15.4398 58.1659L19.2898 62.5959C19.4398 62.7659 19.6898 62.7659 19.8398 62.5959L20.9898 61.2659L21.1198 54.4359L20.6998 53.9759Z" fill="url(#paint5_linear)"/>
<path d="M25.2197 57.2859L21.3897 53.0959C21.2197 52.9159 20.9397 52.9159 20.7797 53.0859L19.0097 54.9159C18.8197 55.1159 18.8097 55.4359 18.9997 55.6359L20.8197 57.5759C20.9597 57.7159 20.9597 57.9359 20.8197 58.0859L18.9997 60.0559C18.8097 60.2559 18.8197 60.5759 19.0097 60.7659L20.7797 62.6059C20.9497 62.7759 21.2297 62.7759 21.3897 62.5959L25.2197 58.3759C25.5097 58.0759 25.5097 57.5959 25.2197 57.2859Z" fill="url(#paint6_linear)"/>
<path d="M25.4098 58.1859L23.6998 60.0859C23.5698 60.2259 23.3398 60.2359 23.2098 60.0959L21.4898 58.3459C21.2098 58.0659 21.2098 57.6059 21.4898 57.3259L23.1798 55.5859C23.3098 55.4459 23.5398 55.4559 23.6698 55.5959L25.4098 57.5259C25.5898 57.6959 25.5898 57.9959 25.4098 58.1859Z" fill="url(#paint7_linear)"/>
<path d="M28.5099 55.8459C28.2899 55.8459 28.1099 56.0259 28.1099 56.2459V60.5559C28.1099 60.7759 28.2899 60.9559 28.5099 60.9559H30.2199C30.4499 60.9559 30.6399 61.1459 30.6399 61.3759V62.8259C30.6399 63.0559 30.9199 63.1759 31.0899 63.0059L33.1799 60.9459H35.3799C35.5999 60.9459 35.7799 60.7659 35.7799 60.5459V55.8259H28.5099V55.8459Z" fill="url(#paint8_linear)"/>
<path d="M37.9199 53.2559H31.0299C30.7999 53.2559 30.6099 53.4459 30.6099 53.6759V58.0359C30.6099 58.2259 30.7599 58.3759 30.9499 58.3759H33.0299C33.1199 58.3759 33.1999 58.4159 33.2599 58.4759L35.2499 60.4559C35.4399 60.6459 35.7699 60.5159 35.7699 60.2459V58.7959C35.7699 58.5659 35.9499 58.3859 36.1799 58.3859H37.9399C38.1599 58.3859 38.3399 58.2059 38.3399 57.9859V53.6859C38.3399 53.4459 38.1499 53.2559 37.9199 53.2559Z" fill="#4CCBED"/>
<path d="M38.3399 56.3159H30.6199V58.0359C30.6199 58.2259 30.7699 58.3759 30.9599 58.3759H33.0399C33.1299 58.3759 33.2099 58.4159 33.2699 58.4759L35.2499 60.4559C35.4399 60.6459 35.7699 60.5159 35.7699 60.2459V58.7959C35.7699 58.5659 35.9499 58.3859 36.1799 58.3859H37.9399C38.1599 58.3859 38.3399 58.2059 38.3399 57.9859V56.3159V56.3159Z" fill="#128AA9"/>
<path d="M38.3399 54.8959H30.6199V56.6759H38.3399V54.8959Z" fill="#17AAD2"/>
<path d="M35.2896 44.2659L32.0396 46.1659L28.6296 42.3659C28.3796 42.0859 28.5696 41.6459 28.9596 41.6459H35.2896V44.2659Z" fill="url(#paint9_linear)"/>
<path d="M37.0897 43.7059L35.2597 41.6459L28.6097 49.0659C28.3797 49.3159 28.5597 49.7159 28.8997 49.7159H31.6797L37.0897 43.7059Z" fill="url(#paint10_linear)"/>
<path d="M38.6298 45.4359L37.0798 43.6859L31.5898 49.7259H35.1198C35.1898 49.7259 35.2698 49.6959 35.3198 49.6359L38.6198 46.0359C38.7798 45.8659 38.7798 45.6159 38.6298 45.4359Z" fill="url(#paint11_linear)"/>
<g opacity="0.15">
<path opacity="0.15" d="M17.0799 51.2959H18.4299H21.7199H23.7999C24.1399 51.2959 24.4299 51.0159 24.4299 50.6659V41.6859C24.4299 41.3459 24.1499 41.0559 23.7999 41.0559H21.2199C20.8799 41.0559 20.5899 41.3359 20.5899 41.6859V43.6759H18.9799C18.6799 43.6759 18.4299 43.9259 18.4299 44.2259V46.1859H17.0799C16.6899 46.1859 16.3699 46.5059 16.3699 46.8959V50.5859C16.3699 50.9759 16.6899 51.2959 17.0799 51.2959Z" fill="#1F1D20"/>
<path opacity="0.15" d="M25.4098 57.8059L25.2498 57.6359C25.2398 57.6259 25.2398 57.6059 25.2298 57.5959L23.7998 56.0359L23.6698 55.8959C23.6698 55.8959 23.6698 55.8959 23.6598 55.8959L21.3998 53.4159C21.2298 53.2359 20.9498 53.2359 20.7898 53.4059L20.3198 53.8859L19.7898 53.3359C19.6698 53.2059 19.4598 53.2159 19.3398 53.3459L15.4498 57.7859C15.2798 57.9859 15.2798 58.2759 15.4498 58.4759L19.2998 62.9059C19.4498 63.0759 19.6998 63.0759 19.8498 62.9059L20.2898 62.3959L20.7898 62.9159C20.9598 63.0859 21.2398 63.0859 21.3998 62.9059L23.6598 60.4159C23.6698 60.4059 23.6898 60.3959 23.6998 60.3859L25.4098 58.4859C25.5898 58.3059 25.5898 58.0059 25.4098 57.8059Z" fill="#1F1D20"/>
</g>
<path opacity="0.15" d="M38.3399 55.2059V53.9759C38.3399 53.7459 38.1599 53.5559 37.9199 53.5559H31.0299C30.7999 53.5559 30.6099 53.7459 30.6099 53.9759V55.2059V56.1459H28.5099C28.2899 56.1459 28.1099 56.3259 28.1099 56.5459V60.8659C28.1099 61.0859 28.2899 61.2659 28.5099 61.2659H30.2199C30.4499 61.2659 30.6399 61.4559 30.6399 61.6859V63.1359C30.6399 63.3659 30.9199 63.4859 31.0899 63.3159L33.1799 61.2559H35.3799C35.5999 61.2559 35.7799 61.0759 35.7799 60.8559V59.0159C35.8099 58.8159 35.9799 58.6759 36.1799 58.6759H37.9399C38.1599 58.6759 38.3399 58.4959 38.3399 58.2759V56.9859V55.2059Z" fill="#1F1D20"/>
<path opacity="0.15" d="M38.6297 45.7459L37.0797 43.9959L37.0697 44.0059L35.2897 41.9959V41.9559H28.9597C28.5897 41.9559 28.3797 42.4059 28.6297 42.6759L31.6197 46.0159L28.5997 49.3859C28.3697 49.6359 28.5497 50.0359 28.8897 50.0359H31.6697H35.1097C35.1797 50.0359 35.2597 50.0059 35.3097 49.9459L38.6197 46.3459C38.7797 46.1859 38.7797 45.9159 38.6297 45.7459Z" fill="#1F1D20"/>
<path d="M23.7998 50.9759H20.5898V41.3759C20.5898 41.0359 20.8698 40.7459 21.2198 40.7459H23.7998C24.1398 40.7459 24.4298 41.0259 24.4298 41.3759V50.3559C24.4298 50.7059 24.1398 50.9759 23.7998 50.9759Z" fill="url(#paint12_linear)"/>
<path d="M21.7197 50.9759H18.4297V43.9059C18.4297 43.6059 18.6797 43.3559 18.9797 43.3559H21.7197C22.0197 43.3559 22.2697 43.6059 22.2697 43.9059V50.4359C22.2697 50.7359 22.0197 50.9759 21.7197 50.9759Z" fill="url(#paint13_linear)"/>
<path d="M19.4999 50.9759H17.0799C16.6899 50.9759 16.3699 50.6559 16.3699 50.2659V46.5759C16.3699 46.1859 16.6899 45.8659 17.0799 45.8659H19.4999C19.8899 45.8659 20.2099 46.1859 20.2099 46.5759V50.2659C20.1999 50.6659 19.8899 50.9759 19.4999 50.9759Z" fill="url(#paint14_linear)"/>
<path d="M20.6998 53.9759L19.7798 53.0259C19.6598 52.8959 19.4498 52.9059 19.3298 53.0359L15.4398 57.4759C15.2698 57.6759 15.2698 57.9659 15.4398 58.1659L19.2898 62.5959C19.4398 62.7659 19.6898 62.7659 19.8398 62.5959L20.9898 61.2659L21.1198 54.4359L20.6998 53.9759Z" fill="url(#paint15_linear)"/>
<path d="M25.2197 57.2859L21.3897 53.0959C21.2197 52.9159 20.9397 52.9159 20.7797 53.0859L19.0097 54.9159C18.8197 55.1159 18.8097 55.4359 18.9997 55.6359L20.8197 57.5759C20.9597 57.7159 20.9597 57.9359 20.8197 58.0859L18.9997 60.0559C18.8097 60.2559 18.8197 60.5759 19.0097 60.7659L20.7797 62.6059C20.9497 62.7759 21.2297 62.7759 21.3897 62.5959L25.2197 58.3759C25.5097 58.0759 25.5097 57.5959 25.2197 57.2859Z" fill="url(#paint16_linear)"/>
<path d="M25.4098 58.1859L23.6998 60.0859C23.5698 60.2259 23.3398 60.2359 23.2098 60.0959L21.4898 58.3459C21.2098 58.0659 21.2098 57.6059 21.4898 57.3259L23.1798 55.5859C23.3098 55.4459 23.5398 55.4559 23.6698 55.5959L25.4098 57.5259C25.5898 57.6959 25.5898 57.9959 25.4098 58.1859Z" fill="url(#paint17_linear)"/>
<path d="M28.5099 55.8459C28.2899 55.8459 28.1099 56.0259 28.1099 56.2459V60.5559C28.1099 60.7759 28.2899 60.9559 28.5099 60.9559H30.2199C30.4499 60.9559 30.6399 61.1459 30.6399 61.3759V62.8259C30.6399 63.0559 30.9199 63.1759 31.0899 63.0059L33.1799 60.9459H35.3799C35.5999 60.9459 35.7799 60.7659 35.7799 60.5459V55.8259H28.5099V55.8459Z" fill="url(#paint18_linear)"/>
<path d="M37.9199 53.2559H31.0299C30.7999 53.2559 30.6099 53.4459 30.6099 53.6759V58.0359C30.6099 58.2259 30.7599 58.3759 30.9499 58.3759H33.0299C33.1199 58.3759 33.1999 58.4159 33.2599 58.4759L35.2499 60.4559C35.4399 60.6459 35.7699 60.5159 35.7699 60.2459V58.7959C35.7699 58.5659 35.9499 58.3859 36.1799 58.3859H37.9399C38.1599 58.3859 38.3399 58.2059 38.3399 57.9859V53.6859C38.3399 53.4459 38.1499 53.2559 37.9199 53.2559Z" fill="#4CCBED"/>
<path d="M38.3399 56.3159H30.6199V58.0359C30.6199 58.2259 30.7699 58.3759 30.9599 58.3759H33.0399C33.1299 58.3759 33.2099 58.4159 33.2699 58.4759L35.2499 60.4559C35.4399 60.6459 35.7699 60.5159 35.7699 60.2459V58.7959C35.7699 58.5659 35.9499 58.3859 36.1799 58.3859H37.9399C38.1599 58.3859 38.3399 58.2059 38.3399 57.9859V56.3159V56.3159Z" fill="#128AA9"/>
<path d="M38.3399 54.8959H30.6199V56.6759H38.3399V54.8959Z" fill="#17AAD2"/>
<path d="M35.2896 44.2659L32.0396 46.1659L28.6296 42.3659C28.3796 42.0859 28.5696 41.6459 28.9596 41.6459H35.2896V44.2659Z" fill="url(#paint19_linear)"/>
<path d="M37.0897 43.7059L35.2597 41.6459L28.6097 49.0659C28.3797 49.3159 28.5597 49.7159 28.8997 49.7159H31.6797L37.0897 43.7059Z" fill="url(#paint20_linear)"/>
<path d="M38.6298 45.4359L37.0798 43.6859L31.5898 49.7259H35.1198C35.1898 49.7259 35.2698 49.6959 35.3198 49.6359L38.6198 46.0359C38.7798 45.8659 38.7798 45.6159 38.6298 45.4359Z" fill="url(#paint21_linear)"/>
<path d="M23.7998 50.9759H20.5898V41.3759C20.5898 41.0359 20.8698 40.7459 21.2198 40.7459H23.7998C24.1398 40.7459 24.4298 41.0259 24.4298 41.3759V50.3559C24.4298 50.7059 24.1398 50.9759 23.7998 50.9759Z" fill="url(#paint22_linear)"/>
<path d="M21.7197 50.9759H18.4297V43.9059C18.4297 43.6059 18.6797 43.3559 18.9797 43.3559H21.7197C22.0197 43.3559 22.2697 43.6059 22.2697 43.9059V50.4359C22.2697 50.7359 22.0197 50.9759 21.7197 50.9759Z" fill="url(#paint23_linear)"/>
<path d="M19.4999 50.9759H17.0799C16.6899 50.9759 16.3699 50.6559 16.3699 50.2659V46.5759C16.3699 46.1859 16.6899 45.8659 17.0799 45.8659H19.4999C19.8899 45.8659 20.2099 46.1859 20.2099 46.5759V50.2659C20.1999 50.6659 19.8899 50.9759 19.4999 50.9759Z" fill="url(#paint24_linear)"/>
<path d="M20.6998 53.9759L19.7798 53.0259C19.6598 52.8959 19.4498 52.9059 19.3298 53.0359L15.4398 57.4759C15.2698 57.6759 15.2698 57.9659 15.4398 58.1659L19.2898 62.5959C19.4398 62.7659 19.6898 62.7659 19.8398 62.5959L20.9898 61.2659L21.1198 54.4359L20.6998 53.9759Z" fill="url(#paint25_linear)"/>
<path d="M25.2197 57.2859L21.3897 53.0959C21.2197 52.9159 20.9397 52.9159 20.7797 53.0859L19.0097 54.9159C18.8197 55.1159 18.8097 55.4359 18.9997 55.6359L20.8197 57.5759C20.9597 57.7159 20.9597 57.9359 20.8197 58.0859L18.9997 60.0559C18.8097 60.2559 18.8197 60.5759 19.0097 60.7659L20.7797 62.6059C20.9497 62.7759 21.2297 62.7759 21.3897 62.5959L25.2197 58.3759C25.5097 58.0759 25.5097 57.5959 25.2197 57.2859Z" fill="url(#paint26_linear)"/>
<path d="M25.4098 58.1859L23.6998 60.0859C23.5698 60.2259 23.3398 60.2359 23.2098 60.0959L21.4898 58.3459C21.2098 58.0659 21.2098 57.6059 21.4898 57.3259L23.1798 55.5859C23.3098 55.4459 23.5398 55.4559 23.6698 55.5959L25.4098 57.5259C25.5898 57.6959 25.5898 57.9959 25.4098 58.1859Z" fill="url(#paint27_linear)"/>
<path d="M28.5099 55.8459C28.2899 55.8459 28.1099 56.0259 28.1099 56.2459V60.5559C28.1099 60.7759 28.2899 60.9559 28.5099 60.9559H30.2199C30.4499 60.9559 30.6399 61.1459 30.6399 61.3759V62.8259C30.6399 63.0559 30.9199 63.1759 31.0899 63.0059L33.1799 60.9459H35.3799C35.5999 60.9459 35.7799 60.7659 35.7799 60.5459V55.8259H28.5099V55.8459Z" fill="url(#paint28_linear)"/>
<path d="M37.9199 53.2559H31.0299C30.7999 53.2559 30.6099 53.4459 30.6099 53.6759V58.0359C30.6099 58.2259 30.7599 58.3759 30.9499 58.3759H33.0299C33.1199 58.3759 33.1999 58.4159 33.2599 58.4759L35.2499 60.4559C35.4399 60.6459 35.7699 60.5159 35.7699 60.2459V58.7959C35.7699 58.5659 35.9499 58.3859 36.1799 58.3859H37.9399C38.1599 58.3859 38.3399 58.2059 38.3399 57.9859V53.6859C38.3399 53.4459 38.1499 53.2559 37.9199 53.2559Z" fill="#4CCBED"/>
<path d="M38.3399 56.3159H30.6199V58.0359C30.6199 58.2259 30.7699 58.3759 30.9599 58.3759H33.0399C33.1299 58.3759 33.2099 58.4159 33.2699 58.4759L35.2499 60.4559C35.4399 60.6459 35.7699 60.5159 35.7699 60.2459V58.7959C35.7699 58.5659 35.9499 58.3859 36.1799 58.3859H37.9399C38.1599 58.3859 38.3399 58.2059 38.3399 57.9859V56.3159V56.3159Z" fill="#128AA9"/>
<path d="M38.3399 54.8959H30.6199V56.6759H38.3399V54.8959Z" fill="#17AAD2"/>
<path d="M35.2896 44.2659L32.0396 46.1659L28.6296 42.3659C28.3796 42.0859 28.5696 41.6459 28.9596 41.6459H35.2896V44.2659Z" fill="url(#paint29_linear)"/>
<path d="M37.0897 43.7059L35.2597 41.6459L28.6097 49.0659C28.3797 49.3159 28.5597 49.7159 28.8997 49.7159H31.6797L37.0897 43.7059Z" fill="url(#paint30_linear)"/>
<path d="M38.6298 45.4359L37.0798 43.6859L31.5898 49.7259H35.1198C35.1898 49.7259 35.2698 49.6959 35.3198 49.6359L38.6198 46.0359C38.7798 45.8659 38.7798 45.6159 38.6298 45.4359Z" fill="url(#paint31_linear)"/>
<defs>
<linearGradient id="paint0_linear" x1="49.4798" y1="-12.9236" x2="53.4618" y2="132.846" gradientUnits="userSpaceOnUse">
<stop stop-color="#00ABDE"/>
<stop offset="1" stop-color="#007ED8"/>
</linearGradient>
<linearGradient id="paint1_linear" x1="2.68238" y1="-19.7586" x2="98.2094" y2="121.123" gradientUnits="userSpaceOnUse">
<stop stop-color="#007ED8"/>
<stop offset="0.7065" stop-color="#002D4C"/>
</linearGradient>
<linearGradient id="paint2_linear" x1="22.4646" y1="41.6876" x2="22.5463" y2="50.1759" gradientUnits="userSpaceOnUse">
<stop offset="0.00753769" stop-color="#E0A310"/>
<stop offset="1" stop-color="#CA810E"/>
</linearGradient>
<linearGradient id="paint3_linear" x1="20.2449" y1="43.6603" x2="20.4898" y2="52.6383" gradientUnits="userSpaceOnUse">
<stop offset="0.00753769" stop-color="#F2CC40"/>
<stop offset="1" stop-color="#E7B116"/>
</linearGradient>
<linearGradient id="paint4_linear" x1="18.1985" y1="46.2633" x2="18.4434" y2="52.0582" gradientUnits="userSpaceOnUse">
<stop stop-color="#F8E17B"/>
<stop offset="0.5302" stop-color="#F6D856"/>
<stop offset="1" stop-color="#F6D856"/>
</linearGradient>
<linearGradient id="paint5_linear" x1="17.9708" y1="53.3004" x2="18.6839" y2="61.6788" gradientUnits="userSpaceOnUse">
<stop stop-color="#A23093"/>
<stop offset="1" stop-color="#692266"/>
</linearGradient>
<linearGradient id="paint6_linear" x1="18.8556" y1="57.8512" x2="25.4367" y2="57.8512" gradientUnits="userSpaceOnUse">
<stop stop-color="#E184C4"/>
<stop offset="1" stop-color="#D76EBC"/>
</linearGradient>
<linearGradient id="paint7_linear" x1="21.2769" y1="57.8331" x2="25.5357" y2="57.8331" gradientUnits="userSpaceOnUse">
<stop stop-color="#E89BCA"/>
<stop offset="1" stop-color="#E591C8"/>
</linearGradient>
<linearGradient id="paint8_linear" x1="30.8491" y1="56.2057" x2="33.1131" y2="60.4415" gradientUnits="userSpaceOnUse">
<stop stop-color="#107590"/>
<stop offset="0.2789" stop-color="#107590"/>
<stop offset="0.9874" stop-color="#0D5D73"/>
</linearGradient>
<linearGradient id="paint9_linear" x1="28.948" y1="39.464" x2="36.3246" y2="46.4049" gradientUnits="userSpaceOnUse">
<stop offset="0.4598" stop-color="#1152D4"/>
<stop offset="0.6156" stop-color="#0D3FB3"/>
</linearGradient>
<linearGradient id="paint10_linear" x1="28.5078" y1="45.6906" x2="37.0887" y2="45.6906" gradientUnits="userSpaceOnUse">
<stop stop-color="#388CF4"/>
<stop offset="1" stop-color="#2C7CEF"/>
</linearGradient>
<linearGradient id="paint11_linear" x1="31.5915" y1="46.7003" x2="38.7431" y2="46.7003" gradientUnits="userSpaceOnUse">
<stop stop-color="#76C0FD"/>
<stop offset="1" stop-color="#63B2FB"/>
</linearGradient>
<linearGradient id="paint12_linear" x1="22.4646" y1="41.6876" x2="22.5463" y2="50.1759" gradientUnits="userSpaceOnUse">
<stop offset="0.00753769" stop-color="#E0A310"/>
<stop offset="1" stop-color="#CA810E"/>
</linearGradient>
<linearGradient id="paint13_linear" x1="20.2449" y1="43.6603" x2="20.4898" y2="52.6383" gradientUnits="userSpaceOnUse">
<stop offset="0.00753769" stop-color="#F2CC40"/>
<stop offset="1" stop-color="#E7B116"/>
</linearGradient>
<linearGradient id="paint14_linear" x1="18.1985" y1="46.2633" x2="18.4434" y2="52.0582" gradientUnits="userSpaceOnUse">
<stop stop-color="#F8E17B"/>
<stop offset="0.5302" stop-color="#F6D856"/>
<stop offset="1" stop-color="#F6D856"/>
</linearGradient>
<linearGradient id="paint15_linear" x1="17.9708" y1="53.3004" x2="18.6839" y2="61.6788" gradientUnits="userSpaceOnUse">
<stop stop-color="#A23093"/>
<stop offset="1" stop-color="#692266"/>
</linearGradient>
<linearGradient id="paint16_linear" x1="18.8556" y1="57.8512" x2="25.4367" y2="57.8512" gradientUnits="userSpaceOnUse">
<stop stop-color="#E184C4"/>
<stop offset="1" stop-color="#D76EBC"/>
</linearGradient>
<linearGradient id="paint17_linear" x1="21.2769" y1="57.8331" x2="25.5357" y2="57.8331" gradientUnits="userSpaceOnUse">
<stop stop-color="#E89BCA"/>
<stop offset="1" stop-color="#E591C8"/>
</linearGradient>
<linearGradient id="paint18_linear" x1="30.8491" y1="56.2057" x2="33.1131" y2="60.4415" gradientUnits="userSpaceOnUse">
<stop stop-color="#107590"/>
<stop offset="0.2789" stop-color="#107590"/>
<stop offset="0.9874" stop-color="#0D5D73"/>
</linearGradient>
<linearGradient id="paint19_linear" x1="28.948" y1="39.464" x2="36.3246" y2="46.4049" gradientUnits="userSpaceOnUse">
<stop offset="0.4598" stop-color="#1152D4"/>
<stop offset="0.6156" stop-color="#0D3FB3"/>
</linearGradient>
<linearGradient id="paint20_linear" x1="28.5078" y1="45.6906" x2="37.0887" y2="45.6906" gradientUnits="userSpaceOnUse">
<stop stop-color="#388CF4"/>
<stop offset="1" stop-color="#2C7CEF"/>
</linearGradient>
<linearGradient id="paint21_linear" x1="31.5915" y1="46.7003" x2="38.7431" y2="46.7003" gradientUnits="userSpaceOnUse">
<stop stop-color="#76C0FD"/>
<stop offset="1" stop-color="#63B2FB"/>
</linearGradient>
<linearGradient id="paint22_linear" x1="22.4646" y1="41.6876" x2="22.5463" y2="50.1759" gradientUnits="userSpaceOnUse">
<stop offset="0.00753769" stop-color="#E0A310"/>
<stop offset="1" stop-color="#CA810E"/>
</linearGradient>
<linearGradient id="paint23_linear" x1="20.2449" y1="43.6603" x2="20.4898" y2="52.6383" gradientUnits="userSpaceOnUse">
<stop offset="0.00753769" stop-color="#F2CC40"/>
<stop offset="1" stop-color="#E7B116"/>
</linearGradient>
<linearGradient id="paint24_linear" x1="18.1985" y1="46.2633" x2="18.4434" y2="52.0582" gradientUnits="userSpaceOnUse">
<stop stop-color="#F8E17B"/>
<stop offset="0.5302" stop-color="#F6D856"/>
<stop offset="1" stop-color="#F6D856"/>
</linearGradient>
<linearGradient id="paint25_linear" x1="17.9708" y1="53.3004" x2="18.6839" y2="61.6788" gradientUnits="userSpaceOnUse">
<stop stop-color="#A23093"/>
<stop offset="1" stop-color="#692266"/>
</linearGradient>
<linearGradient id="paint26_linear" x1="18.8556" y1="57.8512" x2="25.4367" y2="57.8512" gradientUnits="userSpaceOnUse">
<stop stop-color="#E184C4"/>
<stop offset="1" stop-color="#D76EBC"/>
</linearGradient>
<linearGradient id="paint27_linear" x1="21.2769" y1="57.8331" x2="25.5357" y2="57.8331" gradientUnits="userSpaceOnUse">
<stop stop-color="#E89BCA"/>
<stop offset="1" stop-color="#E591C8"/>
</linearGradient>
<linearGradient id="paint28_linear" x1="30.8491" y1="56.2057" x2="33.1131" y2="60.4415" gradientUnits="userSpaceOnUse">
<stop stop-color="#107590"/>
<stop offset="0.2789" stop-color="#107590"/>
<stop offset="0.9874" stop-color="#0D5D73"/>
</linearGradient>
<linearGradient id="paint29_linear" x1="28.948" y1="39.464" x2="36.3246" y2="46.4049" gradientUnits="userSpaceOnUse">
<stop offset="0.4598" stop-color="#1152D4"/>
<stop offset="0.6156" stop-color="#0D3FB3"/>
</linearGradient>
<linearGradient id="paint30_linear" x1="28.5078" y1="45.6906" x2="37.0887" y2="45.6906" gradientUnits="userSpaceOnUse">
<stop stop-color="#388CF4"/>
<stop offset="1" stop-color="#2C7CEF"/>
</linearGradient>
<linearGradient id="paint31_linear" x1="31.5915" y1="46.7003" x2="38.7431" y2="46.7003" gradientUnits="userSpaceOnUse">
<stop stop-color="#76C0FD"/>
<stop offset="1" stop-color="#63B2FB"/>
</linearGradient>
</defs>
</svg>
