<svg width="103" height="103" fill="none" xmlns="http://www.w3.org/2000/svg"><path d="M51.862 98.78c-25.85 0-46.81-20.95-46.81-46.81 0-25.86 20.96-46.81 46.81-46.81s46.81 20.96 46.81 46.81-20.96 46.81-46.81 46.81Z" fill="url(#a)"/><path fill-rule="evenodd" clip-rule="evenodd" d="M97.763 51.97c0 25.35-20.55 45.9-45.9 45.9-25.35 0-45.9-20.55-45.9-45.9 0-25.35 20.55-45.9 45.9-45.9 25.35 0 45.9 20.55 45.9 45.9Zm-45.9-49.64c27.42 0 49.64 22.22 49.64 49.64s-22.23 49.639-49.64 49.639c-27.42 0-49.64-22.23-49.64-49.64 0-27.42 22.22-49.64 49.64-49.64Z" fill="#F2F1F0"/><path fill-rule="evenodd" clip-rule="evenodd" d="M94.953 51.97c0 23.8-19.29 43.09-43.09 43.09-23.8 0-43.09-19.29-43.09-43.09 0-23.8 19.29-43.09 43.09-43.09 23.8 0 43.09 19.29 43.09 43.09ZM51.862 5.14c25.86 0 46.83 20.97 46.83 46.83S77.722 98.8 51.862 98.8 5.032 77.83 5.032 51.97s20.96-46.83 46.83-46.83Z" fill="url(#b)"/><path opacity=".15" d="M73.495 24.687h-42.43c-.915 0-1.655.74-1.655 1.656v55.364c0 .916.74 1.656 1.656 1.656h42.43c.915 0 1.655-.74 1.655-1.656V26.343c-.012-.915-.753-1.656-1.656-1.656Z" fill="#1F1D20"/><path d="M73.495 22.642h-42.43c-.915 0-1.655.74-1.655 1.657v55.363c0 .916.74 1.656 1.656 1.656h42.43c.915 0 1.655-.74 1.655-1.656V24.298c-.012-.915-.753-1.655-1.656-1.655Z" fill="#F2F2F2"/><path fill-rule="evenodd" clip-rule="evenodd" d="M55.14 15.015c1.594.84 2.535 2.546 2.535 4.34v.44c0 .163-.013.313-.025.476h3.45c1.029 0 1.995.515 2.51 1.405 1.454 2.547-.34 5.144-2.748 5.144H43.46c-1.029 0-1.995-.514-2.51-1.405-1.455-2.547.34-5.144 2.748-5.144h3.212c-.013-.15-.013-.313-.013-.476v-.138c0-3.89 4.128-6.813 8.243-4.642Z" fill="#1F56A3"/><path d="M52.28 22.178c1.23 0 2.221-.99 2.221-2.22 0-1.23-.991-2.22-2.22-2.22-1.23 0-2.221.99-2.221 2.22 0 1.23.99 2.22 2.22 2.22Z" fill="#F2F2F2"/><path d="M41.053 38.432H33.62v7.433h7.433v-7.433Z" fill="#fff"/><path d="m43.293 38.218-1.048-1.049-5.242 5.242-1.56-1.573-1.048 1.048 2.62 2.621 6.278-6.29Z" fill="#35AFE4"/><path d="M41.053 50.154H33.62v7.433h7.433v-7.433Z" fill="#fff"/><path d="m43.293 49.94-1.048-1.049-5.242 5.242-1.56-1.573-1.048 1.048 2.62 2.621 6.278-6.29Z" fill="#2E76BC"/><path d="M41.053 61.97H33.62v7.434h7.433v-7.433Z" fill="#fff"/><path d="m43.293 61.768-1.048-1.048-5.242 5.241-1.572-1.584-1.048 1.048 2.62 2.62 6.29-6.277Z" fill="url(#c)"/><path d="M68.534 70.253H58.39v-30.35a1.98 1.98 0 0 1 1.98-1.979h8.165a1.98 1.98 0 0 1 1.98 1.98v28.37a1.98 1.98 0 0 1-1.98 1.979Z" fill="url(#d)"/><path d="M61.965 70.253h-10.4V47.9c0-.95.773-1.724 1.724-1.724h8.672c.95 0 1.724.773 1.724 1.724v20.623a1.72 1.72 0 0 1-1.72 1.729Z" fill="url(#e)"/><path d="M54.932 70.252h-7.63a2.246 2.246 0 0 1-2.247-2.247v-11.66a2.246 2.246 0 0 1 2.247-2.248h7.634a2.246 2.246 0 0 1 2.248 2.248v11.66a2.253 2.253 0 0 1-2.252 2.247Z" fill="url(#f)"/><defs><linearGradient id="a" x1="50.089" y1="-12.82" x2="54.071" y2="132.95" gradientUnits="userSpaceOnUse"><stop stop-color="#00ABDE"/><stop offset="1" stop-color="#007ED8"/></linearGradient><linearGradient id="b" x1="3.293" y1="-19.653" x2="98.82" y2="121.228" gradientUnits="userSpaceOnUse"><stop stop-color="#007ED8"/><stop offset=".707" stop-color="#002D4C"/></linearGradient><linearGradient id="c" x1="38.583" y1="60.248" x2="76.302" y2="78.715" gradientUnits="userSpaceOnUse"><stop stop-color="#15548F"/><stop offset=".418" stop-color="#243A5E"/><stop offset=".968" stop-color="#1A2C45"/></linearGradient><linearGradient id="d" x1="64.316" y1="40.881" x2="64.574" y2="67.705" gradientUnits="userSpaceOnUse"><stop offset=".008" stop-color="#E0A310"/><stop offset="1" stop-color="#CA810E"/></linearGradient><linearGradient id="e" x1="57.303" y1="47.115" x2="58.076" y2="75.487" gradientUnits="userSpaceOnUse"><stop offset=".008" stop-color="#F2CC40"/><stop offset="1" stop-color="#E7B116"/></linearGradient><linearGradient id="f" x1="50.827" y1="55.341" x2="51.601" y2="73.653" gradientUnits="userSpaceOnUse"><stop stop-color="#F8E17B"/><stop offset=".53" stop-color="#F6D856"/><stop offset="1" stop-color="#F6D856"/></linearGradient></defs></svg>