<svg width="100" height="100" viewBox="0 0 100 100" fill="none" xmlns="http://www.w3.org/2000/svg">
<g clip-path="url(#clip0)">
<path d="M49.6401 96.4501C40.382 96.4501 31.3317 93.7047 23.6339 88.5612C15.936 83.4176 9.93624 76.1069 6.3933 67.5535C2.85036 59.0001 1.92337 49.5882 3.72954 40.5079C5.53571 31.4277 9.99394 23.0869 16.5404 16.5404C23.0869 9.99393 31.4277 5.53571 40.5079 3.72954C49.5882 1.92337 59.0001 2.85036 67.5535 6.3933C76.1069 9.93624 83.4176 15.936 88.5612 23.6339C93.7047 31.3317 96.4501 40.382 96.4501 49.6401C96.4505 55.7874 95.24 61.8746 92.8878 67.554C90.5355 73.2335 87.0875 78.3939 82.7407 82.7407C78.3939 87.0875 73.2335 90.5355 67.554 92.8878C61.8746 95.24 55.7874 96.4505 49.6401 96.4501V96.4501Z" fill="url(#paint0_linear)"/>
<path fill-rule="evenodd" clip-rule="evenodd" d="M95.54 49.64C95.54 58.7182 92.848 67.5925 87.8045 75.1407C82.7609 82.6889 75.5923 88.572 67.2052 92.0461C58.818 95.5201 49.5891 96.4291 40.6854 94.658C31.7816 92.887 23.603 88.5154 17.1838 82.0962C10.7646 75.677 6.39302 67.4984 4.62196 58.5946C2.85089 49.6909 3.75987 40.462 7.23393 32.0748C10.708 23.6877 16.5911 16.5191 24.1393 11.4755C31.6875 6.43199 40.5618 3.74 49.64 3.74C55.6677 3.73998 61.6363 4.9272 67.2052 7.23388C72.774 9.54057 77.834 12.9215 82.0963 17.1837C86.3585 21.446 89.7394 26.5059 92.0461 32.0748C94.3528 37.6437 95.54 43.6123 95.54 49.64V49.64ZM49.64 3.62732e-07C59.4579 3.62732e-07 69.0553 2.91134 77.2185 8.36585C85.3818 13.8204 91.7442 21.5731 95.5014 30.6436C99.2585 39.7141 100.242 49.6951 98.3262 59.3243C96.4108 68.9535 91.6831 77.7985 84.7408 84.7408C77.7985 91.6831 68.9535 96.4108 59.3243 98.3262C49.6951 100.242 39.7141 99.2585 30.6436 95.5014C21.5731 91.7442 13.8204 85.3818 8.36585 77.2185C2.91134 69.0553 3.62732e-07 59.4579 3.62732e-07 49.64C-0.000787738 43.121 1.28265 36.6656 3.77702 30.6427C6.27138 24.6197 9.9278 19.1471 14.5375 14.5375C19.1471 9.9278 24.6197 6.27138 30.6427 3.77702C36.6656 1.28265 43.121 -0.000787738 49.64 3.62732e-07V3.62732e-07Z" fill="#F2F1F0"/>
<path fill-rule="evenodd" clip-rule="evenodd" d="M92.7296 49.6406C92.7296 58.163 90.2024 66.494 85.4676 73.5801C80.7328 80.6662 74.0031 86.1892 66.1294 89.4505C58.2557 92.7119 49.5918 93.5653 41.2331 91.9026C32.8745 90.24 25.1966 86.1361 19.1703 80.1098C13.1441 74.0836 9.04017 66.4057 7.37753 58.047C5.7149 49.6884 6.56822 41.0244 9.8296 33.1507C13.091 25.2771 18.6139 18.5473 25.7 13.8126C32.7862 9.07776 41.1172 6.55058 49.6396 6.55058C55.2983 6.55023 60.9017 7.66455 66.1298 9.82991C71.3579 11.9953 76.1082 15.1692 80.1096 19.1706C84.1109 23.1719 87.2849 27.9223 89.4502 33.1503C91.6156 38.3784 92.7299 43.9818 92.7296 49.6406V49.6406ZM49.6396 2.81058C58.9017 2.81058 67.9558 5.55711 75.6569 10.7029C83.3581 15.8486 89.3604 23.1624 92.9049 31.7195C96.4493 40.2766 97.3767 49.6925 95.5697 58.7767C93.7628 67.8608 89.3027 76.2051 82.7534 82.7544C76.2041 89.3037 67.8598 93.7638 58.7757 95.5708C49.6915 97.3777 40.2756 96.4503 31.7185 92.9059C23.1614 89.3614 15.8476 83.3591 10.7018 75.6579C5.5561 67.9568 2.80957 58.9027 2.80957 49.6406C2.81076 37.2209 7.745 25.3101 16.5271 16.5281C25.3091 7.74599 37.2198 2.81174 49.6396 2.81055V2.81058Z" fill="#0078D4"/>
<path d="M44.9226 29.8359H21.2735C19.9453 29.8359 18.8687 30.9126 18.8687 32.2407V55.8899C18.8687 57.2181 19.9453 58.2947 21.2735 58.2947H44.9226C46.2508 58.2947 47.3274 57.2181 47.3274 55.8899V32.2407C47.3274 30.9126 46.2508 29.8359 44.9226 29.8359Z" fill="white"/>
<path d="M44.9227 60.6191H21.2393C19.9111 60.6191 18.8345 61.6958 18.8345 63.0239V67.0408C18.8345 68.3689 19.9111 69.4456 21.2393 69.4456H44.9227C46.2508 69.4456 47.3275 68.3689 47.3275 67.0408V63.0239C47.3275 61.6958 46.2508 60.6191 44.9227 60.6191Z" fill="white"/>
<path d="M33.0977 32.918L34.2606 32.9791C33.8742 32.9387 33.4861 32.9183 33.0977 32.918V32.918Z" fill="#0078D4"/>
<path d="M33.0979 47.8098C32.6056 47.8106 32.118 47.7144 31.6629 47.5265C31.2078 47.3387 30.7942 47.0629 30.4458 46.7151C30.0974 46.3673 29.821 45.9541 29.6324 45.4994C29.4438 45.0446 29.3468 44.5571 29.3468 44.0648C29.3468 43.5724 29.4438 43.085 29.6324 42.6302C29.821 42.1754 30.0974 41.7623 30.4458 41.4144C30.7942 41.0666 31.2078 40.7909 31.6629 40.603C32.118 40.4152 32.6056 40.3189 33.0979 40.3197V32.918C31.2648 32.918 29.46 33.3701 27.8434 34.2342C26.2267 35.0983 24.8482 36.3478 23.8297 37.872C22.8113 39.3961 22.1845 41.1479 22.0048 42.9722C21.8252 44.7965 22.0982 46.6369 22.7997 48.3305C23.5012 50.024 24.6095 51.5185 26.0265 52.6814C27.4435 53.8443 29.1255 54.6398 30.9233 54.9974C32.7212 55.355 34.5795 55.2637 36.3337 54.7316C38.0879 54.1995 39.6837 53.243 40.9799 51.9468L35.7461 46.7129C35.3987 47.0612 34.9859 47.3374 34.5315 47.5256C34.077 47.7139 33.5898 47.8105 33.0979 47.8098V47.8098Z" fill="#0078D4"/>
<path d="M34.2606 32.9791L33.0977 32.918V40.3197C33.8384 40.3197 34.5625 40.5393 35.1783 40.9508C35.7942 41.3623 36.2743 41.9472 36.5577 42.6316C36.8412 43.3159 36.9153 44.0689 36.7708 44.7954C36.6263 45.5219 36.2696 46.1892 35.7458 46.7129L40.9797 51.9468C42.4685 50.458 43.5052 48.578 43.9697 46.5244C44.4343 44.4708 44.3077 42.3276 43.6047 40.343C42.9017 38.3583 41.6509 36.6134 39.9972 35.3102C38.3435 34.0069 36.3546 33.1987 34.2606 32.9791H34.2606Z" fill="#9CEBFF"/>
<path d="M22.605 65.0312H43.5906" stroke="#0078D4" stroke-width="1.09167" stroke-miterlimit="10" stroke-linecap="round"/>
<path d="M30.056 67.4127C31.3705 67.4127 32.4361 66.347 32.4361 65.0325C32.4361 63.718 31.3705 62.6523 30.056 62.6523C28.7414 62.6523 27.6758 63.718 27.6758 65.0325C27.6758 66.347 28.7414 67.4127 30.056 67.4127Z" fill="#1B93EB" stroke="#0078D4" stroke-width="1.09167" stroke-miterlimit="10" stroke-linecap="round"/>
<path d="M78.0413 29.8359H54.3921C53.064 29.8359 51.9873 30.9126 51.9873 32.2407V55.8899C51.9873 57.2181 53.064 58.2947 54.3921 58.2947H78.0413C79.3694 58.2947 80.4461 57.2181 80.4461 55.8899V32.2407C80.4461 30.9126 79.3694 29.8359 78.0413 29.8359Z" fill="white"/>
<path d="M78.0413 60.6191H54.3579C53.0298 60.6191 51.9531 61.6958 51.9531 63.0239V67.0408C51.9531 68.3689 53.0298 69.4456 54.3579 69.4456H78.0413C79.3695 69.4456 80.4461 68.3689 80.4461 67.0408V63.0239C80.4461 61.6958 79.3695 60.6191 78.0413 60.6191Z" fill="white"/>
<path d="M66.2166 47.8098C65.7243 47.8106 65.2366 47.7144 64.7815 47.5265C64.3265 47.3387 63.9129 47.0629 63.5645 46.7151C63.2161 46.3673 62.9397 45.9541 62.7511 45.4994C62.5625 45.0446 62.4654 44.5571 62.4654 44.0648C62.4654 43.5724 62.5625 43.085 62.7511 42.6302C62.9397 42.1754 63.2161 41.7623 63.5645 41.4144C63.9129 41.0666 64.3265 40.7909 64.7815 40.603C65.2366 40.4152 65.7243 40.3189 66.2166 40.3197V32.918C64.3835 32.918 62.5787 33.3701 60.962 34.2342C59.3454 35.0983 57.9668 36.3478 56.9484 37.872C55.93 39.3961 55.3032 41.1479 55.1235 42.9722C54.9438 44.7965 55.2168 46.6369 55.9183 48.3305C56.6198 50.024 57.7282 51.5185 59.1452 52.6814C60.5622 53.8443 62.2441 54.6398 64.042 54.9974C65.8399 55.355 67.6982 55.2637 69.4524 54.7316C71.2065 54.1995 72.8024 53.243 74.0986 51.9468L68.8647 46.7129C68.5174 47.0612 68.1046 47.3374 67.6501 47.5256C67.1957 47.7139 66.7085 47.8105 66.2166 47.8098V47.8098Z" fill="#F2F2F2"/>
<path d="M67.3794 32.9791L66.2163 32.918V40.3197C66.957 40.3197 67.6811 40.5393 68.297 40.9508C68.9129 41.3623 69.393 41.9472 69.6764 42.6315C69.9599 43.3159 70.0341 44.0689 69.8895 44.7954C69.745 45.5219 69.3883 46.1892 68.8645 46.713L74.0984 51.9468C75.5872 50.458 76.6239 48.578 77.0885 46.5244C77.5531 44.4708 77.4266 42.3276 76.7235 40.343C76.0205 38.3583 74.7698 36.6134 73.1161 35.3101C71.4624 34.0069 69.4734 33.1987 67.3794 32.9791V32.9791Z" fill="#E8E8E8"/>
<path d="M55.7236 65.0312H76.7092" stroke="#E8E8E8" stroke-width="1.09167" stroke-miterlimit="10" stroke-linecap="round"/>
<path d="M72.1746 67.4127C73.4891 67.4127 74.5548 66.347 74.5548 65.0325C74.5548 63.718 73.4891 62.6523 72.1746 62.6523C70.8601 62.6523 69.7944 63.718 69.7944 65.0325C69.7944 66.347 70.8601 67.4127 72.1746 67.4127Z" fill="white" stroke="#E8E8E8" stroke-width="1.09167" stroke-miterlimit="10" stroke-linecap="round"/>
<path opacity="0.2" d="M47.3274 36.3809H42.5894C41.6884 36.3818 40.8246 36.7401 40.1875 37.3771C39.5504 38.0141 39.192 38.8779 39.1909 39.7788V49.21C39.192 50.1109 39.5504 50.9747 40.1875 51.6117C40.8246 52.2487 41.6884 52.607 42.5894 52.608H47.3274V36.3809Z" fill="#767676"/>
<path opacity="0.2" d="M57.2534 36.3809H51.9873V52.6079H57.2534C58.1544 52.6069 59.0182 52.2486 59.6553 51.6116C60.2924 50.9746 60.6508 50.1108 60.6519 49.2099V39.7788C60.6508 38.8778 60.2924 38.0141 59.6553 37.3771C59.0181 36.7401 58.1544 36.3818 57.2534 36.3809V36.3809Z" fill="#767676"/>
<path d="M57.2541 38.3809H42.5893C41.8173 38.3809 41.1914 39.0067 41.1914 39.7788V49.2101C41.1914 49.9822 41.8173 50.608 42.5893 50.608H57.2541C58.0261 50.608 58.652 49.9822 58.652 49.2101V39.7788C58.652 39.0067 58.0261 38.3809 57.2541 38.3809Z" fill="white"/>
<path d="M48.6873 42.5039V46.4632H47.1827C46.6577 46.4632 46.1542 46.2546 45.7829 45.8833C45.4117 45.5121 45.2031 45.0086 45.2031 44.4835C45.2031 43.9585 45.4117 43.455 45.7829 43.0837C46.1542 42.7125 46.6577 42.5039 47.1828 42.5039H48.6873Z" fill="#0078D4"/>
<path d="M48.4386 41.9434H48.4386C48.1767 41.9434 47.9644 42.1557 47.9644 42.4176V46.571C47.9644 46.8329 48.1767 47.0452 48.4386 47.0452H48.4386C48.7005 47.0452 48.9128 46.8329 48.9128 46.571V42.4176C48.9128 42.1557 48.7005 41.9434 48.4386 41.9434Z" fill="#0078D4"/>
<path d="M51.2388 46.4827V42.5234H52.7433C53.2683 42.5234 53.7718 42.732 54.1431 43.1033C54.5143 43.4745 54.7229 43.978 54.7229 44.5031V44.5031C54.7229 45.0281 54.5143 45.5316 54.1431 45.9029C53.7718 46.2741 53.2683 46.4827 52.7433 46.4827L51.2388 46.4827Z" fill="#0078D4"/>
<path d="M51.4869 41.9434H51.4869C51.225 41.9434 51.0127 42.1557 51.0127 42.4176V46.571C51.0127 46.8329 51.225 47.0452 51.4869 47.0452H51.4869C51.7488 47.0452 51.9612 46.8329 51.9612 46.571V42.4176C51.9612 42.1557 51.7488 41.9434 51.4869 41.9434Z" fill="#0078D4"/>
<path d="M50.0543 43.1387H48.9131V44.0235H50.0543V43.1387Z" fill="#0078D4"/>
<path d="M45.2687 44.0508H44.1274V44.9356H45.2687V44.0508Z" fill="#0078D4"/>
<path d="M55.7154 44.0508H54.5742V44.9356H55.7154V44.0508Z" fill="#0078D4"/>
<path d="M50.0543 44.9453H48.9131V45.8301H50.0543V44.9453Z" fill="#0078D4"/>
</g>
<defs>
<linearGradient id="paint0_linear" x1="47.8697" y1="-15.153" x2="51.8525" y2="130.615" gradientUnits="userSpaceOnUse">
<stop stop-color="#00ABDE"/>
<stop offset="1" stop-color="#007ED8"/>
</linearGradient>
<clipPath id="clip0">
<rect width="99.2799" height="99.28" fill="white"/>
</clipPath>
</defs>
</svg>
