<svg width="103" height="103" viewBox="0 0 103 103" fill="none" xmlns="http://www.w3.org/2000/svg">
<path d="M51.8828 98.6381C26.0328 98.6381 5.07275 77.6881 5.07275 51.8281C5.07275 25.9681 26.0328 5.01807 51.8828 5.01807C77.7328 5.01807 98.6927 25.9781 98.6927 51.8281C98.6927 77.6781 77.7328 98.6381 51.8828 98.6381Z" fill="url(#paint0_linear)"/>
<path fill-rule="evenodd" clip-rule="evenodd" d="M97.7829 51.8282C97.7829 77.1782 77.2329 97.7282 51.8829 97.7282C26.5329 97.7282 5.98292 77.1782 5.98292 51.8282C5.98292 26.4782 26.5329 5.92823 51.8829 5.92823C77.2329 5.92823 97.7829 26.4782 97.7829 51.8282ZM51.8829 2.18823C79.3029 2.18823 101.523 24.4082 101.523 51.8282C101.523 79.2482 79.2929 101.468 51.8829 101.468C24.4629 101.468 2.24292 79.2382 2.24292 51.8282C2.24292 24.4082 24.4629 2.18823 51.8829 2.18823Z" fill="#F2F1F0"/>
<path fill-rule="evenodd" clip-rule="evenodd" d="M94.9727 51.828C94.9727 75.628 75.6827 94.918 51.8827 94.918C28.0827 94.918 8.79273 75.628 8.79273 51.828C8.79273 28.028 28.0827 8.73805 51.8827 8.73805C75.6827 8.73805 94.9727 28.028 94.9727 51.828ZM51.8827 4.99805C77.7427 4.99805 98.7127 25.968 98.7127 51.828C98.7127 77.688 77.7427 98.6581 51.8827 98.6581C26.0227 98.6581 5.05273 77.688 5.05273 51.828C5.05273 25.968 26.0127 4.99805 51.8827 4.99805Z" fill="url(#paint1_linear)"/>
<path d="M61.533 31.2881V30.3481H43.9729C43.7929 30.3481 43.6329 30.5081 43.6329 30.6881V49.8481H27.2729V50.7881H43.6329V69.9181C43.6329 70.0981 43.7729 70.2581 43.9729 70.2581L61.533 70.3081V69.3681H44.583V31.2881H61.533Z" fill="white"/>
<path opacity="0.2" d="M81.8529 26.1182H68.9229C68.1329 26.1182 67.4829 26.7582 67.4829 27.5582V35.4682C67.4829 36.2582 68.1229 36.9082 68.9229 36.9082H81.8629C82.6529 36.9182 83.3029 36.2682 83.3029 35.4782V27.5482C83.2829 26.7582 82.6529 26.1182 81.8529 26.1182Z" fill="#1F1D21"/>
<path opacity="0.2" d="M81.8529 52.478H68.9229C68.1329 52.478 67.4829 53.118 67.4829 53.918V61.828C67.4829 62.618 68.1229 63.268 68.9229 63.268H81.8629C82.6529 63.268 83.3029 62.628 83.3029 61.828V53.928C83.2829 53.118 82.6529 52.478 81.8529 52.478Z" fill="#1F1D21"/>
<path opacity="0.2" d="M81.8529 39.2681H68.9229C68.1329 39.2681 67.4829 39.9081 67.4829 40.7081V48.6181C67.4829 49.4081 68.1229 50.0581 68.9229 50.0581H81.8629C82.6529 50.0681 83.3029 49.4181 83.3029 48.6181V40.7081C83.2829 39.9181 82.6529 39.2681 81.8529 39.2681Z" fill="#1F1D21"/>
<path opacity="0.2" d="M81.8529 65.6182H68.9229C68.1329 65.6182 67.4829 66.2582 67.4829 67.0582V74.9682C67.4829 75.7582 68.1229 76.4082 68.9229 76.4082H81.8629C82.6529 76.4082 83.3029 75.7682 83.3029 74.9682V67.0582C83.2829 66.2682 82.6529 65.6182 81.8529 65.6182Z" fill="#1F1D21"/>
<path d="M74.723 69.3682H60.543V70.3082H74.723V69.3682Z" fill="white"/>
<path d="M74.723 56.3682H60.543V57.3082H74.723V56.3682Z" fill="white"/>
<path d="M74.723 43.3682H60.543V44.3082H74.723V43.3682Z" fill="white"/>
<path d="M74.723 30.3481H60.543V31.2881H74.723V30.3481Z" fill="white"/>
<path d="M81.8029 25.0981H68.8729C68.0829 25.0981 67.4329 25.7381 67.4329 26.5381V34.4481C67.4329 35.2381 68.0729 35.8881 68.8729 35.8881H81.8129C82.6029 35.8981 83.2529 35.2481 83.2529 34.4581V26.5281C83.2229 25.7381 82.5929 25.0981 81.8029 25.0981Z" fill="url(#paint2_linear)"/>
<path d="M81.8029 51.4482H68.8729C68.0829 51.4482 67.4329 52.0882 67.4329 52.8882V60.7982C67.4329 61.5882 68.0729 62.2382 68.8729 62.2382H81.8129C82.6029 62.2382 83.2529 61.5982 83.2529 60.7982V52.8882C83.2229 52.0782 82.5929 51.4482 81.8029 51.4482Z" fill="url(#paint3_linear)"/>
<path d="M81.8029 38.248H68.8729C68.0829 38.248 67.4329 38.888 67.4329 39.688V47.598C67.4329 48.388 68.0729 49.038 68.8729 49.038H81.8129C82.6029 49.048 83.2529 48.398 83.2529 47.598V39.688C83.2229 38.878 82.5929 38.248 81.8029 38.248Z" fill="url(#paint4_linear)"/>
<path d="M81.8029 64.5881H68.8729C68.0829 64.5881 67.4329 65.2281 67.4329 66.0281V73.9381C67.4329 74.7281 68.0729 75.3781 68.8729 75.3781H81.8129C82.6029 75.3781 83.2529 74.7381 83.2529 73.9381V66.0281C83.2229 65.2481 82.5929 64.5881 81.8029 64.5881Z" fill="url(#paint5_linear)"/>
<path d="M78.363 70.988H76.923C76.713 70.988 76.573 71.158 76.573 71.338C76.573 71.548 76.743 71.688 76.923 71.688H78.363C78.573 71.688 78.713 71.528 78.713 71.338C78.723 71.158 78.563 70.988 78.363 70.988Z" fill="white"/>
<path d="M78.363 68.1182H73.683C73.473 68.1182 73.333 68.2882 73.333 68.4682C73.333 68.6782 73.503 68.8182 73.683 68.8182H78.363C78.573 68.8182 78.713 68.6482 78.713 68.4682C78.723 68.2882 78.563 68.1182 78.363 68.1182Z" fill="white"/>
<path d="M78.3631 69.5681H75.0131C74.8031 69.5681 75.1231 69.7381 75.1231 69.9181C75.1231 70.1281 74.8231 70.2481 75.0131 70.2481H78.3631C78.5731 70.2481 78.7131 70.1181 78.7131 69.9181C78.7231 69.7381 78.5631 69.5681 78.3631 69.5681Z" fill="white"/>
<path d="M78.3629 66.6982H72.2729C72.0629 66.6982 71.9229 66.8682 71.9229 67.0482V67.0582C71.9229 67.2682 72.0929 67.4082 72.2729 67.4082H78.3629C78.5729 67.4082 78.7129 67.2382 78.7129 67.0482C78.7129 66.8482 78.5629 66.6982 78.3629 66.6982Z" fill="white"/>
<path d="M72.2729 67.3982H72.9929C73.2029 67.3982 73.3428 67.2282 73.3428 67.0482C73.3428 66.8682 73.1729 66.6982 72.9929 66.6982H72.2729C72.0629 66.6982 71.9229 66.8682 71.9229 67.0482C71.9229 67.2282 72.0829 67.3982 72.2729 67.3982Z" fill="#50E6FF"/>
<path d="M72.2729 68.8482H73.7129C73.9229 68.8482 74.0629 68.6782 74.0629 68.4982C74.0629 68.2882 73.8929 68.1482 73.7129 68.1482H72.2729C72.0629 68.1482 71.9229 68.3182 71.9229 68.4982C71.9229 68.6782 72.0829 68.8482 72.2729 68.8482Z" fill="#45CAF2"/>
<path d="M72.2729 71.6981H76.9529C77.1629 71.6981 77.3028 71.528 77.3028 71.348C77.3028 71.138 77.1329 70.998 76.9529 70.998H72.2729C72.0629 70.998 71.9229 71.168 71.9229 71.348C71.9229 71.538 72.0829 71.6981 72.2729 71.6981Z" fill="#0078D1"/>
<path d="M72.2729 70.2581H75.1628C75.3728 70.2581 75.5128 70.0881 75.5128 69.9081C75.5128 69.6981 75.3428 69.5581 75.1628 69.5581H72.2729C72.0629 69.5581 71.9229 69.7281 71.9229 69.9081C71.9229 70.0881 72.0829 70.2581 72.2729 70.2581Z" fill="#32B0E7"/>
<path d="M72.2729 73.1482H78.3629C78.5729 73.1482 78.7129 72.9782 78.7129 72.7882V72.7782C78.7129 72.5682 78.5429 72.4282 78.3629 72.4282H72.2729C72.0629 72.4282 71.9229 72.5982 71.9229 72.7782C71.9229 72.9882 72.0829 73.1482 72.2729 73.1482Z" fill="#185A97"/>
<path opacity="0.15" d="M75.313 57.3582L78.8429 59.4082L75.3029 61.4582L71.7729 59.4082L75.313 57.3582Z" fill="#1F1D20"/>
<path d="M75.3029 56.8881V60.9981L71.7729 58.9281V54.8181L75.3029 56.8881Z" fill="#ACF3FD"/>
<path d="M75.313 52.7681L78.8429 54.8181L75.3029 56.8681L71.7729 54.8181L75.313 52.7681Z" fill="white"/>
<path d="M78.843 54.8181V58.9181L75.303 60.9881V56.8781L78.843 54.8181Z" fill="#45CAF2"/>
<path d="M75.303 60.9782V56.8682L78.843 58.8982L75.303 60.9782Z" fill="#50E6FF"/>
<path d="M75.3029 60.9782V56.8682L71.7729 58.8982L75.3029 60.9782Z" fill="#84ECFD"/>
<g opacity="0.4">
<path opacity="0.4" d="M79.093 45.7782C78.923 45.6782 78.703 45.6782 78.503 45.7282L75.823 44.2382C75.873 44.1382 75.823 44.0182 75.693 43.9582C75.483 43.8382 75.163 43.8382 74.993 43.9582C74.823 44.0582 74.783 44.1982 74.923 44.3182L72.193 45.7582C71.983 45.6582 71.693 45.6582 71.533 45.7682C71.323 45.8882 71.323 46.0582 71.533 46.1782C71.663 46.2582 71.833 46.2782 72.003 46.2582L74.903 47.8382C74.803 47.9582 74.823 48.0782 74.983 48.1782C75.193 48.2982 75.513 48.2982 75.683 48.1782C75.853 48.0782 75.893 47.9382 75.753 47.8182L78.483 46.2082C78.693 46.2882 78.943 46.2782 79.123 46.1682C79.303 46.0682 79.303 45.8782 79.093 45.7782Z" fill="#1F1D21"/>
</g>
<g opacity="0.25">
<path opacity="0.25" d="M72.053 41.7481L75.323 39.8281L78.593 41.7081L75.323 43.6281L72.053 41.7481Z" fill="#1E9FE0"/>
</g>
<g opacity="0.25">
<path opacity="0.25" d="M72.0129 45.5282L75.3229 43.6082L78.5629 45.4882L75.2929 47.4082L72.0129 45.5282Z" fill="#1E9FE0"/>
</g>
<g opacity="0.05">
<path opacity="0.05" d="M75.313 43.6182L75.2729 47.3982L78.543 45.4782L78.5829 41.6982L75.313 43.6182Z" fill="#1E9FE0"/>
</g>
<g opacity="0.05">
<path opacity="0.05" d="M72.0529 41.7481L72.0129 45.5281L75.3229 43.6081V39.8281L72.0529 41.7481Z" fill="#1E9FE0"/>
</g>
<path d="M75.343 43.6281C75.343 43.6281 75.323 43.6281 75.343 43.6281L72.053 41.7481C72.043 41.7481 72.043 41.7381 72.043 41.7381C72.043 41.7281 72.043 41.7281 72.053 41.7281L75.323 39.8081C75.333 39.8081 75.333 39.8081 75.343 39.8081L78.613 41.6881C78.623 41.6881 78.623 41.6981 78.623 41.6981C78.623 41.7081 78.623 41.7081 78.613 41.7081L75.343 43.6281C75.343 43.6281 75.353 43.6281 75.343 43.6281ZM72.113 41.7481L75.343 43.6081L78.573 41.7081L75.343 39.8481L72.113 41.7481Z" fill="#50E6FF"/>
<path d="M75.3029 47.4282L72.0129 45.5482C72.0029 45.5482 72.0029 45.5382 72.0029 45.5382C72.0029 45.5282 72.0029 45.5282 72.0129 45.5282L75.3229 43.6082C75.3329 43.6082 75.3329 43.6082 75.3429 43.6082L78.5829 45.4882C78.5929 45.4882 78.5929 45.4982 78.5929 45.4982C78.5929 45.4982 78.5929 45.5082 78.5829 45.5082L75.3029 47.4282C75.3129 47.4282 75.3129 47.4282 75.3029 47.4282ZM72.0729 45.5282L75.3029 47.3882L78.5329 45.4882L75.3329 43.6282L72.0729 45.5282Z" fill="#50E6FF"/>
<path d="M75.303 47.4182C75.303 47.4182 75.293 47.4182 75.303 47.4182C75.293 47.4082 75.283 47.4082 75.283 47.3982L75.323 43.6182C75.323 43.6082 75.323 43.6082 75.333 43.6082L78.603 41.6882C78.613 41.6882 78.613 41.6882 78.623 41.6882C78.633 41.6882 78.633 41.6982 78.633 41.7082L78.593 45.4882C78.593 45.4982 78.593 45.4982 78.583 45.4982L75.303 47.4182C75.303 47.4182 75.313 47.4182 75.303 47.4182ZM75.363 43.6282L75.323 47.3782L78.553 45.4982L78.593 41.7482L75.363 43.6282Z" fill="white"/>
<path d="M72.043 45.5481C72.033 45.5381 72.0229 45.5381 72.0229 45.5281L72.063 41.7481C72.063 41.7381 72.063 41.7381 72.073 41.7381L75.3429 39.8181C75.3529 39.8181 75.353 39.8181 75.363 39.8181C75.373 39.8181 75.3729 39.8281 75.3729 39.8281V43.6081C75.3729 43.6181 75.373 43.6181 75.363 43.6181L72.043 45.5481C72.053 45.5481 72.053 45.5481 72.043 45.5481ZM72.0929 41.7581L72.0529 45.5081L75.313 43.6081V39.8581L72.0929 41.7581Z" fill="white"/>
<path d="M75.343 43.6281C75.343 43.6281 75.323 43.6281 75.343 43.6281L72.053 41.7481C72.043 41.7481 72.043 41.7381 72.043 41.7381C72.043 41.7281 72.043 41.7281 72.053 41.7281L75.323 39.8081C75.333 39.8081 75.333 39.8081 75.343 39.8081L78.613 41.6881C78.623 41.6881 78.623 41.6981 78.623 41.6981C78.623 41.7081 78.623 41.7081 78.613 41.7081L75.343 43.6281C75.343 43.6281 75.353 43.6281 75.343 43.6281ZM72.113 41.7481L75.343 43.6081L78.573 41.7081L75.343 39.8481L72.113 41.7481Z" fill="white"/>
<path d="M75.3029 47.4282L72.0129 45.5482C72.0029 45.5482 72.0029 45.5382 72.0029 45.5382C72.0029 45.5282 72.0029 45.5282 72.0129 45.5282L75.3229 43.6082C75.3329 43.6082 75.3329 43.6082 75.3429 43.6082L78.5829 45.4882C78.5929 45.4882 78.5929 45.4982 78.5929 45.4982C78.5929 45.4982 78.5929 45.5082 78.5829 45.5082L75.3029 47.4282C75.3129 47.4282 75.3129 47.4282 75.3029 47.4282ZM72.0729 45.5282L75.3029 47.3882L78.5329 45.4882L75.3329 43.6282L72.0729 45.5282Z" fill="white"/>
<path d="M78.5529 42.0683C78.3829 42.0683 78.2529 41.9283 78.2529 41.7683C78.2529 41.6083 78.3929 41.4683 78.5529 41.4683C78.7229 41.4683 78.8429 41.6083 78.8429 41.7683C78.8429 41.9083 78.7229 42.0683 78.5529 42.0683Z" fill="#50E6FF"/>
<path d="M78.5429 41.6282C78.6129 41.6282 78.6729 41.6882 78.6729 41.7582C78.6729 41.8282 78.6129 41.8982 78.5429 41.8982C78.4729 41.8982 78.4129 41.8382 78.4129 41.7682C78.4129 41.6882 78.4729 41.6282 78.5429 41.6282ZM78.5429 41.4282C78.3729 41.4282 78.2329 41.5682 78.2329 41.7382C78.2329 41.9082 78.3729 42.0482 78.5429 42.0482C78.7229 42.0482 78.8529 41.9082 78.8529 41.7382C78.8529 41.5882 78.7229 41.4282 78.5429 41.4282Z" fill="white"/>
<path d="M75.343 43.9481C75.173 43.9481 75.043 43.8081 75.043 43.6481C75.043 43.4781 75.183 43.3481 75.343 43.3481C75.513 43.3481 75.633 43.4881 75.633 43.6481C75.633 43.7881 75.513 43.9481 75.343 43.9481Z" fill="#50E6FF"/>
<path d="M75.343 43.4981C75.413 43.4981 75.473 43.5581 75.473 43.6281C75.473 43.6981 75.413 43.7581 75.343 43.7581C75.273 43.7581 75.213 43.6981 75.213 43.6281C75.193 43.5581 75.253 43.4981 75.343 43.4981ZM75.343 43.3181C75.173 43.3181 75.033 43.4581 75.033 43.6281C75.033 43.7981 75.173 43.9381 75.343 43.9381C75.513 43.9381 75.653 43.7981 75.653 43.6281C75.643 43.4581 75.513 43.3181 75.343 43.3181Z" fill="white"/>
<path d="M75.343 40.1481C75.173 40.1481 75.043 40.0081 75.043 39.8481C75.043 39.6881 75.183 39.5481 75.343 39.5481C75.513 39.5481 75.633 39.6881 75.633 39.8481C75.633 40.0081 75.513 40.1481 75.343 40.1481Z" fill="#50E6FF"/>
<path d="M75.343 39.7181C75.413 39.7181 75.473 39.7781 75.473 39.8481C75.473 39.9181 75.413 39.9781 75.343 39.9781C75.273 39.9781 75.213 39.9181 75.213 39.8481C75.193 39.7781 75.253 39.7181 75.343 39.7181ZM75.343 39.5481C75.173 39.5481 75.033 39.6881 75.033 39.8581C75.033 40.0281 75.173 40.1681 75.343 40.1681C75.513 40.1681 75.653 40.0281 75.653 39.8581C75.653 39.6881 75.513 39.5481 75.343 39.5481Z" fill="white"/>
<path d="M72.0529 42.0683C71.8829 42.0683 71.7529 41.9283 71.7529 41.7683C71.7529 41.6083 71.8929 41.4683 72.0529 41.4683C72.2129 41.4683 72.3429 41.6083 72.3429 41.7683C72.3429 41.9083 72.2129 42.0683 72.0529 42.0683Z" fill="#50E6FF"/>
<path d="M72.0429 41.6282C72.1129 41.6282 72.1729 41.6882 72.1729 41.7582C72.1729 41.8282 72.1129 41.8982 72.0429 41.8982C71.9729 41.8982 71.9129 41.8382 71.9129 41.7682C71.9129 41.6882 71.9729 41.6282 72.0429 41.6282ZM72.0429 41.4282C71.8729 41.4282 71.7329 41.5682 71.7329 41.7382C71.7329 41.9082 71.8729 42.0482 72.0429 42.0482C72.2129 42.0482 72.3529 41.9082 72.3529 41.7382C72.3529 41.5882 72.2129 41.4282 72.0429 41.4282Z" fill="white"/>
<path d="M72.0529 45.828C71.8829 45.828 71.7529 45.688 71.7529 45.528C71.7529 45.358 71.8929 45.228 72.0529 45.228C72.2129 45.228 72.3429 45.368 72.3429 45.528C72.3429 45.698 72.2129 45.828 72.0529 45.828Z" fill="#50E6FF"/>
<path d="M72.0429 45.3883C72.1129 45.3883 72.1729 45.4482 72.1729 45.5182C72.1729 45.5882 72.1129 45.6483 72.0429 45.6483C71.9729 45.6483 71.9129 45.5882 71.9129 45.5182C71.9129 45.4582 71.9729 45.3883 72.0429 45.3883ZM72.0429 45.2083C71.8729 45.2083 71.7329 45.3482 71.7329 45.5182C71.7329 45.6882 71.8729 45.8283 72.0429 45.8283C72.2129 45.8283 72.3529 45.6882 72.3529 45.5182C72.3529 45.3482 72.2129 45.2083 72.0429 45.2083Z" fill="white"/>
<path d="M75.343 47.7182C75.173 47.7182 75.043 47.5782 75.043 47.4182C75.043 47.2582 75.183 47.1182 75.343 47.1182C75.513 47.1182 75.633 47.2582 75.633 47.4182C75.633 47.5682 75.513 47.7182 75.343 47.7182Z" fill="#50E6FF"/>
<path d="M75.343 47.2681C75.413 47.2681 75.473 47.3281 75.473 47.3981C75.473 47.4681 75.413 47.5281 75.343 47.5281C75.273 47.5281 75.213 47.4681 75.213 47.3981C75.193 47.3281 75.253 47.2681 75.343 47.2681ZM75.343 47.0881C75.173 47.0881 75.033 47.2281 75.033 47.3981C75.033 47.5681 75.173 47.7081 75.343 47.7081C75.513 47.7081 75.653 47.5681 75.653 47.3981C75.643 47.2281 75.513 47.0881 75.343 47.0881Z" fill="white"/>
<path d="M78.5529 45.828C78.3829 45.828 78.2529 45.688 78.2529 45.528C78.2529 45.358 78.3929 45.228 78.5529 45.228C78.7229 45.228 78.8429 45.368 78.8429 45.528C78.8429 45.698 78.7229 45.828 78.5529 45.828Z" fill="#50E6FF"/>
<path d="M78.5429 45.3883C78.6129 45.3883 78.6729 45.4482 78.6729 45.5182C78.6729 45.5882 78.6129 45.6483 78.5429 45.6483C78.4729 45.6483 78.4129 45.5882 78.4129 45.5182C78.4129 45.4582 78.4729 45.3883 78.5429 45.3883ZM78.5429 45.2083C78.3729 45.2083 78.2329 45.3482 78.2329 45.5182C78.2329 45.6882 78.3729 45.8283 78.5429 45.8283C78.7229 45.8283 78.8529 45.6882 78.8529 45.5182C78.8529 45.3482 78.7229 45.2083 78.5429 45.2083Z" fill="white"/>
<path opacity="0.2" d="M75.3128 27.1882C73.1528 27.1882 71.4128 28.9382 71.4128 31.0882C71.4128 33.2482 73.1628 34.9882 75.3128 34.9882C77.4728 34.9882 79.2128 33.2382 79.2128 31.0882C79.2128 28.9382 77.4628 27.1882 75.3128 27.1882ZM75.3128 32.9282C74.3128 32.9282 73.4928 32.1082 73.4928 31.1082C73.4928 30.1082 74.3128 29.2882 75.3128 29.2882C76.3128 29.2882 77.1328 30.1082 77.1328 31.1082C77.1428 32.0982 76.3228 32.9282 75.3128 32.9282Z" fill="#1F1D21"/>
<path d="M75.3128 26.6782C73.1528 26.6782 71.4128 28.4282 71.4128 30.5782C71.4128 32.7382 73.1628 34.4782 75.3128 34.4782C77.4728 34.4782 79.2128 32.7282 79.2128 30.5782C79.2128 28.4282 77.4628 26.6782 75.3128 26.6782ZM75.3128 32.4182C74.3128 32.4182 73.4928 31.5982 73.4928 30.5982C73.4928 29.5982 74.3128 28.7782 75.3128 28.7782C76.3128 28.7782 77.1328 29.5982 77.1328 30.5982C77.1328 31.5982 76.3228 32.4182 75.3128 32.4182Z" fill="white"/>
<path d="M75.3129 28.7682L75.3029 26.6882C73.9229 26.6882 72.7329 27.3982 72.0129 28.4882L73.7329 29.6882C74.0429 29.1282 74.6429 28.7682 75.3129 28.7682Z" fill="#3BCAF4"/>
<path d="M73.4928 30.5883C73.4928 30.2583 73.5928 29.9383 73.7328 29.6783L72.0428 28.4683L72.0328 28.4783C71.6428 29.0783 71.4128 29.7983 71.4128 30.5683C71.4128 31.1483 71.5428 31.6783 71.7628 32.1783L73.6728 31.3283C73.5528 31.1183 73.4928 30.8583 73.4928 30.5883Z" fill="#50E6FF"/>
<path opacity="0.2" d="M62.4829 76.4982C63.0529 76.4982 63.5229 76.0382 63.5229 75.4582V27.3982H49.0129V75.4482C49.0129 76.0182 49.4729 76.4882 50.0529 76.4882H62.4829V76.4982Z" fill="#1F1D21"/>
<path d="M63.5229 28.0881V26.7581C63.5229 26.0981 62.9829 25.5481 62.3129 25.5481H50.2229C49.5629 25.5481 49.0129 26.0881 49.0129 26.7581V28.1581V28.9581V74.3081C49.0129 74.9681 49.5529 75.5181 50.2229 75.5181H62.3129C62.9729 75.5181 63.5229 74.9781 63.5229 74.3081V28.1581C63.5329 28.1381 63.5229 28.1181 63.5229 28.0881Z" fill="white"/>
<path d="M60.9031 28.7881H51.6331V35.9181H60.9031V28.7881V28.7881Z" fill="#50E6FF"/>
<path d="M60.9031 37.5881H51.6331V44.7181H60.9031V37.5881V37.5881Z" fill="#45CAF2"/>
<path d="M60.9031 46.3982H51.6331V53.5282H60.9031V46.3982V46.3982Z" fill="#2195DC"/>
<path d="M60.9031 55.1882H51.6331V62.3182H60.9031V55.1882V55.1882Z" fill="#0078D4"/>
<path d="M60.9031 63.998H51.6331V71.1281H60.9031V63.998V63.998Z" fill="#185A97"/>
<path d="M37.7227 68.6481H27.8127V38.9981C27.8127 37.9281 28.6827 37.0681 29.7427 37.0681H37.7227C38.7927 37.0681 39.6527 37.9381 39.6527 38.9981V66.7081C39.6627 67.7781 38.7927 68.6481 37.7227 68.6481Z" fill="url(#paint6_linear)"/>
<path d="M31.3028 68.6482H21.1528V46.8082C21.1528 45.8782 21.9128 45.1282 22.8328 45.1282H31.3028C32.2328 45.1282 32.9828 45.8882 32.9828 46.8082V66.9482C32.9928 67.8882 32.2328 68.6482 31.3028 68.6482Z" fill="url(#paint7_linear)"/>
<path d="M24.4427 68.6482H16.9827C15.7727 68.6482 14.7827 67.6682 14.7827 66.4482V55.0582C14.7827 53.8482 15.7627 52.8582 16.9827 52.8582H24.4427C25.6527 52.8582 26.6427 53.8382 26.6427 55.0582V66.4482C26.6327 67.6582 25.6527 68.6482 24.4427 68.6482Z" fill="url(#paint8_linear)"/>
<defs>
<linearGradient id="paint0_linear" x1="50.1129" y1="-12.9615" x2="54.0949" y2="132.808" gradientUnits="userSpaceOnUse">
<stop stop-color="#00ABDE"/>
<stop offset="1" stop-color="#007ED8"/>
</linearGradient>
<linearGradient id="paint1_linear" x1="3.31544" y1="-19.7965" x2="98.8424" y2="121.084" gradientUnits="userSpaceOnUse">
<stop stop-color="#007ED8"/>
<stop offset="0.7065" stop-color="#002D4C"/>
</linearGradient>
<linearGradient id="paint2_linear" x1="59.4944" y1="6.20314" x2="102.974" y2="72.8564" gradientUnits="userSpaceOnUse">
<stop stop-color="#007ED8"/>
<stop offset="0.7065" stop-color="#002D4C"/>
</linearGradient>
<linearGradient id="paint3_linear" x1="47.4367" y1="14.0689" x2="90.9167" y2="80.7227" gradientUnits="userSpaceOnUse">
<stop stop-color="#007ED8"/>
<stop offset="0.7065" stop-color="#002D4C"/>
</linearGradient>
<linearGradient id="paint4_linear" x1="53.4745" y1="10.1302" x2="96.9546" y2="76.784" gradientUnits="userSpaceOnUse">
<stop stop-color="#007ED8"/>
<stop offset="0.7065" stop-color="#002D4C"/>
</linearGradient>
<linearGradient id="paint5_linear" x1="41.4186" y1="17.9946" x2="84.8987" y2="84.6484" gradientUnits="userSpaceOnUse">
<stop stop-color="#007ED8"/>
<stop offset="0.7065" stop-color="#002D4C"/>
</linearGradient>
<linearGradient id="paint6_linear" x1="33.6035" y1="39.9555" x2="33.8554" y2="66.1562" gradientUnits="userSpaceOnUse">
<stop offset="0.00753769" stop-color="#E0A310"/>
<stop offset="1" stop-color="#CA810E"/>
</linearGradient>
<linearGradient id="paint7_linear" x1="26.75" y1="46.0445" x2="27.5058" y2="73.7569" gradientUnits="userSpaceOnUse">
<stop offset="0.00753769" stop-color="#F2CC40"/>
<stop offset="1" stop-color="#E7B116"/>
</linearGradient>
<linearGradient id="paint8_linear" x1="20.4322" y1="54.0791" x2="21.188" y2="71.9659" gradientUnits="userSpaceOnUse">
<stop stop-color="#F8E17B"/>
<stop offset="0.5302" stop-color="#F6D856"/>
<stop offset="1" stop-color="#F6D856"/>
</linearGradient>
</defs>
</svg>
