<svg width="102" height="102" viewBox="0 0 102 102" fill="none" xmlns="http://www.w3.org/2000/svg">
<path d="M50.9999 97.8099C25.1499 97.8099 4.18994 76.8599 4.18994 50.9999C4.18994 25.1399 25.1499 4.18994 50.9999 4.18994C76.8499 4.18994 97.8099 25.1499 97.8099 50.9999C97.8099 76.8499 76.8499 97.8099 50.9999 97.8099Z" fill="url(#paint0_linear)"/>
<path fill-rule="evenodd" clip-rule="evenodd" d="M96.9001 51.0001C96.9001 76.3501 76.3501 96.9001 51.0001 96.9001C25.6501 96.9001 5.10011 76.3501 5.10011 51.0001C5.10011 25.6501 25.6501 5.10011 51.0001 5.10011C76.3501 5.10011 96.9001 25.6501 96.9001 51.0001ZM51.0001 1.36011C78.4201 1.36011 100.64 23.5801 100.64 51.0001C100.64 78.4201 78.4101 100.64 51.0001 100.64C23.5801 100.64 1.36011 78.4101 1.36011 51.0001C1.36011 23.5801 23.5801 1.36011 51.0001 1.36011Z" fill="#F2F1F0"/>
<path fill-rule="evenodd" clip-rule="evenodd" d="M94.0899 50.9999C94.0899 74.7999 74.7999 94.0899 50.9999 94.0899C27.1999 94.0899 7.90992 74.7999 7.90992 50.9999C7.90992 27.1999 27.1999 7.90992 50.9999 7.90992C74.7999 7.90992 94.0899 27.1999 94.0899 50.9999ZM50.9999 4.16992C76.8599 4.16992 97.8299 25.1399 97.8299 50.9999C97.8299 76.8599 76.8599 97.8299 50.9999 97.8299C25.1399 97.8299 4.16992 76.8599 4.16992 50.9999C4.16992 25.1399 25.1299 4.16992 50.9999 4.16992Z" fill="url(#paint1_linear)"/>
<path opacity="0.15" d="M50.79 29.6201H18.5C17.8 29.6201 17.24 30.1801 17.24 30.8801V73.0201C17.24 73.7201 17.8 74.2801 18.5 74.2801H50.79C51.49 74.2801 52.05 73.7201 52.05 73.0201V30.8801C52.04 30.1801 51.48 29.6201 50.79 29.6201Z" fill="#1F1D20"/>
<path d="M50.79 28.0601H18.5C17.8 28.0601 17.24 28.6201 17.24 29.3201V71.4601C17.24 72.1601 17.8 72.7201 18.5 72.7201H50.79C51.49 72.7201 52.05 72.1601 52.05 71.4601V29.3201C52.04 28.6201 51.48 28.0601 50.79 28.0601Z" fill="#F2F2F2"/>
<path opacity="0.15" d="M82.5499 29.4399H56.3799C55.1699 29.4399 54.1799 30.4199 54.1799 31.6399V48.0899C54.1799 49.2999 55.1599 50.2899 56.3799 50.2899H81.8199C83.0299 50.2899 84.0199 49.3099 84.0199 48.0899V30.9099C84.0099 30.0899 83.3499 29.4399 82.5499 29.4399Z" fill="#1F1D20"/>
<path d="M55.8199 48.9201H82.3799C83.2799 48.9201 84.0199 48.1901 84.0199 47.2801V29.7101C84.0199 28.8101 83.2899 28.0701 82.3799 28.0701H55.8199C54.9199 28.0701 54.1799 28.8001 54.1799 29.7101V47.2801C54.1899 48.1801 54.9199 48.9201 55.8199 48.9201Z" fill="#F2F2F2"/>
<path opacity="0.15" d="M82.5499 53.22H56.3799C55.1699 53.22 54.1799 54.2 54.1799 55.42V71.87C54.1799 73.08 55.1599 74.07 56.3799 74.07H81.8199C83.0299 74.07 84.0199 73.09 84.0199 71.87V54.69C84.0099 53.88 83.3499 53.22 82.5499 53.22Z" fill="#1F1D20"/>
<path d="M55.8199 72.7001H82.3799C83.2799 72.7001 84.0199 71.9701 84.0199 71.0601V53.5001C84.0199 52.6001 83.2899 51.8601 82.3799 51.8601H55.8199C54.9199 51.8601 54.1799 52.5901 54.1799 53.5001V71.0701C54.1899 71.9701 54.9199 72.7001 55.8199 72.7001Z" fill="#F2F2F2"/>
<path d="M44.0501 65.5699H34.9001V38.2199C34.9001 37.2399 35.7001 36.4399 36.6801 36.4399H44.0401C45.0201 36.4399 45.8201 37.2399 45.8201 38.2199V63.7999C45.8301 64.7799 45.0301 65.5699 44.0501 65.5699Z" fill="url(#paint2_linear)"/>
<path d="M38.1202 65.5699H28.7402V45.4299C28.7402 44.5699 29.4402 43.8799 30.2902 43.8799H38.1102C38.9702 43.8799 39.6602 44.5799 39.6602 45.4299V64.0199C39.6802 64.8799 38.9802 65.5699 38.1202 65.5699Z" fill="url(#paint3_linear)"/>
<path d="M31.7801 65.57H24.9001C23.7801 65.57 22.8701 64.66 22.8701 63.54V53.04C22.8701 51.92 23.7801 51.01 24.9001 51.01H31.7801C32.9001 51.01 33.8101 51.92 33.8101 53.04V63.55C33.8101 64.67 32.9001 65.57 31.7801 65.57Z" fill="url(#paint4_linear)"/>
<path d="M61.4901 40.1599L68.8701 44.8999L76.38 40.1399L77.32 41.2299L68.8701 46.6199L60.55 41.2299L61.4901 40.1599Z" fill="#9CEBFF"/>
<path d="M62.05 39.55L68.8701 31.51L75.8301 39.56L68.8701 43.91L62.05 39.55Z" fill="white"/>
<path d="M68.8701 31.5V43.91L62.05 39.55L68.8701 31.5Z" fill="#9CEBFF"/>
<path d="M68.8701 31.5V43.91L75.8301 39.56L68.8701 31.5Z" fill="url(#paint5_linear)"/>
<path d="M68.8701 37.9199L75.8301 39.5599L68.8701 43.9099V37.9199Z" fill="#53B1E0"/>
<path d="M68.8701 43.9099L62.05 39.5499L68.8701 37.9199V43.9099Z" fill="#C3F1FF"/>
<path d="M68.8701 46.6199L77.3201 41.2299L76.3801 40.1399L68.8701 44.8999V46.6199Z" fill="url(#paint6_linear)"/>
<g opacity="0.2">
<path opacity="0.2" d="M65.5202 67.6301C65.0502 67.6401 64.6702 68.0201 64.6702 68.5001C64.6702 68.8001 64.8402 69.0801 65.1002 69.2301L68.1302 70.9501C68.3802 71.0901 68.6602 71.1701 68.9502 71.1701C69.1002 71.1701 69.2602 71.1501 69.4102 71.1001L73.9602 69.8001C74.6602 69.6001 75.1402 68.9601 75.1402 68.2401V67.6401H65.5202V67.6301Z" fill="white"/>
</g>
<g opacity="0.12">
<path opacity="0.12" d="M65.5202 67.6299C65.0502 67.6399 64.6702 68.0199 64.6702 68.4999C64.6702 68.7999 64.8402 69.0799 65.1002 69.2299L68.1302 70.9499C68.3802 71.0899 68.6602 71.1699 68.9502 71.1699C69.1002 71.1699 69.2602 71.1499 69.4102 71.0999L73.9602 69.7999C74.6602 69.5999 75.1402 68.9599 75.1402 68.2399V67.6399H65.5202V67.6299Z" fill="white"/>
</g>
<path d="M69.3801 55.1101L70.6001 57.9101V67.6301L69.4001 71.0901L73.9501 69.7901C74.6501 69.5901 75.1301 68.9501 75.1301 68.2301V57.9701C75.1301 57.2401 74.6501 56.6001 73.9501 56.4001L69.3801 55.1101Z" fill="url(#paint7_linear)"/>
<path d="M63.6101 67.5301L64.9401 66.8101C65.3101 66.6001 65.5401 66.2101 65.5401 65.7901V60.5601C65.5401 60.0701 65.8501 59.6401 66.3001 59.4701L70.6001 57.9201V56.7401C70.6001 55.9901 70.1001 55.3301 69.3801 55.1201C69.2301 55.0801 69.0801 55.0601 68.9201 55.0601C68.6301 55.0601 68.3401 55.1401 68.0801 55.2801L63.1601 58.0901C62.6501 58.3801 62.3401 58.9201 62.3401 59.5001V66.7901C62.3401 67.2601 62.7201 67.6501 63.1901 67.6501C63.3401 67.6301 63.4801 67.6001 63.6101 67.5301Z" fill="url(#paint8_linear)"/>
<path d="M70.6002 67.6301H65.5202C65.0502 67.6401 64.6702 68.0201 64.6702 68.5001C64.6702 68.8001 64.8402 69.0801 65.1002 69.2301L68.1302 70.9501C68.3802 71.0901 68.6602 71.1701 68.9502 71.1701C69.1002 71.1701 69.2602 71.1501 69.4102 71.1001C70.1202 70.9001 70.6202 70.2401 70.6102 69.5001V67.6301H70.6002Z" fill="url(#paint9_linear)"/>
<path d="M63.6101 67.5301L64.9401 66.8101C65.3101 66.6001 65.5401 66.2101 65.5401 65.7901V60.5601C65.5401 60.0701 65.8501 59.6401 66.3001 59.4701L70.6001 57.9201V56.7401C70.6001 55.9901 70.1001 55.3301 69.3801 55.1201C69.2301 55.0801 69.0801 55.0601 68.9201 55.0601C68.6301 55.0601 68.3401 55.1401 68.0801 55.2801L63.1601 58.0901C62.6501 58.3801 62.3401 58.9201 62.3401 59.5001V66.7901C62.3401 67.2601 62.7201 67.6501 63.1901 67.6501C63.3401 67.6301 63.4801 67.6001 63.6101 67.5301Z" fill="url(#paint10_linear)"/>
<path d="M70.6002 67.6301H65.5202C65.0502 67.6401 64.6702 68.0201 64.6702 68.5001C64.6702 68.8001 64.8402 69.0801 65.1002 69.2301L68.1302 70.9501C68.3802 71.0901 68.6602 71.1701 68.9502 71.1701C69.1002 71.1701 69.2602 71.1501 69.4102 71.1001C70.1202 70.9001 70.6202 70.2401 70.6102 69.5001V67.6301H70.6002Z" fill="url(#paint11_linear)"/>
<path d="M78.1199 78.0699C82.6599 78.0699 86.3399 74.3899 86.3399 69.8499C86.3399 65.3099 82.6599 61.6299 78.1199 61.6299C73.5799 61.6299 69.8999 65.3099 69.8999 69.8499C69.8999 74.3899 73.5799 78.0699 78.1199 78.0699Z" fill="#002D4C"/>
<path d="M82.5899 65.6599L75.8099 72.4599L73.7799 70.4199L72.4299 71.7799L75.8199 75.1699L83.9599 67.0099L82.5899 65.6599Z" fill="#FAF9F8"/>
<defs>
<linearGradient id="paint0_linear" x1="49.23" y1="-13.7899" x2="53.212" y2="131.98" gradientUnits="userSpaceOnUse">
<stop stop-color="#00ABDE"/>
<stop offset="1" stop-color="#007ED8"/>
</linearGradient>
<linearGradient id="paint1_linear" x1="2.43262" y1="-20.6246" x2="97.9596" y2="120.257" gradientUnits="userSpaceOnUse">
<stop stop-color="#007ED8"/>
<stop offset="0.7065" stop-color="#002D4C"/>
</linearGradient>
<linearGradient id="paint2_linear" x1="40.2424" y1="39.0968" x2="40.475" y2="63.2782" gradientUnits="userSpaceOnUse">
<stop offset="0.00753769" stop-color="#E0A310"/>
<stop offset="1" stop-color="#CA810E"/>
</linearGradient>
<linearGradient id="paint3_linear" x1="33.9172" y1="44.7167" x2="34.6148" y2="70.2931" gradientUnits="userSpaceOnUse">
<stop offset="0.00753769" stop-color="#F2CC40"/>
<stop offset="1" stop-color="#E7B116"/>
</linearGradient>
<linearGradient id="paint4_linear" x1="28.0863" y1="52.1321" x2="28.7838" y2="68.6404" gradientUnits="userSpaceOnUse">
<stop stop-color="#F8E17B"/>
<stop offset="0.5302" stop-color="#F6D856"/>
<stop offset="1" stop-color="#F6D856"/>
</linearGradient>
<linearGradient id="paint5_linear" x1="72.8892" y1="42.7685" x2="68.642" y2="34.6455" gradientUnits="userSpaceOnUse">
<stop stop-color="#1988D9"/>
<stop offset="0.9" stop-color="#54AEF0"/>
</linearGradient>
<linearGradient id="paint6_linear" x1="71.0705" y1="40.3995" x2="74.0078" y2="45.5155" gradientUnits="userSpaceOnUse">
<stop offset="0.1" stop-color="#54AEF0"/>
<stop offset="0.29" stop-color="#4FABEE"/>
<stop offset="0.51" stop-color="#41A2E9"/>
<stop offset="0.74" stop-color="#2A93E0"/>
<stop offset="0.88" stop-color="#1988D9"/>
</linearGradient>
<linearGradient id="paint7_linear" x1="72.2564" y1="54.1983" x2="72.2564" y2="69.9747" gradientUnits="userSpaceOnUse">
<stop stop-color="#FFB900"/>
<stop offset="0.17" stop-color="#EF8400"/>
<stop offset="0.31" stop-color="#E25C01"/>
<stop offset="0.43" stop-color="#DB4401"/>
<stop offset="0.5" stop-color="#D83B01"/>
</linearGradient>
<linearGradient id="paint8_linear" x1="69.411" y1="54.7562" x2="61.0566" y2="66.6856" gradientUnits="userSpaceOnUse">
<stop stop-color="#800600"/>
<stop offset="0.6" stop-color="#C72127"/>
<stop offset="0.73" stop-color="#C13959"/>
<stop offset="0.85" stop-color="#BC4B81"/>
<stop offset="0.94" stop-color="#B95799"/>
<stop offset="1" stop-color="#B85BA2"/>
</linearGradient>
<linearGradient id="paint9_linear" x1="65.142" y1="69.3956" x2="76.0485" y2="69.3956" gradientUnits="userSpaceOnUse">
<stop stop-color="#F32B44"/>
<stop offset="0.6" stop-color="#A4070A"/>
</linearGradient>
<linearGradient id="paint10_linear" x1="69.5816" y1="54.5137" x2="67.8127" y2="57.0394" gradientUnits="userSpaceOnUse">
<stop stop-opacity="0.4"/>
<stop offset="1" stop-opacity="0"/>
</linearGradient>
<linearGradient id="paint11_linear" x1="72.5534" y1="69.6414" x2="67.6702" y2="69.2152" gradientUnits="userSpaceOnUse">
<stop stop-opacity="0.4"/>
<stop offset="1" stop-opacity="0"/>
</linearGradient>
</defs>
</svg>
