<svg width="103" height="103" viewBox="0 0 103 103" fill="none" xmlns="http://www.w3.org/2000/svg">
<path d="M51.9228 98.0829C26.0728 98.0829 5.11279 77.1329 5.11279 51.2729C5.11279 25.4129 26.0728 4.46289 51.9228 4.46289C77.7728 4.46289 98.7328 25.4229 98.7328 51.2729C98.7328 77.1229 77.7728 98.0829 51.9228 98.0829Z" fill="url(#paint0_linear_166_42560)"/>
<path fill-rule="evenodd" clip-rule="evenodd" d="M97.8228 51.2728C97.8228 76.6228 77.2728 97.1728 51.9228 97.1728C26.5728 97.1728 6.02278 76.6228 6.02278 51.2728C6.02278 25.9228 26.5728 5.37282 51.9228 5.37282C77.2728 5.37282 97.8228 25.9228 97.8228 51.2728ZM51.9228 1.63281C79.3428 1.63281 101.563 23.8528 101.563 51.2728C101.563 78.6928 79.3328 100.913 51.9228 100.913C24.5028 100.913 2.28278 78.6828 2.28278 51.2728C2.28278 23.8528 24.5028 1.63281 51.9228 1.63281Z" fill="#F2F1F0"/>
<path fill-rule="evenodd" clip-rule="evenodd" d="M95.0128 51.2724C95.0128 75.0724 75.7228 94.3624 51.9228 94.3624C28.1228 94.3624 8.8328 75.0724 8.8328 51.2724C8.8328 27.4724 28.1228 8.18239 51.9228 8.18239C75.7228 8.18239 95.0128 27.4724 95.0128 51.2724ZM51.9228 4.44238C77.7828 4.44238 98.7528 25.4124 98.7528 51.2724C98.7528 77.1324 77.7828 98.1024 51.9228 98.1024C26.0628 98.1024 5.0928 77.1324 5.0928 51.2724C5.0928 25.4124 26.0528 4.44238 51.9228 4.44238Z" fill="url(#paint1_linear_166_42560)"/>
<path opacity="0.15" d="M23.3628 77.9773H80.4828C82.0828 77.9773 83.3828 76.6773 83.3828 75.0773V29.5273H20.4628V75.0773C20.4628 76.6773 21.7628 77.9773 23.3628 77.9773Z" fill="#1F1D20"/>
<path d="M21.6628 75.3279H82.1828C82.8428 75.3279 83.3828 74.7879 83.3828 74.1279V26.8779H20.4628V74.1279C20.4628 74.7879 21.0028 75.3279 21.6628 75.3279Z" fill="#EBEBEB"/>
<path d="M20.4628 32.1079H83.3828V26.4679C83.3828 25.9579 82.9728 25.5479 82.4628 25.5479H21.3828C20.8728 25.5479 20.4628 25.9579 20.4628 26.4679V32.1079Z" fill="#092E4C"/>
<path d="M25.3028 30.5582C26.1828 30.5582 26.9028 29.8482 26.9028 28.9582C26.9028 28.0682 26.1728 27.3682 25.3028 27.3682C24.4228 27.3682 23.7028 28.0782 23.7028 28.9682C23.7028 29.8582 24.4028 30.5582 25.3028 30.5582Z" fill="#32B0E7"/>
<path d="M57.623 61.6021C57.5702 61.5625 57.4779 61.5098 57.4779 61.5098C57.5175 61.5625 57.5702 61.5889 57.623 61.6021Z" fill="#F2F1F0"/>
<path d="M57.6222 61.6025C57.6746 61.6419 57.6615 61.6287 57.6222 61.6025V61.6025Z" fill="#F2F1F0"/>
<path d="M45.9473 45.1914C46.0001 45.231 46.0924 45.2838 46.0924 45.2838C46.0528 45.231 46.0001 45.2046 45.9473 45.1914Z" fill="#F2F1F0"/>
<path d="M45.9471 45.1782C45.8947 45.152 45.9078 45.1651 45.9471 45.1782V45.1782Z" fill="#F2F1F0"/>
<g opacity="0.15">
<path opacity="0.15" d="M57.4255 68.832C63.5204 66.5497 67.6101 60.6527 67.6101 54.1488C67.6101 47.8955 63.903 42.2491 58.1774 39.7557C58.0587 39.703 58.0191 39.5974 58.0059 39.5447C57.9928 39.4919 57.9796 39.3731 58.0719 39.2544L58.626 38.608C59.0745 38.1067 59.8265 37.9615 60.4334 38.2914C66.2776 41.4312 69.9056 47.5129 69.9056 54.1488C69.9056 61.6421 65.1827 68.4099 58.1379 70.9956L57.4651 71.2463L58.349 73.8188C58.4149 73.9903 58.2566 74.175 58.0719 74.1354L50.9216 72.8162C50.6313 72.7634 50.5126 72.4072 50.7105 72.1829L55.5126 66.708C55.6313 66.5629 55.8688 66.6157 55.9347 66.7872L56.7263 69.0959L57.4255 68.832Z" fill="#1F1D20"/>
<path opacity="0.15" d="M49.4171 41.6159C49.2983 41.761 49.0609 41.7083 49.0081 41.5368L48.0846 38.9246L47.4118 39.1225C40.8288 41.0882 36.2246 47.2755 36.2246 54.1488C36.2246 61.0353 40.8419 67.2094 47.4382 69.1751C47.5965 69.2279 47.6493 69.3334 47.6625 69.3994C47.6625 69.4258 47.6757 69.4521 47.6757 69.4917C47.6757 69.5577 47.6625 69.6368 47.5965 69.7028L46.9237 70.468C46.5147 70.9297 45.8551 71.088 45.2614 70.8505C38.309 68.0801 33.8367 61.4047 33.9423 53.9113C34.0478 46.0222 39.4699 39.1753 47.0029 36.8402L47.3195 36.7479L46.5279 34.492C46.462 34.3205 46.6203 34.1358 46.805 34.1753L54.0608 35.5606C54.3511 35.6133 54.4698 35.9695 54.2719 36.207L49.4171 41.6159Z" fill="#1F1D20"/>
</g>
<path d="M57.4248 68.1465C63.5197 65.8642 67.6094 59.9671 67.6094 53.4632C67.6094 47.21 63.9023 41.5636 58.1768 39.0702C58.058 39.0174 58.0185 38.9119 58.0053 38.8591C57.9921 38.8063 57.9789 38.6876 58.0712 38.5689L58.6253 37.9224C59.0739 37.4211 59.8258 37.276 60.4327 37.6058C66.277 40.7456 69.9049 46.8142 69.9049 53.45C69.9049 60.9434 65.182 67.7111 58.1372 70.2969L57.4644 70.5475L58.3483 73.1201C58.4142 73.2916 58.2559 73.4763 58.0712 73.4367L50.9341 72.1174C50.6438 72.0647 50.5251 71.7085 50.723 71.4842L55.5251 66.0093C55.6438 65.8642 55.8813 65.917 55.9472 66.0885L56.7388 68.3971L57.4248 68.1465Z" fill="#78787D"/>
<path d="M49.4167 40.9299C49.2979 41.075 49.0605 41.0222 49.0077 40.8507L48.0842 38.2386L47.4114 38.4365C40.8283 40.4022 36.2241 46.5895 36.2241 53.4628C36.2241 60.3493 40.8415 66.5234 47.4378 68.489C47.5961 68.5418 47.6489 68.6474 47.6621 68.7133C47.6621 68.7397 47.6752 68.7661 47.6752 68.8057C47.6752 68.8716 47.6621 68.9508 47.5961 69.0167L46.9233 69.7819C46.5143 70.2437 45.8547 70.402 45.261 70.1645C38.3086 67.3941 33.8363 60.7187 33.9418 53.2253C34.0474 45.3494 39.4695 38.5024 47.0024 36.1674L47.319 36.075L46.5275 33.8191C46.4615 33.6476 46.6198 33.4629 46.8045 33.5025L54.0604 34.8745C54.3507 34.9273 54.4694 35.2835 54.2715 35.5209L49.4167 40.9299Z" fill="#78787D"/>
<path opacity="0.2" d="M62.4792 61.5978L52.1676 67.6986L41.6205 61.5978L52.1676 55.4971L62.4792 61.5978Z" fill="#1F1D21"/>
<path d="M52.1676 53.7443V65.876L41.6205 59.7752V47.6436L52.1676 53.7443Z" fill="#EB0018"/>
<path d="M48.1431 51.3648V63.4964L45.391 61.8885V49.7568L48.1431 51.3648Z" fill="#DAAFAB"/>
<path d="M52.1676 53.7443L62.4792 47.6436V59.7752L52.1676 65.876V53.7443Z" fill="#C6001D"/>
<path d="M41.6205 47.6439L51.9275 41.5361L62.4792 47.6346L52.1676 53.7353L41.6205 47.6439Z" fill="#F4344F"/>
<path d="M45.3957 49.8244L55.7027 43.7236L58.499 45.3549L48.1874 51.4533L45.3957 49.8244Z" fill="#FCF5EA"/>
<path d="M56.0895 51.4214L45.631 45.2787L48.3924 43.6475L58.8416 49.8135L56.0895 51.4214Z" fill="#FCF5EA"/>
<path d="M58.8393 49.7969L58.9255 61.8679L56.2363 63.4992L56.1198 51.4328L58.8393 49.7969Z" fill="#DAAFAB"/>
<path d="M52.079 45.9634C52.922 45.0259 53.8777 44.1962 54.9243 43.4933C56.7723 42.2163 58.4688 42.3934 58.7764 42.6124C59.084 42.8315 60.0091 43.8685 60.0977 44.2646C60.1862 44.6608 60.6266 45.6628 59.6129 46.0916C58.5993 46.5204 54.901 47.4129 54.1087 47.4129C53.6259 47.4124 53.1437 47.3757 52.6663 47.3034C52.6663 47.3034 51.8134 46.2244 52.079 45.9634Z" fill="#DAAFAB"/>
<path d="M52.8923 46.0148C53.3668 45.0929 54.0576 44.2997 54.9057 43.7032C56.2783 42.771 58.3779 42.538 58.6063 42.7128C58.8346 42.8876 59.4289 43.8569 59.4941 44.1459C59.5594 44.4349 59.8879 45.1643 59.1352 45.4858C58.3825 45.8074 54.8894 46.5764 54.3022 46.5764C53.9441 46.576 53.5865 46.5488 53.2325 46.4949C53.2325 46.4949 52.6966 46.2082 52.8923 46.0148Z" fill="#BF8C8A"/>
<path d="M51.7271 45.7838C51.7271 45.7838 51.3729 42.9618 51.9905 41.9971C52.608 41.0323 52.5637 40.3006 53.3071 40.1841C54.8078 39.951 55.4836 40.7387 55.5582 41.0486C55.6328 41.3586 55.1387 43.4279 55.1387 43.4279L51.5966 46.4853L51.7271 45.7838Z" fill="#DAAFAB"/>
<path d="M51.6899 45.9847C51.6899 45.9847 51.4382 43.9666 51.8786 43.2792C52.319 42.5917 52.2864 42.0674 52.8107 41.9835C53.8827 41.8134 54.3674 42.3797 54.4187 42.6034C54.4699 42.8271 54.1204 44.3022 54.1204 44.3022L51.5897 46.4857L51.6899 45.9847Z" fill="#BF8C8A"/>
<path d="M52.2328 46.7093C52.6529 45.8103 53.1939 44.973 53.8407 44.2205C54.8521 43.0763 56.4321 42.6033 57.3362 42.4145C58.5014 42.1815 59.0746 42.4821 59.5384 43.1136C59.6456 43.2604 60.1536 44.083 60.2212 44.5118C60.2931 44.9173 60.2528 45.3347 60.1046 45.7189C60.1046 45.7189 60.3097 44.0504 58.2614 44.4675C56.7723 44.7728 55.2319 45.6583 54.7379 45.9869C54.0784 46.4273 52.6686 47.7043 52.6686 47.7043C52.4123 47.4332 52.2582 47.0815 52.2328 46.7093Z" fill="#FCF5EA"/>
<path d="M51.8693 46.411C51.8693 46.411 50.6808 44.0667 49.0729 43.7684C47.465 43.4701 45.9037 43.4049 45.4399 43.5703C44.9762 43.7358 44.34 44.7938 44.615 45.4532C44.89 46.1127 46.0668 46.1803 46.5958 46.2782C47.1248 46.376 51.8693 46.411 51.8693 46.411Z" fill="#DAAFAB"/>
<path d="M51.4731 46.2457C51.4731 46.2457 50.2427 43.8338 48.996 43.6031C47.7493 43.3724 47.0478 43.3561 46.6913 43.4843C46.4756 43.5989 46.3091 43.7884 46.2233 44.0171C46.1375 44.2459 46.1382 44.4981 46.2252 44.7263C46.4373 45.2367 47.1783 45.4953 47.5861 45.5722C47.994 45.6491 51.4731 46.2457 51.4731 46.2457Z" fill="#BF8C8A"/>
<path d="M52.5194 46.4434C51.4278 45.2282 50.2735 44.0708 49.0613 42.9759C48.0056 42.0624 46.7053 42.1719 45.7359 42.4143C45.3588 42.5359 45.015 42.7433 44.7315 43.0202C44.6299 43.1277 44.5524 43.2556 44.5041 43.3955C44.4559 43.5353 44.4381 43.6838 44.4519 43.8311L44.6569 45.4973C44.6569 45.4973 44.6756 44.176 45.6264 43.9779C46.7915 43.7449 48.1594 44.183 48.5672 44.3298C49.527 44.6441 50.3779 45.2243 51.0211 46.003C51.1916 46.2261 51.4288 46.3891 51.6982 46.4683C51.9676 46.5475 52.2553 46.5388 52.5194 46.4434V46.4434Z" fill="#FCF5EA"/>
<path d="M51.5943 46.2686C51.5943 46.2686 50.8952 44.6164 50.9768 43.2951C51.0513 42.2046 51.4428 40.8064 52.1792 40.2657C52.5782 39.9507 53.0692 39.7747 53.5774 39.7647C53.8442 39.736 54.114 39.7703 54.3651 39.8649C54.8102 40.0303 55.3228 40.4102 55.43 40.6292L55.5815 40.9974C55.5815 40.9974 55.2716 40.4801 54.4163 40.7131C53.7638 40.8879 53.2931 41.7688 52.9855 42.4958C52.5008 43.6377 52.3936 45.9657 52.4798 46.1078C52.8364 46.7021 52.5264 46.4014 52.128 46.3921L51.5943 46.2686Z" fill="#FCF5EA"/>
<path d="M51.804 46.7419C51.804 46.7419 53.2558 49.8972 54.3487 50.5497C55.4416 51.2022 56.679 51.2488 56.954 50.9272C57.229 50.6056 58.1005 48.4664 57.5366 48.012C56.9727 47.5575 54.2555 45.8751 53.624 46.1803C53.0354 46.4216 52.4263 46.6095 51.804 46.7419V46.7419Z" fill="#DAAFAB"/>
<path d="M52.4635 46.3078C52.4635 46.3078 53.7988 48.8339 54.6703 49.3535C55.5419 49.8732 56.5346 49.9081 56.749 49.6541C56.9634 49.4001 57.6671 47.692 57.2151 47.3238C56.763 46.9556 54.5958 45.618 54.0924 45.8627C53.5651 46.0634 53.0196 46.2125 52.4635 46.3078V46.3078Z" fill="#BF8C8A"/>
<path d="M52.1466 46.1656C52.1466 46.1656 53.652 45.5202 54.9173 45.7369C56.0825 45.9373 57.1964 46.5338 57.8349 47.3145C58.0554 47.5806 58.2374 47.8763 58.3755 48.193C58.6086 48.701 58.7787 48.8712 58.4874 49.4724L56.8562 51.0151C56.9364 50.5406 56.9055 50.054 56.7661 49.5934C56.6266 49.1329 56.3822 48.711 56.0522 48.3608C55.0595 47.3564 52.7898 46.9253 52.7898 46.9253L51.7574 46.9929L51.6642 46.5059L52.1466 46.1656Z" fill="#FCF5EA"/>
<path d="M52.128 46.9726C52.128 46.9726 50.0307 46.7909 48.4297 47.4853C47.5605 47.8605 46.8405 48.259 46.7612 49.014C46.6494 50.0789 46.8078 50.3912 47.1131 50.6452C47.1131 50.6452 47.9217 50.8526 49.5623 50.0184C51.2028 49.1841 51.4778 48.6202 51.6596 48.2543C51.8413 47.8884 52.3214 47.1124 52.128 46.9726Z" fill="#DAAFAB"/>
<path d="M51.7597 46.8353C51.7597 46.8353 50.1285 46.4857 48.996 46.9728C48.3878 47.2361 46.5585 48.138 46.5025 48.6763C46.4233 49.422 46.5352 49.641 46.7496 49.8135C46.7496 49.8135 48.8142 49.5455 49.9631 48.9605C51.1119 48.3756 51.3053 47.9772 51.4312 47.7255C51.557 47.4738 51.8949 46.9308 51.7597 46.8353Z" fill="#BF8C8A"/>
<path d="M51.9672 46.9068C51.8622 46.6027 51.6671 46.3377 51.4079 46.1471C51.0187 45.9141 48.6441 45.3595 47.2716 45.5785C45.899 45.7976 45.426 46.0749 45.0484 47.0466C44.6709 48.0184 44.9482 48.5287 45.2465 48.8853C45.5448 49.2418 46.6773 50.3161 46.915 50.5841C47.1527 50.852 46.0388 48.7967 47.4533 47.8972C48.8678 46.9977 50.9931 47.1282 51.9672 46.9068Z" fill="#FCF5EA"/>
<path d="M61.0569 62.3392C63.4676 62.3392 65.4264 60.3865 65.4264 57.9697C65.4203 55.559 63.4616 53.6123 61.0569 53.6123C58.6522 53.6123 56.6874 55.565 56.6874 57.9818C56.6874 60.3925 58.6401 62.3392 61.0569 62.3392Z" fill="#002D4C"/>
<path d="M61.4004 55.4141H60.6832V60.5248H61.4004V55.4141Z" fill="#F2F2F2"/>
<path d="M63.5942 57.6504H58.4895V58.3676H63.6002L63.5942 57.6504Z" fill="#F2F2F2"/>
<path opacity="0.15" d="M23.3628 77.9773H80.4828C82.0828 77.9773 83.3828 76.6773 83.3828 75.0773V29.5273H20.4628V75.0773C20.4628 76.6773 21.7628 77.9773 23.3628 77.9773Z" fill="#1F1D20"/>
<path d="M21.6628 75.3279H82.1828C82.8428 75.3279 83.3828 74.7879 83.3828 74.1279V26.8779H20.4628V74.1279C20.4628 74.7879 21.0028 75.3279 21.6628 75.3279Z" fill="#EBEBEB"/>
<path d="M20.4628 32.1079H83.3828V26.4679C83.3828 25.9579 82.9728 25.5479 82.4628 25.5479H21.3828C20.8728 25.5479 20.4628 25.9579 20.4628 26.4679V32.1079Z" fill="#092E4C"/>
<path d="M25.3028 30.5582C26.1828 30.5582 26.9028 29.8482 26.9028 28.9582C26.9028 28.0682 26.1728 27.3682 25.3028 27.3682C24.4228 27.3682 23.7028 28.0782 23.7028 28.9682C23.7028 29.8582 24.4028 30.5582 25.3028 30.5582Z" fill="#32B0E7"/>
<path d="M57.623 61.6021C57.5702 61.5625 57.4779 61.5098 57.4779 61.5098C57.5175 61.5625 57.5702 61.5889 57.623 61.6021Z" fill="#F2F1F0"/>
<path d="M57.6222 61.6025C57.6746 61.6419 57.6615 61.6287 57.6222 61.6025V61.6025Z" fill="#F2F1F0"/>
<path d="M45.9473 45.1914C46.0001 45.231 46.0924 45.2838 46.0924 45.2838C46.0528 45.231 46.0001 45.2046 45.9473 45.1914Z" fill="#F2F1F0"/>
<path d="M45.9471 45.1782C45.8947 45.152 45.9078 45.1651 45.9471 45.1782V45.1782Z" fill="#F2F1F0"/>
<g opacity="0.15">
<path opacity="0.15" d="M57.4255 68.832C63.5204 66.5497 67.6101 60.6527 67.6101 54.1488C67.6101 47.8955 63.903 42.2491 58.1774 39.7557C58.0587 39.703 58.0191 39.5974 58.0059 39.5447C57.9928 39.4919 57.9796 39.3731 58.0719 39.2544L58.626 38.608C59.0745 38.1067 59.8265 37.9615 60.4334 38.2914C66.2776 41.4312 69.9056 47.5129 69.9056 54.1488C69.9056 61.6421 65.1827 68.4099 58.1379 70.9956L57.4651 71.2463L58.349 73.8188C58.4149 73.9903 58.2566 74.175 58.0719 74.1354L50.9216 72.8162C50.6313 72.7634 50.5126 72.4072 50.7105 72.1829L55.5126 66.708C55.6313 66.5629 55.8688 66.6157 55.9347 66.7872L56.7263 69.0959L57.4255 68.832Z" fill="#1F1D20"/>
<path opacity="0.15" d="M49.4171 41.6159C49.2983 41.761 49.0609 41.7083 49.0081 41.5368L48.0846 38.9246L47.4118 39.1225C40.8288 41.0882 36.2246 47.2755 36.2246 54.1488C36.2246 61.0353 40.8419 67.2094 47.4382 69.1751C47.5965 69.2279 47.6493 69.3334 47.6625 69.3994C47.6625 69.4258 47.6757 69.4521 47.6757 69.4917C47.6757 69.5577 47.6625 69.6368 47.5965 69.7028L46.9237 70.468C46.5147 70.9297 45.8551 71.088 45.2614 70.8505C38.309 68.0801 33.8367 61.4047 33.9423 53.9113C34.0478 46.0222 39.4699 39.1753 47.0029 36.8402L47.3195 36.7479L46.5279 34.492C46.462 34.3205 46.6203 34.1358 46.805 34.1753L54.0608 35.5606C54.3511 35.6133 54.4698 35.9695 54.2719 36.207L49.4171 41.6159Z" fill="#1F1D20"/>
</g>
<path d="M57.4248 68.1465C63.5197 65.8642 67.6094 59.9671 67.6094 53.4632C67.6094 47.21 63.9023 41.5636 58.1768 39.0702C58.058 39.0174 58.0185 38.9119 58.0053 38.8591C57.9921 38.8063 57.9789 38.6876 58.0712 38.5689L58.6253 37.9224C59.0739 37.4211 59.8258 37.276 60.4327 37.6058C66.277 40.7456 69.9049 46.8142 69.9049 53.45C69.9049 60.9434 65.182 67.7111 58.1372 70.2969L57.4644 70.5475L58.3483 73.1201C58.4142 73.2916 58.2559 73.4763 58.0712 73.4367L50.9341 72.1174C50.6438 72.0647 50.5251 71.7085 50.723 71.4842L55.5251 66.0093C55.6438 65.8642 55.8813 65.917 55.9472 66.0885L56.7388 68.3971L57.4248 68.1465Z" fill="#78787D"/>
<path d="M49.4167 40.9299C49.2979 41.075 49.0605 41.0222 49.0077 40.8507L48.0842 38.2386L47.4114 38.4365C40.8283 40.4022 36.2241 46.5895 36.2241 53.4628C36.2241 60.3493 40.8415 66.5234 47.4378 68.489C47.5961 68.5418 47.6489 68.6474 47.6621 68.7133C47.6621 68.7397 47.6752 68.7661 47.6752 68.8057C47.6752 68.8716 47.6621 68.9508 47.5961 69.0167L46.9233 69.7819C46.5143 70.2437 45.8547 70.402 45.261 70.1645C38.3086 67.3941 33.8363 60.7187 33.9418 53.2253C34.0474 45.3494 39.4695 38.5024 47.0024 36.1674L47.319 36.075L46.5275 33.8191C46.4615 33.6476 46.6198 33.4629 46.8045 33.5025L54.0604 34.8745C54.3507 34.9273 54.4694 35.2835 54.2715 35.5209L49.4167 40.9299Z" fill="#78787D"/>
<path opacity="0.2" d="M62.4792 61.5978L52.1676 67.6986L41.6205 61.5978L52.1676 55.4971L62.4792 61.5978Z" fill="#1F1D21"/>
<path d="M52.1676 53.7443V65.876L41.6205 59.7752V47.6436L52.1676 53.7443Z" fill="#EB0018"/>
<path d="M48.1431 51.3648V63.4964L45.391 61.8885V49.7568L48.1431 51.3648Z" fill="#DAAFAB"/>
<path d="M52.1676 53.7443L62.4792 47.6436V59.7752L52.1676 65.876V53.7443Z" fill="#C6001D"/>
<path d="M41.6205 47.6439L51.9275 41.5361L62.4792 47.6346L52.1676 53.7353L41.6205 47.6439Z" fill="#F4344F"/>
<path d="M45.3957 49.8244L55.7027 43.7236L58.499 45.3549L48.1874 51.4533L45.3957 49.8244Z" fill="#FCF5EA"/>
<path d="M56.0895 51.4214L45.631 45.2787L48.3924 43.6475L58.8416 49.8135L56.0895 51.4214Z" fill="#FCF5EA"/>
<path d="M58.8393 49.7969L58.9255 61.8679L56.2363 63.4992L56.1198 51.4328L58.8393 49.7969Z" fill="#DAAFAB"/>
<path d="M52.079 45.9634C52.922 45.0259 53.8777 44.1962 54.9243 43.4933C56.7723 42.2163 58.4688 42.3934 58.7764 42.6124C59.084 42.8315 60.0091 43.8685 60.0977 44.2646C60.1862 44.6608 60.6266 45.6628 59.6129 46.0916C58.5993 46.5204 54.901 47.4129 54.1087 47.4129C53.6259 47.4124 53.1437 47.3757 52.6663 47.3034C52.6663 47.3034 51.8134 46.2244 52.079 45.9634Z" fill="#DAAFAB"/>
<path d="M52.8923 46.0148C53.3668 45.0929 54.0576 44.2997 54.9057 43.7032C56.2783 42.771 58.3779 42.538 58.6063 42.7128C58.8346 42.8876 59.4289 43.8569 59.4941 44.1459C59.5594 44.4349 59.8879 45.1643 59.1352 45.4858C58.3825 45.8074 54.8894 46.5764 54.3022 46.5764C53.9441 46.576 53.5865 46.5488 53.2325 46.4949C53.2325 46.4949 52.6966 46.2082 52.8923 46.0148Z" fill="#BF8C8A"/>
<path d="M51.7271 45.7838C51.7271 45.7838 51.3729 42.9618 51.9905 41.9971C52.608 41.0323 52.5637 40.3006 53.3071 40.1841C54.8078 39.951 55.4836 40.7387 55.5582 41.0486C55.6328 41.3586 55.1387 43.4279 55.1387 43.4279L51.5966 46.4853L51.7271 45.7838Z" fill="#DAAFAB"/>
<path d="M51.6899 45.9847C51.6899 45.9847 51.4382 43.9666 51.8786 43.2792C52.319 42.5917 52.2864 42.0674 52.8107 41.9835C53.8827 41.8134 54.3674 42.3797 54.4187 42.6034C54.4699 42.8271 54.1204 44.3022 54.1204 44.3022L51.5897 46.4857L51.6899 45.9847Z" fill="#BF8C8A"/>
<path d="M52.2328 46.7093C52.6529 45.8103 53.1939 44.973 53.8407 44.2205C54.8521 43.0763 56.4321 42.6033 57.3362 42.4145C58.5014 42.1815 59.0746 42.4821 59.5384 43.1136C59.6456 43.2604 60.1536 44.083 60.2212 44.5118C60.2931 44.9173 60.2528 45.3347 60.1046 45.7189C60.1046 45.7189 60.3097 44.0504 58.2614 44.4675C56.7723 44.7728 55.2319 45.6583 54.7379 45.9869C54.0784 46.4273 52.6686 47.7043 52.6686 47.7043C52.4123 47.4332 52.2582 47.0815 52.2328 46.7093Z" fill="#FCF5EA"/>
<path d="M51.8693 46.411C51.8693 46.411 50.6808 44.0667 49.0729 43.7684C47.465 43.4701 45.9037 43.4049 45.4399 43.5703C44.9762 43.7358 44.34 44.7938 44.615 45.4532C44.89 46.1127 46.0668 46.1803 46.5958 46.2782C47.1248 46.376 51.8693 46.411 51.8693 46.411Z" fill="#DAAFAB"/>
<path d="M51.4731 46.2457C51.4731 46.2457 50.2427 43.8338 48.996 43.6031C47.7493 43.3724 47.0478 43.3561 46.6913 43.4843C46.4756 43.5989 46.3091 43.7884 46.2233 44.0171C46.1375 44.2459 46.1382 44.4981 46.2252 44.7263C46.4373 45.2367 47.1783 45.4953 47.5861 45.5722C47.994 45.6491 51.4731 46.2457 51.4731 46.2457Z" fill="#BF8C8A"/>
<path d="M52.5194 46.4434C51.4278 45.2282 50.2735 44.0708 49.0613 42.9759C48.0056 42.0624 46.7053 42.1719 45.7359 42.4143C45.3588 42.5359 45.015 42.7433 44.7315 43.0202C44.6299 43.1277 44.5524 43.2556 44.5041 43.3955C44.4559 43.5353 44.4381 43.6838 44.4519 43.8311L44.6569 45.4973C44.6569 45.4973 44.6756 44.176 45.6264 43.9779C46.7915 43.7449 48.1594 44.183 48.5672 44.3298C49.527 44.6441 50.3779 45.2243 51.0211 46.003C51.1916 46.2261 51.4288 46.3891 51.6982 46.4683C51.9676 46.5475 52.2553 46.5388 52.5194 46.4434V46.4434Z" fill="#FCF5EA"/>
<path d="M51.5943 46.2686C51.5943 46.2686 50.8952 44.6164 50.9768 43.2951C51.0513 42.2046 51.4428 40.8064 52.1792 40.2657C52.5782 39.9507 53.0692 39.7747 53.5774 39.7647C53.8442 39.736 54.114 39.7703 54.3651 39.8649C54.8102 40.0303 55.3228 40.4102 55.43 40.6292L55.5815 40.9974C55.5815 40.9974 55.2716 40.4801 54.4163 40.7131C53.7638 40.8879 53.2931 41.7688 52.9855 42.4958C52.5008 43.6377 52.3936 45.9657 52.4798 46.1078C52.8364 46.7021 52.5264 46.4014 52.128 46.3921L51.5943 46.2686Z" fill="#FCF5EA"/>
<path d="M51.804 46.7419C51.804 46.7419 53.2558 49.8972 54.3487 50.5497C55.4416 51.2022 56.679 51.2488 56.954 50.9272C57.229 50.6056 58.1005 48.4664 57.5366 48.012C56.9727 47.5575 54.2555 45.8751 53.624 46.1803C53.0354 46.4216 52.4263 46.6095 51.804 46.7419V46.7419Z" fill="#DAAFAB"/>
<path d="M52.4635 46.3078C52.4635 46.3078 53.7988 48.8339 54.6703 49.3535C55.5419 49.8732 56.5346 49.9081 56.749 49.6541C56.9634 49.4001 57.6671 47.692 57.2151 47.3238C56.763 46.9556 54.5958 45.618 54.0924 45.8627C53.5651 46.0634 53.0196 46.2125 52.4635 46.3078V46.3078Z" fill="#BF8C8A"/>
<path d="M52.1466 46.1656C52.1466 46.1656 53.652 45.5202 54.9173 45.7369C56.0825 45.9373 57.1964 46.5338 57.8349 47.3145C58.0554 47.5806 58.2374 47.8763 58.3755 48.193C58.6086 48.701 58.7787 48.8712 58.4874 49.4724L56.8562 51.0151C56.9364 50.5406 56.9055 50.054 56.7661 49.5934C56.6266 49.1329 56.3822 48.711 56.0522 48.3608C55.0595 47.3564 52.7898 46.9253 52.7898 46.9253L51.7574 46.9929L51.6642 46.5059L52.1466 46.1656Z" fill="#FCF5EA"/>
<path d="M52.128 46.9726C52.128 46.9726 50.0307 46.7909 48.4297 47.4853C47.5605 47.8605 46.8405 48.259 46.7612 49.014C46.6494 50.0789 46.8078 50.3912 47.1131 50.6452C47.1131 50.6452 47.9217 50.8526 49.5623 50.0184C51.2028 49.1841 51.4778 48.6202 51.6596 48.2543C51.8413 47.8884 52.3214 47.1124 52.128 46.9726Z" fill="#DAAFAB"/>
<path d="M51.7597 46.8353C51.7597 46.8353 50.1285 46.4857 48.996 46.9728C48.3878 47.2361 46.5585 48.138 46.5025 48.6763C46.4233 49.422 46.5352 49.641 46.7496 49.8135C46.7496 49.8135 48.8142 49.5455 49.9631 48.9605C51.1119 48.3756 51.3053 47.9772 51.4312 47.7255C51.557 47.4738 51.8949 46.9308 51.7597 46.8353Z" fill="#BF8C8A"/>
<path d="M51.9672 46.9068C51.8622 46.6027 51.6671 46.3377 51.4079 46.1471C51.0187 45.9141 48.6441 45.3595 47.2716 45.5785C45.899 45.7976 45.426 46.0749 45.0484 47.0466C44.6709 48.0184 44.9482 48.5287 45.2465 48.8853C45.5448 49.2418 46.6773 50.3161 46.915 50.5841C47.1527 50.852 46.0388 48.7967 47.4533 47.8972C48.8678 46.9977 50.9931 47.1282 51.9672 46.9068Z" fill="#FCF5EA"/>
<path d="M61.0569 62.3392C63.4676 62.3392 65.4264 60.3865 65.4264 57.9697C65.4203 55.559 63.4616 53.6123 61.0569 53.6123C58.6522 53.6123 56.6874 55.565 56.6874 57.9818C56.6874 60.3925 58.6401 62.3392 61.0569 62.3392Z" fill="#002D4C"/>
<path d="M61.4004 55.4141H60.6832V60.5248H61.4004V55.4141Z" fill="#F2F2F2"/>
<path d="M63.5942 57.6504H58.4895V58.3676H63.6002L63.5942 57.6504Z" fill="#F2F2F2"/>
<defs>
<linearGradient id="paint0_linear_166_42560" x1="50.1489" y1="-13.5166" x2="54.1309" y2="132.254" gradientUnits="userSpaceOnUse">
<stop stop-color="#00ABDE"/>
<stop offset="1" stop-color="#007ED8"/>
</linearGradient>
<linearGradient id="paint1_linear_166_42560" x1="3.3532" y1="-20.3502" x2="98.8807" y2="120.531" gradientUnits="userSpaceOnUse">
<stop stop-color="#007ED8"/>
<stop offset="0.7065" stop-color="#002D4C"/>
</linearGradient>
</defs>
</svg>
