<svg width="106" height="106" viewBox="0 0 106 106" fill="none" xmlns="http://www.w3.org/2000/svg">
<g filter="url(#filter0_d)">
<circle cx="53" cy="53" r="49" fill="#5197D5"/>
<circle cx="53" cy="53" r="50.75" stroke="#F2F1F0" stroke-width="3.5"/>
</g>
<circle cx="53" cy="53" r="48" stroke="#0078D4" stroke-width="4"/>
<path d="M57.2524 21.0545H32.9283C31.8633 21.0545 31 21.957 31 23.0702V77.5296C31 78.6429 31.8633 79.5453 32.9283 79.5453H74.8103C75.8753 79.5453 76.7386 78.6429 76.7386 77.5296V41.4945C76.7386 40.3812 75.8753 39.4788 74.8103 39.4788H60.906C59.8597 39.4788 59.0115 38.5921 59.0115 37.4984V23.0702C59.0321 22.0159 58.2586 21.1296 57.2524 21.0545Z" fill="url(#paint0_linear)"/>
<path d="M77 40.7327L58.1328 21V36.9884C58.1328 39.0563 59.7266 40.7327 61.6927 40.7327H77Z" fill="#92C4FC"/>
<path d="M39 68.5449H66.8947M39 48.5449H63.2105M39 55.2116H69M39 61.8783H63.2105" stroke="#92C4FC" stroke-width="2" stroke-linecap="round"/>
<g filter="url(#filter1_d)">
<path d="M84.8259 69.312C84.8259 68.9763 84.5551 68.7055 84.2195 68.7055C84.0016 68.7055 82.6473 68.5818 81.9172 68.0166C81.9172 68.0166 81.9231 68.0107 81.9172 68.0166C81.6404 67.0156 81.24 66.0735 80.7395 65.1903C80.61 64.3482 81.4815 63.7359 81.8819 63.0764C81.9525 62.9586 81.9937 62.8939 82.0173 62.8527C82.0938 62.6407 82.0526 62.3934 81.8819 62.2226C81.8819 62.2226 81.2106 61.2687 80.5276 60.5798C79.8445 59.8968 78.8023 59.1372 78.8023 59.1372C78.5668 58.9017 78.1841 58.9017 77.9486 59.1372C77.7955 59.2903 76.765 60.1441 75.8347 60.2795C75.8229 60.2795 75.8229 60.2795 75.8229 60.2795C74.9574 59.7908 73.9917 59.3904 73.0143 59.1137H73.0025C72.3136 58.6073 72.4961 57.5592 72.3136 56.8114C72.3136 56.4758 72.0427 56.2049 71.7071 56.2049C71.7071 56.2049 70.5589 56.0047 69.5874 56.0047C68.6158 56.0047 67.344 56.2049 67.344 56.2049C67.0084 56.2049 66.7375 56.4758 66.7375 56.8114C66.7375 57.0293 66.6139 58.3835 66.0486 59.1137C65.0829 59.3845 64.0761 59.8144 63.2223 60.2913C62.3803 60.4208 61.7679 59.5494 61.1084 59.149C60.9907 59.0783 60.9259 59.0371 60.8847 59.0136C60.6727 58.937 60.4254 58.9782 60.2546 59.149C60.2546 59.149 59.3008 59.8203 58.6119 60.5033C57.9288 61.1863 57.1693 62.2285 57.1693 62.2285C56.9337 62.464 56.9337 62.8468 57.1693 63.0823C57.3223 63.2354 58.1997 64.2835 58.3116 65.1961V65.202C57.8346 66.0558 57.4166 67.0627 57.1457 68.0283C57.1457 68.0283 57.1575 68.0107 57.1457 68.0283C56.5569 68.7408 55.5912 68.5347 54.8434 68.7173C54.5078 68.7173 54.237 68.9881 54.237 69.3237C54.237 69.3237 54.0368 70.4719 54.0368 71.4435C54.0368 72.415 54.237 73.6869 54.237 73.6869C54.237 74.0225 54.5078 74.2933 54.8434 74.2933C55.0613 74.2933 56.4156 74.417 57.1457 74.9823C57.1634 74.9764 57.1575 74.994 57.1575 74.994C57.4342 75.9597 57.8346 76.9254 58.3233 77.785C58.3174 77.7968 58.3233 77.785 58.3233 77.8145C58.4058 78.6918 57.5814 79.2688 57.181 79.9283C57.1104 80.0461 57.0692 80.1108 57.0456 80.1521C56.9691 80.364 57.0103 80.6113 57.181 80.7821C57.181 80.7821 57.8523 81.736 58.5353 82.4249C59.2183 83.1079 60.2605 83.8675 60.2605 83.8675C60.4961 84.103 60.8788 84.103 61.1143 83.8675C61.2674 83.7144 62.3155 82.8371 63.2282 82.7252C63.2282 82.7252 63.2223 82.7311 63.2399 82.7311C64.1232 83.2198 65.0299 83.6084 66.025 83.8793C66.0368 83.8852 66.0604 83.891 66.0604 83.891C66.7493 84.3974 66.5668 85.4455 66.7493 86.1933C66.7846 86.5289 66.9671 86.7468 67.3558 86.7998C67.3558 86.7998 68.504 87 69.4755 87C70.4471 87 71.7189 86.7998 71.7189 86.7998C72.0545 86.7409 72.3254 86.5289 72.3254 86.1933C72.3254 85.9755 72.449 84.6212 73.0143 83.891C73.0143 83.891 73.0378 83.8734 73.0673 83.8498C74.08 83.5672 74.8514 83.2551 75.7405 82.7429C75.7876 82.7252 75.7405 82.7311 75.8465 82.7134C76.6885 82.5839 77.3009 83.4553 77.9603 83.8557C78.0781 83.9264 78.1429 83.9676 78.1841 83.9911C78.3961 84.0677 78.6434 84.0265 78.8141 83.8557C78.8141 83.8557 79.768 83.1845 80.4569 82.5014C81.1399 81.8184 81.8995 80.7762 81.8995 80.7762C82.135 80.5407 82.135 80.1579 81.8995 79.9224C81.7464 79.7693 80.8691 78.7212 80.7572 77.8086C80.7454 77.7144 80.7572 77.7026 80.7631 77.6732C81.2754 76.7723 81.5933 76.1128 81.8701 75.0941C81.8701 75.0941 81.8583 75.0588 81.9231 74.9764C82.4295 74.2875 83.4775 74.47 84.2253 74.2875C84.561 74.2875 84.8318 74.0166 84.8318 73.681C84.8318 73.681 85.032 72.5328 85.032 71.5612C85.0261 70.5838 84.8259 69.312 84.8259 69.312ZM78.4903 71.467C78.4903 76.4425 74.4569 80.47 69.4873 80.47C64.5177 80.47 60.4843 76.4366 60.4843 71.467C60.4843 66.4915 64.5177 62.464 69.4873 62.464C74.4569 62.464 78.4903 66.4974 78.4903 71.467Z" fill="#14214D"/>
<path d="M77.45 85.8851L77.4451 85.8802C77.4451 85.8802 77.45 85.8802 77.45 85.8851Z" fill="#14214D"/>
<path d="M77.4435 85.8821C77.3458 85.8234 77.1958 85.7321 77.1958 85.7321C77.2675 85.8038 77.3523 85.8495 77.4435 85.8821Z" fill="#14214D"/>
<path d="M77.45 85.8913C77.5347 85.9434 77.5151 85.9304 77.45 85.8913V85.8913Z" fill="#14214D"/>
<path d="M58.2979 58.2216C58.3957 58.2803 58.5456 58.3716 58.5456 58.3716C58.4739 58.2999 58.3892 58.2542 58.2979 58.2216Z" fill="#14214D"/>
<path d="M58.2846 58.2188L58.2895 58.2237C58.2895 58.2237 58.2895 58.2237 58.2846 58.2188Z" fill="#14214D"/>
<path d="M58.2839 58.2142C58.1991 58.162 58.2187 58.1751 58.2839 58.2142V58.2142Z" fill="#14214D"/>
<path d="M54.0344 81.6409C53.9822 81.7191 53.9953 81.7061 54.0344 81.6409V81.6409Z" fill="#14214D"/>
<path d="M54.0342 81.6402L54.0391 81.6353C54.0391 81.6353 54.0342 81.6353 54.0342 81.6402Z" fill="#14214D"/>
<path d="M54.0412 81.6261C54.0999 81.5283 54.1911 81.3784 54.1911 81.3784C54.1194 81.4501 54.0738 81.5348 54.0412 81.6261Z" fill="#14214D"/>
<path d="M81.7009 62.4777C81.6422 62.5754 81.551 62.7254 81.551 62.7254C81.6162 62.6537 81.6683 62.5689 81.7009 62.4777Z" fill="#14214D"/>
<path d="M81.699 62.4665L81.6941 62.4714C81.699 62.4714 81.699 62.4714 81.699 62.4665Z" fill="#14214D"/>
<path d="M81.7011 62.4701C81.7532 62.3919 81.7467 62.4049 81.7011 62.4701V62.4701Z" fill="#14214D"/>
</g>
<path fill-rule="evenodd" clip-rule="evenodd" d="M69.5 81C74.7467 81 79 76.7467 79 71.5C79 66.2533 74.7467 62 69.5 62C64.2533 62 60 66.2533 60 71.5C60 73.3311 60.518 75.0411 61.4156 76.4917V79.5844H64.5082C65.9587 80.4819 67.6689 81 69.5 81Z" fill="#FCA11F"/>
<path fill-rule="evenodd" clip-rule="evenodd" d="M79 71.5C79 76.7467 74.7467 81 69.5 81C67.6689 81 65.9588 80.4819 64.5083 79.5844H61.4156V79.5282L76.2575 64.8227C77.9532 66.5386 79 68.897 79 71.5Z" fill="#E89619"/>
<circle cx="69.5" cy="66.4668" r="1.25828" fill="white"/>
<circle cx="69.5" cy="76.5331" r="1.25828" fill="white"/>
<circle cx="72.8973" cy="73.1356" r="1.25828" fill="white"/>
<circle cx="72.8973" cy="69.8013" r="1.25828" fill="white"/>
<path d="M72.394 71.4369C72.394 71.9177 71.8802 72.7896 71.6391 73.1671H74.1242C73.8935 72.8315 73.4573 72.0157 73.4321 71.4369C73.4211 71.1844 73.5035 70.8908 73.6208 70.613C73.7724 70.254 73.9823 69.9215 74.1242 69.7383H71.6391C71.9222 70.1052 72.394 70.8078 72.394 71.4369Z" fill="white"/>
<circle cx="66.1027" cy="73.1357" r="1.25828" fill="white"/>
<circle cx="66.1027" cy="69.8013" r="1.25828" fill="white"/>
<path d="M65.5993 71.4371C65.5993 71.9179 65.4001 71.9718 65.1589 72.3493L67.0149 72.3179C66.7842 71.9823 66.6626 72.0159 66.6374 71.4371C66.6264 71.1846 66.6374 71.091 66.7632 70.9023C66.9039 70.6913 66.873 70.771 67.0149 70.5877L65.2533 70.6821C65.5364 71.0491 65.5993 70.8079 65.5993 71.4371Z" fill="white"/>
<circle cx="72.8973" cy="73.1356" r="1.25828" fill="white"/>
<circle cx="72.8973" cy="69.8013" r="1.25828" fill="white"/>
<path d="M72.394 71.4371C72.394 71.9179 72.1948 71.9718 71.9536 72.3493L73.8096 72.3179C73.5789 71.9823 73.4573 72.0159 73.4321 71.4371C73.4211 71.1846 73.4321 71.091 73.5579 70.9023C73.6986 70.6913 73.6677 70.771 73.8096 70.5877L72.048 70.6821C72.3311 71.0491 72.394 70.8079 72.394 71.4371Z" fill="white"/>
<circle cx="69.5" cy="73.1356" r="1.25828" fill="white"/>
<circle cx="69.5" cy="69.8013" r="1.25828" fill="white"/>
<path d="M68.9967 71.4371C68.9967 71.9179 68.7975 71.9718 68.5563 72.3493L70.4123 72.3179C70.1816 71.9823 70.0599 72.0159 70.0348 71.4371C70.0238 71.1846 70.0348 71.091 70.1606 70.9023C70.3013 70.6913 70.2704 70.771 70.4123 70.5877L68.6507 70.6821C68.9338 71.0491 68.9967 70.8079 68.9967 71.4371Z" fill="white"/>
<circle cx="69.5" cy="73.1356" r="1.25828" fill="white"/>
<circle cx="69.5" cy="69.8013" r="1.25828" fill="white"/>
<path d="M68.9967 71.4371C68.9967 71.9179 68.7975 71.9718 68.5563 72.3493L70.4123 72.3179C70.1816 71.9823 70.0599 72.0159 70.0348 71.4371C70.0238 71.1846 70.0348 71.091 70.1606 70.9023C70.3013 70.6913 70.2704 70.771 70.4123 70.5877L68.6507 70.6821C68.9338 71.0491 68.9967 70.8079 68.9967 71.4371Z" fill="white"/>
<defs>
<filter id="filter0_d" x="0.5" y="0.5" width="105.5" height="105.5" filterUnits="userSpaceOnUse" color-interpolation-filters="sRGB">
<feFlood flood-opacity="0" result="BackgroundImageFix"/>
<feColorMatrix in="SourceAlpha" type="matrix" values="0 0 0 0 0 0 0 0 0 0 0 0 0 0 0 0 0 0 127 0"/>
<feOffset dx="0.5" dy="0.5"/>
<feColorMatrix type="matrix" values="0 0 0 0 0.823529 0 0 0 0 0.831373 0 0 0 0 0.835294 0 0 0 1 0"/>
<feBlend mode="normal" in2="BackgroundImageFix" result="effect1_dropShadow"/>
<feBlend mode="normal" in="SourceGraphic" in2="effect1_dropShadow" result="shape"/>
</filter>
<filter id="filter1_d" x="50" y="54.0047" width="39.032" height="38.9953" filterUnits="userSpaceOnUse" color-interpolation-filters="sRGB">
<feFlood flood-opacity="0" result="BackgroundImageFix"/>
<feColorMatrix in="SourceAlpha" type="matrix" values="0 0 0 0 0 0 0 0 0 0 0 0 0 0 0 0 0 0 127 0"/>
<feOffset dy="2"/>
<feGaussianBlur stdDeviation="2"/>
<feColorMatrix type="matrix" values="0 0 0 0 0 0 0 0 0 0 0 0 0 0 0 0 0 0 0.1 0"/>
<feBlend mode="normal" in2="BackgroundImageFix" result="effect1_dropShadow"/>
<feBlend mode="normal" in="SourceGraphic" in2="effect1_dropShadow" result="shape"/>
</filter>
<linearGradient id="paint0_linear" x1="76.7386" y1="79.5453" x2="76.7386" y2="21.0545" gradientUnits="userSpaceOnUse">
<stop stop-color="#D2EBFF"/>
<stop offset="1" stop-color="#F0FFFD"/>
</linearGradient>
</defs>
</svg>
