<svg width="103" height="103" viewBox="0 0 103 103" fill="none" xmlns="http://www.w3.org/2000/svg">
<path d="M51.6838 98.3671C25.8338 98.3671 4.87378 77.4171 4.87378 51.5571C4.87378 25.6971 25.8338 4.74707 51.6838 4.74707C77.5338 4.74707 98.4938 25.7071 98.4938 51.5571C98.4938 77.4071 77.5338 98.3671 51.6838 98.3671Z" fill="url(#paint0_linear)"/>
<path fill-rule="evenodd" clip-rule="evenodd" d="M97.5839 51.557C97.5839 76.907 77.0339 97.457 51.6839 97.457C26.3339 97.457 5.78395 76.907 5.78395 51.557C5.78395 26.207 26.3339 5.65699 51.6839 5.65699C77.0339 5.65699 97.5839 26.207 97.5839 51.557ZM51.6839 1.91699C79.1039 1.91699 101.324 24.137 101.324 51.557C101.324 78.977 79.0939 101.197 51.6839 101.197C24.2639 101.197 2.04395 78.967 2.04395 51.557C2.04395 24.137 24.2639 1.91699 51.6839 1.91699Z" fill="#F2F1F0"/>
<path fill-rule="evenodd" clip-rule="evenodd" d="M94.7738 51.5571C94.7738 75.3571 75.4838 94.647 51.6838 94.647C27.8838 94.647 8.59376 75.3571 8.59376 51.5571C8.59376 27.7571 27.8838 8.46705 51.6838 8.46705C75.4838 8.46705 94.7738 27.7571 94.7738 51.5571ZM51.6838 4.72705C77.5438 4.72705 98.5138 25.6971 98.5138 51.5571C98.5138 77.4171 77.5438 98.3871 51.6838 98.3871C25.8238 98.3871 4.85376 77.4171 4.85376 51.5571C4.85376 25.6971 25.8138 4.72705 51.6838 4.72705Z" fill="#0078D4"/>
<path opacity="0.2" d="M78.8638 26.8169H24.1738V77.3769C24.1738 78.9169 25.4238 80.1669 26.9638 80.1669H32.9238V87.3469C32.9238 87.8869 33.5738 88.1569 33.9638 87.7769L41.6338 80.1669H76.0838C77.6238 80.1669 78.8738 78.9169 78.8738 77.3769V26.8169H78.8638Z" fill="#1F1D21"/>
<path d="M76.9638 24.187H26.0638C25.0138 24.187 24.1638 25.037 24.1638 26.087V75.647C24.1638 76.697 25.0138 77.547 26.0638 77.547H32.9138V84.727C32.9138 85.267 33.5638 85.537 33.9538 85.157L41.6238 77.547H76.9638C78.0138 77.547 78.8638 76.697 78.8638 75.647V26.087C78.8638 25.037 78.0138 24.187 76.9638 24.187Z" fill="#F2F1F0"/>
<path d="M78.8638 25.1471C78.8638 24.0971 78.0138 23.2471 76.9638 23.2471H26.0638C25.0138 23.2471 24.1638 24.0971 24.1638 25.1471V26.9571H78.8538V25.1471H78.8638Z" fill="#50E6FF"/>
<path d="M32.6138 31.687H30.1938V71.527H32.6138V31.687Z" fill="url(#paint1_linear)"/>
<path d="M71.0839 71.5269V69.1069H30.2039V71.5269H71.0839Z" fill="url(#paint2_linear)"/>
<path d="M39.7139 49.0571L36.0339 52.7371V56.3771L41.5139 50.8971L39.7139 49.0571Z" fill="#185A97"/>
<path d="M52.5139 58.2271V43.5771L45.1938 50.8971L52.5139 58.2271Z" fill="#185A97"/>
<path d="M58.0438 49.057L54.3638 45.417V56.387L67.1738 43.577L70.8538 47.257V36.207L58.0438 49.057Z" fill="#185A97"/>
<path d="M54.3638 56.3871V65.5571H70.8538V47.2171L67.1738 43.5771L54.3638 56.3871Z" fill="url(#paint3_linear)"/>
<path d="M52.5139 58.2271L43.3439 49.0571L36.0239 56.3771V65.5471H52.5139V58.2271Z" fill="url(#paint4_linear)"/>
<path d="M53.4338 42.347C54.4338 42.347 55.2738 41.537 55.2738 40.507C55.2738 39.507 54.4638 38.667 53.4338 38.667C52.4338 38.667 51.5938 39.477 51.5938 40.507C51.5938 41.507 52.4438 42.347 53.4338 42.347Z" fill="#185A97"/>
<path d="M78.6338 31.8169C71.8538 31.8169 66.3638 37.3069 66.3638 44.0869C66.3638 46.4169 67.0138 48.5969 68.1438 50.4569V54.4069H71.9938C73.9138 55.6469 76.1838 56.3669 78.6338 56.3669C85.4138 56.3669 90.9038 50.8769 90.9038 44.0969C90.9038 37.3169 85.4138 31.8169 78.6338 31.8169Z" fill="#ED722E"/>
<path d="M78.6338 31.8169C71.8538 31.8169 66.3638 37.3069 66.3638 44.0869C66.3638 46.4169 67.0138 48.5969 68.1438 50.4569L67.9838 54.4069L87.0738 35.3169C85.0138 33.1569 81.9838 31.8169 78.6338 31.8169Z" fill="#FF7736"/>
<path d="M79.6037 45.2069C79.4737 45.0769 79.3537 44.9069 79.3037 44.7269C79.2437 44.5169 79.2037 44.3069 79.2037 44.0669C79.2037 43.8769 79.2237 43.6969 79.2637 43.5269C79.3237 43.2669 79.4837 43.0569 79.6537 42.8569C79.9537 42.5269 80.1037 42.0769 80.0137 41.5769C79.9037 40.9869 79.4337 40.5069 78.8537 40.3769C77.8737 40.1669 77.0237 40.9169 77.0237 41.8469C77.0237 42.2369 77.1637 42.5869 77.4137 42.8469C77.5937 43.0469 77.7337 43.2569 77.7937 43.5069C77.8337 43.6869 77.8537 43.8569 77.8537 44.0569C77.8537 44.2869 77.8237 44.5069 77.7537 44.7169C77.6937 44.9069 77.5937 45.0669 77.4437 45.1969C77.1137 45.5269 76.9337 46.0069 77.0337 46.5269C77.1337 47.1169 77.6137 47.5969 78.1937 47.7269C79.1737 47.9369 80.0237 47.1869 80.0237 46.2569C80.0437 45.8469 79.8637 45.4769 79.6037 45.2069Z" fill="white"/>
<path d="M84.0439 45.2069C83.9139 45.0769 83.7939 44.9069 83.7439 44.7269C83.6839 44.5169 83.6439 44.3069 83.6439 44.0669C83.6439 43.8769 83.6639 43.6969 83.7039 43.5269C83.7639 43.2669 83.9239 43.0569 84.0939 42.8569C84.3939 42.5269 84.5439 42.0769 84.4539 41.5769C84.3439 40.9869 83.8739 40.5069 83.2939 40.3769C82.3139 40.1669 81.4639 40.9169 81.4639 41.8469C81.4639 42.2369 81.6039 42.5869 81.8539 42.8469C82.0339 43.0469 82.1739 43.2569 82.2339 43.5069C82.2739 43.6869 82.2939 43.8569 82.2939 44.0569C82.2939 44.2869 82.2639 44.5069 82.1939 44.7169C82.1339 44.9069 82.0339 45.0669 81.8839 45.1969C81.5539 45.5269 81.3739 46.0069 81.4739 46.5269C81.5739 47.1169 82.0539 47.5969 82.6339 47.7269C83.6139 47.9369 84.4639 47.1869 84.4639 46.2569C84.4839 45.8469 84.3139 45.4769 84.0439 45.2069Z" fill="white"/>
<path d="M75.3139 45.2069C75.1839 45.0769 75.0639 44.9069 75.0139 44.7269C74.9539 44.5169 74.9139 44.3069 74.9139 44.0669C74.9139 43.8769 74.9339 43.6969 74.9739 43.5269C75.0339 43.2669 75.1939 43.0569 75.3639 42.8569C75.6639 42.5269 75.8139 42.0769 75.7239 41.5769C75.6139 40.9869 75.1439 40.5069 74.5639 40.3769C73.5839 40.1669 72.7339 40.9169 72.7339 41.8469C72.7339 42.2369 72.8739 42.5869 73.1239 42.8469C73.3039 43.0469 73.4439 43.2569 73.5039 43.5069C73.5439 43.6869 73.5639 43.8569 73.5639 44.0569C73.5639 44.2869 73.5339 44.5069 73.4639 44.7169C73.4039 44.9069 73.3039 45.0669 73.1539 45.1969C72.8239 45.5269 72.6439 46.0069 72.7439 46.5269C72.8439 47.1169 73.3239 47.5969 73.9039 47.7269C74.8839 47.9369 75.7339 47.1869 75.7339 46.2569C75.7539 45.8469 75.5839 45.4769 75.3139 45.2069Z" fill="white"/>
<path d="M78.5337 52.0068C79.3637 52.0068 80.0337 51.3368 80.0337 50.5068C80.0337 49.6768 79.3637 49.0068 78.5337 49.0068C77.7037 49.0068 77.0337 49.6768 77.0337 50.5068C77.0337 51.3368 77.7037 52.0068 78.5337 52.0068Z" fill="white"/>
<path d="M78.5337 39.0068C79.3637 39.0068 80.0337 38.3368 80.0337 37.5068C80.0337 36.6768 79.3637 36.0068 78.5337 36.0068C77.7037 36.0068 77.0337 36.6768 77.0337 37.5068C77.0337 38.3368 77.7037 39.0068 78.5337 39.0068Z" fill="white"/>
<defs>
<linearGradient id="paint0_linear" x1="49.9138" y1="-13.2359" x2="53.8968" y2="132.532" gradientUnits="userSpaceOnUse">
<stop stop-color="#00ABDE"/>
<stop offset="1" stop-color="#007ED8"/>
</linearGradient>
<linearGradient id="paint1_linear" x1="27.8324" y1="41.1009" x2="85.6592" y2="211.18" gradientUnits="userSpaceOnUse">
<stop offset="0.3643" stop-color="#4DC1EA"/>
<stop offset="0.585" stop-color="#0078D4"/>
</linearGradient>
<linearGradient id="paint2_linear" x1="39.3763" y1="37.1756" x2="97.2029" y2="207.254" gradientUnits="userSpaceOnUse">
<stop offset="0.3643" stop-color="#4DC1EA"/>
<stop offset="0.585" stop-color="#0078D4"/>
</linearGradient>
<linearGradient id="paint3_linear" x1="54.347" y1="32.0859" x2="112.174" y2="202.165" gradientUnits="userSpaceOnUse">
<stop offset="0.3643" stop-color="#4DC1EA"/>
<stop offset="0.585" stop-color="#0078D4"/>
</linearGradient>
<linearGradient id="paint4_linear" x1="36.2314" y1="38.2451" x2="94.0582" y2="208.324" gradientUnits="userSpaceOnUse">
<stop offset="0.3643" stop-color="#4DC1EA"/>
<stop offset="0.585" stop-color="#0078D4"/>
</linearGradient>
</defs>
</svg>
