<svg width="103" height="103" viewBox="0 0 103 103" fill="none" xmlns="http://www.w3.org/2000/svg">
<path d="M51.2497 98.554C25.3997 98.554 4.4397 77.604 4.4397 51.744C4.4397 25.884 25.3997 4.93396 51.2497 4.93396C77.0997 4.93396 98.0597 25.894 98.0597 51.744C98.0597 77.594 77.0997 98.554 51.2497 98.554Z" fill="url(#paint0_linear)"/>
<path fill-rule="evenodd" clip-rule="evenodd" d="M97.1499 51.7439C97.1499 77.0939 76.5999 97.6439 51.2499 97.6439C25.8999 97.6439 5.34986 77.0939 5.34986 51.7439C5.34986 26.3939 25.8999 5.84394 51.2499 5.84394C76.5999 5.84394 97.1499 26.3939 97.1499 51.7439ZM51.2499 2.10394C78.6699 2.10394 100.89 24.3239 100.89 51.7439C100.89 79.1639 78.6599 101.384 51.2499 101.384C23.8299 101.384 1.60986 79.1539 1.60986 51.7439C1.60986 24.3239 23.8299 2.10394 51.2499 2.10394Z" fill="#F2F1F0"/>
<path fill-rule="evenodd" clip-rule="evenodd" d="M94.3397 51.7439C94.3397 75.5439 75.0497 94.8339 51.2497 94.8339C27.4497 94.8339 8.15968 75.5439 8.15968 51.7439C8.15968 27.9439 27.4497 8.65394 51.2497 8.65394C75.0497 8.65394 94.3397 27.9439 94.3397 51.7439ZM51.2497 4.91394C77.1097 4.91394 98.0797 25.8839 98.0797 51.7439C98.0797 77.6039 77.1097 98.5739 51.2497 98.5739C25.3897 98.5739 4.41968 77.6039 4.41968 51.7439C4.41968 25.8839 25.3797 4.91394 51.2497 4.91394Z" fill="url(#paint1_linear)"/>
<path opacity="0.15" d="M74.6096 21.1839L28.0796 20.8039C27.0696 20.7939 26.2496 21.6039 26.2496 22.6139L25.7496 83.3439C25.7396 84.3539 26.5496 85.1739 27.5596 85.1739L74.0896 85.5539C75.0996 85.5639 75.9196 84.7539 75.9196 83.7439L76.4196 23.0139C76.4096 22.0139 75.5996 21.1939 74.6096 21.1839Z" fill="#1F1D20"/>
<path d="M74.6296 19.2539L28.0996 18.8739C27.0896 18.8639 26.2696 19.6739 26.2696 20.6839L25.7496 81.4039C25.7396 82.4139 26.5496 83.2339 27.5596 83.2339L74.0896 83.6139C75.0996 83.6239 75.9196 82.8139 75.9196 81.8039L76.4196 21.0739C76.4196 20.0839 75.6196 19.2639 74.6296 19.2539Z" fill="#F2F2F2"/>
<path fill-rule="evenodd" clip-rule="evenodd" d="M53.7897 12.2039C55.1097 12.9139 55.8697 14.3239 55.8597 15.8139V16.1739C55.8597 16.3139 55.8497 16.4239 55.8397 16.5639L58.6997 16.5839C59.5497 16.5939 60.3497 17.0239 60.7697 17.7639C61.9597 19.8739 60.4497 22.0239 58.4597 22.0039L44.0297 21.8939C43.1797 21.8839 42.3797 21.4539 41.9597 20.7139C40.7697 18.6039 42.2797 16.4539 44.2697 16.4739L46.9297 16.4939C46.9197 16.3639 46.9197 16.2439 46.9197 16.1039V15.9839C46.9597 12.7639 50.3897 10.3739 53.7897 12.2039Z" fill="#243A5E"/>
<path d="M51.3695 18.1239C52.3895 18.1339 53.2195 17.3139 53.2295 16.2939C53.2395 15.2739 52.4196 14.4439 51.3996 14.4339C50.3796 14.4239 49.5496 15.2439 49.5396 16.2639C49.5396 17.2839 50.3495 18.1139 51.3695 18.1239Z" fill="#F2F2F2"/>
<path d="M73.2098 23.754H29.5598V63.014H73.2098V23.754Z" fill="white"/>
<path d="M47.5298 54.6539H43.4698C43.2298 54.6539 43.0298 54.4539 43.0298 54.2139V34.9339C43.0298 34.6939 43.2298 34.4939 43.4698 34.4939H47.5298V35.3639H43.9098V53.7739H47.5298V54.6539Z" fill="#78787D"/>
<path d="M62.9698 44.3739H57.3998C57.1598 44.3739 56.9598 44.1739 56.9598 43.9339V35.3639H51.8198V34.4939H57.3998C57.6398 34.4939 57.8398 34.6939 57.8398 34.9339V43.5039H62.9798V44.3739H62.9698Z" fill="#78787D"/>
<path d="M62.7597 34.4939H53.6997V35.3639H62.7597V34.4939Z" fill="#78787D"/>
<path d="M47.5198 42.4439H38.5198V43.3139H47.5198V42.4439Z" fill="#78787D"/>
<path d="M55.4099 32.7439H45.8499V38.3339C45.8499 38.5039 45.9899 38.6339 46.1499 38.6339H55.0899C55.2599 38.6339 55.3899 38.4939 55.3899 38.3339L55.4099 32.7439Z" fill="#50E6FF"/>
<path d="M55.0899 31.9239H46.1799C45.9999 31.9239 45.8499 32.0639 45.8499 32.2539V32.9539H55.4099V32.2539C55.4099 32.0639 55.2699 31.9239 55.0899 31.9239Z" fill="#45CAF2"/>
<path d="M41.0397 40.4339H31.4797V46.0239C31.4797 46.1939 31.6197 46.3239 31.7797 46.3239H40.7197C40.8897 46.3239 41.0197 46.1839 41.0197 46.0239L41.0397 40.4339Z" fill="#9CEBFF"/>
<path d="M40.7097 39.6039H31.8097C31.6297 39.6039 31.4797 39.7439 31.4797 39.9339V40.6339H41.0397V39.9339C41.0397 39.7539 40.8897 39.6039 40.7097 39.6039Z" fill="#50E6FF"/>
<path d="M69.1696 32.7439H59.6096V38.3339C59.6096 38.5039 59.7496 38.6339 59.9096 38.6339H68.8496C69.0196 38.6339 69.1496 38.4939 69.1496 38.3339L69.1696 32.7439Z" fill="#45CAF2"/>
<path d="M68.8399 31.9239H59.9299C59.7499 31.9239 59.5999 32.0639 59.5999 32.2539V32.9539H69.1599V32.2539C69.1699 32.0639 69.0199 31.9239 68.8399 31.9239Z" fill="#32B0E7"/>
<path d="M69.3798 41.6239H59.8198V47.2139C59.8198 47.3839 59.9598 47.5139 60.1198 47.5139H69.0598C69.2298 47.5139 69.3598 47.3739 69.3598 47.2139L69.3798 41.6239Z" fill="#45CAF2"/>
<path d="M69.0598 40.8039H60.1598C59.9798 40.8039 59.8298 40.9439 59.8298 41.1339V41.8339H69.3898V41.1339C69.3798 40.9439 69.2398 40.8039 69.0598 40.8039Z" fill="#32B0E7"/>
<path d="M55.4099 52.1039H45.8499V57.6939C45.8499 57.8639 45.9899 57.9939 46.1499 57.9939H55.0899C55.2599 57.9939 55.3899 57.8539 55.3899 57.6939L55.4099 52.1039Z" fill="#50E6FF"/>
<path d="M55.0899 51.2739H46.1799C45.9999 51.2739 45.8499 51.4139 45.8499 51.6039V52.3039H55.4099V51.6039C55.4099 51.4239 55.2699 51.2739 55.0899 51.2739Z" fill="#45CAF2"/>
<path d="M55.4099 41.3439H45.8499V49.2639C45.8499 49.5439 46.0699 49.7639 46.3499 49.7639H54.8999C55.1799 49.7639 55.3999 49.5439 55.3999 49.2639V41.3439H55.4099Z" fill="#50E6FF"/>
<path d="M54.9499 40.5239H46.3099C46.0599 40.5239 45.8499 40.7339 45.8499 40.9839V41.5539H55.4099V40.9839C55.4099 40.7239 55.1999 40.5239 54.9499 40.5239Z" fill="#45CAF2"/>
<path d="M44.7997 68.604C44.7997 68.134 44.4197 67.754 43.9497 67.754H30.8397C30.3697 67.754 29.9897 68.134 29.9897 68.604C29.9897 69.074 30.3697 69.454 30.8397 69.454H43.9597C44.4297 69.444 44.7997 69.074 44.7997 68.604Z" fill="#50E6FF"/>
<path d="M33.1597 68.604C33.1597 69.534 33.9197 70.284 34.8397 70.284C35.7697 70.284 36.5197 69.524 36.5197 68.604C36.5197 67.674 35.7597 66.924 34.8397 66.924C33.9097 66.914 33.1597 67.664 33.1597 68.604Z" fill="#0D3868"/>
<path d="M44.7997 72.884C44.7997 72.414 44.4197 72.034 43.9497 72.034H30.8397C30.3697 72.034 29.9897 72.414 29.9897 72.884C29.9897 73.354 30.3697 73.734 30.8397 73.734H43.9597C44.4297 73.724 44.7997 73.354 44.7997 72.884Z" fill="#32B0E7"/>
<path d="M38.2297 72.884C38.2297 73.814 38.9897 74.564 39.9097 74.564C40.8297 74.564 41.5897 73.804 41.5897 72.884C41.5897 71.954 40.8297 71.204 39.9097 71.204C38.9897 71.204 38.2297 71.954 38.2297 72.884Z" fill="#0D3868"/>
<path d="M44.7997 77.414C44.7997 76.944 44.4197 76.564 43.9497 76.564H30.8397C30.3697 76.564 29.9897 76.944 29.9897 77.414C29.9897 77.884 30.3697 78.264 30.8397 78.264H43.9597C44.4297 78.264 44.7997 77.894 44.7997 77.414Z" fill="#185A97"/>
<path d="M33.2097 77.414C33.2097 78.344 33.9697 79.094 34.8897 79.094C35.8197 79.094 36.5697 78.334 36.5697 77.414C36.5697 76.484 35.8097 75.734 34.8897 75.734C33.9697 75.724 33.2097 76.484 33.2097 77.414Z" fill="#0D3868"/>
<path d="M54.2197 70.4039C54.2197 70.4039 69.8497 57.4639 71.7497 59.0939C73.8797 60.9139 60.8597 77.3939 60.8597 77.3939L52.5897 79.5339C52.1797 79.6339 51.8197 79.2739 51.9297 78.8639L54.2197 70.4039Z" fill="#FFBB00"/>
<path d="M66.0698 59.0439L74.1998 50.8039C75.9698 49.0439 78.8198 48.9439 80.6998 50.5739C82.8298 52.3939 82.9498 55.6639 80.9498 57.6339L79.3098 59.2639L66.0698 59.0439Z" fill="#092E4C"/>
<path d="M54.2397 70.3839L72.5497 52.4939L79.6297 59.0339L60.8597 77.4039L54.2397 70.3839Z" fill="url(#paint2_linear)"/>
<path d="M54.2597 79.1039L52.5897 79.5339C52.1797 79.6339 51.8197 79.2739 51.9297 78.8639L52.3997 77.1339L54.2597 79.1039Z" fill="#092E4C"/>
<defs>
<linearGradient id="paint0_linear" x1="49.4798" y1="-13.0455" x2="53.4618" y2="132.724" gradientUnits="userSpaceOnUse">
<stop stop-color="#00ABDE"/>
<stop offset="1" stop-color="#007ED8"/>
</linearGradient>
<linearGradient id="paint1_linear" x1="2.68238" y1="-19.8806" x2="98.2094" y2="121.001" gradientUnits="userSpaceOnUse">
<stop stop-color="#007ED8"/>
<stop offset="0.7065" stop-color="#002D4C"/>
</linearGradient>
<linearGradient id="paint2_linear" x1="59.8171" y1="64.2224" x2="118.822" y2="70.4104" gradientUnits="userSpaceOnUse">
<stop stop-color="#007ED8"/>
<stop offset="0.7065" stop-color="#002D4C"/>
</linearGradient>
</defs>
</svg>
