<svg width="103" height="103" viewBox="0 0 103 103" fill="none" xmlns="http://www.w3.org/2000/svg">
<path d="M51.696 98.368C25.846 98.368 4.88605 77.418 4.88605 51.558C4.88605 25.698 25.846 4.74805 51.696 4.74805C77.546 4.74805 98.506 25.708 98.506 51.558C98.506 77.408 77.546 98.368 51.696 98.368Z" fill="url(#paint0_linear_333_15106)"/>
<path fill-rule="evenodd" clip-rule="evenodd" d="M97.596 51.558C97.596 76.908 77.046 97.458 51.696 97.458C26.346 97.458 5.79603 76.908 5.79603 51.558C5.79603 26.208 26.346 5.65797 51.696 5.65797C77.046 5.65797 97.596 26.208 97.596 51.558ZM51.696 1.91797C79.116 1.91797 101.336 24.138 101.336 51.558C101.336 78.978 79.106 101.198 51.696 101.198C24.276 101.198 2.05603 78.968 2.05603 51.558C2.05603 24.138 24.276 1.91797 51.696 1.91797Z" fill="#F2F1F0"/>
<path fill-rule="evenodd" clip-rule="evenodd" d="M94.786 51.5585C94.786 75.3585 75.496 94.6485 51.696 94.6485C27.896 94.6485 8.60603 75.3585 8.60603 51.5585C8.60603 27.7585 27.896 8.46852 51.696 8.46852C75.496 8.46852 94.786 27.7585 94.786 51.5585ZM51.696 4.72852C77.556 4.72852 98.526 25.6985 98.526 51.5585C98.526 77.4185 77.556 98.3885 51.696 98.3885C25.836 98.3885 4.86603 77.4185 4.86603 51.5585C4.86603 25.6985 25.826 4.72852 51.696 4.72852Z" fill="url(#paint1_linear_333_15106)"/>
<path opacity="0.15" d="M23.1361 77.1102H80.2561C81.8561 77.1102 83.1561 75.8102 83.1561 74.2102V28.6602H20.2361V74.2102C20.2361 75.8102 21.5361 77.1102 23.1361 77.1102Z" fill="#1F1D20"/>
<path d="M21.4361 75.7879H81.9561C82.6161 75.7879 83.1561 75.2479 83.1561 74.5879V27.3379H20.2361V74.5879C20.2361 75.2479 20.7761 75.7879 21.4361 75.7879Z" fill="#EBEBEB"/>
<path d="M20.2361 32.5678H83.1561V26.9278C83.1561 26.4178 82.7461 26.0078 82.2361 26.0078H21.1561C20.6461 26.0078 20.2361 26.4178 20.2361 26.9278V32.5678Z" fill="#092E4C"/>
<path d="M25.0761 31.0181C25.9561 31.0181 26.6761 30.3081 26.6761 29.4181C26.6761 28.5281 25.9461 27.8281 25.0761 27.8281C24.1961 27.8281 23.4761 28.5381 23.4761 29.4281C23.4761 30.3181 24.1761 31.0181 25.0761 31.0181Z" fill="#32B0E7"/>
<path d="M77.1961 79.1555C81.9761 79.1555 85.8461 75.2855 85.8461 70.5055C85.8461 65.7355 81.9761 61.8555 77.1961 61.8555C72.4161 61.8555 68.5461 65.7255 68.5461 70.5055C68.5561 75.2855 72.4261 79.1555 77.1961 79.1555Z" fill="#002D4C"/>
<path d="M81.9061 66.1055L74.7761 73.2555L72.6461 71.1055L71.2261 72.5355L74.7861 76.1055L83.3461 67.5255L81.9061 66.1055Z" fill="#FAF9F8"/>
<path d="M45.0628 67.0298H43.8373V42.03L58.0528 41.9688L58.0835 43.1942L45.0628 43.2555V67.0298Z" fill="#9B9BA0"/>
<path d="M50.4566 53.4883H46.0142V54.7138H50.4566V53.4883Z" fill="#C7C7C7"/>
<path d="M49.811 56.3683L53.7325 54.1011L49.811 51.834V56.3683Z" fill="#C7C7C7"/>
<path d="M37.2492 53.4883H32.8069V54.7138H37.2492V53.4883Z" fill="#C7C7C7"/>
<path d="M36.5779 56.3683L40.4995 54.1011L36.5779 51.834V56.3683Z" fill="#C7C7C7"/>
<path d="M64.7309 53.4883H60.2886V54.7138H64.7309V53.4883Z" fill="#C7C7C7"/>
<path d="M64.0897 56.3683L68.0112 54.1011L64.0897 51.834V56.3683Z" fill="#C7C7C7"/>
<path d="M62.098 38.7207H54.2549V46.5944H62.1286V38.7207H62.098Z" fill="#FDC4C5"/>
<path d="M77.2319 54.1014L72.6363 49.5059L68.0408 54.1014L72.6363 58.697L77.2319 54.1014Z" fill="#D166CB"/>
<path d="M48.3428 50.1797H40.4691V58.0228H48.3428V50.1797Z" fill="#FD7853"/>
<path d="M46.1975 61.7598H42.6436C41.4488 61.7598 40.499 62.7095 40.499 63.9044V67.4582C40.499 68.6531 41.4488 69.6028 42.6436 69.6028H46.1975C47.3923 69.6028 48.3421 68.6531 48.3421 67.4582V63.9044C48.3421 62.7095 47.3617 61.7598 46.1975 61.7598Z" fill="#83462B"/>
<path d="M46.6876 38.7207H42.1534L39.8862 42.6422L42.1534 46.5638H46.6876L48.9548 42.6422L46.6876 38.7207Z" fill="#FFB39D"/>
<path d="M30.6333 58.5749C33.1149 58.5749 35.1063 56.5835 35.1063 54.1019C35.1063 51.6203 33.1149 49.6289 30.6333 49.6289C28.1517 49.6289 26.1603 51.6203 26.1603 54.1019C26.1603 56.5835 28.1517 58.5749 30.6333 58.5749Z" fill="#FDBE52"/>
<path d="M58.1751 58.5749C60.6567 58.5749 62.6481 56.5835 62.6481 54.1019C62.6481 51.6203 60.6567 49.6289 58.1751 49.6289C55.6935 49.6289 53.7021 51.6203 53.7021 54.1019C53.7021 56.5835 55.7241 58.5749 58.1751 58.5749Z" fill="#FD5A5F"/>
<defs>
<linearGradient id="paint0_linear_333_15106" x1="49.9221" y1="-13.2315" x2="53.9041" y2="132.539" gradientUnits="userSpaceOnUse">
<stop stop-color="#00ABDE"/>
<stop offset="1" stop-color="#007ED8"/>
</linearGradient>
<linearGradient id="paint1_linear_333_15106" x1="3.12643" y1="-20.0641" x2="98.654" y2="120.817" gradientUnits="userSpaceOnUse">
<stop stop-color="#007ED8"/>
<stop offset="0.7065" stop-color="#002D4C"/>
</linearGradient>
</defs>
</svg>
