<svg width="103" height="103" viewBox="0 0 103 103" fill="none" xmlns="http://www.w3.org/2000/svg">
<path d="M51.4223 98.7577C25.5723 98.7577 4.6123 77.8077 4.6123 51.9477C4.6123 26.0877 25.5723 5.1377 51.4223 5.1377C77.2723 5.1377 98.2323 26.0977 98.2323 51.9477C98.2323 77.7977 77.2723 98.7577 51.4223 98.7577Z" fill="url(#paint0_linear_59_190)"/>
<path fill-rule="evenodd" clip-rule="evenodd" d="M97.3222 51.9476C97.3222 77.2976 76.7722 97.8476 51.4222 97.8476C26.0722 97.8476 5.52223 77.2976 5.52223 51.9476C5.52223 26.5976 26.0722 6.04762 51.4222 6.04762C76.7722 6.04762 97.3222 26.5976 97.3222 51.9476ZM51.4222 2.30762C78.8422 2.30762 101.062 24.5276 101.062 51.9476C101.062 79.3676 78.8322 101.588 51.4222 101.588C24.0022 101.588 1.78223 79.3576 1.78223 51.9476C1.78223 24.5276 24.0022 2.30762 51.4222 2.30762Z" fill="#F2F1F0"/>
<path fill-rule="evenodd" clip-rule="evenodd" d="M94.5123 51.9472C94.5123 75.7472 75.2223 95.0372 51.4223 95.0372C27.6223 95.0372 8.33228 75.7472 8.33228 51.9472C8.33228 28.1472 27.6223 8.85719 51.4223 8.85719C75.2223 8.85719 94.5123 28.1472 94.5123 51.9472ZM51.4223 5.11719C77.2823 5.11719 98.2523 26.0872 98.2523 51.9472C98.2523 77.8072 77.2823 98.7772 51.4223 98.7772C25.5623 98.7772 4.59229 77.8072 4.59229 51.9472C4.59229 26.0872 25.5523 5.11719 51.4223 5.11719Z" fill="url(#paint1_linear_59_190)"/>
<path opacity="0.15" d="M86.6501 35.8555H44.0713V72.6189C44.0713 73.3641 44.6868 73.9796 45.432 73.9796H85.2813C86.0265 73.9796 86.642 73.3641 86.642 72.6189L86.6501 35.8555Z" fill="#1F1D20"/>
<path d="M85.2084 30.5664H45.5211C44.7192 30.5664 44.0713 31.2063 44.0713 32.0162V34.2436V35.1183V70.9989C44.0713 71.7441 44.6868 72.3596 45.432 72.3596H85.2813C86.0265 72.3596 86.642 71.7441 86.642 70.9989V35.1264H86.6501V32.0162C86.6501 31.2063 86.0103 30.5664 85.2084 30.5664Z" fill="url(#paint2_linear_59_190)"/>
<path d="M30.2737 50.8264L33.492 46.2576L36.854 40.6255C36.854 40.6255 33.1903 37.0911 27.8456 36.9618C22.5008 36.8324 17.8458 39.3755 15.001 42.6726C12.1562 45.9696 10.7338 50.4747 10.6907 54.3539C10.6476 58.2332 11.7039 63.2756 14.0205 65.0434C16.5067 66.9399 18.8153 66.5951 20.0871 66.2284C21.3589 65.8618 22.4037 64.9997 22.7916 64.5474C23.1796 64.0952 23.6324 63.3193 23.6324 63.3193L27.5151 56.5735L30.2737 50.8264Z" fill="url(#paint3_linear_59_190)"/>
<path d="M30.9286 51.3338L26.8551 57.5837L23.6655 63.1008C23.6655 63.1008 25.5402 64.868 28.3206 65.795C31.101 66.722 35.4688 67.6053 41.0934 64.5663C46.718 61.5273 48.8156 55.4176 49.2467 53.8015C49.6777 52.1855 50.089 47.7458 49.4627 44.9868C48.9971 42.3723 48.2771 39.4162 45.5617 37.9289C42.8462 36.4415 40.4761 37.2869 39.8612 37.5518C39.1606 37.8536 37.9325 38.834 37.5877 39.3081C37.2429 39.7823 36.7687 40.407 36.7687 40.407L33.2774 46.5925L30.9286 51.3338Z" fill="url(#paint4_linear_59_190)"/>
<path d="M32.8235 50.1369L33.7718 45.841C33.7718 45.841 31.746 44.5623 29.6914 44.2244C28.5512 44.0376 25.5248 43.844 23.1973 45.9416C20.8697 48.0393 19.8927 50.2231 19.6054 53.3553C19.318 56.4874 20.2044 58.3204 20.8985 59.6195C21.6411 60.9927 22.68 62.0045 23.0823 62.5218C23.4846 63.039 23.8007 63.2401 23.8007 63.2401L27.6512 56.3725L32.8235 50.1369Z" fill="url(#paint5_linear_59_190)"/>
<path d="M29.5221 56.2403L26.8716 57.9426C26.8716 57.9426 28.5738 58.9989 30.406 59.3437C32.2381 59.6885 35.1255 60.0115 38.0139 57.0593C40.9024 54.107 41.0955 50.0117 40.923 48.5462C40.7506 47.0807 40.2041 44.8724 38.6817 42.663C37.5317 41.1369 36.7421 40.4004 36.7421 40.4004L33.1215 46.8008L32.6255 55.4001L29.5221 56.2403Z" fill="url(#paint6_linear_59_190)"/>
<path d="M30.3967 58.9692C34.1976 58.9692 37.2788 55.888 37.2788 52.0871C37.2788 48.2863 34.1976 45.2051 30.3967 45.2051C26.5958 45.2051 23.5146 48.2863 23.5146 52.0871C23.5146 55.888 26.5958 58.9692 30.3967 58.9692Z" fill="url(#paint7_linear_59_190)"/>
<path fill-rule="evenodd" clip-rule="evenodd" d="M69.6798 47.7727H62.1201V46.9727H69.6798V47.7727Z" fill="#78787D"/>
<path fill-rule="evenodd" clip-rule="evenodd" d="M69.6798 56.3381H62.1201V55.5381H69.6798V56.3381Z" fill="#78787D"/>
<path fill-rule="evenodd" clip-rule="evenodd" d="M62.1201 38.4072H69.6798C69.9008 38.4072 70.0798 38.5863 70.0798 38.8072V64.5176C70.0798 64.7385 69.9008 64.9176 69.6798 64.9176H62.1201V64.1176H69.2798V39.2072H62.1201V38.4072Z" fill="#78787D"/>
<path fill-rule="evenodd" clip-rule="evenodd" d="M77.7826 51.9092H69.6577V50.9092H77.7826V51.9092Z" fill="#78787D"/>
<path d="M77.5166 49.0156L81.9497 51.5771L77.5166 54.1313V49.0156Z" fill="#78787D"/>
<path fill-rule="evenodd" clip-rule="evenodd" d="M57.6162 47.9238H51.6523V46.9238H57.6162V47.9238Z" fill="#78787D"/>
<path d="M56.269 45.0312L60.7021 47.5927L56.269 50.1469V45.0312Z" fill="#78787D"/>
<path fill-rule="evenodd" clip-rule="evenodd" d="M57.3431 39.2324H51.6523V38.2324H57.3431V39.2324Z" fill="#78787D"/>
<path d="M56.269 36.3398L60.7021 38.9013L56.269 41.4555V36.3398Z" fill="#78787D"/>
<path fill-rule="evenodd" clip-rule="evenodd" d="M58.7087 64.8271H51.6523V63.8271H58.7087V64.8271Z" fill="#78787D"/>
<path d="M56.269 61.9346L60.7021 64.4961L56.269 67.0502V61.9346Z" fill="#78787D"/>
<path fill-rule="evenodd" clip-rule="evenodd" d="M58.0532 56.4238H51.6523V55.4238H58.0532V56.4238Z" fill="#78787D"/>
<path d="M56.269 53.5312L60.7021 56.0927L56.269 58.6469V53.5312Z" fill="#78787D"/>
<defs>
<linearGradient id="paint0_linear_59_190" x1="49.6484" y1="-12.8418" x2="53.6304" y2="132.928" gradientUnits="userSpaceOnUse">
<stop stop-color="#00ABDE"/>
<stop offset="1" stop-color="#007ED8"/>
</linearGradient>
<linearGradient id="paint1_linear_59_190" x1="2.85269" y1="-19.6754" x2="98.3802" y2="121.206" gradientUnits="userSpaceOnUse">
<stop stop-color="#007ED8"/>
<stop offset="0.7065" stop-color="#002D4C"/>
</linearGradient>
<linearGradient id="paint2_linear_59_190" x1="65.6667" y1="69.0539" x2="64.8848" y2="24.4831" gradientUnits="userSpaceOnUse">
<stop offset="0.3831" stop-color="#D2EBFF"/>
<stop offset="1" stop-color="#F0FFFD"/>
</linearGradient>
<linearGradient id="paint3_linear_59_190" x1="16.8446" y1="40.7364" x2="27.3829" y2="55.8011" gradientUnits="userSpaceOnUse">
<stop offset="0.21" stop-color="#098C4B"/>
<stop offset="0.48" stop-color="#0C7544"/>
<stop offset="0.78" stop-color="#0A5431"/>
<stop offset="1" stop-color="#04391C"/>
</linearGradient>
<linearGradient id="paint4_linear_59_190" x1="36.2889" y1="37.1076" x2="37.0647" y2="69.6932" gradientUnits="userSpaceOnUse">
<stop stop-color="#57D66F"/>
<stop offset="0.26" stop-color="#39BB57"/>
<stop offset="0.52" stop-color="#179E3D"/>
<stop offset="0.79" stop-color="#109439"/>
<stop offset="0.89" stop-color="#1C9E43"/>
</linearGradient>
<linearGradient id="paint5_linear_59_190" x1="21.1163" y1="51.6277" x2="29.0041" y2="54.4725" gradientUnits="userSpaceOnUse">
<stop offset="0.08" stop-color="#098C4B"/>
<stop offset="0.76" stop-color="#04632D"/>
<stop offset="0.94" stop-color="#045327"/>
</linearGradient>
<linearGradient id="paint6_linear_59_190" x1="35.7231" y1="42.971" x2="33.3307" y2="57.7771" gradientUnits="userSpaceOnUse">
<stop offset="0.03" stop-color="#0A8F4D"/>
<stop offset="0.26" stop-color="#078041"/>
<stop offset="0.69" stop-color="#03662D"/>
<stop offset="1" stop-color="#034D22"/>
</linearGradient>
<linearGradient id="paint7_linear_59_190" x1="25.4227" y1="47.147" x2="34.9265" y2="56.5865" gradientUnits="userSpaceOnUse">
<stop offset="0.14" stop-color="#ABE8AF"/>
<stop offset="0.43" stop-color="#8FE794"/>
<stop offset="0.63" stop-color="#78E67F"/>
<stop offset="0.84" stop-color="#63E76B"/>
</linearGradient>
</defs>
</svg>
