<svg width="102" height="102" viewBox="0 0 102 102" fill="none" xmlns="http://www.w3.org/2000/svg">
<path d="M50.9995 97.8094C44.8523 97.8094 38.7652 96.5986 33.0859 94.2462C27.4067 91.8938 22.2461 88.4458 17.8994 84.0991C13.5527 79.7524 10.1049 74.5921 7.75244 68.9128C5.40002 63.2336 4.18945 57.1466 4.18945 50.9994C4.18945 44.8522 5.40002 38.7652 7.75244 33.0859C10.1049 27.4067 13.5527 22.2465 17.8994 17.8998C22.2461 13.5531 27.4067 10.105 33.0859 7.75256C38.7652 5.40014 44.8523 4.18945 50.9995 4.18945C63.4143 4.18945 75.3205 9.1212 84.0991 17.8998C92.8777 26.6784 97.8091 38.5846 97.8091 50.9994C97.8091 63.4142 92.8777 75.3205 84.0991 84.0991C75.3205 92.8777 63.4143 97.8094 50.9995 97.8094V97.8094Z" fill="url(#paint0_linear)"/>
<path fill-rule="evenodd" clip-rule="evenodd" d="M96.8994 50.9996C96.8994 63.1731 92.0635 74.8479 83.4556 83.4558C74.8476 92.0637 63.1729 96.8997 50.9995 96.8997C38.8261 96.8997 27.1509 92.0637 18.543 83.4558C9.93505 74.8479 5.09912 63.1731 5.09912 50.9996C5.09912 38.8262 9.93505 27.1514 18.543 18.5435C27.1509 9.93554 38.8261 5.09961 50.9995 5.09961C63.1729 5.09961 74.8476 9.93554 83.4556 18.5435C92.0635 27.1514 96.8994 38.8262 96.8994 50.9996V50.9996ZM50.9995 1.38965C57.5187 1.38834 63.9739 2.67135 69.9971 5.16553C76.0203 7.65971 81.4933 11.3161 86.103 15.9259C90.7128 20.5357 94.3691 26.0085 96.8633 32.0317C99.3575 38.0549 100.64 44.5105 100.639 51.0297C100.639 64.195 95.4094 76.8211 86.1001 86.1304C76.7908 95.4397 64.1649 100.67 50.9995 100.67C44.4807 100.67 38.0255 99.3856 32.0029 96.891C25.9803 94.3963 20.5079 90.7399 15.8984 86.1304C11.2889 81.5209 7.63234 76.0486 5.1377 70.026C2.64305 64.0034 1.35938 57.5485 1.35938 51.0297C1.35806 44.5105 2.64108 38.0549 5.13525 32.0317C7.62943 26.0085 11.2857 20.5357 15.8955 15.9259C20.5053 11.3161 25.9783 7.65971 32.0015 5.16553C38.0247 2.67135 44.4803 1.38834 50.9995 1.38965V1.38965Z" fill="#F2F1F0"/>
<path fill-rule="evenodd" clip-rule="evenodd" d="M94.0898 50.9999C94.0898 56.6585 92.975 62.2618 90.8096 67.4897C88.6441 72.7177 85.4705 77.4678 81.4692 81.4691C77.468 85.4704 72.7177 88.6443 67.4897 90.8098C62.2618 92.9753 56.6587 94.0898 51 94.0898C39.5718 94.0898 28.6117 89.5501 20.5308 81.4691C12.4498 73.3882 7.90967 62.4281 7.90967 50.9999C7.90967 39.5717 12.4498 28.6116 20.5308 20.5306C28.6117 12.4497 39.5718 7.90991 51 7.90991C56.6587 7.90991 62.2618 9.02447 67.4897 11.1899C72.7177 13.3554 77.468 16.5294 81.4692 20.5306C85.4705 24.5319 88.6441 29.2821 90.8096 34.51C92.975 39.7379 94.0898 45.3412 94.0898 50.9999ZM51 4.16992C63.4201 4.16992 75.3314 9.10378 84.1138 17.8861C92.8961 26.6684 97.8296 38.5798 97.8296 50.9999C97.8296 63.42 92.8961 75.3313 84.1138 84.1136C75.3314 92.896 63.4201 97.8298 51 97.8298C38.5799 97.8298 26.6686 92.896 17.8862 84.1136C9.1039 75.3313 4.16992 63.42 4.16992 50.9999C4.16992 38.5798 9.1039 26.6684 17.8862 17.8861C26.6686 9.10378 38.5799 4.16992 51 4.16992V4.16992Z" fill="url(#paint1_linear)"/>
<path opacity="0.15" d="M38.1597 34.71H16.0699C15.9566 34.7087 15.8443 34.73 15.7393 34.7728C15.6344 34.8155 15.5387 34.8788 15.4586 34.9589C15.3784 35.039 15.3153 35.1345 15.2725 35.2394C15.2298 35.3444 15.2087 35.4568 15.21 35.5701V68.86C15.2087 68.9734 15.2298 69.0858 15.2725 69.1907C15.3153 69.2957 15.3784 69.391 15.4586 69.4711C15.5387 69.5513 15.6344 69.6145 15.7393 69.6573C15.8443 69.7 15.9566 69.7214 16.0699 69.72H38.1597C38.273 69.7214 38.3858 69.7 38.4908 69.6573C38.5957 69.6145 38.6909 69.5513 38.7711 69.4711C38.8512 69.391 38.9143 69.2957 38.9571 69.1907C38.9998 69.0858 39.0214 68.9734 39.0201 68.86V35.5701C39.0175 35.3428 38.9259 35.1255 38.7652 34.9648C38.6045 34.8041 38.387 34.7126 38.1597 34.71V34.71Z" fill="#1F1D20"/>
<path d="M38.1597 33.6397H16.0699C15.9566 33.6384 15.8443 33.6597 15.7393 33.7025C15.6344 33.7452 15.5387 33.8085 15.4586 33.8886C15.3784 33.9687 15.3153 34.0641 15.2725 34.169C15.2298 34.274 15.2087 34.3864 15.21 34.4997V67.7997C15.21 68.0278 15.3007 68.2465 15.462 68.4078C15.6233 68.5691 15.8418 68.6597 16.0699 68.6597H38.1597C38.3878 68.6597 38.6068 68.5691 38.7681 68.4078C38.9294 68.2465 39.0201 68.0278 39.0201 67.7997V34.4997C39.0175 34.2724 38.9259 34.0552 38.7652 33.8945C38.6045 33.7337 38.387 33.6423 38.1597 33.6397V33.6397Z" fill="#F2F2F3"/>
<path opacity="0.15" d="M42.2397 69.7395H83.98C84.1349 69.7395 84.288 69.709 84.4312 69.6497C84.5743 69.5904 84.7044 69.5035 84.814 69.3939C84.9235 69.2843 85.0105 69.1543 85.0698 69.0111C85.1291 68.8679 85.1597 68.7145 85.1597 68.5596V35.7695H41.0596V68.5596C41.0596 68.7145 41.0901 68.8679 41.1494 69.0111C41.2087 69.1543 41.2957 69.2843 41.4053 69.3939C41.5148 69.5035 41.6449 69.5904 41.7881 69.6497C41.9313 69.709 42.0848 69.7395 42.2397 69.7395V69.7395Z" fill="#1F1D20"/>
<path d="M41.8999 68.5198H84.2998C84.5218 68.5172 84.7341 68.4278 84.8911 68.2709C85.0481 68.1139 85.1371 67.9018 85.1396 67.6798V34.5498H41.04V67.6698C41.04 67.7823 41.0621 67.8937 41.1055 67.9974C41.1488 68.1012 41.2125 68.1954 41.2925 68.2744C41.3725 68.3535 41.467 68.4159 41.5713 68.458C41.6756 68.5001 41.7874 68.5211 41.8999 68.5198V68.5198Z" fill="#EBEBEB"/>
<path d="M41.0596 38.2198H85.1597V34.2699C85.1597 34.1019 85.0939 33.9405 84.9761 33.8208C84.8582 33.7011 84.6978 33.6325 84.5298 33.6299H41.6997C41.53 33.6299 41.3671 33.6974 41.2471 33.8174C41.127 33.9374 41.0596 34.1002 41.0596 34.2699V38.2198Z" fill="url(#paint2_linear)"/>
<path d="M44.4502 37.1402C44.5969 37.1402 44.7422 37.1111 44.8775 37.0547C45.0128 36.9983 45.1356 36.9157 45.2388 36.8116C45.342 36.7074 45.4234 36.5839 45.4786 36.448C45.5338 36.3122 45.5614 36.1668 45.5601 36.0202C45.5601 35.7258 45.4436 35.4434 45.2354 35.2353C45.0272 35.0271 44.7446 34.9102 44.4502 34.9102C44.3028 34.9089 44.1566 34.9369 44.0201 34.9927C43.8836 35.0485 43.7596 35.131 43.6553 35.2353C43.5511 35.3395 43.4685 35.4635 43.4126 35.6C43.3568 35.7365 43.3288 35.8827 43.3301 36.0302C43.3288 36.1772 43.3572 36.323 43.4131 36.4589C43.4691 36.5949 43.5514 36.7182 43.6558 36.8217C43.7602 36.9252 43.8846 37.0066 44.021 37.0613C44.1575 37.116 44.3033 37.1429 44.4502 37.1402Z" fill="#87D2DE"/>
<g opacity="0.15">
<path opacity="0.15" d="M49.0703 43.1396H43.9102V48.2997H49.0703V43.1396Z" fill="#1F1D20"/>
<path opacity="0.15" d="M55.3008 43.1396H50.1406V48.2997H55.3008V43.1396Z" fill="#1F1D20"/>
<path opacity="0.15" d="M61.6001 43.1396H56.4404V48.2997H61.6001V43.1396Z" fill="#1F1D20"/>
<path opacity="0.15" d="M67.8706 43.1396H62.7109V48.2997H67.8706V43.1396Z" fill="#1F1D20"/>
<path opacity="0.15" d="M76.041 43.1396H70.8809V48.2997H76.041V43.1396Z" fill="#1F1D20"/>
<path opacity="0.15" d="M82.3008 43.1396H77.1406V48.2997H82.3008V43.1396Z" fill="#1F1D20"/>
<path opacity="0.15" d="M76.041 49.4893H70.8809V54.6493H76.041V49.4893Z" fill="#1F1D20"/>
<path opacity="0.15" d="M82.3008 49.4893H77.1406V54.6493H82.3008V49.4893Z" fill="#1F1D20"/>
<path opacity="0.15" d="M76.041 55.96H70.8809V61.12H76.041V55.96Z" fill="#1F1D20"/>
<path opacity="0.15" d="M82.3008 55.96H77.1406V61.12H82.3008V55.96Z" fill="#1F1D20"/>
<path opacity="0.15" d="M49.0703 49.4893H43.9102V54.6493H49.0703V49.4893Z" fill="#1F1D20"/>
<path opacity="0.15" d="M55.3008 49.4893H50.1406V54.6493H55.3008V49.4893Z" fill="#1F1D20"/>
<path opacity="0.15" d="M61.6001 49.4893H56.4404V54.6493H61.6001V49.4893Z" fill="#1F1D20"/>
<path opacity="0.15" d="M49.0703 55.96H43.9102V61.12H49.0703V55.96Z" fill="#1F1D20"/>
<path opacity="0.15" d="M55.3008 55.96H50.1406V61.12H55.3008V55.96Z" fill="#1F1D20"/>
<path opacity="0.15" d="M61.6001 55.96H56.4404V61.12H61.6001V55.96Z" fill="#1F1D20"/>
<path opacity="0.15" d="M67.8706 49.4893H62.7109V54.6493H67.8706V49.4893Z" fill="#1F1D20"/>
</g>
<path d="M49.0703 42.6895H43.9102V47.8494H49.0703V42.6895Z" fill="url(#paint3_linear)"/>
<path d="M55.2998 42.6895H50.1396V47.8494H55.2998V42.6895Z" fill="url(#paint4_linear)"/>
<path d="M61.5991 42.6895H56.4395V47.8494H61.5991V42.6895Z" fill="url(#paint5_linear)"/>
<path d="M67.8696 42.6895H62.71V47.8494H67.8696V42.6895Z" fill="url(#paint6_linear)"/>
<path d="M76.04 42.6895H70.8799V47.8494H76.04V42.6895Z" fill="url(#paint7_linear)"/>
<path d="M82.2998 42.6895H77.1396V47.8494H82.2998V42.6895Z" fill="url(#paint8_linear)"/>
<path d="M76.04 49.0498H70.8799V54.2097H76.04V49.0498Z" fill="url(#paint9_linear)"/>
<path d="M82.2998 49.0498H77.1396V54.2097H82.2998V49.0498Z" fill="url(#paint10_linear)"/>
<path d="M76.04 55.5098H70.8799V60.6698H76.04V55.5098Z" fill="url(#paint11_linear)"/>
<path d="M82.2998 55.5098H77.1396V60.6698H82.2998V55.5098Z" fill="url(#paint12_linear)"/>
<path d="M49.0703 49.0498H43.9102V54.2097H49.0703V49.0498Z" fill="url(#paint13_linear)"/>
<path d="M55.2998 49.0498H50.1396V54.2097H55.2998V49.0498Z" fill="url(#paint14_linear)"/>
<path d="M61.5991 49.0498H56.4395V54.2097H61.5991V49.0498Z" fill="url(#paint15_linear)"/>
<path d="M49.0703 55.5098H43.9102V60.6698H49.0703V55.5098Z" fill="url(#paint16_linear)"/>
<path d="M55.2998 55.5098H50.1396V60.6698H55.2998V55.5098Z" fill="url(#paint17_linear)"/>
<path d="M61.5991 55.5098H56.4395V60.6698H61.5991V55.5098Z" fill="url(#paint18_linear)"/>
<path d="M67.8696 49.0498H62.71V54.2097H67.8696V49.0498Z" fill="url(#paint19_linear)"/>
<path d="M86.9102 53.0699L85.9102 54.0699L88.5005 56.7499L90.0703 55.1899L89.5601 52.8398L86.9102 53.0699Z" fill="url(#paint20_linear)"/>
<path d="M77.6201 62.3303L76.6201 63.3303L79.2505 66.0204L80.7505 64.5004L80.2505 62.1504L77.6201 62.3303Z" fill="url(#paint21_linear)"/>
<path d="M89.8804 52.6999C89.1504 51.9699 88.2504 51.6999 87.8804 52.0599L86.7305 53.2198C87.1705 52.9798 87.9904 53.2799 88.6704 53.9499C88.937 54.1644 89.1476 54.4399 89.2852 54.7532C89.4227 55.0665 89.483 55.4084 89.4604 55.7498C89.4604 55.7498 89.4604 55.7498 89.4604 55.7498L90.4604 54.7498C90.8904 54.3298 90.6004 53.3899 89.8804 52.6999Z" fill="#092E4C"/>
<path d="M87.9902 54.5901C87.2702 53.8701 86.3902 53.5902 85.9902 53.9402L77.4004 62.5302C77.7492 62.4845 78.1039 62.5316 78.4287 62.6668C78.7535 62.802 79.0371 63.0205 79.2505 63.3002C79.5087 63.5158 79.7145 63.787 79.853 64.0936C79.9916 64.4001 80.0591 64.734 80.0503 65.0702L88.5903 56.5402C88.9903 56.1902 88.7102 55.3101 87.9902 54.5901Z" fill="#092E4C"/>
<path d="M78.5801 63.9898C77.8401 63.2498 76.9301 62.9898 76.5801 63.3498L75.8804 65.9798C75.9904 65.8598 76.0605 66.0699 76.2705 66.2699C76.4805 66.4699 76.4005 66.4499 76.2705 66.5599L75.7705 67.0099L79.2402 66.0099C79.6002 65.6399 79.3001 64.7298 78.5801 63.9898Z" fill="#FDBA12"/>
<path d="M76.4302 66.1703C76.2202 65.9603 75.9604 65.8703 75.8404 65.9903L75.6104 66.8803C75.6068 66.8994 75.6081 66.9191 75.6138 66.9378C75.6196 66.9564 75.6298 66.9734 75.6436 66.9872C75.6574 67.001 75.6743 67.0112 75.6929 67.017C75.7116 67.0228 75.7314 67.0239 75.7505 67.0203L76.6202 66.7603C76.7302 66.6503 76.6502 66.3903 76.4302 66.1703Z" fill="#092E4C"/>
<path opacity="0.15" d="M31.8296 59.55C34.2596 61 34.2596 63.27 31.8296 64.73C30.4571 65.4394 28.9347 65.8096 27.3897 65.8096C25.8447 65.8096 24.3223 65.4394 22.9498 64.73C20.5298 63.28 20.5298 61.01 22.9498 59.55C24.3208 58.8358 25.8438 58.4629 27.3897 58.4629C28.9356 58.4629 30.4586 58.8358 31.8296 59.55V59.55Z" fill="#1F1D20"/>
<path d="M32.5195 46.0499V42.8398H22.0894V46.0999C22.0881 46.224 22.0376 46.3427 21.9492 46.4299C21.0437 47.3586 20.5346 48.6028 20.5293 49.8999V52.2198L27.8291 57.6599L34.0894 52.2198V49.7699C34.0837 48.4827 33.5696 47.2498 32.6592 46.3398C32.6155 46.3052 32.5804 46.2612 32.5562 46.2109C32.5319 46.1607 32.5195 46.1057 32.5195 46.0499V46.0499Z" fill="url(#paint22_linear)"/>
<path d="M34.09 53.5601H20.53V60.5601C20.5147 60.713 20.5147 60.8671 20.53 61.02C20.5824 61.6242 20.7955 62.2033 21.1472 62.6974C21.4988 63.1915 21.9763 63.5825 22.53 63.83C24.0081 64.6036 25.6517 65.0077 27.32 65.0077C28.9884 65.0077 30.6319 64.6036 32.1101 63.83C32.6963 63.5747 33.1963 63.1561 33.551 62.6241C33.9056 62.0922 34.0999 61.4692 34.1101 60.83C34.1152 60.7334 34.1152 60.6366 34.1101 60.54V53.54L34.09 53.5601Z" fill="url(#paint23_linear)"/>
<path d="M34.0796 49.2998C34.0912 49.2905 34.1054 49.2846 34.1201 49.2828C34.1349 49.281 34.1501 49.2833 34.1636 49.2895C34.1771 49.2958 34.1886 49.3057 34.1968 49.3181C34.205 49.3305 34.2095 49.3449 34.21 49.3597V59.5897C34.146 60.1942 33.9286 60.7724 33.5786 61.2694C33.2286 61.7664 32.7575 62.1658 32.21 62.4298C30.7773 63.0929 29.2072 63.4047 27.6299 63.3397C25.8537 63.4861 24.0696 63.1728 22.4497 62.4298C21.8766 62.1266 21.3703 61.7117 20.96 61.2097C20.6456 60.8768 20.455 60.4462 20.4199 59.9897V49.4797C20.4203 49.4601 20.4257 49.441 20.436 49.4243C20.4463 49.4076 20.4612 49.3939 20.4785 49.3848C20.4959 49.3756 20.5151 49.3712 20.5347 49.3721C20.5543 49.3729 20.5734 49.3791 20.5898 49.3898C21.165 49.8273 21.7935 50.1902 22.46 50.4697C24.0403 51.1358 25.7458 51.4531 27.46 51.3998C29.1133 51.451 30.7552 51.1082 32.25 50.3998C32.8964 50.0974 33.5093 49.7287 34.0796 49.2998V49.2998Z" fill="#B4E2EF"/>
<path d="M32.1992 52.49C31.6204 52.7943 31.0008 53.0132 30.3594 53.14V61.4C30.9942 61.2826 31.6076 61.0702 32.1792 60.77C32.5108 60.5685 32.8028 60.3074 33.0396 60V52C32.7996 52.17 32.5292 52.32 32.1992 52.49Z" fill="#F4F4F5"/>
<path d="M33.1899 40.7896V42.7896C33.1298 43.3102 32.9386 43.8071 32.6343 44.2338C32.33 44.6605 31.9223 45.0031 31.4497 45.2295C30.1454 45.8564 28.7171 46.1818 27.27 46.1818C25.8229 46.1818 24.3941 45.8564 23.0898 45.2295C22.6029 44.9861 22.1707 44.6458 21.8198 44.2295C21.5574 43.957 21.392 43.6055 21.3496 43.2295L21.3999 40.8196C21.3999 40.8196 21.9298 41.0996 23.0898 41.8196C22.8398 41.6896 31.1699 39.5695 30.9199 39.7095C32.1099 38.9195 33.1899 41.6096 33.1899 40.7896Z" fill="#E6E6E6"/>
<path d="M31.49 38.4795C33.78 39.8495 33.78 41.9795 31.49 43.3495C30.1992 44.0275 28.7629 44.3817 27.3049 44.3817C25.8469 44.3817 24.4106 44.0275 23.1198 43.3495C20.8298 41.9695 20.8298 39.8495 23.1198 38.4795C24.4106 37.8015 25.8469 37.4473 27.3049 37.4473C28.7629 37.4473 30.1992 37.8015 31.49 38.4795V38.4795Z" fill="#96D8EC"/>
<path d="M29.1299 39.9797C29.3511 40.0552 29.5432 40.198 29.6792 40.3881C29.8152 40.5781 29.8882 40.8061 29.8882 41.0398C29.8882 41.2735 29.8152 41.5013 29.6792 41.6914C29.5432 41.8815 29.3511 42.0243 29.1299 42.0997C28.5669 42.395 27.9404 42.5492 27.3047 42.5492C26.669 42.5492 26.043 42.395 25.48 42.0997C25.2588 42.0243 25.0667 41.8815 24.9307 41.6914C24.7947 41.5013 24.7217 41.2735 24.7217 41.0398C24.7217 40.8061 24.7947 40.5781 24.9307 40.3881C25.0667 40.198 25.2588 40.0552 25.48 39.9797C26.043 39.6845 26.669 39.5303 27.3047 39.5303C27.9404 39.5303 28.5669 39.6845 29.1299 39.9797V39.9797Z" fill="url(#paint24_linear)"/>
<defs>
<linearGradient id="paint0_linear" x1="49.2393" y1="-13.7905" x2="53.2193" y2="131.979" gradientUnits="userSpaceOnUse">
<stop stop-color="#00ABDE"/>
<stop offset="1" stop-color="#2E7BBF"/>
</linearGradient>
<linearGradient id="paint1_linear" x1="2.43993" y1="-20.6301" x2="97.9599" y2="120.26" gradientUnits="userSpaceOnUse">
<stop stop-color="#2E7BBF"/>
<stop offset="0.71" stop-color="#092D4C"/>
</linearGradient>
<linearGradient id="paint2_linear" x1="229175" y1="36455.9" x2="229221" y2="36008.3" gradientUnits="userSpaceOnUse">
<stop stop-color="#2E7BBF"/>
<stop offset="0.71" stop-color="#092D4C"/>
</linearGradient>
<linearGradient id="paint3_linear" x1="26903.4" y1="40796.9" x2="27146.9" y2="40642.9" gradientUnits="userSpaceOnUse">
<stop stop-color="#2E7BBF"/>
<stop offset="0.71" stop-color="#092D4C"/>
</linearGradient>
<linearGradient id="paint4_linear" x1="26918.8" y1="40811.5" x2="27162.3" y2="40657.5" gradientUnits="userSpaceOnUse">
<stop stop-color="#2E7BBF"/>
<stop offset="0.71" stop-color="#092D4C"/>
</linearGradient>
<linearGradient id="paint5_linear" x1="26931.8" y1="40826.1" x2="27175.3" y2="40672.1" gradientUnits="userSpaceOnUse">
<stop stop-color="#2E7BBF"/>
<stop offset="0.71" stop-color="#092D4C"/>
</linearGradient>
<linearGradient id="paint6_linear" x1="26947.3" y1="40840.7" x2="27190.8" y2="40686.7" gradientUnits="userSpaceOnUse">
<stop stop-color="#2E7BBF"/>
<stop offset="0.71" stop-color="#092D4C"/>
</linearGradient>
<linearGradient id="paint7_linear" x1="26970.1" y1="40859.8" x2="27213.6" y2="40705.7" gradientUnits="userSpaceOnUse">
<stop stop-color="#2E7BBF"/>
<stop offset="0.71" stop-color="#092D4C"/>
</linearGradient>
<linearGradient id="paint8_linear" x1="26985.6" y1="40874.4" x2="27229.1" y2="40720.4" gradientUnits="userSpaceOnUse">
<stop stop-color="#2E7BBF"/>
<stop offset="0.71" stop-color="#092D4C"/>
</linearGradient>
<linearGradient id="paint9_linear" x1="26955.2" y1="40842.6" x2="27198.8" y2="40688.7" gradientUnits="userSpaceOnUse">
<stop stop-color="#2E7BBF"/>
<stop offset="0.71" stop-color="#092D4C"/>
</linearGradient>
<linearGradient id="paint10_linear" x1="26970.7" y1="40857.3" x2="27214.3" y2="40703.3" gradientUnits="userSpaceOnUse">
<stop stop-color="#2E7BBF"/>
<stop offset="0.71" stop-color="#092D4C"/>
</linearGradient>
<linearGradient id="paint11_linear" x1="26940.7" y1="40825.9" x2="27184.2" y2="40671.9" gradientUnits="userSpaceOnUse">
<stop stop-color="#2E7BBF"/>
<stop offset="0.71" stop-color="#092D4C"/>
</linearGradient>
<linearGradient id="paint12_linear" x1="26956.2" y1="40840.5" x2="27199.7" y2="40686.5" gradientUnits="userSpaceOnUse">
<stop stop-color="#2E7BBF"/>
<stop offset="0.71" stop-color="#092D4C"/>
</linearGradient>
<linearGradient id="paint13_linear" x1="26888.5" y1="40779.8" x2="27132" y2="40625.8" gradientUnits="userSpaceOnUse">
<stop stop-color="#2E7BBF"/>
<stop offset="0.71" stop-color="#092D4C"/>
</linearGradient>
<linearGradient id="paint14_linear" x1="26904" y1="40794.4" x2="27147.5" y2="40640.4" gradientUnits="userSpaceOnUse">
<stop stop-color="#2E7BBF"/>
<stop offset="0.71" stop-color="#092D4C"/>
</linearGradient>
<linearGradient id="paint15_linear" x1="26916.9" y1="40809" x2="27160.5" y2="40655" gradientUnits="userSpaceOnUse">
<stop stop-color="#2E7BBF"/>
<stop offset="0.71" stop-color="#092D4C"/>
</linearGradient>
<linearGradient id="paint16_linear" x1="26873.4" y1="40763.4" x2="27117" y2="40609.4" gradientUnits="userSpaceOnUse">
<stop stop-color="#2E7BBF"/>
<stop offset="0.71" stop-color="#092D4C"/>
</linearGradient>
<linearGradient id="paint17_linear" x1="26888.9" y1="40778" x2="27132.4" y2="40624" gradientUnits="userSpaceOnUse">
<stop stop-color="#2E7BBF"/>
<stop offset="0.71" stop-color="#092D4C"/>
</linearGradient>
<linearGradient id="paint18_linear" x1="26901.9" y1="40792.6" x2="27145.4" y2="40638.6" gradientUnits="userSpaceOnUse">
<stop stop-color="#2E7BBF"/>
<stop offset="0.71" stop-color="#092D4C"/>
</linearGradient>
<linearGradient id="paint19_linear" x1="26932.5" y1="40823.6" x2="27176" y2="40669.6" gradientUnits="userSpaceOnUse">
<stop stop-color="#2E7BBF"/>
<stop offset="0.71" stop-color="#092D4C"/>
</linearGradient>
<linearGradient id="paint20_linear" x1="85.8602" y1="54.8199" x2="90.0203" y2="54.8199" gradientUnits="userSpaceOnUse">
<stop stop-color="#5184C4"/>
<stop offset="1" stop-color="#4776BB"/>
</linearGradient>
<linearGradient id="paint21_linear" x1="21716.7" y1="30545.6" x2="21733.8" y2="30545.6" gradientUnits="userSpaceOnUse">
<stop stop-color="#5184C4"/>
<stop offset="1" stop-color="#4776BB"/>
</linearGradient>
<linearGradient id="paint22_linear" x1="27.1893" y1="35.4698" x2="27.4593" y2="70.82" gradientUnits="userSpaceOnUse">
<stop stop-color="#4FC2EB"/>
<stop offset="0.58" stop-color="#2E76BC"/>
</linearGradient>
<linearGradient id="paint23_linear" x1="70579.8" y1="90480.8" x2="70586.1" y2="90298.2" gradientUnits="userSpaceOnUse">
<stop stop-color="#4FC2EB"/>
<stop offset="0.58" stop-color="#2E76BC"/>
</linearGradient>
<linearGradient id="paint24_linear" x1="26831" y1="23901.4" x2="26839.3" y2="23862.4" gradientUnits="userSpaceOnUse">
<stop stop-color="#4FC2EB"/>
<stop offset="0.58" stop-color="#2E76BC"/>
</linearGradient>
</defs>
</svg>
