<?xml version="1.0" encoding="UTF-8"?>
<svg width="100px" height="100px" viewBox="0 0 100 100" version="1.1" xmlns="http://www.w3.org/2000/svg" xmlns:xlink="http://www.w3.org/1999/xlink">
    <!-- Generator: Sketch 52.3 (67297) - http://www.bohemiancoding.com/sketch -->
    <title>Universal Resource Scheduling for Microsoft Dynamics 365/resource-scheduling-optimization-in-microsoft-dynamics-365-for-field-service</title>
    <desc>Created with Sketch.</desc>
    <defs>
        <rect id="path-1" x="0" y="0" width="96" height="96" rx="48"></rect>
        <filter x="-6.9%" y="-6.9%" width="114.6%" height="114.6%" filterUnits="objectBoundingBox" id="filter-3">
            <feOffset dx="0" dy="2" in="SourceAlpha" result="shadowOffsetOuter1"></feOffset>
            <feColorMatrix values="0 0 0 0 0   0 0 0 0 0   0 0 0 0 0  0 0 0 0.0983072917 0" type="matrix" in="shadowOffsetOuter1" result="shadowMatrixOuter1"></feColorMatrix>
            <feMerge>
                <feMergeNode in="shadowMatrixOuter1"></feMergeNode>
                <feMergeNode in="SourceGraphic"></feMergeNode>
            </feMerge>
        </filter>
    </defs>
    <g id="Badges" stroke="none" stroke-width="1" fill="none" fill-rule="evenodd">
        <g id="Universal-Resource-Scheduling-for-Microsoft-Dynamics-365" transform="translate(-579.000000, -927.000000)">
            <g id="Universal-Resource-Scheduling-for-Microsoft-Dynamics-365/resource-scheduling-optimization-in-microsoft-dynamics-365-for-field-service" transform="translate(579.000000, 927.000000)">
                <g id="Mask" transform="translate(2.000000, 2.000000)">
                    <mask id="mask-2" fill="white">
                        <use xlink:href="#path-1"></use>
                    </mask>
                    <use id="BG" fill="#01B6C3" xlink:href="#path-1"></use>
                    <g id="Group-20" filter="url(#filter-3)" mask="url(#mask-2)">
                        <g transform="translate(19.200000, 19.200000)">
                            <path d="M0,12.6 L0,54 C0,55.98 1.62,57.6 3.6,57.6 L46.8,57.6 L57.6,46.8 L57.6,12.6 L0,12.6" id="Fill-1315" fill="#E1E4E1"></path>
                            <g id="Group" stroke-width="1" fill="none" transform="translate(9.000000, 20.524184)">
                                <path d="M22.5225,5.4 L21.6135,5.4 L21.6135,1.8054 C21.6135,1.8036 21.6135,1.8018 21.6135,1.8 C21.6135,0.8064 20.808,0 19.8135,0 C18.8199,0 18.0153,0.8055 18.0135,1.8 L18.0135,5.4 L17.1135,5.4 C16.1181,5.4 15.3135,6.2064 15.3135,7.2 C15.3135,8.1945 16.1181,9 17.1135,9 C17.1153,9 17.1153,9 17.1171,9 L18.0135,9 L18.0135,25.2 C18.0135,26.1945 18.8199,27 19.8135,27 C20.808,27 21.6135,26.1945 21.6135,25.2 C21.6135,25.1982 21.6135,25.1982 21.6135,25.1964 L21.6135,9 L22.5171,9 C22.5189,9 22.5207,9 22.5225,9 C23.5152,9 24.3225,8.1945 24.3225,7.2 C24.3225,6.2064 23.517,5.4018 22.5225,5.4" id="Fill-82" fill="#546670"></path>
                                <path d="M8.1045,19.8 L7.2045,19.8 L7.2045,1.8054 C7.2045,1.8036 7.2045,1.8018 7.2045,1.8 C7.2045,0.8064 6.399,0 5.4045,0 C4.4109,0 3.6063,0.8055 3.6045,1.8 L3.6045,19.8 L2.6955,19.8 C1.701,19.8 0.8955,20.6064 0.8955,21.6 C0.8955,22.5945 1.701,23.4 2.6955,23.4 C2.6973,23.4 2.6973,23.4 2.6991,23.4 L3.6045,23.4 L3.6045,25.2 C3.6045,26.1945 4.4109,27 5.4045,27 C6.399,27 7.2045,26.1945 7.2045,25.2 C7.2045,25.1982 7.2045,25.1982 7.2045,25.1964 L7.2045,23.4 L8.0991,23.4 C8.1009,23.4 8.1027,23.4 8.1045,23.4 C9.0972,23.4 9.9045,22.5945 9.9045,21.6 C9.9045,20.6064 9.099,19.8018 8.1045,19.8" id="Fill-83" fill="#546670"></path>
                                <path d="M36.9045,13.5 L36.0135,13.5 L36.0135,1.8054 C36.0135,1.8036 36.0135,1.8018 36.0135,1.8 C36.0135,0.8064 35.208,0 34.2135,0 C33.2199,0 32.4153,0.8055 32.4135,1.8 L32.4135,13.5 L31.4955,13.5 C30.501,13.5 29.6955,14.3064 29.6955,15.3 C29.6955,16.2945 30.501,17.1 31.4955,17.1 C31.4973,17.1 31.4973,17.1 31.4991,17.1 L32.4135,17.1 L32.4135,25.2 C32.4135,26.1945 33.2199,27 34.2135,27 C35.208,27 36.0135,26.1945 36.0135,25.2 C36.0135,25.1982 36.0135,25.1982 36.0135,25.1964 L36.0135,17.1 L36.8991,17.1 C36.9009,17.1 36.9027,17.1 36.9045,17.1 C37.8972,17.1 38.7045,16.2945 38.7045,15.3 C38.7045,14.3064 37.899,13.5018 36.9045,13.5" id="Fill-84" fill="#546670"></path>
                                <polygon id="Fill-91" fill-opacity="0.510728034" fill="#1F1F1F" points="3.6045 24.3 7.2045 24.3 7.2045 23.4 3.6045 23.4"></polygon>
                                <polygon id="Fill-92" fill-opacity="0.510728034" fill="#1F1F1F" points="18.0045 9.9 21.6045 9.9 21.6045 9 18.0045 9"></polygon>
                                <polygon id="Fill-93" fill-opacity="0.510728034" fill="#1F1F1F" points="18.0045 5.4 21.6045 5.4 21.6045 4.5 18.0045 4.5"></polygon>
                                <polygon id="Fill-94" fill-opacity="0.510728034" fill="#1F1F1F" points="3.6045 19.8 7.2045 19.8 7.2045 18.9 3.6045 18.9"></polygon>
                                <polygon id="Fill-95" fill-opacity="0.510728034" fill="#1F1F1F" points="32.4045 18 36.0045 18 36.0045 17.1 32.4045 17.1"></polygon>
                                <polygon id="Fill-96" fill-opacity="0.510728034" fill="#1F1F1F" points="32.4045 13.5 36.0045 13.5 36.0045 12.6 32.4045 12.6"></polygon>
                            </g>
                            <path d="M57.6,1.8 C57.6,0.81 56.79,0 55.8,0 L1.8,0 C0.81,0 0,0.81 0,1.8 L0,10.8 L57.6,10.8 L57.6,1.8" id="Fill-1316" fill="#DF5142"></path>
                            <polygon id="Fill-1317" fill="#CAD2D4" points="0 12.6 57.6 12.6 57.6 10.8 0 10.8"></polygon>
                            <path d="M30.6,5.4 C30.6,6.3936 29.7936,7.2 28.8,7.2 C27.8055,7.2 27,6.3936 27,5.4 C27,4.4055 27.8055,3.6 28.8,3.6 C29.7936,3.6 30.6,4.4055 30.6,5.4" id="Fill-1318" fill="#A13834"></path>
                            <path d="M45,5.4 C45,6.3936 44.1936,7.2 43.2,7.2 C42.2055,7.2 41.4,6.3936 41.4,5.4 C41.4,4.4055 42.2055,3.6 43.2,3.6 C44.1936,3.6 45,4.4055 45,5.4" id="Fill-1319" fill="#A13834"></path>
                            <path d="M16.2,5.4 C16.2,6.3936 15.3936,7.2 14.4,7.2 C13.4055,7.2 12.6,6.3936 12.6,5.4 C12.6,4.4055 13.4055,3.6 14.4,3.6 C15.3936,3.6 16.2,4.4055 16.2,5.4" id="Fill-1320" fill="#A13834"></path>
                            <path d="M30.6,14.4 C30.6,15.3936 29.7936,16.2 28.8,16.2 C27.8055,16.2 27,15.3936 27,14.4 C27,13.4055 27.8055,12.6 28.8,12.6 C29.7936,12.6 30.6,13.4055 30.6,14.4" id="Fill-1321" fill="#546670"></path>
                            <path d="M45,14.4 C45,15.3936 44.1936,16.2 43.2,16.2 C42.2055,16.2 41.4,15.3936 41.4,14.4 C41.4,13.4055 42.2055,12.6 43.2,12.6 C44.1936,12.6 45,13.4055 45,14.4" id="Fill-1322" fill="#546670"></path>
                            <path d="M16.2,14.4 C16.2,15.3936 15.3936,16.2 14.4,16.2 C13.4055,16.2 12.6,15.3936 12.6,14.4 C12.6,13.4055 13.4055,12.6 14.4,12.6 C15.3936,12.6 16.2,13.4055 16.2,14.4" id="Fill-1323" fill="#546670"></path>
                            <path d="M43.2,15.3 C42.7023,15.3 42.3,14.8977 42.3,14.4 L42.3,5.4 C42.3,4.9023 42.7023,4.5 43.2,4.5 C43.6977,4.5 44.1,4.9023 44.1,5.4 L44.1,14.4 C44.1,14.8977 43.6977,15.3 43.2,15.3" id="Fill-1324" fill="#AAB0B1"></path>
                            <path d="M28.8,15.3 C28.3023,15.3 27.9,14.8977 27.9,14.4 L27.9,5.4 C27.9,4.9023 28.3023,4.5 28.8,4.5 C29.2977,4.5 29.7,4.9023 29.7,5.4 L29.7,14.4 C29.7,14.8977 29.2977,15.3 28.8,15.3" id="Fill-1325" fill="#AAB0B1"></path>
                            <path d="M14.4,15.3 C13.9023,15.3 13.5,14.8977 13.5,14.4 L13.5,5.4 C13.5,4.9023 13.9023,4.5 14.4,4.5 C14.8977,4.5 15.3,4.9023 15.3,5.4 L15.3,14.4 C15.3,14.8977 14.8977,15.3 14.4,15.3" id="Fill-1326" fill="#AAB0B1"></path>
                            <path d="M46.8,50.4 L46.8,57.6 L57.6,46.8 L50.4,46.8 C48.42,46.8 46.8,48.42 46.8,50.4" id="Fill-1355" fill="#AAB0B1"></path>
                            <polyline id="Fill-1356" fill="#CAD2D4" points="39.6 57.6 46.8 50.4 46.8 57.6 39.6 57.6"></polyline>
                        </g>
                    </g>
                </g>
                <g id="Dynamic-Border" stroke="#1D8E96" stroke-width="4">
                    <rect id="Azure-Border" x="2" y="2" width="96" height="96" rx="48"></rect>
                </g>
            </g>
        </g>
    </g>
</svg>