<svg width="100" height="100" viewBox="0 0 100 100" fill="none" xmlns="http://www.w3.org/2000/svg">
<g clip-path="url(#clip0)">
<path d="M49.6401 96.4481C40.382 96.4481 31.3317 93.7028 23.6339 88.5592C15.936 83.4157 9.93624 76.105 6.3933 67.5516C2.85036 58.9981 1.92337 49.5862 3.72954 40.506C5.53571 31.4257 9.99394 23.085 16.5404 16.5385C23.0869 9.99198 31.4277 5.53376 40.5079 3.72759C49.5882 1.92141 59.0001 2.84841 67.5535 6.39135C76.1069 9.93428 83.4176 15.934 88.5612 23.6319C93.7047 31.3298 96.4501 40.38 96.4501 49.6381C96.4505 55.7854 95.24 61.8726 92.8878 67.5521C90.5355 73.2315 87.0875 78.392 82.7407 82.7388C78.3939 87.0856 73.2335 90.5335 67.554 92.8858C61.8746 95.2381 55.7874 96.4486 49.6401 96.4481V96.4481Z" fill="url(#paint0_linear)"/>
<path fill-rule="evenodd" clip-rule="evenodd" d="M95.54 49.64C95.54 58.7182 92.848 67.5925 87.8045 75.1407C82.7609 82.6889 75.5923 88.572 67.2052 92.0461C58.818 95.5201 49.5891 96.4291 40.6854 94.658C31.7816 92.887 23.603 88.5154 17.1838 82.0962C10.7646 75.677 6.39302 67.4984 4.62196 58.5946C2.85089 49.6909 3.75987 40.462 7.23393 32.0748C10.708 23.6877 16.5911 16.5191 24.1393 11.4755C31.6875 6.43199 40.5618 3.74 49.64 3.74C55.6677 3.73998 61.6363 4.9272 67.2052 7.23388C72.774 9.54057 77.834 12.9215 82.0963 17.1837C86.3585 21.446 89.7394 26.5059 92.0461 32.0748C94.3528 37.6437 95.54 43.6123 95.54 49.64V49.64ZM49.64 3.62732e-07C59.4579 3.62732e-07 69.0553 2.91134 77.2185 8.36585C85.3818 13.8204 91.7442 21.5731 95.5014 30.6436C99.2585 39.7141 100.242 49.6951 98.3262 59.3243C96.4108 68.9535 91.6831 77.7985 84.7408 84.7408C77.7985 91.6831 68.9535 96.4108 59.3243 98.3262C49.6951 100.242 39.7141 99.2585 30.6436 95.5014C21.5731 91.7442 13.8204 85.3818 8.36585 77.2185C2.91134 69.0553 3.62732e-07 59.4579 3.62732e-07 49.64C-0.000787738 43.121 1.28265 36.6656 3.77702 30.6427C6.27138 24.6197 9.9278 19.1471 14.5375 14.5375C19.1471 9.9278 24.6197 6.27138 30.6427 3.77702C36.6656 1.28265 43.121 -0.000787738 49.64 3.62732e-07V3.62732e-07Z" fill="#F2F1F0"/>
<path fill-rule="evenodd" clip-rule="evenodd" d="M92.7296 49.6386C92.7296 58.161 90.2024 66.492 85.4676 73.5781C80.7328 80.6643 74.0031 86.1872 66.1294 89.4486C58.2557 92.71 49.5918 93.5633 41.2331 91.9007C32.8745 90.238 25.1966 86.1341 19.1703 80.1079C13.1441 74.0816 9.04017 66.4037 7.37753 58.0451C5.7149 49.6864 6.56822 41.0225 9.8296 33.1488C13.091 25.2751 18.6139 18.5454 25.7 13.8106C32.7862 9.07581 41.1172 6.54862 49.6396 6.54862C55.2983 6.54828 60.9017 7.6626 66.1298 9.82795C71.3579 11.9933 76.1082 15.1673 80.1096 19.1686C84.1109 23.17 87.2849 27.9203 89.4502 33.1484C91.6156 38.3765 92.7299 43.9799 92.7296 49.6386V49.6386ZM49.6396 2.80862C58.9017 2.80862 67.9558 5.55515 75.6569 10.7009C83.3581 15.8466 89.3604 23.1605 92.9049 31.7176C96.4493 40.2746 97.3767 49.6906 95.5697 58.7747C93.7628 67.8588 89.3027 76.2031 82.7534 82.7524C76.2041 89.3017 67.8598 93.7619 58.7757 95.5688C49.6915 97.3757 40.2756 96.4484 31.7185 92.9039C23.1614 89.3594 15.8476 83.3571 10.7018 75.656C5.5561 67.9548 2.80957 58.9007 2.80957 49.6386C2.81076 37.2189 7.745 25.3082 16.5271 16.5261C25.3091 7.74403 37.2198 2.80979 49.6396 2.80859V2.80862Z" fill="#0078D4"/>
<path d="M49.3667 65.6992V77.0733L49.3745 77.3389H49.6401C53.6987 77.3389 62.2856 73.2911 64.8198 72.0503L65.3706 71.7813L49.3667 65.6992Z" fill="#1F56A3"/>
<path d="M31.1118 58.7617V68.1079C31.1118 69.9751 32.73 71.1108 33.9585 71.8086C34.4058 72.0342 44.981 77.3359 49.6304 77.3359H49.896V65.9004L31.1118 58.7617Z" fill="#1F56A3"/>
<path d="M49.6304 62.9058C48.7761 62.9228 47.9255 62.7875 47.1187 62.5063L31.1118 56.3477V59.3325L49.896 66.4707V62.9058H49.6304Z" fill="#003067"/>
<path d="M52.1382 62.5024C51.3337 62.7854 50.485 62.9224 49.6323 62.9067H49.3667V66.2686L64.7173 72.1026L65.3042 71.8135L65.313 71.8086C67.1704 70.7876 68.1528 69.5078 68.1528 68.1074V56.3438L52.1382 62.5024Z" fill="#003067"/>
<path fill-rule="evenodd" clip-rule="evenodd" d="M51.4705 50.6968C51.4705 51.3628 50.5756 51.9044 49.4737 51.9044C48.37 51.9044 47.4771 51.3629 47.4771 50.6968C47.4771 50.028 48.3701 49.4883 49.4737 49.4883C50.5756 49.4883 51.4705 50.028 51.4705 50.6968Z" fill="#0E171F"/>
<path fill-rule="evenodd" clip-rule="evenodd" d="M71.2495 55.1609V71.7709C71.455 71.7707 71.6521 71.6889 71.7974 71.5436C71.9427 71.3983 72.0244 71.2013 72.0246 70.9957V54.5312L71.2495 55.1609Z" fill="#003067"/>
<path fill-rule="evenodd" clip-rule="evenodd" d="M70.4731 55.7908V70.995C70.4731 71.0969 70.4932 71.1978 70.5322 71.2919C70.5712 71.3861 70.6283 71.4716 70.7004 71.5436C70.7725 71.6156 70.8581 71.6726 70.9523 71.7115C71.0464 71.7504 71.1474 71.7703 71.2492 71.7702V55.1602L70.4731 55.7908Z" fill="#1F56A3"/>
<path fill-rule="evenodd" clip-rule="evenodd" d="M69.3505 74.0781C68.6556 75.3515 68.3089 76.7857 68.3454 78.2358C68.3357 79.316 68.5136 80.3896 68.8714 81.4088H71.2495V74.0781H69.3505Z" fill="#E49306"/>
<path fill-rule="evenodd" clip-rule="evenodd" d="M74.1526 78.2358C74.1889 76.7857 73.8422 75.3516 73.1475 74.0781H71.2495V81.4089H73.6285C73.9856 80.3895 74.163 79.3159 74.1526 78.2358V78.2358Z" fill="#BA7805"/>
<path fill-rule="evenodd" clip-rule="evenodd" d="M71.2495 73.7308H73.1198C73.26 73.4575 73.336 73.1557 73.342 72.8485C73.3416 72.4222 73.2104 72.0062 72.966 71.6567C72.7217 71.3073 72.376 71.0413 71.9757 70.8945H71.2495V73.7308Z" fill="#E49306"/>
<path fill-rule="evenodd" clip-rule="evenodd" d="M71.2497 70.8945H70.5225C70.1224 71.0414 69.7771 71.3075 69.5331 71.657C69.2891 72.0064 69.1582 72.4223 69.1582 72.8485C69.1635 73.1556 69.2389 73.4573 69.3785 73.7308H71.2497V70.8945Z" fill="#F5B400"/>
<path fill-rule="evenodd" clip-rule="evenodd" d="M71.2495 74.0788H73.1475C73.114 74.0213 73.0804 73.9591 73.0441 73.9046C73.0722 73.8479 73.0975 73.7898 73.1197 73.7305H71.2495V74.0788Z" fill="#13202B"/>
<path fill-rule="evenodd" clip-rule="evenodd" d="M71.2506 73.7305H69.3794C69.4081 73.7879 69.4224 73.8501 69.4541 73.9046C69.4186 73.9591 69.3871 74.0213 69.3516 74.0788H71.2506L71.2506 73.7305Z" fill="#1E3346"/>
<path fill-rule="evenodd" clip-rule="evenodd" d="M80.2928 49.9497L52.2301 39.1482C50.5393 38.5912 48.7145 38.5912 47.0237 39.1482L18.959 49.9497C17.541 50.5066 17.541 51.3966 18.959 51.9525L47.0236 62.754C48.7146 63.31 50.5391 63.31 52.2301 62.754L80.2928 51.9525C81.7243 51.3966 81.7243 50.5066 80.2928 49.9497Z" fill="#1F56A3"/>
<path opacity="0.5" d="M52.2299 39.1484H47.0234L28.5405 46.2621C29.407 46.6381 30.3262 46.8784 31.2659 46.9745L31.3645 46.9847L63.8342 47.0507C65.7837 47.0479 67.7087 46.6158 69.4724 45.7852L52.2299 39.1484Z" fill="#003067"/>
<path d="M74.8816 36.1825C74.8982 36.0669 74.9312 35.9513 74.9477 35.8522C75.2575 34.2174 75.2036 32.5345 74.7896 30.9229C74.3757 29.3114 73.612 27.8107 72.5527 26.5276C71.4935 25.2445 70.1646 24.2104 68.6606 23.4987C67.1566 22.7871 65.5144 22.4154 63.8505 22.41C62.9994 22.4071 62.1511 22.5069 61.3239 22.7072C59.6374 20.047 57.1325 18.0065 54.1862 16.8926C51.24 15.7787 48.0116 15.6518 44.987 16.5308C41.9624 17.4099 39.305 19.2475 37.4148 21.7671C35.5245 24.2866 34.5036 27.3519 34.5057 30.5017C34.5057 30.6999 34.5057 30.8981 34.5222 31.0962C33.7666 30.8419 32.9744 30.7136 32.1772 30.7164C30.3423 30.7167 28.5776 31.4224 27.2484 32.6873C25.9191 33.9523 25.1269 35.6798 25.0357 37.5125C24.9445 39.3452 25.5612 41.1429 26.7583 42.5336C27.9554 43.9243 29.6412 44.8017 31.4671 44.9842L63.834 45.0503C65.8486 45.0479 67.8264 44.5099 69.5646 43.4913C71.3028 42.4728 72.7389 41.0103 73.7257 39.2539C73.7753 39.1548 73.8413 39.0558 73.8909 38.9567C74.3281 38.0737 74.6606 37.1426 74.8816 36.1825Z" fill="white"/>
<path d="M49.244 43.5915C56.4727 43.5915 62.3327 37.7315 62.3327 30.5028C62.3327 23.2741 56.4727 17.4141 49.244 17.4141C42.0153 17.4141 36.1553 23.2741 36.1553 30.5028C36.1553 37.7315 42.0153 43.5915 49.244 43.5915Z" fill="white"/>
<path d="M49.2443 32.0658C51.6399 32.0658 53.5819 30.1238 53.5819 27.7282C53.5819 25.3326 51.6399 23.3906 49.2443 23.3906C46.8487 23.3906 44.9067 25.3326 44.9067 27.7282C44.9067 30.1238 46.8487 32.0658 49.2443 32.0658Z" fill="#0078D4"/>
<path d="M55.1288 38.4015C55.4896 38.1198 55.7278 37.7097 55.7936 37.2567C55.8594 36.8036 55.7478 36.3427 55.482 35.97C54.7783 34.9692 53.8443 34.1525 52.7586 33.5886C51.6729 33.0248 50.4675 32.7305 49.2441 32.7305C48.0208 32.7305 46.8154 33.0248 45.7297 33.5887C44.644 34.1525 43.71 34.9693 43.0063 35.97C42.7405 36.3427 42.6289 36.8037 42.6947 37.2567C42.7605 37.7097 42.9987 38.1199 43.3596 38.4015C45.0592 39.6701 47.1233 40.3555 49.2442 40.3555C51.3651 40.3555 53.4291 39.6701 55.1288 38.4015V38.4015Z" fill="#0078D4"/>
</g>
<defs>
<linearGradient id="paint0_linear" x1="47.8697" y1="-15.155" x2="51.8525" y2="130.613" gradientUnits="userSpaceOnUse">
<stop stop-color="#00ABDE"/>
<stop offset="1" stop-color="#007ED8"/>
</linearGradient>
<clipPath id="clip0">
<rect width="99.2799" height="99.28" fill="white"/>
</clipPath>
</defs>
</svg>
