<svg width="160" height="188" viewBox="0 0 160 188" fill="none" xmlns="http://www.w3.org/2000/svg">
<g clip-path="url(#clip0)">
<path d="M79.6779 188C82.7592 187.994 85.7796 187.141 88.4083 185.534L150.384 147.874C153.165 146.11 155.449 143.665 157.019 140.771C158.589 137.876 159.394 134.628 159.356 131.336V56.6207C159.392 53.3283 158.587 50.0812 157.017 47.1871C155.447 44.2929 153.163 41.8476 150.384 40.0829L88.4083 2.4228C85.7749 0.837605 82.7592 0 79.6855 0C76.6118 0 73.5961 0.837605 70.9627 2.4228L8.9876 40.098C6.2045 41.8604 3.91796 44.3048 2.34499 47.1991C0.772021 50.0935 -0.0351786 53.3418 4.1431e-06 56.6358V131.336C-0.0185283 134.119 0.556189 136.874 1.68588 139.418C2.81557 141.962 4.4743 144.236 6.5516 146.089V146.115L70.9627 185.549C73.5884 187.149 76.6032 187.996 79.6779 188V188ZM80.3257 6.95218C82.2776 6.95218 84.7548 8.1651 86.4646 9.20912L147.222 46.4034C150.974 48.6881 153.09 55.2842 153.09 60.0352L152.458 131.336C152.458 136.087 149.259 140.355 145.506 142.64L85.1104 179.021C81.6758 181.109 78.8854 181.109 75.4507 179.021L14.2427 142.549C10.4903 140.265 7.47191 136.072 7.47191 131.336V57.688C7.50442 55.3228 8.11341 53.0013 9.24608 50.9247C10.3787 48.8482 12.0009 47.0792 13.9718 45.7714L74.548 9.20912C76.2577 8.1651 78.3739 6.95218 80.3257 6.95218Z" fill="#F2F1F0"/>
<path fill-rule="evenodd" clip-rule="evenodd" d="M87.5765 10.5337C85.2056 9.0602 82.4697 8.2793 79.6783 8.2793C76.8868 8.2793 74.1509 9.0602 71.7801 10.5337L15.6454 44.8651C13.1193 46.4768 11.047 48.7072 9.625 51.3446C8.203 53.9821 7.47851 56.9392 7.52026 59.9352V128.038C7.48034 131.034 8.20562 133.991 9.62745 136.628C11.0493 139.265 13.1206 141.495 15.6454 143.108L71.7801 177.439C74.1508 178.913 76.8867 179.694 79.6783 179.694C82.4698 179.694 85.2057 178.913 87.5765 177.439L143.711 143.108C146.236 141.496 148.307 139.265 149.729 136.628C151.151 133.991 151.877 131.034 151.837 128.038V59.9352C151.875 56.9397 151.149 53.9839 149.727 51.347C148.305 48.7101 146.234 46.4793 143.711 44.8651L87.5765 10.5337Z" fill="url(#paint0_linear)"/>
<path fill-rule="evenodd" clip-rule="evenodd" d="M79.6783 9.7539C81.3615 9.7539 83.2442 10.6196 85.311 11.8777L143.777 47.4201C145.668 48.6335 147.218 50.3104 148.278 52.2914C149.339 54.2725 149.875 56.4918 149.837 58.7386V129.217C149.875 131.464 149.339 133.683 148.278 135.664C147.218 137.645 145.668 139.322 143.777 140.535L85.312 176.077L85.311 176.078C83.6408 177.217 81.6958 177.888 79.6783 178.021C77.6609 177.888 75.7158 177.217 74.0456 176.078L74.0446 176.077L15.5823 140.537L15.5801 140.536C13.7918 139.572 12.2668 138.185 11.1383 136.496C10.1614 134.893 9.52031 132.678 9.52031 129.217V58.7386C9.48157 56.4919 10.018 54.2726 11.0785 52.2916C12.139 50.3106 13.6885 48.6336 15.5797 47.4202L74.0365 11.8831L74.0406 11.8807C76.1244 10.6277 77.9846 9.7539 79.6783 9.7539ZM87.3908 8.4609L145.855 44.0021C148.333 45.5722 150.368 47.751 151.765 50.3307C153.162 52.9104 153.876 55.8051 153.837 58.7386V129.217C153.876 132.151 153.162 135.045 151.765 137.625C150.368 140.205 148.333 142.384 145.855 143.954L87.3898 179.495C85.0956 181.02 82.4302 181.893 79.6783 182.021C76.9264 181.893 74.261 181.02 71.9667 179.495H71.9658L13.502 143.953L13.4995 143.952C11.1642 142.659 9.18097 140.814 7.72281 138.578C6.12823 135.725 5.36521 132.482 5.52031 129.217V58.7386C5.48125 55.805 6.19436 52.9103 7.59165 50.3305C8.98894 47.7508 11.0238 45.572 13.5022 44.002L71.9667 8.46025L71.9749 8.45537C74.0655 7.19796 76.7734 5.75391 79.6783 5.75391C82.5645 5.75391 85.2816 7.17699 87.3908 8.46085V8.4609Z" fill="#0078D4"/>
<path opacity="0.2" d="M139.887 131.926L80.3369 166.533L20.3979 131.927L79.9479 97.3203L139.887 131.926Z" fill="#003067"/>
<path d="M140.532 120.547L79.81 155.835L18.698 120.552L79.42 85.2637L140.532 120.547Z" fill="#1B93EB"/>
<path d="M140.532 120.547L140.52 124.653L79.798 159.941L79.81 155.835L140.532 120.547Z" fill="#1F56A3"/>
<path d="M79.81 155.834L79.798 159.94L18.686 124.657L18.698 120.551L79.81 155.834Z" fill="#0078D4"/>
<path d="M76.6463 95.5891C76.7972 95.6402 76.9285 95.737 77.0217 95.8662C77.115 95.9954 77.1656 96.1505 77.1665 96.3099C77.1674 96.4692 77.1185 96.6249 77.0267 96.7551C76.935 96.8854 76.8048 96.9837 76.6544 97.0364C76.267 97.2356 75.8377 97.3398 75.4021 97.3405C74.9664 97.3412 74.5368 97.2384 74.1487 97.0405C73.4406 96.6317 73.4371 95.9939 74.1336 95.5892C74.5226 95.3906 74.9531 95.2871 75.3899 95.2871C75.8267 95.2871 76.2572 95.3906 76.6463 95.5891V95.5891Z" fill="#50E6FF"/>
<path d="M123.041 120.728C123.128 120.758 123.203 120.814 123.257 120.888C123.31 120.962 123.339 121.052 123.34 121.143C123.34 121.235 123.312 121.325 123.26 121.4C123.207 121.475 123.132 121.531 123.046 121.562L118.635 124.125L69.129 95.5434L73.2166 93.168L73.5402 92.9799C73.7631 92.866 74.0098 92.8066 74.2601 92.8066C74.5104 92.8066 74.7572 92.866 74.9801 92.9799L123.041 120.728ZM74.1488 97.0398C74.5369 97.2376 74.9664 97.3405 75.4021 97.3398C75.8377 97.339 76.267 97.2348 76.6545 97.0357C76.8048 96.9829 76.935 96.8846 77.0268 96.7543C77.1185 96.6241 77.1674 96.4684 77.1665 96.3091C77.1656 96.1498 77.115 95.9947 77.0217 95.8655C76.9285 95.7363 76.7972 95.6394 76.6463 95.5883C76.2573 95.3898 75.8267 95.2863 75.3899 95.2863C74.9532 95.2863 74.5226 95.3898 74.1336 95.5883C73.4371 95.9931 73.4406 96.6309 74.1488 97.0397" fill="#0078D4"/>
<path d="M123.046 121.563L118.635 124.126L118.627 126.838L123.038 124.275C123.119 124.238 123.189 124.18 123.241 124.108C123.293 124.035 123.324 123.95 123.332 123.861L123.34 121.148C123.332 121.237 123.3 121.322 123.249 121.395C123.197 121.468 123.127 121.526 123.046 121.563V121.563Z" fill="#1F56A3"/>
<path d="M85.7867 143.214C85.4956 143.361 85.174 143.438 84.8479 143.438C84.5217 143.438 84.2001 143.361 83.9091 143.214L36.287 115.719C36.1792 115.671 36.0862 115.595 36.0177 115.499C35.9492 115.402 35.9078 115.29 35.8976 115.172L35.8898 117.884C35.9 118.002 35.9415 118.115 36.01 118.211C36.0785 118.307 36.1715 118.383 36.2793 118.432L83.9015 145.926C84.1926 146.074 84.5142 146.15 84.8403 146.15C85.1664 146.15 85.488 146.074 85.7791 145.926L118.627 126.837L118.635 124.125L85.7867 143.214Z" fill="#E8E8E8"/>
<path d="M69.129 95.543L118.635 124.125L85.7867 143.214C85.4957 143.361 85.1741 143.438 84.8479 143.438C84.5218 143.438 84.2002 143.361 83.9092 143.214L36.287 115.72C36.1739 115.681 36.0757 115.608 36.0059 115.511C35.9361 115.414 35.8983 115.298 35.8976 115.178C35.8969 115.058 35.9335 114.942 36.0022 114.844C36.0709 114.746 36.1683 114.672 36.281 114.632L69.129 95.543Z" fill="#F2F2F2"/>
<path d="M42.1965 115.667C42.0922 115.632 42.0018 115.564 41.9377 115.474C41.8736 115.385 41.839 115.277 41.8389 115.167C41.8387 115.056 41.8729 114.949 41.9368 114.859C42.0006 114.769 42.0909 114.701 42.1951 114.665L68.2696 99.5127C68.5376 99.3764 68.8339 99.3051 69.1346 99.3047C69.4353 99.3043 69.7318 99.3747 70.0002 99.5102L111.783 123.634C111.887 123.67 111.978 123.737 112.042 123.827C112.106 123.917 112.14 124.024 112.14 124.134C112.141 124.245 112.106 124.352 112.043 124.442C111.979 124.532 111.888 124.6 111.784 124.636L85.7107 139.789C85.4427 139.925 85.1464 139.996 84.8457 139.997C84.545 139.997 84.2485 139.927 83.9801 139.791L42.1965 115.667Z" fill="#E8E8E8"/>
<path d="M76.0781 117.764C76.3465 117.899 76.643 117.97 76.9437 117.969C77.2444 117.969 77.5407 117.898 77.8088 117.761L86.8123 112.529C86.9165 112.493 87.0068 112.425 87.0706 112.335C87.1345 112.245 87.1687 112.138 87.1686 112.027C87.1684 111.917 87.1339 111.81 87.0698 111.72C87.0057 111.63 86.9152 111.563 86.8109 111.527L70.0032 101.823C69.7348 101.687 69.4382 101.617 69.1375 101.617C68.8369 101.618 68.5405 101.689 68.2725 101.825L59.2686 107.057C59.1644 107.094 59.0741 107.161 59.0103 107.251C58.9464 107.341 58.9122 107.449 58.9124 107.559C58.9125 107.669 58.947 107.777 59.0111 107.867C59.0752 107.956 59.1657 108.024 59.27 108.06L76.0781 117.764Z" fill="white"/>
<path d="M78.8065 118.337C78.7024 118.373 78.6121 118.441 78.5482 118.531C78.4844 118.621 78.4502 118.728 78.4503 118.838C78.4505 118.949 78.485 119.056 78.5491 119.146C78.6132 119.236 78.7037 119.303 78.808 119.339L97.06 129.877C97.3284 130.012 97.6249 130.083 97.9256 130.082C98.2262 130.082 98.5226 130.011 98.7906 129.874L107.794 124.642C107.898 124.606 107.989 124.538 108.052 124.448C108.116 124.358 108.15 124.251 108.15 124.141C108.15 124.03 108.116 123.923 108.051 123.833C107.987 123.743 107.897 123.676 107.793 123.64L89.5408 113.102C89.2724 112.966 88.9758 112.896 88.6751 112.896C88.3745 112.897 88.0781 112.968 87.8101 113.104L78.8065 118.337Z" fill="white"/>
<path d="M77.811 119.918C77.5426 119.783 77.2461 119.712 76.9454 119.713C76.6447 119.713 76.3484 119.785 76.0804 119.921L65.7238 125.94C65.6196 125.976 65.5293 126.044 65.4655 126.133C65.4016 126.223 65.3674 126.331 65.3676 126.441C65.3677 126.552 65.4022 126.659 65.4663 126.749C65.5304 126.839 65.6209 126.906 65.7252 126.942L83.9771 137.48C84.2455 137.615 84.5421 137.685 84.8427 137.685C85.1434 137.685 85.4397 137.613 85.7078 137.477L96.0645 131.458C96.1686 131.422 96.2589 131.354 96.3228 131.265C96.3866 131.175 96.4209 131.067 96.4207 130.957C96.4206 130.846 96.386 130.739 96.3219 130.649C96.2578 130.559 96.1673 130.492 96.0631 130.456L77.811 119.918Z" fill="white"/>
<path d="M75.0826 119.346C75.1868 119.309 75.2771 119.242 75.3409 119.152C75.4047 119.062 75.439 118.954 75.4388 118.844C75.4387 118.734 75.4041 118.626 75.34 118.536C75.2759 118.447 75.1854 118.379 75.0812 118.343L58.2731 108.639C58.0047 108.504 57.7081 108.433 57.4074 108.434C57.1068 108.434 56.8104 108.505 56.5424 108.642L46.1854 114.66C46.0812 114.696 45.9909 114.764 45.927 114.854C45.8632 114.944 45.8289 115.052 45.8291 115.162C45.8293 115.272 45.8638 115.38 45.9279 115.469C45.992 115.559 46.0825 115.627 46.1868 115.663L62.9953 125.367C63.2637 125.502 63.5603 125.573 63.861 125.572C64.1616 125.572 64.458 125.501 64.726 125.364L75.0826 119.346Z" fill="white"/>
<path d="M83.0337 110.119L84.9282 111.584L84.9045 119.942L86.096 120.63L86.119 112.504L91.1916 116.425L96.6698 118.466L96.6464 126.722L97.8379 127.41L97.862 118.91L99.3589 119.468L99.3367 127.303C99.3351 127.861 98.9461 128.088 98.4657 127.81L83.8768 119.388C83.6236 119.222 83.4132 118.999 83.2628 118.737C83.1124 118.474 83.0263 118.18 83.0116 117.878L83.0337 110.119Z" fill="#50E6FF"/>
<path d="M86.1351 106.723L86.1191 112.505L86.0961 120.668L84.9041 119.98L84.9281 111.584L84.9441 106.035L86.1351 106.723Z" fill="#0078D4"/>
<path d="M84.944 106.036L88.882 103.748L90.074 104.436L86.135 106.724L84.944 106.036Z" fill="#1F56A3"/>
<path d="M91.2362 112.489C91.6138 112.734 91.9279 113.066 92.1528 113.456C92.3778 113.846 92.5072 114.284 92.5306 114.734C92.5283 115.556 91.946 115.891 91.2278 115.476C90.8502 115.231 90.5359 114.9 90.3106 114.51C90.0852 114.12 89.9552 113.682 89.931 113.233C89.9334 112.407 90.518 112.074 91.2362 112.489Z" fill="#9CEBFF"/>
<path d="M87.672 107.611L89.63 106.473L96.772 110.597L94.814 111.735L87.672 107.611Z" fill="#1B93EB"/>
<path d="M99.3589 119.468L99.3367 127.304C99.3478 127.412 99.3299 127.522 99.2849 127.622C99.2399 127.721 99.1693 127.807 99.0803 127.871L103.018 125.582C103.107 125.518 103.178 125.433 103.223 125.333C103.268 125.233 103.286 125.124 103.275 125.015L103.297 117.18L99.3589 119.468Z" fill="#0078D4"/>
<path d="M97.877 113.502L97.862 118.911L97.838 127.448L96.646 126.76L96.67 118.467L96.686 112.814L97.877 113.502Z" fill="#0078D4"/>
<path d="M96.686 112.813L100.624 110.525L101.816 111.213L97.877 113.501L96.686 112.813Z" fill="#1F56A3"/>
<path d="M83.0455 105.966L83.0351 109.623L83.0337 110.12L84.9282 111.585L84.9439 106.036L83.9165 105.443C83.436 105.165 83.047 105.401 83.0455 105.966Z" fill="#C3F1FF"/>
<path d="M94.1173 111.331L88.3688 108.012L87.6719 107.61L86.1355 106.723L86.1191 112.504L91.1917 116.425L96.6698 118.466L96.6859 112.814L94.8141 111.733L94.1173 111.331ZM91.2278 115.474C90.8502 115.229 90.5359 114.898 90.3106 114.508C90.0852 114.118 89.9552 113.68 89.931 113.231C89.9334 112.406 90.518 112.072 91.2363 112.487C91.6138 112.733 91.9279 113.064 92.1528 113.454C92.3778 113.844 92.5072 114.282 92.5306 114.732C92.5283 115.554 91.9461 115.889 91.2278 115.474Z" fill="#C3F1FF"/>
<path d="M98.5053 113.864L97.8774 113.502L97.8621 118.91L99.3589 119.468L99.3705 115.39C99.3569 115.086 99.2714 114.789 99.1211 114.524C98.9707 114.258 98.7597 114.032 98.5053 113.864V113.864Z" fill="#C3F1FF"/>
<path d="M87.8546 103.154C87.7675 103.091 87.665 103.052 87.5578 103.042C87.4506 103.032 87.3427 103.05 87.2452 103.096L83.307 105.385C83.4045 105.339 83.5124 105.32 83.6196 105.33C83.7268 105.34 83.8293 105.379 83.9164 105.442L84.9439 106.036L88.8821 103.747L87.8546 103.154Z" fill="#1B93EB"/>
<path d="M98.752 109.446L90.074 104.436L86.135 106.724L87.672 107.611L89.63 106.473L96.772 110.597L94.814 111.735L96.686 112.816L100.624 110.527L98.752 109.446Z" fill="#1B93EB"/>
<path d="M102.443 111.577L101.816 111.215L97.8774 113.503L98.5053 113.866C98.7597 114.034 98.9707 114.26 99.1211 114.525C99.2715 114.79 99.357 115.087 99.3705 115.392L99.359 119.469L101.317 118.332L103.297 117.181L103.309 113.103C103.295 112.799 103.21 112.502 103.059 112.236C102.909 111.971 102.698 111.745 102.443 111.577Z" fill="#1B93EB"/>
<path d="M101.317 118.331L103.297 117.18L101.317 118.331Z" fill="#B3B3B3"/>
<g opacity="0.5">
<path opacity="0.5" d="M87.8547 103.154C87.7676 103.091 87.6651 103.052 87.5579 103.042C87.4507 103.032 87.3427 103.05 87.2453 103.096L85.2651 104.247C85.3626 104.201 85.4705 104.182 85.5777 104.192C85.6849 104.203 85.7873 104.241 85.8745 104.305L86.902 104.898L88.8821 103.747L87.8547 103.154Z" fill="#1F56A3"/>
<path opacity="0.5" d="M98.752 109.446L91.61 105.323L90.074 104.436L88.093 105.586L89.63 106.473L96.772 110.597L98.644 111.678L100.624 110.527L98.752 109.446Z" fill="#1F56A3"/>
</g>
<path opacity="0.5" d="M102.443 111.577L101.816 111.215L99.8354 112.366L100.463 112.728C100.718 112.896 100.929 113.122 101.079 113.387C101.229 113.652 101.315 113.95 101.328 114.254L101.317 118.332L103.297 117.181L103.309 113.103C103.295 112.799 103.21 112.502 103.059 112.236C102.909 111.971 102.698 111.745 102.443 111.577V111.577Z" fill="#1F56A3"/>
<path opacity="0.5" d="M101.317 118.33L101.295 126.166L101.297 126.164L101.296 126.583L103.018 125.582C103.107 125.518 103.178 125.433 103.223 125.333C103.268 125.233 103.286 125.124 103.275 125.015L103.297 117.18L101.317 118.33Z" fill="#1F56A3"/>
<path opacity="0.5" d="M89.723 107.221L95.471 110.54L96.646 109.886L90.772 106.611L89.723 107.221Z" fill="#1F56A3"/>
<path d="M89.727 105.773L90.776 105.164L90.772 106.611L89.723 107.221L89.727 105.773Z" fill="#1F56A3"/>
<path d="M95.3923 108.151C95.6278 108.317 95.8211 108.535 95.9566 108.788C96.092 109.042 96.1658 109.324 96.172 109.612L96.1682 110.943L95.4713 110.54L95.4751 109.209C95.4744 109.178 95.4663 109.147 95.4515 109.119C95.4367 109.091 95.4156 109.066 95.3898 109.048L89.8149 105.829C89.7674 105.802 89.7268 105.83 89.7266 105.89L89.7228 107.221L89.026 106.819L89.0298 105.488C89.0313 104.933 89.3846 104.683 89.8175 104.933L95.3923 108.151Z" fill="#1B93EB"/>
<path d="M96.4412 107.541L90.8664 104.322C90.7908 104.268 90.7019 104.236 90.6093 104.228C90.5167 104.221 90.4238 104.238 90.3404 104.279L89.2914 104.889C89.3748 104.848 89.4677 104.83 89.5603 104.838C89.6529 104.845 89.7418 104.878 89.8174 104.932L95.3922 108.151C95.6277 108.316 95.821 108.534 95.9564 108.788C96.0919 109.041 96.1657 109.323 96.1718 109.611L96.1681 110.942L97.217 110.332L97.2208 109.001C97.2146 108.714 97.1408 108.432 97.0054 108.178C96.87 107.924 96.6767 107.706 96.4412 107.541V107.541Z" fill="#1F56A3"/>
<path d="M98.7677 111.638C98.9013 111.569 99.0492 111.534 99.1992 111.534C99.3492 111.534 99.4971 111.569 99.6306 111.638C99.7112 111.678 99.7726 111.748 99.8013 111.833C99.8327 111.724 99.7759 111.608 99.6306 111.524C99.4971 111.456 99.3492 111.42 99.1992 111.42C99.0492 111.42 98.9013 111.456 98.7677 111.524C98.7088 111.548 98.6598 111.591 98.6292 111.647C98.5986 111.702 98.5882 111.767 98.5998 111.829C98.6287 111.746 98.6889 111.677 98.7677 111.638Z" fill="#003067"/>
<path d="M100.728 111.911L99.4426 112.658C99.3611 112.7 99.2709 112.722 99.1794 112.722C99.0879 112.722 98.9978 112.7 98.9163 112.658L97.6724 111.94C97.6422 111.927 97.6161 111.905 97.5969 111.878C97.5776 111.851 97.566 111.82 97.5631 111.787L97.5623 112.09C97.5651 112.123 97.5768 112.155 97.596 112.182C97.6152 112.209 97.6413 112.23 97.6716 112.244L98.9154 112.962C98.9969 113.003 99.0871 113.025 99.1786 113.025C99.27 113.025 99.3602 113.003 99.4417 112.962L100.153 112.549L100.727 112.215C100.757 112.201 100.784 112.18 100.803 112.153C100.822 112.126 100.834 112.095 100.838 112.061L100.839 111.758C100.835 111.791 100.823 111.822 100.804 111.849C100.785 111.876 100.758 111.898 100.728 111.911V111.911Z" fill="#0078D4"/>
<path d="M100.729 111.605C100.876 111.69 100.874 111.826 100.728 111.911L99.4426 112.658C99.3611 112.7 99.2709 112.722 99.1794 112.722C99.0879 112.722 98.9977 112.7 98.9163 112.658L97.6724 111.94C97.6407 111.929 97.6131 111.909 97.5935 111.882C97.5739 111.854 97.5633 111.822 97.5631 111.788C97.5629 111.755 97.5732 111.722 97.5925 111.695C97.6117 111.667 97.6391 111.646 97.6707 111.635L98.9561 110.888C99.0379 110.846 99.1284 110.824 99.2203 110.824C99.3121 110.824 99.4028 110.845 99.4848 110.887L100.729 111.605ZM98.7705 112.024C98.9042 112.092 99.052 112.127 99.2019 112.127C99.3518 112.127 99.4996 112.092 99.6334 112.024C99.6854 112.006 99.7305 111.972 99.7623 111.927C99.794 111.882 99.811 111.828 99.8107 111.773C99.8103 111.718 99.7928 111.664 99.7605 111.62C99.7282 111.575 99.6828 111.542 99.6306 111.524C99.497 111.456 99.3491 111.42 99.1991 111.42C99.0491 111.42 98.9012 111.456 98.7677 111.524C98.7157 111.542 98.6706 111.576 98.6388 111.621C98.607 111.666 98.5901 111.72 98.5904 111.775C98.5907 111.83 98.6082 111.884 98.6405 111.928C98.6728 111.973 98.7183 112.006 98.7705 112.024" fill="#1B93EB"/>
<path d="M86.9551 104.878C87.0886 104.809 87.2365 104.774 87.3866 104.774C87.5366 104.774 87.6845 104.809 87.818 104.878C87.8986 104.918 87.9599 104.988 87.9887 105.073C88.02 104.964 87.9632 104.848 87.818 104.764C87.6845 104.696 87.5366 104.66 87.3866 104.66C87.2365 104.66 87.0886 104.696 86.9551 104.764C86.8961 104.788 86.8472 104.831 86.8166 104.887C86.786 104.943 86.7756 105.007 86.7872 105.07C86.816 104.986 86.8763 104.917 86.9551 104.878V104.878Z" fill="#003067"/>
<path d="M88.9154 105.151L87.63 105.898C87.5485 105.94 87.4583 105.962 87.3668 105.962C87.2753 105.962 87.1851 105.94 87.1037 105.898L85.8598 105.18C85.8296 105.167 85.8035 105.145 85.7842 105.118C85.765 105.091 85.7534 105.06 85.7505 105.027L85.7496 105.33C85.7525 105.363 85.7642 105.395 85.7834 105.422C85.8026 105.449 85.8287 105.47 85.8589 105.484L87.1028 106.202C87.1843 106.244 87.2744 106.265 87.3659 106.265C87.4574 106.265 87.5476 106.244 87.6291 106.202L88.3402 105.789L88.9145 105.455C88.9448 105.442 88.971 105.42 88.9904 105.393C89.0098 105.366 89.0218 105.335 89.0251 105.302L89.0259 104.998C89.0227 105.031 89.0107 105.063 88.9913 105.09C88.9719 105.117 88.9457 105.138 88.9154 105.151Z" fill="#0078D4"/>
<path d="M88.916 104.845C89.0635 104.93 89.0619 105.066 88.9154 105.151L87.63 105.898C87.5485 105.94 87.4583 105.962 87.3668 105.962C87.2753 105.962 87.1851 105.94 87.1037 105.898L85.8598 105.18C85.8281 105.17 85.8005 105.149 85.7809 105.122C85.7613 105.095 85.7507 105.062 85.7505 105.029C85.7503 104.995 85.7606 104.962 85.7798 104.935C85.7991 104.907 85.8265 104.887 85.8581 104.875L87.1435 104.128C87.2253 104.087 87.3158 104.065 87.4077 104.064C87.4995 104.064 87.5902 104.086 87.6722 104.127L88.916 104.845ZM86.9579 105.264C87.0916 105.332 87.2394 105.367 87.3893 105.367C87.5392 105.367 87.687 105.332 87.8208 105.264C87.8728 105.246 87.9179 105.212 87.9497 105.167C87.9814 105.122 87.9984 105.068 87.998 105.013C87.9977 104.958 87.9802 104.904 87.9479 104.86C87.9156 104.815 87.8702 104.782 87.818 104.764C87.6844 104.696 87.5365 104.66 87.3865 104.66C87.2365 104.66 87.0886 104.696 86.9551 104.764C86.903 104.782 86.858 104.816 86.8262 104.861C86.7944 104.906 86.7775 104.96 86.7778 105.015C86.7781 105.07 86.7956 105.124 86.8279 105.168C86.8602 105.213 86.9056 105.247 86.9579 105.264" fill="#1B93EB"/>
<path opacity="0.2" d="M69.922 109.982C74.2522 112.479 74.2797 116.544 69.982 119.038C65.6802 121.541 58.6625 121.537 54.3392 119.038C50.0098 116.542 49.9811 112.477 54.2882 109.977C58.5788 107.479 65.598 107.482 69.922 109.982Z" fill="#767676"/>
<path d="M74.682 91.9716C74.8522 89.9713 73.6261 87.936 70.9802 86.4084C69.883 85.7875 68.7117 85.3076 67.4942 84.9802C66.817 84.7926 66.1397 84.6051 65.4622 84.4175C65.6742 84.4762 65.8714 84.5554 66.0754 84.6256C63.4768 83.7767 60.676 83.7732 58.0753 84.6156C58.2913 84.5416 58.5009 84.4586 58.726 84.3976L58.6242 84.4251L58.5224 84.4527L58.3188 84.5079L58.1152 84.563L58.0135 84.5906L57.81 84.6458L57.6063 84.7009L57.5047 84.7284L57.3012 84.7835L57.1995 84.8111L56.996 84.8662L56.8943 84.8937L56.6909 84.9488C55.4413 85.2767 54.2397 85.7661 53.1167 86.4048C50.664 87.8302 49.443 89.6959 49.4459 91.5626L49.4445 91.5438L49.4066 104.855C49.4013 106.74 50.6465 108.628 53.1372 110.067C58.0853 112.923 66.0849 112.927 71.0072 110.067C73.4478 108.648 74.6687 106.792 74.674 104.933L74.7117 91.6218C74.7113 91.7385 74.692 91.855 74.682 91.9716ZM67.6314 85.3066C67.2613 85.0969 66.8762 84.915 66.4791 84.7625C66.8762 84.915 67.2613 85.0969 67.6314 85.3067V85.3066ZM57.6602 84.7546C57.2617 84.9079 56.8755 85.0912 56.5049 85.303C56.8755 85.0912 57.2617 84.9079 57.6602 84.7547V84.7546ZM50.676 94.6945C50.7533 94.7888 50.8205 94.8853 50.9049 94.9781C50.8205 94.8853 50.7533 94.7888 50.676 94.6945ZM49.4759 91.936C49.4857 92.0462 49.4867 92.1568 49.505 92.2667C49.4867 92.1567 49.4857 92.0463 49.4759 91.936ZM49.5971 92.6376C49.6251 92.7469 49.6442 92.8568 49.6807 92.9655C49.6441 92.8568 49.6251 92.747 49.5971 92.6376ZM49.8364 93.3354C49.8822 93.4415 49.9186 93.5486 49.9726 93.6536C49.9186 93.5486 49.8822 93.4415 49.8364 93.3354ZM50.1947 94.0214C50.2573 94.123 50.3102 94.2261 50.3807 94.3264C50.3102 94.2262 50.2573 94.1231 50.1947 94.0215V94.0214ZM52.3021 96.1979C52.215 96.1363 52.1422 96.0703 52.0592 96.0074C52.1422 96.0703 52.215 96.1363 52.3021 96.198V96.1979ZM51.5454 95.6036C51.4535 95.5232 51.3781 95.4386 51.2921 95.3567C51.3781 95.4387 51.4535 95.5233 51.5454 95.6037V95.6036ZM72.9014 95.3664C73.031 95.2419 73.1666 95.1189 73.282 94.9911C73.1665 95.119 73.031 95.242 72.9014 95.3665L72.9014 95.3664ZM71.045 96.7556C71.3511 96.5777 71.638 96.3932 71.9057 96.202C71.6379 96.3928 71.351 96.5774 71.045 96.7556ZM72.1568 96.0036C72.3258 95.8744 72.4991 95.7463 72.6513 95.6121C72.499 95.7462 72.3258 95.8743 72.1568 96.0036L72.1568 96.0036ZM74.6542 92.3008C74.6342 92.4243 74.5956 92.5466 74.5649 92.6694C74.5957 92.5466 74.6341 92.4242 74.6542 92.3008L74.6542 92.3008ZM74.4835 92.9941C74.4424 93.1181 74.3827 93.2401 74.3305 93.363C74.3827 93.2401 74.4423 93.1181 74.4835 92.9941L74.4835 92.9941ZM74.1979 93.6772C74.1348 93.8014 74.0526 93.9227 73.9779 94.0452C74.0526 93.9227 74.1348 93.8014 74.1979 93.6772L74.1979 93.6772ZM73.7974 94.3445C73.7096 94.4705 73.6022 94.5927 73.5019 94.7163C73.6022 94.5927 73.7096 94.4705 73.7974 94.3445L73.7974 94.3445Z" fill="#0078D4"/>
<path d="M78.4211 102.775C78.3555 102.775 78.2904 102.762 78.2298 102.737C78.1691 102.712 78.1139 102.675 78.0675 102.629C78.0211 102.582 77.9842 102.527 77.9591 102.466C77.934 102.406 77.9211 102.341 77.9211 102.275V91.0859C77.9211 90.9533 77.9738 90.8262 78.0676 90.7324C78.1614 90.6386 78.2885 90.5859 78.4211 90.5859C78.5538 90.5859 78.6809 90.6386 78.7747 90.7324C78.8685 90.8262 78.9211 90.9533 78.9211 91.0859V102.275C78.9212 102.341 78.9083 102.406 78.8831 102.466C78.858 102.527 78.8212 102.582 78.7748 102.629C78.7283 102.675 78.6732 102.712 78.6125 102.737C78.5518 102.762 78.4868 102.775 78.4211 102.775V102.775Z" fill="#1F56A3"/>
<path opacity="0.2" d="M49.4388 91.6484L49.4122 101.039L59.4553 106.838C60.2889 107.32 61.2347 107.572 62.1972 107.571C63.1597 107.57 64.1048 107.314 64.9369 106.831L74.6793 101.169L74.7062 91.7264L49.4388 91.6484Z" fill="#003067"/>
<path d="M82.4551 90.1725C82.7216 90.262 82.9534 90.4326 83.1182 90.6604C83.2829 90.8881 83.3723 91.1617 83.3739 91.4428C83.3755 91.7239 83.2892 91.9985 83.127 92.2281C82.9648 92.4577 82.735 92.6309 82.4695 92.7234L64.3978 103.225C63.7166 103.572 62.963 103.752 62.1986 103.752C61.4343 103.751 60.681 103.569 60.0003 103.222L41.8105 92.7199C40.591 92.0158 40.5782 90.8768 41.7897 90.1727L59.8614 79.6706C60.5435 79.3235 61.298 79.1426 62.0633 79.1426C62.8287 79.1426 63.5832 79.3235 64.2652 79.6706L82.4551 90.1725Z" fill="url(#paint1_linear)"/>
<path d="M67.2784 88.4566C70.1392 90.106 70.1574 92.7922 67.318 94.4396C65.7173 95.2543 63.9467 95.679 62.1506 95.679C60.3545 95.679 58.5838 95.2543 56.9832 94.4396C54.1228 92.7906 54.1038 90.1049 56.9495 88.4533C58.5496 87.6399 60.3193 87.2162 62.1143 87.2168C63.9093 87.2174 65.6788 87.6422 67.2784 88.4566Z" fill="#50E6FF"/>
<path d="M82.4695 92.7231L64.3979 103.225C63.7167 103.572 62.9631 103.752 62.1988 103.751C61.4345 103.751 60.6812 103.569 60.0005 103.222L41.8105 92.7197C41.5563 92.6068 41.3368 92.4281 41.1747 92.202C41.0126 91.9759 40.9137 91.7106 40.8884 91.4336L40.8838 93.0639C40.9091 93.3409 41.0079 93.6062 41.17 93.8323C41.3321 94.0584 41.5516 94.2371 41.8059 94.35L59.9958 104.852C60.6765 105.2 61.4298 105.381 62.1941 105.382C62.9585 105.382 63.7121 105.202 64.3933 104.856L82.465 94.3535C82.7143 94.2412 82.9293 94.0648 83.0882 93.8423C83.2471 93.6198 83.3441 93.3592 83.3694 93.0869L83.3741 91.4567C83.3488 91.7289 83.2517 91.9896 83.0928 92.212C82.9339 92.4345 82.7188 92.6109 82.4695 92.7231V92.7231Z" fill="#53B1E0"/>
<path d="M80.2145 102.687C80.2145 102.211 80.0255 101.754 79.6891 101.418C79.3527 101.082 78.8964 100.893 78.4206 100.893C77.9448 100.893 77.4886 101.082 77.1521 101.418C76.8157 101.754 76.6267 102.211 76.6267 102.687V104.776H80.2145V102.687Z" fill="#0078D4"/>
<g opacity="0.1">
<path opacity="0.1" d="M69.6635 94.1397C69.8566 94.2058 70.0243 94.3305 70.1431 94.4964C70.262 94.6623 70.3261 94.8612 70.3265 95.0653C70.327 95.2694 70.2637 95.4686 70.1456 95.635C70.0274 95.8014 69.8603 95.9269 69.6675 95.9938C69.1724 96.2446 68.6252 96.3753 68.0702 96.3753C67.5152 96.3753 66.968 96.2446 66.4729 95.9938L54.1057 88.8537C53.9122 88.7889 53.7436 88.6653 53.6236 88.5002C53.5037 88.3351 53.4382 88.1367 53.4363 87.9326C53.4345 87.7285 53.4964 87.5289 53.6134 87.3616C53.7303 87.1944 53.8966 87.0678 54.089 86.9995C54.5858 86.7469 55.1353 86.6152 55.6926 86.6152C56.25 86.6152 56.7995 86.7469 57.2963 86.9995L69.6635 94.1397Z" fill="#003067"/>
</g>
<path d="M74.1157 64.5893C74.1157 64.5893 63.2391 58.2931 60.7373 56.8438V58.8389L73.7252 66.3487C73.8282 66.4083 73.9452 66.4397 74.0642 66.4397C74.1832 66.4398 74.3002 66.4085 74.4033 66.349C74.5064 66.2895 74.592 66.2039 74.6516 66.1009C74.7111 65.9978 74.7425 65.8808 74.7425 65.7618V65.7618C74.7581 65.5273 74.7076 65.2931 74.5969 65.0859C74.4861 64.8786 74.3194 64.7066 74.1157 64.5893V64.5893Z" fill="#CDCDD0"/>
<path d="M60.192 56.5683C59.9988 56.4745 59.7834 56.4359 59.5696 56.4566C59.3558 56.4774 59.1519 56.5567 58.9803 56.6859C58.4763 57.0174 58.0576 57.463 57.7582 57.9866C57.4587 58.5102 57.2869 59.0971 57.2567 59.6995V71.0477L57.2539 71.0461V80.8651C57.2096 81.3866 57.0263 81.8867 56.7232 82.3134C56.4201 82.74 56.0082 83.0776 55.5303 83.2911C55.3569 83.3837 55.1646 83.4354 54.9682 83.4422C54.7717 83.4489 54.5763 83.4107 54.397 83.3303C54.397 83.3303 67.9713 91.1933 68.2873 91.35C68.4749 91.4474 68.6832 91.4983 68.8945 91.4983C69.1059 91.4983 69.3141 91.4474 69.5017 91.35C69.9794 91.1364 70.3912 90.7987 70.6943 90.3721C70.9974 89.9455 71.1807 89.4455 71.2252 88.924V67.7584C71.2644 67.158 71.44 66.5746 71.7387 66.0524C72.0373 65.5301 72.4512 65.0829 72.9487 64.7447C73.1149 64.6378 73.3024 64.5683 73.4981 64.5413C73.6939 64.5142 73.8931 64.5302 74.0821 64.5881C74.0821 64.5881 60.508 56.725 60.192 56.5683Z" fill="white"/>
<path d="M60.5322 70.3505C61.0311 70.675 61.4463 71.1128 61.7439 71.6282C62.0415 72.1437 62.213 72.7221 62.2446 73.3165C62.2416 74.4056 61.4689 74.8417 60.521 74.2945C60.0223 73.9708 59.6071 73.5338 59.3095 73.019C59.0119 72.5043 58.8402 71.9264 58.8086 71.3327C58.8117 70.2435 59.5843 69.8032 60.5322 70.3505ZM61.3158 72.58C61.4013 72.5313 61.4017 72.3781 61.3168 72.2311C61.2805 72.1649 61.2278 72.1092 61.1638 72.0692C61.1423 72.0535 61.117 72.0439 61.0904 72.0415C61.0639 72.0392 61.0372 72.0441 61.0132 72.0558L60.3037 72.4601L60.0491 72.0233L60.0269 71.9807C59.9918 71.915 59.94 71.8597 59.8767 71.8204C59.8547 71.8047 59.829 71.795 59.802 71.7924C59.7751 71.7898 59.748 71.7943 59.7233 71.8054C59.6416 71.852 59.6412 72.0094 59.7223 72.1501L59.7186 72.1522L60.1504 72.8958C60.1863 72.9616 60.2385 73.017 60.302 73.0569C60.3238 73.0724 60.3494 73.082 60.3761 73.0845C60.4028 73.087 60.4297 73.0824 60.454 73.0711L61.3158 72.58" fill="#F2F2F2"/>
<path d="M61.7288 79.5962C62.3986 79.2069 62.3968 77.9539 61.7248 76.7975C61.0527 75.6411 59.9649 75.0192 59.2951 75.4085C58.6253 75.7977 58.6271 77.0507 59.2991 78.2071C59.9712 79.3636 61.059 79.9855 61.7288 79.5962Z" fill="#F2F2F2"/>
<path d="M61.1637 72.0705C61.2277 72.1105 61.2804 72.1662 61.3167 72.2324C61.4016 72.3794 61.4012 72.5326 61.3157 72.5812L60.4539 73.0724C60.4296 73.0836 60.4027 73.0882 60.376 73.0857C60.3493 73.0832 60.3237 73.0737 60.3019 73.0581C60.2384 73.0183 60.1862 72.9629 60.1503 72.8971L59.7185 72.1535L59.7222 72.1514C59.641 72.0107 59.6415 71.8533 59.7232 71.8067C59.7479 71.7956 59.775 71.7911 59.8019 71.7937C59.8288 71.7963 59.8546 71.806 59.8766 71.8217C59.9399 71.861 59.9917 71.9163 60.0268 71.982L60.049 72.0246L60.3036 72.4614L61.0131 72.0571C61.0371 72.0454 61.0637 72.0405 61.0903 72.0428C61.1168 72.0452 61.1422 72.0548 61.1637 72.0705V72.0705Z" fill="white"/>
<path d="M61.1785 66.8928C61.2425 66.9328 61.2951 66.9886 61.3315 67.0547C61.4164 67.1975 61.4159 67.3549 61.3305 67.4036L60.4687 67.8947C60.4439 67.9048 60.417 67.9085 60.3904 67.9055C60.3639 67.9024 60.3385 67.8927 60.3167 67.8772C60.2537 67.8381 60.2016 67.7838 60.1651 67.7194L59.7333 66.9757L59.737 66.9736C59.6558 66.8287 59.6562 66.6756 59.738 66.629C59.7626 66.6178 59.7898 66.6133 59.8167 66.616C59.8436 66.6186 59.8694 66.6283 59.8914 66.644C59.9546 66.6833 60.0064 66.7386 60.0416 66.8042L60.0637 66.8469L60.3184 67.2837L61.0279 66.8793C61.0518 66.8677 61.0785 66.8627 61.1051 66.8651C61.1316 66.8675 61.157 66.8771 61.1785 66.8928Z" fill="white"/>
<path d="M60.5469 65.1735C61.0461 65.4976 61.4616 65.9354 61.7592 66.4509C62.0569 66.9664 62.2282 67.545 62.2593 68.1395C62.2562 69.2287 61.4835 69.6647 60.5357 69.1175C60.0369 68.7938 59.6217 68.3568 59.3241 67.8421C59.0265 67.3273 58.8549 66.7495 58.8232 66.1557C58.8263 65.0623 59.599 64.6262 60.5469 65.1735ZM61.3305 67.403C61.4159 67.3543 61.4164 67.1969 61.3315 67.0541C61.2952 66.988 61.2425 66.9323 61.1785 66.8923C61.157 66.8765 61.1316 66.8669 61.1051 66.8646C61.0785 66.8622 61.0518 66.8671 61.0279 66.8788L60.3184 67.2831L60.0637 66.8463L60.0416 66.8037C60.0064 66.7381 59.9546 66.6828 59.8914 66.6435C59.8694 66.6277 59.8436 66.6181 59.8167 66.6154C59.7898 66.6128 59.7626 66.6173 59.738 66.6285C59.6563 66.675 59.6558 66.8282 59.737 66.9731L59.7333 66.9752L60.1651 67.7188C60.2016 67.7833 60.2538 67.8376 60.3167 67.8767C60.3385 67.8922 60.3639 67.9019 60.3904 67.9049C60.417 67.908 60.4439 67.9043 60.4687 67.8941L61.3305 67.403" fill="#0078D4"/>
<path d="M68.382 76.0773C68.5691 76.199 68.7247 76.3631 68.8363 76.5564C68.9479 76.7497 69.0123 76.9667 69.0241 77.1895C69.023 77.598 68.7332 77.7631 68.3778 77.5579L64.279 75.1914C64.0924 75.07 63.9373 74.9061 63.8263 74.7131C63.7153 74.5201 63.6517 74.3036 63.6405 74.0813C63.6417 73.6729 63.9277 73.5056 64.2831 73.7108L68.382 76.0773Z" fill="#F2F2F2"/>
<path d="M69.0347 73.4863C69.2217 73.608 69.3774 73.7722 69.489 73.9655C69.6006 74.1588 69.6649 74.3757 69.6768 74.5986C69.6756 75.007 69.3859 75.1721 69.0305 74.9669L64.2874 72.2285C64.1008 72.1071 63.9457 71.9432 63.8347 71.7502C63.7238 71.5572 63.6601 71.3407 63.6489 71.1184C63.6501 70.71 63.9361 70.5427 64.2916 70.7479L69.0347 73.4863Z" fill="#F2F2F2"/>
<path d="M69.0431 70.5293C69.2302 70.651 69.3858 70.8152 69.4974 71.0085C69.609 71.2018 69.6734 71.4187 69.6852 71.6416C69.684 72.05 69.3943 72.2151 69.0389 72.0099L64.2958 69.2715C64.1093 69.15 63.9541 68.9861 63.8432 68.7932C63.7322 68.6002 63.6685 68.3837 63.6573 68.1614C63.6585 67.7529 63.9445 67.5857 64.3 67.7909L69.0431 70.5293Z" fill="#F2F2F2"/>
<path d="M69.0179 79.4063C69.205 79.528 69.3607 79.6921 69.4723 79.8854C69.5839 80.0787 69.6482 80.2956 69.6601 80.5185C69.6589 80.927 69.3691 81.0921 69.0137 80.8869L64.2707 78.1484C64.0841 78.027 63.929 77.8631 63.818 77.6701C63.707 77.4772 63.6434 77.2606 63.6322 77.0383C63.6334 76.6299 63.9194 76.4626 64.2749 76.6679L69.0179 79.4063Z" fill="#F2F2F2"/>
<path d="M67.3989 81.4373C67.586 81.559 67.7416 81.7232 67.8532 81.9165C67.9648 82.1098 68.0292 82.3267 68.041 82.5496C68.0399 82.958 67.7501 83.1231 67.3947 82.9179L64.2622 81.1094C64.0757 80.9879 63.9206 80.824 63.8096 80.6311C63.6986 80.4381 63.6349 80.2216 63.6238 79.9993C63.6249 79.5908 63.911 79.4236 64.2664 79.6288L67.3989 81.4373Z" fill="#F2F2F2"/>
<path d="M86.2529 53.5524L83.3232 55.2548C84.6166 54.5032 86.4073 54.6093 88.3812 55.7489C89.2265 56.2443 90.0086 56.8403 90.7105 57.5238L93.64 55.8214C92.9382 55.1378 92.1561 54.5419 91.3109 54.0465C89.337 52.9068 87.5462 52.8008 86.2529 53.5524Z" fill="#E8E8E8"/>
<path d="M122.821 62.7326C122.029 62.2659 121.185 61.8946 120.306 61.6266C117.747 55.4763 113.256 49.8216 108.119 46.8556C104.107 44.5392 100.472 44.3235 97.847 45.8493L94.9174 47.5517C97.5428 46.026 101.177 46.2417 105.189 48.5582C110.327 51.5242 114.818 57.1789 117.377 63.3292C118.256 63.5972 119.1 63.9685 119.891 64.4352C126.098 68.019 131.102 76.7108 131.082 83.8349C131.084 84.6127 131.016 85.389 130.877 86.1543C130.862 86.2637 130.825 86.3689 130.81 86.4952C130.611 87.406 130.277 88.2821 129.819 89.0945C129.767 89.1827 129.701 89.2542 129.649 89.3424C129.174 90.0446 128.548 90.632 127.818 91.0619L130.747 89.3594C131.478 88.9295 132.104 88.3421 132.579 87.64C132.631 87.5516 132.697 87.4802 132.749 87.392C133.206 86.5797 133.54 85.7036 133.739 84.7927C133.755 84.6665 133.792 84.5612 133.806 84.4518C133.945 83.6865 134.014 82.9102 134.011 82.1324C134.031 75.0082 129.028 66.3164 122.821 62.7326Z" fill="#E8E8E8"/>
<path d="M105.189 48.5588C110.327 51.5248 114.818 57.1795 117.377 63.3298C118.256 63.5978 119.1 63.969 119.891 64.4358C126.098 68.0195 131.102 76.7114 131.082 83.8355C131.084 84.6132 131.016 85.3896 130.877 86.1549C130.862 86.2643 130.825 86.3695 130.81 86.4958C130.611 87.4066 130.277 88.2827 129.819 89.0951C129.767 89.1833 129.701 89.2548 129.649 89.343C127.704 92.167 124.017 92.7209 119.803 90.288L87.6316 71.6378C84.0492 69.1562 81.2375 64.0578 81.2496 59.8136C81.2623 55.3 84.4606 53.4858 88.3814 55.7495C89.2266 56.2449 90.0087 56.8409 90.7105 57.5244C90.6965 57.2886 90.6972 57.0697 90.6978 56.8423C90.7239 47.6551 97.2086 43.9512 105.189 48.5588Z" fill="white"/>
<path d="M86.398 128.004C86.4036 126.047 83.6698 124.453 80.292 124.444C76.9142 124.434 74.1715 126.013 74.1659 127.969C74.1604 129.926 76.8941 131.519 80.2719 131.529C83.6497 131.539 86.3925 129.96 86.398 128.004Z" fill="#F2F2F2"/>
<path d="M85.0028 127.264C84.8678 126.113 84.3168 125.052 83.4535 124.279C82.5902 123.506 81.4741 123.076 80.3155 123.068C79.1569 123.061 78.0356 123.478 77.1628 124.24C76.2901 125.002 75.726 126.057 75.5769 127.206C75.5432 127.372 75.5295 127.542 75.5362 127.712C75.6051 128.102 75.7674 128.471 76.0092 128.785C76.251 129.1 76.5652 129.352 76.9251 129.519C77.9651 130.043 79.1135 130.316 80.2782 130.316C81.4429 130.316 82.5914 130.043 83.6313 129.519C83.9896 129.352 84.3017 129.1 84.5406 128.785C84.7796 128.47 84.9382 128.102 85.0028 127.712C85.0318 127.564 85.0318 127.412 85.0028 127.264V127.264Z" fill="url(#paint2_linear)"/>
<path d="M80.2899 122.395C80.85 122.391 81.3966 122.222 81.8607 121.908C82.3248 121.595 82.6856 121.15 82.8976 120.632C83.1096 120.113 83.1633 119.544 83.0519 118.995C82.9405 118.446 82.669 117.942 82.2717 117.547C81.8744 117.152 81.3691 116.884 80.8194 116.776C80.2697 116.668 79.7004 116.725 79.1832 116.94C78.666 117.155 78.2241 117.519 77.9133 117.985C77.6024 118.451 77.4365 118.999 77.4365 119.559C77.437 119.932 77.5113 120.302 77.6551 120.647C77.7989 120.992 78.0094 121.306 78.2744 121.569C78.5395 121.832 78.854 122.041 79.1999 122.183C79.5457 122.324 79.9161 122.396 80.2899 122.395Z" fill="url(#paint3_linear)"/>
</g>
<defs>
<linearGradient id="paint0_linear" x1="79.6785" y1="8.2793" x2="79.6785" y2="179.694" gradientUnits="userSpaceOnUse">
<stop stop-color="#00ABDE"/>
<stop offset="1" stop-color="#007ED8"/>
</linearGradient>
<linearGradient id="paint1_linear" x1="62.1312" y1="103.752" x2="62.1312" y2="79.1425" gradientUnits="userSpaceOnUse">
<stop stop-color="#32BEDD"/>
<stop offset="0.18" stop-color="#32CAEA"/>
<stop offset="0.41" stop-color="#32D2F2"/>
<stop offset="0.78" stop-color="#32D4F5"/>
</linearGradient>
<linearGradient id="paint2_linear" x1="82.0898" y1="130.409" x2="78.1425" y2="123.572" gradientUnits="userSpaceOnUse">
<stop stop-color="#50E6FF"/>
<stop offset="1" stop-color="#C3F1FF"/>
</linearGradient>
<linearGradient id="paint3_linear" x1="81.3545" y1="122.467" x2="77.9229" y2="117.928" gradientUnits="userSpaceOnUse">
<stop stop-color="#50E6FF"/>
<stop offset="1" stop-color="#C3F1FF"/>
</linearGradient>
<clipPath id="clip0">
<rect width="159.356" height="188" fill="white"/>
</clipPath>
</defs>
</svg>
