<svg width="103" height="103" viewBox="0 0 103 103" fill="none" xmlns="http://www.w3.org/2000/svg">
<path d="M51.2497 98.5724C25.3997 98.5724 4.4397 77.6224 4.4397 51.7624C4.4397 25.9024 25.3997 4.95239 51.2497 4.95239C77.0997 4.95239 98.0597 25.9124 98.0597 51.7624C98.0597 77.6124 77.0997 98.5724 51.2497 98.5724Z" fill="url(#paint0_linear)"/>
<path fill-rule="evenodd" clip-rule="evenodd" d="M97.1499 51.7624C97.1499 77.1124 76.5999 97.6624 51.2499 97.6624C25.8999 97.6624 5.34986 77.1124 5.34986 51.7624C5.34986 26.4124 25.8999 5.86244 51.2499 5.86244C76.5999 5.86244 97.1499 26.4124 97.1499 51.7624ZM51.2499 2.12244C78.6699 2.12244 100.89 24.3424 100.89 51.7624C100.89 79.1824 78.6599 101.402 51.2499 101.402C23.8299 101.402 1.60986 79.1724 1.60986 51.7624C1.60986 24.3424 23.8299 2.12244 51.2499 2.12244Z" fill="#F2F1F0"/>
<path fill-rule="evenodd" clip-rule="evenodd" d="M94.3397 51.7625C94.3397 75.5625 75.0497 94.8525 51.2497 94.8525C27.4497 94.8525 8.15968 75.5625 8.15968 51.7625C8.15968 27.9625 27.4497 8.67249 51.2497 8.67249C75.0497 8.67249 94.3397 27.9625 94.3397 51.7625ZM51.2497 4.9325C77.1097 4.9325 98.0797 25.9025 98.0797 51.7625C98.0797 77.6225 77.1097 98.5925 51.2497 98.5925C25.3897 98.5925 4.41968 77.6225 4.41968 51.7625C4.41968 25.9025 25.3797 4.9325 51.2497 4.9325Z" fill="url(#paint1_linear)"/>
<path d="M82.9999 57.3824H66.6499V58.1324H82.9999V57.3824Z" fill="white"/>
<path d="M82.9999 45.5125H66.6499V46.2625H82.9999V45.5125Z" fill="white"/>
<path d="M83 70.0024H66.65C66.44 70.0024 66.27 69.8324 66.27 69.6224V33.9924C66.27 33.7824 66.44 33.6124 66.65 33.6124H83V34.3624H67.03V69.2524H83V70.0024Z" fill="white"/>
<path opacity="0.15" d="M84.0499 29.8424H72.2399C71.5199 29.8424 70.9399 30.4224 70.9399 31.1424V38.3724C70.9399 39.0924 71.5199 39.6724 72.2399 39.6724H84.0599C84.7799 39.6824 85.3599 39.1024 85.3599 38.3724V31.1524C85.3599 30.4124 84.7799 29.8424 84.0499 29.8424Z" fill="#1F1D20"/>
<path opacity="0.15" d="M84.0499 53.9025H72.2399C71.5199 53.9025 70.9399 54.4825 70.9399 55.2025V62.4425C70.9399 63.1625 71.5199 63.7425 72.2399 63.7425H84.0599C84.7799 63.7425 85.3599 63.1625 85.3599 62.4425V55.2225C85.3599 54.4925 84.7799 53.9025 84.0499 53.9025Z" fill="#1F1D20"/>
<path opacity="0.15" d="M84.0499 41.8524H72.2399C71.5199 41.8524 70.9399 42.4324 70.9399 43.1524V50.3824C70.9399 51.1024 71.5199 51.6824 72.2399 51.6824H84.0599C84.7799 51.6924 85.3599 51.1124 85.3599 50.3824V43.1524C85.3599 42.4324 84.7799 41.8524 84.0499 41.8524Z" fill="#1F1D20"/>
<path opacity="0.15" d="M84.0499 65.9125H72.2399C71.5199 65.9125 70.9399 66.4925 70.9399 67.2125V74.4525C70.9399 75.1725 71.5199 75.7525 72.2399 75.7525H84.0599C84.7799 75.7525 85.3599 75.1725 85.3599 74.4525V67.2225C85.3599 66.5125 84.7799 65.9125 84.0499 65.9125Z" fill="#1F1D20"/>
<path d="M84.0499 28.7625H72.2399C71.5199 28.7625 70.9399 29.3425 70.9399 30.0625V37.2924C70.9399 38.0124 71.5199 38.5925 72.2399 38.5925H84.0599C84.7799 38.6025 85.3599 38.0224 85.3599 37.2924V30.0725C85.3599 29.3425 84.7799 28.7625 84.0499 28.7625Z" fill="#84ECFD"/>
<path d="M84.0499 52.8324H72.2399C71.5199 52.8324 70.9399 53.4124 70.9399 54.1324V61.3724C70.9399 62.0924 71.5199 62.6724 72.2399 62.6724H84.0599C84.7799 62.6724 85.3599 62.0924 85.3599 61.3724V54.1524C85.3599 53.4124 84.7799 52.8324 84.0499 52.8324Z" fill="#45CAF2"/>
<path d="M84.0499 40.7825H72.2399C71.5199 40.7825 70.9399 41.3625 70.9399 42.0825V49.3125C70.9399 50.0325 71.5199 50.6125 72.2399 50.6125H84.0599C84.7799 50.6225 85.3599 50.0425 85.3599 49.3125V42.0825C85.3599 41.3625 84.7799 40.7825 84.0499 40.7825Z" fill="#50E6FF"/>
<path d="M84.0499 64.8524H72.2399C71.5199 64.8524 70.9399 65.4324 70.9399 66.1524V73.3924C70.9399 74.1124 71.5199 74.6924 72.2399 74.6924H84.0599C84.7799 74.6924 85.3599 74.1124 85.3599 73.3924V66.1624C85.3599 65.4424 84.7799 64.8524 84.0499 64.8524Z" fill="#32B0E7"/>
<path d="M66.6999 51.7825H54.3999V52.5325H66.6999V51.7825Z" fill="white"/>
<path opacity="0.15" d="M63.3897 49.5024C63.3897 48.9324 62.9197 48.4624 62.3497 48.4624C61.9797 48.4624 59.6397 48.2524 58.3897 47.2824C58.3897 47.2824 58.3997 47.2724 58.3897 47.2824C57.9197 45.5524 57.2197 43.9424 56.3697 42.4124C56.1497 40.9624 57.6497 39.9124 58.3397 38.7724C58.4597 38.5724 58.5297 38.4624 58.5697 38.3824C58.6997 38.0124 58.6297 37.5924 58.3397 37.3024C58.3397 37.3024 57.1897 35.6524 56.0097 34.4824C54.8297 33.3124 53.0397 32.0024 53.0397 32.0024C52.6397 31.6024 51.9697 31.6024 51.5697 32.0024C51.2997 32.2624 49.5297 33.7324 47.9297 33.9624C47.9097 33.9624 47.9097 33.9624 47.9097 33.9624C46.4197 33.1224 44.7497 32.4224 43.0797 31.9524H43.0597C41.8797 31.0824 42.1897 29.2824 41.8797 27.9924C41.8797 27.4224 41.4097 26.9524 40.8397 26.9524C40.8397 26.9524 38.8597 26.6024 37.1897 26.6024C35.5197 26.6024 33.3297 26.9524 33.3297 26.9524C32.7597 26.9524 32.2897 27.4224 32.2897 27.9924C32.2897 28.3624 32.0797 30.7024 31.1097 31.9524C29.4497 32.4224 27.7097 33.1524 26.2397 33.9724C24.7897 34.1924 23.7397 32.6924 22.5997 32.0024C22.3997 31.8824 22.2897 31.8124 22.2097 31.7724C21.8397 31.6424 21.4197 31.7124 21.1297 32.0024C21.1297 32.0024 19.4797 33.1524 18.3097 34.3324C17.1397 35.5124 15.8297 37.3024 15.8297 37.3024C15.4297 37.7024 15.4297 38.3724 15.8297 38.7724C16.0897 39.0324 17.5997 40.8424 17.7997 42.4124V42.4224C16.9797 43.8924 16.2597 45.6224 15.7897 47.2824C15.7897 47.2824 15.8097 47.2524 15.7897 47.2824C14.7797 48.5124 13.1197 48.1524 11.8297 48.4624C11.2597 48.4624 10.7897 48.9324 10.7897 49.5024C10.7897 49.5024 10.4397 51.4824 10.4397 53.1524C10.4397 54.8224 10.7897 57.0124 10.7897 57.0124C10.7897 57.5824 11.2597 58.0524 11.8297 58.0524C12.1997 58.0524 14.5397 58.2624 15.7897 59.2324C15.8197 59.2224 15.7997 59.2524 15.7997 59.2524C16.2797 60.9124 16.9697 62.5824 17.7997 64.0524C17.7897 64.0724 17.7997 64.0524 17.8097 64.1024C17.9497 65.6124 16.5297 66.6024 15.8397 67.7424C15.7197 67.9424 15.6497 68.0524 15.6097 68.1324C15.4797 68.5024 15.5497 68.9224 15.8397 69.2124C15.8397 69.2124 16.9897 70.8624 18.1697 72.0324C19.3497 73.2124 21.1397 74.5124 21.1397 74.5124C21.5397 74.9124 22.2097 74.9124 22.6097 74.5124C22.8697 74.2524 24.6797 72.7424 26.2497 72.5424C26.2497 72.5424 26.2397 72.5524 26.2697 72.5524C27.7797 73.3924 29.3497 74.0624 31.0597 74.5224C31.0697 74.5324 31.1197 74.5424 31.1197 74.5424C32.2997 75.4124 31.9897 77.2124 32.2997 78.5024C32.3597 79.0824 32.6797 79.4524 33.3397 79.5424C33.3397 79.5424 35.3197 79.8924 36.9897 79.8924C38.6597 79.8924 40.8497 79.5524 40.8497 79.5524C41.4197 79.4524 41.8897 79.0824 41.8897 78.5124C41.8897 78.1424 42.0997 75.8024 43.0697 74.5524C43.0697 74.5524 43.1097 74.5124 43.1497 74.4824C44.8897 73.9924 46.2097 73.4524 47.7497 72.5724C47.8297 72.5424 47.7397 72.5524 47.9297 72.5224C49.3797 72.3024 50.4297 73.8024 51.5697 74.4924C51.7697 74.6124 51.8797 74.6824 51.9597 74.7224C52.3297 74.8524 52.7497 74.7824 53.0397 74.4924C53.0397 74.4924 54.6897 73.3424 55.8597 72.1624C57.0397 70.9824 58.3397 69.1924 58.3397 69.1924C58.7397 68.7924 58.7397 68.1224 58.3397 67.7224C58.0797 67.4624 56.5697 65.6524 56.3697 64.0824C56.3497 63.9224 56.3597 63.9024 56.3797 63.8524C57.2597 62.3024 57.8097 61.1724 58.2897 59.4124C58.2897 59.4124 58.2697 59.3524 58.3797 59.2024C59.2497 58.0224 61.0497 58.3324 62.3397 58.0224C62.9097 58.0224 63.3797 57.5524 63.3797 56.9824C63.3797 56.9824 63.7297 55.0024 63.7297 53.3324C63.7297 51.6824 63.3897 49.5024 63.3897 49.5024Z" fill="#1F1D20"/>
<path d="M63.3897 48.0824C63.3897 47.5124 62.9197 47.0424 62.3497 47.0424C61.9797 47.0424 59.6397 46.8324 58.3897 45.8624C58.3897 45.8624 58.3997 45.8524 58.3897 45.8624C57.9197 44.1324 57.2197 42.5224 56.3697 40.9924C56.1497 39.5424 57.6497 38.4924 58.3397 37.3524C58.4597 37.1524 58.5297 37.0424 58.5697 36.9624C58.6997 36.5924 58.6297 36.1724 58.3397 35.8824C58.3397 35.8824 57.1897 34.2324 56.0097 33.0624C54.8297 31.8924 53.0397 30.5824 53.0397 30.5824C52.6397 30.1824 51.9697 30.1824 51.5697 30.5824C51.2997 30.8424 49.5297 32.3124 47.9297 32.5424C47.9097 32.5424 47.9097 32.5424 47.9097 32.5424C46.4197 31.7024 44.7497 31.0024 43.0797 30.5324H43.0597C41.8797 29.6624 42.1897 27.8624 41.8797 26.5724C41.8797 26.0024 41.4097 25.5324 40.8397 25.5324C40.8397 25.5324 38.8597 25.1824 37.1897 25.1824C35.5197 25.1824 33.3297 25.5324 33.3297 25.5324C32.7597 25.5324 32.2897 26.0024 32.2897 26.5724C32.2897 26.9424 32.0797 29.2824 31.1097 30.5324C29.4497 31.0024 27.7097 31.7324 26.2397 32.5524C24.7897 32.7724 23.7397 31.2724 22.5997 30.5824C22.3997 30.4624 22.2897 30.3924 22.2097 30.3524C21.8397 30.2224 21.4197 30.2924 21.1297 30.5824C21.1297 30.5824 19.4797 31.7324 18.3097 32.9124C17.1397 34.0924 15.8297 35.8824 15.8297 35.8824C15.4297 36.2824 15.4297 36.9524 15.8297 37.3524C16.0897 37.6124 17.5997 39.4224 17.7997 40.9924V41.0024C16.9797 42.4724 16.2597 44.2024 15.7897 45.8624C15.7897 45.8624 15.8097 45.8324 15.7897 45.8624C14.7797 47.0924 13.1197 46.7324 11.8297 47.0424C11.2597 47.0424 10.7897 47.5124 10.7897 48.0824C10.7897 48.0824 10.4397 50.0624 10.4397 51.7324C10.4397 53.4024 10.7897 55.5924 10.7897 55.5924C10.7897 56.1624 11.2597 56.6324 11.8297 56.6324C12.1997 56.6324 14.5397 56.8424 15.7897 57.8124C15.8197 57.8024 15.7997 57.8324 15.7997 57.8324C16.2797 59.4924 16.9697 61.1624 17.7997 62.6324C17.7897 62.6524 17.7997 62.6324 17.8097 62.6824C17.9497 64.1924 16.5297 65.1824 15.8397 66.3224C15.7197 66.5224 15.6497 66.6324 15.6097 66.7124C15.4797 67.0824 15.5497 67.5024 15.8397 67.7924C15.8397 67.7924 16.9897 69.4424 18.1697 70.6124C19.3497 71.7924 21.1397 73.0924 21.1397 73.0924C21.5397 73.4924 22.2097 73.4924 22.6097 73.0924C22.8697 72.8324 24.6797 71.3224 26.2497 71.1224C26.2497 71.1224 26.2397 71.1324 26.2697 71.1324C27.7797 71.9724 29.3497 72.6424 31.0597 73.1024C31.0697 73.1124 31.1197 73.1224 31.1197 73.1224C32.2997 73.9924 31.9897 75.7924 32.2997 77.0824C32.3597 77.6624 32.6797 78.0324 33.3397 78.1224C33.3397 78.1224 35.3197 78.4724 36.9897 78.4724C38.6597 78.4724 40.8497 78.1324 40.8497 78.1324C41.4197 78.0324 41.8897 77.6624 41.8897 77.0924C41.8897 76.7224 42.0997 74.3824 43.0697 73.1324C43.0697 73.1324 43.1097 73.0924 43.1497 73.0624C44.8897 72.5724 46.2097 72.0324 47.7497 71.1524C47.8297 71.1224 47.7397 71.1324 47.9297 71.1024C49.3797 70.8824 50.4297 72.3824 51.5697 73.0724C51.7697 73.1924 51.8797 73.2624 51.9597 73.3024C52.3297 73.4324 52.7497 73.3624 53.0397 73.0724C53.0397 73.0724 54.6897 71.9224 55.8597 70.7424C57.0397 69.5624 58.3397 67.7724 58.3397 67.7724C58.7397 67.3724 58.7397 66.7024 58.3397 66.3024C58.0797 66.0424 56.5697 64.2324 56.3697 62.6624C56.3497 62.5024 56.3597 62.4824 56.3797 62.4324C57.2597 60.8824 57.8097 59.7524 58.2897 57.9924C58.2897 57.9924 58.2697 57.9324 58.3797 57.7824C59.2497 56.6024 61.0497 56.9124 62.3397 56.6024C62.9097 56.6024 63.3797 56.1324 63.3797 55.5624C63.3797 55.5624 63.7297 53.5824 63.7297 51.9124C63.7297 50.2724 63.3897 48.0824 63.3897 48.0824Z" fill="#F2F1F0"/>
<path d="M46.5496 54.2124V51.2924H45.0896V49.1024C45.0896 48.8024 45.0296 48.5124 44.9196 48.2524C44.8096 47.9824 44.6496 47.7524 44.4496 47.5624C44.2496 47.3624 44.0196 47.2124 43.7596 47.0924C43.4896 46.9824 43.2096 46.9224 42.9096 46.9224H37.8096V44.5424C38.0296 44.4124 38.2096 44.2324 38.3396 44.0024C38.4696 43.7724 38.5396 43.5324 38.5396 43.2724C38.5396 43.0624 38.4996 42.8824 38.4296 42.7024C38.3496 42.5324 38.2496 42.3724 38.1196 42.2424C37.9896 42.1124 37.8296 42.0024 37.6596 41.9324C37.4896 41.8524 37.2996 41.8224 37.0896 41.8224C36.8796 41.8224 36.6996 41.8624 36.5196 41.9324C36.3496 42.0124 36.1896 42.1124 36.0596 42.2424C35.9296 42.3724 35.8196 42.5324 35.7496 42.7024C35.6696 42.8724 35.6396 43.0624 35.6396 43.2724C35.6396 43.5324 35.7096 43.7724 35.8396 44.0024C35.9696 44.2324 36.1496 44.4124 36.3696 44.5424V46.9224H31.2696C30.9696 46.9224 30.6796 46.9824 30.4196 47.0924C30.1496 47.2024 29.9196 47.3624 29.7296 47.5624C29.5296 47.7624 29.3796 47.9924 29.2596 48.2524C29.1496 48.5224 29.0896 48.8024 29.0896 49.1024V51.2924H27.6296V54.2124H29.0896V57.8624C29.0896 58.1624 29.1496 58.4524 29.2596 58.7124C29.3696 58.9824 29.5296 59.2124 29.7296 59.4024C29.9296 59.6024 30.1596 59.7524 30.4196 59.8724C30.6896 59.9824 30.9696 60.0424 31.2696 60.0424H34.9196H39.9296H42.9396C43.2396 60.0424 43.5296 59.9824 43.7896 59.8724C44.0596 59.7624 44.2896 59.6024 44.4796 59.4024C44.6796 59.2024 44.8296 58.9724 44.9496 58.7124C45.0596 58.4424 45.1196 58.1624 45.1196 57.8624V54.2124H46.5496Z" fill="url(#paint2_linear)"/>
<path d="M34.7596 52.7024H33.2996V51.2424H34.7596V52.7024Z" fill="#50E6FF"/>
<path d="M40.5896 52.7024H39.1296V51.2424H40.5896V52.7024Z" fill="#50E6FF"/>
<path d="M33.8196 54.3224C34.2396 54.7424 34.7196 55.0624 35.2596 55.2824C35.7996 55.5024 36.3696 55.6224 36.9596 55.6224C37.5496 55.6224 38.1196 55.5124 38.6596 55.2824C39.1996 55.0624 39.6796 54.7424 40.0996 54.3224L41.1296 55.3624C40.5796 55.9124 39.9396 56.3424 39.2196 56.6424C38.4996 56.9424 37.7496 57.0824 36.9696 57.0824C36.1896 57.0824 35.4396 56.9324 34.7196 56.6424C33.9996 56.3424 33.3696 55.9224 32.8096 55.3624L33.8196 54.3224Z" fill="#50E6FF"/>
<path d="M37.0696 67.1024C28.6696 67.1024 21.8296 60.2624 21.8296 51.8624C21.8296 43.4624 28.6696 36.6224 37.0696 36.6224C45.4696 36.6224 52.3096 43.4624 52.3096 51.8624C52.3096 60.2624 45.4696 67.1024 37.0696 67.1024ZM37.0696 37.3724C29.0796 37.3724 22.5796 43.8724 22.5796 51.8624C22.5796 59.8524 29.0796 66.3524 37.0696 66.3524C45.0596 66.3524 51.5596 59.8524 51.5596 51.8624C51.5596 43.8724 45.0596 37.3724 37.0696 37.3724Z" fill="url(#paint3_linear)"/>
<path d="M37.0697 71.5024C26.2397 71.5024 17.4297 62.6924 17.4297 51.8724C17.4297 41.0524 26.2397 32.2424 37.0697 32.2424C47.8997 32.2424 56.6997 41.0524 56.6997 51.8724C56.6997 62.6924 47.8897 71.5024 37.0697 71.5024ZM37.0697 32.9824C26.6597 32.9824 18.1797 41.4524 18.1797 51.8624C18.1797 62.2724 26.6497 70.7424 37.0697 70.7424C47.4797 70.7424 55.9497 62.2724 55.9497 51.8624C55.9497 41.4524 47.4797 32.9824 37.0697 32.9824Z" fill="url(#paint4_linear)"/>
<path d="M37.0698 34.0724C37.9313 34.0724 38.6298 33.374 38.6298 32.5124C38.6298 31.6508 37.9313 30.9524 37.0698 30.9524C36.2082 30.9524 35.5098 31.6508 35.5098 32.5124C35.5098 33.374 36.2082 34.0724 37.0698 34.0724Z" fill="url(#paint5_linear)"/>
<path d="M37.0698 72.7124C37.9313 72.7124 38.6298 72.014 38.6298 71.1524C38.6298 70.2908 37.9313 69.5924 37.0698 69.5924C36.2082 69.5924 35.5098 70.2908 35.5098 71.1524C35.5098 72.014 36.2082 72.7124 37.0698 72.7124Z" fill="url(#paint6_linear)"/>
<path d="M51.9296 53.3923C52.7912 53.3923 53.4896 52.6939 53.4896 51.8323C53.4896 50.9708 52.7912 50.2723 51.9296 50.2723C51.0681 50.2723 50.3696 50.9708 50.3696 51.8323C50.3696 52.6939 51.0681 53.3923 51.9296 53.3923Z" fill="url(#paint7_linear)"/>
<path d="M22.2097 53.3923C23.0712 53.3923 23.7697 52.6939 23.7697 51.8323C23.7697 50.9708 23.0712 50.2723 22.2097 50.2723C21.3481 50.2723 20.6497 50.9708 20.6497 51.8323C20.6497 52.6939 21.3481 53.3923 22.2097 53.3923Z" fill="url(#paint8_linear)"/>
<defs>
<linearGradient id="paint0_linear" x1="49.4798" y1="-13.0272" x2="53.4618" y2="132.743" gradientUnits="userSpaceOnUse">
<stop stop-color="#00ABDE"/>
<stop offset="1" stop-color="#007ED8"/>
</linearGradient>
<linearGradient id="paint1_linear" x1="2.68238" y1="-19.8621" x2="98.2094" y2="121.019" gradientUnits="userSpaceOnUse">
<stop stop-color="#007ED8"/>
<stop offset="0.7065" stop-color="#002D4C"/>
</linearGradient>
<linearGradient id="paint2_linear" x1="19.9573" y1="37.3901" x2="73.91" y2="88.1303" gradientUnits="userSpaceOnUse">
<stop stop-color="#007ED8"/>
<stop offset="0.7065" stop-color="#002D4C"/>
</linearGradient>
<linearGradient id="paint3_linear" x1="21.9158" y1="40.3829" x2="80.404" y2="84.6979" gradientUnits="userSpaceOnUse">
<stop stop-color="#007ED8"/>
<stop offset="0.7065" stop-color="#002D4C"/>
</linearGradient>
<linearGradient id="paint4_linear" x1="20.7651" y1="36.5313" x2="74.7178" y2="87.2714" gradientUnits="userSpaceOnUse">
<stop stop-color="#007ED8"/>
<stop offset="0.7065" stop-color="#002D4C"/>
</linearGradient>
<linearGradient id="paint5_linear" x1="30.4242" y1="26.2607" x2="84.3769" y2="77.0009" gradientUnits="userSpaceOnUse">
<stop stop-color="#007ED8"/>
<stop offset="0.7065" stop-color="#002D4C"/>
</linearGradient>
<linearGradient id="paint6_linear" x1="11.1376" y1="46.7683" x2="65.0903" y2="97.5086" gradientUnits="userSpaceOnUse">
<stop stop-color="#007ED8"/>
<stop offset="0.7065" stop-color="#002D4C"/>
</linearGradient>
<linearGradient id="paint7_linear" x1="27.7543" y1="29.0993" x2="81.7072" y2="79.8395" gradientUnits="userSpaceOnUse">
<stop stop-color="#007ED8"/>
<stop offset="0.7065" stop-color="#002D4C"/>
</linearGradient>
<linearGradient id="paint8_linear" x1="13.8072" y1="43.9296" x2="67.76" y2="94.6697" gradientUnits="userSpaceOnUse">
<stop stop-color="#007ED8"/>
<stop offset="0.7065" stop-color="#002D4C"/>
</linearGradient>
</defs>
</svg>
