<svg width="103" height="103" viewBox="0 0 103 103" fill="none" xmlns="http://www.w3.org/2000/svg">
<path d="M51.4582 99.6984C25.6082 99.6984 4.64819 78.3295 4.64819 51.9523C4.64819 25.5751 25.6082 4.20605 51.4582 4.20605C77.3082 4.20605 98.2682 25.5853 98.2682 51.9523C98.2682 78.3193 77.3082 99.6984 51.4582 99.6984Z" fill="#F9E488"/>
<path fill-rule="evenodd" clip-rule="evenodd" d="M51.4583 0.952148C79.0683 0.952148 101.458 23.7899 101.458 51.9521C101.458 80.1143 79.0683 102.952 51.4583 102.952C23.8483 102.952 1.45825 80.1143 1.45825 51.9521C1.45825 23.7899 23.8483 0.952148 51.4583 0.952148ZM51.4583 98.6273C76.7283 98.6273 97.2183 77.7275 97.2183 51.9521C97.2183 26.1767 76.7283 5.27695 51.4583 5.27695C26.1883 5.27695 5.69825 26.1767 5.69825 51.9521C5.69825 77.7275 26.1883 98.6273 51.4583 98.6273Z" fill="#D9D9D9"/>
<path fill-rule="evenodd" clip-rule="evenodd" d="M97.3584 51.9521C97.3584 77.8091 76.8084 98.7701 51.4584 98.7701C26.1084 98.7701 5.55836 77.8091 5.55836 51.9521C5.55836 26.0951 26.1084 5.13414 51.4584 5.13414C76.8084 5.13414 97.3584 26.0951 97.3584 51.9521ZM51.4584 1.31934C78.8784 1.31934 101.098 23.9837 101.098 51.9521C101.098 79.9205 78.8684 102.585 51.4584 102.585C24.0384 102.585 1.81836 79.9103 1.81836 51.9521C1.81836 23.9837 24.0384 1.31934 51.4584 1.31934Z" fill="#F2F1F0"/>
<path fill-rule="evenodd" clip-rule="evenodd" d="M94.5482 51.9521C94.5482 76.2281 75.2582 95.9039 51.4582 95.9039C27.6582 95.9039 8.36817 76.2281 8.36817 51.9521C8.36817 27.6761 27.6582 8.00035 51.4582 8.00035C75.2582 8.00035 94.5482 27.6761 94.5482 51.9521ZM51.4582 4.18555C77.3182 4.18555 98.2882 25.5749 98.2882 51.9521C98.2882 78.3293 77.3182 99.7187 51.4582 99.7187C25.5982 99.7187 4.62817 78.3293 4.62817 51.9521C4.62817 25.5749 25.5882 4.18555 51.4582 4.18555Z" fill="#F3C900"/>
<path d="M74.4382 47.5713H71.2182V36.3309C71.2782 31.0167 69.2582 25.8861 65.5782 21.9999C61.9582 18.1545 56.8682 15.9717 51.5382 15.9717C46.2082 15.9717 41.1182 18.1545 37.5082 21.9999C33.8182 25.8861 31.7982 31.0167 31.8682 36.3309V47.5815H28.6382C27.8782 47.5101 27.1282 47.7651 26.5982 48.2853C26.0482 48.8055 25.7682 49.5297 25.8182 50.2743V79.4157C25.8182 80.0991 26.0982 80.7621 26.5982 81.2313C27.0982 81.7107 27.7782 81.9555 28.4682 81.9351H74.4382C75.1382 81.9555 75.8082 81.7005 76.3082 81.2211C76.8082 80.7417 77.0882 80.0787 77.0882 79.4055V50.2641C77.1282 49.5501 76.8782 48.8565 76.3682 48.3465C75.8582 47.8365 75.1682 47.5509 74.4382 47.5713ZM61.4082 46.8369H40.4582V36.0351C40.4582 33.2403 41.6482 30.5373 43.7582 28.5381C45.5782 26.6307 48.1882 25.5393 50.9282 25.5393C53.6682 25.5393 56.2782 26.6307 58.0982 28.5381C58.5682 29.0073 58.9982 29.5071 59.3882 30.0375C60.6782 31.7817 61.3882 33.8319 61.4082 35.9535V46.8267V46.8369Z" fill="black"/>
<path d="M74.4382 47.5713H71.2182V36.3309C71.2782 31.0167 69.2582 25.8861 65.5782 21.9999C61.9582 18.1545 56.8682 15.9717 51.5382 15.9717C46.2082 15.9717 41.1182 18.1545 37.5082 21.9999C33.8182 25.8861 31.7982 31.0167 31.8682 36.3309V47.5815H28.6382C27.8782 47.5101 27.1282 47.7651 26.5982 48.2853C26.0482 48.8055 25.7682 49.5297 25.8182 50.2743V79.4157C25.8182 80.0991 26.0982 80.7621 26.5982 81.2313C27.0982 81.7107 27.7782 81.9555 28.4682 81.9351H74.4382C75.1382 81.9555 75.8082 81.7005 76.3082 81.2211C76.8082 80.7417 77.0882 80.0787 77.0882 79.4055V50.2641C77.1282 49.5501 76.8782 48.8565 76.3682 48.3465C75.8582 47.8365 75.1682 47.5509 74.4382 47.5713ZM61.4082 46.8369H40.4582V36.0351C40.4582 33.2403 41.6482 30.5373 43.7582 28.5381C45.5782 26.6307 48.1882 25.5393 50.9282 25.5393C53.6682 25.5393 56.2782 26.6307 58.0982 28.5381C58.5682 29.0073 58.9982 29.5071 59.3882 30.0375C60.6782 31.7817 61.3882 33.8319 61.4082 35.9535V46.8267V46.8369Z" fill="#494949"/>
<path d="M28.5282 46.6836H75.3782C76.0182 46.6836 76.6282 46.9182 77.1082 47.3466L26.7982 81.945C26.2082 81.4554 25.8482 80.7312 25.8182 79.956V49.5192C25.7782 48.7644 26.0382 48.0402 26.5582 47.4894C27.0682 46.959 27.7782 46.6632 28.5282 46.6836Z" fill="#5F5F5F"/>
<path opacity="0.5718" d="M74.3881 46.6836H27.5381C26.8981 46.6836 26.2881 46.9182 25.8081 47.3466L76.1181 81.945C76.7381 81.4758 77.0981 80.7414 77.0981 79.956V49.5192C77.1381 48.7644 76.8781 48.0402 76.3581 47.4894C75.8481 46.959 75.1281 46.6632 74.3881 46.6836Z" fill="#717171"/>
<path d="M59.8582 77.0072H51.8882V52.6904C51.8882 51.8132 52.5882 51.1094 53.4382 51.1094H59.8482C60.7082 51.1094 61.3982 51.8234 61.3982 52.6904V75.416C61.4082 76.2932 60.7082 77.0072 59.8582 77.0072Z" fill="url(#paint0_linear)"/>
<path d="M54.6983 77.0079H46.5283V59.0967C46.5283 58.3317 47.1383 57.7197 47.8783 57.7197H54.6883C55.4383 57.7197 56.0383 58.3419 56.0383 59.0967V75.6207C56.0483 76.3857 55.4383 77.0079 54.6983 77.0079Z" fill="url(#paint1_linear)"/>
<path d="M49.1682 77.0083H43.1782C42.1982 77.0083 41.4082 76.2025 41.4082 75.2131V65.8698C41.4082 64.8702 42.1982 64.0645 43.1782 64.0645H49.1782C50.1582 64.0645 50.9482 64.8702 50.9482 65.8698V75.2131C50.9382 76.2025 50.1482 77.0083 49.1682 77.0083Z" fill="url(#paint2_linear)"/>
<defs>
<linearGradient id="paint0_linear" x1="56.5415" y1="53.4752" x2="56.7523" y2="74.963" gradientUnits="userSpaceOnUse">
<stop offset="0.00753769" stop-color="#E0A310"/>
<stop offset="1" stop-color="#CA810E"/>
</linearGradient>
<linearGradient id="paint1_linear" x1="51.0317" y1="58.47" x2="51.6638" y2="81.1967" gradientUnits="userSpaceOnUse">
<stop offset="0.00753769" stop-color="#F2CC40"/>
<stop offset="1" stop-color="#E7B116"/>
</linearGradient>
<linearGradient id="paint2_linear" x1="45.9515" y1="65.0598" x2="46.5837" y2="79.7283" gradientUnits="userSpaceOnUse">
<stop stop-color="#F8E17B"/>
<stop offset="0.5302" stop-color="#F6D856"/>
<stop offset="1" stop-color="#F6D856"/>
</linearGradient>
</defs>
</svg>
