<?xml version="1.0" encoding="UTF-8"?>
<svg width="100px" height="100px" viewBox="0 0 100 100" version="1.1" xmlns="http://www.w3.org/2000/svg" xmlns:xlink="http://www.w3.org/1999/xlink">
    <!-- Generator: Sketch 52.3 (67297) - http://www.bohemiancoding.com/sketch -->
    <title>Universal Resource Scheduling for Microsoft Dynamics 365/scheduling-crews-facilities-and-resource-pooling-in-microsoft-dynamics-365-for-field-service</title>
    <desc>Created with Sketch.</desc>
    <defs>
        <rect id="path-1" x="0" y="0" width="96" height="96" rx="48"></rect>
        <filter x="-5.8%" y="-8.3%" width="112.6%" height="116.5%" filterUnits="objectBoundingBox" id="filter-3">
            <feOffset dx="0" dy="2" in="SourceAlpha" result="shadowOffsetOuter1"></feOffset>
            <feColorMatrix values="0 0 0 0 0   0 0 0 0 0   0 0 0 0 0  0 0 0 0.104393116 0" type="matrix" in="shadowOffsetOuter1" result="shadowMatrixOuter1"></feColorMatrix>
            <feMerge>
                <feMergeNode in="shadowMatrixOuter1"></feMergeNode>
                <feMergeNode in="SourceGraphic"></feMergeNode>
            </feMerge>
        </filter>
    </defs>
    <g id="Badges" stroke="none" stroke-width="1" fill="none" fill-rule="evenodd">
        <g id="Universal-Resource-Scheduling-for-Microsoft-Dynamics-365" transform="translate(-579.000000, -1127.000000)">
            <g id="Universal-Resource-Scheduling-for-Microsoft-Dynamics-365/scheduling-crews-facilities-and-resource-pooling-in-microsoft-dynamics-365-for-field-service" transform="translate(579.000000, 1127.000000)">
                <g id="Mask" transform="translate(2.000000, 2.000000)">
                    <mask id="mask-2" fill="white">
                        <use xlink:href="#path-1"></use>
                    </mask>
                    <use id="BG" fill="#01B6C3" xlink:href="#path-1"></use>
                    <g id="worker" filter="url(#filter-3)" mask="url(#mask-2)">
                        <g transform="translate(13.350000, 18.680183)">
                            <g id="Group" transform="translate(0.440000, 0.440000)">
                                <path d="M63.58,30.8 C63.58,31.372 63.58,31.9 63.536,32.472 L63.536,44.968 L4.62,44.968 L4.62,31.988 C4.62,31.592 4.576,31.196 4.576,30.8 C4.576,14.52 17.776,1.32 34.056,1.32 C50.38,1.32 63.58,14.52 63.58,30.8 Z" id="Shape" fill="#EFB252" fill-rule="nonzero"></path>
                                <path d="M13.6956699,7.52108894 L13.6956699,7.52108894 C14.5032925,7.52108894 15.158,8.17579641 15.158,8.983419 L15.158,39.4406502 L12.2333399,39.4406502 L12.2333399,8.983419 C12.2333399,8.17579641 12.8880474,7.52108894 13.6956699,7.52108894 Z" id="Rectangle-path" fill="#E1E4E1" fill-rule="nonzero"></path>
                                <path d="M54.1673797,7.52108894 L54.1673797,7.52108894 C54.9750023,7.52108894 55.6297098,8.17579641 55.6297098,8.983419 L55.6297098,39.4406502 L52.7050497,39.4406502 L52.7050497,8.983419 C52.7050497,8.17579641 53.3597571,7.52108894 54.1673797,7.52108894 Z" id="Rectangle-path" fill="#E1E4E1" fill-rule="nonzero"></path>
                                <path d="M21.318,41.756 L4.62311233,41.756 L4.62311233,38.6207407 L15.158,38.6207407 C18.5600741,38.6207407 21.318,35.8628148 21.318,32.4607407 L21.318,4.2069807 C25.173673,2.35655855 29.4939047,1.32 34.056,1.32 C38.6369043,1.32 42.9717944,2.35949691 46.838,4.21484819 L46.838,32.4607407 C46.838,35.8628148 49.5959259,38.6207407 52.998,38.6207407 L63.5559936,38.6207407 L63.5559936,41.756 L46.838,41.756 L46.838,44.968 L21.318,44.968 L21.318,41.756 Z" id="Path" fill="#CC9547" fill-rule="nonzero"></path>
                                <g id="Group-40" transform="translate(23.958000, 0.000000)" fill-rule="nonzero">
                                    <path d="M3.52,0.176 L16.412,0.176 C18.3560423,0.176 19.932,1.75195768 19.932,3.696 L19.932,36.872 L0,36.872 L4.4408921e-16,3.696 C2.06012689e-16,1.75195768 1.57595768,0.176 3.52,0.176 Z" id="Rectangle-path" fill="#E1E4E1"></path>
                                    <path d="M14.52,3.471072 L19.932,3.471072 L19.932,36.872 L0.183105621,36.872 L0.183105621,34.0773627 L5.72,34.0773627 C8.1500529,34.0773627 10.12,32.1074156 10.12,29.6773627 L10.12,7.871072 C10.12,5.4410191 12.0899471,3.471072 14.52,3.471072 Z" id="Rectangle-path" fill="#C5CCCD"></path>
                                    <path d="M6.666,18.26 L13.266,18.26 C14.6146794,18.26 15.708,19.3533206 15.708,20.702 L15.708,20.702 C15.708,22.0506794 14.6146794,23.144 13.266,23.144 L6.666,23.144 C5.31732064,23.144 4.224,22.0506794 4.224,20.702 L4.224,20.702 C4.224,19.3533206 5.31732064,18.26 6.666,18.26 Z" id="Rectangle-path" fill="#F7CB64"></path>
                                </g>
                                <polygon id="Rectangle-path" fill="#CC9547" fill-rule="nonzero" points="4.62 43.868 63.536 43.868 63.536 46.816 4.62 46.816"></polygon>
                                <path d="M68.156,42.592 C68.156,43.516 67.408,44.264 66.484,44.264 L1.716,44.264 C0.792,44.264 0.044,43.516 0.044,42.592 C0.044,41.668 0.792,40.92 1.716,40.92 L66.484,40.92 C67.408,40.92 68.156,41.668 68.156,42.592 Z" id="Shape" fill="#F7CB64" fill-rule="nonzero"></path>
                            </g>
                            <g id="Group-17" transform="translate(20.165855, 14.431798)">
                                <path d="M28.083715,14.355 C28.083715,21.937146 21.937003,28.083 14.355715,28.083 C6.773569,28.083 0.627715,21.937146 0.627715,14.355 C0.627715,6.772854 6.773569,0.627 14.355715,0.627 C21.937003,0.627 28.083715,6.772854 28.083715,14.355" id="Fill-79" fill="#30404D"></path>
                                <path d="M25.795715,14.355 C25.795715,20.673455 20.673455,25.795 14.355715,25.795 C8.03726,25.795 2.915715,20.673455 2.915715,14.355 C2.915715,8.036545 8.03726,2.915 14.355715,2.915 C20.673455,2.915 25.795715,8.036545 25.795715,14.355" id="Fill-79" fill="#F4F4F4"></path>
                                <path d="M14.896255,2.927155 C8.332555,2.625425 2.915715,7.85708 2.915715,14.355 C2.915715,14.59667 2.937165,14.83262 2.951465,15.07 C3.267495,9.97777 6.9047,5.78501 11.72666,4.648875 C13.06943,4.332845 14.355715,5.365305 14.355715,6.74454 L14.355715,25.795 C20.852205,25.795 26.084575,20.378875 25.782845,13.815175 C25.515435,7.989355 20.722075,3.195995 14.896255,2.927155" id="Fill-80" fill="#C5CCCD" opacity="0.591122582"></path>
                                <path d="M14.355715,26.51 C13.961035,26.51 13.640715,26.18968 13.640715,25.795 L13.640715,25.08 C13.640715,24.68532 13.961035,24.365 14.355715,24.365 C14.750395,24.365 15.070715,24.68532 15.070715,25.08 L15.070715,25.795 C15.070715,26.18968 14.750395,26.51 14.355715,26.51" id="Fill-81" fill="#30404D"></path>
                                <path d="M14.355715,4.345 C13.961035,4.345 13.640715,4.02468 13.640715,3.63 L13.640715,2.915 C13.640715,2.52032 13.961035,2.2 14.355715,2.2 C14.750395,2.2 15.070715,2.52032 15.070715,2.915 L15.070715,3.63 C15.070715,4.02468 14.750395,4.345 14.355715,4.345" id="Fill-82" fill="#30404D"></path>
                                <path d="M2.200715,14.355 C2.200715,13.96032 2.521035,13.64 2.915715,13.64 L3.630715,13.64 C4.025395,13.64 4.345715,13.96032 4.345715,14.355 C4.345715,14.74968 4.025395,15.07 3.630715,15.07 L2.915715,15.07 C2.521035,15.07 2.200715,14.74968 2.200715,14.355" id="Fill-83" fill="#30404D"></path>
                                <path d="M24.365715,14.355 C24.365715,13.96032 24.686035,13.64 25.080715,13.64 L25.795715,13.64 C26.190395,13.64 26.510715,13.96032 26.510715,14.355 C26.510715,14.74968 26.190395,15.07 25.795715,15.07 L25.080715,15.07 C24.686035,15.07 24.365715,14.74968 24.365715,14.355" id="Fill-84" fill="#30404D"></path>
                                <path d="M14.355715,15.785 C13.56564,15.785 12.925715,15.14436 12.925715,14.355 C12.925715,14.355 13.56564,6.49 14.355715,6.49 C15.145075,6.49 15.785715,14.355 15.785715,14.355 C15.785715,15.14436 15.145075,15.785 14.355715,15.785" id="Fill-87" fill="#DF5142"></path>
                                <path d="M14.355715,12.925 C14.721795,12.925 15.08716,13.064425 15.366725,13.34399 C15.366725,13.34399 21.64514,20.527595 21.086725,21.08601 C20.529025,21.644425 13.344705,15.36601 13.344705,15.36601 C12.78629,14.807595 12.78629,13.902405 13.344705,13.34399 C13.623555,13.064425 13.989635,12.925 14.355715,12.925" id="Fill-88" fill="#DF5142"></path>
                                <path d="M15.785715,14.355 C15.785715,14.355 15.145075,6.49 14.355715,6.49 L14.355715,15.785 C15.145075,15.785 15.785715,15.14436 15.785715,14.355" id="Fill-94" fill="#C2423D"></path>
                                <path d="M13.344705,15.36601 C13.344705,15.36601 20.529025,21.644425 21.086725,21.08601 L13.344705,13.34399 C12.78629,13.902405 12.78629,14.807595 13.344705,15.36601" id="Fill-95" fill="#C2423D"></path>
                                <path d="M16.500715,14.355 C16.500715,15.53904 15.54047,16.5 14.355715,16.5 C13.17096,16.5 12.210715,15.53904 12.210715,14.355 C12.210715,13.17096 13.17096,12.21 14.355715,12.21 C15.54047,12.21 16.500715,13.17096 16.500715,14.355" id="Fill-96" fill="#30404D"></path>
                                <path d="M15.466825,12.52889 C15.66488,12.8535 15.785715,13.231735 15.785715,13.64 C15.785715,14.82404 14.82547,15.785 13.640715,15.785 C13.23245,15.785 12.854215,15.66488 12.529605,15.46611 C12.905695,16.08387 13.579225,16.5 14.355715,16.5 C15.54047,16.5 16.500715,15.53904 16.500715,14.355 C16.500715,13.579225 16.084585,12.905695 15.466825,12.52889" id="Fill-97" fill="#182A37"></path>
                            </g>
                        </g>
                    </g>
                </g>
                <g id="Dynamic-Border" stroke="#1D8E96" stroke-width="4">
                    <rect id="Azure-Border" x="2" y="2" width="96" height="96" rx="48"></rect>
                </g>
            </g>
        </g>
    </g>
</svg>