<svg width="103" height="103" viewBox="0 0 103 103" fill="none" xmlns="http://www.w3.org/2000/svg">
<path d="M51.6838 98.244C25.8338 98.244 4.87378 77.294 4.87378 51.434C4.87378 25.574 25.8338 4.62402 51.6838 4.62402C77.5338 4.62402 98.4938 25.584 98.4938 51.434C98.4938 77.284 77.5338 98.244 51.6838 98.244Z" fill="url(#paint0_linear)"/>
<path fill-rule="evenodd" clip-rule="evenodd" d="M97.5839 51.4339C97.5839 76.7839 77.0339 97.3339 51.6839 97.3339C26.3339 97.3339 5.78395 76.7839 5.78395 51.4339C5.78395 26.0839 26.3339 5.53395 51.6839 5.53395C77.0339 5.53395 97.5839 26.0839 97.5839 51.4339ZM51.6839 1.79395C79.1039 1.79395 101.324 24.0139 101.324 51.4339C101.324 78.8539 79.0939 101.074 51.6839 101.074C24.2639 101.074 2.04395 78.8439 2.04395 51.4339C2.04395 24.0139 24.2639 1.79395 51.6839 1.79395Z" fill="#F2F1F0"/>
<path fill-rule="evenodd" clip-rule="evenodd" d="M94.7738 51.4335C94.7738 75.2335 75.4838 94.5235 51.6838 94.5235C27.8838 94.5235 8.59376 75.2335 8.59376 51.4335C8.59376 27.6335 27.8838 8.34352 51.6838 8.34352C75.4838 8.34352 94.7738 27.6335 94.7738 51.4335ZM51.6838 4.60352C77.5438 4.60352 98.5138 25.5735 98.5138 51.4335C98.5138 77.2935 77.5438 98.2635 51.6838 98.2635C25.8238 98.2635 4.85376 77.2935 4.85376 51.4335C4.85376 25.5735 25.8138 4.60352 51.6838 4.60352Z" fill="#0078D4"/>
<path opacity="0.15" d="M87.3138 46.824C87.3138 46.054 86.6838 45.414 85.9038 45.414C85.3938 45.414 82.2438 45.134 80.5438 43.814C80.5438 43.814 80.5538 43.794 80.5438 43.814C79.9038 41.484 78.9638 39.304 77.8038 37.234C77.5038 35.274 79.5338 33.844 80.4638 32.314C80.6238 32.044 80.7238 31.894 80.7838 31.784C80.9538 31.284 80.8638 30.714 80.4638 30.324C80.4638 30.324 78.9038 28.094 77.3038 26.504C75.7038 24.914 73.2838 23.144 73.2838 23.144C72.7338 22.594 71.8438 22.594 71.2938 23.144C70.9338 23.494 68.5338 25.474 66.3638 25.794C66.3338 25.794 66.3338 25.794 66.3338 25.794C64.3238 24.654 62.0638 23.714 59.8038 23.074H59.7738C58.1738 21.894 58.5938 19.454 58.1738 17.714C58.1738 16.944 57.5438 16.304 56.7638 16.304C56.7638 16.304 54.0838 15.834 51.8238 15.834C49.5638 15.834 46.6138 16.304 46.6138 16.304C45.8438 16.304 45.2038 16.934 45.2038 17.714C45.2038 18.224 44.9238 21.374 43.6038 23.074C41.3638 23.704 39.0138 24.704 37.0238 25.814C35.0638 26.114 33.6338 24.084 32.1038 23.154C31.8338 22.994 31.6838 22.894 31.5738 22.834C31.0738 22.664 30.5038 22.754 30.1138 23.154C30.1138 23.154 27.8838 24.714 26.2938 26.314C24.7038 27.914 22.9338 30.334 22.9338 30.334C22.3838 30.884 22.3838 31.774 22.9338 32.324C23.2838 32.674 25.3238 35.114 25.5938 37.244V37.264C24.4838 39.254 23.5138 41.594 22.8738 43.834C22.8738 43.834 22.9038 43.794 22.8738 43.834C21.5038 45.494 19.2538 45.014 17.5138 45.434C16.7438 45.434 16.1038 46.064 16.1038 46.844C16.1038 46.844 15.6338 49.524 15.6338 51.784C15.6338 54.044 16.1038 56.994 16.1038 56.994C16.1038 57.764 16.7338 58.404 17.5138 58.404C18.0238 58.404 21.1738 58.684 22.8738 60.004C22.9138 59.984 22.8938 60.034 22.8938 60.034C23.5438 62.284 24.4738 64.534 25.6038 66.514C25.5838 66.544 25.6038 66.514 25.6138 66.584C25.8038 68.634 23.8838 69.974 22.9538 71.504C22.7938 71.774 22.6938 71.924 22.6338 72.034C22.4638 72.534 22.5538 73.104 22.9538 73.494C22.9538 73.494 24.5138 75.724 26.1138 77.314C27.7138 78.914 30.1338 80.674 30.1338 80.674C30.6838 81.224 31.5738 81.224 32.1238 80.674C32.4738 80.324 34.9138 78.284 37.0438 78.014C37.0438 78.014 37.0338 78.024 37.0738 78.034C39.1238 79.174 41.2338 80.074 43.5438 80.704C43.5638 80.714 43.6338 80.734 43.6338 80.734C45.2338 81.914 44.8138 84.354 45.2338 86.094C45.3238 86.874 45.7538 87.374 46.6438 87.504C46.6438 87.504 49.3238 87.974 51.5838 87.974C53.8438 87.974 56.7938 87.514 56.7938 87.514C57.5638 87.384 58.2038 86.884 58.2038 86.104C58.2038 85.594 58.4838 82.444 59.8038 80.744C59.8038 80.744 59.8638 80.694 59.9138 80.644C62.2638 79.984 64.0538 79.254 66.1338 78.064C66.2438 78.024 66.1238 78.034 66.3738 77.994C68.3338 77.694 69.7638 79.724 71.2938 80.654C71.5638 80.814 71.7138 80.914 71.8238 80.974C72.3238 81.144 72.8938 81.054 73.2838 80.654C73.2838 80.654 75.5138 79.094 77.1038 77.494C78.7038 75.894 80.4638 73.474 80.4638 73.474C81.0138 72.924 81.0138 72.034 80.4638 71.484C80.1138 71.134 78.0738 68.694 77.8038 66.564C77.7738 66.344 77.7938 66.314 77.8238 66.254C79.0138 64.164 79.7538 62.634 80.4038 60.254C80.4038 60.254 80.3738 60.174 80.5238 59.974C81.7038 58.374 84.1438 58.794 85.8838 58.374C86.6538 58.374 87.2938 57.744 87.2938 56.964C87.2938 56.964 87.7638 54.284 87.7638 52.024C87.7738 49.784 87.3138 46.824 87.3138 46.824Z" fill="#1F1D20"/>
<path d="M87.3138 45.8738C87.3138 45.1038 86.6838 44.4638 85.9038 44.4638C85.3938 44.4638 82.2438 44.1838 80.5438 42.8638C80.5438 42.8638 80.5538 42.8438 80.5438 42.8638C79.9038 40.5338 78.9638 38.3538 77.8038 36.2838C77.5038 34.3238 79.5338 32.8938 80.4638 31.3638C80.6238 31.0938 80.7238 30.9438 80.7838 30.8338C80.9538 30.3338 80.8638 29.7638 80.4638 29.3738C80.4638 29.3738 78.9038 27.1438 77.3038 25.5538C75.7038 23.9638 73.2838 22.1938 73.2838 22.1938C72.7338 21.6438 71.8438 21.6438 71.2938 22.1938C70.9338 22.5438 68.5338 24.5238 66.3638 24.8438C66.3338 24.8438 66.3338 24.8438 66.3338 24.8438C64.3238 23.7038 62.0638 22.7638 59.8038 22.1238H59.7738C58.1738 20.9438 58.5938 18.5038 58.1738 16.7638C58.1738 15.9938 57.5438 15.3538 56.7638 15.3538C56.7638 15.3538 54.0838 14.8838 51.8238 14.8838C49.5638 14.8838 46.6138 15.3538 46.6138 15.3538C45.8438 15.3538 45.2038 15.9838 45.2038 16.7638C45.2038 17.2738 44.9238 20.4238 43.6038 22.1238C41.3638 22.7538 39.0138 23.7538 37.0238 24.8638C35.0638 25.1638 33.6338 23.1338 32.1038 22.2038C31.8338 22.0438 31.6838 21.9438 31.5738 21.8838C31.0738 21.7138 30.5038 21.8038 30.1138 22.2038C30.1138 22.2038 27.8838 23.7638 26.2938 25.3638C24.7038 26.9638 22.9338 29.3838 22.9338 29.3838C22.3838 29.9338 22.3838 30.8238 22.9338 31.3738C23.2838 31.7238 25.3238 34.1638 25.5938 36.2938V36.3138C24.4838 38.3038 23.5138 40.6438 22.8738 42.8838C22.8738 42.8838 22.9038 42.8438 22.8738 42.8838C21.5038 44.5438 19.2538 44.0638 17.5138 44.4838C16.7438 44.4838 16.1038 45.1138 16.1038 45.8938C16.1038 45.8938 15.6338 48.5738 15.6338 50.8338C15.6338 53.0938 16.1038 56.0438 16.1038 56.0438C16.1038 56.8138 16.7338 57.4538 17.5138 57.4538C18.0238 57.4538 21.1738 57.7338 22.8738 59.0538C22.9138 59.0338 22.8938 59.0838 22.8938 59.0838C23.5438 61.3338 24.4738 63.5838 25.6038 65.5638C25.5838 65.5938 25.6038 65.5638 25.6138 65.6338C25.8038 67.6838 23.8838 69.0238 22.9538 70.5538C22.7938 70.8238 22.6938 70.9738 22.6338 71.0838C22.4638 71.5838 22.5538 72.1538 22.9538 72.5438C22.9538 72.5438 24.5138 74.7738 26.1138 76.3638C27.7138 77.9638 30.1338 79.7238 30.1338 79.7238C30.6838 80.2738 31.5738 80.2738 32.1238 79.7238C32.4738 79.3738 34.9138 77.3338 37.0438 77.0638C37.0438 77.0638 37.0338 77.0738 37.0738 77.0838C39.1238 78.2238 41.2338 79.1238 43.5438 79.7538C43.5638 79.7638 43.6338 79.7838 43.6338 79.7838C45.2338 80.9638 44.8138 83.4038 45.2338 85.1438C45.3238 85.9238 45.7538 86.4238 46.6438 86.5538C46.6438 86.5538 49.3238 87.0238 51.5838 87.0238C53.8438 87.0238 56.7938 86.5638 56.7938 86.5638C57.5638 86.4338 58.2038 85.9338 58.2038 85.1538C58.2038 84.6438 58.4838 81.4938 59.8038 79.7938C59.8038 79.7938 59.8638 79.7438 59.9138 79.6938C62.2638 79.0338 64.0538 78.3038 66.1338 77.1138C66.2438 77.0738 66.1238 77.0838 66.3738 77.0438C68.3338 76.7438 69.7638 78.7738 71.2938 79.7038C71.5638 79.8638 71.7138 79.9638 71.8238 80.0238C72.3238 80.1938 72.8938 80.1038 73.2838 79.7038C73.2838 79.7038 75.5138 78.1438 77.1038 76.5438C78.7038 74.9438 80.4638 72.5238 80.4638 72.5238C81.0138 71.9738 81.0138 71.0838 80.4638 70.5338C80.1138 70.1838 78.0738 67.7438 77.8038 65.6138C77.7738 65.3938 77.7938 65.3638 77.8238 65.3038C79.0138 63.2138 79.7538 61.6838 80.4038 59.3038C80.4038 59.3038 80.3738 59.2238 80.5238 59.0238C81.7038 57.4238 84.1438 57.8438 85.8838 57.4238C86.6538 57.4238 87.2938 56.7938 87.2938 56.0138C87.2938 56.0138 87.7638 53.3338 87.7638 51.0738C87.7738 48.8238 87.3138 45.8738 87.3138 45.8738Z" fill="url(#paint1_linear)"/>
<path d="M51.6839 29.9941C39.8339 29.9941 30.2439 39.5941 30.2439 51.4341C30.2439 55.5041 31.3739 59.3241 33.3539 62.5641V69.4641H40.0839C43.4339 71.6241 47.4139 72.8841 51.6739 72.8841C63.5239 72.8841 73.1139 63.2841 73.1139 51.4441C73.1139 39.6041 63.5339 29.9941 51.6839 29.9941Z" fill="#ED722E"/>
<path d="M51.6839 29.9941C39.8339 29.9941 30.2439 39.5941 30.2439 51.4341C30.2439 55.5041 31.3739 59.3241 33.3539 62.5641L33.0639 69.4641L66.4039 36.1241C62.8239 32.3341 57.5339 29.9941 51.6839 29.9941Z" fill="#FF7736"/>
<path d="M36.7339 63.1736H66.6439V40.1436H36.7339V63.1736Z" fill="#0078D4"/>
<path d="M36.7339 42.8134H66.6339V39.6934H36.7339V42.8134V42.8134Z" fill="#50E6FF"/>
<path d="M41.3938 42.0737C41.8138 42.0737 42.1538 41.7337 42.1538 41.3137C42.1538 40.8937 41.8138 40.5537 41.3938 40.5537C40.9738 40.5537 40.6338 40.8937 40.6338 41.3137C40.6338 41.7337 40.9738 42.0737 41.3938 42.0737Z" fill="#0078D4"/>
<path d="M39.0239 42.0737C39.4439 42.0737 39.7839 41.7337 39.7839 41.3137C39.7839 40.8937 39.4439 40.5537 39.0239 40.5537C38.6039 40.5537 38.2639 40.8937 38.2639 41.3137C38.2639 41.7337 38.6039 42.0737 39.0239 42.0737Z" fill="#0078D4"/>
<path d="M43.8039 42.0737C44.2239 42.0737 44.5639 41.7337 44.5639 41.3137C44.5639 40.8937 44.2239 40.5537 43.8039 40.5537C43.3839 40.5537 43.0439 40.8937 43.0439 41.3137C43.0439 41.7337 43.3839 42.0737 43.8039 42.0737Z" fill="#0078D4"/>
<path d="M53.254 51.4629H50.074V54.6529H53.254V51.4629Z" fill="white"/>
<path d="M56.4339 48.3135L55.3139 49.4335L58.9539 53.0735L55.2739 56.7535L56.3939 57.8735L61.1939 53.0735L56.4339 48.3135Z" fill="white"/>
<path d="M46.7739 57.8735L47.9039 56.7535L44.2639 53.1135L47.9439 49.4335L46.8239 48.3135L42.0139 53.1135L46.7739 57.8735Z" fill="white"/>
<defs>
<linearGradient id="paint0_linear" x1="49.9138" y1="-13.359" x2="53.8968" y2="132.409" gradientUnits="userSpaceOnUse">
<stop stop-color="#00ABDE"/>
<stop offset="1" stop-color="#007ED8"/>
</linearGradient>
<linearGradient id="paint1_linear" x1="54.4428" y1="-72.2898" x2="49.3378" y2="155.732" gradientUnits="userSpaceOnUse">
<stop stop-color="#007ED8"/>
<stop offset="0.7065" stop-color="#002D4C"/>
</linearGradient>
</defs>
</svg>
