<?xml version="1.0" encoding="UTF-8"?>
<svg width="101px" height="101px" viewBox="0 0 101 101" version="1.1" xmlns="http://www.w3.org/2000/svg" xmlns:xlink="http://www.w3.org/1999/xlink">
    <!-- Generator: Sketch 62 (91390) - https://sketch.com -->
    <title>Get started with Power Automate Buttons/Share-Power-Automate-Buttons</title>
    <desc>Created with Sketch.</desc>
    <defs>
        <rect id="path-1" x="0" y="0" width="94.3396226" height="94.3396226" rx="47.1698113"></rect>
        <linearGradient x1="50%" y1="0%" x2="50%" y2="100%" id="linearGradient-3">
            <stop stop-color="#99D3FF" offset="0%"></stop>
            <stop stop-color="#0FA6FF" offset="100%"></stop>
        </linearGradient>
        <rect id="path-4" x="0" y="0" width="100" height="100" rx="50"></rect>
        <filter x="-0.5%" y="-0.5%" width="102.0%" height="102.0%" filterUnits="objectBoundingBox" id="filter-5">
            <feOffset dx="1" dy="1" in="SourceAlpha" result="shadowOffsetOuter1"></feOffset>
            <feMorphology radius="4" operator="erode" in="SourceAlpha" result="shadowInner"></feMorphology>
            <feOffset dx="1" dy="1" in="shadowInner" result="shadowInner"></feOffset>
            <feComposite in="shadowOffsetOuter1" in2="shadowInner" operator="out" result="shadowOffsetOuter1"></feComposite>
            <feColorMatrix values="0 0 0 0 0   0 0 0 0 0   0 0 0 0 0  0 0 0 0.15 0" type="matrix" in="shadowOffsetOuter1"></feColorMatrix>
        </filter>
        <path d="M50,2.83018868 C76.0511674,2.83018868 97.1698113,23.9488326 97.1698113,50 C97.1698113,76.0511674 76.0511674,97.1698113 50,97.1698113 C23.9488326,97.1698113 2.83018868,76.0511674 2.83018868,50 C2.83018868,23.9488326 23.9488326,2.83018868 50,2.83018868 Z M50,6.60377358 C26.032926,6.60377358 6.60377358,26.032926 6.60377358,50 C6.60377358,73.967074 26.032926,93.3962264 50,93.3962264 C73.967074,93.3962264 93.3962264,73.967074 93.3962264,50 C93.3962264,26.032926 73.967074,6.60377358 50,6.60377358 Z" id="path-6"></path>
        <filter x="-7.3%" y="-10.8%" width="114.5%" height="121.6%" filterUnits="objectBoundingBox" id="filter-8">
            <feOffset dx="0" dy="2" in="SourceAlpha" result="shadowOffsetOuter1"></feOffset>
            <feColorMatrix values="0 0 0 0 0   0 0 0 0 0   0 0 0 0 0  0 0 0 0.0964956975 0" type="matrix" in="shadowOffsetOuter1" result="shadowMatrixOuter1"></feColorMatrix>
            <feMerge>
                <feMergeNode in="shadowMatrixOuter1"></feMergeNode>
                <feMergeNode in="SourceGraphic"></feMergeNode>
            </feMerge>
        </filter>
        <path d="M22.7403892,18.4605122 C22.7403892,20.6455275 20.9623399,22.4231805 18.7777209,22.4231805 C16.5927056,22.4231805 14.8150526,20.6455275 14.8150526,18.4605122 C14.8150526,16.2754969 16.5927056,14.4978439 18.7777209,14.4978439 C20.9623399,14.4978439 22.7403892,16.2754969 22.7403892,18.4605122 Z M28.2211557,15.9164792 C28.0701781,15.8831927 27.8351918,15.6692087 27.7880361,15.5217974 C27.7820921,15.5015878 27.774563,15.4817745 27.7662414,15.4623574 L27.2578311,14.2267974 C27.2491132,14.205399 27.2392065,14.1840006 27.2285073,14.1633947 C27.1571793,14.0266827 27.1710486,13.7116505 27.2538684,13.5820713 L28.267519,11.9890786 C28.6974685,11.3134437 28.5904764,10.3406086 28.0246074,9.7743433 L27.4638898,9.21362574 C26.9110976,8.66043724 25.9105238,8.5498788 25.2491545,8.97071417 L23.6557656,9.98396845 C23.6026658,10.0184437 23.4770492,10.0552965 23.3280529,10.0552965 C23.2060027,10.0552965 23.1152576,10.0307279 23.0748384,10.0097258 C23.0546288,9.99863033 23.0328341,9.98911992 23.0110395,9.98040205 L21.7758757,9.47159544 C21.7564587,9.4636701 21.7366453,9.45614104 21.7164357,9.45019703 C21.5694207,9.40304128 21.3550404,9.16805505 21.321754,9.01668112 L20.9124103,7.17443663 C20.7384492,6.39260217 19.974843,5.77997365 19.1739877,5.77997365 L18.3814541,5.77997365 C17.5802025,5.77997365 16.8169926,6.39260217 16.6434278,7.17404036 L16.2336879,9.01747365 C16.2000052,9.16805505 15.9860211,9.40304128 15.8390061,9.45019703 C15.8187965,9.45614104 15.7989831,9.4636701 15.7791698,9.47159544 L14.5440061,9.98040205 C14.5222114,9.98911992 14.500813,9.99863033 14.4802071,10.0097258 C14.4401842,10.0307279 14.3494391,10.0552965 14.2269926,10.0552965 C14.0779963,10.0552965 13.9523797,10.0180474 13.8988837,9.98396845 L12.3062873,8.97111044 C11.644918,8.55027506 10.643948,8.66122977 10.091552,9.214022 L9.53083443,9.7743433 C8.96456913,10.3410049 8.85797336,11.3138399 9.28792287,11.9894749 L10.3015734,13.5820713 C10.3839969,13.7120468 10.3978663,14.0262864 10.3269345,14.1629984 C10.3162353,14.1840006 10.3059324,14.205399 10.2972145,14.2267974 L9.78880414,15.4623574 C9.7808788,15.4817745 9.77334973,15.5015878 9.76700946,15.5217974 C9.71985371,15.6692087 9.48526375,15.8831927 9.33388982,15.9168754 L7.49164533,16.3258228 C6.70981087,16.4997839 6.09718235,17.2629939 6.09718235,18.0642454 L6.09718235,18.856779 C6.09718235,19.6576343 6.70981087,20.4212405 7.49124906,20.5948054 L9.33428609,21.004149 C9.48526375,21.0378317 9.71985371,21.2518158 9.76700946,21.399227 C9.77334973,21.4194366 9.7808788,21.43925 9.78880414,21.458667 L10.2972145,22.694227 C10.3059324,22.7156254 10.315839,22.7366276 10.3269345,22.7576297 C10.3978663,22.8939455 10.3839969,23.2089776 10.3011772,23.3389532 L9.28792287,24.9315495 C8.85757709,25.6071845 8.96456913,26.5804158 9.53083443,27.1466811 L10.091552,27.7073987 C10.6435517,28.2590021 11.6433329,28.3715419 12.3066836,27.9503103 L13.8984874,26.937056 C13.9523797,26.9025808 14.0779963,26.8657279 14.2269926,26.8657279 C14.3494391,26.8657279 14.4401842,26.8899002 14.4802071,26.9112986 C14.5012093,26.9216016 14.5222114,26.9319045 14.5440061,26.9406224 L15.7791698,27.449429 C15.7989831,27.4573543 15.8187965,27.4644871 15.8390061,27.4708274 C15.9860211,27.5179831 16.2000052,27.7529694 16.2336879,27.903947 L16.6434278,29.7465878 C16.8169926,30.5284222 17.5802025,31.1410508 18.3814541,31.1410508 L19.1739877,31.1410508 C19.974843,31.1410508 20.7380529,30.5284222 20.9120141,29.7465878 L21.321754,27.903947 C21.3550404,27.7529694 21.5694207,27.5179831 21.7164357,27.4708274 C21.7366453,27.4644871 21.7564587,27.4573543 21.7758757,27.449429 L23.0110395,26.9406224 C23.0328341,26.9319045 23.0542325,26.9216016 23.0748384,26.9112986 C23.1152576,26.8899002 23.2060027,26.8657279 23.3276566,26.8657279 C23.476653,26.8657279 23.6026658,26.9025808 23.6557656,26.937056 L25.2487582,27.949914 C25.9097313,28.3715419 26.9110976,28.2597946 27.4638898,27.7073987 L28.0242111,27.1470774 C28.5904764,26.5808121 28.6974685,25.6075808 28.267519,24.9315495 L27.2538684,23.3389532 C27.1710486,23.2089776 27.1571793,22.8943418 27.2285073,22.758026 C27.2392065,22.7370238 27.2491132,22.7160217 27.2578311,22.6946233 L27.7662414,21.458667 C27.774563,21.43925 27.7820921,21.4194366 27.7880361,21.399227 C27.8351918,21.2518158 28.0701781,21.0378317 28.221552,21.004149 L30.0634002,20.5948054 C30.8456309,20.4212405 31.4582595,19.6576343 31.4582595,18.856779 L31.4582595,18.0642454 C31.4582595,17.2629939 30.8456309,16.4997839 30.0637965,16.3262191 L28.2211557,15.9164792 Z" id="path-9"></path>
        <filter x="-3.9%" y="-3.9%" width="107.9%" height="115.8%" filterUnits="objectBoundingBox" id="filter-10">
            <feOffset dx="0" dy="2" in="SourceAlpha" result="shadowOffsetOuter1"></feOffset>
            <feColorMatrix values="0 0 0 0 0   0 0 0 0 0   0 0 0 0 0  0 0 0 0.1 0" type="matrix" in="shadowOffsetOuter1"></feColorMatrix>
        </filter>
        <path d="M0.365933333,7.63636364 C2.39213333,7.63636364 4.03333333,6.00872727 4.03333333,4 L4.03333333,4 C4.03333333,1.99127273 2.39213333,0.363636364 0.365933333,0.363636364 L0.365933333,0.363636364 L0.365933333,7.63636364 Z" id="path-11"></path>
    </defs>
    <g id="Badges" stroke="none" stroke-width="1" fill="none" fill-rule="evenodd">
        <g id="Get-started-with-Power-Automate-Buttons" transform="translate(-160.000000, -1080.000000)">
            <g id="Get-started-with-Power-Automate-Buttons/Share-Power-Automate-Buttons" transform="translate(160.000000, 1080.000000)">
                <g id="Badge-Plates/Circle">
                    <g id="BG" transform="translate(2.830189, 2.830189)">
                        <mask id="mask-2" fill="white">
                            <use xlink:href="#path-1"></use>
                        </mask>
                        <g></g>
                        <g id="Colors/Microsoft-365/BG-Gradient-1" mask="url(#mask-2)" fill="url(#linearGradient-3)">
                            <rect id="Rectangle" x="0" y="0" width="94.3396226" height="94.3396226"></rect>
                        </g>
                    </g>
                    <g id="Border">
                        <g id="White-Border">
                            <use fill="black" fill-opacity="1" filter="url(#filter-5)" xlink:href="#path-4"></use>
                            <rect stroke="#F2F1F0" stroke-width="4" stroke-linejoin="square" x="2" y="2" width="96" height="96" rx="48"></rect>
                        </g>
                        <mask id="mask-7" fill="white">
                            <use xlink:href="#path-6"></use>
                        </mask>
                        <use id="Boarder" fill="#0078D4" fill-rule="nonzero" xlink:href="#path-6"></use>
                        <g id="Colors/Microsoft-365/Border" mask="url(#mask-7)" fill="#0076D7">
                            <g transform="translate(2.830189, 2.830189)" id="Microsoft-365/Border">
                                <rect x="0" y="0" width="94.3396226" height="94.3396226"></rect>
                            </g>
                        </g>
                    </g>
                </g>
                <g id="Group-2" transform="translate(22.000000, 31.000000)">
                    <g id="Envelope" filter="url(#filter-8)">
                        <path d="M1.02479236,36 C0.391347465,35.3927365 0,34.5481419 0,33.6182432 L0,3.21283784 C0,2.36824324 0.321928846,1.59206081 0.867732738,1 L20.5924753,16.4136589 L1.02479236,36 Z" id="Fill-4" fill="#EFB252"></path>
                        <path d="M54,35.9760331 C53.3817713,36.6095041 52.5219261,37 51.5752365,37 L3.4239037,37 C2.47807395,37 1.61822872,36.6095041 1,35.9760331 L20.7936371,16 L27.4995701,21.3801653 L34.2923474,16.0867769 L54,35.9760331" id="Fill-5" fill="#F7CB64"></path>
                        <path d="M55,33.5926829 C55,34.532561 54.6078838,35.3862195 53.9717842,36 L35.026656,16.7225012 L54.4248963,1 C54.7908714,1.53865854 55,2.17890244 55,2.86097561 L55,33.5926829 Z" id="Fill-6" fill="#EFB252"></path>
                        <path d="M55,1.54 L34.6958614,16.8384615 L27.852743,22 L21.0971126,16.7538462 L1,1.16769231 C1.62454283,0.448461538 2.55919153,0 3.59865255,0 L52.1068335,0 C53.319538,0 54.3849856,0.610076923 55,1.54" id="Fill-7" fill="#F7CB64"></path>
                        <polygon id="Fill-8" fill="#CC9547" points="28.1457273 22.2364953 21.4451127 16.7696306 2.62619693 2.49027351 28.1457273 24 46.1960858 8.29991645 35.076942 16.4946643"></polygon>
                    </g>
                    <g id="Group" transform="translate(30.000000, 12.000000)">
                        <g id="Group-10">
                            <g id="Fill-376" transform="translate(18.777721, 18.460512) rotate(-45.000000) translate(-18.777721, -18.460512) ">
                                <use fill="black" fill-opacity="1" filter="url(#filter-10)" xlink:href="#path-9"></use>
                                <use fill="#546670" fill-rule="evenodd" xlink:href="#path-9"></use>
                            </g>
                            <path d="M14.6951087,25.2236616 C14.749228,25.1890418 14.8753739,25.1520344 15.0249979,25.1520344 C15.1479602,25.1520344 15.2390876,25.1763081 15.2792792,25.1977962 C15.3003698,25.2081424 15.3214604,25.2184885 15.3433469,25.227243 L16.5837144,25.7381838 C16.6036112,25.7461424 16.623508,25.7533051 16.6438028,25.759672 C16.7914371,25.8070255 17.0063227,26.0429974 17.0401473,26.1946084 L17.4516134,28.0449783 C17.6259095,28.8300922 18.3923348,29.4452905 19.196962,29.4452905 L19.9928346,29.4452905 C20.7970639,29.4452905 21.5634892,28.8300922 21.7381832,28.0449783 L22.1496494,26.1946084 C22.183076,26.0429974 22.3983595,25.8070255 22.5459939,25.759672 C22.5662887,25.7533051 22.5861855,25.7461424 22.6056844,25.7381838 L23.8460518,25.227243 C23.8679383,25.2184885 23.8894269,25.2081424 23.9101195,25.1977962 C23.950709,25.1763081 24.0418365,25.1520344 24.1640029,25.1520344 C24.3136269,25.1520344 24.4401707,25.1890418 24.4934941,25.2236616 L26.0931981,26.2407682 C26.7569558,26.6641646 27.7625408,26.5519487 28.317662,25.9972356 L28.8803439,25.434564 C29.4489949,24.8659234 29.5564377,23.8886098 29.1246768,23.2097429 L28.1067557,21.6104662 C28.023587,21.4799455 28.0096593,21.1639898 28.0812878,21.0271022 C28.0920321,21.006012 28.1019805,20.9849218 28.1107351,20.9634336 L28.6212874,19.722293 C28.629644,19.7027945 28.6372048,19.682898 28.6431739,19.6626037 C28.6905283,19.5145741 28.9265045,19.2996924 29.0785162,19.2658684 L30.9281241,18.8548078 C31.7136503,18.6805149 32.3288598,17.9137056 32.3288598,17.1094911 L32.3288598,16.3136331 C32.3288598,15.5090206 31.7136503,14.7426093 30.928522,14.5683164 L29.0781182,14.1568578 C28.9265045,14.1234318 28.6905283,13.9085501 28.6431739,13.7605205 C28.6372048,13.7402262 28.629644,13.7203297 28.6212874,13.7008312 L28.1107351,12.4600885 C28.1019805,12.4386004 28.0920321,12.4171122 28.0812878,12.3964199 C28.0096593,12.2591344 28.023587,11.9427808 28.1067557,11.812658 L29.1246768,10.2129834 C29.5564377,9.53451443 29.4055546,8.60103893 28.8373016,8.03239837 L28.3115119,7.50661381 L22.2329351,13.5851906 C22.9535978,14.30584 23.5742613,15.6144718 23.5742613,16.7115621 C23.5742613,18.9057427 21.7887211,20.6908522 19.5948983,20.6908522 C18.497788,20.6908522 17.3053179,19.953722 16.5846552,19.2334705 L10.3465124,25.4716133 L10.8721347,25.9972356 C11.42646,26.5511528 12.4304532,26.6641646 13.0965986,26.2411661 L14.6951087,25.2236616 Z" id="Fill-377" fill="#30404D" transform="translate(21.337686, 18.475952) rotate(-45.000000) translate(-21.337686, -18.475952) "></path>
                        </g>
                        <g id="Group-11" transform="translate(15.000000, 15.000000)">
                            <path d="M4,7.11111111 C6.2096,7.11111111 8,5.51964444 8,3.55555556 C8,1.59146667 6.2096,0 4,0 C1.7912,0 0,1.59146667 0,3.55555556 C0,5.51964444 1.7912,7.11111111 4,7.11111111 Z" id="Stroke-4" stroke="#30404D"></path>
                            <g id="Group-8" transform="translate(3.555556, 0.000000)">
                                <mask id="mask-12" fill="white">
                                    <use xlink:href="#path-11"></use>
                                </mask>
                                <g id="Clip-7"></g>
                                <polygon id="Stroke-6" stroke="#C4C4C4" mask="url(#mask-12)" points="-6.96666667 11.2727273 7.7 11.2727273 7.7 -3.27272727 -6.96666667 -3.27272727"></polygon>
                            </g>
                            <path d="M3.55555556,7.11111111 C5.51964444,7.11111111 7.11111111,5.51964444 7.11111111,3.55555556 C7.11111111,1.59146667 5.51964444,0 3.55555556,0" id="Stroke-9" stroke="#546670"></path>
                        </g>
                    </g>
                    <circle id="Oval" fill="#E1E4E1" cx="48.6232119" cy="30.3614767" r="7"></circle>
                    <g id="noun_Power_3093788" transform="translate(43.000000, 24.000000)" fill="#000000" fill-rule="nonzero">
                        <path d="M5.71028707,11.2431355 C3.6205524,11.2422638 1.80618667,9.91350843 1.32912484,8.03458024 C0.852063009,6.15565205 1.8377355,4.22056399 3.70923542,3.36190892 C3.89359537,3.27696904 4.11301913,3.28931297 4.2848519,3.39429089 C4.45668467,3.49926881 4.55482096,3.68093207 4.54229379,3.87084987 C4.52976661,4.06076768 4.40847914,4.230087 4.2241192,4.31502689 C2.8214443,4.95715617 2.08895376,6.41208752 2.46134292,7.81639427 C2.83373208,9.22070102 4.21130398,10.1984187 5.77654079,10.1693222 C7.3417776,10.1402258 8.67563022,9.11210506 8.98652594,7.69509662 C9.29742167,6.27808818 8.50212673,4.85155707 7.07260762,4.26207589 C6.88476532,4.18413551 6.75621654,4.01956828 6.73538437,3.8303651 C6.7145522,3.64116191 6.80460154,3.45606723 6.97161167,3.34480444 C7.13862181,3.23354164 7.35721992,3.21301419 7.54506223,3.29095459 C9.48382531,4.0915819 10.5530662,6.03457001 10.1105311,7.95283694 C9.66799587,9.87110387 7.83405389,11.2428821 5.71028707,11.2441945 L5.71028707,11.2431355 Z" id="Path"></path>
                        <path d="M5.70533287,7.24409486 C5.43165813,7.24409486 5.20980092,6.97007192 5.20980092,6.63204749 L5.20980092,1.86175031 C5.20980092,1.52068366 5.43365485,1.24419452 5.70980092,1.24419452 C5.98593047,1.24419452 6.20978439,1.52068366 6.20978439,1.86175031 L6.20978439,6.62715111 C6.21087552,6.79225052 6.15791632,6.95089156 6.06292922,7.06706071 C5.96794211,7.18322985 5.83898503,7.24707224 5.70533287,7.24409486 L5.70533287,7.24409486 Z" id="Path"></path>
                    </g>
                </g>
            </g>
        </g>
    </g>
</svg>