<svg width="181" height="191" viewBox="0 0 181 191" fill="none" xmlns="http://www.w3.org/2000/svg">
<path d="M90.5001 189.56C93.5601 189.56 96.5701 188.71 99.2301 187.09L161.2 149.43C166.74 146.06 170.17 139.73 170.17 132.89V58.1801C170.17 51.3601 166.74 45.0201 161.2 41.6401L99.2301 3.98012C93.9001 0.740123 87.0801 0.760123 81.7801 3.98012L19.8101 41.6601C14.2701 45.0301 10.8201 51.3601 10.8201 58.2001V132.9C10.8201 138.66 13.2701 144.08 17.3701 147.65V147.68L81.7801 187.11C84.4201 188.71 87.4401 189.56 90.5001 189.56ZM91.1501 8.51012C93.1001 8.51012 95.5801 9.72012 97.2901 10.7701L158.05 47.9601C161.8 50.2401 163.92 56.8401 163.92 61.5901L163.29 132.89C163.29 137.64 160.09 141.91 156.34 144.19L95.9401 180.57C92.5101 182.66 89.7201 182.66 86.2801 180.57L25.0701 144.1C21.3201 141.82 18.3001 137.62 18.3001 132.89V59.2501C18.3001 54.5101 21.0301 49.6201 24.8001 47.3301L85.3801 10.7701C87.0801 9.73012 89.2001 8.51012 91.1501 8.51012Z" fill="#F2F1F0"/>
<path fill-rule="evenodd" clip-rule="evenodd" d="M98.4001 12.0901C95.9501 10.5901 93.2301 9.84009 90.5001 9.84009C87.7701 9.84009 85.0501 10.6001 82.6001 12.0901L26.4701 46.4201C21.4501 49.4901 18.3401 55.2401 18.3401 61.4901V129.59C18.3401 135.82 21.4401 141.59 26.4701 144.66L82.6001 178.99C85.0501 180.49 87.7701 181.24 90.5001 181.24C93.2301 181.24 95.9501 180.5 98.4001 178.99L154.53 144.66C159.55 141.59 162.66 135.82 162.66 129.59V61.4901C162.66 55.2601 159.56 49.5101 154.53 46.4201L98.4001 12.0901Z" fill="url(#paint0_linear)"/>
<path fill-rule="evenodd" clip-rule="evenodd" d="M90.5001 11.3101C92.1801 11.3101 94.0701 12.1801 96.1301 13.4301L154.6 48.9701C158.25 51.1901 160.66 55.4601 160.66 60.2901V130.77C160.66 135.59 158.25 139.87 154.6 142.09L96.1401 177.63C94.1801 178.82 92.2601 179.57 90.5101 179.57C88.7601 179.57 86.8401 178.82 84.8801 177.63L26.4001 142.1C24.3901 140.87 22.9401 139.67 21.9601 138.06C20.9801 136.46 20.3401 134.24 20.3401 130.78V60.3001C20.3401 55.4701 22.7501 51.2001 26.4001 48.9801L84.8601 13.4401C86.9501 12.1901 88.8101 11.3101 90.5001 11.3101ZM98.2101 181.06L156.67 145.52C161.59 142.53 164.65 136.91 164.65 130.78V60.3001C164.65 54.1701 161.59 48.5501 156.67 45.5601L98.2101 10.0201C96.1001 8.74006 93.3901 7.31006 90.5001 7.31006C87.6001 7.31006 84.8901 8.75006 82.8001 10.0101H82.7901L24.3201 45.5601C19.4001 48.5501 16.3401 54.1701 16.3401 60.3001V130.78C16.3401 134.74 17.0801 137.73 18.5401 140.14C20.0001 142.54 22.0601 144.14 24.3201 145.51L82.7801 181.05C85.0001 182.4 87.6701 183.58 90.4901 183.58C93.3101 183.58 95.9901 182.41 98.2101 181.06Z" fill="url(#paint1_linear)"/>
<path d="M51.076 86.6498L50.698 87.2976L70.2954 98.7334L70.6734 98.0856L51.076 86.6498Z" fill="white"/>
<path d="M89.75 135.49L70.15 124.06C70.03 123.99 69.96 123.87 69.96 123.74V46.2702C69.96 46.1402 70.03 46.0102 70.15 45.9402C70.27 45.8702 70.41 45.8702 70.53 45.9402L90.13 57.3702L89.75 58.0202L70.72 46.9202V123.52L90.13 134.85L89.75 135.49Z" fill="white"/>
<path d="M70.5269 71.2255L70.1489 71.8733L89.7463 83.3068L90.1242 82.659L70.5269 71.2255Z" fill="white"/>
<path d="M70.5315 97.9611L70.1536 98.6089L89.7509 110.042L90.1288 109.395L70.5315 97.9611Z" fill="white"/>
<path d="M100.088 59.2602L99.7097 59.908L116.457 69.6786L116.835 69.0308L100.088 59.2602Z" fill="white"/>
<path d="M132.98 123.72L116.23 113.95C116.12 113.88 116.04 113.76 116.04 113.63V47.4001C116.04 47.2701 116.11 47.1401 116.23 47.0701C116.35 47.0001 116.49 47.0001 116.61 47.0701L133.36 56.8401L132.98 57.4901L116.79 48.0401V113.39L133.36 123.06L132.98 123.72Z" fill="white"/>
<path d="M116.601 68.6979L116.223 69.3457L132.978 79.1233L133.356 78.4755L116.601 68.6979Z" fill="white"/>
<path d="M116.607 91.5551L116.229 92.2029L132.984 101.98L133.362 101.333L116.607 91.5551Z" fill="white"/>
<path d="M147.67 98.7503L147.62 116.12C147.62 116.57 146.12 117.37 145.74 117.15L124.74 103.33C124.5 103.19 124.36 102.94 124.36 102.67L123.39 86.8503C123.39 86.5303 125.09 85.7903 125.36 85.7103C125.53 85.6503 125.73 85.6603 125.91 85.7703L147.29 98.0903C147.53 98.2303 147.67 98.4803 147.67 98.7503Z" fill="url(#paint2_linear)"/>
<path d="M147.74 76.4402L147.69 93.3802C147.69 93.6002 147.69 94.0902 147.29 94.2902C146.87 94.5002 146.2 94.9702 146 94.8602L124.8 81.0302C124.56 80.8902 124.42 80.6402 124.42 80.3702L123.4 64.6602C123.4 64.5202 123.3 64.3902 123.82 64.0902C124.13 63.9102 125.06 63.4702 125.13 63.4302C125.42 63.2502 125.63 63.2302 125.89 63.3802L147.36 75.7702C147.59 75.9102 147.74 76.1602 147.74 76.4402Z" fill="url(#paint3_linear)"/>
<path d="M147.8 54.1602L147.75 71.0202C147.75 71.3202 147.62 71.4702 147.28 71.7502C147.03 71.9602 146.41 72.5902 146.21 72.4702L124.82 58.7602C124.61 58.6402 124.48 58.4102 124.48 58.1602L123.59 42.2102C123.59 41.9502 125.06 41.2402 125.26 41.1302C125.46 41.0202 125.72 41.0002 125.95 41.1302L147.45 53.5602C147.67 53.6902 147.8 53.9102 147.8 54.1602Z" fill="url(#paint4_linear)"/>
<path d="M147.61 120.99L147.56 138.18C147.56 138.63 147.4 138.79 146.19 139.31L145.85 139.23L124.67 125.56C124.43 125.42 124.29 125.17 124.29 124.9L123.36 109.05C123.36 108.8 124.82 108.09 125 107.97C125.2 107.84 125.48 107.81 125.72 107.95L147.22 120.32C147.47 120.47 147.61 120.72 147.61 120.99Z" fill="url(#paint5_linear)"/>
<path d="M146.6 99.8201L146.55 116.61C146.55 117.06 146.07 117.33 145.68 117.11L123.66 104.4C123.42 104.26 123.28 104.01 123.28 103.74L123.33 87.1301C123.33 86.6001 123.9 86.2701 124.36 86.5401L146.22 99.1601C146.46 99.3001 146.61 99.5501 146.6 99.8201Z" fill="url(#paint6_linear)"/>
<path d="M146.67 77.5001L146.62 94.3001C146.62 94.7501 146.14 95.0201 145.75 94.8001L123.73 82.0901C123.49 81.9501 123.35 81.7001 123.35 81.4301L123.4 64.8101C123.4 64.2801 123.97 63.9501 124.43 64.2201L146.29 76.8401C146.52 76.9801 146.67 77.2301 146.67 77.5001Z" fill="url(#paint7_linear)"/>
<path d="M146.73 55.2301L146.68 71.8901C146.68 72.4201 146.11 72.7501 145.65 72.4801L123.76 59.8401C123.55 59.7201 123.42 59.4901 123.42 59.2401L123.47 42.5801C123.47 42.0501 124.04 41.7201 124.5 41.9901L146.39 54.6301C146.6 54.7501 146.73 54.9801 146.73 55.2301Z" fill="url(#paint8_linear)"/>
<path d="M146.54 122.06L146.49 138.85C146.49 139.3 146.01 139.57 145.62 139.35L123.6 126.64C123.36 126.5 123.22 126.25 123.22 125.98L123.27 109.37C123.27 108.84 123.84 108.51 124.3 108.78L146.16 121.4C146.4 121.53 146.54 121.78 146.54 122.06Z" fill="url(#paint9_linear)"/>
<g opacity="0.4">
<path opacity="0.4" d="M141.23 83.1301C140.96 82.9801 140.6 82.9801 140.28 83.0501L135.95 80.6601C136.03 80.5101 135.95 80.3201 135.74 80.2001C135.42 80.0101 134.89 80.0101 134.6 80.2001C134.33 80.3501 134.28 80.6001 134.49 80.7901L130.09 83.1101C129.77 82.9601 129.29 82.9601 129.01 83.1301C128.69 83.3201 128.69 83.6001 129.01 83.7901C129.22 83.9201 129.5 83.9401 129.77 83.9201L134.44 86.4801C134.29 86.6701 134.31 86.8801 134.57 87.0301C134.89 87.2201 135.42 87.2201 135.71 87.0301C135.98 86.8801 136.03 86.6301 135.82 86.4401L140.22 83.8401C140.54 83.9701 140.96 83.9501 141.25 83.7801C141.57 83.6001 141.57 83.3001 141.23 83.1301Z" fill="#1F1D21"/>
</g>
<g opacity="0.25">
<path opacity="0.25" d="M129.85 76.62L135.13 73.53L140.41 76.57L135.13 79.66L129.85 76.62Z" fill="#1E9FE0"/>
</g>
<g opacity="0.25">
<path opacity="0.25" d="M129.8 82.7301L135.14 79.6401L140.36 82.6801L135.08 85.7701L129.8 82.7301Z" fill="#1E9FE0"/>
</g>
<g opacity="0.05">
<path opacity="0.05" d="M135.13 79.6501L135.07 85.7601L140.35 82.6701L140.41 76.5601L135.13 79.6501Z" fill="#1E9FE0"/>
</g>
<g opacity="0.05">
<path opacity="0.05" d="M129.86 76.62L129.8 82.73L135.14 79.64V73.53L129.86 76.62Z" fill="#1E9FE0"/>
</g>
<path d="M135.17 79.67C135.17 79.67 135.15 79.67 135.17 79.67L129.87 76.63C129.85 76.63 129.85 76.61 129.85 76.61C129.85 76.59 129.85 76.59 129.87 76.59L135.15 73.5C135.17 73.5 135.17 73.5 135.19 73.5L140.47 76.54C140.49 76.54 140.49 76.56 140.49 76.56C140.49 76.58 140.49 76.58 140.47 76.58L135.17 79.67C135.17 79.67 135.19 79.67 135.17 79.67ZM129.97 76.62L135.17 79.62L140.37 76.56L135.17 73.56L129.97 76.62Z" fill="#50E6FF"/>
<path d="M135.11 85.7901L129.81 82.7501C129.79 82.7501 129.79 82.7301 129.79 82.7301C129.79 82.7101 129.79 82.7101 129.81 82.7101L135.15 79.6201C135.17 79.6201 135.17 79.6201 135.19 79.6201L140.41 82.6601C140.43 82.6601 140.43 82.6801 140.43 82.6801C140.43 82.6801 140.43 82.7001 140.41 82.7001L135.11 85.7901C135.13 85.7901 135.13 85.7901 135.11 85.7901ZM129.91 82.7301L135.11 85.7301L140.31 82.6701L135.15 79.6701L129.91 82.7301Z" fill="#50E6FF"/>
<path d="M135.11 85.79C135.11 85.79 135.09 85.79 135.11 85.79C135.09 85.77 135.07 85.77 135.07 85.75L135.13 79.64C135.13 79.62 135.13 79.62 135.15 79.62L140.43 76.53C140.45 76.53 140.45 76.53 140.47 76.53C140.49 76.53 140.49 76.55 140.49 76.57L140.43 82.68C140.43 82.7 140.43 82.7 140.41 82.7L135.11 85.79C135.11 85.79 135.13 85.79 135.11 85.79ZM135.21 79.67L135.15 85.71L140.35 82.67L140.41 76.63L135.21 79.67Z" fill="white"/>
<path d="M129.84 82.77C129.82 82.75 129.8 82.75 129.8 82.73L129.86 76.62C129.86 76.6 129.86 76.6 129.88 76.6L135.16 73.51C135.18 73.51 135.18 73.51 135.2 73.51C135.22 73.51 135.22 73.53 135.22 73.53V79.64C135.22 79.66 135.22 79.66 135.2 79.66L129.84 82.77C129.86 82.77 129.86 82.77 129.84 82.77ZM129.93 76.64L129.87 82.68L135.13 79.62V73.58L129.93 76.64Z" fill="white"/>
<path d="M135.17 79.67C135.17 79.67 135.15 79.67 135.17 79.67L129.87 76.63C129.85 76.63 129.85 76.61 129.85 76.61C129.85 76.59 129.85 76.59 129.87 76.59L135.15 73.5C135.17 73.5 135.17 73.5 135.19 73.5L140.47 76.54C140.49 76.54 140.49 76.56 140.49 76.56C140.49 76.58 140.49 76.58 140.47 76.58L135.17 79.67C135.17 79.67 135.19 79.67 135.17 79.67ZM129.97 76.62L135.17 79.62L140.37 76.56L135.17 73.56L129.97 76.62Z" fill="white"/>
<path d="M135.11 85.7901L129.81 82.7501C129.79 82.7501 129.79 82.7301 129.79 82.7301C129.79 82.7101 129.79 82.7101 129.81 82.7101L135.15 79.6201C135.17 79.6201 135.17 79.6201 135.19 79.6201L140.41 82.6601C140.43 82.6601 140.43 82.6801 140.43 82.6801C140.43 82.6801 140.43 82.7001 140.41 82.7001L135.11 85.7901C135.13 85.7901 135.13 85.7901 135.11 85.7901ZM129.91 82.7301L135.11 85.7301L140.31 82.6701L135.15 79.6701L129.91 82.7301Z" fill="white"/>
<path d="M140.35 77.1502C140.08 77.1502 139.86 76.9202 139.86 76.6602C139.86 76.3902 140.09 76.1702 140.35 76.1702C140.62 76.1702 140.82 76.4002 140.82 76.6602C140.83 76.9002 140.62 77.1502 140.35 77.1502Z" fill="#50E6FF"/>
<path d="M140.33 76.4301C140.44 76.4301 140.54 76.5201 140.54 76.6401C140.54 76.7601 140.45 76.8701 140.33 76.8701C140.21 76.8701 140.12 76.7801 140.12 76.6601C140.13 76.5201 140.22 76.4301 140.33 76.4301ZM140.33 76.1201C140.06 76.1201 139.82 76.3501 139.82 76.6301C139.82 76.9001 140.05 77.1401 140.33 77.1401C140.61 77.1401 140.84 76.9101 140.84 76.6301C140.85 76.3701 140.62 76.1201 140.33 76.1201Z" fill="white"/>
<path d="M135.17 80.1699C134.9 80.1699 134.68 79.9399 134.68 79.6799C134.68 79.4099 134.91 79.1899 135.17 79.1899C135.44 79.1899 135.64 79.4199 135.64 79.6799C135.64 79.9199 135.44 80.1699 135.17 80.1699Z" fill="#50E6FF"/>
<path d="M135.17 79.4502C135.28 79.4502 135.38 79.5402 135.38 79.6602C135.38 79.7802 135.29 79.8702 135.17 79.8702C135.06 79.8702 134.96 79.7802 134.96 79.6602C134.94 79.5402 135.04 79.4502 135.17 79.4502ZM135.17 79.1602C134.9 79.1602 134.66 79.3902 134.66 79.6702C134.66 79.9402 134.89 80.1802 135.17 80.1802C135.44 80.1802 135.68 79.9502 135.68 79.6702C135.66 79.3902 135.44 79.1602 135.17 79.1602Z" fill="white"/>
<path d="M135.17 74.0501C134.9 74.0501 134.68 73.8201 134.68 73.5601C134.68 73.2901 134.91 73.0701 135.17 73.0701C135.44 73.0701 135.64 73.3001 135.64 73.5601C135.64 73.8301 135.44 74.0501 135.17 74.0501Z" fill="#50E6FF"/>
<path d="M135.17 73.3501C135.28 73.3501 135.38 73.4401 135.38 73.5601C135.38 73.6701 135.29 73.7701 135.17 73.7701C135.06 73.7701 134.96 73.6801 134.96 73.5601C134.94 73.4501 135.04 73.3501 135.17 73.3501ZM135.17 73.0701C134.9 73.0701 134.66 73.3001 134.66 73.5801C134.66 73.8601 134.89 74.0901 135.17 74.0901C135.44 74.0901 135.68 73.8601 135.68 73.5801C135.68 73.2901 135.44 73.0701 135.17 73.0701Z" fill="white"/>
<path d="M129.85 77.1502C129.58 77.1502 129.36 76.9202 129.36 76.6602C129.36 76.3902 129.59 76.1702 129.85 76.1702C130.11 76.1702 130.32 76.4002 130.32 76.6602C130.33 76.9002 130.12 77.1502 129.85 77.1502Z" fill="#50E6FF"/>
<path d="M129.84 76.4301C129.95 76.4301 130.05 76.5201 130.05 76.6401C130.05 76.7601 129.96 76.8701 129.84 76.8701C129.73 76.8701 129.63 76.7801 129.63 76.6601C129.63 76.5201 129.72 76.4301 129.84 76.4301ZM129.84 76.1201C129.57 76.1201 129.33 76.3501 129.33 76.6301C129.33 76.9001 129.56 77.1401 129.84 77.1401C130.11 77.1401 130.35 76.9101 130.35 76.6301C130.35 76.3701 130.12 76.1201 129.84 76.1201Z" fill="white"/>
<path d="M129.85 83.22C129.58 83.22 129.36 82.99 129.36 82.73C129.36 82.47 129.59 82.24 129.85 82.24C130.11 82.24 130.32 82.47 130.32 82.73C130.32 82.99 130.12 83.22 129.85 83.22Z" fill="#50E6FF"/>
<path d="M129.84 82.52C129.95 82.52 130.05 82.61 130.05 82.73C130.05 82.84 129.96 82.94 129.84 82.94C129.73 82.94 129.63 82.85 129.63 82.73C129.63 82.62 129.72 82.52 129.84 82.52ZM129.84 82.22C129.57 82.22 129.33 82.45 129.33 82.73C129.33 83 129.56 83.24 129.84 83.24C130.11 83.24 130.35 83.01 130.35 82.73C130.35 82.46 130.12 82.22 129.84 82.22Z" fill="white"/>
<path d="M135.17 86.26C134.9 86.26 134.68 86.03 134.68 85.77C134.68 85.51 134.91 85.28 135.17 85.28C135.44 85.28 135.64 85.51 135.64 85.77C135.64 86.02 135.44 86.26 135.17 86.26Z" fill="#50E6FF"/>
<path d="M135.17 85.54C135.28 85.54 135.38 85.63 135.38 85.75C135.38 85.86 135.29 85.96 135.17 85.96C135.06 85.96 134.96 85.87 134.96 85.75C134.94 85.64 135.04 85.54 135.17 85.54ZM135.17 85.24C134.9 85.24 134.66 85.47 134.66 85.75C134.66 86.02 134.89 86.26 135.17 86.26C135.44 86.26 135.68 86.03 135.68 85.75C135.66 85.48 135.44 85.24 135.17 85.24Z" fill="white"/>
<path d="M140.35 83.22C140.08 83.22 139.86 82.99 139.86 82.73C139.86 82.47 140.09 82.24 140.35 82.24C140.62 82.24 140.82 82.47 140.82 82.73C140.82 82.99 140.62 83.22 140.35 83.22Z" fill="#50E6FF"/>
<path d="M140.33 82.52C140.44 82.52 140.54 82.61 140.54 82.73C140.54 82.84 140.45 82.94 140.33 82.94C140.21 82.94 140.12 82.85 140.12 82.73C140.13 82.62 140.22 82.52 140.33 82.52ZM140.33 82.22C140.06 82.22 139.82 82.45 139.82 82.73C139.82 83 140.05 83.24 140.33 83.24C140.61 83.24 140.84 83.01 140.84 82.73C140.85 82.46 140.62 82.22 140.33 82.22Z" fill="white"/>
<path d="M138.43 125.23C138.68 125.38 138.87 125.73 138.87 126.01C138.87 126.3 138.68 126.39 138.42 126.24L134.15 123.78L134.32 123.88C134.57 124.03 134.77 123.89 134.77 123.61C134.77 123.38 134.63 123.11 134.46 122.94L138.43 125.23Z" fill="white"/>
<path d="M138.42 129.41C138.65 129.54 138.86 129.89 138.86 130.18V130.2C138.86 130.49 138.67 130.63 138.41 130.48L130.63 125.99C130.38 125.84 130.19 125.49 130.19 125.17C130.19 124.89 130.38 124.77 130.64 124.92L138.42 129.41Z" fill="#185A97"/>
<path d="M138.42 127.31C138.67 127.46 138.86 127.8 138.86 128.08C138.86 128.37 138.67 128.49 138.41 128.35L136.71 127.37C136.91 127.44 137.06 127.31 137.06 127.07C137.06 126.77 136.85 126.42 136.62 126.29L136.49 126.21C136.52 126.22 136.55 126.24 136.59 126.25L138.42 127.31Z" fill="white"/>
<path d="M131.59 117.05C131.83 117.19 132.04 117.56 132.04 117.84C132.04 118.11 131.84 118.23 131.58 118.09L130.65 117.55C130.4 117.4 130.21 117.05 130.21 116.78C130.21 116.5 130.4 116.37 130.66 116.51L131.59 117.05Z" fill="#50E6FF"/>
<path d="M138.44 121.01C138.69 121.16 138.88 121.5 138.88 121.79C138.88 122.08 138.69 122.22 138.43 122.07L130.65 117.58C130.42 117.45 130.21 117.09 130.21 116.8C130.21 117.06 130.4 117.41 130.65 117.56L131.58 118.1C131.83 118.25 132.04 118.12 132.04 117.85C132.04 117.57 131.83 117.2 131.59 117.06L138.44 121.01Z" fill="white"/>
<path d="M132.49 119.69C132.73 119.83 132.94 120.18 132.94 120.48C132.94 120.71 132.81 120.83 132.62 120.79C132.58 120.78 132.53 120.76 132.48 120.74L130.65 119.68C130.4 119.53 130.21 119.18 130.21 118.9C130.21 118.62 130.4 118.49 130.66 118.63L132.38 119.63L132.49 119.69Z" fill="#45CAF2"/>
<path d="M138.44 123.11C138.69 123.26 138.88 123.61 138.88 123.89C138.88 124.16 138.69 124.29 138.43 124.14L132.62 120.78C132.81 120.82 132.94 120.69 132.94 120.47C132.94 120.18 132.73 119.82 132.49 119.68L132.38 119.62C132.41 119.63 132.44 119.64 132.48 119.66L138.44 123.11Z" fill="white"/>
<path d="M134.33 122.84C134.38 122.87 134.42 122.9 134.46 122.94C134.63 123.11 134.77 123.37 134.77 123.61C134.77 123.89 134.58 124.02 134.32 123.88L134.15 123.78L130.64 121.75C130.39 121.6 130.2 121.25 130.2 120.97C130.2 120.69 130.39 120.57 130.65 120.72L134.33 122.84Z" fill="#32B0E7"/>
<path d="M136.63 126.28C136.86 126.41 137.07 126.76 137.07 127.06C137.07 127.29 136.92 127.42 136.72 127.36C136.69 127.35 136.66 127.34 136.62 127.32L130.64 123.87C130.39 123.72 130.2 123.37 130.21 123.11C130.21 122.83 130.41 122.7 130.67 122.85L136.5 126.22L136.63 126.28Z" fill="#0078D1"/>
<g opacity="0.4">
<path opacity="0.3" d="M134.98 52.7302C134.96 52.7202 134.94 52.7102 134.92 52.7002C134.9 52.6902 134.88 52.6802 134.86 52.6702C134.06 52.2302 133.3 52.0402 132.64 52.0702C132.63 52.0702 132.62 52.0702 132.6 52.0702C132.58 52.0702 132.56 52.0702 132.54 52.0702C132.51 52.0702 132.49 52.0702 132.46 52.0802C132.45 52.0802 132.44 52.0802 132.42 52.0802C132.04 52.1302 131.68 52.2502 131.37 52.4402C131.15 52.5802 130.95 52.7502 130.8 52.9602L132.97 55.9802C133.01 55.9302 133.04 55.8802 133.09 55.8302C133.48 55.4002 134.12 55.3502 134.86 55.7302C134.86 55.7302 134.87 55.7302 134.87 55.7402C134.91 55.7602 134.94 55.7802 134.98 55.8002C136.26 56.5402 137.3 58.3402 137.29 59.8102C137.29 59.9402 137.28 60.0602 137.26 60.1802C137.09 61.3802 136.12 61.8202 134.96 61.1502C134.03 60.6102 133.22 59.5002 132.85 58.3702H132.86C132.76 58.0902 132.69 57.7902 132.66 57.5102C132.65 57.4302 132.64 57.3602 132.64 57.2702C132.64 57.2202 132.64 57.1702 132.64 57.1202C132.64 57.0802 132.64 57.0502 132.64 57.0102C132.64 56.9902 132.64 56.9702 132.64 56.9502C132.64 56.9402 132.64 56.9402 132.64 56.9302C132.67 56.5302 132.79 56.2102 132.96 55.9702L130.78 52.9602L130.77 52.9702C130.65 53.1102 130.55 53.2602 130.45 53.4402C130.24 53.8302 130.09 54.3102 130.02 54.8602C130.02 54.8802 130.02 54.8902 130.01 54.9102C130.01 54.9402 130 54.9802 130 55.0102C130 55.0602 129.99 55.1102 129.99 55.1602C129.99 55.1802 129.99 55.1902 129.99 55.2102C129.99 55.2602 129.98 55.3002 129.98 55.3502C129.98 55.3702 129.98 55.3902 129.98 55.4002C129.98 55.4602 129.98 55.5202 129.98 55.5902C129.98 55.6402 129.98 55.6902 129.98 55.7502C129.99 56.0402 130.03 56.3302 130.07 56.6202C130.04 56.4302 130 56.2402 129.99 56.0502C130 56.2502 130.04 56.4602 130.07 56.6702C130.09 56.7902 130.1 56.9202 130.12 57.0402C130.13 57.0702 130.13 57.1102 130.14 57.1402C130.13 57.1102 130.13 57.0902 130.13 57.0602C130.19 57.3702 130.27 57.6802 130.37 58.0002C130.36 57.9602 130.35 57.9202 130.34 57.8802C130.37 57.9902 130.39 58.1002 130.42 58.2102H130.43C131.21 60.6502 132.94 63.0302 134.95 64.1902C137.6 65.7202 139.76 64.5902 139.94 61.7002C139.95 61.5802 139.95 61.4602 139.95 61.3402C139.97 58.1702 137.74 54.3202 134.98 52.7302Z" fill="#1F1D20"/>
</g>
<path d="M134.98 51.9802C137.74 53.5702 139.98 57.4202 139.97 60.6002C139.97 60.7202 139.97 60.8502 139.96 60.9602C139.79 63.8502 137.63 64.9802 134.97 63.4502C132.99 62.3102 131.28 59.9902 130.48 57.6002C130.22 56.8302 131 56.9802 130.44 57.4702L132.87 57.6302C133.24 58.7602 134.05 59.8702 134.98 60.4102C136.14 61.0802 137.12 60.6302 137.28 59.4402C137.3 59.3202 137.3 59.2002 137.31 59.0702C137.31 57.6002 136.27 55.8002 135 55.0602L134.98 51.9802Z" fill="url(#paint10_linear)"/>
<path d="M134.86 54.9802C134.13 54.6102 133.49 54.6702 133.09 55.0802C133.48 54.6502 134.12 54.6002 134.86 54.9802Z" fill="white"/>
<path d="M130.01 55.1903C130.01 55.1303 130 55.0703 130 55.0103C130 55.0703 130 55.1303 130.01 55.1903Z" fill="white"/>
<path d="M130.01 55.2202C130.01 55.2102 130.01 55.2002 130.01 55.1902C130.01 55.2302 130.01 55.2602 130.02 55.3002C130.01 55.2702 130.01 55.2402 130.01 55.2202Z" fill="white"/>
<path d="M130.8 52.2202L130.79 52.2302C130.67 52.3702 130.57 52.5202 130.47 52.7002C130.56 52.5102 130.67 52.3502 130.8 52.2202Z" fill="white"/>
<path d="M132.42 51.3301C132.04 51.3801 131.68 51.5001 131.37 51.6901C131.68 51.4901 132.04 51.3701 132.42 51.3301Z" fill="white"/>
<path d="M130.8 52.2202L132.98 55.2302C132.81 55.4602 132.69 55.7902 132.66 56.1902C132.66 56.2002 132.66 56.2002 132.66 56.2102C132.66 56.2302 132.66 56.2502 132.66 56.2702C132.66 56.3102 132.66 56.3402 132.66 56.3802C132.66 56.4302 132.66 56.4802 132.66 56.5302C132.66 56.6202 132.67 56.6902 132.68 56.7702C132.71 57.0602 132.78 57.3502 132.88 57.6302L130.44 57.4702C130.18 56.6402 130.02 55.8102 130 55.0102C130 54.9502 130 54.9002 130 54.8502C130 54.7902 130 54.7302 130 54.6602C130 54.6402 130 54.6202 130 54.6102C130 54.5602 130 54.5202 130.01 54.4702C130.01 54.4502 130.01 54.4402 130.01 54.4202C130.01 54.3702 130.02 54.3202 130.02 54.2702C130.02 54.2402 130.03 54.2002 130.03 54.1702C130.03 54.1502 130.03 54.1402 130.04 54.1202C130.11 53.5702 130.26 53.0902 130.47 52.7002C130.56 52.5302 130.67 52.3702 130.79 52.2302L130.8 52.2202Z" fill="#50E6FF"/>
<path d="M134.98 51.9802L134.99 55.0502C134.95 55.0302 134.92 55.0102 134.88 54.9902C134.88 54.9902 134.87 54.9902 134.87 54.9802C134.13 54.6002 133.49 54.6502 133.1 55.0802C133.06 55.1302 133.02 55.1802 132.98 55.2302L130.81 52.2102C130.97 51.9902 131.16 51.8202 131.38 51.6902C131.69 51.5002 132.04 51.3702 132.43 51.3302C132.44 51.3302 132.45 51.3302 132.47 51.3302C132.5 51.3302 132.52 51.3302 132.55 51.3202C132.57 51.3202 132.59 51.3202 132.61 51.3202C132.62 51.3202 132.63 51.3202 132.65 51.3202C133.32 51.2902 134.07 51.4802 134.87 51.9202C134.89 51.9302 134.91 51.9402 134.93 51.9502C134.94 51.9602 134.96 51.9702 134.98 51.9802Z" fill="#3BCAF4"/>
<path opacity="0.15" d="M134.98 102.27L140.1 105.26L134.96 108.25L129.84 105.26L134.98 102.27Z" fill="#1F1D20"/>
<path d="M134.96 101.58V107.54L129.84 104.53V98.5901L134.96 101.58Z" fill="#ACF3FD"/>
<path d="M134.98 95.6101L140.1 98.6001L134.96 101.59L129.84 98.6001L134.98 95.6101Z" fill="white"/>
<path d="M140.1 98.6001V104.54L134.96 107.55V101.59L140.1 98.6001Z" fill="#45CAF2"/>
<path d="M134.96 107.53V101.57L140.1 104.52L134.96 107.53Z" fill="#50E6FF"/>
<path d="M134.96 107.53V101.57L129.84 104.52L134.96 107.53Z" fill="#84ECFD"/>
<path d="M108.91 155.3L107.3 156.23C107.5 156.11 107.63 155.86 107.63 155.5L109.24 154.57C109.24 154.93 109.11 155.18 108.91 155.3Z" fill="#D6D6D6"/>
<path d="M76.78 25.9802L78.39 25.0502C78.6 24.9302 78.88 24.9502 79.2 25.1302L77.66 26.0302C77.62 26.0502 77.57 26.0502 77.53 26.0302C77.23 25.8802 76.97 25.8702 76.78 25.9802Z" fill="#D6D6D6"/>
<path d="M107.82 44.7402L109.15 43.9702C109.24 43.9202 109.36 43.9802 109.36 44.0902L109.24 154.57L107.63 155.5L107.75 44.8602C107.76 44.8102 107.78 44.7602 107.82 44.7402Z" fill="#D6D6D6"/>
<path d="M77.4601 25.9803L79.1301 25.1703C79.1701 25.1503 79.2301 25.1503 79.2701 25.1703L108.04 41.7803C108.13 41.8303 108.13 41.9703 108.04 42.0203L106.71 42.7903C106.67 42.8103 106.61 42.8103 106.57 42.7903L77.8001 26.1803C77.7101 26.1303 77.3701 26.0403 77.4601 25.9803Z" fill="#D6D6D6"/>
<path d="M106.82 42.7202L108.16 41.9402C108.21 41.9102 108.26 41.9102 108.31 41.9402C108.87 42.3002 109.32 43.0802 109.36 43.7602C109.36 43.8102 109.33 43.8602 109.29 43.8902L107.95 44.6702C107.86 44.7202 107.76 44.6602 107.74 44.5602C107.66 43.9602 107.29 43.3202 106.81 42.9502C106.73 42.8902 106.73 42.7702 106.82 42.7202Z" fill="#D6D6D6"/>
<path d="M106.63 42.8302C107.25 43.1902 107.75 44.0502 107.75 44.7802L107.63 155.5C107.63 156.22 107.12 156.51 106.5 156.15L77.4501 139.38C76.8301 139.02 76.3201 138.14 76.3201 137.42L76.4401 26.7002C76.4401 25.9802 76.9501 25.6902 77.5801 26.0602L106.63 42.8302Z" fill="#F2F2F2"/>
<g opacity="0.15">
<path opacity="0.15" d="M75.02 141.09L76.63 140.16L107.79 158.21L106.18 159.15L75.02 141.09Z" fill="#1F1D20"/>
</g>
<g opacity="0.15">
<path opacity="0.15" d="M53.6699 133.63L55.2799 132.69L65.7599 138.84L64.1599 139.77L53.6699 133.63Z" fill="#1F1D20"/>
</g>
<g opacity="0.15">
<path opacity="0.15" d="M134.17 139.3L135.78 138.36L146.27 144.5L144.66 145.44L134.17 139.3Z" fill="#1F1D20"/>
</g>
<g opacity="0.15">
<path opacity="0.15" d="M123.31 129.19L124.91 128.25L142.3 138.27L140.69 139.2L123.31 129.19Z" fill="#1F1D20"/>
</g>
<g opacity="0.15">
<path opacity="0.15" d="M27.21 114.35L28.82 113.42L60.18 131.27L58.57 132.2L27.21 114.35Z" fill="#1F1D20"/>
</g>
<g opacity="0.3">
<path opacity="0.4" d="M98.3401 65.1201L86.6501 58.3901L84.9201 59.1701C84.7401 59.2501 84.7301 59.5001 84.9001 59.5901L96.1901 66.0701C96.4901 66.2501 96.8701 66.2501 97.1701 66.0701L98.3401 65.3801C98.4201 65.3201 98.4501 65.1801 98.3401 65.1201Z" fill="#1F1D20"/>
</g>
<path d="M91.59 48.5703L91.6001 44.9703C91.6001 44.3403 92.05 44.0903 92.59 44.4103L96.6701 46.7703C97.2201 47.0803 97.6601 47.8503 97.6601 48.4803L97.6101 64.7603C97.6101 65.3903 97.1601 65.6403 96.6201 65.3203L92.3601 62.8603C91.8601 62.5703 91.55 62.0403 91.56 61.4603L91.59 48.5703Z" fill="url(#paint11_linear)"/>
<path d="M97.5901 46.2202L93.5101 43.8702C93.2301 43.7102 92.9901 43.7002 92.8101 43.8002L91.8901 44.3302C92.0701 44.2202 92.3201 44.2402 92.5901 44.4002L96.6701 46.7602C97.2201 47.0702 97.6601 47.8402 97.6601 48.4702L97.6101 64.7602C97.6101 65.0702 97.5001 65.2902 97.3201 65.3902L98.2401 64.8602C98.4201 64.7602 98.5301 64.5402 98.5301 64.2302L98.5801 47.9402C98.5801 47.3102 98.1301 46.5402 97.5901 46.2202Z" fill="url(#paint12_linear)"/>
<path d="M93.03 49.3602C93.51 49.6402 93.89 50.3002 93.89 50.8502L93.86 62.6902C93.86 63.2402 93.47 63.4602 93 63.1902L91.21 62.1602L87.8 60.1902L89.48 61.1602C90.1 61.5202 90.61 61.2302 90.61 60.5202L87.83 55.8702L87.84 47.3502C87.84 46.8002 88.23 46.5802 88.71 46.8602L91.26 48.3302L93.03 49.3602Z" fill="url(#paint13_linear)"/>
<path d="M93.9501 48.8202L92.1701 47.7902L89.6201 46.3202C89.3801 46.1802 89.1601 46.1702 89.0101 46.2602L88.0901 46.7902C88.2501 46.7002 88.4601 46.7102 88.7001 46.8502L91.2501 48.3202L93.0301 49.3502C93.5101 49.6302 93.8901 50.2902 93.8901 50.8402L93.8601 62.6802C93.8601 62.9602 93.7701 63.1502 93.6101 63.2402L94.5301 62.7102C94.6901 62.6202 94.7801 62.4302 94.7801 62.1502L94.8101 50.3102C94.8101 49.7602 94.4301 49.1002 93.9501 48.8202Z" fill="url(#paint14_linear)"/>
<path d="M87.8 60.1801L88.72 59.6501L90.4 60.6201L89.48 61.1501L87.8 60.1801Z" fill="#4CC8EF"/>
<path d="M91.2 60.7001L90.28 61.2301C90.07 61.3501 89.79 61.3301 89.48 61.1501L90.4 60.6201C90.71 60.8001 90.99 60.8201 91.2 60.7001Z" fill="#4CC8EF"/>
<path d="M90.4301 51.3403L88.7501 50.3703L86.6201 49.1403C86.3101 48.9603 86.0201 48.9403 85.8201 49.0603L84.9001 49.5903C85.1001 49.4703 85.3901 49.4903 85.7001 49.6703L87.8301 50.9003L89.5101 51.8703C90.1301 52.2303 90.6301 53.1003 90.6301 53.8103L90.6101 60.5103C90.6101 60.8603 90.4801 61.1103 90.2801 61.2303L91.2001 60.7003C91.4001 60.5803 91.5301 60.3303 91.5301 59.9803L91.5501 53.2803C91.5501 52.5703 91.0501 51.7003 90.4301 51.3403Z" fill="url(#paint15_linear)"/>
<path d="M89.51 51.8802C90.13 52.2402 90.63 53.1102 90.63 53.8202L90.61 60.5202C90.6 61.2302 90.1 61.5202 89.48 61.1602L87.8 60.1902L85.67 58.9602C85.05 58.6002 84.55 57.7402 84.55 57.0202L84.57 50.3202C84.57 49.6102 85.08 49.3202 85.7 49.6802L87.83 50.9102L89.51 51.8802Z" fill="url(#paint16_linear)"/>
<g opacity="0.3">
<path opacity="0.4" d="M97.4299 89.8798L89.9499 85.4798C89.6899 85.3298 89.3799 85.3098 89.0999 85.4298L87.8099 86.0098C87.6299 86.0898 87.6199 86.3398 87.7899 86.4298L95.2799 90.8198C95.5799 90.9998 95.96 90.9998 96.26 90.8198L97.4299 90.1298C97.5099 90.0698 97.5399 89.9298 97.4299 89.8798Z" fill="#1F1D20"/>
</g>
<path d="M91.87 86.5898L91.27 87.0298C91.26 87.0298 91.26 87.0398 91.25 87.0398L92.14 86.5198C92.15 86.5198 92.15 86.5098 92.16 86.5098L92.75 86.0698L91.87 86.5898Z" fill="#8B2A80"/>
<path d="M90.1799 75.6199L91.0699 75.0999L93.4999 79.5199L92.6099 80.0399L90.1799 75.6199Z" fill="#F2F1F0"/>
<path d="M90.2001 74.5097L91.0901 73.9897C90.8301 74.1497 90.8201 74.6297 91.0801 75.0897L90.1901 75.6097C89.9301 75.1597 89.9401 74.6697 90.2001 74.5097Z" fill="#F2F1F0"/>
<path d="M91.9499 73.4499L92.8399 72.9299L91.0799 73.9999L90.1899 74.5199L91.9499 73.4499Z" fill="#F2F1F0"/>
<path d="M92.1299 71.6698C92.0499 71.5298 91.9399 71.4198 91.8299 71.3498C91.7199 71.2898 91.6199 71.2698 91.5299 71.3198L90.6399 71.8398C90.7199 71.7898 90.8299 71.8098 90.9399 71.8698C91.0499 71.9298 91.1599 72.0398 91.2399 72.1898L91.9499 73.4498L92.8399 72.9298L92.1299 71.6698Z" fill="#8B2A80"/>
<path d="M94.3001 73.02C94.1901 72.82 94.0401 72.66 93.8801 72.57C93.7301 72.49 93.5901 72.46 93.4701 72.53L92.5801 73.05C92.6901 72.99 92.8401 73.01 92.9901 73.09C93.1401 73.18 93.2901 73.33 93.4101 73.54L96.4301 79.11L97.3201 78.59L94.3001 73.02Z" fill="#C661B0"/>
<path d="M95.7999 78.7499L93.5198 80.1299C93.1498 80.3599 93.1398 81.0599 93.5198 81.7199L95.8198 85.7699C95.9098 85.9299 96.0298 86.0399 96.1398 86.1099C96.2298 86.1599 96.3198 86.1799 96.3898 86.1599L93.3599 88.2399C93.2499 88.3199 93.0899 88.2999 92.9399 88.2099C92.7899 88.1299 92.6398 87.9699 92.5298 87.7799L91.8599 86.5899L90.1499 83.5499C89.8999 83.0899 89.8898 82.6099 90.1398 82.4399L92.5998 80.8099C92.7798 80.6899 92.7798 80.3499 92.5998 80.0299L90.1698 75.6099C89.9198 75.1499 89.9299 74.6699 90.1799 74.5099L91.9399 73.4399L92.5698 73.0599C92.6798 72.9899 92.8299 73.0099 92.9799 73.0999C93.1299 73.1899 93.2799 73.3399 93.3999 73.5499L96.4198 79.1199C96.3298 78.9699 96.2198 78.8499 96.0998 78.7899C95.9998 78.7099 95.8799 78.6999 95.7999 78.7499Z" fill="url(#paint17_linear)"/>
<path d="M90.18 75.6199C89.93 75.1599 89.94 74.6799 90.19 74.5199L91.95 73.4499L91.24 72.1899C91.16 72.0499 91.05 71.9399 90.94 71.8699C90.83 71.7999 90.71 71.7899 90.63 71.8499L85.38 75.6999C85.14 75.8699 85.14 76.3299 85.38 76.7699L90.54 86.6099C90.64 86.7999 90.77 86.9299 90.91 87.0099C91.05 87.0899 91.18 87.0999 91.28 87.0299L91.88 86.5899L90.17 83.5499C89.92 83.0899 89.91 82.6099 90.16 82.4399L92.62 80.8099C92.8 80.6899 92.8 80.3499 92.62 80.0299L90.18 75.6199Z" fill="url(#paint18_linear)"/>
<path d="M96.3999 86.1699L97.2899 85.6499L94.2699 87.7299L93.3799 88.2399L96.3999 86.1699Z" fill="#DA75BF"/>
<path d="M93.52 81.72L94.41 81.2L96.71 85.25L95.82 85.7599L93.52 81.72Z" fill="#F2F1F0"/>
<path d="M97.36 85.6299L96.47 86.1499C96.47 86.1499 96.48 86.1499 96.48 86.1399L97.37 85.6199C97.36 85.6299 97.36 85.6299 97.36 85.6299Z" fill="#F2F1F0"/>
<path d="M93.52 80.1399L94.41 79.6199C94.04 79.8499 94.03 80.5499 94.41 81.2099L93.52 81.7299C93.14 81.0699 93.15 80.3699 93.52 80.1399Z" fill="#F2F1F0"/>
<path d="M95.8 78.7497L96.69 78.2397L94.41 79.6197L93.52 80.1397L95.8 78.7497Z" fill="#F2F1F0"/>
<path d="M95.8 78.7497L96.69 78.2297L95.8 78.7497Z" fill="#F2F1F0"/>
<path d="M96.5701 79.3699L97.4601 78.8499L99.5401 82.6898L98.6501 83.2099L96.5701 79.3699Z" fill="#E796C9"/>
<path d="M98.5501 82.9999C98.5901 83.0699 98.6201 83.1399 98.6501 83.2099L96.5701 79.3699L98.5501 82.9999Z" fill="#F2F1F0"/>
<path d="M99.69 82.9597L99.55 82.6897C99.52 82.6197 99.49 82.5497 99.45 82.4797L97.47 78.8397L97.35 78.6197C97.35 78.6097 97.34 78.5997 97.33 78.5897C97.24 78.4397 97.13 78.3197 97.01 78.2597C96.9 78.1897 96.78 78.1797 96.69 78.2297L95.8 78.7497C95.89 78.6997 96 78.7197 96.12 78.7797C96.23 78.8497 96.35 78.9597 96.44 79.1097C96.44 79.1197 96.45 79.1297 96.46 79.1397L96.58 79.3597L98.56 82.9997C98.6 83.0697 98.63 83.1397 98.66 83.2097L98.8 83.4797C99.04 83.9197 99.04 84.3797 98.8 84.5397L97.19 85.6597C97.14 85.6497 97.09 85.6297 97.05 85.6097C96.93 85.5397 96.82 85.4197 96.73 85.2697L95.84 85.7897C95.93 85.9497 96.05 86.0597 96.16 86.1297C96.25 86.1797 96.34 86.1997 96.41 86.1797L96.6 86.0697L96.49 86.1497L97.38 85.6297L99.69 84.0297C99.92 83.8497 99.92 83.3897 99.69 82.9597Z" fill="#CE7CBF"/>
<path d="M96.1199 78.7798C96.2299 78.8498 96.3499 78.9598 96.4399 79.1098C96.4399 79.1198 96.4499 79.1298 96.4599 79.1398L96.5799 79.3598L98.6599 83.1998L98.7999 83.4698C99.0399 83.9098 99.0399 84.3698 98.7999 84.5298L96.4899 86.1298C96.4599 86.1498 96.4399 86.1598 96.4099 86.1598C96.3299 86.1798 96.2499 86.1598 96.1599 86.1098C96.0399 86.0398 95.9299 85.9198 95.8399 85.7698L93.5399 81.7198C93.1599 81.0598 93.1599 80.3598 93.5399 80.1298L95.8199 78.7498C95.8799 78.6998 95.9999 78.7098 96.1199 78.7798Z" fill="url(#paint19_linear)"/>
<g opacity="0.3">
<path opacity="0.4" d="M96.1701 113.8L86.6001 108.11L85.7001 108.45C85.5201 108.53 85.5101 108.78 85.6801 108.87L94.8501 114.31C95.1501 114.49 95.5301 114.49 95.8301 114.31L96.1701 114.06C96.2501 113.99 96.2801 113.85 96.1701 113.8Z" fill="#1F1D20"/>
</g>
<path d="M94.7502 101.09L95.6202 100.58L95.6102 104.56L94.7402 105.07L94.7502 101.09Z" fill="url(#paint20_linear)"/>
<path d="M87.2903 95.7699C87.1203 95.6699 86.9802 95.6699 86.8802 95.7299L86.0103 96.2299C86.1103 96.1699 86.2502 96.1799 86.4202 96.2699L94.7503 101.08L95.6203 100.57L87.2903 95.7699Z" fill="url(#paint21_linear)"/>
<path d="M94.7502 101.09L94.7402 105.07L90.4602 105.48L85.9802 97.1298C85.6502 96.5198 85.9102 95.9898 86.4102 96.2798L94.7502 101.09Z" fill="url(#paint22_linear)"/>
<path d="M97.1402 105.64L98.0102 105.13L90.8602 110.13L89.9902 110.64L97.1402 105.64Z" fill="#0078D4"/>
<path d="M94.7402 101.13L95.6102 100.62L98.0102 105.13L97.1402 105.64L94.7402 101.13Z" fill="url(#paint23_linear)"/>
<path d="M94.7401 101.13L97.1401 105.64L89.9901 110.64L86.3301 108.52C85.8801 108.26 85.6501 107.52 85.9501 107.31L94.7401 101.13Z" fill="url(#paint24_linear)"/>
<path d="M100.11 108.96L98.0701 105.13L97.2001 105.64L99.2401 109.47C99.4401 109.85 99.4401 110.25 99.2301 110.39L94.8601 113.33L95.7301 112.82L100.1 109.88C100.31 109.74 100.31 109.34 100.11 108.96Z" fill="url(#paint25_linear)"/>
<path d="M97.1902 105.63L99.2302 109.46C99.4302 109.84 99.4302 110.24 99.2202 110.38L94.8502 113.32C94.7802 113.37 94.6902 113.36 94.5902 113.3L89.9302 110.61L97.1902 105.63Z" fill="url(#paint26_linear)"/>
<g opacity="0.3">
<path opacity="0.4" d="M94.9601 141.3L86.5901 136.25C86.4501 136.17 86.2801 136.15 86.1201 136.21L85.4801 136.47C85.3301 136.53 85.3201 136.74 85.4601 136.82L93.7301 141.79C93.9801 141.94 94.2901 141.94 94.5401 141.79L94.9601 141.51C95.0201 141.46 95.0501 141.35 94.9601 141.3Z" fill="#1F1D20"/>
</g>
<path d="M95.67 131.17L95.65 138.45C95.65 138.62 95.59 138.74 95.49 138.8L96.28 138.34C96.38 138.28 96.44 138.16 96.44 137.99L96.46 130.71L95.67 131.17Z" fill="url(#paint27_linear)"/>
<path d="M86.71 125.08C86.56 124.99 86.42 124.99 86.32 125.04L85.53 125.5C85.63 125.44 85.76 125.45 85.92 125.54L95.67 131.17L96.46 130.71L86.71 125.08Z" fill="url(#paint28_linear)"/>
<path d="M95.6701 131.17L95.6501 138.45C95.6501 138.8 95.4101 138.93 95.1101 138.76L92.1501 137.05L89.3401 138.62C89.2701 138.66 89.1801 138.64 89.0901 138.6C88.9101 138.5 88.7401 138.23 88.7401 137.99L88.7501 135.75C88.7501 135.39 88.5001 134.95 88.1801 134.77L85.8901 133.45C85.5901 133.28 85.3501 132.86 85.3501 132.51L85.3701 125.86C85.3701 125.51 85.6101 125.38 85.9101 125.55L95.6701 131.17Z" fill="url(#paint29_linear)"/>
<path d="M95.83 135.3C95.73 135.36 95.67 135.48 95.67 135.65L95.66 137.89C95.66 138.02 95.61 138.11 95.54 138.15L96.33 137.69C96.4 137.65 96.45 137.56 96.45 137.43L96.46 135.19C96.46 135.02 96.52 134.89 96.62 134.84L95.83 135.3Z" fill="#28A3BF"/>
<path d="M99.1302 134.39L99.1202 136.39C99.1202 136.56 99.0602 136.68 98.9602 136.74L99.7502 136.28C99.8502 136.22 99.9102 136.1 99.9102 135.93L99.9202 133.93L99.1302 134.39Z" fill="#28A3BF"/>
<path d="M99.1401 131.65L99.9401 131.19L99.9301 133.94L99.1301 134.4L99.1401 131.65Z" fill="#2DBFE0"/>
<path d="M88.77 125.66L89.56 125.2L99.93 131.18L99.13 131.64L88.77 125.66Z" fill="#F2F1F0"/>
<path d="M98.58 128.79C98.89 128.97 99.14 129.4 99.14 129.76V131.65L88.77 125.66V123.77C88.77 123.41 89.02 123.27 89.33 123.45L98.58 128.79Z" fill="#4CCBED"/>
<path d="M99.3802 128.33L90.1302 122.99C89.9702 122.9 89.8302 122.89 89.7302 122.95L88.9402 123.41C89.0402 123.35 89.1802 123.36 89.3402 123.45L98.5902 128.79C98.9002 128.97 99.1502 129.4 99.1502 129.76V131.65L99.9402 131.19V129.3C99.9402 128.94 99.6902 128.51 99.3802 128.33Z" fill="#7CE4FC"/>
<path d="M88.76 128.41L99.13 134.4L99.12 136.4C99.12 136.75 98.88 136.88 98.58 136.71L96.22 135.34C95.92 135.16 95.67 135.31 95.67 135.66L95.66 137.9C95.66 138.18 95.46 138.25 95.25 138.13C95.15 138.07 95.05 137.97 94.97 137.83L92.33 133.24C92.24 133.09 92.13 132.97 92.01 132.91L89.22 131.3C88.97 131.15 88.76 130.8 88.76 130.51V128.41Z" fill="#128AA9"/>
<path d="M99.14 131.65L99.13 134.4L88.76 128.41V127.84L88.77 125.66L99.14 131.65Z" fill="#17AAD2"/>
<path d="M63.0199 76.8102C63.7699 77.2402 64.3699 78.2802 64.3699 79.1402L64.2199 131.03C64.2199 131.89 63.6199 132.23 62.8599 131.8L28.2699 111.82C27.5199 111.39 26.9199 110.35 26.9199 109.5L27.0699 57.6102C27.0699 56.7502 27.6699 56.4002 28.4299 56.8402L36.1599 61.3102C35.9699 61.9702 36.0399 62.9202 36.4799 64.0702C36.8999 65.1502 37.6899 66.1002 38.5299 66.5702L52.7199 74.7602C54.4299 75.7502 55.7699 74.6602 55.2999 72.3302L63.0199 76.8102Z" fill="#F2F2F2"/>
<path d="M65.1698 78.6801C65.1698 77.8201 64.5698 76.7801 63.8198 76.3501L56.0898 71.8901L55.2998 72.3501L63.0298 76.8101C63.7798 77.2401 64.3798 78.2801 64.3798 79.1401L64.2298 131.03L64.4898 130.87L64.2298 131.03C64.2298 131.45 64.0798 131.75 63.8498 131.89L64.6398 131.43C64.8798 131.29 65.0198 130.99 65.0198 130.57L65.1698 78.6801Z" fill="#D1CDD3"/>
<path d="M36.17 61.3001L36.96 60.8401C36.77 61.5101 36.84 62.4601 37.28 63.6101C37.7 64.6901 38.49 65.6401 39.33 66.1101L38.54 66.5701C37.7 66.0901 36.91 65.1401 36.49 64.0701C36.04 62.9201 35.98 61.9701 36.17 61.3001Z" fill="#F2F2F2"/>
<path d="M46.54 64.7603C47.03 65.0403 47.46 65.0703 47.77 64.8803L46.97 65.3403C46.65 65.5203 46.22 65.5003 45.74 65.2203C45.97 65.0803 46.29 64.9003 46.54 64.7603Z" fill="#1F56A3"/>
<path d="M44.81 61.7601C44.81 62.8701 45.58 64.1901 46.54 64.7601L45.75 65.2201C44.79 64.6701 44.02 63.3301 44.02 62.2201C44.27 62.0701 44.53 61.9201 44.81 61.7601C44.55 61.9201 44.28 62.0701 44.02 62.2201C44.02 61.6801 44.21 61.2901 44.53 61.1101L45.32 60.6501C45 60.8401 44.81 61.2201 44.81 61.7601Z" fill="#1F56A3"/>
<path d="M44.51 61.1202L45.3 60.6602C45.62 60.4802 46.05 60.5002 46.53 60.7802L45.74 61.2402C45.26 60.9602 44.83 60.9402 44.51 61.1202Z" fill="#F9F9F9"/>
<path d="M47.77 64.8903L46.97 65.3503C47.28 65.1703 47.47 64.7803 47.48 64.2403C47.48 63.1403 46.71 61.7903 45.75 61.2403L46.54 60.7803C47.5 61.3303 48.27 62.6803 48.27 63.7803C48.27 64.3203 48.08 64.7103 47.77 64.8903Z" fill="#F9F9F9"/>
<path d="M55.41 74.4901L54.62 74.9501C54.13 75.2301 53.47 75.1901 52.73 74.7701L53.52 74.3101C54.26 74.7401 54.93 74.7701 55.41 74.4901Z" fill="#F2F2F2"/>
<path d="M29.23 56.3602C28.86 56.1402 28.52 56.1202 28.27 56.2702L27.48 56.7302C27.73 56.5802 28.07 56.6102 28.44 56.8202L36.17 61.2902L36.96 60.8302L29.23 56.3602Z" fill="#D1CDD3"/>
<path d="M39.5399 60.1001C38.7899 59.6701 38.1199 59.6401 37.6399 59.9201L36.8499 60.3801C37.3399 60.1001 37.9999 60.1401 38.7399 60.5601L41.3699 62.0801L42.1599 61.6201L39.5399 60.1001Z" fill="#124787"/>
<path d="M38.53 66.5901L39.32 66.1301L53.51 74.3201L52.72 74.7801L38.53 66.5901Z" fill="#F2F2F2"/>
<path d="M50.0999 67.1302L50.8999 66.6702L53.7099 68.2902L52.9199 68.7502L50.0999 67.1302Z" fill="#124787"/>
<path d="M48.8699 60.5502C48.0799 59.6102 47.2999 58.9402 46.5499 58.5102C45.3299 57.8102 44.2199 57.7402 43.4299 58.2002L42.6399 58.6602C43.4399 58.2002 44.5399 58.2602 45.7599 58.9702C46.5099 59.4002 47.2999 60.0702 48.0799 61.0102C49.3699 62.5502 50.1399 64.5902 50.1399 66.2602V66.6802C50.1399 66.8302 50.1299 66.9702 50.1299 67.1202L50.9199 66.6602C50.9299 66.5102 50.9299 66.3702 50.9299 66.2202V65.8002C50.9299 64.1302 50.1599 62.0902 48.8699 60.5502Z" fill="#124787"/>
<path d="M55.4099 74.4901L54.6199 74.9501C55.2499 74.5801 55.5699 73.6601 55.2999 72.3301L56.0899 71.8701C56.3699 73.2001 56.0499 74.1301 55.4099 74.4901Z" fill="#124787"/>
<path d="M52.9199 68.7503L53.7099 68.2903C54.5499 68.7803 55.3399 69.7203 55.7599 70.7903C55.9099 71.1703 56.0199 71.5503 56.0899 71.8903L55.2999 72.3503C55.2299 72.0103 55.1299 71.6503 54.9699 71.2503C54.5499 70.1803 53.7599 69.2403 52.9199 68.7503Z" fill="#124787"/>
<path d="M55.2999 72.3402C55.7799 74.6702 54.4299 75.7602 52.7199 74.7702L38.5299 66.5802C37.6899 66.0902 36.8999 65.1402 36.4799 64.0702C36.0399 62.9202 35.9699 61.9602 36.1599 61.3002C36.4899 60.2002 37.5099 59.8602 38.7299 60.5602L41.3599 62.0802C41.3499 61.9202 41.3399 61.7602 41.3399 61.6202V61.5002C41.3399 58.7102 43.3199 57.5902 45.7399 58.9902C46.4899 59.4202 47.2799 60.0902 48.0599 61.0302C49.3499 62.5702 50.1199 64.6102 50.1199 66.2802V66.7002C50.1199 66.8502 50.1099 66.9902 50.1099 67.1402L52.9199 68.7602C53.7599 69.2502 54.5499 70.1902 54.9699 71.2602C55.1199 71.6402 55.2199 72.0002 55.2999 72.3402ZM45.7299 65.2302C46.6899 65.7802 47.4599 65.3402 47.4699 64.2302C47.4699 63.1302 46.6999 61.7802 45.7399 61.2302C44.7799 60.6802 44.0099 61.1302 43.9999 62.2302C43.9999 63.3402 44.7699 64.6702 45.7299 65.2302Z" fill="#1F56A3"/>
<path d="M45.75 61.2402C46.71 61.7902 47.48 63.1402 47.48 64.2402C47.48 65.3502 46.7 65.7902 45.74 65.2402C44.78 64.6902 44.01 63.3502 44.01 62.2402C44.01 61.1302 44.78 60.6802 45.75 61.2402Z" fill="#F9F9F9"/>
<g opacity="0.3">
<path opacity="0.4" d="M43.9799 90.4001L34.7899 85.1101L33.4299 85.7201C33.2899 85.7801 33.2799 85.9801 33.4099 86.0501L42.2799 91.1401C42.5199 91.2801 42.8099 91.2801 43.0499 91.1401L43.9699 90.6001C44.0399 90.5501 44.0599 90.4401 43.9799 90.4001Z" fill="#1F1D20"/>
</g>
<path d="M38.6699 77.3901L38.6799 74.5601C38.6799 74.0701 39.0299 73.8701 39.4599 74.1201L42.6699 75.9701C43.0999 76.2201 43.4499 76.8201 43.4399 77.3101L43.3999 90.1201C43.3999 90.6101 43.0499 90.8101 42.6199 90.5601L39.2699 88.6201C38.8799 88.3901 38.6399 87.9701 38.6399 87.5201L38.6699 77.3901Z" fill="url(#paint30_linear)"/>
<path d="M43.3899 75.5502L40.1799 73.7002C39.9599 73.5802 39.7699 73.5602 39.6299 73.6502L38.9099 74.0702C39.0499 73.9902 39.2499 74.0002 39.4599 74.1202L42.6699 75.9702C43.0999 76.2202 43.4499 76.8202 43.4399 77.3102L43.3999 90.1202C43.3999 90.3602 43.3099 90.5402 43.1699 90.6202L43.8899 90.2002C44.0299 90.1202 44.1199 89.9502 44.1199 89.7002L44.1599 76.8902C44.1699 76.4002 43.8199 75.8002 43.3899 75.5502Z" fill="url(#paint31_linear)"/>
<path d="M39.81 78.0102C40.18 78.2302 40.49 78.7502 40.49 79.1802L40.4599 88.4902C40.4599 88.9202 40.1599 89.1002 39.7799 88.8802L38.38 88.0702L35.7 86.5202L37.02 87.2802C37.5 87.5602 37.9 87.3402 37.9 86.7802L35.7099 83.1302L35.72 76.4402C35.72 76.0102 36.03 75.8402 36.4 76.0502L38.4 77.2102L39.81 78.0102Z" fill="url(#paint32_linear)"/>
<path d="M40.5299 77.5903L39.1299 76.7803L37.1199 75.6203C36.9299 75.5103 36.7599 75.5003 36.6399 75.5703L35.9199 75.9903C36.0399 75.9203 36.2099 75.9303 36.3999 76.0403L38.3999 77.2003L39.7999 78.0103C40.1699 78.2303 40.4799 78.7503 40.4799 79.1803L40.4499 88.4903C40.4499 88.7103 40.3799 88.8603 40.2499 88.9303L40.9699 88.5103C41.0899 88.4403 41.1699 88.2903 41.1699 88.0703L41.1999 78.7603C41.2099 78.3303 40.9099 77.8003 40.5299 77.5903Z" fill="url(#paint33_linear)"/>
<path d="M35.6899 86.5201L36.4099 86.1001L37.7299 86.8601L37.0099 87.2801L35.6899 86.5201Z" fill="#4CC8EF"/>
<path d="M38.3698 86.9201L37.6498 87.3401C37.4898 87.4301 37.2698 87.4201 37.0198 87.2801L37.7398 86.8601C37.9798 87.0001 38.2098 87.0201 38.3698 86.9201Z" fill="#4CC8EF"/>
<path d="M37.7599 79.5703L36.4399 78.8003L34.7599 77.8303C34.5199 77.6903 34.2899 77.6703 34.1299 77.7703L33.4099 78.1903C33.5699 78.1003 33.7899 78.1103 34.0399 78.2503L35.7199 79.2203L37.0399 79.9903C37.5299 80.2703 37.9199 80.9503 37.9199 81.5103L37.8999 86.7703C37.8999 87.0503 37.7999 87.2403 37.6399 87.3403L38.3599 86.9203C38.5199 86.8303 38.6199 86.6303 38.6199 86.3503L38.6399 81.0903C38.6399 80.5303 38.2499 79.8503 37.7599 79.5703Z" fill="url(#paint34_linear)"/>
<path d="M37.0399 79.9902C37.5299 80.2702 37.9199 80.9502 37.9199 81.5102L37.8999 86.7702C37.8999 87.3302 37.4999 87.5602 37.0099 87.2702L35.6899 86.5102L34.0099 85.5402C33.5199 85.2602 33.1299 84.5802 33.1299 84.0202L33.1499 78.7602C33.1499 78.2002 33.5499 77.9702 34.0399 78.2502L35.7199 79.2202L37.0399 79.9902Z" fill="url(#paint35_linear)"/>
<g opacity="0.3">
<path opacity="0.4" d="M42.0102 107.57L36.1302 104.11C35.9302 103.99 35.6802 103.98 35.4702 104.07L34.4602 104.53C34.3202 104.59 34.3102 104.79 34.4402 104.86L40.3302 108.31C40.5702 108.45 40.8602 108.45 41.1002 108.31L42.0202 107.77C42.0702 107.72 42.0902 107.61 42.0102 107.57Z" fill="#1F1D20"/>
</g>
<path d="M38.0601 105.23L37.5901 105.58C37.5801 105.58 37.5801 105.59 37.5701 105.59L38.2701 105.18C38.2801 105.18 38.2801 105.17 38.2901 105.17L38.7601 104.82L38.0601 105.23Z" fill="#8B2A80"/>
<path d="M36.7302 96.5999L37.4302 96.1899L39.3402 99.6699L38.6402 100.08L36.7302 96.5999Z" fill="#F2F1F0"/>
<path d="M36.7501 95.7301L37.4501 95.3201C37.2501 95.4401 37.2401 95.8201 37.4401 96.1901L36.7401 96.6001C36.5401 96.2401 36.5401 95.8601 36.7501 95.7301Z" fill="#F2F1F0"/>
<path d="M38.13 94.89L38.83 94.48L37.45 95.32L36.75 95.73L38.13 94.89Z" fill="#F2F1F0"/>
<path d="M38.2701 93.49C38.2101 93.38 38.1201 93.29 38.0401 93.24C37.9601 93.19 37.8701 93.18 37.8101 93.22L37.1101 93.63C37.1701 93.59 37.2601 93.6 37.3401 93.65C37.4201 93.7 37.5101 93.79 37.5701 93.9L38.1301 94.89L38.8301 94.48L38.2701 93.49Z" fill="#8B2A80"/>
<path d="M39.9701 94.5599C39.8801 94.3999 39.7601 94.2799 39.6401 94.2099C39.5201 94.1399 39.4101 94.1299 39.3201 94.1799L38.6201 94.5899C38.7101 94.5399 38.8201 94.5599 38.9401 94.6199C39.0601 94.6899 39.1801 94.8099 39.2701 94.9699L41.6501 99.3499L42.3501 98.9399L39.9701 94.5599Z" fill="#C661B0"/>
<path d="M41.1501 99.0601L39.3601 100.15C39.0701 100.33 39.0601 100.88 39.3601 101.4L41.1701 104.58C41.2401 104.7 41.3301 104.8 41.4201 104.85C41.4901 104.89 41.5601 104.91 41.6201 104.89L39.2401 106.52C39.1501 106.58 39.0301 106.57 38.9101 106.5C38.7901 106.43 38.6701 106.31 38.5901 106.16L38.0601 105.23L36.7101 102.84C36.5101 102.48 36.5101 102.1 36.7001 101.97L38.6401 100.69C38.7801 100.6 38.7801 100.33 38.6401 100.07L36.7301 96.6001C36.5301 96.2401 36.5401 95.8601 36.7401 95.7301L38.1201 94.8901L38.6201 94.5901C38.7101 94.5401 38.8301 94.5501 38.9401 94.6201C39.0601 94.6901 39.1801 94.8101 39.2701 94.9701L41.6501 99.3501C41.5801 99.2301 41.4901 99.1401 41.4001 99.0901C41.3101 99.0301 41.2201 99.0201 41.1501 99.0601Z" fill="url(#paint36_linear)"/>
<path d="M36.7301 96.6001C36.5301 96.2401 36.5401 95.86 36.7401 95.73L38.1201 94.8901L37.5601 93.9C37.5001 93.79 37.4101 93.7 37.3301 93.65C37.2401 93.6 37.1501 93.5901 37.0801 93.6401L32.9501 96.66C32.7601 96.8 32.7601 97.1501 32.9501 97.5001L37.0101 105.24C37.0901 105.39 37.1901 105.5 37.3001 105.56C37.4101 105.62 37.5101 105.63 37.5901 105.58L38.0601 105.23L36.7101 102.84C36.5101 102.48 36.5101 102.1 36.7001 101.97L38.6401 100.69C38.7801 100.6 38.7801 100.33 38.6401 100.07L36.7301 96.6001Z" fill="url(#paint37_linear)"/>
<path d="M41.6202 104.9L42.3202 104.49L39.9402 106.12L39.2402 106.52L41.6202 104.9Z" fill="#DA75BF"/>
<path d="M39.3601 101.4L40.0601 100.99L41.8701 104.18L41.1701 104.58L39.3601 101.4Z" fill="#F2F1F0"/>
<path d="M42.3702 104.47L41.6702 104.88C41.6702 104.88 41.6802 104.88 41.6802 104.87L42.3802 104.46C42.3802 104.47 42.3802 104.47 42.3702 104.47Z" fill="#F2F1F0"/>
<path d="M39.3602 100.15L40.0602 99.74C39.7702 99.92 39.7602 100.47 40.0602 100.99L39.3602 101.4C39.0602 100.88 39.0702 100.33 39.3602 100.15Z" fill="#F2F1F0"/>
<path d="M41.1501 99.0599L41.8501 98.6599L40.0601 99.7499L39.3601 100.16L41.1501 99.0599Z" fill="#F2F1F0"/>
<path d="M41.1501 99.0599L41.8501 98.6499L41.1501 99.0599Z" fill="#F2F1F0"/>
<path d="M41.76 99.5499L42.46 99.1399L44.09 102.16L43.39 102.57L41.76 99.5499Z" fill="#E796C9"/>
<path d="M43.31 102.4C43.34 102.45 43.37 102.51 43.39 102.56L41.76 99.54L43.31 102.4Z" fill="#F2F1F0"/>
<path d="M44.2102 102.37L44.1002 102.16C44.0802 102.11 44.0502 102.05 44.0202 102L42.4602 99.14L42.3702 98.97C42.3702 98.96 42.3602 98.95 42.3602 98.95C42.2902 98.83 42.2002 98.7399 42.1102 98.6899C42.0202 98.6399 41.9302 98.62 41.8602 98.66L41.1602 99.07C41.2302 99.03 41.3202 99.04 41.4102 99.1C41.5002 99.15 41.5902 99.24 41.6602 99.36C41.6602 99.37 41.6702 99.38 41.6702 99.38L41.7602 99.55L43.3202 102.41C43.3502 102.46 43.3802 102.52 43.4002 102.57L43.5102 102.78C43.7002 103.12 43.7002 103.49 43.5102 103.62L42.2402 104.5C42.2002 104.49 42.1602 104.48 42.1302 104.46C42.0402 104.41 41.9502 104.31 41.8802 104.19L41.1802 104.6C41.2502 104.72 41.3402 104.82 41.4302 104.87C41.5002 104.91 41.5702 104.93 41.6302 104.91L41.7802 104.82L41.6902 104.88L42.3902 104.47L44.2102 103.21C44.3902 103.07 44.3902 102.71 44.2102 102.37Z" fill="#CE7CBF"/>
<path d="M41.4 99.0901C41.49 99.1401 41.58 99.2301 41.65 99.3501C41.65 99.3601 41.66 99.3701 41.66 99.3701L41.75 99.5401L43.38 102.56L43.49 102.77C43.68 103.11 43.68 103.48 43.49 103.61L41.67 104.87C41.65 104.88 41.63 104.89 41.61 104.9C41.55 104.91 41.48 104.9 41.41 104.86C41.32 104.81 41.23 104.71 41.16 104.59L39.35 101.41C39.05 100.89 39.05 100.34 39.35 100.16L41.14 99.0701C41.22 99.0201 41.31 99.0301 41.4 99.0901Z" fill="url(#paint38_linear)"/>
<g opacity="0.3">
<path opacity="0.4" d="M56.3899 97.7503L48.8699 93.2803L48.1599 93.5403C48.0199 93.6003 48.0099 93.8003 48.1399 93.8703L55.3499 98.1403C55.5899 98.2803 55.8799 98.2803 56.1199 98.1403L56.3899 97.9403C56.4499 97.9103 56.4799 97.8003 56.3899 97.7503Z" fill="#1F1D20"/>
</g>
<path d="M55.02 84.8004L55.71 84.4004L55.7 87.5304L55.01 87.9304L55.02 84.8004Z" fill="url(#paint39_linear)"/>
<path d="M49.1499 80.6203C49.0199 80.5503 48.9099 80.5403 48.8299 80.5903L48.1399 80.9903C48.2199 80.9503 48.3299 80.9503 48.4599 81.0203L55.0099 84.8003L55.6999 84.4003L49.1499 80.6203Z" fill="url(#paint40_linear)"/>
<path d="M55.0199 84.8002L55.0099 87.9302L51.6499 88.2502L48.1299 81.6902C47.8699 81.2102 48.0799 80.8002 48.4699 81.0202L55.0199 84.8002Z" fill="url(#paint41_linear)"/>
<path d="M56.89 88.3802L57.58 87.9802L51.96 91.9102L51.27 92.3102L56.89 88.3802Z" fill="#0078D4"/>
<path d="M55.01 84.8304L55.7 84.4304L57.59 87.9704L56.9 88.3704L55.01 84.8304Z" fill="url(#paint42_linear)"/>
<path d="M55.0099 84.8303L56.8999 88.3703L51.2799 92.3003L48.3999 90.6403C48.0499 90.4403 47.8699 89.8603 48.0999 89.6903L55.0099 84.8303Z" fill="url(#paint43_linear)"/>
<path d="M59.2299 90.9902L57.6299 87.9802L56.9399 88.3802L58.5399 91.3902C58.6999 91.6902 58.6999 92.0002 58.5299 92.1102L55.0999 94.4202L55.7799 94.0202L59.2099 91.7102C59.3799 91.6002 59.3899 91.2902 59.2299 90.9902Z" fill="url(#paint44_linear)"/>
<path d="M56.94 88.3704L58.54 91.3804C58.7 91.6804 58.7 91.9904 58.53 92.1004L55.09 94.4104C55.04 94.4504 54.97 94.4404 54.89 94.4004L51.23 92.2904L56.94 88.3704Z" fill="url(#paint45_linear)"/>
<g opacity="0.3">
<path opacity="0.4" d="M53.2301 113.82L46.6501 109.85C46.5401 109.78 46.4001 109.77 46.2801 109.82L45.7801 110.02C45.6701 110.07 45.6601 110.23 45.7701 110.3L52.2701 114.21C52.4701 114.32 52.7101 114.32 52.9101 114.21L53.2401 113.99C53.2801 113.94 53.3001 113.85 53.2301 113.82Z" fill="#1F1D20"/>
</g>
<path d="M53.9501 105.85L53.9301 111.57C53.9301 111.7 53.8801 111.8 53.8101 111.84L54.4301 111.48C54.5101 111.44 54.5501 111.34 54.5501 111.21L54.5701 105.49L53.9501 105.85Z" fill="url(#paint46_linear)"/>
<path d="M46.91 101.06C46.79 100.99 46.68 100.99 46.61 101.03L45.99 101.39C46.07 101.35 46.17 101.35 46.29 101.42L53.95 105.85L54.57 105.49L46.91 101.06Z" fill="url(#paint47_linear)"/>
<path d="M53.9501 105.85L53.9301 111.57C53.9301 111.84 53.7401 111.95 53.5001 111.81L51.1801 110.47L48.9801 111.7C48.9201 111.73 48.8501 111.72 48.7901 111.68C48.6501 111.6 48.5101 111.39 48.5101 111.2L48.5201 109.44C48.5201 109.16 48.3201 108.81 48.0701 108.67L46.2701 107.63C46.0301 107.49 45.8501 107.17 45.8501 106.89L45.8601 101.66C45.8601 101.39 46.0501 101.28 46.2901 101.42L53.9501 105.85Z" fill="url(#paint48_linear)"/>
<path d="M54.0701 109.1C53.9901 109.14 53.9401 109.24 53.9401 109.38L53.9301 111.14C53.9301 111.24 53.8901 111.31 53.8401 111.34L54.4601 110.98C54.5101 110.95 54.5501 110.88 54.5501 110.78L54.5601 109.02C54.5601 108.88 54.6101 108.79 54.6901 108.74L54.0701 109.1Z" fill="#28A3BF"/>
<path d="M56.67 108.39L56.66 109.96C56.66 110.09 56.61 110.19 56.54 110.23L57.16 109.87C57.24 109.83 57.28 109.73 57.28 109.6L57.29 108.03L56.67 108.39Z" fill="#28A3BF"/>
<path d="M56.6702 106.23L57.3002 105.87L57.2902 108.03L56.6602 108.39L56.6702 106.23Z" fill="#2DBFE0"/>
<path d="M48.52 101.52L49.14 101.16L57.29 105.86L56.66 106.22L48.52 101.52Z" fill="#F2F1F0"/>
<path d="M56.24 103.98C56.48 104.12 56.68 104.46 56.68 104.74V106.23L48.53 101.52V100.03C48.53 99.7502 48.73 99.6402 48.97 99.7802L56.24 103.98Z" fill="#4CCBED"/>
<path d="M56.8602 103.62L49.5902 99.4201C49.4702 99.3501 49.3602 99.3401 49.2802 99.3901L48.6602 99.7501C48.7402 99.7001 48.8502 99.7101 48.9702 99.7801L56.2402 103.98C56.4802 104.12 56.6802 104.46 56.6802 104.74V106.23L57.3002 105.87V104.38C57.3002 104.1 57.1102 103.76 56.8602 103.62Z" fill="#7CE4FC"/>
<path d="M48.52 103.68L56.67 108.39L56.66 109.96C56.66 110.23 56.47 110.34 56.23 110.2L54.37 109.13C54.13 108.99 53.94 109.1 53.94 109.38L53.93 111.14C53.93 111.36 53.77 111.41 53.61 111.32C53.53 111.28 53.45 111.2 53.39 111.09L51.31 107.48C51.24 107.36 51.15 107.27 51.06 107.22L48.87 105.95C48.67 105.83 48.51 105.56 48.51 105.33L48.52 103.68Z" fill="#128AA9"/>
<path d="M56.67 106.23L56.66 108.39L48.51 103.68V103.23L48.52 101.52L56.67 106.23Z" fill="#17AAD2"/>
<path d="M60.5799 119.11C58.7199 118.04 57.0299 117.94 55.8099 118.65L53.8699 119.78C55.0999 119.07 56.7899 119.17 58.6499 120.24L60.5599 119.13L58.6499 120.25C62.3499 122.38 65.3499 127.56 65.3499 131.83C65.3399 133.94 64.5999 135.44 63.3899 136.13L65.3199 135.01C66.5299 134.32 67.2799 132.82 67.2799 130.7C67.2799 126.43 64.2799 121.25 60.5799 119.11Z" fill="#0D3868"/>
<path d="M58.6499 120.24C62.3499 122.37 65.3499 127.56 65.3499 131.82C65.3399 136.09 62.3099 137.8 58.5999 135.66C54.8799 133.52 51.8999 128.35 51.9099 124.09C51.9199 119.82 54.9499 118.1 58.6499 120.24Z" fill="#1A2C45"/>
<path d="M62.05 126.42L63.02 128.12L57.14 131.48L54.71 127.23L55.68 126.69L57.15 129.2L62.05 126.42Z" fill="white"/>
<path d="M142.26 125.57C140.4 124.5 138.71 124.4 137.49 125.11L135.55 126.24C136.78 125.53 138.47 125.63 140.33 126.7L142.24 125.59L140.33 126.71C144.03 128.84 147.03 134.02 147.03 138.29C147.02 140.4 146.28 141.9 145.07 142.59L147 141.47C148.21 140.78 148.96 139.28 148.96 137.16C148.96 132.89 145.95 127.7 142.26 125.57Z" fill="#0D3868"/>
<path d="M140.33 126.7C144.03 128.83 147.03 134.02 147.03 138.28C147.02 142.55 143.99 144.26 140.28 142.12C136.56 139.98 133.58 134.81 133.59 130.55C133.6 126.28 136.63 124.56 140.33 126.7Z" fill="#1A2C45"/>
<path d="M143.72 132.88L144.69 134.58L138.81 137.94L136.38 133.69L137.35 133.15L138.82 135.66L143.72 132.88Z" fill="white"/>
<defs>
<linearGradient id="paint0_linear" x1="90.4997" y1="9.84009" x2="90.4997" y2="181.24" gradientUnits="userSpaceOnUse">
<stop stop-color="#00ABDE"/>
<stop offset="1" stop-color="#007ED8"/>
</linearGradient>
<linearGradient id="paint1_linear" x1="36.6196" y1="4.63106" x2="203.296" y2="286.962" gradientUnits="userSpaceOnUse">
<stop stop-color="#007ED8"/>
<stop offset="0.7065" stop-color="#002D4C"/>
</linearGradient>
<linearGradient id="paint2_linear" x1="121.758" y1="109.508" x2="145.058" y2="96.0428" gradientUnits="userSpaceOnUse">
<stop stop-color="#007ED8"/>
<stop offset="0.7065" stop-color="#002D4C"/>
</linearGradient>
<linearGradient id="paint3_linear" x1="119.725" y1="87.6117" x2="143.63" y2="74.9026" gradientUnits="userSpaceOnUse">
<stop stop-color="#007ED8"/>
<stop offset="0.7065" stop-color="#002D4C"/>
</linearGradient>
<linearGradient id="paint4_linear" x1="146.49" y1="27.1098" x2="130.604" y2="70.5325" gradientUnits="userSpaceOnUse">
<stop stop-color="#007ED8"/>
<stop offset="0.7065" stop-color="#002D4C"/>
</linearGradient>
<linearGradient id="paint5_linear" x1="116.032" y1="132.734" x2="145.686" y2="118.965" gradientUnits="userSpaceOnUse">
<stop stop-color="#007ED8"/>
<stop offset="0.7065" stop-color="#002D4C"/>
</linearGradient>
<linearGradient id="paint6_linear" x1="126.163" y1="26.2915" x2="145.529" y2="192.72" gradientUnits="userSpaceOnUse">
<stop stop-color="#007ED8"/>
<stop offset="0.7065" stop-color="#002D4C"/>
</linearGradient>
<linearGradient id="paint7_linear" x1="128.787" y1="25.9861" x2="148.153" y2="192.414" gradientUnits="userSpaceOnUse">
<stop stop-color="#007ED8"/>
<stop offset="0.7065" stop-color="#002D4C"/>
</linearGradient>
<linearGradient id="paint8_linear" x1="131.402" y1="25.6819" x2="150.768" y2="192.11" gradientUnits="userSpaceOnUse">
<stop stop-color="#007ED8"/>
<stop offset="0.7065" stop-color="#002D4C"/>
</linearGradient>
<linearGradient id="paint9_linear" x1="123.548" y1="26.5958" x2="142.914" y2="193.024" gradientUnits="userSpaceOnUse">
<stop stop-color="#007ED8"/>
<stop offset="0.7065" stop-color="#002D4C"/>
</linearGradient>
<linearGradient id="paint10_linear" x1="131.162" y1="51.4852" x2="145.989" y2="75.6929" gradientUnits="userSpaceOnUse">
<stop stop-color="#007ED8"/>
<stop offset="0.7065" stop-color="#002D4C"/>
</linearGradient>
<linearGradient id="paint11_linear" x1="93.0034" y1="45.0002" x2="96.2067" y2="64.9602" gradientUnits="userSpaceOnUse">
<stop offset="0.00753769" stop-color="#E0A310"/>
<stop offset="1" stop-color="#CA810E"/>
</linearGradient>
<linearGradient id="paint12_linear" x1="87.7866" y1="37.5258" x2="103.003" y2="65.8639" gradientUnits="userSpaceOnUse">
<stop offset="0.2739" stop-color="#EFC433"/>
<stop offset="0.691" stop-color="#E0A310"/>
<stop offset="1" stop-color="#CA810E"/>
</linearGradient>
<linearGradient id="paint13_linear" x1="91.6873" y1="44.9332" x2="90.332" y2="61.1969" gradientUnits="userSpaceOnUse">
<stop offset="0.00753769" stop-color="#F2CC40"/>
<stop offset="1" stop-color="#E7B116"/>
</linearGradient>
<linearGradient id="paint14_linear" x1="88.2616" y1="47.1342" x2="102.03" y2="68.9423" gradientUnits="userSpaceOnUse">
<stop offset="0.0528" stop-color="#F6D856"/>
<stop offset="0.4447" stop-color="#EFC433"/>
<stop offset="0.8216" stop-color="#E0A310"/>
<stop offset="1" stop-color="#CA810E"/>
</linearGradient>
<linearGradient id="paint15_linear" x1="80.6514" y1="47.8301" x2="92.4795" y2="58.1181" gradientUnits="userSpaceOnUse">
<stop offset="0.1181" stop-color="#F6EECF"/>
<stop offset="0.6156" stop-color="#F6D856"/>
<stop offset="1" stop-color="#EFC433"/>
</linearGradient>
<linearGradient id="paint16_linear" x1="88.1477" y1="50.3011" x2="87.2852" y2="58.1866" gradientUnits="userSpaceOnUse">
<stop stop-color="#F8E17B"/>
<stop offset="0.5302" stop-color="#F6D856"/>
<stop offset="1" stop-color="#F6D856"/>
</linearGradient>
<linearGradient id="paint17_linear" x1="91.4985" y1="72.9456" x2="95.7238" y2="93.1155" gradientUnits="userSpaceOnUse">
<stop stop-color="#E184C4"/>
<stop offset="1" stop-color="#D76EBC"/>
</linearGradient>
<linearGradient id="paint18_linear" x1="87.5258" y1="71.2794" x2="94.6211" y2="95.515" gradientUnits="userSpaceOnUse">
<stop stop-color="#A23093"/>
<stop offset="1" stop-color="#692266"/>
</linearGradient>
<linearGradient id="paint19_linear" x1="93.1487" y1="75.3156" x2="101.041" y2="94.4492" gradientUnits="userSpaceOnUse">
<stop stop-color="#E89BCA"/>
<stop offset="1" stop-color="#E591C8"/>
</linearGradient>
<linearGradient id="paint20_linear" x1="94.3948" y1="100.859" x2="97.1654" y2="107.806" gradientUnits="userSpaceOnUse">
<stop offset="0.4598" stop-color="#1152D4"/>
<stop offset="0.6156" stop-color="#0D3FB3"/>
</linearGradient>
<linearGradient id="paint21_linear" x1="103.483" y1="98.3902" x2="103.69" y2="98.3902" gradientUnits="userSpaceOnUse">
<stop offset="0.1975" stop-color="#1F63EB"/>
<stop offset="0.4598" stop-color="#1152D4"/>
<stop offset="0.6156" stop-color="#0D3FB3"/>
</linearGradient>
<linearGradient id="paint22_linear" x1="71.9313" y1="79.1955" x2="107.834" y2="121.031" gradientUnits="userSpaceOnUse">
<stop offset="0.4598" stop-color="#1152D4"/>
<stop offset="0.8206" stop-color="#0D3FB3"/>
</linearGradient>
<linearGradient id="paint23_linear" x1="94.7413" y1="103.132" x2="98.0137" y2="103.132" gradientUnits="userSpaceOnUse">
<stop stop-color="#388CF4"/>
<stop offset="1" stop-color="#2C7CEF"/>
</linearGradient>
<linearGradient id="paint24_linear" x1="85.8156" y1="105.885" x2="97.1417" y2="105.885" gradientUnits="userSpaceOnUse">
<stop stop-color="#388CF4"/>
<stop offset="1" stop-color="#2C7CEF"/>
</linearGradient>
<linearGradient id="paint25_linear" x1="95.7459" y1="108.655" x2="105.814" y2="116.616" gradientUnits="userSpaceOnUse">
<stop stop-color="#76C0FD"/>
<stop offset="1" stop-color="#63B2FB"/>
</linearGradient>
<linearGradient id="paint26_linear" x1="87.4421" y1="116.854" x2="100.164" y2="105.537" gradientUnits="userSpaceOnUse">
<stop stop-color="#76C0FD"/>
<stop offset="1" stop-color="#63B2FB"/>
</linearGradient>
<linearGradient id="paint27_linear" x1="109.97" y1="133.852" x2="90.0972" y2="135.131" gradientUnits="userSpaceOnUse">
<stop offset="0.2733" stop-color="#2DBAE0"/>
<stop offset="0.9874" stop-color="#0D5D73"/>
</linearGradient>
<linearGradient id="paint28_linear" x1="95.5054" y1="120.544" x2="86.891" y2="135.001" gradientUnits="userSpaceOnUse">
<stop offset="0.2733" stop-color="#2DBAE0"/>
<stop offset="0.9874" stop-color="#0D5D73"/>
</linearGradient>
<linearGradient id="paint29_linear" x1="91.2556" y1="127.46" x2="90.0189" y2="135.264" gradientUnits="userSpaceOnUse">
<stop stop-color="#107590"/>
<stop offset="0.2789" stop-color="#107590"/>
<stop offset="0.9874" stop-color="#0D5D73"/>
</linearGradient>
<linearGradient id="paint30_linear" x1="39.786" y1="74.5835" x2="42.304" y2="90.2727" gradientUnits="userSpaceOnUse">
<stop offset="0.00753769" stop-color="#E0A310"/>
<stop offset="1" stop-color="#CA810E"/>
</linearGradient>
<linearGradient id="paint31_linear" x1="35.6855" y1="68.7089" x2="47.646" y2="90.9835" gradientUnits="userSpaceOnUse">
<stop offset="0.2739" stop-color="#EFC433"/>
<stop offset="0.691" stop-color="#E0A310"/>
<stop offset="1" stop-color="#CA810E"/>
</linearGradient>
<linearGradient id="paint32_linear" x1="38.7517" y1="74.5314" x2="37.6864" y2="87.3151" gradientUnits="userSpaceOnUse">
<stop offset="0.00753769" stop-color="#F2CC40"/>
<stop offset="1" stop-color="#E7B116"/>
</linearGradient>
<linearGradient id="paint33_linear" x1="36.0589" y1="76.2612" x2="46.8815" y2="93.4033" gradientUnits="userSpaceOnUse">
<stop offset="0.0528" stop-color="#F6D856"/>
<stop offset="0.4447" stop-color="#EFC433"/>
<stop offset="0.8216" stop-color="#E0A310"/>
<stop offset="1" stop-color="#CA810E"/>
</linearGradient>
<linearGradient id="paint34_linear" x1="30.077" y1="76.8083" x2="39.3743" y2="84.895" gradientUnits="userSpaceOnUse">
<stop offset="0.1181" stop-color="#F6EECF"/>
<stop offset="0.6156" stop-color="#F6D856"/>
<stop offset="1" stop-color="#EFC433"/>
</linearGradient>
<linearGradient id="paint35_linear" x1="35.9694" y1="78.7506" x2="35.2915" y2="84.9489" gradientUnits="userSpaceOnUse">
<stop stop-color="#F8E17B"/>
<stop offset="0.5302" stop-color="#F6D856"/>
<stop offset="1" stop-color="#F6D856"/>
</linearGradient>
<linearGradient id="paint36_linear" x1="37.7708" y1="94.5" x2="41.092" y2="110.354" gradientUnits="userSpaceOnUse">
<stop stop-color="#E184C4"/>
<stop offset="1" stop-color="#D76EBC"/>
</linearGradient>
<linearGradient id="paint37_linear" x1="34.6481" y1="93.1904" x2="40.2252" y2="112.24" gradientUnits="userSpaceOnUse">
<stop stop-color="#A23093"/>
<stop offset="1" stop-color="#692266"/>
</linearGradient>
<linearGradient id="paint38_linear" x1="39.0678" y1="96.3631" x2="45.2717" y2="111.403" gradientUnits="userSpaceOnUse">
<stop stop-color="#E89BCA"/>
<stop offset="1" stop-color="#E591C8"/>
</linearGradient>
<linearGradient id="paint39_linear" x1="54.7371" y1="84.6195" x2="56.9149" y2="90.0797" gradientUnits="userSpaceOnUse">
<stop offset="0.4598" stop-color="#1152D4"/>
<stop offset="0.6156" stop-color="#0D3FB3"/>
</linearGradient>
<linearGradient id="paint40_linear" x1="61.8809" y1="82.6784" x2="62.0433" y2="82.6784" gradientUnits="userSpaceOnUse">
<stop offset="0.1975" stop-color="#1F63EB"/>
<stop offset="0.4598" stop-color="#1152D4"/>
<stop offset="0.6156" stop-color="#0D3FB3"/>
</linearGradient>
<linearGradient id="paint41_linear" x1="37.08" y1="67.5909" x2="65.301" y2="100.475" gradientUnits="userSpaceOnUse">
<stop offset="0.4598" stop-color="#1152D4"/>
<stop offset="0.8206" stop-color="#0D3FB3"/>
</linearGradient>
<linearGradient id="paint42_linear" x1="55.0095" y1="86.4058" x2="57.5817" y2="86.4058" gradientUnits="userSpaceOnUse">
<stop stop-color="#388CF4"/>
<stop offset="1" stop-color="#2C7CEF"/>
</linearGradient>
<linearGradient id="paint43_linear" x1="47.9936" y1="88.5693" x2="56.8963" y2="88.5693" gradientUnits="userSpaceOnUse">
<stop stop-color="#388CF4"/>
<stop offset="1" stop-color="#2C7CEF"/>
</linearGradient>
<linearGradient id="paint44_linear" x1="55.7991" y1="90.7469" x2="63.7132" y2="97.0048" gradientUnits="userSpaceOnUse">
<stop stop-color="#76C0FD"/>
<stop offset="1" stop-color="#63B2FB"/>
</linearGradient>
<linearGradient id="paint45_linear" x1="49.2721" y1="97.192" x2="59.2721" y2="88.296" gradientUnits="userSpaceOnUse">
<stop stop-color="#76C0FD"/>
<stop offset="1" stop-color="#63B2FB"/>
</linearGradient>
<linearGradient id="paint46_linear" x1="65.1871" y1="107.96" x2="49.5666" y2="108.966" gradientUnits="userSpaceOnUse">
<stop offset="0.2733" stop-color="#2DBAE0"/>
<stop offset="0.9874" stop-color="#0D5D73"/>
</linearGradient>
<linearGradient id="paint47_linear" x1="53.8176" y1="97.4996" x2="47.0464" y2="108.863" gradientUnits="userSpaceOnUse">
<stop offset="0.2733" stop-color="#2DBAE0"/>
<stop offset="0.9874" stop-color="#0D5D73"/>
</linearGradient>
<linearGradient id="paint48_linear" x1="50.4771" y1="102.935" x2="49.505" y2="109.069" gradientUnits="userSpaceOnUse">
<stop stop-color="#107590"/>
<stop offset="0.2789" stop-color="#107590"/>
<stop offset="0.9874" stop-color="#0D5D73"/>
</linearGradient>
</defs>
</svg>
