<svg width="103" height="103" viewBox="0 0 103 103" fill="none" xmlns="http://www.w3.org/2000/svg">
<path d="M51.6838 98.8046C25.8338 98.8046 4.87378 77.8546 4.87378 51.9946C4.87378 26.1346 25.8338 5.18457 51.6838 5.18457C77.5338 5.18457 98.4938 26.1446 98.4938 51.9946C98.4938 77.8446 77.5338 98.8046 51.6838 98.8046Z" fill="url(#paint0_linear)"/>
<path fill-rule="evenodd" clip-rule="evenodd" d="M97.5839 51.9945C97.5839 77.3445 77.0339 97.8945 51.6839 97.8945C26.3339 97.8945 5.78395 77.3445 5.78395 51.9945C5.78395 26.6445 26.3339 6.09449 51.6839 6.09449C77.0339 6.09449 97.5839 26.6445 97.5839 51.9945ZM51.6839 2.35449C79.1039 2.35449 101.324 24.5745 101.324 51.9945C101.324 79.4145 79.0939 101.634 51.6839 101.634C24.2639 101.634 2.04395 79.4045 2.04395 51.9945C2.04395 24.5745 24.2639 2.35449 51.6839 2.35449Z" fill="#F2F1F0"/>
<path fill-rule="evenodd" clip-rule="evenodd" d="M94.7738 51.9946C94.7738 75.7946 75.4838 95.0845 51.6838 95.0845C27.8838 95.0845 8.59376 75.7946 8.59376 51.9946C8.59376 28.1946 27.8838 8.90455 51.6838 8.90455C75.4838 8.90455 94.7738 28.1946 94.7738 51.9946ZM51.6838 5.16455C77.5438 5.16455 98.5138 26.1346 98.5138 51.9946C98.5138 77.8546 77.5438 98.8246 51.6838 98.8246C25.8238 98.8246 4.85376 77.8546 4.85376 51.9946C4.85376 26.1346 25.8138 5.16455 51.6838 5.16455Z" fill="#0078D4"/>
<path opacity="0.15" d="M87.3138 47.385C87.3138 46.615 86.6838 45.975 85.9038 45.975C85.3938 45.975 82.2438 45.695 80.5438 44.375C80.5438 44.375 80.5538 44.355 80.5438 44.375C79.9038 42.045 78.9638 39.865 77.8038 37.795C77.5038 35.835 79.5338 34.405 80.4638 32.875C80.6238 32.605 80.7238 32.455 80.7838 32.345C80.9538 31.845 80.8638 31.275 80.4638 30.885C80.4638 30.885 78.9038 28.655 77.3038 27.065C75.7038 25.475 73.2838 23.705 73.2838 23.705C72.7338 23.155 71.8438 23.155 71.2938 23.705C70.9338 24.055 68.5338 26.035 66.3638 26.355C66.3338 26.355 66.3338 26.355 66.3338 26.355C64.3238 25.215 62.0638 24.275 59.8038 23.635H59.7738C58.1738 22.455 58.5938 20.015 58.1738 18.275C58.1738 17.505 57.5438 16.865 56.7638 16.865C56.7638 16.865 54.0838 16.395 51.8238 16.395C49.5638 16.395 46.6138 16.865 46.6138 16.865C45.8438 16.865 45.2038 17.495 45.2038 18.275C45.2038 18.785 44.9238 21.935 43.6038 23.635C41.3638 24.265 39.0138 25.265 37.0238 26.375C35.0638 26.675 33.6338 24.645 32.1038 23.715C31.8338 23.555 31.6838 23.455 31.5738 23.395C31.0738 23.225 30.5038 23.315 30.1138 23.715C30.1138 23.715 27.8838 25.275 26.2938 26.875C24.7038 28.475 22.9338 30.895 22.9338 30.895C22.3838 31.445 22.3838 32.335 22.9338 32.885C23.2838 33.235 25.3238 35.675 25.5938 37.805V37.825C24.4838 39.815 23.5138 42.155 22.8738 44.395C22.8738 44.395 22.9038 44.355 22.8738 44.395C21.5038 46.055 19.2538 45.575 17.5138 45.995C16.7438 45.995 16.1038 46.625 16.1038 47.405C16.1038 47.405 15.6338 50.085 15.6338 52.345C15.6338 54.605 16.1038 57.555 16.1038 57.555C16.1038 58.325 16.7338 58.965 17.5138 58.965C18.0238 58.965 21.1738 59.245 22.8738 60.565C22.9138 60.545 22.8938 60.595 22.8938 60.595C23.5438 62.845 24.4738 65.095 25.6038 67.075C25.5838 67.105 25.6038 67.075 25.6138 67.145C25.8038 69.195 23.8838 70.535 22.9538 72.065C22.7938 72.335 22.6938 72.485 22.6338 72.595C22.4638 73.095 22.5538 73.665 22.9538 74.055C22.9538 74.055 24.5138 76.285 26.1138 77.875C27.7138 79.475 30.1338 81.235 30.1338 81.235C30.6838 81.785 31.5738 81.785 32.1238 81.235C32.4738 80.885 34.9138 78.845 37.0438 78.575C37.0438 78.575 37.0338 78.585 37.0738 78.595C39.1238 79.735 41.2338 80.635 43.5438 81.265C43.5638 81.275 43.6338 81.295 43.6338 81.295C45.2338 82.475 44.8138 84.915 45.2338 86.655C45.3238 87.435 45.7538 87.935 46.6438 88.065C46.6438 88.065 49.3238 88.535 51.5838 88.535C53.8438 88.535 56.7938 88.075 56.7938 88.075C57.5638 87.945 58.2038 87.445 58.2038 86.665C58.2038 86.155 58.4838 83.005 59.8038 81.305C59.8038 81.305 59.8638 81.255 59.9138 81.205C62.2638 80.545 64.0538 79.815 66.1338 78.625C66.2438 78.585 66.1238 78.595 66.3738 78.555C68.3338 78.255 69.7638 80.285 71.2938 81.215C71.5638 81.375 71.7138 81.475 71.8238 81.535C72.3238 81.705 72.8938 81.615 73.2838 81.215C73.2838 81.215 75.5138 79.655 77.1038 78.055C78.7038 76.455 80.4638 74.035 80.4638 74.035C81.0138 73.485 81.0138 72.595 80.4638 72.045C80.1138 71.695 78.0738 69.255 77.8038 67.125C77.7738 66.905 77.7938 66.875 77.8238 66.815C79.0138 64.725 79.7538 63.195 80.4038 60.815C80.4038 60.815 80.3738 60.735 80.5238 60.535C81.7038 58.935 84.1438 59.355 85.8838 58.935C86.6538 58.935 87.2938 58.305 87.2938 57.525C87.2938 57.525 87.7638 54.845 87.7638 52.585C87.7738 50.345 87.3138 47.385 87.3138 47.385Z" fill="#1F1D20"/>
<path d="M87.3138 46.4348C87.3138 45.6648 86.6838 45.0248 85.9038 45.0248C85.3938 45.0248 82.2438 44.7448 80.5438 43.4248C80.5438 43.4248 80.5538 43.4048 80.5438 43.4248C79.9038 41.0948 78.9638 38.9148 77.8038 36.8448C77.5038 34.8848 79.5338 33.4548 80.4638 31.9248C80.6238 31.6548 80.7238 31.5048 80.7838 31.3948C80.9538 30.8948 80.8638 30.3248 80.4638 29.9348C80.4638 29.9348 78.9038 27.7048 77.3038 26.1148C75.7038 24.5248 73.2838 22.7548 73.2838 22.7548C72.7338 22.2048 71.8438 22.2048 71.2938 22.7548C70.9338 23.1048 68.5338 25.0848 66.3638 25.4048C66.3338 25.4048 66.3338 25.4048 66.3338 25.4048C64.3238 24.2648 62.0638 23.3248 59.8038 22.6848H59.7738C58.1738 21.5048 58.5938 19.0648 58.1738 17.3248C58.1738 16.5548 57.5438 15.9148 56.7638 15.9148C56.7638 15.9148 54.0838 15.4448 51.8238 15.4448C49.5638 15.4448 46.6138 15.9148 46.6138 15.9148C45.8438 15.9148 45.2038 16.5448 45.2038 17.3248C45.2038 17.8348 44.9238 20.9848 43.6038 22.6848C41.3638 23.3148 39.0138 24.3148 37.0238 25.4248C35.0638 25.7248 33.6338 23.6948 32.1038 22.7648C31.8338 22.6048 31.6838 22.5048 31.5738 22.4448C31.0738 22.2748 30.5038 22.3648 30.1138 22.7648C30.1138 22.7648 27.8838 24.3248 26.2938 25.9248C24.7038 27.5248 22.9338 29.9448 22.9338 29.9448C22.3838 30.4948 22.3838 31.3848 22.9338 31.9348C23.2838 32.2848 25.3238 34.7248 25.5938 36.8548V36.8748C24.4838 38.8648 23.5138 41.2048 22.8738 43.4448C22.8738 43.4448 22.9038 43.4048 22.8738 43.4448C21.5038 45.1048 19.2538 44.6248 17.5138 45.0448C16.7438 45.0448 16.1038 45.6748 16.1038 46.4548C16.1038 46.4548 15.6338 49.1348 15.6338 51.3948C15.6338 53.6548 16.1038 56.6048 16.1038 56.6048C16.1038 57.3748 16.7338 58.0148 17.5138 58.0148C18.0238 58.0148 21.1738 58.2948 22.8738 59.6148C22.9138 59.5948 22.8938 59.6448 22.8938 59.6448C23.5438 61.8948 24.4738 64.1448 25.6038 66.1248C25.5838 66.1548 25.6038 66.1248 25.6138 66.1948C25.8038 68.2448 23.8838 69.5848 22.9538 71.1148C22.7938 71.3848 22.6938 71.5348 22.6338 71.6448C22.4638 72.1448 22.5538 72.7148 22.9538 73.1048C22.9538 73.1048 24.5138 75.3348 26.1138 76.9248C27.7138 78.5248 30.1338 80.2848 30.1338 80.2848C30.6838 80.8348 31.5738 80.8348 32.1238 80.2848C32.4738 79.9348 34.9138 77.8948 37.0438 77.6248C37.0438 77.6248 37.0338 77.6348 37.0738 77.6448C39.1238 78.7848 41.2338 79.6848 43.5438 80.3148C43.5638 80.3248 43.6338 80.3448 43.6338 80.3448C45.2338 81.5248 44.8138 83.9648 45.2338 85.7048C45.3238 86.4848 45.7538 86.9848 46.6438 87.1148C46.6438 87.1148 49.3238 87.5848 51.5838 87.5848C53.8438 87.5848 56.7938 87.1248 56.7938 87.1248C57.5638 86.9948 58.2038 86.4948 58.2038 85.7148C58.2038 85.2048 58.4838 82.0548 59.8038 80.3548C59.8038 80.3548 59.8638 80.3048 59.9138 80.2548C62.2638 79.5948 64.0538 78.8648 66.1338 77.6748C66.2438 77.6348 66.1238 77.6448 66.3738 77.6048C68.3338 77.3048 69.7638 79.3348 71.2938 80.2648C71.5638 80.4248 71.7138 80.5248 71.8238 80.5848C72.3238 80.7548 72.8938 80.6648 73.2838 80.2648C73.2838 80.2648 75.5138 78.7048 77.1038 77.1048C78.7038 75.5048 80.4638 73.0848 80.4638 73.0848C81.0138 72.5348 81.0138 71.6448 80.4638 71.0948C80.1138 70.7448 78.0738 68.3048 77.8038 66.1748C77.7738 65.9548 77.7938 65.9248 77.8238 65.8648C79.0138 63.7748 79.7538 62.2448 80.4038 59.8648C80.4038 59.8648 80.3738 59.7848 80.5238 59.5848C81.7038 57.9848 84.1438 58.4048 85.8838 57.9848C86.6538 57.9848 87.2938 57.3548 87.2938 56.5748C87.2938 56.5748 87.7638 53.8948 87.7638 51.6348C87.7738 49.3848 87.3138 46.4348 87.3138 46.4348Z" fill="url(#paint1_linear)"/>
<path d="M51.6839 29.4146C39.8339 29.4146 30.2439 39.0146 30.2439 50.8546C30.2439 54.9246 31.3739 58.7446 33.3539 61.9846V68.8846H40.0839C43.4339 71.0446 47.4139 72.3046 51.6739 72.3046C63.5239 72.3046 73.1139 62.7046 73.1139 50.8645C73.1139 39.0245 63.5339 29.4146 51.6839 29.4146Z" fill="#ED722E"/>
<path d="M51.6839 29.4146C39.8339 29.4146 30.2439 39.0146 30.2439 50.8546C30.2439 54.9246 31.3739 58.7446 33.3539 61.9846L33.0639 68.8846L66.4039 35.5445C62.8239 31.7645 57.5339 29.4146 51.6839 29.4146Z" fill="#FF7736"/>
<path d="M67.8637 60.4449L65.5137 54.7949C65.3937 54.5249 65.0237 54.4949 64.8737 54.7549L63.9537 56.3649L59.4937 53.7949C59.1237 55.1149 58.4237 56.2949 57.4937 57.2449L61.9636 59.8249L61.0336 61.4349C60.8836 61.6949 61.0937 61.9949 61.3837 61.9649L67.4437 61.1849C67.7837 61.1349 67.9937 60.7649 67.8637 60.4449Z" fill="#F2F1F0"/>
<path d="M47.9038 38.6048H49.7638V43.6948C50.3838 43.5448 51.0238 43.4548 51.7038 43.4548C52.4138 43.4548 53.0938 43.5548 53.7538 43.7248V38.6048H55.6138C55.9138 38.6048 56.0738 38.2748 55.8938 38.0348L52.1938 33.1748C51.9838 32.8948 51.5538 32.8948 51.3438 33.1748L47.6238 38.0348C47.4438 38.2648 47.6038 38.6048 47.9038 38.6048Z" fill="#F2F1F0"/>
<path d="M43.8937 53.7646L39.4337 56.3346L38.5037 54.7246C38.3537 54.4646 37.9837 54.4946 37.8637 54.7646L35.5037 60.4046C35.3737 60.7246 35.5837 61.0946 35.9237 61.1346L41.9937 61.9246C42.2837 61.9646 42.4937 61.6446 42.3437 61.3946L41.4237 59.7846L45.8837 57.2146C44.9437 56.2646 44.2637 55.0846 43.8937 53.7646Z" fill="#F2F1F0"/>
<path d="M54.1538 46.515C53.4238 46.125 52.5838 45.895 51.6838 45.895C50.8538 45.895 50.0638 46.095 49.3538 46.445C47.6238 47.305 46.4338 49.085 46.4338 51.145C46.4338 51.235 46.4438 51.315 46.4438 51.405C46.5238 53.145 47.4538 54.665 48.8338 55.555C49.6538 56.085 50.6338 56.395 51.6738 56.395C52.7138 56.395 53.6838 56.085 54.4938 55.565C55.8738 54.675 56.8138 53.165 56.9038 51.425C56.9138 51.325 56.9138 51.235 56.9138 51.145C56.9438 49.145 55.8138 47.395 54.1538 46.515Z" fill="#F2F1F0"/>
<defs>
<linearGradient id="paint0_linear" x1="49.9138" y1="-12.7984" x2="53.8968" y2="132.969" gradientUnits="userSpaceOnUse">
<stop stop-color="#00ABDE"/>
<stop offset="1" stop-color="#007ED8"/>
</linearGradient>
<linearGradient id="paint1_linear" x1="54.4428" y1="-71.7289" x2="49.3378" y2="156.293" gradientUnits="userSpaceOnUse">
<stop stop-color="#007ED8"/>
<stop offset="0.7065" stop-color="#002D4C"/>
</linearGradient>
</defs>
</svg>
