<?xml version="1.0" encoding="UTF-8"?>
<svg width="100px" height="100px" viewBox="0 0 100 100" version="1.1" xmlns="http://www.w3.org/2000/svg" xmlns:xlink="http://www.w3.org/1999/xlink">
    <!-- Generator: Sketch 53.2 (72643) - https://sketchapp.com -->
    <title>Use basic formulas to make a better canvas app in PowerApps/author-a-basic-formula-that-uses-tables-and-records-in-a-canvas-app-in-powerapps</title>
    <desc>Created with Sketch.</desc>
    <defs>
        <rect id="path-1" x="0" y="0" width="96" height="96" rx="48"></rect>
        <filter x="-5.3%" y="-3.1%" width="110.7%" height="106.9%" filterUnits="objectBoundingBox" id="filter-3">
            <feOffset dx="0" dy="2" in="SourceAlpha" result="shadowOffsetOuter1"></feOffset>
            <feColorMatrix values="0 0 0 0 0   0 0 0 0 0   0 0 0 0 0  0 0 0 0.1 0" type="matrix" in="shadowOffsetOuter1" result="shadowMatrixOuter1"></feColorMatrix>
            <feMerge>
                <feMergeNode in="shadowMatrixOuter1"></feMergeNode>
                <feMergeNode in="SourceGraphic"></feMergeNode>
            </feMerge>
        </filter>
        <path d="M66,14 L66,80.3157895 C66,82.3421053 65.115,84 64.0333333,84 L8.96666667,84 C7.885,84 7,82.3421053 7,80.3157895 L7,14 L66,14" id="path-4"></path>
        <filter x="-1.7%" y="-1.4%" width="103.4%" height="105.7%" filterUnits="objectBoundingBox" id="filter-5">
            <feOffset dx="0" dy="2" in="SourceAlpha" result="shadowOffsetOuter1"></feOffset>
            <feColorMatrix values="0 0 0 0 0   0 0 0 0 0   0 0 0 0 0  0 0 0 0.1 0" type="matrix" in="shadowOffsetOuter1"></feColorMatrix>
        </filter>
        <rect id="path-6" x="0" y="0" width="5.25" height="17" rx="2"></rect>
        <filter x="-19.0%" y="-5.9%" width="138.1%" height="123.5%" filterUnits="objectBoundingBox" id="filter-7">
            <feOffset dx="0" dy="2" in="SourceAlpha" result="shadowOffsetOuter1"></feOffset>
            <feColorMatrix values="0 0 0 0 0   0 0 0 0 0   0 0 0 0 0  0 0 0 0.1 0" type="matrix" in="shadowOffsetOuter1"></feColorMatrix>
        </filter>
        <rect id="path-8" x="39.75" y="0" width="5.25" height="17" rx="2"></rect>
        <filter x="-19.0%" y="-5.9%" width="138.1%" height="123.5%" filterUnits="objectBoundingBox" id="filter-9">
            <feOffset dx="0" dy="2" in="SourceAlpha" result="shadowOffsetOuter1"></feOffset>
            <feColorMatrix values="0 0 0 0 0   0 0 0 0 0   0 0 0 0 0  0 0 0 0.1 0" type="matrix" in="shadowOffsetOuter1"></feColorMatrix>
        </filter>
        <filter x="-33.3%" y="-6.7%" width="166.7%" height="115.0%" filterUnits="objectBoundingBox" id="filter-10">
            <feOffset dx="0" dy="2" in="SourceAlpha" result="shadowOffsetOuter1"></feOffset>
            <feColorMatrix values="0 0 0 0 0   0 0 0 0 0   0 0 0 0 0  0 0 0 0.1 0" type="matrix" in="shadowOffsetOuter1" result="shadowMatrixOuter1"></feColorMatrix>
            <feMerge>
                <feMergeNode in="shadowMatrixOuter1"></feMergeNode>
                <feMergeNode in="SourceGraphic"></feMergeNode>
            </feMerge>
        </filter>
    </defs>
    <g id="Badges" stroke="none" stroke-width="1" fill="none" fill-rule="evenodd">
        <g id="Use-basic-formulas-to-make-a-better-canvas-app-in-PowerApps" transform="translate(-50.000000, -260.000000)">
            <g id="Use-basic-formulas-to-make-a-better-canvas-app-in-PowerApps/author-a-basic-formula-that-uses-tables-and-records-in-a-canvas-app-in-powerapps" transform="translate(50.000000, 260.000000)">
                <g id="Mask" transform="translate(2.000000, 2.000000)">
                    <mask id="mask-2" fill="white">
                        <use xlink:href="#path-1"></use>
                    </mask>
                    <use id="BG" fill="#965596" xlink:href="#path-1"></use>
                    <g id="canvas" filter="url(#filter-3)" mask="url(#mask-2)">
                        <g transform="translate(11.000000, 22.000000)">
                            <g id="Group-6" stroke-width="1" fill="none" fill-rule="evenodd" transform="translate(33.728650, 0.000000)">
                                <path d="M3,8 C1.344,8 0,6.80533333 0,5.33333333 L0,2.66666667 C0,1.19333333 1.344,0 3,0 C4.656,0 6,1.19333333 6,2.66666667 L6,5.33333333 C6,6.80533333 4.656,8 3,8" id="Fill-1018" fill="#EFB252"></path>
                                <path d="M3,2.87088895 L3,5.81818182 L6,5.81818182 L6,3.00722057 C6,2.8455903 5.985,2.68817647 5.958,2.53497908 C5.6625,0.897594159 3,1.21101634 3,2.87088895" id="Fill-1027" fill="#DD9D3F"></path>
                            </g>
                            <rect id="Rectangle" fill="#CB8E35" fill-rule="evenodd" x="33.72865" y="5" width="6" height="2"></rect>
                            <path d="M48.6,52.6666667 C48.6,53.4 47.9882813,54 47.240625,54 L-37.040625,54 C-37.7882813,54 -38.4,53.4 -38.4,52.6666667 L-38.4,47.3333333 C-38.4,46.6 -37.7882813,46 -37.040625,46 L47.240625,46 C47.9882813,46 48.6,46.6 48.6,47.3333333 L48.6,52.6666667" id="Fill-1019" fill="#EFB252" fill-rule="evenodd" transform="translate(5.100000, 50.000000) rotate(90.000000) translate(-5.100000, -50.000000) "></path>
                            <path d="M112.72865,52.6666667 C112.72865,53.4 112.116931,54 111.369275,54 L27.088025,54 C26.3403687,54 25.72865,53.4 25.72865,52.6666667 L25.72865,47.3333333 C25.72865,46.6 26.3403687,46 27.088025,46 L111.369275,46 C112.116931,46 112.72865,46.6 112.72865,47.3333333 L112.72865,52.6666667" id="Fill-1019" fill="#DD9D3F" fill-rule="evenodd" transform="translate(69.228650, 50.000000) rotate(90.000000) translate(-69.228650, -50.000000) "></path>
                            <g id="Group-5" stroke-width="1" fill="none" fill-rule="evenodd" transform="translate(0.728650, 6.000000)">
                                <path d="M72.27135,6.66666667 C72.27135,7.4 71.7651,8 71.14635,8 L1.39635003,8 C0.777600034,8 0.271350034,7.4 0.271350034,6.66666667 L0.271350034,1.33333333 C0.271350034,0.6 0.777600034,0 1.39635003,0 L71.14635,0 C71.7651,0 72.27135,0.6 72.27135,1.33333333 L72.27135,6.66666667" id="Fill-1019" fill="#EFB252"></path>
                                <path d="M1.39635003,8 L71.14635,8 C71.7651,8 72.27135,7.4 72.27135,6.66666667 L72.27135,1.33333333 C72.27135,0.6 71.7651,0 71.14635,0 L36.27135,0 L36.27135,2.66666667 C36.27135,3.40266667 35.76735,4 35.14635,4 L0.271350034,4 L0.271350034,6.66666667 C0.271350034,7.4 0.777600034,8 1.39635003,8" id="Fill-1026" fill="#DD9D3F"></path>
                            </g>
                            <g id="Fill-1017" fill="none">
                                <use fill="black" fill-opacity="1" filter="url(#filter-5)" xlink:href="#path-4"></use>
                                <use fill="#E1E4E1" fill-rule="evenodd" xlink:href="#path-4"></use>
                            </g>
                            <g id="Group-7" stroke-width="1" fill="none" fill-rule="evenodd" transform="translate(13.728650, 3.000000)">
                                <g id="Rectangle">
                                    <use fill="black" fill-opacity="1" filter="url(#filter-7)" xlink:href="#path-6"></use>
                                    <use fill="#742774" fill-rule="evenodd" xlink:href="#path-6"></use>
                                </g>
                                <g id="Rectangle">
                                    <use fill="black" fill-opacity="1" filter="url(#filter-9)" xlink:href="#path-8"></use>
                                    <use fill="#742774" fill-rule="evenodd" xlink:href="#path-8"></use>
                                </g>
                            </g>
                        </g>
                    </g>
                    <g id="table-+-record" mask="url(#mask-2)">
                        <g transform="translate(27.000000, 48.000000)">
                            <g id="+" transform="translate(20.000000, 15.000000)">
                                <path d="M11.4230769,0 C5.12432091,0 0,5.12432091 0,11.4230769 C0,17.721476 5.12432091,22.8461538 11.4230769,22.8461538 C17.7218329,22.8461538 22.8461538,17.721476 22.8461538,11.4230769 C22.8461538,5.12432091 17.7218329,0 11.4230769,0" id="Fill-113" fill="#7CB65A"></path>
                                <path d="M14.9927885,10.3521635 L12.4939904,10.3521635 L12.4939904,7.85336538 C12.4939904,7.26186418 12.0145781,6.78245192 11.4230769,6.78245192 C10.8315757,6.78245192 10.3521635,7.26186418 10.3521635,7.85336538 L10.3521635,10.3521635 L7.85336538,10.3521635 C7.26186418,10.3521635 6.78245192,10.8315757 6.78245192,11.4230769 C6.78245192,12.0145781 7.26186418,12.4939904 7.85336538,12.4939904 L10.3521635,12.4939904 L10.3521635,14.9927885 C10.3521635,15.5842897 10.8315757,16.0637019 11.4230769,16.0637019 C12.0145781,16.0637019 12.4939904,15.5842897 12.4939904,14.9927885 L12.4939904,12.4939904 L14.9927885,12.4939904 C15.5842897,12.4939904 16.0637019,12.0145781 16.0637019,11.4230769 C16.0637019,10.8315757 15.5842897,10.3521635 14.9927885,10.3521635" id="Fill-114" fill="#FFFFFE"></path>
                            </g>
                            <g id="table" transform="translate(-0.000000, -0.000000)">
                                <path d="M-1.42108547e-13,20.7138462 C-1.42108547e-13,21.4212308 0.725841346,22 1.61298077,22 C15.6019053,22 23.1027066,22 24.1153846,22 C25.6344016,22 25.8076923,21.5166307 25.8076923,20.0677638 C25.8076923,19.1018525 25.8076923,14.3869569 25.8076923,5.92307692 L-1.42108547e-13,5.92307692 L-1.42108547e-13,20.7138462 Z" id="Fill-1315" fill="#FFFFFE"></path>
                                <path d="M25.8076923,0.846153846 C25.8076923,0.380769231 25.4447716,0 25.0012019,0 L0.806490385,0 C0.362920673,0 0,0.380769231 0,0.846153846 L0,5.07692308 L25.8076923,5.07692308 L25.8076923,0.846153846" id="Fill-1316" fill="#965596"></path>
                                <polygon id="Fill-1317" fill="#DBE5E7" points="0 5.92307692 25.8076923 5.92307692 25.8076923 5.07692308 0 5.07692308"></polygon>
                                <path d="M4.23076923,9.73076923 C4.23076923,9.96346154 4.04038462,10.1538462 3.80769231,10.1538462 L2.11538462,10.1538462 C1.88269231,10.1538462 1.69230769,9.96346154 1.69230769,9.73076923 L1.69230769,8.03846154 C1.69230769,7.80576923 1.88269231,7.61538462 2.11538462,7.61538462 L3.80769231,7.61538462 C4.04038462,7.61538462 4.23076923,7.80576923 4.23076923,8.03846154 L4.23076923,9.73076923" id="Fill-1327" fill="#C5CCCD"></path>
                                <path d="M7.61538462,9.73076923 C7.61538462,9.96346154 7.425,10.1538462 7.19230769,10.1538462 L5.5,10.1538462 C5.26730769,10.1538462 5.07692308,9.96346154 5.07692308,9.73076923 L5.07692308,8.03846154 C5.07692308,7.80576923 5.26730769,7.61538462 5.5,7.61538462 L7.19230769,7.61538462 C7.425,7.61538462 7.61538462,7.80576923 7.61538462,8.03846154 L7.61538462,9.73076923" id="Fill-1328" fill="#C5CCCD"></path>
                                <path d="M11,9.73076923 C11,9.96346154 10.8096154,10.1538462 10.5769231,10.1538462 L8.88461538,10.1538462 C8.65192308,10.1538462 8.46153846,9.96346154 8.46153846,9.73076923 L8.46153846,8.03846154 C8.46153846,7.80576923 8.65192308,7.61538462 8.88461538,7.61538462 L10.5769231,7.61538462 C10.8096154,7.61538462 11,7.80576923 11,8.03846154 L11,9.73076923" id="Fill-1329" fill="#C5CCCD"></path>
                                <path d="M14.3846154,9.73076923 C14.3846154,9.96346154 14.1942308,10.1538462 13.9615385,10.1538462 L12.2692308,10.1538462 C12.0365385,10.1538462 11.8461538,9.96346154 11.8461538,9.73076923 L11.8461538,8.03846154 C11.8461538,7.80576923 12.0365385,7.61538462 12.2692308,7.61538462 L13.9615385,7.61538462 C14.1942308,7.61538462 14.3846154,7.80576923 14.3846154,8.03846154 L14.3846154,9.73076923" id="Fill-1330" fill="#C5CCCD"></path>
                                <path d="M17.7692308,9.73076923 C17.7692308,9.96346154 17.5788462,10.1538462 17.3461538,10.1538462 L15.6538462,10.1538462 C15.4211538,10.1538462 15.2307692,9.96346154 15.2307692,9.73076923 L15.2307692,8.03846154 C15.2307692,7.80576923 15.4211538,7.61538462 15.6538462,7.61538462 L17.3461538,7.61538462 C17.5788462,7.61538462 17.7692308,7.80576923 17.7692308,8.03846154 L17.7692308,9.73076923" id="Fill-1331" fill="#C5CCCD"></path>
                                <path d="M21.1538462,9.73076923 C21.1538462,9.96346154 20.9634615,10.1538462 20.7307692,10.1538462 L19.0384615,10.1538462 C18.8057692,10.1538462 18.6153846,9.96346154 18.6153846,9.73076923 L18.6153846,8.03846154 C18.6153846,7.80576923 18.8057692,7.61538462 19.0384615,7.61538462 L20.7307692,7.61538462 C20.9634615,7.61538462 21.1538462,7.80576923 21.1538462,8.03846154 L21.1538462,9.73076923" id="Fill-1332" fill="#C5CCCD"></path>
                                <path d="M24.5384615,9.73076923 C24.5384615,9.96346154 24.3480769,10.1538462 24.1153846,10.1538462 L22.4230769,10.1538462 C22.1903846,10.1538462 22,9.96346154 22,9.73076923 L22,8.03846154 C22,7.80576923 22.1903846,7.61538462 22.4230769,7.61538462 L24.1153846,7.61538462 C24.3480769,7.61538462 24.5384615,7.80576923 24.5384615,8.03846154 L24.5384615,9.73076923" id="Fill-1333" fill="#C5CCCD"></path>
                                <path d="M4.23076923,13.1153846 C4.23076923,13.3480769 4.04038462,13.5384615 3.80769231,13.5384615 L2.11538462,13.5384615 C1.88269231,13.5384615 1.69230769,13.3480769 1.69230769,13.1153846 L1.69230769,11.4230769 C1.69230769,11.1903846 1.88269231,11 2.11538462,11 L3.80769231,11 C4.04038462,11 4.23076923,11.1903846 4.23076923,11.4230769 L4.23076923,13.1153846" id="Fill-1334" fill="#C5CCCD"></path>
                                <path d="M7.61538462,13.1153846 C7.61538462,13.3480769 7.425,13.5384615 7.19230769,13.5384615 L5.5,13.5384615 C5.26730769,13.5384615 5.07692308,13.3480769 5.07692308,13.1153846 L5.07692308,11.4230769 C5.07692308,11.1903846 5.26730769,11 5.5,11 L7.19230769,11 C7.425,11 7.61538462,11.1903846 7.61538462,11.4230769 L7.61538462,13.1153846" id="Fill-1335" fill="#C5CCCD"></path>
                                <path d="M11,13.1153846 C11,13.3480769 10.8096154,13.5384615 10.5769231,13.5384615 L8.88461538,13.5384615 C8.65192308,13.5384615 8.46153846,13.3480769 8.46153846,13.1153846 L8.46153846,11.4230769 C8.46153846,11.1903846 8.65192308,11 8.88461538,11 L10.5769231,11 C10.8096154,11 11,11.1903846 11,11.4230769 L11,13.1153846" id="Fill-1336" fill="#C5CCCD"></path>
                                <path d="M14.3846154,13.1153846 C14.3846154,13.3480769 14.1942308,13.5384615 13.9615385,13.5384615 L12.2692308,13.5384615 C12.0365385,13.5384615 11.8461538,13.3480769 11.8461538,13.1153846 L11.8461538,11.4230769 C11.8461538,11.1903846 12.0365385,11 12.2692308,11 L13.9615385,11 C14.1942308,11 14.3846154,11.1903846 14.3846154,11.4230769 L14.3846154,13.1153846" id="Fill-1337" fill="#C5CCCD"></path>
                                <path d="M17.7692308,13.1153846 C17.7692308,13.3480769 17.5788462,13.5384615 17.3461538,13.5384615 L15.6538462,13.5384615 C15.4211538,13.5384615 15.2307692,13.3480769 15.2307692,13.1153846 L15.2307692,11.4230769 C15.2307692,11.1903846 15.4211538,11 15.6538462,11 L17.3461538,11 C17.5788462,11 17.7692308,11.1903846 17.7692308,11.4230769 L17.7692308,13.1153846" id="Fill-1338" fill="#C5CCCD"></path>
                                <path d="M21.1538462,13.1153846 C21.1538462,13.3480769 20.9634615,13.5384615 20.7307692,13.5384615 L19.0384615,13.5384615 C18.8057692,13.5384615 18.6153846,13.3480769 18.6153846,13.1153846 L18.6153846,11.4230769 C18.6153846,11.1903846 18.8057692,11 19.0384615,11 L20.7307692,11 C20.9634615,11 21.1538462,11.1903846 21.1538462,11.4230769 L21.1538462,13.1153846" id="Fill-1339" fill="#C5CCCD"></path>
                                <path d="M24.5384615,13.1153846 C24.5384615,13.3480769 24.3480769,13.5384615 24.1153846,13.5384615 L22.4230769,13.5384615 C22.1903846,13.5384615 22,13.3480769 22,13.1153846 L22,11.4230769 C22,11.1903846 22.1903846,11 22.4230769,11 L24.1153846,11 C24.3480769,11 24.5384615,11.1903846 24.5384615,11.4230769 L24.5384615,13.1153846" id="Fill-1340" fill="#C5CCCD"></path>
                                <path d="M4.23076923,16.5 C4.23076923,16.7326923 4.04038462,16.9230769 3.80769231,16.9230769 L2.11538462,16.9230769 C1.88269231,16.9230769 1.69230769,16.7326923 1.69230769,16.5 L1.69230769,14.8076923 C1.69230769,14.575 1.88269231,14.3846154 2.11538462,14.3846154 L3.80769231,14.3846154 C4.04038462,14.3846154 4.23076923,14.575 4.23076923,14.8076923 L4.23076923,16.5" id="Fill-1341" fill="#C5CCCD"></path>
                                <path d="M7.61538462,16.5 C7.61538462,16.7326923 7.425,16.9230769 7.19230769,16.9230769 L5.5,16.9230769 C5.26730769,16.9230769 5.07692308,16.7326923 5.07692308,16.5 L5.07692308,14.8076923 C5.07692308,14.575 5.26730769,14.3846154 5.5,14.3846154 L7.19230769,14.3846154 C7.425,14.3846154 7.61538462,14.575 7.61538462,14.8076923 L7.61538462,16.5" id="Fill-1342" fill="#C5CCCD"></path>
                                <path d="M11,16.5 C11,16.7326923 10.8096154,16.9230769 10.5769231,16.9230769 L8.88461538,16.9230769 C8.65192308,16.9230769 8.46153846,16.7326923 8.46153846,16.5 L8.46153846,14.8076923 C8.46153846,14.575 8.65192308,14.3846154 8.88461538,14.3846154 L10.5769231,14.3846154 C10.8096154,14.3846154 11,14.575 11,14.8076923 L11,16.5" id="Fill-1343" fill="#C5CCCD"></path>
                                <path d="M14.3846154,16.5 C14.3846154,16.7326923 14.1942308,16.9230769 13.9615385,16.9230769 L12.2692308,16.9230769 C12.0365385,16.9230769 11.8461538,16.7326923 11.8461538,16.5 L11.8461538,14.8076923 C11.8461538,14.575 12.0365385,14.3846154 12.2692308,14.3846154 L13.9615385,14.3846154 C14.1942308,14.3846154 14.3846154,14.575 14.3846154,14.8076923 L14.3846154,16.5" id="Fill-1344" fill="#C5CCCD"></path>
                                <path d="M17.7692308,16.5 C17.7692308,16.7326923 17.5788462,16.9230769 17.3461538,16.9230769 L15.6538462,16.9230769 C15.4211538,16.9230769 15.2307692,16.7326923 15.2307692,16.5 L15.2307692,14.8076923 C15.2307692,14.575 15.4211538,14.3846154 15.6538462,14.3846154 L17.3461538,14.3846154 C17.5788462,14.3846154 17.7692308,14.575 17.7692308,14.8076923 L17.7692308,16.5" id="Fill-1345" fill="#C5CCCD"></path>
                                <path d="M21.1538462,16.5 C21.1538462,16.7326923 20.9634615,16.9230769 20.7307692,16.9230769 L19.0384615,16.9230769 C18.8057692,16.9230769 18.6153846,16.7326923 18.6153846,16.5 L18.6153846,14.8076923 C18.6153846,14.575 18.8057692,14.3846154 19.0384615,14.3846154 L20.7307692,14.3846154 C20.9634615,14.3846154 21.1538462,14.575 21.1538462,14.8076923 L21.1538462,16.5" id="Fill-1346" fill="#C5CCCD"></path>
                                <path d="M24.5384615,16.5 C24.5384615,16.7326923 24.3480769,16.9230769 24.1153846,16.9230769 L22.4230769,16.9230769 C22.1903846,16.9230769 22,16.7326923 22,16.5 L22,14.8076923 C22,14.575 22.1903846,14.3846154 22.4230769,14.3846154 L24.1153846,14.3846154 C24.3480769,14.3846154 24.5384615,14.575 24.5384615,14.8076923 L24.5384615,16.5" id="Fill-1347" fill="#C5CCCD"></path>
                                <path d="M4.23076923,19.8846154 C4.23076923,20.1173077 4.04038462,20.3076923 3.80769231,20.3076923 L2.11538462,20.3076923 C1.88269231,20.3076923 1.69230769,20.1173077 1.69230769,19.8846154 L1.69230769,18.1923077 C1.69230769,17.9596154 1.88269231,17.7692308 2.11538462,17.7692308 L3.80769231,17.7692308 C4.04038462,17.7692308 4.23076923,17.9596154 4.23076923,18.1923077 L4.23076923,19.8846154" id="Fill-1348" fill="#C5CCCD"></path>
                                <path d="M7.61538462,19.8846154 C7.61538462,20.1173077 7.425,20.3076923 7.19230769,20.3076923 L5.5,20.3076923 C5.26730769,20.3076923 5.07692308,20.1173077 5.07692308,19.8846154 L5.07692308,18.1923077 C5.07692308,17.9596154 5.26730769,17.7692308 5.5,17.7692308 L7.19230769,17.7692308 C7.425,17.7692308 7.61538462,17.9596154 7.61538462,18.1923077 L7.61538462,19.8846154" id="Fill-1349" fill="#C5CCCD"></path>
                                <path d="M11,19.8846154 C11,20.1173077 10.8096154,20.3076923 10.5769231,20.3076923 L8.88461538,20.3076923 C8.65192308,20.3076923 8.46153846,20.1173077 8.46153846,19.8846154 L8.46153846,18.1923077 C8.46153846,17.9596154 8.65192308,17.7692308 8.88461538,17.7692308 L10.5769231,17.7692308 C10.8096154,17.7692308 11,17.9596154 11,18.1923077 L11,19.8846154" id="Fill-1350" fill="#C5CCCD"></path>
                                <path d="M14.3846154,19.8846154 C14.3846154,20.1173077 14.1942308,20.3076923 13.9615385,20.3076923 L12.2692308,20.3076923 C12.0365385,20.3076923 11.8461538,20.1173077 11.8461538,19.8846154 L11.8461538,18.1923077 C11.8461538,17.9596154 12.0365385,17.7692308 12.2692308,17.7692308 L13.9615385,17.7692308 C14.1942308,17.7692308 14.3846154,17.9596154 14.3846154,18.1923077 L14.3846154,19.8846154" id="Fill-1351" fill="#C5CCCD"></path>
                                <path d="M17.7692308,19.8846154 C17.7692308,20.1173077 17.5788462,20.3076923 17.3461538,20.3076923 L15.6538462,20.3076923 C15.4211538,20.3076923 15.2307692,20.1173077 15.2307692,19.8846154 L15.2307692,18.1923077 C15.2307692,17.9596154 15.4211538,17.7692308 15.6538462,17.7692308 L17.3461538,17.7692308 C17.5788462,17.7692308 17.7692308,17.9596154 17.7692308,18.1923077 L17.7692308,19.8846154" id="Fill-1352" fill="#C5CCCD"></path>
                                <path d="M21.1538462,19.8846154 C21.1538462,20.1173077 20.9634615,20.3076923 20.7307692,20.3076923 L19.0384615,20.3076923 C18.8057692,20.3076923 18.6153846,20.1173077 18.6153846,19.8846154 L18.6153846,18.1923077 C18.6153846,17.9596154 18.8057692,17.7692308 19.0384615,17.7692308 L20.7307692,17.7692308 C20.9634615,17.7692308 21.1538462,17.9596154 21.1538462,18.1923077 L21.1538462,19.8846154" id="Fill-1353" fill="#C5CCCD"></path>
                                <path d="M24.5384615,19.8846154 C24.5384615,20.1173077 24.3480769,20.3076923 24.1153846,20.3076923 L22.4230769,20.3076923 C22.1903846,20.3076923 22,20.1173077 22,19.8846154 L22,18.1923077 C22,17.9596154 22.1903846,17.7692308 22.4230769,17.7692308 L24.1153846,17.7692308 C24.3480769,17.7692308 24.5384615,17.9596154 24.5384615,18.1923077 L24.5384615,19.8846154" id="Fill-1354" fill="#C5CCCD"></path>
                            </g>
                        </g>
                    </g>
                    <g id="paint-brush" filter="url(#filter-10)" mask="url(#mask-2)">
                        <g transform="translate(80.879895, 85.838059) rotate(-40.000000) translate(-80.879895, -85.838059) translate(74.879895, 55.838059)">
                            <path d="M3.86599191,22.6578644 C3.86599191,22.6578644 8.29464228,22.6578644 8.29464228,22.6578644 C9.57377246,25.7218251 9.57377246,26.7236355 9.57377246,36.3562378 C9.57377246,42.2659647 9.26015847,49.3151682 8.6329305,57.5038482 L8.63294751,57.5038496 C8.53985527,58.7192012 7.52654377,59.6578644 6.30763202,59.6578644 L6.30763202,59.6578644 C5.09014718,59.6578644 4.07659884,58.723209 3.97815566,57.5097106 C1.86438079,30.0669877 2.39095949,25.4016608 3.86599191,22.6578644 Z" id="Rectangle" fill="#0078D7" fill-rule="evenodd"></path>
                            <path d="M5.55213017,23.6220458 C8.0720361,23.6220458 7.83550436,23.6220458 7.83550436,23.6220458 C9.22283912,26.6860065 9.22283912,27.6878169 9.22283912,37.3204192 C9.22283912,43.1552645 8.89126104,50.1008929 8.22810489,58.1573044 L8.22809164,58.1573033 C8.11344643,59.5500809 6.94961827,60.6220458 5.55213017,60.6220458 L5.55213017,60.6220458 C5.07005556,31.7634394 5.16406152,27.1973149 5.55213017,23.6220458 Z" id="Rectangle" fill="#005A9E" fill-rule="evenodd"></path>
                            <path d="M7.51812582,28.4143883 C8.65786199,25.526086 9.21231343,23.6221423 9.21231343,23.6221423 L7.24115008,22.6879582 L4.50138215,28.4284926 L7.51812411,28.4147661 L7.51812582,28.4143883 Z" id="Shape" fill="#005A9E" fill-rule="nonzero" transform="translate(6.856848, 25.558225) rotate(-25.000000) translate(-6.856848, -25.558225) "></path>
                            <polygon id="Shape" fill="#A9C5D3" fill-rule="nonzero" transform="translate(5.775393, 17.787868) rotate(-25.000000) translate(-5.775393, -17.787868) " points="5.68406792 23.2841758 2.09123877 21.5789669 7.37164451 12.2915595 9.45954647 13.2826481"></polygon>
                            <polygon id="Shape" fill="#92B3C5" fill-rule="nonzero" transform="translate(6.030854, 22.388659) rotate(-25.000000) translate(-6.030854, -22.388659) " points="8.25638706 23.8920789 3.45818251 21.616487 3.80758078 20.8852382 8.60352642 23.1612183"></polygon>
                            <path d="M8.43025406,1.17725374 C8.04371386,7.30119477 1.7395911,2.44823054 2.62013869,11.4714387 L4.68251712,12.4497959 C6.46684311,12.3555236 8.10444543,10.7636809 9.06607677,8.74528051 C10.2878378,6.18685979 10.4289017,2.93959469 8.43025406,1.17725374 Z" id="Shape" fill="#645252" fill-rule="nonzero" transform="translate(6.249452, 6.813525) rotate(-25.000000) translate(-6.249452, -6.813525) "></path>
                            <path d="M4.58366683,11.9965415 C4.58366683,11.9965415 5.53296247,9.29426007 4.59982505,8.33494808 C4.59982505,8.33494808 7.65100883,9.10815937 6.82148065,6.61461853 C6.82148065,6.61461853 10.1695747,6.86691333 8.33140206,0.72437719 C11.9444208,3.45691148 8.51745364,12.2571295 4.58366683,11.9965415 Z" id="Shape" fill="#000000" fill-rule="nonzero" opacity="0.55" transform="translate(7.221232, 6.363293) rotate(-25.000000) translate(-7.221232, -6.363293) "></path>
                        </g>
                    </g>
                </g>
                <g id="PowerApps-Border" stroke="#742774" stroke-width="4">
                    <rect id="Azure-Border" x="2" y="2" width="96" height="96" rx="48"></rect>
                </g>
            </g>
        </g>
    </g>
</svg>