<?xml version="1.0" encoding="UTF-8"?>
<svg width="101px" height="101px" viewBox="0 0 101 101" version="1.1" xmlns="http://www.w3.org/2000/svg" xmlns:xlink="http://www.w3.org/1999/xlink">
    <!-- Generator: Sketch 63.1 (92452) - https://sketch.com -->
    <title>Use best practices to secure and govern Power Automate environments/Use-templates-to-enforce-governance-policies-in-Power-Automate</title>
    <desc>Created with Sketch.</desc>
    <defs>
        <rect id="path-1" x="0" y="0" width="94.3396226" height="94.3396226" rx="47.1698113"></rect>
        <linearGradient x1="77.8299825%" y1="11.1997378%" x2="-99.6885927%" y2="253.807911%" id="linearGradient-3">
            <stop stop-color="#FFFFFF" offset="0%"></stop>
            <stop stop-color="#000000" stop-opacity="0.5" offset="100%"></stop>
        </linearGradient>
        <rect id="path-4" x="0" y="0" width="94.3396226" height="94.3396226"></rect>
        <rect id="path-5" x="0" y="0" width="100" height="100" rx="50"></rect>
        <filter x="-0.5%" y="-0.5%" width="102.0%" height="102.0%" filterUnits="objectBoundingBox" id="filter-6">
            <feOffset dx="1" dy="1" in="SourceAlpha" result="shadowOffsetOuter1"></feOffset>
            <feMorphology radius="4" operator="erode" in="SourceAlpha" result="shadowInner"></feMorphology>
            <feOffset dx="1" dy="1" in="shadowInner" result="shadowInner"></feOffset>
            <feComposite in="shadowOffsetOuter1" in2="shadowInner" operator="out" result="shadowOffsetOuter1"></feComposite>
            <feColorMatrix values="0 0 0 0 0   0 0 0 0 0   0 0 0 0 0  0 0 0 0.15 0" type="matrix" in="shadowOffsetOuter1"></feColorMatrix>
        </filter>
        <path d="M50,2.83018868 C76.0511674,2.83018868 97.1698113,23.9488326 97.1698113,50 C97.1698113,76.0511674 76.0511674,97.1698113 50,97.1698113 C23.9488326,97.1698113 2.83018868,76.0511674 2.83018868,50 C2.83018868,23.9488326 23.9488326,2.83018868 50,2.83018868 Z M50,6.60377358 C26.032926,6.60377358 6.60377358,26.032926 6.60377358,50 C6.60377358,73.967074 26.032926,93.3962264 50,93.3962264 C73.967074,93.3962264 93.3962264,73.967074 93.3962264,50 C93.3962264,26.032926 73.967074,6.60377358 50,6.60377358 Z" id="path-7"></path>
        <filter x="-27.3%" y="-23.5%" width="154.5%" height="147.1%" filterUnits="objectBoundingBox" id="filter-9">
            <feOffset dx="0" dy="2" in="SourceAlpha" result="shadowOffsetOuter1"></feOffset>
            <feGaussianBlur stdDeviation="2" in="shadowOffsetOuter1" result="shadowBlurOuter1"></feGaussianBlur>
            <feColorMatrix values="0 0 0 0 0   0 0 0 0 0   0 0 0 0 0  0 0 0 0.1 0" type="matrix" in="shadowBlurOuter1" result="shadowMatrixOuter1"></feColorMatrix>
            <feMerge>
                <feMergeNode in="shadowMatrixOuter1"></feMergeNode>
                <feMergeNode in="SourceGraphic"></feMergeNode>
            </feMerge>
        </filter>
        <linearGradient x1="50%" y1="100%" x2="50%" y2="0%" id="linearGradient-10">
            <stop stop-color="#D2EBFF" offset="0%"></stop>
            <stop stop-color="#F0FFFD" offset="100%"></stop>
        </linearGradient>
        <path d="M25.4486264,15.8082209 L23.8137559,15.8082209 L23.8137559,10.1834637 C23.8421678,7.52678533 22.818179,4.96071944 20.9527325,3.01387879 C19.1192723,1.09246193 16.541449,0 13.8410457,0 C11.1406424,0 8.56281903,1.09246193 6.72935889,3.01387879 C4.86029552,4.95852622 3.83572521,7.52604935 3.86833548,10.1834637 L3.86833548,15.8082209 L2.23346495,15.8082209 C1.85119695,15.7724882 1.47204218,15.9013884 1.19657681,16.1607286 C0.921111439,16.4200689 0.777176672,16.7836378 0.802953242,17.1549937 L0.802953242,31.7318292 C0.80278031,32.0749816 0.946172452,32.4035395 1.20036286,32.6424236 C1.45455327,32.8813077 1.7978196,33.0101037 2.15172142,32.9993802 L25.4486264,32.9993802 C25.8025282,33.0101037 26.1457946,32.8813077 26.399985,32.6424236 C26.6541754,32.4035395 26.7975675,32.0749816 26.7973946,31.7318292 L26.7973946,17.1549937 C26.8206459,16.7983196 26.6874545,16.4487061 26.4306218,16.1922533 C26.1737891,15.9358006 25.8171832,15.7963414 25.4486264,15.8082209 Z M18.8408163,15.4354839 L8.22857143,15.4354839 L8.22857143,10.0380576 C8.2309734,8.63572651 8.83175321,7.29010853 9.90204082,6.2898449 C10.8238324,5.33612518 12.1460611,4.79032258 13.5346939,4.79032258 C14.9233266,4.79032258 16.2455554,5.33612518 17.1673469,6.2898449 C17.4070416,6.52286515 17.6254646,6.77359082 17.8204082,7.03948744 L17.8204082,7.03948744 C18.4781169,7.9093525 18.8338371,8.94160508 18.8408163,10.0005755 L18.8408163,15.4354839 Z" id="path-11"></path>
        <filter x="-1.9%" y="-1.5%" width="103.8%" height="106.1%" filterUnits="objectBoundingBox" id="filter-12">
            <feOffset dx="0" dy="1" in="SourceAlpha" result="shadowOffsetOuter1"></feOffset>
            <feColorMatrix values="0 0 0 0 0   0 0 0 0 0   0 0 0 0 0  0 0 0 0.1 0" type="matrix" in="shadowOffsetOuter1"></feColorMatrix>
        </filter>
        <polygon id="path-13" points="0 0.00994 9.99005854 0.00994 9.99005854 6.93924 0 6.93924"></polygon>
    </defs>
    <g id="Badges" stroke="none" stroke-width="1" fill="none" fill-rule="evenodd">
        <g id="Use-best-practices-to-secure-and-govern-Power-Automate-environments" transform="translate(-160.000000, -890.000000)">
            <g id="Use-best-practices-to-secure-and-govern-Power-Automate-environments/Use-templates-to-enforce-governance-policies-in-Power-Automate" transform="translate(160.000000, 890.000000)">
                <g id="Badge-Plates/Circle">
                    <g id="BG" transform="translate(2.830189, 2.830189)">
                        <mask id="mask-2" fill="white">
                            <use xlink:href="#path-1"></use>
                        </mask>
                        <g></g>
                        <g id="Colors/Microsoft-365/BG-Solid-Badge" mask="url(#mask-2)">
                            <g id="Rectangle">
                                <use fill="#0078D4" xlink:href="#path-4"></use>
                                <use fill-opacity="0.4" fill="url(#linearGradient-3)" xlink:href="#path-4"></use>
                            </g>
                        </g>
                    </g>
                    <g id="Border">
                        <g id="White-Border">
                            <use fill="black" fill-opacity="1" filter="url(#filter-6)" xlink:href="#path-5"></use>
                            <rect stroke="#F2F1F0" stroke-width="4" stroke-linejoin="square" x="2" y="2" width="96" height="96" rx="48"></rect>
                        </g>
                        <mask id="mask-8" fill="white">
                            <use xlink:href="#path-7"></use>
                        </mask>
                        <use id="Boarder" fill="#0078D4" fill-rule="nonzero" xlink:href="#path-7"></use>
                        <g id="Colors/Microsoft-365/Border" mask="url(#mask-8)" fill="#0076D7">
                            <g transform="translate(2.830189, 2.830189)" id="Microsoft-365/Border">
                                <rect x="0" y="0" width="94.3396226" height="94.3396226"></rect>
                            </g>
                        </g>
                    </g>
                </g>
                <g id="Group-8" transform="translate(26.000000, 23.000000)">
                    <g id="Document" filter="url(#filter-9)">
                        <g id="Group">
                            <path d="M24.9297652,0.047564187 L2.10107416,0.047564187 C1.10155753,0.047564187 0.291289199,0.832981707 0.291289199,1.80184332 L0.291289199,49.1981567 C0.291289199,50.1670183 1.10155753,50.9524358 2.10107416,50.9524358 L41.4083335,50.9524358 C42.4078501,50.9524358 43.2181185,50.1670183 43.2181185,49.1981567 L43.2181185,17.8365701 C43.2181185,16.8677085 42.4078501,16.082291 41.4083335,16.082291 L28.3588314,16.082291 C27.3768502,16.082291 26.5807971,15.3106527 26.5807971,14.3587887 L26.5807971,1.80184332 C26.6001092,0.884240273 25.874194,0.11292997 24.9297652,0.047564187 Z" id="Path" fill="url(#linearGradient-10)" fill-rule="nonzero"></path>
                            <ellipse id="Oval" fill="#83B9F9" cx="9.3902439" cy="26.2806122" rx="1.87804878" ry="1.82142857"></ellipse>
                            <ellipse id="Oval" fill="#83B9F9" cx="9.3902439" cy="33.0459184" rx="1.87804878" ry="1.82142857"></ellipse>
                            <ellipse id="Oval" fill="#83B9F9" cx="9.3902439" cy="40.3316327" rx="1.87804878" ry="1.82142857"></ellipse>
                            <path d="M43.4634146,17.1734694 L25.7560976,0 L25.7560976,13.9147465 C25.7560976,15.7144895 27.2519157,17.1734694 29.0971008,17.1734694 L43.4634146,17.1734694 Z" id="Path" fill="#92C4FC" fill-rule="nonzero"></path>
                        </g>
                        <path d="M35.4402734,25 L16.4383083,25 C15.7509691,25 15.1937706,25.5465106 15.1937706,26.2206655 C15.1937706,26.8948204 15.7509691,27.441331 16.4383083,27.441331 L35.5616917,27.441331 C36.2490309,27.441331 36.8062294,26.8948204 36.8062294,26.2206655 C36.8062294,25.5465106 36.2490309,25 35.5616917,25 L35.4402734,25 Z M35.4402734,32.2644483 L16.4383083,32.2644483 C15.9529927,32.1894206 15.4680944,32.4014539 15.2006119,32.8056604 C14.9331294,33.2098669 14.9331294,33.7305884 15.2006119,34.1347949 C15.4680944,34.5390014 15.9529927,34.7510347 16.4383083,34.676007 L35.5616917,34.676007 C36.0470073,34.7510347 36.5319056,34.5390014 36.7993881,34.1347949 C37.0668706,33.7305884 37.0668706,33.2098669 36.7993881,32.8056604 C36.5319056,32.4014539 36.0470073,32.1894206 35.5616917,32.2644483 L35.4402734,32.2644483 Z M35.4402734,39.558669 L16.4383083,39.558669 C15.7509691,39.558669 15.1937706,40.1051796 15.1937706,40.7793345 C15.1937706,41.4534894 15.7509691,42 16.4383083,42 L35.5616917,42 C36.2490309,42 36.8062294,41.4534894 36.8062294,40.7793345 C36.8062294,40.1051796 36.2490309,39.558669 35.5616917,39.558669 L35.4402734,39.558669 Z" id="Shape" fill="#83B9F9" fill-rule="nonzero"></path>
                    </g>
                    <g id="Lock" transform="translate(23.000000, 23.000000)" fill-rule="nonzero">
                        <g id="Shape">
                            <use fill="black" fill-opacity="1" filter="url(#filter-12)" xlink:href="#path-11"></use>
                            <use fill="#494949" xlink:href="#path-11"></use>
                        </g>
                        <path d="M2.17751537,15.0007517 L25.9250894,15.0007517 C26.2474293,15.0024607 26.5582461,15.1231085 26.8,15.3403602 L1.30260475,33 C1.00185543,32.7478717 0.820161714,32.3776055 0.802655819,31.9811746 L0.802655819,16.4440877 C0.778954717,16.0618402 0.914722625,15.6871595 1.17652364,15.4123192 C1.43832466,15.1374789 1.80182894,14.9880206 2.17751537,15.0007517 Z" id="Path" fill="#5F5F5F"></path>
                        <path d="M25.4224846,15.0007517 L1.67491062,15.0007517 C1.35257066,15.0024607 1.04175388,15.1231085 0.8,15.3403602 L26.2973953,33 C26.6121204,32.759488 26.7973442,32.382028 26.7973442,31.9811746 L26.7973442,16.4440877 C26.8210453,16.0618402 26.6852774,15.6871595 26.4234764,15.4123192 C26.1616753,15.1374789 25.7981711,14.9880206 25.4224846,15.0007517 Z" id="Path" fill="#717171" opacity="0.571800595"></path>
                    </g>
                    <g id="Group-6" transform="translate(29.846881, 41.436709)">
                        <path d="M10.4524765,9.48190041 C11.349693,8.6049776 11.8863152,7.46595574 11.9875646,6.24167419 L12.8,6.24882885 L11.4986395,4 L10.1567793,6.22581469 L10.9233475,6.23261162 C10.8277094,7.1828697 10.4016078,8.06587398 9.70274258,8.74902475 C8.90201797,9.53174454 7.83658094,9.96293205 6.70405089,9.96293205 C5.57091091,9.96293205 4.5062058,9.53174454 3.70487126,8.74902475 C3.49859074,8.54690561 3.16251574,8.54690561 2.95562529,8.74902475 C2.7481249,8.95126314 2.7481249,9.27978127 2.95562529,9.48190041 C3.957019,10.4607771 5.28765641,11 6.70405089,11 C8.11971345,11 9.45108279,10.4607771 10.4524765,9.48190041 Z" id="Fill-1" fill="#FFFFFF"></path>
                        <g id="Group-5" transform="translate(0.800000, 0.000000)">
                            <mask id="mask-14" fill="white">
                                <use xlink:href="#path-13"></use>
                            </mask>
                            <g id="Clip-4"></g>
                            <path d="M1.87303169,4.74590667 C1.95365767,3.78842333 2.3809023,2.89965667 3.0984979,2.21202333 C3.89854636,1.44587333 4.96154269,1.02400667 6.09286406,1.02400667 C7.22357648,1.02400667 8.28730356,1.44587333 9.08662127,2.21202333 C9.29317968,2.40989 9.62810634,2.40989 9.83515191,2.21202333 C10.0417103,2.01392333 10.0417103,1.69309 9.83515191,1.49499 C8.83548717,0.537506667 7.50637638,0.00994 6.09298586,0.00994 C4.67886459,0.00994 3.35036276,0.537506667 2.35057622,1.49499 C1.43019775,2.37699 0.891757465,3.52300667 0.811253274,4.75512333 L-1.10844667e-12,4.76189 L1.33970665,6.93924 L2.63849136,4.73937333 L1.87303169,4.74590667 Z" id="Fill-3" fill="#FFFFFF" mask="url(#mask-14)"></path>
                        </g>
                    </g>
                    <g id="Gear" transform="translate(34.846881, 45.061248)" fill="#FFFFFF" fill-rule="nonzero">
                        <path d="M3.8,2.18106996 L3.8,1.72016461 L3.32892562,1.55555556 L3.21322314,1.24279835 L3.4446281,0.757201646 L3.4446281,0.70781893 L3.29586777,0.559670782 L3.12231405,0.362139918 L3.05619835,0.362139918 L2.59338843,0.609053498 L2.27933884,0.518518519 L2.07272727,0 L1.61818182,0 L1.46115702,0.469135802 L1.11404959,0.609053498 L0.576859504,0.353909465 L0.254545455,0.674897119 L0.254545455,0.732510288 L0.494214876,1.19341564 L0.353719008,1.53909465 L-0.2,1.74485597 L-0.2,2.20576132 L-0.133884298,2.20576132 L0.353719008,2.37037037 L0.485950413,2.68312757 L0.238016529,3.218107 L0.560330579,3.5473251 L0.626446281,3.5473251 L1.08099174,3.31687243 L1.40330579,3.44855967 L1.60165289,4 L2.06446281,4 L2.06446281,3.93415638 L2.2214876,3.44032922 L2.53553719,3.30864198 L3.08099174,3.56378601 L3.40330579,3.24279835 L3.40330579,3.17695473 L3.17190083,2.71604938 L3.26280992,2.39506173 L3.8,2.18106996 Z M1.80385395,2.63727551 C1.47421546,2.60188148 1.22511462,2.33702958 1.22511462,2.02194154 C1.22511462,1.7068535 1.47421546,1.44200161 1.80385395,1.40660758 C1.97600542,1.40451111 2.14186716,1.46800112 2.26437956,1.58289163 C2.38689196,1.69778213 2.45584433,1.85449766 2.45583018,2.01802222 C2.45807036,2.18290148 2.3900998,2.34165026 2.26734157,2.45824721 C2.14458333,2.57484417 1.97744586,2.63940325 1.80385395,2.63727551 Z" id="Shape"></path>
                    </g>
                </g>
            </g>
        </g>
    </g>
</svg>