<svg width="103" height="103" viewBox="0 0 103 103" fill="none" xmlns="http://www.w3.org/2000/svg">
<path d="M51.6838 98.0975C25.8338 98.0975 4.87378 77.1475 4.87378 51.2875C4.87378 25.4275 25.8338 4.47754 51.6838 4.47754C77.5338 4.47754 98.4938 25.4375 98.4938 51.2875C98.4938 77.1375 77.5338 98.0975 51.6838 98.0975Z" fill="url(#paint0_linear)"/>
<path fill-rule="evenodd" clip-rule="evenodd" d="M97.5839 51.2875C97.5839 76.6375 77.0339 97.1875 51.6839 97.1875C26.3339 97.1875 5.78395 76.6375 5.78395 51.2875C5.78395 25.9375 26.3339 5.38746 51.6839 5.38746C77.0339 5.38746 97.5839 25.9375 97.5839 51.2875ZM51.6839 1.64746C79.1039 1.64746 101.324 23.8675 101.324 51.2875C101.324 78.7075 79.0939 100.927 51.6839 100.927C24.2639 100.927 2.04395 78.6975 2.04395 51.2875C2.04395 23.8675 24.2639 1.64746 51.6839 1.64746Z" fill="#F2F1F0"/>
<path fill-rule="evenodd" clip-rule="evenodd" d="M94.7738 51.2875C94.7738 75.0875 75.4838 94.3775 51.6838 94.3775C27.8838 94.3775 8.59376 75.0875 8.59376 51.2875C8.59376 27.4875 27.8838 8.19752 51.6838 8.19752C75.4838 8.19752 94.7738 27.4875 94.7738 51.2875ZM51.6838 4.45752C77.5438 4.45752 98.5138 25.4275 98.5138 51.2875C98.5138 77.1475 77.5438 98.1175 51.6838 98.1175C25.8238 98.1175 4.85376 77.1475 4.85376 51.2875C4.85376 25.4275 25.8138 4.45752 51.6838 4.45752Z" fill="#0078D4"/>
<path opacity="0.15" d="M87.3138 46.678C87.3138 45.908 86.6838 45.268 85.9038 45.268C85.3938 45.268 82.2438 44.988 80.5438 43.668C80.5438 43.668 80.5538 43.648 80.5438 43.668C79.9038 41.338 78.9638 39.158 77.8038 37.088C77.5038 35.128 79.5338 33.698 80.4638 32.168C80.6238 31.898 80.7238 31.748 80.7838 31.638C80.9538 31.138 80.8638 30.568 80.4638 30.178C80.4638 30.178 78.9038 27.948 77.3038 26.358C75.7038 24.768 73.2838 22.998 73.2838 22.998C72.7338 22.448 71.8438 22.448 71.2938 22.998C70.9338 23.348 68.5338 25.328 66.3638 25.648C66.3338 25.648 66.3338 25.648 66.3338 25.648C64.3238 24.508 62.0638 23.568 59.8038 22.928H59.7738C58.1738 21.748 58.5938 19.308 58.1738 17.568C58.1738 16.798 57.5438 16.158 56.7638 16.158C56.7638 16.158 54.0838 15.688 51.8238 15.688C49.5638 15.688 46.6138 16.158 46.6138 16.158C45.8438 16.158 45.2038 16.788 45.2038 17.568C45.2038 18.078 44.9238 21.228 43.6038 22.928C41.3638 23.558 39.0138 24.558 37.0238 25.668C35.0638 25.968 33.6338 23.938 32.1038 23.008C31.8338 22.848 31.6838 22.748 31.5738 22.688C31.0738 22.518 30.5038 22.608 30.1138 23.008C30.1138 23.008 27.8838 24.568 26.2938 26.168C24.7038 27.768 22.9338 30.188 22.9338 30.188C22.3838 30.738 22.3838 31.628 22.9338 32.178C23.2838 32.528 25.3238 34.968 25.5938 37.098V37.118C24.4838 39.108 23.5138 41.448 22.8738 43.688C22.8738 43.688 22.9038 43.648 22.8738 43.688C21.5038 45.348 19.2538 44.868 17.5138 45.288C16.7438 45.288 16.1038 45.918 16.1038 46.698C16.1038 46.698 15.6338 49.378 15.6338 51.638C15.6338 53.898 16.1038 56.848 16.1038 56.848C16.1038 57.618 16.7338 58.258 17.5138 58.258C18.0238 58.258 21.1738 58.538 22.8738 59.858C22.9138 59.838 22.8938 59.888 22.8938 59.888C23.5438 62.138 24.4738 64.388 25.6038 66.368C25.5838 66.398 25.6038 66.368 25.6138 66.438C25.8038 68.488 23.8838 69.828 22.9538 71.358C22.7938 71.628 22.6938 71.778 22.6338 71.888C22.4638 72.388 22.5538 72.958 22.9538 73.348C22.9538 73.348 24.5138 75.578 26.1138 77.168C27.7138 78.768 30.1338 80.528 30.1338 80.528C30.6838 81.078 31.5738 81.078 32.1238 80.528C32.4738 80.178 34.9138 78.138 37.0438 77.868C37.0438 77.868 37.0338 77.878 37.0738 77.888C39.1238 79.028 41.2338 79.928 43.5438 80.558C43.5638 80.568 43.6338 80.588 43.6338 80.588C45.2338 81.768 44.8138 84.208 45.2338 85.948C45.3238 86.728 45.7538 87.228 46.6438 87.358C46.6438 87.358 49.3238 87.828 51.5838 87.828C53.8438 87.828 56.7938 87.368 56.7938 87.368C57.5638 87.238 58.2038 86.738 58.2038 85.958C58.2038 85.448 58.4838 82.298 59.8038 80.598C59.8038 80.598 59.8638 80.548 59.9138 80.498C62.2638 79.838 64.0538 79.108 66.1338 77.918C66.2438 77.878 66.1238 77.888 66.3738 77.848C68.3338 77.548 69.7638 79.578 71.2938 80.508C71.5638 80.668 71.7138 80.768 71.8238 80.828C72.3238 80.998 72.8938 80.908 73.2838 80.508C73.2838 80.508 75.5138 78.948 77.1038 77.348C78.7038 75.748 80.4638 73.328 80.4638 73.328C81.0138 72.778 81.0138 71.888 80.4638 71.338C80.1138 70.988 78.0738 68.548 77.8038 66.418C77.7738 66.198 77.7938 66.168 77.8238 66.108C79.0138 64.018 79.7538 62.488 80.4038 60.108C80.4038 60.108 80.3738 60.028 80.5238 59.828C81.7038 58.228 84.1438 58.648 85.8838 58.228C86.6538 58.228 87.2938 57.598 87.2938 56.818C87.2938 56.818 87.7638 54.138 87.7638 51.878C87.7738 49.638 87.3138 46.678 87.3138 46.678Z" fill="#1F1D20"/>
<path d="M87.3138 45.7278C87.3138 44.9578 86.6838 44.3178 85.9038 44.3178C85.3938 44.3178 82.2438 44.0378 80.5438 42.7178C80.5438 42.7178 80.5538 42.6978 80.5438 42.7178C79.9038 40.3878 78.9638 38.2078 77.8038 36.1378C77.5038 34.1778 79.5338 32.7478 80.4638 31.2178C80.6238 30.9478 80.7238 30.7978 80.7838 30.6878C80.9538 30.1878 80.8638 29.6178 80.4638 29.2278C80.4638 29.2278 78.9038 26.9978 77.3038 25.4078C75.7038 23.8178 73.2838 22.0478 73.2838 22.0478C72.7338 21.4978 71.8438 21.4978 71.2938 22.0478C70.9338 22.3978 68.5338 24.3778 66.3638 24.6978C66.3338 24.6978 66.3338 24.6978 66.3338 24.6978C64.3238 23.5578 62.0638 22.6178 59.8038 21.9778H59.7738C58.1738 20.7978 58.5938 18.3578 58.1738 16.6178C58.1738 15.8478 57.5438 15.2078 56.7638 15.2078C56.7638 15.2078 54.0838 14.7378 51.8238 14.7378C49.5638 14.7378 46.6138 15.2078 46.6138 15.2078C45.8438 15.2078 45.2038 15.8378 45.2038 16.6178C45.2038 17.1278 44.9238 20.2778 43.6038 21.9778C41.3638 22.6078 39.0138 23.6078 37.0238 24.7178C35.0638 25.0178 33.6338 22.9878 32.1038 22.0578C31.8338 21.8978 31.6838 21.7978 31.5738 21.7378C31.0738 21.5678 30.5038 21.6578 30.1138 22.0578C30.1138 22.0578 27.8838 23.6178 26.2938 25.2178C24.7038 26.8178 22.9338 29.2378 22.9338 29.2378C22.3838 29.7878 22.3838 30.6778 22.9338 31.2278C23.2838 31.5778 25.3238 34.0178 25.5938 36.1478V36.1678C24.4838 38.1578 23.5138 40.4978 22.8738 42.7378C22.8738 42.7378 22.9038 42.6978 22.8738 42.7378C21.5038 44.3978 19.2538 43.9178 17.5138 44.3378C16.7438 44.3378 16.1038 44.9678 16.1038 45.7478C16.1038 45.7478 15.6338 48.4278 15.6338 50.6878C15.6338 52.9478 16.1038 55.8978 16.1038 55.8978C16.1038 56.6678 16.7338 57.3078 17.5138 57.3078C18.0238 57.3078 21.1738 57.5878 22.8738 58.9078C22.9138 58.8878 22.8938 58.9378 22.8938 58.9378C23.5438 61.1878 24.4738 63.4378 25.6038 65.4178C25.5838 65.4478 25.6038 65.4178 25.6138 65.4878C25.8038 67.5378 23.8838 68.8778 22.9538 70.4078C22.7938 70.6778 22.6938 70.8278 22.6338 70.9378C22.4638 71.4378 22.5538 72.0078 22.9538 72.3978C22.9538 72.3978 24.5138 74.6278 26.1138 76.2178C27.7138 77.8178 30.1338 79.5778 30.1338 79.5778C30.6838 80.1278 31.5738 80.1278 32.1238 79.5778C32.4738 79.2278 34.9138 77.1878 37.0438 76.9178C37.0438 76.9178 37.0338 76.9278 37.0738 76.9378C39.1238 78.0778 41.2338 78.9778 43.5438 79.6078C43.5638 79.6178 43.6338 79.6378 43.6338 79.6378C45.2338 80.8178 44.8138 83.2578 45.2338 84.9978C45.3238 85.7778 45.7538 86.2778 46.6438 86.4078C46.6438 86.4078 49.3238 86.8778 51.5838 86.8778C53.8438 86.8778 56.7938 86.4178 56.7938 86.4178C57.5638 86.2878 58.2038 85.7878 58.2038 85.0078C58.2038 84.4978 58.4838 81.3478 59.8038 79.6478C59.8038 79.6478 59.8638 79.5978 59.9138 79.5478C62.2638 78.8878 64.0538 78.1578 66.1338 76.9678C66.2438 76.9278 66.1238 76.9378 66.3738 76.8978C68.3338 76.5978 69.7638 78.6278 71.2938 79.5578C71.5638 79.7178 71.7138 79.8178 71.8238 79.8778C72.3238 80.0478 72.8938 79.9578 73.2838 79.5578C73.2838 79.5578 75.5138 77.9978 77.1038 76.3978C78.7038 74.7978 80.4638 72.3778 80.4638 72.3778C81.0138 71.8278 81.0138 70.9378 80.4638 70.3878C80.1138 70.0378 78.0738 67.5978 77.8038 65.4678C77.7738 65.2478 77.7938 65.2178 77.8238 65.1578C79.0138 63.0678 79.7538 61.5378 80.4038 59.1578C80.4038 59.1578 80.3738 59.0778 80.5238 58.8778C81.7038 57.2778 84.1438 57.6978 85.8838 57.2778C86.6538 57.2778 87.2938 56.6478 87.2938 55.8678C87.2938 55.8678 87.7638 53.1878 87.7638 50.9278C87.7738 48.6778 87.3138 45.7278 87.3138 45.7278Z" fill="url(#paint1_linear)"/>
<path d="M51.684 33.9175C42.084 33.9175 34.314 41.6875 34.314 51.2875C34.314 54.5875 35.234 57.6775 36.834 60.2975V65.8875H42.294C45.004 67.6375 48.234 68.6575 51.684 68.6575C61.284 68.6575 69.054 60.8875 69.054 51.2875C69.054 41.6875 61.284 33.9175 51.684 33.9175Z" fill="#ED722E"/>
<path d="M51.684 33.9175C42.084 33.9175 34.314 41.6875 34.314 51.2875C34.314 54.5875 35.234 57.6775 36.834 60.2975L36.604 65.8875L63.614 38.8775C60.714 35.8075 56.424 33.9175 51.684 33.9175Z" fill="#FF7736"/>
<path d="M57.7237 38.1978H56.3037V63.7078H57.7237V38.1978Z" fill="#F2F1F0"/>
<path d="M46.364 45.4374H41.334V43.6274H53.574V45.4374H48.524V60.1474H46.364V45.4374V45.4374Z" fill="white"/>
<defs>
<linearGradient id="paint0_linear" x1="49.9138" y1="-13.5055" x2="53.8968" y2="132.263" gradientUnits="userSpaceOnUse">
<stop stop-color="#00ABDE"/>
<stop offset="1" stop-color="#007ED8"/>
</linearGradient>
<linearGradient id="paint1_linear" x1="54.4428" y1="-72.4363" x2="49.3378" y2="155.586" gradientUnits="userSpaceOnUse">
<stop stop-color="#007ED8"/>
<stop offset="0.7065" stop-color="#002D4C"/>
</linearGradient>
</defs>
</svg>
