<svg width="181" height="191" viewBox="0 0 181 191" fill="none" xmlns="http://www.w3.org/2000/svg">
<path d="M90.535 189.498C93.595 189.498 96.605 188.648 99.265 187.028L161.235 149.368C166.775 145.998 170.205 139.668 170.205 132.828V58.1181C170.205 51.2981 166.775 44.9581 161.235 41.5781L99.265 3.91811C93.935 0.678111 87.115 0.698111 81.815 3.91811L19.845 41.5981C14.305 44.9681 10.855 51.2981 10.855 58.1381V132.838C10.855 138.598 13.305 144.018 17.405 147.588V147.618L81.815 187.048C84.455 188.648 87.475 189.498 90.535 189.498ZM91.185 8.44811C93.135 8.44811 95.615 9.65811 97.325 10.7081L158.085 47.8981C161.835 50.1781 163.955 56.7781 163.955 61.5281L163.325 132.828C163.325 137.578 160.125 141.848 156.375 144.128L95.975 180.508C92.545 182.598 89.755 182.598 86.315 180.508L25.105 144.038C21.355 141.758 18.335 137.558 18.335 132.828V59.1881C18.335 54.4481 21.065 49.5581 24.835 47.2681L85.415 10.7081C87.115 9.66811 89.235 8.44811 91.185 8.44811Z" fill="#F2F1F0"/>
<path fill-rule="evenodd" clip-rule="evenodd" d="M98.435 12.0278C95.985 10.5278 93.265 9.77783 90.535 9.77783C87.805 9.77783 85.085 10.5378 82.635 12.0278L26.505 46.3578C21.485 49.4278 18.375 55.1778 18.375 61.4278V129.528C18.375 135.758 21.475 141.528 26.505 144.598L82.635 178.928C85.085 180.428 87.805 181.178 90.535 181.178C93.265 181.178 95.985 180.438 98.435 178.928L154.565 144.598C159.585 141.528 162.695 135.758 162.695 129.528V61.4278C162.695 55.1978 159.595 49.4478 154.565 46.3578L98.435 12.0278Z" fill="url(#paint0_linear)"/>
<path fill-rule="evenodd" clip-rule="evenodd" d="M90.535 11.248C92.215 11.248 94.105 12.118 96.165 13.368L154.635 48.908C158.285 51.128 160.695 55.398 160.695 60.228V130.708C160.695 135.528 158.285 139.808 154.635 142.028L96.175 177.568C94.215 178.758 92.295 179.508 90.545 179.508C88.795 179.508 86.875 178.758 84.915 177.568L26.435 142.038C24.425 140.808 22.975 139.608 21.995 137.998C21.015 136.398 20.375 134.178 20.375 130.718V60.238C20.375 55.408 22.785 51.138 26.435 48.918L84.895 13.378C86.985 12.128 88.845 11.248 90.535 11.248ZM98.245 180.998L156.705 145.458C161.625 142.468 164.685 136.848 164.685 130.718V60.238C164.685 54.108 161.625 48.488 156.705 45.498L98.245 9.95805C96.135 8.67805 93.425 7.24805 90.535 7.24805C87.635 7.24805 84.925 8.68805 82.835 9.94805H82.825L24.355 45.498C19.435 48.488 16.375 54.108 16.375 60.238V130.718C16.375 134.678 17.115 137.668 18.575 140.078C20.035 142.478 22.095 144.078 24.355 145.448L82.815 180.988C85.035 182.338 87.705 183.518 90.525 183.518C93.345 183.518 96.025 182.348 98.245 180.998Z" fill="url(#paint1_linear)"/>
<path opacity="0.15" d="M33.7753 137.908H142.215C143.215 137.908 144.025 137.098 144.025 136.098V51.6279H31.9653V136.098C31.9653 137.108 32.7753 137.908 33.7753 137.908Z" fill="#1F1D20"/>
<path d="M34.1053 136.438H141.875C143.055 136.438 144.015 135.478 144.015 134.298V50.1582H31.9653V134.298C31.9653 135.478 32.9253 136.438 34.1053 136.438Z" fill="#EBEBEB"/>
<path d="M31.9653 59.4681H144.015V49.4281C144.015 48.5181 143.285 47.7881 142.375 47.7881H33.6053C32.6953 47.7881 31.9653 48.5181 31.9653 49.4281V59.4681Z" fill="#092E4C"/>
<path d="M40.5854 56.7083C42.1554 56.7083 43.4354 55.4483 43.4354 53.8583C43.4354 52.2683 42.1353 51.0283 40.5854 51.0283C39.0153 51.0283 37.7354 52.2883 37.7354 53.8783C37.7354 55.4683 38.9854 56.7083 40.5854 56.7083Z" fill="#32B0E7"/>
<path d="M99.575 113.058H92.135C91.835 113.058 91.585 112.808 91.585 112.508V76.1584C91.585 75.8584 91.835 75.6084 92.135 75.6084H99.575V76.7084H92.685V111.958H99.575V113.058V113.058Z" fill="#78787D"/>
<path d="M127.885 94.8684H117.665C117.365 94.8684 117.115 94.6184 117.115 94.3184V76.7084H107.435V75.6084H117.665C117.965 75.6084 118.215 75.8584 118.215 76.1584V93.7684H127.885V94.8684V94.8684Z" fill="#78787D"/>
<path d="M127.505 75.6084H110.895V76.7084H127.505V75.6084Z" fill="#78787D"/>
<path d="M99.5547 93.8682H83.0547V94.9682H99.5547V93.8682Z" fill="#78787D"/>
<path d="M114.025 72.1479H96.5049V82.408C96.5049 82.718 96.7649 82.9679 97.0649 82.9679H113.455C113.765 82.9679 114.015 82.708 114.015 82.408L114.025 72.1479Z" fill="#50E6FF"/>
<path d="M113.435 70.6382H97.1049C96.7749 70.6382 96.5049 70.9082 96.5049 71.2382V72.5182H114.025V71.2382C114.025 70.8982 113.765 70.6382 113.435 70.6382Z" fill="white"/>
<path d="M139.245 72.1479H121.725V82.408C121.725 82.718 121.985 82.9679 122.285 82.9679H138.675C138.985 82.9679 139.235 82.708 139.235 82.408L139.245 72.1479Z" fill="#45CAF2"/>
<path d="M138.655 70.6382H122.325C121.995 70.6382 121.725 70.9082 121.725 71.2382V72.5182H139.245V71.2382C139.245 70.8982 138.985 70.6382 138.655 70.6382Z" fill="white"/>
<path d="M139.645 88.4282H122.125V98.6882C122.125 98.9982 122.385 99.2482 122.685 99.2482H139.075C139.385 99.2482 139.635 98.9882 139.635 98.6882L139.645 88.4282Z" fill="#45CAF2"/>
<path d="M139.055 86.918H122.735C122.405 86.918 122.135 87.188 122.135 87.518V88.798H139.655V87.518C139.645 87.178 139.385 86.918 139.055 86.918Z" fill="white"/>
<path d="M114.025 107.638H96.5049V117.898C96.5049 118.208 96.7649 118.458 97.0649 118.458H113.455C113.765 118.458 114.015 118.198 114.015 117.898L114.025 107.638Z" fill="#50E6FF"/>
<path d="M113.435 106.128H97.1049C96.7749 106.128 96.5049 106.398 96.5049 106.728V108.008H114.025V106.728C114.025 106.388 113.765 106.128 113.435 106.128Z" fill="white"/>
<path d="M114.025 87.918H96.5049V102.448C96.5049 102.958 96.9149 103.368 97.4249 103.368H113.105C113.615 103.368 114.025 102.958 114.025 102.448V87.918Z" fill="#50E6FF"/>
<path d="M113.185 86.4082H97.3449C96.8849 86.4082 96.5049 86.7882 96.5049 87.2482V88.2882H114.025V87.2482C114.025 86.7782 113.645 86.4082 113.185 86.4082Z" fill="white"/>
<path opacity="0.2" d="M87.1652 120.458C87.5652 120.458 87.8852 120.138 87.8852 119.738V70.938H37.1152V119.738C37.1152 120.138 37.4352 120.458 37.8352 120.458H87.1652Z" fill="#1F1D21"/>
<path d="M87.8852 71.488V69.568C87.8852 69.218 87.6052 68.938 87.2552 68.938H37.7452C37.3952 68.938 37.1152 69.218 37.1152 69.568V71.578V72.378V118.718C37.1152 119.068 37.3952 119.348 37.7452 119.348H87.2652C87.6152 119.348 87.8952 119.068 87.8952 118.718V71.578C87.8852 71.548 87.8852 71.518 87.8852 71.488Z" fill="white"/>
<path d="M63.8453 82.8582L60.9453 79.8682C60.5553 79.4582 59.8953 79.4782 59.5153 79.9082L47.2553 93.9082C46.7053 94.5282 46.7053 95.4681 47.2553 96.0881L59.3953 110.048C59.8553 110.568 60.6653 110.568 61.1253 110.048L64.7553 105.868L65.1553 84.3282L63.8453 82.8582Z" fill="url(#paint2_linear)"/>
<path d="M78.1154 93.2879L66.0354 80.0879C65.5154 79.5279 64.6354 79.5179 64.1054 80.0679L58.5254 85.828C57.9154 86.458 57.9154 87.4479 58.5054 88.0879L64.2254 94.228C64.6454 94.678 64.6454 95.378 64.2254 95.828L58.4754 102.038C57.8854 102.678 57.8954 103.658 58.4954 104.288L64.0954 110.088C64.6254 110.638 65.5154 110.628 66.0354 110.068L78.1154 96.758C79.0154 95.778 79.0054 94.2779 78.1154 93.2879Z" fill="url(#paint3_linear)"/>
<path d="M78.6851 96.1283L73.2951 102.108C72.8851 102.558 72.1851 102.578 71.7551 102.138L66.3351 96.5983C65.4551 95.6983 65.4551 94.2683 66.3251 93.3683L71.6451 87.8683C72.0651 87.4283 72.7751 87.4383 73.1851 87.8883L78.6851 93.9483C79.2451 94.5783 79.2451 95.5183 78.6851 96.1283Z" fill="url(#paint4_linear)"/>
<path opacity="0.15" d="M151.225 111.148H116.355V141.258C116.355 141.868 116.865 142.368 117.465 142.368H150.095C150.705 142.368 151.205 141.858 151.205 141.258L151.225 111.148Z" fill="#1F1D20"/>
<path d="M150.036 106.818H117.536C116.876 106.818 116.346 107.348 116.346 108.008V109.838V110.558V139.948C116.346 140.558 116.856 141.058 117.456 141.058H150.086C150.696 141.058 151.196 140.548 151.196 139.948V110.558H151.206V108.018C151.226 107.348 150.706 106.818 150.036 106.818Z" fill="url(#paint5_linear)"/>
<g opacity="0.2">
<path opacity="0.2" d="M144.126 132.618C146.706 132.618 148.786 131.308 148.786 129.688C148.786 128.068 146.696 126.758 144.126 126.758C141.546 126.758 139.466 128.068 139.466 129.688C139.466 131.308 141.546 132.618 144.126 132.618Z" fill="#1F1D21"/>
</g>
<g opacity="0.2">
<path opacity="0.2" d="M134.355 131.988C136.935 131.988 139.015 130.678 139.015 129.058C139.015 127.438 136.925 126.128 134.355 126.128C131.785 126.128 129.695 127.438 129.695 129.058C129.695 130.678 131.785 131.988 134.355 131.988Z" fill="#1F1D21"/>
</g>
<path d="M139.075 128.428C138.815 126.088 136.805 124.248 134.385 124.248C131.975 124.248 129.995 126.048 129.695 128.358C129.655 128.518 129.655 128.698 129.655 128.858C129.715 129.518 130.175 130.158 131.045 130.658C132.885 131.718 135.895 131.718 137.725 130.658C138.595 130.158 139.035 129.518 139.085 128.858C139.115 128.728 139.095 128.568 139.075 128.428Z" fill="url(#paint6_radial)"/>
<path d="M134.385 123.778C135.955 123.778 137.225 122.508 137.225 120.958C137.225 119.408 135.955 118.138 134.385 118.138C132.815 118.138 131.545 119.408 131.545 120.958C131.545 122.508 132.815 123.778 134.385 123.778Z" fill="url(#paint7_radial)"/>
<path d="M148.755 128.918C148.495 126.578 146.485 124.738 144.065 124.738C141.655 124.738 139.675 126.538 139.375 128.848C139.335 129.018 139.335 129.188 139.335 129.348C139.395 130.008 139.855 130.648 140.725 131.148C142.565 132.208 145.575 132.208 147.405 131.148C148.275 130.648 148.715 130.008 148.765 129.348C148.795 129.218 148.775 129.058 148.755 128.918Z" fill="url(#paint8_linear)"/>
<path d="M144.066 124.268C145.636 124.268 146.906 122.998 146.906 121.448C146.906 119.898 145.636 118.628 144.066 118.628C142.496 118.628 141.226 119.898 141.226 121.448C141.226 122.998 142.496 124.268 144.066 124.268Z" fill="url(#paint9_linear)"/>
<g opacity="0.2">
<path opacity="0.2" d="M124.775 132.678C127.355 132.678 129.435 131.368 129.435 129.748C129.435 128.128 127.345 126.818 124.775 126.818C122.195 126.818 120.115 128.128 120.115 129.748C120.115 131.368 122.195 132.678 124.775 132.678Z" fill="#1F1D21"/>
</g>
<path d="M129.405 128.918C129.145 126.578 127.135 124.738 124.715 124.738C122.305 124.738 120.325 126.538 120.025 128.848C119.985 129.008 119.985 129.188 119.985 129.348C120.045 130.008 120.505 130.648 121.375 131.148C123.215 132.208 126.225 132.208 128.055 131.148C128.925 130.648 129.365 130.008 129.415 129.348C129.445 129.218 129.415 129.058 129.405 128.918Z" fill="url(#paint10_linear)"/>
<path d="M124.715 124.268C126.285 124.268 127.555 122.998 127.555 121.448C127.555 119.898 126.285 118.628 124.715 118.628C123.145 118.628 121.875 119.898 121.875 121.448C121.875 122.998 123.145 124.268 124.715 124.268Z" fill="url(#paint11_linear)"/>
<defs>
<linearGradient id="paint0_linear" x1="90.5346" y1="9.77813" x2="90.5346" y2="181.178" gradientUnits="userSpaceOnUse">
<stop stop-color="#00ABDE"/>
<stop offset="1" stop-color="#007ED8"/>
</linearGradient>
<linearGradient id="paint1_linear" x1="36.6545" y1="4.56934" x2="203.331" y2="286.9" gradientUnits="userSpaceOnUse">
<stop stop-color="#007ED8"/>
<stop offset="0.7065" stop-color="#002D4C"/>
</linearGradient>
<linearGradient id="paint2_linear" x1="55.2411" y1="80.7238" x2="57.4891" y2="107.137" gradientUnits="userSpaceOnUse">
<stop stop-color="#A23093"/>
<stop offset="1" stop-color="#692266"/>
</linearGradient>
<linearGradient id="paint3_linear" x1="58.0385" y1="95.0746" x2="78.7855" y2="95.0746" gradientUnits="userSpaceOnUse">
<stop stop-color="#E184C4"/>
<stop offset="1" stop-color="#D76EBC"/>
</linearGradient>
<linearGradient id="paint4_linear" x1="65.6759" y1="95.0091" x2="79.1022" y2="95.0091" gradientUnits="userSpaceOnUse">
<stop stop-color="#E89BCA"/>
<stop offset="1" stop-color="#E591C8"/>
</linearGradient>
<linearGradient id="paint5_linear" x1="134.044" y1="138.336" x2="133.403" y2="101.837" gradientUnits="userSpaceOnUse">
<stop offset="0.3831" stop-color="#D2EBFF"/>
<stop offset="1" stop-color="#F0FFFD"/>
</linearGradient>
<radialGradient id="paint6_radial" cx="0" cy="0" r="1" gradientUnits="userSpaceOnUse" gradientTransform="translate(132.644 121.599) scale(13.4237 13.3754)">
<stop stop-color="#4DC2EB"/>
<stop offset="0.585" stop-color="#0078D4"/>
</radialGradient>
<radialGradient id="paint7_radial" cx="0" cy="0" r="1" gradientUnits="userSpaceOnUse" gradientTransform="translate(132.985 119.515) scale(6.29595 6.26082)">
<stop stop-color="#4DC2EB"/>
<stop offset="0.585" stop-color="#0078D4"/>
</radialGradient>
<linearGradient id="paint8_linear" x1="141.505" y1="125.488" x2="146.429" y2="131.952" gradientUnits="userSpaceOnUse">
<stop stop-color="#15548F"/>
<stop offset="0.4179" stop-color="#243A5E"/>
<stop offset="0.9677" stop-color="#1A2C45"/>
</linearGradient>
<linearGradient id="paint9_linear" x1="142.351" y1="119.19" x2="145.775" y2="123.698" gradientUnits="userSpaceOnUse">
<stop stop-color="#15548F"/>
<stop offset="0.4179" stop-color="#243A5E"/>
<stop offset="0.9677" stop-color="#1A2C45"/>
</linearGradient>
<linearGradient id="paint10_linear" x1="118.933" y1="122.981" x2="148.86" y2="152.795" gradientUnits="userSpaceOnUse">
<stop stop-color="#4DC1EA"/>
<stop offset="0.585" stop-color="#0078D4"/>
</linearGradient>
<linearGradient id="paint11_linear" x1="127.533" y1="131.267" x2="124.495" y2="120.692" gradientUnits="userSpaceOnUse">
<stop offset="0.585" stop-color="#0078D4"/>
<stop offset="1" stop-color="#4DC1EA"/>
</linearGradient>
</defs>
</svg>
