<svg width="103" height="103" viewBox="0 0 103 103" fill="none" xmlns="http://www.w3.org/2000/svg">
<path d="M51.5346 98.3099C25.6846 98.3099 4.72461 77.3599 4.72461 51.4999C4.72461 25.6399 25.6846 4.68994 51.5346 4.68994C77.3846 4.68994 98.3446 25.6499 98.3446 51.4999C98.3446 77.3499 77.3846 98.3099 51.5346 98.3099Z" fill="url(#paint0_linear)"/>
<path fill-rule="evenodd" clip-rule="evenodd" d="M97.4345 51.4999C97.4345 76.8499 76.8845 97.3999 51.5345 97.3999C26.1845 97.3999 5.63453 76.8499 5.63453 51.4999C5.63453 26.1499 26.1845 5.59986 51.5345 5.59986C76.8845 5.59986 97.4345 26.1499 97.4345 51.4999ZM51.5345 1.85986C78.9545 1.85986 101.175 24.0799 101.175 51.4999C101.175 78.9199 78.9445 101.14 51.5345 101.14C24.1145 101.14 1.89453 78.9099 1.89453 51.4999C1.89453 24.0799 24.1145 1.85986 51.5345 1.85986Z" fill="#F2F1F0"/>
<path fill-rule="evenodd" clip-rule="evenodd" d="M94.6246 51.4999C94.6246 75.2999 75.3346 94.5899 51.5346 94.5899C27.7346 94.5899 8.44459 75.2999 8.44459 51.4999C8.44459 27.6999 27.7346 8.40992 51.5346 8.40992C75.3346 8.40992 94.6246 27.6999 94.6246 51.4999ZM51.5346 4.66992C77.3946 4.66992 98.3646 25.6399 98.3646 51.4999C98.3646 77.3599 77.3946 98.3299 51.5346 98.3299C25.6746 98.3299 4.70459 77.3599 4.70459 51.4999C4.70459 25.6399 25.6646 4.66992 51.5346 4.66992Z" fill="url(#paint1_linear)"/>
<path d="M75.2946 58.7101H64.9746C64.7046 58.7101 64.4946 58.5001 64.4946 58.2301V41.5401C64.4946 41.2701 64.7046 41.0601 64.9746 41.0601H76.6946V42.0201H65.4546V57.7501H75.2946V58.7101Z" fill="white"/>
<path d="M64.7147 48.6899H57.3647V49.6499H64.7147V48.6899Z" fill="white"/>
<path d="M86.7847 37.4897H69.0747V47.8497C69.0747 48.1697 69.3347 48.4197 69.6447 48.4197H86.2147C86.5347 48.4197 86.7847 48.1597 86.7847 47.8497V37.4897Z" fill="#45CAF2"/>
<path d="M86.1847 35.96H69.6847C69.3447 35.96 69.0747 36.23 69.0747 36.57V37.87H86.7847V36.57C86.7847 36.23 86.5147 35.96 86.1847 35.96Z" fill="white"/>
<path d="M87.1849 53.9502H69.4849V64.3102C69.4849 64.6302 69.7449 64.8802 70.0549 64.8802H86.6249C86.9449 64.8802 87.1949 64.6202 87.1949 64.3102L87.1849 53.9502Z" fill="#45CAF2"/>
<path d="M86.5849 52.4102H70.0949C69.7549 52.4102 69.4849 52.6802 69.4849 53.0202V54.3202H87.1949V53.0202C87.1849 52.6802 86.9149 52.4102 86.5849 52.4102Z" fill="white"/>
<path opacity="0.15" d="M60.8448 35.9502H18.6548V72.3702C18.6548 73.1102 19.2748 73.7202 20.0048 73.7202H59.4848C60.2248 73.7202 60.8348 73.1002 60.8348 72.3702L60.8448 35.9502Z" fill="#1F1D20"/>
<path d="M59.4048 30.71H20.0948C19.2948 30.71 18.6548 31.35 18.6548 32.15V34.36V35.23V70.78C18.6548 71.52 19.2748 72.13 20.0048 72.13H59.4848C60.2248 72.13 60.8348 71.51 60.8348 70.78V35.23H60.8448V32.15C60.8448 31.35 60.2148 30.71 59.4048 30.71Z" fill="url(#paint2_linear)"/>
<path d="M59.0145 74.9802C62.6845 74.9802 65.6545 72.0102 65.6545 68.3402C65.6545 64.6702 62.6845 61.7002 59.0145 61.7002C55.3445 61.7002 52.3745 64.6702 52.3745 68.3402C52.3945 72.0102 55.3645 74.9802 59.0145 74.9802Z" fill="#002D4C"/>
<path d="M62.6443 64.9702L57.1843 70.4702L55.5443 68.8302L54.4443 69.9302L57.1843 72.6702L63.7443 66.0902L62.6443 64.9702Z" fill="#FAF9F8"/>
<g opacity="0.2">
<path opacity="0.2" d="M51.1244 59.87C54.2444 59.87 56.7644 58.28 56.7644 56.33C56.7644 54.38 54.2444 52.79 51.1244 52.79C48.0044 52.79 45.4844 54.38 45.4844 56.33C45.4744 58.28 48.0044 59.87 51.1244 59.87Z" fill="#1F1D21"/>
</g>
<g opacity="0.2">
<path opacity="0.2" d="M39.3046 59.12C42.4246 59.12 44.9445 57.53 44.9445 55.58C44.9445 53.63 42.4246 52.04 39.3046 52.04C36.1846 52.04 33.6646 53.63 33.6646 55.58C33.6646 57.53 36.1846 59.12 39.3046 59.12Z" fill="#1F1D21"/>
</g>
<path d="M45.0145 54.8C44.6945 51.97 42.2745 49.75 39.3345 49.75C36.4245 49.75 34.0145 51.93 33.6545 54.73C33.6045 54.92 33.6045 55.14 33.6045 55.33C33.6845 56.13 34.2345 56.9 35.2845 57.51C37.5145 58.79 41.1545 58.79 43.3645 57.51C44.4145 56.91 44.9445 56.13 45.0145 55.33C45.0645 55.17 45.0345 54.98 45.0145 54.8Z" fill="url(#paint3_radial)"/>
<path d="M39.3345 49.1798C41.2345 49.1798 42.7745 47.6498 42.7745 45.7598C42.7745 43.8698 41.2345 42.3398 39.3345 42.3398C37.4345 42.3398 35.8945 43.8698 35.8945 45.7598C35.9045 47.6498 37.4445 49.1798 39.3345 49.1798Z" fill="url(#paint4_radial)"/>
<path d="M56.7245 55.3996C56.4045 52.5696 53.9845 50.3496 51.0445 50.3496C48.1345 50.3496 45.7245 52.5296 45.3645 55.3296C45.3145 55.5296 45.3145 55.7496 45.3145 55.9396C45.3945 56.7396 45.9445 57.5096 46.9945 58.1196C49.2245 59.3996 52.8645 59.3996 55.0745 58.1196C56.1245 57.5196 56.6545 56.7396 56.7245 55.9396C56.7645 55.7696 56.7445 55.5696 56.7245 55.3996Z" fill="url(#paint5_linear)"/>
<path d="M51.0445 49.7697C52.9445 49.7697 54.4845 48.2397 54.4845 46.3497C54.4845 44.4597 52.9445 42.9297 51.0445 42.9297C49.1445 42.9297 47.6045 44.4597 47.6045 46.3497C47.6045 48.2397 49.1445 49.7697 51.0445 49.7697Z" fill="url(#paint6_linear)"/>
<g opacity="0.2">
<path opacity="0.2" d="M27.7045 59.9496C30.8245 59.9496 33.3445 58.3596 33.3445 56.4096C33.3445 54.4596 30.8245 52.8696 27.7045 52.8696C24.5845 52.8696 22.0645 54.4596 22.0645 56.4096C22.0645 58.3596 24.5945 59.9496 27.7045 59.9496Z" fill="#1F1D21"/>
</g>
<path d="M33.3045 55.3996C32.9845 52.5696 30.5645 50.3496 27.6245 50.3496C24.7145 50.3496 22.3045 52.5296 21.9445 55.3296C21.8945 55.5196 21.8945 55.7396 21.8945 55.9296C21.9745 56.7296 22.5245 57.4996 23.5745 58.1096C25.8045 59.3896 29.4445 59.3896 31.6545 58.1096C32.7045 57.5096 33.2345 56.7296 33.3045 55.9296C33.3545 55.7696 33.3345 55.5696 33.3045 55.3996Z" fill="url(#paint7_linear)"/>
<path d="M27.6343 49.7697C29.5343 49.7697 31.0743 48.2397 31.0743 46.3497C31.0743 44.4597 29.5343 42.9297 27.6343 42.9297C25.7343 42.9297 24.1943 44.4597 24.1943 46.3497C24.1943 48.2397 25.7343 49.7697 27.6343 49.7697Z" fill="url(#paint8_linear)"/>
<path d="M78.9447 42.25H77.0347V44.16H78.9447V42.25Z" fill="white"/>
<path d="M80.8548 40.3599L80.1848 41.0299L82.3648 43.2099L80.1548 45.4199L80.8248 46.0899L83.7048 43.2099L80.8548 40.3599Z" fill="white"/>
<path d="M75.0546 46.0996L75.7246 45.4296L73.5446 43.2496L75.7546 41.0396L75.0846 40.3696L72.2046 43.2496L75.0546 46.0996Z" fill="white"/>
<path d="M78.6504 56.4103L77.9052 55.6418C77.8041 55.5368 77.6346 55.5415 77.5389 55.6512L74.3904 59.2469C74.2496 59.4072 74.2496 59.6467 74.3896 59.8077L77.5093 63.3942C77.6268 63.5287 77.836 63.5287 77.9535 63.3942L78.8853 62.3193L78.9879 56.7852L78.6504 56.4103Z" fill="url(#paint9_linear)"/>
<path d="M82.3153 59.0898L79.2119 55.697C79.0781 55.5531 78.851 55.5515 78.7149 55.6923L77.2822 57.1733C77.1266 57.3343 77.1243 57.5886 77.2767 57.7527L78.746 59.3293C78.8541 59.4452 78.8541 59.6241 78.7468 59.74L77.2705 61.3345C77.1189 61.4978 77.122 61.7514 77.2767 61.9116L78.7141 63.4027C78.851 63.5442 79.0789 63.5419 79.2127 63.3972L82.3169 59.9788C82.5464 59.7276 82.5456 59.3418 82.3153 59.0898Z" fill="url(#paint10_linear)"/>
<path d="M82.463 59.8192L81.0777 61.3553C80.9727 61.4712 80.7915 61.4751 80.6826 61.3631L79.2904 59.9405C79.0648 59.7103 79.064 59.3424 79.288 59.1106L80.6538 57.6989C80.7627 57.5861 80.9447 57.5892 81.0497 57.7051L82.463 59.263C82.6054 59.4209 82.6054 59.6613 82.463 59.8192Z" fill="url(#paint11_linear)"/>
<defs>
<linearGradient id="paint0_linear" x1="49.7651" y1="-13.2902" x2="53.7471" y2="132.48" gradientUnits="userSpaceOnUse">
<stop stop-color="#00ABDE"/>
<stop offset="1" stop-color="#007ED8"/>
</linearGradient>
<linearGradient id="paint1_linear" x1="2.96779" y1="-20.1251" x2="98.4954" y2="120.756" gradientUnits="userSpaceOnUse">
<stop stop-color="#007ED8"/>
<stop offset="0.7065" stop-color="#002D4C"/>
</linearGradient>
<linearGradient id="paint2_linear" x1="40.0567" y1="68.8408" x2="39.282" y2="24.6845" gradientUnits="userSpaceOnUse">
<stop offset="0.3831" stop-color="#D2EBFF"/>
<stop offset="1" stop-color="#F0FFFD"/>
</linearGradient>
<radialGradient id="paint3_radial" cx="0" cy="0" r="1" gradientUnits="userSpaceOnUse" gradientTransform="translate(37.2301 46.5482) scale(16.2401 16.1817)">
<stop stop-color="#4DC2EB"/>
<stop offset="0.585" stop-color="#0078D4"/>
</radialGradient>
<radialGradient id="paint4_radial" cx="0" cy="0" r="1" gradientUnits="userSpaceOnUse" gradientTransform="translate(37.6423 44.0245) scale(7.61689 7.57441)">
<stop stop-color="#4DC2EB"/>
<stop offset="0.585" stop-color="#0078D4"/>
</radialGradient>
<linearGradient id="paint5_linear" x1="47.9503" y1="51.2481" x2="53.9078" y2="59.0684" gradientUnits="userSpaceOnUse">
<stop stop-color="#15548F"/>
<stop offset="0.4179" stop-color="#243A5E"/>
<stop offset="0.9677" stop-color="#1A2C45"/>
</linearGradient>
<linearGradient id="paint6_linear" x1="48.9736" y1="43.6286" x2="53.1155" y2="49.0827" gradientUnits="userSpaceOnUse">
<stop stop-color="#15548F"/>
<stop offset="0.4179" stop-color="#243A5E"/>
<stop offset="0.9677" stop-color="#1A2C45"/>
</linearGradient>
<linearGradient id="paint7_linear" x1="20.6426" y1="48.2159" x2="56.8479" y2="84.2851" gradientUnits="userSpaceOnUse">
<stop stop-color="#4DC1EA"/>
<stop offset="0.585" stop-color="#0078D4"/>
</linearGradient>
<linearGradient id="paint8_linear" x1="31.046" y1="58.2404" x2="27.371" y2="45.4461" gradientUnits="userSpaceOnUse">
<stop offset="0.585" stop-color="#0078D4"/>
<stop offset="1" stop-color="#4DC1EA"/>
</linearGradient>
<linearGradient id="paint9_linear" x1="76.4402" y1="55.8608" x2="77.0177" y2="62.6464" gradientUnits="userSpaceOnUse">
<stop stop-color="#A23093"/>
<stop offset="1" stop-color="#692266"/>
</linearGradient>
<linearGradient id="paint10_linear" x1="77.1587" y1="59.548" x2="82.4884" y2="59.548" gradientUnits="userSpaceOnUse">
<stop stop-color="#E184C4"/>
<stop offset="1" stop-color="#D76EBC"/>
</linearGradient>
<linearGradient id="paint11_linear" x1="79.1205" y1="59.5306" x2="82.5698" y2="59.5306" gradientUnits="userSpaceOnUse">
<stop stop-color="#E89BCA"/>
<stop offset="1" stop-color="#E591C8"/>
</linearGradient>
</defs>
</svg>
