<svg width="100" height="100" viewBox="0 0 100 100" fill="none" xmlns="http://www.w3.org/2000/svg">
<g clip-path="url(#clip0)">
<path d="M49.6401 96.4501C40.382 96.4501 31.3317 93.7047 23.6339 88.5612C15.936 83.4176 9.93624 76.1069 6.3933 67.5535C2.85036 59.0001 1.92337 49.5882 3.72954 40.5079C5.53571 31.4277 9.99394 23.0869 16.5404 16.5404C23.0869 9.99393 31.4277 5.53571 40.5079 3.72954C49.5882 1.92337 59.0001 2.85036 67.5535 6.3933C76.1069 9.93624 83.4176 15.936 88.5612 23.6339C93.7047 31.3317 96.4501 40.382 96.4501 49.6401C96.4505 55.7874 95.24 61.8746 92.8878 67.554C90.5355 73.2335 87.0875 78.3939 82.7407 82.7407C78.3939 87.0875 73.2335 90.5355 67.554 92.8878C61.8746 95.24 55.7874 96.4505 49.6401 96.4501V96.4501Z" fill="url(#paint0_linear)"/>
<path fill-rule="evenodd" clip-rule="evenodd" d="M95.54 49.64C95.54 58.7182 92.848 67.5925 87.8045 75.1407C82.7609 82.6889 75.5923 88.572 67.2052 92.0461C58.818 95.5201 49.5891 96.4291 40.6854 94.658C31.7816 92.887 23.603 88.5154 17.1838 82.0962C10.7646 75.677 6.39302 67.4984 4.62196 58.5946C2.85089 49.6909 3.75987 40.462 7.23393 32.0748C10.708 23.6877 16.5911 16.5191 24.1393 11.4755C31.6875 6.43199 40.5618 3.74 49.64 3.74C55.6677 3.73998 61.6363 4.9272 67.2052 7.23388C72.774 9.54057 77.834 12.9215 82.0963 17.1837C86.3585 21.446 89.7394 26.5059 92.0461 32.0748C94.3528 37.6437 95.54 43.6123 95.54 49.64V49.64ZM49.64 3.62732e-07C59.4579 3.62732e-07 69.0553 2.91134 77.2185 8.36585C85.3818 13.8204 91.7442 21.5731 95.5014 30.6436C99.2585 39.7141 100.242 49.6951 98.3262 59.3243C96.4108 68.9535 91.6831 77.7985 84.7408 84.7408C77.7985 91.6831 68.9535 96.4108 59.3243 98.3262C49.6951 100.242 39.7141 99.2585 30.6436 95.5014C21.5731 91.7442 13.8204 85.3818 8.36585 77.2185C2.91134 69.0553 3.62732e-07 59.4579 3.62732e-07 49.64C-0.000787738 43.121 1.28265 36.6656 3.77702 30.6427C6.27138 24.6197 9.9278 19.1471 14.5375 14.5375C19.1471 9.9278 24.6197 6.27138 30.6427 3.77702C36.6656 1.28265 43.121 -0.000787738 49.64 3.62732e-07V3.62732e-07Z" fill="#F2F1F0"/>
<path fill-rule="evenodd" clip-rule="evenodd" d="M92.7296 49.6406C92.7296 58.163 90.2024 66.494 85.4676 73.5801C80.7328 80.6662 74.0031 86.1892 66.1294 89.4505C58.2557 92.7119 49.5918 93.5653 41.2331 91.9026C32.8745 90.24 25.1966 86.1361 19.1703 80.1098C13.1441 74.0836 9.04017 66.4057 7.37753 58.047C5.7149 49.6884 6.56822 41.0244 9.8296 33.1507C13.091 25.2771 18.6139 18.5473 25.7 13.8126C32.7862 9.07776 41.1172 6.55058 49.6396 6.55058C55.2983 6.55023 60.9017 7.66455 66.1298 9.82991C71.3579 11.9953 76.1082 15.1692 80.1096 19.1706C84.1109 23.1719 87.2849 27.9223 89.4502 33.1503C91.6156 38.3784 92.7299 43.9818 92.7296 49.6406V49.6406ZM49.6396 2.81058C58.9017 2.81058 67.9558 5.55711 75.6569 10.7029C83.3581 15.8486 89.3604 23.1624 92.9049 31.7195C96.4493 40.2766 97.3767 49.6925 95.5697 58.7767C93.7628 67.8608 89.3027 76.2051 82.7534 82.7544C76.2041 89.3037 67.8598 93.7638 58.7757 95.5708C49.6915 97.3777 40.2756 96.4503 31.7185 92.9059C23.1614 89.3614 15.8476 83.3591 10.7018 75.6579C5.5561 67.9568 2.80957 58.9027 2.80957 49.6406C2.81076 37.2209 7.745 25.3101 16.5271 16.5281C25.3091 7.74599 37.2198 2.81174 49.6396 2.81055V2.81058Z" fill="#0078D4"/>
<path fill-rule="evenodd" clip-rule="evenodd" d="M92.7296 49.6405C92.7296 58.1629 90.2024 66.494 85.4676 73.5801C80.7328 80.6662 74.0031 86.1891 66.1294 89.4505C58.2557 92.7119 49.5918 93.5652 41.2331 91.9026C32.8745 90.24 25.1966 86.136 19.1703 80.1098C13.1441 74.0835 9.04017 66.4056 7.37753 58.047C5.7149 49.6883 6.56822 41.0244 9.8296 33.1507C13.091 25.277 18.6139 18.5473 25.7001 13.8125C32.7862 9.07773 41.1172 6.55055 49.6396 6.55055C55.2983 6.5502 60.9017 7.66452 66.1298 9.82988C71.3579 11.9952 76.1082 15.1692 80.1096 19.1705C84.1109 23.1719 87.2849 27.9222 89.4502 33.1503C91.6156 38.3784 92.7299 43.9818 92.7296 49.6405V49.6405ZM49.6396 2.81055C58.9017 2.81055 67.9558 5.55708 75.6569 10.7028C83.3581 15.8486 89.3604 23.1624 92.9048 31.7195C96.4493 40.2765 97.3767 49.6925 95.5697 58.7766C93.7628 67.8608 89.3027 76.2051 82.7534 82.7544C76.2041 89.3036 67.8598 93.7638 58.7757 95.5707C49.6915 97.3777 40.2756 96.4503 31.7185 92.9058C23.1614 89.3614 15.8476 83.3591 10.7018 75.6579C5.5561 67.9568 2.80957 58.9026 2.80957 49.6405C2.81076 37.2208 7.74501 25.3101 16.5271 16.5281C25.3091 7.74599 37.2198 2.81174 49.6396 2.81055V2.81055Z" fill="#0078D4"/>
<path fill-rule="evenodd" clip-rule="evenodd" d="M49.6643 27.4492C45.2753 27.4492 40.9849 28.7507 37.3355 31.1891C33.6862 33.6275 30.8419 37.0933 29.1624 41.1482C27.4828 45.2031 27.0433 49.665 27.8996 53.9696C28.7558 58.2743 30.8693 62.2284 33.9728 65.3318C37.0763 68.4353 41.0303 70.5488 45.335 71.4051C49.6397 72.2613 54.1016 71.8219 58.1564 70.1423C62.2113 68.4627 65.6771 65.6184 68.1155 61.9691C70.5539 58.3198 71.8554 54.0293 71.8554 49.6403C71.8489 43.7569 69.5089 38.1162 65.3486 33.956C61.1884 29.7957 55.5477 27.4557 49.6643 27.4492Z" fill="white"/>
<path fill-rule="evenodd" clip-rule="evenodd" d="M71.7136 47.103C71.0663 41.4738 68.2903 36.3054 63.9548 32.6572C59.6192 29.009 54.0524 27.1573 48.3954 27.4817C42.7384 27.8061 37.4198 30.2821 33.5297 34.402C29.6396 38.5219 27.4727 43.9737 27.4731 49.64C27.4731 49.9054 27.4842 50.1685 27.493 50.4325C27.6879 45.1527 29.7575 40.1149 33.3305 36.2228C36.9035 32.3307 41.7463 29.8388 46.9903 29.194C47.3252 29.1534 47.6649 29.1843 47.987 29.2847C48.3091 29.385 48.6062 29.5524 48.8589 29.776C49.1116 29.9995 49.314 30.274 49.4528 30.5815C49.5916 30.889 49.6637 31.2224 49.6643 31.5597V53.5908C48.686 53.5894 47.743 53.2252 47.0179 52.5685C46.2927 51.9119 45.837 51.0096 45.7388 50.0363C45.7148 50.2149 45.7031 50.395 45.7039 50.5752C45.7351 51.3986 46.0227 52.1917 46.5263 52.8439C47.03 53.496 47.7247 53.9746 48.5135 54.2129C48.8432 54.3084 49.1333 54.5078 49.3407 54.7814C49.548 55.055 49.6615 55.3882 49.6643 55.7315V71.8311C52.7916 71.8276 55.883 71.1639 58.7362 69.8833C61.5893 68.6028 64.14 66.7343 66.2213 64.4001C68.3027 62.0659 69.8677 59.3186 70.8142 56.3379C71.7606 53.3572 72.0671 50.2103 71.7136 47.103V47.103Z" fill="#F2F2F2"/>
<path fill-rule="evenodd" clip-rule="evenodd" d="M49.6641 75.0025C54.2347 75.0072 58.7206 73.7687 62.6412 71.4194L57.6038 62.894C57.3379 62.497 56.9835 62.1671 56.5684 61.9303C56.1534 61.6934 55.689 61.5562 55.2119 61.5293H43.3238C42.8499 61.5556 42.3894 61.6958 41.9813 61.9381C41.5731 62.1804 41.2295 62.5176 40.9795 62.921L36.4287 71.2649C40.4089 73.7133 44.9912 75.0073 49.6641 75.0025Z" fill="#1F56A3"/>
<path fill-rule="evenodd" clip-rule="evenodd" d="M68.685 49.6407C68.6876 52.1385 68.196 54.6121 67.2384 56.919C66.2808 59.2259 64.8762 61.3205 63.1055 63.0822L58.0649 58.0416C59.1703 56.9396 60.0473 55.6303 60.6457 54.1887C61.2441 52.7471 61.5521 51.2016 61.5521 49.6407C61.5521 48.0798 61.2441 46.5343 60.6457 45.0927C60.0473 43.6511 59.1703 42.3418 58.0649 41.2398L63.1055 36.1992C64.8762 37.9609 66.2808 40.0555 67.2384 42.3624C68.196 44.6693 68.6876 47.1429 68.685 49.6407V49.6407Z" fill="#7CB65A"/>
<path fill-rule="evenodd" clip-rule="evenodd" d="M63.1056 36.1986L58.0651 41.2392C56.963 40.1338 55.6537 39.2568 54.2121 38.6584C52.7705 38.06 51.225 37.752 49.6641 37.752C48.1033 37.752 46.5578 38.06 45.1162 38.6584C43.6746 39.2568 42.3652 40.1338 41.2632 41.2392L36.2227 36.1986C37.9859 34.4301 40.0809 33.0268 42.3874 32.0694C44.694 31.112 47.1668 30.6191 49.6642 30.6191C52.1615 30.6191 54.6344 31.112 56.9409 32.0694C59.2475 33.0268 61.3424 34.4301 63.1057 36.1986H63.1056Z" fill="#F7CB64"/>
<path fill-rule="evenodd" clip-rule="evenodd" d="M37.7762 49.6407C37.7746 51.2018 38.082 52.7478 38.6804 54.1896C39.2789 55.6314 40.1568 56.9406 41.2634 58.0417L36.2228 63.0822C34.4543 61.319 33.051 59.224 32.0936 56.9175C31.1362 54.6109 30.6433 52.1381 30.6433 49.6407C30.6433 47.1433 31.1362 44.6705 32.0936 42.364C33.051 40.0574 34.4543 37.9625 36.2228 36.1992L41.2634 41.2398C40.1568 42.3409 39.2789 43.65 38.6804 45.0918C38.0819 46.5337 37.7746 48.0796 37.7762 49.6407V49.6407Z" fill="#DF5142"/>
<path fill-rule="evenodd" clip-rule="evenodd" d="M55.212 61.5293H49.6643V75.0025C54.2349 75.0072 58.7207 73.7687 62.6413 71.4194L57.6039 62.894C57.338 62.497 56.9836 62.1671 56.5685 61.9303C56.1535 61.6934 55.6891 61.5562 55.212 61.5293V61.5293Z" fill="#003067"/>
<path fill-rule="evenodd" clip-rule="evenodd" d="M49.6643 71.8317C45.2753 71.8317 40.9849 70.5302 37.3356 68.0918C33.6863 65.6534 30.842 62.1876 29.1624 58.1327C27.4828 54.0778 27.0433 49.616 27.8996 45.3113C28.7558 41.0066 30.8693 37.0526 33.9728 33.9491C37.0763 30.8456 41.0304 28.7321 45.335 27.8759C49.6397 27.0196 54.1016 27.4591 58.1565 29.1387C62.2114 30.8182 65.6771 33.6625 68.1155 37.3119C70.5539 40.9612 71.8554 45.2516 71.8554 49.6406C71.849 55.524 69.5089 61.1647 65.3487 65.3249C61.1884 69.4852 55.5478 71.8252 49.6643 71.8317ZM49.6643 24.2793C44.6483 24.2793 39.745 25.7667 35.5743 28.5534C31.4037 31.3402 28.153 35.3011 26.2335 39.9352C24.314 44.5694 23.8117 49.6687 24.7903 54.5883C25.7689 59.5079 28.1843 64.0269 31.7311 67.5737C35.278 71.1206 39.7969 73.536 44.7165 74.5146C49.6362 75.4931 54.7355 74.9909 59.3696 73.0714C64.0038 71.1518 67.9647 67.9012 70.7514 63.7306C73.5382 59.5599 75.0256 54.6566 75.0256 49.6406C75.018 42.9167 72.3436 36.4703 67.5891 31.7158C62.8345 26.9613 56.3882 24.2869 49.6643 24.2793V24.2793Z" fill="#003067"/>
<path fill-rule="evenodd" clip-rule="evenodd" d="M46.967 46.7494C46.4466 47.2369 46.0679 47.8563 45.8711 48.5417C45.6743 49.2272 45.6669 49.9531 45.8495 50.6424C41.8805 48.3631 35.6051 44.6524 35.8476 44.1032C36.1052 43.5238 43.5868 45.2365 47.6914 46.224C47.4307 46.371 47.1876 46.5473 46.967 46.7494V46.7494Z" fill="#182A37"/>
<path fill-rule="evenodd" clip-rule="evenodd" d="M46.9217 46.7386C47.4957 46.2048 48.2151 45.8533 48.9888 45.7284C49.7626 45.6035 50.556 45.7108 51.2688 46.0369C51.9815 46.3629 52.5816 46.893 52.993 47.5601C53.4045 48.2271 53.6089 49.0013 53.5805 49.7845C53.552 50.5678 53.2918 51.325 52.833 51.9604C52.3741 52.5959 51.7372 53.0809 51.0026 53.3543C50.268 53.6277 49.4689 53.6772 48.7063 53.4964C47.9436 53.3156 47.2517 52.9127 46.7181 52.3387C46.0038 51.5684 45.6241 50.5463 45.6623 49.4965C45.7005 48.4467 46.1534 47.4549 46.9217 46.7386V46.7386Z" fill="#546670"/>
<path fill-rule="evenodd" clip-rule="evenodd" d="M46.8266 46.8457L52.414 52.4339C52.3799 52.468 52.3554 52.5084 52.3189 52.5417C51.5598 53.2498 50.5529 53.6312 49.5151 53.6037C48.4774 53.5762 47.4921 53.142 46.7716 52.3947C46.051 51.6475 45.653 50.647 45.6633 49.6089C45.6736 48.5709 46.0914 47.5785 46.8266 46.8457V46.8457Z" fill="#30404D"/>
<path fill-rule="evenodd" clip-rule="evenodd" d="M49.6778 48.0557C49.9912 48.067 50.2943 48.171 50.5486 48.3545C50.8029 48.5381 50.997 48.7929 51.1064 49.0868C51.2158 49.3807 51.2356 49.7005 51.1633 50.0056C51.091 50.3108 50.9298 50.5876 50.7 50.8012C50.4703 51.0147 50.1825 51.1553 49.8728 51.2051C49.5632 51.255 49.2458 51.2119 48.9606 51.0813C48.6755 50.9508 48.4355 50.7385 48.271 50.4715C48.1065 50.2045 48.0249 49.8947 48.0365 49.5813C48.0523 49.1615 48.234 48.7652 48.5417 48.4792C48.8494 48.1931 49.258 48.0409 49.6778 48.0557V48.0557Z" fill="#182A37"/>
<path fill-rule="evenodd" clip-rule="evenodd" d="M58.0652 41.2392L63.1058 36.1986C61.3441 34.4279 59.2495 33.0233 56.9426 32.0657C54.6357 31.1081 52.1621 30.6165 49.6643 30.6192V37.752C51.2254 37.7505 52.7713 38.0578 54.2131 38.6563C55.6549 39.2548 56.9641 40.1326 58.0652 41.2392Z" fill="#EFB252"/>
<path fill-rule="evenodd" clip-rule="evenodd" d="M55.2121 67.8689C55.2108 68.2889 55.0434 68.6914 54.7465 68.9884C54.4495 69.2854 54.047 69.4528 53.6271 69.454H44.9091C44.489 69.4528 44.0866 69.2854 43.7896 68.9884C43.4926 68.6914 43.3252 68.289 43.324 67.8689V65.4913C43.3252 65.0713 43.4926 64.6689 43.7896 64.3719C44.0866 64.0749 44.489 63.9075 44.9091 63.9062H53.6271C54.047 63.9075 54.4495 64.0749 54.7465 64.3719C55.0434 64.6689 55.2108 65.0713 55.2121 65.4913V67.8689Z" fill="#1F56A3"/>
<path fill-rule="evenodd" clip-rule="evenodd" d="M53.6271 63.9062H44.9091C44.489 63.9075 44.0866 64.0749 43.7896 64.3719C43.4926 64.6689 43.3252 65.0713 43.324 65.4913V66.2839C43.3252 65.8639 43.4926 65.4614 43.7896 65.1644C44.0866 64.8674 44.489 64.7 44.9091 64.6988H53.6271C54.047 64.7 54.4495 64.8674 54.7465 65.1644C55.0434 65.4614 55.2108 65.8639 55.2121 66.2839V65.4913C55.2108 65.0713 55.0434 64.6689 54.7465 64.3719C54.4495 64.0749 54.047 63.9075 53.6271 63.9062V63.9062Z" fill="#003067"/>
<path opacity="0.2" d="M74.4497 55.0159C74.396 55.0143 74.3436 55.0078 74.2895 55.0078H53.1684C51.7092 55.0094 50.3102 55.5898 49.2784 56.6217C48.2466 57.6535 47.6662 59.0525 47.6646 60.5117V74.9417C48.317 74.9919 48.9741 75.0255 49.6394 75.0255C55.4381 75.0245 61.0617 73.0389 65.5753 69.3986C70.089 65.7583 73.2206 60.6828 74.4497 55.0159Z" fill="#003067"/>
<path d="M74.2895 57.0078H53.1682C51.2329 57.0078 49.6641 58.5767 49.6641 60.5119V76.0182C49.6641 77.9535 51.2329 79.5223 53.1682 79.5223H74.2895C76.2247 79.5223 77.7936 77.9535 77.7936 76.0182V60.5119C77.7936 58.5767 76.2247 57.0078 74.2895 57.0078Z" fill="white"/>
<path d="M69.0823 61.8418C68.3223 61.8419 67.587 62.1113 67.0069 62.6023C66.4268 63.0933 66.0395 63.774 65.9139 64.5235C65.3096 64.5607 64.7358 64.8016 64.2862 65.2069C63.8365 65.6122 63.5375 66.158 63.438 66.7552L62.9638 69.6006C62.9058 69.9481 62.7352 70.2669 62.4783 70.508C62.2213 70.749 61.8923 70.8988 61.5418 70.9345C61.4055 70.1408 60.9762 69.4272 60.3387 68.9352C59.7013 68.4431 58.9022 68.2084 58.1 68.2776C57.2977 68.3468 56.5506 68.7148 56.0068 69.3088C55.463 69.9027 55.1622 70.6792 55.1638 71.4845C55.1655 72.2897 55.4695 73.065 56.0158 73.6567C56.562 74.2484 57.3106 74.6133 58.1131 74.6792C58.9157 74.7451 59.7137 74.5071 60.3492 74.0125C60.9846 73.5178 61.411 72.8025 61.544 72.0083C62.1482 71.971 62.722 71.7301 63.1716 71.3248C63.6213 70.9195 63.9203 70.3738 64.0198 69.7766L64.4941 66.9312C64.552 66.5837 64.7226 66.2648 64.9796 66.0238C65.2365 65.7828 65.5656 65.6329 65.9161 65.5973C66.0196 66.2006 66.2934 66.7617 66.7051 67.2147C67.1168 67.6676 67.6493 67.9935 68.24 68.154C68.8307 68.3144 69.4549 68.3028 70.0392 68.1204C70.6235 67.9381 71.1435 67.5926 71.538 67.1246C71.9326 66.6566 72.1852 66.0857 72.2662 65.479C72.3471 64.8723 72.2531 64.2551 71.9951 63.7C71.737 63.1449 71.3258 62.6752 70.8098 62.346C70.2938 62.0168 69.6944 61.8418 69.0823 61.8418H69.0823Z" fill="#0078D4"/>
</g>
<defs>
<linearGradient id="paint0_linear" x1="47.8698" y1="-15.153" x2="51.8525" y2="130.615" gradientUnits="userSpaceOnUse">
<stop stop-color="#00ABDE"/>
<stop offset="1" stop-color="#007ED8"/>
</linearGradient>
<clipPath id="clip0">
<rect width="99.2799" height="99.28" fill="white"/>
</clipPath>
</defs>
</svg>
