<?xml version="1.0" encoding="UTF-8"?>
<svg width="100px" height="118px" viewBox="0 0 100 118" version="1.1" xmlns="http://www.w3.org/2000/svg" xmlns:xlink="http://www.w3.org/1999/xlink">
    <!-- Generator: Sketch 53.2 (72643) - https://sketchapp.com -->
    <title>Understand advanced topics in PowerApps/understand-advanced-topics-in-powerapps</title>
    <desc>Created with Sketch.</desc>
    <defs>
        <path d="M42.7425,1.49663266 C44.3745,0.498877554 46.1865,0 48,0 C49.8135,0 51.627,0.498877554 53.256,1.49663266 L90.591,24.3316189 C93.933,26.3773408 96,30.2031485 96,34.3529027 L96,79.6470973 C96,83.7952317 93.933,87.6242789 90.591,89.6683811 L53.256,112.504987 C51.627,113.501122 49.8135,114 48,114 C46.1865,114 44.3745,113.501122 42.7425,112.504987 L5.409,89.6683811 C2.0655,87.6242789 0,83.7952317 0,79.6470973 L0,34.3529027 C0,30.2031485 2.0655,26.3773408 5.409,24.3316189 L42.7425,1.49663266 Z" id="path-1"></path>
        <filter x="-5.8%" y="-6.5%" width="111.6%" height="112.9%" filterUnits="objectBoundingBox" id="filter-3">
            <feOffset dx="0" dy="2" in="SourceAlpha" result="shadowOffsetOuter1"></feOffset>
            <feColorMatrix values="0 0 0 0 0   0 0 0 0 0   0 0 0 0 0  0 0 0 0.1 0" type="matrix" in="shadowOffsetOuter1" result="shadowMatrixOuter1"></feColorMatrix>
            <feMerge>
                <feMergeNode in="shadowMatrixOuter1"></feMergeNode>
                <feMergeNode in="SourceGraphic"></feMergeNode>
            </feMerge>
        </filter>
        <polygon id="path-4" points="0 0.984216975 27.682 0.984216975 27.682 32.6704 0 32.6704"></polygon>
        <polygon id="path-6" points="0 0 14 0 14 31 0 31"></polygon>
    </defs>
    <g id="Badges" stroke="none" stroke-width="1" fill="none" fill-rule="evenodd">
        <g id="Understand-advanced-topics-in-PowerApps" transform="translate(-50.000000, -50.000000)">
            <g id="Understand-advanced-topics-in-PowerApps/understand-advanced-topics-in-powerapps" transform="translate(50.000000, 50.000000)">
                <g id="Mask" transform="translate(2.000000, 2.000000)">
                    <mask id="mask-2" fill="white">
                        <use xlink:href="#path-1"></use>
                    </mask>
                    <use id="Trophy-1" fill="#965596" xlink:href="#path-1"></use>
                    <g id="Group-2" mask="url(#mask-2)">
                        <g transform="translate(14.000000, 24.000000)">
                            <g id="gear" filter="url(#filter-3)">
                                <g id="Group-5">
                                    <path d="M34.3196,53.2299 C23.2736,53.2299 14.3196,44.2759 14.3196,33.2299 C14.3196,22.1839 23.2736,13.2299 34.3196,13.2299 C45.3656,13.2299 54.3196,22.1839 54.3196,33.2299 C54.3196,44.2759 45.3656,53.2299 34.3196,53.2299 M59.9896,28.0439 L56.9376,20.5259 L59.9436,16.8209 C61.2536,15.2069 61.1076,12.8579 59.6096,11.4169 L57.0316,8.9389 C55.5796,7.5419 53.3156,7.4439 51.7486,8.7089 L48.0396,11.6999 L40.5256,8.4039 L40.1156,3.6559 C39.9356,1.5869 38.2056,0.0009 36.1306,0.0009 L32.5786,0.0009 C30.5306,0.0009 28.8126,1.5469 28.5996,3.5839 L28.0966,8.4039 L20.3976,11.6999 L16.6326,8.6949 C15.0556,7.4379 12.7926,7.5489 11.3476,8.9549 L8.8406,11.3949 C7.3466,12.8469 7.2186,15.2029 8.5446,16.8079 L11.6126,20.5259 L8.3676,28.0439 L3.5506,28.5889 C1.5286,28.8179 0.0006,30.5289 0.0006,32.5639 L0.0006,36.5589 C0.0006,38.6159 1.5586,40.3359 3.6046,40.5399 L8.3676,41.0119 L11.6126,48.4879 L8.5296,52.1309 C7.2056,53.6969 7.2796,56.0099 8.7016,57.4889 L11.2716,60.1609 C12.7356,61.6809 15.1296,61.8029 16.7396,60.4389 L21.1716,56.6859 L47.2026,56.6859 L52.0856,60.3069 C53.6856,61.4949 55.9176,61.3229 57.3166,59.9029 L59.7706,57.4119 C61.1916,55.9709 61.3116,53.6969 60.0516,52.1129 L56.9376,48.1999 L59.9896,40.5899 L64.9886,40.1519 C67.0546,39.9699 68.6386,38.2409 68.6386,36.1669 L68.6386,32.5769 C68.6386,30.5359 67.1026,28.8219 65.0736,28.5999 L59.9896,28.0439 Z" id="Fill-1" fill="#F0F2F2"></path>
                                    <path d="M59.9895,28.044 L56.9375,20.526 L59.9435,16.821 C61.2535,15.206 61.1075,12.858 59.6095,11.417 L57.0315,8.939 C55.5795,7.542 53.3155,7.444 51.7485,8.708 L48.0395,11.7 L40.5255,8.404 L40.1155,3.656 C39.9355,1.587 38.2055,-4.12114787e-13 36.1305,-4.12114787e-13 L33.9916992,-4.12114787e-13 L33.9916992,13.23 C45.0376992,13.23 54.3195,22.184 54.3195,33.23 C54.3195,44.276 45.0376992,53.23 33.9916992,53.23 L33.9916992,56.686 L47.2025,56.686 L52.0855,60.307 C53.6855,61.495 55.9175,61.323 57.3165,59.903 L59.7705,57.412 C61.1915,55.971 61.3115,53.697 60.0525,52.113 L56.9375,48.2 L59.9895,40.59 L64.9885,40.152 C67.0545,39.97 68.6385,38.241 68.6385,36.166 L68.6385,32.577 C68.6385,30.536 67.1025,28.822 65.0735,28.6 L59.9895,28.044 Z" id="Fill-3" fill="#DCDEDE"></path>
                                </g>
                                <g id="Group-67" transform="translate(14.000000, 14.000000)" stroke-width="2">
                                    <ellipse id="Oval" stroke="#DCDEDE" fill-rule="nonzero" cx="20.5" cy="19.5" rx="20" ry="19.5"></ellipse>
                                    <path d="M19.9916992,39 C31.0376992,39 40.5,30.26985 40.5,19.5 C40.5,9.80033137 32.8247729,1.75513992 23.2299221,0.252041443 C22.1713055,0.0862019651 21.0893211,0 19.9916992,0" id="Stroke-1" stroke="#F0F2F2"></path>
                                </g>
                            </g>
                            <g id="lightbulb" transform="translate(20.500000, 18.000000)">
                                <g id="Group-3" transform="translate(0.000000, 0.015700)">
                                    <mask id="mask-5" fill="white">
                                        <use xlink:href="#path-4"></use>
                                    </mask>
                                    <g id="Clip-2"></g>
                                    <path d="M20.1748,32.6704 C20.1748,28.1734 22.0768,25.9994 22.8658,25.2914 C23.3918,24.8184 23.9118,24.3464 24.3708,23.8094 C26.7448,21.0294 28.0368,17.2994 27.5978,13.2684 C26.9038,6.9204 21.7638,1.7724 15.4168,1.0714 C7.0678,0.1494 -0.0002,6.6624 -0.0002,14.8254 C-0.0002,18.6574 1.5578,22.1254 4.0728,24.6324 C4.0728,24.6324 7.0778,27.4154 7.0778,32.6704" id="Fill-1" fill="#FCD116" mask="url(#mask-5)"></path>
                                </g>
                                <polygon id="Fill-4" fill="#E1E4E1" points="4 39 23 39 23 32 4 32"></polygon>
                                <g id="Group-6" transform="translate(4.000000, 1.000000)">
                                    <path d="M0,37.0541992 L9.05230814,37.0541992 C9.60459289,37.0541992 10.0523081,36.606484 10.0523081,36.0541992 C10.0523081,36.050746 10.0522902,36.0472928 10.0522545,36.0438397 L10,31 L19.1333008,31 L19.1333008,38.0517578 L0,38.0517578 L0,37.0541992 Z" id="Path-35" fill="#C5CCCD" fill-rule="nonzero"></path>
                                    <g id="Group-65" transform="translate(10.000000, 0.000000)">
                                        <g id="Group-3">
                                            <mask id="mask-7" fill="white">
                                                <use xlink:href="#path-6"></use>
                                            </mask>
                                            <g id="Clip-2"></g>
                                            <path d="M1.5940847,0.0841407606 C8.01391695,0.769985798 13.2139103,5.80669086 13.913851,12.0174531 C14.3589,15.9603282 13.0510628,19.6106675 10.6508324,22.3295881 C10.1865654,22.8549787 9.66059836,23.3187313 9.12856247,23.7795487 C8.33050865,24.4722424 6.40668307,26.6002209 6.40668307,31 L0,31 L0,0 C0.525967035,0 1.05699144,0.0264162853 1.5940847,0.0841407606 Z" id="Fill-1" fill="#FDBD0F" mask="url(#mask-7)"></path>
                                        </g>
                                    </g>
                                    <path d="M3,29.1337891 L8.06272186,29.1337891 C9.16729136,29.1337891 10.0627219,28.2383586 10.0627219,27.1337891 L10.0627219,27 L11,27 L11,31 L3,31 L3,29.1337891 Z" id="Path-36" fill="#FDBD0F" fill-rule="nonzero"></path>
                                </g>
                            </g>
                            <g id="yellow-book" transform="translate(34.500000, 63.600000) rotate(90.000000) translate(-34.500000, -63.600000) translate(31.500000, 51.600000)">
                                <g id="Group">
                                    <path d="M5.33325,21.5314128 C5.33325,22.0520794 4.42092956,23.6666667 4.32926432,23.6666667 L0.450764974,23.6666667 C4.30456723e-15,23.6666667 8.33320312e-05,23.3896445 8.33320312e-05,22.8689779 L8.33320255e-05,0.999964771 C8.33320254e-05,0.447680022 0.447798582,-3.5228655e-05 1.00008333,-3.52286551e-05 L4.33334238,-3.92947043e-05 C4.88562713,-3.92947043e-05 5.33334238,0.447675955 5.33334238,0.999960705 C5.33334238,0.999962061 5.33334238,0.999963416 5.33334238,0.999964771 L5.33325,22.72 L5.33325,21.5314128 Z" id="Fill-681" fill="#FCD116"></path>
                                    <path d="M5.33325,22.7222222 L5.33333333,1 L3.04435221,1 C2.66671286,1 2.666625,1.25708008 2.666625,2.41666667 L2.666625,21.3055556 C2.666625,22.4051921 2.666625,22.7222222 2.1398112,22.7222222 L0,22.7222222 C0,23.2416667 8.33320255e-05,23.6666667 0.330810547,23.6666667 L4.9206543,23.6666667 C5.33333333,23.6666667 5.33325,23.2416667 5.33325,22.7222222 Z" id="Fill-683" fill="#FDBD0F"></path>
                                </g>
                            </g>
                            <g id="book-lines-yellow" transform="translate(42.500000, 61.300000)">
                                <rect id="Rectangle" fill="#FFFFFF" x="1" y="0" width="1" height="4" rx="0.5"></rect>
                                <rect id="Rectangle" fill="#FFFFFF" x="2" y="0" width="1" height="4" rx="0.5"></rect>
                                <rect id="Rectangle" fill="#FFFFFF" x="0" y="0" width="1" height="4" rx="0.5"></rect>
                            </g>
                            <g id="red-book" transform="translate(32.333333, 57.966667) rotate(90.000000) translate(-32.333333, -57.966667) translate(29.666667, 46.133333)">
                                <g id="Group">
                                    <path d="M5.33325,21.5314128 C5.33325,22.0520794 4.42092956,23.6666667 4.32926432,23.6666667 L0.450764974,23.6666667 C4.30456723e-15,23.6666667 8.33320312e-05,23.3896445 8.33320312e-05,22.8689779 L8.33320255e-05,0.999964771 C8.33320254e-05,0.447680022 0.447798582,-3.5228655e-05 1.00008333,-3.52286551e-05 L4.33334238,-3.92947043e-05 C4.88562713,-3.92947043e-05 5.33334238,0.447675955 5.33334238,0.999960705 C5.33334238,0.999962061 5.33334238,0.999963416 5.33334238,0.999964771 L5.33325,22.72 L5.33325,21.5314128 Z" id="Fill-681" fill="#EF6F59"></path>
                                    <path d="M5.33325,22.7222222 L5.33333333,1 L3.04435221,1 C2.66671286,1 2.666625,1.25708008 2.666625,2.41666667 L2.666625,21.3055556 C2.666625,22.4051921 2.666625,22.7222222 2.1398112,22.7222222 L0,22.7222222 C0,23.2416667 8.33320255e-05,23.6666667 0.330810547,23.6666667 L4.9206543,23.6666667 C5.33333333,23.6666667 5.33325,23.2416667 5.33325,22.7222222 Z" id="Fill-683" fill="#E2634E"></path>
                                </g>
                            </g>
                            <g id="book-lines-red" transform="translate(39.333333, 55.950000)">
                                <rect id="Rectangle" fill="#FFFFFF" x="1" y="0" width="1" height="4" rx="0.5"></rect>
                                <rect id="Rectangle" fill="#FFFFFF" x="2" y="0" width="1" height="4" rx="0.5"></rect>
                                <rect id="Rectangle" fill="#FFFFFF" x="0" y="0" width="1" height="4" rx="0.5"></rect>
                            </g>
                            <g id="green-book" transform="translate(34.500000, 53.000000) rotate(90.000000) translate(-34.500000, -53.000000) translate(31.500000, 41.000000)">
                                <g id="Group">
                                    <g id="Group-9" transform="translate(0.000000, -0.000035)">
                                        <path d="M5.33325,21.531448 C5.33325,22.0521147 4.42092956,23.6667019 4.32926432,23.6667019 L0.450764974,23.6667019 C2.23684637e-13,23.6667019 8.33320314e-05,23.3896798 8.33320314e-05,22.8690131 L8.33320257e-05,1 C8.33320256e-05,0.44771525 0.447798582,-5.11777678e-14 1.00008333,-1.88626892e-13 L4.33334238,-4.06604934e-06 C4.88562713,-4.06604934e-06 5.33334238,0.447711184 5.33334238,0.999995934 C5.33334238,0.999997289 5.33334238,0.999998645 5.33334238,1 L5.33325,22.7200352 L5.33325,21.531448 Z" id="Fill-681" fill="#7CB65A"></path>
                                        <path d="M5.33325,22.7222575 L5.33333333,1.00003523 L3.04435221,1.00003523 C2.66671286,1.00003523 2.666625,1.25711531 2.666625,2.4167019 L2.666625,21.3055908 C2.666625,22.4052273 2.666625,22.7222575 2.1398112,22.7222575 L3.04645198e-13,22.7222575 C3.04645198e-13,23.2417019 8.33320258e-05,23.6667019 0.330810547,23.6667019 L4.9206543,23.6667019 C5.33333333,23.6667019 5.33325,23.2417019 5.33325,22.7222575 Z" id="Fill-683" fill="#6CA04D"></path>
                                    </g>
                                    <g id="Group-8" transform="translate(0.000000, 0.833333)">
                                        <g id="Group-4" transform="translate(2.666667, 2.333333) rotate(-90.000000) translate(-2.666667, -2.333333) translate(1.166667, 0.333333)"></g>
                                    </g>
                                </g>
                                <rect id="Rectangle" fill="#FFFFFF" transform="translate(2.666667, 3.333333) rotate(-90.000000) translate(-2.666667, -3.333333) " x="2.33333333" y="1.33333333" width="1" height="4" rx="0.5"></rect>
                                <rect id="Rectangle" fill="#FFFFFF" transform="translate(2.666667, 2.333333) rotate(-90.000000) translate(-2.666667, -2.333333) " x="2.33333333" y="0.333333333" width="1" height="4" rx="0.5"></rect>
                                <rect id="Rectangle" fill="#FFFFFF" transform="translate(2.666667, 4.333333) rotate(-90.000000) translate(-2.666667, -4.333333) " x="2.33333333" y="2.33333333" width="1" height="4" rx="0.5"></rect>
                            </g>
                        </g>
                    </g>
                </g>
                <g id="PowerApps-Hex-Border" stroke="#742774" stroke-width="4">
                    <path d="M45.5620146,3.25834407 L6.67338401,26.8942953 C3.79673288,28.6432593 2,31.9508238 2,35.5582677 L2,82.4417323 C2,86.0486597 3.79764663,89.3586805 6.67318764,91.1055853 L45.560618,114.742485 C46.9289662,115.572418 48.4546283,116 50,116 C51.5458817,116 53.0723633,115.572188 54.4362178,114.743457 L93.3268764,91.1055464 C96.2016145,89.3583456 98,86.0476286 98,82.4417323 L98,35.5582677 C98,31.9518547 96.202529,28.6435953 93.3268966,26.8944659 L54.4351916,3.25759524 C53.0721095,2.42798656 51.5462432,2 50,2 C48.4543284,2 46.9293388,2.42772325 45.5620146,3.25834407 Z M45.5620146,3.25834407 C45.5619597,3.25837737 45.5619049,3.25841067 45.5618501,3.25844398 L45.5621963,3.25823359 L45.5620146,3.25834407 Z" id="Azure-Hex-Border"></path>
                </g>
            </g>
        </g>
    </g>
</svg>