<svg width="103" height="103" viewBox="0 0 103 103" fill="none" xmlns="http://www.w3.org/2000/svg">
<path d="M51.5351 97.8412C25.6851 97.8412 4.7251 76.8912 4.7251 51.0312C4.7251 25.1712 25.6851 4.22119 51.5351 4.22119C77.3851 4.22119 98.3451 25.1812 98.3451 51.0312C98.3451 76.8812 77.3851 97.8412 51.5351 97.8412Z" fill="url(#paint0_linear)"/>
<path fill-rule="evenodd" clip-rule="evenodd" d="M97.435 51.0311C97.435 76.3811 76.885 96.9311 51.535 96.9311C26.185 96.9311 5.63502 76.3811 5.63502 51.0311C5.63502 25.6811 26.185 5.13111 51.535 5.13111C76.885 5.13111 97.435 25.6811 97.435 51.0311ZM51.535 1.39111C78.955 1.39111 101.175 23.6111 101.175 51.0311C101.175 78.4511 78.945 100.671 51.535 100.671C24.115 100.671 1.89502 78.4411 1.89502 51.0311C1.89502 23.6111 24.115 1.39111 51.535 1.39111Z" fill="#F2F1F0"/>
<path fill-rule="evenodd" clip-rule="evenodd" d="M94.6251 51.0312C94.6251 74.8312 75.3351 94.1212 51.5351 94.1212C27.7351 94.1212 8.44508 74.8312 8.44508 51.0312C8.44508 27.2312 27.7351 7.94117 51.5351 7.94117C75.3351 7.94117 94.6251 27.2312 94.6251 51.0312ZM51.5351 4.20117C77.3951 4.20117 98.3651 25.1712 98.3651 51.0312C98.3651 76.8912 77.3951 97.8612 51.5351 97.8612C25.6751 97.8612 4.70508 76.8912 4.70508 51.0312C4.70508 25.1712 25.6651 4.20117 51.5351 4.20117Z" fill="url(#paint1_linear)"/>
<path d="M75.8451 62.3013H60.4751V63.2813H75.8451V62.3013Z" fill="white"/>
<path d="M75.8451 51.1309H60.4751V52.1109H75.8451V51.1309Z" fill="white"/>
<path d="M75.8451 39.9712H60.4751V40.9512H75.8451V39.9712Z" fill="white"/>
<path d="M75.8451 28.8013H60.4751V29.7813H75.8451V28.8013Z" fill="white"/>
<path d="M81.9252 24.3711H70.8252C70.1452 24.3711 69.5952 24.9211 69.5952 25.6011V32.4011C69.5952 33.0811 70.1452 33.6311 70.8252 33.6311H81.9352C82.6152 33.6411 83.1652 33.0911 83.1652 32.4111V25.6111C83.1452 24.9211 82.6052 24.3711 81.9252 24.3711Z" fill="#50E6FF"/>
<path d="M81.9252 47.001H70.8252C70.1452 47.001 69.5952 47.551 69.5952 48.231V55.031C69.5952 55.711 70.1452 56.261 70.8252 56.261H81.9352C82.6152 56.261 83.1652 55.711 83.1652 55.031V48.231C83.1452 47.541 82.6052 47.001 81.9252 47.001Z" fill="#3BCAF4"/>
<path d="M81.9252 35.6611H70.8252C70.1452 35.6611 69.5952 36.2111 69.5952 36.8911V43.6911C69.5952 44.3711 70.1452 44.9211 70.8252 44.9211H81.9352C82.6152 44.9311 83.1652 44.3811 83.1652 43.6911V36.8911C83.1452 36.2111 82.6052 35.6611 81.9252 35.6611Z" fill="#50E6FF"/>
<path d="M81.9252 58.291H70.8252C70.1452 58.291 69.5952 58.841 69.5952 59.521V66.321C69.5952 67.001 70.1452 67.551 70.8252 67.551H81.9352C82.6152 67.551 83.1652 67.001 83.1652 66.321V59.521C83.1452 58.841 82.6052 58.291 81.9252 58.291Z" fill="#0078D4"/>
<path opacity="0.15" d="M63.1251 26.0711L23.8551 25.7511C23.0051 25.7411 22.3151 26.4211 22.3151 27.2711L21.8951 78.5211C21.8851 79.3711 22.5651 80.0611 23.4151 80.0611L62.6851 80.3811C63.5351 80.3911 64.2251 79.7111 64.2251 78.8611L64.6451 27.6111C64.6451 26.7711 63.9651 26.0811 63.1251 26.0711Z" fill="#1F1D20"/>
<path d="M63.1351 24.451L23.8651 24.131C23.0151 24.121 22.3251 24.801 22.3251 25.651L21.8951 76.891C21.8851 77.741 22.5651 78.431 23.4151 78.431L62.6851 78.751C63.5351 78.761 64.2251 78.081 64.2251 77.231L64.6451 25.981C64.6551 25.151 63.9851 24.461 63.1351 24.451Z" fill="#F2F2F2"/>
<path fill-rule="evenodd" clip-rule="evenodd" d="M45.555 18.4912C46.665 19.0912 47.315 20.2812 47.305 21.5412V21.8412C47.305 21.9612 47.295 22.0612 47.285 22.1712L49.695 22.1912C50.415 22.2012 51.085 22.5612 51.445 23.1912C52.445 24.9712 51.175 26.7912 49.495 26.7712L37.315 26.6812C36.595 26.6712 35.925 26.3112 35.565 25.6812C34.565 23.9012 35.835 22.0812 37.515 22.1012L39.755 22.1212C39.745 22.0112 39.745 21.9012 39.745 21.7912V21.6912C39.785 18.9712 42.685 16.9512 45.555 18.4912Z" fill="#243A5E"/>
<path d="M43.5053 23.491C44.3653 23.501 45.0653 22.811 45.0753 21.951C45.0853 21.091 44.3953 20.391 43.5353 20.381C42.6753 20.371 41.9753 21.061 41.9653 21.921C41.9653 22.781 42.6453 23.481 43.5053 23.491Z" fill="#F2F2F2"/>
<path d="M57.2853 35.4214H30.3653C29.9753 35.4214 29.6553 35.7414 29.6553 36.1314V46.3114C29.6553 46.7014 29.9753 47.0214 30.3653 47.0214H57.2853C57.6753 47.0214 57.9953 46.7014 57.9953 46.3114V36.1314C57.9953 35.7314 57.6753 35.4214 57.2853 35.4214Z" fill="#282828"/>
<path d="M33.0952 38.4014H32.8452C32.6852 38.4014 32.5552 38.5314 32.5552 38.6914V38.8014C32.5552 38.9614 32.6852 39.0914 32.8452 39.0914H33.0952C33.2552 39.0914 33.3852 38.9614 33.3852 38.8014V38.6914C33.3852 38.5314 33.2552 38.4014 33.0952 38.4014Z" fill="url(#paint2_linear)"/>
<path d="M33.3852 40.0615H32.5552V40.7515H33.3852V40.0615Z" fill="url(#paint3_linear)"/>
<path d="M33.3852 41.5918H32.5552V42.2818H33.3852V41.5918Z" fill="url(#paint4_linear)"/>
<path d="M33.3852 43.2515H32.5552V43.9415H33.3852V43.2515Z" fill="url(#paint5_linear)"/>
<path d="M37.8152 41.5918H35.5952V42.2818H37.8152V41.5918Z" fill="url(#paint6_linear)"/>
<path d="M46.415 38.3916H35.945C35.765 38.3916 35.625 38.5316 35.625 38.7116C35.625 38.8916 35.765 39.0316 35.945 39.0316H46.425C46.605 39.0316 46.745 38.8916 46.745 38.7116C46.745 38.5416 46.595 38.3916 46.415 38.3916Z" fill="url(#paint7_linear)"/>
<path d="M49.9152 41.6318H38.9152C38.7352 41.6318 38.5952 41.7718 38.5952 41.9518C38.5952 42.1318 38.7352 42.2718 38.9152 42.2718H49.9152C50.0952 42.2718 50.2352 42.1318 50.2352 41.9518C50.2352 41.7718 50.0952 41.6318 49.9152 41.6318Z" fill="url(#paint8_linear)"/>
<path d="M42.9251 43.3115H36.0651C35.8851 43.3115 35.7451 43.4515 35.7451 43.6315C35.7451 43.8115 35.8851 43.9515 36.0651 43.9515H42.9251C43.1051 43.9515 43.2451 43.8115 43.2451 43.6315C43.2451 43.4515 43.1051 43.3115 42.9251 43.3115Z" fill="url(#paint9_linear)"/>
<path d="M57.8254 58.6111C57.8254 58.0711 57.3954 57.6411 56.8554 57.6411H30.7854C30.2454 57.6411 29.8154 58.0711 29.8154 58.6111C29.8154 59.1511 30.2454 59.5811 30.7854 59.5811H56.8754C57.4054 59.5611 57.8254 59.1411 57.8254 58.6111Z" fill="url(#paint10_linear)"/>
<path d="M57.8254 63.8313C57.8254 63.2913 57.3954 62.8613 56.8554 62.8613H30.7854C30.2454 62.8613 29.8154 63.2913 29.8154 63.8313C29.8154 64.3713 30.2454 64.8013 30.7854 64.8013H56.8754C57.4054 64.8013 57.8254 64.3613 57.8254 63.8313Z" fill="url(#paint11_linear)"/>
<path d="M56.8654 52.0713H30.7854C30.2454 52.0713 29.8154 52.5013 29.8154 53.0413C29.8154 53.5813 30.2454 54.0113 30.7854 54.0113H56.8754C57.4154 54.0113 57.8454 53.5813 57.8454 53.0413C57.8454 52.5013 57.4054 52.0713 56.8654 52.0713Z" fill="url(#paint12_linear)"/>
<path d="M59.4952 80.8361C64.8352 80.8361 69.1652 76.5061 69.1652 71.1661C69.1652 65.8261 64.8352 61.4961 59.4952 61.4961C54.1552 61.4961 49.8252 65.8261 49.8252 71.1661C49.8252 76.5061 54.1552 80.8361 59.4952 80.8361Z" fill="#002D4C"/>
<path d="M64.7554 66.2363L56.7754 74.2363L54.3854 71.8363L52.7954 73.4363L56.7754 77.4263L66.3454 67.8263L64.7554 66.2363Z" fill="#FAF9F8"/>
<defs>
<linearGradient id="paint0_linear" x1="49.7656" y1="-13.7583" x2="53.7476" y2="132.011" gradientUnits="userSpaceOnUse">
<stop stop-color="#00ABDE"/>
<stop offset="1" stop-color="#007ED8"/>
</linearGradient>
<linearGradient id="paint1_linear" x1="2.96828" y1="-20.5938" x2="98.4959" y2="120.288" gradientUnits="userSpaceOnUse">
<stop stop-color="#007ED8"/>
<stop offset="0.7065" stop-color="#002D4C"/>
</linearGradient>
<linearGradient id="paint2_linear" x1="32.5727" y1="38.4064" x2="53.674" y2="56.7278" gradientUnits="userSpaceOnUse">
<stop stop-color="#C8C8C8"/>
<stop offset="1" stop-color="#505050"/>
</linearGradient>
<linearGradient id="paint3_linear" x1="31.7495" y1="39.3546" x2="52.8508" y2="57.6761" gradientUnits="userSpaceOnUse">
<stop stop-color="#C8C8C8"/>
<stop offset="1" stop-color="#505050"/>
</linearGradient>
<linearGradient id="paint4_linear" x1="30.9951" y1="40.2237" x2="52.0963" y2="58.5452" gradientUnits="userSpaceOnUse">
<stop stop-color="#C8C8C8"/>
<stop offset="1" stop-color="#505050"/>
</linearGradient>
<linearGradient id="paint5_linear" x1="30.1717" y1="41.1717" x2="51.2729" y2="59.4932" gradientUnits="userSpaceOnUse">
<stop stop-color="#C8C8C8"/>
<stop offset="1" stop-color="#505050"/>
</linearGradient>
<linearGradient id="paint6_linear" x1="32.6038" y1="38.3709" x2="53.7051" y2="56.6924" gradientUnits="userSpaceOnUse">
<stop stop-color="#C8C8C8"/>
<stop offset="1" stop-color="#505050"/>
</linearGradient>
<linearGradient id="paint7_linear" x1="36.118" y1="34.3231" x2="57.2193" y2="52.6446" gradientUnits="userSpaceOnUse">
<stop stop-color="#C8C8C8"/>
<stop offset="1" stop-color="#505050"/>
</linearGradient>
<linearGradient id="paint8_linear" x1="35.9072" y1="34.5663" x2="57.0086" y2="52.8878" gradientUnits="userSpaceOnUse">
<stop stop-color="#C8C8C8"/>
<stop offset="1" stop-color="#505050"/>
</linearGradient>
<linearGradient id="paint9_linear" x1="32.9611" y1="37.959" x2="54.0624" y2="56.2806" gradientUnits="userSpaceOnUse">
<stop stop-color="#C8C8C8"/>
<stop offset="1" stop-color="#505050"/>
</linearGradient>
<linearGradient id="paint10_linear" x1="37.1708" y1="44.0688" x2="49.7651" y2="71.6189" gradientUnits="userSpaceOnUse">
<stop stop-color="#C8C8C8"/>
<stop offset="1" stop-color="#505050"/>
</linearGradient>
<linearGradient id="paint11_linear" x1="35.1975" y1="44.9712" x2="47.7918" y2="72.5212" gradientUnits="userSpaceOnUse">
<stop stop-color="#C8C8C8"/>
<stop offset="1" stop-color="#505050"/>
</linearGradient>
<linearGradient id="paint12_linear" x1="39.2838" y1="43.1031" x2="51.8781" y2="70.6531" gradientUnits="userSpaceOnUse">
<stop stop-color="#C8C8C8"/>
<stop offset="1" stop-color="#505050"/>
</linearGradient>
</defs>
</svg>
