<?xml version="1.0" encoding="UTF-8"?>
<svg width="101px" height="101px" viewBox="0 0 101 101" version="1.1" xmlns="http://www.w3.org/2000/svg" xmlns:xlink="http://www.w3.org/1999/xlink">
    <!-- Generator: Sketch 63 (92445) - https://sketch.com -->
    <title>Connect and engage with customers with Omnichannel for Dynamics 365 Customer Service/Creating-a-Unified-Customer-Profile-in-Customer-Insights</title>
    <desc>Created with Sketch.</desc>
    <defs>
        <rect id="path-1" x="0" y="0" width="94.3396226" height="94.3396226" rx="47.1698113"></rect>
        <linearGradient x1="77.8299825%" y1="11.1997378%" x2="-99.6885927%" y2="253.807911%" id="linearGradient-3">
            <stop stop-color="#FFFFFF" offset="0%"></stop>
            <stop stop-color="#000000" stop-opacity="0.5" offset="100%"></stop>
        </linearGradient>
        <rect id="path-4" x="0" y="0" width="94.3396226" height="94.3396226"></rect>
        <rect id="path-5" x="0" y="0" width="100" height="100" rx="50"></rect>
        <filter x="-0.5%" y="-0.5%" width="102.0%" height="102.0%" filterUnits="objectBoundingBox" id="filter-6">
            <feOffset dx="1" dy="1" in="SourceAlpha" result="shadowOffsetOuter1"></feOffset>
            <feMorphology radius="4" operator="erode" in="SourceAlpha" result="shadowInner"></feMorphology>
            <feOffset dx="1" dy="1" in="shadowInner" result="shadowInner"></feOffset>
            <feComposite in="shadowOffsetOuter1" in2="shadowInner" operator="out" result="shadowOffsetOuter1"></feComposite>
            <feColorMatrix values="0 0 0 0 0   0 0 0 0 0   0 0 0 0 0  0 0 0 0.15 0" type="matrix" in="shadowOffsetOuter1"></feColorMatrix>
        </filter>
        <path d="M50,2.83018868 C76.0511674,2.83018868 97.1698113,23.9488326 97.1698113,50 C97.1698113,76.0511674 76.0511674,97.1698113 50,97.1698113 C23.9488326,97.1698113 2.83018868,76.0511674 2.83018868,50 C2.83018868,23.9488326 23.9488326,2.83018868 50,2.83018868 Z M50,6.60377358 C26.032926,6.60377358 6.60377358,26.032926 6.60377358,50 C6.60377358,73.967074 26.032926,93.3962264 50,93.3962264 C73.967074,93.3962264 93.3962264,73.967074 93.3962264,50 C93.3962264,26.032926 73.967074,6.60377358 50,6.60377358 Z" id="path-7"></path>
    </defs>
    <g id="Badges" stroke="none" stroke-width="1" fill="none" fill-rule="evenodd">
        <g id="Connect-and-engage-with-customers-with-Omnichannel-for-Dynamics-365-Customer-Service" transform="translate(-160.000000, -320.000000)">
            <g id="Connect-and-engage-with-customers-with-Omnichannel-for-Dynamics-365-Customer-Service/Creating-a-Unified-Customer-Profile-in-Customer-Insights" transform="translate(160.000000, 320.000000)">
                <g id="Badge-Plates/Circle">
                    <g id="BG" transform="translate(2.830189, 2.830189)">
                        <mask id="mask-2" fill="white">
                            <use xlink:href="#path-1"></use>
                        </mask>
                        <g></g>
                        <g id="Colors/Dynamics-365/BG-Solid-Badges" mask="url(#mask-2)">
                            <g id="Rectangle">
                                <use fill="#01B6C3" xlink:href="#path-4"></use>
                                <use fill-opacity="0.4" fill="url(#linearGradient-3)" xlink:href="#path-4"></use>
                            </g>
                        </g>
                    </g>
                    <g id="Border">
                        <g id="White-Border">
                            <use fill="black" fill-opacity="1" filter="url(#filter-6)" xlink:href="#path-5"></use>
                            <rect stroke="#F2F1F0" stroke-width="4" stroke-linejoin="square" x="2" y="2" width="96" height="96" rx="48"></rect>
                        </g>
                        <mask id="mask-8" fill="white">
                            <use xlink:href="#path-7"></use>
                        </mask>
                        <use id="Boarder" fill="#0078D4" fill-rule="nonzero" xlink:href="#path-7"></use>
                        <g id="Colors/Dynamics-365/Border" mask="url(#mask-8)" fill="#008372">
                            <g transform="translate(2.830189, 2.830189)" id="Rectangle">
                                <rect x="0" y="0" width="94.3396226" height="94.3396226"></rect>
                            </g>
                        </g>
                    </g>
                </g>
                <g id="dashboard" transform="translate(18.000000, 23.000000)" fill-rule="nonzero">
                    <g id="Group">
                        <g id="dashboard">
                            <path d="M58.96,2.20233794 L4.16,2.20233794 C3.08047059,2.20233794 2.20235294,3.07105882 2.20235294,4.13929412 L2.20235294,48.704 C2.20235294,49.7722353 3.08047059,50.6428235 4.16,50.6428235 L58.9609412,50.6428235 C60.0395294,50.6428235 60.9185882,49.7722353 60.9185882,48.704 L60.9185882,4.14023529 C60.9118504,3.06505282 60.0361367,2.19818046 58.9609412,2.20233794" id="Fill-1523" fill="#FFFFFF"></path>
                            <path d="M59.1745882,0 L3.94541176,0 C1.77505882,0 0,1.76188235 0,3.91435294 L0,48.9298824 C0,51.0823529 1.77505882,52.8442353 3.94541176,52.8442353 L59.1736471,52.8442353 C61.344,52.8442353 63.1190588,51.0823529 63.1190588,48.9289412 L63.1190588,3.91529412 C63.1190588,1.76188235 61.344,0 59.1745882,0 Z M59.0522353,2.1138739 C60.1304906,2.11074759 61.0082765,2.98011749 61.0155294,4.05835294 L61.0155294,48.7858824 C61.0082756,49.8644862 60.1299162,50.7340073 59.0512941,50.7303644 L4.06776471,50.7303644 C2.98914262,50.7340073 2.11078322,49.8644862 2.10352941,48.7858824 L2.10352941,4.05835294 C2.10352941,2.98541176 2.98447059,2.1138739 4.06776471,2.1138739 L59.0512941,2.1138739 L59.0522353,2.1138739 Z" id="Fill-1524" fill="#C9C9C9"></path>
                            <path d="M29.1481731,27.8898824 L40.248,27.8898824 L40.248,30.0922353 L29.1481731,30.0922353 C28.6510212,30.0922353 28.248,29.5992218 28.248,28.9910588 C28.248,28.3828959 28.6510212,27.8898824 29.1481731,27.8898824 Z" id="Rectangle" fill="#55B7D9"></path>
                            <polygon id="Rectangle" fill="#F7CB64" points="40.248 27.8898824 50.248 27.8898824 50.248 30.0912941 40.248 30.0912941"></polygon>
                            <path d="M50.248,27.8898824 L56.293232,27.8898824 C56.8205358,27.8898824 57.248,28.3828959 57.248,28.9910588 C57.248,29.5992218 56.8205358,30.0922353 56.293232,30.0922353 L50.248,30.0922353 L50.248,27.8898824 Z" id="Rectangle-Copy" fill="#DF5142"></path>
                            <path d="M28.8089368,35.2291765 L33.9087059,35.2291765 L33.9087059,37.4315294 L28.8089368,37.4315294 C28.4873153,37.4315294 28.1901248,37.2216464 28.029314,36.8809412 C27.8685033,36.540236 27.8685033,36.1204699 28.029314,35.7797647 C28.1901248,35.4390595 28.4873153,35.2291765 28.8089368,35.2291765 Z" id="Rectangle" fill="#F7CB64"></path>
                            <polygon id="Rectangle" fill="#DF5142" points="33.9087059 35.2291765 37.9087059 35.2291765 37.9087059 37.4305882 33.9087059 37.4305882"></polygon>
                            <path d="M37.9094753,35.2291765 L49.0085905,35.2291765 C49.3301708,35.2291765 49.6273232,35.4390595 49.7881133,35.7797647 C49.9489035,36.1204699 49.9489035,36.540236 49.7881133,36.8809412 C49.6273232,37.2216464 49.3301708,37.4315294 49.0085905,37.4315294 L37.9087059,37.4315294 L37.9087059,35.2291765 L37.9094753,35.2291765 Z" id="Rectangle-Copy" fill="#7CB65A"></path>
                            <path d="M29.1011765,42.0009412 L42.6795294,42.0009412 L42.6795294,44.2023529 L29.1011765,44.2023529 C28.4930135,44.2023529 28,43.7093394 28,43.1011765 C28,42.4930135 28.4930135,42 29.1011765,42 L29.1011765,42.0009412 Z" id="Rectangle" fill="#F7CB64"></path>
                            <path d="M43.4127059,42.0009412 L50.3858824,42.0009412 C50.7792948,42.0009411 51.142823,42.2108242 51.3395292,42.5515294 C51.5362355,42.8922346 51.5362355,43.3120007 51.3395292,43.6527059 C51.142823,43.9934111 50.7792948,44.2032941 50.3858824,44.2032941 L43.4127059,44.2023529 L43.4127059,42 L43.4127059,42.0009412 Z" id="Rectangle-Copy" fill="#55B7D9"></path>
                            <g id="Pie-Chart" transform="translate(44.770824, 8.807529)">
                                <circle id="Oval" fill="#55B7D9" cx="6.23811765" cy="6.23811765" r="6.23811765"></circle>
                                <path d="M6.23811765,0.016 C6.38211765,0.00564705882 6.52705882,0 6.67294118,0 C9.87858824,0 12.4771765,2.64376471 12.4771765,5.904 C12.4771765,6.01694118 12.4743529,6.128 12.4677647,6.23811765 L6.23811765,6.23811765 L6.23811765,0.0169411765 L6.23811765,0.016 Z" id="Combined-Shape" fill="#0095B2"></path>
                            </g>
                            <g id="Graph" transform="translate(28.000000, 6.000000)">
                                <polygon id="Blue" fill="#55B7D9" points="0 0 4.22023529 0 4.22023529 16.1468235 0 16.1468235"></polygon>
                                <polygon id="Red" fill="#DF5142" points="5.33035294 7.53505882 9.55058824 7.53505882 9.55058824 16.1468235 5.33035294 16.1468235"></polygon>
                                <polygon id="Green" fill="#7CB65A" points="10.6607059 4.30588235 14.8809412 4.30588235 14.8809412 16.1468235 10.6607059 16.1468235"></polygon>
                            </g>
                        </g>
                        <rect id="Rectangle" fill="#E1E4E1" x="4.21129412" y="27" width="20" height="1.46823529" rx="0.734117647"></rect>
                        <rect id="Rectangle" fill="#E1E4E1" x="4.21129412" y="30" width="20" height="1.46823529" rx="0.734117647"></rect>
                        <rect id="Rectangle" fill="#E1E4E1" x="4.21129412" y="39" width="20" height="1.46823529" rx="0.734117647"></rect>
                        <rect id="Rectangle" fill="#E1E4E1" x="4.21129412" y="33" width="20" height="1.46823529" rx="0.734117647"></rect>
                        <rect id="Rectangle" fill="#E1E4E1" x="4.21129412" y="36" width="20" height="1.46823529" rx="0.734117647"></rect>
                        <g id="User1" transform="translate(4.403765, 6.605176)">
                            <path d="M9.35733333,18.716 C14.5235454,18.7101218 18.7101218,14.5235454 18.716,9.35733333 C18.7101204,4.19133772 14.5233297,0.00514353609 9.35733333,1.04005693e-15 C4.19185763,0.00587821419 0.00587821419,4.19185763 1.04005693e-15,9.35733333 C0.00514353609,14.5233297 4.19133772,18.7101204 9.35733333,18.716" id="Fill-115" fill="#ADBDC4"></path>
                            <path d="M9.35733333,0 C14.5233297,0.00514353609 18.7101204,4.19133772 18.716,9.35733333 C18.7101218,14.5235454 14.5235454,18.7101218 9.35733333,18.716 L9.35733333,0 Z" id="Combined-Shape" fill-opacity="0.18" fill="#4B5B67"></path>
                            <path d="M9.35733333,11.4373333 C10.472002,11.4373333 11.5019983,10.8426647 12.0593326,9.87733335 C12.616667,8.91200198 12.616667,7.72266469 12.0593326,6.75733332 C11.5019983,5.79200195 10.472002,5.19733333 9.35733333,5.19733333 C7.63420491,5.19733333 6.23733333,6.59420491 6.23733333,8.31733333 C6.23733333,10.0404618 7.63420491,11.4373333 9.35733333,11.4373333 Z" id="Path" fill="#FFFFFE"></path>
                            <path d="M9.35733333,17.676 C12.4426667,17.676 15.144,15.7066667 16.6373333,13.644 C16.6269806,13.5834033 16.5980999,13.5275051 16.5546667,13.484 C15.6013333,12.4826667 14.0906667,12.4773333 12.0653333,12.4773333 L6.64933333,12.4773333 C4.624,12.4773333 3.116,12.4826667 2.16133333,13.484 C2.11838781,13.5276818 2.08998213,13.5835618 2.08,13.644 C3.572,15.7066667 6.27333333,17.676 9.35733333,17.676 L9.35733333,17.676 Z" id="Path" fill="#FFFFFE"></path>
                        </g>
                    </g>
                </g>
            </g>
        </g>
    </g>
</svg>