<?xml version="1.0" encoding="UTF-8"?>
<svg width="100px" height="118px" viewBox="0 0 100 118" version="1.1" xmlns="http://www.w3.org/2000/svg" xmlns:xlink="http://www.w3.org/1999/xlink">
    <!-- Generator: Sketch 52.3 (67297) - http://www.bohemiancoding.com/sketch -->
    <title>Universal Resource Scheduling for Microsoft Dynamics 365/universal-resource-scheduling-for-microsoft-dynamics-365</title>
    <desc>Created with Sketch.</desc>
    <defs>
        <path d="M42.7425,1.49663266 C44.3745,0.498877554 46.1865,0 48,0 C49.8135,0 51.627,0.498877554 53.256,1.49663266 L90.591,24.3316189 C93.933,26.3773408 96,30.2031485 96,34.3529027 L96,79.6470973 C96,83.7952317 93.933,87.6242789 90.591,89.6683811 L53.256,112.504987 C51.627,113.501122 49.8135,114 48,114 C46.1865,114 44.3745,113.501122 42.7425,112.504987 L5.409,89.6683811 C2.0655,87.6242789 0,83.7952317 0,79.6470973 L0,34.3529027 C0,30.2031485 2.0655,26.3773408 5.409,24.3316189 L42.7425,1.49663266 Z" id="path-1"></path>
        <filter x="-6.2%" y="-6.2%" width="112.5%" height="112.5%" filterUnits="objectBoundingBox" id="filter-3">
            <feOffset dx="0" dy="2" in="SourceAlpha" result="shadowOffsetOuter1"></feOffset>
            <feColorMatrix values="0 0 0 0 0   0 0 0 0 0   0 0 0 0 0  0 0 0 0.0983072917 0" type="matrix" in="shadowOffsetOuter1" result="shadowMatrixOuter1"></feColorMatrix>
            <feMerge>
                <feMergeNode in="shadowMatrixOuter1"></feMergeNode>
                <feMergeNode in="SourceGraphic"></feMergeNode>
            </feMerge>
        </filter>
    </defs>
    <g id="Badges" stroke="none" stroke-width="1" fill="none" fill-rule="evenodd">
        <g id="Universal-Resource-Scheduling-for-Microsoft-Dynamics-365" transform="translate(-579.000000, -118.000000)">
            <g id="Universal-Resource-Scheduling-for-Microsoft-Dynamics-365/universal-resource-scheduling-for-microsoft-dynamics-365" transform="translate(579.000000, 118.000000)">
                <g id="Mask" transform="translate(2.000000, 2.000000)">
                    <mask id="mask-2" fill="white">
                        <use xlink:href="#path-1"></use>
                    </mask>
                    <use id="Trophy-1" fill="#01B6C3" xlink:href="#path-1"></use>
                    <g id="Group-20" filter="url(#filter-3)" mask="url(#mask-2)">
                        <g transform="translate(16.000000, 25.000000)">
                            <path d="M0,14 L0,60 C0,62.2 1.8,64 4,64 L52,64 L64,52 L64,14 L0,14" id="Fill-1315" fill="#E1E4E1"></path>
                            <path d="M64,2 C64,0.9 63.1,0 62,0 L2,0 C0.9,0 0,0.9 0,2 L0,12 L64,12 L64,2" id="Fill-1316" fill="#DF5142"></path>
                            <polygon id="Fill-1317" fill="#CAD2D4" points="0 14 64 14 64 12 0 12"></polygon>
                            <path d="M34,6 C34,7.104 33.104,8 32,8 C30.895,8 30,7.104 30,6 C30,4.895 30.895,4 32,4 C33.104,4 34,4.895 34,6" id="Fill-1318" fill="#A13834"></path>
                            <path d="M50,6 C50,7.104 49.104,8 48,8 C46.895,8 46,7.104 46,6 C46,4.895 46.895,4 48,4 C49.104,4 50,4.895 50,6" id="Fill-1319" fill="#A13834"></path>
                            <path d="M18,6 C18,7.104 17.104,8 16,8 C14.895,8 14,7.104 14,6 C14,4.895 14.895,4 16,4 C17.104,4 18,4.895 18,6" id="Fill-1320" fill="#A13834"></path>
                            <path d="M34,16 C34,17.104 33.104,18 32,18 C30.895,18 30,17.104 30,16 C30,14.895 30.895,14 32,14 C33.104,14 34,14.895 34,16" id="Fill-1321" fill="#546670"></path>
                            <path d="M50,16 C50,17.104 49.104,18 48,18 C46.895,18 46,17.104 46,16 C46,14.895 46.895,14 48,14 C49.104,14 50,14.895 50,16" id="Fill-1322" fill="#546670"></path>
                            <path d="M18,16 C18,17.104 17.104,18 16,18 C14.895,18 14,17.104 14,16 C14,14.895 14.895,14 16,14 C17.104,14 18,14.895 18,16" id="Fill-1323" fill="#546670"></path>
                            <path d="M48,17 C47.447,17 47,16.553 47,16 L47,6 C47,5.447 47.447,5 48,5 C48.553,5 49,5.447 49,6 L49,16 C49,16.553 48.553,17 48,17" id="Fill-1324" fill="#AAB0B1"></path>
                            <path d="M32,17 C31.447,17 31,16.553 31,16 L31,6 C31,5.447 31.447,5 32,5 C32.553,5 33,5.447 33,6 L33,16 C33,16.553 32.553,17 32,17" id="Fill-1325" fill="#AAB0B1"></path>
                            <path d="M16,17 C15.447,17 15,16.553 15,16 L15,6 C15,5.447 15.447,5 16,5 C16.553,5 17,5.447 17,6 L17,16 C17,16.553 16.553,17 16,17" id="Fill-1326" fill="#AAB0B1"></path>
                            <path d="M11,26 C11,26.55 10.55,27 10,27 L6,27 C5.45,27 5,26.55 5,26 L5,22 C5,21.45 5.45,21 6,21 L10,21 C10.55,21 11,21.45 11,22 L11,26" id="Fill-1327" fill="#C5CCCD"></path>
                            <path d="M19,26 C19,26.55 18.55,27 18,27 L14,27 C13.45,27 13,26.55 13,26 L13,22 C13,21.45 13.45,21 14,21 L18,21 C18.55,21 19,21.45 19,22 L19,26" id="Fill-1328" fill="#C5CCCD"></path>
                            <path d="M27,26 C27,26.55 26.55,27 26,27 L22,27 C21.45,27 21,26.55 21,26 L21,22 C21,21.45 21.45,21 22,21 L26,21 C26.55,21 27,21.45 27,22 L27,26" id="Fill-1329" fill="#C5CCCD"></path>
                            <path d="M35,26 C35,26.55 34.55,27 34,27 L30,27 C29.45,27 29,26.55 29,26 L29,22 C29,21.45 29.45,21 30,21 L34,21 C34.55,21 35,21.45 35,22 L35,26" id="Fill-1330" fill="#C5CCCD"></path>
                            <path d="M43,26 C43,26.55 42.55,27 42,27 L38,27 C37.45,27 37,26.55 37,26 L37,22 C37,21.45 37.45,21 38,21 L42,21 C42.55,21 43,21.45 43,22 L43,26" id="Fill-1331" fill="#C5CCCD"></path>
                            <path d="M51,26 C51,26.55 50.55,27 50,27 L46,27 C45.45,27 45,26.55 45,26 L45,22 C45,21.45 45.45,21 46,21 L50,21 C50.55,21 51,21.45 51,22 L51,26" id="Fill-1332" fill="#DF5142"></path>
                            <path d="M59,26 C59,26.55 58.55,27 58,27 L54,27 C53.45,27 53,26.55 53,26 L53,22 C53,21.45 53.45,21 54,21 L58,21 C58.55,21 59,21.45 59,22 L59,26" id="Fill-1333" fill="#DF5142"></path>
                            <path d="M11,34 C11,34.55 10.55,35 10,35 L6,35 C5.45,35 5,34.55 5,34 L5,30 C5,29.45 5.45,29 6,29 L10,29 C10.55,29 11,29.45 11,30 L11,34" id="Fill-1334" fill="#C5CCCD"></path>
                            <path d="M19,34 C19,34.55 18.55,35 18,35 L14,35 C13.45,35 13,34.55 13,34 L13,30 C13,29.45 13.45,29 14,29 L18,29 C18.55,29 19,29.45 19,30 L19,34" id="Fill-1335" fill="#C5CCCD"></path>
                            <path d="M27,34 C27,34.55 26.55,35 26,35 L22,35 C21.45,35 21,34.55 21,34 L21,30 C21,29.45 21.45,29 22,29 L26,29 C26.55,29 27,29.45 27,30 L27,34" id="Fill-1336" fill="#C5CCCD"></path>
                            <path d="M35,34 C35,34.55 34.55,35 34,35 L30,35 C29.45,35 29,34.55 29,34 L29,30 C29,29.45 29.45,29 30,29 L34,29 C34.55,29 35,29.45 35,30 L35,34" id="Fill-1337" fill="#C5CCCD"></path>
                            <path d="M43,34 C43,34.55 42.55,35 42,35 L38,35 C37.45,35 37,34.55 37,34 L37,30 C37,29.45 37.45,29 38,29 L42,29 C42.55,29 43,29.45 43,30 L43,34" id="Fill-1338" fill="#C5CCCD"></path>
                            <path d="M51,34 C51,34.55 50.55,35 50,35 L46,35 C45.45,35 45,34.55 45,34 L45,30 C45,29.45 45.45,29 46,29 L50,29 C50.55,29 51,29.45 51,30 L51,34" id="Fill-1339" fill="#DF5142"></path>
                            <path d="M59,34 C59,34.55 58.55,35 58,35 L54,35 C53.45,35 53,34.55 53,34 L53,30 C53,29.45 53.45,29 54,29 L58,29 C58.55,29 59,29.45 59,30 L59,34" id="Fill-1340" fill="#DF5142"></path>
                            <path d="M11,42 C11,42.55 10.55,43 10,43 L6,43 C5.45,43 5,42.55 5,42 L5,38 C5,37.45 5.45,37 6,37 L10,37 C10.55,37 11,37.45 11,38 L11,42" id="Fill-1341" fill="#C5CCCD"></path>
                            <path d="M19,42 C19,42.55 18.55,43 18,43 L14,43 C13.45,43 13,42.55 13,42 L13,38 C13,37.45 13.45,37 14,37 L18,37 C18.55,37 19,37.45 19,38 L19,42" id="Fill-1342" fill="#C5CCCD"></path>
                            <path d="M27,42 C27,42.55 26.55,43 26,43 L22,43 C21.45,43 21,42.55 21,42 L21,38 C21,37.45 21.45,37 22,37 L26,37 C26.55,37 27,37.45 27,38 L27,42" id="Fill-1343" fill="#C5CCCD"></path>
                            <path d="M35,42 C35,42.55 34.55,43 34,43 L30,43 C29.45,43 29,42.55 29,42 L29,38 C29,37.45 29.45,37 30,37 L34,37 C34.55,37 35,37.45 35,38 L35,42" id="Fill-1344" fill="#C5CCCD"></path>
                            <path d="M43,42 C43,42.55 42.55,43 42,43 L38,43 C37.45,43 37,42.55 37,42 L37,38 C37,37.45 37.45,37 38,37 L42,37 C42.55,37 43,37.45 43,38 L43,42" id="Fill-1345" fill="#C5CCCD"></path>
                            <path d="M51,42 C51,42.55 50.55,43 50,43 L46,43 C45.45,43 45,42.55 45,42 L45,38 C45,37.45 45.45,37 46,37 L50,37 C50.55,37 51,37.45 51,38 L51,42" id="Fill-1346" fill="#DF5142"></path>
                            <path d="M59,42 C59,42.55 58.55,43 58,43 L54,43 C53.45,43 53,42.55 53,42 L53,38 C53,37.45 53.45,37 54,37 L58,37 C58.55,37 59,37.45 59,38 L59,42" id="Fill-1347" fill="#DF5142"></path>
                            <path d="M11,50 C11,50.55 10.55,51 10,51 L6,51 C5.45,51 5,50.55 5,50 L5,46 C5,45.45 5.45,45 6,45 L10,45 C10.55,45 11,45.45 11,46 L11,50" id="Fill-1348" fill="#C5CCCD"></path>
                            <path d="M19,50 C19,50.55 18.55,51 18,51 L14,51 C13.45,51 13,50.55 13,50 L13,46 C13,45.45 13.45,45 14,45 L18,45 C18.55,45 19,45.45 19,46 L19,50" id="Fill-1349" fill="#C5CCCD"></path>
                            <path d="M27,50 C27,50.55 26.55,51 26,51 L22,51 C21.45,51 21,50.55 21,50 L21,46 C21,45.45 21.45,45 22,45 L26,45 C26.55,45 27,45.45 27,46 L27,50" id="Fill-1350" fill="#C5CCCD"></path>
                            <path d="M35,50 C35,50.55 34.55,51 34,51 L30,51 C29.45,51 29,50.55 29,50 L29,46 C29,45.45 29.45,45 30,45 L34,45 C34.55,45 35,45.45 35,46 L35,50" id="Fill-1351" fill="#C5CCCD"></path>
                            <path d="M43,50 C43,50.55 42.55,51 42,51 L38,51 C37.45,51 37,50.55 37,50 L37,46 C37,45.45 37.45,45 38,45 L42,45 C42.55,45 43,45.45 43,46 L43,50" id="Fill-1352" fill="#C5CCCD"></path>
                            <path d="M51,50 C51,50.55 50.55,51 50,51 L46,51 C45.45,51 45,50.55 45,50 L45,46 C45,45.45 45.45,45 46,45 L50,45 C50.55,45 51,45.45 51,46 L51,50" id="Fill-1353" fill="#DF5142"></path>
                            <path d="M59,50 C59,50.55 58.55,51 58,51 L54,51 C53.45,51 53,50.55 53,50 L53,46 C53,45.45 53.45,45 54,45 L58,45 C58.55,45 59,45.45 59,46 L59,50" id="Fill-1354" fill="#DF5142"></path>
                            <path d="M52,56 L52,64 L64,52 L56,52 C53.8,52 52,53.8 52,56" id="Fill-1355" fill="#AAB0B1"></path>
                            <polyline id="Fill-1356" fill="#CAD2D4" points="44 64 52 56 52 64 44 64"></polyline>
                        </g>
                    </g>
                </g>
                <g id="Dynamic-Hex" stroke="#1D8E96" stroke-width="4">
                    <path d="M45.5620146,3.25834407 L6.67338401,26.8942953 C3.79673288,28.6432593 2,31.9508238 2,35.5582677 L2,82.4417323 C2,86.0486597 3.79764663,89.3586805 6.67318764,91.1055853 L45.560618,114.742485 C46.9289662,115.572418 48.4546283,116 50,116 C51.5458817,116 53.0723633,115.572188 54.4362178,114.743457 L93.3268764,91.1055464 C96.2016145,89.3583456 98,86.0476286 98,82.4417323 L98,35.5582677 C98,31.9518547 96.202529,28.6435953 93.3268966,26.8944659 L54.4351916,3.25759524 C53.0721095,2.42798656 51.5462432,2 50,2 C48.4543284,2 46.9293388,2.42772325 45.5620146,3.25834407 Z M45.5620146,3.25834407 C45.5619597,3.25837737 45.5619049,3.25841067 45.5618501,3.25844398 L45.5621963,3.25823359 L45.5620146,3.25834407 Z" id="Azure-Hex-Border"></path>
                </g>
            </g>
        </g>
    </g>
</svg>