<?xml version="1.0" encoding="UTF-8"?>
<svg width="194px" height="194px" viewBox="0 0 194 194" version="1.1" xmlns="http://www.w3.org/2000/svg" xmlns:xlink="http://www.w3.org/1999/xlink">
    <title>Use DAX in Power BI Desktop/use-dax-in-power-bi-desktop</title>
    <defs>
        <path d="M15.0821581,82.4166667 L82.4166667,15.0821581 C90.4708193,7.02800546 103.529181,7.02800546 111.583333,15.0821581 L178.917842,82.4166667 C186.971995,90.4708193 186.971995,103.529181 178.917842,111.583333 L111.583333,178.917842 C103.529181,186.971995 90.4708193,186.971995 82.4166667,178.917842 L15.0821581,111.583333 C7.02800546,103.529181 7.02800546,90.4708193 15.0821581,82.4166667 Z" id="path-1"></path>
        <linearGradient x1="50%" y1="0%" x2="50%" y2="100%" id="linearGradient-3">
            <stop stop-color="#4E4E57" offset="0%"></stop>
            <stop stop-color="#2E2E34" offset="100%"></stop>
        </linearGradient>
        <path d="M104.257194,6.61331853 L172.389032,74.7451561 C180.538556,82.8946805 180.538556,96.1076701 172.389032,104.257194 L104.257194,172.389032 C96.1076701,180.538556 82.8946805,180.538556 74.7451561,172.389032 L6.61331853,104.257194 C-1.53620581,96.1076701 -1.53620581,82.8946805 6.61331853,74.7451561 L74.7451561,6.61331853 C82.8946805,-1.53620581 96.1076701,-1.53620581 104.257194,6.61331853 Z M100.679795,10.1907178 C94.5942107,4.10513339 84.7815446,4.01819647 78.5894722,9.92990704 L78.3225554,10.1907178 L10.1907178,78.3225554 C4.10513339,84.4081398 4.01819647,94.2208059 9.92990704,100.412878 L10.1907178,100.679795 L78.3225554,168.811633 C84.4081398,174.897217 94.2208059,174.984154 100.412878,169.072444 L100.679795,168.811633 L168.811633,100.679795 C174.897217,94.5942107 174.984154,84.7815446 169.072444,78.5894722 L168.811633,78.3225554 L100.679795,10.1907178 Z" id="path-4"></path>
        <filter x="-20.7%" y="-30.8%" width="141.4%" height="161.5%" filterUnits="objectBoundingBox" id="filter-6">
            <feOffset dx="0" dy="2" in="SourceAlpha" result="shadowOffsetOuter1"></feOffset>
            <feGaussianBlur stdDeviation="2" in="shadowOffsetOuter1" result="shadowBlurOuter1"></feGaussianBlur>
            <feColorMatrix values="0 0 0 0 0   0 0 0 0 0   0 0 0 0 0  0 0 0 0.1 0" type="matrix" in="shadowBlurOuter1" result="shadowMatrixOuter1"></feColorMatrix>
            <feMerge>
                <feMergeNode in="shadowMatrixOuter1"></feMergeNode>
                <feMergeNode in="SourceGraphic"></feMergeNode>
            </feMerge>
        </filter>
        <polygon id="path-7" points="0 0.0428318777 57.9079271 0.0428318777 57.9079271 38.9127183 0 38.9127183"></polygon>
        <linearGradient x1="50%" y1="-7.83969624%" x2="50%" y2="136.746848%" id="linearGradient-9">
            <stop stop-color="#FFD70F" offset="0%"></stop>
            <stop stop-color="#EEB309" offset="34%"></stop>
            <stop stop-color="#DC8C03" offset="77%"></stop>
            <stop stop-color="#D57D01" offset="100%"></stop>
        </linearGradient>
        <path d="M0,7.99994261 C0,12.4182753 3.58172466,16 7.99994261,16 L7.99994261,16 C12.4181606,16 16,12.4182753 16,7.99994261 L16,7.99994261 L7.99994261,7.99994261 L7.99994261,0 C3.58172466,0 0,3.58160989 0,7.99994261 L0,7.99994261 Z" id="path-10"></path>
        <path d="M0,8 L9,8 C9,3.58168837 4.97060059,0 0,0 L0,0 L0,8 Z" id="path-12"></path>
        <linearGradient x1="5.22955744e-05%" y1="0.0534391931%" x2="5.22955744e-05%" y2="129.567582%" id="linearGradient-14">
            <stop stop-color="#FFE256" offset="0%"></stop>
            <stop stop-color="#EECB22" offset="100%"></stop>
        </linearGradient>
        <linearGradient x1="5.22955744e-05%" y1="0.0534391931%" x2="5.22955744e-05%" y2="129.567582%" id="linearGradient-15">
            <stop stop-color="#FFE256" offset="0%"></stop>
            <stop stop-color="#EECB22" offset="100%"></stop>
        </linearGradient>
        <linearGradient x1="5.22955744e-05%" y1="0.0534391931%" x2="5.22955744e-05%" y2="129.567582%" id="linearGradient-16">
            <stop stop-color="#FFE256" offset="0%"></stop>
            <stop stop-color="#EECB22" offset="100%"></stop>
        </linearGradient>
        <linearGradient x1="-11.0292377%" y1="10.1000237%" x2="100%" y2="50%" id="linearGradient-17">
            <stop stop-color="#F3C900" offset="0%"></stop>
            <stop stop-color="#DBB70C" offset="100%"></stop>
        </linearGradient>
        <path d="M45,48.537037 L45,43.3518519 L39.7004132,41.5 L38.3987603,37.9814815 L41.0020661,32.5185185 L41.0020661,31.962963 L39.3285124,30.2962963 L37.3760331,28.0740741 L36.6322314,28.0740741 L31.4256198,30.8518519 L27.892562,29.8333333 L25.5681818,24 L20.4545455,24 L18.6880165,29.2777778 L14.7830579,30.8518519 L8.73966942,27.9814815 L5.11363636,31.5925926 L5.11363636,32.2407407 L7.80991736,37.4259259 L6.22933884,41.3148148 L0,43.6296296 L0,48.8148148 L0.743801653,48.8148148 L6.22933884,50.6666667 L7.71694215,54.1851852 L4.92768595,60.2037037 L8.55371901,63.9074074 L9.29752066,63.9074074 L14.411157,61.3148148 L18.0371901,62.7962963 L20.268595,69 L25.4752066,69 L25.4752066,68.2592593 L27.2417355,62.7037037 L30.7747934,61.2222222 L36.911157,64.0925926 L40.5371901,60.4814815 L40.5371901,59.7407407 L37.9338843,54.5555556 L38.9566116,50.9444444 L45,48.537037 Z M22.8729075,52.9279723 C18.9989194,52.5120134 16.0714286,49.3994125 16.0714286,45.6964247 C16.0714286,41.9934369 18.9989194,38.880836 22.8729075,38.4648771 C24.8960716,38.4402389 26.8453172,39.1863883 28.2851114,40.5366081 C29.7249056,41.886828 30.5352498,43.7285853 30.5350835,45.6503639 L30.5350835,45.6503639 C30.5614106,47.5880633 29.7626049,49.4537158 28.3199216,50.8239902 C26.8772383,52.1942647 24.9129999,52.9529781 22.8729075,52.9279723 Z" id="path-18"></path>
        <filter x="0.0%" y="0.0%" width="100.0%" height="100.0%" filterUnits="objectBoundingBox" id="filter-19">
            <feOffset dx="0" dy="0" in="SourceAlpha" result="shadowOffsetOuter1"></feOffset>
            <feColorMatrix values="0 0 0 0 0   0 0 0 0 0   0 0 0 0 0  0 0 0 0.1 0" type="matrix" in="shadowOffsetOuter1"></feColorMatrix>
        </filter>
        <linearGradient x1="-11.0292377%" y1="10.1000237%" x2="100%" y2="50%" id="linearGradient-20">
            <stop stop-color="#F3C900" offset="0%"></stop>
            <stop stop-color="#FCE162" offset="100%"></stop>
        </linearGradient>
        <path d="M133.5,52.3539095 L133.5,46.3621399 L127.376033,44.2222222 L125.871901,40.1563786 L128.880165,33.8436214 L128.880165,33.2016461 L126.946281,31.2757202 L124.690083,28.7078189 L123.830579,28.7078189 L117.81405,31.9176955 L113.731405,30.7407407 L111.045455,24 L105.136364,24 L103.095041,30.0987654 L98.5826446,31.9176955 L91.5991736,28.600823 L87.4090909,32.7736626 L87.4090909,33.5226337 L90.5247934,39.5144033 L88.6983471,44.0082305 L81.5,46.6831276 L81.5,52.6748971 L82.3595041,52.6748971 L88.6983471,54.8148148 L90.4173554,58.8806584 L87.1942149,65.8353909 L91.3842975,70.1152263 L92.2438017,70.1152263 L98.1528926,67.1193416 L102.342975,68.8312757 L104.921488,76 L110.938017,76 L110.938017,75.1440329 L112.979339,68.7242798 L117.061983,67.0123457 L124.152893,70.3292181 L128.342975,66.1563786 L128.342975,65.3004115 L125.334711,59.308642 L126.516529,55.1358025 L133.5,52.3539095 Z M107.930915,57.4278792 C103.454307,56.9472155 100.071429,53.3504322 100.071429,49.0714241 C100.071429,44.792416 103.454307,41.1956327 107.930915,40.7149691 C110.268794,40.6864983 112.521255,41.5487153 114.185018,43.1089694 C115.84878,44.6692235 116.785178,46.7974763 116.784985,49.0181983 L116.784985,49.0181983 C116.815408,51.2573175 115.892343,53.4131827 114.225243,54.9966109 C112.558142,56.5800392 110.288355,57.4567746 107.930915,57.4278792 Z" id="path-21"></path>
        <filter x="0.0%" y="0.0%" width="100.0%" height="100.0%" filterUnits="objectBoundingBox" id="filter-22">
            <feOffset dx="0" dy="0" in="SourceAlpha" result="shadowOffsetOuter1"></feOffset>
            <feColorMatrix values="0 0 0 0 0   0 0 0 0 0   0 0 0 0 0  0 0 0 0.1 0" type="matrix" in="shadowOffsetOuter1"></feColorMatrix>
        </filter>
        <linearGradient x1="50%" y1="100%" x2="50%" y2="0%" id="linearGradient-23">
            <stop stop-color="#D2EBFF" offset="0%"></stop>
            <stop stop-color="#F0FFFD" offset="100%"></stop>
        </linearGradient>
        <linearGradient x1="50%" y1="100%" x2="50%" y2="0%" id="linearGradient-24">
            <stop stop-color="#CCCCCC" offset="15%"></stop>
            <stop stop-color="#707070" offset="100%"></stop>
        </linearGradient>
    </defs>
    <g id="Badges" stroke="none" stroke-width="1" fill="none" fill-rule="evenodd">
        <g id="Use-DAX-in-Power-BI-Desktop" transform="translate(-113.000000, -33.000000)">
            <g id="Use-DAX-in-Power-BI-Desktop/use-dax-in-power-bi-desktop" transform="translate(141.000000, 80.000000)">
                <g id="Trophy-Plates/Diamond" transform="translate(19.000000, 0.000000)">
                    <g id="BG" transform="translate(-47.000000, -47.000000)">
                        <mask id="mask-2" fill="white">
                            <use xlink:href="#path-1"></use>
                        </mask>
                        <path stroke="#FFFFFF" stroke-width="5" d="M113.3511,13.3143911 C108.835869,8.79915944 102.917934,6.54154361 97,6.54154361 C91.0820657,6.54154361 85.1641314,8.79915944 80.6488997,13.3143911 L13.3143911,80.6488997 C8.79915944,85.1641314 6.54154361,91.0820657 6.54154361,97 C6.54154361,102.917934 8.79915944,108.835869 13.3143911,113.3511 L80.6488997,180.685609 C85.1641314,185.200841 91.0820657,187.458456 97,187.458456 C102.917934,187.458456 108.835869,185.200841 113.3511,180.685609 L180.685609,113.3511 C185.200841,108.835869 187.458456,102.917934 187.458456,97 C187.458456,91.0820657 185.200841,85.1641314 180.685609,80.6488997 L113.3511,13.3143911 Z"></path>
                        <g id="Colors/Power-BI/BG-Gradient-3" mask="url(#mask-2)" fill="url(#linearGradient-3)">
                            <g transform="translate(0.498825, 0.498825)" id="Rectangle">
                                <rect x="0" y="0" width="193.002351" height="193.002351"></rect>
                            </g>
                        </g>
                    </g>
                    <g id="Border" transform="translate(-39.501175, -39.501175)">
                        <mask id="mask-5" fill="white">
                            <use xlink:href="#path-4"></use>
                        </mask>
                        <use fill="#000000" fill-rule="nonzero" xlink:href="#path-4"></use>
                        <g id="Colors/Power-BI/Border" mask="url(#mask-5)" fill="#F3C900">
                            <g transform="translate(-7.000000, -7.000000)" id="Rectangle">
                                <rect x="0" y="0" width="193.002351" height="193.002351"></rect>
                            </g>
                        </g>
                    </g>
                </g>
                <g id="Computer-w/-data" filter="url(#filter-6)" transform="translate(40.000000, 4.000000)">
                    <g id="Group-17">
                        <g id="Group-7">
                            <g id="Group-3">
                                <mask id="mask-8" fill="white">
                                    <use xlink:href="#path-7"></use>
                                </mask>
                                <g id="Clip-2"></g>
                                <path d="M1.91763557,0.0428318777 L55.990207,0.0428318777 C57.0494257,0.0428318777 57.9079271,0.907473799 57.9079271,1.97426856 L57.9079271,36.9812817 C57.9079271,38.0480764 57.0494257,38.9127183 55.990207,38.9127183 L1.91763557,38.9127183 C0.858586006,38.9127183 -8.4548105e-05,38.0480764 -8.4548105e-05,36.9812817 L-8.4548105e-05,1.97426856 C-8.4548105e-05,0.907473799 0.858586006,0.0428318777 1.91763557,0.0428318777" id="Fill-1" fill="url(#linearGradient-9)" mask="url(#mask-8)"></path>
                            </g>
                        </g>
                    </g>
                    <g id="Group-11" transform="translate(34.000000, 13.000000)">
                        <mask id="mask-11" fill="white">
                            <use xlink:href="#path-10"></use>
                        </mask>
                        <g id="Clip-10"></g>
                        <polygon id="Fill-9" fill="#FFFFFF" mask="url(#mask-11)" points="-1 17 17 17 17 -1 -1 -1"></polygon>
                    </g>
                    <g id="Group-14" transform="translate(45.000000, 10.000000)">
                        <mask id="mask-13" fill="white">
                            <use xlink:href="#path-12"></use>
                        </mask>
                        <g id="Clip-13"></g>
                        <polygon id="Fill-12" fill="#FFE256" mask="url(#mask-13)" points="-1 9 8 9 8 0 -1 0"></polygon>
                    </g>
                    <g id="Computer" transform="translate(6.000000, 7.000000)" fill-rule="nonzero">
                        <rect id="Rectangle" fill="#FFFFFF" x="0" y="0" width="21" height="3" rx="1.5"></rect>
                        <rect id="Rectangle" fill="#FFFFFF" x="0" y="7" width="13" height="3" rx="1.5"></rect>
                        <rect id="Rectangle" fill="url(#linearGradient-14)" x="0" y="20" width="5" height="5"></rect>
                        <rect id="Rectangle" fill="url(#linearGradient-15)" x="9" y="15" width="5" height="10"></rect>
                        <rect id="Rectangle" fill="url(#linearGradient-16)" x="18" y="10" width="5" height="15"></rect>
                    </g>
                </g>
                <g id="Shape" fill-rule="nonzero">
                    <use fill="black" fill-opacity="1" filter="url(#filter-19)" xlink:href="#path-18"></use>
                    <use fill="url(#linearGradient-17)" xlink:href="#path-18"></use>
                </g>
                <g id="Shape" fill-rule="nonzero">
                    <use fill="black" fill-opacity="1" filter="url(#filter-22)" xlink:href="#path-21"></use>
                    <use fill="url(#linearGradient-20)" xlink:href="#path-21"></use>
                </g>
                <g id="Group" transform="translate(34.000000, 34.686441)" fill-rule="nonzero">
                    <g id="Computer">
                        <rect id="Rectangle" fill="url(#linearGradient-23)" x="0" y="0" width="70" height="48.6440678" rx="0.6"></rect>
                        <path d="M49.8699972,63.5271077 C42.8304784,62.3791046 42.5536434,57.1310905 42.5536434,48.6440678 L28.5932494,48.6440678 C28.5932494,57.1310905 28.3559623,62.3791046 21.3164435,63.5271077 C19.3037148,63.7580002 17.7843996,65.5277828 17.7966102,67.6271186 L53.3898305,67.6271186 C53.402041,65.5277828 51.8827258,63.7580002 49.8699972,63.5271077 Z" id="Path" fill="url(#linearGradient-24)"></path>
                    </g>
                    <path d="M19.8961482,40.4169235 C21.4758654,40.4169235 22.8771331,40.0044418 24.0999512,39.1794784 C25.3227694,38.354515 26.3905412,37.081965 27.3032667,35.3618285 C28.2159922,33.6416919 29.1521209,30.8684106 30.1116529,27.0419845 L30.1116529,27.0419845 L32.1652852,18.9327695 L34.6401755,18.9327695 L35.25451,16.8791371 L32.70941,16.8791371 C33.4349098,13.91863 34.3944417,11.7538324 35.5880059,10.3847441 C36.3135056,9.53052666 37.0214529,9.10341793 37.7118479,9.10341793 C37.8522672,9.10341793 37.9663579,9.14437356 38.0541199,9.22628482 C38.141882,9.30819608 38.185763,9.41351057 38.185763,9.54222826 C38.185763,9.65924435 38.0892248,9.88157492 37.8961482,10.20922 C37.7030717,10.536865 37.6065334,10.8469577 37.6065334,11.1394979 C37.6065334,11.5490542 37.7586543,11.9001025 38.0628961,12.1926427 C38.367138,12.4851829 38.7532911,12.631453 39.2213554,12.631453 C39.7245246,12.631453 40.1457825,12.4530035 40.4851292,12.0961044 C40.8244759,11.7392053 40.9941492,11.256514 40.9941492,10.6480303 C40.9941492,9.95763538 40.7396392,9.39595815 40.2306192,8.96299862 C39.7215992,8.53003909 38.905412,8.31355932 37.7820575,8.31355932 C36.0268162,8.31355932 34.4353974,8.82843012 33.0078011,9.85817171 C31.5802048,10.8879133 30.2228181,12.5904974 28.9356412,14.965924 C28.49098,15.7850367 28.0697221,16.3116091 27.6718674,16.5456412 C27.2740127,16.7796734 26.636275,16.8908387 25.7586543,16.8791371 L25.7586543,16.8791371 L25.1794247,18.9327695 L27.6192101,18.9327695 L24.0385178,32.9571478 C23.4417357,35.2623648 23.0380302,36.6841103 22.8274013,37.2223843 C22.5231594,38.0063921 22.0609459,38.6733838 21.4407606,39.2233594 C21.1950268,39.44569 20.8966358,39.5568553 20.5455875,39.5568553 C20.4519746,39.5568553 20.3700634,39.5276013 20.2998537,39.4690932 L20.2998537,39.4690932 L20.2120917,39.3462263 C20.2120917,39.2877183 20.2998537,39.1677768 20.4753779,38.9864018 C20.650902,38.8050269 20.7386641,38.5271137 20.7386641,38.1526622 C20.7386641,37.7431059 20.5982448,37.4037592 20.3174061,37.1346222 C20.0365675,36.8654852 19.632862,36.7309167 19.1062896,36.7309167 C18.4744027,36.7309167 17.9653827,36.9064408 17.5792296,37.2574891 C17.1930765,37.6085374 17,38.0239445 17,38.5037105 C17,39.0185813 17.2340322,39.4661678 17.7020965,39.8464701 C18.1701609,40.2267724 18.9015115,40.4169235 19.8961482,40.4169235 Z M46.4529498,33.1502244 C47.1784495,33.1502244 47.9156509,32.8869382 48.6645539,32.3603658 C49.647489,31.6816724 50.6538274,30.5115115 51.683569,28.8498831 L51.683569,28.8498831 L51.0516821,28.4812824 C50.3495856,29.4642175 49.828864,30.078552 49.4895173,30.3242858 C49.2671867,30.4764067 49.0039005,30.5524672 48.6996587,30.5524672 C48.3369088,30.5524672 47.9800098,30.3242858 47.6289615,29.867923 C47.0321794,29.0956169 46.23647,26.9542224 45.2418333,23.4437397 C46.1311555,21.8757241 46.8800585,20.8518333 47.4885422,20.3720674 C47.9332033,20.0210191 48.4012677,19.845495 48.8927353,19.845495 C49.079961,19.845495 49.4163823,19.9127792 49.901999,20.0473477 C50.3876158,20.1819162 50.8176499,20.2492005 51.1921014,20.2492005 C51.7069722,20.2492005 52.1370063,20.0707509 52.4822038,19.7138519 C52.8274013,19.3569528 53,18.8976646 53,18.3359874 C53,17.7392053 52.8274013,17.2652902 52.4822038,16.9142419 C52.1370063,16.5631936 51.6426134,16.3876695 50.9990249,16.3876695 C50.425646,16.3876695 49.8844466,16.5251634 49.3754266,16.8001512 C48.8664066,17.075139 48.2198927,17.6689957 47.4358849,18.5817212 C46.8508045,19.2604145 45.9848854,20.4481278 44.8381277,22.1448611 C44.381765,20.0502731 43.5977572,18.1312092 42.4861043,16.3876695 L42.4861043,16.3876695 L36.360312,17.4408143 L36.2374451,18.107806 C36.6938079,18.0141932 37.079961,17.9673867 37.3959044,17.9673867 C38.0043881,17.9673867 38.5075573,18.2306729 38.905412,18.7572453 C39.5372989,19.576358 40.4149196,22.0688007 41.538274,26.2345735 C40.6606533,27.416436 40.0580205,28.1887422 39.7303754,28.551492 C39.1921014,29.1365725 38.7474403,29.5168748 38.396392,29.6923989 C38.127255,29.8328182 37.8230132,29.9030279 37.4836665,29.9030279 C37.2262311,29.9030279 36.8049732,29.7626086 36.2198927,29.48177 C35.822038,29.2945442 35.465139,29.2009313 35.1491955,29.2009313 C34.5524135,29.2009313 34.0609459,29.3940079 33.6747928,29.780161 C33.2886397,30.1663141 33.0955631,30.6577817 33.0955631,31.2545637 C33.0955631,31.8162409 33.2740127,32.2726037 33.6309118,32.623652 C33.9878108,32.9747002 34.4705022,33.1502244 35.0789859,33.1502244 C35.6640663,33.1502244 36.2140419,33.0273575 36.7289127,32.7816237 C37.2437835,32.5358899 37.8902974,32.0122429 38.6684544,31.2106827 C39.4466114,30.4091225 40.520234,29.1365725 41.8893223,27.3930327 C42.4158947,29.0546612 42.8722574,30.2628523 43.2584105,31.0176061 C43.6445636,31.7723599 44.0862994,32.3164847 44.5836177,32.6499806 C45.0809361,32.9834764 45.7040468,33.1502244 46.4529498,33.1502244 Z" id="fx" fill="#333238"></path>
                </g>
            </g>
        </g>
    </g>
</svg>