<?xml version="1.0" encoding="UTF-8"?>
<svg width="100px" height="100px" viewBox="0 0 100 100" version="1.1" xmlns="http://www.w3.org/2000/svg" xmlns:xlink="http://www.w3.org/1999/xlink">
    <!-- Generator: Sketch 53 (72520) - https://sketchapp.com -->
    <title>NA/introduction-to-integration-with-dynamics-365-for-customer-engagement</title>
    <desc>Created with Sketch.</desc>
    <defs>
        <rect id="path-1" x="0" y="0" width="96" height="96" rx="48"></rect>
        <filter x="-9.1%" y="-6.9%" width="118.2%" height="113.8%" filterUnits="objectBoundingBox" id="filter-3">
            <feOffset dx="0" dy="2" in="SourceAlpha" result="shadowOffsetOuter1"></feOffset>
            <feColorMatrix values="0 0 0 0 0   0 0 0 0 0   0 0 0 0 0  0 0 0 0.1 0" type="matrix" in="shadowOffsetOuter1" result="shadowMatrixOuter1"></feColorMatrix>
            <feMerge>
                <feMergeNode in="shadowMatrixOuter1"></feMergeNode>
                <feMergeNode in="SourceGraphic"></feMergeNode>
            </feMerge>
        </filter>
        <filter x="-16.7%" y="-9.3%" width="133.3%" height="118.6%" filterUnits="objectBoundingBox" id="filter-4">
            <feOffset dx="0" dy="2" in="SourceAlpha" result="shadowOffsetOuter1"></feOffset>
            <feColorMatrix values="0 0 0 0 0   0 0 0 0 0   0 0 0 0 0  0 0 0 0.0996659873 0" type="matrix" in="shadowOffsetOuter1" result="shadowMatrixOuter1"></feColorMatrix>
            <feMerge>
                <feMergeNode in="shadowMatrixOuter1"></feMergeNode>
                <feMergeNode in="SourceGraphic"></feMergeNode>
            </feMerge>
        </filter>
    </defs>
    <g id="Badges" stroke="none" stroke-width="1" fill="none" fill-rule="evenodd">
        <g id="N/A-6" transform="translate(-50.000000, -460.000000)">
            <g id="NA/introduction-to-integration-with-dynamics-365-for-customer-engagement" transform="translate(50.000000, 460.000000)">
                <g id="Mask" transform="translate(2.000000, 2.000000)">
                    <mask id="mask-2" fill="white">
                        <use xlink:href="#path-1"></use>
                    </mask>
                    <use id="BG" fill="#01B6C3" xlink:href="#path-1"></use>
                    <g id="Clipboard-Check" filter="url(#filter-3)" mask="url(#mask-2)">
                        <g transform="translate(22.000000, 15.000000)">
                            <path d="M3.57723577,58 C1.6097561,58 0,56.3333333 0,54.2962963 L0,8 C0,5.96296296 1.6097561,4.2962963 3.57723577,4.2962963 L39.3495935,4.2962963 C41.3170732,4.2962963 42.9268293,5.96296296 42.9268293,8 L42.9268293,54.2962963 C42.9268293,56.3333333 41.3170732,58 39.3495935,58 L3.57723577,58" id="Fill-18" fill="#30404D" fill-rule="evenodd"></path>
                            <path d="M40.2439024,4.2962963 L21.4634146,4.2962963 L21.4634146,58 L40.2439024,58 C42.3097561,58 44,56.3333333 44,54.2962963 L44,8 C44,5.96296296 42.3097561,4.2962963 40.2439024,4.2962963" id="Fill-19" fill="#182A37" fill-rule="evenodd"></path>
                            <path d="M3.2195122,52.960114 L3.2195122,9.33618234 C3.2195122,8.3355584 4.02439024,7.51851852 5.00813008,7.51851852 L38.9918699,7.51851852 C39.9756098,7.51851852 40.7804878,8.3355584 40.7804878,9.33618234 L40.7804878,52.960114 C40.7804878,53.9607379 39.9756098,54.7777778 38.9918699,54.7777778 L5.00813008,54.7777778 C4.02439024,54.7777778 3.2195122,53.9607379 3.2195122,52.960114 Z" id="Fill-20" fill="#FFFFFF" fill-rule="evenodd"></path>
                            <path d="M11.2682927,50.4814815 C8.60105066,50.4814815 6.43902439,48.3172635 6.43902439,45.6481481 C6.43902439,42.9790328 8.60105066,40.8148148 11.2682927,40.8148148 C13.9355347,40.8148148 16.097561,42.9790328 16.097561,45.6481481 C16.097561,48.3172635 13.9355347,50.4814815 11.2682927,50.4814815 Z" id="Fill-25" fill="#E1E4E1" fill-rule="evenodd"></path>
                            <g id="Group-70" stroke-width="1" fill="none" fill-rule="evenodd" transform="translate(6.439024, 27.925926)">
                                <path d="M4.92069874,9.62085742 C2.33428223,9.62085742 0.237771907,7.52222183 0.237771907,4.93398873 C0.237771907,2.34575563 2.33428223,0.247120047 4.92069874,0.247120047 C7.50711525,0.247120047 9.60362557,2.34575563 9.60362557,4.93398873 C9.60362557,7.52222183 7.50711525,9.62085742 4.92069874,9.62085742 Z" id="Fill-25" fill="#7CB65A"></path>
                                <path d="M7.07188418,3.63390332 C6.84312426,3.40511601 6.47201182,3.40511601 6.24354481,3.63390332 L4.31270565,5.56497368 L3.61529545,4.87363174 C3.59859978,4.85019642 3.58161121,4.8267611 3.56022904,4.80566932 C3.33146912,4.576882 2.96035668,4.576882 2.73188967,4.80566932 C2.50518009,5.03152721 2.50371556,5.39770408 2.72573863,5.62707728 L2.71870888,5.63410787 L3.9002934,6.80587387 C4.12905332,7.03466118 4.50016576,7.03466118 4.72892568,6.80587387 L7.07012674,4.46380659 C7.07071255,4.46351364 7.07129837,4.46292776 7.07188418,4.46234188 C7.3006441,4.23355457 7.3006441,3.86210475 7.07188418,3.63390332" id="Fill-26" fill="#FFFFFF"></path>
                            </g>
                            <g id="Group-70" stroke-width="1" fill="none" fill-rule="evenodd" transform="translate(6.439024, 15.037037)">
                                <path d="M4.92069874,9.62085742 C2.33428223,9.62085742 0.237771907,7.52222183 0.237771907,4.93398873 C0.237771907,2.34575563 2.33428223,0.247120047 4.92069874,0.247120047 C7.50711525,0.247120047 9.60362557,2.34575563 9.60362557,4.93398873 C9.60362557,7.52222183 7.50711525,9.62085742 4.92069874,9.62085742 Z" id="Fill-25" fill="#7CB65A"></path>
                                <path d="M7.07188418,3.63390332 C6.84312426,3.40511601 6.47201182,3.40511601 6.24354481,3.63390332 L4.31270565,5.56497368 L3.61529545,4.87363174 C3.59859978,4.85019642 3.58161121,4.8267611 3.56022904,4.80566932 C3.33146912,4.576882 2.96035668,4.576882 2.73188967,4.80566932 C2.50518009,5.03152721 2.50371556,5.39770408 2.72573863,5.62707728 L2.71870888,5.63410787 L3.9002934,6.80587387 C4.12905332,7.03466118 4.50016576,7.03466118 4.72892568,6.80587387 L7.07012674,4.46380659 C7.07071255,4.46351364 7.07129837,4.46292776 7.07188418,4.46234188 C7.3006441,4.23355457 7.3006441,3.86210475 7.07188418,3.63390332" id="Fill-26" fill="#FFFFFF"></path>
                            </g>
                            <rect id="Rectangle" fill="#E1E4E1" fill-rule="nonzero" x="20.3902439" y="16.1111111" width="17.1707317" height="3.22222222" rx="1.61111111"></rect>
                            <rect id="Rectangle" fill="#E1E4E1" fill-rule="nonzero" x="20.3902439" y="31.1481481" width="15.0243902" height="3.22222222" rx="1.61111111"></rect>
                            <rect id="Rectangle" fill="#E1E4E1" fill-rule="nonzero" x="20.3902439" y="23.6296296" width="17.1707317" height="3.22222222" rx="1.61111111"></rect>
                            <rect id="Rectangle" fill="#E1E4E1" fill-rule="nonzero" x="20.3902439" y="38.6666667" width="17.1707317" height="3.22222222" rx="1.61111111"></rect>
                            <rect id="Rectangle" fill="#E1E4E1" fill-rule="nonzero" x="20.3902439" y="46.1851852" width="11.804878" height="3.22222222" rx="1.61111111"></rect>
                            <g id="Top" stroke-width="1" fill="none" fill-rule="evenodd" transform="translate(13.951220, 0.000000)">
                                <path d="M16.5072567,9.84567901 L0.869626016,9.84567901 C0.391809524,9.84567901 0.000868757259,9.44290123 0.000868757259,8.95061728 L0.000868757259,9.84567901 C0.000868757259,10.337963 0.391809524,10.7407407 0.869626016,10.7407407 L16.5072567,10.7407407 C16.9850732,10.7407407 17.3760139,10.337963 17.3760139,9.84567901 L17.3760139,8.95061728 C17.3760139,9.44290123 16.9850732,9.84567901 16.5072567,9.84567901" id="Fill-22" fill="#546670"></path>
                                <path d="M8.68844135,1.79012346 C9.6466806,1.79012346 10.4259559,2.59299383 10.4259559,3.58024691 L6.95092683,3.58024691 C6.95092683,2.59299383 7.72933333,1.79012346 8.68844135,1.79012346 Z M16.5072567,3.58024691 L12.1634704,3.58024691 C12.1634704,1.60305556 10.6075261,0 8.68844135,0 C6.76935656,0 5.21341231,1.60305556 5.21341231,3.58024691 L0.869626016,3.58024691 C0.391809524,3.58024691 0.000868757259,3.98302469 0.000868757259,4.47530864 L0.000868757259,8.95061728 C0.000868757259,9.44290123 0.391809524,9.84567901 0.869626016,9.84567901 L16.5072567,9.84567901 C16.9850732,9.84567901 17.3760139,9.44290123 17.3760139,8.95061728 L17.3760139,4.47530864 C17.3760139,3.98302469 16.9850732,3.58024691 16.5072567,3.58024691 L16.5072567,3.58024691 Z" id="Fill-24" fill="#ADBDC4"></path>
                                <path d="M17.3760139,8.95061728 L17.3760139,4.47530864 C17.3760139,3.98302469 16.9850732,3.58024691 16.5072567,3.58024691 L13.0322276,3.58024691 L10.4259559,9.84567901 L16.5072567,9.84567901 C16.9850732,9.84567901 17.3760139,9.44290123 17.3760139,8.95061728" id="Fill-33" fill="#8BA6B1"></path>
                                <path d="M9.28354007,0.0617592593 L8.55899652,1.80354938 C8.60243438,1.79996914 8.64413473,1.79012346 8.68844135,1.79012346 C9.6466806,1.79012346 10.4259559,2.59299383 10.4259559,3.58024691 L7.81968409,3.58024691 L5.21341231,9.84567901 L8.68844135,9.84567901 L11.8811243,2.16962963 C11.4250267,1.0758642 10.4537561,0.271203704 9.28354007,0.0617592593" id="Fill-34" fill="#8BA6B1"></path>
                            </g>
                        </g>
                    </g>
                    <g id="Phone" filter="url(#filter-4)" mask="url(#mask-2)">
                        <g transform="translate(51.000000, 34.000000)">
                            <g id="Phone-Body">
                                <rect id="Rectangle" fill="#3E5162" fill-rule="nonzero" x="0" y="0" width="24" height="43" rx="2"></rect>
                                <path d="M12,0 L21.9052422,0 C23.0098117,-2.02906125e-16 23.9052422,0.8954305 23.9052422,2 L23.9052422,41 C23.9052422,42.1045695 23.0098117,43 21.9052422,43 L12,43 L12,0 Z" id="Rectangle" fill="#30404D" fill-rule="nonzero"></path>
                                <ellipse id="Oval" fill="#30404D" fill-rule="nonzero" cx="12" cy="39.7424242" rx="1.89473684" ry="1.95454545"></ellipse>
                            </g>
                            <g id="Phone-BG" transform="translate(2.086957, 3.225000)">
                                <rect id="Rectangle" fill="#FFFFFE" fill-rule="nonzero" x="0" y="0" width="19.826087" height="33.325"></rect>
                                <rect id="Rectangle" fill="#546670" fill-rule="nonzero" x="0" y="0" width="19.826087" height="2.61372549"></rect>
                                <rect id="Rectangle" fill="#435665" fill-rule="nonzero" x="9.91304348" y="0" width="9.91304348" height="2.61372549"></rect>
                            </g>
                            <g id="Text" transform="translate(5.217391, 8.600000)">
                                <rect id="Rectangle" fill="#E1E4E1" fill-rule="nonzero" x="0" y="0" width="13.5652174" height="2.15" rx="1.075"></rect>
                                <rect id="Rectangle" fill="#E1E4E1" fill-rule="nonzero" x="0" y="4.3" width="13.5652174" height="2.15" rx="1.075"></rect>
                            </g>
                            <g id="Graph" transform="translate(5.217391, 17.200000)">
                                <g id="Bar-Graph---1" transform="translate(0.000000, 0.473563)">
                                    <path d="M0,0.601437259 L0,15.0494373 C0,15.3817413 0.699875776,15.6514373 1.56521739,15.6514373 C2.43055901,15.6514373 3.13043478,15.3817413 3.13043478,15.0494373 L3.13043478,0.601437259 L0,0.601437259 L0,0.601437259 Z" id="Fill-878" fill="#33A7CB"></path>
                                    <path d="M2.08695652,15.6514373 C2.66385093,15.6514373 3.13043478,15.3817413 3.13043478,15.0494373 L3.13043478,0.601437259 L2.08695652,0.601437259 L2.08695652,15.6514373 Z" id="Fill-883" fill="#0095B2"></path>
                                    <path d="M3.13043478,0.5375 C3.13043478,0.8342 2.43055901,1.075 1.56521739,1.075 C0.699875776,1.075 0,0.8342 0,0.5375 C0,0.24053125 0.699875776,0 1.56521739,0 C2.43055901,0 3.13043478,0.24053125 3.13043478,0.5375" id="Fill-884" fill="#55B7D9"></path>
                                </g>
                            </g>
                            <g id="Graph" transform="translate(10.434783, 23.650000)">
                                <g id="Bar-Graph---1" transform="translate(0.000000, 0.473563)">
                                    <path d="M0,0.601437259 L0,8.82962677 C0,9.01887513 0.699875776,9.172468 1.56521739,9.172468 C2.43055901,9.172468 3.13043478,9.01887513 3.13043478,8.82962677 L3.13043478,0.601437259 L0,0.601437259 L0,0.601437259 Z" id="Fill-878" fill="#C2423D"></path>
                                    <path d="M2.08695652,9.172468 C2.66385093,9.172468 3.13043478,9.01887513 3.13043478,8.82962677 L3.13043478,0.601437259 L2.08695652,0.601437259 L2.08695652,9.172468 Z" id="Fill-883" fill="#AB3B37"></path>
                                    <path d="M3.13043478,0.5375 C3.13043478,0.8342 2.43055901,1.075 1.56521739,1.075 C0.699875776,1.075 0,0.8342 0,0.5375 C0,0.24053125 0.699875776,0 1.56521739,0 C2.43055901,0 3.13043478,0.24053125 3.13043478,0.5375" id="Fill-884" fill="#DF5142"></path>
                                </g>
                            </g>
                            <g id="Graph" transform="translate(15.652174, 19.350000)">
                                <g id="Bar-Graph---1" transform="translate(0.000000, 0.473563)">
                                    <path d="M0,0.601437259 L0,12.9302581 C0,13.213821 0.699875776,13.443959 1.56521739,13.443959 C2.43055901,13.443959 3.13043478,13.213821 3.13043478,12.9302581 L3.13043478,0.601437259 L0,0.601437259 L0,0.601437259 Z" id="Fill-878" fill="#69994E"></path>
                                    <path d="M2.08695652,13.443959 C2.66385093,13.443959 3.13043478,13.213821 3.13043478,12.9302581 L3.13043478,0.601437259 L2.08695652,0.601437259 L2.08695652,13.443959 Z" id="Fill-883" fill="#598844"></path>
                                    <path d="M3.13043478,0.5375 C3.13043478,0.8342 2.43055901,1.075 1.56521739,1.075 C0.699875776,1.075 0,0.8342 0,0.5375 C0,0.24053125 0.699875776,0 1.56521739,0 C2.43055901,0 3.13043478,0.24053125 3.13043478,0.5375" id="Fill-884" fill="#7CB65A"></path>
                                </g>
                            </g>
                        </g>
                    </g>
                </g>
                <g id="Dynamic-Border" stroke="#1D8E96" stroke-width="4">
                    <rect id="Azure-Border" x="2" y="2" width="96" height="96" rx="48"></rect>
                </g>
            </g>
        </g>
    </g>
</svg>