<?xml version="1.0" encoding="UTF-8"?>
<svg width="100px" height="118px" viewBox="0 0 100 118" version="1.1" xmlns="http://www.w3.org/2000/svg" xmlns:xlink="http://www.w3.org/1999/xlink">
    <!-- Generator: Sketch 53.2 (72643) - https://sketchapp.com -->
    <title>Use basic formulas to make a better canvas app in PowerApps/use-basic-formulas-to-make-a-better-canvas-app-in-PowerApps</title>
    <desc>Created with Sketch.</desc>
    <defs>
        <path d="M42.7425,1.49663266 C44.3745,0.498877554 46.1865,0 48,0 C49.8135,0 51.627,0.498877554 53.256,1.49663266 L90.591,24.3316189 C93.933,26.3773408 96,30.2031485 96,34.3529027 L96,79.6470973 C96,83.7952317 93.933,87.6242789 90.591,89.6683811 L53.256,112.504987 C51.627,113.501122 49.8135,114 48,114 C46.1865,114 44.3745,113.501122 42.7425,112.504987 L5.409,89.6683811 C2.0655,87.6242789 0,83.7952317 0,79.6470973 L0,34.3529027 C0,30.2031485 2.0655,26.3773408 5.409,24.3316189 L42.7425,1.49663266 Z" id="path-1"></path>
        <filter x="-8.5%" y="-4.7%" width="117.1%" height="110.3%" filterUnits="objectBoundingBox" id="filter-3">
            <feOffset dx="0" dy="2" in="SourceAlpha" result="shadowOffsetOuter1"></feOffset>
            <feColorMatrix values="0 0 0 0 0   0 0 0 0 0   0 0 0 0 0  0 0 0 0.1 0" type="matrix" in="shadowOffsetOuter1" result="shadowMatrixOuter1"></feColorMatrix>
            <feMerge>
                <feMergeNode in="shadowMatrixOuter1"></feMergeNode>
                <feMergeNode in="SourceGraphic"></feMergeNode>
            </feMerge>
        </filter>
        <path d="M41.6942255,9.10563546 L41.6942255,52.2375929 C41.6942255,53.5555138 41.1478874,54.6338128 40.4801408,54.6338128 L6.48576842,54.6338128 C5.81802182,54.6338128 5.27168369,53.5555138 5.27168369,52.2375929 L5.27168369,9.10563546 L41.6942255,9.10563546" id="path-4"></path>
        <filter x="-2.7%" y="-2.2%" width="105.5%" height="108.8%" filterUnits="objectBoundingBox" id="filter-5">
            <feOffset dx="0" dy="2" in="SourceAlpha" result="shadowOffsetOuter1"></feOffset>
            <feColorMatrix values="0 0 0 0 0   0 0 0 0 0   0 0 0 0 0  0 0 0 0.1 0" type="matrix" in="shadowOffsetOuter1"></feColorMatrix>
        </filter>
        <rect id="path-6" x="0" y="0" width="3.3547078" height="11.0226113" rx="1.6773539"></rect>
        <filter x="-29.8%" y="-9.1%" width="159.6%" height="136.3%" filterUnits="objectBoundingBox" id="filter-7">
            <feOffset dx="0" dy="2" in="SourceAlpha" result="shadowOffsetOuter1"></feOffset>
            <feColorMatrix values="0 0 0 0 0   0 0 0 0 0   0 0 0 0 0  0 0 0 0.1 0" type="matrix" in="shadowOffsetOuter1"></feColorMatrix>
        </filter>
        <rect id="path-8" x="25.3999305" y="0" width="3.3547078" height="11.0226113" rx="1.6773539"></rect>
        <filter x="-29.8%" y="-9.1%" width="159.6%" height="136.3%" filterUnits="objectBoundingBox" id="filter-9">
            <feOffset dx="0" dy="2" in="SourceAlpha" result="shadowOffsetOuter1"></feOffset>
            <feColorMatrix values="0 0 0 0 0   0 0 0 0 0   0 0 0 0 0  0 0 0 0.1 0" type="matrix" in="shadowOffsetOuter1"></feColorMatrix>
        </filter>
        <filter x="-51.6%" y="-10.4%" width="206.5%" height="120.9%" filterUnits="objectBoundingBox" id="filter-10">
            <feOffset dx="0" dy="2" in="SourceAlpha" result="shadowOffsetOuter1"></feOffset>
            <feColorMatrix values="0 0 0 0 0   0 0 0 0 0   0 0 0 0 0  0 0 0 0.1 0" type="matrix" in="shadowOffsetOuter1" result="shadowMatrixOuter1"></feColorMatrix>
            <feMerge>
                <feMergeNode in="shadowMatrixOuter1"></feMergeNode>
                <feMergeNode in="SourceGraphic"></feMergeNode>
            </feMerge>
        </filter>
        <filter x="-12.5%" y="-13.8%" width="125.0%" height="127.5%" filterUnits="objectBoundingBox" id="filter-11">
            <feOffset dx="0" dy="2" in="SourceAlpha" result="shadowOffsetOuter1"></feOffset>
            <feColorMatrix values="0 0 0 0 0   0 0 0 0 0   0 0 0 0 0  0 0 0 0.101505888 0" type="matrix" in="shadowOffsetOuter1" result="shadowMatrixOuter1"></feColorMatrix>
            <feMerge>
                <feMergeNode in="shadowMatrixOuter1"></feMergeNode>
                <feMergeNode in="SourceGraphic"></feMergeNode>
            </feMerge>
        </filter>
        <path d="M12.4015576,10.2735932 L14.0028487,8.67246982 C14.4402906,8.23507373 15.1494869,8.23511087 15.586883,8.67255276 L17.1880064,10.2738439 C17.6254025,10.7112858 17.6253653,11.4204821 17.1879234,11.8578782 L15.5866323,13.4590016 C15.1491904,13.8963977 14.4399941,13.8963605 14.002598,13.4589187 L12.4014746,11.8576276 C11.9640785,11.4201857 11.9641157,10.7109893 12.4015576,10.2735932 L12.4015576,10.2735932 Z" id="path-12"></path>
        <filter x="-18.4%" y="-18.4%" width="136.7%" height="136.7%" filterUnits="objectBoundingBox" id="filter-13">
            <feOffset dx="-2" dy="-2" in="SourceAlpha" result="shadowOffsetInner1"></feOffset>
            <feComposite in="shadowOffsetInner1" in2="SourceAlpha" operator="arithmetic" k2="-1" k3="1" result="shadowInnerInner1"></feComposite>
            <feColorMatrix values="0 0 0 0 0   0 0 0 0 0   0 0 0 0 0  0 0 0 0.186056386 0" type="matrix" in="shadowInnerInner1"></feColorMatrix>
        </filter>
        <path d="M16.3827954,6.28625769 L17.9840865,4.68513427 C18.4215284,4.24773818 19.1307248,4.24777531 19.5681208,4.68521721 L21.1692443,6.28650831 C21.6066404,6.72395021 21.6066032,7.43314652 21.1691613,7.87054261 L19.5678702,9.47166604 C19.1304283,9.90906213 18.421232,9.90902499 17.9838359,9.4715831 L16.3827125,7.870292 C15.9453164,7.4328501 15.9453535,6.72365378 16.3827954,6.28625769 Z" id="path-14"></path>
        <filter x="-18.4%" y="-18.4%" width="136.7%" height="136.7%" filterUnits="objectBoundingBox" id="filter-15">
            <feOffset dx="-2" dy="-2" in="SourceAlpha" result="shadowOffsetInner1"></feOffset>
            <feComposite in="shadowOffsetInner1" in2="SourceAlpha" operator="arithmetic" k2="-1" k3="1" result="shadowInnerInner1"></feComposite>
            <feColorMatrix values="0 0 0 0 0   0 0 0 0 0   0 0 0 0 0  0 0 0 0.186056386 0" type="matrix" in="shadowInnerInner1"></feColorMatrix>
        </filter>
        <path d="M15.4310565,5.64410751 L17.3421313,3.73303271 C17.6930384,3.38077759 17.6930384,2.81108751 17.3421313,2.45883239 L15.4310565,0.547757596 C15.0788013,0.196850398 14.5091113,0.196850398 14.1568561,0.547757596 L12.2457813,2.45883239 C11.8948741,2.81108751 11.8948741,3.38077759 12.2457813,3.73303271 L14.1568561,5.64410751 C14.5091113,5.99501471 15.0788013,5.99501471 15.4310565,5.64410751" id="path-16"></path>
        <filter x="-17.8%" y="-17.8%" width="135.6%" height="135.6%" filterUnits="objectBoundingBox" id="filter-17">
            <feOffset dx="-2" dy="-2" in="SourceAlpha" result="shadowOffsetInner1"></feOffset>
            <feComposite in="shadowOffsetInner1" in2="SourceAlpha" operator="arithmetic" k2="-1" k3="1" result="shadowInnerInner1"></feComposite>
            <feColorMatrix values="0 0 0 0 0   0 0 0 0 0   0 0 0 0 0  0 0 0 0.186056386 0" type="matrix" in="shadowInnerInner1"></feColorMatrix>
        </filter>
    </defs>
    <g id="Badges" stroke="none" stroke-width="1" fill="none" fill-rule="evenodd">
        <g id="Use-basic-formulas-to-make-a-better-canvas-app-in-PowerApps" transform="translate(-50.000000, -50.000000)">
            <g id="Use-basic-formulas-to-make-a-better-canvas-app-in-PowerApps/use-basic-formulas-to-make-a-better-canvas-app-in-PowerApps" transform="translate(50.000000, 50.000000)">
                <g id="Mask" transform="translate(2.000000, 2.000000)">
                    <mask id="mask-2" fill="white">
                        <use xlink:href="#path-1"></use>
                    </mask>
                    <use id="Trophy-1" fill="#965596" xlink:href="#path-1"></use>
                    <g id="canvas" filter="url(#filter-3)" mask="url(#mask-2)">
                        <g transform="translate(25.000000, 15.000000)">
                            <g id="Group-2" stroke-width="1" fill="none" fill-rule="evenodd" transform="translate(6.700995, 68.877307) rotate(15.000000) translate(-6.700995, -68.877307) translate(4.304775, 53.781122)">
                                <rect id="Rectangle" fill="#EFB252" x="0.0467086639" y="0.412952565" width="4.31319574" height="29.7131262" rx="2.15659787"></rect>
                                <path d="M2.20330654,0.412952565 L2.16041652,27.8750061 C2.16041652,28.5986008 1.4015932,29.0921029 0.679061431,28.8557633 C0.452514179,28.7818421 0.240263598,28.6923038 0.0467086639,28.5892305 C0.318345418,29.5304243 1.25862649,30.2102911 2.36056992,30.1176293 C3.51750055,30.0208029 4.35990441,29.020264 4.35990441,27.9208164 L4.35990441,1.69023594 L3.71996528,0.973577589 L2.20330654,0.412952565 Z" id="Fill-1024" fill="#DD9D3F"></path>
                            </g>
                            <g id="Group-2" stroke-width="1" fill="none" fill-rule="evenodd" transform="translate(40.248073, 68.877307) scale(-1, 1) rotate(15.000000) translate(-40.248073, -68.877307) translate(37.851853, 53.781122)">
                                <rect id="Rectangle" fill="#EFB252" x="0.0467086639" y="0.412952565" width="4.31319574" height="29.7131262" rx="2.15659787"></rect>
                                <path d="M2.20330654,0.412952565 L2.16041652,27.8750061 C2.16041652,28.5986008 1.4015932,29.0921029 0.679061431,28.8557633 C0.452514179,28.7818421 0.240263598,28.6923038 0.0467086639,28.5892305 C0.318345418,29.5304243 1.25862649,30.2102911 2.36056992,30.1176293 C3.51750055,30.0208029 4.35990441,29.020264 4.35990441,27.9208164 L4.35990441,1.69023594 L3.71996528,0.973577589 L2.20330654,0.412952565 Z" id="Fill-1024" fill="#DD9D3F"></path>
                            </g>
                            <g id="Group-6" stroke-width="1" fill="none" fill-rule="evenodd" transform="translate(21.565979, 0.000000)">
                                <path d="M1.91697589,5.27168369 C0.858805197,5.27168369 0,4.48444559 0,3.51445579 L0,1.7572279 C0,0.786359483 0.858805197,0 1.91697589,0 C2.97514658,0 3.83395177,0.786359483 3.83395177,1.7572279 L3.83395177,3.51445579 C3.83395177,4.48444559 2.97514658,5.27168369 1.91697589,5.27168369" id="Fill-1018" fill="#EFB252"></path>
                                <path d="M1.91697589,1.89180231 L1.91697589,3.83395177 L3.83395177,3.83395177 L3.83395177,1.98163946 C3.83395177,1.8751315 3.82436689,1.77140201 3.80711411,1.67045099 C3.61829199,0.591479061 1.91697589,0.798011884 1.91697589,1.89180231" id="Fill-1027" fill="#DD9D3F"></path>
                            </g>
                            <rect id="Rectangle" fill="#CB8E35" fill-rule="evenodd" x="21.5659787" y="3.3547078" width="3.83395177" height="1"></rect>
                            <path d="M30.6716142,33.626952 C30.6716142,34.1101897 30.2773611,34.505566 29.7954963,34.505566 L-24.5238126,34.505566 C-25.0056774,34.505566 -25.3999305,34.1101897 -25.3999305,33.626952 L-25.3999305,30.1124962 C-25.3999305,29.6292585 -25.0056774,29.2338823 -24.5238126,29.2338823 L29.7954963,29.2338823 C30.2773611,29.2338823 30.6716142,29.6292585 30.6716142,30.1124962 L30.6716142,33.626952" id="Fill-1019" fill="#EFB252" fill-rule="evenodd" transform="translate(2.635842, 31.869724) rotate(90.000000) translate(-2.635842, -31.869724) "></path>
                            <path d="M72.3658397,33.626952 C72.3658397,34.1101897 71.9715867,34.505566 71.4897218,34.505566 L17.1704129,34.505566 C16.6885481,34.505566 16.294295,34.1101897 16.294295,33.626952 L16.294295,30.1124962 C16.294295,29.6292585 16.6885481,29.2338823 17.1704129,29.2338823 L71.4897218,29.2338823 C71.9715867,29.2338823 72.3658397,29.6292585 72.3658397,30.1124962 L72.3658397,33.626952" id="Fill-1019" fill="#DD9D3F" fill-rule="evenodd" transform="translate(44.330067, 31.869724) rotate(90.000000) translate(-44.330067, -31.869724) "></path>
                            <g id="Group-5" stroke-width="1" fill="none" fill-rule="evenodd" transform="translate(0.000000, 3.833952)">
                                <path d="M46.9659092,4.39306974 C46.9659092,4.87630741 46.6356802,5.27168369 46.2320669,5.27168369 L0.733842331,5.27168369 C0.330229049,5.27168369 0,4.87630741 0,4.39306974 L0,0.878613948 C0,0.395376277 0.330229049,8.8817842e-16 0.733842331,8.8817842e-16 L46.2320669,8.8817842e-16 C46.6356802,8.8817842e-16 46.9659092,0.395376277 46.9659092,0.878613948 L46.9659092,4.39306974" id="Fill-1019" fill="#EFB252"></path>
                                <path d="M0.733842331,5.27168369 L46.2320669,5.27168369 C46.6356802,5.27168369 46.9659092,4.87630741 46.9659092,4.39306974 L46.9659092,0.878613948 C46.9659092,0.395376277 46.6356802,8.8817842e-16 46.2320669,8.8817842e-16 L23.4829546,8.8817842e-16 L23.4829546,1.7572279 C23.4829546,2.2422228 23.1541932,2.63584184 22.7491123,2.63584184 L0,2.63584184 L0,4.39306974 C0,4.87630741 0.330229049,5.27168369 0.733842331,5.27168369" id="Fill-1026" fill="#DD9D3F"></path>
                            </g>
                            <g id="Group-4" stroke-width="1" fill="none" fill-rule="evenodd" transform="translate(0.000000, 54.633813)">
                                <path d="M46.9659092,4.39306974 C46.9659092,4.87630741 46.6356802,5.27168369 46.2320669,5.27168369 L0.733842331,5.27168369 C0.330229049,5.27168369 0,4.87630741 0,4.39306974 L0,0.878613948 C0,0.395376277 0.330229049,0 0.733842331,0 L46.2320669,0 C46.6356802,0 46.9659092,0.395376277 46.9659092,0.878613948 L46.9659092,4.39306974" id="Fill-1019" fill="#EFB252"></path>
                                <path d="M0.733842331,5.27168369 L46.2320669,5.27168369 C46.6356802,5.27168369 46.9659092,4.87630741 46.9659092,4.39306974 L46.9659092,0.878613948 C46.9659092,0.395376277 46.6356802,0 46.2320669,0 L23.4829546,0 L23.4829546,1.7572279 C23.4829546,2.2422228 23.1541932,2.63584184 22.7491123,2.63584184 L0,2.63584184 L0,4.39306974 C0,4.87630741 0.330229049,5.27168369 0.733842331,5.27168369" id="Fill-1026" fill="#DD9D3F"></path>
                            </g>
                            <g id="Fill-1017" fill="none">
                                <use fill="black" fill-opacity="1" filter="url(#filter-5)" xlink:href="#path-4"></use>
                                <use fill="#E1E4E1" fill-rule="evenodd" xlink:href="#path-4"></use>
                            </g>
                            <g id="Group-7" stroke-width="1" fill="none" fill-rule="evenodd" transform="translate(9.105635, 2.396220)">
                                <g id="Rectangle">
                                    <use fill="black" fill-opacity="1" filter="url(#filter-7)" xlink:href="#path-6"></use>
                                    <use fill="#742774" fill-rule="evenodd" xlink:href="#path-6"></use>
                                </g>
                                <g id="Rectangle">
                                    <use fill="black" fill-opacity="1" filter="url(#filter-9)" xlink:href="#path-8"></use>
                                    <use fill="#742774" fill-rule="evenodd" xlink:href="#path-8"></use>
                                </g>
                            </g>
                        </g>
                    </g>
                    <g id="paint-brush" filter="url(#filter-10)" mask="url(#mask-2)">
                        <g transform="translate(68.275915, 57.158300) rotate(-40.000000) translate(-68.275915, -57.158300) translate(64.400914, 38.011241)">
                            <path d="M2.42057362,14.5374083 C2.42057362,14.5374083 5.23089314,14.5374083 5.23089314,14.5374083 C6.04259969,16.4773523 6.04259969,17.1116476 6.04259969,23.210521 C6.04259969,26.9515191 5.84366621,31.4136903 5.44579924,36.5970347 L5.44581276,36.5970357 C5.38661122,37.3683035 4.74351875,37.9639247 3.9699822,37.9639247 L3.9699822,37.9639247 C3.19735705,37.9639247 2.55411516,37.3708599 2.4915024,36.6007759 C1.15039731,19.228488 1.48455202,16.2746405 2.42057362,14.5374083 Z" id="Rectangle" fill="#0078D7" fill-rule="evenodd"></path>
                            <path d="M3.89492878,14.5374083 C5.36928393,14.5374083 5.23089314,14.5374083 5.23089314,14.5374083 C6.04259969,16.4773523 6.04259969,17.1116476 6.04259969,23.210521 C6.04259969,26.9334073 5.84558779,31.3705006 5.45156398,36.521801 L5.4515727,36.5218016 C5.38933566,37.3354622 4.71096616,37.9639247 3.89492878,37.9639247 L3.89492878,37.9639247 C3.61287493,19.6921242 3.66787625,16.8010867 3.89492878,14.5374083 Z" id="Rectangle" fill="#005A9E" fill-rule="evenodd"></path>
                            <path d="M4.86153143,18.1405603 C5.58765877,16.2965411 5.93944868,15.0804069 5.93944868,15.0804069 L4.66636197,14.4771734 L2.91735273,18.140802 L4.86153143,18.140802 L4.86153143,18.1405603 Z" id="Shape" fill="#005A9E" fill-rule="nonzero" transform="translate(4.428401, 16.308988) rotate(-25.000000) translate(-4.428401, -16.308988) "></path>
                            <polygon id="Shape" fill="#A9C5D3" fill-rule="nonzero" transform="translate(3.729925, 11.355269) rotate(-25.000000) translate(-3.729925, -11.355269) " points="3.68810277 14.86821 1.36764707 13.7671154 4.74371495 7.84232779 6.09220253 8.4822967"></polygon>
                            <polygon id="Shape" fill="#92B3C5" fill-rule="nonzero" transform="translate(3.894929, 14.289235) rotate(-25.000000) translate(-3.894929, -14.289235) " points="5.33360647 15.2572846 2.23465497 13.7878696 2.45770577 13.3211853 5.55520259 14.790842"></polygon>
                            <path d="M5.42538829,0.749229875 C5.1940943,4.66493084 1.11711352,1.54266564 1.71086506,7.3164032 L3.04286627,7.94815498 C4.1925477,7.89305192 5.24331095,6.87968726 5.85718555,5.59153234 C6.63713603,3.95874159 6.71859806,1.88222618 5.42538829,0.749229875 Z" id="Shape" fill="#645252" fill-rule="nonzero" transform="translate(4.038089, 4.348692) rotate(-25.000000) translate(-4.038089, -4.348692) "></path>
                            <path d="M2.9789395,7.65456578 C2.9789395,7.65456578 3.5828738,5.92896988 2.97869706,5.31268563 C2.97869706,5.31268563 4.94736285,5.81610527 4.40549486,4.2188415 C4.40549486,4.2188415 6.56399629,4.38995101 5.36146152,0.455882357 C7.69791869,2.21410508 5.51493017,7.83268402 2.9789395,7.65456578 Z" id="Shape" fill="#000000" fill-rule="nonzero" opacity="0.55" transform="translate(4.667607, 4.057294) rotate(-25.000000) translate(-4.667607, -4.057294) "></path>
                        </g>
                    </g>
                    <g id="Colors" filter="url(#filter-11)" mask="url(#mask-2)">
                        <g transform="translate(11.000000, 49.000000)">
                            <path d="M15.8310839,28.7379831 C14.2638066,28.7379831 12.7133499,28.5351473 11.2222596,28.1393702 C10.9264163,28.0602148 10.6835081,27.8524318 10.5642802,27.5704406 C10.4450524,27.2884494 10.463357,26.9668806 10.6142471,26.699731 C11.1144104,25.8092325 11.3785916,24.8049482 11.3785916,23.7907693 C11.3785916,20.5157138 8.71550643,17.8541129 5.44193511,17.8541129 C4.21799443,17.8541129 3.03956812,18.2281222 2.03379957,18.9326055 C1.77357612,19.1156524 1.44062864,19.1651245 1.14132221,19.061233 C0.840531613,18.9573415 0.607517846,18.7139386 0.516983835,18.4091902 C0.174141923,17.2634155 0,16.0775684 0,14.8857846 C0,7.24728662 7.10172531,1.03358617 15.8310839,1.03358617 C24.5599479,1.03358617 31.6621679,7.24728662 31.6621679,14.8857846 C31.6621679,22.5242826 24.5599479,28.7379831 15.8310839,28.7379831" id="Fill-219" fill="#EFB252"></path>
                            <path d="M15.8310839,27.7485403 C14.2638066,27.7485403 12.7133499,27.5457046 11.2222596,27.1499275 C10.9264163,27.070772 10.6835081,26.8629891 10.5642802,26.5809979 C10.4450524,26.2990067 10.463357,25.9774378 10.6142471,25.7102883 C11.1144104,24.8197898 11.3785916,23.8155054 11.3785916,22.8013266 C11.3785916,19.5262711 8.71550643,16.8646701 5.44193511,16.8646701 C4.21799443,16.8646701 3.03956812,17.2386795 2.03379957,17.9456363 C1.77357612,18.1286832 1.44062864,18.175187 1.14132221,18.0708008 C0.840531613,17.9664146 0.607517846,17.7244959 0.516983835,17.4197475 C0.174141923,16.2739728 0,15.0881257 0,13.8963419 C0,6.25784387 7.10172531,0.0441434202 15.8310839,0.0441434202 C24.5599479,0.0441434202 31.6621679,6.25784387 31.6621679,13.8963419 C31.6621679,21.5348399 24.5599479,27.7485403 15.8310839,27.7485403" id="Fill-220" fill="#F7CB64"></path>
                            <g id="PowerApp" stroke-width="1" fill="none" transform="translate(5.641617, 3.109568)">
                                <g id="Rectangle-path" fill-rule="nonzero">
                                    <use fill="#742774" xlink:href="#path-12"></use>
                                    <use fill="black" fill-opacity="1" filter="url(#filter-13)" xlink:href="#path-12"></use>
                                </g>
                                <g id="Rectangle-path" fill-rule="nonzero">
                                    <use fill="#742774" xlink:href="#path-14"></use>
                                    <use fill="black" fill-opacity="1" filter="url(#filter-15)" xlink:href="#path-14"></use>
                                </g>
                                <path d="M13.367872,6.44031345 L12.7458925,5.81878534 L7.4748648,0.54820896 C7.12260968,0.197301762 6.55291961,0.197301762 6.20066448,0.54820896 L0.929636737,5.81878534 L0.308108632,6.44031345 C-0.0427985662,6.79256857 -0.0427985662,7.36225865 0.308108632,7.71451377 L0.929636737,8.33649324 L6.20337267,13.6043614 C6.55562779,13.9552686 7.12531787,13.9552686 7.47757299,13.6043614 L12.7481494,8.33604187 L13.3701288,7.7140624 C13.721036,7.36180728 13.721036,6.79211721 13.3701288,6.43986208 M6.20337267,9.6251372 L4.78022226,8.20243815 L4.29184651,7.7140624 C3.94093931,7.36180728 3.94093931,6.79211721 4.29184651,6.43986208 L6.2029213,4.52878729 C6.55517642,4.17788009 7.1248665,4.17788009 7.47712162,4.52878729 L9.38819642,6.43986208 C9.73910362,6.79211721 9.73910362,7.36180728 9.38819642,7.7140624 L8.89982067,8.20243815 L7.47712162,9.6251372 C7.1248665,9.9760444 6.55517642,9.9760444 6.2029213,9.6251372" id="Shape" fill="#742774" fill-rule="nonzero"></path>
                                <g id="Shape" fill-rule="nonzero">
                                    <use fill="#742774" xlink:href="#path-16"></use>
                                    <use fill="black" fill-opacity="1" filter="url(#filter-17)" xlink:href="#path-16"></use>
                                </g>
                            </g>
                        </g>
                    </g>
                </g>
                <g id="PowerApps-Hex-Border" stroke="#742774" stroke-width="4">
                    <path d="M45.5620146,3.25834407 L6.67338401,26.8942953 C3.79673288,28.6432593 2,31.9508238 2,35.5582677 L2,82.4417323 C2,86.0486597 3.79764663,89.3586805 6.67318764,91.1055853 L45.560618,114.742485 C46.9289662,115.572418 48.4546283,116 50,116 C51.5458817,116 53.0723633,115.572188 54.4362178,114.743457 L93.3268764,91.1055464 C96.2016145,89.3583456 98,86.0476286 98,82.4417323 L98,35.5582677 C98,31.9518547 96.202529,28.6435953 93.3268966,26.8944659 L54.4351916,3.25759524 C53.0721095,2.42798656 51.5462432,2 50,2 C48.4543284,2 46.9293388,2.42772325 45.5620146,3.25834407 Z M45.5620146,3.25834407 C45.5619597,3.25837737 45.5619049,3.25841067 45.5618501,3.25844398 L45.5621963,3.25823359 L45.5620146,3.25834407 Z" id="Azure-Hex-Border"></path>
                </g>
            </g>
        </g>
    </g>
</svg>