<svg width="100" height="100" viewBox="0 0 100 100" fill="none" xmlns="http://www.w3.org/2000/svg">
<g clip-path="url(#clip0)">
<path d="M49.6401 96.4501C40.382 96.4501 31.3317 93.7047 23.6339 88.5612C15.936 83.4176 9.93624 76.1069 6.3933 67.5535C2.85036 59.0001 1.92337 49.5882 3.72954 40.5079C5.53571 31.4277 9.99394 23.0869 16.5404 16.5404C23.0869 9.99393 31.4277 5.53571 40.5079 3.72954C49.5882 1.92337 59.0001 2.85036 67.5535 6.3933C76.1069 9.93624 83.4176 15.936 88.5612 23.6339C93.7047 31.3317 96.4501 40.382 96.4501 49.6401C96.4505 55.7874 95.24 61.8746 92.8878 67.554C90.5355 73.2335 87.0875 78.3939 82.7407 82.7407C78.3939 87.0875 73.2335 90.5355 67.554 92.8878C61.8746 95.24 55.7874 96.4505 49.6401 96.4501V96.4501Z" fill="url(#paint0_linear)"/>
<path fill-rule="evenodd" clip-rule="evenodd" d="M95.54 49.64C95.54 58.7182 92.848 67.5925 87.8045 75.1407C82.7609 82.6889 75.5923 88.572 67.2052 92.0461C58.818 95.5201 49.5891 96.4291 40.6854 94.658C31.7816 92.887 23.603 88.5154 17.1838 82.0962C10.7646 75.677 6.39302 67.4984 4.62196 58.5946C2.85089 49.6909 3.75987 40.462 7.23393 32.0748C10.708 23.6877 16.5911 16.5191 24.1393 11.4755C31.6875 6.43199 40.5618 3.74 49.64 3.74C55.6677 3.73998 61.6363 4.9272 67.2052 7.23388C72.774 9.54057 77.834 12.9215 82.0963 17.1837C86.3585 21.446 89.7394 26.5059 92.0461 32.0748C94.3528 37.6437 95.54 43.6123 95.54 49.64V49.64ZM49.64 3.62732e-07C59.4579 3.62732e-07 69.0553 2.91134 77.2185 8.36585C85.3818 13.8204 91.7442 21.5731 95.5014 30.6436C99.2585 39.7141 100.242 49.6951 98.3262 59.3243C96.4108 68.9535 91.6831 77.7985 84.7408 84.7408C77.7985 91.6831 68.9535 96.4108 59.3243 98.3262C49.6951 100.242 39.7141 99.2585 30.6436 95.5014C21.5731 91.7442 13.8204 85.3818 8.36585 77.2185C2.91134 69.0553 3.62732e-07 59.4579 3.62732e-07 49.64C-0.000787738 43.121 1.28265 36.6656 3.77702 30.6427C6.27138 24.6197 9.9278 19.1471 14.5375 14.5375C19.1471 9.9278 24.6197 6.27138 30.6427 3.77702C36.6656 1.28265 43.121 -0.000787738 49.64 3.62732e-07V3.62732e-07Z" fill="#F2F1F0"/>
<path fill-rule="evenodd" clip-rule="evenodd" d="M92.7296 49.6406C92.7296 58.163 90.2024 66.494 85.4676 73.5801C80.7328 80.6662 74.0031 86.1892 66.1294 89.4505C58.2557 92.7119 49.5918 93.5653 41.2331 91.9026C32.8745 90.24 25.1966 86.1361 19.1703 80.1098C13.1441 74.0836 9.04017 66.4057 7.37753 58.047C5.7149 49.6884 6.56822 41.0244 9.8296 33.1507C13.091 25.2771 18.6139 18.5473 25.7 13.8126C32.7862 9.07776 41.1172 6.55058 49.6396 6.55058C55.2983 6.55023 60.9017 7.66455 66.1298 9.82991C71.3579 11.9953 76.1082 15.1692 80.1096 19.1706C84.1109 23.1719 87.2849 27.9223 89.4502 33.1503C91.6156 38.3784 92.7299 43.9818 92.7296 49.6406V49.6406ZM49.6396 2.81058C58.9017 2.81058 67.9558 5.55711 75.6569 10.7029C83.3581 15.8486 89.3604 23.1624 92.9049 31.7195C96.4493 40.2766 97.3767 49.6925 95.5697 58.7767C93.7628 67.8608 89.3027 76.2051 82.7534 82.7544C76.2041 89.3037 67.8598 93.7638 58.7757 95.5708C49.6915 97.3777 40.2756 96.4503 31.7185 92.9059C23.1614 89.3614 15.8476 83.3591 10.7018 75.6579C5.5561 67.9568 2.80957 58.9027 2.80957 49.6406C2.81076 37.2209 7.745 25.3101 16.5271 16.5281C25.3091 7.74599 37.2198 2.81174 49.6396 2.81055V2.81058Z" fill="#0078D4"/>
<path fill-rule="evenodd" clip-rule="evenodd" d="M35.4819 22.4512C34.2129 22.4512 32.9959 22.9553 32.0986 23.8526C31.2013 24.7499 30.6972 25.9669 30.6972 27.2359V68.5081C30.6972 69.0293 30.5945 69.5454 30.3951 70.0269C30.1956 70.5085 29.9033 70.946 29.5347 71.3145C29.1662 71.6831 28.7286 71.9754 28.2471 72.1748C27.7656 72.3743 27.2495 72.4769 26.7283 72.4769H62.3528C63.6218 72.4769 64.8388 71.9728 65.7361 71.0755C66.6334 70.1782 67.1376 68.9612 67.1376 67.6922V26.4199C67.1376 25.3674 67.5557 24.3579 68.3 23.6136C69.0443 22.8693 70.0537 22.4512 71.1063 22.4512H35.4819Z" fill="white"/>
<path fill-rule="evenodd" clip-rule="evenodd" d="M59.3166 69.4664C59.2585 69.1986 59.1116 68.9582 58.8998 68.7843C58.6881 68.6103 58.4238 68.5129 58.1498 68.5078H24.235C24.0307 68.5087 23.83 68.5614 23.6517 68.6612C23.4734 68.761 23.3234 68.9044 23.2158 69.0781C23.1082 69.2517 23.0465 69.4499 23.0366 69.654C23.0266 69.858 23.0687 70.0613 23.1589 70.2446C23.4847 70.9139 23.9922 71.4781 24.6234 71.8728C25.2546 72.2675 25.9841 72.4767 26.7285 72.4766H63.1688C62.2829 72.4765 61.4225 72.1802 60.7245 71.6347C60.0264 71.0893 59.5309 70.326 59.3166 69.4664V69.4664Z" fill="#E8E8E8"/>
<path fill-rule="evenodd" clip-rule="evenodd" d="M71.1064 22.4512C70.0538 22.4512 69.0444 22.8693 68.3001 23.6136C67.5558 24.3579 67.1377 25.3674 67.1377 26.4199V33.1197H75.0751V26.4199C75.0751 25.8988 74.9724 25.3827 74.773 24.9012C74.5736 24.4196 74.2812 23.9821 73.9127 23.6136C73.5442 23.245 73.1067 22.9527 72.6252 22.7533C72.1436 22.5538 71.6276 22.4512 71.1064 22.4512V22.4512Z" fill="#E8E8E8"/>
<path opacity="0.2" fill-rule="evenodd" clip-rule="evenodd" d="M67.1377 72.476V51.8192C66.5916 51.924 66.0608 52.0971 65.5579 52.3345C64.673 51.9107 63.7048 51.6897 62.7237 51.6875C61.7372 51.692 60.7639 51.9153 59.8742 52.3414C58.9844 52.7675 58.2002 53.3857 57.5783 54.1515C56.1316 54.6408 54.8635 55.5503 53.9361 56.7636C53.0086 57.977 52.4639 59.4393 52.3714 60.9637C51.2634 62.6525 50.6045 64.596 50.4568 66.6104C50.3092 68.6248 50.6777 70.6436 51.5274 72.476L67.1377 72.476Z" fill="#767676"/>
<path fill-rule="evenodd" clip-rule="evenodd" d="M61.1661 37.5941H37.9952C37.5232 37.5929 37.0709 37.4047 36.7376 37.0705C36.4043 36.7364 36.217 36.2837 36.217 35.8117C36.217 35.3397 36.4043 34.887 36.7376 34.5528C37.0709 34.2187 37.5232 34.0304 37.9952 34.0293H61.1661C61.4005 34.0287 61.6327 34.0744 61.8495 34.1638C62.0662 34.2531 62.2632 34.3843 62.4291 34.5499C62.5951 34.7154 62.7268 34.9121 62.8166 35.1286C62.9064 35.3451 62.9527 35.5773 62.9527 35.8117C62.9527 36.0461 62.9064 36.2782 62.8166 36.4947C62.7268 36.7113 62.5951 36.9079 62.4291 37.0735C62.2632 37.2391 62.0662 37.3703 61.8495 37.4596C61.6327 37.5489 61.4005 37.5946 61.1661 37.5941V37.5941Z" fill="#0078D4"/>
<path fill-rule="evenodd" clip-rule="evenodd" d="M56.9661 45.6155H37.9953C37.5226 45.6155 37.0692 45.4278 36.7349 45.0935C36.4007 44.7592 36.2129 44.3059 36.2129 43.8332C36.2129 43.3604 36.4007 42.9071 36.7349 42.5728C37.0692 42.2386 37.5226 42.0508 37.9953 42.0508H56.9661C57.4389 42.0508 57.8922 42.2386 58.2265 42.5728C58.5607 42.9071 58.7485 43.3604 58.7485 43.8332C58.7485 44.3059 58.5607 44.7592 58.2265 45.0935C57.8922 45.4278 57.4389 45.6155 56.9661 45.6155V45.6155Z" fill="#50E6FF"/>
<path fill-rule="evenodd" clip-rule="evenodd" d="M52.7661 53.6351H37.9952C37.5232 53.634 37.0709 53.4457 36.7376 53.1115C36.4043 52.7774 36.217 52.3247 36.217 51.8527C36.217 51.3807 36.4043 50.928 36.7376 50.5939C37.0709 50.2597 37.5232 50.0714 37.9952 50.0703H52.7661C53.0005 50.0698 53.2327 50.1155 53.4495 50.2048C53.6662 50.2941 53.8632 50.4253 54.0291 50.5909C54.1951 50.7564 54.3268 50.9531 54.4166 51.1696C54.5064 51.3862 54.5527 51.6183 54.5527 51.8527C54.5527 52.0871 54.5064 52.3192 54.4166 52.5358C54.3268 52.7523 54.1951 52.949 54.0291 53.1145C53.8632 53.2801 53.6662 53.4113 53.4495 53.5006C53.2327 53.5899 53.0005 53.6356 52.7661 53.6351V53.6351Z" fill="#9CEBFF"/>
<path fill-rule="evenodd" clip-rule="evenodd" d="M48.566 61.6565H37.9952C37.5232 61.6554 37.0709 61.4672 36.7376 61.133C36.4043 60.7989 36.217 60.3462 36.217 59.8742C36.217 59.4022 36.4043 58.9495 36.7376 58.6153C37.0709 58.2812 37.5232 58.0929 37.9952 58.0918H48.566C48.8005 58.0912 49.0327 58.1369 49.2494 58.2263C49.4661 58.3156 49.6631 58.4468 49.8291 58.6124C49.995 58.7779 50.1267 58.9746 50.2166 59.1911C50.3064 59.4076 50.3526 59.6398 50.3526 59.8742C50.3526 60.1086 50.3064 60.3407 50.2166 60.5572C50.1267 60.7738 49.995 60.9704 49.8291 61.136C49.6631 61.3016 49.4661 61.4328 49.2494 61.5221C49.0327 61.6114 48.8005 61.6571 48.566 61.6565V61.6565Z" fill="#C3F1FF"/>
<path fill-rule="evenodd" clip-rule="evenodd" d="M76.6641 61.6262C76.6672 61.5504 76.6692 61.475 76.6692 61.3991C76.6681 60.1285 76.2308 58.8967 75.4305 57.9098C74.6302 56.9228 73.5153 56.2405 72.2724 55.9768C71.8697 55.3106 71.3025 54.7593 70.6251 54.3758C69.9477 53.9923 69.183 53.7895 68.4046 53.7871C67.3682 53.7856 66.3633 54.1435 65.5612 54.7999C65.0606 54.3916 64.478 54.0959 63.853 53.9329C63.228 53.7698 62.5752 53.7432 61.939 53.8549C61.3028 53.9665 60.6981 54.2139 60.1659 54.58C59.6338 54.9462 59.1867 55.4226 58.8551 55.9769C57.6123 56.2408 56.4977 56.9232 55.6976 57.9101C54.8975 58.897 54.4604 60.1286 54.4593 61.3991C54.4593 61.4755 54.4613 61.5514 54.4644 61.6273C53.6072 62.7915 53.0138 64.1283 52.7255 65.545C52.4371 66.9616 52.4607 68.4241 52.7946 69.8307C53.1285 71.2373 53.7648 72.5543 54.6591 73.6902C55.5534 74.8261 56.6843 75.7536 57.9733 76.4083C58.3213 77.2632 58.8757 78.0186 59.5869 78.6068C60.2982 79.1951 61.1442 79.5979 62.0492 79.7793C62.4064 79.8483 62.7693 79.8831 63.133 79.8834C63.9061 79.885 64.6709 79.7239 65.3776 79.4107C65.4425 79.3823 65.5012 79.3449 65.5635 79.3125C65.6226 79.343 65.6781 79.3787 65.7396 79.4055C66.4492 79.7218 67.2175 79.8846 67.9944 79.8833C68.3603 79.883 68.7253 79.8478 69.0844 79.7782C69.9886 79.5967 70.8338 79.1939 71.5442 78.6058C72.2546 78.0178 72.8081 77.2627 73.1552 76.4083C74.4442 75.7535 75.5751 74.8258 76.4694 73.6899C77.3638 72.5539 78 71.2368 78.3339 69.8301C78.6678 68.4234 78.6914 66.9609 78.403 65.5442C78.1147 64.1275 77.5213 62.7905 76.6641 61.6263L76.6641 61.6262Z" fill="white"/>
<path fill-rule="evenodd" clip-rule="evenodd" d="M65.1479 72.2816V58.1802C65.1469 57.8436 65.0573 57.5131 64.8882 57.222C64.8693 57.1805 64.8481 57.14 64.8247 57.1008V57.0951C64.5714 56.6589 64.1883 56.3127 63.7289 56.1046C63.2695 55.8965 62.7566 55.8369 62.2617 55.9341C61.7668 56.0313 61.3145 56.2805 60.9679 56.6469C60.6214 57.0133 60.3977 57.4787 60.3281 57.9782C60.2169 57.9665 60.1052 57.9607 59.9934 57.9609C59.5419 57.9612 59.095 58.0504 58.678 58.2234C58.2611 58.3965 57.8823 58.65 57.5634 58.9694C57.2445 59.2889 56.9916 59.6681 56.8192 60.0853C56.6469 60.5025 56.5584 60.9496 56.5589 61.4011C56.5598 61.6855 56.5966 61.9686 56.6686 62.2438C55.8056 63.1935 55.1882 64.3401 54.8703 65.5833C54.5524 66.8266 54.5437 68.1288 54.8448 69.3762C55.146 70.6236 55.748 71.7783 56.5981 72.7396C57.4483 73.7008 58.5208 74.4393 59.7221 74.8907C59.725 74.9314 59.7308 74.9719 59.7394 75.0119C59.8417 75.5199 60.057 75.9985 60.3692 76.4122C60.6814 76.8259 61.0826 77.1641 61.5431 77.4018C62.0036 77.6395 62.5117 77.7707 63.0298 77.7857C63.5478 77.8006 64.0626 77.6989 64.5361 77.4881C64.7173 77.4094 64.8717 77.2796 64.9804 77.1146C65.0891 76.9496 65.1473 76.7564 65.1479 76.5588L65.1479 72.2816Z" fill="#0078D4"/>
<path fill-rule="evenodd" clip-rule="evenodd" d="M65.986 72.2816V58.1802C65.987 57.8436 66.0766 57.5131 66.2457 57.222C66.2646 57.1805 66.2858 57.14 66.3092 57.1008V57.0951C66.5619 56.659 66.9445 56.3127 67.4036 56.1046C67.8626 55.8965 68.3752 55.8369 68.8697 55.9342C69.3643 56.0314 69.8161 56.2807 70.1621 56.6471C70.5082 57.0135 70.7312 57.4789 70.8 57.9782C70.9112 57.9665 71.0229 57.9607 71.1347 57.9609C71.5862 57.9611 72.0331 58.0504 72.4501 58.2234C72.867 58.3965 73.2458 58.65 73.5647 58.9694C73.8836 59.2889 74.1365 59.6681 74.3089 60.0853C74.4812 60.5025 74.5697 60.9496 74.5692 61.4011C74.5683 61.6855 74.5315 61.9686 74.4595 62.2438C75.3225 63.1935 75.9399 64.3401 76.2578 65.5833C76.5757 66.8266 76.5844 68.1288 76.2833 69.3762C75.9821 70.6236 75.3802 71.7783 74.53 72.7395C73.6799 73.7008 72.6073 74.4393 71.4061 74.8907C71.4031 74.9314 71.3974 74.9719 71.3888 75.0119C71.2864 75.5199 71.0712 75.9985 70.759 76.4122C70.4468 76.8259 70.0456 77.1641 69.585 77.4018C69.1245 77.6396 68.6164 77.7707 68.0984 77.7857C67.5803 77.8006 67.0655 77.6989 66.5921 77.4881C66.4108 77.4094 66.2564 77.2796 66.1478 77.1146C66.0391 76.9496 65.9809 76.7564 65.9802 76.5588L65.986 72.2816Z" fill="#0078D4"/>
<path d="M65.1449 63.9479H61.3273C61.2229 63.9479 61.1228 63.9064 61.049 63.8325C60.9751 63.7587 60.9336 63.6586 60.9336 63.5541V61.4336H61.7211V63.1604H65.1449V63.9479Z" fill="white"/>
<path d="M58.4594 69.146H57.6719V67.4074C57.6719 67.303 57.7134 67.2029 57.7872 67.129C57.8611 67.0552 57.9612 67.0137 58.0656 67.0137H65.1449V67.8012H58.4594V69.146Z" fill="white"/>
<path d="M65.1481 71.3086H61.4854V72.0961H65.1481V71.3086Z" fill="white"/>
<path d="M61.3278 62.5053C62.0601 62.5053 62.6537 61.9117 62.6537 61.1794C62.6537 60.4471 62.0601 59.8535 61.3278 59.8535C60.5956 59.8535 60.002 60.4471 60.002 61.1794C60.002 61.9117 60.5956 62.5053 61.3278 62.5053Z" fill="white"/>
<path d="M58.0654 71.0229C58.7976 71.0229 59.3913 70.4292 59.3913 69.697C59.3913 68.9647 58.7976 68.3711 58.0654 68.3711C57.3331 68.3711 56.7395 68.9647 56.7395 69.697C56.7395 70.4292 57.3331 71.0229 58.0654 71.0229Z" fill="white"/>
<path d="M61.7407 73.0287C62.4729 73.0287 63.0666 72.4351 63.0666 71.7028C63.0666 70.9706 62.4729 70.377 61.7407 70.377C61.0084 70.377 60.4148 70.9706 60.4148 71.7028C60.4148 72.4351 61.0084 73.0287 61.7407 73.0287Z" fill="white"/>
<path d="M69.8001 63.9479H65.9836V63.1604H69.4064V61.4336H70.1939V63.5541C70.1939 63.6585 70.1524 63.7587 70.0786 63.8325C70.0047 63.9064 69.9046 63.9479 69.8001 63.9479V63.9479Z" fill="white"/>
<path d="M73.4567 69.146H72.6692V67.8012H65.9836V67.0137H73.063C73.1674 67.0137 73.2675 67.0552 73.3413 67.129C73.4152 67.2029 73.4567 67.303 73.4567 67.4074L73.4567 69.146Z" fill="white"/>
<path d="M69.6434 71.3086H65.9807V72.0961H69.6434V71.3086Z" fill="white"/>
<path d="M69.8005 62.5053C70.5328 62.5053 71.1264 61.9117 71.1264 61.1794C71.1264 60.4471 70.5328 59.8535 69.8005 59.8535C69.0682 59.8535 68.4746 60.4471 68.4746 61.1794C68.4746 61.9117 69.0682 62.5053 69.8005 62.5053Z" fill="white"/>
<path d="M73.0629 71.0229C73.7952 71.0229 74.3888 70.4292 74.3888 69.697C74.3888 68.9647 73.7952 68.3711 73.0629 68.3711C72.3307 68.3711 71.7371 68.9647 71.7371 69.697C71.7371 70.4292 72.3307 71.0229 73.0629 71.0229Z" fill="white"/>
<path d="M69.3879 73.0287C70.1201 73.0287 70.7138 72.4351 70.7138 71.7028C70.7138 70.9706 70.1201 70.377 69.3879 70.377C68.6556 70.377 68.062 70.9706 68.062 71.7028C68.062 72.4351 68.6556 73.0287 69.3879 73.0287Z" fill="white"/>
</g>
<defs>
<linearGradient id="paint0_linear" x1="47.8697" y1="-15.153" x2="51.8525" y2="130.615" gradientUnits="userSpaceOnUse">
<stop stop-color="#00ABDE"/>
<stop offset="1" stop-color="#007ED8"/>
</linearGradient>
<clipPath id="clip0">
<rect width="99.2799" height="99.28" fill="white"/>
</clipPath>
</defs>
</svg>
