<svg width="100" height="100" viewBox="0 0 100 100" fill="none" xmlns="http://www.w3.org/2000/svg">
<g clip-path="url(#clip0)">
<path d="M49.6401 96.4501C40.382 96.4501 31.3317 93.7047 23.6339 88.5612C15.936 83.4176 9.93624 76.1069 6.3933 67.5535C2.85036 59.0001 1.92337 49.5882 3.72954 40.5079C5.53571 31.4277 9.99394 23.0869 16.5404 16.5404C23.0869 9.99393 31.4277 5.53571 40.5079 3.72954C49.5882 1.92337 59.0001 2.85036 67.5535 6.3933C76.1069 9.93624 83.4176 15.936 88.5612 23.6339C93.7047 31.3317 96.4501 40.382 96.4501 49.6401C96.4505 55.7874 95.24 61.8746 92.8878 67.554C90.5355 73.2335 87.0875 78.3939 82.7407 82.7407C78.3939 87.0875 73.2335 90.5355 67.554 92.8878C61.8746 95.24 55.7874 96.4505 49.6401 96.4501V96.4501Z" fill="url(#paint0_linear)"/>
<path fill-rule="evenodd" clip-rule="evenodd" d="M95.54 49.64C95.54 58.7182 92.848 67.5925 87.8045 75.1407C82.7609 82.6889 75.5923 88.572 67.2052 92.0461C58.818 95.5201 49.5891 96.4291 40.6854 94.658C31.7816 92.887 23.603 88.5154 17.1838 82.0962C10.7646 75.677 6.39302 67.4984 4.62196 58.5946C2.85089 49.6909 3.75987 40.462 7.23393 32.0748C10.708 23.6877 16.5911 16.5191 24.1393 11.4755C31.6875 6.43199 40.5618 3.74 49.64 3.74C55.6677 3.73998 61.6363 4.9272 67.2052 7.23388C72.774 9.54057 77.834 12.9215 82.0963 17.1837C86.3585 21.446 89.7394 26.5059 92.0461 32.0748C94.3528 37.6437 95.54 43.6123 95.54 49.64V49.64ZM49.64 3.62732e-07C59.4579 3.62732e-07 69.0553 2.91134 77.2185 8.36585C85.3818 13.8204 91.7442 21.5731 95.5014 30.6436C99.2585 39.7141 100.242 49.6951 98.3262 59.3243C96.4108 68.9535 91.6831 77.7985 84.7408 84.7408C77.7985 91.6831 68.9535 96.4108 59.3243 98.3262C49.6951 100.242 39.7141 99.2585 30.6436 95.5014C21.5731 91.7442 13.8204 85.3818 8.36585 77.2185C2.91134 69.0553 3.62732e-07 59.4579 3.62732e-07 49.64C-0.000787738 43.121 1.28265 36.6656 3.77702 30.6427C6.27138 24.6197 9.9278 19.1471 14.5375 14.5375C19.1471 9.9278 24.6197 6.27138 30.6427 3.77702C36.6656 1.28265 43.121 -0.000787738 49.64 3.62732e-07V3.62732e-07Z" fill="#F2F1F0"/>
<path fill-rule="evenodd" clip-rule="evenodd" d="M92.7296 49.6406C92.7296 58.163 90.2024 66.494 85.4676 73.5801C80.7328 80.6662 74.0031 86.1892 66.1294 89.4505C58.2557 92.7119 49.5918 93.5653 41.2331 91.9026C32.8745 90.24 25.1966 86.1361 19.1703 80.1098C13.1441 74.0836 9.04017 66.4057 7.37753 58.047C5.7149 49.6884 6.56822 41.0244 9.8296 33.1507C13.091 25.2771 18.6139 18.5473 25.7 13.8126C32.7862 9.07776 41.1172 6.55058 49.6396 6.55058C55.2983 6.55023 60.9017 7.66455 66.1298 9.82991C71.3579 11.9953 76.1082 15.1692 80.1096 19.1706C84.1109 23.1719 87.2849 27.9223 89.4502 33.1503C91.6156 38.3784 92.7299 43.9818 92.7296 49.6406V49.6406ZM49.6396 2.81058C58.9017 2.81058 67.9558 5.55711 75.6569 10.7029C83.3581 15.8486 89.3604 23.1624 92.9049 31.7195C96.4493 40.2766 97.3767 49.6925 95.5697 58.7767C93.7628 67.8608 89.3027 76.2051 82.7534 82.7544C76.2041 89.3037 67.8598 93.7638 58.7757 95.5708C49.6915 97.3777 40.2756 96.4503 31.7185 92.9059C23.1614 89.3614 15.8476 83.3591 10.7018 75.6579C5.5561 67.9568 2.80957 58.9027 2.80957 49.6406C2.81076 37.2209 7.745 25.3101 16.5271 16.5281C25.3091 7.74599 37.2198 2.81174 49.6396 2.81055V2.81058Z" fill="#0078D4"/>
<path d="M62.7871 16.8887H36.4929C34.6882 16.8887 33.2251 18.3517 33.2251 20.1565V46.4507C33.2251 48.2555 34.6882 49.7185 36.4929 49.7185H62.7871C64.5919 49.7185 66.055 48.2555 66.055 46.4507V20.1565C66.055 18.3517 64.5919 16.8887 62.7871 16.8887Z" fill="white"/>
<path d="M59.1577 30.0396L53.6123 30.0368L52.908 30.9321V36.8654C52.908 38.5084 54.554 39.8403 56.5843 39.8403C58.6146 39.8403 60.2606 38.5084 60.2606 36.8654V30.9321C60.2298 30.6687 60.0972 30.4278 59.8911 30.261C59.6849 30.0942 59.4217 30.0148 59.1577 30.0396V30.0396Z" fill="#5059C9"/>
<path d="M56.9926 29.2201C57.4774 29.2201 57.9512 29.0764 58.3543 28.8071C58.7573 28.5378 59.0714 28.155 59.2569 27.7072C59.4424 27.2593 59.491 26.7665 59.3964 26.2911C59.3018 25.8157 59.0684 25.379 58.7257 25.0362C58.3829 24.6934 57.9462 24.46 57.4708 24.3655C56.9953 24.2709 56.5026 24.3194 56.0547 24.5049C55.6069 24.6904 55.2241 25.0046 54.9548 25.4076C54.6855 25.8106 54.5417 26.2845 54.5417 26.7692C54.5417 27.0911 54.6051 27.4098 54.7283 27.7072C54.8515 28.0045 55.032 28.2747 55.2596 28.5023C55.4872 28.7299 55.7574 28.9104 56.0547 29.0336C56.3521 29.1567 56.6708 29.2201 56.9926 29.2201V29.2201Z" fill="#5059C9"/>
<path d="M43.9214 38.8235V30.9668C43.9214 30.8447 43.9454 30.7238 43.9921 30.611C44.0389 30.4982 44.1073 30.3957 44.1937 30.3094C44.28 30.2231 44.3825 30.1546 44.4953 30.1079C44.6081 30.0611 44.729 30.0371 44.8511 30.0371H53.6122C53.8587 30.0371 54.0952 30.135 54.2695 30.3094C54.4439 30.4837 54.5418 30.7202 54.5419 30.9667V38.8235C54.5418 40.1766 54.0043 41.4743 53.0475 42.4311C52.0907 43.3879 50.7931 43.9254 49.4399 43.9254H49.0233C47.6702 43.9254 46.3725 43.3879 45.4157 42.4311C44.4589 41.4743 43.9214 40.1766 43.9214 38.8235V38.8235Z" fill="#7B83EB"/>
<path d="M49.6401 29.2193C50.2865 29.2193 50.9183 29.0276 51.4557 28.6685C51.9931 28.3095 52.4119 27.7991 52.6592 27.202C52.9066 26.6049 52.9713 25.9478 52.8452 25.3139C52.7191 24.68 52.4079 24.0977 51.9509 23.6407C51.4939 23.1837 50.9116 22.8725 50.2777 22.7464C49.6438 22.6203 48.9867 22.685 48.3896 22.9323C47.7925 23.1797 47.2821 23.5985 46.923 24.1359C46.564 24.6733 46.3723 25.3051 46.3723 25.9514C46.3723 26.8181 46.7166 27.6493 47.3294 28.2621C47.9423 28.875 48.7735 29.2193 49.6401 29.2193V29.2193Z" fill="#7B83EB"/>
<path opacity="0.5" d="M44.0234 39.8406H47.3711C48.6241 39.8406 49.6401 39.3451 49.6401 38.0811V30.0371H44.864C44.3434 30.0371 43.9214 32.0931 43.9214 32.6136V38.8234C43.9214 39.165 43.9555 39.5058 44.0234 39.8406Z" fill="black"/>
<path opacity="0.5" d="M49.5848 29.2137C49.5138 28.98 49.3698 28.7752 49.174 28.6292C48.9782 28.4832 48.7407 28.4037 48.4964 28.4023H47.4993C48.076 28.9119 48.8153 29.1996 49.5848 29.2137V29.2137Z" fill="black"/>
<path d="M47.6794 27.5859H38.5295C38.2261 27.5859 37.9352 27.7064 37.7207 27.9209C37.5062 28.1354 37.3857 28.4263 37.3857 28.7297V37.8796C37.3857 38.0298 37.4153 38.1786 37.4728 38.3173C37.5303 38.4561 37.6145 38.5822 37.7207 38.6884C37.8269 38.7946 37.953 38.8789 38.0918 38.9363C38.2305 38.9938 38.3793 39.0234 38.5295 39.0234H47.6794C47.8296 39.0234 47.9783 38.9938 48.1171 38.9364C48.2559 38.8789 48.382 38.7946 48.4882 38.6884C48.5944 38.5822 48.6786 38.4561 48.7361 38.3174C48.7936 38.1786 48.8232 38.0299 48.8232 37.8797V28.7297C48.8232 28.4263 48.7027 28.1354 48.4882 27.9209C48.2737 27.7064 47.9828 27.5859 47.6794 27.5859V27.5859Z" fill="#4B53BC"/>
<path d="M46.7726 30.9798H44.2309V37.3339H42.9601V30.9798H40.4185V29.709H46.7726V30.9798Z" fill="white"/>
<path d="M50.253 55.2505C50.2536 55.3952 50.3115 55.5337 50.4141 55.6358C50.5166 55.7379 50.6554 55.7953 50.8001 55.7953C50.9448 55.7953 51.0836 55.7379 51.1861 55.6358C51.2886 55.5337 51.3465 55.3952 51.3472 55.2505V54.1134H51.5738C51.6276 54.1134 51.681 54.1028 51.7308 54.0822C51.7806 54.0616 51.8258 54.0313 51.8639 53.9932C51.902 53.9551 51.9322 53.9099 51.9529 53.8601C51.9735 53.8103 51.9841 53.757 51.9841 53.7031V52.3297C51.984 51.8047 51.8064 51.2952 51.4801 50.8839C51.1537 50.4727 50.6979 50.184 50.1866 50.0647V48.674C50.1866 48.5289 50.129 48.3898 50.0264 48.2872C49.9238 48.1846 49.7846 48.127 49.6395 48.127C49.4944 48.127 49.3553 48.1846 49.2527 48.2872C49.1501 48.3898 49.0924 48.5289 49.0924 48.674V50.0647C48.5812 50.184 48.1253 50.4727 47.799 50.884C47.4726 51.2952 47.295 51.8047 47.2949 52.3297V53.7031C47.2949 53.757 47.3055 53.8104 47.3261 53.8602C47.3468 53.9099 47.377 53.9552 47.4151 53.9933C47.4532 54.0314 47.4984 54.0616 47.5482 54.0822C47.598 54.1028 47.6513 54.1134 47.7052 54.1134H47.9319V55.2505C47.9325 55.3952 47.9905 55.5338 48.093 55.6359C48.1955 55.738 48.3343 55.7953 48.479 55.7953C48.6237 55.7953 48.7625 55.738 48.865 55.6359C48.9676 55.5338 49.0255 55.3952 49.0261 55.2505V54.1134H50.253L50.253 55.2505Z" fill="white"/>
<path d="M53.1198 61.2793H63.8807C64.4573 61.2793 65.0104 61.5084 65.4181 61.9161C65.8259 62.3239 66.0549 62.8769 66.0549 63.4536V77.2365C66.0549 77.522 65.9987 77.8048 65.8894 78.0686C65.7802 78.3324 65.62 78.5721 65.4181 78.774C65.2162 78.9759 64.9765 79.136 64.7127 79.2453C64.4489 79.3545 64.1662 79.4108 63.8807 79.4108H35.3994C35.1138 79.4108 34.8311 79.3545 34.5673 79.2453C34.3035 79.136 34.0638 78.9759 33.8619 78.774C33.66 78.5721 33.4999 78.3324 33.3906 78.0686C33.2813 77.8048 33.2251 77.522 33.2251 77.2365V63.4536C33.2251 62.8769 33.4542 62.3239 33.8619 61.9161C34.2697 61.5084 34.8227 61.2793 35.3994 61.2793H46.1784" stroke="white" stroke-miterlimit="10" stroke-linecap="round"/>
<path d="M49.093 62.2402C49.093 62.3853 49.1506 62.5245 49.2532 62.6271C49.3558 62.7297 49.495 62.7873 49.6401 62.7873C49.7852 62.7873 49.9243 62.7297 50.0269 62.6271C50.1295 62.5245 50.1871 62.3853 50.1871 62.2402V60.8496C50.6984 60.7303 51.1543 60.4415 51.4806 60.0303C51.807 59.6191 51.9846 59.1095 51.9846 58.5846V57.3287C51.9846 57.2594 51.971 57.1907 51.9445 57.1267C51.9179 57.0626 51.879 57.0044 51.83 56.9554C51.781 56.9064 51.7228 56.8675 51.6588 56.841C51.5947 56.8144 51.5261 56.8008 51.4567 56.8008H47.8234C47.6834 56.8008 47.5491 56.8564 47.4501 56.9554C47.351 57.0544 47.2954 57.1887 47.2954 57.3288V58.5846C47.2954 59.1095 47.4731 59.6191 47.7994 60.0303C48.1258 60.4415 48.5816 60.7303 49.0929 60.8496L49.093 62.2402Z" fill="#50E6FF"/>
<path d="M63.1947 70.3448C63.1946 70.503 63.1318 70.6548 63.0199 70.7666C62.908 70.8785 62.7562 70.9414 62.598 70.9415H55.7005C55.5422 70.9415 55.3904 70.8786 55.2785 70.7667C55.1666 70.6548 55.1038 70.503 55.1038 70.3448C55.1038 70.1865 55.1666 70.0347 55.2785 69.9228C55.3904 69.8109 55.5422 69.748 55.7005 69.748H62.598C62.7562 69.7481 62.908 69.811 63.0199 69.9229C63.1318 70.0348 63.1946 70.1865 63.1947 70.3448V70.3448Z" fill="white"/>
<path d="M53.7616 70.3448C53.7615 70.503 53.6987 70.6548 53.5868 70.7666C53.4749 70.8785 53.3231 70.9414 53.1649 70.9415H46.2674C46.1091 70.9415 45.9573 70.8786 45.8454 70.7667C45.7335 70.6548 45.6707 70.503 45.6707 70.3448C45.6707 70.1865 45.7335 70.0347 45.8454 69.9228C45.9573 69.8109 46.1091 69.748 46.2674 69.748H53.1649C53.3231 69.7481 53.4749 69.811 53.5868 69.9229C53.6987 70.0348 53.7615 70.1865 53.7616 70.3448V70.3448Z" fill="white"/>
<path d="M63.1949 70.3454C63.1949 70.4634 63.1599 70.5787 63.0943 70.6768C63.0287 70.7749 62.9355 70.8514 62.8265 70.8966C62.7175 70.9417 62.5975 70.9535 62.4818 70.9305C62.3661 70.9075 62.2597 70.8507 62.1763 70.7672L59.6686 68.2592C59.6131 68.2039 59.5691 68.1381 59.539 68.0657C59.509 67.9933 59.4935 67.9156 59.4934 67.8372C59.4934 67.7588 59.5088 67.6812 59.5388 67.6087C59.5687 67.5363 59.6127 67.4704 59.6682 67.415C59.7236 67.3595 59.7894 67.3156 59.8619 67.2856C59.9343 67.2556 60.012 67.2402 60.0904 67.2402C60.1688 67.2403 60.2464 67.2558 60.3188 67.2858C60.3913 67.3159 60.457 67.36 60.5124 67.4155L63.0201 69.9235C63.0756 69.9788 63.1197 70.0445 63.1497 70.1169C63.1797 70.1894 63.195 70.267 63.1949 70.3454V70.3454Z" fill="white"/>
<path d="M63.1947 70.3447C63.1948 70.4231 63.1794 70.5007 63.1494 70.5731C63.1194 70.6455 63.0754 70.7112 63.0199 70.7666L60.5122 73.2746C60.4003 73.3862 60.2486 73.4489 60.0905 73.4488C59.9323 73.4488 59.7807 73.3859 59.6689 73.2741C59.5571 73.1623 59.4942 73.0107 59.4941 72.8525C59.4941 72.6944 59.5567 72.5427 59.6684 72.4308L62.1761 69.9228C62.2595 69.8393 62.3659 69.7825 62.4816 69.7595C62.5973 69.7365 62.7173 69.7483 62.8263 69.7935C62.9353 69.8386 63.0285 69.9151 63.0941 70.0132C63.1597 70.1113 63.1947 70.2267 63.1947 70.3447V70.3447Z" fill="white"/>
<path d="M35.9646 70.3448C35.9646 70.503 36.0275 70.6548 36.1394 70.7666C36.2513 70.8785 36.4031 70.9414 36.5613 70.9415H43.4588C43.6171 70.9415 43.7689 70.8786 43.8808 70.7667C43.9927 70.6548 44.0555 70.503 44.0555 70.3448C44.0555 70.1865 43.9927 70.0347 43.8808 69.9228C43.7689 69.8109 43.6171 69.748 43.4588 69.748H36.5613C36.4031 69.7481 36.2513 69.811 36.1394 69.9229C36.0275 70.0348 35.9646 70.1865 35.9646 70.3448V70.3448Z" fill="white"/>
<path d="M35.9646 70.3444C35.9646 70.4624 35.9996 70.5778 36.0652 70.6759C36.1308 70.774 36.224 70.8505 36.333 70.8956C36.442 70.9408 36.562 70.9526 36.6777 70.9296C36.7934 70.9066 36.8997 70.8497 36.9832 70.7663L39.4909 68.2583C39.6025 68.1464 39.6652 67.9947 39.6651 67.8365C39.6651 67.6784 39.6022 67.5268 39.4904 67.415C39.3786 67.3032 39.227 67.2403 39.0688 67.2402C38.9107 67.2401 38.759 67.3028 38.6471 67.4145L36.1394 69.9226C36.0839 69.9779 36.0399 70.0436 36.0099 70.116C35.9799 70.1884 35.9645 70.2661 35.9646 70.3444V70.3444Z" fill="white"/>
<path d="M35.9646 70.3447C35.9645 70.4231 35.9799 70.5007 36.0099 70.5731C36.0399 70.6455 36.0839 70.7112 36.1394 70.7666L38.6471 73.2746C38.759 73.3862 38.9107 73.4489 39.0688 73.4488C39.227 73.4488 39.3786 73.3859 39.4904 73.2741C39.6022 73.1623 39.6651 73.0107 39.6651 72.8525C39.6652 72.6944 39.6025 72.5427 39.4909 72.4308L36.9832 69.9228C36.8997 69.8393 36.7934 69.7825 36.6777 69.7595C36.562 69.7365 36.442 69.7483 36.333 69.7935C36.224 69.8386 36.1308 69.9151 36.0652 70.0132C35.9996 70.1113 35.9646 70.2267 35.9646 70.3447V70.3447Z" fill="white"/>
</g>
<defs>
<linearGradient id="paint0_linear" x1="47.8697" y1="-15.153" x2="51.8525" y2="130.615" gradientUnits="userSpaceOnUse">
<stop stop-color="#00ABDE"/>
<stop offset="1" stop-color="#007ED8"/>
</linearGradient>
<clipPath id="clip0">
<rect width="99.2799" height="99.28" fill="white"/>
</clipPath>
</defs>
</svg>
