<svg width="103" height="103" viewBox="0 0 103 103" fill="none" xmlns="http://www.w3.org/2000/svg">
<path d="M51.0571 98.6754C25.2071 98.6754 4.24707 77.7254 4.24707 51.8654C4.24707 26.0054 25.2071 5.05542 51.0571 5.05542C76.9071 5.05542 97.8671 26.0154 97.8671 51.8654C97.8671 77.7154 76.9071 98.6754 51.0571 98.6754Z" fill="url(#paint0_linear)"/>
<path fill-rule="evenodd" clip-rule="evenodd" d="M96.957 51.8656C96.957 77.2156 76.407 97.7656 51.057 97.7656C25.707 97.7656 5.15699 77.2156 5.15699 51.8656C5.15699 26.5156 25.707 5.96559 51.057 5.96559C76.407 5.96559 96.957 26.5156 96.957 51.8656ZM51.057 2.22559C78.477 2.22559 100.697 24.4456 100.697 51.8656C100.697 79.2856 78.467 101.506 51.057 101.506C23.637 101.506 1.41699 79.2756 1.41699 51.8656C1.41699 24.4456 23.637 2.22559 51.057 2.22559Z" fill="#F2F1F0"/>
<path fill-rule="evenodd" clip-rule="evenodd" d="M94.1466 51.8654C94.1466 75.6654 74.8566 94.9554 51.0566 94.9554C27.2566 94.9554 7.96656 75.6654 7.96656 51.8654C7.96656 28.0654 27.2566 8.7754 51.0566 8.7754C74.8566 8.7754 94.1466 28.0654 94.1466 51.8654ZM51.0566 5.0354C76.9166 5.0354 97.8866 26.0054 97.8866 51.8654C97.8866 77.7254 76.9166 98.6954 51.0566 98.6954C25.1966 98.6954 4.22656 77.7254 4.22656 51.8654C4.22656 26.0054 25.1866 5.0354 51.0566 5.0354Z" fill="url(#paint1_linear)"/>
<path d="M27.0262 43.0155C33.3462 35.5655 40.0262 28.0355 48.5562 23.0555C56.1562 18.6155 68.9762 14.5355 75.1962 23.2455C76.7662 25.4455 77.5162 28.1255 77.4062 30.8255C77.3462 32.2555 77.0462 33.6855 76.5562 35.0255C76.0462 36.3855 75.2962 37.6055 74.5162 38.8255C74.3462 39.0855 74.8162 39.6155 75.0562 39.3555C76.7862 37.5255 77.7662 34.8855 78.0962 32.4155C78.4262 29.9455 78.1062 27.4155 77.0862 25.1255C76.1362 22.9955 74.5862 21.1055 72.6962 19.7555C70.6962 18.3255 68.4162 17.6155 65.9762 17.4055C60.8162 16.9755 55.5762 18.5255 50.9762 20.7555C46.3862 22.9855 42.2462 26.0555 38.4862 29.4855C34.1262 33.4555 30.2262 37.9055 26.4562 42.4355C26.2162 42.7155 26.7862 43.3055 27.0262 43.0155Z" fill="white"/>
<path d="M68.0869 65.2055C62.7969 71.4455 57.1969 77.7355 50.0769 81.9255C43.7469 85.6355 33.0469 89.1255 27.7769 81.9455C26.4069 80.0855 25.7669 77.7955 25.8569 75.4855C25.9069 74.3255 26.1469 73.1655 26.5469 72.0755C26.9669 70.8955 27.6269 69.8655 28.2769 68.8055C28.4369 68.5355 27.9869 68.0155 27.7369 68.2755C26.2569 69.7855 25.4469 72.0355 25.1669 74.0955C24.8869 76.1455 25.1369 78.2355 25.9569 80.1455C27.5769 83.9255 31.1169 86.4155 35.1769 86.8155C39.5569 87.2455 44.0169 85.9555 47.9369 84.0755C51.8269 82.2055 55.3269 79.6255 58.5169 76.7255C62.2069 73.3655 65.5069 69.6055 68.6969 65.7755C68.9069 65.5155 68.3269 64.9255 68.0869 65.2055Z" fill="white"/>
<path opacity="0.15" d="M51.5471 31.0554H19.2571C18.5571 31.0554 17.9971 31.6154 17.9971 32.3154V74.4554C17.9971 75.1554 18.5571 75.7154 19.2571 75.7154H51.5471C52.2471 75.7154 52.8071 75.1554 52.8071 74.4554V32.3154C52.7971 31.6154 52.2371 31.0554 51.5471 31.0554Z" fill="#1F1D20"/>
<path d="M51.5471 29.3555H19.2571C18.5571 29.3555 17.9971 29.9155 17.9971 30.6155V72.7555C17.9971 73.4555 18.5571 74.0155 19.2571 74.0155H51.5471C52.2471 74.0155 52.8071 73.4555 52.8071 72.7555V30.6155C52.7971 29.9155 52.2371 29.3555 51.5471 29.3555Z" fill="#F2F2F2"/>
<path d="M39.787 51.7154H36.357V48.2854H34.637V51.7154H31.207V53.4354H34.637V56.8654H36.357V53.4354H39.787V51.7154Z" fill="white"/>
<path opacity="0.15" d="M83.3075 30.8755H57.1375C55.9275 30.8755 54.9375 31.8555 54.9375 33.0755V49.5255C54.9375 50.7355 55.9175 51.7255 57.1375 51.7255H82.5775C83.7875 51.7255 84.7775 50.7455 84.7775 49.5255V32.3455C84.7675 31.5255 84.1075 30.8755 83.3075 30.8755Z" fill="#1F1D20"/>
<path d="M56.5775 50.3554H83.1375C84.0375 50.3554 84.7775 49.6254 84.7775 48.7154V31.1454C84.7775 30.2454 84.0475 29.5054 83.1375 29.5054H56.5775C55.6775 29.5054 54.9375 30.2354 54.9375 31.1454V48.7154C54.9475 49.6154 55.6775 50.3554 56.5775 50.3554Z" fill="#F2F2F2"/>
<path opacity="0.15" d="M83.3075 54.6555H57.1375C55.9275 54.6555 54.9375 55.6355 54.9375 56.8555V73.3055C54.9375 74.5155 55.9175 75.5055 57.1375 75.5055H82.5775C83.7875 75.5055 84.7775 74.5255 84.7775 73.3055V56.1255C84.7675 55.3155 84.1075 54.6555 83.3075 54.6555Z" fill="#1F1D20"/>
<path d="M56.5775 74.1354H83.1375C84.0375 74.1354 84.7775 73.4054 84.7775 72.4954V54.9354C84.7775 54.0354 84.0475 53.2954 83.1375 53.2954H56.5775C55.6775 53.2954 54.9375 54.0254 54.9375 54.9354V72.5054C54.9475 73.4054 55.6775 74.1354 56.5775 74.1354Z" fill="#F2F2F2"/>
<path d="M60.9864 19.3056C61.7707 19.3056 62.4064 18.6698 62.4064 17.8856C62.4064 17.1013 61.7707 16.4656 60.9864 16.4656C60.2022 16.4656 59.5664 17.1013 59.5664 17.8856C59.5664 18.6698 60.2022 19.3056 60.9864 19.3056Z" fill="white"/>
<path d="M41.4263 87.0155C42.0835 87.0155 42.6163 86.4827 42.6163 85.8255C42.6163 85.1683 42.0835 84.6355 41.4263 84.6355C40.7691 84.6355 40.2363 85.1683 40.2363 85.8255C40.2363 86.4827 40.7691 87.0155 41.4263 87.0155Z" fill="white"/>
<g opacity="0.15">
<path opacity="0.15" d="M22.707 44.8054V62.3154C22.707 62.5354 22.887 62.7254 23.117 62.7254H47.787C48.007 62.7254 48.197 62.5454 48.197 62.3154V44.8054H22.707Z" fill="#1F1D20"/>
</g>
<path d="M21.667 43.8755V61.0055C21.667 61.4155 21.997 61.7355 22.397 61.7355H48.487C48.897 61.7355 49.217 61.4055 49.217 61.0055V43.8755C49.217 43.4655 48.887 43.1455 48.487 43.1455H22.407C21.997 43.1455 21.667 43.4755 21.667 43.8755Z" fill="#092E4C"/>
<path d="M40.0369 47.5454H30.6869C30.2169 47.5454 29.8369 47.1654 29.8369 46.6954V38.8954C29.8369 38.4254 30.2169 38.0454 30.6869 38.0454H40.0369C40.5069 38.0454 40.8869 38.4254 40.8869 38.8954V46.6954C40.8869 47.1654 40.4969 47.5454 40.0369 47.5454ZM31.5369 45.8454H39.1869V39.7454H31.5369V45.8454V45.8454Z" fill="#092E4C"/>
<path opacity="0.15" d="M39.7472 51.8055H36.3172V48.3755H34.5972V51.8055H31.1572V53.5255H34.5872V56.9555H36.3072V53.5255H39.7372V51.8055H39.7472Z" fill="#1F1D20"/>
<path d="M39.7472 51.2454H36.3172V47.8154H34.5972V51.2454H31.1572V52.9654H34.5872V56.3954H36.3072V52.9654H39.7372V51.2454H39.7472Z" fill="white"/>
<g opacity="0.15">
<g opacity="0.15">
<path opacity="0.15" d="M77.1262 70.3255C76.9062 70.3255 76.6962 70.2555 76.5062 70.1355C76.3262 70.0155 76.1762 69.8355 76.0962 69.6355C76.0162 69.4355 75.9862 69.2055 76.0362 68.9955C76.0762 68.7755 76.1862 68.5855 76.3362 68.4255C76.4962 68.2655 76.6862 68.1655 76.9062 68.1255C77.1262 68.0855 77.3462 68.1055 77.5462 68.1855C77.7462 68.2655 77.9262 68.4155 78.0462 68.5955C78.1662 68.7755 78.2362 68.9955 78.2362 69.2155C78.2362 69.5055 78.1162 69.7955 77.9062 70.0055C77.7062 70.2055 77.4262 70.3255 77.1262 70.3255Z" fill="#1F1D20"/>
<path opacity="0.15" d="M77.1266 60.3255C77.7366 60.3255 78.2366 59.8255 78.2366 59.2155C78.2366 58.6055 77.7366 58.1055 77.1266 58.1055C76.5166 58.1055 76.0166 58.6055 76.0166 59.2155C76.0166 59.8255 76.5166 60.3255 77.1266 60.3255Z" fill="#1F1D20"/>
<path opacity="0.15" d="M77.1266 63.6555C77.7366 63.6555 78.2366 63.1555 78.2366 62.5455C78.2366 61.9355 77.7366 61.4355 77.1266 61.4355C76.5166 61.4355 76.0166 61.9355 76.0166 62.5455C76.0166 63.1555 76.5166 63.6555 77.1266 63.6555Z" fill="#1F1D20"/>
<path opacity="0.15" d="M77.1266 66.9954C77.7366 66.9954 78.2366 66.4954 78.2366 65.8854C78.2366 65.2754 77.7366 64.7754 77.1266 64.7754C76.5166 64.7754 76.0166 65.2754 76.0166 65.8854C76.0166 66.4954 76.5166 66.9954 77.1266 66.9954Z" fill="#1F1D20"/>
</g>
<path opacity="0.15" d="M65.1465 59.3656H63.2465V57.4656H62.2965V59.3656H60.3965V60.3156H62.2965V62.2156H63.2465V60.3156H65.1465V59.3656Z" fill="#1F1D20"/>
<path opacity="0.15" d="M67.6865 64.3755H72.1365V67.1555C72.1365 67.7455 71.9065 68.3055 71.4865 68.7255C71.0665 69.1455 70.5065 69.3755 69.9165 69.3755C69.3265 69.3755 68.7665 69.1455 68.3465 68.7255C67.9265 68.3055 67.6965 67.7455 67.6965 67.1555V64.3755H67.6865Z" fill="#1F1D20"/>
</g>
<path d="M67.6865 63.8755H72.1365V66.6555C72.1365 67.2455 71.9065 67.8055 71.4865 68.2255C71.0665 68.6455 70.5065 68.8755 69.9165 68.8755C69.3265 68.8755 68.7665 68.6455 68.3465 68.2255C67.9265 67.8055 67.6965 67.2455 67.6965 66.6555V63.8755H67.6865Z" fill="#092E4C"/>
<path d="M67.6865 63.8755V61.0955C67.6865 60.5055 67.9165 59.9455 68.3365 59.5255C68.7565 59.1055 69.3165 58.8755 69.9065 58.8755C70.4965 58.8755 71.0565 59.1055 71.4765 59.5255C71.8965 59.9455 72.1265 60.5055 72.1265 61.0955V63.8755H67.6865Z" fill="#0078D4"/>
<path opacity="0.15" fill-rule="evenodd" clip-rule="evenodd" d="M76.027 35.4556L75.887 35.3156C74.267 33.6956 71.647 33.6956 70.027 35.3156L69.877 35.4656L69.717 35.3056C68.097 33.6856 65.477 33.6856 63.857 35.3056L63.717 35.4456C62.097 37.0656 62.097 39.6856 63.717 41.3056L63.877 41.4656L69.877 47.4656L76.027 41.3156C77.647 39.7056 77.647 37.0756 76.027 35.4556Z" fill="#1F1D20"/>
<path fill-rule="evenodd" clip-rule="evenodd" d="M75.867 40.4255L69.867 46.4255L63.717 40.2755C62.097 38.6555 62.097 36.0355 63.717 34.4155L63.857 34.2755C65.477 32.6555 68.097 32.6555 69.717 34.2755L75.867 40.4255Z" fill="#092E4C"/>
<path fill-rule="evenodd" clip-rule="evenodd" d="M69.8672 46.4356L63.8672 40.4356L70.0172 34.2856C71.6372 32.6656 74.2572 32.6656 75.8772 34.2856L76.0172 34.4256C77.6372 36.0456 77.6372 38.6656 76.0172 40.2856L69.8672 46.4356Z" fill="#0078D4"/>
<path d="M77.1262 69.9854C76.9062 69.9854 76.6962 69.9154 76.5062 69.7954C76.3262 69.6754 76.1762 69.4954 76.0962 69.2954C76.0162 69.0954 75.9862 68.8654 76.0362 68.6554C76.0762 68.4354 76.1862 68.2454 76.3362 68.0854C76.4962 67.9254 76.6862 67.8254 76.9062 67.7854C77.1262 67.7454 77.3462 67.7654 77.5462 67.8454C77.7462 67.9254 77.9262 68.0754 78.0462 68.2554C78.1662 68.4354 78.2362 68.6554 78.2362 68.8754C78.2362 69.1654 78.1162 69.4554 77.9062 69.6654C77.7062 69.8654 77.4262 69.9854 77.1262 69.9854Z" fill="#092E4C"/>
<path d="M77.1266 59.9854C77.7366 59.9854 78.2366 59.4854 78.2366 58.8754C78.2366 58.2654 77.7366 57.7654 77.1266 57.7654C76.5166 57.7654 76.0166 58.2654 76.0166 58.8754C76.0166 59.4854 76.5166 59.9854 77.1266 59.9854Z" fill="#50E6FF"/>
<path d="M77.1266 63.3155C77.7366 63.3155 78.2366 62.8155 78.2366 62.2055C78.2366 61.5955 77.7366 61.0955 77.1266 61.0955C76.5166 61.0955 76.0166 61.5955 76.0166 62.2055C76.0166 62.8155 76.5166 63.3155 77.1266 63.3155Z" fill="#3BCAF4"/>
<path d="M77.1266 66.6553C77.7366 66.6553 78.2366 66.1553 78.2366 65.5453C78.2366 64.9353 77.7366 64.4353 77.1266 64.4353C76.5166 64.4353 76.0166 64.9353 76.0166 65.5453C76.0166 66.1553 76.5166 66.6553 77.1266 66.6553Z" fill="#0078D4"/>
<path d="M65.1465 59.0255H63.2465V57.1255H62.2965V59.0255H60.3965V59.9755H62.2965V61.8755H63.2465V59.9755H65.1465V59.0255Z" fill="#0078D4"/>
<path d="M69.9065 64.5456C71.1326 64.5456 72.1265 64.2456 72.1265 63.8756C72.1265 63.5055 71.1326 63.2056 69.9065 63.2056C68.6805 63.2056 67.6865 63.5055 67.6865 63.8756C67.6865 64.2456 68.6805 64.5456 69.9065 64.5456Z" fill="#0078D4"/>
<path d="M68.3469 63.5054C68.3769 64.0954 68.6169 64.1054 68.5869 63.5154C68.5669 63.1654 68.5669 61.0354 68.5869 60.7054C68.6269 60.0954 68.4269 59.9454 68.3769 60.7554C68.2969 61.8354 68.2969 62.3854 68.3469 63.5054Z" fill="#50E6FF"/>
<path d="M66.7869 33.0555C67.8469 33.0555 68.9069 33.4555 69.7169 34.2655L69.8769 34.4255L70.0269 34.2755C70.8369 33.4655 71.8969 33.0655 72.9569 33.0655C74.0169 33.0655 75.0769 33.4655 75.8869 34.2755L76.0269 34.4155C77.6469 36.0355 77.6469 38.6555 76.0269 40.2755L69.8769 46.4255L63.8769 40.4255L63.7169 40.2655C62.0969 38.6455 62.0969 36.0255 63.7169 34.4055L63.8569 34.2655C64.6669 33.4555 65.7269 33.0555 66.7869 33.0555ZM66.7869 32.6555C65.5769 32.6555 64.4269 33.1255 63.5769 33.9855L63.4369 34.1255C61.6669 35.8955 61.6669 38.7855 63.4369 40.5555L63.5569 40.6755C63.5669 40.6955 63.5769 40.7055 63.5969 40.7255L69.5969 46.7255C69.6769 46.8055 69.7769 46.8455 69.8769 46.8455C69.9769 46.8455 70.0869 46.8055 70.1569 46.7255L76.3069 40.5755C77.1669 39.7155 77.6369 38.5755 77.6369 37.3655C77.6369 36.1555 77.1669 35.0055 76.3069 34.1555L76.1669 34.0155C75.3069 33.1555 74.1669 32.6855 72.9569 32.6855C71.8069 32.6855 70.7169 33.1155 69.8769 33.8855C69.0369 33.0855 67.9369 32.6555 66.7869 32.6555Z" fill="#50E6FF"/>
<path d="M69.9067 58.8754C70.4967 58.8754 71.0567 59.1054 71.4767 59.5254C71.8967 59.9454 72.1267 60.5054 72.1267 61.0954V63.8754V66.6554C72.1267 67.2454 71.8967 67.8054 71.4767 68.2254C71.0567 68.6454 70.4967 68.8754 69.9067 68.8754C69.3167 68.8754 68.7567 68.6454 68.3367 68.2254C67.9167 67.8054 67.6867 67.2454 67.6867 66.6554V63.8754V61.0954C67.6867 60.5054 67.9167 59.9454 68.3367 59.5254C68.7467 59.1054 69.3167 58.8754 69.9067 58.8754ZM69.9067 58.5754C69.2367 58.5754 68.5967 58.8354 68.1267 59.3154C67.6467 59.7954 67.3867 60.4254 67.3867 61.0954V63.8754V64.0154V66.6454C67.3867 67.3154 67.6467 67.9554 68.1267 68.4254C68.6067 68.9054 69.2367 69.1654 69.9067 69.1654C70.5767 69.1654 71.2167 68.9054 71.6867 68.4254C72.1567 67.9454 72.4267 67.3154 72.4267 66.6454V63.8654V63.5654V61.0854C72.4267 60.4154 72.1667 59.7754 71.6867 59.3054C71.2167 58.8354 70.5767 58.5754 69.9067 58.5754Z" fill="#50E6FF"/>
<defs>
<linearGradient id="paint0_linear" x1="49.2872" y1="-12.9242" x2="53.2692" y2="132.846" gradientUnits="userSpaceOnUse">
<stop stop-color="#00ABDE"/>
<stop offset="1" stop-color="#007ED8"/>
</linearGradient>
<linearGradient id="paint1_linear" x1="2.48976" y1="-19.7595" x2="98.0178" y2="121.122" gradientUnits="userSpaceOnUse">
<stop stop-color="#007ED8"/>
<stop offset="0.7065" stop-color="#002D4C"/>
</linearGradient>
</defs>
</svg>
