<?xml version="1.0" encoding="UTF-8"?>
<svg width="102px" height="102px" viewBox="0 0 102 102" version="1.1" xmlns="http://www.w3.org/2000/svg" xmlns:xlink="http://www.w3.org/1999/xlink">
    <title>Use DAX in Power BI Desktop/m6-use-dax-time-intelligence-functions-in-power-bi-desktop-models</title>
    <defs>
        <rect id="path-1" x="0" y="0" width="94.3396226" height="94.3396226" rx="47.1698113"></rect>
        <filter x="-2.9%" y="-2.9%" width="106.4%" height="106.4%" filterUnits="objectBoundingBox" id="filter-3">
            <feMorphology radius="2.5" operator="dilate" in="SourceAlpha" result="shadowSpreadOuter1"></feMorphology>
            <feOffset dx="0.5" dy="0.5" in="shadowSpreadOuter1" result="shadowOffsetOuter1"></feOffset>
            <feMorphology radius="1" operator="erode" in="SourceAlpha" result="shadowInner"></feMorphology>
            <feOffset dx="0.5" dy="0.5" in="shadowInner" result="shadowInner"></feOffset>
            <feComposite in="shadowOffsetOuter1" in2="shadowInner" operator="out" result="shadowOffsetOuter1"></feComposite>
            <feColorMatrix values="0 0 0 0 0.821822822   0 0 0 0 0.831640661   0 0 0 0 0.835737288  0 0 0 1 0" type="matrix" in="shadowOffsetOuter1"></feColorMatrix>
        </filter>
        <linearGradient x1="50%" y1="0%" x2="50%" y2="100%" id="linearGradient-4">
            <stop stop-color="#4E4E57" offset="0%"></stop>
            <stop stop-color="#2E2E34" offset="100%"></stop>
        </linearGradient>
        <rect id="path-5" x="0" y="0" width="94.3396226" height="94.3396226"></rect>
        <path d="M48.1132075,0.739331515 C74.2770768,0.739331515 95.4870836,21.9493383 95.4870836,48.1132075 C95.4870836,74.2770768 74.2770768,95.4870836 48.1132075,95.4870836 C21.9493383,95.4870836 0.739331515,74.2770768 0.739331515,48.1132075 C0.739331515,21.9493383 21.9493383,0.739331515 48.1132075,0.739331515 Z M48.1132075,4.71698113 C24.1461335,4.71698113 4.71698113,24.1461335 4.71698113,48.1132075 C4.71698113,72.0802816 24.1461335,91.509434 48.1132075,91.509434 C72.0802816,91.509434 91.509434,72.0802816 91.509434,48.1132075 C91.509434,24.1461335 72.0802816,4.71698113 48.1132075,4.71698113 Z" id="path-6"></path>
        <linearGradient x1="50%" y1="0.670396959%" x2="50%" y2="100%" id="linearGradient-8">
            <stop stop-color="#6A6A6A" offset="0%"></stop>
            <stop stop-color="#343333" offset="100%"></stop>
        </linearGradient>
        <linearGradient x1="50%" y1="100%" x2="50%" y2="0%" id="linearGradient-9">
            <stop stop-color="#CCCCCC" offset="15%"></stop>
            <stop stop-color="#707070" offset="100%"></stop>
        </linearGradient>
        <linearGradient x1="50%" y1="-9.93901477%" x2="50%" y2="100%" id="linearGradient-10">
            <stop stop-color="#FFFFFF" offset="0%"></stop>
            <stop stop-color="#CBCBCB" offset="100%"></stop>
        </linearGradient>
        <polygon id="path-11" points="0.000718579882 0.0287431953 45.989831 0.0287431953 45.989831 45.9891124 0.000718579882 45.9891124"></polygon>
        <linearGradient x1="-78.2380608%" y1="50%" x2="100%" y2="50%" id="linearGradient-13">
            <stop stop-color="#C28626" offset="0%"></stop>
            <stop stop-color="#EFB252" offset="100%"></stop>
        </linearGradient>
        <linearGradient x1="50%" y1="100%" x2="50%" y2="0%" id="linearGradient-14">
            <stop stop-color="#D2EBFF" offset="0%"></stop>
            <stop stop-color="#F0FFFD" offset="100%"></stop>
        </linearGradient>
    </defs>
    <g id="Badges" stroke="none" stroke-width="1" fill="none" fill-rule="evenodd">
        <g id="Use-DAX-in-Power-BI-Desktop" transform="translate(-159.000000, -1269.000000)">
            <g id="Use-DAX-in-Power-BI-Desktop/m6-use-dax-time-intelligence-functions-in-power-bi-desktop-models" transform="translate(160.000000, 1270.000000)">
                <g id="Badge-Plates/Circle">
                    <g id="BG" transform="translate(2.830189, 2.830189)">
                        <mask id="mask-2" fill="white">
                            <use xlink:href="#path-1"></use>
                        </mask>
                        <g>
                            <use fill="black" fill-opacity="1" filter="url(#filter-3)" xlink:href="#path-1"></use>
                            <rect stroke="#F2F1F0" stroke-width="2.5" x="-1.25" y="-1.25" width="96.8396226" height="96.8396226" rx="48.4198113"></rect>
                        </g>
                        <g id="Colors/Power-BI/BG-Solid-1" mask="url(#mask-2)">
                            <rect id="Rectangle" fill="url(#linearGradient-4)" x="0" y="0" width="94.3396226" height="94.3396226"></rect>
                            <g id="Rectangle">
                                <use fill="#F2C811" xlink:href="#path-5"></use>
                                <use fill-opacity="0.501092657" fill="#FFFFFF" xlink:href="#path-5"></use>
                            </g>
                        </g>
                    </g>
                    <g id="Border" transform="translate(1.886792, 1.886792)">
                        <mask id="mask-7" fill="white">
                            <use xlink:href="#path-6"></use>
                        </mask>
                        <use id="Boarder" fill="#0078D4" fill-rule="nonzero" xlink:href="#path-6"></use>
                        <g id="Colors/Power-BI/Border" mask="url(#mask-7)" fill="#F3C900">
                            <g transform="translate(-1.886792, -1.886792)" id="Rectangle">
                                <rect x="0" y="0" width="100" height="100"></rect>
                            </g>
                        </g>
                    </g>
                </g>
                <g id="Group" transform="translate(17.000000, 24.000000)" fill-rule="nonzero">
                    <g id="Computer">
                        <rect id="Rectangle" fill="url(#linearGradient-8)" x="0" y="0" width="66" height="45.8644068" rx="0.6"></rect>
                        <path d="M47.020283,59.8969872 C40.3830225,58.8145843 40.1220066,53.8664568 40.1220066,45.8644068 L26.9593495,45.8644068 C26.9593495,53.8664568 26.7356216,58.8145843 20.098361,59.8969872 C18.2006454,60.1146859 16.7681482,61.7833381 16.779661,63.7627119 L50.3389831,63.7627119 C50.3504958,61.7833381 48.9179986,60.1146859 47.020283,59.8969872 Z" id="Path" fill="url(#linearGradient-9)"></path>
                    </g>
                </g>
                <g id="Group-5" transform="translate(27.000000, 19.500000)">
                    <g id="Group-2">
                        <path d="M43.1155115,22.9945562 C43.1155115,34.1066755 34.1073941,43.1147929 22.9952748,43.1147929 C11.8831555,43.1147929 2.87503811,34.1066755 2.87503811,22.9945562 C2.87503811,11.8824369 11.8831555,2.87431953 22.9952748,2.87431953 C34.1073941,2.87431953 43.1155115,11.8824369 43.1155115,22.9945562" id="Fill-29" fill="url(#linearGradient-10)"></path>
                        <g id="Group-33">
                            <mask id="mask-12" fill="white">
                                <use xlink:href="#path-11"></use>
                            </mask>
                            <g id="Clip-31"></g>
                            <path d="M22.9952748,2.87431953 C11.9004014,2.87431953 2.87503811,11.9004014 2.87503811,22.9945562 C2.87503811,34.0894296 11.9004014,43.1147929 22.9952748,43.1147929 C34.0894296,43.1147929 43.1155115,34.0894296 43.1155115,22.9945562 C43.1155115,11.9004014 34.0894296,2.87431953 22.9952748,2.87431953 Z M22.9952748,45.9891124 C10.3159328,45.9891124 0.000718579882,35.6738982 0.000718579882,22.9945562 C0.000718579882,10.3152142 10.3159328,0 22.9952748,0 C35.6746168,0 45.989831,10.3152142 45.989831,22.9945562 C45.989831,35.6738982 35.6746168,45.9891124 22.9952748,45.9891124 L22.9952748,45.9891124 Z" id="Fill-32" fill="url(#linearGradient-13)" mask="url(#mask-12)"></path>
                        </g>
                        <g id="Group-4" transform="translate(20.142730, 9.385089)">
                            <path d="M3.12201183,14.5063314 C2.1791003,14.5063314 1.41538462,13.7417624 1.41538462,12.7997041 C1.41538462,12.7997041 2.1791003,7.54268443e-15 3.12201183,7.54268443e-15 C4.06407006,7.54268443e-15 4.82863905,12.7997041 4.82863905,12.7997041 C4.82863905,13.7417624 4.06407006,14.5063314 3.12201183,14.5063314" id="Fill-34" fill="#F3C900"></path>
                            <path d="M1.70662722,11.0930769 C2.14352379,11.0930769 2.58042036,11.2594731 2.91321266,11.5931187 C2.91321266,11.5931187 13.4661421,23.2263431 12.7997041,23.8927811 C12.1341195,24.559219 0.500041775,14.0062896 0.500041775,14.0062896 C-0.166396154,13.3398517 -0.166396154,12.2595566 0.500041775,11.5931187 C0.832834083,11.2594731 1.26973065,11.0930769 1.70662722,11.0930769" id="Fill-35" fill="#D3AF06"></path>
                        </g>
                        <path d="M41.6565766,22.9945562 C41.6565766,23.7878684 41.012729,24.431716 40.2194168,24.431716 C39.425386,24.431716 38.782257,23.7878684 38.782257,22.9945562 C38.782257,22.201244 39.425386,21.5573964 40.2194168,21.5573964 C41.012729,21.5573964 41.6565766,22.201244 41.6565766,22.9945562" id="Fill-36" fill="#AAB0B1"></path>
                        <path d="M35.7337363,10.400404 C35.7337363,11.1937162 35.0898888,11.8375638 34.2965766,11.8375638 C33.5025458,11.8375638 32.8594168,11.1937162 32.8594168,10.400404 C32.8594168,9.60709183 33.5025458,8.96324426 34.2965766,8.96324426 C35.0898888,8.96324426 35.7337363,9.60709183 35.7337363,10.400404" id="Fill-36" fill="#AAB0B1"></path>
                        <path d="M7.20829254,22.9945562 C7.20829254,23.7878684 6.56444497,24.431716 5.77113278,24.431716 C4.97710201,24.431716 4.33397302,23.7878684 4.33397302,22.9945562 C4.33397302,22.201244 4.97710201,21.5573964 5.77113278,21.5573964 C6.56444497,21.5573964 7.20829254,22.201244 7.20829254,22.9945562" id="Fill-37" fill="#AAB0B1"></path>
                        <path d="M22.9952748,41.655858 C22.201244,41.655858 21.558115,41.0120104 21.558115,40.2186982 C21.558115,39.425386 22.201244,38.7815385 22.9952748,38.7815385 C23.788587,38.7815385 24.4324346,39.425386 24.4324346,40.2186982 C24.4324346,41.0120104 23.788587,41.655858 22.9952748,41.655858" id="Fill-38" fill="#AAB0B1"></path>
                        <path d="M22.9952748,7.20757396 C22.201244,7.20757396 21.558115,6.56372639 21.558115,5.7704142 C21.558115,4.97710201 22.201244,4.33325444 22.9952748,4.33325444 C23.788587,4.33325444 24.4324346,4.97710201 24.4324346,5.7704142 C24.4324346,6.56372639 23.788587,7.20757396 22.9952748,7.20757396" id="Fill-39" fill="#AAB0B1"></path>
                        <path d="M35.8979863,36.60496 C35.3360568,37.1661709 34.4263347,37.1661709 33.8651238,36.60496 C33.3039129,36.0437491 33.3039129,35.1333084 33.8651238,34.5728161 C34.4263347,34.0108866 35.3360568,34.0108866 35.8979863,34.5728161 C36.4584786,35.1333084 36.4584786,36.0437491 35.8979863,36.60496" id="Fill-40" fill="#AAB0B1"></path>
                        <path d="M12.1254258,11.4162963 C11.5642149,11.9782258 10.6537742,11.9782258 10.0925633,11.4162963 C9.53135243,10.855804 9.53135243,9.94608189 10.0925633,9.38415243 C10.6537742,8.82294154 11.5642149,8.82294154 12.1254258,9.38415243 C12.6859181,9.94608189 12.6859181,10.855804 12.1254258,11.4162963" id="Fill-41" fill="#AAB0B1"></path>
                        <path d="M10.0925633,36.60496 C9.53135243,36.0437491 9.53135243,35.1333084 10.0925633,34.5728161 C10.6537742,34.0108866 11.5642149,34.0108866 12.1254258,34.5728161 C12.6859181,35.1333084 12.6859181,36.0437491 12.1254258,36.60496 C11.5642149,37.1661709 10.6537742,37.1661709 10.0925633,36.60496" id="Fill-42" fill="#AAB0B1"></path>
                        <path d="M32.3368133,22.9945562 C32.3368133,28.1510854 28.1549179,32.3360947 22.9952748,32.3360947 C17.8356317,32.3360947 13.6537363,28.1510854 13.6537363,22.9945562 C13.6537363,17.838027 17.8356317,13.6530178 22.9952748,13.6530178 C28.1549179,13.6530178 32.3368133,17.838027 32.3368133,22.9945562" id="Fill-49" fill="#30404D"></path>
                    </g>
                    <path d="M17.1262799,28.9846416 C17.7406143,28.9846416 18.2855518,28.8242321 18.7610922,28.503413 C19.2366325,28.1825939 19.6518771,27.6877133 20.0068259,27.0187713 C20.3617747,26.3498294 20.7258248,25.2713311 21.0989761,23.7832765 L21.0989761,23.7832765 L21.8976109,20.6296928 L22.8600683,20.6296928 L23.0989761,19.831058 L22.109215,19.831058 C22.3913538,18.6797497 22.7645051,17.837884 23.2286689,17.3054608 C23.5108077,16.9732651 23.7861206,16.8071672 24.0546075,16.8071672 C24.109215,16.8071672 24.1535836,16.8230944 24.1877133,16.8549488 C24.221843,16.8868032 24.2389078,16.9277588 24.2389078,16.9778157 C24.2389078,17.023322 24.2013652,17.1097838 24.1262799,17.2372014 C24.0511945,17.3646189 24.0136519,17.4852105 24.0136519,17.5989761 C24.0136519,17.758248 24.07281,17.8947668 24.1911263,18.0085324 C24.3094425,18.1222981 24.4596132,18.1791809 24.6416382,18.1791809 C24.8373151,18.1791809 25.0011377,18.1097838 25.1331058,17.9709898 C25.2650739,17.8321957 25.331058,17.6444824 25.331058,17.4078498 C25.331058,17.1393629 25.2320819,16.9209329 25.0341297,16.7525597 C24.8361775,16.5841866 24.5187713,16.5 24.0819113,16.5 C23.3993174,16.5 22.7804323,16.7002275 22.225256,17.1006826 C21.6700796,17.5011377 21.1422071,18.1632537 20.6416382,19.0870307 C20.4687144,19.4055745 20.3048919,19.6103527 20.1501706,19.7013652 C19.9954494,19.7923777 19.7474403,19.8356086 19.4061433,19.831058 L19.4061433,19.831058 L19.1808874,20.6296928 L20.1296928,20.6296928 L18.7372014,26.0836177 C18.5051195,26.980091 18.3481229,27.532992 18.2662116,27.7423208 C18.1478953,28.0472127 17.9681456,28.3065984 17.7269625,28.5204778 C17.6313993,28.6069397 17.5153584,28.6501706 17.3788396,28.6501706 C17.3424346,28.6501706 17.3105802,28.6387941 17.2832765,28.616041 L17.2832765,28.616041 L17.2491468,28.5682594 C17.2491468,28.5455063 17.2832765,28.4988623 17.3515358,28.4283276 C17.4197952,28.3577929 17.4539249,28.2497156 17.4539249,28.1040956 C17.4539249,27.9448237 17.3993174,27.8128555 17.2901024,27.7081911 C17.1808874,27.6035267 17.0238908,27.5511945 16.8191126,27.5511945 C16.5733788,27.5511945 16.3754266,27.6194539 16.225256,27.7559727 C16.0750853,27.8924915 16,28.0540387 16,28.2406143 C16,28.4408419 16.0910125,28.6149033 16.2730375,28.7627986 C16.4550626,28.910694 16.7394767,28.9846416 17.1262799,28.9846416 Z M27.4539249,26.1587031 C27.7360637,26.1587031 28.0227531,26.056314 28.3139932,25.8515358 C28.6962457,25.5875995 29.0875995,25.132537 29.4880546,24.4863481 L29.4880546,24.4863481 L29.2423208,24.3430034 C28.9692833,24.725256 28.7667804,24.9641638 28.6348123,25.059727 C28.5483504,25.1188851 28.4459613,25.1484642 28.3276451,25.1484642 C28.1865757,25.1484642 28.0477816,25.059727 27.9112628,24.8822526 C27.6791809,24.5819113 27.3697383,23.7491468 26.9829352,22.383959 C27.3287827,21.7741752 27.6200228,21.3759954 27.8566553,21.1894198 C28.0295791,21.052901 28.2116041,20.9846416 28.4027304,20.9846416 C28.4755404,20.9846416 28.6063709,21.0108077 28.7952218,21.0631399 C28.9840728,21.1154721 29.1513083,21.1416382 29.2969283,21.1416382 C29.4971559,21.1416382 29.6643914,21.0722412 29.7986348,20.9334471 C29.9328783,20.794653 30,20.616041 30,20.3976109 C30,20.165529 29.9328783,19.9812287 29.7986348,19.8447099 C29.6643914,19.7081911 29.4721274,19.6399317 29.221843,19.6399317 C28.9988623,19.6399317 28.7883959,19.6934016 28.5904437,19.8003413 C28.3924915,19.907281 28.1410694,20.1382253 27.8361775,20.4931741 C27.6086462,20.7571104 27.2718999,21.2189989 26.8259386,21.8788396 C26.6484642,21.0642776 26.3435722,20.317975 25.9112628,19.6399317 L25.9112628,19.6399317 L23.5290102,20.0494881 L23.4812287,20.3088737 C23.6587031,20.2724687 23.8088737,20.2542662 23.9317406,20.2542662 C24.1683732,20.2542662 24.3640501,20.3566553 24.5187713,20.5614334 C24.7645051,20.8799772 25.105802,21.8492605 25.5426621,23.4692833 C25.2013652,23.9288965 24.967008,24.2292378 24.8395904,24.3703072 C24.6302617,24.5978385 24.4573379,24.7457338 24.3208191,24.8139932 C24.2161547,24.8686007 24.0978385,24.8959044 23.9658703,24.8959044 C23.8657565,24.8959044 23.701934,24.8412969 23.4744027,24.7320819 C23.3196815,24.6592719 23.1808874,24.6228669 23.0580205,24.6228669 C22.8259386,24.6228669 22.6348123,24.6979522 22.4846416,24.8481229 C22.334471,24.9982935 22.2593857,25.1894198 22.2593857,25.4215017 C22.2593857,25.6399317 22.3287827,25.8174061 22.4675768,25.9539249 C22.6063709,26.0904437 22.7940842,26.1587031 23.0307167,26.1587031 C23.258248,26.1587031 23.4721274,26.1109215 23.6723549,26.0153584 C23.8725825,25.9197952 24.1240046,25.7161547 24.4266212,25.4044369 C24.7292378,25.092719 25.1467577,24.5978385 25.6791809,23.9197952 C25.883959,24.5659841 26.0614334,25.0358362 26.2116041,25.3293515 C26.3617747,25.6228669 26.5335609,25.834471 26.7269625,25.9641638 C26.9203641,26.0938567 27.1626849,26.1587031 27.4539249,26.1587031 Z" id="fx" fill="url(#linearGradient-14)" fill-rule="nonzero"></path>
                </g>
            </g>
        </g>
    </g>
</svg>