<?xml version="1.0" encoding="UTF-8"?>
<svg width="100px" height="100px" viewBox="0 0 100 100" version="1.1" xmlns="http://www.w3.org/2000/svg" xmlns:xlink="http://www.w3.org/1999/xlink">
    <!-- Generator: Sketch 51.3 (57544) - http://www.bohemiancoding.com/sketch -->
    <title>Automate a process using Flow/create-an-approval-request-with-microsoft-flow</title>
    <desc>Created with Sketch.</desc>
    <defs>
        <filter x="-1.5%" y="-1.8%" width="103.1%" height="107.3%" filterUnits="objectBoundingBox" id="filter-1">
            <feOffset dx="0" dy="2" in="SourceAlpha" result="shadowOffsetOuter1"></feOffset>
            <feColorMatrix values="0 0 0 0 0   0 0 0 0 0   0 0 0 0 0  0 0 0 0.103147645 0" type="matrix" in="shadowOffsetOuter1" result="shadowMatrixOuter1"></feColorMatrix>
            <feMerge>
                <feMergeNode in="shadowMatrixOuter1"></feMergeNode>
                <feMergeNode in="SourceGraphic"></feMergeNode>
            </feMerge>
        </filter>
    </defs>
    <g id="Badges-FINAL" stroke="none" stroke-width="1" fill="none" fill-rule="evenodd">
        <g id="Automate-a-process-using-Flow" transform="translate(-576.000000, -504.000000)">
            <g id="Automate-a-process-using-Flow/create-an-approval-request-with-microsoft-flow" transform="translate(576.000000, 504.000000)">
                <rect id="BG" fill="#B7D2F7" x="2" y="2" width="96" height="96" rx="48"></rect>
                <g id="Computer" filter="url(#filter-1)" transform="translate(17.500000, 22.500000)">
                    <path d="M4.51352226,54.3912956 C2.31352226,54.3912956 0.513522258,52.5912956 0.513522258,50.3912956 L0.513522258,4.39129558 C0.513522258,2.19129558 2.31352226,0.39129558 4.51352226,0.39129558 L60.5135223,0.39129558 C62.7135223,0.39129558 64.5135223,2.19129558 64.5135223,4.39129558 L64.5135223,50.3912956 C64.5135223,52.5912956 62.7135223,54.3912956 60.5135223,54.3912956 L4.51352226,54.3912956" id="Fill-1485" fill="#30404D"></path>
                    <path d="M5.51352226,51.3912956 C4.41352226,51.3912956 3.51352226,50.4912956 3.51352226,49.3912956 L3.51352226,11.3912956 C3.51352226,10.2912956 4.41352226,9.39129558 5.51352226,9.39129558 L59.5135223,9.39129558 C60.6135223,9.39129558 61.5135223,10.2912956 61.5135223,11.3912956 L61.5135223,49.3912956 C61.5135223,50.4912956 60.6135223,51.3912956 59.5135223,51.3912956 L5.51352226,51.3912956" id="Fill-1486" fill="#E1E4E1"></path>
                    <path d="M4.51352226,4.89129558 C4.51352226,4.06229558 5.18552226,3.39129558 6.01352226,3.39129558 C6.84252226,3.39129558 7.51352226,4.06229558 7.51352226,4.89129558 C7.51352226,5.71929558 6.84252226,6.39129558 6.01352226,6.39129558 C5.18552226,6.39129558 4.51352226,5.71929558 4.51352226,4.89129558" id="Fill-1487" fill="#DF5142"></path>
                    <path d="M10.5135223,4.89129558 C10.5135223,4.06229558 11.1855223,3.39129558 12.0135223,3.39129558 C12.8425223,3.39129558 13.5135223,4.06229558 13.5135223,4.89129558 C13.5135223,5.71929558 12.8425223,6.39129558 12.0135223,6.39129558 C11.1855223,6.39129558 10.5135223,5.71929558 10.5135223,4.89129558" id="Fill-1488" fill="#EFB252"></path>
                    <path d="M16.5135223,4.89129558 C16.5135223,4.06229558 17.1855223,3.39129558 18.0135223,3.39129558 C18.8425223,3.39129558 19.5135223,4.06229558 19.5135223,4.89129558 C19.5135223,5.71929558 18.8425223,6.39129558 18.0135223,6.39129558 C17.1855223,6.39129558 16.5135223,5.71929558 16.5135223,4.89129558" id="Fill-1489" fill="#7CB65A"></path>
                    <path d="M60.0135223,6.39129558 L26.0135223,6.39129558 C25.1855223,6.39129558 24.5135223,5.71929558 24.5135223,4.89129558 C24.5135223,4.06329558 25.1855223,3.39129558 26.0135223,3.39129558 L60.0135223,3.39129558 C60.8415223,3.39129558 61.5135223,4.06329558 61.5135223,4.89129558 C61.5135223,5.71929558 60.8415223,6.39129558 60.0135223,6.39129558" id="Fill-1490" fill="#697D85"></path>
                    <path d="M40.7919727,26.7728935 L31.8913151,34.8010547 C31.6305414,35.0622741 31.2881924,35.1928838 30.9458434,35.1928838 C30.6034944,35.1928838 30.2611453,35.0622741 30.0003716,34.8010547 L26.4342359,31.2349189 C25.911797,30.7129258 25.911797,29.8659686 26.4342359,29.3439754 C26.956229,28.8215366 27.8031863,28.8215366 28.3251794,29.3439754 L30.9458434,31.9646395 L40.4541239,23.4734662 L40.4541239,23.4734662 C41.5422483,22.6206894 43.1156596,22.8114763 43.9684365,23.8996007 C44.0640237,24.0215678 44.1480788,24.1521475 44.2195194,24.289658 C45.1732535,26.1254515 45.6501256,28.1346104 45.6501256,30.31714 C45.6501256,37.5755636 39.7508455,43.4801928 32.5,43.4801928 C25.2487087,43.4801928 19.3498744,37.5755636 19.3498744,30.31714 C19.3498744,24.831086 22.7506306,20.0653913 27.5965633,18.1062455 L27.5965633,16.2884078 C27.5965633,15.7953895 27.8680354,15.3420445 28.3022125,15.1093541 C28.737281,14.8766638 29.2650691,14.9025183 29.6756205,15.1757734 L33.6875232,17.8503752 C34.0597386,18.0986674 34.2830679,18.5159053 34.2830679,18.9630096 C34.2830679,19.4101138 34.0597386,19.8273517 33.6875232,20.0756439 L29.6756205,22.7502457 C29.2650691,23.0235009 28.737281,23.0493554 28.3022125,22.816665 C27.8680354,22.5839747 27.5965633,22.1306297 27.5965633,21.6376114 L27.5965633,21.0621262 C24.2778283,22.8349415 22.0244762,26.3342122 22.0244762,30.31714 C22.0244762,36.1005207 26.7237516,40.805591 32.5,40.805591 C38.2762484,40.805591 42.9755238,36.1005207 42.9755238,30.31714 C42.9755238,29.5251177 42.7908659,28.4976639 42.4215501,27.2347788 L42.4215537,27.2347777 C42.2665365,26.7046924 41.7111513,26.4006396 41.181066,26.5556568 C41.0366794,26.5978809 40.9036797,26.6721367 40.7919727,26.7728935 Z" id="Combined-Shape-Copy" fill="#30404D"></path>
                </g>
                <g id="Flow-Border" stroke="#0066FF" stroke-width="4">
                    <rect id="Azure-Border" x="2" y="2" width="96" height="96" rx="48"></rect>
                </g>
            </g>
        </g>
    </g>
</svg>