<?xml version="1.0" encoding="UTF-8"?>
<svg width="102px" height="102px" viewBox="0 0 102 102" version="1.1" xmlns="http://www.w3.org/2000/svg" xmlns:xlink="http://www.w3.org/1999/xlink">
    <title>Use DAX in Power BI Desktop/m7-use-dax-iterator-functions-in-power-bi-desktop-models</title>
    <defs>
        <rect id="path-1" x="0" y="0" width="94.3396226" height="94.3396226" rx="47.1698113"></rect>
        <filter x="-2.9%" y="-2.9%" width="106.4%" height="106.4%" filterUnits="objectBoundingBox" id="filter-3">
            <feMorphology radius="2.5" operator="dilate" in="SourceAlpha" result="shadowSpreadOuter1"></feMorphology>
            <feOffset dx="0.5" dy="0.5" in="shadowSpreadOuter1" result="shadowOffsetOuter1"></feOffset>
            <feMorphology radius="1" operator="erode" in="SourceAlpha" result="shadowInner"></feMorphology>
            <feOffset dx="0.5" dy="0.5" in="shadowInner" result="shadowInner"></feOffset>
            <feComposite in="shadowOffsetOuter1" in2="shadowInner" operator="out" result="shadowOffsetOuter1"></feComposite>
            <feColorMatrix values="0 0 0 0 0.821822822   0 0 0 0 0.831640661   0 0 0 0 0.835737288  0 0 0 1 0" type="matrix" in="shadowOffsetOuter1"></feColorMatrix>
        </filter>
        <linearGradient x1="50%" y1="0%" x2="50%" y2="100%" id="linearGradient-4">
            <stop stop-color="#4E4E57" offset="0%"></stop>
            <stop stop-color="#2E2E34" offset="100%"></stop>
        </linearGradient>
        <rect id="path-5" x="0" y="0" width="94.3396226" height="94.3396226"></rect>
        <path d="M48.1132075,0.739331515 C74.2770768,0.739331515 95.4870836,21.9493383 95.4870836,48.1132075 C95.4870836,74.2770768 74.2770768,95.4870836 48.1132075,95.4870836 C21.9493383,95.4870836 0.739331515,74.2770768 0.739331515,48.1132075 C0.739331515,21.9493383 21.9493383,0.739331515 48.1132075,0.739331515 Z M48.1132075,4.71698113 C24.1461335,4.71698113 4.71698113,24.1461335 4.71698113,48.1132075 C4.71698113,72.0802816 24.1461335,91.509434 48.1132075,91.509434 C72.0802816,91.509434 91.509434,72.0802816 91.509434,48.1132075 C91.509434,24.1461335 72.0802816,4.71698113 48.1132075,4.71698113 Z" id="path-6"></path>
        <linearGradient x1="50%" y1="0.670396959%" x2="50%" y2="100%" id="linearGradient-8">
            <stop stop-color="#6A6A6A" offset="0%"></stop>
            <stop stop-color="#343333" offset="100%"></stop>
        </linearGradient>
        <linearGradient x1="50%" y1="100%" x2="50%" y2="0%" id="linearGradient-9">
            <stop stop-color="#CCCCCC" offset="15%"></stop>
            <stop stop-color="#707070" offset="100%"></stop>
        </linearGradient>
    </defs>
    <g id="Badges" stroke="none" stroke-width="1" fill="none" fill-rule="evenodd">
        <g id="Use-DAX-in-Power-BI-Desktop-2-" transform="translate(-159.000000, -319.000000)">
            <g id="Use-DAX-in-Power-BI-Desktop/m7-use-dax-iterator-functions-in-power-bi-desktop-models" transform="translate(160.000000, 320.000000)">
                <g id="Badge-Plates/Circle">
                    <g id="BG" transform="translate(2.830189, 2.830189)">
                        <mask id="mask-2" fill="white">
                            <use xlink:href="#path-1"></use>
                        </mask>
                        <g>
                            <use fill="black" fill-opacity="1" filter="url(#filter-3)" xlink:href="#path-1"></use>
                            <rect stroke="#F2F1F0" stroke-width="2.5" x="-1.25" y="-1.25" width="96.8396226" height="96.8396226" rx="48.4198113"></rect>
                        </g>
                        <g id="Colors/Power-BI/BG-Solid-1" mask="url(#mask-2)">
                            <rect id="Rectangle" fill="url(#linearGradient-4)" x="0" y="0" width="94.3396226" height="94.3396226"></rect>
                            <g id="Rectangle">
                                <use fill="#F2C811" xlink:href="#path-5"></use>
                                <use fill-opacity="0.501092657" fill="#FFFFFF" xlink:href="#path-5"></use>
                            </g>
                        </g>
                    </g>
                    <g id="Border" transform="translate(1.886792, 1.886792)">
                        <mask id="mask-7" fill="white">
                            <use xlink:href="#path-6"></use>
                        </mask>
                        <use id="Boarder" fill="#0078D4" fill-rule="nonzero" xlink:href="#path-6"></use>
                        <g id="Colors/Power-BI/Border" mask="url(#mask-7)" fill="#F3C900">
                            <g transform="translate(-1.886792, -1.886792)" id="Rectangle">
                                <rect x="0" y="0" width="100" height="100"></rect>
                            </g>
                        </g>
                    </g>
                </g>
                <g id="Group" transform="translate(21.000000, 31.000000)" fill-rule="nonzero">
                    <g id="Computer">
                        <rect id="Rectangle" fill="url(#linearGradient-8)" x="0" y="0" width="58" height="40.3050847" rx="0.6"></rect>
                        <path d="M41.3208548,52.6367463 C35.4881107,51.6855438 35.2587331,47.3371893 35.2587331,40.3050847 L23.6915495,40.3050847 C23.6915495,47.3371893 23.4949402,51.6855438 17.6621961,52.6367463 C15.9945066,52.8280573 14.7356454,54.2944486 14.7457627,56.0338983 L44.2372881,56.0338983 C44.2474054,54.2944486 42.9885443,52.8280573 41.3208548,52.6367463 Z" id="Path" fill="url(#linearGradient-9)"></path>
                    </g>
                </g>
                <g id="Group-2" transform="translate(28.500000, 34.125000)" fill="#D8D8D8">
                    <rect id="Rectangle" x="0" y="0" width="43" height="3.58333333" rx="1.79166667"></rect>
                    <rect id="Rectangle" x="0" y="7.16666667" width="43" height="3.58333333" rx="1.79166667"></rect>
                    <rect id="Rectangle" x="0" y="14.3333333" width="43" height="3.58333333" rx="1.79166667"></rect>
                    <rect id="Rectangle" x="0" y="21.5" width="43" height="3.58333333" rx="1.79166667"></rect>
                    <rect id="Rectangle" x="0" y="28.6666667" width="43" height="3.58333333" rx="1.79166667"></rect>
                </g>
                <g id="Group-3" transform="translate(37.000000, 27.437500)" fill="#F3C900">
                    <rect id="Rectangle" x="6.5" y="0" width="13" height="32.90625"></rect>
                    <polygon id="Path-146" points="0 32.2246704 26 32.2246704 13 46.423584"></polygon>
                </g>
                <polygon id="Fill-1" fill="#383737" points="54.7866093 63.4269622 45.0022477 63.4269622 51.0149743 56.7674575 44.7866093 50 54.5709723 50 54.5709723 52.6937172 52.9545003 51.3793384 48.3857079 51.3793384 53.5366934 56.9179603 48.5152781 62.0689458 53.1701373 62.0689458 54.7866093 60.7330705"></polygon>
                <path d="M42.4480741,25.5 C43.2379327,25.5 43.9385666,25.2937591 44.5499756,24.8812774 C45.1613847,24.4687957 45.6952706,23.8325207 46.1516333,22.9724525 C46.6079961,22.1123842 47.0760605,20.7257435 47.5558264,18.8125305 L47.5558264,18.8125305 L48.5826426,14.757923 L49.8200878,14.757923 L50.127255,13.7311068 L48.854705,13.7311068 C49.2174549,12.2508532 49.6972209,11.1684544 50.2940029,10.4839103 C50.6567528,10.0568016 51.0107265,9.8432472 51.3559239,9.8432472 C51.4261336,9.8432472 51.4831789,9.86372501 51.52706,9.90468064 C51.570941,9.94563627 51.5928815,9.99829352 51.5928815,10.0626524 C51.5928815,10.1211604 51.5446124,10.2323257 51.4480741,10.3961482 C51.3515358,10.5599707 51.3032667,10.7150171 51.3032667,10.8612872 C51.3032667,11.0660653 51.3793272,11.2415895 51.5314481,11.3878596 C51.683569,11.5341297 51.8766455,11.6072647 52.1106777,11.6072647 C52.3622623,11.6072647 52.5728913,11.51804 52.7425646,11.3395904 C52.9122379,11.1611409 52.9970746,10.9197952 52.9970746,10.6155534 C52.9970746,10.2703559 52.8698196,9.98951731 52.6153096,9.77303754 C52.3607996,9.55655778 51.952706,9.44831789 51.3910288,9.44831789 C50.5134081,9.44831789 49.7176987,9.70575329 49.0039005,10.2206241 C48.2901024,10.7354949 47.6114091,11.5867869 46.9678206,12.7745002 C46.74549,13.1840566 46.534861,13.4473428 46.3359337,13.5643588 C46.1370063,13.6813749 45.8181375,13.7369576 45.3793272,13.7311068 L45.3793272,13.7311068 L45.0897123,14.757923 L46.3096051,14.757923 L44.5192589,21.7701121 C44.2208679,22.9227206 44.0190151,23.6335934 43.9137006,23.9027304 C43.7615797,24.2947343 43.5304729,24.6282301 43.2203803,24.9032179 C43.0975134,25.0143832 42.9483179,25.0699659 42.7727938,25.0699659 C42.7259873,25.0699659 42.6850317,25.0553389 42.6499269,25.0260848 L42.6499269,25.0260848 L42.6060458,24.9646514 C42.6060458,24.9353974 42.6499269,24.8754266 42.7376889,24.7847392 C42.825451,24.6940517 42.869332,24.5550951 42.869332,24.3678693 C42.869332,24.1630912 42.7991224,23.9934178 42.6587031,23.8588493 C42.5182838,23.7242808 42.316431,23.6569966 42.0531448,23.6569966 C41.7372014,23.6569966 41.4826914,23.7447587 41.2896148,23.9202828 C41.0965383,24.0958069 41,24.3035105 41,24.5433935 C41,24.8008289 41.1170161,25.0246221 41.3510483,25.2147733 C41.5850804,25.4049244 41.9507557,25.5 42.4480741,25.5 Z M55.7264749,21.8666504 C56.0892248,21.8666504 56.4578255,21.7350073 56.8322769,21.4717211 C57.3237445,21.1323745 57.8269137,20.547294 58.3417845,19.7164798 L58.3417845,19.7164798 L58.0258411,19.5321794 C57.6747928,20.023647 57.414432,20.3308142 57.2447587,20.4536811 C57.1335934,20.5297416 57.0019503,20.5677718 56.8498294,20.5677718 C56.6684544,20.5677718 56.4900049,20.4536811 56.3144807,20.2254998 C56.0160897,19.8393467 55.618235,18.7686494 55.1209166,17.0134081 C55.5655778,16.2294003 55.9400293,15.7174549 56.2442711,15.4775719 C56.4666017,15.3020478 56.7006338,15.2142857 56.9463676,15.2142857 C57.0399805,15.2142857 57.2081911,15.2479278 57.4509995,15.3152121 C57.6938079,15.3824963 57.908825,15.4161385 58.0960507,15.4161385 C58.3534861,15.4161385 58.5685032,15.3269137 58.7411019,15.1484642 C58.9137006,14.9700146 59,14.7403706 59,14.4595319 C59,14.1611409 58.9137006,13.9241833 58.7411019,13.7486592 C58.5685032,13.5731351 58.3213067,13.485373 57.9995124,13.485373 C57.712823,13.485373 57.4422233,13.5541199 57.1877133,13.6916138 C56.9332033,13.8291078 56.6099464,14.1260361 56.2179425,14.5823988 C55.9254022,14.9217455 55.4924427,15.5156021 54.9190639,16.3639688 C54.6908825,15.3166748 54.2988786,14.3571429 53.7430522,13.485373 L53.7430522,13.485373 L50.680156,14.0119454 L50.6187226,14.3454412 C50.8469039,14.2986348 51.0399805,14.2752316 51.1979522,14.2752316 C51.5021941,14.2752316 51.7537786,14.4068747 51.952706,14.6701609 C52.2686494,15.0797172 52.7074598,16.3259386 53.269137,18.408825 C52.8303267,18.9997562 52.5290102,19.3859093 52.3651877,19.5672843 C52.0960507,19.8598245 51.8737201,20.0499756 51.698196,20.1377377 C51.5636275,20.2079473 51.4115066,20.2430522 51.2418333,20.2430522 C51.1131156,20.2430522 50.9024866,20.1728425 50.6099464,20.0324232 C50.411019,19.9388103 50.2325695,19.8920039 50.0745978,19.8920039 C49.7762067,19.8920039 49.5304729,19.9885422 49.3373964,20.1816187 C49.1443198,20.3746953 49.0477816,20.6204291 49.0477816,20.9188201 C49.0477816,21.1996587 49.1370063,21.4278401 49.3154559,21.6033642 C49.4939054,21.7788883 49.7352511,21.8666504 50.0394929,21.8666504 C50.3320332,21.8666504 50.607021,21.805217 50.8644564,21.6823501 C51.1218918,21.5594832 51.4451487,21.2976597 51.8342272,20.8968796 C52.2233057,20.4960995 52.760117,19.8598245 53.4446611,18.9880546 C53.7079473,19.8188688 53.9361287,20.4229644 54.1292053,20.8003413 C54.3222818,21.1777182 54.5431497,21.4497806 54.7918089,21.6165285 C55.0404681,21.7832765 55.3520234,21.8666504 55.7264749,21.8666504 Z" id="fx" fill="#363535" fill-rule="nonzero"></path>
            </g>
        </g>
    </g>
</svg>