<svg width="103" height="103" viewBox="0 0 103 103" fill="none" xmlns="http://www.w3.org/2000/svg">
<path d="M51.0963 101.985C49.4663 101.985 47.8563 101.525 46.4263 100.665L13.2863 80.5248C10.3263 78.7248 8.48633 75.3348 8.48633 71.6848V31.7248C8.48633 28.0748 10.3263 24.6848 13.2863 22.8848L46.4263 2.74477C49.2663 1.01477 52.9263 1.01477 55.7563 2.74477L88.8963 22.8848C91.8563 24.6848 93.6963 28.0748 93.6963 31.7248V71.6748C93.6963 75.3248 91.8563 78.7148 88.8963 80.5148L55.7663 100.665C54.3463 101.525 52.7263 101.985 51.0963 101.985ZM48.1963 5.65477L15.0563 25.7948C13.1063 26.9848 11.8963 29.2548 11.8963 31.7248V71.6748C11.8963 74.1448 13.1063 76.4148 15.0563 77.6048L48.1963 97.7548C49.9763 98.8348 52.2163 98.8348 53.9863 97.7548L87.1263 77.6148C89.0763 76.4248 90.2863 74.1548 90.2863 71.6848V31.7248C90.2863 29.2548 89.0763 26.9848 87.1263 25.7948L53.9863 5.65477C52.2263 4.57477 49.9763 4.57477 48.1963 5.65477Z" fill="#F2F1F0"/>
<path fill-rule="evenodd" clip-rule="evenodd" d="M46.876 7.24492C48.186 6.44492 49.636 6.04492 51.086 6.04492C52.536 6.04492 53.996 6.44492 55.296 7.24492L85.206 25.5349C87.886 27.1749 89.536 30.2349 89.536 33.5649V69.8449C89.536 73.1649 87.876 76.2349 85.206 77.8749L55.296 96.1649C53.996 96.9649 52.536 97.3649 51.086 97.3649C49.636 97.3649 48.186 96.9649 46.876 96.1649L16.976 77.8749C14.296 76.2349 12.646 73.1749 12.646 69.8449V33.5649C12.646 30.2449 14.296 27.1749 16.976 25.5349L46.876 7.24492Z" fill="#965596"/>
<path d="M51.0964 98.9647C49.5664 98.9647 48.0464 98.5347 46.7064 97.7247L15.5564 78.7847C12.7764 77.0947 11.0464 73.9047 11.0464 70.4747V32.9247C11.0464 29.4947 12.7764 26.3047 15.5564 24.6147L46.7064 5.68473C49.3764 4.06473 52.8164 4.06473 55.4764 5.68473L86.6364 24.6147C89.4164 26.3047 91.1464 29.4947 91.1464 32.9247V70.4747C91.1464 73.9047 89.4164 77.0947 86.6364 78.7847L55.4864 97.7247C54.1464 98.5347 52.6264 98.9647 51.0964 98.9647ZM48.3764 8.42473L17.2264 27.3547C15.3964 28.4747 14.2564 30.6047 14.2564 32.9247V70.4747C14.2564 72.7947 15.3964 74.9347 17.2264 76.0447L48.3764 94.9747C50.0464 95.9847 52.1564 95.9847 53.8164 94.9747L84.9664 76.0447C86.7964 74.9347 87.9364 72.7947 87.9364 70.4747V32.9247C87.9364 30.6047 86.7964 28.4747 84.9664 27.3547L53.8164 8.42473C52.1564 7.41473 50.0464 7.41473 48.3764 8.42473Z" fill="#742774"/>
<path fill-rule="evenodd" clip-rule="evenodd" d="M41.375 61.3596C42.2338 61.5911 42.7491 62.4798 42.5176 63.3387L37.6111 81.6577C37.3796 82.5165 36.4909 83.0318 35.6321 82.8003C34.7733 82.5688 34.258 81.6801 34.4895 80.8288L39.396 62.5022C39.635 61.6434 40.5162 61.1281 41.375 61.3596Z" fill="#EFB252"/>
<path fill-rule="evenodd" clip-rule="evenodd" d="M41.3755 61.3594L36.0358 81.1646C35.8939 81.6873 35.2517 81.8964 34.7812 81.5828C34.6318 81.4857 34.4974 81.3811 34.3779 81.2691C34.3929 82.001 34.938 82.6731 35.752 82.8225C36.6109 82.9718 37.4099 82.4117 37.619 81.6201L42.6898 62.6962L42.3687 62.0539L41.3755 61.3594Z" fill="#DD9D3F"/>
<path fill-rule="evenodd" clip-rule="evenodd" d="M61.0389 61.3596C60.18 61.5911 59.6647 62.4798 59.8963 63.3387L64.8027 81.6577C65.0342 82.5165 65.9229 83.0318 66.7818 82.8003C67.6406 82.5688 68.1559 81.6801 67.9244 80.8288L63.0179 62.5022C62.7714 61.6434 61.8977 61.1281 61.0389 61.3596Z" fill="#EFB252"/>
<path fill-rule="evenodd" clip-rule="evenodd" d="M61.0385 61.3594L66.3781 81.1646C66.52 81.6873 67.1623 81.8964 67.6328 81.5828C67.7821 81.4857 67.9165 81.3811 68.036 81.2691C68.0211 82.001 67.4759 82.6731 66.6619 82.8225C65.8031 82.9718 65.004 82.4117 64.7949 81.6201L59.7241 62.6962L60.0452 62.0539L61.0385 61.3594Z" fill="#DD9D3F"/>
<path fill-rule="evenodd" clip-rule="evenodd" d="M51.218 24.4898C50.4264 24.4898 49.7842 23.8999 49.7842 23.1755V21.8686C49.7842 21.1442 50.4264 20.5542 51.218 20.5542C52.0097 20.5542 52.6519 21.1442 52.6519 21.8686V23.1829C52.6444 23.8999 52.0097 24.4898 51.218 24.4898Z" fill="#EFB252"/>
<path fill-rule="evenodd" clip-rule="evenodd" d="M51.2188 21.9658V23.4146H52.6526V22.033C52.6526 21.9509 52.6451 21.8762 52.6302 21.8015C52.4883 20.995 51.2188 21.1518 51.2188 21.9658Z" fill="#DD9D3F"/>
<path d="M52.6444 23.0562H49.7842V23.803H52.6444V23.0562Z" fill="#CB8E35"/>
<path fill-rule="evenodd" clip-rule="evenodd" d="M34.3335 65.2952C33.975 65.2952 33.6763 64.9965 33.6763 64.638V24.0717C33.6763 23.7133 33.975 23.4146 34.3335 23.4146H36.9547C37.3132 23.4146 37.6119 23.7058 37.6119 24.0717V64.638C37.6119 64.9965 37.3132 65.2952 36.9547 65.2952H34.3335Z" fill="#EFB252"/>
<path fill-rule="evenodd" clip-rule="evenodd" d="M65.4672 65.2952C65.1088 65.2952 64.8101 65.0039 64.8101 64.638V24.0717C64.8101 23.7133 65.1088 23.4146 65.4672 23.4146H68.0885C68.447 23.4146 68.7457 23.7058 68.7457 24.0717V64.638C68.7457 64.9965 68.447 65.2952 68.0885 65.2952H65.4672Z" fill="#DD9D3F"/>
<path fill-rule="evenodd" clip-rule="evenodd" d="M68.7536 26.693C68.7536 27.0515 68.5071 27.3502 68.2084 27.3502H34.2214C33.9227 27.3502 33.6763 27.0589 33.6763 26.693V24.0717C33.6763 23.7133 33.9227 23.4146 34.2214 23.4146H68.2009C68.4996 23.4146 68.7461 23.7133 68.7461 24.0717V26.693" fill="#EFB252"/>
<path fill-rule="evenodd" clip-rule="evenodd" d="M34.2214 27.3502H68.2009C68.4996 27.3502 68.7461 27.0515 68.7461 26.693V24.0717C68.7535 23.7133 68.5071 23.4146 68.2009 23.4146H51.2112V24.7289C51.2112 25.0874 50.9647 25.3861 50.666 25.3861H33.6763V26.7005C33.6763 27.0589 33.9227 27.3502 34.2214 27.3502Z" fill="#DD9D3F"/>
<path fill-rule="evenodd" clip-rule="evenodd" d="M68.7536 64.6305C68.7536 64.989 68.5071 65.2877 68.2084 65.2877H34.2214C33.9227 65.2877 33.6763 64.9964 33.6763 64.6305V62.0092C33.6763 61.6508 33.9227 61.3521 34.2214 61.3521H68.2009C68.4996 61.3521 68.7461 61.6508 68.7461 62.0092V64.6305" fill="#EFB252"/>
<path fill-rule="evenodd" clip-rule="evenodd" d="M34.2214 65.2877H68.2009C68.4996 65.2877 68.7461 64.989 68.7461 64.6305V62.0092C68.7535 61.6508 68.5071 61.3521 68.2009 61.3521H51.2112V62.6664C51.2112 63.0249 50.9647 63.3236 50.666 63.3236H33.6763V64.638C33.6763 64.9964 33.9227 65.2877 34.2214 65.2877Z" fill="#DD9D3F"/>
<path fill-rule="evenodd" clip-rule="evenodd" d="M64.8097 27.3574V59.567C64.8097 60.5528 64.399 61.3593 63.9061 61.3593H38.5223C38.0219 61.3593 37.6187 60.5528 37.6187 59.567V27.3574H64.8097Z" fill="black"/>
<path fill-rule="evenodd" clip-rule="evenodd" d="M64.8097 27.3574V59.567C64.8097 60.5528 64.399 61.3593 63.9061 61.3593H38.5223C38.0219 61.3593 37.6187 60.5528 37.6187 59.567V27.3574H64.8097Z" fill="#E1E4E1"/>
<path fill-rule="evenodd" clip-rule="evenodd" d="M41.7336 22.3467C42.4207 22.3467 42.9808 22.9068 42.9808 23.6013V29.3293C42.9808 30.0238 42.4207 30.5839 41.7262 30.5839C41.0391 30.5764 40.479 30.0163 40.479 29.3293V23.6013C40.479 22.9068 41.0391 22.3467 41.7336 22.3467Z" fill="black"/>
<path fill-rule="evenodd" clip-rule="evenodd" d="M41.7336 22.3467C42.4207 22.3467 42.9808 22.9068 42.9808 23.6013V29.3293C42.9808 30.0238 42.4207 30.5839 41.7262 30.5839C41.0391 30.5764 40.479 30.0163 40.479 29.3293V23.6013C40.479 22.9068 41.0391 22.3467 41.7336 22.3467Z" fill="#742774"/>
<path fill-rule="evenodd" clip-rule="evenodd" d="M60.7029 22.3467C61.3974 22.3467 61.9575 22.9068 61.9575 23.6013V29.3293C61.9575 30.0238 61.3974 30.5839 60.7029 30.5839C60.0083 30.5839 59.4482 30.0238 59.4482 29.3293V23.6013C59.4482 22.9068 60.0083 22.3467 60.7029 22.3467Z" fill="black"/>
<path fill-rule="evenodd" clip-rule="evenodd" d="M60.7029 22.3467C61.3974 22.3467 61.9575 22.9068 61.9575 23.6013V29.3293C61.9575 30.0238 61.3974 30.5839 60.7029 30.5839C60.0083 30.5839 59.4482 30.0238 59.4482 29.3293V23.6013C59.4482 22.9068 60.0083 22.3467 60.7029 22.3467Z" fill="#742774"/>
<path fill-rule="evenodd" clip-rule="evenodd" d="M62.9507 50.1051L64.5563 48.7534C65.9528 49.4778 66.2516 49.8363 69.179 53.3238C70.9713 55.4597 73.0026 58.1108 75.2655 61.2698C75.6015 61.7403 75.5194 62.39 75.0787 62.7634C74.6381 63.1294 73.9809 63.107 73.5777 62.6962C64.4742 53.3911 63.2419 51.539 62.9507 50.1051Z" fill="#0078D7"/>
<path fill-rule="evenodd" clip-rule="evenodd" d="M63.7944 49.3959C64.6383 48.6864 64.5636 48.7537 64.5636 48.7537C65.9602 49.4781 66.2589 49.8365 69.1863 53.3241C70.9712 55.4525 72.9876 58.0887 75.2354 61.2252C75.5864 61.7181 75.5043 62.4052 75.0338 62.801C66.102 52.4802 64.7503 50.7924 63.7944 49.3959Z" fill="#005A9E"/>
<path d="M66.3259 50.4413C65.3102 49.3659 64.5933 48.7461 64.5933 48.7461L63.7793 49.4182L65.706 51.7632L66.3259 50.4413Z" fill="#005A9E"/>
<path d="M64.5413 48.7909L63.0627 50.0156L60.1128 45.8634L60.9791 45.1465L64.5413 48.7909Z" fill="#A9C5D3"/>
<path d="M64.7878 48.5819L62.8163 50.2174L62.5698 49.9187L64.5414 48.2832L64.7878 48.5819Z" fill="#92B3C5"/>
<path d="M56.9834 41.4198C59.5673 42.8088 56.1619 44.5862 60.2544 46.0051L61.0983 45.3031C61.4343 44.5041 61.0759 43.4735 60.3963 42.652C59.5449 41.6139 58.1633 40.897 56.9834 41.4198Z" fill="#645252"/>
<path opacity="0.55" d="M61.1061 45.3031C61.1061 45.3031 60.1278 44.3472 59.5229 44.5638C59.5229 44.5638 60.4862 43.3838 59.2316 43.2569C59.2316 43.2569 60.0307 41.8454 56.9912 41.4197C58.918 40.3892 62.0247 43.6452 61.1061 45.3031Z" fill="black"/>
<path fill-rule="evenodd" clip-rule="evenodd" d="M35.0426 67.4087C33.8701 67.4087 32.7126 67.2594 31.5998 66.9606C31.3758 66.9009 31.1965 66.7441 31.1069 66.535C31.0173 66.3259 31.0323 66.0869 31.1443 65.8852C31.5177 65.2206 31.7118 64.4738 31.7118 63.7121C31.7118 61.2625 29.7253 59.2761 27.2758 59.2761C26.3647 59.2761 25.4835 59.5524 24.7292 60.0826C24.5351 60.217 24.2886 60.2544 24.0646 60.1797C23.8405 60.105 23.6688 59.9183 23.6016 59.6943C23.3477 58.8354 23.2207 57.9542 23.2207 57.0655C23.2207 51.36 28.523 46.7148 35.0426 46.7148C41.5622 46.7148 46.8644 51.3525 46.8644 57.058C46.8644 62.7636 41.5622 67.4087 35.0426 67.4087Z" fill="#EFB252"/>
<path fill-rule="evenodd" clip-rule="evenodd" d="M35.0426 66.6695C33.8701 66.6695 32.7126 66.5201 31.5998 66.2214C31.3758 66.1616 31.1965 66.0048 31.1069 65.7957C31.0173 65.5866 31.0323 65.3476 31.1443 65.146C31.5177 64.4813 31.7118 63.7345 31.7118 62.9728C31.7118 60.5233 29.7253 58.5368 27.2758 58.5368C26.3647 58.5368 25.4835 58.8131 24.7292 59.3433C24.5351 59.4778 24.2886 59.5151 24.0646 59.4404C23.8405 59.3657 23.6688 59.179 23.6016 58.955C23.3477 58.0962 23.2207 57.215 23.2207 56.3263C23.2207 50.6207 28.523 45.9756 35.0426 45.9756C41.5622 45.9756 46.8644 50.6132 46.8644 56.3188C46.8644 62.0244 41.5622 66.6695 35.0426 66.6695Z" fill="#F7CB64"/>
<path d="M36.2001 50.4262L35.05 49.2388C34.8932 49.0745 34.6318 49.082 34.4825 49.2537L29.6282 54.8025C29.4117 55.0489 29.4117 55.4223 29.6282 55.6688L34.4377 61.2026C34.6169 61.4117 34.938 61.4117 35.1247 61.2026L36.5586 59.5447L36.7154 51.0087L36.2001 50.4262Z" fill="url(#paint0_linear)"/>
<path d="M41.8533 54.5559L37.0663 49.3208C36.8572 49.0968 36.5062 49.0968 36.2971 49.3134L34.0866 51.5986C33.8476 51.845 33.8401 52.2408 34.0791 52.4947L36.3494 54.9293C36.5137 55.1085 36.5137 55.3849 36.3494 55.5641L34.0716 58.0211C33.8401 58.275 33.8401 58.6633 34.0791 58.9098L36.2971 61.2099C36.5062 61.4265 36.8572 61.4265 37.0663 61.2024L41.8533 55.93C42.2118 55.5417 42.2118 54.9442 41.8533 54.5559Z" fill="url(#paint1_linear)"/>
<path d="M42.0846 55.6836L39.9488 58.0509C39.7845 58.2302 39.5082 58.2376 39.3364 58.0659L37.1856 55.8703C36.8346 55.5118 36.8346 54.9442 37.1856 54.5932L39.2916 52.4126C39.4559 52.2408 39.7397 52.2408 39.904 52.42L42.0846 54.8247C42.3012 55.0712 42.3012 55.4371 42.0846 55.6836Z" fill="url(#paint2_linear)"/>
<defs>
<linearGradient id="paint0_linear" x1="32.7938" y1="49.5767" x2="33.6846" y2="60.0444" gradientUnits="userSpaceOnUse">
<stop stop-color="#A23093"/>
<stop offset="1" stop-color="#692266"/>
</linearGradient>
<linearGradient id="paint1_linear" x1="33.9022" y1="55.2641" x2="42.124" y2="55.2641" gradientUnits="userSpaceOnUse">
<stop stop-color="#E184C4"/>
<stop offset="1" stop-color="#D76EBC"/>
</linearGradient>
<linearGradient id="paint2_linear" x1="36.9286" y1="55.2378" x2="42.2492" y2="55.2378" gradientUnits="userSpaceOnUse">
<stop stop-color="#E89BCA"/>
<stop offset="1" stop-color="#E591C8"/>
</linearGradient>
</defs>
</svg>
