<svg width="160" height="188" viewBox="0 0 160 188" fill="none" xmlns="http://www.w3.org/2000/svg">
<g clip-path="url(#clip0)">
<path d="M79.6779 188C82.7592 187.994 85.7796 187.141 88.4083 185.534L150.384 147.874C153.165 146.11 155.449 143.665 157.019 140.771C158.589 137.876 159.394 134.628 159.356 131.336V56.6207C159.392 53.3283 158.587 50.0812 157.017 47.1871C155.447 44.2929 153.163 41.8476 150.384 40.0829L88.4083 2.4228C85.7749 0.837605 82.7592 0 79.6855 0C76.6118 0 73.5961 0.837605 70.9627 2.4228L8.9876 40.098C6.2045 41.8604 3.91796 44.3048 2.34499 47.1991C0.772021 50.0935 -0.0351786 53.3418 4.1431e-06 56.6358V131.336C-0.0185283 134.119 0.556189 136.874 1.68588 139.418C2.81557 141.962 4.4743 144.236 6.5516 146.089V146.115L70.9627 185.549C73.5884 187.149 76.6032 187.996 79.6779 188V188ZM80.3257 6.95218C82.2776 6.95218 84.7548 8.1651 86.4646 9.20912L147.222 46.4034C150.974 48.6881 153.09 55.2842 153.09 60.0352L152.458 131.336C152.458 136.087 149.259 140.355 145.506 142.64L85.1104 179.021C81.6758 181.109 78.8854 181.109 75.4507 179.021L14.2427 142.549C10.4903 140.265 7.47191 136.072 7.47191 131.336V57.688C7.50442 55.3228 8.11341 53.0013 9.24608 50.9247C10.3787 48.8482 12.0009 47.0792 13.9718 45.7714L74.548 9.20912C76.2577 8.1651 78.3739 6.95218 80.3257 6.95218Z" fill="#F2F1F0"/>
<path fill-rule="evenodd" clip-rule="evenodd" d="M87.5765 10.5318C85.2056 9.05825 82.4697 8.27734 79.6783 8.27734C76.8868 8.27734 74.1509 9.05825 71.7801 10.5318L15.6454 44.8632C13.1193 46.4748 11.047 48.7052 9.625 51.3427C8.203 53.9801 7.47851 56.9372 7.52026 59.9333V128.036C7.48034 131.032 8.20562 133.989 9.62745 136.626C11.0493 139.263 13.1206 141.493 15.6454 143.106L71.7801 177.437C74.1508 178.911 76.8867 179.692 79.6783 179.692C82.4698 179.692 85.2057 178.911 87.5765 177.437L143.711 143.106C146.236 141.494 148.307 139.263 149.729 136.626C151.151 133.989 151.877 131.032 151.837 128.036V59.9333C151.875 56.9377 151.149 53.9819 149.727 51.3451C148.305 48.7082 146.234 46.4773 143.711 44.8632L87.5765 10.5318Z" fill="url(#paint0_linear)"/>
<path fill-rule="evenodd" clip-rule="evenodd" d="M79.6783 9.7539C81.3615 9.7539 83.2442 10.6196 85.311 11.8777L143.777 47.4201C145.668 48.6335 147.218 50.3104 148.278 52.2914C149.339 54.2725 149.875 56.4918 149.837 58.7386V129.217C149.875 131.464 149.339 133.683 148.278 135.664C147.218 137.645 145.668 139.322 143.777 140.535L85.312 176.077L85.311 176.078C83.6408 177.217 81.6958 177.888 79.6783 178.021C77.6609 177.888 75.7158 177.217 74.0456 176.078L74.0446 176.077L15.5823 140.537L15.5801 140.536C13.7918 139.572 12.2668 138.185 11.1383 136.496C10.1614 134.893 9.52031 132.678 9.52031 129.217V58.7386C9.48157 56.4919 10.018 54.2726 11.0785 52.2916C12.139 50.3106 13.6885 48.6336 15.5797 47.4202L74.0365 11.8831L74.0406 11.8807C76.1244 10.6277 77.9846 9.7539 79.6783 9.7539ZM87.3908 8.4609L145.855 44.0021C148.333 45.5722 150.368 47.751 151.765 50.3307C153.162 52.9104 153.876 55.8051 153.837 58.7386V129.217C153.876 132.151 153.162 135.045 151.765 137.625C150.368 140.205 148.333 142.384 145.855 143.954L87.3898 179.495C85.0956 181.02 82.4302 181.893 79.6783 182.021C76.9264 181.893 74.261 181.02 71.9667 179.495H71.9658L13.502 143.953L13.4995 143.952C11.1642 142.659 9.18097 140.814 7.72281 138.578C6.12823 135.725 5.36521 132.482 5.52031 129.217V58.7386C5.48125 55.805 6.19436 52.9103 7.59165 50.3305C8.98894 47.7508 11.0238 45.572 13.5022 44.002L71.9667 8.46025L71.9749 8.45537C74.0655 7.19796 76.7734 5.75391 79.6783 5.75391C82.5645 5.75391 85.2816 7.17699 87.3908 8.46085V8.4609Z" fill="#0078D4"/>
<path opacity="0.2" d="M139.61 132.028L80.06 166.635L20.121 132.029L79.671 97.4219L139.61 132.028Z" fill="#003067"/>
<path d="M140.601 120.65L79.878 155.938L18.767 120.655L79.489 85.3672L140.601 120.65Z" fill="#1B93EB"/>
<path d="M140.601 120.648L140.589 124.754L79.8669 160.042L79.8779 155.936L140.601 120.648Z" fill="#1F56A3"/>
<path d="M79.878 155.939L79.867 160.045L18.755 124.762L18.767 120.656L79.878 155.939Z" fill="#0078D4"/>
<path d="M76.3516 49.5508L129.916 80.4765L129.8 121.583C129.798 122.226 129.337 122.489 128.77 122.161L77.2508 92.4169C76.9555 92.2238 76.7097 91.9639 76.5332 91.6583C76.3568 91.3527 76.2547 91.0099 76.2351 90.6576L76.3516 49.5508Z" fill="#F2F2F2"/>
<path d="M129.8 121.585L129.916 80.4785L132.454 79.0039L132.337 120.111C132.35 120.236 132.329 120.362 132.276 120.476C132.224 120.59 132.142 120.688 132.04 120.76L129.502 122.235C129.605 122.163 129.687 122.064 129.739 121.95C129.791 121.836 129.812 121.71 129.8 121.585V121.585Z" fill="#E8E8E8"/>
<path d="M79.1324 42.0546C79.2217 42.0134 79.3204 41.9969 79.4182 42.0066C79.516 42.0164 79.6095 42.0521 79.6888 42.1102L131.683 72.129C131.911 72.2768 132.102 72.4764 132.238 72.7116C132.375 72.9468 132.454 73.211 132.469 73.4826L132.454 79.0028L129.916 80.4774L129.932 74.9572C129.917 74.6856 129.838 74.4214 129.701 74.1862C129.564 73.951 129.374 73.7513 129.145 73.6035L77.1513 43.5848C77.072 43.5267 76.9786 43.491 76.8808 43.4812C76.7831 43.4714 76.6844 43.488 76.5952 43.5292L79.1324 42.0546Z" fill="#1F56A3"/>
<path d="M129.146 73.6034C129.374 73.7512 129.564 73.9508 129.701 74.186C129.838 74.4212 129.917 74.6854 129.932 74.957L129.917 80.4772L76.3517 49.5516L76.3662 44.4363L76.3673 44.0313C76.3687 43.5383 76.7147 43.3324 77.1514 43.5845L129.146 73.6034Z" fill="#0078D4"/>
<path d="M81.4132 47.9152C81.8087 48.1713 82.138 48.5174 82.3743 48.925C82.6105 49.3327 82.747 49.7905 82.7726 50.2609C82.7702 51.1326 82.1553 51.4742 81.4044 51.0407C81.0078 50.7875 80.6779 50.4426 80.4426 50.0351C80.2073 49.6276 80.0736 49.1694 80.0526 48.6994C80.0551 47.8277 80.67 47.4861 81.4132 47.9152Z" fill="#50E6FF"/>
<path d="M108.02 74.6367C110.407 76.123 112.372 78.1967 113.727 80.6595C116.869 86.1009 116.848 91.9558 113.69 93.7697L101.788 100.543C101.66 100.602 101.519 100.625 101.379 100.611C101.239 100.598 101.106 100.547 100.992 100.465C100.659 100.258 100.386 99.9684 100.198 99.6248L88.3808 79.162C85.2393 73.7206 85.2559 67.8491 88.418 66.0424C89.999 65.1438 92.067 65.432 94.1324 66.6245C96.5144 68.1069 98.4765 70.1752 99.8314 72.6319L101.063 74.769L102.298 74.0605C103.883 73.1571 105.953 73.443 108.02 74.6367Z" fill="white"/>
<path opacity="0.2" d="M100.669 121.714C100.069 116.598 97.6192 111.879 93.7815 108.443C89.9438 105.008 84.9826 103.095 79.8321 103.063C74.6816 103.031 69.6972 104.883 65.8175 108.271C61.9377 111.659 59.4303 116.348 58.7674 121.456C58.6175 122.195 58.5568 122.949 58.5866 123.703C58.8707 126.648 60.9116 129.515 64.7607 131.737C73.0014 136.465 86.4346 136.465 94.572 131.737C98.421 129.49 100.41 126.648 100.669 123.703C100.798 123.046 100.798 122.371 100.669 121.714V121.714Z" fill="#003067"/>
<path d="M100.669 114.753C100.069 109.637 97.6192 104.918 93.7815 101.483C89.9438 98.0473 84.9826 96.1337 79.8321 96.102C74.6816 96.0702 69.6972 97.9226 65.8175 101.31C61.9377 104.698 59.4303 109.387 58.7674 114.495C58.6175 115.234 58.5568 115.988 58.5866 116.742C58.8707 119.687 60.9116 122.555 64.7607 124.776C73.0014 129.504 86.4346 129.504 94.572 124.776C98.421 122.529 100.41 119.687 100.669 116.742C100.798 116.085 100.798 115.41 100.669 114.753V114.753Z" fill="url(#paint1_linear)"/>
<path d="M79.7181 93.1039C82.2081 93.0887 84.6379 92.3363 86.7009 90.9418C88.7638 89.5473 90.3677 87.5731 91.31 85.2682C92.2523 82.9633 92.491 80.431 91.9958 77.9906C91.5007 75.5502 90.2939 73.3112 88.5278 71.5558C86.7616 69.8004 84.5152 68.6074 82.0719 68.1272C79.6285 67.6471 77.0977 67.9012 74.7986 68.8577C72.4995 69.8141 70.5352 71.43 69.1533 73.5015C67.7715 75.573 67.0341 78.0073 67.0341 80.4974C67.0363 82.1588 67.3665 83.8034 68.0057 85.3369C68.6449 86.8705 69.5805 88.2627 70.7589 89.4339C71.9372 90.6051 73.3352 91.5322 74.8726 92.1619C76.4101 92.7917 78.0567 93.1118 79.7181 93.1039Z" fill="url(#paint2_linear)"/>
<path opacity="0.2" d="M53.5535 126.061C52.0299 125.117 50.7663 123.807 49.8771 122.25L44.9461 114.033C44.0522 112.475 42.7849 111.163 41.2581 110.216C40.7275 109.84 40.1116 109.602 39.466 109.524C38.8204 109.446 38.1655 109.53 37.5606 109.769L35.4236 111.011C36.0285 110.772 36.6833 110.688 37.3289 110.766C37.9745 110.844 38.5904 111.082 39.121 111.458C40.6478 112.405 41.9151 113.717 42.809 115.275L47.7402 123.492C48.6293 125.049 49.8929 126.359 51.4164 127.303C51.9636 127.698 52.6055 127.942 53.2771 128.009C53.9486 128.076 54.626 127.964 55.2406 127.685L57.3776 126.444C56.763 126.723 56.0857 126.834 55.4141 126.767C54.7425 126.7 54.1006 126.456 53.5535 126.061V126.061Z" fill="#50E6FF"/>
<path opacity="0.2" d="M76.5819 120.978C75.6732 118.878 74.1527 117.101 72.2189 115.877C71.6731 115.482 71.0324 115.239 70.3621 115.171C69.6917 115.104 69.0154 115.215 68.402 115.494L66.2649 116.736C66.8784 116.457 67.5546 116.346 68.225 116.413C68.8954 116.481 69.5361 116.724 70.0819 117.119C72.0157 118.342 73.5361 120.12 74.4449 122.22L87.8289 151.494L89.966 150.252L76.5819 120.978Z" fill="#50E6FF"/>
<path opacity="0.2" d="M70.0819 117.12C72.0157 118.344 73.5362 120.121 74.4449 122.221L87.8289 151.495L26.6991 116.202L35.4235 111.011C36.0284 110.773 36.6833 110.689 37.3289 110.767C37.9745 110.845 38.5904 111.082 39.121 111.458C40.6478 112.405 41.9151 113.717 42.809 115.275L47.7401 123.492C48.6293 125.049 49.8929 126.359 51.4165 127.303C53.0791 128.263 54.7319 128.336 55.796 127.252L65.7043 117.175C66.7836 116.077 68.434 116.169 70.0819 117.12Z" fill="url(#paint3_linear)"/>
<path opacity="0.6" d="M49.6363 128.249C48.1127 127.304 46.849 125.994 45.9599 124.437L41.0289 116.221C40.135 114.662 38.8676 113.351 37.3409 112.404C36.8103 112.028 36.1943 111.79 35.5487 111.712C34.9031 111.634 34.2483 111.718 33.6433 111.957L31.5063 113.199C32.1112 112.96 32.7661 112.876 33.4117 112.954C34.0573 113.032 34.6732 113.27 35.2038 113.645C36.7306 114.592 37.9979 115.904 38.8918 117.463L43.8229 125.679C44.7121 127.236 45.9757 128.546 47.4992 129.491C48.0463 129.886 48.6882 130.129 49.3598 130.197C50.0314 130.264 50.7088 130.152 51.3233 129.873L53.4603 128.631C52.8458 128.91 52.1684 129.022 51.4968 128.955C50.8253 128.887 50.1834 128.644 49.6363 128.249Z" fill="#50E6FF"/>
<path opacity="0.6" d="M72.6647 123.166C71.7559 121.066 70.2355 119.288 68.3016 118.065C67.7558 117.67 67.1152 117.426 66.4448 117.359C65.7744 117.292 65.0982 117.403 64.4847 117.682L62.3477 118.923C62.9611 118.645 63.6374 118.534 64.3078 118.601C64.9782 118.668 65.6188 118.912 66.1647 119.307C68.0985 120.53 69.6189 122.307 70.5277 124.408L83.9117 153.681L86.0487 152.439L72.6647 123.166Z" fill="#50E6FF"/>
<path opacity="0.6" d="M66.1647 119.308C68.0985 120.531 69.6189 122.309 70.5277 124.409L83.9117 153.682L22.7819 118.389L31.5063 113.199C32.1112 112.96 32.7661 112.876 33.4117 112.954C34.0572 113.032 34.6732 113.27 35.2038 113.646C36.7305 114.593 37.9979 115.904 38.8918 117.463L43.8229 125.68C44.712 127.236 45.9757 128.546 47.4992 129.491C49.1618 130.451 50.8147 130.523 51.8788 129.44L61.787 119.362C62.8663 118.264 64.5168 118.357 66.1647 119.308Z" fill="url(#paint4_linear)"/>
<path d="M45.621 130.503C44.0974 129.558 42.8338 128.248 41.9446 126.691L37.0136 118.475C36.1197 116.916 34.8524 115.604 33.3256 114.657C32.795 114.282 32.1791 114.044 31.5335 113.966C30.8879 113.888 30.233 113.972 29.6281 114.211L27.4911 115.452C28.096 115.214 28.7508 115.13 29.3964 115.208C30.042 115.286 30.6579 115.523 31.1885 115.899C32.7153 116.846 33.9826 118.158 34.8765 119.716L39.8077 127.933C40.6968 129.49 41.9604 130.8 43.4839 131.745C44.0311 132.14 44.673 132.383 45.3446 132.45C46.0161 132.518 46.6935 132.406 47.3081 132.127L49.4451 130.885C48.8306 131.164 48.1532 131.276 47.4816 131.209C46.81 131.141 46.1681 130.898 45.621 130.503V130.503Z" fill="#50E6FF"/>
<path d="M68.6494 125.42C67.7407 123.319 66.2202 121.542 64.2864 120.319C63.7406 119.924 63.0999 119.68 62.4296 119.613C61.7592 119.546 61.0829 119.657 60.4695 119.935L58.3324 121.177C58.9459 120.899 59.6221 120.787 60.2925 120.855C60.9629 120.922 61.6036 121.166 62.1494 121.561C64.0832 122.784 65.6037 124.561 66.5124 126.661L79.8965 155.935L82.0335 154.693L68.6494 125.42Z" fill="#50E6FF"/>
<path d="M62.1494 121.562C64.0832 122.785 65.6036 124.563 66.5124 126.663L79.8964 155.936L18.7666 120.643L27.491 115.453C28.0959 115.214 28.7508 115.13 29.3964 115.208C30.042 115.286 30.6579 115.524 31.1886 115.9C32.7153 116.847 33.9826 118.158 34.8766 119.717L39.8076 127.934C40.6968 129.49 41.9604 130.8 43.484 131.745C45.1466 132.705 46.7994 132.777 47.8635 131.693L57.7718 121.616C58.8511 120.518 60.5015 120.61 62.1494 121.562Z" fill="url(#paint5_linear)"/>
<path d="M57.3686 77.3221C57.194 77.4364 57.0488 77.5903 56.9449 77.7713C56.841 77.9524 56.7813 78.1554 56.7708 78.3638L56.7786 81.1208C56.7796 81.4995 57.0508 81.654 57.3804 81.4637L59.7796 80.0785C59.9535 79.965 60.0983 79.812 60.2022 79.6321C60.306 79.4522 60.3661 79.2504 60.3775 79.043L60.3697 76.286C60.3686 75.901 60.0975 75.7465 59.7679 75.9369L57.3686 77.3221Z" fill="#F2F2F2"/>
<path d="M52.5647 80.0937C52.39 80.2079 52.2448 80.3619 52.1409 80.5429C52.037 80.7239 51.9774 80.9269 51.9668 81.1354L51.9746 83.8923C51.9757 84.2711 52.2467 84.4256 52.5764 84.2353L54.9757 82.8501C55.1509 82.7367 55.2969 82.5835 55.4017 82.403C55.5066 82.2225 55.5673 82.0198 55.579 81.8114L55.5711 79.0544C55.57 78.6694 55.2989 78.515 54.9639 78.7084L52.5647 80.0937Z" fill="#F2F2F2"/>
<path d="M57.353 71.8078C57.1785 71.9208 57.0334 72.0736 56.9294 72.2536C56.8255 72.4336 56.7658 72.6357 56.7551 72.8433L56.7629 75.6003C56.764 75.979 57.0351 76.1335 57.3647 75.9432L59.764 74.558C59.9379 74.4444 60.0827 74.2915 60.1866 74.1116C60.2904 73.9317 60.3505 73.7299 60.3619 73.5224L60.3541 70.7654C60.353 70.3804 60.082 70.2322 59.7523 70.4225L57.353 71.8078Z" fill="#F2F2F2"/>
<path d="M47.7608 82.8682C47.5862 82.9825 47.441 83.1364 47.3371 83.3174C47.2332 83.4985 47.1735 83.7015 47.163 83.91L47.1708 86.6669C47.1719 87.0457 47.4429 87.2001 47.7726 87.0098L50.1772 85.6215C50.3512 85.5079 50.4959 85.355 50.5998 85.1751C50.7036 84.9952 50.7637 84.7934 50.7751 84.586L50.7672 81.829C50.7661 81.444 50.4951 81.2895 50.1655 81.4798L47.7608 82.8682Z" fill="#F2F2F2"/>
<path d="M52.5491 74.5793C52.3746 74.6923 52.2294 74.8451 52.1255 75.0251C52.0215 75.2051 51.9618 75.4072 51.9512 75.6148L51.959 78.3718C51.9601 78.7506 52.2311 78.9051 52.5608 78.7147L54.96 77.3295C55.1353 77.2161 55.2813 77.063 55.3861 76.8825C55.491 76.702 55.5517 76.4993 55.5633 76.2909L55.5555 73.5338C55.5544 73.1488 55.2833 73.0006 54.9483 73.1941L52.5491 74.5793Z" fill="#F2F2F2"/>
<path d="M57.3374 66.2871C57.1635 66.4007 57.0187 66.5536 56.9148 66.7335C56.811 66.9134 56.7509 67.1152 56.7395 67.3226L56.7473 70.0796C56.7484 70.4583 57.0195 70.6128 57.3491 70.4225L59.7484 69.0373C59.9223 68.9237 60.0671 68.7708 60.1709 68.5909C60.2748 68.411 60.3348 68.2091 60.3462 68.0017L60.3384 65.2448C60.3373 64.866 60.0663 64.7115 59.7366 64.9018L57.3374 66.2871Z" fill="#F2F2F2"/>
<path d="M42.9568 85.6416C42.7821 85.7559 42.6369 85.9099 42.5331 86.0909C42.4292 86.2719 42.3696 86.4749 42.359 86.6834L42.3668 89.4404C42.3679 89.8192 42.6389 89.9737 42.9685 89.7834L45.3732 88.3951C45.5472 88.2815 45.6919 88.1285 45.7958 87.9486C45.8997 87.7687 45.9597 87.5668 45.9711 87.3594L45.9633 84.6024C45.9622 84.2174 45.6911 84.0629 45.3615 84.2533L42.9568 85.6416Z" fill="#F2F2F2"/>
<path d="M47.7451 77.3537C47.5706 77.4667 47.4255 77.6195 47.3215 77.7996C47.2176 77.9796 47.1578 78.1817 47.1472 78.3893L47.155 81.1463C47.1561 81.5251 47.4271 81.6796 47.7568 81.4892L50.1615 80.1009C50.3354 79.9873 50.4802 79.8344 50.584 79.6545C50.6879 79.4746 50.7479 79.2728 50.7593 79.0654L50.7515 76.3084C50.7504 75.9234 50.4794 75.7752 50.1498 75.9654L47.7451 77.3537Z" fill="#F2F2F2"/>
<path d="M52.5334 69.0625C52.3595 69.1761 52.2147 69.329 52.1109 69.5089C52.007 69.6888 51.9469 69.8906 51.9355 70.098L51.9434 72.855C51.9444 73.2338 52.2155 73.3883 52.5452 73.1979L54.9444 71.8127C55.1197 71.6993 55.2657 71.5461 55.3705 71.3656C55.4753 71.1851 55.536 70.9824 55.5477 70.774L55.5399 68.0171C55.5388 67.6383 55.2677 67.4839 54.9327 67.6773L52.5334 69.0625Z" fill="#F2F2F2"/>
<path d="M57.3218 60.7675C57.1478 60.8811 57.0031 61.034 56.8992 61.2139C56.7953 61.3938 56.7353 61.5956 56.7239 61.8031L56.7317 64.56C56.7328 64.9388 57.0039 65.0932 57.3335 64.9029L59.7327 63.5177C59.9067 63.4042 60.0514 63.2512 60.1553 63.0713C60.2592 62.8914 60.3192 62.6896 60.3306 62.4822L60.3228 59.7252C60.3217 59.3465 60.0507 59.192 59.721 59.3823L57.3218 60.7675Z" fill="#F2F2F2"/>
<path d="M38.1528 88.415C37.9781 88.5293 37.833 88.6833 37.7291 88.8643C37.6252 89.0453 37.5655 89.2483 37.5549 89.4568L37.5627 92.2138C37.5638 92.5926 37.8349 92.747 38.1645 92.5567L40.5692 91.1684C40.7431 91.0548 40.8879 90.9019 40.9918 90.722C41.0956 90.5421 41.1557 90.3402 41.1671 90.1328L41.1593 87.3758C41.1582 86.9908 40.8871 86.8364 40.5575 87.0267L38.1528 88.415Z" fill="#F2F2F2"/>
<path d="M42.9412 80.1272C42.7667 80.2402 42.6216 80.393 42.5177 80.573C42.4137 80.753 42.354 80.9551 42.3434 81.1627L42.3512 83.9197C42.3523 84.2985 42.6233 84.453 42.9529 84.2627L45.3576 82.8744C45.5315 82.7608 45.6763 82.6079 45.7801 82.428C45.884 82.2481 45.9441 82.0463 45.9555 81.8388L45.9477 79.0818C45.9466 78.6968 45.6755 78.5486 45.3459 78.7389L42.9412 80.1272Z" fill="#F2F2F2"/>
<path d="M47.7295 71.8331C47.5555 71.9467 47.4108 72.0996 47.3069 72.2795C47.203 72.4594 47.143 72.6613 47.1316 72.8687L47.1394 75.6256C47.1405 76.0044 47.4115 76.1589 47.7412 75.9686L50.1459 74.5802C50.3198 74.4666 50.4645 74.3137 50.5684 74.1338C50.6722 73.9539 50.7323 73.7521 50.7437 73.5447L50.7359 70.7878C50.7348 70.409 50.4638 70.2545 50.1342 70.4448L47.7295 71.8331Z" fill="#F2F2F2"/>
<path d="M52.5178 63.5391C52.3439 63.6527 52.1991 63.8056 52.0952 63.9855C51.9914 64.1654 51.9313 64.3672 51.9199 64.5746L51.9277 67.3316C51.9288 67.7104 52.1999 67.8649 52.5295 67.6745L54.9288 66.2893C55.104 66.1759 55.25 66.0227 55.3549 65.8423C55.4597 65.6618 55.5204 65.459 55.5321 65.2506L55.5243 62.4936C55.5232 62.1149 55.2521 61.9604 54.9171 62.1538L52.5178 63.5391Z" fill="#F2F2F2"/>
<path d="M33.349 91.1885C33.1743 91.3027 33.0291 91.4567 32.9252 91.6377C32.8213 91.8187 32.7617 92.0218 32.7511 92.2302L32.7589 94.9872C32.76 95.3659 33.0311 95.5204 33.3607 95.3301L35.7654 93.9417C35.9393 93.8282 36.0841 93.6752 36.1879 93.4953C36.2918 93.3154 36.3518 93.1136 36.3633 92.9062L36.3554 90.1492C36.3543 89.7642 36.0832 89.6098 35.7536 89.8001L33.349 91.1885Z" fill="#E8E8E8"/>
<path d="M38.1372 82.9007C37.9627 83.0137 37.8176 83.1665 37.7136 83.3465C37.6097 83.5266 37.55 83.7287 37.5393 83.9363L37.5471 86.6933C37.5482 87.072 37.8193 87.2265 38.1489 87.0362L40.5536 85.6478C40.7275 85.5343 40.8723 85.3813 40.9761 85.2014C41.08 85.0215 41.1401 84.8197 41.1515 84.6123L41.1436 81.8553C41.1426 81.4703 40.8715 81.322 40.5419 81.5124L38.1372 82.9007Z" fill="#F2F2F2"/>
<path d="M42.9254 74.6066C42.7515 74.7202 42.6068 74.8731 42.5029 75.053C42.3991 75.2329 42.339 75.4347 42.3276 75.6421L42.3354 78.399C42.3365 78.7778 42.6076 78.9323 42.9372 78.742L45.3418 77.3537C45.5158 77.2401 45.6605 77.0872 45.7644 76.9073C45.8683 76.7274 45.9283 76.5256 45.9397 76.3181L45.9319 73.5612C45.9309 73.1824 45.6598 73.0279 45.3302 73.2183L42.9254 74.6066Z" fill="#F2F2F2"/>
<path d="M47.7138 66.3137C47.5399 66.4272 47.3952 66.5802 47.2913 66.7601C47.1874 66.94 47.1274 67.1418 47.116 67.3492L47.1238 70.1062C47.1249 70.4849 47.3959 70.6394 47.7256 70.4491L50.1302 69.0607C50.3042 68.9472 50.4489 68.7942 50.5528 68.6143C50.6566 68.4345 50.7167 68.2326 50.7281 68.0252L50.7202 65.2682C50.7192 64.8895 50.4481 64.735 50.1185 64.9252L47.7138 66.3137Z" fill="#F2F2F2"/>
<path d="M28.5504 93.9587C28.3745 94.0728 28.228 94.227 28.1232 94.4086C28.0183 94.5903 27.958 94.7942 27.9471 95.0036L27.955 97.7606C27.956 98.1394 28.2271 98.2938 28.5622 98.1004L30.9614 96.7152C31.1354 96.6016 31.2801 96.4487 31.384 96.2688C31.4878 96.0889 31.5479 95.8871 31.5593 95.6796L31.5515 92.9227C31.5504 92.5377 31.2793 92.3833 30.9497 92.5736L28.5504 93.9587Z" fill="#E8E8E8"/>
<path d="M33.3332 85.6741C33.1588 85.7871 33.0136 85.9399 32.9097 86.1199C32.8057 86.3 32.746 86.5021 32.7354 86.7097L32.7432 89.4667C32.7442 89.8454 33.0154 89.9999 33.345 89.8096L35.7496 88.4212C35.9236 88.3077 36.0683 88.1547 36.1722 87.9748C36.276 87.7949 36.3361 87.5931 36.3475 87.3857L36.3397 84.6287C36.3386 84.2437 36.0675 84.0955 35.7379 84.2858L33.3332 85.6741Z" fill="#E8E8E8"/>
<path d="M38.1216 77.38C37.9476 77.4936 37.8029 77.6465 37.699 77.8264C37.5951 78.0063 37.5351 78.2082 37.5237 78.4156L37.5315 81.1725C37.5326 81.5513 37.8037 81.7057 38.1333 81.5155L40.538 80.1271C40.7119 80.0135 40.8567 79.8606 40.9606 79.6807C41.0644 79.5008 41.1245 79.299 41.1359 79.0916L41.128 76.3346C41.1269 75.9558 40.8559 75.8014 40.5262 75.9917L38.1216 77.38Z" fill="#F2F2F2"/>
<path d="M42.9098 69.087C42.7359 69.2006 42.5912 69.3535 42.4873 69.5334C42.3834 69.7133 42.3234 69.9151 42.312 70.1225L42.3198 72.8795C42.3209 73.2583 42.5919 73.4128 42.9215 73.2225L45.3262 71.8342C45.5002 71.7206 45.6449 71.5677 45.7488 71.3878C45.8526 71.2079 45.9127 71.0061 45.9241 70.7986L45.9163 68.0416C45.9152 67.6629 45.6442 67.5084 45.3145 67.6987L42.9098 69.087Z" fill="#F2F2F2"/>
<path d="M28.5348 88.4444C28.359 88.5572 28.2126 88.7102 28.1077 88.8908C28.0028 89.0715 27.9424 89.2745 27.9315 89.483L27.9393 92.24C27.9404 92.6188 28.2115 92.7733 28.5465 92.5798L30.9458 91.1946C31.1197 91.081 31.2645 90.9281 31.3683 90.7482C31.4722 90.5683 31.5323 90.3665 31.5437 90.1591L31.5359 87.4021C31.5348 87.0171 31.2637 86.8689 30.9341 87.0592L28.5348 88.4444Z" fill="#E8E8E8"/>
<path d="M38.1059 71.8605C37.932 71.9741 37.7873 72.127 37.6834 72.3069C37.5795 72.4868 37.5195 72.6886 37.5081 72.896L37.5159 75.653C37.5169 76.0318 37.7881 76.1863 38.1177 75.996L40.5223 74.6076C40.6963 74.494 40.841 74.3411 40.9449 74.1612C41.0488 73.9813 41.1088 73.7795 41.1202 73.5721L41.1124 70.8151C41.1113 70.4363 40.8403 70.2818 40.5106 70.4722L38.1059 71.8605Z" fill="#F2F2F2"/>
<path d="M33.894 69.6361C33.5301 70.0716 33.3187 70.6142 33.2922 71.1811C33.2943 71.9449 33.8364 72.2476 34.5011 71.8639C34.85 71.6379 35.1403 71.3323 35.3482 70.9722C35.5561 70.6122 35.6756 70.208 35.6968 69.7928C35.6954 69.2805 35.4533 68.9748 35.0936 68.9444L35.0931 68.7606L43.496 63.9093L43.4965 64.0947C43.1357 64.5294 42.9264 65.0698 42.9 65.6341C42.9022 66.3979 43.4443 66.7006 44.1036 66.32C44.4533 66.0936 44.7445 65.7876 44.9532 65.4271C45.162 65.0666 45.2824 64.6617 45.3047 64.2457C45.3033 63.7354 45.0606 63.4313 44.7016 63.3999L44.701 63.2136L53.1039 58.3622L53.1044 58.5475C52.7437 58.9823 52.5343 59.5226 52.508 60.0869C52.5101 60.8507 53.0523 61.1534 53.7115 60.7729C54.0604 60.5468 54.3507 60.2412 54.5586 59.8812C54.7665 59.5212 54.8859 59.1169 54.9072 58.7017C54.9058 58.1895 54.6637 57.8837 54.304 57.8533L54.3035 57.6696L63.3116 52.4688L63.4016 84.2047C63.3561 85.0352 63.1159 85.8434 62.7005 86.564C62.2851 87.2846 61.7061 87.8975 61.0102 88.353L27.3825 107.768C26.0586 108.532 24.9797 107.917 24.9754 106.39L24.8854 74.6541L33.8935 69.4532L33.894 69.6361ZM37.5628 92.2128C37.5638 92.5916 37.835 92.746 38.1646 92.5557L40.5692 91.1674C40.7432 91.0538 40.8879 90.9009 40.9918 90.721C41.0957 90.5411 41.1557 90.3393 41.1671 90.1318L41.1593 87.3748C41.1582 86.9898 40.8872 86.8354 40.5575 87.0257L38.1528 88.4141C37.9782 88.5283 37.833 88.6823 37.7291 88.8633C37.6252 89.0443 37.5655 89.2473 37.5549 89.4558L37.5628 92.2128V92.2128ZM51.9746 83.8921C51.9757 84.2709 52.2468 84.4254 52.5764 84.235L54.9757 82.8498C55.1509 82.7364 55.2969 82.5833 55.4018 82.4028C55.5066 82.2223 55.5673 82.0195 55.579 81.8111L55.5712 79.0542C55.5701 78.6692 55.299 78.5148 54.9639 78.7082L52.5647 80.0934C52.39 80.2077 52.2448 80.3616 52.1409 80.5426C52.037 80.7237 51.9774 80.9267 51.9668 81.1352L51.9746 83.8921V83.8921ZM32.7588 94.9864C32.7599 95.3651 33.031 95.5196 33.3606 95.3293L35.7653 93.9409C35.9392 93.8274 36.084 93.6744 36.1878 93.4945C36.2917 93.3146 36.3518 93.1128 36.3632 92.9054L36.3554 90.1484C36.3543 89.7634 36.0832 89.609 35.7536 89.7993L33.3489 91.1877C33.1742 91.3019 33.029 91.4559 32.9251 91.6369C32.8212 91.8179 32.7616 92.021 32.751 92.2294L32.7588 94.9864V94.9864ZM27.9549 97.7599C27.956 98.1387 28.2271 98.2931 28.5621 98.0997L30.9614 96.7145C31.1353 96.6009 31.28 96.448 31.3839 96.2681C31.4878 96.0882 31.5478 95.8864 31.5592 95.679L31.5514 92.9219C31.5503 92.5369 31.2792 92.3825 30.9496 92.5728L28.5504 93.958C28.3744 94.0721 28.228 94.2263 28.1231 94.4079C28.0182 94.5896 27.9579 94.7935 27.9471 95.0029L27.9549 97.7599V97.7599ZM47.1707 86.6657C47.1718 87.0444 47.4428 87.1989 47.7725 87.0086L50.1772 85.6202C50.3511 85.5067 50.4958 85.3537 50.5997 85.1738C50.7035 84.9939 50.7636 84.7921 50.775 84.5847L50.7672 81.8277C50.7661 81.4427 50.495 81.2883 50.1654 81.4786L47.7607 82.8669C47.5861 82.9812 47.4409 83.1351 47.337 83.3162C47.2331 83.4972 47.1734 83.7002 47.1629 83.9087L47.1707 86.6657V86.6657ZM42.3668 89.4392C42.3678 89.818 42.6389 89.9725 42.9685 89.7822L45.3732 88.3939C45.5471 88.2803 45.6919 88.1274 45.7957 87.9475C45.8996 87.7676 45.9596 87.5657 45.971 87.3583L45.9632 84.6013C45.9621 84.2163 45.6911 84.0618 45.3614 84.2522L42.9567 85.6405C42.7821 85.7548 42.6369 85.9088 42.533 86.0898C42.4291 86.2708 42.3695 86.4739 42.359 86.6823L42.3668 89.4393L42.3668 89.4392ZM37.5471 86.6928C37.5482 87.0716 37.8193 87.226 38.1489 87.0357L40.5536 85.6473C40.7275 85.5337 40.8723 85.3808 40.9761 85.2009C41.08 85.021 41.1401 84.8192 41.1515 84.6118L41.1436 81.8548C41.1426 81.4698 40.8715 81.3215 40.5418 81.5119L38.1372 82.9002C37.9627 83.0132 37.8176 83.166 37.7136 83.346C37.6097 83.5261 37.5499 83.7282 37.5393 83.9358L37.5471 86.6928L37.5471 86.6928ZM51.959 78.372C51.96 78.7508 52.2311 78.9053 52.5607 78.7149L54.96 77.3297C55.1352 77.2163 55.2812 77.0632 55.3861 76.8827C55.4909 76.7022 55.5516 76.4995 55.5633 76.291L55.5555 73.534C55.5544 73.149 55.2833 73.0008 54.9483 73.1942L52.549 74.5794C52.3745 74.6925 52.2294 74.8452 52.1254 75.0253C52.0215 75.2053 51.9618 75.4074 51.9511 75.615L51.959 78.372ZM32.7432 89.4663C32.7443 89.8451 33.0154 89.9995 33.345 89.8093L35.7497 88.4209C35.9236 88.3073 36.0683 88.1544 36.1722 87.9745C36.2761 87.7946 36.3361 87.5928 36.3475 87.3853L36.3397 84.6283C36.3386 84.2433 36.0675 84.0951 35.7379 84.2854L33.3332 85.6737C33.1588 85.7867 33.0136 85.9395 32.9097 86.1196C32.8057 86.2996 32.746 86.5017 32.7354 86.7093L32.7432 89.4663V89.4663ZM27.9392 92.2398C27.9403 92.6186 28.2114 92.7731 28.5465 92.5796L30.9457 91.1944C31.1196 91.0808 31.2644 90.9279 31.3683 90.748C31.4721 90.5681 31.5322 90.3663 31.5436 90.1589L31.5358 87.4019C31.5347 87.0169 31.2636 86.8687 30.934 87.0589L28.5347 88.4441C28.3589 88.557 28.2125 88.71 28.1076 88.8906C28.0027 89.0712 27.9423 89.2742 27.9314 89.4828L27.9392 92.2398ZM37.5315 81.1726C37.5325 81.5514 37.8037 81.7058 38.1333 81.5155L40.538 80.1272C40.7119 80.0136 40.8567 79.8607 40.9605 79.6808C41.0644 79.5009 41.1245 79.299 41.1358 79.0916L41.128 76.3347C41.1269 75.9559 40.8558 75.8014 40.5262 75.9918L38.1215 77.3801C37.9476 77.4937 37.8028 77.6466 37.699 77.8265C37.5951 78.0064 37.535 78.2082 37.5236 78.4157L37.5315 81.1726ZM37.5158 75.6525C37.5169 76.0313 37.788 76.1857 38.1176 75.9954L40.5223 74.6071C40.6962 74.4935 40.841 74.3406 40.9448 74.1607C41.0487 73.9808 41.1088 73.7789 41.1202 73.5715L41.1124 70.8145C41.1113 70.4358 40.8402 70.2813 40.5105 70.4716L38.1059 71.86C37.932 71.9736 37.7872 72.1265 37.6833 72.3064C37.5795 72.4863 37.5194 72.6881 37.508 72.8955L37.5158 75.6526V75.6525ZM51.9433 72.8519C51.9444 73.2307 52.2155 73.3852 52.5451 73.1949L54.9444 71.8097C55.1196 71.6963 55.2656 71.5431 55.3705 71.3626C55.4753 71.1821 55.536 70.9794 55.5477 70.771L55.5399 68.014C55.5388 67.6353 55.2677 67.4808 54.9327 67.6743L52.5334 69.0594C52.3595 69.173 52.2147 69.3259 52.1108 69.5058C52.007 69.6857 51.9469 69.8875 51.9355 70.095L51.9433 72.8519V72.8519ZM51.9277 67.3318C51.9288 67.7106 52.1998 67.865 52.5295 67.6747L54.9287 66.2895C55.104 66.1761 55.25 66.0229 55.3548 65.8424C55.4597 65.6619 55.5204 65.4592 55.532 65.2508L55.5242 62.4938C55.5231 62.1151 55.252 61.9606 54.917 62.154L52.5178 63.5393C52.3438 63.6529 52.1991 63.8058 52.0952 63.9857C51.9913 64.1656 51.9313 64.3674 51.9199 64.5748L51.9277 67.3318ZM56.7786 81.1186C56.7796 81.4973 57.0507 81.6518 57.3804 81.4615L59.7796 80.0763C59.9536 79.9627 60.0983 79.8098 60.2022 79.6299C60.306 79.45 60.3661 79.2482 60.3775 79.0408L60.3697 76.2838C60.3686 75.8988 60.0975 75.7443 59.7679 75.9346L57.3686 77.3198C57.194 77.4341 57.0488 77.5881 56.9449 77.7691C56.841 77.9501 56.7813 78.1531 56.7707 78.3616L56.7786 81.1186V81.1186ZM47.1551 81.1456C47.1561 81.5244 47.4272 81.6789 47.7568 81.4885L50.1615 80.1002C50.3354 79.9866 50.4802 79.8337 50.584 79.6538C50.6879 79.4739 50.7479 79.2721 50.7593 79.0647L50.7515 76.3077C50.7504 75.9227 50.4794 75.7745 50.1498 75.9647L47.7451 77.3531C47.5706 77.4661 47.4255 77.6189 47.3215 77.7989C47.2176 77.9789 47.1579 78.181 47.1472 78.3886L47.1551 81.1456V81.1456ZM42.3511 83.9192C42.3522 84.298 42.6232 84.4525 42.9528 84.2622L45.3575 82.8738C45.5314 82.7603 45.6762 82.6073 45.7801 82.4274C45.8839 82.2475 45.944 82.0457 45.9554 81.8383L45.9476 79.0813C45.9465 78.6963 45.6755 78.5481 45.3458 78.7384L42.9411 80.1268C42.7666 80.2398 42.6215 80.3925 42.5176 80.5726C42.4137 80.7526 42.3539 80.9547 42.3433 81.1623L42.3511 83.9193V83.9192ZM47.1394 75.6256C47.1405 76.0044 47.4115 76.1588 47.7412 75.9685L50.1459 74.5802C50.3198 74.4666 50.4645 74.3137 50.5684 74.1338C50.6722 73.9539 50.7323 73.7521 50.7437 73.5447L50.7359 70.7877C50.7348 70.409 50.4637 70.2545 50.1342 70.4447L47.7295 71.8331C47.5555 71.9467 47.4108 72.0996 47.3069 72.2795C47.203 72.4594 47.143 72.6612 47.1316 72.8686L47.1394 75.6256V75.6256ZM42.3355 78.3991C42.3365 78.7779 42.6076 78.9324 42.9372 78.7421L45.3419 77.3538C45.5158 77.2402 45.6606 77.0873 45.7644 76.9074C45.8683 76.7275 45.9283 76.5256 45.9397 76.3182L45.932 73.5612C45.9309 73.1824 45.6598 73.0279 45.3302 73.2182L42.9255 74.6066C42.7516 74.7201 42.6068 74.8731 42.503 75.053C42.3991 75.2329 42.3391 75.4347 42.3277 75.6421L42.3355 78.399L42.3355 78.3991ZM47.1238 70.1053C47.1248 70.4841 47.3959 70.6386 47.7255 70.4483L50.1302 69.0599C50.3041 68.9463 50.4489 68.7934 50.5527 68.6135C50.6566 68.4336 50.7166 68.2318 50.728 68.0244L50.7202 65.2674C50.7191 64.8886 50.4481 64.7341 50.1185 64.9244L47.7138 66.3127C47.5399 66.4263 47.3951 66.5792 47.2913 66.7591C47.1874 66.939 47.1273 67.1408 47.1159 67.3483L47.1238 70.1053ZM42.3198 72.8789C42.3209 73.2577 42.5919 73.4121 42.9215 73.2219L45.3262 71.8335C45.5001 71.7199 45.6449 71.567 45.7488 71.3871C45.8526 71.2072 45.9127 71.0054 45.9241 70.798L45.9163 68.041C45.9152 67.6622 45.6442 67.5077 45.3145 67.6981L42.9098 69.0864C42.7359 69.2 42.5911 69.3529 42.4873 69.5328C42.3834 69.7127 42.3234 69.9145 42.312 70.1219L42.3198 72.8789V72.8789ZM56.763 75.5985C56.764 75.9772 57.0351 76.1317 57.3648 75.9414L59.764 74.5562C59.9379 74.4426 60.0827 74.2897 60.1866 74.1098C60.2904 73.9299 60.3505 73.728 60.3619 73.5206L60.3541 70.7636C60.353 70.3786 60.0819 70.2304 59.7523 70.4207L57.353 71.806C57.1785 71.919 57.0333 72.0718 56.9294 72.2518C56.8254 72.4318 56.7657 72.6339 56.7551 72.8415L56.7629 75.5985L56.763 75.5985ZM56.7473 70.0783C56.7483 70.4571 57.0194 70.6115 57.3491 70.4212L59.7483 69.036C59.9223 68.9224 60.067 68.7695 60.1709 68.5896C60.2747 68.4097 60.3348 68.2079 60.3462 68.0005L60.3384 65.2435C60.3373 64.8648 60.0663 64.7103 59.7366 64.9006L57.3373 66.2858C57.1634 66.3994 57.0187 66.5523 56.9148 66.7322C56.8109 66.9121 56.7508 67.114 56.7394 67.3214L56.7473 70.0783ZM56.7316 64.5582C56.7327 64.937 57.0038 65.0914 57.3334 64.9011L59.7327 63.5159C59.9066 63.4024 60.0514 63.2494 60.1552 63.0695C60.2591 62.8896 60.3191 62.6878 60.3305 62.4804L60.3227 59.7234C60.3216 59.3447 60.0506 59.1902 59.7209 59.3805L57.3217 60.7657C57.1478 60.8793 57.003 61.0322 56.8991 61.2121C56.7953 61.392 56.7352 61.5938 56.7238 61.8013L56.7316 64.5582" fill="white"/>
<path d="M24.9755 106.39L24.8854 74.6542L23.6925 73.9609L23.7824 105.697C23.7524 105.993 23.8015 106.292 23.9248 106.564C24.0481 106.835 24.2411 107.069 24.4841 107.241L25.6771 107.935C25.4341 107.762 25.2411 107.528 25.1179 107.257C24.9946 106.986 24.9455 106.687 24.9755 106.39Z" fill="#F2F2F2"/>
<path d="M24.882 73.2789L23.689 72.5859L23.692 73.9639L24.885 74.6579L24.882 73.2789Z" fill="#E8E8E8"/>
<path d="M63.312 52.4718L63.308 51.0938L54.3 56.2948L54.3041 57.6728L63.312 52.4718Z" fill="#F2F2F2"/>
<path d="M53.104 58.3634L53.1 56.9844L44.697 61.8364L44.701 63.2144L53.104 58.3634Z" fill="#F2F2F2"/>
<path d="M43.496 63.9102L43.492 62.5312L35.089 67.3833L35.093 68.7612L43.496 63.9102Z" fill="#F2F2F2"/>
<path d="M26.0578 64.3028C25.7092 64.5307 25.4192 64.8375 25.2115 65.1985C25.0037 65.5594 24.884 65.9642 24.8621 66.3801L24.8816 73.2787L33.8897 68.0779L33.8814 65.1319C33.5194 65.103 33.2742 64.7985 33.2727 64.2857C33.295 63.8697 33.4155 63.4649 33.6242 63.1043C33.833 62.7438 34.1241 62.4379 34.4738 62.2115C35.1385 61.8277 35.6752 62.1336 35.6774 62.8973C35.6519 63.4623 35.4424 64.0035 35.081 64.4384L35.0893 67.3853L43.4922 62.5339L43.4838 59.5854C43.1254 59.5538 42.882 59.2496 42.8806 58.7385C42.9026 58.3235 43.0224 57.9196 43.2302 57.5597C43.438 57.1997 43.7279 56.894 44.0763 56.6674C44.741 56.2837 45.2831 56.5864 45.2852 57.3502C45.259 57.9142 45.0496 58.4543 44.6889 58.8886L44.6972 61.8381L53.1001 56.9867L53.0917 54.0383C52.7334 54.0067 52.4899 53.7025 52.4885 53.1914C52.5105 52.7764 52.6303 52.3725 52.8381 52.0126C53.0459 51.6527 53.3358 51.347 53.6842 51.1204C54.3489 50.7367 54.8856 51.0425 54.8877 51.8063C54.8622 52.3713 54.6528 52.9124 54.2913 53.3474L54.2997 56.2942L63.3078 51.0934L63.2882 44.1948C63.286 43.4311 62.7439 43.1221 62.0846 43.5027L26.0578 64.3028Z" fill="#1F56A3"/>
<path d="M53.6861 51.8095C53.5121 51.923 53.3674 52.076 53.2635 52.2559C53.1597 52.4358 53.0996 52.6376 53.0883 52.845L53.0916 54.0382L53.1 56.9866L53.1039 58.3651L53.1044 58.5504L53.1078 59.7435C53.1089 60.1285 53.3799 60.2768 53.7095 60.0865C53.8845 59.9741 54.0301 59.8215 54.1341 59.6413C54.2381 59.4612 54.2975 59.2588 54.3074 59.051L54.304 57.8563L54.3035 57.6725L54.2996 56.2941L54.2912 53.3472L54.2878 52.1524C54.2868 51.7736 54.0212 51.616 53.6861 51.8095Z" fill="#AAB0B1"/>
<path d="M54.304 57.8555L54.3074 59.0502C54.2975 59.258 54.2381 59.4604 54.1341 59.6405C54.0301 59.8207 53.8845 59.9733 53.7095 60.0858C53.3799 60.2761 53.1089 60.1278 53.1078 59.7428L53.1044 58.5496C52.7436 58.9844 52.5343 59.5248 52.5079 60.0891C52.5101 60.8528 53.0522 61.1556 53.7114 60.775C54.0604 60.549 54.3507 60.2434 54.5586 59.8833C54.7664 59.5233 54.8859 59.1191 54.9072 58.7039C54.9058 58.1916 54.6637 57.8858 54.304 57.8555Z" fill="#E8E8E8"/>
<path d="M53.6841 51.1187C53.3357 51.3453 53.0458 51.651 52.838 52.0109C52.6302 52.3708 52.5104 52.7747 52.4884 53.1897C52.4899 53.7008 52.7333 54.005 53.0916 54.0366L53.0882 52.8434C53.0996 52.636 53.1597 52.4342 53.2635 52.2543C53.3674 52.0744 53.5121 51.9215 53.686 51.8079C54.0211 51.6144 54.2868 51.772 54.2878 52.1508L54.2912 53.3456C54.6527 52.9106 54.8621 52.3695 54.8877 51.8045C54.8855 51.0408 54.3488 50.7349 53.6841 51.1187Z" fill="#003067"/>
<path d="M43.4965 64.0971C43.1357 64.5318 42.9264 65.0722 42.9 65.6365C42.9022 66.4002 43.4443 66.703 44.1036 66.3223C44.4533 66.096 44.7445 65.79 44.9532 65.4295C45.162 65.069 45.2824 64.6642 45.3047 64.2482C45.3033 63.7378 45.0606 63.4337 44.7016 63.4023L44.7049 64.5944C44.6941 64.803 44.6337 65.006 44.5287 65.1866C44.4238 65.3672 44.2774 65.5203 44.1016 65.6331C43.772 65.8234 43.501 65.6752 43.4999 65.2902L43.4965 64.0971Z" fill="#E8E8E8"/>
<path d="M33.8941 69.6371C33.5302 70.0726 33.3188 70.6152 33.2922 71.1821C33.2944 71.9458 33.8365 72.2486 34.5012 71.8648C34.8501 71.6388 35.1404 71.3332 35.3483 70.9732C35.5562 70.6132 35.6756 70.2089 35.6969 69.7937C35.6955 69.2815 35.4534 68.9757 35.0937 68.9453L35.0971 70.1401C35.0864 70.3477 35.0267 70.5498 34.9228 70.7298C34.8188 70.9098 34.6737 71.0626 34.4992 71.1756C34.1642 71.369 33.8986 71.2176 33.8975 70.8326L33.8941 69.6371Z" fill="#E8E8E8"/>
<path d="M44.0782 57.357C43.9043 57.4706 43.7595 57.6235 43.6557 57.8034C43.5518 57.9833 43.4918 58.1851 43.4803 58.3925L43.4837 59.5857L43.4921 62.5341L43.496 63.9127L43.4965 64.098L43.4999 65.2911C43.501 65.6761 43.7721 65.8244 44.1017 65.6341C44.2775 65.5213 44.4239 65.3682 44.5288 65.1876C44.6337 65.007 44.6941 64.804 44.705 64.5954L44.7016 63.4033L44.7011 63.2169L44.6972 61.8384L44.6888 58.889L44.6855 57.6968C44.6844 57.318 44.4132 57.1635 44.0782 57.357Z" fill="#AAB0B1"/>
<path d="M44.0762 56.6662C43.7278 56.8928 43.4379 57.1985 43.2301 57.5584C43.0223 57.9183 42.9025 58.3223 42.8805 58.7373C42.8819 59.2484 43.1254 59.5526 43.4837 59.5842L43.4803 58.391C43.4917 58.1836 43.5518 57.9817 43.6557 57.8018C43.7595 57.6219 43.9043 57.469 44.0782 57.3554C44.4132 57.162 44.6843 57.3164 44.6854 57.6952L44.6888 58.8874C45.0496 58.453 45.2589 57.913 45.2852 57.3489C45.283 56.5852 44.741 56.2824 44.0762 56.6662Z" fill="#003067"/>
<path d="M34.4757 62.8979C34.3013 63.0109 34.1561 63.1637 34.0522 63.3437C33.9483 63.5237 33.8886 63.7258 33.8779 63.9334L33.8813 65.1291L33.8897 68.0751L33.8936 69.4536L33.8941 69.6364L33.8975 70.832C33.8986 71.217 34.1642 71.3684 34.4992 71.175C34.6737 71.062 34.8188 70.9092 34.9228 70.7292C35.0267 70.5492 35.0864 70.3471 35.0971 70.1395L35.0937 68.9447L35.0932 68.761L35.0893 67.3825L35.0809 64.4356L35.0775 63.2408C35.0764 62.8621 34.8054 62.7076 34.4757 62.8979Z" fill="#AAB0B1"/>
<path d="M34.4737 62.2085C34.124 62.4349 33.8328 62.7409 33.6241 63.1014C33.4153 63.4619 33.2949 63.8667 33.2726 64.2827C33.274 64.7956 33.5192 65.1001 33.8812 65.1289L33.8778 63.9333C33.8885 63.7257 33.9482 63.5236 34.0521 63.3436C34.156 63.1635 34.3012 63.0108 34.4756 62.8978C34.8053 62.7074 35.0764 62.8619 35.0774 63.2407L35.0808 64.4355C35.4423 64.0005 35.6517 63.4593 35.6773 62.8944C35.6751 62.1306 35.1384 61.8247 34.4737 62.2085Z" fill="#003067"/>
<path d="M33.89 68.0742L24.882 73.2752L24.885 74.6542L33.894 69.4532L33.89 68.0742Z" fill="#F2F2F2"/>
<path d="M62.9357 43.4208L61.7427 42.7274C61.6065 42.6639 61.4557 42.638 61.3061 42.6523C61.1564 42.6666 61.0133 42.7207 60.8916 42.8089L62.0846 43.5022C62.2063 43.414 62.3494 43.3599 62.4991 43.3456C62.6487 43.3313 62.7995 43.3572 62.9357 43.4208V43.4208Z" fill="#0078D4"/>
<path d="M24.8619 66.3776L23.6689 65.6836L23.6879 72.5826L24.8819 73.2756L24.8619 66.3776Z" fill="#0078D4"/>
<path d="M62.085 43.5016L60.892 42.8086L24.865 63.6086L26.058 64.3016L62.085 43.5016Z" fill="#0078D4"/>
<path d="M26.0577 64.3027L24.8647 63.6094C24.5161 63.8372 24.2261 64.1441 24.0184 64.505C23.8106 64.866 23.6909 65.2708 23.6689 65.6867L24.8619 66.38C24.8839 65.9641 25.0036 65.5593 25.2114 65.1984C25.4192 64.8374 25.7091 64.5306 26.0577 64.3027V64.3027Z" fill="#0078D4"/>
<path d="M36.2449 76.9562C36.1572 78.5825 35.6867 80.1651 34.8716 81.5751C34.0565 82.9851 32.9198 84.1826 31.5543 85.0702C28.9661 86.5644 26.8507 85.3589 26.8423 82.3848C26.9281 80.7585 27.3969 79.1754 28.2104 77.7645C29.0239 76.3536 30.1591 75.1549 31.5236 74.2658C34.121 72.7663 36.2364 73.9718 36.2449 76.9562Z" fill="#0078D4"/>
<path d="M33.0957 77.2507C32.9389 77.3485 32.8098 77.4849 32.7207 77.6468L30.9978 80.6309L30.3713 80.2844L30.3259 80.2377C30.2657 80.2104 30.1993 80.1994 30.1335 80.2059C30.0677 80.2123 30.0047 80.236 29.9509 80.2745C29.7963 80.3706 29.6697 80.5056 29.5838 80.6661C29.3763 81.0151 29.3774 81.3894 29.5771 81.5137L29.5682 81.5292L30.6304 82.1242C30.6919 82.1488 30.7585 82.1576 30.8242 82.1496C30.8899 82.1417 30.9526 82.1174 31.0065 82.079C31.1619 81.9829 31.2909 81.8493 31.3815 81.6906L33.4651 78.0712C33.6726 77.7118 33.6715 77.3375 33.4718 77.2132C33.4113 77.1859 33.3447 77.175 33.2787 77.1815C33.2127 77.1881 33.1496 77.212 33.0957 77.2507Z" fill="white"/>
</g>
<defs>
<linearGradient id="paint0_linear" x1="79.6785" y1="8.27734" x2="79.6785" y2="179.692" gradientUnits="userSpaceOnUse">
<stop stop-color="#00ABDE"/>
<stop offset="1" stop-color="#007ED8"/>
</linearGradient>
<linearGradient id="paint1_linear" x1="79.6778" y1="96.1016" x2="79.6778" y2="128.322" gradientUnits="userSpaceOnUse">
<stop stop-color="#008BF1"/>
<stop offset="0.22" stop-color="#0086EC"/>
<stop offset="0.49" stop-color="#0078DD"/>
<stop offset="0.79" stop-color="#0061C4"/>
<stop offset="1" stop-color="#004DAE"/>
</linearGradient>
<linearGradient id="paint2_linear" x1="91.5141" y1="70.0671" x2="79.2383" y2="98.3927" gradientUnits="userSpaceOnUse">
<stop stop-color="#008BF1"/>
<stop offset="0.22" stop-color="#0086EC"/>
<stop offset="0.49" stop-color="#0078DD"/>
<stop offset="0.79" stop-color="#0061C4"/>
<stop offset="1" stop-color="#004DAE"/>
</linearGradient>
<linearGradient id="paint3_linear" x1="50.4196" y1="148.24" x2="67.9322" y2="111.417" gradientUnits="userSpaceOnUse">
<stop stop-color="#50E6FF" stop-opacity="0"/>
<stop offset="1" stop-color="#50E6FF"/>
</linearGradient>
<linearGradient id="paint4_linear" x1="22.7819" y1="133.303" x2="83.9081" y2="133.303" gradientUnits="userSpaceOnUse">
<stop stop-color="#50E6FF" stop-opacity="0.4"/>
<stop offset="1" stop-color="#50E6FF" stop-opacity="0"/>
</linearGradient>
<linearGradient id="paint5_linear" x1="18.7666" y1="135.557" x2="79.8929" y2="135.557" gradientUnits="userSpaceOnUse">
<stop stop-color="#50E6FF" stop-opacity="0.4"/>
<stop offset="1" stop-color="#50E6FF" stop-opacity="0"/>
</linearGradient>
<clipPath id="clip0">
<rect width="159.356" height="188" fill="white"/>
</clipPath>
</defs>
</svg>
