<svg width="102" height="102" viewBox="0 0 102 102" fill="none" xmlns="http://www.w3.org/2000/svg">
<path d="M50.9995 97.7899C44.8523 97.7899 38.7652 96.5791 33.0859 94.2267C27.4067 91.8743 22.2461 88.4263 17.8994 84.0796C13.5527 79.7329 10.1049 74.5726 7.75244 68.8933C5.40002 63.2141 4.18945 57.127 4.18945 50.9799C4.18945 44.8327 5.40002 38.7458 7.75244 33.0665C10.1049 27.3873 13.5527 22.227 17.8994 17.8802C22.2461 13.5335 27.4067 10.0856 33.0859 7.73315C38.7652 5.38073 44.8523 4.16992 50.9995 4.16992C63.4143 4.16992 75.3205 9.10167 84.0991 17.8802C92.8777 26.6588 97.8091 38.5651 97.8091 50.9799C97.8091 63.3946 92.8777 75.301 84.0991 84.0796C75.3205 92.8582 63.4143 97.7899 50.9995 97.7899V97.7899Z" fill="url(#paint0_linear)"/>
<path fill-rule="evenodd" clip-rule="evenodd" d="M96.8994 51.0004C96.8994 63.1738 92.0635 74.8487 83.4556 83.4567C74.8476 92.0646 63.1729 96.9004 50.9995 96.9004C38.8261 96.9004 27.1509 92.0646 18.543 83.4567C9.93505 74.8487 5.09912 63.1738 5.09912 51.0004C5.09912 38.8269 9.93505 27.1521 18.543 18.5442C27.1509 9.93627 38.8261 5.10046 50.9995 5.10046C63.1729 5.10046 74.8476 9.93627 83.4556 18.5442C92.0635 27.1521 96.8994 38.8269 96.8994 51.0004V51.0004ZM50.9995 1.36035C57.5187 1.35904 63.9739 2.64218 69.9971 5.13635C76.0203 7.63053 81.4933 11.287 86.103 15.8967C90.7128 20.5065 94.3691 25.9792 96.8633 32.0024C99.3575 38.0256 100.64 44.4812 100.639 51.0004C100.639 64.1657 95.4094 76.7919 86.1001 86.1012C76.7908 95.4105 64.1649 100.64 50.9995 100.64C37.8342 100.64 25.2077 95.4105 15.8984 86.1012C6.58913 76.7919 1.35938 64.1657 1.35938 51.0004C1.35806 44.4812 2.64108 38.0256 5.13525 32.0024C7.62943 25.9792 11.2857 20.5065 15.8955 15.8967C20.5053 11.287 25.9783 7.63053 32.0015 5.13635C38.0247 2.64218 44.4803 1.35904 50.9995 1.36035V1.36035Z" fill="#F2F1F0"/>
<path fill-rule="evenodd" clip-rule="evenodd" d="M94.0898 50.9999C94.0898 56.6585 92.975 62.2618 90.8096 67.4897C88.6441 72.7177 85.4705 77.4678 81.4692 81.4691C77.468 85.4704 72.7177 88.6445 67.4897 90.8099C62.2618 92.9754 56.6587 94.09 51 94.09C39.5718 94.09 28.6117 89.5501 20.5308 81.4691C12.4498 73.3882 7.90967 62.4281 7.90967 50.9999C7.90967 39.5717 12.4498 28.6116 20.5308 20.5306C28.6117 12.4497 39.5718 7.90991 51 7.90991C56.6587 7.90991 62.2618 9.02447 67.4897 11.1899C72.7177 13.3554 77.468 16.5294 81.4692 20.5306C85.4705 24.5319 88.6441 29.2822 90.8096 34.5101C92.975 39.7381 94.0898 45.3412 94.0898 50.9999ZM51 4.16992C63.4201 4.16992 75.3314 9.10378 84.1138 17.8861C92.8961 26.6684 97.8296 38.5798 97.8296 50.9999C97.819 63.413 92.8808 75.3142 84.0996 84.0879C75.3184 92.8616 63.4132 97.7899 51 97.7899C38.5799 97.7899 26.6686 92.8561 17.8862 84.0737C9.1039 75.2914 4.16992 63.38 4.16992 50.96C4.18052 38.5468 9.11872 26.6456 17.8999 17.8719C26.6811 9.09827 38.5868 4.16992 51 4.16992V4.16992Z" fill="url(#paint1_linear)"/>
<path opacity="0.15" d="M22.1001 78.5203H79.2202C79.9893 78.5203 80.7271 78.2148 81.271 77.6709C81.8149 77.127 82.1201 76.3894 82.1201 75.6202V30.0703H19.2002V75.6202C19.2002 76.0011 19.2752 76.3783 19.4209 76.7301C19.5666 77.0819 19.7805 77.4016 20.0498 77.6709C20.3191 77.9402 20.6389 78.1538 20.9907 78.2996C21.3426 78.4453 21.7193 78.5203 22.1001 78.5203V78.5203Z" fill="#1F1D20"/>
<path d="M20.4004 75.8699H80.9204C81.2387 75.8699 81.544 75.7435 81.769 75.5184C81.9941 75.2934 82.1201 74.9882 82.1201 74.6699V27.4199H19.2002V74.6699C19.2002 74.8275 19.2312 74.9836 19.2915 75.1292C19.3518 75.2747 19.4403 75.407 19.5518 75.5184C19.6632 75.6299 19.7953 75.7183 19.9409 75.7786C20.0865 75.8389 20.2428 75.8699 20.4004 75.8699V75.8699Z" fill="white"/>
<path d="M19.2002 32.6498H82.1201V27.0098C82.1201 26.7658 82.0236 26.5318 81.8511 26.3593C81.6785 26.1867 81.4442 26.0898 81.2002 26.0898H20.1201C19.8761 26.0898 19.6423 26.1867 19.4697 26.3593C19.2972 26.5318 19.2002 26.7658 19.2002 27.0098V32.6498Z" fill="#092E4C"/>
<path d="M24.0406 31.1002C24.4649 31.1002 24.8718 30.9317 25.1719 30.6316C25.472 30.3315 25.6402 29.9245 25.6402 29.5001C25.6375 29.0775 25.4678 28.6731 25.168 28.3752C24.8682 28.0773 24.4632 27.9101 24.0406 27.9102C23.6162 27.9102 23.2088 28.0787 22.9087 28.3788C22.6087 28.6788 22.4405 29.0858 22.4405 29.5101C22.4391 29.7202 22.4795 29.9284 22.5596 30.1226C22.6397 30.3167 22.7578 30.4929 22.9068 30.641C23.0557 30.789 23.2326 30.9059 23.4273 30.9847C23.6219 31.0636 23.8306 31.1029 24.0406 31.1002Z" fill="#35AFE4"/>
<path d="M43.6304 66.4297H58.3003C58.5143 66.4297 58.7261 66.3875 58.9238 66.3055C59.1216 66.2236 59.3013 66.1036 59.4526 65.9523C59.604 65.8009 59.7242 65.6212 59.8062 65.4235C59.8881 65.2257 59.9302 65.0137 59.9302 64.7997V55.7997C59.9275 55.3691 59.7546 54.9571 59.4492 54.6536C59.1438 54.35 58.7309 54.1797 58.3003 54.1797H43.6504C43.2198 54.1797 42.8069 54.35 42.5015 54.6536C42.1961 54.9571 42.0231 55.3691 42.0205 55.7997V64.7997C42.0256 65.227 42.1958 65.6357 42.4961 65.9397C42.7964 66.2437 43.2032 66.4194 43.6304 66.4297V66.4297Z" fill="#F2F2F3"/>
<path d="M43.6304 53.1599H58.3003C58.7309 53.1599 59.1438 52.9896 59.4492 52.686C59.7546 52.3825 59.9275 51.9705 59.9302 51.5399V42.5399C59.9275 42.1093 59.7546 41.6973 59.4492 41.3938C59.1438 41.0903 58.7309 40.9199 58.3003 40.9199H43.6504C43.2198 40.9199 42.8069 41.0903 42.5015 41.3938C42.1961 41.6973 42.0231 42.1093 42.0205 42.5399V51.5399C42.0256 51.9663 42.1965 52.3739 42.4971 52.6763C42.7976 52.9787 43.2041 53.1521 43.6304 53.1599V53.1599Z" fill="#F2F2F3"/>
<path d="M62.7106 66.4298H77.3605C77.5741 66.4298 77.7853 66.3876 77.9825 66.3055C78.1797 66.2235 78.3588 66.1033 78.5094 65.9518C78.66 65.8003 78.7792 65.6206 78.86 65.4229C78.9408 65.2252 78.9819 65.0134 78.9806 64.7998V55.7998C78.9806 55.3702 78.8098 54.9581 78.506 54.6543C78.2022 54.3505 77.7901 54.1798 77.3605 54.1798H62.7003C62.4868 54.1771 62.275 54.2172 62.0773 54.2976C61.8795 54.3781 61.6999 54.4974 61.549 54.6483C61.398 54.7993 61.2788 54.9789 61.1984 55.1766C61.1179 55.3744 61.0775 55.5863 61.0802 55.7998V64.7998C61.0802 65.0139 61.1228 65.2258 61.2047 65.4236C61.2866 65.6213 61.4064 65.801 61.5577 65.9524C61.7091 66.1038 61.8888 66.2238 62.0866 66.3057C62.2843 66.3876 62.4965 66.4298 62.7106 66.4298V66.4298Z" fill="#F2F2F3"/>
<path d="M57.1997 45.1699H52.3896C52.2897 45.1725 52.1947 45.2133 52.124 45.2841C52.0533 45.3548 52.0123 45.4499 52.0098 45.5499C52.0124 45.649 52.0535 45.743 52.1245 45.8121C52.1955 45.8812 52.2906 45.92 52.3896 45.9199H57.1997C57.2978 45.9199 57.392 45.8809 57.4614 45.8115C57.5308 45.7421 57.5698 45.6481 57.5698 45.5499C57.5699 45.4509 57.531 45.3557 57.4619 45.2847C57.3928 45.2137 57.2987 45.1725 57.1997 45.1699V45.1699Z" fill="#74CFEB"/>
<path d="M57.1997 46.79H52.3896C52.2906 46.79 52.1955 46.8287 52.1245 46.8978C52.0535 46.9669 52.0124 47.061 52.0098 47.16C52.0098 47.2099 52.0195 47.2593 52.0386 47.3054C52.0577 47.3515 52.0858 47.3934 52.1211 47.4287C52.1564 47.464 52.1985 47.492 52.2446 47.5111C52.2907 47.5302 52.3397 47.54 52.3896 47.54H57.1997C57.2491 47.5401 57.2982 47.5302 57.3438 47.511C57.3893 47.4918 57.4304 47.4635 57.4648 47.4281C57.4993 47.3927 57.5264 47.3507 57.5444 47.3047C57.5624 47.2586 57.5712 47.2095 57.5698 47.16C57.5673 47.0627 57.5273 46.9701 57.4585 46.9012C57.3896 46.8324 57.297 46.7926 57.1997 46.79Z" fill="#35AFE4"/>
<path fill-rule="evenodd" clip-rule="evenodd" d="M52.3799 48.59H54.7798C54.8292 48.5886 54.8783 48.5971 54.9243 48.6151C54.9704 48.6331 55.0124 48.6602 55.0479 48.6947C55.0833 48.7292 55.1116 48.7704 55.1309 48.8159C55.1501 48.8615 55.1597 48.9105 55.1597 48.96C55.161 49.0103 55.1524 49.0602 55.1338 49.1069C55.1152 49.1537 55.0873 49.1961 55.0518 49.2317C55.0162 49.2673 54.9735 49.2952 54.9268 49.3139C54.88 49.3325 54.8301 49.3414 54.7798 49.34H52.3799C52.2808 49.3374 52.1868 49.2961 52.1177 49.2251C52.0486 49.1541 52.0097 49.059 52.0098 48.96C52.0123 48.8626 52.0522 48.7699 52.1211 48.7011C52.1899 48.6322 52.2826 48.5925 52.3799 48.59V48.59Z" fill="#175A98"/>
<path d="M62.7106 53.1503H77.3605C77.5736 53.1516 77.7849 53.1106 77.9821 53.0297C78.1792 52.9487 78.3582 52.8294 78.5089 52.6787C78.6596 52.528 78.779 52.349 78.86 52.1519C78.9409 51.9547 78.9819 51.7434 78.9806 51.5303V42.5303C78.9806 42.1006 78.8098 41.6886 78.506 41.3848C78.2022 41.081 77.7901 40.9103 77.3605 40.9103H62.7003C62.4868 40.9076 62.275 40.9476 62.0773 41.0281C61.8795 41.1085 61.6999 41.2278 61.549 41.3788C61.398 41.5298 61.2788 41.7095 61.1984 41.9072C61.1179 42.105 61.0775 42.3168 61.0802 42.5303V51.5303C61.0828 51.9608 61.2558 52.3729 61.5612 52.6764C61.8666 52.9799 62.28 53.1503 62.7106 53.1503V53.1503Z" fill="#F2F2F3"/>
<path d="M47.2109 62.4795H45.541V64.6696H47.2109V62.4795Z" fill="#4BC8EF"/>
<path d="M49.71 61.0195H48V64.6696H49.71V61.0195Z" fill="#74CFEB"/>
<path d="M52.7407 58.6494H50.5508V64.6494H52.7407V58.6494Z" fill="#35AFE4"/>
<path d="M56.1802 56.21H53.6602V64.6599H56.1802V56.21Z" fill="#175A98"/>
<path fill-rule="evenodd" clip-rule="evenodd" d="M64.751 51.7894H65.0708V42.6895H64.751V51.7894Z" fill="#0066A9"/>
<path fill-rule="evenodd" clip-rule="evenodd" d="M64.0498 46.6198C64.0473 46.6693 64.0348 46.7179 64.0132 46.7625C63.9916 46.8071 63.9611 46.8469 63.9238 46.8796C63.8865 46.9122 63.843 46.937 63.7959 46.9525C63.7488 46.9681 63.6993 46.974 63.6499 46.9699C63.5513 46.9729 63.4551 46.9385 63.3809 46.8736C63.3066 46.8086 63.2601 46.7179 63.25 46.6198C63.2577 46.5207 63.3037 46.4287 63.3784 46.3633C63.4532 46.2979 63.5507 46.2643 63.6499 46.2698C63.6993 46.2657 63.7488 46.2716 63.7959 46.2871C63.843 46.3027 63.8865 46.3275 63.9238 46.3601C63.9611 46.3928 63.9916 46.4326 64.0132 46.4772C64.0348 46.5218 64.0473 46.5703 64.0498 46.6198V46.6198Z" fill="#2179BF"/>
<path fill-rule="evenodd" clip-rule="evenodd" d="M64.0498 48.1999C64.0473 48.2494 64.0348 48.2978 64.0132 48.3425C63.9916 48.3871 63.9611 48.4269 63.9238 48.4595C63.8865 48.4922 63.843 48.517 63.7959 48.5325C63.7488 48.548 63.6993 48.5539 63.6499 48.5499C63.5513 48.5529 63.4551 48.5185 63.3809 48.4535C63.3066 48.3886 63.2601 48.298 63.25 48.1999C63.2525 48.1504 63.265 48.1018 63.2866 48.0572C63.3082 48.0126 63.3382 47.9728 63.3755 47.9401C63.4128 47.9075 63.4563 47.8826 63.5034 47.8671C63.5505 47.8516 63.6005 47.8458 63.6499 47.8499C63.6993 47.8458 63.7488 47.8516 63.7959 47.8671C63.843 47.8826 63.8865 47.9075 63.9238 47.9401C63.9611 47.9728 63.9916 48.0126 64.0132 48.0572C64.0348 48.1018 64.0473 48.1504 64.0498 48.1999V48.1999Z" fill="#0066A9"/>
<path fill-rule="evenodd" clip-rule="evenodd" d="M64.0498 49.8494C64.0473 49.8989 64.0348 49.9474 64.0132 49.992C63.9916 50.0366 63.9611 50.0764 63.9238 50.109C63.8865 50.1417 63.843 50.1665 63.7959 50.182C63.7488 50.1976 63.6993 50.2035 63.6499 50.1994C63.5507 50.2049 63.4532 50.1713 63.3784 50.1059C63.3037 50.0404 63.2577 49.9484 63.25 49.8494C63.2525 49.7999 63.265 49.7513 63.2866 49.7067C63.3082 49.6621 63.3382 49.6223 63.3755 49.5896C63.4128 49.557 63.4563 49.5321 63.5034 49.5166C63.5505 49.5011 63.6005 49.4952 63.6499 49.4993C63.6993 49.4952 63.7488 49.5011 63.7959 49.5166C63.843 49.5321 63.8865 49.557 63.9238 49.5896C63.9611 49.6223 63.9916 49.6621 64.0132 49.7067C64.0348 49.7513 64.0473 49.7999 64.0498 49.8494V49.8494Z" fill="#00527F"/>
<path fill-rule="evenodd" clip-rule="evenodd" d="M69.6599 50.2001H66.2302C66.1497 50.1924 66.075 50.1537 66.0227 50.092C65.9704 50.0304 65.9444 49.9507 65.95 49.87C65.9444 49.7893 65.9704 49.7097 66.0227 49.6481C66.075 49.5864 66.1497 49.5477 66.2302 49.54H69.6599C69.7404 49.5477 69.8146 49.5864 69.867 49.6481C69.9193 49.7097 69.9458 49.7893 69.9402 49.87C69.9458 49.9507 69.9193 50.0304 69.867 50.092C69.8146 50.1537 69.7404 50.1924 69.6599 50.2001V50.2001Z" fill="#00527F"/>
<path fill-rule="evenodd" clip-rule="evenodd" d="M73.021 50.1996H70.9106C70.8129 50.2081 70.7156 50.1786 70.6392 50.117C70.5627 50.0555 70.5135 49.9668 70.501 49.8695C70.5135 49.7722 70.5627 49.6836 70.6392 49.6221C70.7156 49.5605 70.8129 49.531 70.9106 49.5395H73.021C73.1187 49.531 73.2156 49.5605 73.292 49.6221C73.3684 49.6836 73.4181 49.7722 73.4307 49.8695C73.4181 49.9668 73.3684 50.0555 73.292 50.117C73.2156 50.1786 73.1187 50.2081 73.021 50.1996V50.1996Z" fill="#00527F"/>
<path fill-rule="evenodd" clip-rule="evenodd" d="M69.5303 45.2403H66.3501C66.2535 45.2487 66.1578 45.2189 66.083 45.1571C66.0082 45.0954 65.9603 45.0068 65.9502 44.9103C65.9627 44.8157 66.0114 44.7296 66.0859 44.67C66.1605 44.6103 66.255 44.5818 66.3501 44.5904H69.5303C69.5776 44.5848 69.6256 44.5886 69.6714 44.6017C69.7172 44.6148 69.7602 44.637 69.7974 44.6668C69.8346 44.6966 69.8653 44.7334 69.8882 44.7752C69.911 44.817 69.9252 44.8629 69.9302 44.9103C69.9201 45.0068 69.8727 45.0954 69.7979 45.1571C69.723 45.2189 69.6269 45.2487 69.5303 45.2403Z" fill="#4497D2"/>
<path fill-rule="evenodd" clip-rule="evenodd" d="M69.6603 48.5201H66.3005C66.2589 48.5202 66.2176 48.5118 66.1794 48.4956C66.1411 48.4794 66.1067 48.4558 66.0778 48.4259C66.0489 48.396 66.0259 48.3607 66.0109 48.3219C65.9959 48.2831 65.9891 48.2417 65.9904 48.2002C65.9891 48.1582 65.996 48.1162 66.0109 48.0769C66.0258 48.0376 66.048 48.0016 66.0768 47.9709C66.1056 47.9403 66.1405 47.9156 66.1789 47.8983C66.2172 47.881 66.2584 47.8714 66.3005 47.8701H69.7004C69.7424 47.8714 69.7836 47.881 69.8219 47.8983C69.8603 47.9156 69.8952 47.9403 69.924 47.9709C69.9528 48.0016 69.975 48.0376 69.9899 48.0769C70.0048 48.1162 70.0118 48.1582 70.0104 48.2002C70.0123 48.2453 70.0044 48.2903 69.987 48.332C69.9696 48.3737 69.9432 48.411 69.9098 48.4415C69.8765 48.472 69.8372 48.4948 69.7941 48.5084C69.751 48.522 69.7051 48.526 69.6603 48.5201V48.5201Z" fill="#0066A9"/>
<path fill-rule="evenodd" clip-rule="evenodd" d="M74.1208 48.5201H70.8107C70.7691 48.5202 70.7284 48.5118 70.6901 48.4956C70.6518 48.4794 70.617 48.4558 70.5881 48.4259C70.5591 48.396 70.5366 48.3607 70.5216 48.3219C70.5067 48.2831 70.4998 48.2417 70.5011 48.2002C70.4998 48.1582 70.5068 48.1162 70.5216 48.0769C70.5365 48.0376 70.5588 48.0016 70.5876 47.9709C70.6164 47.9403 70.6508 47.9156 70.6891 47.8983C70.7275 47.881 70.7687 47.8714 70.8107 47.8701H74.1208C74.1624 47.8714 74.2036 47.881 74.2414 47.8984C74.2792 47.9158 74.313 47.9406 74.341 47.9714C74.369 48.0022 74.3907 48.0384 74.4045 48.0776C74.4182 48.1169 74.4238 48.1587 74.4211 48.2002C74.4224 48.2409 74.4154 48.2815 74.401 48.3196C74.3867 48.3577 74.3649 48.3926 74.3371 48.4224C74.3092 48.4521 74.2761 48.476 74.2389 48.4928C74.2018 48.5096 74.1615 48.5188 74.1208 48.5201V48.5201Z" fill="#0066A9"/>
<path fill-rule="evenodd" clip-rule="evenodd" d="M66.3003 46.9202C66.2091 46.9229 66.1205 46.89 66.0532 46.8284C65.986 46.7667 65.9456 46.6813 65.9404 46.5902C65.943 46.5455 65.9541 46.5017 65.9736 46.4614C65.9931 46.4212 66.0203 46.3852 66.0537 46.3555C66.0872 46.3258 66.1262 46.3028 66.1685 46.2882C66.2107 46.2736 66.2556 46.2674 66.3003 46.2702H69.6304C69.6745 46.2675 69.7185 46.2737 69.7603 46.2885C69.802 46.3032 69.8404 46.3261 69.873 46.356C69.9057 46.3858 69.9323 46.4219 69.9507 46.4622C69.9691 46.5024 69.9792 46.546 69.9805 46.5902C69.9792 46.6349 69.969 46.6787 69.9507 46.7195C69.9324 46.7603 69.906 46.797 69.8735 46.8276C69.841 46.8583 69.803 46.8823 69.7612 46.8982C69.7195 46.9141 69.675 46.9215 69.6304 46.9202H66.3003Z" fill="#2179BF"/>
<path fill-rule="evenodd" clip-rule="evenodd" d="M76.0705 48.5201H72.7604C72.7197 48.5188 72.6799 48.5096 72.6428 48.4928C72.6056 48.476 72.572 48.4521 72.5441 48.4224C72.5163 48.3926 72.4945 48.3577 72.4802 48.3196C72.4658 48.2815 72.4593 48.2409 72.4606 48.2002C72.4579 48.1587 72.4635 48.1169 72.4772 48.0776C72.491 48.0384 72.5122 48.0022 72.5402 47.9714C72.5682 47.9406 72.6025 47.9158 72.6403 47.8984C72.6781 47.881 72.7188 47.8714 72.7604 47.8701H76.0705C76.1121 47.8714 76.1528 47.881 76.1906 47.8984C76.2284 47.9158 76.2627 47.9406 76.2907 47.9714C76.3187 48.0022 76.34 48.0384 76.3537 48.0776C76.3674 48.1169 76.373 48.1587 76.3703 48.2002C76.3716 48.2409 76.3651 48.2815 76.3508 48.3196C76.3364 48.3577 76.3147 48.3926 76.2868 48.4224C76.2589 48.4521 76.2253 48.476 76.1882 48.4928C76.151 48.5096 76.1112 48.5188 76.0705 48.5201V48.5201Z" fill="#0066A9"/>
<path fill-rule="evenodd" clip-rule="evenodd" d="M68.3604 60.6501L67.6401 60.9102L67.5103 61.3502L67.8203 61.9901V62.0802L67.3701 62.5101L66.6401 62.1602L66.2104 62.3302L65.9702 63.0001V63.0902H65.3403L65.0801 62.3202L64.6504 62.1301L64.0103 62.4402H63.9204L63.4805 61.9801L63.8403 61.2501L63.6704 60.8102L62.9902 60.5702H62.9004V59.9402L63.6704 59.6802L63.8604 59.2401L63.5503 58.6002L63.5005 58.5201L63.9604 58.0902L64.6904 58.4502L65.1304 58.3002L65.3604 57.6602H65.9902L66.2505 58.3701L66.6904 58.5001L67.3301 58.1902H67.4102L67.6504 58.4402L67.8501 58.6401V58.7102L67.5205 59.3701L67.6704 59.8102L68.3101 60.0402L68.3604 60.6501ZM65.6904 61.1902C65.9248 61.1929 66.1503 61.1029 66.3188 60.9401C66.4873 60.7772 66.5851 60.5545 66.5903 60.3202C66.593 60.2038 66.5727 60.088 66.5303 59.9796C66.4879 59.8712 66.4242 59.7722 66.3433 59.6885C66.2623 59.6048 66.1655 59.538 66.0586 59.4919C65.9517 59.4459 65.8366 59.4215 65.7202 59.4202C65.6038 59.4175 65.4883 59.4379 65.3799 59.4803C65.2715 59.5228 65.1721 59.5863 65.0884 59.6672C65.0047 59.7482 64.9381 59.8449 64.8921 59.9518C64.846 60.0587 64.8216 60.1737 64.8203 60.2902C64.8176 60.5245 64.9074 60.7504 65.0703 60.9189C65.2332 61.0874 65.4561 61.1849 65.6904 61.1902V61.1902Z" fill="url(#paint2_linear)"/>
<path fill-rule="evenodd" clip-rule="evenodd" d="M69.3008 59.65H77.0605V58.29H69.3008V59.65Z" fill="#74CFEB"/>
<path fill-rule="evenodd" clip-rule="evenodd" d="M69.3008 61.9896H77.0605V60.6396H69.3008V61.9896Z" fill="#74CFEB"/>
<path fill-rule="evenodd" clip-rule="evenodd" d="M69.3008 59.65H72.5708V58.29H69.3008V59.65Z" fill="url(#paint3_linear)"/>
<path fill-rule="evenodd" clip-rule="evenodd" d="M69.3008 61.9896H74.4707V60.6396H69.3008V61.9896Z" fill="url(#paint4_linear)"/>
<path d="M47.3008 48.9401C47.6589 48.9401 48.0022 48.7979 48.2554 48.5447C48.5086 48.2915 48.6509 47.9481 48.6509 47.5901C48.6483 47.2338 48.5049 46.8929 48.252 46.6418C47.9991 46.3908 47.6571 46.25 47.3008 46.25C46.9454 46.25 46.6044 46.3912 46.3531 46.6425C46.1018 46.8938 45.961 47.2347 45.961 47.5901C45.9597 47.7669 45.9933 47.9422 46.0601 48.106C46.1268 48.2697 46.2251 48.4186 46.3496 48.5441C46.4742 48.6696 46.6225 48.7691 46.7857 48.837C46.9489 48.905 47.124 48.9401 47.3008 48.9401V48.9401Z" fill="url(#paint5_linear)"/>
<path d="M47.9004 46.9395L46.9004 47.9395L46.6001 47.6494L46.4102 47.8495L46.9102 48.3495L48.1104 47.1494L47.9004 46.9395Z" fill="#F2F1F0"/>
<path d="M47.2998 43.8994C46.3185 43.8994 45.3775 44.2893 44.6836 44.9832C43.9897 45.677 43.5996 46.6182 43.5996 47.5995C43.5996 48.5808 43.9897 49.5218 44.6836 50.2157C45.3775 50.9096 46.3185 51.2994 47.2998 51.2994C48.2811 51.2994 49.2221 50.9096 49.916 50.2157C50.6099 49.5218 51 48.5808 51 47.5995C50.9974 46.619 50.6064 45.6794 49.9131 44.9861C49.2198 44.2928 48.2803 43.9021 47.2998 43.8994ZM47.2998 49.3195C46.8427 49.3195 46.4042 49.1386 46.0801 48.8163C45.7559 48.494 45.5725 48.0566 45.5698 47.5995C45.5724 47.1415 45.7557 46.7029 46.0796 46.379C46.4035 46.0552 46.8418 45.872 47.2998 45.8694C47.7569 45.872 48.1943 46.0555 48.5166 46.3796C48.8389 46.7038 49.02 47.1424 49.02 47.5995C49.0174 48.0548 48.8352 48.4907 48.5132 48.8127C48.1912 49.1347 47.7552 49.3168 47.2998 49.3195Z" fill="url(#paint6_linear)"/>
<path d="M47.3003 45.8701V43.8701C46.6826 43.8714 46.0748 44.0277 45.5332 44.3247C44.9916 44.6217 44.5333 45.05 44.2002 45.5702L45.8203 46.7002C45.9757 46.447 46.1931 46.2378 46.4521 46.0925C46.7112 45.9472 47.0033 45.8706 47.3003 45.8701V45.8701Z" fill="#74CFEB"/>
<path d="M45.5309 47.5996C45.5285 47.2943 45.6079 46.9938 45.7608 46.7295L44.1407 45.5996C43.7573 46.1958 43.5557 46.8908 43.5606 47.5996C43.562 48.1239 43.6745 48.6418 43.8907 49.1195L45.691 48.3196C45.5816 48.0956 45.5266 47.8489 45.5309 47.5996V47.5996Z" fill="#44C7F0"/>
<path opacity="0.15" d="M38.9506 65.8593C42.1206 67.7493 42.1206 70.7093 38.9506 72.6193C37.1592 73.5509 35.1699 74.0374 33.1508 74.0374C31.1316 74.0374 29.1418 73.5509 27.3505 72.6193C24.1905 70.7193 24.1905 67.7593 27.3505 65.8593C29.1403 64.9227 31.1307 64.4336 33.1508 64.4336C35.1709 64.4336 37.1607 64.9227 38.9506 65.8593V65.8593Z" fill="#1F1D20"/>
<path d="M39.8501 48.2096V44.0195H26.2202V48.2795C26.2155 48.4383 26.1555 48.5905 26.0503 48.7096C24.8565 49.9188 24.1882 51.5503 24.1904 53.2495V56.2495L33.7202 63.3595L41.9004 56.2495V53.0496C41.8983 52.2166 41.732 51.3922 41.4111 50.6235C41.0903 49.8548 40.621 49.1569 40.0303 48.5696C39.977 48.5253 39.9333 48.4704 39.9023 48.4084C39.8714 48.3465 39.8535 48.2788 39.8501 48.2096Z" fill="url(#paint7_linear)"/>
<path d="M41.8999 58.0293H24.1797V67.2393C24.1814 67.4435 24.1984 67.6475 24.23 67.8494C24.23 69.1594 25.0698 70.4793 26.7998 71.5093C28.7318 72.5195 30.8794 73.0471 33.0596 73.0471C35.2398 73.0471 37.3878 72.5195 39.3198 71.5093C41.1298 70.4193 41.9799 69.0093 41.8799 67.6193C41.8799 67.4893 41.8799 67.3693 41.8799 67.2393V58.0293H41.8999Z" fill="url(#paint8_linear)"/>
<path d="M41.8902 52.4597C41.9047 52.4453 41.9237 52.4356 41.9439 52.4321C41.9641 52.4286 41.9849 52.4314 42.0034 52.4402C42.022 52.4489 42.0372 52.4632 42.0474 52.4809C42.0576 52.4987 42.0619 52.5192 42.0601 52.5397V65.9097C42.0601 67.1397 41.1804 68.5696 39.4004 69.6196C37.5213 70.481 35.466 70.8887 33.4004 70.8097C31.0824 70.9966 28.755 70.5869 26.6402 69.6196C25.8841 69.2305 25.2197 68.6851 24.6905 68.0196C24.2774 67.5875 24.0266 67.0257 23.9805 66.4297V52.6897C23.98 52.6628 23.9869 52.6363 24.001 52.6134C24.0151 52.5905 24.0358 52.5721 24.0601 52.5605C24.0843 52.5489 24.111 52.5446 24.1377 52.548C24.1644 52.5513 24.1899 52.5624 24.2105 52.5797C24.9561 53.1527 25.7726 53.6266 26.6402 53.9896C28.7018 54.856 30.9248 55.272 33.1602 55.2097C35.3163 55.2937 37.4619 54.8653 39.4204 53.9597C40.2965 53.5523 41.1246 53.0492 41.8902 52.4597V52.4597Z" fill="#B4E2EF"/>
<path d="M39.4302 56.6193C38.6772 57.0233 37.8685 57.3131 37.0303 57.4792V68.2793C37.8577 68.1191 38.6567 67.836 39.4004 67.4393C39.8395 67.184 40.2235 66.8441 40.5303 66.4393V56.0293C40.2103 56.2093 39.8602 56.3993 39.4302 56.6193Z" fill="#F4F4F5"/>
<path d="M40.7305 41.3494V43.9993C40.6556 44.6792 40.4072 45.3286 40.0098 45.8854C39.6123 46.4421 39.0792 46.8876 38.4604 47.1793C36.7583 48.0034 34.8917 48.4315 33.0005 48.4315C31.1093 48.4315 29.2427 48.0034 27.5405 47.1793C26.9004 46.8394 26.3356 46.3733 25.8804 45.8093C25.5298 45.4376 25.315 44.9584 25.2705 44.4493L25.3301 41.2993C25.3301 41.2993 26.0205 41.6593 27.5405 42.5693C27.2205 42.3893 38.0905 39.6293 37.7705 39.8093C39.3005 38.8893 40.7305 42.4094 40.7305 41.3494Z" fill="#E6E6E6"/>
<path d="M38.5005 38.3197C41.5005 40.1097 41.5005 42.8897 38.5005 44.6797C36.8147 45.5644 34.939 46.0266 33.0352 46.0266C31.1313 46.0266 29.2561 45.5644 27.5703 44.6797C24.5703 42.8897 24.5703 40.1097 27.5703 38.3197C29.2569 37.4374 31.1318 36.9766 33.0352 36.9766C34.9385 36.9766 36.8139 37.4374 38.5005 38.3197V38.3197Z" fill="#96D8EC"/>
<path d="M35.4205 40.2799C36.7205 41.0599 36.7205 42.2799 35.4205 43.0499C34.6843 43.4346 33.8658 43.6355 33.0352 43.6355C32.2046 43.6355 31.3866 43.4346 30.6505 43.0499C29.3405 42.2699 29.3405 41.0499 30.6505 40.2799C31.3866 39.8953 32.2046 39.6943 33.0352 39.6943C33.8658 39.6943 34.6843 39.8953 35.4205 40.2799V40.2799Z" fill="url(#paint9_linear)"/>
<defs>
<linearGradient id="paint0_linear" x1="49.2393" y1="-13.7801" x2="53.2193" y2="131.99" gradientUnits="userSpaceOnUse">
<stop stop-color="#00ABDE"/>
<stop offset="1" stop-color="#2E7BBF"/>
</linearGradient>
<linearGradient id="paint1_linear" x1="2.43993" y1="-20.6201" x2="97.96" y2="120.26" gradientUnits="userSpaceOnUse">
<stop stop-color="#2E7BBF"/>
<stop offset="0.71" stop-color="#092D4C"/>
</linearGradient>
<linearGradient id="paint2_linear" x1="28571.6" y1="41231.4" x2="28693.2" y2="41099.9" gradientUnits="userSpaceOnUse">
<stop stop-color="#2E7BBF"/>
<stop offset="0.71" stop-color="#092D4C"/>
</linearGradient>
<linearGradient id="paint3_linear" x1="17154.8" y1="10374.8" x2="17175.3" y2="10321.7" gradientUnits="userSpaceOnUse">
<stop stop-color="#2E7BBF"/>
<stop offset="0.71" stop-color="#092D4C"/>
</linearGradient>
<linearGradient id="paint4_linear" x1="27078.1" y1="10300.4" x2="27092" y2="10243.2" gradientUnits="userSpaceOnUse">
<stop stop-color="#2E7BBF"/>
<stop offset="0.71" stop-color="#092D4C"/>
</linearGradient>
<linearGradient id="paint5_linear" x1="14079.2" y1="20454.8" x2="14028.7" y2="20462.9" gradientUnits="userSpaceOnUse">
<stop stop-color="#2E7BBF"/>
<stop offset="0.71" stop-color="#092D4C"/>
</linearGradient>
<linearGradient id="paint6_linear" x1="38650.4" y1="56185.3" x2="38511.3" y2="56207.5" gradientUnits="userSpaceOnUse">
<stop stop-color="#2E7BBF"/>
<stop offset="0.71" stop-color="#092D4C"/>
</linearGradient>
<linearGradient id="paint7_linear" x1="32.8804" y1="34.3895" x2="33.2504" y2="80.5795" gradientUnits="userSpaceOnUse">
<stop stop-color="#4FC2EB"/>
<stop offset="0.58" stop-color="#2E76BC"/>
</linearGradient>
<linearGradient id="paint8_linear" x1="92092.2" y1="113814" x2="92103" y2="113502" gradientUnits="userSpaceOnUse">
<stop stop-color="#4FC2EB"/>
<stop offset="0.58" stop-color="#2E76BC"/>
</linearGradient>
<linearGradient id="paint9_linear" x1="34970.7" y1="29989.3" x2="34984.8" y2="29922.8" gradientUnits="userSpaceOnUse">
<stop stop-color="#4FC2EB"/>
<stop offset="0.58" stop-color="#2E76BC"/>
</linearGradient>
</defs>
</svg>
