<svg width="102" height="102" viewBox="0 0 102 102" fill="none" xmlns="http://www.w3.org/2000/svg">
<path d="M50.9995 97.7705C44.8523 97.7705 38.7652 96.5597 33.0859 94.2073C27.4067 91.8549 22.2461 88.4068 17.8994 84.0601C13.5527 79.7133 10.1049 74.5533 7.75244 68.874C5.40002 63.1948 4.18945 57.1076 4.18945 50.9604C4.18945 44.8133 5.40002 38.7264 7.75244 33.0471C10.1049 27.3679 13.5527 22.2076 17.8994 17.8608C22.2461 13.5141 27.4067 10.066 33.0859 7.71362C38.7652 5.3612 44.8523 4.15039 50.9995 4.15039C63.4143 4.15039 75.3205 9.08226 84.0991 17.8608C92.8777 26.6394 97.8091 38.5457 97.8091 50.9604C97.8091 63.3752 92.8777 75.2815 84.0991 84.0601C75.3205 92.8386 63.4143 97.7705 50.9995 97.7705V97.7705Z" fill="url(#paint0_linear)"/>
<path fill-rule="evenodd" clip-rule="evenodd" d="M96.8994 51.0002C96.8994 63.1737 92.0635 74.8486 83.4556 83.4565C74.8476 92.0645 63.1729 96.9001 50.9995 96.9001C38.8261 96.9001 27.1509 92.0645 18.543 83.4565C9.93505 74.8486 5.09912 63.1737 5.09912 51.0002C5.09912 38.8268 9.93505 27.1519 18.543 18.5439C27.1509 9.93603 38.8261 5.10034 50.9995 5.10034C63.1729 5.10034 74.8476 9.93603 83.4556 18.5439C92.0635 27.1519 96.8994 38.8268 96.8994 51.0002V51.0002ZM50.9995 1.36035C57.5187 1.35904 63.9739 2.64205 69.9971 5.13623C76.0203 7.63041 81.4933 11.2867 86.103 15.8965C90.7128 20.5062 94.3691 25.979 96.8633 32.0022C99.3575 38.0254 100.64 44.4811 100.639 51.0002C100.639 64.1656 95.4094 76.7918 86.1001 86.1011C76.7908 95.4104 64.1649 100.64 50.9995 100.64C37.8342 100.64 25.2077 95.4104 15.8984 86.1011C6.58913 76.7918 1.35938 64.1656 1.35938 51.0002C1.35806 44.4811 2.64108 38.0254 5.13525 32.0022C7.62943 25.979 11.2857 20.5062 15.8955 15.8965C20.5053 11.2867 25.9783 7.63041 32.0015 5.13623C38.0247 2.64205 44.4803 1.35904 50.9995 1.36035V1.36035Z" fill="#F2F1F0"/>
<path fill-rule="evenodd" clip-rule="evenodd" d="M94.0898 51C94.0898 56.6587 92.975 62.2618 90.8096 67.4897C88.6441 72.7177 85.4705 77.468 81.4692 81.4692C77.468 85.4705 72.7177 88.6446 67.4897 90.8101C62.2618 92.9755 56.6587 94.0901 51 94.0901C39.5718 94.0901 28.6117 89.5502 20.5308 81.4692C12.4498 73.3883 7.90967 62.4282 7.90967 51C7.90967 39.5718 12.4498 28.6117 20.5308 20.5308C28.6117 12.4498 39.5718 7.90991 51 7.90991C56.6587 7.90991 62.2618 9.02447 67.4897 11.1899C72.7177 13.3554 77.468 16.5295 81.4692 20.5308C85.4705 24.532 88.6441 29.2823 90.8096 34.5103C92.975 39.7382 94.0898 45.3413 94.0898 51ZM51 4.16992C63.4201 4.16992 75.3314 9.1039 84.1138 17.8862C92.8961 26.6686 97.8296 38.5799 97.8296 51C97.8296 63.4201 92.8961 75.3314 84.1138 84.1138C75.3314 92.8961 63.4201 97.8301 51 97.8301C38.5799 97.8301 26.6686 92.8961 17.8862 84.1138C9.1039 75.3314 4.16992 63.4201 4.16992 51C4.16992 38.5799 9.1039 26.6686 17.8862 17.8862C26.6686 9.1039 38.5799 4.16992 51 4.16992Z" fill="url(#paint1_linear)"/>
<path opacity="0.15" d="M74.2998 22.1299H28.2998C28.0639 22.1286 27.8302 22.1738 27.6118 22.2632C27.3935 22.3526 27.1951 22.4841 27.0279 22.6504C26.8606 22.8168 26.7278 23.0146 26.6372 23.2324C26.5467 23.4503 26.5 23.6838 26.5 23.9197V84.0098C26.4987 84.2465 26.5443 84.4812 26.6343 84.7002C26.7243 84.9192 26.8565 85.1183 27.024 85.2857C27.1914 85.4531 27.3904 85.5856 27.6094 85.6756C27.8284 85.7656 28.0631 85.8112 28.2998 85.8098H74.2998C74.7772 85.8098 75.2352 85.6201 75.5728 85.2825C75.9103 84.9449 76.0996 84.4872 76.0996 84.0098V23.9197C76.0918 23.4457 75.8997 22.9935 75.5635 22.6592C75.2273 22.3249 74.7739 22.1351 74.2998 22.1299V22.1299Z" fill="#1F1D20"/>
<path d="M74.2998 19.9102H28.2998C28.0639 19.9089 27.8302 19.9544 27.6118 20.0437C27.3935 20.1331 27.1951 20.2646 27.0279 20.4309C26.8606 20.5973 26.7278 20.7951 26.6372 21.013C26.5467 21.2308 26.5 21.4643 26.5 21.7002V81.7703C26.4987 82.007 26.5443 82.2417 26.6343 82.4607C26.7243 82.6797 26.8565 82.8785 27.024 83.0459C27.1914 83.2133 27.3904 83.3461 27.6094 83.4361C27.8284 83.5261 28.0631 83.5717 28.2998 83.5703H74.2998C74.7772 83.5703 75.2352 83.3806 75.5728 83.043C75.9103 82.7054 76.0996 82.2477 76.0996 81.7703V21.6802C76.0867 21.2097 75.8923 20.7624 75.5567 20.4324C75.221 20.1024 74.7705 19.9152 74.2998 19.9102V19.9102Z" fill="white"/>
<path fill-rule="evenodd" clip-rule="evenodd" d="M54.3604 11.6302C55.2034 12.0915 55.9047 12.7736 56.3892 13.6034C56.8737 14.4332 57.123 15.3794 57.1104 16.3402V16.8202C57.1204 16.99 57.1204 17.1603 57.1104 17.3302H60.8604C61.4082 17.324 61.9479 17.462 62.4254 17.7306C62.9028 17.9992 63.301 18.3888 63.5802 18.8602C63.9373 19.4025 64.1411 20.0311 64.17 20.6798C64.1989 21.3285 64.0522 21.9729 63.7447 22.5448C63.4372 23.1167 62.9805 23.5949 62.4234 23.9286C61.8664 24.2622 61.2295 24.4389 60.5802 24.4401H41.6905C41.1439 24.4463 40.6052 24.3093 40.128 24.0426C39.6508 23.7759 39.2514 23.3889 38.9703 22.92C38.614 22.3769 38.411 21.7479 38.3824 21.099C38.3538 20.4501 38.501 19.8054 38.8082 19.233C39.1153 18.6607 39.571 18.1817 40.1275 17.8468C40.6841 17.5119 41.3207 17.3335 41.9703 17.3302H45.4605C45.4503 17.1603 45.4503 16.99 45.4605 16.8202V16.67C45.4736 15.6353 45.7575 14.6223 46.2843 13.7316C46.811 12.8409 47.562 12.1038 48.4625 11.5939C49.3629 11.0839 50.3818 10.8189 51.4166 10.8253C52.4514 10.8317 53.4663 11.1092 54.3604 11.6302V11.6302Z" fill="#2157A3"/>
<path d="M51.2998 19.3999C51.6167 19.4012 51.9307 19.3399 52.2237 19.2193C52.5166 19.0986 52.7828 18.9211 53.0069 18.697C53.2309 18.473 53.4082 18.2068 53.5288 17.9138C53.6495 17.6208 53.7113 17.3069 53.71 16.99C53.7113 16.6732 53.6495 16.3592 53.5288 16.0662C53.4082 15.7732 53.2309 15.507 53.0069 15.283C52.7828 15.0589 52.5166 14.8814 52.2237 14.7608C51.9307 14.6401 51.6167 14.5788 51.2998 14.5801C50.6607 14.5801 50.0477 14.8339 49.5957 15.2859C49.1438 15.7379 48.8897 16.3508 48.8897 16.99C48.8883 17.3069 48.9502 17.6208 49.0708 17.9138C49.1915 18.2068 49.3687 18.473 49.5928 18.697C49.8168 18.9211 50.083 19.0986 50.376 19.2193C50.669 19.3399 50.983 19.4012 51.2998 19.3999V19.3999Z" fill="#F2F2F3"/>
<path d="M41.4004 41.7695H32.9004V50.2595H41.4004V41.7695Z" fill="#F2F2F3"/>
<path d="M43.9595 41.53L42.7593 40.3301L36.7593 46.3301L34.9795 44.54L33.7793 45.74L36.7793 48.74L43.9595 41.53Z" fill="#74CFEB"/>
<path d="M41.4004 55.1797H32.9004V63.6697H41.4004V55.1797Z" fill="#F2F2F3"/>
<path d="M43.9595 54.9304L42.7593 53.7305L36.7593 59.7305L34.9795 57.9404L33.7793 59.1306L36.7793 62.1306L43.9595 54.9304Z" fill="#35AFE4"/>
<path d="M41.4004 68.6797H32.9004V77.1797H41.4004V68.6797Z" fill="#F2F2F3"/>
<path d="M43.9595 68.45L42.7593 67.25L36.7593 73.25L34.9595 71.4399L33.7695 72.6401L36.7695 75.6401L43.9595 68.45Z" fill="#1865B1"/>
<path opacity="0.15" d="M65.4406 62C68.6706 63.93 68.6706 66.9999 65.4406 68.8999C63.6119 69.8558 61.5787 70.3552 59.5153 70.3552C57.4518 70.3552 55.4192 69.8558 53.5905 68.8999C50.3605 66.9699 50.3605 63.9 53.5905 62C55.4192 61.0441 57.4518 60.5449 59.5153 60.5449C61.5787 60.5449 63.6119 61.0441 65.4406 62V62Z" fill="#1F1D20"/>
<path d="M66.3594 43.9795V39.6895H52.4395V44.0496C52.4366 44.2155 52.3684 44.3736 52.2495 44.4895C51.0342 45.7276 50.355 47.3947 50.3594 49.1296V52.2195L60.0991 59.4795L68.4395 52.2195V48.9495C68.4382 48.0979 68.2687 47.2552 67.9409 46.4692C67.6132 45.6833 67.1334 44.9698 66.5293 44.3696C66.4746 44.3207 66.4312 44.2604 66.4019 44.1931C66.3725 44.1258 66.358 44.0529 66.3594 43.9795Z" fill="url(#paint2_linear)"/>
<path d="M68.4399 53.9998H50.3496V63.4097C50.351 63.6173 50.368 63.8246 50.3999 64.0298C50.3999 65.3698 51.26 66.7198 53.02 67.7698C54.9929 68.8043 57.1874 69.3447 59.415 69.3447C61.6427 69.3447 63.8367 68.8043 65.8096 67.7698C67.6596 66.6598 68.5299 65.2198 68.4199 63.7698C68.4299 63.64 68.4299 63.5097 68.4199 63.3799V53.9697L68.4399 53.9998Z" fill="url(#paint3_linear)"/>
<path d="M68.4302 48.3201C68.446 48.3071 68.4651 48.2988 68.4854 48.296C68.5057 48.2932 68.5262 48.296 68.5449 48.3043C68.5637 48.3126 68.5798 48.3259 68.5913 48.3428C68.6029 48.3598 68.6095 48.3795 68.6104 48.4V62.0501C68.6104 63.3101 67.7104 64.7702 65.9004 65.8402C63.9836 66.7189 61.8876 67.1366 59.7803 67.0601C57.4139 67.248 55.0389 66.8281 52.8804 65.8402C52.1081 65.4411 51.4271 64.8859 50.8804 64.21C50.4656 63.766 50.2118 63.1956 50.1602 62.5902V48.5902C50.1596 48.5633 50.1671 48.5366 50.1812 48.5137C50.1953 48.4908 50.2155 48.4726 50.2398 48.461C50.264 48.4494 50.2912 48.4449 50.3179 48.4483C50.3446 48.4517 50.3696 48.4628 50.3902 48.48C51.1562 49.063 51.9931 49.5468 52.8804 49.92C54.9816 50.8086 57.2501 51.2316 59.5303 51.16C61.7311 51.2527 63.9223 50.8175 65.9204 49.8902C66.815 49.4657 67.6571 48.9388 68.4302 48.3201V48.3201Z" fill="#B4E2EF"/>
<path d="M65.9297 52.5703C65.1554 52.9761 64.327 53.2689 63.4697 53.4402V64.4402C64.3168 64.2767 65.1356 63.9905 65.8999 63.5903C66.3402 63.3327 66.7273 62.9933 67.04 62.5903V51.9502C66.72 52.1402 66.3597 52.3503 65.9297 52.5703Z" fill="#F4F4F5"/>
<path d="M67.2998 36.9699L67.3496 39.6699C67.2698 40.3663 67.0141 41.0312 66.6064 41.6015C66.1988 42.1718 65.6531 42.6289 65.02 42.9299C63.2812 43.7688 61.3754 44.2045 59.4448 44.2045C57.5143 44.2045 55.6084 43.7688 53.8696 42.9299C53.2144 42.5826 52.6364 42.1065 52.1699 41.53C51.8122 41.15 51.5935 40.6602 51.5498 40.1401L51.6099 36.9199C51.6099 36.9199 52.3196 37.2899 53.8696 38.2199C53.5396 38.0399 64.6498 35.2199 64.3198 35.3999C65.8098 34.4599 67.2998 38.0499 67.2998 36.9699Z" fill="#E6E6E6"/>
<path d="M64.9794 33.8799C67.9794 35.7099 67.9794 38.5499 64.9794 40.3799C63.255 41.279 61.3391 41.7483 59.3944 41.7483C57.4497 41.7483 55.5334 41.279 53.809 40.3799C50.759 38.5399 50.759 35.6999 53.809 33.8799C55.5313 32.9742 57.4485 32.501 59.3944 32.501C61.3404 32.501 63.2571 32.9742 64.9794 33.8799V33.8799Z" fill="#96D8EC"/>
<path d="M61.8295 35.8796C63.1595 36.6796 63.1595 37.8795 61.8295 38.7095C61.0766 39.1037 60.2395 39.3098 59.3896 39.3098C58.5397 39.3098 57.7026 39.1037 56.9496 38.7095C55.6196 37.9095 55.6196 36.7096 56.9496 35.8796C57.7026 35.4854 58.5397 35.2793 59.3896 35.2793C60.2395 35.2793 61.0766 35.4854 61.8295 35.8796V35.8796Z" fill="url(#paint4_linear)"/>
<path d="M43.7305 30.4395H33.7905C33.6252 30.4394 33.466 30.5046 33.3481 30.6206C33.2303 30.7366 33.1628 30.8942 33.1602 31.0596C33.1602 31.2267 33.2266 31.387 33.3447 31.5051C33.4629 31.6233 33.6234 31.6895 33.7905 31.6895H43.7202C43.8873 31.6895 44.0474 31.6233 44.1655 31.5051C44.2837 31.387 44.3501 31.2267 44.3501 31.0596C44.3501 30.9782 44.3344 30.8975 44.3032 30.8223C44.2721 30.747 44.226 30.6787 44.1685 30.6211C44.1109 30.5635 44.043 30.518 43.9678 30.4868C43.8926 30.4557 43.8119 30.4395 43.7305 30.4395V30.4395Z" fill="#74CFEB"/>
<path d="M43.7305 33.1504H33.7905C33.6234 33.1504 33.4629 33.2168 33.3447 33.335C33.2266 33.4531 33.1602 33.6134 33.1602 33.7805C33.1602 33.9476 33.2266 34.1079 33.3447 34.2261C33.4629 34.3442 33.6234 34.4104 33.7905 34.4104H43.7202C43.8873 34.4104 44.0474 34.3442 44.1655 34.2261C44.2837 34.1079 44.3501 33.9476 44.3501 33.7805C44.3501 33.6151 44.2854 33.4565 44.1694 33.3386C44.0534 33.2208 43.8958 33.153 43.7305 33.1504V33.1504Z" fill="#35AFE4"/>
<path fill-rule="evenodd" clip-rule="evenodd" d="M33.7905 36.0703H37.7905C37.9576 36.0703 38.1177 36.1367 38.2358 36.2549C38.354 36.373 38.4204 36.5331 38.4204 36.7002C38.4204 36.7829 38.4042 36.865 38.3726 36.9414C38.3409 37.0178 38.2943 37.0873 38.2358 37.1458C38.1773 37.2043 38.1077 37.2506 38.0312 37.2822C37.9548 37.3139 37.8733 37.3303 37.7905 37.3303H33.7905C33.7078 37.3303 33.6258 37.3139 33.5493 37.2822C33.4729 37.2506 33.4032 37.2043 33.3447 37.1458C33.2862 37.0873 33.2397 37.0178 33.208 36.9414C33.1763 36.865 33.1602 36.7829 33.1602 36.7002C33.1602 36.5331 33.2266 36.373 33.3447 36.2549C33.4629 36.1367 33.6234 36.0703 33.7905 36.0703V36.0703Z" fill="#175A98"/>
<defs>
<linearGradient id="paint0_linear" x1="49.2393" y1="-13.7896" x2="53.2193" y2="131.981" gradientUnits="userSpaceOnUse">
<stop stop-color="#00ABDE"/>
<stop offset="1" stop-color="#2E7BBF"/>
</linearGradient>
<linearGradient id="paint1_linear" x1="2.43993" y1="-20.6201" x2="97.9603" y2="120.26" gradientUnits="userSpaceOnUse">
<stop stop-color="#2E7BBF"/>
<stop offset="0.71" stop-color="#092D4C"/>
</linearGradient>
<linearGradient id="paint2_linear" x1="59.2394" y1="29.8694" x2="59.6094" y2="77.0395" gradientUnits="userSpaceOnUse">
<stop stop-color="#4FC2EB"/>
<stop offset="0.58" stop-color="#2E76BC"/>
</linearGradient>
<linearGradient id="paint3_linear" x1="94518.2" y1="131644" x2="94529.6" y2="131317" gradientUnits="userSpaceOnUse">
<stop stop-color="#4FC2EB"/>
<stop offset="0.58" stop-color="#2E76BC"/>
</linearGradient>
<linearGradient id="paint4_linear" x1="35943.3" y1="34631.9" x2="35957.9" y2="34562.4" gradientUnits="userSpaceOnUse">
<stop stop-color="#4FC2EB"/>
<stop offset="0.58" stop-color="#2E76BC"/>
</linearGradient>
</defs>
</svg>
