<svg width="106" height="106" viewBox="0 0 106 106" fill="none" xmlns="http://www.w3.org/2000/svg">
<g filter="url(#filter0_d)">
<circle cx="53" cy="53" r="49" fill="#5197D5"/>
<circle cx="53" cy="53" r="50.75" stroke="#F2F1F0" stroke-width="3.5"/>
</g>
<circle cx="53" cy="53" r="48" stroke="#0078D4" stroke-width="4"/>
<path opacity="0.15" d="M66.5393 77.9822H42.984C39.9128 77.9822 37.4211 75.4905 37.4211 72.4193V34.5656C37.4211 33.1314 38.58 31.958 40.0287 31.958H70.7404C72.0732 31.958 73.1452 33.03 73.1452 34.3628V71.3762C73.1307 75.0414 70.1755 77.9822 66.5393 77.9822Z" fill="#1F1D20"/>
<path d="M67.3794 75.4328H37.0443C35.8419 75.4328 34.8713 74.4622 34.8713 73.2598V32.0163C34.8713 30.5821 36.0302 29.4087 37.4789 29.4087H68.1906C69.5234 29.4087 70.5954 30.4952 70.5954 31.8135V72.2168C70.5809 73.9987 69.1467 75.4328 67.3794 75.4328Z" fill="url(#paint0_linear)"/>
<g filter="url(#filter1_d)">
<path d="M61.7212 45.2266L55.6486 56.0324L49.226 49.488L42.6056 58.0718L44.1579 59.2893L49.4087 52.5167L56.0748 59.3198L63.441 46.2158L61.7212 45.2266Z" fill="#B796F9"/>
<ellipse cx="49.3021" cy="50.9941" rx="2.49599" ry="2.51121" fill="url(#paint1_linear)"/>
<ellipse cx="56.0748" cy="57.2197" rx="2.49599" ry="2.51121" fill="url(#paint2_linear)"/>
<ellipse cx="62.3604" cy="46.0327" rx="2.49599" ry="2.51121" fill="url(#paint3_linear)"/>
<ellipse cx="43.6405" cy="58.3149" rx="2.49599" ry="2.51121" fill="url(#paint4_linear)"/>
<rect x="47.9324" y="57.8579" width="3.92662" height="11.5364" rx="0.28" fill="#0078D4"/>
<rect x="54.1876" y="61.8457" width="3.92662" height="7.54885" rx="0.28" fill="#005BA1"/>
<rect x="60.4427" y="53.9927" width="3.92662" height="15.4021" rx="0.28" fill="#024981"/>
<rect x="41.6772" y="61.8457" width="3.92662" height="7.54885" rx="0.28" fill="#5EA0EF"/>
</g>
<g filter="url(#filter2_d)">
<path d="M66.631 22.5386H79.1082V34.5702" stroke="#024980" stroke-width="2.75" stroke-linecap="square" stroke-linejoin="round"/>
</g>
<g filter="url(#filter3_d)">
<path d="M40.0441 82.6963L28.0125 82.6963L28.0125 70.6647" stroke="#024980" stroke-width="2.75" stroke-linecap="square" stroke-linejoin="round"/>
</g>
<g filter="url(#filter4_d)">
<path d="M23.5742 48.8637C23.329 48.6178 23.3291 48.2199 23.5743 47.974L34.7954 36.7232C35.0416 36.4764 35.4415 36.4764 35.6876 36.7233L37.3483 38.3891C37.5934 38.635 37.5934 39.033 37.3482 39.2788L26.1271 50.5296C25.8809 50.7765 25.481 50.7764 25.2349 50.5295L23.5742 48.8637Z" fill="#024980"/>
<circle cx="41.6478" cy="32.0404" r="12.0404" fill="#0078D4"/>
<circle cx="41.4206" cy="32.0403" r="9.31423" fill="#EEFEFE"/>
</g>
<path d="M34.2191 31.925L35.0041 32.5445C34.8145 32.7848 34.5252 32.925 34.2191 32.925V31.925ZM48.9623 31.925V32.925C48.6562 32.925 48.3669 32.7848 48.1773 32.5445L48.9623 31.925ZM48.9839 31.925V30.925C49.3637 30.925 49.7107 31.1401 49.8796 31.4803C50.0485 31.8204 50.0101 32.2269 49.7806 32.5294L48.9839 31.925ZM48.9732 31.9389L48.1846 32.5538C47.9027 32.1923 47.9027 31.6855 48.1846 31.324L48.9732 31.9389ZM48.9839 31.9528L49.7806 31.3484C50.0101 31.6509 50.0485 32.0574 49.8796 32.3975C49.7107 32.7377 49.3637 32.9528 48.9839 32.9528V31.9528ZM48.9623 31.9528L48.1773 31.3333C48.3669 31.093 48.6562 30.9528 48.9623 30.9528V31.9528ZM34.2191 31.9528V30.9528C34.5252 30.9528 34.8145 31.093 35.0041 31.3333L34.2191 31.9528ZM34.1975 31.9528V32.9528C33.8177 32.9528 33.4707 32.7377 33.3018 32.3975C33.1329 32.0574 33.1713 31.6509 33.4008 31.3484L34.1975 31.9528ZM34.2082 31.9389L34.9968 31.324C35.2787 31.6855 35.2787 32.1923 34.9968 32.5538L34.2082 31.9389ZM34.1975 31.925L33.4011 32.5298C33.1714 32.2273 33.1329 31.8208 33.3017 31.4805C33.4706 31.1402 33.8176 30.925 34.1975 30.925V31.925ZM41.5907 29.1021C39.7442 29.1021 38.1704 29.8582 36.9954 30.6973C35.8219 31.5354 35.1077 32.4132 35.0041 32.5445L33.4341 31.3055C33.6042 31.09 34.4515 30.0564 35.8331 29.0697C37.2133 28.084 39.1885 27.1021 41.5907 27.1021V29.1021ZM48.1773 32.5445C48.0737 32.4133 47.3596 31.5354 46.186 30.6973C45.011 29.8582 43.4372 29.1021 41.5907 29.1021V27.1021C43.9929 27.1021 45.9681 28.084 47.3483 29.0697C48.73 30.0564 49.5772 31.09 49.7473 31.3055L48.1773 32.5445ZM48.9623 30.925H48.9839V32.925H48.9623V30.925ZM48.9839 31.925C49.7806 32.5294 49.7806 32.5294 49.7806 32.5294C49.7806 32.5295 49.7806 32.5295 49.7806 32.5295C49.7805 32.5295 49.7805 32.5295 49.7805 32.5295C49.7805 32.5295 49.7805 32.5296 49.7805 32.5296C49.7804 32.5297 49.7804 32.5297 49.7803 32.5298C49.7802 32.5299 49.7801 32.53 49.7801 32.5301C49.7799 32.5304 49.7797 32.5307 49.7794 32.5309C49.779 32.5315 49.7785 32.5322 49.7779 32.5329C49.7768 32.5344 49.7755 32.5361 49.7739 32.5381C49.7708 32.5422 49.7667 32.5475 49.7618 32.5538L48.1846 31.324C48.1868 31.3212 48.1881 31.3195 48.1885 31.3189C48.1888 31.3186 48.1888 31.3186 48.1885 31.3189C48.1884 31.319 48.1883 31.3192 48.1881 31.3195C48.1879 31.3197 48.1878 31.3198 48.1877 31.32C48.1876 31.3201 48.1876 31.3202 48.1875 31.3203C48.1874 31.3203 48.1874 31.3204 48.1874 31.3204C48.1873 31.3205 48.1873 31.3205 48.1873 31.3205C48.1873 31.3205 48.1873 31.3205 48.1873 31.3206C48.1873 31.3206 48.1873 31.3206 48.1873 31.3206C48.1873 31.3206 48.1872 31.3206 48.9839 31.925ZM48.9839 31.9528C48.1873 32.5572 48.1873 32.5572 48.1873 32.5572C48.1873 32.5572 48.1873 32.5572 48.1873 32.5573C48.1873 32.5573 48.1873 32.5573 48.1873 32.5573C48.1873 32.5573 48.1874 32.5573 48.1874 32.5574C48.1874 32.5574 48.1874 32.5575 48.1875 32.5575C48.1876 32.5576 48.1876 32.5577 48.1877 32.5578C48.1878 32.558 48.188 32.5581 48.1881 32.5583C48.1883 32.5586 48.1884 32.5588 48.1885 32.5589C48.1888 32.5592 48.1888 32.5592 48.1885 32.5589C48.1881 32.5583 48.1868 32.5566 48.1846 32.5538L49.7618 31.324C49.7667 31.3303 49.7708 31.3356 49.7739 31.3397C49.7755 31.3417 49.7768 31.3434 49.7779 31.3449C49.7785 31.3456 49.779 31.3463 49.7794 31.3469C49.7797 31.3471 49.7799 31.3474 49.7801 31.3477C49.7801 31.3478 49.7802 31.3479 49.7803 31.348C49.7804 31.3481 49.7804 31.3482 49.7805 31.3482C49.7805 31.3482 49.7805 31.3483 49.7805 31.3483C49.7805 31.3483 49.7805 31.3483 49.7806 31.3483C49.7806 31.3483 49.7806 31.3483 49.7806 31.3484C49.7806 31.3484 49.7806 31.3484 48.9839 31.9528ZM48.9623 30.9528H48.9839V32.9528H48.9623V30.9528ZM49.7473 32.5723C49.5772 32.7878 48.73 33.8214 47.3483 34.8081C45.9681 35.7938 43.9929 36.7758 41.5907 36.7758V34.7758C43.4372 34.7758 45.011 34.0196 46.186 33.1805C47.3596 32.3424 48.0737 31.4646 48.1773 31.3333L49.7473 32.5723ZM41.5907 36.7758C39.1885 36.7758 37.2133 35.7938 35.8331 34.8081C34.4515 33.8214 33.6042 32.7878 33.4341 32.5723L35.0041 31.3333C35.1077 31.4646 35.8219 32.3424 36.9954 33.1805C38.1704 34.0196 39.7442 34.7758 41.5907 34.7758V36.7758ZM34.1975 30.9528H34.2191V32.9528H34.1975V30.9528ZM34.9968 32.5538C34.9946 32.5566 34.9933 32.5583 34.9929 32.5589C34.9927 32.5592 34.9927 32.5592 34.9929 32.5589C34.993 32.5588 34.9931 32.5586 34.9934 32.5583C34.9935 32.5581 34.9936 32.558 34.9937 32.5578C34.9938 32.5577 34.9939 32.5576 34.9939 32.5575C34.994 32.5575 34.994 32.5574 34.9941 32.5574C34.9941 32.5573 34.9941 32.5573 34.9941 32.5573C34.9941 32.5573 34.9941 32.5573 34.9941 32.5572C34.9941 32.5572 34.9942 32.5572 34.9942 32.5572C34.9942 32.5572 34.9942 32.5572 34.1975 31.9528C33.4008 31.3484 33.4008 31.3484 33.4009 31.3484C33.4009 31.3484 33.4009 31.3483 33.4009 31.3483C33.4009 31.3483 33.4009 31.3483 33.4009 31.3483C33.4009 31.3483 33.4009 31.3482 33.401 31.3482C33.401 31.3482 33.401 31.3481 33.4011 31.348C33.4012 31.3479 33.4013 31.3478 33.4014 31.3477C33.4016 31.3474 33.4018 31.3472 33.402 31.3469C33.4024 31.3463 33.4029 31.3456 33.4035 31.3449C33.4046 31.3434 33.4059 31.3417 33.4075 31.3397C33.4106 31.3356 33.4147 31.3303 33.4197 31.324L34.9968 32.5538ZM33.4196 32.5538C33.4147 32.5475 33.4107 32.5424 33.4077 32.5383C33.4061 32.5363 33.4048 32.5346 33.4037 32.5332C33.4032 32.5325 33.4027 32.5319 33.4023 32.5313C33.402 32.531 33.4018 32.5308 33.4017 32.5305C33.4016 32.5304 33.4015 32.5303 33.4014 32.5302C33.4013 32.5301 33.4013 32.5301 33.4013 32.53C33.4012 32.53 33.4012 32.5299 33.4012 32.5299C33.4012 32.5299 33.4012 32.5299 33.4012 32.5299C33.4012 32.5299 33.4012 32.5299 33.4012 32.5299C33.4012 32.5299 33.4011 32.5298 34.1975 31.925C34.9939 31.3202 34.9938 31.3202 34.9938 31.3202C34.9938 31.3202 34.9938 31.3202 34.9938 31.3201C34.9938 31.3201 34.9938 31.3201 34.9938 31.3201C34.9938 31.3201 34.9938 31.3201 34.9937 31.32C34.9937 31.32 34.9937 31.3199 34.9936 31.3199C34.9936 31.3198 34.9935 31.3197 34.9934 31.3196C34.9933 31.3195 34.9932 31.3193 34.9931 31.3192C34.9929 31.3189 34.9927 31.3187 34.9926 31.3186C34.9924 31.3183 34.9925 31.3184 34.9927 31.3187C34.9932 31.3194 34.9946 31.3211 34.9968 31.324L33.4196 32.5538ZM34.1975 30.925H34.2191V32.925H34.1975V30.925Z" fill="#024980"/>
<circle cx="41.3809" cy="31.896" r="2.22807" fill="#0078D4"/>
<defs>
<filter id="filter0_d" x="0.5" y="0.5" width="105.5" height="105.5" filterUnits="userSpaceOnUse" color-interpolation-filters="sRGB">
<feFlood flood-opacity="0" result="BackgroundImageFix"/>
<feColorMatrix in="SourceAlpha" type="matrix" values="0 0 0 0 0 0 0 0 0 0 0 0 0 0 0 0 0 0 127 0"/>
<feOffset dx="0.5" dy="0.5"/>
<feColorMatrix type="matrix" values="0 0 0 0 0.823529 0 0 0 0 0.831373 0 0 0 0 0.835294 0 0 0 1 0"/>
<feBlend mode="normal" in2="BackgroundImageFix" result="effect1_dropShadow"/>
<feBlend mode="normal" in="SourceGraphic" in2="effect1_dropShadow" result="shape"/>
</filter>
<filter id="filter1_d" x="37.1445" y="41.5215" width="31.7119" height="33.8733" filterUnits="userSpaceOnUse" color-interpolation-filters="sRGB">
<feFlood flood-opacity="0" result="BackgroundImageFix"/>
<feColorMatrix in="SourceAlpha" type="matrix" values="0 0 0 0 0 0 0 0 0 0 0 0 0 0 0 0 0 0 127 0"/>
<feOffset dy="2"/>
<feGaussianBlur stdDeviation="2"/>
<feColorMatrix type="matrix" values="0 0 0 0 0 0 0 0 0 0 0 0 0 0 0 0 0 0 0.15 0"/>
<feBlend mode="normal" in2="BackgroundImageFix" result="effect1_dropShadow"/>
<feBlend mode="normal" in="SourceGraphic" in2="effect1_dropShadow" result="shape"/>
</filter>
<filter id="filter2_d" x="61.256" y="19.1636" width="23.2272" height="22.7816" filterUnits="userSpaceOnUse" color-interpolation-filters="sRGB">
<feFlood flood-opacity="0" result="BackgroundImageFix"/>
<feColorMatrix in="SourceAlpha" type="matrix" values="0 0 0 0 0 0 0 0 0 0 0 0 0 0 0 0 0 0 127 0"/>
<feOffset dy="2"/>
<feGaussianBlur stdDeviation="2"/>
<feColorMatrix type="matrix" values="0 0 0 0 0 0 0 0 0 0 0 0 0 0 0 0 0 0 0.15 0"/>
<feBlend mode="normal" in2="BackgroundImageFix" result="effect1_dropShadow"/>
<feBlend mode="normal" in="SourceGraphic" in2="effect1_dropShadow" result="shape"/>
</filter>
<filter id="filter3_d" x="22.6375" y="67.2896" width="22.7816" height="22.7816" filterUnits="userSpaceOnUse" color-interpolation-filters="sRGB">
<feFlood flood-opacity="0" result="BackgroundImageFix"/>
<feColorMatrix in="SourceAlpha" type="matrix" values="0 0 0 0 0 0 0 0 0 0 0 0 0 0 0 0 0 0 127 0"/>
<feOffset dy="2"/>
<feGaussianBlur stdDeviation="2"/>
<feColorMatrix type="matrix" values="0 0 0 0 0 0 0 0 0 0 0 0 0 0 0 0 0 0 0.15 0"/>
<feBlend mode="normal" in2="BackgroundImageFix" result="effect1_dropShadow"/>
<feBlend mode="normal" in="SourceGraphic" in2="effect1_dropShadow" result="shape"/>
</filter>
<filter id="filter4_d" x="19.3904" y="18" width="38.2978" height="38.7147" filterUnits="userSpaceOnUse" color-interpolation-filters="sRGB">
<feFlood flood-opacity="0" result="BackgroundImageFix"/>
<feColorMatrix in="SourceAlpha" type="matrix" values="0 0 0 0 0 0 0 0 0 0 0 0 0 0 0 0 0 0 127 0"/>
<feOffset dy="2"/>
<feGaussianBlur stdDeviation="2"/>
<feColorMatrix type="matrix" values="0 0 0 0 0 0 0 0 0 0 0 0 0 0 0 0 0 0 0.15 0"/>
<feBlend mode="normal" in2="BackgroundImageFix" result="effect1_dropShadow"/>
<feBlend mode="normal" in="SourceGraphic" in2="effect1_dropShadow" result="shape"/>
</filter>
<linearGradient id="paint0_linear" x1="52.7333" y1="29.4087" x2="52.7333" y2="75.4328" gradientUnits="userSpaceOnUse">
<stop stop-color="#F0FFFE"/>
<stop offset="1" stop-color="#D5EDFF"/>
</linearGradient>
<linearGradient id="paint1_linear" x1="51.7981" y1="53.5053" x2="51.7981" y2="48.4829" gradientUnits="userSpaceOnUse">
<stop stop-color="#773ADC"/>
<stop offset="0.25" stop-color="#9255E6"/>
<stop offset="0.5" stop-color="#A669EE"/>
<stop offset="0.76" stop-color="#B376F2"/>
<stop offset="1" stop-color="#B77AF4"/>
</linearGradient>
<linearGradient id="paint2_linear" x1="58.5632" y1="59.7309" x2="58.5632" y2="54.7237" gradientUnits="userSpaceOnUse">
<stop stop-color="#773ADC"/>
<stop offset="0.25" stop-color="#9255E6"/>
<stop offset="0.5" stop-color="#A669EE"/>
<stop offset="0.76" stop-color="#B376F2"/>
<stop offset="1" stop-color="#B77AF4"/>
</linearGradient>
<linearGradient id="paint3_linear" x1="64.8488" y1="48.5287" x2="64.8488" y2="43.5215" gradientUnits="userSpaceOnUse">
<stop stop-color="#773ADC"/>
<stop offset="0.25" stop-color="#9255E6"/>
<stop offset="0.5" stop-color="#A669EE"/>
<stop offset="0.76" stop-color="#B376F2"/>
<stop offset="1" stop-color="#B77AF4"/>
</linearGradient>
<linearGradient id="paint4_linear" x1="46.1289" y1="60.8109" x2="46.1289" y2="55.8037" gradientUnits="userSpaceOnUse">
<stop stop-color="#773ADC"/>
<stop offset="0.25" stop-color="#9255E6"/>
<stop offset="0.5" stop-color="#A669EE"/>
<stop offset="0.76" stop-color="#B376F2"/>
<stop offset="1" stop-color="#B77AF4"/>
</linearGradient>
</defs>
</svg>
