<svg width="181" height="191" viewBox="0 0 181 191" fill="none" xmlns="http://www.w3.org/2000/svg">
<path d="M90.1116 189.836C93.1716 189.836 96.1816 188.986 98.8416 187.366L160.812 149.706C166.352 146.336 169.782 140.006 169.782 133.166V58.4565C169.782 51.6365 166.352 45.2965 160.812 41.9165L98.8416 4.25649C93.5116 1.01649 86.6916 1.03649 81.3916 4.25649L19.4216 41.9365C13.8816 45.3065 10.4316 51.6365 10.4316 58.4765V133.176C10.4316 138.936 12.8816 144.356 16.9816 147.926V147.956L81.3916 187.386C84.0316 188.986 87.0516 189.836 90.1116 189.836ZM90.7616 8.78649C92.7116 8.78649 95.1916 9.99649 96.9016 11.0465L157.662 48.2365C161.412 50.5165 163.532 57.1165 163.532 61.8665L162.902 133.166C162.902 137.916 159.702 142.186 155.952 144.466L95.5516 180.846C92.1216 182.936 89.3316 182.936 85.8916 180.846L24.6816 144.376C20.9316 142.096 17.9116 137.896 17.9116 133.166V59.5265C17.9116 54.7865 20.6416 49.8965 24.4116 47.6065L84.9916 11.0465C86.6916 10.0065 88.8116 8.78649 90.7616 8.78649Z" fill="#F2F1F0"/>
<path fill-rule="evenodd" clip-rule="evenodd" d="M98.0117 12.3672C95.5617 10.8672 92.8417 10.1172 90.1117 10.1172C87.3817 10.1172 84.6617 10.8772 82.2117 12.3672L26.0817 46.6972C21.0617 49.7672 17.9517 55.5172 17.9517 61.7672V129.867C17.9517 136.097 21.0517 141.867 26.0817 144.937L82.2117 179.267C84.6617 180.767 87.3817 181.517 90.1117 181.517C92.8417 181.517 95.5617 180.777 98.0117 179.267L154.142 144.937C159.162 141.867 162.272 136.097 162.272 129.867V61.7672C162.272 55.5372 159.172 49.7872 154.142 46.6972L98.0117 12.3672Z" fill="url(#paint0_linear_166_42571)"/>
<path fill-rule="evenodd" clip-rule="evenodd" d="M90.1117 11.5869C91.7917 11.5869 93.6817 12.4569 95.7417 13.7069L154.212 49.2469C157.862 51.4669 160.272 55.7369 160.272 60.5669V131.047C160.272 135.867 157.862 140.147 154.212 142.367L95.7517 177.907C93.7917 179.097 91.8717 179.847 90.1217 179.847C88.3717 179.847 86.4517 179.097 84.4917 177.907L26.0117 142.377C24.0017 141.147 22.5517 139.947 21.5717 138.337C20.5917 136.737 19.9517 134.517 19.9517 131.057V60.5769C19.9517 55.7469 22.3617 51.4769 26.0117 49.2569L84.4717 13.7169C86.5617 12.4669 88.4217 11.5869 90.1117 11.5869ZM97.8217 181.337L156.282 145.797C161.202 142.807 164.262 137.187 164.262 131.057V60.5769C164.262 54.4469 161.202 48.8269 156.282 45.8369L97.8217 10.2969C95.7117 9.01691 93.0017 7.58691 90.1117 7.58691C87.2117 7.58691 84.5017 9.02691 82.4117 10.2869H82.4017L23.9317 45.8369C19.0117 48.8269 15.9517 54.4469 15.9517 60.5769V131.057C15.9517 135.017 16.6917 138.007 18.1517 140.417C19.6117 142.817 21.6717 144.417 23.9317 145.787L82.3917 181.327C84.6117 182.677 87.2817 183.857 90.1017 183.857C92.9217 183.857 95.6017 182.687 97.8217 181.337Z" fill="url(#paint1_linear_166_42571)"/>
<path fill-rule="evenodd" clip-rule="evenodd" d="M111.846 75.4112C111.846 74.9241 112.241 74.5293 112.728 74.5293H132.659V76.2931H113.61V107.231H130.102V108.995H112.728C112.241 108.995 111.846 108.6 111.846 108.113L111.846 75.4112Z" fill="white"/>
<path fill-rule="evenodd" clip-rule="evenodd" d="M112.252 93.2316H101.951V91.4678H112.252V93.2316Z" fill="white"/>
<path d="M151.215 67.9678H118.672V87.017C118.672 87.5991 119.149 88.0577 119.713 88.0577H150.174C150.756 88.0577 151.215 87.5815 151.215 87.017V67.9678Z" fill="#002D4C"/>
<path d="M150.104 65.1631H119.784C119.166 65.1631 118.672 65.657 118.672 66.2743V68.6555H151.232V66.2743C151.215 65.657 150.721 65.1631 150.104 65.1631Z" fill="white"/>
<path d="M151.956 98.2168H119.413V117.266C119.413 117.848 119.889 118.307 120.454 118.307H150.915C151.497 118.307 151.956 117.83 151.956 117.266V98.2168Z" fill="#002D4C"/>
<path d="M150.844 95.3945H120.542C119.925 95.3945 119.431 95.8884 119.431 96.5057V98.8869H151.991V96.5057C151.956 95.8884 151.462 95.3945 150.844 95.3945Z" fill="white"/>
<path d="M145.941 81.8838C145.711 79.8025 143.93 78.1621 141.76 78.1621C139.626 78.1621 137.845 79.7672 137.58 81.8132C137.545 81.9543 137.545 82.1131 137.545 82.2542C137.598 82.8539 138.004 83.4007 138.78 83.8593C140.42 84.7941 143.101 84.7941 144.724 83.8593C145.482 83.4183 145.888 82.8539 145.941 82.2542C145.976 82.166 145.958 82.0249 145.941 81.8838Z" fill="white"/>
<path d="M141.778 77.5631C143.189 77.5631 144.301 76.4342 144.301 75.0408C144.301 73.6474 143.172 72.5186 141.778 72.5186C140.367 72.5186 139.256 73.6474 139.256 75.0408C139.238 76.4342 140.367 77.5631 141.778 77.5631Z" fill="white"/>
<path d="M140.791 112.398C140.544 110.087 138.55 108.271 136.152 108.271C133.788 108.271 131.795 110.052 131.513 112.327C131.478 112.486 131.478 112.662 131.478 112.821C131.53 113.491 131.989 114.091 132.853 114.603C134.67 115.643 137.651 115.643 139.45 114.603C140.297 114.109 140.738 113.491 140.808 112.821C140.826 112.715 140.808 112.557 140.791 112.398Z" fill="white"/>
<path d="M136.169 107.619C137.739 107.619 138.974 106.366 138.974 104.814C138.974 103.262 137.722 102.01 136.169 102.01C134.6 102.01 133.365 103.262 133.365 104.814C133.347 106.366 134.6 107.619 136.169 107.619Z" fill="white"/>
<path d="M133.629 81.8838C133.4 79.8025 131.619 78.1621 129.449 78.1621C127.315 78.1621 125.533 79.7672 125.269 81.8132C125.234 81.9543 125.234 82.1131 125.234 82.2542C125.287 82.8539 125.692 83.4007 126.468 83.8593C128.109 84.7941 130.79 84.7941 132.412 83.8593C133.171 83.4183 133.577 82.8539 133.629 82.2542C133.665 82.166 133.647 82.0249 133.629 81.8838Z" fill="white"/>
<path d="M129.467 77.5631C130.878 77.5631 131.989 76.4342 131.989 75.0408C131.989 73.6474 130.86 72.5186 129.467 72.5186C128.056 72.5186 126.945 73.6474 126.945 75.0408C126.927 76.4342 128.056 77.5631 129.467 77.5631Z" fill="white"/>
<path opacity="0.15" d="M105.471 72.0537H43.7744V125.318C43.7744 126.405 44.6748 127.291 45.7467 127.291H103.485C104.571 127.291 105.457 126.39 105.457 125.318L105.471 72.0537Z" fill="#1F1D20"/>
<path d="M103.37 64.3936H45.8753C44.7034 64.3936 43.7744 65.3225 43.7744 66.4944V69.7243V70.9963V122.989C43.7744 124.075 44.6748 124.961 45.7467 124.961H103.485C104.571 124.961 105.457 124.061 105.457 122.989V70.9963H105.471V66.4944C105.471 65.3225 104.542 64.3936 103.37 64.3936Z" fill="url(#paint2_linear_166_42571)"/>
<path d="M92.1114 109.374C91.1415 100.677 83.6812 93.8379 74.6542 93.8379C65.7018 93.8379 58.3161 100.528 57.1971 109.151C57.0479 109.745 57.0479 110.414 57.0479 111.009C57.2717 113.462 58.9875 115.841 62.1955 117.699C69.059 121.639 80.2494 121.639 87.0383 117.699C90.2463 115.841 91.8876 113.462 92.1114 111.009C92.2606 110.489 92.186 109.894 92.1114 109.374Z" fill="url(#paint3_radial_166_42571)"/>
<path d="M74.6673 92.0556C80.5059 92.0556 85.239 87.3489 85.239 81.5429C85.239 75.737 80.5059 71.0303 74.6673 71.0303C68.8288 71.0303 64.0957 75.737 64.0957 81.5429C64.0957 87.3489 68.8288 92.0556 74.6673 92.0556Z" fill="url(#paint4_radial_166_42571)"/>
<path opacity="0.15" fill-rule="evenodd" clip-rule="evenodd" d="M81.8499 103.735L81.6804 103.566C80.7827 102.67 79.5661 102.166 78.2977 102.166C77.0293 102.166 75.8126 102.67 74.9149 103.566L74.7454 103.735L74.5759 103.566C74.1312 103.12 73.6028 102.766 73.0211 102.525C72.4395 102.283 71.8159 102.159 71.1861 102.159C70.5564 102.159 69.9328 102.283 69.3511 102.525C68.7694 102.766 68.2411 103.12 67.7963 103.566L67.6409 103.721C66.7448 104.619 66.2415 105.835 66.2415 107.104C66.2415 108.372 66.7448 109.589 67.6409 110.487L67.8104 110.656L74.5194 117.365C74.5485 117.396 74.5835 117.42 74.6224 117.437C74.6612 117.454 74.7031 117.463 74.7454 117.463C74.7877 117.463 74.8296 117.454 74.8685 117.437C74.9073 117.42 74.9424 117.396 74.9714 117.365L81.8499 110.487C82.7452 109.591 83.2482 108.377 83.2482 107.111C83.2482 105.845 82.7452 104.631 81.8499 103.735V103.735Z" fill="#1F1D20"/>
<path d="M71.8099 101.594C73.0778 101.599 73.3969 101.596 74.2907 102.495L74.5618 102.667L74.8993 102.556C75.7975 101.655 76.0578 102.002 77.3302 101.999C77.9584 102 78.0169 100.921 78.5964 101.164C79.1758 101.406 78.1805 101.881 78.6217 102.328L79.7106 102.708C80.6067 103.606 79.7106 102.605 79.7106 103.873C79.7106 105.142 81.0878 104.216 80.1917 105.114L75.4817 111.343L75.2557 111.569L75.0297 111.343L69.86 107.013L69.6764 106.83C69.2293 106.387 68.9374 107.189 68.6952 106.608C68.453 106.027 68.29 105.54 68.29 104.911C68.29 104.282 68.4517 104.059 68.6939 103.478C68.9361 102.898 69.261 103.455 69.7081 103.012L69.9613 102.455C70.4056 102.008 69.2783 101.381 69.86 101.138C70.4418 100.896 70.7095 101.567 71.3396 101.566L71.8099 101.594ZM71.2404 98.6621C70.5055 98.6599 69.7775 98.8035 69.0987 99.0847C68.4198 99.366 67.6807 99.7776 67.1627 100.299L67.0074 100.468C66.4863 100.981 66.1557 101.566 65.8743 102.241C65.5929 102.915 65.4492 103.639 65.4517 104.369C65.4494 105.104 65.5931 105.832 65.8743 106.511C66.1556 107.19 66.5804 107.741 67.1017 108.259L67.2146 108.372L67.2737 108.437L74.0392 115.132L74.1946 115.302C74.3469 115.447 74.5492 115.528 74.7596 115.528C74.8618 115.528 74.963 115.508 75.0575 115.47C75.152 115.431 75.238 115.374 75.3105 115.302L75.494 115.132L75.5788 115.033L82.415 108.197C82.936 107.685 83.3494 107.074 83.6308 106.399C83.9121 105.725 84.0558 105.001 84.0533 104.271C84.0556 103.536 83.912 102.808 83.6307 102.129C83.3495 101.45 83.0084 100.945 82.4872 100.427L82.3318 100.272C81.3514 99.2873 79.966 98.7822 78.5781 98.7168C77.1903 98.6515 75.8282 99.1138 74.7596 100.002C73.7623 99.1646 72.5425 98.6644 71.2404 98.6621Z" fill="white"/>
<path fill-rule="evenodd" clip-rule="evenodd" d="M81.0897 107.893L74.745 114.238L68.2708 107.763C67.8609 107.358 67.5355 106.875 67.3134 106.342C67.0914 105.81 66.9771 105.239 66.9771 104.662C66.9771 104.086 67.0914 103.514 67.3134 102.982C67.5355 102.45 67.8609 101.967 68.2708 101.561L68.4132 101.419C68.819 101.009 69.302 100.683 69.8343 100.461C70.3666 100.239 70.9376 100.125 71.5143 100.125C72.0911 100.125 72.6622 100.239 73.1945 100.461C73.7268 100.683 74.2097 101.009 74.6155 101.419L81.0897 107.893Z" fill="url(#paint5_linear_166_42571)"/>
<path fill-rule="evenodd" clip-rule="evenodd" d="M74.5248 114.03L68.3872 107.893L74.8614 101.419C75.6844 100.597 76.7997 100.136 77.9625 100.136C79.1254 100.136 80.2407 100.597 81.0637 101.419L81.219 101.574C82.0406 102.397 82.502 103.512 82.502 104.675C82.502 105.838 82.0406 106.953 81.219 107.776L74.9262 114.056C74.867 114.1 74.7942 114.122 74.7207 114.117C74.6471 114.112 74.5777 114.082 74.5248 114.03V114.03Z" fill="url(#paint6_linear_166_42571)"/>
<path opacity="0.15" d="M55.1534 107.3H23.5747V134.563C23.5747 135.119 24.0355 135.572 24.5842 135.572H54.1366C54.6925 135.572 55.1461 135.111 55.1461 134.563L55.1534 107.3Z" fill="#1F1D20"/>
<path d="M54.0781 103.379H24.65C24.0502 103.379 23.5747 103.854 23.5747 104.454V106.107V106.758V133.37C23.5747 133.926 24.0355 134.38 24.5842 134.38H54.1366C54.6925 134.38 55.1461 133.919 55.1461 133.37V106.758H55.1534V104.454C55.1534 103.854 54.6779 103.379 54.0781 103.379Z" fill="#002D4C"/>
<path d="M48.0556 110.542H30.6726C29.9152 110.542 29.3044 111.165 29.3044 111.91C29.3044 112.668 29.9274 113.278 30.6726 113.278H48.0434C48.8008 113.278 49.4116 112.655 49.4116 111.91C49.4238 111.153 48.813 110.542 48.0556 110.542Z" fill="#50E6FF"/>
<path d="M48.0556 116.479H30.6726C29.9152 116.479 29.3044 117.102 29.3044 117.847C29.3044 118.604 29.9274 119.215 30.6726 119.215H48.0434C48.8008 119.215 49.4116 118.592 49.4116 117.847C49.4238 117.102 48.813 116.479 48.0556 116.479Z" fill="#32B0E7"/>
<path fill-rule="evenodd" clip-rule="evenodd" d="M30.6726 122.88H48.0556C48.813 122.88 49.4238 123.503 49.4238 124.248C49.4238 125.005 48.8008 125.616 48.0556 125.616H30.6726C29.9152 125.616 29.3044 124.993 29.3044 124.248C29.3044 123.503 29.9152 122.88 30.6726 122.88Z" fill="#185A97"/>
<path d="M32.3455 111.897C32.3455 113.314 33.4937 114.45 34.8986 114.45C36.3156 114.462 37.4639 113.314 37.4639 111.897C37.4639 110.48 36.3156 109.344 34.9108 109.344C33.4937 109.344 32.3455 110.48 32.3455 111.897Z" fill="url(#paint7_linear_166_42571)"/>
<path d="M40.9204 117.968C40.9204 119.385 42.0687 120.521 43.4735 120.521C44.8905 120.533 46.0388 119.385 46.0388 117.968C46.0388 116.551 44.8905 115.415 43.4857 115.415C42.0687 115.415 40.9204 116.563 40.9204 117.968Z" fill="url(#paint8_linear_166_42571)"/>
<path d="M34.3735 124.407C34.3735 125.824 35.5218 126.96 36.9266 126.96C38.3437 126.972 39.4919 125.824 39.4919 124.407C39.4919 122.99 38.3437 121.854 36.9388 121.854C35.5218 121.854 34.3735 122.99 34.3735 124.407Z" fill="url(#paint9_linear_166_42571)"/>
<path fill-rule="evenodd" clip-rule="evenodd" d="M111.846 75.4112C111.846 74.9241 112.241 74.5293 112.728 74.5293H132.659V76.2931H113.61V107.231H130.102V108.995H112.728C112.241 108.995 111.846 108.6 111.846 108.113L111.846 75.4112Z" fill="white"/>
<path fill-rule="evenodd" clip-rule="evenodd" d="M112.252 93.2316H101.951V91.4678H112.252V93.2316Z" fill="white"/>
<path d="M151.215 67.9678H118.672V87.017C118.672 87.5991 119.149 88.0577 119.713 88.0577H150.174C150.756 88.0577 151.215 87.5815 151.215 87.017V67.9678Z" fill="#002D4C"/>
<path d="M150.104 65.1631H119.784C119.166 65.1631 118.672 65.657 118.672 66.2743V68.6555H151.232V66.2743C151.215 65.657 150.721 65.1631 150.104 65.1631Z" fill="white"/>
<path d="M151.956 98.2168H119.413V117.266C119.413 117.848 119.889 118.307 120.454 118.307H150.915C151.497 118.307 151.956 117.83 151.956 117.266V98.2168Z" fill="#002D4C"/>
<path d="M150.844 95.3945H120.542C119.925 95.3945 119.431 95.8884 119.431 96.5057V98.8869H151.991V96.5057C151.956 95.8884 151.462 95.3945 150.844 95.3945Z" fill="white"/>
<path d="M145.941 81.8838C145.711 79.8025 143.93 78.1621 141.76 78.1621C139.626 78.1621 137.845 79.7672 137.58 81.8132C137.545 81.9543 137.545 82.1131 137.545 82.2542C137.598 82.8539 138.004 83.4007 138.78 83.8593C140.42 84.7941 143.101 84.7941 144.724 83.8593C145.482 83.4183 145.888 82.8539 145.941 82.2542C145.976 82.166 145.958 82.0249 145.941 81.8838Z" fill="white"/>
<path d="M141.778 77.5631C143.189 77.5631 144.301 76.4342 144.301 75.0408C144.301 73.6474 143.172 72.5186 141.778 72.5186C140.367 72.5186 139.256 73.6474 139.256 75.0408C139.238 76.4342 140.367 77.5631 141.778 77.5631Z" fill="white"/>
<path d="M140.791 112.398C140.544 110.087 138.55 108.271 136.152 108.271C133.788 108.271 131.795 110.052 131.513 112.327C131.478 112.486 131.478 112.662 131.478 112.821C131.53 113.491 131.989 114.091 132.853 114.603C134.67 115.643 137.651 115.643 139.45 114.603C140.297 114.109 140.738 113.491 140.808 112.821C140.826 112.715 140.808 112.557 140.791 112.398Z" fill="white"/>
<path d="M136.169 107.619C137.739 107.619 138.974 106.366 138.974 104.814C138.974 103.262 137.722 102.01 136.169 102.01C134.6 102.01 133.365 103.262 133.365 104.814C133.347 106.366 134.6 107.619 136.169 107.619Z" fill="white"/>
<path d="M133.629 81.8838C133.4 79.8025 131.619 78.1621 129.449 78.1621C127.315 78.1621 125.533 79.7672 125.269 81.8132C125.234 81.9543 125.234 82.1131 125.234 82.2542C125.287 82.8539 125.692 83.4007 126.468 83.8593C128.109 84.7941 130.79 84.7941 132.412 83.8593C133.171 83.4183 133.577 82.8539 133.629 82.2542C133.665 82.166 133.647 82.0249 133.629 81.8838Z" fill="white"/>
<path d="M129.467 77.5631C130.878 77.5631 131.989 76.4342 131.989 75.0408C131.989 73.6474 130.86 72.5186 129.467 72.5186C128.056 72.5186 126.945 73.6474 126.945 75.0408C126.927 76.4342 128.056 77.5631 129.467 77.5631Z" fill="white"/>
<path opacity="0.15" d="M105.471 72.0537H43.7744V125.318C43.7744 126.405 44.6748 127.291 45.7467 127.291H103.485C104.571 127.291 105.457 126.39 105.457 125.318L105.471 72.0537Z" fill="#1F1D20"/>
<path d="M103.37 64.3936H45.8753C44.7034 64.3936 43.7744 65.3225 43.7744 66.4944V69.7243V70.9963V122.989C43.7744 124.075 44.6748 124.961 45.7467 124.961H103.485C104.571 124.961 105.457 124.061 105.457 122.989V70.9963H105.471V66.4944C105.471 65.3225 104.542 64.3936 103.37 64.3936Z" fill="url(#paint10_linear_166_42571)"/>
<path d="M92.1114 109.374C91.1415 100.677 83.6812 93.8379 74.6542 93.8379C65.7018 93.8379 58.3161 100.528 57.1971 109.151C57.0479 109.745 57.0479 110.414 57.0479 111.009C57.2717 113.462 58.9875 115.841 62.1955 117.699C69.059 121.639 80.2494 121.639 87.0383 117.699C90.2463 115.841 91.8876 113.462 92.1114 111.009C92.2606 110.489 92.186 109.894 92.1114 109.374Z" fill="url(#paint11_radial_166_42571)"/>
<path d="M74.6673 92.0556C80.5059 92.0556 85.239 87.3489 85.239 81.5429C85.239 75.737 80.5059 71.0303 74.6673 71.0303C68.8288 71.0303 64.0957 75.737 64.0957 81.5429C64.0957 87.3489 68.8288 92.0556 74.6673 92.0556Z" fill="url(#paint12_radial_166_42571)"/>
<path opacity="0.15" fill-rule="evenodd" clip-rule="evenodd" d="M81.8499 103.735L81.6804 103.566C80.7827 102.67 79.5661 102.166 78.2977 102.166C77.0293 102.166 75.8126 102.67 74.9149 103.566L74.7454 103.735L74.5759 103.566C74.1312 103.12 73.6028 102.766 73.0211 102.525C72.4395 102.283 71.8159 102.159 71.1861 102.159C70.5564 102.159 69.9328 102.283 69.3511 102.525C68.7694 102.766 68.2411 103.12 67.7963 103.566L67.6409 103.721C66.7448 104.619 66.2415 105.835 66.2415 107.104C66.2415 108.372 66.7448 109.589 67.6409 110.487L67.8104 110.656L74.5194 117.365C74.5485 117.396 74.5835 117.42 74.6224 117.437C74.6612 117.454 74.7031 117.463 74.7454 117.463C74.7877 117.463 74.8296 117.454 74.8685 117.437C74.9073 117.42 74.9424 117.396 74.9714 117.365L81.8499 110.487C82.7452 109.591 83.2482 108.377 83.2482 107.111C83.2482 105.845 82.7452 104.631 81.8499 103.735V103.735Z" fill="#1F1D20"/>
<path d="M71.8099 101.594C73.0778 101.599 73.3969 101.596 74.2907 102.495L74.5618 102.667L74.8993 102.556C75.7975 101.655 76.0578 102.002 77.3302 101.999C77.9584 102 78.0169 100.921 78.5964 101.164C79.1758 101.406 78.1805 101.881 78.6217 102.328L79.7106 102.708C80.6067 103.606 79.7106 102.605 79.7106 103.873C79.7106 105.142 81.0878 104.216 80.1917 105.114L75.4817 111.343L75.2557 111.569L75.0297 111.343L69.86 107.013L69.6764 106.83C69.2293 106.387 68.9374 107.189 68.6952 106.608C68.453 106.027 68.29 105.54 68.29 104.911C68.29 104.282 68.4517 104.059 68.6939 103.478C68.9361 102.898 69.261 103.455 69.7081 103.012L69.9613 102.455C70.4056 102.008 69.2783 101.381 69.86 101.138C70.4418 100.896 70.7095 101.567 71.3396 101.566L71.8099 101.594ZM71.2404 98.6621C70.5055 98.6599 69.7775 98.8035 69.0987 99.0847C68.4198 99.366 67.6807 99.7776 67.1627 100.299L67.0074 100.468C66.4863 100.981 66.1557 101.566 65.8743 102.241C65.5929 102.915 65.4492 103.639 65.4517 104.369C65.4494 105.104 65.5931 105.832 65.8743 106.511C66.1556 107.19 66.5804 107.741 67.1017 108.259L67.2146 108.372L67.2737 108.437L74.0392 115.132L74.1946 115.302C74.3469 115.447 74.5492 115.528 74.7596 115.528C74.8618 115.528 74.963 115.508 75.0575 115.47C75.152 115.431 75.238 115.374 75.3105 115.302L75.494 115.132L75.5788 115.033L82.415 108.197C82.936 107.685 83.3494 107.074 83.6308 106.399C83.9121 105.725 84.0558 105.001 84.0533 104.271C84.0556 103.536 83.912 102.808 83.6307 102.129C83.3495 101.45 83.0084 100.945 82.4872 100.427L82.3318 100.272C81.3514 99.2873 79.966 98.7822 78.5781 98.7168C77.1903 98.6515 75.8282 99.1138 74.7596 100.002C73.7623 99.1646 72.5425 98.6644 71.2404 98.6621Z" fill="white"/>
<path fill-rule="evenodd" clip-rule="evenodd" d="M81.0897 107.893L74.745 114.238L68.2708 107.763C67.8609 107.358 67.5355 106.875 67.3134 106.342C67.0914 105.81 66.9771 105.239 66.9771 104.662C66.9771 104.086 67.0914 103.514 67.3134 102.982C67.5355 102.45 67.8609 101.967 68.2708 101.561L68.4132 101.419C68.819 101.009 69.302 100.683 69.8343 100.461C70.3666 100.239 70.9376 100.125 71.5143 100.125C72.0911 100.125 72.6622 100.239 73.1945 100.461C73.7268 100.683 74.2097 101.009 74.6155 101.419L81.0897 107.893Z" fill="url(#paint13_linear_166_42571)"/>
<path fill-rule="evenodd" clip-rule="evenodd" d="M74.5248 114.03L68.3872 107.893L74.8614 101.419C75.6844 100.597 76.7997 100.136 77.9625 100.136C79.1254 100.136 80.2407 100.597 81.0637 101.419L81.219 101.574C82.0406 102.397 82.502 103.512 82.502 104.675C82.502 105.838 82.0406 106.953 81.219 107.776L74.9262 114.056C74.867 114.1 74.7942 114.122 74.7207 114.117C74.6471 114.112 74.5777 114.082 74.5248 114.03V114.03Z" fill="url(#paint14_linear_166_42571)"/>
<path opacity="0.15" d="M55.1534 107.3H23.5747V134.563C23.5747 135.119 24.0355 135.572 24.5842 135.572H54.1366C54.6925 135.572 55.1461 135.111 55.1461 134.563L55.1534 107.3Z" fill="#1F1D20"/>
<path d="M54.0781 103.379H24.65C24.0502 103.379 23.5747 103.854 23.5747 104.454V106.107V106.758V133.37C23.5747 133.926 24.0355 134.38 24.5842 134.38H54.1366C54.6925 134.38 55.1461 133.919 55.1461 133.37V106.758H55.1534V104.454C55.1534 103.854 54.6779 103.379 54.0781 103.379Z" fill="#002D4C"/>
<path d="M48.0556 110.542H30.6726C29.9152 110.542 29.3044 111.165 29.3044 111.91C29.3044 112.668 29.9274 113.278 30.6726 113.278H48.0434C48.8008 113.278 49.4116 112.655 49.4116 111.91C49.4238 111.153 48.813 110.542 48.0556 110.542Z" fill="#50E6FF"/>
<path d="M48.0556 116.479H30.6726C29.9152 116.479 29.3044 117.102 29.3044 117.847C29.3044 118.604 29.9274 119.215 30.6726 119.215H48.0434C48.8008 119.215 49.4116 118.592 49.4116 117.847C49.4238 117.102 48.813 116.479 48.0556 116.479Z" fill="#32B0E7"/>
<path fill-rule="evenodd" clip-rule="evenodd" d="M30.6726 122.88H48.0556C48.813 122.88 49.4238 123.503 49.4238 124.248C49.4238 125.005 48.8008 125.616 48.0556 125.616H30.6726C29.9152 125.616 29.3044 124.993 29.3044 124.248C29.3044 123.503 29.9152 122.88 30.6726 122.88Z" fill="#185A97"/>
<path d="M32.3455 111.897C32.3455 113.314 33.4937 114.45 34.8986 114.45C36.3156 114.462 37.4639 113.314 37.4639 111.897C37.4639 110.48 36.3156 109.344 34.9108 109.344C33.4937 109.344 32.3455 110.48 32.3455 111.897Z" fill="url(#paint15_linear_166_42571)"/>
<path d="M40.9204 117.968C40.9204 119.385 42.0687 120.521 43.4735 120.521C44.8905 120.533 46.0388 119.385 46.0388 117.968C46.0388 116.551 44.8905 115.415 43.4857 115.415C42.0687 115.415 40.9204 116.563 40.9204 117.968Z" fill="url(#paint16_linear_166_42571)"/>
<path d="M34.3735 124.407C34.3735 125.824 35.5218 126.96 36.9266 126.96C38.3437 126.972 39.4919 125.824 39.4919 124.407C39.4919 122.99 38.3437 121.854 36.9388 121.854C35.5218 121.854 34.3735 122.99 34.3735 124.407Z" fill="url(#paint17_linear_166_42571)"/>
<defs>
<linearGradient id="paint0_linear_166_42571" x1="90.1116" y1="10.1172" x2="90.1116" y2="181.517" gradientUnits="userSpaceOnUse">
<stop stop-color="#00ABDE"/>
<stop offset="1" stop-color="#007ED8"/>
</linearGradient>
<linearGradient id="paint1_linear_166_42571" x1="36.2314" y1="4.90802" x2="202.909" y2="287.239" gradientUnits="userSpaceOnUse">
<stop stop-color="#007ED8"/>
<stop offset="0.7065" stop-color="#002D4C"/>
</linearGradient>
<linearGradient id="paint2_linear_166_42571" x1="75.0685" y1="120.153" x2="73.9356" y2="55.5781" gradientUnits="userSpaceOnUse">
<stop offset="0.3831" stop-color="#D2EBFF"/>
<stop offset="1" stop-color="#F0FFFD"/>
</linearGradient>
<radialGradient id="paint3_radial_166_42571" cx="0" cy="0" r="1" gradientUnits="userSpaceOnUse" gradientTransform="translate(68.1981 83.9397) scale(49.9369 49.7572)">
<stop stop-color="#4DC2EB"/>
<stop offset="0.585" stop-color="#0078D4"/>
</radialGradient>
<radialGradient id="paint4_radial_166_42571" cx="0" cy="0" r="1" gradientUnits="userSpaceOnUse" gradientTransform="translate(69.4412 76.2102) scale(23.4213 23.2906)">
<stop stop-color="#4DC2EB"/>
<stop offset="0.585" stop-color="#0078D4"/>
</radialGradient>
<linearGradient id="paint5_linear_166_42571" x1="63.7264" y1="99.4606" x2="101.16" y2="132.762" gradientUnits="userSpaceOnUse">
<stop stop-color="#FFB900"/>
<stop offset="0.17" stop-color="#EF8400"/>
<stop offset="0.31" stop-color="#E25C01"/>
<stop offset="0.43" stop-color="#DB4401"/>
<stop offset="0.5" stop-color="#D83B01"/>
</linearGradient>
<linearGradient id="paint6_linear_166_42571" x1="66.6375" y1="103.048" x2="93.8203" y2="114.037" gradientUnits="userSpaceOnUse">
<stop stop-color="#FFB900"/>
<stop offset="0.17" stop-color="#EF8400"/>
<stop offset="0.31" stop-color="#E25C01"/>
<stop offset="0.43" stop-color="#DB4401"/>
<stop offset="0.5" stop-color="#D83B01"/>
</linearGradient>
<linearGradient id="paint7_linear_166_42571" x1="32.351" y1="111.895" x2="37.4624" y2="111.895" gradientUnits="userSpaceOnUse">
<stop stop-color="#D2EBFF"/>
<stop offset="1" stop-color="#F0FFFD"/>
</linearGradient>
<linearGradient id="paint8_linear_166_42571" x1="40.9254" y1="117.969" x2="46.0369" y2="117.969" gradientUnits="userSpaceOnUse">
<stop stop-color="#D2EBFF"/>
<stop offset="1" stop-color="#F0FFFD"/>
</linearGradient>
<linearGradient id="paint9_linear_166_42571" x1="34.3759" y1="124.401" x2="39.4873" y2="124.401" gradientUnits="userSpaceOnUse">
<stop stop-color="#D2EBFF"/>
<stop offset="1" stop-color="#F0FFFD"/>
</linearGradient>
<linearGradient id="paint10_linear_166_42571" x1="75.0685" y1="120.153" x2="73.9356" y2="55.5781" gradientUnits="userSpaceOnUse">
<stop offset="0.3831" stop-color="#D2EBFF"/>
<stop offset="1" stop-color="#F0FFFD"/>
</linearGradient>
<radialGradient id="paint11_radial_166_42571" cx="0" cy="0" r="1" gradientUnits="userSpaceOnUse" gradientTransform="translate(68.1981 83.9397) scale(49.9369 49.7572)">
<stop stop-color="#4DC2EB"/>
<stop offset="0.585" stop-color="#0078D4"/>
</radialGradient>
<radialGradient id="paint12_radial_166_42571" cx="0" cy="0" r="1" gradientUnits="userSpaceOnUse" gradientTransform="translate(69.4412 76.2102) scale(23.4213 23.2906)">
<stop stop-color="#4DC2EB"/>
<stop offset="0.585" stop-color="#0078D4"/>
</radialGradient>
<linearGradient id="paint13_linear_166_42571" x1="63.7264" y1="99.4606" x2="101.16" y2="132.762" gradientUnits="userSpaceOnUse">
<stop stop-color="#FFB900"/>
<stop offset="0.17" stop-color="#EF8400"/>
<stop offset="0.31" stop-color="#E25C01"/>
<stop offset="0.43" stop-color="#DB4401"/>
<stop offset="0.5" stop-color="#D83B01"/>
</linearGradient>
<linearGradient id="paint14_linear_166_42571" x1="66.6375" y1="103.048" x2="93.8203" y2="114.037" gradientUnits="userSpaceOnUse">
<stop stop-color="#FFB900"/>
<stop offset="0.17" stop-color="#EF8400"/>
<stop offset="0.31" stop-color="#E25C01"/>
<stop offset="0.43" stop-color="#DB4401"/>
<stop offset="0.5" stop-color="#D83B01"/>
</linearGradient>
<linearGradient id="paint15_linear_166_42571" x1="32.351" y1="111.895" x2="37.4624" y2="111.895" gradientUnits="userSpaceOnUse">
<stop stop-color="#D2EBFF"/>
<stop offset="1" stop-color="#F0FFFD"/>
</linearGradient>
<linearGradient id="paint16_linear_166_42571" x1="40.9254" y1="117.969" x2="46.0369" y2="117.969" gradientUnits="userSpaceOnUse">
<stop stop-color="#D2EBFF"/>
<stop offset="1" stop-color="#F0FFFD"/>
</linearGradient>
<linearGradient id="paint17_linear_166_42571" x1="34.3759" y1="124.401" x2="39.4873" y2="124.401" gradientUnits="userSpaceOnUse">
<stop stop-color="#D2EBFF"/>
<stop offset="1" stop-color="#F0FFFD"/>
</linearGradient>
</defs>
</svg>
