<svg width="106" height="106" viewBox="0 0 106 106" fill="none" xmlns="http://www.w3.org/2000/svg">
<g filter="url(#filter0_d)">
<circle cx="53" cy="53" r="49" fill="#5197D5"/>
<circle cx="53" cy="53" r="50.75" stroke="#F2F1F0" stroke-width="3.5"/>
</g>
<circle cx="53" cy="53" r="48" stroke="#0078D4" stroke-width="4"/>
<g filter="url(#filter1_d)">
<path d="M87.0997 48.4253C87.0997 47.6853 86.4974 47.083 85.7575 47.083C85.2757 47.083 82.2729 46.8163 80.6726 45.5688C80.6726 45.5688 80.6812 45.5516 80.6726 45.5688C80.0617 43.3576 79.1755 41.2754 78.0742 39.3137C77.7903 37.4553 79.7175 36.0959 80.5951 34.6418C80.75 34.3837 80.836 34.2375 80.8963 34.1428C81.0597 33.6696 80.9651 33.1276 80.5951 32.749C80.5951 32.749 79.1153 30.6324 77.5924 29.1182C76.0781 27.6039 73.7723 25.9261 73.7723 25.9261C73.2474 25.4013 72.3956 25.4013 71.8794 25.9261C71.5439 26.2617 69.2552 28.1545 67.2075 28.4471C67.1731 28.4557 67.1731 28.4557 67.1731 28.4557C65.263 27.3716 63.1207 26.4854 60.9611 25.8745H60.9353C59.421 24.756 59.8168 22.4416 59.421 20.7896C59.421 20.0497 58.8187 19.4474 58.0788 19.4474C58.0788 19.4474 55.5321 19 53.3897 19C51.2473 19 48.4339 19.4474 48.4339 19.4474C47.6939 19.4474 47.0917 20.0497 47.0917 20.7896C47.0917 21.2714 46.8249 24.2742 45.5774 25.8745C43.4522 26.4768 41.2152 27.4232 39.3224 28.4729C37.4639 28.7568 36.1045 26.8295 34.6504 25.9519C34.3923 25.7971 34.2461 25.711 34.1514 25.6508C33.6782 25.4873 33.1362 25.582 32.7576 25.9519C32.7576 25.9519 30.641 27.4318 29.1268 28.9547C27.6125 30.469 25.9347 32.7748 25.9347 32.7748C25.4099 33.2996 25.4099 34.1514 25.9347 34.6677C26.2703 35.0032 28.2061 37.3176 28.4557 39.3396V39.3568C27.3974 41.2496 26.4768 43.4694 25.8745 45.6032C25.8745 45.6032 25.9003 45.5688 25.8745 45.6032C24.5753 47.1863 22.4415 46.7217 20.7896 47.1175C20.0497 47.1175 19.4474 47.7197 19.4474 48.4597C19.4474 48.4597 19 51.0064 19 53.1488C19 55.2911 19.4474 58.1046 19.4474 58.1046C19.4474 58.8445 20.0497 59.4468 20.7896 59.4468C21.2714 59.4468 24.2742 59.7135 25.8745 60.9611C25.9175 60.9439 25.9003 60.9869 25.9003 60.9869C26.5112 63.1207 27.3974 65.2544 28.4729 67.1559C28.4557 67.1817 28.4729 67.1559 28.4815 67.2161C28.6622 69.1606 26.8381 70.434 25.9605 71.888C25.8057 72.1461 25.7196 72.2924 25.6594 72.387C25.4959 72.8603 25.5906 73.4023 25.9605 73.7809C25.9605 73.7809 27.4404 75.8974 28.9633 77.4117C30.4776 78.926 32.7834 80.6037 32.7834 80.6037C33.3082 81.1286 34.16 81.1286 34.6763 80.6037C35.0118 80.2682 37.3263 78.3323 39.3482 78.0828C39.3482 78.0828 39.3396 78.0914 39.374 78.1C41.3184 79.1841 43.3318 80.0359 45.5257 80.6296C45.5516 80.6382 45.6118 80.664 45.6118 80.664C47.1261 81.7825 46.7303 84.0969 47.1261 85.7489C47.2121 86.4888 47.6165 86.9706 48.4683 87.0911C48.4683 87.0911 51.015 87.5385 53.1574 87.5385C55.2997 87.5385 58.1132 87.0911 58.1132 87.0911C58.8531 86.962 59.4554 86.4888 59.4554 85.7489C59.4554 85.267 59.7221 82.2643 60.9697 80.664C60.9697 80.664 61.0299 80.6209 61.0816 80.5693C63.3186 79.9412 65.0221 79.2529 66.9924 78.1172C67.0957 78.0828 66.9838 78.0914 67.2247 78.057C69.0832 77.7731 70.4426 79.7003 71.8966 80.5779C72.1547 80.7328 72.301 80.8188 72.3956 80.8791C72.8689 81.0425 73.4109 80.9479 73.7895 80.5779C73.7895 80.5779 75.906 79.0981 77.4203 77.5752C78.9346 76.0609 80.6123 73.7551 80.6123 73.7551C81.1372 73.2302 81.1372 72.3784 80.6123 71.8622C80.2768 71.5267 78.3409 69.2122 78.0914 67.1903C78.0656 66.9838 78.0828 66.958 78.1086 66.8978C79.2357 64.9017 79.9412 63.4562 80.5607 61.1934C80.5607 61.1934 80.5349 61.1246 80.6726 60.9267C81.7911 59.4124 84.1055 59.8082 85.7575 59.4124C86.4974 59.4124 87.0997 58.8101 87.0997 58.0702C87.0997 58.0702 87.5471 55.5234 87.5471 53.3811C87.5471 51.2387 87.0997 48.4253 87.0997 48.4253ZM73.0926 53.1918C73.0926 64.1875 64.1789 73.1012 53.1832 73.1012C42.1874 73.1012 33.2824 64.1875 33.2824 53.1918C33.2824 42.196 42.196 33.2824 53.1918 33.2824C64.1875 33.2824 73.0926 42.196 73.0926 53.1918Z" fill="url(#paint0_linear)"/>
<path d="M72.4306 80.8799C72.4218 80.8799 72.4219 80.8711 72.4131 80.8711C72.4131 80.8799 72.4218 80.8799 72.4306 80.8799Z" fill="url(#paint1_linear)"/>
<path d="M72.4045 80.8705C72.2153 80.7586 71.9055 80.5693 71.9055 80.5693C72.0518 80.7156 72.2239 80.8102 72.4045 80.8705Z" fill="url(#paint2_linear)"/>
<path d="M72.4302 80.8789C72.5935 80.9821 72.5591 80.9649 72.4302 80.8789V80.8789Z" fill="url(#paint3_linear)"/>
<path d="M34.1775 25.6514C34.3668 25.7632 34.6765 25.9525 34.6765 25.9525C34.5302 25.8062 34.3582 25.7116 34.1775 25.6514Z" fill="url(#paint4_linear)"/>
<path d="M34.1516 25.6328C34.1604 25.6328 34.1604 25.6416 34.1691 25.6416C34.1691 25.6416 34.1604 25.6416 34.1516 25.6328Z" fill="url(#paint5_linear)"/>
<path d="M34.151 25.6335C33.9877 25.5303 34.0221 25.5561 34.151 25.6335V25.6335Z" fill="url(#paint6_linear)"/>
<path d="M25.6679 72.3965C25.5647 72.5598 25.5905 72.5254 25.6679 72.3965V72.3965Z" fill="url(#paint7_linear)"/>
<path d="M25.6677 72.3974C25.6677 72.3886 25.6765 72.3886 25.6765 72.3799C25.6765 72.3799 25.6677 72.3886 25.6677 72.3974Z" fill="url(#paint8_linear)"/>
<path d="M25.6763 72.3779C25.7881 72.1886 25.9774 71.8789 25.9774 71.8789C25.8397 72.0252 25.7451 72.1973 25.6763 72.3779Z" fill="url(#paint9_linear)"/>
<path d="M80.9049 34.1436C80.7931 34.3328 80.6038 34.6426 80.6038 34.6426C80.7414 34.4963 80.8361 34.3242 80.9049 34.1436Z" fill="url(#paint10_linear)"/>
<path d="M80.914 34.126C80.914 34.1347 80.9053 34.1347 80.9053 34.1435C80.9053 34.1347 80.914 34.126 80.914 34.126Z" fill="url(#paint11_linear)"/>
<path d="M80.9138 34.1261C81.017 33.9542 80.9912 33.9971 80.9138 34.1261V34.1261Z" fill="url(#paint12_linear)"/>
<path d="M52.7659 75.4971C65.3201 75.4971 75.4973 65.3198 75.4973 52.7656C75.4973 40.2114 65.3201 30.0342 52.7659 30.0342C40.2116 30.0342 30.0344 40.2114 30.0344 52.7656C30.0344 65.3198 40.2116 75.4971 52.7659 75.4971Z" fill="url(#paint13_linear)"/>
</g>
<rect x="34.6318" y="36.4707" width="36.1672" height="25.1331" rx="0.6" fill="url(#paint14_linear)"/>
<path d="M60.3984 69.2932C56.7613 68.7001 56.6182 65.9885 56.6182 61.6035H49.4052C49.4052 65.9885 49.2826 68.7001 45.6455 69.2932C44.6056 69.4125 43.8206 70.3269 43.8269 71.4116H62.217C62.2233 70.3269 61.4383 69.4125 60.3984 69.2932Z" fill="url(#paint15_linear)"/>
<g filter="url(#filter2_d)">
<path d="M43.7274 57.3041C43.0811 57.3572 42.4356 57.1903 41.8881 56.8284C41.4758 56.3716 41.2779 55.7487 41.3472 55.1259V50.7068C41.3472 49.9807 41.0707 49.5926 40.4937 49.5926V48.4909C41.0707 48.4909 41.3472 48.1029 41.3472 47.3392V42.9952C41.2816 42.3615 41.4784 41.7286 41.8881 41.2551C42.4279 40.8748 43.0796 40.7063 43.7274 40.7794V41.8936C43.1143 41.8936 42.7777 42.2316 42.7777 42.9577V47.214C42.7777 48.1905 42.5012 48.7914 41.8881 49.0418C42.526 49.3938 42.8821 50.1257 42.7777 50.8695V55.0883C42.7665 55.3866 42.8374 55.6819 42.9821 55.9396C43.1688 56.1242 43.4231 56.2155 43.6794 56.19V57.3041H43.7274Z" fill="url(#paint16_linear)"/>
<path d="M61.6929 40.7714C62.3393 40.7183 62.9847 40.8853 63.5322 41.2472C63.9445 41.7042 64.1424 42.3272 64.0731 42.9502V47.3705C64.0731 48.0968 64.3496 48.485 64.9267 48.485V49.5869C64.3496 49.5869 64.0731 49.9751 64.0731 50.7389V55.034C64.1406 55.6719 63.9439 56.3096 63.5322 56.7871C62.9977 57.1817 62.3452 57.3638 61.6929 57.3005V56.186C62.306 56.186 62.6426 55.8479 62.6426 55.1216V50.8641C62.6426 49.8874 62.9191 49.2864 63.5322 49.0359C62.8944 48.6837 62.5382 47.9517 62.6426 47.2077V42.9878C62.6538 42.6894 62.5829 42.394 62.4382 42.1363C62.2515 41.9516 61.9972 41.8603 61.741 41.8858L61.6929 40.7714Z" fill="url(#paint17_linear)"/>
<path d="M53.4772 48.9943V47.4521H52.2478V48.9943C52.2478 49.115 52.1377 49.2129 52.0019 49.2129H47.453C47.1814 49.2129 46.9612 49.4086 46.9612 49.6501V51.6537H48.1906V50.5486C48.1904 50.4325 48.2924 50.3365 48.4228 50.3301H57.3568C57.4926 50.3301 57.6026 50.4279 57.6026 50.5486V51.678H58.8184V49.6501C58.8185 49.4133 58.6066 49.2195 58.3403 49.2129H53.7231C53.5873 49.2129 53.4772 49.115 53.4772 48.9943Z" fill="url(#paint18_linear)"/>
<path fill-rule="evenodd" clip-rule="evenodd" d="M50.3647 41.8185H55.0418C55.1821 41.8149 55.3181 41.8664 55.4199 41.9617C55.5218 42.0571 55.581 42.1884 55.5847 42.3269V46.9436C55.5849 47.0834 55.5268 47.217 55.4241 47.3132C55.3214 47.4094 55.1831 47.4596 55.0418 47.452H50.3647C50.2257 47.4557 50.0911 47.4038 49.9914 47.3081C49.8918 47.2123 49.8356 47.0809 49.8357 46.9436V42.3269C49.8432 42.0439 50.0779 41.8184 50.3647 41.8185ZM54.2757 46.5861C54.4642 46.5862 54.6191 46.4343 54.6266 46.2419L54.5705 43.0439C54.5705 42.8458 54.4133 42.6853 54.2195 42.6853H51.145C50.9511 42.6853 50.794 42.8458 50.794 43.0439V46.2419C50.8015 46.4343 50.9565 46.5862 51.145 46.5861H54.2757Z" fill="url(#paint19_linear)"/>
<rect x="45.1648" y="51.6787" width="3.5931" height="3.52151" rx="0.27" fill="url(#paint20_linear)"/>
<rect x="56.6626" y="51.6787" width="3.5931" height="3.52151" rx="0.27" fill="url(#paint21_linear)"/>
</g>
<g filter="url(#filter3_d)">
<path fill-rule="evenodd" clip-rule="evenodd" d="M75.6633 41.2953C81.5659 41.2953 86.351 36.5103 86.351 30.6076C86.351 24.705 81.5659 19.9199 75.6633 19.9199C69.7606 19.9199 64.9756 24.705 64.9756 30.6076C64.9756 32.6688 65.5591 34.5938 66.5699 36.2263V39.7034H70.0485C71.6802 40.7127 73.6037 41.2953 75.6633 41.2953Z" fill="#FCA11F"/>
<path fill-rule="evenodd" clip-rule="evenodd" d="M86.3515 30.608C86.3515 36.5106 81.5664 41.2957 75.6638 41.2957C73.6036 41.2957 71.6795 40.7127 70.0476 39.7028H66.5688V39.6354L83.264 23.0938C85.1729 25.0243 86.3515 27.6785 86.3515 30.608Z" fill="#E89619"/>
<circle cx="75.6622" cy="24.9468" r="1.41559" fill="white"/>
<circle cx="75.6622" cy="36.2701" r="1.41559" fill="white"/>
<circle cx="79.4842" cy="32.4507" r="1.41559" fill="white"/>
<circle cx="79.4842" cy="28.6988" r="1.41559" fill="white"/>
<path d="M78.918 30.539C78.918 31.0799 78.3399 32.0607 78.0686 32.4854H80.8644C80.6049 32.1079 80.1141 31.1901 80.0858 30.539C80.0735 30.2549 80.1662 29.9246 80.2982 29.6121C80.4687 29.2082 80.7048 28.8341 80.8644 28.6279H78.0686C78.3871 29.0408 78.918 29.8312 78.918 30.539Z" fill="white"/>
<circle cx="71.8404" cy="32.4507" r="1.41559" fill="white"/>
<circle cx="71.8409" cy="28.6988" r="1.41559" fill="white"/>
<path d="M71.2735 30.5317C71.2735 31.0726 71.0494 31.1333 70.7781 31.558L72.8661 31.5226C72.6065 31.1451 72.4697 31.1829 72.4414 30.5317C72.429 30.2476 72.4414 30.1424 72.583 29.9301C72.7412 29.6927 72.7065 29.7823 72.8661 29.5762L70.8842 29.6823C71.2028 30.0952 71.2735 29.8239 71.2735 30.5317Z" fill="white"/>
<circle cx="79.4842" cy="32.4507" r="1.41559" fill="white"/>
<circle cx="79.4842" cy="28.6988" r="1.41559" fill="white"/>
<path d="M78.9173 30.5317C78.9173 31.0726 78.6932 31.1333 78.4219 31.558L80.5099 31.5226C80.2503 31.1451 80.1135 31.1829 80.0852 30.5317C80.0728 30.2476 80.0852 30.1424 80.2267 29.9301C80.385 29.6927 80.3503 29.7823 80.5099 29.5762L78.528 29.6823C78.8466 30.0952 78.9173 29.8239 78.9173 30.5317Z" fill="white"/>
<circle cx="75.6622" cy="32.4507" r="1.41559" fill="white"/>
<circle cx="75.6627" cy="28.6988" r="1.41559" fill="white"/>
<path d="M75.0951 30.5317C75.0951 31.0726 74.8709 31.1333 74.5996 31.558L76.6876 31.5226C76.4281 31.1451 76.2912 31.1829 76.2629 30.5317C76.2506 30.2476 76.2629 30.1424 76.4045 29.9301C76.5628 29.6927 76.528 29.7823 76.6876 29.5762L74.7058 29.6823C75.0243 30.0952 75.0951 29.8239 75.0951 30.5317Z" fill="white"/>
<circle cx="75.6622" cy="32.4507" r="1.41559" fill="white"/>
<circle cx="75.6627" cy="28.6988" r="1.41559" fill="white"/>
<path d="M75.0951 30.5317C75.0951 31.0726 74.8709 31.1333 74.5996 31.558L76.6876 31.5226C76.4281 31.1451 76.2912 31.1829 76.2629 30.5317C76.2506 30.2476 76.2629 30.1424 76.4045 29.9301C76.5628 29.6927 76.528 29.7823 76.6876 29.5762L74.7058 29.6823C75.0243 30.0952 75.0951 29.8239 75.0951 30.5317Z" fill="white"/>
</g>
<defs>
<filter id="filter0_d" x="0.5" y="0.5" width="105.5" height="105.5" filterUnits="userSpaceOnUse" color-interpolation-filters="sRGB">
<feFlood flood-opacity="0" result="BackgroundImageFix"/>
<feColorMatrix in="SourceAlpha" type="matrix" values="0 0 0 0 0 0 0 0 0 0 0 0 0 0 0 0 0 0 127 0"/>
<feOffset dx="0.5" dy="0.5"/>
<feColorMatrix type="matrix" values="0 0 0 0 0.823529 0 0 0 0 0.831373 0 0 0 0 0.835294 0 0 0 1 0"/>
<feBlend mode="normal" in2="BackgroundImageFix" result="effect1_dropShadow"/>
<feBlend mode="normal" in="SourceGraphic" in2="effect1_dropShadow" result="shape"/>
</filter>
<filter id="filter1_d" x="15" y="17" width="76.5471" height="76.5385" filterUnits="userSpaceOnUse" color-interpolation-filters="sRGB">
<feFlood flood-opacity="0" result="BackgroundImageFix"/>
<feColorMatrix in="SourceAlpha" type="matrix" values="0 0 0 0 0 0 0 0 0 0 0 0 0 0 0 0 0 0 127 0"/>
<feOffset dy="2"/>
<feGaussianBlur stdDeviation="2"/>
<feColorMatrix type="matrix" values="0 0 0 0 0 0 0 0 0 0 0 0 0 0 0 0 0 0 0.1 0"/>
<feBlend mode="normal" in2="BackgroundImageFix" result="effect1_dropShadow"/>
<feBlend mode="normal" in="SourceGraphic" in2="effect1_dropShadow" result="shape"/>
</filter>
<filter id="filter2_d" x="40.4937" y="40.7617" width="24.433" height="17.5521" filterUnits="userSpaceOnUse" color-interpolation-filters="sRGB">
<feFlood flood-opacity="0" result="BackgroundImageFix"/>
<feColorMatrix in="SourceAlpha" type="matrix" values="0 0 0 0 0 0 0 0 0 0 0 0 0 0 0 0 0 0 127 0"/>
<feOffset dy="1"/>
<feColorMatrix type="matrix" values="0 0 0 0 0 0 0 0 0 0 0 0 0 0 0 0 0 0 0.102044 0"/>
<feBlend mode="normal" in2="BackgroundImageFix" result="effect1_dropShadow"/>
<feBlend mode="normal" in="SourceGraphic" in2="effect1_dropShadow" result="shape"/>
</filter>
<filter id="filter3_d" x="60.9756" y="17.9199" width="29.3759" height="29.3757" filterUnits="userSpaceOnUse" color-interpolation-filters="sRGB">
<feFlood flood-opacity="0" result="BackgroundImageFix"/>
<feColorMatrix in="SourceAlpha" type="matrix" values="0 0 0 0 0 0 0 0 0 0 0 0 0 0 0 0 0 0 127 0"/>
<feOffset dy="2"/>
<feGaussianBlur stdDeviation="2"/>
<feColorMatrix type="matrix" values="0 0 0 0 0 0 0 0 0 0 0 0 0 0 0 0 0 0 0.1 0"/>
<feBlend mode="normal" in2="BackgroundImageFix" result="effect1_dropShadow"/>
<feBlend mode="normal" in="SourceGraphic" in2="effect1_dropShadow" result="shape"/>
</filter>
<linearGradient id="paint0_linear" x1="53.2735" y1="19" x2="53.2735" y2="87.5385" gradientUnits="userSpaceOnUse">
<stop stop-color="#05B7EF"/>
<stop offset="1" stop-color="#0581D3"/>
</linearGradient>
<linearGradient id="paint1_linear" x1="72.4219" y1="80.8711" x2="72.4219" y2="80.8799" gradientUnits="userSpaceOnUse">
<stop stop-color="#05B7EF"/>
<stop offset="1" stop-color="#0581D3"/>
</linearGradient>
<linearGradient id="paint2_linear" x1="72.155" y1="80.5693" x2="72.155" y2="80.8705" gradientUnits="userSpaceOnUse">
<stop stop-color="#05B7EF"/>
<stop offset="1" stop-color="#0581D3"/>
</linearGradient>
<linearGradient id="paint3_linear" x1="72.4852" y1="80.8789" x2="72.4852" y2="80.95" gradientUnits="userSpaceOnUse">
<stop stop-color="#05B7EF"/>
<stop offset="1" stop-color="#0581D3"/>
</linearGradient>
<linearGradient id="paint4_linear" x1="34.427" y1="25.6514" x2="34.427" y2="25.9525" gradientUnits="userSpaceOnUse">
<stop stop-color="#05B7EF"/>
<stop offset="1" stop-color="#0581D3"/>
</linearGradient>
<linearGradient id="paint5_linear" x1="34.1604" y1="25.6328" x2="34.1604" y2="25.6416" gradientUnits="userSpaceOnUse">
<stop stop-color="#05B7EF"/>
<stop offset="1" stop-color="#0581D3"/>
</linearGradient>
<linearGradient id="paint6_linear" x1="34.096" y1="25.5654" x2="34.096" y2="25.6335" gradientUnits="userSpaceOnUse">
<stop stop-color="#05B7EF"/>
<stop offset="1" stop-color="#0581D3"/>
</linearGradient>
<linearGradient id="paint7_linear" x1="25.6339" y1="72.3965" x2="25.6339" y2="72.5065" gradientUnits="userSpaceOnUse">
<stop stop-color="#05B7EF"/>
<stop offset="1" stop-color="#0581D3"/>
</linearGradient>
<linearGradient id="paint8_linear" x1="25.6721" y1="72.3799" x2="25.6721" y2="72.3974" gradientUnits="userSpaceOnUse">
<stop stop-color="#05B7EF"/>
<stop offset="1" stop-color="#0581D3"/>
</linearGradient>
<linearGradient id="paint9_linear" x1="25.8268" y1="71.8789" x2="25.8268" y2="72.3779" gradientUnits="userSpaceOnUse">
<stop stop-color="#05B7EF"/>
<stop offset="1" stop-color="#0581D3"/>
</linearGradient>
<linearGradient id="paint10_linear" x1="80.7543" y1="34.1436" x2="80.7543" y2="34.6426" gradientUnits="userSpaceOnUse">
<stop stop-color="#05B7EF"/>
<stop offset="1" stop-color="#0581D3"/>
</linearGradient>
<linearGradient id="paint11_linear" x1="80.9097" y1="34.126" x2="80.9097" y2="34.1435" gradientUnits="userSpaceOnUse">
<stop stop-color="#05B7EF"/>
<stop offset="1" stop-color="#0581D3"/>
</linearGradient>
<linearGradient id="paint12_linear" x1="80.9478" y1="34.0127" x2="80.9478" y2="34.1261" gradientUnits="userSpaceOnUse">
<stop stop-color="#05B7EF"/>
<stop offset="1" stop-color="#0581D3"/>
</linearGradient>
<linearGradient id="paint13_linear" x1="52.7659" y1="30.0342" x2="52.7659" y2="75.4971" gradientUnits="userSpaceOnUse">
<stop stop-color="#05B7EF"/>
<stop offset="1" stop-color="#0581D3"/>
</linearGradient>
<linearGradient id="paint14_linear" x1="70.799" y1="61.6038" x2="70.799" y2="36.4707" gradientUnits="userSpaceOnUse">
<stop stop-color="#D2EBFF"/>
<stop offset="1" stop-color="#F0FFFD"/>
</linearGradient>
<linearGradient id="paint15_linear" x1="62.217" y1="71.4116" x2="62.217" y2="61.6035" gradientUnits="userSpaceOnUse">
<stop offset="0.15" stop-color="#CCCCCC"/>
<stop offset="1" stop-color="#707070"/>
</linearGradient>
<linearGradient id="paint16_linear" x1="43.774" y1="56.9115" x2="43.774" y2="39.8839" gradientUnits="userSpaceOnUse">
<stop stop-color="#0078D4"/>
<stop offset="0.16" stop-color="#1380DA"/>
<stop offset="0.53" stop-color="#3C91E5"/>
<stop offset="0.82" stop-color="#559CEC"/>
<stop offset="1" stop-color="#5EA0EF"/>
</linearGradient>
<linearGradient id="paint17_linear" x1="64.9732" y1="56.9105" x2="64.9732" y2="39.8829" gradientUnits="userSpaceOnUse">
<stop stop-color="#0078D4"/>
<stop offset="0.16" stop-color="#1380DA"/>
<stop offset="0.53" stop-color="#3C91E5"/>
<stop offset="0.82" stop-color="#559CEC"/>
<stop offset="1" stop-color="#5EA0EF"/>
</linearGradient>
<linearGradient id="paint18_linear" x1="58.9891" y1="51.5752" x2="58.9891" y2="47.2278" gradientUnits="userSpaceOnUse">
<stop stop-color="#0078D4"/>
<stop offset="0.16" stop-color="#1380DA"/>
<stop offset="0.53" stop-color="#3C91E5"/>
<stop offset="0.82" stop-color="#559CEC"/>
<stop offset="1" stop-color="#5EA0EF"/>
</linearGradient>
<linearGradient id="paint19_linear" x1="55.6674" y1="47.3158" x2="55.6674" y2="41.5192" gradientUnits="userSpaceOnUse">
<stop stop-color="#0078D4"/>
<stop offset="0.16" stop-color="#1380DA"/>
<stop offset="0.53" stop-color="#3C91E5"/>
<stop offset="0.82" stop-color="#559CEC"/>
<stop offset="1" stop-color="#5EA0EF"/>
</linearGradient>
<linearGradient id="paint20_linear" x1="48.8096" y1="55.1146" x2="48.8096" y2="51.4917" gradientUnits="userSpaceOnUse">
<stop stop-color="#0078D4"/>
<stop offset="0.16" stop-color="#1380DA"/>
<stop offset="0.53" stop-color="#3C91E5"/>
<stop offset="0.82" stop-color="#559CEC"/>
<stop offset="1" stop-color="#5EA0EF"/>
</linearGradient>
<linearGradient id="paint21_linear" x1="60.3074" y1="55.1146" x2="60.3074" y2="51.4917" gradientUnits="userSpaceOnUse">
<stop stop-color="#0078D4"/>
<stop offset="0.16" stop-color="#1380DA"/>
<stop offset="0.53" stop-color="#3C91E5"/>
<stop offset="0.82" stop-color="#559CEC"/>
<stop offset="1" stop-color="#5EA0EF"/>
</linearGradient>
</defs>
</svg>
