<svg width="106" height="106" viewBox="0 0 106 106" fill="none" xmlns="http://www.w3.org/2000/svg">
<g filter="url(#filter0_d)">
<circle cx="53" cy="53" r="49" fill="#5197D5"/>
<circle cx="53" cy="53" r="50.75" stroke="#F2F1F0" stroke-width="3.5"/>
</g>
<circle cx="53" cy="53" r="48" stroke="#0078D4" stroke-width="4"/>
<path opacity="0.15" d="M88.6424 48.8536C88.6424 48.0769 88.0086 47.4431 87.2319 47.4431C86.7319 47.4431 83.5716 47.1574 81.8754 45.8451C81.8754 45.8451 81.8844 45.8272 81.8754 45.8451C81.2327 43.515 80.2953 41.3278 79.1347 39.2656C78.8401 37.3105 80.8577 35.8821 81.7951 34.3466C81.9647 34.0787 82.054 33.927 82.1165 33.8199C82.295 33.3199 82.1879 32.7486 81.7951 32.3558C81.7951 32.3558 80.2328 30.1328 78.6437 28.5348C77.0457 26.9368 74.6264 25.1781 74.6264 25.1781C74.0818 24.6336 73.1801 24.6336 72.6356 25.1781C72.2785 25.5352 69.877 27.5171 67.7166 27.8385C67.6809 27.8474 67.6809 27.8474 67.6809 27.8474C65.6722 26.7047 63.4136 25.7763 61.146 25.1246H61.1192C59.5212 23.9461 59.9408 21.509 59.5212 19.7681C59.5212 18.9914 58.8874 18.3576 58.1107 18.3576C58.1107 18.3576 55.4325 17.8844 53.1828 17.8844C50.9331 17.8844 47.9692 18.3576 47.9692 18.3576C47.1925 18.3576 46.5586 18.9914 46.5586 19.7681C46.5586 20.2681 46.273 23.4284 44.9606 25.1246C42.7198 25.7495 40.3719 26.7493 38.3811 27.8653C36.426 28.1599 34.9976 26.1423 33.4621 25.2049C33.1943 25.0353 33.0425 24.946 32.9354 24.8835C32.4355 24.705 31.8641 24.8121 31.4713 25.2049C31.4713 25.2049 29.2484 26.7672 27.6504 28.3563C26.0524 29.9454 24.2937 32.3736 24.2937 32.3736C23.7491 32.9182 23.7491 33.8199 24.2937 34.3644C24.6508 34.7215 26.6862 37.1498 26.9541 39.2834V39.3013C25.8381 41.2921 24.874 43.6311 24.2401 45.8718C24.2401 45.8718 24.2669 45.8361 24.2401 45.8718C22.8742 47.5323 20.6245 47.0503 18.8837 47.4699C18.107 47.4699 17.4732 48.1037 17.4732 48.8804C17.4732 48.8804 17 51.5586 17 53.8083C17 56.0669 17.4732 59.0219 17.4732 59.0219C17.4732 59.7986 18.107 60.4324 18.8837 60.4324C19.3836 60.4324 22.5439 60.7181 24.2401 62.0304C24.2848 62.0126 24.2669 62.0572 24.2669 62.0572C24.9097 64.3069 25.8471 66.5477 26.9719 68.5475C26.9541 68.5742 26.9719 68.5475 26.9808 68.6099C27.1772 70.6543 25.2578 71.9934 24.3205 73.5289C24.1508 73.7968 24.0616 73.9485 23.9991 74.0557C23.8205 74.5556 23.9277 75.1269 24.3205 75.5197C24.3205 75.5197 25.8828 77.7427 27.4718 79.3407C29.0698 80.9387 31.4892 82.6974 31.4892 82.6974C32.0337 83.242 32.9354 83.242 33.48 82.6974C33.8371 82.3403 36.2653 80.3048 38.399 80.037C38.399 80.037 38.3901 80.0549 38.4258 80.0549C40.4791 81.1887 42.5949 82.0903 44.8981 82.7242C44.9249 82.7331 44.9874 82.7599 44.9874 82.7599C46.5854 83.9383 46.1658 86.3755 46.5854 88.1163C46.6747 88.9019 47.1032 89.4019 47.9959 89.5268C47.9959 89.5268 50.6742 90 52.9239 90C55.1825 90 58.1375 89.5268 58.1375 89.5268C58.9142 89.3929 59.548 88.893 59.548 88.1163C59.548 87.6164 59.8337 84.4561 61.146 82.7599C61.146 82.7599 61.2085 82.7152 61.2621 82.6617C63.6189 82.001 65.4044 81.2779 67.4845 80.0817C67.5916 80.0459 67.4755 80.0549 67.7255 80.0192C69.6806 79.7246 71.109 81.7422 72.6445 82.6795C72.9123 82.8492 73.0641 82.9384 73.1712 83.0009C73.6712 83.1795 74.2425 83.0723 74.6353 82.6795C74.6353 82.6795 76.8582 81.1172 78.4562 79.5282C80.0542 77.9302 81.8129 75.5108 81.8129 75.5108C82.3575 74.9663 82.3575 74.0646 81.8129 73.52C81.4558 73.1629 79.4204 70.7347 79.1526 68.601C79.1258 68.3868 79.1437 68.351 79.1704 68.2886C80.3578 66.1906 81.0988 64.664 81.7505 62.2893C81.7505 62.2893 81.7237 62.209 81.8754 62.0126C83.0539 60.4146 85.491 60.8342 87.2319 60.4146C88.0086 60.4146 88.6424 59.7807 88.6424 59.0041C88.6424 59.0041 89.1156 56.3258 89.1156 54.0761C89.1156 51.8264 88.6424 48.8536 88.6424 48.8536ZM73.9033 53.8708C73.9033 65.4407 64.5295 74.8145 52.9596 74.8145C41.3897 74.8145 32.0159 65.4407 32.0159 53.8708C32.0159 42.3009 41.3897 32.9271 52.9596 32.9271C64.5295 32.9271 73.9033 42.3009 73.9033 53.8708Z" fill="#1F1D20"/>
<path d="M88.6424 46.9692C88.6424 46.1925 88.0086 45.5586 87.2319 45.5586C86.7319 45.5586 83.5716 45.273 81.8754 43.9606C81.8754 43.9606 81.8844 43.9428 81.8754 43.9606C81.2327 41.6306 80.2953 39.4434 79.1347 37.3811C78.8401 35.426 80.8577 33.9976 81.7951 32.4621C81.9647 32.1943 82.054 32.0425 82.1165 31.9354C82.295 31.4355 82.1879 30.8641 81.7951 30.4713C81.7951 30.4713 80.2328 28.2484 78.6437 26.6504C77.0457 25.0524 74.6264 23.2937 74.6264 23.2937C74.0818 22.7491 73.1801 22.7491 72.6356 23.2937C72.2785 23.6508 69.877 25.6327 67.7166 25.9541C67.6809 25.963 67.6809 25.963 67.6809 25.963C65.6722 24.8203 63.4136 23.8918 61.146 23.2401H61.1192C59.5212 22.0617 59.9408 19.6245 59.5212 17.8837C59.5212 17.107 58.8874 16.4732 58.1107 16.4732C58.1107 16.4732 55.4325 16 53.1828 16C50.9331 16 47.9692 16.4732 47.9692 16.4732C47.1925 16.4732 46.5586 17.107 46.5586 17.8837C46.5586 18.3836 46.273 21.5439 44.9606 23.2401C42.7198 23.865 40.3719 24.8649 38.3811 25.9808C36.426 26.2754 34.9976 24.2578 33.4621 23.3205C33.1943 23.1509 33.0425 23.0616 32.9354 22.9991C32.4355 22.8205 31.8641 22.9277 31.4713 23.3205C31.4713 23.3205 29.2484 24.8828 27.6504 26.4718C26.0524 28.0609 24.2937 30.4892 24.2937 30.4892C23.7491 31.0337 23.7491 31.9354 24.2937 32.48C24.6508 32.8371 26.6862 35.2653 26.9541 37.399V37.4168C25.8381 39.4076 24.874 41.7466 24.2401 43.9874C24.2401 43.9874 24.2669 43.9517 24.2401 43.9874C22.8742 45.6479 20.6245 45.1658 18.8837 45.5854C18.107 45.5854 17.4732 46.2193 17.4732 46.9959C17.4732 46.9959 17 49.6742 17 51.9239C17 54.1825 17.4732 57.1375 17.4732 57.1375C17.4732 57.9142 18.107 58.548 18.8837 58.548C19.3836 58.548 22.5439 58.8337 24.2401 60.146C24.2848 60.1282 24.2669 60.1728 24.2669 60.1728C24.9097 62.4225 25.8471 64.6633 26.9719 66.663C26.9541 66.6898 26.9719 66.663 26.9808 66.7255C27.1772 68.7699 25.2578 70.109 24.3205 71.6445C24.1508 71.9123 24.0616 72.0641 23.9991 72.1712C23.8205 72.6712 23.9277 73.2425 24.3205 73.6353C24.3205 73.6353 25.8828 75.8582 27.4718 77.4562C29.0698 79.0543 31.4892 80.8129 31.4892 80.8129C32.0337 81.3575 32.9354 81.3575 33.48 80.8129C33.8371 80.4558 36.2653 78.4204 38.399 78.1526C38.399 78.1526 38.3901 78.1704 38.4258 78.1704C40.4791 79.3042 42.5949 80.2059 44.8981 80.8397C44.9249 80.8487 44.9874 80.8754 44.9874 80.8754C46.5854 82.0539 46.1658 84.491 46.5854 86.2319C46.6747 87.0175 47.1032 87.5174 47.9959 87.6424C47.9959 87.6424 50.6742 88.1156 52.9239 88.1156C55.1825 88.1156 58.1375 87.6424 58.1375 87.6424C58.9142 87.5085 59.548 87.0086 59.548 86.2319C59.548 85.7319 59.8337 82.5716 61.146 80.8754C61.146 80.8754 61.2085 80.8308 61.2621 80.7772C63.6189 80.1166 65.4044 79.3935 67.4845 78.1972C67.5916 78.1615 67.4755 78.1704 67.7255 78.1347C69.6806 77.8401 71.109 79.8577 72.6445 80.7951C72.9123 80.9647 73.0641 81.054 73.1712 81.1165C73.6712 81.295 74.2425 81.1879 74.6353 80.7951C74.6353 80.7951 76.8582 79.2328 78.4562 77.6437C80.0542 76.0457 81.8129 73.6264 81.8129 73.6264C82.3575 73.0818 82.3575 72.1801 81.8129 71.6356C81.4558 71.2785 79.4204 68.8502 79.1526 66.7166C79.1258 66.5023 79.1437 66.4666 79.1704 66.4041C80.3578 64.3062 81.0988 62.7796 81.7505 60.4049C81.7505 60.4049 81.7237 60.3246 81.8754 60.1282C83.0539 58.5301 85.491 58.9497 87.2319 58.5301C88.0086 58.5301 88.6424 57.8963 88.6424 57.1196C88.6424 57.1196 89.1156 54.4414 89.1156 52.1917C89.1156 49.942 88.6424 46.9692 88.6424 46.9692ZM73.9033 51.9774C73.9033 63.5474 64.5295 72.9211 52.9596 72.9211C41.3897 72.9211 32.0159 63.5474 32.0159 51.9774C32.0159 40.4075 41.3897 31.0337 52.9596 31.0337C64.5295 31.0337 73.9033 40.4165 73.9033 51.9774Z" fill="#F2F1F0"/>
<path d="M73.2076 81.1169C73.1984 81.1169 73.1984 81.1077 73.1892 81.1077C73.1892 81.1077 73.1984 81.1169 73.2076 81.1169Z" fill="#F2F1F0"/>
<path d="M73.1802 81.1078C72.9838 80.9828 72.6535 80.7864 72.6535 80.7864C72.8142 80.9382 72.9927 81.0364 73.1802 81.1078Z" fill="#F2F1F0"/>
<path d="M73.2069 81.1156C73.3765 81.2227 73.3408 81.196 73.2069 81.1156V81.1156Z" fill="#F2F1F0"/>
<path d="M32.9532 22.9996C33.1496 23.1246 33.4799 23.321 33.4799 23.321C33.3281 23.1692 33.1496 23.071 32.9532 22.9996Z" fill="#F2F1F0"/>
<path d="M32.9354 22.9898C32.9446 22.9898 32.9446 22.999 32.9538 22.999C32.9538 22.999 32.9446 22.9898 32.9354 22.9898Z" fill="#F2F1F0"/>
<path d="M32.9354 22.9895C32.7569 22.8823 32.8015 22.9091 32.9354 22.9895V22.9895Z" fill="#F2F1F0"/>
<path d="M24.0079 72.1901C23.9008 72.3598 23.9186 72.3241 24.0079 72.1901V72.1901Z" fill="#F2F1F0"/>
<path d="M24.008 72.1889C24.008 72.1796 24.0172 72.1796 24.0172 72.1704C24.0172 72.1704 24.008 72.1796 24.008 72.1889Z" fill="#F2F1F0"/>
<path d="M24.0169 72.163C24.1419 71.9666 24.3383 71.6362 24.3383 71.6362C24.1865 71.7969 24.0883 71.9755 24.0169 72.163Z" fill="#F2F1F0"/>
<path d="M82.1255 31.9349C82.0006 32.1313 81.8042 32.4616 81.8042 32.4616C81.9559 32.3099 82.0541 32.1313 82.1255 31.9349Z" fill="#F2F1F0"/>
<path d="M82.1347 31.9172C82.1347 31.9264 82.1255 31.9264 82.1255 31.9356C82.1255 31.9356 82.1347 31.9264 82.1347 31.9172Z" fill="#F2F1F0"/>
<path d="M82.1343 31.9167C82.2415 31.7381 82.2147 31.7828 82.1343 31.9167V31.9167Z" fill="#F2F1F0"/>
<path fill-rule="evenodd" clip-rule="evenodd" d="M53 74C64.8741 74 74.5 64.3741 74.5 52.5C74.5 40.6259 64.8741 31 53 31C41.1259 31 31.5 40.6259 31.5 52.5C31.5 56.644 32.6724 60.5142 34.7036 63.7969V70.7963H41.7029C44.9857 72.8276 48.8559 74 53 74Z" fill="#FCA11F"/>
<path fill-rule="evenodd" clip-rule="evenodd" d="M74.5 52.5C74.5 64.3742 64.8741 74 53 74C48.8559 74 44.9857 72.8276 41.7029 70.7963H34.7036V70.6691L68.2933 37.3882C72.1308 41.2716 74.5 46.6091 74.5 52.5Z" fill="#E89619"/>
<circle cx="53" cy="41.1091" r="2.84768" fill="white"/>
<circle cx="53" cy="63.8908" r="2.84768" fill="white"/>
<circle cx="60.6887" cy="56.2018" r="2.84768" fill="white"/>
<circle cx="60.6887" cy="48.6556" r="2.84768" fill="white"/>
<path d="M59.5497 52.3573C59.5497 53.4454 58.3869 55.4185 57.841 56.2728H63.4652C62.9431 55.5135 61.956 53.6672 61.899 52.3573C61.8742 51.7858 62.0607 51.1213 62.3261 50.4926C62.6692 49.6802 63.1441 48.9276 63.4652 48.5129H57.841C58.4818 49.3435 59.5497 50.9334 59.5497 52.3573Z" fill="white"/>
<circle cx="45.3112" cy="56.2021" r="2.84768" fill="white"/>
<circle cx="45.3112" cy="48.6556" r="2.84768" fill="white"/>
<path d="M44.1722 52.3576C44.1722 53.4457 43.7213 53.5679 43.1755 54.4222L47.3758 54.351C46.8537 53.5916 46.5785 53.6675 46.5215 52.3576C46.4967 51.7861 46.5215 51.5745 46.8063 51.1473C47.1247 50.6698 47.0547 50.8501 47.3758 50.4354L43.3891 50.649C44.0298 51.4796 44.1722 50.9337 44.1722 52.3576Z" fill="white"/>
<circle cx="60.6887" cy="56.2018" r="2.84768" fill="white"/>
<circle cx="60.6887" cy="48.6556" r="2.84768" fill="white"/>
<path d="M59.5496 52.3576C59.5496 53.4457 59.0988 53.5679 58.553 54.4222L62.7533 54.351C62.2312 53.5916 61.9559 53.6675 61.899 52.3576C61.8741 51.7861 61.899 51.5745 62.1838 51.1473C62.5021 50.6698 62.4322 50.8501 62.7533 50.4354L58.7665 50.649C59.4073 51.4796 59.5496 50.9337 59.5496 52.3576Z" fill="white"/>
<circle cx="53" cy="56.2018" r="2.84768" fill="white"/>
<circle cx="53" cy="48.6556" r="2.84768" fill="white"/>
<path d="M51.8609 52.3576C51.8609 53.4457 51.41 53.5679 50.8642 54.4222L55.0646 54.351C54.5425 53.5916 54.2672 53.6675 54.2103 52.3576C54.1854 51.7861 54.2103 51.5745 54.495 51.1473C54.8134 50.6698 54.7435 50.8501 55.0646 50.4354L51.0778 50.649C51.7185 51.4796 51.8609 50.9337 51.8609 52.3576Z" fill="white"/>
<circle cx="53" cy="56.2018" r="2.84768" fill="white"/>
<circle cx="53" cy="48.6556" r="2.84768" fill="white"/>
<path d="M51.8609 52.3576C51.8609 53.4457 51.41 53.5679 50.8642 54.4222L55.0646 54.351C54.5425 53.5916 54.2672 53.6675 54.2103 52.3576C54.1854 51.7861 54.2103 51.5745 54.495 51.1473C54.8134 50.6698 54.7435 50.8501 55.0646 50.4354L51.0778 50.649C51.7185 51.4796 51.8609 50.9337 51.8609 52.3576Z" fill="white"/>
<defs>
<filter id="filter0_d" x="0.5" y="0.5" width="105.5" height="105.5" filterUnits="userSpaceOnUse" color-interpolation-filters="sRGB">
<feFlood flood-opacity="0" result="BackgroundImageFix"/>
<feColorMatrix in="SourceAlpha" type="matrix" values="0 0 0 0 0 0 0 0 0 0 0 0 0 0 0 0 0 0 127 0"/>
<feOffset dx="0.5" dy="0.5"/>
<feColorMatrix type="matrix" values="0 0 0 0 0.823529 0 0 0 0 0.831373 0 0 0 0 0.835294 0 0 0 1 0"/>
<feBlend mode="normal" in2="BackgroundImageFix" result="effect1_dropShadow"/>
<feBlend mode="normal" in="SourceGraphic" in2="effect1_dropShadow" result="shape"/>
</filter>
</defs>
</svg>
