<svg width="103" height="103" viewBox="0 0 103 103" fill="none" xmlns="http://www.w3.org/2000/svg">
<path d="M49.0197 98.4205C25.2397 97.1905 5.91968 77.8505 4.73968 54.0605C3.35968 26.3005 26.1697 3.5105 53.9297 4.9205C77.7097 6.1305 97.0297 25.4505 98.2397 49.2205C99.6497 77.0105 76.8097 99.8405 49.0197 98.4205Z" fill="url(#paint0_linear)"/>
<path fill-rule="evenodd" clip-rule="evenodd" d="M97.33 49.2805C98.71 76.5205 76.34 98.8905 49.1 97.5105C25.78 96.3305 6.82996 77.3805 5.64996 54.0605C4.26996 26.8205 26.64 4.45053 53.88 5.83053C77.2 7.01053 96.15 25.9605 97.33 49.2805ZM48.94 2.09053C78.38 0.620528 102.55 24.8005 101.06 54.2405C99.79 79.4605 79.29 99.9605 54.07 101.241C24.6 102.731 0.39996 78.5105 1.91996 49.0405C3.21996 23.8305 23.72 3.35053 48.94 2.09053Z" fill="#F2F1F0"/>
<path fill-rule="evenodd" clip-rule="evenodd" d="M94.5197 49.4304C95.8097 75.0004 74.8197 96.0004 49.2497 94.7004C27.3597 93.5904 9.56971 75.8004 8.45971 53.9104C7.15971 28.3404 28.1597 7.34037 53.7297 8.64037C75.6197 9.75037 93.4097 27.5404 94.5197 49.4304ZM49.0497 4.90037C76.8297 3.49037 99.6697 26.3204 98.2597 54.1104C97.0497 77.9004 77.7197 97.2304 53.9297 98.4404C26.1397 99.8504 3.30971 77.0204 4.71971 49.2304C5.92971 25.4404 25.2597 6.11037 49.0497 4.90037Z" fill="#0078D4"/>
<path opacity="0.15" d="M87.6497 47.5505C87.6497 46.7805 87.0197 46.1405 86.2397 46.1405C85.7297 46.1405 82.5797 45.8605 80.8797 44.5405C80.8797 44.5405 80.8897 44.5205 80.8797 44.5405C80.2397 42.2105 79.2997 40.0305 78.1397 37.9605C77.8397 36.0005 79.8697 34.5705 80.7997 33.0405C80.9597 32.7705 81.0597 32.6205 81.1197 32.5105C81.2897 32.0105 81.1997 31.4405 80.7997 31.0505C80.7997 31.0505 79.2397 28.8205 77.6397 27.2305C76.0397 25.6405 73.6197 23.8705 73.6197 23.8705C73.0697 23.3205 72.1797 23.3205 71.6297 23.8705C71.2697 24.2205 68.8697 26.2005 66.6997 26.5205C66.6697 26.5205 66.6697 26.5205 66.6697 26.5205C64.6597 25.3805 62.3997 24.4405 60.1397 23.8005H60.1097C58.5097 22.6205 58.9297 20.1805 58.5097 18.4405C58.5097 17.6705 57.8797 17.0305 57.0997 17.0305C57.0997 17.0305 54.4197 16.5605 52.1597 16.5605C49.8997 16.5605 46.9497 17.0305 46.9497 17.0305C46.1797 17.0305 45.5397 17.6605 45.5397 18.4405C45.5397 18.9505 45.2597 22.1005 43.9397 23.8005C41.6997 24.4305 39.3497 25.4305 37.3597 26.5405C35.3997 26.8405 33.9697 24.8105 32.4397 23.8805C32.1697 23.7205 32.0197 23.6205 31.9097 23.5605C31.4097 23.3905 30.8397 23.4805 30.4497 23.8805C30.4497 23.8805 28.2197 25.4405 26.6297 27.0405C25.0397 28.6405 23.2697 31.0605 23.2697 31.0605C22.7197 31.6105 22.7197 32.5005 23.2697 33.0505C23.6197 33.4005 25.6597 35.8405 25.9297 37.9705V37.9905C24.8197 39.9805 23.8497 42.3205 23.2097 44.5605C23.2097 44.5605 23.2397 44.5205 23.2097 44.5605C21.8397 46.2205 19.5897 45.7405 17.8497 46.1605C17.0797 46.1605 16.4397 46.7905 16.4397 47.5705C16.4397 47.5705 15.9697 50.2505 15.9697 52.5105C15.9697 54.7705 16.4397 57.7205 16.4397 57.7205C16.4397 58.4905 17.0697 59.1305 17.8497 59.1305C18.3597 59.1305 21.5097 59.4105 23.2097 60.7305C23.2497 60.7105 23.2297 60.7605 23.2297 60.7605C23.8797 63.0105 24.8097 65.2605 25.9397 67.2405C25.9197 67.2705 25.9397 67.2405 25.9497 67.3105C26.1397 69.3605 24.2197 70.7005 23.2897 72.2305C23.1297 72.5005 23.0297 72.6505 22.9697 72.7605C22.7997 73.2605 22.8897 73.8306 23.2897 74.2206C23.2897 74.2206 24.8497 76.4506 26.4497 78.0406C28.0497 79.6406 30.4697 81.4006 30.4697 81.4006C31.0197 81.9506 31.9097 81.9506 32.4597 81.4006C32.8097 81.0506 35.2497 79.0105 37.3797 78.7405C37.3797 78.7405 37.3697 78.7505 37.4097 78.7605C39.4597 79.9005 41.5697 80.8005 43.8797 81.4305C43.8997 81.4405 43.9697 81.4605 43.9697 81.4605C45.5697 82.6405 45.1497 85.0805 45.5697 86.8205C45.6597 87.6005 46.0897 88.1005 46.9797 88.2305C46.9797 88.2305 49.6597 88.7005 51.9197 88.7005C54.1797 88.7005 57.1297 88.2405 57.1297 88.2405C57.8997 88.1105 58.5397 87.6106 58.5397 86.8306C58.5397 86.3206 58.8197 83.1706 60.1397 81.4706C60.1397 81.4706 60.1997 81.4205 60.2497 81.3705C62.5997 80.7105 64.3897 79.9806 66.4697 78.7906C66.5797 78.7506 66.4597 78.7606 66.7097 78.7206C68.6697 78.4206 70.0997 80.4505 71.6297 81.3805C71.8997 81.5405 72.0497 81.6405 72.1597 81.7005C72.6597 81.8705 73.2297 81.7805 73.6197 81.3805C73.6197 81.3805 75.8497 79.8206 77.4397 78.2206C79.0397 76.6206 80.7997 74.2005 80.7997 74.2005C81.3497 73.6505 81.3497 72.7605 80.7997 72.2105C80.4497 71.8605 78.4097 69.4206 78.1397 67.2906C78.1097 67.0706 78.1297 67.0405 78.1597 66.9805C79.3497 64.8905 80.0897 63.3605 80.7397 60.9805C80.7397 60.9805 80.7097 60.9005 80.8597 60.7005C82.0397 59.1005 84.4797 59.5205 86.2197 59.1005C86.9897 59.1005 87.6297 58.4705 87.6297 57.6905C87.6297 57.6905 88.0997 55.0105 88.0997 52.7505C88.1097 50.5105 87.6497 47.5505 87.6497 47.5505Z" fill="#1F1D20"/>
<path d="M87.6497 46.6004C87.6497 45.8304 87.0197 45.1904 86.2397 45.1904C85.7297 45.1904 82.5797 44.9104 80.8797 43.5904C80.8797 43.5904 80.8897 43.5704 80.8797 43.5904C80.2397 41.2604 79.2997 39.0804 78.1397 37.0104C77.8397 35.0504 79.8697 33.6204 80.7997 32.0904C80.9597 31.8204 81.0597 31.6704 81.1197 31.5604C81.2897 31.0604 81.1997 30.4904 80.7997 30.1004C80.7997 30.1004 79.2397 27.8704 77.6397 26.2804C76.0397 24.6904 73.6197 22.9204 73.6197 22.9204C73.0697 22.3704 72.1797 22.3704 71.6297 22.9204C71.2697 23.2704 68.8697 25.2504 66.6997 25.5704C66.6697 25.5704 66.6697 25.5704 66.6697 25.5704C64.6597 24.4304 62.3997 23.4904 60.1397 22.8504H60.1097C58.5097 21.6704 58.9297 19.2304 58.5097 17.4904C58.5097 16.7204 57.8797 16.0804 57.0997 16.0804C57.0997 16.0804 54.4197 15.6104 52.1597 15.6104C49.8997 15.6104 46.9497 16.0804 46.9497 16.0804C46.1797 16.0804 45.5397 16.7104 45.5397 17.4904C45.5397 18.0004 45.2597 21.1504 43.9397 22.8504C41.6997 23.4804 39.3497 24.4804 37.3597 25.5904C35.3997 25.8904 33.9697 23.8604 32.4397 22.9304C32.1697 22.7704 32.0197 22.6704 31.9097 22.6104C31.4097 22.4404 30.8397 22.5304 30.4497 22.9304C30.4497 22.9304 28.2197 24.4904 26.6297 26.0904C25.0397 27.6904 23.2697 30.1104 23.2697 30.1104C22.7197 30.6604 22.7197 31.5504 23.2697 32.1004C23.6197 32.4504 25.6597 34.8904 25.9297 37.0204V37.0404C24.8197 39.0304 23.8497 41.3704 23.2097 43.6104C23.2097 43.6104 23.2397 43.5704 23.2097 43.6104C21.8397 45.2704 19.5897 44.7904 17.8497 45.2104C17.0797 45.2104 16.4397 45.8404 16.4397 46.6204C16.4397 46.6204 15.9697 49.3004 15.9697 51.5604C15.9697 53.8204 16.4397 56.7704 16.4397 56.7704C16.4397 57.5404 17.0697 58.1804 17.8497 58.1804C18.3597 58.1804 21.5097 58.4604 23.2097 59.7804C23.2497 59.7604 23.2297 59.8104 23.2297 59.8104C23.8797 62.0604 24.8097 64.3104 25.9397 66.2904C25.9197 66.3204 25.9397 66.2904 25.9497 66.3604C26.1397 68.4104 24.2197 69.7504 23.2897 71.2804C23.1297 71.5504 23.0297 71.7004 22.9697 71.8104C22.7997 72.3104 22.8897 72.8804 23.2897 73.2704C23.2897 73.2704 24.8497 75.5004 26.4497 77.0904C28.0497 78.6904 30.4697 80.4503 30.4697 80.4503C31.0197 81.0003 31.9097 81.0003 32.4597 80.4503C32.8097 80.1003 35.2497 78.0604 37.3797 77.7904C37.3797 77.7904 37.3697 77.8004 37.4097 77.8104C39.4597 78.9504 41.5697 79.8503 43.8797 80.4803C43.8997 80.4903 43.9697 80.5103 43.9697 80.5103C45.5697 81.6903 45.1497 84.1303 45.5697 85.8703C45.6597 86.6503 46.0897 87.1503 46.9797 87.2803C46.9797 87.2803 49.6597 87.7504 51.9197 87.7504C54.1797 87.7504 57.1297 87.2904 57.1297 87.2904C57.8997 87.1604 58.5397 86.6603 58.5397 85.8803C58.5397 85.3703 58.8197 82.2203 60.1397 80.5203C60.1397 80.5203 60.1997 80.4703 60.2497 80.4203C62.5997 79.7603 64.3897 79.0304 66.4697 77.8404C66.5797 77.8004 66.4597 77.8104 66.7097 77.7704C68.6697 77.4704 70.0997 79.5004 71.6297 80.4304C71.8997 80.5904 72.0497 80.6904 72.1597 80.7504C72.6597 80.9204 73.2297 80.8304 73.6197 80.4304C73.6197 80.4304 75.8497 78.8704 77.4397 77.2704C79.0397 75.6704 80.7997 73.2504 80.7997 73.2504C81.3497 72.7004 81.3497 71.8103 80.7997 71.2603C80.4497 70.9103 78.4097 68.4704 78.1397 66.3404C78.1097 66.1204 78.1297 66.0904 78.1597 66.0304C79.3497 63.9404 80.0897 62.4104 80.7397 60.0304C80.7397 60.0304 80.7097 59.9504 80.8597 59.7504C82.0397 58.1504 84.4797 58.5704 86.2197 58.1504C86.9897 58.1504 87.6297 57.5204 87.6297 56.7404C87.6297 56.7404 88.0997 54.0604 88.0997 51.8004C88.1097 49.5504 87.6497 46.6004 87.6497 46.6004Z" fill="url(#paint1_linear)"/>
<path d="M72.1997 80.7405C72.1897 80.7405 72.1897 80.7305 72.1797 80.7305C72.1897 80.7305 72.1997 80.7405 72.1997 80.7405Z" fill="#9FC2F6"/>
<path d="M72.1799 80.7302C71.9799 80.6102 71.6499 80.4102 71.6499 80.4102C71.8099 80.5602 71.9899 80.6602 72.1799 80.7302Z" fill="#9FC2F6"/>
<path d="M72.1997 80.7402C72.3897 80.8402 72.3497 80.8302 72.1997 80.7402V80.7402Z" fill="#9FC2F6"/>
<path d="M31.9697 22.6304C32.1697 22.7504 32.4997 22.9504 32.4997 22.9504C32.3397 22.8004 32.1597 22.6904 31.9697 22.6304Z" fill="#9FC2F6"/>
<path d="M31.9497 22.6201C31.9597 22.6201 31.9597 22.6301 31.9697 22.6301C31.9597 22.6301 31.9497 22.6201 31.9497 22.6201Z" fill="#9FC2F6"/>
<path d="M31.9497 22.6206C31.7697 22.5106 31.7997 22.5306 31.9497 22.6206V22.6206Z" fill="#9FC2F6"/>
<path d="M23.0096 71.8105C22.9096 71.9905 22.9296 71.9505 23.0096 71.8105V71.8105Z" fill="#9FC2F6"/>
<path d="M23.0098 71.8105C23.0098 71.8005 23.0198 71.8005 23.0198 71.7905C23.0198 71.8005 23.0098 71.8105 23.0098 71.8105Z" fill="#9FC2F6"/>
<path d="M23.0195 71.7903C23.1395 71.5903 23.3395 71.2603 23.3395 71.2603C23.1995 71.4103 23.0895 71.6003 23.0195 71.7903Z" fill="#9FC2F6"/>
<path d="M81.1296 31.5703C81.0096 31.7703 80.8096 32.1003 80.8096 32.1003C80.9496 31.9403 81.0596 31.7603 81.1296 31.5703Z" fill="#9FC2F6"/>
<path d="M81.1399 31.5503C81.1399 31.5603 81.1299 31.5603 81.1299 31.5703C81.1299 31.5603 81.1399 31.5503 81.1399 31.5503Z" fill="#9FC2F6"/>
<path d="M81.1396 31.5502C81.2396 31.3702 81.2196 31.4102 81.1396 31.5502V31.5502Z" fill="#9FC2F6"/>
<path opacity="0.15" d="M87.6497 47.5505C87.6497 46.7805 87.0197 46.1405 86.2397 46.1405C85.7297 46.1405 82.5797 45.8605 80.8797 44.5405C80.8797 44.5405 80.8897 44.5205 80.8797 44.5405C80.2397 42.2105 79.2997 40.0305 78.1397 37.9605C77.8397 36.0005 79.8697 34.5705 80.7997 33.0405C80.9597 32.7705 81.0597 32.6205 81.1197 32.5105C81.2897 32.0105 81.1997 31.4405 80.7997 31.0505C80.7997 31.0505 79.2397 28.8205 77.6397 27.2305C76.0397 25.6405 73.6197 23.8705 73.6197 23.8705C73.0697 23.3205 72.1797 23.3205 71.6297 23.8705C71.2697 24.2205 68.8697 26.2005 66.6997 26.5205C66.6697 26.5205 66.6697 26.5205 66.6697 26.5205C64.6597 25.3805 62.3997 24.4405 60.1397 23.8005H60.1097C58.5097 22.6205 58.9297 20.1805 58.5097 18.4405C58.5097 17.6705 57.8797 17.0305 57.0997 17.0305C57.0997 17.0305 54.4197 16.5605 52.1597 16.5605C49.8997 16.5605 46.9497 17.0305 46.9497 17.0305C46.1797 17.0305 45.5397 17.6605 45.5397 18.4405C45.5397 18.9505 45.2597 22.1005 43.9397 23.8005C41.6997 24.4305 39.3497 25.4305 37.3597 26.5405C35.3997 26.8405 33.9697 24.8105 32.4397 23.8805C32.1697 23.7205 32.0197 23.6205 31.9097 23.5605C31.4097 23.3905 30.8397 23.4805 30.4497 23.8805C30.4497 23.8805 28.2197 25.4405 26.6297 27.0405C25.0397 28.6405 23.2697 31.0605 23.2697 31.0605C22.7197 31.6105 22.7197 32.5005 23.2697 33.0505C23.6197 33.4005 25.6597 35.8405 25.9297 37.9705V37.9905C24.8197 39.9805 23.8497 42.3205 23.2097 44.5605C23.2097 44.5605 23.2397 44.5205 23.2097 44.5605C21.8397 46.2205 19.5897 45.7405 17.8497 46.1605C17.0797 46.1605 16.4397 46.7905 16.4397 47.5705C16.4397 47.5705 15.9697 50.2505 15.9697 52.5105C15.9697 54.7705 16.4397 57.7205 16.4397 57.7205C16.4397 58.4905 17.0697 59.1305 17.8497 59.1305C18.3597 59.1305 21.5097 59.4105 23.2097 60.7305C23.2497 60.7105 23.2297 60.7605 23.2297 60.7605C23.8797 63.0105 24.8097 65.2605 25.9397 67.2405C25.9197 67.2705 25.9397 67.2405 25.9497 67.3105C26.1397 69.3605 24.2197 70.7005 23.2897 72.2305C23.1297 72.5005 23.0297 72.6505 22.9697 72.7605C22.7997 73.2605 22.8897 73.8306 23.2897 74.2206C23.2897 74.2206 24.8497 76.4506 26.4497 78.0406C28.0497 79.6406 30.4697 81.4006 30.4697 81.4006C31.0197 81.9506 31.9097 81.9506 32.4597 81.4006C32.8097 81.0506 35.2497 79.0105 37.3797 78.7405C37.3797 78.7405 37.3697 78.7505 37.4097 78.7605C39.4597 79.9005 41.5697 80.8005 43.8797 81.4305C43.8997 81.4405 43.9697 81.4605 43.9697 81.4605C45.5697 82.6405 45.1497 85.0805 45.5697 86.8205C45.6597 87.6005 46.0897 88.1005 46.9797 88.2305C46.9797 88.2305 49.6597 88.7005 51.9197 88.7005C54.1797 88.7005 57.1297 88.2405 57.1297 88.2405C57.8997 88.1105 58.5397 87.6106 58.5397 86.8306C58.5397 86.3206 58.8197 83.1706 60.1397 81.4706C60.1397 81.4706 60.1997 81.4205 60.2497 81.3705C62.5997 80.7105 64.3897 79.9806 66.4697 78.7906C66.5797 78.7506 66.4597 78.7606 66.7097 78.7206C68.6697 78.4206 70.0997 80.4505 71.6297 81.3805C71.8997 81.5405 72.0497 81.6405 72.1597 81.7005C72.6597 81.8705 73.2297 81.7805 73.6197 81.3805C73.6197 81.3805 75.8497 79.8206 77.4397 78.2206C79.0397 76.6206 80.7997 74.2005 80.7997 74.2005C81.3497 73.6505 81.3497 72.7605 80.7997 72.2105C80.4497 71.8605 78.4097 69.4206 78.1397 67.2906C78.1097 67.0706 78.1297 67.0405 78.1597 66.9805C79.3497 64.8905 80.0897 63.3605 80.7397 60.9805C80.7397 60.9805 80.7097 60.9005 80.8597 60.7005C82.0397 59.1005 84.4797 59.5205 86.2197 59.1005C86.9897 59.1005 87.6297 58.4705 87.6297 57.6905C87.6297 57.6905 88.0997 55.0105 88.0997 52.7505C88.1097 50.5105 87.6497 47.5505 87.6497 47.5505Z" fill="#1F1D20"/>
<path d="M87.6497 46.6004C87.6497 45.8304 87.0197 45.1904 86.2397 45.1904C85.7297 45.1904 82.5797 44.9104 80.8797 43.5904C80.8797 43.5904 80.8897 43.5704 80.8797 43.5904C80.2397 41.2604 79.2997 39.0804 78.1397 37.0104C77.8397 35.0504 79.8697 33.6204 80.7997 32.0904C80.9597 31.8204 81.0597 31.6704 81.1197 31.5604C81.2897 31.0604 81.1997 30.4904 80.7997 30.1004C80.7997 30.1004 79.2397 27.8704 77.6397 26.2804C76.0397 24.6904 73.6197 22.9204 73.6197 22.9204C73.0697 22.3704 72.1797 22.3704 71.6297 22.9204C71.2697 23.2704 68.8697 25.2504 66.6997 25.5704C66.6697 25.5704 66.6697 25.5704 66.6697 25.5704C64.6597 24.4304 62.3997 23.4904 60.1397 22.8504H60.1097C58.5097 21.6704 58.9297 19.2304 58.5097 17.4904C58.5097 16.7204 57.8797 16.0804 57.0997 16.0804C57.0997 16.0804 54.4197 15.6104 52.1597 15.6104C49.8997 15.6104 46.9497 16.0804 46.9497 16.0804C46.1797 16.0804 45.5397 16.7104 45.5397 17.4904C45.5397 18.0004 45.2597 21.1504 43.9397 22.8504C41.6997 23.4804 39.3497 24.4804 37.3597 25.5904C35.3997 25.8904 33.9697 23.8604 32.4397 22.9304C32.1697 22.7704 32.0197 22.6704 31.9097 22.6104C31.4097 22.4404 30.8397 22.5304 30.4497 22.9304C30.4497 22.9304 28.2197 24.4904 26.6297 26.0904C25.0397 27.6904 23.2697 30.1104 23.2697 30.1104C22.7197 30.6604 22.7197 31.5504 23.2697 32.1004C23.6197 32.4504 25.6597 34.8904 25.9297 37.0204V37.0404C24.8197 39.0304 23.8497 41.3704 23.2097 43.6104C23.2097 43.6104 23.2397 43.5704 23.2097 43.6104C21.8397 45.2704 19.5897 44.7904 17.8497 45.2104C17.0797 45.2104 16.4397 45.8404 16.4397 46.6204C16.4397 46.6204 15.9697 49.3004 15.9697 51.5604C15.9697 53.8204 16.4397 56.7704 16.4397 56.7704C16.4397 57.5404 17.0697 58.1804 17.8497 58.1804C18.3597 58.1804 21.5097 58.4604 23.2097 59.7804C23.2497 59.7604 23.2297 59.8104 23.2297 59.8104C23.8797 62.0604 24.8097 64.3104 25.9397 66.2904C25.9197 66.3204 25.9397 66.2904 25.9497 66.3604C26.1397 68.4104 24.2197 69.7504 23.2897 71.2804C23.1297 71.5504 23.0297 71.7004 22.9697 71.8104C22.7997 72.3104 22.8897 72.8804 23.2897 73.2704C23.2897 73.2704 24.8497 75.5004 26.4497 77.0904C28.0497 78.6904 30.4697 80.4503 30.4697 80.4503C31.0197 81.0003 31.9097 81.0003 32.4597 80.4503C32.8097 80.1003 35.2497 78.0604 37.3797 77.7904C37.3797 77.7904 37.3697 77.8004 37.4097 77.8104C39.4597 78.9504 41.5697 79.8503 43.8797 80.4803C43.8997 80.4903 43.9697 80.5103 43.9697 80.5103C45.5697 81.6903 45.1497 84.1303 45.5697 85.8703C45.6597 86.6503 46.0897 87.1503 46.9797 87.2803C46.9797 87.2803 49.6597 87.7504 51.9197 87.7504C54.1797 87.7504 57.1297 87.2904 57.1297 87.2904C57.8997 87.1604 58.5397 86.6603 58.5397 85.8803C58.5397 85.3703 58.8197 82.2203 60.1397 80.5203C60.1397 80.5203 60.1997 80.4703 60.2497 80.4203C62.5997 79.7603 64.3897 79.0304 66.4697 77.8404C66.5797 77.8004 66.4597 77.8104 66.7097 77.7704C68.6697 77.4704 70.0997 79.5004 71.6297 80.4304C71.8997 80.5904 72.0497 80.6904 72.1597 80.7504C72.6597 80.9204 73.2297 80.8304 73.6197 80.4304C73.6197 80.4304 75.8497 78.8704 77.4397 77.2704C79.0397 75.6704 80.7997 73.2504 80.7997 73.2504C81.3497 72.7004 81.3497 71.8103 80.7997 71.2603C80.4497 70.9103 78.4097 68.4704 78.1397 66.3404C78.1097 66.1204 78.1297 66.0904 78.1597 66.0304C79.3497 63.9404 80.0897 62.4104 80.7397 60.0304C80.7397 60.0304 80.7097 59.9504 80.8597 59.7504C82.0397 58.1504 84.4797 58.5704 86.2197 58.1504C86.9897 58.1504 87.6297 57.5204 87.6297 56.7404C87.6297 56.7404 88.0997 54.0604 88.0997 51.8004C88.1097 49.5504 87.6497 46.6004 87.6497 46.6004Z" fill="url(#paint2_linear)"/>
<path d="M72.1997 80.7405C72.1897 80.7405 72.1897 80.7305 72.1797 80.7305C72.1897 80.7305 72.1997 80.7405 72.1997 80.7405Z" fill="#9FC2F6"/>
<path d="M72.1799 80.7302C71.9799 80.6102 71.6499 80.4102 71.6499 80.4102C71.8099 80.5602 71.9899 80.6602 72.1799 80.7302Z" fill="#9FC2F6"/>
<path d="M72.1997 80.7402C72.3897 80.8402 72.3497 80.8302 72.1997 80.7402V80.7402Z" fill="#9FC2F6"/>
<path d="M31.9697 22.6304C32.1697 22.7504 32.4997 22.9504 32.4997 22.9504C32.3397 22.8004 32.1597 22.6904 31.9697 22.6304Z" fill="#9FC2F6"/>
<path d="M31.9497 22.6201C31.9597 22.6201 31.9597 22.6301 31.9697 22.6301C31.9597 22.6301 31.9497 22.6201 31.9497 22.6201Z" fill="#9FC2F6"/>
<path d="M31.9497 22.6206C31.7697 22.5106 31.7997 22.5306 31.9497 22.6206V22.6206Z" fill="#9FC2F6"/>
<path d="M23.0096 71.8105C22.9096 71.9905 22.9296 71.9505 23.0096 71.8105V71.8105Z" fill="#9FC2F6"/>
<path d="M23.0098 71.8105C23.0098 71.8005 23.0198 71.8005 23.0198 71.7905C23.0198 71.8005 23.0098 71.8105 23.0098 71.8105Z" fill="#9FC2F6"/>
<path d="M23.0195 71.7903C23.1395 71.5903 23.3395 71.2603 23.3395 71.2603C23.1995 71.4103 23.0895 71.6003 23.0195 71.7903Z" fill="#9FC2F6"/>
<path d="M81.1296 31.5703C81.0096 31.7703 80.8096 32.1003 80.8096 32.1003C80.9496 31.9403 81.0596 31.7603 81.1296 31.5703Z" fill="#9FC2F6"/>
<path d="M81.1399 31.5503C81.1399 31.5603 81.1299 31.5603 81.1299 31.5703C81.1299 31.5603 81.1399 31.5503 81.1399 31.5503Z" fill="#9FC2F6"/>
<path d="M81.1396 31.5502C81.2396 31.3702 81.2196 31.4102 81.1396 31.5502V31.5502Z" fill="#9FC2F6"/>
<path d="M65.1601 40.9702C59.5901 40.9702 55.0801 45.4802 55.0801 51.0502C55.0801 52.9702 55.6101 54.7602 56.5401 56.2802V59.5202H59.7001C61.2701 60.5302 63.1401 61.1202 65.1501 61.1202C70.7201 61.1202 75.2301 56.6102 75.2301 51.0402C75.2301 45.4702 70.7201 40.9702 65.1601 40.9702Z" fill="#ED722E"/>
<path d="M65.1601 40.9702C59.5901 40.9702 55.0801 45.4802 55.0801 51.0502C55.0801 52.9702 55.6101 54.7602 56.5401 56.2802L56.4101 59.5202L72.0801 43.8502C70.3901 42.0702 67.9001 40.9702 65.1601 40.9702Z" fill="#FF7736"/>
<path d="M65.9598 51.9603C65.8498 51.8503 65.7598 51.7103 65.7098 51.5603C65.6598 51.3903 65.6298 51.2103 65.6298 51.0203C65.6298 50.8703 65.6498 50.7203 65.6798 50.5803C65.7298 50.3703 65.8598 50.1903 65.9998 50.0303C66.2398 49.7603 66.3698 49.3803 66.2898 48.9803C66.1998 48.5003 65.8198 48.1003 65.3398 48.0003C64.5398 47.8303 63.8398 48.4403 63.8398 49.2103C63.8398 49.5303 63.9598 49.8203 64.1598 50.0303C64.2998 50.1903 64.4198 50.3703 64.4798 50.5703C64.5198 50.7103 64.5298 50.8603 64.5298 51.0103C64.5298 51.2003 64.4998 51.3803 64.4498 51.5503C64.3998 51.7003 64.3098 51.8403 64.1998 51.9503C63.9298 52.2203 63.7898 52.6203 63.8598 53.0503C63.9498 53.5303 64.3298 53.9303 64.8098 54.0303C65.6098 54.2003 66.3098 53.5903 66.3098 52.8203C66.3198 52.4903 66.1798 52.1803 65.9598 51.9603Z" fill="white"/>
<path d="M69.6 51.9603C69.49 51.8503 69.4 51.7103 69.35 51.5603C69.3 51.3903 69.27 51.2103 69.27 51.0203C69.27 50.8703 69.29 50.7203 69.32 50.5803C69.37 50.3703 69.5 50.1903 69.64 50.0303C69.88 49.7603 70.01 49.3803 69.93 48.9803C69.84 48.5003 69.46 48.1003 68.98 48.0003C68.18 47.8303 67.48 48.4403 67.48 49.2103C67.48 49.5303 67.6 49.8203 67.8 50.0303C67.94 50.1903 68.06 50.3703 68.12 50.5703C68.16 50.7103 68.17 50.8603 68.17 51.0103C68.17 51.2003 68.14 51.3803 68.09 51.5503C68.04 51.7003 67.95 51.8403 67.84 51.9503C67.57 52.2203 67.43 52.6203 67.5 53.0503C67.59 53.5303 67.97 53.9303 68.45 54.0303C69.25 54.2003 69.95 53.5903 69.95 52.8203C69.96 52.4903 69.82 52.1803 69.6 51.9603Z" fill="white"/>
<path d="M62.4301 51.9603C62.3201 51.8503 62.2301 51.7103 62.1801 51.5603C62.1301 51.3903 62.1001 51.2103 62.1001 51.0203C62.1001 50.8703 62.1201 50.7203 62.1501 50.5803C62.2001 50.3703 62.3301 50.1903 62.4701 50.0303C62.7101 49.7603 62.8401 49.3803 62.7601 48.9803C62.6701 48.5003 62.2901 48.1003 61.8101 48.0003C61.0101 47.8303 60.3101 48.4403 60.3101 49.2103C60.3101 49.5303 60.4301 49.8203 60.6301 50.0303C60.7701 50.1903 60.8901 50.3703 60.9501 50.5703C60.9901 50.7103 61.0001 50.8603 61.0001 51.0103C61.0001 51.2003 60.9701 51.3803 60.9201 51.5503C60.8701 51.7003 60.7801 51.8403 60.6701 51.9503C60.4001 52.2203 60.2601 52.6203 60.3301 53.0503C60.4201 53.5303 60.8001 53.9303 61.2801 54.0303C62.0801 54.2003 62.7801 53.5903 62.7801 52.8203C62.8001 52.4903 62.6601 52.1803 62.4301 51.9603Z" fill="white"/>
<path d="M65.0798 57.5503C65.7647 57.5503 66.3198 56.9951 66.3198 56.3103C66.3198 55.6255 65.7647 55.0703 65.0798 55.0703C64.395 55.0703 63.8398 55.6255 63.8398 56.3103C63.8398 56.9951 64.395 57.5503 65.0798 57.5503Z" fill="white"/>
<path d="M65.0798 46.8804C65.7647 46.8804 66.3198 46.3252 66.3198 45.6404C66.3198 44.9556 65.7647 44.4004 65.0798 44.4004C64.395 44.4004 63.8398 44.9556 63.8398 45.6404C63.8398 46.3252 64.395 46.8804 65.0798 46.8804Z" fill="white"/>
<path d="M76.8696 54.1104H68.8496V62.1304H76.8696V54.1104Z" fill="url(#paint3_linear)"/>
<path d="M79.2794 53.8903L78.1494 52.7603L72.4894 58.4203L70.7994 56.7203L69.6694 57.8503L72.4894 60.6603L79.2794 53.8903Z" fill="#F2F1F0"/>
<path d="M52.03 44.4201C52.03 43.6901 51.44 43.1001 50.71 43.1001H30.32C29.59 43.1001 29 43.6901 29 44.4201C29 45.1501 29.59 45.7401 30.32 45.7401H50.72C51.44 45.7301 52.03 45.1501 52.03 44.4201Z" fill="url(#paint4_linear)"/>
<path d="M33.9199 44.4103C33.9199 45.8603 35.0999 47.0203 36.5299 47.0203C37.9899 47.0303 39.1499 45.8503 39.1499 44.4103C39.1499 42.9603 37.9699 41.8003 36.5399 41.8003C35.0999 41.8003 33.9199 42.9603 33.9199 44.4103Z" fill="#50E6FF"/>
<path d="M52.03 51.0803C52.03 50.3503 51.44 49.7603 50.71 49.7603H30.32C29.59 49.7603 29 50.3503 29 51.0803C29 51.8103 29.59 52.4003 30.32 52.4003H50.72C51.44 52.3903 52.03 51.8103 52.03 51.0803Z" fill="url(#paint5_linear)"/>
<path d="M41.8101 51.0704C41.8101 52.5204 42.9901 53.6804 44.4201 53.6804C45.8601 53.6804 47.0301 52.5004 47.0301 51.0704C47.0301 49.6204 45.8501 48.4604 44.4201 48.4604C42.9801 48.4604 41.8101 49.6204 41.8101 51.0704Z" fill="#32B0E7"/>
<path d="M52.03 58.1203C52.03 57.3903 51.44 56.8003 50.71 56.8003H30.32C29.59 56.8003 29 57.3903 29 58.1203C29 58.8503 29.59 59.4403 30.32 59.4403H50.72C51.44 59.4403 52.03 58.8603 52.03 58.1203Z" fill="url(#paint6_linear)"/>
<path d="M34 58.1203C34 59.5703 35.18 60.7303 36.61 60.7303C38.06 60.7303 39.22 59.5503 39.22 58.1203C39.22 56.6703 38.04 55.5103 36.61 55.5103C35.19 55.5003 34 56.6703 34 58.1203Z" fill="#185A97"/>
<defs>
<linearGradient id="paint0_linear" x1="49.7189" y1="-13.1225" x2="53.7017" y2="132.645" gradientUnits="userSpaceOnUse">
<stop stop-color="#00ABDE"/>
<stop offset="1" stop-color="#007ED8"/>
</linearGradient>
<linearGradient id="paint1_linear" x1="54.8281" y1="-71.5045" x2="49.7257" y2="156.401" gradientUnits="userSpaceOnUse">
<stop stop-color="#007ED8"/>
<stop offset="0.7065" stop-color="#002D4C"/>
</linearGradient>
<linearGradient id="paint2_linear" x1="54.8281" y1="-71.5045" x2="49.7257" y2="156.401" gradientUnits="userSpaceOnUse">
<stop stop-color="#007ED8"/>
<stop offset="0.7065" stop-color="#002D4C"/>
</linearGradient>
<linearGradient id="paint3_linear" x1="72.7758" y1="50.3999" x2="73.0841" y2="79.9965" gradientUnits="userSpaceOnUse">
<stop stop-color="#007ED8"/>
<stop offset="0.7065" stop-color="#002D4C"/>
</linearGradient>
<linearGradient id="paint4_linear" x1="41.1191" y1="61.3908" x2="40.5108" y2="44.2687" gradientUnits="userSpaceOnUse">
<stop stop-color="#D2EBFF"/>
<stop offset="1" stop-color="#F0FFFD"/>
</linearGradient>
<linearGradient id="paint5_linear" x1="40.8828" y1="61.3993" x2="40.2744" y2="44.2772" gradientUnits="userSpaceOnUse">
<stop stop-color="#D2EBFF"/>
<stop offset="1" stop-color="#F0FFFD"/>
</linearGradient>
<linearGradient id="paint6_linear" x1="40.633" y1="61.4086" x2="40.0246" y2="44.286" gradientUnits="userSpaceOnUse">
<stop stop-color="#D2EBFF"/>
<stop offset="1" stop-color="#F0FFFD"/>
</linearGradient>
</defs>
</svg>
