<svg width="106" height="106" viewBox="0 0 106 106" fill="none" xmlns="http://www.w3.org/2000/svg">
<g filter="url(#filter0_d)">
<circle cx="53" cy="53" r="49" fill="#5197D5"/>
<circle cx="53" cy="53" r="50.75" stroke="#F2F1F0" stroke-width="3.5"/>
</g>
<circle cx="53" cy="53" r="48" stroke="#0078D4" stroke-width="4"/>
<path d="M54.3197 39V20M54.3197 20L49.3197 24.1081M54.3197 20L59.3197 24.1081" stroke="white" stroke-width="2.5"/>
<path d="M41.7431 43.7624L32.7738 28.2271M32.7738 28.2271L30.5144 34.0102M32.7738 28.2271L38.9119 29.162" stroke="white" stroke-width="2.5"/>
<path d="M65.9412 40.946L78.6257 28.2616M78.6257 28.2616L72.4548 27.5759M78.6257 28.2616L79.3113 34.4324" stroke="white" stroke-width="2.5"/>
<path d="M74.3603 54.7459L89.8956 45.7766M89.8956 45.7766L84.1125 43.5172M89.8956 45.7766L88.9607 51.9146" stroke="white" stroke-width="2.5"/>
<path d="M32.9594 55.4551L17.4241 46.4859M17.4241 46.4859L18.359 52.6239M17.4241 46.4859L23.2072 44.2264" stroke="white" stroke-width="2.5"/>
<path fill-rule="evenodd" clip-rule="evenodd" d="M53.7861 83.0125C66.3709 83.0125 76.5729 72.8105 76.5729 60.2257C76.5729 47.6409 66.3709 37.4388 53.7861 37.4388C41.2013 37.4388 30.9992 47.6409 30.9992 60.2257C30.9992 64.6177 32.2418 68.7195 34.3946 72.1988V79.617H41.8127C45.292 81.7698 49.3939 83.0125 53.7861 83.0125Z" fill="#FCA11F"/>
<path fill-rule="evenodd" clip-rule="evenodd" d="M76.5729 60.2256C76.5729 72.8105 66.3709 83.0125 53.7861 83.0125C49.3939 83.0125 45.292 81.7698 41.8127 79.6169H34.3946V79.4822L69.9946 44.2094C74.0619 48.3251 76.5729 53.9821 76.5729 60.2256Z" fill="#E89619"/>
<circle cx="53.7861" cy="48.153" r="3.01812" fill="white"/>
<circle cx="53.7861" cy="72.2982" r="3.01812" fill="white"/>
<circle cx="61.935" cy="64.149" r="3.01812" fill="white"/>
<circle cx="61.935" cy="56.1512" r="3.01812" fill="white"/>
<path d="M60.7278 60.0745C60.7278 61.2277 59.4954 63.319 58.9169 64.2244H64.8777C64.3243 63.4196 63.2781 61.4629 63.2177 60.0745C63.1914 59.4689 63.389 58.7646 63.6704 58.0983C64.034 57.2372 64.5374 56.4396 64.8777 56.0001H58.9169C59.596 56.8803 60.7278 58.5655 60.7278 60.0745Z" fill="white"/>
<circle cx="45.6371" cy="64.1492" r="3.01812" fill="white"/>
<circle cx="45.6371" cy="56.1512" r="3.01812" fill="white"/>
<path d="M44.4299 60.0748C44.4299 61.228 43.952 61.3575 43.3736 62.2629L47.8253 62.1875C47.272 61.3826 46.9802 61.4631 46.9198 60.0748C46.8935 59.4691 46.9198 59.2448 47.2217 58.7921C47.5591 58.2859 47.485 58.4771 47.8253 58.0375L43.5999 58.2639C44.279 59.1442 44.4299 58.5657 44.4299 60.0748Z" fill="white"/>
<circle cx="61.935" cy="64.149" r="3.01812" fill="white"/>
<circle cx="61.935" cy="56.1512" r="3.01812" fill="white"/>
<path d="M60.7277 60.0748C60.7277 61.228 60.2499 61.3575 59.6714 62.2629L64.1231 62.1875C63.5698 61.3826 63.278 61.4631 63.2177 60.0748C63.1913 59.4691 63.2177 59.2448 63.5195 58.7921C63.8569 58.2859 63.7828 58.4771 64.1231 58.0375L59.8977 58.2639C60.5768 59.1442 60.7277 58.5657 60.7277 60.0748Z" fill="white"/>
<circle cx="53.7861" cy="64.149" r="3.01812" fill="white"/>
<circle cx="53.7861" cy="56.1512" r="3.01812" fill="white"/>
<path d="M52.5788 60.0748C52.5788 61.228 52.1009 61.3575 51.5225 62.2629L55.9742 62.1875C55.4209 61.3826 55.1291 61.4631 55.0688 60.0748C55.0424 59.4691 55.0688 59.2448 55.3706 58.7921C55.708 58.2859 55.6339 58.4771 55.9742 58.0375L51.7488 58.2639C52.4279 59.1442 52.5788 58.5657 52.5788 60.0748Z" fill="white"/>
<circle cx="53.7861" cy="64.149" r="3.01812" fill="white"/>
<circle cx="53.7861" cy="56.1512" r="3.01812" fill="white"/>
<path d="M52.5788 60.0748C52.5788 61.228 52.1009 61.3575 51.5225 62.2629L55.9742 62.1875C55.4209 61.3826 55.1291 61.4631 55.0688 60.0748C55.0424 59.4691 55.0688 59.2448 55.3706 58.7921C55.708 58.2859 55.6339 58.4771 55.9742 58.0375L51.7488 58.2639C52.4279 59.1442 52.5788 58.5657 52.5788 60.0748Z" fill="white"/>
<defs>
<filter id="filter0_d" x="0.5" y="0.5" width="105.5" height="105.5" filterUnits="userSpaceOnUse" color-interpolation-filters="sRGB">
<feFlood flood-opacity="0" result="BackgroundImageFix"/>
<feColorMatrix in="SourceAlpha" type="matrix" values="0 0 0 0 0 0 0 0 0 0 0 0 0 0 0 0 0 0 127 0"/>
<feOffset dx="0.5" dy="0.5"/>
<feColorMatrix type="matrix" values="0 0 0 0 0.823529 0 0 0 0 0.831373 0 0 0 0 0.835294 0 0 0 1 0"/>
<feBlend mode="normal" in2="BackgroundImageFix" result="effect1_dropShadow"/>
<feBlend mode="normal" in="SourceGraphic" in2="effect1_dropShadow" result="shape"/>
</filter>
</defs>
</svg>
