<?xml version="1.0" encoding="UTF-8"?>
<svg width="100px" height="100px" viewBox="0 0 100 100" version="1.1" xmlns="http://www.w3.org/2000/svg" xmlns:xlink="http://www.w3.org/1999/xlink">
    <!-- Generator: Sketch 53.2 (72643) - https://sketchapp.com -->
    <title>Use advanced data options and connectors in PowerApps/work-with-relational-data-in-a-canvas-app-in-powerapps</title>
    <desc>Created with Sketch.</desc>
    <defs>
        <rect id="path-1" x="0" y="0" width="96" height="96" rx="48"></rect>
        <filter x="-6.2%" y="-7.1%" width="112.5%" height="114.3%" filterUnits="objectBoundingBox" id="filter-3">
            <feOffset dx="0" dy="2" in="SourceAlpha" result="shadowOffsetOuter1"></feOffset>
            <feColorMatrix values="0 0 0 0 0   0 0 0 0 0   0 0 0 0 0  0 0 0 0.0964956975 0" type="matrix" in="shadowOffsetOuter1" result="shadowMatrixOuter1"></feColorMatrix>
            <feMerge>
                <feMergeNode in="shadowMatrixOuter1"></feMergeNode>
                <feMergeNode in="SourceGraphic"></feMergeNode>
            </feMerge>
        </filter>
        <filter x="-50.0%" y="-44.4%" width="200.0%" height="188.9%" filterUnits="objectBoundingBox" id="filter-4">
            <feOffset dx="0" dy="2" in="SourceAlpha" result="shadowOffsetOuter1"></feOffset>
            <feColorMatrix values="0 0 0 0 0   0 0 0 0 0   0 0 0 0 0  0 0 0 0.0964956975 0" type="matrix" in="shadowOffsetOuter1" result="shadowMatrixOuter1"></feColorMatrix>
            <feMerge>
                <feMergeNode in="shadowMatrixOuter1"></feMergeNode>
                <feMergeNode in="SourceGraphic"></feMergeNode>
            </feMerge>
        </filter>
        <filter x="-50.0%" y="-44.4%" width="200.0%" height="188.9%" filterUnits="objectBoundingBox" id="filter-5">
            <feOffset dx="0" dy="2" in="SourceAlpha" result="shadowOffsetOuter1"></feOffset>
            <feColorMatrix values="0 0 0 0 0   0 0 0 0 0   0 0 0 0 0  0 0 0 0.0964956975 0" type="matrix" in="shadowOffsetOuter1" result="shadowMatrixOuter1"></feColorMatrix>
            <feMerge>
                <feMergeNode in="shadowMatrixOuter1"></feMergeNode>
                <feMergeNode in="SourceGraphic"></feMergeNode>
            </feMerge>
        </filter>
        <filter x="-50.0%" y="-44.4%" width="200.0%" height="188.9%" filterUnits="objectBoundingBox" id="filter-6">
            <feOffset dx="0" dy="2" in="SourceAlpha" result="shadowOffsetOuter1"></feOffset>
            <feColorMatrix values="0 0 0 0 0   0 0 0 0 0   0 0 0 0 0  0 0 0 0.0964956975 0" type="matrix" in="shadowOffsetOuter1" result="shadowMatrixOuter1"></feColorMatrix>
            <feMerge>
                <feMergeNode in="shadowMatrixOuter1"></feMergeNode>
                <feMergeNode in="SourceGraphic"></feMergeNode>
            </feMerge>
        </filter>
        <filter x="-50.0%" y="-44.4%" width="200.0%" height="188.9%" filterUnits="objectBoundingBox" id="filter-7">
            <feOffset dx="0" dy="2" in="SourceAlpha" result="shadowOffsetOuter1"></feOffset>
            <feColorMatrix values="0 0 0 0 0   0 0 0 0 0   0 0 0 0 0  0 0 0 0.0964956975 0" type="matrix" in="shadowOffsetOuter1" result="shadowMatrixOuter1"></feColorMatrix>
            <feMerge>
                <feMergeNode in="shadowMatrixOuter1"></feMergeNode>
                <feMergeNode in="SourceGraphic"></feMergeNode>
            </feMerge>
        </filter>
    </defs>
    <g id="Badges" stroke="none" stroke-width="1" fill="none" fill-rule="evenodd">
        <g id="Use-advanced-data-options-and-connectors-in-PowerApps" transform="translate(-50.000000, -460.000000)">
            <g id="Use-advanced-data-options-and-connectors-in-PowerApps/work-with-relational-data-in-a-canvas-app-in-powerapps" transform="translate(50.000000, 460.000000)">
                <g id="Mask" transform="translate(2.000000, 2.000000)">
                    <mask id="mask-2" fill="white">
                        <use xlink:href="#path-1"></use>
                    </mask>
                    <use id="BG" fill="#965596" xlink:href="#path-1"></use>
                    <g id="Monitor" filter="url(#filter-3)" mask="url(#mask-2)">
                        <g transform="translate(16.000000, 23.000000)">
                            <path d="M0,36 L0,42 C0,44.2 1.8,46 4,46 L60,46 C62.2,46 64,44.2 64,42 L64,36 L0,36" id="Fill-1285" fill="#E1E4E1"></path>
                            <path d="M4,0 C1.8,0 0,1.8 0,4 L0,36 L64,36 L64,4 C64,1.8 62.2,0 60,0 L4,0 Z M60,2 C61.103,2 62,2.897 62,4 L62,34 L2,34 L2,4 C2,2.897 2.897,2 4,2 L60,2 L60,2 Z" id="Fill-1287" fill="#182A37"></path>
                            <path d="M2,4 C2,2.897 2.897,2 4,2 L60,2 C61.103,2 62,2.897 62,4 L62,34 L2,34 L2,4" id="Fill-1288" fill="#30404D"></path>
                            <path d="M4,2 L31.389,2 L21.611,34 L2,34 L2,4 C2,2.897 2.897,2 4,2" id="Fill-1289" fill="#384B58"></path>
                            <path d="M4,0 L32,0 L31.389,2 L4,2 C2.897,2 2,2.897 2,4 L2,34 L21.611,34 L21,36 L0,36 L0,4 C0,1.8 1.8,0 4,0" id="Fill-1290" fill="#30404D"></path>
                            <polyline id="Fill-1291" fill="#E1E4E1" points="40 55 24 55 26 46 38 46 40 55"></polyline>
                            <path d="M40,55 L38,46 L26,46 L25.555,48 L30,48 C31.105,48 32,48.895 32,50 L32,55 L40,55" id="Fill-1292" fill="#CDD6D8"></path>
                            <path d="M44,55 C44,55.55 43.55,56 43,56 L21,56 C20.45,56 20,55.55 20,55 C20,54.45 20.45,54 21,54 L43,54 C43.55,54 44,54.45 44,55" id="Fill-1293" fill="#E1E4E1"></path>
                            <path d="M21,56 L43,56 C43.55,56 44,55.55 44,55 L20,55 C20,55.55 20.45,56 21,56" id="Fill-1294" fill="#CDD6D8"></path>
                        </g>
                    </g>
                    <g id="Connector" mask="url(#mask-2)" fill-rule="nonzero" stroke="#FFFFFF">
                        <g transform="translate(35.000000, 35.000000)">
                            <path d="M12.5,10.8616903 L12.4518641,0.794697436" id="Path-116"></path>
                            <path d="M0.263455967,11 L0.263455967,7 C0.263455967,6.44771525 0.711171217,6 1.26345597,6 L23.6402723,6 C24.192557,6 24.6402723,6.44771525 24.6402723,7 L24.6402723,10.8686485" id="Path-117"></path>
                        </g>
                    </g>
                    <g id="Paper" filter="url(#filter-4)" mask="url(#mask-2)">
                        <g transform="translate(44.000000, 28.000000)" id="Group-2">
                            <g transform="translate(0.269231, 0.000000)">
                                <path d="M0.550193126,0 C0.247738134,0 0.000274959084,0.253125 0.000274959084,0.5625 L0.000274959084,8.4375 C0.000274959084,8.746875 0.247738134,9 0.550193126,9 L5.77441571,9 C6.07700818,9 6.32433388,8.746875 6.32433388,8.4375 L6.32433388,2.25 L4.12466121,0 L0.550193126,0" id="Fill-12" fill="#F2BE53"></path>
                                <path d="M4.67457938,2.25 L6.32433388,2.25 L4.12466121,0 L4.12466121,1.6875 C4.12466121,1.996875 4.37212439,2.25 4.67457938,2.25" id="Fill-13" fill="#EFB252"></path>
                                <path d="M4.94953846,3.9375 L1.37507038,3.9375 C1.22329296,3.9375 1.10011129,3.8115 1.10011129,3.65625 C1.10011129,3.501 1.22329296,3.375 1.37507038,3.375 L4.94953846,3.375 C5.10145336,3.375 5.22449755,3.501 5.22449755,3.65625 C5.22449755,3.8115 5.10145336,3.9375 4.94953846,3.9375" id="Fill-14" fill="#FFFFFF"></path>
                                <path d="M2.74986579,2.671875 L1.37507038,2.671875 C1.22329296,2.671875 1.10011129,2.545875 1.10011129,2.390625 C1.10011129,2.235375 1.22329296,2.109375 1.37507038,2.109375 L2.74986579,2.109375 C2.90178069,2.109375 3.02482488,2.235375 3.02482488,2.390625 C3.02482488,2.545875 2.90178069,2.671875 2.74986579,2.671875" id="Fill-15" fill="#FFFFFF"></path>
                                <path d="M2.74986579,1.546875 L1.37507038,1.546875 C1.22329296,1.546875 1.10011129,1.420875 1.10011129,1.265625 C1.10011129,1.110375 1.22329296,0.984375 1.37507038,0.984375 L2.74986579,0.984375 C2.90178069,0.984375 3.02482488,1.110375 3.02482488,1.265625 C3.02482488,1.420875 2.90178069,1.546875 2.74986579,1.546875" id="Fill-16" fill="#FFFFFF"></path>
                                <path d="M4.94953846,5.203125 L1.37507038,5.203125 C1.22329296,5.203125 1.10011129,5.077125 1.10011129,4.921875 C1.10011129,4.766625 1.22329296,4.640625 1.37507038,4.640625 L4.94953846,4.640625 C5.10145336,4.640625 5.22449755,4.766625 5.22449755,4.921875 C5.22449755,5.077125 5.10145336,5.203125 4.94953846,5.203125" id="Fill-17" fill="#FFFFFF"></path>
                                <path d="M4.94953846,6.46875 L1.37507038,6.46875 C1.22329296,6.46875 1.10011129,6.34275 1.10011129,6.1875 C1.10011129,6.03225 1.22329296,5.90625 1.37507038,5.90625 L4.94953846,5.90625 C5.10145336,5.90625 5.22449755,6.03225 5.22449755,6.1875 C5.22449755,6.34275 5.10145336,6.46875 4.94953846,6.46875" id="Fill-18" fill="#FFFFFF"></path>
                                <path d="M4.94953846,7.734375 L1.37507038,7.734375 C1.22329296,7.734375 1.10011129,7.608375 1.10011129,7.453125 C1.10011129,7.297875 1.22329296,7.171875 1.37507038,7.171875 L4.94953846,7.171875 C5.10145336,7.171875 5.22449755,7.297875 5.22449755,7.453125 C5.22449755,7.608375 5.10145336,7.734375 4.94953846,7.734375" id="Fill-19" fill="#FFFFFF"></path>
                                <polyline id="Fill-20" fill="#FAD281" points="6.32433388 3.9375 4.67457938 2.25 6.32433388 2.25 6.32433388 3.9375"></polyline>
                            </g>
                        </g>
                    </g>
                    <g id="Data-Sheet" filter="url(#filter-5)" mask="url(#mask-2)">
                        <g transform="translate(32.000000, 45.000000)" id="Group-2">
                            <g transform="translate(0.269231, 0.000000)">
                                <path d="M0.550193126,0 C0.247738134,0 0.000274959084,0.253125 0.000274959084,0.5625 L0.000274959084,8.4375 C0.000274959084,8.746875 0.247738134,9 0.550193126,9 L5.77441571,9 C6.07700818,9 6.32433388,8.746875 6.32433388,8.4375 L6.32433388,2.25 L4.12466121,0 L0.550193126,0" id="Fill-12" fill="#55B7D9"></path>
                                <path d="M4.67457938,2.25 L6.32433388,2.25 L4.12466121,0 L4.12466121,1.6875 C4.12466121,1.996875 4.37212439,2.25 4.67457938,2.25" id="Fill-13" fill="#0095B2"></path>
                                <path d="M4.94953846,3.9375 L1.37507038,3.9375 C1.22329296,3.9375 1.10011129,3.8115 1.10011129,3.65625 C1.10011129,3.501 1.22329296,3.375 1.37507038,3.375 L4.94953846,3.375 C5.10145336,3.375 5.22449755,3.501 5.22449755,3.65625 C5.22449755,3.8115 5.10145336,3.9375 4.94953846,3.9375" id="Fill-14" fill="#FFFFFF"></path>
                                <path d="M1.37507038,2.671875 C1.22329296,2.671875 1.10011129,2.545875 1.10011129,2.390625 C1.10011129,2.235375 1.22329296,2.109375 1.37507038,2.109375 L2.74986579,2.109375 C2.90178069,2.109375 3.02482488,2.235375 3.02482488,2.390625 C3.02482488,2.545875 2.90178069,2.671875 2.74986579,2.671875 L1.37507038,2.671875 Z" id="Fill-15" fill="#FFFFFF"></path>
                                <path d="M2.74986579,1.546875 L1.37507038,1.546875 C1.22329296,1.546875 1.10011129,1.420875 1.10011129,1.265625 C1.10011129,1.110375 1.22329296,0.984375 1.37507038,0.984375 L2.74986579,0.984375 C2.90178069,0.984375 3.02482488,1.110375 3.02482488,1.265625 C3.02482488,1.420875 2.90178069,1.546875 2.74986579,1.546875" id="Fill-16" fill="#FFFFFF"></path>
                                <path d="M4.94953846,5.203125 L1.37507038,5.203125 C1.22329296,5.203125 1.10011129,5.077125 1.10011129,4.921875 C1.10011129,4.766625 1.22329296,4.640625 1.37507038,4.640625 L4.94953846,4.640625 C5.10145336,4.640625 5.22449755,4.766625 5.22449755,4.921875 C5.22449755,5.077125 5.10145336,5.203125 4.94953846,5.203125" id="Fill-17" fill="#FFFFFF"></path>
                                <path d="M4.94953846,6.46875 L1.37507038,6.46875 C1.22329296,6.46875 1.10011129,6.34275 1.10011129,6.1875 C1.10011129,6.03225 1.22329296,5.90625 1.37507038,5.90625 L4.94953846,5.90625 C5.10145336,5.90625 5.22449755,6.03225 5.22449755,6.1875 C5.22449755,6.34275 5.10145336,6.46875 4.94953846,6.46875" id="Fill-18" fill="#FFFFFF"></path>
                                <path d="M4.94953846,7.734375 L1.37507038,7.734375 C1.22329296,7.734375 1.10011129,7.608375 1.10011129,7.453125 C1.10011129,7.297875 1.22329296,7.171875 1.37507038,7.171875 L4.94953846,7.171875 C5.10145336,7.171875 5.22449755,7.297875 5.22449755,7.453125 C5.22449755,7.608375 5.10145336,7.734375 4.94953846,7.734375" id="Fill-19" fill="#FFFFFF"></path>
                                <polyline id="Fill-20" fill="#33A7CB" points="6.32433388 3.9375 4.67457938 2.25 6.32433388 2.25 6.32433388 3.9375"></polyline>
                            </g>
                        </g>
                    </g>
                    <g id="Data-Sheet" filter="url(#filter-6)" mask="url(#mask-2)">
                        <g transform="translate(44.000000, 45.000000)" id="Group-2">
                            <g transform="translate(0.269231, 0.000000)">
                                <path d="M0.550193126,0 C0.247738134,0 0.000274959084,0.253125 0.000274959084,0.5625 L0.000274959084,8.4375 C0.000274959084,8.746875 0.247738134,9 0.550193126,9 L5.77441571,9 C6.07700818,9 6.32433388,8.746875 6.32433388,8.4375 L6.32433388,2.25 L4.12466121,0 L0.550193126,0" id="Fill-12" fill="#C2423D"></path>
                                <path d="M4.67457938,2.25 L6.32433388,2.25 L4.12466121,0 L4.12466121,1.6875 C4.12466121,1.996875 4.37212439,2.25 4.67457938,2.25" id="Fill-13" fill="#AB3B37"></path>
                                <path d="M4.94953846,3.9375 L1.37507038,3.9375 C1.22329296,3.9375 1.10011129,3.8115 1.10011129,3.65625 C1.10011129,3.501 1.22329296,3.375 1.37507038,3.375 L4.94953846,3.375 C5.10145336,3.375 5.22449755,3.501 5.22449755,3.65625 C5.22449755,3.8115 5.10145336,3.9375 4.94953846,3.9375" id="Fill-14" fill="#FFFFFF"></path>
                                <path d="M2.74986579,2.671875 L1.37507038,2.671875 C1.22329296,2.671875 1.10011129,2.545875 1.10011129,2.390625 C1.10011129,2.235375 1.22329296,2.109375 1.37507038,2.109375 L2.74986579,2.109375 C2.90178069,2.109375 3.02482488,2.235375 3.02482488,2.390625 C3.02482488,2.545875 2.90178069,2.671875 2.74986579,2.671875" id="Fill-15" fill="#FFFFFF"></path>
                                <path d="M2.74986579,1.546875 L1.37507038,1.546875 C1.22329296,1.546875 1.10011129,1.420875 1.10011129,1.265625 C1.10011129,1.110375 1.22329296,0.984375 1.37507038,0.984375 L2.74986579,0.984375 C2.90178069,0.984375 3.02482488,1.110375 3.02482488,1.265625 C3.02482488,1.420875 2.90178069,1.546875 2.74986579,1.546875" id="Fill-16" fill="#FFFFFF"></path>
                                <path d="M4.94953846,5.203125 L1.37507038,5.203125 C1.22329296,5.203125 1.10011129,5.077125 1.10011129,4.921875 C1.10011129,4.766625 1.22329296,4.640625 1.37507038,4.640625 L4.94953846,4.640625 C5.10145336,4.640625 5.22449755,4.766625 5.22449755,4.921875 C5.22449755,5.077125 5.10145336,5.203125 4.94953846,5.203125" id="Fill-17" fill="#FFFFFF"></path>
                                <path d="M4.94953846,6.46875 L1.37507038,6.46875 C1.22329296,6.46875 1.10011129,6.34275 1.10011129,6.1875 C1.10011129,6.03225 1.22329296,5.90625 1.37507038,5.90625 L4.94953846,5.90625 C5.10145336,5.90625 5.22449755,6.03225 5.22449755,6.1875 C5.22449755,6.34275 5.10145336,6.46875 4.94953846,6.46875" id="Fill-18" fill="#FFFFFF"></path>
                                <path d="M4.94953846,7.734375 L1.37507038,7.734375 C1.22329296,7.734375 1.10011129,7.608375 1.10011129,7.453125 C1.10011129,7.297875 1.22329296,7.171875 1.37507038,7.171875 L4.94953846,7.171875 C5.10145336,7.171875 5.22449755,7.297875 5.22449755,7.453125 C5.22449755,7.608375 5.10145336,7.734375 4.94953846,7.734375" id="Fill-19" fill="#FFFFFF"></path>
                                <polyline id="Fill-20" fill="#DF5142" points="6.32433388 3.9375 4.67457938 2.25 6.32433388 2.25 6.32433388 3.9375"></polyline>
                            </g>
                        </g>
                    </g>
                    <g id="Data-Sheet" filter="url(#filter-7)" mask="url(#mask-2)">
                        <g transform="translate(56.000000, 45.000000)" id="Group-2">
                            <g transform="translate(0.269231, 0.000000)">
                                <path d="M0.000274959084,0.5625 L0.000274959084,8.4375 C0.000274959084,8.746875 0.247738134,9 0.550193126,9 L5.77441571,9 C6.07700818,9 6.32433388,8.746875 6.32433388,8.4375 L6.32433388,2.25 L4.12466121,0 L0.550193126,0 C0.247738134,0 0.000274959084,0.253125 0.000274959084,0.5625 Z" id="Fill-12" fill="#69994E"></path>
                                <path d="M4.67457938,2.25 L6.32433388,2.25 L4.12466121,0 L4.12466121,1.6875 C4.12466121,1.996875 4.37212439,2.25 4.67457938,2.25" id="Fill-13" fill="#598844"></path>
                                <path d="M4.94953846,3.9375 L1.37507038,3.9375 C1.22329296,3.9375 1.10011129,3.8115 1.10011129,3.65625 C1.10011129,3.501 1.22329296,3.375 1.37507038,3.375 L4.94953846,3.375 C5.10145336,3.375 5.22449755,3.501 5.22449755,3.65625 C5.22449755,3.8115 5.10145336,3.9375 4.94953846,3.9375" id="Fill-14" fill="#FFFFFF"></path>
                                <path d="M2.74986579,2.671875 L1.37507038,2.671875 C1.22329296,2.671875 1.10011129,2.545875 1.10011129,2.390625 C1.10011129,2.235375 1.22329296,2.109375 1.37507038,2.109375 L2.74986579,2.109375 C2.90178069,2.109375 3.02482488,2.235375 3.02482488,2.390625 C3.02482488,2.545875 2.90178069,2.671875 2.74986579,2.671875" id="Fill-15" fill="#FFFFFF"></path>
                                <path d="M2.74986579,1.546875 L1.37507038,1.546875 C1.22329296,1.546875 1.10011129,1.420875 1.10011129,1.265625 C1.10011129,1.110375 1.22329296,0.984375 1.37507038,0.984375 L2.74986579,0.984375 C2.90178069,0.984375 3.02482488,1.110375 3.02482488,1.265625 C3.02482488,1.420875 2.90178069,1.546875 2.74986579,1.546875" id="Fill-16" fill="#FFFFFF"></path>
                                <path d="M4.94953846,5.203125 L1.37507038,5.203125 C1.22329296,5.203125 1.10011129,5.077125 1.10011129,4.921875 C1.10011129,4.766625 1.22329296,4.640625 1.37507038,4.640625 L4.94953846,4.640625 C5.10145336,4.640625 5.22449755,4.766625 5.22449755,4.921875 C5.22449755,5.077125 5.10145336,5.203125 4.94953846,5.203125" id="Fill-17" fill="#FFFFFF"></path>
                                <path d="M4.94953846,6.46875 L1.37507038,6.46875 C1.22329296,6.46875 1.10011129,6.34275 1.10011129,6.1875 C1.10011129,6.03225 1.22329296,5.90625 1.37507038,5.90625 L4.94953846,5.90625 C5.10145336,5.90625 5.22449755,6.03225 5.22449755,6.1875 C5.22449755,6.34275 5.10145336,6.46875 4.94953846,6.46875" id="Fill-18" fill="#FFFFFF"></path>
                                <path d="M4.94953846,7.734375 L1.37507038,7.734375 C1.22329296,7.734375 1.10011129,7.608375 1.10011129,7.453125 C1.10011129,7.297875 1.22329296,7.171875 1.37507038,7.171875 L4.94953846,7.171875 C5.10145336,7.171875 5.22449755,7.297875 5.22449755,7.453125 C5.22449755,7.608375 5.10145336,7.734375 4.94953846,7.734375" id="Fill-19" fill="#FFFFFF"></path>
                                <polyline id="Fill-20" fill="#7CB65A" points="6.32433388 3.9375 4.67457938 2.25 6.32433388 2.25 6.32433388 3.9375"></polyline>
                            </g>
                        </g>
                    </g>
                </g>
                <g id="PowerApps-Border" stroke="#742774" stroke-width="4">
                    <rect id="Azure-Border" x="2" y="2" width="96" height="96" rx="48"></rect>
                </g>
            </g>
        </g>
    </g>
</svg>