<?xml version="1.0" encoding="UTF-8"?>
<svg width="100px" height="118px" viewBox="0 0 100 118" version="1.1" xmlns="http://www.w3.org/2000/svg" xmlns:xlink="http://www.w3.org/1999/xlink">
    <!-- Generator: Sketch 53.2 (72643) - https://sketchapp.com -->
    <title>Work with data in a canvas app in PowerApps/work-with-data-in-a-canvas-app-in-powerapps</title>
    <desc>Created with Sketch.</desc>
    <defs>
        <path d="M42.7425,1.49663266 C44.3745,0.498877554 46.1865,0 48,0 C49.8135,0 51.627,0.498877554 53.256,1.49663266 L90.591,24.3316189 C93.933,26.3773408 96,30.2031485 96,34.3529027 L96,79.6470973 C96,83.7952317 93.933,87.6242789 90.591,89.6683811 L53.256,112.504987 C51.627,113.501122 49.8135,114 48,114 C46.1865,114 44.3745,113.501122 42.7425,112.504987 L5.409,89.6683811 C2.0655,87.6242789 0,83.7952317 0,79.6470973 L0,34.3529027 C0,30.2031485 2.0655,26.3773408 5.409,24.3316189 L42.7425,1.49663266 Z" id="path-1"></path>
        <filter x="-6.3%" y="-7.5%" width="112.7%" height="115.1%" filterUnits="objectBoundingBox" id="filter-3">
            <feOffset dx="0" dy="2" in="SourceAlpha" result="shadowOffsetOuter1"></feOffset>
            <feColorMatrix values="0 0 0 0 0   0 0 0 0 0   0 0 0 0 0  0 0 0 0.0982223732 0" type="matrix" in="shadowOffsetOuter1" result="shadowMatrixOuter1"></feColorMatrix>
            <feMerge>
                <feMergeNode in="shadowMatrixOuter1"></feMergeNode>
                <feMergeNode in="SourceGraphic"></feMergeNode>
            </feMerge>
        </filter>
        <path d="M17.9375,14.3485209 C17.9375,16.7034584 16.0211771,18.6193542 13.6666667,18.6193542 C11.3117292,18.6193542 9.39583333,16.7034584 9.39583333,14.3485209 C9.39583333,11.9935834 11.3117292,10.0776876 13.6666667,10.0776876 C16.0211771,10.0776876 17.9375,11.9935834 17.9375,14.3485209 Z M23.8444896,11.6066459 C23.6817708,11.5707709 23.4285104,11.3401459 23.3776875,11.1812709 C23.3712812,11.1594896 23.3631667,11.1381355 23.3541979,11.1172084 L22.80625,9.78556255 C22.7968542,9.76250005 22.7861771,9.73943755 22.7746458,9.71722922 C22.6977708,9.56988547 22.7127187,9.23035422 22.8019792,9.09069797 L23.8944583,7.37382297 C24.3578437,6.64564589 24.2425312,5.5971563 23.6326562,4.98685422 L23.0283333,4.3825313 C22.4325521,3.78632297 21.3541667,3.66716672 20.6413646,4.12072922 L18.9240625,5.2127813 C18.8668333,5.24993755 18.7314479,5.2896563 18.5708646,5.2896563 C18.4393229,5.2896563 18.3415208,5.26317714 18.2979583,5.24054172 C18.2761771,5.22858339 18.2526875,5.21833339 18.2291979,5.20893755 L16.8979792,4.66056255 C16.8770521,4.65202089 16.8556979,4.6439063 16.8339167,4.63750005 C16.6754687,4.58667714 16.4444167,4.33341672 16.4085417,4.17027089 L15.9673646,2.18476047 C15.779875,1.34212505 14.9568854,0.681854219 14.09375,0.681854219 L13.2395833,0.681854219 C12.3760208,0.681854219 11.5534583,1.34212505 11.3663958,2.18433339 L10.9247917,4.17112505 C10.8884896,4.33341672 10.6578646,4.58667714 10.4994167,4.63750005 C10.4776354,4.6439063 10.4562812,4.65202089 10.4349271,4.66056255 L9.10370833,5.20893755 C9.08021875,5.21833339 9.05715625,5.22858339 9.03494792,5.24054172 C8.9918125,5.26317714 8.89401042,5.2896563 8.76204167,5.2896563 C8.60145833,5.2896563 8.46607292,5.24951047 8.40841667,5.2127813 L6.69196875,4.1211563 C5.97916667,3.6675938 4.90035417,3.78717714 4.305,4.38295839 L3.70067708,4.98685422 C3.090375,5.59758339 2.97548958,6.64607297 3.438875,7.37425005 L4.53135417,9.09069797 C4.6201875,9.2307813 4.63513542,9.56945839 4.5586875,9.71680214 C4.54715625,9.73943755 4.53605208,9.76250005 4.52665625,9.78556255 L3.97870833,11.1172084 C3.97016667,11.1381355 3.96205208,11.1594896 3.95521875,11.1812709 C3.90439583,11.3401459 3.6515625,11.5707709 3.48841667,11.607073 L1.50290625,12.047823 C0.660270833,12.2353126 -1.13686838e-13,13.0578751 -1.13686838e-13,13.9214376 L-1.13686838e-13,14.7756042 C-1.13686838e-13,15.6387396 0.660270833,16.4617292 1.50247917,16.6487917 L3.48884375,17.0899688 C3.6515625,17.1262709 3.90439583,17.3568959 3.95521875,17.5157709 C3.96205208,17.5375521 3.97016667,17.5589063 3.97870833,17.5798334 L4.52665625,18.9114792 C4.53605208,18.9345417 4.54672917,18.9571771 4.5586875,18.9798126 C4.63513542,19.1267292 4.6201875,19.4662605 4.53092708,19.6063438 L3.438875,21.3227917 C2.9750625,22.0509688 3.090375,23.0998855 3.70067708,23.7101876 L4.305,24.3145105 C4.89992708,24.9090105 5.97745833,25.0303021 6.69239583,24.5763126 L8.40798958,23.4842605 C8.46607292,23.4471042 8.60145833,23.4073855 8.76204167,23.4073855 C8.89401042,23.4073855 8.9918125,23.4334376 9.03494792,23.4565001 C9.05758333,23.4676042 9.08021875,23.4787084 9.10370833,23.4881042 L10.4349271,24.0364792 C10.4562812,24.0450209 10.4776354,24.0527084 10.4994167,24.0595417 C10.6578646,24.1103646 10.8884896,24.3636251 10.9247917,24.5263438 L11.3663958,26.5122813 C11.5534583,27.3549167 12.3760208,28.0151876 13.2395833,28.0151876 L14.09375,28.0151876 C14.9568854,28.0151876 15.7794479,27.3549167 15.9669375,26.5122813 L16.4085417,24.5263438 C16.4444167,24.3636251 16.6754687,24.1103646 16.8339167,24.0595417 C16.8556979,24.0527084 16.8770521,24.0450209 16.8979792,24.0364792 L18.2291979,23.4881042 C18.2526875,23.4787084 18.27575,23.4676042 18.2979583,23.4565001 C18.3415208,23.4334376 18.4393229,23.4073855 18.5704375,23.4073855 C18.7310208,23.4073855 18.8668333,23.4471042 18.9240625,23.4842605 L20.6409375,24.5758855 C21.3533125,25.0303021 22.4325521,24.9098646 23.0283333,24.3145105 L23.6322292,23.7106146 C24.2425312,23.1003126 24.3578437,22.0513959 23.8944583,21.3227917 L22.8019792,19.6063438 C22.7127187,19.4662605 22.6977708,19.1271563 22.7746458,18.9802396 C22.7861771,18.9576042 22.7968542,18.9349688 22.80625,18.9119063 L23.3541979,17.5798334 C23.3631667,17.5589063 23.3712812,17.5375521 23.3776875,17.5157709 C23.4285104,17.3568959 23.6817708,17.1262709 23.8449167,17.0899688 L25.83,16.6487917 C26.6730625,16.4617292 27.3333333,15.6387396 27.3333333,14.7756042 L27.3333333,13.9214376 C27.3333333,13.0578751 26.6730625,12.2353126 25.8304271,12.0482501 L23.8444896,11.6066459 Z" id="path-4"></path>
        <filter x="-3.7%" y="-3.7%" width="107.3%" height="114.6%" filterUnits="objectBoundingBox" id="filter-5">
            <feOffset dx="0" dy="2" in="SourceAlpha" result="shadowOffsetOuter1"></feOffset>
            <feColorMatrix values="0 0 0 0 0   0 0 0 0 0   0 0 0 0 0  0 0 0 0.1 0" type="matrix" in="shadowOffsetOuter1"></feColorMatrix>
        </filter>
        <path d="M0.415833333,10.5 C2.71833333,10.5 4.58333333,8.262 4.58333333,5.5 L4.58333333,5.5 C4.58333333,2.738 2.71833333,0.5 0.415833333,0.5 L0.415833333,0.5 L0.415833333,10.5 Z" id="path-6"></path>
    </defs>
    <g id="Badges" stroke="none" stroke-width="1" fill="none" fill-rule="evenodd">
        <g id="Work-with-data-in-a-canvas-app-in-PowerApps" transform="translate(-50.000000, -50.000000)">
            <g id="Work-with-data-in-a-canvas-app-in-PowerApps/work-with-data-in-a-canvas-app-in-powerapps" transform="translate(50.000000, 50.000000)">
                <g id="Mask" transform="translate(2.000000, 2.000000)">
                    <mask id="mask-2" fill="white">
                        <use xlink:href="#path-1"></use>
                    </mask>
                    <use id="Trophy-1" fill="#965596" xlink:href="#path-1"></use>
                    <g id="Browser-Stats" mask="url(#mask-2)">
                        <g transform="translate(16.000000, 30.000000)" id="Browser">
                            <g transform="translate(0.000000, 0.918076)">
                                <g filter="url(#filter-3)">
                                    <path d="M3.91684814,52.7778689 C1.76258166,52.7778689 0,51.0186066 0,48.8683972 L0,3.90947177 C0,1.7592623 1.76258166,0 3.91684814,0 L58.752722,0 C60.9069885,0 62.6695702,1.7592623 62.6695702,3.90947177 L62.6695702,48.8683972 C62.6695702,51.0186066 60.9069885,52.7778689 58.752722,52.7778689 L3.91684814,52.7778689" id="Fill-1485" fill="#30404D"></path>
                                    <path d="M4.89606017,49.8457651 C3.81892693,49.8457651 2.9376361,48.966134 2.9376361,47.8910292 L2.9376361,10.7510474 C2.9376361,9.67594264 3.81892693,8.79631149 4.89606017,8.79631149 L57.77351,8.79631149 C58.8506432,8.79631149 59.7319341,9.67594264 59.7319341,10.7510474 L59.7319341,47.8910292 C59.7319341,48.966134 58.8506432,49.8457651 57.77351,49.8457651 L4.89606017,49.8457651" id="Fill-1486" fill="#E1E4E1"></path>
                                    <path d="M3.91684814,4.39815575 C3.91684814,3.58791772 4.57487862,2.93210383 5.38566619,2.93210383 C6.19743296,2.93210383 6.85448424,3.58791772 6.85448424,4.39815575 C6.85448424,5.2074164 6.19743296,5.86420766 5.38566619,5.86420766 C4.57487862,5.86420766 3.91684814,5.2074164 3.91684814,4.39815575" id="Fill-1487" fill="#DF5142"></path>
                                    <path d="M9.79212034,4.39815575 C9.79212034,3.58791772 10.4501508,2.93210383 11.2609384,2.93210383 C12.0727052,2.93210383 12.7297564,3.58791772 12.7297564,4.39815575 C12.7297564,5.2074164 12.0727052,5.86420766 11.2609384,5.86420766 C10.4501508,5.86420766 9.79212034,5.2074164 9.79212034,4.39815575" id="Fill-1488" fill="#EFB252"></path>
                                    <path d="M15.6673925,4.39815575 C15.6673925,3.58791772 16.325423,2.93210383 17.1362106,2.93210383 C17.9479774,2.93210383 18.6050286,3.58791772 18.6050286,4.39815575 C18.6050286,5.2074164 17.9479774,5.86420766 17.1362106,5.86420766 C16.325423,5.86420766 15.6673925,5.2074164 15.6673925,4.39815575" id="Fill-1489" fill="#7CB65A"></path>
                                    <path d="M58.263116,5.86420766 L24.9699069,5.86420766 C24.1591193,5.86420766 23.5010888,5.2074164 23.5010888,4.39815575 C23.5010888,3.58889509 24.1591193,2.93210383 24.9699069,2.93210383 L58.263116,2.93210383 C59.0739036,2.93210383 59.7319341,3.58889509 59.7319341,4.39815575 C59.7319341,5.2074164 59.0739036,5.86420766 58.263116,5.86420766" id="Fill-1490" fill="#697D85"></path>
                                </g>
                            </g>
                        </g>
                    </g>
                    <g id="Analytics" mask="url(#mask-2)">
                        <g transform="translate(28.000000, 47.000000)">
                            <path d="M20,9 L20,25.32 C20,25.69536 21.3414286,26 23,26 C24.6585714,26 26,25.69536 26,25.32 L26,9 L20,9 L25.1162126,22.8200714" id="Fill-878" fill="#69994E"></path>
                            <path d="M10,12 L10,25.2631579 C10,25.6698947 11.5675,26 13.5,26 C15.4335,26 17,25.6698947 17,25.2631579 L17,12 L10,12" id="Fill-879" fill="#C2423D"></path>
                            <path d="M0,2 L0,25.2258065 C0,25.6531613 1.5675,26 3.5,26 C5.4325,26 7,25.6531613 7,25.2258065 L7,2 L0,2" id="Fill-880" fill="#33A7CB"></path>
                            <path d="M3,3 L3,26 C5.20857143,26 7,25.6676129 7,25.2580645 L7,3 L3,3" id="Fill-881" fill="#0095B2"></path>
                            <path d="M13,26 C15.2085714,26 17,25.6698947 17,25.2631579 L17,12 L13,12 L13,26 Z" id="Fill-882" fill="#AB3B37"></path>
                            <path d="M23,9 L23,26 C25.2114286,26 27,25.69536 27,25.32 L27,9 L23,9" id="Fill-883" fill="#598844"></path>
                            <path d="M27,9 C27,10.104 25.435,11 23.5,11 C21.565,11 20,10.104 20,9 C20,7.895 21.565,7 23.5,7 C25.435,7 27,7.895 27,9" id="Fill-884" fill="#7CB65A"></path>
                            <path d="M17,12 C17,13.104 15.4335,14 13.5,14 C11.5675,14 10,13.104 10,12 C10,10.895 11.5675,10 13.5,10 C15.4335,10 17,10.895 17,12" id="Fill-885" fill="#DF5142"></path>
                            <path d="M7,2 C7,3.104 5.4325,4 3.5,4 C1.5675,4 0,3.104 0,2 C0,0.895 1.5675,0 3.5,0 C5.4325,0 7,0.895 7,2" id="Fill-886" fill="#55B7D9"></path>
                            <path d="M30,4 L30,25.2903226 C30,25.6820645 31.5675,26 33.5,26 C35.4325,26 37,25.6820645 37,25.2903226 L37,4 L30,4" id="Fill-880" fill="#F2BE53"></path>
                            <path d="M33,5 L33,26 C35.2085714,26 37,25.6965161 37,25.3225806 L37,5 L33,5" id="Fill-881" fill="#EFB252"></path>
                            <path d="M37,4 C37,5.104 35.4325,6 33.5,6 C31.5675,6 30,5.104 30,4 C30,2.895 31.5675,2 33.5,2 C35.4325,2 37,2.895 37,4" id="Fill-886" fill="#FAD281"></path>
                        </g>
                    </g>
                    <g id="Gear" mask="url(#mask-2)">
                        <g transform="translate(55.000000, 56.000000)">
                            <g id="Group-10" stroke-width="1" fill="none" fill-rule="evenodd" transform="translate(20.017856, 20.017856) rotate(-45.000000) translate(-20.017856, -20.017856) translate(5.863094, 5.863094)">
                                <path d="M16.6875,14.3485209 C16.6875,12.684106 15.3309879,11.3276876 13.6666667,11.3276876 C12.0020851,11.3276876 10.6458333,12.6839393 10.6458333,14.3485209 C10.6458333,16.0131024 12.0020851,17.3693542 13.6666667,17.3693542 C15.3309879,17.3693542 16.6875,16.0129357 16.6875,14.3485209 Z M17.750359,6.36358988 C17.7522009,6.36441337 17.7531653,6.3648056 17.7530928,6.36471605 L17.7503584,6.36358963 Z M5.67581982,10.2777436 C5.67471391,10.2799033 5.67360292,10.2820586 5.67248687,10.2842094 C5.67154289,10.2864453 5.67154289,10.2864453 5.68261901,10.2612201 L5.67581982,10.2777436 Z M26.1015719,10.8280121 C27.5162353,11.1421886 28.5833333,12.4720887 28.5833333,13.9214376 L28.5833333,14.7756042 C28.5833333,16.224871 27.515838,17.5551312 26.1011909,17.8690194 L24.4344937,18.2394363 L24.0337478,19.2136442 L24.9492134,20.6519774 C25.7268916,21.87476 25.540668,23.5699428 24.5161126,24.5944981 L23.9118998,25.1987108 C22.9009692,26.2089168 21.1747237,26.3990441 19.9702507,25.6307216 L18.5311175,24.7156348 L17.5578289,25.1165609 L17.1870985,26.7837718 C16.8723936,28.1981519 15.5426544,29.2651876 14.09375,29.2651876 L13.2395833,29.2651876 C11.7901513,29.2651876 10.4601817,28.197967 10.1461991,26.7836111 L9.77554689,25.1167505 L8.80157365,24.7154849 L7.36247018,25.6315378 C6.15471048,26.3984724 4.43138344,26.2079357 3.42111652,25.1983939 L2.81679361,24.594071 C1.79203233,23.5693098 1.60594848,21.8736918 2.38423331,20.6517992 L3.29927487,19.2135705 L2.89837801,18.2392846 L1.23144713,17.8690547 C-0.182843075,17.5549273 -1.25,16.2245636 -1.25,14.7756042 L-1.25,13.9214376 C-1.25,12.4722115 -0.183067158,11.1423898 1.23202111,10.8275274 L2.89843427,10.4576118 L3.29941918,9.48313624 L2.38429814,8.04534442 C1.60642183,6.82296736 1.79221784,5.12826339 2.8171061,4.10265836 L3.42079966,3.49939188 C4.43084768,2.4886193 6.15635375,2.29873921 7.3627744,3.06639577 L8.80163229,3.98147967 L9.77560509,3.58031808 L10.1461329,1.91330135 C10.4602837,0.498905536 11.790305,-0.568145781 13.2395833,-0.568145781 L14.09375,-0.568145781 C15.5426571,-0.568145781 16.8728213,0.498892778 17.1876046,1.91362519 L17.5579901,3.58055113 L18.5309818,3.98141233 L19.9703111,3.06612634 C21.1771074,2.29823082 22.9021656,2.48787242 23.9122168,3.49864783 L24.516849,4.10328017 C25.540797,5.12794517 25.7268291,6.82266984 24.9490568,8.04488338 L24.0336294,9.48351047 L24.434198,10.4572456 L26.1015719,10.8280121 Z M26.1015719,10.8280121 L26.1017569,10.8280533 L26.1013282,10.827958 C26.1014094,10.8279761 26.1014906,10.8279941 26.1015719,10.8280121 Z" id="Fill-376" stroke="#965596" stroke-width="2.5"></path>
                                <g id="Fill-376">
                                    <use fill="black" fill-opacity="1" filter="url(#filter-5)" xlink:href="#path-4"></use>
                                    <use fill="#ADBDC4" fill-rule="evenodd" xlink:href="#path-4"></use>
                                </g>
                                <path d="M8.44668911,23.5836868 C8.50501715,23.5463747 8.64097295,23.5064893 8.80223281,23.5064893 C8.93475755,23.5064893 9.03297167,23.5326507 9.07628882,23.5558099 C9.09901959,23.5669607 9.12175037,23.5781114 9.14533892,23.5875467 L10.4821661,24.1382219 C10.5036102,24.1467994 10.5250543,24.1545191 10.5469274,24.1613811 C10.7060428,24.2124172 10.9376394,24.46674 10.9740945,24.6301412 L11.4175591,26.624409 C11.6054097,27.4705789 12.4314376,28.1336193 13.2986383,28.1336193 L14.1564036,28.1336193 C15.0231754,28.1336193 15.8492033,27.4705789 16.0374828,26.624409 L16.4809474,24.6301412 C16.5169736,24.46674 16.7489991,24.2124172 16.9081145,24.1613811 C16.9299875,24.1545191 16.9514317,24.1467994 16.9724469,24.1382219 L18.3092741,23.5875467 C18.3328626,23.5781114 18.3560223,23.5669607 18.3783242,23.5558099 C18.4220702,23.5326507 18.5202843,23.5064893 18.6519513,23.5064893 C18.8132112,23.5064893 18.9495958,23.5463747 19.0070661,23.5836868 L20.7311743,24.6798907 C21.4465505,25.1362135 22.5303369,25.0152708 23.1286282,24.4174194 L23.7350682,23.8109904 C24.3479415,23.1981284 24.4637398,22.1448119 23.9984022,21.4131515 L22.9013204,19.6895038 C22.8116839,19.5488329 22.796673,19.2083063 22.8738719,19.0607734 C22.8854517,19.038043 22.8961738,19.0153126 22.9056092,18.9921534 L23.4558656,17.654493 C23.4648722,17.6334781 23.4730209,17.6120344 23.4794542,17.5901617 C23.5304912,17.4306203 23.7848186,17.199028 23.9486518,17.1625736 L25.9420982,16.7195459 C26.7887126,16.5316988 27.4517651,15.7052571 27.4517651,14.8385012 L27.4517651,13.9807516 C27.4517651,13.1135668 26.7887126,12.287554 25.9425271,12.0997068 L23.9482229,11.6562503 C23.7848186,11.6202248 23.5304912,11.3886324 23.4794542,11.229091 C23.4730209,11.2072184 23.4648722,11.1857747 23.4558656,11.1647598 L22.9056092,9.82752825 C22.8961738,9.80436901 22.8854517,9.78120977 22.8738719,9.75890828 C22.796673,9.61094649 22.8116839,9.26999104 22.9013204,9.12974898 L23.9984022,7.40567237 C24.4637398,6.67444087 24.3011231,5.66837174 23.6886787,5.05550968 L23.1219998,4.4888364 L16.5707101,11.0401261 C17.3474165,11.8168184 18.0163472,13.2272186 18.0163472,14.4096264 C18.0163472,16.7744419 16.0919509,18.6983742 13.7275209,18.6983742 C12.5450915,18.6983742 11.2598865,17.9039195 10.4831801,17.1276561 L3.75991527,23.8509209 L4.32641369,24.4174194 C4.92384719,25.014413 6.00591807,25.1362135 6.72386759,24.6803196 L8.44668911,23.5836868 Z" id="Fill-377" fill="#8BA6B1"></path>
                            </g>
                            <circle id="Oval" fill="#965596" fill-rule="nonzero" cx="20" cy="21" r="5"></circle>
                            <g id="Group-11" stroke-width="1" fill="none" fill-rule="evenodd" transform="translate(15.000000, 16.000000)">
                                <path d="M5,10 C7.762,10 10,7.762 10,5 C10,2.238 7.762,0 5,0 C2.239,0 0,2.238 0,5 C0,7.762 2.239,10 5,10 Z" id="Stroke-4" stroke="#8BA6B1"></path>
                                <g id="Group-8" transform="translate(5.000000, 0.000000)">
                                    <mask id="mask-7" fill="white">
                                        <use xlink:href="#path-6"></use>
                                    </mask>
                                    <g id="Clip-7"></g>
                                </g>
                                <path d="M5,10 C7.762,10 10,7.762 10,5 C10,2.238 7.762,0 5,0" id="Stroke-9" stroke="#ADBDC4"></path>
                            </g>
                        </g>
                    </g>
                </g>
                <g id="PowerApps-Hex-Border" stroke="#742774" stroke-width="4">
                    <path d="M45.5620146,3.25834407 L6.67338401,26.8942953 C3.79673288,28.6432593 2,31.9508238 2,35.5582677 L2,82.4417323 C2,86.0486597 3.79764663,89.3586805 6.67318764,91.1055853 L45.560618,114.742485 C46.9289662,115.572418 48.4546283,116 50,116 C51.5458817,116 53.0723633,115.572188 54.4362178,114.743457 L93.3268764,91.1055464 C96.2016145,89.3583456 98,86.0476286 98,82.4417323 L98,35.5582677 C98,31.9518547 96.202529,28.6435953 93.3268966,26.8944659 L54.4351916,3.25759524 C53.0721095,2.42798656 51.5462432,2 50,2 C48.4543284,2 46.9293388,2.42772325 45.5620146,3.25834407 Z M45.5620146,3.25834407 C45.5619597,3.25837737 45.5619049,3.25841067 45.5618501,3.25844398 L45.5621963,3.25823359 L45.5620146,3.25834407 Z" id="Azure-Hex-Border"></path>
                </g>
            </g>
        </g>
    </g>
</svg>