<svg width="181" height="190" viewBox="0 0 181 190" fill="none" xmlns="http://www.w3.org/2000/svg">
<path d="M90.5001 189C93.5601 189 96.5701 188.15 99.2301 186.53L161.2 148.87C166.74 145.5 170.17 139.17 170.17 132.33V57.6201C170.17 50.8001 166.74 44.4601 161.2 41.0801L99.2301 3.42006C93.9001 0.180064 87.0801 0.200064 81.7801 3.42006L19.8101 41.1001C14.2701 44.4701 10.8201 50.8001 10.8201 57.6401V132.34C10.8201 138.1 13.2701 143.52 17.3701 147.09V147.12L81.7801 186.55C84.4201 188.15 87.4401 189 90.5001 189ZM91.1501 7.95006C93.1001 7.95006 95.5801 9.16006 97.2901 10.2101L158.05 47.4001C161.8 49.6801 163.92 56.2801 163.92 61.0301L163.29 132.33C163.29 137.08 160.09 141.35 156.34 143.63L95.9401 180.01C92.5101 182.1 89.7201 182.1 86.2801 180.01L25.0701 143.54C21.3201 141.26 18.3001 137.06 18.3001 132.33V58.6901C18.3001 53.9501 21.0301 49.0601 24.8001 46.7701L85.3801 10.2101C87.0801 9.17006 89.2001 7.95006 91.1501 7.95006Z" fill="#F2F1F0"/>
<path fill-rule="evenodd" clip-rule="evenodd" d="M98.4001 11.5298C95.9501 10.0298 93.2301 9.27979 90.5001 9.27979C87.7701 9.27979 85.0501 10.0398 82.6001 11.5298L26.4701 45.8598C21.4501 48.9298 18.3401 54.6798 18.3401 60.9298V129.03C18.3401 135.26 21.4401 141.03 26.4701 144.1L82.6001 178.43C85.0501 179.93 87.7701 180.68 90.5001 180.68C93.2301 180.68 95.9501 179.94 98.4001 178.43L154.53 144.1C159.55 141.03 162.66 135.26 162.66 129.03V60.9298C162.66 54.6998 159.56 48.9498 154.53 45.8598L98.4001 11.5298Z" fill="url(#paint0_linear)"/>
<path fill-rule="evenodd" clip-rule="evenodd" d="M90.5001 10.75C92.1801 10.75 94.0701 11.62 96.1301 12.87L154.6 48.41C158.25 50.63 160.66 54.9 160.66 59.73V130.21C160.66 135.03 158.25 139.31 154.6 141.53L96.1401 177.07C94.1801 178.26 92.2601 179.01 90.5101 179.01C88.7601 179.01 86.8401 178.26 84.8801 177.07L26.4001 141.54C24.3901 140.31 22.9401 139.11 21.9601 137.5C20.9801 135.9 20.3401 133.68 20.3401 130.22V59.74C20.3401 54.91 22.7501 50.64 26.4001 48.42L84.8601 12.88C86.9501 11.63 88.8101 10.75 90.5001 10.75ZM98.2101 180.5L156.67 144.96C161.59 141.97 164.65 136.35 164.65 130.22V59.74C164.65 53.61 161.59 47.99 156.67 45L98.2101 9.46C96.1001 8.18 93.3901 6.75 90.5001 6.75C87.6001 6.75 84.8901 8.19 82.8001 9.45H82.7901L24.3201 45C19.4001 47.99 16.3401 53.61 16.3401 59.74V130.22C16.3401 134.18 17.0801 137.17 18.5401 139.58C20.0001 141.98 22.0601 143.58 24.3201 144.95L82.7801 180.49C85.0001 181.84 87.6701 183.02 90.4901 183.02C93.3101 183.02 95.9901 181.85 98.2101 180.5Z" fill="url(#paint1_linear)"/>
<path d="M147.57 95.4697H122.87V96.9597H147.57V95.4697Z" fill="white"/>
<path d="M146.05 91.0098L155.05 96.2098L146.05 101.4V91.0098Z" fill="white"/>
<path d="M31.92 95.4697H15.22V96.9597H31.92V95.4697Z" fill="white"/>
<path d="M30.3999 91.0098L39.3999 96.2098L30.3999 101.4V91.0098Z" fill="white"/>
<path opacity="0.15" d="M49.4199 145.75H131.17C134.36 145.75 136.91 143.17 136.91 140.01V49.5801H43.6699V140.01C43.6699 143.2 46.2299 145.75 49.4199 145.75Z" fill="#1F1D20"/>
<path d="M46.0399 142.86H134.53C135.84 142.86 136.92 141.8 136.92 140.47V48.8202C136.92 47.6302 135.95 46.6602 134.76 46.6602H45.8299C44.6399 46.6602 43.6699 47.6302 43.6699 48.8202V140.5C43.6699 141.8 44.7299 142.86 46.0399 142.86Z" fill="#EBEBEB"/>
<path opacity="0.15" d="M117.81 96.2602L109.89 87.3302L109.87 87.3602L100.8 77.1402V76.9102H68.5402C66.6202 76.9102 65.6102 79.1802 66.8902 80.6102L82.1602 97.6202L66.7602 114.82C65.6102 116.1 66.5202 118.14 68.2402 118.14H82.4002H99.9302C100.31 118.14 100.66 117.98 100.92 117.7L117.76 99.3502C118.58 98.4802 118.6 97.1502 117.81 96.2602Z" fill="#1F1D20"/>
<path d="M100.47 87.67L83.9401 97.32L66.5701 77.97C65.2901 76.54 66.3001 74.27 68.2201 74.27H100.47V87.67Z" fill="url(#paint2_linear)"/>
<path d="M109.63 84.8198L100.32 74.3398L66.4401 112.18C65.2901 113.46 66.2001 115.5 67.9201 115.5H82.0801L109.63 84.8198Z" fill="url(#paint3_linear)"/>
<path d="M117.48 93.6102L109.56 84.6802L81.6001 115.49H99.6201C100 115.49 100.35 115.33 100.61 115.05L117.45 96.7002C118.25 95.8302 118.27 94.5002 117.48 93.6102Z" fill="url(#paint4_linear)"/>
<defs>
<linearGradient id="paint0_linear" x1="90.4997" y1="9.27989" x2="90.4997" y2="180.679" gradientUnits="userSpaceOnUse">
<stop stop-color="#00ABDE"/>
<stop offset="1" stop-color="#007ED8"/>
</linearGradient>
<linearGradient id="paint1_linear" x1="36.6196" y1="4.0712" x2="203.296" y2="286.402" gradientUnits="userSpaceOnUse">
<stop stop-color="#007ED8"/>
<stop offset="0.7065" stop-color="#002D4C"/>
</linearGradient>
<linearGradient id="paint2_linear" x1="68.1558" y1="63.1736" x2="105.746" y2="98.5419" gradientUnits="userSpaceOnUse">
<stop offset="0.4598" stop-color="#1152D4"/>
<stop offset="0.6156" stop-color="#0D3FB3"/>
</linearGradient>
<linearGradient id="paint3_linear" x1="65.9316" y1="94.9172" x2="109.631" y2="94.9172" gradientUnits="userSpaceOnUse">
<stop stop-color="#388CF4"/>
<stop offset="1" stop-color="#2C7CEF"/>
</linearGradient>
<linearGradient id="paint4_linear" x1="81.6017" y1="100.091" x2="118.063" y2="100.091" gradientUnits="userSpaceOnUse">
<stop stop-color="#76C0FD"/>
<stop offset="1" stop-color="#63B2FB"/>
</linearGradient>
</defs>
</svg>
