<svg width="154" height="172" viewBox="0 0 154 172" fill="none" xmlns="http://www.w3.org/2000/svg">
<g filter="url(#filter0_d)">
<path d="M70 6.04145C74.3316 3.54059 79.6684 3.54059 84 6.04145L142.746 39.9585C147.078 42.4594 149.746 47.0812 149.746 52.0829V119.917C149.746 124.919 147.078 129.541 142.746 132.041L84 165.959C79.6684 168.459 74.3316 168.459 70 165.959L11.2539 132.041C6.92225 129.541 4.25387 124.919 4.25387 119.917V52.0829C4.25387 47.0812 6.92225 42.4594 11.2539 39.9585L70 6.04145Z" fill="url(#paint0_linear)"/>
<path d="M84.875 4.52591C80.0019 1.71244 73.9981 1.71244 69.125 4.52591L10.3789 38.443C5.5058 41.2565 2.50387 46.456 2.50387 52.0829V119.917C2.50387 125.544 5.5058 130.744 10.3789 133.557L69.125 167.474C73.9981 170.288 80.0019 170.288 84.875 167.474L143.621 133.557C148.494 130.744 151.496 125.544 151.496 119.917V52.0829C151.496 46.456 148.494 41.2565 143.621 38.443L84.875 4.52591Z" stroke="#F2F1F0" stroke-width="3.5"/>
</g>
<path d="M70.5 7.06218C74.5222 4.73995 79.4778 4.73995 83.5 7.06218L142.112 40.9019C146.134 43.2242 148.612 47.5158 148.612 52.1603V119.84C148.612 124.484 146.134 128.776 142.112 131.098L83.5 164.938C79.4778 167.26 74.5222 167.26 70.5 164.938L11.8878 131.098C7.86563 128.776 5.38784 124.484 5.38784 119.84V52.1603C5.38784 47.5158 7.86563 43.2242 11.8878 40.9019L70.5 7.06218Z" stroke="#0078D4" stroke-width="4"/>
<path opacity="0.4" d="M132.33 117.509L80.5325 147.872C78.3638 149.137 75.689 149.137 73.5202 147.872L20.3856 117.003C19.1567 116.28 19.1567 114.509 20.3856 113.786L75.689 81.1826L129.872 112.738L132.366 114.328C133.559 115.088 133.522 116.786 132.33 117.509Z" fill="#1F1D21"/>
<path d="M19.0121 104.425H18V108.979C18 109.521 18.1446 109.919 18.6145 110.172L19.1928 110.497L19.0121 109.087V104.425Z" fill="#32B0E7"/>
<path d="M134.462 104.208L134.498 104.461L133.522 104.822L133.197 107.931L133.667 110.353L134.39 109.919C134.824 109.594 134.968 109.34 134.968 108.943V104.208H134.462Z" fill="#1D4A79"/>
<path d="M79.8457 137.028V142.486C78.2192 143.462 76.1589 143.462 74.4961 142.522V136.884" fill="#156AB3"/>
<path d="M74.5322 137.715V142.414L18.7952 110.28V105.509L74.5322 137.715Z" fill="#0078D4"/>
<path d="M79.7011 137.86L134.065 105.509L133.884 110.244L79.7011 142.486V137.86Z" fill="#185A97"/>
<path d="M18.6145 103.304L73.8455 70.5197C75.0022 69.8329 76.448 69.8329 77.6408 70.4835L134.39 103.196C135.185 103.666 135.221 104.822 134.39 105.292L79.8457 137.715C78.2553 138.655 76.2311 138.691 74.6046 137.751L18.6145 105.401C17.8193 104.931 17.7831 103.774 18.6145 103.304Z" fill="#1D4A79"/>
<path d="M51.9014 72.2123L62.9547 65.8104L66.4557 63.8098L55.4025 70.2617L51.9014 72.2123Z" fill="#0078D4"/>
<path d="M72.0074 87.7168L83.0606 81.3149L83.0106 86.9666L71.9574 93.4185L72.0074 87.7168Z" fill="#0078D4"/>
<path d="M47 50.2056L58.0533 43.8037L63.0047 46.6045L51.9515 53.0564L47 50.2056Z" fill="#185A97"/>
<path d="M61.9044 52.7066L72.9576 46.3047C71.0071 47.455 69.7567 49.8557 69.7567 53.3067C69.7567 60.2088 74.6081 68.6613 80.6599 72.1623L69.6567 78.5642C63.6549 75.0632 58.7535 66.6607 58.7535 59.7086C58.7535 56.3076 59.9538 53.8569 61.9044 52.7066Z" fill="#0078D4"/>
<path d="M88.4622 72.9123L77.4089 79.3142C75.4084 80.4646 72.6575 80.3145 69.6066 78.564L80.6599 72.1621C83.7108 73.9126 86.4616 74.0627 88.4622 72.9123Z" fill="#0078D4"/>
<path d="M83.8609 86.7165L94.9141 80.2646L98.3651 86.2664L87.3119 92.6683L83.8609 86.7165Z" fill="#0078D4"/>
<path d="M55.3525 37.4019L66.4057 31L69.9068 37.0018L58.8535 43.4537L55.3525 37.4019Z" fill="#185A97"/>
<path d="M52.0015 39.3525L63.0547 32.9006L66.4057 31L55.3525 37.4019L52.0015 39.3525Z" fill="#0078D4"/>
<path d="M87.3619 79.0142L98.4151 72.6123C98.015 76.0133 96.7146 78.5641 94.8641 80.3146L83.8108 86.7165C85.7114 84.9659 86.9617 82.4152 87.3619 79.0142Z" fill="#0078D4"/>
<path d="M58.8535 43.4537L69.9068 37.0018C72.3575 36.3016 75.2083 36.5016 78.4093 37.852L67.306 44.3039C64.1551 42.9535 61.2542 42.7034 58.8535 43.4537Z" fill="#0078D4"/>
<path d="M87.4119 73.5127L98.4651 67.1108L103.417 69.9617L92.3633 76.3636L87.4119 73.5127Z" fill="#0078D4"/>
<path d="M92.3634 76.3633L103.417 69.9614L103.367 75.413L92.3133 81.8649L92.3634 76.3633Z" fill="#50E6FF"/>
<path d="M83.9609 61.8091L95.0141 55.3572C96.8647 59.1583 98.115 63.2095 98.4651 67.1106L87.4119 73.5125C87.0118 69.6614 85.7614 65.6102 83.9609 61.8091Z" fill="#0078D4"/>
<path d="M72.1074 47.0547L83.1607 40.6528C86.3116 42.9535 89.2124 46.0544 91.6131 49.5555L80.5599 55.9573C78.1592 52.4563 75.2583 49.3554 72.1074 47.0547Z" fill="#0078D4"/>
<path d="M67.356 38.6524L78.4093 32.2505L83.1607 35.0013L72.1074 41.4032L67.356 38.6524Z" fill="#50E6FF"/>
<path d="M72.1074 41.4031L83.1607 35.0012V40.6529L72.1074 47.0548V41.4031Z" fill="#185A97"/>
<path d="M84.0609 54.0068L95.1142 47.5549L98.4651 53.4067L87.4619 59.8085L84.0609 54.0068Z" fill="#50E6FF"/>
<path d="M80.5599 55.9574L91.6132 49.5555L95.1142 47.5549L84.0609 54.0068L80.5599 55.9574Z" fill="#0078D4"/>
<path d="M87.4119 73.5125L92.3133 76.3634V81.815L87.3619 79.0141C86.9618 82.4151 85.6614 84.9659 83.8108 86.7164L87.2619 92.7182L83.9109 94.6187L80.4599 88.617C78.0091 89.3172 75.1583 89.1171 71.9573 87.7167V93.3684L67.1559 90.6176V84.9159C64.005 82.6152 61.1042 79.5143 58.7034 76.0133L55.2024 77.9638L51.9014 72.2121L55.4025 70.2616C53.5519 66.4104 52.3516 62.4093 51.9014 58.5081L47 55.6573V50.2057L51.9014 53.0565C52.3516 49.6555 53.6019 47.0547 55.4525 45.3542L52.0015 39.3525L55.3525 37.4519L58.8035 43.4537C61.2542 42.7535 64.105 42.9535 67.306 44.3039V38.6523L72.1074 41.4031V47.0547C75.2583 49.3554 78.1592 52.4563 80.5599 55.9574L84.0609 53.9568L87.4119 59.7585L83.9109 61.7591C85.7614 65.6102 87.0118 69.6614 87.4119 73.5125ZM69.6567 78.564C75.6584 82.065 80.6099 79.2642 80.6099 72.3122C80.6099 65.4101 75.7585 56.9576 69.7067 53.4566C63.6549 49.9556 58.7535 52.8064 58.7535 59.7085C58.7034 66.6605 63.6049 75.063 69.6567 78.564Z" fill="#243A5E"/>
<g filter="url(#filter1_d)">
<path fill-rule="evenodd" clip-rule="evenodd" d="M79.2147 127.564C90.6153 134.146 99.5053 128.816 99.0711 115.659C98.6369 102.502 89.043 86.5 77.6425 79.9179C66.242 73.3358 57.352 78.6659 57.7861 91.8229C57.9376 96.4147 59.2048 101.353 61.275 106.116L61.531 113.872L68.2515 117.752C71.4775 121.822 75.2361 125.267 79.2147 127.564Z" fill="#FCA11F"/>
<path fill-rule="evenodd" clip-rule="evenodd" d="M99.0711 115.659C99.5052 128.816 90.6153 134.146 79.2147 127.564C75.2361 125.267 71.4775 121.823 68.2515 117.752L61.531 113.872L61.5263 113.731L92.5592 95.4737C96.3858 101.904 98.8557 109.131 99.0711 115.659Z" fill="#E89619"/>
<circle r="3.15707" transform="matrix(0.866025 0.5 0.0329807 0.999456 78.0121 91.1196)" fill="white"/>
<circle r="3.15707" transform="matrix(0.866025 0.5 0.0329807 0.999456 78.8451 116.362)" fill="white"/>
<circle r="3.15707" transform="matrix(0.866025 0.5 0.0329807 0.999456 85.946 112.105)" fill="white"/>
<circle r="3.15707" transform="matrix(0.866025 0.5 0.0329807 0.999456 85.6701 103.743)" fill="white"/>
<path d="M84.7118 107.214C84.7516 108.42 83.7073 109.961 83.2145 110.605L88.6144 113.723C88.0854 112.592 87.0701 109.999 86.9675 108.516C86.9227 107.869 87.0775 107.236 87.3094 106.687C87.6091 105.977 88.0376 105.406 88.3307 105.125L82.9308 102.007C83.5764 103.283 84.6598 105.636 84.7118 107.214Z" fill="white"/>
<circle r="3.15707" transform="matrix(0.866025 0.5 0.0329807 0.999456 71.1819 103.581)" fill="white"/>
<circle r="3.15707" transform="matrix(0.866025 0.5 0.0329807 0.999456 70.906 95.2192)" fill="white"/>
<path d="M69.9477 98.6897C69.9875 99.8953 69.559 99.7808 69.0662 100.425L73.0964 102.674C72.5674 101.543 72.3059 101.475 72.2033 99.992C72.1586 99.345 72.1747 99.1242 72.4325 98.8088C72.7207 98.4561 72.6601 98.6172 72.9533 98.3357L69.1333 96.3624C69.7789 97.6378 69.8956 97.112 69.9477 98.6897Z" fill="white"/>
<circle r="3.15707" transform="matrix(0.866025 0.5 0.0329807 0.999456 85.946 112.105)" fill="white"/>
<circle r="3.15707" transform="matrix(0.866025 0.5 0.0329807 0.999456 85.6701 103.743)" fill="white"/>
<path d="M84.7118 107.214C84.7516 108.42 84.3232 108.305 83.8304 108.949L87.8606 111.198C87.3316 110.068 87.07 109.999 86.9675 108.516C86.9227 107.869 86.9388 107.648 87.1966 107.333C87.4848 106.98 87.4243 107.141 87.7174 106.86L83.8975 104.887C84.543 106.162 84.6598 105.636 84.7118 107.214Z" fill="white"/>
<circle r="3.15707" transform="matrix(0.866025 0.5 0.0329807 0.999456 78.564 107.843)" fill="white"/>
<circle r="3.15707" transform="matrix(0.866025 0.5 0.0329807 0.999456 78.288 99.4812)" fill="white"/>
<path d="M77.3298 102.952C77.3696 104.157 76.9411 104.043 76.4483 104.687L80.4785 106.936C79.9495 105.805 79.688 105.737 79.5854 104.254C79.5407 103.607 79.5568 103.386 79.8146 103.071C80.1028 102.718 80.0422 102.879 80.3354 102.598L76.5154 100.624C77.161 101.9 77.2777 101.374 77.3298 102.952Z" fill="white"/>
<circle r="3.15707" transform="matrix(0.866025 0.5 0.0329807 0.999456 78.564 107.843)" fill="white"/>
<circle r="3.15707" transform="matrix(0.866025 0.5 0.0329807 0.999456 78.288 99.4812)" fill="white"/>
<path d="M77.3298 102.952C77.3696 104.157 76.9411 104.043 76.4483 104.687L80.4785 106.936C79.9495 105.805 79.688 105.737 79.5854 104.254C79.5407 103.607 79.5568 103.386 79.8146 103.071C80.1028 102.718 80.0422 102.879 80.3354 102.598L76.5154 100.624C77.161 101.9 77.2777 101.374 77.3298 102.952Z" fill="white"/>
</g>
<defs>
<filter id="filter0_d" x="0.753868" y="0.665771" width="152.992" height="171.168" filterUnits="userSpaceOnUse" color-interpolation-filters="sRGB">
<feFlood flood-opacity="0" result="BackgroundImageFix"/>
<feColorMatrix in="SourceAlpha" type="matrix" values="0 0 0 0 0 0 0 0 0 0 0 0 0 0 0 0 0 0 127 0"/>
<feOffset dx="0.5" dy="0.5"/>
<feColorMatrix type="matrix" values="0 0 0 0 0.823529 0 0 0 0 0.831373 0 0 0 0 0.835294 0 0 0 1 0"/>
<feBlend mode="normal" in2="BackgroundImageFix" result="effect1_dropShadow"/>
<feBlend mode="normal" in="SourceGraphic" in2="effect1_dropShadow" result="shape"/>
</filter>
<filter id="filter1_d" x="53.7709" y="77.0974" width="49.3155" height="61.2871" filterUnits="userSpaceOnUse" color-interpolation-filters="sRGB">
<feFlood flood-opacity="0" result="BackgroundImageFix"/>
<feColorMatrix in="SourceAlpha" type="matrix" values="0 0 0 0 0 0 0 0 0 0 0 0 0 0 0 0 0 0 127 0"/>
<feOffset dy="4"/>
<feGaussianBlur stdDeviation="2"/>
<feColorMatrix type="matrix" values="0 0 0 0 0 0 0 0 0 0 0 0 0 0 0 0 0 0 0.25 0"/>
<feBlend mode="normal" in2="BackgroundImageFix" result="effect1_dropShadow"/>
<feBlend mode="normal" in="SourceGraphic" in2="effect1_dropShadow" result="shape"/>
</filter>
<linearGradient id="paint0_linear" x1="77" y1="2.00252" x2="77" y2="170.003" gradientUnits="userSpaceOnUse">
<stop stop-color="#00ABDE"/>
<stop offset="1" stop-color="#007ED8"/>
</linearGradient>
</defs>
</svg>
