<svg width="160" height="188" viewBox="0 0 160 188" fill="none" xmlns="http://www.w3.org/2000/svg">
<g clip-path="url(#clip0)">
<path d="M79.6779 188C82.7592 187.994 85.7796 187.141 88.4083 185.534L150.384 147.874C153.165 146.11 155.449 143.665 157.019 140.771C158.589 137.876 159.394 134.628 159.356 131.336V56.6207C159.392 53.3283 158.587 50.0812 157.017 47.1871C155.447 44.2929 153.163 41.8476 150.384 40.0829L88.4083 2.4228C85.7749 0.837605 82.7592 0 79.6855 0C76.6118 0 73.5961 0.837605 70.9627 2.4228L8.9876 40.098C6.2045 41.8604 3.91796 44.3048 2.34499 47.1991C0.772021 50.0935 -0.0351786 53.3418 4.1431e-06 56.6358V131.336C-0.0185283 134.119 0.556189 136.874 1.68588 139.418C2.81557 141.962 4.4743 144.236 6.5516 146.089V146.115L70.9627 185.549C73.5884 187.149 76.6032 187.996 79.6779 188V188ZM80.3257 6.95218C82.2776 6.95218 84.7548 8.1651 86.4646 9.20912L147.222 46.4034C150.974 48.6881 153.09 55.2842 153.09 60.0352L152.458 131.336C152.458 136.087 149.259 140.355 145.506 142.64L85.1104 179.021C81.6758 181.109 78.8854 181.109 75.4507 179.021L14.2427 142.549C10.4903 140.265 7.47191 136.072 7.47191 131.336V57.688C7.50442 55.3228 8.11341 53.0013 9.24608 50.9247C10.3787 48.8482 12.0009 47.0792 13.9718 45.7714L74.548 9.20912C76.2577 8.1651 78.3739 6.95218 80.3257 6.95218Z" fill="#F2F1F0"/>
<path fill-rule="evenodd" clip-rule="evenodd" d="M87.5765 10.5328C85.2056 9.05922 82.4697 8.27832 79.6783 8.27832C76.8868 8.27832 74.1509 9.05922 71.7801 10.5328L15.6454 44.8642C13.1193 46.4758 11.047 48.7062 9.625 51.3436C8.203 53.9811 7.47851 56.9382 7.52026 59.9343V128.037C7.48034 131.033 8.20562 133.99 9.62745 136.627C11.0493 139.264 13.1206 141.494 15.6454 143.107L71.7801 177.438C74.1508 178.912 76.8867 179.693 79.6783 179.693C82.4698 179.693 85.2057 178.912 87.5765 177.438L143.711 143.107C146.236 141.495 148.307 139.264 149.729 136.627C151.151 133.99 151.877 131.033 151.837 128.037V59.9343C151.875 56.9387 151.149 53.9829 149.727 51.346C148.305 48.7092 146.234 46.4783 143.711 44.8642L87.5765 10.5328Z" fill="url(#paint0_linear)"/>
<path fill-rule="evenodd" clip-rule="evenodd" d="M79.6783 9.7539C81.3615 9.7539 83.2442 10.6196 85.311 11.8777L143.777 47.4201C145.668 48.6335 147.218 50.3104 148.278 52.2914C149.339 54.2725 149.875 56.4918 149.837 58.7386V129.217C149.875 131.464 149.339 133.683 148.278 135.664C147.218 137.645 145.668 139.322 143.777 140.535L85.312 176.077L85.311 176.078C83.6408 177.217 81.6958 177.888 79.6783 178.021C77.6609 177.888 75.7158 177.217 74.0456 176.078L74.0446 176.077L15.5823 140.537L15.5801 140.536C13.7918 139.572 12.2668 138.185 11.1383 136.496C10.1614 134.893 9.52031 132.678 9.52031 129.217V58.7386C9.48157 56.4919 10.018 54.2726 11.0785 52.2916C12.139 50.3106 13.6885 48.6336 15.5797 47.4202L74.0365 11.8831L74.0406 11.8807C76.1244 10.6277 77.9846 9.7539 79.6783 9.7539ZM87.3908 8.4609L145.855 44.0021C148.333 45.5722 150.368 47.751 151.765 50.3307C153.162 52.9104 153.876 55.8051 153.837 58.7386V129.217C153.876 132.151 153.162 135.045 151.765 137.625C150.368 140.205 148.333 142.384 145.855 143.954L87.3898 179.495C85.0956 181.02 82.4302 181.893 79.6783 182.021C76.9264 181.893 74.261 181.02 71.9667 179.495H71.9658L13.502 143.953L13.4995 143.952C11.1642 142.659 9.18097 140.814 7.72281 138.578C6.12823 135.725 5.36521 132.482 5.52031 129.217V58.7386C5.48125 55.805 6.19436 52.9103 7.59165 50.3305C8.98894 47.7508 11.0238 45.572 13.5022 44.002L71.9667 8.46025L71.9749 8.45537C74.0655 7.19796 76.7734 5.75391 79.6783 5.75391C82.5645 5.75391 85.2816 7.17699 87.3908 8.46085V8.4609Z" fill="#0078D4"/>
<path opacity="0.2" d="M139.887 131.927L80.3369 166.534L20.3979 131.928L79.9479 97.3213L139.887 131.927Z" fill="#003067"/>
<path d="M140.532 120.546L79.81 155.834L18.698 120.551L79.42 85.2627L140.532 120.546Z" fill="#1B93EB"/>
<path d="M140.532 120.546L140.52 124.652L79.798 159.94L79.81 155.834L140.532 120.546Z" fill="#1F56A3"/>
<path d="M79.81 155.834L79.798 159.94L18.686 124.657L18.698 120.551L79.81 155.834Z" fill="#0078D4"/>
<path d="M99.4876 125.047C99.284 125.165 99.071 125.289 98.8488 125.397L98.842 127.776C99.0644 127.668 99.2773 127.545 99.4809 127.426C103.641 125.009 105.722 121.85 105.731 118.688L105.737 116.309C105.728 119.471 103.647 122.63 99.4876 125.047Z" fill="#E8E8E8"/>
<path d="M101.746 135.23C97.886 137.473 91.7477 137.597 87.6038 135.633L53.6507 116.116C50.3493 114.21 48.7099 111.702 48.717 109.201L48.7102 111.58C48.7032 114.081 50.3425 116.589 53.644 118.496L87.597 138.013C91.741 139.976 97.8792 139.852 101.739 137.609C103.781 136.422 104.803 134.869 104.808 133.314L104.815 130.935C104.81 132.49 103.788 134.043 101.746 135.23Z" fill="#E8E8E8"/>
<path d="M99.4074 107.466C107.812 112.319 107.856 120.184 99.4877 125.047C99.2841 125.165 99.0712 125.289 98.8489 125.396C99.8433 125.673 100.8 126.07 101.698 126.58C105.835 128.969 105.856 132.842 101.746 135.23C97.886 137.474 91.7477 137.597 87.6038 135.634L53.6508 116.117C49.2062 113.551 47.774 109.893 49.3159 106.633C49.3804 106.541 49.4077 106.439 49.4629 106.353C49.9563 105.502 50.5785 104.732 51.3075 104.072C51.4093 103.991 51.5016 103.905 51.5848 103.835C52.2061 103.305 52.875 102.833 53.583 102.426C60.0722 98.6547 70.6412 98.6439 77.1821 102.42C78.0257 102.896 78.8112 103.469 79.5228 104.126C86.474 103.227 93.9938 104.341 99.4074 107.466Z" fill="white"/>
<path d="M72.697 111.464C72.7 110.405 71.2208 109.543 69.3931 109.538C67.5654 109.533 66.0813 110.387 66.0784 111.445C66.0754 112.504 67.5546 113.366 69.3823 113.372C71.21 113.377 72.6941 112.523 72.697 111.464Z" fill="#E8E8E8"/>
<path d="M80.5365 115.144C80.5395 114.085 79.0603 113.223 77.2326 113.218C75.4049 113.212 73.9208 114.066 73.9179 115.125C73.9149 116.184 75.3941 117.046 77.2218 117.051C79.0495 117.056 80.5336 116.202 80.5365 115.144Z" fill="#E8E8E8"/>
<path d="M88.376 118.823C88.379 117.765 86.8997 116.902 85.072 116.897C83.2444 116.892 81.7603 117.746 81.7573 118.805C81.7544 119.863 83.2336 120.726 85.0613 120.731C86.889 120.736 88.373 119.882 88.376 118.823Z" fill="#E8E8E8"/>
<path d="M93.4012 67.9901L86.9962 64.2921C86.8212 64.1653 86.6154 64.0876 86.4003 64.067C86.1851 64.0465 85.9683 64.0838 85.7724 64.1751L84.105 65.1441C84.3009 65.0528 84.5176 65.0155 84.7327 65.036C84.9479 65.0566 85.1536 65.1344 85.3286 65.2612L91.7336 68.9591C92.2318 69.2853 92.6463 69.7241 92.9436 70.2401C93.2408 70.756 93.4126 71.3347 93.445 71.9293L93.3707 98.1456C93.3919 98.357 93.3566 98.5702 93.2685 98.7635C93.1804 98.9568 93.0427 99.1232 92.8692 99.2459L94.5369 98.2768C94.7103 98.1542 94.848 97.9877 94.9361 97.7944C95.0242 97.6011 95.0594 97.3879 95.0383 97.1766L95.1126 70.9602C95.0802 70.3657 94.9084 69.787 94.6111 69.2711C94.3138 68.7551 93.8994 68.3163 93.4012 67.9901V67.9901Z" fill="#DD9F10"/>
<path d="M91.7336 68.9594C92.2318 69.2856 92.6463 69.7244 92.9436 70.2404C93.2408 70.7563 93.4126 71.3349 93.445 71.9295L93.3707 98.1459C93.3676 99.2336 92.5947 99.6741 91.6481 99.1276L86.1444 95.9501C87.0709 96.485 87.8287 96.059 87.8317 94.9828L87.8844 76.3923C87.8538 75.8105 87.686 75.2441 87.3947 74.7395C87.1033 74.2348 86.6967 73.8063 86.2081 73.4888L83.5847 71.9742L83.601 66.2461C83.604 65.1583 84.382 64.715 85.3287 65.2615L91.7336 68.9594Z" fill="url(#paint1_linear)"/>
<path d="M87.8757 72.5201L85.2523 71.0055L81.3951 68.7786C81.2234 68.6535 81.0214 68.5765 80.81 68.5556C80.5985 68.5347 80.3854 68.5706 80.1925 68.6597L78.525 69.6287C78.7179 69.5396 78.9311 69.5037 79.1425 69.5246C79.3539 69.5456 79.5559 69.6226 79.7277 69.7477L83.5847 71.9745L86.2081 73.4891C86.6968 73.8066 87.1034 74.2351 87.3947 74.7398C87.686 75.2444 87.8538 75.8108 87.8844 76.3927L87.8317 94.9831L87.8311 94.9901L87.812 94.9813L85.1886 93.4667L83.521 94.4358L86.1444 95.9504C86.3152 96.0746 86.5162 96.151 86.7264 96.1716C86.9367 96.1922 87.1486 96.1563 87.3403 96.0675L89.0077 95.0985C89.1783 94.9773 89.3136 94.8131 89.3999 94.6226C89.4863 94.4321 89.5206 94.2221 89.4993 94.014L89.552 75.4236C89.5213 74.8417 89.3535 74.2754 89.0622 73.7707C88.7708 73.2661 88.3643 72.8376 87.8757 72.5201V72.5201Z" fill="#F1CB3E"/>
<path d="M86.2081 73.4887C86.6967 73.8061 87.1033 74.2347 87.3947 74.7393C87.686 75.2439 87.8538 75.8103 87.8844 76.3922L87.8317 94.9826C87.8287 96.0588 87.0709 96.4849 86.1444 95.9499L83.521 94.4353L80.8221 92.8771C81.7688 93.4236 82.5416 92.9889 82.5447 91.9012L82.5763 80.7689C82.5445 80.175 82.373 79.5969 82.0756 79.0818C81.7782 78.5667 81.3633 78.1291 80.8648 77.8046L78.0199 76.162L78.0354 70.7058C78.0384 69.6354 78.7961 69.2094 79.7276 69.7472L83.5847 71.9741L86.2081 73.4887Z" fill="url(#paint2_linear)"/>
<path d="M82.5324 76.8353L79.6874 75.1928L76.1173 73.1315C75.9428 73.005 75.7378 72.9275 75.5233 72.9069C75.3088 72.8863 75.0927 72.9235 74.8974 73.0145L73.2299 73.9835C73.4252 73.8925 73.6413 73.8553 73.8558 73.8759C74.0703 73.8965 74.2754 73.9741 74.4499 74.1006L78.0199 76.1618L80.8649 77.8043C81.3634 78.1288 81.7782 78.5664 82.0756 79.0816C82.373 79.5967 82.5446 80.1747 82.5763 80.7687L82.5448 91.901C82.5447 91.9121 82.542 91.9209 82.5418 91.9318C82.5241 91.9222 82.5075 91.9181 82.4897 91.9078L80.8221 92.8769C80.9969 93.004 81.2025 93.0822 81.4176 93.1033C81.6327 93.1244 81.8495 93.0877 82.0457 92.9969L83.7132 92.0278C83.8859 91.9056 84.0231 91.7398 84.1108 91.5472C84.1985 91.3547 84.2335 91.1423 84.2122 90.9318L84.2438 79.7996C84.212 79.2056 84.0405 78.6276 83.7431 78.1125C83.4457 77.5974 83.0308 77.1598 82.5324 76.8353V76.8353Z" fill="#F9E489"/>
<path d="M80.8649 77.8047C81.3634 78.1291 81.7782 78.5668 82.0756 79.0819C82.373 79.597 82.5446 80.1751 82.5764 80.769L82.5448 91.9013C82.5417 92.989 81.7688 93.4237 80.8222 92.8772L77.9772 91.2346L74.4071 89.1734C73.9086 88.8489 73.4938 88.4113 73.1964 87.8962C72.899 87.3811 72.7274 86.803 72.6957 86.2091L72.7272 75.0826C72.7303 74.0006 73.5032 73.5544 74.4499 74.1009L78.02 76.1621L80.8649 77.8047Z" fill="url(#paint3_linear)"/>
<path opacity="0.2" d="M93.6235 102.548C93.7783 102.601 93.9126 102.701 94.0077 102.834C94.1029 102.967 94.1541 103.126 94.1544 103.29C94.1546 103.454 94.1038 103.613 94.009 103.746C93.9142 103.88 93.7802 103.98 93.6256 104.034C93.2288 104.237 92.7895 104.343 92.3437 104.344C91.8979 104.344 91.4583 104.239 91.0609 104.037L74.8694 94.6891C74.7133 94.6374 74.5774 94.538 74.4807 94.405C74.3841 94.2719 74.3316 94.1119 74.3307 93.9475C74.3298 93.783 74.3805 93.6225 74.4756 93.4883C74.5707 93.3542 74.7055 93.2533 74.861 93.1999C75.2593 92.9972 75.6997 92.8916 76.1465 92.8916C76.5933 92.8916 77.0338 92.9972 77.432 93.1999L93.6235 102.548Z" fill="#003067"/>
<path d="M117.213 79.2562C117.478 79.4217 117.695 79.6535 117.843 79.9288L119.35 82.593L115.633 84.8508C115.083 85.1875 115.072 86.207 115.609 87.1803L120.757 96.5368C121.137 97.2239 121.135 97.948 120.756 98.2018L115.548 101.646C115.011 101.999 115.025 103.028 115.566 103.994L119.184 110.417L117.924 111.359C117.804 111.429 117.666 111.463 117.526 111.455C117.387 111.447 117.253 111.399 117.142 111.315C116.808 111.106 116.538 110.809 116.361 110.457L105.429 89.6195C104.941 88.6892 104.944 87.7173 105.439 87.359L116.554 79.2225C116.654 79.1617 116.771 79.1325 116.889 79.1385C117.006 79.1445 117.119 79.1855 117.213 79.2562V79.2562Z" fill="url(#paint4_linear)"/>
<path d="M119.216 79.1305C119.068 78.8552 118.851 78.6234 118.586 78.4579C118.498 78.394 118.394 78.3547 118.286 78.3439C118.177 78.3331 118.068 78.3512 117.969 78.3964L116.596 79.1943C116.695 79.1491 116.804 79.1309 116.913 79.1417C117.021 79.1525 117.125 79.1919 117.213 79.2558C117.478 79.4212 117.695 79.6531 117.843 79.9283L119.35 82.5925L120.723 81.7946L119.216 79.1305Z" fill="#B559A9"/>
<path d="M123.813 82.0086C123.609 81.6173 123.304 81.2877 122.93 81.0536C122.809 80.9658 122.666 80.9117 122.517 80.8968C122.368 80.8819 122.218 80.9067 122.082 80.9687L120.709 81.7666C120.845 81.7046 120.996 81.6798 121.145 81.6947C121.293 81.7096 121.436 81.7637 121.557 81.8515C121.931 82.0855 122.236 82.4152 122.44 82.8065L133.313 102.812L134.686 102.014L123.813 82.0086Z" fill="#ECACD3"/>
<path d="M128.172 93.8863C128.472 94.0738 128.715 94.3391 128.877 94.654L133.544 103.293L133.825 103.815C134.329 104.745 134.327 105.717 133.827 106.063L128.934 109.46C128.884 109.494 128.828 109.517 128.769 109.529C128.579 109.557 128.384 109.513 128.223 109.408C127.937 109.23 127.702 108.981 127.541 108.685L122.661 100.113C121.872 98.7217 121.872 97.233 122.662 96.7493L127.484 93.8259C127.593 93.7724 127.715 93.7497 127.836 93.7604C127.957 93.771 128.074 93.8145 128.172 93.8863V93.8863Z" fill="url(#paint5_linear)"/>
<path d="M121.557 81.8518C121.931 82.0859 122.236 82.4156 122.44 82.8068L133.313 102.812C133.399 102.972 133.476 103.133 133.544 103.293L128.877 94.6537C128.715 94.3388 128.472 94.0735 128.172 93.886C128.074 93.8142 127.958 93.7707 127.836 93.7601C127.715 93.7495 127.593 93.7721 127.484 93.8257L122.663 96.7491C121.872 97.2327 121.872 98.7215 122.661 100.112L127.541 108.684C127.702 108.981 127.937 109.23 128.223 109.408C128.384 109.513 128.579 109.556 128.769 109.529L122.356 113.927C122.216 113.998 122.059 114.03 121.902 114.017C121.745 114.005 121.595 113.949 121.468 113.857C121.104 113.63 120.806 113.311 120.603 112.933L119.184 110.416L115.566 103.994C115.025 103.028 115.011 101.999 115.548 101.645L120.756 98.2015C121.135 97.9477 121.137 97.2236 120.757 96.5365L115.609 87.18C115.072 86.2066 115.084 85.1872 115.633 84.8505L119.35 82.5926L120.695 81.7753C120.832 81.7084 120.985 81.6802 121.137 81.6937C121.289 81.7072 121.434 81.7619 121.557 81.8518V81.8518Z" fill="url(#paint6_linear)"/>
<path d="M135.198 103.016L134.917 102.495L130.25 93.8558C130.088 93.5409 129.845 93.2756 129.545 93.0881C129.448 93.0181 129.334 92.975 129.215 92.9632C129.096 92.9515 128.976 92.9714 128.868 93.0211L127.495 93.819C127.603 93.7693 127.723 93.7494 127.842 93.7611C127.961 93.7729 128.075 93.816 128.172 93.886C128.472 94.0735 128.715 94.3388 128.877 94.6537L133.544 103.293L133.825 103.814C134.329 104.745 134.327 105.717 133.827 106.063L135.2 105.265C135.7 104.919 135.702 103.947 135.198 103.016Z" fill="#F1C3DF"/>
<path opacity="0.2" d="M125.016 119.683C125.162 119.733 125.289 119.828 125.379 119.954C125.469 120.079 125.517 120.23 125.518 120.385C125.518 120.539 125.47 120.69 125.38 120.816C125.29 120.942 125.163 121.037 125.017 121.088L124.871 121.172C124.497 121.363 124.082 121.463 123.662 121.463C123.242 121.463 122.827 121.363 122.453 121.172L108.177 112.93C108.03 112.881 107.903 112.787 107.812 112.662C107.722 112.537 107.673 112.387 107.672 112.233C107.671 112.078 107.718 111.927 107.808 111.801C107.897 111.675 108.023 111.58 108.169 111.529L108.315 111.444C108.69 111.253 109.105 111.153 109.527 111.152C109.948 111.152 110.364 111.251 110.74 111.441L125.016 119.683Z" fill="#003067"/>
<path opacity="0.2" d="M51.6281 129.405C51.7829 129.458 51.9172 129.558 52.0123 129.691C52.1075 129.825 52.1587 129.984 52.159 130.147C52.1592 130.311 52.1084 130.471 52.0136 130.604C51.9188 130.737 51.7848 130.838 51.6302 130.891C51.2334 131.094 50.7941 131.2 50.3483 131.201C49.9025 131.202 49.4629 131.097 49.0655 130.895L32.8741 121.547C32.718 121.495 32.582 121.395 32.4854 121.262C32.3887 121.129 32.3363 120.969 32.3353 120.805C32.3344 120.64 32.3851 120.48 32.4802 120.346C32.5754 120.212 32.7102 120.111 32.8657 120.057C33.2639 119.855 33.7044 119.749 34.1512 119.749C34.598 119.749 35.0385 119.855 35.4367 120.057L51.6281 129.405Z" fill="#003067"/>
<path d="M43.6445 116.251L44.6218 115.683C44.8039 115.799 44.9546 115.959 45.061 116.147L44.0837 116.715C43.9773 116.526 43.8266 116.367 43.6445 116.251V116.251Z" fill="#A3A3A3"/>
<path d="M43.6445 116.251L44.6218 115.683C44.8039 115.799 44.9546 115.959 45.061 116.147L44.0837 116.715C43.9773 116.526 43.8266 116.367 43.6445 116.251V116.251Z" fill="#E8E8E8"/>
<path d="M49.4827 122.901L48.5054 123.469C48.5617 123.428 48.6062 123.373 48.6343 123.31C48.6623 123.246 48.6729 123.176 48.6649 123.107L49.6422 122.539C49.6502 122.608 49.6396 122.678 49.6116 122.742C49.5835 122.805 49.539 122.86 49.4827 122.901V122.901Z" fill="#F2F2F2"/>
<path d="M36.2795 105.494C36.2039 105.439 36.115 105.405 36.022 105.396C35.929 105.387 35.8353 105.403 35.7505 105.442L34.7732 106.01C34.858 105.971 34.9517 105.955 35.0447 105.964C35.1377 105.973 35.2266 106.007 35.3022 106.062L39.1888 108.306L40.166 107.738L36.2795 105.494Z" fill="#0D586C"/>
<path d="M39.2018 103.707C39.2032 103.212 39.5497 103.015 39.9775 103.262L52.682 110.597C52.9083 110.744 53.0963 110.943 53.2304 111.178C53.3644 111.412 53.4406 111.675 53.4526 111.945L53.4453 114.536L39.1945 106.308L39.2018 103.707Z" fill="#4CCBED"/>
<path d="M39.1889 108.306L39.1757 112.948C39.1874 113.166 39.2506 113.378 39.36 113.567C39.4694 113.756 39.622 113.916 39.8052 114.035L43.6446 116.251C43.8266 116.368 43.9774 116.527 44.0837 116.716L47.7194 123.013C47.8115 123.183 47.9462 123.327 48.1104 123.43C48.3941 123.594 48.6639 123.494 48.6649 123.107L48.663 123.789C48.6617 124.26 48.3271 124.451 47.9169 124.214L43.8592 121.871L40.0044 124.034C39.9508 124.059 39.8915 124.069 39.8325 124.064C39.7736 124.059 39.7171 124.038 39.669 124.003C39.5275 123.912 39.4098 123.788 39.3257 123.642C39.2416 123.496 39.1934 123.332 39.1852 123.163L39.1939 120.081C39.179 119.81 39.1007 119.547 38.9653 119.312C38.8299 119.076 38.6412 118.876 38.4144 118.728L35.2715 116.913C35.0556 116.772 34.8759 116.583 34.7471 116.36C34.6183 116.137 34.544 115.886 34.5303 115.629L34.5562 106.487C34.5575 106.016 34.8921 105.825 35.3023 106.062L39.1889 108.306Z" fill="url(#paint7_linear)"/>
<path d="M48.665 123.107L48.663 123.789C48.6722 123.88 48.657 123.973 48.6188 124.056C48.5807 124.14 48.521 124.212 48.4459 124.265L49.4233 123.697C49.4984 123.644 49.558 123.572 49.5962 123.488C49.6343 123.405 49.6496 123.312 49.6404 123.221L49.6423 122.539L48.665 123.107Z" fill="#0D586C"/>
<path d="M53.445 114.536L53.435 118.31L39.184 110.082L39.186 109.292L39.194 106.308L53.445 114.536Z" fill="#17AAD2"/>
<path d="M48.8934 119.548C48.8171 119.603 48.7566 119.676 48.718 119.762C48.6794 119.847 48.6641 119.941 48.6737 120.034L48.6649 123.106C48.673 123.175 48.6624 123.245 48.6344 123.309C48.6063 123.373 48.5619 123.427 48.5055 123.468L49.4828 122.9C49.5391 122.86 49.5836 122.805 49.6117 122.741C49.6397 122.677 49.6503 122.608 49.6423 122.538L49.651 119.466C49.6414 119.373 49.6567 119.279 49.6953 119.194C49.7339 119.108 49.7944 119.035 49.8707 118.98L48.8934 119.548Z" fill="#117590"/>
<path d="M39.1838 110.082L53.4345 118.31L53.4268 121.053C53.4254 121.524 53.0909 121.715 52.6806 121.478L49.4315 119.602C49.0125 119.36 48.675 119.553 48.6736 120.034L48.6649 123.107C48.6638 123.493 48.394 123.594 48.1103 123.43C47.9461 123.327 47.8114 123.183 47.7193 123.012L44.0836 116.715C43.9773 116.527 43.8265 116.368 43.6445 116.251L39.8052 114.034C39.6219 113.916 39.4693 113.755 39.3599 113.566C39.2505 113.378 39.1874 113.165 39.1757 112.947L39.1838 110.082Z" fill="#128AA9"/>
<path d="M53.4346 118.31L53.4268 121.053C53.436 121.145 53.4208 121.237 53.3826 121.321C53.3445 121.405 53.2848 121.477 53.2097 121.53L54.187 120.962C54.2621 120.909 54.3218 120.837 54.3599 120.753C54.3981 120.669 54.4133 120.577 54.4041 120.486L54.4119 117.742L53.4346 118.31Z" fill="#117590"/>
<path d="M53.4451 114.536L54.4231 113.968L54.4121 117.742L53.4351 118.31L53.4451 114.536Z" fill="#11809E"/>
<path d="M53.6593 110.028L40.9549 102.694C40.8764 102.636 40.7841 102.601 40.6874 102.592C40.5908 102.582 40.4933 102.598 40.4052 102.639L39.4279 103.207C39.516 103.166 39.6135 103.15 39.7102 103.159C39.8068 103.169 39.8992 103.204 39.9776 103.261L52.682 110.596C52.9084 110.744 53.0964 110.943 53.2304 111.177C53.3644 111.412 53.4406 111.675 53.4526 111.945L53.4453 114.536L54.4226 113.968L54.43 111.377C54.4179 111.107 54.3417 110.844 54.2077 110.609C54.0737 110.375 53.8857 110.176 53.6593 110.028V110.028Z" fill="#3998B2"/>
<path opacity="0.2" d="M81.318 145.312C81.4644 145.362 81.5914 145.457 81.6814 145.582C81.7714 145.708 81.8198 145.859 81.82 146.014C81.8202 146.168 81.7721 146.319 81.6824 146.445C81.5927 146.571 81.4658 146.666 81.3196 146.716L81.1737 146.801C80.7992 146.992 80.3849 147.092 79.9646 147.092C79.5443 147.092 79.1299 146.992 78.7554 146.801L64.4794 138.559C64.3329 138.51 64.2055 138.416 64.1149 138.291C64.0243 138.166 63.9751 138.016 63.9743 137.861C63.9734 137.707 64.0209 137.556 64.11 137.43C64.1992 137.304 64.3256 137.209 64.4715 137.158L64.6174 137.073C64.9927 136.882 65.4079 136.782 65.8293 136.781C66.2506 136.781 66.6661 136.879 67.042 137.07L81.318 145.312Z" fill="#003067"/>
<path d="M81.8781 142.632L80.6832 143.326C80.6991 143.317 80.7138 143.306 80.7271 143.293L81.922 142.599C81.9087 142.611 81.894 142.622 81.8781 142.632V142.632Z" fill="#A3A3A3"/>
<path d="M85.0674 129.073L88.8536 136.162C89.231 136.879 89.2289 137.6 88.8343 137.85L80.727 143.294C80.6183 143.397 80.4377 143.376 80.2572 143.272L71.872 138.43L71.6194 138.284L85.0674 129.073Z" fill="url(#paint8_linear)"/>
<path d="M90.0485 135.468L86.2624 128.379L85.0674 129.073L88.8536 136.162C89.231 136.879 89.2289 137.6 88.8343 137.85L90.0292 137.155C90.4238 136.906 90.4259 136.184 90.0485 135.468Z" fill="#87C5FD"/>
<path d="M66.402 111.192C66.2959 111.113 66.1703 111.064 66.0387 111.051C65.9071 111.037 65.7743 111.059 65.6542 111.115L64.4592 111.809C64.5793 111.754 64.7121 111.732 64.8437 111.745C64.9754 111.759 65.1009 111.808 65.207 111.887L80.6643 120.811L81.8593 120.116L66.402 111.192Z" fill="url(#paint9_linear)"/>
<path d="M80.664 120.811L81.859 120.117L72.923 126.41L71.729 127.104L80.664 120.811Z" fill="#F2F2F2"/>
<path d="M80.6643 120.811L85.0675 129.072L71.6194 138.284L71.872 138.429L65.0887 134.513C64.2624 134.036 63.8146 132.66 64.3758 132.283L71.7286 127.104L80.6643 120.811Z" fill="url(#paint10_linear)"/>
<path d="M80.6643 120.811L71.7286 127.104L64.411 113.479C63.7999 112.337 64.2905 111.358 65.207 111.887L80.6643 120.811Z" fill="url(#paint11_linear)"/>
<path d="M80.6641 120.811L81.8591 120.117L86.2621 128.378L85.0671 129.073L80.6641 120.811Z" fill="#5899F3"/>
<path d="M67.5324 49.3205C65.6717 48.2392 63.0972 48.3892 60.2556 50.0299C59.4416 50.5013 58.6748 51.0498 57.9656 51.6678L59.7465 52.7028C60.4557 52.0848 61.2227 51.5363 62.0367 51.0649C64.8783 49.4242 67.4528 49.2742 69.3133 50.3555L67.5324 49.3205Z" fill="#E8E8E8"/>
<path d="M46.8132 51.0594C39.5369 55.2604 33.6592 65.441 33.6829 73.8114C33.6836 74.0247 33.6842 74.2286 33.7008 74.4232C32.9483 74.5813 32.2279 74.8654 31.5699 75.2635C29.6889 76.4872 28.1236 78.138 27.0016 80.0814C25.8795 82.0248 25.2326 84.2058 25.1134 86.4467C25.1193 88.4923 25.8417 89.9247 27.0032 90.5997L28.7842 91.6347C27.6226 90.9597 26.9002 89.5272 26.8945 87.4817C27.0137 85.2408 27.6606 83.0598 28.7826 81.1163C29.9046 79.1729 31.47 77.5221 33.351 76.2984C34.0089 75.9004 34.7293 75.6163 35.4818 75.4582C35.4651 75.2635 35.4645 75.0596 35.4639 74.8464C35.4403 66.476 41.3178 56.2955 48.5943 52.0944C52.2564 49.9801 55.5638 49.7711 57.9606 51.1639L56.1796 50.1289C53.7829 48.7361 50.4753 48.9451 46.8132 51.0594Z" fill="#E8E8E8"/>
<path d="M48.5942 52.0946C41.3178 56.2956 35.4402 66.4762 35.4639 74.8466C35.4645 75.0598 35.4651 75.2637 35.4817 75.4584C34.7292 75.6165 34.0089 75.9005 33.351 76.2986C31.4699 77.5223 29.9046 79.1731 28.7826 81.1165C27.6606 83.06 27.0136 85.241 26.8944 87.4819C26.9054 91.3565 29.4877 93.0317 32.7559 91.5255L62.0873 74.6559C65.9352 72.4343 69.2842 68.0589 71.0406 63.4424C71.0807 63.3172 71.1449 63.1779 71.1849 63.0527C71.5705 61.9395 71.8698 60.7982 72.0803 59.639C72.088 59.5138 72.12 59.3747 72.1357 59.2634C72.2518 58.4932 72.309 57.7152 72.3069 56.9363C72.2885 50.4384 67.6916 47.8001 62.0366 51.065C61.2226 51.5365 60.4557 52.085 59.7464 52.7029C57.387 49.8035 53.2811 49.3886 48.5942 52.0946Z" fill="white"/>
<path d="M55.5501 58.9488C55.0526 59.2725 54.6386 59.7093 54.3418 60.2233C54.045 60.7374 53.8738 61.3143 53.8422 61.907C53.8453 62.9984 54.6115 63.435 55.5612 62.8867C56.0573 62.5636 56.4698 62.1276 56.765 61.6144C57.0602 61.1012 57.2296 60.5253 57.2594 59.9341C57.2564 58.8539 56.4901 58.406 55.5501 58.9488Z" fill="#5059C9"/>
<path d="M57.1419 62.6239C57.1183 62.6375 57.0946 62.6526 57.071 62.6691L53.2034 64.9021C53.2701 64.8565 53.347 64.828 53.4273 64.8189C53.5076 64.8099 53.5889 64.8206 53.6642 64.8502C53.7277 64.8995 53.7781 64.9638 53.8108 65.0373C53.8435 65.1109 53.8576 65.1913 53.8517 65.2716L53.8696 71.5723C53.87 71.7084 53.8645 71.8472 53.8531 71.9886C54.3662 71.9905 54.869 71.8446 55.3014 71.5683C55.999 71.167 56.5935 70.6086 57.0377 69.9374C57.4818 69.2663 57.7634 68.5009 57.8601 67.7019L57.8466 62.9426C57.8434 62.8595 57.8167 62.779 57.7696 62.7105C57.7226 62.6419 57.6571 62.5881 57.5807 62.5552C57.5071 62.5329 57.4294 62.5275 57.3534 62.5394C57.2775 62.5513 57.2052 62.5801 57.1419 62.6239V62.6239Z" fill="#5059C9"/>
<path d="M49.8342 65.5694C49.8525 65.6393 49.8616 65.7114 49.8614 65.7836L49.8623 66.0843C50.0466 66.0303 50.2241 65.9554 50.3912 65.8609C50.3736 65.7909 50.338 65.7266 50.288 65.6744C50.238 65.6223 50.1753 65.5841 50.106 65.5636C50.0169 65.5382 49.9222 65.5402 49.8342 65.5694V65.5694Z" fill="#3D4175"/>
<path d="M48.4495 65.6745L49.0559 65.3244C49.4275 65.1098 49.7434 65.2245 49.8343 65.5692C49.8525 65.6391 49.8617 65.7111 49.8615 65.7834L49.8624 66.0951L49.8645 66.8298L49.8823 73.1193C49.8667 73.3954 49.7861 73.6639 49.647 73.9028C49.5079 74.1418 49.3143 74.3445 49.0819 74.4943L46.4612 76.0073L42.6977 78.1802C42.2572 78.4345 41.9035 78.233 41.902 77.7267L41.8812 70.3908C41.8948 70.1147 41.9735 69.8457 42.1109 69.6058C42.2483 69.3658 42.4404 69.1618 42.6717 69.0103L48.4495 65.6745ZM43.6586 71.1678L45.431 70.1446L45.4454 75.2414L46.3266 74.7327L46.3121 69.6358L48.0943 68.6069L48.0914 67.5943L43.6557 70.1552L43.6586 71.1678" fill="#4B53BC"/>
<path d="M43.656 70.1547L43.659 71.1677L45.431 70.1437L45.445 75.2407L46.327 74.7318L46.312 69.6357L48.094 68.6068L48.091 67.5938L43.656 70.1547Z" fill="white"/>
<path d="M49.8644 66.8298L49.8823 73.1193C49.8667 73.3954 49.7861 73.6638 49.647 73.9028C49.5079 74.1417 49.3142 74.3444 49.0819 74.4942L46.4612 76.0073C46.4704 76.2159 46.496 76.4234 46.538 76.6279L48.8683 75.2824C49.3148 75.0681 49.6965 74.7392 49.9745 74.3293C50.2524 73.9194 50.4167 73.4431 50.4506 72.949L50.4323 66.502L49.8644 66.8298Z" fill="#3D4175"/>
<path d="M50.4155 60.6058C49.7521 61.0359 49.2001 61.6171 48.8048 62.3017C48.4095 62.9864 48.1822 63.7551 48.1415 64.5446C48.1254 64.9438 48.233 65.3383 48.4495 65.6741L49.0558 65.324C49.4274 65.1095 49.7433 65.2241 49.8342 65.5688C49.9222 65.5396 50.0169 65.5376 50.106 65.563C50.1752 65.5835 50.238 65.6217 50.288 65.6738C50.338 65.726 50.3736 65.7902 50.3912 65.8603C50.224 65.9548 50.0466 66.0297 49.8623 66.0836C50.0624 66.0346 50.254 65.9555 50.4304 65.849C51.0919 65.4169 51.6424 64.8352 52.0374 64.1509C52.4324 63.4667 52.6609 62.6991 52.7044 61.9102C52.7002 60.4588 51.6688 59.8822 50.4155 60.6058Z" fill="#7B83EB"/>
<path d="M50.4323 66.5016L50.4505 72.9486C50.4167 73.4427 50.2524 73.919 49.9744 74.3289C49.6965 74.7388 49.3148 75.0677 48.8683 75.2821L46.538 76.6275C46.496 76.423 46.4704 76.2155 46.4612 76.0069C46.4395 76.4225 46.5249 76.8367 46.7091 77.2098C46.8932 77.583 47.1701 77.9026 47.5132 78.1381C47.918 78.322 48.3641 78.3959 48.8066 78.3522C49.249 78.3084 49.6721 78.1487 50.033 77.8891L50.3268 77.7195C51.375 77.0598 52.2394 76.1459 52.8398 75.0627C53.3966 74.1235 53.7423 73.0744 53.853 71.9882C53.8643 71.847 53.8698 71.7082 53.8695 71.5719L53.8516 65.2712C53.8575 65.1909 53.8434 65.1105 53.8107 65.037C53.778 64.9634 53.7276 64.8991 53.6641 64.8498C53.5888 64.8202 53.5075 64.8095 53.4272 64.8185C53.3469 64.8276 53.27 64.8561 53.2033 64.9017L50.4323 66.5016Z" fill="#7B83EB"/>
</g>
<defs>
<linearGradient id="paint0_linear" x1="79.6785" y1="8.27832" x2="79.6785" y2="179.693" gradientUnits="userSpaceOnUse">
<stop stop-color="#00ABDE"/>
<stop offset="1" stop-color="#007ED8"/>
</linearGradient>
<linearGradient id="paint1_linear" x1="95.0296" y1="70.8624" x2="81.9451" y2="93.5255" gradientUnits="userSpaceOnUse">
<stop offset="0.00754" stop-color="#E0A310"/>
<stop offset="1" stop-color="#CA810E"/>
</linearGradient>
<linearGradient id="paint2_linear" x1="87.8041" y1="74.4101" x2="78.0622" y2="91.2836" gradientUnits="userSpaceOnUse">
<stop offset="0.00754" stop-color="#F2CC40"/>
<stop offset="1" stop-color="#E7B116"/>
</linearGradient>
<linearGradient id="paint3_linear" x1="80.9062" y1="77.8285" x2="74.3689" y2="89.1514" gradientUnits="userSpaceOnUse">
<stop stop-color="#F8E17B"/>
<stop offset="0.5302" stop-color="#F6D856"/>
<stop offset="1" stop-color="#F6D856"/>
</linearGradient>
<linearGradient id="paint4_linear" x1="105.065" y1="95.2971" x2="121.041" y2="95.2971" gradientUnits="userSpaceOnUse">
<stop stop-color="#A23093"/>
<stop offset="1" stop-color="#692266"/>
</linearGradient>
<linearGradient id="paint5_linear" x1="122.069" y1="101.648" x2="134.203" y2="101.648" gradientUnits="userSpaceOnUse">
<stop stop-color="#E89BCA"/>
<stop offset="1" stop-color="#E591C8"/>
</linearGradient>
<linearGradient id="paint6_linear" x1="115.152" y1="97.855" x2="133.544" y2="97.855" gradientUnits="userSpaceOnUse">
<stop stop-color="#E184C4"/>
<stop offset="1" stop-color="#D76EBC"/>
</linearGradient>
<linearGradient id="paint7_linear" x1="34.5303" y1="115.138" x2="48.665" y2="115.138" gradientUnits="userSpaceOnUse">
<stop stop-color="#107590"/>
<stop offset="0.2789" stop-color="#107590"/>
<stop offset="0.9874" stop-color="#0D5D73"/>
</linearGradient>
<linearGradient id="paint8_linear" x1="71.6193" y1="136.217" x2="89.1335" y2="136.217" gradientUnits="userSpaceOnUse">
<stop stop-color="#76C0FD"/>
<stop offset="1" stop-color="#63B2FB"/>
</linearGradient>
<linearGradient id="paint9_linear" x1="64.4592" y1="115.928" x2="81.8592" y2="115.928" gradientUnits="userSpaceOnUse">
<stop stop-color="#388CF4"/>
<stop offset="1" stop-color="#2C7CEF"/>
</linearGradient>
<linearGradient id="paint10_linear" x1="1407.02" y1="2404.58" x2="1845.57" y2="2404.58" gradientUnits="userSpaceOnUse">
<stop stop-color="#388CF4"/>
<stop offset="1" stop-color="#2C7CEF"/>
</linearGradient>
<linearGradient id="paint11_linear" x1="64.1401" y1="119.422" x2="80.6643" y2="119.422" gradientUnits="userSpaceOnUse">
<stop offset="0.4598" stop-color="#1152D4"/>
<stop offset="0.81193" stop-color="#0D3FB3"/>
</linearGradient>
<clipPath id="clip0">
<rect width="159.356" height="188" fill="white"/>
</clipPath>
</defs>
</svg>
