<?xml version="1.0" encoding="UTF-8"?>
<svg width="100px" height="100px" viewBox="0 0 100 100" version="1.1" xmlns="http://www.w3.org/2000/svg" xmlns:xlink="http://www.w3.org/1999/xlink">
    <!-- Generator: Sketch 52.3 (67297) - http://www.bohemiancoding.com/sketch -->
    <title>Implementing Microsoft Dynamics 365 for Field Service/work-order-management-agreements-inventory-and-purchasing-in-microsoft-dynamics-365-for-field-service</title>
    <desc>Created with Sketch.</desc>
    <defs>
        <rect id="path-1" x="0" y="0" width="96" height="96" rx="48"></rect>
        <filter x="-6.4%" y="-7.7%" width="113.8%" height="114.2%" filterUnits="objectBoundingBox" id="filter-3">
            <feOffset dx="0" dy="2" in="SourceAlpha" result="shadowOffsetOuter1"></feOffset>
            <feColorMatrix values="0 0 0 0 0   0 0 0 0 0   0 0 0 0 0  0 0 0 0.101675725 0" type="matrix" in="shadowOffsetOuter1" result="shadowMatrixOuter1"></feColorMatrix>
            <feMerge>
                <feMergeNode in="shadowMatrixOuter1"></feMergeNode>
                <feMergeNode in="SourceGraphic"></feMergeNode>
            </feMerge>
        </filter>
        <path d="M26.4,6 L26.4,20.6736842 C26.4,22.6619093 28.0117749,24.2736842 30,24.2736842 L44.4805811,24.2736842 L44.4805811,19.6712672 L29.7695411,6 L26.4,6 Z" id="path-4"></path>
        <filter x="-5.5%" y="-5.5%" width="111.1%" height="121.9%" filterUnits="objectBoundingBox" id="filter-5">
            <feOffset dx="0" dy="2" in="SourceAlpha" result="shadowOffsetOuter1"></feOffset>
            <feColorMatrix values="0 0 0 0 0   0 0 0 0 0   0 0 0 0 0  0 0 0 0.1 0" type="matrix" in="shadowOffsetOuter1"></feColorMatrix>
        </filter>
    </defs>
    <g id="Badges" stroke="none" stroke-width="1" fill="none" fill-rule="evenodd">
        <g id="Implementing-Microsoft-Dynamics-365-for-Field-Service" transform="translate(-579.000000, -527.000000)">
            <g id="Implementing-Microsoft-Dynamics-365-for-Field-Service/work-order-management-agreements-inventory-and-purchasing-in-microsoft-dynamics-365-for-field-service" transform="translate(579.000000, 527.000000)">
                <g id="Mask" transform="translate(2.000000, 2.000000)">
                    <mask id="mask-2" fill="white">
                        <use xlink:href="#path-1"></use>
                    </mask>
                    <use id="BG" fill="#01B6C3" xlink:href="#path-1"></use>
                    <g id="Group" filter="url(#filter-3)" mask="url(#mask-2)">
                        <g transform="translate(23.930180, 12.965357)">
                            <g id="Document" stroke-width="1" fill-rule="evenodd" transform="translate(0.000000, 6.000000)">
                                <path d="M5.41653441,-6.63557435e-14 L27.2867234,-7.18084957e-14 C28.1913222,-7.19746678e-14 28.5024308,0.0306259121 28.8479334,0.106593068 C29.193436,0.182560223 29.4994878,0.303868623 29.8032143,0.485233597 C30.1069408,0.666598571 30.3545499,0.857429167 31.0135053,1.47716834 L42.3218323,12.1125057 C43.0171935,12.766484 43.2337867,13.0207602 43.4405849,13.3367962 C43.6473831,13.6528323 43.7876221,13.9772422 43.8761616,14.3444002 C43.9647011,14.7115583 44.0015411,15.0435399 44.0015411,15.9981157 L44.0015411,54.1850066 C44.0015411,55.7897404 43.834455,56.3716556 43.5207022,56.9583223 C43.2069494,57.5449889 42.74653,58.0054084 42.1598633,58.3191611 C41.5731967,58.6329139 40.9912814,58.8 39.3865477,58.8 L5.41653441,58.8 C3.81180068,58.8 3.22988545,58.6329139 2.64321879,58.3191611 C2.05655212,58.0054084 1.59613269,57.5449889 1.28237992,56.9583223 C0.968627154,56.3716556 0.801541054,55.7897404 0.801541054,54.1850066 L0.801541054,4.61499336 C0.801541054,3.01025963 0.968627154,2.4283444 1.28237992,1.84167773 C1.59613269,1.25501107 2.05655212,0.794591634 2.64321879,0.480838867 C3.22988545,0.1670861 3.81180068,-6.60609587e-14 5.41653441,-6.63557435e-14 Z" id="Rectangle" fill="#FFFFFE" fill-rule="nonzero"></path>
                                <path d="M0.801541054,55.2 L18.8015411,55.2 C20.7897662,55.2 22.4015411,53.5882251 22.4015411,51.6 L22.4015411,7.17916772 C22.4015411,5.19094262 24.013316,3.57916772 26.0015411,3.57916772 L33.5664594,3.57916772 L44.0015411,12.9570191 L44.0015411,55.0875 C44.0015411,57.0757251 42.3897662,58.6875 40.4015411,58.6875 L4.28904105,58.6875 C2.36294799,58.6875 0.801541054,57.1260931 0.801541054,55.2 Z" id="Path-21" fill="#E1E4E1" fill-rule="nonzero"></path>
                            </g>
                            <g id="Earmark" fill-rule="nonzero">
                                <use fill="black" fill-opacity="1" filter="url(#filter-5)" xlink:href="#path-4"></use>
                                <use fill="#FFFFFF" xlink:href="#path-4"></use>
                            </g>
                            <g id="Lines" stroke-width="1" fill-rule="evenodd" transform="translate(7.200000, 31.200000)">
                                <g id="Line-1" fill-rule="nonzero">
                                    <rect id="Rectangle" fill="#E1E4E1" x="0.801541054" y="0" width="28.8" height="3.6" rx="1.8"></rect>
                                    <path d="M15.2015411,0 L27.8015411,-2.44249065e-15 C28.7956536,-1.74215685e-15 29.6015411,0.80588745 29.6015411,1.8 L29.6015411,1.8 C29.6015411,2.79411255 28.7956536,3.6 27.8015411,3.6 L15.2015411,3.6 L15.2015411,0 Z" id="Rectangle" fill="#BEC4BE"></path>
                                </g>
                                <g id="Line-2" transform="translate(0.000000, 9.600000)" fill-rule="nonzero">
                                    <rect id="Rectangle" fill="#E1E4E1" x="0.801541054" y="0" width="28.8" height="3.6" rx="1.8"></rect>
                                    <path d="M15.2015411,0 L27.8015411,-2.44249065e-15 C28.7956536,-1.74215685e-15 29.6015411,0.80588745 29.6015411,1.8 L29.6015411,1.8 C29.6015411,2.79411255 28.7956536,3.6 27.8015411,3.6 L15.2015411,3.6 L15.2015411,0 Z" id="Rectangle" fill="#BEC4BE"></path>
                                </g>
                                <g id="Line-3" transform="translate(0.000000, 19.200000)" fill-rule="nonzero">
                                    <rect id="Rectangle" fill="#E1E4E1" x="0.801541054" y="0" width="22.8" height="3.6" rx="1.8"></rect>
                                    <path d="M15.2015411,0 L21.8015411,-4.4408921e-16 C22.7956536,-6.26704723e-16 23.6015411,0.80588745 23.6015411,1.8 L23.6015411,1.8 C23.6015411,2.79411255 22.7956536,3.6 21.8015411,3.6 L15.2015411,3.6 L15.2015411,0 Z" id="Rectangle" fill="#BEC4BE"></path>
                                </g>
                            </g>
                            <g id="Pencil" stroke-width="1" fill-rule="evenodd" transform="translate(41.824282, 29.201824) rotate(-9.000000) translate(-41.824282, -29.201824) translate(25.624282, 2.201824)">
                                <path d="M-9.6,20.3671227 L37.2,20.3671227 C39.8509668,20.3671227 42,22.5161559 42,25.1671227 L42,25.1671227 C42,27.8180895 39.8509668,29.9671227 37.2,29.9671227 L-9.6,29.9671227 L-9.6,20.3671227 Z" id="Rectangle" fill="#EFB252" fill-rule="nonzero" transform="translate(16.200000, 25.167123) rotate(-63.000000) translate(-16.200000, -25.167123) "></path>
                                <path d="M27.979137,2.17852042 L4.69552622,48.2484874 L0.210213791,45.9775293 L21.4063303,4.34429926 C22.6305676,1.93966295 25.5652249,0.972675936 27.979137,2.17852042 Z" id="Path-18" fill="#F7CB64" fill-rule="nonzero"></path>
                                <polygon id="Path-19" fill="#CC9547" fill-rule="nonzero" points="0.210213791 45.6 2.06688377 52.8142491 8.75100335 49.9573062 4.61748742 47.8715481"></polygon>
                                <polygon id="Path-19" fill="#F7CB64" fill-rule="nonzero" points="0.210213791 45.6 2.06688377 52.8142491 4.61748742 47.8715481"></polygon>
                            </g>
                        </g>
                    </g>
                </g>
                <g id="Dynamic-Border" stroke="#1D8E96" stroke-width="4">
                    <rect id="Azure-Border" x="2" y="2" width="96" height="96" rx="48"></rect>
                </g>
            </g>
        </g>
    </g>
</svg>