<svg width="154" height="172" viewBox="0 0 154 172" fill="none" xmlns="http://www.w3.org/2000/svg">
<g filter="url(#filter0_d)">
<path d="M70 6.04145C74.3316 3.54059 79.6684 3.54059 84 6.04145L142.746 39.9585C147.078 42.4594 149.746 47.0812 149.746 52.0829V119.917C149.746 124.919 147.078 129.541 142.746 132.041L84 165.959C79.6684 168.459 74.3316 168.459 70 165.959L11.2539 132.041C6.92225 129.541 4.25387 124.919 4.25387 119.917V52.0829C4.25387 47.0812 6.92225 42.4594 11.2539 39.9585L70 6.04145Z" fill="url(#paint0_linear)"/>
<path d="M84.875 4.52591C80.0019 1.71244 73.9981 1.71244 69.125 4.52591L10.3789 38.443C5.5058 41.2565 2.50387 46.456 2.50387 52.0829V119.917C2.50387 125.544 5.5058 130.744 10.3789 133.557L69.125 167.474C73.9981 170.288 80.0019 170.288 84.875 167.474L143.621 133.557C148.494 130.744 151.496 125.544 151.496 119.917V52.0829C151.496 46.456 148.494 41.2565 143.621 38.443L84.875 4.52591Z" stroke="#F2F1F0" stroke-width="3.5"/>
</g>
<path d="M70.5 7.06218C74.5222 4.73995 79.4778 4.73995 83.5 7.06218L142.112 40.9019C146.134 43.2242 148.612 47.5158 148.612 52.1603V119.84C148.612 124.484 146.134 128.776 142.112 131.098L83.5 164.938C79.4778 167.26 74.5222 167.26 70.5 164.938L11.8878 131.098C7.86563 128.776 5.38784 124.484 5.38784 119.84V52.1603C5.38784 47.5158 7.86563 43.2242 11.8878 40.9019L70.5 7.06218Z" stroke="#0078D4" stroke-width="4"/>
<path d="M138.43 115.31C141.741 117.231 141.754 122.006 138.455 123.946L80.0813 158.257C78.5275 159.17 76.6023 159.176 75.0425 158.273L15.778 123.962C12.4407 122.03 12.4543 117.207 15.8024 115.294L75.0671 81.4283C76.6145 80.5442 78.5154 80.5504 80.0569 81.4447L138.43 115.31Z" fill="url(#paint1_linear)"/>
<path d="M76.8244 89.9805C76.8244 90.2445 76.8244 102.256 76.8244 102.256L87.9123 108.196L87.9387 111.074L83.6619 113.635L86.6187 115.404" stroke="#156AB3" stroke-width="0.75" stroke-miterlimit="10" stroke-linecap="round" stroke-linejoin="round"/>
<path opacity="0.3" d="M111.989 98.1904L99.977 105.134L117.348 115.218L129.36 108.275L111.989 98.1904Z" fill="#1F1D21"/>
<path opacity="0.3" d="M68.0068 110.415L39.3101 126.783L43.2701 129.001L71.9668 112.633L68.0068 110.415Z" fill="#1F1D21"/>
<path d="M107.29 56.9287V57.1399L92.3476 65.7727L92.374 81.1374L107.343 72.5047L107.29 56.9287Z" fill="#0078D4"/>
<path d="M107.29 56.9281L105.442 55.8457V56.0833L107.29 57.1393V56.9281Z" fill="#0078D4"/>
<path d="M107.29 57.14L105.442 56.084L90.4731 64.7168L92.3474 65.7727L107.29 57.14Z" fill="#0078D4"/>
<path d="M92.3474 65.7718L90.473 64.7158L90.5258 80.0542L92.3738 81.1366L92.3474 65.7718Z" fill="#2195DC"/>
<path d="M92.321 63.9502L92.3475 65.7717L107.29 57.139V56.9278V55.3174L92.321 63.9502Z" fill="#50E6FF"/>
<path d="M92.321 63.9496L90.473 62.8672V64.7152L92.3474 65.7712L92.321 63.9496Z" fill="#D5F9FD"/>
<path d="M107.29 55.3177L105.415 54.2354L90.4731 62.8681L92.321 63.9505L107.29 55.3177Z" fill="#84ECFD"/>
<path d="M103.488 69.9961V71.6065L104.887 70.8145V69.1777L103.488 69.9961Z" fill="#50E6FF"/>
<path d="M101.35 71.2373V72.8477L102.749 72.0293V70.4189L101.35 71.2373Z" fill="#50E6FF"/>
<path d="M99.2378 72.4502V74.0606L100.637 73.2422V71.6318L99.2378 72.4502Z" fill="#50E6FF"/>
<path d="M97.126 73.6661V75.3028L98.5251 74.4844V72.8477L97.126 73.6661Z" fill="white"/>
<path d="M94.9875 74.9073V76.5177L96.3867 75.6993V74.0889L94.9875 74.9073Z" fill="#50E6FF"/>
<path d="M103.462 67.5674V69.1778L104.887 68.3594V66.749L103.462 67.5674Z" fill="#50E6FF"/>
<path d="M101.35 68.8086V70.419L102.749 69.6006V67.9902L101.35 68.8086Z" fill="white"/>
<path d="M99.2114 70.0225L99.2378 71.6329L100.637 70.8145V69.2041L99.2114 70.0225Z" fill="#50E6FF"/>
<path d="M97.0996 71.2373L97.126 72.8477L98.5251 72.0557V70.4189L97.0996 71.2373Z" fill="#50E6FF"/>
<path d="M94.9875 72.4776V74.088L96.3867 73.2696V71.6592L94.9875 72.4776Z" fill="#50E6FF"/>
<path d="M103.462 62.709V64.3458L104.861 63.5274V61.8906L103.462 62.709Z" fill="white"/>
<path d="M103.462 65.1387V66.7491L104.887 65.9307L104.861 64.3203L103.462 65.1387Z" fill="#50E6FF"/>
<path d="M101.323 66.3535L101.35 67.9903L102.749 67.1719V65.5615L101.323 66.3535Z" fill="#50E6FF"/>
<path d="M99.2114 65.1651V66.7755L100.611 65.9835V64.3467L99.2114 65.1651Z" fill="#50E6FF"/>
<path d="M99.2114 67.5928V69.2032L100.637 68.3848V66.7744L99.2114 67.5928Z" fill="white"/>
<path d="M97.0993 66.3789V68.0157L98.4985 67.1973V65.5869L97.0993 66.3789Z" fill="#50E6FF"/>
<path d="M97.0993 68.8086V70.419L98.4985 69.6006V67.9902L97.0993 68.8086Z" fill="#50E6FF"/>
<path d="M94.9611 70.0234L94.9875 71.6602L96.3867 70.8418V69.2314L94.9611 70.0234Z" fill="#50E6FF"/>
<path d="M101.323 63.9502V65.5606L102.749 64.7422V63.1318L101.323 63.9502Z" fill="#50E6FF"/>
<path d="M94.9611 67.6202V69.2306L96.3867 68.4386L96.3603 66.8018L94.9611 67.6202Z" fill="#50E6FF"/>
<path d="M91.1597 67.1709L88.6781 68.7021V73.2693L83.6621 76.2261" stroke="#156AB3" stroke-width="0.5" stroke-miterlimit="10" stroke-linecap="round" stroke-linejoin="round"/>
<path d="M91.1597 78.4706L88.6781 79.9754V75.4082L84.5597 77.9426" stroke="#156AB3" stroke-width="0.5" stroke-miterlimit="10" stroke-linecap="round" stroke-linejoin="round"/>
<path d="M91.5818 39.7412L88.6778 41.7212V49.166L83.6618 52.1228" stroke="#156AB3" stroke-width="0.5" stroke-miterlimit="10" stroke-linejoin="round"/>
<path d="M91.1597 56.3745L88.6781 57.8793V51.2793L84.5597 53.8401" stroke="#156AB3" stroke-width="0.5" stroke-miterlimit="10" stroke-linejoin="round"/>
<path d="M111.936 96.4473L111.963 99.8793L115.21 101.754L115.183 98.3481L111.936 96.4473Z" fill="#005DA4"/>
<path d="M116.266 100.223L116.292 103.655L117.375 103.022V99.6162L116.266 100.223Z" fill="#004072"/>
<path d="M117.375 99.6162V103.022L118.457 103.655V100.223L117.375 99.6162Z" fill="#005DA4"/>
<path d="M104.307 100.856V104.288L111.963 99.8793L111.936 96.4473L104.307 100.856Z" fill="#004072"/>
<path d="M116.266 100.224L116.292 103.656L117.375 104.289L117.348 100.857L116.266 100.224Z" fill="#3EB1C5"/>
<path d="M116.266 100.223L117.348 100.857L118.457 100.223L117.375 99.6162L116.266 100.223Z" fill="#45C6DC"/>
<path d="M117.348 100.857L117.375 104.289L118.457 103.656V100.224L117.348 100.857Z" fill="#2B7B89"/>
<path d="M107.554 102.757V106.163L115.21 101.754L115.183 98.3486L107.554 102.757Z" fill="#2B7B89"/>
<path d="M112.992 102.125L113.019 105.557L114.101 104.923V101.491L112.992 102.125Z" fill="#004072"/>
<path d="M114.101 101.491V104.923L115.183 105.557V102.125L114.101 101.491Z" fill="#005DA4"/>
<path d="M119.539 102.125V105.557L120.622 104.923V101.491L119.539 102.125Z" fill="#004072"/>
<path d="M120.622 101.491V104.923L121.704 105.557V102.125L120.622 101.491Z" fill="#005DA4"/>
<path d="M104.307 100.856L107.554 102.757L115.183 98.3481L111.936 96.4473L104.307 100.856Z" fill="#50E6FF"/>
<path d="M104.307 100.856V104.288L107.554 106.163V102.757L104.307 100.856Z" fill="#3EB1C5"/>
<path d="M112.992 102.125L114.075 102.758L115.183 102.125L114.101 101.491L112.992 102.125Z" fill="#45C6DC"/>
<path d="M112.992 102.125L113.019 105.557L114.101 106.164L114.075 102.759L112.992 102.125Z" fill="#3EB1C5"/>
<path d="M114.075 102.759L114.101 106.164L115.183 105.557V102.125L114.075 102.759Z" fill="#2B7B89"/>
<path d="M119.539 102.125V105.557L120.622 106.164V102.759L119.539 102.125Z" fill="#3EB1C5"/>
<path d="M120.622 102.759V106.164L121.704 105.557V102.125L120.622 102.759Z" fill="#2B7B89"/>
<path d="M109.719 104.025V107.431L110.828 106.797L110.801 103.392L109.719 104.025Z" fill="#004072"/>
<path d="M110.801 103.392L110.828 106.797L111.91 107.431V104.025L110.801 103.392Z" fill="#005DA4"/>
<path d="M116.239 104.025L116.266 107.431L117.348 106.797V103.392L116.239 104.025Z" fill="#004072"/>
<path d="M117.348 103.392V106.797L118.43 107.431V104.025L117.348 103.392Z" fill="#005DA4"/>
<path d="M122.787 104.025V107.431L123.896 106.797L123.869 103.392L122.787 104.025Z" fill="#004072"/>
<path d="M123.869 103.392L123.895 106.797L124.978 107.431L124.951 104.025L123.869 103.392Z" fill="#005DA4"/>
<path d="M110.801 104.659L110.828 108.065L111.91 107.431V104.025L110.801 104.659Z" fill="#2B7B89"/>
<path d="M109.719 104.025V107.431L110.828 108.065L110.801 104.659L109.719 104.025Z" fill="#3EB1C5"/>
<path d="M109.719 104.025L110.801 104.659L111.91 104.025L110.801 103.392L109.719 104.025Z" fill="#45C6DC"/>
<path d="M116.239 104.025L117.348 104.659L118.43 104.025L117.348 103.392L116.239 104.025Z" fill="#45C6DC"/>
<path d="M117.348 104.659V108.065L118.43 107.431V104.025L117.348 104.659Z" fill="#2B7B89"/>
<path d="M116.239 104.025L116.266 107.431L117.348 108.065V104.659L116.239 104.025Z" fill="#3EB1C5"/>
<path d="M122.787 104.025L123.869 104.659L124.951 104.025L123.869 103.392L122.787 104.025Z" fill="#45C6DC"/>
<path d="M122.787 104.025V107.431L123.869 108.065V104.659L122.787 104.025Z" fill="#3EB1C5"/>
<path d="M123.869 104.659V108.065L124.978 107.431L124.951 104.025L123.869 104.659Z" fill="#2B7B89"/>
<path d="M112.966 105.9L112.992 109.332L114.074 108.699V105.267L112.966 105.9Z" fill="#004072"/>
<path d="M114.075 105.267V108.699L115.157 109.332V105.9L114.075 105.267Z" fill="#005DA4"/>
<path d="M119.513 105.9V109.332L120.595 108.699V105.267L119.513 105.9Z" fill="#004072"/>
<path d="M120.595 105.267V108.699L121.704 109.332L121.678 105.9L120.595 105.267Z" fill="#005DA4"/>
<path d="M114.048 106.533L114.075 109.965L115.157 109.331V105.899L114.048 106.533Z" fill="#2B7B89"/>
<path d="M112.966 105.899L112.992 109.331L114.074 109.965L114.048 106.533L112.966 105.899Z" fill="#3EB1C5"/>
<path d="M112.966 105.9L114.048 106.534L115.157 105.9L114.075 105.267L112.966 105.9Z" fill="#45C6DC"/>
<path d="M119.513 105.9L120.595 106.534L121.678 105.9L120.595 105.267L119.513 105.9Z" fill="#45C6DC"/>
<path d="M119.513 105.899V109.331L120.595 109.965V106.533L119.513 105.899Z" fill="#3EB1C5"/>
<path d="M120.595 106.533V109.965L121.704 109.331L121.678 105.899L120.595 106.533Z" fill="#2B7B89"/>
<path d="M116.239 107.801V111.206L117.322 110.599V107.167L116.239 107.801Z" fill="#004072"/>
<path d="M117.322 107.167V110.599L118.404 111.206V107.801L117.322 107.167Z" fill="#005DA4"/>
<path d="M116.24 107.801L117.322 108.434L118.404 107.801L117.322 107.167L116.24 107.801Z" fill="#45C6DC"/>
<path d="M117.322 108.434V111.84L118.404 111.206V107.801L117.322 108.434Z" fill="#2B7B89"/>
<path d="M116.239 107.801V111.206L117.322 111.84V108.434L116.239 107.801Z" fill="#3EB1C5"/>
<path d="M111.963 93.9404L99.9507 100.884L117.322 110.968L129.307 104.025L111.963 93.9404ZM107.554 102.758L104.307 100.857L111.963 96.4484L115.21 98.3492L107.554 102.758ZM117.348 100.857L116.266 100.224L117.348 99.59L118.431 100.224L117.348 100.857ZM120.622 102.758L119.539 102.124L120.622 101.491L121.704 102.124L120.622 102.758ZM114.048 106.533L112.966 105.9L114.048 105.266L115.131 105.9L114.048 106.533ZM110.801 104.659L109.719 104.025L110.801 103.392L111.883 104.025L110.801 104.659ZM123.869 104.659L122.787 104.025L123.869 103.392L124.951 104.025L123.869 104.659ZM117.322 108.434L116.239 107.8L117.322 107.167L118.404 107.8L117.322 108.434ZM114.075 102.758L112.992 102.124L114.075 101.491L115.157 102.124L114.075 102.758ZM117.348 104.659L116.266 104.025L117.348 103.392L118.431 104.025L117.348 104.659ZM120.595 106.533L119.513 105.9L120.595 105.266L121.678 105.9L120.595 106.533Z" fill="#0067B7"/>
<path d="M119.539 102.125L120.622 102.758L121.704 102.125L120.622 101.491L119.539 102.125Z" fill="#45C6DC"/>
<path d="M117.296 110.942L117.322 114.374L129.334 107.431L129.308 104.025L117.296 110.942Z" fill="#005DA4"/>
<path d="M99.9506 100.856V104.288L117.322 114.373L117.295 110.941L99.9506 100.856Z" fill="#1D4A79"/>
<path d="M106.788 30V33.036L90.8953 42.1176V39.0816L106.788 30Z" fill="#1F517F"/>
<path d="M90.8953 58.1432V55.5032L106.788 46.6328V49.2728L90.8953 58.1432Z" fill="#45CAF2"/>
<path d="M90.8953 47.5564V44.9164L106.788 35.9404V38.5804L90.8953 47.5564Z" fill="#0078D4"/>
<path d="M90.8953 52.8355V50.0899L106.788 41.3516V43.9916L90.8953 52.8355Z" fill="#2195DC"/>
<path d="M70.8579 109.332L66.8451 107.008C66.3435 106.718 65.6571 106.718 64.9443 107.061L68.9571 109.384C69.6699 109.041 70.3299 109.041 70.8579 109.332Z" fill="#243A5E"/>
<path d="M61.1165 107.298L65.1293 109.621C65.9741 110.123 67.2149 110.07 68.9573 109.384L64.9445 107.061C63.2021 107.747 61.9877 107.773 61.1165 107.298Z" fill="#243A5E"/>
<path d="M46.2268 122.479L42.214 120.156C41.4484 120.711 40.7356 121.529 40.2076 122.506C39.706 123.456 39.4156 124.486 39.4156 125.383L43.4284 127.707C43.4284 126.809 43.7188 125.806 44.2204 124.829C44.7484 123.879 45.4612 123.034 46.2268 122.479Z" fill="#243A5E"/>
<path d="M52.0085 106.058C52.0349 113.502 51.8237 118.228 46.2269 122.478C45.4613 123.033 44.7485 123.851 44.2205 124.828C43.7189 125.778 43.4285 126.808 43.4285 127.706L71.7556 111.364C71.7556 110.467 71.4652 109.78 70.9636 109.411C70.4356 109.041 69.7228 109.041 68.9572 109.384C63.3604 111.602 63.1492 107.114 63.1228 99.6689L52.0085 106.058Z" fill="#1D4A79"/>
<path d="M52.0086 106.059L47.9958 103.735C48.0222 111.18 47.811 115.906 42.2142 120.156L46.227 122.479C51.8238 118.255 52.035 113.503 52.0086 106.059Z" fill="#243A5E"/>
<path d="M63.1228 99.6689L59.11 97.3193L47.9957 103.735L52.0084 106.058L63.1228 99.6689Z" fill="#243A5E"/>
<path d="M85.1934 44.2817L81.1806 41.9585C80.8374 41.7473 80.3622 41.8001 79.8342 42.0905L83.847 44.4137C84.375 44.1233 84.8502 44.0969 85.1934 44.2817Z" fill="#243A5E"/>
<path d="M25.767 115.931L29.7798 118.254C29.4366 118.07 29.2254 117.647 29.2254 117.066L25.2126 114.743C25.2126 115.324 25.4238 115.746 25.767 115.931Z" fill="#243A5E"/>
<path d="M29.1197 78.206L25.107 75.8828L25.2126 114.743L29.2253 117.067L29.1197 78.206Z" fill="#243A5E"/>
<path d="M83.8464 44.415L79.86 42.0918L26.981 72.6101L30.9938 74.9597L83.8464 44.415Z" fill="#243A5E"/>
<path d="M30.994 74.9599C29.938 75.5671 29.0932 77.0191 29.1196 78.2071L29.2252 117.068C29.2252 118.256 30.07 118.731 31.126 118.124L52.0084 106.059L63.1227 99.6438L83.9786 87.6055C85.0082 86.9983 85.853 85.5463 85.853 84.3583L85.7474 45.4976C85.7474 44.3096 84.9026 43.8344 83.8466 44.4152L30.994 74.9599Z" fill="#156AB3"/>
<path d="M30.9939 74.9589L26.9811 72.6357C25.9251 73.2429 25.0803 74.6949 25.1067 75.8829L29.1195 78.2061C29.0931 77.0181 29.9379 75.5397 30.9939 74.9589Z" fill="#243A5E"/>
<path d="M104.307 114.797V113.266C104.307 113.45 104.201 113.635 103.963 113.767V115.298C104.175 115.14 104.307 114.955 104.307 114.797Z" fill="#32B0E7"/>
<path d="M106.683 98.2695L99.8453 94.3095L84.5069 102.678L80.019 100.355L79.755 83.3271" stroke="#156AB3" stroke-width="0.75" stroke-miterlimit="10" stroke-linecap="round" stroke-linejoin="round"/>
<path d="M83.4772 116.249V117.78C83.8732 117.833 84.2427 117.965 84.5331 118.15C84.8499 118.335 85.0611 118.546 85.1667 118.783V117.252C85.0611 117.015 84.8499 116.803 84.5331 116.619C84.2427 116.434 83.8732 116.302 83.4772 116.249Z" fill="#50E6FF"/>
<path d="M98.4194 110.81V109.279C98.4194 109.464 98.3138 109.649 98.0498 109.781V111.312C98.3138 111.18 98.4194 110.995 98.4194 110.81Z" fill="#32B0E7"/>
<path d="M85.1402 117.225L85.1666 118.756L98.0762 111.311L98.0498 109.78L85.1402 117.225Z" fill="#0078D4"/>
<path d="M83.4507 116.248C83.8467 116.301 84.2163 116.433 84.5067 116.618C84.8235 116.803 85.0347 117.014 85.1403 117.251L98.0499 109.807C98.525 109.543 98.525 109.094 98.0499 108.83C97.5747 108.566 96.8355 108.566 96.3603 108.83L83.4507 116.248Z" fill="#50E6FF"/>
<path d="M80.3618 116.671V118.783C80.3618 118.915 80.3882 119.021 80.441 119.126C80.5466 119.364 80.7578 119.575 81.0482 119.733C81.365 119.918 81.7346 120.024 82.1305 120.103C82.9225 120.235 83.8201 120.103 84.4273 119.733C84.9025 119.469 85.1401 119.1 85.1401 118.73V116.618C85.1401 116.988 84.9025 117.331 84.4273 117.621C83.7937 117.991 82.9225 118.097 82.1305 117.991C81.7346 117.938 81.365 117.806 81.0482 117.621C80.7314 117.437 80.5466 117.225 80.441 117.014C80.4146 116.909 80.3618 116.803 80.3618 116.671Z" fill="#1D4A79"/>
<path d="M81.0746 115.695C80.441 116.065 80.2298 116.566 80.441 117.042C80.5466 117.279 80.7578 117.49 81.0482 117.649C81.365 117.834 81.7346 117.939 82.1305 118.018C82.9225 118.15 83.8201 118.018 84.4273 117.649C85.0609 117.279 85.2721 116.778 85.0609 116.302C84.9553 116.065 84.7441 115.854 84.4273 115.669C84.1105 115.484 83.7409 115.378 83.3713 115.299C82.6057 115.22 81.7082 115.326 81.0746 115.695Z" fill="#0078D4"/>
<path d="M80.9693 119.152L80.9957 120.683L82.0781 120.05V118.519L80.9693 119.152Z" fill="#0078D4"/>
<path d="M79.2798 118.176C78.8046 118.44 78.8046 118.888 79.2798 119.152C79.755 119.416 80.4942 119.416 80.9694 119.152L82.0518 118.519C81.6558 118.466 81.2862 118.334 80.9694 118.149C80.6526 117.964 80.4678 117.753 80.3622 117.542L79.2798 118.176Z" fill="#50E6FF"/>
<path d="M78.9364 118.651V120.183C78.9364 120.367 79.042 120.526 79.2796 120.684C79.7548 120.948 80.494 120.948 80.9692 120.684V119.153C80.494 119.417 79.7284 119.417 79.2796 119.153C79.042 119.021 78.9364 118.836 78.9364 118.651Z" fill="#1D4A79"/>
<path d="M95.2777 116.776V118.308C95.6737 118.36 96.0433 118.492 96.3337 118.677C96.6505 118.862 96.8617 119.073 96.9409 119.311V117.78C96.8353 117.542 96.6241 117.331 96.3337 117.146C96.0433 116.961 95.6737 116.829 95.2777 116.776Z" fill="#50E6FF"/>
<path d="M96.9674 117.753V119.311L103.937 115.271V113.74L96.9674 117.753Z" fill="#0078D4"/>
<path d="M95.2779 116.776C95.6739 116.829 96.0435 116.961 96.3339 117.146C96.6507 117.331 96.8619 117.542 96.9411 117.779L103.911 113.767C104.386 113.503 104.386 113.054 103.911 112.79C103.435 112.526 102.696 112.526 102.221 112.79L95.2779 116.776Z" fill="#50E6FF"/>
<path d="M92.3476 117.516V119.628C92.3476 119.76 92.374 119.865 92.4268 119.971C92.5324 120.208 92.7436 120.42 93.034 120.578C93.3508 120.763 93.7204 120.868 94.1164 120.948C94.9084 121.08 95.806 120.948 96.4132 120.578C96.8884 120.314 97.126 119.944 97.126 119.575V117.463C97.126 117.832 96.8884 118.176 96.4132 118.466C95.7796 118.836 94.9084 118.941 94.1164 118.836C93.7204 118.783 93.3508 118.651 93.034 118.466C92.7172 118.281 92.5324 118.07 92.4268 117.859C92.374 117.753 92.3476 117.648 92.3476 117.516Z" fill="#1D4A79"/>
<path d="M93.0604 116.54C92.4268 116.909 92.2156 117.411 92.4268 117.886C92.5324 118.124 92.7436 118.335 93.034 118.493C93.3508 118.678 93.7204 118.784 94.1164 118.863C94.9084 118.995 95.806 118.863 96.4132 118.493C97.0468 118.124 97.258 117.622 97.0468 117.147C96.9412 116.909 96.73 116.698 96.4132 116.513C96.0964 116.329 95.7268 116.223 95.3572 116.144C94.5916 116.065 93.694 116.17 93.0604 116.54Z" fill="#0078D4"/>
<path d="M86.9883 123.376V124.907L94.0371 120.842V119.311L86.9883 123.376Z" fill="#0078D4"/>
<path d="M84.9555 122.875V124.406C84.9555 124.591 85.0611 124.749 85.2987 124.908C85.7739 125.172 86.5131 125.172 86.9883 124.908V123.377C86.5131 123.641 85.7475 123.641 85.2987 123.377C85.0611 123.245 84.9555 123.06 84.9555 122.875Z" fill="#1D4A79"/>
<path d="M85.2987 122.373C84.8235 122.637 84.8235 123.086 85.2987 123.35C85.7739 123.614 86.5131 123.614 86.9883 123.35L94.0371 119.284C93.6411 119.232 93.2715 119.1 92.9547 118.915C92.6379 118.73 92.4531 118.519 92.3475 118.308L85.2987 122.373Z" fill="#50E6FF"/>
<path d="M110.194 118.202V116.671C110.194 116.856 110.088 117.014 109.851 117.173V118.704C110.088 118.572 110.194 118.387 110.194 118.202Z" fill="#32B0E7"/>
<path d="M107.052 116.803V118.334C107.448 118.387 107.818 118.519 108.135 118.704C108.451 118.888 108.662 119.1 108.742 119.337V117.806C108.636 117.568 108.425 117.357 108.135 117.172C107.818 116.988 107.448 116.856 107.052 116.803Z" fill="#50E6FF"/>
<path d="M108.742 117.78V119.338L109.851 118.704L109.824 117.173L108.742 117.78Z" fill="#0078D4"/>
<path d="M107.052 116.803C107.448 116.856 107.818 116.988 108.135 117.173C108.451 117.358 108.663 117.569 108.742 117.806L109.824 117.173C110.299 116.909 110.299 116.46 109.824 116.196C109.349 115.932 108.61 115.932 108.135 116.196L107.052 116.803Z" fill="#50E6FF"/>
<path d="M103.937 117.833V119.945C103.937 120.077 103.963 120.183 104.016 120.288C104.122 120.526 104.333 120.737 104.623 120.895C104.94 121.08 105.31 121.186 105.706 121.265C106.498 121.397 107.395 121.265 108.003 120.895C108.478 120.631 108.715 120.262 108.715 119.892V117.78C108.715 118.15 108.478 118.493 108.003 118.783C107.369 119.153 106.498 119.259 105.706 119.153C105.31 119.1 104.94 118.968 104.623 118.783C104.307 118.599 104.122 118.387 104.016 118.176C103.963 118.071 103.937 117.939 103.937 117.833Z" fill="#1D4A79"/>
<path d="M104.624 116.829C103.99 117.199 103.779 117.701 103.99 118.176C104.096 118.413 104.307 118.625 104.597 118.783C104.914 118.968 105.284 119.073 105.68 119.153C106.472 119.285 107.369 119.153 107.976 118.783C108.61 118.413 108.821 117.912 108.61 117.437C108.504 117.199 108.293 116.988 107.976 116.803C107.66 116.618 107.29 116.513 106.92 116.433C106.155 116.354 105.257 116.486 104.624 116.829Z" fill="#0078D4"/>
<path d="M92.6644 127.177V128.708L105.6 121.264L105.574 119.706L92.6644 127.177Z" fill="#0078D4"/>
<path d="M90.6051 126.676V128.207C90.6051 128.392 90.7107 128.55 90.9483 128.709C91.4235 128.973 92.1627 128.999 92.6643 128.709V127.177C92.1891 127.441 91.4235 127.441 90.9483 127.177C90.7371 127.045 90.6051 126.861 90.6051 126.676Z" fill="#1D4A79"/>
<path d="M90.9748 126.175C90.4996 126.439 90.4996 126.888 90.9748 127.152C91.45 127.416 92.1892 127.443 92.6908 127.152L105.627 119.681C105.231 119.628 104.861 119.496 104.544 119.311C104.228 119.127 104.043 118.915 103.937 118.678L90.9748 126.175Z" fill="#50E6FF"/>
<g filter="url(#filter1_d)">
<path fill-rule="evenodd" clip-rule="evenodd" d="M57.1723 93.3728C62.8061 90.314 67.4158 82.6376 67.4684 76.2271C67.521 69.8167 62.9965 67.0998 57.3627 70.1587C51.7289 73.2175 47.1192 80.8939 47.0666 87.3044C47.0483 89.5429 47.5881 91.3311 48.5383 92.5802L48.5074 96.3564L51.8276 94.5537C53.3759 94.8043 55.2066 94.4402 57.1723 93.3728Z" fill="#FCA11F"/>
<path fill-rule="evenodd" clip-rule="evenodd" d="M67.4697 76.2267C67.4172 82.6371 62.8074 90.3135 57.1737 93.3724C55.2073 94.4401 53.3761 94.8041 51.8275 94.553L48.5068 96.356L48.5074 96.2818L64.5892 69.6657C66.3943 70.773 67.4958 73.0449 67.4697 76.2267Z" fill="#E89619"/>
<circle r="1.53742" transform="matrix(0.878817 -0.477159 -0.00820296 0.999966 57.3173 75.6192)" fill="white"/>
<circle r="1.53742" transform="matrix(0.878817 -0.477159 -0.00820296 0.999966 57.2164 87.9171)" fill="white"/>
<circle r="1.53742" transform="matrix(0.878817 -0.477159 -0.00820296 0.999966 60.8983 81.7901)" fill="white"/>
<circle r="1.53742" transform="matrix(0.878817 -0.477159 -0.00820296 0.999966 60.9344 77.713)" fill="white"/>
<path d="M60.3749 80.0054C60.3701 80.5928 59.8097 81.9576 59.5469 82.5594L62.2154 81.1106C61.971 80.8351 61.5108 80.0927 61.4896 79.4002C61.4803 79.0981 61.5718 78.6913 61.7005 78.2835C61.8669 77.7565 62.0956 77.2279 62.2497 76.9213L59.5813 78.3701C59.8816 78.6535 60.3812 79.2367 60.3749 80.0054Z" fill="white"/>
<circle r="1.53742" transform="matrix(0.878817 -0.477159 -0.00820296 0.999966 53.6027 85.7491)" fill="white"/>
<circle r="1.53742" transform="matrix(0.878817 -0.477159 -0.00820296 0.999966 53.6373 81.6749)" fill="white"/>
<path d="M53.0789 83.9597C53.0741 84.5471 52.8596 84.7292 52.5968 85.331L54.59 84.2105C54.3457 83.9351 54.2148 84.047 54.1935 83.3545C54.1843 83.0524 54.197 82.9317 54.334 82.6277C54.4872 82.2879 54.4532 82.4033 54.6074 82.0967L52.7149 83.239C53.0152 83.5223 53.0852 83.191 53.0789 83.9597Z" fill="white"/>
<circle r="1.53742" transform="matrix(0.878817 -0.477159 -0.00820296 0.999966 60.8983 81.7901)" fill="white"/>
<circle r="1.53742" transform="matrix(0.878817 -0.477159 -0.00820296 0.999966 60.9337 77.713)" fill="white"/>
<path d="M60.374 79.9978C60.3692 80.5852 60.1548 80.7673 59.892 81.3691L61.8852 80.2486C61.6409 79.9732 61.5099 80.0851 61.4887 79.3925C61.4794 79.0904 61.4922 78.9698 61.6292 78.6658C61.7824 78.326 61.7484 78.4414 61.9026 78.1347L60.0101 79.2771C60.3104 79.5604 60.3803 79.2291 60.374 79.9978Z" fill="white"/>
<circle r="1.53742" transform="matrix(0.878817 -0.477159 -0.00820296 0.999966 57.2501 83.7686)" fill="white"/>
<circle r="1.53742" transform="matrix(0.878817 -0.477159 -0.00820296 0.999966 57.2836 79.6954)" fill="white"/>
<path d="M56.7261 81.9792C56.7213 82.5666 56.5068 82.7487 56.2441 83.3506L58.2373 82.2301C57.9929 81.9546 57.862 82.0665 57.8408 81.374C57.8315 81.0719 57.8442 80.9512 57.9812 80.6473C58.1344 80.3074 58.1004 80.4228 58.2546 80.1162L56.3621 81.2585C56.6624 81.5419 56.7324 81.2105 56.7261 81.9792Z" fill="white"/>
<circle r="1.53742" transform="matrix(0.878817 -0.477159 -0.00820296 0.999966 57.2501 83.7686)" fill="white"/>
<circle r="1.53742" transform="matrix(0.878817 -0.477159 -0.00820296 0.999966 57.2836 79.6954)" fill="white"/>
<path d="M56.7261 81.9792C56.7213 82.5666 56.5068 82.7487 56.2441 83.3506L58.2373 82.2301C57.9929 81.9546 57.862 82.0665 57.8408 81.374C57.8315 81.0719 57.8442 80.9512 57.9812 80.6473C58.1344 80.3074 58.1004 80.4228 58.2546 80.1162L56.3621 81.2585C56.6624 81.5419 56.7324 81.2105 56.7261 81.9792Z" fill="white"/>
</g>
<defs>
<filter id="filter0_d" x="0.753906" y="0.666016" width="152.992" height="171.168" filterUnits="userSpaceOnUse" color-interpolation-filters="sRGB">
<feFlood flood-opacity="0" result="BackgroundImageFix"/>
<feColorMatrix in="SourceAlpha" type="matrix" values="0 0 0 0 0 0 0 0 0 0 0 0 0 0 0 0 0 0 127 0"/>
<feOffset dx="0.5" dy="0.5"/>
<feColorMatrix type="matrix" values="0 0 0 0 0.823529 0 0 0 0 0.831373 0 0 0 0 0.835294 0 0 0 1 0"/>
<feBlend mode="normal" in2="BackgroundImageFix" result="effect1_dropShadow"/>
<feBlend mode="normal" in="SourceGraphic" in2="effect1_dropShadow" result="shape"/>
</filter>
<filter id="filter1_d" x="43.0662" y="66.9023" width="28.4041" height="35.4545" filterUnits="userSpaceOnUse" color-interpolation-filters="sRGB">
<feFlood flood-opacity="0" result="BackgroundImageFix"/>
<feColorMatrix in="SourceAlpha" type="matrix" values="0 0 0 0 0 0 0 0 0 0 0 0 0 0 0 0 0 0 127 0"/>
<feOffset dy="2"/>
<feGaussianBlur stdDeviation="2"/>
<feColorMatrix type="matrix" values="0 0 0 0 0 0 0 0 0 0 0 0 0 0 0 0 0 0 0.1 0"/>
<feBlend mode="normal" in2="BackgroundImageFix" result="effect1_dropShadow"/>
<feBlend mode="normal" in="SourceGraphic" in2="effect1_dropShadow" result="shape"/>
</filter>
<linearGradient id="paint0_linear" x1="77" y1="2.00252" x2="77" y2="170.003" gradientUnits="userSpaceOnUse">
<stop stop-color="#00ABDE"/>
<stop offset="1" stop-color="#007ED8"/>
</linearGradient>
<linearGradient id="paint1_linear" x1="77.0456" y1="80" x2="77.0456" y2="159.735" gradientUnits="userSpaceOnUse">
<stop stop-color="#0191FF" stop-opacity="0"/>
<stop offset="1" stop-color="#0767B0"/>
</linearGradient>
</defs>
</svg>
