<svg width="106" height="106" viewBox="0 0 106 106" fill="none" xmlns="http://www.w3.org/2000/svg">
<g filter="url(#filter0_d)">
<circle cx="53" cy="53" r="49" fill="#5197D5"/>
<circle cx="53" cy="53" r="50.75" stroke="#F2F1F0" stroke-width="3.5"/>
</g>
<circle cx="53" cy="53" r="48" stroke="#0078D4" stroke-width="4"/>
<path d="M60.1375 30.6523L50.7826 37.3879V50.2176H80.7826V30.6523H60.1375Z" fill="#005BA1"/>
<g filter="url(#filter1_d)">
<path d="M68.94 34.3826L38.6572 30.0002H38.0437C35.8294 29.9814 33.949 31.6173 33.6612 33.8129L32.5217 41.2193H72.5775V39.4225C72.7669 38.2713 72.4895 37.0921 71.8068 36.1462C71.124 35.2002 70.0923 34.5655 68.94 34.3826Z" fill="#0078D4"/>
<path d="M68.6333 36.2677L38.3943 31.8853H37.9998C36.7389 31.8949 35.6757 32.8276 35.5018 34.0765L34.45 41.2199H70.4739L70.7807 39.1601C70.881 38.4916 70.7108 37.8106 70.3078 37.2678C69.9049 36.725 69.3022 36.3651 68.6333 36.2677Z" fill="white"/>
</g>
<g filter="url(#filter2_d)">
<path fill-rule="evenodd" clip-rule="evenodd" d="M54.0434 35.2173L58.9348 40.1087H80.7826V71.9999C80.7826 73.6567 79.4395 74.9999 77.7826 74.9999H29C27.3431 74.9999 26 73.6567 26 71.9999V38.2173C26 36.5604 27.3431 35.2173 29 35.2173H54.0434Z" fill="url(#paint0_linear)"/>
</g>
<g filter="url(#filter3_d)">
<path d="M33.7877 49.4541H73.9732" stroke="white" stroke-width="1.5" stroke-linecap="round" stroke-linejoin="round"/>
<circle cx="63.8501" cy="49.4541" r="1.95407" fill="#2BBBDF" stroke="white"/>
<path d="M33.7877 58.0435H73.9732" stroke="white" stroke-width="1.5" stroke-linecap="round" stroke-linejoin="round"/>
<circle cx="42.9905" cy="58.0434" r="1.95407" fill="#2BBBDF" stroke="white"/>
<path d="M33.7877 66.6328H73.9732" stroke="white" stroke-width="1.5" stroke-linecap="round" stroke-linejoin="round"/>
<circle cx="57.7149" cy="66.6323" r="1.95407" fill="#2BBBDF" stroke="white"/>
</g>
<defs>
<filter id="filter0_d" x="0.5" y="0.5" width="105.5" height="105.5" filterUnits="userSpaceOnUse" color-interpolation-filters="sRGB">
<feFlood flood-opacity="0" result="BackgroundImageFix"/>
<feColorMatrix in="SourceAlpha" type="matrix" values="0 0 0 0 0 0 0 0 0 0 0 0 0 0 0 0 0 0 127 0"/>
<feOffset dx="0.5" dy="0.5"/>
<feColorMatrix type="matrix" values="0 0 0 0 0.823529 0 0 0 0 0.831373 0 0 0 0 0.835294 0 0 0 1 0"/>
<feBlend mode="normal" in2="BackgroundImageFix" result="effect1_dropShadow"/>
<feBlend mode="normal" in="SourceGraphic" in2="effect1_dropShadow" result="shape"/>
</filter>
<filter id="filter1_d" x="28.5217" y="28" width="48.1139" height="19.2199" filterUnits="userSpaceOnUse" color-interpolation-filters="sRGB">
<feFlood flood-opacity="0" result="BackgroundImageFix"/>
<feColorMatrix in="SourceAlpha" type="matrix" values="0 0 0 0 0 0 0 0 0 0 0 0 0 0 0 0 0 0 127 0"/>
<feOffset dy="2"/>
<feGaussianBlur stdDeviation="2"/>
<feColorMatrix type="matrix" values="0 0 0 0 0 0 0 0 0 0 0 0 0 0 0 0 0 0 0.15 0"/>
<feBlend mode="normal" in2="BackgroundImageFix" result="effect1_dropShadow"/>
<feBlend mode="normal" in="SourceGraphic" in2="effect1_dropShadow" result="shape"/>
</filter>
<filter id="filter2_d" x="22" y="33.2173" width="62.7826" height="47.7826" filterUnits="userSpaceOnUse" color-interpolation-filters="sRGB">
<feFlood flood-opacity="0" result="BackgroundImageFix"/>
<feColorMatrix in="SourceAlpha" type="matrix" values="0 0 0 0 0 0 0 0 0 0 0 0 0 0 0 0 0 0 127 0"/>
<feOffset dy="2"/>
<feGaussianBlur stdDeviation="2"/>
<feColorMatrix type="matrix" values="0 0 0 0 0 0 0 0 0 0 0 0 0 0 0 0 0 0 0.15 0"/>
<feBlend mode="normal" in2="BackgroundImageFix" result="effect1_dropShadow"/>
<feBlend mode="normal" in="SourceGraphic" in2="effect1_dropShadow" result="shape"/>
</filter>
<filter id="filter3_d" x="29.0377" y="45" width="49.6855" height="30.0864" filterUnits="userSpaceOnUse" color-interpolation-filters="sRGB">
<feFlood flood-opacity="0" result="BackgroundImageFix"/>
<feColorMatrix in="SourceAlpha" type="matrix" values="0 0 0 0 0 0 0 0 0 0 0 0 0 0 0 0 0 0 127 0"/>
<feOffset dy="2"/>
<feGaussianBlur stdDeviation="2"/>
<feColorMatrix type="matrix" values="0 0 0 0 0 0 0 0 0 0 0 0 0 0 0 0 0 0 0.15 0"/>
<feBlend mode="normal" in2="BackgroundImageFix" result="effect1_dropShadow"/>
<feBlend mode="normal" in="SourceGraphic" in2="effect1_dropShadow" result="shape"/>
</filter>
<linearGradient id="paint0_linear" x1="53.3913" y1="35.2173" x2="53.3913" y2="74.9999" gradientUnits="userSpaceOnUse">
<stop stop-color="#32D1F2"/>
<stop offset="1" stop-color="#1D94BC"/>
</linearGradient>
</defs>
</svg>
