<svg width="181" height="191" viewBox="0 0 181 191" fill="none" xmlns="http://www.w3.org/2000/svg">
<path d="M90.5324 189.122C87.476 189.122 84.465 188.274 81.802 186.656L19.827 148.995C14.2891 145.621 10.8545 139.297 10.8545 132.458V57.7425C10.8545 50.9186 14.2891 44.5789 19.827 41.2048L81.802 3.54462C87.128 0.306667 93.9519 0.321797 99.2476 3.54462L161.223 41.2199C166.761 44.594 170.21 50.9186 170.21 57.7577V132.458C170.21 138.222 167.759 143.639 163.659 147.21V147.237L99.2476 186.671C96.6149 188.274 93.5888 189.122 90.5324 189.122ZM89.8846 8.074C87.9327 8.074 85.4555 9.28692 83.7457 10.3309L22.989 47.5252C19.2366 49.8099 17.121 56.4061 17.121 61.1571L17.753 132.458C17.753 137.209 20.9519 141.476 24.7043 143.761L85.0999 180.143C88.5345 182.231 91.3249 182.231 94.7596 180.143L155.968 143.671C159.72 141.386 162.738 137.193 162.738 132.458V58.8099C162.738 54.074 160.006 49.178 156.238 46.8933L95.6623 10.3309C93.9526 9.28692 91.8364 8.074 89.8846 8.074Z" fill="#F2F1F0"/>
<path fill-rule="evenodd" clip-rule="evenodd" d="M82.6343 11.6546C85.0855 10.1567 87.809 9.40015 90.5325 9.40015C93.256 9.40015 95.9795 10.1567 98.4307 11.6546L154.565 45.986C159.589 49.0575 162.69 54.8072 162.69 61.0561V129.159C162.69 135.393 159.589 141.158 154.565 144.229L98.4307 178.561C95.9795 180.059 93.256 180.815 90.5325 180.815C87.809 180.815 85.0855 180.074 82.6343 178.561L26.4997 144.229C21.4763 141.158 18.3745 135.393 18.3745 129.159V61.0561C18.3745 54.8223 21.4763 49.0727 26.4997 45.986L82.6343 11.6546Z" fill="url(#paint0_linear)"/>
<path fill-rule="evenodd" clip-rule="evenodd" d="M90.5325 10.8761C88.8492 10.8761 86.9666 11.7418 84.8998 12.9998L26.4341 48.5423C22.7875 50.7586 20.3745 55.0356 20.3745 59.8608V130.339C20.3745 135.164 22.7873 139.441 26.4339 141.658L84.8988 177.2L84.8998 177.2C86.8578 178.392 88.7821 179.143 90.5325 179.143C92.2829 179.143 94.2072 178.392 96.1652 177.2L96.1662 177.2L154.628 141.659C154.629 141.659 154.63 141.658 154.631 141.658C156.644 140.43 158.09 139.229 159.073 137.618C160.049 136.015 160.69 133.8 160.69 130.339V59.8608C160.69 55.0356 158.278 50.7587 154.631 48.5424L96.1743 13.0053C96.1729 13.0045 96.1716 13.0037 96.1702 13.0029C94.0864 11.7499 92.2262 10.8761 90.5325 10.8761ZM82.82 9.58305C84.9292 8.29918 87.6463 6.8761 90.5325 6.8761C93.4374 6.8761 96.1453 8.32015 98.2359 9.57756L98.244 9.58244L156.709 45.1242C161.626 48.1129 164.69 53.7313 164.69 59.8608V130.339C164.69 134.296 163.955 137.294 162.488 139.7C161.027 142.096 158.964 143.7 156.711 145.074L156.709 145.076L98.245 180.617C98.2447 180.617 98.2444 180.617 98.244 180.618C96.0262 181.967 93.3512 183.143 90.5325 183.143C87.7138 183.143 85.0388 181.967 82.821 180.618M82.82 180.617L24.3564 145.076C24.3563 145.076 24.3564 145.076 24.3564 145.076C19.4391 142.087 16.3745 136.469 16.3745 130.339V59.8608C16.3745 53.7314 19.4389 48.113 24.3562 45.1243C24.3563 45.1243 24.3561 45.1244 24.3562 45.1243L82.82 9.58305" fill="#0078D4"/>
<path opacity="0.15" d="M147.053 93.3627L145.667 91.8358C145.433 91.493 145.199 91.1502 144.903 90.8386L127.094 71.3621L126.533 70.7389C126.533 70.7233 126.517 70.7233 126.502 70.7077L99.8579 41.5865C97.9103 39.4986 94.6226 39.4675 92.6438 41.5242L87.1281 47.2269L80.8956 40.7919C79.431 39.2805 76.9692 39.3428 75.5669 40.9321L29.8829 93.1134C27.8418 95.435 27.8418 98.9252 29.8673 101.262L75.1618 153.319C76.8601 155.282 79.8984 155.267 81.5968 153.319L86.7697 147.351L92.6438 153.444C94.6226 155.5 97.9414 155.469 99.8735 153.366L126.252 124.307C126.502 124.136 126.735 123.949 126.938 123.715L147.053 101.418C149.141 99.1433 149.126 95.6531 147.053 93.3627Z" fill="#1F1D20"/>
<path d="M91.7245 44.8119L80.9112 33.6558C79.4466 32.1444 76.9848 32.2067 75.598 33.796L29.8829 85.9773C27.8418 88.2989 27.8418 91.7891 29.8673 94.1263L75.1618 146.183C76.8601 148.146 79.8984 148.131 81.6124 146.183L95.1368 130.586L96.6326 50.2497L91.7245 44.8119Z" fill="url(#paint1_linear)"/>
<path d="M144.919 83.7026L99.8735 34.4661C97.9258 32.3782 94.6382 32.347 92.6594 34.4038L71.8586 55.8746C69.5993 58.2118 69.5681 61.9045 71.7807 64.2884L93.1113 87.1772C94.6694 88.8599 94.685 91.462 93.1268 93.1447L71.6872 116.283C69.4902 118.651 69.5214 122.344 71.7807 124.665L92.6438 146.308C94.6226 148.364 97.9414 148.333 99.8735 146.23L144.934 96.6193C148.269 92.9422 148.253 87.3486 144.919 83.7026Z" fill="url(#paint2_linear)"/>
<path d="M147.069 94.2977L126.953 116.579C125.426 118.261 122.809 118.324 121.219 116.688L101.011 96.0428C97.7386 92.6928 97.7231 87.3485 100.98 83.9985L120.799 63.5093C122.388 61.8732 125.021 61.92 126.548 63.6028L147.053 86.2266C149.125 88.517 149.141 91.9916 147.069 94.2977Z" fill="url(#paint3_linear)"/>
<path d="M109.113 151.745V157.682L143.064 138.112V132.113L109.113 151.745Z" fill="#50E6FF"/>
<path d="M110.328 138.408L110.406 144.407L144.357 124.759L144.279 118.822L110.328 138.408Z" fill="#50E6FF"/>
<path d="M110.328 125.133V131.069L144.279 111.499V105.563L110.328 125.133Z" fill="#50E6FF"/>
<path d="M125.645 103.49V98.598C115.408 104.534 107.181 99.7822 107.119 88.143C107.119 84.2945 108.007 80.1343 109.565 76.1299L107.041 75.9274L105.934 75.8495L107.041 75.9274L105.934 75.8495C101.79 86.5226 101.852 96.0115 106.012 101.87C110.219 107.729 117.34 108.321 125.645 103.49Z" fill="#50E6FF"/>
<path d="M125.644 103.491C138.094 96.3076 148.175 78.8099 148.175 64.4285C148.097 50.0471 138.016 44.2665 125.489 51.4494C117.184 56.264 110.063 65.0829 105.997 75.756L109.627 76.0521C112.743 67.9031 118.664 60.2683 125.489 56.3419C135.648 50.4834 143.952 55.1577 143.952 66.8748C143.952 78.5918 135.788 92.8174 125.644 98.6759V103.491Z" fill="url(#paint4_linear)"/>
<defs>
<linearGradient id="paint0_linear" x1="90.5325" y1="9.40272" x2="90.5325" y2="180.818" gradientUnits="userSpaceOnUse">
<stop stop-color="#00ABDE"/>
<stop offset="1" stop-color="#007ED8"/>
</linearGradient>
<linearGradient id="paint1_linear" x1="59.6395" y1="36.8261" x2="68.0222" y2="135.322" gradientUnits="userSpaceOnUse">
<stop stop-color="#A23093"/>
<stop offset="1" stop-color="#692266"/>
</linearGradient>
<linearGradient id="paint2_linear" x1="70.0687" y1="90.3489" x2="147.432" y2="90.3489" gradientUnits="userSpaceOnUse">
<stop stop-color="#E184C4"/>
<stop offset="1" stop-color="#D76EBC"/>
</linearGradient>
<linearGradient id="paint3_linear" x1="98.5467" y1="90.0971" x2="148.615" y2="90.0971" gradientUnits="userSpaceOnUse">
<stop stop-color="#E89BCA"/>
<stop offset="1" stop-color="#E591C8"/>
</linearGradient>
<linearGradient id="paint4_linear" x1="140.945" y1="40.4593" x2="137.828" y2="116.028" gradientUnits="userSpaceOnUse">
<stop stop-color="#ACF3FD"/>
<stop offset="0.4776" stop-color="#4DC1EA"/>
<stop offset="1" stop-color="#0078D4"/>
</linearGradient>
</defs>
</svg>
