<svg width="181" height="191" viewBox="0 0 181 191" fill="none" xmlns="http://www.w3.org/2000/svg">
<path d="M90.8535 189.571C93.9135 189.571 96.9235 188.721 99.5835 187.101L161.553 149.441C167.093 146.071 170.523 139.741 170.523 132.901V58.1914C170.523 51.3714 167.093 45.0314 161.553 41.6514L99.5835 3.99135C94.2535 0.751354 87.4335 0.771353 82.1335 3.99135L20.1635 41.6714C14.6235 45.0414 11.1735 51.3714 11.1735 58.2114V132.911C11.1735 138.671 13.6235 144.091 17.7235 147.661V147.691L82.1335 187.121C84.7735 188.721 87.7935 189.571 90.8535 189.571ZM91.5035 8.52135C93.4535 8.52135 95.9335 9.73135 97.6435 10.7814L158.403 47.9714C162.153 50.2514 164.273 56.8514 164.273 61.6014L163.643 132.901C163.643 137.651 160.443 141.921 156.693 144.201L96.2935 180.581C92.8635 182.671 90.0735 182.671 86.6335 180.581L25.4235 144.111C21.6735 141.831 18.6535 137.631 18.6535 132.901V59.2614C18.6535 54.5214 21.3835 49.6314 25.1535 47.3414L85.7335 10.7814C87.4335 9.74135 89.5535 8.52135 91.5035 8.52135Z" fill="#F2F1F0"/>
<path fill-rule="evenodd" clip-rule="evenodd" d="M98.7535 12.1013C96.3035 10.6013 93.5835 9.85132 90.8535 9.85132C88.1235 9.85132 85.4035 10.6113 82.9535 12.1013L26.8235 46.4313C21.8035 49.5013 18.6935 55.2513 18.6935 61.5013V129.601C18.6935 135.831 21.7935 141.601 26.8235 144.671L82.9535 179.001C85.4035 180.501 88.1235 181.251 90.8535 181.251C93.5835 181.251 96.3035 180.511 98.7535 179.001L154.883 144.671C159.903 141.601 163.013 135.831 163.013 129.601V61.5013C163.013 55.2713 159.913 49.5213 154.883 46.4313L98.7535 12.1013Z" fill="url(#paint0_linear)"/>
<path fill-rule="evenodd" clip-rule="evenodd" d="M90.8535 11.3213C92.5335 11.3213 94.4235 12.1913 96.4835 13.4413L154.953 48.9813C158.603 51.2013 161.013 55.4713 161.013 60.3013V130.781C161.013 135.601 158.603 139.881 154.953 142.101L96.4935 177.641C94.5335 178.831 92.6135 179.581 90.8635 179.581C89.1135 179.581 87.1935 178.831 85.2335 177.641L26.7535 142.111C24.7435 140.881 23.2935 139.681 22.3135 138.071C21.3335 136.471 20.6935 134.251 20.6935 130.791V60.3113C20.6935 55.4813 23.1035 51.2113 26.7535 48.9913L85.2135 13.4513C87.3035 12.2013 89.1635 11.3213 90.8535 11.3213ZM98.5635 181.071L157.023 145.531C161.943 142.541 165.003 136.921 165.003 130.791V60.3113C165.003 54.1813 161.943 48.5613 157.023 45.5713L98.5635 10.0313C96.4535 8.75129 93.7435 7.32129 90.8535 7.32129C87.9535 7.32129 85.2435 8.76129 83.1535 10.0213H83.1435L24.6735 45.5713C19.7535 48.5613 16.6935 54.1813 16.6935 60.3113V130.791C16.6935 134.751 17.4335 137.741 18.8935 140.151C20.3535 142.551 22.4135 144.151 24.6735 145.521L83.1335 181.061C85.3535 182.411 88.0235 183.591 90.8435 183.591C93.6635 183.591 96.3435 182.421 98.5635 181.071Z" fill="#0078D4"/>
<path d="M89.7535 160.131C80.0635 160.131 70.9735 153.661 64.1235 141.901C57.2435 130.101 53.4435 114.381 53.4235 97.6213C53.4035 80.8813 57.1635 65.1113 64.0035 53.2113C70.8535 41.2913 79.9935 34.6913 89.7235 34.6313C89.7635 34.6313 89.8135 34.6313 89.8535 34.6313C99.5435 34.6313 108.634 41.1013 115.484 52.8613C122.364 64.6813 126.164 80.4013 126.184 97.1413C126.204 113.881 122.444 129.651 115.604 141.551C108.764 153.451 99.6235 160.051 89.8835 160.131C89.8435 160.131 89.7935 160.131 89.7535 160.131ZM89.8635 34.8313C89.8235 34.8313 89.7735 34.8313 89.7335 34.8313C80.0735 34.8913 71.0035 41.4513 64.1835 53.3113C57.3535 65.1813 53.6035 80.9213 53.6235 97.6313C53.6435 114.351 57.4335 130.041 64.2935 141.811C71.1035 153.511 80.1435 159.941 89.7535 159.941C89.7935 159.941 89.8435 159.941 89.8835 159.941C99.5535 159.861 108.624 153.301 115.434 141.461C122.264 129.591 126.004 113.851 125.984 97.1513C125.964 80.4513 122.174 64.7613 115.314 52.9713C108.514 41.2613 99.4735 34.8313 89.8635 34.8313Z" fill="#F4F4F4"/>
<path d="M89.7536 160.431C79.9536 160.431 70.7736 153.911 63.8736 142.061C56.9736 130.221 53.1536 114.441 53.1336 97.6413C53.1136 80.8413 56.8836 65.0113 63.7536 53.0713C70.6636 41.0513 79.8836 34.4013 89.7236 34.3413C89.7636 34.3413 89.8136 34.3413 89.8536 34.3413C99.6436 34.3413 108.834 40.8613 115.734 52.7113C122.634 64.5713 126.454 80.3513 126.474 97.1313C126.494 113.921 122.724 129.741 115.854 141.691C108.954 153.691 99.7336 160.341 89.8836 160.421C89.8436 160.431 89.8036 160.431 89.7536 160.431ZM89.8636 35.1213C89.8236 35.1213 89.7736 35.1213 89.7336 35.1213C80.1836 35.1813 71.2036 41.6913 64.4336 53.4613C57.6336 65.2913 53.9036 80.9713 53.9136 97.6313C53.9336 114.301 57.7136 129.941 64.5436 141.661C71.2936 153.261 80.2436 159.641 89.7536 159.651C89.7936 159.651 89.8436 159.651 89.8836 159.651C99.4436 159.571 108.434 153.061 115.184 141.311C121.984 129.481 125.714 113.801 125.704 97.1413C125.684 80.4913 121.904 64.8513 115.074 53.1113C108.314 41.5113 99.3636 35.1213 89.8636 35.1213Z" fill="white"/>
<path d="M115.284 142.231C101.594 142.231 86.1036 137.631 71.6436 129.261C57.0836 120.841 45.2736 109.641 38.4136 97.7313C31.4836 85.7113 30.3436 74.3913 35.2236 65.8713C40.1036 57.3113 50.3736 52.5813 64.1536 52.5613C64.1836 52.5613 64.2136 52.5613 64.2436 52.5613C77.9836 52.5613 93.5136 57.1613 107.974 65.5313C122.534 73.9513 134.344 85.1513 141.204 97.0613C148.124 109.071 149.264 120.381 144.394 128.921C139.524 137.461 129.254 142.191 115.464 142.231C115.404 142.231 115.344 142.231 115.284 142.231ZM64.2336 53.3413C64.2036 53.3413 64.1736 53.3413 64.1436 53.3413C50.6636 53.3613 40.6236 57.9513 35.8936 66.2513C31.1636 74.5213 32.2936 85.5613 39.0836 97.3313C45.8836 109.121 57.5836 120.221 72.0336 128.581C86.4436 136.911 101.864 141.491 115.454 141.441C128.954 141.401 138.984 136.821 143.704 128.531C148.424 120.241 147.294 109.211 140.514 97.4513C133.714 85.6613 122.014 74.5613 107.564 66.2013C93.2336 57.9113 77.8436 53.3413 64.2336 53.3413Z" fill="white"/>
<path d="M89.7537 46.2612H89.5537V136.831H89.7537V46.2612Z" fill="white"/>
<path d="M132.814 122.791L45.4736 71.8814L45.5736 71.7114L132.934 122.551L132.814 122.791Z" fill="white"/>
<path d="M134.301 71.7929L45.1902 122.871L45.3593 123.166L134.47 72.0879L134.301 71.7929Z" fill="white"/>
<path d="M133.834 121.971C134.404 122.301 134.404 122.831 133.834 123.141C133.264 123.451 132.364 123.471 131.794 123.141C131.224 122.811 131.224 122.281 131.794 121.971C132.374 121.661 133.294 121.661 133.834 121.971Z" fill="white"/>
<path d="M134.644 71.6213C135.214 71.9513 135.214 72.4813 134.644 72.7913C134.074 73.1013 133.174 73.1213 132.604 72.7913C132.034 72.4613 132.034 71.9313 132.604 71.6213C133.174 71.2913 134.074 71.2913 134.644 71.6213Z" fill="white"/>
<path d="M46.6535 122.131C47.2235 122.461 47.2235 122.991 46.6535 123.301C46.0835 123.631 45.1835 123.631 44.6135 123.301C44.0435 122.971 44.0435 122.441 44.6135 122.131C45.1735 121.821 46.0935 121.821 46.6535 122.131Z" fill="white"/>
<path d="M105.714 105.591C106.284 105.921 106.284 106.451 105.714 106.761C105.144 107.091 104.244 107.091 103.674 106.761C103.104 106.431 103.104 105.901 103.674 105.591C104.254 105.261 105.154 105.261 105.714 105.591Z" fill="white"/>
<path d="M117.834 112.641C118.404 112.971 118.404 113.501 117.834 113.811C117.264 114.121 116.364 114.141 115.794 113.811C115.224 113.481 115.224 112.951 115.794 112.641C116.364 112.331 117.264 112.311 117.834 112.641Z" fill="white"/>
<path d="M90.6836 60.1913C91.2536 60.5213 91.2536 61.0513 90.6836 61.3613C90.1136 61.6913 89.2136 61.6913 88.6436 61.3613C88.0736 61.0313 88.0736 60.5013 88.6436 60.1913C89.2236 59.8613 90.1236 59.8613 90.6836 60.1913Z" fill="white"/>
<path d="M90.6836 45.5914C91.2536 45.9214 91.2536 46.4514 90.6836 46.7614C90.1136 47.0914 89.2136 47.0914 88.6436 46.7614C88.0736 46.4314 88.0736 45.9014 88.6436 45.5914C89.2236 45.2814 90.1236 45.2814 90.6836 45.5914Z" fill="white"/>
<path d="M90.7036 71.4212C91.2736 71.7512 91.2736 72.2812 90.7036 72.5912C90.1336 72.9212 89.2336 72.9212 88.6636 72.5912C88.0936 72.2612 88.0936 71.7312 88.6636 71.4212C89.2436 71.1112 90.1436 71.1112 90.7036 71.4212Z" fill="white"/>
<path d="M144.394 65.8513C139.524 57.3113 129.254 52.5813 115.464 52.5413C115.404 52.5413 115.344 52.5413 115.284 52.5413C101.614 52.5413 86.1236 57.1413 71.6436 65.5113C57.0836 73.9213 45.2736 85.1213 38.3936 97.0413C31.4636 109.031 30.3436 120.351 35.2236 128.901C40.0936 137.441 50.3636 142.171 64.1536 142.211V142.011C64.2136 142.011 64.2736 142.011 64.3336 142.011C77.9336 142.011 93.5436 137.541 107.934 129.251C107.944 129.251 108.104 129.151 108.104 129.151C108.124 129.141 108.144 129.131 108.154 129.121C113.144 126.231 117.854 122.981 122.134 119.481C130.164 112.921 136.764 105.391 141.204 97.7113C148.124 85.7013 149.254 74.3913 144.394 65.8513ZM140.524 97.3113C136.124 104.911 129.594 112.371 121.634 118.871C117.344 122.381 112.644 125.621 107.644 128.511C93.2836 136.811 77.8936 141.621 64.3236 141.621C64.2636 141.621 64.2036 141.621 64.1536 141.621V141.421C50.6536 141.381 40.6236 136.801 35.9036 128.511C31.1636 120.211 32.2936 109.171 39.0736 97.4313C45.8936 85.6213 57.6036 74.5213 72.0436 66.1813C86.4136 57.8813 101.764 53.3213 115.294 53.3213C115.354 53.3213 115.414 53.3213 115.464 53.3213C128.964 53.3613 138.994 57.9413 143.714 66.2313C148.434 74.5213 147.304 85.5613 140.524 97.3113Z" fill="white"/>
<path d="M47.4035 71.6413C47.9735 71.9713 47.9735 72.5013 47.4035 72.8113C46.8335 73.1413 45.9335 73.1413 45.3635 72.8113C44.7935 72.4813 44.7935 71.9513 45.3635 71.6413C45.9135 71.3113 46.8335 71.3113 47.4035 71.6413Z" fill="white"/>
<path d="M61.9236 80.0712C62.4936 80.4012 62.4936 80.9312 61.9236 81.2412C61.3536 81.5712 60.4536 81.5712 59.8836 81.2412C59.3136 80.9112 59.3136 80.3812 59.8836 80.0712C60.4536 79.7412 61.3536 79.7412 61.9236 80.0712Z" fill="white"/>
<path d="M74.7336 87.9814C75.3036 88.3114 75.3036 88.8414 74.7336 89.1514C74.1636 89.4814 73.2636 89.4814 72.6936 89.1514C72.1236 88.8214 72.1236 88.2914 72.6936 87.9814C73.2736 87.6514 74.1936 87.6514 74.7336 87.9814Z" fill="white"/>
<path d="M127.384 67.0814L125.904 63.7214C127.084 63.3014 125.034 63.7314 126.094 63.6614C127.794 63.5514 129.314 63.8914 130.584 64.6414L135.234 67.3414C133.164 66.1214 130.434 65.9814 127.384 67.0814Z" fill="#CDCDD0"/>
<path d="M116.233 60.8514C113.113 62.6514 110.293 65.7214 108.273 69.2214L105.943 65.8314C106.413 65.0014 104.633 64.8914 105.193 64.1314C107.003 61.6514 109.213 59.5414 111.593 58.1614C114.753 56.3314 117.613 56.1514 119.653 57.3314L124.303 60.0314C122.253 58.8414 119.393 59.0314 116.233 60.8514Z" fill="#CDCDD0"/>
<path d="M88.3236 63.0414L83.6736 60.3414C89.4736 56.9914 94.7136 56.6414 98.4336 58.8014L103.084 61.5014C99.3736 59.3414 94.1336 59.6814 88.3236 63.0414Z" fill="#CDCDD0"/>
<path d="M45.7535 126.491C45.7235 118.291 51.7335 108.121 59.1435 103.841C61.1235 102.691 62.9935 102.121 64.6935 101.991L69.3435 104.691C67.6435 104.821 65.7835 105.401 63.7935 106.541C56.3835 110.811 50.3835 120.971 50.4035 129.191C50.4135 133.171 51.8435 135.981 54.1535 137.321L49.5035 134.621C47.1935 133.271 45.7635 130.471 45.7535 126.491Z" fill="#CDCDD0"/>
<path d="M67.9636 97.4713C67.9736 100.301 68.4636 102.701 69.3236 104.691L64.6736 101.991C63.8136 100.011 63.3236 97.6113 63.3136 94.7713C63.2736 82.2613 72.3936 66.8413 83.6736 60.3213L88.3236 63.0213C77.0436 69.5513 67.9336 84.9613 67.9636 97.4713Z" fill="#CDCDD0"/>
<path opacity="0.8" d="M108.274 69.2115C110.284 65.7115 113.114 62.6415 116.234 60.8415C122.384 57.2915 127.374 59.9415 127.384 66.7515C127.384 66.8415 127.384 66.9815 127.384 67.0715C134.184 64.6315 139.344 68.3015 139.354 76.2815C139.384 85.3415 132.764 96.5315 124.604 101.241L63.8635 136.311C56.4535 140.581 50.4135 137.381 50.3935 129.171C50.3635 120.971 56.3735 110.801 63.7835 106.521C65.7635 105.371 67.6335 104.801 69.3335 104.671C68.4735 102.691 67.9835 100.291 67.9735 97.4515C67.9335 84.9415 77.0535 69.5215 88.3335 63.0015C98.0635 57.4015 106.224 60.2515 108.274 69.2115Z" fill="url(#paint1_linear)"/>
<path d="M125.673 66.7615V66.9115V67.0615C125.673 67.6215 125.943 68.1315 126.403 68.4515C126.693 68.6515 127.033 68.7615 127.373 68.7615C127.563 68.7615 127.763 68.7315 127.943 68.6615C129.133 68.2315 130.273 68.0115 131.333 68.0115C135.273 68.0115 137.633 71.1015 137.643 76.2815C137.653 80.3615 136.213 85.0615 133.583 89.5215C130.943 93.9915 127.453 97.6315 123.743 99.7615L63.0035 134.841C61.1135 135.931 59.2635 136.511 57.6735 136.511C54.1935 136.511 52.1035 133.771 52.0835 129.171C52.0735 125.511 53.3735 121.271 55.7535 117.241C58.1435 113.201 61.2835 109.921 64.6235 108.001C66.3035 107.031 67.9235 106.491 69.4435 106.371C69.9935 106.321 70.4935 106.021 70.7735 105.551C71.0535 105.081 71.1035 104.501 70.8735 103.991C70.0735 102.141 69.6635 99.9415 69.6535 97.4515C69.6335 91.7015 71.6535 85.0915 75.3535 78.8515C79.0535 72.6015 83.9535 67.5015 89.1635 64.4915C92.1935 62.7515 95.1535 61.8215 97.7435 61.8215C102.313 61.8215 105.463 64.5715 106.603 69.5815C106.753 70.2615 107.323 70.7815 108.013 70.8815C108.093 70.8915 108.183 70.9015 108.273 70.9015C108.873 70.9015 109.443 70.5815 109.753 70.0415C111.673 66.7015 114.343 63.8815 117.093 62.2915C118.623 61.4115 120.103 60.9415 121.373 60.9415C125.243 60.9815 125.673 65.0215 125.673 66.7615ZM116.223 60.8515C113.103 62.6515 110.283 65.7215 108.263 69.2215C106.923 63.3815 103.003 60.1315 97.7435 60.1315C94.9135 60.1315 91.7235 61.0615 88.3135 63.0315C77.0335 69.5415 67.9235 84.9515 67.9535 97.4715C67.9635 100.291 68.4535 102.701 69.3135 104.691C67.6135 104.821 65.7535 105.401 63.7635 106.541C56.3735 110.811 50.3635 120.971 50.3835 129.191C50.4035 134.931 53.3635 138.221 57.6735 138.221C59.5235 138.221 61.6235 137.611 63.8635 136.321L124.613 101.251C132.783 96.5315 139.393 85.3515 139.363 76.2915C139.343 69.9515 136.093 66.3315 131.353 66.3315C130.123 66.3315 128.793 66.5815 127.393 67.0815C127.393 66.9915 127.393 66.8515 127.393 66.7615C127.373 61.9915 124.943 59.2715 121.373 59.2715C119.823 59.2715 118.073 59.7815 116.223 60.8515Z" fill="white"/>
<path d="M80.7635 93.8715C80.8835 93.8215 81.0035 93.7915 81.1135 93.7915C81.2035 93.7915 81.2735 93.8115 81.3435 93.8415C81.4835 93.9215 81.5135 94.1015 81.5135 94.2315C81.5135 94.7815 81.1235 95.4515 80.6035 95.8015C80.3935 95.9015 80.1635 95.9215 80.0235 95.8315C79.8835 95.7415 79.8535 95.5715 79.8535 95.4415V95.4015C79.7735 94.8815 80.2535 94.2115 80.7635 93.8715Z" fill="white"/>
<path d="M80.7334 98.1415C80.8634 98.0815 80.9934 98.0415 81.1134 98.0415C81.1934 98.0415 81.2734 98.0615 81.3434 98.0915C81.4834 98.1815 81.5134 98.3515 81.5134 98.4815C81.5134 99.0315 81.1234 99.7015 80.6034 100.052C80.3934 100.152 80.1634 100.172 80.0234 100.082C79.8934 100.002 79.8534 99.8215 79.8534 99.6915C79.8434 99.1215 80.2734 98.3815 80.7334 98.1415Z" fill="white"/>
<path d="M80.6036 87.7515C80.3936 87.8515 80.1636 87.8715 80.0236 87.7815C79.8836 87.7015 79.8536 87.5215 79.8536 87.3915V87.3515C79.7736 86.7815 80.1936 86.0715 80.7336 85.8415C80.8736 85.7715 81.0036 85.7415 81.1236 85.7415C81.2036 85.7415 81.2836 85.7615 81.3436 85.7915C81.4836 85.8715 81.5136 86.0515 81.5136 86.1815C81.5136 86.7215 81.1236 87.4015 80.6036 87.7515Z" fill="white"/>
<path d="M80.6035 91.9214C80.3935 92.0214 80.1635 92.0414 80.0235 91.9514C79.8835 91.8614 79.8535 91.6914 79.8535 91.5614V91.5214C79.7835 90.9914 80.1635 90.3414 80.7535 89.9914C80.8835 89.9314 81.0135 89.9014 81.1135 89.9014C81.1935 89.9014 81.2735 89.9214 81.3435 89.9514C81.4835 90.0414 81.5135 90.2114 81.5135 90.3414C81.5135 90.8914 81.1235 91.5614 80.6035 91.9214Z" fill="white"/>
<path d="M80.7635 101.651C80.8835 101.601 81.0035 101.571 81.1135 101.571C81.2035 101.571 81.2735 101.591 81.3435 101.621C81.4835 101.701 81.5135 101.881 81.5135 102.011C81.5135 102.561 81.1235 103.231 80.6035 103.581C80.3935 103.681 80.1635 103.701 80.0235 103.611C79.8835 103.531 79.8535 103.351 79.8535 103.221C79.8435 102.671 80.2435 102.001 80.7635 101.651Z" fill="white"/>
<path d="M80.7334 105.921C80.8734 105.861 80.9934 105.821 81.1134 105.821C81.1934 105.821 81.2734 105.841 81.3434 105.871C81.4834 105.951 81.5134 106.131 81.5134 106.261C81.5134 106.811 81.1234 107.481 80.6034 107.831C80.3934 107.931 80.1634 107.951 80.0234 107.861C79.8834 107.771 79.8534 107.601 79.8534 107.471C79.8434 106.891 80.2734 106.151 80.7334 105.921Z" fill="white"/>
<path d="M84.2734 91.9313C84.3934 91.8813 84.5134 91.8513 84.6234 91.8513C84.7134 91.8513 84.7834 91.8713 84.8534 91.9013C84.9934 91.9913 85.0234 92.1613 85.0234 92.2913C85.0234 92.8613 84.6034 93.5213 84.0334 93.8513C83.8134 93.9613 83.5834 93.9813 83.4434 93.8913C83.3034 93.8113 83.2834 93.6413 83.2734 93.5213C83.3634 92.9213 83.7834 92.2513 84.2734 91.9313Z" fill="white"/>
<path d="M84.2734 96.0915C84.3934 96.0415 84.5134 96.0115 84.6234 96.0115C84.7134 96.0115 84.7834 96.0315 84.8534 96.0615C84.9934 96.1415 85.0234 96.3215 85.0234 96.4515C85.0234 97.0215 84.6034 97.6815 84.0334 98.0115C83.8134 98.1215 83.5834 98.1415 83.4434 98.0515C83.3034 97.9715 83.2834 97.8015 83.2734 97.6815C83.3634 97.0815 83.7834 96.4315 84.2734 96.0915Z" fill="white"/>
<path d="M84.2536 83.8915C84.3936 83.8315 84.5136 83.7915 84.6336 83.7915C84.7136 83.7915 84.7936 83.8115 84.8636 83.8415C85.0036 83.9215 85.0336 84.1015 85.0336 84.2315C85.0336 84.7915 84.6036 85.4615 84.0436 85.7915C83.8236 85.9015 83.5936 85.9215 83.4536 85.8315C83.3136 85.7515 83.2836 85.5715 83.2836 85.4415C83.2736 84.9115 83.7536 84.1315 84.2536 83.8915Z" fill="white"/>
<path d="M84.2734 88.0414C84.3934 87.9914 84.5134 87.9614 84.6234 87.9614C84.7134 87.9614 84.7834 87.9814 84.8534 88.0114C84.9934 88.1014 85.0234 88.2714 85.0234 88.4014C85.0234 88.9714 84.6034 89.6314 84.0334 89.9614C83.8134 90.0714 83.5834 90.0914 83.4434 90.0014C83.3034 89.9214 83.2834 89.7514 83.2734 89.6314C83.3634 89.0414 83.7834 88.3714 84.2734 88.0414Z" fill="white"/>
<path d="M84.2734 99.7013C84.3934 99.6513 84.5134 99.6213 84.6234 99.6213C84.7134 99.6213 84.7834 99.6413 84.8534 99.6713C84.9934 99.7513 85.0234 99.9313 85.0234 100.061C85.0234 100.621 84.5934 101.291 84.0334 101.621C83.8134 101.731 83.5834 101.751 83.4434 101.661C83.3034 101.581 83.2834 101.411 83.2734 101.291C83.3634 100.701 83.7934 100.031 84.2734 99.7013Z" fill="white"/>
<path d="M84.2734 103.872C84.3934 103.822 84.5134 103.792 84.6234 103.792C84.7134 103.792 84.7834 103.811 84.8534 103.841C84.9934 103.931 85.0234 104.102 85.0234 104.232C85.0234 104.802 84.6034 105.462 84.0334 105.792C83.8134 105.902 83.5834 105.922 83.4434 105.832C83.3034 105.752 83.2834 105.582 83.2734 105.462C83.3634 104.872 83.7834 104.202 84.2734 103.872Z" fill="white"/>
<path d="M87.7935 89.9914C87.9135 89.9414 88.0335 89.9114 88.1435 89.9114C88.2335 89.9114 88.3035 89.9314 88.3735 89.9614C88.5135 90.0514 88.5435 90.2214 88.5435 90.3514C88.5435 90.9014 88.1535 91.5714 87.6335 91.9214C87.4235 92.0214 87.1935 92.0414 87.0535 91.9514C86.9135 91.8614 86.8835 91.6914 86.8835 91.5614C86.8735 91.0114 87.2735 90.3314 87.7935 89.9914Z" fill="white"/>
<path d="M87.8735 94.1613C88.0035 94.1013 88.1335 94.0713 88.2335 94.0713C88.3135 94.0713 88.3935 94.0913 88.4635 94.1213C88.6035 94.2013 88.6335 94.3813 88.6335 94.5113C88.6335 95.0613 88.2435 95.7313 87.7235 96.0813C87.5135 96.1813 87.2835 96.2013 87.1435 96.1113C87.0035 96.0213 86.9735 95.8513 86.9735 95.7213V95.6813C86.8935 95.1513 87.2835 94.5013 87.8735 94.1613Z" fill="white"/>
<path d="M87.7635 81.9513C87.9035 81.8913 88.0235 81.8513 88.1435 81.8513C88.2235 81.8513 88.3035 81.8713 88.3735 81.9013C88.5135 81.9813 88.5435 82.1613 88.5435 82.2913C88.5435 82.8413 88.1535 83.5113 87.6335 83.8613C87.4235 83.9613 87.1935 83.9813 87.0535 83.8913C86.9135 83.8113 86.8835 83.6313 86.8835 83.5013C86.8735 82.9113 87.3035 82.1813 87.7635 81.9513Z" fill="white"/>
<path d="M87.7935 86.0915C87.9135 86.0415 88.0335 86.0115 88.1435 86.0115C88.2335 86.0115 88.3035 86.0315 88.3735 86.0615C88.5135 86.1515 88.5435 86.3215 88.5435 86.4515C88.5435 87.0015 88.1535 87.6715 87.6335 88.0215C87.4235 88.1215 87.1935 88.1415 87.0535 88.0515C86.9135 87.9715 86.8835 87.7915 86.8835 87.6615C86.8735 87.1115 87.2735 86.4415 87.7935 86.0915Z" fill="white"/>
<path d="M87.8735 97.7714C88.0035 97.7114 88.1335 97.6814 88.2335 97.6814C88.3135 97.6814 88.3935 97.7014 88.4635 97.7314C88.6035 97.8114 88.6335 97.9914 88.6335 98.1214C88.6335 98.6714 88.2435 99.3414 87.7235 99.6914C87.5135 99.7914 87.2835 99.8114 87.1435 99.7214C87.0035 99.6414 86.9735 99.4614 86.9735 99.3314V99.2914C86.8935 98.7614 87.2835 98.1114 87.8735 97.7714Z" fill="white"/>
<path d="M87.8836 101.921C88.0036 101.871 88.1236 101.841 88.2336 101.841C88.3236 101.841 88.3936 101.861 88.4636 101.891C88.6036 101.971 88.6336 102.151 88.6336 102.281C88.6336 102.831 88.2436 103.501 87.7236 103.851C87.5136 103.951 87.2836 103.971 87.1436 103.881C87.0036 103.801 86.9736 103.621 86.9736 103.491V103.451C86.8936 102.931 87.3736 102.271 87.8836 101.921Z" fill="white"/>
<path d="M91.3537 88.0614C91.4937 87.9914 91.6237 87.9514 91.7437 87.9514C91.8237 87.9514 91.9037 87.9714 91.9637 88.0014C92.1037 88.0914 92.1337 88.2614 92.1337 88.3914C92.1337 88.9414 91.7437 89.6114 91.2237 89.9614C91.0137 90.0614 90.7837 90.0814 90.6437 89.9914C90.5037 89.9114 90.4737 89.7314 90.4737 89.6014V89.5714C90.3937 89.0114 90.8137 88.2914 91.3537 88.0614Z" fill="white"/>
<path d="M91.4037 92.2113C91.5237 92.1613 91.6437 92.1313 91.7537 92.1313C91.8437 92.1313 91.9137 92.1514 91.9837 92.1814C92.1237 92.2714 92.1537 92.4414 92.1537 92.5714C92.1537 93.1214 91.7637 93.7913 91.2437 94.1413C91.0337 94.2413 90.8037 94.2613 90.6637 94.1713C90.5237 94.0813 90.4937 93.9113 90.4937 93.7813V93.7413C90.4037 93.2113 90.8937 92.5513 91.4037 92.2113Z" fill="white"/>
<path d="M91.2334 81.9214C91.0234 82.0214 90.7934 82.0414 90.6534 81.9514C90.5134 81.8714 90.4834 81.6914 90.4834 81.5614V81.5214C90.4034 80.9514 90.8234 80.2414 91.3634 80.0114C91.5034 79.9414 91.6334 79.9014 91.7534 79.9014C91.8334 79.9014 91.9134 79.9214 91.9734 79.9514C92.1134 80.0314 92.1434 80.2114 92.1434 80.3414C92.1434 80.8914 91.7534 81.5714 91.2334 81.9214Z" fill="white"/>
<path d="M91.3535 84.1713C91.4935 84.1013 91.6235 84.0613 91.7435 84.0613C91.8235 84.0613 91.9035 84.0813 91.9635 84.1113C92.1035 84.1913 92.1335 84.3713 92.1335 84.5013C92.1335 85.0513 91.7435 85.7213 91.2235 86.0713C90.9635 86.1813 90.6935 86.1913 90.5435 86.0913C90.4335 86.0213 90.3835 85.8913 90.3835 85.7113C90.3935 85.1813 90.7935 84.4213 91.3535 84.1713Z" fill="white"/>
<path d="M91.3736 95.8314C91.5136 95.7714 91.6336 95.7314 91.7536 95.7314C91.8336 95.7314 91.9136 95.7514 91.9736 95.7814C92.1136 95.8614 92.1436 96.0414 92.1436 96.1714C92.1436 96.7214 91.7536 97.3914 91.2336 97.7414C91.0236 97.8414 90.7936 97.8614 90.6536 97.7714C90.5136 97.6814 90.4836 97.5114 90.4836 97.3814C90.4836 96.8014 90.9036 96.0614 91.3736 95.8314Z" fill="white"/>
<path d="M94.8836 86.1115C95.0136 86.0515 95.1436 86.0115 95.2636 86.0115C95.3436 86.0115 95.4236 86.0315 95.4936 86.0615C95.6336 86.1515 95.6636 86.3215 95.6636 86.4515C95.6636 87.0115 95.2336 87.6815 94.6736 88.0115C94.4536 88.1215 94.2136 88.1415 94.0836 88.0515C93.9436 87.9715 93.9236 87.8015 93.9136 87.6815C93.9836 87.1115 94.3936 86.3515 94.8836 86.1115Z" fill="white"/>
<path d="M94.9136 90.2614C95.0336 90.2114 95.1536 90.1814 95.2636 90.1814C95.3536 90.1814 95.4236 90.2014 95.4936 90.2314C95.6336 90.3214 95.6636 90.4914 95.6636 90.6214C95.6636 91.1814 95.2336 91.8514 94.6736 92.1814C94.4536 92.2914 94.2136 92.3114 94.0836 92.2214C93.9436 92.1414 93.9236 91.9714 93.9136 91.8514C93.9836 91.2514 94.4136 90.6014 94.9136 90.2614Z" fill="white"/>
<path d="M94.9035 77.9613C95.0335 77.9013 95.1635 77.8713 95.2635 77.8713C95.3435 77.8713 95.4235 77.8913 95.4935 77.9213C95.6335 78.0113 95.6635 78.1813 95.6635 78.3113C95.6635 78.8713 95.2335 79.5413 94.6735 79.8713C94.4535 79.9813 94.2135 80.0013 94.0835 79.9113C93.9435 79.8213 93.9135 79.6513 93.9135 79.5213C93.8935 78.9413 94.3135 78.2813 94.9035 77.9613Z" fill="white"/>
<path d="M94.8835 82.2213C95.0235 82.1613 95.1435 82.1213 95.2635 82.1213C95.3435 82.1213 95.4235 82.1413 95.4835 82.1713C95.6235 82.2513 95.6535 82.4313 95.6535 82.5613C95.6535 83.1213 95.2235 83.7913 94.6635 84.1213C94.4435 84.2313 94.2035 84.2513 94.0735 84.1613C93.9335 84.0813 93.9035 83.9013 93.9035 83.7713C93.8935 83.2413 94.3935 82.4713 94.8835 82.2213Z" fill="white"/>
<path d="M94.8836 93.8915C95.0236 93.8315 95.1436 93.7915 95.2636 93.7915C95.3436 93.7915 95.4236 93.8115 95.4836 93.8415C95.6236 93.9215 95.6536 94.1015 95.6536 94.2315C95.6536 94.8015 95.2236 95.4615 94.6636 95.7915C94.4436 95.9015 94.2036 95.9215 94.0736 95.8315C93.9336 95.7515 93.9136 95.5815 93.9036 95.4615C93.9836 94.8915 94.3936 94.1315 94.8836 93.8915Z" fill="white"/>
<path d="M98.4036 84.1615C98.5636 84.0715 98.7136 84.0115 98.8336 84.0115C98.8936 84.0115 98.9536 84.0215 98.9936 84.0515C99.1136 84.1115 99.1736 84.2815 99.1736 84.5015C99.1736 85.0515 98.7836 85.7215 98.2636 86.0715C98.0536 86.1715 97.8236 86.1915 97.6836 86.1015C97.5436 86.0215 97.5136 85.8415 97.5136 85.7115C97.5036 85.1415 97.9336 84.4015 98.4036 84.1615Z" fill="white"/>
<path d="M98.4236 76.0114C98.5436 75.9614 98.6636 75.9314 98.7736 75.9314C98.8636 75.9314 98.9336 75.9514 99.0036 75.9814C99.1436 76.0714 99.1736 76.2414 99.1736 76.3714C99.1736 76.9214 98.7836 77.5914 98.2636 77.9414C98.0536 78.0414 97.8236 78.0614 97.6836 77.9714C97.5436 77.8914 97.5136 77.7114 97.5136 77.5814C97.5036 77.0314 97.8936 76.3514 98.4236 76.0114Z" fill="white"/>
<path d="M98.4036 80.2814C98.5436 80.2214 98.6636 80.1814 98.7836 80.1814C98.8636 80.1814 98.9436 80.2014 99.0036 80.2314C99.1436 80.3114 99.1736 80.4914 99.1736 80.6214C99.1736 81.1714 98.7836 81.8414 98.2636 82.1914C98.0536 82.2914 97.8236 82.3114 97.6836 82.2214C97.5436 82.1414 97.5136 81.9614 97.5136 81.8314C97.5036 81.2514 97.9336 80.5114 98.4036 80.2814Z" fill="white"/>
<path d="M106.653 94.3814L106.633 90.6214L100.193 94.3414L100.173 86.9314L96.9034 88.8214L96.9234 96.2314L90.4834 99.9514L90.4934 103.711L96.9334 100.001L96.9534 107.401L100.233 105.501L100.203 98.1014L106.653 94.3814Z" fill="white"/>
<defs>
<linearGradient id="paint0_linear" x1="90.8535" y1="9.85162" x2="90.8535" y2="181.252" gradientUnits="userSpaceOnUse">
<stop stop-color="#00ABDE"/>
<stop offset="1" stop-color="#007ED8"/>
</linearGradient>
<linearGradient id="paint1_linear" x1="80.3108" y1="83.1733" x2="109.035" y2="121.346" gradientUnits="userSpaceOnUse">
<stop stop-color="#007ED8"/>
<stop offset="0.7065" stop-color="#002D4C"/>
</linearGradient>
</defs>
</svg>
