<svg width="106" height="106" viewBox="0 0 106 106" fill="none" xmlns="http://www.w3.org/2000/svg">
<g filter="url(#filter0_d)">
<circle cx="53" cy="53" r="49" fill="#5197D5"/>
<circle cx="53" cy="53" r="50.75" stroke="#F2F1F0" stroke-width="3.5"/>
</g>
<circle cx="53" cy="53" r="48" stroke="#0078D4" stroke-width="4"/>
<g filter="url(#filter1_d)">
<path d="M64.7408 78.5016C58.7051 77.5339 58.4678 73.1106 58.4678 65.9573H46.4983C46.4983 73.1106 46.2949 77.5339 40.2592 78.5016C38.5336 78.6962 37.2309 80.1878 37.2414 81.9573H67.7586C67.7691 80.1878 66.4664 78.6962 64.7408 78.5016Z" fill="url(#paint0_linear)"/>
<mask id="mask0" mask-type="alpha" maskUnits="userSpaceOnUse" x="23" y="28" width="59" height="39">
<path fill-rule="evenodd" clip-rule="evenodd" d="M23 28H81.9063V66.8699H23V28Z" fill="white"/>
</mask>
<g mask="url(#mask0)">
<path fill-rule="evenodd" clip-rule="evenodd" d="M79.9556 28C81.033 28 81.9063 28.8646 81.9063 29.9314V64.9384C81.9063 66.0052 81.033 66.8699 79.9556 66.8699H24.9507C23.8734 66.8699 22.9999 66.0052 22.9999 64.9384V29.9314C22.9999 28.8646 23.8734 28 24.9507 28H79.9556Z" fill="url(#paint1_linear)"/>
</g>
</g>
<circle cx="52.5" cy="46.5" r="12.5" fill="url(#paint2_linear)" fill-opacity="0.7"/>
<circle cx="52.5" cy="46.5" r="9.5" fill="url(#paint3_linear)"/>
<path d="M52.1786 49.5L51.4505 50.1855L52.2018 50.9834L52.9277 50.1624L52.1786 49.5ZM64.2509 34.3376L51.4295 48.8376L52.9277 50.1624L65.7491 35.6624L64.2509 34.3376ZM52.9067 48.8145L47.7281 43.3145L46.2719 44.6855L51.4505 50.1855L52.9067 48.8145Z" fill="white"/>
<defs>
<filter id="filter0_d" x="0.5" y="0.5" width="105.5" height="105.5" filterUnits="userSpaceOnUse" color-interpolation-filters="sRGB">
<feFlood flood-opacity="0" result="BackgroundImageFix"/>
<feColorMatrix in="SourceAlpha" type="matrix" values="0 0 0 0 0 0 0 0 0 0 0 0 0 0 0 0 0 0 127 0"/>
<feOffset dx="0.5" dy="0.5"/>
<feColorMatrix type="matrix" values="0 0 0 0 0.823529 0 0 0 0 0.831373 0 0 0 0 0.835294 0 0 0 1 0"/>
<feBlend mode="normal" in2="BackgroundImageFix" result="effect1_dropShadow"/>
<feBlend mode="normal" in="SourceGraphic" in2="effect1_dropShadow" result="shape"/>
</filter>
<filter id="filter1_d" x="19" y="26" width="66.9063" height="61.9573" filterUnits="userSpaceOnUse" color-interpolation-filters="sRGB">
<feFlood flood-opacity="0" result="BackgroundImageFix"/>
<feColorMatrix in="SourceAlpha" type="matrix" values="0 0 0 0 0 0 0 0 0 0 0 0 0 0 0 0 0 0 127 0"/>
<feOffset dy="2"/>
<feGaussianBlur stdDeviation="2"/>
<feColorMatrix type="matrix" values="0 0 0 0 0 0 0 0 0 0 0 0 0 0 0 0 0 0 0.1 0"/>
<feBlend mode="normal" in2="BackgroundImageFix" result="effect1_dropShadow"/>
<feBlend mode="normal" in="SourceGraphic" in2="effect1_dropShadow" result="shape"/>
</filter>
<linearGradient id="paint0_linear" x1="67.7586" y1="81.9573" x2="67.7586" y2="65.9573" gradientUnits="userSpaceOnUse">
<stop offset="0.15" stop-color="#CCCCCC"/>
<stop offset="1" stop-color="#707070"/>
</linearGradient>
<linearGradient id="paint1_linear" x1="23.1974" y1="28.2606" x2="23.1974" y2="66.8699" gradientUnits="userSpaceOnUse">
<stop stop-color="#6A6A6A"/>
<stop offset="1" stop-color="#343333"/>
</linearGradient>
<linearGradient id="paint2_linear" x1="52.5" y1="34" x2="52.5" y2="59" gradientUnits="userSpaceOnUse">
<stop stop-color="#8FE45A"/>
<stop offset="1" stop-color="#19C15C"/>
</linearGradient>
<linearGradient id="paint3_linear" x1="52.5" y1="37" x2="52.5" y2="56" gradientUnits="userSpaceOnUse">
<stop stop-color="#8FE45A"/>
<stop offset="1" stop-color="#19C15C"/>
</linearGradient>
</defs>
</svg>
