<svg width="103" height="103" viewBox="0 0 103 103" fill="none" xmlns="http://www.w3.org/2000/svg">
<path d="M51.696 98.368C25.846 98.368 4.88605 77.418 4.88605 51.558C4.88605 25.698 25.846 4.74805 51.696 4.74805C77.546 4.74805 98.506 25.708 98.506 51.558C98.506 77.408 77.546 98.368 51.696 98.368Z" fill="url(#paint0_linear_331_15016)"/>
<path fill-rule="evenodd" clip-rule="evenodd" d="M97.596 51.558C97.596 76.908 77.046 97.458 51.696 97.458C26.346 97.458 5.79603 76.908 5.79603 51.558C5.79603 26.208 26.346 5.65797 51.696 5.65797C77.046 5.65797 97.596 26.208 97.596 51.558ZM51.696 1.91797C79.116 1.91797 101.336 24.138 101.336 51.558C101.336 78.978 79.106 101.198 51.696 101.198C24.276 101.198 2.05603 78.968 2.05603 51.558C2.05603 24.138 24.276 1.91797 51.696 1.91797Z" fill="#F2F1F0"/>
<path fill-rule="evenodd" clip-rule="evenodd" d="M94.786 51.5585C94.786 75.3585 75.496 94.6485 51.696 94.6485C27.896 94.6485 8.60603 75.3585 8.60603 51.5585C8.60603 27.7585 27.896 8.46852 51.696 8.46852C75.496 8.46852 94.786 27.7585 94.786 51.5585ZM51.696 4.72852C77.556 4.72852 98.526 25.6985 98.526 51.5585C98.526 77.4185 77.556 98.3885 51.696 98.3885C25.836 98.3885 4.86603 77.4185 4.86603 51.5585C4.86603 25.6985 25.826 4.72852 51.696 4.72852Z" fill="url(#paint1_linear_331_15016)"/>
<path opacity="0.15" d="M23.1361 76.7898H80.2561C81.8561 76.7898 83.1561 75.4898 83.1561 73.8898V28.3398H20.2361V73.8898C20.2361 75.4898 21.5361 76.7898 23.1361 76.7898Z" fill="#1F1D20"/>
<path d="M21.4361 75.4676H81.9561C82.6161 75.4676 83.1561 74.9276 83.1561 74.2676V27.0176H20.2361V74.2676C20.2361 74.9276 20.7761 75.4676 21.4361 75.4676Z" fill="#EBEBEB"/>
<path d="M20.2361 32.2475H83.1561V26.6075C83.1561 26.0975 82.7461 25.6875 82.2361 25.6875H21.1561C20.6461 25.6875 20.2361 26.0975 20.2361 26.6075V32.2475Z" fill="#092E4C"/>
<path d="M25.0761 30.6978C25.9561 30.6978 26.6761 29.9878 26.6761 29.0978C26.6761 28.2078 25.9461 27.5078 25.0761 27.5078C24.1961 27.5078 23.4761 28.2178 23.4761 29.1078C23.4761 29.9978 24.1761 30.6978 25.0761 30.6978Z" fill="#32B0E7"/>
<path opacity="0.15" d="M47.2997 38.709H25.1494V70.9245H47.2997V38.709Z" fill="#1F1D20"/>
<path d="M47.2997 37.834H25.1494V70.0495H47.2997V37.834Z" fill="#185A97"/>
<path d="M43.2685 41.8652H29.1807V47.8992H43.2771V41.8652H43.2685Z" fill="#D5F9FD"/>
<path d="M31.192 51.9297H29.1807V53.941H31.192V51.9297Z" fill="#84ECFD"/>
<path d="M31.192 57.9648H29.1807V59.9762H31.192V57.9648Z" fill="#50E6FF"/>
<path d="M31.192 64.0156H29.1807V66.027H31.192V64.0156Z" fill="#32B0E7"/>
<path d="M37.2345 51.9297H35.2231V53.941H37.2345V51.9297Z" fill="#84ECFD"/>
<path d="M37.2345 57.9648H35.2231V59.9762H37.2345V57.9648Z" fill="#50E6FF"/>
<path d="M37.2345 64.0156H35.2231V66.027H37.2345V64.0156Z" fill="#32B0E7"/>
<path d="M43.2685 51.9297H41.2571V53.941H43.2685V51.9297Z" fill="#84ECFD"/>
<path d="M43.2685 57.9648H41.2571V59.9762H43.2685V57.9648Z" fill="#50E6FF"/>
<path d="M43.2685 64.0156H41.2571V66.027H43.2685V64.0156Z" fill="#32B0E7"/>
<path d="M87.918 55.0886L86.518 56.4386L89.978 60.0286L92.068 57.9386L91.388 54.8086L87.918 55.0886Z" fill="url(#paint2_linear_331_15016)"/>
<path d="M75.518 67.449L74.118 68.789L77.618 72.369L79.628 70.349L78.958 67.209L75.518 67.449Z" fill="url(#paint3_linear_331_15016)"/>
<path d="M91.878 54.5893C90.908 53.6193 89.708 53.2393 89.178 53.7293H89.168L87.638 55.2793C87.628 55.2893 87.638 55.3093 87.658 55.2993C88.238 54.9793 89.338 55.3793 90.248 56.2693C91.068 57.0893 91.468 58.0693 91.298 58.6793C91.298 58.6993 91.308 58.7093 91.318 58.6893L92.718 57.2993L92.728 57.2893C92.728 57.2893 92.728 57.2893 92.728 57.2793L92.738 57.2693C93.228 56.7693 92.848 55.5693 91.878 54.5893Z" fill="#092E4C"/>
<path d="M89.358 57.1101C88.398 56.1501 87.218 55.7701 86.668 56.2401L75.198 67.7101C75.178 67.7301 75.198 67.7701 75.228 67.7601C75.838 67.5301 76.848 67.9201 77.708 68.7801C78.508 69.5801 78.908 70.5301 78.768 71.1501C78.758 71.1801 78.808 71.2101 78.828 71.1801L90.228 59.7801C90.698 59.2501 90.328 58.0701 89.358 57.1101Z" fill="#092E4C"/>
<path d="M76.798 69.6697C75.808 68.6797 74.598 68.3097 74.078 68.8097V68.8197L73.138 72.3297C73.288 72.1797 73.378 72.4497 73.658 72.7297C73.948 73.0097 73.838 72.9597 73.688 73.1097L73.018 73.7097L77.648 72.3897C78.158 71.8697 77.778 70.6497 76.798 69.6697Z" fill="#FFBB00"/>
<path d="M73.928 72.5807C73.648 72.3007 73.298 72.1807 73.138 72.3307L72.828 73.5207C72.798 73.6407 72.908 73.7407 73.018 73.7107L74.178 73.3707C74.328 73.2207 74.218 72.8607 73.928 72.5807Z" fill="#092E4C"/>
<path d="M74.075 43.5781H55.7038C54.9051 43.5781 54.2605 44.2367 54.2605 45.0215C54.2605 45.8202 54.9191 46.4648 55.7038 46.4648H74.061C74.8598 46.4648 75.5044 45.8062 75.5044 45.0215C75.5184 44.2227 74.8738 43.5781 74.075 43.5781Z" fill="#50E6FF"/>
<path d="M74.075 49.8555H55.7038C54.9051 49.8555 54.2605 50.5141 54.2605 51.2988C54.2605 52.0976 54.9191 52.7422 55.7038 52.7422H74.061C74.8598 52.7422 75.5044 52.0836 75.5044 51.2988C75.5184 50.5141 74.8738 49.8555 74.075 49.8555Z" fill="#32B0E7"/>
<path fill-rule="evenodd" clip-rule="evenodd" d="M55.7038 56.625H64.8824C65.6812 56.625 66.3258 57.2836 66.3258 58.0683C66.3258 58.8671 65.6672 59.5117 64.8824 59.5117H55.7038C54.9051 59.5117 54.2605 58.8531 54.2605 58.0683C54.2605 57.2836 54.9051 56.625 55.7038 56.625Z" fill="#185A97"/>
<defs>
<linearGradient id="paint0_linear_331_15016" x1="49.9221" y1="-13.2315" x2="53.9041" y2="132.539" gradientUnits="userSpaceOnUse">
<stop stop-color="#00ABDE"/>
<stop offset="1" stop-color="#007ED8"/>
</linearGradient>
<linearGradient id="paint1_linear_331_15016" x1="3.12643" y1="-20.0641" x2="98.654" y2="120.817" gradientUnits="userSpaceOnUse">
<stop stop-color="#007ED8"/>
<stop offset="0.7065" stop-color="#002D4C"/>
</linearGradient>
<linearGradient id="paint2_linear_331_15016" x1="86.5197" y1="57.4199" x2="92.065" y2="57.4199" gradientUnits="userSpaceOnUse">
<stop stop-color="#388CF4"/>
<stop offset="1" stop-color="#2C7CEF"/>
</linearGradient>
<linearGradient id="paint3_linear_331_15016" x1="74.1181" y1="69.7864" x2="79.6279" y2="69.7864" gradientUnits="userSpaceOnUse">
<stop stop-color="#388CF4"/>
<stop offset="1" stop-color="#2C7CEF"/>
</linearGradient>
</defs>
</svg>
