<?xml version="1.0" encoding="UTF-8"?>
<svg width="100px" height="100px" viewBox="0 0 100 100" version="1.1" xmlns="http://www.w3.org/2000/svg" xmlns:xlink="http://www.w3.org/1999/xlink">
    <!-- Generator: Sketch 53.2 (72643) - https://sketchapp.com -->
    <title>Work with data in a canvas app in PowerApps/write-data-submit-configure-a-form-for-updates-defaults-in-a-canvas-app-in-powerapps</title>
    <desc>Created with Sketch.</desc>
    <defs>
        <rect id="path-1" x="0" y="0" width="96" height="96" rx="48"></rect>
        <filter x="-7.1%" y="-8.4%" width="115.1%" height="117.2%" filterUnits="objectBoundingBox" id="filter-3">
            <feOffset dx="0" dy="2" in="SourceAlpha" result="shadowOffsetOuter1"></feOffset>
            <feColorMatrix values="0 0 0 0 0   0 0 0 0 0   0 0 0 0 0  0 0 0 0.0982223732 0" type="matrix" in="shadowOffsetOuter1" result="shadowMatrixOuter1"></feColorMatrix>
            <feMerge>
                <feMergeNode in="shadowMatrixOuter1"></feMergeNode>
                <feMergeNode in="SourceGraphic"></feMergeNode>
            </feMerge>
        </filter>
        <filter x="-36.8%" y="-11.5%" width="175.0%" height="123.0%" filterUnits="objectBoundingBox" id="filter-4">
            <feOffset dx="0" dy="2" in="SourceAlpha" result="shadowOffsetOuter1"></feOffset>
            <feColorMatrix values="0 0 0 0 0   0 0 0 0 0   0 0 0 0 0  0 0 0 0.0964956975 0" type="matrix" in="shadowOffsetOuter1" result="shadowMatrixOuter1"></feColorMatrix>
            <feMerge>
                <feMergeNode in="shadowMatrixOuter1"></feMergeNode>
                <feMergeNode in="SourceGraphic"></feMergeNode>
            </feMerge>
        </filter>
    </defs>
    <g id="Badges" stroke="none" stroke-width="1" fill="none" fill-rule="evenodd">
        <g id="Work-with-data-in-a-canvas-app-in-PowerApps" transform="translate(-50.000000, -660.000000)">
            <g id="Work-with-data-in-a-canvas-app-in-PowerApps/write-data-submit-configure-a-form-for-updates-defaults-in-a-canvas-app-in-powerapps" transform="translate(50.000000, 660.000000)">
                <g id="Mask" transform="translate(2.000000, 2.000000)">
                    <mask id="mask-2" fill="white">
                        <use xlink:href="#path-1"></use>
                    </mask>
                    <use id="BG" fill="#965596" xlink:href="#path-1"></use>
                    <g id="Browser-Stats" mask="url(#mask-2)">
                        <g transform="translate(19.161363, 23.755795)" id="Browser">
                            <g transform="translate(0.000000, 0.830672)">
                                <g filter="url(#filter-3)">
                                    <path d="M3.51019587,47.7531943 C1.57958814,47.7531943 0,46.1614211 0,44.2159206 L0,3.53727365 C0,1.59177314 1.57958814,0 3.51019587,0 L52.652938,0 C54.5835457,0 56.1631339,1.59177314 56.1631339,3.53727365 L56.1631339,44.2159206 C56.1631339,46.1614211 54.5835457,47.7531943 52.652938,47.7531943 L3.51019587,47.7531943" id="Fill-1485" fill="#30404D"></path>
                                    <path d="M4.38774483,45.100239 C3.42244097,45.100239 2.6326469,44.3043525 2.6326469,43.3316022 L2.6326469,9.72750253 C2.6326469,8.75475228 3.42244097,7.95886571 4.38774483,7.95886571 L51.775389,7.95886571 C52.7406929,7.95886571 53.530487,8.75475228 53.530487,9.72750253 L53.530487,43.3316022 C53.530487,44.3043525 52.7406929,45.100239 51.775389,45.100239 L4.38774483,45.100239" id="Fill-1486" fill="#E1E4E1"></path>
                                    <path d="M3.51019587,3.97943286 C3.51019587,3.24633289 4.09990877,2.65295524 4.82651932,2.65295524 C5.55400741,2.65295524 6.14284277,3.24633289 6.14284277,3.97943286 C6.14284277,4.7116485 5.55400741,5.30591047 4.82651932,5.30591047 C4.09990877,5.30591047 3.51019587,4.7116485 3.51019587,3.97943286" id="Fill-1487" fill="#DF5142"></path>
                                    <path d="M8.77548967,3.97943286 C8.77548967,3.24633289 9.36520257,2.65295524 10.0918131,2.65295524 C10.8193012,2.65295524 11.4081366,3.24633289 11.4081366,3.97943286 C11.4081366,4.7116485 10.8193012,5.30591047 10.0918131,5.30591047 C9.36520257,5.30591047 8.77548967,4.7116485 8.77548967,3.97943286" id="Fill-1488" fill="#EFB252"></path>
                                    <path d="M14.0407835,3.97943286 C14.0407835,3.24633289 14.6304964,2.65295524 15.3571069,2.65295524 C16.084595,2.65295524 16.6734304,3.24633289 16.6734304,3.97943286 C16.6734304,4.7116485 16.084595,5.30591047 15.3571069,5.30591047 C14.6304964,5.30591047 14.0407835,4.7116485 14.0407835,3.97943286" id="Fill-1489" fill="#7CB65A"></path>
                                    <path d="M52.2141635,5.30591047 L22.3774987,5.30591047 C21.6508881,5.30591047 21.0611752,4.7116485 21.0611752,3.97943286 C21.0611752,3.24721721 21.6508881,2.65295524 22.3774987,2.65295524 L52.2141635,2.65295524 C52.9407741,2.65295524 53.530487,3.24721721 53.530487,3.97943286 C53.530487,4.7116485 52.9407741,5.30591047 52.2141635,5.30591047" id="Fill-1490" fill="#697D85"></path>
                                </g>
                            </g>
                        </g>
                    </g>
                    <g id="Analytics" mask="url(#mask-2)">
                        <g transform="translate(29.915507, 39.137324)">
                            <path d="M17.923574,8.14316222 L17.923574,22.9094297 C17.923574,23.2490539 19.1257337,23.5246909 20.6121101,23.5246909 C22.0984865,23.5246909 23.3006462,23.2490539 23.3006462,22.9094297 L23.3006462,8.14316222 L17.923574,8.14316222 L22.5086147,20.6475048" id="Fill-878" fill="#69994E"></path>
                            <path d="M8.96178699,10.8575496 L8.96178699,22.8579992 C8.96178699,23.226013 10.3665471,23.5246909 12.0984124,23.5246909 C13.831174,23.5246909 15.2350379,23.226013 15.2350379,22.8579992 L15.2350379,10.8575496 L8.96178699,10.8575496" id="Fill-879" fill="#C2423D"></path>
                            <path d="M0,1.8095916 L0,22.8242038 C0,23.2108726 1.40476011,23.5246909 3.13662545,23.5246909 C4.86849078,23.5246909 6.27325089,23.2108726 6.27325089,22.8242038 L6.27325089,1.8095916 L0,1.8095916" id="Fill-880" fill="#33A7CB"></path>
                            <path d="M2.6885361,2.71438741 L2.6885361,23.5246909 C4.66781077,23.5246909 6.27325089,23.2239484 6.27325089,22.8533907 L6.27325089,2.71438741 L2.6885361,2.71438741" id="Fill-881" fill="#0095B2"></path>
                            <path d="M11.6503231,23.5246909 C13.6295978,23.5246909 15.2350379,23.226013 15.2350379,22.8579992 L15.2350379,10.8575496 L11.6503231,10.8575496 L11.6503231,23.5246909 Z" id="Fill-882" fill="#AB3B37"></path>
                            <path d="M20.6121101,8.14316222 L20.6121101,23.5246909 C22.5939453,23.5246909 24.1968249,23.2490539 24.1968249,22.9094297 L24.1968249,8.14316222 L20.6121101,8.14316222" id="Fill-883" fill="#598844"></path>
                            <path d="M24.1968249,8.14316222 C24.1968249,9.14205678 22.7943052,9.95275382 21.0601994,9.95275382 C19.3260936,9.95275382 17.923574,9.14205678 17.923574,8.14316222 C17.923574,7.14336286 19.3260936,6.33357061 21.0601994,6.33357061 C22.7943052,6.33357061 24.1968249,7.14336286 24.1968249,8.14316222" id="Fill-884" fill="#7CB65A"></path>
                            <path d="M15.2350379,10.8575496 C15.2350379,11.8564442 13.831174,12.6671412 12.0984124,12.6671412 C10.3665471,12.6671412 8.96178699,11.8564442 8.96178699,10.8575496 C8.96178699,9.85775026 10.3665471,9.04795802 12.0984124,9.04795802 C13.831174,9.04795802 15.2350379,9.85775026 15.2350379,10.8575496" id="Fill-885" fill="#DF5142"></path>
                            <path d="M6.27325089,1.8095916 C6.27325089,2.80848617 4.86849078,3.61918321 3.13662545,3.61918321 C1.40476011,3.61918321 0,2.80848617 0,1.8095916 C0,0.809792243 1.40476011,0 3.13662545,0 C4.86849078,0 6.27325089,0.809792243 6.27325089,1.8095916" id="Fill-886" fill="#55B7D9"></path>
                            <path d="M26.885361,3.61918321 L26.885361,22.8825777 C26.885361,23.2370242 28.2901211,23.5246909 30.0219864,23.5246909 C31.7538518,23.5246909 33.1586119,23.2370242 33.1586119,22.8825777 L33.1586119,3.61918321 L26.885361,3.61918321" id="Fill-880" fill="#F2BE53"></path>
                            <path d="M29.5738971,4.52397901 L29.5738971,23.5246909 C31.5531717,23.5246909 33.1586119,23.2500999 33.1586119,22.9117647 L33.1586119,4.52397901 L29.5738971,4.52397901" id="Fill-881" fill="#EFB252"></path>
                            <path d="M33.1586119,3.61918321 C33.1586119,4.61807777 31.7538518,5.42877481 30.0219864,5.42877481 C28.2901211,5.42877481 26.885361,4.61807777 26.885361,3.61918321 C26.885361,2.61938385 28.2901211,1.8095916 30.0219864,1.8095916 C31.7538518,1.8095916 33.1586119,2.61938385 33.1586119,3.61918321" id="Fill-886" fill="#FAD281"></path>
                        </g>
                    </g>
                    <g id="Pencil" filter="url(#filter-4)" mask="url(#mask-2)">
                        <g transform="translate(72.768746, 51.373753) scale(-1, 1) rotate(-28.000000) translate(-72.768746, -51.373753) translate(67.339971, 34.001673)">
                            <path d="M0.8197485,25.1937953 C0.8197485,25.4427951 0.901768352,26.2567789 1.04237362,26.4594531 L4.66735591,33.3155724 C4.87202073,33.6051071 5.19394707,33.7788279 5.53595988,33.7788279 C5.8779727,33.7788279 6.19989904,33.6051071 6.40456385,33.3155724 L10.2047062,26.3667406 C10.3453115,26.1640664 10.4218572,25.341788 10.4218572,25.0927882 L0.825222627,25.1855006" id="Fill-244" fill="#E1E4E1"></path>
                            <path d="M5.5183297,25.7852092 L5.61689096,33.1857779 C5.99690519,33.1857779 6.35460114,33.0120571 6.58200648,32.7225225 L9.92710081,27.2863351 C10.0833289,27.0836608 10.2766832,25.1383641 10.2766832,24.8893643 L5.12480657,25.8605328 L5.5183297,25.7852092 Z" id="Fill-245" fill="#C5CCCD"></path>
                            <path d="M1.86167625,0.0433085297 C1.26179663,0.0433085297 0.775921284,0.586186011 0.775921284,1.24970293 L0.775921284,4.26568894 C0.775921284,4.92920586 1.26179663,5.47208334 1.86167625,5.47208334 L9.46196098,5.47208334 C10.0612977,5.47208334 10.2361898,5.01626412 10.2361898,4.3527472 L10.2361898,1.33676119 C10.2361898,0.67324427 9.74977153,0.130366789 9.15043479,0.130366789 L1.86167625,0.0433085297 Z" id="Fill-246" fill="#546670"></path>
                            <path d="M4.84750239,3.08342242 L0.775921284,3.08342242 L0.775921284,4.38632838 L10.241137,4.33467856 L10.241137,1.07741367 L6.47613484,1.12906349 C6.02663228,1.12906349 5.66181862,1.56553699 5.66181862,2.10624296 C5.66181862,2.64694893 5.29700495,3.08342242 4.84750239,3.08342242 Z" id="Fill-247" fill="#30404D"></path>
                            <polyline id="Fill-248" fill="#EFB252" points="7.16459233 25.3881981 5.53595988 26.4739531 3.90732744 25.3881981 3.90732744 4.75885384 7.16459233 4.75885384 7.16459233 25.3881981"></polyline>
                            <polyline id="Fill-249" fill="#CC9547" points="10.2355711 25.3881981 8.60693867 26.4739531 6.97830623 25.3881981 6.97830623 4.75885384 10.2355711 4.75885384 10.2355711 25.3881981"></polyline>
                            <polyline id="Fill-250" fill="#F7CB64" points="4.09361354 25.3881981 2.4649811 26.4739531 0.836348655 25.3881981 0.836348655 4.75885384 4.09361354 4.75885384 4.09361354 25.3881981"></polyline>
                            <path d="M3.35258465,31.0110978 L4.52506014,33.1890207 C4.70220799,33.4604595 5.16828618,33.8074965 5.46431574,33.8074965 C5.76034529,33.8074965 6.10658027,33.3133871 6.36060738,33.0900834 L7.76274061,31.0682395 L3.35258465,31.0110978 Z" id="Fill-251" fill="#30404D"></path>
                            <path d="M5.60182197,31.0371595 L5.60182197,33.2086694 C5.99652804,33.2086694 6.36805296,33.0458062 6.60425009,32.7743674 L7.77333189,31.0371595 L5.60182197,31.0371595" id="Fill-252" fill="#182A37"></path>
                            <path d="M0.913785071,5.41085519 C0.644083539,5.41085519 0.425195338,5.16656033 0.425195338,4.86797771 C0.425195338,4.5693951 0.644083539,4.32510023 0.913785071,4.32510023 L9.70840027,4.32510023 C9.9781018,4.32510023 10.19699,4.5693951 10.19699,4.86797771 C10.19699,5.16656033 9.9781018,5.41085519 9.70840027,5.41085519 L0.913785071,5.41085519 Z" id="Fill-253" fill="#ADBDC4"></path>
                        </g>
                    </g>
                </g>
                <g id="PowerApps-Border" stroke="#742774" stroke-width="4">
                    <rect id="Azure-Border" x="2" y="2" width="96" height="96" rx="48"></rect>
                </g>
            </g>
        </g>
    </g>
</svg>